<?xml version="1.0" encoding="UTF-8" standalone="no"?>
<!-- Created with Inkscape (http://www.inkscape.org/) -->
<svg
   xmlns:dc="http://purl.org/dc/elements/1.1/"
   xmlns:cc="http://web.resource.org/cc/"
   xmlns:rdf="http://www.w3.org/1999/02/22-rdf-syntax-ns#"
   xmlns:svg="http://www.w3.org/2000/svg"
   xmlns="http://www.w3.org/2000/svg"
   xmlns:xlink="http://www.w3.org/1999/xlink"
   xmlns:sodipodi="http://sodipodi.sourceforge.net/DTD/sodipodi-0.dtd"
   xmlns:inkscape="http://www.inkscape.org/namespaces/inkscape"
   width="22"
   height="22"
   id="svg2"
   sodipodi:version="0.32"
   inkscape:version="0.45.1"
   version="1.0"
   sodipodi:docbase="/home/david/Documents/Projects/KDE/Oxygen/kdelibs/scalable/apps/small/22x22"
   sodipodi:docname="accessories-dictionary.svgz"
   inkscape:output_extension="org.inkscape.output.svgz.inkscape"
   inkscape:export-filename="/home/david/Documents/Projects/KDE/Oxygen/kdelibs/scalable/apps/small/22x22/accessories-dictionary.png"
   inkscape:export-xdpi="90"
   inkscape:export-ydpi="90">
  <defs
     id="defs4">
    <linearGradient
       inkscape:collect="always"
       id="linearGradient3606">
      <stop
         style="stop-color:#ffffff;stop-opacity:1;"
         offset="0"
         id="stop3608" />
      <stop
         style="stop-color:#dddddd;stop-opacity:1"
         offset="1"
         id="stop3610" />
    </linearGradient>
    <linearGradient
       inkscape:collect="always"
       id="linearGradient3592">
      <stop
         style="stop-color:#000000;stop-opacity:1;"
         offset="0"
         id="stop3594" />
      <stop
         style="stop-color:#000000;stop-opacity:0;"
         offset="1"
         id="stop3596" />
    </linearGradient>
    <linearGradient
       inkscape:collect="always"
       id="linearGradient3582">
      <stop
         style="stop-color:#ffffff;stop-opacity:1;"
         offset="0"
         id="stop3584" />
      <stop
         style="stop-color:#dddddd;stop-opacity:1"
         offset="1"
         id="stop3586" />
    </linearGradient>
    <linearGradient
       id="linearGradient3549">
      <stop
         style="stop-color:#e29390;stop-opacity:1"
         offset="0"
         id="stop3551" />
      <stop
         id="stop3557"
         offset="0.65957445"
         style="stop-color:#a71b1b;stop-opacity:1;" />
      <stop
         style="stop-color:#8a2121;stop-opacity:1;"
         offset="1"
         id="stop3553" />
    </linearGradient>
    <radialGradient
       inkscape:collect="always"
       xlink:href="#linearGradient3549"
       id="radialGradient3559"
       cx="-36.127712"
       cy="14.53337"
       fx="-36.127712"
       fy="14.53337"
       r="47.974007"
       gradientTransform="matrix(0.6388093,0,0,0.7135845,24.200243,-15.00473)"
       gradientUnits="userSpaceOnUse" />
    <linearGradient
       inkscape:collect="always"
       xlink:href="#linearGradient3582"
       id="linearGradient3588"
       x1="8.9042034"
       y1="5"
       x2="8.9042034"
       y2="9.4209986"
       gradientUnits="userSpaceOnUse"
       gradientTransform="matrix(1.3058786,-5.8793209e-4,4.4233886e-3,1.2430339,0.7603484,2.3683415)" />
    <linearGradient
       inkscape:collect="always"
       xlink:href="#linearGradient3592"
       id="linearGradient3598"
       x1="11.322603"
       y1="4.8094378"
       x2="11.322603"
       y2="10.569438"
       gradientUnits="userSpaceOnUse"
       gradientTransform="matrix(1.3058786,-5.8793209e-4,4.4233886e-3,1.2430339,0.7603484,2.3683415)" />
    <linearGradient
       inkscape:collect="always"
       xlink:href="#linearGradient3606"
       id="linearGradient3612"
       x1="8"
       y1="15.8312"
       x2="8"
       y2="14"
       gradientUnits="userSpaceOnUse"
       gradientTransform="matrix(1.2509855,0,0,1.0076743,0.5005935,3.9607669)" />
  </defs>
  <sodipodi:namedview
     id="base"
     pagecolor="#ffffff"
     bordercolor="#666666"
     borderopacity="1.0"
     gridtolerance="10000"
     guidetolerance="10"
     objecttolerance="10"
     inkscape:pageopacity="0.0"
     inkscape:pageshadow="2"
     inkscape:zoom="1"
     inkscape:cx="11"
     inkscape:cy="11"
     inkscape:document-units="px"
     inkscape:current-layer="layer1"
     width="22px"
     height="22px"
     showgrid="false"
     gridspacingx="1px"
     gridspacingy="1px"
     gridempspacing="4"
     showborder="false"
     inkscape:window-width="794"
     inkscape:window-height="738"
     inkscape:window-x="0"
     inkscape:window-y="0" />
  <metadata
     id="metadata7">
    <rdf:RDF>
      <cc:Work
         rdf:about="">
        <dc:format>image/svg+xml</dc:format>
        <dc:type
           rdf:resource="http://purl.org/dc/dcmitype/StillImage" />
      </cc:Work>
    </rdf:RDF>
  </metadata>
  <g
     inkscape:label="Layer 1"
     inkscape:groupmode="layer"
     id="layer1">
    <rect
       style="opacity:1;fill:url(#radialGradient3559);fill-opacity:1;stroke:none;stroke-width:4;stroke-linecap:round;stroke-linejoin:round;stroke-miterlimit:4;stroke-dasharray:none;stroke-dashoffset:0;stroke-opacity:1"
       id="rect2578"
       width="16.941868"
       height="18.924984"
       x="1.9789079"
       y="1.0754931"
       rx="0.92799956"
       ry="0.92799926"
       transform="matrix(0.9999934,-3.6271264e-3,4.7663383e-3,0.9999886,0,0)" />
    <path
       id="path3590"
       d="M 10.543852,12.699854 L 10.544273,12.818023 L 8.8826757,12.818772 L 8.8822547,12.700604 C 9.0541263,12.696487 9.1729066,12.680274 9.2385944,12.651964 C 9.3042676,12.621635 9.3369664,12.567081 9.3366899,12.488301 C 9.3363264,12.387304 9.2944539,12.248955 9.2110695,12.073255 L 8.941573,11.479505 L 7.235411,11.480273 L 6.9355899,12.204568 C 6.9019442,12.291442 6.8852556,12.372248 6.8855223,12.446986 C 6.8858305,12.533846 6.9210747,12.598467 6.9912559,12.640855 C 7.0614274,12.681225 7.1739708,12.701372 7.3288843,12.701304 L 7.329305,12.81947 L 6.0401336,12.820052 L 6.039713,12.701884 C 6.1245822,12.697805 6.1913887,12.686665 6.2401326,12.668463 C 6.2909972,12.650263 6.3470677,12.603776 6.4083432,12.52901 C 6.4696099,12.452224 6.5307945,12.352208 6.5918976,12.228962 C 6.6551214,12.105716 6.7393582,11.92388 6.8446076,11.683457 L 8.1897875,8.6377452 L 8.3202965,8.6376868 L 9.9562364,12.160789 C 10.069523,12.391014 10.159167,12.536412 10.225173,12.59698 C 10.291169,12.65755 10.397395,12.691842 10.543852,12.699854 M 7.342732,11.225707 L 8.8483564,11.22503 L 8.087871,9.5164785 L 7.342732,11.225707 M 11.503272,8.5908045 L 11.510033,10.490584 C 11.575278,10.339059 11.692607,10.213768 11.862023,10.114711 C 12.033553,10.013638 12.217995,9.9630554 12.415351,9.9629639 C 12.742151,9.9628194 13.015299,10.091974 13.234797,10.350429 C 13.454283,10.606869 13.564706,10.925974 13.566068,11.307746 C 13.567645,11.75214 13.422546,12.124888 13.130773,12.425994 C 12.838991,12.727103 12.477714,12.877752 12.046932,12.877947 C 11.785911,12.878063 11.540663,12.836765 11.311184,12.754047 C 11.083817,12.669314 10.969961,12.578466 10.969616,12.481506 L 10.958155,9.2606701 C 10.957695,9.1313962 10.937232,9.0465665 10.896769,9.0061814 C 10.856305,8.9658041 10.770289,8.9456428 10.638719,8.9456983 C 10.589912,8.9457244 10.552782,8.947761 10.527331,8.9518083 L 10.526976,8.8518201 L 10.717792,8.8032552 C 11.023078,8.7203028 11.274278,8.645451 11.471395,8.5786987 L 11.503272,8.5908045 M 11.511208,10.820848 L 11.516771,12.3843 C 11.517041,12.461061 11.58095,12.52971 11.708493,12.590254 C 11.836033,12.650794 11.983625,12.681027 12.151271,12.680953 C 12.418654,12.680831 12.62628,12.5858 12.774151,12.395856 C 12.922022,12.205912 12.995347,11.939244 12.994126,11.59585 C 12.992773,11.216097 12.916364,10.914146 12.764901,10.689996 C 12.613432,10.46585 12.410374,10.353833 12.155726,10.353945 C 11.988077,10.354023 11.838639,10.40156 11.707408,10.496555 C 11.576176,10.591555 11.510775,10.699652 11.511208,10.820848 M 13.939161,11.495435 C 13.938336,11.26314 13.977893,11.049006 14.057835,10.853031 C 14.137779,10.65706 14.244369,10.495415 14.377608,10.368094 C 14.510846,10.240779 14.662225,10.141732 14.83174,10.070954 C 15.003371,9.9981612 15.180436,9.9617221 15.362935,9.9616369 C 15.636685,9.9615164 15.872461,10.025039 16.070271,10.152205 C 16.268068,10.277357 16.367278,10.42679 16.367899,10.600505 C 16.368147,10.671206 16.337597,10.732829 16.276246,10.785373 C 16.214882,10.835902 16.141759,10.861185 16.056879,10.861221 C 15.98897,10.861254 15.927337,10.836032 15.871988,10.785555 C 15.816623,10.733063 15.776057,10.663392 15.750284,10.576543 L 15.708418,10.440214 C 15.676174,10.325092 15.632391,10.246334 15.57707,10.203937 C 15.523862,10.161544 15.438904,10.140372 15.322188,10.140422 C 15.059052,10.140544 14.846139,10.241638 14.683458,10.443706 C 14.52077,10.643758 14.439992,10.90336 14.441129,11.222513 C 14.442392,11.578029 14.536799,11.868863 14.72435,12.095013 C 14.914014,12.319142 15.157389,12.431141 15.454486,12.431009 C 15.641228,12.430925 15.802357,12.388433 15.937871,12.303533 C 16.073372,12.216613 16.218196,12.065051 16.372342,11.848844 L 16.464845,11.903343 C 16.433212,11.959916 16.407911,12.005378 16.388938,12.039724 C 16.372079,12.074073 16.338323,12.129635 16.287667,12.206417 C 16.237002,12.281178 16.189478,12.343819 16.145095,12.394339 C 16.100709,12.444858 16.0415,12.503463 15.967467,12.570156 C 15.89555,12.636847 15.822528,12.690408 15.748399,12.730842 C 15.674269,12.771276 15.587386,12.805653 15.487749,12.833977 C 15.390232,12.862301 15.288423,12.876487 15.182321,12.876536 C 14.821563,12.876698 14.524011,12.747552 14.289661,12.489102 C 14.057433,12.230651 13.940601,11.899427 13.939161,11.495435"
       style="font-size:7.43064022px;font-style:normal;font-weight:normal;opacity:0.15873018;fill:url(#linearGradient3588);fill-opacity:1;stroke:url(#linearGradient3598);stroke-width:2.00000024;stroke-linecap:round;stroke-linejoin:round;stroke-miterlimit:4;stroke-dasharray:none;stroke-opacity:1;font-family:Liberation Serif" />
    <rect
       ry="0.41599944"
       rx="0.41599965"
       y="1.6046463"
       x="2.5547833"
       height="17.866529"
       width="15.789959"
       id="rect3565"
       style="opacity:0.32275133;fill:none;fill-opacity:1;stroke:#000000;stroke-width:1.00000024;stroke-linecap:round;stroke-linejoin:round;stroke-miterlimit:4;stroke-dasharray:none;stroke-dashoffset:0;stroke-opacity:1"
       transform="matrix(0.9999934,-3.6201368e-3,4.7739267e-3,0.9999886,0,0)" />
    <path
       style="font-size:7.43064022px;font-style:normal;font-weight:normal;opacity:0.77248673;fill:#ffffff;fill-opacity:1;stroke:#ffffff;stroke-width:0.20000003;stroke-linecap:butt;stroke-linejoin:miter;stroke-miterlimit:4;stroke-dasharray:none;stroke-opacity:1;font-family:Liberation Serif"
       d="M 10.543852,12.699854 L 10.544273,12.818023 L 8.8826757,12.818772 L 8.8822547,12.700604 C 9.0541263,12.696487 9.1729066,12.680274 9.2385944,12.651964 C 9.3042676,12.621635 9.3369664,12.567081 9.3366899,12.488301 C 9.3363264,12.387304 9.2944539,12.248955 9.2110695,12.073255 L 8.941573,11.479505 L 7.235411,11.480273 L 6.9355899,12.204568 C 6.9019442,12.291442 6.8852556,12.372248 6.8855223,12.446986 C 6.8858305,12.533846 6.9210747,12.598467 6.9912559,12.640855 C 7.0614274,12.681225 7.1739708,12.701372 7.3288843,12.701304 L 7.329305,12.81947 L 6.0401336,12.820052 L 6.039713,12.701884 C 6.1245822,12.697805 6.1913887,12.686665 6.2401326,12.668463 C 6.2909972,12.650263 6.3470677,12.603776 6.4083432,12.52901 C 6.4696099,12.452224 6.5307945,12.352208 6.5918976,12.228962 C 6.6551214,12.105716 6.7393582,11.92388 6.8446076,11.683457 L 8.1897875,8.6377452 L 8.3202965,8.6376868 L 9.9562364,12.160789 C 10.069523,12.391014 10.159167,12.536412 10.225173,12.59698 C 10.291169,12.65755 10.397395,12.691842 10.543852,12.699854 M 7.342732,11.225707 L 8.8483564,11.22503 L 8.087871,9.5164785 L 7.342732,11.225707 M 11.503272,8.5908045 L 11.510033,10.490584 C 11.575278,10.339059 11.692607,10.213768 11.862023,10.114711 C 12.033553,10.013638 12.217995,9.9630554 12.415351,9.9629639 C 12.742151,9.9628194 13.015299,10.091974 13.234797,10.350429 C 13.454283,10.606869 13.564706,10.925974 13.566068,11.307746 C 13.567645,11.75214 13.422546,12.124888 13.130773,12.425994 C 12.838991,12.727103 12.477714,12.877752 12.046932,12.877947 C 11.785911,12.878063 11.540663,12.836765 11.311184,12.754047 C 11.083817,12.669314 10.969961,12.578466 10.969616,12.481506 L 10.958155,9.2606701 C 10.957695,9.1313962 10.937232,9.0465665 10.896769,9.0061814 C 10.856305,8.9658041 10.770289,8.9456428 10.638719,8.9456983 C 10.589912,8.9457244 10.552782,8.947761 10.527331,8.9518083 L 10.526976,8.8518201 L 10.717792,8.8032552 C 11.023078,8.7203028 11.274278,8.645451 11.471395,8.5786987 L 11.503272,8.5908045 M 11.511208,10.820848 L 11.516771,12.3843 C 11.517041,12.461061 11.58095,12.52971 11.708493,12.590254 C 11.836033,12.650794 11.983625,12.681027 12.151271,12.680953 C 12.418654,12.680831 12.62628,12.5858 12.774151,12.395856 C 12.922022,12.205912 12.995347,11.939244 12.994126,11.59585 C 12.992773,11.216097 12.916364,10.914146 12.764901,10.689996 C 12.613432,10.46585 12.410374,10.353833 12.155726,10.353945 C 11.988077,10.354023 11.838639,10.40156 11.707408,10.496555 C 11.576176,10.591555 11.510775,10.699652 11.511208,10.820848 M 13.939161,11.495435 C 13.938336,11.26314 13.977893,11.049006 14.057835,10.853031 C 14.137779,10.65706 14.244369,10.495415 14.377608,10.368094 C 14.510846,10.240779 14.662225,10.141732 14.83174,10.070954 C 15.003371,9.9981612 15.180436,9.9617221 15.362935,9.9616369 C 15.636685,9.9615164 15.872461,10.025039 16.070271,10.152205 C 16.268068,10.277357 16.367278,10.42679 16.367899,10.600505 C 16.368147,10.671206 16.337597,10.732829 16.276246,10.785373 C 16.214882,10.835902 16.141759,10.861185 16.056879,10.861221 C 15.98897,10.861254 15.927337,10.836032 15.871988,10.785555 C 15.816623,10.733063 15.776057,10.663392 15.750284,10.576543 L 15.708418,10.440214 C 15.676174,10.325092 15.632391,10.246334 15.57707,10.203937 C 15.523862,10.161544 15.438904,10.140372 15.322188,10.140422 C 15.059052,10.140544 14.846139,10.241638 14.683458,10.443706 C 14.52077,10.643758 14.439992,10.90336 14.441129,11.222513 C 14.442392,11.578029 14.536799,11.868863 14.72435,12.095013 C 14.914014,12.319142 15.157389,12.431141 15.454486,12.431009 C 15.641228,12.430925 15.802357,12.388433 15.937871,12.303533 C 16.073372,12.216613 16.218196,12.065051 16.372342,11.848844 L 16.464845,11.903343 C 16.433212,11.959916 16.407911,12.005378 16.388938,12.039724 C 16.372079,12.074073 16.338323,12.129635 16.287667,12.206417 C 16.237002,12.281178 16.189478,12.343819 16.145095,12.394339 C 16.100709,12.444858 16.0415,12.503463 15.967467,12.570156 C 15.89555,12.636847 15.822528,12.690408 15.748399,12.730842 C 15.674269,12.771276 15.587386,12.805653 15.487749,12.833977 C 15.390232,12.862301 15.288423,12.876487 15.182321,12.876536 C 14.821563,12.876698 14.524011,12.747552 14.289661,12.489102 C 14.057433,12.230651 13.940601,11.899427 13.939161,11.495435"
       id="text3567" />
    <rect
       ry="0.49999052"
       rx="0.49999213"
       y="18.068201"
       x="3.0025644"
       height="1.007674"
       width="15.011827"
       id="rect3602"
       style="opacity:0.6825397;fill:url(#linearGradient3612);fill-opacity:1;stroke:none;stroke-width:4;stroke-linecap:round;stroke-linejoin:round;stroke-miterlimit:4;stroke-dasharray:none;stroke-dashoffset:0;stroke-opacity:1"
       transform="matrix(0.99999,-4.4702596e-3,1.963218e-3,0.9999981,0,0)" />
    <rect
       transform="matrix(2.1127965e-3,-0.9999978,0.9999649,-8.3798665e-3,0,0)"
       style="opacity:0.6825397;fill:#590000;fill-opacity:1;stroke:none;stroke-width:4;stroke-linecap:round;stroke-linejoin:round;stroke-miterlimit:4;stroke-dasharray:none;stroke-dashoffset:0;stroke-opacity:1"
       id="rect3634"
       width="16.997515"
       height="1.1894548"
       x="-18.999922"
       y="2.9644063"
       rx="0.49994907"
       ry="0.49994129" />
    <rect
       ry="0.49920565"
       rx="0.49994856"
       y="3.9743972"
       x="-19.036737"
       height="0.44671717"
       width="16.997505"
       id="rect3638"
       style="opacity:0.29100527;fill:#ffffff;fill-opacity:1;stroke:none;stroke-width:4;stroke-linecap:round;stroke-linejoin:round;stroke-miterlimit:4;stroke-dasharray:none;stroke-dashoffset:0;stroke-opacity:1"
       transform="matrix(4.8979968e-3,-0.999988,0.9998209,-1.892486e-2,0,0)" />
    <rect
       transform="matrix(0.9998962,-1.4405145e-2,7.9855148e-3,0.9999681,0,0)"
       style="opacity:0.0952381;fill:#ffffff;fill-opacity:1;stroke:none;stroke-width:4;stroke-linecap:round;stroke-linejoin:round;stroke-miterlimit:4;stroke-dasharray:none;stroke-dashoffset:0;stroke-opacity:1"
       id="rect3640"
       width="10.001011"
       height="0.86998314"
       x="5.9474649"
       y="6.2227974"
       rx="0.49952435"
       ry="0.49906921" />
    <rect
       ry="0.49905354"
       rx="0.49908277"
       y="5.2217646"
       x="5.9547925"
       height="0.87002474"
       width="10.145337"
       id="rect3642"
       style="opacity:0.26984127;fill:#7a1818;fill-opacity:1;stroke:none;stroke-width:4;stroke-linecap:round;stroke-linejoin:round;stroke-miterlimit:4;stroke-dasharray:none;stroke-dashoffset:0;stroke-opacity:1"
       transform="matrix(0.9998992,-1.4200884e-2,8.1003905e-3,0.9999672,0,0)" />
    <path
       style="font-size:6px;font-style:normal;font-weight:normal;opacity:0.46031745;fill:#ffffff;fill-opacity:1;stroke:none;stroke-width:1px;stroke-linecap:butt;stroke-linejoin:miter;stroke-opacity:1;font-family:Liberation Serif"
       d="M 5.6143271,3.6410472 C 5.6148284,3.7059434 5.6203535,3.7645454 5.6309021,3.8168523 C 5.6414501,3.869161 5.6591843,3.9137685 5.6841046,3.9506766 C 5.7090248,3.9875848 5.7423333,4.0160897 5.7840303,4.0361899 C 5.8257229,4.0558273 5.8779653,4.0654225 5.940757,4.0649771 C 6.0035478,4.0645314 6.0556357,4.054195 6.0970218,4.0339669 C 6.1384025,4.0132765 6.1712661,3.984302 6.1956139,3.9470437 C 6.2204432,3.9097824 6.2377266,3.8649265 6.247466,3.8124745 C 6.2572034,3.7600225 6.2618215,3.7013481 6.2613205,3.6364531 C 6.2608213,3.5720219 6.2553004,3.5138834 6.2447566,3.4620393 C 6.2342111,3.4101958 6.2162408,3.366284 6.1908454,3.3303059 C 6.1659279,3.2938614 6.1326249,3.2660525 6.0909361,3.2468779 C 6.0492459,3.2277052 5.9970056,3.2183418 5.9342146,3.2187868 C 5.8714228,3.2192333 5.8193331,3.2293376 5.7779448,3.2491004 C 5.736556,3.2688649 5.7036865,3.2971445 5.6793361,3.3339389 C 5.6549822,3.3702702 5.637934,3.4144302 5.6281927,3.466417 C 5.6184505,3.5184062 5.6138289,3.576616 5.6143271,3.6410472 M 5.462903,3.6421229 C 5.462265,3.5596128 5.4720998,3.4883862 5.492407,3.4284419 C 5.5131968,3.3684955 5.5434862,3.3189111 5.5832756,3.2796882 C 5.6230642,3.2404664 5.6723504,3.2113763 5.7311348,3.1924154 C 5.7899186,3.1734558 5.8574682,3.1637047 5.9337844,3.1631619 C 6.0076845,3.1626382 6.0739286,3.1714395 6.1325172,3.189565 C 6.1915871,3.2076884 6.2418012,3.2360723 6.2831588,3.2747183 C 6.3245149,3.313365 6.3562922,3.3625087 6.378491,3.4221491 C 6.4006879,3.4817925 6.4121056,3.5528678 6.4127445,3.6353772 C 6.4133818,3.7178878 6.4030674,3.7895823 6.3818025,3.8504593 C 6.360532,3.9108743 6.3295217,3.9609271 6.2887715,4.000619 C 6.2480191,4.040312 6.1982554,4.0701016 6.1394789,4.0899891 C 6.081181,4.1094085 6.0150818,4.1193817 5.9411818,4.1199059 C 5.8672806,4.1204306 5.8010348,4.1113978 5.7424438,4.0928083 C 5.6838488,4.0737548 5.6338707,4.0446732 5.5925106,4.0055635 C 5.5511499,3.9664552 5.5193687,3.9168479 5.4971676,3.8567417 C 5.4749622,3.7961735 5.463541,3.7246327 5.462903,3.6421229 M 7.1216818,4.0517228 L 7.2014917,4.0657595 L 7.2017339,4.0970471 L 6.8930895,4.0992394 L 6.8928476,4.0679505 L 6.9832887,4.0513156 L 6.8242779,3.8208942 L 6.6420517,4.055129 L 6.7356274,4.069067 L 6.7358693,4.1003558 L 6.4909827,4.1020948 L 6.4907407,4.0708055 L 6.5696269,4.0591202 L 6.7913094,3.7738454 L 6.5920851,3.4964254 L 6.5115291,3.4796142 L 6.5112875,3.4483247 L 6.8199315,3.4461333 L 6.8201736,3.4774219 L 6.7297541,3.4968386 L 6.862343,3.6836407 L 7.0115804,3.4934462 L 6.9179833,3.4767277 L 6.9177413,3.4454388 L 7.1626281,3.4436998 L 7.1628699,3.4749887 L 7.0847348,3.4901457 L 6.8953011,3.7292992 L 7.1216818,4.0517228 M 7.8802547,3.4844958 L 7.6193728,4.135107 C 7.6042062,4.1727632 7.5887791,4.207872 7.5730907,4.2404332 C 7.5574021,4.2729942 7.5397476,4.3011646 7.5201274,4.3249458 C 7.5009927,4.349187 7.4789192,4.3681186 7.4539069,4.3817399 C 7.4288978,4.3958238 7.3997291,4.4029843 7.3664016,4.4032213 C 7.3538433,4.4033094 7.3427322,4.4031572 7.3330687,4.4027626 C 7.3238875,4.4023642 7.3151863,4.4014993 7.3069644,4.4001669 C 7.2987458,4.3992972 7.2905258,4.3981966 7.2823039,4.3968652 C 7.274082,4.3955321 7.2648901,4.3937434 7.2547292,4.3914989 L 7.253638,4.2503496 L 7.2876901,4.2501085 L 7.3121154,4.3166887 C 7.3271712,4.3272434 7.3479815,4.3324259 7.3745474,4.3322377 C 7.3953166,4.3320902 7.4141202,4.3275528 7.4309578,4.3186259 C 7.4477943,4.3096987 7.4631546,4.2970733 7.4770363,4.2807505 C 7.4914048,4.2648869 7.5043008,4.2460202 7.5157249,4.2241525 C 7.5271483,4.2022831 7.5380713,4.178101 7.5484938,4.1516037 L 7.566944,4.1014073 L 7.3028362,3.4913777 L 7.2331478,3.4744897 L 7.2329061,3.4432006 L 7.5487955,3.4409569 L 7.5490372,3.4722468 L 7.4419539,3.4917812 L 7.6295132,3.947292 L 7.8042019,3.4878176 L 7.6975634,3.4711919 L 7.6973218,3.4399024 L 7.9509024,3.4381018 L 7.9511444,3.4693907 L 7.8802547,3.4844958 M 8.5886249,3.6400901 C 8.5892046,3.7151848 8.566218,3.7721338 8.5196639,3.8109414 C 8.473109,3.8497468 8.4058775,3.8694617 8.31797,3.8700864 C 8.298166,3.8702275 8.2781141,3.8694424 8.2578131,3.8677328 C 8.2379919,3.8655551 8.2213083,3.8631247 8.2077627,3.8604392 L 8.1628222,3.9518482 C 8.1643321,3.9597182 8.173808,3.9670687 8.1912504,3.9738983 C 8.2086925,3.9807282 8.2304546,3.9840502 8.2565376,3.9838647 L 8.4579535,3.9824344 C 8.5313707,3.9819128 8.5858274,3.9968238 8.6213245,4.0271664 C 8.6573034,4.057506 8.6755007,4.0995613 8.6759172,4.1533321 C 8.6761495,4.1834618 8.6698564,4.212943 8.657038,4.2417747 C 8.6447047,4.2710672 8.6241345,4.2969408 8.5953265,4.3193966 C 8.5670037,4.3423117 8.5297099,4.3606562 8.4834452,4.3744283 C 8.4371835,4.3886642 8.3802418,4.3960213 8.3126209,4.396502 C 8.260938,4.3968679 8.2169519,4.3930091 8.1806619,4.3849232 C 8.1443749,4.3772991 8.1148253,4.3663843 8.0920127,4.352176 C 8.0691998,4.3379669 8.0526487,4.3213955 8.0423588,4.3024632 C 8.0320684,4.2835297 8.0268372,4.2629393 8.0266654,4.2406888 C 8.0265468,4.225392 8.0293321,4.2107696 8.0350208,4.1968228 C 8.0411961,4.1833358 8.0495466,4.1700645 8.0600723,4.1570096 C 8.0710849,4.1444158 8.0840313,4.1320389 8.0989113,4.1198809 C 8.1137913,4.1077226 8.129879,4.0955553 8.1471745,4.0833796 C 8.1384586,4.0806602 8.1282814,4.0763286 8.1166429,4.0703852 C 8.105483,4.0639748 8.0947941,4.0559384 8.0845757,4.0462757 C 8.0743568,4.036614 8.0658182,4.0255487 8.05896,4.0130809 C 8.052097,4.0001499 8.0486048,3.9858051 8.0484831,3.9700436 L 8.1619996,3.8454667 C 8.0854188,3.8117069 8.0467393,3.744533 8.0459618,3.6439441 C 8.0456786,3.6073251 8.0517086,3.5750646 8.064052,3.5471627 C 8.0763914,3.5187984 8.094082,3.4952626 8.1171232,3.4765563 C 8.1406438,3.4573835 8.169515,3.44304 8.2037375,3.4335247 C 8.2379556,3.4235478 8.2768,3.4184045 8.3202717,3.4180952 C 8.3337956,3.4179991 8.3475669,3.4185971 8.3615856,3.4198879 C 8.3756028,3.4211798 8.3886566,3.422709 8.4007468,3.424477 C 8.4133153,3.4257795 8.4241974,3.4275566 8.4333932,3.4298082 C 8.442584,3.4315968 8.4493588,3.4331717 8.453717,3.4345309 L 8.6132387,3.3562154 L 8.6388281,3.3859333 L 8.5388943,3.4867724 C 8.5554523,3.5042708 8.5676994,3.5264348 8.575636,3.5532647 C 8.5840511,3.5796285 8.5883805,3.6085702 8.5886249,3.6400901 M 8.5630593,4.1756892 C 8.5628544,4.1492669 8.5542422,4.1286995 8.5372226,4.1139868 C 8.5202022,4.099273 8.4945451,4.0920394 8.460252,4.0922829 L 8.1965278,4.0941544 C 8.1864487,4.1025702 8.1771036,4.1121401 8.1684919,4.1228631 C 8.1603666,4.1340471 8.153211,4.1456867 8.1470253,4.1577831 C 8.1413224,4.169876 8.1368267,4.1819613 8.1335391,4.1940375 C 8.1302547,4.2065764 8.1286573,4.2186406 8.1287469,4.230229 C 8.1288758,4.2469153 8.1316487,4.2619626 8.137066,4.2753677 C 8.1429696,4.2892327 8.1527213,4.3009834 8.1663204,4.3106226 C 8.1804031,4.3202569 8.1992998,4.3277717 8.2230104,4.3331661 C 8.2467209,4.3385605 8.2764475,4.3411303 8.3121906,4.3408779 C 8.3556613,4.3405679 8.3930625,4.3361305 8.4243944,4.3275641 C 8.4562114,4.3194573 8.4824474,4.3079133 8.503103,4.2929335 C 8.5237607,4.2784158 8.5388428,4.2611572 8.5483498,4.2411555 C 8.5583379,4.2211519 8.5632409,4.1993296 8.5630593,4.1756892 M 8.3190102,3.8172332 C 8.371658,3.8168588 8.408739,3.8022252 8.4302522,3.7733318 C 8.4522449,3.7439711 8.4630135,3.6998565 8.4625591,3.6409858 C 8.4623328,3.6117834 8.4594809,3.5865392 8.4540031,3.5652537 C 8.4490042,3.5435026 8.4406551,3.5257148 8.4289558,3.511891 C 8.4177382,3.498064 8.4029261,3.4877391 8.384518,3.4809155 C 8.3661098,3.4740928 8.3438643,3.4707746 8.3177821,3.470959 C 8.2912161,3.471148 8.2685413,3.474786 8.2497584,3.481872 C 8.2314573,3.4889561 8.2163232,3.4994941 8.2043554,3.5134857 C 8.1928707,3.5274746 8.1845558,3.5453803 8.1794118,3.5672039 C 8.174263,3.5885653 8.1718013,3.6138472 8.1720276,3.6430494 C 8.1722534,3.6722528 8.1751088,3.6979605 8.1805943,3.7201722 C 8.1860755,3.7419212 8.19467,3.7601705 8.2063769,3.7749207 C 8.2180799,3.7892092 8.2331375,3.7999958 8.2515501,3.8072814 C 8.2699576,3.8141047 8.2924443,3.8174213 8.3190102,3.8172332 M 8.8894891,3.7561627 L 8.8895855,3.768678 C 8.8898468,3.8025172 8.8925132,3.8349476 8.8975833,3.8659703 C 8.9031366,3.8969901 8.9134929,3.9244986 8.9286528,3.948496 C 8.9442916,3.9720271 8.9659326,3.9908791 8.9935759,4.0050527 C 9.0212143,4.0187644 9.0574941,4.0254594 9.1024144,4.0251405 C 9.1169042,4.0250385 9.1321157,4.0244671 9.1480485,4.023426 C 9.1639766,4.0219227 9.1799034,4.0201867 9.1958287,4.0182193 C 9.2117533,4.0162524 9.2271936,4.0140566 9.2421494,4.0116323 C 9.2571044,4.009208 9.2708505,4.0065612 9.2833875,4.00369 L 9.2836891,4.0426277 C 9.2726331,4.0496595 9.2591605,4.0564771 9.2432718,4.0630799 C 9.2278616,4.0692158 9.2107581,4.0748993 9.1919603,4.0801328 C 9.1731617,4.0853652 9.1531475,4.0894475 9.1319165,4.0923795 C 9.1106888,4.0957754 9.0892074,4.0975508 9.067472,4.0977053 C 9.0109598,4.0981064 8.9630845,4.0910295 8.9238463,4.0764738 C 8.8850902,4.0619152 8.8535242,4.0401202 8.8291481,4.0110881 C 8.8047717,3.9820571 8.7871038,3.9460248 8.776144,3.9029909 C 8.7651846,3.8599569 8.7594876,3.8103967 8.7590545,3.7543083 C 8.7581724,3.6402776 8.78239,3.5550419 8.8317066,3.4986005 C 8.8810227,3.4421596 8.9518085,3.4136108 9.0440642,3.412955 C 9.0802894,3.4126987 9.1141362,3.4170944 9.1456039,3.4261408 C 9.1775539,3.4351861 9.2054473,3.450517 9.2292838,3.4721351 C 9.2531189,3.493753 9.2719406,3.5228255 9.2857491,3.5593468 C 9.300038,3.5958679 9.3073952,3.6414767 9.3078193,3.6961743 L 9.3082593,3.7531894 L 8.8894891,3.7561627 M 9.044494,3.4685801 C 9.0174451,3.4687718 8.9940623,3.4745018 8.9743449,3.485766 C 8.9551069,3.4965648 8.9390442,3.511977 8.9261573,3.5320019 C 8.913753,3.5520233 8.9045222,3.5764253 8.8984655,3.6052087 C 8.8928874,3.6335274 8.8902353,3.6653001 8.8905079,3.7005282 L 9.1817636,3.6984595 C 9.1814907,3.6632313 9.1790718,3.6314942 9.1745064,3.6032494 C 9.1704197,3.5745378 9.1629861,3.5502538 9.1522063,3.5303965 C 9.1419088,3.5105367 9.1280247,3.4953371 9.1105542,3.484799 C 9.0930792,3.4737989 9.0710595,3.4683916 9.044494,3.4685801 M 9.5916174,3.4792965 C 9.6050841,3.471784 9.620962,3.4637923 9.6392526,3.4553163 C 9.6580261,3.4468405 9.677528,3.4390524 9.6977611,3.4319544 C 9.7179929,3.4248579 9.738236,3.4191521 9.7584918,3.4148344 C 9.7787419,3.4100564 9.7975619,3.4076045 9.8149504,3.4074806 C 9.8410325,3.4072959 9.8649673,3.4106028 9.8867562,3.4174004 C 9.9085452,3.4242003 9.9272268,3.4351932 9.9428027,3.4503797 C 9.9588599,3.465564 9.9713313,3.4854085 9.9802168,3.5099141 C 9.9895838,3.5344166 9.9944021,3.5640502 9.9946703,3.5988158 L 9.9979922,4.028516 L 10.080722,4.0453117 L 10.080963,4.0766008 L 9.7875343,4.0786842 L 9.7872929,4.0473965 L 9.8777238,4.0293697 L 9.8744966,3.6121847 C 9.8741987,3.5737113 9.8640652,3.5436521 9.8440932,3.5220066 C 9.8245997,3.4998939 9.7943262,3.4889834 9.7532697,3.4892746 C 9.7397451,3.4893717 9.7255006,3.4901677 9.7105403,3.4916637 C 9.6955758,3.4931607 9.6808569,3.4948886 9.6663822,3.4968446 C 9.6519061,3.4988018 9.6381585,3.5012179 9.6251394,3.5040915 C 9.6125988,3.5064981 9.6019881,3.5086595 9.5933087,3.5105755 L 9.5973336,4.0313607 L 9.6894826,4.0480909 L 9.6897241,4.0793787 L 9.3955706,4.0814679 L 9.3953282,4.050179 L 9.4770654,4.0322155 L 9.4727636,3.4759682 L 9.3907595,3.4591677 L 9.3905173,3.4278781 L 9.5846885,3.4264994 L 9.5916174,3.4792965 M 11.331448,3.594885 C 11.330915,3.5262821 11.320558,3.4672508 11.30037,3.4177924 C 11.280179,3.3678715 11.251363,3.3268183 11.213919,3.2946345 C 11.176959,3.2624488 11.132335,3.2386606 11.080053,3.2232696 C 11.027763,3.2078804 10.969501,3.2004141 10.905258,3.200869 L 10.774847,3.2017951 L 10.781068,4.0062666 C 10.795563,4.0070906 10.811265,4.0076748 10.828177,4.0080181 C 10.845083,4.0083609 10.86248,4.0089336 10.880358,4.0097338 C 10.898232,4.0100697 10.916108,4.0104067 10.93398,4.0107428 C 10.952336,4.0106128 10.970209,4.010486 10.987594,4.0103621 C 11.048938,4.0099264 11.101278,4.0009799 11.144616,3.9835193 C 11.188433,3.9655924 11.22422,3.9393799 11.25197,3.9048793 C 11.279713,3.8699146 11.299911,3.82666 11.312552,3.7751136 C 11.325677,3.7235652 11.331979,3.6634898 11.331448,3.594885 M 10.951143,3.1379617 C 11.031808,3.1373897 11.104565,3.1449856 11.169415,3.1607493 C 11.234742,3.1765104 11.290492,3.2025374 11.336663,3.2388313 C 11.382832,3.2751251 11.41846,3.3223875 11.443546,3.3806179 C 11.469111,3.438846 11.482226,3.5103736 11.482884,3.5952011 C 11.483467,3.6712204 11.473846,3.738738 11.454016,3.7977512 C 11.434183,3.856765 11.403898,3.9065813 11.363153,3.9472007 C 11.322409,3.9878204 11.270722,4.0187821 11.208088,4.0400871 C 11.145943,4.0613897 11.072608,4.0723401 10.98808,4.0729397 C 10.960548,4.0731356 10.930359,4.0731183 10.897509,4.0728883 C 10.865148,4.0731183 10.833268,4.0731126 10.80187,4.0728722 C 10.770469,4.0726311 10.740519,4.0723809 10.71202,4.0721193 C 10.684002,4.0723186 10.660577,4.0724848 10.64174,4.0726179 L 10.517123,4.0735032 L 10.516837,4.0366525 L 10.641309,4.016994 L 10.634955,3.1951391 L 10.510197,3.1779465 L 10.509912,3.1410952 L 10.951143,3.1379617 M 11.81455,3.1971929 C 11.814628,3.2073921 11.81253,3.2171415 11.808255,3.2264422 C 11.804461,3.2352778 11.798963,3.2431966 11.791773,3.2502013 C 11.784582,3.2572061 11.776176,3.2628291 11.766547,3.2670689 C 11.756914,3.2708466 11.746782,3.2727719 11.736156,3.2728469 C 11.725531,3.2729227 11.715376,3.2711413 11.705685,3.2675004 C 11.696474,3.2633946 11.688221,3.2578911 11.680921,3.2509883 C 11.673624,3.2440874 11.667768,3.2362484 11.663351,3.227471 C 11.659416,3.2182288 11.657409,3.2085088 11.657331,3.1983096 C 11.657252,3.1881127 11.659108,3.1783648 11.662897,3.1690657 C 11.667176,3.1597648 11.67291,3.1516116 11.6801,3.1446054 C 11.687292,3.1376027 11.695461,3.1322142 11.70461,3.1284391 C 11.714239,3.1241999 11.724365,3.1220414 11.734991,3.1219646 C 11.745616,3.1218902 11.755779,3.1239054 11.765471,3.1280071 C 11.775158,3.131648 11.783651,3.1369182 11.790953,3.1438189 C 11.798247,3.1507211 11.803868,3.1587939 11.807802,3.1680365 C 11.81222,3.1772772 11.814471,3.1869966 11.81455,3.1971929 M 11.813631,4.0156214 L 11.930413,4.0321765 L 11.930655,4.0634653 L 11.577817,4.0659713 L 11.577574,4.0346821 L 11.69336,4.0164762 L 11.689061,3.4602293 L 11.592567,3.4435316 L 11.592323,3.4122424 L 11.808957,3.4107043 L 11.813631,4.0156214 M 12.570824,4.0192843 C 12.558332,4.0281809 12.543419,4.0361674 12.526083,4.0432438 C 12.508745,4.0498567 12.490191,4.0553199 12.470419,4.0596325 C 12.450653,4.0644076 12.429911,4.0680324 12.408191,4.0705036 C 12.386957,4.0729734 12.366196,4.0742793 12.34591,4.0744236 C 12.286984,4.0748424 12.236449,4.0675509 12.194312,4.0525539 C 12.152649,4.037088 12.118421,4.0146164 12.091626,3.985139 C 12.064831,3.9556609 12.044987,3.9196438 12.032104,3.877088 C 12.019209,3.8340676 12.012555,3.7854409 12.012136,3.7312062 C 12.011674,3.6718735 12.019254,3.6208285 12.034864,3.5780698 C 12.050949,3.5348438 12.073378,3.4994539 12.10215,3.4718984 C 12.130915,3.4438811 12.165051,3.423242 12.204557,3.4099815 C 12.244547,3.3967182 12.28821,3.3899178 12.335544,3.3895809 C 12.374667,3.3893034 12.412603,3.3913526 12.449345,3.3957252 C 12.486087,3.3996375 12.519454,3.4042678 12.549442,3.4096175 L 12.550854,3.5917884 L 12.511004,3.5920711 L 12.478956,3.4768718 C 12.461013,3.4672645 12.439214,3.4595389 12.413568,3.453694 C 12.388404,3.447847 12.362055,3.4450209 12.334523,3.4452163 C 12.303131,3.4454398 12.275399,3.4511997 12.251336,3.4624949 C 12.227748,3.4733247 12.207594,3.4903888 12.190869,3.5136847 C 12.174625,3.5369787 12.162295,3.5665025 12.153876,3.6022559 C 12.14594,3.6380073 12.142165,3.680682 12.142548,3.7302802 C 12.142871,3.7719994 12.146786,3.8097522 12.154292,3.8435382 C 12.161795,3.8768627 12.174815,3.9052789 12.193354,3.9287894 C 12.21189,3.9522991 12.236665,3.9704337 12.267678,3.9831929 C 12.299173,3.9959491 12.338833,4.0021582 12.386649,4.0018177 C 12.403075,4.0017022 12.419733,4.0011203 12.436628,4.0000714 C 12.454011,3.9985591 12.470661,3.9968173 12.486584,3.9948505 C 12.502987,3.9924158 12.518183,3.9897586 12.532169,3.9868776 C 12.546638,3.9839935 12.559416,3.9808901 12.570501,3.9775659 L 12.570824,4.0192843 M 12.858148,4.0707862 C 12.811775,4.071115 12.776897,4.058151 12.753506,4.0318941 C 12.730602,4.0056331 12.718965,3.9686313 12.718593,3.9208868 L 12.715051,3.4626784 L 12.625935,3.463312 L 12.625698,3.4320228 L 12.716052,3.4042622 L 12.788083,3.2556419 L 12.833724,3.2553176 L 12.834868,3.4034184 L 12.990642,3.4023126 L 12.991094,3.4607187 L 12.835321,3.4618251 L 12.838767,3.9075171 C 12.839003,3.9376474 12.846182,3.9603109 12.860306,3.9755081 C 12.874914,3.9907013 12.893813,3.9982164 12.916994,3.9980512 C 12.934868,3.997925 12.952486,3.996641 12.969857,3.9941992 C 12.987712,3.9917561 13.004114,3.9890893 13.019069,3.9862012 L 13.019417,4.0313968 C 13.012206,4.0360834 13.002581,4.0407874 12.990543,4.0455085 C 12.978988,4.0502262 12.965974,4.0542588 12.951511,4.0576067 C 12.93753,4.0614143 12.922583,4.064534 12.906661,4.0669646 C 12.890738,4.0693955 12.874566,4.0706694 12.858148,4.0707862 M 13.295464,3.1866769 C 13.295543,3.196875 13.293442,3.2066251 13.289166,3.215925 C 13.285371,3.2247604 13.279877,3.2326808 13.272687,3.2396845 C 13.265495,3.24669 13.257085,3.2523125 13.247456,3.2565515 C 13.237823,3.2603297 13.227697,3.2622559 13.217069,3.2623298 C 13.206442,3.2624063 13.196287,3.2606248 13.1866,3.2569843 C 13.177385,3.2528782 13.169133,3.2473741 13.161835,3.2404722 C 13.154537,3.233571 13.148679,3.2257314 13.144265,3.2169542 C 13.140329,3.2077127 13.138318,3.1979911 13.138242,3.1877935 C 13.138161,3.1775962 13.140019,3.1678486 13.143811,3.1585484 C 13.14809,3.1492487 13.153822,3.1410944 13.16101,3.134089 C 13.168206,3.1270865 13.176371,3.1216975 13.185524,3.1179224 C 13.195149,3.1136834 13.205278,3.1115242 13.215905,3.1114485 C 13.226531,3.1113737 13.236688,3.113388 13.246381,3.1174902 C 13.25607,3.1211306 13.264565,3.126402 13.271865,3.1333017 C 13.279161,3.1402041 13.28478,3.1482779 13.288716,3.1575197 C 13.293134,3.1667615 13.29538,3.1764799 13.295464,3.1866769 M 13.294543,4.0051051 L 13.411326,4.0216603 L 13.411569,4.0529483 L 13.058729,4.0554543 L 13.058489,4.024166 L 13.174274,4.0059601 L 13.169975,3.4497132 L 13.07348,3.4330153 L 13.073235,3.4017253 L 13.28987,3.4001872 L 13.294543,4.0051051 M 14.121938,3.7176147 C 14.122795,3.8284009 14.097613,3.913643 14.04639,3.9733435 C 13.995166,4.0330428 13.914973,4.063281 13.805812,4.0640561 C 13.703413,4.0647833 13.625905,4.0358969 13.573285,3.9773987 C 13.520662,3.9188991 13.493923,3.8337939 13.493062,3.7220815 C 13.492205,3.6117588 13.517638,3.52721 13.569349,3.4684328 C 13.621061,3.4096564 13.70005,3.3798912 13.806311,3.3791367 C 13.909676,3.3784025 13.987907,3.4065888 14.040999,3.463692 C 14.09409,3.5203356 14.121069,3.6049756 14.121938,3.7176147 M 13.991527,3.7185407 C 13.991175,3.673577 13.98773,3.6335041 13.981176,3.5983183 C 13.97462,3.5626709 13.963762,3.5328494 13.948605,3.5088512 C 13.933926,3.4843874 13.914459,3.465983 13.890212,3.4536385 C 13.865961,3.4408309 13.836206,3.4345517 13.800948,3.4348024 C 13.765205,3.4350568 13.735793,3.4417564 13.712706,3.4548988 C 13.68962,3.4675801 13.671408,3.4862515 13.658076,3.5109148 C 13.644735,3.5351145 13.63555,3.5650798 13.630511,3.6008091 C 13.62547,3.6360765 13.623125,3.6761919 13.623474,3.721155 C 13.623824,3.7665818 13.626791,3.8071219 13.632383,3.8427773 C 13.63797,3.8784313 13.647626,3.9087276 13.661343,3.9336614 C 13.675058,3.9581338 13.693559,3.9770086 13.716847,3.990286 C 13.740129,4.0031 13.769646,4.0093812 13.805386,4.0091268 C 13.84065,4.0088773 13.870305,4.0021757 13.894355,3.989026 C 13.918401,3.9754117 13.937571,3.9562689 13.951875,3.9315983 C 13.966653,3.9064613 13.977045,3.8760238 13.983048,3.8402865 C 13.98905,3.8045497 13.991878,3.7639681 13.991527,3.7185407 M 14.411104,3.4450716 C 14.424571,3.4375597 14.440449,3.4295664 14.458738,3.4210914 C 14.477511,3.4126145 14.497015,3.4048277 14.517249,3.3977296 C 14.53748,3.3906329 14.557724,3.3849267 14.577977,3.3806092 C 14.598226,3.3758304 14.617046,3.3733792 14.634437,3.373256 C 14.660519,3.3730712 14.684455,3.3763773 14.706242,3.3831752 C 14.728032,3.3899754 14.746716,3.400968 14.762289,3.4161539 C 14.778349,3.4313384 14.790818,3.4511837 14.799702,3.4756882 C 14.809069,3.5001908 14.813889,3.5298254 14.814156,3.56459 L 14.81748,3.99429 L 14.900209,4.011087 L 14.900453,4.0423761 L 14.60702,4.0444593 L 14.606781,4.0131707 L 14.697209,3.9951447 L 14.693982,3.5779598 C 14.693684,3.539486 14.683548,3.5094265 14.663581,3.487781 C 14.644086,3.4656683 14.613813,3.4547588 14.572756,3.455049 C 14.559233,3.4551456 14.544989,3.4559418 14.530026,3.457438 C 14.515064,3.458936 14.500346,3.460663 14.485869,3.4626201 C 14.47139,3.4645769 14.457644,3.4669928 14.444626,3.4698659 C 14.432087,3.4722739 14.421472,3.4744345 14.412795,3.4763508 L 14.416819,3.9971354 L 14.508972,4.0138655 L 14.509212,4.0451539 L 14.215057,4.0472423 L 14.214815,4.0159541 L 14.296553,3.9979898 L 14.29225,3.4417427 L 14.210246,3.4249428 L 14.210002,3.3936528 L 14.404175,3.3922746 L 14.411104,3.4450716 M 15.254644,3.3716317 C 15.285558,3.3714135 15.314319,3.3739911 15.340927,3.3793637 C 15.367534,3.3847377 15.390552,3.3940784 15.409974,3.4073823 C 15.4294,3.4206887 15.444514,3.4388923 15.455318,3.4619933 C 15.466607,3.4846284 15.472381,3.5133283 15.472652,3.548093 L 15.476064,3.9896141 L 15.560968,4.0063948 L 15.561209,4.0376826 L 15.374285,4.0390108 L 15.360015,3.9737499 C 15.352823,3.9807539 15.342983,3.9889361 15.330496,3.9982964 C 15.318492,4.0076521 15.303828,4.0165643 15.286503,4.0250322 C 15.269178,4.0330362 15.248943,4.0399004 15.2258,4.0456278 C 15.203142,4.051352 15.177807,4.054313 15.149792,4.054512 C 15.116949,4.0547456 15.089137,4.0500748 15.066359,4.0405018 C 15.044066,4.0309249 15.026092,4.0176098 15.012434,4.0005556 C 14.998771,3.9830365 14.988953,3.9624772 14.982973,3.938878 C 14.97699,3.9148152 14.973892,3.8888778 14.973679,3.8610659 C 14.973456,3.8323264 14.976885,3.8075018 14.983971,3.7865902 C 14.991049,3.7652162 15.001057,3.7472987 15.013986,3.7328359 C 15.026916,3.7183735 15.042042,3.7066771 15.059362,3.6977462 C 15.077162,3.6883493 15.096182,3.6810281 15.116432,3.6757849 C 15.137161,3.6705388 15.158868,3.6669074 15.181556,3.6648925 C 15.20473,3.6628741 15.227903,3.6615509 15.251085,3.6609211 L 15.353221,3.6574156 L 15.352429,3.5552047 C 15.352279,3.5357367 15.350451,3.518134 15.34695,3.5023974 C 15.343444,3.4861983 15.337539,3.4723326 15.329242,3.4608023 C 15.321418,3.4492695 15.310721,3.4403058 15.297152,3.4339115 C 15.283575,3.4275191 15.266647,3.424394 15.246358,3.4245387 C 15.223173,3.4247029 15.199773,3.4278826 15.176149,3.4340762 C 15.152528,3.4402697 15.13182,3.4482979 15.114025,3.4581592 L 15.09002,3.5396845 L 15.049445,3.5399728 L 15.048346,3.3974344 C 15.07969,3.390723 15.112008,3.3849296 15.145301,3.3800571 C 15.179072,3.374719 15.215519,3.3719106 15.254644,3.3716317 M 15.353595,3.7060869 L 15.258707,3.7095422 C 15.230215,3.7106713 15.205604,3.7136272 15.184871,3.7184105 C 15.164132,3.7227298 15.147043,3.7302695 15.133602,3.7410263 C 15.120158,3.7517831 15.110127,3.7664559 15.103508,3.7850452 C 15.096892,3.8036358 15.093696,3.8273004 15.093915,3.8560388 C 15.094546,3.9376228 15.129398,3.9781691 15.198468,3.9776782 C 15.231312,3.9774453 15.259541,3.9737674 15.283157,3.966647 C 15.307246,3.959058 15.331327,3.9496166 15.355392,3.9383194 L 15.353595,3.7060869 M 16.056666,3.3631566 L 16.058027,3.5397638 L 16.026873,3.5399854 L 15.984261,3.4637999 C 15.970738,3.463897 15.956252,3.4649262 15.94081,3.4668892 C 15.925369,3.4688538 15.909933,3.4715134 15.894504,3.4748676 C 15.879065,3.4777583 15.864119,3.4813416 15.849661,3.4856155 C 15.835687,3.4898876 15.823402,3.4943787 15.812816,3.4990895 L 15.816586,3.987195 L 15.93337,4.0037503 L 15.933612,4.0350391 L 15.610478,4.0373331 L 15.610234,4.0060448 L 15.696318,3.9880498 L 15.692015,3.4318026 L 15.605667,3.4150327 L 15.605423,3.3837433 L 15.80394,3.3823336 L 15.811092,3.4636381 C 15.822132,3.4547526 15.837273,3.4446797 15.856505,3.4334169 C 15.875737,3.4216915 15.896419,3.4106508 15.91856,3.4002941 C 15.941183,3.3899361 15.963578,3.3812013 15.985742,3.3740896 C 16.008387,3.3669756 16.028407,3.3633566 16.045797,3.3632335 L 16.056666,3.3631566 M 16.73675,3.4216024 L 16.475866,4.0722132 C 16.460701,4.1098695 16.445272,4.1449783 16.429585,4.1775397 C 16.413896,4.2101007 16.396242,4.2382713 16.376622,4.2620521 C 16.357485,4.2862928 16.335415,4.3052256 16.310402,4.3188455 C 16.285393,4.3329306 16.256225,4.34009 16.222898,4.3403282 C 16.210339,4.3404161 16.199225,4.3402635 16.189563,4.3398692 C 16.180381,4.3394704 16.171682,4.3386049 16.163456,4.3372729 C 16.15524,4.3364037 16.147022,4.3353036 16.138798,4.3339714 C 16.130575,4.3326382 16.121387,4.3308503 16.111225,4.3286043 L 16.110134,4.1874564 L 16.144186,4.1872144 L 16.168609,4.2537942 C 16.183669,4.2643494 16.204477,4.2695326 16.231042,4.269344 C 16.251813,4.2691964 16.270616,4.2646587 16.287451,4.2557317 C 16.304291,4.2468046 16.31965,4.2341798 16.333531,4.2178566 C 16.347901,4.201993 16.360796,4.1831271 16.372221,4.1612583 C 16.383642,4.1393898 16.394568,4.115207 16.404988,4.0887093 L 16.423441,4.0385142 L 16.159332,3.4284844 L 16.089641,3.411596 L 16.0894,3.3803067 L 16.40529,3.3780632 L 16.405533,3.409353 L 16.29845,3.4288876 L 16.486007,3.8843975 L 16.660695,3.4249236 L 16.554059,3.4082981 L 16.553816,3.3770087 L 16.807398,3.3752083 L 16.807637,3.4064967 L 16.73675,3.4216024"
       id="text3644" />
  </g>
</svg>
