<?xml version="1.0" encoding="UTF-8" standalone="no"?>
<!-- Created with Inkscape (http://www.inkscape.org/) -->

<svg
   xmlns:dc="http://purl.org/dc/elements/1.1/"
   xmlns:cc="http://creativecommons.org/ns#"
   xmlns:rdf="http://www.w3.org/1999/02/22-rdf-syntax-ns#"
   xmlns:svg="http://www.w3.org/2000/svg"
   xmlns="http://www.w3.org/2000/svg"
   xmlns:xlink="http://www.w3.org/1999/xlink"
   xmlns:sodipodi="http://sodipodi.sourceforge.net/DTD/sodipodi-0.dtd"
   xmlns:inkscape="http://www.inkscape.org/namespaces/inkscape"
   width="128"
   height="128"
   id="svg2606"
   sodipodi:version="0.32"
   inkscape:version="0.48.0 r9654"
   version="1.0"
   sodipodi:docname="application-postscript.svgz"
   inkscape:output_extension="org.inkscape.output.svgz.inkscape"
   inkscape:export-filename="/home/pinheiro/pics/oxygen-icons/scalable/mimetypes/small/22x22/application-postscript.png"
   inkscape:export-xdpi="61.875"
   inkscape:export-ydpi="61.875">
  <defs
     id="defs2608">
    <linearGradient
       id="linearGradient6131">
      <stop
         id="stop6133"
         offset="0"
         style="stop-color:#fcfcfc;stop-opacity:1" />
      <stop
         style="stop-color:#f8f8f8;stop-opacity:1"
         offset="0.52275378"
         id="stop6135" />
      <stop
         id="stop6141"
         offset="0.77457333"
         style="stop-color:#f0efef;stop-opacity:1;" />
      <stop
         id="stop6139"
         offset="0.90122044"
         style="stop-color:#e3e1e1;stop-opacity:1;" />
      <stop
         id="stop6137"
         offset="1"
         style="stop-color:#cecbcb;stop-opacity:1" />
    </linearGradient>
    <linearGradient
       inkscape:collect="always"
       xlink:href="#linearGradient6131"
       id="linearGradient3893"
       gradientUnits="userSpaceOnUse"
       gradientTransform="matrix(1.0119858,0,0,1.0119858,-0.89554075,-0.9871566)"
       x1="86.73793"
       y1="93.621468"
       x2="95.460213"
       y2="102.34375" />
    <radialGradient
       inkscape:collect="always"
       xlink:href="#linearGradient3913-5"
       id="radialGradient3919-5"
       cx="90.75"
       cy="110.25299"
       fx="90.75"
       fy="110.25299"
       r="18.750002"
       gradientTransform="matrix(1.3067347,0,0,1.3067347,-27.83617,-33.818441)"
       gradientUnits="userSpaceOnUse" />
    <linearGradient
       inkscape:collect="always"
       id="linearGradient3913-5">
      <stop
         style="stop-color:#ffffff;stop-opacity:1;"
         offset="0"
         id="stop3915-4" />
      <stop
         style="stop-color:#ffffff;stop-opacity:0;"
         offset="1"
         id="stop3917-7" />
    </linearGradient>
    <clipPath
       clipPathUnits="userSpaceOnUse"
       id="clipPath3889-6">
      <path
         sodipodi:nodetypes="cscscssc"
         inkscape:connector-curvature="0"
         id="path3891-5"
         d="m 112,82.502986 c 0,4.465301 -2.79749,6.409952 -5.27972,8.093625 -5.10854,3.46508 -14.939114,3.32536 -20.720284,3.40638 -0.081,5.781159 0.16586,15.504599 -3.29922,20.613139 -1.68367,2.48224 -5.29051,5.38687 -8.20078,5.38687 2.31803,0 4.74284,-1.33476 7.58402,-4.08481 9.14197,-8.84873 17.36714,-16.13535 25.673154,-25.297529 C 109.67612,88.503916 112,86.97878 112,82.502986 z"
         style="fill:url(#linearGradient3893);fill-opacity:1;stroke:none" />
    </clipPath>
    <filter
       color-interpolation-filters="sRGB"
       inkscape:collect="always"
       id="filter3909-6">
      <feGaussianBlur
         inkscape:collect="always"
         stdDeviation="0.43040059"
         id="feGaussianBlur3911-9" />
    </filter>
    <linearGradient
       inkscape:collect="always"
       xlink:href="#linearGradient3897-7"
       id="linearGradient3895-3"
       gradientUnits="userSpaceOnUse"
       gradientTransform="matrix(1.4094273,0,0,1.4111689,-46.598939,-46.228314)"
       x1="82.15696"
       y1="90.381706"
       x2="94.220871"
       y2="102.18401" />
    <linearGradient
       id="linearGradient3897-7">
      <stop
         style="stop-color:#fcfcfc;stop-opacity:1"
         offset="0"
         id="stop3899-4" />
      <stop
         id="stop3901-5"
         offset="0.52275378"
         style="stop-color:#f8f8f8;stop-opacity:1" />
      <stop
         style="stop-color:#f0efef;stop-opacity:1;"
         offset="0.72337759"
         id="stop3903-2" />
      <stop
         style="stop-color:#e3e1e1;stop-opacity:1;"
         offset="0.89024991"
         id="stop3905-5" />
      <stop
         style="stop-color:#cecbcb;stop-opacity:1"
         offset="1"
         id="stop3907-4" />
    </linearGradient>
    <clipPath
       clipPathUnits="userSpaceOnUse"
       id="clipPath6093-7">
      <path
         inkscape:connector-curvature="0"
         sodipodi:nodetypes="cccssccc"
         id="path6095-4"
         d="m 17.000001,8 0.782827,110 57.5,0 c 1.675283,0 3.119418,0.18058 4.9,-1.6 C 88.980763,107.60206 99.94047,96.548195 107.19904,89.224043 109.6396,86.761431 110,84.752873 110,82.5 L 110,8 z"
         style="fill:#ffffff;fill-opacity:1" />
    </clipPath>
    <radialGradient
       inkscape:collect="always"
       xlink:href="#linearGradient5982-7"
       id="radialGradient5988-0"
       cx="64"
       cy="64.004021"
       fx="63.793392"
       fy="47.274845"
       r="47.5"
       gradientTransform="matrix(1.689423,-0.08280186,0.06907651,1.3515102,-50.111719,-17.741619)"
       gradientUnits="userSpaceOnUse" />
    <linearGradient
       inkscape:collect="always"
       id="linearGradient5982-7">
      <stop
         style="stop-color:#ffffff;stop-opacity:1;"
         offset="0"
         id="stop5984-8" />
      <stop
         style="stop-color:#ffffff;stop-opacity:0;"
         offset="1"
         id="stop5986-6" />
    </linearGradient>
    <filter
       color-interpolation-filters="sRGB"
       inkscape:collect="always"
       id="filter6171-8"
       x="-0.47870937"
       width="1.9574188"
       y="-0.51275069"
       height="2.0255013">
      <feGaussianBlur
         inkscape:collect="always"
         stdDeviation="10.140743"
         id="feGaussianBlur6173-8" />
    </filter>
    <linearGradient
       inkscape:collect="always"
       xlink:href="#linearGradient4518-3"
       id="linearGradient4524-4"
       x1="72"
       y1="0"
       x2="72"
       y2="116.40091"
       gradientUnits="userSpaceOnUse"
       gradientTransform="matrix(1.003095,0,0,0.98228452,-1.7655502,0.69098836)" />
    <linearGradient
       id="linearGradient4518-3">
      <stop
         style="stop-color:#eeecec;stop-opacity:1"
         offset="0"
         id="stop4520-1" />
      <stop
         id="stop5969-4"
         offset="0.40000001"
         style="stop-color:#f4f4f4;stop-opacity:1" />
      <stop
         style="stop-color:#f6f5f5;stop-opacity:1"
         offset="1"
         id="stop4522-9" />
    </linearGradient>
    <filter
       inkscape:collect="always"
       id="filter4123">
      <feGaussianBlur
         inkscape:collect="always"
         stdDeviation="2.028"
         id="feGaussianBlur4125" />
    </filter>
    <filter
       inkscape:collect="always"
       id="filter4087"
       x="-0.16465071"
       width="1.3293014"
       y="-0.2041295"
       height="1.408259">
      <feGaussianBlur
         inkscape:collect="always"
         stdDeviation="4.2234282"
         id="feGaussianBlur4089" />
    </filter>
    <filter
       inkscape:collect="always"
       id="filter3814">
      <feGaussianBlur
         inkscape:collect="always"
         stdDeviation="1.8077645"
         id="feGaussianBlur3816" />
    </filter>
    <linearGradient
       y2="32"
       x2="38"
       y1="26"
       x1="38"
       gradientTransform="matrix(3.9872502,0,0,0.93194778,-59.521868,0.97351568)"
       gradientUnits="userSpaceOnUse"
       id="linearGradient3743"
       xlink:href="#linearGradient16018"
       inkscape:collect="always" />
    <radialGradient
       r="1.4951468"
       fy="101.47604"
       fx="117.50485"
       cy="101.47604"
       cx="117.50485"
       gradientUnits="userSpaceOnUse"
       id="radialGradient3739"
       xlink:href="#linearGradient15907"
       inkscape:collect="always" />
    <linearGradient
       gradientTransform="matrix(0.9770126,0,0,1.0471184,1.4136873,-7.5810011)"
       gradientUnits="userSpaceOnUse"
       y2="120"
       x2="72"
       y1="115"
       x1="72"
       id="linearGradient16209"
       xlink:href="#linearGradient16203"
       inkscape:collect="always" />
    <filter
       height="2.7321639"
       y="-0.86608195"
       width="1.071874"
       x="-0.035937011"
       id="filter16199"
       inkscape:collect="always">
      <feGaussianBlur
         id="feGaussianBlur16201"
         stdDeviation="1.8043374"
         inkscape:collect="always" />
    </filter>
    <linearGradient
       gradientTransform="matrix(1.0248751,0,0,0.93194778,-2.6118871,1.1099387)"
       y2="28"
       x2="76"
       y1="12"
       x1="76"
       gradientUnits="userSpaceOnUse"
       id="linearGradient16191"
       xlink:href="#linearGradient15942"
       inkscape:collect="always" />
    <linearGradient
       gradientTransform="matrix(1.0248751,0,0,0.93194778,-2.6118871,1.1099387)"
       y2="15.131305"
       x2="71.109795"
       y1="34.998165"
       x1="71.109795"
       gradientUnits="userSpaceOnUse"
       id="linearGradient16189"
       xlink:href="#linearGradient15999"
       inkscape:collect="always" />
    <radialGradient
       gradientUnits="userSpaceOnUse"
       gradientTransform="matrix(1.0248751,0,0,0.15540418,-2.6118871,19.59447)"
       r="37.59375"
       fy="73.706467"
       fx="65.3125"
       cy="91.697258"
       cx="65.5625"
       id="radialGradient16187"
       xlink:href="#linearGradient16181"
       inkscape:collect="always" />
    <filter
       id="filter16154"
       inkscape:collect="always">
      <feGaussianBlur
         id="feGaussianBlur16156"
         stdDeviation="0.082681545"
         inkscape:collect="always" />
    </filter>
    <radialGradient
       gradientUnits="userSpaceOnUse"
       gradientTransform="matrix(1.2174064,0,0.03456132,0.41602345,-25.675572,19.464494)"
       r="3.1992245"
       fy="30.449385"
       fx="112.62651"
       cy="32.664448"
       cx="112.65003"
       id="radialGradient16124"
       xlink:href="#linearGradient16138"
       inkscape:collect="always" />
    <linearGradient
       gradientUnits="userSpaceOnUse"
       y2="37.508793"
       x2="59.350136"
       y1="45.817299"
       x1="59.350136"
       id="linearGradient16082"
       xlink:href="#linearGradient16076"
       inkscape:collect="always" />
    <linearGradient
       y2="28"
       x2="76"
       y1="12"
       x1="76"
       gradientUnits="userSpaceOnUse"
       id="linearGradient16074"
       xlink:href="#linearGradient15942"
       inkscape:collect="always" />
    <clipPath
       id="clipPath16070"
       clipPathUnits="userSpaceOnUse">
      <path
         id="path16072"
         d="m 32,16 c -0.04948,0.223408 -0.104456,0.365693 -0.15625,0.625 l -3.4375,16.3125 C 27.678011,36.377331 27,39.65626 27,42.5 l 0,3.5 77,0 0,-3.5 c 0,-2.872723 -0.53302,-6.12751 -1.28125,-9.5625 L 99.15625,16.625 C 99.10446,16.365693 99.04948,16.223408 99,16 l -67,0 z m 0.88125,0 65.2375,0 2.2875,11 -69.71875,0 2.19375,-11 z"
         mask="none"
         style="fill:url(#linearGradient16074);fill-opacity:1;stroke:none"
         sodipodi:nodetypes="cccccccccccccccc" />
    </clipPath>
    <filter
       height="1.2506594"
       y="-0.12532971"
       width="1.0468977"
       x="-0.023448833"
       id="filter16062"
       inkscape:collect="always">
      <feGaussianBlur
         id="feGaussianBlur16064"
         stdDeviation="0.80529281"
         inkscape:collect="always" />
    </filter>
    <linearGradient
       y2="32"
       x2="38"
       y1="26"
       x1="38"
       gradientTransform="matrix(2.0497501,0,0,0.93194778,15.835862,2.0418865)"
       gradientUnits="userSpaceOnUse"
       id="linearGradient16044"
       xlink:href="#linearGradient16018"
       inkscape:collect="always" />
    <linearGradient
       gradientTransform="matrix(2.0497501,0,0,0.93194778,11.736363,2.0418865)"
       y2="32"
       x2="38"
       y1="26"
       x1="38"
       gradientUnits="userSpaceOnUse"
       id="linearGradient16040"
       xlink:href="#linearGradient16018"
       inkscape:collect="always" />
    <linearGradient
       y2="32"
       x2="38"
       y1="26"
       x1="38"
       gradientTransform="matrix(2.0497501,0,0,0.93194778,-40.865627,0.97351568)"
       gradientUnits="userSpaceOnUse"
       id="linearGradient16032"
       xlink:href="#linearGradient16018"
       inkscape:collect="always" />
    <linearGradient
       gradientTransform="matrix(3.9872502,0,0,0.93194778,-111.52187,0.97351568)"
       gradientUnits="userSpaceOnUse"
       y2="32"
       x2="38"
       y1="26"
       x1="38"
       id="linearGradient16024"
       xlink:href="#linearGradient16018"
       inkscape:collect="always" />
    <linearGradient
       gradientTransform="matrix(1.0248751,0,0,0.93194778,-2.6118871,1.1099387)"
       y2="32.002613"
       x2="72.203217"
       y1="24.103592"
       x1="72.203217"
       gradientUnits="userSpaceOnUse"
       id="linearGradient16014"
       xlink:href="#linearGradient15999"
       inkscape:collect="always" />
    <linearGradient
       gradientTransform="matrix(1.0248751,0,0,0.93194778,-2.6118871,1.1099387)"
       y2="31.491938"
       x2="76.5"
       y1="37.520771"
       x1="76.5"
       gradientUnits="userSpaceOnUse"
       id="linearGradient15992"
       xlink:href="#linearGradient15978"
       inkscape:collect="always" />
    <linearGradient
       gradientTransform="matrix(1.0248751,0,0,0.93194778,-2.6118871,1.1099387)"
       gradientUnits="userSpaceOnUse"
       y2="56"
       x2="88"
       y1="-76.242203"
       x1="88"
       id="linearGradient15984"
       xlink:href="#linearGradient15978"
       inkscape:collect="always" />
    <linearGradient
       gradientTransform="matrix(1.0248751,0,0,0.93194778,-2.6118871,1.1099387)"
       gradientUnits="userSpaceOnUse"
       y2="15.995978"
       x2="74.145844"
       y1="48.236305"
       x1="74.145844"
       id="linearGradient15948"
       xlink:href="#linearGradient15942"
       inkscape:collect="always" />
    <radialGradient
       r="1.4951468"
       fy="101.47604"
       fx="117.50485"
       cy="101.47604"
       cx="117.50485"
       gradientUnits="userSpaceOnUse"
       id="radialGradient15919"
       xlink:href="#linearGradient15907"
       inkscape:collect="always" />
    <linearGradient
       y2="15.667243"
       x2="-52"
       y1="116.00498"
       x1="-52"
       gradientTransform="matrix(1,0,0,-1.6666667,139,301.5)"
       gradientUnits="userSpaceOnUse"
       id="linearGradient15877"
       xlink:href="#linearGradient14266"
       inkscape:collect="always" />
    <clipPath
       id="clipPath15873"
       clipPathUnits="userSpaceOnUse">
      <path
         id="path15875"
         d="M 3,128.16667 3,121.5 c 0,-5.54 2.676,-10 6,-10 l 110,0 c 3.324,0 6,4.46 6,10 l 0,6.66667 -122,0 z"
         mask="none"
         style="opacity:0.209205;fill:url(#linearGradient15877);fill-opacity:1;stroke:none" />
    </clipPath>
    <filter
       id="filter15856"
       inkscape:collect="always">
      <feGaussianBlur
         id="feGaussianBlur15858"
         stdDeviation="1.5843621"
         inkscape:collect="always" />
    </filter>
    <linearGradient
       y2="63.680275"
       x2="144.92528"
       y1="63.680275"
       x1="112.9984"
       gradientTransform="translate(-272,0)"
       gradientUnits="userSpaceOnUse"
       id="linearGradient15848"
       xlink:href="#linearGradient15826"
       inkscape:collect="always" />
    <clipPath
       id="clipPath15844"
       clipPathUnits="userSpaceOnUse">
      <path
         clip-path="none"
         sodipodi:nodetypes="ccccccccccccc"
         id="path15846"
         d="m -120,16 c -3.324,0 -3.9661,0.840883 -5,4 l -4.90625,14.9375 C -131.24343,39.023296 -132,45.536783 -132,50.0625 L -132,108 c 0,3.324 2.676,6 6,6 l 110,0 c 3.324,0 6,-2.676 6,-6 l 0,-57.9375 c 0,-4.525717 -0.75657,-11.039204 -2.09375,-15.125 L -17,20 c -1.0339,-3.159117 -1.676,-4 -5,-4 l -98,0 z"
         style="opacity:0.59414224;fill:url(#linearGradient15848);fill-opacity:1;stroke:none"
         mask="none" />
    </clipPath>
    <linearGradient
       gradientTransform="matrix(0.59786248,0,0,0.59786251,27.873603,25.944023)"
       gradientUnits="userSpaceOnUse"
       y2="23.419485"
       x2="126.1358"
       y1="100.6076"
       x1="-7.5579267"
       id="linearGradient15804"
       xlink:href="#linearGradient4244"
       inkscape:collect="always" />
    <clipPath
       id="clipPath15780"
       clipPathUnits="userSpaceOnUse">
      <path
         sodipodi:nodetypes="ccccccc"
         inkscape:transform-center-x="86.03125"
         style="opacity:0.41841006;fill:#d6d5db;fill-opacity:1;stroke:none"
         d="m 127.9375,72 0,4 c 0,2.77 2.23,5 5,5 L 159,81 c 2.77,0 5,-2.23 5,-5 l 0,-4 -36.0625,0 z"
         id="path15782" />
    </clipPath>
    <linearGradient
       gradientUnits="userSpaceOnUse"
       y2="59"
       x2="162"
       y1="79"
       x1="134"
       id="linearGradient15778"
       xlink:href="#linearGradient15772"
       inkscape:collect="always" />
    <filter
       height="1.3856481"
       y="-0.19282407"
       width="1.1711021"
       x="-0.085551062"
       id="filter15768"
       inkscape:collect="always">
      <feGaussianBlur
         id="feGaussianBlur15770"
         stdDeviation="1.2854938"
         inkscape:collect="always" />
    </filter>
    <filter
       height="2.7353086"
       y="-0.86765432"
       width="1.0720045"
       x="-0.036002254"
       id="filter14247"
       inkscape:collect="always">
      <feGaussianBlur
         id="feGaussianBlur14249"
         stdDeviation="1.8076132"
         inkscape:collect="always" />
    </filter>
    <linearGradient
       gradientTransform="matrix(0.98596284,0,0,1.0199782,137.88969,-0.29854813)"
       gradientUnits="userSpaceOnUse"
       y2="15.667243"
       x2="-52"
       y1="112"
       x1="-52"
       id="linearGradient14235"
       xlink:href="#linearGradient14229"
       inkscape:collect="always" />
    <linearGradient
       id="linearGradient4244">
      <stop
         id="stop4246"
         offset="0"
         style="stop-color:#2b2b2b;stop-opacity:1;" />
      <stop
         style="stop-color:#ffffff;stop-opacity:1;"
         offset="0.5"
         id="stop4252" />
      <stop
         id="stop4248"
         offset="1"
         style="stop-color:#3d3d3d;stop-opacity:1;" />
    </linearGradient>
    <linearGradient
       id="linearGradient14229">
      <stop
         id="stop14231"
         offset="0"
         style="stop-color:#d5d8db;stop-opacity:1;" />
      <stop
         style="stop-color:#d5d6db;stop-opacity:1"
         offset="0.56930101"
         id="stop14239" />
      <stop
         style="stop-color:#e1e1e7;stop-opacity:1"
         offset="0.61744404"
         id="stop14237" />
      <stop
         id="stop14241"
         offset="0.72430909"
         style="stop-color:#fbfafc;stop-opacity:1;" />
      <stop
         style="stop-color:#dadce1;stop-opacity:1"
         offset="0.79792732"
         id="stop14243" />
      <stop
         id="stop14233"
         offset="1"
         style="stop-color:#b8bdc1;stop-opacity:1" />
    </linearGradient>
    <linearGradient
       id="linearGradient14266">
      <stop
         style="stop-color:#ffffff;stop-opacity:1;"
         offset="0"
         id="stop14268" />
      <stop
         id="stop15744"
         offset="0.05526761"
         style="stop-color:#b8babd;stop-opacity:1;" />
      <stop
         id="stop14270"
         offset="0.56930101"
         style="stop-color:#9e9fa4;stop-opacity:1;" />
      <stop
         id="stop14272"
         offset="0.6357947"
         style="stop-color:#c7c8cd;stop-opacity:1" />
      <stop
         style="stop-color:#e1e2e7;stop-opacity:1"
         offset="0.75"
         id="stop14274" />
      <stop
         id="stop14276"
         offset="0.79792732"
         style="stop-color:#dfe0e5;stop-opacity:1" />
      <stop
         style="stop-color:#b6b8bd;stop-opacity:1"
         offset="1"
         id="stop14278" />
    </linearGradient>
    <linearGradient
       id="linearGradient15772"
       inkscape:collect="always">
      <stop
         id="stop15774"
         offset="0"
         style="stop-color:#000000;stop-opacity:1;" />
      <stop
         id="stop15776"
         offset="1"
         style="stop-color:#000000;stop-opacity:0;" />
    </linearGradient>
    <linearGradient
       id="linearGradient15826"
       inkscape:collect="always">
      <stop
         id="stop15828"
         offset="0"
         style="stop-color:#0a0a0a;stop-opacity:1;" />
      <stop
         id="stop15830"
         offset="1"
         style="stop-color:#0a0a0a;stop-opacity:0;" />
    </linearGradient>
    <linearGradient
       id="linearGradient15885">
      <stop
         id="stop15887"
         offset="0"
         style="stop-color:#c1c2c6;stop-opacity:1;" />
      <stop
         id="stop15889"
         offset="1"
         style="stop-color:#8a8c94;stop-opacity:1;" />
    </linearGradient>
    <linearGradient
       id="linearGradient15907">
      <stop
         id="stop15909"
         offset="0"
         style="stop-color:#a7ff37;stop-opacity:1;" />
      <stop
         style="stop-color:#74ba1b;stop-opacity:1;"
         offset="0.76602578"
         id="stop15915" />
      <stop
         id="stop15911"
         offset="1"
         style="stop-color:#427600;stop-opacity:1;" />
    </linearGradient>
    <linearGradient
       id="linearGradient15942"
       inkscape:collect="always">
      <stop
         id="stop15944"
         offset="0"
         style="stop-color:#494f59;stop-opacity:1;" />
      <stop
         id="stop15946"
         offset="1"
         style="stop-color:#494f59;stop-opacity:0;" />
    </linearGradient>
    <linearGradient
       id="linearGradient15978"
       inkscape:collect="always">
      <stop
         id="stop15980"
         offset="0"
         style="stop-color:#ffffff;stop-opacity:1;" />
      <stop
         id="stop15982"
         offset="1"
         style="stop-color:#ffffff;stop-opacity:0;" />
    </linearGradient>
    <linearGradient
       id="linearGradient15999"
       inkscape:collect="always">
      <stop
         id="stop16001"
         offset="0"
         style="stop-color:#2d2d2d;stop-opacity:1;" />
      <stop
         id="stop16003"
         offset="1"
         style="stop-color:#2d2d2d;stop-opacity:0;" />
    </linearGradient>
    <linearGradient
       id="linearGradient16018"
       inkscape:collect="always">
      <stop
         id="stop16020"
         offset="0"
         style="stop-color:#ffffff;stop-opacity:1;" />
      <stop
         id="stop16022"
         offset="1"
         style="stop-color:#ffffff;stop-opacity:0;" />
    </linearGradient>
    <linearGradient
       id="linearGradient16076"
       inkscape:collect="always">
      <stop
         id="stop16078"
         offset="0"
         style="stop-color:#ffffff;stop-opacity:1;" />
      <stop
         id="stop16080"
         offset="1"
         style="stop-color:#ffffff;stop-opacity:0;" />
    </linearGradient>
    <linearGradient
       id="linearGradient16138">
      <stop
         style="stop-color:#ffffff;stop-opacity:1;"
         offset="0"
         id="stop16140" />
      <stop
         id="stop16144"
         offset="0.77628052"
         style="stop-color:#d4d4d4;stop-opacity:1;" />
      <stop
         style="stop-color:#a9a9a9;stop-opacity:1"
         offset="1"
         id="stop16142" />
    </linearGradient>
    <linearGradient
       id="linearGradient16181"
       inkscape:collect="always">
      <stop
         id="stop16183"
         offset="0"
         style="stop-color:#000000;stop-opacity:0.44351464" />
      <stop
         id="stop16185"
         offset="1"
         style="stop-color:#000000;stop-opacity:0;" />
    </linearGradient>
    <linearGradient
       id="linearGradient16203"
       inkscape:collect="always">
      <stop
         id="stop16205"
         offset="0"
         style="stop-color:#000000;stop-opacity:1;" />
      <stop
         id="stop16207"
         offset="1"
         style="stop-color:#000000;stop-opacity:0;" />
    </linearGradient>
    <inkscape:perspective
       id="perspective159"
       inkscape:persp3d-origin="64 : 42.666667 : 1"
       inkscape:vp_z="128 : 64 : 1"
       inkscape:vp_y="0 : 1000 : 0"
       inkscape:vp_x="0 : 64 : 1"
       sodipodi:type="inkscape:persp3d" />
    <clipPath
       clipPathUnits="userSpaceOnUse"
       id="clipPath3309">
      <path
         inkscape:connector-curvature="0"
         sodipodi:nodetypes="cccssccc"
         id="path3311"
         d="m -8.9410621,3.421535 0,125.337475 54.0507251,0 c 1.835532,0 4.288724,-0.60323 7.669597,-3.84568 9.718526,-9.32067 35.143936,-33.66955 43.096842,-41.493537 2.674001,-2.630672 3.287995,-4.776302 3.287995,-7.182914 L 99.16082,3.421535 z"
         style="fill:#ffffff;fill-opacity:1" />
    </clipPath>
  </defs>
  <sodipodi:namedview
     id="base"
     pagecolor="#ffffff"
     bordercolor="#666666"
     borderopacity="1.0"
     inkscape:pageopacity="0.0"
     inkscape:pageshadow="2"
     inkscape:zoom="2.828427"
     inkscape:cx="-10.832214"
     inkscape:cy="25.783835"
     inkscape:document-units="px"
     inkscape:current-layer="layer1"
     width="128px"
     height="128px"
     showgrid="true"
     inkscape:grid-points="true"
     showguides="true"
     inkscape:guide-bbox="true"
     inkscape:window-width="1224"
     inkscape:window-height="757"
     inkscape:window-x="0"
     inkscape:window-y="383"
     inkscape:snap-global="false"
     inkscape:window-maximized="0"
     inkscape:snap-page="true">
    <inkscape:grid
       id="GridFromPre046Settings"
       type="xygrid"
       originx="0px"
       originy="0px"
       spacingx="5.8181px"
       spacingy="5.8181px"
       color="#0000ff"
       empcolor="#0000ff"
       opacity="0.2"
       empopacity="0.4"
       empspacing="2"
       visible="true"
       enabled="true"
       snapvisiblegridlinesonly="true" />
    <sodipodi:guide
       orientation="1,0"
       position="-68,29.325902"
       id="guide4564" />
    <sodipodi:guide
       orientation="1,0"
       position="-121.62237,135.0574"
       id="guide3859" />
    <sodipodi:guide
       orientation="0,1"
       position="38.581514,-74.688154"
       id="guide4360" />
  </sodipodi:namedview>
  <metadata
     id="metadata2611">
    <rdf:RDF>
      <cc:Work
         rdf:about="">
        <dc:format>image/svg+xml</dc:format>
        <dc:type
           rdf:resource="http://purl.org/dc/dcmitype/StillImage" />
        <dc:title></dc:title>
      </cc:Work>
    </rdf:RDF>
  </metadata>
  <g
     inkscape:label="Livello 1"
     inkscape:groupmode="layer"
     id="layer1">
    <path
       style="opacity:0.45606695;fill:#000000;fill-opacity:1;filter:url(#filter4123)"
       d="m 13.333,5.3364 0,118.3304 49.8545,-0.0668 c 2.115554,-0.003 4.528919,-1.77169 7,-4.25 0.71234,-0.71442 1.440746,-1.39395 2.15625,-2.09375 0.415612,-0.40649 0.832187,-0.81443 1.25,-1.21875 7.773958,-7.40962 26.98341,-25.122599 34.21875,-33.099999 0.42065,-0.42064 0.81207,-0.8111 1.15625,-1.1875 1.46444,-1.49766 2.76158,-2.8378 2.99375,-5.8625 L 112,75.156251 111.9972,5.3364 z"
       id="path5990"
       inkscape:connector-curvature="0"
       sodipodi:nodetypes="ccsssccccccc"
       transform="matrix(1.003095,0,0,0.98228452,-1.7655506,0.69098557)" />
    <path
       sodipodi:type="inkscape:offset"
       inkscape:radius="1.0279198"
       inkscape:original="M 13.1875 4.53125 C 12.818918 4.609246 12.529956 4.967008 12.53125 5.34375 L 12.53125 123.65625 C 12.53885 124.07954 12.920464 124.4611 13.34375 124.46875 L 62.15625 124.46875 C 63.930251 124.46875 65.829207 124.74865 68.6875 122.8125 C 68.829003 122.58432 71.218784 120.82456 70.53125 121.25 C 80.188854 112.07585 98.162197 92.41186 109.34375 81.09375 C 111.06182 79.375681 112.8125 77.674752 112.8125 73.3125 L 112.8125 5.34375 C 112.80483 4.9204809 112.42327 4.5388981 112 4.53125 L 13.34375 4.53125 C 13.29182 4.52633 13.239428 4.52633 13.1875 4.53125 z "
       style="fill:#000000;fill-opacity:1;filter:url(#filter3814)"
       id="path3314"
       d="m 13.09375,3.5 a 1.0280226,1.0280226 0 0 0 -0.125,0.03125 C 12.083764,3.7185227 11.496893,4.4391709 11.5,5.34375 l 0,118.3125 a 1.0280226,1.0280226 0 0 0 0,0.0313 c 0.01849,1.02971 0.782949,1.79389 1.8125,1.8125 a 1.0280226,1.0280226 0 0 0 0.03125,0 l 48.8125,0 c 1.665878,0 4.022349,0.23675 7.09375,-1.84375 a 1.0280226,1.0280226 0 0 0 0.28125,-0.21875 c 0.0578,-0.0515 0.139644,-0.12864 0.25,-0.21875 0.220712,-0.18022 0.516774,-0.41745 0.78125,-0.625 0.264476,-0.20755 0.495635,-0.39648 0.65625,-0.53125 0.04015,-0.0337 0.07966,-0.051 0.125,-0.0937 0.02267,-0.0214 0.04798,-0.0408 0.09375,-0.0937 0.02288,-0.0265 0.04727,-0.051 0.09375,-0.125 0.0081,-0.013 0.01807,-0.0366 0.03125,-0.0625 9.780644,-9.33282 27.440979,-28.680919 38.5,-39.875 1.71105,-1.711053 3.78125,-3.862728 3.78125,-8.5 l 0,-67.96875 a 1.0280226,1.0280226 0 0 0 0,-0.03125 C 113.82509,4.2829723 113.06085,3.5186039 112.03125,3.5 A 1.0280226,1.0280226 0 0 0 112,3.5 l -98.5625,0 c -0.03179,-0.00301 -0.06191,0.00137 -0.09375,0 -0.08491,-0.00365 -0.165226,-0.00803 -0.25,0 z"
       transform="matrix(1.003095,0,0,0.98228452,-1.7655506,0.69098557)" />
    <path
       style="fill:#ffffff;fill-opacity:1"
       d="m 11.608716,5.836076 0,116.330904 49.485099,0 c 1.680486,0 3.926459,-0.55989 7.021752,-3.56934 8.897609,-8.6509 32.175353,-31.250103 39.456483,-38.511869 2.44813,-2.441635 3.01026,-4.433083 3.01026,-6.66676 l -0.003,-67.582935 z"
       id="path34"
       sodipodi:nodetypes="cccssccc"
       inkscape:connector-curvature="0" />
    <path
       style="fill:url(#linearGradient4524-4);fill-opacity:1"
       d="m 17.07938,10.744349 c -0.340895,0 -0.501546,0.230461 -0.501546,0.491142 l 0,104.549779 c 0,0.80702 0.681425,1.474 1.504643,1.47343 l 44.496615,-0.0308 c 0.05324,-4e-5 0.812893,0.0229 1.504643,0.0308 1.783165,-0.0393 3.141667,-0.74038 4.369516,-1.56504 1.055122,-0.28588 25.815399,-23.810974 34.964739,-32.837827 1.36662,-1.348301 2.19223,-3.878226 2.19223,-4.808882 l 0,-66.81146 c 0,-0.317 -0.16372,-0.491143 -0.50156,-0.491143 z"
       id="path3967"
       inkscape:connector-curvature="0"
       sodipodi:nodetypes="ccsssccscccc" />
    <path
       sodipodi:nodetypes="ccssscccccc"
       inkscape:connector-curvature="0"
       id="path5980"
       d="m 17.07938,10.644349 c -0.340895,0 -0.501546,0.230461 -0.501546,0.491142 l 0,104.549779 c 0,0.80703 0.68144,1.46853 1.504643,1.47343 l 46.36344,0.27591 c 0.05324,3.2e-4 3.284015,-0.008 3.975766,5e-5 6.561216,-4.42387 26.757215,-26.379267 35.730127,-35.221607 0.65937,-0.724227 0.45902,-0.363513 1.45841,-1.578984 l 0,-69.498578 c 0,-0.317 -0.16372,-0.491143 -0.50156,-0.491143 z"
       style="opacity:0.84653476;fill:url(#radialGradient5988-0);fill-opacity:1" />
    <g
       id="layer1-5"
       inkscape:label="Layer 1"
       transform="matrix(0.91553072,0,0,0.9281414,19.794533,2.6604077)"
       clip-path="url(#clipPath3309)">
      <rect
         transform="matrix(0.98596284,0,0,-0.61198696,0.84087167,185.8295)"
         ry="5"
         rx="6"
         y="111"
         x="3.5"
         height="5"
         width="120.5"
         id="rect14245"
         style="fill:#000000;fill-opacity:1;stroke:none;filter:url(#filter14247)" />
      <path
         sodipodi:nodetypes="ccccccccccccc"
         id="rect13446"
         d="m 15.630313,16.021104 c -3.27734,0 -3.910427,0.857683 -4.929814,4.079913 L 5.8631196,35.336943 C 4.5447098,39.504366 3.79876,46.147981 3.79876,50.764114 l 0,59.094996 c 0,3.3904 2.6384364,6.11986 5.9157766,6.11986 l 108.4559134,0 c 3.27733,0 5.91576,-2.72946 5.91576,-6.11986 l 0,-59.094996 c 0,-4.616133 -0.74594,-11.259748 -2.06436,-15.427171 l -4.83737,-15.235926 c -1.01939,-3.22223 -1.65247,-4.079913 -4.92982,-4.079913 l -96.624347,0 z"
         style="fill:url(#linearGradient14235);fill-opacity:1;stroke:none"
         inkscape:connector-curvature="0" />
      <path
         sodipodi:nodetypes="csccccccccccscccccccccccccccccccccc"
         id="path15966"
         d="m 28.102336,16.021103 c -0.03296,0.109462 -0.05538,0.200343 -0.09608,0.378604 -0.0029,0.013 0.0029,0.01552 0,0.02912 l -3.523012,15.17328 c -0.746991,3.208476 -1.473258,6.317265 -1.473258,9.115614 l 0,3.261817 c 5.5e-5,0.487954 0.488266,0.9319 1.024874,0.931948 l 79.94026,0 c 0.5366,-4.8e-5 1.02482,-0.443994 1.02488,-0.931948 l 0,-3.261817 c 0,-2.792507 -0.57118,-5.884695 -1.34515,-9.115614 l -3.65112,-15.173278 c -0.003,-0.01359 0.003,-0.01613 0,-0.02912 -0.04063,-0.178269 -0.06311,-0.269145 -0.09605,-0.378604 l -1.056951,0 c 0.05072,0.208205 0.107051,0.340807 0.160136,0.582468 l 3.651095,15.202399 c 0.76687,3.201232 1.31313,6.234523 1.31313,8.911751 l 0,3.261817 -79.940241,0 0,-3.261817 c 0,-2.650218 0.694876,-5.706008 1.441231,-8.911751 l 3.522999,-15.202403 c 0.05309,-0.241661 0.109424,-0.374263 0.160137,-0.582468 l -1.056903,0 z m 2.882461,0.931948 -2.145832,9.319478 70.428131,0 -2.241916,-9.319478 -66.040383,0 z m 0.832711,0 64.374962,0 1.793531,8.387531 -67.89797,0 1.729477,-8.387531 z"
         style="fill:url(#linearGradient15984);fill-opacity:1;stroke:none"
         inkscape:connector-curvature="0" />
      <path
         sodipodi:nodetypes="cccccccccccccccc"
         id="path14260"
         d="m 29.159238,16.021103 c -0.05071,0.208205 -0.107055,0.340807 -0.160136,0.582468 L 25.476093,31.80597 c -0.746353,3.205743 -1.44123,6.261533 -1.44123,8.91175 l 0,3.261818 79.940237,0 0,-3.261818 c 0,-2.677228 -0.54626,-5.710519 -1.31312,-8.91175 L 99.010873,16.603571 c -0.05305,-0.241661 -0.109427,-0.374263 -0.160136,-0.582468 l -69.691499,0 z m 0.800685,0.931948 68.090133,0 2.241914,9.319478 -72.47788,0 2.145833,-9.319478 z"
         mask="none"
         style="fill:url(#linearGradient15948);fill-opacity:1;stroke:none"
         inkscape:connector-curvature="0" />
      <rect
         ry="0"
         rx="0"
         y="56"
         x="4"
         height="3.9999983"
         width="120.28745"
         id="rect14254"
         style="opacity:0.50638302;fill:#000000;fill-opacity:0.62068942;stroke:none" />
      <rect
         style="fill:#ffffff;fill-opacity:0.56768559;stroke:none"
         id="rect14256"
         width="120.28748"
         height="4.0000014"
         x="3.8562584"
         y="49.629669"
         rx="0"
         ry="0" />
      <path
         style="fill:url(#linearGradient15992);fill-opacity:1;stroke:none"
         d="m 28.102336,16.021103 c -0.03296,0.109462 -0.05538,0.200343 -0.09608,0.378604 -0.0029,0.013 0.0029,0.01552 0,0.02912 l -3.523012,15.17328 c -0.746991,3.208476 -1.473258,6.317265 -1.473258,9.115614 l 0,3.261817 c 5.5e-5,0.487954 0.488266,2.863847 1.024874,2.863896 l 79.94026,0 c 0.5366,-4.9e-5 1.02482,-2.375942 1.02488,-2.863896 l 0,-3.261817 c 0,-2.792507 -0.57118,-5.884695 -1.34515,-9.115614 l -3.65112,-15.173278 c -0.003,-0.01359 0.003,-0.01613 0,-0.02912 -0.04063,-0.178269 -0.06311,-0.269145 -0.09605,-0.378604 l -1.056951,0 c 0.05072,0.208205 0.107051,0.340807 0.160136,0.582468 l 3.651095,15.202399 c 0.76687,3.201232 1.31313,6.234523 1.31313,8.911751 l 0,3.261817 -79.940241,0 0,-3.261817 c 0,-2.650218 0.694876,-5.706008 1.441231,-8.911751 l 3.522999,-15.202403 c 0.05309,-0.241661 0.109424,-0.374263 0.160137,-0.582468 l -1.056903,0 2.3e-5,2e-6 z m 2.882461,0.931948 -2.145832,9.319478 70.428131,0 -2.241916,-9.319478 -66.040383,0 z m 0.832711,0 64.374962,0 1.793531,8.387531 -67.89797,0 1.729477,-8.387531 z"
         id="path15990"
         sodipodi:nodetypes="csccccccccccsccccccccccccccccccccccc"
         inkscape:connector-curvature="0" />
      <path
         transform="matrix(0.98596284,0,0,1.0199782,133.94584,-0.29854813)"
         mask="none"
         style="opacity:0.20083684;fill:none;stroke:#000000;stroke-width:1.70000005;stroke-miterlimit:4;stroke-opacity:1;stroke-dasharray:none;filter:url(#filter15856)"
         d="m -120,15 c -3.324,0 -3.9661,0.840883 -5,4 l -4.90625,15.9375 C -131.24343,39.023296 -132,45.536783 -132,50.0625 L -132,108 c 0,3.324 2.676,6 6,6 l 110,0 c 3.324,0 6,-2.676 6,-6 l 0,-57.9375 c 0,-4.525717 -0.75657,-11.039204 -2.09375,-15.125 L -17,19 c -1.0339,-3.159117 -1.676,-4 -5,-4 l -98,0 z"
         id="path15834"
         sodipodi:nodetypes="ccccccccccccc"
         clip-path="url(#clipPath15844)"
         inkscape:connector-curvature="0" />
      <rect
         clip-path="url(#clipPath15873)"
         style="opacity:0.80930283;fill:#ffffff;fill-opacity:1;stroke:none;filter:url(#filter16199)"
         id="rect15860"
         width="120.32071"
         height="8.1774263"
         x="3.5"
         y="111"
         rx="6"
         ry="3.077714"
         transform="matrix(0.98596284,0,0,-0.61198696,0.84087167,184.21552)" />
      <path
         sodipodi:type="arc"
         style="opacity:0.66527201;fill:#111111;fill-opacity:0.91266378;stroke:none;filter:url(#filter16154)"
         id="path16126"
         sodipodi:cx="112.80077"
         sodipodi:cy="33.330952"
         sodipodi:rx="3.1992245"
         sodipodi:ry="1.3309524"
         d="m 116,33.330952 c 0,0.735064 -1.43234,1.330952 -3.19923,1.330952 -1.76688,0 -3.19922,-0.595888 -3.19922,-1.330952 0,-0.735065 1.43234,-1.330953 3.19922,-1.330953 1.76689,0 3.19923,0.595888 3.19923,1.330953 z"
         transform="matrix(0.98596284,0,0.37675646,1.1495286,-11.716779,-4.1381646)" />
      <path
         clip-path="url(#clipPath15844)"
         sodipodi:nodetypes="cccccccccccccc"
         id="path15921"
         d="m -120,15 c -3.324,0 -3.9661,0.840883 -5,4 l -4.90625,15.9375 C -131.24343,39.023296 -132,45.536783 -132,50.0625 L -132,108 c 0,3.324 2.676,6 6,6 l 110,0 c 3.324,0 6,-2.676 6,-6 l 0,-57.9375 c 0,-4.525717 -0.75657,-11.039204 -2.09375,-15.125 L -17,19 c -1.0339,-3.159117 -1.676,-4 -5,-4 L -79.934059,15 -120,15 z"
         style="opacity:0.20083684;fill:none;stroke:#000000;stroke-width:4.79444933;stroke-miterlimit:4;stroke-opacity:1;stroke-dasharray:none;filter:url(#filter15856)"
         mask="none"
         transform="matrix(0.98596284,0,0,1.0199782,133.94584,-0.29854813)"
         inkscape:connector-curvature="0" />
      <path
         sodipodi:nodetypes="cccccccccccccccc"
         style="fill:url(#linearGradient16191);fill-opacity:1;stroke:none"
         mask="none"
         d="m 29.159238,16.021103 c -0.05071,0.208205 -0.107055,0.340807 -0.160136,0.582468 L 25.476093,31.80597 c -0.746353,3.205743 -1.44123,6.261533 -1.44123,8.91175 l 0,3.261818 79.940237,0 0,-3.261818 c 0,-2.677228 -0.54626,-5.710519 -1.31312,-8.91175 L 99.010873,16.603571 c -0.05305,-0.241661 -0.109427,-0.374263 -0.160136,-0.582468 l -69.691499,0 z m 1.928045,0 65.835409,0 2.344404,10.251426 -70.428131,0 2.248318,-10.251426 z"
         id="path15986"
         inkscape:connector-curvature="0" />
      <path
         sodipodi:nodetypes="ccccccccccccc"
         id="rect15994"
         d="m 32,24 0,4 -5.665388,0.06837 L 24.985313,36 103.1,36 c -0.34332,-1.584565 -1.24005,-6.509176 -1.61059,-8.056627 l -5.213296,0.125 -0.25,-4.238895 L 84,24 l 0,4 -40,0 0,-4 -12,0 z"
         style="fill:url(#linearGradient16189);fill-opacity:1;stroke:none"
         inkscape:connector-curvature="0" />
      <rect
         y="28"
         x="36.006374"
         height="5.5916867"
         width="3.9872501"
         id="rect16016"
         style="fill:url(#linearGradient16024);fill-opacity:1;stroke:none" />
      <path
         transform="matrix(1.0248751,0,0,0.93194778,-2.6118871,1.1099387)"
         clip-path="url(#clipPath16070)"
         sodipodi:nodetypes="ccccc"
         id="path16056"
         d="m 28,46 c 4.347888,-7.829159 3.129073,-7.980663 4.096232,-11.161319 l 68.578098,0.176777 3.15425,14.407301 C 76.354533,48.288442 36.705735,53.758426 28,46 z"
         style="opacity:0.66527201;fill:url(#linearGradient16082);fill-opacity:1;stroke:none;filter:url(#filter16062)"
         inkscape:connector-curvature="0" />
      <rect
         y="34.660061"
         x="32.233864"
         height="1.8639153"
         width="10.248749"
         id="rect16084"
         style="fill:#212122;fill-opacity:1;stroke:none" />
      <rect
         style="fill:#212122;fill-opacity:1;stroke:none"
         id="rect16086"
         width="10.248753"
         height="1.8638924"
         x="85.527359"
         y="34.660061" />
      <path
         transform="matrix(0.98596284,0,0.37675646,1.1495286,-11.716779,-4.4441581)"
         d="m 116,33.330952 c 0,0.735064 -1.43234,1.330952 -3.19923,1.330952 -1.76688,0 -3.19922,-0.595888 -3.19922,-1.330952 0,-0.735065 1.43234,-1.330953 3.19922,-1.330953 1.76689,0 3.19923,0.595888 3.19923,1.330953 z"
         sodipodi:ry="1.3309524"
         sodipodi:rx="3.1992245"
         sodipodi:cy="33.330952"
         sodipodi:cx="112.80077"
         id="path16116"
         style="fill:url(#radialGradient16124);fill-opacity:1;stroke:none"
         sodipodi:type="arc" />
      <text
         transform="matrix(1.2225348,0,0.37713501,0.81797264,0,0)"
         xml:space="preserve"
         style="font-size:1.22705984px;font-style:normal;font-variant:normal;font-weight:normal;font-stretch:normal;fill:#484848;fill-opacity:1;stroke:none;font-family:Liberation Sans;-inkscape-font-specification:Liberation Sans"
         x="75.072716"
         y="38.065758"
         id="text16166"><tspan
           sodipodi:role="line"
           id="tspan16168"
           x="75.072716"
           y="38.065758">the laser printer</tspan></text>
      <path
         sodipodi:nodetypes="ccccccccccccc"
         id="path15732"
         d="m 26.369603,69.952882 c -2.713949,0 -4.929813,3.353306 -4.929813,6.235592 l 0,39.790496 0.985962,0 0,-39.790496 C 22.425752,73.868059 24.184711,72 26.369603,72 l 74.053507,0 c 2.18489,0 3.94385,1.868059 3.94385,4.188474 l 0,39.790496 0.98597,0 0,-39.790496 c 0,-2.882286 -2.21587,-6.235592 -4.92982,-6.235592 z"
         style="opacity:0.66527201;fill:#ffffff;fill-opacity:1;stroke:none"
         inkscape:connector-curvature="0" />
      <path
         id="rect15746"
         d="m 44.041189,76.12903 0,3.956377 c 0,3.653056 2.468388,6.593964 5.534504,6.593964 l 28.848613,0 c 3.066117,0 5.534505,-2.940908 5.534505,-6.593964 l 0,-3.956377 -39.917622,0 z"
         style="opacity:0.41841006;fill:#d6d5db;fill-opacity:1;stroke:none"
         inkscape:connector-curvature="0" />
      <path
         sodipodi:nodetypes="ccccccccc"
         id="path15751"
         d="m 44.041189,81.4042 0,1.318792 c 0,3.653057 2.468388,7.593964 5.534504,7.593964 l 28.848613,0 c 3.066117,0 5.534505,-3.940907 5.534505,-7.593964 l 0,-1.318792 c 0,3.653055 -2.468388,6.593962 -5.534505,6.593962 l -28.848613,0 c -3.066116,0 -5.534504,-2.940907 -5.534504,-6.593962 z"
         style="opacity:0.77405856;fill:#ffffff;fill-opacity:1;stroke:none"
         inkscape:connector-curvature="0" />
      <path
         transform="matrix(1.1069013,0,0,1.3187923,-97.572986,-18.824029)"
         clip-path="url(#clipPath15780)"
         sodipodi:nodetypes="ccccccc"
         id="path15758"
         d="m 127.9375,64 0,11.6 c 0,2.77 2.23,5 5,5 L 159,80.6 c 2.77,0 5,-2.23 5,-5 l 0,-11.6 -36.0625,0 z"
         style="opacity:0.92468621;fill:#000000;fill-opacity:0.06550215;stroke:url(#linearGradient15778);stroke-opacity:1;filter:url(#filter15768)"
         inkscape:transform-center-x="95.228082"
         inkscape:connector-curvature="0" />
      <path
         sodipodi:type="arc"
         style="fill:url(#radialGradient15919);fill-opacity:1;stroke:none"
         id="path15917"
         sodipodi:cx="117.50485"
         sodipodi:cy="101.47604"
         sodipodi:rx="1.4951468"
         sodipodi:ry="1.4951468"
         d="m 119,101.47604 c 0,0.82575 -0.6694,1.49515 -1.49515,1.49515 -0.82574,0 -1.49514,-0.6694 -1.49514,-1.49515 0,-0.82574 0.6694,-1.495143 1.49514,-1.495143 0.82575,0 1.49515,0.669403 1.49515,1.495143 z"
         transform="matrix(2.5861031,0,0,2.6753227,-191.87966,-171.48116)" />
      <path
         sodipodi:nodetypes="ccccccccccccc"
         id="rect15726"
         d="m 27.793025,72.430969 c -2.165058,0 -3.90805,1.868059 -3.90805,4.188474 l 0,39.359527 2.477014,0 0,-39.359527 c 0,-1.755524 -0.206953,-1.141356 1.431036,-1.141356 l 72.298925,0 c 1.638,0 1.63105,-0.614168 1.63105,1.141356 l 0,39.359527 2.277,0 0,-39.359527 c 0,-2.320415 -1.74299,-4.188474 -3.90805,-4.188474 z"
         style="opacity:0.41841006;fill:url(#linearGradient16209);fill-opacity:1;stroke:none"
         inkscape:connector-curvature="0" />
      <path
         transform="matrix(2.5861031,0,0,2.6753227,-191.87966,-183.48116)"
         d="m 119,101.47604 c 0,0.82575 -0.6694,1.49515 -1.49515,1.49515 -0.82574,0 -1.49514,-0.6694 -1.49514,-1.49515 0,-0.82574 0.6694,-1.495143 1.49514,-1.495143 0.82575,0 1.49515,0.669403 1.49515,1.495143 z"
         sodipodi:ry="1.4951468"
         sodipodi:rx="1.4951468"
         sodipodi:cy="101.47604"
         sodipodi:cx="117.50485"
         id="path3737"
         style="fill:url(#radialGradient3739);fill-opacity:1;stroke:none"
         sodipodi:type="arc" />
      <rect
         style="fill:url(#linearGradient3743);fill-opacity:1;stroke:none"
         id="rect3741"
         width="3.9872501"
         height="5.5916867"
         x="88.006378"
         y="28" />
    </g>
    <path
       style="fill:#000000"
       d=""
       id="path2197" />
    <path
       clip-path="url(#clipPath6093-7)"
       style="opacity:0.6056338;fill:#000000;fill-opacity:1;stroke:none;filter:url(#filter6171-8)"
       d="m 114.4,82.502986 c 0,4.465301 -9.3766,4.299815 -11.85883,5.983488 -5.108537,3.46508 -16.574334,-0.810699 -22.355504,-0.729679 -0.081,5.781159 0.365076,18.386735 0.365076,24.536755 0,2.97817 -3.440475,11.20945 -6.350745,11.20945 -2.091359,1.5337 3.488204,8.21101 6.734971,5.31989 9.501888,-8.46107 35.131682,-30.022701 43.350822,-39.262886 2.04044,-2.29392 -4.90514,-9.844666 -9.88579,-7.057018 z"
       id="path6153"
       inkscape:connector-curvature="0"
       sodipodi:nodetypes="cscscssc"
       transform="matrix(1.258302,0,0,1.2610357,-31.355772,-28.164007)" />
    <path
       sodipodi:nodetypes="cscscssc"
       inkscape:connector-curvature="0"
       id="path6081"
       d="m 113.9,82.502986 c 0,4.465301 -7.96273,7.457662 -10.95287,7.881439 -6.394981,0.906328 -15.304541,-0.844131 -21.085711,-0.763111 -0.081,5.781159 3.397918,20.001056 -0.06716,25.109596 -1.68367,2.48224 -3.883991,8.07209 -6.794261,8.07209 -2.091359,1.5337 3.488204,11.21101 6.734971,8.31989 9.501888,-8.46107 45.998943,-30.20138 54.218083,-39.441569 2.04044,-2.29392 -17.0724,-11.965986 -22.05305,-9.178335 z"
       style="opacity:0.64319249;fill:#000000;fill-opacity:1;stroke:none;filter:url(#filter4087)"
       clip-path="url(#clipPath6093-7)"
       transform="matrix(1.3586765,0,0,1.3616521,-42.382653,-40.155635)" />
    <path
       style="fill:url(#linearGradient3895-3);fill-opacity:1;stroke:none"
       d="m 110.63455,70.194961 c 0,6.22666 -3.89615,8.938389 -7.35324,11.28619 -7.11485,4.831902 -21.758838,3.808851 -29.810472,3.92183 -0.112812,8.061568 0.720236,21.530529 -4.105701,28.654139 -2.344905,3.46138 -6.904898,8.42993 -10.95813,8.42993 3.228399,0 6.605514,-1.86127 10.562523,-5.69609 12.732335,-12.33915 24.187814,-22.50002 35.75589,-35.27627 2.67259,-2.951702 5.90913,-5.078441 5.90913,-11.319729 z"
       id="path6011"
       inkscape:connector-curvature="0"
       sodipodi:nodetypes="cscscssc" />
    <path
       style="fill:#ffffff;fill-opacity:1;stroke:none"
       d="m 110.66063,69.760596 c -0.44065,5.437134 -4.51314,7.338042 -6.73057,8.843942 -5.25734,3.570397 -12.241076,3.279514 -34.154353,3.279514 0,19.761338 0.513212,28.553598 -3.305002,33.382518 -2.272989,2.87466 -6.824021,6.07997 -10.532933,6.90254 5.082113,0 8.629228,-1.08751 11.949253,-4.30502 0.472301,-0.5418 1.415698,-1.55003 2.15657,-2.69493 3.94064,-5.81684 3.837814,-17.294735 3.837814,-29.263474 8.051633,-0.11295 22.202451,1.162156 29.317291,-3.669742 0.64822,-0.440215 2.63774,-2.020759 3.2183,-2.58944 3.22475,-3.158721 3.92397,-5.17219 4.24363,-9.885908 z M 55.937772,122.16911 c -0.219575,0.0485 -0.436533,0.0579 -0.652846,0.087 0.218648,-0.0234 0.432367,-0.0468 0.652846,-0.087 z"
       id="path6122"
       inkscape:connector-curvature="0"
       sodipodi:nodetypes="cscsccccsscccc" />
    <path
       style="fill:none;stroke:url(#radialGradient3919-5);stroke-width:1.82707405;stroke-linecap:butt;stroke-linejoin:miter;stroke-miterlimit:4;stroke-opacity:1;stroke-dasharray:none;filter:url(#filter3909-6)"
       d="M 108.97651,89.508691 79.934895,118.21077"
       id="path3873"
       inkscape:connector-curvature="0"
       sodipodi:nodetypes="cc"
       clip-path="url(#clipPath3889-6)"
       transform="matrix(1.3927341,0,0,1.3944553,-45.351691,-44.851769)" />
    <rect
       style="opacity:0.74336285000000002;fill:#ffffff;fill-opacity:0.5775401;stroke:none"
       id="rect3313"
       width="7.0710683"
       height="67.175148"
       x="104.29826"
       y="11.680929" />
  </g>
</svg>
