<?xml version="1.0" encoding="UTF-8" standalone="no"?>
<!-- Created with Inkscape (http://www.inkscape.org/) -->
<svg
   xmlns:dc="http://purl.org/dc/elements/1.1/"
   xmlns:cc="http://web.resource.org/cc/"
   xmlns:rdf="http://www.w3.org/1999/02/22-rdf-syntax-ns#"
   xmlns:svg="http://www.w3.org/2000/svg"
   xmlns="http://www.w3.org/2000/svg"
   xmlns:xlink="http://www.w3.org/1999/xlink"
   xmlns:sodipodi="http://sodipodi.sourceforge.net/DTD/sodipodi-0.dtd"
   xmlns:inkscape="http://www.inkscape.org/namespaces/inkscape"
   width="88"
   height="88"
   id="svg2830"
   sodipodi:version="0.32"
   inkscape:version="0.45.1"
   version="1.0"
   sodipodi:docname="applications-system.svgz"
   inkscape:output_extension="org.inkscape.output.svgz.inkscape"
   sodipodi:docbase="/home/david/oxygen/trunk/scalable/categories/small/22x22"
   inkscape:export-filename="applications-system.png"
   inkscape:export-xdpi="22.5"
   inkscape:export-ydpi="22.5">
  <defs
     id="defs2832">
    <linearGradient
       inkscape:collect="always"
       id="linearGradient3180">
      <stop
         style="stop-color:#000000;stop-opacity:1;"
         offset="0"
         id="stop3182" />
      <stop
         style="stop-color:#000000;stop-opacity:0;"
         offset="1"
         id="stop3184" />
    </linearGradient>
    <linearGradient
       inkscape:collect="always"
       id="linearGradient3191">
      <stop
         style="stop-color:#000000;stop-opacity:1;"
         offset="0"
         id="stop3193" />
      <stop
         style="stop-color:#000000;stop-opacity:0;"
         offset="1"
         id="stop3195" />
    </linearGradient>
    <linearGradient
       id="XMLID_27_"
       gradientUnits="userSpaceOnUse"
       x1="60.001499"
       y1="86"
       x2="60.001499"
       y2="34.0005"
       gradientTransform="translate(145.71379,-238.21429)">
      <stop
         offset="0"
         style="stop-color:#BBBBBB"
         id="stop47" />
      <stop
         offset="1"
         style="stop-color:#555555"
         id="stop49" />
    </linearGradient>
    <linearGradient
       id="XMLID_26_"
       gradientUnits="userSpaceOnUse"
       x1="60.001499"
       y1="92"
       x2="60.001499"
       y2="28.0005"
       gradientTransform="translate(145.71379,-238.21429)">
      <stop
         offset="0.1953"
         style="stop-color:#E9E9F0"
         id="stop30" />
      <stop
         offset="0.2597"
         style="stop-color:#DADAE2"
         id="stop32" />
      <stop
         offset="0.461"
         style="stop-color:#B1B1BB"
         id="stop34" />
      <stop
         offset="0.6437"
         style="stop-color:#93939F"
         id="stop36" />
      <stop
         offset="0.7999"
         style="stop-color:#81818E"
         id="stop38" />
      <stop
         offset="0.9112"
         style="stop-color:#7A7A88"
         id="stop40" />
      <stop
         offset="1"
         style="stop-color:#696975"
         id="stop42" />
    </linearGradient>
    <linearGradient
       id="XMLID_25_"
       gradientUnits="userSpaceOnUse"
       x1="60.001499"
       y1="94"
       x2="60.001499"
       y2="26.0005"
       gradientTransform="translate(145.71379,-238.21429)">
      <stop
         offset="0.2959"
         style="stop-color:#FFFFFF"
         id="stop23" />
      <stop
         offset="1"
         style="stop-color:#4A4A55"
         id="stop25" />
    </linearGradient>
    <linearGradient
       id="XMLID_24_"
       gradientUnits="userSpaceOnUse"
       x1="60.0005"
       y1="12.8452"
       x2="60.0005"
       y2="120.2141"
       gradientTransform="translate(145.71379,-238.21429)">
      <stop
         offset="0"
         style="stop-color:#FFFFFF"
         id="stop16" />
      <stop
         offset="1"
         style="stop-color:#ffffff;stop-opacity:0;"
         id="stop18" />
    </linearGradient>
    <radialGradient
       id="XMLID_23_"
       cx="59.5107"
       cy="124"
       r="125.1714"
       gradientUnits="userSpaceOnUse"
       gradientTransform="translate(145.71379,-238.21429)">
      <stop
         offset="0.1775"
         style="stop-color:#F0F0F0"
         id="stop9" />
      <stop
         offset="0.5325"
         style="stop-color:#A5A5BB"
         id="stop11" />
    </radialGradient>
    <radialGradient
       inkscape:collect="always"
       xlink:href="#XMLID_23_"
       id="radialGradient2894"
       gradientUnits="userSpaceOnUse"
       gradientTransform="translate(145.71379,-238.21429)"
       cx="59.5107"
       cy="124"
       r="125.1714" />
    <linearGradient
       inkscape:collect="always"
       xlink:href="#XMLID_24_"
       id="linearGradient2896"
       gradientUnits="userSpaceOnUse"
       gradientTransform="translate(145.71379,-238.21429)"
       x1="60.0005"
       y1="12.8452"
       x2="60.0005"
       y2="120.2141" />
    <linearGradient
       inkscape:collect="always"
       xlink:href="#XMLID_25_"
       id="linearGradient2898"
       gradientUnits="userSpaceOnUse"
       gradientTransform="matrix(1.1186005,0,0,1.1186005,138.59764,-245.33031)"
       x1="60.001499"
       y1="94"
       x2="60.001499"
       y2="26.0005" />
    <linearGradient
       inkscape:collect="always"
       xlink:href="#XMLID_26_"
       id="linearGradient2900"
       gradientUnits="userSpaceOnUse"
       gradientTransform="matrix(1.0312349,0,0,1.0312349,143.83967,-240.08838)"
       x1="60.001499"
       y1="92"
       x2="60.001499"
       y2="28.0005" />
    <linearGradient
       inkscape:collect="always"
       xlink:href="#XMLID_27_"
       id="linearGradient2902"
       gradientUnits="userSpaceOnUse"
       gradientTransform="translate(145.71379,-238.21429)"
       x1="60.001499"
       y1="86"
       x2="60.001499"
       y2="34.0005" />
    <linearGradient
       inkscape:collect="always"
       xlink:href="#XMLID_27_"
       id="linearGradient3184"
       gradientUnits="userSpaceOnUse"
       gradientTransform="matrix(0.6862224,0,0,0.6888438,3.6089824,1.6042986)"
       x1="60.001499"
       y1="86"
       x2="60.001499"
       y2="34.0005" />
    <linearGradient
       inkscape:collect="always"
       xlink:href="#XMLID_26_"
       id="linearGradient3187"
       gradientUnits="userSpaceOnUse"
       gradientTransform="matrix(0.6182193,0,0,0.6205903,7.6892478,5.6995149)"
       x1="60.001499"
       y1="92"
       x2="60.001499"
       y2="28.0005" />
    <linearGradient
       inkscape:collect="always"
       xlink:href="#XMLID_25_"
       id="linearGradient3190"
       gradientUnits="userSpaceOnUse"
       gradientTransform="matrix(0.741676,0,0,0.7445205,0.2817173,-1.7362929)"
       x1="60.001499"
       y1="94"
       x2="60.001499"
       y2="26.0005" />
    <linearGradient
       inkscape:collect="always"
       xlink:href="#XMLID_24_"
       id="linearGradient3193"
       gradientUnits="userSpaceOnUse"
       gradientTransform="matrix(0.6630392,0,0,0.6655821,5.0000038,3.0000026)"
       x1="60.0005"
       y1="12.8452"
       x2="60.0005"
       y2="120.2141" />
    <radialGradient
       inkscape:collect="always"
       xlink:href="#XMLID_23_"
       id="radialGradient3196"
       gradientUnits="userSpaceOnUse"
       gradientTransform="matrix(0.6630392,0,0,0.6655821,5.0000038,3.0000026)"
       cx="59.5107"
       cy="124"
       r="125.1714" />
    <linearGradient
       inkscape:collect="always"
       xlink:href="#linearGradient3191"
       id="linearGradient3197"
       x1="47.55434"
       y1="92.936874"
       x2="47.55434"
       y2="-52.844681"
       gradientUnits="userSpaceOnUse"
       gradientTransform="translate(0,1)" />
    <radialGradient
       inkscape:collect="always"
       xlink:href="#XMLID_23_"
       id="radialGradient3203"
       gradientUnits="userSpaceOnUse"
       gradientTransform="matrix(0.6630392,0,0,0.6655821,5.0000038,4.0000026)"
       cx="59.5107"
       cy="124"
       r="125.1714" />
    <radialGradient
       inkscape:collect="always"
       xlink:href="#XMLID_23_"
       id="radialGradient3210"
       gradientUnits="userSpaceOnUse"
       gradientTransform="matrix(0.6630392,0,0,0.6655821,5.0000038,6.0000026)"
       cx="59.5107"
       cy="124"
       r="125.1714" />
    <radialGradient
       inkscape:collect="always"
       xlink:href="#XMLID_23_"
       id="radialGradient3212"
       gradientUnits="userSpaceOnUse"
       gradientTransform="matrix(0.6630392,0,0,0.6655821,5.0000038,3.0000026)"
       cx="59.5107"
       cy="124"
       r="125.1714" />
    <linearGradient
       inkscape:collect="always"
       xlink:href="#linearGradient3180"
       id="linearGradient3186"
       x1="48.705318"
       y1="68.840515"
       x2="48.705318"
       y2="35.473202"
       gradientUnits="userSpaceOnUse" />
  </defs>
  <sodipodi:namedview
     id="base"
     pagecolor="#ffffff"
     bordercolor="#666666"
     borderopacity="1.0"
     inkscape:pageopacity="0.0"
     inkscape:pageshadow="2"
     inkscape:zoom="7.2386364"
     inkscape:cx="44"
     inkscape:cy="44"
     inkscape:document-units="px"
     inkscape:current-layer="layer1"
     height="88px"
     width="88px"
     inkscape:window-width="748"
     inkscape:window-height="734"
     inkscape:window-x="0"
     inkscape:window-y="0"
     showgrid="true"
     showborder="true" />
  <metadata
     id="metadata2835">
    <rdf:RDF>
      <cc:Work
         rdf:about="">
        <dc:format>image/svg+xml</dc:format>
        <dc:type
           rdf:resource="http://purl.org/dc/dcmitype/StillImage" />
      </cc:Work>
    </rdf:RDF>
  </metadata>
  <g
     inkscape:label="Livello 1"
     inkscape:groupmode="layer"
     id="layer1">
    <path
       style="opacity:0.74500002;fill:none;stroke:url(#linearGradient3197);stroke-width:8;stroke-linecap:round;stroke-linejoin:round;stroke-miterlimit:4;stroke-dasharray:none;stroke-opacity:1"
       id="path3188"
       d="M 84.565371,47.929752 L 84.565371,39.941436 L 76.317826,39.665219 C 75.951829,36.918362 75.242377,34.281326 74.227264,31.800701 L 81.225642,27.426496 L 77.247407,20.508435 L 69.966574,24.409412 C 68.306987,22.255588 66.380858,20.321407 64.2346,18.655455 L 68.120673,11.346698 L 61.229706,7.3538708 L 56.872213,14.37909 C 54.400402,13.359418 51.774104,12.64658 49.037078,12.279178 L 48.761254,4.0000026 L 40.804784,4.0000026 L 40.529622,12.279178 C 37.792597,12.64658 35.165635,13.359418 32.694488,14.378424 L 28.336994,7.3538708 L 21.446028,11.347363 L 25.332101,18.65612 C 23.186506,20.322072 21.259714,22.256254 19.599464,24.410743 L 12.31863,20.509767 L 8.3403952,27.426496 L 15.339437,31.801367 C 14.323661,34.281991 13.613546,36.919028 13.248211,39.666551 L 5.0006668,39.941436 L 5.0000038,47.928421 L 13.248211,48.204638 C 13.614209,50.952161 14.324324,53.589197 15.339437,56.069821 L 8.3410583,60.444693 L 12.31863,67.362087 L 19.60079,63.460445 C 21.260377,65.614269 23.187169,67.549116 25.333427,69.215068 L 21.446691,76.524491 L 28.336994,80.517983 L 32.695151,73.491433 C 35.166298,74.510439 37.79326,75.223943 40.530285,75.590679 L 40.804784,83.869855 L 48.761254,83.869855 L 49.036415,75.590679 C 51.773441,75.223278 54.400402,74.511105 56.870886,73.491433 L 61.22838,80.517318 L 68.119346,76.523825 L 64.233274,69.213737 C 66.378206,67.547785 68.30566,65.613603 69.965248,63.45978 L 77.246081,67.360756 L 81.224979,60.443361 L 74.225938,56.069156 C 75.241051,53.588531 75.951829,50.952161 76.317163,48.204638 L 84.565371,47.929752 z M 44.783019,63.902392 C 33.815024,63.902392 24.891843,54.944988 24.891843,43.934929 C 24.891843,32.92487 33.815024,23.967466 44.783019,23.967466 C 55.751013,23.967466 64.674195,32.92487 64.674195,43.934929 C 64.674195,54.944988 55.751013,63.902392 44.783019,63.902392 z " />
    <path
       d="M 84.565371,46.929752 L 84.565371,38.941436 L 76.317826,38.665219 C 75.951829,35.918362 75.242377,33.281326 74.227264,30.800701 L 81.225642,26.426496 L 77.247407,19.508435 L 69.966574,23.409412 C 68.306987,21.255588 66.380858,19.321407 64.2346,17.655455 L 68.120673,10.346698 L 61.229706,6.3538708 L 56.872213,13.37909 C 54.400402,12.359418 51.774104,11.64658 49.037078,11.279178 L 48.761254,3.0000026 L 40.804784,3.0000026 L 40.529622,11.279178 C 37.792597,11.64658 35.165635,12.359418 32.694488,13.378424 L 28.336994,6.3538708 L 21.446028,10.347363 L 25.332101,17.65612 C 23.186506,19.322072 21.259714,21.256254 19.599464,23.410743 L 12.31863,19.509767 L 8.3403952,26.426496 L 15.339437,30.801367 C 14.323661,33.281991 13.613546,35.919028 13.248211,38.666551 L 5.0006668,38.941436 L 5.0000038,46.928421 L 13.248211,47.204638 C 13.614209,49.952161 14.324324,52.589197 15.339437,55.069821 L 8.3410583,59.444693 L 12.31863,66.362087 L 19.60079,62.460445 C 21.260377,64.614269 23.187169,66.549116 25.333427,68.215068 L 21.446691,75.524491 L 28.336994,79.517983 L 32.695151,72.491433 C 35.166298,73.510439 37.79326,74.223943 40.530285,74.590679 L 40.804784,82.869855 L 48.761254,82.869855 L 49.036415,74.590679 C 51.773441,74.223278 54.400402,73.511105 56.870886,72.491433 L 61.22838,79.517318 L 68.119346,75.523825 L 64.233274,68.213737 C 66.378206,66.547785 68.30566,64.613603 69.965248,62.45978 L 77.246081,66.360756 L 81.224979,59.443361 L 74.225938,55.069156 C 75.241051,52.588531 75.951829,49.952161 76.317163,47.204638 L 84.565371,46.929752 z M 44.783019,62.902392 C 33.815024,62.902392 24.891843,53.944988 24.891843,42.934929 C 24.891843,31.92487 33.815024,22.967466 44.783019,22.967466 C 55.751013,22.967466 64.674195,31.92487 64.674195,42.934929 C 64.674195,53.944988 55.751013,62.902392 44.783019,62.902392 z "
       id="path13"
       style="fill:url(#radialGradient3196)" />
    <path
       d="M 41.445942,3.6655847 C 41.409475,4.7604673 41.192662,11.301808 41.192662,11.301808 C 41.182053,11.626612 40.938718,11.896173 40.617807,11.939436 C 37.972943,12.294191 35.392395,12.985731 32.947106,13.994753 C 32.647412,14.118552 32.302632,14.006734 32.132231,13.731183 C 32.132231,13.731183 28.690394,8.1815593 28.11355,7.2524066 C 27.256904,7.7489309 23.190484,10.105757 22.333838,10.602281 C 22.847693,11.568707 25.918227,17.343297 25.918227,17.343297 C 25.971271,17.442469 25.996466,17.550293 25.996466,17.65612 C 25.996466,17.856461 25.906293,18.053473 25.739207,18.183261 C 23.639362,19.813938 21.750363,21.710181 20.125917,23.81808 C 19.928331,24.074994 19.574268,24.150871 19.289162,23.998452 C 19.289162,23.998452 13.53597,20.916142 12.573901,20.400315 C 12.079273,21.260248 9.7314515,25.342263 9.2368242,26.202195 C 10.162427,26.781251 15.690848,30.236288 15.690848,30.236288 C 15.890423,30.361417 16.003802,30.577731 16.003802,30.802033 C 16.003802,30.886561 15.987889,30.972422 15.954074,31.054954 C 14.948244,33.510286 14.259346,36.101397 13.906609,38.755073 C 13.864175,39.077215 13.594981,39.321483 13.271418,39.332133 C 13.271418,39.332133 6.7550685,39.550444 5.664369,39.586385 C 5.664369,40.247974 5.664369,41.109902 5.664369,41.696946 C 11.552157,42.887672 17.819204,43.801517 24.314336,44.422505 C 24.274553,43.740949 24.228804,42.934929 24.228804,42.934929 C 24.228804,31.558134 33.44969,22.301884 44.783019,22.301884 C 56.117011,22.301884 65.337234,31.558134 65.337234,42.934929 C 65.337234,42.934929 65.290821,43.748936 65.251702,44.433154 C 71.742193,43.81749 78.008576,42.90764 83.902332,41.721572 C 83.902332,41.131201 83.902332,40.251967 83.902332,39.585719 C 82.811632,39.549112 76.295283,39.331467 76.295283,39.331467 C 75.97172,39.320818 75.702526,39.076549 75.660091,38.754407 C 75.306691,36.100066 74.617794,33.50962 73.613289,31.054954 C 73.579474,30.972422 73.563561,30.887227 73.563561,30.802698 C 73.563561,30.578397 73.676941,30.362083 73.876516,30.236953 C 73.876516,30.236953 79.404274,26.781917 80.329876,26.20286 C 79.835249,25.342928 77.487427,21.260248 76.9928,20.400315 C 76.03073,20.915476 70.277539,23.998452 70.277539,23.998452 C 69.992432,24.150871 69.639032,24.074994 69.440784,23.81808 C 67.816338,21.709515 65.927339,19.813272 63.828157,18.183261 C 63.660408,18.053473 63.570235,17.857126 63.570235,17.65612 C 63.570235,17.549627 63.59543,17.442469 63.648473,17.343297 C 63.648473,17.343297 66.719008,11.568707 67.2322,10.602281 C 66.375553,10.105757 62.309134,7.7482653 61.452487,7.2517411 C 60.875643,8.1808937 57.433144,13.730517 57.433144,13.730517 C 57.26208,14.006068 56.917962,14.117886 56.618269,13.994088 C 54.172317,12.985065 51.591105,12.293525 48.946905,11.93877 C 48.626657,11.895507 48.382659,11.625947 48.372713,11.301143 C 48.372713,11.301143 48.155236,4.7598017 48.118769,3.6649191 C 47.130841,3.6655847 42.435197,3.6655847 41.445942,3.6655847 z "
       id="path20"
       style="fill:url(#linearGradient3193)" />
    <path
       d="M 44.783019,17.621237 C 30.856563,17.621237 19.56604,28.955062 19.56604,42.934929 C 19.56604,56.915534 30.856563,68.24862 44.783019,68.24862 C 58.71021,68.24862 69.999997,56.915534 69.999997,42.934929 C 69.999997,28.955062 58.71021,17.621237 44.783019,17.621237 z M 44.783019,61.547939 C 34.559014,61.547939 26.241121,53.198145 26.241121,42.934929 C 26.241121,32.671713 34.559014,24.321919 44.783019,24.321919 C 55.007024,24.321919 63.324917,32.671713 63.324917,42.934929 C 63.324917,53.198145 55.007024,61.547939 44.783019,61.547939 z "
       id="path27"
       style="fill:url(#linearGradient3190)" />
    <path
       d="M 44.783019,23.076038 C 33.87454,23.076038 25,31.984614 25,42.934929 C 25,53.885244 33.87454,62.793819 44.783019,62.793819 C 55.691498,62.793819 64.566037,53.885244 64.566037,42.934929 C 64.566037,31.984614 55.691498,23.076038 44.783019,23.076038 z M 44.783019,58.449684 C 36.260862,58.449684 29.327538,51.489769 29.327538,42.934929 C 29.327538,34.380088 36.260862,27.420173 44.783019,27.420173 C 53.305176,27.420173 60.238499,34.380088 60.238499,42.934929 C 60.238499,51.489769 53.305176,58.449684 44.783019,58.449684 z "
       id="path44"
       style="fill:url(#linearGradient3187)" />
    <path
       d="M 44.783017,25.024989 C 34.945332,25.024989 26.941233,33.059664 26.941233,42.934928 C 26.941233,52.810881 34.945332,60.844867 44.783017,60.844867 C 54.621389,60.844867 62.624801,52.810881 62.624801,42.934928 C 62.624801,33.059664 54.621389,25.024989 44.783017,25.024989 z M 44.783017,59.46718 C 35.702235,59.46718 28.313678,52.050398 28.313678,42.934928 C 28.313678,33.819458 35.702235,26.402676 44.783017,26.402676 C 53.863799,26.402676 61.252356,33.819458 61.252356,42.934928 C 61.252356,52.050398 53.863799,59.46718 44.783017,59.46718 z "
       id="path51"
       style="fill:url(#linearGradient3184);stroke:#000000;stroke-width:2.3;stroke-miterlimit:4;stroke-dasharray:none;stroke-opacity:1;opacity:0.45" />
    <path
       d="M 25.087439,68.676316 L 21.446691,75.523825 L 21.717211,75.680237 L 25.333427,68.879319 C 25.249221,68.814757 25.170982,68.741543 25.087439,68.676316 z "
       id="path59"
       style="fill:#ffffff" />
    <path
       d="M 73.944146,43.856094 C 73.682908,59.778815 60.705905,72.653835 44.783019,72.653835 C 28.859469,72.653835 15.883129,59.778815 15.621892,43.856094 C 15.61924,44.018496 15.609294,44.180233 15.609294,44.3433 C 15.609294,60.491653 28.696362,73.628913 44.783019,73.628913 C 60.869676,73.628913 73.956744,60.491653 73.956744,44.3433 C 73.956744,44.180233 73.946798,44.018496 73.944146,43.856094 z "
       id="path61"
       style="opacity:0.5;fill:#ffffff" />
    <path
       d="M 64.233274,68.879319 L 67.848826,75.679571 L 68.119346,75.523159 L 64.478598,68.676316 C 64.395718,68.741543 64.31748,68.814757 64.233274,68.879319 z "
       id="path69"
       style="fill:#ffffff" />
    <path
       style="fill:#ffffff;fill-opacity:1"
       d="M 40.8125,3 L 40.53125,11.28125 C 37.794226,11.648652 35.158647,12.355994 32.6875,13.375 L 28.34375,6.34375 L 21.4375,10.34375 L 22.65625,12.625 L 28.34375,9.34375 L 32.6875,16.375 C 35.158647,15.355994 37.794226,14.648652 40.53125,14.28125 L 40.8125,6 L 48.75,6 L 49.03125,14.28125 C 51.768276,14.648652 54.403191,15.355329 56.875,16.375 L 61.21875,9.34375 L 66.90625,12.625 L 68.125,10.34375 L 61.21875,6.34375 L 56.875,13.375 C 54.403191,12.355328 51.768276,11.648652 49.03125,11.28125 L 48.75,3 L 40.8125,3 z M 24.21875,18.5625 C 22.512809,20.013265 20.963599,21.628611 19.59375,23.40625 L 12.3125,19.5 L 8.34375,26.4375 L 9.59375,27.21875 L 12.3125,22.5 L 19.59375,26.40625 C 21.254,24.251761 23.198154,22.322202 25.34375,20.65625 L 24.21875,18.5625 z M 65.34375,18.59375 L 64.25,20.65625 C 66.396258,22.322202 68.309161,24.252426 69.96875,26.40625 L 77.25,22.5 L 79.96875,27.21875 L 81.21875,26.4375 L 77.25,19.5 L 69.96875,23.40625 C 68.602041,21.632527 67.046067,20.042418 65.34375,18.59375 z M 14.46875,33.25 C 13.916685,34.996126 13.497574,36.794355 13.25,38.65625 L 5,38.9375 L 5,41.9375 L 13.25,41.65625 C 13.615335,38.908727 14.327974,36.293122 15.34375,33.8125 L 14.46875,33.25 z M 75.125,33.25 L 74.21875,33.8125 C 75.233863,36.293125 75.946504,38.909394 76.3125,41.65625 L 84.5625,41.9375 L 84.5625,38.9375 L 76.3125,38.65625 C 76.064767,36.796978 75.675725,34.994194 75.125,33.25 z M 24.9375,44.4375 C 24.900628,44.933138 24.90625,45.432561 24.90625,45.9375 C 24.90625,56.947559 33.813254,65.906252 44.78125,65.90625 C 55.749244,65.90625 64.687501,56.947559 64.6875,45.9375 C 64.6875,45.432561 64.661872,44.933138 64.625,44.4375 C 63.857878,54.749123 55.246235,62.90625 44.78125,62.90625 C 34.316263,62.906249 25.704623,54.749122 24.9375,44.4375 z M 14.46875,55.625 L 8.34375,59.4375 L 9.59375,61.65625 L 15.34375,58.0625 C 15.016542,57.262903 14.731269,56.455561 14.46875,55.625 z M 75.09375,55.625 C 74.83116,56.455468 74.545959,57.262903 74.21875,58.0625 L 79.96875,61.65625 L 81.21875,59.4375 L 75.09375,55.625 z "
       id="path3199"
       sodipodi:nodetypes="ccccccccccccccccccccccccccccccccccccccccccccccccccccccssscsccccccccccc" />
    <path
       style="opacity:0.215;fill:none;stroke:url(#linearGradient3186);stroke-width:2.29999995;stroke-miterlimit:4;stroke-dasharray:none;stroke-opacity:1"
       id="path3176"
       d="M 44.783015,14.15 C 28.97047,14.15 16.105129,27.063364 16.105129,42.934929 C 16.105129,58.807603 28.97047,71.719858 44.783015,71.719858 C 60.596663,71.719858 73.4609,58.807603 73.4609,42.934929 C 73.4609,27.063364 60.596663,14.15 44.783015,14.15 z M 44.783015,69.505634 C 30.187073,69.505634 18.311121,57.58535 18.311121,42.934929 C 18.311121,28.284507 30.187073,16.364224 44.783015,16.364224 C 59.378955,16.364224 71.254909,28.284507 71.254909,42.934929 C 71.254909,57.58535 59.378955,69.505634 44.783015,69.505634 z " />
  </g>
</svg>
