<?xml version="1.0" encoding="UTF-8" standalone="no"?>
<!-- Created with Inkscape (http://www.inkscape.org/) -->

<svg
   xmlns:dc="http://purl.org/dc/elements/1.1/"
   xmlns:cc="http://creativecommons.org/ns#"
   xmlns:rdf="http://www.w3.org/1999/02/22-rdf-syntax-ns#"
   xmlns:svg="http://www.w3.org/2000/svg"
   xmlns="http://www.w3.org/2000/svg"
   xmlns:xlink="http://www.w3.org/1999/xlink"
   xmlns:sodipodi="http://sodipodi.sourceforge.net/DTD/sodipodi-0.dtd"
   xmlns:inkscape="http://www.inkscape.org/namespaces/inkscape"
   width="128"
   height="128"
   id="svg2606"
   sodipodi:version="0.32"
   inkscape:version="0.48.0 r9654"
   version="1.0"
   sodipodi:docname="application-x-kgetlist.svgz"
   inkscape:output_extension="org.inkscape.output.svgz.inkscape"
   inkscape:export-filename="/home/pinheiro/pics/oxygen-icons/scalable/mimetypes/small/22x22/application-x-kgetlist.png"
   inkscape:export-xdpi="61.875"
   inkscape:export-ydpi="61.875">
  <defs
     id="defs2608">
    <linearGradient
       id="linearGradient6131">
      <stop
         id="stop6133"
         offset="0"
         style="stop-color:#fcfcfc;stop-opacity:1" />
      <stop
         style="stop-color:#f8f8f8;stop-opacity:1"
         offset="0.52275378"
         id="stop6135" />
      <stop
         id="stop6141"
         offset="0.77457333"
         style="stop-color:#f0efef;stop-opacity:1;" />
      <stop
         id="stop6139"
         offset="0.90122044"
         style="stop-color:#e3e1e1;stop-opacity:1;" />
      <stop
         id="stop6137"
         offset="1"
         style="stop-color:#cecbcb;stop-opacity:1" />
    </linearGradient>
    <linearGradient
       inkscape:collect="always"
       xlink:href="#linearGradient6131"
       id="linearGradient3893"
       gradientUnits="userSpaceOnUse"
       gradientTransform="matrix(1.0119858,0,0,1.0119858,-0.89554075,-0.9871566)"
       x1="86.73793"
       y1="93.621468"
       x2="95.460213"
       y2="102.34375" />
    <radialGradient
       inkscape:collect="always"
       xlink:href="#linearGradient3913-5"
       id="radialGradient3919-5"
       cx="90.75"
       cy="110.25299"
       fx="90.75"
       fy="110.25299"
       r="18.750002"
       gradientTransform="matrix(1.3067347,0,0,1.3067347,-27.83617,-33.818441)"
       gradientUnits="userSpaceOnUse" />
    <linearGradient
       inkscape:collect="always"
       id="linearGradient3913-5">
      <stop
         style="stop-color:#ffffff;stop-opacity:1;"
         offset="0"
         id="stop3915-4" />
      <stop
         style="stop-color:#ffffff;stop-opacity:0;"
         offset="1"
         id="stop3917-7" />
    </linearGradient>
    <clipPath
       clipPathUnits="userSpaceOnUse"
       id="clipPath3889-6">
      <path
         sodipodi:nodetypes="cscscssc"
         inkscape:connector-curvature="0"
         id="path3891-5"
         d="m 112,82.502986 c 0,4.465301 -2.79749,6.409952 -5.27972,8.093625 -5.10854,3.46508 -14.939114,3.32536 -20.720284,3.40638 -0.081,5.781159 0.16586,15.504599 -3.29922,20.613139 -1.68367,2.48224 -5.29051,5.38687 -8.20078,5.38687 2.31803,0 4.74284,-1.33476 7.58402,-4.08481 9.14197,-8.84873 17.36714,-16.13535 25.673154,-25.297529 C 109.67612,88.503916 112,86.97878 112,82.502986 z"
         style="fill:url(#linearGradient3893);fill-opacity:1;stroke:none" />
    </clipPath>
    <filter
       color-interpolation-filters="sRGB"
       inkscape:collect="always"
       id="filter3909-6">
      <feGaussianBlur
         inkscape:collect="always"
         stdDeviation="0.43040059"
         id="feGaussianBlur3911-9" />
    </filter>
    <linearGradient
       inkscape:collect="always"
       xlink:href="#linearGradient3897-7"
       id="linearGradient3895-3"
       gradientUnits="userSpaceOnUse"
       gradientTransform="matrix(1.4094273,0,0,1.4111689,-46.598939,-46.228314)"
       x1="82.15696"
       y1="90.381706"
       x2="94.220871"
       y2="102.18401" />
    <linearGradient
       id="linearGradient3897-7">
      <stop
         style="stop-color:#fcfcfc;stop-opacity:1"
         offset="0"
         id="stop3899-4" />
      <stop
         id="stop3901-5"
         offset="0.52275378"
         style="stop-color:#f8f8f8;stop-opacity:1" />
      <stop
         style="stop-color:#f0efef;stop-opacity:1;"
         offset="0.72337759"
         id="stop3903-2" />
      <stop
         style="stop-color:#e3e1e1;stop-opacity:1;"
         offset="0.89024991"
         id="stop3905-5" />
      <stop
         style="stop-color:#cecbcb;stop-opacity:1"
         offset="1"
         id="stop3907-4" />
    </linearGradient>
    <clipPath
       clipPathUnits="userSpaceOnUse"
       id="clipPath6093-7">
      <path
         inkscape:connector-curvature="0"
         sodipodi:nodetypes="cccssccc"
         id="path6095-4"
         d="m 17.000001,8 0.782827,110 57.5,0 c 1.675283,0 3.119418,0.18058 4.9,-1.6 C 88.980763,107.60206 99.94047,96.548195 107.19904,89.224043 109.6396,86.761431 110,84.752873 110,82.5 L 110,8 z"
         style="fill:#ffffff;fill-opacity:1" />
    </clipPath>
    <radialGradient
       inkscape:collect="always"
       xlink:href="#linearGradient5982-7"
       id="radialGradient5988-0"
       cx="64"
       cy="64.004021"
       fx="63.793392"
       fy="47.274845"
       r="47.5"
       gradientTransform="matrix(1.689423,-0.08280186,0.06907651,1.3515102,-50.311719,-17.641619)"
       gradientUnits="userSpaceOnUse" />
    <linearGradient
       inkscape:collect="always"
       id="linearGradient5982-7">
      <stop
         style="stop-color:#ffffff;stop-opacity:1;"
         offset="0"
         id="stop5984-8" />
      <stop
         style="stop-color:#ffffff;stop-opacity:0;"
         offset="1"
         id="stop5986-6" />
    </linearGradient>
    <filter
       color-interpolation-filters="sRGB"
       inkscape:collect="always"
       id="filter6171-8"
       x="-0.47870937"
       width="1.9574188"
       y="-0.51275069"
       height="2.0255013">
      <feGaussianBlur
         inkscape:collect="always"
         stdDeviation="10.140743"
         id="feGaussianBlur6173-8" />
    </filter>
    <linearGradient
       inkscape:collect="always"
       xlink:href="#linearGradient4518-3"
       id="linearGradient4524-4"
       x1="72"
       y1="0"
       x2="72"
       y2="116.40091"
       gradientUnits="userSpaceOnUse"
       gradientTransform="matrix(1.003095,0,0,0.98228452,-1.7655502,0.69098836)" />
    <linearGradient
       id="linearGradient4518-3">
      <stop
         style="stop-color:#eeecec;stop-opacity:1"
         offset="0"
         id="stop4520-1" />
      <stop
         id="stop5969-4"
         offset="0.40000001"
         style="stop-color:#f4f4f4;stop-opacity:1" />
      <stop
         style="stop-color:#f6f5f5;stop-opacity:1"
         offset="1"
         id="stop4522-9" />
    </linearGradient>
    <filter
       inkscape:collect="always"
       id="filter4123">
      <feGaussianBlur
         inkscape:collect="always"
         stdDeviation="2.028"
         id="feGaussianBlur4125" />
    </filter>
    <filter
       inkscape:collect="always"
       id="filter4087"
       x="-0.16465071"
       width="1.3293014"
       y="-0.2041295"
       height="1.408259">
      <feGaussianBlur
         inkscape:collect="always"
         stdDeviation="4.2234282"
         id="feGaussianBlur4089" />
    </filter>
    <filter
       inkscape:collect="always"
       id="filter3814">
      <feGaussianBlur
         inkscape:collect="always"
         stdDeviation="1.8077645"
         id="feGaussianBlur3816" />
    </filter>
    <linearGradient
       gradientTransform="translate(-484,-674)"
       y2="677.06049"
       x2="538.77338"
       y1="675.48541"
       x1="538.77338"
       gradientUnits="userSpaceOnUse"
       id="XMLID_16_">
      <stop
         id="stop146"
         style="stop-color:#FFFFFF"
         offset="0" />
      <stop
         id="stop148"
         style="stop-color:#00BF00"
         offset="1" />
    </linearGradient>
    <radialGradient
       gradientUnits="userSpaceOnUse"
       gradientTransform="translate(-484,-674)"
       r="126.0234"
       cy="651.10352"
       cx="538.77338"
       id="XMLID_15_">
      <stop
         id="stop137"
         style="stop-color:#CCEAAC"
         offset="0" />
      <stop
         id="stop139"
         style="stop-color:#3BA42A"
         offset="0.5393" />
      <stop
         id="stop141"
         style="stop-color:#91E851"
         offset="1" />
    </radialGradient>
    <linearGradient
       gradientTransform="translate(-484,-674)"
       y2="789.12207"
       x2="538.77338"
       y1="677.87701"
       x1="538.77338"
       gradientUnits="userSpaceOnUse"
       id="XMLID_14_">
      <stop
         id="stop122"
         style="stop-color:#1E7D27"
         offset="0.0056" />
      <stop
         id="stop124"
         style="stop-color:#3BA42A"
         offset="0.1348" />
      <stop
         id="stop126"
         style="stop-color:#B8E57F"
         offset="0.4831" />
      <stop
         id="stop128"
         style="stop-color:#A9E66E"
         offset="0.6299" />
      <stop
         id="stop130"
         style="stop-color:#97E859"
         offset="0.8528" />
      <stop
         id="stop132"
         style="stop-color:#91E851"
         offset="1" />
    </linearGradient>
    <radialGradient
       gradientUnits="userSpaceOnUse"
       gradientTransform="translate(-484,-674)"
       r="121.5466"
       cy="792.99609"
       cx="538.77252"
       id="XMLID_13_">
      <stop
         id="stop9505"
         style="stop-color:#FFFAB3"
         offset="0" />
      <stop
         id="stop9507"
         style="stop-color:#DFEE9F"
         offset="0.0494" />
      <stop
         id="stop9509"
         style="stop-color:#C3E48D"
         offset="0.1049" />
      <stop
         id="stop9511"
         style="stop-color:#AEDC80"
         offset="0.1605" />
      <stop
         id="stop9513"
         style="stop-color:#A2D879"
         offset="0.2156" />
      <stop
         id="stop9515"
         style="stop-color:#9ED676"
         offset="0.2697" />
      <stop
         id="stop9517"
         style="stop-color:#3BA42A"
         offset="0.3989" />
      <stop
         id="stop9519"
         style="stop-color:#3BA42A"
         offset="0.3995" />
      <stop
         id="stop9521"
         style="stop-color:#258426"
         offset="0.4484" />
      <stop
         id="stop101"
         style="stop-color:#166D24"
         offset="0.4956" />
      <stop
         id="stop103"
         style="stop-color:#0C5F23"
         offset="0.54" />
      <stop
         id="stop105"
         style="stop-color:#095A22"
         offset="0.5787" />
      <stop
         id="stop107"
         style="stop-color:#166727"
         offset="0.5948" />
      <stop
         id="stop109"
         style="stop-color:#388B33"
         offset="0.6456" />
      <stop
         id="stop111"
         style="stop-color:#51A53C"
         offset="0.6932" />
      <stop
         id="stop113"
         style="stop-color:#61B542"
         offset="0.7359" />
      <stop
         id="stop115"
         style="stop-color:#66BA44"
         offset="0.7697" />
      <stop
         id="stop117"
         style="stop-color:#095A22"
         offset="1" />
    </radialGradient>
    <linearGradient
       y2="96.000198"
       x2="88.000198"
       y1="104"
       x1="96"
       gradientUnits="userSpaceOnUse"
       id="XMLID_12_">
      <stop
         id="stop83"
         style="stop-color:#888A85"
         offset="0" />
      <stop
         id="stop85"
         style="stop-color:#8C8E89"
         offset="0.0072" />
      <stop
         id="stop87"
         style="stop-color:#ABACA9"
         offset="0.0673" />
      <stop
         id="stop89"
         style="stop-color:#C5C6C4"
         offset="0.1347" />
      <stop
         id="stop91"
         style="stop-color:#DBDBDA"
         offset="0.2652576" />
      <stop
         id="stop93"
         style="stop-color:#EBEBEB"
         offset="0.37646064" />
      <stop
         id="stop95"
         style="stop-color:#F7F7F6"
         offset="0.48740286" />
      <stop
         id="stop97"
         style="stop-color:#FDFDFD"
         offset="0.6324091" />
      <stop
         id="stop99"
         style="stop-color:#FFFFFF"
         offset="1" />
    </linearGradient>
    <linearGradient
       gradientTransform="translate(-484,-674)"
       y2="736.55688"
       x2="579.72852"
       y1="732.41022"
       x1="579.72852"
       gradientUnits="userSpaceOnUse"
       id="XMLID_11_">
      <stop
         id="stop61"
         style="stop-color:#094422"
         offset="0" />
      <stop
         id="stop63"
         style="stop-color:#9ED676"
         offset="1" />
    </linearGradient>
    <linearGradient
       gradientTransform="translate(-484,-674)"
       y2="678.3681"
       x2="538.77338"
       y1="674"
       x1="538.77338"
       gradientUnits="userSpaceOnUse"
       id="XMLID_10_">
      <stop
         id="stop54"
         style="stop-color:#094422"
         offset="0" />
      <stop
         id="stop56"
         style="stop-color:#9ED676"
         offset="1" />
    </linearGradient>
    <linearGradient
       gradientTransform="translate(-484,-674)"
       y2="674"
       x2="538.77338"
       y1="793"
       x1="538.77338"
       gradientUnits="userSpaceOnUse"
       id="XMLID_9_">
      <stop
         id="stop7"
         style="stop-color:#094422"
         offset="0" />
      <stop
         id="stop9"
         style="stop-color:#095A22"
         offset="0.1124" />
      <stop
         id="stop11"
         style="stop-color:#1E7D27"
         offset="0.4045" />
      <stop
         id="stop13"
         style="stop-color:#217F29"
         offset="0.4231" />
      <stop
         id="stop15"
         style="stop-color:#2A8531"
         offset="0.4369" />
      <stop
         id="stop17"
         style="stop-color:#3A8F3D"
         offset="0.4491" />
      <stop
         id="stop19"
         style="stop-color:#519D4E"
         offset="0.4605" />
      <stop
         id="stop21"
         style="stop-color:#6EAF64"
         offset="0.4712" />
      <stop
         id="stop23"
         style="stop-color:#92C680"
         offset="0.4814" />
      <stop
         id="stop25"
         style="stop-color:#BCE0A0"
         offset="0.4911" />
      <stop
         id="stop27"
         style="stop-color:#CCEAAC"
         offset="0.4944" />
      <stop
         id="stop29"
         style="stop-color:#A4CD90"
         offset="0.5124" />
      <stop
         id="stop31"
         style="stop-color:#80B276"
         offset="0.5326" />
      <stop
         id="stop33"
         style="stop-color:#609A5F"
         offset="0.5552" />
      <stop
         id="stop35"
         style="stop-color:#44864C"
         offset="0.5803" />
      <stop
         id="stop37"
         style="stop-color:#2E763C"
         offset="0.6086" />
      <stop
         id="stop39"
         style="stop-color:#1D6931"
         offset="0.6416" />
      <stop
         id="stop9560"
         style="stop-color:#126028"
         offset="0.6825" />
      <stop
         id="stop43"
         style="stop-color:#0B5B23"
         offset="0.7398" />
      <stop
         id="stop45"
         style="stop-color:#095A22"
         offset="0.8989" />
      <stop
         id="stop9564"
         style="stop-color:#9ED676"
         offset="1" />
    </linearGradient>
    <filter
       inkscape:collect="always"
       id="filter4274"
       x="-0.085184656"
       width="1.1703693"
       y="-0.17037249"
       height="1.340745"
       color-interpolation-filters="sRGB">
      <feGaussianBlur
         inkscape:collect="always"
         stdDeviation="2.3426182"
         id="feGaussianBlur4276" />
    </filter>
    <clipPath
       id="clipPath3696"
       clipPathUnits="userSpaceOnUse">
      <path
         sodipodi:nodetypes="ccssscccccc"
         inkscape:connector-curvature="0"
         id="path3698"
         d="m 174.87599,37.680259 c -0.29803,0 -0.43848,0.205749 -0.43848,0.438478 l 0,96.437783 c 0,0.72049 0.59574,1.31496 1.31544,1.31543 l 41.65542,0.0275 c 0.0465,3e-5 2.87105,-0.007 3.47582,5e-5 5.73614,-3.94952 26.28054,-25.39081 34.12511,-33.285 1.29513,-1.45267 0.4013,-0.32454 1.27502,-1.40967 l 5e-5,-63.086043 c 0,-0.283009 -0.14314,-0.438478 -0.43848,-0.438478 z"
         style="opacity:0.84653476;fill:url(#radialGradient3700);fill-opacity:1" />
    </clipPath>
    <filter
       height="1.408259"
       y="-0.2041295"
       width="1.3293014"
       x="-0.16465071"
       id="filter4087-9"
       inkscape:collect="always">
      <feGaussianBlur
         id="feGaussianBlur4089-5"
         stdDeviation="4.2234282"
         inkscape:collect="always" />
    </filter>
    <filter
       id="filter4123-6"
       inkscape:collect="always">
      <feGaussianBlur
         id="feGaussianBlur4125-4"
         stdDeviation="2.028"
         inkscape:collect="always" />
    </filter>
    <linearGradient
       id="linearGradient4518-3-8">
      <stop
         id="stop4520-1-9"
         offset="0"
         style="stop-color:#eeecec;stop-opacity:1" />
      <stop
         style="stop-color:#f4f4f4;stop-opacity:1"
         offset="0.40000001"
         id="stop5969-4-2" />
      <stop
         id="stop4522-9-6"
         offset="1"
         style="stop-color:#f6f5f5;stop-opacity:1" />
    </linearGradient>
    <filter
       height="2.0255013"
       y="-0.51275069"
       width="1.9574188"
       x="-0.47870937"
       id="filter6171-8-2"
       inkscape:collect="always"
       color-interpolation-filters="sRGB">
      <feGaussianBlur
         id="feGaussianBlur6173-8-0"
         stdDeviation="10.140743"
         inkscape:collect="always" />
    </filter>
    <linearGradient
       id="linearGradient5982-7-1"
       inkscape:collect="always">
      <stop
         id="stop5984-8-4"
         offset="0"
         style="stop-color:#ffffff;stop-opacity:1;" />
      <stop
         id="stop5986-6-9"
         offset="1"
         style="stop-color:#ffffff;stop-opacity:0;" />
    </linearGradient>
    <clipPath
       id="clipPath6093-7-8"
       clipPathUnits="userSpaceOnUse">
      <path
         style="fill:#ffffff;fill-opacity:1"
         d="m 17.000001,8 0.782827,110 57.5,0 c 1.675283,0 3.119418,0.18058 4.9,-1.6 C 88.980763,107.60206 99.94047,96.548195 107.19904,89.224043 109.6396,86.761431 110,84.752873 110,82.5 L 110,8 z"
         id="path6095-4-4"
         sodipodi:nodetypes="cccssccc"
         inkscape:connector-curvature="0" />
    </clipPath>
    <linearGradient
       id="linearGradient3897-7-3">
      <stop
         id="stop3899-4-0"
         offset="0"
         style="stop-color:#fcfcfc;stop-opacity:1" />
      <stop
         style="stop-color:#f8f8f8;stop-opacity:1"
         offset="0.52275378"
         id="stop3901-5-7" />
      <stop
         id="stop3903-2-8"
         offset="0.72337759"
         style="stop-color:#f0efef;stop-opacity:1;" />
      <stop
         id="stop3905-5-6"
         offset="0.89024991"
         style="stop-color:#e3e1e1;stop-opacity:1;" />
      <stop
         id="stop3907-4-8"
         offset="1"
         style="stop-color:#cecbcb;stop-opacity:1" />
    </linearGradient>
    <filter
       id="filter3909-6-7"
       inkscape:collect="always"
       color-interpolation-filters="sRGB">
      <feGaussianBlur
         id="feGaussianBlur3911-9-4"
         stdDeviation="0.43040059"
         inkscape:collect="always" />
    </filter>
    <clipPath
       id="clipPath3889-6-5"
       clipPathUnits="userSpaceOnUse">
      <path
         style="fill:url(#linearGradient3893-3);fill-opacity:1;stroke:none"
         d="m 112,82.502986 c 0,4.465301 -2.79749,6.409952 -5.27972,8.093625 -5.10854,3.46508 -14.939114,3.32536 -20.720284,3.40638 -0.081,5.781159 0.16586,15.504599 -3.29922,20.613139 -1.68367,2.48224 -5.29051,5.38687 -8.20078,5.38687 2.31803,0 4.74284,-1.33476 7.58402,-4.08481 9.14197,-8.84873 17.36714,-16.13535 25.673154,-25.297529 C 109.67612,88.503916 112,86.97878 112,82.502986 z"
         id="path3891-5-4"
         inkscape:connector-curvature="0"
         sodipodi:nodetypes="cscscssc" />
    </clipPath>
    <linearGradient
       id="linearGradient3913-5-4"
       inkscape:collect="always">
      <stop
         id="stop3915-4-5"
         offset="0"
         style="stop-color:#ffffff;stop-opacity:1;" />
      <stop
         id="stop3917-7-2"
         offset="1"
         style="stop-color:#ffffff;stop-opacity:0;" />
    </linearGradient>
    <radialGradient
       gradientUnits="userSpaceOnUse"
       gradientTransform="matrix(1.3067347,0,0,1.3067347,-27.83617,-33.818441)"
       r="18.750002"
       fy="110.25299"
       fx="90.75"
       cy="110.25299"
       cx="90.75"
       id="radialGradient3919-5-7"
       xlink:href="#linearGradient3913-5-4"
       inkscape:collect="always" />
    <linearGradient
       y2="102.34375"
       x2="95.460213"
       y1="93.621468"
       x1="86.73793"
       gradientTransform="matrix(1.0119858,0,0,1.0119858,-0.89554075,-0.9871566)"
       gradientUnits="userSpaceOnUse"
       id="linearGradient3893-3"
       xlink:href="#linearGradient6131-4"
       inkscape:collect="always" />
    <linearGradient
       id="linearGradient6131-4">
      <stop
         style="stop-color:#fcfcfc;stop-opacity:1"
         offset="0"
         id="stop6133-7" />
      <stop
         id="stop6135-6"
         offset="0.52275378"
         style="stop-color:#f8f8f8;stop-opacity:1" />
      <stop
         style="stop-color:#f0efef;stop-opacity:1;"
         offset="0.77457333"
         id="stop6141-5" />
      <stop
         style="stop-color:#e3e1e1;stop-opacity:1;"
         offset="0.90122044"
         id="stop6139-6" />
      <stop
         style="stop-color:#cecbcb;stop-opacity:1"
         offset="1"
         id="stop6137-9" />
    </linearGradient>
    <linearGradient
       inkscape:collect="always"
       xlink:href="#linearGradient3897-7-3"
       id="linearGradient3373"
       gradientUnits="userSpaceOnUse"
       gradientTransform="matrix(1.3731411,0,0,1.4035776,-533.37943,24.526899)"
       x1="82.15696"
       y1="90.381706"
       x2="94.220871"
       y2="102.18401" />
    <radialGradient
       inkscape:collect="always"
       xlink:href="#linearGradient5982-7-1"
       id="radialGradient3405"
       gradientUnits="userSpaceOnUse"
       gradientTransform="matrix(1.7069944,-0.08541345,0.06979496,1.3941371,-542.36326,47.731904)"
       cx="64"
       cy="64.004021"
       fx="63.793392"
       fy="47.274845"
       r="47.5" />
    <linearGradient
       inkscape:collect="always"
       xlink:href="#linearGradient4518-3-8"
       id="linearGradient3408"
       gradientUnits="userSpaceOnUse"
       gradientTransform="matrix(1.013528,0,0,1.013266,-493.51425,66.642724)"
       x1="72"
       y1="0"
       x2="72"
       y2="116.40091" />
    <linearGradient
       inkscape:collect="always"
       xlink:href="#XMLID_9_"
       id="linearGradient3413"
       gradientUnits="userSpaceOnUse"
       gradientTransform="matrix(0.6024737,0,0,0.6890756,-188.17076,-522.43699)"
       x1="538.77338"
       y1="793"
       x2="538.77338"
       y2="674" />
    <linearGradient
       inkscape:collect="always"
       xlink:href="#XMLID_10_"
       id="linearGradient3415"
       gradientUnits="userSpaceOnUse"
       gradientTransform="translate(-484,-674)"
       x1="538.77338"
       y1="674"
       x2="538.77338"
       y2="678.3681" />
    <linearGradient
       inkscape:collect="always"
       xlink:href="#XMLID_11_"
       id="linearGradient3417"
       gradientUnits="userSpaceOnUse"
       gradientTransform="translate(-484,-674)"
       x1="579.72852"
       y1="732.41022"
       x2="579.72852"
       y2="736.55688" />
    <linearGradient
       inkscape:collect="always"
       xlink:href="#XMLID_12_"
       id="linearGradient3419"
       gradientUnits="userSpaceOnUse"
       gradientTransform="translate(-484,-674)"
       x1="497.81451"
       y1="732.4082"
       x2="497.81451"
       y2="736.62341" />
    <radialGradient
       inkscape:collect="always"
       xlink:href="#XMLID_13_"
       id="radialGradient3421"
       gradientUnits="userSpaceOnUse"
       gradientTransform="matrix(0.6024737,0,0,0.6890756,-188.17076,-522.43699)"
       cx="538.77252"
       cy="792.99609"
       r="121.5466" />
    <linearGradient
       inkscape:collect="always"
       xlink:href="#XMLID_14_"
       id="linearGradient3423"
       gradientUnits="userSpaceOnUse"
       gradientTransform="matrix(0.6024737,0,0,0.6890756,-188.17074,-522.43699)"
       x1="538.77338"
       y1="677.87701"
       x2="538.77338"
       y2="789.12207" />
    <radialGradient
       inkscape:collect="always"
       xlink:href="#XMLID_15_"
       id="radialGradient3425"
       gradientUnits="userSpaceOnUse"
       gradientTransform="matrix(0.6015648,0,0,0.7971009,-187.68106,-594.06594)"
       cx="538.77338"
       cy="651.10352"
       fx="538.77338"
       fy="651.10352"
       r="126.0234" />
    <linearGradient
       inkscape:collect="always"
       xlink:href="#XMLID_16_"
       id="linearGradient3427"
       gradientUnits="userSpaceOnUse"
       gradientTransform="matrix(0.6024737,0,0,0.6890756,-188.17076,-522.14757)"
       x1="538.77338"
       y1="675.48541"
       x2="538.77338"
       y2="677.06049" />
    <clipPath
       clipPathUnits="userSpaceOnUse"
       id="clipPath3431">
      <path
         inkscape:connector-curvature="0"
         sodipodi:nodetypes="cccssccc"
         id="path3433"
         d="m 184.097,52.324525 0,82.071335 34.91169,0 c 1.18559,0 2.77012,-0.395 4.95384,-2.51816 6.27726,-6.1032 22.69968,-22.04692 27.83651,-27.17009 1.72716,-1.72257 2.12374,-3.12753 2.12374,-4.70339 l -0.002,-47.679695 z"
         style="fill:#ffffff;fill-opacity:1" />
    </clipPath>
  </defs>
  <sodipodi:namedview
     id="base"
     pagecolor="#ffffff"
     bordercolor="#666666"
     borderopacity="1.0"
     inkscape:pageopacity="0.0"
     inkscape:pageshadow="2"
     inkscape:zoom="2.8284271"
     inkscape:cx="72.06185"
     inkscape:cy="26.510563"
     inkscape:document-units="px"
     inkscape:current-layer="layer1"
     width="128px"
     height="128px"
     showgrid="true"
     inkscape:grid-points="true"
     showguides="true"
     inkscape:guide-bbox="true"
     inkscape:window-width="1224"
     inkscape:window-height="757"
     inkscape:window-x="0"
     inkscape:window-y="383"
     inkscape:snap-global="false"
     inkscape:window-maximized="0"
     inkscape:snap-page="true">
    <inkscape:grid
       id="GridFromPre046Settings"
       type="xygrid"
       originx="0px"
       originy="0px"
       spacingx="5.8181px"
       spacingy="5.8181px"
       color="#0000ff"
       empcolor="#0000ff"
       opacity="0.2"
       empopacity="0.4"
       empspacing="2"
       visible="true"
       enabled="true"
       snapvisiblegridlinesonly="true" />
    <sodipodi:guide
       orientation="1,0"
       position="-68,29.325902"
       id="guide4564" />
    <sodipodi:guide
       orientation="1,0"
       position="-121.62237,135.0574"
       id="guide3859" />
    <sodipodi:guide
       orientation="0,1"
       position="38.581514,-74.688154"
       id="guide4360" />
  </sodipodi:namedview>
  <metadata
     id="metadata2611">
    <rdf:RDF>
      <cc:Work
         rdf:about="">
        <dc:format>image/svg+xml</dc:format>
        <dc:type
           rdf:resource="http://purl.org/dc/dcmitype/StillImage" />
        <dc:title></dc:title>
      </cc:Work>
    </rdf:RDF>
  </metadata>
  <g
     inkscape:label="Livello 1"
     inkscape:groupmode="layer"
     id="layer1">
    <path
       style="opacity:0.45606695;fill:#000000;fill-opacity:1;filter:url(#filter4123)"
       d="m 13.333,5.3364 0,118.3304 49.8545,-0.0668 c 2.115554,-0.003 4.528919,-1.77169 7,-4.25 0.71234,-0.71442 1.440746,-1.39395 2.15625,-2.09375 0.415612,-0.40649 0.832187,-0.81443 1.25,-1.21875 7.773958,-7.40962 26.98341,-25.122599 34.21875,-33.099999 0.42065,-0.42064 0.81207,-0.8111 1.15625,-1.1875 1.46444,-1.49766 2.76158,-2.8378 2.99375,-5.8625 L 112,75.156251 111.9972,5.3364 z"
       id="path5990"
       inkscape:connector-curvature="0"
       sodipodi:nodetypes="ccsssccccccc"
       transform="matrix(1.003095,0,0,0.98228452,-1.7655506,0.69098557)" />
    <path
       sodipodi:type="inkscape:offset"
       inkscape:radius="1.0279198"
       inkscape:original="M 13.1875 4.53125 C 12.818918 4.609246 12.529956 4.967008 12.53125 5.34375 L 12.53125 123.65625 C 12.53885 124.07954 12.920464 124.4611 13.34375 124.46875 L 62.15625 124.46875 C 63.930251 124.46875 65.829207 124.74865 68.6875 122.8125 C 68.829003 122.58432 71.218784 120.82456 70.53125 121.25 C 80.188854 112.07585 98.162197 92.41186 109.34375 81.09375 C 111.06182 79.375681 112.8125 77.674752 112.8125 73.3125 L 112.8125 5.34375 C 112.80483 4.9204809 112.42327 4.5388981 112 4.53125 L 13.34375 4.53125 C 13.29182 4.52633 13.239428 4.52633 13.1875 4.53125 z "
       style="fill:#000000;fill-opacity:1;filter:url(#filter3814)"
       id="path3314"
       d="m 13.09375,3.5 a 1.0280226,1.0280226 0 0 0 -0.125,0.03125 C 12.083764,3.7185227 11.496893,4.4391709 11.5,5.34375 l 0,118.3125 a 1.0280226,1.0280226 0 0 0 0,0.0313 c 0.01849,1.02971 0.782949,1.79389 1.8125,1.8125 a 1.0280226,1.0280226 0 0 0 0.03125,0 l 48.8125,0 c 1.665878,0 4.022349,0.23675 7.09375,-1.84375 a 1.0280226,1.0280226 0 0 0 0.28125,-0.21875 c 0.0578,-0.0515 0.139644,-0.12864 0.25,-0.21875 0.220712,-0.18022 0.516774,-0.41745 0.78125,-0.625 0.264476,-0.20755 0.495635,-0.39648 0.65625,-0.53125 0.04015,-0.0337 0.07966,-0.051 0.125,-0.0937 0.02267,-0.0214 0.04798,-0.0408 0.09375,-0.0937 0.02288,-0.0265 0.04727,-0.051 0.09375,-0.125 0.0081,-0.013 0.01807,-0.0366 0.03125,-0.0625 9.780644,-9.33282 27.440979,-28.680919 38.5,-39.875 1.71105,-1.711053 3.78125,-3.862728 3.78125,-8.5 l 0,-67.96875 a 1.0280226,1.0280226 0 0 0 0,-0.03125 C 113.82509,4.2829723 113.06085,3.5186039 112.03125,3.5 A 1.0280226,1.0280226 0 0 0 112,3.5 l -98.5625,0 c -0.03179,-0.00301 -0.06191,0.00137 -0.09375,0 -0.08491,-0.00365 -0.165226,-0.00803 -0.25,0 z"
       transform="matrix(1.003095,0,0,0.98228452,-1.7655506,0.69098557)" />
    <path
       style="fill:#ffffff;fill-opacity:1"
       d="m 11.608716,5.836076 0,116.330904 49.485099,0 c 1.680486,0 3.926459,-0.55989 7.021752,-3.56934 8.897609,-8.6509 32.175353,-31.250103 39.456483,-38.511869 2.44813,-2.441635 3.01026,-4.433083 3.01026,-6.66676 l -0.003,-67.582935 z"
       id="path34"
       sodipodi:nodetypes="cccssccc"
       inkscape:connector-curvature="0" />
    <path
       style="fill:url(#linearGradient4524-4);fill-opacity:1"
       d="m 17.07938,10.744349 c -0.340895,0 -0.501546,0.230461 -0.501546,0.491142 l 0,104.549779 c 0,0.80702 0.681425,1.474 1.504643,1.47343 l 44.496615,-0.0308 c 0.05324,-4e-5 0.812893,0.0229 1.504643,0.0308 1.783165,-0.0393 3.141667,-0.74038 4.369516,-1.56504 1.055122,-0.28588 25.815399,-23.810974 34.964739,-32.837827 1.36662,-1.348301 2.19223,-3.878226 2.19223,-4.808882 l 0,-66.81146 c 0,-0.317 -0.16372,-0.491143 -0.50156,-0.491143 z"
       id="path3967"
       inkscape:connector-curvature="0"
       sodipodi:nodetypes="ccsssccscccc" />
    <path
       sodipodi:nodetypes="ccssscccccc"
       inkscape:connector-curvature="0"
       id="path5980"
       d="m 16.87938,10.744349 c -0.340895,0 -0.501546,0.230461 -0.501546,0.491142 l 0,104.549779 c 0,0.80703 0.68144,1.46853 1.504643,1.47343 l 46.36344,0.27591 c 0.05324,3.2e-4 3.284015,-0.008 3.975766,5e-5 6.561216,-4.42387 26.757215,-26.379267 35.730127,-35.221607 0.65937,-0.724227 0.45902,-0.363513 1.45841,-1.578984 l 0,-69.498578 c 0,-0.317 -0.16372,-0.491143 -0.50156,-0.491143 z"
       style="opacity:0.84653476;fill:url(#radialGradient5988-0);fill-opacity:1" />
    <g
       transform="matrix(1.4174364,0,0,1.4174364,-249.33708,-68.330611)"
       id="g4278"
       clip-path="url(#clipPath3431)">
      <path
         style="opacity:0.67782425;fill:#0c1508;fill-opacity:0.17030568;filter:url(#filter4274)"
         d="m 207.21875,102.25 c -1.28809,0 -2.3125,0.46961 -2.3125,1.0625 l 0,0.15625 0,14.96875 -14.3125,0 c -0.93926,0 -1.78934,0.25858 -2.15625,0.65625 0,0.001 -0.1875,0.4375 -0.1875,0.4375 0,0.0311 0.0251,0.0636 0.0313,0.0937 0.007,0.0335 -0.0138,0.061 0,0.0937 -0.008,0.0173 -0.0313,0.0625 -0.0313,0.0625 0,0.12894 0.0622,0.25714 0.15625,0.375 0.0223,-0.0494 0.0313,-0.0935 0.0313,-0.0937 0.0188,-0.0205 0.0412,-0.0428 0.0625,-0.0625 0.10479,0.0964 0.23955,0.20178 0.40625,0.28125 l 30.65625,14.625 c 0.4374,0.20909 1.05611,0.34375 1.6875,0.34375 0.63199,0 1.2495,-0.13466 1.6875,-0.34375 l 30.65625,-14.625 c 0.16277,-0.0778 0.30313,-0.18832 0.4062,-0.2812 0.0198,0.0185 0.0448,0.0434 0.0625,0.0625 0.0211,0.0233 0.0445,0.0701 0.0625,0.0937 0.10372,-0.13666 0.114,-0.29269 0.0937,-0.4375 0.008,-0.0201 -0.006,-0.0422 0,-0.0625 0.009,-0.0314 0.0287,-0.062 0.0313,-0.0937 0.002,-0.0205 9.3e-4,-0.042 0,-0.0625 -0.002,-0.0506 -0.0132,-0.10578 -0.0313,-0.15625 -0.0291,-0.0829 -0.0827,-0.17042 -0.15625,-0.25 -0.0867,-0.0937 -0.20921,-0.17348 -0.34375,-0.25 -0.007,-0.004 -0.0238,0.004 -0.0313,0 -0.14554,-0.08 -0.31289,-0.16185 -0.5,-0.21875 -0.18711,-0.0569 -0.377,-0.0948 -0.59375,-0.125 -0.21671,-0.0302 -0.45314,-0.0625 -0.6875,-0.0625 l -14.3125,0 0,-14.96875 0,-0.15625 c -6e-4,-0.59289 -1.02441,-1.0625 -2.3125,-1.0625 l -28.0625,0 z"
         id="path3374"
         inkscape:connector-curvature="0" />
      <g
         id="g9589"
         transform="matrix(1,0,0,0.9756098,84.8235,110.83537)">
        <path
           inkscape:connector-curvature="0"
           id="path49"
           d="m 122.40803,-58 c -1.28808,0 -2.33578,1.198991 -2.33578,2.672235 0,0 0,35.08429 0,37.575296 -1.9966,0 -14.30936,0 -14.30936,0 -0.93925,0 -1.78271,0.638768 -2.14962,1.626902 -6.1e-4,0.0028 -0.18677,1.045336 -0.18677,1.045336 0,0.695277 0.23195,1.354033 0.65369,1.853611 l 30.66289,36.408 C 135.18048,23.70094 135.7944,24 136.42579,24 c 0.63199,0 1.24471,-0.29906 1.68271,-0.81862 l 30.6635,-36.408 c 0.65127,-0.773829 0.83503,-1.910121 0.46753,-2.898947 -0.36872,-0.989507 -1.21218,-1.62621 -2.15024,-1.62621 0,0 -12.31275,0 -14.30935,0 0,-2.491698 0,-37.575299 0,-37.575299 C 152.77933,-56.801009 151.73164,-58 150.44355,-58 l -28.03552,0 z"
           style="fill:url(#linearGradient3413)" />
        <g
           transform="matrix(0.6024737,0,0,0.6890756,103.4265,-58)"
           id="g51">
          <linearGradient
             gradientTransform="translate(-484,-674)"
             y2="678.3681"
             x2="538.77338"
             y1="674"
             x1="538.77338"
             gradientUnits="userSpaceOnUse"
             id="linearGradient9265">
            <stop
               id="stop9267"
               style="stop-color:#094422"
               offset="0" />
            <stop
               id="stop9269"
               style="stop-color:#9ED676"
               offset="1" />
          </linearGradient>
          <path
             inkscape:connector-curvature="0"
             id="path58"
             d="m 31.506,0.486 46.534,0 c 2.14,0 3.878,1.739 3.878,3.877 0,-0.312 0,-0.485 0,-0.485 C 81.917,1.74 80.178,0 78.04,0 L 31.506,0 c -2.138,0 -3.877,1.74 -3.877,3.878 0,0 0,0.173 0,0.485 0,-2.138 1.739,-3.877 3.877,-3.877 z"
             style="fill:url(#linearGradient3415)" />
          <linearGradient
             gradientTransform="translate(-484,-674)"
             y2="736.55688"
             x2="579.72852"
             y1="732.41022"
             x1="579.72852"
             gradientUnits="userSpaceOnUse"
             id="linearGradient9272">
            <stop
               id="stop9274"
               style="stop-color:#094422"
               offset="0" />
            <stop
               id="stop9276"
               style="stop-color:#9ED676"
               offset="1" />
          </linearGradient>
          <path
             inkscape:connector-curvature="0"
             id="path65"
             d="m 81.917,58.894 c 3.313,0 23.751,0 23.751,0 1.559,0 2.957,0.926 3.568,2.361 0.179,0.42 0.27,0.856 0.295,1.296 0.041,-0.597 -0.051,-1.207 -0.295,-1.781 -0.611,-1.435 -2.012,-2.359 -3.568,-2.359 0,0 -20.438,0 -23.751,0 0,0.205 0,0.368 0,0.483 z"
             style="fill:url(#linearGradient3417)" />
          <linearGradient
             gradientTransform="translate(-484,-674)"
             y2="736.62341"
             x2="497.81451"
             y1="732.4082"
             x1="497.81451"
             gradientUnits="userSpaceOnUse"
             id="linearGradient9279">
            <stop
               id="stop9281"
               style="stop-color:#094422"
               offset="0" />
            <stop
               id="stop9283"
               style="stop-color:#9ED676"
               offset="1" />
          </linearGradient>
          <path
             inkscape:connector-curvature="0"
             id="path72"
             d="m 0.309,61.256 c 0.609,-1.435 2.01,-2.362 3.568,-2.362 0,0 20.437,0 23.751,0 0,-0.115 0,-0.278 0,-0.486 -3.314,0 -23.751,0 -23.751,0 -1.559,0 -2.959,0.927 -3.568,2.361 0,0.004 -0.309,1.517 -0.309,1.517 0,0.112 0.022,0.221 0.032,0.33 0.077,-0.377 0.277,-1.358 0.277,-1.36 z"
             style="fill:url(#linearGradient3419)" />
        </g>
        <path
           inkscape:connector-curvature="0"
           id="path74"
           d="m 152.77933,-15.331057 c 1.99601,0 14.30936,0 14.30936,0 0.93925,0 1.78152,0.638086 2.14963,1.626902 0.0211,0.05788 0.0356,0.11853 0.0536,0.177093 0.18858,-0.617406 0.17954,-1.303726 -0.0536,-1.9301 -0.36811,-0.988815 -1.21218,-1.626902 -2.14963,-1.626902 0,0 -12.31335,0 -14.30936,0 0,0.8827 0,1.494606 0,1.753007 z"
           enable-background="new    "
           style="opacity:0.5;fill:#ffffff" />
        <path
           inkscape:connector-curvature="0"
           id="path76"
           d="m 103.61266,-13.703464 c 0.36691,-0.990198 1.21098,-1.627593 2.14963,-1.627593 0,0 12.31275,0 14.30935,0 0,-0.258401 0,-0.870307 0,-1.753007 -1.9966,0 -14.30935,0 -14.30935,0 -0.93925,0 -1.78272,0.638768 -2.14963,1.627594 0,0.0021 -0.18616,1.044644 -0.18616,1.044644 0,0.32041 0.0542,0.628427 0.14821,0.921285 0.0223,-0.122648 0.038,-0.212231 0.038,-0.212923 z"
           enable-background="new    "
           style="opacity:0.5;fill:#ffffff" />
        <path
           inkscape:connector-curvature="0"
           id="path78"
           d="m 167.08869,-17.084064 c 0,0 -11.96151,0 -14.89375,0 -0.32293,0 -0.585,-0.299059 -0.585,-0.668405 l 0,0.668405 c 0,0.19638 0,0.88753 0,1.084602 1.07421,0 15.47694,0 15.47694,0 0.51452,0 0.99529,-0.491312 1.42486,-0.214987 -0.32052,-0.530588 -0.84166,-0.869615 -1.42305,-0.869615 z"
           style="fill:#ffffff" />
        <path
           inkscape:connector-curvature="0"
           id="path80"
           d="m 120.65604,-17.084064 c -2.93223,0 -14.89375,0 -14.89375,0 -0.58139,0 -1.10192,0.338336 -1.42485,0.870296 0.42896,-0.275624 0.91034,0.214997 1.42485,0.214997 0,0 14.40334,0 15.47755,0 0,-0.197082 0,-0.888221 0,-1.084601 l 0,-0.668405 c 6e-4,0.368654 -0.26087,0.667713 -0.5838,0.667713 z"
           style="fill:#ffffff" />
        <path
           inkscape:connector-curvature="0"
           id="path119"
           d="m 122.40803,-56.663883 c -0.64464,0 -1.16759,0.598118 -1.16759,1.336118 0,0 0,36.414207 0,38.912106 -2.02009,0 -15.47755,0 -15.47755,0 -0.46812,0 -0.89166,0.320421 -1.07481,0.813106 -0.0627,0.168136 -0.0934,0.34592 -0.0934,0.523694 0,0.337655 0.11326,0.674608 0.32654,0.927497 l 30.6629,36.408002 c 0.2205,0.26254 0.52415,0.41069 0.84105,0.41069 0.3169,0 0.62115,-0.14815 0.84105,-0.41069 l 30.66351,-36.408002 c 0.32473,-0.38726 0.4151,-0.957815 0.23376,-1.449819 -0.18436,-0.492684 -0.60669,-0.813105 -1.07482,-0.813105 0,0 -13.45806,0 -15.47695,0 0,-2.4979 0,-38.91279 0,-38.91279 0,-0.738 -0.52355,-1.336117 -1.16759,-1.336117 l -28.03612,-6.9e-4 0,0 z"
           style="fill:url(#radialGradient3421)" />
        <path
           inkscape:connector-curvature="0"
           sodipodi:nodetypes="cccccccc"
           id="polygon134"
           d="m 150.59252,-14.872146 -0.0898,-40.844546 -28.06253,0 0,40.749133 -16.29853,0.10663 30.28411,36.188689 30.28351,-36.30854 z"
           style="fill:url(#linearGradient3423)" />
        <path
           inkscape:connector-curvature="0"
           id="path143"
           d="m 124.77873,-53.319684 c 0,5.920263 0,38.352125 0,38.352125 0,1.944861 -0.87133,2.397008 -2.33854,2.397008 0,0 -6.09532,0 -10.40653,0 5.68196,7.8164674 21.62713,28.855401 24.39276,32.660141 2.76562,-3.80474 18.45061,-24.8436736 24.13204,-32.660141 -4.31177,0 -10.05574,0 -10.05574,0 -1.46776,0 -2.33855,-0.452147 -2.33855,-2.397008 0,0 0,-32.431862 0,-38.352125 -3.76916,0 -19.61737,0 -23.38544,0 z"
           style="fill:url(#radialGradient3425)"
           sodipodi:nodetypes="cccccccccc" />
        <path
           inkscape:connector-curvature="0"
           id="path150"
           d="m 122.40803,-56.541895 c -0.60247,0 -1.10854,0.371413 -1.42424,0.902689 0.42776,-0.281143 0.89648,0.182605 1.42424,0.182605 l 28.03552,0 c 0.52776,0 0.99589,-0.463748 1.42425,-0.182605 -0.3157,-0.531276 -0.82179,-0.905798 -1.42425,-0.902689 l -28.03552,0 z"
           style="fill:url(#linearGradient3427)"
           sodipodi:nodetypes="ccsscscc" />
        <path
           inkscape:connector-curvature="0"
           id="path152"
           d="m 137.26745,21.62407 c -0.21991,0.23911 -0.52476,0.3721 -0.84166,0.3721 -0.3169,0 -0.62115,-0.13299 -0.84165,-0.3721 l -5.75302,-6.199616 5.75302,6.830806 c 0.2205,0.26185 0.52415,0.41 0.84105,0.41 0.3169,0 0.62115,-0.14815 0.84105,-0.41 l 5.75182,-6.829423 -5.75061,6.198233 z"
           style="fill:#ffffff" />
      </g>
    </g>
    <path
       style="fill:#000000"
       d=""
       id="path2197" />
    <path
       clip-path="url(#clipPath6093-7)"
       style="opacity:0.6056338;fill:#000000;fill-opacity:1;stroke:none;filter:url(#filter6171-8)"
       d="m 114.4,82.502986 c 0,4.465301 -9.3766,4.299815 -11.85883,5.983488 -5.108537,3.46508 -16.574334,-0.810699 -22.355504,-0.729679 -0.081,5.781159 0.365076,18.386735 0.365076,24.536755 0,2.97817 -3.440475,11.20945 -6.350745,11.20945 -2.091359,1.5337 3.488204,8.21101 6.734971,5.31989 9.501888,-8.46107 35.131682,-30.022701 43.350822,-39.262886 2.04044,-2.29392 -4.90514,-9.844666 -9.88579,-7.057018 z"
       id="path6153"
       inkscape:connector-curvature="0"
       sodipodi:nodetypes="cscscssc"
       transform="matrix(1.258302,0,0,1.2610357,-31.355772,-28.164007)" />
    <path
       sodipodi:nodetypes="cscscssc"
       inkscape:connector-curvature="0"
       id="path6081"
       d="m 113.9,82.502986 c 0,4.465301 -7.96273,7.457662 -10.95287,7.881439 -6.394981,0.906328 -15.304541,-0.844131 -21.085711,-0.763111 -0.081,5.781159 3.397918,20.001056 -0.06716,25.109596 -1.68367,2.48224 -3.883991,8.07209 -6.794261,8.07209 -2.091359,1.5337 3.488204,11.21101 6.734971,8.31989 9.501888,-8.46107 45.998943,-30.20138 54.218083,-39.441569 2.04044,-2.29392 -17.0724,-11.965986 -22.05305,-9.178335 z"
       style="opacity:0.64319249;fill:#000000;fill-opacity:1;stroke:none;filter:url(#filter4087)"
       clip-path="url(#clipPath6093-7)"
       transform="matrix(1.3586765,0,0,1.3616521,-42.382653,-40.155635)" />
    <path
       style="fill:url(#linearGradient3895-3);fill-opacity:1;stroke:none"
       d="m 110.63455,70.194961 c 0,6.22666 -3.89615,8.938389 -7.35324,11.28619 -7.11485,4.831902 -21.758838,3.808851 -29.810472,3.92183 -0.112812,8.061568 0.720236,21.530529 -4.105701,28.654139 -2.344905,3.46138 -6.904898,8.42993 -10.95813,8.42993 3.228399,0 6.605514,-1.86127 10.562523,-5.69609 12.732335,-12.33915 24.187814,-22.50002 35.75589,-35.27627 2.67259,-2.951702 5.90913,-5.078441 5.90913,-11.319729 z"
       id="path6011"
       inkscape:connector-curvature="0"
       sodipodi:nodetypes="cscscssc" />
    <path
       style="fill:#ffffff;fill-opacity:1;stroke:none"
       d="m 110.66063,69.760596 c -0.44065,5.437134 -4.51314,7.338042 -6.73057,8.843942 -5.25734,3.570397 -12.241076,3.279514 -34.154353,3.279514 0,19.761338 0.513212,28.553598 -3.305002,33.382518 -2.272989,2.87466 -6.824021,6.07997 -10.532933,6.90254 5.082113,0 8.629228,-1.08751 11.949253,-4.30502 0.472301,-0.5418 1.415698,-1.55003 2.15657,-2.69493 3.94064,-5.81684 3.837814,-17.294735 3.837814,-29.263474 8.051633,-0.11295 22.202451,1.162156 29.317291,-3.669742 0.64822,-0.440215 2.63774,-2.020759 3.2183,-2.58944 3.22475,-3.158721 3.92397,-5.17219 4.24363,-9.885908 z M 55.937772,122.16911 c -0.219575,0.0485 -0.436533,0.0579 -0.652846,0.087 0.218648,-0.0234 0.432367,-0.0468 0.652846,-0.087 z"
       id="path6122"
       inkscape:connector-curvature="0"
       sodipodi:nodetypes="cscsccccsscccc" />
    <path
       style="fill:none;stroke:url(#radialGradient3919-5);stroke-width:1.82707405;stroke-linecap:butt;stroke-linejoin:miter;stroke-miterlimit:4;stroke-opacity:1;stroke-dasharray:none;filter:url(#filter3909-6)"
       d="M 108.97651,89.508691 79.934895,118.21077"
       id="path3873"
       inkscape:connector-curvature="0"
       sodipodi:nodetypes="cc"
       clip-path="url(#clipPath3889-6)"
       transform="matrix(1.3927341,0,0,1.3944553,-45.351691,-44.851769)" />
    <path
       inkscape:connector-curvature="0"
       style="fill:#000000"
       d=""
       id="path2197-0" />
  </g>
</svg>
