<?xml version="1.0" encoding="UTF-8" standalone="no"?>
<!-- Created with Inkscape (http://www.inkscape.org/) -->

<svg
   xmlns:dc="http://purl.org/dc/elements/1.1/"
   xmlns:cc="http://creativecommons.org/ns#"
   xmlns:rdf="http://www.w3.org/1999/02/22-rdf-syntax-ns#"
   xmlns:svg="http://www.w3.org/2000/svg"
   xmlns="http://www.w3.org/2000/svg"
   xmlns:xlink="http://www.w3.org/1999/xlink"
   xmlns:sodipodi="http://sodipodi.sourceforge.net/DTD/sodipodi-0.dtd"
   xmlns:inkscape="http://www.inkscape.org/namespaces/inkscape"
   width="128"
   height="128"
   id="svg2606"
   sodipodi:version="0.32"
   inkscape:version="0.48.0 r9654"
   version="1.0"
   sodipodi:docname="application-pdf.svgz"
   inkscape:output_extension="org.inkscape.output.svgz.inkscape"
   inkscape:export-filename="/home/pinheiro/pics/oxygen-icons/scalable/mimetypes/small/22x22/application-pdf.png"
   inkscape:export-xdpi="61.875"
   inkscape:export-ydpi="61.875">
  <defs
     id="defs2608">
    <linearGradient
       id="linearGradient6131">
      <stop
         id="stop6133"
         offset="0"
         style="stop-color:#fcfcfc;stop-opacity:1" />
      <stop
         style="stop-color:#f8f8f8;stop-opacity:1"
         offset="0.52275378"
         id="stop6135" />
      <stop
         id="stop6141"
         offset="0.77457333"
         style="stop-color:#f0efef;stop-opacity:1;" />
      <stop
         id="stop6139"
         offset="0.90122044"
         style="stop-color:#e3e1e1;stop-opacity:1;" />
      <stop
         id="stop6137"
         offset="1"
         style="stop-color:#cecbcb;stop-opacity:1" />
    </linearGradient>
    <linearGradient
       inkscape:collect="always"
       xlink:href="#linearGradient6131"
       id="linearGradient3893"
       gradientUnits="userSpaceOnUse"
       gradientTransform="matrix(1.0119858,0,0,1.0119858,-0.89554075,-0.9871566)"
       x1="86.73793"
       y1="93.621468"
       x2="95.460213"
       y2="102.34375" />
    <radialGradient
       inkscape:collect="always"
       xlink:href="#linearGradient3913-5"
       id="radialGradient3919-5"
       cx="90.75"
       cy="110.25299"
       fx="90.75"
       fy="110.25299"
       r="18.750002"
       gradientTransform="matrix(1.3067347,0,0,1.3067347,-27.83617,-33.818441)"
       gradientUnits="userSpaceOnUse" />
    <linearGradient
       inkscape:collect="always"
       id="linearGradient3913-5">
      <stop
         style="stop-color:#ffffff;stop-opacity:1;"
         offset="0"
         id="stop3915-4" />
      <stop
         style="stop-color:#ffffff;stop-opacity:0;"
         offset="1"
         id="stop3917-7" />
    </linearGradient>
    <clipPath
       clipPathUnits="userSpaceOnUse"
       id="clipPath3889-6">
      <path
         sodipodi:nodetypes="cscscssc"
         inkscape:connector-curvature="0"
         id="path3891-5"
         d="m 112,82.502986 c 0,4.465301 -2.79749,6.409952 -5.27972,8.093625 -5.10854,3.46508 -14.939114,3.32536 -20.720284,3.40638 -0.081,5.781159 0.16586,15.504599 -3.29922,20.613139 -1.68367,2.48224 -5.29051,5.38687 -8.20078,5.38687 2.31803,0 4.74284,-1.33476 7.58402,-4.08481 9.14197,-8.84873 17.36714,-16.13535 25.673154,-25.297529 C 109.67612,88.503916 112,86.97878 112,82.502986 z"
         style="fill:url(#linearGradient3893);fill-opacity:1;stroke:none" />
    </clipPath>
    <filter
       color-interpolation-filters="sRGB"
       inkscape:collect="always"
       id="filter3909-6">
      <feGaussianBlur
         inkscape:collect="always"
         stdDeviation="0.43040059"
         id="feGaussianBlur3911-9" />
    </filter>
    <linearGradient
       inkscape:collect="always"
       xlink:href="#linearGradient3897-7"
       id="linearGradient3895-3"
       gradientUnits="userSpaceOnUse"
       gradientTransform="matrix(1.4094273,0,0,1.4111689,-46.598939,-46.228314)"
       x1="82.15696"
       y1="90.381706"
       x2="94.220871"
       y2="102.18401" />
    <linearGradient
       id="linearGradient3897-7">
      <stop
         style="stop-color:#fcfcfc;stop-opacity:1"
         offset="0"
         id="stop3899-4" />
      <stop
         id="stop3901-5"
         offset="0.52275378"
         style="stop-color:#f8f8f8;stop-opacity:1" />
      <stop
         style="stop-color:#f0efef;stop-opacity:1;"
         offset="0.72337759"
         id="stop3903-2" />
      <stop
         style="stop-color:#e3e1e1;stop-opacity:1;"
         offset="0.89024991"
         id="stop3905-5" />
      <stop
         style="stop-color:#cecbcb;stop-opacity:1"
         offset="1"
         id="stop3907-4" />
    </linearGradient>
    <clipPath
       clipPathUnits="userSpaceOnUse"
       id="clipPath6093-7">
      <path
         inkscape:connector-curvature="0"
         sodipodi:nodetypes="cccssccc"
         id="path6095-4"
         d="m 17.000001,8 0.782827,110 57.5,0 c 1.675283,0 3.119418,0.18058 4.9,-1.6 C 88.980763,107.60206 99.94047,96.548195 107.19904,89.224043 109.6396,86.761431 110,84.752873 110,82.5 L 110,8 z"
         style="fill:#ffffff;fill-opacity:1" />
    </clipPath>
    <radialGradient
       inkscape:collect="always"
       xlink:href="#linearGradient5982-7"
       id="radialGradient5988-0"
       cx="64"
       cy="64.004021"
       fx="63.793392"
       fy="47.274845"
       r="47.5"
       gradientTransform="matrix(1.689423,-0.08280186,0.06907651,1.3515102,-50.111719,-17.641619)"
       gradientUnits="userSpaceOnUse" />
    <linearGradient
       inkscape:collect="always"
       id="linearGradient5982-7">
      <stop
         style="stop-color:#ffffff;stop-opacity:1;"
         offset="0"
         id="stop5984-8" />
      <stop
         style="stop-color:#ffffff;stop-opacity:0;"
         offset="1"
         id="stop5986-6" />
    </linearGradient>
    <filter
       color-interpolation-filters="sRGB"
       inkscape:collect="always"
       id="filter6171-8"
       x="-0.47870937"
       width="1.9574188"
       y="-0.51275069"
       height="2.0255013">
      <feGaussianBlur
         inkscape:collect="always"
         stdDeviation="10.140743"
         id="feGaussianBlur6173-8" />
    </filter>
    <linearGradient
       inkscape:collect="always"
       xlink:href="#linearGradient4518-3"
       id="linearGradient4524-4"
       x1="72"
       y1="0"
       x2="72"
       y2="116.40091"
       gradientUnits="userSpaceOnUse"
       gradientTransform="matrix(1.003095,0,0,0.98228452,-1.7655502,0.69098836)" />
    <linearGradient
       id="linearGradient4518-3">
      <stop
         style="stop-color:#eeecec;stop-opacity:1"
         offset="0"
         id="stop4520-1" />
      <stop
         id="stop5969-4"
         offset="0.40000001"
         style="stop-color:#f4f4f4;stop-opacity:1" />
      <stop
         style="stop-color:#f6f5f5;stop-opacity:1"
         offset="1"
         id="stop4522-9" />
    </linearGradient>
    <filter
       inkscape:collect="always"
       id="filter4123">
      <feGaussianBlur
         inkscape:collect="always"
         stdDeviation="2.028"
         id="feGaussianBlur4125" />
    </filter>
    <filter
       inkscape:collect="always"
       id="filter4087"
       x="-0.16465071"
       width="1.3293014"
       y="-0.2041295"
       height="1.408259">
      <feGaussianBlur
         inkscape:collect="always"
         stdDeviation="4.2234282"
         id="feGaussianBlur4089" />
    </filter>
    <filter
       inkscape:collect="always"
       id="filter3814">
      <feGaussianBlur
         inkscape:collect="always"
         stdDeviation="1.8077645"
         id="feGaussianBlur3816" />
    </filter>
    <linearGradient
       inkscape:collect="always"
       xlink:href="#linearGradient6111"
       id="linearGradient2339"
       gradientUnits="userSpaceOnUse"
       x1="28.81802"
       y1="23.69491"
       x2="97.504311"
       y2="97.234016" />
    <linearGradient
       id="linearGradient6111">
      <stop
         id="stop6113"
         offset="0"
         style="stop-color:#9c0f0f;stop-opacity:1;" />
      <stop
         style="stop-color:#e81919;stop-opacity:1;"
         offset="0.5"
         id="stop7088" />
      <stop
         id="stop6115"
         offset="1"
         style="stop-color:#cd1313;stop-opacity:1;" />
    </linearGradient>
    <linearGradient
       y2="97.234016"
       x2="97.504311"
       y1="23.69491"
       x1="28.81802"
       gradientUnits="userSpaceOnUse"
       id="linearGradient3073"
       xlink:href="#linearGradient6111"
       inkscape:collect="always" />
  </defs>
  <sodipodi:namedview
     id="base"
     pagecolor="#ffffff"
     bordercolor="#666666"
     borderopacity="1.0"
     inkscape:pageopacity="0.0"
     inkscape:pageshadow="2"
     inkscape:zoom="0.99999999"
     inkscape:cx="64.828729"
     inkscape:cy="-0.1884856"
     inkscape:document-units="px"
     inkscape:current-layer="layer1"
     width="128px"
     height="128px"
     showgrid="true"
     inkscape:grid-points="true"
     showguides="true"
     inkscape:guide-bbox="true"
     inkscape:window-width="1224"
     inkscape:window-height="757"
     inkscape:window-x="0"
     inkscape:window-y="383"
     inkscape:snap-global="false"
     inkscape:window-maximized="0"
     inkscape:snap-page="true">
    <inkscape:grid
       id="GridFromPre046Settings"
       type="xygrid"
       originx="0px"
       originy="0px"
       spacingx="5.8181px"
       spacingy="5.8181px"
       color="#0000ff"
       empcolor="#0000ff"
       opacity="0.2"
       empopacity="0.4"
       empspacing="2"
       visible="true"
       enabled="true"
       snapvisiblegridlinesonly="true" />
    <sodipodi:guide
       orientation="1,0"
       position="-68,29.325902"
       id="guide4564" />
    <sodipodi:guide
       orientation="1,0"
       position="-121.62237,135.0574"
       id="guide3859" />
    <sodipodi:guide
       orientation="0,1"
       position="38.581514,-74.688154"
       id="guide4360" />
  </sodipodi:namedview>
  <metadata
     id="metadata2611">
    <rdf:RDF>
      <cc:Work
         rdf:about="">
        <dc:format>image/svg+xml</dc:format>
        <dc:type
           rdf:resource="http://purl.org/dc/dcmitype/StillImage" />
        <dc:title></dc:title>
      </cc:Work>
    </rdf:RDF>
  </metadata>
  <g
     inkscape:label="Livello 1"
     inkscape:groupmode="layer"
     id="layer1">
    <path
       style="opacity:0.45606695;fill:#000000;fill-opacity:1;filter:url(#filter4123)"
       d="m 13.333,5.3364 0,118.3304 49.8545,-0.0668 c 2.115554,-0.003 4.528919,-1.77169 7,-4.25 0.71234,-0.71442 1.440746,-1.39395 2.15625,-2.09375 0.415612,-0.40649 0.832187,-0.81443 1.25,-1.21875 7.773958,-7.40962 26.98341,-25.122599 34.21875,-33.099999 0.42065,-0.42064 0.81207,-0.8111 1.15625,-1.1875 1.46444,-1.49766 2.76158,-2.8378 2.99375,-5.8625 L 112,75.156251 111.9972,5.3364 z"
       id="path5990"
       inkscape:connector-curvature="0"
       sodipodi:nodetypes="ccsssccccccc"
       transform="matrix(1.003095,0,0,0.98228452,-1.7655506,0.69098557)" />
    <path
       sodipodi:type="inkscape:offset"
       inkscape:radius="1.0279198"
       inkscape:original="M 13.1875 4.53125 C 12.818918 4.609246 12.529956 4.967008 12.53125 5.34375 L 12.53125 123.65625 C 12.53885 124.07954 12.920464 124.4611 13.34375 124.46875 L 62.15625 124.46875 C 63.930251 124.46875 65.829207 124.74865 68.6875 122.8125 C 68.829003 122.58432 71.218784 120.82456 70.53125 121.25 C 80.188854 112.07585 98.162197 92.41186 109.34375 81.09375 C 111.06182 79.375681 112.8125 77.674752 112.8125 73.3125 L 112.8125 5.34375 C 112.80483 4.9204809 112.42327 4.5388981 112 4.53125 L 13.34375 4.53125 C 13.29182 4.52633 13.239428 4.52633 13.1875 4.53125 z "
       style="fill:#000000;fill-opacity:1;filter:url(#filter3814)"
       id="path3314"
       d="m 13.09375,3.5 a 1.0280226,1.0280226 0 0 0 -0.125,0.03125 C 12.083764,3.7185227 11.496893,4.4391709 11.5,5.34375 l 0,118.3125 a 1.0280226,1.0280226 0 0 0 0,0.0313 c 0.01849,1.02971 0.782949,1.79389 1.8125,1.8125 a 1.0280226,1.0280226 0 0 0 0.03125,0 l 48.8125,0 c 1.665878,0 4.022349,0.23675 7.09375,-1.84375 a 1.0280226,1.0280226 0 0 0 0.28125,-0.21875 c 0.0578,-0.0515 0.139644,-0.12864 0.25,-0.21875 0.220712,-0.18022 0.516774,-0.41745 0.78125,-0.625 0.264476,-0.20755 0.495635,-0.39648 0.65625,-0.53125 0.04015,-0.0337 0.07966,-0.051 0.125,-0.0937 0.02267,-0.0214 0.04798,-0.0408 0.09375,-0.0937 0.02288,-0.0265 0.04727,-0.051 0.09375,-0.125 0.0081,-0.013 0.01807,-0.0366 0.03125,-0.0625 9.780644,-9.33282 27.440979,-28.680919 38.5,-39.875 1.71105,-1.711053 3.78125,-3.862728 3.78125,-8.5 l 0,-67.96875 a 1.0280226,1.0280226 0 0 0 0,-0.03125 C 113.82509,4.2829723 113.06085,3.5186039 112.03125,3.5 A 1.0280226,1.0280226 0 0 0 112,3.5 l -98.5625,0 c -0.03179,-0.00301 -0.06191,0.00137 -0.09375,0 -0.08491,-0.00365 -0.165226,-0.00803 -0.25,0 z"
       transform="matrix(1.003095,0,0,0.98228452,-1.7655506,0.69098557)" />
    <path
       style="fill:#ffffff;fill-opacity:1"
       d="m 11.608716,5.836076 0,116.330904 49.485099,0 c 1.680486,0 3.926459,-0.55989 7.021752,-3.56934 8.897609,-8.6509 32.175353,-31.250103 39.456483,-38.511869 2.44813,-2.441635 3.01026,-4.433083 3.01026,-6.66676 l -0.003,-67.582935 z"
       id="path34"
       sodipodi:nodetypes="cccssccc"
       inkscape:connector-curvature="0" />
    <path
       style="fill:url(#linearGradient4524-4);fill-opacity:1"
       d="m 17.07938,10.744349 c -0.340895,0 -0.501546,0.230461 -0.501546,0.491142 l 0,104.549779 c 0,0.80702 0.681425,1.474 1.504643,1.47343 l 44.496615,-0.0308 c 0.05324,-4e-5 0.812893,0.0229 1.504643,0.0308 1.783165,-0.0393 3.141667,-0.74038 4.369516,-1.56504 1.055122,-0.28588 25.815399,-23.810974 34.964739,-32.837827 1.36662,-1.348301 2.19223,-3.878226 2.19223,-4.808882 l 0,-66.81146 c 0,-0.317 -0.16372,-0.491143 -0.50156,-0.491143 z"
       id="path3967"
       inkscape:connector-curvature="0"
       sodipodi:nodetypes="ccsssccscccc" />
    <path
       sodipodi:nodetypes="ccssscccccc"
       inkscape:connector-curvature="0"
       id="path5980"
       d="m 17.07938,10.744349 c -0.340895,0 -0.501546,0.230461 -0.501546,0.491142 l 0,104.549779 c 0,0.80703 0.68144,1.46853 1.504643,1.47343 l 46.36344,0.27591 c 0.05324,3.2e-4 3.284015,-0.008 3.975766,5e-5 6.561216,-4.42387 26.757215,-26.379267 35.730127,-35.221607 0.65937,-0.724227 0.45902,-0.363513 1.45841,-1.578984 l 0,-69.498578 c 0,-0.317 -0.16372,-0.491143 -0.50156,-0.491143 z"
       style="opacity:0.84653476;fill:url(#radialGradient5988-0);fill-opacity:1" />
    <path
       style="fill:#000000"
       d=""
       id="path2197" />
    <g
       id="g20331"
       transform="matrix(1.0848214,0,0,1.0848214,-11.687501,-5.4285794)">
      <path
         inkscape:connector-curvature="0"
         id="path1937"
         d="M 55.735583,7.9999999 C 54.530186,16.482889 63.878122,27.5525 77.863478,37.975649 73.731116,54.141797 66.661633,72.39311 59.065975,87.542186 l -0.03202,0.03185 C 38.152199,98.238217 24.17334,109.2739 28.93233,116.59404 c 1.147579,1.76514 2.566014,2.60362 4.130967,2.70769 -10.951886,-6.66511 12.348302,-16.40898 19.469986,-20.164284 l 0.160115,0.19113 c -7.254596,12.183504 -14.446765,20.317804 -19.630101,19.973154 7.45883,3.6448 17.743325,-7.36221 27.155507,-24.082464 C 75.316343,87.766783 94.015533,79.560726 112,72.570289 c 0,-2.327193 0,-3.693578 0,-6.434731 C 96.290242,71.206068 79.932888,77.555791 65.822829,84.261111 72.328645,70.627892 78.013468,54.945445 81.482078,40.587768 90.554087,46.928532 101.16759,52.905673 112,57.789522 c 0,-4.529014 0,-4.833372 0,-9.49282 -10.17084,-5.148549 -20.150267,-10.926415 -28.628565,-16.723928 1.6493,-9.16072 2.18264,-17.350311 1.152828,-23.5727741 -1.308829,0 -1.786051,0 -3.170277,0 0.744743,5.5567931 0.13919,12.8647821 -1.473058,21.1199321 C 69.266597,21.463312 61.620886,13.953594 59.930597,7.9999999 c -2.019659,0 -2.237709,0 -4.195014,0 z"
         style="opacity:0.06557378;fill:#2e3436" />
      <path
         inkscape:connector-curvature="0"
         sodipodi:nodetypes="csccsccsccccccccccccccccccccccccccccccccccccccccscccccc"
         id="path3342"
         d="m 47.483879,12.004963 c -1.354759,0.0509 -2.803708,0.426652 -4.394665,1.133007 -14.219073,6.313001 -3.744069,20.798078 14.374216,34.051437 0.109974,-2.541875 0.176431,-5.02387 0.152593,-7.410475 C 42.157545,28.787347 33.109868,18.086941 42.96714,13.842272 c 10.385952,-4.4723286 14.471602,8.193503 14.648883,25.93666 0.966875,0.687491 1.945674,1.363119 2.960294,2.051661 C 60.197205,25.674724 56.788888,13.008032 48.826693,12.066207 48.4022,12.015994 47.935465,11.987996 47.483879,12.004963 z m 13.092438,29.82563 -1.85477,-3.047151 -2.351742,2.108616 -0.493746,3.205629 3.106458,6.076352 1.563282,-0.779863 c 10.432955,7.216864 22.88717,13.863789 34.577466,18.434322 l 3.466981,2.09528 6.566114,0.518762 3.61965,-1.688878 1.18201,-2.906734 -5.89284,-0.835636 C 90.0999,59.397682 73.537405,50.626192 60.576317,41.830593 z m 43.488863,23.180699 c 1.81916,0.731244 3.62523,1.403429 5.34074,2.021039 0.87989,-0.329401 1.74433,-0.677519 2.59408,-0.979897 0,-1.213387 0,-1.705464 0,-3.000937 -2.5073,0.524613 -5.15842,1.170468 -7.93482,1.959795 z m 5.34074,2.021039 c -2.53338,0.948418 -5.19858,1.970363 -7.9348,3.123423 3.68506,1.218425 7.22283,2.161711 10.52888,2.817205 0,-1.62583 0,-3.108706 0,-5.052596 -0.84345,-0.275465 -1.69621,-0.564786 -2.59408,-0.888032 z m -7.9348,3.123423 C 99.383258,69.465437 97.283253,68.672987 95.123265,67.828498 81.896136,72.403184 67.410695,78.987993 55.63232,86.017845 l -3.41144,0.701198 -2.632608,4.889126 -3.535318,4.786813 3.98807,4.129378 3.119297,-5.319977 C 66.949424,86.619469 85.564528,76.858891 101.47112,70.155754 z M 53.160321,95.204383 c -1.684893,1.048986 -3.296917,2.087675 -4.821924,3.092801 -3.535927,10.419576 -7.659959,17.410076 -11.597032,17.117586 6.081485,3.05721 12.007045,-6.18569 16.418956,-20.210387 z M 36.741365,115.41477 c -9.281834,-5.68326 7.203959,-14.08866 11.597032,-17.117586 0.995852,-2.93453 1.923379,-6.125491 2.807702,-9.523378 -13.847754,8.950161 -22.531211,18.231054 -17.883843,24.374944 1.119956,1.48058 2.30423,2.17873 3.479109,2.26602 z M 51.146099,88.773806 c 1.437955,-0.929385 2.945158,-1.836188 4.486221,-2.755961 2.731909,-11.435346 4.541681,-24.580654 4.913479,-36.623669 -1.050304,-0.726535 -2.076538,-1.469018 -3.082369,-2.204769 -0.586629,13.559934 -3.010267,28.877572 -6.317331,41.584399 z"
         style="fill:url(#linearGradient3073);fill-opacity:1" />
    </g>
    <path
       clip-path="url(#clipPath6093-7)"
       style="opacity:0.6056338;fill:#000000;fill-opacity:1;stroke:none;filter:url(#filter6171-8)"
       d="m 114.4,82.502986 c 0,4.465301 -9.3766,4.299815 -11.85883,5.983488 -5.108537,3.46508 -16.574334,-0.810699 -22.355504,-0.729679 -0.081,5.781159 0.365076,18.386735 0.365076,24.536755 0,2.97817 -3.440475,11.20945 -6.350745,11.20945 -2.091359,1.5337 3.488204,8.21101 6.734971,5.31989 9.501888,-8.46107 35.131682,-30.022701 43.350822,-39.262886 2.04044,-2.29392 -4.90514,-9.844666 -9.88579,-7.057018 z"
       id="path6153"
       inkscape:connector-curvature="0"
       sodipodi:nodetypes="cscscssc"
       transform="matrix(1.258302,0,0,1.2610357,-31.355772,-28.164007)" />
    <path
       sodipodi:nodetypes="cscscssc"
       inkscape:connector-curvature="0"
       id="path6081"
       d="m 113.9,82.502986 c 0,4.465301 -7.96273,7.457662 -10.95287,7.881439 -6.394981,0.906328 -15.304541,-0.844131 -21.085711,-0.763111 -0.081,5.781159 3.397918,20.001056 -0.06716,25.109596 -1.68367,2.48224 -3.883991,8.07209 -6.794261,8.07209 -2.091359,1.5337 3.488204,11.21101 6.734971,8.31989 9.501888,-8.46107 45.998943,-30.20138 54.218083,-39.441569 2.04044,-2.29392 -17.0724,-11.965986 -22.05305,-9.178335 z"
       style="opacity:0.64319249;fill:#000000;fill-opacity:1;stroke:none;filter:url(#filter4087)"
       clip-path="url(#clipPath6093-7)"
       transform="matrix(1.3586765,0,0,1.3616521,-42.382653,-40.155635)" />
    <path
       style="fill:url(#linearGradient3895-3);fill-opacity:1;stroke:none"
       d="m 110.63455,70.194961 c 0,6.22666 -3.89615,8.938389 -7.35324,11.28619 -7.11485,4.831902 -21.758838,3.808851 -29.810472,3.92183 -0.112812,8.061568 0.720236,21.530529 -4.105701,28.654139 -2.344905,3.46138 -6.904898,8.42993 -10.95813,8.42993 3.228399,0 6.605514,-1.86127 10.562523,-5.69609 12.732335,-12.33915 24.187814,-22.50002 35.75589,-35.27627 2.67259,-2.951702 5.90913,-5.078441 5.90913,-11.319729 z"
       id="path6011"
       inkscape:connector-curvature="0"
       sodipodi:nodetypes="cscscssc" />
    <path
       style="fill:#ffffff;fill-opacity:1;stroke:none"
       d="m 110.66063,69.760596 c -0.44065,5.437134 -4.51314,7.338042 -6.73057,8.843942 -5.25734,3.570397 -12.241076,3.279514 -34.154353,3.279514 0,19.761338 0.513212,28.553598 -3.305002,33.382518 -2.272989,2.87466 -6.824021,6.07997 -10.532933,6.90254 5.082113,0 8.629228,-1.08751 11.949253,-4.30502 0.472301,-0.5418 1.415698,-1.55003 2.15657,-2.69493 3.94064,-5.81684 3.837814,-17.294735 3.837814,-29.263474 8.051633,-0.11295 22.202451,1.162156 29.317291,-3.669742 0.64822,-0.440215 2.63774,-2.020759 3.2183,-2.58944 3.22475,-3.158721 3.92397,-5.17219 4.24363,-9.885908 z M 55.937772,122.16911 c -0.219575,0.0485 -0.436533,0.0579 -0.652846,0.087 0.218648,-0.0234 0.432367,-0.0468 0.652846,-0.087 z"
       id="path6122"
       inkscape:connector-curvature="0"
       sodipodi:nodetypes="cscsccccsscccc" />
    <path
       style="fill:none;stroke:url(#radialGradient3919-5);stroke-width:1.82707405;stroke-linecap:butt;stroke-linejoin:miter;stroke-miterlimit:4;stroke-opacity:1;stroke-dasharray:none;filter:url(#filter3909-6)"
       d="M 108.97651,89.508691 79.934895,118.21077"
       id="path3873"
       inkscape:connector-curvature="0"
       sodipodi:nodetypes="cc"
       clip-path="url(#clipPath3889-6)"
       transform="matrix(1.3927341,0,0,1.3944553,-45.351691,-44.851769)" />
  </g>
</svg>
