<?xml version="1.0" encoding="UTF-8" standalone="no"?>
<!-- Created with Inkscape (http://www.inkscape.org/) -->

<svg
   xmlns:dc="http://purl.org/dc/elements/1.1/"
   xmlns:cc="http://creativecommons.org/ns#"
   xmlns:rdf="http://www.w3.org/1999/02/22-rdf-syntax-ns#"
   xmlns:svg="http://www.w3.org/2000/svg"
   xmlns="http://www.w3.org/2000/svg"
   xmlns:xlink="http://www.w3.org/1999/xlink"
   xmlns:sodipodi="http://sodipodi.sourceforge.net/DTD/sodipodi-0.dtd"
   xmlns:inkscape="http://www.inkscape.org/namespaces/inkscape"
   width="128"
   height="128"
   id="svg2606"
   sodipodi:version="0.32"
   inkscape:version="0.48.0 r9654"
   version="1.0"
   sodipodi:docname="application-x-quattropro.svgz"
   inkscape:output_extension="org.inkscape.output.svgz.inkscape"
   inkscape:export-filename="/home/pinheiro/pics/oxygen-icons/scalable/mimetypes/small/22x22/x-office-document.png"
   inkscape:export-xdpi="61.875"
   inkscape:export-ydpi="61.875">
  <defs
     id="defs2608">
    <linearGradient
       id="linearGradient6131">
      <stop
         id="stop6133"
         offset="0"
         style="stop-color:#fcfcfc;stop-opacity:1" />
      <stop
         style="stop-color:#f8f8f8;stop-opacity:1"
         offset="0.52275378"
         id="stop6135" />
      <stop
         id="stop6141"
         offset="0.77457333"
         style="stop-color:#f0efef;stop-opacity:1;" />
      <stop
         id="stop6139"
         offset="0.90122044"
         style="stop-color:#e3e1e1;stop-opacity:1;" />
      <stop
         id="stop6137"
         offset="1"
         style="stop-color:#cecbcb;stop-opacity:1" />
    </linearGradient>
    <linearGradient
       inkscape:collect="always"
       xlink:href="#linearGradient6131"
       id="linearGradient3893"
       gradientUnits="userSpaceOnUse"
       gradientTransform="matrix(1.0119858,0,0,1.0119858,-0.89554075,-0.9871566)"
       x1="86.73793"
       y1="93.621468"
       x2="95.460213"
       y2="102.34375" />
    <radialGradient
       inkscape:collect="always"
       xlink:href="#linearGradient3913-5"
       id="radialGradient3919-5"
       cx="90.75"
       cy="110.25299"
       fx="90.75"
       fy="110.25299"
       r="18.750002"
       gradientTransform="matrix(1.3067347,0,0,1.3067347,-27.83617,-33.818441)"
       gradientUnits="userSpaceOnUse" />
    <linearGradient
       inkscape:collect="always"
       id="linearGradient3913-5">
      <stop
         style="stop-color:#ffffff;stop-opacity:1;"
         offset="0"
         id="stop3915-4" />
      <stop
         style="stop-color:#ffffff;stop-opacity:0;"
         offset="1"
         id="stop3917-7" />
    </linearGradient>
    <clipPath
       clipPathUnits="userSpaceOnUse"
       id="clipPath3889-6">
      <path
         sodipodi:nodetypes="cscscssc"
         inkscape:connector-curvature="0"
         id="path3891-5"
         d="m 112,82.502986 c 0,4.465301 -2.79749,6.409952 -5.27972,8.093625 -5.10854,3.46508 -14.939114,3.32536 -20.720284,3.40638 -0.081,5.781159 0.16586,15.504599 -3.29922,20.613139 -1.68367,2.48224 -5.29051,5.38687 -8.20078,5.38687 2.31803,0 4.74284,-1.33476 7.58402,-4.08481 9.14197,-8.84873 17.36714,-16.13535 25.673154,-25.297529 C 109.67612,88.503916 112,86.97878 112,82.502986 z"
         style="fill:url(#linearGradient3893);fill-opacity:1;stroke:none" />
    </clipPath>
    <filter
       color-interpolation-filters="sRGB"
       inkscape:collect="always"
       id="filter3909-6">
      <feGaussianBlur
         inkscape:collect="always"
         stdDeviation="0.43040059"
         id="feGaussianBlur3911-9" />
    </filter>
    <linearGradient
       inkscape:collect="always"
       xlink:href="#linearGradient3897-7"
       id="linearGradient3895-3"
       gradientUnits="userSpaceOnUse"
       gradientTransform="matrix(1.4094273,0,0,1.4111689,-46.598939,-46.228314)"
       x1="82.15696"
       y1="90.381706"
       x2="94.220871"
       y2="102.18401" />
    <linearGradient
       id="linearGradient3897-7">
      <stop
         style="stop-color:#fcfcfc;stop-opacity:1"
         offset="0"
         id="stop3899-4" />
      <stop
         id="stop3901-5"
         offset="0.52275378"
         style="stop-color:#f8f8f8;stop-opacity:1" />
      <stop
         style="stop-color:#f0efef;stop-opacity:1;"
         offset="0.72337759"
         id="stop3903-2" />
      <stop
         style="stop-color:#e3e1e1;stop-opacity:1;"
         offset="0.89024991"
         id="stop3905-5" />
      <stop
         style="stop-color:#cecbcb;stop-opacity:1"
         offset="1"
         id="stop3907-4" />
    </linearGradient>
    <clipPath
       clipPathUnits="userSpaceOnUse"
       id="clipPath6093-7">
      <path
         inkscape:connector-curvature="0"
         sodipodi:nodetypes="cccssccc"
         id="path6095-4"
         d="m 17.000001,8 0.782827,110 57.5,0 c 1.675283,0 3.119418,0.18058 4.9,-1.6 C 88.980763,107.60206 99.94047,96.548195 107.19904,89.224043 109.6396,86.761431 110,84.752873 110,82.5 L 110,8 z"
         style="fill:#ffffff;fill-opacity:1" />
    </clipPath>
    <radialGradient
       inkscape:collect="always"
       xlink:href="#linearGradient5982-7"
       id="radialGradient5988-0"
       cx="64"
       cy="64.004021"
       fx="63.793392"
       fy="47.274845"
       r="47.5"
       gradientTransform="matrix(1.689423,-0.08280186,0.06907651,1.3515102,-50.111719,-17.641619)"
       gradientUnits="userSpaceOnUse" />
    <linearGradient
       inkscape:collect="always"
       id="linearGradient5982-7">
      <stop
         style="stop-color:#ffffff;stop-opacity:1;"
         offset="0"
         id="stop5984-8" />
      <stop
         style="stop-color:#ffffff;stop-opacity:0;"
         offset="1"
         id="stop5986-6" />
    </linearGradient>
    <filter
       color-interpolation-filters="sRGB"
       inkscape:collect="always"
       id="filter6171-8"
       x="-0.47870937"
       width="1.9574188"
       y="-0.51275069"
       height="2.0255013">
      <feGaussianBlur
         inkscape:collect="always"
         stdDeviation="10.140743"
         id="feGaussianBlur6173-8" />
    </filter>
    <linearGradient
       inkscape:collect="always"
       xlink:href="#linearGradient4518-3"
       id="linearGradient4524-4"
       x1="72"
       y1="0"
       x2="72"
       y2="116.40091"
       gradientUnits="userSpaceOnUse"
       gradientTransform="matrix(1.003095,0,0,0.98228452,-1.7655502,0.69098836)" />
    <linearGradient
       id="linearGradient4518-3">
      <stop
         style="stop-color:#eeecec;stop-opacity:1"
         offset="0"
         id="stop4520-1" />
      <stop
         id="stop5969-4"
         offset="0.40000001"
         style="stop-color:#f4f4f4;stop-opacity:1" />
      <stop
         style="stop-color:#f6f5f5;stop-opacity:1"
         offset="1"
         id="stop4522-9" />
    </linearGradient>
    <filter
       inkscape:collect="always"
       id="filter4123">
      <feGaussianBlur
         inkscape:collect="always"
         stdDeviation="2.028"
         id="feGaussianBlur4125" />
    </filter>
    <filter
       inkscape:collect="always"
       id="filter4087"
       x="-0.16465071"
       width="1.3293014"
       y="-0.2041295"
       height="1.408259">
      <feGaussianBlur
         inkscape:collect="always"
         stdDeviation="4.2234282"
         id="feGaussianBlur4089" />
    </filter>
    <filter
       inkscape:collect="always"
       id="filter3814">
      <feGaussianBlur
         inkscape:collect="always"
         stdDeviation="1.8077645"
         id="feGaussianBlur3816" />
    </filter>
    <linearGradient
       gradientUnits="userSpaceOnUse"
       y2="70"
       x2="48"
       y1="70"
       x1="28"
       id="linearGradient4538"
       xlink:href="#XMLID_40_"
       inkscape:collect="always" />
    <linearGradient
       y2="24.4585"
       x2="16"
       y1="24.4585"
       x1="28"
       gradientUnits="userSpaceOnUse"
       id="XMLID_42_">
      <stop
         id="stop83"
         style="stop-color:#80b3ff;stop-opacity:1;"
         offset="0" />
      <stop
         id="stop85"
         style="stop-color:#BFD9FF"
         offset="1" />
    </linearGradient>
    <linearGradient
       y2="68.208"
       x2="16"
       y1="68.208"
       x1="28"
       gradientUnits="userSpaceOnUse"
       id="XMLID_41_">
      <stop
         id="stop76"
         style="stop-color:#E0E0E0"
         offset="0" />
      <stop
         id="stop78"
         style="stop-color:#D4D4D4"
         offset="1" />
    </linearGradient>
    <linearGradient
       y2="20"
       x2="68.209"
       y1="12"
       x1="68.209"
       gradientUnits="userSpaceOnUse"
       id="XMLID_40_">
      <stop
         id="stop69"
         style="stop-color:#E0E0E0"
         offset="0" />
      <stop
         id="stop71"
         style="stop-color:#D4D4D4"
         offset="1" />
    </linearGradient>
    <linearGradient
       y2="20"
       x2="60.125"
       y1="12"
       x1="60.125"
       gradientUnits="userSpaceOnUse"
       id="XMLID_39_">
      <stop
         id="stop62"
         style="stop-color:#7db1ff;stop-opacity:1;"
         offset="0" />
      <stop
         id="stop64"
         style="stop-color:#BFD9FF"
         offset="1" />
    </linearGradient>
    <filter
       inkscape:label="filter4"
       id="filter4460"
       color-interpolation-filters="sRGB">
      <feBlend
         mode="multiply"
         in2="SourceGraphic"
         id="feBlend4462"
         blend="normal" />
    </filter>
    <linearGradient
       gradientTransform="translate(-143,-64)"
       y2="76.900497"
       x2="151.9005"
       y1="79.100601"
       x1="154.1006"
       gradientUnits="userSpaceOnUse"
       id="XMLID_68_-7">
      <stop
         id="stop291-6"
         style="stop-color:#eaeaea;stop-opacity:1;"
         offset="0" />
      <stop
         id="stop293-56"
         style="stop-color:#616161"
         offset="1" />
    </linearGradient>
    <linearGradient
       gradientTransform="translate(-143,-64)"
       y2="76.444199"
       x2="153"
       y1="79.556602"
       x1="153"
       gradientUnits="userSpaceOnUse"
       id="XMLID_67_-5">
      <stop
         id="stop284-5"
         style="stop-color:#FFFFFF"
         offset="0" />
      <stop
         id="stop286-4"
         style="stop-color:#DDDDDD"
         offset="1" />
    </linearGradient>
    <linearGradient
       id="linearGradient4518-3-8">
      <stop
         id="stop4520-1-9"
         offset="0"
         style="stop-color:#eeecec;stop-opacity:1" />
      <stop
         style="stop-color:#f4f4f4;stop-opacity:1"
         offset="0.40000001"
         id="stop5969-4-2" />
      <stop
         id="stop4522-9-6"
         offset="1"
         style="stop-color:#f6f5f5;stop-opacity:1" />
    </linearGradient>
    <clipPath
       id="clipPath6093-7-8"
       clipPathUnits="userSpaceOnUse">
      <path
         style="fill:#ffffff;fill-opacity:1"
         d="m 17.000001,8 0.782827,110 57.5,0 c 1.675283,0 3.119418,0.18058 4.9,-1.6 C 88.980763,107.60206 99.94047,96.548195 107.19904,89.224043 109.6396,86.761431 110,84.752873 110,82.5 L 110,8 z"
         id="path6095-4-4"
         sodipodi:nodetypes="cccssccc"
         inkscape:connector-curvature="0" />
    </clipPath>
    <linearGradient
       id="linearGradient3897-7-3">
      <stop
         id="stop3899-4-0"
         offset="0"
         style="stop-color:#fcfcfc;stop-opacity:1" />
      <stop
         style="stop-color:#f8f8f8;stop-opacity:1"
         offset="0.52275378"
         id="stop3901-5-7" />
      <stop
         id="stop3903-2-8"
         offset="0.72337759"
         style="stop-color:#f0efef;stop-opacity:1;" />
      <stop
         id="stop3905-5-6"
         offset="0.89024991"
         style="stop-color:#e3e1e1;stop-opacity:1;" />
      <stop
         id="stop3907-4-8"
         offset="1"
         style="stop-color:#cecbcb;stop-opacity:1" />
    </linearGradient>
    <clipPath
       id="clipPath3889-6-5"
       clipPathUnits="userSpaceOnUse">
      <path
         style="fill:url(#linearGradient3893-3);fill-opacity:1;stroke:none"
         d="m 112,82.502986 c 0,4.465301 -2.79749,6.409952 -5.27972,8.093625 -5.10854,3.46508 -14.939114,3.32536 -20.720284,3.40638 -0.081,5.781159 0.16586,15.504599 -3.29922,20.613139 -1.68367,2.48224 -5.29051,5.38687 -8.20078,5.38687 2.31803,0 4.74284,-1.33476 7.58402,-4.08481 9.14197,-8.84873 17.36714,-16.13535 25.673154,-25.297529 C 109.67612,88.503916 112,86.97878 112,82.502986 z"
         id="path3891-5-4"
         inkscape:connector-curvature="0"
         sodipodi:nodetypes="cscscssc" />
    </clipPath>
    <linearGradient
       id="linearGradient3913-5-4"
       inkscape:collect="always">
      <stop
         id="stop3915-4-5"
         offset="0"
         style="stop-color:#ffffff;stop-opacity:1;" />
      <stop
         id="stop3917-7-2"
         offset="1"
         style="stop-color:#ffffff;stop-opacity:0;" />
    </linearGradient>
    <radialGradient
       gradientUnits="userSpaceOnUse"
       gradientTransform="matrix(1.3067347,0,0,1.3067347,-27.83617,-33.818441)"
       r="18.750002"
       fy="110.25299"
       fx="90.75"
       cy="110.25299"
       cx="90.75"
       id="radialGradient3919-5-7"
       xlink:href="#linearGradient3913-5-4"
       inkscape:collect="always" />
    <linearGradient
       y2="102.34375"
       x2="95.460213"
       y1="93.621468"
       x1="86.73793"
       gradientTransform="matrix(1.0119858,0,0,1.0119858,-0.89554075,-0.9871566)"
       gradientUnits="userSpaceOnUse"
       id="linearGradient3893-3"
       xlink:href="#linearGradient6131-4"
       inkscape:collect="always" />
    <linearGradient
       id="linearGradient6131-4">
      <stop
         style="stop-color:#fcfcfc;stop-opacity:1"
         offset="0"
         id="stop6133-7" />
      <stop
         id="stop6135-6"
         offset="0.52275378"
         style="stop-color:#f8f8f8;stop-opacity:1" />
      <stop
         style="stop-color:#f0efef;stop-opacity:1;"
         offset="0.77457333"
         id="stop6141-5" />
      <stop
         style="stop-color:#e3e1e1;stop-opacity:1;"
         offset="0.90122044"
         id="stop6139-6" />
      <stop
         style="stop-color:#cecbcb;stop-opacity:1"
         offset="1"
         id="stop6137-9" />
    </linearGradient>
    <linearGradient
       id="linearGradient4656"
       inkscape:collect="always">
      <stop
         id="stop4658"
         offset="0"
         style="stop-color:#c8c8c8;stop-opacity:1;" />
      <stop
         id="stop4660"
         offset="1"
         style="stop-color:#c8c8c8;stop-opacity:0;" />
    </linearGradient>
    <linearGradient
       id="linearGradient4664"
       inkscape:collect="always">
      <stop
         id="stop4666"
         offset="0"
         style="stop-color:#c8c8c8;stop-opacity:1;" />
      <stop
         id="stop4668"
         offset="1"
         style="stop-color:#c8c8c8;stop-opacity:0;" />
    </linearGradient>
    <linearGradient
       inkscape:collect="always"
       xlink:href="#linearGradient4656"
       id="linearGradient3443"
       gradientUnits="userSpaceOnUse"
       x1="48"
       y1="112"
       x2="48"
       y2="124"
       gradientTransform="matrix(1.4776128,0,0,1,-123.19596,-8.3619979)" />
    <linearGradient
       inkscape:collect="always"
       xlink:href="#linearGradient4664"
       id="linearGradient3452"
       gradientUnits="userSpaceOnUse"
       gradientTransform="matrix(1.4776127,0,0,1,-6.4645562,-8.362)"
       x1="28"
       y1="112"
       x2="28"
       y2="124" />
    <linearGradient
       inkscape:collect="always"
       xlink:href="#XMLID_40_"
       id="linearGradient3455"
       gradientUnits="userSpaceOnUse"
       gradientTransform="matrix(1.16362,0,0,1.1483092,-3.4908602,-19.289796)"
       x1="28"
       y1="70"
       x2="48"
       y2="70" />
    <linearGradient
       inkscape:collect="always"
       xlink:href="#linearGradient4108-2-7"
       id="linearGradient5238"
       gradientUnits="userSpaceOnUse"
       gradientTransform="matrix(-6.2656287e-8,1.0483062,-1.4334087,-4.5822925e-8,77.604799,-65.760837)"
       x1="173.99409"
       y1="38.901901"
       x2="173.99409"
       y2="35.901901" />
    <linearGradient
       gradientTransform="matrix(-4.371139e-8,1,-1,-4.371139e-8,42,-70.0005)"
       y2="29.9995"
       x2="86"
       y1="31.9995"
       x1="86"
       gradientUnits="userSpaceOnUse"
       id="linearGradient4108-2-7">
      <stop
         id="stop4110-0-6"
         style="stop-color:#4E3E27;fill-opacity:1.0;fill:url(#linearGradient20836)"
         offset="0" />
      <stop
         id="stop4112-6-1"
         style="stop-color:#816840;fill-opacity:1.0;fill:url(#linearGradient20836)"
         offset="1" />
    </linearGradient>
    <linearGradient
       inkscape:collect="always"
       xlink:href="#linearGradient4108-2-7"
       id="linearGradient5240"
       gradientUnits="userSpaceOnUse"
       gradientTransform="matrix(-6.2656287e-8,1.0483062,-1.4334087,-4.5822925e-8,77.604799,-66.361244)"
       x1="154.08009"
       y1="38.964401"
       x2="154.08009"
       y2="35.964401" />
    <linearGradient
       gradientTransform="matrix(-4.371139e-8,1,-1,-4.371139e-8,42,-70.0005)"
       y2="29.9995"
       x2="86"
       y1="31.9995"
       x1="86"
       gradientUnits="userSpaceOnUse"
       id="linearGradient3411">
      <stop
         id="stop3413"
         style="stop-color:#4E3E27;fill-opacity:1.0;fill:url(#linearGradient20836)"
         offset="0" />
      <stop
         id="stop3415"
         style="stop-color:#816840;fill-opacity:1.0;fill:url(#linearGradient20836)"
         offset="1" />
    </linearGradient>
    <linearGradient
       inkscape:collect="always"
       xlink:href="#linearGradient4108-2-7"
       id="linearGradient5242"
       gradientUnits="userSpaceOnUse"
       gradientTransform="matrix(-6.2656287e-8,1.0483062,-1.4334087,-4.5822925e-8,77.473888,-66.561381)"
       x1="134.0137"
       y1="38.964401"
       x2="134.0137"
       y2="35.964401" />
    <linearGradient
       gradientTransform="matrix(-4.371139e-8,1,-1,-4.371139e-8,42,-70.0005)"
       y2="29.9995"
       x2="86"
       y1="31.9995"
       x1="86"
       gradientUnits="userSpaceOnUse"
       id="linearGradient3418">
      <stop
         id="stop3420"
         style="stop-color:#4E3E27;fill-opacity:1.0;fill:url(#linearGradient20836)"
         offset="0" />
      <stop
         id="stop3422"
         style="stop-color:#816840;fill-opacity:1.0;fill:url(#linearGradient20836)"
         offset="1" />
    </linearGradient>
    <linearGradient
       inkscape:collect="always"
       xlink:href="#linearGradient4108-2-7"
       id="linearGradient5244"
       gradientUnits="userSpaceOnUse"
       gradientTransform="matrix(-6.2656287e-8,1.0483062,-1.4334087,-4.5822925e-8,77.473888,-68.433793)"
       x1="114.0479"
       y1="38.901901"
       x2="114.0479"
       y2="35.901901" />
    <linearGradient
       gradientTransform="matrix(-4.371139e-8,1,-1,-4.371139e-8,42,-70.0005)"
       y2="29.9995"
       x2="86"
       y1="31.9995"
       x1="86"
       gradientUnits="userSpaceOnUse"
       id="linearGradient3425">
      <stop
         id="stop3427"
         style="stop-color:#4E3E27;fill-opacity:1.0;fill:url(#linearGradient20836)"
         offset="0" />
      <stop
         id="stop3429"
         style="stop-color:#816840;fill-opacity:1.0;fill:url(#linearGradient20836)"
         offset="1" />
    </linearGradient>
    <linearGradient
       inkscape:collect="always"
       xlink:href="#linearGradient4108-2-7"
       id="linearGradient5246"
       gradientUnits="userSpaceOnUse"
       gradientTransform="matrix(-6.2656287e-8,1.0483062,-1.4334087,-4.5822925e-8,77.342978,-67.562061)"
       x1="93.830101"
       y1="38.5513"
       x2="93.830101"
       y2="35.964401" />
    <linearGradient
       gradientTransform="matrix(-4.371139e-8,1,-1,-4.371139e-8,42,-70.0005)"
       y2="29.9995"
       x2="86"
       y1="31.9995"
       x1="86"
       gradientUnits="userSpaceOnUse"
       id="linearGradient3432">
      <stop
         id="stop3434"
         style="stop-color:#4E3E27;fill-opacity:1.0;fill:url(#linearGradient20836)"
         offset="0" />
      <stop
         id="stop3436"
         style="stop-color:#816840;fill-opacity:1.0;fill:url(#linearGradient20836)"
         offset="1" />
    </linearGradient>
    <linearGradient
       inkscape:collect="always"
       xlink:href="#linearGradient4098-8-3"
       id="linearGradient5248"
       gradientUnits="userSpaceOnUse"
       gradientTransform="matrix(-6.2656287e-8,1.0483062,-1.4334087,-4.5822925e-8,77.866619,-66.387903)"
       x1="74.001999"
       y1="38.799301"
       x2="74.001999"
       y2="35.901901" />
    <linearGradient
       gradientTransform="matrix(-4.371139e-8,1,-1,-4.371139e-8,42,-70.0005)"
       y2="29.9995"
       x2="82"
       y1="31.9995"
       x1="82"
       gradientUnits="userSpaceOnUse"
       id="linearGradient4098-8-3">
      <stop
         id="stop4100-9-2"
         style="stop-color:#4E3E27;fill-opacity:1.0;fill:url(#linearGradient20844)"
         offset="0" />
      <stop
         id="stop4102-2-1"
         style="stop-color:#816840;fill-opacity:1.0;fill:url(#linearGradient20844)"
         offset="1" />
    </linearGradient>
    <linearGradient
       inkscape:collect="always"
       xlink:href="#linearGradient13867-5-0"
       id="linearGradient7261"
       gradientUnits="userSpaceOnUse"
       gradientTransform="matrix(-4.371139e-8,1,-1,-4.371139e-8,42,-70.0005)"
       x1="126"
       y1="30.0005"
       x2="126"
       y2="34.0005" />
    <linearGradient
       id="linearGradient13867-5-0"
       gradientUnits="userSpaceOnUse"
       x1="126"
       y1="30.0005"
       x2="126"
       y2="34.0005"
       gradientTransform="matrix(-4.371139e-8,1,-1,-4.371139e-8,42,-70.0005)">
      <stop
         offset="0"
         style="stop-color:#ddc98f;stop-opacity:1;"
         id="stop13869-0-7" />
      <stop
         offset="1"
         style="stop-color:#f4eab9;stop-opacity:1;"
         id="stop13871-4-5" />
    </linearGradient>
    <linearGradient
       inkscape:collect="always"
       xlink:href="#linearGradient6060-8-8"
       id="linearGradient7198"
       gradientUnits="userSpaceOnUse"
       gradientTransform="matrix(-6.3579301e-8,1.0389463,-1.4545248,-4.5413792e-8,72.726234,-66.906865)"
       x1="126"
       y1="41.9995"
       x2="126"
       y2="29.9995" />
    <linearGradient
       id="linearGradient6060-8-8"
       gradientUnits="userSpaceOnUse"
       x1="126"
       y1="41.9995"
       x2="126"
       y2="29.9995"
       gradientTransform="matrix(-4.371139e-8,1,-1,-4.371139e-8,42,-70.0005)">
      <stop
         offset="0"
         style="stop-color:#A58B5A"
         id="stop6064-7-7" />
      <stop
         offset="0.5444"
         style="stop-color:#C5AB6D"
         id="stop6066-1-0" />
    </linearGradient>
    <filter
       color-interpolation-filters="sRGB"
       height="1.0271842"
       y="-0.013592145"
       width="1.2935903"
       x="-0.14679517"
       id="filter5394"
       inkscape:collect="always">
      <feGaussianBlur
         id="feGaussianBlur5396"
         stdDeviation="0.61164653"
         inkscape:collect="always" />
    </filter>
  </defs>
  <sodipodi:namedview
     id="base"
     pagecolor="#ffffff"
     bordercolor="#666666"
     borderopacity="1.0"
     inkscape:pageopacity="0.0"
     inkscape:pageshadow="2"
     inkscape:zoom="1.4142135"
     inkscape:cx="153.10701"
     inkscape:cy="-12.972493"
     inkscape:document-units="px"
     inkscape:current-layer="layer1"
     width="128px"
     height="128px"
     showgrid="true"
     inkscape:grid-points="true"
     showguides="true"
     inkscape:guide-bbox="true"
     inkscape:window-width="1224"
     inkscape:window-height="757"
     inkscape:window-x="0"
     inkscape:window-y="383"
     inkscape:snap-global="true"
     inkscape:window-maximized="0"
     inkscape:snap-page="true">
    <inkscape:grid
       id="GridFromPre046Settings"
       type="xygrid"
       originx="0px"
       originy="0px"
       spacingx="5.8181px"
       spacingy="5.8181px"
       color="#0000ff"
       empcolor="#0000ff"
       opacity="0.2"
       empopacity="0.4"
       empspacing="2"
       visible="true"
       enabled="true"
       snapvisiblegridlinesonly="true" />
    <sodipodi:guide
       orientation="1,0"
       position="-68,29.325902"
       id="guide4564" />
    <sodipodi:guide
       orientation="1,0"
       position="-121.62237,135.0574"
       id="guide3859" />
    <sodipodi:guide
       orientation="0,1"
       position="38.581514,-74.688154"
       id="guide4360" />
  </sodipodi:namedview>
  <metadata
     id="metadata2611">
    <rdf:RDF>
      <cc:Work
         rdf:about="">
        <dc:format>image/svg+xml</dc:format>
        <dc:type
           rdf:resource="http://purl.org/dc/dcmitype/StillImage" />
        <dc:title></dc:title>
      </cc:Work>
    </rdf:RDF>
  </metadata>
  <g
     inkscape:label="Livello 1"
     inkscape:groupmode="layer"
     id="layer1">
    <path
       style="opacity:0.45606695;fill:#000000;fill-opacity:1;filter:url(#filter4123)"
       d="m 13.333,5.3364 0,118.3304 49.8545,-0.0668 c 2.115554,-0.003 4.528919,-1.77169 7,-4.25 0.71234,-0.71442 1.440746,-1.39395 2.15625,-2.09375 0.415612,-0.40649 0.832187,-0.81443 1.25,-1.21875 7.773958,-7.40962 26.98341,-25.122599 34.21875,-33.099999 0.42065,-0.42064 0.81207,-0.8111 1.15625,-1.1875 1.46444,-1.49766 2.76158,-2.8378 2.99375,-5.8625 L 112,75.156251 111.9972,5.3364 z"
       id="path5990"
       inkscape:connector-curvature="0"
       sodipodi:nodetypes="ccsssccccccc"
       transform="matrix(1.003095,0,0,0.98228452,-1.7655506,0.69098557)" />
    <path
       sodipodi:type="inkscape:offset"
       inkscape:radius="1.0279198"
       inkscape:original="M 13.1875 4.53125 C 12.818918 4.609246 12.529956 4.967008 12.53125 5.34375 L 12.53125 123.65625 C 12.53885 124.07954 12.920464 124.4611 13.34375 124.46875 L 62.15625 124.46875 C 63.930251 124.46875 65.829207 124.74865 68.6875 122.8125 C 68.829003 122.58432 71.218784 120.82456 70.53125 121.25 C 80.188854 112.07585 98.162197 92.41186 109.34375 81.09375 C 111.06182 79.375681 112.8125 77.674752 112.8125 73.3125 L 112.8125 5.34375 C 112.80483 4.9204809 112.42327 4.5388981 112 4.53125 L 13.34375 4.53125 C 13.29182 4.52633 13.239428 4.52633 13.1875 4.53125 z "
       style="fill:#000000;fill-opacity:1;filter:url(#filter3814)"
       id="path3314"
       d="m 13.09375,3.5 a 1.0280226,1.0280226 0 0 0 -0.125,0.03125 C 12.083764,3.7185227 11.496893,4.4391709 11.5,5.34375 l 0,118.3125 a 1.0280226,1.0280226 0 0 0 0,0.0313 c 0.01849,1.02971 0.782949,1.79389 1.8125,1.8125 a 1.0280226,1.0280226 0 0 0 0.03125,0 l 48.8125,0 c 1.665878,0 4.022349,0.23675 7.09375,-1.84375 a 1.0280226,1.0280226 0 0 0 0.28125,-0.21875 c 0.0578,-0.0515 0.139644,-0.12864 0.25,-0.21875 0.220712,-0.18022 0.516774,-0.41745 0.78125,-0.625 0.264476,-0.20755 0.495635,-0.39648 0.65625,-0.53125 0.04015,-0.0337 0.07966,-0.051 0.125,-0.0937 0.02267,-0.0214 0.04798,-0.0408 0.09375,-0.0937 0.02288,-0.0265 0.04727,-0.051 0.09375,-0.125 0.0081,-0.013 0.01807,-0.0366 0.03125,-0.0625 9.780644,-9.33282 27.440979,-28.680919 38.5,-39.875 1.71105,-1.711053 3.78125,-3.862728 3.78125,-8.5 l 0,-67.96875 a 1.0280226,1.0280226 0 0 0 0,-0.03125 C 113.82509,4.2829723 113.06085,3.5186039 112.03125,3.5 A 1.0280226,1.0280226 0 0 0 112,3.5 l -98.5625,0 c -0.03179,-0.00301 -0.06191,0.00137 -0.09375,0 -0.08491,-0.00365 -0.165226,-0.00803 -0.25,0 z"
       transform="matrix(1.003095,0,0,0.98228452,-1.7655506,0.69098557)" />
    <path
       style="fill:#ffffff;fill-opacity:1"
       d="m 11.608716,5.836076 0,116.330904 49.485099,0 c 1.680486,0 3.926459,-0.55989 7.021752,-3.56934 8.897609,-8.6509 32.175353,-31.250103 39.456483,-38.511869 2.44813,-2.441635 3.01026,-4.433083 3.01026,-6.66676 l -0.003,-67.582935 z"
       id="path34"
       sodipodi:nodetypes="cccssccc"
       inkscape:connector-curvature="0" />
    <path
       style="fill:url(#linearGradient4524-4);fill-opacity:1"
       d="m 17.07938,10.744349 c -0.340895,0 -0.501546,0.230461 -0.501546,0.491142 l 0,104.549779 c 0,0.80702 0.681425,1.474 1.504643,1.47343 l 44.496615,-0.0308 c 0.05324,-4e-5 0.812893,0.0229 1.504643,0.0308 1.783165,-0.0393 3.141667,-0.74038 4.369516,-1.56504 1.055122,-0.28588 25.815399,-23.810974 34.964739,-32.837827 1.36662,-1.348301 2.19223,-3.878226 2.19223,-4.808882 l 0,-66.81146 c 0,-0.317 -0.16372,-0.491143 -0.50156,-0.491143 z"
       id="path3967"
       inkscape:connector-curvature="0"
       sodipodi:nodetypes="ccsssccscccc" />
    <path
       sodipodi:nodetypes="ccssscccccc"
       inkscape:connector-curvature="0"
       id="path5980"
       d="m 17.07938,10.744349 c -0.340895,0 -0.501546,0.230461 -0.501546,0.491142 l 0,104.549779 c 0,0.80703 0.68144,1.46853 1.504643,1.47343 l 46.36344,0.27591 c 0.05324,3.2e-4 3.284015,-0.008 3.975766,5e-5 6.561216,-4.42387 26.757215,-26.379267 35.730127,-35.221607 0.65937,-0.724227 0.45902,-0.363513 1.45841,-1.578984 l 0,-69.498578 c 0,-0.317 -0.16372,-0.491143 -0.50156,-0.491143 z"
       style="opacity:0.84653476;fill:url(#radialGradient5988-0);fill-opacity:1" />
    <rect
       style="fill:#c8c8c8;fill-opacity:1;stroke:none"
       id="rect4526"
       width="5.8180995"
       height="76"
       x="75.6353"
       y="11.638" />
    <path
       style="fill:#000000"
       d=""
       id="path2197" />
    <path
       clip-path="url(#clipPath6093-7)"
       style="opacity:0.6056338;fill:#000000;fill-opacity:1;stroke:none;filter:url(#filter6171-8)"
       d="m 114.4,82.502986 c 0,4.465301 -9.3766,4.299815 -11.85883,5.983488 -5.108537,3.46508 -16.574334,-0.810699 -22.355504,-0.729679 -0.081,5.781159 0.365076,18.386735 0.365076,24.536755 0,2.97817 -3.440475,11.20945 -6.350745,11.20945 -2.091359,1.5337 3.488204,8.21101 6.734971,5.31989 9.501888,-8.46107 35.131682,-30.022701 43.350822,-39.262886 2.04044,-2.29392 -4.90514,-9.844666 -9.88579,-7.057018 z"
       id="path6153"
       inkscape:connector-curvature="0"
       sodipodi:nodetypes="cscscssc"
       transform="matrix(1.258302,0,0,1.2610357,-31.355772,-28.164007)" />
    <g
       transform="matrix(0.9178618,0,0,1.454525,7.0618168,-40.7249)"
       id="g4520">
      <rect
         style="fill:#c8c8c8;fill-opacity:1;stroke:none"
         id="rect4522"
         width="47.9375"
         height="4"
         x="24"
         y="96" />
    </g>
    <path
       sodipodi:nodetypes="cscscssc"
       inkscape:connector-curvature="0"
       id="path6081"
       d="m 113.9,82.502986 c 0,4.465301 -7.96273,7.457662 -10.95287,7.881439 -6.394981,0.906328 -15.304541,-0.844131 -21.085711,-0.763111 -0.081,5.781159 3.397918,20.001056 -0.06716,25.109596 -1.68367,2.48224 -3.883991,8.07209 -6.794261,8.07209 -2.091359,1.5337 3.488204,11.21101 6.734971,8.31989 9.501888,-8.46107 45.998943,-30.20138 54.218083,-39.441569 2.04044,-2.29392 -17.0724,-11.965986 -22.05305,-9.178335 z"
       style="opacity:0.64319249;fill:#000000;fill-opacity:1;stroke:none;filter:url(#filter4087)"
       clip-path="url(#clipPath6093-7)"
       transform="matrix(1.3586765,0,0,1.3616521,-42.382653,-40.155635)" />
    <g
       id="g4517"
       transform="matrix(0.97094759,0,0,1.454525,5.7877579,-58.1792)">
      <rect
         y="96"
         x="24"
         height="4"
         width="47.9375"
         id="rect4503"
         style="fill:#c8c8c8;fill-opacity:1;stroke:none" />
    </g>
    <path
       style="fill:url(#linearGradient3895-3);fill-opacity:1;stroke:none"
       d="m 110.63455,70.194961 c 0,6.22666 -3.89615,8.938389 -7.35324,11.28619 -7.11485,4.831902 -21.758838,3.808851 -29.810472,3.92183 -0.112812,8.061568 0.720236,21.530529 -4.105701,28.654139 -2.344905,3.46138 -6.904898,8.42993 -10.95813,8.42993 3.228399,0 6.605514,-1.86127 10.562523,-5.69609 12.732335,-12.33915 24.187814,-22.50002 35.75589,-35.27627 2.67259,-2.951702 5.90913,-5.078441 5.90913,-11.319729 z"
       id="path6011"
       inkscape:connector-curvature="0"
       sodipodi:nodetypes="cscscssc" />
    <rect
       style="fill:#b8b8b8;fill-opacity:1;stroke:none"
       id="rect4501"
       width="6.1827998"
       height="69.8172"
       x="98.9077"
       y="-81.4552"
       transform="scale(1,-1)" />
    <path
       style="fill:#ffffff;fill-opacity:1;stroke:none"
       d="m 110.66063,69.760596 c -0.44065,5.437134 -4.51314,7.338042 -6.73057,8.843942 -5.25734,3.570397 -12.241076,3.279514 -34.154353,3.279514 0,19.761338 0.513212,28.553598 -3.305002,33.382518 -2.272989,2.87466 -6.824021,6.07997 -10.532933,6.90254 5.082113,0 8.629228,-1.08751 11.949253,-4.30502 0.472301,-0.5418 1.415698,-1.55003 2.15657,-2.69493 3.94064,-5.81684 3.837814,-17.294735 3.837814,-29.263474 8.051633,-0.11295 22.202451,1.162156 29.317291,-3.669742 0.64822,-0.440215 2.63774,-2.020759 3.2183,-2.58944 3.22475,-3.158721 3.92397,-5.17219 4.24363,-9.885908 z M 55.937772,122.16911 c -0.219575,0.0485 -0.436533,0.0579 -0.652846,0.087 0.218648,-0.0234 0.432367,-0.0468 0.652846,-0.087 z"
       id="path6122"
       inkscape:connector-curvature="0"
       sodipodi:nodetypes="cscsccccsscccc" />
    <path
       style="fill:none;stroke:url(#radialGradient3919-5);stroke-width:1.82707405;stroke-linecap:butt;stroke-linejoin:miter;stroke-miterlimit:4;stroke-opacity:1;stroke-dasharray:none;filter:url(#filter3909-6)"
       d="M 108.97651,89.508691 79.934895,118.21077"
       id="path3873"
       inkscape:connector-curvature="0"
       sodipodi:nodetypes="cc"
       clip-path="url(#clipPath3889-6)"
       transform="matrix(1.3927341,0,0,1.3944553,-45.351691,-44.851769)" />
    <rect
       style="fill:#2d2d2d;fill-opacity:0.72000002;stroke:none"
       id="rect3038"
       width="6.3519158"
       height="5.6928086"
       x="17.897505"
       y="17.205519"
       rx="1.0293828"
       ry="1.0578505" />
    <rect
       ry="1.0578505"
       rx="1.0293828"
       y="34.283947"
       x="17.897505"
       height="5.6928086"
       width="6.3519158"
       id="rect3808"
       style="fill:#2d2d2d;fill-opacity:0.72000002;stroke:none" />
    <rect
       style="fill:#2d2d2d;fill-opacity:0.72000002;stroke:none"
       id="rect3810"
       width="6.3519158"
       height="5.6928086"
       x="17.897505"
       y="51.362373"
       rx="1.0293828"
       ry="1.0578505" />
    <rect
       ry="1.0578505"
       rx="1.0293828"
       y="68.440796"
       x="17.897505"
       height="5.6928086"
       width="6.3519158"
       id="rect3812"
       style="fill:#2d2d2d;fill-opacity:0.72000002;stroke:none" />
    <rect
       style="fill:#2d2d2d;fill-opacity:0.72000002;stroke:none"
       id="rect3814"
       width="6.3519158"
       height="5.6928086"
       x="17.897505"
       y="85.519226"
       rx="1.0293828"
       ry="1.0578505" />
    <rect
       ry="1.0578505"
       rx="1.0293828"
       y="102.59766"
       x="17.897505"
       height="5.6928086"
       width="6.3519158"
       id="rect3816"
       style="fill:#2d2d2d;fill-opacity:0.72000002;stroke:none" />
    <rect
       style="fill:#c8c8c8;fill-opacity:1;stroke:none"
       id="rect4513"
       width="75.6353"
       height="5.8181005"
       x="29.0905"
       y="64.0009" />
    <rect
       style="opacity:0.5399061;fill:url(#linearGradient3455);fill-opacity:1;stroke:none"
       id="rect4530"
       width="23.2724"
       height="87.2715"
       x="29.0905"
       y="17.4561" />
    <rect
       style="fill:url(#linearGradient3452);fill-opacity:1;stroke:none"
       id="rect3729"
       width="5.8181"
       height="108"
       x="29.0905"
       y="11.638" />
    <rect
       y="11.638"
       x="29.0905"
       height="5.8181005"
       width="76"
       id="rect4499"
       style="fill:#b8b8b8;fill-opacity:1;stroke:none" />
    <rect
       style="fill:#b8b8b8;fill-opacity:1;stroke:none"
       id="rect4505"
       width="76"
       height="5.8181"
       x="29.0905"
       y="29.0923" />
    <rect
       y="29.0923"
       x="29.0905"
       height="5.8181005"
       width="75.6353"
       id="rect4507"
       style="fill:#b8b8b8;fill-opacity:1;stroke:none" />
    <rect
       style="fill:#c8c8c8;fill-opacity:1;stroke:none"
       id="rect4509"
       width="75.6353"
       height="5.8180995"
       x="29.0905"
       y="46.5466" />
    <rect
       y="11.638"
       x="-58.181"
       height="108"
       width="5.8181005"
       id="rect4524"
       style="fill:url(#linearGradient3443);fill-opacity:1;stroke:none"
       transform="scale(-1,1)" />
    <rect
       style="fill:#c8d4e6;fill-opacity:1;stroke:none"
       id="rect4540"
       width="17.4543"
       height="11.6362"
       x="81.4534"
       y="17.4561" />
    <rect
       y="17.4561"
       x="58.181"
       height="11.6362"
       width="17.4543"
       id="rect4542"
       style="fill:#b0d1ff;fill-opacity:1;stroke:none" />
    <rect
       style="fill:#b0d1ff;fill-opacity:1;stroke:none"
       id="rect4544"
       width="17.4543"
       height="12"
       x="34.9086"
       y="34.5466" />
    <rect
       style="fill:#65a1ff;fill-opacity:1;stroke:none"
       id="rect4546"
       width="5.8181"
       height="40.7267"
       x="52.3629"
       y="11.638" />
    <rect
       y="34.9104"
       x="29.0905"
       height="17.4543"
       width="5.8181"
       id="rect4548"
       style="fill:#65a1ff;fill-opacity:1;stroke:none" />
    <rect
       style="fill:#65a1ff;fill-opacity:1;stroke:none"
       id="rect4550"
       width="5.8181005"
       height="17.4543"
       x="75.6353"
       y="11.638" />
    <rect
       y="-81.4534"
       x="11.638"
       height="26.5448"
       width="5.8181005"
       id="rect4552"
       style="fill:#65a1ff;fill-opacity:1;stroke:none"
       transform="matrix(0,1,-1,0,0,0)" />
    <rect
       transform="matrix(0,1,-1,0,0,0)"
       style="fill:#65a1ff;fill-opacity:1;stroke:none"
       id="rect4554"
       width="5.8180995"
       height="52.3629"
       x="29.0923"
       y="-81.4534" />
    <rect
       y="-52.3629"
       x="46.5466"
       height="17.4543"
       width="5.8181005"
       id="rect4556"
       style="fill:#65a1ff;fill-opacity:1;stroke:none"
       transform="matrix(0,1,-1,0,0,0)" />
    <rect
       style="fill:#000000;fill-opacity:0.45142858;stroke:none"
       id="rect4558"
       width="5.8181005"
       height="17.4543"
       x="75.6353"
       y="34.9104" />
    <rect
       y="46.5466"
       x="58.181"
       height="5.8180995"
       width="23.2724"
       id="rect4560"
       style="fill:#000000;fill-opacity:0.45142858;stroke:none" />
    <rect
       style="fill:#555555;fill-opacity:1;stroke:none"
       id="rect4562"
       width="11.6362"
       height="11.6362"
       x="75.6353"
       y="46.5466" />
    <path
       inkscape:connector-curvature="0"
       style="fill:#000000"
       d=""
       id="path2197-0" />
    <rect
       style="fill:#000000;fill-opacity:1;stroke:none;filter:url(#filter5394)"
       id="rect6905"
       width="10.176779"
       height="108"
       x="18"
       y="11"
       transform="matrix(1.3875024,0,0,1.0912184,-8.1867482,-6.1835024)" />
    <rect
       id="rect4046"
       height="116.362"
       width="17.454298"
       style="fill:url(#linearGradient7198);fill-opacity:1"
       x="11.6362"
       y="5.8199005" />
    <polygon
       transform="matrix(1.1135187,0,0,1.0389464,15.728276,5.8199)"
       id="polygon4054"
       points="12,112 12,112 8,111 8,1 12,0 "
       style="opacity:0.8;fill:url(#linearGradient7261);fill-opacity:1" />
    <path
       inkscape:connector-curvature="0"
       id="path4604"
       d="m 26.404389,11.184139 c 0,0.319738 -0.182052,0.574472 -0.543272,0.766313 -0.362651,0.19184 -0.894444,0.287235 -1.596809,0.287235 -0.613502,0 -1.103725,-0.09536 -1.466376,-0.286185 -0.365523,-0.19184 -0.547564,-0.442392 -0.547564,-0.752683 0,-0.227484 0.09604,-0.424569 0.290979,-0.593343 0.196371,-0.168775 0.455829,-0.289337 0.77834,-0.359575 0.323954,-0.06915 0.669402,-0.104821 1.039218,-0.104821 0.619236,0 1.113762,0.09746 1.486451,0.291428 0.372688,0.193932 0.559033,0.444482 0.559033,0.751631 z m -0.743946,0.008 c 0,-0.115308 -0.108939,-0.203368 -0.325385,-0.261027 -0.215004,-0.05874 -0.538958,-0.08806 -0.970419,-0.08806 -0.455817,0 -0.798404,0.02932 -1.026318,0.08705 -0.225042,0.05764 -0.339715,0.143617 -0.339715,0.257885 0,0.113217 0.11037,0.197085 0.331119,0.253693 0.219307,0.05663 0.551857,0.08385 0.993344,0.08385 0.445791,0 0.779782,-0.02722 1.001963,-0.08286 0.222169,-0.05554 0.335411,-0.138385 0.335411,-0.250551 z"
       style="fill:url(#linearGradient5248);fill-opacity:1" />
    <path
       inkscape:connector-curvature="0"
       id="path4614"
       d="m 25.790442,30.791604 0,0.533593 -3.70823,0 0,-0.620602 2.356516,0 0,-0.427712 0.640742,0 0,0.09957 c 0,0.131039 0.04878,0.232728 0.147636,0.306108 0.09745,0.07235 0.245117,0.109024 0.440057,0.109024 l 0.123279,0 z"
       style="fill:url(#linearGradient5246);fill-opacity:1" />
    <path
       inkscape:connector-curvature="0"
       style="fill:url(#linearGradient5244);fill-opacity:1"
       d="m 25.767972,50.219276 c 0.161976,0.233769 0.243675,0.476975 0.243675,0.729617 0,0.154105 -0.03729,0.302966 -0.111811,0.445533 -0.07599,0.142567 -0.193509,0.257886 -0.355475,0.349088 -0.161977,0.09116 -0.352624,0.135232 -0.56907,0.135232 -0.210712,0 -0.398487,-0.04303 -0.560464,-0.128947 -0.161977,-0.08596 -0.296713,-0.216999 -0.407083,-0.389966 -0.0516,0.222241 -0.160546,0.389966 -0.326815,0.501091 -0.164849,0.111115 -0.38846,0.166683 -0.669402,0.166683 -0.378422,0 -0.688046,-0.100639 -0.933152,-0.300865 -0.245117,-0.200226 -0.368385,-0.461253 -0.368385,-0.782041 0,-0.228527 0.07458,-0.470691 0.220738,-0.725425 l 0.91595,0 c -0.20927,0.207562 -0.312485,0.414082 -0.312485,0.6164 0,0.124754 0.05452,0.230627 0.163418,0.317636 0.108939,0.08706 0.240814,0.131039 0.397045,0.131039 0.149078,0 0.270916,-0.04193 0.366955,-0.126846 0.09604,-0.08496 0.141912,-0.193932 0.141912,-0.324971 l 0,-0.318687 0.723871,0 0,0.209663 c 0,0.121602 0.03729,0.221191 0.111811,0.299813 0.07599,0.07966 0.179169,0.118461 0.316778,0.118461 0.126152,0 0.229345,-0.03563 0.312485,-0.104831 0.08173,-0.07024 0.121838,-0.157247 0.121838,-0.26417 0,-0.158298 -0.10612,-0.342803 -0.31965,-0.553507 l 0.897316,0 0,0 z"
       id="path4624" />
    <path
       inkscape:connector-curvature="0"
       id="path4634"
       d="m 25.921353,73.912181 0,0.751641 -2.323564,0 0,0.366899 -0.745366,0 0,-0.366899 -1.231307,0 0,-0.751641 1.231307,0 0,-1.089192 0.804139,0 2.264791,1.089192 z m -1.232738,0 -1.090826,-0.516812 0,0.516812 1.090826,0 z"
       style="fill:url(#linearGradient5242);fill-opacity:1" />
    <path
       inkscape:connector-curvature="0"
       id="path4644"
       d="m 26.052252,94.25553 0,1.616484 -0.798404,0 0,-0.884768 -0.769745,0 c 0.134748,0.121604 0.202116,0.242151 0.202116,0.365858 0,0.167719 -0.108938,0.328119 -0.328246,0.483264 -0.219318,0.157249 -0.544703,0.233775 -0.976153,0.233775 -0.478765,0 -0.868645,-0.100645 -1.172535,-0.305056 -0.303878,-0.204421 -0.455817,-0.468597 -0.455817,-0.794612 0,-0.212806 0.0788,-0.450779 0.235079,-0.714945 l 0.950344,0 c -0.232207,0.229568 -0.34831,0.433989 -0.34831,0.610113 0,0.126848 0.07165,0.233765 0.213573,0.319723 0.141902,0.08601 0.321081,0.131046 0.534665,0.131046 0.154801,0 0.280942,-0.02202 0.382715,-0.06918 0.100376,-0.04511 0.150509,-0.104833 0.150509,-0.17402 0,-0.07338 -0.06591,-0.135234 -0.19494,-0.182405 l 0,-0.634222 2.375149,0 0,-9.78e-4 z"
       style="fill:url(#linearGradient5240);fill-opacity:1" />
    <path
       inkscape:connector-curvature="0"
       id="path4654"
       d="m 24.330733,116.36927 c 0.140471,0.0807 0.245117,0.16353 0.313916,0.25054 0.06883,0.0871 0.103193,0.17612 0.103193,0.26627 0,0.21386 -0.137609,0.39417 -0.409955,0.54302 -0.272346,0.14887 -0.59773,0.22224 -0.976153,0.22224 -0.428588,0 -0.789808,-0.0923 -1.080788,-0.27779 -0.293851,-0.1845 -0.440057,-0.41199 -0.440057,-0.68036 0,-0.28618 0.177738,-0.53568 0.534666,-0.74744 0.356917,-0.2128 0.87581,-0.31973 1.560973,-0.31973 0.392763,0 0.756845,0.044 1.093698,0.13314 0.335422,0.0881 0.604895,0.22538 0.807011,0.41198 0.203547,0.18556 0.303879,0.40883 0.303879,0.66882 0,0.18136 -0.06016,0.38683 -0.182041,0.6164 l -0.937456,0 c 0.200685,-0.20128 0.299586,-0.3753 0.299586,-0.52206 0,-0.14152 -0.08173,-0.26627 -0.240813,-0.37529 -0.161977,-0.11007 -0.411386,-0.17297 -0.74967,-0.18974 z m -0.887279,0 c -0.249409,0.0189 -0.440056,0.0567 -0.570501,0.11322 -0.131875,0.0587 -0.197801,0.12369 -0.197801,0.19707 0,0.0682 0.06016,0.12685 0.180599,0.17403 0.118976,0.0472 0.269484,0.0692 0.451525,0.0692 0.172014,0 0.309623,-0.022 0.415689,-0.065 0.10612,-0.044 0.157674,-0.10274 0.157674,-0.17717 0,-0.0534 -0.03588,-0.10587 -0.10753,-0.15725 -0.07165,-0.0503 -0.18204,-0.10273 -0.329676,-0.1541 z"
       style="fill:url(#linearGradient5238);fill-opacity:1" />
    <rect
       style="opacity:0.53556483;fill:#ffffff;fill-opacity:1;stroke:none"
       id="rect5402"
       width="17.454298"
       height="2.0675449"
       x="11.6362"
       y="5.8199005" />
    <rect
       y="-122.1819"
       x="11.6362"
       height="114.29449"
       width="2.8270717"
       id="rect5404"
       style="opacity:0.53556483;fill:#ffffff;fill-opacity:1;stroke:none"
       transform="scale(1,-1)" />
  </g>
</svg>
