<?xml version="1.0" encoding="UTF-8" standalone="no"?>
<!-- Created with Inkscape (http://www.inkscape.org/) -->

<svg
   xmlns:dc="http://purl.org/dc/elements/1.1/"
   xmlns:cc="http://creativecommons.org/ns#"
   xmlns:rdf="http://www.w3.org/1999/02/22-rdf-syntax-ns#"
   xmlns:svg="http://www.w3.org/2000/svg"
   xmlns="http://www.w3.org/2000/svg"
   xmlns:xlink="http://www.w3.org/1999/xlink"
   xmlns:sodipodi="http://sodipodi.sourceforge.net/DTD/sodipodi-0.dtd"
   xmlns:inkscape="http://www.inkscape.org/namespaces/inkscape"
   width="128"
   height="128"
   id="svg2606"
   sodipodi:version="0.32"
   inkscape:version="0.48.0 r9654"
   version="1.0"
   sodipodi:docname="application-x-zerosize.svgz"
   inkscape:output_extension="org.inkscape.output.svgz.inkscape"
   inkscape:export-filename="/home/pinheiro/pics/oxygen-icons/scalable/mimetypes/small/22x22/application-x-trash.png"
   inkscape:export-xdpi="61.875"
   inkscape:export-ydpi="61.875">
  <defs
     id="defs2608">
    <linearGradient
       id="linearGradient6131">
      <stop
         id="stop6133"
         offset="0"
         style="stop-color:#fcfcfc;stop-opacity:1" />
      <stop
         style="stop-color:#f8f8f8;stop-opacity:1"
         offset="0.52275378"
         id="stop6135" />
      <stop
         id="stop6141"
         offset="0.77457333"
         style="stop-color:#f0efef;stop-opacity:1;" />
      <stop
         id="stop6139"
         offset="0.90122044"
         style="stop-color:#e3e1e1;stop-opacity:1;" />
      <stop
         id="stop6137"
         offset="1"
         style="stop-color:#cecbcb;stop-opacity:1" />
    </linearGradient>
    <linearGradient
       inkscape:collect="always"
       xlink:href="#linearGradient6131"
       id="linearGradient3893"
       gradientUnits="userSpaceOnUse"
       gradientTransform="matrix(1.0119858,0,0,1.0119858,-0.89554075,-0.9871566)"
       x1="86.73793"
       y1="93.621468"
       x2="95.460213"
       y2="102.34375" />
    <radialGradient
       inkscape:collect="always"
       xlink:href="#linearGradient3913-5"
       id="radialGradient3919-5"
       cx="90.75"
       cy="110.25299"
       fx="90.75"
       fy="110.25299"
       r="18.750002"
       gradientTransform="matrix(1.3067347,0,0,1.3067347,-27.83617,-33.818441)"
       gradientUnits="userSpaceOnUse" />
    <linearGradient
       inkscape:collect="always"
       id="linearGradient3913-5">
      <stop
         style="stop-color:#ffffff;stop-opacity:1;"
         offset="0"
         id="stop3915-4" />
      <stop
         style="stop-color:#ffffff;stop-opacity:0;"
         offset="1"
         id="stop3917-7" />
    </linearGradient>
    <clipPath
       clipPathUnits="userSpaceOnUse"
       id="clipPath3889-6">
      <path
         sodipodi:nodetypes="cscscssc"
         inkscape:connector-curvature="0"
         id="path3891-5"
         d="m 112,82.502986 c 0,4.465301 -2.79749,6.409952 -5.27972,8.093625 -5.10854,3.46508 -14.939114,3.32536 -20.720284,3.40638 -0.081,5.781159 0.16586,15.504599 -3.29922,20.613139 -1.68367,2.48224 -5.29051,5.38687 -8.20078,5.38687 2.31803,0 4.74284,-1.33476 7.58402,-4.08481 9.14197,-8.84873 17.36714,-16.13535 25.673154,-25.297529 C 109.67612,88.503916 112,86.97878 112,82.502986 z"
         style="fill:url(#linearGradient3893);fill-opacity:1;stroke:none" />
    </clipPath>
    <filter
       color-interpolation-filters="sRGB"
       inkscape:collect="always"
       id="filter3909-6">
      <feGaussianBlur
         inkscape:collect="always"
         stdDeviation="0.43040059"
         id="feGaussianBlur3911-9" />
    </filter>
    <linearGradient
       inkscape:collect="always"
       xlink:href="#linearGradient3897-7"
       id="linearGradient3895-3"
       gradientUnits="userSpaceOnUse"
       gradientTransform="matrix(1.4094273,0,0,1.4111689,-46.598939,-46.228314)"
       x1="82.15696"
       y1="90.381706"
       x2="94.220871"
       y2="102.18401" />
    <linearGradient
       id="linearGradient3897-7">
      <stop
         style="stop-color:#fcfcfc;stop-opacity:1"
         offset="0"
         id="stop3899-4" />
      <stop
         id="stop3901-5"
         offset="0.52275378"
         style="stop-color:#f8f8f8;stop-opacity:1" />
      <stop
         style="stop-color:#f0efef;stop-opacity:1;"
         offset="0.72337759"
         id="stop3903-2" />
      <stop
         style="stop-color:#e3e1e1;stop-opacity:1;"
         offset="0.89024991"
         id="stop3905-5" />
      <stop
         style="stop-color:#cecbcb;stop-opacity:1"
         offset="1"
         id="stop3907-4" />
    </linearGradient>
    <clipPath
       clipPathUnits="userSpaceOnUse"
       id="clipPath6093-7">
      <path
         inkscape:connector-curvature="0"
         sodipodi:nodetypes="cccssccc"
         id="path6095-4"
         d="m 17.000001,8 0.782827,110 57.5,0 c 1.675283,0 3.119418,0.18058 4.9,-1.6 C 88.980763,107.60206 99.94047,96.548195 107.19904,89.224043 109.6396,86.761431 110,84.752873 110,82.5 L 110,8 z"
         style="fill:#ffffff;fill-opacity:1" />
    </clipPath>
    <radialGradient
       inkscape:collect="always"
       xlink:href="#linearGradient5982-7"
       id="radialGradient5988-0"
       cx="64"
       cy="64.004021"
       fx="63.793392"
       fy="47.274845"
       r="47.5"
       gradientTransform="matrix(1.689423,-0.08280186,0.06907651,1.3515102,-50.111719,-17.641619)"
       gradientUnits="userSpaceOnUse" />
    <linearGradient
       inkscape:collect="always"
       id="linearGradient5982-7">
      <stop
         style="stop-color:#ffffff;stop-opacity:1;"
         offset="0"
         id="stop5984-8" />
      <stop
         style="stop-color:#ffffff;stop-opacity:0;"
         offset="1"
         id="stop5986-6" />
    </linearGradient>
    <filter
       color-interpolation-filters="sRGB"
       inkscape:collect="always"
       id="filter6171-8"
       x="-0.47870937"
       width="1.9574188"
       y="-0.51275069"
       height="2.0255013">
      <feGaussianBlur
         inkscape:collect="always"
         stdDeviation="10.140743"
         id="feGaussianBlur6173-8" />
    </filter>
    <linearGradient
       inkscape:collect="always"
       xlink:href="#linearGradient4518-3"
       id="linearGradient4524-4"
       x1="72"
       y1="0"
       x2="72"
       y2="116.40091"
       gradientUnits="userSpaceOnUse"
       gradientTransform="matrix(1.003095,0,0,0.98228452,-1.7655502,0.69098836)" />
    <linearGradient
       id="linearGradient4518-3">
      <stop
         style="stop-color:#eeecec;stop-opacity:1"
         offset="0"
         id="stop4520-1" />
      <stop
         id="stop5969-4"
         offset="0.40000001"
         style="stop-color:#f4f4f4;stop-opacity:1" />
      <stop
         style="stop-color:#f6f5f5;stop-opacity:1"
         offset="1"
         id="stop4522-9" />
    </linearGradient>
    <filter
       inkscape:collect="always"
       id="filter4123">
      <feGaussianBlur
         inkscape:collect="always"
         stdDeviation="2.028"
         id="feGaussianBlur4125" />
    </filter>
    <filter
       inkscape:collect="always"
       id="filter4087"
       x="-0.16465071"
       width="1.3293014"
       y="-0.2041295"
       height="1.408259">
      <feGaussianBlur
         inkscape:collect="always"
         stdDeviation="4.2234282"
         id="feGaussianBlur4089" />
    </filter>
    <filter
       inkscape:collect="always"
       id="filter3814">
      <feGaussianBlur
         inkscape:collect="always"
         stdDeviation="1.8077645"
         id="feGaussianBlur3816" />
    </filter>
    <clipPath
       id="clipPath3087"
       clipPathUnits="userSpaceOnUse">
      <path
         style="fill:#ffffff;fill-opacity:1"
         d="m 57.373959,61.659544 0,46.910726 19.546052,0 c 0.663773,0 1.550907,-0.22577 2.773512,-1.43934 3.514454,-3.4885 12.708898,-12.601687 15.584862,-15.530012 0.966982,-0.984595 1.189018,-1.787652 1.189018,-2.688387 l -0.0012,-27.252987 z"
         id="path3089"
         sodipodi:nodetypes="cccssccc"
         inkscape:connector-curvature="0" />
    </clipPath>
    <radialGradient
       inkscape:collect="always"
       xlink:href="#XMLID_4_-2"
       id="radialGradient3093"
       gradientUnits="userSpaceOnUse"
       gradientTransform="matrix(1.0935695,0,0,1.0934163,-7.421699,-6.9007731)"
       cx="79.317467"
       cy="73.888069"
       fx="79.317467"
       fy="73.888069"
       r="18.848541" />
    <radialGradient
       id="XMLID_4_-2"
       cx="48"
       cy="-0.2148"
       r="55.147999"
       gradientTransform="matrix(0.9792,0,0,0.9725,133.0002,20.8762)"
       gradientUnits="userSpaceOnUse">
      <stop
         offset="0"
         style="stop-color:#72D13D"
         id="stop3082-0" />
      <stop
         offset="0.3553"
         style="stop-color:#35AC1C"
         id="stop3084-6" />
      <stop
         offset="0.6194"
         style="stop-color:#0F9508"
         id="stop3086-1" />
      <stop
         offset="0.7574"
         style="stop-color:#008C00"
         id="stop3088-5" />
      <stop
         offset="1"
         style="stop-color:#007A00"
         id="stop3090-5" />
    </radialGradient>
    <radialGradient
       r="18.848541"
       fy="73.888069"
       fx="79.317467"
       cy="73.888069"
       cx="79.317467"
       gradientTransform="matrix(1.0935695,0,0,1.0934163,-7.421699,-6.9007731)"
       gradientUnits="userSpaceOnUse"
       id="radialGradient5317"
       xlink:href="#XMLID_4_-2"
       inkscape:collect="always" />
    <radialGradient
       id="XMLID_3_"
       cx="48.125"
       cy="8.625"
       r="49.875"
       gradientUnits="userSpaceOnUse"
       gradientTransform="translate(132,20)">
      <stop
         offset="0"
         style="stop-color:#D6FFC0"
         id="stop3065" />
      <stop
         offset="0.0735"
         style="stop-color:#CCFAB7"
         id="stop3067" />
      <stop
         offset="0.61132425"
         style="stop-color:#4CB544"
         id="stop3073" />
      <stop
         offset="0.7574"
         style="stop-color:#008C00"
         id="stop3077" />
    </radialGradient>
    <radialGradient
       gradientUnits="userSpaceOnUse"
       gradientTransform="matrix(1.0935695,0,0,1.0934163,-7.421699,-6.9007731)"
       r="18.848541"
       fy="73.888069"
       fx="79.317467"
       cy="73.888069"
       cx="79.317467"
       id="radialGradient5309"
       xlink:href="#XMLID_3_"
       inkscape:collect="always" />
    <filter
       id="filter5325"
       inkscape:collect="always"
       color-interpolation-filters="sRGB">
      <feGaussianBlur
         id="feGaussianBlur5327"
         stdDeviation="0.61027687"
         inkscape:collect="always" />
    </filter>
    <filter
       id="filter4084"
       inkscape:collect="always">
      <feGaussianBlur
         id="feGaussianBlur4086"
         stdDeviation="1.4598961"
         inkscape:collect="always" />
    </filter>
    <filter
       height="1.408259"
       y="-0.2041295"
       width="1.3293014"
       x="-0.16465071"
       id="filter4087-9"
       inkscape:collect="always">
      <feGaussianBlur
         id="feGaussianBlur4089-5"
         stdDeviation="4.2234282"
         inkscape:collect="always" />
    </filter>
    <filter
       id="filter4123-6"
       inkscape:collect="always">
      <feGaussianBlur
         id="feGaussianBlur4125-4"
         stdDeviation="2.028"
         inkscape:collect="always" />
    </filter>
    <linearGradient
       id="linearGradient4518-3-8">
      <stop
         id="stop4520-1-9"
         offset="0"
         style="stop-color:#eeecec;stop-opacity:1" />
      <stop
         style="stop-color:#f4f4f4;stop-opacity:1"
         offset="0.40000001"
         id="stop5969-4-2" />
      <stop
         id="stop4522-9-6"
         offset="1"
         style="stop-color:#f6f5f5;stop-opacity:1" />
    </linearGradient>
    <linearGradient
       gradientTransform="matrix(1.013528,0,0,1.013266,-1.5133685,-1.3073648)"
       gradientUnits="userSpaceOnUse"
       y2="116.40091"
       x2="72"
       y1="0"
       x1="72"
       id="linearGradient4524-4-6"
       xlink:href="#linearGradient4518-3-8"
       inkscape:collect="always" />
    <filter
       height="2.0255013"
       y="-0.51275069"
       width="1.9574188"
       x="-0.47870937"
       id="filter6171-8-2"
       inkscape:collect="always"
       color-interpolation-filters="sRGB">
      <feGaussianBlur
         id="feGaussianBlur6173-8-0"
         stdDeviation="10.140743"
         inkscape:collect="always" />
    </filter>
    <linearGradient
       id="linearGradient5982-7-1"
       inkscape:collect="always">
      <stop
         id="stop5984-8-4"
         offset="0"
         style="stop-color:#ffffff;stop-opacity:1;" />
      <stop
         id="stop5986-6-9"
         offset="1"
         style="stop-color:#ffffff;stop-opacity:0;" />
    </linearGradient>
    <radialGradient
       gradientUnits="userSpaceOnUse"
       gradientTransform="matrix(1.7069944,-0.08541345,0.06979496,1.3941371,-50.362376,-20.218185)"
       r="47.5"
       fy="47.274845"
       fx="63.793392"
       cy="64.004021"
       cx="64"
       id="radialGradient5988-0-3"
       xlink:href="#linearGradient5982-7-1"
       inkscape:collect="always" />
    <clipPath
       id="clipPath6093-7-8"
       clipPathUnits="userSpaceOnUse">
      <path
         style="fill:#ffffff;fill-opacity:1"
         d="m 17.000001,8 0.782827,110 57.5,0 c 1.675283,0 3.119418,0.18058 4.9,-1.6 C 88.980763,107.60206 99.94047,96.548195 107.19904,89.224043 109.6396,86.761431 110,84.752873 110,82.5 L 110,8 z"
         id="path6095-4-4"
         sodipodi:nodetypes="cccssccc"
         inkscape:connector-curvature="0" />
    </clipPath>
    <linearGradient
       id="linearGradient3897-7-3">
      <stop
         id="stop3899-4-0"
         offset="0"
         style="stop-color:#fcfcfc;stop-opacity:1" />
      <stop
         style="stop-color:#f8f8f8;stop-opacity:1"
         offset="0.52275378"
         id="stop3901-5-7" />
      <stop
         id="stop3903-2-8"
         offset="0.72337759"
         style="stop-color:#f0efef;stop-opacity:1;" />
      <stop
         id="stop3905-5-6"
         offset="0.89024991"
         style="stop-color:#e3e1e1;stop-opacity:1;" />
      <stop
         id="stop3907-4-8"
         offset="1"
         style="stop-color:#cecbcb;stop-opacity:1" />
    </linearGradient>
    <linearGradient
       y2="102.18401"
       x2="94.220871"
       y1="90.381706"
       x1="82.15696"
       gradientTransform="matrix(1.3731411,0,0,1.4035776,-41.378546,-43.42319)"
       gradientUnits="userSpaceOnUse"
       id="linearGradient3895-3-4"
       xlink:href="#linearGradient3897-7-3"
       inkscape:collect="always" />
    <filter
       id="filter3909-6-7"
       inkscape:collect="always"
       color-interpolation-filters="sRGB">
      <feGaussianBlur
         id="feGaussianBlur3911-9-4"
         stdDeviation="0.43040059"
         inkscape:collect="always" />
    </filter>
    <clipPath
       id="clipPath3889-6-5"
       clipPathUnits="userSpaceOnUse">
      <path
         style="fill:url(#linearGradient3893-3);fill-opacity:1;stroke:none"
         d="m 112,82.502986 c 0,4.465301 -2.79749,6.409952 -5.27972,8.093625 -5.10854,3.46508 -14.939114,3.32536 -20.720284,3.40638 -0.081,5.781159 0.16586,15.504599 -3.29922,20.613139 -1.68367,2.48224 -5.29051,5.38687 -8.20078,5.38687 2.31803,0 4.74284,-1.33476 7.58402,-4.08481 9.14197,-8.84873 17.36714,-16.13535 25.673154,-25.297529 C 109.67612,88.503916 112,86.97878 112,82.502986 z"
         id="path3891-5-4"
         inkscape:connector-curvature="0"
         sodipodi:nodetypes="cscscssc" />
    </clipPath>
    <linearGradient
       id="linearGradient3913-5-4"
       inkscape:collect="always">
      <stop
         id="stop3915-4-5"
         offset="0"
         style="stop-color:#ffffff;stop-opacity:1;" />
      <stop
         id="stop3917-7-2"
         offset="1"
         style="stop-color:#ffffff;stop-opacity:0;" />
    </linearGradient>
    <radialGradient
       gradientUnits="userSpaceOnUse"
       gradientTransform="matrix(1.3067347,0,0,1.3067347,-27.83617,-33.818441)"
       r="18.750002"
       fy="110.25299"
       fx="90.75"
       cy="110.25299"
       cx="90.75"
       id="radialGradient3919-5-7"
       xlink:href="#linearGradient3913-5-4"
       inkscape:collect="always" />
    <linearGradient
       y2="102.34375"
       x2="95.460213"
       y1="93.621468"
       x1="86.73793"
       gradientTransform="matrix(1.0119858,0,0,1.0119858,-0.89554075,-0.9871566)"
       gradientUnits="userSpaceOnUse"
       id="linearGradient3893-3"
       xlink:href="#linearGradient6131-4"
       inkscape:collect="always" />
    <linearGradient
       id="linearGradient6131-4">
      <stop
         style="stop-color:#fcfcfc;stop-opacity:1"
         offset="0"
         id="stop6133-7" />
      <stop
         id="stop6135-6"
         offset="0.52275378"
         style="stop-color:#f8f8f8;stop-opacity:1" />
      <stop
         style="stop-color:#f0efef;stop-opacity:1;"
         offset="0.77457333"
         id="stop6141-5" />
      <stop
         style="stop-color:#e3e1e1;stop-opacity:1;"
         offset="0.90122044"
         id="stop6139-6" />
      <stop
         style="stop-color:#cecbcb;stop-opacity:1"
         offset="1"
         id="stop6137-9" />
    </linearGradient>
    <linearGradient
       inkscape:collect="always"
       xlink:href="#linearGradient3897-7-3"
       id="linearGradient3201"
       gradientUnits="userSpaceOnUse"
       gradientTransform="matrix(1.3731411,0,0,1.4035776,-407.43536,-137.86503)"
       x1="82.15696"
       y1="90.381706"
       x2="94.220871"
       y2="102.18401" />
    <radialGradient
       inkscape:collect="always"
       xlink:href="#linearGradient5982-7-1"
       id="radialGradient3212"
       gradientUnits="userSpaceOnUse"
       gradientTransform="matrix(1.7069944,-0.08541345,0.06979496,1.3941371,-416.41919,-114.66002)"
       cx="64"
       cy="64.004021"
       fx="63.793392"
       fy="47.274845"
       r="47.5" />
    <linearGradient
       inkscape:collect="always"
       xlink:href="#linearGradient4518-3-8"
       id="linearGradient3215"
       gradientUnits="userSpaceOnUse"
       gradientTransform="matrix(1.013528,0,0,1.013266,-367.57018,-95.749201)"
       x1="72"
       y1="0"
       x2="72"
       y2="116.40091" />
    <radialGradient
       inkscape:collect="always"
       xlink:href="#XMLID_3_"
       id="radialGradient3220"
       gradientUnits="userSpaceOnUse"
       gradientTransform="matrix(1.0935695,0,0,1.0934163,-7.421699,-6.9007731)"
       cx="79.317467"
       cy="73.888069"
       fx="79.317467"
       fy="73.888069"
       r="18.848541" />
    <radialGradient
       inkscape:collect="always"
       xlink:href="#XMLID_4_-2"
       id="radialGradient3222"
       gradientUnits="userSpaceOnUse"
       gradientTransform="matrix(1.0935695,0,0,1.0934163,-7.421699,-6.9007731)"
       cx="79.317467"
       cy="73.888069"
       fx="79.317467"
       fy="73.888069"
       r="18.848541" />
    <clipPath
       clipPathUnits="userSpaceOnUse"
       id="clipPath3226">
      <path
         inkscape:connector-curvature="0"
         sodipodi:nodetypes="cccssccc"
         id="path3228"
         d="m 56.31432,63.251632 0,38.311668 16.297101,0 c 0.553441,0 1.293115,-0.18439 2.312499,-1.17551 2.93028,-2.849028 10.596422,-10.291703 12.994342,-12.683246 0.806251,-0.804112 0.991379,-1.459962 0.991379,-2.195587 l -9.88e-4,-22.257325 z"
         style="fill:#ffffff;fill-opacity:1" />
    </clipPath>
  </defs>
  <sodipodi:namedview
     id="base"
     pagecolor="#ffffff"
     bordercolor="#666666"
     borderopacity="1.0"
     inkscape:pageopacity="0.0"
     inkscape:pageshadow="2"
     inkscape:zoom="2.828427"
     inkscape:cx="46.032504"
     inkscape:cy="77.032806"
     inkscape:document-units="px"
     inkscape:current-layer="layer1"
     width="128px"
     height="128px"
     showgrid="true"
     inkscape:grid-points="true"
     showguides="true"
     inkscape:guide-bbox="true"
     inkscape:window-width="1224"
     inkscape:window-height="757"
     inkscape:window-x="0"
     inkscape:window-y="383"
     inkscape:snap-global="true"
     inkscape:window-maximized="0"
     inkscape:snap-page="true">
    <inkscape:grid
       id="GridFromPre046Settings"
       type="xygrid"
       originx="0px"
       originy="0px"
       spacingx="5.8181px"
       spacingy="5.8181px"
       color="#0000ff"
       empcolor="#0000ff"
       opacity="0.2"
       empopacity="0.4"
       empspacing="2"
       visible="true"
       enabled="true"
       snapvisiblegridlinesonly="true" />
    <sodipodi:guide
       orientation="1,0"
       position="-68,29.325902"
       id="guide4564" />
    <sodipodi:guide
       orientation="1,0"
       position="-121.62237,135.0574"
       id="guide3859" />
    <sodipodi:guide
       orientation="0,1"
       position="38.581514,-74.688154"
       id="guide4360" />
  </sodipodi:namedview>
  <metadata
     id="metadata2611">
    <rdf:RDF>
      <cc:Work
         rdf:about="">
        <dc:format>image/svg+xml</dc:format>
        <dc:type
           rdf:resource="http://purl.org/dc/dcmitype/StillImage" />
        <dc:title></dc:title>
      </cc:Work>
    </rdf:RDF>
  </metadata>
  <g
     inkscape:label="Livello 1"
     inkscape:groupmode="layer"
     id="layer1">
    <path
       style="opacity:0.45606695;fill:#000000;fill-opacity:1;filter:url(#filter4123)"
       d="m 13.333,5.3364 0,118.3304 49.8545,-0.0668 c 2.115554,-0.003 4.528919,-1.77169 7,-4.25 0.71234,-0.71442 1.440746,-1.39395 2.15625,-2.09375 0.415612,-0.40649 0.832187,-0.81443 1.25,-1.21875 7.773958,-7.40962 26.98341,-25.122599 34.21875,-33.099999 0.42065,-0.42064 0.81207,-0.8111 1.15625,-1.1875 1.46444,-1.49766 2.76158,-2.8378 2.99375,-5.8625 L 112,75.156251 111.9972,5.3364 z"
       id="path5990"
       inkscape:connector-curvature="0"
       sodipodi:nodetypes="ccsssccccccc"
       transform="matrix(1.003095,0,0,0.98228452,-1.7655506,0.69098557)" />
    <path
       sodipodi:type="inkscape:offset"
       inkscape:radius="1.0279198"
       inkscape:original="M 13.1875 4.53125 C 12.818918 4.609246 12.529956 4.967008 12.53125 5.34375 L 12.53125 123.65625 C 12.53885 124.07954 12.920464 124.4611 13.34375 124.46875 L 62.15625 124.46875 C 63.930251 124.46875 65.829207 124.74865 68.6875 122.8125 C 68.829003 122.58432 71.218784 120.82456 70.53125 121.25 C 80.188854 112.07585 98.162197 92.41186 109.34375 81.09375 C 111.06182 79.375681 112.8125 77.674752 112.8125 73.3125 L 112.8125 5.34375 C 112.80483 4.9204809 112.42327 4.5388981 112 4.53125 L 13.34375 4.53125 C 13.29182 4.52633 13.239428 4.52633 13.1875 4.53125 z "
       style="fill:#000000;fill-opacity:1;filter:url(#filter3814)"
       id="path3314"
       d="m 13.09375,3.5 a 1.0280226,1.0280226 0 0 0 -0.125,0.03125 C 12.083764,3.7185227 11.496893,4.4391709 11.5,5.34375 l 0,118.3125 a 1.0280226,1.0280226 0 0 0 0,0.0313 c 0.01849,1.02971 0.782949,1.79389 1.8125,1.8125 a 1.0280226,1.0280226 0 0 0 0.03125,0 l 48.8125,0 c 1.665878,0 4.022349,0.23675 7.09375,-1.84375 a 1.0280226,1.0280226 0 0 0 0.28125,-0.21875 c 0.0578,-0.0515 0.139644,-0.12864 0.25,-0.21875 0.220712,-0.18022 0.516774,-0.41745 0.78125,-0.625 0.264476,-0.20755 0.495635,-0.39648 0.65625,-0.53125 0.04015,-0.0337 0.07966,-0.051 0.125,-0.0937 0.02267,-0.0214 0.04798,-0.0408 0.09375,-0.0937 0.02288,-0.0265 0.04727,-0.051 0.09375,-0.125 0.0081,-0.013 0.01807,-0.0366 0.03125,-0.0625 9.780644,-9.33282 27.440979,-28.680919 38.5,-39.875 1.71105,-1.711053 3.78125,-3.862728 3.78125,-8.5 l 0,-67.96875 a 1.0280226,1.0280226 0 0 0 0,-0.03125 C 113.82509,4.2829723 113.06085,3.5186039 112.03125,3.5 A 1.0280226,1.0280226 0 0 0 112,3.5 l -98.5625,0 c -0.03179,-0.00301 -0.06191,0.00137 -0.09375,0 -0.08491,-0.00365 -0.165226,-0.00803 -0.25,0 z"
       transform="matrix(1.003095,0,0,0.98228452,-1.7655506,0.69098557)" />
    <path
       style="fill:#ffffff;fill-opacity:1"
       d="m 11.608716,5.836076 0,116.330904 49.485099,0 c 1.680486,0 3.926459,-0.55989 7.021752,-3.56934 8.897609,-8.6509 32.175353,-31.250103 39.456483,-38.511869 2.44813,-2.441635 3.01026,-4.433083 3.01026,-6.66676 l -0.003,-67.582935 z"
       id="path34"
       sodipodi:nodetypes="cccssccc"
       inkscape:connector-curvature="0" />
    <path
       style="fill:url(#linearGradient4524-4);fill-opacity:1"
       d="m 17.07938,10.744349 c -0.340895,0 -0.501546,0.230461 -0.501546,0.491142 l 0,104.549779 c 0,0.80702 0.681425,1.474 1.504643,1.47343 l 44.496615,-0.0308 c 0.05324,-4e-5 0.812893,0.0229 1.504643,0.0308 1.783165,-0.0393 3.141667,-0.74038 4.369516,-1.56504 1.055122,-0.28588 25.815399,-23.810974 34.964739,-32.837827 1.36662,-1.348301 2.19223,-3.878226 2.19223,-4.808882 l 0,-66.81146 c 0,-0.317 -0.16372,-0.491143 -0.50156,-0.491143 z"
       id="path3967"
       inkscape:connector-curvature="0"
       sodipodi:nodetypes="ccsssccscccc" />
    <path
       sodipodi:nodetypes="ccssscccccc"
       inkscape:connector-curvature="0"
       id="path5980"
       d="m 17.07938,10.744349 c -0.340895,0 -0.501546,0.230461 -0.501546,0.491142 l 0,104.549779 c 0,0.80703 0.68144,1.46853 1.504643,1.47343 l 46.36344,0.27591 c 0.05324,3.2e-4 3.284015,-0.008 3.975766,5e-5 6.561216,-4.42387 26.757215,-26.379267 35.730127,-35.221607 0.65937,-0.724227 0.45902,-0.363513 1.45841,-1.578984 l 0,-69.498578 c 0,-0.317 -0.16372,-0.491143 -0.50156,-0.491143 z"
       style="opacity:0.84653476;fill:url(#radialGradient5988-0);fill-opacity:1" />
    <path
       style="fill:#000000"
       d=""
       id="path2197" />
    <path
       clip-path="url(#clipPath6093-7)"
       style="opacity:0.6056338;fill:#000000;fill-opacity:1;stroke:none;filter:url(#filter6171-8)"
       d="m 114.4,82.502986 c 0,4.465301 -9.3766,4.299815 -11.85883,5.983488 -5.108537,3.46508 -16.574334,-0.810699 -22.355504,-0.729679 -0.081,5.781159 0.365076,18.386735 0.365076,24.536755 0,2.97817 -3.440475,11.20945 -6.350745,11.20945 -2.091359,1.5337 3.488204,8.21101 6.734971,5.31989 9.501888,-8.46107 35.131682,-30.022701 43.350822,-39.262886 2.04044,-2.29392 -4.90514,-9.844666 -9.88579,-7.057018 z"
       id="path6153"
       inkscape:connector-curvature="0"
       sodipodi:nodetypes="cscscssc"
       transform="matrix(1.258302,0,0,1.2610357,-31.355772,-28.164007)" />
    <g
       id="g5319"
       transform="matrix(3.0364356,0,0,3.0364356,-161.38609,-187.22343)"
       clip-path="url(#clipPath3226)">
      <path
         transform="matrix(1.1438172,0,0,1.1438172,-13.263403,-14.681362)"
         id="path4270"
         d="m 79.767374,71.536784 c -1.358296,0.02624 -3.01448,0.157968 -5.036106,0.425271 0,0 2.556404,0.596167 3.088811,1.477257 0.537872,0.87288 3.827441,6.670042 3.827441,6.670042 l -3.178343,1.835381 8.169684,-0.425271 4.49892,-6.849104 -3.290256,1.880147 -1.924911,-3.379787 c 0,0 -0.269294,-1.747627 -6.15524,-1.633936 z m -6.423833,1.208664 c -1.716255,0.190473 -2.685923,1.723468 -2.685923,1.723468 l -3.760292,6.40145 6.15524,3.603614 3.760292,-6.647661 c 0,0 1.298382,-3.412058 -1.522022,-4.722747 -0.72626,-0.335882 -1.375208,-0.421614 -1.947295,-0.358124 z m 17.346586,7.520585 -6.177623,3.581231 3.872207,6.558129 c 0,0 2.323322,2.852474 4.857043,1.051987 2.612909,-1.849741 1.141517,-4.722749 1.141517,-4.722749 z m -28.85129,3.24549 3.267873,1.90253 -1.947295,3.357403 c 0,0 -2.535467,2.47344 4.56607,10.318422 0,0 -0.740935,-2.288988 -0.268592,-3.424552 0.480537,-1.124622 3.849823,-6.670042 3.849823,-6.670042 l 3.178342,1.857764 -4.454156,-6.89387 z m 22.315544,6.334302 -3.693144,7.296759 3.693144,7.341526 0,-3.78268 3.894588,0 c 0,0 3.261535,0.9183 6.625278,-9.132138 0,0 -1.712258,1.947295 -2.842602,1.947295 l -7.677264,0 z m -4.275094,4.342244 -7.610116,0.06715 c 0,0 -3.599316,0.587441 -3.312638,3.693144 0.286685,3.182317 3.491701,3.335017 3.491701,3.335017 l 7.431053,0.0447 0,-7.140074 z"
         style="fill:#151f00;fill-opacity:0.38864626;filter:url(#filter5325)"
         inkscape:connector-curvature="0"
         sodipodi:nodetypes="sccccccccsscccccscccccccccccccccccccccsccccccccc" />
      <path
         inkscape:connector-curvature="0"
         style="fill:url(#radialGradient3220);fill-opacity:1"
         d="m 77.975896,66.299829 c -1.553643,0.03001 -3.448015,0.180686 -5.760385,0.486432 0,0 2.924059,0.681906 3.533035,1.689712 0.615227,0.998415 4.377893,7.629309 4.377893,7.629309 l -3.635444,2.09934 9.344626,-0.486432 5.145942,-7.834123 -3.763451,2.150544 -2.201747,-3.865858 c 0,0 -0.308023,-1.998966 -7.040469,-1.868924 z m -7.347691,1.38249 c -1.963083,0.217867 -3.072206,1.971333 -3.072206,1.971333 l -4.301086,7.322089 7.040469,4.121875 4.301087,-7.603709 c 0,0 1.485112,-3.902771 -1.740915,-5.401959 -0.830709,-0.384188 -1.572986,-0.48225 -2.227349,-0.409629 z m 19.841324,8.602175 -7.066072,4.096274 4.429097,7.501301 c 0,0 2.657456,3.262709 5.55557,1.203281 2.98869,-2.115766 1.305687,-5.401962 1.305687,-5.401962 l -4.224282,-7.398894 z m -33.000603,3.712248 3.737849,2.176146 -2.227349,3.840256 c 0,0 -2.900111,2.829163 5.222749,11.802389 0,0 -0.847494,-2.618184 -0.30722,-3.917062 0.549647,-1.286362 4.403494,-7.629309 4.403494,-7.629309 l 3.635442,2.124942 -5.09474,-7.885327 -9.370225,-0.512035 z m 25.524904,7.245283 -4.224282,8.346159 4.224282,8.397366 0,-4.32669 4.454697,0 c 0,0 3.7306,1.05036 7.578107,-10.445503 0,0 -1.95851,2.227349 -3.251417,2.227349 l -8.781387,0 0,-4.198681 z m -4.889926,4.966734 -8.704582,0.07681 c 0,0 -4.11696,0.671925 -3.789053,4.224282 0.327915,3.639989 3.993868,3.814649 3.993868,3.814649 l 8.499767,0.0511 0,-8.16694 z"
         id="path4012" />
      <path
         inkscape:connector-curvature="0"
         id="path4288"
         d="m 77.91875,66.3125 c -1.55365,0.03001 -3.43763,0.163004 -5.75,0.46875 0,0 0.23502,0.06243 0.5625,0.15625 2.03926,-0.253621 3.77217,-0.410162 5.1875,-0.4375 6.73244,-0.130042 7.0625,1.875 7.0625,1.875 l 2.1875,3.875 3.53125,-2.03125 0.21875,-0.34375 -3.75,2.15625 -2.1875,-3.875 c 0,0 -0.33006,-1.973792 -7.0625,-1.84375 z M 71.075,67.65625 c -0.17459,-0.005 -0.33641,0.0131 -0.5,0.03125 -1.96309,0.217867 -3.0625,1.96875 -3.0625,1.96875 l -4.3125,7.3125 0.0937,0.0625 4.21875,-7.1875 c 0,0 1.09941,-1.750883 3.0625,-1.96875 0.65436,-0.07262 1.38805,0.02206 2.21875,0.40625 1.59937,0.743253 2.05522,2.09366 2.09375,3.25 0.011,-1.203111 -0.39125,-2.646319 -2.09375,-3.4375 -0.62303,-0.288141 -1.19499,-0.422548 -1.71875,-0.4375 z m 8.90625,8.5 -3.53125,2.0625 0.34375,-0.03125 3.28125,-1.875 c 0,0 -0.0899,-0.149387 -0.0937,-0.15625 z m 10.4375,0.125 -7.0625,4.09375 0.0937,0.15625 6.96875,-4.03125 4.21875,7.375 c 0,0 0.41457,0.805546 0.46875,1.875 -0.0114,-1.160569 -0.46875,-2.0625 -0.46875,-2.0625 L 90.4187,76.28125 z m -33,3.71875 0.34375,0.21875 9.03125,0.5 4.90625,7.5625 0.1875,0.125 L 66.79375,80.5 57.41875,80 z M 61.075,82.3125 58.91875,86 c 0,0 -0.43312,0.472305 -0.46875,1.59375 0.0814,-0.970511 0.46875,-1.375 0.46875,-1.375 l 2.25,-3.84375 -0.0937,-0.0625 z m 21.875,4.9375 -4.21875,8.34375 0.0625,0.09375 4.15625,-8.25 0,-0.1875 z m 12.03125,1.96875 c 0,0 -1.9571,2.21875 -3.25,2.21875 l -8.78125,0 0,0.21875 8.78125,0 c 1.20475,0 2.91876,-1.892526 3.15625,-2.15625 0.0335,-0.0983 0.0602,-0.18105 0.0937,-0.28125 z m -16.9375,3 -8.6875,0.0625 c 0,0 -3.7455,0.617251 -3.8125,3.75 C 65.74979,93.058478 69.35625,92.5 69.35625,92.5 l 8.6875,-0.09375 0,-0.1875 z m -14.34375,3.5 c 0.073,0.881115 0.26946,1.669357 0.375,2.03125 0.0211,0.0234 0.0412,0.03901 0.0625,0.0625 0,0 -0.32111,-1.009595 -0.4375,-2.09375 z"
         style="fill:#ffffff;fill-opacity:0.86026204" />
      <path
         d="m 77.96875,66.53125 c -1.292256,0.02496 -2.874409,0.13442 -4.6875,0.34375 0.239226,0.07189 0.2443,0.08225 0.53125,0.1875 0.805007,0.295282 1.710588,0.688355 2.09375,1.28125 0.0075,0.01156 0.02417,0.01954 0.03125,0.03125 0.64948,1.057215 4.375,7.625 4.375,7.625 a 0.20890018,0.20890018 0 0 1 0.03125,0.0625 0.20890018,0.20890018 0 0 1 0,0.0625 0.20890018,0.20890018 0 0 1 -0.03125,0.0625 0.20890018,0.20890018 0 0 1 -0.09375,0.09375 L 77.375,77.96875 85.71875,77.5 l 4.5625,-7 -2.96875,1.71875 A 0.20890018,0.20890018 0 0 1 87.25,72.25 a 0.20890018,0.20890018 0 0 1 -0.0625,0 0.20890018,0.20890018 0 0 1 -0.03125,-0.03125 0.20890018,0.20890018 0 0 1 -0.125,-0.09375 L 84.84375,68.25 A 0.20890018,0.20890018 0 0 1 84.8125,68.1875 c 0,0 0.01577,0.007 0,-0.03125 -0.01577,-0.03821 -0.03608,-0.109974 -0.09375,-0.1875 C 84.603411,67.813698 84.375706,67.601291 83.9375,67.375 83.061087,66.922417 81.314506,66.466624 77.96875,66.53125 z m -7.3125,1.375 C 68.84218,68.107579 67.78985,69.688254 67.75,69.75 l 0,0.03125 -4.21875,7.125 6.6875,3.90625 4.1875,-7.375 c 0,0 -3.83e-4,-0.03021 0,-0.03125 0.01588,-0.04298 0.344576,-0.940875 0.3125,-2.03125 -0.03285,-1.116649 -0.429667,-2.378513 -1.96875,-3.09375 -0.800047,-0.370008 -1.476182,-0.443538 -2.09375,-0.375 z m 19.75,8.65625 -6.71875,3.875 L 88,87.75 l 0.03125,0.03125 c 0.0421,0.05138 0.648811,0.760779 1.59375,1.28125 0.978645,0.539036 2.24295,0.857098 3.625,-0.125 1.437636,-1.017737 1.730906,-2.305801 1.6875,-3.34375 C 94.894094,84.555801 94.5,83.78125 94.5,83.78125 L 90.40625,76.5625 z M 58.34375,80.25 61.3125,82 a 0.20890018,0.20890018 0 0 1 0.03125,0.03125 0.20890018,0.20890018 0 0 1 0.0625,0.0625 0.20890018,0.20890018 0 0 1 0,0.03125 0.20890018,0.20890018 0 0 1 0.03125,0.0625 0.20890018,0.20890018 0 0 1 -0.03125,0.0625 0.20890018,0.20890018 0 0 1 0,0.03125 l -2.25,3.8125 A 0.20890018,0.20890018 0 0 1 59.125,86.125 a 0.20890018,0.20890018 0 0 1 0,0.03125 c 0,0 -0.147986,0.127378 -0.28125,0.5 -0.133264,0.372622 -0.233564,0.958722 -0.09375,1.84375 0.264093,1.67172 1.49548,4.439985 5.03125,8.5 -0.06235,-0.252173 -0.09772,-0.279258 -0.15625,-0.625 -0.140484,-0.82978 -0.20984,-1.832637 0.09375,-2.5625 0.295472,-0.691507 1.372598,-2.565701 2.40625,-4.3125 1.033652,-1.746799 2,-3.3125 2,-3.3125 a 0.20890018,0.20890018 0 0 1 0.0625,-0.0625 0.20890018,0.20890018 0 0 1 0.03125,-0.03125 0.20890018,0.20890018 0 0 1 0.0625,-0.03125 0.20890018,0.20890018 0 0 1 0.0625,0 0.20890018,0.20890018 0 0 1 0.03125,0.03125 0.20890018,0.20890018 0 0 1 0.03125,0 L 71.25,87.75 66.71875,80.71875 58.34375,80.25 z m 24.4375,7.90625 -3.75,7.4375 3.75,7.5 0,-3.4375 a 0.20890018,0.20890018 0 0 1 0,-0.03125 0.20890018,0.20890018 0 0 1 0.03125,-0.0625 0.20890018,0.20890018 0 0 1 0.125,-0.09375 A 0.20890018,0.20890018 0 0 1 83,99.4375 l 4.4375,0 a 0.20890018,0.20890018 0 0 1 0.03125,0 0.20890018,0.20890018 0 0 1 0.03125,0.03125 c 0,0 0.155738,0.04215 0.53125,-0.03125 0.375512,-0.0734 0.939607,-0.276872 1.625,-0.84375 1.28998,-1.066924 3.044921,-3.517463 4.84375,-8.5625 -0.192377,0.191404 -0.19961,0.239388 -0.46875,0.46875 -0.663878,0.565759 -1.484061,1.15625 -2.25,1.15625 l -8.78125,0 a 0.20890018,0.20890018 0 0 1 -0.03125,0 A 0.20890018,0.20890018 0 0 1 82.90625,91.625 0.20890018,0.20890018 0 0 1 82.8125,91.5 0.20890018,0.20890018 0 0 1 82.78125,91.4375 l 0,-3.28125 z M 77.875,92.4375 69.4375,92.5 l -0.03125,0 c -0.045,0.0076 -0.982934,0.178352 -1.90625,0.75 -0.945565,0.585422 -1.812753,1.523283 -1.65625,3.21875 0.157786,1.751485 1.092926,2.649981 2,3.125 0.907074,0.47502 1.75,0.5 1.75,0.5 l 8.28125,0.0625 0,-7.71875 z"
         id="path5315"
         style="fill:url(#radialGradient3222);fill-opacity:1"
         inkscape:original="M 77.96875 66.3125 C 76.415107 66.34251 74.53112 66.475504 72.21875 66.78125 C 72.21875 66.78125 75.141024 67.460944 75.75 68.46875 C 76.365227 69.467165 80.125 76.09375 80.125 76.09375 L 76.5 78.21875 L 85.84375 77.71875 L 90.96875 69.875 L 87.21875 72.03125 L 85.03125 68.15625 C 85.03125 68.15625 84.701196 66.182458 77.96875 66.3125 z M 70.625 67.6875 C 68.661917 67.905367 67.5625 69.65625 67.5625 69.65625 L 63.25 76.96875 L 70.28125 81.09375 L 74.59375 73.5 C 74.59375 73.5 76.069777 69.592938 72.84375 68.09375 C 72.013041 67.709562 71.279363 67.614879 70.625 67.6875 z M 90.46875 76.28125 L 83.40625 80.375 L 87.84375 87.875 C 87.84375 87.875 90.476886 91.153178 93.375 89.09375 C 96.36369 86.977984 94.6875 83.6875 94.6875 83.6875 L 90.46875 76.28125 z M 57.46875 80 L 61.21875 82.1875 L 58.96875 86 C 58.96875 86 56.06464 88.839274 64.1875 97.8125 C 64.1875 97.8125 63.365976 95.205128 63.90625 93.90625 C 64.455897 92.619888 68.3125 86.28125 68.3125 86.28125 L 71.9375 88.40625 L 66.84375 80.5 L 57.46875 80 z M 83 87.25 L 78.78125 95.59375 L 83 104 L 83 99.65625 L 87.4375 99.65625 C 87.4375 99.65625 91.183743 100.71461 95.03125 89.21875 C 95.03125 89.21875 93.074157 91.4375 91.78125 91.4375 L 83 91.4375 L 83 87.25 z M 78.09375 92.21875 L 69.40625 92.28125 C 69.40625 92.28125 65.297093 92.947643 65.625 96.5 C 65.952915 100.13999 69.59375 100.3125 69.59375 100.3125 L 78.09375 100.375 L 78.09375 92.21875 z "
         inkscape:radius="-0.20887929"
         sodipodi:type="inkscape:offset" />
    </g>
    <path
       sodipodi:nodetypes="cscscssc"
       inkscape:connector-curvature="0"
       id="path6081"
       d="m 113.9,82.502986 c 0,4.465301 -7.96273,7.457662 -10.95287,7.881439 -6.394981,0.906328 -15.304541,-0.844131 -21.085711,-0.763111 -0.081,5.781159 3.397918,20.001056 -0.06716,25.109596 -1.68367,2.48224 -3.883991,8.07209 -6.794261,8.07209 -2.091359,1.5337 3.488204,11.21101 6.734971,8.31989 9.501888,-8.46107 45.998943,-30.20138 54.218083,-39.441569 2.04044,-2.29392 -17.0724,-11.965986 -22.05305,-9.178335 z"
       style="opacity:0.64319249;fill:#000000;fill-opacity:1;stroke:none;filter:url(#filter4087)"
       clip-path="url(#clipPath6093-7)"
       transform="matrix(1.3586765,0,0,1.3616521,-42.382653,-40.155635)" />
    <path
       style="fill:url(#linearGradient3895-3);fill-opacity:1;stroke:none"
       d="m 110.63455,70.194961 c 0,6.22666 -3.89615,8.938389 -7.35324,11.28619 -7.11485,4.831902 -21.758838,3.808851 -29.810472,3.92183 -0.112812,8.061568 0.720236,21.530529 -4.105701,28.654139 -2.344905,3.46138 -6.904898,8.42993 -10.95813,8.42993 3.228399,0 6.605514,-1.86127 10.562523,-5.69609 12.732335,-12.33915 24.187814,-22.50002 35.75589,-35.27627 2.67259,-2.951702 5.90913,-5.078441 5.90913,-11.319729 z"
       id="path6011"
       inkscape:connector-curvature="0"
       sodipodi:nodetypes="cscscssc" />
    <path
       style="fill:#ffffff;fill-opacity:1;stroke:none"
       d="m 110.66063,69.760596 c -0.44065,5.437134 -4.51314,7.338042 -6.73057,8.843942 -5.25734,3.570397 -12.241076,3.279514 -34.154353,3.279514 0,19.761338 0.513212,28.553598 -3.305002,33.382518 -2.272989,2.87466 -6.824021,6.07997 -10.532933,6.90254 5.082113,0 8.629228,-1.08751 11.949253,-4.30502 0.472301,-0.5418 1.415698,-1.55003 2.15657,-2.69493 3.94064,-5.81684 3.837814,-17.294735 3.837814,-29.263474 8.051633,-0.11295 22.202451,1.162156 29.317291,-3.669742 0.64822,-0.440215 2.63774,-2.020759 3.2183,-2.58944 3.22475,-3.158721 3.92397,-5.17219 4.24363,-9.885908 z M 55.937772,122.16911 c -0.219575,0.0485 -0.436533,0.0579 -0.652846,0.087 0.218648,-0.0234 0.432367,-0.0468 0.652846,-0.087 z"
       id="path6122"
       inkscape:connector-curvature="0"
       sodipodi:nodetypes="cscsccccsscccc" />
    <path
       style="fill:none;stroke:url(#radialGradient3919-5);stroke-width:1.82707405;stroke-linecap:butt;stroke-linejoin:miter;stroke-miterlimit:4;stroke-opacity:1;stroke-dasharray:none;filter:url(#filter3909-6)"
       d="M 108.97651,89.508691 79.934895,118.21077"
       id="path3873"
       inkscape:connector-curvature="0"
       sodipodi:nodetypes="cc"
       clip-path="url(#clipPath3889-6)"
       transform="matrix(1.3927341,0,0,1.3944553,-45.351691,-44.851769)" />
    <path
       style="opacity:0.45606695;fill:#000000;fill-opacity:1;filter:url(#filter4123-6)"
       d="m 13.333,5.3364 0,118.3304 49.8545,-0.0668 c 2.115554,-0.003 4.528919,-1.77169 7,-4.25 0.71234,-0.71442 1.440746,-1.39395 2.15625,-2.09375 0.415612,-0.40649 0.832187,-0.81443 1.25,-1.21875 7.773958,-7.40962 26.98341,-25.122599 34.21875,-33.099999 0.42065,-0.42064 0.81207,-0.8111 1.15625,-1.1875 1.46444,-1.49766 2.76158,-2.8378 2.99375,-5.8625 L 112,75.156251 111.9972,5.3364 z"
       id="path5990-7"
       inkscape:connector-curvature="0"
       sodipodi:nodetypes="ccsssccccccc"
       transform="matrix(1.013528,0,0,1.013266,-367.57018,-95.749204)" />
    <path
       style="fill:#ffffff;fill-opacity:1"
       d="m -354.05681,-90.441836 0,120 49.99978,0 c 1.69797,0 3.9673,-0.57754 7.09479,-3.68191 8.99015,-8.92376 32.51,-32.235741 39.86686,-39.726545 2.47359,-2.518643 3.04157,-4.572903 3.04157,-6.87703 l -0.003,-69.714515 z"
       id="path34-2"
       sodipodi:nodetypes="cccssccc"
       inkscape:connector-curvature="0" />
    <path
       style="fill:url(#linearGradient3215);fill-opacity:1"
       d="m -350.55005,-87.441836 c -0.34444,0 -0.50676,0.23773 -0.50676,0.506633 l 0,111.973457 c 0,0.83248 0.68851,1.5205 1.52029,1.51991 l 44.95942,-0.0317 c 0.0538,-4e-5 0.82135,0.0237 1.52029,0.0317 1.80171,-0.0406 3.17434,-0.76374 4.41496,-1.61442 1.0661,-0.29489 30.12551,-28.688123 39.37,-37.999684 1.38084,-1.390828 2.21504,-4.000546 2.21504,-4.960555 l 0,-68.918708 c 0,-0.326998 -0.16543,-0.506633 -0.50677,-0.506633 z"
       id="path3967-6"
       inkscape:connector-curvature="0"
       sodipodi:nodetypes="ccsssccscccc" />
    <path
       sodipodi:nodetypes="ccssscccccc"
       inkscape:connector-curvature="0"
       id="path5980-1"
       d="m -350.55005,-87.441836 c -0.34444,0 -0.50676,0.23773 -0.50676,0.506633 l 0,111.973457 c 0,0.83249 0.68853,1.51486 1.52029,1.51991 l 46.84566,0.2846 c 0.0538,3.3e-4 3.31817,-0.008 4.01712,5e-5 6.62945,-4.5634 31.07711,-31.337425 40.14335,-40.458653 0.66623,-0.74707 0.46379,-0.37498 1.47358,-1.628786 l 0,-71.690578 c 0,-0.326998 -0.16543,-0.506633 -0.50677,-0.506633 z"
       style="opacity:0.84653476;fill:url(#radialGradient3212);fill-opacity:1" />
    <path
       inkscape:connector-curvature="0"
       style="fill:#000000"
       d=""
       id="path2197-0" />
    <path
       clip-path="url(#clipPath6093-7-8)"
       style="opacity:0.34728035;fill:#000000;fill-opacity:1;stroke:none;filter:url(#filter6171-8-2)"
       d="m 114.4,82.502986 c 0,4.465301 -6.19771,3.506816 -8.67994,5.190489 -5.10854,3.46508 -20.174689,2.225237 -25.955859,2.306257 -0.081,5.781159 0.786541,16.143798 0.786541,22.293818 0,2.97817 -3.440475,11.20945 -6.350745,11.20945 -2.091359,1.5337 3.488204,8.21101 6.734971,5.31989 9.501888,-8.46107 35.131682,-30.022704 43.350822,-39.262889 2.04044,-2.29392 -4.90514,-9.844666 -9.88579,-7.057015 z"
       id="path6153-6"
       inkscape:connector-curvature="0"
       sodipodi:nodetypes="cscscssc"
       transform="matrix(1.2713893,0,0,1.3008089,-397.46816,-125.51429)" />
    <path
       sodipodi:nodetypes="cscscssc"
       inkscape:connector-curvature="0"
       id="path6081-1"
       d="m 113.9,82.502986 c 0,4.465301 -7.96273,11.129672 -10.95287,11.553449 -6.394981,0.906328 -15.824979,-3.47754 -21.606149,-3.39652 -0.081,5.781159 3.918356,18.962455 0.453276,24.070995 -1.68367,2.48224 -3.883991,8.07209 -6.794261,8.07209 -2.091359,1.5337 3.488204,11.21101 6.734971,8.31989 9.501888,-8.46107 45.998943,-30.20138 54.218083,-39.441569 2.04044,-2.29392 -17.0724,-11.965986 -22.05305,-9.178335 z"
       style="opacity:0.49295774;fill:#000000;fill-opacity:1;stroke:none;filter:url(#filter4087-9)"
       clip-path="url(#clipPath6093-7-8)"
       transform="matrix(1.323697,0,0,1.3543271,-403.32762,-131.82501)" />
    <path
       style="fill:url(#linearGradient3201);fill-opacity:1;stroke:none"
       d="m -254.24989,-22.068045 c 0,6.193164 -3.79585,8.890306 -7.16393,11.225476 -6.93167,4.805908 -21.19865,3.788362 -29.04299,3.900733 -0.10991,8.0182 0.70169,21.4147 -4,28.5 -2.28453,3.44276 -6.72713,8.38457 -10.67601,8.38457 3.14528,0 6.43545,-1.85125 10.29059,-5.66544 12.40454,-12.27278 23.56509,-22.378984 34.83534,-35.086504 2.60379,-2.935824 5.757,-5.051122 5.757,-11.258835 z"
       id="path6011-5"
       inkscape:connector-curvature="0"
       sodipodi:nodetypes="cscscssc" />
    <path
       style="fill:#ffffff;fill-opacity:1;stroke:none"
       d="m -254.22447,-22.500074 c -0.42932,5.407885 -4.39696,7.298568 -6.55729,8.796367 -5.122,3.551191 -11.92594,3.261871 -33.27505,3.261871 0,19.65502 0.5,28.4 -3.21991,33.20293 -2.21447,2.85919 -6.64834,6.04727 -10.26176,6.86542 4.95127,0 8.40706,-1.08166 11.64161,-4.28186 0.46014,-0.53889 1.37925,-1.54169 2.10105,-2.68043 3.83919,-5.78555 3.73901,-17.201707 3.73901,-29.10606 7.84434,-0.112342 21.63084,1.155905 28.5625,-3.65 0.63154,-0.437847 2.56984,-2.009889 3.13546,-2.57551 3.14173,-3.14173 3.82294,-5.144366 4.13438,-9.832728 z m -53.31401,52.126588 c -0.21392,0.0483 -0.4253,0.0575 -0.63604,0.0866 0.21302,-0.0234 0.42123,-0.0465 0.63604,-0.0866 z"
       id="path6122-9"
       inkscape:connector-curvature="0"
       sodipodi:nodetypes="cscsccccsscccc" />
    <path
       style="fill:none;stroke:url(#radialGradient3919-5-7);stroke-width:1.85605633;stroke-linecap:butt;stroke-linejoin:miter;stroke-miterlimit:4;stroke-opacity:1;stroke-dasharray:none;filter:url(#filter3909-6-7)"
       d="M 108.97651,89.508691 79.934895,118.21077"
       id="path3873-4"
       inkscape:connector-curvature="0"
       sodipodi:nodetypes="cc"
       clip-path="url(#clipPath3889-6-5)"
       transform="matrix(1.3568778,0,0,1.3869539,-406.22022,-136.49588)" />
  </g>
</svg>
