<?xml version="1.0" encoding="UTF-8" standalone="no"?>
<!-- Created with Inkscape (http://www.inkscape.org/) -->
<svg
   xmlns:dc="http://purl.org/dc/elements/1.1/"
   xmlns:cc="http://web.resource.org/cc/"
   xmlns:rdf="http://www.w3.org/1999/02/22-rdf-syntax-ns#"
   xmlns:svg="http://www.w3.org/2000/svg"
   xmlns="http://www.w3.org/2000/svg"
   xmlns:xlink="http://www.w3.org/1999/xlink"
   xmlns:sodipodi="http://sodipodi.sourceforge.net/DTD/sodipodi-0.dtd"
   xmlns:inkscape="http://www.inkscape.org/namespaces/inkscape"
   width="22"
   height="22"
   id="svg2"
   sodipodi:version="0.32"
   inkscape:version="0.45.1"
   version="1.0"
   sodipodi:docbase="/home/david/Icons/Oxygen/trunk/scalable/categories/small/22x22"
   sodipodi:docname="applications-other.svgz"
   inkscape:output_extension="org.inkscape.output.svgz.inkscape"
   inkscape:export-filename="/home/david/Icons/Oxygen/trunk/scalable/categories/small/22x22/applications-other.png"
   inkscape:export-xdpi="90"
   inkscape:export-ydpi="90">
  <defs
     id="defs4">
    <linearGradient
       inkscape:collect="always"
       id="linearGradient3330">
      <stop
         style="stop-color:#000000;stop-opacity:1;"
         offset="0"
         id="stop3332" />
      <stop
         style="stop-color:#000000;stop-opacity:0;"
         offset="1"
         id="stop3334" />
    </linearGradient>
    <linearGradient
       inkscape:collect="always"
       id="linearGradient3220">
      <stop
         style="stop-color:#2f64ac;stop-opacity:1;"
         offset="0"
         id="stop3222" />
      <stop
         style="stop-color:#2f64ac;stop-opacity:0;"
         offset="1"
         id="stop3224" />
    </linearGradient>
    <linearGradient
       inkscape:collect="always"
       id="linearGradient3205">
      <stop
         style="stop-color:#a4c0e4;stop-opacity:1;"
         offset="0"
         id="stop3207" />
      <stop
         style="stop-color:#dbe6f5;stop-opacity:1"
         offset="1"
         id="stop3209" />
    </linearGradient>
    <linearGradient
       inkscape:collect="always"
       id="linearGradient3157">
      <stop
         style="stop-color:#aac5e5;stop-opacity:1"
         offset="0"
         id="stop3159" />
      <stop
         style="stop-color:#397aca;stop-opacity:1"
         offset="1"
         id="stop3161" />
    </linearGradient>
    <linearGradient
       inkscape:collect="always"
       id="linearGradient3145">
      <stop
         style="stop-color:#eeeeec;stop-opacity:1"
         offset="0"
         id="stop3147" />
      <stop
         style="stop-color:#ffffff;stop-opacity:1"
         offset="1"
         id="stop3149" />
    </linearGradient>
    <linearGradient
       inkscape:collect="always"
       xlink:href="#linearGradient3145"
       id="linearGradient3151"
       x1="22.312057"
       y1="12.263187"
       x2="7.8301668"
       y2="4.6025558"
       gradientUnits="userSpaceOnUse"
       gradientTransform="matrix(1,0,0,0.9444444,0,0.1111111)" />
    <linearGradient
       inkscape:collect="always"
       xlink:href="#linearGradient3157"
       id="linearGradient3163"
       x1="7"
       y1="16"
       x2="20"
       y2="16"
       gradientUnits="userSpaceOnUse" />
    <linearGradient
       inkscape:collect="always"
       xlink:href="#linearGradient3157"
       id="linearGradient3167"
       gradientUnits="userSpaceOnUse"
       x1="13.499998"
       y1="14.82112"
       x2="13.499998"
       y2="17.003796"
       gradientTransform="matrix(0.5384616,0,0,3.5,6.2307692,-47.5)" />
    <linearGradient
       inkscape:collect="always"
       xlink:href="#linearGradient3205"
       id="linearGradient3211"
       x1="9.019311"
       y1="21.640968"
       x2="5.3365946"
       y2="12.507066"
       gradientUnits="userSpaceOnUse" />
    <linearGradient
       inkscape:collect="always"
       xlink:href="#linearGradient3205"
       id="linearGradient3217"
       gradientUnits="userSpaceOnUse"
       x1="7.3748031"
       y1="18.979528"
       x2="5.1795278"
       y2="13.055119" />
    <radialGradient
       inkscape:collect="always"
       xlink:href="#linearGradient3220"
       id="radialGradient3226"
       cx="6.078125"
       cy="15.90625"
       fx="6.078125"
       fy="15.90625"
       r="4.640625"
       gradientTransform="matrix(2.1447858,-2.1447858,0.3382312,0.3382311,-12.338141,23.562536)"
       gradientUnits="userSpaceOnUse" />
    <filter
       inkscape:collect="always"
       x="-0.0612"
       width="1.1224"
       y="-0.459"
       height="1.918"
       id="filter3322">
      <feGaussianBlur
         inkscape:collect="always"
         stdDeviation="0.3825"
         id="feGaussianBlur3324" />
    </filter>
    <radialGradient
       inkscape:collect="always"
       xlink:href="#linearGradient3330"
       id="radialGradient3336"
       cx="6"
       cy="20.27874"
       fx="6"
       fy="20.27874"
       r="5"
       gradientTransform="matrix(1,0,0,0.2031496,0,16.661483)"
       gradientUnits="userSpaceOnUse" />
  </defs>
  <sodipodi:namedview
     id="base"
     pagecolor="#ffffff"
     bordercolor="#666666"
     borderopacity="1.0"
     gridtolerance="10000"
     guidetolerance="10"
     objecttolerance="10"
     inkscape:pageopacity="0.0"
     inkscape:pageshadow="2"
     inkscape:zoom="1"
     inkscape:cx="11"
     inkscape:cy="11"
     inkscape:document-units="px"
     inkscape:current-layer="layer1"
     width="22px"
     height="22px"
     showgrid="false"
     gridempspacing="4"
     showborder="false"
     inkscape:window-width="748"
     inkscape:window-height="734"
     inkscape:window-x="0"
     inkscape:window-y="0" />
  <metadata
     id="metadata7">
    <rdf:RDF>
      <cc:Work
         rdf:about="">
        <dc:format>image/svg+xml</dc:format>
        <dc:type
           rdf:resource="http://purl.org/dc/dcmitype/StillImage" />
      </cc:Work>
    </rdf:RDF>
  </metadata>
  <g
     inkscape:label="Layer 1"
     inkscape:groupmode="layer"
     id="layer1">
    <path
       id="path3326"
       d="M 6,19.765354 C 3.24,19.765354 1,20.22041 1,20.781101 C 1,21.341795 3.24,21.79685 6,21.79685 C 8.76,21.79685 11,21.341795 11,20.781101 C 11,20.22041 8.76,19.765354 6,19.765354 z "
       style="opacity:0.57;fill:url(#radialGradient3336);fill-opacity:1;stroke:none;stroke-width:1;stroke-linecap:round;stroke-linejoin:round;stroke-miterlimit:4;stroke-dasharray:none;stroke-opacity:1"
       sodipodi:nodetypes="csssc" />
    <rect
       y="18.103937"
       x="6.0692911"
       height="2"
       width="15"
       id="rect3230"
       style="opacity:0.4;fill:#000000;fill-opacity:1;stroke:none;stroke-width:1;stroke-linecap:round;stroke-linejoin:round;stroke-miterlimit:4;stroke-dasharray:none;stroke-opacity:1;filter:url(#filter3322)"
       transform="matrix(1.0508136,0,0,1.1559055,-0.6895052,-2.8225036)" />
    <path
       style="opacity:0.5;fill:#000000;fill-opacity:1;stroke:none;stroke-width:1;stroke-linecap:round;stroke-linejoin:round;stroke-miterlimit:4;stroke-opacity:1"
       d="M 6.5,1.5 L 20.5,1.5 L 20.5,19.5 L 6.5,19.5 L 6.5,1.5 z "
       id="rect3143"
       sodipodi:nodetypes="ccccc" />
    <rect
       style="opacity:1;fill:url(#linearGradient3151);fill-opacity:1;stroke:none;stroke-width:1;stroke-linecap:round;stroke-linejoin:round;stroke-miterlimit:4;stroke-dasharray:none;stroke-opacity:1"
       id="rect2170"
       width="13"
       height="17"
       x="7"
       y="2" />
    <rect
       y="15"
       x="7"
       height="2"
       width="13"
       id="rect3153"
       style="opacity:1;fill:url(#linearGradient3163);fill-opacity:1.0;stroke:none;stroke-width:1;stroke-linecap:round;stroke-linejoin:round;stroke-miterlimit:4;stroke-dasharray:none;stroke-opacity:1" />
    <rect
       style="opacity:1;fill:url(#linearGradient3167);fill-opacity:1;stroke:none;stroke-width:1;stroke-linecap:round;stroke-linejoin:round;stroke-miterlimit:4;stroke-dasharray:none;stroke-opacity:1"
       id="rect3165"
       width="7"
       height="7"
       x="10"
       y="5"
       rx="0.76220471"
       ry="0.76220471" />
    <path
       style="fill:none;fill-rule:evenodd;stroke:#eeeeec;stroke-width:1px;stroke-linecap:round;stroke-linejoin:round;stroke-opacity:1"
       d="M 13.5,6.375 L 13.5,8.625"
       id="path3173" />
    <path
       style="fill:none;fill-rule:evenodd;stroke:#eeeeec;stroke-width:1.00000012px;stroke-linecap:round;stroke-linejoin:round;stroke-opacity:1"
       d="M 15.5,6.5000002 L 15.5,6.5000002 L 13.5,7.5000003 L 15.5,8.5000003"
       id="path3175" />
    <path
       sodipodi:type="arc"
       style="opacity:0.87000002;fill:none;fill-opacity:1;stroke:#ffffff;stroke-width:0.79985744;stroke-linecap:round;stroke-linejoin:round;stroke-miterlimit:4;stroke-dasharray:none;stroke-opacity:1"
       id="path3177"
       sodipodi:cx="13.581102"
       sodipodi:cy="10.255118"
       sodipodi:rx="1.8015748"
       sodipodi:ry="1.4204724"
       d="M 14.376401,11.529691 A 1.8015748,1.4204724 0 0 1 12.020893,9.5448822"
       transform="matrix(1.1101397,0,0,1.4079824,-1.569206,-5.9392745)"
       sodipodi:start="1.1135865"
       sodipodi:end="3.6651914"
       sodipodi:open="true" />
    <rect
       style="opacity:1;fill:#888a85;fill-opacity:1;stroke:none;stroke-width:1;stroke-linecap:round;stroke-linejoin:round;stroke-miterlimit:4;stroke-dasharray:none;stroke-opacity:1"
       id="rect3179"
       width="1"
       height="2"
       x="18"
       y="3" />
    <path
       style="opacity:1;fill:url(#linearGradient3211);fill-opacity:1.0;stroke:none;stroke-width:1;stroke-linecap:round;stroke-linejoin:round;stroke-miterlimit:4;stroke-dasharray:none;stroke-opacity:1"
       d="M 6,11 C 3.24,11 1,13.24 1,16 C 1,18.76 3.24,21 6,21 C 8.76,21 11,18.76 11,16 C 11,13.24 8.76,11 6,11 z M 6,14 C 7.104001,14 8,14.895999 8,16 C 8.000001,17.104001 7.104001,18 6,18 C 4.896,17.999999 4,17.104001 4,16 C 3.999999,14.896 4.895999,14 6,14 z "
       id="path3184" />
    <path
       style="opacity:1;fill:#4c83ca;fill-opacity:1;stroke:none;stroke-width:1;stroke-linecap:round;stroke-linejoin:round;stroke-miterlimit:4;stroke-dasharray:none;stroke-opacity:1"
       d="M 6,14 C 4.896,14 3.9999993,14.896 4,16 C 4,17.104 4.8959993,18 6,18 C 7.104,18 7.9999993,17.104 8,16 C 8,14.896 7.1039993,14 6,14 z M 6,14.666667 C 6.7360007,14.666667 7.3333333,15.263999 7.3333333,16 C 7.333334,16.736001 6.7360007,17.333333 6,17.333333 C 5.264,17.333333 4.6666667,16.736001 4.6666667,16 C 4.666666,15.264 5.2639993,14.666667 6,14.666667 z "
       id="path3186" />
    <path
       style="opacity:1;fill:url(#radialGradient3226);fill-opacity:1.0;stroke:none;stroke-width:1;stroke-linecap:round;stroke-linejoin:round;stroke-miterlimit:4;stroke-dasharray:none;stroke-opacity:1"
       d="M 8.34375 11.625 L 6.96875 14.25 C 7.4445644 14.512784 7.798826 14.961431 7.9375 15.5 L 10.71875 14.40625 C 10.31019 13.20363 9.446433 12.220224 8.34375 11.625 z M 4.1875 16.8125 L 1.4375 17.96875 C 1.8284562 18.870661 2.4673862 19.65411 3.28125 20.1875 L 5.09375 17.78125 C 4.6864494 17.574366 4.3750656 17.230777 4.1875 16.8125 z "
       id="path3213" />
    <path
       style="opacity:1;fill:#4880c9;fill-opacity:1;stroke:none;stroke-width:1;stroke-linecap:round;stroke-linejoin:round;stroke-miterlimit:4;stroke-dasharray:none;stroke-opacity:1"
       d="M 6,11 C 3.24,11 1,13.24 1,16 C 1,18.76 3.24,21 6,21 C 8.76,21 11,18.76 11,16 C 11,13.24 8.76,11 6,11 z M 6,12 C 8.208,12 10,13.792 10,16 C 9.999998,18.207999 8.208,20 6,20 C 3.792001,19.999999 2,18.208 2,16 C 2.000001,13.791999 3.792,12 6,12 z "
       id="path3199" />
  </g>
</svg>
