<?xml version="1.0" encoding="UTF-8" standalone="no"?>
<!-- Generator: Adobe Illustrator 12.0.0, SVG Export Plug-In . SVG Version: 6.00 Build 51448)  -->
<svg
   xmlns:ns="http://ns.adobe.com/SaveForWeb/1.0/"
   xmlns:dc="http://purl.org/dc/elements/1.1/"
   xmlns:cc="http://creativecommons.org/ns#"
   xmlns:rdf="http://www.w3.org/1999/02/22-rdf-syntax-ns#"
   xmlns:svg="http://www.w3.org/2000/svg"
   xmlns="http://www.w3.org/2000/svg"
   xmlns:xlink="http://www.w3.org/1999/xlink"
   xmlns:sodipodi="http://sodipodi.sourceforge.net/DTD/sodipodi-0.dtd"
   xmlns:inkscape="http://www.inkscape.org/namespaces/inkscape"
   version="1.1"
   id="Layer_1"
   width="128"
   height="128"
   viewBox="0 0 128 128"
   overflow="visible"
   enable-background="new 0 0 128 128"
   xml:space="preserve"
   sodipodi:version="0.32"
   inkscape:version="0.46"
   sodipodi:docname="archive-extract.svgz"
   sodipodi:docbase="/Users/david/Desktop/sandbox"
   inkscape:output_extension="org.inkscape.output.svgz.inkscape"
   inkscape:export-filename="/home/pinheiro/pics/oxygen/scalable/actions/small/22x22/archive-extract.png"
   inkscape:export-xdpi="123.75"
   inkscape:export-ydpi="123.75"><defs
   id="defs105"><inkscape:perspective
     sodipodi:type="inkscape:persp3d"
     inkscape:vp_x="0 : 64 : 1"
     inkscape:vp_y="0 : 1000 : 0"
     inkscape:vp_z="128 : 64 : 1"
     inkscape:persp3d-origin="64 : 42.666667 : 1"
     id="perspective132" /><linearGradient
     y2="95.293"
     x2="87.293"
     y1="103"
     x1="95"
     gradientUnits="userSpaceOnUse"
     id="linearGradient4175">
	<stop
   id="stop4177"
   style="stop-color:#000000;stop-opacity:1"
   offset="0" />
	<stop
   id="stop4179"
   style="stop-color:#393B38"
   offset="1" />
</linearGradient><linearGradient
     id="linearGradient3225"><stop
       style="stop-color:#ffffff;stop-opacity:1;"
       offset="0"
       id="stop3227" /><stop
       style="stop-color:#aeaeae;stop-opacity:1;"
       offset="1"
       id="stop3229" /></linearGradient><linearGradient
     inkscape:collect="always"
     xlink:href="#XMLID_9_"
     id="linearGradient2291"
     gradientUnits="userSpaceOnUse"
     x1="88.591797"
     y1="96.592697"
     x2="71.262016"
     y2="79.262917" /><linearGradient
     inkscape:collect="always"
     xlink:href="#linearGradient4175"
     id="linearGradient2295"
     gradientUnits="userSpaceOnUse"
     x1="85.219681"
     y1="93.219681"
     x2="61.336319"
     y2="69.336319" /><linearGradient
     inkscape:collect="always"
     xlink:href="#XMLID_12_"
     id="linearGradient2297"
     gradientUnits="userSpaceOnUse"
     x1="96"
     y1="104"
     x2="88.0002"
     y2="96.0002" /><radialGradient
     inkscape:collect="always"
     xlink:href="#XMLID_8_"
     id="radialGradient2272"
     gradientUnits="userSpaceOnUse"
     gradientTransform="matrix(0.94807,0,0,0.9510679,3.370767,5.1603934)"
     cx="102"
     cy="112.3047"
     r="139.55859" /><radialGradient
     inkscape:collect="always"
     xlink:href="#XMLID_7_"
     id="radialGradient2275"
     gradientUnits="userSpaceOnUse"
     gradientTransform="matrix(0.9686802,0,0,0.9686802,2.0517132,4.0332019)"
     cx="102"
     cy="112.3047"
     r="139.5585" /><filter
     inkscape:collect="always"
     id="filter3241"><feGaussianBlur
       inkscape:collect="always"
       stdDeviation="1.0394514"
       id="feGaussianBlur3243" /></filter><filter
     inkscape:collect="always"
     id="filter3772"><feGaussianBlur
       inkscape:collect="always"
       stdDeviation="0.50063244"
       id="feGaussianBlur3774" /></filter><filter
     inkscape:collect="always"
     id="filter4107"><feGaussianBlur
       inkscape:collect="always"
       stdDeviation="0.40750996"
       id="feGaussianBlur4109" /></filter><filter
     inkscape:collect="always"
     id="filter4171"><feGaussianBlur
       inkscape:collect="always"
       stdDeviation="0.4901192"
       id="feGaussianBlur4173" /></filter><filter
     inkscape:collect="always"
     id="filter4209"><feGaussianBlur
       inkscape:collect="always"
       stdDeviation="0.90565481"
       id="feGaussianBlur4211" /></filter><radialGradient
     gradientUnits="userSpaceOnUse"
     gradientTransform="matrix(1,0,0,0.9256542,0,1.3235438)"
     r="6.2063885"
     fy="17.802542"
     fx="73.082359"
     cy="17.802542"
     cx="73.082359"
     id="radialGradient5427"
     xlink:href="#linearGradient4062"
     inkscape:collect="always" /><radialGradient
     gradientUnits="userSpaceOnUse"
     gradientTransform="matrix(1,0,0,0.941389,0,1.0491489)"
     r="6.2063885"
     fy="17.900198"
     fx="73.082359"
     cy="17.900198"
     cx="73.082359"
     id="radialGradient5425"
     xlink:href="#linearGradient4062"
     inkscape:collect="always" /><linearGradient
     id="linearGradient3272"
     inkscape:collect="always"><stop
       id="stop3274"
       offset="0"
       style="stop-color:white;stop-opacity:1;" /><stop
       id="stop3276"
       offset="1"
       style="stop-color:white;stop-opacity:0;" /></linearGradient><linearGradient
     inkscape:collect="always"
     id="linearGradient3030"><stop
       style="stop-color:#000000;stop-opacity:0.77902622"
       offset="0"
       id="stop3032" /><stop
       style="stop-color:#000000;stop-opacity:0;"
       offset="1"
       id="stop3034" /></linearGradient><linearGradient
     inkscape:collect="always"
     id="linearGradient3260"><stop
       style="stop-color:#ffffff;stop-opacity:1;"
       offset="0"
       id="stop3262" /><stop
       style="stop-color:#ffffff;stop-opacity:0;"
       offset="1"
       id="stop3264" /></linearGradient><radialGradient
     id="XMLID_4_"
     cx="48"
     cy="-0.2148"
     r="55.147999"
     gradientTransform="matrix(0.9792,0,0,0.9725,133.0002,20.8762)"
     gradientUnits="userSpaceOnUse"><stop
       offset="0"
       style="stop-color:#72D13D"
       id="stop3082" /><stop
       offset="0.3553"
       style="stop-color:#35AC1C"
       id="stop3084" /><stop
       offset="0.6194"
       style="stop-color:#0F9508"
       id="stop3086" /><stop
       offset="0.7574"
       style="stop-color:#008C00"
       id="stop3088" /><stop
       offset="1"
       style="stop-color:#007A00"
       id="stop3090" /></radialGradient><linearGradient
     id="linearGradient4062"><stop
       id="stop3680"
       offset="0"
       style="stop-color:#baff63;stop-opacity:1;" /><stop
       id="stop3682"
       offset="1"
       style="stop-color:#ffffff;stop-opacity:0;" /></linearGradient><linearGradient
     inkscape:collect="always"
     xlink:href="#XMLID_4_"
     id="linearGradient4666"
     gradientUnits="userSpaceOnUse"
     gradientTransform="translate(292,239.1304)"
     x1="-13.757333"
     y1="76.708466"
     x2="-62.424866"
     y2="104.80668" /><linearGradient
     inkscape:collect="always"
     xlink:href="#linearGradient3260"
     id="linearGradient4668"
     gradientUnits="userSpaceOnUse"
     spreadMethod="reflect"
     x1="73.742638"
     y1="15.336544"
     x2="80"
     y2="19.281664" /><linearGradient
     inkscape:collect="always"
     xlink:href="#linearGradient3260"
     id="linearGradient4670"
     gradientUnits="userSpaceOnUse"
     spreadMethod="reflect"
     x1="73.742638"
     y1="15.336544"
     x2="80"
     y2="19.281664" /><linearGradient
     inkscape:collect="always"
     xlink:href="#linearGradient3260"
     id="linearGradient4676"
     gradientUnits="userSpaceOnUse"
     spreadMethod="reflect"
     x1="73.742638"
     y1="15.336544"
     x2="80"
     y2="19.281664" /><radialGradient
     inkscape:collect="always"
     xlink:href="#linearGradient3030"
     id="radialGradient4678"
     gradientUnits="userSpaceOnUse"
     gradientTransform="translate(292,239.1304)"
     cx="-44"
     cy="84"
     fx="-60"
     fy="100"
     r="24" /><linearGradient
     inkscape:collect="always"
     xlink:href="#linearGradient3260"
     id="linearGradient4680"
     gradientUnits="userSpaceOnUse"
     spreadMethod="reflect"
     x1="73.742638"
     y1="15.336544"
     x2="80"
     y2="19.281664" /><radialGradient
     inkscape:collect="always"
     xlink:href="#XMLID_4_"
     id="radialGradient4682"
     gradientUnits="userSpaceOnUse"
     gradientTransform="translate(292,239.1304)"
     cx="-44"
     cy="84"
     fx="-40"
     fy="96"
     r="20" /><linearGradient
     inkscape:collect="always"
     xlink:href="#linearGradient3272"
     id="linearGradient4684"
     gradientUnits="userSpaceOnUse"
     gradientTransform="translate(229.3125,239.1304)"
     x1="11.68106"
     y1="60.539303"
     x2="11.68106"
     y2="108.0104" /><linearGradient
     inkscape:collect="always"
     xlink:href="#linearGradient3260"
     id="linearGradient4686"
     gradientUnits="userSpaceOnUse"
     gradientTransform="translate(229.30236,239.1304)"
     x1="6.6976352"
     y1="52"
     x2="11.68106"
     y2="96.001434" /><linearGradient
     inkscape:collect="always"
     xlink:href="#linearGradient3260"
     id="linearGradient4688"
     gradientUnits="userSpaceOnUse"
     gradientTransform="translate(229.30236,239.1304)"
     x1="26.697636"
     y1="96"
     x2="14.697635"
     y2="72" /><linearGradient
     inkscape:collect="always"
     xlink:href="#linearGradient3225"
     id="linearGradient4690"
     gradientUnits="userSpaceOnUse"
     gradientTransform="translate(147.99999,239.1304)"
     x1="79.75"
     y1="84"
     x2="120.25"
     y2="84" /><linearGradient
     y2="34.472866"
     x2="22.413761"
     y1="28.5"
     x1="22.413761"
     gradientTransform="translate(10,0)"
     gradientUnits="userSpaceOnUse"
     id="linearGradient3190"
     xlink:href="#linearGradient2822"
     inkscape:collect="always" /><linearGradient
     id="linearGradient2822"><stop
       id="stop2824"
       offset="0"
       style="stop-color:#ffffff;stop-opacity:1;" /><stop
       id="stop2826"
       offset="1"
       style="stop-color:#ffffff;stop-opacity:0;" /></linearGradient><linearGradient
     y2="56.231236"
     x2="5.1264462"
     y1="56.231236"
     x1="64.129814"
     gradientTransform="matrix(0,-1.0293895,1.0293895,0,11.93834,80.22496)"
     gradientUnits="userSpaceOnUse"
     id="linearGradient3831"
     xlink:href="#linearGradient3757"
     inkscape:collect="always" /><filter
     id="filter3827"
     inkscape:collect="always"><feGaussianBlur
       id="feGaussianBlur3829"
       stdDeviation="1.7999096"
       inkscape:collect="always" /></filter><filter
     id="filter3797"
     inkscape:collect="always"><feGaussianBlur
       id="feGaussianBlur3799"
       stdDeviation="0.89030997"
       inkscape:collect="always" /></filter><linearGradient
     y2="56.231236"
     x2="5.1264462"
     y1="56.231236"
     x1="64.129814"
     gradientTransform="matrix(0,-1.0293895,1.0293895,0,11.93834,80.22496)"
     gradientUnits="userSpaceOnUse"
     id="linearGradient3771"
     xlink:href="#linearGradient3757"
     inkscape:collect="always" /><linearGradient
     y2="56.231236"
     x2="5.1264462"
     y1="56.231236"
     x1="64.129814"
     gradientTransform="matrix(0,-1.0293895,1.0293895,0,11.93834,80.22496)"
     gradientUnits="userSpaceOnUse"
     id="linearGradient3755"
     xlink:href="#linearGradient3757"
     inkscape:collect="always" /><linearGradient
     y2="56.231236"
     x2="5.1264462"
     y1="56.231236"
     x1="64.129814"
     gradientTransform="matrix(0,-1.0293895,1.0293895,0,11.93834,80.22496)"
     gradientUnits="userSpaceOnUse"
     id="linearGradient3730"
     xlink:href="#linearGradient2880"
     inkscape:collect="always" /><linearGradient
     gradientTransform="matrix(1.0099851,0,0,1.0099851,-1.3444494,-2.0331093)"
     gradientUnits="userSpaceOnUse"
     y2="74.721313"
     x2="63.998402"
     y1="2.0128229"
     x1="63.998402"
     id="linearGradient3722"
     xlink:href="#linearGradient3716"
     inkscape:collect="always" /><radialGradient
     r="139.55859"
     cy="112.3047"
     cx="102"
     gradientTransform="matrix(0.9787234,0,0,0.9818182,1.3617045,1.1636364)"
     gradientUnits="userSpaceOnUse"
     id="radialGradient2875"
     xlink:href="#XMLID_8_"
     inkscape:collect="always" /><radialGradient
     r="139.5585"
     cy="112.3047"
     cx="102"
     gradientTransform="translate(2.4e-6,0)"
     gradientUnits="userSpaceOnUse"
     id="radialGradient2626"
     xlink:href="#XMLID_7_"
     inkscape:collect="always" /><linearGradient
     y2="96.0002"
     x2="88.0002"
     y1="104"
     x1="96"
     gradientUnits="userSpaceOnUse"
     id="linearGradient2624"
     xlink:href="#XMLID_12_"
     inkscape:collect="always" /><linearGradient
     y2="95.293"
     x2="87.293"
     y1="103"
     x1="95"
     gradientUnits="userSpaceOnUse"
     id="linearGradient2622"
     xlink:href="#XMLID_11_"
     inkscape:collect="always" /><linearGradient
     y2="94.5865"
     x2="86.5865"
     y1="103"
     x1="95"
     gradientUnits="userSpaceOnUse"
     id="linearGradient2293"
     xlink:href="#XMLID_10_"
     inkscape:collect="always" /><linearGradient
     y2="94.5366"
     x2="86.5356"
     y1="102.3447"
     x1="94.3438"
     gradientUnits="userSpaceOnUse"
     id="linearGradient2619"
     xlink:href="#XMLID_9_"
     inkscape:collect="always" /><linearGradient
     id="linearGradient2880"><stop
       style="stop-color:#000000;stop-opacity:1;"
       offset="0"
       id="stop2882" /><stop
       id="stop2884"
       offset="0"
       style="stop-color:#000000;stop-opacity:1;" /><stop
       id="stop2886"
       offset="0.56999999"
       style="stop-color:#000000;stop-opacity:0.58823532;" /><stop
       style="stop-color:#3b3b3b;stop-opacity:0.72000003;"
       offset="0.82800001"
       id="stop2888" /><stop
       style="stop-color:white;stop-opacity:0;"
       offset="1"
       id="stop2890" /></linearGradient><linearGradient
     id="linearGradient3716"><stop
       id="stop3718"
       offset="0"
       style="stop-color:#fefefe;stop-opacity:1" /><stop
       style="stop-color:#e9eaea;stop-opacity:1"
       offset="0.23920465"
       id="stop3732" /><stop
       id="stop3720"
       offset="1"
       style="stop-color:#fdfdfd;stop-opacity:1" /></linearGradient><linearGradient
     id="linearGradient3757"><stop
       id="stop3759"
       offset="0"
       style="stop-color:#000000;stop-opacity:1;" /><stop
       style="stop-color:#000000;stop-opacity:1;"
       offset="0"
       id="stop3761" /><stop
       style="stop-color:#000000;stop-opacity:0.58823532;"
       offset="0.56999999"
       id="stop3763" /><stop
       id="stop3765"
       offset="0.74199998"
       style="stop-color:#3b3b3b;stop-opacity:0.72000003;" /><stop
       id="stop3767"
       offset="1"
       style="stop-color:white;stop-opacity:0;" /></linearGradient><inkscape:perspective
     id="perspective2600"
     inkscape:persp3d-origin="64 : 42.666667 : 1"
     inkscape:vp_z="128 : 64 : 1"
     inkscape:vp_y="0 : 1000 : 0"
     inkscape:vp_x="0 : 64 : 1"
     sodipodi:type="inkscape:persp3d" /><radialGradient
     inkscape:collect="always"
     xlink:href="#XMLID_7_"
     id="radialGradient2675"
     gradientUnits="userSpaceOnUse"
     gradientTransform="matrix(0.9686802,0,0,0.9686802,2.0517132,-1.8527335)"
     cx="102"
     cy="112.3047"
     r="139.5585" /><linearGradient
     inkscape:collect="always"
     xlink:href="#XMLID_9_"
     id="linearGradient2677"
     gradientUnits="userSpaceOnUse"
     x1="88.591797"
     y1="96.592697"
     x2="71.262016"
     y2="79.262917" /><linearGradient
     inkscape:collect="always"
     xlink:href="#linearGradient4175"
     id="linearGradient2679"
     gradientUnits="userSpaceOnUse"
     x1="85.219681"
     y1="93.219681"
     x2="61.336319"
     y2="69.336319" /><linearGradient
     inkscape:collect="always"
     xlink:href="#XMLID_12_"
     id="linearGradient2681"
     gradientUnits="userSpaceOnUse"
     x1="96"
     y1="104"
     x2="88.0002"
     y2="96.0002" /><linearGradient
     inkscape:collect="always"
     xlink:href="#linearGradient3716"
     id="linearGradient2686"
     gradientUnits="userSpaceOnUse"
     gradientTransform="matrix(0.8940438,0,0,0.8940438,7.5112509,-1.4054536)"
     x1="63.998402"
     y1="2.0128229"
     x2="63.998402"
     y2="74.721313" /><radialGradient
     inkscape:collect="always"
     xlink:href="#XMLID_8_"
     id="radialGradient2696"
     gradientUnits="userSpaceOnUse"
     gradientTransform="matrix(0.9787234,0,0,0.9818182,-112.6383,-4.2511299)"
     cx="102"
     cy="112.3047"
     r="139.55859" /><radialGradient
     inkscape:collect="always"
     xlink:href="#XMLID_7_"
     id="radialGradient2699"
     gradientUnits="userSpaceOnUse"
     gradientTransform="matrix(0.9686802,0,0,0.9686802,-111.94829,-7.2674998)"
     cx="102"
     cy="112.3047"
     r="139.5585" /><linearGradient
     inkscape:collect="always"
     xlink:href="#linearGradient3757"
     id="linearGradient2704"
     gradientUnits="userSpaceOnUse"
     gradientTransform="matrix(0,-1.0293895,1.0293895,0,11.93834,80.22496)"
     x1="64.129814"
     y1="56.231236"
     x2="5.1264462"
     y2="56.231236" /><linearGradient
     inkscape:collect="always"
     xlink:href="#linearGradient3757"
     id="linearGradient2706"
     gradientUnits="userSpaceOnUse"
     gradientTransform="matrix(0,-1.0293895,1.0293895,0,11.93834,80.22496)"
     x1="64.129814"
     y1="56.231236"
     x2="5.1264462"
     y2="56.231236" /></defs><sodipodi:namedview
   inkscape:window-height="687"
   inkscape:window-width="1022"
   inkscape:pageshadow="2"
   inkscape:pageopacity="0.0"
   guidetolerance="10.0"
   gridtolerance="10.0"
   objecttolerance="10.0"
   borderopacity="1.0"
   bordercolor="#666666"
   pagecolor="#ffffff"
   id="base"
   inkscape:zoom="3.6093749"
   inkscape:cx="126.59599"
   inkscape:cy="73.137336"
   inkscape:window-x="529"
   inkscape:window-y="240"
   inkscape:current-layer="Layer_1"
   showgrid="true"
   showguides="true"
   inkscape:guide-bbox="true"><inkscape:grid
     id="GridFromPre046Settings"
     type="xygrid"
     originx="0px"
     originy="0px"
     spacingx="5.8181px"
     spacingy="5.8181px"
     color="#0000ff"
     empcolor="#0000ff"
     opacity="0.2"
     empopacity="0.4"
     empspacing="1"
     enabled="true"
     visible="true" /></sodipodi:namedview>
<metadata
   id="metadata3">
	<ns:sfw>
		<ns:slices>
			<ns:slice
   y="0"
   x="0"
   height="128"
   width="128"
   sliceID="1316743234" />
		</ns:slices>
		<ns:sliceSourceBounds
   y="0"
   x="0"
   height="128"
   width="128"
   bottomLeftOrigin="true" />
		<ns:optimizationSettings>
			<ns:targetSettings
   targetSettingsID="0"
   fileFormat="PNG24Format">
				<ns:PNG24Format
   transparency="true"
   filtered="false"
   matteColor="#FFFFFF"
   noMatteColor="false"
   interlaced="false">
					</ns:PNG24Format>
			</ns:targetSettings>
			<ns:targetSettings
   targetSettingsID="1696735251"
   fileFormat="PNG24Format">
				<ns:PNG24Format
   transparency="true"
   filtered="false"
   matteColor="#FFFFFF"
   noMatteColor="false"
   interlaced="false">
					</ns:PNG24Format>
			</ns:targetSettings>
		</ns:optimizationSettings>
	</ns:sfw>
<rdf:RDF><cc:Work
     rdf:about=""><dc:format>image/svg+xml</dc:format><dc:type
       rdf:resource="http://purl.org/dc/dcmitype/StillImage" /></cc:Work></rdf:RDF></metadata>

<radialGradient
   id="XMLID_7_"
   cx="102"
   cy="112.3047"
   r="139.5585"
   gradientUnits="userSpaceOnUse">
	<stop
   offset="0"
   style="stop-color:#3e3e3e;stop-opacity:1;"
   id="stop16" />
	<stop
   offset="0.0151"
   style="stop-color:#505050;stop-opacity:1;"
   id="stop18" />
	<stop
   offset="0.0558"
   style="stop-color:#7e7e7e;stop-opacity:1;"
   id="stop20" />
	
	<stop
   offset="0.1357"
   style="stop-color:#c6c6c6;stop-opacity:1;"
   id="stop24" />
	
	<stop
   offset="0.20990001"
   style="stop-color:#f1f1f1;stop-opacity:1;"
   id="stop28" />
	<stop
   offset="0.24349999"
   style="stop-color:#fcfcfc;stop-opacity:1;"
   id="stop30" />
	<stop
   offset="0.2722"
   style="stop-color:#FFFFFF"
   id="stop32" />
</radialGradient>

<radialGradient
   id="XMLID_8_"
   cx="102"
   cy="112.3047"
   r="139.55859"
   gradientUnits="userSpaceOnUse">
	<stop
   offset="0"
   style="stop-color:#535557"
   id="stop37" />
	
	<stop
   offset="0.11366145"
   style="stop-color:#898A8C"
   id="stop41" />
	
	
	<stop
   offset="0.20296688"
   style="stop-color:#ECECEC"
   id="stop47" />
	<stop
   offset="0.2363"
   style="stop-color:#FAFAFA"
   id="stop49" />
	<stop
   offset="0.2722"
   style="stop-color:#FFFFFF"
   id="stop51" />
	<stop
   offset="0.5313"
   style="stop-color:#FAFAFA"
   id="stop53" />
	<stop
   offset="0.8449"
   style="stop-color:#EBECEC"
   id="stop55" />
	<stop
   offset="1"
   style="stop-color:#E1E2E3"
   id="stop57" />
</radialGradient>

<linearGradient
   id="XMLID_9_"
   gradientUnits="userSpaceOnUse"
   x1="94.3438"
   y1="102.3447"
   x2="86.5356"
   y2="94.5366">
	<stop
   offset="0"
   style="stop-color:#FFFFFF"
   id="stop62" />
	<stop
   offset="1"
   style="stop-color:#555753"
   id="stop64" />
</linearGradient>

<linearGradient
   id="XMLID_10_"
   gradientUnits="userSpaceOnUse"
   x1="95"
   y1="103"
   x2="86.5865"
   y2="94.5865">
	<stop
   offset="0"
   style="stop-color:#FFFFFF"
   id="stop69" />
	<stop
   offset="1"
   style="stop-color:#555753"
   id="stop71" />
</linearGradient>

<linearGradient
   id="XMLID_11_"
   gradientUnits="userSpaceOnUse"
   x1="95"
   y1="103"
   x2="87.293"
   y2="95.293">
	<stop
   offset="0"
   style="stop-color:#FFFFFF"
   id="stop76" />
	<stop
   offset="1"
   style="stop-color:#393B38"
   id="stop78" />
</linearGradient>

<linearGradient
   id="XMLID_12_"
   gradientUnits="userSpaceOnUse"
   x1="96"
   y1="104"
   x2="88.0002"
   y2="96.0002">
	<stop
   offset="0"
   style="stop-color:#888A85"
   id="stop83" />
	<stop
   offset="0.0072"
   style="stop-color:#8C8E89"
   id="stop85" />
	<stop
   offset="0.0673"
   style="stop-color:#ABACA9"
   id="stop87" />
	<stop
   offset="0.1347"
   style="stop-color:#C5C6C4"
   id="stop89" />
	<stop
   offset="0.2115"
   style="stop-color:#DBDBDA"
   id="stop91" />
	<stop
   offset="0.3012"
   style="stop-color:#EBEBEB"
   id="stop93" />
	<stop
   offset="0.4122"
   style="stop-color:#F7F7F6"
   id="stop95" />
	<stop
   offset="0.5679"
   style="stop-color:#FDFDFD"
   id="stop97" />
	<stop
   offset="1"
   style="stop-color:#FFFFFF"
   id="stop99" />
</linearGradient>
<path
   sodipodi:nodetypes="cccccccc"
   transform="matrix(1.0090419,0,0,1.003276,-7.5947296,0.8156975)"
   style="opacity:0.55342467;fill:#000000;fill-opacity:1;filter:url(#filter3241)"
   d="M 23,8.9687825 L 23.040816,122.99347 L 84.172,122.99347 C 84.702,122.99347 85.211,122.78247 85.586,122.40747 L 118.414,89.579469 C 118.789,89.204469 119,88.695469 119,88.165469 L 119,8.9687825 L 23,8.9687825 z"
   id="path4253" /><path
   sodipodi:nodetypes="cccccccc"
   transform="matrix(1.0090419,0,0,1.003276,-7.5947296,0.8156975)"
   style="opacity:0.30684934;fill:#000000;fill-opacity:1;filter:url(#filter3241)"
   d="M 23,9 L 23.040816,122.99347 L 84.172,122.99347 C 84.702,122.99347 85.211,122.78247 85.586,122.40747 L 118.414,89.579469 C 118.789,89.204469 119,88.695469 119,88.165469 L 119,9 L 23,9 z"
   id="path4081" /><path
   sodipodi:nodetypes="cccccccc"
   transform="matrix(1.0090419,0,0,1.003276,-7.5947296,0.8156975)"
   style="opacity:0.89589042;fill:#000000;fill-opacity:1;filter:url(#filter3772)"
   d="M 24.919999,10.931136 L 24.919999,120.86319 L 83.596,120.86309 C 84.126,120.86309 84.635,120.65209 85.01,120.27709 L 116.494,88.511156 C 116.869,88.136156 117.08,87.627156 117.08,87.097156 L 117.08,10.931136 L 24.919999,10.931136 z"
   id="path3726" /><path
   id="path6594"
   d="M 23,9.9655172 L 23.040816,122.99347 L 84.172,122.99347 C 84.702,122.99347 85.211,122.78247 85.586,122.40747 L 118.414,89.579469 C 118.789,89.204469 119,88.695469 119,88.165469 L 119,9.9655172 L 23,9.9655172 z"
   style="opacity:0.30684934;fill:#000000;fill-opacity:1;filter:url(#filter3241)"
   transform="matrix(1.0090419,0,0,1.003276,-7.5947296,0.8156975)"
   sodipodi:nodetypes="cccccccc" /><path
   style="fill:url(#radialGradient2275)"
   d="M 17.550596,11.782643 L 17.550596,122.07483 L 76.806702,122.07483 C 77.320103,122.07483 77.81316,121.87044 78.176416,121.50718 L 109.97625,89.707346 C 110.33951,89.344091 110.54389,88.851033 110.54389,88.337632 L 110.54389,11.782643 L 17.550596,11.782643 z"
   id="path34"
   sodipodi:nodetypes="cccccccc" /><path
   style="fill:url(#radialGradient2272);fill-opacity:1"
   d="M 24.114103,17.398079 C 23.591716,17.398079 23.166033,17.825109 23.166033,18.349148 L 23.487956,115.0864 C 23.487956,115.6114 23.91364,116.03748 24.436026,116.03748 L 76.535225,116.03748 C 76.784567,116.03748 77.029169,115.93666 77.205509,115.75881 L 104.72875,88.537148 C 104.90604,88.359298 105.00653,88.114875 105.00653,87.864743 L 104.80653,18.371071 C 104.80653,17.847032 104.3818,17.420003 103.85847,17.420003 L 24.114103,17.398079 z"
   id="path59"
   sodipodi:nodetypes="ccccccccccc" /><g
   id="g1973"
   transform="matrix(1.1080161,0,0,1.1080161,-12.697537,-10.130735)"><path
     style="opacity:0.75068491;fill:url(#linearGradient2291);filter:url(#filter4107)"
     id="path66"
     d="M 111.414,86.586 C 111.664,86.336 85.035,85 80,85 C 78.346,85 77,86.346 77,88 C 77,93.035 78.336,119.664 78.586,119.414 L 111.414,86.586 z"
     sodipodi:nodetypes="csscc" /><path
     style="opacity:0.2;fill:#000000;fill-opacity:1;filter:url(#filter4209)"
     id="path73"
     d="M 111.414,86.586 C 111.789,86.211 89.444,86 80,86 C 78.897,86 78,86.897 78,88 C 78,97.444 78.211,119.789 78.586,119.414 L 111.414,86.586 z"
     sodipodi:nodetypes="csscc" /><path
     style="opacity:0.1;fill:url(#linearGradient2295);filter:url(#filter4171)"
     id="path80"
     d="M 111.414,86.586 C 111.653,86.347 89.807,87 80,87 C 79.447,87 79,87.447 79,88 C 79,97.807 78.347,119.653 78.586,119.414 L 111.414,86.586 z"
     sodipodi:nodetypes="csscc" /><path
     style="fill:url(#linearGradient2297)"
     id="path101"
     d="M 79.721619,119.31106 L 111.22712,87.805556 L 79.721619,87.805556 L 79.721619,119.31106 z"
     sodipodi:nodetypes="cccc" /></g>

<path
   sodipodi:type="inkscape:offset"
   inkscape:radius="-0.98200667"
   inkscape:original="M 62.6875 3.21875 C 62.209361 3.3251895 61.823747 3.7277733 61.46875 4.0625 L 61.375 3.96875 L 26.40625 36.40625 C 25.944476 36.842055 25.46876 37.372515 25.46875 38.53125 C 25.46875 39.690023 25.94457 40.220514 26.40625 40.65625 L 34.5625 48.84375 C 34.572825 48.85426 34.583242 48.864675 34.59375 48.875 C 35.688109 49.933529 37.244424 50.003065 38.4375 49.09375 C 38.448008 49.083427 38.458425 49.073008 38.46875 49.0625 L 54.3125 36.40625 L 55.3125 74.59375 C 55.319633 76.084319 55.500393 77.522997 57.21875 77.53125 L 68.5625 77.53125 C 70.279853 77.523029 71.491782 76.311095 71.5 74.59375 L 72.5 36.40625 L 88.34375 49.0625 C 88.354075 49.07301 88.364492 49.083425 88.375 49.09375 C 89.446736 49.910588 91.218935 49.811821 92.1875 48.875 C 92.198008 48.864677 92.208425 48.854258 92.21875 48.84375 L 100.46875 40.625 C 101.15606 39.976349 101.31251 39.23812 101.3125 38.53125 C 101.3125 37.824378 101.09357 37.054917 100.40625 36.40625 L 65.40625 3.96875 C 64.973706 3.5572792 64.408622 3.3135174 63.8125 3.28125 C 63.537956 3.2172038 63.21617 3.1010615 62.6875 3.21875 z "
   style="fill:url(#linearGradient2706);fill-opacity:1;stroke:none;stroke-width:8;stroke-linejoin:round;stroke-miterlimit:4;stroke-opacity:1;filter:url(#filter3797)"
   id="path3769"
   d="M 62.90625,4.1875 C 62.831446,4.2041524 62.53894,4.4204119 62.15625,4.78125 C 62.031199,4.8898973 61.880698,4.9651478 61.71875,5 L 61.6875,5 L 27.0625,37.125 C 26.645169,37.518861 26.437508,37.641286 26.4375,38.53125 C 26.4375,39.421199 26.676472,39.543671 27.09375,39.9375 C 27.093916,39.947916 27.093916,39.958334 27.09375,39.96875 L 35.25,48.15625 C 35.256208,48.162569 35.274799,48.181161 35.28125,48.1875 C 36.056643,48.937506 36.997322,48.957614 37.84375,48.3125 C 37.843584,48.302084 37.843584,48.291666 37.84375,48.28125 L 53.6875,35.625 C 53.979937,35.392111 54.379234,35.345446 54.717492,35.504626 C 55.05575,35.663806 55.274302,36.001224 55.28125,36.375 L 56.28125,74.5625 C 56.281416,74.572916 56.281416,74.583334 56.28125,74.59375 C 56.284634,75.300852 56.365989,75.906496 56.5,76.1875 C 56.634011,76.468504 56.633455,76.559689 57.21875,76.5625 L 68.5625,76.5625 C 69.82008,76.55648 70.525232,75.851321 70.53125,74.59375 C 70.531084,74.583334 70.531084,74.572916 70.53125,74.5625 L 71.53125,36.375 C 71.538198,36.001224 71.75675,35.663806 72.095008,35.504626 C 72.433266,35.345446 72.832563,35.392111 73.125,35.625 L 88.96875,48.28125 C 88.968916,48.291666 88.968916,48.302084 88.96875,48.3125 C 88.975959,48.317994 88.992603,48.307152 89,48.3125 C 89.635246,48.771757 90.94339,48.694618 91.5,48.15625 C 91.506315,48.150046 91.524912,48.162701 91.53125,48.15625 L 99.78125,39.9375 C 99.781084,39.927084 99.781084,39.916666 99.78125,39.90625 C 100.25218,39.461812 100.34376,39.093213 100.34375,38.53125 C 100.34375,38.027141 100.19985,37.579048 99.71875,37.125 L 64.75,4.6875 C 64.739584,4.6876657 64.729166,4.6876657 64.71875,4.6875 C 64.455333,4.4369162 64.113035,4.2696507 63.75,4.25 C 63.697999,4.2541497 63.645751,4.2541497 63.59375,4.25 C 63.228743,4.1648503 63.218663,4.1179529 62.90625,4.1875 z"
   transform="matrix(0.8940438,0,0,0.8940438,7.5112509,-2.750665)" /><path
   transform="matrix(0.8940438,0,0,0.8940438,7.5112509,-2.750665)"
   d="M 62.875,3.15625 C 62.814675,3.1642489 62.753951,3.2039572 62.6875,3.21875 C 62.20388,3.3264097 61.823371,3.7281282 61.46875,4.0625 L 61.375,3.96875 L 26.40625,36.40625 C 25.943872,36.842625 25.46876,37.368862 25.46875,38.53125 C 25.46875,39.693676 25.943967,40.219944 26.40625,40.65625 L 34.5625,48.84375 C 34.572881,48.854317 34.583187,48.864621 34.59375,48.875 C 35.692444,49.937722 37.239713,50.006656 38.4375,49.09375 C 38.448065,49.083371 38.458371,49.073063 38.46875,49.0625 L 54.3125,36.40625 L 55.3125,74.59375 C 55.316069,75.339553 55.3624,76.074363 55.625,76.625 C 55.8876,77.175637 56.355849,77.527106 57.21875,77.53125 L 68.5625,77.53125 C 70.286101,77.522999 71.491752,76.317343 71.5,74.59375 L 72.5,36.40625 L 88.34375,49.0625 C 88.354131,49.073067 88.364437,49.083371 88.375,49.09375 C 89.45279,49.915202 91.213425,49.817151 92.1875,48.875 C 92.198065,48.864621 92.208371,48.854313 92.21875,48.84375 L 100.46875,40.625 C 101.159,39.973574 101.31251,39.240089 101.3125,38.53125 C 101.3125,37.821622 101.09637,37.057562 100.40625,36.40625 L 65.40625,3.96875 C 64.971408,3.5550927 64.41179,3.3136889 63.8125,3.28125 C 63.57335,3.2254605 63.297273,3.1002576 62.875,3.15625 z"
   id="path3801"
   style="opacity:0.38118813;fill:url(#linearGradient2704);fill-opacity:1;stroke:none;stroke-width:8;stroke-linejoin:round;stroke-miterlimit:4;stroke-opacity:1;filter:url(#filter3827)"
   inkscape:original="M 62.6875 3.21875 C 62.209361 3.3251895 61.823747 3.7277733 61.46875 4.0625 L 61.375 3.96875 L 26.40625 36.40625 C 25.944476 36.842055 25.46876 37.372515 25.46875 38.53125 C 25.46875 39.690023 25.94457 40.220514 26.40625 40.65625 L 34.5625 48.84375 C 34.572825 48.85426 34.583242 48.864675 34.59375 48.875 C 35.688109 49.933529 37.244424 50.003065 38.4375 49.09375 C 38.448008 49.083427 38.458425 49.073008 38.46875 49.0625 L 54.3125 36.40625 L 55.3125 74.59375 C 55.319633 76.084319 55.500393 77.522997 57.21875 77.53125 L 68.5625 77.53125 C 70.279853 77.523029 71.491782 76.311095 71.5 74.59375 L 72.5 36.40625 L 88.34375 49.0625 C 88.354075 49.07301 88.364492 49.083425 88.375 49.09375 C 89.446736 49.910588 91.218935 49.811821 92.1875 48.875 C 92.198008 48.864677 92.208425 48.854258 92.21875 48.84375 L 100.46875 40.625 C 101.15606 39.976349 101.31251 39.23812 101.3125 38.53125 C 101.3125 37.824378 101.09357 37.054917 100.40625 36.40625 L 65.40625 3.96875 C 64.973706 3.5572792 64.408622 3.3135174 63.8125 3.28125 C 63.537956 3.2172038 63.21617 3.1010615 62.6875 3.21875 z "
   inkscape:radius="0.013345501"
   sodipodi:type="inkscape:offset" /><path
   style="fill:url(#linearGradient2686);fill-opacity:1;stroke:none;stroke-width:8;stroke-linejoin:round;stroke-miterlimit:4;stroke-opacity:1"
   d="M 64.451196,1.9775493 L 95.742056,31.427766 C 95.817263,31.49874 95.859878,31.597578 95.859878,31.700985 C 95.859878,31.804394 95.817263,31.90323 95.742056,31.974206 L 88.379499,39.336759 C 88.246029,39.465858 88.038263,39.47808 87.890578,39.365519 L 70.088153,25.12933 L 70.088153,64.84686 C 70.087168,65.052936 69.920351,65.219752 69.714273,65.220738 L 58.670441,65.220738 C 58.464364,65.219752 58.297549,65.052936 58.296563,64.84686 L 58.296563,25.12933 L 40.494136,39.365519 C 40.346452,39.47808 40.138687,39.465858 40.005217,39.336759 L 32.642663,31.974206 C 32.567459,31.90323 32.524833,31.804394 32.524833,31.700985 C 32.524833,31.597578 32.567459,31.49874 32.642663,31.427766 L 63.933518,1.9775493 C 64.083323,1.7660813 64.294272,1.9775493 64.451196,1.9775493 z"
   id="path2842"
   sodipodi:nodetypes="ccsccccccccccccsccc" /><path
   style="fill:#ffffff;fill-opacity:1;stroke:none;stroke-width:8;stroke-linejoin:round;stroke-miterlimit:4;stroke-opacity:1"
   d="M 64.056199,1.8888468 C 64.012904,1.8987594 63.955715,1.9394302 63.918264,1.9922971 L 32.641757,31.441181 C 32.566552,31.512156 32.538307,31.613642 32.538305,31.71705 C 32.538305,31.820458 32.566553,31.887457 32.641757,31.958435 L 34.641798,33.236606 L 63.918264,5.6843131 C 64.068069,5.4728447 64.278592,5.6843131 64.435518,5.6843131 L 93.746469,33.236606 L 95.746511,31.958435 C 95.82171,31.887458 95.849951,31.820458 95.849958,31.71705 C 95.849958,31.613642 95.82171,31.512155 95.746511,31.441181 L 64.435518,1.9922971 C 64.317823,1.9922971 64.186083,1.8591091 64.056199,1.8888468 z"
   id="path2861"
   sodipodi:nodetypes="cccsccccccsccc" /></svg>