<?xml version="1.0" encoding="UTF-8" standalone="no"?>
<!-- Generator: Adobe Illustrator 12.0.0, SVG Export Plug-In . SVG Version: 6.00 Build 51448)  -->
<svg
   xmlns:ns="http://ns.adobe.com/SaveForWeb/1.0/"
   xmlns:dc="http://purl.org/dc/elements/1.1/"
   xmlns:cc="http://web.resource.org/cc/"
   xmlns:rdf="http://www.w3.org/1999/02/22-rdf-syntax-ns#"
   xmlns:svg="http://www.w3.org/2000/svg"
   xmlns="http://www.w3.org/2000/svg"
   xmlns:xlink="http://www.w3.org/1999/xlink"
   xmlns:sodipodi="http://sodipodi.sourceforge.net/DTD/sodipodi-0.dtd"
   xmlns:inkscape="http://www.inkscape.org/namespaces/inkscape"
   version="1.0"
   id="Livello_1"
   width="88"
   height="88"
   viewBox="0 0 124.176 66.475"
   overflow="visible"
   enable-background="new 0 0 124.176 66.475"
   xml:space="preserve"
   sodipodi:version="0.32"
   inkscape:version="0.45"
   sodipodi:docname="charset.svg"
   sodipodi:docbase="/Users/david/Progetti/oxygen-svn/theme/svg/actions"
   inkscape:output_extension="org.inkscape.output.svg.inkscape"
   sodipodi:modified="TRUE"
   inkscape:export-filename="/Users/david/Desktop/o.png"
   inkscape:export-xdpi="22"
   inkscape:export-ydpi="22"><defs
   id="defs29"><radialGradient
   inkscape:collect="always"
   xlink:href="#linearGradient3291"
   id="radialGradient1880"
   gradientUnits="userSpaceOnUse"
   gradientTransform="matrix(0.9714571,0,0,8.0064874e-2,153.43508,64.109778)"
   cx="63.912209"
   cy="115.70919"
   fx="63.912209"
   fy="115.7093"
   r="63.912209" /><linearGradient
   id="linearGradient3291"
   inkscape:collect="always"><stop
     id="stop3293"
     offset="0"
     style="stop-color:#000000;stop-opacity:1;" /><stop
     id="stop3295"
     offset="1"
     style="stop-color:#000000;stop-opacity:0;" /></linearGradient><radialGradient
   inkscape:collect="always"
   xlink:href="#linearGradient3291"
   id="radialGradient3336"
   gradientUnits="userSpaceOnUse"
   gradientTransform="matrix(1,0,0,0.197802,0,92.82166)"
   cx="63.912209"
   cy="115.70919"
   fx="63.912209"
   fy="115.7093"
   r="63.912209" />
	<linearGradient
   y2="0.00048828119"
   x2="22.481001"
   y1="65.662102"
   x1="22.481001"
   gradientUnits="userSpaceOnUse"
   id="XMLID_4_">
		<stop
   id="stop8"
   style="stop-color:#2E3436"
   offset="0" />
		<stop
   id="stop10"
   style="stop-color:#000000"
   offset="1" />
	</linearGradient>
	
	<linearGradient
   y2="15.8804"
   x2="64.6689"
   y1="65.662102"
   x1="64.6689"
   gradientUnits="userSpaceOnUse"
   id="XMLID_5_"
   gradientTransform="matrix(1,0,0,1.0133482,0,1.6235306)">
		<stop
   id="stop15"
   style="stop-color:#2E3436"
   offset="0" />
		<stop
   id="stop17"
   style="stop-color:#000000"
   offset="1" />
	</linearGradient>
	
	<linearGradient
   y2="4.2846999"
   x2="104.2773"
   y1="66.474602"
   x1="104.2773"
   gradientUnits="userSpaceOnUse"
   id="XMLID_6_"
   gradientTransform="translate(0,1.687)">
		<stop
   id="stop22"
   style="stop-color:#2E3436"
   offset="0" />
		<stop
   id="stop24"
   style="stop-color:#000000"
   offset="1" />
	</linearGradient>
	
<radialGradient
   inkscape:collect="always"
   xlink:href="#linearGradient3291"
   id="radialGradient4261"
   gradientUnits="userSpaceOnUse"
   gradientTransform="matrix(1,0,0,0.197802,0,92.82166)"
   cx="63.912209"
   cy="115.70919"
   fx="63.912209"
   fy="115.7093"
   r="63.912209" /><radialGradient
   inkscape:collect="always"
   xlink:href="#linearGradient3291"
   id="radialGradient4265"
   gradientUnits="userSpaceOnUse"
   gradientTransform="matrix(1,0,0,0.197802,0,92.82166)"
   cx="63.912209"
   cy="115.70919"
   fx="63.912209"
   fy="115.7093"
   r="63.912209" /><radialGradient
   inkscape:collect="always"
   xlink:href="#linearGradient3291"
   id="radialGradient2413"
   gradientUnits="userSpaceOnUse"
   gradientTransform="matrix(1,0,0,0.197802,0,92.82166)"
   cx="63.912209"
   cy="115.70919"
   fx="63.912209"
   fy="115.7093"
   r="63.912209" /><linearGradient
   inkscape:collect="always"
   xlink:href="#XMLID_6_"
   id="linearGradient2418"
   gradientUnits="userSpaceOnUse"
   gradientTransform="matrix(1.2511335,0,0,1.9266232,-31.603142,-14.526699)"
   x1="104.2773"
   y1="66.474602"
   x2="104.2773"
   y2="4.2846999" /><linearGradient
   inkscape:collect="always"
   xlink:href="#XMLID_6_"
   id="linearGradient2421"
   gradientUnits="userSpaceOnUse"
   gradientTransform="matrix(0.9928021,0,0,0.9881781,0.8938098,1.4145411)"
   x1="104.2773"
   y1="66.474602"
   x2="104.39857"
   y2="15.9262" /><linearGradient
   inkscape:collect="always"
   xlink:href="#XMLID_5_"
   id="linearGradient2424"
   gradientUnits="userSpaceOnUse"
   gradientTransform="matrix(1.006993,0,0,1.0204346,-0.3255156,9.9908417e-2)"
   x1="64.6689"
   y1="65.662102"
   x2="64.6689"
   y2="15.8804" /><linearGradient
   inkscape:collect="always"
   xlink:href="#XMLID_4_"
   id="linearGradient2427"
   gradientUnits="userSpaceOnUse"
   gradientTransform="matrix(1.418967,0,0,1.5861448,-8.3674291,-54.534563)"
   x1="22.481001"
   y1="65.662102"
   x2="22.481001"
   y2="0.00048828119" /><linearGradient
   inkscape:collect="always"
   xlink:href="#XMLID_4_"
   id="linearGradient2430"
   gradientUnits="userSpaceOnUse"
   gradientTransform="matrix(1.0043524,0,0,-1.0198639,0,67.918497)"
   x1="38.609329"
   y1="0.79894531"
   x2="38.366798"
   y2="50.62952" /></defs><sodipodi:namedview
   inkscape:window-height="993"
   inkscape:window-width="1340"
   inkscape:pageshadow="2"
   inkscape:pageopacity="0.0"
   guidetolerance="10.0"
   gridtolerance="10.0"
   objecttolerance="10.0"
   borderopacity="1.0"
   bordercolor="#666666"
   pagecolor="#ffffff"
   id="base"
   width="88px"
   height="88px"
   borderlayer="false"
   inkscape:showpageshadow="false"
   showgrid="true"
   gridspacingx="4px"
   gridspacingy="4px"
   gridempspacing="0"
   inkscape:zoom="11.313708"
   inkscape:cx="58.696429"
   inkscape:cy="45.143032"
   inkscape:window-x="168"
   inkscape:window-y="86"
   inkscape:current-layer="Livello_1" />
<metadata
   id="metadata3">
	<ns:sfw>
		<ns:slices />
		<ns:sliceSourceBounds
   x="1.912"
   y="30.763"
   height="66.475"
   width="124.176"
   bottomLeftOrigin="true" />
	</ns:sfw>
<rdf:RDF><cc:Work
     rdf:about=""><dc:format>image/svg+xml</dc:format><dc:type
       rdf:resource="http://purl.org/dc/dcmitype/StillImage" /></cc:Work></rdf:RDF></metadata>

<path
   style="fill:url(#linearGradient2430)"
   d="M 16.47256,16.304409 L 0,67.103682 L 9.6825766,67.103682 L 14.097588,52.69561 L 30.448354,52.69561 L 35.076504,67.103682 L 45.154909,67.103682 L 28.438762,16.304409 L 16.47256,16.304409 z M 22.044608,23.693957 L 22.19685,23.693957 C 22.960158,26.632184 23.793665,30.09782 24.78496,33.185969 L 28.834592,45.708006 L 15.650454,45.708006 L 19.608741,33.185969 C 20.523704,30.173291 21.282305,26.632184 22.044608,23.693957 z "
   id="path2200" /><path
   style="fill:url(#linearGradient2427)"
   d="M 22.59832,-10.707156 C 15.385066,-10.707156 11.290106,-5.8391322 11.288727,0.18510888 C 11.288727,5.9816126 15.594305,10.660045 22.59832,10.660045 C 29.499093,10.660045 33.86618,6.0120156 33.866182,0.10164326 C 33.866182,-5.9210579 29.895041,-10.707156 22.681786,-10.707156 L 22.59832,-10.707156 z M 22.43139,-5.3653559 L 22.556588,-5.3653559 C 25.923116,-5.3653559 27.898389,-2.802217 27.898389,-0.023555168 C 27.898389,2.9662908 25.923116,5.3182455 22.556588,5.3182455 C 19.304726,5.3182455 17.214788,2.7482451 17.214788,0.18510888 C 17.214788,-2.6991457 19.063333,-5.3653559 22.43139,-5.3653559 z "
   id="path2228" /><path
   style="fill:url(#linearGradient2424)"
   id="path19"
   d="M 52.52047,67.103682 L 52.52047,48.185846 L 46.478512,52.407383 L 46.478512,45.774559 L 52.52047,41.553021 L 52.52047,16.304409 L 61.927799,16.304409 L 61.927799,35.297758 L 71.869841,28.51493 L 71.869841,35.222245 L 61.927799,42.005074 L 61.927799,59.340216 L 83.112918,59.340216 L 83.112918,67.102662 L 52.52047,67.102662 L 52.52047,67.103682 z " /><path
   style="fill:url(#linearGradient2421)"
   d="M 123.72328,64.840754 C 121.53712,65.935656 116.71211,67.103682 110.60339,67.103682 C 94.46739,67.103682 84.665455,57.250558 84.665455,42.288553 C 84.665455,26.085397 96.277267,16.304409 111.80965,16.304409 C 117.91737,16.304409 122.29166,17.545561 124.176,18.494212 L 122.13976,25.646645 C 119.72626,24.624869 116.4103,23.749343 112.18692,23.749343 C 101.8578,23.749343 94.391936,30.026251 94.391936,41.849802 C 94.391936,52.652565 100.95138,59.585623 112.11246,59.585623 C 115.88213,59.585623 119.8027,58.855359 122.2162,57.760457 L 123.72328,64.840754 z "
   id="path2222" /><path
   style="fill:url(#linearGradient2418)"
   d="M 100.09743,10.660045 L 90.309818,-6.2730455 L 99.051487,-6.2730455 L 104.46766,3.1192428 L 104.65782,3.1192428 L 109.8838,-6.2730455 L 118.53164,-6.2730455 L 108.9342,10.660045 L 100.09743,10.660045 z "
   id="path26" /><path
   sodipodi:type="arc"
   style="opacity:0.38139535;fill:url(#radialGradient2413);fill-opacity:1;fill-rule:nonzero;stroke:none;stroke-width:0;stroke-linecap:round;stroke-linejoin:round;stroke-miterlimit:4;stroke-dasharray:none;stroke-dashoffset:4;stroke-opacity:1"
   id="path1563"
   sodipodi:cx="63.912209"
   sodipodi:cy="115.70919"
   sodipodi:rx="63.912209"
   sodipodi:ry="12.641975"
   d="M 127.82442 115.70919 A 63.912209 12.641975 0 1 1  0,115.70919 A 63.912209 12.641975 0 1 1  127.82442 115.70919 z"
   transform="matrix(0.971458,0,0,0.3981189,-2.6300491e-5,44.226475)" /></svg>