<?xml version="1.0" encoding="UTF-8" standalone="no"?>
<!-- Created with Inkscape (http://www.inkscape.org/) -->

<svg
   xmlns:dc="http://purl.org/dc/elements/1.1/"
   xmlns:cc="http://creativecommons.org/ns#"
   xmlns:rdf="http://www.w3.org/1999/02/22-rdf-syntax-ns#"
   xmlns:svg="http://www.w3.org/2000/svg"
   xmlns="http://www.w3.org/2000/svg"
   xmlns:xlink="http://www.w3.org/1999/xlink"
   xmlns:sodipodi="http://sodipodi.sourceforge.net/DTD/sodipodi-0.dtd"
   xmlns:inkscape="http://www.inkscape.org/namespaces/inkscape"
   width="88"
   height="88"
   id="svg1968"
   sodipodi:version="0.32"
   inkscape:version="0.48.0 r9654"
   version="1.0"
   inkscape:export-filename="/home/pinheiro/pics/oxygen-icons/scalable/actions/small/22x22/color-picker.png"
   inkscape:export-xdpi="90"
   inkscape:export-ydpi="90"
   sodipodi:docname="color-picker.svgz">
  <defs
     id="defs1970">
    <linearGradient
       id="linearGradient4357">
      <stop
         style="stop-color:#14471f;stop-opacity:1;"
         offset="0"
         id="stop4359" />
      <stop
         style="stop-color:#2d9b45;stop-opacity:0;"
         offset="1"
         id="stop4361" />
    </linearGradient>
    <linearGradient
       id="linearGradient3152">
      <stop
         style="stop-color:#37a42c;stop-opacity:1;"
         offset="0"
         id="stop3154" />
      <stop
         id="stop3168"
         offset="0.125"
         style="stop-color:#37a42c;stop-opacity:0.60649818;" />
      <stop
         id="stop3166"
         offset="0.25"
         style="stop-color:#37a42c;stop-opacity:0.48014441;" />
      <stop
         id="stop3164"
         offset="0.5"
         style="stop-color:#37a42c;stop-opacity:0.36823106;" />
      <stop
         style="stop-color:#37a42c;stop-opacity:0.23104693;"
         offset="0.625"
         id="stop3172" />
      <stop
         style="stop-color:#37a42c;stop-opacity:0.13357401;"
         offset="0.75"
         id="stop3170" />
      <stop
         style="stop-color:#37a42c;stop-opacity:0;"
         offset="1"
         id="stop3160" />
    </linearGradient>
    <linearGradient
       id="sadow75to0w">
      <stop
         style="stop-color:#000000;stop-opacity:0.72941178;"
         offset="0.0000000"
         id="stop3429" />
      <stop
         style="stop-color:#ffffff;stop-opacity:0.0000000;"
         offset="1.0000000"
         id="stop3430" />
    </linearGradient>
    <linearGradient
       id="light100to0">
      <stop
         style="stop-color:#ffffff;stop-opacity:1.0000000;"
         offset="0.0000000"
         id="stop2764" />
      <stop
         style="stop-color:#ffffff;stop-opacity:0.0000000;"
         offset="1.0000000"
         id="stop2765" />
    </linearGradient>
    <linearGradient
       id="linearGradient3231">
      <stop
         style="stop-color:#003d07;stop-opacity:1;"
         offset="0"
         id="stop3233" />
      <stop
         style="stop-color:black;stop-opacity:0;"
         offset="1"
         id="stop3235" />
    </linearGradient>
    <linearGradient
       id="zerotowhitetozero">
      <stop
         style="stop-color:#ffffff;stop-opacity:0.0000000;"
         offset="0.0000000"
         id="stop3155" />
      <stop
         style="stop-color:#ffffff;stop-opacity:0.0000000;"
         offset="0.33462518"
         id="stop3156" />
      <stop
         style="stop-color:#ffffff;stop-opacity:1.0000000;"
         offset="0.55554277"
         id="stop3157" />
      <stop
         style="stop-color:#ffffff;stop-opacity:0.0000000;"
         offset="0.74528182"
         id="stop3158" />
      <stop
         style="stop-color:#ffffff;stop-opacity:0.0000000;"
         offset="1.0000000"
         id="stop3159" />
    </linearGradient>
    <linearGradient
       id="greylighttograyw">
      <stop
         style="stop-color:#b5b5b8;stop-opacity:1.0000000;"
         offset="0.0000000"
         id="stop575" />
      <stop
         style="stop-color:#ebebee;stop-opacity:1.0000000;"
         offset="1.0000000"
         id="stop576" />
    </linearGradient>
    <linearGradient
       inkscape:collect="always"
       id="linearGradient3182">
      <stop
         style="stop-color:white;stop-opacity:1;"
         offset="0"
         id="stop3184" />
      <stop
         style="stop-color:white;stop-opacity:0;"
         offset="1"
         id="stop3186" />
    </linearGradient>
    <linearGradient
       gradientTransform="translate(-484,-674)"
       y2="678.3681"
       x2="538.77338"
       y1="674"
       x1="538.77338"
       gradientUnits="userSpaceOnUse"
       id="XMLID_10_">
      <stop
         id="stop54"
         style="stop-color:#094422"
         offset="0" />
      <stop
         id="stop56"
         style="stop-color:#9ED676"
         offset="1" />
    </linearGradient>
    <linearGradient
       id="linearGradient3205">
      <stop
         style="stop-color:black;stop-opacity:1;"
         offset="0"
         id="stop3207" />
      <stop
         id="stop3213"
         offset="0.5"
         style="stop-color:black;stop-opacity:1;" />
      <stop
         style="stop-color:white;stop-opacity:1;"
         offset="1"
         id="stop3209" />
    </linearGradient>
    <linearGradient
       inkscape:collect="always"
       id="linearGradient3244">
      <stop
         style="stop-color:black;stop-opacity:1;"
         offset="0"
         id="stop3246" />
      <stop
         style="stop-color:black;stop-opacity:0;"
         offset="1"
         id="stop3248" />
    </linearGradient>
    <linearGradient
       gradientTransform="translate(-484,-674)"
       y2="736.55688"
       x2="579.72852"
       y1="732.41022"
       x1="579.72852"
       gradientUnits="userSpaceOnUse"
       id="XMLID_11_">
      <stop
         id="stop61"
         style="stop-color:#094422"
         offset="0" />
      <stop
         id="stop63"
         style="stop-color:#9ED676"
         offset="1" />
    </linearGradient>
    <linearGradient
       inkscape:collect="always"
       xlink:href="#XMLID_11_"
       id="linearGradient14538"
       gradientUnits="userSpaceOnUse"
       gradientTransform="matrix(0.771336,0.00534065,-0.00674515,0.812828,-8.206859,-3.489347)"
       x1="132.08015"
       y1="48.816029"
       x2="103.92957"
       y2="25.544348" />
    <linearGradient
       inkscape:collect="always"
       xlink:href="#linearGradient3244"
       id="linearGradient14540"
       gradientUnits="userSpaceOnUse"
       gradientTransform="matrix(0.791811,-0.00569436,0.00569435,0.791813,-10.40145,-2.248837)"
       x1="73.109634"
       y1="26.46607"
       x2="112.67555"
       y2="26.46607" />
    <radialGradient
       inkscape:collect="always"
       xlink:href="#linearGradient3205"
       id="radialGradient14542"
       gradientUnits="userSpaceOnUse"
       gradientTransform="matrix(0.264506,-0.247858,1.088102,1.161184,2.917604,8.813498)"
       cx="91.509644"
       cy="33.319088"
       fx="94.437843"
       fy="33.117798"
       r="9.8092254" />
    <linearGradient
       inkscape:collect="always"
       xlink:href="#XMLID_10_"
       id="linearGradient14544"
       gradientUnits="userSpaceOnUse"
       gradientTransform="matrix(0.292122,0.303062,-0.120356,0.120898,24.74506,-48.88543)"
       x1="183.57243"
       y1="247.49863"
       x2="187.18298"
       y2="123.06261" />
    <linearGradient
       inkscape:collect="always"
       xlink:href="#linearGradient3182"
       id="linearGradient14546"
       gradientUnits="userSpaceOnUse"
       gradientTransform="matrix(0.791832,-3.841809e-4,3.841803e-4,0.791833,-10.39988,-2.05907)"
       x1="73.75"
       y1="34.015625"
       x2="92.71875"
       y2="34.015625" />
    <linearGradient
       inkscape:collect="always"
       xlink:href="#XMLID_11_"
       id="linearGradient14548"
       gradientUnits="userSpaceOnUse"
       gradientTransform="matrix(0.292122,0.303062,-0.120356,0.120898,19.99675,-43.3403)"
       x1="189.70045"
       y1="98.893227"
       x2="185.19417"
       y2="223.53912" />
    <linearGradient
       inkscape:collect="always"
       xlink:href="#greylighttograyw"
       id="linearGradient14550"
       gradientUnits="userSpaceOnUse"
       gradientTransform="matrix(0.737455,-0.324894,-0.00771225,0.524038,-86.2224,-242.5344)"
       spreadMethod="reflect"
       x1="139.84422"
       y1="169.79622"
       x2="159.0388"
       y2="203.17725" />
    <linearGradient
       inkscape:collect="always"
       xlink:href="#zerotowhitetozero"
       id="linearGradient14552"
       gradientUnits="userSpaceOnUse"
       gradientTransform="matrix(0.880104,-0.421952,0.107,0.470139,-94.74358,0.99975)"
       x1="111.31033"
       y1="198.13455"
       x2="135.19012"
       y2="235.01132" />
    <linearGradient
       inkscape:collect="always"
       xlink:href="#linearGradient3231"
       id="linearGradient14554"
       gradientUnits="userSpaceOnUse"
       gradientTransform="matrix(0.791811,-0.00569436,0.00569435,0.791813,-10.61265,-1.595971)"
       x1="54.341255"
       y1="66.426491"
       x2="92.500397"
       y2="44.626854" />
    <radialGradient
       inkscape:collect="always"
       xlink:href="#zerotowhitetozero"
       id="radialGradient14556"
       gradientUnits="userSpaceOnUse"
       gradientTransform="matrix(0.45018,-0.799111,0.360501,0.212959,-62.34767,-3.921704)"
       spreadMethod="reflect"
       cx="-36.280697"
       cy="224.72163"
       fx="-36.26968"
       fy="224.71202"
       r="14.292608" />
    <radialGradient
       inkscape:collect="always"
       xlink:href="#light100to0"
       id="radialGradient14558"
       gradientUnits="userSpaceOnUse"
       gradientTransform="matrix(0.110553,0.19104,-0.250615,0.164831,36.53364,200.5801)"
       spreadMethod="pad"
       cx="-543.27472"
       cy="-157.50522"
       fx="-541.46826"
       fy="-156.95514"
       r="20.501772" />
    <radialGradient
       inkscape:collect="always"
       xlink:href="#zerotowhitetozero"
       id="radialGradient14560"
       gradientUnits="userSpaceOnUse"
       gradientTransform="matrix(0.402051,-0.828061,-0.357415,-0.218846,104.9288,89.80874)"
       spreadMethod="reflect"
       cx="-36.280697"
       cy="224.72163"
       fx="-36.26968"
       fy="224.71202"
       r="14.292608" />
    <linearGradient
       inkscape:collect="always"
       xlink:href="#sadow75to0w"
       id="linearGradient14562"
       gradientUnits="userSpaceOnUse"
       gradientTransform="matrix(1.161617,-0.04739154,0.02691281,0.545879,5.16733,-400.1846)"
       x1="-435.29645"
       y1="403.28021"
       x2="-419.48849"
       y2="405.64288" />
    <linearGradient
       inkscape:collect="always"
       xlink:href="#zerotowhitetozero"
       id="linearGradient14564"
       gradientUnits="userSpaceOnUse"
       gradientTransform="matrix(1.161617,-0.04739154,0.02691281,0.545879,5.16733,-400.1846)"
       x1="-432.85263"
       y1="405.99652"
       x2="-420.16779"
       y2="406.47195" />
    <linearGradient
       inkscape:collect="always"
       xlink:href="#zerotowhitetozero"
       id="linearGradient14566"
       gradientUnits="userSpaceOnUse"
       gradientTransform="matrix(0.07935981,0.02370168,-0.534726,0.485758,147.198,137.9845)"
       x1="-2105.8408"
       y1="-86.329994"
       x2="-2035.2124"
       y2="-88.10363" />
    <linearGradient
       inkscape:collect="always"
       xlink:href="#linearGradient3244"
       id="linearGradient14568"
       gradientUnits="userSpaceOnUse"
       gradientTransform="matrix(0.292122,0.303062,-0.120356,0.120898,24.74506,-48.88543)"
       x1="135.68752"
       y1="299.44708"
       x2="197.88403"
       y2="162.98607" />
    <radialGradient
       inkscape:collect="always"
       xlink:href="#light100to0"
       id="radialGradient14570"
       gradientUnits="userSpaceOnUse"
       gradientTransform="matrix(0.115493,-0.110368,0.117573,0.09589803,39.98305,49.17918)"
       spreadMethod="pad"
       cx="-201.00865"
       cy="-3.8498094"
       fx="-199.20219"
       fy="-3.2997303"
       r="20.501772" />
    <radialGradient
       inkscape:collect="always"
       xlink:href="#light100to0"
       id="radialGradient14572"
       gradientUnits="userSpaceOnUse"
       gradientTransform="matrix(0.04493923,0.00896343,-0.0168422,0.07584474,20.61551,74.23447)"
       spreadMethod="pad"
       cx="-115.04427"
       cy="-27.05776"
       fx="-113.23781"
       fy="-26.507681"
       r="20.501772" />
    <radialGradient
       inkscape:collect="always"
       xlink:href="#linearGradient3152"
       id="radialGradient14574"
       gradientUnits="userSpaceOnUse"
       gradientTransform="matrix(1,0,0,0.75,0,23.62477)"
       cx="24.043716"
       cy="94.499092"
       fx="23.213139"
       fy="94.227501"
       r="1.9234973" />
    <radialGradient
       inkscape:collect="always"
       xlink:href="#linearGradient3182"
       id="radialGradient14576"
       gradientUnits="userSpaceOnUse"
       gradientTransform="matrix(1.418906,-0.894138,0.338863,0.537743,-81.49941,95.59268)"
       cx="104.47214"
       cy="16.776716"
       fx="108.11813"
       fy="11.444658"
       r="12.184338" />
    <radialGradient
       inkscape:collect="always"
       xlink:href="#linearGradient4357"
       id="radialGradient14578"
       gradientUnits="userSpaceOnUse"
       gradientTransform="matrix(0.07179068,0.0648917,-1.829531,1.745137,99.92171,3.069993)"
       cx="-119.48933"
       cy="22.960737"
       fx="-102.92719"
       fy="22.425863"
       r="20.117188" />
    <linearGradient
       inkscape:collect="always"
       xlink:href="#linearGradient4357"
       id="linearGradient14580"
       gradientUnits="userSpaceOnUse"
       gradientTransform="matrix(0.563612,-0.431543,0.431542,0.563612,-1.474685,1.056708)"
       x1="-61.42284"
       y1="93.001884"
       x2="-64.420349"
       y2="92.036232" />
    <linearGradient
       inkscape:collect="always"
       xlink:href="#linearGradient3244"
       id="linearGradient3130"
       gradientUnits="userSpaceOnUse"
       gradientTransform="matrix(0.79181099,-0.00569436,0.00569436,0.79181299,27.999866,-2.2488369)"
       x1="73.109634"
       y1="26.46607"
       x2="112.67555"
       y2="26.46607" />
    <linearGradient
       inkscape:collect="always"
       xlink:href="#XMLID_11_"
       id="linearGradient3911"
       x1="99.429657"
       y1="29.112846"
       x2="146.77704"
       y2="-15.977731"
       gradientUnits="userSpaceOnUse" />
    <filter
       inkscape:collect="always"
       id="filter3921">
      <feGaussianBlur
         inkscape:collect="always"
         stdDeviation="0.78885898"
         id="feGaussianBlur3923" />
    </filter>
    <linearGradient
       inkscape:collect="always"
       xlink:href="#linearGradient3244"
       id="linearGradient3928"
       gradientUnits="userSpaceOnUse"
       gradientTransform="matrix(0.79900063,-0.00574606,0.00574606,0.79900265,27.854586,-2.6324653)"
       x1="73.109634"
       y1="26.46607"
       x2="112.67555"
       y2="26.46607" />
    <linearGradient
       inkscape:collect="always"
       xlink:href="#linearGradient4357"
       id="linearGradient3931"
       gradientUnits="userSpaceOnUse"
       gradientTransform="matrix(0.55168469,-0.48033433,0.48033331,0.55168476,-4.3852621,3.730674)"
       x1="-61.42284"
       y1="93.001884"
       x2="-64.420349"
       y2="92.036232" />
    <radialGradient
       inkscape:collect="always"
       xlink:href="#linearGradient4357"
       id="radialGradient3934"
       gradientUnits="userSpaceOnUse"
       gradientTransform="matrix(0.07803707,0.06208629,-1.7685061,1.9133117,100.02581,-0.76817218)"
       cx="-119.48933"
       cy="22.960737"
       fx="-102.92719"
       fy="22.425863"
       r="20.117188" />
    <radialGradient
       inkscape:collect="always"
       xlink:href="#linearGradient3182"
       id="radialGradient3937"
       gradientUnits="userSpaceOnUse"
       gradientTransform="matrix(1.7852558,-1.2886195,0.48836488,0.67658388,-126.66574,135.049)"
       cx="104.47214"
       cy="16.776716"
       fx="108.11813"
       fy="11.444658"
       r="12.184338" />
    <radialGradient
       inkscape:collect="always"
       xlink:href="#light100to0"
       id="radialGradient3941"
       gradientUnits="userSpaceOnUse"
       gradientTransform="matrix(0.04679827,0.00630682,-0.01240736,0.07909335,23.074427,77.558784)"
       spreadMethod="pad"
       cx="-115.04427"
       cy="-27.05776"
       fx="-113.23781"
       fy="-26.507681"
       r="20.501772" />
    <radialGradient
       inkscape:collect="always"
       xlink:href="#light100to0"
       id="radialGradient3944"
       gradientUnits="userSpaceOnUse"
       gradientTransform="matrix(0.11162756,-0.12099015,0.12713055,0.09100839,41.369566,50.535982)"
       spreadMethod="pad"
       cx="-201.00865"
       cy="-3.8498094"
       fx="-199.20219"
       fy="-3.2997303"
       r="20.501772" />
    <linearGradient
       inkscape:collect="always"
       xlink:href="#linearGradient3244"
       id="linearGradient3948"
       gradientUnits="userSpaceOnUse"
       gradientTransform="matrix(0.40775417,0.3729617,-0.14771215,0.16833523,0.61113164,-63.016246)"
       x1="135.68752"
       y1="299.44708"
       x2="197.88403"
       y2="162.98607" />
    <linearGradient
       inkscape:collect="always"
       xlink:href="#zerotowhitetozero"
       id="linearGradient3951"
       gradientUnits="userSpaceOnUse"
       gradientTransform="matrix(0.08315283,0.01923421,-0.51846446,0.53421999,157.3879,134.921)"
       x1="-2105.8408"
       y1="-86.329994"
       x2="-2035.2124"
       y2="-88.10363" />
    <radialGradient
       inkscape:collect="always"
       xlink:href="#zerotowhitetozero"
       id="radialGradient3957"
       gradientUnits="userSpaceOnUse"
       gradientTransform="matrix(0.35983794,-0.87766394,-0.38176061,-0.20191446,110.79507,88.113468)"
       spreadMethod="reflect"
       cx="-36.280697"
       cy="224.72163"
       fx="-36.26968"
       fy="224.71202"
       r="14.292608" />
    <radialGradient
       inkscape:collect="always"
       xlink:href="#light100to0"
       id="radialGradient3960"
       gradientUnits="userSpaceOnUse"
       gradientTransform="matrix(0.12607505,0.18931152,-0.24706451,0.18575682,47.631193,206.46702)"
       spreadMethod="pad"
       cx="-543.27472"
       cy="-157.50522"
       fx="-541.46826"
       fy="-156.95514"
       r="20.501772" />
    <radialGradient
       inkscape:collect="always"
       xlink:href="#zerotowhitetozero"
       id="radialGradient3963"
       gradientUnits="userSpaceOnUse"
       gradientTransform="matrix(0.41121162,-0.8510087,0.38455298,0.19566006,-67.312339,2.554567)"
       spreadMethod="reflect"
       cx="-36.280697"
       cy="224.72163"
       fx="-36.26968"
       fy="224.71202"
       r="14.292608" />
    <linearGradient
       inkscape:collect="always"
       xlink:href="#linearGradient3231"
       id="linearGradient3966"
       gradientUnits="userSpaceOnUse"
       gradientTransform="matrix(1.0369645,-0.07281636,0.0728165,1.0369671,-41.811465,1.8610303)"
       x1="73.293777"
       y1="52.400463"
       x2="94.956177"
       y2="44.645733" />
    <linearGradient
       inkscape:collect="always"
       xlink:href="#zerotowhitetozero"
       id="linearGradient3969"
       gradientUnits="userSpaceOnUse"
       gradientTransform="matrix(0.87780075,-0.4909758,0.1405036,0.47657974,-99.291708,9.6507141)"
       x1="111.31033"
       y1="198.13455"
       x2="135.19012"
       y2="235.01132" />
    <linearGradient
       inkscape:collect="always"
       xlink:href="#greylighttograyw"
       id="linearGradient3972"
       gradientUnits="userSpaceOnUse"
       gradientTransform="matrix(0.7373824,-0.38191485,0.02602041,0.53944404,-107.32574,-241.29869)"
       spreadMethod="reflect"
       x1="139.84422"
       y1="169.79622"
       x2="159.0388"
       y2="203.17725" />
    <linearGradient
       inkscape:collect="always"
       xlink:href="#XMLID_11_"
       id="linearGradient3975"
       gradientUnits="userSpaceOnUse"
       gradientTransform="matrix(0.40775417,0.3729617,-0.14771215,0.16833523,-5.1524343,-55.359067)"
       x1="189.70045"
       y1="98.893227"
       x2="185.19417"
       y2="223.53912" />
    <linearGradient
       inkscape:collect="always"
       xlink:href="#linearGradient3182"
       id="linearGradient3978"
       gradientUnits="userSpaceOnUse"
       gradientTransform="matrix(1.0374303,-0.06586067,0.06586075,1.0374316,-41.570916,1.2367139)"
       x1="73.75"
       y1="34.015625"
       x2="92.71875"
       y2="34.015625" />
    <linearGradient
       inkscape:collect="always"
       xlink:href="#XMLID_10_"
       id="linearGradient3981"
       gradientUnits="userSpaceOnUse"
       gradientTransform="matrix(0.40775417,0.3729617,-0.14771215,0.16833523,0.61113164,-63.016246)"
       x1="183.57243"
       y1="247.49863"
       x2="187.18298"
       y2="123.06261" />
    <radialGradient
       inkscape:collect="always"
       xlink:href="#linearGradient3205"
       id="radialGradient3984"
       gradientUnits="userSpaceOnUse"
       gradientTransform="matrix(0.32609896,-0.34657688,1.5214799,1.4315776,-23.22487,14.382787)"
       cx="91.509644"
       cy="33.319088"
       fx="94.437843"
       fy="33.117798"
       r="9.8092254" />
    <linearGradient
       inkscape:collect="always"
       xlink:href="#linearGradient3244"
       id="linearGradient3987"
       gradientUnits="userSpaceOnUse"
       gradientTransform="matrix(1.0369645,-0.07281636,0.0728165,1.0369671,-41.588637,0.98820997)"
       x1="73.109634"
       y1="26.46607"
       x2="112.67555"
       y2="26.46607" />
    <linearGradient
       inkscape:collect="always"
       xlink:href="#XMLID_11_"
       id="linearGradient3990"
       gradientUnits="userSpaceOnUse"
       gradientTransform="matrix(1.0110488,-0.05666824,0.05825278,1.0655278,-38.815664,-0.81825232)"
       x1="132.08015"
       y1="48.816029"
       x2="103.92957"
       y2="25.544348" />
    <clipPath
       clipPathUnits="userSpaceOnUse"
       id="clipPath3992">
      <path
         sodipodi:nodetypes="ssccccsccccccss"
         inkscape:connector-curvature="0"
         id="path3994"
         d="m 115.50697,2.992289 c -2.8325,-0.069804 -5.87452,0.9787712 -8.67127,3.5923812 -3.31651,3.0993346 -5.99559,10.0730828 -10.653268,10.1267988 -0.541389,0.815479 -0.901269,1.699375 -1.083908,2.601379 -2.332843,-1.140837 -4.331654,-1.309415 -5.388572,-0.24775 l -5.388571,4.955008 c 0.315023,2.776286 -16.080148,25.875125 -12.573334,29.51327 3.874193,4.019249 28.007165,-10.62512 30.721053,-10.684237 l 3.49947,-3.158818 1.45554,-1.424565 0.031,-0.03097 c 0.95529,-1.003313 0.90222,-2.812319 0.0619,-5.016946 0.97267,-0.04283 1.94856,-0.26482 2.8801,-0.681314 0.17287,-5.106729 7.71128,-7.509452 10.77715,-10.374549 9.25605,-8.649948 2.83019,-18.9602776 -5.66729,-19.169688 z"
         style="opacity:0.26639344;fill:url(#linearGradient3996);fill-opacity:1;stroke:none" />
    </clipPath>
    <linearGradient
       inkscape:collect="always"
       xlink:href="#linearGradient3244"
       id="linearGradient3996"
       gradientUnits="userSpaceOnUse"
       gradientTransform="matrix(0.79181099,-0.00569436,0.00569436,0.79181299,27.999866,-2.2488369)"
       x1="73.109634"
       y1="26.46607"
       x2="112.67555"
       y2="26.46607" />
    <linearGradient
       inkscape:collect="always"
       xlink:href="#XMLID_11_"
       id="linearGradient3998"
       gradientUnits="userSpaceOnUse"
       x1="99.429657"
       y1="29.112846"
       x2="146.77704"
       y2="-15.977731" />
    <radialGradient
       inkscape:collect="always"
       xlink:href="#linearGradient3152"
       id="radialGradient4000"
       gradientUnits="userSpaceOnUse"
       gradientTransform="matrix(1,0,0,0.75,0,23.62477)"
       cx="24.043716"
       cy="94.499092"
       fx="23.213139"
       fy="94.227501"
       r="1.9234973" />
    <linearGradient
       inkscape:collect="always"
       xlink:href="#sadow75to0w"
       id="linearGradient4002"
       gradientUnits="userSpaceOnUse"
       gradientTransform="matrix(1.161617,-0.04739154,0.02691281,0.545879,5.16733,-400.1846)"
       x1="-435.29645"
       y1="403.28021"
       x2="-419.48849"
       y2="405.64288" />
    <linearGradient
       inkscape:collect="always"
       xlink:href="#zerotowhitetozero"
       id="linearGradient4004"
       gradientUnits="userSpaceOnUse"
       gradientTransform="matrix(1.161617,-0.04739154,0.02691281,0.545879,5.16733,-400.1846)"
       x1="-432.85263"
       y1="405.99652"
       x2="-420.16779"
       y2="406.47195" />
    <linearGradient
       inkscape:collect="always"
       xlink:href="#linearGradient3231"
       id="linearGradient4008"
       gradientUnits="userSpaceOnUse"
       gradientTransform="matrix(0.51591663,-0.03622802,0.03622809,0.51591794,11.633813,13.171259)"
       x1="73.293777"
       y1="52.400463"
       x2="94.956177"
       y2="44.645733" />
  </defs>
  <sodipodi:namedview
     id="base"
     pagecolor="#ffffff"
     bordercolor="#666666"
     borderopacity="1.0"
     gridtolerance="10000"
     guidetolerance="10"
     objecttolerance="10"
     inkscape:pageopacity="0.0"
     inkscape:pageshadow="2"
     inkscape:zoom="2"
     inkscape:cx="31.089738"
     inkscape:cy="34.047835"
     inkscape:document-units="px"
     inkscape:current-layer="layer1"
     width="88px"
     height="88px"
     inkscape:window-width="849"
     inkscape:window-height="579"
     inkscape:window-x="169"
     inkscape:window-y="0"
     showgrid="false"
     inkscape:window-maximized="0" />
  <metadata
     id="metadata1973">
    <rdf:RDF>
      <cc:Work
         rdf:about="">
        <dc:format>image/svg+xml</dc:format>
        <dc:type
           rdf:resource="http://purl.org/dc/dcmitype/StillImage" />
        <dc:title></dc:title>
      </cc:Work>
    </rdf:RDF>
  </metadata>
  <g
     inkscape:label="Layer 1"
     inkscape:groupmode="layer"
     id="layer1">
    <path
       inkscape:connector-curvature="0"
       style="fill:url(#linearGradient3990);fill-opacity:1;stroke:none"
       d="M 62.420387,6.0634176 C 58.330898,10.397923 55.393658,19.763488 49.295585,20.218308 43.464125,30.328839 58.741507,45.287879 69.238358,39.778237 69.043349,33.073108 78.708327,29.303831 82.488752,25.296912 97.706576,9.1673223 76.214733,-8.5574063 62.420387,6.0634176 z"
       id="rect10614"
       sodipodi:nodetypes="cccss" />
    <path
       inkscape:connector-curvature="0"
       sodipodi:nodetypes="cccss"
       id="path3242"
       d="M 62.420387,6.0634176 C 58.330898,10.397923 55.393658,19.763488 49.295585,20.218308 43.464125,30.328839 58.741507,45.287879 69.238358,39.778237 69.043349,33.073108 78.708327,29.303831 82.488752,25.296912 97.706576,9.1673223 76.214733,-8.5574063 62.420387,6.0634176 z"
       style="opacity:0.26639344;fill:url(#linearGradient3987);fill-opacity:1;stroke:none" />
    <path
       inkscape:connector-curvature="0"
       style="opacity:0.35655739;fill:url(#radialGradient3984);fill-opacity:1;stroke:none"
       d="M 49.27418,20.292575 C 43.426364,29.680306 59.243283,44.415286 68.869338,40.21805 68.484603,34.061224 55.979079,22.434132 49.27418,20.292575 z"
       id="path3192"
       sodipodi:nodetypes="ccc" />
    <path
       inkscape:connector-curvature="0"
       id="path3144"
       d="m 65.833314,47.524938 -1.794616,1.965635 -4.342834,4.449447 C 56.144995,54.241483 53.789647,44.639503 48.381913,39.693236 43.486979,35.215972 35.010232,34.383648 34.368333,30.772148 l 6.653628,-6.960195 c 2.53617,-2.890229 10.13603,0.07674 16.852258,6.778497 6.750439,6.735894 10.458702,13.955688 8.000082,16.88671"
       style="fill:url(#linearGradient3981);fill-opacity:1;stroke:none"
       sodipodi:nodetypes="cccsccsc" />
    <path
       inkscape:connector-curvature="0"
       style="fill:url(#linearGradient3978);fill-opacity:1;stroke:none"
       d="m 47.264512,23.36189 -9.953979,10.365144 c 1.522629,0.805315 3.46456,1.583191 5.431047,2.487095 l 9.614096,-10.117076 c -1.87822,-1.173265 -3.451523,-2.204726 -5.091164,-2.735163 z m 7.265502,4.190915 -9.536046,9.787799 c 0.785765,0.433299 1.555958,0.887052 2.27091,1.418252 l 9.126798,-9.598538 c -0.695685,-0.578271 -1.165584,-1.103022 -1.861662,-1.607513 z"
       id="path3179"
       sodipodi:nodetypes="cccccccccc" />
    <path
       inkscape:connector-curvature="0"
       style="fill:url(#linearGradient3975);fill-opacity:1;stroke:none"
       d="M 59.895904,53.715202 C 57.359732,56.605488 50.58167,53.185339 43.580642,46.781738 36.579609,40.378083 31.993722,33.4039 34.529896,30.513617 c 2.536176,-2.890231 9.337576,0.862298 16.338609,7.265952 6.960744,6.366785 11.527008,12.956841 9.068386,15.887852"
       id="path5651"
       sodipodi:nodetypes="csssc" />
    <path
       inkscape:connector-curvature="0"
       id="path3227"
       d="M 59.895904,53.715202 C 57.359732,56.605488 50.747887,53.173666 43.746859,46.770065 36.745826,40.366411 31.993722,33.4039 34.529896,30.513617 c 2.536176,-2.890231 9.171359,0.873967 16.172391,7.277625 6.960745,6.366786 11.693226,12.945168 9.234604,15.876179"
       style="fill:url(#linearGradient3966);fill-opacity:1;stroke:none"
       sodipodi:nodetypes="csssc" />
    <path
       inkscape:connector-curvature="0"
       sodipodi:nodetypes="cccssccccccsc"
       style="opacity:0;fill:url(#linearGradient3948);fill-opacity:1;stroke:none"
       d="m 43.851362,22.636231 c -1.213949,0.06235 -2.18175,0.452119 -2.815795,1.174678 -2.25485,2.361255 -6.532464,6.689663 -6.76455,7.083764 -2.10184,3.019071 2.66633,9.642831 9.484217,15.878969 6.796577,6.216595 13.215471,9.604792 15.905621,7.154603 0.06315,-0.05752 0.124071,-0.11165 0.183054,-0.175679 l 0.06254,-0.03696 0.03013,-0.03469 4.101636,-4.195818 1.784474,-1.948946 0.06026,-0.06935 C 68.341567,44.535781 64.547759,37.340754 57.797324,30.604861 52.760152,25.578549 47.493213,22.449178 43.85137,22.636228 z"
       id="path3252" />
    <path
       inkscape:connector-curvature="0"
       style="opacity:0.454918;fill:url(#radialGradient3937);fill-opacity:1;fill-rule:evenodd;stroke:none"
       d="M 73.187393,1.2326318 C 73.014429,1.2503066 72.84417,1.275343 72.671186,1.3014438 69.456637,5.1683112 67.412134,10.562514 66.753632,16.27353 70.743357,12.429688 73.997368,12.800424 77.759763,9.769234 79.899433,8.0453941 81.51971,4.273875 78.914088,2.5564434 77.132235,1.3819808 75.156983,1.0314643 73.187393,1.2326318 z M 68.376129,2.7428217 C 67.528211,3.1744551 66.685124,3.6700353 65.907145,4.2187951 61.747793,7.698999 61.613598,11.327932 55.753538,17.762395 l 6.38234,4.631967 c 0.667522,-1.117346 1.28811,-2.077414 1.910639,-2.934756 0.895985,-7.854956 2.51268,-13.1615343 4.329612,-16.7167843 z"
       id="path3215" />
    <g
       id="g3134"
       transform="matrix(1.3102047,-0.08253937,0.08253937,1.3102047,-78.088574,6.2457382)"
       clip-path="url(#clipPath3992)">
      <path
         sodipodi:nodetypes="ccccccssscccc"
         inkscape:connector-curvature="0"
         id="path3132"
         d="m 102.4691,42.849139 3.49947,-3.158818 1.45554,-1.424565 0.031,-0.03097 c 0.95529,-1.003313 0.90222,-2.812319 0.0619,-5.016946 0.97267,-0.04283 1.94856,-0.26482 2.8801,-0.681314 0.17287,-5.106729 7.71128,-7.509452 10.77715,-10.374549 9.25605,-8.649948 2.83019,-18.9602776 -5.66729,-19.169688 -2.8325,-0.069804 -5.87452,0.9787712 -8.67127,3.5923812 -3.31651,3.0993346 -5.99559,10.0730828 -10.653268,10.1267988 -0.541389,0.815479 -0.901269,1.699375 -1.083908,2.601379 -2.332843,-1.140837 -4.331654,-1.309415 -5.388572,-0.24775 l -5.388571,4.955008"
         style="fill:none;stroke:url(#linearGradient3998);stroke-width:1.78380311;stroke-miterlimit:4;stroke-opacity:1;stroke-dasharray:none;filter:url(#filter3921)" />
    </g>
    <g
       id="g4010">
      <path
         sodipodi:nodetypes="ccscccscscccc"
         style="fill:url(#linearGradient3972);fill-opacity:1;fill-rule:evenodd;stroke:none"
         d="M 37.881339,39.277371 C 25.257667,52.300028 22.474305,55.536185 9.8506279,68.558878 c -0.043861,0.04653 -1.01879,1.052594 -1.7820854,3.222958 -0.7632882,2.170397 -0.5633956,5.83858 -3.7745737,8.497396 -2.1217936,2.267183 -1.4473842,4.085874 -0.3577971,5.499877 0.1243621,0.161379 0.3412628,0.331059 0.5433313,0.50207 0.1747869,0.194352 0.3486082,0.403702 0.511538,0.521628 1.44559,1.046293 3.2822572,1.664503 5.479531,-0.529443 2.554299,-3.296284 6.222582,-3.210556 8.365566,-4.04202 2.142951,-0.83146 3.116946,-1.838423 3.162032,-1.883767 12.60754,-13.038357 15.423213,-16.24316 28.030711,-29.281511 -2.146218,-0.509007 -4.854202,-2.512428 -7.164952,-4.76063 -2.319124,-2.243667 -4.407002,-4.894165 -4.98259,-7.028065 z"
         id="path2770"
         inkscape:connector-curvature="0" />
      <path
         style="fill:url(#linearGradient3969);fill-opacity:1;fill-rule:evenodd;stroke:none"
         d="m 8.8634239,69.798922 c 6.3626311,-3.677504 4.9918811,-0.405401 7.5369101,2.567824 1.715495,2.004123 5.308894,5.62235 1.912989,9.58823 C 32.187378,67.676557 38.122724,63.488828 51.996742,49.21041 55.976114,45.649496 50.969757,41.947223 48.089666,39.286937 44.592998,36.057127 38.864005,38.390665 35.012625,42.089503 21.269551,56.287221 22.606423,55.601204 8.8634239,69.798922 z"
         id="path2000"
         sodipodi:nodetypes="csccscc"
         inkscape:connector-curvature="0" />
      <path
         style="fill:url(#radialGradient3963);fill-opacity:1;fill-rule:evenodd;stroke:none"
         d="m 3.4349437,82.418278 c -0.124222,0.574543 0.074187,2.411668 0.6954738,2.388588 0.4720076,-0.01751 3.2561454,-3.156209 3.8288675,-3.837613 2.401858,-3.767382 2.427873,-3.701311 2.659974,-4.220797 1.08108,-2.419686 -0.132458,-7.662744 -0.6348279,-7.294214 -1.791086,1.314048 -1.9717645,5.920869 -2.821457,7.592479 -1.4397014,2.832223 -3.1654639,3.839328 -3.7280304,5.371557 z"
         id="path5092"
         sodipodi:nodetypes="cscsssc"
         inkscape:connector-curvature="0" />
      <path
         style="opacity:0.82010582;fill:url(#radialGradient3960);fill-opacity:1;fill-rule:evenodd;stroke:none"
         d="m 8.3107776,69.823377 c -0.4682021,0.627194 -0.3621964,0.306582 -0.5380062,1.288 -1.2561081,2.830896 -0.5619539,5.834776 -3.7731376,8.493594 -2.1217932,2.26719 -1.4446537,4.082674 -0.355094,5.496671 0.9263839,1.202173 3.8068243,2.937453 5.3325838,1.424436 2.8704174,-2.730419 5.4474064,-2.952145 7.9415144,-3.858384 1.108614,-0.27128 2.201427,-0.747889 3.194277,-1.539814 0.107701,-0.110686 0.227437,-0.234913 0.335324,-0.345825 -0.621925,-5.857602 -3.605825,-9.04548 -10.9872093,-11.719141 l -1.1502521,0.760463 z"
         id="path7323"
         sodipodi:nodetypes="cccccccccc"
         inkscape:connector-curvature="0" />
      <path
         style="fill:url(#radialGradient3957);fill-opacity:1;fill-rule:evenodd;stroke:none"
         d="m 8.7820212,78.346627 c -0.3386797,0.463284 -1.7933846,1.442745 -2.1644474,0.904813 -0.2819252,-0.408664 0.2541223,-4.713692 0.3902701,-5.621567 1.2300641,-4.37535 1.1660043,-4.356015 1.3974432,-4.875822 1.0781592,-2.421232 5.6338419,-4.671138 5.6803849,-4.017815 0.166003,2.329408 -3.058576,5.356998 -3.739174,7.116361 -1.1531625,2.980892 -0.8056004,5.063649 -1.5644768,6.49403 z"
         id="path7348"
         sodipodi:nodetypes="cscsssc"
         inkscape:connector-curvature="0" />
      <g
         id="g11960"
         transform="matrix(0.1984513,0.21939121,-0.21495303,0.19375352,67.05047,221.08343)">
        <path
           style="fill:url(#linearGradient4002);fill-opacity:1;stroke:none"
           d="m -471.76248,-159.41569 c 0.11446,2.32266 -3.80403,4.37148 -8.74661,4.57309 -4.94275,0.20161 -9.04707,-1.51977 -9.1616,-3.84252 -0.11461,-2.32265 3.80395,-4.37139 8.74661,-4.57309 4.91423,-0.20051 9.00111,1.49707 9.15935,3.8045"
           id="path8110"
           inkscape:connector-curvature="0" />
        <path
           style="opacity:0.82539685;fill:url(#linearGradient4004);fill-opacity:1;stroke:none"
           d="m -471.76248,-159.41569 c 0.11446,2.32266 -3.80403,4.37148 -8.74661,4.57309 -4.94275,0.20161 -9.04707,-1.51977 -9.1616,-3.84252 -0.11461,-2.32265 3.80395,-4.37139 8.74661,-4.57309 4.91423,-0.20051 9.00111,1.49707 9.15935,3.8045"
           id="path8872"
           inkscape:connector-curvature="0" />
      </g>
      <path
         style="fill:url(#linearGradient3951);fill-opacity:1;fill-rule:evenodd;stroke:none"
         d="M 45.427149,38.211495 15.760394,69.399919 c -0.362444,0.373463 -0.99932,0.594312 -1.427963,0.495173 L 9.424501,68.759829 C 8.9958649,68.660689 8.9426066,68.280185 9.3050488,67.906729 L 38.963252,37.122284 c 1.290964,-1.252411 3.287512,-0.995584 6.463897,1.089211 z"
         id="rect8885"
         sodipodi:nodetypes="ccccccc"
         inkscape:connector-curvature="0" />
      <path
         style="opacity:0.02016129;fill:#000000;fill-opacity:1;fill-rule:evenodd;stroke:none"
         d="m 40.641581,36.36296 c -0.358585,0.369959 -2.532693,2.908398 -2.891536,3.278664 -0.03984,0.0367 -0.08569,0.06016 -0.124956,0.0978 -12.623681,13.0227 -15.671321,16.382056 -28.294998,29.404754 0.2348745,-0.242008 0.4900793,-0.405396 0.733914,-0.609365 -0.088508,0.09132 -0.1783934,0.1839 -0.2668957,0.275221 -0.04383,0.04657 -1.0178566,1.063495 -1.7811528,3.233859 -0.7632891,2.170367 -1.2896519,5.977154 -3.7735636,8.486299 -2.1218289,2.267192 -1.4446864,4.082683 -0.3550934,5.496677 0.9263416,1.202176 3.8067879,2.937449 5.3325466,1.424397 2.8704569,-2.7304 5.4478739,-2.94481 7.9419469,-3.851052 0.958635,-0.234576 1.892773,-0.671085 2.773408,-1.284331 -0.134311,0.152901 -0.241922,0.322657 -0.386097,0.468007 0.188361,-0.193597 0.380117,-0.384875 0.568478,-0.578466 0.07778,-0.05742 0.161482,-0.09123 0.238053,-0.152327 C 25.109124,77.167905 30.138195,71.949671 35.136008,66.77258 42.696307,59.010364 52.894771,48.21559 52.679604,48.169484 53.757569,45.33171 50.397067,42.471475 48.73814,40.991425 47.045332,39.481136 43.511198,36.210987 40.641581,36.36296 z"
         id="path12161"
         sodipodi:nodetypes="ccccccccccccccccczc"
         inkscape:connector-curvature="0" />
      <path
         sodipodi:nodetypes="cccccccccc"
         id="path3604"
         d="m 8.3107776,69.823377 c -0.4682021,0.627194 -0.3621964,0.306582 -0.5380062,1.288 -1.2561081,2.830896 -0.5619539,5.834776 -3.7731376,8.493594 -2.1217932,2.26719 -1.4446537,4.082674 -0.355094,5.496671 0.9263839,1.202173 3.8068243,2.937453 5.3325838,1.424436 2.8704174,-2.730419 5.4474064,-2.952145 7.9415144,-3.858384 1.108614,-0.27128 2.201427,-0.747889 3.194277,-1.539814 0.107701,-0.110686 0.227437,-0.234913 0.335324,-0.345825 -0.621925,-5.857602 -3.605825,-9.04548 -10.9872093,-11.719141 l -1.1502521,0.760463 z"
         style="opacity:0.82010582;fill:url(#radialGradient3944);fill-opacity:1;fill-rule:evenodd;stroke:none"
         inkscape:connector-curvature="0" />
      <path
         style="opacity:0.82010582;fill:url(#radialGradient3941);fill-opacity:1;fill-rule:evenodd;stroke:none"
         d="m 8.3107776,69.823377 c -0.4682021,0.627194 -0.3621964,0.306582 -0.5380062,1.288 -1.2561081,2.830896 -0.5619539,5.834776 -3.7731376,8.493594 -2.1217932,2.26719 -1.4446537,4.082674 -0.355094,5.496671 0.9263839,1.202173 3.8068243,2.937453 5.3325838,1.424436 2.8704174,-2.730419 5.4474064,-2.952145 7.9415144,-3.858384 1.108614,-0.27128 2.201427,-0.747889 3.194277,-1.539814 0.107701,-0.110686 0.227437,-0.234913 0.335324,-0.345825 C 19.826314,74.924453 16.842414,71.736575 9.46103,69.062914 l -1.1502524,0.760463 z"
         id="path3612"
         sodipodi:nodetypes="cccccccccc"
         inkscape:connector-curvature="0" />
      <path
         transform="matrix(0.86154545,1.2454438,0.33973695,-1.7034382,-43.663397,207.8685)"
         d="m 25.967214,94.499092 a 1.9234973,1.442623 0 1 1 -3.846995,0 1.9234973,1.442623 0 1 1 3.846995,0 z"
         sodipodi:ry="1.442623"
         sodipodi:rx="1.9234973"
         sodipodi:cy="94.499092"
         sodipodi:cx="24.043716"
         id="path3150"
         style="opacity:0.03999999;fill:url(#radialGradient4000);fill-opacity:1;fill-rule:nonzero;stroke:none"
         sodipodi:type="arc" />
      <path
         sodipodi:nodetypes="ccccc"
         id="rect3459"
         d="m 37.992646,39.738326 c 1.686442,3.540559 5.521936,6.987846 8.454768,9.020023 L 23.682979,75.636516 14.700818,67.902305 z"
         style="opacity:0.23999999;fill:url(#radialGradient3934);fill-opacity:1;fill-rule:nonzero;stroke:none"
         inkscape:connector-curvature="0" />
      <path
         sodipodi:nodetypes="ccccccc"
         id="rect4446"
         d="m 4.6547812,85.254943 1.7794302,-1.56636 c 0.1009589,0.07153 0.1760917,0.156686 0.2082633,0.193636 l -1.7886812,1.601299 c -0.014141,0.01232 -0.035439,0.01082 -0.047753,-0.0034 L 4.6514801,85.302694 c -0.012313,-0.01414 -0.010848,-0.03544 0.00331,-0.04775 z"
         style="opacity:0.48360656;fill:url(#linearGradient3931);fill-opacity:1;fill-rule:nonzero;stroke:none"
         inkscape:connector-curvature="0" />
    </g>
  </g>
</svg>
