<?xml version="1.0" encoding="UTF-8" standalone="no"?>
<!-- Created with Inkscape (http://www.inkscape.org/) -->

<svg
   xmlns:dc="http://purl.org/dc/elements/1.1/"
   xmlns:cc="http://creativecommons.org/ns#"
   xmlns:rdf="http://www.w3.org/1999/02/22-rdf-syntax-ns#"
   xmlns:svg="http://www.w3.org/2000/svg"
   xmlns="http://www.w3.org/2000/svg"
   xmlns:xlink="http://www.w3.org/1999/xlink"
   xmlns:sodipodi="http://sodipodi.sourceforge.net/DTD/sodipodi-0.dtd"
   xmlns:inkscape="http://www.inkscape.org/namespaces/inkscape"
   width="128"
   height="128"
   id="svg3408"
   sodipodi:version="0.32"
   inkscape:version="0.46+devel"
   version="1.0"
   sodipodi:docname="draw-cross.svgz"
   inkscape:output_extension="org.inkscape.output.svgz.inkscape"
   inkscape:export-filename="/home/pinheiro/pics/oxygen-icons/scalable/actions/small/16x16/draw-cross.png"
   inkscape:export-xdpi="30.9375"
   inkscape:export-ydpi="30.9375">
  <defs
     id="defs3410">
    <inkscape:perspective
       sodipodi:type="inkscape:persp3d"
       inkscape:vp_x="0 : 64 : 1"
       inkscape:vp_y="0 : 1000 : 0"
       inkscape:vp_z="128 : 64 : 1"
       inkscape:persp3d-origin="64 : 42.666667 : 1"
       id="perspective27" />
    <linearGradient
       inkscape:collect="always"
       id="linearGradient3310">
      <stop
         style="stop-color:#ffffff;stop-opacity:1;"
         offset="0"
         id="stop3312" />
      <stop
         style="stop-color:#ffffff;stop-opacity:0;"
         offset="1"
         id="stop3314" />
    </linearGradient>
    <linearGradient
       id="linearGradient3369">
      <stop
         style="stop-color:#ffffff;stop-opacity:1;"
         offset="0"
         id="stop3372" />
      <stop
         id="stop3374"
         offset="0.42597079"
         style="stop-color:#ffffff;stop-opacity:1;" />
      <stop
         id="stop3376"
         offset="0.5892781"
         style="stop-color:#f1f1f1;stop-opacity:1;" />
      <stop
         style="stop-color:#eaeaea;stop-opacity:1;"
         offset="0.80219781"
         id="stop3378" />
      <stop
         style="stop-color:#dfdfdf;stop-opacity:1;"
         offset="1"
         id="stop3384" />
    </linearGradient>
    <linearGradient
       id="linearGradient7422">
      <stop
         id="stop7424"
         offset="0"
         style="stop-color:#b4b4b6;stop-opacity:1;" />
      <stop
         style="stop-color:#9c9ca1;stop-opacity:1;"
         offset="0.5"
         id="stop5348" />
      <stop
         style="stop-color:#cdcdd1;stop-opacity:1;"
         offset="1"
         id="stop7426" />
    </linearGradient>
    <linearGradient
       inkscape:collect="always"
       xlink:href="#linearGradient7422"
       id="linearGradient2427"
       gradientUnits="userSpaceOnUse"
       gradientTransform="matrix(0.129048,0,0,7.8071538e-2,-7.8753813,-2.9021226)"
       x1="399.77466"
       y1="1164.6696"
       x2="399.77466"
       y2="549.06134" />
    <linearGradient
       inkscape:collect="always"
       xlink:href="#linearGradient3369"
       id="linearGradient2429"
       gradientUnits="userSpaceOnUse"
       gradientTransform="matrix(1.1666667,0,0,0.4444445,-10.666665,35.555557)"
       x1="11.523571"
       y1="251.25061"
       x2="119.74484"
       y2="-32.830193" />
    <linearGradient
       inkscape:collect="always"
       xlink:href="#linearGradient3310"
       id="linearGradient2444"
       gradientUnits="userSpaceOnUse"
       gradientTransform="matrix(1.3706519,0,0,1.3706519,-39.404461,9.2589603)"
       x1="97.382973"
       y1="20.757973"
       x2="72.265488"
       y2="45.875454" />
  </defs>
  <sodipodi:namedview
     id="base"
     pagecolor="#ffffff"
     bordercolor="#666666"
     borderopacity="1.0"
     inkscape:pageopacity="0.0"
     inkscape:pageshadow="2"
     inkscape:zoom="0.25000001"
     inkscape:cx="1440.2801"
     inkscape:cy="-506.00237"
     inkscape:document-units="px"
     inkscape:current-layer="layer1"
     height="128px"
     width="128px"
     showborder="true"
     inkscape:showpageshadow="false"
     showgrid="true"
     inkscape:window-width="957"
     inkscape:window-height="788"
     inkscape:window-x="770"
     inkscape:window-y="12"
     showguides="true"
     inkscape:guide-bbox="true">
    <inkscape:grid
       id="GridFromPre046Settings"
       type="xygrid"
       originx="0px"
       originy="0px"
       spacingx="5.8181px"
       spacingy="5.8181px"
       color="#0000ff"
       empcolor="#0000ff"
       opacity="0.2"
       empopacity="0.4"
       empspacing="2"
       visible="true"
       enabled="true" />
  </sodipodi:namedview>
  <metadata
     id="metadata3413">
    <rdf:RDF>
      <cc:Work
         rdf:about="">
        <dc:format>image/svg+xml</dc:format>
        <dc:type
           rdf:resource="http://purl.org/dc/dcmitype/StillImage" />
        <dc:title></dc:title>
      </cc:Work>
    </rdf:RDF>
  </metadata>
  <g
     inkscape:label="Livello 1"
     inkscape:groupmode="layer"
     id="layer1">
    <path
       style="fill:url(#linearGradient2427);fill-opacity:1;fill-rule:nonzero;stroke:none;stroke-width:2;stroke-linecap:round;stroke-linejoin:round;stroke-miterlimit:4;stroke-dasharray:none;stroke-dashoffset:4;stroke-opacity:1"
       d="m 43.75795,-0.1215 c -1.534154,0 -2.78125,1.2608928 -2.78125,2.84375 l -0.25,38.00625 -37.90625,0 c -1.5828572,0 -2.84375,1.247097 -2.84375,2.78125 l 0.25,40.9823 c 0,1.534154 1.2608929,2.78125 2.84375,2.78125 l 37.65625,0 0,38.00625 c 0,1.58286 1.247097,2.84375 2.78125,2.84375 l 40.9823,0 c 1.534154,0 2.78125,-1.2609 2.78125,-2.84375 l 0,-38.00625 37.85625,0 c 1.58286,0 2.84375,-1.247093 2.84375,-2.78125 l 0.05,-40.9823 c 0,-1.534154 -1.26089,-2.78125 -2.84375,-2.78125 l -37.90625,0 0.25,-38.00625 c 0,-1.5828572 -1.247093,-2.84375 -2.78125,-2.84375 l -40.9823,0 z"
       id="rect2324"
       sodipodi:nodetypes="ccccccccccccccccccccc" />
    <path
       style="fill:url(#linearGradient2429);fill-opacity:1;fill-rule:evenodd;stroke:none;stroke-width:8;stroke-linecap:round;stroke-linejoin:round;stroke-miterlimit:4;stroke-dasharray:none;stroke-opacity:1"
       d="M 48.0375,6 C 47.237278,6 46.6,6.6689999 46.6,7.5 l -0.0552,39.0466 -39.2,0 c -0.8309999,0 -1.5,0.63728 -1.5,1.4375 l 0,32.0336 c 0,0.800222 0.6689999,1.4375 1.5,1.4375 l 39.2,0 0,39.2 c 0,0.831 0.63728,1.5 1.4375,1.5 l 32.0336,0 c 0.800222,0 1.4375,-0.669 1.4375,-1.5 l 0,-39.2 39.2,0 c 0.831,0 1.5,-0.63728 1.5,-1.4375 l 0,-32.0336 c 0,-0.800222 -0.669,-1.4375 -1.5,-1.4375 l -39.2,0 0,-39 c 0,-0.8309999 -0.63728,-1.5 -1.4375,-1.5 L 48.0375,6 z"
       id="rect2326"
       sodipodi:nodetypes="ccccccccccccccccccccc" />
    <path
       style="fill:url(#linearGradient2444);fill-opacity:1;fill-rule:evenodd;stroke:none;stroke-width:1px;stroke-linecap:butt;stroke-linejoin:miter;stroke-opacity:1"
       d="M 80,36.625 C 67.669664,48.04406 56.463036,60.446498 49.09375,75.0625 L 88,80 c 1.231419,-9.569615 2.403626,-23.550225 6.3125,-32 L 80,48 80,36.625 z"
       id="path3318"
       sodipodi:nodetypes="cccccc" />
  </g>
</svg>
