<?xml version="1.0" encoding="UTF-8" standalone="no"?>
<!-- Created with Inkscape (http://www.inkscape.org/) -->

<svg
   xmlns:dc="http://purl.org/dc/elements/1.1/"
   xmlns:cc="http://creativecommons.org/ns#"
   xmlns:rdf="http://www.w3.org/1999/02/22-rdf-syntax-ns#"
   xmlns:svg="http://www.w3.org/2000/svg"
   xmlns="http://www.w3.org/2000/svg"
   xmlns:xlink="http://www.w3.org/1999/xlink"
   xmlns:sodipodi="http://sodipodi.sourceforge.net/DTD/sodipodi-0.dtd"
   xmlns:inkscape="http://www.inkscape.org/namespaces/inkscape"
   width="88"
   height="88"
   id="svg2"
   sodipodi:version="0.32"
   inkscape:version="0.47pre3 r22311"
   version="1.0"
   sodipodi:docname="emblem-encrypted-unlocked.svgz"
   inkscape:output_extension="org.inkscape.output.svgz.inkscape"
   inkscape:export-filename="/home/pinheiro/pics/oxygen-icons/scalable/emblems/small/22x22/emblem-encrypted-locked.png"
   inkscape:export-xdpi="90"
   inkscape:export-ydpi="90"
   sodipodi:modified="true">
  <defs
     id="defs4">
    <inkscape:perspective
       sodipodi:type="inkscape:persp3d"
       inkscape:vp_x="0 : 44 : 1"
       inkscape:vp_y="0 : 1000 : 0"
       inkscape:vp_z="88 : 44 : 1"
       inkscape:persp3d-origin="44 : 29.333333 : 1"
       id="perspective46" />
    <linearGradient
       inkscape:collect="always"
       id="linearGradient3520">
      <stop
         style="stop-color:#ffffff;stop-opacity:1;"
         offset="0"
         id="stop3522" />
      <stop
         style="stop-color:#ffffff;stop-opacity:0;"
         offset="1"
         id="stop3524" />
    </linearGradient>
    <linearGradient
       inkscape:collect="always"
       id="linearGradient3185">
      <stop
         style="stop-color:#eeeeee;stop-opacity:1;"
         offset="0"
         id="stop3187" />
      <stop
         style="stop-color:#eeeeee;stop-opacity:0;"
         offset="1"
         id="stop3189" />
    </linearGradient>
    <linearGradient
       inkscape:collect="always"
       id="linearGradient3133">
      <stop
         style="stop-color:#646661;stop-opacity:1"
         offset="0"
         id="stop3135" />
      <stop
         style="stop-color:#111111;stop-opacity:1"
         offset="1"
         id="stop3137" />
    </linearGradient>
    <radialGradient
       inkscape:collect="always"
       xlink:href="#linearGradient3133"
       id="radialGradient3139"
       cx="64"
       cy="35.686314"
       fx="64"
       fy="35.686314"
       r="40"
       gradientUnits="userSpaceOnUse"
       gradientTransform="matrix(1.7049712,0,0,1.1542057,-65.190513,-27.918007)" />
    <linearGradient
       inkscape:collect="always"
       xlink:href="#linearGradient3185"
       id="linearGradient3191"
       x1="112"
       y1="98.41069"
       x2="61.978939"
       y2="11.771669"
       gradientUnits="userSpaceOnUse" />
    <clipPath
       clipPathUnits="userSpaceOnUse"
       id="clipPath3393">
      <path
         style="opacity:1;fill:#dbdbdb;fill-opacity:1;stroke:none;stroke-width:0.5;stroke-linecap:round;stroke-linejoin:round;stroke-miterlimit:4;stroke-dasharray:none;stroke-opacity:1"
         d="M 13.8125,8 C 10.584167,8 8,10.584167 8,13.8125 L 8,114.1875 C 8,117.41583 10.584167,120 13.8125,120 L 114.1875,120 C 117.41583,120 120,117.41583 120,114.1875 L 120,13.8125 C 120,10.584167 117.41583,8 114.1875,8 L 13.8125,8 z M 21.8125,16 L 106.1875,16 C 109.41583,16 112,18.584167 112,21.8125 L 112,106.1875 C 112,109.41583 109.41583,112 106.1875,112 L 21.8125,112 C 18.584166,112 16,109.41583 16,106.1875 L 16,21.8125 C 16,18.584166 18.584167,16 21.8125,16 z "
         id="path3395" />
    </clipPath>
    <radialGradient
       inkscape:collect="always"
       xlink:href="#linearGradient3133"
       id="radialGradient3413"
       gradientUnits="userSpaceOnUse"
       gradientTransform="matrix(2.1360441,0,0,-1.446027,-72.706823,154.18422)"
       cx="64"
       cy="35.686314"
       fx="64"
       fy="35.686314"
       r="40" />
    <radialGradient
       inkscape:collect="always"
       xlink:href="#linearGradient3133"
       id="radialGradient3417"
       gradientUnits="userSpaceOnUse"
       gradientTransform="matrix(2.1360441,0,0,1.446027,-72.706823,-25.184217)"
       cx="64"
       cy="35.686314"
       fx="64"
       fy="35.686314"
       r="40" />
    <filter
       inkscape:collect="always"
       id="filter3351">
      <feGaussianBlur
         inkscape:collect="always"
         stdDeviation="2"
         id="feGaussianBlur3353" />
    </filter>
    <linearGradient
       inkscape:collect="always"
       xlink:href="#linearGradient3520"
       id="linearGradient3599"
       gradientUnits="userSpaceOnUse"
       gradientTransform="matrix(2.0048313,0,0,1.3573873,-24.115952,-22.872785)"
       x1="34.001774"
       y1="63.698586"
       x2="23.997318"
       y2="63.698586" />
    <radialGradient
       r="40"
       fy="35.686314"
       fx="64"
       cy="35.686314"
       cx="64"
       gradientTransform="matrix(2.1360441,0,0,1.446027,-72.706823,-25.184217)"
       gradientUnits="userSpaceOnUse"
       id="radialGradient2249"
       xlink:href="#linearGradient3133"
       inkscape:collect="always" />
    <radialGradient
       r="40"
       fy="35.686314"
       fx="64"
       cy="35.686314"
       cx="64"
       gradientTransform="matrix(2.1360441,0,0,-1.446027,-72.706823,154.18422)"
       gradientUnits="userSpaceOnUse"
       id="radialGradient2247"
       xlink:href="#linearGradient3133"
       inkscape:collect="always" />
    <clipPath
       id="clipPath2243"
       clipPathUnits="userSpaceOnUse">
      <path
         id="path2245"
         d="M 13.8125,8 C 10.584167,8 8,10.584167 8,13.8125 L 8,114.1875 C 8,117.41583 10.584167,120 13.8125,120 L 114.1875,120 C 117.41583,120 120,117.41583 120,114.1875 L 120,13.8125 C 120,10.584167 117.41583,8 114.1875,8 L 13.8125,8 z M 21.8125,16 L 106.1875,16 C 109.41583,16 112,18.584167 112,21.8125 L 112,106.1875 C 112,109.41583 109.41583,112 106.1875,112 L 21.8125,112 C 18.584166,112 16,109.41583 16,106.1875 L 16,21.8125 C 16,18.584166 18.584167,16 21.8125,16 z "
         style="opacity:1;fill:#dbdbdb;fill-opacity:1;stroke:none;stroke-width:0.5;stroke-linecap:round;stroke-linejoin:round;stroke-miterlimit:4;stroke-dasharray:none;stroke-opacity:1" />
    </clipPath>
    <linearGradient
       gradientUnits="userSpaceOnUse"
       y2="11.771669"
       x2="61.978939"
       y1="98.41069"
       x1="112"
       id="linearGradient2241"
       xlink:href="#linearGradient3185"
       inkscape:collect="always" />
    <radialGradient
       gradientTransform="matrix(1.6989083,0,0,1.1501014,-64.894779,-27.892903)"
       gradientUnits="userSpaceOnUse"
       r="40"
       fy="35.686314"
       fx="64"
       cy="35.686314"
       cx="64"
       id="radialGradient2239"
       xlink:href="#linearGradient3133"
       inkscape:collect="always" />
    <radialGradient
       inkscape:collect="always"
       xlink:href="#linearGradient3133"
       id="radialGradient2267"
       gradientUnits="userSpaceOnUse"
       gradientTransform="matrix(1.7049712,0,0,1.1542057,-65.190513,-27.918007)"
       cx="64"
       cy="35.686314"
       fx="64"
       fy="35.686314"
       r="40" />
    <inkscape:perspective
       id="perspective2932"
       inkscape:persp3d-origin="0.5 : 0.33333333 : 1"
       inkscape:vp_z="1 : 0.5 : 1"
       inkscape:vp_y="0 : 1000 : 0"
       inkscape:vp_x="0 : 0.5 : 1"
       sodipodi:type="inkscape:persp3d" />
    <filter
       inkscape:collect="always"
       id="filter3826"
       x="-0.21303318"
       width="1.4260664"
       y="-0.15037636"
       height="1.3007527">
      <feGaussianBlur
         inkscape:collect="always"
         stdDeviation="2.1303318"
         id="feGaussianBlur3828" />
    </filter>
  </defs>
  <sodipodi:namedview
     id="base"
     pagecolor="#ffffff"
     bordercolor="#666666"
     borderopacity="1.0"
     gridtolerance="10000"
     guidetolerance="10"
     objecttolerance="10"
     inkscape:pageopacity="0"
     inkscape:pageshadow="2"
     inkscape:zoom="2.8284271"
     inkscape:cx="3.4362078"
     inkscape:cy="46.063027"
     inkscape:document-units="px"
     inkscape:current-layer="layer1"
     width="88px"
     height="88px"
     showgrid="true"
     inkscape:window-width="748"
     inkscape:window-height="734"
     inkscape:window-x="79"
     inkscape:window-y="0"
     inkscape:grid-points="false"
     inkscape:window-maximized="0"
     inkscape:snap-nodes="true"
     inkscape:snap-bbox="true">
    <inkscape:grid
       id="GridFromPre046Settings"
       type="xygrid"
       originx="0px"
       originy="0px"
       spacingx="4px"
       spacingy="4px"
       color="#0000ff"
       empcolor="#0000ff"
       opacity="0.2"
       empopacity="0.4"
       empspacing="2" />
  </sodipodi:namedview>
  <metadata
     id="metadata7">
    <rdf:RDF>
      <cc:Work
         rdf:about="">
        <dc:format>image/svg+xml</dc:format>
        <dc:type
           rdf:resource="http://purl.org/dc/dcmitype/StillImage" />
        <dc:title></dc:title>
      </cc:Work>
    </rdf:RDF>
  </metadata>
  <g
     inkscape:label="Layer 1"
     inkscape:groupmode="layer"
     id="layer1">
    <g
       id="g2255"
       inkscape:label="Layer 1"
       transform="translate(0.164648,0.164648)">
      <rect
         transform="matrix(0.7504547,0,0,0.7504547,-4.1937488,-4.1937488)"
         clip-path="url(#clipPath3393)"
         ry="8.0662766"
         rx="8.0662766"
         y="14"
         x="14"
         height="100"
         width="100"
         id="rect2257"
         style="opacity:0.7;fill:#000000;fill-opacity:1;stroke:none;stroke-width:0.5;stroke-linecap:round;stroke-linejoin:round;stroke-miterlimit:4;stroke-dasharray:none;stroke-opacity:1;filter:url(#filter3351)" />
      <rect
         style="opacity:0.7;fill:#eeeeee;fill-opacity:1;stroke:none;stroke-width:0.5;stroke-linecap:round;stroke-linejoin:round;stroke-miterlimit:4;stroke-dasharray:none;stroke-opacity:1"
         id="rect2259"
         width="72.043633"
         height="72.043633"
         x="7.8135252"
         y="7.8135252"
         rx="5.6263733"
         ry="5.6263733" />
      <rect
         ry="5.6263733"
         rx="5.6263733"
         y="11.835352"
         x="11.835352"
         height="63.999996"
         width="63.999996"
         id="rect2261"
         style="fill:url(#radialGradient2267);fill-opacity:1;stroke:none;opacity:0.81642512" />
      <rect
         ry="3.8304548"
         rx="3.8304548"
         y="8.1887531"
         x="8.1887531"
         height="71.29319"
         width="71.29319"
         id="rect2263"
         style="opacity:0.7;fill:none;fill-opacity:1;stroke:#ffffff;stroke-width:1;stroke-linecap:round;stroke-linejoin:round;stroke-miterlimit:4;stroke-dasharray:none;stroke-opacity:1" />
      <path
         style="fill:#000000;fill-opacity:1;stroke:none"
         d="M 28 12 L 28 20 L 28 28 L 36 28 L 44 28 L 44 20 L 36 20 L 36 12 L 28 12 z M 44 20 L 60 20 L 60 12 L 44 12 L 44 20 z M 60 20 L 60 36 L 60 44 L 68 44 L 68 36 L 68 28 L 76 28 L 76 20 L 68 20 L 60 20 z M 60 44 L 52 44 L 52 52 L 60 52 L 60 44 z M 52 52 L 44 52 L 36 52 L 36 60 L 44 60 L 52 60 L 52 52 z M 36 52 L 36 44 L 28 44 L 28 52 L 36 52 z M 28 52 L 20 52 L 12 52 L 12 60 L 20 60 L 20 68 L 28 68 L 28 60 L 28 52 z M 20 68 L 12 68 L 12 70.375 C 12 73.49201 14.507989 76 17.625 76 L 20 76 L 20 68 z M 28 44 L 28 36 L 20 36 L 12 36 L 12 44 L 20 44 L 28 44 z M 36 44 L 44 44 L 52 44 L 52 36 L 52 28 L 44 28 L 44 36 L 36 36 L 36 44 z M 12 20 L 12 28 L 20 28 L 20 20 L 12 20 z M 68 52 L 68 60 L 76 60 L 76 52 L 68 52 z M 68 60 L 60 60 L 60 68 L 68 68 L 68 60 z M 60 68 L 52 68 L 52 76 L 60 76 L 60 68 z M 36 68 L 36 76 L 44 76 L 44 68 L 36 68 z "
         transform="translate(-0.164648,-0.164648)"
         id="rect2964" />
    </g>
    <rect
       style="fill:#ffffff;fill-opacity:1;stroke:none"
       id="rect3671"
       width="24"
       height="3.9999998"
       x="32"
       y="52"
       rx="0"
       ry="0" />
    <path
       style="fill:#ffffff;fill-opacity:1;stroke:none"
       d="m 44,34 c -6.627417,0 -12,5.372583 -12,12 l 4,0 c 0,-4.418278 3.581722,-8 8,-8 4.418278,0 8,3.581722 8,8 l 4,0 C 56,39.372583 50.627417,34 44,34 z"
       id="path3673"
       sodipodi:nodetypes="cccsccc" />
    <path
       style="fill:#ffffff;fill-opacity:1;stroke:none"
       d="m 32,46 3.999998,0 0,6.000004 -3.999998,0 L 32,46 z"
       id="rect3678"
       sodipodi:nodetypes="ccccc" />
    <path
       style="fill:#ffffff;fill-opacity:1;stroke:#ffffff;stroke-opacity:1;filter:url(#filter3826)"
       d="m 44,34 c -6.627417,0 -12,5.372583 -12,12 l 0,6 0,4 0,8 0,4 24,0 0,-4 0,-8 0,-4 -20,0 0,-6 c 0,-4.418278 3.581722,-8 8,-8 4.418278,0 8,3.581722 8,8 l 4,0 C 56,39.372583 50.627417,34 44,34 z"
       id="rect3741"
       sodipodi:nodetypes="ccccccccccccsccc" />
    <rect
       ry="0"
       rx="0"
       y="64"
       x="32"
       height="3.9999998"
       width="24"
       id="rect3807"
       style="fill:#ffffff;fill-opacity:1;stroke:none" />
    <rect
       style="fill:#ffffff;fill-opacity:1;stroke:none"
       id="rect3809"
       width="3.9999998"
       height="7.9999995"
       x="32"
       y="56"
       rx="0"
       ry="0" />
    <rect
       ry="0"
       rx="0"
       y="56"
       x="52"
       height="7.9999995"
       width="3.9999998"
       id="rect3811"
       style="fill:#ffffff;fill-opacity:1;stroke:none" />
    <path
       sodipodi:nodetypes="ccccc"
       id="path3855"
       d="m 52,46 3.999998,0 0,6.000004 -3.999998,0 L 52,46 z"
       style="fill:#ffffff;fill-opacity:1;stroke:none" />
  </g>
</svg>
