<?xml version="1.0" encoding="UTF-8" standalone="no"?>
<!-- Created with Inkscape (http://www.inkscape.org/) -->
<svg
   xmlns:dc="http://purl.org/dc/elements/1.1/"
   xmlns:cc="http://web.resource.org/cc/"
   xmlns:rdf="http://www.w3.org/1999/02/22-rdf-syntax-ns#"
   xmlns:svg="http://www.w3.org/2000/svg"
   xmlns="http://www.w3.org/2000/svg"
   xmlns:xlink="http://www.w3.org/1999/xlink"
   xmlns:sodipodi="http://sodipodi.sourceforge.net/DTD/sodipodi-0.dtd"
   xmlns:inkscape="http://www.inkscape.org/namespaces/inkscape"
   width="22"
   height="22"
   id="svg2"
   sodipodi:version="0.32"
   inkscape:version="0.45.1"
   version="1.0"
   sodipodi:docbase="/home/david/oxy-icns/scalable/small/22x22"
   sodipodi:docname="face-glasses.svgz"
   inkscape:output_extension="org.inkscape.output.svgz.inkscape"
   inkscape:export-filename="/home/david/face-glasses.png"
   inkscape:export-xdpi="90"
   inkscape:export-ydpi="90">
  <defs
     id="defs4">
    <linearGradient
       id="linearGradient3291">
      <stop
         style="stop-color:#ffffff;stop-opacity:1;"
         offset="0"
         id="stop3293" />
      <stop
         style="stop-color:#000000;stop-opacity:1;"
         offset="1"
         id="stop3295" />
    </linearGradient>
    <linearGradient
       inkscape:collect="always"
       id="linearGradient4394">
      <stop
         style="stop-color:#ffaa00;stop-opacity:1"
         offset="0"
         id="stop4396" />
      <stop
         style="stop-color:#ffffbf;stop-opacity:1"
         offset="1"
         id="stop4398" />
    </linearGradient>
    <linearGradient
       id="linearGradient4350">
      <stop
         id="stop4352"
         offset="0"
         style="stop-color:#ffffff;stop-opacity:1;" />
      <stop
         id="stop4354"
         offset="1"
         style="stop-color:#ffffff;stop-opacity:0;" />
    </linearGradient>
    <linearGradient
       inkscape:collect="always"
       id="linearGradient4335">
      <stop
         style="stop-color:#ffffff;stop-opacity:1;"
         offset="0"
         id="stop4337" />
      <stop
         style="stop-color:#ffffff;stop-opacity:0;"
         offset="1"
         id="stop4339" />
    </linearGradient>
    <linearGradient
       inkscape:collect="always"
       id="linearGradient4235">
      <stop
         style="stop-color:#ffffff;stop-opacity:1;"
         offset="0"
         id="stop4237" />
      <stop
         style="stop-color:#ffffff;stop-opacity:0;"
         offset="1"
         id="stop4239" />
    </linearGradient>
    <linearGradient
       inkscape:collect="always"
       id="linearGradient4218">
      <stop
         style="stop-color:#fff299;stop-opacity:1"
         offset="0"
         id="stop4220" />
      <stop
         style="stop-color:#fff299;stop-opacity:0"
         offset="1"
         id="stop4222" />
    </linearGradient>
    <linearGradient
       inkscape:collect="always"
       id="linearGradient4195">
      <stop
         style="stop-color:#ffd50a;stop-opacity:1;"
         offset="0"
         id="stop4197" />
      <stop
         style="stop-color:#8d4000;stop-opacity:1"
         offset="1"
         id="stop4199" />
    </linearGradient>
    <linearGradient
       inkscape:collect="always"
       id="linearGradient4187">
      <stop
         style="stop-color:#ffff00;stop-opacity:1"
         offset="0"
         id="stop4189" />
      <stop
         style="stop-color:#ff7e00;stop-opacity:1"
         offset="1"
         id="stop4191" />
    </linearGradient>
    <linearGradient
       id="linearGradient3196">
      <stop
         style="stop-color:#5f2c00;stop-opacity:1;"
         offset="0"
         id="stop3198" />
      <stop
         style="stop-color:#e6b000;stop-opacity:1;"
         offset="1"
         id="stop3200" />
    </linearGradient>
    <linearGradient
       id="linearGradient3146">
      <stop
         style="stop-color:#4d2600;stop-opacity:0"
         offset="0"
         id="stop3148" />
      <stop
         id="stop3154"
         offset="0.5"
         style="stop-color:#4d2600;stop-opacity:0;" />
      <stop
         style="stop-color:#4d2600;stop-opacity:0;"
         offset="0.85869563"
         id="stop3156" />
      <stop
         style="stop-color:#4d2600;stop-opacity:1"
         offset="1"
         id="stop3150" />
    </linearGradient>
    <clipPath
       clipPathUnits="userSpaceOnUse"
       id="clipPath3192">
      <path
         sodipodi:type="arc"
         style="opacity:1;fill:#f3c300;fill-opacity:1;stroke:none;stroke-width:3;stroke-linecap:round;stroke-linejoin:round;stroke-miterlimit:4;stroke-dasharray:none;stroke-opacity:1"
         id="path3194"
         sodipodi:cx="30.069841"
         sodipodi:cy="27.733334"
         sodipodi:rx="21.942858"
         sodipodi:ry="19.60635"
         d="M 52.012699 27.733334 A 21.942858 19.60635 0 1 1  8.1269836,27.733334 A 21.942858 19.60635 0 1 1  52.012699 27.733334 z" />
    </clipPath>
    <linearGradient
       inkscape:collect="always"
       xlink:href="#linearGradient3196"
       id="linearGradient3202"
       x1="28.545134"
       y1="44.879181"
       x2="29.514584"
       y2="10.838195"
       gradientUnits="userSpaceOnUse" />
    <radialGradient
       inkscape:collect="always"
       xlink:href="#linearGradient4187"
       id="radialGradient4193"
       cx="2.6714287"
       cy="4.2331223"
       fx="2.6714287"
       fy="4.2331223"
       r="1.4142857"
       gradientTransform="matrix(1.4401425,0,0,1.3334653,-1.1758092,-1.504)"
       gradientUnits="userSpaceOnUse" />
    <linearGradient
       inkscape:collect="always"
       xlink:href="#linearGradient4195"
       id="linearGradient4201"
       x1="2.7208164"
       y1="0.67500597"
       x2="2.7208164"
       y2="4.5819345"
       gradientUnits="userSpaceOnUse" />
    <filter
       inkscape:collect="always"
       id="filter4205">
      <feGaussianBlur
         inkscape:collect="always"
         stdDeviation="0.0069934987"
         id="feGaussianBlur4207" />
    </filter>
    <linearGradient
       inkscape:collect="always"
       xlink:href="#linearGradient4218"
       id="linearGradient4224"
       x1="11.43258"
       y1="2.8022549"
       x2="11.43258"
       y2="19.248545"
       gradientUnits="userSpaceOnUse" />
    <linearGradient
       inkscape:collect="always"
       xlink:href="#linearGradient4235"
       id="linearGradient4241"
       x1="6.984127"
       y1="2.9333334"
       x2="17.043512"
       y2="20.356701"
       gradientUnits="userSpaceOnUse" />
    <radialGradient
       inkscape:collect="always"
       xlink:href="#linearGradient4335"
       id="radialGradient4341"
       cx="11"
       cy="2.3396826"
       fx="11"
       fy="2.3396826"
       r="10"
       gradientUnits="userSpaceOnUse"
       gradientTransform="matrix(0.5542849,0,0,0.1969933,4.9028663,1.8787807)" />
    <linearGradient
       inkscape:collect="always"
       xlink:href="#linearGradient4394"
       id="linearGradient4400"
       x1="8.8523808"
       y1="6.0296297"
       x2="8.8523808"
       y2="9.3540745"
       gradientUnits="userSpaceOnUse" />
    <linearGradient
       inkscape:collect="always"
       xlink:href="#linearGradient4394"
       id="linearGradient4406"
       gradientUnits="userSpaceOnUse"
       x1="8.8523808"
       y1="6.0296297"
       x2="8.8523808"
       y2="9.3540745" />
    <radialGradient
       inkscape:collect="always"
       xlink:href="#linearGradient4187"
       id="radialGradient4410"
       gradientUnits="userSpaceOnUse"
       gradientTransform="matrix(7.1279784,0,0,7.1279784,-8.0418856,-12.999563)"
       cx="2.6714287"
       cy="4.2331223"
       fx="2.6714287"
       fy="4.2331223"
       r="1.4142857" />
    <radialGradient
       inkscape:collect="always"
       xlink:href="#linearGradient4187"
       id="radialGradient4414"
       gradientUnits="userSpaceOnUse"
       gradientTransform="matrix(1.4401425,0,0,1.3334653,-1.1758092,-1.504)"
       cx="2.6714287"
       cy="4.2331223"
       fx="2.6714287"
       fy="4.2331223"
       r="1.4142857" />
    <linearGradient
       inkscape:collect="always"
       xlink:href="#linearGradient4394"
       id="linearGradient4419"
       x1="10.51746"
       y1="14.335544"
       x2="10.587301"
       y2="20.22312"
       gradientUnits="userSpaceOnUse"
       gradientTransform="translate(0,-1)" />
    <linearGradient
       inkscape:collect="always"
       xlink:href="#linearGradient4394"
       id="linearGradient4427"
       gradientUnits="userSpaceOnUse"
       gradientTransform="translate(10.823752,3.3453865)"
       x1="10.51746"
       y1="14.335544"
       x2="10.587301"
       y2="20.22312" />
    <linearGradient
       inkscape:collect="always"
       xlink:href="#linearGradient4394"
       id="linearGradient4439"
       gradientUnits="userSpaceOnUse"
       gradientTransform="translate(24.791388,-1)"
       x1="10.51746"
       y1="14.335544"
       x2="10.587301"
       y2="20.22312" />
    <linearGradient
       inkscape:collect="always"
       xlink:href="#linearGradient4394"
       id="linearGradient4448"
       x1="10.641949"
       y1="12.018522"
       x2="10.986183"
       y2="17.605824"
       gradientUnits="userSpaceOnUse"
       gradientTransform="matrix(0.5868605,0,0,0.6437223,4.5388259,6.11707)" />
    <filter
       inkscape:collect="always"
       id="filter3273">
      <feGaussianBlur
         inkscape:collect="always"
         stdDeviation="0.065159162"
         id="feGaussianBlur3275" />
    </filter>
    <linearGradient
       inkscape:collect="always"
       xlink:href="#linearGradient3291"
       id="linearGradient3297"
       x1="6.25"
       y1="4.8123827"
       x2="6.25"
       y2="8.9688396"
       gradientUnits="userSpaceOnUse" />
    <filter
       inkscape:collect="always"
       id="filter3299">
      <feGaussianBlur
         inkscape:collect="always"
         stdDeviation="0.03875"
         id="feGaussianBlur3301" />
    </filter>
    <linearGradient
       inkscape:collect="always"
       xlink:href="#linearGradient3291"
       id="linearGradient3305"
       gradientUnits="userSpaceOnUse"
       x1="6.25"
       y1="4.8123827"
       x2="6.25"
       y2="8.9688396"
       gradientTransform="translate(9.9972751,4.8170045e-3)" />
  </defs>
  <sodipodi:namedview
     id="base"
     pagecolor="#ffffff"
     bordercolor="#666666"
     borderopacity="1.0"
     gridtolerance="10000"
     guidetolerance="10"
     objecttolerance="10"
     inkscape:pageopacity="0.0"
     inkscape:pageshadow="2"
     inkscape:zoom="1"
     inkscape:cx="11"
     inkscape:cy="11"
     inkscape:document-units="px"
     inkscape:current-layer="layer1"
     width="22px"
     height="22px"
     showgrid="false"
     gridempspacing="2"
     gridspacingx="1px"
     gridspacingy="1px"
     showborder="false"
     borderlayer="true"
     inkscape:showpageshadow="false"
     inkscape:window-width="747"
     inkscape:window-height="733"
     inkscape:window-x="0"
     inkscape:window-y="0" />
  <metadata
     id="metadata7">
    <rdf:RDF>
      <cc:Work
         rdf:about="">
        <dc:format>image/svg+xml</dc:format>
        <dc:type
           rdf:resource="http://purl.org/dc/dcmitype/StillImage" />
      </cc:Work>
    </rdf:RDF>
  </metadata>
  <g
     inkscape:label="Layer 1"
     inkscape:groupmode="layer"
     id="layer1">
    <path
       sodipodi:type="arc"
       style="opacity:1;fill:url(#linearGradient4201);fill-opacity:1.0;stroke:none;stroke-width:1;stroke-linecap:round;stroke-linejoin:round;stroke-miterlimit:4;stroke-dasharray:none;stroke-opacity:1"
       id="path4183"
       sodipodi:cx="2.6714287"
       sodipodi:cy="2.9857142"
       sodipodi:rx="1.4142857"
       sodipodi:ry="1.3095238"
       d="M 4.0857143 2.9857142 A 1.4142857 1.3095238 0 1 1  1.257143,2.9857142 A 1.4142857 1.3095238 0 1 1  4.0857143 2.9857142 z"
       transform="matrix(7.0707073,0,0,7.6363636,-7.8888904,-11.799999)" />
    <path
       transform="matrix(6.3636367,0,0,6.8727274,-6.0000017,-9.5199995)"
       d="M 4.0857143 2.9857142 A 1.4142857 1.3095238 0 1 1  1.257143,2.9857142 A 1.4142857 1.3095238 0 1 1  4.0857143 2.9857142 z"
       sodipodi:ry="1.3095238"
       sodipodi:rx="1.4142857"
       sodipodi:cy="2.9857142"
       sodipodi:cx="2.6714287"
       id="path4185"
       style="opacity:1;fill:url(#radialGradient4193);fill-opacity:1.0;stroke:none;stroke-width:1;stroke-linecap:round;stroke-linejoin:round;stroke-miterlimit:4;stroke-dasharray:none;stroke-opacity:1"
       sodipodi:type="arc" />
    <path
       sodipodi:type="arc"
       style="opacity:1;fill:none;fill-opacity:1.0;stroke:#ffff00;stroke-width:0.01512108;stroke-linecap:round;stroke-linejoin:round;stroke-miterlimit:4;stroke-dasharray:none;stroke-opacity:1;filter:url(#filter4205)"
       id="path4203"
       sodipodi:cx="2.6714287"
       sodipodi:cy="2.9857142"
       sodipodi:rx="1.4142857"
       sodipodi:ry="1.3095238"
       d="M 4.0857143 2.9857142 A 1.4142857 1.3095238 0 1 1  1.257143,2.9857142 A 1.4142857 1.3095238 0 1 1  4.0857143 2.9857142 z"
       transform="matrix(6.3636367,0,0,6.8727274,-6.0000017,-9.5199995)" />
    <path
       style="opacity:0.85;fill:url(#linearGradient4224);fill-opacity:1.0;stroke:none;stroke-width:1;stroke-linecap:round;stroke-linejoin:round;stroke-miterlimit:4;stroke-dasharray:none;stroke-opacity:1"
       d="M 11 2 C 6.0319999 2 2 6.0320001 2 11 C 2 11.18217 2.0205599 11.35175 2.03125 11.53125 C 3.7573307 11.824427 5.5836751 12 7.5 12 C 12.317448 12 16.678227 10.996545 19.84375 9.375 C 19.075761 5.1846538 15.41118 2 11 2 z "
       id="path4213" />
    <path
       style="opacity:1;fill:url(#linearGradient4241);fill-opacity:1.0;stroke:none;stroke-width:1;stroke-linecap:round;stroke-linejoin:round;stroke-miterlimit:4;stroke-dasharray:none;stroke-opacity:1"
       d="M 11 2 C 6.0319999 2 2 6.0320001 2 11 C 2 11.18217 2.0205599 11.35175 2.03125 11.53125 C 3.7573307 11.824427 5.5836751 12 7.5 12 C 12.317448 12 16.678227 10.996545 19.84375 9.375 C 19.075761 5.1846538 15.41118 2 11 2 z M 11.0625 2.1875 C 15.37872 2.1875 18.967294 5.2551319 19.71875 9.3125 C 16.621372 10.882587 12.338742 11.84375 7.625 11.84375 C 5.7499284 11.84375 3.9701728 11.690124 2.28125 11.40625 C 2.2707901 11.232446 2.25 11.051389 2.25 10.875 C 2.25 6.0646563 6.2014473 2.1874999 11.0625 2.1875 z "
       id="path4230" />
    <path
       style="opacity:0.64444444;fill:url(#radialGradient4341);fill-opacity:1.0;stroke:none;stroke-width:1;stroke-linecap:round;stroke-linejoin:round;stroke-miterlimit:4;stroke-dasharray:none;stroke-opacity:1"
       d="M 11 1 C 5.48 1 0.99999999 5.4800002 1 11 L 2 11 C 2 6.0320001 6.0319999 2 11 2 C 15.968 2 20 6.0319999 20 11 L 21 11 C 21 5.48 16.52 1.0000001 11 1 z "
       id="path4326" />
    <path
       sodipodi:type="arc"
       style="opacity:1;fill:none;fill-opacity:1;stroke:url(#linearGradient4400);stroke-width:1.71170497;stroke-linecap:round;stroke-linejoin:round;stroke-miterlimit:4;stroke-dasharray:none;stroke-opacity:1"
       id="path4384"
       sodipodi:cx="8.8523808"
       sodipodi:cy="7.6126986"
       sodipodi:rx="0.9253968"
       sodipodi:ry="1.1873016"
       d="M 9.7777776 7.6126986 A 0.9253968 1.1873016 0 1 1  7.926984,7.6126986 A 0.9253968 1.1873016 0 1 1  9.7777776 7.6126986 z"
       transform="matrix(1.0806175,0,0,1.2633689,-2.5660376,-2.1176466)" />
    <path
       transform="matrix(1.0806175,0,0,1.2633689,-2.5660376,-2.1176466)"
       d="M 9.7777776 7.6126986 A 0.9253968 1.1873016 0 1 1  7.926984,7.6126986 A 0.9253968 1.1873016 0 1 1  9.7777776 7.6126986 z"
       sodipodi:ry="1.1873016"
       sodipodi:rx="0.9253968"
       sodipodi:cy="7.6126986"
       sodipodi:cx="8.8523808"
       id="path4392"
       style="opacity:1;fill:#803f00;fill-opacity:1;stroke:none;stroke-width:0.85585248;stroke-linecap:round;stroke-linejoin:round;stroke-miterlimit:4;stroke-dasharray:none;stroke-opacity:1"
       sodipodi:type="arc" />
    <path
       transform="matrix(1.0806175,0,0,1.2633689,5.4339624,-2.1176466)"
       d="M 9.7777776 7.6126986 A 0.9253968 1.1873016 0 1 1  7.926984,7.6126986 A 0.9253968 1.1873016 0 1 1  9.7777776 7.6126986 z"
       sodipodi:ry="1.1873016"
       sodipodi:rx="0.9253968"
       sodipodi:cy="7.6126986"
       sodipodi:cx="8.8523808"
       id="path4402"
       style="opacity:1;fill:none;fill-opacity:1;stroke:url(#linearGradient4406);stroke-width:1.71170497;stroke-linecap:round;stroke-linejoin:round;stroke-miterlimit:4;stroke-dasharray:none;stroke-opacity:1"
       sodipodi:type="arc" />
    <path
       sodipodi:type="arc"
       style="opacity:1;fill:#803f00;fill-opacity:1;stroke:none;stroke-width:0.85585248;stroke-linecap:round;stroke-linejoin:round;stroke-miterlimit:4;stroke-dasharray:none;stroke-opacity:1"
       id="path4404"
       sodipodi:cx="8.8523808"
       sodipodi:cy="7.6126986"
       sodipodi:rx="0.9253968"
       sodipodi:ry="1.1873016"
       d="M 9.7777776 7.6126986 A 0.9253968 1.1873016 0 1 1  7.926984,7.6126986 A 0.9253968 1.1873016 0 1 1  9.7777776 7.6126986 z"
       transform="matrix(1.0806175,0,0,1.2633689,5.4339624,-2.1176466)" />
    <path
       id="path4446"
       d="M 7.6015044,12.775572 C 7.5006101,12.771922 7.3853131,12.828631 7.2713953,12.936503 C 7.0435598,13.152248 6.9164402,13.494162 6.9963044,13.72104 C 7.0723515,13.937073 7.3096249,13.946261 7.5281468,13.761272 C 7.805885,15.589808 9.2488496,17.000001 10.994292,17 C 12.739734,17.000001 14.182698,15.589809 14.460437,13.761272 C 14.678241,13.944098 14.898172,13.936282 14.97394,13.72104 C 15.053804,13.494162 14.945024,13.152248 14.717188,12.936503 C 14.489352,12.720759 14.228532,12.729742 14.148667,12.956619 C 14.074724,13.166676 14.191395,13.462763 14.387079,13.680807 C 13.966565,14.952189 12.603448,15.893602 10.994292,15.893602 C 9.3851351,15.893603 8.0220185,14.952189 7.6015044,13.680807 C 7.7971882,13.462763 7.8955202,13.166676 7.8215771,12.956619 C 7.781645,12.843181 7.7023987,12.779223 7.6015044,12.775572 z "
       style="opacity:1;fill:none;fill-opacity:1;stroke:url(#linearGradient4448);stroke-width:1.99999988;stroke-linecap:round;stroke-linejoin:round;stroke-miterlimit:4;stroke-dasharray:none;stroke-opacity:1" />
    <path
       style="opacity:1;fill:#803f00;fill-opacity:1;stroke:none;stroke-width:1;stroke-linecap:round;stroke-linejoin:round;stroke-miterlimit:4;stroke-dasharray:none;stroke-opacity:1"
       d="M 7.6015044,12.775572 C 7.5006101,12.771922 7.3853131,12.828631 7.2713953,12.936503 C 7.0435598,13.152248 6.9164403,13.494162 6.9963044,13.721039 C 7.0723515,13.937073 7.3096249,13.946261 7.5281468,13.761272 C 7.805885,15.589808 9.2488496,17.000001 10.994292,17 C 12.739734,17.000001 14.182698,15.589808 14.460437,13.761272 C 14.678241,13.944098 14.898171,13.936282 14.97394,13.721039 C 15.053804,13.494162 14.945024,13.152248 14.717189,12.936503 C 14.489352,12.720759 14.228531,12.729742 14.148667,12.956619 C 14.074724,13.166676 14.191395,13.462763 14.387079,13.680807 C 13.966565,14.952189 12.603448,15.893602 10.994292,15.893602 C 9.3851351,15.893603 8.0220185,14.952189 7.6015044,13.680807 C 7.7971881,13.462763 7.8955203,13.166676 7.8215771,12.956619 C 7.7816451,12.843181 7.7023987,12.779223 7.6015044,12.775572 z "
       id="path4408" />
    <path
       transform="matrix(1.1100613,0,0,1.1100613,10.297752,1.2191014)"
       d="M 8.2898552 5.2077293 A 3.1529791 3.1529791 0 1 1  1.983897,5.2077293 A 3.1529791 3.1529791 0 1 1  8.2898552 5.2077293 z"
       sodipodi:ry="3.1529791"
       sodipodi:rx="3.1529791"
       sodipodi:cy="5.2077293"
       sodipodi:cx="5.1368761"
       id="path3189"
       style="opacity:1;fill:none;fill-opacity:0.04191619;stroke:#57401e;stroke-width:0.90085119;stroke-linecap:round;stroke-linejoin:round;stroke-miterlimit:4;stroke-dasharray:none;stroke-opacity:1"
       sodipodi:type="arc" />
    <path
       sodipodi:type="arc"
       style="opacity:1;fill:none;fill-opacity:0.04191619;stroke:#57401e;stroke-width:0.53021872;stroke-linecap:round;stroke-linejoin:round;stroke-miterlimit:4;stroke-dasharray:none;stroke-opacity:1"
       id="path3191"
       sodipodi:cx="1.062802"
       sodipodi:cy="5.278583"
       sodipodi:rx="0.74396133"
       sodipodi:ry="0.85024154"
       d="M 1.8067633,5.278583 A 0.74396133,0.85024154 0 1 1 0.31884062,5.278583"
       transform="matrix(2.0162338,0,0,-1.7642046,8.8571428,17.312501)"
       sodipodi:start="0"
       sodipodi:end="3.1415927"
       sodipodi:open="true" />
    <path
       sodipodi:type="arc"
       style="opacity:0.35;fill:#ffffff;fill-opacity:1;stroke:none;stroke-width:1;stroke-linecap:round;stroke-linejoin:round;stroke-miterlimit:4;stroke-dasharray:none;stroke-opacity:1"
       id="path3195"
       sodipodi:cx="5.0305958"
       sodipodi:cy="5.0837359"
       sodipodi:rx="0.63768119"
       sodipodi:ry="0.58454108"
       d="M 5.668277 5.0837359 A 0.63768119 0.58454108 0 1 1  4.3929146,5.0837359 A 0.63768119 0.58454108 0 1 1  5.668277 5.0837359 z"
       transform="matrix(4.7045453,0,0,5.1322313,-17.666666,-19.090909)" />
    <path
       transform="matrix(4.7045453,0,0,5.1322313,-7.666666,-19.090909)"
       d="M 5.668277 5.0837359 A 0.63768119 0.58454108 0 1 1  4.3929146,5.0837359 A 0.63768119 0.58454108 0 1 1  5.668277 5.0837359 z"
       sodipodi:ry="0.58454108"
       sodipodi:rx="0.63768119"
       sodipodi:cy="5.0837359"
       sodipodi:cx="5.0305958"
       id="path3199"
       style="opacity:0.35;fill:#ffffff;fill-opacity:1;stroke:none;stroke-width:1;stroke-linecap:round;stroke-linejoin:round;stroke-miterlimit:4;stroke-dasharray:none;stroke-opacity:1"
       sodipodi:type="arc" />
    <path
       style="opacity:0.35;fill:#ffffff;fill-opacity:1;stroke:none;stroke-width:1;stroke-linecap:round;stroke-linejoin:round;stroke-miterlimit:4;stroke-dasharray:none;stroke-opacity:1"
       d="M 6 4 C 4.344 4 2.9999999 5.3440002 3 7 C 3 7.0107753 2.9998865 7.0205014 3 7.03125 C 3.6628716 7.283672 4.4054811 7.4375 5.21875 7.4375 C 6.717138 7.4375 8.0361922 6.9430025 8.875 6.1875 C 8.516093 4.9326136 7.3696502 3.9999999 6 4 z "
       id="path3201" />
    <path
       id="path3206"
       d="M 16,4 C 14.344,4 13,5.3440002 13,7 C 13,7.0107753 12.999887,7.0205014 13,7.03125 C 13.662872,7.283672 14.405481,7.4375 15.21875,7.4375 C 16.717138,7.4375 18.036192,6.9430025 18.875,6.1875 C 18.516093,4.9326136 17.36965,3.9999999 16,4 z "
       style="opacity:0.35;fill:#ffffff;fill-opacity:1;stroke:none;stroke-width:1;stroke-linecap:round;stroke-linejoin:round;stroke-miterlimit:4;stroke-dasharray:none;stroke-opacity:1" />
    <path
       sodipodi:type="arc"
       style="opacity:1;fill:none;fill-opacity:0.04191619;stroke:#57401e;stroke-width:0.90085119;stroke-linecap:round;stroke-linejoin:round;stroke-miterlimit:4;stroke-dasharray:none;stroke-opacity:1"
       id="path3216"
       sodipodi:cx="5.1368761"
       sodipodi:cy="5.2077293"
       sodipodi:rx="3.1529791"
       sodipodi:ry="3.1529791"
       d="M 8.2898552 5.2077293 A 3.1529791 3.1529791 0 1 1  1.983897,5.2077293 A 3.1529791 3.1529791 0 1 1  8.2898552 5.2077293 z"
       transform="matrix(1.1100613,0,0,1.1100613,0.297752,1.2191014)" />
    <path
       style="opacity:0.17777778;fill:#ffffff;fill-opacity:1;stroke:none;stroke-width:1;stroke-linecap:round;stroke-linejoin:round;stroke-miterlimit:4;stroke-dasharray:none;stroke-opacity:1;filter:url(#filter3273)"
       d="M 3,7.4700918 C 2.9998865,7.4800626 3,7.489085 3,7.4990806 C 2.9999999,9.0352516 4.344,10.282 6.0000001,10.282 C 7.3696502,10.282 8.5160931,9.4168701 8.875,8.2527878 C 8.8588494,8.2392937 8.8290046,8.237112 8.8125,8.223799 C 8.3948954,9.2943757 7.2968294,10.079078 6.0000001,10.079078 C 4.4097863,10.079078 3.1322274,8.9217044 3.03125,7.4700918 C 3.0221397,7.473265 3.0090804,7.4668842 3,7.4700918 z "
       id="path3220" />
    <path
       id="path3277"
       d="M 13.03125,7.4700918 C 13.031137,7.4800626 13.03125,7.489085 13.03125,7.4990806 C 13.03125,9.0352516 14.37525,10.282 16.03125,10.282 C 17.4009,10.282 18.547343,9.4168701 18.90625,8.2527878 C 18.890099,8.2392937 18.860255,8.237112 18.84375,8.223799 C 18.426145,9.2943757 17.328079,10.079078 16.03125,10.079078 C 14.441036,10.079078 13.163477,8.9217044 13.0625,7.4700918 C 13.05339,7.473265 13.04033,7.4668842 13.03125,7.4700918 z "
       style="opacity:0.17777776;fill:#ffffff;fill-opacity:1;stroke:none;stroke-width:1;stroke-linecap:round;stroke-linejoin:round;stroke-miterlimit:4;stroke-dasharray:none;stroke-opacity:1;filter:url(#filter3273)"
       transform="matrix(-1,0,0,1,32.0312,0)" />
    <path
       style="opacity:0.35;fill:url(#linearGradient3297);fill-opacity:1;stroke:none;stroke-width:1;stroke-linecap:round;stroke-linejoin:round;stroke-miterlimit:4;stroke-dasharray:none;stroke-opacity:1;filter:url(#filter3299)"
       d="M 6,3.125 C 3.861,3.125 2.125,4.8610001 2.125,7 C 2.125,7.0539811 2.1540602,7.1028037 2.15625,7.15625 C 2.1894688,6.345496 2.4488373,5.6079806 2.90625,5 C 2.9632799,4.9120853 3.0296499,4.8325439 3.09375,4.75 C 3.1658036,4.6684914 3.2339146,4.5751836 3.3125,4.5 C 3.9858699,3.7768898 4.9347286,3.3125 6,3.3125 C 7.0652713,3.3125001 8.0141301,3.7768898 8.6875,4.5 C 8.708293,4.5198929 8.7296529,4.5421529 8.75,4.5625 C 8.8579349,4.6840719 8.971192,4.8023832 9.0625,4.9375 C 9.0763109,4.9552106 9.0802419,4.9820454 9.09375,5 C 9.5511626,5.6079806 9.8105312,6.345496 9.84375,7.15625 C 9.8459399,7.1028037 9.875,7.0539811 9.875,7 C 9.875,4.861 8.1390001,3.1250001 6,3.125 z M 2.3125,7.15625 C 2.3103121,7.2083573 2.3125,7.2598578 2.3125,7.3125 C 2.3125,8.050906 2.5320081,8.7355862 2.90625,9.3125 C 2.9632799,9.4004147 3.0296499,9.4799561 3.09375,9.5625 C 3.1658036,9.6440086 3.2339146,9.7373164 3.3125,9.8125 C 4.008455,10.478329 4.9615265,10.875 6,10.875 C 7.0384735,10.875 7.9915451,10.478329 8.6875,9.8125 C 8.7075259,9.7909949 8.7304863,9.7719791 8.75,9.75 C 8.8631057,9.6368943 8.9639996,9.5013135 9.0625,9.375 C 9.0754778,9.3557956 9.0811268,9.3319594 9.09375,9.3125 C 9.4679919,8.7355862 9.6875,8.050906 9.6875,7.3125 C 9.6875,7.2598578 9.6896879,7.2083573 9.6875,7.15625 C 9.605088,9.1189582 7.9828578,10.6875 6,10.6875 C 4.017142,10.6875 2.3949119,9.1189581 2.3125,7.15625 z "
       id="path3283"
       transform="matrix(0.9659258,-0.2588189,0.2588189,0.9659258,-1.6086775,1.7822253)" />
    <path
       id="path3303"
       d="M 15.997274,3.1298176 C 13.858274,3.1298173 12.122274,4.8658171 12.122274,7.0048168 C 12.122274,7.0587979 12.151334,7.1076205 12.153524,7.1610668 C 12.186743,6.3503129 12.446112,5.6127976 12.903524,5.0048171 C 12.960554,4.9169024 13.026924,4.837361 13.091024,4.7548171 C 13.163078,4.6733085 13.231189,4.5800007 13.309774,4.5048172 C 13.983144,3.7817071 14.932003,3.3173175 15.997274,3.3173176 C 17.062546,3.3173178 18.011404,3.7817076 18.684774,4.5048179 C 18.705567,4.5247108 18.726927,4.5469708 18.747274,4.5673179 C 18.855209,4.6888898 18.968466,4.8072011 19.059774,4.9423179 C 19.073585,4.9600285 19.077516,4.9868633 19.091024,5.0048179 C 19.548436,5.6127985 19.807805,6.3503139 19.841024,7.1610679 C 19.843213,7.1076216 19.872274,7.058799 19.872274,7.0048179 C 19.872274,4.865818 18.136274,3.129818 15.997274,3.1298176 z M 12.309774,7.1610669 C 12.307586,7.2131742 12.309774,7.2646747 12.309774,7.3173169 C 12.309774,8.0557228 12.529282,8.740403 12.903524,9.3173168 C 12.960554,9.4052315 13.026924,9.4847729 13.091024,9.5673168 C 13.163077,9.6488254 13.231188,9.7421332 13.309774,9.8173168 C 14.005728,10.483146 14.9588,10.879817 15.997273,10.879817 C 17.035747,10.879817 17.988818,10.483146 18.684773,9.8173175 C 18.704799,9.7958124 18.72776,9.7767967 18.747273,9.7548176 C 18.860379,9.6417119 18.961273,9.5061311 19.059773,9.3798176 C 19.072751,9.3606132 19.0784,9.336777 19.091023,9.3173176 C 19.465265,8.7404039 19.684773,8.0557238 19.684774,7.3173178 C 19.684774,7.2646756 19.686961,7.2131751 19.684774,7.1610678 C 19.602361,9.1237759 17.980131,10.692317 15.997273,10.692317 C 14.014415,10.692317 12.392186,9.1237748 12.309774,7.1610669 z "
       style="opacity:0.35;fill:url(#linearGradient3305);fill-opacity:1;stroke:none;stroke-width:1;stroke-linecap:round;stroke-linejoin:round;stroke-miterlimit:4;stroke-dasharray:none;stroke-opacity:1;filter:url(#filter3299)"
       transform="matrix(0.9659258,0.258819,-0.258819,0.9659258,2.358074,-3.9017158)" />
    <path
       style="opacity:0.17777776;fill:#ffffff;fill-opacity:1;stroke:none;stroke-width:1;stroke-linecap:round;stroke-linejoin:round;stroke-miterlimit:4;stroke-dasharray:none;stroke-opacity:1;filter:url(#filter3273)"
       d="M 11.0625,6.085397 C 10.614483,6.085397 10.198116,6.2261645 9.84375,6.491647 C 9.8793571,6.5422133 9.9068039,6.5938575 9.9375,6.647897 C 10.268957,6.4299061 10.658754,6.3041469 11.0625,6.304147 C 11.42738,6.304147 11.756501,6.4005697 12.0625,6.585397 C 12.095165,6.5325141 12.118777,6.4784146 12.15625,6.429147 C 11.831655,6.2156862 11.458428,6.0853971 11.0625,6.085397 z "
       id="path3307" />
  </g>
</svg>
