<?xml version="1.0" encoding="UTF-8" standalone="no"?>
<!-- Created with Inkscape (http://www.inkscape.org/) -->
<svg
   xmlns:dc="http://purl.org/dc/elements/1.1/"
   xmlns:cc="http://web.resource.org/cc/"
   xmlns:rdf="http://www.w3.org/1999/02/22-rdf-syntax-ns#"
   xmlns:svg="http://www.w3.org/2000/svg"
   xmlns="http://www.w3.org/2000/svg"
   xmlns:xlink="http://www.w3.org/1999/xlink"
   xmlns:sodipodi="http://sodipodi.sourceforge.net/DTD/sodipodi-0.dtd"
   xmlns:inkscape="http://www.inkscape.org/namespaces/inkscape"
   width="22"
   height="22"
   id="svg2"
   sodipodi:version="0.32"
   inkscape:version="0.45.1"
   version="1.0"
   sodipodi:docbase="/home/david"
   sodipodi:docname="face-devil-grin.svgz"
   inkscape:output_extension="org.inkscape.output.svgz.inkscape"
   inkscape:export-filename="/home/david/face-devil-grin.png"
   inkscape:export-xdpi="90"
   inkscape:export-ydpi="90">
  <defs
     id="defs4">
    <linearGradient
       inkscape:collect="always"
       id="linearGradient3335">
      <stop
         style="stop-color:#ffffff;stop-opacity:1;"
         offset="0"
         id="stop3337" />
      <stop
         style="stop-color:#ffffff;stop-opacity:0;"
         offset="1"
         id="stop3339" />
    </linearGradient>
    <linearGradient
       id="linearGradient3213"
       inkscape:collect="always">
      <stop
         id="stop3215"
         offset="0"
         style="stop-color:#e20800;stop-opacity:1" />
      <stop
         id="stop3217"
         offset="1"
         style="stop-color:#ffffbf;stop-opacity:1" />
    </linearGradient>
    <linearGradient
       id="linearGradient3207"
       inkscape:collect="always">
      <stop
         id="stop3209"
         offset="0"
         style="stop-color:#e20800;stop-opacity:1" />
      <stop
         id="stop3211"
         offset="1"
         style="stop-color:#ffffbf;stop-opacity:1" />
    </linearGradient>
    <linearGradient
       id="linearGradient3201"
       inkscape:collect="always">
      <stop
         id="stop3203"
         offset="0"
         style="stop-color:#e20800;stop-opacity:1" />
      <stop
         id="stop3205"
         offset="1"
         style="stop-color:#ffffbf;stop-opacity:1" />
    </linearGradient>
    <linearGradient
       id="linearGradient3194"
       inkscape:collect="always">
      <stop
         id="stop3196"
         offset="0"
         style="stop-color:#ff0000;stop-opacity:1" />
      <stop
         id="stop3199"
         offset="1"
         style="stop-color:#bf0000;stop-opacity:1" />
    </linearGradient>
    <linearGradient
       inkscape:collect="always"
       id="linearGradient3228">
      <stop
         style="stop-color:#656565;stop-opacity:1"
         offset="0"
         id="stop3230" />
      <stop
         style="stop-color:#ffffff;stop-opacity:0"
         offset="1"
         id="stop3232" />
    </linearGradient>
    <linearGradient
       inkscape:collect="always"
       id="linearGradient4394">
      <stop
         style="stop-color:#ffaa00;stop-opacity:1"
         offset="0"
         id="stop4396" />
      <stop
         style="stop-color:#ffffbf;stop-opacity:1"
         offset="1"
         id="stop4398" />
    </linearGradient>
    <linearGradient
       id="linearGradient4350">
      <stop
         id="stop4352"
         offset="0"
         style="stop-color:#ffffff;stop-opacity:1;" />
      <stop
         id="stop4354"
         offset="1"
         style="stop-color:#ffffff;stop-opacity:0;" />
    </linearGradient>
    <linearGradient
       inkscape:collect="always"
       id="linearGradient4335">
      <stop
         style="stop-color:#ffffff;stop-opacity:1;"
         offset="0"
         id="stop4337" />
      <stop
         style="stop-color:#ffffff;stop-opacity:0;"
         offset="1"
         id="stop4339" />
    </linearGradient>
    <linearGradient
       inkscape:collect="always"
       id="linearGradient4235">
      <stop
         style="stop-color:#ffffff;stop-opacity:1;"
         offset="0"
         id="stop4237" />
      <stop
         style="stop-color:#ffffff;stop-opacity:0;"
         offset="1"
         id="stop4239" />
    </linearGradient>
    <linearGradient
       inkscape:collect="always"
       id="linearGradient4218">
      <stop
         style="stop-color:#f9ccca;stop-opacity:1"
         offset="0"
         id="stop4220" />
      <stop
         style="stop-color:#f9ccca;stop-opacity:0"
         offset="1"
         id="stop4222" />
    </linearGradient>
    <linearGradient
       id="linearGradient4195">
      <stop
         style="stop-color:#e20800;stop-opacity:1"
         offset="0"
         id="stop4197" />
      <stop
         style="stop-color:#590000;stop-opacity:1"
         offset="1"
         id="stop4199" />
    </linearGradient>
    <linearGradient
       inkscape:collect="always"
       id="linearGradient4187">
      <stop
         style="stop-color:#ffff00;stop-opacity:1"
         offset="0"
         id="stop4189" />
      <stop
         style="stop-color:#ff7e00;stop-opacity:1"
         offset="1"
         id="stop4191" />
    </linearGradient>
    <linearGradient
       id="linearGradient3196">
      <stop
         style="stop-color:#5f2c00;stop-opacity:1;"
         offset="0"
         id="stop3198" />
      <stop
         style="stop-color:#e6b000;stop-opacity:1;"
         offset="1"
         id="stop3200" />
    </linearGradient>
    <linearGradient
       id="linearGradient3146">
      <stop
         style="stop-color:#4d2600;stop-opacity:0"
         offset="0"
         id="stop3148" />
      <stop
         id="stop3154"
         offset="0.5"
         style="stop-color:#4d2600;stop-opacity:0;" />
      <stop
         style="stop-color:#4d2600;stop-opacity:0;"
         offset="0.85869563"
         id="stop3156" />
      <stop
         style="stop-color:#4d2600;stop-opacity:1"
         offset="1"
         id="stop3150" />
    </linearGradient>
    <clipPath
       clipPathUnits="userSpaceOnUse"
       id="clipPath3192">
      <path
         sodipodi:type="arc"
         style="opacity:1;fill:#f3c300;fill-opacity:1;stroke:none;stroke-width:3;stroke-linecap:round;stroke-linejoin:round;stroke-miterlimit:4;stroke-dasharray:none;stroke-opacity:1"
         id="path3194"
         sodipodi:cx="30.069841"
         sodipodi:cy="27.733334"
         sodipodi:rx="21.942858"
         sodipodi:ry="19.60635"
         d="M 52.012699 27.733334 A 21.942858 19.60635 0 1 1  8.1269836,27.733334 A 21.942858 19.60635 0 1 1  52.012699 27.733334 z" />
    </clipPath>
    <linearGradient
       inkscape:collect="always"
       xlink:href="#linearGradient3196"
       id="linearGradient3202"
       x1="28.545134"
       y1="44.879181"
       x2="29.514584"
       y2="10.838195"
       gradientUnits="userSpaceOnUse" />
    <radialGradient
       inkscape:collect="always"
       xlink:href="#linearGradient3194"
       id="radialGradient4193"
       cx="2.6714287"
       cy="4.2331223"
       fx="2.6714287"
       fy="4.2331223"
       r="1.4142857"
       gradientTransform="matrix(0.7807907,0,0,0.7229544,0.585602,1.0803674)"
       gradientUnits="userSpaceOnUse" />
    <linearGradient
       inkscape:collect="always"
       xlink:href="#linearGradient4195"
       id="linearGradient4201"
       x1="2.7208164"
       y1="0.67500597"
       x2="2.7208164"
       y2="4.5819345"
       gradientUnits="userSpaceOnUse" />
    <filter
       inkscape:collect="always"
       id="filter4205">
      <feGaussianBlur
         inkscape:collect="always"
         stdDeviation="0.0069934987"
         id="feGaussianBlur4207" />
    </filter>
    <linearGradient
       inkscape:collect="always"
       xlink:href="#linearGradient4218"
       id="linearGradient4224"
       x1="11.43258"
       y1="2.8022549"
       x2="11.43258"
       y2="19.248545"
       gradientUnits="userSpaceOnUse" />
    <linearGradient
       inkscape:collect="always"
       xlink:href="#linearGradient4235"
       id="linearGradient4241"
       x1="6.984127"
       y1="2.9333334"
       x2="17.043512"
       y2="20.356701"
       gradientUnits="userSpaceOnUse" />
    <radialGradient
       inkscape:collect="always"
       xlink:href="#linearGradient4187"
       id="radialGradient4410"
       gradientUnits="userSpaceOnUse"
       gradientTransform="matrix(7.1279784,0,0,7.1279784,-8.0418856,-12.999563)"
       cx="2.6714287"
       cy="4.2331223"
       fx="2.6714287"
       fy="4.2331223"
       r="1.4142857" />
    <radialGradient
       inkscape:collect="always"
       xlink:href="#linearGradient4187"
       id="radialGradient4414"
       gradientUnits="userSpaceOnUse"
       gradientTransform="matrix(1.4401425,0,0,1.3334653,-1.1758092,-1.504)"
       cx="2.6714287"
       cy="4.2331223"
       fx="2.6714287"
       fy="4.2331223"
       r="1.4142857" />
    <linearGradient
       inkscape:collect="always"
       xlink:href="#linearGradient4394"
       id="linearGradient4419"
       x1="10.51746"
       y1="14.335544"
       x2="10.587301"
       y2="20.22312"
       gradientUnits="userSpaceOnUse"
       gradientTransform="translate(0,-1)" />
    <linearGradient
       inkscape:collect="always"
       xlink:href="#linearGradient4394"
       id="linearGradient4427"
       gradientUnits="userSpaceOnUse"
       gradientTransform="translate(10.823752,3.3453865)"
       x1="10.51746"
       y1="14.335544"
       x2="10.587301"
       y2="20.22312" />
    <linearGradient
       inkscape:collect="always"
       xlink:href="#linearGradient4394"
       id="linearGradient4439"
       gradientUnits="userSpaceOnUse"
       gradientTransform="translate(24.791388,-1)"
       x1="10.51746"
       y1="14.335544"
       x2="10.587301"
       y2="20.22312" />
    <linearGradient
       inkscape:collect="always"
       xlink:href="#linearGradient3201"
       id="linearGradient3192"
       x1="13"
       y1="5.7869048"
       x2="13.209374"
       y2="7.2535715"
       gradientUnits="userSpaceOnUse" />
    <linearGradient
       inkscape:collect="always"
       xlink:href="#linearGradient3207"
       id="linearGradient2220"
       gradientUnits="userSpaceOnUse"
       x1="13"
       y1="5.7869048"
       x2="13.209374"
       y2="7.2535715"
       gradientTransform="translate(-4,0)" />
    <linearGradient
       inkscape:collect="always"
       xlink:href="#linearGradient3213"
       id="linearGradient3200"
       x1="11.704301"
       y1="7.2800651"
       x2="11.704301"
       y2="22.911167"
       gradientUnits="userSpaceOnUse"
       gradientTransform="matrix(0.875,0,0,0.8658009,1.375,1.9039502)" />
    <linearGradient
       inkscape:collect="always"
       xlink:href="#linearGradient3228"
       id="linearGradient3234"
       x1="1.3809524"
       y1="14.1875"
       x2="11"
       y2="14.1875"
       gradientUnits="userSpaceOnUse"
       spreadMethod="reflect" />
    <radialGradient
       inkscape:collect="always"
       xlink:href="#linearGradient4335"
       id="radialGradient3298"
       gradientUnits="userSpaceOnUse"
       gradientTransform="matrix(0.5542849,0,0,0.1969933,4.9028663,1.8787807)"
       cx="11"
       cy="2.3396826"
       fx="11"
       fy="2.3396826"
       r="10" />
    <linearGradient
       inkscape:collect="always"
       xlink:href="#linearGradient3335"
       id="linearGradient3341"
       x1="4.2866344"
       y1="2.7278583"
       x2="4.0516114"
       y2="3.6049755"
       gradientUnits="userSpaceOnUse"
       gradientTransform="translate(-7.085348e-2,-0.2834139)" />
    <filter
       inkscape:collect="always"
       x="-0.17096045"
       width="1.3419209"
       y="-0.33622223"
       height="1.6724445"
       id="filter3439">
      <feGaussianBlur
         inkscape:collect="always"
         stdDeviation="0.14889068"
         id="feGaussianBlur3441" />
    </filter>
    <linearGradient
       inkscape:collect="always"
       xlink:href="#linearGradient3335"
       id="linearGradient3445"
       gradientUnits="userSpaceOnUse"
       gradientTransform="translate(-7.085348e-2,7.0853418e-2)"
       x1="4.2866344"
       y1="2.7278583"
       x2="4.0516114"
       y2="3.6049755" />
  </defs>
  <sodipodi:namedview
     id="base"
     pagecolor="#ffffff"
     bordercolor="#666666"
     borderopacity="1.0"
     gridtolerance="10000"
     guidetolerance="10"
     objecttolerance="10"
     inkscape:pageopacity="0.0"
     inkscape:pageshadow="2"
     inkscape:zoom="1"
     inkscape:cx="11"
     inkscape:cy="11"
     inkscape:document-units="px"
     inkscape:current-layer="layer1"
     width="22px"
     height="22px"
     showgrid="false"
     gridempspacing="2"
     gridspacingx="1px"
     gridspacingy="1px"
     showborder="false"
     borderlayer="true"
     inkscape:showpageshadow="false"
     inkscape:window-width="747"
     inkscape:window-height="733"
     inkscape:window-x="0"
     inkscape:window-y="0" />
  <metadata
     id="metadata7">
    <rdf:RDF>
      <cc:Work
         rdf:about="">
        <dc:format>image/svg+xml</dc:format>
        <dc:type
           rdf:resource="http://purl.org/dc/dcmitype/StillImage" />
      </cc:Work>
    </rdf:RDF>
  </metadata>
  <g
     inkscape:label="Layer 1"
     inkscape:groupmode="layer"
     id="layer1">
    <path
       id="path3323"
       d="M 17.213958,7.8584774 L 17.213958,7.8584774 L 18.649758,2.5 L 14.206931,3.7709191 L 17.213958,7.8584774 z "
       style="fill:#bf0303;fill-opacity:1;fill-rule:evenodd;stroke:#bf0303;stroke-width:1px;stroke-linecap:butt;stroke-linejoin:miter;stroke-opacity:1" />
    <path
       id="path3443"
       d="M 3.3655394,2.5861513 L 5.4557165,3.1884057 L 4.7826087,3.6489532 L 3.3655394,2.5861513 z "
       style="opacity:0.58888891;fill:url(#linearGradient3445);fill-opacity:1;fill-rule:evenodd;stroke:none;stroke-width:1px;stroke-linecap:butt;stroke-linejoin:miter;stroke-opacity:1;filter:url(#filter3439)"
       transform="matrix(-1,0,0,1,21.929146,-0.3542673)" />
    <path
       style="fill:#bf0303;fill-opacity:1;fill-rule:evenodd;stroke:#bf0303;stroke-width:1px;stroke-linecap:butt;stroke-linejoin:miter;stroke-opacity:1"
       d="M 4.6771738,7.8280951 L 4.6771738,7.8280951 L 3.2413741,2.4696177 L 7.6842007,3.7405368 L 4.6771738,7.8280951 z "
       id="path3321" />
    <path
       style="opacity:0.58888891;fill:url(#linearGradient3341);fill-opacity:1;fill-rule:evenodd;stroke:none;stroke-width:1px;stroke-linecap:butt;stroke-linejoin:miter;stroke-opacity:1;filter:url(#filter3439)"
       d="M 3.3655394,2.231884 L 5.4557165,2.8341384 L 4.7826087,3.2946859 L 3.3655394,2.231884 z "
       id="path3333" />
    <path
       sodipodi:type="arc"
       style="opacity:1;fill:url(#linearGradient4201);fill-opacity:1;stroke:none;stroke-width:1;stroke-linecap:round;stroke-linejoin:round;stroke-miterlimit:4;stroke-dasharray:none;stroke-opacity:1"
       id="path4183"
       sodipodi:cx="2.6714287"
       sodipodi:cy="2.9857142"
       sodipodi:rx="1.4142857"
       sodipodi:ry="1.3095238"
       d="M 4.0857143 2.9857142 A 1.4142857 1.3095238 0 1 1  1.257143,2.9857142 A 1.4142857 1.3095238 0 1 1  4.0857143 2.9857142 z"
       transform="matrix(7.0707073,0,0,7.6363636,-7.8888904,-11.799999)" />
    <path
       transform="matrix(6.3636367,0,0,6.8727274,-6.0000017,-9.5199995)"
       d="M 4.0857143 2.9857142 A 1.4142857 1.3095238 0 1 1  1.257143,2.9857142 A 1.4142857 1.3095238 0 1 1  4.0857143 2.9857142 z"
       sodipodi:ry="1.3095238"
       sodipodi:rx="1.4142857"
       sodipodi:cy="2.9857142"
       sodipodi:cx="2.6714287"
       id="path4185"
       style="opacity:1;fill:url(#radialGradient4193);fill-opacity:1;stroke:none;stroke-width:1;stroke-linecap:round;stroke-linejoin:round;stroke-miterlimit:4;stroke-dasharray:none;stroke-opacity:1"
       sodipodi:type="arc" />
    <path
       sodipodi:type="arc"
       style="opacity:1;fill:none;fill-opacity:1;stroke:#ff0000;stroke-width:0.01512108;stroke-linecap:round;stroke-linejoin:round;stroke-miterlimit:4;stroke-dasharray:none;stroke-opacity:1;filter:url(#filter4205)"
       id="path4203"
       sodipodi:cx="2.6714287"
       sodipodi:cy="2.9857142"
       sodipodi:rx="1.4142857"
       sodipodi:ry="1.3095238"
       d="M 4.0857143 2.9857142 A 1.4142857 1.3095238 0 1 1  1.257143,2.9857142 A 1.4142857 1.3095238 0 1 1  4.0857143 2.9857142 z"
       transform="matrix(6.3636367,0,0,6.8727274,-6.0000017,-9.5199995)" />
    <path
       style="opacity:0.81666667;fill:url(#linearGradient4224);fill-opacity:1;stroke:none;stroke-width:1;stroke-linecap:round;stroke-linejoin:round;stroke-miterlimit:4;stroke-dasharray:none;stroke-opacity:1"
       d="M 11,2 C 6.0319999,2 2,6.0320001 2,11 C 2,11.18217 2.0205599,11.35175 2.03125,11.53125 C 3.7573307,11.824427 5.5836751,12 7.5,12 C 12.317448,12 16.678227,10.996545 19.84375,9.375 C 19.075761,5.1846538 15.41118,2 11,2 z "
       id="path4213" />
    <path
       style="opacity:1;fill:url(#linearGradient4241);fill-opacity:1;stroke:none;stroke-width:1;stroke-linecap:round;stroke-linejoin:round;stroke-miterlimit:4;stroke-dasharray:none;stroke-opacity:1"
       d="M 11,2 C 6.0319999,2 2,6.0320001 2,11 C 2,11.18217 2.0205599,11.35175 2.03125,11.53125 C 3.7573307,11.824427 5.5836751,12 7.5,12 C 12.317448,12 16.678227,10.996545 19.84375,9.375 C 19.075761,5.1846538 15.41118,2 11,2 z M 11.0625,2.1875 C 15.37872,2.1875 18.967294,5.2551319 19.71875,9.3125 C 16.621372,10.882587 12.338742,11.84375 7.625,11.84375 C 5.7499284,11.84375 3.9701728,11.690124 2.28125,11.40625 C 2.2707901,11.232446 2.25,11.051389 2.25,10.875 C 2.25,6.0646563 6.2014473,2.1874999 11.0625,2.1875 z "
       id="path4230" />
    <path
       style="opacity:0.64444448;fill:url(#radialGradient3298);fill-opacity:1;stroke:none;stroke-width:1;stroke-linecap:round;stroke-linejoin:round;stroke-miterlimit:4;stroke-dasharray:none;stroke-opacity:1"
       d="M 11,1 C 5.48,1 0.99999999,5.4800002 1,11 L 2,11 C 2,6.0320001 6.0319999,2 11,2 C 15.968,2 20,6.0319999 20,11 L 21,11 C 21,5.48 16.52,1.0000001 11,1 z "
       id="path4326" />
    <path
       id="path2219"
       d="M 13,6 C 12.505811,6 12.111882,6.5430367 12.03125,7.25 C 12.317422,7.0919523 12.650166,7 13,7 C 13.349834,7 13.682578,7.0919523 13.96875,7.25 C 13.888118,6.5430367 13.494189,6 13,6 z "
       style="opacity:0.59444436;fill:none;fill-opacity:1;stroke:url(#linearGradient3192);stroke-width:2;stroke-linecap:round;stroke-linejoin:round;stroke-miterlimit:4;stroke-dasharray:none;stroke-opacity:1" />
    <path
       style="opacity:1;fill:#350505;fill-opacity:1;stroke:none;stroke-width:0.85585248;stroke-linecap:round;stroke-linejoin:round;stroke-miterlimit:4;stroke-dasharray:none;stroke-opacity:1"
       d="M 13,6 C 12.505811,6 12.111882,6.5430367 12.03125,7.25 C 12.317422,7.0919523 12.650166,7 13,7 C 13.349834,7 13.682578,7.0919523 13.96875,7.25 C 13.888118,6.5430367 13.494189,6 13,6 z "
       id="path4404" />
    <path
       style="opacity:0.59444436;fill:none;fill-opacity:1;stroke:url(#linearGradient2220);stroke-width:2;stroke-linecap:round;stroke-linejoin:round;stroke-miterlimit:4;stroke-dasharray:none;stroke-opacity:1"
       d="M 9,6 C 8.505811,6 8.111882,6.5430367 8.03125,7.25 C 8.317422,7.0919523 8.650166,7 9,7 C 9.349834,7 9.682578,7.0919523 9.96875,7.25 C 9.888118,6.5430367 9.494189,6 9,6 z "
       id="path2216" />
    <path
       id="path2218"
       d="M 9,6 C 8.505811,6 8.111882,6.5430367 8.03125,7.25 C 8.317422,7.0919523 8.650166,7 9,7 C 9.349834,7 9.682578,7.0919523 9.96875,7.25 C 9.888118,6.5430367 9.494189,6 9,6 z "
       style="opacity:1;fill:#350505;fill-opacity:1;stroke:none;stroke-width:0.85585248;stroke-linecap:round;stroke-linejoin:round;stroke-miterlimit:4;stroke-dasharray:none;stroke-opacity:1" />
    <path
       id="path3198"
       d="M 4.1367188,10.020834 C 4.0434219,10.471591 4,10.949838 4,11.42776 C 4,15.251137 7.1359999,18.354167 11,18.354167 C 14.864,18.354167 18,15.251137 18,11.42776 C 18,10.949838 17.956578,10.471591 17.863281,10.020834 C 15.955723,10.900812 13.575934,11.42776 11,11.42776 C 8.4240659,11.42776 6.0442776,10.900811 4.1367188,10.020834 z "
       style="opacity:0.59444436;fill:none;fill-opacity:1;stroke:url(#linearGradient3200);stroke-width:2;stroke-linecap:round;stroke-linejoin:round;stroke-miterlimit:4;stroke-dasharray:none;stroke-opacity:1" />
    <path
       style="opacity:1;fill:#dddddd;fill-opacity:1;stroke:none;stroke-width:2;stroke-linecap:round;stroke-linejoin:round;stroke-miterlimit:4;stroke-dasharray:none;stroke-opacity:1"
       d="M 4.1367188,10.020833 C 4.0434219,10.471591 4,10.949838 4,11.42776 C 4,15.251136 7.1359999,18.354167 11,18.354167 C 14.864,18.354167 18,15.251136 18,11.42776 C 18,10.949838 17.956578,10.471591 17.863281,10.020833 C 15.955723,10.900812 13.575934,11.42776 11,11.42776 C 8.4240659,11.42776 6.0442776,10.900811 4.1367188,10.020833 z "
       id="path2222" />
    <path
       style="opacity:1;fill:#ffffff;fill-opacity:1;stroke:none;stroke-width:2;stroke-linecap:round;stroke-linejoin:round;stroke-miterlimit:4;stroke-dasharray:none;stroke-opacity:1"
       d="M 4.125,10.03125 C 4.0317032,10.482008 4,10.959578 4,11.4375 C 4,12.121051 4.0945385,12.782364 4.28125,13.40625 C 6.3045535,14.219369 8.5843947,14.6875 11,14.6875 C 13.415605,14.6875 15.695447,14.219369 17.71875,13.40625 C 17.905462,12.782364 18,12.121051 18,11.4375 C 18,10.959578 17.968297,10.482008 17.875,10.03125 C 15.967442,10.911229 13.575934,11.4375 11,11.4375 C 8.4240659,11.4375 6.0325588,10.911228 4.125,10.03125 z "
       id="path3220" />
    <path
       id="path3226"
       d="M 4.1367188,10.020833 C 4.0434219,10.471591 4,10.949838 4,11.42776 C 4,15.251136 7.1359999,18.354167 11,18.354167 C 14.864,18.354167 18,15.251136 18,11.42776 C 18,10.949838 17.956578,10.471591 17.863281,10.020833 C 15.955723,10.900812 13.575934,11.42776 11,11.42776 C 8.4240659,11.42776 6.0442776,10.900811 4.1367188,10.020833 z "
       style="opacity:0.58777777;fill:url(#linearGradient3234);fill-opacity:1;stroke:none;stroke-width:2;stroke-linecap:round;stroke-linejoin:round;stroke-miterlimit:4;stroke-dasharray:none;stroke-opacity:1" />
  </g>
</svg>
