<?xml version="1.0" encoding="UTF-8" standalone="no"?>
<!-- Created with Inkscape (http://www.inkscape.org/) -->
<svg
   xmlns:dc="http://purl.org/dc/elements/1.1/"
   xmlns:cc="http://web.resource.org/cc/"
   xmlns:rdf="http://www.w3.org/1999/02/22-rdf-syntax-ns#"
   xmlns:svg="http://www.w3.org/2000/svg"
   xmlns="http://www.w3.org/2000/svg"
   xmlns:xlink="http://www.w3.org/1999/xlink"
   xmlns:sodipodi="http://sodipodi.sourceforge.net/DTD/sodipodi-0.dtd"
   xmlns:inkscape="http://www.inkscape.org/namespaces/inkscape"
   width="22"
   height="22"
   id="svg2"
   sodipodi:version="0.32"
   inkscape:version="0.45.1"
   version="1.0"
   sodipodi:docbase="/home/david/Icons/Oxygen/trunk/scalable/emotes/small/22x22"
   sodipodi:docname="face-sleep.svgz"
   inkscape:output_extension="org.inkscape.output.svgz.inkscape"
   inkscape:export-filename="/home/david/face-sleep.png"
   inkscape:export-xdpi="90"
   inkscape:export-ydpi="90">
  <defs
     id="defs4">
    <linearGradient
       inkscape:collect="always"
       id="linearGradient3200">
      <stop
         style="stop-color:#2e3436;stop-opacity:1;"
         offset="0"
         id="stop3202" />
      <stop
         style="stop-color:#babdb6;stop-opacity:1"
         offset="1"
         id="stop3204" />
    </linearGradient>
    <linearGradient
       inkscape:collect="always"
       id="linearGradient3204">
      <stop
         style="stop-color:#ffffff;stop-opacity:1"
         offset="0"
         id="stop3206" />
      <stop
         style="stop-color:#fffff4;stop-opacity:0"
         offset="1"
         id="stop3208" />
    </linearGradient>
    <linearGradient
       id="linearGradient2216"
       inkscape:collect="always">
      <stop
         id="stop2218"
         offset="0"
         style="stop-color:#ffeb55;stop-opacity:1" />
      <stop
         id="stop2220"
         offset="1"
         style="stop-color:#f3c300;stop-opacity:1" />
    </linearGradient>
    <linearGradient
       id="linearGradient4394">
      <stop
         style="stop-color:#ffd400;stop-opacity:1;"
         offset="0"
         id="stop4396" />
      <stop
         style="stop-color:#ffffbf;stop-opacity:1"
         offset="1"
         id="stop4398" />
    </linearGradient>
    <linearGradient
       id="linearGradient4350">
      <stop
         id="stop4352"
         offset="0"
         style="stop-color:#ffffff;stop-opacity:1;" />
      <stop
         id="stop4354"
         offset="1"
         style="stop-color:#ffffff;stop-opacity:0;" />
    </linearGradient>
    <linearGradient
       inkscape:collect="always"
       id="linearGradient4335">
      <stop
         style="stop-color:#ffffff;stop-opacity:1;"
         offset="0"
         id="stop4337" />
      <stop
         style="stop-color:#ffffff;stop-opacity:0;"
         offset="1"
         id="stop4339" />
    </linearGradient>
    <linearGradient
       inkscape:collect="always"
       id="linearGradient4218">
      <stop
         style="stop-color:#fff299;stop-opacity:1"
         offset="0"
         id="stop4220" />
      <stop
         style="stop-color:#fff299;stop-opacity:0"
         offset="1"
         id="stop4222" />
    </linearGradient>
    <linearGradient
       inkscape:collect="always"
       id="linearGradient4195">
      <stop
         style="stop-color:#ffd500;stop-opacity:1"
         offset="0"
         id="stop4197" />
      <stop
         style="stop-color:#c19300;stop-opacity:1"
         offset="1"
         id="stop4199" />
    </linearGradient>
    <linearGradient
       inkscape:collect="always"
       id="linearGradient4187">
      <stop
         style="stop-color:#ffff00;stop-opacity:1"
         offset="0"
         id="stop4189" />
      <stop
         style="stop-color:#ff7e00;stop-opacity:1"
         offset="1"
         id="stop4191" />
    </linearGradient>
    <linearGradient
       id="linearGradient3196">
      <stop
         style="stop-color:#5f2c00;stop-opacity:1;"
         offset="0"
         id="stop3198" />
      <stop
         style="stop-color:#e6b000;stop-opacity:1;"
         offset="1"
         id="stop3200" />
    </linearGradient>
    <linearGradient
       id="linearGradient3146">
      <stop
         style="stop-color:#4d2600;stop-opacity:0"
         offset="0"
         id="stop3148" />
      <stop
         id="stop3154"
         offset="0.5"
         style="stop-color:#4d2600;stop-opacity:0;" />
      <stop
         style="stop-color:#4d2600;stop-opacity:0;"
         offset="0.85869563"
         id="stop3156" />
      <stop
         style="stop-color:#4d2600;stop-opacity:1"
         offset="1"
         id="stop3150" />
    </linearGradient>
    <clipPath
       clipPathUnits="userSpaceOnUse"
       id="clipPath3192">
      <path
         sodipodi:type="arc"
         style="opacity:1;fill:#f3c300;fill-opacity:1;stroke:none;stroke-width:3;stroke-linecap:round;stroke-linejoin:round;stroke-miterlimit:4;stroke-dasharray:none;stroke-opacity:1"
         id="path3194"
         sodipodi:cx="30.069841"
         sodipodi:cy="27.733334"
         sodipodi:rx="21.942858"
         sodipodi:ry="19.60635"
         d="M 52.012699 27.733334 A 21.942858 19.60635 0 1 1  8.1269836,27.733334 A 21.942858 19.60635 0 1 1  52.012699 27.733334 z" />
    </clipPath>
    <linearGradient
       inkscape:collect="always"
       xlink:href="#linearGradient3196"
       id="linearGradient3202"
       x1="28.545134"
       y1="44.879181"
       x2="29.514584"
       y2="10.838195"
       gradientUnits="userSpaceOnUse" />
    <radialGradient
       inkscape:collect="always"
       xlink:href="#linearGradient2216"
       id="radialGradient4193"
       cx="2.6714287"
       cy="4.2331223"
       fx="2.6714287"
       fy="4.2331223"
       r="1.4142857"
       gradientTransform="matrix(1.4401425,0,0,1.3334653,-1.1758092,-1.504)"
       gradientUnits="userSpaceOnUse" />
    <linearGradient
       inkscape:collect="always"
       xlink:href="#linearGradient4195"
       id="linearGradient4201"
       x1="2.7208164"
       y1="0.67500597"
       x2="2.7208164"
       y2="4.5819345"
       gradientUnits="userSpaceOnUse" />
    <filter
       inkscape:collect="always"
       id="filter4205">
      <feGaussianBlur
         inkscape:collect="always"
         stdDeviation="0.0069934987"
         id="feGaussianBlur4207" />
    </filter>
    <linearGradient
       inkscape:collect="always"
       xlink:href="#linearGradient4218"
       id="linearGradient4224"
       x1="11.43258"
       y1="2.8022549"
       x2="11.43258"
       y2="19.248545"
       gradientUnits="userSpaceOnUse"
       gradientTransform="matrix(0.943958,0,0,0.9416252,0.612084,0.4086234)" />
    <radialGradient
       inkscape:collect="always"
       xlink:href="#linearGradient4335"
       id="radialGradient4341"
       cx="11"
       cy="2.3396826"
       fx="11"
       fy="-1.8158123"
       r="10"
       gradientUnits="userSpaceOnUse"
       gradientTransform="matrix(0.5542849,0,0,0.1969933,4.9028663,1.8787807)" />
    <linearGradient
       inkscape:collect="always"
       xlink:href="#linearGradient4394"
       id="linearGradient4400"
       x1="8.8523808"
       y1="6.0296297"
       x2="8.8523808"
       y2="9.3540745"
       gradientUnits="userSpaceOnUse" />
    <linearGradient
       inkscape:collect="always"
       xlink:href="#linearGradient4394"
       id="linearGradient4406"
       gradientUnits="userSpaceOnUse"
       x1="8.8523808"
       y1="6.0296297"
       x2="8.8523808"
       y2="9.3540745" />
    <radialGradient
       inkscape:collect="always"
       xlink:href="#linearGradient4187"
       id="radialGradient4410"
       gradientUnits="userSpaceOnUse"
       gradientTransform="matrix(7.1279784,0,0,7.1279784,-8.0418856,-12.999563)"
       cx="2.6714287"
       cy="4.2331223"
       fx="2.6714287"
       fy="4.2331223"
       r="1.4142857" />
    <radialGradient
       inkscape:collect="always"
       xlink:href="#linearGradient4187"
       id="radialGradient4414"
       gradientUnits="userSpaceOnUse"
       gradientTransform="matrix(1.4401425,0,0,1.3334653,-1.1758092,-1.504)"
       cx="2.6714287"
       cy="4.2331223"
       fx="2.6714287"
       fy="4.2331223"
       r="1.4142857" />
    <linearGradient
       inkscape:collect="always"
       xlink:href="#linearGradient4394"
       id="linearGradient4419"
       x1="10.51746"
       y1="14.335544"
       x2="10.587301"
       y2="20.22312"
       gradientUnits="userSpaceOnUse"
       gradientTransform="translate(0,-1)" />
    <linearGradient
       inkscape:collect="always"
       xlink:href="#linearGradient4394"
       id="linearGradient4427"
       gradientUnits="userSpaceOnUse"
       gradientTransform="translate(10.823752,3.3453865)"
       x1="10.51746"
       y1="14.335544"
       x2="10.587301"
       y2="20.22312" />
    <linearGradient
       inkscape:collect="always"
       xlink:href="#linearGradient4394"
       id="linearGradient4439"
       gradientUnits="userSpaceOnUse"
       gradientTransform="translate(24.791388,-1)"
       x1="10.51746"
       y1="14.335544"
       x2="10.587301"
       y2="20.22312" />
    <linearGradient
       inkscape:collect="always"
       xlink:href="#linearGradient3204"
       id="linearGradient3210"
       x1="19.843752"
       y1="4.3736434"
       x2="12.468555"
       y2="17.318401"
       gradientUnits="userSpaceOnUse" />
    <linearGradient
       inkscape:collect="always"
       xlink:href="#linearGradient4394"
       id="linearGradient2222"
       gradientUnits="userSpaceOnUse"
       x1="8.8523808"
       y1="6.0296297"
       x2="8.8523808"
       y2="9.3540745" />
    <linearGradient
       inkscape:collect="always"
       xlink:href="#linearGradient3200"
       id="linearGradient3206"
       x1="15.721439"
       y1="14.203443"
       x2="15.721439"
       y2="8.587182"
       gradientUnits="userSpaceOnUse"
       gradientTransform="translate(9,0)" />
    <linearGradient
       inkscape:collect="always"
       xlink:href="#linearGradient3200"
       id="linearGradient3211"
       gradientUnits="userSpaceOnUse"
       gradientTransform="translate(9,0)"
       x1="15.721439"
       y1="14.203443"
       x2="15.721439"
       y2="8.587182" />
  </defs>
  <sodipodi:namedview
     id="base"
     pagecolor="#ffffff"
     bordercolor="#666666"
     borderopacity="1.0"
     gridtolerance="10000"
     guidetolerance="10"
     objecttolerance="10"
     inkscape:pageopacity="0.0"
     inkscape:pageshadow="2"
     inkscape:zoom="1"
     inkscape:cx="11"
     inkscape:cy="11"
     inkscape:document-units="px"
     inkscape:current-layer="layer1"
     width="22px"
     height="22px"
     showgrid="false"
     gridempspacing="2"
     gridspacingx="1px"
     gridspacingy="1px"
     showborder="false"
     borderlayer="true"
     inkscape:showpageshadow="false"
     inkscape:window-width="748"
     inkscape:window-height="736"
     inkscape:window-x="0"
     inkscape:window-y="0"
     inkscape:grid-points="true" />
  <metadata
     id="metadata7">
    <rdf:RDF>
      <cc:Work
         rdf:about="">
        <dc:format>image/svg+xml</dc:format>
        <dc:type
           rdf:resource="http://purl.org/dc/dcmitype/StillImage" />
      </cc:Work>
    </rdf:RDF>
  </metadata>
  <g
     inkscape:label="Layer 1"
     inkscape:groupmode="layer"
     id="layer1">
    <path
       sodipodi:type="arc"
       style="opacity:1;fill:url(#linearGradient4201);fill-opacity:1.0;stroke:none;stroke-width:1;stroke-linecap:round;stroke-linejoin:round;stroke-miterlimit:4;stroke-dasharray:none;stroke-opacity:1"
       id="path4183"
       sodipodi:cx="2.6714287"
       sodipodi:cy="2.9857142"
       sodipodi:rx="1.4142857"
       sodipodi:ry="1.3095238"
       d="M 4.0857143 2.9857142 A 1.4142857 1.3095238 0 1 1  1.257143,2.9857142 A 1.4142857 1.3095238 0 1 1  4.0857143 2.9857142 z"
       transform="matrix(7.0707073,0,0,7.6363636,-7.8888904,-11.799999)" />
    <path
       transform="matrix(6.3636367,0,0,6.8727274,-6.0000017,-9.5199995)"
       d="M 4.0857143 2.9857142 A 1.4142857 1.3095238 0 1 1  1.257143,2.9857142 A 1.4142857 1.3095238 0 1 1  4.0857143 2.9857142 z"
       sodipodi:ry="1.3095238"
       sodipodi:rx="1.4142857"
       sodipodi:cy="2.9857142"
       sodipodi:cx="2.6714287"
       id="path4185"
       style="opacity:1;fill:url(#radialGradient4193);fill-opacity:1.0;stroke:none;stroke-width:1;stroke-linecap:round;stroke-linejoin:round;stroke-miterlimit:4;stroke-dasharray:none;stroke-opacity:1"
       sodipodi:type="arc" />
    <path
       sodipodi:type="arc"
       style="opacity:1;fill:none;fill-opacity:1.0;stroke:#ffffb3;stroke-width:0.01512108;stroke-linecap:round;stroke-linejoin:round;stroke-miterlimit:4;stroke-dasharray:none;stroke-opacity:1;filter:url(#filter4205)"
       id="path4203"
       sodipodi:cx="2.6714287"
       sodipodi:cy="2.9857142"
       sodipodi:rx="1.4142857"
       sodipodi:ry="1.3095238"
       d="M 4.0857143 2.9857142 A 1.4142857 1.3095238 0 1 1  1.257143,2.9857142 A 1.4142857 1.3095238 0 1 1  4.0857143 2.9857142 z"
       transform="matrix(6.3636367,0,0,6.8727274,-6.0000017,-9.5199995)" />
    <path
       style="opacity:0.85;fill:url(#linearGradient4224);fill-opacity:1;stroke:url(#linearGradient3210);stroke-width:1;stroke-linecap:round;stroke-linejoin:round;stroke-miterlimit:4;stroke-dasharray:none;stroke-opacity:1"
       d="M 10.995622,2.2918738 C 6.3060386,2.2918738 2.5,6.0885068 2.5,10.766501 C 2.5,10.938037 2.5194077,11.097717 2.5294987,11.266739 C 4.1588464,11.542802 5.8828388,11.708126 7.6917691,11.708126 C 12.239238,11.708126 16.35563,10.763247 19.343751,9.2363598 C 18.618801,5.2906242 15.159591,2.2918738 10.995622,2.2918738 z "
       id="path4213" />
    <path
       style="opacity:0.64444444;fill:url(#radialGradient4341);fill-opacity:1.0;stroke:none;stroke-width:1;stroke-linecap:round;stroke-linejoin:round;stroke-miterlimit:4;stroke-dasharray:none;stroke-opacity:1"
       d="M 11 1 C 5.48 1 0.99999999 5.4800002 1 11 L 2 11 C 2 6.0320001 6.0319999 2 11 2 C 15.968 2 20 6.0319999 20 11 L 21 11 C 21 5.48 16.52 1.0000001 11 1 z "
       id="path4326" />
    <path
       sodipodi:type="arc"
       style="opacity:1;fill:none;fill-opacity:1;stroke:url(#linearGradient4400);stroke-width:2.96476007;stroke-linecap:round;stroke-linejoin:round;stroke-miterlimit:4;stroke-dasharray:none;stroke-opacity:1"
       id="path4384"
       sodipodi:cx="8.8523808"
       sodipodi:cy="7.6126986"
       sodipodi:rx="0.9253968"
       sodipodi:ry="1.1873016"
       d="M 9.7777776 7.6126986 A 0.9253968 1.1873016 0 1 1  7.926984,7.6126986 A 0.9253968 1.1873016 0 1 1  9.7777776 7.6126986 z"
       transform="matrix(1.0806175,0,0,0.421123,-0.5660376,5.2941179)" />
    <path
       transform="matrix(1.0806175,0,0,0.421123,-0.5660376,5.2941178)"
       d="M 9.7777776 7.6126986 A 0.9253968 1.1873016 0 1 1  7.926984,7.6126986 A 0.9253968 1.1873016 0 1 1  9.7777776 7.6126986 z"
       sodipodi:ry="1.1873016"
       sodipodi:rx="0.9253968"
       sodipodi:cy="7.6126986"
       sodipodi:cx="8.8523808"
       id="path4392"
       style="opacity:1;fill:#382509;fill-opacity:1;stroke:none;stroke-width:0.85585248;stroke-linecap:round;stroke-linejoin:round;stroke-miterlimit:4;stroke-dasharray:none;stroke-opacity:1"
       sodipodi:type="arc" />
    <path
       transform="matrix(1.0806175,0,0,0.421123,3.4339624,5.2941179)"
       d="M 9.7777776 7.6126986 A 0.9253968 1.1873016 0 1 1  7.926984,7.6126986 A 0.9253968 1.1873016 0 1 1  9.7777776 7.6126986 z"
       sodipodi:ry="1.1873016"
       sodipodi:rx="0.9253968"
       sodipodi:cy="7.6126986"
       sodipodi:cx="8.8523808"
       id="path4402"
       style="opacity:1;fill:none;fill-opacity:1;stroke:url(#linearGradient4406);stroke-width:2.96476007;stroke-linecap:round;stroke-linejoin:round;stroke-miterlimit:4;stroke-dasharray:none;stroke-opacity:1"
       sodipodi:type="arc" />
    <path
       sodipodi:type="arc"
       style="opacity:1;fill:#382509;fill-opacity:1;stroke:none;stroke-width:0.85585248;stroke-linecap:round;stroke-linejoin:round;stroke-miterlimit:4;stroke-dasharray:none;stroke-opacity:1"
       id="path4404"
       sodipodi:cx="8.8523808"
       sodipodi:cy="7.6126986"
       sodipodi:rx="0.9253968"
       sodipodi:ry="1.1873016"
       d="M 9.7777776 7.6126986 A 0.9253968 1.1873016 0 1 1  7.926984,7.6126986 A 0.9253968 1.1873016 0 1 1  9.7777776 7.6126986 z"
       transform="matrix(1.0806175,0,0,0.421123,3.4339624,5.2941178)" />
    <path
       transform="matrix(0.5403089,0,0,0.4211231,6.2169801,12.294117)"
       d="M 9.7777776 7.6126986 A 0.9253968 1.1873016 0 1 1  7.926984,7.6126986 A 0.9253968 1.1873016 0 1 1  9.7777776 7.6126986 z"
       sodipodi:ry="1.1873016"
       sodipodi:rx="0.9253968"
       sodipodi:cy="7.6126986"
       sodipodi:cx="8.8523808"
       id="path2218"
       style="opacity:1;fill:none;fill-opacity:1;stroke:url(#linearGradient2222);stroke-width:4.19280243;stroke-linecap:round;stroke-linejoin:round;stroke-miterlimit:4;stroke-dasharray:none;stroke-opacity:1"
       sodipodi:type="arc" />
    <path
       sodipodi:type="arc"
       style="opacity:1;fill:#5b3f14;fill-opacity:1;stroke:none;stroke-width:0.85585248;stroke-linecap:round;stroke-linejoin:round;stroke-miterlimit:4;stroke-dasharray:none;stroke-opacity:1"
       id="path2220"
       sodipodi:cx="8.8523808"
       sodipodi:cy="7.6126986"
       sodipodi:rx="0.9253968"
       sodipodi:ry="1.1873016"
       d="M 9.7777776 7.6126986 A 0.9253968 1.1873016 0 1 1  7.926984,7.6126986 A 0.9253968 1.1873016 0 1 1  9.7777776 7.6126986 z"
       transform="matrix(1.0806177,0,0,0.4211231,1.4339612,12.294117)" />
    <g
       id="g3234"
       transform="translate(0,-1)">
      <path
         style="opacity:0.5;fill:none;fill-opacity:1;stroke:#000000;stroke-width:2;stroke-linecap:square;stroke-linejoin:round;stroke-miterlimit:4;stroke-dasharray:none;stroke-opacity:1"
         d="M 15,13 L 15,14 L 17,14 L 17,15 L 18,15 L 18,14 L 18,13 L 15,13 z M 17,15 L 16,15 L 16,16 L 17,16 L 17,15 z M 16,16 L 15,16 L 15,17 L 15,18 L 18,18 L 18,17 L 16,17 L 16,16 z "
         id="path3228" />
      <path
         id="rect3217"
         d="M 15,13 L 15,14 L 17,14 L 17,15 L 18,15 L 18,14 L 18,13 L 15,13 z M 17,15 L 16,15 L 16,16 L 17,16 L 17,15 z M 16,16 L 15,16 L 15,17 L 15,18 L 18,18 L 18,17 L 16,17 L 16,16 z "
         style="opacity:1;fill:#ffffff;fill-opacity:1;stroke:none;stroke-width:2;stroke-linecap:square;stroke-linejoin:round;stroke-miterlimit:4;stroke-dasharray:none;stroke-opacity:1" />
    </g>
    <g
       id="g3238"
       transform="translate(0,-1)">
      <path
         id="path3230"
         d="M 18,5 L 18,6 L 20,6 L 20,7 L 21,7 L 21,6 L 21,5 L 18,5 z M 20,7 L 19,7 L 19,8 L 20,8 L 20,7 z M 19,8 L 18,8 L 18,9 L 18,10 L 21,10 L 21,9 L 19,9 L 19,8 z "
         style="opacity:0.5;fill:none;fill-opacity:1;stroke:#000000;stroke-width:2;stroke-linecap:square;stroke-linejoin:round;stroke-miterlimit:4;stroke-dasharray:none;stroke-opacity:1" />
      <path
         style="opacity:1;fill:#ffffff;fill-opacity:1;stroke:none;stroke-width:2;stroke-linecap:square;stroke-linejoin:round;stroke-miterlimit:4;stroke-dasharray:none;stroke-opacity:1"
         d="M 18,5 L 18,6 L 20,6 L 20,7 L 21,7 L 21,6 L 21,5 L 18,5 z M 20,7 L 19,7 L 19,8 L 20,8 L 20,7 z M 19,8 L 18,8 L 18,9 L 18,10 L 21,10 L 21,9 L 19,9 L 19,8 z "
         id="path3232" />
    </g>
  </g>
</svg>
