<?xml version="1.0" encoding="UTF-8" standalone="no"?>
<!-- Generator: Adobe Illustrator 12.0.0, SVG Export Plug-In . SVG Version: 6.00 Build 51448)  -->
<svg
   xmlns:ns="http://ns.adobe.com/SaveForWeb/1.0/"
   xmlns:dc="http://purl.org/dc/elements/1.1/"
   xmlns:cc="http://creativecommons.org/ns#"
   xmlns:rdf="http://www.w3.org/1999/02/22-rdf-syntax-ns#"
   xmlns:svg="http://www.w3.org/2000/svg"
   xmlns="http://www.w3.org/2000/svg"
   xmlns:xlink="http://www.w3.org/1999/xlink"
   xmlns:sodipodi="http://sodipodi.sourceforge.net/DTD/sodipodi-0.dtd"
   xmlns:inkscape="http://www.inkscape.org/namespaces/inkscape"
   version="1.1"
   id="Layer_1"
   width="128"
   height="128"
   viewBox="0 0 128 128"
   overflow="visible"
   enable-background="new 0 0 128 128"
   xml:space="preserve"
   sodipodi:version="0.32"
   inkscape:version="0.46"
   sodipodi:docname="go-first-page.svgz"
   sodipodi:docbase="/Users/david/Desktop/sandbox"
   inkscape:output_extension="org.inkscape.output.svgz.inkscape"
   inkscape:export-filename="/home/pinheiro/pics/oxygen/scalable/actions/go-first-page.png"
   inkscape:export-xdpi="30.9375"
   inkscape:export-ydpi="30.9375"><defs
   id="defs105"><linearGradient
     inkscape:collect="always"
     id="linearGradient4578"><stop
       style="stop-color:#ffffff;stop-opacity:1;"
       offset="0"
       id="stop4580" /><stop
       style="stop-color:#ffffff;stop-opacity:0"
       offset="1"
       id="stop4582" /></linearGradient><linearGradient
     inkscape:collect="always"
     id="linearGradient4568"><stop
       style="stop-color:#ffffff;stop-opacity:1;"
       offset="0"
       id="stop4570" /><stop
       style="stop-color:#ffffff;stop-opacity:0;"
       offset="1"
       id="stop4572" /></linearGradient><filter
     inkscape:collect="always"
     id="filter3241"><feGaussianBlur
       inkscape:collect="always"
       stdDeviation="1.0394514"
       id="feGaussianBlur3243" /></filter><filter
     inkscape:collect="always"
     id="filter3772"><feGaussianBlur
       inkscape:collect="always"
       stdDeviation="0.50063244"
       id="feGaussianBlur3774" /></filter><filter
     id="filter3722"
     height="1.5982659"
     y="-0.29913295"
     width="1.9039301"
     x="-0.45196507"
     inkscape:collect="always"><feGaussianBlur
       id="feGaussianBlur3724"
       stdDeviation="1.3476562"
       inkscape:collect="always" /></filter><filter
     id="filter3681"
     height="1.1579429"
     y="-0.078971461"
     width="1.2447821"
     x="-0.12239107"
     inkscape:collect="always"><feGaussianBlur
       id="feGaussianBlur3683"
       stdDeviation="0.321914"
       inkscape:collect="always" /></filter><filter
     id="filter3533"
     inkscape:collect="always"><feGaussianBlur
       id="feGaussianBlur3535"
       stdDeviation="1.0600355"
       inkscape:collect="always" /></filter><filter
     id="filter3396"
     inkscape:collect="always"><feGaussianBlur
       id="feGaussianBlur3398"
       stdDeviation="0.495"
       inkscape:collect="always" /></filter><linearGradient
     id="linearGradient3294"
     inkscape:collect="always"><stop
       id="stop3296"
       offset="0"
       style="stop-color:#37a42c;stop-opacity:1;" /><stop
       id="stop3298"
       offset="1"
       style="stop-color:#bff500;stop-opacity:1" /></linearGradient><linearGradient
     id="linearGradient3348"
     inkscape:collect="always"><stop
       id="stop3350"
       offset="0"
       style="stop-color:#cbff10;stop-opacity:1" /><stop
       id="stop3352"
       offset="1"
       style="stop-color:#004d00;stop-opacity:1" /></linearGradient><linearGradient
     id="linearGradient3361"
     inkscape:collect="always"><stop
       id="stop3363"
       offset="0"
       style="stop-color:#edffbf;stop-opacity:1;" /><stop
       id="stop3365"
       offset="1"
       style="stop-color:#edffbf;stop-opacity:0;" /></linearGradient><linearGradient
     id="linearGradient3400"
     inkscape:collect="always"><stop
       id="stop3402"
       offset="0"
       style="stop-color:#e5ff00;stop-opacity:1;" /><stop
       id="stop3404"
       offset="1"
       style="stop-color:#e5ff00;stop-opacity:0;" /></linearGradient><linearGradient
     inkscape:collect="always"
     id="linearGradient3503"><stop
       style="stop-color:#005f1e;stop-opacity:1"
       offset="0"
       id="stop3505" /><stop
       style="stop-color:#43943c;stop-opacity:1"
       offset="1"
       id="stop3507" /></linearGradient><linearGradient
     id="linearGradient3669"
     inkscape:collect="always"><stop
       id="stop3671"
       offset="0"
       style="stop-color:#ffffff;stop-opacity:1;" /><stop
       id="stop3673"
       offset="1"
       style="stop-color:#ffffff;stop-opacity:0;" /></linearGradient><linearGradient
     inkscape:collect="always"
     id="linearGradient3689"><stop
       style="stop-color:#f0ff80;stop-opacity:1"
       offset="0"
       id="stop3691" /><stop
       style="stop-color:#f0ff80;stop-opacity:0"
       offset="1"
       id="stop3693" /></linearGradient><linearGradient
     id="linearGradient3710"
     inkscape:collect="always"><stop
       id="stop3712"
       offset="0"
       style="stop-color:#ffffff;stop-opacity:1;" /><stop
       id="stop3714"
       offset="1"
       style="stop-color:#ffffff;stop-opacity:0;" /></linearGradient><radialGradient
     inkscape:collect="always"
     xlink:href="#linearGradient3669"
     id="radialGradient2877"
     gradientUnits="userSpaceOnUse"
     gradientTransform="matrix(0.9650814,0.2619502,-0.9201984,3.3902106,33.309062,-57.693239)"
     cx="71.775223"
     cy="16.0865"
     fx="71.775223"
     fy="16.0865"
     r="3.15625" /><radialGradient
     inkscape:collect="always"
     xlink:href="#linearGradient3689"
     id="radialGradient2881"
     gradientUnits="userSpaceOnUse"
     gradientTransform="matrix(0.9650814,0.2619502,-0.9201984,3.3902106,17.309062,-57.693239)"
     cx="71.775223"
     cy="16.0865"
     fx="71.775223"
     fy="16.0865"
     r="3.15625" /><linearGradient
     inkscape:collect="always"
     xlink:href="#linearGradient3710"
     id="linearGradient2895"
     gradientUnits="userSpaceOnUse"
     gradientTransform="matrix(1.0533333,0,0,0.9219945,11.76,4.9924269)"
     x1="73.739265"
     y1="69.923088"
     x2="35.568035"
     y2="48.212151" /><linearGradient
     inkscape:collect="always"
     xlink:href="#linearGradient3710"
     id="linearGradient2897"
     gradientUnits="userSpaceOnUse"
     gradientTransform="matrix(1.0533333,0,0,0.9219945,11.76,4.9924269)"
     x1="63.159035"
     y1="21.171064"
     x2="63.159035"
     y2="80.12056" /><radialGradient
     inkscape:collect="always"
     xlink:href="#linearGradient3669"
     id="radialGradient4295"
     gradientUnits="userSpaceOnUse"
     gradientTransform="matrix(0.9650814,0.2619502,-0.9201984,3.3902106,33.309062,-57.693239)"
     cx="71.775223"
     cy="16.0865"
     fx="71.775223"
     fy="16.0865"
     r="3.15625" /><radialGradient
     inkscape:collect="always"
     xlink:href="#linearGradient3689"
     id="radialGradient4297"
     gradientUnits="userSpaceOnUse"
     gradientTransform="matrix(0.9650814,0.2619502,-0.9201984,3.3902106,17.309062,-57.693239)"
     cx="71.775223"
     cy="16.0865"
     fx="71.775223"
     fy="16.0865"
     r="3.15625" /><radialGradient
     inkscape:collect="always"
     xlink:href="#linearGradient3710"
     id="radialGradient4301"
     gradientUnits="userSpaceOnUse"
     gradientTransform="matrix(6.5079869,0,0,1.510917,-63.772161,-32.970115)"
     cx="11.578125"
     cy="64.53125"
     fx="11.578125"
     fy="64.53125"
     r="3.578125" /><linearGradient
     inkscape:collect="always"
     xlink:href="#linearGradient3710"
     id="linearGradient4319"
     gradientUnits="userSpaceOnUse"
     gradientTransform="matrix(0.491065,0,0,0.4612954,29.82267,22.484663)"
     x1="63.159035"
     y1="21.171064"
     x2="63.159035"
     y2="80.12056" /><linearGradient
     inkscape:collect="always"
     xlink:href="#linearGradient3710"
     id="linearGradient4322"
     gradientUnits="userSpaceOnUse"
     gradientTransform="matrix(0.491065,0,0,0.4612954,29.82267,22.484663)"
     x1="73.739265"
     y1="69.923088"
     x2="35.568035"
     y2="48.212151" /><linearGradient
     inkscape:collect="always"
     xlink:href="#linearGradient3361"
     id="linearGradient4325"
     gradientUnits="userSpaceOnUse"
     gradientTransform="matrix(0.491065,0,0,0.4612954,29.82267,22.484663)"
     x1="63.159035"
     y1="21.171064"
     x2="63.159035"
     y2="80.12056" /><linearGradient
     inkscape:collect="always"
     xlink:href="#linearGradient3400"
     id="linearGradient4328"
     gradientUnits="userSpaceOnUse"
     gradientTransform="matrix(-0.5266666,0,0,0.4609973,110.13333,22.503737)"
     x1="91.785248"
     y1="112.5"
     x2="91.992706"
     y2="44.287056" /><radialGradient
     inkscape:collect="always"
     xlink:href="#linearGradient3348"
     id="radialGradient4331"
     gradientUnits="userSpaceOnUse"
     gradientTransform="matrix(0.7086017,3.678339e-8,-3.759092e-8,0.6390187,14.91136,7.9807573)"
     cx="72.222832"
     cy="81.225037"
     fx="75.65107"
     fy="93.974243"
     r="50" /><linearGradient
     inkscape:collect="always"
     xlink:href="#linearGradient3294"
     id="linearGradient4335"
     gradientUnits="userSpaceOnUse"
     gradientTransform="matrix(0.491065,0,0,0.4612954,27.85842,22.484663)"
     x1="43.799026"
     y1="32.051865"
     x2="58.606159"
     y2="96.363052" /><linearGradient
     inkscape:collect="always"
     xlink:href="#linearGradient3503"
     id="linearGradient4340"
     gradientUnits="userSpaceOnUse"
     gradientTransform="matrix(0.5886274,0,0,0.5386093,24.56703,17.536688)"
     x1="71.626404"
     y1="123.73875"
     x2="46.225941"
     y2="28.942928" /><radialGradient
     inkscape:collect="always"
     xlink:href="#linearGradient3348"
     id="radialGradient4467"
     cx="122.17677"
     cy="53.333336"
     fx="122.17677"
     fy="53.333336"
     r="2"
     gradientTransform="matrix(10.715398,2.871182,-2.6956613,10.060345,-1186.8844,-819.3435)"
     gradientUnits="userSpaceOnUse" /><linearGradient
     inkscape:collect="always"
     xlink:href="#linearGradient3689"
     id="linearGradient4480"
     x1="122.12132"
     y1="24"
     x2="122.12132"
     y2="60.048988"
     gradientUnits="userSpaceOnUse"
     gradientTransform="matrix(-1,0,0,1,143.65722,0)" /><linearGradient
     inkscape:collect="always"
     xlink:href="#linearGradient3669"
     id="linearGradient4491"
     gradientUnits="userSpaceOnUse"
     gradientTransform="matrix(-1,0,0,1,143.65722,0)"
     x1="132"
     y1="52"
     x2="116"
     y2="28" /><linearGradient
     inkscape:collect="always"
     xlink:href="#linearGradient3400"
     id="linearGradient4501"
     x1="121.85139"
     y1="64"
     x2="120"
     y2="44"
     gradientUnits="userSpaceOnUse" /><filter
     inkscape:collect="always"
     id="filter4535"
     x="-0.16561315"
     width="1.3312263"
     y="-0.014431021"
     height="1.028862"><feGaussianBlur
       inkscape:collect="always"
       stdDeviation="0.28982301"
       id="feGaussianBlur4537" /></filter><filter
     inkscape:collect="always"
     id="filter4549"><feGaussianBlur
       inkscape:collect="always"
       stdDeviation="0.1159292"
       id="feGaussianBlur4551" /></filter><linearGradient
     inkscape:collect="always"
     xlink:href="#linearGradient4568"
     id="linearGradient4574"
     x1="116"
     y1="29.274029"
     x2="124"
     y2="74.399025"
     gradientUnits="userSpaceOnUse" /><radialGradient
     inkscape:collect="always"
     xlink:href="#linearGradient4578"
     id="radialGradient4584"
     cx="114"
     cy="26"
     fx="114"
     fy="26"
     r="2.5"
     gradientUnits="userSpaceOnUse"
     gradientTransform="matrix(0.7071068,-0.7071068,2.6709373,2.6709373,-37.510644,36.856443)" /><filter
     inkscape:collect="always"
     id="filter4666"
     x="-0.24955752"
     width="1.499115"
     y="-0.24955752"
     height="1.499115"><feGaussianBlur
       inkscape:collect="always"
       stdDeviation="0.4159292"
       id="feGaussianBlur4668" /></filter><radialGradient
     inkscape:collect="always"
     xlink:href="#linearGradient4578"
     id="radialGradient4672"
     gradientUnits="userSpaceOnUse"
     gradientTransform="matrix(0.7071068,-0.7071068,2.6709373,2.6709373,-136.39552,36.72386)"
     cx="114"
     cy="26"
     fx="114"
     fy="26"
     r="2.5" /><radialGradient
     inkscape:collect="always"
     xlink:href="#linearGradient3400"
     id="radialGradient4678"
     gradientUnits="userSpaceOnUse"
     gradientTransform="matrix(0.7071068,-0.7071068,2.6709373,2.6709373,-36.054544,37.165802)"
     cx="114"
     cy="26"
     fx="114"
     fy="26"
     r="2.5" /><radialGradient
     inkscape:collect="always"
     xlink:href="#linearGradient3400"
     id="radialGradient4680"
     gradientUnits="userSpaceOnUse"
     gradientTransform="matrix(0.7071068,-0.7071068,2.6709373,2.6709373,-36.054544,37.165802)"
     cx="114"
     cy="26"
     fx="114"
     fy="26"
     r="2.5" /><linearGradient
     y2="96.0002"
     x2="88.0002"
     y1="104"
     x1="96"
     gradientUnits="userSpaceOnUse"
     id="linearGradient3799"
     xlink:href="#XMLID_12_"
     inkscape:collect="always" /><radialGradient
     r="139.55859"
     fy="112.77987"
     fx="112.83274"
     cy="112.77987"
     cx="112.83274"
     gradientTransform="matrix(0.9787234,0,0,0.9818182,-18.638296,-6.8363636)"
     gradientUnits="userSpaceOnUse"
     id="radialGradient3793"
     xlink:href="#XMLID_8_"
     inkscape:collect="always" /><radialGradient
     fy="107.89297"
     fx="111.79375"
     r="139.5585"
     cy="107.89297"
     cx="111.79375"
     gradientTransform="matrix(0.7538414,0,0,0.7538414,7.5189891,18.558777)"
     gradientUnits="userSpaceOnUse"
     id="radialGradient3791"
     xlink:href="#XMLID_7_"
     inkscape:collect="always" /><filter
     inkscape:collect="always"
     id="filter4209"><feGaussianBlur
       inkscape:collect="always"
       stdDeviation="0.90565481"
       id="feGaussianBlur4211" /></filter><linearGradient
     y2="96.0002"
     x2="88.0002"
     y1="104"
     x1="96"
     gradientUnits="userSpaceOnUse"
     id="linearGradient3942"
     xlink:href="#linearGradient3839"
     inkscape:collect="always" /><radialGradient
     r="139.55859"
     fy="112.77987"
     fx="112.83274"
     cy="112.77987"
     cx="112.83274"
     gradientTransform="matrix(0.9787234,0,0,0.9818182,-18.638296,-6.8363636)"
     gradientUnits="userSpaceOnUse"
     id="radialGradient3940"
     xlink:href="#XMLID_8_"
     inkscape:collect="always" /><radialGradient
     r="139.5585"
     fy="107.89297"
     fx="111.79375"
     cy="107.89297"
     cx="111.79375"
     gradientTransform="matrix(0.7538414,0,0,0.7538414,7.5189891,18.558777)"
     gradientUnits="userSpaceOnUse"
     id="radialGradient3938"
     xlink:href="#XMLID_7_"
     inkscape:collect="always" /><linearGradient
     id="linearGradient3839"
     gradientUnits="userSpaceOnUse"
     x1="96"
     y1="104"
     x2="88.0002"
     y2="96.0002">
	<stop
   offset="0"
   style="stop-color:#888A85"
   id="stop3841" />
	<stop
   offset="0.0673"
   style="stop-color:#8C8E89"
   id="stop3843" />
	<stop
   offset="0.0673"
   style="stop-color:#ABACA9"
   id="stop3845" />
	<stop
   offset="0.1347"
   style="stop-color:#C5C6C4"
   id="stop3847" />
	<stop
   offset="0.2115"
   style="stop-color:#DBDBDA"
   id="stop3849" />
	<stop
   offset="0.3012"
   style="stop-color:#EBEBEB"
   id="stop3851" />
	<stop
   offset="0.4122"
   style="stop-color:#F7F7F6"
   id="stop3853" />
	<stop
   offset="0.5679"
   style="stop-color:#FDFDFD"
   id="stop3855" />
	<stop
   offset="1"
   style="stop-color:#FFFFFF"
   id="stop3857" />
</linearGradient><linearGradient
     inkscape:collect="always"
     xlink:href="#linearGradient3400"
     id="linearGradient6117"
     gradientUnits="userSpaceOnUse"
     x1="121.85139"
     y1="64"
     x2="120"
     y2="44" /></defs><sodipodi:namedview
   inkscape:window-height="687"
   inkscape:window-width="1022"
   inkscape:pageshadow="2"
   inkscape:pageopacity="0.0"
   guidetolerance="10.0"
   gridtolerance="10.0"
   objecttolerance="10.0"
   borderopacity="1.0"
   bordercolor="#666666"
   pagecolor="#ffffff"
   id="base"
   inkscape:zoom="2.8284271"
   inkscape:cx="6.8834534"
   inkscape:cy="76.75678"
   inkscape:window-x="160"
   inkscape:window-y="267"
   inkscape:current-layer="Layer_1"
   showgrid="true"
   showguides="true"
   inkscape:guide-bbox="true"><inkscape:grid
     id="GridFromPre046Settings"
     type="xygrid"
     originx="0px"
     originy="0px"
     spacingx="5.8181px"
     spacingy="5.8181px"
     color="#0000ff"
     empcolor="#0000ff"
     opacity="0.2"
     empopacity="0.4"
     empspacing="2"
     enabled="true"
     visible="true" /></sodipodi:namedview>
<metadata
   id="metadata3">
	<ns:sfw>
		<ns:slices>
			<ns:slice
   y="0"
   x="0"
   height="128"
   width="128"
   sliceID="1316743234" />
		</ns:slices>
		<ns:sliceSourceBounds
   y="0"
   x="0"
   height="128"
   width="128"
   bottomLeftOrigin="true" />
		<ns:optimizationSettings>
			<ns:targetSettings
   targetSettingsID="0"
   fileFormat="PNG24Format">
				<ns:PNG24Format
   transparency="true"
   filtered="false"
   matteColor="#FFFFFF"
   noMatteColor="false"
   interlaced="false">
					</ns:PNG24Format>
			</ns:targetSettings>
			<ns:targetSettings
   targetSettingsID="1696735251"
   fileFormat="PNG24Format">
				<ns:PNG24Format
   transparency="true"
   filtered="false"
   matteColor="#FFFFFF"
   noMatteColor="false"
   interlaced="false">
					</ns:PNG24Format>
			</ns:targetSettings>
		</ns:optimizationSettings>
	</ns:sfw>
<rdf:RDF><cc:Work
     rdf:about=""><dc:format>image/svg+xml</dc:format><dc:type
       rdf:resource="http://purl.org/dc/dcmitype/StillImage" /></cc:Work></rdf:RDF></metadata>

<radialGradient
   id="XMLID_7_"
   cx="102"
   cy="112.3047"
   r="139.5585"
   gradientUnits="userSpaceOnUse">
	<stop
   offset="0"
   style="stop-color:#00537D"
   id="stop16" />
	<stop
   offset="0.0151"
   style="stop-color:#186389"
   id="stop18" />
	<stop
   offset="0.0558"
   style="stop-color:#558CA8"
   id="stop20" />
	<stop
   offset="0.0964"
   style="stop-color:#89AFC3"
   id="stop22" />
	<stop
   offset="0.1357"
   style="stop-color:#B3CCD8"
   id="stop24" />
	<stop
   offset="0.1737"
   style="stop-color:#D4E2E9"
   id="stop26" />
	<stop
   offset="0.2099"
   style="stop-color:#ECF2F5"
   id="stop28" />
	<stop
   offset="0.2435"
   style="stop-color:#FAFCFD"
   id="stop30" />
	<stop
   offset="0.2722"
   style="stop-color:#FFFFFF"
   id="stop32" />
</radialGradient>

<radialGradient
   id="XMLID_8_"
   cx="102"
   cy="112.3047"
   r="139.55859"
   gradientUnits="userSpaceOnUse">
	<stop
   offset="0"
   style="stop-color:#535557"
   id="stop37" />
	
	<stop
   offset="0.11366145"
   style="stop-color:#898A8C"
   id="stop41" />
	
	
	<stop
   offset="0.20296688"
   style="stop-color:#ECECEC"
   id="stop47" />
	<stop
   offset="0.2363"
   style="stop-color:#FAFAFA"
   id="stop49" />
	<stop
   offset="0.2722"
   style="stop-color:#FFFFFF"
   id="stop51" />
	<stop
   offset="0.5313"
   style="stop-color:#FAFAFA"
   id="stop53" />
	<stop
   offset="0.8449"
   style="stop-color:#EBECEC"
   id="stop55" />
	<stop
   offset="1"
   style="stop-color:#E1E2E3"
   id="stop57" />
</radialGradient>

<linearGradient
   id="XMLID_9_"
   gradientUnits="userSpaceOnUse"
   x1="94.3438"
   y1="102.3447"
   x2="86.5356"
   y2="94.5366">
	<stop
   offset="0"
   style="stop-color:#FFFFFF"
   id="stop62" />
	<stop
   offset="1"
   style="stop-color:#555753"
   id="stop64" />
</linearGradient>

<linearGradient
   id="XMLID_10_"
   gradientUnits="userSpaceOnUse"
   x1="95"
   y1="103"
   x2="86.5865"
   y2="94.5865">
	<stop
   offset="0"
   style="stop-color:#FFFFFF"
   id="stop69" />
	<stop
   offset="1"
   style="stop-color:#555753"
   id="stop71" />
</linearGradient>

<linearGradient
   id="XMLID_11_"
   gradientUnits="userSpaceOnUse"
   x1="95"
   y1="103"
   x2="87.293"
   y2="95.293">
	<stop
   offset="0"
   style="stop-color:#FFFFFF"
   id="stop76" />
	<stop
   offset="1"
   style="stop-color:#393B38"
   id="stop78" />
</linearGradient>

<linearGradient
   id="XMLID_12_"
   gradientUnits="userSpaceOnUse"
   x1="96"
   y1="104"
   x2="88.0002"
   y2="96.0002">
	<stop
   offset="0"
   style="stop-color:#888A85"
   id="stop83" />
	<stop
   offset="0.0072"
   style="stop-color:#8C8E89"
   id="stop85" />
	<stop
   offset="0.0673"
   style="stop-color:#ABACA9"
   id="stop87" />
	<stop
   offset="0.1347"
   style="stop-color:#C5C6C4"
   id="stop89" />
	<stop
   offset="0.2115"
   style="stop-color:#DBDBDA"
   id="stop91" />
	<stop
   offset="0.3012"
   style="stop-color:#EBEBEB"
   id="stop93" />
	<stop
   offset="0.4122"
   style="stop-color:#F7F7F6"
   id="stop95" />
	<stop
   offset="0.5679"
   style="stop-color:#FDFDFD"
   id="stop97" />
	<stop
   offset="1"
   style="stop-color:#FFFFFF"
   id="stop99" />
</linearGradient>
<g
   transform="translate(135.10774,-66.79945)"
   id="g3915"><g
     style="overflow:visible"
     id="g3917"
     transform="translate(-154.90149,58.906487)"><path
       id="path3920"
       d="M 32.6,14.793103 L 32.640816,120.03449 L 84.172,120.03448 C 84.702,120.03448 85.211,119.82348 85.586,119.44848 L 119.374,90.868759 C 119.749,90.493759 119.96,89.984759 119.96,89.454759 L 119.96,14.793103 L 32.6,14.793103 z"
       style="opacity:0.30684934;fill:#000000;fill-opacity:1;filter:url(#filter3241)"
       transform="matrix(1.0416667,0,0,1.0357143,-9.9583333,-3.3215342)"
       sodipodi:nodetypes="cccccccc" /><path
       id="path3922"
       d="M 34.147375,16.447009 L 34.147375,117.56157 L 84.415757,117.56157 C 84.945757,117.56157 85.454757,117.35057 85.829757,116.97557 L 117.454,86.717034 C 117.829,86.342034 118.04,85.833034 118.04,85.303034 L 117.92801,16.447009 L 34.147375,16.447009 z"
       style="opacity:0.89589042;fill:#000000;fill-opacity:1;filter:url(#filter3772)"
       transform="matrix(1.0416667,0,0,1.0357143,-9.9583333,-3.3215342)"
       sodipodi:nodetypes="cccccccc" /><path
       sodipodi:nodetypes="cccccccc"
       transform="matrix(1.0416667,0,0,1.0357143,-9.9583333,-3.3215342)"
       style="opacity:0.51351348;fill:#000000;fill-opacity:1;filter:url(#filter3241)"
       d="M 32.6,14.793103 L 32.640816,120.03449 L 84.172,120.03448 C 84.702,120.03448 85.211,119.82348 85.586,119.44848 L 119.374,90.772207 C 119.749,90.397207 119.96,89.888207 119.96,89.358207 L 119.96,14.793103 L 32.6,14.793103 z"
       id="path3924" /><path
       sodipodi:nodetypes="cccccccc"
       id="path3926"
       d="M 25.61185,13.712868 L 25.61185,118.43867 L 77.97475,118.43867 C 78.50475,118.43867 79.01375,118.22767 79.38875,117.85267 L 112.414,86.186 C 112.789,85.811 113,85.302 113,84.772 L 112.88335,13.712868 L 25.61185,13.712868 z"
       style="fill:url(#radialGradient3791)" /><path
       sodipodi:nodetypes="ccccccccccc"
       id="path3928"
       d="M 32.378725,19.5 C 31.839449,19.5 31.400002,19.940836 31.400002,20.481818 L 31.42995,117.51204 C 31.42995,118.05401 31.869397,118.49386 32.408673,118.49386 L 76.891747,118.2 C 77.149151,118.2 77.401662,118.09593 77.583704,117.91233 L 112.87848,85.042313 C 113.06151,84.858713 113.16525,84.606386 113.16525,84.348168 L 112.9303,20.512786 C 112.9303,19.971804 112.49183,19.530968 111.95158,19.530968 L 32.378725,19.5 z"
       style="fill:url(#radialGradient3793);fill-opacity:1" /><g
       transform="translate(2.4e-6,0)"
       id="g3930"><path
         sodipodi:nodetypes="ccccc"
         d="M 112.88335,83.530068 L 77.974748,81.722749 L 75.974748,83.722749 L 77.974748,118.43867 L 112.88335,83.530068 z"
         id="path3932"
         style="opacity:1;fill:#000000;fill-opacity:1;filter:url(#filter4209)" /><path
         sodipodi:nodetypes="cccc"
         d="M 77.974748,118.43867 L 112.88335,83.530068 L 77.974748,83.530068 L 77.974748,118.43867 z"
         id="path3934"
         style="fill:url(#linearGradient3799)" /></g><path
       id="path3936"
       d="M 100,32 L 100,32 z"
       style="fill:none;fill-rule:evenodd;stroke:#000000;stroke-width:1px;stroke-linecap:butt;stroke-linejoin:miter;stroke-opacity:1" /></g></g><g
   id="g3777"
   transform="translate(164.19824,-55.163252)"><g
     transform="translate(-154.90149,58.906487)"
     id="g3741"
     style="overflow:visible"><path
       sodipodi:nodetypes="cccccccc"
       transform="matrix(1.0416667,0,0,1.0357143,-9.9583333,-3.3215342)"
       style="opacity:0.30684934;fill:#000000;fill-opacity:1;filter:url(#filter3241)"
       d="M 32.6,14.793103 L 32.640816,120.03449 L 84.172,120.03448 C 84.702,120.03448 85.211,119.82348 85.586,119.44848 L 119.374,90.868759 C 119.749,90.493759 119.96,89.984759 119.96,89.454759 L 119.96,14.793103 L 32.6,14.793103 z"
       id="path4081" /><path
       sodipodi:nodetypes="cccccccc"
       transform="matrix(1.0416667,0,0,1.0357143,-9.9583333,-3.3215342)"
       style="opacity:0.89589042;fill:#000000;fill-opacity:1;filter:url(#filter3772)"
       d="M 34.147375,16.447009 L 34.147375,117.56157 L 84.415757,117.56157 C 84.945757,117.56157 85.454757,117.35057 85.829757,116.97557 L 117.454,86.717034 C 117.829,86.342034 118.04,85.833034 118.04,85.303034 L 117.92801,16.447009 L 34.147375,16.447009 z"
       id="path3744" /><path
       id="path3746"
       d="M 32.6,14.793103 L 32.640816,120.03449 L 84.172,120.03448 C 84.702,120.03448 85.211,119.82348 85.586,119.44848 L 119.374,90.772207 C 119.749,90.397207 119.96,89.888207 119.96,89.358207 L 119.96,14.793103 L 32.6,14.793103 z"
       style="opacity:0.51351348;fill:#000000;fill-opacity:1;filter:url(#filter3241)"
       transform="matrix(1.0416667,0,0,1.0357143,-9.9583333,-3.3215342)"
       sodipodi:nodetypes="cccccccc" /><path
       style="fill:url(#radialGradient3938)"
       d="M 25.61185,13.712868 L 25.61185,118.43867 L 77.97475,118.43867 C 78.50475,118.43867 79.01375,118.22767 79.38875,117.85267 L 112.414,86.186 C 112.789,85.811 113,85.302 113,84.772 L 112.88335,13.712868 L 25.61185,13.712868 z"
       id="path3748"
       sodipodi:nodetypes="cccccccc" /><path
       style="fill:url(#radialGradient3940);fill-opacity:1"
       d="M 32.378725,19.5 C 31.839449,19.5 31.400002,19.940836 31.400002,20.481818 L 31.42995,117.51204 C 31.42995,118.05401 31.869397,118.49386 32.408673,118.49386 L 76.891747,118.2 C 77.149151,118.2 77.401662,118.09593 77.583704,117.91233 L 112.87848,85.042313 C 113.06151,84.858713 113.16525,84.606386 113.16525,84.348168 L 112.9303,20.512786 C 112.9303,19.971804 112.49183,19.530968 111.95158,19.530968 L 32.378725,19.5 z"
       id="path3750"
       sodipodi:nodetypes="ccccccccccc" /><g
       id="g3753"
       transform="translate(2.4e-6,0)"><path
         style="opacity:1;fill:#000000;fill-opacity:1;filter:url(#filter4209)"
         id="path3757"
         d="M 112.88335,83.530068 L 77.974748,81.722749 L 75.974748,83.722749 L 77.974748,118.43867 L 112.88335,83.530068 z"
         sodipodi:nodetypes="ccccc" /><path
         style="fill:url(#linearGradient3942)"
         id="path3761"
         d="M 77.974748,118.43867 L 112.88335,83.530068 L 77.974748,83.530068 L 77.974748,118.43867 z"
         sodipodi:nodetypes="cccc" /></g><path
       style="fill:none;fill-rule:evenodd;stroke:#000000;stroke-width:1px;stroke-linecap:butt;stroke-linejoin:miter;stroke-opacity:1"
       d="M 100,32 L 100,32 z"
       id="path3763" /></g></g><path
   id="path5129"
   d="M 35.5414,31.987072 L 35.5414,31.987072 z"
   style="fill:none;fill-rule:evenodd;stroke:#000000;stroke-width:0.96592176px;stroke-linecap:butt;stroke-linejoin:miter;stroke-opacity:1" /><path
   style="fill:none;fill-rule:evenodd;stroke:#000000;stroke-width:1px;stroke-linecap:butt;stroke-linejoin:miter;stroke-opacity:1"
   d="M 63.65722,20.000005 L 63.65722,20.000005 z"
   id="path5131" /><path
   id="path2602"
   d="M 39.27101,31.987067 L 39.27101,31.987067 z"
   style="fill:none;fill-rule:evenodd;stroke:#000000;stroke-width:0.96592176px;stroke-linecap:butt;stroke-linejoin:miter;stroke-opacity:1" />

<path
   style="fill:none;fill-rule:evenodd;stroke:#000000;stroke-width:1px;stroke-linecap:butt;stroke-linejoin:miter;stroke-opacity:1"
   d="M 63.65722,20 L 63.65722,20 z"
   id="path3341" /><path
   style="opacity:0.90526321;fill:none;fill-opacity:1;fill-rule:evenodd;stroke:#638000;stroke-width:0.9659996;stroke-linecap:butt;stroke-linejoin:round;stroke-miterlimit:4;stroke-dasharray:none;stroke-opacity:1;filter:url(#filter3533)"
   d="M 87.875,12 C 87.009497,12.026935 86.176101,12.333976 85.5,12.875 L 25.5,60.875 C 24.550144,61.634129 24,62.784063 24,64 C 24,65.215937 24.550144,66.365871 25.5,67.125 L 85.5,115.125 C 86.700963,116.08613 88.332437,116.26025 89.71875,115.59375 C 91.105067,114.92725 92.000642,113.53821 92,112 L 92,88.3125 L 92,78.0625 L 90.5,76.875 C 89.299037,75.91387 87.667563,75.739753 86.28125,76.40625 C 84.894933,77.072748 83.999358,78.461793 84,80 L 84,103.6875 L 34.40625,64 L 84,24.3125 L 84,48 C 83.999358,49.538207 84.894936,50.927253 86.28125,51.59375 C 87.66756,52.260246 89.299037,52.08613 90.5,51.125 L 92,49.9375 L 92,39.6875 L 92,16 C 92.000417,14.917152 91.558627,13.878821 90.78125,13.125 C 90.003873,12.37118 88.957323,11.966273 87.875,12 z"
   id="path3519"
   transform="matrix(0.5266666,0,0,0.5086866,21.09722,19.451617)" /><path
   style="fill:url(#linearGradient4340);fill-opacity:1;fill-rule:evenodd;stroke:none;stroke-width:8;stroke-linecap:butt;stroke-linejoin:round;stroke-miterlimit:4;stroke-dasharray:none;stroke-opacity:1"
   d="M 90.71972,24 C 91.35681,23.981834 91.98088,24.187735 92.43847,24.59375 C 92.89606,24.999765 93.15747,25.573018 93.15722,26.15625 L 93.15722,38.90625 L 93.15722,41.78125 L 93.15722,44.4375 L 93.15722,59.59375 L 93.15722,62.71875 L 93.15722,65.09375 L 93.15722,77.875 C 93.1576,78.70349 92.6295,79.422266 91.81347,79.78125 C 90.99745,80.14023 90.05164,80.048923 89.34472,79.53125 L 69.55722,64.78125 L 69.55722,65.09375 L 69.55722,77.875 C 69.5576,78.70349 69.02949,79.422266 68.21347,79.78125 C 67.39744,80.14023 66.45164,80.048923 65.74472,79.53125 L 30.40097,53.6875 C 29.84185,53.278626 29.52597,52.654915 29.52597,52 C 29.52597,51.345084 29.84185,50.721375 30.40097,50.3125 L 65.74472,24.46875 C 66.14269,24.177349 66.61026,24.014508 67.11972,24 C 67.7568,23.981834 68.38089,24.187735 68.83847,24.59375 C 69.29605,24.999765 69.55747,25.573018 69.55722,26.15625 L 69.55722,38.90625 L 69.55722,39.21875 L 89.34472,24.46875 C 89.74269,24.177349 90.21026,24.014508 90.71972,24 z M 25.86332,23.256282 C 27.66382,23.256282 29.51332,24.705782 29.51332,26.506282 L 29.51332,78.0625 C 29.51332,79.863 27.66382,81.4375 25.86332,81.4375 L 14.85,81.4552 C 13.0495,81.4552 11.6,80.0057 11.6,78.2052 L 11.61345,26.5242 C 11.61345,24.7237 13.06295,23.2742 14.86345,23.2742 L 25.86332,23.256282 z M 64.83847,73.375 L 64.83847,63.25 L 56.02597,63.25 L 64.83847,73.375 z"
   id="path3302"
   sodipodi:nodetypes="csccccccccsccccsccsccsscccccccccccccccccc" /><path
   style="opacity:0.85;fill:url(#radialGradient4295);fill-opacity:1;fill-rule:evenodd;stroke:none;stroke-width:8;stroke-linecap:butt;stroke-linejoin:round;stroke-miterlimit:4;stroke-dasharray:none;stroke-opacity:1;filter:url(#filter3681)"
   d="M 82.178797,12 C 81.379756,12.024867 80.605851,12.283948 79.960047,12.75 L 79.101267,22.272712 L 86.272547,15.625 C 86.184755,14.678789 85.773054,13.792159 85.085047,13.125 C 84.30767,12.37118 83.26112,11.966273 82.178797,12 z"
   id="path3651"
   transform="matrix(0.5266666,0,0,0.5086866,22.99722,18.451617)"
   sodipodi:nodetypes="ccccsc" /><path
   id="path3685"
   d="M 68.077531,13.965847 C 67.27849,13.990714 66.504585,14.249795 65.858781,14.715847 L 64.810127,24.975751 L 72.171281,17.590847 C 72.083489,16.644636 71.671788,15.758006 70.983781,15.090847 C 70.206404,14.337027 69.159854,13.93212 68.077531,13.965847 z"
   style="opacity:0.35;fill:url(#radialGradient4297);fill-opacity:1;fill-rule:evenodd;stroke:none;stroke-width:8;stroke-linecap:butt;stroke-linejoin:round;stroke-miterlimit:4;stroke-dasharray:none;stroke-opacity:1;filter:url(#filter3681)"
   transform="matrix(0.5266666,0,0,-0.5086866,31.52389,86.451238)"
   sodipodi:nodetypes="ccccsc" /><path
   style="fill:url(#linearGradient4335);fill-opacity:1;fill-rule:evenodd;stroke:none;stroke-width:1px;stroke-linecap:butt;stroke-linejoin:miter;stroke-opacity:1"
   d="M 87.55195,29.860693 L 87.55195,74.139307 L 65.1743,57.315935 L 65.1743,74.139307 L 35.71623,52 L 65.1743,29.860693 L 65.1743,46.684065 L 87.55195,29.860693 z"
   id="path2323" /><path
   style="opacity:0.5;fill:url(#radialGradient4301);fill-opacity:1;fill-rule:evenodd;stroke:none;stroke-width:8;stroke-linecap:butt;stroke-linejoin:round;stroke-miterlimit:4;stroke-dasharray:none;stroke-opacity:1;filter:url(#filter3722)"
   d="M 11.6875,59.125 L 9.5,60.875 C 8.5501441,61.634129 8,62.784063 8,64 C 8.0000001,65.215937 8.5501441,66.365871 9.5,67.125 L 13.03125,69.9375 L 15.15625,64.3125 L 11.6875,59.125 z"
   id="path3705"
   transform="matrix(0.6728516,0,0,-0.6974471,27.06747,97.03061)" /><path
   style="fill:url(#radialGradient4331);fill-opacity:1;fill-rule:evenodd;stroke:none;stroke-width:1px;stroke-linecap:butt;stroke-linejoin:miter;stroke-opacity:1"
   d="M 87.55195,29.860693 L 87.55195,44.620231 L 87.55195,59.379769 L 87.55195,74.139307 L 65.1743,57.315935 L 65.1743,59.379769 L 65.1743,74.139307 L 36.64864,52 L 65.1743,29.860693 L 65.1743,44.620231 L 65.1743,46.684065 L 87.55195,29.860693 z"
   id="path3320"
   sodipodi:nodetypes="cccccccccccc" /><path
   style="fill:none;fill-opacity:1;fill-rule:evenodd;stroke:url(#linearGradient4328);stroke-width:0.5px;stroke-linecap:butt;stroke-linejoin:miter;stroke-opacity:1;filter:url(#filter3396)"
   d="M 48.218745,29.875 L 48.218745,44.625 L 48.218745,59.375 L 48.218745,74.125 L 72.218745,57.3125 L 72.218745,59.375 L 72.218745,74.125 L 102.81249,52 L 72.218745,29.875 L 72.218745,44.625 L 72.218745,46.6875 L 48.218745,29.875 z"
   id="path3895"
   sodipodi:nodetypes="cccccccccccc"
   transform="matrix(-0.932402,0,0,1.0006466,132.5112,-3.3625565e-2)" /><path
   style="fill:url(#linearGradient4325);fill-opacity:1;fill-rule:evenodd;stroke:none;stroke-width:1px;stroke-linecap:butt;stroke-linejoin:miter;stroke-opacity:1"
   d="M 87.55195,29.860693 L 87.55195,44.620231 L 87.55195,49.967437 C 82.11149,51.645152 75.43709,52.625403 68.20461,52.625404 C 64.703165,52.625404 61.319451,52.398426 58.152151,51.96873 L 58.793177,51.499677 C 54.805358,52.225889 50.437992,52.625403 45.826962,52.625404 C 42.325518,52.625404 38.9418,52.398426 35.77451,51.96873 L 65.1743,29.860693 L 65.1743,44.620231 L 65.1743,46.684065 L 87.55195,29.860693 z"
   id="path3897" /><path
   style="fill:url(#linearGradient4322);fill-opacity:1;fill-rule:evenodd;stroke:none;stroke-width:1px;stroke-linecap:butt;stroke-linejoin:miter;stroke-opacity:1"
   d="M 65.1743,29.860693 L 65.1743,44.620231 L 65.1743,46.684065 L 64.766377,46.996767 L 64.766377,44.43261 L 64.766377,30.173395 L 65.1743,29.860693 z M 59.434203,50.999353 L 58.793177,51.499677 C 54.805358,52.225889 50.437992,52.625403 45.826962,52.625404 C 42.325518,52.625404 38.9418,52.398426 35.77451,51.96873 L 36.12416,51.718568 C 39.1456,52.112685 42.356567,52.312703 45.681274,52.312702 C 50.607797,52.312702 55.249265,51.830616 59.434203,50.999353 z"
   id="path3910" /><path
   style="fill:url(#linearGradient4319);fill-opacity:1;fill-rule:evenodd;stroke:none;stroke-width:1px;stroke-linecap:butt;stroke-linejoin:miter;stroke-opacity:1"
   d="M 65.1743,29.860693 L 65.1743,44.620231 L 65.1743,46.684065 L 64.73724,47.028037 L 64.73724,44.870393 L 64.73724,30.517367 L 36.21157,51.96873 C 37.74862,52.177256 39.33486,52.360287 40.960994,52.469053 C 39.18465,52.35709 37.44878,52.195874 35.77451,51.96873 L 65.1743,29.860693 z"
   id="path3919" /><g
   transform="matrix(-0.5,0,0,0.5,111.63055,19.99895)"
   inkscape:label="Layer 1"
   id="g2845"><g
     id="g2847"
     transform="matrix(-1,0,0,1,127.97333,1.7146484e-2)"><path
       transform="matrix(1.0533333,0,0,1.0173732,-5.8933333,-2.7118124)"
       id="path2853"
       d="M 87.875,12 C 87.075959,12.024867 86.302054,12.283948 85.65625,12.75 L 85.367091,22.026981 L 91.96875,15.625 C 91.880958,14.678789 91.469257,13.792159 90.78125,13.125 C 90.003873,12.37118 88.957323,11.966273 87.875,12 z"
       style="opacity:0.85;fill:url(#radialGradient2877);fill-opacity:1;fill-rule:evenodd;stroke:none;stroke-width:8;stroke-linecap:butt;stroke-linejoin:round;stroke-miterlimit:4;stroke-dasharray:none;stroke-opacity:1;filter:url(#filter3681)"
       sodipodi:nodetypes="ccccsc" /><path
       transform="matrix(1.0533333,0,0,-1.0173732,14.56,131.28743)"
       style="opacity:0.35;fill:url(#radialGradient2881);fill-opacity:1;fill-rule:evenodd;stroke:none;stroke-width:8;stroke-linecap:butt;stroke-linejoin:round;stroke-miterlimit:4;stroke-dasharray:none;stroke-opacity:1;filter:url(#filter3681)"
       d="M 68.077532,12 C 67.278491,12.024867 66.504586,12.283948 65.858782,12.75 L 65.949369,22.026981 L 72.171282,15.625 C 72.08349,14.678789 71.671789,13.792159 70.983782,13.125 C 70.206405,12.37118 69.159855,11.966273 68.077532,12 z"
       id="path2857"
       sodipodi:nodetypes="ccccsc" /><path
       id="path2871"
       d="M 79.6,19.744339 L 78.71125,20.37821 L 78.71125,48.84479 L 78.71125,59.361289 C 67.203203,62.668078 53.061565,64.605133 37.762917,64.605133 C 30.631436,64.605133 23.769756,64.182739 17.28875,63.395014 L 16.531667,63.913636 C 23.325523,64.772472 30.548578,65.239004 38.059167,65.239003 C 53.572821,65.239003 67.930219,63.261985 79.6,59.908723 L 79.6,49.248162 L 79.6,19.744339 z"
       style="fill:url(#linearGradient2895);fill-opacity:1;fill-rule:evenodd;stroke:none;stroke-width:1px;stroke-linecap:butt;stroke-linejoin:miter;stroke-opacity:1"
       sodipodi:nodetypes="ccccsccsccc" /><path
       id="path2873"
       d="M 80,19.744339 L 20.931667,63.913636 C 24.522981,64.367627 28.247249,64.698286 32.0575,64.922068 C 28.569447,64.704673 24.35029,64.35923 21.053333,63.942448 L 35.066848,54.007749 C 35.113382,54.245556 35.253667,54.316658 35.331451,54.271894 L 79.078333,21.069705 L 79.078333,49.709159 L 79.078333,60.052784 C 74.830956,61.273251 70.221812,62.321664 65.319167,63.135704 C 70.550964,62.285094 75.484328,61.206282 80,59.908723 L 80,49.248162 L 80,19.744339 z M 32.0575,64.922068 C 33.802503,65.024555 35.572559,65.101717 37.357083,65.152566 C 35.571728,65.097092 33.801526,65.030765 32.0575,64.922068 z"
       style="fill:url(#linearGradient2897);fill-opacity:1;fill-rule:evenodd;stroke:none;stroke-width:1px;stroke-linecap:butt;stroke-linejoin:miter;stroke-opacity:1"
       sodipodi:nodetypes="ccccccccccccccsc" /></g></g><rect
   style="opacity:1;fill:url(#radialGradient4467);fill-opacity:1;fill-rule:nonzero;stroke:none;stroke-width:3.5;stroke-linecap:round;stroke-linejoin:round;stroke-miterlimit:4;stroke-dasharray:none;stroke-dashoffset:0;stroke-opacity:1"
   id="rect4458"
   width="5.8181005"
   height="46.5448"
   x="-23.295221"
   y="29.0923"
   rx="0"
   ry="0"
   transform="scale(-1,1)" /><path
   style="opacity:1;fill:url(#linearGradient4480);fill-opacity:1;fill-rule:nonzero;stroke:none;stroke-width:3.5;stroke-linecap:round;stroke-linejoin:round;stroke-miterlimit:4;stroke-dasharray:none;stroke-dashoffset:0;stroke-opacity:1"
   d="M 23.29522,29.0923 L 23.25722,52.475 C 21.86315,52.320706 18.73698,52.191969 17.45722,51.7375 L 17.47712,29.0923 L 23.29522,29.0923 z"
   id="path4469"
   sodipodi:nodetypes="ccccc" /><path
   style="opacity:1;fill:url(#linearGradient4491);fill-opacity:1;fill-rule:nonzero;stroke:none;stroke-width:3.5;stroke-linecap:round;stroke-linejoin:round;stroke-miterlimit:4;stroke-dasharray:none;stroke-dashoffset:0;stroke-opacity:1"
   d="M 17.57087,29.0923 L 17.55097,51.5375 C 18.8023,51.981872 21.89706,52.116578 23.25722,52.275 L 23.25722,52.475 C 21.86315,52.320706 18.73698,52.191969 17.45722,51.7375 L 17.47712,29.0923 L 17.57087,29.0923 z"
   id="path4482"
   sodipodi:nodetypes="ccccccc" /><rect
   ry="0"
   rx="0"
   y="29.0923"
   x="116.362"
   height="46.5448"
   width="5.8181005"
   id="rect4493"
   style="opacity:1;fill:none;fill-opacity:1;fill-rule:nonzero;stroke:url(#linearGradient4501);stroke-width:0.2;stroke-linecap:round;stroke-linejoin:round;stroke-miterlimit:4;stroke-dasharray:none;stroke-dashoffset:0;stroke-opacity:1;filter:url(#filter4535)"
   transform="matrix(-1,0,0,1,139.65722,0)" /><rect
   style="opacity:1;fill:none;fill-opacity:1;fill-rule:nonzero;stroke:url(#linearGradient6117);stroke-width:0.2;stroke-linecap:round;stroke-linejoin:round;stroke-miterlimit:4;stroke-dasharray:none;stroke-dashoffset:0;stroke-opacity:1;filter:url(#filter4549)"
   id="rect4539"
   width="5.8181005"
   height="46.5448"
   x="116.362"
   y="29.0923"
   rx="0"
   ry="0"
   transform="matrix(-1,0,0,1,139.65722,0)" /><path
   style="opacity:1;fill:url(#linearGradient4574);fill-opacity:1;fill-rule:nonzero;stroke:none;stroke-width:0.2;stroke-linecap:round;stroke-linejoin:round;stroke-miterlimit:4;stroke-dasharray:none;stroke-dashoffset:0;stroke-opacity:1;filter:url(#filter4549)"
   d="M 116.362,29.0923 L 116.4,52.798059 L 116.4,52.70967 L 116.5495,29.2798 L 122.1801,29.2798 L 122.1801,29.0923 L 116.362,29.0923 z"
   id="rect4557"
   sodipodi:nodetypes="ccccccc"
   transform="matrix(-1,0,0,1,139.65722,0)" /><path
   style="opacity:0.81531528;fill:url(#radialGradient4584);fill-opacity:1;fill-rule:evenodd;stroke:none;stroke-width:1px;stroke-linecap:butt;stroke-linejoin:miter;stroke-opacity:1;filter:url(#filter4666)"
   d="M 114.5439,27.690641 L 114.5439,23.690641 C 111.58074,24.00533 110.69378,25.61765 110.5439,27.690641 L 114.5439,27.690641 z"
   id="path4576"
   sodipodi:nodetypes="cccc"
   transform="matrix(-1,0,0,1,139.65722,0)" /><path
   sodipodi:nodetypes="cccc"
   id="path4670"
   d="M 15.65902,27.558058 L 15.65902,23.558058 C 12.69586,23.872747 11.8089,25.485067 11.65902,27.558058 L 15.65902,27.558058 z"
   style="opacity:0.81531528;fill:url(#radialGradient4672);fill-opacity:1;fill-rule:evenodd;stroke:none;stroke-width:1px;stroke-linecap:butt;stroke-linejoin:miter;stroke-opacity:1;filter:url(#filter4666)" /><path
   sodipodi:nodetypes="cccc"
   id="path4674"
   d="M 116,28 L 116,24 C 113.03684,24.314689 112.14988,25.927009 112,28 L 116,28 z"
   style="opacity:0.36936939;fill:url(#radialGradient4678);fill-opacity:1;fill-rule:evenodd;stroke:none;stroke-width:1px;stroke-linecap:butt;stroke-linejoin:miter;stroke-opacity:1;filter:url(#filter4666)"
   transform="matrix(-1,0,0,-1,140.65722,105.2)" /><path
   transform="matrix(1,0,0,-1,-100.34278,105.2)"
   style="opacity:0.36936939;fill:url(#radialGradient4680);fill-opacity:1;fill-rule:evenodd;stroke:none;stroke-width:1px;stroke-linecap:butt;stroke-linejoin:miter;stroke-opacity:1;filter:url(#filter4666)"
   d="M 116,28 L 116,24 C 113.03684,24.314689 112.14988,25.927009 112,28 L 116,28 z"
   id="path4676"
   sodipodi:nodetypes="cccc" /><path
   id="path6299"
   d="M 265.79375,5.893072 L 265.79375,5.893072 z"
   style="fill:none;fill-rule:evenodd;stroke:#000000;stroke-width:1px;stroke-linecap:butt;stroke-linejoin:miter;stroke-opacity:1" /><path
   style="fill:none;fill-rule:evenodd;stroke:#000000;stroke-width:1px;stroke-linecap:butt;stroke-linejoin:miter;stroke-opacity:1"
   d="M 237.79375,-6.106928 L 237.79375,-6.106928 z"
   id="path6301" /></svg>