<?xml version="1.0" encoding="UTF-8" standalone="no"?>
<!-- Created with Inkscape (http://www.inkscape.org/) -->

<svg
   xmlns:dc="http://purl.org/dc/elements/1.1/"
   xmlns:cc="http://creativecommons.org/ns#"
   xmlns:rdf="http://www.w3.org/1999/02/22-rdf-syntax-ns#"
   xmlns:svg="http://www.w3.org/2000/svg"
   xmlns="http://www.w3.org/2000/svg"
   xmlns:xlink="http://www.w3.org/1999/xlink"
   xmlns:sodipodi="http://sodipodi.sourceforge.net/DTD/sodipodi-0.dtd"
   xmlns:inkscape="http://www.inkscape.org/namespaces/inkscape"
   width="128"
   height="128"
   id="svg2"
   sodipodi:version="0.32"
   inkscape:version="0.46+devel"
   version="1.0"
   sodipodi:docname="go-previous-context.svgz"
   inkscape:output_extension="org.inkscape.output.svgz.inkscape"
   inkscape:export-filename="/home/pinheiro/pics/oxygen-icons/scalable/actions/small/16x16/context.png"
   inkscape:export-xdpi="90"
   inkscape:export-ydpi="90">
  <defs
     id="defs4">
    <linearGradient
       inkscape:collect="always"
       id="linearGradient3609">
      <stop
         style="stop-color:#000000;stop-opacity:1;"
         offset="0"
         id="stop3611" />
      <stop
         style="stop-color:#000000;stop-opacity:0;"
         offset="1"
         id="stop3613" />
    </linearGradient>
    <inkscape:perspective
       sodipodi:type="inkscape:persp3d"
       inkscape:vp_x="0 : 64 : 1"
       inkscape:vp_y="0 : 1000 : 0"
       inkscape:vp_z="128 : 64 : 1"
       inkscape:persp3d-origin="64 : 42.666667 : 1"
       id="perspective46" />
    <linearGradient
       inkscape:collect="always"
       id="linearGradient5440">
      <stop
         style="stop-color:#ffffff;stop-opacity:1;"
         offset="0"
         id="stop5442" />
      <stop
         style="stop-color:#ffffff;stop-opacity:0;"
         offset="1"
         id="stop5444" />
    </linearGradient>
    <linearGradient
       id="linearGradient5342">
      <stop
         style="stop-color:#232221;stop-opacity:1;"
         offset="0"
         id="stop5344" />
      <stop
         id="stop5394"
         offset="0.10646833"
         style="stop-color:#555350;stop-opacity:1;" />
      <stop
         style="stop-color:#918d88;stop-opacity:1;"
         offset="1"
         id="stop5346" />
    </linearGradient>
    <linearGradient
       id="linearGradient3857"
       inkscape:collect="always">
      <stop
         id="stop3859"
         offset="0"
         style="stop-color:#ffffff;stop-opacity:1;" />
      <stop
         id="stop3861"
         offset="1"
         style="stop-color:#ffffff;stop-opacity:0" />
    </linearGradient>
    <linearGradient
       inkscape:collect="always"
       xlink:href="#linearGradient5440"
       id="linearGradient5451"
       gradientUnits="userSpaceOnUse"
       x1="71.937897"
       y1="67.044838"
       x2="71.937897"
       y2="224.0218"
       gradientTransform="matrix(0.7272625,0,0,0.7272625,23.476968,5.819899)" />
    <linearGradient
       inkscape:collect="always"
       xlink:href="#linearGradient5342"
       id="linearGradient2988"
       gradientUnits="userSpaceOnUse"
       gradientTransform="matrix(0.82532899,0,0,-0.82532899,27.563153,11.178945)"
       x1="80.151077"
       y1="-120.00011"
       x2="80.151077"
       y2="-15.919633" />
    <radialGradient
       inkscape:collect="always"
       xlink:href="#linearGradient3857"
       id="radialGradient3768"
       cx="72"
       cy="119.96851"
       fx="72"
       fy="119.96851"
       r="55.96851"
       gradientTransform="matrix(1,0,0,0.85762511,0,9.1119933)"
       gradientUnits="userSpaceOnUse" />
    <linearGradient
       inkscape:collect="always"
       xlink:href="#linearGradient3857"
       id="linearGradient3779"
       x1="120"
       y1="-57.246754"
       x2="120"
       y2="122.20984"
       gradientUnits="userSpaceOnUse"
       gradientTransform="matrix(0.97676019,0,0,0.97015082,-0.81192039,1.9336867)" />
    <radialGradient
       inkscape:collect="always"
       xlink:href="#linearGradient3857"
       id="radialGradient3789"
       cx="116.84712"
       cy="19.013723"
       fx="116.84712"
       fy="19.013723"
       r="7.2363849"
       gradientTransform="matrix(0.76634635,0.64242764,-0.99999902,1.1928901,44.015462,-78.733381)"
       gradientUnits="userSpaceOnUse" />
    <filter
       inkscape:collect="always"
       id="filter3791">
      <feGaussianBlur
         inkscape:collect="always"
         stdDeviation="0.20159556"
         id="feGaussianBlur3793" />
    </filter>
    <radialGradient
       inkscape:collect="always"
       xlink:href="#linearGradient3857"
       id="radialGradient3797"
       gradientUnits="userSpaceOnUse"
       gradientTransform="matrix(0.76634635,0.64242764,-0.99999902,1.1928901,46.315462,-78.733381)"
       cx="116.84712"
       cy="19.013723"
       fx="116.84712"
       fy="19.013723"
       r="7.2363849" />
    <linearGradient
       inkscape:collect="always"
       xlink:href="#linearGradient3857"
       id="linearGradient3808"
       gradientUnits="userSpaceOnUse"
       gradientTransform="matrix(0.97676019,0,0,0.97676019,-0.836541,1.5119715)"
       x1="119.98701"
       y1="45.322445"
       x2="-57.03896"
       y2="-55.66029" />
    <radialGradient
       inkscape:collect="always"
       xlink:href="#linearGradient3857"
       id="radialGradient3818"
       cx="37.859638"
       cy="16.90958"
       fx="37.859638"
       fy="16.90958"
       r="4.7018008"
       gradientTransform="matrix(0.83791103,-0.48376816,0.9090742,1.5745628,-10.825609,8.6100438)"
       gradientUnits="userSpaceOnUse" />
    <filter
       inkscape:collect="always"
       id="filter3820">
      <feGaussianBlur
         inkscape:collect="always"
         stdDeviation="0.2741905"
         id="feGaussianBlur3822" />
    </filter>
    <radialGradient
       inkscape:collect="always"
       xlink:href="#linearGradient3857"
       id="radialGradient3826"
       gradientUnits="userSpaceOnUse"
       gradientTransform="matrix(0.97236837,-0.56139711,1.2749973,2.2083604,-19.803722,0.83179405)"
       cx="37.859638"
       cy="16.90958"
       fx="37.859638"
       fy="16.90958"
       r="4.7018008" />
    <linearGradient
       inkscape:collect="always"
       xlink:href="#linearGradient5342"
       id="linearGradient3832"
       gradientUnits="userSpaceOnUse"
       gradientTransform="matrix(0.82532899,0,0,-0.82532899,27.563153,11.178945)"
       x1="80.151077"
       y1="-120.00011"
       x2="80.151077"
       y2="-15.919633" />
    <linearGradient
       inkscape:collect="always"
       xlink:href="#linearGradient5342"
       id="linearGradient2834"
       gradientUnits="userSpaceOnUse"
       gradientTransform="matrix(0.82857559,0,0,-0.83108888,25.363897,10.811215)"
       x1="80.151077"
       y1="-120.00011"
       x2="80.151077"
       y2="-15.919633" />
    <linearGradient
       inkscape:collect="always"
       xlink:href="#linearGradient3609"
       id="linearGradient3615"
       x1="-10.119413"
       y1="113.45454"
       x2="70.943581"
       y2="66.652794"
       gradientUnits="userSpaceOnUse" />
  </defs>
  <sodipodi:namedview
     id="base"
     pagecolor="#ffffff"
     bordercolor="#666666"
     borderopacity="1.0"
     gridtolerance="10000"
     guidetolerance="10"
     objecttolerance="10"
     inkscape:pageopacity="0.0"
     inkscape:pageshadow="2"
     inkscape:zoom="2.40625"
     inkscape:cx="167.67504"
     inkscape:cy="48.088716"
     inkscape:document-units="px"
     inkscape:current-layer="layer1"
     width="128px"
     height="128px"
     showgrid="true"
     inkscape:window-width="1040"
     inkscape:window-height="728"
     inkscape:window-x="830"
     inkscape:window-y="283"
     showguides="true"
     inkscape:guide-bbox="true"
     inkscape:snap-bbox="true"
     inkscape:snap-nodes="false">
    <inkscape:grid
       id="GridFromPre046Settings"
       type="xygrid"
       originx="0px"
       originy="0px"
       spacingx="5.8181px"
       spacingy="5.8181px"
       color="#0000ff"
       empcolor="#0000ff"
       opacity="0.2"
       empopacity="0.4"
       empspacing="2"
       visible="true"
       enabled="true" />
  </sodipodi:namedview>
  <metadata
     id="metadata7">
    <rdf:RDF>
      <cc:Work
         rdf:about="">
        <dc:format>image/svg+xml</dc:format>
        <dc:type
           rdf:resource="http://purl.org/dc/dcmitype/StillImage" />
        <dc:title></dc:title>
      </cc:Work>
    </rdf:RDF>
  </metadata>
  <g
     inkscape:label="Layer 1"
     inkscape:groupmode="layer"
     id="layer1">
    <path
       d="m 43.25,12 c -3.229493,0 -6.134282,0.827305 -8.125,2.59375 -1.990718,1.766445 -2.88765,3.640205 -4.3125,5.8125 L 5.78125,58.59375 5.75,58.625 C 3.7207351,61.707562 3.7091082,66.120192 5.71875,69.3125 A 3.9894433,3.9894433 0 0 0 5.75,69.375 l 25.0625,38.21875 c 1.424853,2.1723 2.321782,4.04605 4.3125,5.8125 C 37.115718,115.1727 40.020509,116 43.25,116 l 66.84375,0 C 117.72259,116 124,109.72258 124,102.09375 l 0,-76.1875 C 124,18.277417 117.72259,12 110.09375,12 L 43.25,12 z"
       id="path2990"
       style="fill:url(#linearGradient2988);fill-opacity:1;stroke:none"
       inkscape:original="M 43.25 16 C 37.763213 16 37.16555 18.005838 34.15625 22.59375 L 9.09375 60.8125 C 7.7337308 62.856649 7.7051191 64.981665 9.09375 67.1875 L 34.15625 105.40625 C 37.165554 109.99417 37.763213 112 43.25 112 L 110.09375 112 C 115.58054 112 120 107.58053 120 102.09375 L 120 25.90625 C 120 20.419463 115.58054 16 110.09375 16 L 43.25 16 z "
       inkscape:radius="3.9890444"
       sodipodi:type="inkscape:offset"
       transform="matrix(1.0039337,0,0,1.0069789,-2.3076807,-0.44574652)" />
    <path
       style="font-size:113.80991364000000488px;fill:url(#linearGradient5451);fill-opacity:1"
       d="m 58.38557,23.2742 c -6.584227,0.03239 -11.732581,0.881976 -13.999804,2.818142 -2.285138,1.948082 -3.409066,5.875167 -3.409042,11.77256 l 0,9.590775 c -2.4e-5,3.976144 -0.667356,6.906712 -2.136334,8.454426 -1.441818,1.521093 -3.155241,2.272725 -7.045356,2.272696 l -2.499964,0 0,5.818101 2.499964,0 c 3.86291,2.3e-5 5.576335,0.679515 7.045356,2.227241 1.468978,1.547764 2.13631,4.197693 2.136334,8.227158 l 0,3.749946 c -2.4e-5,5.897445 1.123904,15.638667 3.409042,17.613388 2.267223,1.936205 7.415577,3.048365 13.999804,3.090867 l 0,-5.8181 C 54.610579,93.075608 49.973102,92.41047 48.817521,91.250516 47.64773,90.076359 47.067515,81.786052 47.067545,78.023429 l 0,-4.09085 c -3e-5,-4.162891 -0.548564,-7.059746 -1.7727,-8.95442 -1.224195,-1.894635 -2.298519,-3.165784 -5.318108,-3.88631 2.992385,-0.667108 4.04846,-1.968898 5.272653,-3.863583 1.251343,-1.894623 1.818125,-5.082972 1.818155,-9.272596 l 0,-9.931679 c -3e-5,-3.762575 0.580185,-6.23478 1.749976,-7.408986 1.155581,-1.159896 5.793058,-1.512027 9.568049,-1.522706 l 0,-5.818099 z m 23.2724,0 0,5.818099 c 3.77499,0.01052 8.412468,0.36281 9.568046,1.522706 1.169792,1.174206 1.750006,3.646411 1.749975,7.408986 l 0,9.931679 c 3.1e-5,4.189624 0.566816,7.377973 1.818159,9.272596 1.22419,1.894685 2.28027,3.196475 5.27265,3.863583 -3.01959,0.720526 -4.09391,1.991675 -5.31811,3.88631 -1.224132,1.894674 -1.772668,4.791529 -1.772699,8.95442 l 0,4.09085 c 3.1e-5,3.762623 -0.580183,12.05293 -1.749975,13.227087 -1.155578,1.159954 -5.793056,1.825103 -9.568046,1.840884 l 0,5.8181 c 6.584227,-0.0425 11.732578,-1.154662 13.9998,-3.090867 2.28514,-1.974721 3.40907,-11.715943 3.40905,-17.613388 l 0,-3.749946 c 2e-5,-4.029465 0.66735,-6.679394 2.13633,-8.227158 1.46902,-1.547726 3.18244,-2.227218 7.04536,-2.227241 l 2.49996,0 0,-5.818101 -2.49996,0 c -3.89012,2.9e-5 -5.60354,-0.751603 -7.04536,-2.272696 -1.46898,-1.547714 -2.13631,-4.478282 -2.13633,-8.454426 l 0,-9.590775 c 2e-5,-5.897393 -1.12391,-9.824478 -3.40905,-11.77256 -2.267222,-1.936166 -7.415573,-2.785758 -13.9998,-2.818142 z"
       id="path3006"
       sodipodi:nodetypes="csccsccccscccccsccsccccsccccsccccsccscccccsccccsccsc" />
    <path
       style="fill:url(#linearGradient3779);fill-opacity:1;stroke:none"
       d="m 41.432958,17.4561 c -5.359275,0 -5.943049,1.945966 -8.882413,6.396931 L 8.0704926,60.930984 c -1.3284126,1.983132 -1.3563594,4.044718 0,6.184711 l 0.2136663,0.333489 c 11.4050321,2.77685 24.2296521,4.335362 37.7884101,4.335362 29.078882,0 54.772281,-7.184626 70.326731,-18.160011 l 0,-26.557879 c 0,-5.323011 -4.31675,-9.610556 -9.67603,-9.610556 l -65.290312,0 z"
       id="path2992" />
    <path
       sodipodi:type="inkscape:offset"
       inkscape:radius="0"
       inkscape:original="M 43.25 16 C 37.763213 16 37.16555 18.005838 34.15625 22.59375 L 9.09375 60.8125 C 7.7337308 62.856649 7.7051191 64.981665 9.09375 67.1875 L 34.15625 105.40625 C 37.165554 109.99417 37.763213 112 43.25 112 L 110.09375 112 C 115.58054 112 120 107.58053 120 102.09375 L 120 25.90625 C 120 20.419463 115.58054 16 110.09375 16 L 43.25 16 z "
       style="opacity:0.4;fill:url(#radialGradient3768);fill-opacity:1;stroke:none"
       id="path2986"
       d="m 43.25,16 c -5.486787,0 -6.08445,2.005838 -9.09375,6.59375 L 9.09375,60.8125 c -1.3600192,2.044149 -1.3886309,4.169165 0,6.375 l 25.0625,38.21875 C 37.165554,109.99417 37.763213,112 43.25,112 l 66.84375,0 C 115.58054,112 120,107.58053 120,102.09375 l 0,-76.1875 C 120,20.419463 115.58054,16 110.09375,16 L 43.25,16 z"
       transform="matrix(0.97708835,0,0,0.96834225,-0.81456631,2.0628287)" />
    <path
       style="fill:url(#radialGradient3789);fill-opacity:1;stroke-width:1px;filter:url(#filter3791)"
       d="m 107.31073,12.071221 -1.1265,5.093678 c 5.28541,0.306171 10.21665,3.353662 10.35866,9.991327 l 5.24061,-1.714259 c 0,-6.921709 -5.91869,-13.370746 -14.47274,-13.370746 l -3e-5,0 z"
       id="path3781"
       sodipodi:nodetypes="cccccc" />
    <path
       sodipodi:nodetypes="cccccc"
       id="path3795"
       d="m 109.61073,12.071221 -1.1265,5.093678 c 5.28541,0.306171 10.21665,3.353662 10.35866,9.991327 l 5.24061,-1.714259 c 0,-6.921709 -5.91869,-13.370746 -14.47274,-13.370746 l -3e-5,0 z"
       style="opacity:0.5120773;fill:url(#radialGradient3797);fill-opacity:1;stroke-width:1px;filter:url(#filter3791)"
       transform="matrix(1,0,0,-1,-2.3,128.02745)" />
    <path
       style="fill:url(#linearGradient3808);fill-opacity:1;stroke:none"
       d="m 113.30962,19.729104 c 1.66053,1.735805 2.68609,4.082584 2.68609,6.684703 l 0,26.73881 c -15.55445,11.050157 -41.247853,18.28373 -70.326736,18.28373 -13.51083,0 -26.291605,-1.557134 -37.6663139,-4.334373 0.00769,0.01235 0.022747,0.01817 0.030524,0.03052 l 0.2136663,0.335762 c 11.4050318,2.795768 24.2296518,4.364897 37.7884088,4.364897 29.078883,0 54.772281,-7.233573 70.326741,-18.28373 l 0,-26.73881 c 0,-2.801188 -1.16129,-5.317486 -3.05238,-7.081512 z"
       id="path3799" />
    <path
       sodipodi:nodetypes="ccccc"
       id="path3824"
       d="m 42.095812,12.07122 1.104061,5.367145 c -2.191572,0.09392 -4.350362,0.371405 -6.060916,3.159023 l -4.042686,-3.677435 c 1.954982,-2.701297 4.514218,-4.775098 8.999541,-4.848733 z"
       style="opacity:0.79227056;fill:url(#radialGradient3826);fill-opacity:1;stroke-width:1px;filter:url(#filter3820)"
       transform="matrix(1,0,0,-1,-2.3,128.06861)" />
    <path
       style="fill:url(#radialGradient3818);fill-opacity:1;stroke-width:1px;filter:url(#filter3820)"
       d="m 39.795812,12.07122 1.104061,5.367145 c -2.191572,0.09392 -4.350362,0.371405 -6.060916,3.159023 l -4.042686,-3.677435 c 1.954982,-2.701297 4.514218,-4.775098 8.999541,-4.848733 z"
       id="path3810"
       sodipodi:nodetypes="ccccc" />
    <path
       style="fill:url(#linearGradient3615);fill-opacity:1;stroke:none"
       d="M 41.125 11.625 C 37.882803 11.625 34.967299 12.471227 32.96875 14.25 C 30.970201 16.028773 30.055455 17.906295 28.625 20.09375 L 3.5 58.5625 L 3.46875 58.59375 C 1.4315026 61.697825 1.4199529 66.129163 3.4375 69.34375 A 4.0051366 4.0172852 0 0 0 3.46875 69.40625 L 28.625 107.90625 C 30.055458 110.09371 30.970201 111.97122 32.96875 113.75 C 34.967299 115.52878 37.882805 116.375 41.125 116.375 L 108.21875 116.375 C 115.8776 116.375 122.1875 110.05707 122.1875 102.375 L 122.1875 25.65625 C 122.1875 17.974176 115.8776 11.625 108.21875 11.625 L 41.125 11.625 z M 41.4375 17.5625 L 106.75 17.5625 C 112.11108 17.5625 116.4375 21.843162 116.4375 27.15625 L 116.4375 100.9375 C 116.4375 106.25058 112.11108 110.53125 106.75 110.53125 L 41.4375 110.53125 C 36.076424 110.53125 35.502856 108.56768 32.5625 104.125 L 8.0625 67.125 C 6.7056849 64.988997 6.7336411 62.916936 8.0625 60.9375 L 32.5625 23.9375 C 35.502852 19.494831 36.076424 17.5625 41.4375 17.5625 z "
       id="path2830" />
  </g>
</svg>
