<?xml version="1.0" encoding="UTF-8" standalone="no"?>
<!-- Created with Inkscape (http://www.inkscape.org/) -->

<svg
   xmlns:dc="http://purl.org/dc/elements/1.1/"
   xmlns:cc="http://creativecommons.org/ns#"
   xmlns:rdf="http://www.w3.org/1999/02/22-rdf-syntax-ns#"
   xmlns:svg="http://www.w3.org/2000/svg"
   xmlns="http://www.w3.org/2000/svg"
   xmlns:xlink="http://www.w3.org/1999/xlink"
   xmlns:sodipodi="http://sodipodi.sourceforge.net/DTD/sodipodi-0.dtd"
   xmlns:inkscape="http://www.inkscape.org/namespaces/inkscape"
   width="128"
   height="128"
   id="svg2"
   sodipodi:version="0.32"
   inkscape:version="0.48.1 r9760"
   version="1.0"
   sodipodi:docname="im-google-talk.svgz"
   inkscape:output_extension="org.inkscape.output.svgz.inkscape"
   inkscape:export-filename="/home/pinheiro/pics/oxygen-icons/scalable/actions/small/22x22/im-google-talk.png"
   inkscape:export-xdpi="61.875"
   inkscape:export-ydpi="61.875">
  <defs
     id="defs4">
    <linearGradient
       id="linearGradient2949">
      <stop
         id="stop2951-1"
         offset="0"
         style="stop-color:#cddff9;stop-opacity:1;" />
      <stop
         style="stop-color:#92aed7;stop-opacity:1;"
         offset="0.2265625"
         id="stop4314" />
      <stop
         style="stop-color:#587eb5;stop-opacity:1;"
         offset="0.5"
         id="stop2953-3" />
      <stop
         id="stop2955-80"
         offset="1"
         style="stop-color:#0c2a58;stop-opacity:1;" />
    </linearGradient>
    <linearGradient
       id="linearGradient33721-8">
      <stop
         style="stop-color:#eaf7cf;stop-opacity:1;"
         offset="0"
         id="stop33723-5" />
      <stop
         id="stop33725-0"
         offset="0.2265625"
         style="stop-color:#ced7a1;stop-opacity:1;" />
      <stop
         id="stop33727-9"
         offset="0.5"
         style="stop-color:#9eb267;stop-opacity:1;" />
      <stop
         style="stop-color:#3d5a11;stop-opacity:1;"
         offset="1"
         id="stop33729-9" />
    </linearGradient>
    <linearGradient
       id="linearGradient13201">
      <stop
         id="stop13203"
         offset="0"
         style="stop-color:#f9f8cd;stop-opacity:1;" />
      <stop
         style="stop-color:#e2df87;stop-opacity:1;"
         offset="0.2265625"
         id="stop13205" />
      <stop
         style="stop-color:#eeb81f;stop-opacity:1;"
         offset="0.6350528"
         id="stop13207" />
      <stop
         id="stop13209"
         offset="1"
         style="stop-color:#a96d00;stop-opacity:1" />
    </linearGradient>
    <linearGradient
       id="linearGradient13824">
      <stop
         id="stop13826"
         offset="0"
         style="stop-color:#ff5900;stop-opacity:1;" />
      <stop
         id="stop13828"
         offset="1"
         style="stop-color:#520000;stop-opacity:1" />
    </linearGradient>
    <filter
       inkscape:collect="always"
       id="filter4730"
       x="-0.13480032"
       width="1.2696006"
       y="-0.17241348"
       height="1.344827">
      <feGaussianBlur
         inkscape:collect="always"
         stdDeviation="4.6049844"
         id="feGaussianBlur4732" />
    </filter>
    <clipPath
       clipPathUnits="userSpaceOnUse"
       id="clipPath4736">
      <path
         sodipodi:nodetypes="cccccssccsscccccc"
         inkscape:connector-curvature="0"
         id="path4738"
         d="m 805.1875,-84.472187 0,45.5625 -17.0625,0 0,23.5 17.0625,0 0,72.59375 c 0,21.22731 10.64803,34.53125 32.03125,34.53125 6.75938,0 22.44311,-1.66301 31.59375,-11.03125 l -9.65625,-18.0625 c -3.73065,3.36716 -8.2995,6.07218 -14.25933,5.91883 -7.5524,-0.19433 -8.55317,-6.32319 -8.55317,-11.35633 l 0,-72.59375 28.1875,0 0,-23.5 -28.1875,0 0,-45.5625 z"
         style="fill:url(#radialGradient4740);fill-opacity:1;stroke:none" />
    </clipPath>
    <radialGradient
       inkscape:collect="always"
       xlink:href="#linearGradient2949"
       id="radialGradient4740"
       gradientUnits="userSpaceOnUse"
       gradientTransform="matrix(1,0,0,2.1835786,0,-4.2864045)"
       cx="818.49475"
       cy="5.9054346"
       fx="818.49475"
       fy="5.9054346"
       r="40.34375" />
    <filter
       inkscape:collect="always"
       id="filter4755"
       x="-0.11612181"
       width="1.2322436"
       y="-0.24003083"
       height="1.4800617">
      <feGaussianBlur
         inkscape:collect="always"
         stdDeviation="6.1726679"
         id="feGaussianBlur4757" />
    </filter>
    <clipPath
       clipPathUnits="userSpaceOnUse"
       id="clipPath4761">
      <path
         sodipodi:nodetypes="csccssscsssssssccsssccscssccccscsssc"
         inkscape:connector-curvature="0"
         id="path4763"
         d="m 932.96875,-41.878437 c -6.8021,0.17237 -15.22199,2.43627 -20.46875,4.59375 -9.75724,4.01219 -22.69919,13.34913 -30.625,20.125 l 12.9375,15.5625 c 7.25295,-5.87291 14.38225,-11.27428 22.03125,-14.6875 5.64009,-2.51679 14.20015,-3.47 19.40625,-0.875 3.35629,1.67295 5.34375,4.60371 5.34375,8.75 l 0,16.21875 c 0,0 -20.53373,4.22708 -30.46875,7.5 -6.40158,2.10889 -13.15213,3.89123 -18.65625,7.78125 -6.258,4.42283 -12.07638,10.14453 -15.4375,17.03125 -2.85638,5.85254 -3.0869,14.57932 -1.90625,21.625 0.81894,4.88711 1.82051,8.56777 5.28125,14.25 3.7981,6.23614 9.97803,10.32088 15.97037,12.37338 4.26201,1.45983 10.69296,2.44358 15.19806,2.44358 7.35113,0 14.68614,-1.18108 20.40625,-4.40625 5.26785,-3.03042 11.76055,-12.50365 11.76055,-12.50365 0,0 4.4763,10.93541 12.35227,14.28044 3.41299,1.44954 7.16838,2.24082 10.875,2.34375 3.12298,0.0867 6.30967,-0.41282 9.25,-1.46875 5.72357,-2.05543 15.71875,-9.25 15.71875,-9.25 l -6.90625,-14.5625 c -0.14653,0.4396 -6.22051,3.46875 -9.6875,3.84375 -2.66706,0.28847 -4.40305,-2.34385 -4.34375,-4.78125 l 0,-72.71875 c 0,-5.79649 -0.63556,-10.42397 -3.03125,-14.625 -6.93588,-12.16258 -17.64322,-18.56081 -33.6875,-18.84375 -0.43774,-0.008 -0.85903,-0.0115 -1.3125,0 z m 8.625,68.9375 0,30.34375 c -1.91953,1.59454 -3.81982,3.14367 -5.0625,4.03125 -4.86028,3.47144 -10.9355,7.48369 -19.6875,6.90625 -5.99146,-0.27607 -11.14993,-4.17573 -13.0625,-9.6875 -1.92764,-5.5552 -0.38217,-13.7737 2.9375,-17.625 4.85468,-5.63214 12.39556,-8.46683 19.375,-11.03125 4.93172,-1.81204 15.5,-2.9375 15.5,-2.9375 z"
         style="fill:url(#radialGradient4765);fill-opacity:1;stroke:none" />
    </clipPath>
    <radialGradient
       inkscape:collect="always"
       xlink:href="#linearGradient13824"
       id="radialGradient4765"
       gradientUnits="userSpaceOnUse"
       gradientTransform="matrix(1,0,0,1.1295263,0,-3.1687124)"
       cx="933.19635"
       cy="24.463858"
       fx="933.19635"
       fy="24.463858"
       r="58.741142" />
    <radialGradient
       inkscape:collect="always"
       xlink:href="#linearGradient13824"
       id="radialGradient3859"
       gradientUnits="userSpaceOnUse"
       gradientTransform="matrix(0.33613009,0,0,0.37966777,-264.19755,68.519607)"
       cx="933.19635"
       cy="24.463858"
       fx="933.19635"
       fy="24.463858"
       r="58.741142" />
    <radialGradient
       inkscape:collect="always"
       xlink:href="#linearGradient33721-8"
       id="radialGradient3862"
       gradientUnits="userSpaceOnUse"
       gradientTransform="matrix(0.33613009,0,0,0.60410744,-258.67945,70.356064)"
       cx="1093.1562"
       cy="-12.688884"
       fx="1093.1562"
       fy="-12.688884"
       r="54.40625" />
    <radialGradient
       inkscape:collect="always"
       xlink:href="#linearGradient2949"
       id="radialGradient3868"
       gradientUnits="userSpaceOnUse"
       gradientTransform="matrix(0.45774961,0,0,0.99953224,-364.04249,66.575636)"
       cx="818.49475"
       cy="5.9054346"
       fx="818.49475"
       fy="5.9054346"
       r="40.34375" />
    <radialGradient
       inkscape:collect="always"
       xlink:href="#linearGradient13201"
       id="radialGradient3871"
       gradientUnits="userSpaceOnUse"
       gradientTransform="matrix(0.41616502,0.00374779,-0.02668154,2.9627946,-340.54292,83.034633)"
       cx="1020.6542"
       cy="-6.576828"
       fx="1020.6542"
       fy="-6.576828"
       r="15.574716" />
  </defs>
  <sodipodi:namedview
     id="base"
     pagecolor="#ffffff"
     bordercolor="#666666"
     borderopacity="1.0"
     gridtolerance="10000"
     guidetolerance="10"
     objecttolerance="10"
     inkscape:pageopacity="0.0"
     inkscape:pageshadow="2"
     inkscape:zoom="1.203125"
     inkscape:cx="36.296708"
     inkscape:cy="-20.191252"
     inkscape:document-units="px"
     inkscape:current-layer="layer1"
     width="128px"
     height="128px"
     showgrid="true"
     inkscape:window-width="1040"
     inkscape:window-height="728"
     inkscape:window-x="225"
     inkscape:window-y="215"
     showguides="true"
     inkscape:guide-bbox="true"
     inkscape:snap-nodes="true"
     inkscape:snap-bbox="true"
     inkscape:window-maximized="0"
     inkscape:snap-global="true"
     inkscape:snap-grids="true"
     inkscape:object-paths="true"
     inkscape:bbox-paths="true"
     inkscape:bbox-nodes="true"
     inkscape:snap-bbox-edge-midpoints="true"
     inkscape:snap-bbox-midpoints="true"
     inkscape:object-nodes="true"
     inkscape:snap-intersection-paths="true"
     inkscape:snap-smooth-nodes="true">
    <inkscape:grid
       id="GridFromPre046Settings"
       type="xygrid"
       originx="0px"
       originy="0px"
       spacingx="5.8181px"
       spacingy="5.8181px"
       color="#0000ff"
       empcolor="#0000ff"
       opacity="0.2"
       empopacity="0.4"
       empspacing="2"
       visible="true"
       enabled="true"
       snapvisiblegridlinesonly="true" />
  </sodipodi:namedview>
  <metadata
     id="metadata7">
    <rdf:RDF>
      <cc:Work
         rdf:about="">
        <dc:format>image/svg+xml</dc:format>
        <dc:type
           rdf:resource="http://purl.org/dc/dcmitype/StillImage" />
        <dc:title></dc:title>
      </cc:Work>
    </rdf:RDF>
  </metadata>
  <g
     inkscape:label="Layer 1"
     inkscape:groupmode="layer"
     id="layer1">
    <path
       inkscape:connector-curvature="0"
       style="fill:#ffffff;fill-opacity:0.75688076;fill-rule:nonzero;stroke:none"
       d="m 138.51308,-135.31597 0,-0.81738 0,0.81738 z"
       id="path6503"
       sodipodi:nodetypes="ccc"
       inkscape:r_cx="true"
       inkscape:r_cy="true" />
    <path
       style="fill:url(#radialGradient3868);fill-opacity:1;stroke:none"
       d="m 5.8181,34.9104 0,17.4543 -5.73521697,0 0.3321071,6.222247 5.73521697,0 0,30.219044 c 0,7.135138 3.5791254,11.606989 10.7666719,11.606989 2.27203,0 7.543798,-0.558984 10.619607,-3.707932 L 24.290733,90.6337 c -1.253989,1.131803 -2.789712,2.041043 -4.792994,1.989496 C 16.959149,92.557886 17.4543,88.96509 17.4543,87.2733 l 0,-29.0905 11.6362,0 -2.161534,-5.8181 -9.474666,0 0,-17.4543 z"
       id="rect3255"
       inkscape:connector-curvature="0"
       sodipodi:nodetypes="cccccssccsscccccc" />
    <path
       style="fill:url(#radialGradient3871);fill-opacity:1;stroke:none"
       d="m 75.6353,34.9104 11.6362,0 0,63.9991 -11.6362,0 z"
       id="rect3259"
       inkscape:connector-curvature="0"
       sodipodi:nodetypes="ccccc" />
    <path
       style="fill:url(#radialGradient3862);fill-opacity:1;stroke:none"
       d="m 93.0896,34.9104 0,63.9991 11.6362,0 0,-21.352594 17.11116,23.831554 7.67841,-5.682701 -13.6027,-19.094219 14.91576,-16.880033 -7.15327,-6.323448 -18.94936,21.449302 0,-39.946961 z"
       id="rect3261"
       inkscape:connector-curvature="0"
       sodipodi:nodetypes="cccccccccccc" />
    <path
       style="fill:url(#radialGradient3859);fill-opacity:1;stroke:none"
       d="m 49.40133,55.508105 c -2.286387,0.05794 -5.116565,0.818904 -6.880166,1.544097 -3.279698,1.348617 -7.629879,4.487045 -10.293974,6.764619 l 4.348677,5.231024 c 2.437934,-1.974062 4.834313,-3.789625 7.405364,-4.936912 1.895805,-0.845967 4.773101,-1.166371 6.52303,-0.294112 1.128145,0.562329 1.796198,1.547445 1.796198,2.941137 l 0,5.45161 c 0,0 -6.902008,1.42085 -10.241467,2.520976 -2.151765,0.708861 -4.420826,1.30796 -6.270931,2.615512 -2.103498,1.486646 -4.059231,3.409883 -5.189007,5.724717 -0.960115,1.967214 -1.037597,4.900548 -0.640752,7.268813 0.275272,1.642704 0.611932,2.879884 1.775193,4.789853 1.276658,2.096154 3.353916,3.469159 5.36812,4.159066 1.432593,0.490692 3.59423,0.821365 5.108521,0.821365 2.470939,0 4.936457,-0.397001 6.859154,-1.481078 1.770684,-1.018616 3.953083,-4.202853 3.953083,-4.202853 0,0 1.504616,3.67572 4.151967,4.800086 1.147212,0.487234 2.409515,0.753207 3.655411,0.787805 1.049732,0.0292 2.120872,-0.138763 3.109209,-0.493691 1.923863,-0.690893 5.283539,-3.109204 5.283539,-3.109204 l -2.321393,-4.894894 c -0.04924,0.147761 -2.0909,1.165951 -3.256265,1.291999 -0.896475,0.09696 -1.479992,-0.787838 -1.460058,-1.607122 l 0,-24.44296 c 0,-1.948375 -0.213634,-3.50381 -1.018901,-4.915902 -2.331353,-4.088209 -5.930414,-6.238848 -11.323377,-6.333951 -0.147143,-0.0027 -0.288746,-0.0039 -0.441175,0 z m 2.899129,23.171968 0,10.199447 c -0.645219,0.535973 -1.283962,1.056681 -1.701663,1.355026 -1.633691,1.166853 -3.675755,2.515492 -6.617565,2.321398 -2.013905,-0.09278 -3.747826,-1.40359 -4.390697,-3.256261 -0.647937,-1.867271 -0.12846,-4.629756 0.987385,-5.924293 1.631799,-1.893132 4.16652,-2.845957 6.512521,-3.707935 1.657698,-0.609082 5.210019,-0.987382 5.210019,-0.987382 z"
       id="rect3274"
       inkscape:connector-curvature="0"
       sodipodi:nodetypes="csccssscsssssssccsssccscssccccscsssc" />
    <path
       style="opacity:0.58407078;fill:#c6d9f5;fill-opacity:1;stroke:none;filter:url(#filter4730)"
       d="m 793.72277,44.836896 -0.88159,13.517678 6.46498,17.337891 0.38754,25.750415 34.87597,1.87267 c 0,0 30.5617,6.17111 31.73715,5.58338 1.17545,-0.58772 7.0527,-4.99566 7.0527,-4.99566 l 1.46932,-14.98699 -8.64134,-8.72878 c 0,0 -5.28981,7.185557 -7.87477,5.018543 -2.58496,-2.167014 -8.16835,-0.109977 -12.57629,-0.403839 -4.40793,-0.293863 -10.57905,-0.881588 -15.86857,-3.820213 -5.28953,-2.938626 -10.57906,-5.583389 -11.75451,-7.052702 -1.17545,-1.469313 -2.3509,-4.701801 -4.11407,-6.758839 -1.76318,-2.057038 -4.68679,-6.742085 -6.74929,-9.98295 -2.0625,-3.240865 -9.41315,-8.530391 -9.41315,-8.530391 z"
       id="path4724"
       inkscape:connector-curvature="0"
       sodipodi:nodetypes="cccccscccsssssscc"
       clip-path="url(#clipPath4736)"
       transform="matrix(0.33613009,0,0,0.33613009,-264.49755,69.584707)" />
    <path
       inkscape:connector-curvature="0"
       style="fill:#ffab7f;fill-opacity:1;stroke:none;filter:url(#filter4755)"
       d="m 863.96875,51.59375 5.28125,18.8125 12.34375,22.90625 c 0,0 17.64082,11.18035 25.28125,13.53125 7.64042,2.3509 17.6107,6.46875 22.3125,6.46875 4.7018,0 10.59375,-5.28125 10.59375,-5.28125 0,0 -9.40512,-5.88103 -12.34375,-6.46875 -2.93862,-0.58773 -6.4857,-2.360699 -11.1875,-7.0625 -4.7018,-4.701801 -8.7982,-9.99285 -13.5,-12.34375 -4.7018,-2.350901 -7.64308,-3.5241 -9.40625,-5.875 -1.76318,-2.350901 -9.40625,-12.34375 -9.40625,-12.34375 0,0 -5.2982,-4.7116 -10,-7.0625 -4.7018,-2.350901 -9.96875,-5.28125 -9.96875,-5.28125 z m 80.5,28.21875 -5.28125,7.625 c 0,0 5.2741,2.373874 7.625,5.3125 2.3509,2.938626 8.22855,3.51205 15.28125,4.6875 7.0527,1.17545 17.65287,-1.774099 26.46875,-4.125 8.81587,-2.3509 -4.71875,-2.9375 -4.71875,-2.9375 l -13.5,-2.34375 c 0,0 -14.7116,-4.69955 -17.0625,-5.875 -2.3509,-1.17545 -8.8125,-2.34375 -8.8125,-2.34375 z"
       id="path4742"
       clip-path="url(#clipPath4761)"
       transform="matrix(0.33613009,0,0,0.33613009,-264.19755,69.584707)" />
  </g>
</svg>
