<?xml version="1.0" encoding="UTF-8" standalone="no"?>
<!-- Created with Inkscape (http://www.inkscape.org/) -->

<svg
   xmlns:dc="http://purl.org/dc/elements/1.1/"
   xmlns:cc="http://creativecommons.org/ns#"
   xmlns:rdf="http://www.w3.org/1999/02/22-rdf-syntax-ns#"
   xmlns:svg="http://www.w3.org/2000/svg"
   xmlns="http://www.w3.org/2000/svg"
   xmlns:xlink="http://www.w3.org/1999/xlink"
   xmlns:sodipodi="http://sodipodi.sourceforge.net/DTD/sodipodi-0.dtd"
   xmlns:inkscape="http://www.inkscape.org/namespaces/inkscape"
   width="128"
   height="128"
   id="svg2"
   sodipodi:version="0.32"
   inkscape:version="0.48.1 r9760"
   version="1.0"
   sodipodi:docname="im-twitter.svgz"
   inkscape:output_extension="org.inkscape.output.svgz.inkscape"
   inkscape:export-filename="/home/pinheiro/pics/oxygen-icons/scalable/actions/small/22x22/im-twitter.png"
   inkscape:export-xdpi="61.875"
   inkscape:export-ydpi="61.875">
  <defs
     id="defs4">
    <linearGradient
       id="linearGradient3960">
      <stop
         style="stop-color:#e1edff;stop-opacity:1;"
         offset="0"
         id="stop3962" />
      <stop
         id="stop3964"
         offset="0.35053781"
         style="stop-color:#bdd6fb;stop-opacity:1;" />
      <stop
         id="stop3966"
         offset="0.70107555"
         style="stop-color:#9ebad4;stop-opacity:1;" />
      <stop
         style="stop-color:#4b648b;stop-opacity:1;"
         offset="1"
         id="stop3968" />
    </linearGradient>
    <linearGradient
       inkscape:collect="always"
       id="linearGradient4050">
      <stop
         style="stop-color:#c5d8f4;stop-opacity:1;"
         offset="0"
         id="stop4052" />
      <stop
         style="stop-color:#c5d8f4;stop-opacity:0;"
         offset="1"
         id="stop4054" />
    </linearGradient>
    <linearGradient
       id="linearGradient3857"
       inkscape:collect="always">
      <stop
         id="stop3859"
         offset="0"
         style="stop-color:#ffffff;stop-opacity:1;" />
      <stop
         id="stop3861"
         offset="1"
         style="stop-color:#ffffff;stop-opacity:0" />
    </linearGradient>
    <filter
       inkscape:collect="always"
       id="filter5416"
       x="-0.21917803"
       width="1.4383561"
       y="-0.21917814"
       height="1.4383563">
      <feGaussianBlur
         inkscape:collect="always"
         stdDeviation="1.4611876"
         id="feGaussianBlur5418" />
    </filter>
    <radialGradient
       inkscape:collect="always"
       xlink:href="#linearGradient3857"
       id="radialGradient5424"
       gradientUnits="userSpaceOnUse"
       gradientTransform="matrix(0.70743936,0.70677405,-0.99807448,0.99901401,48.73805,-79.148369)"
       cx="112.00771"
       cy="15.99981"
       fx="112.00771"
       fy="15.99981"
       r="8.0077057" />
    <radialGradient
       inkscape:collect="always"
       xlink:href="#linearGradient3857"
       id="radialGradient32224"
       gradientUnits="userSpaceOnUse"
       gradientTransform="matrix(0.70727305,0.70694048,-1.9971123,1.9980518,64.741093,-95.151426)"
       cx="112.00771"
       cy="15.99981"
       fx="112.00771"
       fy="15.99981"
       r="8.0077057" />
    <radialGradient
       inkscape:collect="always"
       xlink:href="#linearGradient3857"
       id="radialGradient32226"
       gradientUnits="userSpaceOnUse"
       gradientTransform="matrix(0.70727305,0.70694048,-1.9971123,1.9980518,64.741093,-95.151426)"
       cx="112.00771"
       cy="15.99981"
       fx="112.00771"
       fy="15.99981"
       r="8.0077057" />
    <linearGradient
       id="linearGradient2949">
      <stop
         id="stop2951-1"
         offset="0"
         style="stop-color:#cddff9;stop-opacity:1;" />
      <stop
         style="stop-color:#92aed7;stop-opacity:1;"
         offset="0.2265625"
         id="stop4314" />
      <stop
         style="stop-color:#587eb5;stop-opacity:1;"
         offset="0.5"
         id="stop2953-3" />
      <stop
         id="stop2955-80"
         offset="1"
         style="stop-color:#0c2a58;stop-opacity:1;" />
    </linearGradient>
    <linearGradient
       id="linearGradient3993">
      <stop
         id="stop3995"
         offset="0"
         style="stop-color:#0a2042;stop-opacity:1" />
      <stop
         id="stop3997"
         offset="1"
         style="stop-color:#1b3473;stop-opacity:1;" />
    </linearGradient>
    <filter
       inkscape:collect="always"
       id="filter4020">
      <feGaussianBlur
         inkscape:collect="always"
         stdDeviation="0.8654541"
         id="feGaussianBlur4022" />
    </filter>
    <filter
       inkscape:collect="always"
       id="filter4046">
      <feGaussianBlur
         inkscape:collect="always"
         stdDeviation="1.9932065"
         id="feGaussianBlur4048" />
    </filter>
    <clipPath
       clipPathUnits="userSpaceOnUse"
       id="clipPath4058">
      <rect
         ry="11.46064"
         rx="11.46064"
         y="27.499004"
         x="320.89792"
         height="102.8519"
         width="102.8519"
         id="rect4060"
         style="fill:url(#radialGradient4062);fill-opacity:1;stroke:none" />
    </clipPath>
    <radialGradient
       inkscape:collect="always"
       xlink:href="#linearGradient3993"
       id="radialGradient4062"
       gradientUnits="userSpaceOnUse"
       gradientTransform="matrix(1.3394112,0,0,1.3394112,79.089762,-26.788015)"
       cx="218.92761"
       cy="78.92495"
       fx="218.92761"
       fy="78.92495"
       r="51.425949" />
    <filter
       inkscape:collect="always"
       id="filter4070"
       x="-0.04720061"
       width="1.0944012"
       y="-0.73375492"
       height="2.4675098">
      <feGaussianBlur
         inkscape:collect="always"
         stdDeviation="1.9765451"
         id="feGaussianBlur4072" />
    </filter>
    <linearGradient
       inkscape:collect="always"
       xlink:href="#linearGradient4050"
       id="linearGradient4173"
       gradientUnits="userSpaceOnUse"
       x1="234.24437"
       y1="198.78229"
       x2="428.18301"
       y2="5.3257771" />
    <radialGradient
       inkscape:collect="always"
       xlink:href="#linearGradient3960"
       id="radialGradient3159"
       gradientUnits="userSpaceOnUse"
       gradientTransform="matrix(2.0934426,0,0,1.5957562,-372.14666,-55.131208)"
       cx="216.27335"
       cy="59.184086"
       fx="231.64581"
       fy="48.599232"
       r="51.425949" />
    <linearGradient
       inkscape:collect="always"
       xlink:href="#linearGradient4050"
       id="linearGradient3161"
       gradientUnits="userSpaceOnUse"
       x1="234.24437"
       y1="198.78229"
       x2="428.18301"
       y2="5.3257771" />
    <linearGradient
       inkscape:collect="always"
       xlink:href="#linearGradient2949"
       id="linearGradient3168"
       gradientUnits="userSpaceOnUse"
       x1="56.785458"
       y1="182.24541"
       x2="58.665199"
       y2="74.667999"
       gradientTransform="matrix(1.3988737,0,0,1.3687295,-42.89722,-24.453085)" />
    <linearGradient
       inkscape:collect="always"
       xlink:href="#linearGradient2949"
       id="linearGradient3172"
       gradientUnits="userSpaceOnUse"
       x1="56.785458"
       y1="195.08235"
       x2="56.785458"
       y2="-47.995602"
       gradientTransform="matrix(1.3988737,0,0,1.3687295,-42.89722,-24.453085)" />
    <radialGradient
       inkscape:collect="always"
       xlink:href="#linearGradient3993"
       id="radialGradient3177"
       gradientUnits="userSpaceOnUse"
       gradientTransform="matrix(1.4998729,0,0,1.4712097,-263.62177,-53.744576)"
       cx="218.92761"
       cy="78.92495"
       fx="218.92761"
       fy="78.92495"
       r="51.425949" />
    <linearGradient
       inkscape:collect="always"
       xlink:href="#linearGradient4050"
       id="linearGradient3180"
       gradientUnits="userSpaceOnUse"
       x1="234.24437"
       y1="198.78229"
       x2="428.18301"
       y2="5.3257771" />
  </defs>
  <sodipodi:namedview
     id="base"
     pagecolor="#ffffff"
     bordercolor="#666666"
     borderopacity="1.0"
     gridtolerance="10000"
     guidetolerance="10"
     objecttolerance="10"
     inkscape:pageopacity="0.0"
     inkscape:pageshadow="2"
     inkscape:zoom="1.7014757"
     inkscape:cx="87.271797"
     inkscape:cy="40.984968"
     inkscape:document-units="px"
     inkscape:current-layer="layer1"
     width="128px"
     height="128px"
     showgrid="true"
     inkscape:window-width="1040"
     inkscape:window-height="728"
     inkscape:window-x="359"
     inkscape:window-y="159"
     showguides="true"
     inkscape:guide-bbox="true"
     inkscape:snap-nodes="false"
     inkscape:snap-bbox="true"
     inkscape:window-maximized="0"
     inkscape:snap-global="true">
    <inkscape:grid
       id="GridFromPre046Settings"
       type="xygrid"
       originx="0px"
       originy="0px"
       spacingx="5.8181px"
       spacingy="5.8181px"
       color="#0000ff"
       empcolor="#0000ff"
       opacity="0.2"
       empopacity="0.4"
       empspacing="2"
       visible="true"
       enabled="true"
       snapvisiblegridlinesonly="true" />
  </sodipodi:namedview>
  <metadata
     id="metadata7">
    <rdf:RDF>
      <cc:Work
         rdf:about="">
        <dc:format>image/svg+xml</dc:format>
        <dc:type
           rdf:resource="http://purl.org/dc/dcmitype/StillImage" />
        <dc:title></dc:title>
      </cc:Work>
    </rdf:RDF>
  </metadata>
  <g
     inkscape:label="Layer 1"
     inkscape:groupmode="layer"
     id="layer1">
    <rect
       style="fill:#000000;fill-opacity:1;stroke:none;filter:url(#filter4070)"
       id="rect4064"
       width="100.50099"
       height="6.4649763"
       x="35.088062"
       y="111.65778"
       rx="6.7588387"
       ry="6.4649763"
       transform="matrix(1.1198002,0,0,1.0984003,-31.016767,-8.1816764)" />
    <rect
       style="fill:url(#radialGradient3177);fill-opacity:1;stroke:none"
       id="rect3226"
       width="116.362"
       height="116.36199"
       x="5.8180995"
       y="5.8199005"
       rx="12.047149"
       ry="11.787546" />
    <rect
       ry="10.124054"
       rx="10.124054"
       y="14.468215"
       x="34.610836"
       height="104.33213"
       width="102.18345"
       id="rect4004"
       style="fill:url(#radialGradient3159);fill-opacity:1;stroke:none;filter:url(#filter4020)"
       transform="matrix(1.0940604,0,0,1.0726798,-29.766749,-7.4345691)" />
    <path
       style="fill:url(#linearGradient3180);fill-opacity:1;stroke:none;filter:url(#filter4046)"
       d="m 320.90625,28.4375 c -1.24029,1.224028 -2.02023,2.924289 -2,4.8125 l 1,93.34375 c 0.0401,3.74419 3.0056,6.75 6.75,6.75 l 89.34375,0 c 3.7444,0 6.75,-3.0056 6.75,-6.75 l 0,-4.1875 c -1.21921,1.2038 -2.89333,1.9375 -4.75,1.9375 l -89.34375,0 c -3.7444,0 -6.708,-3.00584 -6.75,-6.75 z"
       id="rect4032"
       inkscape:connector-curvature="0"
       sodipodi:nodetypes="cssssscsssc"
       clip-path="url(#clipPath4058)"
       transform="matrix(1.1298002,0,0,1.0998289,-356.50443,-22.406829)" />
    <path
       sodipodi:nodetypes="cccsscscsssccscccc"
       inkscape:connector-curvature="0"
       id="rect3955"
       d="m 39.068036,19.260713 c -3.901453,0.05979 -7.397394,3.582201 -7.344087,7.399694 l 0,51.572673 c 0,5.824468 1.424069,12.151164 5.814069,17.280209 4.39,5.129041 11.660267,8.255151 20.283668,8.255151 l 22.38198,0 c 4.019525,0.18526 7.812736,-3.35549 7.812736,-7.292763 0,-3.937269 -3.793211,-7.478026 -7.812736,-7.292761 l -22.38198,0 c -5.340192,0 -7.385697,-1.391738 -8.83039,-3.079642 -1.444692,-1.687903 -2.360599,-4.463918 -2.360599,-7.870194 l 0,-22.900106 33.572969,0 c 4.019525,0.185265 7.812736,-3.355492 7.812736,-7.292761 0,-3.93727 -3.793211,-7.478027 -7.812736,-7.292762 l -33.572969,0 0,-14.087044 c 0.05418,-3.888705 -3.588313,-7.452709 -7.562661,-7.399694 z"
       style="fill:url(#linearGradient3172);fill-opacity:1;stroke:none" />
    <path
       sodipodi:nodetypes="cccccccccccscccsssccscssc"
       inkscape:connector-curvature="0"
       id="path3972"
       d="m 39.068036,19.260713 c -3.901453,0.05979 -7.397394,3.582201 -7.344087,7.399694 l 0,2.224186 c 0.211398,-3.644447 3.613757,-6.834778 7.344087,-6.886421 3.974348,-0.05301 7.616843,3.510989 7.562661,7.399694 l 0,-2.737459 c 0.05418,-3.888705 -3.588313,-7.452709 -7.562661,-7.399694 z m 7.562661,21.985218 0,2.737459 33.572969,0 c 3.561373,-0.168433 7.036008,2.516606 7.693805,5.945419 0.429304,-2.164398 -0.211104,-4.507678 -1.687204,-6.173537 -1.4761,-1.66586 -3.756016,-2.618326 -6.006601,-2.509341 z m 0,36.501005 0,2.737459 c 0,3.406276 0.915907,6.182291 2.360599,7.870194 1.444693,1.687904 3.490198,3.079642 8.83039,3.079642 l 22.38198,0 c 3.561373,-0.168434 7.036008,2.516606 7.693805,5.945418 0.429304,-2.164398 -0.211104,-4.507678 -1.687204,-6.173536 -1.4761,-1.665861 -3.756016,-2.618327 -6.006601,-2.509341 l -22.38198,0 c -5.340192,0 -7.385697,-1.391738 -8.83039,-3.079642 -1.444692,-1.687903 -2.360599,-4.463918 -2.360599,-7.870194 z"
       style="fill:#000000;fill-opacity:0.51351348;stroke:none" />
    <path
       inkscape:connector-curvature="0"
       id="path4013"
       d="m 33.210252,22.383128 c -0.933493,1.238687 -1.507888,2.73157 -1.486303,4.277279 l 0,51.07072 c 0,5.824468 1.424069,12.151164 5.814069,17.28021 4.39,5.129043 11.660267,8.255153 20.283668,8.255153 l 22.38198,0 c 3.014644,0.13894 5.913972,-1.80018 7.169227,-4.448374 -1.472738,1.915254 -3.878146,3.193044 -6.338646,3.079644 l -22.381979,0 c -8.623402,0 -15.893669,-3.126107 -20.283669,-8.255153 -4.39,-5.129045 -5.814069,-11.455742 -5.814069,-17.28021 l 0,-51.070719 c -0.0142,-1.017118 0.225476,-1.993237 0.655722,-2.90855 z m 54.162641,28.999956 c -1.472738,1.915253 -3.878146,3.193049 -6.338646,3.079641 l -33.572969,0 0,1.36873 32.742388,0 c 3.014644,0.138948 5.913972,-1.800182 7.169227,-4.448371 z"
       style="fill:url(#linearGradient3168);fill-opacity:1;stroke:none" />
    <path
       inkscape:connector-curvature="0"
       style="fill:#ffffff;fill-opacity:0.75688076;fill-rule:nonzero;stroke:none"
       d="m 138.51308,-135.31597 0,-0.81738 0,0.81738 z"
       id="path6503"
       sodipodi:nodetypes="ccc"
       inkscape:r_cx="true"
       inkscape:r_cy="true" />
  </g>
</svg>
