<?xml version="1.0" encoding="UTF-8" standalone="no"?>
<!-- Created with Inkscape (http://www.inkscape.org/) -->

<svg
   xmlns:dc="http://purl.org/dc/elements/1.1/"
   xmlns:cc="http://creativecommons.org/ns#"
   xmlns:rdf="http://www.w3.org/1999/02/22-rdf-syntax-ns#"
   xmlns:svg="http://www.w3.org/2000/svg"
   xmlns="http://www.w3.org/2000/svg"
   xmlns:xlink="http://www.w3.org/1999/xlink"
   xmlns:sodipodi="http://sodipodi.sourceforge.net/DTD/sodipodi-0.dtd"
   xmlns:inkscape="http://www.inkscape.org/namespaces/inkscape"
   width="128"
   height="128"
   id="svg2606"
   sodipodi:version="0.32"
   inkscape:version="0.48.0 r9654"
   version="1.0"
   sodipodi:docname="application-x-kontour.svgz"
   inkscape:output_extension="org.inkscape.output.svgz.inkscape"
   inkscape:export-filename="/home/pinheiro/pics/oxygen-icons/scalable/mimetypes/small/22x22/application-x-kontour.png"
   inkscape:export-xdpi="61.875"
   inkscape:export-ydpi="61.875">
  <defs
     id="defs2608">
    <linearGradient
       id="linearGradient6131">
      <stop
         id="stop6133"
         offset="0"
         style="stop-color:#fcfcfc;stop-opacity:1" />
      <stop
         style="stop-color:#f8f8f8;stop-opacity:1"
         offset="0.52275378"
         id="stop6135" />
      <stop
         id="stop6141"
         offset="0.77457333"
         style="stop-color:#f0efef;stop-opacity:1;" />
      <stop
         id="stop6139"
         offset="0.90122044"
         style="stop-color:#e3e1e1;stop-opacity:1;" />
      <stop
         id="stop6137"
         offset="1"
         style="stop-color:#cecbcb;stop-opacity:1" />
    </linearGradient>
    <linearGradient
       inkscape:collect="always"
       xlink:href="#linearGradient6131"
       id="linearGradient3893"
       gradientUnits="userSpaceOnUse"
       gradientTransform="matrix(1.0119858,0,0,1.0119858,-0.89554075,-0.9871566)"
       x1="86.73793"
       y1="93.621468"
       x2="95.460213"
       y2="102.34375" />
    <radialGradient
       inkscape:collect="always"
       xlink:href="#linearGradient3913-5"
       id="radialGradient3919-5"
       cx="90.75"
       cy="110.25299"
       fx="90.75"
       fy="110.25299"
       r="18.750002"
       gradientTransform="matrix(1.3067347,0,0,1.3067347,-27.83617,-33.818441)"
       gradientUnits="userSpaceOnUse" />
    <linearGradient
       inkscape:collect="always"
       id="linearGradient3913-5">
      <stop
         style="stop-color:#ffffff;stop-opacity:1;"
         offset="0"
         id="stop3915-4" />
      <stop
         style="stop-color:#ffffff;stop-opacity:0;"
         offset="1"
         id="stop3917-7" />
    </linearGradient>
    <clipPath
       clipPathUnits="userSpaceOnUse"
       id="clipPath3889-6">
      <path
         sodipodi:nodetypes="cscscssc"
         inkscape:connector-curvature="0"
         id="path3891-5"
         d="m 112,82.502986 c 0,4.465301 -2.79749,6.409952 -5.27972,8.093625 -5.10854,3.46508 -14.939114,3.32536 -20.720284,3.40638 -0.081,5.781159 0.16586,15.504599 -3.29922,20.613139 -1.68367,2.48224 -5.29051,5.38687 -8.20078,5.38687 2.31803,0 4.74284,-1.33476 7.58402,-4.08481 9.14197,-8.84873 17.36714,-16.13535 25.673154,-25.297529 C 109.67612,88.503916 112,86.97878 112,82.502986 z"
         style="fill:url(#linearGradient3893);fill-opacity:1;stroke:none" />
    </clipPath>
    <filter
       color-interpolation-filters="sRGB"
       inkscape:collect="always"
       id="filter3909-6">
      <feGaussianBlur
         inkscape:collect="always"
         stdDeviation="0.43040059"
         id="feGaussianBlur3911-9" />
    </filter>
    <linearGradient
       inkscape:collect="always"
       xlink:href="#linearGradient3897-7"
       id="linearGradient3895-3"
       gradientUnits="userSpaceOnUse"
       gradientTransform="matrix(1.4094273,0,0,1.4111689,-46.598939,-46.228314)"
       x1="82.15696"
       y1="90.381706"
       x2="94.220871"
       y2="102.18401" />
    <linearGradient
       id="linearGradient3897-7">
      <stop
         style="stop-color:#fcfcfc;stop-opacity:1"
         offset="0"
         id="stop3899-4" />
      <stop
         id="stop3901-5"
         offset="0.52275378"
         style="stop-color:#f8f8f8;stop-opacity:1" />
      <stop
         style="stop-color:#f0efef;stop-opacity:1;"
         offset="0.72337759"
         id="stop3903-2" />
      <stop
         style="stop-color:#e3e1e1;stop-opacity:1;"
         offset="0.89024991"
         id="stop3905-5" />
      <stop
         style="stop-color:#cecbcb;stop-opacity:1"
         offset="1"
         id="stop3907-4" />
    </linearGradient>
    <clipPath
       clipPathUnits="userSpaceOnUse"
       id="clipPath6093-7">
      <path
         inkscape:connector-curvature="0"
         sodipodi:nodetypes="cccssccc"
         id="path6095-4"
         d="m 17.000001,8 0.782827,110 57.5,0 c 1.675283,0 3.119418,0.18058 4.9,-1.6 C 88.980763,107.60206 99.94047,96.548195 107.19904,89.224043 109.6396,86.761431 110,84.752873 110,82.5 L 110,8 z"
         style="fill:#ffffff;fill-opacity:1" />
    </clipPath>
    <radialGradient
       inkscape:collect="always"
       xlink:href="#linearGradient5982-7"
       id="radialGradient5988-0"
       cx="64"
       cy="64.004021"
       fx="63.793392"
       fy="47.274845"
       r="47.5"
       gradientTransform="matrix(1.689423,-0.08280186,0.06907651,1.3515102,-50.111719,-17.641619)"
       gradientUnits="userSpaceOnUse" />
    <linearGradient
       inkscape:collect="always"
       id="linearGradient5982-7">
      <stop
         style="stop-color:#ffffff;stop-opacity:1;"
         offset="0"
         id="stop5984-8" />
      <stop
         style="stop-color:#ffffff;stop-opacity:0;"
         offset="1"
         id="stop5986-6" />
    </linearGradient>
    <filter
       color-interpolation-filters="sRGB"
       inkscape:collect="always"
       id="filter6171-8"
       x="-0.47870937"
       width="1.9574188"
       y="-0.51275069"
       height="2.0255013">
      <feGaussianBlur
         inkscape:collect="always"
         stdDeviation="10.140743"
         id="feGaussianBlur6173-8" />
    </filter>
    <linearGradient
       inkscape:collect="always"
       xlink:href="#linearGradient4518-3"
       id="linearGradient4524-4"
       x1="72"
       y1="0"
       x2="72"
       y2="116.40091"
       gradientUnits="userSpaceOnUse"
       gradientTransform="matrix(1.003095,0,0,0.98228452,-1.7655502,0.69098836)" />
    <linearGradient
       id="linearGradient4518-3">
      <stop
         style="stop-color:#eeecec;stop-opacity:1"
         offset="0"
         id="stop4520-1" />
      <stop
         id="stop5969-4"
         offset="0.40000001"
         style="stop-color:#f4f4f4;stop-opacity:1" />
      <stop
         style="stop-color:#f6f5f5;stop-opacity:1"
         offset="1"
         id="stop4522-9" />
    </linearGradient>
    <filter
       inkscape:collect="always"
       id="filter4123">
      <feGaussianBlur
         inkscape:collect="always"
         stdDeviation="2.028"
         id="feGaussianBlur4125" />
    </filter>
    <filter
       inkscape:collect="always"
       id="filter4087"
       x="-0.16465071"
       width="1.3293014"
       y="-0.2041295"
       height="1.408259">
      <feGaussianBlur
         inkscape:collect="always"
         stdDeviation="4.2234282"
         id="feGaussianBlur4089" />
    </filter>
    <filter
       inkscape:collect="always"
       id="filter3814">
      <feGaussianBlur
         inkscape:collect="always"
         stdDeviation="1.8077645"
         id="feGaussianBlur3816" />
    </filter>
    <clipPath
       clipPathUnits="userSpaceOnUse"
       id="clipPath4232">
      <rect
         y="35.206261"
         x="-97.17157"
         height="82.793755"
         width="125.17166"
         id="rect4234"
         style="opacity:0.53556483;fill:#ffffff;fill-opacity:1;stroke:none"
         transform="scale(-1,1)" />
    </clipPath>
    <linearGradient
       inkscape:collect="always"
       xlink:href="#linearGradient4837"
       id="linearGradient3181"
       gradientUnits="userSpaceOnUse"
       gradientTransform="matrix(1.0901639,0,0,1.4448193,0.9680328,-49.5209)"
       x1="56.954266"
       y1="130.65482"
       x2="88.066963"
       y2="82.515564" />
    <linearGradient
       inkscape:collect="always"
       id="linearGradient4837">
      <stop
         style="stop-color:#004fcd;stop-opacity:1;"
         offset="0"
         id="stop4839" />
      <stop
         style="stop-color:#29bfff;stop-opacity:0.48908296"
         offset="1"
         id="stop4841" />
    </linearGradient>
    <inkscape:path-effect
       effect="skeletal"
       id="path-effect4627"
       is_visible="true"
       pattern="M 5.6587572,-0.1 7.8347195,-0.0172016 5.6325524,0.1414742 3.7807743,0.0638325 z"
       copytype="single_stretched"
       prop_scale="1"
       scale_y_rel="false"
       spacing="0"
       normal_offset="0"
       tang_offset="0"
       prop_units="false"
       vertical_pattern="false"
       fuse_tolerance="0"
       pattern-nodetypes="ccccc" />
    <linearGradient
       inkscape:collect="always"
       xlink:href="#linearGradient4159"
       id="linearGradient3183"
       gradientUnits="userSpaceOnUse"
       gradientTransform="matrix(1.0901639,0,0,1.0901639,7.5090164,45.039344)"
       x1="64"
       y1="41.5"
       x2="64"
       y2="39.5" />
    <linearGradient
       id="linearGradient4159"
       inkscape:collect="always">
      <stop
         id="stop4161"
         offset="0"
         style="stop-color:#004fcd;stop-opacity:1;" />
      <stop
         id="stop4163"
         offset="1"
         style="stop-color:#297cff;stop-opacity:1" />
    </linearGradient>
    <radialGradient
       inkscape:collect="always"
       xlink:href="#linearGradient4111"
       id="radialGradient3185"
       gradientUnits="userSpaceOnUse"
       gradientTransform="matrix(2.6335511,-0.03292895,0.18053735,4.328014,-93.659315,-239.38913)"
       cx="48.850761"
       cy="76.900146"
       fx="48.850761"
       fy="76.900146"
       r="19.386568" />
    <linearGradient
       id="linearGradient4111"
       inkscape:collect="always">
      <stop
         id="stop4113"
         offset="0"
         style="stop-color:#cd0000;stop-opacity:1;" />
      <stop
         id="stop4115"
         offset="1"
         style="stop-color:#cd0000;stop-opacity:0;" />
    </linearGradient>
    <linearGradient
       inkscape:collect="always"
       xlink:href="#XMLID_5_"
       id="linearGradient3187"
       gradientUnits="userSpaceOnUse"
       gradientTransform="matrix(-1.7447643,0,0,-1.7420067,163.126,159.36123)"
       x1="63.112606"
       y1="42.609962"
       x2="63.112606"
       y2="38.673389" />
    <radialGradient
       id="XMLID_5_"
       cx="51.9995"
       cy="-9"
       r="111.0006"
       gradientUnits="userSpaceOnUse">
      <stop
         offset="0.15000001"
         style="stop-color:#c20600;stop-opacity:1;"
         id="stop4094" />
      <stop
         id="stop2886"
         style="stop-color:#860202;stop-opacity:1;"
         offset="0.57499999" />
      <stop
         offset="1"
         style="stop-color:#760101;stop-opacity:1;"
         id="stop4102" />
    </radialGradient>
  </defs>
  <sodipodi:namedview
     id="base"
     pagecolor="#ffffff"
     bordercolor="#666666"
     borderopacity="1.0"
     inkscape:pageopacity="0.0"
     inkscape:pageshadow="2"
     inkscape:zoom="4"
     inkscape:cx="61.706686"
     inkscape:cy="62.611075"
     inkscape:document-units="px"
     inkscape:current-layer="layer1"
     width="128px"
     height="128px"
     showgrid="true"
     inkscape:grid-points="true"
     showguides="true"
     inkscape:guide-bbox="true"
     inkscape:window-width="1224"
     inkscape:window-height="757"
     inkscape:window-x="0"
     inkscape:window-y="383"
     inkscape:snap-global="true"
     inkscape:window-maximized="0"
     inkscape:snap-page="true">
    <inkscape:grid
       id="GridFromPre046Settings"
       type="xygrid"
       originx="0px"
       originy="0px"
       spacingx="5.8181px"
       spacingy="5.8181px"
       color="#0000ff"
       empcolor="#0000ff"
       opacity="0.2"
       empopacity="0.4"
       empspacing="2"
       visible="true"
       enabled="true"
       snapvisiblegridlinesonly="true" />
    <sodipodi:guide
       orientation="1,0"
       position="-68,29.325902"
       id="guide4564" />
    <sodipodi:guide
       orientation="1,0"
       position="-121.62237,135.0574"
       id="guide3859" />
    <sodipodi:guide
       orientation="0,1"
       position="38.581514,-74.688154"
       id="guide4360" />
  </sodipodi:namedview>
  <metadata
     id="metadata2611">
    <rdf:RDF>
      <cc:Work
         rdf:about="">
        <dc:format>image/svg+xml</dc:format>
        <dc:type
           rdf:resource="http://purl.org/dc/dcmitype/StillImage" />
        <dc:title></dc:title>
      </cc:Work>
    </rdf:RDF>
  </metadata>
  <g
     inkscape:label="Livello 1"
     inkscape:groupmode="layer"
     id="layer1">
    <path
       style="opacity:0.45606695;fill:#000000;fill-opacity:1;filter:url(#filter4123)"
       d="m 13.333,5.3364 0,118.3304 49.8545,-0.0668 c 2.115554,-0.003 4.528919,-1.77169 7,-4.25 0.71234,-0.71442 1.440746,-1.39395 2.15625,-2.09375 0.415612,-0.40649 0.832187,-0.81443 1.25,-1.21875 7.773958,-7.40962 26.98341,-25.122599 34.21875,-33.099999 0.42065,-0.42064 0.81207,-0.8111 1.15625,-1.1875 1.46444,-1.49766 2.76158,-2.8378 2.99375,-5.8625 L 112,75.156251 111.9972,5.3364 z"
       id="path5990"
       inkscape:connector-curvature="0"
       sodipodi:nodetypes="ccsssccccccc"
       transform="matrix(1.003095,0,0,0.98228452,-1.7655506,0.69098557)" />
    <path
       sodipodi:type="inkscape:offset"
       inkscape:radius="1.0279198"
       inkscape:original="M 13.1875 4.53125 C 12.818918 4.609246 12.529956 4.967008 12.53125 5.34375 L 12.53125 123.65625 C 12.53885 124.07954 12.920464 124.4611 13.34375 124.46875 L 62.15625 124.46875 C 63.930251 124.46875 65.829207 124.74865 68.6875 122.8125 C 68.829003 122.58432 71.218784 120.82456 70.53125 121.25 C 80.188854 112.07585 98.162197 92.41186 109.34375 81.09375 C 111.06182 79.375681 112.8125 77.674752 112.8125 73.3125 L 112.8125 5.34375 C 112.80483 4.9204809 112.42327 4.5388981 112 4.53125 L 13.34375 4.53125 C 13.29182 4.52633 13.239428 4.52633 13.1875 4.53125 z "
       style="fill:#000000;fill-opacity:1;filter:url(#filter3814)"
       id="path3314"
       d="m 13.09375,3.5 a 1.0280226,1.0280226 0 0 0 -0.125,0.03125 C 12.083764,3.7185227 11.496893,4.4391709 11.5,5.34375 l 0,118.3125 a 1.0280226,1.0280226 0 0 0 0,0.0313 c 0.01849,1.02971 0.782949,1.79389 1.8125,1.8125 a 1.0280226,1.0280226 0 0 0 0.03125,0 l 48.8125,0 c 1.665878,0 4.022349,0.23675 7.09375,-1.84375 a 1.0280226,1.0280226 0 0 0 0.28125,-0.21875 c 0.0578,-0.0515 0.139644,-0.12864 0.25,-0.21875 0.220712,-0.18022 0.516774,-0.41745 0.78125,-0.625 0.264476,-0.20755 0.495635,-0.39648 0.65625,-0.53125 0.04015,-0.0337 0.07966,-0.051 0.125,-0.0937 0.02267,-0.0214 0.04798,-0.0408 0.09375,-0.0937 0.02288,-0.0265 0.04727,-0.051 0.09375,-0.125 0.0081,-0.013 0.01807,-0.0366 0.03125,-0.0625 9.780644,-9.33282 27.440979,-28.680919 38.5,-39.875 1.71105,-1.711053 3.78125,-3.862728 3.78125,-8.5 l 0,-67.96875 a 1.0280226,1.0280226 0 0 0 0,-0.03125 C 113.82509,4.2829723 113.06085,3.5186039 112.03125,3.5 A 1.0280226,1.0280226 0 0 0 112,3.5 l -98.5625,0 c -0.03179,-0.00301 -0.06191,0.00137 -0.09375,0 -0.08491,-0.00365 -0.165226,-0.00803 -0.25,0 z"
       transform="matrix(1.003095,0,0,0.98228452,-1.7655506,0.69098557)" />
    <path
       style="fill:#ffffff;fill-opacity:1"
       d="m 11.608716,5.836076 0,116.330904 49.485099,0 c 1.680486,0 3.926459,-0.55989 7.021752,-3.56934 8.897609,-8.6509 32.175353,-31.250103 39.456483,-38.511869 2.44813,-2.441635 3.01026,-4.433083 3.01026,-6.66676 l -0.003,-67.582935 z"
       id="path34"
       sodipodi:nodetypes="cccssccc"
       inkscape:connector-curvature="0" />
    <path
       style="fill:url(#linearGradient4524-4);fill-opacity:1"
       d="m 17.07938,10.744349 c -0.340895,0 -0.501546,0.230461 -0.501546,0.491142 l 0,104.549779 c 0,0.80702 0.681425,1.474 1.504643,1.47343 l 44.496615,-0.0308 c 0.05324,-4e-5 0.812893,0.0229 1.504643,0.0308 1.783165,-0.0393 3.141667,-0.74038 4.369516,-1.56504 1.055122,-0.28588 25.815399,-23.810974 34.964739,-32.837827 1.36662,-1.348301 2.19223,-3.878226 2.19223,-4.808882 l 0,-66.81146 c 0,-0.317 -0.16372,-0.491143 -0.50156,-0.491143 z"
       id="path3967"
       inkscape:connector-curvature="0"
       sodipodi:nodetypes="ccsssccscccc" />
    <path
       sodipodi:nodetypes="ccssscccccc"
       inkscape:connector-curvature="0"
       id="path5980"
       d="m 17.07938,10.744349 c -0.340895,0 -0.501546,0.230461 -0.501546,0.491142 l 0,104.549779 c 0,0.80703 0.68144,1.46853 1.504643,1.47343 l 46.36344,0.27591 c 0.05324,3.2e-4 3.284015,-0.008 3.975766,5e-5 6.561216,-4.42387 26.757215,-26.379267 35.730127,-35.221607 0.65937,-0.724227 0.45902,-0.363513 1.45841,-1.578984 l 0,-69.498578 c 0,-0.317 -0.16372,-0.491143 -0.50156,-0.491143 z"
       style="opacity:0.84653476;fill:url(#radialGradient5988-0);fill-opacity:1" />
    <path
       style="fill:#000000"
       d=""
       id="path2197" />
    <g
       id="g4219"
       clip-path="url(#clipPath4232)"
       transform="matrix(1.69352,0,0,1.69352,-54.863838,-85.99399)">
      <path
         inkscape:connector-curvature="0"
         id="path4549"
         d="m 113.8,41.728474 c -1.22732,1.76303 -2.68623,3.570063 -4.46286,5.282621 -1.91808,1.848911 -4.18813,3.568965 -6.74539,5.056868 -2.80742,1.668991 -6.018937,3.065672 -9.538932,4.289307 -3.519995,1.223634 -7.357112,2.297987 -11.276384,3.521748 -3.773683,1.118246 -7.686488,2.397239 -11.514856,4.108704 -3.828368,1.711466 -7.559719,3.874785 -10.935707,6.591989 -1.893183,1.547927 -3.59593,3.296057 -5.042008,5.237471 -1.446079,1.941414 -2.614439,4.070518 -3.474898,6.321084 -0.935326,2.450468 -1.381875,4.989073 -1.328637,7.540152 0.05324,2.551084 0.589798,5.110032 1.601178,7.495 1.205445,2.792322 3.092367,5.165922 5.382685,7.043492 2.290316,1.87759 4.973119,3.23534 7.801485,4.06355 3.427076,0.94583 6.873446,0.93703 9.913679,0.31606 1.979098,-0.40956 3.714996,-1.09233 5.212346,-1.89633 1.497351,-0.80399 2.760768,-1.72141 3.781506,-2.66388 1.615736,-1.51737 2.550879,-2.96522 3.134221,-4.06355 0.583349,-1.09833 0.830538,-1.862998 0.885758,-2.122083 0.151774,-0.712094 0.187746,-1.488627 0.136271,-2.30268 -0.07644,-1.134264 -0.368255,-2.296727 -0.885758,-3.295996 -0.517508,-0.999267 -1.235387,-1.834895 -2.044058,-2.438132 -0.808671,-0.603235 -1.686118,-0.980038 -2.555071,-1.038464 -2.139158,-0.143831 -4.518074,0.582733 -6.132172,1.760874 -1.174007,0.856915 -2.384649,2.287789 -2.72541,3.973254 -0.111721,0.552585 -0.739874,1.081952 -1.056097,1.309367 -0.316221,0.227414 -0.730646,0.458137 -1.192366,0.632108 -0.722504,0.278504 -1.747016,0.367852 -2.861681,0.225753 -0.911988,-0.07051 -1.9257,-0.419618 -2.929815,-1.083614 -1.004115,-0.664002 -2.004557,-1.639402 -2.72541,-2.754187 -0.654418,-0.9974 -1.073432,-2.203711 -1.260502,-3.566898 -0.187069,-1.363172 -0.15043,-2.883432 0.170338,-4.379609 0.60752,-2.815064 2.382442,-5.711988 4.837602,-8.307711 2.182551,-2.34037 4.986429,-4.356862 8.142162,-6.140482 3.155735,-1.783614 6.655571,-3.327137 10.152152,-4.831115 3.683669,-1.547843 7.454273,-3.092564 11.003842,-4.785965 3.549565,-1.693407 6.886787,-3.5399 9.777407,-5.688976 2.63226,-1.964427 4.84091,-4.157692 6.64319,-6.366235 0.79171,-0.970172 1.46834,-1.918733 2.11219,-2.889639 l 0,-4.153856 z"
         style="fill:url(#linearGradient3181);fill-opacity:1;fill-rule:evenodd;stroke:none" />
      <path
         inkscape:connector-curvature="0"
         inkscape:original-d="m 113.8,41.728474 c -1.22732,1.76303 -2.68623,3.570063 -4.46286,5.282621 -1.91808,1.848911 -4.18813,3.568965 -6.74539,5.056868 -2.80742,1.668991 -6.018937,3.065672 -9.538932,4.289307 -3.519995,1.223634 -7.357112,2.297987 -11.276384,3.521748 -3.773683,1.118246 -7.686488,2.397239 -11.514856,4.108704 -3.828368,1.711466 -7.559719,3.874785 -10.935707,6.591989 -1.893183,1.547927 -3.59593,3.296057 -5.042008,5.237471 -1.446079,1.941414 -2.614439,4.070518 -3.474898,6.321084 -0.935326,2.450468 -1.381875,4.989073 -1.328637,7.540152 0.05324,2.551084 0.589798,5.110032 1.601178,7.495 1.205445,2.792322 3.092367,5.165922 5.382685,7.043492 2.290316,1.87759 4.973119,3.23534 7.801485,4.06355 3.427076,0.94583 6.873446,0.93703 9.913679,0.31606 1.979098,-0.40956 3.714996,-1.09233 5.212346,-1.89633 1.497351,-0.80399 2.760768,-1.72141 3.781506,-2.66388 1.615736,-1.51737 2.550879,-2.96522 3.134221,-4.06355 0.583349,-1.09833 0.830538,-1.862998 0.885758,-2.122083 0.151774,-0.712094 0.187746,-1.488627 0.136271,-2.30268 -0.07644,-1.134264 -0.368255,-2.296727 -0.885758,-3.295996 -0.517508,-0.999267 -1.235387,-1.834895 -2.044058,-2.438132 -0.808671,-0.603235 -1.686118,-0.980038 -2.555071,-1.038464 -2.139158,-0.143831 -4.518074,0.582733 -6.132172,1.760874 -1.174007,0.856915 -2.384649,2.287789 -2.72541,3.973254 -0.111721,0.552585 -0.739874,1.081952 -1.056097,1.309367 -0.316221,0.227414 -0.730646,0.458137 -1.192366,0.632108 -0.722504,0.278504 -1.747016,0.367852 -2.861681,0.225753 -0.911988,-0.07051 -1.9257,-0.419618 -2.929815,-1.083614 -1.004115,-0.664002 -2.004557,-1.639402 -2.72541,-2.754187 -0.654418,-0.9974 -1.073432,-2.203711 -1.260502,-3.566898 -0.187069,-1.363172 -0.15043,-2.883432 0.170338,-4.379609 0.60752,-2.815064 2.382442,-5.711988 4.837602,-8.307711 2.182551,-2.34037 4.986429,-4.356862 8.142162,-6.140482 3.155735,-1.783614 6.655571,-3.327137 10.152152,-4.831115 3.683669,-1.547843 7.454273,-3.092564 11.003842,-4.785965 3.549565,-1.693407 6.886787,-3.5399 9.777407,-5.688976 2.63226,-1.964427 4.84091,-4.157692 6.64319,-6.366235 0.79171,-0.970172 1.46834,-1.918733 2.11219,-2.889639 l 0,-4.153856 z"
         inkscape:path-effect="#path-effect4627"
         style="opacity:0.51046023;fill:#000000;fill-opacity:1;fill-rule:evenodd;stroke:#000000;stroke-width:0.57384062;stroke-miterlimit:4;stroke-opacity:1;stroke-dasharray:none"
         d="m 71.472474,108.85115 c 0.90099,-0.0671 1.797781,-0.19103 2.6829,-0.37127 1.805602,-0.37248 3.556282,-1.01019 5.181591,-1.88163 1.354733,-0.72648 2.630994,-1.60382 3.759311,-2.64456 1.244835,-1.16779 2.313637,-2.52676 3.114214,-4.032412 0,-10e-7 1e-6,-2e-6 1e-6,-3e-6 0.359371,-0.678636 0.721669,-1.361339 0.876713,-2.093187 0.158968,-0.741368 0.182905,-1.510155 0.135523,-2.27312 C 87.146837,94.42487 86.869474,93.3027 86.350574,92.300229 85.865897,91.363502 85.18154,90.525962 84.3381,89.896368 c -0.736491,-0.548053 -1.596268,-0.960622 -2.500321,-1.019964 -2.137541,-0.144834 -4.336631,0.476233 -6.068027,1.738452 -1.309524,0.95702 -2.372207,2.333295 -2.690341,3.913363 -0.129846,0.600906 -0.620562,1.034018 -1.094075,1.366388 -0.373678,0.268319 -0.784859,0.481537 -1.21389,0.642769 -10e-7,0 -3e-6,1e-6 -4e-6,1e-6 -0.922736,0.353343 -1.938913,0.355011 -2.903826,0.229556 -1.067965,-0.08434 -2.083956,-0.511818 -2.969543,-1.099754 -2e-6,-10e-7 -4e-6,-2e-6 -6e-6,-3e-6 -1.094508,-0.724648 -2.03696,-1.678653 -2.748833,-2.781067 -0.705011,-1.077335 -1.098677,-2.333348 -1.271409,-3.602617 -0.200056,-1.464703 -0.136592,-2.963667 0.174051,-4.408156 0.692475,-3.19028 2.625728,-5.982941 4.862152,-8.342276 2.336648,-2.501811 5.187449,-4.470157 8.163102,-6.149113 3.269644,-1.845207 6.716144,-3.348777 10.161803,-4.828274 10e-7,-10e-7 2e-6,-10e-7 3e-6,-2e-6 3.689334,-1.547616 7.394869,-3.058871 11.004522,-4.778284 3.407733,-1.623366 6.744002,-3.429132 9.772312,-5.677912 2.46206,-1.83507 4.69574,-3.976192 6.63896,-6.354499 0.75295,-0.919016 1.44948,-1.883891 2.10812,-2.873843 0.006,-1.380654 0.0125,-2.76154 0.0182,-4.142659 0.006,0 0.0127,0 0.019,0 -0.006,0 -0.0126,0 -0.0189,0 -0.004,1.381135 -0.008,2.762709 -0.0114,4.144723 -0.65703,0.99138 -1.35225,1.958433 -2.10431,2.880478 -1.93975,2.382592 -4.1709,4.528933 -6.63172,6.369827 0,10e-7 0,3e-6 -1e-5,4e-6 -3.0267,2.255729 -6.362232,4.0689 -9.768734,5.69888 -3.608296,1.726516 -7.312165,3.244729 -10.998236,4.798565 -3.442701,1.485507 -6.884136,2.993948 -10.144936,4.841948 -2.9677,1.682004 -5.807398,3.649515 -8.128514,6.144555 -2.222845,2.356527 -4.141455,5.13485 -4.818419,8.294327 -0.30504,1.430979 -0.365245,2.915107 -0.164743,4.363562 0.17394,1.253881 0.562969,2.490596 1.256623,3.544248 0,10e-7 1e-6,2e-6 1e-6,3e-6 0.703313,1.084868 1.633787,2.023358 2.712478,2.734934 0.873062,0.574864 1.867514,0.992508 2.903965,1.070657 0.953606,0.119182 1.946283,0.118729 2.832144,-0.225145 2e-6,-10e-7 4e-6,-2e-6 6e-6,-3e-6 0.417138,-0.157819 0.815892,-0.365273 1.176593,-0.625371 0.457969,-0.335703 0.926673,-0.736938 1.027689,-1.268762 0.329374,-1.63024 1.411209,-3.04285 2.748937,-4.019748 1.763418,-1.290145 4.000127,-1.926815 6.181551,-1.782472 0.95082,0.06448 1.844362,0.487578 2.600471,1.051958 0.869114,0.647114 1.573511,1.505135 2.072022,2.465519 10e-7,2e-6 2e-6,4e-6 3e-6,6e-6 0.534082,1.029273 0.820742,2.176862 0.899455,3.330785 0.05027,0.775588 0.0264,1.562761 -0.135511,2.328615 -0.164121,0.768425 -0.531751,1.469832 -0.892471,2.148193 -1e-6,0 -2e-6,0 -3e-6,0 -0.810082,1.52898 -1.890721,2.90853 -3.149958,4.09365 -1.142113,1.05676 -2.432178,1.94741 -3.800657,2.68409 -1.642868,0.88455 -3.413213,1.53296 -5.240758,1.91337 -1.434106,0.29459 -2.898844,0.44298 -4.363454,0.44277 -1.891734,-0.004 -3.782342,-0.25531 -5.605521,-0.75968 -2.846742,-0.83541 -5.545291,-2.20703 -7.83989,-4.09018 -2e-6,0 -3e-6,0 -5e-6,0 -2.318771,-1.90319 -4.220651,-4.3316 -5.408867,-7.088035 -1.007123,-2.379431 -1.552257,-4.951859 -1.604471,-7.534243 -0.05201,-2.581054 0.418339,-5.166347 1.340005,-7.576045 10e-7,0 10e-7,-10e-7 10e-7,-2e-6 0.866006,-2.260544 2.04422,-4.400902 3.491303,-6.34098 1.457485,-1.95382 3.173676,-3.709228 5.060542,-5.2498 3.333438,-2.679101 7.055246,-4.854246 10.958068,-6.595764 3.728918,-1.663902 7.613845,-2.947828 11.526185,-4.104221 1e-6,0 2e-6,0 3e-6,0 3.761085,-1.171626 7.558397,-2.223711 11.276433,-3.513458 2e-6,-1e-6 4e-6,-1e-6 6e-6,-2e-6 3.296973,-1.14381 6.532986,-2.498116 9.531684,-4.278275 1e-5,-10e-7 1e-5,-2e-6 1e-5,-3e-6 2.43236,-1.413106 4.71295,-3.094499 6.73933,-5.04522 1.66085,-1.598753 3.14158,-3.380865 4.46061,-5.27288 -1.31513,1.894733 -2.7924,3.680231 -4.45071,5.283155 -2.02324,1.955748 -4.30178,3.64303 -6.73317,5.062253 -2.997593,1.78777 -6.233575,3.150109 -9.530267,4.301284 -10e-7,10e-7 -2e-6,10e-7 -3e-6,10e-7 -3.717643,1.29815 -7.51399,2.358451 -11.271333,3.53739 -3.908467,1.164118 -7.787458,2.45485 -11.506817,4.123839 -3.89219,1.74654 -7.600998,3.924269 -10.918637,6.602234 -1.876011,1.5383 -3.580747,3.289161 -5.026279,5.235613 -1.435146,1.932346 -2.602198,4.063006 -3.458313,6.311617 -10e-7,2e-6 -2e-6,4e-6 -3e-6,6e-6 -0.909525,2.39301 -1.370734,4.958303 -1.313692,7.515607 0.05697,2.559834 0.602659,5.108385 1.605004,7.462806 1e-6,2e-6 1e-6,3e-6 2e-6,5e-6 1.179902,2.723502 3.067925,5.122368 5.366081,7.001238 10e-7,1e-5 3e-6,1e-5 4e-6,1e-5 2.273876,1.85925 4.94899,3.21134 7.769432,4.03317 2.328745,0.63933 4.768481,0.86125 7.176545,0.67707 z"
         id="path4625" />
      <path
         style="fill:none;stroke:#cd0000;stroke-width:0.1090164;stroke-linecap:butt;stroke-linejoin:miter;stroke-miterlimit:4;stroke-opacity:1;stroke-dasharray:none"
         d="M 84.910656,85.920492 70.193443,93.006557"
         id="path4637"
         inkscape:connector-curvature="0"
         sodipodi:nodetypes="cc" />
      <path
         style="opacity:0.40167362;fill:#006fc2;fill-opacity:1;stroke:none"
         d="m 84.910656,83.740164 0,0.545082 0,2.180328 0,0.545082 0.545082,0 2.180328,0 0.545082,0 0,-0.545082 0,-2.72541 -2.72541,0 z m 0.545082,0.545082 2.180328,0 0,2.180328 -2.180328,0 z"
         id="path4639"
         inkscape:connector-curvature="0"
         sodipodi:nodetypes="cccccccccccccccc" />
      <path
         sodipodi:nodetypes="cccccccccccccccc"
         inkscape:connector-curvature="0"
         id="path4641"
         d="m 67.468033,91.916393 0,0.545082 0,2.180328 0,0.545082 0.545082,0 2.180328,0 0.545082,0 0,-0.545082 0,-2.72541 -2.72541,0 z m 0.545082,0.545082 2.180328,0 0,2.180328 -2.180328,0 z"
         style="opacity:0.40167362;fill:#0075cd;fill-opacity:1;stroke:none" />
      <path
         inkscape:connector-curvature="0"
         id="path4645"
         d="m 76.189344,88.10082 0,2.72541 2.72541,0 0,-2.72541 -2.72541,0 z m 0.545082,0.545082 1.635246,0 0,1.635246 -1.635246,0 0,-1.635246 z"
         style="opacity:0.40167362;fill:url(#linearGradient3183);fill-opacity:1;stroke:none" />
      <path
         sodipodi:nodetypes="ccccc"
         inkscape:connector-curvature="0"
         id="path4781"
         d="m 50.717248,65.420054 0.113667,40.179356 2.248278,0.14802 0,-40.327376 z"
         style="font-size:medium;font-style:normal;font-variant:normal;font-weight:normal;font-stretch:normal;text-indent:0;text-align:start;text-decoration:none;line-height:normal;letter-spacing:normal;word-spacing:normal;text-transform:none;direction:ltr;block-progression:tb;writing-mode:lr-tb;text-anchor:start;baseline-shift:baseline;color:#000000;fill:url(#radialGradient3185);fill-opacity:1;stroke:none;stroke-width:0.5;marker:none;visibility:visible;display:inline;overflow:visible;enable-background:accumulate;font-family:Sans;-inkscape-font-specification:Sans" />
      <path
         sodipodi:nodetypes="ccccc"
         inkscape:connector-curvature="0"
         id="path4155"
         d="m 53.009376,91.991928 0,-6.857539 -6.868395,0 0,6.857539 z"
         style="fill:url(#linearGradient3187);fill-opacity:1;stroke:none" />
      <path
         style="fill:#0075cd;fill-opacity:1;stroke:none"
         d="m 46.138362,105.74743 0,3.43551 0,6.29958 0,0.57143 0.571429,0 9.163663,0 0.571429,0 0,-0.57143 0,-9.73509 -6.871014,0 z m 3.435507,3.43551 3.435507,0 0,3.43551 -3.435507,0 z"
         id="path4210"
         inkscape:connector-curvature="0"
         sodipodi:nodetypes="cccccccccccccccc" />
      <path
         sodipodi:nodetypes="cccccccccc"
         inkscape:connector-curvature="0"
         id="path4779"
         d="m 46.138362,57.650332 c 0,1.831109 0,8.649261 0,10.306521 1.716101,0 8.825066,0 10.306521,0 0,-1.666667 0,-8.639854 0,-10.306521 -1.666667,0 -8.639849,-5e-6 -10.306521,0 z m 3.435507,3.435507 3.435507,0 0,3.435507 -3.435507,0 z"
         style="fill:#0075cd;fill-opacity:1;stroke:none" />
    </g>
    <path
       clip-path="url(#clipPath6093-7)"
       style="opacity:0.6056338;fill:#000000;fill-opacity:1;stroke:none;filter:url(#filter6171-8)"
       d="m 114.4,82.502986 c 0,4.465301 -9.3766,4.299815 -11.85883,5.983488 -5.108537,3.46508 -16.574334,-0.810699 -22.355504,-0.729679 -0.081,5.781159 0.365076,18.386735 0.365076,24.536755 0,2.97817 -3.440475,11.20945 -6.350745,11.20945 -2.091359,1.5337 3.488204,8.21101 6.734971,5.31989 9.501888,-8.46107 35.131682,-30.022701 43.350822,-39.262886 2.04044,-2.29392 -4.90514,-9.844666 -9.88579,-7.057018 z"
       id="path6153"
       inkscape:connector-curvature="0"
       sodipodi:nodetypes="cscscssc"
       transform="matrix(1.258302,0,0,1.2610357,-31.355772,-28.164007)" />
    <path
       sodipodi:nodetypes="cscscssc"
       inkscape:connector-curvature="0"
       id="path6081"
       d="m 113.9,82.502986 c 0,4.465301 -7.96273,7.457662 -10.95287,7.881439 -6.394981,0.906328 -15.304541,-0.844131 -21.085711,-0.763111 -0.081,5.781159 3.397918,20.001056 -0.06716,25.109596 -1.68367,2.48224 -3.883991,8.07209 -6.794261,8.07209 -2.091359,1.5337 3.488204,11.21101 6.734971,8.31989 9.501888,-8.46107 45.998943,-30.20138 54.218083,-39.441569 2.04044,-2.29392 -17.0724,-11.965986 -22.05305,-9.178335 z"
       style="opacity:0.64319249;fill:#000000;fill-opacity:1;stroke:none;filter:url(#filter4087)"
       clip-path="url(#clipPath6093-7)"
       transform="matrix(1.3586765,0,0,1.3616521,-42.382653,-40.155635)" />
    <path
       style="fill:url(#linearGradient3895-3);fill-opacity:1;stroke:none"
       d="m 110.63455,70.194961 c 0,6.22666 -3.89615,8.938389 -7.35324,11.28619 -7.11485,4.831902 -21.758838,3.808851 -29.810472,3.92183 -0.112812,8.061568 0.720236,21.530529 -4.105701,28.654139 -2.344905,3.46138 -6.904898,8.42993 -10.95813,8.42993 3.228399,0 6.605514,-1.86127 10.562523,-5.69609 12.732335,-12.33915 24.187814,-22.50002 35.75589,-35.27627 2.67259,-2.951702 5.90913,-5.078441 5.90913,-11.319729 z"
       id="path6011"
       inkscape:connector-curvature="0"
       sodipodi:nodetypes="cscscssc" />
    <path
       style="fill:#ffffff;fill-opacity:1;stroke:none"
       d="m 110.66063,69.760596 c -0.44065,5.437134 -4.51314,7.338042 -6.73057,8.843942 -5.25734,3.570397 -12.241076,3.279514 -34.154353,3.279514 0,19.761338 0.513212,28.553598 -3.305002,33.382518 -2.272989,2.87466 -6.824021,6.07997 -10.532933,6.90254 5.082113,0 8.629228,-1.08751 11.949253,-4.30502 0.472301,-0.5418 1.415698,-1.55003 2.15657,-2.69493 3.94064,-5.81684 3.837814,-17.294735 3.837814,-29.263474 8.051633,-0.11295 22.202451,1.162156 29.317291,-3.669742 0.64822,-0.440215 2.63774,-2.020759 3.2183,-2.58944 3.22475,-3.158721 3.92397,-5.17219 4.24363,-9.885908 z M 55.937772,122.16911 c -0.219575,0.0485 -0.436533,0.0579 -0.652846,0.087 0.218648,-0.0234 0.432367,-0.0468 0.652846,-0.087 z"
       id="path6122"
       inkscape:connector-curvature="0"
       sodipodi:nodetypes="cscsccccsscccc" />
    <path
       style="fill:none;stroke:url(#radialGradient3919-5);stroke-width:1.82707405;stroke-linecap:butt;stroke-linejoin:miter;stroke-miterlimit:4;stroke-opacity:1;stroke-dasharray:none;filter:url(#filter3909-6)"
       d="M 108.97651,89.508691 79.934895,118.21077"
       id="path3873"
       inkscape:connector-curvature="0"
       sodipodi:nodetypes="cc"
       clip-path="url(#clipPath3889-6)"
       transform="matrix(1.3927341,0,0,1.3944553,-45.351691,-44.851769)" />
  </g>
</svg>
