<?xml version="1.0" encoding="UTF-8" standalone="no"?>
<!-- Created with Inkscape (http://www.inkscape.org/) -->

<svg
   xmlns:dc="http://purl.org/dc/elements/1.1/"
   xmlns:cc="http://creativecommons.org/ns#"
   xmlns:rdf="http://www.w3.org/1999/02/22-rdf-syntax-ns#"
   xmlns:svg="http://www.w3.org/2000/svg"
   xmlns="http://www.w3.org/2000/svg"
   xmlns:xlink="http://www.w3.org/1999/xlink"
   xmlns:sodipodi="http://sodipodi.sourceforge.net/DTD/sodipodi-0.dtd"
   xmlns:inkscape="http://www.inkscape.org/namespaces/inkscape"
   width="88"
   height="88"
   id="svg2"
   sodipodi:version="0.32"
   inkscape:version="0.46+devel"
   version="1.0"
   sodipodi:docname="korgac.svgz"
   inkscape:output_extension="org.inkscape.output.svgz.inkscape"
   inkscape:export-filename="/home/pinheiro/pics/oxygen-icons/scalable/apps/small/22x22/korgac.png"
   inkscape:export-xdpi="45"
   inkscape:export-ydpi="45">
  <defs
     id="defs4">
    <linearGradient
       id="linearGradient3319"
       inkscape:collect="always">
      <stop
         id="stop3321"
         offset="0"
         style="stop-color:#323232;stop-opacity:1;" />
      <stop
         id="stop3323"
         offset="1"
         style="stop-color:#888888;stop-opacity:1" />
    </linearGradient>
    <linearGradient
       id="linearGradient3313"
       inkscape:collect="always">
      <stop
         id="stop3315"
         offset="0"
         style="stop-color:#323232;stop-opacity:1;" />
      <stop
         id="stop3317"
         offset="1"
         style="stop-color:#888888;stop-opacity:1" />
    </linearGradient>
    <linearGradient
       inkscape:collect="always"
       id="linearGradient3560">
      <stop
         style="stop-color:#ffffff;stop-opacity:1;"
         offset="0"
         id="stop3562" />
      <stop
         style="stop-color:#ffffff;stop-opacity:0;"
         offset="1"
         id="stop3564" />
    </linearGradient>
    <linearGradient
       id="linearGradient3533">
      <stop
         style="stop-color:#72d13d;stop-opacity:1"
         offset="0"
         id="stop3535" />
      <stop
         style="stop-color:#007a00;stop-opacity:1;"
         offset="1"
         id="stop3537" />
    </linearGradient>
    <linearGradient
       inkscape:collect="always"
       id="linearGradient3358">
      <stop
         style="stop-color:#eeeeee;stop-opacity:1;"
         offset="0"
         id="stop3360" />
      <stop
         style="stop-color:#ffffff;stop-opacity:1"
         offset="1"
         id="stop3362" />
    </linearGradient>
    <linearGradient
       inkscape:collect="always"
       id="linearGradient3346">
      <stop
         style="stop-color:#ffffff;stop-opacity:1;"
         offset="0"
         id="stop3348" />
      <stop
         style="stop-color:#ffffff;stop-opacity:0;"
         offset="1"
         id="stop3350" />
    </linearGradient>
    <linearGradient
       inkscape:collect="always"
       id="linearGradient3336">
      <stop
         style="stop-color:#242424;stop-opacity:1"
         offset="0"
         id="stop3338" />
      <stop
         style="stop-color:#1a1a1a;stop-opacity:1"
         offset="1"
         id="stop3340" />
    </linearGradient>
    <linearGradient
       inkscape:collect="always"
       xlink:href="#linearGradient3336"
       id="linearGradient3440"
       x1="66.532005"
       y1="28.179592"
       x2="66.532005"
       y2="101.08517"
       gradientUnits="userSpaceOnUse"
       gradientTransform="matrix(0.7142857,0,0,0.8160649,-5.7142857,-8.870748)" />
    <linearGradient
       inkscape:collect="always"
       xlink:href="#linearGradient3358"
       id="linearGradient3452"
       x1="106.68881"
       y1="99.584045"
       x2="65.884895"
       y2="36.437515"
       gradientUnits="userSpaceOnUse"
       gradientTransform="matrix(0.75,0,0,0.4000001,-8.0000002,33.200001)" />
    <radialGradient
       inkscape:collect="always"
       xlink:href="#linearGradient3533"
       id="radialGradient3531"
       cx="64"
       cy="-14.787872"
       fx="64"
       fy="-14.787872"
       r="48.25"
       gradientTransform="matrix(1.2808271,0,0,0.2489196,-41.972939,21.680989)"
       gradientUnits="userSpaceOnUse" />
    <radialGradient
       inkscape:collect="always"
       xlink:href="#linearGradient3560"
       id="radialGradient3570"
       gradientUnits="userSpaceOnUse"
       gradientTransform="matrix(0.5586707,0,0,0.5221826,-2.1878808,2.4310115)"
       cx="34.87669"
       cy="13.849469"
       fx="30.739819"
       fy="6.6865129"
       r="12" />
    <radialGradient
       inkscape:collect="always"
       xlink:href="#linearGradient3346"
       id="radialGradient3576"
       gradientUnits="userSpaceOnUse"
       gradientTransform="matrix(0.8539059,0,0,0.5755007,-14.649974,10.345079)"
       cx="64"
       cy="11.847499"
       fx="64"
       fy="11.847499"
       r="56" />
    <linearGradient
       inkscape:collect="always"
       xlink:href="#linearGradient3319"
       id="linearGradient3630"
       x1="107.20866"
       y1="42.472649"
       x2="107.20866"
       y2="19.986471"
       gradientUnits="userSpaceOnUse"
       gradientTransform="matrix(0.5000001,0,0,0.625,-32.000016,3.5000003)" />
    <linearGradient
       inkscape:collect="always"
       xlink:href="#linearGradient3313"
       id="linearGradient3305"
       gradientUnits="userSpaceOnUse"
       gradientTransform="matrix(0.5000001,0,0,0.625,11.999984,3.5000003)"
       x1="107.71951"
       y1="42.881332"
       x2="107.71951"
       y2="19.999847" />
    <radialGradient
       inkscape:collect="always"
       xlink:href="#linearGradient3560"
       id="radialGradient3307"
       gradientUnits="userSpaceOnUse"
       gradientTransform="matrix(0.5586707,0,0,0.5221826,41.812119,2.4310115)"
       cx="34.87669"
       cy="13.849469"
       fx="30.739819"
       fy="6.6865129"
       r="12" />
    <radialGradient
       r="27.455904"
       fy="48.36097"
       fx="87.160835"
       cy="48.36097"
       cx="87.160835"
       gradientTransform="matrix(1.4591887,0,0,1,-40.023272,0)"
       gradientUnits="userSpaceOnUse"
       id="radialGradient4916"
       xlink:href="#linearGradient6212"
       inkscape:collect="always" />
    <radialGradient
       r="31.190229"
       fy="84.275475"
       fx="-166.53223"
       cy="84.275475"
       cx="-166.53223"
       gradientUnits="userSpaceOnUse"
       id="radialGradient4914"
       xlink:href="#linearGradient5960"
       inkscape:collect="always" />
    <radialGradient
       r="31.190229"
       fy="65.938202"
       fx="-166.53223"
       cy="65.938202"
       cx="-166.53223"
       gradientTransform="matrix(1,0,0,0.6578174,0,22.562908)"
       gradientUnits="userSpaceOnUse"
       id="radialGradient4912"
       xlink:href="#linearGradient5990"
       inkscape:collect="always" />
    <radialGradient
       r="31.190229"
       fy="121.98301"
       fx="-166.94461"
       cy="116.62209"
       cx="-166.53223"
       gradientUnits="userSpaceOnUse"
       id="radialGradient4910"
       xlink:href="#linearGradient6138"
       inkscape:collect="always" />
    <linearGradient
       y2="103.61061"
       x2="-21.07991"
       y1="71.783142"
       x1="-48.92366"
       gradientUnits="userSpaceOnUse"
       id="linearGradient4908"
       xlink:href="#linearGradient4880"
       inkscape:collect="always" />
    <filter
       id="filter4900"
       inkscape:collect="always">
      <feGaussianBlur
         id="feGaussianBlur4902"
         stdDeviation="0.29348363"
         inkscape:collect="always" />
    </filter>
    <filter
       id="filter4862"
       inkscape:collect="always">
      <feGaussianBlur
         id="feGaussianBlur4864"
         stdDeviation="0.71419782"
         inkscape:collect="always" />
    </filter>
    <radialGradient
       r="45.65625"
       fy="2.569855"
       fx="-267.31253"
       cy="2.569855"
       cx="-267.31253"
       gradientTransform="matrix(0.80013505,0,0,0.81108834,-12.96929,-1.8208978)"
       gradientUnits="userSpaceOnUse"
       id="radialGradient4808"
       xlink:href="#linearGradient4775"
       inkscape:collect="always" />
    <clipPath
       id="clipPath4804"
       clipPathUnits="userSpaceOnUse">
      <path
         id="path4806"
         d="m -226.60536,-63.767767 c -2.43046,0 -4.40074,1.97028 -4.40074,4.400743 0,0.118251 0.0158,0.23416 0.025,0.350059 -13.49932,2.157923 -19.37832,14.905365 -20.97854,26.729511 -1.75833,12.992495 -4.19184,24.3895632 -10.50177,28.9298832 -0.67538,0.485944 -0.9252,1.470749 -0.9252,2.57543501 l 0.40007,0 c -0.002,-0.04314 0,-0.08175 0,-0.125021 0,-5.59401901 16.19313,-8.57644801 36.1561,-8.57644801 19.96297,0 36.15611,2.982429 36.15611,8.57644801 0,0.04327 0.002,0.08188 0,0.125021 l 0.35006,0 c 0,-1.10468601 -0.24982,-2.08949101 -0.92516,-2.57543501 -6.30993,-4.54032 -8.74344,-15.9373882 -10.50177,-28.9298832 -1.58033,-11.677223 -7.33361,-24.265086 -20.47846,-26.654498 0.0134,-0.139973 0.025,-0.281582 0.025,-0.425072 0,-2.430463 -1.97027,-4.400743 -4.40074,-4.400743 z m -0.22504,55.5843822 c -1.49273,0 -2.95635,0.01673 -4.40074,0.05001 -1.09482,1.055168 -1.7753,2.535093 -1.7753,4.175705 0,3.20379201 2.59719,5.800979 5.80098,5.800979 3.20379,0 5.80098,-2.59718699 5.80098,-5.800979 0,-1.653517 -0.69033,-3.144019 -1.8003,-4.200709 -1.19097,-0.02236 -2.4029,-0.025 -3.62562,-0.025 z m -36.50616,7.42625301 c 0.22806,5.81176699 16.48948,11.05186479 36.50616,11.05186479 20.01669,0 36.2781,-5.2400978 36.50617,-11.05186479 l -0.37507,0 c -0.2875,5.52454799 -16.34757,9.97668389 -36.1311,9.97668389 -19.78352,0 -35.84359,-4.4521359 -36.13109,-9.97668389 l -0.37507,0 z"
         style="fill:url(#radialGradient4808);fill-opacity:1;stroke-width:1px" />
    </clipPath>
    <linearGradient
       inkscape:collect="always"
       id="linearGradient6212">
      <stop
         style="stop-color:#020910;stop-opacity:1"
         offset="0"
         id="stop6214" />
      <stop
         style="stop-color:#113e69;stop-opacity:0"
         offset="1"
         id="stop6216" />
    </linearGradient>
    <linearGradient
       id="linearGradient6138"
       gradientUnits="userSpaceOnUse"
       x1="-84.002403"
       y1="-383.9971"
       x2="-12.0029"
       y2="-383.9971"
       gradientTransform="matrix(0,1,-1,0,-39.9985,140.0029)">
      <stop
         offset="0"
         style="stop-color:#0081ec;stop-opacity:1;"
         id="stop6140" />
      <stop
         offset="1"
         style="stop-color:#004c98;stop-opacity:1;"
         id="stop6142" />
    </linearGradient>
    <linearGradient
       inkscape:collect="always"
       id="linearGradient5990">
      <stop
         style="stop-color:#ffffff;stop-opacity:1;"
         offset="0"
         id="stop5992" />
      <stop
         style="stop-color:#ffffff;stop-opacity:0;"
         offset="1"
         id="stop5994" />
    </linearGradient>
    <linearGradient
       id="linearGradient5960"
       gradientUnits="userSpaceOnUse"
       x1="-84.002403"
       y1="-383.9971"
       x2="-12.0029"
       y2="-383.9971"
       gradientTransform="matrix(0,1,-1,0,-39.9985,140.0029)">
      <stop
         offset="0"
         style="stop-color:#0081ec;stop-opacity:1;"
         id="stop5962" />
      <stop
         offset="1"
         style="stop-color:#003871;stop-opacity:1;"
         id="stop5964" />
    </linearGradient>
    <linearGradient
       id="linearGradient5919">
      <stop
         style="stop-color:#ffffff;stop-opacity:1;"
         offset="0"
         id="stop5921" />
      <stop
         id="stop6238"
         offset="0.5"
         style="stop-color:#78c9ff;stop-opacity:0.49803922;" />
      <stop
         style="stop-color:#ffffff;stop-opacity:0;"
         offset="1"
         id="stop5923" />
    </linearGradient>
    <filter
       inkscape:collect="always"
       id="filter5956">
      <feGaussianBlur
         inkscape:collect="always"
         stdDeviation="0.55418773"
         id="feGaussianBlur5958" />
    </filter>
    <filter
       inkscape:collect="always"
       id="filter6074">
      <feGaussianBlur
         inkscape:collect="always"
         stdDeviation="1.9142018"
         id="feGaussianBlur6076" />
    </filter>
    <clipPath
       clipPathUnits="userSpaceOnUse"
       id="clipPath6080">
      <path
         d="M -135.842,93.331604 A 30.690229,30.690229 0 1 1 -197.22246,93.331604 A 30.690229,30.690229 0 1 1 -135.842,93.331604 z"
         sodipodi:ry="30.690229"
         sodipodi:rx="30.690229"
         sodipodi:cy="93.331604"
         sodipodi:cx="-166.53223"
         id="path6082"
         style="opacity:1;fill:url(#radialGradient6084);fill-opacity:1;stroke:none;stroke-width:1;stroke-linecap:round;stroke-linejoin:round;stroke-miterlimit:4;stroke-dasharray:none;stroke-dashoffset:1.08779998;stroke-opacity:1;filter:url(#filter6074)"
         sodipodi:type="arc" />
    </clipPath>
    <radialGradient
       inkscape:collect="always"
       xlink:href="#linearGradient5990"
       id="radialGradient6084"
       gradientUnits="userSpaceOnUse"
       gradientTransform="matrix(1,0,0,0.6578174,0,22.562908)"
       cx="-166.53223"
       cy="65.938202"
       fx="-166.53223"
       fy="65.938202"
       r="31.190229" />
    <filter
       inkscape:collect="always"
       id="filter3754">
      <feGaussianBlur
         inkscape:collect="always"
         stdDeviation="2.1987391"
         id="feGaussianBlur3756" />
    </filter>
    <filter
       height="1.4351385"
       y="-0.21756924"
       width="1.0024133"
       x="-0.0012066553"
       id="filter4044"
       inkscape:collect="always">
      <feGaussianBlur
         id="feGaussianBlur4046"
         stdDeviation="0.052082832"
         inkscape:collect="always" />
    </filter>
    <radialGradient
       gradientUnits="userSpaceOnUse"
       gradientTransform="matrix(2.9258772,8.4811812e-8,-1.7176693e-8,0.59256951,-88.338689,11.073857)"
       r="53.092689"
       fy="144.9021"
       fx="51.74197"
       cy="145.32399"
       cx="57.723083"
       id="radialGradient4020"
       xlink:href="#linearGradient3602"
       inkscape:collect="always" />
    <filter
       id="filter4016"
       inkscape:collect="always">
      <feGaussianBlur
         id="feGaussianBlur4018"
         stdDeviation="0.8782445"
         inkscape:collect="always" />
    </filter>
    <linearGradient
       y2="96"
       x2="83.25"
       y1="95.743515"
       x1="83.25"
       spreadMethod="reflect"
       gradientTransform="matrix(1.206652,0,0,1.2520066,-13.20983,-27.904197)"
       gradientUnits="userSpaceOnUse"
       id="linearGradient3913"
       xlink:href="#linearGradient3534"
       inkscape:collect="always" />
    <radialGradient
       gradientUnits="userSpaceOnUse"
       gradientTransform="matrix(2.7893756,0,0,0.02692865,-114.50247,100.72826)"
       r="59.801739"
       fy="169.48343"
       fx="63.990181"
       cy="169.48343"
       cx="63.990181"
       id="radialGradient3907"
       xlink:href="#linearGradient3336-3"
       inkscape:collect="always" />
    <filter
       height="2.3333934"
       y="-0.66669672"
       width="1.012109"
       x="-0.0060544879"
       id="filter3897"
       inkscape:collect="always">
      <feGaussianBlur
         id="feGaussianBlur3899"
         stdDeviation="0.24553426"
         inkscape:collect="always" />
    </filter>
    <radialGradient
       gradientUnits="userSpaceOnUse"
       gradientTransform="matrix(1.7190246,0,0,0.05605515,-46.027391,96.18878)"
       r="49"
       fy="99.5"
       fx="64"
       cy="99.5"
       cx="64"
       id="radialGradient5069"
       xlink:href="#linearGradient5063"
       inkscape:collect="always" />
    <radialGradient
       r="49"
       fy="19.171146"
       fx="64"
       cy="23.384613"
       cx="64"
       gradientTransform="matrix(4.921373,-2.8013743e-8,0,0.15644215,-250.97768,23.780244)"
       gradientUnits="userSpaceOnUse"
       id="radialGradient3968"
       xlink:href="#linearGradient3346-1"
       inkscape:collect="always" />
    <linearGradient
       y2="36.951378"
       x2="34"
       y1="27.9375"
       x1="34"
       gradientTransform="matrix(1.2219036,0,0,1.0396065,58.491614,-17.310794)"
       gradientUnits="userSpaceOnUse"
       id="linearGradient3947"
       xlink:href="#linearGradient3929"
       inkscape:collect="always" />
    <linearGradient
       y2="36.951378"
       x2="34"
       y1="27.9375"
       x1="34"
       gradientTransform="matrix(1.2219036,0,0,1.0396065,38.941156,-17.310794)"
       gradientUnits="userSpaceOnUse"
       id="linearGradient3943"
       xlink:href="#linearGradient3929"
       inkscape:collect="always" />
    <linearGradient
       y2="36.951378"
       x2="34"
       y1="27.9375"
       x1="34"
       gradientTransform="matrix(1.2219036,0,0,1.0396065,4.7278546,-17.310794)"
       gradientUnits="userSpaceOnUse"
       id="linearGradient3939"
       xlink:href="#linearGradient3929"
       inkscape:collect="always" />
    <linearGradient
       gradientTransform="matrix(1.2219036,0,0,1.0396065,-13.6007,-17.310794)"
       gradientUnits="userSpaceOnUse"
       y2="36.951378"
       x2="34"
       y1="27.9375"
       x1="34"
       id="linearGradient3935"
       xlink:href="#linearGradient3929"
       inkscape:collect="always" />
    <filter
       id="filter3923"
       inkscape:collect="always">
      <feGaussianBlur
         id="feGaussianBlur3925"
         stdDeviation="0.448125"
         inkscape:collect="always" />
    </filter>
    <radialGradient
       r="1.5"
       fy="26.913879"
       fx="34.444298"
       cy="27.466469"
       cx="34.5"
       gradientTransform="matrix(7.0783212,9.7805078e-6,-2.9066609e-6,1.5227453,-144.16566,-30.319216)"
       gradientUnits="userSpaceOnUse"
       id="radialGradient3905"
       xlink:href="#linearGradient3883"
       inkscape:collect="always" />
    <radialGradient
       r="1.5"
       fy="26.913879"
       fx="34.444298"
       cy="27.466469"
       cx="34.5"
       gradientTransform="matrix(7.0783212,9.7805078e-6,-2.9066609e-6,1.5227453,-163.71612,-30.319216)"
       gradientUnits="userSpaceOnUse"
       id="radialGradient3901"
       xlink:href="#linearGradient3883"
       inkscape:collect="always" />
    <radialGradient
       r="1.5"
       fy="26.913879"
       fx="34.444298"
       cy="27.466469"
       cx="34.5"
       gradientTransform="matrix(7.0783212,9.7805078e-6,-2.9066609e-6,1.5227453,-197.92942,-30.319216)"
       gradientUnits="userSpaceOnUse"
       id="radialGradient3897"
       xlink:href="#linearGradient3883"
       inkscape:collect="always" />
    <radialGradient
       gradientUnits="userSpaceOnUse"
       gradientTransform="matrix(7.0783212,9.7805078e-6,-2.9066609e-6,1.5227453,-216.25797,-30.319216)"
       r="1.5"
       fy="26.913879"
       fx="34.444298"
       cy="27.466469"
       cx="34.5"
       id="radialGradient3889"
       xlink:href="#linearGradient3883"
       inkscape:collect="always" />
    <linearGradient
       y2="26.048826"
       x2="48.464134"
       y1="26.887548"
       x1="52.474319"
       gradientUnits="userSpaceOnUse"
       id="linearGradient3869"
       xlink:href="#linearGradient3851-8"
       inkscape:collect="always" />
    <linearGradient
       y2="26.048826"
       x2="48.464134"
       y1="26.887548"
       x1="52.474319"
       gradientUnits="userSpaceOnUse"
       id="linearGradient3865"
       xlink:href="#linearGradient3851-8"
       inkscape:collect="always" />
    <linearGradient
       y2="26.048826"
       x2="48.464134"
       y1="26.887548"
       x1="52.474319"
       gradientUnits="userSpaceOnUse"
       id="linearGradient3861"
       xlink:href="#linearGradient3851-8"
       inkscape:collect="always" />
    <linearGradient
       gradientUnits="userSpaceOnUse"
       y2="26.048826"
       x2="48.464134"
       y1="26.887548"
       x1="52.474319"
       id="linearGradient3857-6"
       xlink:href="#linearGradient3851-8"
       inkscape:collect="always" />
    <filter
       id="filter3847"
       height="1.0576092"
       y="-0.028804577"
       width="1.2877714"
       x="-0.14388569"
       inkscape:collect="always">
      <feGaussianBlur
         id="feGaussianBlur3849"
         stdDeviation="0.1800286"
         inkscape:collect="always" />
    </filter>
    <linearGradient
       y2="24.975794"
       x2="38.851093"
       y1="40"
       x1="38.851093"
       gradientTransform="translate(10,0)"
       gradientUnits="userSpaceOnUse"
       id="linearGradient3833"
       xlink:href="#linearGradient3751"
       inkscape:collect="always" />
    <linearGradient
       y2="24.975794"
       x2="38.851093"
       y1="40"
       x1="38.851093"
       gradientTransform="matrix(1.2219037,0,0,1.0396065,51.771144,-16.790991)"
       gradientUnits="userSpaceOnUse"
       id="linearGradient3823"
       xlink:href="#linearGradient3751"
       inkscape:collect="always" />
    <radialGradient
       r="2.2980971"
       fy="40.524872"
       fx="39.944393"
       cy="40.017059"
       cx="39.863144"
       gradientTransform="matrix(1,0,0,0.7884615,0,8.1643664)"
       gradientUnits="userSpaceOnUse"
       id="radialGradient3821"
       xlink:href="#linearGradient3554"
       inkscape:collect="always" />
    <radialGradient
       r="2.2980971"
       fy="41.13155"
       fx="39.863144"
       cy="38.595184"
       cx="39.863144"
       gradientTransform="matrix(1,0,0,0.7884615,0,8.1643664)"
       gradientUnits="userSpaceOnUse"
       id="radialGradient3819"
       xlink:href="#linearGradient3602"
       inkscape:collect="always" />
    <linearGradient
       y2="24.975794"
       x2="38.851093"
       y1="40"
       x1="38.851093"
       gradientTransform="matrix(1.2219037,0,0,1.0396065,32.220686,-16.790991)"
       gradientUnits="userSpaceOnUse"
       id="linearGradient3809"
       xlink:href="#linearGradient3751"
       inkscape:collect="always" />
    <radialGradient
       r="2.2980971"
       fy="40.524872"
       fx="39.944393"
       cy="40.017059"
       cx="39.863144"
       gradientTransform="matrix(1,0,0,0.7884615,0,8.1643664)"
       gradientUnits="userSpaceOnUse"
       id="radialGradient3807"
       xlink:href="#linearGradient3554"
       inkscape:collect="always" />
    <radialGradient
       r="2.2980971"
       fy="41.13155"
       fx="39.863144"
       cy="38.595184"
       cx="39.863144"
       gradientTransform="matrix(1,0,0,0.7884615,0,8.1643664)"
       gradientUnits="userSpaceOnUse"
       id="radialGradient3805"
       xlink:href="#linearGradient3602"
       inkscape:collect="always" />
    <radialGradient
       r="2.2980971"
       fy="40.524872"
       fx="39.944393"
       cy="40.017059"
       cx="39.863144"
       gradientTransform="matrix(1,0,0,0.7884615,0,8.1643664)"
       gradientUnits="userSpaceOnUse"
       id="radialGradient3781"
       xlink:href="#linearGradient3554"
       inkscape:collect="always" />
    <radialGradient
       r="2.2980971"
       fy="41.13155"
       fx="39.863144"
       cy="38.595184"
       cx="39.863144"
       gradientTransform="matrix(1,0,0,0.7884615,0,8.1643664)"
       gradientUnits="userSpaceOnUse"
       id="radialGradient3779"
       xlink:href="#linearGradient3602"
       inkscape:collect="always" />
    <linearGradient
       gradientTransform="matrix(1.2219037,0,0,1.0396065,-1.9926156,-16.790991)"
       y2="24.975794"
       x2="38.851093"
       y1="40"
       x1="38.851093"
       gradientUnits="userSpaceOnUse"
       id="linearGradient3777"
       xlink:href="#linearGradient3751"
       inkscape:collect="always" />
    <radialGradient
       r="2.2980971"
       fy="40.524872"
       fx="39.944393"
       cy="40.017059"
       cx="39.863144"
       gradientTransform="matrix(1,0,0,0.7884615,0,8.1643664)"
       gradientUnits="userSpaceOnUse"
       id="radialGradient3775"
       xlink:href="#linearGradient3554"
       inkscape:collect="always" />
    <radialGradient
       r="2.2980971"
       fy="41.13155"
       fx="39.863144"
       cy="38.595184"
       cx="39.863144"
       gradientTransform="matrix(1,0,0,0.7884615,0,8.1643664)"
       gradientUnits="userSpaceOnUse"
       id="radialGradient3773"
       xlink:href="#linearGradient3602"
       inkscape:collect="always" />
    <linearGradient
       gradientTransform="matrix(1.2219037,0,0,1.0396065,-20.32117,-16.790991)"
       gradientUnits="userSpaceOnUse"
       y2="24.975794"
       x2="38.851093"
       y1="40"
       x1="38.851093"
       id="linearGradient3757"
       xlink:href="#linearGradient3751"
       inkscape:collect="always" />
    <filter
       id="filter3598"
       inkscape:collect="always">
      <feGaussianBlur
         id="feGaussianBlur3600"
         stdDeviation="0.12319906"
         inkscape:collect="always" />
    </filter>
    <linearGradient
       gradientTransform="matrix(1.1738705,0,0,1.2207566,-11.135848,-20.004195)"
       spreadMethod="reflect"
       gradientUnits="userSpaceOnUse"
       y2="96"
       x2="83.25"
       y1="95.743515"
       x1="83.25"
       id="linearGradient3540"
       xlink:href="#linearGradient3534"
       inkscape:collect="always" />
    <radialGradient
       r="38.4375"
       fy="8.8972864"
       fx="64"
       cy="17.676546"
       cx="64"
       gradientTransform="matrix(1.5076929,-3.1592147e-7,7.5807445e-8,0.36178087,-32.540304,14.279618)"
       gradientUnits="userSpaceOnUse"
       id="radialGradient3411"
       xlink:href="#linearGradient3413"
       inkscape:collect="always" />
    <radialGradient
       gradientUnits="userSpaceOnUse"
       gradientTransform="matrix(1.5786029,0,0,0.35563068,-37.040404,20.645851)"
       r="38.4375"
       fy="-4.5507264"
       fx="64"
       cy="-4.5507264"
       cx="64"
       id="radialGradient3387"
       xlink:href="#linearGradient3379"
       inkscape:collect="always" />
    <linearGradient
       gradientTransform="matrix(1.2207566,0,0,1.2051503,-14.13824,-19.453836)"
       gradientUnits="userSpaceOnUse"
       y2="30.643642"
       x2="79.868134"
       y1="90.52433"
       x1="94.348511"
       id="linearGradient3364"
       xlink:href="#linearGradient3358-0"
       inkscape:collect="always" />
    <radialGradient
       gradientUnits="userSpaceOnUse"
       gradientTransform="matrix(1.6918084,0,0,1.6735323,-44.285557,-91.281405)"
       r="49"
       fy="80.429489"
       fx="63.855007"
       cy="110.23445"
       cx="64"
       id="radialGradient3352"
       xlink:href="#linearGradient3346-1"
       inkscape:collect="always" />
    <linearGradient
       gradientTransform="matrix(1.2207566,0,0,1.2207566,-14.13824,-20.004195)"
       gradientUnits="userSpaceOnUse"
       y2="97.739403"
       x2="78.237045"
       y1="37.653954"
       x1="78.237045"
       id="linearGradient3342"
       xlink:href="#linearGradient3336-3"
       inkscape:collect="always" />
    <linearGradient
       id="linearGradient3336-3"
       inkscape:collect="always">
      <stop
         id="stop3338-2"
         offset="0"
         style="stop-color:#242424;stop-opacity:1" />
      <stop
         id="stop3340-0"
         offset="1"
         style="stop-color:#1a1a1a;stop-opacity:1" />
    </linearGradient>
    <linearGradient
       id="linearGradient3346-1"
       inkscape:collect="always">
      <stop
         id="stop3348-0"
         offset="0"
         style="stop-color:#ffffff;stop-opacity:1;" />
      <stop
         id="stop3350-6"
         offset="1"
         style="stop-color:#ffffff;stop-opacity:0;" />
    </linearGradient>
    <linearGradient
       id="linearGradient3358-0"
       inkscape:collect="always">
      <stop
         id="stop3360-3"
         offset="0"
         style="stop-color:#eeeeee;stop-opacity:1;" />
      <stop
         id="stop3362-6"
         offset="1"
         style="stop-color:#ffffff;stop-opacity:1" />
    </linearGradient>
    <linearGradient
       id="linearGradient3379">
      <stop
         style="stop-color:#72d13d;stop-opacity:1;"
         offset="0"
         id="stop3381" />
      <stop
         style="stop-color:#007a00;stop-opacity:1;"
         offset="1"
         id="stop3383" />
    </linearGradient>
    <linearGradient
       id="linearGradient3413">
      <stop
         id="stop3415"
         offset="0"
         style="stop-color:#d6ffc0;stop-opacity:1;" />
      <stop
         id="stop3417"
         offset="1"
         style="stop-color:#008c00;stop-opacity:1;" />
    </linearGradient>
    <linearGradient
       id="linearGradient3534"
       inkscape:collect="always">
      <stop
         id="stop3536"
         offset="0"
         style="stop-color:#bdbdbd;stop-opacity:1" />
      <stop
         id="stop3538"
         offset="1"
         style="stop-color:#3d3d3d;stop-opacity:1" />
    </linearGradient>
    <linearGradient
       id="linearGradient3554"
       inkscape:collect="always">
      <stop
         id="stop3556"
         offset="0"
         style="stop-color:#000000;stop-opacity:1;" />
      <stop
         id="stop3558"
         offset="1"
         style="stop-color:#002600;stop-opacity:1" />
    </linearGradient>
    <linearGradient
       id="linearGradient3602"
       inkscape:collect="always">
      <stop
         id="stop3604"
         offset="0"
         style="stop-color:#ffffff;stop-opacity:1;" />
      <stop
         id="stop3606"
         offset="1"
         style="stop-color:#ffffff;stop-opacity:0;" />
    </linearGradient>
    <linearGradient
       id="linearGradient3751">
      <stop
         id="stop3753"
         offset="0"
         style="stop-color:#242424;stop-opacity:1;" />
      <stop
         style="stop-color:#b0b0b0;stop-opacity:1;"
         offset="0.5"
         id="stop3759" />
      <stop
         id="stop3761"
         offset="0.75"
         style="stop-color:#c8c8c8;stop-opacity:1;" />
      <stop
         style="stop-color:#e2e2e2;stop-opacity:1;"
         offset="0.90277779"
         id="stop3763" />
      <stop
         id="stop3755"
         offset="1"
         style="stop-color:#8b8b8b;stop-opacity:1;" />
    </linearGradient>
    <linearGradient
       id="linearGradient3851-8"
       inkscape:collect="always">
      <stop
         id="stop3853-4"
         offset="0"
         style="stop-color:#000000;stop-opacity:1;" />
      <stop
         id="stop3855-5"
         offset="1"
         style="stop-color:#dbdbdb;stop-opacity:1" />
    </linearGradient>
    <linearGradient
       id="linearGradient3883"
       inkscape:collect="always">
      <stop
         id="stop3885"
         offset="0"
         style="stop-color:#ffffff;stop-opacity:1;" />
      <stop
         id="stop3887"
         offset="1"
         style="stop-color:#ffffff;stop-opacity:0;" />
    </linearGradient>
    <linearGradient
       id="linearGradient3929"
       inkscape:collect="always">
      <stop
         id="stop3931"
         offset="0"
         style="stop-color:#ffffff;stop-opacity:1;" />
      <stop
         id="stop3933"
         offset="1"
         style="stop-color:#ffffff;stop-opacity:0;" />
    </linearGradient>
    <linearGradient
       id="linearGradient5063"
       inkscape:collect="always">
      <stop
         id="stop5065"
         offset="0"
         style="stop-color:#ffffff;stop-opacity:1;" />
      <stop
         id="stop5067"
         offset="1"
         style="stop-color:#ffffff;stop-opacity:0;" />
    </linearGradient>
    <linearGradient
       id="linearGradient4775">
      <stop
         id="stop4777"
         offset="0"
         style="stop-color:#ffffff;stop-opacity:0.97647059;" />
      <stop
         id="stop4779"
         offset="1"
         style="stop-color:#d4d4d4;stop-opacity:1;" />
    </linearGradient>
    <linearGradient
       id="linearGradient4880"
       inkscape:collect="always">
      <stop
         id="stop4882"
         offset="0"
         style="stop-color:#ffffff;stop-opacity:1;" />
      <stop
         id="stop4884"
         offset="1"
         style="stop-color:#ffffff;stop-opacity:0;" />
    </linearGradient>
    <linearGradient
       inkscape:collect="always"
       xlink:href="#linearGradient5919"
       id="linearGradient3700"
       gradientUnits="userSpaceOnUse"
       gradientTransform="matrix(0.86961461,0,0,0.86961461,211.17852,-27.582178)"
       x1="-176.82246"
       y1="5.9640594"
       x2="-176.82246"
       y2="109.09552" />
    <linearGradient
       inkscape:collect="always"
       xlink:href="#linearGradient5919"
       id="linearGradient3703"
       gradientUnits="userSpaceOnUse"
       gradientTransform="matrix(0.86961461,0,0,0.86961461,211.17852,-27.582178)"
       x1="-178.26802"
       y1="66.060356"
       x2="-178.26802"
       y2="107.8426" />
    <linearGradient
       inkscape:collect="always"
       xlink:href="#linearGradient5990"
       id="linearGradient3706"
       gradientUnits="userSpaceOnUse"
       gradientTransform="matrix(0.86961461,0,0,0.86961461,210.84683,-30.806265)"
       x1="-103.52181"
       y1="183.38284"
       x2="-196.51477"
       y2="91.532112" />
    <radialGradient
       inkscape:collect="always"
       xlink:href="#linearGradient4775"
       id="radialGradient3710"
       gradientUnits="userSpaceOnUse"
       gradientTransform="matrix(0.40002419,0,0,0.39096202,167.18802,71.02715)"
       cx="-267.31253"
       cy="2.569855"
       fx="-267.31253"
       fy="2.569855"
       r="45.65625" />
    <linearGradient
       inkscape:collect="always"
       xlink:href="#linearGradient5919"
       id="linearGradient3714"
       gradientUnits="userSpaceOnUse"
       gradientTransform="matrix(0.91992298,0,0,0.91992298,215.9367,-27.257707)"
       x1="-160.82661"
       y1="63.869049"
       x2="-160.82661"
       y2="107.40737" />
    <radialGradient
       inkscape:collect="always"
       xlink:href="#linearGradient5990"
       id="radialGradient3941"
       gradientUnits="userSpaceOnUse"
       gradientTransform="matrix(1,0,0,0.6578174,0,22.562908)"
       cx="-166.53223"
       cy="65.938202"
       fx="-166.53223"
       fy="65.938202"
       r="31.190229" />
  </defs>
  <sodipodi:namedview
     id="base"
     pagecolor="#ffffff"
     bordercolor="#666666"
     borderopacity="1.0"
     gridtolerance="10000"
     guidetolerance="10"
     objecttolerance="10"
     inkscape:pageopacity="0.0"
     inkscape:pageshadow="2"
     inkscape:zoom="5.1184889"
     inkscape:cx="34.173126"
     inkscape:cy="26.677927"
     inkscape:document-units="px"
     inkscape:current-layer="svg2"
     width="88px"
     height="88px"
     showgrid="true"
     inkscape:window-width="1298"
     inkscape:window-height="888"
     inkscape:window-x="612"
     inkscape:window-y="0"
     showborder="true"
     inkscape:grid-bbox="true"
     inkscape:grid-points="true">
    <inkscape:grid
       id="GridFromPre046Settings"
       type="xygrid"
       originx="0px"
       originy="0px"
       spacingx="4px"
       spacingy="4px"
       color="#0000ff"
       empcolor="#0000ff"
       opacity="0.2"
       empopacity="0.4"
       empspacing="4" />
  </sodipodi:namedview>
  <metadata
     id="metadata7">
    <rdf:RDF>
      <cc:Work
         rdf:about="">
        <dc:format>image/svg+xml</dc:format>
        <dc:type
           rdf:resource="http://purl.org/dc/dcmitype/StillImage" />
        <dc:title></dc:title>
      </cc:Work>
    </rdf:RDF>
  </metadata>
  <g
     inkscape:label="Layer 1"
     inkscape:groupmode="layer"
     id="layer1" />
  <path
     style="fill:url(#linearGradient3440);fill-opacity:1;stroke:none"
     d="m 4,17.243328 72,0 L 81,76 -1,76 4,17.243328 z"
     id="rect2461"
     sodipodi:nodetypes="ccccc" />
  <path
     style="opacity:0.36499999;fill:url(#radialGradient3576);fill-opacity:1;stroke:none"
     d="m 4,17.243328 72,0 L 80,76 0,76 4,17.243328 z"
     id="rect3442"
     sodipodi:nodetypes="ccccc" />
  <path
     style="fill:url(#radialGradient3531);fill-opacity:1;stroke:none"
     d="M 8,19 72,19 73,32 7,32 8,19 z"
     id="rect3525"
     sodipodi:nodetypes="ccccc" />
  <path
     style="fill:url(#linearGradient3452);fill-opacity:1;stroke:none"
     d="M 7,32 73,32 77,68 3,68 7,32 z"
     id="rect3432"
     sodipodi:nodetypes="ccccc" />
  <rect
     style="opacity:0.5;fill:none;stroke:#ffffff;stroke-width:4;stroke-linecap:square;stroke-linejoin:round;stroke-miterlimit:4;stroke-opacity:1;stroke-dasharray:none"
     id="rect3554"
     width="8"
     height="16.542372"
     x="13.999996"
     y="11.635629"
     rx="4"
     ry="3.9999998" />
  <rect
     ry="5.3814764"
     rx="2.2040825"
     y="6"
     x="13.999998"
     height="20"
     width="8.0000019"
     id="rect3556"
     style="fill:#dddddd;fill-opacity:1;stroke:url(#linearGradient3630);stroke-width:4;stroke-linecap:square;stroke-linejoin:round;stroke-miterlimit:4;stroke-opacity:1;stroke-dasharray:none" />
  <rect
     style="fill:url(#radialGradient3570);fill-opacity:1;stroke:none"
     id="rect3568"
     width="12"
     height="18.323435"
     x="12"
     y="4.0008631"
     rx="3.6169543"
     ry="9.2433281" />
  <rect
     y="36"
     x="12"
     height="4"
     width="4"
     id="rect3590"
     style="fill:#c7ccc2;fill-opacity:1;stroke:none" />
  <rect
     style="fill:#c7ccc2;fill-opacity:1;stroke:none"
     id="rect3269"
     width="4"
     height="4"
     x="12"
     y="44" />
  <rect
     y="52"
     x="12"
     height="4"
     width="4"
     id="rect3271"
     style="fill:#c7ccc2;fill-opacity:1;stroke:none" />
  <rect
     style="fill:#c7ccc2;fill-opacity:1;stroke:none"
     id="rect3273"
     width="4"
     height="4"
     x="12"
     y="60" />
  <rect
     style="fill:#c7ccc2;fill-opacity:1;stroke:none"
     id="rect3275"
     width="4"
     height="4"
     x="24"
     y="36" />
  <rect
     y="44"
     x="24"
     height="4"
     width="4"
     id="rect3277"
     style="fill:#c7ccc2;fill-opacity:1;stroke:none" />
  <rect
     style="fill:#c7ccc2;fill-opacity:1;stroke:none"
     id="rect3279"
     width="4"
     height="4"
     x="24"
     y="52" />
  <rect
     y="60"
     x="24"
     height="4"
     width="4"
     id="rect3281"
     style="fill:#c7ccc2;fill-opacity:1;stroke:none" />
  <rect
     y="36.041695"
     x="35.603268"
     height="4.0666666"
     width="4.0666666"
     id="rect3283"
     style="fill:#c7ccc2;fill-opacity:1;stroke:none" />
  <rect
     style="fill:#c7ccc2;fill-opacity:1;stroke:none"
     id="rect3285"
     width="4.0666666"
     height="4.0666666"
     x="35.603268"
     y="44.175026" />
  <rect
     y="52.308361"
     x="35.603268"
     height="4.0666666"
     width="4.0666666"
     id="rect3287"
     style="fill:#c7ccc2;fill-opacity:1;stroke:none" />
  <rect
     style="fill:#c7ccc2;fill-opacity:1;stroke:none"
     id="rect3289"
     width="4.0666666"
     height="4.0666666"
     x="35.603268"
     y="60.441692" />
  <rect
     style="fill:#ca95ff;fill-opacity:1;stroke:none"
     id="rect3291"
     width="4.0666666"
     height="4.0666666"
     x="-51.86993"
     y="36.041695"
     transform="scale(-1,1)" />
  <rect
     y="44.175026"
     x="-51.86993"
     height="4.0666666"
     width="4.0666666"
     id="rect3293"
     style="fill:#ca95ff;fill-opacity:1;stroke:none"
     transform="scale(-1,1)" />
  <rect
     style="fill:#ca95ff;fill-opacity:1;stroke:none"
     id="rect3295"
     width="4.0666666"
     height="4.0666666"
     x="-51.86993"
     y="52.308361"
     transform="scale(-1,1)" />
  <rect
     y="60.441692"
     x="-51.86993"
     height="4.0666666"
     width="4.0666666"
     id="rect3297"
     style="fill:#ca95ff;fill-opacity:1;stroke:none"
     transform="scale(-1,1)" />
  <rect
     ry="3.9999998"
     rx="4"
     y="11.635629"
     x="57.999996"
     height="16.542372"
     width="8"
     id="rect3299"
     style="opacity:0.5;fill:none;stroke:#ffffff;stroke-width:4;stroke-linecap:square;stroke-linejoin:round;stroke-miterlimit:4;stroke-opacity:1;stroke-dasharray:none" />
  <rect
     style="fill:#dddddd;fill-opacity:1;stroke:url(#linearGradient3305);stroke-width:4;stroke-linecap:square;stroke-linejoin:round;stroke-miterlimit:4;stroke-opacity:1;stroke-dasharray:none"
     id="rect3301"
     width="8.0000019"
     height="20"
     x="58"
     y="6"
     rx="2.2040825"
     ry="5.3814764" />
  <rect
     ry="9.2433281"
     rx="3.6169543"
     y="4.0008631"
     x="56"
     height="18.323435"
     width="12"
     id="rect3303"
     style="fill:url(#radialGradient3307);fill-opacity:1;stroke:none" />
  <path
     sodipodi:nodetypes="ccccc"
     id="path3309"
     d="m 4,72 72,0 1,-4 -74,0 1,4 z"
     style="fill:#555555;fill-opacity:1;stroke:none" />
  <g
     inkscape:label="Layer 1"
     id="layer1-4"
     transform="translate(-575.32555,-20.267452)" />
  <path
     transform="matrix(-0.88793207,0,0,0.88793207,-88.065199,-22.122963)"
     d="m -135.842,93.331604 a 30.690229,30.690229 0 1 1 -61.38046,0 30.690229,30.690229 0 1 1 61.38046,0 z"
     sodipodi:ry="30.690229"
     sodipodi:rx="30.690229"
     sodipodi:cy="93.331604"
     sodipodi:cx="-166.53223"
     id="path5515"
     style="fill:url(#radialGradient4914);fill-opacity:1;stroke:none"
     sodipodi:type="arc" />
  <path
     clip-path="url(#clipPath6080)"
     transform="matrix(-0.88793207,0,0,0.88793207,-88.065199,-22.122963)"
     d="m -135.842,93.331604 a 30.690229,30.690229 0 1 1 -61.38046,0 30.690229,30.690229 0 1 1 61.38046,0 z"
     sodipodi:ry="30.690229"
     sodipodi:rx="30.690229"
     sodipodi:cy="93.331604"
     sodipodi:cx="-166.53223"
     id="path6078"
     style="fill:url(#radialGradient3941);fill-opacity:1;stroke:none;filter:url(#filter6074)"
     sodipodi:type="arc" />
  <path
     sodipodi:type="arc"
     style="fill:url(#radialGradient4910);fill-opacity:1;stroke:none"
     id="path5906"
     sodipodi:cx="-166.53223"
     sodipodi:cy="93.331604"
     sodipodi:rx="30.690229"
     sodipodi:ry="30.690229"
     d="m -135.842,93.331604 a 30.690229,30.690229 0 1 1 -61.38046,0 30.690229,30.690229 0 1 1 61.38046,0 z"
     transform="matrix(-0.82383908,0,0,0.82383908,-77.391655,-16.25677)" />
  <path
     id="path5910"
     d="m 59.801594,35.358685 c -13.956672,0 -25.273183,11.316513 -25.273183,25.273178 0,1.299307 0.08242,2.585032 0.271756,3.831738 0.0015,0.0087 -0.0015,0.01842 0,0.02718 5.314031,0.849959 10.973018,1.277244 16.848781,1.277244 12.553036,0 24.140167,-2.097639 33.425805,-5.625319 C 84.813685,46.411587 73.594773,35.358689 59.801594,35.358687 z"
     style="opacity:0.8921933;fill:url(#linearGradient3714);fill-opacity:1;stroke:none" />
  <path
     id="path5927"
     transform="matrix(-0.86961461,0,0,0.86961461,-31.548849,-25.302791)"
     d="m -134.09375,98.625 c -0.003,0.166656 -0.0313,0.332675 -0.0313,0.5 0,16.04925 13.0445,29.0625 29.09375,29.0625 16.049249,0 29.062503,-13.01325 29.0625,-29.0625 0,-0.167107 0.0028,-0.33356 0,-0.5 -0.267346,15.81875 -13.180358,28.5625 -29.0625,28.5625 -15.88193,0 -28.79481,-12.74404 -29.0625,-28.5625 z"
     style="fill:#007fea;fill-opacity:1;stroke:none;filter:url(#filter5956)" />
  <path
     style="fill:url(#radialGradient3710);fill-opacity:1;stroke-width:1px"
     d="m 60.381553,41.167432 c -1.215102,0 -2.200135,0.949719 -2.200135,2.121252 0,0.057 0.0078,0.112872 0.01252,0.168738 -6.748924,1.040164 -9.688112,7.184705 -10.488135,12.8842 -0.879065,6.26266 -2.095688,11.756288 -5.250313,13.944824 -0.337651,0.234236 -0.462552,0.708931 -0.462552,1.241419 l 0.200012,0 c -7.83e-4,-0.02075 0,-0.03946 0,-0.06021 0,-2.696431 8.095692,-4.134022 18.076098,-4.134022 9.980399,0 18.076091,1.437591 18.076091,4.134022 0,0.02083 7.83e-4,0.03954 0,0.06021 l 0.175019,0 c 0,-0.532488 -0.124901,-1.007183 -0.462545,-1.241419 C 74.903009,68.09791 73.686372,62.604282 72.807307,56.341622 72.017228,50.712948 69.140912,44.645327 62.569199,43.49358 c 0.0063,-0.06747 0.01253,-0.13573 0.01253,-0.204896 0,-1.171533 -0.985041,-2.121252 -2.200144,-2.121252 z M 60.26904,67.960306 c -0.74628,0 -1.478012,0.0081 -2.200129,0.02401 -0.547348,0.508617 -0.887552,1.221967 -0.887552,2.012784 0,1.54429 1.298451,2.79621 2.900173,2.79621 1.60173,0 2.900174,-1.25192 2.900174,-2.79621 0,-0.797032 -0.345122,-1.515491 -0.900049,-2.024829 -0.595416,-0.01075 -1.201323,-0.0121 -1.812617,-0.0121 z m -18.251102,3.579608 c 0.114017,2.801401 8.243848,5.327233 18.251102,5.327233 10.007262,0 18.137092,-2.525832 18.251109,-5.327233 l -0.187507,0 c -0.143748,2.662947 -8.17291,4.808972 -18.063602,4.808972 -9.890684,0 -17.919847,-2.146025 -18.063587,-4.808972 l -0.187515,0 z"
     id="path4741" />
  <path
     style="opacity:0.38118813;fill:#2e2e2e;fill-opacity:1;stroke-width:1px;filter:url(#filter4862)"
     d="m -226.5625,-64.625 c -2.43046,0 -4.40625,1.975787 -4.40625,4.40625 0,0.118251 0.0221,0.227851 0.0313,0.34375 -13.49932,2.157923 -19.36853,14.894604 -20.96875,26.71875 -1.75833,12.992495 -4.19007,24.39718 -10.5,28.9375 -0.67538,0.485944 -0.9375,1.489064 -0.9375,2.59375 l 0.0625,0 c 0.009,0.2336738 0.0335,0.487228 0.0937,0.71875004 0.0671,-0.26769134 0.15797,-0.50444624 0.28125,-0.71875004 l -0.0313,0 c -0.002,-0.04314 0,-0.081729 0,-0.125 0,-1.6898599 1.48083,-3.1407506 4.09375,-4.34375 3.74577,-5.690403 5.55994,-14.883586 6.9375,-25.0625 1.60022,-11.824146 7.46943,-24.560827 20.96875,-26.71875 -0.009,-0.115899 -0.0313,-0.225499 -0.0313,-0.34375 0,-2.430463 1.97579,-4.40625 4.40625,-4.40625 2.43047,0 4.40625,1.975787 4.40625,4.40625 0,0.14349 -0.0179,0.266277 -0.0313,0.40625 13.14485,2.389412 18.88842,14.979027 20.46875,26.65625 1.37459,10.157017 3.17692,19.338034 6.90625,25.03125 2.65726,1.2093438 4.1875,2.669853 4.1875,4.375 0,0.04327 0.002,0.081859 0,0.125 l -0.0313,0 c -0.002,0.040067 0.004,0.085047 0,0.125 0.10347,0.2081324 0.16206,0.4361303 0.21875,0.68750004 0.078,-0.26604484 0.1457,-0.54354384 0.15625,-0.81250004 0,-1.104686 -0.26216,-2.107806 -0.9375,-2.59375 -6.30993,-4.54032 -8.74167,-15.945005 -10.5,-28.9375 -1.58033,-11.677223 -7.3239,-24.266838 -20.46875,-26.65625 0.0134,-0.139973 0.0313,-0.26276 0.0313,-0.40625 0,-2.430463 -1.97578,-4.40625 -4.40625,-4.40625 z m -0.21875,56.28125 c -1.7144,0 -3.38032,0.049993 -5.03125,0.09375 -0.71722,0.9649543 -1.15625,2.1423481 -1.15625,3.4375 0,0.344552 0.0361,0.671956 0.0937,1 0.21532,-1.2367399 0.82077,-2.3521587 1.6875,-3.1875 1.44439,-0.03328 2.91352,-0.03125 4.40625,-0.03125 1.22272,0 2.43403,0.00889 3.625,0.03125 0.89773,0.8546337 1.48198,1.9710917 1.6875,3.25 0.0653,-0.3485396 0.0937,-0.6949918 0.0937,-1.0625 0,-1.3033605 -0.43099,-2.5005776 -1.15625,-3.46875 -1.39902,-0.031031 -2.80688,-0.0625 -4.25,-0.0625 z m 35.96875,7.53125004 C -192.51719,4.3368866 -207.95895,8.375 -226.78125,8.375 c -18.78026,0 -34.20666,-4.0233638 -35.96875,-9.15624996 -0.069,0.1838603 -0.12539,0.3722321 -0.15625,0.5625 2.52483,5.22708266 17.73149,9.65624996 36.125,9.65624996 18.3191,0 33.47695,-4.3943433 36.09375,-9.59374996 -0.0308,-0.2190943 -0.0439,-0.4455924 -0.125,-0.65625 z"
     id="path4783"
     clip-path="url(#clipPath4804)"
     transform="matrix(0.49994584,0,0,0.48202151,173.65052,71.920411)" />
  <path
     sodipodi:nodetypes="cccccscc"
     id="path5974"
     d="m 69.256982,37.187527 c 8.384706,3.996845 15.279145,12.87201 15.466621,22.732677 -9.285653,3.527686 -22.418147,5.47172 -34.971175,5.471728 -4.888561,0.103621 -9.62167,-0.06578 -14.981106,-0.920243 0.0015,0.0087 -0.0015,0.01841 0,0.02717 5.314016,0.849954 10.973027,1.27724 16.848781,1.27724 12.553036,0 24.140175,-2.097627 33.425813,-5.625314 -0.197624,-10.39426 -6.6696,-19.271105 -15.788934,-22.963262 z"
     style="fill:url(#linearGradient3706);fill-opacity:1;stroke:none" />
  <path
     sodipodi:nodetypes="cscsccc"
     style="fill:url(#linearGradient3703);fill-opacity:1;stroke:none"
     d="m 59.786412,35.376645 c -13.956656,0 -25.273174,11.316517 -25.273174,25.273185 0,0.127997 -0.0015,0.252738 0,0.380452 0.260833,-13.730872 11.479996,-25.131869 25.273174,-25.13186 13.499844,0 24.538045,10.938338 25.246006,24.262247 0.0078,-0.0029 0.01926,0.0029 0.02716,0 C 84.798464,46.429549 73.579536,35.376655 59.786357,35.376645 z"
     id="path6088" />
  <path
     id="path5966"
     d="m 59.786412,35.376645 c -13.956656,0 -25.273174,11.316517 -25.273174,25.273185 0,0.127997 -0.0015,0.252738 0,0.380452 0.260833,-13.730872 11.479996,-24.784023 25.273174,-24.784015 13.499844,0 24.538045,10.590493 25.246006,23.914402 0.0078,-0.0029 0.01926,0.0029 0.02716,0 C 84.798464,46.429549 73.579536,35.376655 59.786357,35.376645 z"
     style="fill:url(#linearGradient3700);fill-opacity:1;stroke:none" />
  <path
     style="opacity:0.54455447;fill:url(#linearGradient4908);fill-opacity:1;stroke:none;filter:url(#filter4900)"
     d="m -42.2125,72.4875 c -0.345178,0 -0.625,0.279822 -0.625,0.625 0,0.345178 0.279822,0.625 0.625,0.625 0.345178,0 0.625,-0.279822 0.625,-0.625 0,-0.345178 -0.279822,-0.625 -0.625,-0.625 z m 1.93125,4.0125 -0.75,0.6875 c 3.946774,7.385664 1.555211,17.317291 1.09375,24.28125 l 11.65625,1.4375 c -4.853376,-7.228705 0.137788,-21.786422 -12,-26.40625 z"
     id="path4866"
     sodipodi:nodetypes="cssscccccc"
     transform="matrix(0.86962034,0,0,0.83844224,97.704724,-18.712407)" />
</svg>
