<?xml version="1.0" encoding="UTF-8" standalone="no"?>
<!-- Generator: Adobe Illustrator 12.0.0, SVG Export Plug-In . SVG Version: 6.00 Build 51448)  -->

<svg
   xmlns:dc="http://purl.org/dc/elements/1.1/"
   xmlns:cc="http://creativecommons.org/ns#"
   xmlns:rdf="http://www.w3.org/1999/02/22-rdf-syntax-ns#"
   xmlns:svg="http://www.w3.org/2000/svg"
   xmlns="http://www.w3.org/2000/svg"
   xmlns:xlink="http://www.w3.org/1999/xlink"
   xmlns:sodipodi="http://sodipodi.sourceforge.net/DTD/sodipodi-0.dtd"
   xmlns:inkscape="http://www.inkscape.org/namespaces/inkscape"
   version="1.0"
   id="Livello_1"
   width="128"
   height="128"
   viewBox="0 0 144 144"
   overflow="visible"
   enable-background="new 0 0 144 144"
   xml:space="preserve"
   sodipodi:version="0.32"
   inkscape:version="0.46+devel"
   sodipodi:docname="kmix-LFE.svgz"
   inkscape:output_extension="org.inkscape.output.svgz.inkscape"
   style="overflow:visible"
   inkscape:export-filename="/home/pinheiro/pics/oxygen-icons/scalable/actions/small/22x22/kmix-LFE.png"
   inkscape:export-xdpi="61.875"
   inkscape:export-ydpi="61.875"><metadata
   id="metadata69"><rdf:RDF><cc:Work
       rdf:about=""><dc:format>image/svg+xml</dc:format><dc:type
         rdf:resource="http://purl.org/dc/dcmitype/StillImage" /><dc:title></dc:title></cc:Work></rdf:RDF></metadata><defs
   id="defs67"><linearGradient
     id="linearGradient4029"><stop
       id="stop4031"
       offset="0"
       style="stop-color:#c1f500;stop-opacity:0.39108911" /><stop
       id="stop4033"
       offset="1"
       style="stop-color:#576e00;stop-opacity:1;" /></linearGradient><linearGradient
     inkscape:collect="always"
     id="linearGradient3816"><stop
       style="stop-color:#000000;stop-opacity:1;"
       offset="0"
       id="stop3818" /><stop
       style="stop-color:#000000;stop-opacity:0;"
       offset="1"
       id="stop3820" /></linearGradient><linearGradient
     inkscape:collect="always"
     id="linearGradient3761"><stop
       style="stop-color:#ffffff;stop-opacity:1;"
       offset="0"
       id="stop3763" /><stop
       style="stop-color:#ffffff;stop-opacity:0;"
       offset="1"
       id="stop3765" /></linearGradient><linearGradient
     id="linearGradient3751"><stop
       style="stop-color:#ffffff;stop-opacity:1;"
       offset="0"
       id="stop3753" /><stop
       style="stop-color:#000000;stop-opacity:1;"
       offset="1"
       id="stop3755" /></linearGradient><linearGradient
     id="linearGradient3657"><stop
       style="stop-color:#000000;stop-opacity:1;"
       offset="0"
       id="stop3660" /><stop
       id="stop3668"
       offset="0.62533087"
       style="stop-color:#161616;stop-opacity:1;" /><stop
       style="stop-color:#343434;stop-opacity:1;"
       offset="0.72352153"
       id="stop3807" /><stop
       id="stop3666"
       offset="0.8217122"
       style="stop-color:#b6b6b6;stop-opacity:1;" /><stop
       style="stop-color:#2b2b2b;stop-opacity:1;"
       offset="0.91085613"
       id="stop3809" /><stop
       style="stop-color:#000000;stop-opacity:1;"
       offset="1"
       id="stop3662" /></linearGradient><linearGradient
     id="linearGradient3958"><stop
       id="stop3960"
       offset="0"
       style="stop-color:#626262;stop-opacity:1;" /><stop
       id="stop3962"
       offset="1"
       style="stop-color:#c1c1c1;stop-opacity:1" /></linearGradient><linearGradient
     inkscape:collect="always"
     id="linearGradient3844"><stop
       style="stop-color:#dcdcdc;stop-opacity:1;"
       offset="0"
       id="stop3846" /><stop
       style="stop-color:#dcdcdc;stop-opacity:0;"
       offset="1"
       id="stop3848" /></linearGradient><linearGradient
     id="linearGradient3836"><stop
       style="stop-color:#626262;stop-opacity:1;"
       offset="0"
       id="stop3838" /><stop
       style="stop-color:#868686;stop-opacity:1;"
       offset="1"
       id="stop3840" /></linearGradient><linearGradient
     id="linearGradient3754"><stop
       id="stop3756"
       offset="0"
       style="stop-color:#e6e6e6;stop-opacity:1;" /><stop
       id="stop3758"
       offset="1"
       style="stop-color:#747474;stop-opacity:1;" /></linearGradient><linearGradient
     id="linearGradient3740"><stop
       style="stop-color:#f5a500;stop-opacity:1;"
       offset="0"
       id="stop3742" /><stop
       style="stop-color:#974800;stop-opacity:1;"
       offset="1"
       id="stop3744" /></linearGradient><linearGradient
     id="linearGradient3726"><stop
       id="stop3728"
       offset="0"
       style="stop-color:#4ef500;stop-opacity:1;" /><stop
       id="stop3730"
       offset="1"
       style="stop-color:#006e21;stop-opacity:1;" /></linearGradient><linearGradient
     id="linearGradient3706"><stop
       style="stop-color:#c1f500;stop-opacity:1;"
       offset="0"
       id="stop3708" /><stop
       style="stop-color:#576e00;stop-opacity:1;"
       offset="1"
       id="stop3710" /></linearGradient><linearGradient
     id="linearGradient3655"><stop
       style="stop-color:#80c930;stop-opacity:1;"
       offset="0"
       id="stop3657" /><stop
       id="stop3663"
       offset="0.5"
       style="stop-color:#d2e90b;stop-opacity:1;" /><stop
       style="stop-color:#c93030;stop-opacity:1"
       offset="1"
       id="stop3659" /></linearGradient><linearGradient
     inkscape:collect="always"
     id="linearGradient3622"><stop
       style="stop-color:#8a8a8a;stop-opacity:1;"
       offset="0"
       id="stop3624" /><stop
       style="stop-color:#ffffff;stop-opacity:1"
       offset="1"
       id="stop3626" /></linearGradient><inkscape:perspective
     sodipodi:type="inkscape:persp3d"
     inkscape:vp_x="-19.091883 : 69.656854 : 1"
     inkscape:vp_y="0 : 1000 : 0"
     inkscape:vp_z="181.38656 : 66.474874 : 1"
     inkscape:persp3d-origin="64 : 42.666667 : 1"
     id="perspective50" /><linearGradient
     inkscape:collect="always"
     xlink:href="#linearGradient3622"
     id="linearGradient3628"
     x1="44"
     y1="88.033623"
     x2="44"
     y2="60"
     gradientUnits="userSpaceOnUse"
     gradientTransform="matrix(1.125,0,0,1.125,-12.375002,-7.3639059)" /><radialGradient
     inkscape:collect="always"
     xlink:href="#linearGradient3754"
     id="radialGradient3750"
     gradientUnits="userSpaceOnUse"
     gradientTransform="matrix(1.8749997,0,0,1.8750004,-73.638076,-175.96851)"
     cx="95.127419"
     cy="107.79257"
     fx="95.127419"
     fy="107.79257"
     r="24" /><radialGradient
     inkscape:collect="always"
     xlink:href="#linearGradient3754"
     id="radialGradient3752"
     gradientUnits="userSpaceOnUse"
     gradientTransform="matrix(1.8749997,0,0,1.8750004,-73.638076,-175.96851)"
     cx="86.399994"
     cy="103.2"
     fx="86.399994"
     fy="103.2"
     r="24" /><radialGradient
     inkscape:collect="always"
     xlink:href="#linearGradient3706"
     id="radialGradient3772"
     gradientUnits="userSpaceOnUse"
     gradientTransform="matrix(1.3081201,0,0,1.3081206,-18.569431,-19.189985)"
     cx="94.253754"
     cy="104.7057"
     fx="94.253754"
     fy="104.7057"
     r="24" /><radialGradient
     inkscape:collect="always"
     xlink:href="#linearGradient3706"
     id="radialGradient3774"
     gradientUnits="userSpaceOnUse"
     gradientTransform="matrix(1.8749997,0,0,1.8750004,-71.999963,-78.545536)"
     cx="94.253754"
     cy="94.233116"
     fx="94.253754"
     fy="94.233116"
     r="24" /><linearGradient
     inkscape:collect="always"
     xlink:href="#linearGradient3836"
     id="linearGradient3842"
     x1="36"
     y1="117.10203"
     x2="36"
     y2="17.812824"
     gradientUnits="userSpaceOnUse"
     gradientTransform="matrix(1,0,0,1.0499999,-3.375,-0.327369)" /><radialGradient
     inkscape:collect="always"
     xlink:href="#linearGradient3844"
     id="radialGradient3852"
     cx="40.500004"
     cy="63"
     fx="40.500004"
     fy="63"
     r="22.500004"
     gradientTransform="matrix(-2.7208646,2.7208648,-0.69286488,-0.69286484,190.97052,16.091545)"
     gradientUnits="userSpaceOnUse" /><radialGradient
     inkscape:collect="always"
     xlink:href="#linearGradient3706"
     id="radialGradient3858"
     gradientUnits="userSpaceOnUse"
     gradientTransform="matrix(1.3836645,0,0,1.383665,-23.974592,-59.863009)"
     cx="97.744614"
     cy="104.73191"
     fx="97.744614"
     fy="104.73191"
     r="24" /><radialGradient
     inkscape:collect="always"
     xlink:href="#linearGradient3706"
     id="radialGradient3860"
     gradientUnits="userSpaceOnUse"
     gradientTransform="matrix(1.8749997,0,0,1.8750004,-71.999964,-111.32151)"
     cx="94.253754"
     cy="97.750191"
     fx="94.253754"
     fy="97.750191"
     r="24" /><radialGradient
     inkscape:collect="always"
     xlink:href="#linearGradient3706"
     id="radialGradient3866"
     gradientUnits="userSpaceOnUse"
     gradientTransform="matrix(1.3019855,0,0,1.301986,-17.991224,-81.997221)"
     cx="94.253754"
     cy="108.19366"
     fx="94.253754"
     fy="108.19366"
     r="24" /><radialGradient
     inkscape:collect="always"
     xlink:href="#linearGradient3706"
     id="radialGradient3868"
     gradientUnits="userSpaceOnUse"
     gradientTransform="matrix(1.8749997,0,0,1.8750004,-71.999963,-143.99375)"
     cx="94.253754"
     cy="97.721085"
     fx="94.253754"
     fy="97.721085"
     r="24" /><radialGradient
     inkscape:collect="always"
     xlink:href="#linearGradient3754"
     id="radialGradient3893"
     gradientUnits="userSpaceOnUse"
     gradientTransform="matrix(1.8749997,0,0,1.8750004,-73.638076,-175.96851)"
     cx="98.618279"
     cy="104.32351"
     fx="98.618279"
     fy="104.32351"
     r="24" /><radialGradient
     inkscape:collect="always"
     xlink:href="#linearGradient3706"
     id="radialGradient3897"
     gradientUnits="userSpaceOnUse"
     gradientTransform="matrix(1.8749997,0,0,1.8750004,-71.999963,-143.99375)"
     cx="94.253754"
     cy="111.68452"
     fx="94.253754"
     fy="111.68452"
     r="24" /><radialGradient
     inkscape:collect="always"
     xlink:href="#linearGradient3706"
     id="radialGradient3901"
     gradientUnits="userSpaceOnUse"
     gradientTransform="matrix(1.8749997,0,0,1.8750004,-71.999964,-111.32151)"
     cx="97.744614"
     cy="111.71363"
     fx="97.744614"
     fy="111.71363"
     r="24" /><radialGradient
     inkscape:collect="always"
     xlink:href="#linearGradient3706"
     id="radialGradient3905"
     gradientUnits="userSpaceOnUse"
     gradientTransform="matrix(1.8749997,0,0,1.8750004,-71.999963,-78.545536)"
     cx="97.744614"
     cy="111.68741"
     fx="97.744614"
     fy="111.68741"
     r="24" /><linearGradient
     inkscape:collect="always"
     xlink:href="#linearGradient3836"
     id="linearGradient3909"
     gradientUnits="userSpaceOnUse"
     x1="36"
     y1="117.10203"
     x2="36"
     y2="17.812824"
     gradientTransform="translate(3.15,0)" /><linearGradient
     inkscape:collect="always"
     xlink:href="#linearGradient3836"
     id="linearGradient3913"
     gradientUnits="userSpaceOnUse"
     gradientTransform="translate(3.15,19.6875)"
     x1="36"
     y1="117.10203"
     x2="36"
     y2="17.812824" /><linearGradient
     inkscape:collect="always"
     xlink:href="#linearGradient3836"
     id="linearGradient3917"
     gradientUnits="userSpaceOnUse"
     gradientTransform="translate(3.1703648,78.544345)"
     x1="36"
     y1="117.10203"
     x2="36"
     y2="17.812824" /><linearGradient
     inkscape:collect="always"
     xlink:href="#linearGradient3836"
     id="linearGradient3921"
     gradientUnits="userSpaceOnUse"
     gradientTransform="translate(3.15,98.2125)"
     x1="36"
     y1="117.10203"
     x2="36"
     y2="17.812824" /><linearGradient
     inkscape:collect="always"
     xlink:href="#linearGradient3836"
     id="linearGradient3925"
     gradientUnits="userSpaceOnUse"
     gradientTransform="translate(3.15,117.9)"
     x1="36"
     y1="117.10203"
     x2="36"
     y2="17.812824" /><linearGradient
     inkscape:collect="always"
     xlink:href="#linearGradient3836"
     id="linearGradient3929"
     gradientUnits="userSpaceOnUse"
     gradientTransform="matrix(0.88888889,0,0,0.88888889,2.818102,52.362895)"
     x1="36"
     y1="117.10203"
     x2="36"
     y2="17.812824" /><linearGradient
     inkscape:collect="always"
     xlink:href="#linearGradient3836"
     id="linearGradient3943"
     gradientUnits="userSpaceOnUse"
     gradientTransform="translate(49.295365,58.908257)"
     x1="36"
     y1="117.10203"
     x2="36"
     y2="17.812824" /><linearGradient
     inkscape:collect="always"
     xlink:href="#linearGradient3836"
     id="linearGradient3945"
     gradientUnits="userSpaceOnUse"
     gradientTransform="translate(49.275,-4.5013422e-8)"
     x1="36"
     y1="117.10203"
     x2="36"
     y2="17.812824" /><linearGradient
     inkscape:collect="always"
     xlink:href="#linearGradient3836"
     id="linearGradient3947"
     gradientUnits="userSpaceOnUse"
     gradientTransform="translate(49.275,19.6875)"
     x1="36"
     y1="117.10203"
     x2="36"
     y2="17.812824" /><linearGradient
     inkscape:collect="always"
     xlink:href="#linearGradient3836"
     id="linearGradient3949"
     gradientUnits="userSpaceOnUse"
     gradientTransform="translate(49.295365,78.544345)"
     x1="36"
     y1="117.10203"
     x2="36"
     y2="17.812824" /><linearGradient
     inkscape:collect="always"
     xlink:href="#linearGradient3836"
     id="linearGradient3951"
     gradientUnits="userSpaceOnUse"
     gradientTransform="translate(49.275,98.2125)"
     x1="36"
     y1="117.10203"
     x2="36"
     y2="17.812824" /><linearGradient
     inkscape:collect="always"
     xlink:href="#linearGradient3836"
     id="linearGradient3953"
     gradientUnits="userSpaceOnUse"
     gradientTransform="translate(49.275,117.9)"
     x1="36"
     y1="117.10203"
     x2="36"
     y2="17.812824" /><linearGradient
     inkscape:collect="always"
     xlink:href="#linearGradient3958"
     id="linearGradient3956"
     gradientUnits="userSpaceOnUse"
     gradientTransform="matrix(0.88888889,0,0,0.88888889,2.818102,52.362895)"
     x1="36.10181"
     y1="65.455658"
     x2="36.10181"
     y2="-52.542545" /><radialGradient
     inkscape:collect="always"
     xlink:href="#linearGradient3754"
     id="radialGradient3719"
     gradientUnits="userSpaceOnUse"
     gradientTransform="matrix(1.8749997,0,0,1.8750004,-73.638076,-143.34351)"
     cx="95.127419"
     cy="107.79257"
     fx="95.127419"
     fy="107.79257"
     r="24" /><radialGradient
     inkscape:collect="always"
     xlink:href="#linearGradient3754"
     id="radialGradient3721"
     gradientUnits="userSpaceOnUse"
     gradientTransform="matrix(1.8749997,0,0,1.8750004,-73.638076,-143.34351)"
     cx="86.399994"
     cy="103.2"
     fx="86.399994"
     fy="103.2"
     r="24" /><radialGradient
     inkscape:collect="always"
     xlink:href="#linearGradient3754"
     id="radialGradient3723"
     gradientUnits="userSpaceOnUse"
     gradientTransform="matrix(1.8749997,0,0,1.8750004,-73.638076,-143.34351)"
     cx="98.618279"
     cy="104.32351"
     fx="98.618279"
     fy="104.32351"
     r="24" /><radialGradient
     inkscape:collect="always"
     xlink:href="#linearGradient3657"
     id="radialGradient3745"
     cx="63.9991"
     cy="64.0009"
     fx="63.9991"
     fy="64.0009"
     r="17.4543"
     gradientUnits="userSpaceOnUse" /><radialGradient
     inkscape:collect="always"
     xlink:href="#linearGradient3751"
     id="radialGradient3757"
     cx="63.934082"
     cy="63.480751"
     fx="62.213955"
     fy="52.518349"
     r="17.4543"
     gradientUnits="userSpaceOnUse"
     gradientTransform="matrix(1.1955419,0,0,1.1955419,-12.436774,-11.893)" /><linearGradient
     inkscape:collect="always"
     xlink:href="#linearGradient3761"
     id="linearGradient3767"
     x1="81.4534"
     y1="47.589134"
     x2="81.4534"
     y2="79.971489"
     gradientUnits="userSpaceOnUse" /><radialGradient
     inkscape:collect="always"
     xlink:href="#linearGradient3657"
     id="radialGradient3771"
     gradientUnits="userSpaceOnUse"
     cx="63.9991"
     cy="64.0009"
     fx="63.9991"
     fy="64.0009"
     r="17.4543" /><radialGradient
     inkscape:collect="always"
     xlink:href="#linearGradient3657"
     id="radialGradient3777"
     gradientUnits="userSpaceOnUse"
     cx="63.9991"
     cy="64.0009"
     fx="63.9991"
     fy="64.0009"
     r="17.4543" /><mask
     maskUnits="userSpaceOnUse"
     id="mask3773"><path
       d="m 81.4534,64.0009 a 17.4543,17.4543 0 1 1 -34.9086,0 17.4543,17.4543 0 1 1 34.9086,0 z"
       sodipodi:ry="17.4543"
       sodipodi:rx="17.4543"
       sodipodi:cy="64.0009"
       sodipodi:cx="63.9991"
       id="path3775"
       style="fill:url(#radialGradient3777);fill-opacity:1;stroke:none"
       sodipodi:type="arc" /></mask><radialGradient
     inkscape:collect="always"
     xlink:href="#linearGradient3657"
     id="radialGradient3805"
     cx="13.23258"
     cy="65.153389"
     fx="13.23258"
     fy="65.153389"
     r="7.4144797"
     gradientTransform="matrix(1,0,0,0.9401318,0,3.9006158)"
     gradientUnits="userSpaceOnUse" /><linearGradient
     inkscape:collect="always"
     xlink:href="#linearGradient3816"
     id="linearGradient3822"
     x1="130.90725"
     y1="72.001013"
     x2="137.45261"
     y2="72.001013"
     gradientUnits="userSpaceOnUse" /><linearGradient
     inkscape:collect="always"
     xlink:href="#linearGradient3706"
     id="linearGradient3701"
     x1="53.07642"
     y1="84.513176"
     x2="53.07642"
     y2="130.34265"
     gradientUnits="userSpaceOnUse"
     gradientTransform="translate(0,-38.7)" /><inkscape:perspective
     id="perspective6599"
     inkscape:persp3d-origin="0.5 : 0.33333333 : 1"
     inkscape:vp_z="1 : 0.5 : 1"
     inkscape:vp_y="0 : 1000 : 0"
     inkscape:vp_x="0 : 0.5 : 1"
     sodipodi:type="inkscape:persp3d" /><radialGradient
     inkscape:collect="always"
     xlink:href="#linearGradient3751-1"
     id="radialGradient6533"
     gradientUnits="userSpaceOnUse"
     gradientTransform="matrix(1.0128344,0.14733835,0,1.3707303,-71.119708,37.68443)"
     cx="74.320961"
     cy="27.954523"
     fx="73.635414"
     fy="27.176947"
     r="1.694065" /><linearGradient
     id="linearGradient3751-1"><stop
       style="stop-color:#ffffff;stop-opacity:1;"
       offset="0"
       id="stop3753-5" /><stop
       style="stop-color:#000000;stop-opacity:1;"
       offset="1"
       id="stop3755-6" /></linearGradient><radialGradient
     inkscape:collect="always"
     xlink:href="#linearGradient3751-1"
     id="radialGradient6531"
     gradientUnits="userSpaceOnUse"
     gradientTransform="matrix(1.3747901,0.26622775,0,1.8605868,-47.770584,33.008464)"
     cx="74.320961"
     cy="27.954523"
     fx="73.635414"
     fy="27.176947"
     r="1.694065" /><linearGradient
     id="linearGradient6608"><stop
       style="stop-color:#ffffff;stop-opacity:1;"
       offset="0"
       id="stop6610" /><stop
       style="stop-color:#000000;stop-opacity:1;"
       offset="1"
       id="stop6612" /></linearGradient><radialGradient
     inkscape:collect="always"
     xlink:href="#linearGradient3751-1"
     id="radialGradient6523"
     gradientUnits="userSpaceOnUse"
     gradientTransform="matrix(1.0128344,-0.11087183,0,1.3707303,-71.417904,-12.125123)"
     cx="74.320961"
     cy="27.954523"
     fx="73.635414"
     fy="27.176947"
     r="1.694065" /><linearGradient
     id="linearGradient6615"><stop
       style="stop-color:#ffffff;stop-opacity:1;"
       offset="0"
       id="stop6617" /><stop
       style="stop-color:#000000;stop-opacity:1;"
       offset="1"
       id="stop6619" /></linearGradient><radialGradient
     inkscape:collect="always"
     xlink:href="#linearGradient3751-1"
     id="radialGradient6513"
     cx="74.320961"
     cy="27.954523"
     fx="73.635414"
     fy="27.176947"
     r="1.694065"
     gradientTransform="matrix(1.3747901,-0.150494,0,1.8605868,-48.068782,-34.02037)"
     gradientUnits="userSpaceOnUse" /><linearGradient
     id="linearGradient6622"><stop
       style="stop-color:#ffffff;stop-opacity:1;"
       offset="0"
       id="stop6624" /><stop
       style="stop-color:#000000;stop-opacity:1;"
       offset="1"
       id="stop6626" /></linearGradient><linearGradient
     inkscape:collect="always"
     xlink:href="#linearGradient3751-1"
     id="linearGradient6507"
     x1="55.414444"
     y1="112.43903"
     x2="50.601612"
     y2="80.511627"
     gradientUnits="userSpaceOnUse"
     gradientTransform="matrix(1.2245004,-0.07642209,0,1.2245004,-33.125435,-27.890961)" /><linearGradient
     id="linearGradient6629"><stop
       style="stop-color:#ffffff;stop-opacity:1;"
       offset="0"
       id="stop6631" /><stop
       style="stop-color:#000000;stop-opacity:1;"
       offset="1"
       id="stop6633" /></linearGradient><filter
     inkscape:collect="always"
     id="filter3768"
     x="-0.71456313"
     width="2.4291263"
     y="-0.011843587"
     height="1.0236872"><feGaussianBlur
       inkscape:collect="always"
       stdDeviation="0.44660195"
       id="feGaussianBlur3770" /></filter><linearGradient
     inkscape:collect="always"
     xlink:href="#linearGradient3751-1"
     id="linearGradient6589"
     gradientUnits="userSpaceOnUse"
     gradientTransform="matrix(1.1007334,0,0,1.1111111,-34.168424,-24.010606)"
     x1="32.511982"
     y1="8.6465502"
     x2="98.368149"
     y2="161.27028" /><linearGradient
     id="linearGradient6638"><stop
       style="stop-color:#ffffff;stop-opacity:1;"
       offset="0"
       id="stop6640" /><stop
       style="stop-color:#000000;stop-opacity:1;"
       offset="1"
       id="stop6642" /></linearGradient><linearGradient
     inkscape:collect="always"
     xlink:href="#linearGradient3751-1"
     id="linearGradient3750"
     x1="49.19722"
     y1="-14.470687"
     x2="143.11037"
     y2="79.442459"
     gradientUnits="userSpaceOnUse"
     gradientTransform="matrix(1.1170596,0,0,1.1111111,-35.562178,-24.010606)" /><linearGradient
     id="linearGradient6645"><stop
       style="stop-color:#ffffff;stop-opacity:1;"
       offset="0"
       id="stop6647" /><stop
       style="stop-color:#000000;stop-opacity:1;"
       offset="1"
       id="stop6649" /></linearGradient><filter
     inkscape:collect="always"
     id="filter6585"><feGaussianBlur
       inkscape:collect="always"
       stdDeviation="0.66975121"
       id="feGaussianBlur6587" /></filter><linearGradient
     inkscape:collect="always"
     xlink:href="#linearGradient3751-1"
     id="linearGradient6751"
     gradientUnits="userSpaceOnUse"
     gradientTransform="matrix(-1.190369,0,0,1.1840301,183.25736,-14.726123)"
     x1="49.19722"
     y1="-14.470687"
     x2="143.11037"
     y2="79.442459" /><linearGradient
     inkscape:collect="always"
     xlink:href="#linearGradient3751-1"
     id="linearGradient6753"
     gradientUnits="userSpaceOnUse"
     gradientTransform="matrix(-1.1729714,0,0,1.1840301,181.77213,-14.726123)"
     x1="32.511982"
     y1="8.6465502"
     x2="98.368149"
     y2="161.27028" /><linearGradient
     inkscape:collect="always"
     xlink:href="#linearGradient3751-1"
     id="linearGradient6755"
     gradientUnits="userSpaceOnUse"
     gradientTransform="matrix(-1.3048608,-0.08143745,0,1.3048608,180.66069,-18.861135)"
     x1="55.414444"
     y1="112.43903"
     x2="50.601612"
     y2="80.511627" /><radialGradient
     inkscape:collect="always"
     xlink:href="#linearGradient3751-1"
     id="radialGradient6757"
     gradientUnits="userSpaceOnUse"
     gradientTransform="matrix(-1.4650137,-0.16037049,0,1.9826918,196.58473,-25.392799)"
     cx="74.320961"
     cy="27.954523"
     fx="73.635414"
     fy="27.176947"
     r="1.694065" /><radialGradient
     inkscape:collect="always"
     xlink:href="#linearGradient3751-1"
     id="radialGradient6759"
     gradientUnits="userSpaceOnUse"
     gradientTransform="matrix(-1.0793038,-0.11814803,0,1.4606874,221.46619,-2.0606294)"
     cx="74.320961"
     cy="27.954523"
     fx="73.635414"
     fy="27.176947"
     r="1.694065" /><radialGradient
     inkscape:collect="always"
     xlink:href="#linearGradient3751-1"
     id="radialGradient6761"
     gradientUnits="userSpaceOnUse"
     gradientTransform="matrix(-1.4650137,0.28369951,0,1.9826918,196.26696,46.034948)"
     cx="74.320961"
     cy="27.954523"
     fx="73.635414"
     fy="27.176947"
     r="1.694065" /><radialGradient
     inkscape:collect="always"
     xlink:href="#linearGradient3751-1"
     id="radialGradient6763"
     gradientUnits="userSpaceOnUse"
     gradientTransform="matrix(-1.0793038,0.15700774,0,1.4606874,221.14842,51.017782)"
     cx="74.320961"
     cy="27.954523"
     fx="73.635414"
     fy="27.176947"
     r="1.694065" /><filter
     inkscape:collect="always"
     id="filter6777"><feGaussianBlur
       inkscape:collect="always"
       stdDeviation="0.78923688"
       id="feGaussianBlur6779" /></filter><filter
     inkscape:collect="always"
     id="filter6789"><feGaussianBlur
       inkscape:collect="always"
       stdDeviation="1.2314801"
       id="feGaussianBlur6791" /></filter></defs><sodipodi:namedview
   inkscape:window-height="835"
   inkscape:window-width="1348"
   inkscape:pageshadow="2"
   inkscape:pageopacity="0.0"
   guidetolerance="10.0"
   gridtolerance="10.0"
   objecttolerance="10.0"
   borderopacity="1.0"
   bordercolor="#666666"
   pagecolor="#ffffff"
   id="base"
   width="128px"
   height="128px"
   showguides="true"
   inkscape:guide-bbox="true"
   inkscape:zoom="2"
   inkscape:cx="-33.585705"
   inkscape:cy="63.622371"
   inkscape:window-x="98"
   inkscape:window-y="257"
   inkscape:current-layer="Livello_1"
   showgrid="true"
   inkscape:snap-nodes="true"><inkscape:grid
     type="xygrid"
     id="grid2349"
     spacingx="5.8181px"
     spacingy="5.8181px"
     empspacing="2"
     visible="true"
     enabled="true" /></sodipodi:namedview>
<filter
   id="AI_Sfocatura_4">
	<feGaussianBlur
   stdDeviation="4"
   id="feGaussianBlur4" />
</filter>
<radialGradient
   id="path3289_1_"
   cx="-170.481"
   cy="-4063.7563"
   r="63.9189"
   fx="-170.418"
   fy="-4062.5803"
   gradientTransform="matrix(-0.6334431,0,0,-5.136341e-2,-36.003374,-70.131853)"
   gradientUnits="userSpaceOnUse">
	<stop
   offset="0"
   style="stop-color:#000000"
   id="stop7" />
	<stop
   offset="1"
   style="stop-color:#000000;stop-opacity:0;"
   id="stop9" />
</radialGradient>

<linearGradient
   id="XMLID_4_"
   gradientUnits="userSpaceOnUse"
   x1="71.470589"
   y1="-3.7058823"
   x2="71.470589"
   y2="149.16949"
   gradientTransform="matrix(1.0895789,0,0,1.0895747,-6.2035508,-8.4530285)">
	<stop
   offset="0"
   style="stop-color:#4c98d6;stop-opacity:1;"
   id="stop13" />
	<stop
   offset="1"
   style="stop-color:#0057AE"
   id="stop15" />
</linearGradient>

<linearGradient
   id="circle3581_1_"
   gradientUnits="userSpaceOnUse"
   x1="-308.689"
   y1="424.73389"
   x2="-250.6033"
   y2="424.73389"
   gradientTransform="matrix(-0.4025,-1.5022,-1.5022,0.4025,594.4292,-529.8704)">
	<stop
   offset="0"
   style="stop-color:#68b3f2;stop-opacity:1;"
   id="stop20" />
	<stop
   offset="1"
   style="stop-color:#0057AE"
   id="stop22" />
</linearGradient>


<linearGradient
   id="circle16776_1_"
   gradientUnits="userSpaceOnUse"
   x1="135.49922"
   y1="419.8667"
   x2="167.72632"
   y2="419.8667"
   gradientTransform="matrix(0,1.8731675,1.8025527,0,-684.82926,-244.17614)">
	<stop
   offset="0"
   style="stop-color:#FFFFFF"
   id="stop29" />
	<stop
   offset="1"
   style="stop-color:#ffffff;stop-opacity:0;"
   id="stop31" />
</linearGradient>




<linearGradient
   id="XMLID_5_"
   gradientUnits="userSpaceOnUse"
   x1="114.2124"
   y1="114.2114"
   x2="29.3396"
   y2="29.3386"
   gradientTransform="matrix(1.105984,0,0,1.1059816,-7.3818159,-9.6317858)">
	<stop
   offset="0"
   style="stop-color:#FFFFFF"
   id="stop58" />
	<stop
   offset="0.5"
   style="stop-color:#DDDDDD"
   id="stop60" />
	<stop
   offset="1"
   style="stop-color:#FFFFFF"
   id="stop62" />
</linearGradient>

<path
   style="fill:none;stroke:#000000;stroke-width:4.54752301999999986;stroke-linecap:round;stroke-linejoin:round;stroke-miterlimit:4;stroke-opacity:0.30481285000000002;stroke-dasharray:none;fill-opacity:1;filter:url(#filter6777);opacity:0.31683168"
   d="m 114.57991,117.37684 -13.09713,0.0135 -16.086263,6.32569 -4.670381,-17.78125 -21.817873,18.42913 4.363571,-36.85826 -34.908593,46.07282 -2.181791,-23.03641 -16.2355544,6.64094 -11.8759621,-0.0243"
   id="path6769"
   sodipodi:nodetypes="cccccccccc" /><path
   style="fill:#000000;fill-opacity:1;stroke:none;overflow:visible;filter:url(#filter6585)"
   d="m 59.794903,99.371977 -58.0937501,-9.0905 -0.09375,1.68425 58.1875001,21.593753 58.187497,-20.062503 -0.4375,-3.0905 -57.749997,8.9655 z"
   id="path6546"
   sodipodi:nodetypes="ccccccc"
   transform="matrix(-1.0656271,0,0,1.0656271,145.36133,10.860235)" /><path
   id="path2962"
   style="fill:url(#linearGradient6751);fill-opacity:1;stroke:none;overflow:visible"
   d="m 81.63725,12.327779 0,118.487561 -61.999266,-21.38567 0,-80.315583 61.999266,-16.786308 z"
   sodipodi:nodetypes="ccccc" /><path
   id="path2964"
   style="fill:url(#linearGradient6753);fill-opacity:1;stroke:none;overflow:visible"
   d="m 143.63651,26.913344 -61.99926,-14.585565 0,118.487561 61.99926,-23.02991 0,-80.872086 z"
   sodipodi:nodetypes="ccccc" /><path
   style="fill:#ffffff;fill-opacity:1;stroke-width:1px;overflow:visible;filter:url(#filter3768)"
   d="m 68.750001,34.249999 c -0.872249,25.319547 1.059359,76.530331 1.059359,76.530331 0.117418,-29.98989 1.626055,-61.294993 0.04289,-90.500001 0,0 -0.941432,9.30141 -1.102252,13.96967 z"
   id="path3766"
   transform="matrix(-1.3320339,0,0,1.3320339,174.63613,-14.726122)"
   sodipodi:nodetypes="cccs" /><path
   style="fill:url(#linearGradient6755);fill-opacity:1;stroke:none;overflow:visible"
   d="m 114.44729,36.99771 c 1.50007,0.155477 2.92006,0.82309 4.29356,1.469533 1.0085,0.547978 1.87044,1.340009 2.79867,2.01628 1.97726,1.478986 3.63449,3.366378 4.94493,5.449323 0.96622,1.54892 1.8626,3.147655 2.62069,4.799689 1.11332,2.57034 1.76904,5.288154 2.21458,8.009121 0.21044,1.75784 0.29357,3.521022 0.38481,5.280547 0.0226,1.92816 -0.10879,3.845171 -0.41441,5.729086 -0.47404,3.229258 -1.30003,6.376808 -2.28899,9.452378 -0.55663,1.432061 -1.06819,2.898345 -1.88077,4.197491 -0.70449,1.498954 -1.69077,2.826801 -2.63961,4.164983 -0.87311,1.04027 -1.66397,2.15717 -2.69247,3.052676 -1.78122,1.763541 -3.89135,3.255419 -6.33725,3.999957 -1.19506,0.394272 -2.48427,0.592251 -3.77381,0.460332 -1.66845,-0.05645 -3.24995,-0.844536 -4.64289,-1.791002 -1.31943,-0.954603 -2.44985,-2.150966 -3.40703,-3.464984 -0.72843,-0.879109 -1.15206,-1.934289 -1.73073,-2.902626 -0.87174,-1.637457 -1.55276,-3.36042 -2.188851,-5.088422 -0.71902,-2.328409 -1.268394,-4.700391 -1.59878,-7.093022 -0.421764,-2.914202 -0.628113,-5.854234 -0.524099,-8.765925 0.145724,-3.282046 0.478762,-6.546929 1.050051,-9.755973 0.253211,-1.388621 0.558471,-2.761802 0.960076,-4.106747 0.547283,-2.104836 1.322003,-4.139189 2.303233,-6.05495 0.77196,-1.53241 1.69758,-2.972105 2.74447,-4.319598 0.96586,-1.25456 2.13948,-2.355538 3.46863,-3.218449 1.42083,-0.914754 3.07925,-1.474118 4.81157,-1.556422 0.50218,-0.0646 1.01619,-0.03732 1.52442,0.03675 z"
   id="path6251"
   sodipodi:nodetypes="cccccccccccccccccccccccccccccccccccccccccccccccccccccccccccccccccccccccccccccccccccccccccccccccccccccccccccccccccccccccccccccccccc" /><path
   sodipodi:nodetypes="cccccccccccccccccccccccccccccccccccccccccccccccccccccccccccccccccccccccccccccccccccccccccccccccccccccccccccccccccccccccccccccccccc"
   id="path6509"
   d="m 87.705051,14.776978 c 0,0 -0.127595,-0.02927 -0.127595,-0.02927 0,0 -0.127593,-0.02074 -0.127593,-0.02074 0,0 -0.124471,-0.01146 -0.124471,-0.01146 0,0 -0.121351,-0.0019 -0.121351,-0.0019 0,0 -0.121379,0.0076 -0.121379,0.0076 0,0 -0.115136,0.01856 -0.115136,0.01856 0,0 -0.118259,0.02292 -0.118259,0.02292 0,0 -0.112014,0.03855 -0.112014,0.03855 0,0 -0.108938,0.0448 -0.108938,0.0448 0,0 -0.105785,0.05105 -0.105785,0.05105 0,0 -0.105817,0.0611 -0.105817,0.0611 0,0 -0.09958,0.07284 -0.09958,0.07284 0,0 -0.0996,0.07862 -0.0996,0.07862 0,0 -0.09336,0.09037 -0.09336,0.09037 0,0 -0.09025,0.09701 -0.09025,0.09701 0,0 -0.08403,0.104195 -0.08403,0.104195 0,0 -0.08402,0.114832 -0.08402,0.114832 0,0 -0.0778,0.122012 -0.0778,0.122012 0,0 -0.07159,0.129125 -0.07159,0.129125 0,0 -0.07159,0.139877 -0.07159,0.139877 0,0 -0.06223,0.142633 -0.06223,0.142633 0,0 -0.06223,0.148591 -0.06223,0.148591 0,0 -0.0529,0.160602 -0.0529,0.160602 0,0 -0.04979,0.16206 -0.04979,0.16206 0,0 -0.04355,0.168587 -0.04355,0.168587 0,0 -0.04046,0.174659 -0.04046,0.174659 0,0 -0.03424,0.18092 -0.03424,0.18092 0,0 -0.028,0.18701 -0.028,0.18701 0,0 -0.02179,0.188072 -0.02179,0.188072 0,0 -0.01564,0.193735 -0.01564,0.193735 0,0 -0.0096,0.194342 -0.0096,0.194342 0,0 -0.0031,0.199628 -0.0031,0.199628 0,0 0.0031,0.204666 0.0031,0.204666 0,0 0.0096,0.194892 0.0096,0.194892 0,0 0.01564,0.194607 0.01564,0.194607 0,0 0.02179,0.189255 0.02179,0.189255 0,0 0.028,0.188564 0.028,0.188564 0,0 0.03424,0.182815 0.03424,0.182815 0,0 0.04046,0.176903 0.04046,0.176903 0,0 0.04355,0.171003 0.04355,0.171003 0,0 0.04979,0.164807 0.04979,0.164807 0,0 0.0529,0.163529 0.0529,0.163529 0,0 0.06223,0.152039 0.06223,0.152039 0,0 0.06223,0.146071 0.06223,0.146071 0,0 0.07159,0.143846 0.07159,0.143846 0,0 0.07159,0.133113 0.07159,0.133113 0,0 0.0778,0.126341 0.0778,0.126341 0,0 0.08402,0.114822 0.08402,0.114822 0,0 0.08403,0.113487 0.08403,0.113487 0,0 0.09025,0.101969 0.09025,0.101969 0,0 0.09336,0.09558 0.09336,0.09558 0,0 0.0996,0.08411 0.0996,0.08411 0,0 0.09958,0.07834 0.09958,0.07834 0,0 0.105817,0.06697 0.105817,0.06697 0,0 0.105785,0.05693 0.105785,0.05693 0,0 0.108938,0.05077 0.108938,0.05077 0,0 0.112014,0.0448 0.112014,0.0448 0,0 0.118259,0.02955 0.118259,0.02955 0,0 0.115136,0.02491 0.115136,0.02491 0,0 0.121379,0.0144 0.121379,0.0144 0,0 0.121351,0.0047 0.121351,0.0047 0,0 0.124471,-0.0038 0.124471,-0.0038 0,0 0.127593,-0.01373 0.127593,-0.01373 0,0 0.127595,-0.02216 0.127595,-0.02216 0,0 0.127594,-0.0305 0.127594,-0.0305 0,0 0.124471,-0.03789 0.124471,-0.03789 0,0 0.124472,-0.04575 0.124472,-0.04575 0,0 0.121383,-0.05276 0.121383,-0.05276 0,0 0.121379,-0.06015 0.121379,-0.06015 0,0 0.118257,-0.06678 0.118257,-0.06678 0,0 0.115153,-0.06934 0.115153,-0.06934 0,0 0.112014,-0.07947 0.112014,-0.07947 0,0 0.112014,-0.08231 0.112014,-0.08231 0,0 0.105785,-0.08392 0.105785,-0.08392 0,0 0.102695,-0.0898 0.102695,-0.0898 0,0 0.102694,-0.09617 0.102694,-0.09617 0,0 0.09646,-0.09761 0.09646,-0.09761 0,0 0.09336,-0.103238 0.09336,-0.103238 0,0 0.09025,-0.105104 0.09025,-0.105104 0,0 0.08715,-0.110607 0.08715,-0.110607 0,0 0.08091,-0.108429 0.08091,-0.108429 0,0 0.07778,-0.113894 0.07778,-0.113894 0,0 0.0747,-0.115798 0.0747,-0.115798 0,0 0.06846,-0.120895 0.06846,-0.120895 0,0 0.06537,-0.119293 0.06537,-0.119293 0,0 0.05913,-0.121055 0.05913,-0.121055 0,0 0.05603,-0.126654 0.05603,-0.126654 0,0 0.04979,-0.125081 0.04979,-0.125081 0,0 0.04355,-0.127193 0.04355,-0.127193 0,0 0.03734,-0.129438 0.03734,-0.129438 0,0 0.03423,-0.131967 0.03423,-0.131967 0,0 0.028,-0.134487 0.028,-0.134487 0,0 0.02179,-0.133824 0.02179,-0.133824 0,0 0.01566,-0.136741 0.01566,-0.136741 0,0 0.0096,-0.136467 0.0096,-0.136467 0,0 0.0031,-0.143258 0.0031,-0.143258 0,0 -0.0031,-0.14 -0.0031,-0.14 0,0 -0.0096,-0.137025 -0.0096,-0.137025 0,0 -0.01566,-0.137622 -0.01566,-0.137622 0,0 -0.02179,-0.135018 -0.02179,-0.135018 0,0 -0.028,-0.136059 -0.028,-0.136059 0,0 -0.03423,-0.133871 -0.03423,-0.133871 0,0 -0.03734,-0.131503 -0.03734,-0.131503 0,0 -0.04355,-0.129609 -0.04355,-0.129609 0,0 -0.04979,-0.127856 -0.04979,-0.127856 0,0 -0.05603,-0.129723 -0.05603,-0.129723 0,0 -0.05913,-0.124332 -0.05913,-0.124332 0,0 -0.06537,-0.122912 -0.06537,-0.122912 0,0 -0.06846,-0.124693 -0.06846,-0.124693 0,0 -0.0747,-0.119909 -0.0747,-0.119909 0,0 -0.07778,-0.118194 -0.07778,-0.118194 0,0 -0.08091,-0.116518 -0.08091,-0.116518 0,0 -0.08715,-0.111811 -0.08715,-0.111811 0,0 -0.09025,-0.110114 -0.09025,-0.110114 0,0 -0.09336,-0.10841 -0.09336,-0.10841 0,0 -0.09646,-0.102945 -0.09646,-0.102945 0,0 -0.102694,-0.101855 -0.102694,-0.101855 0,0 -0.102695,-0.09556 -0.102695,-0.09556 0,0 -0.105785,-0.0898 -0.105785,-0.0898 0,0 -0.112014,-0.08857 -0.112014,-0.08857 0,0 -0.112014,-0.08572 -0.112014,-0.08572 0,0 -0.115153,-0.07568 -0.115153,-0.07568 0,0 -0.118257,-0.07332 -0.118257,-0.07332 0,0 -0.121379,-0.06687 -0.121379,-0.06687 0,0 -0.121383,-0.05949 -0.121383,-0.05949 0,0 -0.124472,-0.05266 -0.124472,-0.05266 0,0 -0.124471,-0.0448 -0.124471,-0.0448 0,0 -0.127594,-0.0376 -0.127594,-0.0376 0,0 0,0 0,0"
   style="fill:url(#radialGradient6757);fill-opacity:1;stroke:none;overflow:visible" /><path
   style="fill:url(#radialGradient6759);fill-opacity:1;stroke:none;overflow:visible"
   d="m 141.25243,27.533217 c 0,0 -0.094,-0.0215 -0.094,-0.0215 0,0 -0.094,-0.01534 -0.094,-0.01534 0,0 -0.0917,-0.0085 -0.0917,-0.0085 0,0 -0.0894,-9.47e-4 -0.0894,-9.47e-4 0,0 -0.0894,0.0057 -0.0894,0.0057 0,0 -0.0849,0.01383 -0.0849,0.01383 0,0 -0.0872,0.01677 -0.0872,0.01677 0,0 -0.0825,0.02842 -0.0825,0.02842 0,0 -0.0802,0.03296 -0.0802,0.03296 0,0 -0.0779,0.0376 -0.0779,0.0376 0,0 -0.078,0.04509 -0.078,0.04509 0,0 -0.0734,0.05361 -0.0734,0.05361 0,0 -0.0734,0.05787 -0.0734,0.05787 0,0 -0.0688,0.06659 -0.0688,0.06659 0,0 -0.0665,0.07152 -0.0665,0.07152 0,0 -0.0619,0.07672 -0.0619,0.07672 0,0 -0.0619,0.08459 -0.0619,0.08459 0,0 -0.0573,0.08989 -0.0573,0.08989 0,0 -0.0528,0.09512 -0.0528,0.09512 0,0 -0.0528,0.103048 -0.0528,0.103048 0,0 -0.0459,0.105076 -0.0459,0.105076 0,0 -0.0458,0.10948 -0.0458,0.10948 0,0 -0.0389,0.118308 -0.0389,0.118308 0,0 -0.0367,0.119388 -0.0367,0.119388 0,0 -0.0321,0.124219 -0.0321,0.124219 0,0 -0.0298,0.128671 -0.0298,0.128671 0,0 -0.0252,0.133294 -0.0252,0.133294 0,0 -0.0206,0.137773 -0.0206,0.137773 0,0 -0.016,0.138551 -0.016,0.138551 0,0 -0.0118,0.142737 -0.0118,0.142737 0,0 -0.007,0.143173 -0.007,0.143173 0,0 -0.002,0.147047 -0.002,0.147047 0,0 0.002,0.150789 0.002,0.150789 0,0 0.007,0.14357 0.007,0.14357 0,0 0.0118,0.143363 0.0118,0.143363 0,0 0.016,0.139412 0.016,0.139412 0,0 0.0206,0.138911 0.0206,0.138911 0,0 0.0252,0.134685 0.0252,0.134685 0,0 0.0298,0.13031 0.0298,0.13031 0,0 0.0321,0.125981 0.0321,0.125981 0,0 0.0367,0.121425 0.0367,0.121425 0,0 0.0389,0.120477 0.0389,0.120477 0,0 0.0458,0.112009 0.0458,0.112009 0,0 0.0459,0.107614 0.0459,0.107614 0,0 0.0528,0.105966 0.0528,0.105966 0,0 0.0528,0.09809 0.0528,0.09809 0,0 0.0573,0.09311 0.0573,0.09311 0,0 0.0619,0.08459 0.0619,0.08459 0,0 0.0619,0.08364 0.0619,0.08364 0,0 0.0665,0.07511 0.0665,0.07511 0,0 0.0688,0.07038 0.0688,0.07038 0,0 0.0734,0.06195 0.0734,0.06195 0,0 0.0734,0.05769 0.0734,0.05769 0,0 0.078,0.04935 0.078,0.04935 0,0 0.0779,0.04187 0.0779,0.04187 0,0 0.0802,0.03742 0.0802,0.03742 0,0 0.0825,0.03296 0.0825,0.03296 0,0 0.0872,0.02179 0.0872,0.02179 0,0 0.0849,0.01838 0.0849,0.01838 0,0 0.0894,0.0107 0.0894,0.0107 0,0 0.0894,0.0038 0.0894,0.0038 0,0 0.0917,-0.0028 0.0917,-0.0028 0,0 0.094,-0.01004 0.094,-0.01004 0,0 0.094,-0.01639 0.094,-0.01639 0,0 0.094,-0.02245 0.094,-0.02245 0,0 0.0917,-0.02794 0.0917,-0.02794 0,0 0.0917,-0.03372 0.0917,-0.03372 0,0 0.0894,-0.03884 0.0894,-0.03884 0,0 0.0894,-0.04433 0.0894,-0.04433 0,0 0.0871,-0.04916 0.0871,-0.04916 0,0 0.0849,-0.05105 0.0849,-0.05105 0,0 0.0825,-0.05854 0.0825,-0.05854 0,0 0.0825,-0.06062 0.0825,-0.06062 0,0 0.078,-0.06185 0.078,-0.06185 0,0 0.0757,-0.06621 0.0757,-0.06621 0,0 0.0757,-0.07085 0.0757,-0.07085 0,0 0.071,-0.0719 0.071,-0.0719 0,0 0.0688,-0.07606 0.0688,-0.07606 0,0 0.0665,-0.07748 0.0665,-0.07748 0,0 0.0642,-0.08146 0.0642,-0.08146 0,0 0.0596,-0.07985 0.0596,-0.07985 0,0 0.0573,-0.08392 0.0573,-0.08392 0,0 0.055,-0.08535 0.055,-0.08535 0,0 0.0504,-0.08904 0.0504,-0.08904 0,0 0.0481,-0.0879 0.0481,-0.0879 0,0 0.0436,-0.08923 0.0436,-0.08923 0,0 0.0413,-0.0933 0.0413,-0.0933 0,0 0.0367,-0.09217 0.0367,-0.09217 0,0 0.0321,-0.09368 0.0321,-0.09368 0,0 0.0276,-0.09535 0.0276,-0.09535 0,0 0.0252,-0.09721 0.0252,-0.09721 0,0 0.0207,-0.09909 0.0207,-0.09909 0,0 0.016,-0.09858 0.016,-0.09858 0,0 0.0117,-0.100709 0.0117,-0.100709 0,0 0.007,-0.100538 0.007,-0.100538 0,0 0.002,-0.10554 0.002,-0.10554 0,0 -0.002,-0.103124 -0.002,-0.103124 0,0 -0.007,-0.100955 -0.007,-0.100955 0,0 -0.0117,-0.101391 -0.0117,-0.101391 0,0 -0.016,-0.09948 -0.016,-0.09948 0,0 -0.0207,-0.100217 -0.0207,-0.100217 0,0 -0.0252,-0.09863 -0.0252,-0.09863 0,0 -0.0276,-0.09689 -0.0276,-0.09689 0,0 -0.0321,-0.09549 -0.0321,-0.09549 0,0 -0.0367,-0.09416 -0.0367,-0.09416 0,0 -0.0413,-0.09559 -0.0413,-0.09559 0,0 -0.0436,-0.0916 -0.0436,-0.0916 0,0 -0.0481,-0.09056 -0.0481,-0.09056 0,0 -0.0504,-0.09188 -0.0504,-0.09188 0,0 -0.055,-0.08838 -0.055,-0.08838 0,0 -0.0573,-0.08705 -0.0573,-0.08705 0,0 -0.0596,-0.08582 -0.0596,-0.08582 0,0 -0.0642,-0.08241 -0.0642,-0.08241 0,0 -0.0665,-0.08108 -0.0665,-0.08108 0,0 -0.0688,-0.07985 -0.0688,-0.07985 0,0 -0.071,-0.07578 -0.071,-0.07578 0,0 -0.0757,-0.07511 -0.0757,-0.07511 0,0 -0.0757,-0.07038 -0.0757,-0.07038 0,0 -0.078,-0.06612 -0.078,-0.06612 0,0 -0.0825,-0.06517 -0.0825,-0.06517 0,0 -0.0825,-0.06309 -0.0825,-0.06309 0,0 -0.0849,-0.05579 -0.0849,-0.05579 0,0 -0.0871,-0.05399 -0.0871,-0.05399 0,0 -0.0894,-0.04926 -0.0894,-0.04926 0,0 -0.0894,-0.04386 -0.0894,-0.04386 0,0 -0.0917,-0.03884 -0.0917,-0.03884 0,0 -0.0917,-0.03296 -0.0917,-0.03296 0,0 -0.094,-0.02766 -0.094,-0.02766 0,0 0,0 0,0"
   id="path6519"
   sodipodi:nodetypes="cccccccccccccccccccccccccccccccccccccccccccccccccccccccccccccccccccccccccccccccccccccccccccccccccccccccccccccccccccccccccccccccccc" /><path
   style="fill:url(#radialGradient6761);fill-opacity:1;stroke:none;overflow:visible"
   d="m 87.387284,119.20796 c 0,0 -0.127594,0.01 -0.127594,0.01 0,0 -0.127594,0.0173 -0.127594,0.0173 0,0 -0.124472,0.0265 -0.124472,0.0265 0,0 -0.121349,0.0349 -0.121349,0.0349 0,0 -0.121381,0.0444 -0.121381,0.0444 0,0 -0.115136,0.0534 -0.115136,0.0534 0,0 -0.118259,0.0587 -0.118259,0.0587 0,0 -0.112013,0.0725 -0.112013,0.0725 0,0 -0.108938,0.0779 -0.108938,0.0779 0,0 -0.105785,0.0831 -0.105785,0.0831 0,0 -0.105816,0.0932 -0.105816,0.0932 0,0 -0.09958,0.10305 -0.09958,0.10305 0,0 -0.0996,0.1088 -0.0996,0.1088 0,0 -0.09336,0.11866 -0.09336,0.11866 0,0 -0.09025,0.12438 -0.09025,0.12438 0,0 -0.08402,0.12965 -0.08402,0.12965 0,0 -0.08402,0.14031 -0.08402,0.14031 0,0 -0.07779,0.14558 -0.07779,0.14558 0,0 -0.07159,0.15083 -0.07159,0.15083 0,0 -0.07159,0.16159 -0.07159,0.16159 0,0 -0.06223,0.16148 -0.06223,0.16148 0,0 -0.06223,0.16745 -0.06223,0.16745 0,0 -0.05289,0.17665 -0.05289,0.17665 0,0 -0.04979,0.17715 -0.04979,0.17715 0,0 -0.04355,0.18179 -0.04355,0.18179 0,0 -0.04046,0.18693 -0.04046,0.18693 0,0 -0.03424,0.19129 -0.03424,0.19129 0,0 -0.028,0.1955 -0.028,0.1955 0,0 -0.02179,0.19466 -0.02179,0.19466 0,0 -0.01563,0.19848 -0.01563,0.19848 0,0 -0.0096,0.19726 -0.0096,0.19726 0,0 -0.0031,0.20059 -0.0031,0.20059 0,0 0.0031,0.20371 0.0031,0.20371 0,0 0.0096,0.19197 0.0096,0.19197 0,0 0.01563,0.18987 0.01563,0.18987 0,0 0.02179,0.18265 0.02179,0.18265 0,0 0.028,0.18008 0.028,0.18008 0,0 0.03424,0.17243 0.03424,0.17243 0,0 0.04046,0.16465 0.04046,0.16465 0,0 0.04355,0.1578 0.04355,0.1578 0,0 0.04979,0.14973 0.04979,0.14973 0,0 0.05289,0.14749 0.05289,0.14749 0,0 0.06223,0.13317 0.06223,0.13317 0,0 0.06223,0.12721 0.06223,0.12721 0,0 0.07159,0.12215 0.07159,0.12215 0,0 0.07159,0.11141 0.07159,0.11141 0,0 0.07779,0.10272 0.07779,0.10272 0,0 0.08402,0.0893 0.08402,0.0893 0,0 0.08402,0.088 0.08402,0.088 0,0 0.09025,0.0746 0.09025,0.0746 0,0 0.09336,0.0673 0.09336,0.0673 0,0 0.0996,0.0539 0.0996,0.0539 0,0 0.09958,0.048 0.09958,0.048 0,0 0.105816,0.0349 0.105816,0.0349 0,0 0.105785,0.0249 0.105785,0.0249 0,0 0.108938,0.0177 0.108938,0.0177 0,0 0.112013,0.0109 0.112013,0.0109 0,0 0.118259,-0.007 0.118259,-0.007 0,0 0.115136,-0.01 0.115136,-0.01 0,0 0.121381,-0.0223 0.121381,-0.0223 0,0 0.121349,-0.0319 0.121349,-0.0319 0,0 0.124472,-0.0415 0.124472,-0.0415 0,0 0.127594,-0.0523 0.127594,-0.0523 0,0 0.127594,-0.0608 0.127594,-0.0608 0,0 0.127594,-0.0692 0.127594,-0.0692 0,0 0.124472,-0.0756 0.124472,-0.0756 0,0 0.124472,-0.0834 0.124472,-0.0834 0,0 0.121381,-0.0895 0.121381,-0.0895 0,0 0.121379,-0.097 0.121379,-0.097 0,0 0.118259,-0.10262 0.118259,-0.10262 0,0 0.115151,-0.10422 0.115151,-0.10422 0,0 0.112015,-0.11343 0.112015,-0.11343 0,0 0.112014,-0.11627 0.112014,-0.11627 0,0 0.105785,-0.116 0.105785,-0.116 0,0 0.102695,-0.12092 0.102695,-0.12092 0,0 0.102695,-0.1273 0.102695,-0.1273 0,0 0.09646,-0.12684 0.09646,-0.12684 0,0 0.09336,-0.13153 0.09336,-0.13153 0,0 0.09025,-0.13247 0.09025,-0.13247 0,0 0.08714,-0.13701 0.08714,-0.13701 0,0 0.08091,-0.13297 0.08091,-0.13297 0,0 0.07778,-0.13747 0.07778,-0.13747 0,0 0.0747,-0.13844 0.0747,-0.13844 0,0 0.06846,-0.14163 0.06846,-0.14163 0,0 0.06537,-0.13911 0.06537,-0.13911 0,0 0.05913,-0.13898 0.05913,-0.13898 0,0 0.05603,-0.14363 0.05603,-0.14363 0,0 0.04979,-0.14019 0.04979,-0.14019 0,0 0.04355,-0.14039 0.04355,-0.14039 0,0 0.03734,-0.14075 0.03734,-0.14075 0,0 0.03424,-0.14235 0.03424,-0.14235 0,0 0.028,-0.14297 0.028,-0.14297 0,0 0.02179,-0.14043 0.02179,-0.14043 0,0 0.01566,-0.14149 0.01566,-0.14149 0,0 0.0096,-0.13938 0.0096,-0.13938 0,0 0.0031,-0.1442 0.0031,-0.1442 0,0 -0.0031,-0.13907 -0.0031,-0.13907 0,0 -0.0096,-0.1341 -0.0096,-0.1341 0,0 -0.01566,-0.13287 -0.01566,-0.13287 0,0 -0.02179,-0.12842 -0.02179,-0.12842 0,0 -0.028,-0.12757 -0.028,-0.12757 0,0 -0.03424,-0.12351 -0.03424,-0.12351 0,0 -0.03734,-0.12018 -0.03734,-0.12018 0,0 -0.04355,-0.1164 -0.04355,-0.1164 0,0 -0.04979,-0.11276 -0.04979,-0.11276 0,0 -0.05603,-0.11274 -0.05603,-0.11274 0,0 -0.05913,-0.10646 -0.05913,-0.10646 0,0 -0.06537,-0.10315 -0.06537,-0.10315 0,0 -0.06846,-0.10391 -0.06846,-0.10391 0,0 -0.0747,-0.0973 -0.0747,-0.0973 0,0 -0.07778,-0.0946 -0.07778,-0.0946 0,0 -0.08091,-0.092 -0.08091,-0.092 0,0 -0.08714,-0.0854 -0.08714,-0.0854 0,0 -0.09025,-0.0828 -0.09025,-0.0828 0,0 -0.09336,-0.08 -0.09336,-0.08 0,0 -0.09646,-0.0737 -0.09646,-0.0737 0,0 -0.102695,-0.0707 -0.102695,-0.0707 0,0 -0.102695,-0.0643 -0.102695,-0.0643 0,0 -0.105785,-0.0577 -0.105785,-0.0577 0,0 -0.112014,-0.0546 -0.112014,-0.0546 0,0 -0.112015,-0.0518 -0.112015,-0.0518 0,0 -0.115151,-0.0407 -0.115151,-0.0407 0,0 -0.118259,-0.0375 -0.118259,-0.0375 0,0 -0.121379,-0.0301 -0.121379,-0.0301 0,0 -0.121381,-0.0226 -0.121381,-0.0226 0,0 -0.124472,-0.0149 -0.124472,-0.0149 0,0 -0.124472,-0.007 -0.124472,-0.007 0,0 -0.127594,9.5e-4 -0.127594,9.5e-4 0,0 0,0 0,0"
   id="path6527"
   sodipodi:nodetypes="cccccccccccccccccccccccccccccccccccccccccccccccccccccccccccccccccccccccccccccccccccccccccccccccccccccccccccccccccccccccccccccccccc" /><path
   sodipodi:nodetypes="cccccccccccccccccccccccccccccccccccccccccccccccccccccccccccccccccccccccccccccccccccccccccccccccccccccccccccccccccccccccccccccccccc"
   id="path6529"
   d="m 140.93466,101.06119 c 0,0 -0.094,0.003 -0.094,0.003 0,0 -0.094,0.009 -0.094,0.009 0,0 -0.0917,0.0149 -0.0917,0.0149 0,0 -0.0894,0.0219 -0.0894,0.0219 0,0 -0.0894,0.0285 -0.0894,0.0285 0,0 -0.0848,0.0354 -0.0848,0.0354 0,0 -0.0872,0.039 -0.0872,0.039 0,0 -0.0825,0.0494 -0.0825,0.0494 0,0 -0.0802,0.0534 -0.0802,0.0534 0,0 -0.078,0.0575 -0.078,0.0575 0,0 -0.078,0.065 -0.078,0.065 0,0 -0.0734,0.0724 -0.0734,0.0724 0,0 -0.0734,0.0765 -0.0734,0.0765 0,0 -0.0688,0.0841 -0.0688,0.0841 0,0 -0.0665,0.0885 -0.0665,0.0885 0,0 -0.0619,0.0926 -0.0619,0.0926 0,0 -0.0619,0.10036 -0.0619,0.10036 0,0 -0.0573,0.10451 -0.0573,0.10451 0,0 -0.0528,0.10855 -0.0528,0.10855 0,0 -0.0528,0.11649 -0.0528,0.11649 0,0 -0.0458,0.11677 -0.0458,0.11677 0,0 -0.0459,0.12117 -0.0459,0.12117 0,0 -0.0389,0.12823 -0.0389,0.12823 0,0 -0.0367,0.12875 -0.0367,0.12875 0,0 -0.0321,0.1324 -0.0321,0.1324 0,0 -0.0298,0.13628 -0.0298,0.13628 0,0 -0.0252,0.13971 -0.0252,0.13971 0,0 -0.0206,0.14304 -0.0206,0.14304 0,0 -0.016,0.14264 -0.016,0.14264 0,0 -0.0117,0.14574 -0.0117,0.14574 0,0 -0.007,0.14492 -0.007,0.14492 0,0 -0.002,0.14766 -0.002,0.14766 0,0 0.002,0.15019 0.002,0.15019 0,0 0.007,0.14181 0.007,0.14181 0,0 0.0117,0.14036 0.0117,0.14036 0,0 0.016,0.13532 0.016,0.13532 0,0 0.0206,0.13365 0.0206,0.13365 0,0 0.0252,0.12826 0.0252,0.12826 0,0 0.0298,0.1227 0.0298,0.1227 0,0 0.0321,0.11779 0.0321,0.11779 0,0 0.0367,0.11208 0.0367,0.11208 0,0 0.0389,0.11055 0.0389,0.11055 0,0 0.0459,0.10032 0.0459,0.10032 0,0 0.0458,0.0959 0.0458,0.0959 0,0 0.0528,0.0925 0.0528,0.0925 0,0 0.0528,0.0847 0.0528,0.0847 0,0 0.0573,0.0785 0.0573,0.0785 0,0 0.0619,0.0688 0.0619,0.0688 0,0 0.0619,0.0678 0.0619,0.0678 0,0 0.0665,0.0581 0.0665,0.0581 0,0 0.0688,0.0529 0.0688,0.0529 0,0 0.0734,0.0433 0.0734,0.0433 0,0 0.0734,0.0389 0.0734,0.0389 0,0 0.078,0.0295 0.078,0.0295 0,0 0.078,0.022 0.078,0.022 0,0 0.0802,0.017 0.0802,0.017 0,0 0.0825,0.0119 0.0825,0.0119 0,0 0.0872,-4.2e-4 0.0872,-4.2e-4 0,0 0.0848,-0.003 0.0848,-0.003 0,0 0.0894,-0.0121 0.0894,-0.0121 0,0 0.0894,-0.019 0.0894,-0.019 0,0 0.0917,-0.0262 0.0917,-0.0262 0,0 0.094,-0.034 0.094,-0.034 0,0 0.094,-0.0403 0.094,-0.0403 0,0 0.094,-0.0464 0.094,-0.0464 0,0 0.0917,-0.0513 0.0917,-0.0513 0,0 0.0917,-0.0571 0.0917,-0.0571 0,0 0.0894,-0.0617 0.0894,-0.0617 0,0 0.0894,-0.0672 0.0894,-0.0672 0,0 0.0871,-0.0714 0.0871,-0.0714 0,0 0.0849,-0.0727 0.0849,-0.0727 0,0 0.0825,-0.0796 0.0825,-0.0796 0,0 0.0825,-0.0817 0.0825,-0.0817 0,0 0.078,-0.0817 0.078,-0.0817 0,0 0.0757,-0.0855 0.0757,-0.0855 0,0 0.0757,-0.0902 0.0757,-0.0902 0,0 0.071,-0.09 0.071,-0.09 0,0 0.0688,-0.0936 0.0688,-0.0936 0,0 0.0665,-0.0944 0.0665,-0.0944 0,0 0.0642,-0.0978 0.0642,-0.0978 0,0 0.0596,-0.095 0.0596,-0.095 0,0 0.0573,-0.0985 0.0573,-0.0985 0,0 0.055,-0.0994 0.055,-0.0994 0,0 0.0504,-0.10189 0.0504,-0.10189 0,0 0.0481,-0.10018 0.0481,-0.10018 0,0 0.0436,-0.10024 0.0436,-0.10024 0,0 0.0413,-0.10382 0.0413,-0.10382 0,0 0.0367,-0.10151 0.0367,-0.10151 0,0 0.0321,-0.10186 0.0321,-0.10186 0,0 0.0275,-0.10237 0.0275,-0.10237 0,0 0.0252,-0.10364 0.0252,-0.10364 0,0 0.0207,-0.10436 0.0207,-0.10436 0,0 0.016,-0.10266 0.016,-0.10266 0,0 0.0117,-0.10371 0.0117,-0.10371 0,0 0.007,-0.10228 0.007,-0.10228 0,0 0.002,-0.10617 0.002,-0.10617 0,0 -0.002,-0.10252 -0.002,-0.10252 0,0 -0.007,-0.0992 -0.007,-0.0992 0,0 -0.0117,-0.0984 -0.0117,-0.0984 0,0 -0.016,-0.0954 -0.016,-0.0954 0,0 -0.0207,-0.0949 -0.0207,-0.0949 0,0 -0.0252,-0.0922 -0.0252,-0.0922 0,0 -0.0275,-0.0899 -0.0275,-0.0899 0,0 -0.0321,-0.0873 -0.0321,-0.0873 0,0 -0.0367,-0.0848 -0.0367,-0.0848 0,0 -0.0413,-0.0851 -0.0413,-0.0851 0,0 -0.0436,-0.0805 -0.0436,-0.0805 0,0 -0.0481,-0.0782 -0.0481,-0.0782 0,0 -0.0504,-0.079 -0.0504,-0.079 0,0 -0.055,-0.0744 -0.055,-0.0744 0,0 -0.0573,-0.0725 -0.0573,-0.0725 0,0 -0.0596,-0.0707 -0.0596,-0.0707 0,0 -0.0642,-0.066 -0.0642,-0.066 0,0 -0.0665,-0.0641 -0.0665,-0.0641 0,0 -0.0688,-0.0623 -0.0688,-0.0623 0,0 -0.071,-0.0578 -0.071,-0.0578 0,0 -0.0757,-0.0557 -0.0757,-0.0557 0,0 -0.0757,-0.0511 -0.0757,-0.0511 0,0 -0.078,-0.0462 -0.078,-0.0462 0,0 -0.0825,-0.0441 -0.0825,-0.0441 0,0 -0.0825,-0.0421 -0.0825,-0.0421 0,0 -0.0849,-0.0341 -0.0849,-0.0341 0,0 -0.0871,-0.0318 -0.0871,-0.0318 0,0 -0.0894,-0.0264 -0.0894,-0.0264 0,0 -0.0894,-0.021 -0.0894,-0.021 0,0 -0.0917,-0.0154 -0.0917,-0.0154 0,0 -0.0917,-0.01 -0.0917,-0.01 0,0 -0.094,-0.004 -0.094,-0.004 0,0 0,0 0,0"
   style="fill:url(#radialGradient6763);fill-opacity:1;stroke:none;overflow:visible" /><path
   style="fill:none;stroke:url(#linearGradient3701);stroke-width:5.42024993999999971;stroke-linecap:round;stroke-linejoin:round;stroke-miterlimit:4;stroke-opacity:1;stroke-dasharray:none"
   d="M 117.81653,69.19233 104.7258,69.21153 91.635075,78.19816 78.54435,52.9371 65.453625,79.11855 52.3629,26.75565 39.272175,92.20927 26.18145,59.482462 13.090725,68.91694 1.2032366,68.88237"
   id="path2921"
   sodipodi:nodetypes="cccccccccc" /><path
   sodipodi:nodetypes="ccccc"
   id="path6765"
   d="M 80.849687,115.17853 74.04435,105.93478 60.391125,121.27016 47.8629,87.50565 41.057302,116.40726"
   style="fill:none;stroke:#000000;stroke-width:4.54752301999999986;stroke-linecap:round;stroke-linejoin:round;stroke-miterlimit:4;stroke-opacity:0.30481285000000002;stroke-dasharray:none;filter:url(#filter6789)" /></svg>