<?xml version="1.0" encoding="UTF-8" standalone="no"?>
<!-- Created with Inkscape (http://www.inkscape.org/) -->
<svg
   xmlns:dc="http://purl.org/dc/elements/1.1/"
   xmlns:cc="http://web.resource.org/cc/"
   xmlns:rdf="http://www.w3.org/1999/02/22-rdf-syntax-ns#"
   xmlns:svg="http://www.w3.org/2000/svg"
   xmlns="http://www.w3.org/2000/svg"
   xmlns:xlink="http://www.w3.org/1999/xlink"
   xmlns:sodipodi="http://sodipodi.sourceforge.net/DTD/sodipodi-0.dtd"
   xmlns:inkscape="http://www.inkscape.org/namespaces/inkscape"
   width="88"
   height="88"
   id="svg2"
   sodipodi:version="0.32"
   inkscape:version="0.45.1"
   version="1.0"
   sodipodi:docbase="/home/david/Icons/Oxygen/trunk/scalable/devices/small/22x22"
   sodipodi:docname="multimedia-player-apple-ipod.svgz"
   inkscape:output_extension="org.inkscape.output.svgz.inkscape"
   inkscape:export-filename="/home/david/Icons/Oxygen/multimedia-player-apple-ipod.png"
   inkscape:export-xdpi="22.5"
   inkscape:export-ydpi="22.5">
  <defs
     id="defs4">
    <linearGradient
       inkscape:collect="always"
       id="linearGradient3214">
      <stop
         style="stop-color:#ffffff;stop-opacity:1;"
         offset="0"
         id="stop3216" />
      <stop
         style="stop-color:#ffffff;stop-opacity:0;"
         offset="1"
         id="stop3218" />
    </linearGradient>
    <linearGradient
       inkscape:collect="always"
       id="linearGradient2235">
      <stop
         style="stop-color:#6ecaf7;stop-opacity:1"
         offset="0"
         id="stop2237" />
      <stop
         style="stop-color:#3383e6;stop-opacity:1"
         offset="1"
         id="stop2239" />
    </linearGradient>
    <linearGradient
       inkscape:collect="always"
       id="linearGradient3431">
      <stop
         style="stop-color:#ffffff;stop-opacity:1;"
         offset="0"
         id="stop3433" />
      <stop
         style="stop-color:#fafafa;stop-opacity:1"
         offset="1"
         id="stop3435" />
    </linearGradient>
    <linearGradient
       inkscape:collect="always"
       id="linearGradient3383">
      <stop
         style="stop-color:#000000;stop-opacity:1;"
         offset="0"
         id="stop3385" />
      <stop
         style="stop-color:#ffffff;stop-opacity:1"
         offset="1"
         id="stop3387" />
    </linearGradient>
    <linearGradient
       inkscape:collect="always"
       id="linearGradient3368">
      <stop
         style="stop-color:#7b7b7b;stop-opacity:1"
         offset="0"
         id="stop3370" />
      <stop
         style="stop-color:#ffffff;stop-opacity:1"
         offset="1"
         id="stop3372" />
    </linearGradient>
    <linearGradient
       id="linearGradient3323"
       inkscape:collect="always">
      <stop
         id="stop3325"
         offset="0"
         style="stop-color:#b9bdc0;stop-opacity:1" />
      <stop
         id="stop3327"
         offset="1"
         style="stop-color:#dce0e3;stop-opacity:1" />
    </linearGradient>
    <linearGradient
       inkscape:collect="always"
       id="linearGradient3315">
      <stop
         style="stop-color:#ffffff;stop-opacity:1;"
         offset="0"
         id="stop3317" />
      <stop
         style="stop-color:#ffffff;stop-opacity:0;"
         offset="1"
         id="stop3319" />
    </linearGradient>
    <linearGradient
       inkscape:collect="always"
       id="linearGradient3295">
      <stop
         style="stop-color:#000000;stop-opacity:1;"
         offset="0"
         id="stop3297" />
      <stop
         style="stop-color:#000000;stop-opacity:0;"
         offset="1"
         id="stop3299" />
    </linearGradient>
    <linearGradient
       inkscape:collect="always"
       id="linearGradient3226">
      <stop
         style="stop-color:#ffffff;stop-opacity:1;"
         offset="0"
         id="stop3228" />
      <stop
         style="stop-color:#000000;stop-opacity:0"
         offset="1"
         id="stop3230" />
    </linearGradient>
    <linearGradient
       inkscape:collect="always"
       id="linearGradient3152">
      <stop
         style="stop-color:#b8bcbf;stop-opacity:1;"
         offset="0"
         id="stop3154" />
      <stop
         style="stop-color:#dce0e3;stop-opacity:1"
         offset="1"
         id="stop3156" />
    </linearGradient>
    <linearGradient
       inkscape:collect="always"
       xlink:href="#linearGradient3323"
       id="linearGradient3158"
       x1="68.104782"
       y1="115.30502"
       x2="68.104782"
       y2="10.400873"
       gradientUnits="userSpaceOnUse"
       gradientTransform="matrix(0.8010235,0,0,0.7005528,-5.2975497,0.2256478)" />
    <clipPath
       clipPathUnits="userSpaceOnUse"
       id="clipPath3218">
      <rect
         ry="5.0645857"
         rx="5.0645857"
         y="6"
         x="27"
         height="114"
         width="74"
         id="rect3220"
         style="opacity:1;fill:url(#linearGradient3222);fill-opacity:1;stroke:none;stroke-width:2.5;stroke-linecap:round;stroke-linejoin:miter;stroke-miterlimit:4;stroke-dasharray:none;stroke-opacity:1" />
    </clipPath>
    <linearGradient
       inkscape:collect="always"
       xlink:href="#linearGradient3152"
       id="linearGradient3222"
       gradientUnits="userSpaceOnUse"
       gradientTransform="matrix(1.0277778,0,0,1,-1.7777778,0)"
       x1="68.104782"
       y1="115.30502"
       x2="68.104782"
       y2="10.400873" />
    <filter
       inkscape:collect="always"
       id="filter3283">
      <feGaussianBlur
         inkscape:collect="always"
         stdDeviation="2.78"
         id="feGaussianBlur3285" />
    </filter>
    <linearGradient
       inkscape:collect="always"
       xlink:href="#linearGradient3226"
       id="linearGradient3291"
       gradientUnits="userSpaceOnUse"
       gradientTransform="matrix(2.2162162,0,0,1,-77.837838,0)"
       x1="59.321152"
       y1="111.61904"
       x2="59.321152"
       y2="120.05945" />
    <mask
       maskUnits="userSpaceOnUse"
       id="mask3287">
      <rect
         ry="5.0645857"
         rx="5.0645857"
         y="6"
         x="-18"
         height="114"
         width="164"
         id="rect3289"
         style="opacity:1;fill:url(#linearGradient3291);fill-opacity:1;stroke:none;stroke-width:2.5;stroke-linecap:round;stroke-linejoin:miter;stroke-miterlimit:4;stroke-dasharray:none;stroke-opacity:1;filter:url(#filter3283)" />
    </mask>
    <linearGradient
       inkscape:collect="always"
       xlink:href="#linearGradient3295"
       id="linearGradient3301"
       x1="64"
       y1="120"
       x2="64"
       y2="114.06337"
       gradientUnits="userSpaceOnUse" />
    <linearGradient
       inkscape:collect="always"
       xlink:href="#linearGradient3295"
       id="linearGradient3305"
       gradientUnits="userSpaceOnUse"
       x1="64"
       y1="120"
       x2="64"
       y2="115.42658"
       gradientTransform="matrix(0.7793742,0,0,0.7005528,-3.9119956,-88.495299)" />
    <radialGradient
       inkscape:collect="always"
       xlink:href="#linearGradient3315"
       id="radialGradient3321"
       cx="65.010292"
       cy="-43.322403"
       fx="65.010292"
       fy="-43.322403"
       r="37"
       gradientTransform="matrix(3.0687281,0,0,1.7980025,-153.88834,50.90621)"
       gradientUnits="userSpaceOnUse" />
    <filter
       inkscape:collect="always"
       id="filter3353">
      <feGaussianBlur
         inkscape:collect="always"
         stdDeviation="1.88"
         id="feGaussianBlur3355" />
    </filter>
    <linearGradient
       inkscape:collect="always"
       xlink:href="#linearGradient3368"
       id="linearGradient3374"
       x1="64"
       y1="81.075737"
       x2="64"
       y2="94.528595"
       gradientUnits="userSpaceOnUse"
       gradientTransform="matrix(0.6683038,0,0,0.6735225,3.1965168,2.6043196)" />
    <linearGradient
       inkscape:collect="always"
       xlink:href="#linearGradient3383"
       id="linearGradient3389"
       x1="65.844666"
       y1="69.403397"
       x2="65.844666"
       y2="104.22361"
       gradientUnits="userSpaceOnUse" />
    <filter
       inkscape:collect="always"
       id="filter3427">
      <feGaussianBlur
         inkscape:collect="always"
         stdDeviation="0.86"
         id="feGaussianBlur3429" />
    </filter>
    <linearGradient
       inkscape:collect="always"
       xlink:href="#linearGradient3431"
       id="linearGradient3437"
       x1="79"
       y1="66.863914"
       x2="79"
       y2="100"
       gradientUnits="userSpaceOnUse"
       gradientTransform="matrix(0.6562879,0,0,0.6614128,3.965531,3.6699713)" />
    <filter
       inkscape:collect="always"
       id="filter3439">
      <feGaussianBlur
         inkscape:collect="always"
         stdDeviation="0.17140625"
         id="feGaussianBlur3441" />
    </filter>
    <filter
       inkscape:collect="always"
       id="filter3443">
      <feGaussianBlur
         inkscape:collect="always"
         stdDeviation="0.94"
         id="feGaussianBlur3445" />
    </filter>
    <filter
       inkscape:collect="always"
       x="-0.35203815"
       width="1.7040763"
       y="-0.50405461"
       height="2.0081091"
       id="filter3539">
      <feGaussianBlur
         inkscape:collect="always"
         stdDeviation="9.2410013"
         id="feGaussianBlur3541" />
    </filter>
    <filter
       inkscape:collect="always"
       id="filter3224">
      <feGaussianBlur
         inkscape:collect="always"
         stdDeviation="1.8601872"
         id="feGaussianBlur3226" />
    </filter>
    <linearGradient
       inkscape:collect="always"
       xlink:href="#linearGradient2235"
       id="linearGradient2241"
       x1="60.612953"
       y1="14.041074"
       x2="49.908375"
       y2="36.70142"
       gradientUnits="userSpaceOnUse" />
    <linearGradient
       inkscape:collect="always"
       xlink:href="#linearGradient3214"
       id="linearGradient3220"
       x1="40.176937"
       y1="12.511848"
       x2="41.011059"
       y2="41.289101"
       gradientUnits="userSpaceOnUse" />
  </defs>
  <sodipodi:namedview
     id="base"
     pagecolor="#ffffff"
     bordercolor="#666666"
     borderopacity="1.0"
     gridtolerance="10000"
     guidetolerance="10"
     objecttolerance="10"
     inkscape:pageopacity="0.0"
     inkscape:pageshadow="2"
     inkscape:zoom="0.25"
     inkscape:cx="44"
     inkscape:cy="44"
     inkscape:document-units="px"
     inkscape:current-layer="layer1"
     width="88px"
     height="88px"
     borderlayer="true"
     showgrid="false"
     gridspacingx="4px"
     gridspacingy="4px"
     gridempspacing="2"
     showborder="false"
     inkscape:window-width="796"
     inkscape:window-height="732"
     inkscape:window-x="0"
     inkscape:window-y="0" />
  <metadata
     id="metadata7">
    <rdf:RDF>
      <cc:Work
         rdf:about="">
        <dc:format>image/svg+xml</dc:format>
        <dc:type
           rdf:resource="http://purl.org/dc/dcmitype/StillImage" />
      </cc:Work>
    </rdf:RDF>
  </metadata>
  <g
     inkscape:label="Layer 1"
     inkscape:groupmode="layer"
     id="layer1">
    <rect
       ry="24.250984"
       rx="4.0535331"
       y="99"
       x="32.5"
       height="44"
       width="63"
       id="rect3465"
       style="opacity:0.43999999;fill:#000000;fill-opacity:1;stroke:none;stroke-width:2.5;stroke-linecap:round;stroke-linejoin:miter;stroke-miterlimit:4;stroke-dasharray:none;stroke-opacity:1;filter:url(#filter3539)"
       transform="matrix(0.8771624,0,0,0.1466171,-10.170443,65.223306)" />
    <rect
       style="opacity:1;fill:url(#linearGradient3158);fill-opacity:1;stroke:none;stroke-width:2.5;stroke-linecap:round;stroke-linejoin:miter;stroke-miterlimit:4;stroke-dasharray:none;stroke-opacity:1"
       id="rect2170"
       width="57.673695"
       height="79.863029"
       x="17.131107"
       y="4.4289641"
       rx="5.0645857"
       ry="5.0645857" />
    <rect
       transform="scale(1,-1)"
       ry="5.0645857"
       rx="5.0645857"
       y="-84.291977"
       x="17.131107"
       height="79.863029"
       width="57.673695"
       id="rect3313"
       style="opacity:0.31999996;fill:url(#radialGradient3321);fill-opacity:1;stroke:none;stroke-width:2.5;stroke-linecap:round;stroke-linejoin:miter;stroke-miterlimit:4;stroke-dasharray:none;stroke-opacity:1" />
    <path
       style="opacity:1;fill:#ffffff;fill-opacity:1;stroke:#ffffff;stroke-width:3.58247566;stroke-linecap:round;stroke-linejoin:miter;stroke-miterlimit:4;stroke-dasharray:none;stroke-opacity:1;filter:url(#filter3439)"
       d="M 32,51.9375 L 32,52.9375 C 32,54.907306 33.592694,56.5 35.5625,56.5 L 92.4375,56.5 C 94.407306,56.5 96,54.907306 96,52.9375 L 96,51.9375 C 96,53.907306 94.407306,55.5 92.4375,55.5 L 35.5625,55.5 C 33.592694,55.5 32,53.907306 32,51.9375 z "
       id="rect3376"
       transform="matrix(0.6951405,0,0,0.7005528,1.4789628,0.2256478)" />
    <rect
       ry="7.229413"
       rx="6.4982719"
       y="6"
       x="27"
       height="114"
       width="74"
       id="rect3166"
       style="opacity:1;fill:none;fill-opacity:1;stroke:#ffffff;stroke-width:10.82671084;stroke-linecap:round;stroke-linejoin:miter;stroke-miterlimit:4;stroke-dasharray:none;stroke-opacity:1;filter:url(#filter3224)"
       clip-path="url(#clipPath3218)"
       mask="url(#mask3287)"
       transform="matrix(0.7793742,0,0,0.7005528,-3.9119956,0.2256478)" />
    <rect
       ry="7.229413"
       rx="6.4982719"
       y="6"
       x="27"
       height="114"
       width="74"
       id="rect3293"
       style="opacity:0.65263157;fill:url(#linearGradient3301);fill-opacity:1;stroke:none;stroke-width:2.5;stroke-linecap:round;stroke-linejoin:miter;stroke-miterlimit:4;stroke-dasharray:none;stroke-opacity:1;filter:url(#filter3353)"
       transform="matrix(0.7793742,0,0,0.7005528,-3.9119956,0.2256478)" />
    <rect
       style="opacity:0.18500001;fill:url(#linearGradient3305);fill-opacity:1;stroke:none;stroke-width:2.5;stroke-linecap:round;stroke-linejoin:miter;stroke-miterlimit:4;stroke-dasharray:none;stroke-opacity:1"
       id="rect3303"
       width="57.673695"
       height="79.863029"
       x="17.131107"
       y="-84.291977"
       rx="5.0645857"
       ry="5.0645857"
       transform="scale(1,-1)" />
    <rect
       mask="url(#mask3287)"
       clip-path="url(#clipPath3218)"
       style="opacity:0.54210528;fill:none;fill-opacity:1;stroke:#000000;stroke-width:5.41335535;stroke-linecap:round;stroke-linejoin:miter;stroke-miterlimit:4;stroke-dasharray:none;stroke-opacity:1;filter:url(#filter3443)"
       id="rect3307"
       width="74"
       height="114"
       x="27"
       y="6"
       rx="6.4982719"
       ry="7.229413"
       transform="matrix(0.7793742,0,0,0.7005528,-3.9119956,0.2256478)" />
    <path
       id="path3381"
       d="M 64,67 C 52.408,67 42.999998,76.407998 43,88 C 43,99.592 52.408002,109 64,109 C 75.592,109 84.999998,99.591998 85,88 C 85,76.408 75.592002,66.999998 64,67 z M 64,80 C 68.415998,80 72,83.584 72,88 C 71.999998,92.415999 68.416,96 64,96 C 59.583999,95.999999 56,92.416 56,88 C 56,83.584 59.584,80 64,80 z "
       style="opacity:0.29499996;fill:none;fill-opacity:1;stroke:url(#linearGradient3389);stroke-width:0.75890344;stroke-linecap:round;stroke-linejoin:miter;stroke-miterlimit:4;stroke-dasharray:none;stroke-opacity:1;filter:url(#filter3427)"
       transform="matrix(0.6562879,0,0,-0.6614128,3.965531,120.07862)" />
    <path
       style="opacity:1;fill:url(#linearGradient3437);fill-opacity:1;stroke:none;stroke-width:4;stroke-linecap:round;stroke-linejoin:miter;stroke-miterlimit:4;stroke-dasharray:none;stroke-opacity:1"
       d="M 45.967954,47.984628 C 38.360265,47.984628 32.185908,54.207197 32.185909,61.874295 C 32.185909,69.541392 38.360266,75.763964 45.967954,75.763964 C 53.575643,75.763964 59.749998,69.541392 59.749999,61.874295 C 59.749999,54.207198 53.575644,47.984626 45.967954,47.984628 z M 45.967954,56.582992 C 48.866119,56.582992 51.218257,58.953497 51.218257,61.874295 C 51.218255,64.795093 48.866121,67.165597 45.967954,67.165597 C 43.069785,67.165597 40.717651,64.795094 40.717651,61.874295 C 40.717651,58.953497 43.069786,56.582992 45.967954,56.582992 z "
       id="path3147" />
    <path
       style="opacity:0.56999972;fill:url(#linearGradient3374);fill-opacity:1;stroke:none;stroke-width:2.5;stroke-linecap:round;stroke-linejoin:miter;stroke-miterlimit:4;stroke-dasharray:none;stroke-opacity:1"
       d="M 45.967954,56.486116 C 43.016724,56.486116 40.621524,58.90002 40.621524,61.874295 C 40.621524,64.84857 43.016724,67.262474 45.967954,67.262475 C 48.919184,67.262475 51.314383,64.84857 51.314384,61.874295 C 51.314384,58.90002 48.919181,56.486116 45.967954,56.486116 z "
       id="rect3363"
       sodipodi:nodetypes="csssc" />
    <path
       style="font-size:20px;font-style:normal;font-weight:normal;opacity:0.31000001;fill:#000000;fill-opacity:1;stroke:none;stroke-width:1px;stroke-linecap:butt;stroke-linejoin:miter;stroke-opacity:1;font-family:Aurulent Sans"
       d="M 44.580619,50.528931 L 44.580619,49.141779 L 44.145867,49.141779 L 43.870587,50.054428 L 43.574423,49.141779 L 43.145366,49.141779 L 43.145366,50.528931 L 43.382677,50.528931 L 43.382677,49.428775 L 43.709216,50.431351 L 43.993989,50.431351 L 44.295847,49.426863 L 44.295847,50.528931 L 44.580619,50.528931 M 45.932372,50.528931 L 45.932372,50.339512 L 45.169181,50.339512 L 45.169181,49.88223 L 45.75961,49.88223 L 45.75961,49.692813 L 45.169181,49.692813 L 45.169181,49.331197 L 45.909591,49.331197 L 45.909591,49.141779 L 44.884409,49.141779 L 44.884409,50.528931 L 45.932372,50.528931 M 46.371308,50.528931 L 46.371308,49.511048 L 47.026286,50.528931 L 47.311058,50.528931 L 47.311058,49.141779 L 47.073748,49.141779 L 47.073748,50.161574 L 46.41877,49.141779 L 46.133996,49.141779 L 46.133996,50.528931 L 46.371308,50.528931 M 48.790543,49.995117 L 48.790543,49.141779 L 48.505769,49.141779 L 48.505769,50.041036 C 48.505769,50.140528 48.505769,50.241932 48.426033,50.314638 C 48.369079,50.366298 48.287444,50.389258 48.202011,50.389258 C 48.11658,50.389258 48.034945,50.366298 47.977991,50.314638 C 47.898253,50.241932 47.898253,50.140528 47.898253,50.041036 L 47.898253,49.141779 L 47.613481,49.141779 L 47.613481,49.995117 C 47.613481,50.1654 47.613481,50.335685 47.765359,50.456225 C 47.879269,50.54615 48.042539,50.578676 48.202011,50.578676 C 48.361484,50.578676 48.524754,50.54615 48.638663,50.456225 C 48.790543,50.335685 48.790543,50.1654 48.790543,49.995117"
       id="text3543" />
    <path
       id="path3693"
       d="M 59.052692,60.799499 L 59.052692,62.949091 L 58.539967,62.949091 L 58.539967,61.874295 L 58.539967,60.799499 L 59.052692,60.799499 z M 58.539967,61.874295 L 56.940266,62.949091 L 56.940266,62.060318 L 55.62769,62.949091 L 55.62769,60.799499 L 56.940266,61.688273 L 56.940266,60.799499 L 58.539967,61.874295 z "
       style="opacity:0.31000001;fill:#000000;fill-opacity:1;fill-rule:evenodd;stroke:none;stroke-width:1px;stroke-linecap:butt;stroke-linejoin:miter;stroke-opacity:1" />
    <path
       style="opacity:0.31000001;fill:#000000;fill-opacity:1;fill-rule:evenodd;stroke:none;stroke-width:1px;stroke-linecap:butt;stroke-linejoin:miter;stroke-opacity:1"
       d="M 33.313903,60.799499 L 33.313903,62.949091 L 33.826628,62.949091 L 33.826628,61.874295 L 33.826628,60.799499 L 33.313903,60.799499 z M 33.826628,61.874295 L 35.426331,62.949091 L 35.426331,62.060318 L 36.738906,62.949091 L 36.738906,60.799499 L 35.426331,61.688273 L 35.426331,60.799499 L 33.826628,61.874295 z "
       id="path3658" />
    <g
       id="g3679"
       transform="matrix(0.1983066,0,0,0.1998551,75.317309,84.034179)"
       style="opacity:0.31000001">
      <path
         style="fill:#000000;fill-opacity:1;fill-rule:evenodd;stroke:none;stroke-width:1px;stroke-linecap:butt;stroke-linejoin:miter;stroke-opacity:1"
         d="M -154,-56 L -154,-48 L -148,-52.010083 L -154,-56 z "
         id="path3666"
         sodipodi:nodetypes="cccc" />
      <rect
         style="opacity:1;fill:#000000;fill-opacity:1;stroke:none;stroke-width:0.5;stroke-linecap:round;stroke-linejoin:miter;stroke-miterlimit:4;stroke-dasharray:none;stroke-opacity:1"
         id="rect3668"
         width="2"
         height="8"
         x="-144"
         y="-56" />
      <rect
         y="-56"
         x="-147"
         height="8"
         width="2"
         id="rect3677"
         style="opacity:1;fill:#000000;fill-opacity:1;stroke:none;stroke-width:0.5;stroke-linecap:round;stroke-linejoin:miter;stroke-miterlimit:4;stroke-dasharray:none;stroke-opacity:1" />
    </g>
    <g
       transform="matrix(0.3146547,0,0,0.2828324,82.835076,81.106894)"
       style="opacity:0.31000001"
       id="g3684" />
    <rect
       ry="3.5556068"
       rx="3.5556068"
       y="12"
       x="23.723457"
       height="27.456606"
       width="44.488995"
       id="rect2172"
       style="opacity:1;fill:url(#linearGradient2241);fill-opacity:1.0;stroke:none;stroke-width:2.5;stroke-linecap:round;stroke-linejoin:miter;stroke-miterlimit:4;stroke-dasharray:none;stroke-opacity:1" />
    <rect
       style="opacity:0.26041667;fill:none;fill-opacity:1;stroke:#000000;stroke-width:4;stroke-linecap:round;stroke-linejoin:miter;stroke-miterlimit:4;stroke-dasharray:none;stroke-opacity:1"
       id="rect3212"
       width="39.935909"
       height="24"
       x="26"
       y="14"
       rx="0"
       ry="0" />
    <path
       style="opacity:0.28865979;fill:url(#linearGradient3220);fill-opacity:1.0;stroke:none;stroke-width:2.5;stroke-linecap:round;stroke-linejoin:miter;stroke-miterlimit:4;stroke-dasharray:none;stroke-opacity:1"
       d="M 27.28125 12 C 25.311444 12 23.71875 13.592694 23.71875 15.5625 L 23.71875 28.625 C 28.695419 29.776945 34.413323 30.4375 40.46875 30.4375 C 51.758129 30.4375 61.781721 28.158114 68.21875 24.625 L 68.21875 15.5625 C 68.21875 13.592694 66.626056 12 64.65625 12 L 27.28125 12 z "
       id="rect2233" />
  </g>
</svg>
