<?xml version="1.0" encoding="UTF-8" standalone="no"?>
<!-- Created with Inkscape (http://www.inkscape.org/) -->

<svg
   xmlns:dc="http://purl.org/dc/elements/1.1/"
   xmlns:cc="http://creativecommons.org/ns#"
   xmlns:rdf="http://www.w3.org/1999/02/22-rdf-syntax-ns#"
   xmlns:svg="http://www.w3.org/2000/svg"
   xmlns="http://www.w3.org/2000/svg"
   xmlns:xlink="http://www.w3.org/1999/xlink"
   xmlns:sodipodi="http://sodipodi.sourceforge.net/DTD/sodipodi-0.dtd"
   xmlns:inkscape="http://www.inkscape.org/namespaces/inkscape"
   width="128"
   height="128"
   id="svg2"
   sodipodi:version="0.32"
   inkscape:version="0.46+devel"
   version="1.0"
   sodipodi:docname="page-4sides.svgz"
   inkscape:output_extension="org.inkscape.output.svgz.inkscape"
   inkscape:export-filename="/home/pinheiro/pics/oxygen-icons/scalable/actions/small/22x22/page-4sides.png"
   inkscape:export-xdpi="30.9375"
   inkscape:export-ydpi="30.9375"
   sodipodi:modified="TRUE">
  <defs
     id="defs4">
    <inkscape:perspective
       sodipodi:type="inkscape:persp3d"
       inkscape:vp_x="0 : 64 : 1"
       inkscape:vp_y="0 : 1000 : 0"
       inkscape:vp_z="128 : 64 : 1"
       inkscape:persp3d-origin="64 : 42.666667 : 1"
       id="perspective34" />
    <linearGradient
       id="linearGradient7422">
      <stop
         style="stop-color:#b4b4b6;stop-opacity:1;"
         offset="0"
         id="stop7424" />
      <stop
         id="stop5348"
         offset="0.5"
         style="stop-color:#9c9ca1;stop-opacity:1;" />
      <stop
         id="stop7426"
         offset="1"
         style="stop-color:#cdcdd1;stop-opacity:1;" />
    </linearGradient>
    <linearGradient
       id="linearGradient3369">
      <stop
         id="stop3372"
         offset="0"
         style="stop-color:#ffffff;stop-opacity:1;" />
      <stop
         style="stop-color:#ffffff;stop-opacity:1;"
         offset="0.42597079"
         id="stop3374" />
      <stop
         style="stop-color:#f1f1f1;stop-opacity:1;"
         offset="0.5892781"
         id="stop3376" />
      <stop
         id="stop3378"
         offset="0.80219781"
         style="stop-color:#eaeaea;stop-opacity:1;" />
      <stop
         id="stop3384"
         offset="1"
         style="stop-color:#dfdfdf;stop-opacity:1;" />
    </linearGradient>
    <linearGradient
       id="linearGradient4197">
      <stop
         style="stop-color:#bfbfbf;stop-opacity:1;"
         offset="0"
         id="stop4199" />
      <stop
         style="stop-color:#8b939b;stop-opacity:1;"
         offset="1"
         id="stop4201" />
    </linearGradient>
    <linearGradient
       inkscape:collect="always"
       xlink:href="#linearGradient3369"
       id="linearGradient2984"
       gradientUnits="userSpaceOnUse"
       gradientTransform="matrix(0.6599146,0,0,1.5555557,53.581335,-35.055551)"
       x1="112.00001"
       y1="124.23937"
       x2="112.00001"
       y2="-22.601965" />
    <linearGradient
       inkscape:collect="always"
       xlink:href="#linearGradient7422"
       id="linearGradient2987"
       gradientUnits="userSpaceOnUse"
       gradientTransform="matrix(6.9627754e-2,0,0,0.2090041,59.611633,-114.35256)"
       x1="399.77466"
       y1="1164.6696"
       x2="399.77466"
       y2="549.06134" />
    <linearGradient
       inkscape:collect="always"
       xlink:href="#linearGradient4197"
       id="linearGradient2993"
       gradientUnits="userSpaceOnUse"
       gradientTransform="matrix(0.6599146,0,0,-1.5555557,53.581335,163.05555)"
       x1="112.4182"
       y1="-24.315498"
       x2="22.832954"
       y2="92.700768" />
    <linearGradient
       inkscape:collect="always"
       xlink:href="#linearGradient7422"
       id="linearGradient3971"
       gradientUnits="userSpaceOnUse"
       gradientTransform="matrix(6.9627754e-2,0,0,0.2090041,3.611633,-115.06103)"
       x1="399.77466"
       y1="1164.6696"
       x2="399.77466"
       y2="549.06134" />
    <linearGradient
       inkscape:collect="always"
       xlink:href="#linearGradient3369"
       id="linearGradient3973"
       gradientUnits="userSpaceOnUse"
       gradientTransform="matrix(0.5444372,0,0,1.5555557,7.405223,-35.764021)"
       x1="112.00001"
       y1="124.23937"
       x2="112.00001"
       y2="-22.601965" />
    <linearGradient
       inkscape:collect="always"
       xlink:href="#linearGradient4197"
       id="linearGradient3975"
       gradientUnits="userSpaceOnUse"
       gradientTransform="matrix(0.5444372,0,0,-1.5555557,7.405223,162.34708)"
       x1="121.91222"
       y1="-36.716602"
       x2="22.832954"
       y2="92.700768" />
    <linearGradient
       inkscape:collect="always"
       xlink:href="#linearGradient3369"
       id="linearGradient2822"
       gradientUnits="userSpaceOnUse"
       gradientTransform="matrix(0.6599146,0,0,1.5555557,-4.418665,-35.055551)"
       x1="112.00001"
       y1="124.23937"
       x2="112.00001"
       y2="-22.601965" />
    <linearGradient
       inkscape:collect="always"
       xlink:href="#linearGradient4197"
       id="linearGradient2824"
       gradientUnits="userSpaceOnUse"
       gradientTransform="matrix(0.6599146,0,0,-1.5555557,-4.418665,163.05555)"
       x1="112.4182"
       y1="-24.315498"
       x2="22.832954"
       y2="92.700768" />
    <linearGradient
       inkscape:collect="always"
       xlink:href="#linearGradient4197"
       id="linearGradient2843"
       gradientUnits="userSpaceOnUse"
       gradientTransform="matrix(0.6599146,0,0,-1.5555557,-4.599665,163.05555)"
       x1="112.4182"
       y1="-24.315498"
       x2="22.832954"
       y2="92.700768" />
    <linearGradient
       inkscape:collect="always"
       xlink:href="#linearGradient3369"
       id="linearGradient2845"
       gradientUnits="userSpaceOnUse"
       gradientTransform="matrix(0.6599146,0,0,1.5555557,-4.599665,-35.055551)"
       x1="112.00001"
       y1="124.23937"
       x2="112.00001"
       y2="-22.601965" />
    <linearGradient
       inkscape:collect="always"
       xlink:href="#linearGradient3369"
       id="linearGradient2855"
       gradientUnits="userSpaceOnUse"
       gradientTransform="matrix(0.6599146,0,0,1.5555557,53.581335,-35.055551)"
       x1="112.00001"
       y1="124.23937"
       x2="112.00001"
       y2="-22.601965" />
    <linearGradient
       inkscape:collect="always"
       xlink:href="#linearGradient3369"
       id="linearGradient2858"
       gradientUnits="userSpaceOnUse"
       gradientTransform="matrix(0.6599146,0,0,1.5555557,53.581335,-35.055551)"
       x1="112.00001"
       y1="124.23937"
       x2="112.00001"
       y2="-22.601965" />
    <linearGradient
       inkscape:collect="always"
       xlink:href="#linearGradient7422"
       id="linearGradient2862"
       gradientUnits="userSpaceOnUse"
       gradientTransform="matrix(0.6599146,0,0,1.5555557,53.581335,-35.055551)"
       x1="113.51536"
       y1="105.59652"
       x2="115.0307"
       y2="26.898031" />
  </defs>
  <sodipodi:namedview
     id="base"
     pagecolor="#ffffff"
     bordercolor="#666666"
     borderopacity="1.0"
     gridtolerance="10000"
     guidetolerance="10"
     objecttolerance="10"
     inkscape:pageopacity="0.0"
     inkscape:pageshadow="2"
     inkscape:zoom="1.4142136"
     inkscape:cx="169.2835"
     inkscape:cy="84.531038"
     inkscape:document-units="px"
     inkscape:current-layer="layer1"
     width="128px"
     height="128px"
     showgrid="true"
     showborder="true"
     inkscape:window-width="1094"
     inkscape:window-height="747"
     inkscape:window-x="816"
     inkscape:window-y="0"
     inkscape:snap-nodes="false"
     inkscape:snap-bbox="true">
    <inkscape:grid
       id="GridFromPre046Settings"
       type="xygrid"
       originx="0px"
       originy="0px"
       spacingx="5.8181px"
       spacingy="5.8181px"
       color="#0000ff"
       empcolor="#0000ff"
       opacity="0.2"
       empopacity="0.4"
       empspacing="2"
       visible="true"
       enabled="true" />
  </sodipodi:namedview>
  <metadata
     id="metadata7">
    <rdf:RDF>
      <cc:Work
         rdf:about="">
        <dc:format>image/svg+xml</dc:format>
        <dc:type
           rdf:resource="http://purl.org/dc/dcmitype/StillImage" />
        <dc:title></dc:title>
      </cc:Work>
    </rdf:RDF>
  </metadata>
  <g
     inkscape:label="Layer 1"
     inkscape:groupmode="layer"
     id="layer1">
    <path
       sodipodi:type="inkscape:offset"
       inkscape:radius="5.8146"
       inkscape:original="M 6.96875 12.1875 C 6.7273591 12.1875 6.529137 12.28043 6.34375 12.46875 C 6.33848 12.47385 6.34896 12.49477 6.34375 12.5 C 6.0433383 12.815735 5.8125 13.341542 5.8125 13.9375 L 5.8125 104.5 C 5.8125 105.4695 6.325041 106.25 6.96875 106.25 C 6.9786 106.25037 6.990097 106.25 7 106.25 L 34.90625 118.65625 L 35.09375 118.75 L 62.84375 105.84375 C 63.48746 105.84375 64 105.06325 64 104.09375 L 64 104.5 C 64 105.10594 64.191022 105.62363 64.5 105.9375 C 64.5052 105.9425 64.52604 105.9325 64.53125 105.9375 C 64.713581 106.11644 64.921486 106.25 65.15625 106.25 C 65.16605 106.25037 65.1776 106.25 65.1875 106.25 L 93.09375 118.65625 L 93.28125 118.75 L 121.03125 105.84375 C 121.67496 105.84375 122.1875 105.06325 122.1875 104.09375 L 122.1875 14.5625 C 122.1875 13.592999 121.67496 12.8125 121.03125 12.8125 L 93.125 25.09375 L 93.09375 25.0625 L 65.1875 12.1875 L 65.15625 12.1875 C 64.512541 12.1875 64 12.967999 64 13.9375 L 64 14.5625 C 64 13.592999 63.48746 12.8125 62.84375 12.8125 L 34.9375 25.09375 L 34.90625 25.09375 L 34.90625 25.0625 L 7 12.1875 L 6.96875 12.1875 z "
       style="fill:url(#linearGradient2862);fill-opacity:1;fill-rule:evenodd;stroke:none"
       id="path2860"
       d="m 6.96875,6.375 c -1.6803308,0 -3.6536338,0.9510754 -4.65625,1.90625 -7.1e-6,6.9e-6 -0.030162,0.02976 -0.03125,0.03125 -0.02262,0.021926 -0.072202,0.040611 -0.09375,0.0625 L 2.21875,8.40625 A 5.8151815,5.8151815 0 0 0 2.15625,8.5 5.8151815,5.8151815 0 0 0 2.125,8.5 C 2.0343407,8.5952837 2.0218947,8.7157164 1.9375,8.8125 1.9013953,8.8539048 1.8787212,8.8958136 1.84375,8.9375 1.5032907,9.3433341 1.2682595,9.7840665 1.03125,10.21875 1.0265986,10.232166 1.0050295,10.235493 1,10.25 0.39254898,11.37987 0,12.56539 0,13.9375 L 0,104.5 c 0,1.50941 0.31854309,2.97768 1.28125,4.4375 0.6508268,0.98689 1.8461227,2.02836 3.34375,2.625 0.1638472,0.0653 0.296586,0.16582 0.46875,0.21875 l 0.03125,0 27.375,12.15625 a 5.8151815,5.8151815 0 0 0 0.03125,0.0313 5.8151815,5.8151815 0 0 0 5,0.0625 l 26.0625,-12.125 27.09375,12.03125 a 5.8151815,5.8151815 0 0 0 0.03125,0.0313 5.8151815,5.8151815 0 0 0 5,0.0625 l 27.1875,-12.65625 c 0.20489,-0.063 0.36944,-0.16973 0.5625,-0.25 1.45197,-0.6037 2.61271,-1.62738 3.25,-2.59375 0.96271,-1.45982 1.28125,-2.92809 1.28125,-4.4375 l 0,-89.53125 c 0,-1.509407 -0.31854,-2.977681 -1.28125,-4.4375 C 125.75604,8.6651809 123.70317,7 121.03125,7 A 5.8151815,5.8151815 0 0 0 118.6875,7.5 L 93.21875,18.71875 67.625,6.90625 A 5.8151815,5.8151815 0 0 0 65.1875,6.375 l -0.03125,0 c -1.009869,0 -1.8824,0.2815175 -2.6875,0.65625 A 5.8151815,5.8151815 0 0 0 60.5,7.5 L 35.03125,18.71875 9.4375,6.90625 A 5.8151815,5.8151815 0 0 0 7,6.375 l -0.03125,0 z m -5.125,2.5625 C 1.5059521,9.4011254 1.1251283,9.9059895 1.125,9.90625 1.1249851,9.9062802 1.0979852,9.987793 1.09375,10 c -1.405e-4,2.95e-4 0.4157618,-0.5885889 0.75,-1.0625 z" />
    <path
       style="fill:url(#linearGradient2984);fill-opacity:1;fill-rule:evenodd;stroke:none"
       d="M 65.161031,12.18064 93.130237,25.094463 121.01817,12.809118 c 0.64371,0 1.16193,0.780501 1.16193,1.750002 l 0,89.52215 c 0,0.9695 -0.51822,1.75 -1.16193,1.75 l -27.749519,12.91791 -28.10762,-12.49893 c -0.643709,0 -1.161931,-0.7805 -1.161931,-1.75 l 0,-90.569608 c 0,-0.969501 0.518222,-1.750002 1.161931,-1.750002 z"
       id="path2969"
       sodipodi:nodetypes="ccccccccccc" />
    <path
       style="opacity:0.25;fill:url(#linearGradient2993);fill-opacity:1;fill-rule:evenodd;stroke:none"
       d="m 65.173327,12.1875 c -0.643709,0 -1.174227,0.780499 -1.174227,1.75 l 0,90.5625 c 0,0.9695 0.530522,1.75 1.174227,1.75 l 27.916274,12.40625 0,-93.59375 -27.916274,-12.875 z"
       id="path2991" />
    <path
       sodipodi:nodetypes="ccccccccccc"
       id="path2818"
       d="M 6.980031,12.18064 34.949237,25.094463 62.83717,12.809118 c 0.64371,0 1.16193,0.780501 1.16193,1.750002 l 0,89.52215 c 0,0.9695 -0.51822,1.75 -1.16193,1.75 L 35.087651,118.74918 6.980031,106.25025 c -0.643709,0 -1.161931,-0.7805 -1.161931,-1.75 l 0,-90.569608 c 0,-0.969501 0.518222,-1.750002 1.161931,-1.750002 z"
       style="fill:url(#linearGradient2845);fill-opacity:1;fill-rule:evenodd;stroke:none" />
    <path
       id="path2820"
       d="m 6.992327,12.1875 c -0.643709,0 -1.174227,0.780499 -1.174227,1.75 l 0,90.5625 c 0,0.9695 0.530522,1.75 1.174227,1.75 l 27.916274,12.40625 0,-93.59375 -27.916274,-12.875 z"
       style="opacity:0.25;fill:url(#linearGradient2843);fill-opacity:1;fill-rule:evenodd;stroke:none" />
  </g>
</svg>
