<?xml version="1.0" encoding="UTF-8" standalone="no"?>
<!-- Created with Inkscape (http://www.inkscape.org/) -->

<svg
   xmlns:dc="http://purl.org/dc/elements/1.1/"
   xmlns:cc="http://creativecommons.org/ns#"
   xmlns:rdf="http://www.w3.org/1999/02/22-rdf-syntax-ns#"
   xmlns:svg="http://www.w3.org/2000/svg"
   xmlns="http://www.w3.org/2000/svg"
   xmlns:xlink="http://www.w3.org/1999/xlink"
   xmlns:sodipodi="http://sodipodi.sourceforge.net/DTD/sodipodi-0.dtd"
   xmlns:inkscape="http://www.inkscape.org/namespaces/inkscape"
   width="22"
   height="22"
   id="svg2"
   sodipodi:version="0.32"
   inkscape:version="0.46+devel"
   version="1.0"
   sodipodi:docname="scribus.svgz"
   inkscape:output_extension="org.inkscape.output.svgz.inkscape"
   inkscape:export-filename="/home/david/Oxygen/Oxygen/scalable/apps/small/16x16/scribus.png"
   inkscape:export-xdpi="90"
   inkscape:export-ydpi="90"
   sodipodi:modified="true">
  <defs
     id="defs4">
    <linearGradient
       inkscape:collect="always"
       id="linearGradient3491">
      <stop
         style="stop-color:#000000;stop-opacity:1;"
         offset="0"
         id="stop3493" />
      <stop
         style="stop-color:#000000;stop-opacity:0;"
         offset="1"
         id="stop3495" />
    </linearGradient>
    <linearGradient
       inkscape:collect="always"
       id="linearGradient3237">
      <stop
         style="stop-color:#eeeeee;stop-opacity:1;"
         offset="0"
         id="stop3239" />
      <stop
         style="stop-color:#fbfbfb;stop-opacity:1"
         offset="1"
         id="stop3241" />
    </linearGradient>
    <linearGradient
       inkscape:collect="always"
       xlink:href="#linearGradient3237"
       id="linearGradient3243"
       x1="-15.54653"
       y1="40.010948"
       x2="6.8582888"
       y2="1.2046643"
       gradientUnits="userSpaceOnUse"
       gradientTransform="matrix(1.2373921,0,0,1.2317697,-1.1524203,-22.922819)" />
    <linearGradient
       inkscape:collect="always"
       xlink:href="#linearGradient3491"
       id="linearGradient3497"
       x1="9.4819469"
       y1="-13.32653"
       x2="11.255746"
       y2="-14.630004"
       gradientUnits="userSpaceOnUse" />
    <filter
       inkscape:collect="always"
       id="filter3523">
      <feGaussianBlur
         inkscape:collect="always"
         stdDeviation="0.07"
         id="feGaussianBlur3525" />
    </filter>
    <linearGradient
       inkscape:collect="always"
       xlink:href="#linearGradient3237"
       id="linearGradient2206"
       gradientUnits="userSpaceOnUse"
       gradientTransform="matrix(1.3636364,0,0,1.3571429,29.614386,-44.842229)"
       x1="-15.54653"
       y1="40.010948"
       x2="6.8582888"
       y2="1.2046643" />
    <linearGradient
       inkscape:collect="always"
       xlink:href="#linearGradient3491"
       id="linearGradient2208"
       gradientUnits="userSpaceOnUse"
       x1="9.4819469"
       y1="-13.32653"
       x2="10.666382"
       y2="-14.316705" />
    <filter
       id="filter6433"
       inkscape:collect="always">
      <feGaussianBlur
         id="feGaussianBlur6435"
         stdDeviation="1.1718873"
         inkscape:collect="always" />
    </filter>
    <filter
       id="filter6296"
       inkscape:collect="always">
      <feGaussianBlur
         id="feGaussianBlur6298"
         stdDeviation="0.61501941"
         inkscape:collect="always" />
    </filter>
    <filter
       id="filter6161"
       inkscape:collect="always">
      <feGaussianBlur
         id="feGaussianBlur6163"
         stdDeviation="1.5214555"
         inkscape:collect="always" />
    </filter>
    <filter
       id="filter6070"
       inkscape:collect="always">
      <feGaussianBlur
         id="feGaussianBlur6072"
         stdDeviation="0.50819632"
         inkscape:collect="always" />
    </filter>
    <linearGradient
       y2="-37.855988"
       x2="729.10184"
       y1="-52.91481"
       x1="679.65686"
       gradientUnits="userSpaceOnUse"
       id="linearGradient6050"
       xlink:href="#linearGradient6006"
       inkscape:collect="always" />
    <clipPath
       id="clipPath6046"
       clipPathUnits="userSpaceOnUse">
      <path
         style="fill:none;fill-opacity:1;fill-rule:evenodd;stroke:url(#linearGradient6050);stroke-width:1.60000002;stroke-linecap:butt;stroke-linejoin:miter;stroke-miterlimit:4;stroke-dasharray:none;stroke-opacity:1;filter:url(#filter6040)"
         d="M 665.72548,30.745097 C 676.2358,9.7416042 688.25969,-11.951804 717.64705,-25.568628 C 715.1502,-47.331364 716.5677,-68.832944 728.31372,-88.941177 C 730.06241,-91.953324 723.58014,-101.78331 716.2028,-105.02365 C 709.36841,-108.02552 701.16122,-105.7695 700.23529,-103.21568 C 693.84986,-84.337456 686.46616,-67.137741 678.59819,-45.903767 C 669.10272,-20.277491 668.7756,8.4149843 665.72548,30.745097 z"
         id="path6048"
         sodipodi:nodetypes="cccscsc" />
    </clipPath>
    <filter
       id="filter6040"
       inkscape:collect="always">
      <feGaussianBlur
         id="feGaussianBlur6042"
         stdDeviation="0.25409816"
         inkscape:collect="always" />
    </filter>
    <filter
       id="filter5919"
       inkscape:collect="always">
      <feGaussianBlur
         id="feGaussianBlur5921"
         stdDeviation="1.4498712"
         inkscape:collect="always" />
    </filter>
    <linearGradient
       id="linearGradient10204">
      <stop
         offset="0"
         style="stop-color:#ffffff;stop-opacity:1"
         id="stop10206" />
      <stop
         offset="1"
         style="stop-color:#ffffff;stop-opacity:0"
         id="stop10208" />
    </linearGradient>
    <linearGradient
       gradientUnits="userSpaceOnUse"
       id="XMLID_134_"
       y2="49.813202"
       x2="91.657402"
       y1="-42.566399"
       x1="-0.72219998">
      <stop
         offset="0"
         style="stop-color:#888888;stop-opacity:1"
         id="stop1870" />
      <stop
         offset="1"
         style="stop-color:#bbbbbb;stop-opacity:1"
         id="stop1872" />
    </linearGradient>
    <radialGradient
       gradientUnits="userSpaceOnUse"
       id="radialGradient3731"
       r="137.8933"
       cy="111.1299"
       cx="101.1562">
      <stop
         offset="0.1006"
         style="stop-color:#f0f0f0;stop-opacity:1"
         id="stop3733" />
      <stop
         offset="0.4005"
         style="stop-color:#fafafa;stop-opacity:1"
         id="stop3750" />
      <stop
         offset="0.47929999"
         style="stop-color:#ffffff;stop-opacity:1"
         id="stop3752" />
      <stop
         offset="0.59969997"
         style="stop-color:#fafafa;stop-opacity:1"
         id="stop3754" />
      <stop
         offset="0.72189999"
         style="stop-color:#eeeeee;stop-opacity:1"
         id="stop3757" />
      <stop
         offset="0.8876"
         style="stop-color:#dddddd;stop-opacity:1"
         id="stop3759" />
    </radialGradient>
    <linearGradient
       id="linearGradient4035">
      <stop
         offset="0"
         style="stop-color:#000000;stop-opacity:0"
         id="stop4037" />
      <stop
         offset="0.40677965"
         style="stop-color:#000000;stop-opacity:0"
         id="stop4050" />
      <stop
         offset="0.46844774"
         style="stop-color:#000000;stop-opacity:1"
         id="stop4048" />
      <stop
         offset="0.53672314"
         style="stop-color:#000000;stop-opacity:0"
         id="stop4052" />
      <stop
         offset="1"
         style="stop-color:#000000;stop-opacity:0"
         id="stop4039" />
    </linearGradient>
    <linearGradient
       id="linearGradient5934">
      <stop
         id="stop5936"
         offset="0"
         style="stop-color:#18689a;stop-opacity:1;" />
      <stop
         id="stop5938"
         offset="1"
         style="stop-color:#3ba1e1;stop-opacity:1;" />
    </linearGradient>
    <linearGradient
       id="linearGradient5955"
       inkscape:collect="always">
      <stop
         id="stop5957"
         offset="0"
         style="stop-color:#83560b;stop-opacity:1;" />
      <stop
         id="stop5959"
         offset="1"
         style="stop-color:#fff2bc;stop-opacity:1" />
    </linearGradient>
    <linearGradient
       id="linearGradient6006">
      <stop
         id="stop6008"
         offset="0"
         style="stop-color:#5b3b07;stop-opacity:1;" />
      <stop
         id="stop6010"
         offset="1"
         style="stop-color:#fef4e6;stop-opacity:1;" />
    </linearGradient>
    <linearGradient
       id="linearGradient6300">
      <stop
         id="stop6302"
         offset="0"
         style="stop-color:#000000;stop-opacity:1;" />
      <stop
         id="stop6304"
         offset="1"
         style="stop-color:#464646;stop-opacity:1;" />
    </linearGradient>
    <linearGradient
       id="linearGradient6405"
       inkscape:collect="always">
      <stop
         id="stop6407"
         offset="0"
         style="stop-color:#000000;stop-opacity:0.18726592" />
      <stop
         id="stop6409"
         offset="1"
         style="stop-color:#000000;stop-opacity:0;" />
    </linearGradient>
    <linearGradient
       inkscape:collect="always"
       xlink:href="#linearGradient5934"
       id="linearGradient4074"
       gradientUnits="userSpaceOnUse"
       x1="24.932909"
       y1="110.67589"
       x2="48.557693"
       y2="1.8590716"
       gradientTransform="matrix(0.1536481,-9.7236005e-3,9.7211402e-3,0.153687,1.1092148,1.2151669)" />
    <radialGradient
       inkscape:collect="always"
       xlink:href="#linearGradient4035"
       id="radialGradient4079"
       gradientUnits="userSpaceOnUse"
       gradientTransform="matrix(2.1517585,1.1258312,-1.5982531,3.0514459,-46.957883,-107.12665)"
       cx="55.37299"
       cy="74.239113"
       fx="49.388954"
       fy="67.642883"
       r="49.337746" />
    <radialGradient
       inkscape:collect="always"
       xlink:href="#radialGradient3731"
       id="radialGradient4085"
       gradientUnits="userSpaceOnUse"
       gradientTransform="matrix(0.9111936,-0.1830651,0.1823491,0.914982,-116.69841,126.72517)"
       cx="102.86758"
       cy="110.30446"
       fx="102.86758"
       fy="110.30446"
       r="137.8933" />
    <radialGradient
       inkscape:collect="always"
       xlink:href="#radialGradient3731"
       id="radialGradient4088"
       gradientUnits="userSpaceOnUse"
       gradientTransform="matrix(0.9111936,-0.1830651,0.1823491,0.914982,-116.69841,126.72517)"
       cx="102.86758"
       cy="110.30446"
       fx="102.86758"
       fy="110.30446"
       r="137.8933" />
    <linearGradient
       inkscape:collect="always"
       xlink:href="#linearGradient6405"
       id="linearGradient4112"
       gradientUnits="userSpaceOnUse"
       gradientTransform="translate(-51.686028,83.682856)"
       x1="34.162965"
       y1="84.41862"
       x2="127.19075"
       y2="65.784271" />
    <linearGradient
       inkscape:collect="always"
       xlink:href="#linearGradient6300"
       id="linearGradient4114"
       gradientUnits="userSpaceOnUse"
       gradientTransform="matrix(0.173869,5.6117921e-2,-3.3782791e-2,0.1589821,-158.87652,136.27185)"
       x1="932.66144"
       y1="-257.53949"
       x2="908.24371"
       y2="-262.86356" />
    <linearGradient
       inkscape:collect="always"
       xlink:href="#linearGradient10204"
       id="linearGradient4116"
       gradientUnits="userSpaceOnUse"
       gradientTransform="matrix(0.173869,5.6117921e-2,-3.3782791e-2,0.1589821,-158.87652,136.27185)"
       x1="951.13098"
       y1="-451.47937"
       x2="1036.245"
       y2="-424.01111" />
    <linearGradient
       inkscape:collect="always"
       xlink:href="#linearGradient5955"
       id="linearGradient4118"
       gradientUnits="userSpaceOnUse"
       gradientTransform="translate(89.098039,0)"
       x1="956.86273"
       y1="-31.267752"
       x2="939.11163"
       y2="-37.855988" />
    <linearGradient
       inkscape:collect="always"
       xlink:href="#linearGradient10204"
       id="linearGradient4120"
       gradientUnits="userSpaceOnUse"
       gradientTransform="translate(226.82353,8.1568627)"
       x1="817.5686"
       y1="-63.215687"
       x2="846.4314"
       y2="-63.215687" />
    <linearGradient
       inkscape:collect="always"
       xlink:href="#linearGradient6006"
       id="linearGradient4122"
       gradientUnits="userSpaceOnUse"
       x1="679.65686"
       y1="-52.91481"
       x2="729.10184"
       y2="-37.855988" />
    <linearGradient
       inkscape:collect="always"
       xlink:href="#linearGradient6405"
       id="linearGradient4124"
       gradientUnits="userSpaceOnUse"
       gradientTransform="translate(-51.907868,83.682856)"
       x1="34.162964"
       y1="109.36566"
       x2="52.653378"
       y2="97.285187" />
    <linearGradient
       inkscape:collect="always"
       xlink:href="#linearGradient10204"
       id="linearGradient4126"
       gradientUnits="userSpaceOnUse"
       gradientTransform="translate(-297.26214,-63.889177)"
       x1="1670.8866"
       y1="-192.72784"
       x2="1240.8522"
       y2="-375.48233" />
    <linearGradient
       inkscape:collect="always"
       xlink:href="#linearGradient10204"
       id="linearGradient4128"
       gradientUnits="userSpaceOnUse"
       gradientTransform="translate(-1.3310245,-1.3310245)"
       x1="893.17645"
       y1="-83.450981"
       x2="906.03925"
       y2="-161.2549" />
    <linearGradient
       inkscape:collect="always"
       xlink:href="#linearGradient10204"
       id="linearGradient4130"
       gradientUnits="userSpaceOnUse"
       gradientTransform="matrix(0.1861992,6.0097604e-2,-3.6178546e-2,0.1702565,-66.508268,173.2185)"
       x1="574.38959"
       y1="-730.00238"
       x2="556.35858"
       y2="-630.86511" />
    <linearGradient
       inkscape:collect="always"
       xlink:href="#XMLID_134_"
       id="linearGradient4132"
       gradientUnits="userSpaceOnUse"
       gradientTransform="translate(-51.907868,83.682856)"
       spreadMethod="reflect"
       x1="78.431374"
       y1="62.459103"
       x2="69.490196"
       y2="55.825741" />
  </defs>
  <sodipodi:namedview
     id="base"
     pagecolor="#ffffff"
     bordercolor="#666666"
     borderopacity="1.0"
     gridtolerance="10000"
     guidetolerance="10"
     objecttolerance="10"
     inkscape:pageopacity="0.0"
     inkscape:pageshadow="2"
     inkscape:zoom="1.8096591"
     inkscape:cx="-55.614826"
     inkscape:cy="74.526005"
     inkscape:document-units="px"
     inkscape:current-layer="layer1"
     width="22px"
     height="22px"
     showgrid="false"
     showborder="false"
     inkscape:grid-points="true"
     inkscape:window-width="748"
     inkscape:window-height="734"
     inkscape:window-x="45"
     inkscape:window-y="24">
    <inkscape:grid
       id="GridFromPre046Settings"
       type="xygrid"
       originx="0px"
       originy="0px"
       spacingx="1px"
       spacingy="1px"
       color="#0000ff"
       empcolor="#0000ff"
       opacity="0.2"
       empopacity="0.4"
       empspacing="4" />
  </sodipodi:namedview>
  <metadata
     id="metadata7">
    <rdf:RDF>
      <cc:Work
         rdf:about="">
        <dc:format>image/svg+xml</dc:format>
        <dc:type
           rdf:resource="http://purl.org/dc/dcmitype/StillImage" />
      </cc:Work>
    </rdf:RDF>
  </metadata>
  <g
     inkscape:label="Layer 1"
     inkscape:groupmode="layer"
     id="layer1">
    <rect
       y="4.4462738"
       x="0.084971741"
       height="17.222376"
       width="13.606279"
       id="rect3245"
       style="opacity:0.5;fill:none;fill-opacity:1;stroke:#000000;stroke-width:0.99999994;stroke-linecap:round;stroke-linejoin:round;stroke-miterlimit:4;stroke-dasharray:none;stroke-opacity:1"
       transform="matrix(0.9659095,-0.2588801,0.2587579,0.9659422,0,0)" />
    <rect
       style="opacity:1;fill:url(#linearGradient3243);fill-opacity:1;stroke:none;stroke-width:1;stroke-linecap:round;stroke-linejoin:round;stroke-miterlimit:4;stroke-dasharray:none;stroke-opacity:1"
       id="rect3233"
       width="13.611313"
       height="17.244774"
       x="0.08497186"
       y="-21.69105"
       transform="matrix(0.9659095,-0.2588801,-0.2587579,-0.9659422,0,0)" />
    <path
       transform="matrix(1.2101559,-0.3243423,-0.3242603,-1.2104622,-0.104928,3.411)"
       style="opacity:0.075;fill:url(#linearGradient3497);fill-opacity:1;stroke:none;stroke-width:1;stroke-linecap:round;stroke-linejoin:round;stroke-miterlimit:4;stroke-opacity:1;filter:url(#filter3523)"
       d="M 8,-15 L 12,-15 L 12,-11 L 8,-15 z "
       id="rect3488"
       sodipodi:nodetypes="cccc" />
    <g
       transform="matrix(0.95275,-0.191568,0.191568,0.95275,18.96659,124.50206)"
       id="g5369" />
    <g
       transform="matrix(0.95275,-0.191568,0.191568,0.95275,18.96659,124.50206)"
       id="g7051" />
    <path
       d="M 7.3304228,17.898988 C 4.480587,13.049113 2.6743135,8.2701071 3.6060039,3.6197152 C 3.6060039,3.6197152 8.2594993,2.3231072 9.7759037,1.9772216 C 9.6171205,2.8148387 5.0194345,12.072211 7.3304228,17.898988 z "
       id="rect8198"
       style="fill:url(#linearGradient4074);fill-opacity:1;fill-rule:evenodd;stroke:none;stroke-width:0.84200001;stroke-miterlimit:4;stroke-dashoffset:0;stroke-opacity:1"
       sodipodi:nodetypes="cccc" />
    <g
       id="g4094"
       transform="matrix(0.1817873,0,0,0.1818333,9.2245385,-15.087137)">
      <path
         sodipodi:nodetypes="ccccccccc"
         id="path6395"
         d="M -17.523066,193.04852 C -11.213229,191.20352 -4.2479093,185.9179 -0.88951932,188.00818 L 0.089170677,183.31043 L 5.7656007,183.89765 C 21.305621,176.27196 35.544871,166.84524 49.471582,157.06846 L 47.141991,143.15444 C 32.136911,151.55626 16.024031,161.75825 -3.4298593,177.3894 L -3.4298593,182.8701 C -10.398009,183.23569 -13.495319,188.7624 -17.523066,193.04852 z "
         style="fill:url(#linearGradient4112);fill-opacity:1;fill-rule:evenodd;stroke:none;stroke-width:0.22058825px;stroke-linecap:butt;stroke-linejoin:miter;stroke-opacity:1;filter:url(#filter6433)" />
      <path
         sodipodi:nodetypes="ccsssc"
         id="path6076"
         d="M -4.7049153,167.27155 C -5.3444113,169.17149 0.47918368,173.97265 2.2926517,172.19496 C 30.795942,145.61629 38.188451,125.49781 62.192922,92.954316 C 63.349412,91.386426 63.234512,88.549896 60.996512,86.616976 C 59.003732,84.895846 55.634952,84.378156 53.963982,86.680376 C 30.121283,119.52985 11.179694,133.29181 -4.7049153,167.27155 z "
         style="fill:url(#linearGradient4114);fill-opacity:1;fill-rule:evenodd;stroke:none;stroke-width:1px;stroke-linecap:butt;stroke-linejoin:miter;stroke-opacity:1" />
      <path
         sodipodi:nodetypes="ccccsc"
         id="path6078"
         d="M 46.348102,103.28005 L 43.752867,104.12086 C 27.25874,123.49126 11.158814,141.99206 -3.3569693,166.96232 L -2.0042523,167.18126 C 4.2460067,157.34682 12.72532,148.47159 19.453406,140.08433 C 27.309186,130.29127 38.55387,114.86222 46.348102,103.28005 z "
         style="fill:url(#linearGradient4116);fill-opacity:1;fill-rule:evenodd;stroke:none;stroke-width:1px;stroke-linecap:butt;stroke-linejoin:miter;stroke-opacity:1" />
      <path
         style="fill:none;fill-opacity:1;fill-rule:evenodd;stroke:#000000;stroke-width:0.94530326px;stroke-linecap:butt;stroke-linejoin:miter;stroke-opacity:1"
         d="M -4.7049153,167.27155 C -5.4913843,169.17735 0.47918368,173.97265 2.2926517,172.19496 C 30.795942,145.61629 38.188451,125.49781 62.192922,92.954316 C 63.349412,91.386426 63.234512,88.549896 60.996512,86.616976 C 59.003732,84.895846 55.634952,84.378156 53.963982,86.680376 C 30.121283,119.52985 11.179694,133.29181 -4.7049153,167.27155 z "
         id="path6308"
         sodipodi:nodetypes="ccsssc" />
      <g
         transform="matrix(0.2023907,5.4664318e-2,-5.4664318e-2,0.2023907,-222.06674,131.60352)"
         id="g6175">
        <path
           style="fill:url(#linearGradient4118);fill-opacity:1;fill-rule:evenodd;stroke:none;stroke-width:1px;stroke-linecap:butt;stroke-linejoin:miter;stroke-opacity:1"
           d="M 1016.4706,30.745097 C 1026.9809,9.7416042 1039.0048,-11.951804 1068.3921,-25.568628 C 1065.8953,-47.331364 1067.3128,-68.832944 1079.0588,-88.941177 C 1080.8075,-91.953324 1074.3252,-101.78331 1066.9479,-105.02365 C 1060.1135,-108.02552 1051.9063,-105.7695 1050.9804,-103.21568 C 1044.595,-84.337456 1037.2113,-67.137741 1029.3433,-45.903767 C 1019.8478,-20.277491 1019.5207,8.4149843 1016.4706,30.745097 z "
           id="path5942"
           sodipodi:nodetypes="cccscsc" />
        <path
           style="fill:#deca94;fill-opacity:1;fill-rule:evenodd;stroke:none;stroke-width:1px;stroke-linecap:butt;stroke-linejoin:miter;stroke-opacity:1"
           d="M 1049.098,-95.686275 C 1043.6001,-77.4997 1053.4637,-86.622401 1062.5882,-94.431373 L 1038.1176,-57.098039 L 1049.098,-95.686275 z "
           id="path5963"
           sodipodi:nodetypes="cccc" />
        <path
           style="fill:#665123;fill-opacity:1;fill-rule:evenodd;stroke:none;stroke-width:1px;stroke-linecap:butt;stroke-linejoin:miter;stroke-opacity:1"
           d="M 1016.4706,32 C 1021.2265,10.705493 1025.1788,-15.411019 1030.7451,-31.843137 C 1031.4248,-31.921568 1033.1051,-34.63447 1033.7255,-36.392157 C 1034.36,-38.190025 1035.0371,-41.744588 1034.0392,-42.352941 C 1033.0356,-42.964792 1030.9652,-38.97647 1030.2745,-37.019608 C 1029.7103,-35.420915 1029.3333,-32.522876 1030.0392,-32.156862 C 1023.9794,-17.275214 1019.8219,9.2616566 1016.4706,32 z "
           id="path5965"
           sodipodi:nodetypes="ccssscc" />
        <path
           style="fill:url(#linearGradient4120);fill-opacity:1;fill-rule:evenodd;stroke:none;stroke-width:1px;stroke-linecap:butt;stroke-linejoin:miter;stroke-opacity:1"
           d="M 1070.4314,-93.176467 L 1073.2549,-89.72549 C 1060.2033,-63.755966 1058.0672,-45.491485 1059.1373,-29.490196 C 1052.1917,-24.353715 1049.1211,-21.522438 1044.3922,-16.941176 C 1050.4554,-42.423253 1060.5828,-71.496861 1070.4314,-93.176467 z "
           id="path5969"
           sodipodi:nodetypes="ccccc" />
        <path
           style="fill:none;fill-opacity:1;fill-rule:evenodd;stroke:url(#linearGradient4122);stroke-width:8.80038261;stroke-linecap:butt;stroke-linejoin:miter;stroke-miterlimit:4;stroke-dasharray:none;stroke-opacity:1;filter:url(#filter6070)"
           d="M 665.72548,30.745097 C 676.2358,9.7416042 688.25969,-11.951804 717.64705,-25.568628 C 715.1502,-47.331364 716.5677,-68.832944 728.31372,-88.941177 C 730.06241,-91.953324 723.58014,-101.78331 716.2028,-105.02365 C 709.36841,-108.02552 701.16122,-105.7695 700.23529,-103.21568 C 693.84986,-84.337456 686.46616,-67.137741 678.59819,-45.903767 C 669.10272,-20.277491 668.7756,8.4149843 665.72548,30.745097 z "
           id="path6044"
           sodipodi:nodetypes="cccscsc"
           clip-path="url(#clipPath6046)"
           transform="translate(350.67224,0)" />
      </g>
      <path
         style="fill:url(#linearGradient4124);fill-opacity:1;fill-rule:evenodd;stroke:none;stroke-width:0.22058825px;stroke-linecap:butt;stroke-linejoin:miter;stroke-opacity:1"
         d="M -17.744903,193.04852 C -11.435065,191.20352 -4.2697503,186.0179 -0.91135732,188.10818 L 0.067336677,183.41043 L 5.7437657,183.99765 C 21.283783,176.37196 35.623031,167.14524 49.549742,157.36846 L 46.92015,143.15444 C 31.915073,151.55626 15.802198,161.75825 -3.6517003,177.3894 L -3.6517003,182.8701 C -10.619843,183.23569 -13.717159,188.7624 -17.744903,193.04852 z "
         id="path6437"
         sodipodi:nodetypes="ccccccccc" />
      <path
         id="path6074"
         d="M 5.5024067,149.41618 C 5.4924147,149.46321 5.4824217,149.51023 5.5024067,149.41618 z "
         style="fill:none;fill-opacity:0.75;fill-rule:evenodd;stroke:#000000;stroke-width:0.94530326px;stroke-linecap:butt;stroke-linejoin:miter;stroke-opacity:1" />
      <path
         transform="matrix(0.173869,5.6117921e-2,-3.3782791e-2,0.1589821,-158.87652,136.27185)"
         sodipodi:nodetypes="ccscccccsc"
         id="path6101"
         d="M 1111.1754,-707.88918 C 1110.8423,-707.88747 1110.5086,-707.87087 1110.1754,-707.85793 C 1113.3136,-707.50882 1116.3612,-706.63234 1119.1441,-705.32668 C 1133.5733,-698.55727 1139.6279,-681.36921 1133.7067,-670.63918 C 1021.0531,-466.50404 1014.7961,-319.76326 907.35094,-116.67773 C 910.40104,-111.59006 915.22576,-111.38989 912.30036,-100.32668 L 912.39406,-100.35793 C 1029.7773,-304.77473 1047.5531,-436.75452 1137.9567,-669.85793 C 1142.388,-681.28418 1138.5256,-697.76329 1124.2691,-704.88918 C 1120.3022,-706.87201 1115.7587,-707.91265 1111.1754,-707.88918 z "
         style="fill:url(#linearGradient4126);fill-opacity:1;fill-rule:evenodd;stroke:none;stroke-width:1px;stroke-linecap:butt;stroke-linejoin:miter;stroke-opacity:1;filter:url(#filter6161)" />
      <path
         transform="matrix(0.2023907,5.4664318e-2,-5.4664318e-2,0.2023907,-186.25183,142.77567)"
         sodipodi:nodetypes="ccc"
         id="path6165"
         d="M 904.7082,-96.703574 C 909.11721,-106.74637 902.91119,-113.65956 889.9631,-116.15455 C 898.84197,-111.73022 905.75631,-107.20384 904.7082,-96.703574 z "
         style="fill:url(#linearGradient4128);fill-opacity:1;fill-rule:evenodd;stroke:none;stroke-width:1px;stroke-linecap:butt;stroke-linejoin:miter;stroke-opacity:1;filter:url(#filter6296)" />
      <path
         sodipodi:nodetypes="cccsscsc"
         id="path6310"
         d="M 58.545902,86.602036 C 57.220412,86.180856 55.744952,86.367736 54.877272,87.563216 C 50.525772,93.411926 46.1081,99.978316 42.799816,106.49749 C 46.574455,101.89743 47.290852,102.06661 55.789342,88.914066 C 56.955792,87.108816 59.088452,87.635076 60.593612,88.935056 C 61.053172,89.331966 61.391492,89.778126 61.626892,90.242956 C 61.554042,89.307576 61.109972,88.312816 60.188862,87.517256 C 59.718492,87.111026 59.148392,86.793476 58.545902,86.602036 z "
         style="fill:url(#linearGradient4130);fill-opacity:1;fill-rule:evenodd;stroke:none;stroke-width:0.70528394px;stroke-linecap:butt;stroke-linejoin:miter;stroke-opacity:1" />
      <path
         sodipodi:nodetypes="ccccc"
         id="path6447"
         d="M 13.66076,136.70247 C 18.98931,137.53905 23.726814,141.68418 25.82238,146.14196 L 28.930272,141.8996 C 26.866368,138.09706 21.513146,133.64622 16.611789,132.87524 L 13.66076,136.70247 z "
         style="fill:url(#linearGradient4132);fill-opacity:1;fill-rule:evenodd;stroke:none;stroke-width:1px;stroke-linecap:butt;stroke-linejoin:miter;stroke-opacity:1" />
    </g>
  </g>
</svg>
