<?xml version="1.0" encoding="UTF-8" standalone="no"?>
<!-- Created with Inkscape (http://www.inkscape.org/) -->

<svg
   xmlns:dc="http://purl.org/dc/elements/1.1/"
   xmlns:cc="http://creativecommons.org/ns#"
   xmlns:rdf="http://www.w3.org/1999/02/22-rdf-syntax-ns#"
   xmlns:svg="http://www.w3.org/2000/svg"
   xmlns="http://www.w3.org/2000/svg"
   xmlns:xlink="http://www.w3.org/1999/xlink"
   xmlns:sodipodi="http://sodipodi.sourceforge.net/DTD/sodipodi-0.dtd"
   xmlns:inkscape="http://www.inkscape.org/namespaces/inkscape"
   width="128"
   height="128"
   id="svg2"
   sodipodi:version="0.32"
   inkscape:version="0.46+devel"
   version="1.0"
   sodipodi:docname="stroke-join-round.svgz"
   inkscape:output_extension="org.inkscape.output.svgz.inkscape"
   inkscape:export-filename="/home/pinheiro/pics/oxygen-icons/scalable/actions/small/22x22/stroke-cap-round.png"
   inkscape:export-xdpi="61.875"
   inkscape:export-ydpi="61.875">
  <defs
     id="defs4">
    <inkscape:perspective
       sodipodi:type="inkscape:persp3d"
       inkscape:vp_x="0 : 64 : 1"
       inkscape:vp_y="0 : 1000 : 0"
       inkscape:vp_z="128 : 64 : 1"
       inkscape:persp3d-origin="64 : 42.666667 : 1"
       id="perspective57" />
    <linearGradient
       inkscape:collect="always"
       id="linearGradient3226">
      <stop
         style="stop-color:#ffffff;stop-opacity:1;"
         offset="0"
         id="stop3228" />
      <stop
         style="stop-color:#ffffff;stop-opacity:0;"
         offset="1"
         id="stop3230" />
    </linearGradient>
    <linearGradient
       inkscape:collect="always"
       id="linearGradient3208">
      <stop
         style="stop-color:#ffffff;stop-opacity:1;"
         offset="0"
         id="stop3210" />
      <stop
         style="stop-color:#ffffff;stop-opacity:0;"
         offset="1"
         id="stop3212" />
    </linearGradient>
    <linearGradient
       id="linearGradient3189">
      <stop
         style="stop-color:#2e2e2e;stop-opacity:1;"
         offset="0"
         id="stop3191" />
      <stop
         style="stop-color:#8f8f8f;stop-opacity:1;"
         offset="1"
         id="stop3193" />
    </linearGradient>
    <linearGradient
       y2="32"
       x2="74.330322"
       y1="-5.8302126"
       x1="102.31124"
       gradientTransform="matrix(1.5714286,0,0,2,-77.455357,-24)"
       gradientUnits="userSpaceOnUse"
       id="linearGradient3292"
       xlink:href="#linearGradient3310"
       inkscape:collect="always" />
    <linearGradient
       y2="27.999992"
       x2="124.09152"
       y1="99.999985"
       x1="42.728634"
       gradientTransform="matrix(0.8333334,0,0,0.888889,-5.3333316,-16.888886)"
       gradientUnits="userSpaceOnUse"
       id="linearGradient3289"
       xlink:href="#linearGradient2431"
       inkscape:collect="always" />
    <linearGradient
       y2="549.06134"
       x2="399.77466"
       y1="1164.6696"
       x1="399.77466"
       gradientTransform="matrix(9.7165589e-2,0,0,0.1301193,-6.3061697,-71.503536)"
       gradientUnits="userSpaceOnUse"
       id="linearGradient3287"
       xlink:href="#linearGradient7422"
       inkscape:collect="always" />
    <linearGradient
       id="linearGradient2399">
      <stop
         id="stop2401"
         offset="0"
         style="stop-color:#0968ef;stop-opacity:1;" />
      <stop
         id="stop2403"
         offset="1"
         style="stop-color:#aecffc;stop-opacity:1;" />
    </linearGradient>
    <linearGradient
       id="linearGradient2431">
      <stop
         style="stop-color:#ffffff;stop-opacity:1;"
         offset="0"
         id="stop2433" />
      <stop
         id="stop2435"
         offset="0.42597079"
         style="stop-color:#ffffff;stop-opacity:1;" />
      <stop
         id="stop2437"
         offset="0.5892781"
         style="stop-color:#f1f1f1;stop-opacity:1;" />
      <stop
         style="stop-color:#eaeaea;stop-opacity:1;"
         offset="0.80219781"
         id="stop2439" />
      <stop
         style="stop-color:#dfdfdf;stop-opacity:1;"
         offset="1"
         id="stop2441" />
    </linearGradient>
    <linearGradient
       id="linearGradient7422">
      <stop
         style="stop-color:#b4b4b6;stop-opacity:1;"
         offset="0"
         id="stop7424" />
      <stop
         id="stop5348"
         offset="0.5"
         style="stop-color:#9c9ca1;stop-opacity:1;" />
      <stop
         id="stop7426"
         offset="1"
         style="stop-color:#cdcdd1;stop-opacity:1;" />
    </linearGradient>
    <linearGradient
       id="linearGradient3310"
       inkscape:collect="always">
      <stop
         id="stop3312"
         offset="0"
         style="stop-color:#ffffff;stop-opacity:1;" />
      <stop
         id="stop3314"
         offset="1"
         style="stop-color:#ffffff;stop-opacity:0;" />
    </linearGradient>
    <linearGradient
       id="linearGradient3314"
       inkscape:collect="always">
      <stop
         id="stop3316"
         offset="0"
         style="stop-color:#ffffff;stop-opacity:1;" />
      <stop
         id="stop3318"
         offset="1"
         style="stop-color:#ffffff;stop-opacity:0;" />
    </linearGradient>
    <linearGradient
       id="linearGradient3323">
      <stop
         style="stop-color:#c7cdd7;stop-opacity:1;"
         offset="0"
         id="stop3325" />
      <stop
         style="stop-color:#ffffff;stop-opacity:1;"
         offset="1"
         id="stop3327" />
    </linearGradient>
    <linearGradient
       inkscape:collect="always"
       xlink:href="#linearGradient3314"
       id="linearGradient2531"
       gradientUnits="userSpaceOnUse"
       gradientTransform="matrix(3.3333334,0,-0.639827,2.5593082,69.638116,-169.21913)"
       x1="20"
       y1="78.165009"
       x2="20"
       y2="109.84906" />
    <linearGradient
       inkscape:collect="always"
       xlink:href="#linearGradient3323"
       id="linearGradient2534"
       gradientUnits="userSpaceOnUse"
       gradientTransform="matrix(0.8333334,0,0,0.9162458,40.666665,32.068602)"
       x1="80.34671"
       y1="17.268518"
       x2="73.462685"
       y2="107.95493" />
    <linearGradient
       inkscape:collect="always"
       xlink:href="#linearGradient2399"
       id="linearGradient3514"
       x1="113.15723"
       y1="25.786163"
       x2="39.268185"
       y2="25.786163"
       gradientUnits="userSpaceOnUse"
       gradientTransform="translate(11.999999,0)" />
    <linearGradient
       inkscape:collect="always"
       xlink:href="#linearGradient2399"
       id="linearGradient3179"
       x1="71.754753"
       y1="39.122932"
       x2="63.999992"
       y2="154.62848"
       gradientUnits="userSpaceOnUse"
       gradientTransform="matrix(0.69612174,0,0,0.98928901,21.117143,5.3461214)" />
    <linearGradient
       inkscape:collect="always"
       xlink:href="#linearGradient3189"
       id="linearGradient3195"
       x1="66.103683"
       y1="5.9449472"
       x2="66.103683"
       y2="99.655617"
       gradientUnits="userSpaceOnUse"
       gradientTransform="matrix(0.8727199,0,0,0.99972662,8.1450212,0.1903095)" />
    <linearGradient
       inkscape:collect="always"
       xlink:href="#linearGradient2399"
       id="linearGradient3203"
       x1="44.492756"
       y1="143.22504"
       x2="44.492756"
       y2="70.334091"
       gradientUnits="userSpaceOnUse"
       gradientTransform="matrix(0.89605873,0,0,1.0138249,8.3211726,2.1481245)" />
    <linearGradient
       inkscape:collect="always"
       xlink:href="#linearGradient3208"
       id="linearGradient3214"
       x1="55.039051"
       y1="-10.85546"
       x2="55.039051"
       y2="85.979202"
       gradientUnits="userSpaceOnUse" />
    <linearGradient
       inkscape:collect="always"
       xlink:href="#linearGradient3226"
       id="linearGradient3232"
       x1="63.741604"
       y1="116.41339"
       x2="63.741604"
       y2="128.04443"
       gradientUnits="userSpaceOnUse" />
    <linearGradient
       inkscape:collect="always"
       xlink:href="#linearGradient3226"
       id="linearGradient3243"
       gradientUnits="userSpaceOnUse"
       x1="63.741604"
       y1="116.41339"
       x2="63.741604"
       y2="128.04443" />
    <linearGradient
       inkscape:collect="always"
       xlink:href="#linearGradient3189"
       id="linearGradient3636"
       gradientUnits="userSpaceOnUse"
       x1="66.103683"
       y1="5.9449472"
       x2="66.103683"
       y2="99.655617"
       gradientTransform="matrix(0.87271096,0,0,0.99978402,8.1455973,0.18890425)" />
    <linearGradient
       inkscape:collect="always"
       xlink:href="#linearGradient3226"
       id="linearGradient2845"
       gradientUnits="userSpaceOnUse"
       x1="63.741604"
       y1="116.41339"
       x2="63.741604"
       y2="128.04443" />
    <linearGradient
       inkscape:collect="always"
       xlink:href="#linearGradient3226"
       id="linearGradient2849"
       gradientUnits="userSpaceOnUse"
       x1="63.741604"
       y1="116.41339"
       x2="63.741604"
       y2="128.04443"
       gradientTransform="translate(-23.852955,-127.14704)" />
    <linearGradient
       inkscape:collect="always"
       xlink:href="#linearGradient3226"
       id="linearGradient2863"
       gradientUnits="userSpaceOnUse"
       x1="63.741604"
       y1="116.41339"
       x2="63.741604"
       y2="128.04443" />
    <linearGradient
       inkscape:collect="always"
       xlink:href="#linearGradient3226"
       id="linearGradient2865"
       gradientUnits="userSpaceOnUse"
       gradientTransform="translate(-23.852955,-127.14704)"
       x1="63.741604"
       y1="116.41339"
       x2="63.741604"
       y2="128.04443" />
    <linearGradient
       inkscape:collect="always"
       xlink:href="#linearGradient2399"
       id="linearGradient2869"
       gradientUnits="userSpaceOnUse"
       gradientTransform="matrix(0.89605873,0,0,1.0138249,-96.406429,25.418726)"
       x1="44.492756"
       y1="143.22504"
       x2="44.492756"
       y2="70.334091" />
    <linearGradient
       inkscape:collect="always"
       xlink:href="#linearGradient2399"
       id="linearGradient2871"
       gradientUnits="userSpaceOnUse"
       gradientTransform="matrix(0.69612174,0,0,0.98928901,-83.610458,28.616723)"
       x1="71.754753"
       y1="39.122932"
       x2="63.999992"
       y2="154.62848" />
    <linearGradient
       inkscape:collect="always"
       xlink:href="#linearGradient3226"
       id="linearGradient2877"
       gradientUnits="userSpaceOnUse"
       x1="63.741604"
       y1="116.41339"
       x2="63.741604"
       y2="128.04443" />
    <linearGradient
       inkscape:collect="always"
       xlink:href="#linearGradient3226"
       id="linearGradient2879"
       gradientUnits="userSpaceOnUse"
       gradientTransform="translate(-23.852955,-127.14704)"
       x1="63.741604"
       y1="116.41339"
       x2="63.741604"
       y2="128.04443" />
    <linearGradient
       inkscape:collect="always"
       xlink:href="#linearGradient3226"
       id="linearGradient2889"
       gradientUnits="userSpaceOnUse"
       x1="63.741604"
       y1="116.41339"
       x2="63.741604"
       y2="128.04443" />
    <linearGradient
       inkscape:collect="always"
       xlink:href="#linearGradient3226"
       id="linearGradient2891"
       gradientUnits="userSpaceOnUse"
       gradientTransform="translate(-23.852955,-127.14704)"
       x1="63.741604"
       y1="116.41339"
       x2="63.741604"
       y2="128.04443" />
    <linearGradient
       inkscape:collect="always"
       xlink:href="#linearGradient3189"
       id="linearGradient2895"
       gradientUnits="userSpaceOnUse"
       gradientTransform="matrix(0.87271096,0,0,0.99978402,-90.8247,29.216812)"
       x1="66.103683"
       y1="5.9449472"
       x2="66.103683"
       y2="99.655617" />
    <linearGradient
       inkscape:collect="always"
       xlink:href="#linearGradient3226"
       id="linearGradient2907"
       gradientUnits="userSpaceOnUse"
       x1="63.741604"
       y1="116.41339"
       x2="63.741604"
       y2="128.04443" />
    <linearGradient
       inkscape:collect="always"
       xlink:href="#linearGradient3226"
       id="linearGradient2909"
       gradientUnits="userSpaceOnUse"
       gradientTransform="translate(-23.852955,-127.14704)"
       x1="63.741604"
       y1="116.41339"
       x2="63.741604"
       y2="128.04443" />
    <linearGradient
       inkscape:collect="always"
       xlink:href="#linearGradient3226"
       id="linearGradient2912"
       gradientUnits="userSpaceOnUse"
       gradientTransform="matrix(1.3072569,0,0,1,-31.227122,0.85297)"
       x1="63.741604"
       y1="116.41339"
       x2="63.741604"
       y2="128.04443" />
    <linearGradient
       inkscape:collect="always"
       xlink:href="#linearGradient3226"
       id="linearGradient2915"
       gradientUnits="userSpaceOnUse"
       x1="63.741604"
       y1="116.41339"
       x2="63.741604"
       y2="128.04443"
       gradientTransform="matrix(1.3090725,0,0,1,-141.96165,0)" />
    <linearGradient
       inkscape:collect="always"
       xlink:href="#linearGradient2399"
       id="linearGradient2921"
       gradientUnits="userSpaceOnUse"
       gradientTransform="matrix(0.89605873,0,0,1.0138249,8.3211726,2.1481245)"
       x1="44.492756"
       y1="143.22504"
       x2="44.492756"
       y2="70.334091" />
    <linearGradient
       inkscape:collect="always"
       xlink:href="#linearGradient2399"
       id="linearGradient2923"
       gradientUnits="userSpaceOnUse"
       gradientTransform="matrix(0.69612174,0,0,0.98928901,21.117143,5.3461214)"
       x1="71.754753"
       y1="39.122932"
       x2="63.999992"
       y2="154.62848" />
    <linearGradient
       inkscape:collect="always"
       xlink:href="#linearGradient3189"
       id="linearGradient2925"
       gradientUnits="userSpaceOnUse"
       gradientTransform="matrix(0.87271096,0,0,0.99978402,8.1455973,0.18890425)"
       x1="66.103683"
       y1="5.9449472"
       x2="66.103683"
       y2="99.655617" />
    <linearGradient
       inkscape:collect="always"
       xlink:href="#linearGradient3226"
       id="linearGradient2939"
       gradientUnits="userSpaceOnUse"
       gradientTransform="matrix(1.3090725,0,0,1,-141.96165,0)"
       x1="63.741604"
       y1="116.41339"
       x2="63.741604"
       y2="128.04443" />
    <linearGradient
       inkscape:collect="always"
       xlink:href="#linearGradient3226"
       id="linearGradient2941"
       gradientUnits="userSpaceOnUse"
       gradientTransform="matrix(1.3072569,0,0,1,-31.227122,0.85297)"
       x1="63.741604"
       y1="116.41339"
       x2="63.741604"
       y2="128.04443" />
    <mask
       maskUnits="userSpaceOnUse"
       id="mask2931">
      <g
         id="g2933"
         transform="translate(5.8298742,-5.7350758)">
        <rect
           transform="scale(-1,1)"
           style="fill:url(#linearGradient2939);fill-opacity:1;stroke:none"
           id="rect2935"
           width="104.7258"
           height="126.29049"
           x="-110.5439"
           y="0.0018"
           rx="1.5431566"
           ry="1.9923512" />
        <rect
           transform="matrix(0,1,1,0,0,0)"
           ry="1.9923512"
           rx="1.5431567"
           y="0.8547616"
           x="0.14704514"
           height="126.29049"
           width="104.58055"
           id="rect2937"
           style="fill:url(#linearGradient2941);fill-opacity:1;stroke:none" />
      </g>
    </mask>
  </defs>
  <sodipodi:namedview
     id="base"
     pagecolor="#ffffff"
     bordercolor="#666666"
     borderopacity="1.0"
     gridtolerance="10000"
     guidetolerance="10"
     objecttolerance="10"
     inkscape:pageopacity="0.0"
     inkscape:pageshadow="2"
     inkscape:zoom="2.484375"
     inkscape:cx="91.509542"
     inkscape:cy="70.27664"
     inkscape:document-units="px"
     inkscape:current-layer="g2497"
     width="128px"
     height="128px"
     showgrid="true"
     showborder="true"
     inkscape:window-width="1189"
     inkscape:window-height="712"
     inkscape:window-x="12"
     inkscape:window-y="48"
     inkscape:snap-nodes="true"
     inkscape:snap-bbox="true"
     showguides="true"
     inkscape:guide-bbox="true">
    <inkscape:grid
       id="GridFromPre046Settings"
       type="xygrid"
       originx="0px"
       originy="0px"
       spacingx="5.8181px"
       spacingy="5.8181px"
       color="#0000ff"
       empcolor="#0000ff"
       opacity="0.2"
       empopacity="0.4"
       empspacing="2"
       visible="true"
       enabled="true" />
    <sodipodi:guide
       orientation="0,1"
       position="51.089577,105.30999"
       id="guide2845" />
  </sodipodi:namedview>
  <metadata
     id="metadata7">
    <rdf:RDF>
      <cc:Work
         rdf:about="">
        <dc:format>image/svg+xml</dc:format>
        <dc:type
           rdf:resource="http://purl.org/dc/dcmitype/StillImage" />
        <dc:title></dc:title>
      </cc:Work>
    </rdf:RDF>
  </metadata>
  <g
     inkscape:label="Layer 1"
     inkscape:groupmode="layer"
     id="layer1">
    <g
       id="g2497"
       inkscape:label="Livello 1">
      <g
         id="g3234"
         mask="url(#mask2931)"
         transform="translate(-5.8298742,5.7350758)">
        <path
           style="fill:url(#linearGradient2921);fill-opacity:1;stroke:url(#linearGradient2923);stroke-width:5.54545164;stroke-linecap:round;stroke-linejoin:round;stroke-miterlimit:4;stroke-opacity:1;stroke-dasharray:none;stroke-dashoffset:1.08779998"
           d="m 64.125,14.49375 c -1.942877,0 -3.841408,0.180541 -5.6875,0.5 -0.491329,0.08502 -0.985543,0.174835 -1.46875,0.28125 -0.01984,0.0044 -0.04268,-0.0044 -0.0625,0 -0.135868,0.02834 -0.271038,0.06363 -0.40625,0.09375 -0.144578,0.03406 -0.293704,0.0578 -0.4375,0.09375 -0.0098,0.0023 -0.02142,-0.0023 -0.03125,0 -5.109591,1.221789 -9.730691,3.730873 -13.53125,7.15625 -0.125475,0.113088 -0.251327,0.228644 -0.375,0.34375 -0.374531,0.342961 -0.7365,0.702455 -1.09375,1.0625 -0.352125,0.354879 -0.696553,0.722898 -1.03125,1.09375 -0.346387,0.383804 -0.672972,0.787264 -1,1.1875 -2.926329,3.581416 -5.060375,7.782791 -6.15625,12.40625 -0.08048,0.339532 -0.149604,0.687524 -0.21875,1.03125 -0.488477,2.260314 -0.75,4.584824 -0.75,7 l 0,107.2875 c 0,17.80328 13.965353,32.15625 31.34375,32.15625 l 1.5625,0 c 17.378397,0 31.34375,-14.35297 31.34375,-32.15625 l 0,-75.25625 81.1875,0 c 17.80328,0 32.125,-13.996603 32.125,-31.375 l 0,-1.53125 c 0,-17.378397 -14.32172,-31.375 -32.125,-31.375 l -113.1875,0 z"
           id="rect2200"
           sodipodi:nodetypes="csssssssssssscccccccccccc" />
        <path
           style="opacity:0.7;fill:#ffffff;fill-opacity:1;stroke:url(#linearGradient2925);stroke-width:5.81818104;stroke-linecap:round;stroke-linejoin:round;stroke-miterlimit:4;stroke-opacity:1;stroke-dasharray:none;stroke-dashoffset:1.08779998"
           d="m 64,38.1875 c -0.628052,0 -1.222723,0.09385 -1.8125,0.21875 -0.857989,0.181694 -1.662857,0.462576 -2.40625,0.875 -0.220766,0.122478 -0.447868,0.234451 -0.65625,0.375 -0.02385,0.01575 -0.03881,0.04652 -0.0625,0.0625 -0.206754,0.142449 -0.431772,0.278165 -0.625,0.4375 -0.0223,0.01802 -0.04038,0.04426 -0.0625,0.0625 -0.202299,0.170266 -0.407862,0.343484 -0.59375,0.53125 -0.0104,0.0103 -0.0209,0.0209 -0.03125,0.03125 -0.174698,0.178247 -0.341068,0.369761 -0.5,0.5625 -0.01886,0.02241 -0.04386,0.0399 -0.0625,0.0625 -0.157455,0.194828 -0.29705,0.416765 -0.4375,0.625 -0.0163,0.02367 -0.04642,0.03867 -0.0625,0.0625 -0.138547,0.209843 -0.254642,0.434142 -0.375,0.65625 -0.695922,1.254398 -1.09375,2.677026 -1.09375,4.21875 0,0.380458 0.01573,0.757652 0.0625,1.125 l 0,81.34375 c 0,4.83482 3.883931,8.71875 8.71875,8.71875 4.834819,0 8.71875,-3.88393 8.71875,-8.71875 l 0,-73.75 85.75,0 c 4.83482,0 8.71875,-3.883931 8.71875,-8.71875 0,-4.834819 -3.88393,-8.71875 -8.71875,-8.71875 l -93.40625,0 C 64.715769,38.208451 64.358283,38.1875 64,38.1875 z"
           id="rect2841"
           sodipodi:nodetypes="cssssssssssssssccscccsccc" />
        <path
           sodipodi:nodetypes="ccccccsss"
           id="rect3205"
           d="m 158,48.992351 0,10.015298 C 158,60.111411 157.11141,61 156.00765,61 133.66606,64.541365 58.704395,74.200888 35.992351,69 34.888589,69 34,68.111411 34,67.007649 L 34,48.992351 C 34,28.700949 49.316196,16.73822 63.9991,16.738 c 0.125933,-2e-6 64.25191,8.75e-4 64.37793,0.0026 C 142.94403,16.943414 158,28.864136 158,48.992351 z"
           style="fill:url(#linearGradient3214);fill-opacity:1;stroke:none" />
        <path
           sodipodi:nodetypes="cssssssssssssssccscccsccc"
           id="path2943"
           d="m 64,38.1875 c -0.628052,0 -1.222723,0.09385 -1.8125,0.21875 -0.857989,0.181694 -1.662857,0.462576 -2.40625,0.875 -0.220766,0.122478 -0.447868,0.234451 -0.65625,0.375 -0.02385,0.01575 -0.03881,0.04652 -0.0625,0.0625 -0.206754,0.142449 -0.431772,0.278165 -0.625,0.4375 -0.0223,0.01802 -0.04038,0.04426 -0.0625,0.0625 -0.202299,0.170266 -0.407862,0.343484 -0.59375,0.53125 -0.0104,0.0103 -0.0209,0.0209 -0.03125,0.03125 -0.174698,0.178247 -0.341068,0.369761 -0.5,0.5625 -0.01886,0.02241 -0.04386,0.0399 -0.0625,0.0625 -0.157455,0.194828 -0.29705,0.416765 -0.4375,0.625 -0.0163,0.02367 -0.04642,0.03867 -0.0625,0.0625 -0.138547,0.209843 -0.254642,0.434142 -0.375,0.65625 -0.695922,1.254398 -1.09375,2.677026 -1.09375,4.21875 0,0.380458 0.01573,0.757652 0.0625,1.125 l 0,81.34375 c 0,4.83482 3.883931,8.71875 8.71875,8.71875 4.834819,0 8.71875,-3.88393 8.71875,-8.71875 l 0,-73.75 85.75,0 c 4.83482,0 8.71875,-3.883931 8.71875,-8.71875 0,-4.834819 -3.88393,-8.71875 -8.71875,-8.71875 l -93.40625,0 C 64.715769,38.208451 64.358283,38.1875 64,38.1875 z"
           style="opacity:0.7;fill:#ffffff;fill-opacity:1;stroke:url(#linearGradient2925);stroke-width:5.81818104;stroke-linecap:round;stroke-linejoin:round;stroke-miterlimit:4;stroke-opacity:1;stroke-dasharray:none;stroke-dashoffset:1.08779998" />
      </g>
    </g>
  </g>
</svg>
