<?xml version="1.0" encoding="UTF-8" standalone="no"?>
<!-- Created with Inkscape (http://www.inkscape.org/) -->
<svg
   xmlns:dc="http://purl.org/dc/elements/1.1/"
   xmlns:cc="http://creativecommons.org/ns#"
   xmlns:rdf="http://www.w3.org/1999/02/22-rdf-syntax-ns#"
   xmlns:svg="http://www.w3.org/2000/svg"
   xmlns="http://www.w3.org/2000/svg"
   xmlns:xlink="http://www.w3.org/1999/xlink"
   xmlns:sodipodi="http://sodipodi.sourceforge.net/DTD/sodipodi-0.dtd"
   xmlns:inkscape="http://www.inkscape.org/namespaces/inkscape"
   width="22"
   height="22"
   id="svg2"
   sodipodi:version="0.32"
   inkscape:version="0.45+devel"
   version="1.0"
   sodipodi:docname="system-search.svgz"
   inkscape:output_extension="org.inkscape.output.svgz.inkscape"
   inkscape:export-filename="/home/david/system-search.png"
   inkscape:export-xdpi="90"
   inkscape:export-ydpi="90">
  <defs
     id="defs4">
    <linearGradient
       inkscape:collect="always"
       id="linearGradient6092">
      <stop
         style="stop-color:#000000;stop-opacity:1;"
         offset="0"
         id="stop6094" />
      <stop
         style="stop-color:#000000;stop-opacity:0;"
         offset="1"
         id="stop6096" />
    </linearGradient>
    <linearGradient
       inkscape:collect="always"
       id="linearGradient5954">
      <stop
         style="stop-color:#ffffff;stop-opacity:1;"
         offset="0"
         id="stop5956" />
      <stop
         style="stop-color:#ffffff;stop-opacity:0;"
         offset="1"
         id="stop5958" />
    </linearGradient>
    <linearGradient
       inkscape:collect="always"
       id="linearGradient5916">
      <stop
         style="stop-color:#ffffff;stop-opacity:1;"
         offset="0"
         id="stop5918" />
      <stop
         style="stop-color:#ffffff;stop-opacity:0;"
         offset="1"
         id="stop5920" />
    </linearGradient>
    <linearGradient
       inkscape:collect="always"
       id="linearGradient5860">
      <stop
         style="stop-color:#000000;stop-opacity:1;"
         offset="0"
         id="stop5862" />
      <stop
         style="stop-color:#000000;stop-opacity:0;"
         offset="1"
         id="stop5864" />
    </linearGradient>
    <linearGradient
       id="linearGradient5841"
       inkscape:collect="always">
      <stop
         id="stop5843"
         offset="0"
         style="stop-color:#ffdfbf;stop-opacity:1" />
      <stop
         id="stop5845"
         offset="1"
         style="stop-color:#ffdfbf;stop-opacity:0" />
    </linearGradient>
    <linearGradient
       id="linearGradient5672"
       inkscape:collect="always">
      <stop
         id="stop5674"
         offset="0"
         style="stop-color:#281400;stop-opacity:1" />
      <stop
         id="stop5676"
         offset="1"
         style="stop-color:#4d2600;stop-opacity:0" />
    </linearGradient>
    <linearGradient
       inkscape:collect="always"
       id="linearGradient5538">
      <stop
         style="stop-color:#000000;stop-opacity:1;"
         offset="0"
         id="stop5540" />
      <stop
         style="stop-color:#000000;stop-opacity:0;"
         offset="1"
         id="stop5542" />
    </linearGradient>
    <linearGradient
       inkscape:collect="always"
       id="linearGradient5412">
      <stop
         style="stop-color:#666666;stop-opacity:1"
         offset="0"
         id="stop5414" />
      <stop
         style="stop-color:#101010;stop-opacity:1"
         offset="1"
         id="stop5416" />
    </linearGradient>
    <linearGradient
       id="linearGradient5395">
      <stop
         id="stop5397"
         offset="0"
         style="stop-color:#212121;stop-opacity:1;" />
      <stop
         style="stop-color:#b0b0b0;stop-opacity:1;"
         offset="0.3826898"
         id="stop5399" />
      <stop
         id="stop5401"
         offset="0.5927273"
         style="stop-color:#101010;stop-opacity:1" />
      <stop
         id="stop5403"
         offset="1"
         style="stop-color:#111111;stop-opacity:1" />
    </linearGradient>
    <linearGradient
       id="linearGradient5131">
      <stop
         id="stop5133"
         offset="0"
         style="stop-color:#212121;stop-opacity:1;" />
      <stop
         style="stop-color:#b0b0b0;stop-opacity:1;"
         offset="0.35374629"
         id="stop5135" />
      <stop
         id="stop5137"
         offset="0.75"
         style="stop-color:#101010;stop-opacity:1" />
      <stop
         id="stop5139"
         offset="1"
         style="stop-color:#040404;stop-opacity:1" />
    </linearGradient>
    <linearGradient
       inkscape:collect="always"
       id="linearGradient5055">
      <stop
         style="stop-color:#000000;stop-opacity:1;"
         offset="0"
         id="stop5057" />
      <stop
         style="stop-color:#323232;stop-opacity:1"
         offset="1"
         id="stop5059" />
    </linearGradient>
    <linearGradient
       id="linearGradient4934"
       inkscape:collect="always">
      <stop
         id="stop4936"
         offset="0"
         style="stop-color:#000000;stop-opacity:1" />
      <stop
         id="stop4938"
         offset="1"
         style="stop-color:#414141;stop-opacity:1" />
    </linearGradient>
    <linearGradient
       inkscape:collect="always"
       id="linearGradient4783">
      <stop
         style="stop-color:#ffffff;stop-opacity:1;"
         offset="0"
         id="stop4785" />
      <stop
         style="stop-color:#ffffff;stop-opacity:0;"
         offset="1"
         id="stop4787" />
    </linearGradient>
    <linearGradient
       id="linearGradient4495">
      <stop
         style="stop-color:#313131;stop-opacity:1;"
         offset="0"
         id="stop4497" />
      <stop
         id="stop4515"
         offset="0.5"
         style="stop-color:#3b3b3b;stop-opacity:1;" />
      <stop
         style="stop-color:#5a5a5a;stop-opacity:1;"
         offset="0.62842464"
         id="stop4517" />
      <stop
         id="stop4519"
         offset="0.875"
         style="stop-color:#181818;stop-opacity:1;" />
      <stop
         style="stop-color:#151515;stop-opacity:1"
         offset="1"
         id="stop4499" />
    </linearGradient>
    <linearGradient
       inkscape:collect="always"
       id="linearGradient4402">
      <stop
         style="stop-color:#4d1a00;stop-opacity:1;"
         offset="0"
         id="stop4404" />
      <stop
         style="stop-color:#bf5e00;stop-opacity:1"
         offset="1"
         id="stop4406" />
    </linearGradient>
    <radialGradient
       r="43.734375"
       fy="67.895119"
       fx="94.818924"
       cy="67.895119"
       cx="94.818924"
       gradientTransform="matrix(1,0,0,0.5780636,0,-101.84696)"
       gradientUnits="userSpaceOnUse"
       id="radialGradient5077"
       xlink:href="#linearGradient4993"
       inkscape:collect="always" />
    <clipPath
       id="clipPath5073"
       clipPathUnits="userSpaceOnUse">
      <path
         sodipodi:nodetypes="csccccccccccccccccccccccccccc"
         style="opacity:0.43122678;fill:url(#radialGradient5077);fill-opacity:1;stroke:none;stroke-width:3;stroke-linecap:round;stroke-linejoin:round;stroke-miterlimit:4;stroke-dasharray:none;stroke-dashoffset:1.08779998;stroke-opacity:1"
         mask="none"
         clip-path="none"
         d="M 76.90625,-70.062499 C 73.993994,-66.090403 69.299199,-63.499999 64,-63.499999 C 59.104212,-63.499999 54.716932,-65.68865 51.78125,-69.156249 C 28.641624,-73.441819 25.163605,-55.116541 20.28125,-38.406249 C 20.690082,-37.972249 21.088367,-37.541669 21.5625,-37.062499 C 23.88968,-34.759759 25.50848,-33.384839 28.125,-31.406249 C 28.91352,-30.834369 29.90825,-30.720749 30.59375,-31.406249 L 37.6875,-37.656249 C 38.44814,-38.287879 39.39399,-38.279169 40.0625,-37.906249 L 40.15625,-37.999999 C 43.68391,-35.982829 47.484439,-34.390479 51.5,-33.312499 L 51.5,-33.156249 C 52.236402,-32.947239 52.940029,-32.296979 53.03125,-31.312499 L 53.625,-21.874999 C 53.625001,-20.905559 54.41305,-20.278189 55.375,-20.124999 C 58.624233,-19.673919 60.726147,-19.517279 64,-19.499999 C 67.273854,-19.517279 69.375768,-19.673919 72.625,-20.124999 C 73.586947,-20.278189 74.375,-20.905559 74.375,-21.874999 L 74.96875,-31.312499 C 75.059975,-32.296979 75.763599,-32.947239 76.5,-33.156249 L 76.5,-33.312499 C 80.515558,-34.390479 84.316095,-35.982829 87.84375,-37.999999 L 87.9375,-37.906249 C 88.606008,-38.279169 89.551862,-38.287879 90.3125,-37.656249 L 97.40625,-31.406249 C 98.091754,-30.720739 99.086487,-30.834359 99.875,-31.406249 C 102.49151,-33.384839 104.11031,-34.759759 106.4375,-37.062499 C 106.92292,-37.553069 107.3327,-37.993909 107.75,-38.437499 C 111.67353,-45.524173 82.140773,-81.872038 76.90625,-70.062499 z "
         id="path5075" />
    </clipPath>
    <mask
       id="mask4921"
       maskUnits="userSpaceOnUse">
      <path
         sodipodi:nodetypes="ccccssccccccccsccscccccccccccccccccccccccccccccccccccccccccccccccssssccccccccsscccccsssc"
         id="path4923"
         d="M -83.999999,4 C -87.273852,4.0172764 -89.375767,4.1739184 -92.624999,4.625 C -93.586949,4.778184 -94.374999,5.4055494 -94.374999,6.375 L -94.968749,15.8125 C -95.057257,16.767694 -95.725392,17.39683 -96.437499,17.625 C -96.45933,17.631995 -96.478095,17.650033 -96.499999,17.65625 C -100.61684,18.761419 -104.52293,20.378352 -108.125,22.46875 C -108.77655,22.750681 -109.61713,22.733687 -110.3125,22.15625 L -117.40625,15.90625 C -118.09175,15.220752 -119.08648,15.33437 -119.875,15.90625 C -122.49151,17.884842 -124.11032,19.259755 -126.4375,21.5625 C -128.74024,23.889683 -130.11516,25.508484 -132.09375,28.125 C -132.66563,28.913521 -132.77925,29.908252 -132.09375,30.59375 L -125.84375,37.6875 C -125.37003,38.257979 -125.10755,38.996346 -125.375,39.53125 L -125.4375,39.65625 C -127.68302,43.45585 -129.43236,47.592563 -130.5625,51.96875 C -130.57434,51.989388 -130.58117,52.010911 -130.59375,52.03125 C -130.91096,52.544091 -131.44914,52.962834 -132.1875,53.03125 L -141.625,53.625 C -142.59444,53.625 -143.22181,54.41305 -143.375,55.375 C -143.82608,58.624232 -143.98272,60.726147 -144,64 C -143.98272,67.273853 -143.82608,69.375768 -143.375,72.625 C -143.22181,73.586946 -142.59444,74.375 -141.625,74.375 L -132.1875,74.96875 C -131.32015,75.04912 -130.74406,75.615317 -130.46875,76.25 C -129.36552,80.393354 -127.7025,84.314208 -125.59375,87.9375 C -125.22083,88.606007 -125.21212,89.551864 -125.84375,90.3125 L -132.09375,97.40625 C -132.77925,98.091746 -132.66563,99.086477 -132.09375,99.875 C -130.11516,102.49151 -128.74024,104.11031 -126.4375,106.4375 C -124.11032,108.74024 -122.49152,110.11516 -119.875,112.09375 C -119.08648,112.66563 -118.09175,112.77925 -117.40625,112.09375 L -110.3125,105.84375 C -109.55186,105.21212 -108.60601,105.22083 -107.9375,105.59375 L -107.84375,105.5 C -104.31609,107.51717 -100.51556,109.10952 -96.499999,110.1875 L -96.499999,110.34375 C -95.763598,110.55276 -95.05997,111.20302 -94.968749,112.1875 L -94.374999,121.625 C -94.374999,122.59444 -93.586949,123.22181 -92.624999,123.375 C -89.375767,123.82608 -87.273852,123.98272 -83.999999,124 C -80.726146,123.98272 -78.624231,123.82608 -75.374999,123.375 C -74.413053,123.22181 -73.624999,122.59444 -73.624999,121.625 L -73.031249,112.1875 C -72.940025,111.20302 -72.2364,110.55276 -71.499999,110.34375 L -71.499999,110.1875 C -67.484442,109.10952 -63.683904,107.51717 -60.156249,105.5 L -60.062499,105.59375 C -59.393992,105.22083 -58.448137,105.21212 -57.687499,105.84375 L -50.593749,112.09375 C -49.908246,112.77926 -48.913512,112.66564 -48.124999,112.09375 C -45.508489,110.11516 -43.889689,108.74024 -41.562499,106.4375 C -39.259759,104.11031 -37.884839,102.49151 -35.906249,99.875 C -35.334359,99.086487 -35.220739,98.091755 -35.906249,97.40625 L -42.156249,90.3125 C -42.787879,89.55186 -42.779169,88.606007 -42.406249,87.9375 C -40.297499,84.314208 -38.634479,80.393354 -37.531249,76.25 C -37.255939,75.615317 -36.679849,75.04912 -35.812499,74.96875 L -26.374999,74.375 C -25.405549,74.375 -24.778179,73.586946 -24.624999,72.625 C -24.173919,69.375768 -24.017279,67.273853 -23.999999,64 C -24.017279,60.726147 -24.173919,58.624232 -24.624999,55.375 C -24.778179,54.41305 -25.405549,53.625 -26.374999,53.625 L -35.812499,53.03125 C -36.550859,52.962834 -37.089039,52.544091 -37.406249,52.03125 C -37.411879,52.009328 -37.431839,51.99066 -37.437499,51.96875 C -38.567639,47.592563 -40.588709,43.603839 -42.562499,39.65625 L -42.624999,39.53125 C -42.892449,38.996346 -42.629969,38.257977 -42.156249,37.6875 L -35.906249,30.59375 C -35.220739,29.908244 -35.334369,28.913516 -35.906249,28.125 C -37.884839,25.508484 -39.259759,23.88968 -41.562499,21.5625 C -43.889679,19.259753 -45.508479,17.884841 -48.124999,15.90625 C -48.913515,15.334366 -49.908243,15.220745 -50.593749,15.90625 L -57.687499,22.15625 C -58.382875,22.733685 -59.223454,22.750682 -59.874999,22.46875 C -63.477074,20.378352 -67.383162,18.761419 -71.499999,17.65625 C -71.521903,17.650033 -71.540668,17.631995 -71.562499,17.625 C -72.274606,17.39683 -72.942738,16.767694 -73.031249,15.8125 L -73.624999,6.375 C -73.624999,5.4055494 -74.413053,4.778184 -75.374999,4.625 C -78.624231,4.1739184 -80.726146,4.0172764 -83.999999,4 z M -83.999999,48 C -75.168,47.999999 -67.999999,55.168 -67.999999,64 C -68,72.832 -75.168,80 -83.999999,80 C -92.831999,80 -99.999999,72.832 -99.999999,64 C -99.999998,55.167999 -92.831998,48 -83.999999,48 z "
         style="opacity:1;fill:url(#radialGradient4925);fill-opacity:1;stroke:none;stroke-width:3;stroke-linecap:round;stroke-linejoin:round;stroke-miterlimit:4;stroke-dasharray:none;stroke-dashoffset:1.08779998;stroke-opacity:1" />
    </mask>
    <radialGradient
       r="60"
       fy="64"
       fx="-84"
       cy="64"
       cx="-84"
       gradientUnits="userSpaceOnUse"
       id="radialGradient4925"
       xlink:href="#linearGradient4913"
       inkscape:collect="always" />
    <linearGradient
       id="linearGradient10207">
      <stop
         style="stop-color:#b4b4b4;stop-opacity:1;"
         offset="0"
         id="stop10209" />
      <stop
         id="stop4937"
         offset="0.5"
         style="stop-color:#d1d1d1;stop-opacity:1;" />
      <stop
         style="stop-color:#fafafa;stop-opacity:1;"
         offset="1"
         id="stop10211" />
    </linearGradient>
    <linearGradient
       id="linearGradient4893">
      <stop
         id="stop4895"
         offset="0"
         style="stop-color:#000000;stop-opacity:0;" />
      <stop
         style="stop-color:#000000;stop-opacity:0;"
         offset="0.61052197"
         id="stop4909" />
      <stop
         style="stop-color:#000000;stop-opacity:0.37769786;"
         offset="0.68472904"
         id="stop4905" />
      <stop
         id="stop4907"
         offset="0.7499575"
         style="stop-color:#000000;stop-opacity:0;" />
      <stop
         id="stop4897"
         offset="1"
         style="stop-color:#000000;stop-opacity:0;" />
    </linearGradient>
    <linearGradient
       id="linearGradient4913"
       inkscape:collect="always">
      <stop
         id="stop4915"
         offset="0"
         style="stop-color:#ffffff;stop-opacity:1;" />
      <stop
         id="stop4917"
         offset="1"
         style="stop-color:#ffffff;stop-opacity:0;" />
    </linearGradient>
    <linearGradient
       id="linearGradient4993"
       inkscape:collect="always">
      <stop
         id="stop4995"
         offset="0"
         style="stop-color:#ffffff;stop-opacity:1;" />
      <stop
         id="stop4997"
         offset="1"
         style="stop-color:#ffffff;stop-opacity:0;" />
    </linearGradient>
    <linearGradient
       id="linearGradient3292">
      <stop
         id="stop3294"
         offset="0"
         style="stop-color:#000000;stop-opacity:1;" />
      <stop
         style="stop-color:#ffffff;stop-opacity:1;"
         offset="0.5"
         id="stop3304" />
      <stop
         id="stop3296"
         offset="1"
         style="stop-color:#ffffff;stop-opacity:1;" />
    </linearGradient>
    <linearGradient
       inkscape:collect="always"
       xlink:href="#linearGradient5055"
       id="linearGradient3916"
       gradientUnits="userSpaceOnUse"
       x1="920.03827"
       y1="700.54993"
       x2="927.0755"
       y2="701.79077" />
    <linearGradient
       inkscape:collect="always"
       xlink:href="#linearGradient5395"
       id="linearGradient3918"
       gradientUnits="userSpaceOnUse"
       gradientTransform="translate(913,684.79077)"
       x1="4.2702885"
       y1="14.550586"
       x2="14"
       y2="17" />
    <linearGradient
       inkscape:collect="always"
       xlink:href="#linearGradient5412"
       id="linearGradient3921"
       gradientUnits="userSpaceOnUse"
       x1="16"
       y1="13"
       x2="14.582785"
       y2="13" />
    <linearGradient
       inkscape:collect="always"
       xlink:href="#linearGradient4934"
       id="linearGradient3923"
       gradientUnits="userSpaceOnUse"
       gradientTransform="translate(913,684.79077)"
       x1="16.695723"
       y1="9.7224092"
       x2="10.450947"
       y2="26.879789" />
    <linearGradient
       inkscape:collect="always"
       xlink:href="#linearGradient6092"
       id="linearGradient3925"
       gradientUnits="userSpaceOnUse"
       gradientTransform="translate(1,-0.5)"
       x1="923.45856"
       y1="706.2738"
       x2="921.51862"
       y2="700.44611" />
    <linearGradient
       inkscape:collect="always"
       xlink:href="#linearGradient4495"
       id="linearGradient3927"
       gradientUnits="userSpaceOnUse"
       gradientTransform="translate(913,684.79077)"
       x1="0"
       y1="20.078125"
       x2="10.651972"
       y2="22.835848" />
    <linearGradient
       inkscape:collect="always"
       xlink:href="#linearGradient6092"
       id="linearGradient3929"
       gradientUnits="userSpaceOnUse"
       x1="921.06506"
       y1="705.59735"
       x2="918.18854"
       y2="699.71765" />
    <linearGradient
       inkscape:collect="always"
       xlink:href="#linearGradient4402"
       id="linearGradient3931"
       gradientUnits="userSpaceOnUse"
       x1="5.347352"
       y1="18.595242"
       x2="6.0377316"
       y2="23" />
    <linearGradient
       inkscape:collect="always"
       xlink:href="#linearGradient5538"
       id="linearGradient3933"
       gradientUnits="userSpaceOnUse"
       x1="5.857142"
       y1="16.482147"
       x2="7.2271466"
       y2="25.223043" />
    <linearGradient
       inkscape:collect="always"
       xlink:href="#linearGradient4783"
       id="linearGradient3935"
       gradientUnits="userSpaceOnUse"
       spreadMethod="pad"
       x1="5.7601619"
       y1="23.890432"
       x2="5.5"
       y2="20.5" />
    <linearGradient
       inkscape:collect="always"
       xlink:href="#linearGradient5841"
       id="linearGradient3937"
       gradientUnits="userSpaceOnUse"
       x1="2.9124732"
       y1="22.103046"
       x2="7.6045146"
       y2="22.103046" />
    <linearGradient
       inkscape:collect="always"
       xlink:href="#linearGradient5672"
       id="linearGradient3939"
       gradientUnits="userSpaceOnUse"
       x1="3.7142851"
       y1="21.705362"
       x2="6.5714278"
       y2="21.705362" />
    <linearGradient
       inkscape:collect="always"
       xlink:href="#linearGradient5860"
       id="linearGradient3941"
       gradientUnits="userSpaceOnUse"
       x1="5.497561"
       y1="17.875"
       x2="6.2272711"
       y2="22.013391" />
    <radialGradient
       inkscape:collect="always"
       xlink:href="#linearGradient5916"
       id="radialGradient3943"
       gradientUnits="userSpaceOnUse"
       cx="13.5"
       cy="19.5"
       fx="13.5"
       fy="19.5"
       r="0.5" />
    <radialGradient
       inkscape:collect="always"
       xlink:href="#linearGradient5916"
       id="radialGradient3945"
       gradientUnits="userSpaceOnUse"
       cx="13.5"
       cy="19.5"
       fx="13.5"
       fy="19.5"
       r="0.5" />
    <linearGradient
       inkscape:collect="always"
       xlink:href="#linearGradient5954"
       id="linearGradient3947"
       gradientUnits="userSpaceOnUse"
       gradientTransform="matrix(0.9155414,0,0,0.9155414,912.54634,686.66469)"
       x1="7.6829267"
       y1="18.470274"
       x2="6.46875"
       y2="21.592226" />
    <linearGradient
       inkscape:collect="always"
       xlink:href="#linearGradient6092"
       id="linearGradient3949"
       gradientUnits="userSpaceOnUse"
       gradientTransform="translate(1,-0.5)"
       x1="923.45856"
       y1="706.2738"
       x2="921.51862"
       y2="700.44611" />
    <linearGradient
       inkscape:collect="always"
       xlink:href="#linearGradient4783"
       id="linearGradient3951"
       gradientUnits="userSpaceOnUse"
       spreadMethod="pad"
       x1="6.3325186"
       y1="18.166855"
       x2="5.8030753"
       y2="21.503107" />
    <radialGradient
       inkscape:collect="always"
       xlink:href="#linearGradient4893"
       id="radialGradient4641"
       gradientUnits="userSpaceOnUse"
       gradientTransform="matrix(1.3581356,1.5026073,-1.6333333,1.4762927,-61.051702,-44.648234)"
       cx="-1.2494017"
       cy="23.725372"
       fx="-1.2494017"
       fy="61.40414"
       r="60" />
    <linearGradient
       inkscape:collect="always"
       xlink:href="#linearGradient5131"
       id="linearGradient4645"
       gradientUnits="userSpaceOnUse"
       gradientTransform="translate(-230.03067,40.26691)"
       x1="320.03067"
       y1="88.533089"
       x2="310.03067"
       y2="-16.466909" />
    <linearGradient
       inkscape:collect="always"
       xlink:href="#linearGradient10207"
       id="linearGradient4647"
       gradientUnits="userSpaceOnUse"
       gradientTransform="matrix(0.147541,0,0,0.1476271,913.55738,684.34785)"
       spreadMethod="reflect"
       x1="64"
       y1="81.5"
       x2="64"
       y2="12.678303" />
    <radialGradient
       inkscape:collect="always"
       xlink:href="#linearGradient4993"
       id="radialGradient4649"
       gradientUnits="userSpaceOnUse"
       gradientTransform="matrix(1,0,0,0.5780636,0,-101.84696)"
       cx="94.818924"
       cy="67.895119"
       fx="94.818924"
       fy="67.895119"
       r="43.734375" />
    <radialGradient
       inkscape:collect="always"
       xlink:href="#linearGradient4993"
       id="radialGradient4651"
       gradientUnits="userSpaceOnUse"
       gradientTransform="matrix(1,0,0,0.5780636,0,-101.84696)"
       cx="89.561417"
       cy="80.488235"
       fx="89.561417"
       fy="80.488235"
       r="43.734375" />
    <linearGradient
       inkscape:collect="always"
       xlink:href="#linearGradient3292"
       id="linearGradient4653"
       gradientUnits="userSpaceOnUse"
       x1="310.84995"
       y1="-27.656115"
       x2="310.84995"
       y2="270.16995" />
    <linearGradient
       inkscape:collect="always"
       xlink:href="#linearGradient5055"
       id="linearGradient2527"
       gradientUnits="userSpaceOnUse"
       x1="920.03827"
       y1="700.54993"
       x2="927.0755"
       y2="701.79077" />
    <linearGradient
       inkscape:collect="always"
       xlink:href="#linearGradient5395"
       id="linearGradient2529"
       gradientUnits="userSpaceOnUse"
       gradientTransform="translate(913,684.79077)"
       x1="4.2702885"
       y1="14.550586"
       x2="14"
       y2="17" />
    <linearGradient
       inkscape:collect="always"
       xlink:href="#linearGradient5412"
       id="linearGradient2531"
       gradientUnits="userSpaceOnUse"
       x1="16"
       y1="13"
       x2="14.582785"
       y2="13" />
    <linearGradient
       inkscape:collect="always"
       xlink:href="#linearGradient4934"
       id="linearGradient2533"
       gradientUnits="userSpaceOnUse"
       gradientTransform="translate(913,684.79077)"
       x1="16.695723"
       y1="9.7224092"
       x2="10.450947"
       y2="26.879789" />
    <linearGradient
       inkscape:collect="always"
       xlink:href="#linearGradient6092"
       id="linearGradient2535"
       gradientUnits="userSpaceOnUse"
       gradientTransform="translate(1,-0.5)"
       x1="923.45856"
       y1="706.2738"
       x2="921.51862"
       y2="700.44611" />
    <linearGradient
       inkscape:collect="always"
       xlink:href="#linearGradient4495"
       id="linearGradient2537"
       gradientUnits="userSpaceOnUse"
       gradientTransform="translate(913,684.79077)"
       x1="0"
       y1="20.078125"
       x2="10.651972"
       y2="22.835848" />
    <linearGradient
       inkscape:collect="always"
       xlink:href="#linearGradient6092"
       id="linearGradient2539"
       gradientUnits="userSpaceOnUse"
       x1="921.06506"
       y1="705.59735"
       x2="918.18854"
       y2="699.71765" />
    <linearGradient
       inkscape:collect="always"
       xlink:href="#linearGradient4402"
       id="linearGradient2541"
       gradientUnits="userSpaceOnUse"
       x1="5.347352"
       y1="18.595242"
       x2="6.0377316"
       y2="23" />
    <linearGradient
       inkscape:collect="always"
       xlink:href="#linearGradient5538"
       id="linearGradient2543"
       gradientUnits="userSpaceOnUse"
       x1="5.857142"
       y1="16.482147"
       x2="7.2271466"
       y2="25.223043" />
    <linearGradient
       inkscape:collect="always"
       xlink:href="#linearGradient4783"
       id="linearGradient2545"
       gradientUnits="userSpaceOnUse"
       spreadMethod="pad"
       x1="5.7601619"
       y1="23.890432"
       x2="5.5"
       y2="20.5" />
    <linearGradient
       inkscape:collect="always"
       xlink:href="#linearGradient5841"
       id="linearGradient2547"
       gradientUnits="userSpaceOnUse"
       x1="2.9124732"
       y1="22.103046"
       x2="7.6045146"
       y2="22.103046" />
    <linearGradient
       inkscape:collect="always"
       xlink:href="#linearGradient5672"
       id="linearGradient2549"
       gradientUnits="userSpaceOnUse"
       x1="3.7142851"
       y1="21.705362"
       x2="6.5714278"
       y2="21.705362" />
    <linearGradient
       inkscape:collect="always"
       xlink:href="#linearGradient5860"
       id="linearGradient2551"
       gradientUnits="userSpaceOnUse"
       x1="5.497561"
       y1="17.875"
       x2="6.2272711"
       y2="22.013391" />
    <radialGradient
       inkscape:collect="always"
       xlink:href="#linearGradient5916"
       id="radialGradient2553"
       gradientUnits="userSpaceOnUse"
       cx="13.5"
       cy="19.5"
       fx="13.5"
       fy="19.5"
       r="0.5" />
    <radialGradient
       inkscape:collect="always"
       xlink:href="#linearGradient5916"
       id="radialGradient2555"
       gradientUnits="userSpaceOnUse"
       cx="13.5"
       cy="19.5"
       fx="13.5"
       fy="19.5"
       r="0.5" />
    <linearGradient
       inkscape:collect="always"
       xlink:href="#linearGradient5954"
       id="linearGradient2557"
       gradientUnits="userSpaceOnUse"
       gradientTransform="matrix(0.9155414,0,0,0.9155414,912.54634,686.66469)"
       x1="7.6829267"
       y1="18.470274"
       x2="6.46875"
       y2="21.592226" />
    <linearGradient
       inkscape:collect="always"
       xlink:href="#linearGradient6092"
       id="linearGradient2559"
       gradientUnits="userSpaceOnUse"
       gradientTransform="translate(1,-0.5)"
       x1="923.45856"
       y1="706.2738"
       x2="921.51862"
       y2="700.44611" />
    <linearGradient
       inkscape:collect="always"
       xlink:href="#linearGradient4783"
       id="linearGradient2561"
       gradientUnits="userSpaceOnUse"
       spreadMethod="pad"
       x1="6.3325186"
       y1="18.166855"
       x2="5.8030753"
       y2="21.503107" />
  </defs>
  <sodipodi:namedview
     id="base"
     pagecolor="#ffffff"
     bordercolor="#666666"
     borderopacity="1.0"
     gridtolerance="10000"
     guidetolerance="10"
     objecttolerance="10"
     inkscape:pageopacity="0.0"
     inkscape:pageshadow="2"
     inkscape:zoom="28"
     inkscape:cx="11"
     inkscape:cy="11"
     inkscape:document-units="px"
     inkscape:current-layer="layer1"
     showgrid="true"
     inkscape:snap-bbox="true"
     showborder="false">
    <inkscape:grid
       type="xygrid"
       id="grid2347"
       empspacing="2" />
  </sodipodi:namedview>
  <metadata
     id="metadata7">
    <rdf:RDF>
      <cc:Work
         rdf:about="">
        <dc:format>image/svg+xml</dc:format>
        <dc:type
           rdf:resource="http://purl.org/dc/dcmitype/StillImage" />
      </cc:Work>
    </rdf:RDF>
  </metadata>
  <g
     inkscape:label="Layer 1"
     inkscape:groupmode="layer"
     id="layer1"
     transform="translate(-912,-684.79077)">
    <g
       id="g4629"
       transform="translate(0,0.35241)">
      <path
         mask="none"
         style="opacity:0.34285715;fill:#363636;fill-opacity:1;stroke:#767676;stroke-width:0.29499999;stroke-linecap:round;stroke-linejoin:round;stroke-miterlimit:4;stroke-dasharray:none;stroke-dashoffset:1.08779998;stroke-opacity:1"
         d="M 923,684.93836 C 922.51698,684.94091 922.20686,684.96403 921.72746,685.03063 C 921.58554,685.05324 921.46927,685.14586 921.46927,685.28897 L 921.38166,686.6822 C 921.36861,686.82322 921.27003,686.91609 921.16496,686.94978 C 921.16174,686.95081 921.15897,686.95347 921.15574,686.95439 C 920.54834,687.11754 919.97203,687.35625 919.44058,687.66485 C 919.34445,687.70647 919.22043,687.70396 919.11783,687.61871 L 918.07121,686.69604 C 917.97007,686.59485 917.82331,686.61162 917.70697,686.69604 C 917.32093,686.98814 917.08209,687.19111 916.73873,687.53106 C 916.39898,687.87461 916.19613,688.11359 915.9042,688.49986 C 915.81983,688.61627 915.80307,688.76312 915.9042,688.86432 L 916.82634,689.91155 C 916.89623,689.99576 916.93496,690.10477 916.8955,690.18373 L 916.88627,690.20219 C 916.55497,690.76311 916.29687,691.3738 916.13013,692.01985 C 916.12838,692.02289 916.12737,692.02607 916.12552,692.02907 C 916.07871,692.10478 915.99931,692.1666 915.89037,692.1767 L 914.49795,692.26435 C 914.35492,692.26435 914.26236,692.38069 914.23976,692.5227 C 914.1732,693.00238 914.15009,693.31268 914.14754,693.79598 C 914.15009,694.27929 914.1732,694.58959 914.23976,695.06927 C 914.26236,695.21128 914.35492,695.32762 914.49795,695.32762 L 915.89037,695.41527 C 916.01834,695.42713 916.10334,695.51072 916.14396,695.60442 C 916.30673,696.21609 916.55209,696.79491 916.86322,697.32981 C 916.91824,697.4285 916.91953,697.56813 916.82634,697.68042 L 915.9042,698.72765 C 915.80307,698.82885 915.81983,698.9757 915.9042,699.09211 C 916.19613,699.47837 916.39898,699.71735 916.73873,700.06091 C 917.08209,700.40086 917.32093,700.60383 917.70697,700.89593 C 917.82331,700.98035 917.97007,700.99712 918.07121,700.89593 L 919.11783,699.97326 C 919.23006,699.88001 919.36961,699.8813 919.46824,699.93635 L 919.48207,699.92251 C 920.00255,700.2203 920.56328,700.45537 921.15574,700.61451 L 921.15574,700.63758 C 921.26439,700.66843 921.36821,700.76443 921.38166,700.90977 L 921.46927,702.303 C 921.46927,702.44611 921.58554,702.53873 921.72746,702.56134 C 922.20686,702.62794 922.51698,702.65106 923,702.65361 C 923.48303,702.65106 923.79315,702.62794 924.27255,702.56134 C 924.41447,702.53873 924.53074,702.44611 924.53074,702.303 L 924.61834,700.90977 C 924.6318,700.76443 924.73562,700.66843 924.84427,700.63758 L 924.84427,700.61451 C 925.43673,700.45537 925.99746,700.2203 926.51794,699.92251 L 926.53177,699.93635 C 926.6304,699.8813 926.76995,699.88001 926.88218,699.97326 L 927.9288,700.89593 C 928.02993,700.99713 928.1767,700.98035 928.29304,700.89593 C 928.67908,700.60383 928.91792,700.40086 929.26128,700.06091 C 929.60102,699.71735 929.80388,699.47837 930.0958,699.09211 C 930.18018,698.9757 930.19694,698.82885 930.0958,698.72765 L 929.17367,697.68042 C 929.08048,697.56813 929.08177,697.4285 929.13679,697.32981 C 929.44791,696.79491 929.69328,696.21609 929.85605,695.60442 C 929.89667,695.51072 929.98167,695.42713 930.10964,695.41527 L 931.50205,695.32762 C 931.64509,695.32762 931.73765,695.21128 931.76025,695.06927 C 931.8268,694.58959 931.84991,694.27929 931.85246,693.79598 C 931.84991,693.31268 931.8268,693.00238 931.76025,692.5227 C 931.73765,692.38069 931.64509,692.26435 931.50205,692.26435 L 930.10964,692.1767 C 930.0007,692.1666 929.92129,692.10478 929.87449,692.02907 C 929.87366,692.02584 929.87072,692.02308 929.86988,692.01985 C 929.70314,691.3738 929.40495,690.78496 929.11373,690.20219 L 929.10451,690.18373 C 929.06505,690.10477 929.10378,689.99576 929.17367,689.91155 L 930.0958,688.86432 C 930.19694,688.76312 930.18018,688.61627 930.0958,688.49986 C 929.80388,688.11359 929.60102,687.87461 929.26128,687.53106 C 928.91792,687.19111 928.67908,686.98814 928.29304,686.69604 C 928.1767,686.61162 928.02994,686.59484 927.9288,686.69604 L 926.88218,687.61871 C 926.77958,687.70396 926.65556,687.70647 926.55943,687.66485 C 926.02798,687.35625 925.45167,687.11754 924.84427,686.95439 C 924.84104,686.95347 924.83827,686.95081 924.83505,686.94978 C 924.72998,686.91609 924.6314,686.82322 924.61834,686.6822 L 924.53074,685.28897 C 924.53074,685.14586 924.41447,685.05324 924.27255,685.03063 C 923.79315,684.96403 923.48303,684.94091 923,684.93836 z M 923,691.43395 C 924.30309,691.43395 925.36066,692.49214 925.36066,693.79598 C 925.36066,695.09983 924.30309,696.15802 923,696.15802 C 921.69692,696.15802 920.63935,695.09983 920.63935,693.79598 C 920.63935,692.49214 921.69692,691.43395 923,691.43395 z"
         id="path5091"
         sodipodi:nodetypes="ccccssccccccccsccscccccccccccccccccccccccccccccccccccccccccccccccssssccccccccsscccccsssc" />
      <path
         transform="matrix(0.147541,0,0,0.1476271,913.55738,684.34785)"
         mask="none"
         style="fill:none;fill-opacity:1;stroke:url(#linearGradient4645);stroke-width:1;stroke-linecap:round;stroke-linejoin:round;stroke-miterlimit:4;stroke-dasharray:none;stroke-dashoffset:1.08779998;stroke-opacity:1"
         d="M 63.969328,4.76691 C 60.695478,4.78419 58.593558,4.94083 55.344328,5.39191 C 54.382378,5.54509 53.594328,6.17246 53.594328,7.14191 L 53.000578,16.57941 C 52.912068,17.5346 52.243938,18.16374 51.531828,18.39191 C 51.509998,18.39891 51.491228,18.41694 51.469328,18.42316 C 47.352488,19.52833 43.446398,21.14526 39.844328,23.23566 C 39.192778,23.51759 38.352198,23.5006 37.656828,22.92316 L 30.563078,16.67316 C 29.877578,15.98766 28.882848,16.10128 28.094328,16.67316 C 25.477818,18.65175 23.859008,20.02666 21.531828,22.32941 C 19.229088,24.65659 17.854168,26.27539 15.875578,28.89191 C 15.303698,29.68043 15.190078,30.67516 15.875578,31.36066 L 22.125578,38.45441 C 22.599298,39.02489 22.861778,39.76326 22.594328,40.29816 L 22.531828,40.42316 C 20.286308,44.22276 18.536968,48.359475 17.406828,52.735665 C 17.394988,52.756303 17.388158,52.777826 17.375578,52.798165 C 17.058368,53.311006 16.520188,53.729749 15.781828,53.798165 L 6.3443277,54.391915 C 5.3748876,54.391915 4.7475176,55.179965 4.5943276,56.141915 C 4.1432476,59.391147 3.9866076,61.493062 3.9693276,64.766915 C 3.9866076,68.040768 4.1432476,70.142683 4.5943276,73.391915 C 4.7475176,74.353861 5.3748876,75.141915 6.3443277,75.141915 L 15.781828,75.735665 C 16.649178,75.816035 17.225268,76.382232 17.500578,77.016915 C 18.603808,81.160269 20.266828,85.081123 22.375578,88.704415 C 22.748498,89.372922 22.757208,90.318779 22.125578,91.079415 L 15.875578,98.173165 C 15.190078,98.858661 15.303698,99.85339 15.875578,100.64192 C 17.854168,103.25843 19.229088,104.87723 21.531828,107.20442 C 23.859008,109.50716 25.477808,110.88208 28.094328,112.86067 C 28.882848,113.43255 29.877578,113.54617 30.563078,112.86067 L 37.656828,106.61067 C 38.417468,105.97904 39.363318,105.98775 40.031828,106.36067 L 40.125578,106.26692 C 43.653238,108.28409 47.453768,109.87644 51.469328,110.95442 L 51.469328,111.11067 C 52.205728,111.31968 52.909358,111.96994 53.000578,112.95442 L 53.594328,122.39192 C 53.594328,123.36136 54.382378,123.98873 55.344328,124.14192 C 58.593558,124.593 60.695478,124.74964 63.969328,124.76692 C 67.243178,124.74964 69.345098,124.593 72.594328,124.14192 C 73.556278,123.98873 74.344328,123.36136 74.344328,122.39192 L 74.938078,112.95442 C 75.029298,111.96994 75.732928,111.31968 76.469328,111.11067 L 76.469328,110.95442 C 80.484888,109.87644 84.285428,108.28409 87.813078,106.26692 L 87.906828,106.36067 C 88.575338,105.98775 89.521188,105.97904 90.281828,106.61067 L 97.375578,112.86067 C 98.061078,113.54618 99.055818,113.43256 99.844328,112.86067 C 102.46084,110.88208 104.07964,109.50716 106.40683,107.20442 C 108.70957,104.87723 110.08449,103.25843 112.06308,100.64192 C 112.63497,99.8534 112.74859,98.85867 112.06308,98.173165 L 105.81308,91.079415 C 105.18145,90.318775 105.19016,89.372922 105.56308,88.704415 C 107.67183,85.081123 109.33485,81.160269 110.43808,77.016915 C 110.71339,76.382232 111.28948,75.816035 112.15683,75.735665 L 121.59433,75.141915 C 122.56378,75.141915 123.19115,74.353861 123.34433,73.391915 C 123.79541,70.142683 123.95205,68.040768 123.96933,64.766915 C 123.95205,61.493062 123.79541,59.391147 123.34433,56.141915 C 123.19115,55.179965 122.56378,54.391915 121.59433,54.391915 L 112.15683,53.798165 C 111.41847,53.729749 110.88029,53.311006 110.56308,52.798165 C 110.55745,52.776243 110.53749,52.757575 110.53183,52.735665 C 109.40169,48.359475 107.38062,44.370755 105.40683,40.42316 L 105.34433,40.29816 C 105.07688,39.76326 105.33936,39.02489 105.81308,38.45441 L 112.06308,31.36066 C 112.74859,30.67515 112.63496,29.68043 112.06308,28.89191 C 110.08449,26.27539 108.70957,24.65659 106.40683,22.32941 C 104.07965,20.02666 102.46085,18.65175 99.844328,16.67316 C 99.055808,16.10128 98.061088,15.98765 97.375578,16.67316 L 90.281828,22.92316 C 89.586448,23.5006 88.745878,23.51759 88.094328,23.23566 C 84.492258,21.14526 80.586168,19.52833 76.469328,18.42316 C 76.447428,18.41694 76.428658,18.39891 76.406828,18.39191 C 75.694718,18.16374 75.026588,17.5346 74.938078,16.57941 L 74.344328,7.14191 C 74.344328,6.17246 73.556278,5.54509 72.594328,5.39191 C 69.345098,4.94083 67.243178,4.78419 63.969328,4.76691 z"
         id="path6428"
         sodipodi:nodetypes="ccccssccccccccsccscccccccccccccccccccccccccccccccccccccccccccccccssssccccccccsscccc" />
      <path
         sodipodi:nodetypes="ccccssccccccccsccscccccccccccccccccccccccccccccccccccccccccccccccssssccccccccsscccccsssc"
         id="path3139"
         d="M 923,684.93836 C 922.51698,684.94091 922.20686,684.96403 921.72746,685.03063 C 921.58554,685.05324 921.46927,685.14586 921.46927,685.28897 L 921.38166,686.6822 C 921.36861,686.82322 921.27003,686.91609 921.16496,686.94978 C 921.16174,686.95081 921.15897,686.95347 921.15574,686.95439 C 920.54834,687.11754 919.97203,687.35625 919.44058,687.66485 C 919.34445,687.70647 919.22043,687.70396 919.11783,687.61871 L 918.07121,686.69604 C 917.97007,686.59485 917.82331,686.61162 917.70697,686.69604 C 917.32093,686.98814 917.08209,687.19111 916.73873,687.53106 C 916.39898,687.87461 916.19613,688.11359 915.9042,688.49986 C 915.81983,688.61627 915.80307,688.76312 915.9042,688.86432 L 916.82634,689.91155 C 916.89623,689.99576 916.93496,690.10477 916.8955,690.18373 L 916.88627,690.20219 C 916.55497,690.76311 916.29687,691.3738 916.13013,692.01985 C 916.12838,692.02289 916.12737,692.02607 916.12552,692.02907 C 916.07871,692.10478 915.99931,692.1666 915.89037,692.1767 L 914.49795,692.26435 C 914.35492,692.26435 914.26236,692.38069 914.23976,692.5227 C 914.1732,693.00238 914.15009,693.31268 914.14754,693.79598 C 914.15009,694.27929 914.1732,694.58959 914.23976,695.06927 C 914.26236,695.21128 914.35492,695.32762 914.49795,695.32762 L 915.89037,695.41527 C 916.01834,695.42713 916.10334,695.51072 916.14396,695.60442 C 916.30673,696.21609 916.55209,696.79491 916.86322,697.32981 C 916.91824,697.4285 916.91953,697.56813 916.82634,697.68042 L 915.9042,698.72765 C 915.80307,698.82885 915.81983,698.9757 915.9042,699.09211 C 916.19613,699.47837 916.39898,699.71735 916.73873,700.06091 C 917.08209,700.40086 917.32093,700.60383 917.70697,700.89593 C 917.82331,700.98035 917.97007,700.99712 918.07121,700.89593 L 919.11783,699.97326 C 919.23006,699.88001 919.36961,699.8813 919.46824,699.93635 L 919.48207,699.92251 C 920.00255,700.2203 920.56328,700.45537 921.15574,700.61451 L 921.15574,700.63758 C 921.26439,700.66843 921.36821,700.76443 921.38166,700.90977 L 921.46927,702.303 C 921.46927,702.44611 921.58554,702.53873 921.72746,702.56134 C 922.20686,702.62794 922.51698,702.65106 923,702.65361 C 923.48303,702.65106 923.79315,702.62794 924.27255,702.56134 C 924.41447,702.53873 924.53074,702.44611 924.53074,702.303 L 924.61834,700.90977 C 924.6318,700.76443 924.73562,700.66843 924.84427,700.63758 L 924.84427,700.61451 C 925.43673,700.45537 925.99746,700.2203 926.51794,699.92251 L 926.53177,699.93635 C 926.6304,699.8813 926.76995,699.88001 926.88218,699.97326 L 927.9288,700.89593 C 928.02994,700.99713 928.1767,700.98035 928.29304,700.89593 C 928.67908,700.60383 928.91792,700.40086 929.26128,700.06091 C 929.60102,699.71735 929.80388,699.47837 930.0958,699.09211 C 930.18018,698.9757 930.19694,698.82885 930.0958,698.72765 L 929.17367,697.68042 C 929.08048,697.56813 929.08177,697.4285 929.13679,697.32981 C 929.44791,696.79491 929.69328,696.21609 929.85605,695.60442 C 929.89667,695.51072 929.98167,695.42713 930.10964,695.41527 L 931.50205,695.32762 C 931.64509,695.32762 931.73765,695.21128 931.76025,695.06927 C 931.8268,694.58959 931.84991,694.27929 931.85246,693.79598 C 931.84991,693.31268 931.8268,693.00238 931.76025,692.5227 C 931.73765,692.38069 931.64509,692.26435 931.50205,692.26435 L 930.10964,692.1767 C 930.0007,692.1666 929.92129,692.10478 929.87449,692.02907 C 929.87366,692.02584 929.87072,692.02308 929.86988,692.01985 C 929.70314,691.3738 929.40495,690.78496 929.11373,690.20219 L 929.10451,690.18373 C 929.06505,690.10477 929.10378,689.99576 929.17367,689.91155 L 930.0958,688.86432 C 930.19694,688.76312 930.18018,688.61627 930.0958,688.49986 C 929.80388,688.11359 929.60102,687.87461 929.26128,687.53106 C 928.91792,687.19111 928.67908,686.98814 928.29304,686.69604 C 928.1767,686.61162 928.02994,686.59485 927.9288,686.69604 L 926.88218,687.61871 C 926.77958,687.70396 926.65556,687.70647 926.55943,687.66485 C 926.02798,687.35625 925.45167,687.11754 924.84427,686.95439 C 924.84104,686.95347 924.83827,686.95081 924.83505,686.94978 C 924.72998,686.91609 924.6314,686.82322 924.61834,686.6822 L 924.53074,685.28897 C 924.53074,685.14586 924.41447,685.05324 924.27255,685.03063 C 923.79315,684.96403 923.48303,684.94091 923,684.93836 z M 923,691.43395 C 924.30309,691.43395 925.36066,692.49214 925.36066,693.79598 C 925.36066,695.09983 924.30309,696.15802 923,696.15802 C 921.69692,696.15802 920.63935,695.09983 920.63935,693.79598 C 920.63935,692.49214 921.69692,691.43395 923,691.43395 z"
         style="fill:url(#linearGradient4647);fill-opacity:1;stroke:none;stroke-width:3;stroke-linecap:round;stroke-linejoin:round;stroke-miterlimit:4;stroke-dasharray:none;stroke-dashoffset:1.08779998;stroke-opacity:1" />
      <path
         transform="matrix(0.147541,0,0,0.1476271,935.39345,684.34785)"
         mask="url(#mask4921)"
         style="fill:url(#radialGradient4641);fill-opacity:1;stroke:none;stroke-width:3;stroke-linecap:round;stroke-linejoin:round;stroke-miterlimit:4;stroke-dasharray:none;stroke-dashoffset:1.08779998;stroke-opacity:1"
         d="M -83.999999,4 C -87.273852,4.0172764 -89.375767,4.1739184 -92.624999,4.625 C -93.586949,4.778184 -94.374999,5.4055494 -94.374999,6.375 L -94.968749,15.8125 C -95.057257,16.767694 -95.725392,17.39683 -96.437499,17.625 C -96.45933,17.631995 -96.478095,17.650033 -96.499999,17.65625 C -100.61684,18.761419 -104.52293,20.378352 -108.125,22.46875 C -108.77655,22.750681 -109.61713,22.733687 -110.3125,22.15625 L -117.40625,15.90625 C -118.09175,15.220752 -119.08648,15.33437 -119.875,15.90625 C -122.49151,17.884842 -124.11032,19.259755 -126.4375,21.5625 C -128.74024,23.889683 -130.11516,25.508484 -132.09375,28.125 C -132.66563,28.913521 -132.77925,29.908252 -132.09375,30.59375 L -125.84375,37.6875 C -125.37003,38.257979 -125.10755,38.996346 -125.375,39.53125 L -125.4375,39.65625 C -127.68302,43.45585 -129.43236,47.592563 -130.5625,51.96875 C -130.57434,51.989388 -130.58117,52.010911 -130.59375,52.03125 C -130.91096,52.544091 -131.44914,52.962834 -132.1875,53.03125 L -141.625,53.625 C -142.59444,53.625 -143.22181,54.41305 -143.375,55.375 C -143.82608,58.624232 -143.98272,60.726147 -144,64 C -143.98272,67.273853 -143.82608,69.375768 -143.375,72.625 C -143.22181,73.586946 -142.59444,74.375 -141.625,74.375 L -132.1875,74.96875 C -131.32015,75.04912 -130.74406,75.615317 -130.46875,76.25 C -129.36552,80.393354 -127.7025,84.314208 -125.59375,87.9375 C -125.22083,88.606007 -125.21212,89.551864 -125.84375,90.3125 L -132.09375,97.40625 C -132.77925,98.091746 -132.66563,99.086477 -132.09375,99.875 C -130.11516,102.49151 -128.74024,104.11031 -126.4375,106.4375 C -124.11032,108.74024 -122.49152,110.11516 -119.875,112.09375 C -119.08648,112.66563 -118.09175,112.77925 -117.40625,112.09375 L -110.3125,105.84375 C -109.55186,105.21212 -108.60601,105.22083 -107.9375,105.59375 L -107.84375,105.5 C -104.31609,107.51717 -100.51556,109.10952 -96.499999,110.1875 L -96.499999,110.34375 C -95.763598,110.55276 -95.05997,111.20302 -94.968749,112.1875 L -94.374999,121.625 C -94.374999,122.59444 -93.586949,123.22181 -92.624999,123.375 C -89.375767,123.82608 -87.273852,123.98272 -83.999999,124 C -80.726146,123.98272 -78.624231,123.82608 -75.374999,123.375 C -74.413053,123.22181 -73.624999,122.59444 -73.624999,121.625 L -73.031249,112.1875 C -72.940025,111.20302 -72.2364,110.55276 -71.499999,110.34375 L -71.499999,110.1875 C -67.484442,109.10952 -63.683904,107.51717 -60.156249,105.5 L -60.062499,105.59375 C -59.393992,105.22083 -58.448137,105.21212 -57.687499,105.84375 L -50.593749,112.09375 C -49.908246,112.77926 -48.913512,112.66564 -48.124999,112.09375 C -45.508489,110.11516 -43.889689,108.74024 -41.562499,106.4375 C -39.259759,104.11031 -37.884839,102.49151 -35.906249,99.875 C -35.334359,99.086487 -35.220739,98.091755 -35.906249,97.40625 L -42.156249,90.3125 C -42.787879,89.55186 -42.779169,88.606007 -42.406249,87.9375 C -40.297499,84.314208 -38.634479,80.393354 -37.531249,76.25 C -37.255939,75.615317 -36.679849,75.04912 -35.812499,74.96875 L -26.374999,74.375 C -25.405549,74.375 -24.778179,73.586946 -24.624999,72.625 C -24.173919,69.375768 -24.017279,67.273853 -23.999999,64 C -24.017279,60.726147 -24.173919,58.624232 -24.624999,55.375 C -24.778179,54.41305 -25.405549,53.625 -26.374999,53.625 L -35.812499,53.03125 C -36.550859,52.962834 -37.089039,52.544091 -37.406249,52.03125 C -37.411879,52.009328 -37.431839,51.99066 -37.437499,51.96875 C -38.567639,47.592563 -40.588709,43.603839 -42.562499,39.65625 L -42.624999,39.53125 C -42.892449,38.996346 -42.629969,38.257977 -42.156249,37.6875 L -35.906249,30.59375 C -35.220739,29.908244 -35.334369,28.913516 -35.906249,28.125 C -37.884839,25.508484 -39.259759,23.88968 -41.562499,21.5625 C -43.889679,19.259753 -45.508479,17.884841 -48.124999,15.90625 C -48.913515,15.334366 -49.908243,15.220745 -50.593749,15.90625 L -57.687499,22.15625 C -58.382875,22.733685 -59.223454,22.750682 -59.874999,22.46875 C -63.477074,20.378352 -67.383162,18.761419 -71.499999,17.65625 C -71.521903,17.650033 -71.540668,17.631995 -71.562499,17.625 C -72.274606,17.39683 -72.942738,16.767694 -73.031249,15.8125 L -73.624999,6.375 C -73.624999,5.4055494 -74.413053,4.778184 -75.374999,4.625 C -78.624231,4.1739184 -80.726146,4.0172764 -83.999999,4 z M -83.999999,48 C -75.168,47.999999 -67.999999,55.168 -67.999999,64 C -68,72.832 -75.168,80 -83.999999,80 C -92.831999,80 -99.999999,72.832 -99.999999,64 C -99.999998,55.167999 -92.831998,48 -83.999999,48 z"
         id="path4891"
         sodipodi:nodetypes="ccccssccccccccsccscccccccccccccccccccccccccccccccccccccccccccccccssssccccccccsscccccsssc" />
      <path
         transform="matrix(0.147541,0,0,0.1476271,913.55738,705.53234)"
         id="path4953"
         d="M 76.90625,-70.062499 C 73.993994,-66.090403 69.299199,-63.499999 64,-63.499999 C 59.104212,-63.499999 54.716932,-65.68865 51.78125,-69.156249 L 20.28125,-38.406249 C 20.690082,-37.972249 21.088367,-37.541669 21.5625,-37.062499 C 23.88968,-34.759759 25.50848,-33.384839 28.125,-31.406249 C 28.91352,-30.834369 29.90825,-30.720749 30.59375,-31.406249 L 37.6875,-37.656249 C 38.44814,-38.287879 39.39399,-38.279169 40.0625,-37.906249 L 40.15625,-37.999999 C 43.68391,-35.982829 47.484439,-34.390479 51.5,-33.312499 L 51.5,-33.156249 C 52.236402,-32.947239 52.940029,-32.296979 53.03125,-31.312499 L 53.625,-21.874999 C 53.625001,-20.905559 54.41305,-20.278189 55.375,-20.124999 C 58.624233,-19.673919 60.726147,-19.517279 64,-19.499999 C 67.273854,-19.517279 69.375768,-19.673919 72.625,-20.124999 C 73.586947,-20.278189 74.375,-20.905559 74.375,-21.874999 L 74.96875,-31.312499 C 75.059975,-32.296979 75.763599,-32.947239 76.5,-33.156249 L 76.5,-33.312499 C 80.515558,-34.390479 84.316095,-35.982829 87.84375,-37.999999 L 87.9375,-37.906249 C 88.606008,-38.279169 89.551862,-38.287879 90.3125,-37.656249 L 97.40625,-31.406249 C 98.091754,-30.720739 99.086487,-30.834359 99.875,-31.406249 C 102.49151,-33.384839 104.11031,-34.759759 106.4375,-37.062499 C 106.92292,-37.553069 107.3327,-37.993909 107.75,-38.437499 L 76.90625,-70.062499 z"
         clip-path="url(#clipPath5073)"
         mask="none"
         style="opacity:0.95923911;fill:url(#radialGradient4649);fill-opacity:1;stroke:none;stroke-width:3;stroke-linecap:round;stroke-linejoin:round;stroke-miterlimit:4;stroke-dasharray:none;stroke-dashoffset:1.08779998;stroke-opacity:1" />
      <path
         transform="matrix(-0.147541,0,0,-0.1476271,932.44072,682.06088)"
         style="opacity:0.9918478;fill:url(#radialGradient4651);fill-opacity:1;stroke:none;stroke-width:3;stroke-linecap:round;stroke-linejoin:round;stroke-miterlimit:4;stroke-dasharray:none;stroke-dashoffset:1.08779998;stroke-opacity:1"
         mask="none"
         clip-path="url(#clipPath5073)"
         d="M 76.90625,-70.062499 C 73.993994,-66.090403 69.299199,-63.499999 64,-63.499999 C 59.104212,-63.499999 54.716932,-65.68865 51.78125,-69.156249 L 20.28125,-38.406249 C 20.690082,-37.972249 21.088367,-37.541669 21.5625,-37.062499 C 23.88968,-34.759759 25.50848,-33.384839 28.125,-31.406249 C 28.91352,-30.834369 29.90825,-30.720749 30.59375,-31.406249 L 37.6875,-37.656249 C 38.44814,-38.287879 39.39399,-38.279169 40.0625,-37.906249 L 40.15625,-37.999999 C 43.68391,-35.982829 47.484439,-34.390479 51.5,-33.312499 L 51.5,-33.156249 C 52.236402,-32.947239 52.940029,-32.296979 53.03125,-31.312499 L 53.625,-21.874999 C 53.625001,-20.905559 54.41305,-20.278189 55.375,-20.124999 C 58.624233,-19.673919 60.726147,-19.517279 64,-19.499999 C 67.273854,-19.517279 69.375768,-19.673919 72.625,-20.124999 C 73.586947,-20.278189 74.375,-20.905559 74.375,-21.874999 L 74.96875,-31.312499 C 75.059975,-32.296979 75.763599,-32.947239 76.5,-33.156249 L 76.5,-33.312499 C 80.515558,-34.390479 84.316095,-35.982829 87.84375,-37.999999 L 87.9375,-37.906249 C 88.606008,-38.279169 89.551862,-38.287879 90.3125,-37.656249 L 97.40625,-31.406249 C 98.091754,-30.720739 99.086487,-30.834359 99.875,-31.406249 C 102.49151,-33.384839 104.11031,-34.759759 106.4375,-37.062499 C 106.92292,-37.553069 107.3327,-37.993909 107.75,-38.437499 L 76.90625,-70.062499 z"
         id="path5079" />
      <path
         sodipodi:type="arc"
         style="fill:none;fill-opacity:0.07755103;stroke:url(#linearGradient4653);stroke-width:1.69717801;stroke-linecap:round;stroke-linejoin:round;stroke-miterlimit:4;stroke-dasharray:none;stroke-dashoffset:1.08779998;stroke-opacity:1"
         id="path3300"
         sodipodi:cx="310.84995"
         sodipodi:cy="108.83997"
         sodipodi:rx="55.192307"
         sodipodi:ry="55.192307"
         d="M 366.04225,108.83997 A 55.192307,55.192307 0 1 1 255.65764,108.83997 A 55.192307,55.192307 0 1 1 366.04225,108.83997 z"
         transform="matrix(8.6933134e-2,0,0,8.6983866e-2,895.97684,684.32866)" />
      <path
         transform="matrix(0.147541,0,0,0.1476271,913.55738,684.34785)"
         id="path3326"
         d="M 64,31.46875 C 46.048934,31.46875 31.468751,46.048934 31.46875,64 C 31.46875,81.951066 46.048937,96.531253 64,96.53125 C 81.951066,96.53125 96.53125,81.951065 96.53125,64 C 96.53125,46.048934 81.951069,31.468751 64,31.46875 z M 64,49.40625 C 72.050642,49.40625 78.59375,55.949358 78.59375,64 C 78.59375,72.050642 72.050642,78.59375 64,78.59375 C 55.949358,78.59375 49.40625,72.050642 49.40625,64 C 49.40625,55.949358 55.949358,49.40625 64,49.40625 z"
         style="fill:#343434;fill-opacity:0.07755103;stroke:none;stroke-width:1;stroke-linecap:round;stroke-linejoin:round;stroke-miterlimit:4;stroke-dasharray:none;stroke-dashoffset:1.08779998;stroke-opacity:1" />
      <path
         sodipodi:nodetypes="ccccssccccccccsccscccccccccccccccccccccccccccccccccccccccccccccccssssccccccccsscccccsssc"
         id="path4643"
         d="M 923,684.93836 C 922.51698,684.94091 922.20686,684.96403 921.72746,685.03063 C 921.58554,685.05324 921.46927,685.14586 921.46927,685.28897 L 921.38166,686.6822 C 921.36861,686.82322 921.27003,686.91609 921.16496,686.94978 C 921.16174,686.95081 921.15897,686.95347 921.15574,686.95439 C 920.54834,687.11754 919.97203,687.35625 919.44058,687.66485 C 919.34445,687.70647 919.22043,687.70396 919.11783,687.61871 L 918.07121,686.69604 C 917.97007,686.59485 917.82331,686.61162 917.70697,686.69604 C 917.32093,686.98814 917.08209,687.19111 916.73873,687.53106 C 916.39898,687.87461 916.19613,688.11359 915.9042,688.49986 C 915.81983,688.61627 915.80307,688.76312 915.9042,688.86432 L 916.82634,689.91155 C 916.89623,689.99576 916.93496,690.10477 916.8955,690.18373 L 916.88627,690.20219 C 916.55497,690.76311 916.29687,691.3738 916.13013,692.01985 C 916.12838,692.02289 916.12737,692.02607 916.12552,692.02907 C 916.07871,692.10478 915.99931,692.1666 915.89037,692.1767 L 914.49795,692.26435 C 914.35492,692.26435 914.26236,692.38069 914.23976,692.5227 C 914.1732,693.00238 914.15009,693.31268 914.14754,693.79598 C 914.15009,694.27929 914.1732,694.58959 914.23976,695.06927 C 914.26236,695.21128 914.35492,695.32762 914.49795,695.32762 L 915.89037,695.41527 C 916.01834,695.42713 916.10334,695.51072 916.14396,695.60442 C 916.30673,696.21609 916.55209,696.79491 916.86322,697.32981 C 916.91824,697.4285 916.91953,697.56813 916.82634,697.68042 L 915.9042,698.72765 C 915.80307,698.82885 915.81983,698.9757 915.9042,699.09211 C 916.19613,699.47837 916.39898,699.71735 916.73873,700.06091 C 917.08209,700.40086 917.32093,700.60383 917.70697,700.89593 C 917.82331,700.98035 917.97007,700.99712 918.07121,700.89593 L 919.11783,699.97326 C 919.23006,699.88001 919.36961,699.8813 919.46824,699.93635 L 919.48207,699.92251 C 920.00255,700.2203 920.56328,700.45537 921.15574,700.61451 L 921.15574,700.63758 C 921.26439,700.66843 921.36821,700.76443 921.38166,700.90977 L 921.46927,702.303 C 921.46927,702.44611 921.58554,702.53873 921.72746,702.56134 C 922.20686,702.62794 922.51698,702.65106 923,702.65361 C 923.48303,702.65106 923.79315,702.62794 924.27255,702.56134 C 924.41447,702.53873 924.53074,702.44611 924.53074,702.303 L 924.61834,700.90977 C 924.6318,700.76443 924.73562,700.66843 924.84427,700.63758 L 924.84427,700.61451 C 925.43673,700.45537 925.99746,700.2203 926.51794,699.92251 L 926.53177,699.93635 C 926.6304,699.8813 926.76995,699.88001 926.88218,699.97326 L 927.9288,700.89593 C 928.02993,700.99713 928.1767,700.98035 928.29304,700.89593 C 928.67908,700.60383 928.91792,700.40086 929.26128,700.06091 C 929.60102,699.71735 929.80388,699.47837 930.0958,699.09211 C 930.18018,698.9757 930.19694,698.82885 930.0958,698.72765 L 929.17367,697.68042 C 929.08048,697.56813 929.08177,697.4285 929.13679,697.32981 C 929.44791,696.79491 929.69328,696.21609 929.85605,695.60442 C 929.89667,695.51072 929.98167,695.42713 930.10964,695.41527 L 931.50205,695.32762 C 931.64509,695.32762 931.73765,695.21128 931.76025,695.06927 C 931.8268,694.58959 931.84991,694.27929 931.85246,693.79598 C 931.84991,693.31268 931.8268,693.00238 931.76025,692.5227 C 931.73765,692.38069 931.64509,692.26435 931.50205,692.26435 L 930.10964,692.1767 C 930.0007,692.1666 929.92129,692.10478 929.87449,692.02907 C 929.87366,692.02584 929.87072,692.02308 929.86988,692.01985 C 929.70314,691.3738 929.40495,690.78496 929.11373,690.20219 L 929.10451,690.18373 C 929.06505,690.10477 929.10378,689.99576 929.17367,689.91155 L 930.0958,688.86432 C 930.19694,688.76312 930.18018,688.61627 930.0958,688.49986 C 929.80388,688.11359 929.60102,687.87461 929.26128,687.53106 C 928.91792,687.19111 928.67908,686.98814 928.29304,686.69604 C 928.1767,686.61162 928.02994,686.59484 927.9288,686.69604 L 926.88218,687.61871 C 926.77958,687.70396 926.65556,687.70647 926.55943,687.66485 C 926.02798,687.35625 925.45167,687.11754 924.84427,686.95439 C 924.84104,686.95347 924.83827,686.95081 924.83505,686.94978 C 924.72998,686.91609 924.6314,686.82322 924.61834,686.6822 L 924.53074,685.28897 C 924.53074,685.14586 924.41447,685.05324 924.27255,685.03063 C 923.79315,684.96403 923.48303,684.94091 923,684.93836 z M 923,691.43395 C 924.30309,691.43395 925.36066,692.49214 925.36066,693.79598 C 925.36066,695.09983 924.30309,696.15802 923,696.15802 C 921.69692,696.15802 920.63935,695.09983 920.63935,693.79598 C 920.63935,692.49214 921.69692,691.43395 923,691.43395 z"
         style="opacity:0.63333333;fill:none;fill-opacity:1;stroke:#767676;stroke-width:1;stroke-linecap:round;stroke-linejoin:round;stroke-miterlimit:4;stroke-dasharray:none;stroke-dashoffset:1.08779998;stroke-opacity:1"
         mask="none" />
    </g>
    <g
       id="g2981"
       transform="matrix(0.6685083,0,0,0.6685083,302.62431,230.62124)">
      <path
         style="opacity:0.52857145;fill:#323232;fill-opacity:1;fill-rule:evenodd;stroke:url(#linearGradient3916);stroke-width:2.9917357;stroke-linecap:round;stroke-linejoin:round;stroke-miterlimit:4;stroke-dasharray:none;stroke-opacity:1"
         d="M 923.125,692.79077 C 921.952,692.79077 921,693.68677 921,694.79077 L 920.46875,696.00952 C 918.0097,696.22071 916.02517,697.92086 915.65625,700.07202 C 913.87533,701.43591 913,703.7993 913,705.79077 C 913,706.79077 914,710.79077 918,710.79077 L 919,710.79077 C 923,710.79077 924,706.79077 923.90625,705.79077 L 926,705.79077 L 926,704.79077 L 926,700.22827 C 926.29552,699.96522 925.63164,699.79077 926,699.79077 L 926,695.79077 C 924.80441,695.79077 926.76444,696.19773 926.03125,696.82202 L 924.96875,695.75952 C 925.13889,695.47194 925.25,695.14308 925.25,694.79077 C 925.25,693.68677 924.298,692.79077 923.125,692.79077 z"
         id="path4742"
         sodipodi:nodetypes="ccccsccccccccccsc" />
      <path
         sodipodi:nodetypes="ccccsccccccccccsc"
         id="path5795"
         d="M 923.125,692.79077 C 921.952,692.79077 921,693.68677 921,694.79077 L 920.46875,696.00952 C 918.0097,696.22071 916.02517,697.92086 915.65625,700.07202 C 913.87533,701.43591 913,703.7993 913,705.79077 C 913,706.79077 914,710.79077 918,710.79077 L 919,710.79077 C 923,710.79077 924,706.79077 923.90625,705.79077 L 926,705.79077 L 926,704.79077 L 926,700.22827 C 926.29552,699.96522 925.63164,699.79077 926,699.79077 L 926,695.79077 C 924.80441,695.79077 926.76444,696.19773 926.03125,696.82202 L 924.96875,695.75952 C 925.13889,695.47194 925.25,695.14308 925.25,694.79077 C 925.25,693.68677 924.298,692.79077 923.125,692.79077 z"
         style="opacity:0.87142855;fill:#000000;fill-opacity:1;fill-rule:evenodd;stroke:#000000;stroke-width:2.39338827;stroke-linecap:round;stroke-linejoin:round;stroke-miterlimit:4;stroke-dasharray:none;stroke-opacity:1" />
      <path
         style="opacity:1;fill:#000000;fill-opacity:1;fill-rule:evenodd;stroke:none;stroke-width:1;stroke-linecap:round;stroke-linejoin:round;stroke-miterlimit:4;stroke-dasharray:none;stroke-opacity:1"
         d="M 928,696.79077 C 926.80441,696.79077 926.76444,697.19773 926.03125,697.82202 L 926,697.79077 L 926,704.79077 L 927,704.79077 L 927,703.79077 L 927,701.22827 C 927.29552,700.96522 927.63164,700.79077 928,700.79077 L 928,696.79077 z"
         id="path5502"
         sodipodi:nodetypes="ccccccccc" />
      <path
         id="path5492"
         d="M 928,694.79077 C 926.80441,694.79077 926.76444,695.19773 926.03125,695.82202 L 926,695.79077 L 926,704.79077 L 927,704.79077 L 927,703.79077 L 927,699.22827 C 927.29552,698.96522 927.63164,698.79077 928,698.79077 L 928,694.79077 z"
         style="opacity:1;fill:#000000;fill-opacity:1;fill-rule:evenodd;stroke:none;stroke-width:1;stroke-linecap:round;stroke-linejoin:round;stroke-miterlimit:4;stroke-dasharray:none;stroke-opacity:1" />
      <path
         id="path2936"
         d="M 923.125,692.79077 C 921.952,692.79077 921,693.68677 921,694.79077 L 920.46875,696.00952 C 917.7396,696.24391 915.59375,698.30583 915.59375,700.79077 C 915.59375,703.07971 917.42293,704.97407 919.84375,705.44702 L 920,705.79077 L 927,705.79077 L 927,704.79077 L 927,700.22827 C 927.29552,699.96522 927.63164,699.79077 928,699.79077 L 928,695.79077 C 926.80441,695.79077 926.76444,696.19773 926.03125,696.82202 L 924.96875,695.75952 C 925.13889,695.47194 925.25,695.14308 925.25,694.79077 C 925.25,693.68677 924.298,692.79077 923.125,692.79077 z"
         style="opacity:1;fill:url(#linearGradient3918);fill-opacity:1;fill-rule:evenodd;stroke:none;stroke-width:1;stroke-linecap:round;stroke-linejoin:round;stroke-miterlimit:4;stroke-dasharray:none;stroke-opacity:1"
         sodipodi:nodetypes="cccscccccccccsc" />
      <path
         style="opacity:1;fill:url(#linearGradient3921);fill-opacity:1;fill-rule:evenodd;stroke:none;stroke-width:1;stroke-linecap:round;stroke-linejoin:round;stroke-miterlimit:4;stroke-dasharray:none;stroke-opacity:1"
         d="M 16,11 C 14.80441,11 14.76444,11.40696 14.03125,12.03125 L 14,12 L 14,21 L 15,21 L 15,20 L 15,15.4375 C 15.29552,15.17445 15.63164,15 16,15 L 16,11 z"
         transform="translate(912,684.79077)"
         id="path5405" />
      <path
         style="opacity:0.62380952;fill:#ffffff;fill-opacity:1;fill-rule:evenodd;stroke:none;stroke-width:1;stroke-linecap:round;stroke-linejoin:round;stroke-miterlimit:4;stroke-dasharray:none;stroke-opacity:1"
         d="M 923.125,692.79077 C 921.952,692.79077 921,693.68677 921,694.79077 L 920.46875,696.00952 C 917.7396,696.24391 915.59375,698.30583 915.59375,700.79077 C 915.59375,700.95011 915.63894,701.10435 915.65625,701.25952 C 915.94028,699.02147 917.93987,697.22671 920.46875,697.00952 L 921,695.79077 C 921,694.68677 921.952,693.79077 923.125,693.79077 C 924.11472,693.79077 924.95154,694.42829 925.1875,695.29077 C 925.23654,695.12857 925.25,694.96692 925.25,694.79077 C 925.25,693.68677 924.298,692.79077 923.125,692.79077 z M 928,695.79077 C 926.80441,695.79077 926.76444,696.19773 926.03125,696.82202 L 925.21875,696.00952 C 925.18267,696.2759 925.10159,696.53499 924.96875,696.75952 L 926.03125,697.82202 C 926.76444,697.19773 926.80441,696.79077 928,696.79077 L 928,695.79077 z"
         id="path5515" />
      <path
         style="opacity:0.37619048;fill:#000000;fill-opacity:1;fill-rule:evenodd;stroke:none;stroke-width:1;stroke-linecap:round;stroke-linejoin:round;stroke-miterlimit:4;stroke-dasharray:none;stroke-opacity:1"
         d="M 11.125,8 C 9.952,8 9,8.896 9,10 L 8.46875,11.21875 C 8.3510245,11.228861 8.2404293,11.264451 8.125,11.28125 L 8.15625,11.34375 L 13.34375,11.34375 L 12.96875,10.96875 C 13.13889,10.68117 13.25,10.35231 13.25,10 C 13.25,8.896 12.298,8 11.125,8 z M 15.15625,11.125 C 15.006529,11.179655 14.892828,11.254663 14.78125,11.34375 L 15.15625,11.34375 L 15.15625,11.125 z"
         transform="translate(912,684.79077)"
         id="path6268" />
      <path
         style="opacity:1;fill:#000000;fill-opacity:1;fill-rule:evenodd;stroke:none;stroke-width:1;stroke-linecap:round;stroke-linejoin:round;stroke-miterlimit:4;stroke-dasharray:none;stroke-opacity:1"
         d="M 928,698.79077 C 926.80441,698.79077 926.76444,699.19773 926.03125,699.82202 L 926,699.79077 L 926,701.79077 L 926.03125,701.82202 C 926.76444,701.19773 926.80441,700.79077 928,700.79077 L 928,698.79077 z"
         id="path5720"
         sodipodi:nodetypes="ccccccc" />
      <path
         style="opacity:0.46190479;fill:#ffffff;fill-opacity:1;fill-rule:evenodd;stroke:none;stroke-width:1px;stroke-linecap:butt;stroke-linejoin:miter;stroke-opacity:1"
         d="M 9.75,12.78125 C 9.382833,12.81778 9.0221976,13.017279 8.75,13.4375 C 8.2552863,13.27157 7.7069523,13.15625 7.0625,13.15625 C 4.8382501,13.15625 3.747662,14.310336 2.75,15.84375 C 3.8301337,14.840151 4.7843497,14.15625 6.65625,14.15625 C 10.566854,14.15625 11.827087,16.910819 11.96875,20 L 15,20 L 15,17.125 L 11.40625,13.5 C 11.08251,13.11417 10.39897,12.71668 9.75,12.78125 z"
         transform="translate(912,684.79077)"
         id="path4952"
         sodipodi:nodetypes="ccscsccccc" />
      <path
         id="path2947"
         d="M 921.75,698.57202 C 921.36062,698.61076 920.96256,698.81435 920.6875,699.29077 L 918.875,703.54077 L 920,705.79077 L 927,705.79077 L 927,702.91577 L 923.40625,699.29077 C 923.08251,698.90494 922.39897,698.50745 921.75,698.57202 z"
         style="opacity:1;fill:url(#linearGradient3923);fill-opacity:1;fill-rule:evenodd;stroke:none;stroke-width:1px;stroke-linecap:butt;stroke-linejoin:miter;stroke-opacity:1" />
      <path
         style="opacity:1;fill:url(#linearGradient3925);fill-opacity:1;fill-rule:evenodd;stroke:none;stroke-width:1.05075967;stroke-linecap:round;stroke-linejoin:round;stroke-miterlimit:4;stroke-dasharray:none;stroke-opacity:1"
         d="M 920.0625,698.44702 C 916.94706,698.44702 915.06198,700.69831 914.34375,703.10327 C 915.00211,701.11747 916.60266,699.29077 919.1875,699.29077 C 922.5644,699.29077 923.41601,702.18785 923.34375,705.16577 C 923.34875,705.21906 923.34627,705.31282 923.34375,705.38452 C 923.82449,705.78789 924.25617,706.26683 924.625,706.79077 C 924.83961,706.1486 924.93407,705.58751 924.90625,705.29077 C 924.99058,701.81576 924.0031,698.44702 920.0625,698.44702 z"
         id="path6178" />
      <path
         sodipodi:nodetypes="ccsscc"
         id="path2934"
         d="M 919.0625,698.94702 C 914.997,698.94702 913,702.79077 913,705.79077 C 913,706.79077 914,710.79077 918,710.79077 L 919,710.79077 C 923,710.79077 924,706.79077 923.90625,705.79077 C 923.99058,702.31576 923.0031,698.94702 919.0625,698.94702 z"
         style="opacity:1;fill:url(#linearGradient3927);fill-opacity:1;fill-rule:evenodd;stroke:none;stroke-width:1.05075967;stroke-linecap:round;stroke-linejoin:round;stroke-miterlimit:4;stroke-dasharray:none;stroke-opacity:1" />
      <path
         style="opacity:0.32857145;fill:url(#linearGradient3929);fill-opacity:1;fill-rule:evenodd;stroke:none;stroke-width:1.05075967;stroke-linecap:round;stroke-linejoin:round;stroke-miterlimit:4;stroke-dasharray:none;stroke-opacity:1"
         d="M 919.0625,698.94702 C 914.997,698.94702 913,702.79077 913,705.79077 C 913,706.79077 914,710.79077 918,710.79077 L 919,710.79077 C 923,710.79077 924,706.79077 923.90625,705.79077 C 923.99058,702.31576 923.0031,698.94702 919.0625,698.94702 z"
         id="path6090"
         sodipodi:nodetypes="ccsscc" />
      <path
         transform="matrix(1.7946418,0,0,1.6594493,908.62947,672.01285)"
         d="M 8,20.5 A 2.5,2.5 0 1 1 3,20.5 A 2.5,2.5 0 1 1 8,20.5 z"
         sodipodi:ry="2.5"
         sodipodi:rx="2.5"
         sodipodi:cy="20.5"
         sodipodi:cx="5.5"
         id="path2349"
         style="opacity:1;fill:url(#linearGradient3931);fill-opacity:1;fill-rule:evenodd;stroke:none;stroke-width:1;stroke-linecap:round;stroke-linejoin:round;stroke-miterlimit:4;stroke-dasharray:none;stroke-opacity:1"
         sodipodi:type="arc" />
      <path
         sodipodi:type="arc"
         style="opacity:1;fill:none;fill-opacity:1;fill-rule:evenodd;stroke:url(#linearGradient3933);stroke-width:1.49586785;stroke-linecap:round;stroke-linejoin:round;stroke-miterlimit:4;stroke-dasharray:none;stroke-opacity:1"
         id="path5536"
         sodipodi:cx="5.5"
         sodipodi:cy="20.5"
         sodipodi:rx="2.5"
         sodipodi:ry="2.5"
         d="M 8,20.5 A 2.5,2.5 0 1 1 3,20.5 A 2.5,2.5 0 1 1 8,20.5 z"
         transform="matrix(1.4000002,0,0,1.2444441,910.8,680.27966)" />
      <path
         transform="matrix(2.0000038,0,0,1.7999997,907.49999,668.89078)"
         d="M 8,20.5 A 2.5,2.5 0 1 1 3,20.5"
         sodipodi:ry="2.5"
         sodipodi:rx="2.5"
         sodipodi:cy="20.5"
         sodipodi:cx="5.5"
         id="path4781"
         style="opacity:0.71428576;fill:none;fill-opacity:1;fill-rule:evenodd;stroke:url(#linearGradient3935);stroke-width:0.78839082;stroke-linecap:round;stroke-linejoin:round;stroke-miterlimit:4;stroke-dasharray:none;stroke-opacity:1"
         sodipodi:type="arc"
         sodipodi:start="0"
         sodipodi:end="3.1415927"
         sodipodi:open="true" />
      <path
         sodipodi:type="arc"
         style="opacity:0.62380952;fill:#ffffff;fill-opacity:1;fill-rule:evenodd;stroke:none;stroke-width:1.75;stroke-linecap:round;stroke-linejoin:round;stroke-miterlimit:4;stroke-dasharray:none;stroke-opacity:1"
         id="path5053"
         sodipodi:cx="13.5"
         sodipodi:cy="19.5"
         sodipodi:rx="0.5"
         sodipodi:ry="0.5"
         d="M 14,19.5 A 0.5,0.5 0 1 1 13,19.5 A 0.5,0.5 0 1 1 14,19.5 z"
         transform="translate(912,684.79077)" />
      <path
         sodipodi:type="arc"
         style="opacity:0.32380952;fill:none;fill-opacity:1;fill-rule:evenodd;stroke:url(#linearGradient3937);stroke-width:1.13329101;stroke-linecap:round;stroke-linejoin:round;stroke-miterlimit:4;stroke-dasharray:none;stroke-opacity:1"
         id="path5586"
         sodipodi:cx="5.5"
         sodipodi:cy="20.5"
         sodipodi:rx="2.5"
         sodipodi:ry="2.5"
         d="M 6.6713688,22.708596 A 2.5,2.5 0 0 1 3.1018767,21.206403"
         transform="matrix(1.4000002,0,0,1.2444441,912.3,677.27966)"
         sodipodi:start="1.0831504"
         sodipodi:end="2.8551297"
         sodipodi:open="true" />
      <path
         sodipodi:open="true"
         sodipodi:end="2.9670597"
         sodipodi:start="1.0471976"
         transform="matrix(1.4000002,0,0,1.2444441,911.3,678.77966)"
         d="M 6.7499999,22.665064 A 2.5,2.5 0 0 1 3.0379806,20.934121"
         sodipodi:ry="2.5"
         sodipodi:rx="2.5"
         sodipodi:cy="20.5"
         sodipodi:cx="5.5"
         id="path5606"
         style="opacity:1;fill:none;fill-opacity:1;fill-rule:evenodd;stroke:url(#linearGradient3939);stroke-width:1.13329101;stroke-linecap:round;stroke-linejoin:round;stroke-miterlimit:4;stroke-dasharray:none;stroke-opacity:1"
         sodipodi:type="arc" />
      <path
         style="opacity:0.63809527;fill:url(#linearGradient3941);fill-opacity:1;fill-rule:evenodd;stroke:none;stroke-width:1;stroke-linecap:round;stroke-linejoin:round;stroke-miterlimit:4;stroke-dasharray:none;stroke-opacity:1"
         d="M 6.5,17.875 C 4.5679997,17.875 2.9999999,19.282667 3,21 C 3,21.644 3.2162421,22.253438 3.59375,22.75 C 3.5269912,22.51013 3.5,22.258124 3.5,22 C 3.4999999,20.282667 5.0679997,18.875 7,18.875 C 8.1902503,18.875 9.2425847,19.410996 9.875,20.21875 C 9.4826772,18.881901 8.1262967,17.875 6.5,17.875 z"
         transform="translate(912,684.79077)"
         id="path5847" />
      <path
         transform="matrix(2.8325203,0,0,2.5655376,878.70894,656.54328)"
         d="M 14,19.5 A 0.5,0.5 0 1 1 13,19.5 A 0.5,0.5 0 1 1 14,19.5 z"
         sodipodi:ry="0.5"
         sodipodi:rx="0.5"
         sodipodi:cy="19.5"
         sodipodi:cx="13.5"
         id="path5914"
         style="opacity:0.62380952;fill:url(#radialGradient3943);fill-opacity:1;fill-rule:evenodd;stroke:none;stroke-width:1.75;stroke-linecap:round;stroke-linejoin:round;stroke-miterlimit:4;stroke-dasharray:none;stroke-opacity:1"
         sodipodi:type="arc" />
      <path
         sodipodi:type="arc"
         style="opacity:0.62380952;fill:url(#radialGradient3945);fill-opacity:1;fill-rule:evenodd;stroke:none;stroke-width:1.75;stroke-linecap:round;stroke-linejoin:round;stroke-miterlimit:4;stroke-dasharray:none;stroke-opacity:1"
         id="path5932"
         sodipodi:cx="13.5"
         sodipodi:cy="19.5"
         sodipodi:rx="0.5"
         sodipodi:ry="0.5"
         d="M 14,19.5 A 0.5,0.5 0 1 1 13,19.5 A 0.5,0.5 0 1 1 14,19.5 z"
         transform="matrix(2.4682927,0,0,2.2356407,886.56585,661.04221)" />
      <path
         style="opacity:0.34761903;fill:url(#linearGradient3947);fill-opacity:1;fill-rule:evenodd;stroke:none;stroke-width:1;stroke-linecap:round;stroke-linejoin:round;stroke-miterlimit:4;stroke-dasharray:none;stroke-opacity:1"
         d="M 918.49736,703.03 C 916.72853,703.03 915.29297,704.31878 915.29297,705.89106 C 915.29297,706.12739 915.31768,706.35811 915.3788,706.57772 C 916.04671,706.82054 916.78711,706.97827 917.58182,706.97827 C 919.25249,706.97827 920.73307,706.35991 921.64453,705.43329 C 921.39553,704.08092 920.08887,703.03 918.49736,703.03 z"
         id="path5938" />
      <path
         id="path6260"
         d="M 920.0625,698.44702 C 916.94706,698.44702 915.06198,700.69831 914.34375,703.10327 C 915.00211,701.11747 916.60266,699.29077 919.1875,699.29077 C 922.5644,699.29077 923.41601,702.18785 923.34375,705.16577 C 923.34875,705.21906 923.34627,705.31282 923.34375,705.38452 C 923.82449,705.78789 924.25617,706.26683 924.625,706.79077 C 924.83961,706.1486 924.93407,705.58751 924.90625,705.29077 C 924.99058,701.81576 924.0031,698.44702 920.0625,698.44702 z"
         style="opacity:1;fill:url(#linearGradient3949);fill-opacity:1;fill-rule:evenodd;stroke:none;stroke-width:1.05075967;stroke-linecap:round;stroke-linejoin:round;stroke-miterlimit:4;stroke-dasharray:none;stroke-opacity:1" />
      <path
         sodipodi:open="true"
         sodipodi:end="6.1086524"
         sodipodi:start="3.3161256"
         sodipodi:type="arc"
         style="opacity:0.55238097;fill:none;fill-opacity:1;fill-rule:evenodd;stroke:url(#linearGradient3951);stroke-width:0.59953439;stroke-linecap:round;stroke-linejoin:round;stroke-miterlimit:4;stroke-dasharray:none;stroke-opacity:1"
         id="path6044"
         sodipodi:cx="5.5"
         sodipodi:cy="20.5"
         sodipodi:rx="2.5"
         sodipodi:ry="2.5"
         d="M 3.0379806,20.06588 A 2.5,2.5 0 0 1 7.9620194,20.06588"
         transform="matrix(2.0000038,0,0,1.9920832,907.49999,665.03646)" />
      <path
         sodipodi:type="arc"
         style="opacity:0.87142855;fill:none;fill-opacity:1;fill-rule:evenodd;stroke:#000000;stroke-width:0.47159648;stroke-linecap:round;stroke-linejoin:round;stroke-miterlimit:4;stroke-dasharray:none;stroke-opacity:1"
         id="path6266"
         sodipodi:cx="11.213008"
         sodipodi:cy="11.941463"
         sodipodi:rx="1.1707317"
         sodipodi:ry="1.2747967"
         d="M 10.477416,10.949727 A 1.1707317,1.2747967 0 0 1 11.96068,10.960497"
         transform="matrix(2.6479168,0,0,2.4317619,893.30889,669.25197)"
         sodipodi:start="4.0329999"
         sodipodi:end="5.4051145"
         sodipodi:open="true" />
    </g>
    <g
       transform="matrix(-0.6685083,0,0,0.6685083,1543.3481,230.62124)"
       id="g2471">
      <path
         sodipodi:nodetypes="ccccsccccccccccsc"
         id="path2473"
         d="M 923.125,692.79077 C 921.952,692.79077 921,693.68677 921,694.79077 L 920.46875,696.00952 C 918.0097,696.22071 916.02517,697.92086 915.65625,700.07202 C 913.87533,701.43591 913,703.7993 913,705.79077 C 913,706.79077 914,710.79077 918,710.79077 L 919,710.79077 C 923,710.79077 924,706.79077 923.90625,705.79077 L 926,705.79077 L 926,704.79077 L 926,700.22827 C 926.29552,699.96522 925.63164,699.79077 926,699.79077 L 926,695.79077 C 924.80441,695.79077 926.76444,696.19773 926.03125,696.82202 L 924.96875,695.75952 C 925.13889,695.47194 925.25,695.14308 925.25,694.79077 C 925.25,693.68677 924.298,692.79077 923.125,692.79077 z"
         style="opacity:0.52857145;fill:#323232;fill-opacity:1;fill-rule:evenodd;stroke:url(#linearGradient2527);stroke-width:2.9917357;stroke-linecap:round;stroke-linejoin:round;stroke-miterlimit:4;stroke-dasharray:none;stroke-opacity:1" />
      <path
         style="opacity:0.87142855;fill:#000000;fill-opacity:1;fill-rule:evenodd;stroke:#000000;stroke-width:2.39338827;stroke-linecap:round;stroke-linejoin:round;stroke-miterlimit:4;stroke-dasharray:none;stroke-opacity:1"
         d="M 923.125,692.79077 C 921.952,692.79077 921,693.68677 921,694.79077 L 920.46875,696.00952 C 918.0097,696.22071 916.02517,697.92086 915.65625,700.07202 C 913.87533,701.43591 913,703.7993 913,705.79077 C 913,706.79077 914,710.79077 918,710.79077 L 919,710.79077 C 923,710.79077 924,706.79077 923.90625,705.79077 L 926,705.79077 L 926,704.79077 L 926,700.22827 C 926.29552,699.96522 925.63164,699.79077 926,699.79077 L 926,695.79077 C 924.80441,695.79077 926.76444,696.19773 926.03125,696.82202 L 924.96875,695.75952 C 925.13889,695.47194 925.25,695.14308 925.25,694.79077 C 925.25,693.68677 924.298,692.79077 923.125,692.79077 z"
         id="path2475"
         sodipodi:nodetypes="ccccsccccccccccsc" />
      <path
         sodipodi:nodetypes="ccccccccc"
         id="path2477"
         d="M 928,696.79077 C 926.80441,696.79077 926.76444,697.19773 926.03125,697.82202 L 926,697.79077 L 926,704.79077 L 927,704.79077 L 927,703.79077 L 927,701.22827 C 927.29552,700.96522 927.63164,700.79077 928,700.79077 L 928,696.79077 z"
         style="opacity:1;fill:#000000;fill-opacity:1;fill-rule:evenodd;stroke:none;stroke-width:1;stroke-linecap:round;stroke-linejoin:round;stroke-miterlimit:4;stroke-dasharray:none;stroke-opacity:1" />
      <path
         style="opacity:1;fill:#000000;fill-opacity:1;fill-rule:evenodd;stroke:none;stroke-width:1;stroke-linecap:round;stroke-linejoin:round;stroke-miterlimit:4;stroke-dasharray:none;stroke-opacity:1"
         d="M 928,694.79077 C 926.80441,694.79077 926.76444,695.19773 926.03125,695.82202 L 926,695.79077 L 926,704.79077 L 927,704.79077 L 927,703.79077 L 927,699.22827 C 927.29552,698.96522 927.63164,698.79077 928,698.79077 L 928,694.79077 z"
         id="path2479" />
      <path
         sodipodi:nodetypes="cccscccccccccsc"
         style="opacity:1;fill:url(#linearGradient2529);fill-opacity:1;fill-rule:evenodd;stroke:none;stroke-width:1;stroke-linecap:round;stroke-linejoin:round;stroke-miterlimit:4;stroke-dasharray:none;stroke-opacity:1"
         d="M 923.125,692.79077 C 921.952,692.79077 921,693.68677 921,694.79077 L 920.46875,696.00952 C 917.7396,696.24391 915.59375,698.30583 915.59375,700.79077 C 915.59375,703.07971 917.42293,704.97407 919.84375,705.44702 L 920,705.79077 L 927,705.79077 L 927,704.79077 L 927,700.22827 C 927.29552,699.96522 927.63164,699.79077 928,699.79077 L 928,695.79077 C 926.80441,695.79077 926.76444,696.19773 926.03125,696.82202 L 924.96875,695.75952 C 925.13889,695.47194 925.25,695.14308 925.25,694.79077 C 925.25,693.68677 924.298,692.79077 923.125,692.79077 z"
         id="path2481" />
      <path
         id="path2483"
         transform="translate(912,684.79077)"
         d="M 16,11 C 14.80441,11 14.76444,11.40696 14.03125,12.03125 L 14,12 L 14,21 L 15,21 L 15,20 L 15,15.4375 C 15.29552,15.17445 15.63164,15 16,15 L 16,11 z"
         style="opacity:1;fill:url(#linearGradient2531);fill-opacity:1;fill-rule:evenodd;stroke:none;stroke-width:1;stroke-linecap:round;stroke-linejoin:round;stroke-miterlimit:4;stroke-dasharray:none;stroke-opacity:1" />
      <path
         id="path2485"
         d="M 923.125,692.79077 C 921.952,692.79077 921,693.68677 921,694.79077 L 920.46875,696.00952 C 917.7396,696.24391 915.59375,698.30583 915.59375,700.79077 C 915.59375,700.95011 915.63894,701.10435 915.65625,701.25952 C 915.94028,699.02147 917.93987,697.22671 920.46875,697.00952 L 921,695.79077 C 921,694.68677 921.952,693.79077 923.125,693.79077 C 924.11472,693.79077 924.95154,694.42829 925.1875,695.29077 C 925.23654,695.12857 925.25,694.96692 925.25,694.79077 C 925.25,693.68677 924.298,692.79077 923.125,692.79077 z M 928,695.79077 C 926.80441,695.79077 926.76444,696.19773 926.03125,696.82202 L 925.21875,696.00952 C 925.18267,696.2759 925.10159,696.53499 924.96875,696.75952 L 926.03125,697.82202 C 926.76444,697.19773 926.80441,696.79077 928,696.79077 L 928,695.79077 z"
         style="opacity:0.62380952;fill:#ffffff;fill-opacity:1;fill-rule:evenodd;stroke:none;stroke-width:1;stroke-linecap:round;stroke-linejoin:round;stroke-miterlimit:4;stroke-dasharray:none;stroke-opacity:1" />
      <path
         id="path2487"
         transform="translate(912,684.79077)"
         d="M 11.125,8 C 9.952,8 9,8.896 9,10 L 8.46875,11.21875 C 8.3510245,11.228861 8.2404293,11.264451 8.125,11.28125 L 8.15625,11.34375 L 13.34375,11.34375 L 12.96875,10.96875 C 13.13889,10.68117 13.25,10.35231 13.25,10 C 13.25,8.896 12.298,8 11.125,8 z M 15.15625,11.125 C 15.006529,11.179655 14.892828,11.254663 14.78125,11.34375 L 15.15625,11.34375 L 15.15625,11.125 z"
         style="opacity:0.37619048;fill:#000000;fill-opacity:1;fill-rule:evenodd;stroke:none;stroke-width:1;stroke-linecap:round;stroke-linejoin:round;stroke-miterlimit:4;stroke-dasharray:none;stroke-opacity:1" />
      <path
         sodipodi:nodetypes="ccccccc"
         id="path2489"
         d="M 928,698.79077 C 926.80441,698.79077 926.76444,699.19773 926.03125,699.82202 L 926,699.79077 L 926,701.79077 L 926.03125,701.82202 C 926.76444,701.19773 926.80441,700.79077 928,700.79077 L 928,698.79077 z"
         style="opacity:1;fill:#000000;fill-opacity:1;fill-rule:evenodd;stroke:none;stroke-width:1;stroke-linecap:round;stroke-linejoin:round;stroke-miterlimit:4;stroke-dasharray:none;stroke-opacity:1" />
      <path
         sodipodi:nodetypes="ccscsccccc"
         id="path2491"
         transform="translate(912,684.79077)"
         d="M 9.75,12.78125 C 9.382833,12.81778 9.0221976,13.017279 8.75,13.4375 C 8.2552863,13.27157 7.7069523,13.15625 7.0625,13.15625 C 4.8382501,13.15625 3.747662,14.310336 2.75,15.84375 C 3.8301337,14.840151 4.7843497,14.15625 6.65625,14.15625 C 10.566854,14.15625 11.827087,16.910819 11.96875,20 L 15,20 L 15,17.125 L 11.40625,13.5 C 11.08251,13.11417 10.39897,12.71668 9.75,12.78125 z"
         style="opacity:0.46190479;fill:#ffffff;fill-opacity:1;fill-rule:evenodd;stroke:none;stroke-width:1px;stroke-linecap:butt;stroke-linejoin:miter;stroke-opacity:1" />
      <path
         style="opacity:1;fill:url(#linearGradient2533);fill-opacity:1;fill-rule:evenodd;stroke:none;stroke-width:1px;stroke-linecap:butt;stroke-linejoin:miter;stroke-opacity:1"
         d="M 921.75,698.57202 C 921.36062,698.61076 920.96256,698.81435 920.6875,699.29077 L 918.875,703.54077 L 920,705.79077 L 927,705.79077 L 927,702.91577 L 923.40625,699.29077 C 923.08251,698.90494 922.39897,698.50745 921.75,698.57202 z"
         id="path2493" />
      <path
         id="path2495"
         d="M 920.0625,698.44702 C 916.94706,698.44702 915.06198,700.69831 914.34375,703.10327 C 915.00211,701.11747 916.60266,699.29077 919.1875,699.29077 C 922.5644,699.29077 923.41601,702.18785 923.34375,705.16577 C 923.34875,705.21906 923.34627,705.31282 923.34375,705.38452 C 923.82449,705.78789 924.25617,706.26683 924.625,706.79077 C 924.83961,706.1486 924.93407,705.58751 924.90625,705.29077 C 924.99058,701.81576 924.0031,698.44702 920.0625,698.44702 z"
         style="opacity:1;fill:url(#linearGradient2535);fill-opacity:1;fill-rule:evenodd;stroke:none;stroke-width:1.05075967;stroke-linecap:round;stroke-linejoin:round;stroke-miterlimit:4;stroke-dasharray:none;stroke-opacity:1" />
      <path
         style="opacity:1;fill:url(#linearGradient2537);fill-opacity:1;fill-rule:evenodd;stroke:none;stroke-width:1.05075967;stroke-linecap:round;stroke-linejoin:round;stroke-miterlimit:4;stroke-dasharray:none;stroke-opacity:1"
         d="M 919.0625,698.94702 C 914.997,698.94702 913,702.79077 913,705.79077 C 913,706.79077 914,710.79077 918,710.79077 L 919,710.79077 C 923,710.79077 924,706.79077 923.90625,705.79077 C 923.99058,702.31576 923.0031,698.94702 919.0625,698.94702 z"
         id="path2497"
         sodipodi:nodetypes="ccsscc" />
      <path
         sodipodi:nodetypes="ccsscc"
         id="path2499"
         d="M 919.0625,698.94702 C 914.997,698.94702 913,702.79077 913,705.79077 C 913,706.79077 914,710.79077 918,710.79077 L 919,710.79077 C 923,710.79077 924,706.79077 923.90625,705.79077 C 923.99058,702.31576 923.0031,698.94702 919.0625,698.94702 z"
         style="opacity:0.32857145;fill:url(#linearGradient2539);fill-opacity:1;fill-rule:evenodd;stroke:none;stroke-width:1.05075967;stroke-linecap:round;stroke-linejoin:round;stroke-miterlimit:4;stroke-dasharray:none;stroke-opacity:1" />
      <path
         sodipodi:type="arc"
         style="opacity:1;fill:url(#linearGradient2541);fill-opacity:1;fill-rule:evenodd;stroke:none;stroke-width:1;stroke-linecap:round;stroke-linejoin:round;stroke-miterlimit:4;stroke-dasharray:none;stroke-opacity:1"
         id="path2501"
         sodipodi:cx="5.5"
         sodipodi:cy="20.5"
         sodipodi:rx="2.5"
         sodipodi:ry="2.5"
         d="M 8,20.5 A 2.5,2.5 0 1 1 3,20.5 A 2.5,2.5 0 1 1 8,20.5 z"
         transform="matrix(1.7946418,0,0,1.6594493,908.62947,672.01285)" />
      <path
         transform="matrix(1.4000002,0,0,1.2444441,910.8,680.27966)"
         d="M 8,20.5 A 2.5,2.5 0 1 1 3,20.5 A 2.5,2.5 0 1 1 8,20.5 z"
         sodipodi:ry="2.5"
         sodipodi:rx="2.5"
         sodipodi:cy="20.5"
         sodipodi:cx="5.5"
         id="path2503"
         style="opacity:1;fill:none;fill-opacity:1;fill-rule:evenodd;stroke:url(#linearGradient2543);stroke-width:1.49586785;stroke-linecap:round;stroke-linejoin:round;stroke-miterlimit:4;stroke-dasharray:none;stroke-opacity:1"
         sodipodi:type="arc" />
      <path
         sodipodi:open="true"
         sodipodi:end="3.1415927"
         sodipodi:start="0"
         sodipodi:type="arc"
         style="opacity:0.71428576;fill:none;fill-opacity:1;fill-rule:evenodd;stroke:url(#linearGradient2545);stroke-width:0.78839082;stroke-linecap:round;stroke-linejoin:round;stroke-miterlimit:4;stroke-dasharray:none;stroke-opacity:1"
         id="path2505"
         sodipodi:cx="5.5"
         sodipodi:cy="20.5"
         sodipodi:rx="2.5"
         sodipodi:ry="2.5"
         d="M 8,20.5 A 2.5,2.5 0 1 1 3,20.5"
         transform="matrix(2.0000038,0,0,1.7999997,907.49999,668.89078)" />
      <path
         transform="translate(912,684.79077)"
         d="M 14,19.5 A 0.5,0.5 0 1 1 13,19.5 A 0.5,0.5 0 1 1 14,19.5 z"
         sodipodi:ry="0.5"
         sodipodi:rx="0.5"
         sodipodi:cy="19.5"
         sodipodi:cx="13.5"
         id="path2507"
         style="opacity:0.62380952;fill:#ffffff;fill-opacity:1;fill-rule:evenodd;stroke:none;stroke-width:1.75;stroke-linecap:round;stroke-linejoin:round;stroke-miterlimit:4;stroke-dasharray:none;stroke-opacity:1"
         sodipodi:type="arc" />
      <path
         sodipodi:open="true"
         sodipodi:end="2.8551297"
         sodipodi:start="1.0831504"
         transform="matrix(1.4000002,0,0,1.2444441,912.3,677.27966)"
         d="M 6.6713688,22.708596 A 2.5,2.5 0 0 1 3.1018767,21.206403"
         sodipodi:ry="2.5"
         sodipodi:rx="2.5"
         sodipodi:cy="20.5"
         sodipodi:cx="5.5"
         id="path2509"
         style="opacity:0.32380952;fill:none;fill-opacity:1;fill-rule:evenodd;stroke:url(#linearGradient2547);stroke-width:1.13329101;stroke-linecap:round;stroke-linejoin:round;stroke-miterlimit:4;stroke-dasharray:none;stroke-opacity:1"
         sodipodi:type="arc" />
      <path
         sodipodi:type="arc"
         style="opacity:1;fill:none;fill-opacity:1;fill-rule:evenodd;stroke:url(#linearGradient2549);stroke-width:1.13329101;stroke-linecap:round;stroke-linejoin:round;stroke-miterlimit:4;stroke-dasharray:none;stroke-opacity:1"
         id="path2511"
         sodipodi:cx="5.5"
         sodipodi:cy="20.5"
         sodipodi:rx="2.5"
         sodipodi:ry="2.5"
         d="M 6.7499999,22.665064 A 2.5,2.5 0 0 1 3.0379806,20.934121"
         transform="matrix(1.4000002,0,0,1.2444441,911.3,678.77966)"
         sodipodi:start="1.0471976"
         sodipodi:end="2.9670597"
         sodipodi:open="true" />
      <path
         id="path2513"
         transform="translate(912,684.79077)"
         d="M 6.5,17.875 C 4.5679997,17.875 2.9999999,19.282667 3,21 C 3,21.644 3.2162421,22.253438 3.59375,22.75 C 3.5269912,22.51013 3.5,22.258124 3.5,22 C 3.4999999,20.282667 5.0679997,18.875 7,18.875 C 8.1902503,18.875 9.2425847,19.410996 9.875,20.21875 C 9.4826772,18.881901 8.1262967,17.875 6.5,17.875 z"
         style="opacity:0.63809527;fill:url(#linearGradient2551);fill-opacity:1;fill-rule:evenodd;stroke:none;stroke-width:1;stroke-linecap:round;stroke-linejoin:round;stroke-miterlimit:4;stroke-dasharray:none;stroke-opacity:1" />
      <path
         sodipodi:type="arc"
         style="opacity:0.62380952;fill:url(#radialGradient2553);fill-opacity:1;fill-rule:evenodd;stroke:none;stroke-width:1.75;stroke-linecap:round;stroke-linejoin:round;stroke-miterlimit:4;stroke-dasharray:none;stroke-opacity:1"
         id="path2515"
         sodipodi:cx="13.5"
         sodipodi:cy="19.5"
         sodipodi:rx="0.5"
         sodipodi:ry="0.5"
         d="M 14,19.5 A 0.5,0.5 0 1 1 13,19.5 A 0.5,0.5 0 1 1 14,19.5 z"
         transform="matrix(2.8325203,0,0,2.5655376,878.70894,656.54328)" />
      <path
         transform="matrix(2.4682927,0,0,2.2356407,886.56585,661.04221)"
         d="M 14,19.5 A 0.5,0.5 0 1 1 13,19.5 A 0.5,0.5 0 1 1 14,19.5 z"
         sodipodi:ry="0.5"
         sodipodi:rx="0.5"
         sodipodi:cy="19.5"
         sodipodi:cx="13.5"
         id="path2517"
         style="opacity:0.62380952;fill:url(#radialGradient2555);fill-opacity:1;fill-rule:evenodd;stroke:none;stroke-width:1.75;stroke-linecap:round;stroke-linejoin:round;stroke-miterlimit:4;stroke-dasharray:none;stroke-opacity:1"
         sodipodi:type="arc" />
      <path
         id="path2519"
         d="M 918.49736,703.03 C 916.72853,703.03 915.29297,704.31878 915.29297,705.89106 C 915.29297,706.12739 915.31768,706.35811 915.3788,706.57772 C 916.04671,706.82054 916.78711,706.97827 917.58182,706.97827 C 919.25249,706.97827 920.73307,706.35991 921.64453,705.43329 C 921.39553,704.08092 920.08887,703.03 918.49736,703.03 z"
         style="opacity:0.34761903;fill:url(#linearGradient2557);fill-opacity:1;fill-rule:evenodd;stroke:none;stroke-width:1;stroke-linecap:round;stroke-linejoin:round;stroke-miterlimit:4;stroke-dasharray:none;stroke-opacity:1" />
      <path
         style="opacity:1;fill:url(#linearGradient2559);fill-opacity:1;fill-rule:evenodd;stroke:none;stroke-width:1.05075967;stroke-linecap:round;stroke-linejoin:round;stroke-miterlimit:4;stroke-dasharray:none;stroke-opacity:1"
         d="M 920.0625,698.44702 C 916.94706,698.44702 915.06198,700.69831 914.34375,703.10327 C 915.00211,701.11747 916.60266,699.29077 919.1875,699.29077 C 922.5644,699.29077 923.41601,702.18785 923.34375,705.16577 C 923.34875,705.21906 923.34627,705.31282 923.34375,705.38452 C 923.82449,705.78789 924.25617,706.26683 924.625,706.79077 C 924.83961,706.1486 924.93407,705.58751 924.90625,705.29077 C 924.99058,701.81576 924.0031,698.44702 920.0625,698.44702 z"
         id="path2521" />
      <path
         transform="matrix(2.0000038,0,0,1.9920832,907.49999,665.03646)"
         d="M 3.0379806,20.06588 A 2.5,2.5 0 0 1 7.9620194,20.06588"
         sodipodi:ry="2.5"
         sodipodi:rx="2.5"
         sodipodi:cy="20.5"
         sodipodi:cx="5.5"
         id="path2523"
         style="opacity:0.55238097;fill:none;fill-opacity:1;fill-rule:evenodd;stroke:url(#linearGradient2561);stroke-width:0.59953439;stroke-linecap:round;stroke-linejoin:round;stroke-miterlimit:4;stroke-dasharray:none;stroke-opacity:1"
         sodipodi:type="arc"
         sodipodi:start="3.3161256"
         sodipodi:end="6.1086524"
         sodipodi:open="true" />
      <path
         sodipodi:open="true"
         sodipodi:end="5.4051145"
         sodipodi:start="4.0329999"
         transform="matrix(2.6479168,0,0,2.4317619,893.30889,669.25197)"
         d="M 10.477416,10.949727 A 1.1707317,1.2747967 0 0 1 11.96068,10.960497"
         sodipodi:ry="1.2747967"
         sodipodi:rx="1.1707317"
         sodipodi:cy="11.941463"
         sodipodi:cx="11.213008"
         id="path2525"
         style="opacity:0.87142855;fill:none;fill-opacity:1;fill-rule:evenodd;stroke:#000000;stroke-width:0.47159648;stroke-linecap:round;stroke-linejoin:round;stroke-miterlimit:4;stroke-dasharray:none;stroke-opacity:1"
         sodipodi:type="arc" />
    </g>
  </g>
</svg>
