<?xml version="1.0" encoding="UTF-8" standalone="no"?>
<!-- Created with Inkscape (http://www.inkscape.org/) -->

<svg
   xmlns:dc="http://purl.org/dc/elements/1.1/"
   xmlns:cc="http://creativecommons.org/ns#"
   xmlns:rdf="http://www.w3.org/1999/02/22-rdf-syntax-ns#"
   xmlns:svg="http://www.w3.org/2000/svg"
   xmlns="http://www.w3.org/2000/svg"
   xmlns:xlink="http://www.w3.org/1999/xlink"
   xmlns:sodipodi="http://sodipodi.sourceforge.net/DTD/sodipodi-0.dtd"
   xmlns:inkscape="http://www.inkscape.org/namespaces/inkscape"
   width="128"
   height="128"
   id="svg2606"
   sodipodi:version="0.32"
   inkscape:version="0.48.0 r9654"
   version="1.0"
   sodipodi:docname="text-x-python.svgz"
   inkscape:output_extension="org.inkscape.output.svgz.inkscape"
   inkscape:export-filename="/home/pinheiro/pics/oxygen-icons/scalable/mimetypes/small/22x22/text-x-python.png"
   inkscape:export-xdpi="61.875"
   inkscape:export-ydpi="61.875">
  <defs
     id="defs2608">
    <linearGradient
       id="linearGradient6131">
      <stop
         id="stop6133"
         offset="0"
         style="stop-color:#fcfcfc;stop-opacity:1" />
      <stop
         style="stop-color:#f8f8f8;stop-opacity:1"
         offset="0.52275378"
         id="stop6135" />
      <stop
         id="stop6141"
         offset="0.77457333"
         style="stop-color:#f0efef;stop-opacity:1;" />
      <stop
         id="stop6139"
         offset="0.90122044"
         style="stop-color:#e3e1e1;stop-opacity:1;" />
      <stop
         id="stop6137"
         offset="1"
         style="stop-color:#cecbcb;stop-opacity:1" />
    </linearGradient>
    <linearGradient
       inkscape:collect="always"
       xlink:href="#linearGradient6131"
       id="linearGradient3893"
       gradientUnits="userSpaceOnUse"
       gradientTransform="matrix(1.0119858,0,0,1.0119858,-0.89554075,-0.9871566)"
       x1="86.73793"
       y1="93.621468"
       x2="95.460213"
       y2="102.34375" />
    <radialGradient
       inkscape:collect="always"
       xlink:href="#linearGradient3913-5"
       id="radialGradient3919-5"
       cx="90.75"
       cy="110.25299"
       fx="90.75"
       fy="110.25299"
       r="18.750002"
       gradientTransform="matrix(1.3067347,0,0,1.3067347,-27.83617,-33.818441)"
       gradientUnits="userSpaceOnUse" />
    <linearGradient
       inkscape:collect="always"
       id="linearGradient3913-5">
      <stop
         style="stop-color:#ffffff;stop-opacity:1;"
         offset="0"
         id="stop3915-4" />
      <stop
         style="stop-color:#ffffff;stop-opacity:0;"
         offset="1"
         id="stop3917-7" />
    </linearGradient>
    <clipPath
       clipPathUnits="userSpaceOnUse"
       id="clipPath3889-6">
      <path
         sodipodi:nodetypes="cscscssc"
         inkscape:connector-curvature="0"
         id="path3891-5"
         d="m 112,82.502986 c 0,4.465301 -2.79749,6.409952 -5.27972,8.093625 -5.10854,3.46508 -14.939114,3.32536 -20.720284,3.40638 -0.081,5.781159 0.16586,15.504599 -3.29922,20.613139 -1.68367,2.48224 -5.29051,5.38687 -8.20078,5.38687 2.31803,0 4.74284,-1.33476 7.58402,-4.08481 9.14197,-8.84873 17.36714,-16.13535 25.673154,-25.297529 C 109.67612,88.503916 112,86.97878 112,82.502986 z"
         style="fill:url(#linearGradient3893);fill-opacity:1;stroke:none" />
    </clipPath>
    <filter
       color-interpolation-filters="sRGB"
       inkscape:collect="always"
       id="filter3909-6">
      <feGaussianBlur
         inkscape:collect="always"
         stdDeviation="0.43040059"
         id="feGaussianBlur3911-9" />
    </filter>
    <linearGradient
       inkscape:collect="always"
       xlink:href="#linearGradient3897-7"
       id="linearGradient3895-3"
       gradientUnits="userSpaceOnUse"
       gradientTransform="matrix(1.4094273,0,0,1.4111689,-46.598939,-46.228314)"
       x1="82.15696"
       y1="90.381706"
       x2="94.220871"
       y2="102.18401" />
    <linearGradient
       id="linearGradient3897-7">
      <stop
         style="stop-color:#fcfcfc;stop-opacity:1"
         offset="0"
         id="stop3899-4" />
      <stop
         id="stop3901-5"
         offset="0.52275378"
         style="stop-color:#f8f8f8;stop-opacity:1" />
      <stop
         style="stop-color:#f0efef;stop-opacity:1;"
         offset="0.72337759"
         id="stop3903-2" />
      <stop
         style="stop-color:#e3e1e1;stop-opacity:1;"
         offset="0.89024991"
         id="stop3905-5" />
      <stop
         style="stop-color:#cecbcb;stop-opacity:1"
         offset="1"
         id="stop3907-4" />
    </linearGradient>
    <clipPath
       clipPathUnits="userSpaceOnUse"
       id="clipPath6093-7">
      <path
         inkscape:connector-curvature="0"
         sodipodi:nodetypes="cccssccc"
         id="path6095-4"
         d="m 17.000001,8 0.782827,110 57.5,0 c 1.675283,0 3.119418,0.18058 4.9,-1.6 C 88.980763,107.60206 99.94047,96.548195 107.19904,89.224043 109.6396,86.761431 110,84.752873 110,82.5 L 110,8 z"
         style="fill:#ffffff;fill-opacity:1" />
    </clipPath>
    <radialGradient
       inkscape:collect="always"
       xlink:href="#linearGradient5982-7"
       id="radialGradient5988-0"
       cx="64"
       cy="64.004021"
       fx="63.793392"
       fy="47.274845"
       r="47.5"
       gradientTransform="matrix(1.689423,-0.08280186,0.06907651,1.3515102,-50.111719,-17.741619)"
       gradientUnits="userSpaceOnUse" />
    <linearGradient
       inkscape:collect="always"
       id="linearGradient5982-7">
      <stop
         style="stop-color:#ffffff;stop-opacity:1;"
         offset="0"
         id="stop5984-8" />
      <stop
         style="stop-color:#ffffff;stop-opacity:0;"
         offset="1"
         id="stop5986-6" />
    </linearGradient>
    <filter
       color-interpolation-filters="sRGB"
       inkscape:collect="always"
       id="filter6171-8"
       x="-0.47870937"
       width="1.9574188"
       y="-0.51275069"
       height="2.0255013">
      <feGaussianBlur
         inkscape:collect="always"
         stdDeviation="10.140743"
         id="feGaussianBlur6173-8" />
    </filter>
    <linearGradient
       inkscape:collect="always"
       xlink:href="#linearGradient4518-3"
       id="linearGradient4524-4"
       x1="72"
       y1="0"
       x2="72"
       y2="116.40091"
       gradientUnits="userSpaceOnUse"
       gradientTransform="matrix(1.003095,0,0,0.98228452,-1.7655502,0.69098836)" />
    <linearGradient
       id="linearGradient4518-3">
      <stop
         style="stop-color:#eeecec;stop-opacity:1"
         offset="0"
         id="stop4520-1" />
      <stop
         id="stop5969-4"
         offset="0.40000001"
         style="stop-color:#f4f4f4;stop-opacity:1" />
      <stop
         style="stop-color:#f6f5f5;stop-opacity:1"
         offset="1"
         id="stop4522-9" />
    </linearGradient>
    <filter
       inkscape:collect="always"
       id="filter4123">
      <feGaussianBlur
         inkscape:collect="always"
         stdDeviation="2.028"
         id="feGaussianBlur4125" />
    </filter>
    <filter
       inkscape:collect="always"
       id="filter4087"
       x="-0.16465071"
       width="1.3293014"
       y="-0.2041295"
       height="1.408259">
      <feGaussianBlur
         inkscape:collect="always"
         stdDeviation="4.2234282"
         id="feGaussianBlur4089" />
    </filter>
    <filter
       inkscape:collect="always"
       id="filter3814">
      <feGaussianBlur
         inkscape:collect="always"
         stdDeviation="1.8077645"
         id="feGaussianBlur3816" />
    </filter>
    <filter
       inkscape:collect="always"
       id="filter4068"
       color-interpolation-filters="sRGB">
      <feGaussianBlur
         inkscape:collect="always"
         stdDeviation="0.53395062"
         id="feGaussianBlur4070" />
    </filter>
    <clipPath
       clipPathUnits="userSpaceOnUse"
       id="clipPath4058">
      <path
         id="path4060"
         d="m 272.31401,56.363433 0,4.382723 c 0,3.397866 -2.88073,6.257747 -6.16572,6.257747 l -9.85825,0 c -2.70034,0 -4.93488,2.311125 -4.93488,5.015396 l 0,9.398124 c 0,2.674758 2.32589,4.248025 4.93488,5.015406 3.12421,0.918633 6.12016,1.084662 9.85825,0 2.48475,-0.719417 4.93488,-2.167254 4.93488,-5.015406 l 0,-3.761547 -9.85825,0 0,-1.253855 9.85825,0 4.93488,0 c 2.86843,0 3.93732,-2.000787 4.93487,-5.003892 1.03044,-3.091652 0.9866,-6.064778 0,-10.0308 -0.70889,-2.855535 -2.0628,-5.003896 -4.93487,-5.003896 l -3.70404,0 z m -5.54454,23.800141 c 1.02313,0 1.85201,0.838326 1.85201,1.875024 0,1.040383 -0.82888,1.886523 -1.85201,1.886523 -1.01949,0 -1.85202,-0.84614 -1.85202,-1.886523 0,-1.036698 0.83253,-1.875024 1.85202,-1.875024 z"
         style="fill:url(#radialGradient4062);fill-opacity:1"
         inkscape:connector-curvature="0" />
    </clipPath>
    <linearGradient
       inkscape:collect="always"
       id="linearGradient4072">
      <stop
         style="stop-color:#bd7200;stop-opacity:1;"
         offset="0"
         id="stop4074" />
      <stop
         style="stop-color:#bd7200;stop-opacity:0;"
         offset="1"
         id="stop4076" />
    </linearGradient>
    <linearGradient
       y2="50.460991"
       x2="250.10233"
       y1="84.024391"
       x1="269.48016"
       gradientUnits="userSpaceOnUse"
       id="linearGradient3461"
       xlink:href="#linearGradient4072"
       inkscape:collect="always" />
    <filter
       inkscape:collect="always"
       id="filter4016"
       color-interpolation-filters="sRGB">
      <feGaussianBlur
         inkscape:collect="always"
         stdDeviation="0.42496947"
         id="feGaussianBlur4018" />
    </filter>
    <clipPath
       clipPathUnits="userSpaceOnUse"
       id="clipPath3978">
      <path
         inkscape:connector-curvature="0"
         style="fill:url(#radialGradient3982);fill-opacity:1"
         d="m 261.00635,45.814989 c -1.68725,0.0078 -3.29854,0.151738 -4.71631,0.402612 -4.17657,0.737864 -4.93488,2.282274 -4.93488,5.130432 l 0,3.76155 9.86976,0 0,1.25385 -9.86976,0 -3.70403,0 c -2.86843,0 -5.3801,1.724089 -6.16572,5.003896 -0.9062,3.759421 -0.9464,6.105361 0,10.0308 0.70158,2.921943 2.37704,5.003892 5.24546,5.003892 l 3.39345,0 0,-4.509257 c 0,-3.25767 2.81861,-6.131207 6.16572,-6.131208 l 9.85825,0 c 2.74419,0 4.93488,-2.259476 4.93488,-5.0154 l 0,-9.398123 c 0,-2.674759 -2.25646,-4.684025 -4.93488,-5.130432 -1.69547,-0.282233 -3.45468,-0.410452 -5.14194,-0.402612 z m -5.33748,3.025344 c 1.01947,0 1.85201,0.846138 1.85201,1.886527 0,1.036701 -0.83254,1.875023 -1.85201,1.875023 -1.02314,0 -1.85202,-0.838323 -1.85202,-1.875023 0,-1.040389 0.82888,-1.886527 1.85202,-1.886527 z"
         id="path3980" />
    </clipPath>
    <linearGradient
       inkscape:collect="always"
       id="linearGradient3996">
      <stop
         style="stop-color:#00296b;stop-opacity:1;"
         offset="0"
         id="stop3998" />
      <stop
         style="stop-color:#00296b;stop-opacity:0;"
         offset="1"
         id="stop4000" />
    </linearGradient>
    <linearGradient
       y2="35.283524"
       x2="260.32443"
       y1="74.543365"
       x1="260.32443"
       gradientUnits="userSpaceOnUse"
       id="linearGradient3459"
       xlink:href="#linearGradient3996"
       inkscape:collect="always" />
    <linearGradient
       inkscape:collect="always"
       id="linearGradient3920">
      <stop
         style="stop-color:#fff660;stop-opacity:1;"
         offset="0"
         id="stop3922" />
      <stop
         style="stop-color:#fff660;stop-opacity:0;"
         offset="1"
         id="stop3924" />
    </linearGradient>
    <radialGradient
       r="15.17712"
       fy="78.914383"
       fx="174.28229"
       cy="78.914383"
       cx="174.28229"
       gradientTransform="matrix(1,0,0,1.0154073,0,-1.1058521)"
       gradientUnits="userSpaceOnUse"
       id="radialGradient3457"
       xlink:href="#linearGradient3920"
       inkscape:collect="always" />
    <linearGradient
       inkscape:collect="always"
       id="linearGradient3910">
      <stop
         style="stop-color:#3c9ae3;stop-opacity:1;"
         offset="0"
         id="stop3912" />
      <stop
         style="stop-color:#3c9ae3;stop-opacity:0;"
         offset="1"
         id="stop3914" />
    </linearGradient>
    <radialGradient
       r="15.146283"
       fy="67.545692"
       fx="163.68689"
       cy="67.545692"
       cx="163.68689"
       gradientTransform="matrix(1,0,0,1.0097319,0,-0.594699)"
       gradientUnits="userSpaceOnUse"
       id="radialGradient3455"
       xlink:href="#linearGradient3910"
       inkscape:collect="always" />
    <linearGradient
       inkscape:collect="always"
       id="linearGradient3900">
      <stop
         style="stop-color:#ffffc3;stop-opacity:1;"
         offset="0"
         id="stop3902" />
      <stop
         style="stop-color:#ffffc3;stop-opacity:0;"
         offset="1"
         id="stop3904" />
    </linearGradient>
    <linearGradient
       y2="79.982071"
       x2="262.77051"
       y1="57.942139"
       x1="250.04576"
       gradientTransform="translate(-77.251416,0)"
       gradientUnits="userSpaceOnUse"
       id="linearGradient3453"
       xlink:href="#linearGradient3900"
       inkscape:collect="always" />
    <linearGradient
       inkscape:collect="always"
       id="linearGradient3892">
      <stop
         style="stop-color:#c3fbff;stop-opacity:1;"
         offset="0"
         id="stop3894" />
      <stop
         style="stop-color:#c3fbff;stop-opacity:0;"
         offset="1"
         id="stop3896" />
    </linearGradient>
    <linearGradient
       y2="54.749817"
       x2="250.71875"
       y1="29.939087"
       x1="236.39427"
       gradientTransform="translate(-77.251416,0)"
       gradientUnits="userSpaceOnUse"
       id="linearGradient3451"
       xlink:href="#linearGradient3892"
       inkscape:collect="always" />
    <linearGradient
       id="linearGradient4671">
      <stop
         style="stop-color:#ffd43b;stop-opacity:1;"
         offset="0"
         id="stop4673" />
      <stop
         style="stop-color:#fff762;stop-opacity:1;"
         offset="1"
         id="stop4675" />
    </linearGradient>
    <linearGradient
       y2="114.55355"
       x2="115.65335"
       y1="175.34167"
       x1="150.46764"
       gradientTransform="matrix(0.20707289,0,0,0.20907203,138.52233,41.506976)"
       gradientUnits="userSpaceOnUse"
       id="linearGradient3449"
       xlink:href="#linearGradient4671"
       inkscape:collect="always" />
    <linearGradient
       id="linearGradient4689">
      <stop
         style="stop-color:#3ea3f0;stop-opacity:1;"
         offset="0"
         id="stop4691" />
      <stop
         style="stop-color:#306998;stop-opacity:1;"
         offset="1"
         id="stop4693" />
    </linearGradient>
    <linearGradient
       y2="114.39767"
       x2="135.66525"
       y1="40.700394"
       x1="61.256485"
       gradientTransform="matrix(0.20707289,0,0,0.20907203,138.52233,41.506976)"
       gradientUnits="userSpaceOnUse"
       id="linearGradient3447"
       xlink:href="#linearGradient4689"
       inkscape:collect="always" />
    <filter
       inkscape:collect="always"
       id="filter3866"
       color-interpolation-filters="sRGB">
      <feGaussianBlur
         inkscape:collect="always"
         stdDeviation="0.42318229"
         id="feGaussianBlur3868" />
    </filter>
    <linearGradient
       inkscape:collect="always"
       id="linearGradient4085">
      <stop
         style="stop-color:#000000;stop-opacity:1;"
         offset="0"
         id="stop4087" />
      <stop
         style="stop-color:#000000;stop-opacity:0;"
         offset="1"
         id="stop4089" />
    </linearGradient>
    <linearGradient
       y2="47.255657"
       x2="150.10072"
       y1="90.565948"
       x1="184.25531"
       gradientUnits="userSpaceOnUse"
       id="linearGradient3445"
       xlink:href="#linearGradient4085"
       inkscape:collect="always" />
    <clipPath
       id="clipPath4002"
       clipPathUnits="userSpaceOnUse">
      <path
         sodipodi:nodetypes="ccssscccccc"
         inkscape:connector-curvature="0"
         id="path4004"
         d="m 136.60024,28.364047 c -0.17909,0 -0.26348,0.123636 -0.26348,0.263484 l 0,65.202172 c 0,0.432947 0.35798,0.790168 0.79045,0.790453 l 25.03101,0.01649 c 0.028,1.8e-5 1.72523,-0.0042 2.08864,2.7e-5 3.44688,-2.373288 15.79214,-15.257495 20.50599,-20.001167 0.77826,-0.872918 0.24114,-0.195015 0.76617,-0.847081 l 3e-5,-45.160898 c 0,-0.170061 -0.086,-0.263484 -0.26348,-0.263484 z"
         style="opacity:0.84653476;fill:url(#radialGradient4006);fill-opacity:1" />
    </clipPath>
    <clipPath
       id="clipPath5480"
       clipPathUnits="userSpaceOnUse">
      <path
         style="opacity:0.84653476;fill:url(#radialGradient5484);fill-opacity:1"
         d="m 18,8.5 c -0.339844,0 -0.5,0.2346178 -0.5,0.5 l 0,108.96875 c 0,0.82158 0.679323,1.49953 1.5,1.5 L 74,119.5 c 0.05307,3e-5 0.997884,-0.008 1.6875,5e-5 10.098603,-3.99538 25.4133,-22.753284 34.35853,-31.755094 1.47685,-1.656484 1.11385,-1.151317 1.45391,-2.888706 L 111.5,9 c 0,-0.3227174 -0.16322,-0.5 -0.5,-0.5 z"
         id="path5482"
         inkscape:connector-curvature="0"
         sodipodi:nodetypes="ccssscccccc" />
    </clipPath>
    <filter
       id="filter4084"
       inkscape:collect="always">
      <feGaussianBlur
         id="feGaussianBlur4086"
         stdDeviation="1.4598961"
         inkscape:collect="always" />
    </filter>
    <filter
       height="1.408259"
       y="-0.2041295"
       width="1.3293014"
       x="-0.16465071"
       id="filter4087-6"
       inkscape:collect="always">
      <feGaussianBlur
         id="feGaussianBlur4089-4"
         stdDeviation="4.2234282"
         inkscape:collect="always" />
    </filter>
    <filter
       id="filter4123-2"
       inkscape:collect="always">
      <feGaussianBlur
         id="feGaussianBlur4125-6"
         stdDeviation="2.028"
         inkscape:collect="always" />
    </filter>
    <linearGradient
       id="linearGradient4518-3-0">
      <stop
         id="stop4520-1-6"
         offset="0"
         style="stop-color:#eeecec;stop-opacity:1" />
      <stop
         style="stop-color:#f4f4f4;stop-opacity:1"
         offset="0.40000001"
         id="stop5969-4-8" />
      <stop
         id="stop4522-9-9"
         offset="1"
         style="stop-color:#f6f5f5;stop-opacity:1" />
    </linearGradient>
    <linearGradient
       gradientTransform="matrix(1.013528,0,0,1.013266,-1.5133685,-1.3073648)"
       gradientUnits="userSpaceOnUse"
       y2="116.40091"
       x2="72"
       y1="0"
       x1="72"
       id="linearGradient4524-4-2"
       xlink:href="#linearGradient4518-3-0"
       inkscape:collect="always" />
    <filter
       height="2.0255013"
       y="-0.51275069"
       width="1.9574188"
       x="-0.47870937"
       id="filter6171-8-4"
       inkscape:collect="always"
       color-interpolation-filters="sRGB">
      <feGaussianBlur
         id="feGaussianBlur6173-8-9"
         stdDeviation="10.140743"
         inkscape:collect="always" />
    </filter>
    <linearGradient
       id="linearGradient5982-7-4"
       inkscape:collect="always">
      <stop
         id="stop5984-8-3"
         offset="0"
         style="stop-color:#ffffff;stop-opacity:1;" />
      <stop
         id="stop5986-6-1"
         offset="1"
         style="stop-color:#ffffff;stop-opacity:0;" />
    </linearGradient>
    <radialGradient
       gradientUnits="userSpaceOnUse"
       gradientTransform="matrix(1.7069944,-0.08541345,0.06979496,1.3941371,-50.362376,-20.218185)"
       r="47.5"
       fy="47.274845"
       fx="63.793392"
       cy="64.004021"
       cx="64"
       id="radialGradient5988-0-8"
       xlink:href="#linearGradient5982-7-4"
       inkscape:collect="always" />
    <clipPath
       id="clipPath6093-7-6"
       clipPathUnits="userSpaceOnUse">
      <path
         style="fill:#ffffff;fill-opacity:1"
         d="m 17.000001,8 0.782827,110 57.5,0 c 1.675283,0 3.119418,0.18058 4.9,-1.6 C 88.980763,107.60206 99.94047,96.548195 107.19904,89.224043 109.6396,86.761431 110,84.752873 110,82.5 L 110,8 z"
         id="path6095-4-8"
         sodipodi:nodetypes="cccssccc"
         inkscape:connector-curvature="0" />
    </clipPath>
    <linearGradient
       id="linearGradient3897-7-4">
      <stop
         id="stop3899-4-4"
         offset="0"
         style="stop-color:#fcfcfc;stop-opacity:1" />
      <stop
         style="stop-color:#f8f8f8;stop-opacity:1"
         offset="0.52275378"
         id="stop3901-5-3" />
      <stop
         id="stop3903-2-0"
         offset="0.72337759"
         style="stop-color:#f0efef;stop-opacity:1;" />
      <stop
         id="stop3905-5-7"
         offset="0.89024991"
         style="stop-color:#e3e1e1;stop-opacity:1;" />
      <stop
         id="stop3907-4-8"
         offset="1"
         style="stop-color:#cecbcb;stop-opacity:1" />
    </linearGradient>
    <linearGradient
       y2="102.18401"
       x2="94.220871"
       y1="90.381706"
       x1="82.15696"
       gradientTransform="matrix(1.3731411,0,0,1.4035776,-41.378546,-43.42319)"
       gradientUnits="userSpaceOnUse"
       id="linearGradient3895-3-7"
       xlink:href="#linearGradient3897-7-4"
       inkscape:collect="always" />
    <filter
       id="filter3909-6-5"
       inkscape:collect="always"
       color-interpolation-filters="sRGB">
      <feGaussianBlur
         id="feGaussianBlur3911-9-4"
         stdDeviation="0.43040059"
         inkscape:collect="always" />
    </filter>
    <clipPath
       id="clipPath3889-6-5"
       clipPathUnits="userSpaceOnUse">
      <path
         style="fill:url(#linearGradient3893-6);fill-opacity:1;stroke:none"
         d="m 112,82.502986 c 0,4.465301 -2.79749,6.409952 -5.27972,8.093625 -5.10854,3.46508 -14.939114,3.32536 -20.720284,3.40638 -0.081,5.781159 0.16586,15.504599 -3.29922,20.613139 -1.68367,2.48224 -5.29051,5.38687 -8.20078,5.38687 2.31803,0 4.74284,-1.33476 7.58402,-4.08481 9.14197,-8.84873 17.36714,-16.13535 25.673154,-25.297529 C 109.67612,88.503916 112,86.97878 112,82.502986 z"
         id="path3891-5-2"
         inkscape:connector-curvature="0"
         sodipodi:nodetypes="cscscssc" />
    </clipPath>
    <linearGradient
       id="linearGradient3913-5-3"
       inkscape:collect="always">
      <stop
         id="stop3915-4-7"
         offset="0"
         style="stop-color:#ffffff;stop-opacity:1;" />
      <stop
         id="stop3917-7-4"
         offset="1"
         style="stop-color:#ffffff;stop-opacity:0;" />
    </linearGradient>
    <radialGradient
       gradientUnits="userSpaceOnUse"
       gradientTransform="matrix(1.3067347,0,0,1.3067347,-27.83617,-33.818441)"
       r="18.750002"
       fy="110.25299"
       fx="90.75"
       cy="110.25299"
       cx="90.75"
       id="radialGradient3919-5-9"
       xlink:href="#linearGradient3913-5-3"
       inkscape:collect="always" />
    <linearGradient
       y2="102.34375"
       x2="95.460213"
       y1="93.621468"
       x1="86.73793"
       gradientTransform="matrix(1.0119858,0,0,1.0119858,-0.89554075,-0.9871566)"
       gradientUnits="userSpaceOnUse"
       id="linearGradient3893-6"
       xlink:href="#linearGradient6131-5"
       inkscape:collect="always" />
    <linearGradient
       id="linearGradient6131-5">
      <stop
         style="stop-color:#fcfcfc;stop-opacity:1"
         offset="0"
         id="stop6133-5" />
      <stop
         id="stop6135-4"
         offset="0.52275378"
         style="stop-color:#f8f8f8;stop-opacity:1" />
      <stop
         style="stop-color:#f0efef;stop-opacity:1;"
         offset="0.77457333"
         id="stop6141-7" />
      <stop
         style="stop-color:#e3e1e1;stop-opacity:1;"
         offset="0.90122044"
         id="stop6139-6" />
      <stop
         style="stop-color:#cecbcb;stop-opacity:1"
         offset="1"
         id="stop6137-5" />
    </linearGradient>
    <linearGradient
       inkscape:collect="always"
       xlink:href="#linearGradient3897-7-4"
       id="linearGradient3371"
       gradientUnits="userSpaceOnUse"
       gradientTransform="matrix(1.3731411,0,0,1.4035776,-83.580439,153.46298)"
       x1="82.15696"
       y1="90.381706"
       x2="94.220871"
       y2="102.18401" />
    <radialGradient
       inkscape:collect="always"
       xlink:href="#linearGradient5982-7-4"
       id="radialGradient3435"
       gradientUnits="userSpaceOnUse"
       gradientTransform="matrix(1.7069944,-0.08541345,0.06979496,1.3941371,-92.564269,176.66798)"
       cx="64"
       cy="64.004021"
       fx="63.793392"
       fy="47.274845"
       r="47.5" />
    <linearGradient
       inkscape:collect="always"
       xlink:href="#linearGradient4518-3-0"
       id="linearGradient3438"
       gradientUnits="userSpaceOnUse"
       gradientTransform="matrix(1.013528,0,0,1.013266,-43.715261,195.57881)"
       x1="72"
       y1="0"
       x2="72"
       y2="116.40091" />
    <linearGradient
       inkscape:collect="always"
       xlink:href="#linearGradient4085"
       id="linearGradient3443"
       gradientUnits="userSpaceOnUse"
       x1="184.25531"
       y1="90.565948"
       x2="150.10072"
       y2="47.255657" />
    <linearGradient
       inkscape:collect="always"
       xlink:href="#linearGradient4689"
       id="linearGradient3446"
       gradientUnits="userSpaceOnUse"
       gradientTransform="matrix(0.20707289,0,0,0.20907203,138.52233,41.506976)"
       x1="61.256485"
       y1="40.700394"
       x2="135.66525"
       y2="114.39767" />
    <linearGradient
       inkscape:collect="always"
       xlink:href="#linearGradient4671"
       id="linearGradient3448"
       gradientUnits="userSpaceOnUse"
       gradientTransform="matrix(0.20707289,0,0,0.20907203,138.52233,41.506976)"
       x1="150.46764"
       y1="175.34167"
       x2="115.65335"
       y2="114.55355" />
    <linearGradient
       inkscape:collect="always"
       xlink:href="#linearGradient3892"
       id="linearGradient3450"
       gradientUnits="userSpaceOnUse"
       gradientTransform="translate(-77.251416,0)"
       x1="236.39427"
       y1="29.939087"
       x2="250.71875"
       y2="54.749817" />
    <linearGradient
       inkscape:collect="always"
       xlink:href="#linearGradient3900"
       id="linearGradient3452"
       gradientUnits="userSpaceOnUse"
       gradientTransform="translate(-77.251416,0)"
       x1="250.04576"
       y1="57.942139"
       x2="262.77051"
       y2="79.982071" />
    <radialGradient
       inkscape:collect="always"
       xlink:href="#linearGradient3910"
       id="radialGradient3454"
       gradientUnits="userSpaceOnUse"
       gradientTransform="matrix(1,0,0,1.0097319,0,-0.594699)"
       cx="163.68689"
       cy="67.545692"
       fx="163.68689"
       fy="67.545692"
       r="15.146283" />
    <radialGradient
       inkscape:collect="always"
       xlink:href="#linearGradient3920"
       id="radialGradient3456"
       gradientUnits="userSpaceOnUse"
       gradientTransform="matrix(1,0,0,1.0154073,0,-1.1058521)"
       cx="174.28229"
       cy="78.914383"
       fx="174.28229"
       fy="78.914383"
       r="15.17712" />
    <linearGradient
       inkscape:collect="always"
       xlink:href="#linearGradient3996"
       id="linearGradient3458"
       gradientUnits="userSpaceOnUse"
       x1="260.32443"
       y1="74.543365"
       x2="260.32443"
       y2="35.283524" />
    <linearGradient
       inkscape:collect="always"
       xlink:href="#linearGradient4072"
       id="linearGradient3460"
       gradientUnits="userSpaceOnUse"
       x1="269.48016"
       y1="84.024391"
       x2="250.10233"
       y2="50.460991" />
  </defs>
  <sodipodi:namedview
     id="base"
     pagecolor="#ffffff"
     bordercolor="#666666"
     borderopacity="1.0"
     inkscape:pageopacity="0.0"
     inkscape:pageshadow="2"
     inkscape:zoom="0.70710675"
     inkscape:cx="18.627485"
     inkscape:cy="54.108561"
     inkscape:document-units="px"
     inkscape:current-layer="layer1"
     width="128px"
     height="128px"
     showgrid="true"
     inkscape:grid-points="true"
     showguides="true"
     inkscape:guide-bbox="true"
     inkscape:window-width="1224"
     inkscape:window-height="757"
     inkscape:window-x="0"
     inkscape:window-y="383"
     inkscape:snap-global="true"
     inkscape:window-maximized="0"
     inkscape:snap-page="true">
    <inkscape:grid
       id="GridFromPre046Settings"
       type="xygrid"
       originx="0px"
       originy="0px"
       spacingx="5.8181px"
       spacingy="5.8181px"
       color="#0000ff"
       empcolor="#0000ff"
       opacity="0.2"
       empopacity="0.4"
       empspacing="2"
       visible="true"
       enabled="true"
       snapvisiblegridlinesonly="true" />
    <sodipodi:guide
       orientation="1,0"
       position="-68,29.325902"
       id="guide4564" />
    <sodipodi:guide
       orientation="1,0"
       position="-121.62237,135.0574"
       id="guide3859" />
    <sodipodi:guide
       orientation="0,1"
       position="38.581514,-74.688154"
       id="guide4360" />
  </sodipodi:namedview>
  <metadata
     id="metadata2611">
    <rdf:RDF>
      <cc:Work
         rdf:about="">
        <dc:format>image/svg+xml</dc:format>
        <dc:type
           rdf:resource="http://purl.org/dc/dcmitype/StillImage" />
        <dc:title></dc:title>
      </cc:Work>
    </rdf:RDF>
  </metadata>
  <g
     inkscape:label="Livello 1"
     inkscape:groupmode="layer"
     id="layer1">
    <path
       style="opacity:0.45606695;fill:#000000;fill-opacity:1;filter:url(#filter4123)"
       d="m 13.333,5.3364 0,118.3304 49.8545,-0.0668 c 2.115554,-0.003 4.528919,-1.77169 7,-4.25 0.71234,-0.71442 1.440746,-1.39395 2.15625,-2.09375 0.415612,-0.40649 0.832187,-0.81443 1.25,-1.21875 7.773958,-7.40962 26.98341,-25.122599 34.21875,-33.099999 0.42065,-0.42064 0.81207,-0.8111 1.15625,-1.1875 1.46444,-1.49766 2.76158,-2.8378 2.99375,-5.8625 L 112,75.156251 111.9972,5.3364 z"
       id="path5990"
       inkscape:connector-curvature="0"
       sodipodi:nodetypes="ccsssccccccc"
       transform="matrix(1.003095,0,0,0.98228452,-1.7655506,0.69098557)" />
    <path
       sodipodi:type="inkscape:offset"
       inkscape:radius="1.0279198"
       inkscape:original="M 13.1875 4.53125 C 12.818918 4.609246 12.529956 4.967008 12.53125 5.34375 L 12.53125 123.65625 C 12.53885 124.07954 12.920464 124.4611 13.34375 124.46875 L 62.15625 124.46875 C 63.930251 124.46875 65.829207 124.74865 68.6875 122.8125 C 68.829003 122.58432 71.218784 120.82456 70.53125 121.25 C 80.188854 112.07585 98.162197 92.41186 109.34375 81.09375 C 111.06182 79.375681 112.8125 77.674752 112.8125 73.3125 L 112.8125 5.34375 C 112.80483 4.9204809 112.42327 4.5388981 112 4.53125 L 13.34375 4.53125 C 13.29182 4.52633 13.239428 4.52633 13.1875 4.53125 z "
       style="fill:#000000;fill-opacity:1;filter:url(#filter3814)"
       id="path3314"
       d="m 13.09375,3.5 a 1.0280226,1.0280226 0 0 0 -0.125,0.03125 C 12.083764,3.7185227 11.496893,4.4391709 11.5,5.34375 l 0,118.3125 a 1.0280226,1.0280226 0 0 0 0,0.0313 c 0.01849,1.02971 0.782949,1.79389 1.8125,1.8125 a 1.0280226,1.0280226 0 0 0 0.03125,0 l 48.8125,0 c 1.665878,0 4.022349,0.23675 7.09375,-1.84375 a 1.0280226,1.0280226 0 0 0 0.28125,-0.21875 c 0.0578,-0.0515 0.139644,-0.12864 0.25,-0.21875 0.220712,-0.18022 0.516774,-0.41745 0.78125,-0.625 0.264476,-0.20755 0.495635,-0.39648 0.65625,-0.53125 0.04015,-0.0337 0.07966,-0.051 0.125,-0.0937 0.02267,-0.0214 0.04798,-0.0408 0.09375,-0.0937 0.02288,-0.0265 0.04727,-0.051 0.09375,-0.125 0.0081,-0.013 0.01807,-0.0366 0.03125,-0.0625 9.780644,-9.33282 27.440979,-28.680919 38.5,-39.875 1.71105,-1.711053 3.78125,-3.862728 3.78125,-8.5 l 0,-67.96875 a 1.0280226,1.0280226 0 0 0 0,-0.03125 C 113.82509,4.2829723 113.06085,3.5186039 112.03125,3.5 A 1.0280226,1.0280226 0 0 0 112,3.5 l -98.5625,0 c -0.03179,-0.00301 -0.06191,0.00137 -0.09375,0 -0.08491,-0.00365 -0.165226,-0.00803 -0.25,0 z"
       transform="matrix(1.003095,0,0,0.98228452,-1.7655506,0.69098557)" />
    <path
       style="fill:#ffffff;fill-opacity:1"
       d="m 11.608716,5.836076 0,116.330904 49.485099,0 c 1.680486,0 3.926459,-0.55989 7.021752,-3.56934 8.897609,-8.6509 32.175353,-31.250103 39.456483,-38.511869 2.44813,-2.441635 3.01026,-4.433083 3.01026,-6.66676 l -0.003,-67.582935 z"
       id="path34"
       sodipodi:nodetypes="cccssccc"
       inkscape:connector-curvature="0" />
    <path
       style="fill:url(#linearGradient4524-4);fill-opacity:1"
       d="m 17.07938,10.744349 c -0.340895,0 -0.501546,0.230461 -0.501546,0.491142 l 0,104.549779 c 0,0.80702 0.681425,1.474 1.504643,1.47343 l 44.496615,-0.0308 c 0.05324,-4e-5 0.812893,0.0229 1.504643,0.0308 1.783165,-0.0393 3.141667,-0.74038 4.369516,-1.56504 1.055122,-0.28588 25.815399,-23.810974 34.964739,-32.837827 1.36662,-1.348301 2.19223,-3.878226 2.19223,-4.808882 l 0,-66.81146 c 0,-0.317 -0.16372,-0.491143 -0.50156,-0.491143 z"
       id="path3967"
       inkscape:connector-curvature="0"
       sodipodi:nodetypes="ccsssccscccc" />
    <path
       sodipodi:nodetypes="ccssscccccc"
       inkscape:connector-curvature="0"
       id="path5980"
       d="m 17.07938,10.644349 c -0.340895,0 -0.501546,0.230461 -0.501546,0.491142 l 0,104.549779 c 0,0.80703 0.68144,1.46853 1.504643,1.47343 l 46.36344,0.27591 c 0.05324,3.2e-4 3.284015,-0.008 3.975766,5e-5 6.561216,-4.42387 26.757215,-26.379267 35.730127,-35.221607 0.65937,-0.724227 0.45902,-0.363513 1.45841,-1.578984 l 0,-69.498578 c 0,-0.317 -0.16372,-0.491143 -0.50156,-0.491143 z"
       style="opacity:0.84653476;fill:url(#radialGradient5988-0);fill-opacity:1" />
    <g
       transform="matrix(2.18553,0,0,2.18553,-297.96808,-84.507506)"
       id="g4093"
       clip-path="url(#clipPath4002)">
      <path
         style="fill:url(#linearGradient3443);fill-opacity:1;filter:url(#filter3866)"
         d="m 164.1,46.0125 c -1.68725,0.0078 -3.30098,0.155376 -4.71875,0.40625 -4.17657,0.737864 -4.9375,2.276842 -4.9375,5.125 l 0,3.78125 9.875,0 0,1.25 -9.875,0 -3.6875,0 c -2.86843,0 -5.37063,1.720193 -6.15625,5 -0.9062,3.759421 -0.9464,6.105811 0,10.03125 0.70158,2.921943 2.35033,5 5.21875,5 l 3.40625,0 0,-4.5 c 0,-3.25767 2.80914,-6.156249 6.15625,-6.15625 l 9.875,0 c 2.74419,0 4.9375,-2.244076 4.9375,-5 l 0,-9.40625 c 0,-2.674759 -2.25908,-4.678593 -4.9375,-5.125 -1.69547,-0.282233 -3.46899,-0.41409 -5.15625,-0.40625 z m -5.34375,3.03125 c 1.01947,0 1.875,0.834611 1.875,1.875 0,1.036701 -0.85553,1.875 -1.875,1.875 -1.02314,0 -1.84375,-0.8383 -1.84375,-1.875 0,-1.040389 0.82061,-1.875 1.84375,-1.875 z m 16.65625,7.53125 0,4.375 c 0,3.397866 -2.87126,6.25 -6.15625,6.25 l -9.875,0 c -2.70034,0 -4.9375,2.326979 -4.9375,5.03125 l 0,9.375 c 0,2.674758 2.32851,4.263869 4.9375,5.03125 3.12421,0.918633 6.13691,1.084662 9.875,0 2.48475,-0.719417 4.9375,-2.183098 4.9375,-5.03125 l 0,-3.75 -9.875,0 0,-1.25 9.875,0 4.9375,0 c 2.86843,0 3.9087,-1.996895 4.90625,-5 1.03044,-3.091652 0.9866,-6.065228 0,-10.03125 -0.70889,-2.855535 -2.03418,-5 -4.90625,-5 l -3.71875,0 z m -5.53125,23.78125 c 1.02313,0 1.84375,0.838302 1.84375,1.875 0,1.040383 -0.82062,1.90625 -1.84375,1.90625 -1.01949,0 -1.875,-0.865867 -1.875,-1.90625 0,-1.036698 0.85551,-1.875 1.875,-1.875 z"
         id="path3077"
         inkscape:connector-curvature="0" />
      <path
         inkscape:connector-curvature="0"
         style="fill:url(#linearGradient3446);fill-opacity:1"
         d="m 164.25635,45.814989 c -1.68725,0.0078 -3.29854,0.151738 -4.71631,0.402612 -4.17657,0.737864 -4.93488,2.282274 -4.93488,5.130432 l 0,3.76155 9.86976,0 0,1.25385 -9.86976,0 -3.70403,0 c -2.86843,0 -5.3801,1.724089 -6.16572,5.003896 -0.9062,3.759421 -0.9464,6.105361 0,10.0308 0.70158,2.921943 2.37704,5.003892 5.24546,5.003892 l 3.39345,0 0,-4.509257 c 0,-3.25767 2.81861,-6.131207 6.16572,-6.131208 l 9.85825,0 c 2.74419,0 4.93488,-2.259476 4.93488,-5.0154 l 0,-9.398123 c 0,-2.674759 -2.25646,-4.684025 -4.93488,-5.130432 -1.69547,-0.282233 -3.45468,-0.410452 -5.14194,-0.402612 z m -5.33748,3.025344 c 1.01947,0 1.85201,0.846138 1.85201,1.886527 0,1.036701 -0.83254,1.875023 -1.85201,1.875023 -1.02314,0 -1.85202,-0.838323 -1.85202,-1.875023 0,-1.040389 0.82888,-1.886527 1.85202,-1.886527 z"
         id="path1948" />
      <path
         inkscape:connector-curvature="0"
         style="fill:url(#linearGradient3448);fill-opacity:1"
         d="m 175.56401,56.363433 0,4.382723 c 0,3.397866 -2.88073,6.257747 -6.16572,6.257747 l -9.85825,0 c -2.70034,0 -4.93488,2.311125 -4.93488,5.015396 l 0,9.398124 c 0,2.674758 2.32589,4.248025 4.93488,5.015406 3.12421,0.918633 6.12016,1.084662 9.85825,0 2.48475,-0.719417 4.93488,-2.167254 4.93488,-5.015406 l 0,-3.761547 -9.85825,0 0,-1.253855 9.85825,0 4.93488,0 c 2.86843,0 3.93732,-2.000787 4.93487,-5.003892 1.03044,-3.091652 0.9866,-6.064778 0,-10.0308 -0.70889,-2.855535 -2.0628,-5.003896 -4.93487,-5.003896 l -3.70404,0 z m -5.54454,23.800141 c 1.02313,0 1.85201,0.838326 1.85201,1.875024 0,1.040383 -0.82888,1.886523 -1.85201,1.886523 -1.01949,0 -1.85202,-0.84614 -1.85202,-1.886523 0,-1.036698 0.83253,-1.875024 1.85202,-1.875024 z"
         id="path1950" />
      <path
         style="fill:url(#linearGradient3450);fill-opacity:1"
         d="m 164.25,46.3125 c -1.65736,0.0077 -3.23472,0.128991 -4.625,0.375 -2.03881,0.360191 -3.1465,0.919244 -3.75,1.625 -0.6011,0.702945 -0.78125,1.652851 -0.78125,3.03125 l 0,2.90625 c 2e-5,0.196344 0.17866,0.37498 0.375,0.375 l 9,0 c 0.3723,0 0.502,0.131401 0.502,0.5 l 0,1.25 c 0,0.305778 -0.0801,0.5 -0.502,0.5 l -9.875,0 -3.6875,0 c -2.64515,0 -4.90788,1.513267 -5.65625,4.5625 -0.002,0.01016 0.002,0.02106 0,0.03125 -0.001,0.0043 -0.0302,-0.0043 -0.0313,0 -4.3e-4,0.01041 -4.3e-4,0.02084 0,0.03125 -0.1068,0.443074 -0.17203,0.87075 -0.25,1.25 -0.0394,0.226767 0.17719,0.460061 0.40625,0.4375 12.82974,-0.722986 23.54565,-4.850038 28.375,-10.71875 0.0602,-0.06826 0.0942,-0.159012 0.0937,-0.25 l 0,-0.875 c 0,-2.401107 -2.04735,-4.242263 -4.53125,-4.65625 -1.66784,-0.277633 -3.40537,-0.3827 -5.0625,-0.375 z m -5.34375,2.03125 c 1.28613,0 2.375,1.066508 2.375,2.375 0,1.306568 -1.08683,2.375 -2.375,2.375 -1.28716,0 -2.34375,-1.085052 -2.34375,-2.375 0,-1.291947 1.05863,-2.375 2.34375,-2.375 z"
         id="path4080"
         inkscape:connector-curvature="0"
         sodipodi:nodetypes="ccsscccccccsccccccccscccsssss" />
      <path
         style="fill:url(#linearGradient3452);fill-opacity:1"
         d="m 176.09233,56.90625 0,3.84375 c 0,3.696625 -3.09554,6.78125 -6.6875,6.78125 l -9.875,0 c -2.39567,0 -4.40625,2.088213 -4.40625,4.5 l 0,0.25 c 0.26327,0.003 0.51656,0.03125 0.78125,0.03125 11.76488,0 22.17475,-2.924104 28.4375,-7.40625 -0.11574,-1.060471 -0.31808,-2.172488 -0.625,-3.40625 -0.34287,-1.381123 -0.86192,-2.54851 -1.5625,-3.34375 -0.70058,-0.79524 -1.57096,-1.25 -2.875,-1.25 l -3.1875,0 z"
         id="path3882"
         inkscape:connector-curvature="0" />
      <path
         id="path3908"
         d="m 164.25635,45.814989 c -1.68725,0.0078 -3.29854,0.151738 -4.71631,0.402612 -4.17657,0.737864 -4.93488,2.282274 -4.93488,5.130432 l 0,3.76155 9.86976,0 0,1.25385 -9.86976,0 -3.70403,0 c -2.86843,0 -5.3801,1.724089 -6.16572,5.003896 -0.9062,3.759421 -0.9464,6.105361 0,10.0308 0.70158,2.921943 2.37704,5.003892 5.24546,5.003892 l 3.39345,0 0,-4.509257 c 0,-3.25767 2.81861,-6.131207 6.16572,-6.131208 l 9.85825,0 c 2.74419,0 4.93488,-2.259476 4.93488,-5.0154 l 0,-9.398123 c 0,-2.674759 -2.25646,-4.684025 -4.93488,-5.130432 -1.69547,-0.282233 -3.45468,-0.410452 -5.14194,-0.402612 z m -5.33748,3.025344 c 1.01947,0 1.85201,0.846138 1.85201,1.886527 0,1.036701 -0.83254,1.875023 -1.85201,1.875023 -1.02314,0 -1.85202,-0.838323 -1.85202,-1.875023 0,-1.040389 0.82888,-1.886527 1.85202,-1.886527 z"
         style="fill:url(#radialGradient3454);fill-opacity:1"
         inkscape:connector-curvature="0" />
      <path
         id="path3918"
         d="m 175.56401,56.363433 0,4.382723 c 0,3.397866 -2.88073,6.257747 -6.16572,6.257747 l -9.85825,0 c -2.70034,0 -4.93488,2.311125 -4.93488,5.015396 l 0,9.398124 c 0,2.674758 2.32589,4.248025 4.93488,5.015406 3.12421,0.918633 6.12016,1.084662 9.85825,0 2.48475,-0.719417 4.93488,-2.167254 4.93488,-5.015406 l 0,-3.761547 -9.85825,0 0,-1.253855 9.85825,0 4.93488,0 c 2.86843,0 3.93732,-2.000787 4.93487,-5.003892 1.03044,-3.091652 0.9866,-6.064778 0,-10.0308 -0.70889,-2.855535 -2.0628,-5.003896 -4.93487,-5.003896 l -3.70404,0 z m -5.54454,23.800141 c 1.02313,0 1.85201,0.838326 1.85201,1.875024 0,1.040383 -0.82888,1.886523 -1.85201,1.886523 -1.01949,0 -1.85202,-0.84614 -1.85202,-1.886523 0,-1.036698 0.83253,-1.875024 1.85202,-1.875024 z"
         style="fill:url(#radialGradient3456);fill-opacity:1"
         inkscape:connector-curvature="0" />
      <path
         style="font-size:medium;font-style:normal;font-variant:normal;font-weight:normal;font-stretch:normal;text-indent:0;text-align:start;text-decoration:none;line-height:normal;letter-spacing:normal;word-spacing:normal;text-transform:none;direction:ltr;block-progression:tb;writing-mode:lr-tb;text-anchor:start;baseline-shift:baseline;opacity:0.71966529;color:#000000;fill:url(#linearGradient3458);fill-opacity:1;stroke:none;stroke-width:0.30000001;marker:none;visibility:visible;display:inline;overflow:visible;filter:url(#filter4016);enable-background:accumulate;font-family:Sans;-inkscape-font-specification:Sans"
         d="m 263.87262,42.253299 c -1.69534,0.0078 -6.76986,-1.923433 -8.19714,-1.670877 -2.10441,0.371781 -17.77395,-1.799962 -18.51923,-0.926172 -0.74528,0.87379 8.50763,9.49997 8.44984,10.936199 l -0.13258,3.295114 0,0.125 0.125,0 -6.5889,0.441942 4.11006,0.703585 0.31332,-0.353554 -1.87554,0.08839 c -2.92529,0.13786 -2.50757,1.87473 -3.30729,5.213388 -0.90929,3.772258 -0.90563,7.833512 0.0442,11.773129 0.35523,1.479466 -0.50511,5.175257 0.38534,6.086929 0.89045,0.911672 4.10349,4.20681 5.4758,3.678459 l 5.39499,-2.077126 8.28797,2.253903 0,-0.15625 0.13259,-7.46101 c 0.0563,-3.170647 2.20986,-1.611896 4.85095,-3.525126 l 3.59943,-2.607456 c 2.28903,-1.658195 6.51148,-0.922189 7.2722,-3.653649 l 3.57973,-12.853395 c 0.74026,-2.657963 -3.8411,-8.758372 -6.57804,-9.214532 -1.70479,-0.283784 -5.12735,-0.104768 -6.8227,-0.09689 z M 261,45.96875 c 1.67918,-0.0078 3.43885,0.125568 5.125,0.40625 2.6199,0.436654 4.8125,2.378352 4.8125,4.96875 l 0,9.40625 c 0,2.676434 -2.1194,4.875 -4.78125,4.875 l -9.875,0 c -3.43296,10e-7 -6.3125,2.937058 -6.3125,6.28125 l 0,4.34375 -3.25,0 c -1.39792,0 -2.47272,-0.483961 -3.3125,-1.34375 -0.83978,-0.859789 -1.4349,-2.088773 -1.78125,-3.53125 -0.94298,-3.911261 -0.90311,-6.222166 0,-9.96875 0.77152,-3.220956 3.22293,-4.90625 6.03125,-4.90625 l 3.6875,0 9.875,0 0.15625,0 0,-0.125 0,-1.25 0,-0.15625 -0.15625,0 -9.71875,0 0,-3.625 c 0,-1.410767 0.19699,-2.45508 0.875,-3.25 0.67801,-0.79492 1.86534,-1.352667 3.9375,-1.71875 1.40826,-0.249192 3.00834,-0.398487 4.6875,-0.40625 z m -5.34375,2.71875 c -1.10584,0 -2,0.911191 -2,2.03125 0,1.116654 0.89492,2.03125 2,2.03125 1.1017,0 2,-0.914242 2,-2.03125 0,-1.120411 -0.89753,-2.03125 -2,-2.03125 z"
         clip-path="url(#clipPath3978)"
         id="path3936"
         inkscape:connector-curvature="0"
         sodipodi:nodetypes="ccssccccccsccsscccsssssccccssssscssccsccccccccssccsssss"
         transform="translate(-96.747911,0)" />
      <path
         style="opacity:0.71966529;fill:url(#linearGradient3460);fill-opacity:1;stroke:none;filter:url(#filter4068)"
         d="m 247,49 0,44.5 42,0 0,-44.5 -42,0 z m 25.3125,7.375 3.71875,0 c 2.87207,0 4.19736,2.144465 4.90625,5 0.9866,3.966022 1.03044,6.939598 0,10.03125 -0.99755,3.003105 -2.03782,5 -4.90625,5 l -4.9375,0 -9.875,0 0,1.25 9.875,0 0,3.75 c 0,2.848152 -2.45275,4.311833 -4.9375,5.03125 -3.73809,1.084662 -6.75079,0.918633 -9.875,0 -2.60899,-0.767381 -4.9375,-2.356492 -4.9375,-5.03125 l 0,-9.375 c 0,-2.704271 2.23716,-5.03125 4.9375,-5.03125 l 9.875,0 c 3.28499,0 6.15625,-2.852134 6.15625,-6.25 l 0,-4.375 z m -5.53125,23.78125 c -1.01949,0 -1.875,0.838302 -1.875,1.875 0,1.040383 0.85551,1.90625 1.875,1.90625 1.02313,0 1.84375,-0.865867 1.84375,-1.90625 0,-1.036698 -0.82062,-1.875 -1.84375,-1.875 z"
         id="rect4039"
         clip-path="url(#clipPath4058)"
         inkscape:connector-curvature="0"
         transform="translate(-96.75,0)" />
    </g>
    <path
       style="fill:#000000"
       d=""
       id="path2197" />
    <path
       clip-path="url(#clipPath6093-7)"
       style="opacity:0.6056338;fill:#000000;fill-opacity:1;stroke:none;filter:url(#filter6171-8)"
       d="m 114.4,82.502986 c 0,4.465301 -9.3766,4.299815 -11.85883,5.983488 -5.108537,3.46508 -16.574334,-0.810699 -22.355504,-0.729679 -0.081,5.781159 0.365076,18.386735 0.365076,24.536755 0,2.97817 -3.440475,11.20945 -6.350745,11.20945 -2.091359,1.5337 3.488204,8.21101 6.734971,5.31989 9.501888,-8.46107 35.131682,-30.022701 43.350822,-39.262886 2.04044,-2.29392 -4.90514,-9.844666 -9.88579,-7.057018 z"
       id="path6153"
       inkscape:connector-curvature="0"
       sodipodi:nodetypes="cscscssc"
       transform="matrix(1.258302,0,0,1.2610357,-31.355772,-28.164007)" />
    <path
       sodipodi:nodetypes="cscscssc"
       inkscape:connector-curvature="0"
       id="path6081"
       d="m 113.9,82.502986 c 0,4.465301 -7.96273,7.457662 -10.95287,7.881439 -6.394981,0.906328 -15.304541,-0.844131 -21.085711,-0.763111 -0.081,5.781159 3.397918,20.001056 -0.06716,25.109596 -1.68367,2.48224 -3.883991,8.07209 -6.794261,8.07209 -2.091359,1.5337 3.488204,11.21101 6.734971,8.31989 9.501888,-8.46107 45.998943,-30.20138 54.218083,-39.441569 2.04044,-2.29392 -17.0724,-11.965986 -22.05305,-9.178335 z"
       style="opacity:0.64319249;fill:#000000;fill-opacity:1;stroke:none;filter:url(#filter4087)"
       clip-path="url(#clipPath6093-7)"
       transform="matrix(1.3586765,0,0,1.3616521,-42.382653,-40.155635)" />
    <path
       style="fill:url(#linearGradient3895-3);fill-opacity:1;stroke:none"
       d="m 110.63455,70.194961 c 0,6.22666 -3.89615,8.938389 -7.35324,11.28619 -7.11485,4.831902 -21.758838,3.808851 -29.810472,3.92183 -0.112812,8.061568 0.720236,21.530529 -4.105701,28.654139 -2.344905,3.46138 -6.904898,8.42993 -10.95813,8.42993 3.228399,0 6.605514,-1.86127 10.562523,-5.69609 12.732335,-12.33915 24.187814,-22.50002 35.75589,-35.27627 2.67259,-2.951702 5.90913,-5.078441 5.90913,-11.319729 z"
       id="path6011"
       inkscape:connector-curvature="0"
       sodipodi:nodetypes="cscscssc" />
    <path
       style="fill:#ffffff;fill-opacity:1;stroke:none"
       d="m 110.66063,69.760596 c -0.44065,5.437134 -4.51314,7.338042 -6.73057,8.843942 -5.25734,3.570397 -12.241076,3.279514 -34.154353,3.279514 0,19.761338 0.513212,28.553598 -3.305002,33.382518 -2.272989,2.87466 -6.824021,6.07997 -10.532933,6.90254 5.082113,0 8.629228,-1.08751 11.949253,-4.30502 0.472301,-0.5418 1.415698,-1.55003 2.15657,-2.69493 3.94064,-5.81684 3.837814,-17.294735 3.837814,-29.263474 8.051633,-0.11295 22.202451,1.162156 29.317291,-3.669742 0.64822,-0.440215 2.63774,-2.020759 3.2183,-2.58944 3.22475,-3.158721 3.92397,-5.17219 4.24363,-9.885908 z M 55.937772,122.16911 c -0.219575,0.0485 -0.436533,0.0579 -0.652846,0.087 0.218648,-0.0234 0.432367,-0.0468 0.652846,-0.087 z"
       id="path6122"
       inkscape:connector-curvature="0"
       sodipodi:nodetypes="cscsccccsscccc" />
    <path
       style="fill:none;stroke:url(#radialGradient3919-5);stroke-width:1.82707405;stroke-linecap:butt;stroke-linejoin:miter;stroke-miterlimit:4;stroke-opacity:1;stroke-dasharray:none;filter:url(#filter3909-6)"
       d="M 108.97651,89.508691 79.934895,118.21077"
       id="path3873"
       inkscape:connector-curvature="0"
       sodipodi:nodetypes="cc"
       clip-path="url(#clipPath3889-6)"
       transform="matrix(1.3927341,0,0,1.3944553,-45.351691,-44.851769)" />
    <path
       inkscape:connector-curvature="0"
       style="fill:#000000"
       d=""
       id="path2197-6" />
  </g>
</svg>
