<?xml version="1.0" encoding="UTF-8" standalone="no"?>
<!-- Created with Inkscape (http://www.inkscape.org/) -->

<svg
   xmlns:dc="http://purl.org/dc/elements/1.1/"
   xmlns:cc="http://creativecommons.org/ns#"
   xmlns:rdf="http://www.w3.org/1999/02/22-rdf-syntax-ns#"
   xmlns:svg="http://www.w3.org/2000/svg"
   xmlns="http://www.w3.org/2000/svg"
   xmlns:xlink="http://www.w3.org/1999/xlink"
   xmlns:sodipodi="http://sodipodi.sourceforge.net/DTD/sodipodi-0.dtd"
   xmlns:inkscape="http://www.inkscape.org/namespaces/inkscape"
   width="128"
   height="128"
   id="svg2606"
   sodipodi:version="0.32"
   inkscape:version="0.48.0 r9654"
   version="1.0"
   sodipodi:docname="text-x-lilypond.svgz"
   inkscape:output_extension="org.inkscape.output.svgz.inkscape"
   inkscape:export-filename="/home/pinheiro/pics/oxygen-icons/scalable/mimetypes/small/22x22/text-x-lilypond.png"
   inkscape:export-xdpi="61.875"
   inkscape:export-ydpi="61.875">
  <defs
     id="defs2608">
    <linearGradient
       id="linearGradient6131">
      <stop
         id="stop6133"
         offset="0"
         style="stop-color:#fcfcfc;stop-opacity:1" />
      <stop
         style="stop-color:#f8f8f8;stop-opacity:1"
         offset="0.52275378"
         id="stop6135" />
      <stop
         id="stop6141"
         offset="0.77457333"
         style="stop-color:#f0efef;stop-opacity:1;" />
      <stop
         id="stop6139"
         offset="0.90122044"
         style="stop-color:#e3e1e1;stop-opacity:1;" />
      <stop
         id="stop6137"
         offset="1"
         style="stop-color:#cecbcb;stop-opacity:1" />
    </linearGradient>
    <linearGradient
       inkscape:collect="always"
       xlink:href="#linearGradient6131"
       id="linearGradient3893"
       gradientUnits="userSpaceOnUse"
       gradientTransform="matrix(1.0119858,0,0,1.0119858,-0.89554075,-0.9871566)"
       x1="86.73793"
       y1="93.621468"
       x2="95.460213"
       y2="102.34375" />
    <radialGradient
       inkscape:collect="always"
       xlink:href="#linearGradient3913-5"
       id="radialGradient3919-5"
       cx="90.75"
       cy="110.25299"
       fx="90.75"
       fy="110.25299"
       r="18.750002"
       gradientTransform="matrix(1.3067347,0,0,1.3067347,-27.83617,-33.818441)"
       gradientUnits="userSpaceOnUse" />
    <linearGradient
       inkscape:collect="always"
       id="linearGradient3913-5">
      <stop
         style="stop-color:#ffffff;stop-opacity:1;"
         offset="0"
         id="stop3915-4" />
      <stop
         style="stop-color:#ffffff;stop-opacity:0;"
         offset="1"
         id="stop3917-7" />
    </linearGradient>
    <clipPath
       clipPathUnits="userSpaceOnUse"
       id="clipPath3889-6">
      <path
         sodipodi:nodetypes="cscscssc"
         inkscape:connector-curvature="0"
         id="path3891-5"
         d="m 112,82.502986 c 0,4.465301 -2.79749,6.409952 -5.27972,8.093625 -5.10854,3.46508 -14.939114,3.32536 -20.720284,3.40638 -0.081,5.781159 0.16586,15.504599 -3.29922,20.613139 -1.68367,2.48224 -5.29051,5.38687 -8.20078,5.38687 2.31803,0 4.74284,-1.33476 7.58402,-4.08481 9.14197,-8.84873 17.36714,-16.13535 25.673154,-25.297529 C 109.67612,88.503916 112,86.97878 112,82.502986 z"
         style="fill:url(#linearGradient3893);fill-opacity:1;stroke:none" />
    </clipPath>
    <filter
       color-interpolation-filters="sRGB"
       inkscape:collect="always"
       id="filter3909-6">
      <feGaussianBlur
         inkscape:collect="always"
         stdDeviation="0.43040059"
         id="feGaussianBlur3911-9" />
    </filter>
    <linearGradient
       inkscape:collect="always"
       xlink:href="#linearGradient3897-7"
       id="linearGradient3895-3"
       gradientUnits="userSpaceOnUse"
       gradientTransform="matrix(1.4094273,0,0,1.4111689,-46.598939,-46.228314)"
       x1="82.15696"
       y1="90.381706"
       x2="94.220871"
       y2="102.18401" />
    <linearGradient
       id="linearGradient3897-7">
      <stop
         style="stop-color:#fcfcfc;stop-opacity:1"
         offset="0"
         id="stop3899-4" />
      <stop
         id="stop3901-5"
         offset="0.52275378"
         style="stop-color:#f8f8f8;stop-opacity:1" />
      <stop
         style="stop-color:#f0efef;stop-opacity:1;"
         offset="0.72337759"
         id="stop3903-2" />
      <stop
         style="stop-color:#e3e1e1;stop-opacity:1;"
         offset="0.89024991"
         id="stop3905-5" />
      <stop
         style="stop-color:#cecbcb;stop-opacity:1"
         offset="1"
         id="stop3907-4" />
    </linearGradient>
    <clipPath
       clipPathUnits="userSpaceOnUse"
       id="clipPath6093-7">
      <path
         inkscape:connector-curvature="0"
         sodipodi:nodetypes="cccssccc"
         id="path6095-4"
         d="m 17.000001,8 0.782827,110 57.5,0 c 1.675283,0 3.119418,0.18058 4.9,-1.6 C 88.980763,107.60206 99.94047,96.548195 107.19904,89.224043 109.6396,86.761431 110,84.752873 110,82.5 L 110,8 z"
         style="fill:#ffffff;fill-opacity:1" />
    </clipPath>
    <radialGradient
       inkscape:collect="always"
       xlink:href="#linearGradient5982-7"
       id="radialGradient5988-0"
       cx="64"
       cy="64.004021"
       fx="63.793392"
       fy="47.274845"
       r="47.5"
       gradientTransform="matrix(1.689423,-0.08280186,0.06907651,1.3515102,-50.111719,-17.641619)"
       gradientUnits="userSpaceOnUse" />
    <linearGradient
       inkscape:collect="always"
       id="linearGradient5982-7">
      <stop
         style="stop-color:#ffffff;stop-opacity:1;"
         offset="0"
         id="stop5984-8" />
      <stop
         style="stop-color:#ffffff;stop-opacity:0;"
         offset="1"
         id="stop5986-6" />
    </linearGradient>
    <filter
       color-interpolation-filters="sRGB"
       inkscape:collect="always"
       id="filter6171-8"
       x="-0.47870937"
       width="1.9574188"
       y="-0.51275069"
       height="2.0255013">
      <feGaussianBlur
         inkscape:collect="always"
         stdDeviation="10.140743"
         id="feGaussianBlur6173-8" />
    </filter>
    <linearGradient
       inkscape:collect="always"
       xlink:href="#linearGradient4518-3"
       id="linearGradient4524-4"
       x1="72"
       y1="0"
       x2="72"
       y2="116.40091"
       gradientUnits="userSpaceOnUse"
       gradientTransform="matrix(1.003095,0,0,0.98228452,-1.7655502,0.69098836)" />
    <linearGradient
       id="linearGradient4518-3">
      <stop
         style="stop-color:#eeecec;stop-opacity:1"
         offset="0"
         id="stop4520-1" />
      <stop
         id="stop5969-4"
         offset="0.40000001"
         style="stop-color:#f4f4f4;stop-opacity:1" />
      <stop
         style="stop-color:#f6f5f5;stop-opacity:1"
         offset="1"
         id="stop4522-9" />
    </linearGradient>
    <filter
       inkscape:collect="always"
       id="filter4123">
      <feGaussianBlur
         inkscape:collect="always"
         stdDeviation="2.028"
         id="feGaussianBlur4125" />
    </filter>
    <filter
       inkscape:collect="always"
       id="filter4087"
       x="-0.16465071"
       width="1.3293014"
       y="-0.2041295"
       height="1.408259">
      <feGaussianBlur
         inkscape:collect="always"
         stdDeviation="4.2234282"
         id="feGaussianBlur4089" />
    </filter>
    <filter
       inkscape:collect="always"
       id="filter3814">
      <feGaussianBlur
         inkscape:collect="always"
         stdDeviation="1.8077645"
         id="feGaussianBlur3816" />
    </filter>
    <linearGradient
       inkscape:collect="always"
       xlink:href="#linearGradient4395-5"
       id="linearGradient4407-5"
       gradientUnits="userSpaceOnUse"
       gradientTransform="translate(-2,0)"
       x1="80.797417"
       y1="105.28602"
       x2="80.797417"
       y2="70.786308" />
    <linearGradient
       id="linearGradient4395-5">
      <stop
         style="stop-color:#171717;stop-opacity:1;"
         offset="0"
         id="stop4397-4" />
      <stop
         style="stop-color:#8a8a8a;stop-opacity:1;"
         offset="1"
         id="stop4399-7" />
    </linearGradient>
    <linearGradient
       y2="89.654533"
       x2="78.650177"
       y1="115.62798"
       x1="78.650177"
       gradientTransform="translate(-2,0)"
       gradientUnits="userSpaceOnUse"
       id="linearGradient3357"
       xlink:href="#linearGradient4379-5"
       inkscape:collect="always" />
    <linearGradient
       inkscape:collect="always"
       id="linearGradient4379-5">
      <stop
         style="stop-color:#000000;stop-opacity:1;"
         offset="0"
         id="stop4381-6" />
      <stop
         style="stop-color:#000000;stop-opacity:0;"
         offset="1"
         id="stop4383-9" />
    </linearGradient>
    <filter
       color-interpolation-filters="sRGB"
       inkscape:collect="always"
       id="filter4074">
      <feGaussianBlur
         inkscape:collect="always"
         stdDeviation="0.48029844"
         id="feGaussianBlur4076" />
    </filter>
    <linearGradient
       y2="89.654533"
       x2="78.650177"
       y1="115.62798"
       x1="78.650177"
       gradientTransform="translate(-2,0)"
       gradientUnits="userSpaceOnUse"
       id="linearGradient4458"
       xlink:href="#linearGradient4379-5"
       inkscape:collect="always" />
    <linearGradient
       inkscape:collect="always"
       xlink:href="#linearGradient4395-5"
       id="linearGradient3073"
       gradientUnits="userSpaceOnUse"
       gradientTransform="translate(-2,0)"
       x1="80.797417"
       y1="105.28602"
       x2="80.797417"
       y2="70.786308" />
  </defs>
  <sodipodi:namedview
     id="base"
     pagecolor="#ffffff"
     bordercolor="#666666"
     borderopacity="1.0"
     inkscape:pageopacity="0.0"
     inkscape:pageshadow="2"
     inkscape:zoom="2"
     inkscape:cx="-84.892216"
     inkscape:cy="102.32018"
     inkscape:document-units="px"
     inkscape:current-layer="layer1"
     width="128px"
     height="128px"
     showgrid="true"
     inkscape:grid-points="true"
     showguides="true"
     inkscape:guide-bbox="true"
     inkscape:window-width="1224"
     inkscape:window-height="757"
     inkscape:window-x="0"
     inkscape:window-y="383"
     inkscape:snap-global="false"
     inkscape:window-maximized="0"
     inkscape:snap-page="true">
    <inkscape:grid
       id="GridFromPre046Settings"
       type="xygrid"
       originx="0px"
       originy="0px"
       spacingx="5.8181px"
       spacingy="5.8181px"
       color="#0000ff"
       empcolor="#0000ff"
       opacity="0.2"
       empopacity="0.4"
       empspacing="2"
       visible="true"
       enabled="true"
       snapvisiblegridlinesonly="true" />
    <sodipodi:guide
       orientation="1,0"
       position="-68,29.325902"
       id="guide4564" />
    <sodipodi:guide
       orientation="1,0"
       position="-121.62237,135.0574"
       id="guide3859" />
    <sodipodi:guide
       orientation="0,1"
       position="38.581514,-74.688154"
       id="guide4360" />
  </sodipodi:namedview>
  <metadata
     id="metadata2611">
    <rdf:RDF>
      <cc:Work
         rdf:about="">
        <dc:format>image/svg+xml</dc:format>
        <dc:type
           rdf:resource="http://purl.org/dc/dcmitype/StillImage" />
        <dc:title></dc:title>
      </cc:Work>
    </rdf:RDF>
  </metadata>
  <g
     inkscape:label="Livello 1"
     inkscape:groupmode="layer"
     id="layer1">
    <path
       style="opacity:0.45606695;fill:#000000;fill-opacity:1;filter:url(#filter4123)"
       d="m 13.333,5.3364 0,118.3304 49.8545,-0.0668 c 2.115554,-0.003 4.528919,-1.77169 7,-4.25 0.71234,-0.71442 1.440746,-1.39395 2.15625,-2.09375 0.415612,-0.40649 0.832187,-0.81443 1.25,-1.21875 7.773958,-7.40962 26.98341,-25.122599 34.21875,-33.099999 0.42065,-0.42064 0.81207,-0.8111 1.15625,-1.1875 1.46444,-1.49766 2.76158,-2.8378 2.99375,-5.8625 L 112,75.156251 111.9972,5.3364 z"
       id="path5990"
       inkscape:connector-curvature="0"
       sodipodi:nodetypes="ccsssccccccc"
       transform="matrix(1.003095,0,0,0.98228452,-1.7655506,0.69098557)" />
    <path
       sodipodi:type="inkscape:offset"
       inkscape:radius="1.0279198"
       inkscape:original="M 13.1875 4.53125 C 12.818918 4.609246 12.529956 4.967008 12.53125 5.34375 L 12.53125 123.65625 C 12.53885 124.07954 12.920464 124.4611 13.34375 124.46875 L 62.15625 124.46875 C 63.930251 124.46875 65.829207 124.74865 68.6875 122.8125 C 68.829003 122.58432 71.218784 120.82456 70.53125 121.25 C 80.188854 112.07585 98.162197 92.41186 109.34375 81.09375 C 111.06182 79.375681 112.8125 77.674752 112.8125 73.3125 L 112.8125 5.34375 C 112.80483 4.9204809 112.42327 4.5388981 112 4.53125 L 13.34375 4.53125 C 13.29182 4.52633 13.239428 4.52633 13.1875 4.53125 z "
       style="fill:#000000;fill-opacity:1;filter:url(#filter3814)"
       id="path3314"
       d="m 13.09375,3.5 a 1.0280226,1.0280226 0 0 0 -0.125,0.03125 C 12.083764,3.7185227 11.496893,4.4391709 11.5,5.34375 l 0,118.3125 a 1.0280226,1.0280226 0 0 0 0,0.0313 c 0.01849,1.02971 0.782949,1.79389 1.8125,1.8125 a 1.0280226,1.0280226 0 0 0 0.03125,0 l 48.8125,0 c 1.665878,0 4.022349,0.23675 7.09375,-1.84375 a 1.0280226,1.0280226 0 0 0 0.28125,-0.21875 c 0.0578,-0.0515 0.139644,-0.12864 0.25,-0.21875 0.220712,-0.18022 0.516774,-0.41745 0.78125,-0.625 0.264476,-0.20755 0.495635,-0.39648 0.65625,-0.53125 0.04015,-0.0337 0.07966,-0.051 0.125,-0.0937 0.02267,-0.0214 0.04798,-0.0408 0.09375,-0.0937 0.02288,-0.0265 0.04727,-0.051 0.09375,-0.125 0.0081,-0.013 0.01807,-0.0366 0.03125,-0.0625 9.780644,-9.33282 27.440979,-28.680919 38.5,-39.875 1.71105,-1.711053 3.78125,-3.862728 3.78125,-8.5 l 0,-67.96875 a 1.0280226,1.0280226 0 0 0 0,-0.03125 C 113.82509,4.2829723 113.06085,3.5186039 112.03125,3.5 A 1.0280226,1.0280226 0 0 0 112,3.5 l -98.5625,0 c -0.03179,-0.00301 -0.06191,0.00137 -0.09375,0 -0.08491,-0.00365 -0.165226,-0.00803 -0.25,0 z"
       transform="matrix(1.003095,0,0,0.98228452,-1.7655506,0.69098557)" />
    <path
       style="fill:#ffffff;fill-opacity:1"
       d="m 11.608716,5.836076 0,116.330904 49.485099,0 c 1.680486,0 3.926459,-0.55989 7.021752,-3.56934 8.897609,-8.6509 32.175353,-31.250103 39.456483,-38.511869 2.44813,-2.441635 3.01026,-4.433083 3.01026,-6.66676 l -0.003,-67.582935 z"
       id="path34"
       sodipodi:nodetypes="cccssccc"
       inkscape:connector-curvature="0" />
    <path
       style="fill:url(#linearGradient4524-4);fill-opacity:1"
       d="m 17.07938,10.744349 c -0.340895,0 -0.501546,0.230461 -0.501546,0.491142 l 0,104.549779 c 0,0.80702 0.681425,1.474 1.504643,1.47343 l 44.496615,-0.0308 c 0.05324,-4e-5 0.812893,0.0229 1.504643,0.0308 1.783165,-0.0393 3.141667,-0.74038 4.369516,-1.56504 1.055122,-0.28588 25.815399,-23.810974 34.964739,-32.837827 1.36662,-1.348301 2.19223,-3.878226 2.19223,-4.808882 l 0,-66.81146 c 0,-0.317 -0.16372,-0.491143 -0.50156,-0.491143 z"
       id="path3967"
       inkscape:connector-curvature="0"
       sodipodi:nodetypes="ccsssccscccc" />
    <path
       sodipodi:nodetypes="ccssscccccc"
       inkscape:connector-curvature="0"
       id="path5980"
       d="m 17.07938,10.744349 c -0.340895,0 -0.501546,0.230461 -0.501546,0.491142 l 0,104.549779 c 0,0.80703 0.68144,1.46853 1.504643,1.47343 l 46.36344,0.27591 c 0.05324,3.2e-4 3.284015,-0.008 3.975766,5e-5 6.561216,-4.42387 26.757215,-26.379267 35.730127,-35.221607 0.65937,-0.724227 0.45902,-0.363513 1.45841,-1.578984 l 0,-69.498578 c 0,-0.317 -0.16372,-0.491143 -0.50156,-0.491143 z"
       style="opacity:0.84653476;fill:url(#radialGradient5988-0);fill-opacity:1" />
    <g
       id="g4403"
       transform="matrix(2.5623384,0,0,2.5623384,-151.44705,-164.64167)">
      <path
         sodipodi:type="inkscape:offset"
         inkscape:radius="0.36770156"
         inkscape:original="M 82.53125 68.75 C 81.734522 68.79436 80.915488 69.659414 80.78125 73.34375 C 80.73595 74.587052 80.741232 76.12533 80.96875 77.875 C 81.11339 78.97478 81.258916 80.234502 81.40625 81.46875 C 81.196744 81.65446 80.99965 81.849045 80.78125 82.03125 C 79.413406 83.157768 77.870153 84.248786 76.40625 85.625 C 74.958916 86.963115 73.628989 88.664233 73.03125 90.78125 C 72.64239 92.237433 72.673267 93.798831 73.09375 95.25 C 73.519103 96.711518 74.360688 98.040074 75.46875 99.0625 C 76.597492 100.10146 77.967419 100.79266 79.4375 101.09375 C 80.946485 101.40329 82.506432 101.27758 83.90625 100.78125 C 83.93916 100.77015 83.96736 100.7615 84 100.75 C 84.08635 101.26584 84.19512 101.7902 84.28125 102.28125 C 84.389599 102.88284 84.467676 103.49824 84.4375 104.125 C 84.35089 105.58915 83.560195 106.75495 82.65625 107.4375 C 81.13313 108.58264 79.57694 108.52764 78.96875 108.46875 C 78.736017 108.44975 78.65625 108.40625 78.65625 108.40625 C 78.44146 108.29744 78.47273 107.8529 78.96875 107.5625 C 78.98098 107.5545 78.98723 107.53825 79 107.53125 C 79.554401 107.19197 79.912061 106.60446 79.9375 105.90625 C 79.97785 104.79895 79.138544 103.8841 78.03125 103.84375 C 77.576669 103.82715 77.158099 103.94478 76.8125 104.1875 C 76.8085 104.1905 76.78523 104.18419 76.78125 104.1875 C 76.74946 104.2075 76.71893 104.25795 76.6875 104.28125 C 76.64149 104.31865 76.605035 104.36504 76.5625 104.40625 C 76.47989 104.48295 76.416448 104.55269 76.34375 104.65625 C 76.29779 104.72175 76.22755 104.79802 76.1875 104.875 C 76.1756 104.8992 76.1682 104.9117 76.15625 104.9375 C 76.14855 104.9539 76.1324 104.9829 76.125 105 C 76.0699 105.11808 76.03147 105.24546 76 105.375 C 75.97115 105.49889 75.9423 105.61812 75.9375 105.75 C 75.89938 106.16883 75.969578 106.64957 76.1875 107.09375 C 76.484725 107.66557 76.961761 108.07857 77.4375 108.3125 C 77.940847 108.56159 78.384651 108.65137 78.65625 108.6875 C 78.65625 108.6875 78.769169 108.7322 78.96875 108.75 C 79.56152 108.8079 81.154146 108.92474 82.8125 107.6875 C 83.770285 106.96806 84.646893 105.73387 84.75 104.15625 C 84.78208 103.4872 84.670349 102.85231 84.5625 102.25 C 84.47516 101.73817 84.368574 101.16572 84.28125 100.625 C 84.644044 100.47614 85.019626 100.3002 85.34375 100.09375 C 86.51046 99.351238 87.374494 98.264416 87.875 97.03125 C 88.568195 95.33254 88.469896 93.454452 87.6875 91.9375 C 87.261763 91.128311 86.651456 90.458887 85.9375 89.96875 C 85.173712 89.445629 84.295365 89.135715 83.4375 89.0625 C 83.199883 89.04381 82.979706 89.04799 82.75 89.0625 C 82.72656 88.851842 82.71041 88.648358 82.6875 88.4375 C 82.479371 86.52143 82.27654 84.594384 82.09375 82.71875 C 83.21034 81.437753 84.066062 80.080421 84.59375 78.875 C 84.61401 78.82854 84.63672 78.796471 84.65625 78.75 C 85.103496 77.697714 85.351038 76.790159 85.5 76.03125 C 85.736563 74.82603 85.724177 73.543494 85.5 72.1875 C 85.304077 71.002324 84.305224 69.352091 83.28125 68.90625 C 83.046166 68.803892 82.796826 68.735211 82.53125 68.75 z M 83.03125 71.53125 C 83.741218 71.51959 84.933567 72.223196 85.03125 73.75 C 85.07688 74.457968 85.031038 75.249576 84.90625 75.96875 C 84.749895 76.867383 84.445782 77.746188 83.96875 78.5625 C 83.454362 79.453857 82.712018 80.237078 81.90625 81 C 81.800768 79.918777 81.699254 78.838334 81.59375 77.8125 C 81.436148 76.18348 81.372836 74.243981 81.5625 73.46875 C 81.719177 72.828304 81.863559 71.940093 82.75 71.59375 C 82.82674 71.56377 82.929826 71.53292 83.03125 71.53125 z M 81.625 83.25 C 81.82415 84.945148 82.030346 86.678209 82.25 88.46875 C 82.27556 88.677064 82.28645 88.884987 82.3125 89.09375 C 81.628436 89.195327 81.012487 89.478329 80.46875 89.8125 C 79.514587 90.402018 78.880255 91.237475 78.53125 92.09375 C 78.094149 93.172892 78.109026 94.192247 78.3125 95 C 78.54608 95.919817 78.99046 96.537377 79.3125 96.90625 C 79.63454 97.275122 79.84375 97.4375 79.84375 97.4375 C 79.84375 97.4375 78.919849 96.666752 78.71875 94.9375 C 78.63162 94.18229 78.744083 93.266915 79.21875 92.40625 C 79.594636 91.725178 80.206224 91.098891 81 90.71875 C 81.454767 90.500729 81.969647 90.368619 82.5 90.34375 C 82.932718 93.700882 83.411937 97.017943 83.90625 100.03125 C 83.83693 100.06445 83.76106 100.12535 83.6875 100.15625 C 82.951869 100.48265 82.007942 100.69774 80.875 100.625 C 80.477843 100.5995 80.053933 100.52734 79.59375 100.40625 C 78.428752 100.10028 77.104543 99.434325 76.09375 98.34375 C 75.217423 97.39763 74.60074 96.157005 74.34375 94.875 C 74.08787 93.598542 74.199691 92.292961 74.59375 91.1875 C 75.29572 89.184045 76.770851 87.82738 77.71875 86.9375 C 77.77524 86.88554 77.852493 86.863008 77.90625 86.8125 C 79.148919 85.668699 80.461332 84.497124 81.625 83.25 z M 82.875 90.34375 C 83.013843 90.35205 83.17394 90.35076 83.3125 90.375 C 83.936771 90.483072 84.545826 90.769584 85.0625 91.1875 C 85.5457 91.577923 85.956385 92.095659 86.21875 92.6875 C 86.29393 92.85491 86.354915 93.040144 86.40625 93.21875 C 86.786331 94.542316 86.647416 95.543767 86.46875 96.4375 C 86.327639 97.140553 86.125407 97.800971 85.71875 98.4375 C 85.384654 98.960533 84.902666 99.498641 84.1875 99.90625 C 83.725424 96.975552 83.266499 93.700959 82.875 90.34375 z "
         style="fill:url(#linearGradient3073);fill-opacity:1;stroke:#000000;stroke-width:0;stroke-linecap:butt;stroke-linejoin:miter;stroke-miterlimit:4;stroke-opacity:1"
         id="path3071"
         d="m 82.5,68.375 c -0.523843,0.02917 -1.079182,0.394879 -1.4375,1.15625 -0.358318,0.761371 -0.588178,1.944186 -0.65625,3.8125 -0.04574,1.25537 -0.04348,2.817473 0.1875,4.59375 0.136442,1.037444 0.266804,2.203294 0.40625,3.375 -0.1538,0.141029 -0.288615,0.312121 -0.4375,0.4375 -0.0056,0.0047 -0.02564,-0.0047 -0.03125,0 -1.348713,1.109148 -2.894478,2.201913 -4.375,3.59375 -1.478952,1.367347 -2.846253,3.139046 -3.46875,5.34375 -0.407016,1.524171 -0.376266,3.141984 0.0625,4.65625 0.44501,1.529061 1.312211,2.932843 2.46875,4 1.178027,1.08432 2.621791,1.81072 4.15625,2.125 1.458784,0.29924 2.938112,0.14431 4.3125,-0.28125 0.07222,0.39528 0.154712,0.79115 0.21875,1.15625 0.106057,0.58887 0.184405,1.16522 0.15625,1.75 -0.0795,1.34395 -0.799449,2.43914 -1.625,3.0625 -1.422444,1.06945 -2.86734,0.99271 -3.4375,0.9375 -0.01574,-0.001 -0.01762,0.001 -0.03125,0 0.02984,-0.0572 0.04946,-0.13793 0.1875,-0.21875 0.02171,-0.0142 0.01734,-0.019 0.03125,-0.0313 0.655547,-0.40118 1.095268,-1.12147 1.125,-1.9375 0.04738,-1.3001 -0.978585,-2.39003 -2.28125,-2.4375 -0.457646,-0.0167 -0.870555,0.12528 -1.25,0.34375 -0.01643,0.009 -0.0463,-0.01 -0.0625,0 -0.01748,0.003 -0.06211,0.0311 -0.0625,0.0313 -0.01952,0.0128 -0.04335,0.0178 -0.0625,0.0313 -0.02861,0.0162 -0.06238,0.0311 -0.0625,0.0313 l 0,0.0313 c -0.01912,0.0197 -0.05371,0.0523 -0.0625,0.0625 -0.07895,0.0642 -0.13483,0.10184 -0.15625,0.125 l 0,0.0313 c -0.08929,0.0845 -0.200101,0.16565 -0.28125,0.28125 -0.02187,0.0312 -0.08085,0.13633 -0.15625,0.28125 a 0.36773833,0.36773833 0 0 0 -0.03125,0 c -0.0074,0.015 -0.01401,0.0253 -0.03125,0.0625 0.0055,-0.0117 -0.0066,0.005 -0.03125,0.0625 -0.07025,0.15054 -0.09037,0.29496 -0.125,0.4375 -0.02657,0.11409 -0.08419,0.27528 -0.09375,0.4375 -9.17e-4,0.0101 8.1e-4,0.0211 0,0.0313 -0.03813,0.477 0.03608,1.00028 0.28125,1.5 a 0.36773833,0.36773833 0 0 0 0.03125,0 c 0.338064,0.65039 0.86407,1.13965 1.40625,1.40625 0.52133,0.25799 0.94881,0.33138 1.25,0.375 0.01591,0.002 0.04752,0.0293 0.0625,0.0313 0.045,0.0154 0.141502,0.0445 0.34375,0.0625 0.608557,0.0594 2.336066,0.1551 4.09375,-1.15625 1.033104,-0.77602 1.982612,-2.08074 2.09375,-3.78125 0.03457,-0.72096 -0.07952,-1.39693 -0.1875,-2 -0.0746,-0.43718 -0.172424,-0.91433 -0.25,-1.375 0.283011,-0.12613 0.581078,-0.23894 0.84375,-0.40625 1.234449,-0.785622 2.159849,-1.949952 2.6875,-3.25 0.73361,-1.797749 0.61457,-3.759313 -0.21875,-5.375 -0.454251,-0.863384 -1.081611,-1.601785 -1.84375,-2.125 -0.816359,-0.559127 -1.763225,-0.889867 -2.6875,-0.96875 -0.129796,-0.01021 -0.252574,-5.57e-4 -0.375,0 -0.0089,-0.0935 -0.0206,-0.183193 -0.03125,-0.28125 -0.203542,-1.873837 -0.414254,-3.758397 -0.59375,-5.59375 1.080001,-1.265461 1.942941,-2.580121 2.46875,-3.78125 0.0048,-0.011 0.02693,-0.04037 0.0625,-0.125 0.457911,-1.07738 0.72188,-2.032409 0.875,-2.8125 0.246526,-1.25598 0.229907,-2.578095 0,-3.96875 C 85.765118,71.460302 85.427167,70.7172 85,70.0625 84.572833,69.4078 84.061609,68.834239 83.4375,68.5625 83.170361,68.446185 82.841434,68.355987 82.5,68.375 z m 0.53125,3.53125 c 0.230185,-0.0038 0.634388,0.131417 0.96875,0.4375 0.334362,0.306083 0.613265,0.76564 0.65625,1.4375 0.04348,0.674637 -0.0054,1.435662 -0.125,2.125 -0.149492,0.85919 -0.421622,1.692916 -0.875,2.46875 -0.370063,0.641264 -0.895831,1.231002 -1.46875,1.8125 -0.07845,-0.81279 -0.138985,-1.630677 -0.21875,-2.40625 -0.07791,-0.805285 -0.144626,-1.696386 -0.15625,-2.46875 -0.01162,-0.772364 0.01798,-1.440315 0.09375,-1.75 0.08147,-0.333011 0.173256,-0.679866 0.3125,-0.96875 0.139244,-0.288884 0.305968,-0.51939 0.65625,-0.65625 0.05242,-0.02048 0.125257,-0.03074 0.15625,-0.03125 z m -1.6875,12.125 c 0.172405,1.461447 0.343092,2.934957 0.53125,4.46875 0.01175,0.09574 0.02206,0.208253 0.03125,0.3125 -0.605703,0.143053 -1.146357,0.393335 -1.625,0.6875 -1.024322,0.632865 -1.71752,1.54568 -2.09375,2.46875 -0.468439,1.15651 -0.439086,2.250307 -0.21875,3.125 0.251299,0.989594 0.716955,1.666703 1.0625,2.0625 0.338768,0.388033 0.59375,0.5625 0.59375,0.5625 a 0.36773833,0.36773833 0 0 0 0.46875,-0.5625 c 0,0 -0.206595,-0.131396 -0.4375,-0.5 -0.230905,-0.368604 -0.46869,-0.943326 -0.5625,-1.75 -0.07912,-0.685816 0.0042,-1.526872 0.4375,-2.3125 0.340434,-0.616836 0.90676,-1.187283 1.625,-1.53125 0.30652,-0.146949 0.678288,-0.197324 1.03125,-0.25 0.406069,3.119052 0.853301,6.179524 1.3125,9 -0.680218,0.29725 -1.533221,0.50559 -2.59375,0.4375 -0.369588,-0.0237 -0.777543,-0.0714 -1.21875,-0.1875 -1.104424,-0.290061 -2.359814,-0.940868 -3.3125,-1.96875 -0.825873,-0.891647 -1.412556,-2.065571 -1.65625,-3.28125 -0.242325,-1.208839 -0.151951,-2.460065 0.21875,-3.5 0.665942,-1.900631 2.080527,-3.201219 3.03125,-4.09375 -0.02746,0.02526 0.0454,0.0085 0.1875,-0.125 1.055126,-0.97118 2.152447,-2.007884 3.1875,-3.0625 z m 1.96875,6.75 c 0.533434,0.104988 1.079623,0.322198 1.53125,0.6875 0.438817,0.354562 0.794301,0.840493 1.03125,1.375 0.0641,0.142733 0.138877,0.299581 0.1875,0.46875 0.35994,1.253428 0.206747,2.184617 0.03125,3.0625 -0.136515,0.680156 -0.313189,1.289102 -0.6875,1.875 -0.223703,0.350211 -0.545373,0.690132 -0.9375,1 -0.40929,-2.636743 -0.803269,-5.498851 -1.15625,-8.46875 z" />
      <path
         style="opacity:0.55230126;fill:url(#linearGradient4458);fill-opacity:1;stroke:#000000;stroke-width:0;stroke-linecap:butt;stroke-linejoin:miter;stroke-miterlimit:4;stroke-opacity:1;filter:url(#filter4074)"
         d="m 82.51694,91.008525 c -0.796728,0.01968 -1.609178,0.41666 -1.743416,2.051366 -0.0453,0.551642 -0.03179,1.230629 0.195728,2.006942 0.14464,0.487962 0.29137,1.042283 0.438704,1.589908 -0.209506,0.0824 -0.409414,0.170004 -0.627814,0.250847 -1.367844,0.499826 -2.916979,0.977154 -4.380882,1.587768 -1.447334,0.593709 -2.759596,1.35539 -3.357335,2.294694 -0.38886,0.64609 -0.374283,1.33539 0.0462,1.97926 0.425353,0.64847 1.258047,1.23478 2.366109,1.68842 1.128742,0.46098 2.516235,0.77278 3.986316,0.90637 1.508985,0.13734 3.07076,0.082 4.470578,-0.13821 0.03291,-0.005 0.06349,-0.0102 0.09613,-0.0153 0.08635,0.22887 0.180099,0.46838 0.266229,0.68626 0.108349,0.26692 0.209556,0.54148 0.17938,0.81957 -0.08661,0.64963 -0.905532,1.16653 -1.809477,1.46937 -1.52312,0.50808 -3.052741,0.4721 -3.660931,0.44597 -0.232733,-0.008 -0.339725,-0.0223 -0.339725,-0.0223 -0.21479,-0.0483 -0.180695,-0.24492 0.315325,-0.37376 0.01223,-0.004 0.02583,-0.005 0.0386,-0.008 0.554401,-0.15054 0.925985,-0.41572 0.951424,-0.72551 0.04035,-0.4913 -0.809298,-0.90552 -1.916592,-0.92343 -0.454581,-0.007 -0.882409,0.0577 -1.228008,0.16538 -0.004,0.001 -0.01497,-0.002 -0.01895,-3.1e-4 -0.03179,0.009 -0.06608,0.0217 -0.09751,0.0321 -0.04601,0.0166 -0.076,0.0387 -0.118535,0.057 -0.08261,0.034 -0.164371,0.0681 -0.237069,0.11403 -0.04596,0.0291 -0.100198,0.0562 -0.140248,0.0904 -0.0119,0.0107 -0.02871,0.0216 -0.04066,0.033 -0.0077,0.007 -0.01362,0.0173 -0.02102,0.0249 -0.0551,0.0524 -0.09604,0.10885 -0.12751,0.16632 -0.0015,0.003 8.4e-4,0.006 -6.92e-4,0.008 -0.02885,0.055 -0.04691,0.10903 -0.05171,0.16755 -0.03812,0.18583 0.018,0.39608 0.235922,0.59316 0.297225,0.25371 0.770073,0.43834 1.245812,0.54213 0.503347,0.11052 0.948432,0.14682 1.220031,0.16285 0,0 0.102243,0.0138 0.301824,0.0217 0.59277,0.0257 2.194152,0.0808 3.852506,-0.46814 0.957785,-0.31921 1.828357,-0.86845 1.931464,-1.56843 0.03208,-0.29685 -0.06946,-0.57755 -0.177309,-0.84478 -0.08734,-0.2271 -0.176142,-0.47999 -0.263466,-0.7199 0.362794,-0.0661 0.719904,-0.1441 1.044028,-0.2357 1.16671,-0.32945 2.039746,-0.80938 2.540252,-1.35653 0.693195,-0.7537 0.588432,-1.58643 -0.193964,-2.25949 -0.425737,-0.35903 -1.035536,-0.66115 -1.749492,-0.87862 -0.763788,-0.2321 -1.633525,-0.36139 -2.49139,-0.39387 -0.237617,-0.008 -0.472145,-0.009 -0.701851,-0.003 -0.02344,-0.09346 -0.04905,-0.18544 -0.07196,-0.278996 -0.208129,-0.850143 -0.405986,-1.703086 -0.588776,-2.535288 1.11659,-0.568367 1.984022,-1.167343 2.51171,-1.702177 0.02026,-0.02061 0.04216,-0.03732 0.06169,-0.05794 0.447246,-0.466889 0.690905,-0.878909 0.839867,-1.21563 0.236563,-0.534746 0.230977,-1.098933 0.0068,-1.700575 -0.195923,-0.525852 -1.190225,-1.260829 -2.214199,-1.458645 -0.235084,-0.04542 -0.506553,-0.07798 -0.772129,-0.07142 z m 0.504912,1.24579 c 0.709968,-0.0052 1.909518,0.297972 2.007201,0.975401 0.04563,0.314119 0.0061,0.664041 -0.118688,0.983132 -0.156355,0.398716 -0.471704,0.792746 -0.948736,1.154936 -0.514388,0.395487 -1.237941,0.748218 -2.043709,1.08672 -0.105482,-0.479729 -0.214357,-0.964449 -0.319861,-1.419602 -0.157602,-0.722781 -0.221744,-1.576141 -0.03208,-1.920104 0.156677,-0.28416 0.302052,-0.685879 1.188493,-0.839548 0.07674,-0.0133 0.165951,-0.0202 0.267375,-0.02094 z m -1.393855,5.188971 c 0.19915,0.752122 0.405334,1.530946 0.624988,2.325393 0.02556,0.09243 0.04591,0.186372 0.07196,0.279001 -0.684064,0.0451 -1.322059,0.15834 -1.865796,0.3066 -0.954163,0.26157 -1.593739,0.63266 -1.942744,1.01258 -0.437101,0.47881 -0.405241,0.94333 -0.201767,1.30172 0.23358,0.40812 0.671511,0.67748 0.993551,0.84115 0.32204,0.16366 0.531607,0.22749 0.531607,0.22749 0,0 -0.922651,-0.33699 -1.12375,-1.10424 -0.08713,-0.33508 0.0165,-0.74679 0.491167,-1.12866 0.375886,-0.30219 0.994221,-0.577 1.787997,-0.74567 0.454767,-0.0967 0.96365,-0.15845 1.494003,-0.16949 0.432718,1.48953 0.916623,2.97122 1.410936,4.3082 -0.06932,0.0147 -0.139035,0.0334 -0.212595,0.0471 -0.735631,0.14482 -1.674155,0.24789 -2.807097,0.21562 -0.397157,-0.0113 -0.841172,-0.0431 -1.301355,-0.0968 -1.164998,-0.13576 -2.461794,-0.43944 -3.472587,-0.92332 -0.876327,-0.41979 -1.514448,-0.96687 -1.771438,-1.53568 -0.25588,-0.56635 -0.126769,-1.14695 0.26729,-1.63743 0.70197,-0.88892 2.16646,-1.482827 3.114359,-1.877658 0.05649,-0.02305 0.122319,-0.0421 0.176076,-0.06451 1.242669,-0.507494 2.571524,-1.02803 3.735192,-1.581368 z m 1.259175,3.152314 c 0.138843,0.004 0.277656,0.004 0.416216,0.0151 0.624271,0.048 1.237725,0.17129 1.754399,0.35672 0.4832,0.17322 0.897289,0.40443 1.159654,0.66702 0.07518,0.0743 0.138475,0.15115 0.18981,0.23039 0.380081,0.58726 0.250106,1.0443 0.07144,1.44085 -0.141111,0.31193 -0.367692,0.59749 -0.774349,0.87992 -0.334096,0.23206 -0.799242,0.4682 -1.514408,0.64905 -0.462076,-1.30032 -0.911259,-2.74953 -1.302758,-4.23909 z"
         id="path4373"
         inkscape:connector-curvature="0" />
    </g>
    <path
       style="fill:#000000"
       d=""
       id="path2197" />
    <path
       clip-path="url(#clipPath6093-7)"
       style="opacity:0.6056338;fill:#000000;fill-opacity:1;stroke:none;filter:url(#filter6171-8)"
       d="m 114.4,82.502986 c 0,4.465301 -9.3766,4.299815 -11.85883,5.983488 -5.108537,3.46508 -16.574334,-0.810699 -22.355504,-0.729679 -0.081,5.781159 0.365076,18.386735 0.365076,24.536755 0,2.97817 -3.440475,11.20945 -6.350745,11.20945 -2.091359,1.5337 3.488204,8.21101 6.734971,5.31989 9.501888,-8.46107 35.131682,-30.022701 43.350822,-39.262886 2.04044,-2.29392 -4.90514,-9.844666 -9.88579,-7.057018 z"
       id="path6153"
       inkscape:connector-curvature="0"
       sodipodi:nodetypes="cscscssc"
       transform="matrix(1.258302,0,0,1.2610357,-31.355772,-28.164007)" />
    <path
       sodipodi:nodetypes="cscscssc"
       inkscape:connector-curvature="0"
       id="path6081"
       d="m 113.9,82.502986 c 0,4.465301 -7.96273,7.457662 -10.95287,7.881439 -6.394981,0.906328 -15.304541,-0.844131 -21.085711,-0.763111 -0.081,5.781159 3.397918,20.001056 -0.06716,25.109596 -1.68367,2.48224 -3.883991,8.07209 -6.794261,8.07209 -2.091359,1.5337 3.488204,11.21101 6.734971,8.31989 9.501888,-8.46107 45.998943,-30.20138 54.218083,-39.441569 2.04044,-2.29392 -17.0724,-11.965986 -22.05305,-9.178335 z"
       style="opacity:0.64319249;fill:#000000;fill-opacity:1;stroke:none;filter:url(#filter4087)"
       clip-path="url(#clipPath6093-7)"
       transform="matrix(1.3586765,0,0,1.3616521,-42.382653,-40.155635)" />
    <path
       style="fill:url(#linearGradient3895-3);fill-opacity:1;stroke:none"
       d="m 110.63455,70.194961 c 0,6.22666 -3.89615,8.938389 -7.35324,11.28619 -7.11485,4.831902 -21.758838,3.808851 -29.810472,3.92183 -0.112812,8.061568 0.720236,21.530529 -4.105701,28.654139 -2.344905,3.46138 -6.904898,8.42993 -10.95813,8.42993 3.228399,0 6.605514,-1.86127 10.562523,-5.69609 12.732335,-12.33915 24.187814,-22.50002 35.75589,-35.27627 2.67259,-2.951702 5.90913,-5.078441 5.90913,-11.319729 z"
       id="path6011"
       inkscape:connector-curvature="0"
       sodipodi:nodetypes="cscscssc" />
    <path
       style="fill:#ffffff;fill-opacity:1;stroke:none"
       d="m 110.66063,69.760596 c -0.44065,5.437134 -4.51314,7.338042 -6.73057,8.843942 -5.25734,3.570397 -12.241076,3.279514 -34.154353,3.279514 0,19.761338 0.513212,28.553598 -3.305002,33.382518 -2.272989,2.87466 -6.824021,6.07997 -10.532933,6.90254 5.082113,0 8.629228,-1.08751 11.949253,-4.30502 0.472301,-0.5418 1.415698,-1.55003 2.15657,-2.69493 3.94064,-5.81684 3.837814,-17.294735 3.837814,-29.263474 8.051633,-0.11295 22.202451,1.162156 29.317291,-3.669742 0.64822,-0.440215 2.63774,-2.020759 3.2183,-2.58944 3.22475,-3.158721 3.92397,-5.17219 4.24363,-9.885908 z M 55.937772,122.16911 c -0.219575,0.0485 -0.436533,0.0579 -0.652846,0.087 0.218648,-0.0234 0.432367,-0.0468 0.652846,-0.087 z"
       id="path6122"
       inkscape:connector-curvature="0"
       sodipodi:nodetypes="cscsccccsscccc" />
    <path
       style="fill:none;stroke:url(#radialGradient3919-5);stroke-width:1.82707405;stroke-linecap:butt;stroke-linejoin:miter;stroke-miterlimit:4;stroke-opacity:1;stroke-dasharray:none;filter:url(#filter3909-6)"
       d="M 108.97651,89.508691 79.934895,118.21077"
       id="path3873"
       inkscape:connector-curvature="0"
       sodipodi:nodetypes="cc"
       clip-path="url(#clipPath3889-6)"
       transform="matrix(1.3927341,0,0,1.3944553,-45.351691,-44.851769)" />
  </g>
</svg>
