<?xml version="1.0" encoding="UTF-8" standalone="no"?>
<!-- Created with Inkscape (http://www.inkscape.org/) -->

<svg
   xmlns:dc="http://purl.org/dc/elements/1.1/"
   xmlns:cc="http://creativecommons.org/ns#"
   xmlns:rdf="http://www.w3.org/1999/02/22-rdf-syntax-ns#"
   xmlns:svg="http://www.w3.org/2000/svg"
   xmlns="http://www.w3.org/2000/svg"
   xmlns:xlink="http://www.w3.org/1999/xlink"
   xmlns:sodipodi="http://sodipodi.sourceforge.net/DTD/sodipodi-0.dtd"
   xmlns:inkscape="http://www.inkscape.org/namespaces/inkscape"
   width="128"
   height="128"
   id="svg2606"
   sodipodi:version="0.32"
   inkscape:version="0.48.0 r9654"
   version="1.0"
   sodipodi:docname="unknown.svgz"
   inkscape:output_extension="org.inkscape.output.svgz.inkscape"
   inkscape:export-filename="/home/pinheiro/pics/oxygen-icons/scalable/mimetypes/small/22x22/unknown.png"
   inkscape:export-xdpi="61.875"
   inkscape:export-ydpi="61.875">
  <defs
     id="defs2608">
    <linearGradient
       id="linearGradient6131">
      <stop
         id="stop6133"
         offset="0"
         style="stop-color:#fcfcfc;stop-opacity:1" />
      <stop
         style="stop-color:#f8f8f8;stop-opacity:1"
         offset="0.52275378"
         id="stop6135" />
      <stop
         id="stop6141"
         offset="0.77457333"
         style="stop-color:#f0efef;stop-opacity:1;" />
      <stop
         id="stop6139"
         offset="0.90122044"
         style="stop-color:#e3e1e1;stop-opacity:1;" />
      <stop
         id="stop6137"
         offset="1"
         style="stop-color:#cecbcb;stop-opacity:1" />
    </linearGradient>
    <linearGradient
       inkscape:collect="always"
       xlink:href="#linearGradient6131"
       id="linearGradient3893"
       gradientUnits="userSpaceOnUse"
       gradientTransform="matrix(1.0119858,0,0,1.0119858,-0.89554075,-0.9871566)"
       x1="86.73793"
       y1="93.621468"
       x2="95.460213"
       y2="102.34375" />
    <radialGradient
       inkscape:collect="always"
       xlink:href="#linearGradient3913-5"
       id="radialGradient3919-5"
       cx="90.75"
       cy="110.25299"
       fx="90.75"
       fy="110.25299"
       r="18.750002"
       gradientTransform="matrix(1.3067347,0,0,1.3067347,-27.83617,-33.818441)"
       gradientUnits="userSpaceOnUse" />
    <linearGradient
       inkscape:collect="always"
       id="linearGradient3913-5">
      <stop
         style="stop-color:#ffffff;stop-opacity:1;"
         offset="0"
         id="stop3915-4" />
      <stop
         style="stop-color:#ffffff;stop-opacity:0;"
         offset="1"
         id="stop3917-7" />
    </linearGradient>
    <clipPath
       clipPathUnits="userSpaceOnUse"
       id="clipPath3889-6">
      <path
         sodipodi:nodetypes="cscscssc"
         inkscape:connector-curvature="0"
         id="path3891-5"
         d="m 112,82.502986 c 0,4.465301 -2.79749,6.409952 -5.27972,8.093625 -5.10854,3.46508 -14.939114,3.32536 -20.720284,3.40638 -0.081,5.781159 0.16586,15.504599 -3.29922,20.613139 -1.68367,2.48224 -5.29051,5.38687 -8.20078,5.38687 2.31803,0 4.74284,-1.33476 7.58402,-4.08481 9.14197,-8.84873 17.36714,-16.13535 25.673154,-25.297529 C 109.67612,88.503916 112,86.97878 112,82.502986 z"
         style="fill:url(#linearGradient3893);fill-opacity:1;stroke:none" />
    </clipPath>
    <filter
       color-interpolation-filters="sRGB"
       inkscape:collect="always"
       id="filter3909-6">
      <feGaussianBlur
         inkscape:collect="always"
         stdDeviation="0.43040059"
         id="feGaussianBlur3911-9" />
    </filter>
    <linearGradient
       inkscape:collect="always"
       xlink:href="#linearGradient3897-7"
       id="linearGradient3895-3"
       gradientUnits="userSpaceOnUse"
       gradientTransform="matrix(1.4094273,0,0,1.4111689,-46.598939,-46.228314)"
       x1="82.15696"
       y1="90.381706"
       x2="94.220871"
       y2="102.18401" />
    <linearGradient
       id="linearGradient3897-7">
      <stop
         style="stop-color:#fcfcfc;stop-opacity:1"
         offset="0"
         id="stop3899-4" />
      <stop
         id="stop3901-5"
         offset="0.52275378"
         style="stop-color:#f8f8f8;stop-opacity:1" />
      <stop
         style="stop-color:#f0efef;stop-opacity:1;"
         offset="0.72337759"
         id="stop3903-2" />
      <stop
         style="stop-color:#e3e1e1;stop-opacity:1;"
         offset="0.89024991"
         id="stop3905-5" />
      <stop
         style="stop-color:#cecbcb;stop-opacity:1"
         offset="1"
         id="stop3907-4" />
    </linearGradient>
    <clipPath
       clipPathUnits="userSpaceOnUse"
       id="clipPath6093-7">
      <path
         inkscape:connector-curvature="0"
         sodipodi:nodetypes="cccssccc"
         id="path6095-4"
         d="m 17.000001,8 0.782827,110 57.5,0 c 1.675283,0 3.119418,0.18058 4.9,-1.6 C 88.980763,107.60206 99.94047,96.548195 107.19904,89.224043 109.6396,86.761431 110,84.752873 110,82.5 L 110,8 z"
         style="fill:#ffffff;fill-opacity:1" />
    </clipPath>
    <radialGradient
       inkscape:collect="always"
       xlink:href="#linearGradient5982-7"
       id="radialGradient5988-0"
       cx="64"
       cy="64.004021"
       fx="63.793392"
       fy="47.274845"
       r="47.5"
       gradientTransform="matrix(1.689423,-0.08280186,0.06907651,1.3515102,-50.111719,-17.641619)"
       gradientUnits="userSpaceOnUse" />
    <linearGradient
       inkscape:collect="always"
       id="linearGradient5982-7">
      <stop
         style="stop-color:#ffffff;stop-opacity:1;"
         offset="0"
         id="stop5984-8" />
      <stop
         style="stop-color:#ffffff;stop-opacity:0;"
         offset="1"
         id="stop5986-6" />
    </linearGradient>
    <filter
       color-interpolation-filters="sRGB"
       inkscape:collect="always"
       id="filter6171-8"
       x="-0.47870937"
       width="1.9574188"
       y="-0.51275069"
       height="2.0255013">
      <feGaussianBlur
         inkscape:collect="always"
         stdDeviation="10.140743"
         id="feGaussianBlur6173-8" />
    </filter>
    <linearGradient
       inkscape:collect="always"
       xlink:href="#linearGradient4518-3"
       id="linearGradient4524-4"
       x1="72"
       y1="0"
       x2="72"
       y2="116.40091"
       gradientUnits="userSpaceOnUse"
       gradientTransform="matrix(1.003095,0,0,0.98228452,-1.7655502,0.69098836)" />
    <linearGradient
       id="linearGradient4518-3">
      <stop
         style="stop-color:#eeecec;stop-opacity:1"
         offset="0"
         id="stop4520-1" />
      <stop
         id="stop5969-4"
         offset="0.40000001"
         style="stop-color:#f4f4f4;stop-opacity:1" />
      <stop
         style="stop-color:#f6f5f5;stop-opacity:1"
         offset="1"
         id="stop4522-9" />
    </linearGradient>
    <filter
       inkscape:collect="always"
       id="filter4123">
      <feGaussianBlur
         inkscape:collect="always"
         stdDeviation="2.028"
         id="feGaussianBlur4125" />
    </filter>
    <filter
       inkscape:collect="always"
       id="filter4087"
       x="-0.16465071"
       width="1.3293014"
       y="-0.2041295"
       height="1.408259">
      <feGaussianBlur
         inkscape:collect="always"
         stdDeviation="4.2234282"
         id="feGaussianBlur4089" />
    </filter>
    <filter
       inkscape:collect="always"
       id="filter3814">
      <feGaussianBlur
         inkscape:collect="always"
         stdDeviation="1.8077645"
         id="feGaussianBlur3816" />
    </filter>
    <linearGradient
       y2="12.679619"
       x2="40.209278"
       y1="44.983318"
       x1="40.209278"
       gradientUnits="userSpaceOnUse"
       id="linearGradient3124"
       xlink:href="#linearGradient3829"
       inkscape:collect="always" />
    <linearGradient
       y2="12.679619"
       x2="40.209278"
       y1="44.983318"
       x1="40.209278"
       gradientUnits="userSpaceOnUse"
       id="linearGradient3122"
       xlink:href="#linearGradient3829"
       inkscape:collect="always" />
    <linearGradient
       y2="12.679619"
       x2="40.209278"
       y1="44.983318"
       x1="40.209278"
       gradientUnits="userSpaceOnUse"
       id="linearGradient3120"
       xlink:href="#linearGradient3829"
       inkscape:collect="always" />
    <linearGradient
       inkscape:collect="always"
       xlink:href="#linearGradient3829"
       id="linearGradient3138"
       gradientUnits="userSpaceOnUse"
       x1="40.209278"
       y1="44.983318"
       x2="40.209278"
       y2="12.679619" />
    <filter
       id="filter3941"
       inkscape:collect="always"
       color-interpolation-filters="sRGB">
      <feGaussianBlur
         id="feGaussianBlur3943"
         stdDeviation="0.44068637"
         inkscape:collect="always" />
    </filter>
    <linearGradient
       id="linearGradient3125">
      <stop
         id="stop3127"
         offset="0"
         style="stop-color:#f7f6f6;stop-opacity:1" />
      <stop
         id="stop3129"
         offset="1"
         style="stop-color:#efeeee;stop-opacity:1" />
    </linearGradient>
    <linearGradient
       y2="12.679619"
       x2="40.209278"
       y1="44.983318"
       x1="40.209278"
       gradientUnits="userSpaceOnUse"
       id="linearGradient3909"
       xlink:href="#linearGradient3829"
       inkscape:collect="always" />
    <linearGradient
       id="linearGradient3118">
      <stop
         id="stop3120"
         offset="0"
         style="stop-color:#f7f6f6;stop-opacity:1" />
      <stop
         id="stop3122"
         offset="1"
         style="stop-color:#efeeee;stop-opacity:1" />
    </linearGradient>
    <linearGradient
       y2="12.679619"
       x2="40.209278"
       y1="44.983318"
       x1="40.209278"
       gradientUnits="userSpaceOnUse"
       id="linearGradient3911"
       xlink:href="#linearGradient3829"
       inkscape:collect="always" />
    <mask
       id="mask3903"
       maskUnits="userSpaceOnUse">
      <g
         style="font-size:68.31048584px;font-style:normal;font-variant:normal;font-weight:normal;font-stretch:normal;text-align:start;line-height:125%;letter-spacing:0px;word-spacing:0px;writing-mode:lr-tb;text-anchor:start;fill:url(#linearGradient3911);fill-opacity:1;stroke:none;font-family:MEAN 26 Sans;-inkscape-font-specification:MEAN 26 Sans"
         id="g3905"
         transform="translate(0,-0.80245732)">
        <path
           d="m 56.504568,23.596172 c -3.1e-5,2.59583 -1.001917,5.077775 -3.005661,7.445843 -1.86718,1.821637 -3.711561,3.666019 -5.533149,5.53315 -2.003795,2.185954 -3.005681,4.417427 -3.005662,6.694427 l 0.01162,2.254246 -5.41977,0 c 0,0 -0.02753,-1.69396 -0.02753,-2.431991 0,-3.454973 1.238363,-6.001952 2.839879,-7.677961 L 48.37562,28.85608 c 1.366186,-1.502801 2.04929,-3.347182 2.049315,-5.53315 -2.5e-5,-2.32252 -0.683129,-4.098591 -2.049315,-5.328217 -1.366231,-1.229549 -3.210612,-1.844343 -5.533149,-1.844384 -5.555931,4.1e-5 -8.333888,3.278941 -8.333879,9.83671 l -5.53315,0 c -3e-6,-1.184016 -0.03327,-2.963667 0.409863,-5.259907 0.560895,-2.906455 2.481942,-5.191555 5.259908,-6.96767 2.550246,-1.639406 5.373743,-2.459131 8.4705,-2.459177 3.779825,4.6e-5 6.922105,1.070242 9.426847,3.210593 2.641309,2.277056 3.961977,5.305485 3.962008,9.085294 M 45.50658,57 l -6.216254,0 0,-6.421186 6.216254,0 0,6.421186"
           id="path3907"
           inkscape:connector-curvature="0"
           sodipodi:nodetypes="ccccccccccccccsccccccccc"
           style="fill:url(#linearGradient3909);fill-opacity:1" />
      </g>
    </mask>
    <linearGradient
       id="linearGradient3108">
      <stop
         id="stop3110"
         offset="0"
         style="stop-color:#f7f6f6;stop-opacity:1" />
      <stop
         id="stop3112"
         offset="1"
         style="stop-color:#efeeee;stop-opacity:1" />
    </linearGradient>
    <linearGradient
       y2="12.679619"
       x2="40.209278"
       y1="44.983318"
       x1="40.209278"
       gradientUnits="userSpaceOnUse"
       id="linearGradient3123"
       xlink:href="#linearGradient3829"
       inkscape:collect="always" />
    <linearGradient
       id="linearGradient3101">
      <stop
         id="stop3103"
         offset="0"
         style="stop-color:#f7f6f6;stop-opacity:1" />
      <stop
         id="stop3105"
         offset="1"
         style="stop-color:#efeeee;stop-opacity:1" />
    </linearGradient>
    <linearGradient
       y2="12.679619"
       x2="40.209278"
       y1="44.983318"
       x1="40.209278"
       gradientUnits="userSpaceOnUse"
       id="linearGradient3119"
       xlink:href="#linearGradient3829"
       inkscape:collect="always" />
    <linearGradient
       id="linearGradient3829">
      <stop
         id="stop3831"
         offset="0"
         style="stop-color:#f7f6f6;stop-opacity:1" />
      <stop
         id="stop3833"
         offset="1"
         style="stop-color:#efeeee;stop-opacity:1" />
    </linearGradient>
    <linearGradient
       y2="12.679619"
       x2="40.209278"
       y1="44.983318"
       x1="40.209278"
       gradientUnits="userSpaceOnUse"
       id="linearGradient3121"
       xlink:href="#linearGradient3829"
       inkscape:collect="always" />
    <filter
       id="filter4015"
       inkscape:collect="always"
       color-interpolation-filters="sRGB">
      <feGaussianBlur
         id="feGaussianBlur4017"
         stdDeviation="0.5498323"
         inkscape:collect="always" />
    </filter>
    <filter
       id="filter4084"
       inkscape:collect="always">
      <feGaussianBlur
         id="feGaussianBlur4086"
         stdDeviation="1.4598961"
         inkscape:collect="always" />
    </filter>
    <filter
       height="1.408259"
       y="-0.2041295"
       width="1.3293014"
       x="-0.16465071"
       id="filter4087-9"
       inkscape:collect="always">
      <feGaussianBlur
         id="feGaussianBlur4089-5"
         stdDeviation="4.2234282"
         inkscape:collect="always" />
    </filter>
    <filter
       id="filter4123-6"
       inkscape:collect="always">
      <feGaussianBlur
         id="feGaussianBlur4125-4"
         stdDeviation="2.028"
         inkscape:collect="always" />
    </filter>
    <linearGradient
       id="linearGradient4518-3-8">
      <stop
         id="stop4520-1-9"
         offset="0"
         style="stop-color:#eeecec;stop-opacity:1" />
      <stop
         style="stop-color:#f4f4f4;stop-opacity:1"
         offset="0.40000001"
         id="stop5969-4-2" />
      <stop
         id="stop4522-9-6"
         offset="1"
         style="stop-color:#f6f5f5;stop-opacity:1" />
    </linearGradient>
    <linearGradient
       gradientTransform="matrix(1.013528,0,0,1.013266,-1.5133685,-1.3073648)"
       gradientUnits="userSpaceOnUse"
       y2="116.40091"
       x2="72"
       y1="0"
       x1="72"
       id="linearGradient4524-4-6"
       xlink:href="#linearGradient4518-3-8"
       inkscape:collect="always" />
    <filter
       height="2.0255013"
       y="-0.51275069"
       width="1.9574188"
       x="-0.47870937"
       id="filter6171-8-2"
       inkscape:collect="always"
       color-interpolation-filters="sRGB">
      <feGaussianBlur
         id="feGaussianBlur6173-8-0"
         stdDeviation="10.140743"
         inkscape:collect="always" />
    </filter>
    <linearGradient
       id="linearGradient5982-7-1"
       inkscape:collect="always">
      <stop
         id="stop5984-8-4"
         offset="0"
         style="stop-color:#ffffff;stop-opacity:1;" />
      <stop
         id="stop5986-6-9"
         offset="1"
         style="stop-color:#ffffff;stop-opacity:0;" />
    </linearGradient>
    <radialGradient
       gradientUnits="userSpaceOnUse"
       gradientTransform="matrix(1.7069944,-0.08541345,0.06979496,1.3941371,-50.362376,-20.218185)"
       r="47.5"
       fy="47.274845"
       fx="63.793392"
       cy="64.004021"
       cx="64"
       id="radialGradient5988-0-3"
       xlink:href="#linearGradient5982-7-1"
       inkscape:collect="always" />
    <clipPath
       id="clipPath6093-7-8"
       clipPathUnits="userSpaceOnUse">
      <path
         style="fill:#ffffff;fill-opacity:1"
         d="m 17.000001,8 0.782827,110 57.5,0 c 1.675283,0 3.119418,0.18058 4.9,-1.6 C 88.980763,107.60206 99.94047,96.548195 107.19904,89.224043 109.6396,86.761431 110,84.752873 110,82.5 L 110,8 z"
         id="path6095-4-4"
         sodipodi:nodetypes="cccssccc"
         inkscape:connector-curvature="0" />
    </clipPath>
    <linearGradient
       id="linearGradient3897-7-3">
      <stop
         id="stop3899-4-0"
         offset="0"
         style="stop-color:#fcfcfc;stop-opacity:1" />
      <stop
         style="stop-color:#f8f8f8;stop-opacity:1"
         offset="0.52275378"
         id="stop3901-5-7" />
      <stop
         id="stop3903-2-8"
         offset="0.72337759"
         style="stop-color:#f0efef;stop-opacity:1;" />
      <stop
         id="stop3905-5-6"
         offset="0.89024991"
         style="stop-color:#e3e1e1;stop-opacity:1;" />
      <stop
         id="stop3907-4-8"
         offset="1"
         style="stop-color:#cecbcb;stop-opacity:1" />
    </linearGradient>
    <linearGradient
       y2="102.18401"
       x2="94.220871"
       y1="90.381706"
       x1="82.15696"
       gradientTransform="matrix(1.3731411,0,0,1.4035776,-41.378546,-43.42319)"
       gradientUnits="userSpaceOnUse"
       id="linearGradient3895-3-4"
       xlink:href="#linearGradient3897-7-3"
       inkscape:collect="always" />
    <filter
       id="filter3909-6-7"
       inkscape:collect="always"
       color-interpolation-filters="sRGB">
      <feGaussianBlur
         id="feGaussianBlur3911-9-4"
         stdDeviation="0.43040059"
         inkscape:collect="always" />
    </filter>
    <clipPath
       id="clipPath3889-6-5"
       clipPathUnits="userSpaceOnUse">
      <path
         style="fill:url(#linearGradient3893-3);fill-opacity:1;stroke:none"
         d="m 112,82.502986 c 0,4.465301 -2.79749,6.409952 -5.27972,8.093625 -5.10854,3.46508 -14.939114,3.32536 -20.720284,3.40638 -0.081,5.781159 0.16586,15.504599 -3.29922,20.613139 -1.68367,2.48224 -5.29051,5.38687 -8.20078,5.38687 2.31803,0 4.74284,-1.33476 7.58402,-4.08481 9.14197,-8.84873 17.36714,-16.13535 25.673154,-25.297529 C 109.67612,88.503916 112,86.97878 112,82.502986 z"
         id="path3891-5-4"
         inkscape:connector-curvature="0"
         sodipodi:nodetypes="cscscssc" />
    </clipPath>
    <linearGradient
       id="linearGradient3913-5-4"
       inkscape:collect="always">
      <stop
         id="stop3915-4-5"
         offset="0"
         style="stop-color:#ffffff;stop-opacity:1;" />
      <stop
         id="stop3917-7-2"
         offset="1"
         style="stop-color:#ffffff;stop-opacity:0;" />
    </linearGradient>
    <radialGradient
       gradientUnits="userSpaceOnUse"
       gradientTransform="matrix(1.3067347,0,0,1.3067347,-27.83617,-33.818441)"
       r="18.750002"
       fy="110.25299"
       fx="90.75"
       cy="110.25299"
       cx="90.75"
       id="radialGradient3919-5-7"
       xlink:href="#linearGradient3913-5-4"
       inkscape:collect="always" />
    <linearGradient
       y2="102.34375"
       x2="95.460213"
       y1="93.621468"
       x1="86.73793"
       gradientTransform="matrix(1.0119858,0,0,1.0119858,-0.89554075,-0.9871566)"
       gradientUnits="userSpaceOnUse"
       id="linearGradient3893-3"
       xlink:href="#linearGradient6131-4"
       inkscape:collect="always" />
    <linearGradient
       id="linearGradient6131-4">
      <stop
         style="stop-color:#fcfcfc;stop-opacity:1"
         offset="0"
         id="stop6133-7" />
      <stop
         id="stop6135-6"
         offset="0.52275378"
         style="stop-color:#f8f8f8;stop-opacity:1" />
      <stop
         style="stop-color:#f0efef;stop-opacity:1;"
         offset="0.77457333"
         id="stop6141-5" />
      <stop
         style="stop-color:#e3e1e1;stop-opacity:1;"
         offset="0.90122044"
         id="stop6139-6" />
      <stop
         style="stop-color:#cecbcb;stop-opacity:1"
         offset="1"
         id="stop6137-9" />
    </linearGradient>
    <linearGradient
       inkscape:collect="always"
       xlink:href="#linearGradient3897-7-3"
       id="linearGradient3247"
       gradientUnits="userSpaceOnUse"
       gradientTransform="matrix(1.3731411,0,0,1.4035776,-313.40697,-164.20923)"
       x1="82.15696"
       y1="90.381706"
       x2="94.220871"
       y2="102.18401" />
    <radialGradient
       inkscape:collect="always"
       xlink:href="#linearGradient5982-7-1"
       id="radialGradient3253"
       gradientUnits="userSpaceOnUse"
       gradientTransform="matrix(1.7069944,-0.08541345,0.06979496,1.3941371,-322.3908,-141.00422)"
       cx="64"
       cy="64.004021"
       fx="63.793392"
       fy="47.274845"
       r="47.5" />
    <linearGradient
       inkscape:collect="always"
       xlink:href="#linearGradient4518-3-8"
       id="linearGradient3256"
       gradientUnits="userSpaceOnUse"
       gradientTransform="matrix(1.013528,0,0,1.013266,-273.54179,-122.0934)"
       x1="72"
       y1="0"
       x2="72"
       y2="116.40091" />
    <linearGradient
       inkscape:collect="always"
       xlink:href="#linearGradient3829"
       id="linearGradient3261"
       gradientUnits="userSpaceOnUse"
       x1="40.209278"
       y1="44.983318"
       x2="40.209278"
       y2="12.679619" />
    <linearGradient
       inkscape:collect="always"
       xlink:href="#linearGradient3829"
       id="linearGradient3263"
       gradientUnits="userSpaceOnUse"
       x1="40.209278"
       y1="44.983318"
       x2="40.209278"
       y2="12.679619" />
    <linearGradient
       inkscape:collect="always"
       xlink:href="#linearGradient3829"
       id="linearGradient3265"
       gradientUnits="userSpaceOnUse"
       x1="40.209278"
       y1="44.983318"
       x2="40.209278"
       y2="12.679619" />
  </defs>
  <sodipodi:namedview
     id="base"
     pagecolor="#ffffff"
     bordercolor="#666666"
     borderopacity="1.0"
     inkscape:pageopacity="0.0"
     inkscape:pageshadow="2"
     inkscape:zoom="1.4142135"
     inkscape:cx="1.209412"
     inkscape:cy="98.859729"
     inkscape:document-units="px"
     inkscape:current-layer="layer1"
     width="128px"
     height="128px"
     showgrid="true"
     inkscape:grid-points="true"
     showguides="true"
     inkscape:guide-bbox="true"
     inkscape:window-width="1224"
     inkscape:window-height="757"
     inkscape:window-x="0"
     inkscape:window-y="383"
     inkscape:snap-global="true"
     inkscape:window-maximized="0"
     inkscape:snap-page="true">
    <inkscape:grid
       id="GridFromPre046Settings"
       type="xygrid"
       originx="0px"
       originy="0px"
       spacingx="5.8181px"
       spacingy="5.8181px"
       color="#0000ff"
       empcolor="#0000ff"
       opacity="0.2"
       empopacity="0.4"
       empspacing="2"
       visible="true"
       enabled="true"
       snapvisiblegridlinesonly="true" />
    <sodipodi:guide
       orientation="1,0"
       position="-68,29.325902"
       id="guide4564" />
    <sodipodi:guide
       orientation="1,0"
       position="-121.62237,135.0574"
       id="guide3859" />
    <sodipodi:guide
       orientation="0,1"
       position="38.581514,-74.688154"
       id="guide4360" />
  </sodipodi:namedview>
  <metadata
     id="metadata2611">
    <rdf:RDF>
      <cc:Work
         rdf:about="">
        <dc:format>image/svg+xml</dc:format>
        <dc:type
           rdf:resource="http://purl.org/dc/dcmitype/StillImage" />
        <dc:title></dc:title>
      </cc:Work>
    </rdf:RDF>
  </metadata>
  <g
     inkscape:label="Livello 1"
     inkscape:groupmode="layer"
     id="layer1">
    <path
       style="opacity:0.45606695;fill:#000000;fill-opacity:1;filter:url(#filter4123)"
       d="m 13.333,5.3364 0,118.3304 49.8545,-0.0668 c 2.115554,-0.003 4.528919,-1.77169 7,-4.25 0.71234,-0.71442 1.440746,-1.39395 2.15625,-2.09375 0.415612,-0.40649 0.832187,-0.81443 1.25,-1.21875 7.773958,-7.40962 26.98341,-25.122599 34.21875,-33.099999 0.42065,-0.42064 0.81207,-0.8111 1.15625,-1.1875 1.46444,-1.49766 2.76158,-2.8378 2.99375,-5.8625 L 112,75.156251 111.9972,5.3364 z"
       id="path5990"
       inkscape:connector-curvature="0"
       sodipodi:nodetypes="ccsssccccccc"
       transform="matrix(1.003095,0,0,0.98228452,-1.7655506,0.69098557)" />
    <path
       sodipodi:type="inkscape:offset"
       inkscape:radius="1.0279198"
       inkscape:original="M 13.1875 4.53125 C 12.818918 4.609246 12.529956 4.967008 12.53125 5.34375 L 12.53125 123.65625 C 12.53885 124.07954 12.920464 124.4611 13.34375 124.46875 L 62.15625 124.46875 C 63.930251 124.46875 65.829207 124.74865 68.6875 122.8125 C 68.829003 122.58432 71.218784 120.82456 70.53125 121.25 C 80.188854 112.07585 98.162197 92.41186 109.34375 81.09375 C 111.06182 79.375681 112.8125 77.674752 112.8125 73.3125 L 112.8125 5.34375 C 112.80483 4.9204809 112.42327 4.5388981 112 4.53125 L 13.34375 4.53125 C 13.29182 4.52633 13.239428 4.52633 13.1875 4.53125 z "
       style="fill:#000000;fill-opacity:1;filter:url(#filter3814)"
       id="path3314"
       d="m 13.09375,3.5 a 1.0280226,1.0280226 0 0 0 -0.125,0.03125 C 12.083764,3.7185227 11.496893,4.4391709 11.5,5.34375 l 0,118.3125 a 1.0280226,1.0280226 0 0 0 0,0.0313 c 0.01849,1.02971 0.782949,1.79389 1.8125,1.8125 a 1.0280226,1.0280226 0 0 0 0.03125,0 l 48.8125,0 c 1.665878,0 4.022349,0.23675 7.09375,-1.84375 a 1.0280226,1.0280226 0 0 0 0.28125,-0.21875 c 0.0578,-0.0515 0.139644,-0.12864 0.25,-0.21875 0.220712,-0.18022 0.516774,-0.41745 0.78125,-0.625 0.264476,-0.20755 0.495635,-0.39648 0.65625,-0.53125 0.04015,-0.0337 0.07966,-0.051 0.125,-0.0937 0.02267,-0.0214 0.04798,-0.0408 0.09375,-0.0937 0.02288,-0.0265 0.04727,-0.051 0.09375,-0.125 0.0081,-0.013 0.01807,-0.0366 0.03125,-0.0625 9.780644,-9.33282 27.440979,-28.680919 38.5,-39.875 1.71105,-1.711053 3.78125,-3.862728 3.78125,-8.5 l 0,-67.96875 a 1.0280226,1.0280226 0 0 0 0,-0.03125 C 113.82509,4.2829723 113.06085,3.5186039 112.03125,3.5 A 1.0280226,1.0280226 0 0 0 112,3.5 l -98.5625,0 c -0.03179,-0.00301 -0.06191,0.00137 -0.09375,0 -0.08491,-0.00365 -0.165226,-0.00803 -0.25,0 z"
       transform="matrix(1.003095,0,0,0.98228452,-1.7655506,0.69098557)" />
    <path
       style="fill:#ffffff;fill-opacity:1"
       d="m 11.608716,5.836076 0,116.330904 49.485099,0 c 1.680486,0 3.926459,-0.55989 7.021752,-3.56934 8.897609,-8.6509 32.175353,-31.250103 39.456483,-38.511869 2.44813,-2.441635 3.01026,-4.433083 3.01026,-6.66676 l -0.003,-67.582935 z"
       id="path34"
       sodipodi:nodetypes="cccssccc"
       inkscape:connector-curvature="0" />
    <path
       style="fill:url(#linearGradient4524-4);fill-opacity:1"
       d="m 17.07938,10.744349 c -0.340895,0 -0.501546,0.230461 -0.501546,0.491142 l 0,104.549779 c 0,0.80702 0.681425,1.474 1.504643,1.47343 l 44.496615,-0.0308 c 0.05324,-4e-5 0.812893,0.0229 1.504643,0.0308 1.783165,-0.0393 3.141667,-0.74038 4.369516,-1.56504 1.055122,-0.28588 25.815399,-23.810974 34.964739,-32.837827 1.36662,-1.348301 2.19223,-3.878226 2.19223,-4.808882 l 0,-66.81146 c 0,-0.317 -0.16372,-0.491143 -0.50156,-0.491143 z"
       id="path3967"
       inkscape:connector-curvature="0"
       sodipodi:nodetypes="ccsssccscccc" />
    <path
       sodipodi:nodetypes="ccssscccccc"
       inkscape:connector-curvature="0"
       id="path5980"
       d="m 17.07938,10.744349 c -0.340895,0 -0.501546,0.230461 -0.501546,0.491142 l 0,104.549779 c 0,0.80703 0.68144,1.46853 1.504643,1.47343 l 46.36344,0.27591 c 0.05324,3.2e-4 3.284015,-0.008 3.975766,5e-5 6.561216,-4.42387 26.757215,-26.379267 35.730127,-35.221607 0.65937,-0.724227 0.45902,-0.363513 1.45841,-1.578984 l 0,-69.498578 c 0,-0.317 -0.16372,-0.491143 -0.50156,-0.491143 z"
       style="opacity:0.84653476;fill:url(#radialGradient5988-0);fill-opacity:1" />
    <path
       style="fill:#000000"
       d=""
       id="path2197" />
    <path
       clip-path="url(#clipPath6093-7)"
       style="opacity:0.6056338;fill:#000000;fill-opacity:1;stroke:none;filter:url(#filter6171-8)"
       d="m 114.4,82.502986 c 0,4.465301 -9.3766,4.299815 -11.85883,5.983488 -5.108537,3.46508 -16.574334,-0.810699 -22.355504,-0.729679 -0.081,5.781159 0.365076,18.386735 0.365076,24.536755 0,2.97817 -3.440475,11.20945 -6.350745,11.20945 -2.091359,1.5337 3.488204,8.21101 6.734971,5.31989 9.501888,-8.46107 35.131682,-30.022701 43.350822,-39.262886 2.04044,-2.29392 -4.90514,-9.844666 -9.88579,-7.057018 z"
       id="path6153"
       inkscape:connector-curvature="0"
       sodipodi:nodetypes="cscscssc"
       transform="matrix(1.258302,0,0,1.2610357,-31.355772,-28.164007)" />
    <path
       sodipodi:nodetypes="cscscssc"
       inkscape:connector-curvature="0"
       id="path6081"
       d="m 113.9,82.502986 c 0,4.465301 -7.96273,7.457662 -10.95287,7.881439 -6.394981,0.906328 -15.304541,-0.844131 -21.085711,-0.763111 -0.081,5.781159 3.397918,20.001056 -0.06716,25.109596 -1.68367,2.48224 -3.883991,8.07209 -6.794261,8.07209 -2.091359,1.5337 3.488204,11.21101 6.734971,8.31989 9.501888,-8.46107 45.998943,-30.20138 54.218083,-39.441569 2.04044,-2.29392 -17.0724,-11.965986 -22.05305,-9.178335 z"
       style="opacity:0.64319249;fill:#000000;fill-opacity:1;stroke:none;filter:url(#filter4087)"
       clip-path="url(#clipPath6093-7)"
       transform="matrix(1.3586765,0,0,1.3616521,-42.382653,-40.155635)" />
    <path
       style="fill:url(#linearGradient3895-3);fill-opacity:1;stroke:none"
       d="m 110.63455,70.194961 c 0,6.22666 -3.89615,8.938389 -7.35324,11.28619 -7.11485,4.831902 -21.758838,3.808851 -29.810472,3.92183 -0.112812,8.061568 0.720236,21.530529 -4.105701,28.654139 -2.344905,3.46138 -6.904898,8.42993 -10.95813,8.42993 3.228399,0 6.605514,-1.86127 10.562523,-5.69609 12.732335,-12.33915 24.187814,-22.50002 35.75589,-35.27627 2.67259,-2.951702 5.90913,-5.078441 5.90913,-11.319729 z"
       id="path6011"
       inkscape:connector-curvature="0"
       sodipodi:nodetypes="cscscssc" />
    <path
       style="fill:#ffffff;fill-opacity:1;stroke:none"
       d="m 110.66063,69.760596 c -0.44065,5.437134 -4.51314,7.338042 -6.73057,8.843942 -5.25734,3.570397 -12.241076,3.279514 -34.154353,3.279514 0,19.761338 0.513212,28.553598 -3.305002,33.382518 -2.272989,2.87466 -6.824021,6.07997 -10.532933,6.90254 5.082113,0 8.629228,-1.08751 11.949253,-4.30502 0.472301,-0.5418 1.415698,-1.55003 2.15657,-2.69493 3.94064,-5.81684 3.837814,-17.294735 3.837814,-29.263474 8.051633,-0.11295 22.202451,1.162156 29.317291,-3.669742 0.64822,-0.440215 2.63774,-2.020759 3.2183,-2.58944 3.22475,-3.158721 3.92397,-5.17219 4.24363,-9.885908 z M 55.937772,122.16911 c -0.219575,0.0485 -0.436533,0.0579 -0.652846,0.087 0.218648,-0.0234 0.432367,-0.0468 0.652846,-0.087 z"
       id="path6122"
       inkscape:connector-curvature="0"
       sodipodi:nodetypes="cscsccccsscccc" />
    <path
       style="fill:none;stroke:url(#radialGradient3919-5);stroke-width:1.82707405;stroke-linecap:butt;stroke-linejoin:miter;stroke-miterlimit:4;stroke-opacity:1;stroke-dasharray:none;filter:url(#filter3909-6)"
       d="M 108.97651,89.508691 79.934895,118.21077"
       id="path3873"
       inkscape:connector-curvature="0"
       sodipodi:nodetypes="cc"
       clip-path="url(#clipPath3889-6)"
       transform="matrix(1.3927341,0,0,1.3944553,-45.351691,-44.851769)" />
    <path
       inkscape:connector-curvature="0"
       style="fill:#000000"
       d=""
       id="path2197-0" />
    <g
       transform="matrix(1.6861494,0,0,1.6861494,-28.994643,-15.381121)"
       style="opacity:0.48535563;filter:url(#filter4015)"
       id="g3109">
      <g
         style="font-size:68.31048584px;font-style:normal;font-variant:normal;font-weight:normal;font-stretch:normal;text-align:start;line-height:125%;letter-spacing:0px;word-spacing:0px;writing-mode:lr-tb;text-anchor:start;fill:url(#linearGradient3263);fill-opacity:1;stroke:none;font-family:MEAN 26 Sans;-inkscape-font-specification:MEAN 26 Sans"
         id="g3111"
         transform="matrix(1.2461722,0,0,1.2461722,-5.1328089,4.2181838)">
        <path
           d="m 56.504568,23.596172 c -3.1e-5,2.59583 -1.001917,5.077775 -3.005661,7.445843 -1.86718,1.821637 -3.711561,3.666019 -5.533149,5.53315 -2.003795,2.185954 -3.005681,4.417427 -3.005662,6.694427 l 0.01162,2.254246 -5.41977,0 c 0,0 -0.02753,-1.69396 -0.02753,-2.431991 0,-3.454973 1.238363,-6.001952 2.839879,-7.677961 L 48.37562,28.85608 c 1.366186,-1.502801 2.04929,-3.347182 2.049315,-5.53315 -2.5e-5,-2.32252 -0.683129,-4.098591 -2.049315,-5.328217 -1.366231,-1.229549 -3.210612,-1.844343 -5.533149,-1.844384 -5.555931,4.1e-5 -8.333888,3.278941 -8.333879,9.83671 l -5.53315,0 c -3e-6,-1.184016 -0.03327,-2.963667 0.409863,-5.259907 0.560895,-2.906455 2.481942,-5.191555 5.259908,-6.96767 2.550246,-1.639406 5.373743,-2.459131 8.4705,-2.459177 3.779825,4.6e-5 6.922105,1.070242 9.426847,3.210593 2.641309,2.277056 3.961977,5.305485 3.962008,9.085294 M 45.50658,57 l -6.216254,0 0,-6.421186 6.216254,0 0,6.421186"
           id="path3113"
           inkscape:connector-curvature="0"
           sodipodi:nodetypes="ccccccccccccccsccccccccc"
           style="fill:url(#linearGradient3261);fill-opacity:1" />
      </g>
      <g
         style="font-size:68.31048584px;font-style:normal;font-variant:normal;font-weight:normal;font-stretch:normal;text-align:start;line-height:125%;letter-spacing:0px;word-spacing:0px;writing-mode:lr-tb;text-anchor:start;opacity:0.27615063;fill:url(#linearGradient3265);fill-opacity:1;stroke:#000000;stroke-width:0.6788789;stroke-miterlimit:4;stroke-opacity:1;stroke-dasharray:none;filter:url(#filter3941);font-family:MEAN 26 Sans;-inkscape-font-specification:MEAN 26 Sans"
         id="g3115"
         transform="matrix(1.2461722,0,0,1.2461722,-5.13281,5.2181838)"
         mask="url(#mask3903)">
        <path
           style="font-size:medium;font-style:normal;font-variant:normal;font-weight:normal;font-stretch:normal;text-indent:0;text-align:start;text-decoration:none;line-height:125%;letter-spacing:0;word-spacing:0;text-transform:none;direction:ltr;block-progression:tb;writing-mode:lr-tb;text-anchor:start;baseline-shift:baseline;color:#000000;fill:#000000;fill-opacity:1;fill-rule:nonzero;stroke:none;stroke-width:0.6788789;marker:none;visibility:visible;display:inline;overflow:visible;enable-background:accumulate;font-family:MEAN 26 Sans;-inkscape-font-specification:MEAN 26 Sans"
           d="M 43.024693,6.0135761 C 39.868038,6.0136231 30.551599,7.3419119 27.948784,9.0151119 25.119331,10.824146 13.093765,19.747159 12.511818,22.7627 c -0.449915,2.331383 10.48763,3.802722 11.198131,4.741907 l 1.905836,2.519258 4.95788,5.215973 4.327564,-7.021502 4.556651,-0.902764 -0.802458,-1.817108 C 37.3502,22.542883 37.633366,22.504496 38.9502,20.9502 c 1.316834,-1.554296 0.680823,-1.842194 3.392014,-1.842214 2.262639,4e-5 0.807529,0.584428 2.102671,1.75 1.287202,1.158537 1.335633,-0.102371 1.335657,2.153593 -2.4e-5,2.115255 -0.05582,2.064784 -1.366907,3.506971 l -5.097236,6.462192 c -1.659802,1.737006 -4.3418,5.172625 -4.3418,8.708708 0,0.746472 1.134629,2.4375 1.134629,2.4375 l 0.100307,1.346821 1.447129,1.303993 6.409322,0.200615 2.4502,0.300921 1.604915,-2.149279 1.203686,-1.54785 c 1.336675,-1.718864 3.851032,-2.019008 5.815157,-4.161685 1.819637,-1.865131 2.061156,-1.504806 3.926336,-3.324492 l 3.109522,1.774279 C 64.219051,35.455518 62.761841,27.279989 62.761873,24.596822 62.761841,20.737948 67.297904,9.6665096 64.586245,7.3288056 62.017394,5.1336726 46.868587,6.0136231 43.024693,6.0135761 z M 43.125,11.384263 c 3.715756,4.5e-5 6.746867,1.070681 9.1875,3.15625 2.570959,2.216408 3.84372,5.352493 3.84375,9.053237 -3e-5,2.508493 -0.942011,4.736878 -2.90625,7.058259 -1.86918,1.823588 -3.707711,3.662119 -5.53125,5.53125 -2.043465,2.229231 -3.09377,4.72142 -3.09375,7.097991 l 0,1.673704 -4.71875,0 C 39.90055,44.589398 39.875,43.720466 39.875,43.09375 c 0,-3.373863 1.20677,-5.822488 2.75,-7.4375 l 6,-6.5625 c 1.42129,-1.563415 2.124974,-3.524569 2.125,-5.78125 -2.6e-5,-2.389076 -0.71108,-4.261785 -2.15625,-5.5625 -1.43732,-1.293526 -3.367565,-2.178195 -5.75,-2.178237 -2.84474,2.1e-5 -5.038875,1.07863 -6.5,2.803237 -1.404394,1.657646 -2.103718,3.831918 -2.15625,6.971189 l -4.84375,0 c -0.002,-1.179944 -0.03258,-2.452927 0.375,-4.564939 0.539843,-2.797369 2.367271,-5.247541 5.09375,-6.990737 l 0.03125,0 c 2.497677,-1.605612 5.244391,-2.406205 8.28125,-2.40625 z m -6.594872,36.408979 -0.802457,1.346822 -1.003072,8.011165 0.802457,2.249586 4.857573,0.70215 8.525815,-0.501536 -0.802458,-1.74805 3.653887,-0.601843 -3.310137,-6.907786 0.401229,-2.149279 -3.553579,0.100307 -5.616907,-0.501536 z M 39.625,50.6875 l 5.53125,0 0,5.317521 -5.53125,0 z"
           id="path3117"
           inkscape:connector-curvature="0"
           sodipodi:nodetypes="ccssccccsscccccsccccccscccccccccccsccscccccsccsccccccccccccccccccccc" />
      </g>
    </g>
    <g
       id="g3267"
       style="opacity:0.48535563;filter:url(#filter4015)"
       transform="matrix(1.6861494,0,0,1.6861494,-28.994643,-15.381121)">
      <g
         transform="matrix(1.2461722,0,0,1.2461722,-5.1328089,4.2181838)"
         id="g3269"
         style="font-size:68.31048584px;font-style:normal;font-variant:normal;font-weight:normal;font-stretch:normal;text-align:start;line-height:125%;letter-spacing:0px;word-spacing:0px;writing-mode:lr-tb;text-anchor:start;fill:url(#linearGradient3263);fill-opacity:1;stroke:none;font-family:MEAN 26 Sans;-inkscape-font-specification:MEAN 26 Sans">
        <path
           style="fill:url(#linearGradient3261);fill-opacity:1"
           sodipodi:nodetypes="ccccccccccccccsccccccccc"
           inkscape:connector-curvature="0"
           id="path3271"
           d="m 56.504568,23.596172 c -3.1e-5,2.59583 -1.001917,5.077775 -3.005661,7.445843 -1.86718,1.821637 -3.711561,3.666019 -5.533149,5.53315 -2.003795,2.185954 -3.005681,4.417427 -3.005662,6.694427 l 0.01162,2.254246 -5.41977,0 c 0,0 -0.02753,-1.69396 -0.02753,-2.431991 0,-3.454973 1.238363,-6.001952 2.839879,-7.677961 L 48.37562,28.85608 c 1.366186,-1.502801 2.04929,-3.347182 2.049315,-5.53315 -2.5e-5,-2.32252 -0.683129,-4.098591 -2.049315,-5.328217 -1.366231,-1.229549 -3.210612,-1.844343 -5.533149,-1.844384 -5.555931,4.1e-5 -8.333888,3.278941 -8.333879,9.83671 l -5.53315,0 c -3e-6,-1.184016 -0.03327,-2.963667 0.409863,-5.259907 0.560895,-2.906455 2.481942,-5.191555 5.259908,-6.96767 2.550246,-1.639406 5.373743,-2.459131 8.4705,-2.459177 3.779825,4.6e-5 6.922105,1.070242 9.426847,3.210593 2.641309,2.277056 3.961977,5.305485 3.962008,9.085294 M 45.50658,57 l -6.216254,0 0,-6.421186 6.216254,0 0,6.421186" />
      </g>
      <g
         mask="url(#mask3903)"
         transform="matrix(1.2461722,0,0,1.2461722,-5.13281,5.2181838)"
         id="g3273"
         style="font-size:68.31048584px;font-style:normal;font-variant:normal;font-weight:normal;font-stretch:normal;text-align:start;line-height:125%;letter-spacing:0px;word-spacing:0px;writing-mode:lr-tb;text-anchor:start;opacity:0.27615063;fill:url(#linearGradient3265);fill-opacity:1;stroke:#000000;stroke-width:0.6788789;stroke-miterlimit:4;stroke-opacity:1;stroke-dasharray:none;filter:url(#filter3941);font-family:MEAN 26 Sans;-inkscape-font-specification:MEAN 26 Sans">
        <path
           sodipodi:nodetypes="ccssccccsscccccsccccccscccccccccccsccscccccsccsccccccccccccccccccccc"
           inkscape:connector-curvature="0"
           id="path3275"
           d="M 43.024693,6.0135761 C 39.868038,6.0136231 30.551599,7.3419119 27.948784,9.0151119 25.119331,10.824146 13.093765,19.747159 12.511818,22.7627 c -0.449915,2.331383 10.48763,3.802722 11.198131,4.741907 l 1.905836,2.519258 4.95788,5.215973 4.327564,-7.021502 4.556651,-0.902764 -0.802458,-1.817108 C 37.3502,22.542883 37.633366,22.504496 38.9502,20.9502 c 1.316834,-1.554296 0.680823,-1.842194 3.392014,-1.842214 2.262639,4e-5 0.807529,0.584428 2.102671,1.75 1.287202,1.158537 1.335633,-0.102371 1.335657,2.153593 -2.4e-5,2.115255 -0.05582,2.064784 -1.366907,3.506971 l -5.097236,6.462192 c -1.659802,1.737006 -4.3418,5.172625 -4.3418,8.708708 0,0.746472 1.134629,2.4375 1.134629,2.4375 l 0.100307,1.346821 1.447129,1.303993 6.409322,0.200615 2.4502,0.300921 1.604915,-2.149279 1.203686,-1.54785 c 1.336675,-1.718864 3.851032,-2.019008 5.815157,-4.161685 1.819637,-1.865131 2.061156,-1.504806 3.926336,-3.324492 l 3.109522,1.774279 C 64.219051,35.455518 62.761841,27.279989 62.761873,24.596822 62.761841,20.737948 67.297904,9.6665096 64.586245,7.3288056 62.017394,5.1336726 46.868587,6.0136231 43.024693,6.0135761 z M 43.125,11.384263 c 3.715756,4.5e-5 6.746867,1.070681 9.1875,3.15625 2.570959,2.216408 3.84372,5.352493 3.84375,9.053237 -3e-5,2.508493 -0.942011,4.736878 -2.90625,7.058259 -1.86918,1.823588 -3.707711,3.662119 -5.53125,5.53125 -2.043465,2.229231 -3.09377,4.72142 -3.09375,7.097991 l 0,1.673704 -4.71875,0 C 39.90055,44.589398 39.875,43.720466 39.875,43.09375 c 0,-3.373863 1.20677,-5.822488 2.75,-7.4375 l 6,-6.5625 c 1.42129,-1.563415 2.124974,-3.524569 2.125,-5.78125 -2.6e-5,-2.389076 -0.71108,-4.261785 -2.15625,-5.5625 -1.43732,-1.293526 -3.367565,-2.178195 -5.75,-2.178237 -2.84474,2.1e-5 -5.038875,1.07863 -6.5,2.803237 -1.404394,1.657646 -2.103718,3.831918 -2.15625,6.971189 l -4.84375,0 c -0.002,-1.179944 -0.03258,-2.452927 0.375,-4.564939 0.539843,-2.797369 2.367271,-5.247541 5.09375,-6.990737 l 0.03125,0 c 2.497677,-1.605612 5.244391,-2.406205 8.28125,-2.40625 z m -6.594872,36.408979 -0.802457,1.346822 -1.003072,8.011165 0.802457,2.249586 4.857573,0.70215 8.525815,-0.501536 -0.802458,-1.74805 3.653887,-0.601843 -3.310137,-6.907786 0.401229,-2.149279 -3.553579,0.100307 -5.616907,-0.501536 z M 39.625,50.6875 l 5.53125,0 0,5.317521 -5.53125,0 z"
           style="font-size:medium;font-style:normal;font-variant:normal;font-weight:normal;font-stretch:normal;text-indent:0;text-align:start;text-decoration:none;line-height:125%;letter-spacing:0;word-spacing:0;text-transform:none;direction:ltr;block-progression:tb;writing-mode:lr-tb;text-anchor:start;baseline-shift:baseline;color:#000000;fill:#000000;fill-opacity:1;fill-rule:nonzero;stroke:none;stroke-width:0.6788789;marker:none;visibility:visible;display:inline;overflow:visible;enable-background:accumulate;font-family:MEAN 26 Sans;-inkscape-font-specification:MEAN 26 Sans" />
      </g>
    </g>
    <g
       transform="matrix(1.6861494,0,0,1.6861494,-28.994643,-15.381121)"
       style="opacity:0.48535563;filter:url(#filter4015)"
       id="g3277">
      <g
         style="font-size:68.31048584px;font-style:normal;font-variant:normal;font-weight:normal;font-stretch:normal;text-align:start;line-height:125%;letter-spacing:0px;word-spacing:0px;writing-mode:lr-tb;text-anchor:start;fill:url(#linearGradient3263);fill-opacity:1;stroke:none;font-family:MEAN 26 Sans;-inkscape-font-specification:MEAN 26 Sans"
         id="g3279"
         transform="matrix(1.2461722,0,0,1.2461722,-5.1328089,4.2181838)">
        <path
           d="m 56.504568,23.596172 c -3.1e-5,2.59583 -1.001917,5.077775 -3.005661,7.445843 -1.86718,1.821637 -3.711561,3.666019 -5.533149,5.53315 -2.003795,2.185954 -3.005681,4.417427 -3.005662,6.694427 l 0.01162,2.254246 -5.41977,0 c 0,0 -0.02753,-1.69396 -0.02753,-2.431991 0,-3.454973 1.238363,-6.001952 2.839879,-7.677961 L 48.37562,28.85608 c 1.366186,-1.502801 2.04929,-3.347182 2.049315,-5.53315 -2.5e-5,-2.32252 -0.683129,-4.098591 -2.049315,-5.328217 -1.366231,-1.229549 -3.210612,-1.844343 -5.533149,-1.844384 -5.555931,4.1e-5 -8.333888,3.278941 -8.333879,9.83671 l -5.53315,0 c -3e-6,-1.184016 -0.03327,-2.963667 0.409863,-5.259907 0.560895,-2.906455 2.481942,-5.191555 5.259908,-6.96767 2.550246,-1.639406 5.373743,-2.459131 8.4705,-2.459177 3.779825,4.6e-5 6.922105,1.070242 9.426847,3.210593 2.641309,2.277056 3.961977,5.305485 3.962008,9.085294 M 45.50658,57 l -6.216254,0 0,-6.421186 6.216254,0 0,6.421186"
           id="path3281"
           inkscape:connector-curvature="0"
           sodipodi:nodetypes="ccccccccccccccsccccccccc"
           style="fill:url(#linearGradient3261);fill-opacity:1" />
      </g>
      <g
         style="font-size:68.31048584px;font-style:normal;font-variant:normal;font-weight:normal;font-stretch:normal;text-align:start;line-height:125%;letter-spacing:0px;word-spacing:0px;writing-mode:lr-tb;text-anchor:start;opacity:0.27615063;fill:url(#linearGradient3265);fill-opacity:1;stroke:#000000;stroke-width:0.6788789;stroke-miterlimit:4;stroke-opacity:1;stroke-dasharray:none;filter:url(#filter3941);font-family:MEAN 26 Sans;-inkscape-font-specification:MEAN 26 Sans"
         id="g3283"
         transform="matrix(1.2461722,0,0,1.2461722,-5.13281,5.2181838)"
         mask="url(#mask3903)">
        <path
           style="font-size:medium;font-style:normal;font-variant:normal;font-weight:normal;font-stretch:normal;text-indent:0;text-align:start;text-decoration:none;line-height:125%;letter-spacing:0;word-spacing:0;text-transform:none;direction:ltr;block-progression:tb;writing-mode:lr-tb;text-anchor:start;baseline-shift:baseline;color:#000000;fill:#000000;fill-opacity:1;fill-rule:nonzero;stroke:none;stroke-width:0.6788789;marker:none;visibility:visible;display:inline;overflow:visible;enable-background:accumulate;font-family:MEAN 26 Sans;-inkscape-font-specification:MEAN 26 Sans"
           d="M 43.024693,6.0135761 C 39.868038,6.0136231 30.551599,7.3419119 27.948784,9.0151119 25.119331,10.824146 13.093765,19.747159 12.511818,22.7627 c -0.449915,2.331383 10.48763,3.802722 11.198131,4.741907 l 1.905836,2.519258 4.95788,5.215973 4.327564,-7.021502 4.556651,-0.902764 -0.802458,-1.817108 C 37.3502,22.542883 37.633366,22.504496 38.9502,20.9502 c 1.316834,-1.554296 0.680823,-1.842194 3.392014,-1.842214 2.262639,4e-5 0.807529,0.584428 2.102671,1.75 1.287202,1.158537 1.335633,-0.102371 1.335657,2.153593 -2.4e-5,2.115255 -0.05582,2.064784 -1.366907,3.506971 l -5.097236,6.462192 c -1.659802,1.737006 -4.3418,5.172625 -4.3418,8.708708 0,0.746472 1.134629,2.4375 1.134629,2.4375 l 0.100307,1.346821 1.447129,1.303993 6.409322,0.200615 2.4502,0.300921 1.604915,-2.149279 1.203686,-1.54785 c 1.336675,-1.718864 3.851032,-2.019008 5.815157,-4.161685 1.819637,-1.865131 2.061156,-1.504806 3.926336,-3.324492 l 3.109522,1.774279 C 64.219051,35.455518 62.761841,27.279989 62.761873,24.596822 62.761841,20.737948 67.297904,9.6665096 64.586245,7.3288056 62.017394,5.1336726 46.868587,6.0136231 43.024693,6.0135761 z M 43.125,11.384263 c 3.715756,4.5e-5 6.746867,1.070681 9.1875,3.15625 2.570959,2.216408 3.84372,5.352493 3.84375,9.053237 -3e-5,2.508493 -0.942011,4.736878 -2.90625,7.058259 -1.86918,1.823588 -3.707711,3.662119 -5.53125,5.53125 -2.043465,2.229231 -3.09377,4.72142 -3.09375,7.097991 l 0,1.673704 -4.71875,0 C 39.90055,44.589398 39.875,43.720466 39.875,43.09375 c 0,-3.373863 1.20677,-5.822488 2.75,-7.4375 l 6,-6.5625 c 1.42129,-1.563415 2.124974,-3.524569 2.125,-5.78125 -2.6e-5,-2.389076 -0.71108,-4.261785 -2.15625,-5.5625 -1.43732,-1.293526 -3.367565,-2.178195 -5.75,-2.178237 -2.84474,2.1e-5 -5.038875,1.07863 -6.5,2.803237 -1.404394,1.657646 -2.103718,3.831918 -2.15625,6.971189 l -4.84375,0 c -0.002,-1.179944 -0.03258,-2.452927 0.375,-4.564939 0.539843,-2.797369 2.367271,-5.247541 5.09375,-6.990737 l 0.03125,0 c 2.497677,-1.605612 5.244391,-2.406205 8.28125,-2.40625 z m -6.594872,36.408979 -0.802457,1.346822 -1.003072,8.011165 0.802457,2.249586 4.857573,0.70215 8.525815,-0.501536 -0.802458,-1.74805 3.653887,-0.601843 -3.310137,-6.907786 0.401229,-2.149279 -3.553579,0.100307 -5.616907,-0.501536 z M 39.625,50.6875 l 5.53125,0 0,5.317521 -5.53125,0 z"
           id="path3285"
           inkscape:connector-curvature="0"
           sodipodi:nodetypes="ccssccccsscccccsccccccscccccccccccsccscccccsccsccccccccccccccccccccc" />
      </g>
    </g>
  </g>
</svg>
