<?xml version="1.0" encoding="UTF-8" standalone="no"?>
<!-- Created with Inkscape (http://www.inkscape.org/) -->

<svg
   xmlns:dc="http://purl.org/dc/elements/1.1/"
   xmlns:cc="http://creativecommons.org/ns#"
   xmlns:rdf="http://www.w3.org/1999/02/22-rdf-syntax-ns#"
   xmlns:svg="http://www.w3.org/2000/svg"
   xmlns="http://www.w3.org/2000/svg"
   xmlns:xlink="http://www.w3.org/1999/xlink"
   xmlns:sodipodi="http://sodipodi.sourceforge.net/DTD/sodipodi-0.dtd"
   xmlns:inkscape="http://www.inkscape.org/namespaces/inkscape"
   width="128"
   height="128"
   id="svg6570"
   version="1.1"
   inkscape:version="0.47 r22583"
   sodipodi:docname="view-finantial-forcast.svgz"
   inkscape:export-filename="/home/pinheiro/pics/oxygen-icons/scalable/actions/small/32x32/view-finantial-forcast.png"
   inkscape:export-xdpi="90"
   inkscape:export-ydpi="90">
  <defs
     id="defs6572">
    <inkscape:perspective
       sodipodi:type="inkscape:persp3d"
       inkscape:vp_x="0 : 32 : 1"
       inkscape:vp_y="0 : 1000 : 0"
       inkscape:vp_z="64 : 32 : 1"
       inkscape:persp3d-origin="32 : 21.333333 : 1"
       id="perspective6578" />
    <inkscape:perspective
       id="perspective6501"
       inkscape:persp3d-origin="0.5 : 0.33333333 : 1"
       inkscape:vp_z="1 : 0.5 : 1"
       inkscape:vp_y="0 : 1000 : 0"
       inkscape:vp_x="0 : 0.5 : 1"
       sodipodi:type="inkscape:persp3d" />
    <radialGradient
       inkscape:collect="always"
       xlink:href="#linearGradient6449"
       id="radialGradient6455"
       cx="53.038239"
       cy="100.34634"
       fx="53.038239"
       fy="100.34634"
       r="29.028929"
       gradientTransform="matrix(2.2058654,0.0152859,-0.00591903,1.3316478,-63.363025,-34.090377)"
       gradientUnits="userSpaceOnUse" />
    <linearGradient
       inkscape:collect="always"
       id="linearGradient6449">
      <stop
         style="stop-color:#081519;stop-opacity:1"
         offset="0"
         id="stop6451" />
      <stop
         style="stop-color:#143943;stop-opacity:1"
         offset="1"
         id="stop6453" />
    </linearGradient>
    <filter
       color-interpolation-filters="sRGB"
       inkscape:collect="always"
       id="filter6445"
       x="-0.017446402"
       width="1.0348928"
       y="-0.1937702"
       height="1.3875403">
      <feGaussianBlur
         inkscape:collect="always"
         stdDeviation="0.40229258"
         id="feGaussianBlur6447" />
    </filter>
    <linearGradient
       inkscape:collect="always"
       xlink:href="#linearGradient3861"
       id="linearGradient6390"
       x1="57.941036"
       y1="100.91313"
       x2="57.941036"
       y2="94.566505"
       gradientUnits="userSpaceOnUse"
       gradientTransform="matrix(1.0166811,0,0,1.0166811,11.80292,2.0406959)" />
    <linearGradient
       id="linearGradient3861">
      <stop
         style="stop-color:#0089ab;stop-opacity:1;"
         offset="0"
         id="stop3863" />
      <stop
         style="stop-color:#cbf5ff;stop-opacity:1;"
         offset="1"
         id="stop3867" />
    </linearGradient>
    <filter
       color-interpolation-filters="sRGB"
       inkscape:collect="always"
       id="filter6431"
       x="-0.062807053"
       width="1.125614"
       y="-0.69757277"
       height="2.3951454">
      <feGaussianBlur
         inkscape:collect="always"
         stdDeviation="1.4482533"
         id="feGaussianBlur6433" />
    </filter>
    <radialGradient
       inkscape:collect="always"
       xlink:href="#linearGradient3861"
       id="radialGradient6244"
       cx="36.503647"
       cy="79.330017"
       fx="36.503647"
       fy="79.330017"
       r="23.999399"
       gradientTransform="matrix(1.3714205,0.29813495,-0.77969592,3.5866007,44.786405,-195.95704)"
       gradientUnits="userSpaceOnUse" />
    <linearGradient
       id="linearGradient6518">
      <stop
         style="stop-color:#0089ab;stop-opacity:1;"
         offset="0"
         id="stop6520" />
      <stop
         style="stop-color:#cbf5ff;stop-opacity:1;"
         offset="1"
         id="stop6522" />
    </linearGradient>
    <clipPath
       clipPathUnits="userSpaceOnUse"
       id="clipPath6279">
      <path
         sodipodi:nodetypes="csscccsscc"
         id="path6281"
         d="m 52.823393,-68.754626 c -0.647573,3.561529 -1.109808,8.669569 -1.942719,10.684586 -0.63775,1.542874 -1.519194,5.193562 -2.45201,7.58927 -4.40078,11.302316 -8.47513,31.603343 -17.164073,42.6774021 l 22.068094,0 22.068093,0 C 68.016029,-18.694419 62.92133,-41.14211 62.541456,-43.90589 c -0.5453,-3.967333 -2.576687,-10.957353 -3.002241,-12.937685 -0.829354,-3.85943 -3.482432,-8.254813 -5.223647,-12.38222 -0.438156,-0.316839 -0.902342,-0.42542 -1.492175,0.471169 z"
         style="fill:url(#radialGradient6283);fill-opacity:1;stroke:none" />
    </clipPath>
    <filter
       color-interpolation-filters="sRGB"
       inkscape:collect="always"
       id="filter6271">
      <feGaussianBlur
         inkscape:collect="always"
         stdDeviation="1.2565264"
         id="feGaussianBlur6273" />
    </filter>
    <linearGradient
       inkscape:collect="always"
       xlink:href="#linearGradient3861"
       id="linearGradient6252"
       x1="53.332001"
       y1="100.24344"
       x2="53.332001"
       y2="92.111717"
       gradientUnits="userSpaceOnUse"
       gradientTransform="matrix(1.2268905,0,0,1.2268905,-2.3360824,-12.871344)" />
    <linearGradient
       id="linearGradient6529">
      <stop
         style="stop-color:#0089ab;stop-opacity:1;"
         offset="0"
         id="stop6531" />
      <stop
         style="stop-color:#cbf5ff;stop-opacity:1;"
         offset="1"
         id="stop6533" />
    </linearGradient>
    <linearGradient
       inkscape:collect="always"
       xlink:href="#linearGradient6287"
       id="linearGradient6293"
       x1="58.868549"
       y1="101.5758"
       x2="58.868549"
       y2="98.177971"
       gradientUnits="userSpaceOnUse"
       gradientTransform="matrix(1.2268905,0,0,1.2268905,-2.3360824,-12.871344)" />
    <linearGradient
       inkscape:collect="always"
       id="linearGradient6287">
      <stop
         style="stop-color:#2e869c;stop-opacity:1;"
         offset="0"
         id="stop6289" />
      <stop
         style="stop-color:#2e869c;stop-opacity:0;"
         offset="1"
         id="stop6291" />
    </linearGradient>
    <linearGradient
       inkscape:collect="always"
       xlink:href="#linearGradient6323"
       id="linearGradient6329"
       x1="56.954021"
       y1="67.3125"
       x2="48.770996"
       y2="43.5625"
       gradientUnits="userSpaceOnUse" />
    <linearGradient
       inkscape:collect="always"
       id="linearGradient6323">
      <stop
         style="stop-color:#cbf5ff;stop-opacity:1;"
         offset="0"
         id="stop6325" />
      <stop
         style="stop-color:#cbf5ff;stop-opacity:0;"
         offset="1"
         id="stop6327" />
    </linearGradient>
    <filter
       color-interpolation-filters="sRGB"
       inkscape:collect="always"
       id="filter6369"
       x="-0.16820407"
       width="1.3364081"
       y="-0.053825226"
       height="1.1076504">
      <feGaussianBlur
         inkscape:collect="always"
         stdDeviation="0.86905309"
         id="feGaussianBlur6371" />
    </filter>
    <linearGradient
       inkscape:collect="always"
       xlink:href="#linearGradient6333"
       id="linearGradient6395"
       gradientUnits="userSpaceOnUse"
       gradientTransform="matrix(1.040033,0,0,1.040033,-0.67313969,-3.3354677)"
       x1="28.375"
       y1="48.875"
       x2="51.625"
       y2="61.375" />
    <linearGradient
       inkscape:collect="always"
       id="linearGradient6333">
      <stop
         style="stop-color:#bbedf9;stop-opacity:1;"
         offset="0"
         id="stop6335" />
      <stop
         style="stop-color:#bbedf9;stop-opacity:0;"
         offset="1"
         id="stop6337" />
    </linearGradient>
    <filter
       color-interpolation-filters="sRGB"
       inkscape:collect="always"
       id="filter6341">
      <feGaussianBlur
         inkscape:collect="always"
         stdDeviation="0.6726335"
         id="feGaussianBlur6343" />
    </filter>
    <clipPath
       clipPathUnits="userSpaceOnUse"
       id="clipPath6419">
      <path
         sodipodi:nodetypes="csccccccs"
         id="path6421"
         d="m 27.098973,94.72027 c 4.194174,5.10929 67.89306,5.87897 72.100457,0 0.93659,-1.3087 3.19087,1.42313 3.19087,3.19085 l 0,2e-5 c 0,1.76773 -1.42313,3.19086 -3.19087,3.19086 -24.196678,4.10446 -48.242578,3.67433 -72.100457,0 -1.76774,0 -3.190866,-1.42313 -3.190866,-3.19086 l 0,-2e-5 c 0,-1.76772 2.165981,-4.43936 3.190866,-3.19085 z"
         style="fill:#a7e2f0;fill-opacity:1;stroke:none" />
    </clipPath>
    <filter
       color-interpolation-filters="sRGB"
       inkscape:collect="always"
       id="filter6415"
       x="-0.022893753"
       width="1.0457875"
       y="-0.18630368"
       height="1.3726074">
      <feGaussianBlur
         inkscape:collect="always"
         stdDeviation="0.74864664"
         id="feGaussianBlur6417" />
    </filter>
    <linearGradient
       inkscape:collect="always"
       xlink:href="#linearGradient6287"
       id="linearGradient2879"
       gradientUnits="userSpaceOnUse"
       gradientTransform="matrix(1.7027024,0,0,1.8439569,-29.432527,-126.16263)"
       x1="58.868549"
       y1="101.5758"
       x2="58.868549"
       y2="98.177971" />
    <linearGradient
       inkscape:collect="always"
       xlink:href="#linearGradient3861"
       id="linearGradient2882"
       gradientUnits="userSpaceOnUse"
       gradientTransform="matrix(1.7027024,0,0,1.8439569,-29.432527,-126.16263)"
       x1="53.332001"
       y1="100.24344"
       x2="53.332001"
       y2="92.111717" />
    <radialGradient
       inkscape:collect="always"
       xlink:href="#linearGradient3861"
       id="radialGradient2886"
       gradientUnits="userSpaceOnUse"
       gradientTransform="matrix(1.903284,0.37423428,-1.0820771,4.5020852,35.964975,-324.94088)"
       cx="36.503647"
       cy="79.330017"
       fx="36.503647"
       fy="79.330017"
       r="23.999399" />
    <linearGradient
       inkscape:collect="always"
       xlink:href="#linearGradient3861"
       id="linearGradient2890"
       gradientUnits="userSpaceOnUse"
       gradientTransform="matrix(1.4109698,0,0,1.5280223,-9.8101456,-103.75056)"
       x1="57.941036"
       y1="100.91313"
       x2="57.941036"
       y2="94.566505" />
    <radialGradient
       inkscape:collect="always"
       xlink:href="#linearGradient6449"
       id="radialGradient2893"
       gradientUnits="userSpaceOnUse"
       gradientTransform="matrix(2.2058654,0.0152859,-0.00591903,1.3316478,-63.363025,-34.090377)"
       cx="53.038239"
       cy="100.34634"
       fx="53.038239"
       fy="100.34634"
       r="29.028929" />
  </defs>
  <sodipodi:namedview
     id="base"
     pagecolor="#ffffff"
     bordercolor="#666666"
     borderopacity="1.0"
     inkscape:pageopacity="0.0"
     inkscape:pageshadow="2"
     inkscape:zoom="2.9326172"
     inkscape:cx="13.402376"
     inkscape:cy="60.3862"
     inkscape:current-layer="layer1"
     showgrid="true"
     inkscape:document-units="px"
     inkscape:grid-bbox="true"
     inkscape:window-width="1047"
     inkscape:window-height="771"
     inkscape:window-x="385"
     inkscape:window-y="141"
     inkscape:window-maximized="0"
     inkscape:snap-global="false">
    <inkscape:grid
       type="xygrid"
       id="grid9545"
       empspacing="5"
       visible="true"
       enabled="true"
       snapvisiblegridlinesonly="true"
       spacingx="5.8181px"
       spacingy="5.8181px" />
  </sodipodi:namedview>
  <metadata
     id="metadata6575">
    <rdf:RDF>
      <cc:Work
         rdf:about="">
        <dc:format>image/svg+xml</dc:format>
        <dc:type
           rdf:resource="http://purl.org/dc/dcmitype/StillImage" />
        <dc:title></dc:title>
      </cc:Work>
    </rdf:RDF>
  </metadata>
  <g
     id="layer1"
     inkscape:label="Layer 1"
     inkscape:groupmode="layer"
     transform="translate(0,64)">
    <path
       sodipodi:nodetypes="ccsccsc"
       id="path6435"
       d="m 27.968492,97.854984 50.139495,0 c 1.440829,0 2.600775,0.5575 2.600775,1.25 0,0.6925 -1.159946,1.249996 -2.600775,1.249996 -15.347991,2.86706 -33.831472,3.7258 -50.139495,0 -1.440829,0 -2.600775,-0.557496 -2.600775,-1.249996 0,-0.6925 1.159946,-1.25 2.600775,-1.25 z"
       style="fill:url(#radialGradient2893);fill-opacity:1;stroke:none;filter:url(#filter6445)"
       transform="matrix(1.9525822,0,0,1.6935423,-42.011962,-113.30344)" />
    <path
       style="fill:url(#linearGradient2890);fill-opacity:1;stroke:none"
       d="m 10.057445,45.686449 c 21.646569,-3.04815 86.699499,-2.965398 102.578115,-0.108657 l 1.01415,4.810887 -93.300378,3.820066 -10.291887,-8.522305 z"
       id="path6374"
       sodipodi:nodetypes="ccccc" />
    <path
       transform="matrix(1.9525822,0,0,1.6935423,-42.011962,-111.80049)"
       style="opacity:0.44059406;fill:#1a4956;fill-opacity:1;stroke:none;filter:url(#filter6431)"
       d="m 27.968492,97.854984 50.139495,0 c 1.440829,0 2.600775,0.5575 2.600775,1.25 0,0.6925 -1.159946,1.249996 -2.600775,1.249996 -15.347991,2.86706 -33.831472,3.7258 -50.139495,0 -1.440829,0 -2.600775,-0.557496 -2.600775,-1.249996 0,-0.6925 1.159946,-1.25 2.600775,-1.25 z"
       id="rect6295"
       sodipodi:nodetypes="ccsccsc" />
    <path
       style="fill:url(#radialGradient2886);fill-opacity:1;stroke:none"
       d="m 60.072526,-61.508164 c -1.371687,6.823395 -2.350788,16.609686 -4.115059,20.470182 -1.350879,2.955931 -3.217953,9.950141 -5.193841,14.539982 -9.321715,21.653665 -17.951989,60.547606 -36.356875,81.763952 l 46.744556,0 46.744553,0 C 92.253514,34.400225 81.461941,-8.6064261 80.657292,-13.901444 c -1.155052,-7.600858 -5.457927,-20.992764 -6.359334,-24.786803 -1.756737,-7.394131 -7.376475,-15.815075 -11.064711,-23.722611 -0.928098,-0.607019 -1.911338,-0.815044 -3.160721,0.902694 z"
       id="path5454"
       sodipodi:nodetypes="csscccsscc" />
    <path
       transform="matrix(2.1181964,0,0,1.9158608,-51.817794,69.628788)"
       style="fill:#2e869c;fill-opacity:1;stroke:none;filter:url(#filter6271)"
       d="m 54.110621,-76.40625 c -0.844817,0.156576 -1.436156,0.739175 -1.875,1.40625 -0.109397,0.170435 -0.184258,0.362935 -0.21875,0.5625 -0.363365,1.99844 -0.674031,4.378021 -1,6.5 -0.325969,2.121979 -0.712944,4.042439 -1.03125,4.8125 -0.829861,2.007637 -1.714902,5.86363 -2.65625,8.28125 -4.894362,12.569958 -9.402938,34.516698 -18.4375,46.03125 -0.708574,0.8890175 0.05065,2.4674052 1.1875,2.46875 l 5.4375,0 c 0.573338,-7.16e-4 1.131527,-0.3559269 1.375,-0.875 5.526647,-11.331629 8.025409,-24.582879 11.337694,-34.138298 1.259108,-3.632332 3.769124,0.240888 5.254548,3.797037 0.208349,0.498791 -2.952451,-8.207951 -2.763487,-8.771673 0.858839,-2.562106 1.620729,-5.500785 2.077495,-6.605816 0.587498,-1.421302 -0.329995,-3.491574 0.004,-5.66595 0.234681,-1.527718 0.35889,-8.371172 0.587466,-9.847396 3.041666,5.330472 5.021099,11.824382 5.709266,15.026793 0.257973,1.200488 0.412535,5.140835 1.088624,7.830303 0.676089,2.689468 1.377801,5.661641 1.65625,7.6875 0.201751,1.467841 1.145788,5.820586 2.75,11.59375 0.845426,3.042478 1.221062,6.716192 3.036211,9.860123 11.217453,19.4291972 -26.963049,6.354709 -26.28971,8.0864757 0.518595,1.333776 29.253066,-0.2039328 29.815999,1.0846513 0.229113,0.5516395 0.808924,0.9381797 1.40625,0.9375 l 4.78125,0 c 1.095858,-0.00599 1.865497,-1.4683005 1.25,-2.375 -3.834711,-5.655444 -7.232723,-14.643182 -9.65625,-22.53125 -1.211764,-3.944034 -2.177083,-7.631561 -2.875,-10.5 -0.697917,-2.868439 -1.140286,-5.022887 -1.21875,-5.59375 -0.314573,-2.288678 -1.002544,-5.275262 -1.6875,-8 -0.684956,-2.724738 -1.357676,-5.203096 -1.5625,-6.15625 -0.99236,-4.617981 -3.217181,-9.415815 -5.045629,-13.75 -0.107234,-0.247765 -0.281816,-0.465993 -0.5,-0.625 -0.353129,-0.255354 -1.046233,-0.696435 -1.9375,-0.53125 z"
       id="path6275"
       sodipodi:nodetypes="csssssccccssssscsssssscccsssssscsc"
       clip-path="url(#clipPath6279)" />
    <path
       style="fill:url(#linearGradient2882);fill-opacity:1;stroke:none"
       d="m 11.418013,46.062999 c 5.820756,7.679015 94.223307,8.835807 100.062417,0 1.29981,-1.966912 4.42835,2.138895 4.42835,4.795693 l 0,3e-5 c 0,2.656812 -1.97505,4.795707 -4.42835,4.795707 -33.580623,6.168805 -66.951989,5.522341 -100.062417,0 -2.4533034,0 -4.4283453,-2.138895 -4.4283453,-4.795707 l 0,-3e-5 c 0,-2.656798 3.0059905,-6.672144 4.4283453,-4.795693 z"
       id="rect5456"
       sodipodi:nodetypes="csccccccs" />
    <path
       style="fill:url(#linearGradient2879);fill-opacity:1;stroke:none"
       d="m 11.418013,46.062999 c 3.644324,5.80548 89.282087,11.460637 100.062417,0 2.4533,0 4.42835,2.138895 4.42835,4.795693 l 0,3e-5 c 0,2.656812 -1.97505,4.795707 -4.42835,4.795707 -33.354139,5.950441 -66.708278,5.760648 -100.062417,0 -2.4533034,0 -4.4283453,-2.138895 -4.4283453,-4.795707 l 0,-3e-5 c 0,-2.656798 1.9750419,-4.795693 4.4283453,-4.795693 z"
       id="rect6285"
       sodipodi:nodetypes="ccccccccc" />
    <path
       style="fill:#ffffff;fill-opacity:1;stroke:none"
       d="m 84.069733,25.309854 -9.882807,21.558228 c 6.973663,-4.366875 14.839278,-7.765646 19.184271,-14.9856 -8.219417,2.204994 -15.247611,-0.977169 -22.381649,-3.680672 5.781443,5.72608 11.682685,11.668868 18.021587,18.403355 L 84.069733,25.309854 z"
       id="path6313"
       sodipodi:nodetypes="cccccc" />
    <path
       style="fill:url(#linearGradient6329);fill-opacity:1;stroke:none;filter:url(#filter6369)"
       d="m 58.875,76.625 c -4.463118,-4.869747 -9.474065,-16.066376 -12,-26 C 46.330401,47.799286 46.5,42 46.5,42 l 0.625,-3.625 1,2.5 10.75,36.25 0,-0.5 z"
       id="path6317"
       sodipodi:nodetypes="ccccccc"
       transform="matrix(1.6140223,0,0,1.4598467,-20.279245,-93.904983)" />
    <path
       style="fill:url(#linearGradient6395);fill-opacity:1;stroke:none;filter:url(#filter6341)"
       d="m 52.5,24.09375 -2.46875,11.96875 -1.5,9.25 0.4375,2.40625 c 0.480331,-0.820305 1.1875,-2.03125 1.1875,-2.03125 l 1.5625,-9.625 0.09375,-0.53125 C 52.086844,30.900874 52.5,24.09375 52.5,24.09375 z M 43.8125,54.4375 c -1.005295,2.82222 -5.09375,13.34375 -5.09375,13.34375 l -2.875,14.15625 -6.625,14.96875 c 0,0 3.355466,-5.208416 5.4375,-8.4375 L 37.5625,81.9375 40.40625,67.78125 c 0,0 2.928438,-7.497609 4.5,-11.6875 -0.361964,-0.549576 -0.63569,-0.960885 -1.09375,-1.65625 z"
       id="path6331"
       transform="matrix(1.5518953,0,0,1.4036543,-19.234603,-89.22314)" />
    <path
       sodipodi:nodetypes="cccccc"
       id="path6350"
       d="M 48.644683,10.571292 46.352702,27.74292 c -2.629947,-5.197733 -6.194133,-10.086307 -6.070794,-16.195178 4.251879,4.249321 9.872105,4.649756 15.370746,5.392169 -5.840547,1.653716 -11.840515,3.404255 -18.422914,5.508537 L 48.644683,10.571292 z"
       style="fill:#ffffff;fill-opacity:1;stroke:none" />
    <path
       style="fill:#ffffff;fill-opacity:1;stroke:none"
       d="m 68.955406,-31.480528 c -1.664101,-0.994045 -3.473771,-1.476878 -5.269595,-1.576799 4.270351,3.273186 5.603466,9.413637 2.882508,14.289706 -2.720955,4.876068 -8.510847,6.722337 -13.38579,4.532608 0.981772,1.560813 2.28912,2.938377 3.954634,3.933266 5.648017,3.3738252 12.86068,1.3742648 16.121567,-4.46938 3.260888,-5.843646 1.344693,-13.335574 -4.303324,-16.709401 z"
       id="path6352" />
    <path
       style="fill:#bee9f4;fill-opacity:1;stroke:none;filter:url(#filter6415)"
       d="m 27.098973,90.72027 c 4.194174,5.10929 67.89306,5.87897 72.100457,0 0.93659,-1.3087 3.19087,1.42313 3.19087,3.19085 l 0,2e-5 c 0,1.76773 -1.42313,3.19086 -3.19087,3.19086 -24.47259,6.58767 -48.434861,5.40488 -72.100457,0 -1.76774,0 -3.190866,-1.42313 -3.190866,-3.19086 l 0,-2e-5 c 0,-1.76772 2.165981,-4.43936 3.190866,-3.19085 z"
       id="path6405"
       sodipodi:nodetypes="csccccccs"
       clip-path="url(#clipPath6419)"
       transform="matrix(1.3878194,0,0,1.5029514,-26.190467,-96.174515)" />
  </g>
</svg>
