<?xml version="1.0" encoding="UTF-8" standalone="no"?>
<!-- Created with Inkscape (http://www.inkscape.org/) -->

<svg
   xmlns:dc="http://purl.org/dc/elements/1.1/"
   xmlns:cc="http://creativecommons.org/ns#"
   xmlns:rdf="http://www.w3.org/1999/02/22-rdf-syntax-ns#"
   xmlns:svg="http://www.w3.org/2000/svg"
   xmlns="http://www.w3.org/2000/svg"
   xmlns:xlink="http://www.w3.org/1999/xlink"
   xmlns:sodipodi="http://sodipodi.sourceforge.net/DTD/sodipodi-0.dtd"
   xmlns:inkscape="http://www.inkscape.org/namespaces/inkscape"
   width="88"
   height="88"
   id="svg9002"
   sodipodi:version="0.32"
   inkscape:version="0.46+devel"
   version="1.0"
   sodipodi:docname="view-pim-contacts.svgz"
   inkscape:output_extension="org.inkscape.output.svgz.inkscape"
   inkscape:export-filename="/home/pinheiro/pics/oxygen-icons/scalable/actions/small/22x22/view-pim-contacts.png"
   inkscape:export-xdpi="90"
   inkscape:export-ydpi="90">
  <defs
     id="defs9004">
    <filter
       inkscape:collect="always"
       id="filter7317">
      <feGaussianBlur
         inkscape:collect="always"
         stdDeviation="2.8805897"
         id="feGaussianBlur7319" />
    </filter>
    <linearGradient
       id="linearGradient4296">
      <stop
         id="stop4298"
         offset="0"
         style="stop-color:#00ff00;stop-opacity:1" />
      <stop
         id="stop4300"
         offset="1"
         style="stop-color:#006500;stop-opacity:1" />
    </linearGradient>
    <linearGradient
       inkscape:collect="always"
       xlink:href="#linearGradient4296"
       id="linearGradient6831"
       gradientUnits="userSpaceOnUse"
       x1="328.12448"
       y1="120.81158"
       x2="336.98077"
       y2="87.759453" />
    <linearGradient
       inkscape:collect="always"
       id="linearGradient3403">
      <stop
         style="stop-color:#0057ae;stop-opacity:1;"
         offset="0"
         id="stop3405" />
      <stop
         style="stop-color:#0057ae;stop-opacity:0;"
         offset="1"
         id="stop3407" />
    </linearGradient>
    <filter
       inkscape:collect="always"
       id="filter3574"
       x="-0.17129332"
       y="-0.074019864"
       width="1.3425866"
       height="1.1480397">
      <feGaussianBlur
         inkscape:collect="always"
         id="feGaussianBlur3576"
         stdDeviation="0.57604943" />
    </filter>
    <linearGradient
       inkscape:collect="always"
       id="linearGradient3586">
      <stop
         offset="0"
         id="stop3588"
         style="stop-color:#000000;stop-opacity:1;" />
      <stop
         offset="1"
         id="stop3590"
         style="stop-color:#000000;stop-opacity:0;" />
    </linearGradient>
    <linearGradient
       inkscape:collect="always"
       xlink:href="#linearGradient3586"
       id="linearGradient8994"
       gradientUnits="userSpaceOnUse"
       gradientTransform="translate(-372.5,-324.5)"
       x1="313.74829"
       y1="444.45746"
       x2="305.67725"
       y2="463.13513" />
    <linearGradient
       inkscape:collect="always"
       id="linearGradient3578">
      <stop
         offset="0"
         id="stop3580"
         style="stop-color:#c8cddc;stop-opacity:1;" />
      <stop
         offset="1"
         id="stop3582"
         style="stop-color:#c8cddc;stop-opacity:0;" />
    </linearGradient>
    <linearGradient
       inkscape:collect="always"
       xlink:href="#linearGradient3578"
       id="linearGradient8992"
       gradientUnits="userSpaceOnUse"
       gradientTransform="translate(-372.5,-324.5)"
       x1="313.74829"
       y1="444.45746"
       x2="305.67725"
       y2="463.13513" />
    <linearGradient
       id="linearGradient8882"
       inkscape:collect="always">
      <stop
         style="stop-color:#f9ccca;stop-opacity:1"
         id="stop8884"
         offset="0" />
      <stop
         style="stop-color:#c8cddc;stop-opacity:0;"
         id="stop8886"
         offset="1" />
    </linearGradient>
    <linearGradient
       inkscape:collect="always"
       xlink:href="#linearGradient8882"
       id="linearGradient8990"
       gradientUnits="userSpaceOnUse"
       x1="284.67853"
       y1="460.62231"
       x2="299.28384"
       y2="441.53894" />
    <linearGradient
       id="linearGradient8894"
       inkscape:collect="always">
      <stop
         style="stop-color:#f9ccca;stop-opacity:1"
         id="stop8896"
         offset="0" />
      <stop
         style="stop-color:#bbc1d4;stop-opacity:0;"
         id="stop8898"
         offset="1" />
    </linearGradient>
    <linearGradient
       inkscape:collect="always"
       xlink:href="#linearGradient8894"
       id="linearGradient8988"
       gradientUnits="userSpaceOnUse"
       gradientTransform="translate(58.5,26.5)"
       x1="315.72318"
       y1="453.0892"
       x2="290.62091"
       y2="434.35086" />
    <filter
       inkscape:collect="always"
       id="filter3339"
       x="-0.083255701"
       y="-0.42668504"
       width="1.1665114"
       height="1.8533701">
      <feGaussianBlur
         inkscape:collect="always"
         id="feGaussianBlur3341"
         stdDeviation="0.50285367" />
    </filter>
    <linearGradient
       id="linearGradient8900"
       inkscape:collect="always">
      <stop
         style="stop-color:#f9ccca;stop-opacity:1"
         id="stop8902"
         offset="0" />
      <stop
         style="stop-color:#bbc1d4;stop-opacity:0;"
         id="stop8904"
         offset="1" />
    </linearGradient>
    <linearGradient
       inkscape:collect="always"
       xlink:href="#linearGradient8900"
       id="linearGradient8986"
       gradientUnits="userSpaceOnUse"
       gradientTransform="translate(-372.5,-324.5)"
       x1="315.72318"
       y1="453.0892"
       x2="290.62091"
       y2="434.35086" />
    <filter
       inkscape:collect="always"
       id="filter3283"
       x="-0.020813677"
       y="-0.13193184"
       width="1.0416274"
       height="1.2638637">
      <feGaussianBlur
         inkscape:collect="always"
         id="feGaussianBlur3285"
         stdDeviation="0.60896269" />
    </filter>
    <clipPath
       id="clipPath3289"
       clipPathUnits="userSpaceOnUse">
      <path
         d="M 463.75,435.375 C 462.47221,435.58506 461.71617,436.60113 461.75,437.375 C 461.67075,437.40672 460.87251,438.49769 460.79289,438.52941 C 462.04491,442.53121 465.95016,446.80149 477.54289,446.49816 C 489.04307,446.19726 493.45299,441.22873 494.71875,437.5625 C 494.5676,437.5025 494.39985,437.43497 494.25,437.375 C 494.28383,436.60113 493.52779,435.58506 492.25,435.375 C 489.83637,439.11764 488.24281,442.77637 478,443.0625 C 467.75719,443.34864 464.63251,439.11371 463.75,435.375 z M 459.125,438.40625 C 453.68198,440.50508 447.66707,442.67009 441.90625,445.28125 C 447.80188,443.05208 453.52791,442.11601 458.76072,440.15441 C 458.75013,439.92745 459.01107,438.6493 459.125,438.40625 z M 497.46875,438.625 C 497.52198,438.79302 497.56984,438.93659 497.5625,439.09375 C 501.77057,440.67121 506.39991,442.24968 511.125,443.96875 C 506.49146,442.00962 501.81994,440.29346 497.46875,438.625 z"
         id="path3291"
         style="fill:#f4f5f8;fill-opacity:1;fill-rule:evenodd;stroke:#98a2bf;stroke-width:1px;stroke-linecap:butt;stroke-linejoin:miter;stroke-opacity:1;filter:url(#filter3283)"
         sodipodi:nodetypes="cccscccsccccccccc" />
    </clipPath>
    <filter
       inkscape:collect="always"
       id="filter3393">
      <feGaussianBlur
         inkscape:collect="always"
         id="feGaussianBlur3395"
         stdDeviation="0.49977699" />
    </filter>
    <linearGradient
       inkscape:collect="always"
       id="linearGradient4126">
      <stop
         offset="0"
         id="stop4128"
         style="stop-color:#ffffff;stop-opacity:1;" />
      <stop
         offset="1"
         id="stop4130"
         style="stop-color:#ffffff;stop-opacity:0;" />
    </linearGradient>
    <linearGradient
       inkscape:collect="always"
       xlink:href="#linearGradient4126"
       id="linearGradient8984"
       gradientUnits="userSpaceOnUse"
       gradientTransform="translate(-372.5,-324.5)"
       x1="326"
       y1="476.40894"
       x2="310.53195"
       y2="429.73987" />
    <filter
       inkscape:collect="always"
       id="filter4059">
      <feGaussianBlur
         inkscape:collect="always"
         id="feGaussianBlur4061"
         stdDeviation="1.5449742" />
    </filter>
    <clipPath
       id="clipPath4063"
       clipPathUnits="userSpaceOnUse">
      <path
         id="path4065"
         d="M 410.16587,443.06739 C 399.92306,443.35352 396.79838,439.11371 395.91587,435.375 C 394.63808,435.58506 393.88204,436.60113 393.91587,437.375 C 386.83254,440.20988 378.26803,443.06735 370.66587,446.875 C 367.84405,448.28835 364.62926,452.59537 363.79087,454.875 C 361.23389,461.82756 358.41587,471.625 358.41587,471.625 L 359.91587,473.375 C 375.56063,482.28715 396.79503,481.875 410.16587,481.875 C 423.53671,481.875 444.77111,482.28715 460.41587,473.375 L 461.91587,471.625 C 461.91587,471.625 459.09785,461.82756 456.54087,454.875 C 455.70248,452.59537 452.48769,448.28835 449.66587,446.875 C 442.06371,443.06735 433.4992,440.20988 426.41587,437.375 C 426.4497,436.60113 425.69366,435.58506 424.41587,435.375 C 422.00224,439.11764 420.40868,442.78126 410.16587,443.06739 z"
         style="fill:#f4f5f8;fill-opacity:1;fill-rule:evenodd;stroke:none;stroke-width:1px;stroke-linecap:butt;stroke-linejoin:miter;stroke-opacity:1"
         sodipodi:nodetypes="cccssccsccssccz" />
    </clipPath>
    <linearGradient
       id="linearGradient8914"
       inkscape:collect="always">
      <stop
         style="stop-color:#9c0f0f;stop-opacity:1"
         id="stop8916"
         offset="0" />
      <stop
         style="stop-color:#8d97b7;stop-opacity:0;"
         id="stop8918"
         offset="1" />
    </linearGradient>
    <filter
       inkscape:collect="always"
       id="filter3493">
      <feGaussianBlur
         inkscape:collect="always"
         id="feGaussianBlur3495"
         stdDeviation="1.105682" />
    </filter>
    <linearGradient
       id="linearGradient8888"
       inkscape:collect="always">
      <stop
         style="stop-color:#f9ccca;stop-opacity:1"
         id="stop8890"
         offset="0" />
      <stop
         style="stop-color:#c8cddc;stop-opacity:0;"
         id="stop8892"
         offset="1" />
    </linearGradient>
    <linearGradient
       inkscape:collect="always"
       xlink:href="#linearGradient8888"
       id="linearGradient8980"
       gradientUnits="userSpaceOnUse"
       gradientTransform="translate(-372.5,-324.5)"
       x1="283.50647"
       y1="463.03894"
       x2="312.78384"
       y2="443.03894" />
    <linearGradient
       inkscape:collect="always"
       id="linearGradient8906">
      <stop
         style="stop-color:#bf0303;stop-opacity:1"
         offset="0"
         id="stop8908" />
      <stop
         style="stop-color:#f08682;stop-opacity:1"
         offset="1"
         id="stop8910" />
    </linearGradient>
    <linearGradient
       inkscape:collect="always"
       xlink:href="#linearGradient8906"
       id="linearGradient8978"
       gradientUnits="userSpaceOnUse"
       x1="52.461521"
       y1="127.04261"
       x2="60.561855"
       y2="86.540939" />
    <filter
       inkscape:collect="always"
       id="filter3775"
       x="-0.18809821"
       y="-0.059054088"
       width="1.3761964"
       height="1.1181082">
      <feGaussianBlur
         inkscape:collect="always"
         id="feGaussianBlur3777"
         stdDeviation="0.26451311" />
    </filter>
    <linearGradient
       id="linearGradient3733">
      <stop
         offset="0"
         id="stop3735"
         style="stop-color:#e2e2e2;stop-opacity:1;" />
      <stop
         offset="1"
         id="stop3737"
         style="stop-color:#ffffff;stop-opacity:1;" />
    </linearGradient>
    <linearGradient
       inkscape:collect="always"
       xlink:href="#linearGradient3733"
       id="linearGradient8976"
       gradientUnits="userSpaceOnUse"
       gradientTransform="matrix(0.5366445,0,0,1.8634309,-372.5,-324.5)"
       x1="563.64667"
       y1="214.96599"
       x2="568.98871"
       y2="214.96599" />
    <filter
       inkscape:collect="always"
       id="filter3569"
       x="-0.1148592"
       y="-0.086798318"
       width="1.2297184"
       height="1.1735966">
      <feGaussianBlur
         inkscape:collect="always"
         id="feGaussianBlur3571"
         stdDeviation="0.6238629" />
    </filter>
    <linearGradient
       inkscape:collect="always"
       id="linearGradient3581">
      <stop
         offset="0"
         id="stop3583"
         style="stop-color:#dfcbba;stop-opacity:1;" />
      <stop
         offset="1"
         id="stop3585"
         style="stop-color:#dfcbba;stop-opacity:0;" />
    </linearGradient>
    <linearGradient
       inkscape:collect="always"
       xlink:href="#linearGradient3581"
       id="linearGradient8974"
       gradientUnits="userSpaceOnUse"
       gradientTransform="translate(-372.5,-324.5)"
       x1="353.44516"
       y1="390.86218"
       x2="339.76785"
       y2="373.61218" />
    <filter
       inkscape:collect="always"
       id="filter3625">
      <feGaussianBlur
         inkscape:collect="always"
         id="feGaussianBlur3627"
         stdDeviation="0.34264273" />
    </filter>
    <linearGradient
       inkscape:collect="always"
       id="linearGradient3499">
      <stop
         offset="0"
         id="stop3501"
         style="stop-color:#ffffff;stop-opacity:1;" />
      <stop
         offset="1"
         id="stop3503"
         style="stop-color:#ffffff;stop-opacity:0;" />
    </linearGradient>
    <linearGradient
       inkscape:collect="always"
       xlink:href="#linearGradient3499"
       id="linearGradient8972"
       gradientUnits="userSpaceOnUse"
       gradientTransform="translate(-372.5,-324.5)"
       x1="330.09335"
       y1="407.39011"
       x2="320.36423"
       y2="367.39182" />
    <filter
       inkscape:collect="always"
       id="filter3479"
       x="-0.028506439"
       y="-0.10615479"
       width="1.0570129"
       height="1.2123096">
      <feGaussianBlur
         inkscape:collect="always"
         id="feGaussianBlur3481"
         stdDeviation="0.4439284" />
    </filter>
    <linearGradient
       inkscape:collect="always"
       id="linearGradient3489">
      <stop
         offset="0"
         id="stop3491"
         style="stop-color:#765c44;stop-opacity:1;" />
      <stop
         offset="1"
         id="stop3493"
         style="stop-color:#765c44;stop-opacity:0;" />
    </linearGradient>
    <linearGradient
       inkscape:collect="always"
       xlink:href="#linearGradient3489"
       id="linearGradient8970"
       gradientUnits="userSpaceOnUse"
       x1="304.88663"
       y1="385.86127"
       x2="345.62039"
       y2="384.62384" />
    <linearGradient
       inkscape:collect="always"
       id="linearGradient3368">
      <stop
         offset="0"
         id="stop3370"
         style="stop-color:#e5d3c3;stop-opacity:1;" />
      <stop
         offset="1"
         id="stop3372"
         style="stop-color:#e5d3c3;stop-opacity:0;" />
    </linearGradient>
    <radialGradient
       inkscape:collect="always"
       xlink:href="#linearGradient3368"
       id="radialGradient8968"
       gradientUnits="userSpaceOnUse"
       gradientTransform="matrix(-0.7020433,-0.1106778,0.08385981,-0.5312371,265.2384,247.24451)"
       cx="332.49338"
       cy="369.61789"
       fx="332.49338"
       fy="369.61789"
       r="22.779818" />
    <filter
       inkscape:collect="always"
       id="filter3420">
      <feGaussianBlur
         inkscape:collect="always"
         id="feGaussianBlur3422"
         stdDeviation="1.110954" />
    </filter>
    <clipPath
       id="clipPath3429"
       clipPathUnits="userSpaceOnUse">
      <path
         id="path3431"
         d="M 303.70236,398.81874 L 303.52558,385.56049 L 306.17724,378.31265 L 311.48054,376.54488 L 319.96582,379.19653 L 327.39044,380.61074 L 334.63828,376.89843 L 339.94158,376.89843 L 343.65389,382.02496 L 345.59844,390.15668 L 345.42166,395.45998 L 345.77521,397.40453 L 337.99704,382.37851 L 328.4511,386.09082 L 321.55681,386.2676 L 311.12698,381.31785 L 303.70236,398.81874 z"
         style="fill:none;fill-opacity:0.75;fill-rule:evenodd;stroke:#000000;stroke-width:1px;stroke-linecap:butt;stroke-linejoin:miter;stroke-opacity:1" />
    </clipPath>
    <linearGradient
       inkscape:collect="always"
       id="linearGradient3433">
      <stop
         offset="0"
         id="stop3435"
         style="stop-color:#ffffff;stop-opacity:1;" />
      <stop
         offset="1"
         id="stop3437"
         style="stop-color:#ffffff;stop-opacity:0;" />
    </linearGradient>
    <radialGradient
       inkscape:collect="always"
       xlink:href="#linearGradient3837"
       id="radialGradient8964"
       gradientUnits="userSpaceOnUse"
       gradientTransform="matrix(1,0,0,2.5768702,-372.5,-950.79699)"
       cx="303.71942"
       cy="397.17728"
       fx="303.71942"
       fy="397.17728"
       r="0.79621875" />
    <filter
       inkscape:collect="always"
       id="filter3833"
       x="-0.15930007"
       y="-0.071685553"
       width="1.3186002"
       height="1.1433711">
      <feGaussianBlur
         inkscape:collect="always"
         id="feGaussianBlur3835"
         stdDeviation="0.10560268" />
    </filter>
    <linearGradient
       inkscape:collect="always"
       id="linearGradient3837">
      <stop
         offset="0"
         id="stop3839"
         style="stop-color:#f1e4d4;stop-opacity:1;" />
      <stop
         offset="1"
         id="stop3841"
         style="stop-color:#f1e4d4;stop-opacity:0;" />
    </linearGradient>
    <radialGradient
       inkscape:collect="always"
       xlink:href="#linearGradient3837"
       id="radialGradient8962"
       gradientUnits="userSpaceOnUse"
       gradientTransform="matrix(1,0,0,2.5768702,43.133514,-626.29699)"
       cx="303.71942"
       cy="397.17728"
       fx="303.71942"
       fy="397.17728"
       r="0.79621875" />
    <filter
       inkscape:collect="always"
       id="filter3325">
      <feGaussianBlur
         inkscape:collect="always"
         id="feGaussianBlur3327"
         stdDeviation="0.16076312" />
    </filter>
    <linearGradient
       inkscape:collect="always"
       id="linearGradient3329">
      <stop
         offset="0"
         id="stop3331"
         style="stop-color:#f9eee2;stop-opacity:1;" />
      <stop
         offset="1"
         id="stop3333"
         style="stop-color:#f9eee2;stop-opacity:0;" />
    </linearGradient>
    <linearGradient
       inkscape:collect="always"
       xlink:href="#linearGradient3329"
       id="linearGradient8960"
       gradientUnits="userSpaceOnUse"
       gradientTransform="translate(-372.5,-324.5)"
       x1="317.01251"
       y1="431.1243"
       x2="331.42062"
       y2="418.65884" />
    <mask
       id="mask3287"
       maskUnits="userSpaceOnUse">
      <path
         id="path3289"
         d="M 412.56716,362.7206 C 404.7906,362.9256 395.78945,368.58113 392.66091,375.5331 C 389.47419,382.61431 389.9381,391.06936 391.84841,400.8456 C 393.75873,410.62183 400.03668,420.79216 403.22341,424.4706 C 406.24381,427.95705 410.11265,427.32692 412.56716,427.25185 C 412.69296,427.25185 412.8695,427.24772 413.00466,427.25185 C 415.45917,427.32692 419.32801,427.95705 422.34841,424.4706 C 425.53514,420.79216 431.81309,410.62183 433.72341,400.8456 C 435.63374,391.06936 436.09763,382.61431 432.91091,375.5331 C 429.78236,368.58113 420.78122,362.9256 413.00466,362.7206 L 412.56716,362.7206 z"
         style="opacity:1;fill:url(#radialGradient3291);fill-opacity:1;fill-rule:evenodd;stroke:none;stroke-width:1px;stroke-linecap:butt;stroke-linejoin:miter;stroke-opacity:1"
         sodipodi:nodetypes="csssssssscc" />
    </mask>
    <linearGradient
       id="linearGradient3163">
      <stop
         offset="0"
         id="stop3165"
         style="stop-color:#fff5e4;stop-opacity:1;" />
      <stop
         offset="0.25"
         id="stop3173"
         style="stop-color:#ffecd0;stop-opacity:1;" />
      <stop
         offset="0.5"
         id="stop3171"
         style="stop-color:#ffd390;stop-opacity:1;" />
      <stop
         offset="1"
         id="stop3167"
         style="stop-color:#ffc46a;stop-opacity:1;" />
    </linearGradient>
    <linearGradient
       id="linearGradient3149-735">
      <stop
         offset="0"
         id="stop5584"
         style="stop-color:#faf0e4;stop-opacity:1;" />
      <stop
         offset="0.591133"
         id="stop5586"
         style="stop-color:#f8e7d4;stop-opacity:1;" />
      <stop
         offset="1"
         id="stop5588"
         style="stop-color:#f1cfa9;stop-opacity:1;" />
    </linearGradient>
    <radialGradient
       inkscape:collect="always"
       xlink:href="#linearGradient3149-735"
       id="radialGradient8956"
       gradientUnits="userSpaceOnUse"
       gradientTransform="matrix(1.0059645,0,0,1.4472234,-271.44676,-535.35257)"
       cx="324.39758"
       cy="396.09259"
       fx="330.04404"
       fy="392.75388"
       r="22.444885" />
    <filter
       inkscape:collect="always"
       id="filter3694">
      <feGaussianBlur
         inkscape:collect="always"
         id="feGaussianBlur3696"
         stdDeviation="1.640636" />
    </filter>
    <clipPath
       id="clipPath3705"
       clipPathUnits="userSpaceOnUse">
      <path
         d="M 341.25,409.625 C 339.73679,416.82736 335.50876,433.0214 340.75,436.875 C 340.10353,443.87478 333.6714,446.51892 325.75,448.0625 L 324.25,448.0625 C 316.3286,446.51892 309.89647,443.87478 309.25,436.875 C 314.49124,433.0214 310.26321,416.82736 308.75,409.625 L 325,417.03125 L 341.25,409.625 z"
         id="path3707"
         style="opacity:0.74906365;fill:url(#radialGradient3709);fill-opacity:1;fill-rule:evenodd;stroke:none;stroke-width:1px;stroke-linecap:butt;stroke-linejoin:miter;stroke-opacity:1"
         sodipodi:nodetypes="cccccccc" />
    </clipPath>
    <radialGradient
       inkscape:collect="always"
       xlink:href="#linearGradient3654"
       id="radialGradient8954"
       gradientUnits="userSpaceOnUse"
       gradientTransform="matrix(-0.696437,0,0,1.188967,285.63744,-439.0428)"
       cx="312"
       cy="431.38034"
       fx="311.27777"
       fy="433.70554"
       r="16.25" />
    <linearGradient
       id="linearGradient3654">
      <stop
         offset="0"
         id="stop3656"
         style="stop-color:#f9ede0;stop-opacity:1;" />
      <stop
         offset="0.5"
         id="stop3670"
         style="stop-color:#f9ede0;stop-opacity:0.80575538;" />
      <stop
         offset="1"
         id="stop3658"
         style="stop-color:#f9ede0;stop-opacity:0;" />
    </linearGradient>
    <radialGradient
       inkscape:collect="always"
       xlink:href="#linearGradient3654"
       id="radialGradient8952"
       gradientUnits="userSpaceOnUse"
       gradientTransform="matrix(0.696437,0,0,1.188967,-175.09425,-439.0428)"
       cx="312"
       cy="431.38034"
       fx="311.27777"
       fy="433.70554"
       r="16.25" />
    <filter
       inkscape:collect="always"
       id="filter3624">
      <feGaussianBlur
         inkscape:collect="always"
         id="feGaussianBlur3626"
         stdDeviation="1.1236176" />
    </filter>
    <filter
       inkscape:collect="always"
       x="-0.10290141"
       width="1.2058028"
       y="-0.089966141"
       height="1.1799324"
       id="filter8878">
      <feGaussianBlur
         inkscape:collect="always"
         stdDeviation="1.7150235"
         id="feGaussianBlur8880" />
    </filter>
    <clipPath
       clipPathUnits="userSpaceOnUse"
       id="clipPath8998">
      <rect
         id="rect9000"
         height="45.767651"
         width="38.139709"
         y="9.4719219"
         x="7.9999995"
         style="fill:#ff00bf" />
    </clipPath>
    <linearGradient
       id="XMLID_5_"
       gradientUnits="userSpaceOnUse"
       x1="28"
       y1="56"
       x2="28"
       y2="8.0004997"
       gradientTransform="translate(0,1)">
      <stop
         offset="0"
         style="stop-color:#A4C0E4"
         id="stop8163" />
      <stop
         offset="1"
         style="stop-color:#6193CF"
         id="stop8165" />
    </linearGradient>
    <linearGradient
       y2="70"
       x2="60.0005"
       y1="72"
       x1="60.0005"
       gradientUnits="userSpaceOnUse"
       id="XMLID_14_">
      <stop
         id="stop8131"
         style="stop-color:#BBBBBB"
         offset="0" />
      <stop
         id="stop8133"
         style="stop-color:#555555"
         offset="1" />
    </linearGradient>
    <linearGradient
       y2="-35.055599"
       x2="58.676701"
       y1="84.944298"
       x1="155.6768"
       gradientUnits="userSpaceOnUse"
       id="XMLID_12_">
      <stop
         id="stop8122"
         style="stop-color:#2C72C7"
         offset="0" />
      <stop
         id="stop8124"
         style="stop-color:#A4C0E4"
         offset="1" />
    </linearGradient>
    <linearGradient
       id="XMLID_10_"
       gradientUnits="userSpaceOnUse"
       x1="26.27"
       y1="-19.966801"
       x2="109.9365"
       y2="138.7002"
       gradientTransform="translate(0,1)">
      <stop
         offset="0"
         style="stop-color:#D9DEE4"
         id="stop8104" />
      <stop
         offset="0.2899"
         style="stop-color:#FFFFFF"
         id="stop8106" />
      <stop
         offset="1"
         style="stop-color:#C5C9CF"
         id="stop8108" />
    </linearGradient>
    <linearGradient
       inkscape:collect="always"
       xlink:href="#XMLID_5_"
       id="linearGradient10546"
       gradientUnits="userSpaceOnUse"
       gradientTransform="matrix(0.6,0,0,0.75,7.1999989,13.999995)"
       x1="28"
       y1="56"
       x2="28"
       y2="8.0004997" />
    <linearGradient
       inkscape:collect="always"
       xlink:href="#linearGradient3163"
       id="linearGradient10602"
       gradientUnits="userSpaceOnUse"
       x1="412.78592"
       y1="400.84558"
       x2="412.78592"
       y2="422.63611" />
    <linearGradient
       inkscape:collect="always"
       xlink:href="#linearGradient3433"
       id="linearGradient10604"
       gradientUnits="userSpaceOnUse"
       x1="324.65039"
       y1="398.85446"
       x2="325.7691"
       y2="370.57019" />
    <linearGradient
       inkscape:collect="always"
       xlink:href="#linearGradient8914"
       id="linearGradient10606"
       gradientUnits="userSpaceOnUse"
       x1="414.41586"
       y1="458.62646"
       x2="461.90625"
       y2="458.62646" />
    <filter
       inkscape:collect="always"
       id="filter3385">
      <feGaussianBlur
         inkscape:collect="always"
         stdDeviation="1.48"
         id="feGaussianBlur3387" />
    </filter>
    <linearGradient
       inkscape:collect="always"
       xlink:href="#XMLID_12_"
       id="linearGradient3397"
       x1="75.413788"
       y1="38.592541"
       x2="81.942314"
       y2="38.592541"
       gradientUnits="userSpaceOnUse"
       gradientTransform="translate(0,4)" />
    <linearGradient
       inkscape:collect="always"
       xlink:href="#XMLID_10_"
       id="linearGradient3092"
       gradientUnits="userSpaceOnUse"
       gradientTransform="matrix(0.9774785,0,0,0.9678841,0.9914111,5.0704032)"
       x1="18.64123"
       y1="-5.1280375"
       x2="82.917091"
       y2="98.871964" />
    <linearGradient
       inkscape:collect="always"
       xlink:href="#linearGradient3403"
       id="linearGradient3869"
       gradientUnits="userSpaceOnUse"
       gradientTransform="matrix(1.1666666,0,0,0.88888889,-5.9999967,5.7777778)"
       x1="16.551722"
       y1="16"
       x2="16.551722"
       y2="34.970032" />
  </defs>
  <sodipodi:namedview
     id="base"
     pagecolor="#ffffff"
     bordercolor="#666666"
     borderopacity="1.0"
     inkscape:pageopacity="0"
     inkscape:pageshadow="2"
     inkscape:zoom="4.0015816"
     inkscape:cx="73.562804"
     inkscape:cy="60.061243"
     inkscape:document-units="px"
     inkscape:current-layer="layer1"
     height="88px"
     width="88px"
     inkscape:window-width="1205"
     inkscape:window-height="674"
     inkscape:window-x="0"
     inkscape:window-y="22"
     showgrid="true"
     showborder="true">
    <inkscape:grid
       id="GridFromPre046Settings"
       type="xygrid"
       originx="0px"
       originy="0px"
       spacingx="4px"
       spacingy="4px"
       color="#0000ff"
       empcolor="#0000ff"
       opacity="0.2"
       empopacity="0.4"
       empspacing="2"
       visible="true"
       enabled="true" />
  </sodipodi:namedview>
  <metadata
     id="metadata9007">
    <rdf:RDF>
      <cc:Work
         rdf:about="">
        <dc:format>image/svg+xml</dc:format>
        <dc:type
           rdf:resource="http://purl.org/dc/dcmitype/StillImage" />
        <dc:title></dc:title>
        <dc:date>31/08/2007</dc:date>
        <dc:creator>
          <cc:Agent>
            <dc:title>David Vignoni</dc:title>
          </cc:Agent>
        </dc:creator>
        <dc:contributor>
          <cc:Agent>
            <dc:title>Nuno F. Pinheiro</dc:title>
          </cc:Agent>
        </dc:contributor>
      </cc:Work>
    </rdf:RDF>
  </metadata>
  <g
     inkscape:label="Livello 1"
     inkscape:groupmode="layer"
     id="layer1">
    <path
       sodipodi:nodetypes="cccccsccccccccccsccsccccccccccscccccc"
       id="path3383"
       d="M 6.6872081,16.044376 C 5.2205414,16.044376 4.0205408,17.243435 4.0205408,18.708949 L 4.0205408,73.3798 C 4.0205408,74.845316 5.2205414,76.044376 6.6872081,76.044376 L 20.020542,76.044376 C 21.487208,76.044376 22.687207,75.444842 22.687207,74.712086 C 22.687207,73.979329 21.487208,73.3798 20.020542,73.3798 L 20.020542,73.3798 C 18.553876,73.3798 17.353875,72.180742 17.353875,70.715228 L 17.353875,70.715228 C 17.353875,69.249713 18.553876,68.050656 20.020542,68.050656 L 30.687209,68.050656 C 32.153876,68.050656 33.353876,69.249713 33.353876,70.715228 L 33.353876,70.715228 C 33.353876,72.180742 32.153876,73.3798 30.687209,73.3798 L 30.687209,73.3798 C 29.220543,73.3798 28.020543,73.979329 28.020543,74.712086 C 28.020543,75.444842 29.220543,76.044376 30.687209,76.044376 L 57.353877,76.044376 C 58.820544,76.044376 60.020544,75.444842 60.020544,74.712086 C 60.020544,73.979329 58.820544,73.3798 57.353877,73.3798 L 57.353877,73.3798 C 55.88721,73.3798 54.68721,72.180742 54.68721,70.715228 L 54.68721,70.715228 C 54.68721,69.249713 55.88721,68.050656 57.353877,68.050656 L 68.020544,68.050656 C 69.487212,68.050656 70.68721,69.249713 70.68721,70.715228 L 70.68721,70.715228 C 70.68721,72.180742 69.487212,73.3798 68.020544,73.3798 L 68.020544,73.3798 C 66.553877,73.3798 65.353877,73.979329 65.353877,74.712086 C 65.353877,75.444842 66.553877,76.044376 68.020544,76.044376 L 81.353881,76.044376 C 82.820541,76.044376 84.020541,74.845316 84.020541,73.3798 L 84.020541,18.708949 C 84.020541,17.243435 82.820541,16.044376 81.353881,16.044376 L 6.6872081,16.044376 z"
       style="opacity:0.5;fill:none;stroke:#000000;stroke-width:4;stroke-miterlimit:4;stroke-dasharray:none;stroke-opacity:1;filter:url(#filter3385)" />
    <path
       style="fill:#ffffff"
       d="M 6.6872081,16.044376 C 5.2205414,16.044376 4.0205408,17.243435 4.0205408,18.708949 L 4.0205408,73.3798 C 4.0205408,74.845316 5.2205414,76.044376 6.6872081,76.044376 L 20.020542,76.044376 C 21.487208,76.044376 22.687207,75.444842 22.687207,74.712086 C 22.687207,73.979329 21.487208,73.3798 20.020542,73.3798 L 20.020542,73.3798 C 18.553876,73.3798 17.353875,72.180742 17.353875,70.715228 L 17.353875,70.715228 C 17.353875,69.249713 18.553876,68.050656 20.020542,68.050656 L 30.687209,68.050656 C 32.153876,68.050656 33.353876,69.249713 33.353876,70.715228 L 33.353876,70.715228 C 33.353876,72.180742 32.153876,73.3798 30.687209,73.3798 L 30.687209,73.3798 C 29.220543,73.3798 28.020543,73.979329 28.020543,74.712086 C 28.020543,75.444842 29.220543,76.044376 30.687209,76.044376 L 57.353877,76.044376 C 58.820544,76.044376 60.020544,75.444842 60.020544,74.712086 C 60.020544,73.979329 58.820544,73.3798 57.353877,73.3798 L 57.353877,73.3798 C 55.88721,73.3798 54.68721,72.180742 54.68721,70.715228 L 54.68721,70.715228 C 54.68721,69.249713 55.88721,68.050656 57.353877,68.050656 L 68.020544,68.050656 C 69.487212,68.050656 70.68721,69.249713 70.68721,70.715228 L 70.68721,70.715228 C 70.68721,72.180742 69.487212,73.3798 68.020544,73.3798 L 68.020544,73.3798 C 66.553877,73.3798 65.353877,73.979329 65.353877,74.712086 C 65.353877,75.444842 66.553877,76.044376 68.020544,76.044376 L 81.353881,76.044376 C 82.820541,76.044376 84.020541,74.845316 84.020541,73.3798 L 84.020541,18.708949 C 84.020541,17.243435 82.820541,16.044376 81.353881,16.044376 L 6.6872081,16.044376 z"
       id="path8101"
       sodipodi:nodetypes="cccccsccccccccccsccsccccccccccscccccc" />
    <path
       sodipodi:type="inkscape:offset"
       inkscape:radius="-2.4800885"
       inkscape:original="M 8.53125 17.53125 C 7.1371636 17.53125 6 18.651932 6 20.03125 L 6 71.5 C 6 72.87932 7.1371636 74 8.53125 74 L 20 74 C 21.394086 74 21.394086 71.5 20 71.5 C 18.605915 71.5 17.46875 70.348069 17.46875 68.96875 C 17.46875 67.589432 18.605915 66.46875 20 66.46875 L 31.625 66.46875 C 33.019087 66.46875 34.15625 67.589432 34.15625 68.96875 C 34.15625 70.348069 33.019087 71.5 31.625 71.5 C 30.230915 71.5 30.230915 74 31.625 74 L 56.6875 74 C 58.081586 74 59.21875 73.439657 59.21875 72.75 C 59.21875 72.060341 58.081586 71.5 56.6875 71.5 C 55.293413 71.5 54.15625 70.348069 54.15625 68.96875 C 54.15625 67.589432 55.293413 66.46875 56.6875 66.46875 L 66.84375 66.46875 C 68.237838 66.46875 69.375 67.589432 69.375 68.96875 C 69.375 70.348069 68.237838 71.5 66.84375 71.5 C 65.449664 71.5 64.3125 72.060341 64.3125 72.75 C 64.3125 73.439657 65.449664 74 66.84375 74 L 79.5 74 C 80.894081 74 82.03125 72.87932 82.03125 71.5 L 82.03125 20.03125 C 82.03125 18.651932 80.894081 17.53125 79.5 17.53125 L 8.53125 17.53125 z "
       style="fill:url(#linearGradient3092)"
       id="path3090"
       d="m 8.53125,20 c -0.064953,0 -0.0625,0.01505 -0.0625,0.03125 l 0,51.46875 c 0,0.0162 -0.00246,0.03125 0.0625,0.03125 l 7.28125,0 C 15.339015,70.766287 15,69.924949 15,68.96875 15,66.226309 17.27678,64 20,64 l 11.625,0 c 2.72322,0 5,2.226312 5,4.96875 0,0.956198 -0.339015,1.797537 -0.8125,2.5625 l 16.6875,0 c -0.473485,-0.764963 -0.8125,-1.606302 -0.8125,-2.5625 0,-2.742438 2.27678,-4.96875 5,-4.96875 l 10.15625,0 c 2.72322,0 5,2.226313 5,4.96875 0,0.956197 -0.339015,1.797537 -0.8125,2.5625 l 8.46875,0 c 0.06494,0 0.0625,-0.01506 0.0625,-0.03125 l 0,-51.46875 C 79.5625,20.01506 79.564942,20 79.5,20 L 8.53125,20 z" />
    <g
       transform="matrix(0.6194773,0,0,0.8729896,6.9016817,-1.1092686)"
       id="g8128">
      <linearGradient
         id="linearGradient9249"
         gradientUnits="userSpaceOnUse"
         x1="60.0005"
         y1="72"
         x2="60.0005"
         y2="70">
        <stop
           offset="0"
           style="stop-color:#BBBBBB"
           id="stop9251" />
        <stop
           offset="1"
           style="stop-color:#555555"
           id="stop9253" />
      </linearGradient>
      <path
         style="fill:url(#XMLID_14_)"
         d="M 118,71 C 118,71.55 117.55,72 117,72 L 3,72 C 2.45,72 2,71.55 2,71 L 2,71 C 2,70.45 2.45,70 3,70 L 117,70 C 117.55,70 118,70.45 118,71 L 118,71 z"
         id="path8135" />
    </g>
    <rect
       style="opacity:0.5;fill:url(#linearGradient10546)"
       x="8"
       y="20"
       width="28"
       height="36"
       id="rect8167" />
    <path
       style="font-size:12px;font-style:normal;font-weight:bold;fill:#555753;fill-opacity:1;stroke:none;stroke-width:1px;stroke-linecap:butt;stroke-linejoin:miter;stroke-opacity:1;font-family:FreeSans"
       d="M 42.043193,25.074675 L 42.043193,27.052062 L 40.827586,27.052062 L 40.827586,21.144214 L 42.043193,21.144214 L 42.043193,23.737508 L 44.352845,21.144214 L 45.787261,21.144214 L 43.428985,23.688884 L 46.038487,27.052062 L 44.587863,27.052062 L 42.650996,24.44256 L 42.043193,25.074675 M 47.293979,27.052062 L 47.293979,21.144214 L 49.603632,21.144214 C 50.057459,21.14422 50.430244,21.198247 50.72199,21.306295 C 51.019138,21.414354 51.267663,21.58724 51.467562,21.824953 C 51.948402,22.397644 52.188822,23.154021 52.188822,24.094086 C 52.188822,25.044962 51.948402,25.801339 51.467562,26.363219 C 51.083971,26.822448 50.462661,27.052062 49.603632,27.052062 L 47.293979,27.052062 M 48.509586,26.039057 L 49.603632,26.039057 C 50.516688,26.039058 50.973216,25.393437 50.973216,24.10219 C 50.973216,22.805547 50.516688,22.157224 49.603632,22.157219 L 48.509586,22.157219 L 48.509586,26.039057 M 54.841256,24.507392 L 54.841256,26.039057 L 58.042354,26.039057 L 58.042354,27.052062 L 53.625649,27.052062 L 53.625649,21.144214 L 57.896481,21.144214 L 57.896481,22.157219 L 54.841256,22.157219 L 54.841256,23.494386 L 57.669568,23.494386 L 57.669568,24.507392 L 54.841256,24.507392"
       id="text3374" />
    <path
       style="font-size:4.63464545999999977px;font-style:normal;font-weight:normal;fill:url(#linearGradient3397);fill-opacity:1;stroke:none;stroke-width:1px;stroke-linecap:butt;stroke-linejoin:miter;stroke-opacity:1;font-family:FreeSans"
       d="M 40.75 32.40625 L 40.75 35.78125 L 42.03125 35.78125 C 42.45764 35.78125 42.81841 35.643457 43.0625 35.34375 C 43.30968 35.040954 43.4375 34.619011 43.4375 34.09375 C 43.4375 33.568492 43.30659 33.14346 43.0625 32.84375 C 42.81841 32.544047 42.46072 32.406253 42.03125 32.40625 L 40.75 32.40625 z M 48.78125 32.40625 L 48.78125 32.875 L 49.1875 32.875 L 49.1875 32.40625 L 48.78125 32.40625 z M 51.40625 32.40625 L 51.40625 33.65625 C 51.2425 33.405981 51.02119 33.281253 50.6875 33.28125 C 50.37234 33.281253 50.09781 33.390181 49.90625 33.625 C 49.71777 33.856735 49.625 34.176281 49.625 34.5625 C 49.625 34.973439 49.71777 35.293339 49.90625 35.53125 C 50.09472 35.766072 50.35999 35.875 50.6875 35.875 C 50.85435 35.875 51.0045 35.849225 51.125 35.78125 C 51.24859 35.716365 51.36369 35.620148 51.46875 35.46875 L 51.46875 35.78125 L 51.8125 35.78125 L 51.8125 32.40625 L 51.40625 32.40625 z M 53.71875 32.40625 L 53.71875 35.78125 L 54.125 35.78125 L 54.125 32.9375 L 55.09375 35.78125 L 55.53125 35.78125 L 56.5 32.9375 L 56.5 35.78125 L 56.90625 35.78125 L 56.90625 32.40625 L 56.3125 32.40625 L 55.3125 35.34375 L 54.3125 32.40625 L 53.71875 32.40625 z M 57.53125 32.40625 L 57.53125 32.875 L 57.9375 32.875 L 57.9375 32.40625 L 57.53125 32.40625 z M 58.59375 32.40625 L 58.59375 35.78125 L 58.96875 35.78125 L 58.96875 32.40625 L 58.59375 32.40625 z M 59.625 32.40625 L 59.625 35.78125 L 60 35.78125 L 60 32.40625 L 59.625 32.40625 z M 41.1875 32.78125 L 41.96875 32.78125 C 42.30244 32.781253 42.54572 32.90254 42.71875 33.125 C 42.89177 33.347466 42.99999 33.664275 43 34.09375 C 42.99999 34.520139 42.89177 34.840038 42.71875 35.0625 C 42.54572 35.284963 42.30244 35.406251 41.96875 35.40625 L 41.1875 35.40625 L 41.1875 32.78125 z M 44.96875 33.28125 C 44.33843 33.281253 43.98729 33.537243 43.96875 34.0625 L 44.375 34.0625 C 44.39045 33.914193 44.43856 33.817977 44.53125 33.75 C 44.62394 33.678938 44.75829 33.625002 44.9375 33.625 C 45.11053 33.625002 45.25106 33.656957 45.34375 33.71875 C 45.43953 33.780547 45.46875 33.882591 45.46875 34 L 45.46875 34.09375 C 45.46875 34.174085 45.46495 34.241084 45.40625 34.28125 C 45.34754 34.321418 45.24515 34.356463 45.09375 34.375 C 44.98252 34.39045 44.887 34.400071 44.84375 34.40625 C 44.80049 34.412431 44.74894 34.422053 44.65625 34.4375 C 44.56356 34.45295 44.47457 34.456392 44.4375 34.46875 C 44.40042 34.478021 44.35231 34.506533 44.28125 34.53125 C 44.21327 34.55288 44.15589 34.569033 44.125 34.59375 C 44.09719 34.618469 44.07451 34.647334 44.03125 34.6875 C 43.98799 34.724578 43.95603 34.766154 43.9375 34.8125 C 43.92205 34.855757 43.9217 34.910045 43.90625 34.96875 C 43.89389 35.027456 43.875 35.085186 43.875 35.15625 C 43.875 35.375624 43.95162 35.55773 44.09375 35.6875 C 44.23896 35.81727 44.41216 35.875 44.65625 35.875 C 44.94669 35.875 45.24046 35.769162 45.5 35.53125 C 45.51545 35.654841 45.56321 35.756884 45.625 35.8125 C 45.68989 35.871205 45.78266 35.875 45.90625 35.875 C 45.97422 35.875 46.04811 35.871558 46.15625 35.84375 L 46.15625 35.5625 C 46.12844 35.568679 46.0903 35.5625 46.0625 35.5625 C 45.92346 35.5625 45.875 35.50168 45.875 35.375 L 45.875 33.9375 C 45.875 33.721218 45.77948 33.548734 45.625 33.4375 C 45.47051 33.323181 45.26845 33.281253 44.96875 33.28125 z M 61.625 33.28125 C 61.28822 33.281253 61.01642 33.415251 60.8125 33.65625 C 60.61167 33.894163 60.53125 34.195172 60.53125 34.59375 C 60.53125 34.99233 60.61475 35.299519 60.8125 35.53125 C 61.01024 35.759893 61.28513 35.875 61.625 35.875 C 61.90308 35.875 62.1302 35.804559 62.3125 35.65625 C 62.49479 35.507942 62.60681 35.29697 62.65625 35.03125 L 62.28125 35.03125 C 62.1731 35.355675 61.94015 35.531251 61.625 35.53125 C 61.36855 35.531251 61.19536 35.428854 61.0625 35.21875 C 60.97908 35.09516 60.94059 34.909964 60.9375 34.6875 L 62.71875 34.6875 C 62.71874 34.341448 62.68988 34.076189 62.625 33.90625 C 62.54775 33.708508 62.42611 33.551824 62.25 33.4375 C 62.07697 33.323181 61.85365 33.281253 61.625 33.28125 z M 64.25 33.28125 C 64.12641 33.281253 64.0113 33.325919 63.90625 33.40625 C 63.80428 33.483497 63.70498 33.598957 63.59375 33.78125 L 63.59375 33.34375 L 63.25 33.34375 L 63.25 35.78125 L 63.625 35.78125 L 63.625 34.53125 C 63.625 34.213006 63.68273 33.989323 63.8125 33.875 C 63.94227 33.760681 64.14671 33.693682 64.40625 33.6875 L 64.40625 33.28125 C 64.34136 33.271984 64.28398 33.281253 64.25 33.28125 z M 46.21875 33.34375 L 47.0625 35.78125 L 47.46875 35.78125 L 48.40625 33.34375 L 47.96875 33.34375 L 47.28125 35.3125 L 46.65625 33.34375 L 46.21875 33.34375 z M 48.78125 33.34375 L 48.78125 35.78125 L 49.1875 35.78125 L 49.1875 33.34375 L 48.78125 33.34375 z M 57.5625 33.34375 L 57.5625 35.78125 L 57.9375 35.78125 L 57.9375 33.34375 L 57.5625 33.34375 z M 61.625 33.625 C 61.81347 33.625002 61.96398 33.704713 62.09375 33.84375 C 62.22352 33.979702 62.3125 34.142917 62.3125 34.34375 C 62.3125 34.35611 62.28434 34.368822 62.28125 34.375 L 60.9375 34.375 C 60.95295 34.149449 61.02957 33.976611 61.15625 33.84375 C 61.28293 33.707802 61.43034 33.625002 61.625 33.625 z M 50.75 33.65625 C 50.95702 33.656252 51.09516 33.733225 51.21875 33.90625 C 51.34234 34.076189 51.40625 34.303314 51.40625 34.59375 C 51.40625 34.874919 51.34234 35.111314 51.21875 35.28125 C 51.09516 35.451188 50.95392 35.53125 50.75 35.53125 C 50.5368 35.53125 50.34852 35.451188 50.21875 35.28125 C 50.08898 35.108224 50.03125 34.878009 50.03125 34.59375 C 50.03125 34.312583 50.08898 34.079278 50.21875 33.90625 C 50.34852 33.733225 50.5399 33.656252 50.75 33.65625 z M 45.46875 34.59375 L 45.46875 35 C 45.46875 35.129771 45.4172 35.260679 45.28125 35.375 C 45.1453 35.486232 44.96319 35.5625 44.75 35.5625 C 44.5986 35.5625 44.48967 35.505475 44.40625 35.4375 C 44.32283 35.369525 44.28125 35.279841 44.28125 35.15625 C 44.28125 35.03266 44.31355 34.942975 44.40625 34.875 C 44.49894 34.803936 44.60443 34.76854 44.71875 34.75 C 44.83307 34.731463 44.97051 34.680969 45.125 34.65625 C 45.28258 34.631533 45.39151 34.630828 45.46875 34.59375 z M 40.75 40.3125 L 40.75 43.6875 L 42.03125 43.6875 C 42.45764 43.6875 42.81841 43.549707 43.0625 43.25 C 43.30968 42.947203 43.4375 42.525261 43.4375 42 C 43.4375 41.474742 43.30659 41.04971 43.0625 40.75 C 42.81841 40.450296 42.46072 40.312503 42.03125 40.3125 L 40.75 40.3125 z M 48.875 40.3125 L 48.875 40.8125 L 49.28125 40.8125 L 49.28125 40.3125 L 48.875 40.3125 z M 41.1875 40.6875 L 41.96875 40.6875 C 42.30244 40.687503 42.54572 40.80879 42.71875 41.03125 C 42.89177 41.253715 42.99999 41.570525 43 42 C 42.99999 42.426389 42.89177 42.746288 42.71875 42.96875 C 42.54572 43.191213 42.30244 43.312501 41.96875 43.3125 L 41.1875 43.3125 L 41.1875 40.6875 z M 44.96875 41.1875 C 44.63196 41.187503 44.36017 41.3215 44.15625 41.5625 C 43.95541 41.800413 43.875 42.101422 43.875 42.5 C 43.875 42.89858 43.9585 43.237018 44.15625 43.46875 C 44.35399 43.697393 44.62887 43.8125 44.96875 43.8125 C 45.24683 43.8125 45.47395 43.710809 45.65625 43.5625 C 45.83855 43.414192 45.95056 43.23447 46 42.96875 L 45.625 42.96875 C 45.51686 43.293175 45.28391 43.437501 44.96875 43.4375 C 44.7123 43.437501 44.53911 43.335105 44.40625 43.125 C 44.32282 43.001411 44.28434 42.816214 44.28125 42.59375 L 46.0625 42.59375 C 46.0625 42.247698 46.03364 42.013689 45.96875 41.84375 C 45.89151 41.646008 45.76987 41.489324 45.59375 41.375 C 45.42072 41.260681 45.19739 41.187503 44.96875 41.1875 z M 47.40625 41.1875 C 47.12508 41.187503 46.88869 41.270302 46.71875 41.40625 C 46.54882 41.539112 46.46875 41.711949 46.46875 41.9375 C 46.46875 42.129066 46.54502 42.26995 46.65625 42.375 C 46.77058 42.476964 46.96265 42.557026 47.25 42.625 L 47.59375 42.71875 C 47.72661 42.749649 47.84754 42.791225 47.90625 42.84375 C 47.96495 42.896276 47.96874 42.972898 47.96875 43.0625 C 47.96874 43.176822 47.91755 43.272686 47.8125 43.34375 C 47.71054 43.411725 47.57619 43.437501 47.40625 43.4375 C 47.19306 43.437501 47.05218 43.395924 46.96875 43.3125 C 46.88842 43.225987 46.83103 43.11397 46.8125 42.96875 L 46.40625 42.96875 C 46.42479 43.521818 46.74778 43.8125 47.375 43.8125 C 47.68088 43.8125 47.94579 43.732789 48.125 43.59375 C 48.30729 43.454711 48.375 43.266072 48.375 43.03125 C 48.375 42.852044 48.32689 42.698803 48.21875 42.59375 C 48.11061 42.48561 47.9285 42.402456 47.6875 42.34375 L 47.34375 42.25 C 47.18617 42.212925 47.07106 42.177527 47 42.125 C 46.92893 42.069386 46.875 41.992765 46.875 41.90625 C 46.875 41.79502 46.93856 41.721137 47.03125 41.65625 C 47.12394 41.588277 47.24867 41.562502 47.40625 41.5625 C 47.7214 41.562502 47.86572 41.677962 47.875 41.9375 L 48.28125 41.9375 C 48.27816 41.69959 48.2139 41.504773 48.0625 41.375 C 47.9111 41.245233 47.68742 41.187503 47.40625 41.1875 z M 50.78125 41.1875 C 50.47228 41.187503 50.22282 41.318411 50.03125 41.5625 C 49.84278 41.806593 49.75 42.135762 49.75 42.53125 C 49.75 42.917471 49.83968 43.202678 50.03125 43.4375 C 50.22281 43.669232 50.46574 43.8125 50.75 43.8125 C 50.9014 43.8125 51.04193 43.755475 51.15625 43.6875 C 51.27366 43.619525 51.36061 43.529489 51.46875 43.375 L 51.46875 43.5 C 51.46875 43.799707 51.43953 44.01103 51.34375 44.15625 C 51.24796 44.304558 51.07204 44.374999 50.8125 44.375 C 50.46336 44.374999 50.26201 44.240649 50.21875 43.96875 L 49.8125 43.96875 C 49.83413 44.197392 49.95506 44.370229 50.125 44.5 C 50.29493 44.629769 50.49699 44.687499 50.78125 44.6875 C 51.0068 44.687499 51.19853 44.658634 51.34375 44.59375 C 51.49205 44.528864 51.61335 44.445359 51.6875 44.3125 C 51.76165 44.17964 51.81594 44.032578 51.84375 43.875 C 51.87156 43.720512 51.87499 43.512982 51.875 43.28125 L 51.875 41.25 L 51.53125 41.25 L 51.53125 41.625 C 51.33968 41.343834 51.08405 41.187503 50.78125 41.1875 z M 53.6875 41.1875 C 53.50829 41.187503 53.34543 41.238348 53.21875 41.3125 C 53.09516 41.386656 52.98314 41.486315 52.875 41.65625 L 52.875 41.25 L 52.5 41.25 L 52.5 43.6875 L 52.90625 43.6875 L 52.90625 42.34375 C 52.90625 42.09657 52.97325 41.89831 53.09375 41.75 C 53.21425 41.598604 53.36476 41.531253 53.5625 41.53125 C 53.71699 41.531253 53.84789 41.569739 53.9375 41.65625 C 54.0271 41.742766 54.0625 41.854783 54.0625 42 L 54.0625 43.6875 L 54.4375 43.6875 L 54.4375 41.84375 C 54.4375 41.642917 54.38904 41.495503 54.25 41.375 C 54.11096 41.254502 53.92232 41.187503 53.6875 41.1875 z M 56.0625 41.1875 C 55.72571 41.187503 55.45392 41.3215 55.25 41.5625 C 55.04916 41.800413 54.96875 42.101422 54.96875 42.5 C 54.96875 42.89858 55.05226 43.237018 55.25 43.46875 C 55.44774 43.697393 55.72262 43.8125 56.0625 43.8125 C 56.34058 43.8125 56.5677 43.710809 56.75 43.5625 C 56.9323 43.414192 57.04431 43.23447 57.09375 42.96875 L 56.71875 42.96875 C 56.61061 43.293175 56.37766 43.437501 56.0625 43.4375 C 55.80605 43.437501 55.63286 43.335105 55.5 43.125 C 55.41657 43.001411 55.34684 42.816214 55.34375 42.59375 L 57.15625 42.59375 C 57.15625 42.247698 57.12739 42.013689 57.0625 41.84375 C 56.98526 41.646008 56.83237 41.489324 56.65625 41.375 C 56.48322 41.260681 56.29114 41.187503 56.0625 41.1875 z M 58.6875 41.1875 C 58.56391 41.187503 58.4488 41.232169 58.34375 41.3125 C 58.24179 41.389746 58.14248 41.536456 58.03125 41.71875 L 58.03125 41.25 L 57.65625 41.25 L 57.65625 43.6875 L 58.0625 43.6875 L 58.0625 42.4375 C 58.0625 42.119256 58.12022 41.895573 58.25 41.78125 C 58.37976 41.666931 58.58421 41.599932 58.84375 41.59375 L 58.84375 41.21875 C 58.77886 41.209483 58.72149 41.187503 58.6875 41.1875 z M 48.875 41.25 L 48.875 43.6875 L 49.28125 43.6875 L 49.28125 41.25 L 48.875 41.25 z M 44.96875 41.5625 C 45.15723 41.562502 45.30773 41.610963 45.4375 41.75 C 45.56727 41.885951 45.65624 42.049167 45.65625 42.25 C 45.65624 42.262361 45.62809 42.275072 45.625 42.28125 L 44.28125 42.28125 C 44.29669 42.055699 44.37332 41.882862 44.5 41.75 C 44.62668 41.614053 44.7741 41.562502 44.96875 41.5625 z M 50.8125 41.5625 C 51.0226 41.562502 51.19818 41.642566 51.3125 41.8125 C 51.42991 41.979349 51.46875 42.197204 51.46875 42.5 C 51.46875 42.790438 51.42991 43.020654 51.3125 43.1875 C 51.19509 43.351258 51.01642 43.437501 50.8125 43.4375 C 50.6024 43.437501 50.43299 43.354348 50.3125 43.1875 C 50.19199 43.017564 50.15625 42.793528 50.15625 42.5 C 50.15625 42.209563 50.19199 41.982439 50.3125 41.8125 C 50.43299 41.642566 50.60548 41.562502 50.8125 41.5625 z M 56.0625 41.5625 C 56.25098 41.562502 56.40148 41.610963 56.53125 41.75 C 56.66102 41.885951 56.71875 42.049167 56.71875 42.25 C 56.71875 42.262361 56.72184 42.275072 56.71875 42.28125 L 55.375 42.28125 C 55.39044 42.055699 55.46707 41.882862 55.59375 41.75 C 55.72043 41.614053 55.86785 41.562502 56.0625 41.5625 z M 53.84375 48.34375 C 53.56876 48.343753 53.30623 48.391862 53.03125 48.5 C 52.75625 48.605055 52.51643 48.752117 52.3125 48.9375 C 52.08386 49.144517 51.91102 49.393974 51.78125 49.6875 C 51.65148 49.977939 51.5625 50.290955 51.5625 50.59375 C 51.5625 50.930536 51.65836 51.215742 51.84375 51.5 C 52.03222 51.784258 52.30057 52.023742 52.625 52.1875 C 52.94943 52.354346 53.30437 52.437499 53.6875 52.4375 C 54.03974 52.437499 54.37269 52.379769 54.71875 52.25 L 54.59375 51.9375 C 54.24152 52.036372 53.96284 52.0625 53.71875 52.0625 C 53.22747 52.0625 52.80244 51.924707 52.46875 51.625 C 52.13505 51.322204 51.96874 50.941837 51.96875 50.5 C 51.96874 50.014909 52.1385 49.611504 52.5 49.25 C 52.86459 48.8885 53.29307 48.687503 53.78125 48.6875 C 54.22308 48.687503 54.61616 48.843835 54.9375 49.125 C 55.26192 49.406171 55.43749 49.738781 55.4375 50.125 C 55.43749 50.3969 55.34817 50.624378 55.1875 50.84375 C 55.02683 51.063124 54.85399 51.187501 54.65625 51.1875 C 54.59445 51.187501 54.5151 51.165167 54.46875 51.125 C 54.4224 51.084833 54.40625 51.024366 54.40625 50.96875 C 54.40625 50.922404 54.43167 50.858143 54.46875 50.75 L 54.875 49.4375 L 54.5 49.4375 L 54.40625 49.75 C 54.28884 49.481193 54.10329 49.343752 53.84375 49.34375 C 53.53169 49.343752 53.241 49.490462 53 49.75 C 52.759 50.009542 52.65625 50.288217 52.65625 50.625 C 52.65625 50.866002 52.70162 51.086244 52.84375 51.25 C 52.98897 51.410668 53.18996 51.5 53.40625 51.5 C 53.64107 51.5 53.85857 51.378714 54.0625 51.15625 C 54.10575 51.394163 54.26588 51.5 54.5625 51.5 C 54.90237 51.5 55.20268 51.368739 55.4375 51.09375 C 55.70322 50.784774 55.8125 50.442542 55.8125 50.0625 C 55.8125 49.592858 55.6393 49.183626 55.25 48.84375 C 54.86377 48.503879 54.38446 48.343753 53.84375 48.34375 z M 44.5 48.40625 L 44.5 48.875 L 44.90625 48.875 L 44.90625 48.40625 L 44.5 48.40625 z M 45.53125 48.40625 L 45.53125 51.78125 L 45.9375 51.78125 L 45.9375 48.40625 L 45.53125 48.40625 z M 46.5625 48.40625 L 46.5625 51.78125 L 46.96875 51.78125 L 46.96875 48.40625 L 46.5625 48.40625 z M 72.71875 48.40625 L 72.71875 48.875 L 73.125 48.875 L 73.125 48.40625 L 72.71875 48.40625 z M 41.75 49.28125 C 41.58933 49.281253 41.46116 49.310117 41.34375 49.375 C 41.22943 49.439887 41.10506 49.542283 41 49.6875 L 41 49.34375 L 40.65625 49.34375 L 40.65625 51.78125 L 41.03125 51.78125 L 41.03125 50.25 C 41.03125 50.073885 41.10752 49.936092 41.21875 49.8125 C 41.32998 49.688912 41.46742 49.625002 41.625 49.625 C 41.76713 49.625002 41.86025 49.663489 41.9375 49.75 C 42.01783 49.833426 42.0625 49.939264 42.0625 50.09375 L 42.0625 51.78125 L 42.46875 51.78125 L 42.46875 50.25 C 42.46875 50.073885 42.51376 49.936092 42.625 49.8125 C 42.73622 49.688912 42.87367 49.625002 43.03125 49.625 C 43.17338 49.625002 43.2665 49.663489 43.34375 49.75 C 43.42408 49.833426 43.46875 49.939264 43.46875 50.09375 L 43.46875 51.78125 L 43.875 51.78125 L 43.875 49.9375 C 43.875 49.718129 43.81109 49.551823 43.6875 49.4375 C 43.567 49.320091 43.3818 49.281253 43.15625 49.28125 C 42.99557 49.281253 42.86123 49.319386 42.75 49.375 C 42.63876 49.430618 42.52057 49.520302 42.40625 49.65625 C 42.2703 49.409071 42.04971 49.281253 41.75 49.28125 z M 48.59375 49.28125 C 48.25697 49.281253 47.98517 49.384001 47.78125 49.625 C 47.58041 49.862914 47.46875 50.195172 47.46875 50.59375 C 47.46875 50.992331 47.58351 51.299518 47.78125 51.53125 C 47.979 51.759893 48.25388 51.875 48.59375 51.875 C 48.87183 51.875 49.09895 51.804558 49.28125 51.65625 C 49.46354 51.507941 49.57557 51.29697 49.625 51.03125 L 49.21875 51.03125 C 49.11061 51.355676 48.9089 51.53125 48.59375 51.53125 C 48.3373 51.53125 48.13286 51.428855 48 51.21875 C 47.91658 51.09516 47.87809 50.909964 47.875 50.6875 L 49.65625 50.6875 C 49.65624 50.341448 49.62738 50.076189 49.5625 49.90625 C 49.48525 49.708507 49.36361 49.551823 49.1875 49.4375 C 49.01447 49.323181 48.82239 49.281253 48.59375 49.28125 z M 51.21875 49.28125 C 51.09515 49.281253 50.98005 49.325918 50.875 49.40625 C 50.77304 49.483496 50.67373 49.598956 50.5625 49.78125 L 50.5625 49.34375 L 50.1875 49.34375 L 50.1875 51.78125 L 50.59375 51.78125 L 50.59375 50.5 C 50.59375 50.181756 50.65148 49.989323 50.78125 49.875 C 50.91102 49.760681 51.08421 49.693681 51.34375 49.6875 L 51.34375 49.28125 C 51.27887 49.271983 51.25273 49.281253 51.21875 49.28125 z M 57.375 49.28125 C 57.03512 49.281253 56.7884 49.393271 56.59375 49.625 C 56.39909 49.853645 56.28125 50.185903 56.28125 50.59375 C 56.28125 51.0016 56.40218 51.299518 56.59375 51.53125 C 56.7884 51.759893 57.0602 51.875 57.40625 51.875 C 57.74613 51.875 57.99284 51.759893 58.1875 51.53125 C 58.38524 51.302608 58.5 50.99233 58.5 50.59375 C 58.5 50.173544 58.38215 49.853645 58.1875 49.625 C 57.99593 49.393271 57.72414 49.281253 57.375 49.28125 z M 64.3125 49.28125 C 64.00352 49.281253 63.75407 49.412161 63.5625 49.65625 C 63.37403 49.900343 63.28125 50.198262 63.28125 50.59375 C 63.28125 50.979971 63.37093 51.296429 63.5625 51.53125 C 63.75406 51.762983 63.99699 51.875 64.28125 51.875 C 64.43265 51.875 64.54193 51.849224 64.65625 51.78125 C 64.77366 51.713275 64.89186 51.591989 65 51.4375 L 65 51.5625 C 65 51.862207 64.97078 52.10478 64.875 52.25 C 64.77921 52.398308 64.60329 52.468749 64.34375 52.46875 C 63.99461 52.468749 63.79326 52.334398 63.75 52.0625 L 63.34375 52.0625 C 63.36538 52.291142 63.45506 52.463979 63.625 52.59375 C 63.79493 52.723519 64.02824 52.781249 64.3125 52.78125 C 64.53805 52.781249 64.72978 52.752384 64.875 52.6875 C 65.0233 52.622614 65.14459 52.539109 65.21875 52.40625 C 65.2929 52.27339 65.31594 52.126328 65.34375 51.96875 C 65.37155 51.814262 65.40624 51.606733 65.40625 51.375 L 65.40625 49.34375 L 65.03125 49.34375 L 65.03125 49.6875 C 64.83968 49.406334 64.61529 49.281253 64.3125 49.28125 z M 67 49.28125 C 66.66321 49.281253 66.39143 49.384001 66.1875 49.625 C 65.98667 49.862914 65.90625 50.195172 65.90625 50.59375 C 65.90625 50.992331 65.98976 51.299518 66.1875 51.53125 C 66.38524 51.759893 66.66012 51.875 67 51.875 C 67.27808 51.875 67.5052 51.804558 67.6875 51.65625 C 67.86979 51.507941 67.98181 51.29697 68.03125 51.03125 L 67.65625 51.03125 C 67.5481 51.355676 67.31516 51.53125 67 51.53125 C 66.74355 51.53125 66.57036 51.428855 66.4375 51.21875 C 66.35407 51.09516 66.31559 50.909964 66.3125 50.6875 L 68.09375 50.6875 C 68.09375 50.341448 68.06489 50.076189 68 49.90625 C 67.92276 49.708507 67.80112 49.551823 67.625 49.4375 C 67.45197 49.323181 67.22864 49.281253 67 49.28125 z M 69.78125 49.28125 C 69.60204 49.281253 69.43918 49.300848 69.3125 49.375 C 69.18891 49.449156 69.07689 49.580065 68.96875 49.75 L 68.96875 49.34375 L 68.625 49.34375 L 68.625 51.78125 L 69 51.78125 L 69 50.4375 C 68.99999 50.190321 69.06699 49.99206 69.1875 49.84375 C 69.308 49.692353 69.45851 49.625002 69.65625 49.625 C 69.81074 49.625002 69.94165 49.663489 70.03125 49.75 C 70.12085 49.836516 70.15624 49.948533 70.15625 50.09375 L 70.15625 51.78125 L 70.5625 51.78125 L 70.5625 49.9375 C 70.5625 49.736668 70.48279 49.589253 70.34375 49.46875 C 70.20471 49.348252 70.01607 49.281253 69.78125 49.28125 z M 74.6875 49.28125 C 74.35998 49.281253 74.07274 49.384001 73.875 49.625 C 73.68034 49.866004 73.59375 50.192082 73.59375 50.59375 C 73.59375 50.98615 73.68344 51.299518 73.875 51.53125 C 74.06966 51.759893 74.32564 51.875 74.65625 51.875 C 74.94668 51.875 75.20197 51.788757 75.375 51.625 C 75.54803 51.458153 75.63153 51.234118 75.65625 50.9375 L 75.28125 50.9375 C 75.21636 51.32681 75.01811 51.53125 74.6875 51.53125 C 74.47431 51.53125 74.308 51.445008 74.1875 51.28125 C 74.067 51.117493 74 50.881099 74 50.59375 C 74 50.290954 74.07009 50.076189 74.1875 49.90625 C 74.308 49.733225 74.44614 49.625002 74.65625 49.625 C 74.81691 49.625002 74.96363 49.688559 75.0625 49.78125 C 75.16138 49.870855 75.22528 49.986315 75.25 50.15625 L 75.625 50.15625 C 75.60337 49.868904 75.51369 49.6514 75.34375 49.5 C 75.1769 49.348604 74.96867 49.281253 74.6875 49.28125 z M 77.03125 49.28125 C 76.69137 49.281253 76.41341 49.393271 76.21875 49.625 C 76.0241 49.853645 75.9375 50.185903 75.9375 50.59375 C 75.9375 51.0016 76.02719 51.299518 76.21875 51.53125 C 76.41341 51.759893 76.6852 51.875 77.03125 51.875 C 77.37113 51.875 77.64909 51.759893 77.84375 51.53125 C 78.04149 51.302608 78.125 50.99233 78.125 50.59375 C 78.125 50.173544 78.0384 49.853645 77.84375 49.625 C 77.65218 49.393271 77.38039 49.281253 77.03125 49.28125 z M 79.84375 49.28125 C 79.66454 49.281253 79.50168 49.300848 79.375 49.375 C 79.25141 49.449156 79.13939 49.580065 79.03125 49.75 L 79.03125 49.34375 L 78.6875 49.34375 L 78.6875 51.78125 L 79.0625 51.78125 L 79.0625 50.4375 C 79.0625 50.190321 79.12949 49.99206 79.25 49.84375 C 79.3705 49.692353 79.52101 49.625002 79.71875 49.625 C 79.82553 49.625001 79.924218 49.646171 80 49.6875 L 80 49.3125 C 79.946819 49.304818 79.903036 49.281251 79.84375 49.28125 z M 44.5 49.34375 L 44.5 51.78125 L 44.90625 51.78125 L 44.90625 49.34375 L 44.5 49.34375 z M 58.71875 49.34375 L 59.53125 50.53125 L 58.65625 51.78125 L 59.09375 51.78125 L 59.71875 50.84375 L 60.3125 51.78125 L 60.78125 51.78125 L 59.9375 50.53125 L 60.75 49.34375 L 60.3125 49.34375 L 59.71875 50.21875 L 59.15625 49.34375 L 58.71875 49.34375 z M 61 49.34375 L 61.8125 51.78125 L 61.65625 52.15625 C 61.62226 52.242763 61.57759 52.309762 61.53125 52.34375 C 61.4849 52.380827 61.42409 52.406249 61.34375 52.40625 C 61.29123 52.406249 61.23967 52.393538 61.15625 52.375 L 61.15625 52.71875 C 61.23349 52.758916 61.31047 52.781249 61.40625 52.78125 C 61.69669 52.781249 61.90457 52.614944 62.03125 52.28125 L 63.125 49.34375 L 62.6875 49.34375 L 62.03125 51.25 L 61.40625 49.34375 L 61 49.34375 z M 72.71875 49.34375 L 72.71875 51.78125 L 73.125 51.78125 L 73.125 49.34375 L 72.71875 49.34375 z M 48.59375 49.625 C 48.78222 49.625002 48.93272 49.704713 49.0625 49.84375 C 49.19226 49.979701 49.25 50.142917 49.25 50.34375 C 49.25 50.356111 49.25308 50.368822 49.25 50.375 L 47.875 50.375 C 47.89045 50.149449 47.96707 49.976612 48.09375 49.84375 C 48.22043 49.707803 48.39909 49.625002 48.59375 49.625 z M 57.40625 49.625 C 57.62562 49.625002 57.78575 49.705065 57.90625 49.875 C 58.02984 50.044939 58.09375 50.294045 58.09375 50.59375 C 58.09375 50.87801 58.03293 51.111314 57.90625 51.28125 C 57.78266 51.448098 57.61944 51.53125 57.40625 51.53125 C 57.18997 51.53125 56.99859 51.448098 56.875 51.28125 C 56.75141 51.111314 56.6875 50.887279 56.6875 50.59375 C 56.6875 50.300224 56.75141 50.041849 56.875 49.875 C 56.99859 49.705065 57.18997 49.625002 57.40625 49.625 z M 64.34375 49.625 C 64.55385 49.625002 64.72942 49.705065 64.84375 49.875 C 64.96115 50.041849 65 50.290955 65 50.59375 C 65 50.884189 64.96115 51.114403 64.84375 51.28125 C 64.72633 51.445008 64.54768 51.53125 64.34375 51.53125 C 64.13365 51.53125 63.96426 51.448098 63.84375 51.28125 C 63.72325 51.111314 63.65625 50.887279 63.65625 50.59375 C 63.65625 50.303314 63.72325 50.044939 63.84375 49.875 C 63.96426 49.705065 64.13673 49.625002 64.34375 49.625 z M 67 49.625 C 67.18848 49.625002 67.33898 49.704713 67.46875 49.84375 C 67.59852 49.979701 67.6875 50.142917 67.6875 50.34375 C 67.6875 50.356111 67.69059 50.368822 67.6875 50.375 L 66.3125 50.375 C 66.32794 50.149449 66.40457 49.976612 66.53125 49.84375 C 66.65793 49.707803 66.80535 49.625002 67 49.625 z M 77.03125 49.625 C 77.25063 49.625002 77.41075 49.705065 77.53125 49.875 C 77.65484 50.044939 77.71875 50.294045 77.71875 50.59375 C 77.71875 50.87801 77.65793 51.111314 77.53125 51.28125 C 77.40766 51.448098 77.24444 51.53125 77.03125 51.53125 C 76.81497 51.53125 76.65484 51.448098 76.53125 51.28125 C 76.40766 51.111314 76.34375 50.887279 76.34375 50.59375 C 76.34375 50.300224 76.40766 50.041849 76.53125 49.875 C 76.65484 49.705065 76.81497 49.625002 77.03125 49.625 z M 53.8125 49.65625 C 53.93608 49.656252 54.04157 49.700918 54.125 49.78125 C 54.20842 49.861586 54.25 49.945091 54.25 50.0625 C 54.25 50.297324 54.17337 50.556051 54.03125 50.8125 C 53.89221 51.068951 53.73208 51.1875 53.53125 51.1875 C 53.40456 51.1875 53.2771 51.136302 53.1875 51.03125 C 53.0979 50.923109 53.0625 50.80765 53.0625 50.65625 C 53.0625 50.396712 53.12984 50.138337 53.28125 49.9375 C 53.43264 49.736668 53.61784 49.656252 53.8125 49.65625 z M 71.09375 50.34375 L 71.09375 50.65625 L 72.1875 50.65625 L 72.1875 50.34375 L 71.09375 50.34375 z "
       id="text2396" />
    <rect
       id="rect3401"
       height="16"
       width="28"
       y="20"
       x="8"
       style="opacity:0.63207547;fill:url(#linearGradient3869);fill-opacity:1" />
    <g
       id="g8920"
       transform="matrix(0.73325538,0,0,0.73221492,2.0158462,15.689012)"
       clip-path="url(#clipPath8998)">
      <path
         id="path8719"
         d="m 28.625,14.25 c -4.853271,0 -11.741152,5.774681 -11.741156,10.624768 1e-6,1.157973 -0.128625,2.318534 0.1875,3.34375 -0.324977,-0.242269 -0.903926,-0.0445 -0.84375,0.5625 0.759574,3.561546 1.418781,4.290881 2.09375,4.4375 0.570459,1.639209 1.338656,3.201861 2.09375,4.46875 0.430817,2.401857 0.665317,4.996325 -0.15625,6.28125 -1.311903,0.35685 -0.510425,0.449164 -0.5,0.6875 C 17.021365,45.750884 16.687993,45.029441 13.75,46.5 12.659457,47.04586 11.38651,48.682066 11.0625,49.5625 10.074308,52.247683 9,56.03125 9,56.03125 l 0.59375,0.6875 C 15.639954,60.160753 23.832596,60 29,60 c 5.167405,10e-7 13.360049,0.160752 19.40625,-3.28125 L 49,56.03125 c 0,-10e-7 -1.074309,-3.783566 -2.0625,-6.46875 -0.324011,-0.880435 -1.565706,-2.51664 -2.65625,-3.0625 -2.937993,-1.470559 -4.486575,-1.363621 -7.224057,-2.458488 0.01308,-0.298876 -0.287424,-0.700124 -0.78125,-0.78125 -0.839733,-1.464447 -0.469818,-4.429268 0.03125,-6.96875 0.714979,-1.297526 1.397076,-2.812735 1.875,-4.375 0.55328,-0.355403 -0.481681,-2.18497 0.140134,-5.100591 0.05683,-0.573279 -0.448951,-0.776761 -0.78125,-0.59375 C 37.719416,25.347032 37.5,24.007308 37.5,23.03125 c 10e-7,-3.961735 -2.642155,-7.311227 -6.25,-8.40625 -0.256148,-0.07967 -0.515674,-0.162469 -0.78125,-0.21875 -0.02003,-0.0041 -0.04243,0.004 -0.0625,0 -0.266062,-0.05445 -0.538298,-0.09518 -0.8125,-0.125 -0.02035,-0.0021 -0.04211,0.0019 -0.0625,0 C 29.235803,14.251235 28.92833,14.25 28.625,14.25 z"
         style="opacity:0.8;fill:#00316e;fill-opacity:1;fill-rule:evenodd;stroke:none;filter:url(#filter8878)"
         transform="matrix(-1.081507,0,0,1.0433444,58.917142,-2.2105699)"
         sodipodi:nodetypes="csccccccssccsccssccccccssssssc" />
      <g
         id="g6403"
         transform="matrix(0.3361031,0,0,0.3361031,8.7272044,16.371561)">
        <path
           d="m -98.9545,147.40533 1.14644,1.21967 c 15.64476,8.91215 36.43722,8.5 49.80806,8.5 13.37084,0 34.60524,0.41215 50.25,-8.5 l 1.5,-1.75 c -32.9308,-25.78368 -88.77254,-47.21838 -102.7045,0.53033 z"
           transform="matrix(1.0059645,0,0,1.0053055,103.05489,-34.059089)"
           sodipodi:nodetypes="ccsccc"
           style="fill:#c8cddc;fill-opacity:1;fill-rule:evenodd;stroke:none;filter:url(#filter3624)"
           id="path3259" />
        <path
           id="path3845"
           d="m 73.403249,48.295662 c 1.923342,-0.162934 3.799245,-1.52128 5.957331,-11.640304 0.208847,-2.106673 -2.601866,-2.306109 -2.756373,-0.444288 -2.089812,4.028202 -3.005488,8.056411 -3.200958,12.084592 z"
           style="fill:#ddc2a4;fill-opacity:1;fill-rule:evenodd;stroke:none"
           sodipodi:nodetypes="cccc" />
        <path
           d="m 35.980896,49.717379 c -1.923346,-0.162934 -3.799249,-1.521314 -5.957334,-11.640293 -0.208848,-2.106674 2.601865,-2.306137 2.756372,-0.444288 2.089812,4.028202 3.005492,8.056366 3.200962,12.084581 z"
           id="path3715"
           style="fill:#ddc2a4;fill-opacity:1;fill-rule:evenodd;stroke:none"
           sodipodi:nodetypes="cccc" />
        <path
           d="m 38.924665,51.517533 c 1.522237,7.240557 5.775484,23.520516 0.502983,27.394571 0.650325,7.036923 7.120818,9.695095 15.089463,11.246857 l 1.508948,0 C 63.994707,88.607199 70.465197,85.949027 71.115526,78.912104 65.843025,75.038049 70.096272,58.75809 71.618505,51.517533 L 55.271589,58.963065 38.924665,51.517533 z"
           id="path3629"
           style="fill:#cbb7a2;fill-opacity:1;fill-rule:evenodd;stroke:none"
           sodipodi:nodetypes="cccccccc" />
        <path
           id="path3634"
           d="m 38.924665,51.517533 c 1.522237,7.240557 5.775484,23.520516 0.502983,27.394571 0.650325,7.036923 7.120818,9.695095 15.089463,11.246857 l 1.508948,0 C 63.994707,88.607199 70.465197,85.949027 71.115526,78.912104 65.843025,75.038049 70.096272,58.75809 71.618505,51.517533 L 55.271589,58.963065 38.924665,51.517533 z"
           style="fill:url(#radialGradient8952);fill-opacity:1;fill-rule:evenodd;stroke:none"
           sodipodi:nodetypes="cccccccc" />
        <path
           d="m 71.618505,51.517533 c -1.522233,7.240557 -5.77548,23.520516 -0.502979,27.394571 -0.650329,7.036923 -7.120819,9.695095 -15.089467,11.246857 l -1.508948,0 C 46.548466,88.607199 40.077973,85.949027 39.427648,78.912104 44.700149,75.038049 40.446902,58.75809 38.924665,51.517533 l 16.346924,7.445532 16.346916,-7.445532 z"
           id="path3672"
           style="opacity:0.74906365;fill:url(#radialGradient8954);fill-opacity:1;fill-rule:evenodd;stroke:none"
           sodipodi:nodetypes="cccccccc" />
        <path
           id="path3676"
           transform="matrix(1.0059645,0,0,1.0053055,-271.46562,-360.28069)"
           sodipodi:nodetypes="csssssssscc"
           clip-path="url(#clipPath3705)"
           d="m 324.17882,363.78125 c -7.77656,0.205 -13.87771,5.86053 -17.00625,12.8125 -3.18672,7.08121 -2.72281,15.53626 -0.8125,25.3125 1.91032,9.77623 5.28827,19.94656 8.475,23.625 3.0204,3.48645 6.88924,2.85632 9.34375,2.78125 0.1258,0 0.30234,-0.004 0.4375,0 2.45451,0.0751 6.32335,0.7052 9.34375,-2.78125 3.18673,-3.67844 7.56468,-13.84877 9.475,-23.625 1.91033,-9.77624 2.37422,-18.23129 -0.8125,-25.3125 -3.12855,-6.95197 -10.22969,-12.6075 -18.00625,-12.8125 l -0.4375,0 z"
           style="fill:#382509;fill-opacity:1;fill-rule:evenodd;stroke:none;filter:url(#filter3694)" />
        <path
           d="M 54.665563,5.3991564 C 46.842622,5.6052254 37.787786,11.290762 34.640587,18.279618 31.43486,25.39839 31.901537,33.898301 33.823241,43.72642 c 1.921714,9.828099 8.237108,20.052352 11.442841,23.75033 3.038417,3.504942 6.93033,2.871473 9.399481,2.795993 0.126549,0 0.304142,-0.0041 0.44011,0 2.469151,0.07548 6.361064,0.708949 9.399481,-2.795993 C 67.710887,63.778772 74.026281,53.554519 75.947995,43.72642 77.869723,33.898301 78.336376,25.39839 75.130649,18.279618 71.98344,11.290762 62.928614,5.6052254 55.105673,5.3991564 l -0.44011,0 z"
           id="path2169"
           style="fill:url(#radialGradient8956);fill-opacity:1;fill-rule:evenodd;stroke:none"
           sodipodi:nodetypes="csssssssscc" />
        <path
           id="path3157"
           transform="matrix(1.0059645,0,0,1.0053055,-360.33441,-359.22512)"
           mask="url(#mask3287)"
           sodipodi:nodetypes="csssscc"
           d="m 391.84841,400.84559 c 3.67809,10.12978 8.18827,19.94656 11.375,23.625 3.0204,3.48645 6.88924,2.85632 9.34375,2.78125 0.1258,0 0.30234,-0.004 0.4375,0 2.45451,0.0751 6.32335,0.7052 9.34375,-2.78125 3.18673,-3.67844 8.05047,-13.84877 11.375,-23.625 l -41.875,0 z"
           style="fill:url(#linearGradient10602);fill-opacity:1;fill-rule:evenodd;stroke:none" />
        <path
           id="path3161"
           transform="matrix(1.0059645,0,0,1.0053055,103.05489,-34.059089)"
           style="fill:url(#linearGradient8960);fill-opacity:1;fill-rule:evenodd;stroke:none;filter:url(#filter3325)"
           sodipodi:nodetypes="ccssscssssc"
           d="m -34.57938,94.15885 c -2.03036,3.63213 -3.0434,3.30165 -5.10812,5.8099 -2.86612,3.30838 -6.79588,2.25873 -9.125,2.1875 -0.12825,-0.004 -0.28689,-1e-5 -0.40625,0 -2.32915,0.0712 -6.30889,0.68335 -9.175,-2.625 -0.32265,-0.37242 -0.71291,-0.83899 -1.09375,-1.34375 0.74015,1.06708 1.48636,2.02247 2.0625,2.6875 2.86612,3.30835 6.81462,2.69624 9.14375,2.625 0.11936,1e-5 0.30924,-0.004 0.4375,0 2.32911,0.0713 5.97763,0.68336 8.84375,-2.625 1.4015,-1.61776 2.41748,-3.10243 4.42062,-6.71615 z" />
        <path
           d="m 347.29991,395.43789 c -0.0925,-0.73861 -1.15458,-0.0553 -1.23744,0.88388 -0.0829,0.93913 0.75464,3.21422 0.90599,2.87262 1.21215,-2.73577 0.46272,-2.70792 0.33145,-3.7565 z"
           transform="matrix(-1.0059645,0,0,1.0053055,424.44171,-361.70241)"
           sodipodi:nodetypes="csss"
           style="fill:url(#radialGradient8962);fill-opacity:1;fill-rule:evenodd;stroke:none;filter:url(#filter3833)"
           id="path3849" />
        <path
           id="path3779"
           transform="matrix(1.0059645,0,0,1.0053055,103.05489,-34.059089)"
           style="fill:url(#radialGradient8964);fill-opacity:1;fill-rule:evenodd;stroke:none;filter:url(#filter3833)"
           sodipodi:nodetypes="csss"
           d="m -68.3336,70.93789 c -0.09247,-0.73861 -1.15458,-0.05525 -1.23744,0.88388 -0.08286,0.93913 0.75464,3.21422 0.90599,2.87262 1.21215,-2.73577 0.46272,-2.70792 0.33145,-3.7565 z" />
        <path
           id="path3380"
           transform="matrix(1.0059645,0,0,1.0053055,-271.84166,-360.28069)"
           sodipodi:nodetypes="cscccssssccsc"
           clip-path="url(#clipPath3429)"
           d="m 324.5,363.375 c -12.558,0 -22.74999,10.19201 -22.75,22.75 0,3.49706 -0.34202,6.96567 1.0697,9.92678 L 304,396.91529 c 2.57247,-4.54407 0.92256,-8.09951 2,-12.04029 1,-2.5 2.58874,-4.663 5,-5.5 4.29826,-1.49201 10.81729,4.17868 13.5,4.25 2.90006,0.0771 9.05852,-5.34646 13.46875,-4.05 2.43629,0.71618 4.44027,3.0071 5,5.5 1.04798,4.66743 1.59553,6.25655 2.0026,11.27963 l 1.18306,-0.60463 c 1.37425,-2.92891 1.09559,-6.17758 1.09559,-9.625 0,-12.558 -10.19199,-22.74999 -22.75,-22.75 z"
           style="fill:url(#linearGradient10604);fill-opacity:1;stroke:none;filter:url(#filter3420)" />
        <path
           d="m 54.768603,5.0221546 c -12.632899,0 -22.885676,10.2460854 -22.885687,22.8707024 0,3.5156 -0.344062,7.002607 1.076081,9.979453 l 1.187338,0.868075 c 2.587813,-4.568186 0.928062,-8.645127 2.01193,-12.60682 1.005965,-2.513269 2.604179,-4.687741 5.029819,-5.529181 4.323899,-1.499916 10.88181,4.200858 13.580519,4.272562 2.917358,0.0775 9.112547,-2.135552 13.549081,-0.83223 2.450822,0.719992 4.466756,3.02306 5.029822,5.52918 1.054231,4.692193 1.605048,3.55312 2.014547,8.602853 l 1.190116,-0.607845 c 1.382446,-2.944439 1.102123,-6.210335 1.102123,-9.676047 0,-12.624617 -10.252777,-22.8707024 -22.885689,-22.8707024 z"
           id="path3347"
           style="fill:#b09278;fill-opacity:1;stroke:none"
           sodipodi:nodetypes="cscccssssccsc" />
        <path
           id="path3358"
           d="M 54.768603,5.0221546 C 46.69594,9.4065202 45.000549,12.012847 41.188084,20.604384 c 4.323899,-1.499916 10.88181,4.200858 13.580519,4.272562 2.917358,0.0775 9.704242,-2.511838 14.140776,-1.208517 2.450822,0.719993 4.466756,3.023061 5.029822,5.529181 1.05423,4.692193 1.013353,3.929406 1.422852,8.979139 l 1.190116,-0.607845 c 1.382446,-2.944439 1.102123,-6.210335 1.102123,-9.676047 0,-12.624617 -10.252777,-22.8707024 -22.885689,-22.8707024 z"
           style="fill:url(#radialGradient8968);fill-opacity:1;stroke:none"
           sodipodi:nodetypes="ccsssccsc" />
        <path
           id="path3441"
           transform="matrix(1.0059645,0,0,1.0053055,-272.17782,-360.28069)"
           mask="none"
           sodipodi:nodetypes="cscccsssccssc"
           clip-path="none"
           d="m 312.54197,377.13598 c -0.59485,-0.0263 -1.18147,0.0448 -1.71875,0.21875 -2.41126,0.78087 -4.44194,3.60538 -5.44194,6.08211 -0.92612,4.1784 0.39346,5.94573 -0.49464,11.15501 0.84705,-3.03043 0.69815,-9.51676 0.93658,-10.42462 1,-2.50001 2.58874,-4.663 5,-5.5 4.29826,-1.49202 10.81729,4.17868 13.5,4.25 2.90006,0.0771 9.05852,-2.12428 13.46875,-0.82782 2.43629,0.71617 4.44027,3.0071 5,5.5 l 0,-0.5625 c -0.55973,-2.50593 -2.56371,-4.8521 -5,-5.625 -4.41023,-1.39914 -10.12675,-0.66589 -13.02681,-0.81051 -2.34737,-0.11705 -8.05923,-3.27163 -12.22319,-3.45542 z"
           style="fill:url(#linearGradient8970);fill-opacity:1;stroke:none;filter:url(#filter3479)" />
        <path
           id="path3497"
           transform="matrix(1.0059645,0,0,1.0053055,103.05489,-34.059089)"
           style="opacity:0.88014981;fill:url(#linearGradient8972);fill-opacity:1;fill-rule:evenodd;stroke:none;filter:url(#filter3625)"
           sodipodi:nodetypes="csscccc"
           d="m -39.6875,56.221855 c 5.490352,-0.197478 -5.37217,-1.720195 -9.01956,-2.301355 -5.891562,-0.938737 -13.74889,-4.05702 -14.84149,-6.96579 -0.71516,-1.90391 4.892,-4.76519 4.54855,-3.84253 -0.65577,1.86233 -1.47583,3.56833 3.125,7.625 2.30198,1.77729 4.87994,3.83927 8.375,4.125 2.5,0.26777 5.3125,1.832065 7.8125,1.359675 z" />
        <path
           id="path3535"
           transform="matrix(1.0059645,0,0,1.0053055,102.2077,-34.059089)"
           style="fill:url(#linearGradient8974);fill-opacity:1;fill-rule:evenodd;stroke:none;filter:url(#filter3569)"
           sodipodi:nodetypes="cccccc"
           d="m -29.75,50.61218 2.25,4.5 c 1.52892,6.14118 0.92245,5.35732 0.73483,8.33318 C -28.54202,59.02869 -27.22154,56.27885 -33,53.11218 l -6.25,-4 9.5,1.5 z" />
        <path
           id="path3717"
           transform="matrix(1.0059645,0,0,1.0053055,103.05489,-34.059089)"
           style="opacity:0.33333333;fill:url(#linearGradient8976);fill-opacity:1;fill-rule:evenodd;stroke:none;filter:url(#filter3775)"
           sodipodi:nodetypes="ccsccc"
           d="m -68.53033,81.05152 1.375,-2.5 c 0,0 -1.25,-3.125 -1.25,-4 0,-0.875 -0.88886,-3.4545 -0.88886,-3.4545 l -0.72791,0.47032 1.49177,9.48418 z" />
        <path
           d="m 55.570237,85.133393 c -10.3039,0.287646 -13.447219,-3.97465 -14.33499,-7.733178 -1.285414,0.211168 -2.04596,1.232637 -2.01193,2.010599 -7.125576,2.849902 -15.741169,5.722579 -23.388669,9.550396 -2.83865,1.420857 -6.072616,5.75072 -6.916005,8.042463 -2.572232,6.989447 -5.407061,16.838837 -5.407061,16.838837 l 1.508948,1.75932 c 15.73807,8.95942 37.099121,8.5451 50.549707,8.5451 13.450588,0 34.811639,0.41432 50.549703,-8.5451 l 1.50895,-1.75932 c 0,0 -2.83483,-9.84939 -5.40706,-16.838837 -0.84339,-2.291743 -4.07735,-6.621606 -6.916,-8.042463 -7.647505,-3.827817 -16.263098,-6.700494 -23.388674,-9.550396 0.03403,-0.777962 -0.726516,-1.799431 -2.01193,-2.010599 -2.428022,3.762485 -4.031087,7.445532 -14.334989,7.733178 z"
           id="path3875"
           style="fill:url(#linearGradient8978);fill-opacity:1;fill-rule:evenodd;stroke:none"
           sodipodi:nodetypes="cccssccsccssccz" />
        <path
           id="path3451"
           transform="matrix(1.0059645,0,0,1.0053055,103.05489,-34.059089)"
           style="opacity:0.32209742;fill:url(#linearGradient8980);fill-opacity:1;fill-rule:evenodd;stroke:none;filter:url(#filter3493)"
           sodipodi:nodetypes="ccccccscc"
           d="m -78.34358,152.98437 c -3.91725,-13.01958 -5.49592,-19.83203 3.53553,-26.87006 l 19.09189,-5.65686 -8.48528,-6.36395 -19.79899,7.77817 -10.6066,12.72792 c 0,0 -4.24265,9.8995 -1.41422,11.31371 2.82843,1.41422 9.8995,5.65686 9.8995,5.65686 l 7.77817,1.41421 z" />
        <path
           id="path3885"
           transform="matrix(1.0059645,0,0,1.0053055,-357.03287,-360.28069)"
           sodipodi:nodetypes="ccssccsccssccscsccssccsccssccc"
           clip-path="url(#clipPath4063)"
           d="m 395.90625,435.375 c -1.27778,0.21006 -2.03383,1.22613 -2,2 -7.08332,2.83488 -15.64784,5.69235 -23.25,9.5 -2.82181,1.41335 -6.03661,5.72037 -6.875,8 -2.55697,6.95256 -5.375,16.75 -5.375,16.75 l 1.5,1.75 c 15.64477,8.91215 36.87916,8.5 50.25,8.5 13.37085,0 34.60524,0.41215 50.25,-8.5 l 1.5,-1.75 c 10e-6,0 -2.81802,-9.79744 -5.375,-16.75 -0.83838,-2.27963 -4.05318,-6.58665 -6.875,-8 -7.60215,-3.80765 -16.16667,-6.66512 -23.25,-9.5 0.0338,-0.77387 -0.72221,-1.78994 -2,-2 -2.41362,3.74264 -4.00719,7.40137 -14.25,7.6875 -0.64018,0.0179 -1.25799,0.0163 -1.84375,0 0.80243,0.0468 1.64422,0.0883 2.5625,0.0625 9.79135,-0.27525 11.31776,-3.80588 13.625,-7.40625 1.22147,0.20208 1.93858,1.19304 1.90625,1.9375 6.77112,2.72711 14.95165,5.46211 22.21875,9.125 2.69745,1.35963 5.79232,5.52579 6.59375,7.71875 2.44429,6.68826 5.12499,16.09377 5.125,16.09375 l -1.4375,1.6875 c -14.95522,8.57336 -35.24974,8.18749 -48.03125,8.1875 -12.78153,0 -34.57865,1.62329 -49.53385,-6.95006 l -1.52589,-3.01333 c 0,0 3.74138,-14.97395 6.89277,-17.2428 1.89483,-1.36419 3.71952,-5.12167 6.41697,-6.48131 7.2671,-3.6629 15.44762,-6.39789 22.21875,-9.125 -0.0206,-0.47514 0.25339,-1.06595 0.78125,-1.46875 -0.0867,-0.26793 -0.15627,-0.54781 -0.21875,-0.8125 z"
           style="fill:url(#linearGradient10606);fill-opacity:1;fill-rule:evenodd;stroke:none;filter:url(#filter4059)" />
        <path
           id="path3880"
           transform="matrix(1.0059645,0,0,1.0053055,103.05489,-34.059089)"
           style="fill:url(#linearGradient8984);fill-opacity:1;fill-rule:evenodd;stroke:none;filter:url(#filter3393)"
           sodipodi:nodetypes="cccccscccscc"
           d="m -84.125,124.875 -1,1.75 c 4.03714,8.1176 5.20663,18.14697 7.4375,27.46875 -6.98354,-1.21816 -13.72843,-3.25291 -19.8125,-6.71875 l 0,0.4375 c 15.64477,8.91216 36.87916,8.5 50.25,8.5 13.37085,1e-5 34.60524,0.41215 50.25,-8.5 l 1.5,-1.75 -1.833441,1.48405 c -15.64475,8.91216 -36.545719,8.46226 -49.916559,8.46226 -7.45098,0 -17.33699,-0.57992 -27.34375,-2.00881 -3.17708,-14.39161 -6.35417,-22.16587 -9.53125,-29.125 z" />
        <path
           id="path3261"
           transform="matrix(1.0059645,0,0,1.0053055,-425.2807,-360.27676)"
           sodipodi:nodetypes="cccscccsccccc"
           clip-path="url(#clipPath3289)"
           d="m 463.75,435.375 c -1.27779,0.21006 -2.03383,1.22613 -2,2 -0.0793,0.0317 -0.17038,0.062 -0.25,0.0937 1.25202,4.0018 5.15727,8.27208 16.75,7.96875 11.50018,-0.3009 13.82799,-3.95877 16.46875,-7.875 -0.15115,-0.06 -0.3189,-0.12753 -0.46875,-0.1875 0.0338,-0.77387 -0.72221,-1.78994 -2,-2 -2.41363,3.74264 -4.00719,7.40137 -14.25,7.6875 -10.24281,0.28614 -13.36749,-3.94879 -14.25,-7.6875 z m 33.71875,3.25 c 0.0532,0.16802 0.10109,0.31159 0.0937,0.46875 4.20807,1.57746 8.83741,3.15593 13.5625,4.875 -4.63354,-1.95913 -9.30506,-3.67529 -13.65625,-5.34375 z"
           style="fill:#f9ccca;fill-opacity:1;fill-rule:evenodd;stroke:#9c0f0f;stroke-width:0.23592407;stroke-linecap:butt;stroke-linejoin:miter;stroke-miterlimit:4;stroke-opacity:1;stroke-dasharray:none;filter:url(#filter3283)" />
        <path
           id="path3293"
           transform="matrix(1.0059645,0,0,1.0053055,103.05489,-34.059089)"
           style="fill:url(#linearGradient8986);fill-opacity:1;fill-rule:evenodd;stroke:none;filter:url(#filter3339)"
           sodipodi:nodetypes="cccc"
           d="m -59.25169,118.68969 -17.32412,0.70711 15.20279,-2.12132 2.12133,1.41421 z" />
        <path
           d="m 371.74831,469.68969 -17.32412,0.70711 15.20279,-2.12132 2.12133,1.41421 z"
           transform="matrix(0.3417414,0.9455184,0.9461381,-0.3415175,-540.77608,-70.969975)"
           id="path3357"
           style="fill:url(#linearGradient8988);fill-opacity:1;fill-rule:evenodd;stroke:none;filter:url(#filter3339)"
           sodipodi:nodetypes="cccc" />
        <path
           d="m 294.15642,477.48437 c -3.91725,-13.01958 -5.49592,-19.83203 3.53553,-26.87006 l 19.09189,-5.65686 -8.48528,-6.36395 -19.79899,7.77817 -10.6066,12.72792 c 0,0 -4.24265,9.8995 -1.41422,11.31371 2.82843,1.41422 9.8995,5.65686 9.8995,5.65686 l 7.77817,1.41421 z"
           transform="matrix(-1.0059645,0,0,1.0053055,383.00502,-360.28069)"
           sodipodi:nodetypes="ccccccscc"
           style="opacity:0.5;fill:url(#linearGradient8990);fill-opacity:1;fill-rule:evenodd;stroke:none;filter:url(#filter3493)"
           id="path3498" />
        <path
           id="path3524"
           transform="matrix(1.0059645,0,0,1.0053055,103.05489,-34.059089)"
           style="opacity:0.06367044;fill:url(#linearGradient8992);fill-opacity:1;fill-rule:evenodd;stroke:url(#linearGradient8994);stroke-width:0.47184813px;stroke-linecap:butt;stroke-linejoin:miter;stroke-opacity:1;filter:url(#filter3574)"
           d="m -59.2517,120.45746 -7.07106,17.67767 7.07106,-17.67767 z" />
      </g>
    </g>
  </g>
</svg>
