<?xml version="1.0" encoding="UTF-8" standalone="no"?>
<!-- Created with Inkscape (http://www.inkscape.org/) -->

<svg
   xmlns:dc="http://purl.org/dc/elements/1.1/"
   xmlns:cc="http://creativecommons.org/ns#"
   xmlns:rdf="http://www.w3.org/1999/02/22-rdf-syntax-ns#"
   xmlns:svg="http://www.w3.org/2000/svg"
   xmlns="http://www.w3.org/2000/svg"
   xmlns:xlink="http://www.w3.org/1999/xlink"
   xmlns:sodipodi="http://sodipodi.sourceforge.net/DTD/sodipodi-0.dtd"
   xmlns:inkscape="http://www.inkscape.org/namespaces/inkscape"
   width="88"
   height="88"
   id="svg2"
   sodipodi:version="0.32"
   inkscape:version="0.46+devel"
   version="1.0"
   sodipodi:docname="view-calendar-anniversary.svgz"
   inkscape:output_extension="org.inkscape.output.svgz.inkscape"
   inkscape:export-filename="/home/pinheiro/pics/oxygen-icons/scalable/actions/small/22x22/view-calendar-anniversary.png"
   inkscape:export-xdpi="720"
   inkscape:export-ydpi="720">
  <defs
     id="defs4">
    <linearGradient
       inkscape:collect="always"
       id="linearGradient10897">
      <stop
         style="stop-color:#000000;stop-opacity:1;"
         offset="0"
         id="stop10899" />
      <stop
         style="stop-color:#000000;stop-opacity:0;"
         offset="1"
         id="stop10901" />
    </linearGradient>
    <linearGradient
       id="linearGradient10879">
      <stop
         style="stop-color:#000000;stop-opacity:1;"
         offset="0"
         id="stop10881" />
      <stop
         style="stop-color:#660000;stop-opacity:1;"
         offset="1"
         id="stop10883" />
    </linearGradient>
    <linearGradient
       inkscape:collect="always"
       id="linearGradient10867">
      <stop
         style="stop-color:#ffffff;stop-opacity:1"
         offset="0"
         id="stop10869" />
      <stop
         style="stop-color:#555555;stop-opacity:1"
         offset="1"
         id="stop10871" />
    </linearGradient>
    <linearGradient
       id="linearGradient10964">
      <stop
         style="stop-color:#ffffff;stop-opacity:1;"
         offset="0"
         id="stop10966" />
      <stop
         style="stop-color:#eeeeee;stop-opacity:1"
         offset="1"
         id="stop10968" />
    </linearGradient>
    <radialGradient
       inkscape:collect="always"
       xlink:href="#linearGradient3831"
       id="radialGradient10781"
       gradientUnits="userSpaceOnUse"
       gradientTransform="matrix(0.7446852,-3.0801744e-5,2.5570673e-5,0.6262458,10.237144,10.621027)"
       cx="48"
       cy="-0.2148"
       r="55.147999"
       fx="48"
       fy="-0.2148" />
    <radialGradient
       inkscape:collect="always"
       xlink:href="#linearGradient3831"
       id="radialGradient10784"
       gradientUnits="userSpaceOnUse"
       gradientTransform="matrix(0.7067379,0,0,0.6142655,12.017628,8.0527906)"
       cx="48.125"
       cy="8.625"
       r="49.875" />
    <clipPath
       clipPathUnits="userSpaceOnUse"
       id="clipPath10906">
      <rect
         y="40.838711"
         x="-20"
         height="123.16129"
         width="200"
         id="rect10908"
         style="fill:#ffffff;fill-opacity:1;stroke:none" />
    </clipPath>
    <clipPath
       clipPathUnits="userSpaceOnUse"
       id="clipPath10917">
      <rect
         y="-13.354839"
         x="-80"
         height="54.19355"
         width="296"
         id="rect10919"
         style="fill:#ffffff;fill-opacity:1;stroke:none" />
    </clipPath>
    <linearGradient
       inkscape:collect="always"
       xlink:href="#linearGradient10964"
       id="linearGradient11297"
       gradientUnits="userSpaceOnUse"
       x1="27.936609"
       y1="31.109358"
       x2="32.048244"
       y2="177.5768"
       gradientTransform="matrix(0.5996541,0,0,0.6226813,5.4646856,2.9945576)" />
    <filter
       inkscape:collect="always"
       id="filter9917">
      <feGaussianBlur
         inkscape:collect="always"
         stdDeviation="2.0268379"
         id="feGaussianBlur9919" />
    </filter>
    <filter
       inkscape:collect="always"
       x="-0.030286878"
       width="1.0605738"
       y="-0.11067503"
       height="1.2213501"
       id="filter9927">
      <feGaussianBlur
         inkscape:collect="always"
         stdDeviation="1.5143439"
         id="feGaussianBlur9929" />
    </filter>
    <filter
       inkscape:collect="always"
       x="-0.030286878"
       width="1.0605738"
       y="-0.11067503"
       height="1.2213501"
       id="filter9931">
      <feGaussianBlur
         inkscape:collect="always"
         stdDeviation="1.5143439"
         id="feGaussianBlur9933" />
    </filter>
    <radialGradient
       inkscape:collect="always"
       xlink:href="#linearGradient10879"
       id="radialGradient9294"
       gradientUnits="userSpaceOnUse"
       gradientTransform="matrix(1.1872212,0,0,0.36001,-2.4915178,4.9961346)"
       cx="24"
       cy="17.363621"
       fx="24"
       fy="17.363621"
       r="10.839936" />
    <linearGradient
       inkscape:collect="always"
       xlink:href="#linearGradient10897"
       id="linearGradient10303"
       gradientUnits="userSpaceOnUse"
       gradientTransform="matrix(0.753793,0,0,0.6015334,7.9201976,-11.688586)"
       x1="25.559429"
       y1="-0.20285282"
       x2="25.559429"
       y2="4.0027528" />
    <linearGradient
       inkscape:collect="always"
       xlink:href="#linearGradient10897"
       id="linearGradient10306"
       gradientUnits="userSpaceOnUse"
       gradientTransform="matrix(0.753793,0,0,1.0227605,8.0731072,0.2074698)"
       x1="25.559429"
       y1="-0.20285282"
       x2="25.559429"
       y2="4.0027528" />
    <linearGradient
       inkscape:collect="always"
       xlink:href="#linearGradient10867"
       id="linearGradient10309"
       gradientUnits="userSpaceOnUse"
       gradientTransform="matrix(0.753793,0,0,0.739087,8.0731072,2.284556e-7)"
       spreadMethod="reflect"
       x1="24"
       y1="8"
       x2="24"
       y2="-16.569082" />
    <radialGradient
       inkscape:collect="always"
       xlink:href="#linearGradient10879"
       id="radialGradient10354"
       gradientUnits="userSpaceOnUse"
       gradientTransform="matrix(1.1872212,0,0,0.36001,-2.4915178,4.9961346)"
       cx="24"
       cy="17.363621"
       fx="24"
       fy="17.363621"
       r="10.839936" />
    <linearGradient
       inkscape:collect="always"
       xlink:href="#linearGradient10867"
       id="linearGradient10356"
       gradientUnits="userSpaceOnUse"
       gradientTransform="matrix(0.753793,0,0,0.739087,8.0731072,2.284556e-7)"
       spreadMethod="reflect"
       x1="24"
       y1="8"
       x2="24"
       y2="-16.569082" />
    <linearGradient
       inkscape:collect="always"
       xlink:href="#linearGradient10897"
       id="linearGradient10358"
       gradientUnits="userSpaceOnUse"
       gradientTransform="matrix(0.753793,0,0,1.0227605,8.0731072,0.2074698)"
       x1="25.559429"
       y1="-0.20285282"
       x2="25.559429"
       y2="4.0027528" />
    <linearGradient
       inkscape:collect="always"
       xlink:href="#linearGradient10897"
       id="linearGradient10360"
       gradientUnits="userSpaceOnUse"
       gradientTransform="matrix(0.753793,0,0,0.6015334,7.9201976,-11.688586)"
       x1="25.559429"
       y1="-0.20285282"
       x2="25.559429"
       y2="4.0027528" />
    <radialGradient
       r="98"
       fy="56"
       fx="286"
       cy="56"
       cx="286"
       gradientTransform="matrix(0.37905287,0,0,0.38243728,-84.162012,62.896255)"
       gradientUnits="userSpaceOnUse"
       id="radialGradient4793"
       xlink:href="#linearGradient3810"
       inkscape:collect="always" />
    <radialGradient
       r="98"
       fy="56"
       fx="286"
       cy="56"
       cx="286"
       gradientTransform="matrix(0.37957839,0,0,0.39687266,-84.540642,63.957023)"
       gradientUnits="userSpaceOnUse"
       id="radialGradient4791"
       xlink:href="#linearGradient4619"
       inkscape:collect="always" />
    <radialGradient
       r="98"
       fy="49.707275"
       fx="294.16525"
       cy="49.707275"
       cx="294.16525"
       gradientTransform="matrix(0.35722283,0,0,0.36519916,-43.680292,64.03407)"
       gradientUnits="userSpaceOnUse"
       id="radialGradient4789"
       xlink:href="#linearGradient3810"
       inkscape:collect="always" />
    <radialGradient
       r="98"
       fy="56"
       fx="286"
       cy="56"
       cx="286"
       gradientTransform="matrix(1,0,0,1.0593113,0,-3.321426)"
       gradientUnits="userSpaceOnUse"
       id="radialGradient4787"
       xlink:href="#linearGradient4691"
       inkscape:collect="always" />
    <radialGradient
       r="98"
       fy="56"
       fx="286"
       cy="56"
       cx="286"
       gradientTransform="matrix(1,0,0,1.0455618,0,-2.5514609)"
       gradientUnits="userSpaceOnUse"
       id="radialGradient4785"
       xlink:href="#linearGradient4619"
       inkscape:collect="always" />
    <filter
       id="filter4767"
       inkscape:collect="always">
      <feGaussianBlur
         id="feGaussianBlur4769"
         stdDeviation="1.3118579"
         inkscape:collect="always" />
    </filter>
    <linearGradient
       id="linearGradient3810">
      <stop
         id="stop3812"
         offset="0"
         style="stop-color:#ebdd91;stop-opacity:1;" />
      <stop
         style="stop-color:#d9b75d;stop-opacity:1"
         offset="0.82156402"
         id="stop3814" />
      <stop
         id="stop3816"
         offset="0.87242079"
         style="stop-color:#e3bb59;stop-opacity:1" />
      <stop
         id="stop3818"
         offset="0.87755108"
         style="stop-color:#d8ae46;stop-opacity:1" />
      <stop
         style="stop-color:#fdf393;stop-opacity:1"
         offset="0.89598852"
         id="stop3820" />
      <stop
         id="stop3822"
         offset="0.91836739"
         style="stop-color:#fdfa9f;stop-opacity:1" />
      <stop
         style="stop-color:#b58019;stop-opacity:1"
         offset="0.98913205"
         id="stop3824" />
      <stop
         id="stop3826"
         offset="1"
         style="stop-color:#d2b04c;stop-opacity:1" />
    </linearGradient>
    <filter
       id="filter9927-9"
       inkscape:collect="always">
      <feGaussianBlur
         id="feGaussianBlur9929-3"
         stdDeviation="2.3599998"
         inkscape:collect="always" />
    </filter>
    <filter
       id="filter9923"
       inkscape:collect="always">
      <feGaussianBlur
         id="feGaussianBlur9925"
         stdDeviation="2.3599998"
         inkscape:collect="always" />
    </filter>
    <filter
       id="filter9917-5"
       inkscape:collect="always">
      <feGaussianBlur
         id="feGaussianBlur9919-6"
         stdDeviation="2.0316108"
         inkscape:collect="always" />
    </filter>
    <linearGradient
       id="linearGradient3831">
      <stop
         style="stop-color:#ff9696;stop-opacity:1;"
         offset="0"
         id="stop3833" />
      <stop
         style="stop-color:#8c0000;stop-opacity:1"
         offset="1"
         id="stop3835" />
    </linearGradient>
    <linearGradient
       id="linearGradient4619">
      <stop
         style="stop-color:#ebdd91;stop-opacity:1;"
         offset="0"
         id="stop4621" />
      <stop
         id="stop4623"
         offset="0.7582137"
         style="stop-color:#d9b75d;stop-opacity:1" />
      <stop
         style="stop-color:#e3bb59;stop-opacity:1"
         offset="0.82816505"
         id="stop4625" />
      <stop
         style="stop-color:#d8ae46;stop-opacity:1"
         offset="0.83974928"
         id="stop4627" />
      <stop
         id="stop4629"
         offset="0.85818672"
         style="stop-color:#fdf393;stop-opacity:1" />
      <stop
         style="stop-color:#fdfa9f;stop-opacity:1"
         offset="0.89439553"
         id="stop4631" />
      <stop
         id="stop4633"
         offset="0.98913205"
         style="stop-color:#b58019;stop-opacity:1" />
      <stop
         style="stop-color:#d2b04c;stop-opacity:1"
         offset="1"
         id="stop4635" />
    </linearGradient>
    <linearGradient
       id="linearGradient4691">
      <stop
         style="stop-color:#ebdd91;stop-opacity:1;"
         offset="0"
         id="stop4693" />
      <stop
         id="stop4695"
         offset="0.73038304"
         style="stop-color:#d9b75d;stop-opacity:1" />
      <stop
         style="stop-color:#e3bb59;stop-opacity:1"
         offset="0.82608974"
         id="stop4697" />
      <stop
         style="stop-color:#d8ae46;stop-opacity:1"
         offset="0.85052466"
         id="stop4699" />
      <stop
         id="stop4701"
         offset="0.89598852"
         style="stop-color:#fdf393;stop-opacity:1" />
      <stop
         style="stop-color:#fdfa9f;stop-opacity:1"
         offset="0.91836739"
         id="stop4703" />
      <stop
         id="stop4705"
         offset="0.98913205"
         style="stop-color:#b58019;stop-opacity:1" />
      <stop
         style="stop-color:#d2b04c;stop-opacity:1"
         offset="1"
         id="stop4707" />
    </linearGradient>
  </defs>
  <sodipodi:namedview
     id="base"
     pagecolor="#ffffff"
     bordercolor="#666666"
     borderopacity="1.0"
     gridtolerance="50"
     guidetolerance="10"
     objecttolerance="10"
     inkscape:pageopacity="0.0"
     inkscape:pageshadow="2"
     inkscape:zoom="5.6568542"
     inkscape:cx="33.634267"
     inkscape:cy="30.657313"
     inkscape:document-units="px"
     inkscape:current-layer="layer1"
     width="88px"
     height="88px"
     showgrid="true"
     showborder="true"
     inkscape:window-width="1236"
     inkscape:window-height="765"
     inkscape:window-x="8"
     inkscape:window-y="0"
     inkscape:grid-bbox="false"
     borderlayer="true">
    <inkscape:grid
       id="GridFromPre046Settings"
       type="xygrid"
       originx="0px"
       originy="0px"
       spacingx="4px"
       spacingy="4px"
       color="#0000ff"
       empcolor="#0000ff"
       opacity="0.2"
       empopacity="0.4"
       empspacing="2"
       visible="true"
       enabled="true" />
  </sodipodi:namedview>
  <metadata
     id="metadata7">
    <rdf:RDF>
      <cc:Work
         rdf:about="">
        <dc:format>image/svg+xml</dc:format>
        <dc:type
           rdf:resource="http://purl.org/dc/dcmitype/StillImage" />
        <dc:title></dc:title>
      </cc:Work>
    </rdf:RDF>
  </metadata>
  <g
     inkscape:label="Layer 1"
     inkscape:groupmode="layer"
     id="layer1">
    <g
       id="g9935"
       transform="matrix(0.9554904,0,0,1,3.6406005,0)">
      <rect
         transform="matrix(0.6266573,0,0,0.6474816,4.0881883,1.1901916)"
         style="fill:#003d00;fill-opacity:1;stroke:none;filter:url(#filter9931)"
         id="rect10958"
         width="140.09183"
         height="116"
         x="-9.1593943"
         y="8"
         clip-path="url(#clipPath10917)" />
      <rect
         clip-path="url(#clipPath10917)"
         y="8"
         x="-9.1593943"
         height="116"
         width="140.24507"
         id="rect10904"
         style="fill:#3d0000;fill-opacity:1;stroke:none;filter:url(#filter9927)"
         transform="matrix(0.6266573,0,0,0.6474816,4.0881883,1.1901916)" />
    </g>
    <path
       transform="matrix(0.6297598,0,0,0.6531879,3.9788801,0.9571495)"
       style="opacity:0.5;fill:#000000;fill-opacity:1;stroke:none;stroke-width:4;stroke-miterlimit:4;stroke-opacity:1;filter:url(#filter9917)"
       clip-path="url(#clipPath10906)"
       d="m -1.8513167,8 130.6150367,0 0,120.61741 -130.6150367,-0.0246 0,-120.59286 0,5e-5 z"
       id="rect9637"
       sodipodi:nodetypes="cccccc" />
    <path
       style="fill:#ffffff;fill-opacity:1;stroke:none;stroke-width:4;stroke-miterlimit:4;stroke-opacity:1"
       d="m 4,7.9760079 80,0 L 84,84 4,84.207038 4,7.9760079 z"
       id="rect8666"
       sodipodi:nodetypes="ccccc" />
    <path
       style="fill:url(#linearGradient11297);fill-opacity:1;stroke:none;stroke-width:4;stroke-miterlimit:4;stroke-opacity:1"
       d="m 5,9.2391301 78,3e-6 L 83,83 5,82.94392 5,9.2391301 z"
       id="rect10972"
       sodipodi:nodetypes="ccccc" />
    <rect
       width="80"
       height="19.947208"
       id="rect3079"
       style="fill:url(#radialGradient10784);fill-opacity:1.0"
       x="4"
       y="8.0527906" />
    <rect
       x="8"
       y="10.599151"
       width="72"
       height="17.400848"
       id="rect3092"
       style="fill:url(#radialGradient10781);fill-opacity:1.0" />
    <g
       id="g10338"
       transform="translate(-8.1529083,0)">
      <rect
         ry="3.0427887"
         rx="3.3274949"
         style="fill:url(#radialGradient9294);fill-opacity:1;stroke:none"
         id="rect10875"
         width="16.426695"
         height="4.9811907"
         x="17.788445"
         y="7.6860313" />
      <rect
         y="3.2998106e-16"
         x="20.133795"
         height="11.825393"
         width="12.060689"
         id="rect10865"
         style="fill:url(#linearGradient10309);fill-opacity:1;stroke:none" />
      <rect
         y="5.3537183e-15"
         x="20.152908"
         height="4.298512"
         width="12.041574"
         id="rect10895"
         style="opacity:0.45197742;fill:url(#linearGradient10306);fill-opacity:1;stroke:none" />
      <rect
         style="opacity:0.6384181;fill:url(#linearGradient10303);fill-opacity:1;stroke:none"
         id="rect10913"
         width="12.041574"
         height="2.5281563"
         x="20"
         y="-11.810609"
         transform="scale(1,-1)" />
    </g>
    <g
       id="g10344"
       transform="translate(43.847092,0)">
      <rect
         y="7.6860313"
         x="17.788445"
         height="4.9811907"
         width="16.426695"
         id="rect10346"
         style="fill:url(#radialGradient10354);fill-opacity:1;stroke:none"
         rx="3.3274949"
         ry="3.0427887" />
      <rect
         style="fill:url(#linearGradient10356);fill-opacity:1;stroke:none"
         id="rect10348"
         width="12.060689"
         height="11.825393"
         x="20.133795"
         y="3.2998106e-16" />
      <rect
         style="opacity:0.45197742;fill:url(#linearGradient10358);fill-opacity:1;stroke:none"
         id="rect10350"
         width="12.041574"
         height="4.298512"
         x="20.152908"
         y="5.3537183e-15" />
      <rect
         transform="scale(1,-1)"
         y="-11.810609"
         x="20"
         height="2.5281563"
         width="12.041574"
         id="rect10352"
         style="opacity:0.6384181;fill:url(#linearGradient10360);fill-opacity:1;stroke:none" />
    </g>
    <path
       style="opacity:0.68599034;fill:#fcfcfc;fill-opacity:1;stroke:none"
       d="M 49.90808,8.551553 C 49.66455,10.3374 47.31254,14.734044 48,17.183851 c 0.23138,0.824544 1.78882,1.848447 1.78882,1.848447 0,0 1.76236,-0.970841 2.02733,-1.848447 C 52.57557,14.668617 50.8838,9.290946 49.90808,8.551553 z M 48,20 l 0,16 3.81615,0 0,-16 L 48,20 z"
       id="rect4816"
       sodipodi:nodetypes="cscscccccc" />
    <path
       sodipodi:nodetypes="cscscccccc"
       id="path3484"
       d="M 57.90808,12.551553 C 57.66455,14.3374 55.31254,18.734044 56,21.183851 c 0.23138,0.824544 1.78882,1.848447 1.78882,1.848447 0,0 1.76236,-0.970841 2.02733,-1.848447 0.75942,-2.515234 -0.93235,-7.892905 -1.90807,-8.632298 z M 56,24 l 0,16 3.81615,0 0,-16 L 56,24 z"
       style="opacity:0.68599034;fill:#fcfcfc;fill-opacity:1;stroke:none" />
    <g
       id="g4777"
       transform="matrix(0.57004287,0,0,0.57004287,20.696241,5.203724)">
      <path
         id="path4748"
         d="m 58.403778,48.776075 c -6.36538,0 -12.36161,1.53037 -17.6875,4.21875 -5.05808,-2.40596 -10.7187,-3.75 -16.6875,-3.75 -21.48324,0 -38.9375,17.454255 -38.9375,38.9375 0,21.483245 17.45426,38.937495 38.9375,38.937495 5.9688,0 11.62942,-1.34403 16.6875,-3.75 5.32589,2.68838 11.32212,4.21875 17.6875,4.21875 21.73792,0 39.40625,-17.66833 39.40625,-39.406245 0,-21.737915 -17.66833,-39.40625 -39.40625,-39.40625 z m -34.375,10 c 2.49497,0 4.90663,0.32302 7.21875,0.90625 -7.53037,7.180098 -12.25,17.291387 -12.25,28.5 0,11.208613 4.71963,21.319905 12.25,28.499995 -2.31196,0.58315 -4.72397,0.90625 -7.21875,0.90625 -16.25112,0 -29.40625,-13.15513 -29.40625,-29.406245 0,-16.25112 13.15513,-29.40625 29.40625,-29.40625 z m 34.375,0.5 c 15.99645,0 28.9375,12.909801 28.9375,28.90625 0,15.996445 -12.94105,28.906245 -28.9375,28.906245 -2.54463,0 -4.99433,-0.32313 -7.34375,-0.9375 7.31694,-7.0801 11.875,-16.995288 11.875,-27.968745 0,-10.973458 -4.55806,-20.888646 -11.875,-27.96875 2.34942,-0.61436 4.79912,-0.9375 7.34375,-0.9375 z m -16.78125,5.34375 c 7.16619,5.356985 11.78125,13.913398 11.78125,23.5625 0,9.649102 -4.61506,18.205515 -11.78125,23.562495 -7.34316,-5.2394 -12.125,-13.834581 -12.125,-23.562495 0,-9.727914 4.78184,-18.323093 12.125,-23.5625 z"
         style="opacity:0.58604653;fill:#0d0808;fill-opacity:1;stroke:none;filter:url(#filter4767)" />
      <path
         transform="matrix(0.37957839,0,0,0.37957839,-84.540642,64.925502)"
         d="m 286,-46.5625 c -56.59765,0 -102.5625,45.9648492 -102.5625,102.5625 0,56.59765 45.96485,102.5625 102.5625,102.5625 56.59765,0 102.5625,-45.96485 102.5625,-102.5625 0,-56.5976508 -45.96485,-102.5625 -102.5625,-102.5625 z m 0,25.125 c 42.81361,0 77.4375,34.623894 77.4375,77.4375 0,42.813605 -34.62389,77.4375 -77.4375,77.4375 -42.81361,0 -77.4375,-34.623895 -77.4375,-77.4375 0,-42.813606 34.62389,-77.4375 77.4375,-77.4375 z"
         id="path3806"
         style="fill:url(#radialGradient4785);fill-opacity:1;stroke:none"
         inkscape:original="M 286 -42 C 231.87609 -42 188 1.8760939 188 56 C 188 110.12391 231.87609 154 286 154 C 340.12391 154 384 110.12391 384 56 C 384 1.8760939 340.12391 -42 286 -42 z M 286 -26 C 331.28735 -26 368 10.712649 368 56 C 368 101.28735 331.28735 138 286 138 C 240.71265 138 204 101.28735 204 56 C 204 10.712649 240.71265 -26 286 -26 z "
         inkscape:radius="4.5772786"
         sodipodi:type="inkscape:offset" />
      <path
         sodipodi:type="inkscape:offset"
         inkscape:radius="5.818728"
         inkscape:original="M 286 -42 C 231.87609 -42 188 1.8760939 188 56 C 188 110.12391 231.87609 154 286 154 C 340.12391 154 384 110.12391 384 56 C 384 1.8760939 340.12391 -42 286 -42 z M 286 -26 C 331.28735 -26 368 10.712649 368 56 C 368 101.28735 331.28735 138 286 138 C 240.71265 138 204 101.28735 204 56 C 204 10.712649 240.71265 -26 286 -26 z "
         style="fill:url(#radialGradient4787);fill-opacity:1;stroke:none"
         id="path3853"
         d="m 286,-47.8125 c -57.26858,0 -103.8125,46.5439202 -103.8125,103.8125 0,57.26858 46.54392,103.8125 103.8125,103.8125 57.26858,0 103.8125,-46.54392 103.8125,-103.8125 0,-57.2685798 -46.54392,-103.8125 -103.8125,-103.8125 z m 0,27.625 c 42.14268,0 76.1875,34.044823 76.1875,76.1875 0,42.142676 -34.04482,76.1875 -76.1875,76.1875 -42.14268,0 -76.1875,-34.044824 -76.1875,-76.1875 0,-42.142677 34.04482,-76.1875 76.1875,-76.1875 z"
         transform="matrix(0.37957839,0,0,0.37957839,-50.145642,64.925502)" />
      <path
         sodipodi:nodetypes="cscssscsc"
         id="path4095"
         d="m 58.485028,49.035795 c -19.57546,0 -35.44985,15.874382 -35.44985,35.449848 0,5.5056 1.2425,10.72912 3.483,15.378326 -1.55391,-3.919525 -2.42039,-8.19069 -2.42039,-12.662768 0,-18.98868 15.39856,-34.387236 34.38724,-34.387236 18.98868,0 34.38724,15.398556 34.38724,34.387236 0,4.472078 -0.86648,8.743243 -2.4204,12.662768 2.24052,-4.649206 3.483,-9.872726 3.483,-15.378326 0,-19.575466 -15.87437,-35.449848 -35.44984,-35.449848 z"
         style="opacity:0.61395347;fill:url(#radialGradient4789);fill-opacity:1;stroke:none" />
      <path
         sodipodi:nodetypes="ccccc"
         id="path4711"
         d="m 41.622528,109.74482 c -3.05036,2.28026 -6.56874,3.97745 -10.375,4.9375 2.79748,2.66736 5.98482,4.9289 9.46875,6.6875 3.84812,-1.83042 7.31588,-4.28889 10.34375,-7.21875 -3.43823,-0.89908 -6.62649,-2.40057 -9.4375,-4.40625 z"
         style="fill:url(#radialGradient4791);fill-opacity:1;stroke:none" />
      <path
         id="path4064"
         d="m 20.591278,48.869825 c -0.5091,0.0517 -0.99746,0.14581 -1.5,0.21875 0.55984,-0.0856 1.11899,-0.161 1.6875,-0.21875 -0.0586,0.006 -0.12901,-0.006 -0.1875,0 z m -3.09375,0.46875 c -0.45152,0.08678 -0.89844,0.20885 -1.34375,0.3125 0.47642,-0.11709 0.95343,-0.21581 1.4375,-0.3125 -0.0305,0.006 -0.06335,-0.006 -0.09375,0 z m -1.34375,0.3125 c -15.76505,3.66942 -27.53125,17.775953 -27.53125,34.65625 0,19.669065 15.95594,35.624995 35.625,35.624995 19.66906,0 35.625,-15.95593 35.625,-35.624995 0,-8.341709 -2.88313,-15.994918 -7.6875,-22.0625 l -0.875,-0.03125 c 4.24816,5.651137 6.78125,12.666705 6.78125,20.28125 0,18.679365 -17.16439,35.968745 -35.84375,35.968745 -18.67936,0 -31.84375,-17.28938 -31.84375,-35.968745 0,-15.886696 10.98085,-29.21394 25.75,-32.84375 z m 14.75,-0.3125 c 2.77241,0.55375 5.41718,1.46882 7.90625,2.65625 0.04752,-0.02736 0.1086,-0.03534 0.15625,-0.0625 -2.54591,-1.16108 -5.23654,-2.05831 -8.0625,-2.59375 z m -6.65625,5.4375 c -6.04202,0 -11.63117,1.91075 -16.1875,5.1875 4.63333,-3.08679 10.20124,-4.90625 16.1875,-4.90625 2.93749,0 5.76248,0.47027 8.4375,1.28125 0.07347,-0.06343 0.14481,-0.1246 0.21875,-0.1875 -2.72208,-0.88728 -5.63524,-1.375 -8.65625,-1.375 z"
         style="opacity:0.67906973;fill:url(#radialGradient4793);fill-opacity:1;stroke:none" />
    </g>
  </g>
</svg>
