<?xml version="1.0" encoding="UTF-8" standalone="no"?>
<!-- Created with Inkscape (http://www.inkscape.org/) -->

<svg
   xmlns:dc="http://purl.org/dc/elements/1.1/"
   xmlns:cc="http://creativecommons.org/ns#"
   xmlns:rdf="http://www.w3.org/1999/02/22-rdf-syntax-ns#"
   xmlns:svg="http://www.w3.org/2000/svg"
   xmlns="http://www.w3.org/2000/svg"
   xmlns:xlink="http://www.w3.org/1999/xlink"
   xmlns:sodipodi="http://sodipodi.sourceforge.net/DTD/sodipodi-0.dtd"
   xmlns:inkscape="http://www.inkscape.org/namespaces/inkscape"
   width="125"
   height="40"
   id="svg10410"
   version="1.1"
   inkscape:version="0.48.1 r9760"
   sodipodi:docname="zoom.svgz">
  <defs
     id="defs10412">
    <linearGradient
       inkscape:collect="always"
       id="linearGradient11309">
      <stop
         style="stop-color:#ffffff;stop-opacity:1;"
         offset="0"
         id="stop11311" />
      <stop
         style="stop-color:#ffffff;stop-opacity:0;"
         offset="1"
         id="stop11313" />
    </linearGradient>
    <linearGradient
       inkscape:collect="always"
       id="linearGradient11284">
      <stop
         style="stop-color:#ffffff;stop-opacity:1;"
         offset="0"
         id="stop11286" />
      <stop
         style="stop-color:#ffffff;stop-opacity:0;"
         offset="1"
         id="stop11288" />
    </linearGradient>
    <linearGradient
       inkscape:collect="always"
       id="linearGradient11274">
      <stop
         style="stop-color:#ffffff;stop-opacity:1;"
         offset="0"
         id="stop11276" />
      <stop
         style="stop-color:#ffffff;stop-opacity:0;"
         offset="1"
         id="stop11278" />
    </linearGradient>
    <linearGradient
       id="linearGradient10997">
      <stop
         id="stop10999"
         offset="0"
         style="stop-color:#bcb6b3;stop-opacity:1" />
      <stop
         id="stop11001"
         offset="1"
         style="stop-color:#e1dddc;stop-opacity:1;" />
    </linearGradient>
    <linearGradient
       id="linearGradient10947">
      <stop
         style="stop-color:#c1bab7;stop-opacity:1;"
         offset="0"
         id="stop10949" />
      <stop
         style="stop-color:#e1dddc;stop-opacity:1;"
         offset="1"
         id="stop10951" />
    </linearGradient>
    <linearGradient
       inkscape:collect="always"
       xlink:href="#linearGradient11274"
       id="linearGradient11280"
       x1="687.39233"
       y1="685.36218"
       x2="687.39233"
       y2="696.36218"
       gradientUnits="userSpaceOnUse"
       gradientTransform="translate(97,-1)" />
    <linearGradient
       inkscape:collect="always"
       xlink:href="#linearGradient11284"
       id="linearGradient11290"
       x1="688.5"
       y1="697.36218"
       x2="688.5"
       y2="700.61218"
       gradientUnits="userSpaceOnUse"
       gradientTransform="translate(97,-1)" />
    <linearGradient
       inkscape:collect="always"
       xlink:href="#linearGradient11274"
       id="linearGradient11296"
       gradientUnits="userSpaceOnUse"
       x1="687.39233"
       y1="685.36218"
       x2="687.39233"
       y2="696.36218"
       gradientTransform="matrix(1.875,0,0,1.5,-478.875,-351.18109)" />
    <linearGradient
       inkscape:collect="always"
       xlink:href="#linearGradient11284"
       id="linearGradient11298"
       gradientUnits="userSpaceOnUse"
       x1="688.5"
       y1="697.36218"
       x2="688.5"
       y2="700.61218"
       gradientTransform="matrix(2,0,0,2,-564,-698.36218)" />
    <linearGradient
       inkscape:collect="always"
       xlink:href="#linearGradient11309"
       id="linearGradient11315"
       x1="691"
       y1="711.69067"
       x2="691"
       y2="691.96735"
       gradientUnits="userSpaceOnUse"
       gradientTransform="translate(97,-1)" />
    <linearGradient
       inkscape:collect="always"
       xlink:href="#linearGradient11309"
       id="linearGradient11319"
       gradientUnits="userSpaceOnUse"
       x1="691"
       y1="715.12817"
       x2="691"
       y2="684.71619"
       gradientTransform="translate(117,3)" />
  </defs>
  <sodipodi:namedview
     id="base"
     pagecolor="#ffffff"
     bordercolor="#666666"
     borderopacity="1.0"
     inkscape:pageopacity="0.0"
     inkscape:pageshadow="2"
     inkscape:zoom="11.313708"
     inkscape:cx="35.248521"
     inkscape:cy="16.029957"
     inkscape:document-units="px"
     inkscape:current-layer="layer1"
     showgrid="true"
     inkscape:snap-global="true"
     inkscape:snap-bbox="true"
     inkscape:snap-nodes="true"
     inkscape:window-width="1390"
     inkscape:window-height="916"
     inkscape:window-x="525"
     inkscape:window-y="325"
     inkscape:window-maximized="0"
     fit-margin-top="0"
     fit-margin-left="0"
     fit-margin-right="0"
     fit-margin-bottom="0">
    <inkscape:grid
       type="xygrid"
       id="grid10987"
       empspacing="5"
       visible="true"
       enabled="true"
       snapvisiblegridlinesonly="true" />
  </sodipodi:namedview>
  <metadata
     id="metadata10415">
    <rdf:RDF>
      <cc:Work
         rdf:about="">
        <dc:format>image/svg+xml</dc:format>
        <dc:type
           rdf:resource="http://purl.org/dc/dcmitype/StillImage" />
        <dc:title></dc:title>
      </cc:Work>
    </rdf:RDF>
  </metadata>
  <g
     inkscape:label="Layer 1"
     inkscape:groupmode="layer"
     id="layer1"
     transform="translate(-765,-677.36218)">
    <path
       sodipodi:nodetypes="cccccccccccccccccccccc"
       inkscape:connector-curvature="0"
       id="path11317"
       d="m 796.8125,685.375 c -0.45935,0.0854 -0.82297,0.5329 -0.8125,1 l 0,20 c -0.003,0.52439 0.47561,1.00293 1,1 l 10,0 1,0 c 0.25803,-0.01 0.51061,-0.1244 0.6875,-0.3125 l 6,-6 c 0.1881,-0.17689 0.30291,-0.42947 0.3125,-0.6875 l 0,-14 c 0.003,-0.52439 -0.47561,-1.00293 -1,-1 l -17,0 c -0.0312,-10e-4 -0.0625,-10e-4 -0.0937,0 -0.0312,-10e-4 -0.0625,-10e-4 -0.0937,0 z m 0.1875,1 17,0 0,14 -6,6 -1,0 -10,0 z"
       style="opacity:0.33333333;fill:url(#linearGradient11319);fill-opacity:1;stroke:none" />
    <path
       style="fill:#000000;fill-opacity:0.40972218;stroke:none"
       d="m 848.45625,690.04968 c -3.68373,0 -6.65625,2.97252 -6.65625,6.65625 0,3.68373 2.97252,6.65625 6.65625,6.65625 1.2146,0 2.36371,-0.30813 3.34375,-0.875 0.12911,-0.0709 0.30444,-0.044 0.40625,0.0625 l 3.125,3.96875 c 0.23271,0.29646 0.64914,0.3826 0.9375,0.15625 0.2903,-0.22788 0.35751,-0.6413 0.125,-0.9375 -0.0104,4.9e-4 -0.0209,4.9e-4 -0.0313,0 l -3.125,-4 c -0.0875,-0.11601 -0.0875,-0.29023 0,-0.40625 0.01,-0.0111 0.0202,-0.0216 0.0313,-0.0313 1.1396,-1.19706 1.84375,-2.81222 1.84375,-4.59375 0,-3.68373 -2.97252,-6.65625 -6.65625,-6.65625 z m -0.53125,1.3125 c 0.21196,-0.0216 0.38094,0 0.53125,0 2.9437,0 5.34375,2.40005 5.34375,5.34375 0,1.69177 -0.80626,3.18031 -2.03125,4.15625 -0.90874,0.724 -2.05656,1.1875 -3.3125,1.1875 -2.9437,0 -5.34375,-2.40005 -5.34375,-5.34375 0,-2.76069 2.1196,-5.07027 4.8125,-5.34375 z m -2.925,5 0,1 7,0 0,-1 z"
       id="path11120"
       inkscape:connector-curvature="0"
       sodipodi:nodetypes="csscccccccccscccssssscccccc" />
    <path
       style="fill:#000000;fill-opacity:0.40972218;stroke:none"
       d="m 872.46875,690.0625 c -3.68373,0 -6.65625,2.97252 -6.65625,6.65625 0,3.68373 2.97252,6.65625 6.65625,6.65625 1.2146,0 2.36371,-0.30813 3.34375,-0.875 0.12911,-0.0709 0.30444,-0.044 0.40625,0.0625 l 3.125,3.96875 c 0.23271,0.29646 0.64914,0.3826 0.9375,0.15625 0.2903,-0.22788 0.35751,-0.6413 0.125,-0.9375 -0.0104,4.9e-4 -0.0208,4.9e-4 -0.0313,0 l -3.125,-4 c -0.0875,-0.11601 -0.0875,-0.29023 0,-0.40625 0.01,-0.0111 0.0201,-0.0216 0.0313,-0.0313 1.1396,-1.19706 1.84375,-2.81222 1.84375,-4.59375 0,-3.68373 -2.97252,-6.65625 -6.65625,-6.65625 z m -0.53125,1.3125 c 0.21196,-0.0216 0.38094,0 0.53125,0 2.9437,0 5.34375,2.40005 5.34375,5.34375 0,1.69177 -0.80626,3.18031 -2.03125,4.15625 -0.90874,0.724 -2.05656,1.1875 -3.3125,1.1875 -2.9437,0 -5.34375,-2.40005 -5.34375,-5.34375 0,-2.76069 2.1196,-5.07027 4.8125,-5.34375 z m 0.0625,2 0,3 -3,0 0,1 3,0 0,3 1,0 0,-3 3,0 0,-1 -3,0 0,-3 -1,0 z"
       id="path11123"
       inkscape:connector-curvature="0" />
    <path
       style="opacity:0.33333333;fill:url(#linearGradient11315);fill-opacity:1;stroke:none"
       d="m 776.8125,689.375 c -0.45935,0.0854 -0.82297,0.5329 -0.8125,1 l 0,12 c -0.003,0.52439 0.47561,1.00293 1,1 l 5,0 1,0 c 0.25803,-0.01 0.51061,-0.1244 0.6875,-0.3125 l 4,-4 c 0.1881,-0.17689 0.30291,-0.42947 0.3125,-0.6875 l 0,-8 c 0.003,-0.52439 -0.47561,-1.00293 -1,-1 l -10,0 c -0.0312,-10e-4 -0.0625,-10e-4 -0.0937,0 -0.0312,-10e-4 -0.0625,-10e-4 -0.0937,0 z m 0.1875,1 10,0 0,8 -4,4 -1,0 -5,0 z"
       id="path11304"
       inkscape:connector-curvature="0"
       sodipodi:nodetypes="ccccccccccccccccccccc" />
    <path
       style="fill:#000000;fill-opacity:0.27702703;stroke:none"
       d="m 777,690.36218 0,12 5,0 1,0 4,-4 0,-8 z m 1,1 8,0 0,6 -3,0 -1,0 0,1 0,3 -4,0 z m 5,7 2.5625,0 -2.5625,2.5625 z"
       id="rect11253"
       inkscape:connector-curvature="0"
       sodipodi:nodetypes="cccccccccccccccccccc" />
    <path
       inkscape:connector-curvature="0"
       id="path11270"
       d="m 797,686.36218 0,20 10,0 1,0 6,-6 0,-14 z m 1,1 15,0 0,12 -5,0 -1,0 0,1 0,5 -9,0 z m 10,13 4.5625,0 -4.5625,4.5625 z"
       style="fill:#000000;fill-opacity:0.3243243;stroke:none"
       sodipodi:nodetypes="cccccccccccccccccccc" />
    <rect
       style="opacity:0.52459011;fill:url(#linearGradient11280);fill-opacity:1;stroke:none"
       id="rect11272"
       width="8"
       height="6"
       x="778"
       y="691.36218" />
    <path
       style="fill:url(#linearGradient11290);fill-opacity:1;stroke:none"
       d="m 783,698.36218 2.5,0 -2.5,2.5 z"
       id="path11282"
       inkscape:connector-curvature="0"
       sodipodi:nodetypes="cccc" />
    <rect
       y="687.36218"
       x="798"
       height="9"
       width="15"
       id="rect11292"
       style="opacity:0.52459011;fill:url(#linearGradient11296);fill-opacity:1;stroke:none" />
    <path
       sodipodi:nodetypes="cccc"
       inkscape:connector-curvature="0"
       id="path11294"
       d="m 808,700.36218 4.5,0 -4.5,4.6 z"
       style="fill:url(#linearGradient11298);fill-opacity:1;stroke:none" />
    <path
       style="fill:#ffffff;fill-opacity:0.33783785;stroke:none"
       d="m 847.9375,691.375 c -2.6929,0.27348 -4.8125,2.58306 -4.8125,5.34375 0,0.23831 7.8e-4,0.4573 0.0313,0.6875 0.15248,-2.62093 2.19044,-4.76814 4.78125,-5.03125 0.21196,-0.0216 0.38094,0 0.53125,0 2.74922,0 5.0239,2.07543 5.3125,4.75 0.0104,-0.13431 0.0313,-0.26911 0.0313,-0.40625 0,-2.9437 -2.40005,-5.34375 -5.34375,-5.34375 -0.15031,0 -0.31929,-0.0216 -0.53125,0 z m -6.09375,6 c -0.006,0.11389 -0.0313,0.2284 -0.0313,0.34375 0,3.68373 2.97252,6.65625 6.65625,6.65625 1.2146,0 2.36371,-0.30813 3.34375,-0.875 0.12911,-0.0709 0.30444,-0.044 0.40625,0.0625 l 3.125,3.96875 c 0.23271,0.29646 0.64914,0.3826 0.9375,0.15625 0.2903,-0.22788 0.35751,-0.6413 0.125,-0.9375 -0.0104,4.9e-4 -0.0208,4.9e-4 -0.0313,0 l -0.0625,-0.0937 c -0.011,0.01 -0.0195,0.022 -0.0313,0.0313 -0.28836,0.22635 -0.70479,0.14021 -0.9375,-0.15625 l -3.125,-3.96875 c -0.10181,-0.1065 -0.27714,-0.1334 -0.40625,-0.0625 -0.98004,0.56687 -2.12915,0.875 -3.34375,0.875 -3.4535,0 -6.28494,-2.63813 -6.625,-6 z m 3.15625,0 0,1 7,0 0,-1 -7,0 z m 10.09375,0 c -0.15036,1.519 -0.81535,2.89007 -1.8125,3.9375 -0.0111,0.01 -0.0213,0.0201 -0.0313,0.0313 -0.0875,0.11602 -0.0875,0.29024 0,0.40625 l 0.25,0.3125 c 1.00779,-1.1681 1.625,-2.68148 1.625,-4.34375 0,-0.11535 -0.0255,-0.22986 -0.0313,-0.34375 z"
       id="path3099"
       inkscape:connector-curvature="0" />
    <path
       style="fill:#ffffff;fill-opacity:0.33783785;stroke:none"
       d="m 871.9375,691.375 c -2.6929,0.27348 -4.8125,2.58306 -4.8125,5.34375 0,0.18398 0.013,0.35197 0.0313,0.53125 0.22831,-2.54459 2.24574,-4.6175 4.78125,-4.875 0.21196,-0.0216 0.38094,0 0.53125,0 2.75972,0 5.03804,2.12329 5.3125,4.8125 0.0139,-0.1549 0.0313,-0.31001 0.0313,-0.46875 0,-2.9437 -2.40005,-5.34375 -5.34375,-5.34375 -0.15031,0 -0.31929,-0.0216 -0.53125,0 z m -6.09375,5.84375 c -0.0121,0.16442 -0.0313,0.33243 -0.0313,0.5 0,3.68373 2.97252,6.65625 6.65625,6.65625 1.2146,0 2.36371,-0.30813 3.34375,-0.875 0.12911,-0.0709 0.30444,-0.044 0.40625,0.0625 l 3.125,3.96875 c 0.23271,0.29646 0.64914,0.3826 0.9375,0.15625 0.2903,-0.22788 0.35751,-0.6413 0.125,-0.9375 -0.0104,4.9e-4 -0.0208,4.9e-4 -0.0313,0 l -0.0625,-0.0937 c -0.0113,0.0101 -0.0191,0.0217 -0.0313,0.0313 -0.28836,0.22635 -0.70479,0.14021 -0.9375,-0.15625 l -3.125,-3.96875 c -0.10181,-0.1065 -0.27714,-0.1334 -0.40625,-0.0625 -0.98004,0.56687 -2.12915,0.875 -3.34375,0.875 -3.51616,0 -6.37133,-2.70632 -6.625,-6.15625 z M 869,697.375 l 0,1 3,0 0,-1 -3,0 z m 4,0 0,1 3,0 0,-1 -3,0 z m 6.09375,0 c -0.15036,1.519 -0.81535,2.89007 -1.8125,3.9375 -0.0112,0.01 -0.0213,0.0201 -0.0313,0.0313 -0.0875,0.11602 -0.0875,0.29024 0,0.40625 l 0.25,0.3125 c 1.00779,-1.1681 1.625,-2.68148 1.625,-4.34375 0,-0.11535 -0.0255,-0.22986 -0.0313,-0.34375 z m -7.09375,3 0,1 1,0 0,-1 -1,0 z"
       id="path3878"
       inkscape:connector-curvature="0" />
    <rect
       style="opacity:0.01;fill:#bbc7db;fill-opacity:0.00392157000000000;stroke:none"
       id="rect3016"
       width="22"
       height="22"
       x="766"
       y="685.36218"
       rx="0"
       ry="0"
       inkscape:export-filename="/home/pinheiro/pics/oxygen-icons/22x22/special/file-zoom-out.png"
       inkscape:export-xdpi="89.999992"
       inkscape:export-ydpi="89.999992" />
    <rect
       inkscape:export-ydpi="89.999992"
       inkscape:export-xdpi="89.999992"
       inkscape:export-filename="/home/pinheiro/pics/oxygen-icons/22x22/special/file-zoom-in.png"
       ry="0"
       rx="0"
       y="685.36218"
       x="797"
       height="22"
       width="22"
       id="rect3805"
       style="opacity:0.01000001;fill:#bbc7db;fill-opacity:0.00392157;stroke:none" />
  </g>
</svg>
