<?xml version="1.0" encoding="UTF-8" standalone="no"?>
<!-- Created with Inkscape (http://www.inkscape.org/) -->

<svg
   xmlns:dc="http://purl.org/dc/elements/1.1/"
   xmlns:cc="http://creativecommons.org/ns#"
   xmlns:rdf="http://www.w3.org/1999/02/22-rdf-syntax-ns#"
   xmlns:svg="http://www.w3.org/2000/svg"
   xmlns="http://www.w3.org/2000/svg"
   xmlns:xlink="http://www.w3.org/1999/xlink"
   xmlns:sodipodi="http://sodipodi.sourceforge.net/DTD/sodipodi-0.dtd"
   xmlns:inkscape="http://www.inkscape.org/namespaces/inkscape"
   width="128"
   height="128"
   id="svg37105"
   sodipodi:version="0.32"
   inkscape:version="0.48.0 r9654"
   version="1.0"
   sodipodi:docname="application-x-kplato.svgz"
   inkscape:output_extension="org.inkscape.output.svg.inkscape"
   inkscape:export-filename="/home/pinheiro/pics/oxygen-icons/scalable/mimetypes/small/64x64/application-x-kplato.png"
   inkscape:export-xdpi="360"
   inkscape:export-ydpi="360">
  <defs
     id="defs37107">
    <linearGradient
       id="XMLID_42_"
       gradientUnits="userSpaceOnUse"
       x1="28"
       y1="24.4585"
       x2="16"
       y2="24.4585">
      <stop
         offset="0"
         style="stop-color:#80b3ff;stop-opacity:1;"
         id="stop83" />
      <stop
         offset="1"
         style="stop-color:#BFD9FF"
         id="stop85" />
    </linearGradient>
    <linearGradient
       id="XMLID_41_"
       gradientUnits="userSpaceOnUse"
       x1="28"
       y1="68.208"
       x2="16"
       y2="68.208">
      <stop
         offset="0"
         style="stop-color:#E0E0E0"
         id="stop76" />
      <stop
         offset="1"
         style="stop-color:#D4D4D4"
         id="stop78" />
    </linearGradient>
    <linearGradient
       id="XMLID_40_"
       gradientUnits="userSpaceOnUse"
       x1="68.209"
       y1="12"
       x2="68.209"
       y2="20">
      <stop
         offset="0"
         style="stop-color:#E0E0E0"
         id="stop69" />
      <stop
         offset="1"
         style="stop-color:#D4D4D4"
         id="stop71" />
    </linearGradient>
    <linearGradient
       id="XMLID_39_"
       gradientUnits="userSpaceOnUse"
       x1="60.125"
       y1="12"
       x2="60.125"
       y2="20">
      <stop
         offset="0"
         style="stop-color:#7db1ff;stop-opacity:1;"
         id="stop62" />
      <stop
         offset="1"
         style="stop-color:#BFD9FF"
         id="stop64" />
    </linearGradient>
    <filter
       id="filter4460"
       inkscape:label="filter4">
      <feBlend
         blend="normal"
         id="feBlend4462"
         in2="SourceGraphic"
         mode="multiply" />
    </filter>
    <radialGradient
       inkscape:collect="always"
       xlink:href="#linearGradient3913-5"
       id="radialGradient3919-5"
       cx="90.75"
       cy="110.25299"
       fx="90.75"
       fy="110.25299"
       r="18.750002"
       gradientTransform="matrix(1.3067347,0,0,1.3067347,-27.83617,-33.818441)"
       gradientUnits="userSpaceOnUse" />
    <linearGradient
       inkscape:collect="always"
       id="linearGradient3913-5">
      <stop
         style="stop-color:#ffffff;stop-opacity:1;"
         offset="0"
         id="stop3915-4" />
      <stop
         style="stop-color:#ffffff;stop-opacity:0;"
         offset="1"
         id="stop3917-7" />
    </linearGradient>
    <clipPath
       clipPathUnits="userSpaceOnUse"
       id="clipPath3889-6">
      <path
         sodipodi:nodetypes="cscscssc"
         inkscape:connector-curvature="0"
         id="path3891-5"
         d="m 112,82.502986 c 0,4.465301 -2.79749,6.409952 -5.27972,8.093625 -5.10854,3.46508 -14.939114,3.32536 -20.720284,3.40638 -0.081,5.781159 0.16586,15.504599 -3.29922,20.613139 -1.68367,2.48224 -5.29051,5.38687 -8.20078,5.38687 2.31803,0 4.74284,-1.33476 7.58402,-4.08481 9.14197,-8.84873 17.36714,-16.13535 25.673154,-25.297529 C 109.67612,88.503916 112,86.97878 112,82.502986 z"
         style="fill:url(#linearGradient3893);fill-opacity:1;stroke:none" />
    </clipPath>
    <filter
       color-interpolation-filters="sRGB"
       inkscape:collect="always"
       id="filter3909-6">
      <feGaussianBlur
         inkscape:collect="always"
         stdDeviation="0.43040059"
         id="feGaussianBlur3911-9" />
    </filter>
    <linearGradient
       inkscape:collect="always"
       xlink:href="#linearGradient3897-7"
       id="linearGradient3895-3"
       gradientUnits="userSpaceOnUse"
       gradientTransform="matrix(1.0119858,0,0,1.0119858,-0.895541,-0.987154)"
       x1="86.73793"
       y1="93.621468"
       x2="95.18235"
       y2="102.06589" />
    <linearGradient
       id="linearGradient3897-7">
      <stop
         style="stop-color:#fcfcfc;stop-opacity:1"
         offset="0"
         id="stop3899-4" />
      <stop
         id="stop3901-5"
         offset="0.52275378"
         style="stop-color:#f8f8f8;stop-opacity:1" />
      <stop
         style="stop-color:#f0efef;stop-opacity:1;"
         offset="0.72337759"
         id="stop3903-2" />
      <stop
         style="stop-color:#e3e1e1;stop-opacity:1;"
         offset="0.89024991"
         id="stop3905-5" />
      <stop
         style="stop-color:#cecbcb;stop-opacity:1"
         offset="1"
         id="stop3907-4" />
    </linearGradient>
    <clipPath
       clipPathUnits="userSpaceOnUse"
       id="clipPath6093-7">
      <path
         inkscape:connector-curvature="0"
         sodipodi:nodetypes="cccssccc"
         id="path6095-4"
         d="M 17.000001,8 17,118 l 57.5,0 c 1.675283,0 3.119418,0.18058 4.9,-1.6 8.797935,-8.79794 20.54047,-19.851805 27.79904,-27.175957 C 109.6396,86.761431 110,84.752873 110,82.5 L 110,8 z"
         style="fill:#ffffff;fill-opacity:1" />
    </clipPath>
    <filter
       color-interpolation-filters="sRGB"
       inkscape:collect="always"
       id="filter6118-4"
       x="-0.1126375"
       width="1.225275"
       y="-0.12064722"
       height="1.2412944">
      <feGaussianBlur
         inkscape:collect="always"
         stdDeviation="2.3860572"
         id="feGaussianBlur6120-3" />
    </filter>
    <filter
       color-interpolation-filters="sRGB"
       inkscape:collect="always"
       id="filter6171-8"
       x="-0.47870937"
       width="1.9574188"
       y="-0.51275069"
       height="2.0255013">
      <feGaussianBlur
         inkscape:collect="always"
         stdDeviation="10.140743"
         id="feGaussianBlur6173-8" />
    </filter>
    <radialGradient
       inkscape:collect="always"
       xlink:href="#linearGradient5982-7"
       id="radialGradient5988-0"
       cx="64"
       cy="64.004021"
       fx="63.793392"
       fy="47.274845"
       r="47.5"
       gradientTransform="matrix(1.6842105,-0.08429519,0.06886339,1.3758846,-48.197,-18.66323)"
       gradientUnits="userSpaceOnUse" />
    <linearGradient
       inkscape:collect="always"
       id="linearGradient5982-7">
      <stop
         style="stop-color:#ffffff;stop-opacity:1;"
         offset="0"
         id="stop5984-8" />
      <stop
         style="stop-color:#ffffff;stop-opacity:0;"
         offset="1"
         id="stop5986-6" />
    </linearGradient>
    <linearGradient
       inkscape:collect="always"
       xlink:href="#linearGradient4518-3"
       id="linearGradient4524-4"
       x1="72"
       y1="0"
       x2="72"
       y2="116.40091"
       gradientUnits="userSpaceOnUse"
       gradientTransform="translate(0,3e-6)" />
    <linearGradient
       id="linearGradient4518-3">
      <stop
         style="stop-color:#eeecec;stop-opacity:1"
         offset="0"
         id="stop4520-1" />
      <stop
         id="stop5969-4"
         offset="0.40000001"
         style="stop-color:#f4f4f4;stop-opacity:1" />
      <stop
         style="stop-color:#f6f5f5;stop-opacity:1"
         offset="1"
         id="stop4522-9" />
    </linearGradient>
    <filter
       color-interpolation-filters="sRGB"
       inkscape:collect="always"
       id="filter4111">
      <feGaussianBlur
         inkscape:collect="always"
         stdDeviation="1.5615"
         id="feGaussianBlur4113" />
    </filter>
    <filter
       color-interpolation-filters="sRGB"
       inkscape:collect="always"
       id="filter4123">
      <feGaussianBlur
         inkscape:collect="always"
         stdDeviation="2.028"
         id="feGaussianBlur4125" />
    </filter>
    <linearGradient
       inkscape:collect="always"
       xlink:href="#XMLID_67_-5"
       id="linearGradient7071"
       gradientUnits="userSpaceOnUse"
       gradientTransform="translate(-143,-64)"
       x1="153"
       y1="79.556602"
       x2="153"
       y2="76.444199" />
    <linearGradient
       id="XMLID_67_-5"
       gradientUnits="userSpaceOnUse"
       x1="153"
       y1="79.556602"
       x2="153"
       y2="76.444199"
       gradientTransform="translate(-143,-64)">
      <stop
         offset="0"
         style="stop-color:#FFFFFF"
         id="stop284-5" />
      <stop
         offset="1"
         style="stop-color:#DDDDDD"
         id="stop286-4" />
    </linearGradient>
    <linearGradient
       inkscape:collect="always"
       xlink:href="#XMLID_68_-7"
       id="linearGradient7073"
       gradientUnits="userSpaceOnUse"
       gradientTransform="translate(-143,-64)"
       x1="154.1006"
       y1="79.100601"
       x2="151.9005"
       y2="76.900497" />
    <linearGradient
       id="XMLID_68_-7"
       gradientUnits="userSpaceOnUse"
       x1="154.1006"
       y1="79.100601"
       x2="151.9005"
       y2="76.900497"
       gradientTransform="translate(-143,-64)">
      <stop
         offset="0"
         style="stop-color:#eaeaea;stop-opacity:1;"
         id="stop291-6" />
      <stop
         offset="1"
         style="stop-color:#616161"
         id="stop293-56" />
    </linearGradient>
    <linearGradient
       inkscape:collect="always"
       xlink:href="#XMLID_67_-5"
       id="linearGradient7085"
       gradientUnits="userSpaceOnUse"
       gradientTransform="translate(-143,-64)"
       x1="153"
       y1="79.556602"
       x2="153"
       y2="76.444199" />
    <linearGradient
       inkscape:collect="always"
       xlink:href="#XMLID_68_-7"
       id="linearGradient7087"
       gradientUnits="userSpaceOnUse"
       gradientTransform="translate(-143,-64)"
       x1="154.1006"
       y1="79.100601"
       x2="151.9005"
       y2="76.900497" />
    <linearGradient
       inkscape:collect="always"
       xlink:href="#XMLID_67_-5"
       id="linearGradient7014"
       gradientUnits="userSpaceOnUse"
       gradientTransform="translate(-143,-64)"
       x1="153"
       y1="79.556602"
       x2="153"
       y2="76.444199" />
    <linearGradient
       inkscape:collect="always"
       xlink:href="#XMLID_68_-7"
       id="linearGradient7016"
       gradientUnits="userSpaceOnUse"
       gradientTransform="translate(-143,-64)"
       x1="154.1006"
       y1="79.100601"
       x2="151.9005"
       y2="76.900497" />
    <linearGradient
       inkscape:collect="always"
       xlink:href="#XMLID_67_-5"
       id="linearGradient7018"
       gradientUnits="userSpaceOnUse"
       gradientTransform="translate(-143,-64)"
       x1="153"
       y1="79.556602"
       x2="153"
       y2="76.444199" />
    <linearGradient
       inkscape:collect="always"
       xlink:href="#XMLID_68_-7"
       id="linearGradient7020"
       gradientUnits="userSpaceOnUse"
       gradientTransform="translate(-143,-64)"
       x1="154.1006"
       y1="79.100601"
       x2="151.9005"
       y2="76.900497" />
    <linearGradient
       inkscape:collect="always"
       xlink:href="#XMLID_67_-5"
       id="linearGradient7022"
       gradientUnits="userSpaceOnUse"
       gradientTransform="translate(-143,-64)"
       x1="153"
       y1="79.556602"
       x2="153"
       y2="76.444199" />
    <linearGradient
       inkscape:collect="always"
       xlink:href="#XMLID_68_-7"
       id="linearGradient7024"
       gradientUnits="userSpaceOnUse"
       gradientTransform="translate(-143,-64)"
       x1="154.1006"
       y1="79.100601"
       x2="151.9005"
       y2="76.900497" />
    <linearGradient
       inkscape:collect="always"
       xlink:href="#XMLID_67_-5"
       id="linearGradient7026"
       gradientUnits="userSpaceOnUse"
       gradientTransform="translate(-143,-64)"
       x1="153"
       y1="79.556602"
       x2="153"
       y2="76.444199" />
    <linearGradient
       inkscape:collect="always"
       xlink:href="#XMLID_68_-7"
       id="linearGradient7028"
       gradientUnits="userSpaceOnUse"
       gradientTransform="translate(-143,-64)"
       x1="154.1006"
       y1="79.100601"
       x2="151.9005"
       y2="76.900497" />
    <linearGradient
       inkscape:collect="always"
       xlink:href="#XMLID_67_-5"
       id="linearGradient7031"
       gradientUnits="userSpaceOnUse"
       gradientTransform="translate(-143,-64)"
       x1="153"
       y1="79.556602"
       x2="153"
       y2="76.444199" />
    <linearGradient
       inkscape:collect="always"
       xlink:href="#XMLID_68_-7"
       id="linearGradient7033"
       gradientUnits="userSpaceOnUse"
       gradientTransform="translate(-143,-64)"
       x1="154.1006"
       y1="79.100601"
       x2="151.9005"
       y2="76.900497" />
    <linearGradient
       inkscape:collect="always"
       xlink:href="#XMLID_67_-5"
       id="linearGradient7035"
       gradientUnits="userSpaceOnUse"
       gradientTransform="translate(-143,-64)"
       x1="153"
       y1="79.556602"
       x2="153"
       y2="76.444199" />
    <linearGradient
       inkscape:collect="always"
       xlink:href="#XMLID_68_-7"
       id="linearGradient7037"
       gradientUnits="userSpaceOnUse"
       gradientTransform="translate(-143,-64)"
       x1="154.1006"
       y1="79.100601"
       x2="151.9005"
       y2="76.900497" />
    <linearGradient
       inkscape:collect="always"
       xlink:href="#XMLID_67_-5"
       id="linearGradient7039"
       gradientUnits="userSpaceOnUse"
       gradientTransform="translate(-143,-64)"
       x1="153"
       y1="79.556602"
       x2="153"
       y2="76.444199" />
    <linearGradient
       inkscape:collect="always"
       xlink:href="#XMLID_68_-7"
       id="linearGradient7041"
       gradientUnits="userSpaceOnUse"
       gradientTransform="translate(-143,-64)"
       x1="154.1006"
       y1="79.100601"
       x2="151.9005"
       y2="76.900497" />
    <linearGradient
       inkscape:collect="always"
       xlink:href="#XMLID_67_-5"
       id="linearGradient7043"
       gradientUnits="userSpaceOnUse"
       gradientTransform="translate(-143,-64)"
       x1="153"
       y1="79.556602"
       x2="153"
       y2="76.444199" />
    <linearGradient
       inkscape:collect="always"
       xlink:href="#XMLID_68_-7"
       id="linearGradient7045"
       gradientUnits="userSpaceOnUse"
       gradientTransform="translate(-143,-64)"
       x1="154.1006"
       y1="79.100601"
       x2="151.9005"
       y2="76.900497" />
    <linearGradient
       inkscape:collect="always"
       xlink:href="#XMLID_67_-5"
       id="linearGradient7051"
       gradientUnits="userSpaceOnUse"
       gradientTransform="translate(-143,-64)"
       x1="153"
       y1="79.556602"
       x2="153"
       y2="76.444199" />
    <linearGradient
       y2="76.900497"
       x2="151.9005"
       y1="79.100601"
       x1="154.1006"
       gradientTransform="translate(-143,-64)"
       gradientUnits="userSpaceOnUse"
       id="linearGradient5499"
       xlink:href="#XMLID_68_-7"
       inkscape:collect="always" />
    <linearGradient
       inkscape:collect="always"
       xlink:href="#XMLID_41_"
       id="linearGradient3561"
       gradientUnits="userSpaceOnUse"
       gradientTransform="translate(12,4)"
       x1="28"
       y1="68.208"
       x2="16"
       y2="68.208" />
    <linearGradient
       inkscape:collect="always"
       xlink:href="#linearGradient3601-5"
       id="linearGradient4127"
       gradientUnits="userSpaceOnUse"
       gradientTransform="translate(64.000002,25)"
       x1="39"
       y1="37"
       x2="39"
       y2="33" />
    <linearGradient
       id="linearGradient3601-5">
      <stop
         id="stop3603-5"
         offset="0"
         style="stop-color:#5e815c;stop-opacity:1;" />
      <stop
         id="stop3605-4"
         offset="1"
         style="stop-color:#a9e14d;stop-opacity:1;" />
    </linearGradient>
    <linearGradient
       inkscape:collect="always"
       xlink:href="#linearGradient3830"
       id="linearGradient4950"
       gradientUnits="userSpaceOnUse"
       gradientTransform="translate(33.999998,33.000001)"
       x1="39"
       y1="37"
       x2="39"
       y2="33" />
    <linearGradient
       id="linearGradient3830">
      <stop
         style="stop-color:#d78600;stop-opacity:1;"
         offset="0"
         id="stop3832" />
      <stop
         style="stop-color:#f5dd41;stop-opacity:1;"
         offset="1"
         id="stop3834" />
    </linearGradient>
    <linearGradient
       inkscape:collect="always"
       xlink:href="#linearGradient3601-5"
       id="linearGradient4130"
       gradientUnits="userSpaceOnUse"
       gradientTransform="translate(26.999998,18)"
       x1="39"
       y1="37"
       x2="39"
       y2="33" />
    <linearGradient
       inkscape:collect="always"
       xlink:href="#linearGradient3861"
       id="linearGradient4978"
       gradientUnits="userSpaceOnUse"
       gradientTransform="translate(44.999998,9)"
       x1="39"
       y1="36"
       x2="39"
       y2="33" />
    <linearGradient
       id="linearGradient3861">
      <stop
         style="stop-color:#00aad4;stop-opacity:1;"
         offset="0"
         id="stop3863" />
      <stop
         style="stop-color:#cbf5ff;stop-opacity:1;"
         offset="1"
         id="stop3867" />
    </linearGradient>
    <linearGradient
       inkscape:collect="always"
       xlink:href="#linearGradient3861"
       id="linearGradient3996"
       gradientUnits="userSpaceOnUse"
       gradientTransform="translate(20.999998,-6.9999995)"
       x1="39"
       y1="36"
       x2="39"
       y2="33" />
    <linearGradient
       inkscape:collect="always"
       xlink:href="#linearGradient3830"
       id="linearGradient4952"
       gradientUnits="userSpaceOnUse"
       gradientTransform="translate(53.999998,58.000001)"
       x1="39"
       y1="37"
       x2="39"
       y2="33" />
    <linearGradient
       id="linearGradient6417">
      <stop
         id="stop6419"
         offset="0"
         style="stop-color:#55ddff;stop-opacity:1" />
      <stop
         style="stop-color:#c7ecf4;stop-opacity:1"
         offset="0.83492261"
         id="stop6425" />
      <stop
         id="stop6421"
         offset="1"
         style="stop-color:#d8edf2;stop-opacity:1" />
    </linearGradient>
    <linearGradient
       inkscape:collect="always"
       xlink:href="#linearGradient6417"
       id="linearGradient4498"
       gradientUnits="userSpaceOnUse"
       gradientTransform="translate(12,4)"
       x1="68.209"
       y1="12"
       x2="68.209"
       y2="20" />
    <linearGradient
       inkscape:collect="always"
       xlink:href="#linearGradient6417"
       id="linearGradient4502"
       gradientUnits="userSpaceOnUse"
       gradientTransform="translate(12,20)"
       x1="68.209"
       y1="12"
       x2="68.209"
       y2="20" />
    <linearGradient
       inkscape:collect="always"
       xlink:href="#linearGradient6417"
       id="linearGradient4506"
       gradientUnits="userSpaceOnUse"
       gradientTransform="translate(12,36)"
       x1="68.209"
       y1="12"
       x2="68.209"
       y2="20" />
    <linearGradient
       inkscape:collect="always"
       xlink:href="#linearGradient6417"
       id="linearGradient4510"
       gradientUnits="userSpaceOnUse"
       gradientTransform="translate(12,52)"
       x1="68.209"
       y1="12"
       x2="68.209"
       y2="20" />
    <linearGradient
       inkscape:collect="always"
       xlink:href="#linearGradient6417"
       id="linearGradient4514"
       gradientUnits="userSpaceOnUse"
       gradientTransform="translate(12,68)"
       x1="68.209"
       y1="12"
       x2="68.209"
       y2="20" />
    <linearGradient
       inkscape:collect="always"
       xlink:href="#linearGradient6417"
       id="linearGradient4518"
       gradientUnits="userSpaceOnUse"
       gradientTransform="matrix(0.78125005,0,0,1,18.124999,84)"
       x1="68.209"
       y1="12"
       x2="68.209"
       y2="20" />
  </defs>
  <sodipodi:namedview
     id="base"
     pagecolor="#ffffff"
     bordercolor="#666666"
     borderopacity="1.0"
     inkscape:pageopacity="0.0"
     inkscape:pageshadow="2"
     inkscape:zoom="2.8284272"
     inkscape:cx="44.513134"
     inkscape:cy="48.827735"
     inkscape:document-units="px"
     inkscape:current-layer="layer1"
     height="128px"
     width="128px"
     inkscape:window-width="1191"
     inkscape:window-height="716"
     inkscape:window-x="78"
     inkscape:window-y="81"
     showgrid="true"
     inkscape:snap-page="true"
     inkscape:snap-grids="true"
     inkscape:window-maximized="0">
    <inkscape:grid
       id="GridFromPre046Settings"
       type="xygrid"
       originx="0px"
       originy="0px"
       spacingx="2px"
       spacingy="2px"
       color="#0000ff"
       empcolor="#0000ff"
       opacity="0.2"
       empopacity="0.4"
       empspacing="5"
       visible="true"
       enabled="true"
       snapvisiblegridlinesonly="true" />
  </sodipodi:namedview>
  <metadata
     id="metadata37110">
    <rdf:RDF>
      <cc:Work
         rdf:about="">
        <dc:format>image/svg+xml</dc:format>
        <dc:type
           rdf:resource="http://purl.org/dc/dcmitype/StillImage" />
        <dc:title />
      </cc:Work>
    </rdf:RDF>
  </metadata>
  <g
     inkscape:label="Livello 1"
     inkscape:groupmode="layer"
     id="layer1">
    <path
       style="opacity:0.26237625;fill:#000000;fill-opacity:1;filter:url(#filter4123)"
       d="M 16,8.500003 16,120.5 l 59.1875,0 c 2.115556,0 4.528919,-1.77169 7,-4.25 0.71234,-0.71442 1.440746,-1.39395 2.15625,-2.09375 0.415612,-0.40649 0.832187,-0.81443 1.25,-1.21875 7.773958,-7.40962 14.98341,-14.0226 22.21875,-22 0.42065,-0.42064 0.81207,-0.8111 1.15625,-1.1875 1.46444,-1.49766 2.76158,-2.8378 2.99375,-5.8625 L 112,83.15625 112,8.500003 z"
       id="path5990"
       inkscape:connector-curvature="0"
       sodipodi:nodetypes="ccsssccccccc" />
    <path
       sodipodi:nodetypes="cccssccc"
       id="path3722"
       d="M 16.000001,8.000003 16,120.2 l 58.746418,0 c 4.168166,0 7.728581,-4.85625 20.853582,-17.1 7.48636,-6.9837 10.43958,-10.88943 13.15009,-13.59993 C 110.49334,87.75682 112,86.46256 112,82.3 l 0,-74.299997 z"
       style="fill:#000000;fill-opacity:0.70053478;filter:url(#filter4111)"
       inkscape:connector-curvature="0" />
    <path
       style="fill:#ffffff;fill-opacity:1"
       d="M 16.000001,8.000003 16,120 l 58.5,0 c 1.675283,0 3.914297,-0.56468 7,-3.6 8.870045,-8.72523 20.24047,-19.8518 27.49904,-27.17596 C 111.4396,86.76143 112,84.75287 112,82.5 l 0,-74.499997 z"
       id="path34"
       sodipodi:nodetypes="cccssccc"
       inkscape:connector-curvature="0" />
    <path
       style="fill:url(#linearGradient4524-4);fill-opacity:1"
       d="m 18.5,10.000003 c -0.339844,0 -0.5,0.234618 -0.5,0.5 l 0,105.968747 c 0,0.82158 0.679323,1.5 1.5,1.5 l 53.6875,0 c 0.05307,0 0.810384,0.0234 1.5,0.0313 1.777664,-0.0401 3.131974,-0.75374 4.356035,-1.59328 1.051866,-0.29103 19.649835,-18.61959 28.770955,-27.80924 1.36239,-1.37262 2.18546,-3.94817 2.18546,-4.89561 L 110,10.500003 c 0,-0.322717 -0.16322,-0.5 -0.5,-0.5 z"
       id="path3967"
       inkscape:connector-curvature="0"
       sodipodi:nodetypes="ccsssccscccc" />
    <path
       sodipodi:nodetypes="ccssscccccc"
       inkscape:connector-curvature="0"
       id="path5980"
       d="m 18.5,10.000003 c -0.339844,0 -0.5,0.234618 -0.5,0.5 l 0,105.968747 c 0,0.82158 0.679323,1.49954 1.5,1.5 l 55.5,0.0313 c 0.05307,3e-5 3.273884,-0.008 3.9635,5e-5 6.540972,-4.50366 20.6373,-19.95333 29.58253,-28.95514 1.47685,-1.65649 0.4576,-0.37007 1.45391,-1.60746 L 110,10.500003 c 0,-0.322717 -0.16322,-0.5 -0.5,-0.5 z"
       style="opacity:0.84653476;fill:url(#radialGradient5988-0);fill-opacity:1" />
    <g
       id="g3640"
       style="opacity:1">
      <rect
         id="rect4512"
         height="8"
         width="63.999996"
         y="80"
         x="40"
         style="opacity:0.48953977;fill:url(#linearGradient4514);fill-opacity:1" />
      <rect
         id="rect80"
         height="95.999992"
         width="12"
         y="16"
         x="28"
         style="fill:url(#linearGradient3561)" />
      <rect
         style="fill:url(#linearGradient4502);fill-opacity:1;opacity:0.48953975"
         x="40"
         y="32"
         width="63.999996"
         height="8"
         id="rect4500" />
      <rect
         id="rect297"
         height="1"
         width="75"
         y="32"
         x="28.5"
         style="fill:#a7a7a7;fill-opacity:1" />
      <rect
         id="rect299"
         height="1"
         width="75"
         y="40"
         x="28.5"
         style="fill:#a7a7a7;fill-opacity:1" />
      <rect
         id="rect301"
         height="1"
         width="75"
         y="48"
         x="28.5"
         style="fill:#a7a7a7;fill-opacity:1" />
      <rect
         id="rect303"
         height="1"
         width="75"
         y="56"
         x="28.5"
         style="fill:#a7a7a7;fill-opacity:1" />
      <rect
         id="rect305"
         height="1"
         width="75"
         y="64"
         x="28.5"
         style="fill:#a7a7a7;fill-opacity:1" />
      <rect
         style="opacity:0.48953977;fill:url(#linearGradient4510);fill-opacity:1"
         x="40"
         y="64"
         width="63.999996"
         height="8"
         id="rect4508" />
      <rect
         id="rect307"
         height="1"
         width="75"
         y="72"
         x="28.5"
         style="fill:#a7a7a7;fill-opacity:1" />
      <rect
         id="rect309"
         height="1"
         width="75"
         y="80"
         x="28.5"
         style="fill:#a7a7a7;fill-opacity:1" />
      <rect
         id="rect311"
         height="1"
         width="75"
         y="88"
         x="28.5"
         style="fill:#a7a7a7;fill-opacity:1" />
      <rect
         id="rect313"
         height="1"
         width="66"
         y="96"
         x="28.5"
         style="fill:#a7a7a7;fill-opacity:1" />
      <rect
         id="rect315"
         height="1"
         width="64"
         y="104"
         x="28.5"
         style="fill:#a7a7a7;fill-opacity:1" />
      <rect
         id="rect73"
         height="8"
         width="63.999996"
         y="16"
         x="40"
         style="fill:url(#linearGradient4498);fill-opacity:1;opacity:0.53138075" />
      <rect
         id="rect4504"
         height="8"
         width="63.999996"
         y="48"
         x="40"
         style="opacity:0.48953977;fill:url(#linearGradient4506);fill-opacity:1" />
      <rect
         style="opacity:0.48953977;fill:url(#linearGradient4518);fill-opacity:1"
         x="40"
         y="96"
         width="50"
         height="8"
         id="rect4516" />
      <rect
         id="rect317"
         height="96"
         width="0.99999845"
         y="16"
         x="40"
         style="fill:#a7a7a7;fill-opacity:1" />
      <rect
         id="rect319"
         height="96"
         width="1"
         y="16"
         x="56"
         style="fill:#a7a7a7;fill-opacity:1" />
      <rect
         id="rect321"
         height="95.5"
         width="1"
         y="16.5"
         x="72"
         style="fill:#a7a7a7;fill-opacity:1" />
      <rect
         id="rect323"
         height="91.521004"
         width="1"
         y="16.5"
         x="88"
         style="fill:#a7a7a7;fill-opacity:1" />
      <rect
         id="rect325"
         height="1"
         width="75.499962"
         y="24"
         x="28"
         style="fill:#a7a7a7;fill-opacity:1" />
      <path
         inkscape:connector-curvature="0"
         sodipodi:nodetypes="ccccccccccc"
         id="path327"
         d="M 83.834,112 29,112 l 0,-95 74,0 0,77 1,0 0,-78 -76,0 0,97 55.834,0 z"
         style="fill:#a7a7a7;fill-opacity:1" />
    </g>
    <g
       id="g6934"
       transform="matrix(1.039214,0,0,1.039214,0.23471959,20.94097)">
      <circle
         id="circle6936"
         r="2"
         cy="14"
         cx="10"
         style="fill:url(#linearGradient7051);stroke-width:0.1;stroke-miterlimit:4;stroke-dasharray:none"
         sodipodi:cx="10"
         sodipodi:cy="14"
         sodipodi:rx="2"
         sodipodi:ry="2"
         d="m 12,14 c 0,1.104569 -0.895431,2 -2,2 -1.1045695,0 -2,-0.895431 -2,-2 0,-1.104569 0.8954305,-2 2,-2 1.104569,0 2,0.895431 2,2 z"
         transform="matrix(0.87121524,0,0,0.87121524,12.358158,0.48176727)" />
      <circle
         id="circle6938"
         r="1.556"
         cy="14"
         cx="10"
         style="fill:url(#linearGradient5499);stroke-width:0.1;stroke-miterlimit:4;stroke-dasharray:none"
         sodipodi:cx="10"
         sodipodi:cy="14"
         sodipodi:rx="1.556"
         sodipodi:ry="1.556"
         d="m 11.556,14 c 0,0.859355 -0.696645,1.556 -1.556,1.556 -0.8593551,0 -1.556,-0.696645 -1.556,-1.556 0,-0.859355 0.6966449,-1.556 1.556,-1.556 0.859355,0 1.556,0.696645 1.556,1.556 z"
         transform="matrix(1.0007524,0,0,1.0007524,11.062783,-1.3317548)" />
    </g>
    <g
       id="g6946"
       transform="matrix(1.039214,0,0,1.039214,0.23471959,30.960048)">
      <circle
         id="circle6948"
         r="2"
         cy="14"
         cx="10"
         style="fill:url(#linearGradient7043);stroke-width:0.1;stroke-miterlimit:4;stroke-dasharray:none"
         sodipodi:cx="10"
         sodipodi:cy="14"
         sodipodi:rx="2"
         sodipodi:ry="2"
         d="m 12,14 c 0,1.104569 -0.895431,2 -2,2 -1.1045695,0 -2,-0.895431 -2,-2 0,-1.104569 0.8954305,-2 2,-2 1.104569,0 2,0.895431 2,2 z"
         transform="matrix(0.87121524,0,0,0.87121524,12.358158,0.48176727)" />
      <circle
         id="circle6950"
         r="1.556"
         cy="14"
         cx="10"
         style="fill:url(#linearGradient7045);stroke-width:0.1;stroke-miterlimit:4;stroke-dasharray:none"
         sodipodi:cx="10"
         sodipodi:cy="14"
         sodipodi:rx="1.556"
         sodipodi:ry="1.556"
         d="m 11.556,14 c 0,0.859355 -0.696645,1.556 -1.556,1.556 -0.8593551,0 -1.556,-0.696645 -1.556,-1.556 0,-0.859355 0.6966449,-1.556 1.556,-1.556 0.859355,0 1.556,0.696645 1.556,1.556 z"
         transform="matrix(1.0007524,0,0,1.0007524,11.062783,-1.3317548)" />
    </g>
    <g
       id="g6952"
       transform="matrix(1.039214,0,0,1.039214,0.23471959,40.979127)">
      <circle
         transform="matrix(0.87121524,0,0,0.87121524,12.358158,0.48176727)"
         d="m 12,14 c 0,1.104569 -0.895431,2 -2,2 -1.1045695,0 -2,-0.895431 -2,-2 0,-1.104569 0.8954305,-2 2,-2 1.104569,0 2,0.895431 2,2 z"
         sodipodi:ry="2"
         sodipodi:rx="2"
         sodipodi:cy="14"
         sodipodi:cx="10"
         style="fill:url(#linearGradient7039);stroke-width:0.1;stroke-miterlimit:4;stroke-dasharray:none"
         cx="10"
         cy="14"
         r="2"
         id="circle6954" />
      <circle
         transform="matrix(1.0007524,0,0,1.0007524,11.062783,-1.3317548)"
         d="m 11.556,14 c 0,0.859355 -0.696645,1.556 -1.556,1.556 -0.8593551,0 -1.556,-0.696645 -1.556,-1.556 0,-0.859355 0.6966449,-1.556 1.556,-1.556 0.859355,0 1.556,0.696645 1.556,1.556 z"
         sodipodi:ry="1.556"
         sodipodi:rx="1.556"
         sodipodi:cy="14"
         sodipodi:cx="10"
         style="fill:url(#linearGradient7041);stroke-width:0.1;stroke-miterlimit:4;stroke-dasharray:none"
         cx="10"
         cy="14"
         r="1.556"
         id="circle6956" />
    </g>
    <g
       id="g6958"
       transform="matrix(1.039214,0,0,1.039214,0.23471959,50.998206)">
      <circle
         id="circle6960"
         r="2"
         cy="14"
         cx="10"
         style="fill:url(#linearGradient7035);stroke-width:0.1;stroke-miterlimit:4;stroke-dasharray:none"
         sodipodi:cx="10"
         sodipodi:cy="14"
         sodipodi:rx="2"
         sodipodi:ry="2"
         d="m 12,14 c 0,1.104569 -0.895431,2 -2,2 -1.1045695,0 -2,-0.895431 -2,-2 0,-1.104569 0.8954305,-2 2,-2 1.104569,0 2,0.895431 2,2 z"
         transform="matrix(0.87121524,0,0,0.87121524,12.358158,0.48176727)" />
      <circle
         id="circle6962"
         r="1.556"
         cy="14"
         cx="10"
         style="fill:url(#linearGradient7037);stroke-width:0.1;stroke-miterlimit:4;stroke-dasharray:none"
         sodipodi:cx="10"
         sodipodi:cy="14"
         sodipodi:rx="1.556"
         sodipodi:ry="1.556"
         d="m 11.556,14 c 0,0.859355 -0.696645,1.556 -1.556,1.556 -0.8593551,0 -1.556,-0.696645 -1.556,-1.556 0,-0.859355 0.6966449,-1.556 1.556,-1.556 0.859355,0 1.556,0.696645 1.556,1.556 z"
         transform="matrix(1.0007524,0,0,1.0007524,11.062783,-1.3317548)" />
    </g>
    <g
       id="g6964"
       transform="matrix(1.039214,0,0,1.039214,0.23471959,61.017286)">
      <circle
         transform="matrix(0.87121524,0,0,0.87121524,12.358158,0.48176727)"
         d="m 12,14 c 0,1.104569 -0.895431,2 -2,2 -1.1045695,0 -2,-0.895431 -2,-2 0,-1.104569 0.8954305,-2 2,-2 1.104569,0 2,0.895431 2,2 z"
         sodipodi:ry="2"
         sodipodi:rx="2"
         sodipodi:cy="14"
         sodipodi:cx="10"
         style="fill:url(#linearGradient7031);stroke-width:0.1;stroke-miterlimit:4;stroke-dasharray:none"
         cx="10"
         cy="14"
         r="2"
         id="circle6966" />
      <circle
         transform="matrix(1.0007524,0,0,1.0007524,11.062783,-1.3317548)"
         d="m 11.556,14 c 0,0.859355 -0.696645,1.556 -1.556,1.556 -0.8593551,0 -1.556,-0.696645 -1.556,-1.556 0,-0.859355 0.6966449,-1.556 1.556,-1.556 0.859355,0 1.556,0.696645 1.556,1.556 z"
         sodipodi:ry="1.556"
         sodipodi:rx="1.556"
         sodipodi:cy="14"
         sodipodi:cx="10"
         style="fill:url(#linearGradient7033);stroke-width:0.1;stroke-miterlimit:4;stroke-dasharray:none"
         cx="10"
         cy="14"
         r="1.556"
         id="circle6968" />
    </g>
    <g
       id="g6970"
       transform="matrix(1.039214,0,0,1.039214,0.23471959,71.036364)">
      <circle
         id="circle6972"
         r="2"
         cy="14"
         cx="10"
         style="fill:url(#linearGradient7026);stroke-width:0.1;stroke-miterlimit:4;stroke-dasharray:none"
         sodipodi:cx="10"
         sodipodi:cy="14"
         sodipodi:rx="2"
         sodipodi:ry="2"
         d="m 12,14 c 0,1.104569 -0.895431,2 -2,2 -1.1045695,0 -2,-0.895431 -2,-2 0,-1.104569 0.8954305,-2 2,-2 1.104569,0 2,0.895431 2,2 z"
         transform="matrix(0.87121524,0,0,0.87121524,12.358158,0.48176727)" />
      <circle
         id="circle6974"
         r="1.556"
         cy="14"
         cx="10"
         style="fill:url(#linearGradient7028);stroke-width:0.1;stroke-miterlimit:4;stroke-dasharray:none"
         sodipodi:cx="10"
         sodipodi:cy="14"
         sodipodi:rx="1.556"
         sodipodi:ry="1.556"
         d="m 11.556,14 c 0,0.859355 -0.696645,1.556 -1.556,1.556 -0.8593551,0 -1.556,-0.696645 -1.556,-1.556 0,-0.859355 0.6966449,-1.556 1.556,-1.556 0.859355,0 1.556,0.696645 1.556,1.556 z"
         transform="matrix(1.0007524,0,0,1.0007524,11.062783,-1.3317548)" />
    </g>
    <g
       id="g6976"
       transform="matrix(1.039214,0,0,1.039214,0.23471959,81.055443)">
      <circle
         transform="matrix(0.87121524,0,0,0.87121524,12.358158,0.48176727)"
         d="m 12,14 c 0,1.104569 -0.895431,2 -2,2 -1.1045695,0 -2,-0.895431 -2,-2 0,-1.104569 0.8954305,-2 2,-2 1.104569,0 2,0.895431 2,2 z"
         sodipodi:ry="2"
         sodipodi:rx="2"
         sodipodi:cy="14"
         sodipodi:cx="10"
         style="fill:url(#linearGradient7022);stroke-width:0.1;stroke-miterlimit:4;stroke-dasharray:none"
         cx="10"
         cy="14"
         r="2"
         id="circle6978" />
      <circle
         transform="matrix(1.0007524,0,0,1.0007524,11.062783,-1.3317548)"
         d="m 11.556,14 c 0,0.859355 -0.696645,1.556 -1.556,1.556 -0.8593551,0 -1.556,-0.696645 -1.556,-1.556 0,-0.859355 0.6966449,-1.556 1.556,-1.556 0.859355,0 1.556,0.696645 1.556,1.556 z"
         sodipodi:ry="1.556"
         sodipodi:rx="1.556"
         sodipodi:cy="14"
         sodipodi:cx="10"
         style="fill:url(#linearGradient7024);stroke-width:0.1;stroke-miterlimit:4;stroke-dasharray:none"
         cx="10"
         cy="14"
         r="1.556"
         id="circle6980" />
    </g>
    <g
       id="g6982"
       transform="matrix(1.039214,0,0,1.039214,0.23471959,91.07452)">
      <circle
         id="circle6984"
         r="2"
         cy="14"
         cx="10"
         style="fill:url(#linearGradient7018);stroke-width:0.1;stroke-miterlimit:4;stroke-dasharray:none"
         sodipodi:cx="10"
         sodipodi:cy="14"
         sodipodi:rx="2"
         sodipodi:ry="2"
         d="m 12,14 c 0,1.104569 -0.895431,2 -2,2 -1.1045695,0 -2,-0.895431 -2,-2 0,-1.104569 0.8954305,-2 2,-2 1.104569,0 2,0.895431 2,2 z"
         transform="matrix(0.87121524,0,0,0.87121524,12.358158,0.48176727)" />
      <circle
         id="circle6986"
         r="1.556"
         cy="14"
         cx="10"
         style="fill:url(#linearGradient7020);stroke-width:0.1;stroke-miterlimit:4;stroke-dasharray:none"
         sodipodi:cx="10"
         sodipodi:cy="14"
         sodipodi:rx="1.556"
         sodipodi:ry="1.556"
         d="m 11.556,14 c 0,0.859355 -0.696645,1.556 -1.556,1.556 -0.8593551,0 -1.556,-0.696645 -1.556,-1.556 0,-0.859355 0.6966449,-1.556 1.556,-1.556 0.859355,0 1.556,0.696645 1.556,1.556 z"
         transform="matrix(1.0007524,0,0,1.0007524,11.062783,-1.3317548)" />
    </g>
    <g
       id="g6988"
       transform="matrix(1.039214,0,0,1.039214,0.23471959,101.09359)">
      <circle
         transform="matrix(0.87121524,0,0,0.87121524,12.358158,0.48176727)"
         d="m 12,14 c 0,1.104569 -0.895431,2 -2,2 -1.1045695,0 -2,-0.895431 -2,-2 0,-1.104569 0.8954305,-2 2,-2 1.104569,0 2,0.895431 2,2 z"
         sodipodi:ry="2"
         sodipodi:rx="2"
         sodipodi:cy="14"
         sodipodi:cx="10"
         style="fill:url(#linearGradient7014);stroke-width:0.1;stroke-miterlimit:4;stroke-dasharray:none"
         cx="10"
         cy="14"
         r="2"
         id="circle6990" />
      <circle
         transform="matrix(1.0007524,0,0,1.0007524,11.062783,-1.3317548)"
         d="m 11.556,14 c 0,0.859355 -0.696645,1.556 -1.556,1.556 -0.8593551,0 -1.556,-0.696645 -1.556,-1.556 0,-0.859355 0.6966449,-1.556 1.556,-1.556 0.859355,0 1.556,0.696645 1.556,1.556 z"
         sodipodi:ry="1.556"
         sodipodi:rx="1.556"
         sodipodi:cy="14"
         sodipodi:cx="10"
         style="fill:url(#linearGradient7016);stroke-width:0.1;stroke-miterlimit:4;stroke-dasharray:none"
         cx="10"
         cy="14"
         r="1.556"
         id="circle6992" />
    </g>
    <g
       transform="matrix(1.039214,0,0,1.039214,0.23471959,10.921892)"
       id="g7059">
      <circle
         id="circle7061"
         r="2"
         cy="14"
         cx="10"
         style="fill:url(#linearGradient7085);stroke-width:0.1;stroke-miterlimit:4;stroke-dasharray:none"
         sodipodi:cx="10"
         sodipodi:cy="14"
         sodipodi:rx="2"
         sodipodi:ry="2"
         d="m 12,14 c 0,1.104569 -0.895431,2 -2,2 -1.1045695,0 -2,-0.895431 -2,-2 0,-1.104569 0.8954305,-2 2,-2 1.104569,0 2,0.895431 2,2 z"
         transform="matrix(0.87121524,0,0,0.87121524,12.358158,0.48176727)" />
      <circle
         id="circle7063"
         r="1.556"
         cy="14"
         cx="10"
         style="fill:url(#linearGradient7087);stroke-width:0.1;stroke-miterlimit:4;stroke-dasharray:none"
         sodipodi:cx="10"
         sodipodi:cy="14"
         sodipodi:rx="1.556"
         sodipodi:ry="1.556"
         d="m 11.556,14 c 0,0.859355 -0.696645,1.556 -1.556,1.556 -0.8593551,0 -1.556,-0.696645 -1.556,-1.556 0,-0.859355 0.6966449,-1.556 1.556,-1.556 0.859355,0 1.556,0.696645 1.556,1.556 z"
         transform="matrix(1.0007524,0,0,1.0007524,11.062783,-1.3317548)" />
    </g>
    <g
       id="g7065"
       transform="matrix(1.039214,0,0,1.039214,0.23471959,0.90281778)">
      <circle
         transform="matrix(0.87121524,0,0,0.87121524,12.358158,0.48176727)"
         d="m 12,14 c 0,1.104569 -0.895431,2 -2,2 -1.1045695,0 -2,-0.895431 -2,-2 0,-1.104569 0.8954305,-2 2,-2 1.104569,0 2,0.895431 2,2 z"
         sodipodi:ry="2"
         sodipodi:rx="2"
         sodipodi:cy="14"
         sodipodi:cx="10"
         style="fill:url(#linearGradient7071);stroke-width:0.1;stroke-miterlimit:4;stroke-dasharray:none"
         cx="10"
         cy="14"
         r="2"
         id="circle7067" />
      <circle
         transform="matrix(1.0007524,0,0,1.0007524,11.062783,-1.3317548)"
         d="m 11.556,14 c 0,0.859355 -0.696645,1.556 -1.556,1.556 -0.8593551,0 -1.556,-0.696645 -1.556,-1.556 0,-0.859355 0.6966449,-1.556 1.556,-1.556 0.859355,0 1.556,0.696645 1.556,1.556 z"
         sodipodi:ry="1.556"
         sodipodi:rx="1.556"
         sodipodi:cy="14"
         sodipodi:cx="10"
         style="fill:url(#linearGradient7073);stroke-width:0.1;stroke-miterlimit:4;stroke-dasharray:none"
         cx="10"
         cy="14"
         r="1.556"
         id="circle7069" />
    </g>
    <g
       id="g4520">
      <path
         sodipodi:nodetypes="ccccccc"
         style="fill:url(#linearGradient4952);fill-opacity:1;stroke:none"
         d="m 71.468752,91.000001 c -1.37108,0 -2.46875,1.09767 -2.46875,2.46875 l 0,1.53125 31.999998,0 0,-1.53125 c 0,-1.37108 -1.097668,-2.46875 -2.468748,-2.46875 l -27.0625,0 z"
         id="path4948"
         inkscape:connector-curvature="0" />
      <path
         sodipodi:nodetypes="ccccccc"
         style="fill:url(#linearGradient3996);fill-opacity:1;stroke:none"
         d="m 45.468748,26 c -1.37108,0 -2.46875,1.097671 -2.46875,2.468751 l 0,1.53125 21.000004,0 0,-1.53125 C 64.000002,27.097671 62.902332,26 61.531252,26 l -16.062504,0 z"
         id="path5492"
         inkscape:connector-curvature="0" />
      <path
         id="path4976"
         d="m 69.468752,42.000001 c -1.37108,0 -2.46875,1.09767 -2.46875,2.46875 l 0,1.53125 22,0 0,-1.53125 c 0,-1.37108 -1.09767,-2.46875 -2.46875,-2.46875 l -17.0625,0 z"
         style="fill:url(#linearGradient4978);fill-opacity:1;stroke:none"
         sodipodi:nodetypes="ccccccc"
         inkscape:connector-curvature="0" />
      <rect
         style="fill:#939393;fill-opacity:1;stroke:none"
         id="rect4980"
         width="1"
         height="16"
         x="65"
         y="29" />
      <rect
         y="28"
         x="64"
         height="1"
         width="2"
         id="rect4982"
         style="fill:#939393;fill-opacity:1;stroke:none" />
      <rect
         y="44"
         x="66"
         height="1"
         width="1"
         id="rect4984"
         style="fill:#939393;fill-opacity:1;stroke:none" />
      <rect
         y="53"
         x="76"
         height="1"
         width="1"
         id="rect4013"
         style="fill:#939393;fill-opacity:1;stroke:none" />
      <rect
         style="fill:#939393;fill-opacity:1;stroke:none"
         id="rect4015"
         width="1"
         height="8"
         x="77"
         y="53" />
      <path
         id="rect3890"
         d="m 44.468748,51.000001 c -1.37108,0 -2.46875,1.097671 -2.46875,2.46875 l 0,1.53125 34.000004,0 0,-1.53125 c 0,-1.37108 -1.09767,-2.46875 -2.46875,-2.46875 l -29.062504,0 z"
         style="fill:url(#linearGradient4130);fill-opacity:1;stroke:none"
         inkscape:connector-curvature="0" />
      <path
         id="path4946"
         d="m 51.468748,66 c -1.37108,0 -2.46875,1.097672 -2.46875,2.46875 l 0,1.53125 17.000004,0 0,-1.53125 C 66.000002,67.097671 64.902332,66 63.531252,66 l -12.062504,0 z"
         style="fill:url(#linearGradient4950);fill-opacity:1;stroke:none"
         sodipodi:nodetypes="ccccccc"
         inkscape:connector-curvature="0" />
      <path
         sodipodi:nodetypes="ccccccc"
         style="fill:url(#linearGradient4127);fill-opacity:1;stroke:none"
         d="m 81.468752,58.000001 c -1.37108,0 -2.46875,1.09767 -2.46875,2.46875 l 0,1.531249 17,0 0,-1.531249 c 0,-1.37108 -1.09767,-2.46875 -2.46875,-2.46875 l -12.0625,0 z"
         id="path3905"
         inkscape:connector-curvature="0" />
      <rect
         style="fill:#939393;fill-opacity:1;stroke:none"
         id="rect4017"
         width="1"
         height="1"
         x="78"
         y="60" />
      <rect
         style="fill:#939393;fill-opacity:1;stroke:none"
         id="rect4956"
         width="1"
         height="1"
         x="66"
         y="68" />
      <rect
         y="68"
         x="67"
         height="26"
         width="1"
         id="rect4958"
         style="fill:#939393;fill-opacity:1;stroke:none" />
      <rect
         y="93"
         x="68"
         height="1"
         width="1"
         id="rect4960"
         style="fill:#939393;fill-opacity:1;stroke:none" />
    </g>
    <path
       clip-path="url(#clipPath6093-7)"
       style="opacity:0.34728035;fill:#000000;fill-opacity:1;stroke:none;filter:url(#filter6171-8)"
       d="m 114.4,82.502986 c 0,4.465301 -4.99749,5.909952 -7.47972,7.593625 -5.10854,3.46508 -16.839114,2.32536 -22.620284,2.40638 -0.081,5.781159 1.06586,17.204599 -2.39922,22.313139 -1.68367,2.48224 -4.79051,8.68687 -7.70078,8.68687 -2.091359,1.5337 3.488204,8.21101 6.734971,5.31989 9.501888,-8.46107 35.131683,-30.022704 43.350823,-39.262889 2.04044,-2.29392 -4.90514,-9.844666 -9.88579,-7.057015 z"
       id="path6153"
       inkscape:connector-curvature="0"
       sodipodi:nodetypes="cscscssc"
       transform="translate(0,3e-6)" />
    <path
       sodipodi:nodetypes="cscscssc"
       inkscape:connector-curvature="0"
       id="path6081"
       d="m 113.9,82.502986 c 0,4.465301 -5.09749,6.009952 -7.57972,7.693625 -5.10854,3.46508 -16.139114,2.12536 -21.920284,2.20638 -0.081,5.781159 1.66586,17.304599 -1.79922,22.413139 -1.68367,2.48224 -4.69051,7.98687 -7.60078,7.98687 -2.091359,1.5337 3.488204,11.21101 6.734971,8.31989 9.501888,-8.46107 45.998943,-30.20138 54.218083,-39.441569 2.04044,-2.29392 -17.0724,-11.965986 -22.05305,-9.178335 z"
       style="opacity:0.40099009;fill:#000000;fill-opacity:1;stroke:none;filter:url(#filter6118-4)"
       clip-path="url(#clipPath6093-7)"
       transform="translate(0,3e-6)" />
    <path
       style="fill:url(#linearGradient3895-3);fill-opacity:1;stroke:none"
       d="m 112,82.50299 c 0,4.4653 -2.79749,6.40995 -5.27972,8.09362 -5.10854,3.46508 -14.939114,3.32536 -20.720284,3.40638 -0.081,5.78116 0.16586,15.5046 -3.29922,20.61314 -1.68367,2.48224 -5.29051,5.38687 -8.20078,5.38687 2.31803,0 4.74284,-1.33476 7.58402,-4.08481 9.14197,-8.84873 17.36714,-16.13535 25.673154,-25.29753 C 109.67612,88.50392 112,86.97878 112,82.50299 z"
       id="path6011"
       inkscape:connector-curvature="0"
       sodipodi:nodetypes="cscscssc" />
    <path
       style="fill:#ffffff;fill-opacity:1;stroke:none"
       d="m 112.01875,82.9125 c -0.31643,3.89911 -3.82291,5.50281 -6.15,7.08125 C 102.09391,92.55419 89.83117,92.01898 84.05,92.1 c -0.413621,5.89203 1.100005,17.66732 -2.2125,22.725 -1.437921,2.19548 -3.499456,4.3601 -6.1625,4.95 1.980459,-0.3623 3.984931,-1.86139 6.36875,-4.16875 0.339117,-0.38853 0.574297,-0.67895 1.10625,-1.5 3.46508,-5.10854 2.823687,-14.26571 2.904687,-20.04687 5.78117,-0.081 15.318023,0.31195 20.426563,-3.15313 0.46542,-0.31569 1.89399,-0.98774 2.30625,-1.4 1.53629,-1.53629 3.00171,-3.21342 3.23125,-6.59375 z M 75.675,119.775 c -0.157658,0.0349 -0.313437,0.0414 -0.46875,0.0625 0.156991,-0.0169 0.310443,-0.0335 0.46875,-0.0625 z"
       id="path6122"
       inkscape:connector-curvature="0"
       sodipodi:nodetypes="cscsccccsscccc" />
    <path
       style="fill:none;stroke:url(#radialGradient3919-5);stroke-width:1.20000005;stroke-linecap:butt;stroke-linejoin:miter;stroke-miterlimit:4;stroke-opacity:1;stroke-dasharray:none;filter:url(#filter3909-6)"
       d="M 117.31456,81.861283 72.639105,125.34835"
       id="path3873"
       inkscape:connector-curvature="0"
       sodipodi:nodetypes="cc"
       clip-path="url(#clipPath3889-6)"
       transform="translate(0,3e-6)" />
  </g>
</svg>
