<?xml version="1.0" encoding="UTF-8" standalone="no"?>
<!-- Created with Inkscape (http://www.inkscape.org/) -->

<svg
   xmlns:dc="http://purl.org/dc/elements/1.1/"
   xmlns:cc="http://creativecommons.org/ns#"
   xmlns:rdf="http://www.w3.org/1999/02/22-rdf-syntax-ns#"
   xmlns:svg="http://www.w3.org/2000/svg"
   xmlns="http://www.w3.org/2000/svg"
   xmlns:xlink="http://www.w3.org/1999/xlink"
   xmlns:sodipodi="http://sodipodi.sourceforge.net/DTD/sodipodi-0.dtd"
   xmlns:inkscape="http://www.inkscape.org/namespaces/inkscape"
   width="128"
   height="128"
   id="svg2"
   sodipodi:version="0.32"
   inkscape:version="0.46+devel"
   version="1.0"
   sodipodi:docname="network-wireless-connected-75.svgz"
   inkscape:output_extension="org.inkscape.output.svgz.inkscape"
   inkscape:export-filename="/home/pinheiro/pics/oxygen-icons/scalable/devices/network-wireless-conn75.png"
   inkscape:export-xdpi="1440"
   inkscape:export-ydpi="1440">
  <defs
     id="defs4">
    <inkscape:perspective
       sodipodi:type="inkscape:persp3d"
       inkscape:vp_x="0 : 64 : 1"
       inkscape:vp_y="0 : 1000 : 0"
       inkscape:vp_z="128 : 64 : 1"
       inkscape:persp3d-origin="64 : 42.666667 : 1"
       id="perspective112" />
    <linearGradient
       inkscape:collect="always"
       id="linearGradient5859">
      <stop
         style="stop-color:#475259;stop-opacity:1;"
         offset="0"
         id="stop5861" />
      <stop
         style="stop-color:#475259;stop-opacity:0;"
         offset="1"
         id="stop5863" />
    </linearGradient>
    <linearGradient
       inkscape:collect="always"
       id="linearGradient5751">
      <stop
         style="stop-color:#ffffff;stop-opacity:1;"
         offset="0"
         id="stop5753" />
      <stop
         style="stop-color:#ffffff;stop-opacity:0;"
         offset="1"
         id="stop5755" />
    </linearGradient>
    <linearGradient
       inkscape:collect="always"
       id="linearGradient5735">
      <stop
         style="stop-color:#ffffff;stop-opacity:1;"
         offset="0"
         id="stop5737" />
      <stop
         style="stop-color:#ffffff;stop-opacity:0;"
         offset="1"
         id="stop5739" />
    </linearGradient>
    <linearGradient
       inkscape:collect="always"
       id="linearGradient5723">
      <stop
         style="stop-color:#ffffff;stop-opacity:1;"
         offset="0"
         id="stop5725" />
      <stop
         style="stop-color:#ffffff;stop-opacity:0;"
         offset="1"
         id="stop5727" />
    </linearGradient>
    <linearGradient
       inkscape:collect="always"
       id="linearGradient5534">
      <stop
         style="stop-color:#ffffff;stop-opacity:1;"
         offset="0"
         id="stop5536" />
      <stop
         style="stop-color:#ffffff;stop-opacity:0;"
         offset="1"
         id="stop5538" />
    </linearGradient>
    <linearGradient
       inkscape:collect="always"
       id="linearGradient5493">
      <stop
         style="stop-color:#f0eef2;stop-opacity:1"
         offset="0"
         id="stop5495" />
      <stop
         style="stop-color:#ababb8;stop-opacity:1"
         offset="1"
         id="stop5497" />
    </linearGradient>
    <linearGradient
       id="linearGradient4029">
      <stop
         id="stop4031"
         offset="0"
         style="stop-color:#a6abbc;stop-opacity:1" />
      <stop
         style="stop-color:#908e9d;stop-opacity:1"
         offset="0.1185369"
         id="stop4041" />
      <stop
         id="stop4043"
         offset="0.35540977"
         style="stop-color:#fdfafd;stop-opacity:1" />
      <stop
         style="stop-color:#e4e3e7;stop-opacity:1"
         offset="0.58570284"
         id="stop4039-5" />
      <stop
         style="stop-color:#1f2e35;stop-opacity:1;"
         offset="0.63834125"
         id="stop4037-5" />
      <stop
         id="stop4045"
         offset="0.90153337"
         style="stop-color:#c8c8c9;stop-opacity:1" />
      <stop
         id="stop4033"
         offset="1"
         style="stop-color:#e1e2e2;stop-opacity:1" />
    </linearGradient>
    <linearGradient
       id="linearGradient5180">
      <stop
         id="stop5182"
         offset="0"
         style="stop-color:#a6abbc;stop-opacity:1" />
      <stop
         style="stop-color:#908e9d;stop-opacity:1"
         offset="0.1185369"
         id="stop5184" />
      <stop
         id="stop5186"
         offset="0.35540977"
         style="stop-color:#fdfafd;stop-opacity:1" />
      <stop
         style="stop-color:#e4e3e7;stop-opacity:1"
         offset="0.58570284"
         id="stop5188" />
      <stop
         style="stop-color:#1f2e35;stop-opacity:1;"
         offset="0.63834125"
         id="stop5190" />
      <stop
         id="stop5192"
         offset="0.90153337"
         style="stop-color:#c8c8c9;stop-opacity:1" />
      <stop
         id="stop5194"
         offset="1"
         style="stop-color:#e1e2e2;stop-opacity:1" />
    </linearGradient>
    <filter
       inkscape:collect="always"
       id="filter5431">
      <feGaussianBlur
         inkscape:collect="always"
         stdDeviation="0.28065758"
         id="feGaussianBlur5433" />
    </filter>
    <filter
       inkscape:collect="always"
       id="filter5459">
      <feGaussianBlur
         inkscape:collect="always"
         stdDeviation="0.21956031"
         id="feGaussianBlur5461" />
    </filter>
    <filter
       inkscape:collect="always"
       id="filter5473"
       x="-0.039792927"
       width="1.0795859"
       y="-0.23949447"
       height="1.4789889">
      <feGaussianBlur
         inkscape:collect="always"
         stdDeviation="0.6735782"
         id="feGaussianBlur5475" />
    </filter>
    <mask
       maskUnits="userSpaceOnUse"
       id="mask5477">
      <path
         id="path5479"
         d="m 39.3125,100.91875 0,6 c 0,1.57938 9.098961,2.75 20.3125,2.75 11.213538,0 20.3125,-1.17062 20.3125,-2.75 l 0,-6 -40.625,0 z"
         style="fill:#ffffff;fill-opacity:1;stroke:#ffffff;stroke-opacity:1;filter:url(#filter5473)"
         sodipodi:nodetypes="ccsccc" />
    </mask>
    <linearGradient
       inkscape:collect="always"
       xlink:href="#linearGradient5180"
       id="linearGradient5481"
       gradientUnits="userSpaceOnUse"
       gradientTransform="translate(0,4)"
       x1="39.3125"
       y1="104.59375"
       x2="79.9375"
       y2="104.59375" />
    <linearGradient
       inkscape:collect="always"
       xlink:href="#linearGradient5180"
       id="linearGradient5483"
       gradientUnits="userSpaceOnUse"
       x1="39.3125"
       y1="104.59375"
       x2="79.9375"
       y2="104.59375"
       gradientTransform="matrix(1.1801789,0,0,1.1801789,-8.336922,-6.999998)" />
    <linearGradient
       inkscape:collect="always"
       xlink:href="#linearGradient4029"
       id="linearGradient5491"
       x1="47.977589"
       y1="60.163242"
       x2="64.090324"
       y2="60.163242"
       gradientUnits="userSpaceOnUse"
       gradientTransform="matrix(0.74475607,0,0,0.74475607,20.268389,37.656302)" />
    <linearGradient
       inkscape:collect="always"
       xlink:href="#linearGradient5493"
       id="linearGradient5499"
       x1="54.277924"
       y1="105.83116"
       x2="54.277924"
       y2="93.730415"
       gradientUnits="userSpaceOnUse"
       gradientTransform="translate(8,12)" />
    <filter
       inkscape:collect="always"
       id="filter5526"
       x="-0.032319272"
       width="1.0646385"
       y="-0.22946699"
       height="1.458934">
      <feGaussianBlur
         inkscape:collect="always"
         stdDeviation="0.16240479"
         id="feGaussianBlur5528" />
    </filter>
    <clipPath
       clipPathUnits="userSpaceOnUse"
       id="clipPath5542">
      <path
         sodipodi:nodetypes="csszc"
         id="path5544"
         d="m 77.992261,100.45626 c 0,1.86395 -10.728263,3.25694 -23.962245,3.25694 -13.233982,0 -23.962244,-1.39299 -23.962244,-3.25694 0,-1.863935 12.410814,-3.492977 23.962244,-3.492977 11.551432,0 23.962245,1.629042 23.962245,3.492977 z"
         style="fill:url(#linearGradient5546);fill-opacity:1;stroke:none" />
    </clipPath>
    <linearGradient
       inkscape:collect="always"
       xlink:href="#linearGradient5534"
       id="linearGradient5546"
       gradientUnits="userSpaceOnUse"
       x1="51.997799"
       y1="99.062103"
       x2="51.997799"
       y2="105.50121" />
    <filter
       inkscape:collect="always"
       id="filter5548">
      <feGaussianBlur
         inkscape:collect="always"
         stdDeviation="0.092554194"
         id="feGaussianBlur5550" />
    </filter>
    <linearGradient
       inkscape:collect="always"
       xlink:href="#linearGradient4029"
       id="linearGradient5552"
       gradientUnits="userSpaceOnUse"
       gradientTransform="matrix(0.74475607,0,0,0.74475607,12.268389,25.656302)"
       x1="48.065353"
       y1="60.163242"
       x2="63.994678"
       y2="60.163242" />
    <filter
       inkscape:collect="always"
       id="filter5571"
       x="-0.20265163"
       width="1.4053033"
       y="-0.24318195"
       height="1.4863639">
      <feGaussianBlur
         inkscape:collect="always"
         stdDeviation="0.22390053"
         id="feGaussianBlur5573" />
    </filter>
    <filter
       inkscape:collect="always"
       id="filter5661">
      <feGaussianBlur
         inkscape:collect="always"
         stdDeviation="1.8194563"
         id="feGaussianBlur5663" />
    </filter>
    <filter
       inkscape:collect="always"
       id="filter5665">
      <feGaussianBlur
         inkscape:collect="always"
         stdDeviation="1.8194563"
         id="feGaussianBlur5667" />
    </filter>
    <filter
       inkscape:collect="always"
       id="filter5669"
       x="-0.11625174"
       width="1.2325035"
       y="-0.11625175"
       height="1.2325035">
      <feGaussianBlur
         inkscape:collect="always"
         stdDeviation="1.8194563"
         id="feGaussianBlur5671" />
    </filter>
    <filter
       inkscape:collect="always"
       id="filter5705">
      <feGaussianBlur
         inkscape:collect="always"
         stdDeviation="0.12895692"
         id="feGaussianBlur5707" />
    </filter>
    <linearGradient
       inkscape:collect="always"
       xlink:href="#linearGradient5723"
       id="linearGradient5729"
       x1="63.508701"
       y1="15.226612"
       x2="63.508701"
       y2="32.639488"
       gradientUnits="userSpaceOnUse" />
    <linearGradient
       inkscape:collect="always"
       xlink:href="#linearGradient5735"
       id="linearGradient5741"
       x1="61.531513"
       y1="26.72184"
       x2="61.531513"
       y2="38.500908"
       gradientUnits="userSpaceOnUse" />
    <filter
       inkscape:collect="always"
       id="filter5743">
      <feGaussianBlur
         inkscape:collect="always"
         stdDeviation="0.093052035"
         id="feGaussianBlur5745" />
    </filter>
    <linearGradient
       inkscape:collect="always"
       xlink:href="#linearGradient5751"
       id="linearGradient5757"
       x1="65.223007"
       y1="40.360008"
       x2="65.223007"
       y2="50.357944"
       gradientUnits="userSpaceOnUse" />
    <filter
       inkscape:collect="always"
       id="filter5763">
      <feGaussianBlur
         inkscape:collect="always"
         stdDeviation="0.056343607"
         id="feGaussianBlur5765" />
    </filter>
    <radialGradient
       inkscape:collect="always"
       xlink:href="#linearGradient4029"
       id="radialGradient5815"
       cx="52.197342"
       cy="61.875"
       fx="52.197342"
       fy="61.875"
       r="3.75"
       gradientTransform="matrix(2,0,0,1.9999994,-52.207183,-63.749964)"
       gradientUnits="userSpaceOnUse" />
    <filter
       inkscape:collect="always"
       id="filter5819">
      <feGaussianBlur
         inkscape:collect="always"
         stdDeviation="0.17332075"
         id="feGaussianBlur5821" />
    </filter>
    <mask
       maskUnits="userSpaceOnUse"
       id="mask5823">
      <rect
         style="fill:#ffffff;fill-opacity:1;stroke:none;filter:url(#filter5819)"
         id="rect5825"
         width="20.771261"
         height="8.485281"
         x="52.679455"
         y="51.190525"
         transform="matrix(0.625,0,0,0.625,17.1875,22.5)" />
    </mask>
    <clipPath
       clipPathUnits="userSpaceOnUse"
       id="clipPath5847">
      <path
         style="fill:url(#radialGradient5851);fill-opacity:1;stroke:none"
         mask="none"
         d="m 56,53.59375 c 0,-3.313709 2.686291,-6 6,-6 3.313709,0 6,2.686291 6,6 l -6,0 z"
         id="path5849" />
    </clipPath>
    <radialGradient
       inkscape:collect="always"
       xlink:href="#linearGradient4029"
       id="radialGradient5851"
       gradientUnits="userSpaceOnUse"
       gradientTransform="matrix(3.2,0,0,3.199999,-111.03149,-144.40619)"
       cx="52.197342"
       cy="61.875"
       fx="52.197342"
       fy="61.875"
       r="3.75" />
    <filter
       inkscape:collect="always"
       id="filter5853"
       x="-0.063981043"
       width="1.1279621"
       y="-0.12796209"
       height="1.2559242">
      <feGaussianBlur
         inkscape:collect="always"
         stdDeviation="0.31990521"
         id="feGaussianBlur5855" />
    </filter>
    <linearGradient
       inkscape:collect="always"
       xlink:href="#linearGradient5859"
       id="linearGradient5865"
       x1="56"
       y1="83.5"
       x2="56.75"
       y2="83.5"
       gradientUnits="userSpaceOnUse" />
    <linearGradient
       inkscape:collect="always"
       xlink:href="#linearGradient5859"
       id="linearGradient2900"
       gradientUnits="userSpaceOnUse"
       x1="56"
       y1="83.5"
       x2="56.75"
       y2="83.5"
       gradientTransform="translate(61,0)" />
    <linearGradient
       inkscape:collect="always"
       xlink:href="#linearGradient5859"
       id="linearGradient2904"
       gradientUnits="userSpaceOnUse"
       gradientTransform="translate(60,0)"
       x1="56"
       y1="83.5"
       x2="56.75"
       y2="83.5" />
  </defs>
  <sodipodi:namedview
     id="base"
     pagecolor="#ffffff"
     bordercolor="#666666"
     borderopacity="1.0"
     gridtolerance="10000"
     guidetolerance="10"
     objecttolerance="10"
     inkscape:pageopacity="0.0"
     inkscape:pageshadow="2"
     inkscape:zoom="4"
     inkscape:cx="48.559774"
     inkscape:cy="86.300322"
     inkscape:document-units="px"
     inkscape:current-layer="layer1"
     width="128px"
     height="128px"
     showgrid="false"
     showborder="true"
     inkscape:showpageshadow="false"
     inkscape:window-width="1187"
     inkscape:window-height="988"
     inkscape:window-x="301"
     inkscape:window-y="11"
     inkscape:snap-bbox="true"
     inkscape:snap-nodes="true"
     inkscape:object-paths="true"
     inkscape:snap-global="true"
     inkscape:snap-smooth-nodes="false"
     showguides="true"
     inkscape:guide-bbox="true">
    <inkscape:grid
       id="GridFromPre046Settings"
       type="xygrid"
       originx="0px"
       originy="0px"
       spacingx="4px"
       spacingy="4px"
       color="#0000ff"
       empcolor="#0000ff"
       opacity="0.2"
       empopacity="0.4"
       empspacing="2" />
  </sodipodi:namedview>
  <metadata
     id="metadata7">
    <rdf:RDF>
      <cc:Work
         rdf:about="">
        <dc:format>image/svg+xml</dc:format>
        <dc:type
           rdf:resource="http://purl.org/dc/dcmitype/StillImage" />
        <dc:title></dc:title>
      </cc:Work>
    </rdf:RDF>
  </metadata>
  <g
     inkscape:label="Layer 1"
     inkscape:groupmode="layer"
     id="layer1">
    <path
       sodipodi:nodetypes="csssccsssc"
       id="path5621"
       d="m 62,17.014361 c -23.732851,0 -42.985639,19.252788 -42.985639,42.985639 0,23.732851 19.252788,42.98564 42.985639,42.98564 23.732851,0 42.98564,-19.252789 42.98564,-42.98564 C 104.98564,36.267149 85.732851,17.014361 62,17.014361 z m 0,2.046689 c 23.181181,0 41.95973,18.778548 41.95973,41.959729 0,23.18118 -18.778549,41.959731 -41.95973,41.959731 -23.181181,0 -41.959729,-18.778551 -41.959729,-41.959731 C 20.040271,37.839598 38.818819,19.06105 62,19.06105 z"
       style="font-size:medium;font-style:normal;font-variant:normal;font-weight:normal;font-stretch:normal;text-indent:0;text-align:start;text-decoration:none;line-height:normal;letter-spacing:normal;word-spacing:normal;text-transform:none;direction:ltr;block-progression:tb;writing-mode:lr-tb;text-anchor:start;opacity:1;color:#000000;fill:#7bb420;fill-opacity:1;stroke:none;stroke-width:0.62187367999999998;marker:none;visibility:visible;display:inline;overflow:visible;enable-background:accumulate;font-family:Bitstream Vera Sans;-inkscape-font-specification:Bitstream Vera Sans;filter:url(#filter5661)" />
    <path
       sodipodi:nodetypes="csssccsssc"
       id="path5623"
       d="m 62.000001,28.982656 c -17.122494,0 -31.017345,13.894851 -31.017345,31.017345 0,17.122493 13.894851,31.017345 31.017345,31.017345 17.122493,0 31.017345,-13.894852 31.017345,-31.017345 0,-17.122494 -13.894852,-31.017345 -31.017345,-31.017345 z m 0,2.056235 c 16.568662,0 29.985889,13.417227 29.985889,29.985889 0,16.568662 -13.417227,29.98589 -29.985889,29.98589 -16.568663,0 -29.985889,-13.417228 -29.985889,-29.98589 0,-16.568662 13.417226,-29.985889 29.985889,-29.985889 z"
       style="font-size:medium;font-style:normal;font-variant:normal;font-weight:normal;font-stretch:normal;text-indent:0;text-align:start;text-decoration:none;line-height:normal;letter-spacing:normal;word-spacing:normal;text-transform:none;direction:ltr;block-progression:tb;writing-mode:lr-tb;text-anchor:start;opacity:1;color:#000000;fill:#7bb420;fill-opacity:1;stroke:none;stroke-width:0.86933625000000003;marker:none;visibility:visible;display:inline;overflow:visible;enable-background:accumulate;font-family:Bitstream Vera Sans;-inkscape-font-specification:Bitstream Vera Sans;filter:url(#filter5665)" />
    <path
       sodipodi:nodetypes="csssccsssc"
       id="path5625"
       d="m 62.000001,41.218798 c -10.362452,0 -18.781203,8.418751 -18.781203,18.781202 0,10.362452 8.418751,18.781202 18.781203,18.781202 10.362451,0 18.781202,-8.41875 18.781202,-18.781202 0,-10.362451 -8.418751,-18.781202 -18.781202,-18.781202 z m 0,2.0152 c 9.822012,0 17.766002,7.94399 17.766002,17.766002 0,9.822012 -7.94399,17.766002 -17.766002,17.766002 -9.822013,0 -17.766003,-7.94399 -17.766003,-17.766002 0,-9.822012 7.94399,-17.766002 17.766003,-17.766002 z"
       style="font-size:medium;font-style:normal;font-variant:normal;font-weight:normal;font-stretch:normal;text-indent:0;text-align:start;text-decoration:none;line-height:normal;letter-spacing:normal;word-spacing:normal;text-transform:none;direction:ltr;block-progression:tb;writing-mode:lr-tb;text-anchor:start;opacity:1;color:#000000;fill:#7bb420;fill-opacity:1;stroke:none;stroke-width:1.41597700000000004;marker:none;visibility:visible;display:inline;overflow:visible;enable-background:accumulate;font-family:Bitstream Vera Sans;-inkscape-font-specification:Bitstream Vera Sans;filter:url(#filter5669)" />
    <path
       sodipodi:type="inkscape:offset"
       inkscape:radius="-0.28135335"
       inkscape:original="M 62 17 C 38.267149 17 19 36.267149 19 60 C 19 83.732851 38.267149 103 62 103 C 85.732851 103 105 83.732851 105 60 C 105 36.267149 85.732851 17 62 17 z M 62 19.0625 C 85.181181 19.0625 103.96875 37.850069 103.96875 61.03125 C 103.96875 84.21243 85.181181 102.96875 62 102.96875 C 38.818819 102.96875 20.03125 84.21243 20.03125 61.03125 C 20.03125 37.850069 38.818819 19.0625 62 19.0625 z "
       style="font-size:medium;font-style:normal;font-variant:normal;font-weight:normal;font-stretch:normal;text-indent:0;text-align:start;text-decoration:none;line-height:normal;letter-spacing:normal;word-spacing:normal;text-transform:none;direction:ltr;block-progression:tb;writing-mode:lr-tb;text-anchor:start;color:#000000;fill:#ecffdf;fill-opacity:1;stroke:none;stroke-width:0.62187368;marker:none;visibility:visible;display:inline;overflow:visible;filter:url(#filter5705);enable-background:accumulate;font-family:Bitstream Vera Sans;-inkscape-font-specification:Bitstream Vera Sans"
       id="path5773"
       d="m 62,17.28125 c -23.580576,0 -42.71875,19.138174 -42.71875,42.71875 0,7.36893 1.866819,14.29097 5.15625,20.34375 C 21.449499,74.553428 19.75,67.999416 19.75,61.03125 c 0,-23.333199 18.916801,-42.25 42.25,-42.25 23.333199,0 42.25,18.916801 42.25,42.25 0,6.968166 -1.6995,13.522178 -4.6875,19.3125 C 102.85193,74.29097 104.71875,67.36893 104.71875,60 104.71875,36.419424 85.580576,17.28125 62,17.28125 z" />
    <path
       sodipodi:type="inkscape:offset"
       inkscape:radius="-0.2101195"
       inkscape:original="M 62 28.96875 C 44.877506 28.96875 30.96875 42.877506 30.96875 60 C 30.96875 75.046802 41.716139 87.583565 55.9375 90.40625 C 42.284386 87.600227 32 75.518386 32 61.03125 C 32 44.462588 45.431337 31.03125 62 31.03125 C 78.568662 31.03125 92 44.462588 92 61.03125 C 92 75.518386 81.715614 87.600227 68.0625 90.40625 C 82.28386 87.583565 93.03125 75.046802 93.03125 60 C 93.03125 42.877506 79.122493 28.96875 62 28.96875 z M 57.21875 90.53125 C 58.787667 90.776014 60.362734 91.03125 62 91.03125 C 63.637266 91.03125 65.212333 90.776014 66.78125 90.53125 C 65.211346 90.784742 63.641778 91 62 91 C 60.358222 91 58.788654 90.784742 57.21875 90.53125 z "
       style="font-size:medium;font-style:normal;font-variant:normal;font-weight:normal;font-stretch:normal;text-indent:0;text-align:start;text-decoration:none;line-height:normal;letter-spacing:normal;word-spacing:normal;text-transform:none;direction:ltr;block-progression:tb;writing-mode:lr-tb;text-anchor:start;color:#000000;fill:#ecffdf;fill-opacity:1;stroke:none;stroke-width:0.86933625;marker:none;visibility:visible;display:inline;overflow:visible;filter:url(#filter5743);enable-background:accumulate;font-family:Bitstream Vera Sans;-inkscape-font-specification:Bitstream Vera Sans"
       id="path5775"
       d="m 62,29.1875 c -17.008706,0 -30.8125,13.803794 -30.8125,30.8125 0,6.683634 2.158276,12.860387 5.78125,17.90625 -3.256526,-4.818188 -5.1875,-10.62324 -5.1875,-16.875 0,-16.682217 13.536532,-30.21875 30.21875,-30.21875 16.682217,0 30.21875,13.536533 30.21875,30.21875 0,6.25176 -1.930974,12.056812 -5.1875,16.875 C 90.654224,72.860387 92.8125,66.683634 92.8125,60 92.8125,42.991294 79.008705,29.1875 62,29.1875 z" />
    <path
       sodipodi:type="inkscape:offset"
       inkscape:radius="-0.16745582"
       inkscape:original="M 62 41.21875 C 51.637548 41.21875 43.21875 49.637549 43.21875 60 C 43.21875 70.362452 51.637548 78.78125 62 78.78125 C 52.177987 78.78125 44.21875 70.822012 44.21875 61 C 44.21875 51.177988 52.177987 43.21875 62 43.21875 C 71.822012 43.21875 79.78125 51.177988 79.78125 61 C 79.78125 70.822012 71.822012 78.78125 62 78.78125 C 72.362451 78.78125 80.78125 70.362452 80.78125 60 C 80.78125 49.637549 72.362451 41.21875 62 41.21875 z "
       style="font-size:medium;font-style:normal;font-variant:normal;font-weight:normal;font-stretch:normal;text-indent:0;text-align:start;text-decoration:none;line-height:normal;letter-spacing:normal;word-spacing:normal;text-transform:none;direction:ltr;block-progression:tb;writing-mode:lr-tb;text-anchor:start;color:#000000;fill:#ecffdf;fill-opacity:1;stroke:none;stroke-width:1.415977;marker:none;visibility:visible;display:inline;overflow:visible;filter:url(#filter5763);enable-background:accumulate;font-family:Bitstream Vera Sans;-inkscape-font-specification:Bitstream Vera Sans"
       id="path5777"
       d="m 62,41.375 c -10.271754,0 -18.625,8.353247 -18.625,18.625 0,4.771206 1.824162,9.110385 4.78125,12.40625 C 45.595719,69.303631 44.0625,65.336709 44.0625,61 c 0,-9.912477 8.025022,-17.9375 17.9375,-17.9375 9.912477,0 17.9375,8.025023 17.9375,17.9375 0,4.336709 -1.533219,8.303631 -4.09375,11.40625 C 78.800838,69.110385 80.625,64.771206 80.625,60 80.625,49.728247 72.271753,41.375 62,41.375 z" />
    <path
       sodipodi:nodetypes="csszc"
       id="path3799"
       d="m 79.927862,105.21877 c 0,1.57938 -9.090369,2.7597 -20.303907,2.7597 -11.213539,0 -20.303908,-1.18032 -20.303908,-2.7597 0,-1.57937 10.516044,-2.95971 20.303908,-2.95971 9.787864,0 20.303907,1.38034 20.303907,2.95971 z"
       style="fill:#000000;fill-opacity:1;stroke:#000000;stroke-opacity:1;filter:url(#filter5459)"
       transform="matrix(1.1510276,0,0,1.1822358,-6.598798,-7.216213)" />
    <path
       style="fill:url(#linearGradient5483);fill-opacity:1;stroke:none"
       d="m 38.058865,112.45624 0,4.72071 c 0,1.86396 10.738402,3.2455 23.972385,3.2455 13.233982,0 23.972385,-1.38154 23.972385,-3.2455 l 0,-4.72071 -47.94477,0 z"
       id="rect3801" />
    <path
       style="fill:url(#linearGradient5499);fill-opacity:1;stroke:none"
       d="m 85.992261,112.45626 c 0,1.86395 -10.728263,3.25694 -23.962245,3.25694 -13.233982,0 -23.962244,-1.39299 -23.962244,-3.25694 0,-1.86393 12.410814,-3.49298 23.962244,-3.49298 11.551432,0 23.962245,1.62905 23.962245,3.49298 z"
       id="path3796"
       sodipodi:nodetypes="csszc" />
    <path
       style="opacity:0.56521738;fill:url(#linearGradient5481);fill-opacity:1;stroke:none;filter:url(#filter5431)"
       d="m 39.3125,105.21875 0,4 c 0,1.57938 9.098961,2.75 20.3125,2.75 11.213538,0 20.3125,-1.17062 20.3125,-2.75 l 0,-4 c 0,1.57938 -9.098962,2.75 -20.3125,2.75 -11.213539,0 -20.3125,-1.17062 -20.3125,-2.75 z"
       id="path5420"
       mask="url(#mask5477)"
       transform="matrix(1.1801789,0,0,1.1801789,-8.336922,-6.999998)" />
    <path
       style="opacity:0.57004831000000000;fill:#f6ffd3;fill-opacity:1;stroke:none"
       d="m 38.6875,111.75 c -0.395515,0.2328 -0.625,0.47477 -0.625,0.71875 0,0.0112 -7.73e-4,0.0201 0,0.0313 15.842895,0.54509 31.860234,0.3924 47.9375,0 7.73e-4,-0.0112 0,-0.02 0,-0.0313 0,-0.24398 -0.229485,-0.48595 -0.625,-0.71875 -15.5625,0.48117 -31.125,0.68938 -46.6875,0 z"
       id="rect5779"
       sodipodi:nodetypes="csccscc" />
    <path
       sodipodi:nodetypes="csszc"
       id="path5506"
       d="m 60.060033,100.06794 c 0,0.46906 -2.699731,1.1196 -6.030017,1.1196 C 50.69973,101.18754 48,100.537 48,100.06794 c 0,-0.469052 3.123139,-0.578995 6.030016,-0.578995 2.906879,0 6.030017,0.109943 6.030017,0.578995 z"
       style="fill:#000000;fill-opacity:1;stroke:none;filter:url(#filter5526)"
       transform="matrix(0.99004431,0,0,1,8.5379063,12)" />
    <path
       style="fill:url(#linearGradient5491);fill-opacity:1;stroke:none"
       d="m 62,54 c -3.313708,0 -6,2.686292 -6,6 0,20 0,51.36879 0,52 0,0.46864 2.723997,1 6,1 3.276004,0 6,-0.51928 6,-1 0,-12 0,-36 0,-52 0,-3.313708 -2.686292,-6 -6,-6 z"
       id="path5485"
       sodipodi:nodetypes="csssssc" />
    <path
       sodipodi:nodetypes="cssscc"
       id="path5530"
       d="m 48,119.5 c 0,20 0,-20.131214 0,-19.5 0,0.46864 2.723997,1 6,1 3.276004,0 6,-0.51928 6,-1 0,-12 0,35.5 0,19.5 l -12,0 z"
       style="opacity:0.77294683;fill:url(#linearGradient5552);fill-opacity:1;stroke:none;filter:url(#filter5548)"
       clip-path="url(#clipPath5542)"
       transform="translate(8,12)" />
    <path
       sodipodi:type="inkscape:offset"
       inkscape:radius="-0.41148615"
       inkscape:original="M 62 17 C 38.267149 17 19 36.267149 19 60 C 19 83.732851 38.267149 103 62 103 C 85.732851 103 105 83.732851 105 60 C 105 36.267149 85.732851 17 62 17 z M 62 19.0625 C 85.181181 19.0625 103.96875 37.850069 103.96875 61.03125 C 103.96875 84.21243 85.181181 102.96875 62 102.96875 C 38.818819 102.96875 20.03125 84.21243 20.03125 61.03125 C 20.03125 37.850069 38.818819 19.0625 62 19.0625 z "
       style="font-size:medium;font-style:normal;font-variant:normal;font-weight:normal;font-stretch:normal;text-indent:0;text-align:start;text-decoration:none;line-height:normal;letter-spacing:normal;word-spacing:normal;text-transform:none;direction:ltr;block-progression:tb;writing-mode:lr-tb;text-anchor:start;color:#000000;fill:url(#linearGradient5729);fill-opacity:1;stroke:none;stroke-width:0.62187368;marker:none;visibility:visible;display:inline;overflow:visible;enable-background:accumulate;font-family:Bitstream Vera Sans;-inkscape-font-specification:Bitstream Vera Sans"
       id="path5695"
       d="m 62,17.40625 c -23.510145,0 -42.59375,19.083605 -42.59375,42.59375 0,3.084898 0.344875,6.1008 0.96875,9 -0.492802,-2.584315 -0.75,-5.240295 -0.75,-7.96875 0,-23.403511 18.971489,-42.375 42.375,-42.375 23.403511,0 42.375,18.971489 42.375,42.375 0,2.728455 -0.2572,5.384435 -0.75,7.96875 0.62388,-2.8992 0.96875,-5.915102 0.96875,-9 C 104.59375,36.489855 85.510145,17.40625 62,17.40625 z" />
    <path
       sodipodi:type="inkscape:offset"
       inkscape:radius="-0.42778388"
       inkscape:original="M 62 28.96875 C 44.877506 28.96875 30.96875 42.877506 30.96875 60 C 30.96875 75.046802 41.716139 87.583565 55.9375 90.40625 C 42.284386 87.600227 32 75.518386 32 61.03125 C 32 44.462588 45.431337 31.03125 62 31.03125 C 78.568662 31.03125 92 44.462588 92 61.03125 C 92 75.518386 81.715614 87.600227 68.0625 90.40625 C 82.28386 87.583565 93.03125 75.046802 93.03125 60 C 93.03125 42.877506 79.122493 28.96875 62 28.96875 z M 57.21875 90.53125 C 58.787667 90.776014 60.362734 91.03125 62 91.03125 C 63.637266 91.03125 65.212333 90.776014 66.78125 90.53125 C 65.211346 90.784742 63.641778 91 62 91 C 60.358222 91 58.788654 90.784742 57.21875 90.53125 z "
       style="font-size:medium;font-style:normal;font-variant:normal;font-weight:normal;font-stretch:normal;text-indent:0;text-align:start;text-decoration:none;line-height:normal;letter-spacing:normal;word-spacing:normal;text-transform:none;direction:ltr;block-progression:tb;writing-mode:lr-tb;text-anchor:start;color:#000000;fill:url(#linearGradient5741);fill-opacity:1;stroke:none;stroke-width:0.86933625;marker:none;visibility:visible;display:inline;overflow:visible;enable-background:accumulate;font-family:Bitstream Vera Sans;-inkscape-font-specification:Bitstream Vera Sans"
       id="path5733"
       d="m 62,29.40625 c -16.890832,0 -30.59375,13.702918 -30.59375,30.59375 0,2.066902 0.202053,4.0798 0.59375,6.03125 -0.27042,-1.629593 -0.4375,-3.293872 -0.4375,-5 0,-16.79985 13.637649,-30.4375 30.4375,-30.4375 16.79985,0 30.4375,13.63765 30.4375,30.4375 0,1.706128 -0.16708,3.370407 -0.4375,5 C 92.391697,64.0798 92.59375,62.066902 92.59375,60 92.59375,43.109168 78.890831,29.40625 62,29.40625 z" />
    <path
       sodipodi:type="inkscape:offset"
       inkscape:radius="-0.2858921"
       inkscape:original="M 62 41.21875 C 51.637548 41.21875 43.21875 49.637549 43.21875 60 C 43.21875 70.362452 51.637548 78.78125 62 78.78125 C 52.177987 78.78125 44.21875 70.822012 44.21875 61 C 44.21875 51.177988 52.177987 43.21875 62 43.21875 C 71.822012 43.21875 79.78125 51.177988 79.78125 61 C 79.78125 70.822012 71.822012 78.78125 62 78.78125 C 72.362451 78.78125 80.78125 70.362452 80.78125 60 C 80.78125 49.637549 72.362451 41.21875 62 41.21875 z "
       style="font-size:medium;font-style:normal;font-variant:normal;font-weight:normal;font-stretch:normal;text-indent:0;text-align:start;text-decoration:none;line-height:normal;letter-spacing:normal;word-spacing:normal;text-transform:none;direction:ltr;block-progression:tb;writing-mode:lr-tb;text-anchor:start;color:#000000;fill:url(#linearGradient5757);fill-opacity:1;stroke:none;stroke-width:1.415977;marker:none;visibility:visible;display:inline;overflow:visible;enable-background:accumulate;font-family:Bitstream Vera Sans;-inkscape-font-specification:Bitstream Vera Sans"
       id="path5749"
       d="m 62,41.5 c -10.207607,0 -18.5,8.292394 -18.5,18.5 0,2.784363 0.645936,5.411823 1.75,7.78125 C 44.400269,65.686256 43.9375,63.399504 43.9375,61 c 0,-9.97646 8.086039,-18.0625 18.0625,-18.0625 9.97646,0 18.0625,8.08604 18.0625,18.0625 0,2.399504 -0.462769,4.686256 -1.3125,6.78125 C 79.854064,65.411823 80.5,62.784363 80.5,60 80.5,49.792394 72.207606,41.5 62,41.5 z" />
    <path
       sodipodi:nodetypes="csssssc"
       id="path5857"
       d="m 62,54 c -3.313708,0 -6,2.686292 -6,6 0,20 0,51.36879 0,52 0,0.46864 2.723997,1 6,1 3.276004,0 6,-0.51928 6,-1 0,-12 0,-36 0,-52 0,-3.313708 -2.686292,-6 -6,-6 z"
       style="fill:url(#linearGradient5865);fill-opacity:1;stroke:none" />
    <path
       sodipodi:type="arc"
       style="fill:url(#radialGradient5815);fill-opacity:1;stroke:none"
       id="path5807"
       sodipodi:cx="55.9375"
       sodipodi:cy="60"
       sodipodi:rx="3.75"
       sodipodi:ry="3.75"
       d="m 52.1875,60 a 3.75,3.75 0 0 1 7.5,0 l -3.75,0 z"
       transform="matrix(1.6,0,0,1.6,-27.5,-36)"
       sodipodi:start="3.1415927"
       sodipodi:end="6.2831853"
       mask="url(#mask5823)" />
    <path
       sodipodi:type="arc"
       style="opacity:0.57004831000000000;fill:#edffca;fill-opacity:1;stroke:none;filter:url(#filter5571)"
       id="path5565"
       sodipodi:cx="64.435104"
       sodipodi:cy="44.428818"
       sodipodi:rx="1.3258252"
       sodipodi:ry="1.1048543"
       d="m 65.76093,44.428818 a 1.3258252,1.1048543 0 1 1 -2.651651,0 1.3258252,1.1048543 0 1 1 2.651651,0 z"
       transform="matrix(0.79050415,0,0,0.87271656,12.57081,17.764887)" />
    <path
       transform="matrix(0.4457728,0,0,0.39698731,34.78361,38.444725)"
       d="m 65.76093,44.428818 a 1.3258252,1.1048543 0 1 1 -2.651651,0 1.3258252,1.1048543 0 1 1 2.651651,0 z"
       sodipodi:ry="1.1048543"
       sodipodi:rx="1.3258252"
       sodipodi:cy="44.428818"
       sodipodi:cx="64.435104"
       id="path5805"
       style="opacity:1;fill:#f2ffe2;fill-opacity:1;stroke:none;filter:url(#filter5571)"
       sodipodi:type="arc" />
    <path
       style="fill:#39464d;fill-opacity:1;stroke:none;filter:url(#filter5853)"
       mask="none"
       d="m 62,47.19375 c -3.313709,0 -6,2.686291 -6,6 l 0.03125,0 c 0.250453,-3.083385 2.82083,-5.3 5.96875,-5.3 3.14792,0 5.718297,2.216615 5.96875,5.3 l 0.03125,0 c 0,-3.313709 -2.686291,-6 -6,-6 z"
       id="path5834"
       clip-path="url(#clipPath5847)"
       transform="translate(0,6.4)"
       sodipodi:nodetypes="cccsccc" />
    <path
       style="fill:#dbf2c1;fill-opacity:0.72578955;stroke:none"
       d="m 61,54 c -0.12447,0 -0.25241,0.02378 -0.375,0.03125 C 63.65054,54.33851 66,56.893399 66,60 c 0,16 0,40 0,52 0,0.45471 -2.46375,0.91715 -5.5,0.96875 0.17366,0.003 0.32276,0.0313 0.5,0.0313 3.276,0 6,-0.51928 6,-1 0,-12 0,-36 0,-52 0,-3.313708 -2.68629,-6 -6,-6 z"
       id="path2896" />
  </g>
</svg>
