<?xml version="1.0" encoding="UTF-8" standalone="no"?>
<!-- Created with Inkscape (http://www.inkscape.org/) -->

<svg
   xmlns:dc="http://purl.org/dc/elements/1.1/"
   xmlns:cc="http://creativecommons.org/ns#"
   xmlns:rdf="http://www.w3.org/1999/02/22-rdf-syntax-ns#"
   xmlns:svg="http://www.w3.org/2000/svg"
   xmlns="http://www.w3.org/2000/svg"
   xmlns:xlink="http://www.w3.org/1999/xlink"
   xmlns:sodipodi="http://sodipodi.sourceforge.net/DTD/sodipodi-0.dtd"
   xmlns:inkscape="http://www.inkscape.org/namespaces/inkscape"
   width="128"
   height="128"
   id="svg2606"
   sodipodi:version="0.32"
   inkscape:version="0.48.0 r9654"
   version="1.0"
   sodipodi:docname="application-x-zerosize.svgz"
   inkscape:output_extension="org.inkscape.output.svgz.inkscape"
   inkscape:export-filename="/home/pinheiro/pics/oxygen-icons/scalable/mimetypes/small/32x32/application-x-zerosize.png"
   inkscape:export-xdpi="180"
   inkscape:export-ydpi="180">
  <defs
     id="defs2608">
    <linearGradient
       id="linearGradient6131">
      <stop
         id="stop6133"
         offset="0"
         style="stop-color:#fcfcfc;stop-opacity:1" />
      <stop
         style="stop-color:#f8f8f8;stop-opacity:1"
         offset="0.52275378"
         id="stop6135" />
      <stop
         id="stop6141"
         offset="0.77457333"
         style="stop-color:#f0efef;stop-opacity:1;" />
      <stop
         id="stop6139"
         offset="0.90122044"
         style="stop-color:#e3e1e1;stop-opacity:1;" />
      <stop
         id="stop6137"
         offset="1"
         style="stop-color:#cecbcb;stop-opacity:1" />
    </linearGradient>
    <linearGradient
       inkscape:collect="always"
       xlink:href="#linearGradient6131"
       id="linearGradient3893"
       gradientUnits="userSpaceOnUse"
       gradientTransform="matrix(1.0119858,0,0,1.0119858,-0.89554075,-0.9871566)"
       x1="86.73793"
       y1="93.621468"
       x2="95.460213"
       y2="102.34375" />
    <radialGradient
       inkscape:collect="always"
       xlink:href="#linearGradient3913-5"
       id="radialGradient3919-5"
       cx="90.75"
       cy="110.25299"
       fx="90.75"
       fy="110.25299"
       r="18.750002"
       gradientTransform="matrix(1.3067347,0,0,1.3067347,-27.83617,-33.818441)"
       gradientUnits="userSpaceOnUse" />
    <linearGradient
       inkscape:collect="always"
       id="linearGradient3913-5">
      <stop
         style="stop-color:#ffffff;stop-opacity:1;"
         offset="0"
         id="stop3915-4" />
      <stop
         style="stop-color:#ffffff;stop-opacity:0;"
         offset="1"
         id="stop3917-7" />
    </linearGradient>
    <clipPath
       clipPathUnits="userSpaceOnUse"
       id="clipPath3889-6">
      <path
         sodipodi:nodetypes="cscscssc"
         inkscape:connector-curvature="0"
         id="path3891-5"
         d="m 112,82.502986 c 0,4.465301 -2.79749,6.409952 -5.27972,8.093625 -5.10854,3.46508 -14.939114,3.32536 -20.720284,3.40638 -0.081,5.781159 0.16586,15.504599 -3.29922,20.613139 -1.68367,2.48224 -5.29051,5.38687 -8.20078,5.38687 2.31803,0 4.74284,-1.33476 7.58402,-4.08481 9.14197,-8.84873 17.36714,-16.13535 25.673154,-25.297529 C 109.67612,88.503916 112,86.97878 112,82.502986 z"
         style="fill:url(#linearGradient3893);fill-opacity:1;stroke:none" />
    </clipPath>
    <filter
       color-interpolation-filters="sRGB"
       inkscape:collect="always"
       id="filter3909-6">
      <feGaussianBlur
         inkscape:collect="always"
         stdDeviation="0.43040059"
         id="feGaussianBlur3911-9" />
    </filter>
    <linearGradient
       inkscape:collect="always"
       xlink:href="#linearGradient3897-7"
       id="linearGradient3895-3"
       gradientUnits="userSpaceOnUse"
       gradientTransform="matrix(1.3731411,0,0,1.4035776,-41.378546,-43.42319)"
       x1="82.15696"
       y1="90.381706"
       x2="94.220871"
       y2="102.18401" />
    <linearGradient
       id="linearGradient3897-7">
      <stop
         style="stop-color:#fcfcfc;stop-opacity:1"
         offset="0"
         id="stop3899-4" />
      <stop
         id="stop3901-5"
         offset="0.52275378"
         style="stop-color:#f8f8f8;stop-opacity:1" />
      <stop
         style="stop-color:#f0efef;stop-opacity:1;"
         offset="0.72337759"
         id="stop3903-2" />
      <stop
         style="stop-color:#e3e1e1;stop-opacity:1;"
         offset="0.89024991"
         id="stop3905-5" />
      <stop
         style="stop-color:#cecbcb;stop-opacity:1"
         offset="1"
         id="stop3907-4" />
    </linearGradient>
    <clipPath
       clipPathUnits="userSpaceOnUse"
       id="clipPath6093-7">
      <path
         inkscape:connector-curvature="0"
         sodipodi:nodetypes="cccssccc"
         id="path6095-4"
         d="m 17.000001,8 0.782827,110 57.5,0 c 1.675283,0 3.119418,0.18058 4.9,-1.6 C 88.980763,107.60206 99.94047,96.548195 107.19904,89.224043 109.6396,86.761431 110,84.752873 110,82.5 L 110,8 z"
         style="fill:#ffffff;fill-opacity:1" />
    </clipPath>
    <radialGradient
       inkscape:collect="always"
       xlink:href="#linearGradient5982-7"
       id="radialGradient5988-0"
       cx="64"
       cy="64.004021"
       fx="63.793392"
       fy="47.274845"
       r="47.5"
       gradientTransform="matrix(1.7069944,-0.08541345,0.06979496,1.3941371,-50.362376,-20.218185)"
       gradientUnits="userSpaceOnUse" />
    <linearGradient
       inkscape:collect="always"
       id="linearGradient5982-7">
      <stop
         style="stop-color:#ffffff;stop-opacity:1;"
         offset="0"
         id="stop5984-8" />
      <stop
         style="stop-color:#ffffff;stop-opacity:0;"
         offset="1"
         id="stop5986-6" />
    </linearGradient>
    <filter
       color-interpolation-filters="sRGB"
       inkscape:collect="always"
       id="filter6171-8"
       x="-0.47870937"
       width="1.9574188"
       y="-0.51275069"
       height="2.0255013">
      <feGaussianBlur
         inkscape:collect="always"
         stdDeviation="10.140743"
         id="feGaussianBlur6173-8" />
    </filter>
    <linearGradient
       inkscape:collect="always"
       xlink:href="#linearGradient4518-3"
       id="linearGradient4524-4"
       x1="72"
       y1="0"
       x2="72"
       y2="116.40091"
       gradientUnits="userSpaceOnUse"
       gradientTransform="matrix(1.013528,0,0,1.013266,-1.5133685,-1.3073648)" />
    <linearGradient
       id="linearGradient4518-3">
      <stop
         style="stop-color:#eeecec;stop-opacity:1"
         offset="0"
         id="stop4520-1" />
      <stop
         id="stop5969-4"
         offset="0.40000001"
         style="stop-color:#f4f4f4;stop-opacity:1" />
      <stop
         style="stop-color:#f6f5f5;stop-opacity:1"
         offset="1"
         id="stop4522-9" />
    </linearGradient>
    <filter
       inkscape:collect="always"
       id="filter4123">
      <feGaussianBlur
         inkscape:collect="always"
         stdDeviation="2.028"
         id="feGaussianBlur4125" />
    </filter>
    <filter
       inkscape:collect="always"
       id="filter4087"
       x="-0.16465071"
       width="1.3293014"
       y="-0.2041295"
       height="1.408259">
      <feGaussianBlur
         inkscape:collect="always"
         stdDeviation="4.2234282"
         id="feGaussianBlur4089" />
    </filter>
    <filter
       inkscape:collect="always"
       id="filter4084">
      <feGaussianBlur
         inkscape:collect="always"
         stdDeviation="1.4598961"
         id="feGaussianBlur4086" />
    </filter>
  </defs>
  <sodipodi:namedview
     id="base"
     pagecolor="#ffffff"
     bordercolor="#666666"
     borderopacity="1.0"
     inkscape:pageopacity="0.0"
     inkscape:pageshadow="2"
     inkscape:zoom="5.6568542"
     inkscape:cx="58.25159"
     inkscape:cy="66.346638"
     inkscape:document-units="px"
     inkscape:current-layer="layer1"
     width="128px"
     height="128px"
     showgrid="true"
     inkscape:grid-points="true"
     showguides="true"
     inkscape:guide-bbox="true"
     inkscape:window-width="1224"
     inkscape:window-height="757"
     inkscape:window-x="0"
     inkscape:window-y="383"
     inkscape:snap-global="true"
     inkscape:window-maximized="0"
     inkscape:snap-page="true">
    <inkscape:grid
       id="GridFromPre046Settings"
       type="xygrid"
       originx="0px"
       originy="0px"
       spacingx="4px"
       spacingy="4px"
       color="#0000ff"
       empcolor="#0000ff"
       opacity="0.2"
       empopacity="0.4"
       empspacing="2"
       visible="true"
       enabled="true"
       snapvisiblegridlinesonly="true" />
    <sodipodi:guide
       orientation="1,0"
       position="-68,29.325902"
       id="guide4564" />
    <sodipodi:guide
       orientation="1,0"
       position="-121.62237,135.0574"
       id="guide3859" />
    <sodipodi:guide
       orientation="0,1"
       position="38.581514,-74.688154"
       id="guide4360" />
  </sodipodi:namedview>
  <metadata
     id="metadata2611">
    <rdf:RDF>
      <cc:Work
         rdf:about="">
        <dc:format>image/svg+xml</dc:format>
        <dc:type
           rdf:resource="http://purl.org/dc/dcmitype/StillImage" />
        <dc:title></dc:title>
      </cc:Work>
    </rdf:RDF>
  </metadata>
  <g
     inkscape:label="Livello 1"
     inkscape:groupmode="layer"
     id="layer1">
    <path
       style="opacity:0.45606695;fill:#000000;fill-opacity:1;filter:url(#filter4123)"
       d="m 13.333,5.3364 0,118.3304 49.8545,-0.0668 c 2.115554,-0.003 4.528919,-1.77169 7,-4.25 0.71234,-0.71442 1.440746,-1.39395 2.15625,-2.09375 0.415612,-0.40649 0.832187,-0.81443 1.25,-1.21875 7.773958,-7.40962 26.98341,-25.122599 34.21875,-33.099999 0.42065,-0.42064 0.81207,-0.8111 1.15625,-1.1875 1.46444,-1.49766 2.76158,-2.8378 2.99375,-5.8625 L 112,75.156251 111.9972,5.3364 z"
       id="path5990"
       inkscape:connector-curvature="0"
       sodipodi:nodetypes="ccsssccccccc"
       transform="matrix(1.013528,0,0,1.013266,-1.5133689,-1.3073677)" />
    <path
       sodipodi:type="inkscape:offset"
       inkscape:radius="-0.31466308"
       inkscape:original="M 13.1875 4.53125 C 12.818918 4.609246 12.529956 4.967008 12.53125 5.34375 L 12.53125 123.65625 C 12.53885 124.07954 12.920464 124.4611 13.34375 124.46875 L 62.15625 124.46875 C 63.930251 124.46875 65.829207 124.74865 68.6875 122.8125 C 68.829003 122.58432 71.218784 120.82456 70.53125 121.25 C 80.188854 112.07585 98.162197 92.41186 109.34375 81.09375 C 111.06182 79.375681 112.8125 77.674752 112.8125 73.3125 L 112.8125 5.34375 C 112.80483 4.9204809 112.42327 4.5388981 112 4.53125 L 13.34375 4.53125 C 13.29182 4.52633 13.239428 4.52633 13.1875 4.53125 z "
       style="fill:#000000;fill-opacity:1;filter:url(#filter4084)"
       id="path3314"
       d="m 13.21875,4.84375 c -0.201143,0.05725 -0.375711,0.2931131 -0.375,0.5 l 0,118.3125 c 0.0043,0.23765 0.262302,0.4957 0.5,0.5 l 48.8125,0 c 1.807099,0 3.550693,0.29821 6.34375,-1.59375 0.03611,-0.0371 0.07724,-0.0824 0.125,-0.125 0.08359,-0.0745 0.19399,-0.18448 0.3125,-0.28125 0.23702,-0.19354 0.516618,-0.41733 0.78125,-0.625 0.206542,-0.16208 0.368737,-0.26884 0.5,-0.375 a 0.31469455,0.31469455 0 0 1 0.03125,-0.0625 c 0.0046,-0.004 0.02682,0.004 0.03125,0 a 0.31469455,0.31469455 0 0 1 0.03125,-0.0625 c 0.0044,-0.004 0.02685,0.004 0.03125,0 9.639369,-9.15919 27.595222,-28.83361 38.78125,-40.15625 1.72022,-1.720217 3.375,-3.284436 3.375,-7.5625 l 0,-67.96875 c -0.004,-0.2376834 -0.26234,-0.4957056 -0.5,-0.5 l -98.65625,0 a 0.31469455,0.31469455 0 0 1 -0.03125,0 c -0.02143,-0.00203 -0.04093,-6.768e-4 -0.0625,0 -0.01078,3.384e-4 -0.02054,-0.00102 -0.03125,0 z"
       transform="matrix(1.013528,0,0,1.013266,-1.5133689,-1.3073677)" />
    <path
       style="fill:#ffffff;fill-opacity:1"
       d="m 12,4 0,120 49.999784,0 c 1.697965,0 3.967298,-0.57754 7.094784,-3.68191 8.990151,-8.92376 32.510002,-32.235741 39.866862,-39.726545 2.47359,-2.518643 3.04157,-4.572903 3.04157,-6.87703 L 112,4 z"
       id="path34"
       sodipodi:nodetypes="cccssccc"
       inkscape:connector-curvature="0" />
    <path
       style="fill:url(#linearGradient4524-4);fill-opacity:1"
       d="M 15.506762,7 C 15.162322,7 15,7.2377304 15,7.5066333 L 15,119.48009 c 0,0.83248 0.688512,1.5205 1.520292,1.51991 l 44.959416,-0.0317 c 0.05379,-4e-5 0.821348,0.0237 1.520292,0.0317 1.801712,-0.0406 3.174343,-0.76374 4.414963,-1.61442 C 68.481059,119.09069 97.540465,90.697457 106.78496,81.385896 108.1658,79.995068 109,77.38535 109,76.425341 L 109,7.5066332 C 109,7.179635 108.83457,7 108.49323,7 z"
       id="path3967"
       inkscape:connector-curvature="0"
       sodipodi:nodetypes="ccsssccscccc" />
    <path
       sodipodi:nodetypes="ccssscccccc"
       inkscape:connector-curvature="0"
       id="path5980"
       d="M 15.506762,7 C 15.162322,7 15,7.2377304 15,7.5066333 L 15,119.48009 c 0,0.83249 0.688527,1.51486 1.520292,1.51991 l 46.845657,0.2846 c 0.05379,3.3e-4 3.318172,-0.008 4.017117,5e-5 6.629458,-4.5634 31.077115,-31.337425 40.143354,-40.458653 0.66623,-0.74707 0.46379,-0.37498 1.47358,-1.628786 L 109,7.5066332 C 109,7.179635 108.83457,7 108.49323,7 z"
       style="opacity:0.84653476;fill:url(#radialGradient5988-0);fill-opacity:1" />
    <path
       style="fill:#000000"
       d=""
       id="path2197" />
    <path
       clip-path="url(#clipPath6093-7)"
       style="opacity:0.34728035;fill:#000000;fill-opacity:1;stroke:none;filter:url(#filter6171-8)"
       d="m 114.4,82.502986 c 0,4.465301 -6.19771,3.506816 -8.67994,5.190489 -5.10854,3.46508 -20.174689,2.225237 -25.955859,2.306257 -0.081,5.781159 0.786541,16.143798 0.786541,22.293818 0,2.97817 -3.440475,11.20945 -6.350745,11.20945 -2.091359,1.5337 3.488204,8.21101 6.734971,5.31989 9.501888,-8.46107 35.131682,-30.022704 43.350822,-39.262889 2.04044,-2.29392 -4.90514,-9.844666 -9.88579,-7.057015 z"
       id="path6153"
       inkscape:connector-curvature="0"
       sodipodi:nodetypes="cscscssc"
       transform="matrix(1.2713893,0,0,1.3008089,-31.411352,-31.072453)" />
    <path
       inkscape:connector-curvature="0"
       sodipodi:nodetypes="ccsccccscccccccccccccccccccccccsccc"
       id="path5191"
       d="m 20.22423,59.4404 13.97755,0 c 0.91034,15.36991 13.64009,27.55987 29.23863,27.55987 15.59849,0 28.46551,-12.18731 29.37853,-27.55987 l 11.40528,0 -6.7e-4,-3.07775 -11.40528,0 C 92.02889,40.87241 79.12356,28.3831 63.43974,28.3831 c -15.68391,0 -28.45189,12.49191 -29.23864,27.97955 l -13.97755,0 z m 43.21618,24.34222 c -6.48217,0 -12.08712,-2.64306 -16.64784,-6.5752 L 64,60 80.92763,76.78773 C 76.30134,80.9617 70.15725,83.78262 63.44041,83.78262 z M 44.55421,75.24885 C 40.22051,70.638 37.41943,64.57329 37.41943,57.76163 c 0,-6.77611 2.49169,-13.00131 6.71509,-17.62712 0.0269,-0.0269 0.11415,0.0269 0.14012,0 L 61.90176,57.90153 44.55443,75.24885 z M 83.0261,74.68926 66.09847,57.90153 83.0261,40.834 c 3.94637,4.56559 6.4353,10.41162 6.4353,16.92763 0,6.56199 -1.95134,12.16317 -6.4353,16.92763 z M 64,55.80306 46.37288,38.03604 c 0.0269,-0.0269 -0.0269,-0.11504 0,-0.14012 4.56116,-3.94171 10.54807,-6.29539 17.06753,-6.29539 6.76102,0 12.85435,2.77803 17.48722,6.99488 L 64,55.80284 z"
       style="fill:#000000;fill-opacity:0.28042327;stroke:none"
       inkscape:transform-center-x="-51.69256"
       inkscape:transform-center-y="-177.74013" />
    <path
       sodipodi:nodetypes="cscscssc"
       inkscape:connector-curvature="0"
       id="path6081"
       d="m 113.9,82.502986 c 0,4.465301 -7.96273,11.129672 -10.95287,11.553449 -6.394981,0.906328 -15.824979,-3.47754 -21.606149,-3.39652 -0.081,5.781159 3.918356,18.962455 0.453276,24.070995 -1.68367,2.48224 -3.883991,8.07209 -6.794261,8.07209 -2.091359,1.5337 3.488204,11.21101 6.734971,8.31989 9.501888,-8.46107 45.998943,-30.20138 54.218083,-39.441569 2.04044,-2.29392 -17.0724,-11.965986 -22.05305,-9.178335 z"
       style="opacity:0.49295774;fill:#000000;fill-opacity:1;stroke:none;filter:url(#filter4087)"
       clip-path="url(#clipPath6093-7)"
       transform="matrix(1.323697,0,0,1.3543271,-37.27081,-37.383179)" />
    <rect
       rx="0"
       ry="0"
       y="12.0028"
       x="104"
       height="71.9972"
       width="4"
       id="rect3747"
       style="opacity:0.49504951;fill:#000000;fill-opacity:0.41798945;stroke:none" />
    <rect
       style="opacity:0.49504951;fill:#000000;fill-opacity:0.41798945;stroke:none"
       id="rect3745"
       width="48"
       height="4"
       x="20"
       y="116"
       ry="0"
       rx="0" />
    <path
       style="fill:url(#linearGradient3895-3);fill-opacity:1;stroke:none"
       d="m 111.80692,72.373791 c 0,6.193164 -3.79585,8.890306 -7.16393,11.225476 C 97.711316,88.405175 83.444341,87.387629 75.6,87.5 c -0.109909,8.0182 0.701692,21.4147 -4,28.5 -2.284534,3.44276 -6.727129,8.38457 -10.67601,8.38457 3.145284,0 6.435454,-1.85125 10.290589,-5.66544 12.404537,-12.27278 23.56509,-22.378984 34.835341,-35.086504 2.60379,-2.935824 5.757,-5.051122 5.757,-11.258835 z"
       id="path6011"
       inkscape:connector-curvature="0"
       sodipodi:nodetypes="cscscssc" />
    <path
       style="fill:#ffffff;fill-opacity:1;stroke:none"
       d="m 111.83234,71.941762 c -0.42932,5.407885 -4.39696,7.298568 -6.55729,8.796367 C 100.15305,84.28932 93.349113,84 72,84 c 0,19.65502 0.5,28.4 -3.219913,33.20293 -2.21447,2.85919 -6.648335,6.04727 -10.26176,6.86542 4.951272,0 8.407066,-1.08166 11.641616,-4.28186 0.460141,-0.53889 1.37925,-1.54169 2.101048,-2.68043 C 76.100178,111.32051 76,99.904353 76,88 c 7.844341,-0.112342 21.630842,1.155905 28.5625,-3.65 0.63154,-0.437847 2.56984,-2.009889 3.13546,-2.57551 3.14173,-3.14173 3.82294,-5.144366 4.13438,-9.832728 z M 58.518327,124.06835 c -0.213922,0.0483 -0.425295,0.0575 -0.636038,0.0866 0.213019,-0.0234 0.421235,-0.0465 0.636038,-0.0866 z"
       id="path6122"
       inkscape:connector-curvature="0"
       sodipodi:nodetypes="cscsccccsscccc" />
    <path
       style="fill:none;stroke:url(#radialGradient3919-5);stroke-width:1.85605633;stroke-linecap:butt;stroke-linejoin:miter;stroke-miterlimit:4;stroke-opacity:1;stroke-dasharray:none;filter:url(#filter3909-6)"
       d="M 108.97651,89.508691 79.934895,118.21077"
       id="path3873"
       inkscape:connector-curvature="0"
       sodipodi:nodetypes="cc"
       clip-path="url(#clipPath3889-6)"
       transform="matrix(1.3568778,0,0,1.3869539,-40.163409,-42.054049)" />
    <rect
       style="opacity:0.49504951;fill:#000000;fill-opacity:0.41798945;stroke:none"
       id="rect2969"
       width="4"
       height="107.9972"
       x="16"
       y="12.0028"
       ry="0"
       rx="0" />
    <rect
       rx="0"
       ry="0"
       y="8"
       x="16"
       height="4.0028"
       width="92"
       id="rect3743"
       style="opacity:0.49504951;fill:#000000;fill-opacity:0.41798945;stroke:none" />
  </g>
</svg>
