<?xml version="1.0" encoding="UTF-8" standalone="no"?>
<!-- Created with Inkscape (http://www.inkscape.org/) -->

<svg
   xmlns:dc="http://purl.org/dc/elements/1.1/"
   xmlns:cc="http://creativecommons.org/ns#"
   xmlns:rdf="http://www.w3.org/1999/02/22-rdf-syntax-ns#"
   xmlns:svg="http://www.w3.org/2000/svg"
   xmlns="http://www.w3.org/2000/svg"
   xmlns:xlink="http://www.w3.org/1999/xlink"
   xmlns:sodipodi="http://sodipodi.sourceforge.net/DTD/sodipodi-0.dtd"
   xmlns:inkscape="http://www.inkscape.org/namespaces/inkscape"
   width="128"
   height="128"
   id="svg2606"
   sodipodi:version="0.32"
   inkscape:version="0.48.0 r9654"
   version="1.0"
   sodipodi:docname="application-x-blender.svgz"
   inkscape:output_extension="org.inkscape.output.svgz.inkscape"
   inkscape:export-filename="/home/pinheiro/pics/oxygen-icons/scalable/mimetypes/small/32x32/application-x-blender.png"
   inkscape:export-xdpi="180"
   inkscape:export-ydpi="180">
  <defs
     id="defs2608">
    <linearGradient
       id="linearGradient6131">
      <stop
         id="stop6133"
         offset="0"
         style="stop-color:#fcfcfc;stop-opacity:1" />
      <stop
         style="stop-color:#f8f8f8;stop-opacity:1"
         offset="0.52275378"
         id="stop6135" />
      <stop
         id="stop6141"
         offset="0.77457333"
         style="stop-color:#f0efef;stop-opacity:1;" />
      <stop
         id="stop6139"
         offset="0.90122044"
         style="stop-color:#e3e1e1;stop-opacity:1;" />
      <stop
         id="stop6137"
         offset="1"
         style="stop-color:#cecbcb;stop-opacity:1" />
    </linearGradient>
    <linearGradient
       inkscape:collect="always"
       xlink:href="#linearGradient6131"
       id="linearGradient3893"
       gradientUnits="userSpaceOnUse"
       gradientTransform="matrix(1.0119858,0,0,1.0119858,-0.89554075,-0.9871566)"
       x1="86.73793"
       y1="93.621468"
       x2="95.460213"
       y2="102.34375" />
    <radialGradient
       inkscape:collect="always"
       xlink:href="#linearGradient3913-5"
       id="radialGradient3919-5"
       cx="90.75"
       cy="110.25299"
       fx="90.75"
       fy="110.25299"
       r="18.750002"
       gradientTransform="matrix(1.3067347,0,0,1.3067347,-27.83617,-33.818441)"
       gradientUnits="userSpaceOnUse" />
    <linearGradient
       inkscape:collect="always"
       id="linearGradient3913-5">
      <stop
         style="stop-color:#ffffff;stop-opacity:1;"
         offset="0"
         id="stop3915-4" />
      <stop
         style="stop-color:#ffffff;stop-opacity:0;"
         offset="1"
         id="stop3917-7" />
    </linearGradient>
    <clipPath
       clipPathUnits="userSpaceOnUse"
       id="clipPath3889-6">
      <path
         sodipodi:nodetypes="cscscssc"
         inkscape:connector-curvature="0"
         id="path3891-5"
         d="m 112,82.502986 c 0,4.465301 -2.79749,6.409952 -5.27972,8.093625 -5.10854,3.46508 -14.939114,3.32536 -20.720284,3.40638 -0.081,5.781159 0.16586,15.504599 -3.29922,20.613139 -1.68367,2.48224 -5.29051,5.38687 -8.20078,5.38687 2.31803,0 4.74284,-1.33476 7.58402,-4.08481 9.14197,-8.84873 17.36714,-16.13535 25.673154,-25.297529 C 109.67612,88.503916 112,86.97878 112,82.502986 z"
         style="fill:url(#linearGradient3893);fill-opacity:1;stroke:none" />
    </clipPath>
    <filter
       color-interpolation-filters="sRGB"
       inkscape:collect="always"
       id="filter3909-6">
      <feGaussianBlur
         inkscape:collect="always"
         stdDeviation="0.43040059"
         id="feGaussianBlur3911-9" />
    </filter>
    <linearGradient
       inkscape:collect="always"
       xlink:href="#linearGradient3897-7"
       id="linearGradient3895-3"
       gradientUnits="userSpaceOnUse"
       gradientTransform="matrix(1.3731411,0,0,1.4035776,-41.378546,-43.42319)"
       x1="82.15696"
       y1="90.381706"
       x2="94.220871"
       y2="102.18401" />
    <linearGradient
       id="linearGradient3897-7">
      <stop
         style="stop-color:#fcfcfc;stop-opacity:1"
         offset="0"
         id="stop3899-4" />
      <stop
         id="stop3901-5"
         offset="0.52275378"
         style="stop-color:#f8f8f8;stop-opacity:1" />
      <stop
         style="stop-color:#f0efef;stop-opacity:1;"
         offset="0.72337759"
         id="stop3903-2" />
      <stop
         style="stop-color:#e3e1e1;stop-opacity:1;"
         offset="0.89024991"
         id="stop3905-5" />
      <stop
         style="stop-color:#cecbcb;stop-opacity:1"
         offset="1"
         id="stop3907-4" />
    </linearGradient>
    <clipPath
       clipPathUnits="userSpaceOnUse"
       id="clipPath6093-7">
      <path
         inkscape:connector-curvature="0"
         sodipodi:nodetypes="cccssccc"
         id="path6095-4"
         d="m 17.000001,8 0.782827,110 57.5,0 c 1.675283,0 3.119418,0.18058 4.9,-1.6 C 88.980763,107.60206 99.94047,96.548195 107.19904,89.224043 109.6396,86.761431 110,84.752873 110,82.5 L 110,8 z"
         style="fill:#ffffff;fill-opacity:1" />
    </clipPath>
    <radialGradient
       inkscape:collect="always"
       xlink:href="#linearGradient5982-7"
       id="radialGradient5988-0"
       cx="64"
       cy="64.004021"
       fx="63.793392"
       fy="47.274845"
       r="47.5"
       gradientTransform="matrix(1.7069944,-0.08541345,0.06979496,1.3941371,-50.362376,-20.218185)"
       gradientUnits="userSpaceOnUse" />
    <linearGradient
       inkscape:collect="always"
       id="linearGradient5982-7">
      <stop
         style="stop-color:#ffffff;stop-opacity:1;"
         offset="0"
         id="stop5984-8" />
      <stop
         style="stop-color:#ffffff;stop-opacity:0;"
         offset="1"
         id="stop5986-6" />
    </linearGradient>
    <filter
       color-interpolation-filters="sRGB"
       inkscape:collect="always"
       id="filter6171-8"
       x="-0.47870937"
       width="1.9574188"
       y="-0.51275069"
       height="2.0255013">
      <feGaussianBlur
         inkscape:collect="always"
         stdDeviation="10.140743"
         id="feGaussianBlur6173-8" />
    </filter>
    <linearGradient
       inkscape:collect="always"
       xlink:href="#linearGradient4518-3"
       id="linearGradient4524-4"
       x1="72"
       y1="0"
       x2="72"
       y2="116.40091"
       gradientUnits="userSpaceOnUse"
       gradientTransform="matrix(1.013528,0,0,1.013266,-1.5133685,-1.3073648)" />
    <linearGradient
       id="linearGradient4518-3">
      <stop
         style="stop-color:#eeecec;stop-opacity:1"
         offset="0"
         id="stop4520-1" />
      <stop
         id="stop5969-4"
         offset="0.40000001"
         style="stop-color:#f4f4f4;stop-opacity:1" />
      <stop
         style="stop-color:#f6f5f5;stop-opacity:1"
         offset="1"
         id="stop4522-9" />
    </linearGradient>
    <filter
       inkscape:collect="always"
       id="filter4123">
      <feGaussianBlur
         inkscape:collect="always"
         stdDeviation="2.028"
         id="feGaussianBlur4125" />
    </filter>
    <filter
       inkscape:collect="always"
       id="filter4087"
       x="-0.16465071"
       width="1.3293014"
       y="-0.2041295"
       height="1.408259">
      <feGaussianBlur
         inkscape:collect="always"
         stdDeviation="4.2234282"
         id="feGaussianBlur4089" />
    </filter>
    <filter
       inkscape:collect="always"
       id="filter4084">
      <feGaussianBlur
         inkscape:collect="always"
         stdDeviation="1.4598961"
         id="feGaussianBlur4086" />
    </filter>
    <linearGradient
       inkscape:collect="always"
       xlink:href="#linearGradient4071"
       id="linearGradient4185"
       gradientUnits="userSpaceOnUse"
       gradientTransform="translate(-62.5,2)"
       x1="279.66058"
       y1="122.8269"
       x2="279.66058"
       y2="67.528954" />
    <linearGradient
       inkscape:collect="always"
       id="linearGradient4071">
      <stop
         style="stop-color:#000000;stop-opacity:1;"
         offset="0"
         id="stop4073" />
      <stop
         style="stop-color:#000000;stop-opacity:0;"
         offset="1"
         id="stop4075" />
    </linearGradient>
    <filter
       color-interpolation-filters="sRGB"
       inkscape:collect="always"
       id="filter4275"
       x="-0.072509184"
       width="1.1450185"
       y="-0.15483126"
       height="1.3096625">
      <feGaussianBlur
         inkscape:collect="always"
         stdDeviation="2.2260123"
         id="feGaussianBlur4277" />
    </filter>
    <radialGradient
       inkscape:collect="always"
       xlink:href="#linearGradient3942"
       id="radialGradient4187"
       gradientUnits="userSpaceOnUse"
       gradientTransform="matrix(1.0394788,0,0,0.84439331,6.787183,10.311332)"
       cx="189.03362"
       cy="72.302116"
       fx="186.98212"
       fy="96.034042"
       r="37.097149" />
    <linearGradient
       id="linearGradient3942">
      <stop
         style="stop-color:#ffbf38;stop-opacity:1;"
         offset="0"
         id="stop3944" />
      <stop
         style="stop-color:#cf6600;stop-opacity:1;"
         offset="1"
         id="stop3946" />
    </linearGradient>
    <linearGradient
       inkscape:collect="always"
       xlink:href="#linearGradient4141"
       id="linearGradient4189"
       gradientUnits="userSpaceOnUse"
       x1="349.72412"
       y1="90.92189"
       x2="349.72412"
       y2="37.703979" />
    <linearGradient
       inkscape:collect="always"
       id="linearGradient4141">
      <stop
         style="stop-color:#910000;stop-opacity:1;"
         offset="0"
         id="stop4143" />
      <stop
         style="stop-color:#ff9506;stop-opacity:1"
         offset="1"
         id="stop4145" />
    </linearGradient>
    <clipPath
       clipPathUnits="userSpaceOnUse"
       id="clipPath4127">
      <path
         style="fill:url(#radialGradient4131);fill-opacity:1;fill-rule:evenodd;stroke:none"
         d="m 344.82677,37.5 c -0.97662,0.0013 -1.98217,0.274248 -2.75,0.8125 -0.78313,0.546824 -1.17298,1.201696 -1.21875,1.84375 -0.0458,0.642054 0.25271,1.310425 0.9375,1.875 3.18863,2.517246 6.36503,5.114994 9.5625,7.625 l 0.75,0.625 -0.96875,0 -29.4375,0 c -1.61843,0 -2.85982,0.363675 -3.75,1 -0.89018,0.636325 -1.43172,1.541241 -1.625,2.625 -0.32679,1.83243 1.10652,4.1875 3.8125,4.1875 4.95435,0.0065 9.96311,-0.02145 14.9375,-0.03125 l 1.03125,0 -0.84375,0.625 -26.625,19.71875 -0.0313,0 c 0.0144,-0.0058 0.0275,0.02521 -0.0625,0.09375 -1.19727,0.918198 -2.01143,2.130496 -2.3125,3.34375 -0.30107,1.213254 -0.0949,2.389641 0.625,3.3125 1.46606,1.878085 4.63431,1.92893 7.0625,-0.03125 l 14.53125,-11.90625 c 0.30908,-0.263073 0.5984,-0.01977 0.5625,0.28125 0,0 -0.2014,1.619114 -0.1875,2.53125 0.0153,0.90323 0.30166,2.814218 0.75,4.25 0.95969,3.059665 2.60501,5.870863 4.875,8.375 2.32704,2.567813 5.18767,4.626089 8.5,6.09375 3.4866,1.542745 7.26956,2.34995 11.1875,2.34375 3.91845,-0.0083 7.70284,-0.821203 11.1875,-2.375 3.31076,-1.482027 6.14235,-3.549441 8.46875,-6.125 2.26501,-2.514183 3.91538,-5.344857 4.875,-8.40625 0.48472,-1.545701 0.74882,-3.138254 0.875,-4.71875 0.12128,-1.553809 0.0954,-3.07657 -0.125,-4.625 -0.42899,-3.028886 -1.48024,-5.872985 -3.09375,-8.46875 -1.47955,-2.381865 -3.39092,-4.461287 -5.65625,-6.21875 l -23.1875,-17.8125 0,-0.03125 c -0.0904,-0.0751 -0.10767,-0.08391 -0.0313,-0.03125 l -0.0313,0 C 346.73459,37.756108 345.80839,37.4986 344.82677,37.5 z"
         id="path4129"
         inkscape:connector-curvature="0"
         sodipodi:nodetypes="ccsccccssscccccccsccccccccccccccccccccc" />
    </clipPath>
    <filter
       color-interpolation-filters="sRGB"
       inkscape:collect="always"
       id="filter4137">
      <feGaussianBlur
         inkscape:collect="always"
         stdDeviation="0.54778637"
         id="feGaussianBlur4139" />
    </filter>
    <linearGradient
       inkscape:collect="always"
       xlink:href="#linearGradient39155"
       id="linearGradient4191"
       gradientUnits="userSpaceOnUse"
       x1="34.653126"
       y1="34.57774"
       x2="34.653126"
       y2="18.921917" />
    <linearGradient
       id="linearGradient39155">
      <stop
         style="stop-color:white;stop-opacity:1;"
         offset="0"
         id="stop39157" />
      <stop
         style="stop-color:#dadada;stop-opacity:1;"
         offset="1"
         id="stop39159" />
    </linearGradient>
    <radialGradient
       inkscape:collect="always"
       xlink:href="#linearGradient3950"
       id="radialGradient4193"
       gradientUnits="userSpaceOnUse"
       gradientTransform="matrix(1,0,0,0.91226931,264.22229,6.3086151)"
       cx="-60.200909"
       cy="70.768074"
       fx="-59.847355"
       fy="76.968933"
       r="9.2070074" />
    <linearGradient
       id="linearGradient3950">
      <stop
         style="stop-color:#67a4f2;stop-opacity:1;"
         offset="0"
         id="stop3952" />
      <stop
         style="stop-color:#1161c7;stop-opacity:1;"
         offset="1"
         id="stop3954" />
    </linearGradient>
    <radialGradient
       inkscape:collect="always"
       xlink:href="#linearGradient3564"
       id="radialGradient4195"
       gradientUnits="userSpaceOnUse"
       gradientTransform="matrix(2.7611366,0,0,2.1253361,187.79384,19.235401)"
       cx="27.738966"
       cy="21.727385"
       fx="27.738966"
       fy="21.727385"
       r="20.278975" />
    <linearGradient
       inkscape:collect="always"
       id="linearGradient3564">
      <stop
         style="stop-color:white;stop-opacity:1;"
         offset="0"
         id="stop3566" />
      <stop
         style="stop-color:white;stop-opacity:0;"
         offset="1"
         id="stop3568" />
    </linearGradient>
    <radialGradient
       inkscape:collect="always"
       xlink:href="#linearGradient3564"
       id="radialGradient4197"
       gradientUnits="userSpaceOnUse"
       gradientTransform="matrix(2.7611366,0,0,2.1253361,125.4818,19.918828)"
       cx="31.967321"
       cy="21.498756"
       fx="31.967321"
       fy="21.498756"
       r="20.278975" />
    <radialGradient
       inkscape:collect="always"
       xlink:href="#linearGradient3564"
       id="radialGradient4199"
       gradientUnits="userSpaceOnUse"
       gradientTransform="matrix(4.9935111,0,0,3.8436669,75.28278,-3.3495243)"
       cx="22.361021"
       cy="12.910742"
       fx="22.361021"
       fy="12.910742"
       r="20.278975" />
    <filter
       color-interpolation-filters="sRGB"
       inkscape:collect="always"
       id="filter4168">
      <feGaussianBlur
         inkscape:collect="always"
         stdDeviation="0.47627268"
         id="feGaussianBlur4170" />
    </filter>
    <radialGradient
       r="20.278975"
       fy="12.910742"
       fx="22.361021"
       cy="12.910742"
       cx="22.361021"
       gradientTransform="matrix(4.9935111,0,0,3.8436669,75.28278,-3.3495243)"
       gradientUnits="userSpaceOnUse"
       id="radialGradient3163"
       xlink:href="#linearGradient3564"
       inkscape:collect="always" />
  </defs>
  <sodipodi:namedview
     id="base"
     pagecolor="#ffffff"
     bordercolor="#666666"
     borderopacity="1.0"
     inkscape:pageopacity="0.0"
     inkscape:pageshadow="2"
     inkscape:zoom="2.8284271"
     inkscape:cx="111.11106"
     inkscape:cy="73.612173"
     inkscape:document-units="px"
     inkscape:current-layer="layer1"
     width="128px"
     height="128px"
     showgrid="true"
     inkscape:grid-points="true"
     showguides="true"
     inkscape:guide-bbox="true"
     inkscape:window-width="1224"
     inkscape:window-height="757"
     inkscape:window-x="0"
     inkscape:window-y="383"
     inkscape:snap-global="false"
     inkscape:window-maximized="0"
     inkscape:snap-page="true">
    <inkscape:grid
       id="GridFromPre046Settings"
       type="xygrid"
       originx="0px"
       originy="0px"
       spacingx="4px"
       spacingy="4px"
       color="#0000ff"
       empcolor="#0000ff"
       opacity="0.2"
       empopacity="0.4"
       empspacing="2"
       visible="true"
       enabled="true"
       snapvisiblegridlinesonly="true" />
    <sodipodi:guide
       orientation="1,0"
       position="-68,29.325902"
       id="guide4564" />
    <sodipodi:guide
       orientation="1,0"
       position="-121.62237,135.0574"
       id="guide3859" />
    <sodipodi:guide
       orientation="0,1"
       position="38.581514,-74.688154"
       id="guide4360" />
  </sodipodi:namedview>
  <metadata
     id="metadata2611">
    <rdf:RDF>
      <cc:Work
         rdf:about="">
        <dc:format>image/svg+xml</dc:format>
        <dc:type
           rdf:resource="http://purl.org/dc/dcmitype/StillImage" />
        <dc:title></dc:title>
      </cc:Work>
    </rdf:RDF>
  </metadata>
  <g
     inkscape:label="Livello 1"
     inkscape:groupmode="layer"
     id="layer1">
    <path
       style="opacity:0.45606695;fill:#000000;fill-opacity:1;filter:url(#filter4123)"
       d="m 13.333,5.3364 0,118.3304 49.8545,-0.0668 c 2.115554,-0.003 4.528919,-1.77169 7,-4.25 0.71234,-0.71442 1.440746,-1.39395 2.15625,-2.09375 0.415612,-0.40649 0.832187,-0.81443 1.25,-1.21875 7.773958,-7.40962 26.98341,-25.122599 34.21875,-33.099999 0.42065,-0.42064 0.81207,-0.8111 1.15625,-1.1875 1.46444,-1.49766 2.76158,-2.8378 2.99375,-5.8625 L 112,75.156251 111.9972,5.3364 z"
       id="path5990"
       inkscape:connector-curvature="0"
       sodipodi:nodetypes="ccsssccccccc"
       transform="matrix(1.013528,0,0,1.013266,-1.5133689,-1.3073677)" />
    <path
       sodipodi:type="inkscape:offset"
       inkscape:radius="-0.31466308"
       inkscape:original="M 13.1875 4.53125 C 12.818918 4.609246 12.529956 4.967008 12.53125 5.34375 L 12.53125 123.65625 C 12.53885 124.07954 12.920464 124.4611 13.34375 124.46875 L 62.15625 124.46875 C 63.930251 124.46875 65.829207 124.74865 68.6875 122.8125 C 68.829003 122.58432 71.218784 120.82456 70.53125 121.25 C 80.188854 112.07585 98.162197 92.41186 109.34375 81.09375 C 111.06182 79.375681 112.8125 77.674752 112.8125 73.3125 L 112.8125 5.34375 C 112.80483 4.9204809 112.42327 4.5388981 112 4.53125 L 13.34375 4.53125 C 13.29182 4.52633 13.239428 4.52633 13.1875 4.53125 z "
       style="fill:#000000;fill-opacity:1;filter:url(#filter4084)"
       id="path3314"
       d="m 13.21875,4.84375 c -0.201143,0.05725 -0.375711,0.2931131 -0.375,0.5 l 0,118.3125 c 0.0043,0.23765 0.262302,0.4957 0.5,0.5 l 48.8125,0 c 1.807099,0 3.550693,0.29821 6.34375,-1.59375 0.03611,-0.0371 0.07724,-0.0824 0.125,-0.125 0.08359,-0.0745 0.19399,-0.18448 0.3125,-0.28125 0.23702,-0.19354 0.516618,-0.41733 0.78125,-0.625 0.206542,-0.16208 0.368737,-0.26884 0.5,-0.375 a 0.31469455,0.31469455 0 0 1 0.03125,-0.0625 c 0.0046,-0.004 0.02682,0.004 0.03125,0 a 0.31469455,0.31469455 0 0 1 0.03125,-0.0625 c 0.0044,-0.004 0.02685,0.004 0.03125,0 9.639369,-9.15919 27.595222,-28.83361 38.78125,-40.15625 1.72022,-1.720217 3.375,-3.284436 3.375,-7.5625 l 0,-67.96875 c -0.004,-0.2376834 -0.26234,-0.4957056 -0.5,-0.5 l -98.65625,0 a 0.31469455,0.31469455 0 0 1 -0.03125,0 c -0.02143,-0.00203 -0.04093,-6.768e-4 -0.0625,0 -0.01078,3.384e-4 -0.02054,-0.00102 -0.03125,0 z"
       transform="matrix(1.013528,0,0,1.013266,-1.5133689,-1.3073677)" />
    <path
       style="fill:#ffffff;fill-opacity:1"
       d="m 12,4 0,120 49.999784,0 c 1.697965,0 3.967298,-0.57754 7.094784,-3.68191 8.990151,-8.92376 32.510002,-32.235741 39.866862,-39.726545 2.47359,-2.518643 3.04157,-4.572903 3.04157,-6.87703 L 112,4 z"
       id="path34"
       sodipodi:nodetypes="cccssccc"
       inkscape:connector-curvature="0" />
    <path
       style="fill:url(#linearGradient4524-4);fill-opacity:1"
       d="M 15.506762,7 C 15.162322,7 15,7.2377304 15,7.5066333 L 15,119.48009 c 0,0.83248 0.688512,1.5205 1.520292,1.51991 l 44.959416,-0.0317 c 0.05379,-4e-5 0.821348,0.0237 1.520292,0.0317 1.801712,-0.0406 3.174343,-0.76374 4.414963,-1.61442 C 68.481059,119.09069 97.540465,90.697457 106.78496,81.385896 108.1658,79.995068 109,77.38535 109,76.425341 L 109,7.5066332 C 109,7.179635 108.83457,7 108.49323,7 z"
       id="path3967"
       inkscape:connector-curvature="0"
       sodipodi:nodetypes="ccsssccscccc" />
    <path
       sodipodi:nodetypes="ccssscccccc"
       inkscape:connector-curvature="0"
       id="path5980"
       d="M 15.506762,7 C 15.162322,7 15,7.2377304 15,7.5066333 L 15,119.48009 c 0,0.83249 0.688527,1.51486 1.520292,1.51991 l 46.845657,0.2846 c 0.05379,3.3e-4 3.318172,-0.008 4.017117,5e-5 6.629458,-4.5634 31.077115,-31.337425 40.143354,-40.458653 0.66623,-0.74707 0.46379,-0.37498 1.47358,-1.628786 L 109,7.5066332 C 109,7.179635 108.83457,7 108.49323,7 z"
       style="opacity:0.84653476;fill:url(#radialGradient5988-0);fill-opacity:1" />
    <path
       style="fill:#000000"
       d=""
       id="path2197" />
    <g
       id="g4174"
       transform="matrix(1.3031814,0,0,1.3031814,-191.56978,-28.997519)">
      <path
         sodipodi:nodetypes="ccsccccssscccccccsccccccccccccccccccccc"
         inkscape:connector-curvature="0"
         id="path4065"
         d="m 194.47306,64.66947 c -0.97876,7.53e-4 -1.98651,0.15879 -2.75602,0.470438 -0.78485,0.316612 -1.17555,0.695783 -1.22142,1.067533 -0.0459,0.37175 0.25326,0.758737 0.93955,1.085626 3.19562,1.457487 6.37898,2.961585 9.58345,4.41488 l 0.75164,0.361876 -0.97087,0 -29.50199,0 c -1.62197,0 -2.86608,0.210568 -3.75821,0.579001 -0.89213,0.368432 -1.43486,0.892379 -1.62856,1.519876 -0.32751,1.060979 1.10894,2.424566 3.82085,2.424566 4.9652,0.0038 9.98494,-0.01242 14.97022,-0.01809 l 1.03351,0 -0.8456,0.361875 -26.68332,11.41717 -0.0314,0 c 0.0144,-0.0034 0.0276,0.0146 -0.0626,0.05428 -1.19989,0.531637 -2.01583,1.233559 -2.31756,1.936034 -0.30173,0.702475 -0.0951,1.383604 0.62637,1.917939 1.46927,1.087413 4.64446,1.116852 7.07797,-0.01809 l 14.56308,-6.893727 c 0.30976,-0.15232 0.59971,-0.01145 0.56373,0.162844 0,0 -0.20184,0.937468 -0.18791,1.465595 0.0153,0.522971 0.30232,1.629434 0.75164,2.460753 0.9618,1.771548 2.61072,3.399234 4.88568,4.849131 2.33214,1.486765 5.19904,2.678509 8.51862,3.528285 3.49424,0.893251 7.28549,1.360625 11.21201,1.357035 3.92704,-0.005 7.71972,-0.475479 11.21201,-1.375129 3.31801,-0.858094 6.15581,-2.055128 8.4873,-3.546379 2.26998,-1.455713 3.92396,-3.094675 4.88568,-4.867224 0.48578,-0.894962 0.75046,-1.817051 0.87692,-2.73216 0.12155,-0.899656 0.0956,-1.781336 -0.12527,-2.677878 -0.42993,-1.753727 -1.48349,-3.400462 -3.10053,-4.903412 -1.48279,-1.379101 -3.39835,-2.583088 -5.66864,-3.60066 l -23.2383,-10.31345 0,-0.01809 c -0.0906,-0.04348 -0.1079,-0.04858 -0.0314,-0.01809 l -0.0314,0 c -0.68728,-0.304058 -1.61551,-0.453155 -2.59928,-0.452345 z"
         style="opacity:0.40167362;fill:url(#linearGradient4185);fill-opacity:1;fill-rule:evenodd;stroke:none;filter:url(#filter4275)" />
      <path
         inkscape:connector-curvature="0"
         style="fill:#f082b0;fill-rule:evenodd"
         id="polygon2501"
         d="m 222.59636,75.484101 0,0 z" />
      <path
         style="fill:url(#radialGradient4187);fill-opacity:1;fill-rule:evenodd;stroke:none"
         d="m 194.46875,37.5 c -0.97662,0.0013 -1.98217,0.274248 -2.75,0.8125 -0.78313,0.546824 -1.17298,1.201696 -1.21875,1.84375 -0.0458,0.642054 0.25271,1.310425 0.9375,1.875 3.18863,2.517246 6.36503,5.114994 9.5625,7.625 l 0.75,0.625 -0.96875,0 -29.4375,0 c -1.61843,0 -2.85982,0.363675 -3.75,1 -0.89018,0.636325 -1.43172,1.541241 -1.625,2.625 -0.32679,1.83243 1.10652,4.1875 3.8125,4.1875 4.95435,0.0065 9.96311,-0.02145 14.9375,-0.03125 l 1.03125,0 -0.84375,0.625 -26.625,19.71875 -0.0313,0 c 0.0144,-0.0058 0.0275,0.02521 -0.0625,0.09375 -1.19727,0.918198 -2.01143,2.130496 -2.3125,3.34375 -0.30107,1.213254 -0.0949,2.389641 0.625,3.3125 1.46606,1.878085 4.63431,1.92893 7.0625,-0.03125 L 178.0937,73.21875 c 0.30908,-0.263073 0.5984,-0.01977 0.5625,0.28125 0,0 -0.2014,1.619114 -0.1875,2.53125 0.0153,0.90323 0.30166,2.814218 0.75,4.25 0.95969,3.059665 2.60501,5.870863 4.875,8.375 2.32704,2.567813 5.18767,4.626089 8.5,6.09375 3.4866,1.542745 7.26956,2.34995 11.1875,2.34375 3.91845,-0.0083 7.70284,-0.821203 11.1875,-2.375 3.31076,-1.482027 6.14235,-3.549441 8.46875,-6.125 2.26501,-2.514183 3.91538,-5.344857 4.875,-8.40625 0.48472,-1.545701 0.74882,-3.138254 0.875,-4.71875 0.12128,-1.553809 0.0954,-3.07657 -0.125,-4.625 -0.42899,-3.028886 -1.48024,-5.872985 -3.09375,-8.46875 -1.47955,-2.381865 -3.39092,-4.461287 -5.65625,-6.21875 l -23.1875,-17.8125 0,-0.03125 c -0.0904,-0.0751 -0.10767,-0.08391 -0.0313,-0.03125 l -0.0313,0 C 196.37657,37.756108 195.45037,37.4986 194.46875,37.5 z"
         id="path3914"
         inkscape:connector-curvature="0"
         sodipodi:nodetypes="ccsccccssscccccccsccccccccccccccccccccc" />
      <path
         transform="translate(-150.35091,0)"
         clip-path="url(#clipPath4127)"
         style="opacity:0.68200839;fill:none;stroke:url(#linearGradient4189);stroke-opacity:1;filter:url(#filter4137)"
         d="m 344.82677,37.4 c -0.97662,0.0013 -1.98217,0.274248 -2.75,0.8125 -0.78313,0.546824 -1.17298,1.201696 -1.21875,1.84375 -0.0458,0.642054 0.25271,1.310425 0.9375,1.875 3.18863,2.517246 6.36503,5.114994 9.5625,7.625 l 0.75,0.625 -0.96875,0 -29.4375,0 c -1.61843,0 -2.85982,0.363675 -3.75,1 -0.89018,0.636325 -1.43172,1.541241 -1.625,2.625 -0.32679,1.83243 1.10652,4.1875 3.8125,4.1875 4.95435,0.0065 9.96311,-0.02145 14.9375,-0.03125 l 1.03125,0 -0.84375,0.625 -26.625,19.71875 -0.0313,0 c 0.0144,-0.0058 0.0275,0.02521 -0.0625,0.09375 -1.19727,0.918198 -2.01143,2.130496 -2.3125,3.34375 -0.30107,1.213254 -0.0949,2.389641 0.625,3.3125 1.46606,1.878085 4.63431,1.92893 7.0625,-0.03125 l 14.53125,-11.90625 c 0.30908,-0.263073 0.5984,-0.01977 0.5625,0.28125 0,0 -0.2014,1.619114 -0.1875,2.53125 0.0153,0.90323 0.30166,2.814218 0.75,4.25 0.95969,3.059665 2.60501,5.870863 4.875,8.375 2.32704,2.567813 5.18767,4.626089 8.5,6.09375 3.4866,1.542745 7.26956,2.34995 11.1875,2.34375 3.91845,-0.0083 7.70284,-0.821203 11.1875,-2.375 3.31076,-1.482027 6.14235,-3.549441 8.46875,-6.125 2.26501,-2.514183 3.91538,-5.344857 4.875,-8.40625 0.48472,-1.545701 0.74882,-3.138254 0.875,-4.71875 0.12128,-1.553809 0.0954,-3.07657 -0.125,-4.625 -0.42899,-3.028886 -1.48024,-5.872985 -3.09375,-8.46875 -1.47955,-2.381865 -3.39092,-4.461287 -5.65625,-6.21875 l -23.1875,-17.8125 0,-0.03125 c -0.0904,-0.0751 -0.10767,-0.08391 -0.0313,-0.03125 l -0.0313,0 C 346.73459,37.656108 345.80839,37.3986 344.82677,37.4 z"
         id="path4095"
         inkscape:connector-curvature="0"
         sodipodi:nodetypes="ccsccccssscccccccsccccccccccccccccccccc" />
      <path
         transform="matrix(1.3772326,0,0,1.4072121,161.08123,35.462501)"
         d="m 42.75,25.75 c 0,5.591883 -5.176708,10.125 -11.5625,10.125 -6.385792,0 -11.5625,-4.533117 -11.5625,-10.125 0,-5.591883 5.176708,-10.125 11.5625,-10.125 6.385792,0 11.5625,4.533117 11.5625,10.125 z"
         sodipodi:ry="10.125"
         sodipodi:rx="11.5625"
         sodipodi:cy="25.75"
         sodipodi:cx="31.1875"
         id="path39153"
         style="fill:url(#linearGradient4191);fill-opacity:1;fill-rule:nonzero;stroke:none;stroke-width:1;marker:none;visibility:visible;display:inline;overflow:visible;enable-background:accumulate"
         sodipodi:type="arc" />
      <path
         inkscape:connector-curvature="0"
         d="m 194.82624,70.447816 c 0.12482,-2.281626 1.23923,-4.29562 2.91448,-5.721457 1.64861,-1.401641 3.86241,-2.257469 6.28066,-2.257469 2.4167,0 4.6305,0.855828 6.27873,2.257469 1.6771,1.425837 2.79016,3.438321 2.91645,5.719947 0.12936,2.348159 -0.8093,4.528486 -2.45444,6.14333 -1.6771,1.645073 -4.06839,2.677794 -6.74074,2.677794 -2.67389,0 -5.06519,-1.032721 -6.74221,-2.677794 -1.64684,-1.614844 -2.58226,-3.795171 -2.45293,-6.14182 z"
         id="path2478"
         style="fill:url(#radialGradient4193);fill-opacity:1;fill-rule:evenodd;stroke:none" />
      <path
         transform="translate(-62.5,0)"
         d="m 257,38.34375 c -0.82051,0.0011 -1.64543,0.210545 -2.28125,0.65625 -0.59239,0.413628 -0.86962,0.90788 -0.90625,1.3125 -0.007,0.07422 -0.0121,0.318088 0.0937,0.5625 0.10588,0.244412 0.2858,0.417162 0.5,0.59375 0.0637,0.05281 0.0536,0.0413 0.0937,0.0625 a 0.70717748,0.70717748 0 0 0 0.0313,0.03125 c 0.16822,0.136768 9.5625,7.8125 9.5625,7.8125 0.40507,0.329656 0.54744,0.793716 0.375,1.28125 -0.0655,0.185158 -4.2e-4,0.125778 -0.15625,0.15625 -0.15583,0.03047 -0.52377,-0.0014 -0.96875,0 -9.43389,0.08563 -29.5625,0.0625 -29.5625,0.0625 -0.92585,6.38e-4 -1.98219,0.238148 -2.90625,0.75 -0.92406,0.511852 -1.76979,1.401047 -1.84375,2.59375 -0.0678,1.093015 0.49064,1.974189 1.1875,2.46875 0.69686,0.494561 1.51343,0.6875 2.21875,0.6875 l 14.78125,0 c 0.59788,-7.26e-4 0.99748,0.190616 1.15625,0.65625 0.0449,0.131701 0.0294,0.197832 0.0313,0.21875 -0.0146,0.0068 -0.17454,0.12448 -0.5,0.375 L 221.46875,79 l -0.0625,0 c -0.003,0.0013 0.003,0.02994 0,0.03125 -0.0242,0.01046 -0.0625,-1.6e-5 -0.0625,0 -4e-5,1.9e-5 -0.047,0.02797 -0.0937,0.0625 -0.0241,0.01837 -0.0385,0.04148 -0.0625,0.0625 -0.024,0.02102 -0.0341,0.0315 -0.0625,0.0625 -0.0284,0.031 -0.0843,0.08624 -0.125,0.15625 -0.006,0.0105 -0.0248,0.01881 -0.0313,0.03125 -0.89179,0.770702 -1.51988,1.724206 -1.75,2.65625 -0.24039,0.973691 -0.0785,1.869701 0.4375,2.53125 1.15079,1.474221 3.74728,1.59263 5.875,-0.125 a 0.70717748,0.70717748 0 0 0 0,-0.03125 l 14.5,-11.90625 0,0.03125 c 0.37805,-0.308899 0.94526,-0.364348 1.375,-0.125 0.41737,0.232461 0.66025,0.712473 0.59375,1.21875 a 0.70717748,0.70717748 0 0 0 -0.0313,0.03125 c 0,0 -0.16833,1.52123 -0.15625,2.3125 a 0.70717748,0.70717748 0 0 0 0,0.0625 c 0.16621,2.278123 0.81845,4.394788 1.75,6.375 a 0.70717748,0.70717748 0 0 0 0,0.03125 c 0.6295,1.102455 1.60899,1.730856 2.65625,1.6875 1.04726,-0.04336 2.06808,-0.607013 3.1875,-1.40625 2.23885,-1.598473 4.94424,-4.31936 8.375,-7.1875 6.86152,-5.73628 16.45889,-11.973307 29.96875,-10.625 a 0.70717748,0.70717748 0 0 0 0.6875,-1.0625 c -1.47143,-2.581652 -3.56244,-4.946037 -6.125,-7.03125 -7.53492,-6.131355 -15.43365,-11.844299 -23.125,-17.75 -0.006,-0.0064 -0.017,-0.01669 -0.0313,-0.03125 -0.004,-0.0041 -0.0278,-0.02678 -0.0313,-0.03125 A 0.70717748,0.70717748 0 0 0 259.09375,39 c -0.009,-0.008 -0.012,-0.0165 -0.0313,-0.03125 -0.007,-0.0056 -0.0239,0.0055 -0.0313,0 -0.52192,-0.390465 -1.22582,-0.626117 -2.03125,-0.625 z"
         id="path4087"
         style="opacity:0.50209207;fill:url(#radialGradient4195);fill-opacity:1;fill-rule:evenodd;stroke:none"
         inkscape:original="M 257 39.0625 C 256.32137 39.063428 255.58874 39.268673 255.125 39.59375 C 254.6553 39.92171 254.54525 40.220341 254.53125 40.375 C 254.51725 40.52966 254.50365 40.657115 254.84375 40.9375 C 254.87555 40.96387 254.93869 40.97162 254.96875 41 C 255.17704 41.169346 264.53125 48.8125 264.53125 48.8125 C 265.15759 49.322227 265.39428 50.144931 265.125 50.90625 C 264.85575 51.66758 264.15128 51.528648 263.34375 51.53125 C 253.89959 51.61697 233.78125 51.59375 233.78125 51.59375 C 232.18385 51.59485 229.86112 52.458154 229.75 54.25 C 229.64345 55.968054 231.31618 56.65625 232.4375 56.65625 L 247.21875 56.65625 C 248.03737 56.655256 248.76706 57.037704 249.03125 57.8125 C 249.29544 58.587307 248.99242 58.688186 248.34375 59.1875 L 221.75 79.65625 C 221.748 79.65865 221.6899 79.65385 221.6875 79.65625 C 221.58016 79.73804 221.61775 79.74809 221.65625 79.71875 C 220.72816 80.430511 220.11152 81.38737 219.90625 82.21875 C 219.70099 83.05014 219.82636 83.65321 220.21875 84.15625 C 221.02139 85.18447 223.20189 85.43348 225.09375 83.90625 L 239.59375 72 C 240.20047 71.504254 241.0655 71.43126 241.75 71.8125 C 242.43448 72.193736 242.78954 72.973167 242.6875 73.75 C 242.6875 73.75 242.52127 75.346075 242.53125 76 C 242.69045 78.182055 243.28665 80.210053 244.1875 82.125 C 248.58491 89.82624 260.2945 61.472407 287.8125 64.21875 C 286.3913 61.725231 284.38103 59.445465 281.875 57.40625 C 274.33799 51.273197 266.41103 45.526202 258.6875 39.59375 C 258.6755 39.58555 258.6368 39.53972 258.625 39.53125 C 258.27208 39.26106 257.67735 39.061561 257 39.0625 z "
         inkscape:radius="0.70710677"
         sodipodi:type="inkscape:offset" />
      <path
         style="opacity:0.51999996;fill:url(#radialGradient4197);fill-opacity:1;fill-rule:evenodd;stroke:none"
         d="m 224.71921,63.652177 c 0.19538,0.304882 0.38485,0.62581 0.5625,0.9375 -26.65806,-2.66052 -38.44693,23.9023 -43.15625,18.5625 4.57271,6.353016 16.33603,-20.948535 43.375,-18.25 -0.2392,-0.419689 -0.50998,-0.842681 -0.78125,-1.25 z"
         id="path3931"
         inkscape:connector-curvature="0"
         sodipodi:nodetypes="ccccc" />
      <path
         inkscape:connector-curvature="0"
         id="path4149"
         d="m 194.41433,37.94375 c -0.82051,0.0011 -1.64543,0.210545 -2.28125,0.65625 -0.59239,0.413628 -0.86962,0.90788 -0.90625,1.3125 -0.007,0.07422 -0.0121,0.318088 0.0937,0.5625 0.0892,0.205927 0.2357,0.350658 0.40625,0.5 -0.003,-0.06208 -0.002,-0.129741 0,-0.15625 0.0366,-0.40462 0.31386,-0.898872 0.90625,-1.3125 0.63582,-0.445705 1.46074,-0.655128 2.28125,-0.65625 0.80543,-0.0011 1.50933,0.234535 2.03125,0.625 0.007,0.0055 0.024,-0.0056 0.0313,0 0.0193,0.01475 0.0227,0.02322 0.0313,0.03125 a 0.70717748,0.70717748 0 0 1 0.0313,0.03125 c 0.003,0.0045 0.0273,0.02717 0.0313,0.03125 0.0142,0.01456 0.0253,0.02486 0.0313,0.03125 7.69135,5.905701 15.59008,11.618645 23.125,17.75 2.32535,1.892189 4.24934,4.006808 5.6875,6.3125 a 0.70717748,0.70717748 0 0 0 -0.0625,-0.1875 c -1.47143,-2.581652 -3.56244,-4.946037 -6.125,-7.03125 -7.53492,-6.131355 -15.43365,-11.844299 -23.125,-17.75 -0.006,-0.0064 -0.0171,-0.01669 -0.0313,-0.03125 -0.004,-0.0041 -0.0278,-0.02678 -0.0313,-0.03125 A 0.70717748,0.70717748 0 0 0 196.50808,38.6 c -0.009,-0.008 -0.012,-0.0165 -0.0313,-0.03125 -0.007,-0.0056 -0.0239,0.0055 -0.0313,0 -0.52192,-0.390465 -1.22582,-0.626117 -2.03125,-0.625 z m 7.53125,11.875 c 0.003,0.138827 -0.0109,0.291481 -0.0625,0.4375 -0.0655,0.185158 -4.2e-4,0.125778 -0.15625,0.15625 -0.15583,0.03047 -0.52377,-0.0014 -0.96875,0 -9.43389,0.08563 -29.5625,0.0625 -29.5625,0.0625 -0.92585,6.38e-4 -1.98219,0.238148 -2.90625,0.75 -0.92406,0.511852 -1.76979,1.401047 -1.84375,2.59375 -0.0508,0.819761 0.23963,1.523542 0.6875,2.03125 -0.12846,-0.344714 -0.21327,-0.709438 -0.1875,-1.125 0.074,-1.192703 0.91969,-2.081898 1.84375,-2.59375 0.92406,-0.511852 1.9804,-0.749362 2.90625,-0.75 0,0 20.12861,0.02313 29.5625,-0.0625 0.44498,-0.0014 0.81292,0.03047 0.96875,0 0.15583,-0.03047 0.0908,0.02891 0.15625,-0.15625 0.17244,-0.487534 0.0301,-0.951594 -0.375,-1.28125 0,0 -0.0616,-0.06173 -0.0625,-0.0625 z M 185.66433,57.975 c -0.0746,0.05441 -0.12244,0.07965 -0.34375,0.25 l -26.4375,20.375 -0.0625,0 c -0.003,0.0013 0.003,0.02994 0,0.03125 -0.0242,0.01046 -0.0625,-1.6e-5 -0.0625,0 -4e-5,1.9e-5 -0.047,0.02797 -0.0937,0.0625 -0.0241,0.01837 -0.0385,0.04148 -0.0625,0.0625 -0.024,0.02102 -0.0341,0.0315 -0.0625,0.0625 -0.0284,0.031 -0.0843,0.08624 -0.125,0.15625 -0.006,0.0105 -0.0248,0.01881 -0.0313,0.03125 -0.89179,0.770702 -1.51988,1.724206 -1.75,2.65625 -0.24039,0.973691 -0.0785,1.869701 0.4375,2.53125 0.027,0.03455 0.0652,0.06069 0.0937,0.09375 -0.1605,-0.516365 -0.18425,-1.099027 -0.0313,-1.71875 0.23012,-0.932044 0.85821,-1.885548 1.75,-2.65625 0.006,-0.01244 0.0251,-0.02075 0.0313,-0.03125 0.0407,-0.07001 0.0966,-0.125255 0.125,-0.15625 0.0284,-0.031 0.0385,-0.04148 0.0625,-0.0625 0.024,-0.02102 0.0384,-0.04413 0.0625,-0.0625 0.0467,-0.03453 0.0937,-0.06248 0.0937,-0.0625 3e-5,-1.6e-5 0.0383,0.01046 0.0625,0 0.003,-0.0013 -0.003,-0.02994 0,-0.03125 l 0.0625,0 26.4375,-20.375 c 0.32546,-0.25052 0.48543,-0.36818 0.5,-0.375 -0.002,-0.02092 0.0137,-0.08705 -0.0313,-0.21875 -0.10401,-0.305041 -0.32624,-0.469776 -0.625,-0.5625 z m -6.25,15.03125 c 0.005,0.0819 0.0111,0.165621 0,0.25 a 0.70717748,0.70717748 0 0 0 -0.0313,0.03125 c 0,0 -0.16833,1.52123 -0.15625,2.3125 a 0.70717748,0.70717748 0 0 0 0,0.0625 c 0.16621,2.278123 0.81845,4.394788 1.75,6.375 a 0.70717748,0.70717748 0 0 0 0,0.03125 c 0.10634,0.186244 0.21879,0.373018 0.34375,0.53125 -0.8483,-1.882693 -1.43696,-3.882183 -1.59375,-6.03125 a 0.70717748,0.70717748 0 0 1 0,-0.0625 c -0.0121,-0.79127 0.15625,-2.3125 0.15625,-2.3125 a 0.70717748,0.70717748 0 0 1 0.0313,-0.03125 c 0.0613,-0.466359 -0.14166,-0.907426 -0.5,-1.15625 z"
         style="fill:url(#radialGradient3163);fill-opacity:1;fill-rule:evenodd;stroke:none;filter:url(#filter4168)" />
    </g>
    <path
       clip-path="url(#clipPath6093-7)"
       style="opacity:0.34728035;fill:#000000;fill-opacity:1;stroke:none;filter:url(#filter6171-8)"
       d="m 114.4,82.502986 c 0,4.465301 -6.19771,3.506816 -8.67994,5.190489 -5.10854,3.46508 -20.174689,2.225237 -25.955859,2.306257 -0.081,5.781159 0.786541,16.143798 0.786541,22.293818 0,2.97817 -3.440475,11.20945 -6.350745,11.20945 -2.091359,1.5337 3.488204,8.21101 6.734971,5.31989 9.501888,-8.46107 35.131682,-30.022704 43.350822,-39.262889 2.04044,-2.29392 -4.90514,-9.844666 -9.88579,-7.057015 z"
       id="path6153"
       inkscape:connector-curvature="0"
       sodipodi:nodetypes="cscscssc"
       transform="matrix(1.2713893,0,0,1.3008089,-31.411352,-31.072453)" />
    <path
       sodipodi:nodetypes="cscscssc"
       inkscape:connector-curvature="0"
       id="path6081"
       d="m 113.9,82.502986 c 0,4.465301 -7.96273,11.129672 -10.95287,11.553449 -6.394981,0.906328 -15.824979,-3.47754 -21.606149,-3.39652 -0.081,5.781159 3.918356,18.962455 0.453276,24.070995 -1.68367,2.48224 -3.883991,8.07209 -6.794261,8.07209 -2.091359,1.5337 3.488204,11.21101 6.734971,8.31989 9.501888,-8.46107 45.998943,-30.20138 54.218083,-39.441569 2.04044,-2.29392 -17.0724,-11.965986 -22.05305,-9.178335 z"
       style="opacity:0.49295774;fill:#000000;fill-opacity:1;stroke:none;filter:url(#filter4087)"
       clip-path="url(#clipPath6093-7)"
       transform="matrix(1.323697,0,0,1.3543271,-37.27081,-37.383179)" />
    <path
       style="fill:url(#linearGradient3895-3);fill-opacity:1;stroke:none"
       d="m 111.80692,72.373791 c 0,6.193164 -3.79585,8.890306 -7.16393,11.225476 C 97.711316,88.405175 83.444341,87.387629 75.6,87.5 c -0.109909,8.0182 0.701692,21.4147 -4,28.5 -2.284534,3.44276 -6.727129,8.38457 -10.67601,8.38457 3.145284,0 6.435454,-1.85125 10.290589,-5.66544 12.404537,-12.27278 23.56509,-22.378984 34.835341,-35.086504 2.60379,-2.935824 5.757,-5.051122 5.757,-11.258835 z"
       id="path6011"
       inkscape:connector-curvature="0"
       sodipodi:nodetypes="cscscssc" />
    <path
       style="fill:#ffffff;fill-opacity:1;stroke:none"
       d="m 111.83234,71.941762 c -0.42932,5.407885 -4.39696,7.298568 -6.55729,8.796367 C 100.15305,84.28932 93.349113,84 72,84 c 0,19.65502 0.5,28.4 -3.219913,33.20293 -2.21447,2.85919 -6.648335,6.04727 -10.26176,6.86542 4.951272,0 8.407066,-1.08166 11.641616,-4.28186 0.460141,-0.53889 1.37925,-1.54169 2.101048,-2.68043 C 76.100178,111.32051 76,99.904353 76,88 c 7.844341,-0.112342 21.630842,1.155905 28.5625,-3.65 0.63154,-0.437847 2.56984,-2.009889 3.13546,-2.57551 3.14173,-3.14173 3.82294,-5.144366 4.13438,-9.832728 z M 58.518327,124.06835 c -0.213922,0.0483 -0.425295,0.0575 -0.636038,0.0866 0.213019,-0.0234 0.421235,-0.0465 0.636038,-0.0866 z"
       id="path6122"
       inkscape:connector-curvature="0"
       sodipodi:nodetypes="cscsccccsscccc" />
    <path
       style="fill:none;stroke:url(#radialGradient3919-5);stroke-width:1.85605633;stroke-linecap:butt;stroke-linejoin:miter;stroke-miterlimit:4;stroke-opacity:1;stroke-dasharray:none;filter:url(#filter3909-6)"
       d="M 108.97651,89.508691 79.934895,118.21077"
       id="path3873"
       inkscape:connector-curvature="0"
       sodipodi:nodetypes="cc"
       clip-path="url(#clipPath3889-6)"
       transform="matrix(1.3568778,0,0,1.3869539,-40.163409,-42.054049)" />
  </g>
</svg>
