<?xml version="1.0" encoding="UTF-8" standalone="no"?>
<!-- Created with Inkscape (http://www.inkscape.org/) -->

<svg
   xmlns:dc="http://purl.org/dc/elements/1.1/"
   xmlns:cc="http://creativecommons.org/ns#"
   xmlns:rdf="http://www.w3.org/1999/02/22-rdf-syntax-ns#"
   xmlns:svg="http://www.w3.org/2000/svg"
   xmlns="http://www.w3.org/2000/svg"
   xmlns:xlink="http://www.w3.org/1999/xlink"
   xmlns:sodipodi="http://sodipodi.sourceforge.net/DTD/sodipodi-0.dtd"
   xmlns:inkscape="http://www.inkscape.org/namespaces/inkscape"
   width="128"
   height="128"
   id="svg2606"
   sodipodi:version="0.32"
   inkscape:version="0.48.0 r9654"
   version="1.0"
   sodipodi:docname="application-x-kcsrc.svgz"
   inkscape:output_extension="org.inkscape.output.svgz.inkscape"
   inkscape:export-filename="/home/pinheiro/pics/oxygen-icons/scalable/mimetypes/small/32x32/application-x-kcsrc.png"
   inkscape:export-xdpi="180"
   inkscape:export-ydpi="180">
  <defs
     id="defs2608">
    <linearGradient
       id="linearGradient6131">
      <stop
         id="stop6133"
         offset="0"
         style="stop-color:#fcfcfc;stop-opacity:1" />
      <stop
         style="stop-color:#f8f8f8;stop-opacity:1"
         offset="0.52275378"
         id="stop6135" />
      <stop
         id="stop6141"
         offset="0.77457333"
         style="stop-color:#f0efef;stop-opacity:1;" />
      <stop
         id="stop6139"
         offset="0.90122044"
         style="stop-color:#e3e1e1;stop-opacity:1;" />
      <stop
         id="stop6137"
         offset="1"
         style="stop-color:#cecbcb;stop-opacity:1" />
    </linearGradient>
    <linearGradient
       inkscape:collect="always"
       xlink:href="#linearGradient6131"
       id="linearGradient3893"
       gradientUnits="userSpaceOnUse"
       gradientTransform="matrix(1.0119858,0,0,1.0119858,-0.89554075,-0.9871566)"
       x1="86.73793"
       y1="93.621468"
       x2="95.460213"
       y2="102.34375" />
    <radialGradient
       inkscape:collect="always"
       xlink:href="#linearGradient3913-5"
       id="radialGradient3919-5"
       cx="90.75"
       cy="110.25299"
       fx="90.75"
       fy="110.25299"
       r="18.750002"
       gradientTransform="matrix(1.3067347,0,0,1.3067347,-27.83617,-33.818441)"
       gradientUnits="userSpaceOnUse" />
    <linearGradient
       inkscape:collect="always"
       id="linearGradient3913-5">
      <stop
         style="stop-color:#ffffff;stop-opacity:1;"
         offset="0"
         id="stop3915-4" />
      <stop
         style="stop-color:#ffffff;stop-opacity:0;"
         offset="1"
         id="stop3917-7" />
    </linearGradient>
    <clipPath
       clipPathUnits="userSpaceOnUse"
       id="clipPath3889-6">
      <path
         sodipodi:nodetypes="cscscssc"
         inkscape:connector-curvature="0"
         id="path3891-5"
         d="m 112,82.502986 c 0,4.465301 -2.79749,6.409952 -5.27972,8.093625 -5.10854,3.46508 -14.939114,3.32536 -20.720284,3.40638 -0.081,5.781159 0.16586,15.504599 -3.29922,20.613139 -1.68367,2.48224 -5.29051,5.38687 -8.20078,5.38687 2.31803,0 4.74284,-1.33476 7.58402,-4.08481 9.14197,-8.84873 17.36714,-16.13535 25.673154,-25.297529 C 109.67612,88.503916 112,86.97878 112,82.502986 z"
         style="fill:url(#linearGradient3893);fill-opacity:1;stroke:none" />
    </clipPath>
    <filter
       color-interpolation-filters="sRGB"
       inkscape:collect="always"
       id="filter3909-6">
      <feGaussianBlur
         inkscape:collect="always"
         stdDeviation="0.43040059"
         id="feGaussianBlur3911-9" />
    </filter>
    <linearGradient
       inkscape:collect="always"
       xlink:href="#linearGradient3897-7"
       id="linearGradient3895-3"
       gradientUnits="userSpaceOnUse"
       gradientTransform="matrix(1.3731411,0,0,1.4035776,-41.378546,-43.42319)"
       x1="82.15696"
       y1="90.381706"
       x2="94.220871"
       y2="102.18401" />
    <linearGradient
       id="linearGradient3897-7">
      <stop
         style="stop-color:#fcfcfc;stop-opacity:1"
         offset="0"
         id="stop3899-4" />
      <stop
         id="stop3901-5"
         offset="0.52275378"
         style="stop-color:#f8f8f8;stop-opacity:1" />
      <stop
         style="stop-color:#f0efef;stop-opacity:1;"
         offset="0.72337759"
         id="stop3903-2" />
      <stop
         style="stop-color:#e3e1e1;stop-opacity:1;"
         offset="0.89024991"
         id="stop3905-5" />
      <stop
         style="stop-color:#cecbcb;stop-opacity:1"
         offset="1"
         id="stop3907-4" />
    </linearGradient>
    <clipPath
       clipPathUnits="userSpaceOnUse"
       id="clipPath6093-7">
      <path
         inkscape:connector-curvature="0"
         sodipodi:nodetypes="cccssccc"
         id="path6095-4"
         d="m 17.000001,8 0.782827,110 57.5,0 c 1.675283,0 3.119418,0.18058 4.9,-1.6 C 88.980763,107.60206 99.94047,96.548195 107.19904,89.224043 109.6396,86.761431 110,84.752873 110,82.5 L 110,8 z"
         style="fill:#ffffff;fill-opacity:1" />
    </clipPath>
    <radialGradient
       inkscape:collect="always"
       xlink:href="#linearGradient5982-7"
       id="radialGradient5988-0"
       cx="64"
       cy="64.004021"
       fx="63.793392"
       fy="47.274845"
       r="47.5"
       gradientTransform="matrix(1.7069944,-0.08541345,0.06979496,1.3941371,-50.362376,-20.218185)"
       gradientUnits="userSpaceOnUse" />
    <linearGradient
       inkscape:collect="always"
       id="linearGradient5982-7">
      <stop
         style="stop-color:#ffffff;stop-opacity:1;"
         offset="0"
         id="stop5984-8" />
      <stop
         style="stop-color:#ffffff;stop-opacity:0;"
         offset="1"
         id="stop5986-6" />
    </linearGradient>
    <filter
       color-interpolation-filters="sRGB"
       inkscape:collect="always"
       id="filter6171-8"
       x="-0.47870937"
       width="1.9574188"
       y="-0.51275069"
       height="2.0255013">
      <feGaussianBlur
         inkscape:collect="always"
         stdDeviation="10.140743"
         id="feGaussianBlur6173-8" />
    </filter>
    <linearGradient
       inkscape:collect="always"
       xlink:href="#linearGradient4518-3"
       id="linearGradient4524-4"
       x1="72"
       y1="0"
       x2="72"
       y2="116.40091"
       gradientUnits="userSpaceOnUse"
       gradientTransform="matrix(1.013528,0,0,1.013266,-1.5133685,-1.3073648)" />
    <linearGradient
       id="linearGradient4518-3">
      <stop
         style="stop-color:#eeecec;stop-opacity:1"
         offset="0"
         id="stop4520-1" />
      <stop
         id="stop5969-4"
         offset="0.40000001"
         style="stop-color:#f4f4f4;stop-opacity:1" />
      <stop
         style="stop-color:#f6f5f5;stop-opacity:1"
         offset="1"
         id="stop4522-9" />
    </linearGradient>
    <filter
       inkscape:collect="always"
       id="filter4123">
      <feGaussianBlur
         inkscape:collect="always"
         stdDeviation="2.028"
         id="feGaussianBlur4125" />
    </filter>
    <filter
       inkscape:collect="always"
       id="filter4087"
       x="-0.16465071"
       width="1.3293014"
       y="-0.2041295"
       height="1.408259">
      <feGaussianBlur
         inkscape:collect="always"
         stdDeviation="4.2234282"
         id="feGaussianBlur4089" />
    </filter>
    <filter
       inkscape:collect="always"
       id="filter4084">
      <feGaussianBlur
         inkscape:collect="always"
         stdDeviation="1.4598961"
         id="feGaussianBlur4086" />
    </filter>
    <radialGradient
       r="51"
       fy="105"
       fx="64"
       cy="105"
       cx="64"
       gradientTransform="matrix(1,0,0,0.2156863,0,82.352941)"
       gradientUnits="userSpaceOnUse"
       id="radialGradient6633"
       xlink:href="#linearGradient6505"
       inkscape:collect="always" />
    <linearGradient
       id="linearGradient6505">
      <stop
         id="stop6507"
         offset="0"
         style="stop-color:#000000;stop-opacity:1;" />
      <stop
         style="stop-color:#000000;stop-opacity:0.49803922;"
         offset="1"
         id="stop6513" />
      <stop
         id="stop6509"
         offset="1"
         style="stop-color:#000000;stop-opacity:0;" />
    </linearGradient>
    <filter
       color-interpolation-filters="sRGB"
       id="filter3400"
       height="1.3529412"
       y="-0.17647055"
       width="1.1479322"
       x="-0.073966116"
       inkscape:collect="always">
      <feGaussianBlur
         id="feGaussianBlur3402"
         stdDeviation="3.1565288"
         inkscape:collect="always" />
    </filter>
    <radialGradient
       gradientUnits="userSpaceOnUse"
       r="126.4133"
       cy="8.3301001"
       cx="7.5"
       id="XMLID_15_">
      <stop
         id="stop4-7"
         style="stop-color:#DBC298"
         offset="0.2722" />
      <stop
         id="stop6-6"
         style="stop-color:#C7B08A"
         offset="0.4545" />
      <stop
         id="stop8-5"
         style="stop-color:#b99c6f;stop-opacity:1;"
         offset="0.71829998" />
      <stop
         id="stop10"
         style="stop-color:#b09469;stop-opacity:1;"
         offset="0.88169998" />
      <stop
         id="stop12"
         style="stop-color:#a48a5f;stop-opacity:1;"
         offset="1" />
    </radialGradient>
    <linearGradient
       y2="13.2949"
       x2="104.25"
       y1="13.2949"
       x1="0.25"
       gradientUnits="userSpaceOnUse"
       id="XMLID_17_">
      <stop
         id="stop28"
         style="stop-color:#8F6B32"
         offset="0" />
      <stop
         id="stop30"
         style="stop-color:#3e2e15;stop-opacity:1;"
         offset="0.5" />
      <stop
         id="stop32"
         style="stop-color:#8F6B32"
         offset="1" />
    </linearGradient>
    <linearGradient
       id="linearGradient3329">
      <stop
         id="stop3331"
         offset="0"
         style="stop-color:#000000;stop-opacity:1;" />
      <stop
         id="stop3333"
         offset="1"
         style="stop-color:#000000;stop-opacity:0;" />
    </linearGradient>
    <linearGradient
       id="linearGradient6534"
       gradientUnits="userSpaceOnUse"
       x1="91.572304"
       y1="4.5991001"
       x2="62.901402"
       y2="21.1523">
      <stop
         offset="0.0118"
         style="stop-color:#AD9C80"
         id="stop6536" />
      <stop
         offset="0.02147562"
         style="stop-color:#FFE6BC"
         id="stop6538" />
      <stop
         offset="0.06798933"
         style="stop-color:#C4B091"
         id="stop6540" />
      <stop
         offset="0.11206073"
         style="stop-color:#DEC8A4"
         id="stop6542" />
      <stop
         offset="1"
         style="stop-color:#B39E7C"
         id="stop6544" />
    </linearGradient>
    <linearGradient
       id="linearGradient6548"
       gradientUnits="userSpaceOnUse"
       x1="12.0713"
       y1="4.1034999"
       x2="50.6035"
       y2="26.3501">
      <stop
         offset="0.0118"
         style="stop-color:#AD9C80"
         id="stop6550" />
      <stop
         offset="0.04393823"
         style="stop-color:#FFE6BC"
         id="stop6552" />
      <stop
         offset="0.07207061"
         style="stop-color:#C4B091"
         id="stop6554" />
      <stop
         offset="0.1025845"
         style="stop-color:#DEC8A4"
         id="stop6556" />
      <stop
         offset="1"
         style="stop-color:#B39E7C"
         id="stop6558" />
    </linearGradient>
    <linearGradient
       y2="60.714802"
       x2="102.3008"
       y1="60.659199"
       x1="101.3027"
       gradientUnits="userSpaceOnUse"
       id="XMLID_23_">
      <stop
         id="stop144-6"
         style="stop-color:#544C3E"
         offset="0" />
      <stop
         id="stop146-9"
         style="stop-color:#B39E7C"
         offset="1" />
    </linearGradient>
    <linearGradient
       y2="60.580101"
       x2="103.3984"
       y1="60.580101"
       x1="103.8984"
       gradientUnits="userSpaceOnUse"
       id="XMLID_24_">
      <stop
         id="stop151"
         style="stop-color:#544C3E"
         offset="0" />
      <stop
         id="stop153"
         style="stop-color:#50483B"
         offset="0.2162" />
      <stop
         id="stop155-3"
         style="stop-color:#443D32"
         offset="0.4356" />
      <stop
         id="stop157-7"
         style="stop-color:#2F2B23"
         offset="0.6567" />
      <stop
         id="stop159-4"
         style="stop-color:#13110E"
         offset="0.8775" />
      <stop
         id="stop161-5"
         style="stop-color:#000000"
         offset="1" />
    </linearGradient>
    <linearGradient
       inkscape:collect="always"
       xlink:href="#XMLID_25_"
       id="linearGradient5839"
       gradientUnits="userSpaceOnUse"
       x1="2.1997001"
       y1="60.715801"
       x2="3.198"
       y2="60.660099"
       gradientTransform="matrix(0.43504871,0,0,0.43243459,57.285426,61.638819)" />
    <linearGradient
       y2="60.660099"
       x2="3.198"
       y1="60.715801"
       x1="2.1997001"
       gradientUnits="userSpaceOnUse"
       id="XMLID_25_">
      <stop
         id="stop168"
         style="stop-color:#B39E7C"
         offset="0" />
      <stop
         id="stop170-2"
         style="stop-color:#544C3E"
         offset="1" />
    </linearGradient>
    <linearGradient
       inkscape:collect="always"
       xlink:href="#XMLID_26_"
       id="linearGradient5836"
       gradientUnits="userSpaceOnUse"
       x1="0.60159999"
       y1="60.580101"
       x2="1.1021"
       y2="60.580101"
       gradientTransform="matrix(0.6153846,0,0,0.61168688,32.346155,30.173086)" />
    <linearGradient
       y2="60.580101"
       x2="1.1021"
       y1="60.580101"
       x1="0.60159999"
       gradientUnits="userSpaceOnUse"
       id="XMLID_26_">
      <stop
         id="stop175"
         style="stop-color:#544C3E"
         offset="0" />
      <stop
         id="stop177"
         style="stop-color:#000000"
         offset="1" />
    </linearGradient>
    <filter
       color-interpolation-filters="sRGB"
       inkscape:collect="always"
       id="filter6133"
       x="-0.12374712"
       width="1.2474942"
       y="-0.0078790411"
       height="1.0157582">
      <feGaussianBlur
         inkscape:collect="always"
         stdDeviation="0.13253641"
         id="feGaussianBlur6135" />
    </filter>
    <linearGradient
       inkscape:collect="always"
       xlink:href="#linearGradient4360"
       id="linearGradient5767"
       gradientUnits="userSpaceOnUse"
       x1="52.25"
       y1="97.514183"
       x2="52.25"
       y2="22.061335" />
    <linearGradient
       id="linearGradient4360">
      <stop
         id="stop4362"
         offset="0"
         style="stop-color:#ffdfbf;stop-opacity:1;" />
      <stop
         id="stop4364"
         offset="1"
         style="stop-color:#ffdfbf;stop-opacity:0;" />
    </linearGradient>
    <filter
       color-interpolation-filters="sRGB"
       inkscape:collect="always"
       id="filter6137">
      <feGaussianBlur
         inkscape:collect="always"
         stdDeviation="0.72379785"
         id="feGaussianBlur6139" />
    </filter>
    <radialGradient
       inkscape:collect="always"
       xlink:href="#linearGradient6079"
       id="radialGradient6085"
       cx="62.818913"
       cy="20.84005"
       fx="62.818913"
       fy="20.84005"
       r="16"
       gradientTransform="matrix(0.19986271,0,0,0.12658615,66.273111,56.092209)"
       gradientUnits="userSpaceOnUse" />
    <linearGradient
       inkscape:collect="always"
       id="linearGradient6079">
      <stop
         style="stop-color:#2e220f;stop-opacity:1;"
         offset="0"
         id="stop6081" />
      <stop
         style="stop-color:#2e220f;stop-opacity:0;"
         offset="1"
         id="stop6083" />
    </linearGradient>
    <radialGradient
       inkscape:collect="always"
       xlink:href="#linearGradient6109"
       id="radialGradient6115"
       cx="124.67217"
       cy="21.19462"
       fx="124.67217"
       fy="21.19462"
       r="16"
       gradientTransform="matrix(0.10846696,-0.00878716,0.02378892,0.29364554,65.076456,53.448426)"
       gradientUnits="userSpaceOnUse" />
    <linearGradient
       inkscape:collect="always"
       id="linearGradient6109">
      <stop
         style="stop-color:#fbe3b9;stop-opacity:1;"
         offset="0"
         id="stop6111" />
      <stop
         style="stop-color:#fbe3b9;stop-opacity:0;"
         offset="1"
         id="stop6113" />
    </linearGradient>
    <filter
       color-interpolation-filters="sRGB"
       id="filter4646"
       inkscape:collect="always">
      <feGaussianBlur
         id="feGaussianBlur4648"
         stdDeviation="0.72015575"
         inkscape:collect="always" />
    </filter>
  </defs>
  <sodipodi:namedview
     id="base"
     pagecolor="#ffffff"
     bordercolor="#666666"
     borderopacity="1.0"
     inkscape:pageopacity="0.0"
     inkscape:pageshadow="2"
     inkscape:zoom="4"
     inkscape:cx="104.84598"
     inkscape:cy="67.130067"
     inkscape:document-units="px"
     inkscape:current-layer="layer1"
     width="128px"
     height="128px"
     showgrid="true"
     inkscape:grid-points="true"
     showguides="true"
     inkscape:guide-bbox="true"
     inkscape:window-width="1224"
     inkscape:window-height="757"
     inkscape:window-x="43"
     inkscape:window-y="275"
     inkscape:snap-global="false"
     inkscape:window-maximized="0"
     inkscape:snap-page="true">
    <inkscape:grid
       id="GridFromPre046Settings"
       type="xygrid"
       originx="0px"
       originy="0px"
       spacingx="4px"
       spacingy="4px"
       color="#0000ff"
       empcolor="#0000ff"
       opacity="0.2"
       empopacity="0.4"
       empspacing="2"
       visible="true"
       enabled="true"
       snapvisiblegridlinesonly="true" />
    <sodipodi:guide
       orientation="1,0"
       position="-68,29.325902"
       id="guide4564" />
    <sodipodi:guide
       orientation="1,0"
       position="-121.62237,135.0574"
       id="guide3859" />
    <sodipodi:guide
       orientation="0,1"
       position="38.581514,-74.688154"
       id="guide4360" />
  </sodipodi:namedview>
  <metadata
     id="metadata2611">
    <rdf:RDF>
      <cc:Work
         rdf:about="">
        <dc:format>image/svg+xml</dc:format>
        <dc:type
           rdf:resource="http://purl.org/dc/dcmitype/StillImage" />
        <dc:title></dc:title>
      </cc:Work>
    </rdf:RDF>
  </metadata>
  <g
     inkscape:label="Livello 1"
     inkscape:groupmode="layer"
     id="layer1">
    <path
       style="opacity:0.45606695;fill:#000000;fill-opacity:1;filter:url(#filter4123)"
       d="m 13.333,5.3364 0,118.3304 49.8545,-0.0668 c 2.115554,-0.003 4.528919,-1.77169 7,-4.25 0.71234,-0.71442 1.440746,-1.39395 2.15625,-2.09375 0.415612,-0.40649 0.832187,-0.81443 1.25,-1.21875 7.773958,-7.40962 26.98341,-25.122599 34.21875,-33.099999 0.42065,-0.42064 0.81207,-0.8111 1.15625,-1.1875 1.46444,-1.49766 2.76158,-2.8378 2.99375,-5.8625 L 112,75.156251 111.9972,5.3364 z"
       id="path5990"
       inkscape:connector-curvature="0"
       sodipodi:nodetypes="ccsssccccccc"
       transform="matrix(1.013528,0,0,1.013266,-1.5133689,-1.3073677)" />
    <path
       sodipodi:type="inkscape:offset"
       inkscape:radius="-0.31466308"
       inkscape:original="M 13.1875 4.53125 C 12.818918 4.609246 12.529956 4.967008 12.53125 5.34375 L 12.53125 123.65625 C 12.53885 124.07954 12.920464 124.4611 13.34375 124.46875 L 62.15625 124.46875 C 63.930251 124.46875 65.829207 124.74865 68.6875 122.8125 C 68.829003 122.58432 71.218784 120.82456 70.53125 121.25 C 80.188854 112.07585 98.162197 92.41186 109.34375 81.09375 C 111.06182 79.375681 112.8125 77.674752 112.8125 73.3125 L 112.8125 5.34375 C 112.80483 4.9204809 112.42327 4.5388981 112 4.53125 L 13.34375 4.53125 C 13.29182 4.52633 13.239428 4.52633 13.1875 4.53125 z "
       style="fill:#000000;fill-opacity:1;filter:url(#filter4084)"
       id="path3314"
       d="m 13.21875,4.84375 c -0.201143,0.05725 -0.375711,0.2931131 -0.375,0.5 l 0,118.3125 c 0.0043,0.23765 0.262302,0.4957 0.5,0.5 l 48.8125,0 c 1.807099,0 3.550693,0.29821 6.34375,-1.59375 0.03611,-0.0371 0.07724,-0.0824 0.125,-0.125 0.08359,-0.0745 0.19399,-0.18448 0.3125,-0.28125 0.23702,-0.19354 0.516618,-0.41733 0.78125,-0.625 0.206542,-0.16208 0.368737,-0.26884 0.5,-0.375 a 0.31469455,0.31469455 0 0 1 0.03125,-0.0625 c 0.0046,-0.004 0.02682,0.004 0.03125,0 a 0.31469455,0.31469455 0 0 1 0.03125,-0.0625 c 0.0044,-0.004 0.02685,0.004 0.03125,0 9.639369,-9.15919 27.595222,-28.83361 38.78125,-40.15625 1.72022,-1.720217 3.375,-3.284436 3.375,-7.5625 l 0,-67.96875 c -0.004,-0.2376834 -0.26234,-0.4957056 -0.5,-0.5 l -98.65625,0 a 0.31469455,0.31469455 0 0 1 -0.03125,0 c -0.02143,-0.00203 -0.04093,-6.768e-4 -0.0625,0 -0.01078,3.384e-4 -0.02054,-0.00102 -0.03125,0 z"
       transform="matrix(1.013528,0,0,1.013266,-1.5133689,-1.3073677)" />
    <path
       style="fill:#ffffff;fill-opacity:1"
       d="m 12,4 0,120 49.999784,0 c 1.697965,0 3.967298,-0.57754 7.094784,-3.68191 8.990151,-8.92376 32.510002,-32.235741 39.866862,-39.726545 2.47359,-2.518643 3.04157,-4.572903 3.04157,-6.87703 L 112,4 z"
       id="path34"
       sodipodi:nodetypes="cccssccc"
       inkscape:connector-curvature="0" />
    <path
       style="fill:url(#linearGradient4524-4);fill-opacity:1"
       d="M 15.506762,7 C 15.162322,7 15,7.2377304 15,7.5066333 L 15,119.48009 c 0,0.83248 0.688512,1.5205 1.520292,1.51991 l 44.959416,-0.0317 c 0.05379,-4e-5 0.821348,0.0237 1.520292,0.0317 1.801712,-0.0406 3.174343,-0.76374 4.414963,-1.61442 C 68.481059,119.09069 97.540465,90.697457 106.78496,81.385896 108.1658,79.995068 109,77.38535 109,76.425341 L 109,7.5066332 C 109,7.179635 108.83457,7 108.49323,7 z"
       id="path3967"
       inkscape:connector-curvature="0"
       sodipodi:nodetypes="ccsssccscccc" />
    <path
       sodipodi:nodetypes="ccssscccccc"
       inkscape:connector-curvature="0"
       id="path5980"
       d="M 15.506762,7 C 15.162322,7 15,7.2377304 15,7.5066333 L 15,119.48009 c 0,0.83249 0.688527,1.51486 1.520292,1.51991 l 46.845657,0.2846 c 0.05379,3.3e-4 3.318172,-0.008 4.017117,5e-5 6.629458,-4.5634 31.077115,-31.337425 40.143354,-40.458653 0.66623,-0.74707 0.46379,-0.37498 1.47358,-1.628786 L 109,7.5066332 C 109,7.179635 108.83457,7 108.49323,7 z"
       style="opacity:0.84653476;fill:url(#radialGradient5988-0);fill-opacity:1" />
    <g
       transform="matrix(1.9353254,0,0,1.9353254,-105.93799,-89.987721)"
       id="g4650">
      <g
         transform="matrix(0.62857829,0,0,0.62857829,45.77131,37.899623)"
         id="g4582"
         style="filter:url(#filter4646)">
        <circle
           d="m 91.226002,41.768002 c 0,3.309842 -2.683158,5.993 -5.993,5.993 -3.309843,0 -5.993,-2.683158 -5.993,-5.993 0,-3.309843 2.683157,-5.993 5.993,-5.993 3.309842,0 5.993,2.683157 5.993,5.993 z"
           style="fill:#ffcc00"
           sodipodi:ry="5.993"
           sodipodi:rx="5.993"
           sodipodi:cy="41.768002"
           sodipodi:cx="85.233002"
           id="circle4584"
           r="5.993"
           cy="41.768002"
           cx="85.233002" />
        <circle
           d="m 77.765003,33.994999 c 0,3.30929 -2.68271,5.992 -5.992,5.992 -3.309291,0 -5.992,-2.68271 -5.992,-5.992 0,-3.30929 2.682709,-5.992 5.992,-5.992 3.30929,0 5.992,2.68271 5.992,5.992 z"
           style="fill:#ff9900"
           sodipodi:ry="5.9920001"
           sodipodi:rx="5.9920001"
           sodipodi:cy="33.994999"
           sodipodi:cx="71.773003"
           id="circle4586"
           r="5.9920001"
           cy="33.994999"
           cx="71.773003" />
        <circle
           d="m 98.998997,55.229 c 0,3.309843 -2.683158,5.993 -5.993,5.993 -3.309843,0 -5.993,-2.683157 -5.993,-5.993 0,-3.309842 2.683157,-5.993 5.993,-5.993 3.309842,0 5.993,2.683158 5.993,5.993 z"
           style="fill:#ffff00"
           sodipodi:ry="5.993"
           sodipodi:rx="5.993"
           sodipodi:cy="55.229"
           sodipodi:cx="93.005997"
           id="circle4588"
           r="5.993"
           cy="55.229"
           cx="93.005997" />
        <circle
           d="m 62.220002,33.994999 c 0,3.310395 -2.683605,5.994 -5.994,5.994 -3.310395,0 -5.994,-2.683605 -5.994,-5.994 0,-3.310395 2.683605,-5.994 5.994,-5.994 3.310395,0 5.994,2.683605 5.994,5.994 z"
           style="fill:#ff6600"
           sodipodi:ry="5.994"
           sodipodi:rx="5.994"
           sodipodi:cy="33.994999"
           sodipodi:cx="56.226002"
           id="circle4590"
           r="5.994"
           cy="33.994999"
           cx="56.226002" />
        <circle
           d="m 98.996997,70.773003 c 0,3.30929 -2.682709,5.992 -5.992,5.992 -3.30929,0 -5.992,-2.68271 -5.992,-5.992 0,-3.309291 2.68271,-5.992 5.992,-5.992 3.309291,0 5.992,2.682709 5.992,5.992 z"
           style="fill:#99ff00"
           sodipodi:ry="5.9920001"
           sodipodi:rx="5.9920001"
           sodipodi:cy="70.773003"
           sodipodi:cx="93.004997"
           id="circle4592"
           r="5.9920001"
           cy="70.773003"
           cx="93.004997" />
        <path
           style="fill:#ff0000"
           id="path4594"
           d="m 38.527,37.53 c 2.34,-2.34 6.137,-2.34 8.478,0 2.338,2.338 2.338,6.135 -0.001,8.475 -2.34,2.34 -6.137,2.34 -8.477,0.002 -2.339,-2.342 -2.338,-6.138 0,-8.477 z"
           inkscape:connector-curvature="0" />
        <path
           style="fill:#00cc00"
           id="path4596"
           d="m 80.996,79.995 c 2.34,-2.338 6.136,-2.339 8.475,0 2.341,2.34 2.34,6.137 0,8.477 -2.339,2.339 -6.135,2.339 -8.476,0 -2.339,-2.34 -2.339,-6.137 10e-4,-8.477 z"
           inkscape:connector-curvature="0" />
        <path
           style="fill:#cc0099"
           id="path4598"
           d="m 36.544,49.442 c 3.198,0.854 5.095,4.141 4.239,7.338 -0.857,3.197 -4.143,5.094 -7.339,4.236 -3.199,-0.855 -5.097,-4.141 -4.237,-7.34 0.856,-3.197 4.141,-5.092 7.337,-4.234 z"
           inkscape:connector-curvature="0" />
        <path
           style="fill:#009999"
           id="path4600"
           d="m 70.222,86.216 c 3.196,-0.856 6.483,1.04 7.338,4.239 0.857,3.197 -1.039,6.481 -4.233,7.338 -3.2,0.859 -6.485,-1.04 -7.342,-4.237 -0.858,-3.197 1.039,-6.482 4.237,-7.34 z"
           inkscape:connector-curvature="0" />
        <path
           style="fill:#660099"
           id="path4602"
           d="m 33.443,64.985 c 3.198,-0.855 6.483,1.039 7.34,4.238 0.857,3.195 -1.041,6.482 -4.24,7.338 -3.195,0.856 -6.48,-1.039 -7.336,-4.235 -0.86,-3.2 1.038,-6.487 4.236,-7.341 z"
           inkscape:connector-curvature="0" />
        <circle
           d="m 62.219002,92.004997 c 0,3.309843 -2.683158,5.993 -5.993,5.993 -3.309843,0 -5.993,-2.683157 -5.993,-5.993 0,-3.309842 2.683157,-5.993 5.993,-5.993 3.309842,0 5.993,2.683158 5.993,5.993 z"
           style="fill:#0033cc"
           sodipodi:ry="5.993"
           sodipodi:rx="5.993"
           sodipodi:cy="92.004997"
           sodipodi:cx="56.226002"
           id="circle4604"
           r="5.993"
           cy="92.004997"
           cx="56.226002" />
        <path
           style="fill:#330099"
           id="path4606"
           d="m 38.527,79.995 c 2.34,-2.339 6.137,-2.338 8.477,0 2.339,2.34 2.339,6.137 0,8.477 -2.34,2.339 -6.137,2.339 -8.477,0 -2.338,-2.34 -2.339,-6.137 0,-8.477 z"
           inkscape:connector-curvature="0" />
        <path
           style="fill:none"
           id="path4608"
           d="m 38.527,46.006 c 2.34,2.338 6.137,2.338 8.477,-0.002 2.339,-2.34 2.339,-6.137 0.001,-8.475 -2.341,-2.34 -6.138,-2.34 -8.478,0 -2.338,2.34 -2.339,6.136 0,8.477 z"
           inkscape:connector-curvature="0" />
        <path
           style="fill:none"
           id="path4610"
           d="m 33.444,61.016 c 3.197,0.857 6.482,-1.039 7.339,-4.236 0.855,-3.197 -1.041,-6.484 -4.239,-7.338 -3.196,-0.857 -6.481,1.037 -7.337,4.234 -0.86,3.199 1.038,6.485 4.237,7.34 z"
           inkscape:connector-curvature="0" />
        <circle
           d="m 40.985,70.773003 c 0,3.30929 -2.68271,5.992 -5.992,5.992 -3.30929,0 -5.992,-2.68271 -5.992,-5.992 0,-3.309291 2.68271,-5.992 5.992,-5.992 3.30929,0 5.992,2.682709 5.992,5.992 z"
           style="fill:none"
           sodipodi:ry="5.9920001"
           sodipodi:rx="5.9920001"
           sodipodi:cy="70.773003"
           sodipodi:cx="34.993"
           id="circle4612"
           r="5.9920001"
           cy="70.773003"
           cx="34.993" />
        <path
           style="fill:none"
           id="path4614"
           d="m 47.004,88.472 c 2.339,-2.34 2.339,-6.137 0,-8.477 -2.34,-2.338 -6.137,-2.339 -8.477,0 -2.34,2.34 -2.338,6.137 0,8.477 2.34,2.339 6.137,2.339 8.477,0 z"
           inkscape:connector-curvature="0" />
        <circle
           d="m 62.220001,92.005997 c 0,3.30929 -2.68271,5.992 -5.992,5.992 -3.309291,0 -5.992,-2.68271 -5.992,-5.992 0,-3.309291 2.682709,-5.992 5.992,-5.992 3.30929,0 5.992,2.682709 5.992,5.992 z"
           style="fill:none"
           sodipodi:ry="5.9920001"
           sodipodi:rx="5.9920001"
           sodipodi:cy="92.005997"
           sodipodi:cx="56.228001"
           id="circle4616"
           r="5.9920001"
           cy="92.005997"
           cx="56.228001" />
        <path
           style="fill:none"
           id="path4618"
           d="m 62.017,32.445 c -0.857,-3.197 -4.143,-5.096 -7.342,-4.239 -3.196,0.857 -5.092,4.145 -4.235,7.34 0.854,3.198 4.143,5.096 7.338,4.239 3.198,-0.859 5.094,-4.144 4.239,-7.34 z"
           inkscape:connector-curvature="0" />
        <g
           id="g4620">
          <path
             style="fill:#ffe500"
             id="path4622"
             d="m 75.631,56.286 c -0.922,-1.602 -0.374,-3.65 1.226,-4.574 1.601,-0.924 3.649,-0.374 4.574,1.225 0.926,1.603 0.376,3.652 -1.225,4.574 -1.602,0.924 -3.649,0.377 -4.575,-1.225 z"
             inkscape:connector-curvature="0" />
          <circle
             d="m 75.736,48.469002 c 0,1.848497 -1.498503,3.347 -3.347,3.347 -1.848497,0 -3.347,-1.498503 -3.347,-3.347 0,-1.848497 1.498503,-3.347 3.347,-3.347 1.848497,0 3.347,1.498503 3.347,3.347 z"
             style="fill:#ffb200"
             sodipodi:ry="3.3469999"
             sodipodi:rx="3.3469999"
             sodipodi:cy="48.469002"
             sodipodi:cx="72.389"
             id="circle4624"
             r="3.3469999"
             cy="48.469002"
             cx="72.389" />
          <path
             style="fill:#ff8000"
             id="path4626"
             d="m 60.652,46.223 c 0,-1.852 1.498,-3.349 3.346,-3.35 1.853,-0.004 3.35,1.498 3.35,3.35 0,1.85 -1.498,3.346 -3.348,3.348 -1.85,-0.002 -3.35,-1.5 -3.348,-3.348 z"
             inkscape:connector-curvature="0" />
          <path
             style="fill:#ccff00"
             id="path4628"
             d="m 77.431,63 c 0.001,-1.85 1.5,-3.349 3.348,-3.348 1.851,0 3.348,1.498 3.35,3.346 0.002,1.853 -1.499,3.348 -3.35,3.349 C 78.929,66.346 77.432,64.851 77.431,63 z"
             inkscape:connector-curvature="0" />
          <path
             style="fill:#ff3300"
             id="path4630"
             d="m 53.934,45.571 c 1.604,-0.926 3.652,-0.377 4.576,1.225 0.925,1.604 0.378,3.65 -1.226,4.575 -1.599,0.923 -3.65,0.374 -4.575,-1.226 -0.922,-1.602 -0.373,-3.65 1.225,-4.574 z"
             inkscape:connector-curvature="0" />
          <circle
             d="m 81.879998,71.390999 c 0,1.849601 -1.499398,3.349 -3.349,3.349 -1.849601,0 -3.349,-1.499399 -3.349,-3.349 0,-1.849602 1.499399,-3.349 3.349,-3.349 1.849602,0 3.349,1.499398 3.349,3.349 z"
             style="fill:#33ff00"
             sodipodi:ry="3.349"
             sodipodi:rx="3.349"
             sodipodi:cy="71.390999"
             sodipodi:cx="78.530998"
             id="circle4632"
             r="3.349"
             cy="71.390999"
             cx="78.530998" />
          <path
             style="fill:#e50066"
             id="path4634"
             d="m 51.142,51.713 c 1.604,0.922 2.152,2.969 1.228,4.572 -0.926,1.604 -2.973,2.15 -4.576,1.225 -1.601,-0.922 -2.149,-2.971 -1.225,-4.574 0.926,-1.602 2.97,-2.15 4.573,-1.223 z"
             inkscape:connector-curvature="0" />
          <circle
             d="m 75.738999,77.530998 c 0,1.84905 -1.498951,3.348 -3.348,3.348 -1.84905,0 -3.348,-1.49895 -3.348,-3.348 0,-1.849049 1.49895,-3.348 3.348,-3.348 1.849049,0 3.348,1.498951 3.348,3.348 z"
             style="fill:#00b266"
             sodipodi:ry="3.348"
             sodipodi:rx="3.348"
             sodipodi:cy="77.530998"
             sodipodi:cx="72.390999"
             id="circle4636"
             r="3.348"
             cy="77.530998"
             cx="72.390999" />
          <path
             style="fill:#990099"
             id="path4638"
             d="m 50.568,63 c 0,1.851 -1.5,3.349 -3.347,3.346 -1.851,0 -3.348,-1.496 -3.347,-3.346 -0.005,-1.85 1.494,-3.348 3.346,-3.348 1.852,0 3.348,1.499 3.348,3.348 z"
             inkscape:connector-curvature="0" />
          <circle
             d="m 67.348,79.778 c 0,1.849049 -1.498951,3.348 -3.348,3.348 -1.849049,0 -3.348,-1.498951 -3.348,-3.348 0,-1.849049 1.498951,-3.348 3.348,-3.348 1.849049,0 3.348,1.498951 3.348,3.348 z"
             style="fill:#0066b2"
             sodipodi:ry="3.348"
             sodipodi:rx="3.348"
             sodipodi:cy="79.778"
             sodipodi:cx="64"
             id="circle4640"
             r="3.348"
             cy="79.778"
             cx="64" />
          <path
             style="fill:#400099"
             id="path4642"
             d="m 47.793,68.489 c 1.604,-0.924 3.65,-0.378 4.576,1.226 0.922,1.601 0.375,3.649 -1.225,4.575 -1.603,0.924 -3.65,0.375 -4.575,-1.226 -0.925,-1.602 -0.377,-3.651 1.224,-4.575 z"
             inkscape:connector-curvature="0" />
          <path
             style="fill:#1919b2"
             id="path4644"
             d="m 58.51,79.206 c -0.924,1.601 -2.973,2.15 -4.575,1.225 -1.6,-0.925 -2.15,-2.972 -1.224,-4.573 0.923,-1.604 2.97,-2.151 4.572,-1.226 1.606,0.924 2.151,2.972 1.227,4.574 z"
             inkscape:connector-curvature="0" />
        </g>
      </g>
      <path
         style="fill:#ffffff;fill-opacity:1"
         d="m 80.85625,55.8 c -0.06981,0.0042 -0.14866,0.02308 -0.21875,0.03125 -0.19073,0.02169 -0.38151,0.04467 -0.5625,0.09375 -0.02356,0.0063 -0.03917,0.02452 -0.0625,0.03125 -0.407,0.118736 -0.78766,0.32279 -1.125,0.5625 -0.08628,0.06222 -0.16987,0.118667 -0.25,0.1875 -0.1325,0.111994 -0.25911,0.214731 -0.375,0.34375 -0.07779,0.08761 -0.14961,0.187062 -0.21875,0.28125 -0.03683,0.04986 -0.05936,0.104554 -0.09375,0.15625 -0.2537,0.382008 -0.46081,0.798836 -0.5625,1.25 -0.0066,0.02974 0.0059,0.06375 0,0.09375 -0.04064,0.202634 -0.08722,0.415282 -0.09375,0.625 -0.0013,0.04071 0,0.08397 0,0.125 0,0.02134 -3.5e-4,0.04124 0,0.0625 0.0056,0.300451 0.04366,0.603002 0.125,0.90625 0.03784,0.141702 0.10376,0.272989 0.15625,0.40625 0.02057,0.05236 0.03968,0.105062 0.0625,0.15625 0.06889,0.154579 0.16267,0.296234 0.25,0.4375 0.05311,0.08538 0.09668,0.169364 0.15625,0.25 0.04823,0.06588 0.10411,0.125247 0.15625,0.1875 0.12018,0.142184 0.2353,0.283275 0.375,0.40625 0.02232,0.01984 0.03973,0.04321 0.0625,0.0625 0.14627,0.12291 0.30478,0.243926 0.46875,0.34375 0.02052,0.01237 0.04175,0.01927 0.0625,0.03125 0.15833,0.09248 0.32805,0.181048 0.5,0.25 0.13054,0.05165 0.27017,0.08808 0.40625,0.125 0.23812,0.06457 0.49563,0.07718 0.75,0.09375 0.22523,0.01458 0.45773,0.02734 0.6875,0 0.44627,-0.05287 0.86556,-0.180144 1.25,-0.375 0.1416,-0.07086 0.27675,-0.132083 0.40625,-0.21875 0.07339,-0.04958 0.14917,-0.10176 0.21875,-0.15625 0.12289,-0.09579 0.23457,-0.203194 0.34375,-0.3125 0.01583,-0.01584 0.0157,-0.04639 0.03125,-0.0625 0.20417,-0.211638 0.38216,-0.436029 0.53125,-0.6875 0.0074,-0.01239 0.024,-0.01877 0.03125,-0.03125 0.01158,-0.02006 0.02004,-0.04223 0.03125,-0.0625 0.10659,-0.191852 0.20905,-0.383197 0.28125,-0.59375 0.02037,-0.059 0.0138,-0.127435 0.03125,-0.1875 0.05,-0.173508 0.10024,-0.348435 0.125,-0.53125 0.0436,-0.31265 0.03838,-0.645078 0,-0.96875 C 84.77178,58.93224 84.7465,58.752724 84.7,58.58125 84.69106,58.547905 84.67852,58.520391 84.66875,58.4875 84.4629,57.80282 84.0677,57.197119 83.54375,56.7375 83.41683,56.627309 83.27747,56.517098 83.1375,56.425 83.0751,56.383865 83.01491,56.33745 82.95,56.3 82.90081,56.27159 82.84418,56.263676 82.79375,56.2375 82.41832,56.042486 82.0111,55.89031 81.575,55.83125 81.33258,55.797474 81.10622,55.78501 80.85625,55.8 z m 9.96875,0 c -2.08015,0 -3.75,1.701102 -3.75,3.78125 0,2.080148 1.66985,3.75 3.75,3.75 2.08015,0 3.78125,-1.669852 3.78125,-3.75 0,-2.080148 -1.7011,-3.78125 -3.78125,-3.78125 z m -18.21875,4.875 c -0.96447,0 -1.92082,0.389564 -2.65625,1.125 -1.46962,1.470245 -1.47025,3.84037 0,5.3125 1.47087,1.469573 3.84163,1.470873 5.3125,0 1.47025,-1.470873 1.46962,-3.842884 0,-5.3125 -0.73575,-0.735436 -1.69178,-1.125 -2.65625,-1.125 z m 26.6875,0 c -2.0805,0 -3.75,1.700755 -3.75,3.78125 0,2.080495 1.6695,3.75 3.75,3.75 2.0805,0 3.78125,-1.669505 3.78125,-3.75 0,-2.080495 -1.70075,-3.78125 -3.78125,-3.78125 z M 85.95,65.14375 c -1.16161,6.29e-4 -2.09375,0.960873 -2.09375,2.125 -0.0013,1.161613 0.93088,2.09245 2.09375,2.09375 1.16287,-0.0013 2.09375,-0.93088 2.09375,-2.09375 0,-1.164127 -0.92899,-2.1275 -2.09375,-2.125 z M 91.23125,66.55 c -1.16193,0 -2.125,0.963075 -2.125,2.125 0,1.161925 0.96307,2.09375 2.125,2.09375 1.16193,0 2.09375,-0.931825 2.09375,-2.09375 0,-1.161925 -0.93182,-2.125 -2.09375,-2.125 z m -10.8125,0.03125 c -0.27155,0.03377 -0.52919,0.104484 -0.78125,0.25 -1.00447,0.580807 -1.3608,1.868018 -0.78125,2.875 0.58144,1.005726 1.8699,1.361428 2.875,0.78125 1.00824,-0.581435 1.36268,-1.866761 0.78125,-2.875 -0.43561,-0.755237 -1.27911,-1.132549 -2.09375,-1.03125 z M 67.95,69.14375 c -1.74842,-0.105833 -3.4042,1.022881 -3.875,2.78125 -0.54058,2.010822 0.64543,4.087566 2.65625,4.625 2.00894,0.53932 4.08631,-0.646685 4.625,-2.65625 0.53806,-2.009564 -0.64606,-4.088194 -2.65625,-4.625 -0.25112,-0.06741 -0.50023,-0.109881 -0.75,-0.125 z m 36.21875,0 c -2.0805,0 -3.75,1.700755 -3.75,3.78125 0,2.080495 1.6695,3.75 3.75,3.75 2.0805,0 3.78125,-1.669505 3.78125,-3.75 0,-2.080495 -1.70075,-3.78125 -3.78125,-3.78125 z m -27.5,1.28125 c -0.67357,0.04716 -1.32371,0.433136 -1.6875,1.0625 -0.5808,1.007611 -0.2251,2.295451 0.78125,2.875 1.00761,0.581435 2.29293,0.22699 2.875,-0.78125 0.5808,-1.007611 0.22699,-2.295451 -0.78125,-2.875 -0.37785,-0.21851 -0.78336,-0.309547 -1.1875,-0.28125 z m 18.15625,0 c -0.27129,0.03356 -0.52966,0.136048 -0.78125,0.28125 -1.00572,0.580806 -1.36079,1.868017 -0.78125,2.875 0.58207,1.006982 1.86802,1.362056 2.875,0.78125 1.00635,-0.579549 1.36331,-1.867389 0.78125,-2.875 C 96.48267,70.733677 95.63887,70.324319 94.825,70.425 z m -19.4375,5.28125 c -1.16413,0 -2.09675,0.93088 -2.09375,2.09375 -6.2e-4,1.16287 0.9615,2.09375 2.125,2.09375 1.16098,0.0019 2.09375,-0.930251 2.09375,-2.09375 0,-1.162241 -0.96088,-2.09375 -2.125,-2.09375 z m 21.125,0 c -1.16162,-6.28e-4 -2.12438,0.93088 -2.125,2.09375 6.2e-4,1.163499 0.96213,2.093121 2.125,2.09375 C 97.67599,79.893121 98.60725,78.964756 98.60625,77.8 98.605,76.638387 97.67599,75.70625 96.5125,75.70625 z M 67.48125,78.925 c -0.0726,0.0043 -0.14584,0.0226 -0.21875,0.03125 -0.1802,0.02196 -0.35983,0.04726 -0.53125,0.09375 -0.03335,0.0089 -0.06085,0.02151 -0.09375,0.03125 -0.41703,0.125381 -0.8139,0.310226 -1.15625,0.5625 -0.09126,0.06686 -0.16576,0.14446 -0.25,0.21875 -0.10625,0.09353 -0.18614,0.207697 -0.28125,0.3125 -0.0838,0.09307 -0.17607,0.180627 -0.25,0.28125 -0.0399,0.05401 -0.08798,0.100088 -0.125,0.15625 -0.07165,0.10895 -0.12747,0.227998 -0.1875,0.34375 -0.18567,0.357447 -0.34329,0.743217 -0.40625,1.15625 -0.01604,0.10354 0.0073,0.207152 0,0.3125 -0.0058,0.0855 -0.03125,0.163028 -0.03125,0.25 0,0.02067 -3.3e-4,0.04191 0,0.0625 0.0021,0.123527 0.01663,0.250418 0.03125,0.375 0.0205,0.180247 0.04872,0.359644 0.09375,0.53125 0.0025,0.0098 -0.0026,0.02144 0,0.03125 0.0063,0.02356 0.02452,0.03917 0.03125,0.0625 0.06395,0.219201 0.14925,0.424315 0.25,0.625 0.07733,0.154672 0.15385,0.297325 0.25,0.4375 0.01666,0.02466 0.04527,0.03826 0.0625,0.0625 0.06217,0.08627 0.11873,0.169883 0.1875,0.25 0.11196,0.132456 0.21477,0.259151 0.34375,0.375 0.08755,0.07778 0.18713,0.149621 0.28125,0.21875 0.04258,0.03146 0.08107,0.06407 0.125,0.09375 0.87222,0.587803 1.9981,0.824794 3.09375,0.53125 0.46471,-0.12435 0.88392,-0.356995 1.25,-0.625 0.03063,-0.02263 0.06384,-0.03898 0.09375,-0.0625 0.03508,-0.02732 0.05976,-0.06529 0.09375,-0.09375 0.15512,-0.131115 0.30538,-0.252013 0.4375,-0.40625 0.26534,-0.305521 0.4695,-0.627358 0.625,-1 0.0091,-0.02156 0.02252,-0.04074 0.03125,-0.0625 0.05166,-0.130511 0.08807,-0.270196 0.125,-0.40625 0.04132,-0.152381 0.07173,-0.309346 0.09375,-0.46875 0.04356,-0.31265 0.03851,-0.645132 0,-0.96875 C 71.42851,82.056066 71.4026,81.878836 71.35625,81.70625 71.35275,81.69306 71.32866,81.68811 71.325,81.675 71.25885,81.438455 71.18372,81.202788 71.075,80.9875 70.77825,80.393833 70.356,79.90558 69.825,79.55 69.7569,79.50399 69.67742,79.46657 69.60625,79.425 69.46583,79.34396 69.31864,79.268728 69.16875,79.20625 69.14719,79.19715 69.12801,79.18373 69.10625,79.175 68.97573,79.12339 68.83608,79.08688 68.7,79.05 c -0.15558,-0.04219 -0.30587,-0.07169 -0.46875,-0.09375 -0.24234,-0.03373 -0.5001,-0.0462 -0.75,-0.03125 z m 36.6875,0 c -2.08015,0 -3.75,1.669852 -3.75,3.75 0,2.080148 1.66985,3.78125 3.75,3.78125 2.08015,0 3.78125,-1.701102 3.78125,-3.78125 0,-2.080148 -1.7011,-3.75 -3.78125,-3.75 z M 95.075,80.95625 c -1.16262,0 -2.09375,0.962381 -2.09375,2.125 0,1.162619 0.93113,2.09375 2.09375,2.09375 1.16262,0 2.125,-0.931131 2.125,-2.09375 0,-1.162619 -0.96238,-2.125 -2.125,-2.125 z M 76.54375,80.9875 c -0.27145,0.03375 -0.52919,0.104798 -0.78125,0.25 -1.00635,0.580806 -1.36268,1.868018 -0.78125,2.875 0.58144,1.006354 1.86739,1.362057 2.875,0.78125 1.00572,-0.582063 1.3608,-1.868646 0.78125,-2.875 -0.43655,-0.756179 -1.27941,-1.132491 -2.09375,-1.03125 z m 4,3.84375 c -0.6738,0.04739 -1.32489,0.43235 -1.6875,1.0625 -0.58206,1.006354 -0.22448,2.293566 0.78125,2.875 1.00698,0.581435 2.29419,0.225104 2.875,-0.78125 0.5808,-1.006982 0.22825,-2.294194 -0.78125,-2.875 -0.37762,-0.218038 -0.78322,-0.309687 -1.1875,-0.28125 z m 10.6875,0 c -1.16227,0 -2.125,0.931478 -2.125,2.09375 0,1.162272 0.96273,2.125 2.125,2.125 1.16227,0 2.09375,-0.962728 2.09375,-2.125 0,-1.162272 -0.93148,-2.09375 -2.09375,-2.09375 z M 85.95,86.2375 c -1.16227,0 -2.09375,0.931478 -2.09375,2.09375 0,1.162272 0.93148,2.125 2.09375,2.125 1.16227,0 2.09375,-0.962728 2.09375,-2.125 0,-1.162272 -0.93148,-2.09375 -2.09375,-2.09375 z m -13.34375,1.15625 c -0.96439,-7.9e-5 -1.92082,0.358628 -2.65625,1.09375 -1.47025,1.470874 -1.46962,3.841627 0,5.3125 1.47087,1.470245 3.84163,1.470245 5.3125,0 1.47025,-1.470873 1.47025,-3.841626 0,-5.3125 -0.73543,-0.734808 -1.69186,-1.093671 -2.65625,-1.09375 z m 26.6875,0 c -0.96416,7.9e-5 -1.92082,0.358942 -2.65625,1.09375 -1.47088,1.470874 -1.47025,3.841627 0,5.3125 1.4715,1.470245 3.84225,1.470245 5.3125,0 1.47087,-1.470873 1.4715,-3.841626 0,-5.3125 -0.73512,-0.735122 -1.69209,-1.093829 -2.65625,-1.09375 z m -18.21875,4.875 c -0.26006,0 -0.53602,0.01232 -0.78125,0.0625 -0.24519,0.05017 -0.46219,0.123454 -0.6875,0.21875 -1.35206,0.571872 -2.3125,1.908379 -2.3125,3.46875 0,2.080495 1.70075,3.78125 3.78125,3.78125 0.26006,0 0.50477,-0.0123 0.75,-0.0625 1.7163,-0.35121 3,-1.89862 3,-3.71875 0,-1.040074 -0.41216,-1.974658 -1.09375,-2.65625 -0.68171,-0.681706 -1.616,-1.09375 -2.65625,-1.09375 z m 9.53125,0 c -0.24981,0.01498 -0.49888,0.05774 -0.75,0.125 -2.01019,0.53932 -3.19557,2.615436 -2.65625,4.625 0.53869,2.009565 2.61355,3.1962 4.625,2.65625 2.00768,-0.538692 3.19494,-2.615435 2.65625,-4.625 -0.47025,-1.759469 -2.12635,-2.886104 -3.875,-2.78125 z"
         id="circle3121"
         inkscape:connector-curvature="0" />
      <g
         id="g2519"
         transform="matrix(0.62857829,0,0,0.62857829,45.77131,37.899623)">
        <circle
           cx="85.233002"
           cy="41.768002"
           r="5.993"
           id="circle2521"
           sodipodi:cx="85.233002"
           sodipodi:cy="41.768002"
           sodipodi:rx="5.993"
           sodipodi:ry="5.993"
           style="fill:#ffcc00"
           d="m 91.226002,41.768002 c 0,3.309842 -2.683158,5.993 -5.993,5.993 -3.309843,0 -5.993,-2.683158 -5.993,-5.993 0,-3.309843 2.683157,-5.993 5.993,-5.993 3.309842,0 5.993,2.683157 5.993,5.993 z" />
        <circle
           cx="71.773003"
           cy="33.994999"
           r="5.9920001"
           id="circle2523"
           sodipodi:cx="71.773003"
           sodipodi:cy="33.994999"
           sodipodi:rx="5.9920001"
           sodipodi:ry="5.9920001"
           style="fill:#ff9900"
           d="m 77.765003,33.994999 c 0,3.30929 -2.68271,5.992 -5.992,5.992 -3.309291,0 -5.992,-2.68271 -5.992,-5.992 0,-3.30929 2.682709,-5.992 5.992,-5.992 3.30929,0 5.992,2.68271 5.992,5.992 z" />
        <circle
           cx="93.005997"
           cy="55.229"
           r="5.993"
           id="circle2525"
           sodipodi:cx="93.005997"
           sodipodi:cy="55.229"
           sodipodi:rx="5.993"
           sodipodi:ry="5.993"
           style="fill:#ffff00"
           d="m 98.998997,55.229 c 0,3.309843 -2.683158,5.993 -5.993,5.993 -3.309843,0 -5.993,-2.683157 -5.993,-5.993 0,-3.309842 2.683157,-5.993 5.993,-5.993 3.309842,0 5.993,2.683158 5.993,5.993 z" />
        <circle
           cx="56.226002"
           cy="33.994999"
           r="5.994"
           id="circle2527"
           sodipodi:cx="56.226002"
           sodipodi:cy="33.994999"
           sodipodi:rx="5.994"
           sodipodi:ry="5.994"
           style="fill:#ff6600"
           d="m 62.220002,33.994999 c 0,3.310395 -2.683605,5.994 -5.994,5.994 -3.310395,0 -5.994,-2.683605 -5.994,-5.994 0,-3.310395 2.683605,-5.994 5.994,-5.994 3.310395,0 5.994,2.683605 5.994,5.994 z" />
        <circle
           cx="93.004997"
           cy="70.773003"
           r="5.9920001"
           id="circle2529"
           sodipodi:cx="93.004997"
           sodipodi:cy="70.773003"
           sodipodi:rx="5.9920001"
           sodipodi:ry="5.9920001"
           style="fill:#99ff00"
           d="m 98.996997,70.773003 c 0,3.30929 -2.682709,5.992 -5.992,5.992 -3.30929,0 -5.992,-2.68271 -5.992,-5.992 0,-3.309291 2.68271,-5.992 5.992,-5.992 3.309291,0 5.992,2.682709 5.992,5.992 z" />
        <path
           inkscape:connector-curvature="0"
           d="m 38.527,37.53 c 2.34,-2.34 6.137,-2.34 8.478,0 2.338,2.338 2.338,6.135 -0.001,8.475 -2.34,2.34 -6.137,2.34 -8.477,0.002 -2.339,-2.342 -2.338,-6.138 0,-8.477 z"
           id="path2531"
           style="fill:#ff0000" />
        <path
           inkscape:connector-curvature="0"
           d="m 80.996,79.995 c 2.34,-2.338 6.136,-2.339 8.475,0 2.341,2.34 2.34,6.137 0,8.477 -2.339,2.339 -6.135,2.339 -8.476,0 -2.339,-2.34 -2.339,-6.137 10e-4,-8.477 z"
           id="path2533"
           style="fill:#00cc00" />
        <path
           inkscape:connector-curvature="0"
           d="m 36.544,49.442 c 3.198,0.854 5.095,4.141 4.239,7.338 -0.857,3.197 -4.143,5.094 -7.339,4.236 -3.199,-0.855 -5.097,-4.141 -4.237,-7.34 0.856,-3.197 4.141,-5.092 7.337,-4.234 z"
           id="path2535"
           style="fill:#cc0099" />
        <path
           inkscape:connector-curvature="0"
           d="m 70.222,86.216 c 3.196,-0.856 6.483,1.04 7.338,4.239 0.857,3.197 -1.039,6.481 -4.233,7.338 -3.2,0.859 -6.485,-1.04 -7.342,-4.237 -0.858,-3.197 1.039,-6.482 4.237,-7.34 z"
           id="path2537"
           style="fill:#009999" />
        <path
           inkscape:connector-curvature="0"
           d="m 33.443,64.985 c 3.198,-0.855 6.483,1.039 7.34,4.238 0.857,3.195 -1.041,6.482 -4.24,7.338 -3.195,0.856 -6.48,-1.039 -7.336,-4.235 -0.86,-3.2 1.038,-6.487 4.236,-7.341 z"
           id="path2539"
           style="fill:#660099" />
        <circle
           cx="56.226002"
           cy="92.004997"
           r="5.993"
           id="circle2541"
           sodipodi:cx="56.226002"
           sodipodi:cy="92.004997"
           sodipodi:rx="5.993"
           sodipodi:ry="5.993"
           style="fill:#0033cc"
           d="m 62.219002,92.004997 c 0,3.309843 -2.683158,5.993 -5.993,5.993 -3.309843,0 -5.993,-2.683157 -5.993,-5.993 0,-3.309842 2.683157,-5.993 5.993,-5.993 3.309842,0 5.993,2.683158 5.993,5.993 z" />
        <path
           inkscape:connector-curvature="0"
           d="m 38.527,79.995 c 2.34,-2.339 6.137,-2.338 8.477,0 2.339,2.34 2.339,6.137 0,8.477 -2.34,2.339 -6.137,2.339 -8.477,0 -2.338,-2.34 -2.339,-6.137 0,-8.477 z"
           id="path2543"
           style="fill:#330099" />
        <path
           inkscape:connector-curvature="0"
           d="m 38.527,46.006 c 2.34,2.338 6.137,2.338 8.477,-0.002 2.339,-2.34 2.339,-6.137 0.001,-8.475 -2.341,-2.34 -6.138,-2.34 -8.478,0 -2.338,2.34 -2.339,6.136 0,8.477 z"
           id="path2545"
           style="fill:none" />
        <path
           inkscape:connector-curvature="0"
           d="m 33.444,61.016 c 3.197,0.857 6.482,-1.039 7.339,-4.236 0.855,-3.197 -1.041,-6.484 -4.239,-7.338 -3.196,-0.857 -6.481,1.037 -7.337,4.234 -0.86,3.199 1.038,6.485 4.237,7.34 z"
           id="path2547"
           style="fill:none" />
        <circle
           cx="34.993"
           cy="70.773003"
           r="5.9920001"
           id="circle2549"
           sodipodi:cx="34.993"
           sodipodi:cy="70.773003"
           sodipodi:rx="5.9920001"
           sodipodi:ry="5.9920001"
           style="fill:none"
           d="m 40.985,70.773003 c 0,3.30929 -2.68271,5.992 -5.992,5.992 -3.30929,0 -5.992,-2.68271 -5.992,-5.992 0,-3.309291 2.68271,-5.992 5.992,-5.992 3.30929,0 5.992,2.682709 5.992,5.992 z" />
        <path
           inkscape:connector-curvature="0"
           d="m 47.004,88.472 c 2.339,-2.34 2.339,-6.137 0,-8.477 -2.34,-2.338 -6.137,-2.339 -8.477,0 -2.34,2.34 -2.338,6.137 0,8.477 2.34,2.339 6.137,2.339 8.477,0 z"
           id="path2551"
           style="fill:none" />
        <circle
           cx="56.228001"
           cy="92.005997"
           r="5.9920001"
           id="circle2553"
           sodipodi:cx="56.228001"
           sodipodi:cy="92.005997"
           sodipodi:rx="5.9920001"
           sodipodi:ry="5.9920001"
           style="fill:none"
           d="m 62.220001,92.005997 c 0,3.30929 -2.68271,5.992 -5.992,5.992 -3.309291,0 -5.992,-2.68271 -5.992,-5.992 0,-3.309291 2.682709,-5.992 5.992,-5.992 3.30929,0 5.992,2.682709 5.992,5.992 z" />
        <path
           inkscape:connector-curvature="0"
           d="m 62.017,32.445 c -0.857,-3.197 -4.143,-5.096 -7.342,-4.239 -3.196,0.857 -5.092,4.145 -4.235,7.34 0.854,3.198 4.143,5.096 7.338,4.239 3.198,-0.859 5.094,-4.144 4.239,-7.34 z"
           id="path2555"
           style="fill:none" />
        <g
           id="XMLID_1_">
          <path
             inkscape:connector-curvature="0"
             d="m 75.631,56.286 c -0.922,-1.602 -0.374,-3.65 1.226,-4.574 1.601,-0.924 3.649,-0.374 4.574,1.225 0.926,1.603 0.376,3.652 -1.225,4.574 -1.602,0.924 -3.649,0.377 -4.575,-1.225 z"
             id="path2558"
             style="fill:#ffe500" />
          <circle
             cx="72.389"
             cy="48.469002"
             r="3.3469999"
             id="circle2560"
             sodipodi:cx="72.389"
             sodipodi:cy="48.469002"
             sodipodi:rx="3.3469999"
             sodipodi:ry="3.3469999"
             style="fill:#ffb200"
             d="m 75.736,48.469002 c 0,1.848497 -1.498503,3.347 -3.347,3.347 -1.848497,0 -3.347,-1.498503 -3.347,-3.347 0,-1.848497 1.498503,-3.347 3.347,-3.347 1.848497,0 3.347,1.498503 3.347,3.347 z" />
          <path
             inkscape:connector-curvature="0"
             d="m 60.652,46.223 c 0,-1.852 1.498,-3.349 3.346,-3.35 1.853,-0.004 3.35,1.498 3.35,3.35 0,1.85 -1.498,3.346 -3.348,3.348 -1.85,-0.002 -3.35,-1.5 -3.348,-3.348 z"
             id="path2562"
             style="fill:#ff8000" />
          <path
             inkscape:connector-curvature="0"
             d="m 77.431,63 c 0.001,-1.85 1.5,-3.349 3.348,-3.348 1.851,0 3.348,1.498 3.35,3.346 0.002,1.853 -1.499,3.348 -3.35,3.349 C 78.929,66.346 77.432,64.851 77.431,63 z"
             id="path2564"
             style="fill:#ccff00" />
          <path
             inkscape:connector-curvature="0"
             d="m 53.934,45.571 c 1.604,-0.926 3.652,-0.377 4.576,1.225 0.925,1.604 0.378,3.65 -1.226,4.575 -1.599,0.923 -3.65,0.374 -4.575,-1.226 -0.922,-1.602 -0.373,-3.65 1.225,-4.574 z"
             id="path2566"
             style="fill:#ff3300" />
          <circle
             cx="78.530998"
             cy="71.390999"
             r="3.349"
             id="circle2568"
             sodipodi:cx="78.530998"
             sodipodi:cy="71.390999"
             sodipodi:rx="3.349"
             sodipodi:ry="3.349"
             style="fill:#33ff00"
             d="m 81.879998,71.390999 c 0,1.849601 -1.499398,3.349 -3.349,3.349 -1.849601,0 -3.349,-1.499399 -3.349,-3.349 0,-1.849602 1.499399,-3.349 3.349,-3.349 1.849602,0 3.349,1.499398 3.349,3.349 z" />
          <path
             inkscape:connector-curvature="0"
             d="m 51.142,51.713 c 1.604,0.922 2.152,2.969 1.228,4.572 -0.926,1.604 -2.973,2.15 -4.576,1.225 -1.601,-0.922 -2.149,-2.971 -1.225,-4.574 0.926,-1.602 2.97,-2.15 4.573,-1.223 z"
             id="path2570"
             style="fill:#e50066" />
          <circle
             cx="72.390999"
             cy="77.530998"
             r="3.348"
             id="circle2572"
             sodipodi:cx="72.390999"
             sodipodi:cy="77.530998"
             sodipodi:rx="3.348"
             sodipodi:ry="3.348"
             style="fill:#00b266"
             d="m 75.738999,77.530998 c 0,1.84905 -1.498951,3.348 -3.348,3.348 -1.84905,0 -3.348,-1.49895 -3.348,-3.348 0,-1.849049 1.49895,-3.348 3.348,-3.348 1.849049,0 3.348,1.498951 3.348,3.348 z" />
          <path
             inkscape:connector-curvature="0"
             d="m 50.568,63 c 0,1.851 -1.5,3.349 -3.347,3.346 -1.851,0 -3.348,-1.496 -3.347,-3.346 -0.005,-1.85 1.494,-3.348 3.346,-3.348 1.852,0 3.348,1.499 3.348,3.348 z"
             id="path2574"
             style="fill:#990099" />
          <circle
             cx="64"
             cy="79.778"
             r="3.348"
             id="circle2576"
             sodipodi:cx="64"
             sodipodi:cy="79.778"
             sodipodi:rx="3.348"
             sodipodi:ry="3.348"
             style="fill:#0066b2"
             d="m 67.348,79.778 c 0,1.849049 -1.498951,3.348 -3.348,3.348 -1.849049,0 -3.348,-1.498951 -3.348,-3.348 0,-1.849049 1.498951,-3.348 3.348,-3.348 1.849049,0 3.348,1.498951 3.348,3.348 z" />
          <path
             inkscape:connector-curvature="0"
             d="m 47.793,68.489 c 1.604,-0.924 3.65,-0.378 4.576,1.226 0.922,1.601 0.375,3.649 -1.225,4.575 -1.603,0.924 -3.65,0.375 -4.575,-1.226 -0.925,-1.602 -0.377,-3.651 1.224,-4.575 z"
             id="path2578"
             style="fill:#400099" />
          <path
             inkscape:connector-curvature="0"
             d="m 58.51,79.206 c -0.924,1.601 -2.973,2.15 -4.575,1.225 -1.6,-0.925 -2.15,-2.972 -1.224,-4.573 0.923,-1.604 2.97,-2.151 4.572,-1.226 1.606,0.924 2.151,2.972 1.227,4.574 z"
             id="path2580"
             style="fill:#1919b2" />
        </g>
      </g>
    </g>
    <path
       style="fill:#000000"
       d=""
       id="path2197" />
    <path
       clip-path="url(#clipPath6093-7)"
       style="opacity:0.34728035;fill:#000000;fill-opacity:1;stroke:none;filter:url(#filter6171-8)"
       d="m 114.4,82.502986 c 0,4.465301 -6.19771,3.506816 -8.67994,5.190489 -5.10854,3.46508 -20.174689,2.225237 -25.955859,2.306257 -0.081,5.781159 0.786541,16.143798 0.786541,22.293818 0,2.97817 -3.440475,11.20945 -6.350745,11.20945 -2.091359,1.5337 3.488204,8.21101 6.734971,5.31989 9.501888,-8.46107 35.131682,-30.022704 43.350822,-39.262889 2.04044,-2.29392 -4.90514,-9.844666 -9.88579,-7.057015 z"
       id="path6153"
       inkscape:connector-curvature="0"
       sodipodi:nodetypes="cscscssc"
       transform="matrix(1.2713893,0,0,1.3008089,-31.411352,-31.072453)" />
    <path
       sodipodi:nodetypes="cscscssc"
       inkscape:connector-curvature="0"
       id="path6081"
       d="m 113.9,82.502986 c 0,4.465301 -7.96273,11.129672 -10.95287,11.553449 -6.394981,0.906328 -15.824979,-3.47754 -21.606149,-3.39652 -0.081,5.781159 3.918356,18.962455 0.453276,24.070995 -1.68367,2.48224 -3.883991,8.07209 -6.794261,8.07209 -2.091359,1.5337 3.488204,11.21101 6.734971,8.31989 9.501888,-8.46107 45.998943,-30.20138 54.218083,-39.441569 2.04044,-2.29392 -17.0724,-11.965986 -22.05305,-9.178335 z"
       style="opacity:0.49295774;fill:#000000;fill-opacity:1;stroke:none;filter:url(#filter4087)"
       clip-path="url(#clipPath6093-7)"
       transform="matrix(1.323697,0,0,1.3543271,-37.27081,-37.383179)" />
    <path
       style="fill:url(#linearGradient3895-3);fill-opacity:1;stroke:none"
       d="m 111.80692,72.373791 c 0,6.193164 -3.79585,8.890306 -7.16393,11.225476 C 97.711316,88.405175 83.444341,87.387629 75.6,87.5 c -0.109909,8.0182 0.701692,21.4147 -4,28.5 -2.284534,3.44276 -6.727129,8.38457 -10.67601,8.38457 3.145284,0 6.435454,-1.85125 10.290589,-5.66544 12.404537,-12.27278 23.56509,-22.378984 34.835341,-35.086504 2.60379,-2.935824 5.757,-5.051122 5.757,-11.258835 z"
       id="path6011"
       inkscape:connector-curvature="0"
       sodipodi:nodetypes="cscscssc" />
    <path
       style="fill:#ffffff;fill-opacity:1;stroke:none"
       d="m 111.83234,71.941762 c -0.42932,5.407885 -4.39696,7.298568 -6.55729,8.796367 C 100.15305,84.28932 93.349113,84 72,84 c 0,19.65502 0.5,28.4 -3.219913,33.20293 -2.21447,2.85919 -6.648335,6.04727 -10.26176,6.86542 4.951272,0 8.407066,-1.08166 11.641616,-4.28186 0.460141,-0.53889 1.37925,-1.54169 2.101048,-2.68043 C 76.100178,111.32051 76,99.904353 76,88 c 7.844341,-0.112342 21.630842,1.155905 28.5625,-3.65 0.63154,-0.437847 2.56984,-2.009889 3.13546,-2.57551 3.14173,-3.14173 3.82294,-5.144366 4.13438,-9.832728 z M 58.518327,124.06835 c -0.213922,0.0483 -0.425295,0.0575 -0.636038,0.0866 0.213019,-0.0234 0.421235,-0.0465 0.636038,-0.0866 z"
       id="path6122"
       inkscape:connector-curvature="0"
       sodipodi:nodetypes="cscsccccsscccc" />
    <path
       style="fill:none;stroke:url(#radialGradient3919-5);stroke-width:1.85605633;stroke-linecap:butt;stroke-linejoin:miter;stroke-miterlimit:4;stroke-opacity:1;stroke-dasharray:none;filter:url(#filter3909-6)"
       d="M 108.97651,89.508691 79.934895,118.21077"
       id="path3873"
       inkscape:connector-curvature="0"
       sodipodi:nodetypes="cc"
       clip-path="url(#clipPath3889-6)"
       transform="matrix(1.3568778,0,0,1.3869539,-40.163409,-42.054049)" />
  </g>
</svg>
