<?xml version="1.0" encoding="UTF-8" standalone="no"?>
<!-- Created with Inkscape (http://www.inkscape.org/) -->

<svg
   xmlns:dc="http://purl.org/dc/elements/1.1/"
   xmlns:cc="http://creativecommons.org/ns#"
   xmlns:rdf="http://www.w3.org/1999/02/22-rdf-syntax-ns#"
   xmlns:svg="http://www.w3.org/2000/svg"
   xmlns="http://www.w3.org/2000/svg"
   xmlns:xlink="http://www.w3.org/1999/xlink"
   xmlns:sodipodi="http://sodipodi.sourceforge.net/DTD/sodipodi-0.dtd"
   xmlns:inkscape="http://www.inkscape.org/namespaces/inkscape"
   width="128"
   height="128"
   id="svg2606"
   sodipodi:version="0.32"
   inkscape:version="0.48.0 r9654"
   version="1.0"
   sodipodi:docname="application-x-font-otf.svgz"
   inkscape:output_extension="org.inkscape.output.svgz.inkscape"
   inkscape:export-filename="/home/pinheiro/pics/oxygen-icons/scalable/mimetypes/small/32x32/application-x-font-otf.png"
   inkscape:export-xdpi="180"
   inkscape:export-ydpi="180">
  <defs
     id="defs2608">
    <linearGradient
       id="linearGradient6131">
      <stop
         id="stop6133"
         offset="0"
         style="stop-color:#fcfcfc;stop-opacity:1" />
      <stop
         style="stop-color:#f8f8f8;stop-opacity:1"
         offset="0.52275378"
         id="stop6135" />
      <stop
         id="stop6141"
         offset="0.77457333"
         style="stop-color:#f0efef;stop-opacity:1;" />
      <stop
         id="stop6139"
         offset="0.90122044"
         style="stop-color:#e3e1e1;stop-opacity:1;" />
      <stop
         id="stop6137"
         offset="1"
         style="stop-color:#cecbcb;stop-opacity:1" />
    </linearGradient>
    <linearGradient
       inkscape:collect="always"
       xlink:href="#linearGradient6131"
       id="linearGradient3893"
       gradientUnits="userSpaceOnUse"
       gradientTransform="matrix(1.0119858,0,0,1.0119858,-0.89554075,-0.9871566)"
       x1="86.73793"
       y1="93.621468"
       x2="95.460213"
       y2="102.34375" />
    <radialGradient
       inkscape:collect="always"
       xlink:href="#linearGradient3913-5"
       id="radialGradient3919-5"
       cx="90.75"
       cy="110.25299"
       fx="90.75"
       fy="110.25299"
       r="18.750002"
       gradientTransform="matrix(1.3067347,0,0,1.3067347,-27.83617,-33.818441)"
       gradientUnits="userSpaceOnUse" />
    <linearGradient
       inkscape:collect="always"
       id="linearGradient3913-5">
      <stop
         style="stop-color:#ffffff;stop-opacity:1;"
         offset="0"
         id="stop3915-4" />
      <stop
         style="stop-color:#ffffff;stop-opacity:0;"
         offset="1"
         id="stop3917-7" />
    </linearGradient>
    <clipPath
       clipPathUnits="userSpaceOnUse"
       id="clipPath3889-6">
      <path
         sodipodi:nodetypes="cscscssc"
         inkscape:connector-curvature="0"
         id="path3891-5"
         d="m 112,82.502986 c 0,4.465301 -2.79749,6.409952 -5.27972,8.093625 -5.10854,3.46508 -14.939114,3.32536 -20.720284,3.40638 -0.081,5.781159 0.16586,15.504599 -3.29922,20.613139 -1.68367,2.48224 -5.29051,5.38687 -8.20078,5.38687 2.31803,0 4.74284,-1.33476 7.58402,-4.08481 9.14197,-8.84873 17.36714,-16.13535 25.673154,-25.297529 C 109.67612,88.503916 112,86.97878 112,82.502986 z"
         style="fill:url(#linearGradient3893);fill-opacity:1;stroke:none" />
    </clipPath>
    <filter
       color-interpolation-filters="sRGB"
       inkscape:collect="always"
       id="filter3909-6">
      <feGaussianBlur
         inkscape:collect="always"
         stdDeviation="0.43040059"
         id="feGaussianBlur3911-9" />
    </filter>
    <linearGradient
       inkscape:collect="always"
       xlink:href="#linearGradient3897-7"
       id="linearGradient3895-3"
       gradientUnits="userSpaceOnUse"
       gradientTransform="matrix(1.3731411,0,0,1.4035776,-41.378546,-43.42319)"
       x1="82.15696"
       y1="90.381706"
       x2="94.220871"
       y2="102.18401" />
    <linearGradient
       id="linearGradient3897-7">
      <stop
         style="stop-color:#fcfcfc;stop-opacity:1"
         offset="0"
         id="stop3899-4" />
      <stop
         id="stop3901-5"
         offset="0.52275378"
         style="stop-color:#f8f8f8;stop-opacity:1" />
      <stop
         style="stop-color:#f0efef;stop-opacity:1;"
         offset="0.72337759"
         id="stop3903-2" />
      <stop
         style="stop-color:#e3e1e1;stop-opacity:1;"
         offset="0.89024991"
         id="stop3905-5" />
      <stop
         style="stop-color:#cecbcb;stop-opacity:1"
         offset="1"
         id="stop3907-4" />
    </linearGradient>
    <clipPath
       clipPathUnits="userSpaceOnUse"
       id="clipPath6093-7">
      <path
         inkscape:connector-curvature="0"
         sodipodi:nodetypes="cccssccc"
         id="path6095-4"
         d="m 17.000001,8 0.782827,110 57.5,0 c 1.675283,0 3.119418,0.18058 4.9,-1.6 C 88.980763,107.60206 99.94047,96.548195 107.19904,89.224043 109.6396,86.761431 110,84.752873 110,82.5 L 110,8 z"
         style="fill:#ffffff;fill-opacity:1" />
    </clipPath>
    <radialGradient
       inkscape:collect="always"
       xlink:href="#linearGradient5982-7"
       id="radialGradient5988-0"
       cx="64"
       cy="64.004021"
       fx="63.793392"
       fy="47.274845"
       r="47.5"
       gradientTransform="matrix(1.7069944,-0.08541345,0.06979496,1.3941371,-50.362376,-20.218185)"
       gradientUnits="userSpaceOnUse" />
    <linearGradient
       inkscape:collect="always"
       id="linearGradient5982-7">
      <stop
         style="stop-color:#ffffff;stop-opacity:1;"
         offset="0"
         id="stop5984-8" />
      <stop
         style="stop-color:#ffffff;stop-opacity:0;"
         offset="1"
         id="stop5986-6" />
    </linearGradient>
    <filter
       color-interpolation-filters="sRGB"
       inkscape:collect="always"
       id="filter6171-8"
       x="-0.47870937"
       width="1.9574188"
       y="-0.51275069"
       height="2.0255013">
      <feGaussianBlur
         inkscape:collect="always"
         stdDeviation="10.140743"
         id="feGaussianBlur6173-8" />
    </filter>
    <linearGradient
       inkscape:collect="always"
       xlink:href="#linearGradient4518-3"
       id="linearGradient4524-4"
       x1="72"
       y1="0"
       x2="72"
       y2="116.40091"
       gradientUnits="userSpaceOnUse"
       gradientTransform="matrix(1.013528,0,0,1.013266,-1.5133685,-1.3073648)" />
    <linearGradient
       id="linearGradient4518-3">
      <stop
         style="stop-color:#eeecec;stop-opacity:1"
         offset="0"
         id="stop4520-1" />
      <stop
         id="stop5969-4"
         offset="0.40000001"
         style="stop-color:#f4f4f4;stop-opacity:1" />
      <stop
         style="stop-color:#f6f5f5;stop-opacity:1"
         offset="1"
         id="stop4522-9" />
    </linearGradient>
    <filter
       inkscape:collect="always"
       id="filter4123">
      <feGaussianBlur
         inkscape:collect="always"
         stdDeviation="2.028"
         id="feGaussianBlur4125" />
    </filter>
    <filter
       inkscape:collect="always"
       id="filter4087"
       x="-0.16465071"
       width="1.3293014"
       y="-0.2041295"
       height="1.408259">
      <feGaussianBlur
         inkscape:collect="always"
         stdDeviation="4.2234282"
         id="feGaussianBlur4089" />
    </filter>
    <filter
       inkscape:collect="always"
       id="filter4084">
      <feGaussianBlur
         inkscape:collect="always"
         stdDeviation="1.4598961"
         id="feGaussianBlur4086" />
    </filter>
    <clipPath
       clipPathUnits="userSpaceOnUse"
       id="clipPath4592">
      <path
         style="opacity:0.84653476;fill:url(#radialGradient4596);fill-opacity:1"
         d="m 16,6.5 c -0.339844,0 -0.5,0.2346178 -0.5,0.5 l 0,108.96875 c 0,0.82158 0.681053,1.55326 1.5,1.5 l 46.746088,-3.03997 c 0.05295,-0.003 0.997884,-0.008 1.6875,5e-5 9.539693,-7.34884 30.563674,-30.709161 39.541222,-39.51706 1.47685,-1.656484 1.11385,-1.151317 1.45391,-2.888706 L 109.5,7 c 0,-0.3227174 -0.16322,-0.5 -0.5,-0.5 z"
         id="path4594"
         inkscape:connector-curvature="0"
         sodipodi:nodetypes="ccssscccccc" />
    </clipPath>
    <linearGradient
       inkscape:collect="always"
       xlink:href="#linearGradient3270"
       id="linearGradient4384"
       gradientUnits="userSpaceOnUse"
       gradientTransform="matrix(-0.10018324,0.46670295,-0.3487196,-0.07485674,80.19699,37.374457)"
       spreadMethod="reflect"
       x1="64.018799"
       y1="24.784855"
       x2="105.72495"
       y2="24.784855" />
    <linearGradient
       id="linearGradient3270">
      <stop
         style="stop-color:#000000;stop-opacity:0.58273381;"
         offset="0"
         id="stop3272" />
      <stop
         id="stop3312"
         offset="0.74876845"
         style="stop-color:#000000;stop-opacity:0.49640289;" />
      <stop
         style="stop-color:#000000;stop-opacity:0;"
         offset="1"
         id="stop3274" />
    </linearGradient>
    <linearGradient
       inkscape:collect="always"
       xlink:href="#linearGradient3270"
       id="linearGradient4381"
       gradientUnits="userSpaceOnUse"
       gradientTransform="matrix(0.06984947,0,0,0.45856539,71.51171,61.647178)"
       spreadMethod="reflect"
       x1="64.018799"
       y1="24.784855"
       x2="105.72495"
       y2="24.784855" />
    <linearGradient
       id="linearGradient3191">
      <stop
         style="stop-color:#000000;stop-opacity:0.58273381;"
         offset="0"
         id="stop3193" />
      <stop
         id="stop3195"
         offset="0.74876845"
         style="stop-color:#000000;stop-opacity:0.49640289;" />
      <stop
         style="stop-color:#000000;stop-opacity:0;"
         offset="1"
         id="stop3197" />
    </linearGradient>
    <linearGradient
       inkscape:collect="always"
       xlink:href="#linearGradient3270"
       id="linearGradient4378"
       gradientUnits="userSpaceOnUse"
       gradientTransform="matrix(0,0.06984947,-0.45856539,0,87.74946,69.189232)"
       spreadMethod="reflect"
       x1="64.018799"
       y1="24.784855"
       x2="105.72495"
       y2="24.784855" />
    <linearGradient
       id="linearGradient3200">
      <stop
         style="stop-color:#000000;stop-opacity:0.58273381;"
         offset="0"
         id="stop3202" />
      <stop
         id="stop3204"
         offset="0.74876845"
         style="stop-color:#000000;stop-opacity:0.49640289;" />
      <stop
         style="stop-color:#000000;stop-opacity:0;"
         offset="1"
         id="stop3206" />
    </linearGradient>
    <linearGradient
       inkscape:collect="always"
       xlink:href="#linearGradient3270"
       id="linearGradient4375"
       gradientUnits="userSpaceOnUse"
       gradientTransform="matrix(0.06633036,0,0,0.5,51.771962,48.869151)"
       spreadMethod="reflect"
       x1="64.018799"
       y1="24.784855"
       x2="105.72495"
       y2="24.784855" />
    <linearGradient
       id="linearGradient3209">
      <stop
         style="stop-color:#000000;stop-opacity:0.58273381;"
         offset="0"
         id="stop3211" />
      <stop
         id="stop3213"
         offset="0.74876845"
         style="stop-color:#000000;stop-opacity:0.49640289;" />
      <stop
         style="stop-color:#000000;stop-opacity:0;"
         offset="1"
         id="stop3215" />
    </linearGradient>
    <radialGradient
       inkscape:collect="always"
       xlink:href="#linearGradient3197"
       id="radialGradient4372"
       gradientUnits="userSpaceOnUse"
       gradientTransform="matrix(1.4812254,-0.01964186,0.01415715,1.0676144,-193.99704,0.2276678)"
       cx="180.53125"
       cy="78.65625"
       fx="180.53125"
       fy="78.65625"
       r="18" />
    <linearGradient
       id="linearGradient3197">
      <stop
         id="stop3199"
         offset="0"
         style="stop-color:#414141;stop-opacity:1;" />
      <stop
         style="stop-color:#ababab;stop-opacity:1;"
         offset="0.5"
         id="stop3201" />
      <stop
         id="stop3203"
         offset="1"
         style="stop-color:#414141;stop-opacity:1;" />
    </linearGradient>
    <radialGradient
       inkscape:collect="always"
       xlink:href="#linearGradient3197"
       id="radialGradient4367"
       gradientUnits="userSpaceOnUse"
       gradientTransform="matrix(1.4812254,-0.01964186,0.01415715,1.0676144,-193.99704,0.2276678)"
       cx="180.53125"
       cy="78.656265"
       fx="180.53125"
       fy="78.656273"
       r="18" />
    <linearGradient
       id="linearGradient3223">
      <stop
         id="stop3225"
         offset="0"
         style="stop-color:#414141;stop-opacity:1;" />
      <stop
         style="stop-color:#ababab;stop-opacity:1;"
         offset="0.5"
         id="stop3227" />
      <stop
         id="stop3229"
         offset="1"
         style="stop-color:#414141;stop-opacity:1;" />
    </linearGradient>
    <linearGradient
       inkscape:collect="always"
       xlink:href="#linearGradient3270"
       id="linearGradient4364"
       gradientUnits="userSpaceOnUse"
       gradientTransform="matrix(0.06984947,0,0,0.45856539,66.84324,82.363682)"
       spreadMethod="reflect"
       x1="64.018799"
       y1="24.784855"
       x2="105.72495"
       y2="24.784855" />
    <linearGradient
       id="linearGradient3232">
      <stop
         style="stop-color:#000000;stop-opacity:0.58273381;"
         offset="0"
         id="stop3234" />
      <stop
         id="stop3236"
         offset="0.74876845"
         style="stop-color:#000000;stop-opacity:0.49640289;" />
      <stop
         style="stop-color:#000000;stop-opacity:0;"
         offset="1"
         id="stop3238" />
    </linearGradient>
    <linearGradient
       inkscape:collect="always"
       xlink:href="#linearGradient3270"
       id="linearGradient4361"
       gradientUnits="userSpaceOnUse"
       gradientTransform="matrix(0,0.06984947,-0.45856539,0,83.14729,89.817348)"
       spreadMethod="reflect"
       x1="64.018799"
       y1="24.784855"
       x2="105.72495"
       y2="24.784855" />
    <linearGradient
       id="linearGradient3241">
      <stop
         style="stop-color:#000000;stop-opacity:0.58273381;"
         offset="0"
         id="stop3243" />
      <stop
         id="stop3245"
         offset="0.74876845"
         style="stop-color:#000000;stop-opacity:0.49640289;" />
      <stop
         style="stop-color:#000000;stop-opacity:0;"
         offset="1"
         id="stop3247" />
    </linearGradient>
    <linearGradient
       inkscape:collect="always"
       xlink:href="#linearGradient3270"
       id="linearGradient4358"
       gradientUnits="userSpaceOnUse"
       gradientTransform="matrix(0.12294248,0,0,0.5,81.295734,87.869151)"
       spreadMethod="reflect"
       x1="64.018799"
       y1="24.784855"
       x2="105.72495"
       y2="24.784855" />
    <linearGradient
       id="linearGradient3250">
      <stop
         style="stop-color:#000000;stop-opacity:0.58273381;"
         offset="0"
         id="stop3252" />
      <stop
         id="stop3254"
         offset="0.74876845"
         style="stop-color:#000000;stop-opacity:0.49640289;" />
      <stop
         style="stop-color:#000000;stop-opacity:0;"
         offset="1"
         id="stop3256" />
    </linearGradient>
    <linearGradient
       inkscape:collect="always"
       xlink:href="#linearGradient3270"
       id="linearGradient4355"
       gradientUnits="userSpaceOnUse"
       gradientTransform="matrix(0,0.06209551,-0.5,0,68.63325,57.332269)"
       spreadMethod="reflect"
       x1="64.018799"
       y1="24.784855"
       x2="105.72495"
       y2="24.784855" />
    <linearGradient
       id="linearGradient3259">
      <stop
         style="stop-color:#000000;stop-opacity:0.58273381;"
         offset="0"
         id="stop3261" />
      <stop
         id="stop3263"
         offset="0.74876845"
         style="stop-color:#000000;stop-opacity:0.49640289;" />
      <stop
         style="stop-color:#000000;stop-opacity:0;"
         offset="1"
         id="stop3265" />
    </linearGradient>
    <linearGradient
       inkscape:collect="always"
       xlink:href="#linearGradient3270"
       id="linearGradient4352"
       gradientUnits="userSpaceOnUse"
       gradientTransform="matrix(0,0.19069126,-0.5,0,105.13325,86.670262)"
       spreadMethod="reflect"
       x1="64.018799"
       y1="24.784855"
       x2="105.72495"
       y2="24.784855" />
    <linearGradient
       id="linearGradient3268">
      <stop
         style="stop-color:#000000;stop-opacity:0.58273381;"
         offset="0"
         id="stop3270" />
      <stop
         id="stop3273"
         offset="0.74876845"
         style="stop-color:#000000;stop-opacity:0.49640289;" />
      <stop
         style="stop-color:#000000;stop-opacity:0;"
         offset="1"
         id="stop3275" />
    </linearGradient>
    <linearGradient
       inkscape:collect="always"
       xlink:href="#linearGradient3270"
       id="linearGradient4349"
       gradientUnits="userSpaceOnUse"
       gradientTransform="matrix(0.46670295,0.10018324,-0.07485674,0.3487196,51.2129,47.857398)"
       spreadMethod="reflect"
       x1="64.018799"
       y1="24.784855"
       x2="105.72495"
       y2="24.784855" />
    <linearGradient
       id="linearGradient3278">
      <stop
         style="stop-color:#000000;stop-opacity:0.58273381;"
         offset="0"
         id="stop3280" />
      <stop
         id="stop3282"
         offset="0.74876845"
         style="stop-color:#000000;stop-opacity:0.49640289;" />
      <stop
         style="stop-color:#000000;stop-opacity:0;"
         offset="1"
         id="stop3284" />
    </linearGradient>
    <linearGradient
       inkscape:collect="always"
       xlink:href="#linearGradient3270"
       id="linearGradient4346"
       gradientUnits="userSpaceOnUse"
       gradientTransform="matrix(0.46670295,0.10018324,-0.07485674,0.3487196,41.57857,83.389514)"
       spreadMethod="reflect"
       x1="64.018799"
       y1="24.784855"
       x2="105.72495"
       y2="24.784855" />
    <linearGradient
       id="linearGradient3287">
      <stop
         style="stop-color:#000000;stop-opacity:0.58273381;"
         offset="0"
         id="stop3289" />
      <stop
         id="stop3291"
         offset="0.74876845"
         style="stop-color:#000000;stop-opacity:0.49640289;" />
      <stop
         style="stop-color:#000000;stop-opacity:0;"
         offset="1"
         id="stop3293" />
    </linearGradient>
    <linearGradient
       inkscape:collect="always"
       xlink:href="#linearGradient3270"
       id="linearGradient4343"
       gradientUnits="userSpaceOnUse"
       gradientTransform="matrix(-0.10018324,0.46670295,-0.3487196,-0.07485674,99.98234,64.406311)"
       spreadMethod="reflect"
       x1="64.018799"
       y1="24.784855"
       x2="105.72495"
       y2="24.784855" />
    <linearGradient
       id="linearGradient3296">
      <stop
         style="stop-color:#000000;stop-opacity:0.58273381;"
         offset="0"
         id="stop3298" />
      <stop
         id="stop3300"
         offset="0.74876845"
         style="stop-color:#000000;stop-opacity:0.49640289;" />
      <stop
         style="stop-color:#000000;stop-opacity:0;"
         offset="1"
         id="stop3302" />
    </linearGradient>
    <linearGradient
       inkscape:collect="always"
       xlink:href="#linearGradient3270"
       id="linearGradient4340"
       gradientUnits="userSpaceOnUse"
       gradientTransform="matrix(0.05869174,0,0,0.5,89.365764,48.869151)"
       spreadMethod="reflect"
       x1="64.018799"
       y1="24.784855"
       x2="105.72495"
       y2="24.784855" />
    <linearGradient
       id="linearGradient3305">
      <stop
         style="stop-color:#000000;stop-opacity:0.58273381;"
         offset="0"
         id="stop3307" />
      <stop
         id="stop3309"
         offset="0.74876845"
         style="stop-color:#000000;stop-opacity:0.49640289;" />
      <stop
         style="stop-color:#000000;stop-opacity:0;"
         offset="1"
         id="stop3311" />
    </linearGradient>
    <linearGradient
       inkscape:collect="always"
       xlink:href="#linearGradient3270"
       id="linearGradient4337"
       gradientUnits="userSpaceOnUse"
       gradientTransform="matrix(0.04453771,0,0,0.5,54.077972,87.869151)"
       spreadMethod="reflect"
       x1="64.018799"
       y1="24.784855"
       x2="105.72495"
       y2="24.784855" />
    <linearGradient
       id="linearGradient3314">
      <stop
         style="stop-color:#000000;stop-opacity:0.58273381;"
         offset="0"
         id="stop3316" />
      <stop
         id="stop3318"
         offset="0.74876845"
         style="stop-color:#000000;stop-opacity:0.49640289;" />
      <stop
         style="stop-color:#000000;stop-opacity:0;"
         offset="1"
         id="stop3320" />
    </linearGradient>
    <linearGradient
       inkscape:collect="always"
       xlink:href="#linearGradient3270"
       id="linearGradient4334"
       gradientUnits="userSpaceOnUse"
       gradientTransform="matrix(-0.12974371,0.60441022,-0.45161422,-0.09694427,93.639709,45.112247)"
       spreadMethod="reflect"
       x1="64.018799"
       y1="24.784855"
       x2="105.72495"
       y2="24.784855" />
    <linearGradient
       id="linearGradient3323">
      <stop
         style="stop-color:#000000;stop-opacity:0.58273381;"
         offset="0"
         id="stop3325" />
      <stop
         id="stop3327"
         offset="0.74876845"
         style="stop-color:#000000;stop-opacity:0.49640289;" />
      <stop
         style="stop-color:#000000;stop-opacity:0;"
         offset="1"
         id="stop3329" />
    </linearGradient>
    <linearGradient
       inkscape:collect="always"
       xlink:href="#linearGradient3270"
       id="linearGradient4388"
       gradientUnits="userSpaceOnUse"
       gradientTransform="matrix(-0.46670295,-0.10018324,0.07485674,-0.3487196,102.14161,96.432666)"
       spreadMethod="reflect"
       x1="64.018799"
       y1="24.784855"
       x2="105.72495"
       y2="24.784855" />
    <linearGradient
       id="linearGradient3332">
      <stop
         style="stop-color:#000000;stop-opacity:0.58273381;"
         offset="0"
         id="stop3334" />
      <stop
         id="stop3336"
         offset="0.74876845"
         style="stop-color:#000000;stop-opacity:0.49640289;" />
      <stop
         style="stop-color:#000000;stop-opacity:0;"
         offset="1"
         id="stop3338" />
    </linearGradient>
    <linearGradient
       inkscape:collect="always"
       xlink:href="#linearGradient3270"
       id="linearGradient4392"
       gradientUnits="userSpaceOnUse"
       gradientTransform="matrix(0,0.0392367,-0.5,0,68.63325,97.284929)"
       spreadMethod="reflect"
       x1="64.018799"
       y1="24.784855"
       x2="105.72495"
       y2="24.784855" />
    <linearGradient
       id="linearGradient3341">
      <stop
         style="stop-color:#000000;stop-opacity:0.58273381;"
         offset="0"
         id="stop3343" />
      <stop
         id="stop3345"
         offset="0.74876845"
         style="stop-color:#000000;stop-opacity:0.49640289;" />
      <stop
         style="stop-color:#000000;stop-opacity:0;"
         offset="1"
         id="stop3347" />
    </linearGradient>
    <linearGradient
       inkscape:collect="always"
       xlink:href="#linearGradient3270"
       id="linearGradient4396"
       gradientUnits="userSpaceOnUse"
       gradientTransform="matrix(0,0.0627597,-0.5,0,105.13325,57.062304)"
       spreadMethod="reflect"
       x1="64.018799"
       y1="24.784855"
       x2="105.72495"
       y2="24.784855" />
    <linearGradient
       id="linearGradient3350">
      <stop
         style="stop-color:#000000;stop-opacity:0.58273381;"
         offset="0"
         id="stop3352" />
      <stop
         id="stop3354"
         offset="0.74876845"
         style="stop-color:#000000;stop-opacity:0.49640289;" />
      <stop
         style="stop-color:#000000;stop-opacity:0;"
         offset="1"
         id="stop3356" />
    </linearGradient>
    <linearGradient
       inkscape:collect="always"
       xlink:href="#linearGradient3270"
       id="linearGradient4400"
       gradientUnits="userSpaceOnUse"
       gradientTransform="matrix(-0.25116114,-0.05391467,0.04028495,-0.18766715,89.209453,89.478844)"
       spreadMethod="reflect"
       x1="64.018799"
       y1="24.784855"
       x2="105.72495"
       y2="24.784855" />
    <linearGradient
       id="linearGradient3359">
      <stop
         style="stop-color:#000000;stop-opacity:0.58273381;"
         offset="0"
         id="stop3361" />
      <stop
         id="stop3363"
         offset="0.74876845"
         style="stop-color:#000000;stop-opacity:0.49640289;" />
      <stop
         style="stop-color:#000000;stop-opacity:0;"
         offset="1"
         id="stop3365" />
    </linearGradient>
    <linearGradient
       y2="65"
       x2="80.449997"
       y1="73.330437"
       x1="66.021255"
       gradientUnits="userSpaceOnUse"
       id="linearGradient3486"
       xlink:href="#linearGradient4404"
       inkscape:collect="always" />
    <linearGradient
       inkscape:collect="always"
       id="linearGradient4404">
      <stop
         style="stop-color:#000000;stop-opacity:1;"
         offset="0"
         id="stop4406" />
      <stop
         style="stop-color:#000000;stop-opacity:0;"
         offset="1"
         id="stop4408" />
    </linearGradient>
    <linearGradient
       y2="65"
       x2="80.449997"
       y1="73.330437"
       x1="66.021255"
       gradientUnits="userSpaceOnUse"
       id="linearGradient3394"
       xlink:href="#linearGradient4404"
       inkscape:collect="always" />
  </defs>
  <sodipodi:namedview
     id="base"
     pagecolor="#ffffff"
     bordercolor="#666666"
     borderopacity="1.0"
     inkscape:pageopacity="0.0"
     inkscape:pageshadow="2"
     inkscape:zoom="2.8284271"
     inkscape:cx="63.815552"
     inkscape:cy="88.952271"
     inkscape:document-units="px"
     inkscape:current-layer="layer1"
     width="128px"
     height="128px"
     showgrid="true"
     inkscape:grid-points="true"
     showguides="true"
     inkscape:guide-bbox="true"
     inkscape:window-width="1224"
     inkscape:window-height="757"
     inkscape:window-x="257"
     inkscape:window-y="91"
     inkscape:snap-global="false"
     inkscape:window-maximized="0"
     inkscape:snap-page="true">
    <inkscape:grid
       id="GridFromPre046Settings"
       type="xygrid"
       originx="0px"
       originy="0px"
       spacingx="4px"
       spacingy="4px"
       color="#0000ff"
       empcolor="#0000ff"
       opacity="0.2"
       empopacity="0.4"
       empspacing="2"
       visible="true"
       enabled="true"
       snapvisiblegridlinesonly="true" />
    <sodipodi:guide
       orientation="1,0"
       position="-68,29.325902"
       id="guide4564" />
    <sodipodi:guide
       orientation="1,0"
       position="-121.62237,135.0574"
       id="guide3859" />
    <sodipodi:guide
       orientation="0,1"
       position="38.581514,-74.688154"
       id="guide4360" />
  </sodipodi:namedview>
  <metadata
     id="metadata2611">
    <rdf:RDF>
      <cc:Work
         rdf:about="">
        <dc:format>image/svg+xml</dc:format>
        <dc:type
           rdf:resource="http://purl.org/dc/dcmitype/StillImage" />
        <dc:title></dc:title>
      </cc:Work>
    </rdf:RDF>
  </metadata>
  <g
     inkscape:label="Livello 1"
     inkscape:groupmode="layer"
     id="layer1">
    <path
       style="opacity:0.45606695;fill:#000000;fill-opacity:1;filter:url(#filter4123)"
       d="m 13.333,5.3364 0,118.3304 49.8545,-0.0668 c 2.115554,-0.003 4.528919,-1.77169 7,-4.25 0.71234,-0.71442 1.440746,-1.39395 2.15625,-2.09375 0.415612,-0.40649 0.832187,-0.81443 1.25,-1.21875 7.773958,-7.40962 26.98341,-25.122599 34.21875,-33.099999 0.42065,-0.42064 0.81207,-0.8111 1.15625,-1.1875 1.46444,-1.49766 2.76158,-2.8378 2.99375,-5.8625 L 112,75.156251 111.9972,5.3364 z"
       id="path5990"
       inkscape:connector-curvature="0"
       sodipodi:nodetypes="ccsssccccccc"
       transform="matrix(1.013528,0,0,1.013266,-1.5133689,-1.3073677)" />
    <path
       sodipodi:type="inkscape:offset"
       inkscape:radius="-0.31466308"
       inkscape:original="M 13.1875 4.53125 C 12.818918 4.609246 12.529956 4.967008 12.53125 5.34375 L 12.53125 123.65625 C 12.53885 124.07954 12.920464 124.4611 13.34375 124.46875 L 62.15625 124.46875 C 63.930251 124.46875 65.829207 124.74865 68.6875 122.8125 C 68.829003 122.58432 71.218784 120.82456 70.53125 121.25 C 80.188854 112.07585 98.162197 92.41186 109.34375 81.09375 C 111.06182 79.375681 112.8125 77.674752 112.8125 73.3125 L 112.8125 5.34375 C 112.80483 4.9204809 112.42327 4.5388981 112 4.53125 L 13.34375 4.53125 C 13.29182 4.52633 13.239428 4.52633 13.1875 4.53125 z "
       style="fill:#000000;fill-opacity:1;filter:url(#filter4084)"
       id="path3314"
       d="m 13.21875,4.84375 c -0.201143,0.05725 -0.375711,0.2931131 -0.375,0.5 l 0,118.3125 c 0.0043,0.23765 0.262302,0.4957 0.5,0.5 l 48.8125,0 c 1.807099,0 3.550693,0.29821 6.34375,-1.59375 0.03611,-0.0371 0.07724,-0.0824 0.125,-0.125 0.08359,-0.0745 0.19399,-0.18448 0.3125,-0.28125 0.23702,-0.19354 0.516618,-0.41733 0.78125,-0.625 0.206542,-0.16208 0.368737,-0.26884 0.5,-0.375 a 0.31469455,0.31469455 0 0 1 0.03125,-0.0625 c 0.0046,-0.004 0.02682,0.004 0.03125,0 a 0.31469455,0.31469455 0 0 1 0.03125,-0.0625 c 0.0044,-0.004 0.02685,0.004 0.03125,0 9.639369,-9.15919 27.595222,-28.83361 38.78125,-40.15625 1.72022,-1.720217 3.375,-3.284436 3.375,-7.5625 l 0,-67.96875 c -0.004,-0.2376834 -0.26234,-0.4957056 -0.5,-0.5 l -98.65625,0 a 0.31469455,0.31469455 0 0 1 -0.03125,0 c -0.02143,-0.00203 -0.04093,-6.768e-4 -0.0625,0 -0.01078,3.384e-4 -0.02054,-0.00102 -0.03125,0 z"
       transform="matrix(1.013528,0,0,1.013266,-1.5133689,-1.3073677)" />
    <path
       style="fill:#ffffff;fill-opacity:1"
       d="m 12,4 0,120 49.999784,0 c 1.697965,0 3.967298,-0.57754 7.094784,-3.68191 8.990151,-8.92376 32.510002,-32.235741 39.866862,-39.726545 2.47359,-2.518643 3.04157,-4.572903 3.04157,-6.87703 L 112,4 z"
       id="path34"
       sodipodi:nodetypes="cccssccc"
       inkscape:connector-curvature="0" />
    <path
       style="fill:url(#linearGradient4524-4);fill-opacity:1"
       d="M 15.506762,7 C 15.162322,7 15,7.2377304 15,7.5066333 L 15,119.48009 c 0,0.83248 0.688512,1.5205 1.520292,1.51991 l 44.959416,-0.0317 c 0.05379,-4e-5 0.821348,0.0237 1.520292,0.0317 1.801712,-0.0406 3.174343,-0.76374 4.414963,-1.61442 C 68.481059,119.09069 97.540465,90.697457 106.78496,81.385896 108.1658,79.995068 109,77.38535 109,76.425341 L 109,7.5066332 C 109,7.179635 108.83457,7 108.49323,7 z"
       id="path3967"
       inkscape:connector-curvature="0"
       sodipodi:nodetypes="ccsssccscccc" />
    <path
       sodipodi:nodetypes="ccssscccccc"
       inkscape:connector-curvature="0"
       id="path5980"
       d="M 15.506762,7 C 15.162322,7 15,7.2377304 15,7.5066333 L 15,119.48009 c 0,0.83249 0.688527,1.51486 1.520292,1.51991 l 46.845657,0.2846 c 0.05379,3.3e-4 3.318172,-0.008 4.017117,5e-5 6.629458,-4.5634 31.077115,-31.337425 40.143354,-40.458653 0.66623,-0.74707 0.46379,-0.37498 1.47358,-1.628786 L 109,7.5066332 C 109,7.179635 108.83457,7 108.49323,7 z"
       style="opacity:0.84653476;fill:url(#radialGradient5988-0);fill-opacity:1" />
    <path
       style="fill:#000000"
       d=""
       id="path2197" />
    <g
       id="g4412"
       transform="matrix(2.1489872,0,0,2.1489872,-97.931302,-109.65716)"
       clip-path="url(#clipPath4592)">
      <path
         sodipodi:nodetypes="cccccsccc"
         inkscape:connector-curvature="0"
         style="opacity:0.34728035;fill:url(#linearGradient4381);fill-opacity:1;stroke:none"
         d="m 73.09418,73.318355 c -0.0193,0.0198 -0.0325,0.138477 -0.0294,0.265106 0.003,0.126636 0.0211,0.213241 0.0404,0.193459 l 5.75603,0 c 0.0132,0.0013 0.0243,-0.04231 0.0306,-0.113699 0.007,-0.07142 0.007,-0.15975 0,-0.231173 -0.007,-0.07142 -0.0181,-0.114861 -0.0306,-0.113686 l -5.75603,0 c -0.003,-0.004 -0.008,-0.004 -0.0106,0 z"
         id="path4223" />
      <path
         id="path4225"
         d="m 76.07829,70.771698 c -0.0198,-0.01927 -0.13848,-0.03248 -0.26511,-0.02944 -0.1266,0.0033 -0.21324,0.02112 -0.19346,0.04039 l 0,5.756032 c -0.001,0.01267 0.0422,0.02429 0.11366,0.03063 0.0714,0.0066 0.15975,0.0066 0.23117,0 0.0714,-0.0066 0.11485,-0.01808 0.11366,-0.03063 l 0,-5.756032 c 0.004,-0.0033 0.004,-0.0073 0,-0.01096 z"
         style="opacity:0.34728035;fill:url(#linearGradient4378);fill-opacity:1;stroke:none"
         inkscape:connector-curvature="0"
         sodipodi:nodetypes="cccccsccc" />
      <path
         id="path3268"
         d="m 53.274698,61.019151 c -0.0183,0.02157 -0.03086,0.150991 -0.02799,0.289062 0.0029,0.138072 0.02004,0.232511 0.03835,0.210938 l 5.466035,0 c 0.01197,0.0012 0.02309,-0.0461 0.02913,-0.123968 0.006,-0.07788 0.006,-0.17419 0,-0.252064 -0.006,-0.07787 -0.01716,-0.125243 -0.02913,-0.123968 l -5.466035,0 c -0.0033,-0.0041 -0.0069,-0.0041 -0.01035,0 z"
         style="opacity:0.34728035;fill:url(#linearGradient4375);fill-opacity:1;stroke:none"
         inkscape:connector-curvature="0" />
      <path
         inkscape:connector-curvature="0"
         id="path3198"
         d="m 74.86774,61.4375 c -4.80842,3.8e-5 -8.92236,1.581709 -12.375,4.78125 -3.97688,3.687677 -5.96875,8.473748 -5.96875,14.3125 0,5.712252 1.72167,10.371494 5.15625,13.96875 3.45264,3.597266 7.68851,5.374999 12.75,5.375 5.00722,-10e-7 9.28751,-1.843601 12.8125,-5.53125 3.52492,-3.68764 5.28121,-8.320534 5.28125,-13.90625 -4e-5,-5.422988 -1.74315,-9.94713 -5.25,-13.5625 -3.48883,-3.633382 -7.63402,-5.437462 -12.40625,-5.4375 z m 0.46875,1.03125 c 0.80073,-0.0105 1.61393,0.0545 2.46875,0.21875 3.64465,0.700402 6.26812,2.516627 7.84375,5.46875 1.95645,3.707197 2.28755,8.837131 1.03125,15.375 -1.15889,6.030644 -3.17624,10.214504 -6.0625,12.5625 -2.86753,2.351607 -6.0992,3.189536 -9.6875,2.5 -3.36289,-0.646219 -5.81821,-2.457708 -7.375,-5.40625 -2.02155,-3.875516 -2.41733,-8.918944 -1.21875,-15.15625 1.16968,-6.086975 3.31966,-10.463342 6.5,-13.125 1.91544,-1.604324 4.0978,-2.405989 6.5,-2.4375 z"
         style="font-size:55.53164291px;font-style:normal;font-variant:normal;font-weight:normal;font-stretch:normal;text-align:start;line-height:125%;letter-spacing:0px;word-spacing:0px;writing-mode:lr-tb;text-anchor:start;fill:url(#radialGradient4372);fill-opacity:1;stroke:none;font-family:Times New Roman;-inkscape-font-specification:'Times New Roman,'" />
      <path
         style="font-size:55.53164291px;font-style:normal;font-variant:normal;font-weight:normal;font-stretch:normal;text-align:start;line-height:125%;letter-spacing:0px;word-spacing:0px;writing-mode:lr-tb;text-anchor:start;fill:url(#radialGradient4367);fill-opacity:1;stroke:#000000;stroke-width:0.65020925;stroke-miterlimit:4;stroke-opacity:0.62008733;stroke-dasharray:none;font-family:Times New Roman;-inkscape-font-specification:'Times New Roman,'"
         d="m 74.86774,61.4375 c -4.80842,3.8e-5 -8.92236,1.581709 -12.375,4.78125 -3.97688,3.687677 -5.96875,8.473748 -5.96875,14.3125 0,5.712252 1.72167,10.371494 5.15625,13.96875 3.45264,3.597266 7.68851,5.374999 12.75,5.375 5.00722,-10e-7 9.28751,-1.843601 12.8125,-5.53125 3.52492,-3.68764 5.28121,-8.320534 5.28125,-13.90625 -4e-5,-5.422988 -1.74315,-9.94713 -5.25,-13.5625 -3.48883,-3.633382 -7.63402,-5.437462 -12.40625,-5.4375 z m 0.46875,1.03125 c 0.80073,-0.0105 1.61393,0.0545 2.46875,0.21875 3.64465,0.700402 6.26812,2.516627 7.84375,5.46875 1.95645,3.707197 2.28755,8.837131 1.03125,15.375 -1.15889,6.030644 -3.17624,10.214504 -6.0625,12.5625 -2.86753,2.351607 -6.0992,3.189536 -9.6875,2.5 -3.36289,-0.646219 -5.81821,-2.457708 -7.375,-5.40625 -2.02155,-3.875516 -2.41733,-8.918944 -1.21875,-15.15625 1.16968,-6.086975 3.31966,-10.463342 6.5,-13.125 1.91544,-1.604324 4.0978,-2.405989 6.5,-2.4375 z"
         id="path3980"
         inkscape:connector-curvature="0"
         inkscape:export-filename="/home/pinheiro/pics/oxygen-icons/scalable/mimetypes/application-x-font-otf.png"
         inkscape:export-xdpi="360"
         inkscape:export-ydpi="360" />
      <path
         id="path4124"
         d="m 68.42571,94.034859 c -0.0193,0.0198 -0.0325,0.138477 -0.0294,0.265106 0.003,0.126636 0.0211,0.213241 0.0404,0.193459 l 5.75603,0 c 0.0132,0.0013 0.0243,-0.04231 0.0306,-0.113699 0.007,-0.07142 0.007,-0.15975 0,-0.231173 -0.007,-0.07142 -0.0181,-0.114861 -0.0306,-0.113686 l -5.75603,0 c -0.003,-0.004 -0.008,-0.004 -0.0106,0 z"
         style="opacity:0.34728035;fill:url(#linearGradient4364);fill-opacity:1;stroke:none"
         inkscape:connector-curvature="0"
         sodipodi:nodetypes="cccccsccc" />
      <path
         sodipodi:nodetypes="cccccsccc"
         inkscape:connector-curvature="0"
         style="opacity:0.34728035;fill:url(#linearGradient4361);fill-opacity:1;stroke:none"
         d="m 71.47612,91.399814 c -0.0198,-0.01927 -0.13848,-0.03248 -0.26511,-0.02944 -0.1266,0.0033 -0.21324,0.02112 -0.19346,0.04039 l 0,5.756032 c -0.001,0.01267 0.0422,0.02429 0.11366,0.03063 0.0714,0.0066 0.15975,0.0066 0.23117,0 0.0714,-0.0066 0.11485,-0.01808 0.11366,-0.03063 l 0,-5.756032 c 0.004,-0.0033 0.004,-0.0073 0,-0.01096 z"
         id="path4126" />
      <path
         inkscape:connector-curvature="0"
         style="opacity:0.34728035;fill:url(#linearGradient4358);fill-opacity:1;stroke:none"
         d="m 84.081036,100.01915 c -0.03393,0.0216 -0.05717,0.15099 -0.05189,0.28906 0.0051,0.13807 0.03711,0.23251 0.07107,0.21094 l 10.131229,0 c 0.02216,0.001 0.0428,-0.0461 0.05396,-0.12397 0.0111,-0.0779 0.0111,-0.17419 0,-0.25206 -0.0111,-0.0779 -0.0318,-0.12524 -0.05396,-0.12397 l -10.131229,0 c -0.0064,-0.004 -0.01283,-0.004 -0.0192,0 z"
         id="path4132" />
      <path
         id="path4136"
         d="m 56.48325,58.739064 c -0.0216,-0.01715 -0.15099,-0.02887 -0.28906,-0.0262 -0.13807,0.0027 -0.23251,0.01875 -0.21094,0.0359 l 0,5.117059 c -10e-4,0.0112 0.0461,0.02161 0.12397,0.02726 0.0779,0.0056 0.17419,0.0056 0.25206,0 0.0779,-0.0056 0.12524,-0.01606 0.12397,-0.02726 l 0,-5.117059 c 0.004,-0.0032 0.004,-0.0065 0,-0.0097 z"
         style="opacity:0.34728035;fill:url(#linearGradient4355);fill-opacity:1;stroke:none"
         inkscape:connector-curvature="0" />
      <path
         inkscape:connector-curvature="0"
         style="opacity:0.34728035;fill:url(#linearGradient4352);fill-opacity:1;stroke:none"
         d="m 92.98325,90.990436 c -0.0216,-0.05266 -0.15099,-0.08868 -0.28906,-0.08045 -0.13807,0.0082 -0.23251,0.05758 -0.21094,0.11024 l 0,15.714154 c -0.001,0.0344 0.0461,0.0664 0.12397,0.0837 0.0779,0.0173 0.17419,0.0173 0.25206,0 0.0779,-0.0173 0.12524,-0.0493 0.12397,-0.0837 l 0,-15.714154 c 0.004,-0.0099 0.004,-0.01992 0,-0.02979 z"
         id="path4140" />
      <path
         inkscape:connector-curvature="0"
         style="opacity:0.34728035;fill:url(#linearGradient4349);fill-opacity:1;stroke:none"
         d="m 59.96719,58.600969 c -0.13211,-0.01264 -0.23963,0.05872 -0.24017,0.159339 -4.1e-4,0.100619 0.10613,0.192414 0.23823,0.205033 l 38.45925,8.255727 c 0.084,0.01891 0.16932,0.0027 0.22342,-0.04248 0.0541,-0.04521 0.0685,-0.112383 0.0378,-0.175797 -0.0307,-0.06341 -0.10196,-0.11326 -0.1863,-0.130435 L 60.04017,58.616629 c -0.0235,-0.008 -0.0481,-0.01333 -0.0729,-0.01566 z"
         id="path4144" />
      <path
         id="path4148"
         d="m 50.33286,94.133085 c -0.13211,-0.01264 -0.23963,0.05872 -0.24017,0.159339 -4.1e-4,0.100619 0.10613,0.192414 0.23823,0.205033 l 38.45925,8.255723 c 0.084,0.0189 0.16932,0.003 0.22342,-0.0425 0.0541,-0.0452 0.0685,-0.11238 0.0378,-0.17579 -0.0307,-0.0634 -0.10196,-0.11326 -0.1863,-0.13044 L 50.40584,94.148745 c -0.0235,-0.008 -0.0481,-0.01333 -0.0729,-0.01566 z"
         style="opacity:0.34728035;fill:url(#linearGradient4346);fill-opacity:1;stroke:none"
         inkscape:connector-curvature="0" />
      <path
         id="path4156"
         d="m 89.23877,73.160601 c 0.0126,-0.13211 -0.0587,-0.23963 -0.15934,-0.24017 -0.10062,-4.1e-4 -0.19241,0.10613 -0.20503,0.23823 l -8.25572,38.459249 c -0.0189,0.084 -0.003,0.16932 0.0425,0.22342 0.0452,0.0541 0.11238,0.0685 0.17579,0.0378 0.0634,-0.0307 0.11326,-0.10196 0.13044,-0.1863 l 8.2557,-38.459249 c 0.008,-0.0235 0.0133,-0.0481 0.0157,-0.0729 z"
         style="opacity:0.34728035;fill:url(#linearGradient4343);fill-opacity:1;stroke:none"
         inkscape:connector-curvature="0" />
      <path
         inkscape:connector-curvature="0"
         style="opacity:0.34728035;fill:url(#linearGradient4340);fill-opacity:1;stroke:none"
         d="m 90.695444,61.019151 c -0.0162,0.02157 -0.02731,0.150991 -0.02477,0.289062 0.0026,0.138072 0.01773,0.232511 0.03393,0.210938 l 4.836564,0 c 0.01059,0.0012 0.02043,-0.0461 0.02578,-0.123968 0.0053,-0.07788 0.0053,-0.17419 0,-0.252064 -0.0053,-0.07787 -0.01519,-0.125243 -0.02578,-0.123968 l -4.836564,0 c -0.0029,-0.0041 -0.0061,-0.0041 -0.0092,0 z"
         id="path4321" />
      <path
         id="path4325"
         d="m 55.08699,100.01915 c -0.01229,0.0216 -0.0207,0.15099 -0.01879,0.28906 0.0019,0.13807 0.01345,0.23251 0.02575,0.21094 l 3.670187,0 c 0.008,0.001 0.0155,-0.0461 0.01954,-0.12397 0.004,-0.0779 0.004,-0.17419 0,-0.25206 -0.004,-0.0779 -0.01151,-0.12524 -0.01954,-0.12397 l -3.670187,0 c -0.0022,-0.004 -0.0046,-0.004 -0.007,0 z"
         style="opacity:0.34728035;fill:url(#linearGradient4337);fill-opacity:1;stroke:none"
         inkscape:connector-curvature="0" />
      <path
         id="path4329"
         d="m 79.726098,56.449613 c 0.01632,-0.171091 -0.07602,-0.310336 -0.206355,-0.311036 -0.13031,-5.31e-4 -0.249184,0.137445 -0.265527,0.308523 l -10.691687,49.80718 c -0.02448,0.10879 -0.0039,0.21928 0.05504,0.28935 0.05854,0.0701 0.145539,0.0887 0.227659,0.049 0.08211,-0.0398 0.146679,-0.13204 0.168928,-0.24127 l 10.69166,-49.807183 c 0.01036,-0.03043 0.01723,-0.06229 0.02033,-0.09441 z"
         style="opacity:0.34728035;fill:url(#linearGradient4334);fill-opacity:1;stroke:none"
         inkscape:connector-curvature="0" />
      <path
         inkscape:connector-curvature="0"
         style="opacity:0.34728035;fill:url(#linearGradient4388);fill-opacity:1;stroke:none"
         d="m 93.387316,85.689096 c 0.13211,0.0126 0.23963,-0.0587 0.24017,-0.15934 4.1e-4,-0.10062 -0.10613,-0.19241 -0.23823,-0.20503 l -38.459243,-8.25572 c -0.084,-0.0189 -0.16932,-0.003 -0.22342,0.0425 -0.0541,0.0452 -0.0685,0.11238 -0.0378,0.17579 0.0307,0.0634 0.10196,0.11326 0.1863,0.13044 l 38.459243,8.2557 c 0.0235,0.008 0.0481,0.0133 0.0729,0.0157 z"
         id="path4386" />
      <path
         inkscape:connector-curvature="0"
         style="opacity:0.34728035;fill:url(#linearGradient4392);fill-opacity:1;stroke:none"
         d="m 56.48325,98.17385 c -0.0216,-0.01084 -0.15099,-0.01825 -0.28906,-0.01655 -0.13807,0.0017 -0.23251,0.01185 -0.21094,0.02268 l 0,3.23335 c -10e-4,0.007 0.0461,0.0136 0.12397,0.0172 0.0779,0.003 0.17419,0.003 0.25206,0 0.0779,-0.003 0.12524,-0.0102 0.12397,-0.0172 l 0,-3.23335 c 0.004,-0.002 0.004,-0.0041 0,-0.0061 z"
         id="path4390" />
      <path
         id="path4394"
         d="m 93.169024,58.484146 c -0.0216,-0.01733 -0.15099,-0.02919 -0.28906,-0.02648 -0.13807,0.0027 -0.23251,0.01895 -0.21094,0.03628 l 0,5.171791 c -10e-4,0.01132 0.0461,0.02184 0.12397,0.02755 0.0779,0.0057 0.17419,0.0057 0.25206,0 0.0779,-0.0057 0.12524,-0.01623 0.12397,-0.02755 l 0,-5.171791 c 0.004,-0.0033 0.004,-0.0066 0,-0.0098 z"
         style="opacity:0.34728035;fill:url(#linearGradient4396);fill-opacity:1;stroke:none"
         inkscape:connector-curvature="0"
         sodipodi:nodetypes="ccccccccc" />
      <path
         id="path4398"
         d="m 84.498237,83.697078 c 0.0711,0.0068 0.128959,-0.03159 0.12925,-0.08575 2.2e-4,-0.05415 -0.05711,-0.103548 -0.128206,-0.110339 l -20.69725,-4.442904 c -0.04521,-0.01017 -0.09112,-0.0016 -0.120236,0.02287 -0.02911,0.02433 -0.03686,0.06048 -0.02034,0.0946 0.01652,0.03412 0.05487,0.06095 0.100259,0.0702 l 20.69725,4.442893 c 0.01265,0.0043 0.02589,0.0072 0.03923,0.0084 z"
         style="opacity:0.34728035;fill:url(#linearGradient4400);fill-opacity:1;stroke:none"
         inkscape:connector-curvature="0" />
      <path
         transform="matrix(1.2445652,0,0,1.2445652,-12.775272,-7.2467391)"
         d="m 80.25,65 c 0,4.970563 -4.029437,9 -9,9 -4.970563,0 -9,-4.029437 -9,-9 0,-4.970563 4.029437,-9 9,-9 4.970563,0 9,4.029437 9,9 z"
         sodipodi:ry="9"
         sodipodi:rx="9"
         sodipodi:cy="65"
         sodipodi:cx="71.25"
         id="path4402"
         style="opacity:0.35564856;fill:none;stroke:url(#linearGradient3394);stroke-width:0.29691404;stroke-linecap:round;stroke-linejoin:round;stroke-miterlimit:4;stroke-opacity:1;stroke-dasharray:none;stroke-dashoffset:0"
         sodipodi:type="arc" />
    </g>
    <path
       clip-path="url(#clipPath6093-7)"
       style="opacity:0.34728035;fill:#000000;fill-opacity:1;stroke:none;filter:url(#filter6171-8)"
       d="m 114.4,82.502986 c 0,4.465301 -6.19771,3.506816 -8.67994,5.190489 -5.10854,3.46508 -20.174689,2.225237 -25.955859,2.306257 -0.081,5.781159 0.786541,16.143798 0.786541,22.293818 0,2.97817 -3.440475,11.20945 -6.350745,11.20945 -2.091359,1.5337 3.488204,8.21101 6.734971,5.31989 9.501888,-8.46107 35.131682,-30.022704 43.350822,-39.262889 2.04044,-2.29392 -4.90514,-9.844666 -9.88579,-7.057015 z"
       id="path6153"
       inkscape:connector-curvature="0"
       sodipodi:nodetypes="cscscssc"
       transform="matrix(1.2713893,0,0,1.3008089,-31.411352,-31.072453)" />
    <path
       sodipodi:nodetypes="cscscssc"
       inkscape:connector-curvature="0"
       id="path6081"
       d="m 113.9,82.502986 c 0,4.465301 -7.96273,11.129672 -10.95287,11.553449 -6.394981,0.906328 -15.824979,-3.47754 -21.606149,-3.39652 -0.081,5.781159 3.918356,18.962455 0.453276,24.070995 -1.68367,2.48224 -3.883991,8.07209 -6.794261,8.07209 -2.091359,1.5337 3.488204,11.21101 6.734971,8.31989 9.501888,-8.46107 45.998943,-30.20138 54.218083,-39.441569 2.04044,-2.29392 -17.0724,-11.965986 -22.05305,-9.178335 z"
       style="opacity:0.49295774;fill:#000000;fill-opacity:1;stroke:none;filter:url(#filter4087)"
       clip-path="url(#clipPath6093-7)"
       transform="matrix(1.323697,0,0,1.3543271,-37.27081,-37.383179)" />
    <path
       style="fill:url(#linearGradient3895-3);fill-opacity:1;stroke:none"
       d="m 111.80692,72.373791 c 0,6.193164 -3.79585,8.890306 -7.16393,11.225476 C 97.711316,88.405175 83.444341,87.387629 75.6,87.5 c -0.109909,8.0182 0.701692,21.4147 -4,28.5 -2.284534,3.44276 -6.727129,8.38457 -10.67601,8.38457 3.145284,0 6.435454,-1.85125 10.290589,-5.66544 12.404537,-12.27278 23.56509,-22.378984 34.835341,-35.086504 2.60379,-2.935824 5.757,-5.051122 5.757,-11.258835 z"
       id="path6011"
       inkscape:connector-curvature="0"
       sodipodi:nodetypes="cscscssc" />
    <path
       style="fill:#ffffff;fill-opacity:1;stroke:none"
       d="m 111.83234,71.941762 c -0.42932,5.407885 -4.39696,7.298568 -6.55729,8.796367 C 100.15305,84.28932 93.349113,84 72,84 c 0,19.65502 0.5,28.4 -3.219913,33.20293 -2.21447,2.85919 -6.648335,6.04727 -10.26176,6.86542 4.951272,0 8.407066,-1.08166 11.641616,-4.28186 0.460141,-0.53889 1.37925,-1.54169 2.101048,-2.68043 C 76.100178,111.32051 76,99.904353 76,88 c 7.844341,-0.112342 21.630842,1.155905 28.5625,-3.65 0.63154,-0.437847 2.56984,-2.009889 3.13546,-2.57551 3.14173,-3.14173 3.82294,-5.144366 4.13438,-9.832728 z M 58.518327,124.06835 c -0.213922,0.0483 -0.425295,0.0575 -0.636038,0.0866 0.213019,-0.0234 0.421235,-0.0465 0.636038,-0.0866 z"
       id="path6122"
       inkscape:connector-curvature="0"
       sodipodi:nodetypes="cscsccccsscccc" />
    <path
       style="fill:none;stroke:url(#radialGradient3919-5);stroke-width:1.85605633;stroke-linecap:butt;stroke-linejoin:miter;stroke-miterlimit:4;stroke-opacity:1;stroke-dasharray:none;filter:url(#filter3909-6)"
       d="M 108.97651,89.508691 79.934895,118.21077"
       id="path3873"
       inkscape:connector-curvature="0"
       sodipodi:nodetypes="cc"
       clip-path="url(#clipPath3889-6)"
       transform="matrix(1.3568778,0,0,1.3869539,-40.163409,-42.054049)" />
  </g>
</svg>
