<?xml version="1.0" encoding="UTF-8" standalone="no"?>
<!-- Created with Inkscape (http://www.inkscape.org/) -->

<svg
   xmlns:dc="http://purl.org/dc/elements/1.1/"
   xmlns:cc="http://creativecommons.org/ns#"
   xmlns:rdf="http://www.w3.org/1999/02/22-rdf-syntax-ns#"
   xmlns:svg="http://www.w3.org/2000/svg"
   xmlns="http://www.w3.org/2000/svg"
   xmlns:xlink="http://www.w3.org/1999/xlink"
   xmlns:sodipodi="http://sodipodi.sourceforge.net/DTD/sodipodi-0.dtd"
   xmlns:inkscape="http://www.inkscape.org/namespaces/inkscape"
   width="128"
   height="128"
   id="svg2606"
   sodipodi:version="0.32"
   inkscape:version="0.48.0 r9654"
   version="1.0"
   sodipodi:docname="application-x-zerosize.svgz"
   inkscape:output_extension="org.inkscape.output.svgz.inkscape"
   inkscape:export-filename="/home/pinheiro/pics/oxygen-icons/scalable/mimetypes/small/32x32/application-x-zerosize.png"
   inkscape:export-xdpi="180"
   inkscape:export-ydpi="180">
  <defs
     id="defs2608">
    <linearGradient
       id="linearGradient6131">
      <stop
         id="stop6133"
         offset="0"
         style="stop-color:#fcfcfc;stop-opacity:1" />
      <stop
         style="stop-color:#f8f8f8;stop-opacity:1"
         offset="0.52275378"
         id="stop6135" />
      <stop
         id="stop6141"
         offset="0.77457333"
         style="stop-color:#f0efef;stop-opacity:1;" />
      <stop
         id="stop6139"
         offset="0.90122044"
         style="stop-color:#e3e1e1;stop-opacity:1;" />
      <stop
         id="stop6137"
         offset="1"
         style="stop-color:#cecbcb;stop-opacity:1" />
    </linearGradient>
    <linearGradient
       inkscape:collect="always"
       xlink:href="#linearGradient6131"
       id="linearGradient3893"
       gradientUnits="userSpaceOnUse"
       gradientTransform="matrix(1.0119858,0,0,1.0119858,-0.89554075,-0.9871566)"
       x1="86.73793"
       y1="93.621468"
       x2="95.460213"
       y2="102.34375" />
    <radialGradient
       inkscape:collect="always"
       xlink:href="#linearGradient3913-5"
       id="radialGradient3919-5"
       cx="90.75"
       cy="110.25299"
       fx="90.75"
       fy="110.25299"
       r="18.750002"
       gradientTransform="matrix(1.3067347,0,0,1.3067347,-27.83617,-33.818441)"
       gradientUnits="userSpaceOnUse" />
    <linearGradient
       inkscape:collect="always"
       id="linearGradient3913-5">
      <stop
         style="stop-color:#ffffff;stop-opacity:1;"
         offset="0"
         id="stop3915-4" />
      <stop
         style="stop-color:#ffffff;stop-opacity:0;"
         offset="1"
         id="stop3917-7" />
    </linearGradient>
    <clipPath
       clipPathUnits="userSpaceOnUse"
       id="clipPath3889-6">
      <path
         sodipodi:nodetypes="cscscssc"
         inkscape:connector-curvature="0"
         id="path3891-5"
         d="m 112,82.502986 c 0,4.465301 -2.79749,6.409952 -5.27972,8.093625 -5.10854,3.46508 -14.939114,3.32536 -20.720284,3.40638 -0.081,5.781159 0.16586,15.504599 -3.29922,20.613139 -1.68367,2.48224 -5.29051,5.38687 -8.20078,5.38687 2.31803,0 4.74284,-1.33476 7.58402,-4.08481 9.14197,-8.84873 17.36714,-16.13535 25.673154,-25.297529 C 109.67612,88.503916 112,86.97878 112,82.502986 z"
         style="fill:url(#linearGradient3893);fill-opacity:1;stroke:none" />
    </clipPath>
    <filter
       color-interpolation-filters="sRGB"
       inkscape:collect="always"
       id="filter3909-6">
      <feGaussianBlur
         inkscape:collect="always"
         stdDeviation="0.43040059"
         id="feGaussianBlur3911-9" />
    </filter>
    <linearGradient
       inkscape:collect="always"
       xlink:href="#linearGradient3897-7"
       id="linearGradient3895-3"
       gradientUnits="userSpaceOnUse"
       gradientTransform="matrix(1.3731411,0,0,1.4035776,-41.378546,-43.42319)"
       x1="82.15696"
       y1="90.381706"
       x2="94.220871"
       y2="102.18401" />
    <linearGradient
       id="linearGradient3897-7">
      <stop
         style="stop-color:#fcfcfc;stop-opacity:1"
         offset="0"
         id="stop3899-4" />
      <stop
         id="stop3901-5"
         offset="0.52275378"
         style="stop-color:#f8f8f8;stop-opacity:1" />
      <stop
         style="stop-color:#f0efef;stop-opacity:1;"
         offset="0.72337759"
         id="stop3903-2" />
      <stop
         style="stop-color:#e3e1e1;stop-opacity:1;"
         offset="0.89024991"
         id="stop3905-5" />
      <stop
         style="stop-color:#cecbcb;stop-opacity:1"
         offset="1"
         id="stop3907-4" />
    </linearGradient>
    <clipPath
       clipPathUnits="userSpaceOnUse"
       id="clipPath6093-7">
      <path
         inkscape:connector-curvature="0"
         sodipodi:nodetypes="cccssccc"
         id="path6095-4"
         d="m 17.000001,8 0.782827,110 57.5,0 c 1.675283,0 3.119418,0.18058 4.9,-1.6 C 88.980763,107.60206 99.94047,96.548195 107.19904,89.224043 109.6396,86.761431 110,84.752873 110,82.5 L 110,8 z"
         style="fill:#ffffff;fill-opacity:1" />
    </clipPath>
    <radialGradient
       inkscape:collect="always"
       xlink:href="#linearGradient5982-7"
       id="radialGradient5988-0"
       cx="64"
       cy="64.004021"
       fx="63.793392"
       fy="47.274845"
       r="47.5"
       gradientTransform="matrix(1.7069944,-0.08541345,0.06979496,1.3941371,-50.362376,-20.218185)"
       gradientUnits="userSpaceOnUse" />
    <linearGradient
       inkscape:collect="always"
       id="linearGradient5982-7">
      <stop
         style="stop-color:#ffffff;stop-opacity:1;"
         offset="0"
         id="stop5984-8" />
      <stop
         style="stop-color:#ffffff;stop-opacity:0;"
         offset="1"
         id="stop5986-6" />
    </linearGradient>
    <filter
       color-interpolation-filters="sRGB"
       inkscape:collect="always"
       id="filter6171-8"
       x="-0.47870937"
       width="1.9574188"
       y="-0.51275069"
       height="2.0255013">
      <feGaussianBlur
         inkscape:collect="always"
         stdDeviation="10.140743"
         id="feGaussianBlur6173-8" />
    </filter>
    <linearGradient
       inkscape:collect="always"
       xlink:href="#linearGradient4518-3"
       id="linearGradient4524-4"
       x1="72"
       y1="0"
       x2="72"
       y2="116.40091"
       gradientUnits="userSpaceOnUse"
       gradientTransform="matrix(1.013528,0,0,1.013266,-1.5133685,-1.3073648)" />
    <linearGradient
       id="linearGradient4518-3">
      <stop
         style="stop-color:#eeecec;stop-opacity:1"
         offset="0"
         id="stop4520-1" />
      <stop
         id="stop5969-4"
         offset="0.40000001"
         style="stop-color:#f4f4f4;stop-opacity:1" />
      <stop
         style="stop-color:#f6f5f5;stop-opacity:1"
         offset="1"
         id="stop4522-9" />
    </linearGradient>
    <filter
       inkscape:collect="always"
       id="filter4123">
      <feGaussianBlur
         inkscape:collect="always"
         stdDeviation="2.028"
         id="feGaussianBlur4125" />
    </filter>
    <filter
       inkscape:collect="always"
       id="filter4087"
       x="-0.16465071"
       width="1.3293014"
       y="-0.2041295"
       height="1.408259">
      <feGaussianBlur
         inkscape:collect="always"
         stdDeviation="4.2234282"
         id="feGaussianBlur4089" />
    </filter>
    <filter
       inkscape:collect="always"
       id="filter4084">
      <feGaussianBlur
         inkscape:collect="always"
         stdDeviation="1.4598961"
         id="feGaussianBlur4086" />
    </filter>
    <radialGradient
       inkscape:collect="always"
       xlink:href="#linearGradient5982-7-5"
       id="radialGradient5988-0-5"
       cx="64"
       cy="64.004021"
       fx="63.793392"
       fy="47.274845"
       r="47.5"
       gradientTransform="matrix(1.6842105,-0.08429519,0.06886339,1.3758846,-48.197001,-18.66323)"
       gradientUnits="userSpaceOnUse" />
    <linearGradient
       inkscape:collect="always"
       id="linearGradient5982-7-5">
      <stop
         style="stop-color:#ffffff;stop-opacity:1;"
         offset="0"
         id="stop5984-8-4" />
      <stop
         style="stop-color:#ffffff;stop-opacity:0;"
         offset="1"
         id="stop5986-6-7" />
    </linearGradient>
    <clipPath
       clipPathUnits="userSpaceOnUse"
       id="clipPath5376">
      <path
         style="opacity:0.84653476;fill:url(#radialGradient5380);fill-opacity:1"
         d="m 13.833975,8.000003 c -0.339844,0 -0.5,0.234618 -0.5,0.5 l 0,109.968747 c 0,0.82158 0.679323,1.49946 1.5,1.5 l 47.5,0.0313 c 0.05308,3e-5 3.273884,-0.008 3.9635,5e-5 6.540972,-4.50366 29.9679,-28.953329 38.913135,-37.955139 1.47685,-1.65649 0.4576,-0.37007 1.45391,-1.60746 l 6e-5,-71.937498 c 0,-0.322717 -0.16322,-0.5 -0.5,-0.5 z"
         id="path5378"
         inkscape:connector-curvature="0"
         sodipodi:nodetypes="ccssscccccc" />
    </clipPath>
    <linearGradient
       id="linearGradient3900">
      <stop
         style="stop-color:#000000;stop-opacity:1;"
         offset="0"
         id="stop3902" />
      <stop
         style="stop-color:#262626;stop-opacity:1;"
         offset="1"
         id="stop3904" />
    </linearGradient>
    <linearGradient
       id="linearGradient3916">
      <stop
         id="stop3918"
         offset="0"
         style="stop-color:#303030;stop-opacity:1;" />
      <stop
         id="stop3920"
         offset="1"
         style="stop-color:#b4b4b4;stop-opacity:1;" />
    </linearGradient>
    <linearGradient
       id="linearGradient3922">
      <stop
         id="stop3924"
         offset="0"
         style="stop-color:#9f9f9f;stop-opacity:1;" />
      <stop
         id="stop3926"
         offset="1"
         style="stop-color:#000000;stop-opacity:1;" />
    </linearGradient>
    <linearGradient
       inkscape:collect="always"
       id="linearGradient3935">
      <stop
         style="stop-color:#ffffff;stop-opacity:1;"
         offset="0"
         id="stop3937" />
      <stop
         style="stop-color:#ffffff;stop-opacity:0;"
         offset="1"
         id="stop3939" />
    </linearGradient>
    <filter
       color-interpolation-filters="sRGB"
       inkscape:collect="always"
       id="filter3951"
       x="-0.074849576"
       width="1.1496992"
       y="-0.60980392"
       height="2.2196078">
      <feGaussianBlur
         inkscape:collect="always"
         stdDeviation="0.53993056"
         id="feGaussianBlur3953" />
    </filter>
    <linearGradient
       id="linearGradient3197">
      <stop
         style="stop-color:#000000;stop-opacity:1;"
         offset="0"
         id="stop3199" />
      <stop
         style="stop-color:#262626;stop-opacity:1;"
         offset="1"
         id="stop3201" />
    </linearGradient>
    <linearGradient
       id="linearGradient3204">
      <stop
         id="stop3206"
         offset="0"
         style="stop-color:#303030;stop-opacity:1;" />
      <stop
         id="stop3208"
         offset="1"
         style="stop-color:#b4b4b4;stop-opacity:1;" />
    </linearGradient>
    <linearGradient
       id="linearGradient4088">
      <stop
         style="stop-color:#e6e6e6;stop-opacity:1;"
         offset="0"
         id="stop4090" />
      <stop
         style="stop-color:#000000;stop-opacity:1;"
         offset="1"
         id="stop4092" />
    </linearGradient>
    <linearGradient
       id="linearGradient3226">
      <stop
         style="stop-color:#000000;stop-opacity:1;"
         offset="0"
         id="stop3228" />
      <stop
         style="stop-color:#262626;stop-opacity:1;"
         offset="1"
         id="stop3230" />
    </linearGradient>
    <linearGradient
       id="linearGradient3233">
      <stop
         id="stop3235"
         offset="0"
         style="stop-color:#303030;stop-opacity:1;" />
      <stop
         id="stop3237"
         offset="1"
         style="stop-color:#b4b4b4;stop-opacity:1;" />
    </linearGradient>
    <linearGradient
       id="linearGradient3240">
      <stop
         style="stop-color:#e6e6e6;stop-opacity:1;"
         offset="0"
         id="stop3242" />
      <stop
         style="stop-color:#000000;stop-opacity:1;"
         offset="1"
         id="stop3244" />
    </linearGradient>
    <linearGradient
       id="linearGradient3258">
      <stop
         style="stop-color:#000000;stop-opacity:1;"
         offset="0"
         id="stop3260" />
      <stop
         style="stop-color:#262626;stop-opacity:1;"
         offset="1"
         id="stop3262" />
    </linearGradient>
    <linearGradient
       id="linearGradient3265">
      <stop
         id="stop3267"
         offset="0"
         style="stop-color:#303030;stop-opacity:1;" />
      <stop
         id="stop3269"
         offset="1"
         style="stop-color:#b4b4b4;stop-opacity:1;" />
    </linearGradient>
    <linearGradient
       id="linearGradient3272">
      <stop
         id="stop3274"
         offset="0"
         style="stop-color:#9f9f9f;stop-opacity:1;" />
      <stop
         id="stop3276"
         offset="1"
         style="stop-color:#000000;stop-opacity:1;" />
    </linearGradient>
    <linearGradient
       inkscape:collect="always"
       xlink:href="#linearGradient3900"
       id="linearGradient3335"
       gradientUnits="userSpaceOnUse"
       x1="183"
       y1="137.70407"
       x2="183"
       y2="99.5" />
    <linearGradient
       inkscape:collect="always"
       xlink:href="#linearGradient3916"
       id="linearGradient3337"
       gradientUnits="userSpaceOnUse"
       gradientTransform="matrix(0.9375,0,0,0.9375,11.3125,6.9375)"
       x1="183"
       y1="129.56696"
       x2="183"
       y2="102.96533" />
    <radialGradient
       inkscape:collect="always"
       xlink:href="#linearGradient4088"
       id="radialGradient3339"
       gradientUnits="userSpaceOnUse"
       gradientTransform="matrix(7.3561826,-0.11866202,0.07143696,4.4285717,-1155.7205,-383.15297)"
       cx="180.5"
       cy="118"
       fx="180.5"
       fy="118"
       r="7" />
    <linearGradient
       inkscape:collect="always"
       xlink:href="#linearGradient3935"
       id="linearGradient3341"
       gradientUnits="userSpaceOnUse"
       x1="189.125"
       y1="92.109383"
       x2="189.125"
       y2="113" />
    <linearGradient
       inkscape:collect="always"
       xlink:href="#linearGradient3900"
       id="linearGradient3343"
       gradientUnits="userSpaceOnUse"
       x1="183"
       y1="137.70407"
       x2="183"
       y2="99.5" />
    <linearGradient
       inkscape:collect="always"
       xlink:href="#linearGradient3916"
       id="linearGradient3345"
       gradientUnits="userSpaceOnUse"
       gradientTransform="matrix(0.9375,0,0,0.9375,11.3125,6.9375)"
       x1="183"
       y1="129.56696"
       x2="183"
       y2="102.96533" />
    <radialGradient
       inkscape:collect="always"
       xlink:href="#linearGradient4088"
       id="radialGradient3347"
       gradientUnits="userSpaceOnUse"
       gradientTransform="matrix(7.3561826,-0.11866202,0.07143696,4.4285717,-1155.7205,-383.15297)"
       cx="180.5"
       cy="118"
       fx="180.5"
       fy="118"
       r="7" />
    <linearGradient
       inkscape:collect="always"
       xlink:href="#linearGradient3935"
       id="linearGradient3349"
       gradientUnits="userSpaceOnUse"
       x1="189.125"
       y1="92.109383"
       x2="189.125"
       y2="113" />
    <linearGradient
       inkscape:collect="always"
       xlink:href="#linearGradient3900"
       id="linearGradient3351"
       gradientUnits="userSpaceOnUse"
       x1="183"
       y1="118.5"
       x2="183"
       y2="99.5" />
    <linearGradient
       inkscape:collect="always"
       xlink:href="#linearGradient3916"
       id="linearGradient3353"
       gradientUnits="userSpaceOnUse"
       gradientTransform="matrix(0.9375,0,0,0.9375,11.3125,6.9375)"
       x1="183"
       y1="118.5"
       x2="183"
       y2="99.5" />
    <radialGradient
       inkscape:collect="always"
       xlink:href="#linearGradient3922"
       id="radialGradient3355"
       gradientUnits="userSpaceOnUse"
       gradientTransform="matrix(2.0714286,0,0,0.85714407,-193.39286,16.857008)"
       cx="180.5"
       cy="118"
       fx="180.5"
       fy="118"
       r="7" />
    <linearGradient
       inkscape:collect="always"
       xlink:href="#linearGradient3935"
       id="linearGradient3357"
       gradientUnits="userSpaceOnUse"
       x1="189.125"
       y1="92.109383"
       x2="189.125"
       y2="113" />
    <radialGradient
       r="47"
       fy="28.454603"
       fx="29.713755"
       cy="28.454603"
       cx="29.713755"
       gradientTransform="matrix(2.929072,0,0,3.0070585,-66.70086,-75.629692)"
       gradientUnits="userSpaceOnUse"
       id="radialGradient3488"
       xlink:href="#linearGradient3858"
       inkscape:collect="always" />
    <linearGradient
       inkscape:collect="always"
       id="linearGradient3858">
      <stop
         style="stop-color:#000000;stop-opacity:1;"
         offset="0"
         id="stop3860" />
      <stop
         style="stop-color:#000000;stop-opacity:0;"
         offset="1"
         id="stop3862" />
    </linearGradient>
  </defs>
  <sodipodi:namedview
     id="base"
     pagecolor="#ffffff"
     bordercolor="#666666"
     borderopacity="1.0"
     inkscape:pageopacity="0.0"
     inkscape:pageshadow="2"
     inkscape:zoom="2"
     inkscape:cx="182.08348"
     inkscape:cy="34.746224"
     inkscape:document-units="px"
     inkscape:current-layer="layer1"
     width="128px"
     height="128px"
     showgrid="true"
     inkscape:grid-points="true"
     showguides="true"
     inkscape:guide-bbox="true"
     inkscape:window-width="1224"
     inkscape:window-height="757"
     inkscape:window-x="95"
     inkscape:window-y="75"
     inkscape:snap-global="true"
     inkscape:window-maximized="0"
     inkscape:snap-page="true">
    <inkscape:grid
       id="GridFromPre046Settings"
       type="xygrid"
       originx="0px"
       originy="0px"
       spacingx="4px"
       spacingy="4px"
       color="#0000ff"
       empcolor="#0000ff"
       opacity="0.2"
       empopacity="0.4"
       empspacing="2"
       visible="true"
       enabled="true"
       snapvisiblegridlinesonly="true" />
    <sodipodi:guide
       orientation="1,0"
       position="-68,29.325902"
       id="guide4564" />
    <sodipodi:guide
       orientation="1,0"
       position="-121.62237,135.0574"
       id="guide3859" />
    <sodipodi:guide
       orientation="0,1"
       position="38.581514,-74.688154"
       id="guide4360" />
  </sodipodi:namedview>
  <metadata
     id="metadata2611">
    <rdf:RDF>
      <cc:Work
         rdf:about="">
        <dc:format>image/svg+xml</dc:format>
        <dc:type
           rdf:resource="http://purl.org/dc/dcmitype/StillImage" />
        <dc:title></dc:title>
      </cc:Work>
    </rdf:RDF>
  </metadata>
  <g
     inkscape:label="Livello 1"
     inkscape:groupmode="layer"
     id="layer1">
    <path
       style="opacity:0.45606695;fill:#000000;fill-opacity:1;filter:url(#filter4123)"
       d="m 13.333,5.3364 0,118.3304 49.8545,-0.0668 c 2.115554,-0.003 4.528919,-1.77169 7,-4.25 0.71234,-0.71442 1.440746,-1.39395 2.15625,-2.09375 0.415612,-0.40649 0.832187,-0.81443 1.25,-1.21875 7.773958,-7.40962 26.98341,-25.122599 34.21875,-33.099999 0.42065,-0.42064 0.81207,-0.8111 1.15625,-1.1875 1.46444,-1.49766 2.76158,-2.8378 2.99375,-5.8625 L 112,75.156251 111.9972,5.3364 z"
       id="path5990"
       inkscape:connector-curvature="0"
       sodipodi:nodetypes="ccsssccccccc"
       transform="matrix(1.013528,0,0,1.013266,-1.5133689,-1.3073677)" />
    <path
       sodipodi:type="inkscape:offset"
       inkscape:radius="-0.31466308"
       inkscape:original="M 13.1875 4.53125 C 12.818918 4.609246 12.529956 4.967008 12.53125 5.34375 L 12.53125 123.65625 C 12.53885 124.07954 12.920464 124.4611 13.34375 124.46875 L 62.15625 124.46875 C 63.930251 124.46875 65.829207 124.74865 68.6875 122.8125 C 68.829003 122.58432 71.218784 120.82456 70.53125 121.25 C 80.188854 112.07585 98.162197 92.41186 109.34375 81.09375 C 111.06182 79.375681 112.8125 77.674752 112.8125 73.3125 L 112.8125 5.34375 C 112.80483 4.9204809 112.42327 4.5388981 112 4.53125 L 13.34375 4.53125 C 13.29182 4.52633 13.239428 4.52633 13.1875 4.53125 z "
       style="fill:#000000;fill-opacity:1;filter:url(#filter4084)"
       id="path3314"
       d="m 13.21875,4.84375 c -0.201143,0.05725 -0.375711,0.2931131 -0.375,0.5 l 0,118.3125 c 0.0043,0.23765 0.262302,0.4957 0.5,0.5 l 48.8125,0 c 1.807099,0 3.550693,0.29821 6.34375,-1.59375 0.03611,-0.0371 0.07724,-0.0824 0.125,-0.125 0.08359,-0.0745 0.19399,-0.18448 0.3125,-0.28125 0.23702,-0.19354 0.516618,-0.41733 0.78125,-0.625 0.206542,-0.16208 0.368737,-0.26884 0.5,-0.375 a 0.31469455,0.31469455 0 0 1 0.03125,-0.0625 c 0.0046,-0.004 0.02682,0.004 0.03125,0 a 0.31469455,0.31469455 0 0 1 0.03125,-0.0625 c 0.0044,-0.004 0.02685,0.004 0.03125,0 9.639369,-9.15919 27.595222,-28.83361 38.78125,-40.15625 1.72022,-1.720217 3.375,-3.284436 3.375,-7.5625 l 0,-67.96875 c -0.004,-0.2376834 -0.26234,-0.4957056 -0.5,-0.5 l -98.65625,0 a 0.31469455,0.31469455 0 0 1 -0.03125,0 c -0.02143,-0.00203 -0.04093,-6.768e-4 -0.0625,0 -0.01078,3.384e-4 -0.02054,-0.00102 -0.03125,0 z"
       transform="matrix(1.013528,0,0,1.013266,-1.5133689,-1.3073677)" />
    <path
       style="fill:#ffffff;fill-opacity:1"
       d="m 12,4 0,120 49.999784,0 c 1.697965,0 3.967298,-0.57754 7.094784,-3.68191 8.990151,-8.92376 32.510002,-32.235741 39.866862,-39.726545 2.47359,-2.518643 3.04157,-4.572903 3.04157,-6.87703 L 112,4 z"
       id="path34"
       sodipodi:nodetypes="cccssccc"
       inkscape:connector-curvature="0" />
    <path
       style="fill:url(#linearGradient4524-4);fill-opacity:1"
       d="M 15.506762,7 C 15.162322,7 15,7.2377304 15,7.5066333 L 15,119.48009 c 0,0.83248 0.688512,1.5205 1.520292,1.51991 l 44.959416,-0.0317 c 0.05379,-4e-5 0.821348,0.0237 1.520292,0.0317 1.801712,-0.0406 3.174343,-0.76374 4.414963,-1.61442 C 68.481059,119.09069 97.540465,90.697457 106.78496,81.385896 108.1658,79.995068 109,77.38535 109,76.425341 L 109,7.5066332 C 109,7.179635 108.83457,7 108.49323,7 z"
       id="path3967"
       inkscape:connector-curvature="0"
       sodipodi:nodetypes="ccsssccscccc" />
    <path
       sodipodi:nodetypes="ccssscccccc"
       inkscape:connector-curvature="0"
       id="path5980"
       d="M 15.506762,7 C 15.162322,7 15,7.2377304 15,7.5066333 L 15,119.48009 c 0,0.83249 0.688527,1.51486 1.520292,1.51991 l 46.845657,0.2846 c 0.05379,3.3e-4 3.318172,-0.008 4.017117,5e-5 6.629458,-4.5634 31.077115,-31.337425 40.143354,-40.458653 0.66623,-0.74707 0.46379,-0.37498 1.47358,-1.628786 L 109,7.5066332 C 109,7.179635 108.83457,7 108.49323,7 z"
       style="opacity:0.84653476;fill:url(#radialGradient5988-0);fill-opacity:1" />
    <g
       id="g4320"
       transform="matrix(-1,0,0,1,124,24)">
      <g
         id="g4322"
         transform="matrix(-1,0,0,1,124,0)">
        <rect
           y="64"
           x="24"
           height="4"
           width="4"
           id="rect4324"
           style="fill:#000000;fill-opacity:0.15428569;stroke:none" />
        <rect
           style="fill:#000000;fill-opacity:0.15428569;stroke:none"
           id="rect4326"
           width="4"
           height="4"
           x="24"
           y="52" />
        <rect
           y="54"
           x="20"
           height="12"
           width="4"
           id="rect4328"
           style="fill:#000000;fill-opacity:0.15428569;stroke:none" />
        <rect
           style="fill:#000000;fill-opacity:0.15428569;stroke:none"
           id="rect4330"
           width="4"
           height="12"
           x="28"
           y="54" />
        <rect
           style="fill:#000000;fill-opacity:0.15428569;stroke:none"
           id="rect4332"
           width="4"
           height="4"
           x="40"
           y="64" />
        <rect
           y="52"
           x="40"
           height="4"
           width="4"
           id="rect4334"
           style="fill:#000000;fill-opacity:0.15428569;stroke:none" />
        <rect
           style="fill:#000000;fill-opacity:0.15428569;stroke:none"
           id="rect4336"
           width="4"
           height="12"
           x="36"
           y="54" />
        <rect
           y="54"
           x="44"
           height="12"
           width="4"
           id="rect4338"
           style="fill:#000000;fill-opacity:0.15428569;stroke:none" />
        <rect
           style="fill:#000000;fill-opacity:0.15428569;stroke:none"
           id="rect4340"
           width="4"
           height="15.877123"
           x="52"
           y="52.122879" />
      </g>
      <rect
         transform="scale(-1,1)"
         style="fill:#000000;fill-opacity:0.15428569;stroke:none"
         id="rect4342"
         width="4"
         height="15.877123"
         x="-64"
         y="52.122879" />
    </g>
    <g
       id="g4307"
       transform="translate(0,4)">
      <g
         transform="matrix(-1,0,0,1,124,0)"
         id="g4285">
        <rect
           style="fill:#000000;fill-opacity:0.15428569;stroke:none"
           id="rect4287"
           width="4"
           height="4"
           x="24"
           y="64" />
        <rect
           y="52"
           x="24"
           height="4"
           width="4"
           id="rect4289"
           style="fill:#000000;fill-opacity:0.15428569;stroke:none" />
        <rect
           style="fill:#000000;fill-opacity:0.15428569;stroke:none"
           id="rect4291"
           width="4"
           height="12"
           x="20"
           y="54" />
        <rect
           y="54"
           x="28"
           height="12"
           width="4"
           id="rect4293"
           style="fill:#000000;fill-opacity:0.15428569;stroke:none" />
        <rect
           y="64"
           x="40"
           height="4"
           width="4"
           id="rect4295"
           style="fill:#000000;fill-opacity:0.15428569;stroke:none" />
        <rect
           style="fill:#000000;fill-opacity:0.15428569;stroke:none"
           id="rect4297"
           width="4"
           height="4"
           x="40"
           y="52" />
        <rect
           y="54"
           x="36"
           height="12"
           width="4"
           id="rect4299"
           style="fill:#000000;fill-opacity:0.15428569;stroke:none" />
        <rect
           style="fill:#000000;fill-opacity:0.15428569;stroke:none"
           id="rect4301"
           width="4"
           height="12"
           x="44"
           y="54" />
        <rect
           y="52.122879"
           x="52"
           height="15.877123"
           width="4"
           id="rect4303"
           style="fill:#000000;fill-opacity:0.15428569;stroke:none" />
      </g>
      <rect
         y="52.122879"
         x="-64"
         height="15.877123"
         width="4"
         id="rect4305"
         style="fill:#000000;fill-opacity:0.15428569;stroke:none"
         transform="scale(-1,1)" />
    </g>
    <g
       id="g4344"
       transform="matrix(-1,0,0,1,124,23.877121)">
      <rect
         y="64"
         x="24"
         height="4"
         width="4"
         id="rect4346"
         style="fill:#000000;fill-opacity:0.15428569;stroke:none" />
      <rect
         style="fill:#000000;fill-opacity:0.15428569;stroke:none"
         id="rect4348"
         width="4"
         height="4"
         x="24"
         y="52" />
      <rect
         y="54"
         x="20"
         height="12"
         width="4"
         id="rect4350"
         style="fill:#000000;fill-opacity:0.15428569;stroke:none" />
      <rect
         style="fill:#000000;fill-opacity:0.15428569;stroke:none"
         id="rect4352"
         width="4"
         height="12"
         x="28"
         y="54" />
      <rect
         style="fill:#000000;fill-opacity:0.15428569;stroke:none"
         id="rect4354"
         width="4"
         height="4"
         x="40"
         y="64" />
      <rect
         y="52"
         x="40"
         height="4"
         width="4"
         id="rect4356"
         style="fill:#000000;fill-opacity:0.15428569;stroke:none" />
      <rect
         style="fill:#000000;fill-opacity:0.15428569;stroke:none"
         id="rect4358"
         width="4"
         height="12"
         x="36"
         y="54" />
      <rect
         y="54"
         x="44"
         height="12"
         width="4"
         id="rect4360"
         style="fill:#000000;fill-opacity:0.15428569;stroke:none" />
      <rect
         style="fill:#000000;fill-opacity:0.15428569;stroke:none"
         id="rect4362"
         width="4"
         height="15.877123"
         x="52"
         y="52.122879" />
    </g>
    <g
       transform="translate(-40,44)"
       id="g4364">
      <g
         transform="matrix(-1,0,0,1,124,0)"
         id="g4366">
        <rect
           style="fill:#000000;fill-opacity:0.15428569;stroke:none"
           id="rect4368"
           width="4"
           height="4"
           x="24"
           y="64" />
        <rect
           y="52"
           x="24"
           height="4"
           width="4"
           id="rect4370"
           style="fill:#000000;fill-opacity:0.15428569;stroke:none" />
        <rect
           style="fill:#000000;fill-opacity:0.15428569;stroke:none"
           id="rect4372"
           width="4"
           height="12"
           x="20"
           y="54" />
        <rect
           y="54"
           x="28"
           height="12"
           width="4"
           id="rect4374"
           style="fill:#000000;fill-opacity:0.15428569;stroke:none" />
        <rect
           y="64"
           x="40"
           height="4"
           width="4"
           id="rect4376"
           style="fill:#000000;fill-opacity:0.15428569;stroke:none" />
        <rect
           style="fill:#000000;fill-opacity:0.15428569;stroke:none"
           id="rect4378"
           width="4"
           height="4"
           x="40"
           y="52" />
        <rect
           y="54"
           x="36"
           height="12"
           width="4"
           id="rect4380"
           style="fill:#000000;fill-opacity:0.15428569;stroke:none" />
        <rect
           style="fill:#000000;fill-opacity:0.15428569;stroke:none"
           id="rect4382"
           width="4"
           height="12"
           x="44"
           y="54" />
        <rect
           y="52.122879"
           x="52"
           height="15.877123"
           width="4"
           id="rect4384"
           style="fill:#000000;fill-opacity:0.15428569;stroke:none" />
      </g>
      <rect
         y="52.122879"
         x="-64"
         height="15.877123"
         width="4"
         id="rect4386"
         style="fill:#000000;fill-opacity:0.15428569;stroke:none"
         transform="scale(-1,1)" />
    </g>
    <g
       id="g4274"
       transform="translate(0,4)">
      <rect
         style="fill:#000000;fill-opacity:0.15428569;stroke:none"
         id="rect4256"
         width="4"
         height="4"
         x="24"
         y="64" />
      <rect
         y="52"
         x="24"
         height="4"
         width="4"
         id="rect4258"
         style="fill:#000000;fill-opacity:0.15428569;stroke:none" />
      <rect
         style="fill:#000000;fill-opacity:0.15428569;stroke:none"
         id="rect4260"
         width="4"
         height="12"
         x="20"
         y="54" />
      <rect
         y="54"
         x="28"
         height="12"
         width="4"
         id="rect4262"
         style="fill:#000000;fill-opacity:0.15428569;stroke:none" />
      <rect
         y="64"
         x="40"
         height="4"
         width="4"
         id="rect4264"
         style="fill:#000000;fill-opacity:0.15428569;stroke:none" />
      <rect
         style="fill:#000000;fill-opacity:0.15428569;stroke:none"
         id="rect4266"
         width="4"
         height="4"
         x="40"
         y="52" />
      <rect
         y="54"
         x="36"
         height="12"
         width="4"
         id="rect4268"
         style="fill:#000000;fill-opacity:0.15428569;stroke:none" />
      <rect
         style="fill:#000000;fill-opacity:0.15428569;stroke:none"
         id="rect4270"
         width="4"
         height="12"
         x="44"
         y="54" />
      <rect
         y="52.122879"
         x="52"
         height="15.877123"
         width="4"
         id="rect4272"
         style="fill:#000000;fill-opacity:0.15428569;stroke:none" />
    </g>
    <g
       id="g3383">
      <g
         transform="matrix(1.4328512,0,0,1.4328512,-176.29029,-91.314087)"
         id="g4002">
        <rect
           style="fill:url(#linearGradient3335);fill-opacity:1;stroke:none"
           id="rect4004"
           width="16.519073"
           height="16.518272"
           x="173.49423"
           y="102.97694"
           rx="1.5"
           ry="1.5" />
        <rect
           ry="1"
           rx="1"
           y="104.47865"
           x="174.99594"
           height="13.514846"
           width="13.515615"
           id="rect4006"
           style="fill:url(#linearGradient3337);fill-opacity:1;stroke:none" />
        <rect
           style="fill:url(#radialGradient3339);fill-opacity:1;stroke:none"
           id="rect4008"
           width="10.51219"
           height="10.511399"
           x="176.49765"
           y="105.98035"
           rx="0.5"
           ry="0.5" />
        <path
           style="fill:url(#linearGradient3341);fill-opacity:1;stroke:none"
           d="m 176.99764,105.98035 c -0.277,0 -0.5,0.223 -0.5,0.5 l 0,4.51965 c 5.28314,-0.19571 6.61134,-0.93295 10.51192,-2 l 0,-2.51965 c 0,-0.277 -0.223,-0.5 -0.5,-0.5 z"
           id="path4010"
           inkscape:connector-curvature="0"
           sodipodi:nodetypes="ssccsss" />
        <rect
           style="opacity:0.42259414;fill:#000000;fill-opacity:0.79475983;stroke:none;filter:url(#filter3951)"
           id="rect4012"
           width="16.505808"
           height="2.8693383"
           x="173.49423"
           y="117.99397"
           rx="1"
           ry="0.68381858" />
      </g>
      <g
         id="g5268"
         transform="matrix(1.4328512,0,0,1.4328512,-204.41089,-63.31695)">
        <rect
           ry="1.5"
           rx="1.5"
           y="102.97694"
           x="173.49423"
           height="16.518272"
           width="16.519073"
           id="rect5270"
           style="fill:url(#linearGradient3343);fill-opacity:1;stroke:none" />
        <rect
           style="fill:url(#linearGradient3345);fill-opacity:1;stroke:none"
           id="rect5272"
           width="13.515615"
           height="13.514846"
           x="174.99594"
           y="104.47865"
           rx="1"
           ry="1" />
        <rect
           ry="0.5"
           rx="0.5"
           y="105.98035"
           x="176.49765"
           height="10.511399"
           width="10.51219"
           id="rect5274"
           style="fill:url(#radialGradient3347);fill-opacity:1;stroke:none" />
        <path
           sodipodi:nodetypes="ssccsss"
           inkscape:connector-curvature="0"
           id="path5276"
           d="m 176.99764,105.98035 c -0.277,0 -0.5,0.223 -0.5,0.5 l 0,4.51965 c 5.28314,-0.19571 6.61134,-0.93295 10.51192,-2 l 0,-2.51965 c 0,-0.277 -0.223,-0.5 -0.5,-0.5 z"
           style="fill:url(#linearGradient3349);fill-opacity:1;stroke:none" />
        <rect
           ry="0.68381858"
           rx="1"
           y="117.99397"
           x="173.49423"
           height="2.8693383"
           width="16.505808"
           id="rect5278"
           style="opacity:0.42259414;fill:#000000;fill-opacity:0.79475983;stroke:none;filter:url(#filter3951)" />
      </g>
      <g
         transform="matrix(1.4328512,0,0,1.4328512,-204.31134,-91.867292)"
         id="g5288">
        <rect
           style="fill:url(#linearGradient3351);fill-opacity:1;stroke:none"
           id="rect5290"
           width="16.519058"
           height="16.518776"
           x="173.49423"
           y="103.50247"
           rx="1.5"
           ry="1.5" />
        <rect
           ry="1"
           rx="1"
           y="105.00417"
           x="174.99594"
           height="13.515343"
           width="13.515637"
           id="rect5292"
           style="fill:url(#linearGradient3353);fill-opacity:1;stroke:none" />
        <rect
           style="fill:url(#radialGradient3355);fill-opacity:1;stroke:none"
           id="rect5294"
           width="10.512196"
           height="10.511894"
           x="176.49765"
           y="106.50587"
           rx="0.5"
           ry="0.5" />
        <path
           style="fill:url(#linearGradient3357);fill-opacity:1;stroke:none"
           d="m 176.99764,106.50588 c -0.277,0 -0.5,0.223 -0.5,0.5 l 0,5.04534 c 5.28314,-0.19571 6.70074,-0.93295 10.60132,-2 l 0,-3.04534 c 0,-0.277 -0.223,-0.5 -0.5,-0.5 z"
           id="path5296"
           inkscape:connector-curvature="0"
           sodipodi:nodetypes="ssccsss" />
        <rect
           style="fill:#000000;fill-opacity:0.79475983;stroke:none;filter:url(#filter3951)"
           id="rect5298"
           width="16.50576"
           height="1.9378762"
           x="173.49423"
           y="118.92543"
           rx="1"
           ry="0.9678216" />
      </g>
    </g>
    <path
       style="fill:#000000"
       d=""
       id="path2197" />
    <path
       clip-path="url(#clipPath6093-7)"
       style="opacity:0.34728035;fill:#000000;fill-opacity:1;stroke:none;filter:url(#filter6171-8)"
       d="m 114.4,82.502986 c 0,4.465301 -6.19771,3.506816 -8.67994,5.190489 -5.10854,3.46508 -20.174689,2.225237 -25.955859,2.306257 -0.081,5.781159 0.786541,16.143798 0.786541,22.293818 0,2.97817 -3.440475,11.20945 -6.350745,11.20945 -2.091359,1.5337 3.488204,8.21101 6.734971,5.31989 9.501888,-8.46107 35.131682,-30.022704 43.350822,-39.262889 2.04044,-2.29392 -4.90514,-9.844666 -9.88579,-7.057015 z"
       id="path6153"
       inkscape:connector-curvature="0"
       sodipodi:nodetypes="cscscssc"
       transform="matrix(1.2713893,0,0,1.3008089,-31.411352,-31.072453)" />
    <path
       sodipodi:nodetypes="cscscssc"
       inkscape:connector-curvature="0"
       id="path6081"
       d="m 113.9,82.502986 c 0,4.465301 -7.96273,11.129672 -10.95287,11.553449 -6.394981,0.906328 -15.824979,-3.47754 -21.606149,-3.39652 -0.081,5.781159 3.918356,18.962455 0.453276,24.070995 -1.68367,2.48224 -3.883991,8.07209 -6.794261,8.07209 -2.091359,1.5337 3.488204,11.21101 6.734971,8.31989 9.501888,-8.46107 45.998943,-30.20138 54.218083,-39.441569 2.04044,-2.29392 -17.0724,-11.965986 -22.05305,-9.178335 z"
       style="opacity:0.49295774;fill:#000000;fill-opacity:1;stroke:none;filter:url(#filter4087)"
       clip-path="url(#clipPath6093-7)"
       transform="matrix(1.323697,0,0,1.3543271,-37.27081,-37.383179)" />
    <path
       style="fill:url(#linearGradient3895-3);fill-opacity:1;stroke:none"
       d="m 111.80692,72.373791 c 0,6.193164 -3.79585,8.890306 -7.16393,11.225476 C 97.711316,88.405175 83.444341,87.387629 75.6,87.5 c -0.109909,8.0182 0.701692,21.4147 -4,28.5 -2.284534,3.44276 -6.727129,8.38457 -10.67601,8.38457 3.145284,0 6.435454,-1.85125 10.290589,-5.66544 12.404537,-12.27278 23.56509,-22.378984 34.835341,-35.086504 2.60379,-2.935824 5.757,-5.051122 5.757,-11.258835 z"
       id="path6011"
       inkscape:connector-curvature="0"
       sodipodi:nodetypes="cscscssc" />
    <path
       style="fill:#ffffff;fill-opacity:1;stroke:none"
       d="m 111.83234,71.941762 c -0.42932,5.407885 -4.39696,7.298568 -6.55729,8.796367 C 100.15305,84.28932 93.349113,84 72,84 c 0,19.65502 0.5,28.4 -3.219913,33.20293 -2.21447,2.85919 -6.648335,6.04727 -10.26176,6.86542 4.951272,0 8.407066,-1.08166 11.641616,-4.28186 0.460141,-0.53889 1.37925,-1.54169 2.101048,-2.68043 C 76.100178,111.32051 76,99.904353 76,88 c 7.844341,-0.112342 21.630842,1.155905 28.5625,-3.65 0.63154,-0.437847 2.56984,-2.009889 3.13546,-2.57551 3.14173,-3.14173 3.82294,-5.144366 4.13438,-9.832728 z M 58.518327,124.06835 c -0.213922,0.0483 -0.425295,0.0575 -0.636038,0.0866 0.213019,-0.0234 0.421235,-0.0465 0.636038,-0.0866 z"
       id="path6122"
       inkscape:connector-curvature="0"
       sodipodi:nodetypes="cscsccccsscccc" />
    <path
       style="fill:none;stroke:url(#radialGradient3919-5);stroke-width:1.85605633;stroke-linecap:butt;stroke-linejoin:miter;stroke-miterlimit:4;stroke-opacity:1;stroke-dasharray:none;filter:url(#filter3909-6)"
       d="M 108.97651,89.508691 79.934895,118.21077"
       id="path3873"
       inkscape:connector-curvature="0"
       sodipodi:nodetypes="cc"
       clip-path="url(#clipPath3889-6)"
       transform="matrix(1.3568778,0,0,1.3869539,-40.163409,-42.054049)" />
    <rect
       style="fill:#000000;fill-opacity:0.15428569;stroke:none"
       id="rect3420"
       width="4"
       height="15.877123"
       x="20"
       y="16.122877" />
    <rect
       y="16.122877"
       x="28"
       height="15.877123"
       width="4"
       id="rect4190"
       style="fill:#000000;fill-opacity:0.15428569;stroke:none" />
    <rect
       style="fill:#000000;fill-opacity:0.15428569;stroke:none"
       id="rect4192"
       width="4"
       height="4"
       x="40"
       y="28" />
    <rect
       y="16"
       x="40"
       height="4"
       width="4"
       id="rect4194"
       style="fill:#000000;fill-opacity:0.15428569;stroke:none" />
    <rect
       style="fill:#000000;fill-opacity:0.15428569;stroke:none"
       id="rect4196"
       width="4"
       height="12"
       x="36"
       y="18" />
    <rect
       y="18"
       x="44"
       height="12"
       width="4"
       id="rect4198"
       style="fill:#000000;fill-opacity:0.15428569;stroke:none" />
    <rect
       y="16.122877"
       x="52"
       height="15.877123"
       width="4"
       id="rect4200"
       style="fill:#000000;fill-opacity:0.15428569;stroke:none" />
    <rect
       style="fill:#000000;fill-opacity:0.15428569;stroke:none"
       id="rect4202"
       width="4"
       height="15.877123"
       x="60"
       y="16.122877" />
    <rect
       y="28"
       x="72"
       height="4"
       width="4"
       id="rect4204"
       style="fill:#000000;fill-opacity:0.15428569;stroke:none" />
    <rect
       style="fill:#000000;fill-opacity:0.15428569;stroke:none"
       id="rect4206"
       width="4"
       height="4"
       x="72"
       y="16" />
    <rect
       y="18"
       x="68"
       height="12"
       width="4"
       id="rect4208"
       style="fill:#000000;fill-opacity:0.15428569;stroke:none" />
    <rect
       style="fill:#000000;fill-opacity:0.15428569;stroke:none"
       id="rect4210"
       width="4"
       height="12"
       x="76"
       y="18" />
    <rect
       style="fill:#000000;fill-opacity:0.15428569;stroke:none"
       id="rect4212"
       width="4"
       height="4"
       x="88"
       y="28" />
    <rect
       y="16"
       x="88"
       height="4"
       width="4"
       id="rect4214"
       style="fill:#000000;fill-opacity:0.15428569;stroke:none" />
    <rect
       style="fill:#000000;fill-opacity:0.15428569;stroke:none"
       id="rect4216"
       width="4"
       height="12"
       x="84"
       y="18" />
    <rect
       y="18"
       x="92"
       height="12"
       width="4"
       id="rect4218"
       style="fill:#000000;fill-opacity:0.15428569;stroke:none" />
    <rect
       style="fill:#000000;fill-opacity:0.15428569;stroke:none"
       id="rect4220"
       width="4"
       height="15.877123"
       x="100"
       y="16.122877" />
    <rect
       y="36.122879"
       x="-104"
       height="15.877123"
       width="4"
       id="rect4222"
       style="fill:#000000;fill-opacity:0.15428569;stroke:none"
       transform="scale(-1,1)" />
    <rect
       style="fill:#000000;fill-opacity:0.15428569;stroke:none"
       id="rect4224"
       width="4"
       height="15.877123"
       x="-96"
       y="36.122879"
       transform="scale(-1,1)" />
    <rect
       y="48"
       x="-84"
       height="4"
       width="4"
       id="rect4226"
       style="fill:#000000;fill-opacity:0.15428569;stroke:none"
       transform="scale(-1,1)" />
    <rect
       style="fill:#000000;fill-opacity:0.15428569;stroke:none"
       id="rect4228"
       width="4"
       height="4"
       x="-84"
       y="36"
       transform="scale(-1,1)" />
    <rect
       y="38"
       x="-88"
       height="12"
       width="4"
       id="rect4230"
       style="fill:#000000;fill-opacity:0.15428569;stroke:none"
       transform="scale(-1,1)" />
    <rect
       style="fill:#000000;fill-opacity:0.15428569;stroke:none"
       id="rect4232"
       width="4"
       height="12"
       x="-80"
       y="38"
       transform="scale(-1,1)" />
    <rect
       style="fill:#000000;fill-opacity:0.15428569;stroke:none"
       id="rect4234"
       width="4"
       height="15.877123"
       x="-72"
       y="36.122879"
       transform="scale(-1,1)" />
    <rect
       y="36.122879"
       x="-64"
       height="15.877123"
       width="4"
       id="rect4236"
       style="fill:#000000;fill-opacity:0.15428569;stroke:none"
       transform="scale(-1,1)" />
    <rect
       style="fill:#000000;fill-opacity:0.15428569;stroke:none"
       id="rect4238"
       width="4"
       height="4"
       x="-52"
       y="48"
       transform="scale(-1,1)" />
    <rect
       y="36"
       x="-52"
       height="4"
       width="4"
       id="rect4240"
       style="fill:#000000;fill-opacity:0.15428569;stroke:none"
       transform="scale(-1,1)" />
    <rect
       style="fill:#000000;fill-opacity:0.15428569;stroke:none"
       id="rect4242"
       width="4"
       height="12"
       x="-56"
       y="38"
       transform="scale(-1,1)" />
    <rect
       y="38"
       x="-48"
       height="12"
       width="4"
       id="rect4244"
       style="fill:#000000;fill-opacity:0.15428569;stroke:none"
       transform="scale(-1,1)" />
    <rect
       y="48"
       x="-36"
       height="4"
       width="4"
       id="rect4246"
       style="fill:#000000;fill-opacity:0.15428569;stroke:none"
       transform="scale(-1,1)" />
    <rect
       style="fill:#000000;fill-opacity:0.15428569;stroke:none"
       id="rect4248"
       width="4"
       height="4"
       x="-36"
       y="36"
       transform="scale(-1,1)" />
    <rect
       y="38"
       x="-40"
       height="12"
       width="4"
       id="rect4250"
       style="fill:#000000;fill-opacity:0.15428569;stroke:none"
       transform="scale(-1,1)" />
    <rect
       style="fill:#000000;fill-opacity:0.15428569;stroke:none"
       id="rect4252"
       width="4"
       height="12"
       x="-32"
       y="38"
       transform="scale(-1,1)" />
    <rect
       y="36.122879"
       x="-24"
       height="15.877123"
       width="4"
       id="rect4254"
       style="fill:#000000;fill-opacity:0.15428569;stroke:none"
       transform="scale(-1,1)" />
  </g>
</svg>
