<?xml version="1.0" encoding="UTF-8" standalone="no"?>
<!-- Created with Inkscape (http://www.inkscape.org/) -->

<svg
   xmlns:dc="http://purl.org/dc/elements/1.1/"
   xmlns:cc="http://creativecommons.org/ns#"
   xmlns:rdf="http://www.w3.org/1999/02/22-rdf-syntax-ns#"
   xmlns:svg="http://www.w3.org/2000/svg"
   xmlns="http://www.w3.org/2000/svg"
   xmlns:xlink="http://www.w3.org/1999/xlink"
   xmlns:sodipodi="http://sodipodi.sourceforge.net/DTD/sodipodi-0.dtd"
   xmlns:inkscape="http://www.inkscape.org/namespaces/inkscape"
   width="128"
   height="128"
   id="svg2606"
   sodipodi:version="0.32"
   inkscape:version="0.48.0 r9654"
   version="1.0"
   sodipodi:docname="application-x-kgetlist.svgz"
   inkscape:output_extension="org.inkscape.output.svgz.inkscape"
   inkscape:export-filename="/home/pinheiro/pics/oxygen-icons/scalable/mimetypes/small/32x32/application-x-kgetlist.png"
   inkscape:export-xdpi="180"
   inkscape:export-ydpi="180">
  <defs
     id="defs2608">
    <linearGradient
       id="linearGradient6131">
      <stop
         id="stop6133"
         offset="0"
         style="stop-color:#fcfcfc;stop-opacity:1" />
      <stop
         style="stop-color:#f8f8f8;stop-opacity:1"
         offset="0.52275378"
         id="stop6135" />
      <stop
         id="stop6141"
         offset="0.77457333"
         style="stop-color:#f0efef;stop-opacity:1;" />
      <stop
         id="stop6139"
         offset="0.90122044"
         style="stop-color:#e3e1e1;stop-opacity:1;" />
      <stop
         id="stop6137"
         offset="1"
         style="stop-color:#cecbcb;stop-opacity:1" />
    </linearGradient>
    <linearGradient
       inkscape:collect="always"
       xlink:href="#linearGradient6131"
       id="linearGradient3893"
       gradientUnits="userSpaceOnUse"
       gradientTransform="matrix(1.0119858,0,0,1.0119858,-0.89554075,-0.9871566)"
       x1="86.73793"
       y1="93.621468"
       x2="95.460213"
       y2="102.34375" />
    <radialGradient
       inkscape:collect="always"
       xlink:href="#linearGradient3913-5"
       id="radialGradient3919-5"
       cx="90.75"
       cy="110.25299"
       fx="90.75"
       fy="110.25299"
       r="18.750002"
       gradientTransform="matrix(1.3067347,0,0,1.3067347,-27.83617,-33.818441)"
       gradientUnits="userSpaceOnUse" />
    <linearGradient
       inkscape:collect="always"
       id="linearGradient3913-5">
      <stop
         style="stop-color:#ffffff;stop-opacity:1;"
         offset="0"
         id="stop3915-4" />
      <stop
         style="stop-color:#ffffff;stop-opacity:0;"
         offset="1"
         id="stop3917-7" />
    </linearGradient>
    <clipPath
       clipPathUnits="userSpaceOnUse"
       id="clipPath3889-6">
      <path
         sodipodi:nodetypes="cscscssc"
         inkscape:connector-curvature="0"
         id="path3891-5"
         d="m 112,82.502986 c 0,4.465301 -2.79749,6.409952 -5.27972,8.093625 -5.10854,3.46508 -14.939114,3.32536 -20.720284,3.40638 -0.081,5.781159 0.16586,15.504599 -3.29922,20.613139 -1.68367,2.48224 -5.29051,5.38687 -8.20078,5.38687 2.31803,0 4.74284,-1.33476 7.58402,-4.08481 9.14197,-8.84873 17.36714,-16.13535 25.673154,-25.297529 C 109.67612,88.503916 112,86.97878 112,82.502986 z"
         style="fill:url(#linearGradient3893);fill-opacity:1;stroke:none" />
    </clipPath>
    <filter
       color-interpolation-filters="sRGB"
       inkscape:collect="always"
       id="filter3909-6">
      <feGaussianBlur
         inkscape:collect="always"
         stdDeviation="0.43040059"
         id="feGaussianBlur3911-9" />
    </filter>
    <linearGradient
       inkscape:collect="always"
       xlink:href="#linearGradient3897-7"
       id="linearGradient3895-3"
       gradientUnits="userSpaceOnUse"
       gradientTransform="matrix(1.3731411,0,0,1.4035776,-41.378546,-43.42319)"
       x1="82.15696"
       y1="90.381706"
       x2="94.220871"
       y2="102.18401" />
    <linearGradient
       id="linearGradient3897-7">
      <stop
         style="stop-color:#fcfcfc;stop-opacity:1"
         offset="0"
         id="stop3899-4" />
      <stop
         id="stop3901-5"
         offset="0.52275378"
         style="stop-color:#f8f8f8;stop-opacity:1" />
      <stop
         style="stop-color:#f0efef;stop-opacity:1;"
         offset="0.72337759"
         id="stop3903-2" />
      <stop
         style="stop-color:#e3e1e1;stop-opacity:1;"
         offset="0.89024991"
         id="stop3905-5" />
      <stop
         style="stop-color:#cecbcb;stop-opacity:1"
         offset="1"
         id="stop3907-4" />
    </linearGradient>
    <clipPath
       clipPathUnits="userSpaceOnUse"
       id="clipPath6093-7">
      <path
         inkscape:connector-curvature="0"
         sodipodi:nodetypes="cccssccc"
         id="path6095-4"
         d="m 17.000001,8 0.782827,110 57.5,0 c 1.675283,0 3.119418,0.18058 4.9,-1.6 C 88.980763,107.60206 99.94047,96.548195 107.19904,89.224043 109.6396,86.761431 110,84.752873 110,82.5 L 110,8 z"
         style="fill:#ffffff;fill-opacity:1" />
    </clipPath>
    <radialGradient
       inkscape:collect="always"
       xlink:href="#linearGradient5982-7"
       id="radialGradient5988-0"
       cx="64"
       cy="64.004021"
       fx="63.793392"
       fy="47.274845"
       r="47.5"
       gradientTransform="matrix(1.7069944,-0.08541345,0.06979496,1.3941371,-50.362376,-20.218185)"
       gradientUnits="userSpaceOnUse" />
    <linearGradient
       inkscape:collect="always"
       id="linearGradient5982-7">
      <stop
         style="stop-color:#ffffff;stop-opacity:1;"
         offset="0"
         id="stop5984-8" />
      <stop
         style="stop-color:#ffffff;stop-opacity:0;"
         offset="1"
         id="stop5986-6" />
    </linearGradient>
    <filter
       color-interpolation-filters="sRGB"
       inkscape:collect="always"
       id="filter6171-8"
       x="-0.47870937"
       width="1.9574188"
       y="-0.51275069"
       height="2.0255013">
      <feGaussianBlur
         inkscape:collect="always"
         stdDeviation="10.140743"
         id="feGaussianBlur6173-8" />
    </filter>
    <linearGradient
       inkscape:collect="always"
       xlink:href="#linearGradient4518-3"
       id="linearGradient4524-4"
       x1="72"
       y1="0"
       x2="72"
       y2="116.40091"
       gradientUnits="userSpaceOnUse"
       gradientTransform="matrix(1.013528,0,0,1.013266,-1.5133685,-1.3073648)" />
    <linearGradient
       id="linearGradient4518-3">
      <stop
         style="stop-color:#eeecec;stop-opacity:1"
         offset="0"
         id="stop4520-1" />
      <stop
         id="stop5969-4"
         offset="0.40000001"
         style="stop-color:#f4f4f4;stop-opacity:1" />
      <stop
         style="stop-color:#f6f5f5;stop-opacity:1"
         offset="1"
         id="stop4522-9" />
    </linearGradient>
    <filter
       inkscape:collect="always"
       id="filter4123">
      <feGaussianBlur
         inkscape:collect="always"
         stdDeviation="2.028"
         id="feGaussianBlur4125" />
    </filter>
    <filter
       inkscape:collect="always"
       id="filter4087"
       x="-0.16465071"
       width="1.3293014"
       y="-0.2041295"
       height="1.408259">
      <feGaussianBlur
         inkscape:collect="always"
         stdDeviation="4.2234282"
         id="feGaussianBlur4089" />
    </filter>
    <filter
       inkscape:collect="always"
       id="filter4084">
      <feGaussianBlur
         inkscape:collect="always"
         stdDeviation="1.4598961"
         id="feGaussianBlur4086" />
    </filter>
    <clipPath
       clipPathUnits="userSpaceOnUse"
       id="clipPath3696">
      <path
         style="opacity:0.84653476;fill:url(#radialGradient3700);fill-opacity:1"
         d="m 174.87599,37.680259 c -0.29803,0 -0.43848,0.205749 -0.43848,0.438478 l 0,96.437783 c 0,0.72049 0.59574,1.31496 1.31544,1.31543 l 41.65542,0.0275 c 0.0465,3e-5 2.87105,-0.007 3.47582,5e-5 5.73614,-3.94952 26.28054,-25.39081 34.12511,-33.285 1.29513,-1.45267 0.4013,-0.32454 1.27502,-1.40967 l 5e-5,-63.086043 c 0,-0.283009 -0.14314,-0.438478 -0.43848,-0.438478 z"
         id="path3698"
         inkscape:connector-curvature="0"
         sodipodi:nodetypes="ccssscccccc" />
    </clipPath>
    <filter
       color-interpolation-filters="sRGB"
       height="1.340745"
       y="-0.17037249"
       width="1.1703693"
       x="-0.085184656"
       id="filter4274"
       inkscape:collect="always">
      <feGaussianBlur
         id="feGaussianBlur4276"
         stdDeviation="2.3426182"
         inkscape:collect="always" />
    </filter>
    <linearGradient
       inkscape:collect="always"
       xlink:href="#XMLID_9_"
       id="linearGradient5388"
       gradientUnits="userSpaceOnUse"
       gradientTransform="matrix(0.6024737,0,0,0.6890756,-188.17076,-522.43699)"
       x1="538.77338"
       y1="793"
       x2="538.77338"
       y2="674" />
    <linearGradient
       id="XMLID_9_"
       gradientUnits="userSpaceOnUse"
       x1="538.77338"
       y1="793"
       x2="538.77338"
       y2="674"
       gradientTransform="translate(-484,-674)">
      <stop
         offset="0"
         style="stop-color:#094422"
         id="stop7" />
      <stop
         offset="0.1124"
         style="stop-color:#095A22"
         id="stop9" />
      <stop
         offset="0.4045"
         style="stop-color:#1E7D27"
         id="stop11" />
      <stop
         offset="0.4231"
         style="stop-color:#217F29"
         id="stop13" />
      <stop
         offset="0.4369"
         style="stop-color:#2A8531"
         id="stop15" />
      <stop
         offset="0.4491"
         style="stop-color:#3A8F3D"
         id="stop17" />
      <stop
         offset="0.4605"
         style="stop-color:#519D4E"
         id="stop19" />
      <stop
         offset="0.4712"
         style="stop-color:#6EAF64"
         id="stop21" />
      <stop
         offset="0.4814"
         style="stop-color:#92C680"
         id="stop23" />
      <stop
         offset="0.4911"
         style="stop-color:#BCE0A0"
         id="stop25" />
      <stop
         offset="0.4944"
         style="stop-color:#CCEAAC"
         id="stop27" />
      <stop
         offset="0.5124"
         style="stop-color:#A4CD90"
         id="stop29" />
      <stop
         offset="0.5326"
         style="stop-color:#80B276"
         id="stop31" />
      <stop
         offset="0.5552"
         style="stop-color:#609A5F"
         id="stop33" />
      <stop
         offset="0.5803"
         style="stop-color:#44864C"
         id="stop35" />
      <stop
         offset="0.6086"
         style="stop-color:#2E763C"
         id="stop37" />
      <stop
         offset="0.6416"
         style="stop-color:#1D6931"
         id="stop39" />
      <stop
         offset="0.6825"
         style="stop-color:#126028"
         id="stop9560" />
      <stop
         offset="0.7398"
         style="stop-color:#0B5B23"
         id="stop43" />
      <stop
         offset="0.8989"
         style="stop-color:#095A22"
         id="stop45" />
      <stop
         offset="1"
         style="stop-color:#9ED676"
         id="stop9564" />
    </linearGradient>
    <linearGradient
       inkscape:collect="always"
       xlink:href="#XMLID_10_"
       id="linearGradient5390"
       gradientUnits="userSpaceOnUse"
       gradientTransform="translate(-484,-674)"
       x1="538.77338"
       y1="674"
       x2="538.77338"
       y2="678.3681" />
    <linearGradient
       id="XMLID_10_"
       gradientUnits="userSpaceOnUse"
       x1="538.77338"
       y1="674"
       x2="538.77338"
       y2="678.3681"
       gradientTransform="translate(-484,-674)">
      <stop
         offset="0"
         style="stop-color:#094422"
         id="stop54" />
      <stop
         offset="1"
         style="stop-color:#9ED676"
         id="stop56" />
    </linearGradient>
    <linearGradient
       inkscape:collect="always"
       xlink:href="#XMLID_11_"
       id="linearGradient5392"
       gradientUnits="userSpaceOnUse"
       gradientTransform="translate(-484,-674)"
       x1="579.72852"
       y1="732.41022"
       x2="579.72852"
       y2="736.55688" />
    <linearGradient
       id="XMLID_11_"
       gradientUnits="userSpaceOnUse"
       x1="579.72852"
       y1="732.41022"
       x2="579.72852"
       y2="736.55688"
       gradientTransform="translate(-484,-674)">
      <stop
         offset="0"
         style="stop-color:#094422"
         id="stop61" />
      <stop
         offset="1"
         style="stop-color:#9ED676"
         id="stop63" />
    </linearGradient>
    <linearGradient
       inkscape:collect="always"
       xlink:href="#XMLID_12_"
       id="linearGradient5394"
       gradientUnits="userSpaceOnUse"
       gradientTransform="translate(-484,-674)"
       x1="497.81451"
       y1="732.4082"
       x2="497.81451"
       y2="736.62341" />
    <linearGradient
       id="XMLID_12_"
       gradientUnits="userSpaceOnUse"
       x1="96"
       y1="104"
       x2="88.000198"
       y2="96.000198">
      <stop
         offset="0"
         style="stop-color:#888A85"
         id="stop83" />
      <stop
         offset="0.0072"
         style="stop-color:#8C8E89"
         id="stop85" />
      <stop
         offset="0.0673"
         style="stop-color:#ABACA9"
         id="stop87" />
      <stop
         offset="0.1347"
         style="stop-color:#C5C6C4"
         id="stop89" />
      <stop
         offset="0.2652576"
         style="stop-color:#DBDBDA"
         id="stop91" />
      <stop
         offset="0.37646064"
         style="stop-color:#EBEBEB"
         id="stop93" />
      <stop
         offset="0.48740286"
         style="stop-color:#F7F7F6"
         id="stop95" />
      <stop
         offset="0.6324091"
         style="stop-color:#FDFDFD"
         id="stop97" />
      <stop
         offset="1"
         style="stop-color:#FFFFFF"
         id="stop99" />
    </linearGradient>
    <radialGradient
       inkscape:collect="always"
       xlink:href="#XMLID_13_"
       id="radialGradient5396"
       gradientUnits="userSpaceOnUse"
       gradientTransform="matrix(0.6024737,0,0,0.6890756,-188.17076,-522.43699)"
       cx="538.77252"
       cy="792.99609"
       r="121.5466" />
    <radialGradient
       id="XMLID_13_"
       cx="538.77252"
       cy="792.99609"
       r="121.5466"
       gradientTransform="translate(-484,-674)"
       gradientUnits="userSpaceOnUse">
      <stop
         offset="0"
         style="stop-color:#FFFAB3"
         id="stop9505" />
      <stop
         offset="0.0494"
         style="stop-color:#DFEE9F"
         id="stop9507" />
      <stop
         offset="0.1049"
         style="stop-color:#C3E48D"
         id="stop9509" />
      <stop
         offset="0.1605"
         style="stop-color:#AEDC80"
         id="stop9511" />
      <stop
         offset="0.2156"
         style="stop-color:#A2D879"
         id="stop9513" />
      <stop
         offset="0.2697"
         style="stop-color:#9ED676"
         id="stop9515" />
      <stop
         offset="0.3989"
         style="stop-color:#3BA42A"
         id="stop9517" />
      <stop
         offset="0.3995"
         style="stop-color:#3BA42A"
         id="stop9519" />
      <stop
         offset="0.4484"
         style="stop-color:#258426"
         id="stop9521" />
      <stop
         offset="0.4956"
         style="stop-color:#166D24"
         id="stop101" />
      <stop
         offset="0.54"
         style="stop-color:#0C5F23"
         id="stop103" />
      <stop
         offset="0.5787"
         style="stop-color:#095A22"
         id="stop105" />
      <stop
         offset="0.5948"
         style="stop-color:#166727"
         id="stop107" />
      <stop
         offset="0.6456"
         style="stop-color:#388B33"
         id="stop109" />
      <stop
         offset="0.6932"
         style="stop-color:#51A53C"
         id="stop111" />
      <stop
         offset="0.7359"
         style="stop-color:#61B542"
         id="stop113" />
      <stop
         offset="0.7697"
         style="stop-color:#66BA44"
         id="stop115" />
      <stop
         offset="1"
         style="stop-color:#095A22"
         id="stop117" />
    </radialGradient>
    <linearGradient
       inkscape:collect="always"
       xlink:href="#XMLID_14_"
       id="linearGradient5398"
       gradientUnits="userSpaceOnUse"
       gradientTransform="matrix(0.6024737,0,0,0.6890756,-188.17074,-522.43699)"
       x1="538.77338"
       y1="677.87701"
       x2="538.77338"
       y2="789.12207" />
    <linearGradient
       id="XMLID_14_"
       gradientUnits="userSpaceOnUse"
       x1="538.77338"
       y1="677.87701"
       x2="538.77338"
       y2="789.12207"
       gradientTransform="translate(-484,-674)">
      <stop
         offset="0.0056"
         style="stop-color:#1E7D27"
         id="stop122" />
      <stop
         offset="0.1348"
         style="stop-color:#3BA42A"
         id="stop124" />
      <stop
         offset="0.4831"
         style="stop-color:#B8E57F"
         id="stop126" />
      <stop
         offset="0.6299"
         style="stop-color:#A9E66E"
         id="stop128" />
      <stop
         offset="0.8528"
         style="stop-color:#97E859"
         id="stop130" />
      <stop
         offset="1"
         style="stop-color:#91E851"
         id="stop132" />
    </linearGradient>
    <radialGradient
       inkscape:collect="always"
       xlink:href="#XMLID_15_"
       id="radialGradient5400"
       gradientUnits="userSpaceOnUse"
       gradientTransform="matrix(0.6015648,0,0,0.7971009,-187.68106,-594.06594)"
       cx="538.77338"
       cy="651.10352"
       fx="538.77338"
       fy="651.10352"
       r="126.0234" />
    <radialGradient
       id="XMLID_15_"
       cx="538.77338"
       cy="651.10352"
       r="126.0234"
       gradientTransform="translate(-484,-674)"
       gradientUnits="userSpaceOnUse">
      <stop
         offset="0"
         style="stop-color:#CCEAAC"
         id="stop137" />
      <stop
         offset="0.5393"
         style="stop-color:#3BA42A"
         id="stop139" />
      <stop
         offset="1"
         style="stop-color:#91E851"
         id="stop141" />
    </radialGradient>
    <linearGradient
       inkscape:collect="always"
       xlink:href="#XMLID_16_"
       id="linearGradient5402"
       gradientUnits="userSpaceOnUse"
       gradientTransform="matrix(0.6024737,0,0,0.6890756,-188.17076,-522.14757)"
       x1="538.77338"
       y1="675.48541"
       x2="538.77338"
       y2="677.06049" />
    <linearGradient
       id="XMLID_16_"
       gradientUnits="userSpaceOnUse"
       x1="538.77338"
       y1="675.48541"
       x2="538.77338"
       y2="677.06049"
       gradientTransform="translate(-484,-674)">
      <stop
         offset="0"
         style="stop-color:#FFFFFF"
         id="stop146" />
      <stop
         offset="1"
         style="stop-color:#00BF00"
         id="stop148" />
    </linearGradient>
  </defs>
  <sodipodi:namedview
     id="base"
     pagecolor="#ffffff"
     bordercolor="#666666"
     borderopacity="1.0"
     inkscape:pageopacity="0.0"
     inkscape:pageshadow="2"
     inkscape:zoom="1.4142136"
     inkscape:cx="-20.243139"
     inkscape:cy="17.77616"
     inkscape:document-units="px"
     inkscape:current-layer="layer1"
     width="128px"
     height="128px"
     showgrid="true"
     inkscape:grid-points="true"
     showguides="true"
     inkscape:guide-bbox="true"
     inkscape:window-width="1224"
     inkscape:window-height="757"
     inkscape:window-x="317"
     inkscape:window-y="207"
     inkscape:snap-global="false"
     inkscape:window-maximized="0"
     inkscape:snap-page="true">
    <inkscape:grid
       id="GridFromPre046Settings"
       type="xygrid"
       originx="0px"
       originy="0px"
       spacingx="4px"
       spacingy="4px"
       color="#0000ff"
       empcolor="#0000ff"
       opacity="0.2"
       empopacity="0.4"
       empspacing="2"
       visible="true"
       enabled="true"
       snapvisiblegridlinesonly="true" />
    <sodipodi:guide
       orientation="1,0"
       position="-68,29.325902"
       id="guide4564" />
    <sodipodi:guide
       orientation="1,0"
       position="-121.62237,135.0574"
       id="guide3859" />
    <sodipodi:guide
       orientation="0,1"
       position="38.581514,-74.688154"
       id="guide4360" />
  </sodipodi:namedview>
  <metadata
     id="metadata2611">
    <rdf:RDF>
      <cc:Work
         rdf:about="">
        <dc:format>image/svg+xml</dc:format>
        <dc:type
           rdf:resource="http://purl.org/dc/dcmitype/StillImage" />
        <dc:title></dc:title>
      </cc:Work>
    </rdf:RDF>
  </metadata>
  <g
     inkscape:label="Livello 1"
     inkscape:groupmode="layer"
     id="layer1">
    <path
       style="opacity:0.45606695;fill:#000000;fill-opacity:1;filter:url(#filter4123)"
       d="m 13.333,5.3364 0,118.3304 49.8545,-0.0668 c 2.115554,-0.003 4.528919,-1.77169 7,-4.25 0.71234,-0.71442 1.440746,-1.39395 2.15625,-2.09375 0.415612,-0.40649 0.832187,-0.81443 1.25,-1.21875 7.773958,-7.40962 26.98341,-25.122599 34.21875,-33.099999 0.42065,-0.42064 0.81207,-0.8111 1.15625,-1.1875 1.46444,-1.49766 2.76158,-2.8378 2.99375,-5.8625 L 112,75.156251 111.9972,5.3364 z"
       id="path5990"
       inkscape:connector-curvature="0"
       sodipodi:nodetypes="ccsssccccccc"
       transform="matrix(1.013528,0,0,1.013266,-1.5133689,-1.3073677)" />
    <path
       sodipodi:type="inkscape:offset"
       inkscape:radius="-0.31466308"
       inkscape:original="M 13.1875 4.53125 C 12.818918 4.609246 12.529956 4.967008 12.53125 5.34375 L 12.53125 123.65625 C 12.53885 124.07954 12.920464 124.4611 13.34375 124.46875 L 62.15625 124.46875 C 63.930251 124.46875 65.829207 124.74865 68.6875 122.8125 C 68.829003 122.58432 71.218784 120.82456 70.53125 121.25 C 80.188854 112.07585 98.162197 92.41186 109.34375 81.09375 C 111.06182 79.375681 112.8125 77.674752 112.8125 73.3125 L 112.8125 5.34375 C 112.80483 4.9204809 112.42327 4.5388981 112 4.53125 L 13.34375 4.53125 C 13.29182 4.52633 13.239428 4.52633 13.1875 4.53125 z "
       style="fill:#000000;fill-opacity:1;filter:url(#filter4084)"
       id="path3314"
       d="m 13.21875,4.84375 c -0.201143,0.05725 -0.375711,0.2931131 -0.375,0.5 l 0,118.3125 c 0.0043,0.23765 0.262302,0.4957 0.5,0.5 l 48.8125,0 c 1.807099,0 3.550693,0.29821 6.34375,-1.59375 0.03611,-0.0371 0.07724,-0.0824 0.125,-0.125 0.08359,-0.0745 0.19399,-0.18448 0.3125,-0.28125 0.23702,-0.19354 0.516618,-0.41733 0.78125,-0.625 0.206542,-0.16208 0.368737,-0.26884 0.5,-0.375 a 0.31469455,0.31469455 0 0 1 0.03125,-0.0625 c 0.0046,-0.004 0.02682,0.004 0.03125,0 a 0.31469455,0.31469455 0 0 1 0.03125,-0.0625 c 0.0044,-0.004 0.02685,0.004 0.03125,0 9.639369,-9.15919 27.595222,-28.83361 38.78125,-40.15625 1.72022,-1.720217 3.375,-3.284436 3.375,-7.5625 l 0,-67.96875 c -0.004,-0.2376834 -0.26234,-0.4957056 -0.5,-0.5 l -98.65625,0 a 0.31469455,0.31469455 0 0 1 -0.03125,0 c -0.02143,-0.00203 -0.04093,-6.768e-4 -0.0625,0 -0.01078,3.384e-4 -0.02054,-0.00102 -0.03125,0 z"
       transform="matrix(1.013528,0,0,1.013266,-1.5133689,-1.3073677)" />
    <path
       style="fill:#ffffff;fill-opacity:1"
       d="m 12,4 0,120 49.999784,0 c 1.697965,0 3.967298,-0.57754 7.094784,-3.68191 8.990151,-8.92376 32.510002,-32.235741 39.866862,-39.726545 2.47359,-2.518643 3.04157,-4.572903 3.04157,-6.87703 L 112,4 z"
       id="path34"
       sodipodi:nodetypes="cccssccc"
       inkscape:connector-curvature="0" />
    <path
       style="fill:url(#linearGradient4524-4);fill-opacity:1"
       d="M 15.506762,7 C 15.162322,7 15,7.2377304 15,7.5066333 L 15,119.48009 c 0,0.83248 0.688512,1.5205 1.520292,1.51991 l 44.959416,-0.0317 c 0.05379,-4e-5 0.821348,0.0237 1.520292,0.0317 1.801712,-0.0406 3.174343,-0.76374 4.414963,-1.61442 C 68.481059,119.09069 97.540465,90.697457 106.78496,81.385896 108.1658,79.995068 109,77.38535 109,76.425341 L 109,7.5066332 C 109,7.179635 108.83457,7 108.49323,7 z"
       id="path3967"
       inkscape:connector-curvature="0"
       sodipodi:nodetypes="ccsssccscccc" />
    <path
       sodipodi:nodetypes="ccssscccccc"
       inkscape:connector-curvature="0"
       id="path5980"
       d="M 15.506762,7 C 15.162322,7 15,7.2377304 15,7.5066333 L 15,119.48009 c 0,0.83249 0.688527,1.51486 1.520292,1.51991 l 46.845657,0.2846 c 0.05379,3.3e-4 3.318172,-0.008 4.017117,5e-5 6.629458,-4.5634 31.077115,-31.337425 40.143354,-40.458653 0.66623,-0.74707 0.46379,-0.37498 1.47358,-1.628786 L 109,7.5066332 C 109,7.179635 108.83457,7 108.49323,7 z"
       style="opacity:0.84653476;fill:url(#radialGradient5988-0);fill-opacity:1" />
    <g
       transform="matrix(1.4174364,0,0,1.4174364,-249.8362,-68.2807)"
       id="g4278"
       clip-path="url(#clipPath3696)">
      <path
         style="opacity:0.67782425;fill:#0c1508;fill-opacity:0.17030568;filter:url(#filter4274)"
         d="m 207.21875,102.25 c -1.28809,0 -2.3125,0.46961 -2.3125,1.0625 l 0,0.15625 0,14.96875 -14.3125,0 c -0.93926,0 -1.78934,0.25858 -2.15625,0.65625 0,0.001 -0.1875,0.4375 -0.1875,0.4375 0,0.0311 0.0251,0.0636 0.0313,0.0937 0.007,0.0335 -0.0138,0.061 0,0.0937 -0.008,0.0173 -0.0313,0.0625 -0.0313,0.0625 0,0.12894 0.0622,0.25714 0.15625,0.375 0.0223,-0.0494 0.0313,-0.0935 0.0313,-0.0937 0.0188,-0.0205 0.0412,-0.0428 0.0625,-0.0625 0.10479,0.0964 0.23955,0.20178 0.40625,0.28125 l 30.65625,14.625 c 0.4374,0.20909 1.05611,0.34375 1.6875,0.34375 0.63199,0 1.2495,-0.13466 1.6875,-0.34375 l 30.65625,-14.625 c 0.16277,-0.0778 0.30313,-0.18832 0.4062,-0.2812 0.0198,0.0185 0.0448,0.0434 0.0625,0.0625 0.0211,0.0233 0.0445,0.0701 0.0625,0.0937 0.10372,-0.13666 0.114,-0.29269 0.0937,-0.4375 0.008,-0.0201 -0.006,-0.0422 0,-0.0625 0.009,-0.0314 0.0287,-0.062 0.0313,-0.0937 0.002,-0.0205 9.3e-4,-0.042 0,-0.0625 -0.002,-0.0506 -0.0132,-0.10578 -0.0313,-0.15625 -0.0291,-0.0829 -0.0827,-0.17042 -0.15625,-0.25 -0.0867,-0.0937 -0.20921,-0.17348 -0.34375,-0.25 -0.007,-0.004 -0.0238,0.004 -0.0313,0 -0.14554,-0.08 -0.31289,-0.16185 -0.5,-0.21875 -0.18711,-0.0569 -0.377,-0.0948 -0.59375,-0.125 -0.21671,-0.0302 -0.45314,-0.0625 -0.6875,-0.0625 l -14.3125,0 0,-14.96875 0,-0.15625 c -6e-4,-0.59289 -1.02441,-1.0625 -2.3125,-1.0625 l -28.0625,0 z"
         id="path3374"
         inkscape:connector-curvature="0" />
      <g
         id="g9589"
         transform="matrix(1,0,0,0.9756098,84.8235,110.83537)">
        <path
           inkscape:connector-curvature="0"
           id="path49"
           d="m 122.40803,-58 c -1.28808,0 -2.33578,1.198991 -2.33578,2.672235 0,0 0,35.08429 0,37.575296 -1.9966,0 -14.30936,0 -14.30936,0 -0.93925,0 -1.78271,0.638768 -2.14962,1.626902 -6.1e-4,0.0028 -0.18677,1.045336 -0.18677,1.045336 0,0.695277 0.23195,1.354033 0.65369,1.853611 l 30.66289,36.408 C 135.18048,23.70094 135.7944,24 136.42579,24 c 0.63199,0 1.24471,-0.29906 1.68271,-0.81862 l 30.6635,-36.408 c 0.65127,-0.773829 0.83503,-1.910121 0.46753,-2.898947 -0.36872,-0.989507 -1.21218,-1.62621 -2.15024,-1.62621 0,0 -12.31275,0 -14.30935,0 0,-2.491698 0,-37.575299 0,-37.575299 C 152.77933,-56.801009 151.73164,-58 150.44355,-58 l -28.03552,0 z"
           style="fill:url(#linearGradient5388)" />
        <g
           transform="matrix(0.6024737,0,0,0.6890756,103.4265,-58)"
           id="g51">
          <linearGradient
             gradientTransform="translate(-484,-674)"
             y2="678.3681"
             x2="538.77338"
             y1="674"
             x1="538.77338"
             gradientUnits="userSpaceOnUse"
             id="linearGradient9265">
            <stop
               id="stop9267"
               style="stop-color:#094422"
               offset="0" />
            <stop
               id="stop9269"
               style="stop-color:#9ED676"
               offset="1" />
          </linearGradient>
          <path
             inkscape:connector-curvature="0"
             id="path58"
             d="m 31.506,0.486 46.534,0 c 2.14,0 3.878,1.739 3.878,3.877 0,-0.312 0,-0.485 0,-0.485 C 81.917,1.74 80.178,0 78.04,0 L 31.506,0 c -2.138,0 -3.877,1.74 -3.877,3.878 0,0 0,0.173 0,0.485 0,-2.138 1.739,-3.877 3.877,-3.877 z"
             style="fill:url(#linearGradient5390)" />
          <linearGradient
             gradientTransform="translate(-484,-674)"
             y2="736.55688"
             x2="579.72852"
             y1="732.41022"
             x1="579.72852"
             gradientUnits="userSpaceOnUse"
             id="linearGradient9272">
            <stop
               id="stop9274"
               style="stop-color:#094422"
               offset="0" />
            <stop
               id="stop9276"
               style="stop-color:#9ED676"
               offset="1" />
          </linearGradient>
          <path
             inkscape:connector-curvature="0"
             id="path65"
             d="m 81.917,58.894 c 3.313,0 23.751,0 23.751,0 1.559,0 2.957,0.926 3.568,2.361 0.179,0.42 0.27,0.856 0.295,1.296 0.041,-0.597 -0.051,-1.207 -0.295,-1.781 -0.611,-1.435 -2.012,-2.359 -3.568,-2.359 0,0 -20.438,0 -23.751,0 0,0.205 0,0.368 0,0.483 z"
             style="fill:url(#linearGradient5392)" />
          <linearGradient
             gradientTransform="translate(-484,-674)"
             y2="736.62341"
             x2="497.81451"
             y1="732.4082"
             x1="497.81451"
             gradientUnits="userSpaceOnUse"
             id="linearGradient9279">
            <stop
               id="stop9281"
               style="stop-color:#094422"
               offset="0" />
            <stop
               id="stop9283"
               style="stop-color:#9ED676"
               offset="1" />
          </linearGradient>
          <path
             inkscape:connector-curvature="0"
             id="path72"
             d="m 0.309,61.256 c 0.609,-1.435 2.01,-2.362 3.568,-2.362 0,0 20.437,0 23.751,0 0,-0.115 0,-0.278 0,-0.486 -3.314,0 -23.751,0 -23.751,0 -1.559,0 -2.959,0.927 -3.568,2.361 0,0.004 -0.309,1.517 -0.309,1.517 0,0.112 0.022,0.221 0.032,0.33 0.077,-0.377 0.277,-1.358 0.277,-1.36 z"
             style="fill:url(#linearGradient5394)" />
        </g>
        <path
           inkscape:connector-curvature="0"
           id="path74"
           d="m 152.77933,-15.331057 c 1.99601,0 14.30936,0 14.30936,0 0.93925,0 1.78152,0.638086 2.14963,1.626902 0.0211,0.05788 0.0356,0.11853 0.0536,0.177093 0.18858,-0.617406 0.17954,-1.303726 -0.0536,-1.9301 -0.36811,-0.988815 -1.21218,-1.626902 -2.14963,-1.626902 0,0 -12.31335,0 -14.30936,0 0,0.8827 0,1.494606 0,1.753007 z"
           enable-background="new    "
           style="opacity:0.5;fill:#ffffff" />
        <path
           inkscape:connector-curvature="0"
           id="path76"
           d="m 103.61266,-13.703464 c 0.36691,-0.990198 1.21098,-1.627593 2.14963,-1.627593 0,0 12.31275,0 14.30935,0 0,-0.258401 0,-0.870307 0,-1.753007 -1.9966,0 -14.30935,0 -14.30935,0 -0.93925,0 -1.78272,0.638768 -2.14963,1.627594 0,0.0021 -0.18616,1.044644 -0.18616,1.044644 0,0.32041 0.0542,0.628427 0.14821,0.921285 0.0223,-0.122648 0.038,-0.212231 0.038,-0.212923 z"
           enable-background="new    "
           style="opacity:0.5;fill:#ffffff" />
        <path
           inkscape:connector-curvature="0"
           id="path78"
           d="m 167.08869,-17.084064 c 0,0 -11.96151,0 -14.89375,0 -0.32293,0 -0.585,-0.299059 -0.585,-0.668405 l 0,0.668405 c 0,0.19638 0,0.88753 0,1.084602 1.07421,0 15.47694,0 15.47694,0 0.51452,0 0.99529,-0.491312 1.42486,-0.214987 -0.32052,-0.530588 -0.84166,-0.869615 -1.42305,-0.869615 z"
           style="fill:#ffffff" />
        <path
           inkscape:connector-curvature="0"
           id="path80"
           d="m 120.65604,-17.084064 c -2.93223,0 -14.89375,0 -14.89375,0 -0.58139,0 -1.10192,0.338336 -1.42485,0.870296 0.42896,-0.275624 0.91034,0.214997 1.42485,0.214997 0,0 14.40334,0 15.47755,0 0,-0.197082 0,-0.888221 0,-1.084601 l 0,-0.668405 c 6e-4,0.368654 -0.26087,0.667713 -0.5838,0.667713 z"
           style="fill:#ffffff" />
        <path
           inkscape:connector-curvature="0"
           id="path119"
           d="m 122.40803,-56.663883 c -0.64464,0 -1.16759,0.598118 -1.16759,1.336118 0,0 0,36.414207 0,38.912106 -2.02009,0 -15.47755,0 -15.47755,0 -0.46812,0 -0.89166,0.320421 -1.07481,0.813106 -0.0627,0.168136 -0.0934,0.34592 -0.0934,0.523694 0,0.337655 0.11326,0.674608 0.32654,0.927497 l 30.6629,36.408002 c 0.2205,0.26254 0.52415,0.41069 0.84105,0.41069 0.3169,0 0.62115,-0.14815 0.84105,-0.41069 l 30.66351,-36.408002 c 0.32473,-0.38726 0.4151,-0.957815 0.23376,-1.449819 -0.18436,-0.492684 -0.60669,-0.813105 -1.07482,-0.813105 0,0 -13.45806,0 -15.47695,0 0,-2.4979 0,-38.91279 0,-38.91279 0,-0.738 -0.52355,-1.336117 -1.16759,-1.336117 l -28.03612,-6.9e-4 0,0 z"
           style="fill:url(#radialGradient5396)" />
        <path
           inkscape:connector-curvature="0"
           sodipodi:nodetypes="cccccccc"
           id="polygon134"
           d="m 150.59252,-14.872146 -0.0898,-40.844546 -28.06253,0 0,40.749133 -16.29853,0.10663 30.28411,36.188689 30.28351,-36.30854 z"
           style="fill:url(#linearGradient5398)" />
        <path
           inkscape:connector-curvature="0"
           id="path143"
           d="m 124.77873,-53.319684 c 0,5.920263 0,38.352125 0,38.352125 0,1.944861 -0.87133,2.397008 -2.33854,2.397008 0,0 -6.09532,0 -10.40653,0 5.68196,7.8164674 21.62713,28.855401 24.39276,32.660141 2.76562,-3.80474 18.45061,-24.8436736 24.13204,-32.660141 -4.31177,0 -10.05574,0 -10.05574,0 -1.46776,0 -2.33855,-0.452147 -2.33855,-2.397008 0,0 0,-32.431862 0,-38.352125 -3.76916,0 -19.61737,0 -23.38544,0 z"
           style="fill:url(#radialGradient5400)"
           sodipodi:nodetypes="cccccccccc" />
        <path
           inkscape:connector-curvature="0"
           id="path150"
           d="m 122.40803,-56.541895 c -0.60247,0 -1.10854,0.371413 -1.42424,0.902689 0.42776,-0.281143 0.89648,0.182605 1.42424,0.182605 l 28.03552,0 c 0.52776,0 0.99589,-0.463748 1.42425,-0.182605 -0.3157,-0.531276 -0.82179,-0.905798 -1.42425,-0.902689 l -28.03552,0 z"
           style="fill:url(#linearGradient5402)"
           sodipodi:nodetypes="ccsscscc" />
        <path
           inkscape:connector-curvature="0"
           id="path152"
           d="m 137.26745,21.62407 c -0.21991,0.23911 -0.52476,0.3721 -0.84166,0.3721 -0.3169,0 -0.62115,-0.13299 -0.84165,-0.3721 l -5.75302,-6.199616 5.75302,6.830806 c 0.2205,0.26185 0.52415,0.41 0.84105,0.41 0.3169,0 0.62115,-0.14815 0.84105,-0.41 l 5.75182,-6.829423 -5.75061,6.198233 z"
           style="fill:#ffffff" />
      </g>
    </g>
    <path
       style="fill:#000000"
       d=""
       id="path2197" />
    <path
       clip-path="url(#clipPath6093-7)"
       style="opacity:0.34728035;fill:#000000;fill-opacity:1;stroke:none;filter:url(#filter6171-8)"
       d="m 114.4,82.502986 c 0,4.465301 -6.19771,3.506816 -8.67994,5.190489 -5.10854,3.46508 -20.174689,2.225237 -25.955859,2.306257 -0.081,5.781159 0.786541,16.143798 0.786541,22.293818 0,2.97817 -3.440475,11.20945 -6.350745,11.20945 -2.091359,1.5337 3.488204,8.21101 6.734971,5.31989 9.501888,-8.46107 35.131682,-30.022704 43.350822,-39.262889 2.04044,-2.29392 -4.90514,-9.844666 -9.88579,-7.057015 z"
       id="path6153"
       inkscape:connector-curvature="0"
       sodipodi:nodetypes="cscscssc"
       transform="matrix(1.2713893,0,0,1.3008089,-31.411352,-31.072453)" />
    <path
       sodipodi:nodetypes="cscscssc"
       inkscape:connector-curvature="0"
       id="path6081"
       d="m 113.9,82.502986 c 0,4.465301 -7.96273,11.129672 -10.95287,11.553449 -6.394981,0.906328 -15.824979,-3.47754 -21.606149,-3.39652 -0.081,5.781159 3.918356,18.962455 0.453276,24.070995 -1.68367,2.48224 -3.883991,8.07209 -6.794261,8.07209 -2.091359,1.5337 3.488204,11.21101 6.734971,8.31989 9.501888,-8.46107 45.998943,-30.20138 54.218083,-39.441569 2.04044,-2.29392 -17.0724,-11.965986 -22.05305,-9.178335 z"
       style="opacity:0.49295774;fill:#000000;fill-opacity:1;stroke:none;filter:url(#filter4087)"
       clip-path="url(#clipPath6093-7)"
       transform="matrix(1.323697,0,0,1.3543271,-37.27081,-37.383179)" />
    <path
       style="fill:url(#linearGradient3895-3);fill-opacity:1;stroke:none"
       d="m 111.80692,72.373791 c 0,6.193164 -3.79585,8.890306 -7.16393,11.225476 C 97.711316,88.405175 83.444341,87.387629 75.6,87.5 c -0.109909,8.0182 0.701692,21.4147 -4,28.5 -2.284534,3.44276 -6.727129,8.38457 -10.67601,8.38457 3.145284,0 6.435454,-1.85125 10.290589,-5.66544 12.404537,-12.27278 23.56509,-22.378984 34.835341,-35.086504 2.60379,-2.935824 5.757,-5.051122 5.757,-11.258835 z"
       id="path6011"
       inkscape:connector-curvature="0"
       sodipodi:nodetypes="cscscssc" />
    <path
       style="fill:#ffffff;fill-opacity:1;stroke:none"
       d="m 111.83234,71.941762 c -0.42932,5.407885 -4.39696,7.298568 -6.55729,8.796367 C 100.15305,84.28932 93.349113,84 72,84 c 0,19.65502 0.5,28.4 -3.219913,33.20293 -2.21447,2.85919 -6.648335,6.04727 -10.26176,6.86542 4.951272,0 8.407066,-1.08166 11.641616,-4.28186 0.460141,-0.53889 1.37925,-1.54169 2.101048,-2.68043 C 76.100178,111.32051 76,99.904353 76,88 c 7.844341,-0.112342 21.630842,1.155905 28.5625,-3.65 0.63154,-0.437847 2.56984,-2.009889 3.13546,-2.57551 3.14173,-3.14173 3.82294,-5.144366 4.13438,-9.832728 z M 58.518327,124.06835 c -0.213922,0.0483 -0.425295,0.0575 -0.636038,0.0866 0.213019,-0.0234 0.421235,-0.0465 0.636038,-0.0866 z"
       id="path6122"
       inkscape:connector-curvature="0"
       sodipodi:nodetypes="cscsccccsscccc" />
    <path
       style="fill:none;stroke:url(#radialGradient3919-5);stroke-width:1.85605633;stroke-linecap:butt;stroke-linejoin:miter;stroke-miterlimit:4;stroke-opacity:1;stroke-dasharray:none;filter:url(#filter3909-6)"
       d="M 108.97651,89.508691 79.934895,118.21077"
       id="path3873"
       inkscape:connector-curvature="0"
       sodipodi:nodetypes="cc"
       clip-path="url(#clipPath3889-6)"
       transform="matrix(1.3568778,0,0,1.3869539,-40.163409,-42.054049)" />
  </g>
</svg>
