<?xml version="1.0" encoding="UTF-8" standalone="no"?>
<!-- Created with Inkscape (http://www.inkscape.org/) -->

<svg
   xmlns:dc="http://purl.org/dc/elements/1.1/"
   xmlns:cc="http://creativecommons.org/ns#"
   xmlns:rdf="http://www.w3.org/1999/02/22-rdf-syntax-ns#"
   xmlns:svg="http://www.w3.org/2000/svg"
   xmlns="http://www.w3.org/2000/svg"
   xmlns:xlink="http://www.w3.org/1999/xlink"
   xmlns:sodipodi="http://sodipodi.sourceforge.net/DTD/sodipodi-0.dtd"
   xmlns:inkscape="http://www.inkscape.org/namespaces/inkscape"
   width="128"
   height="128"
   id="svg2606"
   sodipodi:version="0.32"
   inkscape:version="0.48.0 r9654"
   version="1.0"
   sodipodi:docname="application-vnd.ms-excel.svgz"
   inkscape:output_extension="org.inkscape.output.svgz.inkscape"
   inkscape:export-filename="/home/pinheiro/pics/oxygen-icons/scalable/mimetypes/small/32x32/application-vnd.ms-excel.png"
   inkscape:export-xdpi="180"
   inkscape:export-ydpi="180">
  <defs
     id="defs2608">
    <linearGradient
       inkscape:collect="always"
       id="linearGradient4664">
      <stop
         style="stop-color:#c8c8c8;stop-opacity:1;"
         offset="0"
         id="stop4666" />
      <stop
         style="stop-color:#c8c8c8;stop-opacity:0;"
         offset="1"
         id="stop4668" />
    </linearGradient>
    <linearGradient
       inkscape:collect="always"
       id="linearGradient4656">
      <stop
         style="stop-color:#c8c8c8;stop-opacity:1;"
         offset="0"
         id="stop4658" />
      <stop
         style="stop-color:#c8c8c8;stop-opacity:0;"
         offset="1"
         id="stop4660" />
    </linearGradient>
    <linearGradient
       id="linearGradient6131">
      <stop
         id="stop6133"
         offset="0"
         style="stop-color:#fcfcfc;stop-opacity:1" />
      <stop
         style="stop-color:#f8f8f8;stop-opacity:1"
         offset="0.52275378"
         id="stop6135" />
      <stop
         id="stop6141"
         offset="0.77457333"
         style="stop-color:#f0efef;stop-opacity:1;" />
      <stop
         id="stop6139"
         offset="0.90122044"
         style="stop-color:#e3e1e1;stop-opacity:1;" />
      <stop
         id="stop6137"
         offset="1"
         style="stop-color:#cecbcb;stop-opacity:1" />
    </linearGradient>
    <linearGradient
       inkscape:collect="always"
       xlink:href="#linearGradient6131"
       id="linearGradient3893"
       gradientUnits="userSpaceOnUse"
       gradientTransform="matrix(1.0119858,0,0,1.0119858,-0.89554075,-0.9871566)"
       x1="86.73793"
       y1="93.621468"
       x2="95.460213"
       y2="102.34375" />
    <radialGradient
       inkscape:collect="always"
       xlink:href="#linearGradient3913-5"
       id="radialGradient3919-5"
       cx="90.75"
       cy="110.25299"
       fx="90.75"
       fy="110.25299"
       r="18.750002"
       gradientTransform="matrix(1.3067347,0,0,1.3067347,-27.83617,-33.818441)"
       gradientUnits="userSpaceOnUse" />
    <linearGradient
       inkscape:collect="always"
       id="linearGradient3913-5">
      <stop
         style="stop-color:#ffffff;stop-opacity:1;"
         offset="0"
         id="stop3915-4" />
      <stop
         style="stop-color:#ffffff;stop-opacity:0;"
         offset="1"
         id="stop3917-7" />
    </linearGradient>
    <clipPath
       clipPathUnits="userSpaceOnUse"
       id="clipPath3889-6">
      <path
         sodipodi:nodetypes="cscscssc"
         inkscape:connector-curvature="0"
         id="path3891-5"
         d="m 112,82.502986 c 0,4.465301 -2.79749,6.409952 -5.27972,8.093625 -5.10854,3.46508 -14.939114,3.32536 -20.720284,3.40638 -0.081,5.781159 0.16586,15.504599 -3.29922,20.613139 -1.68367,2.48224 -5.29051,5.38687 -8.20078,5.38687 2.31803,0 4.74284,-1.33476 7.58402,-4.08481 9.14197,-8.84873 17.36714,-16.13535 25.673154,-25.297529 C 109.67612,88.503916 112,86.97878 112,82.502986 z"
         style="fill:url(#linearGradient3893);fill-opacity:1;stroke:none" />
    </clipPath>
    <filter
       color-interpolation-filters="sRGB"
       inkscape:collect="always"
       id="filter3909-6">
      <feGaussianBlur
         inkscape:collect="always"
         stdDeviation="0.43040059"
         id="feGaussianBlur3911-9" />
    </filter>
    <linearGradient
       inkscape:collect="always"
       xlink:href="#linearGradient3897-7"
       id="linearGradient3895-3"
       gradientUnits="userSpaceOnUse"
       gradientTransform="matrix(1.3731411,0,0,1.4035776,-41.378546,-43.42319)"
       x1="82.15696"
       y1="90.381706"
       x2="94.220871"
       y2="102.18401" />
    <linearGradient
       id="linearGradient3897-7">
      <stop
         style="stop-color:#fcfcfc;stop-opacity:1"
         offset="0"
         id="stop3899-4" />
      <stop
         id="stop3901-5"
         offset="0.52275378"
         style="stop-color:#f8f8f8;stop-opacity:1" />
      <stop
         style="stop-color:#f0efef;stop-opacity:1;"
         offset="0.72337759"
         id="stop3903-2" />
      <stop
         style="stop-color:#e3e1e1;stop-opacity:1;"
         offset="0.89024991"
         id="stop3905-5" />
      <stop
         style="stop-color:#cecbcb;stop-opacity:1"
         offset="1"
         id="stop3907-4" />
    </linearGradient>
    <clipPath
       clipPathUnits="userSpaceOnUse"
       id="clipPath6093-7">
      <path
         inkscape:connector-curvature="0"
         sodipodi:nodetypes="cccssccc"
         id="path6095-4"
         d="m 17.000001,8 0.782827,110 57.5,0 c 1.675283,0 3.119418,0.18058 4.9,-1.6 C 88.980763,107.60206 99.94047,96.548195 107.19904,89.224043 109.6396,86.761431 110,84.752873 110,82.5 L 110,8 z"
         style="fill:#ffffff;fill-opacity:1" />
    </clipPath>
    <radialGradient
       inkscape:collect="always"
       xlink:href="#linearGradient5982-7"
       id="radialGradient5988-0"
       cx="64"
       cy="64.004021"
       fx="63.793392"
       fy="47.274845"
       r="47.5"
       gradientTransform="matrix(1.7069944,-0.08541345,0.06979496,1.3941371,-50.362376,-20.218185)"
       gradientUnits="userSpaceOnUse" />
    <linearGradient
       inkscape:collect="always"
       id="linearGradient5982-7">
      <stop
         style="stop-color:#ffffff;stop-opacity:1;"
         offset="0"
         id="stop5984-8" />
      <stop
         style="stop-color:#ffffff;stop-opacity:0;"
         offset="1"
         id="stop5986-6" />
    </linearGradient>
    <filter
       color-interpolation-filters="sRGB"
       inkscape:collect="always"
       id="filter6171-8"
       x="-0.47870937"
       width="1.9574188"
       y="-0.51275069"
       height="2.0255013">
      <feGaussianBlur
         inkscape:collect="always"
         stdDeviation="10.140743"
         id="feGaussianBlur6173-8" />
    </filter>
    <linearGradient
       inkscape:collect="always"
       xlink:href="#linearGradient4518-3"
       id="linearGradient4524-4"
       x1="72"
       y1="0"
       x2="72"
       y2="116.40091"
       gradientUnits="userSpaceOnUse"
       gradientTransform="matrix(1.013528,0,0,1.013266,-1.5133685,-1.3073648)" />
    <linearGradient
       id="linearGradient4518-3">
      <stop
         style="stop-color:#eeecec;stop-opacity:1"
         offset="0"
         id="stop4520-1" />
      <stop
         id="stop5969-4"
         offset="0.40000001"
         style="stop-color:#f4f4f4;stop-opacity:1" />
      <stop
         style="stop-color:#f6f5f5;stop-opacity:1"
         offset="1"
         id="stop4522-9" />
    </linearGradient>
    <filter
       inkscape:collect="always"
       id="filter4123">
      <feGaussianBlur
         inkscape:collect="always"
         stdDeviation="2.028"
         id="feGaussianBlur4125" />
    </filter>
    <filter
       inkscape:collect="always"
       id="filter4087"
       x="-0.16465071"
       width="1.3293014"
       y="-0.2041295"
       height="1.408259">
      <feGaussianBlur
         inkscape:collect="always"
         stdDeviation="4.2234282"
         id="feGaussianBlur4089" />
    </filter>
    <filter
       inkscape:collect="always"
       id="filter4084">
      <feGaussianBlur
         inkscape:collect="always"
         stdDeviation="1.4598961"
         id="feGaussianBlur4086" />
    </filter>
    <linearGradient
       id="XMLID_67_-5"
       gradientUnits="userSpaceOnUse"
       x1="153"
       y1="79.556602"
       x2="153"
       y2="76.444199"
       gradientTransform="translate(-143,-64)">
      <stop
         offset="0"
         style="stop-color:#FFFFFF"
         id="stop284-5" />
      <stop
         offset="1"
         style="stop-color:#DDDDDD"
         id="stop286-4" />
    </linearGradient>
    <linearGradient
       id="XMLID_68_-7"
       gradientUnits="userSpaceOnUse"
       x1="154.1006"
       y1="79.100601"
       x2="151.9005"
       y2="76.900497"
       gradientTransform="translate(-143,-64)">
      <stop
         offset="0"
         style="stop-color:#eaeaea;stop-opacity:1;"
         id="stop291-6" />
      <stop
         offset="1"
         style="stop-color:#616161"
         id="stop293-56" />
    </linearGradient>
    <linearGradient
       inkscape:collect="always"
       xlink:href="#XMLID_67_-5"
       id="linearGradient3324"
       gradientUnits="userSpaceOnUse"
       gradientTransform="translate(-143,-64)"
       x1="153"
       y1="79.556602"
       x2="153"
       y2="76.444199" />
    <linearGradient
       inkscape:collect="always"
       xlink:href="#XMLID_68_-7"
       id="linearGradient3326"
       gradientUnits="userSpaceOnUse"
       gradientTransform="translate(-143,-64)"
       x1="154.1006"
       y1="79.100601"
       x2="151.9005"
       y2="76.900497" />
    <linearGradient
       inkscape:collect="always"
       xlink:href="#XMLID_67_-5"
       id="linearGradient3328"
       gradientUnits="userSpaceOnUse"
       gradientTransform="translate(-143,-64)"
       x1="153"
       y1="79.556602"
       x2="153"
       y2="76.444199" />
    <linearGradient
       inkscape:collect="always"
       xlink:href="#XMLID_68_-7"
       id="linearGradient3330"
       gradientUnits="userSpaceOnUse"
       gradientTransform="translate(-143,-64)"
       x1="154.1006"
       y1="79.100601"
       x2="151.9005"
       y2="76.900497" />
    <linearGradient
       inkscape:collect="always"
       xlink:href="#XMLID_67_-5"
       id="linearGradient3400"
       gradientUnits="userSpaceOnUse"
       gradientTransform="translate(-143,-64)"
       x1="153"
       y1="79.556602"
       x2="153"
       y2="76.444199" />
    <linearGradient
       inkscape:collect="always"
       xlink:href="#XMLID_68_-7"
       id="linearGradient3402"
       gradientUnits="userSpaceOnUse"
       gradientTransform="translate(-143,-64)"
       x1="154.1006"
       y1="79.100601"
       x2="151.9005"
       y2="76.900497" />
    <linearGradient
       inkscape:collect="always"
       xlink:href="#XMLID_67_-5"
       id="linearGradient3404"
       gradientUnits="userSpaceOnUse"
       gradientTransform="translate(-143,-64)"
       x1="153"
       y1="79.556602"
       x2="153"
       y2="76.444199" />
    <linearGradient
       inkscape:collect="always"
       xlink:href="#XMLID_68_-7"
       id="linearGradient3406"
       gradientUnits="userSpaceOnUse"
       gradientTransform="translate(-143,-64)"
       x1="154.1006"
       y1="79.100601"
       x2="151.9005"
       y2="76.900497" />
    <linearGradient
       inkscape:collect="always"
       xlink:href="#XMLID_67_-5"
       id="linearGradient3408"
       gradientUnits="userSpaceOnUse"
       gradientTransform="translate(-143,-64)"
       x1="153"
       y1="79.556602"
       x2="153"
       y2="76.444199" />
    <linearGradient
       inkscape:collect="always"
       xlink:href="#XMLID_68_-7"
       id="linearGradient3411"
       gradientUnits="userSpaceOnUse"
       gradientTransform="translate(-143,-64)"
       x1="154.1006"
       y1="79.100601"
       x2="151.9005"
       y2="76.900497" />
    <linearGradient
       inkscape:collect="always"
       xlink:href="#XMLID_67_-5"
       id="linearGradient3413"
       gradientUnits="userSpaceOnUse"
       gradientTransform="translate(-143,-64)"
       x1="153"
       y1="79.556602"
       x2="153"
       y2="76.444199" />
    <linearGradient
       inkscape:collect="always"
       xlink:href="#XMLID_68_-7"
       id="linearGradient3415"
       gradientUnits="userSpaceOnUse"
       gradientTransform="translate(-143,-64)"
       x1="154.1006"
       y1="79.100601"
       x2="151.9005"
       y2="76.900497" />
    <linearGradient
       inkscape:collect="always"
       xlink:href="#XMLID_67_-5"
       id="linearGradient3418"
       gradientUnits="userSpaceOnUse"
       gradientTransform="translate(-143,-64)"
       x1="153"
       y1="79.556602"
       x2="153"
       y2="76.444199" />
    <linearGradient
       inkscape:collect="always"
       xlink:href="#XMLID_68_-7"
       id="linearGradient3420"
       gradientUnits="userSpaceOnUse"
       gradientTransform="translate(-143,-64)"
       x1="154.1006"
       y1="79.100601"
       x2="151.9005"
       y2="76.900497" />
    <linearGradient
       inkscape:collect="always"
       xlink:href="#XMLID_67_-5"
       id="linearGradient3422"
       gradientUnits="userSpaceOnUse"
       gradientTransform="translate(-143,-64)"
       x1="153"
       y1="79.556602"
       x2="153"
       y2="76.444199" />
    <linearGradient
       inkscape:collect="always"
       xlink:href="#XMLID_68_-7"
       id="linearGradient3425"
       gradientUnits="userSpaceOnUse"
       gradientTransform="translate(-143,-64)"
       x1="154.1006"
       y1="79.100601"
       x2="151.9005"
       y2="76.900497" />
    <filter
       color-interpolation-filters="sRGB"
       id="filter4460"
       inkscape:label="filter4">
      <feBlend
         blend="normal"
         id="feBlend4462"
         in2="SourceGraphic"
         mode="multiply" />
    </filter>
    <linearGradient
       id="XMLID_39_"
       gradientUnits="userSpaceOnUse"
       x1="60.125"
       y1="12"
       x2="60.125"
       y2="20">
      <stop
         offset="0"
         style="stop-color:#7db1ff;stop-opacity:1;"
         id="stop62" />
      <stop
         offset="1"
         style="stop-color:#BFD9FF"
         id="stop64" />
    </linearGradient>
    <linearGradient
       id="XMLID_40_"
       gradientUnits="userSpaceOnUse"
       x1="68.209"
       y1="12"
       x2="68.209"
       y2="20">
      <stop
         offset="0"
         style="stop-color:#E0E0E0"
         id="stop69" />
      <stop
         offset="1"
         style="stop-color:#D4D4D4"
         id="stop71" />
    </linearGradient>
    <linearGradient
       id="XMLID_41_"
       gradientUnits="userSpaceOnUse"
       x1="28"
       y1="68.208"
       x2="16"
       y2="68.208">
      <stop
         offset="0"
         style="stop-color:#E0E0E0"
         id="stop76" />
      <stop
         offset="1"
         style="stop-color:#D4D4D4"
         id="stop78" />
    </linearGradient>
    <linearGradient
       id="XMLID_42_"
       gradientUnits="userSpaceOnUse"
       x1="28"
       y1="24.4585"
       x2="16"
       y2="24.4585">
      <stop
         offset="0"
         style="stop-color:#80b3ff;stop-opacity:1;"
         id="stop83" />
      <stop
         offset="1"
         style="stop-color:#BFD9FF"
         id="stop85" />
    </linearGradient>
    <linearGradient
       inkscape:collect="always"
       xlink:href="#XMLID_40_"
       id="linearGradient4538"
       x1="28"
       y1="70"
       x2="48"
       y2="70"
       gradientUnits="userSpaceOnUse" />
    <linearGradient
       inkscape:collect="always"
       xlink:href="#XMLID_40_"
       id="linearGradient4654"
       gradientUnits="userSpaceOnUse"
       gradientTransform="translate(0,4)"
       x1="28"
       y1="70"
       x2="48"
       y2="70" />
    <linearGradient
       inkscape:collect="always"
       xlink:href="#linearGradient4656"
       id="linearGradient4662"
       x1="48"
       y1="112"
       x2="48"
       y2="124"
       gradientUnits="userSpaceOnUse" />
    <linearGradient
       inkscape:collect="always"
       xlink:href="#linearGradient4664"
       id="linearGradient4670"
       x1="28"
       y1="112"
       x2="28"
       y2="124"
       gradientUnits="userSpaceOnUse" />
    <linearGradient
       inkscape:collect="always"
       xlink:href="#XMLID_11_"
       id="linearGradient3674"
       gradientUnits="userSpaceOnUse"
       gradientTransform="matrix(0.1439835,0,0,0.19197773,8.7501919,21.994036)"
       x1="244.81837"
       y1="114.62769"
       x2="201.32726"
       y2="-106.94308" />
    <linearGradient
       id="XMLID_11_"
       gradientUnits="userSpaceOnUse"
       x1="188.668"
       y1="50"
       x2="141.0177"
       y2="2.3497"
       gradientTransform="matrix(-3.4726201,0,0,-3.472625,1191.8584,127.95525)">
      <stop
         offset="0"
         style="stop-color:#77B753"
         id="stop22" />
      <stop
         offset="0.5"
         style="stop-color:#37A42C"
         id="stop24" />
      <stop
         offset="1"
         style="stop-color:#00593F"
         id="stop26" />
    </linearGradient>
    <linearGradient
       y2="-106.94308"
       x2="201.32726"
       y1="114.62769"
       x1="244.81837"
       gradientTransform="matrix(0.1439835,0,0,0.19197773,6.7486601,19.992469)"
       gradientUnits="userSpaceOnUse"
       id="linearGradient3282"
       xlink:href="#XMLID_11_"
       inkscape:collect="always" />
  </defs>
  <sodipodi:namedview
     id="base"
     pagecolor="#ffffff"
     bordercolor="#666666"
     borderopacity="1.0"
     inkscape:pageopacity="0.0"
     inkscape:pageshadow="2"
     inkscape:zoom="4"
     inkscape:cx="137.21648"
     inkscape:cy="64.90868"
     inkscape:document-units="px"
     inkscape:current-layer="layer1"
     width="128px"
     height="128px"
     showgrid="true"
     inkscape:grid-points="true"
     showguides="true"
     inkscape:guide-bbox="true"
     inkscape:window-width="1224"
     inkscape:window-height="757"
     inkscape:window-x="318"
     inkscape:window-y="355"
     inkscape:snap-global="true"
     inkscape:window-maximized="0"
     inkscape:snap-page="true">
    <inkscape:grid
       id="GridFromPre046Settings"
       type="xygrid"
       originx="0px"
       originy="0px"
       spacingx="4px"
       spacingy="4px"
       color="#0000ff"
       empcolor="#0000ff"
       opacity="0.2"
       empopacity="0.4"
       empspacing="2"
       visible="true"
       enabled="true"
       snapvisiblegridlinesonly="true" />
    <sodipodi:guide
       orientation="1,0"
       position="-68,29.325902"
       id="guide4564" />
    <sodipodi:guide
       orientation="1,0"
       position="-121.62237,135.0574"
       id="guide3859" />
    <sodipodi:guide
       orientation="0,1"
       position="38.581514,-74.688154"
       id="guide4360" />
  </sodipodi:namedview>
  <metadata
     id="metadata2611">
    <rdf:RDF>
      <cc:Work
         rdf:about="">
        <dc:format>image/svg+xml</dc:format>
        <dc:type
           rdf:resource="http://purl.org/dc/dcmitype/StillImage" />
        <dc:title></dc:title>
      </cc:Work>
    </rdf:RDF>
  </metadata>
  <g
     inkscape:label="Livello 1"
     inkscape:groupmode="layer"
     id="layer1">
    <path
       style="opacity:0.45606695;fill:#000000;fill-opacity:1;filter:url(#filter4123)"
       d="m 13.333,5.3364 0,118.3304 49.8545,-0.0668 c 2.115554,-0.003 4.528919,-1.77169 7,-4.25 0.71234,-0.71442 1.440746,-1.39395 2.15625,-2.09375 0.415612,-0.40649 0.832187,-0.81443 1.25,-1.21875 7.773958,-7.40962 26.98341,-25.122599 34.21875,-33.099999 0.42065,-0.42064 0.81207,-0.8111 1.15625,-1.1875 1.46444,-1.49766 2.76158,-2.8378 2.99375,-5.8625 L 112,75.156251 111.9972,5.3364 z"
       id="path5990"
       inkscape:connector-curvature="0"
       sodipodi:nodetypes="ccsssccccccc"
       transform="matrix(1.013528,0,0,1.013266,-1.5133689,-1.3073677)" />
    <path
       sodipodi:type="inkscape:offset"
       inkscape:radius="-0.31466308"
       inkscape:original="M 13.1875 4.53125 C 12.818918 4.609246 12.529956 4.967008 12.53125 5.34375 L 12.53125 123.65625 C 12.53885 124.07954 12.920464 124.4611 13.34375 124.46875 L 62.15625 124.46875 C 63.930251 124.46875 65.829207 124.74865 68.6875 122.8125 C 68.829003 122.58432 71.218784 120.82456 70.53125 121.25 C 80.188854 112.07585 98.162197 92.41186 109.34375 81.09375 C 111.06182 79.375681 112.8125 77.674752 112.8125 73.3125 L 112.8125 5.34375 C 112.80483 4.9204809 112.42327 4.5388981 112 4.53125 L 13.34375 4.53125 C 13.29182 4.52633 13.239428 4.52633 13.1875 4.53125 z "
       style="fill:#000000;fill-opacity:1;filter:url(#filter4084)"
       id="path3314"
       d="m 13.21875,4.84375 c -0.201143,0.05725 -0.375711,0.2931131 -0.375,0.5 l 0,118.3125 c 0.0043,0.23765 0.262302,0.4957 0.5,0.5 l 48.8125,0 c 1.807099,0 3.550693,0.29821 6.34375,-1.59375 0.03611,-0.0371 0.07724,-0.0824 0.125,-0.125 0.08359,-0.0745 0.19399,-0.18448 0.3125,-0.28125 0.23702,-0.19354 0.516618,-0.41733 0.78125,-0.625 0.206542,-0.16208 0.368737,-0.26884 0.5,-0.375 a 0.31469455,0.31469455 0 0 1 0.03125,-0.0625 c 0.0046,-0.004 0.02682,0.004 0.03125,0 a 0.31469455,0.31469455 0 0 1 0.03125,-0.0625 c 0.0044,-0.004 0.02685,0.004 0.03125,0 9.639369,-9.15919 27.595222,-28.83361 38.78125,-40.15625 1.72022,-1.720217 3.375,-3.284436 3.375,-7.5625 l 0,-67.96875 c -0.004,-0.2376834 -0.26234,-0.4957056 -0.5,-0.5 l -98.65625,0 a 0.31469455,0.31469455 0 0 1 -0.03125,0 c -0.02143,-0.00203 -0.04093,-6.768e-4 -0.0625,0 -0.01078,3.384e-4 -0.02054,-0.00102 -0.03125,0 z"
       transform="matrix(1.013528,0,0,1.013266,-1.5133689,-1.3073677)" />
    <path
       style="fill:#ffffff;fill-opacity:1"
       d="m 12,4 0,120 49.999784,0 c 1.697965,0 3.967298,-0.57754 7.094784,-3.68191 8.990151,-8.92376 32.510002,-32.235741 39.866862,-39.726545 2.47359,-2.518643 3.04157,-4.572903 3.04157,-6.87703 L 112,4 z"
       id="path34"
       sodipodi:nodetypes="cccssccc"
       inkscape:connector-curvature="0" />
    <path
       style="fill:url(#linearGradient4524-4);fill-opacity:1"
       d="M 15.506762,7 C 15.162322,7 15,7.2377304 15,7.5066333 L 15,119.48009 c 0,0.83248 0.688512,1.5205 1.520292,1.51991 l 44.959416,-0.0317 c 0.05379,-4e-5 0.821348,0.0237 1.520292,0.0317 1.801712,-0.0406 3.174343,-0.76374 4.414963,-1.61442 C 68.481059,119.09069 97.540465,90.697457 106.78496,81.385896 108.1658,79.995068 109,77.38535 109,76.425341 L 109,7.5066332 C 109,7.179635 108.83457,7 108.49323,7 z"
       id="path3967"
       inkscape:connector-curvature="0"
       sodipodi:nodetypes="ccsssccscccc" />
    <path
       sodipodi:nodetypes="ccssscccccc"
       inkscape:connector-curvature="0"
       id="path5980"
       d="M 15.506762,7 C 15.162322,7 15,7.2377304 15,7.5066333 L 15,119.48009 c 0,0.83249 0.688527,1.51486 1.520292,1.51991 l 46.845657,0.2846 c 0.05379,3.3e-4 3.318172,-0.008 4.017117,5e-5 6.629458,-4.5634 31.077115,-31.337425 40.143354,-40.458653 0.66623,-0.74707 0.46379,-0.37498 1.47358,-1.628786 L 109,7.5066332 C 109,7.179635 108.83457,7 108.49323,7 z"
       style="opacity:0.84653476;fill:url(#radialGradient5988-0);fill-opacity:1" />
    <path
       sodipodi:nodetypes="ssccsss"
       inkscape:connector-curvature="0"
       id="rect6654"
       d="m 12.954716,4.6 c -0.242376,0 -0.44779,0.2231912 -0.4375,0.5 l 0,26.899999 99.100004,0 0,-26.899999 c 0,-0.277 -0.19512,-0.5 -0.4375,-0.5 z"
       style="opacity:0.8;fill:url(#linearGradient3282);fill-opacity:1;stroke:none" />
    <g
       id="g6610"
       style="opacity:0.8;fill:#ffffff;fill-opacity:1"
       transform="matrix(0,0.05759339,0.05759332,0,34.668128,-11.959564)">
      <path
         sodipodi:nodetypes="sssscccccccsssccccssccccssc"
         inkscape:connector-curvature="0"
         id="path5997"
         d="m 652.0421,162.03045 c 22.92513,0 41.77997,-18.82781 41.77997,-41.78002 l 0,-263.70245 c 0,-22.95221 -18.85484,-41.78001 -41.77997,-41.78001 l -166.57729,0 0,69.45249 138.90484,0 0,208.357496 -208.35726,0 0,-138.904994 -69.45242,0 0,166.577468 c 0,22.95136 18.8522,41.78002 41.77997,41.78002 z m -236.02971,-277.80999 0,-14.65013 c 0.026,-0.54225 0.026,-1.08555 0,-1.6278 l 0,-18.44832 0,-5.42597 c 0,-15.77515 -13.52095,-29.30027 -29.30024,-29.30027 l -22.78907,0 -17.36311,0 0,14.65013 c -0.0712,0.90254 -0.0712,1.81051 0,2.71299 l 0,22.7891 c 0,15.78567 13.51876,29.30027 29.30024,29.30027 z"
         style="fill:#ffffff;fill-opacity:1" />
    </g>
    <g
       id="g4626"
       transform="translate(0,16)">
      <rect
         y="80"
         x="24"
         height="4"
         width="60"
         id="rect4513"
         style="fill:#c8c8c8;fill-opacity:1;stroke:none" />
      <rect
         transform="scale(1,-1)"
         y="-68"
         x="100"
         height="48"
         width="4"
         id="rect4501"
         style="fill:#b8b8b8;fill-opacity:1;stroke:none" />
      <g
         transform="translate(4,0)"
         id="g4517">
        <rect
           style="fill:#c8c8c8;fill-opacity:1;stroke:none"
           id="rect4503"
           width="44"
           height="4"
           x="24"
           y="96" />
      </g>
      <rect
         y="36"
         x="28"
         height="60"
         width="16"
         id="rect4530"
         style="opacity:0.5399061;fill:url(#linearGradient4654);fill-opacity:1;stroke:none" />
      <rect
         y="20"
         x="24.0625"
         height="80"
         width="3.9375"
         id="rect3729"
         style="fill:url(#linearGradient4670);fill-opacity:1;stroke:none" />
      <rect
         style="fill:#b8b8b8;fill-opacity:1;stroke:none"
         id="rect4499"
         width="79.9375"
         height="4"
         x="24.0625"
         y="20" />
      <rect
         y="32"
         x="24.0625"
         height="4"
         width="79.9375"
         id="rect4505"
         style="fill:#b8b8b8;fill-opacity:1;stroke:none" />
      <rect
         style="fill:#b8b8b8;fill-opacity:1;stroke:none"
         id="rect4507"
         width="79.9375"
         height="4"
         x="24.0625"
         y="48" />
      <rect
         y="64"
         x="24"
         height="4"
         width="79.9375"
         id="rect4509"
         style="fill:#c8c8c8;fill-opacity:1;stroke:none" />
      <g
         id="g4520"
         transform="matrix(0.9178618,0,0,1,5.9713168,16)" />
      <rect
         style="fill:url(#linearGradient4662);fill-opacity:1;stroke:none"
         id="rect4524"
         width="3.9375"
         height="80"
         x="44"
         y="20" />
      <rect
         y="20"
         x="72"
         height="76"
         width="3.9375"
         id="rect4526"
         style="fill:#c8c8c8;fill-opacity:1;stroke:none" />
      <rect
         y="24"
         x="76"
         height="8"
         width="24"
         id="rect4540"
         style="fill:#c8d4e6;fill-opacity:1;stroke:none" />
      <rect
         style="fill:#b0d1ff;fill-opacity:1;stroke:none"
         id="rect4542"
         width="24"
         height="8"
         x="48"
         y="24" />
      <rect
         y="36"
         x="28"
         height="12"
         width="16"
         id="rect4544"
         style="fill:#b0d1ff;fill-opacity:1;stroke:none" />
      <rect
         y="20"
         x="44"
         height="32"
         width="4"
         id="rect4546"
         style="fill:#65a1ff;fill-opacity:1;stroke:none" />
      <rect
         style="fill:#65a1ff;fill-opacity:1;stroke:none"
         id="rect4548"
         width="4"
         height="20"
         x="24"
         y="32" />
      <rect
         y="20"
         x="72"
         height="16"
         width="4"
         id="rect4550"
         style="fill:#65a1ff;fill-opacity:1;stroke:none" />
      <rect
         transform="matrix(0,1,-1,0,0,0)"
         style="fill:#65a1ff;fill-opacity:1;stroke:none"
         id="rect4552"
         width="4"
         height="24"
         x="20"
         y="-72" />
      <rect
         y="-72"
         x="32"
         height="44"
         width="4"
         id="rect4554"
         style="fill:#65a1ff;fill-opacity:1;stroke:none"
         transform="matrix(0,1,-1,0,0,0)" />
      <rect
         transform="matrix(0,1,-1,0,0,0)"
         style="fill:#65a1ff;fill-opacity:1;stroke:none"
         id="rect4556"
         width="4"
         height="16"
         x="48"
         y="-44" />
      <rect
         y="36"
         x="72"
         height="16"
         width="4"
         id="rect4558"
         style="fill:#000000;fill-opacity:0.45142858;stroke:none" />
      <rect
         style="fill:#000000;fill-opacity:0.45142858;stroke:none"
         id="rect4560"
         width="28"
         height="4"
         x="48"
         y="48" />
      <rect
         y="48"
         x="72"
         height="8"
         width="8"
         id="rect4562"
         style="fill:#555555;fill-opacity:1;stroke:none" />
    </g>
    <path
       style="fill:#000000"
       d=""
       id="path2197" />
    <path
       clip-path="url(#clipPath6093-7)"
       style="opacity:0.34728035;fill:#000000;fill-opacity:1;stroke:none;filter:url(#filter6171-8)"
       d="m 114.4,82.502986 c 0,4.465301 -6.19771,3.506816 -8.67994,5.190489 -5.10854,3.46508 -20.174689,2.225237 -25.955859,2.306257 -0.081,5.781159 0.786541,16.143798 0.786541,22.293818 0,2.97817 -3.440475,11.20945 -6.350745,11.20945 -2.091359,1.5337 3.488204,8.21101 6.734971,5.31989 9.501888,-8.46107 35.131682,-30.022704 43.350822,-39.262889 2.04044,-2.29392 -4.90514,-9.844666 -9.88579,-7.057015 z"
       id="path6153"
       inkscape:connector-curvature="0"
       sodipodi:nodetypes="cscscssc"
       transform="matrix(1.2713893,0,0,1.3008089,-31.411352,-31.072453)" />
    <path
       sodipodi:nodetypes="cscscssc"
       inkscape:connector-curvature="0"
       id="path6081"
       d="m 113.9,82.502986 c 0,4.465301 -7.96273,11.129672 -10.95287,11.553449 -6.394981,0.906328 -15.824979,-3.47754 -21.606149,-3.39652 -0.081,5.781159 3.918356,18.962455 0.453276,24.070995 -1.68367,2.48224 -3.883991,8.07209 -6.794261,8.07209 -2.091359,1.5337 3.488204,11.21101 6.734971,8.31989 9.501888,-8.46107 45.998943,-30.20138 54.218083,-39.441569 2.04044,-2.29392 -17.0724,-11.965986 -22.05305,-9.178335 z"
       style="opacity:0.49295774;fill:#000000;fill-opacity:1;stroke:none;filter:url(#filter4087)"
       clip-path="url(#clipPath6093-7)"
       transform="matrix(1.323697,0,0,1.3543271,-37.27081,-37.383179)" />
    <path
       style="fill:url(#linearGradient3895-3);fill-opacity:1;stroke:none"
       d="m 111.80692,72.373791 c 0,6.193164 -3.79585,8.890306 -7.16393,11.225476 C 97.711316,88.405175 83.444341,87.387629 75.6,87.5 c -0.109909,8.0182 0.701692,21.4147 -4,28.5 -2.284534,3.44276 -6.727129,8.38457 -10.67601,8.38457 3.145284,0 6.435454,-1.85125 10.290589,-5.66544 12.404537,-12.27278 23.56509,-22.378984 34.835341,-35.086504 2.60379,-2.935824 5.757,-5.051122 5.757,-11.258835 z"
       id="path6011"
       inkscape:connector-curvature="0"
       sodipodi:nodetypes="cscscssc" />
    <path
       style="fill:#ffffff;fill-opacity:1;stroke:none"
       d="m 111.83234,71.941762 c -0.42932,5.407885 -4.39696,7.298568 -6.55729,8.796367 C 100.15305,84.28932 93.349113,84 72,84 c 0,19.65502 0.5,28.4 -3.219913,33.20293 -2.21447,2.85919 -6.648335,6.04727 -10.26176,6.86542 4.951272,0 8.407066,-1.08166 11.641616,-4.28186 0.460141,-0.53889 1.37925,-1.54169 2.101048,-2.68043 C 76.100178,111.32051 76,99.904353 76,88 c 7.844341,-0.112342 21.630842,1.155905 28.5625,-3.65 0.63154,-0.437847 2.56984,-2.009889 3.13546,-2.57551 3.14173,-3.14173 3.82294,-5.144366 4.13438,-9.832728 z M 58.518327,124.06835 c -0.213922,0.0483 -0.425295,0.0575 -0.636038,0.0866 0.213019,-0.0234 0.421235,-0.0465 0.636038,-0.0866 z"
       id="path6122"
       inkscape:connector-curvature="0"
       sodipodi:nodetypes="cscsccccsscccc" />
    <path
       style="fill:none;stroke:url(#radialGradient3919-5);stroke-width:1.85605633;stroke-linecap:butt;stroke-linejoin:miter;stroke-miterlimit:4;stroke-opacity:1;stroke-dasharray:none;filter:url(#filter3909-6)"
       d="M 108.97651,89.508691 79.934895,118.21077"
       id="path3873"
       inkscape:connector-curvature="0"
       sodipodi:nodetypes="cc"
       clip-path="url(#clipPath3889-6)"
       transform="matrix(1.3568778,0,0,1.3869539,-40.163409,-42.054049)" />
    <g
       id="g7065"
       transform="matrix(1.6332228,0,0,1.6332228,-16.104505,-6.6414215)">
      <circle
         transform="matrix(0.87121524,0,0,0.87121524,12.358158,0.48176727)"
         d="m 12,14 c 0,1.104569 -0.895431,2 -2,2 -1.1045695,0 -2,-0.895431 -2,-2 0,-1.104569 0.8954305,-2 2,-2 1.104569,0 2,0.895431 2,2 z"
         sodipodi:ry="2"
         sodipodi:rx="2"
         sodipodi:cy="14"
         sodipodi:cx="10"
         style="fill:url(#linearGradient3324);stroke-width:0.1;stroke-miterlimit:4;stroke-dasharray:none"
         cx="10"
         cy="14"
         r="2"
         id="circle7067" />
      <circle
         transform="matrix(1.0007524,0,0,1.0007524,11.062783,-1.3317548)"
         d="m 11.556,14 c 0,0.859355 -0.696645,1.556 -1.556,1.556 -0.8593551,0 -1.556,-0.696645 -1.556,-1.556 0,-0.859355 0.6966449,-1.556 1.556,-1.556 0.859355,0 1.556,0.696645 1.556,1.556 z"
         sodipodi:ry="1.556"
         sodipodi:rx="1.556"
         sodipodi:cy="14"
         sodipodi:cx="10"
         style="fill:url(#linearGradient3326);stroke-width:0.1;stroke-miterlimit:4;stroke-dasharray:none"
         cx="10"
         cy="14"
         r="1.556"
         id="circle7069" />
    </g>
    <g
       transform="matrix(1.9147851,0,0,1.9147856,-22.037116,-10.442805)"
       id="g3862">
      <circle
         id="circle3864"
         r="2"
         cy="14"
         cx="10"
         style="fill:url(#linearGradient3328);stroke-width:0.1;stroke-miterlimit:4;stroke-dasharray:none"
         sodipodi:cx="10"
         sodipodi:cy="14"
         sodipodi:rx="2"
         sodipodi:ry="2"
         d="m 12,14 c 0,1.104569 -0.895431,2 -2,2 -1.1045695,0 -2,-0.895431 -2,-2 0,-1.104569 0.8954305,-2 2,-2 1.104569,0 2,0.895431 2,2 z"
         transform="matrix(0.87121524,0,0,0.87121524,12.358158,0.48176727)" />
      <circle
         id="circle3866"
         r="1.556"
         cy="14"
         cx="10"
         style="fill:url(#linearGradient3330);stroke-width:0.1;stroke-miterlimit:4;stroke-dasharray:none"
         sodipodi:cx="10"
         sodipodi:cy="14"
         sodipodi:rx="1.556"
         sodipodi:ry="1.556"
         d="m 11.556,14 c 0,0.859355 -0.696645,1.556 -1.556,1.556 -0.8593551,0 -1.556,-0.696645 -1.556,-1.556 0,-0.859355 0.6966449,-1.556 1.556,-1.556 0.859355,0 1.556,0.696645 1.556,1.556 z"
         transform="matrix(1.0007524,0,0,1.0007524,11.062783,-1.3317548)" />
    </g>
    <g
       id="g3914"
       transform="matrix(1.9147851,0,0,1.9147856,-22.137116,5.8390966)">
      <circle
         transform="matrix(0.87121524,0,0,0.87121524,12.358158,0.48176727)"
         d="m 12,14 c 0,1.104569 -0.895431,2 -2,2 -1.1045695,0 -2,-0.895431 -2,-2 0,-1.104569 0.8954305,-2 2,-2 1.104569,0 2,0.895431 2,2 z"
         sodipodi:ry="2"
         sodipodi:rx="2"
         sodipodi:cy="14"
         sodipodi:cx="10"
         style="fill:url(#linearGradient3400);stroke-width:0.1;stroke-miterlimit:4;stroke-dasharray:none"
         cx="10"
         cy="14"
         r="2"
         id="circle3916" />
      <circle
         transform="matrix(1.0007524,0,0,1.0007524,11.062783,-1.3317548)"
         d="m 11.556,14 c 0,0.859355 -0.696645,1.556 -1.556,1.556 -0.8593551,0 -1.556,-0.696645 -1.556,-1.556 0,-0.859355 0.6966449,-1.556 1.556,-1.556 0.859355,0 1.556,0.696645 1.556,1.556 z"
         sodipodi:ry="1.556"
         sodipodi:rx="1.556"
         sodipodi:cy="14"
         sodipodi:cx="10"
         style="fill:url(#linearGradient3402);stroke-width:0.1;stroke-miterlimit:4;stroke-dasharray:none"
         cx="10"
         cy="14"
         r="1.556"
         id="circle3918" />
    </g>
    <g
       transform="matrix(1.9147851,0,0,1.9147856,-22.137116,22.221)"
       id="g3924">
      <circle
         id="circle3926"
         r="2"
         cy="14"
         cx="10"
         style="fill:url(#linearGradient3404);stroke-width:0.1;stroke-miterlimit:4;stroke-dasharray:none"
         sodipodi:cx="10"
         sodipodi:cy="14"
         sodipodi:rx="2"
         sodipodi:ry="2"
         d="m 12,14 c 0,1.104569 -0.895431,2 -2,2 -1.1045695,0 -2,-0.895431 -2,-2 0,-1.104569 0.8954305,-2 2,-2 1.104569,0 2,0.895431 2,2 z"
         transform="matrix(0.87121524,0,0,0.87121524,12.358158,0.48176727)" />
      <circle
         id="circle3928"
         r="1.556"
         cy="14"
         cx="10"
         style="fill:url(#linearGradient3406);stroke-width:0.1;stroke-miterlimit:4;stroke-dasharray:none"
         sodipodi:cx="10"
         sodipodi:cy="14"
         sodipodi:rx="1.556"
         sodipodi:ry="1.556"
         d="m 11.556,14 c 0,0.859355 -0.696645,1.556 -1.556,1.556 -0.8593551,0 -1.556,-0.696645 -1.556,-1.556 0,-0.859355 0.6966449,-1.556 1.556,-1.556 0.859355,0 1.556,0.696645 1.556,1.556 z"
         transform="matrix(1.0007524,0,0,1.0007524,11.062783,-1.3317548)" />
    </g>
    <g
       id="g3942"
       transform="matrix(1.9147851,0,0,1.9147856,-22.237116,37.902903)">
      <circle
         transform="matrix(0.87121524,0,0,0.87121524,12.358158,0.48176727)"
         d="m 12,14 c 0,1.104569 -0.895431,2 -2,2 -1.1045695,0 -2,-0.895431 -2,-2 0,-1.104569 0.8954305,-2 2,-2 1.104569,0 2,0.895431 2,2 z"
         sodipodi:ry="2"
         sodipodi:rx="2"
         sodipodi:cy="14"
         sodipodi:cx="10"
         style="fill:url(#linearGradient3408);stroke-width:0.1;stroke-miterlimit:4;stroke-dasharray:none"
         cx="10"
         cy="14"
         r="2"
         id="circle3944" />
      <circle
         transform="matrix(1.0007524,0,0,1.0007524,11.062783,-1.3317548)"
         d="m 11.556,14 c 0,0.859355 -0.696645,1.556 -1.556,1.556 -0.8593551,0 -1.556,-0.696645 -1.556,-1.556 0,-0.859355 0.6966449,-1.556 1.556,-1.556 0.859355,0 1.556,0.696645 1.556,1.556 z"
         sodipodi:ry="1.556"
         sodipodi:rx="1.556"
         sodipodi:cy="14"
         sodipodi:cx="10"
         style="fill:url(#linearGradient3411);stroke-width:0.1;stroke-miterlimit:4;stroke-dasharray:none"
         cx="10"
         cy="14"
         r="1.556"
         id="circle3946" />
    </g>
    <g
       transform="matrix(1.9147851,0,0,1.9147856,-22.337116,54.184806)"
       id="g3952">
      <circle
         id="circle3954"
         r="2"
         cy="14"
         cx="10"
         style="fill:url(#linearGradient3413);stroke-width:0.1;stroke-miterlimit:4;stroke-dasharray:none"
         sodipodi:cx="10"
         sodipodi:cy="14"
         sodipodi:rx="2"
         sodipodi:ry="2"
         d="m 12,14 c 0,1.104569 -0.895431,2 -2,2 -1.1045695,0 -2,-0.895431 -2,-2 0,-1.104569 0.8954305,-2 2,-2 1.104569,0 2,0.895431 2,2 z"
         transform="matrix(0.87121524,0,0,0.87121524,12.358158,0.48176727)" />
      <circle
         id="circle3956"
         r="1.556"
         cy="14"
         cx="10"
         style="fill:url(#linearGradient3415);stroke-width:0.1;stroke-miterlimit:4;stroke-dasharray:none"
         sodipodi:cx="10"
         sodipodi:cy="14"
         sodipodi:rx="1.556"
         sodipodi:ry="1.556"
         d="m 11.556,14 c 0,0.859355 -0.696645,1.556 -1.556,1.556 -0.8593551,0 -1.556,-0.696645 -1.556,-1.556 0,-0.859355 0.6966449,-1.556 1.556,-1.556 0.859355,0 1.556,0.696645 1.556,1.556 z"
         transform="matrix(1.0007524,0,0,1.0007524,11.062783,-1.3317548)" />
    </g>
    <g
       id="g3962"
       transform="matrix(1.9147851,0,0,1.9147856,-22.037116,69.966708)">
      <circle
         transform="matrix(0.87121524,0,0,0.87121524,12.358158,0.48176727)"
         d="m 12,14 c 0,1.104569 -0.895431,2 -2,2 -1.1045695,0 -2,-0.895431 -2,-2 0,-1.104569 0.8954305,-2 2,-2 1.104569,0 2,0.895431 2,2 z"
         sodipodi:ry="2"
         sodipodi:rx="2"
         sodipodi:cy="14"
         sodipodi:cx="10"
         style="fill:url(#linearGradient3418);stroke-width:0.1;stroke-miterlimit:4;stroke-dasharray:none"
         cx="10"
         cy="14"
         r="2"
         id="circle3964" />
      <circle
         transform="matrix(1.0007524,0,0,1.0007524,11.062783,-1.3317548)"
         d="m 11.556,14 c 0,0.859355 -0.696645,1.556 -1.556,1.556 -0.8593551,0 -1.556,-0.696645 -1.556,-1.556 0,-0.859355 0.6966449,-1.556 1.556,-1.556 0.859355,0 1.556,0.696645 1.556,1.556 z"
         sodipodi:ry="1.556"
         sodipodi:rx="1.556"
         sodipodi:cy="14"
         sodipodi:cx="10"
         style="fill:url(#linearGradient3420);stroke-width:0.1;stroke-miterlimit:4;stroke-dasharray:none"
         cx="10"
         cy="14"
         r="1.556"
         id="circle3966" />
    </g>
    <g
       transform="matrix(1.9147851,0,0,1.9147856,-22.137116,86.148612)"
       id="g3972">
      <circle
         id="circle3974"
         r="2"
         cy="14"
         cx="10"
         style="fill:url(#linearGradient3422);stroke-width:0.1;stroke-miterlimit:4;stroke-dasharray:none"
         sodipodi:cx="10"
         sodipodi:cy="14"
         sodipodi:rx="2"
         sodipodi:ry="2"
         d="m 12,14 c 0,1.104569 -0.895431,2 -2,2 -1.1045695,0 -2,-0.895431 -2,-2 0,-1.104569 0.8954305,-2 2,-2 1.104569,0 2,0.895431 2,2 z"
         transform="matrix(0.87121524,0,0,0.87121524,12.358158,0.48176727)" />
      <circle
         id="circle3976"
         r="1.556"
         cy="14"
         cx="10"
         style="fill:url(#linearGradient3425);stroke-width:0.1;stroke-miterlimit:4;stroke-dasharray:none"
         sodipodi:cx="10"
         sodipodi:cy="14"
         sodipodi:rx="1.556"
         sodipodi:ry="1.556"
         d="m 11.556,14 c 0,0.859355 -0.696645,1.556 -1.556,1.556 -0.8593551,0 -1.556,-0.696645 -1.556,-1.556 0,-0.859355 0.6966449,-1.556 1.556,-1.556 0.859355,0 1.556,0.696645 1.556,1.556 z"
         transform="matrix(1.0007524,0,0,1.0007524,11.062783,-1.3317548)" />
    </g>
    <rect
       id="rect4373"
       height="95.5"
       width="1"
       y="16.5"
       x="72"
       style="opacity:0.53974897;fill:#a7a7a7;fill-opacity:1;filter:url(#filter4460)"
       transform="matrix(2,0,0,2,-322.02594,-80.083641)" />
    <rect
       id="rect4375"
       height="91.521004"
       width="1"
       y="16.5"
       x="88"
       style="opacity:0.53974897;fill:#a7a7a7;fill-opacity:1;filter:url(#filter4460)"
       transform="matrix(2,0,0,2,-322.02594,-80.083641)" />
    <path
       inkscape:connector-curvature="0"
       sodipodi:nodetypes="ccccccccccc"
       id="path4379"
       d="M 83.834,112 29,112 l 0,-95 74,0 0,77 1,0 0,-78 -76,0 0,97 55.834,0 z"
       style="opacity:0.53974897;fill:#a7a7a7;fill-opacity:1;filter:url(#filter4460)"
       transform="matrix(2,0,0,2,-322.02594,-80.083641)" />
  </g>
</svg>
