<?xml version="1.0" encoding="UTF-8" standalone="no"?>
<!-- Generator: Adobe Illustrator 12.0.0, SVG Export Plug-In . SVG Version: 6.00 Build 51448)  -->
<svg
   xmlns:ns="http://ns.adobe.com/SaveForWeb/1.0/"
   xmlns:dc="http://purl.org/dc/elements/1.1/"
   xmlns:cc="http://creativecommons.org/ns#"
   xmlns:rdf="http://www.w3.org/1999/02/22-rdf-syntax-ns#"
   xmlns:svg="http://www.w3.org/2000/svg"
   xmlns="http://www.w3.org/2000/svg"
   xmlns:xlink="http://www.w3.org/1999/xlink"
   xmlns:sodipodi="http://sodipodi.sourceforge.net/DTD/sodipodi-0.dtd"
   xmlns:inkscape="http://www.inkscape.org/namespaces/inkscape"
   version="1.1"
   id="Layer_1"
   width="128"
   height="128"
   viewBox="0 0 128 128"
   overflow="visible"
   enable-background="new 0 0 128 128"
   xml:space="preserve"
   sodipodi:version="0.32"
   inkscape:version="0.46"
   sodipodi:docname="archive-insert.svgz"
   sodipodi:docbase="/Users/david/Desktop/sandbox"
   inkscape:output_extension="org.inkscape.output.svgz.inkscape"
   inkscape:export-filename="/home/pinheiro/pics/oxygen/scalable/actions/small/32x32/archive-insert.png"
   inkscape:export-xdpi="90"
   inkscape:export-ydpi="90"><defs
   id="defs105"><linearGradient
     y2="95.293"
     x2="87.293"
     y1="103"
     x1="95"
     gradientUnits="userSpaceOnUse"
     id="linearGradient4175">
	<stop
   id="stop4177"
   style="stop-color:#000000;stop-opacity:1"
   offset="0" />
	<stop
   id="stop4179"
   style="stop-color:#393B38"
   offset="1" />
</linearGradient><linearGradient
     id="linearGradient3225"><stop
       style="stop-color:#ffffff;stop-opacity:1;"
       offset="0"
       id="stop3227" /><stop
       style="stop-color:#aeaeae;stop-opacity:1;"
       offset="1"
       id="stop3229" /></linearGradient><linearGradient
     inkscape:collect="always"
     xlink:href="#XMLID_9_"
     id="linearGradient2291"
     gradientUnits="userSpaceOnUse"
     x1="88.591797"
     y1="96.592697"
     x2="71.262016"
     y2="79.262917" /><linearGradient
     inkscape:collect="always"
     xlink:href="#linearGradient4175"
     id="linearGradient2295"
     gradientUnits="userSpaceOnUse"
     x1="85.219681"
     y1="93.219681"
     x2="61.336319"
     y2="69.336319" /><linearGradient
     inkscape:collect="always"
     xlink:href="#XMLID_12_"
     id="linearGradient2297"
     gradientUnits="userSpaceOnUse"
     x1="96"
     y1="104"
     x2="88.0002"
     y2="96.0002" /><radialGradient
     inkscape:collect="always"
     xlink:href="#XMLID_8_"
     id="radialGradient2272"
     gradientUnits="userSpaceOnUse"
     gradientTransform="matrix(0.9787234,0,0,0.9818182,1.3617045,1.1636364)"
     cx="102"
     cy="112.3047"
     r="139.55859" /><radialGradient
     inkscape:collect="always"
     xlink:href="#XMLID_7_"
     id="radialGradient2275"
     gradientUnits="userSpaceOnUse"
     gradientTransform="translate(2.4e-6,0)"
     cx="102"
     cy="112.3047"
     r="139.5585" /><filter
     inkscape:collect="always"
     id="filter3241"><feGaussianBlur
       inkscape:collect="always"
       stdDeviation="1.0394514"
       id="feGaussianBlur3243" /></filter><filter
     inkscape:collect="always"
     id="filter3772"><feGaussianBlur
       inkscape:collect="always"
       stdDeviation="0.50063244"
       id="feGaussianBlur3774" /></filter><filter
     inkscape:collect="always"
     id="filter4107"><feGaussianBlur
       inkscape:collect="always"
       stdDeviation="0.40750996"
       id="feGaussianBlur4109" /></filter><filter
     inkscape:collect="always"
     id="filter4171"><feGaussianBlur
       inkscape:collect="always"
       stdDeviation="0.4901192"
       id="feGaussianBlur4173" /></filter><filter
     inkscape:collect="always"
     id="filter4209"><feGaussianBlur
       inkscape:collect="always"
       stdDeviation="0.90565481"
       id="feGaussianBlur4211" /></filter><linearGradient
     id="linearGradient3272"
     inkscape:collect="always"><stop
       id="stop3274"
       offset="0"
       style="stop-color:white;stop-opacity:1;" /><stop
       id="stop3276"
       offset="1"
       style="stop-color:white;stop-opacity:0;" /></linearGradient><linearGradient
     inkscape:collect="always"
     id="linearGradient3030"><stop
       style="stop-color:#000000;stop-opacity:0.77902622"
       offset="0"
       id="stop3032" /><stop
       style="stop-color:#000000;stop-opacity:0;"
       offset="1"
       id="stop3034" /></linearGradient><linearGradient
     inkscape:collect="always"
     id="linearGradient3260"><stop
       style="stop-color:#ffffff;stop-opacity:1;"
       offset="0"
       id="stop3262" /><stop
       style="stop-color:#ffffff;stop-opacity:0;"
       offset="1"
       id="stop3264" /></linearGradient><radialGradient
     id="XMLID_4_"
     cx="48"
     cy="-0.2148"
     r="55.148"
     gradientTransform="matrix(0.9792,0,0,0.9725,133.0002,20.8762)"
     gradientUnits="userSpaceOnUse"><stop
       offset="0"
       style="stop-color:#72D13D"
       id="stop3082" /><stop
       offset="0.3553"
       style="stop-color:#35AC1C"
       id="stop3084" /><stop
       offset="0.6194"
       style="stop-color:#0F9508"
       id="stop3086" /><stop
       offset="0.7574"
       style="stop-color:#008C00"
       id="stop3088" /><stop
       offset="1"
       style="stop-color:#007A00"
       id="stop3090" /></radialGradient><filter
     inkscape:collect="always"
     x="-0.10207015"
     width="1.2041403"
     y="-0.12495601"
     height="1.249912"
     id="filter3387"><feGaussianBlur
       inkscape:collect="always"
       stdDeviation="0.44655691"
       id="feGaussianBlur3389" /></filter><linearGradient
     y2="0"
     x2="28"
     y1="57.5"
     x1="28"
     gradientUnits="userSpaceOnUse"
     id="linearGradient5412"><stop
       id="stop5414"
       style="stop-color:#fff14d;stop-opacity:1;"
       offset="0" /><stop
       id="stop5416"
       style="stop-color:#f8ffa0;stop-opacity:0;"
       offset="1" /></linearGradient><filter
     inkscape:collect="always"
     id="filter3191"><feGaussianBlur
       inkscape:collect="always"
       stdDeviation="0.2025"
       id="feGaussianBlur3193" /></filter><filter
     id="filter2787"
     height="2.5382431"
     y="-0.76912157"
     width="1.1025495"
     x="-0.051274771"
     inkscape:collect="always"><feGaussianBlur
       id="feGaussianBlur2789"
       stdDeviation="2.5637386"
       inkscape:collect="always" /></filter><linearGradient
     gradientTransform="translate(-6.999995,16)"
     gradientUnits="userSpaceOnUse"
     id="XMLID_6_"
     y2="0.00048828119"
     x2="72.000504"
     y1="96"
     x1="72.000504"><stop
       offset="0"
       style="stop-color:#00479e;stop-opacity:1"
       id="stop7" /><stop
       offset="0.0769"
       style="stop-color:#2c72c7;stop-opacity:1"
       id="stop9" /><stop
       offset="0.58579999"
       style="stop-color:#6ea1df;stop-opacity:1"
       id="stop11" /><stop
       offset="0.96450001"
       style="stop-color:#adcbee;stop-opacity:1"
       id="stop13" /></linearGradient><linearGradient
     id="linearGradient2822"><stop
       offset="0"
       style="stop-color:#ffffff;stop-opacity:1"
       id="stop2824" /><stop
       offset="1"
       style="stop-color:#ffffff;stop-opacity:0"
       id="stop2826" /></linearGradient><linearGradient
     gradientTransform="translate(242.00093,332.5)"
     gradientUnits="userSpaceOnUse"
     id="linearGradient2927"
     y2="-304.61469"
     x2="-178"
     y1="-228.3945"
     x1="-178"><stop
       offset="0"
       style="stop-color:#cfe7ff;stop-opacity:1"
       id="stop2929" /><stop
       offset="0.1"
       style="stop-color:#71a8f5;stop-opacity:1"
       id="stop2931" /><stop
       offset="1"
       style="stop-color:#2c72c7;stop-opacity:1"
       id="stop2933" /></linearGradient><linearGradient
     gradientTransform="matrix(1.0033808,0,0,1,-8.2378002,8)"
     gradientUnits="userSpaceOnUse"
     id="linearGradient2937"
     y2="20.043535"
     x2="122.39215"
     y1="96.721588"
     x1="122.74438"><stop
       offset="0"
       style="stop-color:#72b4f4;stop-opacity:1"
       id="stop2939" /><stop
       offset="0.13053299"
       style="stop-color:#b3d9ff;stop-opacity:1"
       id="stop2941" /><stop
       offset="0.34621301"
       style="stop-color:#b3d9ff;stop-opacity:1"
       id="stop2943" /><stop
       offset="0.72006166"
       style="stop-color:#71a8f5;stop-opacity:1"
       id="stop2945" /><stop
       offset="1"
       style="stop-color:#508ed9;stop-opacity:1"
       id="stop2947" /></linearGradient><linearGradient
     id="linearGradient4770"
     gradientUnits="userSpaceOnUse"
     x1="-84.002403"
     y1="-383.9971"
     x2="-12.0029"
     y2="-383.9971"
     gradientTransform="matrix(0,1,-1,0,-39.9985,140.0029)"><stop
       offset="0"
       style="stop-color:#e5ff00;stop-opacity:1"
       id="stop4772" /><stop
       offset="1"
       style="stop-color:#bff500;stop-opacity:0;"
       id="stop4774" /></linearGradient><linearGradient
     inkscape:collect="always"
     xlink:href="#linearGradient2822"
     id="linearGradient4938"
     gradientUnits="userSpaceOnUse"
     gradientTransform="translate(438.00973,292.5)"
     x1="-168.99216"
     y1="-300.5"
     x2="-168.99216"
     y2="-296.48441" /><linearGradient
     inkscape:collect="always"
     xlink:href="#linearGradient2927"
     id="linearGradient4942"
     gradientUnits="userSpaceOnUse"
     gradientTransform="translate(438.00973,292.5)"
     x1="-178"
     y1="-228.5"
     x2="-178"
     y2="-304.61469" /><linearGradient
     inkscape:collect="always"
     xlink:href="#XMLID_9_"
     id="linearGradient4945"
     gradientUnits="userSpaceOnUse"
     x1="94.3438"
     y1="102.3447"
     x2="86.5356"
     y2="94.5366"
     gradientTransform="translate(196.0088,-48)" /><linearGradient
     inkscape:collect="always"
     xlink:href="#linearGradient2937"
     id="linearGradient4948"
     gradientUnits="userSpaceOnUse"
     gradientTransform="matrix(1.0033808,0,0,1,187.771,-32)"
     x1="122.74438"
     y1="96"
     x2="122.74438"
     y2="20" /><linearGradient
     inkscape:collect="always"
     xlink:href="#XMLID_6_"
     id="linearGradient4953"
     gradientUnits="userSpaceOnUse"
     gradientTransform="translate(189.0088,-32)"
     x1="72.000504"
     y1="96"
     x2="72.000504"
     y2="0.00048828119" /><linearGradient
     inkscape:collect="always"
     xlink:href="#XMLID_4_"
     id="linearGradient4955"
     gradientUnits="userSpaceOnUse"
     gradientTransform="translate(148,19.999992)"
     x1="-13.757333"
     y1="76.708466"
     x2="-62.424866"
     y2="104.80668" /><linearGradient
     inkscape:collect="always"
     xlink:href="#linearGradient3260"
     id="linearGradient4957"
     gradientUnits="userSpaceOnUse"
     spreadMethod="reflect"
     x1="73.742638"
     y1="15.336544"
     x2="80"
     y2="19.281664" /><linearGradient
     inkscape:collect="always"
     xlink:href="#linearGradient3260"
     id="linearGradient4959"
     gradientUnits="userSpaceOnUse"
     spreadMethod="reflect"
     x1="73.742638"
     y1="15.336544"
     x2="80"
     y2="19.281664" /><radialGradient
     inkscape:collect="always"
     xlink:href="#linearGradient5412"
     id="radialGradient4961"
     gradientUnits="userSpaceOnUse"
     gradientTransform="matrix(1,0,0,0.8708964,0,2.3028957)"
     cx="73.656621"
     cy="17.83758"
     fx="73.656621"
     fy="17.83758"
     r="6.7806501" /><radialGradient
     inkscape:collect="always"
     xlink:href="#linearGradient4770"
     id="radialGradient4963"
     gradientUnits="userSpaceOnUse"
     gradientTransform="matrix(1,0,0,0.9256542,0,1.3235438)"
     cx="73.082359"
     cy="17.802542"
     fx="73.082359"
     fy="17.802542"
     r="6.2063883" /><linearGradient
     inkscape:collect="always"
     xlink:href="#linearGradient3260"
     id="linearGradient4965"
     gradientUnits="userSpaceOnUse"
     spreadMethod="reflect"
     x1="73.742638"
     y1="15.336544"
     x2="80"
     y2="19.281664" /><radialGradient
     inkscape:collect="always"
     xlink:href="#linearGradient3030"
     id="radialGradient4967"
     gradientUnits="userSpaceOnUse"
     gradientTransform="translate(0,-1.3e-5)"
     cx="104"
     cy="104"
     fx="104"
     fy="104"
     r="24" /><linearGradient
     inkscape:collect="always"
     xlink:href="#linearGradient3260"
     id="linearGradient4969"
     gradientUnits="userSpaceOnUse"
     spreadMethod="reflect"
     x1="73.742638"
     y1="15.336544"
     x2="80"
     y2="19.281664" /><radialGradient
     inkscape:collect="always"
     xlink:href="#XMLID_4_"
     id="radialGradient4971"
     gradientUnits="userSpaceOnUse"
     gradientTransform="translate(148,19.999992)"
     cx="-44"
     cy="84"
     fx="-40"
     fy="96"
     r="20" /><linearGradient
     inkscape:collect="always"
     xlink:href="#linearGradient3272"
     id="linearGradient4973"
     gradientUnits="userSpaceOnUse"
     gradientTransform="translate(85.3125,19.999992)"
     x1="11.68106"
     y1="60.539303"
     x2="11.68106"
     y2="108.0104" /><linearGradient
     inkscape:collect="always"
     xlink:href="#linearGradient3260"
     id="linearGradient4975"
     gradientUnits="userSpaceOnUse"
     gradientTransform="translate(85.30236,19.999992)"
     x1="6.6976352"
     y1="52"
     x2="11.68106"
     y2="96.001434" /><linearGradient
     inkscape:collect="always"
     xlink:href="#linearGradient3260"
     id="linearGradient4977"
     gradientUnits="userSpaceOnUse"
     gradientTransform="translate(85.30236,19.999992)"
     x1="26.697636"
     y1="96"
     x2="14.697635"
     y2="72" /><linearGradient
     inkscape:collect="always"
     xlink:href="#linearGradient3225"
     id="linearGradient4979"
     gradientUnits="userSpaceOnUse"
     gradientTransform="translate(3.99999,19.999992)"
     x1="79.75"
     y1="84"
     x2="120.25"
     y2="84" /></defs><sodipodi:namedview
   inkscape:window-height="687"
   inkscape:window-width="1022"
   inkscape:pageshadow="2"
   inkscape:pageopacity="0.0"
   guidetolerance="10.0"
   gridtolerance="10.0"
   objecttolerance="10.0"
   borderopacity="1.0"
   bordercolor="#666666"
   pagecolor="#ffffff"
   id="base"
   inkscape:zoom="3.6093751"
   inkscape:cx="49.144589"
   inkscape:cy="27.357673"
   inkscape:window-x="404"
   inkscape:window-y="248"
   inkscape:current-layer="Layer_1"
   showgrid="true"
   showguides="true"
   inkscape:guide-bbox="true"><inkscape:grid
     id="GridFromPre046Settings"
     type="xygrid"
     originx="0px"
     originy="0px"
     spacingx="4px"
     spacingy="4px"
     color="#0000ff"
     empcolor="#0000ff"
     opacity="0.2"
     empopacity="0.4"
     empspacing="2"
     enabled="true"
     visible="true" /></sodipodi:namedview>
<metadata
   id="metadata3">
	<ns:sfw>
		<ns:slices>
			<ns:slice
   y="0"
   x="0"
   height="128"
   width="128"
   sliceID="1316743234" />
		</ns:slices>
		<ns:sliceSourceBounds
   y="0"
   x="0"
   height="128"
   width="128"
   bottomLeftOrigin="true" />
		<ns:optimizationSettings>
			<ns:targetSettings
   targetSettingsID="0"
   fileFormat="PNG24Format">
				<ns:PNG24Format
   transparency="true"
   filtered="false"
   matteColor="#FFFFFF"
   noMatteColor="false"
   interlaced="false">
					</ns:PNG24Format>
			</ns:targetSettings>
			<ns:targetSettings
   targetSettingsID="1696735251"
   fileFormat="PNG24Format">
				<ns:PNG24Format
   transparency="true"
   filtered="false"
   matteColor="#FFFFFF"
   noMatteColor="false"
   interlaced="false">
					</ns:PNG24Format>
			</ns:targetSettings>
		</ns:optimizationSettings>
	</ns:sfw>
<rdf:RDF><cc:Work
     rdf:about=""><dc:format>image/svg+xml</dc:format><dc:type
       rdf:resource="http://purl.org/dc/dcmitype/StillImage" /></cc:Work></rdf:RDF></metadata>

<radialGradient
   id="XMLID_7_"
   cx="102"
   cy="112.3047"
   r="139.5585"
   gradientUnits="userSpaceOnUse">
	<stop
   offset="0"
   style="stop-color:#00537D"
   id="stop16" />
	<stop
   offset="0.0151"
   style="stop-color:#186389"
   id="stop18" />
	<stop
   offset="0.0558"
   style="stop-color:#558CA8"
   id="stop20" />
	<stop
   offset="0.0964"
   style="stop-color:#89AFC3"
   id="stop22" />
	<stop
   offset="0.1357"
   style="stop-color:#B3CCD8"
   id="stop24" />
	<stop
   offset="0.1737"
   style="stop-color:#D4E2E9"
   id="stop26" />
	<stop
   offset="0.2099"
   style="stop-color:#ECF2F5"
   id="stop28" />
	<stop
   offset="0.2435"
   style="stop-color:#FAFCFD"
   id="stop30" />
	<stop
   offset="0.2722"
   style="stop-color:#FFFFFF"
   id="stop32" />
</radialGradient>

<radialGradient
   id="XMLID_8_"
   cx="102"
   cy="112.3047"
   r="139.55859"
   gradientUnits="userSpaceOnUse">
	<stop
   offset="0"
   style="stop-color:#535557"
   id="stop37" />
	
	<stop
   offset="0.11366145"
   style="stop-color:#898A8C"
   id="stop41" />
	
	
	<stop
   offset="0.20296688"
   style="stop-color:#ECECEC"
   id="stop47" />
	<stop
   offset="0.2363"
   style="stop-color:#FAFAFA"
   id="stop49" />
	<stop
   offset="0.2722"
   style="stop-color:#FFFFFF"
   id="stop51" />
	<stop
   offset="0.5313"
   style="stop-color:#FAFAFA"
   id="stop53" />
	<stop
   offset="0.8449"
   style="stop-color:#EBECEC"
   id="stop55" />
	<stop
   offset="1"
   style="stop-color:#E1E2E3"
   id="stop57" />
</radialGradient>

<linearGradient
   id="XMLID_9_"
   gradientUnits="userSpaceOnUse"
   x1="94.3438"
   y1="102.3447"
   x2="86.5356"
   y2="94.5366">
	<stop
   offset="0"
   style="stop-color:#FFFFFF"
   id="stop62" />
	<stop
   offset="1"
   style="stop-color:#555753"
   id="stop64" />
</linearGradient>

<linearGradient
   id="XMLID_10_"
   gradientUnits="userSpaceOnUse"
   x1="95"
   y1="103"
   x2="86.5865"
   y2="94.5865">
	<stop
   offset="0"
   style="stop-color:#FFFFFF"
   id="stop69" />
	<stop
   offset="1"
   style="stop-color:#555753"
   id="stop71" />
</linearGradient>

<linearGradient
   id="XMLID_11_"
   gradientUnits="userSpaceOnUse"
   x1="95"
   y1="103"
   x2="87.293"
   y2="95.293">
	<stop
   offset="0"
   style="stop-color:#FFFFFF"
   id="stop76" />
	<stop
   offset="1"
   style="stop-color:#393B38"
   id="stop78" />
</linearGradient>

<linearGradient
   id="XMLID_12_"
   gradientUnits="userSpaceOnUse"
   x1="96"
   y1="104"
   x2="88.0002"
   y2="96.0002">
	<stop
   offset="0"
   style="stop-color:#888A85"
   id="stop83" />
	<stop
   offset="0.0072"
   style="stop-color:#8C8E89"
   id="stop85" />
	<stop
   offset="0.0673"
   style="stop-color:#ABACA9"
   id="stop87" />
	<stop
   offset="0.1347"
   style="stop-color:#C5C6C4"
   id="stop89" />
	<stop
   offset="0.2115"
   style="stop-color:#DBDBDA"
   id="stop91" />
	<stop
   offset="0.3012"
   style="stop-color:#EBEBEB"
   id="stop93" />
	<stop
   offset="0.4122"
   style="stop-color:#F7F7F6"
   id="stop95" />
	<stop
   offset="0.5679"
   style="stop-color:#FDFDFD"
   id="stop97" />
	<stop
   offset="1"
   style="stop-color:#FFFFFF"
   id="stop99" />
</linearGradient>
<path
   sodipodi:nodetypes="cccccccc"
   transform="matrix(1.0416667,0,0,1.0357143,-9.9583333,-3.3215342)"
   style="opacity:0.30684932;fill:#000000;fill-opacity:1;filter:url(#filter3241)"
   d="M 23,9 L 23.040816,121 L 84.172,121 C 84.702,121 85.211,120.789 85.586,120.414 L 118.414,87.586 C 118.789,87.211 119,86.702 119,86.172 L 119,9 L 23,9 z"
   id="path4081" /><path
   sodipodi:nodetypes="cccccccc"
   transform="matrix(1.0416667,0,0,1.0357143,-9.9583333,-3.3215342)"
   style="opacity:0.89589041000000003;fill:#000000;fill-opacity:1;filter:url(#filter3772)"
   d="M 24.919999,10.931136 L 24.919999,119.06907 L 83.596,119.06897 C 84.126,119.06897 84.635,118.85797 85.01,118.48297 L 116.494,86.717034 C 116.869,86.342034 117.08,85.833034 117.08,85.303034 L 117.08,10.931136 L 24.919999,10.931136 z"
   id="path3726" /><path
   id="path6594"
   d="M 23,9.9655172 L 23.040816,121 L 84.172,121 C 84.702,121 85.211,120.789 85.586,120.414 L 118.414,87.586 C 118.789,87.211 119,86.702 119,86.172 L 119,9.9655172 L 23,9.9655172 z"
   style="opacity:0.30684932;fill:#000000;fill-opacity:1;filter:url(#filter3241)"
   transform="matrix(1.0416667,0,0,1.0357143,-9.9583333,-3.3215342)"
   sodipodi:nodetypes="cccccccc" /><path
   style="fill:url(#radialGradient2275)"
   d="M 16.000002,8 L 16.000002,120 L 77.172002,120 C 77.702002,120 78.211002,119.789 78.586002,119.414 L 111.414,86.586 C 111.789,86.211 112,85.702 112,85.172 L 112,8 L 16.000002,8 z "
   id="path34"
   sodipodi:nodetypes="cccccccc" /><path
   style="fill:url(#radialGradient2272);fill-opacity:1"
   d="M 19.678725,10.7 C 19.139449,10.7 18.700002,11.140836 18.700002,11.681818 L 18.000002,117.01818 C 18.000002,117.56015 18.439449,118 18.978725,118 L 76.891747,118 C 77.149151,118 77.401662,117.89593 77.583704,117.71233 L 109.71323,85.4812 C 109.89626,85.2976 110,85.045273 110,84.787055 L 110,10.981818 C 110,10.440836 109.56153,10 109.02128,10 L 19.678725,10.7 z"
   id="path59"
   sodipodi:nodetypes="ccccccccccc" /><g
   id="g1973"
   transform="translate(2.4e-6,0)"><path
     style="opacity:0.10000000000000001;fill:url(#linearGradient2291);filter:url(#filter4107)"
     id="path66"
     d="M 111.414,86.586 C 111.664,86.336 85.035,85 80,85 C 78.346,85 77,86.346 77,88 C 77,93.035 78.336,119.664 78.586,119.414 L 111.414,86.586 z"
     sodipodi:nodetypes="csscc" /><path
     style="opacity:0.2;fill:#000000;filter:url(#filter4209);fill-opacity:1"
     id="path73"
     d="M 111.414,86.586 C 111.789,86.211 89.444,86 80,86 C 78.897,86 78,86.897 78,88 C 78,97.444 78.211,119.789 78.586,119.414 L 111.414,86.586 z"
     sodipodi:nodetypes="csscc" /><path
     style="opacity:0.10000000000000001;fill:url(#linearGradient2295);filter:url(#filter4171)"
     id="path80"
     d="M 111.414,86.586 C 111.653,86.347 89.807,87 80,87 C 79.447,87 79,87.447 79,88 C 79,97.807 78.347,119.653 78.586,119.414 L 111.414,86.586 z"
     sodipodi:nodetypes="csscc" /><path
     style="fill:url(#linearGradient2297)"
     id="path101"
     d="M 78.586,119.414 C 78.586,119.414 90.5,109.5 96,104 C 101.5,98.5 111.414,86.586 111.414,86.586 C 111.414,86.586 90.25,88 80,88 C 80,98.25 78.586,119.414 78.586,119.414 z"
     sodipodi:nodetypes="csccc" /></g>

<path
   style="fill:none;fill-rule:evenodd;stroke:#000000;stroke-width:1px;stroke-linecap:butt;stroke-linejoin:miter;stroke-opacity:1"
   d="M 100,32 L 100,32 z"
   id="path3341" /><g
   id="layer4"
   inkscape:label="box"
   style="display:inline"
   transform="translate(621.1213,85.0334)" /><g
   id="layer5"
   inkscape:label="zip_app"
   style="display:inline"
   transform="translate(621.1213,85.0334)" /><g
   inkscape:label="fill text"
   id="g3232"
   transform="translate(730.40237,-118.36164)" /><g
   inkscape:label="fill text"
   id="g4591"
   transform="translate(730.40237,-118.36164)" /><g
   id="g4655"
   transform="translate(-4,-3.999994)"><path
     style="fill:url(#linearGradient4955);fill-opacity:1;stroke:none;stroke-width:8;stroke-linecap:round;stroke-linejoin:round;stroke-miterlimit:4;stroke-dasharray:none;stroke-dashoffset:1.08779998;stroke-opacity:1"
     d="M 102.0625,79.999994 C 98.74497,79.999994 96,82.744974 96,86.062494 L 96,95.999994 L 86.0625,95.999994 C 82.74497,95.999994 80,98.744974 80,102.06249 L 80,105.93749 C 80,109.25502 82.74497,111.99999 86.0625,111.99999 L 96,111.99999 L 96,121.9375 C 96,125.25502 98.74497,128 102.0625,128 L 105.9375,128 C 109.25502,128 112,125.25502 112,121.9375 L 112,111.99999 L 121.9375,111.99999 C 125.25502,111.99999 128,109.25502 128,105.93749 L 128,102.06249 C 128,98.744974 125.25502,95.999994 121.9375,95.999994 L 112,95.999994 L 112,86.062494 C 112,82.744974 109.25502,79.999994 105.9375,79.999994 L 102.0625,79.999994 z"
     id="path3012"
     sodipodi:nodetypes="ccccccccccccccccccccc"
     clip-path="none" /><path
     sodipodi:nodetypes="cccccc"
     transform="matrix(-0.4770371,0,0,0.4770371,134.46434,74.913337)"
     id="path3091"
     d="M 69.875971,12.057888 C 68.798883,12.123171 67.34775,12.277052 66.875971,12.995388 L 68.465655,24.133449 L 79,23.37409 L 79,22.90534 C 80.740958,20.33518 74.219552,11.998548 69.875971,12.057888 z"
     style="fill:url(#linearGradient4957);fill-opacity:1;fill-rule:evenodd;stroke:none;stroke-width:1px;stroke-linecap:butt;stroke-linejoin:miter;stroke-opacity:1;filter:url(#filter3387)"
     clip-path="none" /><path
     style="fill:url(#linearGradient4959);fill-opacity:1;fill-rule:evenodd;stroke:none;stroke-width:1px;stroke-linecap:butt;stroke-linejoin:miter;stroke-opacity:1;filter:url(#filter3387)"
     d="M 69.875971,12.057888 C 68.798883,12.123171 67.34775,12.277052 66.875971,12.995388 L 68.172686,21.789699 L 79,23.37409 L 79,22.90534 C 80.740958,20.33518 74.219552,11.998548 69.875971,12.057888 z"
     id="path3095"
     transform="matrix(0.4705955,0,0,0.4705955,74.322072,75.046467)"
     sodipodi:nodetypes="cccccc"
     clip-path="none" /><g
     id="g3201"
     transform="matrix(1,0,0,-1,148,188.38795)"
     clip-path="none"><path
       sodipodi:nodetypes="cccccc"
       transform="matrix(-0.463084,0,0,0.463084,-14.468792,55.235658)"
       id="path3197"
       d="M 69.875971,12.057888 C 68.798883,12.123171 67.34775,12.277052 66.875971,12.995388 L 69.051593,23.742824 L 80.185572,23.628141 L 80.185572,23.159391 C 81.92653,20.116546 74.219552,10.743294 69.875971,12.057888 z"
       style="opacity:0.64356432;fill:url(#radialGradient4961);fill-opacity:1;fill-rule:evenodd;stroke:none;stroke-width:1px;stroke-linecap:butt;stroke-linejoin:miter;stroke-opacity:1;filter:url(#filter3387)" /><path
       style="opacity:0.64356432;fill:url(#radialGradient4963);fill-opacity:1;fill-rule:evenodd;stroke:none;stroke-width:1px;stroke-linecap:butt;stroke-linejoin:miter;stroke-opacity:1;filter:url(#filter3387)"
       d="M 69.875971,12.057888 C 68.798883,12.123171 67.34775,12.277052 66.875971,12.995388 L 67.782061,23.547512 L 79,23.37409 L 79,22.90534 C 80.740958,20.33518 74.219552,11.998548 69.875971,12.057888 z"
       id="path3199"
       transform="matrix(0.4624565,0,0,0.4624565,-73.133616,55.243224)"
       sodipodi:nodetypes="cccccc" /></g><path
     sodipodi:nodetypes="cccccc"
     transform="matrix(0.4793282,0,0,0.4793282,89.738069,90.470087)"
     id="path3221"
     d="M 69.719108,13.31279 C 68.64202,13.378073 67.34775,12.277052 66.875971,12.995388 L 68.465655,24.133449 L 79,23.37409 L 79,22.90534 C 80.740958,20.33518 74.062689,13.25345 69.719108,13.31279 z"
     style="opacity:0.55056176;fill:url(#linearGradient4965);fill-opacity:1;fill-rule:evenodd;stroke:none;stroke-width:1px;stroke-linecap:butt;stroke-linejoin:miter;stroke-opacity:1;filter:url(#filter3387)"
     clip-path="none" /><path
     sodipodi:nodetypes="ccccccccccccccccccccc"
     id="path3028"
     d="M 102.0625,79.999994 C 98.74497,79.999994 96,82.744974 96,86.062494 L 96,95.999994 L 86.0625,95.999994 C 82.74497,95.999994 80,98.744974 80,102.06249 L 80,105.93749 C 80,109.25502 82.74497,111.99999 86.0625,111.99999 L 96,111.99999 L 96,121.9375 C 96,125.25502 98.74497,128 102.0625,128 L 105.9375,128 C 109.25502,128 112,125.25502 112,121.9375 L 112,111.99999 L 121.9375,111.99999 C 125.25502,111.99999 128,109.25502 128,105.93749 L 128,102.06249 C 128,98.744974 125.25502,95.999994 121.9375,95.999994 L 112,95.999994 L 112,86.062494 C 112,82.744974 109.25502,79.999994 105.9375,79.999994 L 102.0625,79.999994 z"
     style="opacity:0.64356432;fill:url(#radialGradient4967);fill-opacity:1;stroke:none;stroke-width:8;stroke-linecap:round;stroke-linejoin:round;stroke-miterlimit:4;stroke-dasharray:none;stroke-dashoffset:1.08779998;stroke-opacity:1"
     clip-path="none" /><path
     style="opacity:0.55056176;fill:url(#linearGradient4969);fill-opacity:1;fill-rule:evenodd;stroke:none;stroke-width:1px;stroke-linecap:butt;stroke-linejoin:miter;stroke-opacity:1;filter:url(#filter3387)"
     d="M 69.875971,12.057888 C 68.798883,12.123171 67.34775,12.277052 66.875971,12.995388 L 68.465655,24.133449 L 79,23.37409 L 79,22.90534 C 80.740958,20.33518 74.219552,11.998548 69.875971,12.057888 z"
     id="path3217"
     transform="matrix(-0.4540742,0,0,0.4540742,116.57304,91.07955)"
     sodipodi:nodetypes="cccccc"
     clip-path="none" /><path
     style="fill:url(#radialGradient4971);fill-opacity:1;stroke:none;stroke-width:2;stroke-linecap:round;stroke-linejoin:round;stroke-miterlimit:4;stroke-dasharray:none;stroke-dashoffset:1.08779998;stroke-opacity:1"
     d="M 102.0625,83.999994 C 100.92853,83.999994 100,84.928524 100,86.062494 L 100,99.999994 L 86.0625,99.999994 C 84.92853,99.999994 84,100.92852 84,102.06249 L 84,105.93749 C 84,107.07146 84.92853,107.99999 86.0625,107.99999 L 100,107.99999 L 100,121.9375 C 100,123.07147 100.92853,124 102.0625,124 L 105.9375,124 C 107.07147,124 108,123.07147 108,121.9375 L 108,107.99999 L 121.9375,107.99999 C 123.07147,107.99999 124,107.07146 124,105.93749 L 124,102.06249 C 124,100.92852 123.07147,99.999994 121.9375,99.999994 L 108,99.999994 L 108,86.062494 C 108,84.928524 107.07147,83.999994 105.9375,83.999994 L 102.0625,83.999994 z"
     id="rect2407"
     clip-path="none" /><path
     style="fill:url(#linearGradient4973);fill-opacity:1;stroke:none;stroke-width:2;stroke-linecap:round;stroke-linejoin:round;stroke-miterlimit:4;stroke-dasharray:none;stroke-dashoffset:1.08779998;stroke-opacity:1"
     d="M 102.0625,83.999994 C 100.92853,83.999994 100,84.928524 100,86.062494 L 100,99.999994 L 86.0625,99.999994 C 84.92853,99.999994 84,100.92852 84,102.06249 L 84,105.93749 C 84,106.04729 84.04574,106.14471 84.0625,106.24999 C 87.32018,106.71956 90.75384,106.99999 94.3125,106.99999 C 105.81407,106.99999 116.11834,104.37016 122.90625,100.24999 C 122.61701,100.09484 122.2869,99.999994 121.9375,99.999994 L 108,99.999994 L 108,86.062494 C 108,84.928524 107.07147,83.999994 105.9375,83.999994 L 102.0625,83.999994 z"
     id="path3038"
     clip-path="none" /><path
     style="fill:url(#linearGradient4975);fill-opacity:1;stroke:none;stroke-width:2;stroke-linecap:round;stroke-linejoin:round;stroke-miterlimit:4;stroke-dasharray:none;stroke-dashoffset:1.08779998;stroke-opacity:1"
     d="M 102.0625,83.999994 C 100.92853,83.999994 100,84.928524 100,86.062494 L 100,87.062494 C 100,85.928524 101.32853,84.399994 102.4625,84.399994 L 106.3375,84.399994 C 106.62099,84.399994 106.90349,84.451474 107.15,84.556244 C 107.26026,84.805764 107.6375,85.680824 107.6375,85.968744 L 108,99.999994 L 108.03125,86.062494 C 108.03125,85.486864 107.79019,84.968914 107.40625,84.593744 C 107.31848,84.505974 107.22722,84.414724 107.125,84.343744 C 107.11731,84.338534 107.10151,84.348854 107.09375,84.343744 C 106.99167,84.274614 106.89508,84.206474 106.78125,84.156244 C 106.77259,84.152564 106.75872,84.159804 106.75,84.156244 C 106.6354,84.107544 106.49889,84.058614 106.375,84.031244 C 106.36476,84.029134 106.35404,84.033204 106.34375,84.031244 C 106.22008,84.005744 106.0992,84.002034 105.96875,83.999994 L 105.9375,83.999994 L 105.46875,83.999994 L 102.0625,83.999994 z M 86.0625,99.999994 C 84.92853,99.999994 84,100.92852 84,102.06249 L 84,103.06249 C 84,101.92852 84.92853,100.39999 86.0625,100.39999 L 100,99.999994 L 86.0625,99.999994 z M 108,99.999994 L 121.75977,100.51171 C 115.00057,104.13881 103.9373,106.90625 93.25,106.90624 C 91.47067,106.90624 89.71045,106.81629 88,106.68749 C 90.06039,106.87441 92.17941,106.99999 94.34375,106.99999 C 105.11381,106.99999 114.8275,104.67628 121.59375,100.99999 C 121.60171,100.99567 121.61705,101.00432 121.625,100.99999 C 122.06756,100.75876 122.48962,100.50288 122.90625,100.24999 C 122.76994,100.17687 122.62095,100.10521 122.46875,100.06249 C 122.45876,100.05984 122.44755,100.065 122.4375,100.06249 C 122.28513,100.02204 122.13213,100.00271 121.96875,99.999994 L 121.9375,99.999994 L 121.46875,99.999994 L 108,99.999994 z"
     id="path3062"
     sodipodi:nodetypes="cccccccccsssssssccccccccccccscssscsscccc"
     clip-path="none" /><path
     sodipodi:nodetypes="cccccccccsssssssccccccccccccscssscsscccc"
     id="path3087"
     d="M 102.0625,83.999994 C 100.92853,83.999994 100,84.928524 100,86.062494 L 100,87.062494 C 100,85.928524 101.32853,84.399994 102.4625,84.399994 L 106.3375,84.399994 C 106.62099,84.399994 106.90349,84.451474 107.15,84.556244 C 107.26026,84.805764 107.6375,85.680824 107.6375,85.968744 L 108,99.999994 L 108.03125,86.062494 C 108.03125,85.486864 107.79019,84.968914 107.40625,84.593744 C 107.31848,84.505974 107.22722,84.414724 107.125,84.343744 C 107.11731,84.338534 107.10151,84.348854 107.09375,84.343744 C 106.99167,84.274614 106.89508,84.206474 106.78125,84.156244 C 106.77259,84.152564 106.75872,84.159804 106.75,84.156244 C 106.6354,84.107544 106.49889,84.058614 106.375,84.031244 C 106.36476,84.029134 106.35404,84.033204 106.34375,84.031244 C 106.22008,84.005744 106.0992,84.002034 105.96875,83.999994 L 105.9375,83.999994 L 105.46875,83.999994 L 102.0625,83.999994 z M 86.0625,99.999994 C 84.92853,99.999994 84,100.92852 84,102.06249 L 84,103.06249 C 84,101.92852 84.92853,100.39999 86.0625,100.39999 L 100,99.999994 L 86.0625,99.999994 z M 108,99.999994 L 121.85742,100.51171 C 115.09823,104.13881 103.9373,106.90625 93.25,106.90624 C 91.47067,106.90624 89.71045,106.81629 88,106.68749 C 90.06039,106.87441 92.17941,106.99999 94.34375,106.99999 C 105.11381,106.99999 114.8275,104.67628 121.59375,100.99999 C 121.60171,100.99567 121.61705,101.00432 121.625,100.99999 C 122.06756,100.75876 122.48962,100.50288 122.90625,100.24999 C 122.76994,100.17687 122.62095,100.10521 122.46875,100.06249 C 122.45876,100.05984 122.44755,100.065 122.4375,100.06249 C 122.28513,100.02204 122.13213,100.00271 121.96875,99.999994 L 121.9375,99.999994 L 121.46875,99.999994 L 108,99.999994 z"
     style="fill:url(#linearGradient4977);fill-opacity:1;stroke:none;stroke-width:2;stroke-linecap:round;stroke-linejoin:round;stroke-miterlimit:4;stroke-dasharray:none;stroke-dashoffset:1.08779998;stroke-opacity:1"
     clip-path="none" /><path
     id="path3099"
     d="M 102.0625,83.999994 C 100.92853,83.999994 100,84.928524 100,86.062494 L 100,99.999994 L 86.0625,99.999994 C 84.92853,99.999994 84,100.92852 84,102.06249 L 84,105.93749 C 84,107.07146 84.92853,107.99999 86.0625,107.99999 L 100,107.99999 L 100,121.9375 C 100,123.07147 100.92853,124 102.0625,124 L 105.9375,124 C 107.07147,124 108,123.07147 108,121.9375 L 108,107.99999 L 121.9375,107.99999 C 123.07147,107.99999 124,107.07146 124,105.93749 L 124,102.06249 C 124,100.92852 123.07147,99.999994 121.9375,99.999994 L 108,99.999994 L 108,86.062494 C 108,84.928524 107.07147,83.999994 105.9375,83.999994 L 102.0625,83.999994 z"
     style="fill:none;fill-opacity:1;stroke:url(#linearGradient4979);stroke-width:0.5;stroke-linecap:round;stroke-linejoin:round;stroke-miterlimit:4;stroke-dasharray:none;stroke-dashoffset:1.08779998;stroke-opacity:1;filter:url(#filter3191)"
     clip-path="none" /></g><g
   id="g5368"
   inkscape:label="fill text"
   transform="translate(515.47648,-18.051162)" /></svg>