<?xml version="1.0" encoding="UTF-8" standalone="no"?>
<!-- Generator: Adobe Illustrator 12.0.0, SVG Export Plug-In . SVG Version: 6.00 Build 51448)  -->
<svg
   xmlns:ns="http://ns.adobe.com/SaveForWeb/1.0/"
   xmlns:dc="http://purl.org/dc/elements/1.1/"
   xmlns:cc="http://creativecommons.org/ns#"
   xmlns:rdf="http://www.w3.org/1999/02/22-rdf-syntax-ns#"
   xmlns:svg="http://www.w3.org/2000/svg"
   xmlns="http://www.w3.org/2000/svg"
   xmlns:xlink="http://www.w3.org/1999/xlink"
   xmlns:sodipodi="http://sodipodi.sourceforge.net/DTD/sodipodi-0.dtd"
   xmlns:inkscape="http://www.inkscape.org/namespaces/inkscape"
   version="1.1"
   id="Layer_1"
   width="128"
   height="128"
   viewBox="0 0 128 128"
   overflow="visible"
   enable-background="new 0 0 128 128"
   xml:space="preserve"
   sodipodi:version="0.32"
   inkscape:version="0.46"
   sodipodi:docname="archive-extract.svgz"
   sodipodi:docbase="/Users/david/Desktop/sandbox"
   inkscape:output_extension="org.inkscape.output.svgz.inkscape"
   inkscape:export-filename="/home/pinheiro/pics/oxygen/scalable/actions/small/32x32/archive-extract.png"
   inkscape:export-xdpi="90"
   inkscape:export-ydpi="90"><defs
   id="defs105"><linearGradient
     y2="95.293"
     x2="87.293"
     y1="103"
     x1="95"
     gradientUnits="userSpaceOnUse"
     id="linearGradient4175">
	<stop
   id="stop4177"
   style="stop-color:#000000;stop-opacity:1"
   offset="0" />
	<stop
   id="stop4179"
   style="stop-color:#393B38"
   offset="1" />
</linearGradient><linearGradient
     inkscape:collect="always"
     xlink:href="#XMLID_9_"
     id="linearGradient2291"
     gradientUnits="userSpaceOnUse"
     x1="88.591797"
     y1="96.592697"
     x2="71.262016"
     y2="79.262917" /><linearGradient
     inkscape:collect="always"
     xlink:href="#linearGradient4175"
     id="linearGradient2295"
     gradientUnits="userSpaceOnUse"
     x1="85.219681"
     y1="93.219681"
     x2="61.336319"
     y2="69.336319" /><linearGradient
     inkscape:collect="always"
     xlink:href="#XMLID_12_"
     id="linearGradient2297"
     gradientUnits="userSpaceOnUse"
     x1="96"
     y1="104"
     x2="88.0002"
     y2="96.0002" /><radialGradient
     inkscape:collect="always"
     xlink:href="#XMLID_8_"
     id="radialGradient2272"
     gradientUnits="userSpaceOnUse"
     gradientTransform="matrix(0.9787234,0,0,0.9818182,1.3617045,1.1636364)"
     cx="102"
     cy="112.3047"
     r="139.55859" /><radialGradient
     inkscape:collect="always"
     xlink:href="#XMLID_7_"
     id="radialGradient2275"
     gradientUnits="userSpaceOnUse"
     gradientTransform="translate(2.4e-6,0)"
     cx="102"
     cy="112.3047"
     r="139.5585" /><filter
     inkscape:collect="always"
     id="filter3241"><feGaussianBlur
       inkscape:collect="always"
       stdDeviation="1.0394514"
       id="feGaussianBlur3243" /></filter><linearGradient
     id="linearGradient2399"><stop
       style="stop-color:#0968ef;stop-opacity:1;"
       offset="0"
       id="stop2401" /><stop
       style="stop-color:#aecffc;stop-opacity:1;"
       offset="1"
       id="stop2403" /></linearGradient><filter
     inkscape:collect="always"
     id="filter3772"><feGaussianBlur
       inkscape:collect="always"
       stdDeviation="0.50063244"
       id="feGaussianBlur3774" /></filter><filter
     inkscape:collect="always"
     id="filter4107"><feGaussianBlur
       inkscape:collect="always"
       stdDeviation="0.40750996"
       id="feGaussianBlur4109" /></filter><filter
     inkscape:collect="always"
     id="filter4171"><feGaussianBlur
       inkscape:collect="always"
       stdDeviation="0.4901192"
       id="feGaussianBlur4173" /></filter><filter
     inkscape:collect="always"
     id="filter4209"><feGaussianBlur
       inkscape:collect="always"
       stdDeviation="0.90565481"
       id="feGaussianBlur4211" /></filter><linearGradient
     y2="56.231236"
     x2="5.1264462"
     y1="56.231236"
     x1="64.129814"
     gradientTransform="matrix(0,-1.0293895,1.0293895,0,11.93834,80.22496)"
     gradientUnits="userSpaceOnUse"
     id="linearGradient3755"
     xlink:href="#linearGradient3757"
     inkscape:collect="always" /><linearGradient
     y2="56.231236"
     x2="5.1264462"
     y1="56.231236"
     x1="64.129814"
     gradientTransform="matrix(0,-1.0293895,1.0293895,0,11.93834,80.22496)"
     gradientUnits="userSpaceOnUse"
     id="linearGradient3730"
     xlink:href="#linearGradient2880"
     inkscape:collect="always" /><radialGradient
     r="139.5585"
     cy="112.3047"
     cx="102"
     gradientTransform="translate(2.4e-6,0)"
     gradientUnits="userSpaceOnUse"
     id="radialGradient2713"
     xlink:href="#XMLID_7_"
     inkscape:collect="always" /><linearGradient
     y2="96.0002"
     x2="88.0002"
     y1="104"
     x1="96"
     gradientUnits="userSpaceOnUse"
     id="linearGradient2711"
     xlink:href="#XMLID_12_"
     inkscape:collect="always" /><linearGradient
     y2="95.293"
     x2="87.293"
     y1="103"
     x1="95"
     gradientUnits="userSpaceOnUse"
     id="linearGradient2709"
     xlink:href="#XMLID_11_"
     inkscape:collect="always" /><linearGradient
     y2="94.5366"
     x2="86.5356"
     y1="102.3447"
     x1="94.3438"
     gradientUnits="userSpaceOnUse"
     id="linearGradient2706"
     xlink:href="#XMLID_9_"
     inkscape:collect="always" /><linearGradient
     id="linearGradient2880"><stop
       style="stop-color:#000000;stop-opacity:1;"
       offset="0"
       id="stop2882" /><stop
       id="stop2884"
       offset="0"
       style="stop-color:#000000;stop-opacity:1;" /><stop
       id="stop2886"
       offset="0.56999999"
       style="stop-color:#000000;stop-opacity:0.58823532;" /><stop
       style="stop-color:#3b3b3b;stop-opacity:0.72000003;"
       offset="0.82800001"
       id="stop2888" /><stop
       style="stop-color:white;stop-opacity:0;"
       offset="1"
       id="stop2890" /></linearGradient><linearGradient
     id="linearGradient3716"><stop
       id="stop3718"
       offset="0"
       style="stop-color:#fefefe;stop-opacity:1" /><stop
       style="stop-color:#e9eaea;stop-opacity:1"
       offset="0.23920465"
       id="stop3732" /><stop
       id="stop3720"
       offset="1"
       style="stop-color:#fdfdfd;stop-opacity:1" /></linearGradient><linearGradient
     id="linearGradient3757"><stop
       id="stop3759"
       offset="0"
       style="stop-color:#000000;stop-opacity:1;" /><stop
       style="stop-color:#000000;stop-opacity:1;"
       offset="0"
       id="stop3761" /><stop
       style="stop-color:#000000;stop-opacity:0.58823532;"
       offset="0.56999999"
       id="stop3763" /><stop
       id="stop3765"
       offset="0.74199998"
       style="stop-color:#3b3b3b;stop-opacity:0.72000003;" /><stop
       id="stop3767"
       offset="1"
       style="stop-color:white;stop-opacity:0;" /></linearGradient><inkscape:perspective
     id="perspective2687"
     inkscape:persp3d-origin="64 : 42.666667 : 1"
     inkscape:vp_z="128 : 64 : 1"
     inkscape:vp_y="0 : 1000 : 0"
     inkscape:vp_x="0 : 64 : 1"
     sodipodi:type="inkscape:persp3d" /><linearGradient
     inkscape:collect="always"
     xlink:href="#linearGradient3716"
     id="linearGradient2773"
     gradientUnits="userSpaceOnUse"
     gradientTransform="matrix(0.9124731,0,0,0.9124731,4.1965755,-1.0860862)"
     x1="63.998402"
     y1="2.0128229"
     x2="63.998402"
     y2="74.721313" /><linearGradient
     inkscape:collect="always"
     xlink:href="#linearGradient3757"
     id="linearGradient2791"
     gradientUnits="userSpaceOnUse"
     gradientTransform="matrix(0,-1.0293895,1.0293895,0,11.93834,80.22496)"
     x1="64.129814"
     y1="56.231236"
     x2="5.1264462"
     y2="56.231236" /><linearGradient
     inkscape:collect="always"
     xlink:href="#linearGradient3757"
     id="linearGradient2793"
     gradientUnits="userSpaceOnUse"
     gradientTransform="matrix(0,-1.0293895,1.0293895,0,11.93834,80.22496)"
     x1="64.129814"
     y1="56.231236"
     x2="5.1264462"
     y2="56.231236" /><filter
     inkscape:collect="always"
     id="filter3565"><feGaussianBlur
       inkscape:collect="always"
       stdDeviation="1.8227906"
       id="feGaussianBlur3567" /></filter><filter
     inkscape:collect="always"
     id="filter3569"><feGaussianBlur
       inkscape:collect="always"
       stdDeviation="1.0669687"
       id="feGaussianBlur3571" /></filter></defs><sodipodi:namedview
   inkscape:window-height="687"
   inkscape:window-width="1022"
   inkscape:pageshadow="2"
   inkscape:pageopacity="0.0"
   guidetolerance="10.0"
   gridtolerance="10.0"
   objecttolerance="10.0"
   borderopacity="1.0"
   bordercolor="#666666"
   pagecolor="#ffffff"
   id="base"
   inkscape:zoom="3.6093751"
   inkscape:cx="62.914579"
   inkscape:cy="97.355543"
   inkscape:window-x="404"
   inkscape:window-y="248"
   inkscape:current-layer="Layer_1"
   showgrid="true"
   showguides="true"
   inkscape:guide-bbox="true"><inkscape:grid
     id="GridFromPre046Settings"
     type="xygrid"
     originx="0px"
     originy="0px"
     spacingx="4px"
     spacingy="4px"
     color="#0000ff"
     empcolor="#0000ff"
     opacity="0.2"
     empopacity="0.4"
     empspacing="2"
     enabled="true"
     visible="true" /></sodipodi:namedview>
<metadata
   id="metadata3">
	<ns:sfw>
		<ns:slices>
			<ns:slice
   y="0"
   x="0"
   height="128"
   width="128"
   sliceID="1316743234" />
		</ns:slices>
		<ns:sliceSourceBounds
   y="0"
   x="0"
   height="128"
   width="128"
   bottomLeftOrigin="true" />
		<ns:optimizationSettings>
			<ns:targetSettings
   targetSettingsID="0"
   fileFormat="PNG24Format">
				<ns:PNG24Format
   transparency="true"
   filtered="false"
   matteColor="#FFFFFF"
   noMatteColor="false"
   interlaced="false">
					</ns:PNG24Format>
			</ns:targetSettings>
			<ns:targetSettings
   targetSettingsID="1696735251"
   fileFormat="PNG24Format">
				<ns:PNG24Format
   transparency="true"
   filtered="false"
   matteColor="#FFFFFF"
   noMatteColor="false"
   interlaced="false">
					</ns:PNG24Format>
			</ns:targetSettings>
		</ns:optimizationSettings>
	</ns:sfw>
<rdf:RDF><cc:Work
     rdf:about=""><dc:format>image/svg+xml</dc:format><dc:type
       rdf:resource="http://purl.org/dc/dcmitype/StillImage" /></cc:Work></rdf:RDF></metadata>

<radialGradient
   id="XMLID_7_"
   cx="102"
   cy="112.3047"
   r="139.5585"
   gradientUnits="userSpaceOnUse">
	<stop
   offset="0"
   style="stop-color:#00537D"
   id="stop16" />
	<stop
   offset="0.0151"
   style="stop-color:#186389"
   id="stop18" />
	<stop
   offset="0.0558"
   style="stop-color:#558CA8"
   id="stop20" />
	<stop
   offset="0.0964"
   style="stop-color:#89AFC3"
   id="stop22" />
	<stop
   offset="0.1357"
   style="stop-color:#B3CCD8"
   id="stop24" />
	<stop
   offset="0.1737"
   style="stop-color:#D4E2E9"
   id="stop26" />
	<stop
   offset="0.2099"
   style="stop-color:#ECF2F5"
   id="stop28" />
	<stop
   offset="0.2435"
   style="stop-color:#FAFCFD"
   id="stop30" />
	<stop
   offset="0.2722"
   style="stop-color:#FFFFFF"
   id="stop32" />
</radialGradient>

<radialGradient
   id="XMLID_8_"
   cx="102"
   cy="112.3047"
   r="139.55859"
   gradientUnits="userSpaceOnUse">
	<stop
   offset="0"
   style="stop-color:#535557"
   id="stop37" />
	
	<stop
   offset="0.11366145"
   style="stop-color:#898A8C"
   id="stop41" />
	
	
	<stop
   offset="0.20296688"
   style="stop-color:#ECECEC"
   id="stop47" />
	<stop
   offset="0.2363"
   style="stop-color:#FAFAFA"
   id="stop49" />
	<stop
   offset="0.2722"
   style="stop-color:#FFFFFF"
   id="stop51" />
	<stop
   offset="0.5313"
   style="stop-color:#FAFAFA"
   id="stop53" />
	<stop
   offset="0.8449"
   style="stop-color:#EBECEC"
   id="stop55" />
	<stop
   offset="1"
   style="stop-color:#E1E2E3"
   id="stop57" />
</radialGradient>

<linearGradient
   id="XMLID_9_"
   gradientUnits="userSpaceOnUse"
   x1="94.3438"
   y1="102.3447"
   x2="86.5356"
   y2="94.5366">
	<stop
   offset="0"
   style="stop-color:#FFFFFF"
   id="stop62" />
	<stop
   offset="1"
   style="stop-color:#555753"
   id="stop64" />
</linearGradient>

<linearGradient
   id="XMLID_10_"
   gradientUnits="userSpaceOnUse"
   x1="95"
   y1="103"
   x2="86.5865"
   y2="94.5865">
	<stop
   offset="0"
   style="stop-color:#FFFFFF"
   id="stop69" />
	<stop
   offset="1"
   style="stop-color:#555753"
   id="stop71" />
</linearGradient>

<linearGradient
   id="XMLID_11_"
   gradientUnits="userSpaceOnUse"
   x1="95"
   y1="103"
   x2="87.293"
   y2="95.293">
	<stop
   offset="0"
   style="stop-color:#FFFFFF"
   id="stop76" />
	<stop
   offset="1"
   style="stop-color:#393B38"
   id="stop78" />
</linearGradient>

<linearGradient
   id="XMLID_12_"
   gradientUnits="userSpaceOnUse"
   x1="96"
   y1="104"
   x2="88.0002"
   y2="96.0002">
	<stop
   offset="0"
   style="stop-color:#888A85"
   id="stop83" />
	<stop
   offset="0.0072"
   style="stop-color:#8C8E89"
   id="stop85" />
	<stop
   offset="0.0673"
   style="stop-color:#ABACA9"
   id="stop87" />
	<stop
   offset="0.1347"
   style="stop-color:#C5C6C4"
   id="stop89" />
	<stop
   offset="0.2115"
   style="stop-color:#DBDBDA"
   id="stop91" />
	<stop
   offset="0.3012"
   style="stop-color:#EBEBEB"
   id="stop93" />
	<stop
   offset="0.4122"
   style="stop-color:#F7F7F6"
   id="stop95" />
	<stop
   offset="0.5679"
   style="stop-color:#FDFDFD"
   id="stop97" />
	<stop
   offset="1"
   style="stop-color:#FFFFFF"
   id="stop99" />
</linearGradient>
<path
   sodipodi:nodetypes="cccccccc"
   transform="matrix(1.0416667,0,0,1.0357143,-9.9583333,-3.3215342)"
   style="opacity:0.30684932;fill:#000000;fill-opacity:1;filter:url(#filter3241)"
   d="M 23,9 L 23.040816,121 L 84.172,121 C 84.702,121 85.211,120.789 85.586,120.414 L 118.414,87.586 C 118.789,87.211 119,86.702 119,86.172 L 119,9 L 23,9 z"
   id="path4081" /><path
   sodipodi:nodetypes="cccccccc"
   transform="matrix(1.0416667,0,0,1.0357143,-9.9583333,-3.3215342)"
   style="opacity:0.89589041000000003;fill:#000000;fill-opacity:1;filter:url(#filter3772)"
   d="M 24.919999,10.931136 L 24.919999,119.06907 L 83.596,119.06897 C 84.126,119.06897 84.635,118.85797 85.01,118.48297 L 116.494,86.717034 C 116.869,86.342034 117.08,85.833034 117.08,85.303034 L 117.08,10.931136 L 24.919999,10.931136 z"
   id="path3726" /><path
   id="path6594"
   d="M 23,9.9655172 L 23.040816,121 L 84.172,121 C 84.702,121 85.211,120.789 85.586,120.414 L 118.414,87.586 C 118.789,87.211 119,86.702 119,86.172 L 119,9.9655172 L 23,9.9655172 z"
   style="opacity:0.30684932;fill:#000000;fill-opacity:1;filter:url(#filter3241)"
   transform="matrix(1.0416667,0,0,1.0357143,-9.9583333,-3.3215342)"
   sodipodi:nodetypes="cccccccc" /><path
   style="fill:url(#radialGradient2275)"
   d="M 16.000002,8 L 16.000002,120 L 77.172002,120 C 77.702002,120 78.211002,119.789 78.586002,119.414 L 111.414,86.586 C 111.789,86.211 112,85.702 112,85.172 L 112,8 L 16.000002,8 z "
   id="path34"
   sodipodi:nodetypes="cccccccc" /><path
   style="fill:url(#radialGradient2272);fill-opacity:1"
   d="M 19.678725,10.7 C 19.139449,10.7 18.700002,11.140836 18.700002,11.681818 L 18.000002,117.01818 C 18.000002,117.56015 18.439449,118 18.978725,118 L 76.891747,118 C 77.149151,118 77.401662,117.89593 77.583704,117.71233 L 109.71323,85.4812 C 109.89626,85.2976 110,85.045273 110,84.787055 L 110,10.981818 C 110,10.440836 109.56153,10 109.02128,10 L 19.678725,10.7 z"
   id="path59"
   sodipodi:nodetypes="ccccccccccc" /><g
   id="g1973"
   transform="translate(2.4e-6,0)"><path
     style="opacity:0.10000000000000001;fill:url(#linearGradient2291);filter:url(#filter4107)"
     id="path66"
     d="M 111.414,86.586 C 111.664,86.336 85.035,85 80,85 C 78.346,85 77,86.346 77,88 C 77,93.035 78.336,119.664 78.586,119.414 L 111.414,86.586 z"
     sodipodi:nodetypes="csscc" /><path
     style="opacity:0.2;fill:#000000;filter:url(#filter4209);fill-opacity:1"
     id="path73"
     d="M 111.414,86.586 C 111.789,86.211 89.444,86 80,86 C 78.897,86 78,86.897 78,88 C 78,97.444 78.211,119.789 78.586,119.414 L 111.414,86.586 z"
     sodipodi:nodetypes="csscc" /><path
     style="opacity:0.10000000000000001;fill:url(#linearGradient2295);filter:url(#filter4171)"
     id="path80"
     d="M 111.414,86.586 C 111.653,86.347 89.807,87 80,87 C 79.447,87 79,87.447 79,88 C 79,97.807 78.347,119.653 78.586,119.414 L 111.414,86.586 z"
     sodipodi:nodetypes="csscc" /><path
     style="fill:url(#linearGradient2297)"
     id="path101"
     d="M 78.586,119.414 C 78.586,119.414 90.5,109.5 96,104 C 101.5,98.5 111.414,86.586 111.414,86.586 C 111.414,86.586 90.25,88 80,88 C 80,98.25 78.586,119.414 78.586,119.414 z"
     sodipodi:nodetypes="csccc" /></g>

<path
   sodipodi:type="inkscape:offset"
   inkscape:radius="-1.9951481"
   inkscape:original="M 62.6875 3.21875 C 62.209361 3.3251895 61.823747 3.7277733 61.46875 4.0625 L 61.375 3.96875 L 26.40625 36.40625 C 25.944476 36.842055 25.46876 37.372515 25.46875 38.53125 C 25.46875 39.690023 25.94457 40.220514 26.40625 40.65625 L 34.5625 48.84375 C 34.572825 48.85426 34.583242 48.864675 34.59375 48.875 C 35.688109 49.933529 37.244424 50.003065 38.4375 49.09375 C 38.448008 49.083427 38.458425 49.073008 38.46875 49.0625 L 54.3125 36.40625 L 55.3125 74.59375 C 55.319633 76.084319 55.500393 77.522997 57.21875 77.53125 L 68.5625 77.53125 C 70.279853 77.523029 71.491782 76.311095 71.5 74.59375 L 72.5 36.40625 L 88.34375 49.0625 C 88.354075 49.07301 88.364492 49.083425 88.375 49.09375 C 89.446736 49.910588 91.218935 49.811821 92.1875 48.875 C 92.198008 48.864677 92.208425 48.854258 92.21875 48.84375 L 100.46875 40.625 C 101.15606 39.976349 101.31251 39.23812 101.3125 38.53125 C 101.3125 37.824378 101.09357 37.054917 100.40625 36.40625 L 65.40625 3.96875 C 64.973706 3.5572792 64.408622 3.3135174 63.8125 3.28125 C 63.537956 3.2172038 63.21617 3.1010615 62.6875 3.21875 z "
   style="fill:url(#linearGradient2793);fill-opacity:1;stroke:none;stroke-width:8;stroke-linejoin:round;stroke-miterlimit:4;stroke-opacity:1;filter:url(#filter3569)"
   id="path3769"
   d="M 63.125,5.15625 C 63.466318,5.0802685 63.25501,5.1122227 62.84375,5.5 C 62.662786,5.6734748 62.450753,5.8112961 62.21875,5.90625 C 62.198101,5.9170307 62.177264,5.927449 62.15625,5.9375 L 27.75,37.875 C 27.378522,38.225587 27.468755,37.918579 27.46875,38.53125 C 27.46875,39.143853 27.409781,38.868156 27.78125,39.21875 C 27.791782,39.229051 27.802199,39.239468 27.8125,39.25 L 35.96875,47.4375 C 35.979167,47.437418 35.989583,47.437418 36,47.4375 C 36.43286,47.856188 36.724137,47.870953 37.1875,47.53125 C 37.197801,47.520718 37.208218,47.510301 37.21875,47.5 L 53.0625,34.84375 C 53.65315,34.365709 54.464047,34.264636 55.153971,34.583062 C 55.843895,34.901489 56.293076,35.584136 56.3125,36.34375 L 57.3125,74.53125 C 57.312826,74.552082 57.312826,74.572918 57.3125,74.59375 C 57.315089,75.134667 57.376876,75.383372 57.40625,75.53125 L 68.5625,75.53125 C 69.345729,75.527501 69.496252,75.376969 69.5,74.59375 C 69.499674,74.572918 69.499674,74.552082 69.5,74.53125 L 70.5,36.34375 C 70.519424,35.584136 70.968605,34.901489 71.658529,34.583062 C 72.348453,34.264636 73.15935,34.365709 73.75,34.84375 L 89.59375,47.5 C 89.756215,47.623825 90.603278,47.569545 90.78125,47.4375 C 90.791667,47.437418 90.802083,47.437418 90.8125,47.4375 L 99.0625,39.21875 C 99.072801,39.208218 99.083218,39.197801 99.09375,39.1875 C 99.341432,38.953749 99.312506,38.943712 99.3125,38.53125 C 99.3125,38.236332 99.299601,38.097009 99.03125,37.84375 L 64.0625,5.4375 C 64.051968,5.427199 64.041551,5.4167817 64.03125,5.40625 C 63.942322,5.3216541 63.841309,5.287884 63.71875,5.28125 C 63.592046,5.2723994 63.466476,5.2514711 63.34375,5.21875 C 62.885411,5.1118278 63.2143,5.1363707 63.125,5.15625 z"
   transform="matrix(0.9124731,0,0,0.9124731,4.1965755,-2.459027)" /><path
   transform="matrix(0.9124731,0,0,0.9124731,4.1965755,-2.459027)"
   d="M 62.9375,4.3125 C 62.913934,4.3177462 62.604958,4.5108448 62.21875,4.875 C 62.085112,4.9951504 61.924228,5.080955 61.75,5.125 L 27.15625,37.21875 C 26.744565,37.607283 26.562507,37.67543 26.5625,38.53125 C 26.5625,39.387049 26.744612,39.455244 27.15625,39.84375 C 27.166874,39.853958 27.177292,39.864376 27.1875,39.875 L 35.34375,48.0625 C 35.349435,48.068287 35.369064,48.087917 35.375,48.09375 C 36.090642,48.785961 36.934547,48.812887 37.71875,48.25 C 37.739249,48.238928 37.760093,48.228506 37.78125,48.21875 C 37.781103,48.208334 37.781103,48.197916 37.78125,48.1875 L 53.625,35.53125 C 53.954442,35.27782 54.398094,35.230314 54.773726,35.408245 C 55.149358,35.586176 55.393647,35.959548 55.40625,36.375 L 56.40625,74.5625 C 56.406397,74.572916 56.406397,74.583334 56.40625,74.59375 C 56.409611,75.296001 56.507105,75.90904 56.625,76.15625 C 56.742895,76.40346 56.668248,76.434856 57.21875,76.4375 L 68.5625,76.4375 C 69.761672,76.43176 70.400512,75.792913 70.40625,74.59375 C 70.406103,74.583334 70.406103,74.572916 70.40625,74.5625 L 71.40625,36.375 C 71.418853,35.959548 71.663142,35.586176 72.038774,35.408245 C 72.414406,35.230314 72.858058,35.27782 73.1875,35.53125 L 89.03125,48.1875 C 89.031397,48.197916 89.031397,48.208334 89.03125,48.21875 C 89.038185,48.224035 89.055354,48.213615 89.0625,48.21875 C 89.642395,48.635479 90.900895,48.582542 91.40625,48.09375 C 91.412032,48.08807 91.431668,48.068435 91.4375,48.0625 L 99.6875,39.84375 C 99.697708,39.833126 99.708126,39.822708 99.71875,39.8125 C 100.16219,39.394004 100.21876,39.074805 100.21875,38.53125 C 100.21875,38.052899 100.11116,37.648075 99.65625,37.21875 L 64.65625,4.78125 C 64.414318,4.5511047 64.083425,4.3930479 63.75,4.375 C 63.68672,4.3699792 63.623988,4.359524 63.5625,4.34375 C 63.186001,4.2559194 63.222441,4.2490686 62.9375,4.3125 z"
   id="path3801"
   style="opacity:0.5;fill:url(#linearGradient2791);fill-opacity:1;stroke:none;stroke-width:8;stroke-linejoin:round;stroke-miterlimit:4;stroke-opacity:1;filter:url(#filter3565)"
   inkscape:original="M 62.6875 3.21875 C 62.209361 3.3251895 61.823747 3.7277733 61.46875 4.0625 L 61.375 3.96875 L 26.40625 36.40625 C 25.944476 36.842055 25.46876 37.372515 25.46875 38.53125 C 25.46875 39.690023 25.94457 40.220514 26.40625 40.65625 L 34.5625 48.84375 C 34.572825 48.85426 34.583242 48.864675 34.59375 48.875 C 35.688109 49.933529 37.244424 50.003065 38.4375 49.09375 C 38.448008 49.083427 38.458425 49.073008 38.46875 49.0625 L 54.3125 36.40625 L 55.3125 74.59375 C 55.319633 76.084319 55.500393 77.522997 57.21875 77.53125 L 68.5625 77.53125 C 70.279853 77.523029 71.491782 76.311095 71.5 74.59375 L 72.5 36.40625 L 88.34375 49.0625 C 88.354075 49.07301 88.364492 49.083425 88.375 49.09375 C 89.446736 49.910588 91.218935 49.811821 92.1875 48.875 C 92.198008 48.864677 92.208425 48.854258 92.21875 48.84375 L 100.46875 40.625 C 101.15606 39.976349 101.31251 39.23812 101.3125 38.53125 C 101.3125 37.824378 101.09357 37.054917 100.40625 36.40625 L 65.40625 3.96875 C 64.973706 3.5572792 64.408622 3.3135174 63.8125 3.28125 C 63.537956 3.2172038 63.21617 3.1010615 62.6875 3.21875 z "
   inkscape:radius="-1.106757"
   sodipodi:type="inkscape:offset" /><path
   style="fill:url(#linearGradient2773);fill-opacity:1;stroke:none;stroke-width:8;stroke-linejoin:round;stroke-miterlimit:4;stroke-opacity:1"
   d="M 62.310251,2.3666519 L 94.246119,32.423939 C 94.322875,32.496376 94.366379,32.597252 94.366379,32.702791 C 94.366379,32.80833 94.322875,32.909204 94.246119,32.981643 L 86.731798,40.495964 C 86.595576,40.627724 86.383529,40.640197 86.232799,40.525318 L 68.063403,25.995671 L 68.063403,66.531916 C 68.062399,66.742241 67.892144,66.912494 67.681817,66.913501 L 56.410331,66.913501 C 56.200007,66.912494 56.029751,66.742241 56.028748,66.531916 L 56.028748,25.995671 L 37.859352,40.525318 C 37.70862,40.640197 37.496571,40.627724 37.360358,40.495964 L 29.84603,32.981643 C 29.769283,32.909204 29.725772,32.80833 29.725772,32.702791 C 29.725772,32.597252 29.769283,32.496376 29.84603,32.423939 L 61.781902,2.3666519 C 61.934795,2.1508243 62.150092,2.3666519 62.310251,2.3666519 z"
   id="path2842"
   sodipodi:nodetypes="ccsccccccccccccsccc" /><path
   style="fill:#ffffff;fill-opacity:1;stroke:none;stroke-width:8;stroke-linejoin:round;stroke-miterlimit:4;stroke-opacity:1"
   d="M 61.907111,2.2761205 C 61.862924,2.2862373 61.804556,2.3277464 61.766333,2.3817034 L 29.845109,32.437631 C 29.768352,32.510069 29.739523,32.613646 29.739523,32.719187 C 29.739523,32.824726 29.768352,32.893105 29.845109,32.965546 L 31.886378,35.270065 L 61.766333,7.1498247 C 61.919226,6.9339972 62.134088,7.1498247 62.294248,7.1498247 L 92.209399,35.270065 L 94.250668,32.965546 C 94.327422,32.893106 94.356248,32.824725 94.356251,32.719187 C 94.356251,32.613646 94.327419,32.510069 94.250668,32.437631 L 62.294248,2.3817034 C 62.174128,2.3817034 62.039673,2.2457699 61.907111,2.2761205 z"
   id="path2861"
   sodipodi:nodetypes="cccsccccccsccc" /></svg>