<?xml version="1.0" encoding="UTF-8" standalone="no"?>
<!-- Generator: Adobe Illustrator 12.0.0, SVG Export Plug-In . SVG Version: 6.00 Build 51448)  -->
<svg
   xmlns:ns="http://ns.adobe.com/SaveForWeb/1.0/"
   xmlns:dc="http://purl.org/dc/elements/1.1/"
   xmlns:cc="http://creativecommons.org/ns#"
   xmlns:rdf="http://www.w3.org/1999/02/22-rdf-syntax-ns#"
   xmlns:svg="http://www.w3.org/2000/svg"
   xmlns="http://www.w3.org/2000/svg"
   xmlns:xlink="http://www.w3.org/1999/xlink"
   xmlns:sodipodi="http://sodipodi.sourceforge.net/DTD/sodipodi-0.dtd"
   xmlns:inkscape="http://www.inkscape.org/namespaces/inkscape"
   version="1.1"
   id="Layer_1"
   width="128"
   height="128"
   viewBox="0 0 128 128"
   overflow="visible"
   enable-background="new 0 0 128 128"
   xml:space="preserve"
   sodipodi:version="0.32"
   inkscape:version="0.46"
   sodipodi:docname="archive-remove.svgz"
   sodipodi:docbase="/Users/david/Desktop/sandbox"
   inkscape:output_extension="org.inkscape.output.svgz.inkscape"
   inkscape:export-filename="/home/pinheiro/pics/oxygen/scalable/actions/small/32x32/archive-remove.png"
   inkscape:export-xdpi="90"
   inkscape:export-ydpi="90"><defs
   id="defs105"><linearGradient
     y2="95.293"
     x2="87.293"
     y1="103"
     x1="95"
     gradientUnits="userSpaceOnUse"
     id="linearGradient4175">
	<stop
   id="stop4177"
   style="stop-color:#000000;stop-opacity:1"
   offset="0" />
	<stop
   id="stop4179"
   style="stop-color:#393B38"
   offset="1" />
</linearGradient><linearGradient
     inkscape:collect="always"
     xlink:href="#XMLID_9_"
     id="linearGradient2291"
     gradientUnits="userSpaceOnUse"
     x1="88.591797"
     y1="96.592697"
     x2="71.262016"
     y2="79.262917" /><linearGradient
     inkscape:collect="always"
     xlink:href="#linearGradient4175"
     id="linearGradient2295"
     gradientUnits="userSpaceOnUse"
     x1="85.219681"
     y1="93.219681"
     x2="61.336319"
     y2="69.336319" /><linearGradient
     inkscape:collect="always"
     xlink:href="#XMLID_12_"
     id="linearGradient2297"
     gradientUnits="userSpaceOnUse"
     x1="96"
     y1="104"
     x2="88.0002"
     y2="96.0002" /><radialGradient
     inkscape:collect="always"
     xlink:href="#XMLID_8_"
     id="radialGradient2272"
     gradientUnits="userSpaceOnUse"
     gradientTransform="matrix(0.9787234,0,0,0.9818182,1.3617045,1.1636364)"
     cx="102"
     cy="112.3047"
     r="139.55859" /><radialGradient
     inkscape:collect="always"
     xlink:href="#XMLID_7_"
     id="radialGradient2275"
     gradientUnits="userSpaceOnUse"
     gradientTransform="translate(2.4e-6,0)"
     cx="102"
     cy="112.3047"
     r="139.5585" /><filter
     inkscape:collect="always"
     id="filter3241"><feGaussianBlur
       inkscape:collect="always"
       stdDeviation="1.0394514"
       id="feGaussianBlur3243" /></filter><filter
     inkscape:collect="always"
     id="filter3772"><feGaussianBlur
       inkscape:collect="always"
       stdDeviation="0.50063244"
       id="feGaussianBlur3774" /></filter><filter
     inkscape:collect="always"
     id="filter4107"><feGaussianBlur
       inkscape:collect="always"
       stdDeviation="0.40750996"
       id="feGaussianBlur4109" /></filter><filter
     inkscape:collect="always"
     id="filter4171"><feGaussianBlur
       inkscape:collect="always"
       stdDeviation="0.4901192"
       id="feGaussianBlur4173" /></filter><filter
     inkscape:collect="always"
     id="filter4209"><feGaussianBlur
       inkscape:collect="always"
       stdDeviation="0.90565481"
       id="feGaussianBlur4211" /></filter><linearGradient
     id="linearGradient4179"><stop
       style="stop-color:#ffffff;stop-opacity:0"
       offset="0"
       id="stop4181" /><stop
       style="stop-color:#ffffff;stop-opacity:1"
       offset="1"
       id="stop4183" /></linearGradient><linearGradient
     id="linearGradient3489"><stop
       style="stop-color:#765c44;stop-opacity:1"
       offset="0"
       id="stop3491" /><stop
       style="stop-color:#765c44;stop-opacity:0"
       offset="1"
       id="stop3493" /></linearGradient><linearGradient
     id="linearGradient3499"><stop
       style="stop-color:#ffffff;stop-opacity:1"
       offset="0"
       id="stop3501" /><stop
       style="stop-color:#ffffff;stop-opacity:0"
       offset="1"
       id="stop3503" /></linearGradient><linearGradient
     id="linearGradient3397"><stop
       style="stop-color:#f4f5f8;stop-opacity:1"
       offset="0"
       id="stop3399" /><stop
       style="stop-color:#fdfdfe;stop-opacity:1"
       offset="1"
       id="stop3401" /></linearGradient><linearGradient
     id="linearGradient3163"><stop
       style="stop-color:#fff5e4;stop-opacity:1"
       offset="0"
       id="stop3165" /><stop
       style="stop-color:#ffecd0;stop-opacity:1"
       offset="0.25"
       id="stop3173" /><stop
       style="stop-color:#ffd390;stop-opacity:1"
       offset="0.5"
       id="stop3171" /><stop
       style="stop-color:#ffc46a;stop-opacity:1"
       offset="1"
       id="stop3167" /></linearGradient><linearGradient
     id="linearGradient3207"><stop
       style="stop-color:#ffffff;stop-opacity:1"
       offset="0"
       id="stop3209" /><stop
       style="stop-color:#790000;stop-opacity:0"
       offset="1"
       id="stop3211" /></linearGradient><linearGradient
     x1="58.743717"
     y1="78.411346"
     x2="58.743717"
     y2="-15.688621"
     id="linearGradient3563"
     xlink:href="#linearGradient5826"
     gradientUnits="userSpaceOnUse"
     gradientTransform="translate(-96.166522,0)" /><clipPath
     id="clipPath3559"><path
       d="M -64.510272,10.75 C -65.552588,10.758355 -66.55048,11.173209 -67.291522,11.90625 L -84.260272,28.875 C -85.821746,30.437119 -85.821746,32.969131 -84.260272,34.53125 L -58.822772,60 L -84.260272,85.46875 C -85.821746,87.030869 -85.821746,89.562881 -84.260272,91.125 L -67.291522,108.09375 C -65.729403,109.65522 -63.197391,109.65522 -61.635272,108.09375 L -36.166522,82.65625 L -10.697772,108.09375 C -9.1356529,109.65522 -6.6036409,109.65522 -5.0415219,108.09375 L 11.927228,91.125 C 13.488698,89.562881 13.488698,87.030869 11.927228,85.46875 L -13.510272,60 L 11.927228,34.53125 C 13.488698,32.969131 13.488698,30.437119 11.927228,28.875 L -5.0415219,11.90625 C -6.6036409,10.344776 -9.1356529,10.344776 -10.697772,11.90625 L -36.166522,37.34375 L -61.635272,11.90625 C -62.399349,11.150239 -63.435519,10.733519 -64.510272,10.75 z M -33.322772,74.15625 C -34.074181,73.396786 -35.098158,72.96944 -36.166522,72.96944 C -37.234886,72.96944 -38.258863,73.396786 -39.010272,74.15625 L -33.322772,74.15625 z "
       style="fill:url(#linearGradient3563);fill-opacity:1;stroke:none;stroke-width:8;stroke-linecap:round;stroke-linejoin:round;stroke-miterlimit:4;stroke-dashoffset:1.08779998;stroke-opacity:1"
       id="path3561" /></clipPath><filter
     x="-0.11641854"
     width="1.2328371"
     y="-0.14803563"
     height="1.2960713"
     id="filter3549"><feGaussianBlur
       inkscape:collect="always"
       stdDeviation="2.5695681"
       id="feGaussianBlur3551" /></filter><filter
     x="-0.13991599"
     width="1.279832"
     y="-0.13874064"
     height="1.2774813"
     id="filter3477"><feGaussianBlur
       inkscape:collect="always"
       stdDeviation="0.28784801"
       id="feGaussianBlur3479" /></filter><filter
     id="filter3354"><feGaussianBlur
       inkscape:collect="always"
       stdDeviation="0.45754832"
       id="feGaussianBlur3356" /></filter><linearGradient
     id="linearGradient5433"><stop
       style="stop-color:#ff0000;stop-opacity:1"
       offset="0"
       id="stop5435" /><stop
       style="stop-color:#7f0000;stop-opacity:1"
       offset="1"
       id="stop5437" /></linearGradient><linearGradient
     id="linearGradient5826"><stop
       style="stop-color:#810000;stop-opacity:1"
       offset="0"
       id="stop5828" /><stop
       style="stop-color:#c50000;stop-opacity:1"
       offset="1"
       id="stop5830" /></linearGradient><linearGradient
     id="linearGradient3366"><stop
       style="stop-color:#ff8787;stop-opacity:1"
       offset="0"
       id="stop3368" /><stop
       style="stop-color:#ff8787;stop-opacity:0"
       offset="1"
       id="stop4472" /></linearGradient><linearGradient
     id="linearGradient3575"><stop
       style="stop-color:#000000;stop-opacity:1"
       offset="0"
       id="stop3577" /><stop
       style="stop-color:#000000;stop-opacity:0"
       offset="1"
       id="stop3579" /></linearGradient><linearGradient
     x1="58.743717"
     y1="78.411346"
     x2="58.743717"
     y2="-15.688621"
     id="linearGradient3292"
     xlink:href="#linearGradient5826"
     gradientUnits="userSpaceOnUse"
     gradientTransform="matrix(0.9743255,0,0,0.9743255,5.5404775,5.5404852)" /><linearGradient
     x1="26.091133"
     y1="14.856744"
     x2="31.500689"
     y2="14.856744"
     id="linearGradient3294"
     xlink:href="#linearGradient3499"
     gradientUnits="userSpaceOnUse"
     gradientTransform="scale(1.0975951,0.9110828)" /><linearGradient
     x1="26.091133"
     y1="14.856744"
     x2="31.500689"
     y2="14.856744"
     id="linearGradient3296"
     xlink:href="#linearGradient3489"
     gradientUnits="userSpaceOnUse"
     gradientTransform="scale(1.0975951,0.9110828)" /><linearGradient
     x1="304.88663"
     y1="385.86127"
     x2="345.62039"
     y2="384.62384"
     id="linearGradient3298"
     xlink:href="#linearGradient3489"
     gradientUnits="userSpaceOnUse" /><linearGradient
     x1="55.007042"
     y1="88.460976"
     x2="55.007042"
     y2="36.655769"
     id="linearGradient3301"
     xlink:href="#linearGradient5433"
     gradientUnits="userSpaceOnUse"
     gradientTransform="matrix(0.9743255,0,0,0.9743255,5.5404775,5.5404852)" /><linearGradient
     x1="31.90625"
     y1="13.510336"
     x2="34.875107"
     y2="13.510336"
     id="linearGradient3304"
     xlink:href="#linearGradient3366"
     gradientUnits="userSpaceOnUse"
     gradientTransform="translate(56.7,0)"
     spreadMethod="reflect" /><radialGradient
     cx="-36.592777"
     cy="90.072952"
     r="25.986174"
     fx="-36.592777"
     fy="90.072952"
     id="radialGradient3306"
     xlink:href="#linearGradient3575"
     gradientUnits="userSpaceOnUse"
     gradientTransform="matrix(0.4576062,0,0,0.782313,-19.847694,18.82067)" /><linearGradient
     x1="31.90625"
     y1="13.510336"
     x2="34.875107"
     y2="13.510336"
     id="linearGradient3310"
     xlink:href="#linearGradient3207"
     gradientUnits="userSpaceOnUse"
     gradientTransform="translate(-0.3,0)"
     spreadMethod="reflect" /><linearGradient
     x1="31.90625"
     y1="13.510336"
     x2="34.875107"
     y2="13.510336"
     id="linearGradient3312"
     xlink:href="#linearGradient3207"
     gradientUnits="userSpaceOnUse"
     gradientTransform="translate(56.7,0)"
     spreadMethod="reflect" /><linearGradient
     x1="59.999996"
     y1="92.973083"
     x2="57.434441"
     y2="55.07938"
     id="linearGradient3314"
     xlink:href="#linearGradient3163"
     gradientUnits="userSpaceOnUse" /><linearGradient
     x1="68.313011"
     y1="109.97649"
     x2="51.544849"
     y2="32.750854"
     id="linearGradient3316"
     xlink:href="#linearGradient3397"
     gradientUnits="userSpaceOnUse"
     gradientTransform="matrix(1.381268,0,0,0.6872743,5.5404775,5.5404852)" /><linearGradient
     x1="47.264141"
     y1="21.738457"
     x2="47.264141"
     y2="70.357269"
     id="linearGradient3318"
     xlink:href="#linearGradient3366"
     gradientUnits="userSpaceOnUse"
     gradientTransform="matrix(0.9743255,0,0,0.9743255,5.5404775,5.5404852)" /><linearGradient
     x1="57.654171"
     y1="71.824867"
     x2="56.770992"
     y2="20.362558"
     id="linearGradient3320"
     xlink:href="#linearGradient4179"
     gradientUnits="userSpaceOnUse"
     gradientTransform="matrix(0.9743255,0,0,0.9743255,5.5526549,6.7583898)" /><radialGradient
     r="29.958668"
     fy="18.270697"
     fx="54.83873"
     cy="36.077316"
     cx="55.369141"
     gradientTransform="matrix(1.0732128,0,0,1.0016658,-3.0892676,-0.94553)"
     gradientUnits="userSpaceOnUse"
     id="radialGradient4105"
     xlink:href="#linearGradient3637"
     inkscape:collect="always" /><radialGradient
     r="29.958668"
     fy="32.667538"
     fx="59.612423"
     cy="32.667538"
     cx="59.612423"
     gradientTransform="matrix(1.0732128,0,0,1.0016658,-3.0892676,-0.94553)"
     gradientUnits="userSpaceOnUse"
     id="radialGradient4103"
     xlink:href="#linearGradient3637"
     inkscape:collect="always" /><radialGradient
     r="37.245823"
     fy="79.677887"
     fx="64.195038"
     cy="79.677887"
     cx="64.195038"
     gradientTransform="matrix(0.8587942,-4.751994e-8,6.9369213e-8,1.2536606,-118.09908,-11.053045)"
     gradientUnits="userSpaceOnUse"
     id="radialGradient4011"
     xlink:href="#linearGradient3983"
     inkscape:collect="always" /><radialGradient
     r="2.951782"
     fy="73.794548"
     fx="78.624741"
     cy="73.794548"
     cx="78.624741"
     gradientTransform="matrix(1,0,0,1.4545454,0,-33.542972)"
     gradientUnits="userSpaceOnUse"
     id="radialGradient4007"
     xlink:href="#linearGradient3680"
     inkscape:collect="always" /><filter
     id="filter3712"
     inkscape:collect="always"><feGaussianBlur
       id="feGaussianBlur3714"
       stdDeviation="0.10604798"
       inkscape:collect="always" /></filter><radialGradient
     r="37.245823"
     fy="72.806175"
     fx="65.091911"
     cy="72.806175"
     cx="65.091911"
     gradientTransform="matrix(0.9604149,-9.1487252e-8,2.27387e-7,2.3870633,187.82913,-102.1632)"
     gradientUnits="userSpaceOnUse"
     id="radialGradient3676"
     xlink:href="#linearGradient3649"
     inkscape:collect="always" /><radialGradient
     r="37.245823"
     fy="79.677887"
     fx="64.195038"
     cy="79.677887"
     cx="64.195038"
     gradientTransform="matrix(0.8145193,-4.5070062e-8,6.5792902e-8,1.1890285,-115.25685,-4.1095347)"
     gradientUnits="userSpaceOnUse"
     id="radialGradient3981"
     xlink:href="#linearGradient3649"
     inkscape:collect="always" /><filter
     id="filter3973"
     inkscape:collect="always"><feGaussianBlur
       id="feGaussianBlur3975"
       stdDeviation="2.9990898"
       inkscape:collect="always" /></filter><radialGradient
     r="29.958668"
     fy="16.636555"
     fx="71.005272"
     cy="32.737198"
     cx="63.491623"
     gradientTransform="matrix(0.8355412,0,0,0.8355412,9.54541,6.1308791)"
     gradientUnits="userSpaceOnUse"
     id="radialGradient3743"
     xlink:href="#linearGradient3649"
     inkscape:collect="always" /><filter
     id="filter3733"
     inkscape:collect="always"><feGaussianBlur
       id="feGaussianBlur3735"
       stdDeviation="1.3088738"
       inkscape:collect="always" /></filter><linearGradient
     y2="5.5514274"
     x2="72.138878"
     y1="118.03125"
     x1="42"
     gradientUnits="userSpaceOnUse"
     id="linearGradient12423"
     xlink:href="#linearGradient3632"
     inkscape:collect="always" /><linearGradient
     y2="5.5514274"
     x2="72.138878"
     y1="118.03125"
     x1="42"
     gradientUnits="userSpaceOnUse"
     id="linearGradient12421"
     xlink:href="#linearGradient3632"
     inkscape:collect="always" /><linearGradient
     y2="7.9285941"
     x2="120"
     y1="120"
     x1="120"
     gradientTransform="translate(-67.873074,-150.36201)"
     gradientUnits="userSpaceOnUse"
     id="linearGradient9730"
     xlink:href="#linearGradient3517"
     inkscape:collect="always" /><linearGradient
     inkscape:collect="always"
     id="linearGradient3632"><stop
       style="stop-color:#084775;stop-opacity:1;"
       offset="0"
       id="stop3634" /><stop
       style="stop-color:#084775;stop-opacity:0"
       offset="1"
       id="stop3636" /></linearGradient><linearGradient
     id="linearGradient3517"><stop
       style="stop-color:#403a3a;stop-opacity:1;"
       offset="0"
       id="stop3519" /><stop
       style="stop-color:#6a5252;stop-opacity:1;"
       offset="1"
       id="stop3521" /></linearGradient><filter
     inkscape:collect="always"
     id="filter3648"><feGaussianBlur
       inkscape:collect="always"
       stdDeviation="1.2346784"
       id="feGaussianBlur3650" /></filter><clipPath
     clipPathUnits="userSpaceOnUse"
     id="clipPath3662"><path
       sodipodi:nodetypes="ccccccccccccccccccccccccccccccccccccccccccccccccccccc"
       id="use3664"
       d="M -23.029324,-146.61201 C -28.56094,-146.85284 -33.674594,-143.07649 -35.029324,-137.64326 C -35.029345,-137.63284 -35.029345,-137.62243 -35.029324,-137.61201 L -37.841824,-126.20576 L -43.873074,-126.20576 C -50.314423,-126.20576 -55.716824,-120.80336 -55.716824,-114.36201 L -55.716824,-106.36201 C -55.716824,-100.51606 -51.199238,-95.735446 -45.560574,-94.86201 L -49.685574,-78.20576 L -55.873074,-78.20576 C -62.314423,-78.20576 -67.716824,-72.803358 -67.716824,-66.36201 L -67.716824,-58.36201 C -67.716824,-52.471552 -63.135144,-47.64742 -57.435574,-46.83076 L -58.279324,-43.39326 C -59.833003,-37.16213 -55.89687,-30.60601 -49.654324,-29.04951 L -41.873074,-27.11201 C -35.641951,-25.55833 -29.05458,-29.49451 -27.498074,-35.73701 C -27.498053,-35.74743 -27.498053,-35.75784 -27.498074,-35.76826 L -24.841824,-46.51826 L -10.185574,-46.51826 L -10.966824,-43.39326 C -12.520505,-37.16212 -8.584369,-30.60601 -2.341824,-29.04951 L 5.439426,-27.11201 C 11.653197,-25.56265 18.244025,-29.5641 19.783176,-35.73701 C 19.783197,-35.74743 19.783197,-35.75784 19.783176,-35.76826 L 22.439426,-46.51826 L 32.126926,-46.51826 C 38.568276,-46.51826 43.970676,-51.920656 43.970676,-58.36201 L 43.970676,-66.36201 C 43.970676,-72.803363 38.568276,-78.20576 32.126926,-78.20576 L 30.251926,-78.20576 L 34.283176,-94.51826 L 44.126926,-94.51826 C 50.568276,-94.51826 55.970676,-99.920656 55.970676,-106.36201 L 55.970676,-114.36201 C 55.970676,-120.80336 50.568276,-126.20576 44.126926,-126.20576 L 42.095676,-126.20576 L 43.033176,-129.98701 C 44.586866,-136.21816 40.650676,-142.77425 34.408176,-144.33076 L 26.626926,-146.26826 C 20.395805,-147.82193 13.808439,-143.88575 12.251926,-137.64326 C 12.251905,-137.63284 12.251905,-137.62243 12.251926,-137.61201 L 9.439426,-126.20576 L -5.185574,-126.20576 L -4.248074,-129.98701 C -2.677049,-136.28773 -6.679171,-142.77858 -12.904324,-144.33076 L -20.654324,-146.26826 C -21.331478,-146.4371 -22.087564,-146.57101 -23.029324,-146.61201 z M -12.998074,-94.51826 L 1.626926,-94.51826 L -2.404324,-78.20576 L -17.029324,-78.20576 L -12.998074,-94.51826 z"
       style="fill:url(#linearGradient9730);fill-opacity:1;stroke:none;stroke-width:1.20000005;stroke-linecap:round;stroke-linejoin:round;stroke-miterlimit:4;stroke-dashoffset:0;stroke-opacity:1" /></clipPath><linearGradient
     id="linearGradient3637"><stop
       id="stop3639"
       offset="0"
       style="stop-color:#ffffff;stop-opacity:0;" /><stop
       style="stop-color:#f2efef;stop-opacity:0;"
       offset="0.5"
       id="stop3645" /><stop
       id="stop3647"
       offset="0.81488997"
       style="stop-color:#5d4a4a;stop-opacity:0;" /><stop
       style="stop-color:#b6a1a1;stop-opacity:0.49803922;"
       offset="0.89840978"
       id="stop3657" /><stop
       id="stop3641"
       offset="1"
       style="stop-color:#e6e0e0;stop-opacity:1;" /></linearGradient><linearGradient
     id="linearGradient3649"><stop
       id="stop3651"
       offset="0"
       style="stop-color:#f7f4f4;stop-opacity:1;" /><stop
       id="stop3653"
       offset="1"
       style="stop-color:#5c4a4a;stop-opacity:1" /></linearGradient><linearGradient
     id="linearGradient3983"><stop
       style="stop-color:#f7f4f4;stop-opacity:1;"
       offset="0"
       id="stop3985" /><stop
       style="stop-color:#4d3e3e;stop-opacity:1;"
       offset="1"
       id="stop3987" /></linearGradient><linearGradient
     id="linearGradient3680"
     inkscape:collect="always"><stop
       id="stop3682"
       offset="0"
       style="stop-color:#f3f0f0;stop-opacity:1;" /><stop
       id="stop3684"
       offset="1"
       style="stop-color:#f3f0f0;stop-opacity:0;" /></linearGradient><radialGradient
     inkscape:collect="always"
     xlink:href="#linearGradient3575"
     id="radialGradient8545"
     gradientUnits="userSpaceOnUse"
     gradientTransform="matrix(0.4576062,0,0,0.782313,-19.847694,18.82067)"
     cx="-36.592777"
     cy="90.072952"
     fx="-36.592777"
     fy="90.072952"
     r="25.986174" /></defs><sodipodi:namedview
   inkscape:window-height="687"
   inkscape:window-width="1022"
   inkscape:pageshadow="2"
   inkscape:pageopacity="0.0"
   guidetolerance="10.0"
   gridtolerance="10.0"
   objecttolerance="10.0"
   borderopacity="1.0"
   bordercolor="#666666"
   pagecolor="#ffffff"
   id="base"
   inkscape:zoom="2.5522135"
   inkscape:cx="3.7570174"
   inkscape:cy="-1.9204327"
   inkscape:window-x="404"
   inkscape:window-y="248"
   inkscape:current-layer="Layer_1"
   showgrid="true"
   showguides="true"
   inkscape:guide-bbox="true"><inkscape:grid
     id="GridFromPre046Settings"
     type="xygrid"
     originx="0px"
     originy="0px"
     spacingx="4px"
     spacingy="4px"
     color="#0000ff"
     empcolor="#0000ff"
     opacity="0.2"
     empopacity="0.4"
     empspacing="2"
     enabled="true"
     visible="true" /></sodipodi:namedview>
<metadata
   id="metadata3">
	<ns:sfw>
		<ns:slices>
			<ns:slice
   y="0"
   x="0"
   height="128"
   width="128"
   sliceID="1316743234" />
		</ns:slices>
		<ns:sliceSourceBounds
   y="0"
   x="0"
   height="128"
   width="128"
   bottomLeftOrigin="true" />
		<ns:optimizationSettings>
			<ns:targetSettings
   targetSettingsID="0"
   fileFormat="PNG24Format">
				<ns:PNG24Format
   transparency="true"
   filtered="false"
   matteColor="#FFFFFF"
   noMatteColor="false"
   interlaced="false">
					</ns:PNG24Format>
			</ns:targetSettings>
			<ns:targetSettings
   targetSettingsID="1696735251"
   fileFormat="PNG24Format">
				<ns:PNG24Format
   transparency="true"
   filtered="false"
   matteColor="#FFFFFF"
   noMatteColor="false"
   interlaced="false">
					</ns:PNG24Format>
			</ns:targetSettings>
		</ns:optimizationSettings>
	</ns:sfw>
<rdf:RDF><cc:Work
     rdf:about=""><dc:format>image/svg+xml</dc:format><dc:type
       rdf:resource="http://purl.org/dc/dcmitype/StillImage" /></cc:Work></rdf:RDF></metadata>

<radialGradient
   id="XMLID_7_"
   cx="102"
   cy="112.3047"
   r="139.5585"
   gradientUnits="userSpaceOnUse">
	<stop
   offset="0"
   style="stop-color:#00537D"
   id="stop16" />
	<stop
   offset="0.0151"
   style="stop-color:#186389"
   id="stop18" />
	<stop
   offset="0.0558"
   style="stop-color:#558CA8"
   id="stop20" />
	<stop
   offset="0.0964"
   style="stop-color:#89AFC3"
   id="stop22" />
	<stop
   offset="0.1357"
   style="stop-color:#B3CCD8"
   id="stop24" />
	<stop
   offset="0.1737"
   style="stop-color:#D4E2E9"
   id="stop26" />
	<stop
   offset="0.2099"
   style="stop-color:#ECF2F5"
   id="stop28" />
	<stop
   offset="0.2435"
   style="stop-color:#FAFCFD"
   id="stop30" />
	<stop
   offset="0.2722"
   style="stop-color:#FFFFFF"
   id="stop32" />
</radialGradient>

<radialGradient
   id="XMLID_8_"
   cx="102"
   cy="112.3047"
   r="139.55859"
   gradientUnits="userSpaceOnUse">
	<stop
   offset="0"
   style="stop-color:#535557"
   id="stop37" />
	
	<stop
   offset="0.11366145"
   style="stop-color:#898A8C"
   id="stop41" />
	
	
	<stop
   offset="0.20296688"
   style="stop-color:#ECECEC"
   id="stop47" />
	<stop
   offset="0.2363"
   style="stop-color:#FAFAFA"
   id="stop49" />
	<stop
   offset="0.2722"
   style="stop-color:#FFFFFF"
   id="stop51" />
	<stop
   offset="0.5313"
   style="stop-color:#FAFAFA"
   id="stop53" />
	<stop
   offset="0.8449"
   style="stop-color:#EBECEC"
   id="stop55" />
	<stop
   offset="1"
   style="stop-color:#E1E2E3"
   id="stop57" />
</radialGradient>

<linearGradient
   id="XMLID_9_"
   gradientUnits="userSpaceOnUse"
   x1="94.3438"
   y1="102.3447"
   x2="86.5356"
   y2="94.5366">
	<stop
   offset="0"
   style="stop-color:#FFFFFF"
   id="stop62" />
	<stop
   offset="1"
   style="stop-color:#555753"
   id="stop64" />
</linearGradient>

<linearGradient
   id="XMLID_10_"
   gradientUnits="userSpaceOnUse"
   x1="95"
   y1="103"
   x2="86.5865"
   y2="94.5865">
	<stop
   offset="0"
   style="stop-color:#FFFFFF"
   id="stop69" />
	<stop
   offset="1"
   style="stop-color:#555753"
   id="stop71" />
</linearGradient>

<linearGradient
   id="XMLID_11_"
   gradientUnits="userSpaceOnUse"
   x1="95"
   y1="103"
   x2="87.293"
   y2="95.293">
	<stop
   offset="0"
   style="stop-color:#FFFFFF"
   id="stop76" />
	<stop
   offset="1"
   style="stop-color:#393B38"
   id="stop78" />
</linearGradient>

<linearGradient
   id="XMLID_12_"
   gradientUnits="userSpaceOnUse"
   x1="96"
   y1="104"
   x2="88.0002"
   y2="96.0002">
	<stop
   offset="0"
   style="stop-color:#888A85"
   id="stop83" />
	<stop
   offset="0.0072"
   style="stop-color:#8C8E89"
   id="stop85" />
	<stop
   offset="0.0673"
   style="stop-color:#ABACA9"
   id="stop87" />
	<stop
   offset="0.1347"
   style="stop-color:#C5C6C4"
   id="stop89" />
	<stop
   offset="0.2115"
   style="stop-color:#DBDBDA"
   id="stop91" />
	<stop
   offset="0.3012"
   style="stop-color:#EBEBEB"
   id="stop93" />
	<stop
   offset="0.4122"
   style="stop-color:#F7F7F6"
   id="stop95" />
	<stop
   offset="0.5679"
   style="stop-color:#FDFDFD"
   id="stop97" />
	<stop
   offset="1"
   style="stop-color:#FFFFFF"
   id="stop99" />
</linearGradient>
<path
   sodipodi:nodetypes="cccccccc"
   transform="matrix(1.0416667,0,0,1.0357143,-9.9583333,-3.3215342)"
   style="opacity:0.30684932;fill:#000000;fill-opacity:1;filter:url(#filter3241)"
   d="M 23,9 L 23.040816,121 L 84.172,121 C 84.702,121 85.211,120.789 85.586,120.414 L 118.414,87.586 C 118.789,87.211 119,86.702 119,86.172 L 119,9 L 23,9 z"
   id="path4081" /><path
   sodipodi:nodetypes="cccccccc"
   transform="matrix(1.0416667,0,0,1.0357143,-9.9583333,-3.3215342)"
   style="opacity:0.89589041000000003;fill:#000000;fill-opacity:1;filter:url(#filter3772)"
   d="M 24.919999,10.931136 L 24.919999,119.06907 L 83.596,119.06897 C 84.126,119.06897 84.635,118.85797 85.01,118.48297 L 116.494,86.717034 C 116.869,86.342034 117.08,85.833034 117.08,85.303034 L 117.08,10.931136 L 24.919999,10.931136 z"
   id="path3726" /><path
   id="path6594"
   d="M 23,9.9655172 L 23.040816,121 L 84.172,121 C 84.702,121 85.211,120.789 85.586,120.414 L 118.414,87.586 C 118.789,87.211 119,86.702 119,86.172 L 119,9.9655172 L 23,9.9655172 z"
   style="opacity:0.30684932;fill:#000000;fill-opacity:1;filter:url(#filter3241)"
   transform="matrix(1.0416667,0,0,1.0357143,-9.9583333,-3.3215342)"
   sodipodi:nodetypes="cccccccc" /><path
   style="fill:url(#radialGradient2275)"
   d="M 16.000002,8 L 16.000002,120 L 77.172002,120 C 77.702002,120 78.211002,119.789 78.586002,119.414 L 111.414,86.586 C 111.789,86.211 112,85.702 112,85.172 L 112,8 L 16.000002,8 z "
   id="path34"
   sodipodi:nodetypes="cccccccc" /><path
   style="fill:url(#radialGradient2272);fill-opacity:1"
   d="M 19.678725,10.7 C 19.139449,10.7 18.700002,11.140836 18.700002,11.681818 L 18.000002,117.01818 C 18.000002,117.56015 18.439449,118 18.978725,118 L 76.891747,118 C 77.149151,118 77.401662,117.89593 77.583704,117.71233 L 109.71323,85.4812 C 109.89626,85.2976 110,85.045273 110,84.787055 L 110,10.981818 C 110,10.440836 109.56153,10 109.02128,10 L 19.678725,10.7 z"
   id="path59"
   sodipodi:nodetypes="ccccccccccc" /><g
   id="g1973"
   transform="translate(2.4e-6,0)"><path
     style="opacity:0.10000000000000001;fill:url(#linearGradient2291);filter:url(#filter4107)"
     id="path66"
     d="M 111.414,86.586 C 111.664,86.336 85.035,85 80,85 C 78.346,85 77,86.346 77,88 C 77,93.035 78.336,119.664 78.586,119.414 L 111.414,86.586 z"
     sodipodi:nodetypes="csscc" /><path
     style="opacity:0.2;fill:#000000;filter:url(#filter4209);fill-opacity:1"
     id="path73"
     d="M 111.414,86.586 C 111.789,86.211 89.444,86 80,86 C 78.897,86 78,86.897 78,88 C 78,97.444 78.211,119.789 78.586,119.414 L 111.414,86.586 z"
     sodipodi:nodetypes="csscc" /><path
     style="opacity:0.10000000000000001;fill:url(#linearGradient2295);filter:url(#filter4171)"
     id="path80"
     d="M 111.414,86.586 C 111.653,86.347 89.807,87 80,87 C 79.447,87 79,87.447 79,88 C 79,97.807 78.347,119.653 78.586,119.414 L 111.414,86.586 z"
     sodipodi:nodetypes="csscc" /><path
     style="fill:url(#linearGradient2297)"
     id="path101"
     d="M 78.586,119.414 C 78.586,119.414 90.5,109.5 96,104 C 101.5,98.5 111.414,86.586 111.414,86.586 C 111.414,86.586 90.25,88 80,88 C 80,98.25 78.586,119.414 78.586,119.414 z"
     sodipodi:nodetypes="csccc" /></g>

<path
   style="fill:none;fill-rule:evenodd;stroke:#000000;stroke-width:1px;stroke-linecap:butt;stroke-linejoin:miter;stroke-opacity:1"
   d="M 100,32 L 100,32 z"
   id="path3341" /><path
   style="fill:url(#linearGradient12421);fill-opacity:1;fill-rule:evenodd;stroke:none;stroke-width:1px;stroke-linecap:butt;stroke-linejoin:miter;stroke-opacity:1;filter:url(#filter3648)"
   d="M 22.5,42.5 L 20.25,58 L 34.25,46.25 L 22.5,42.5 z M 44.25,43 L 56.25,57.625 L 67.25,57.5 L 84.5,44.75 L 44.25,43 z M 94.25,45 L 103.5,57.375 L 109.5,57.375 L 114,46 L 94.25,45 z M 10.75,91.75 L 8.5,105.125 L 23,94.25 L 10.75,91.75 z M 101.75,93 L 83.75,94 L 91.5,105.375 L 98.75,104.875 L 101.75,93 z M 70.75,93.5 L 36.25,93.75 L 45,106.5625 L 55.3125,105.625 L 70.75,93.5 z"
   id="path12384"
   clip-path="url(#clipPath3662)"
   transform="translate(350.57778,-69.844761)" /><path
   clip-path="url(#clipPath3662)"
   id="path12387"
   d="M 22.5,42.5 L 13.837695,55.249263 L 20.25,58 L 34.25,46.25 L 22.5,42.5 z M 94.25,45 L 103.5,57.375 L 121.52082,58.43566 L 114,46 L 94.25,45 z M 10.75,91.75 L 0.54504873,104.41789 L 23,94.25 L 10.75,91.75 z M 101.75,93 L 83.75,94 L 91.5,105.375 L 108.64949,105.75888 L 101.75,93 z"
   style="opacity:0.45049504;fill:url(#linearGradient12423);fill-opacity:1;fill-rule:evenodd;stroke:none;stroke-width:1px;stroke-linecap:butt;stroke-linejoin:miter;stroke-opacity:1;filter:url(#filter3648)"
   sodipodi:nodetypes="ccccccccccccccccccc"
   transform="translate(350.57778,-69.844761)" /><path
   sodipodi:type="arc"
   style="fill:url(#radialGradient4007);fill-opacity:1;stroke:none;stroke-width:3.1559999;stroke-linecap:round;stroke-linejoin:round;stroke-miterlimit:4;stroke-dasharray:none;stroke-dashoffset:0;stroke-opacity:1;filter:url(#filter3712)"
   id="path3678"
   sodipodi:cx="78.624741"
   sodipodi:cy="73.794548"
   sodipodi:rx="2.951782"
   sodipodi:ry="4.2935009"
   d="M 81.576523,73.794548 A 2.951782,4.2935009 0 1 1 75.672959,73.794548 A 2.951782,4.2935009 0 1 1 81.576523,73.794548 z"
   transform="matrix(0.8832558,-0.2345346,0.2522855,0.8211094,2.7768935,46.667167)" /><g
   id="g4704"
   transform="matrix(-0.7539914,0,0,0.7539914,189.63437,-77.128782)"><g
     id="layer4"
     style="display:inline"
     transform="translate(-42.6661,-8.40242)" /><g
     id="layer5"
     style="display:inline"
     transform="translate(-42.6661,-8.40242)" /><rect
     id="rect1327"
     style="opacity:0.57786889;fill:#ffffff;fill-opacity:1;fill-rule:nonzero;stroke:none;stroke-width:3.63199997;stroke-linecap:round;stroke-linejoin:round;stroke-miterlimit:4;stroke-dasharray:none;stroke-dashoffset:4;stroke-opacity:1"
     y="-69.935089"
     x="-129.13548"
     height="0"
     width="1" /><rect
     id="rect2482"
     style="opacity:0.57786889;fill:#ffffff;fill-opacity:1;fill-rule:nonzero;stroke:none;stroke-width:3.63199997;stroke-linecap:round;stroke-linejoin:round;stroke-miterlimit:4;stroke-dasharray:none;stroke-dashoffset:4;stroke-opacity:1"
     y="-97.4627"
     x="-164.2623"
     height="0"
     width="1" /><g
     id="g4640"
     style="opacity:0.40163933"
     transform="matrix(-0.782995,0,0,0.650879,-2646.058,515.8389)" /><g
     id="g4646"
     style="opacity:0.40163933"
     transform="matrix(-0.782995,0,0,0.650879,-2646.058,515.8389)" /><g
     id="g4730"
     style="opacity:0.40163933"
     transform="matrix(1,0,0,0.650879,554.9047,523.1667)" /><g
     id="g4748"
     style="opacity:0.40163933"
     transform="matrix(1,0,0,0.650879,554.9047,523.1667)" /><g
     id="g2560"
     style="display:inline"
     transform="translate(-226.6661,-144.7536)" /><g
     id="g2562"
     style="display:inline"
     transform="translate(-226.6661,-144.7536)" /><rect
     id="rect2568"
     style="opacity:0.57786889;fill:#ffffff;fill-opacity:1;fill-rule:nonzero;stroke:none;stroke-width:3.63199997;stroke-linecap:round;stroke-linejoin:round;stroke-miterlimit:4;stroke-dasharray:none;stroke-dashoffset:4;stroke-opacity:1"
     y="-206.28629"
     x="-313.1355"
     height="0"
     width="1" /><rect
     id="rect2570"
     style="opacity:0.57786889;fill:#ffffff;fill-opacity:1;fill-rule:nonzero;stroke:none;stroke-width:3.63199997;stroke-linecap:round;stroke-linejoin:round;stroke-miterlimit:4;stroke-dasharray:none;stroke-dashoffset:4;stroke-opacity:1"
     y="-233.8139"
     x="-348.2623"
     height="0"
     width="1" /><g
     id="g2574"
     style="opacity:0.40163933"
     transform="matrix(-0.782995,0,0,0.650879,-2830.058,379.4877)" /><g
     id="g2576"
     style="opacity:0.40163933"
     transform="matrix(-0.782995,0,0,0.650879,-2830.058,379.4877)" /><g
     id="g2578"
     style="opacity:0.40163933"
     transform="matrix(1,0,0,0.650879,370.9047,386.8155)" /><g
     id="g2580"
     style="opacity:0.40163933"
     transform="matrix(1,0,0,0.650879,370.9047,386.8155)" /><g
     id="g3260"
     style="display:inline"
     transform="translate(14.5654,-180.3099)" /><g
     id="g3262"
     style="display:inline"
     transform="translate(14.5654,-180.3099)" /><rect
     id="rect3286"
     style="opacity:0.57786889;fill:#ffffff;fill-opacity:1;fill-rule:nonzero;stroke:none;stroke-width:3.63199997;stroke-linecap:round;stroke-linejoin:round;stroke-miterlimit:4;stroke-dasharray:none;stroke-dashoffset:4;stroke-opacity:1"
     y="-241.84259"
     x="-71.904022"
     height="0"
     width="1" /><rect
     id="rect3288"
     style="opacity:0.57786889;fill:#ffffff;fill-opacity:1;fill-rule:nonzero;stroke:none;stroke-width:3.63199997;stroke-linecap:round;stroke-linejoin:round;stroke-miterlimit:4;stroke-dasharray:none;stroke-dashoffset:4;stroke-opacity:1"
     y="-269.37021"
     x="-107.03083"
     height="0"
     width="1" /><g
     id="g3292"
     style="opacity:0.40163933"
     transform="matrix(-0.782995,0,0,0.650879,-2588.827,343.9314)" /><g
     id="g3294"
     style="opacity:0.40163933"
     transform="matrix(-0.782995,0,0,0.650879,-2588.827,343.9314)" /><g
     id="g3296"
     style="opacity:0.40163933"
     transform="matrix(1,0,0,0.650879,612.1362,351.2592)" /><g
     id="g3298"
     style="opacity:0.40163933"
     transform="matrix(1,0,0,0.650879,612.1362,351.2592)" /><g
     id="g2334"
     style="display:inline"
     transform="translate(156.2439,-208.1699)" /><g
     id="g2336"
     style="display:inline"
     transform="translate(156.2439,-208.1699)" /><rect
     id="rect2342"
     style="opacity:0.57786889;fill:#ffffff;fill-opacity:1;fill-rule:nonzero;stroke:none;stroke-width:3.63199997;stroke-linecap:round;stroke-linejoin:round;stroke-miterlimit:4;stroke-dasharray:none;stroke-dashoffset:4;stroke-opacity:1"
     y="-269.70258"
     x="69.774521"
     height="0"
     width="1" /><rect
     id="rect2344"
     style="opacity:0.57786889;fill:#ffffff;fill-opacity:1;fill-rule:nonzero;stroke:none;stroke-width:3.63199997;stroke-linecap:round;stroke-linejoin:round;stroke-miterlimit:4;stroke-dasharray:none;stroke-dashoffset:4;stroke-opacity:1"
     y="-297.23019"
     x="34.647701"
     height="0"
     width="1" /><g
     id="g2348"
     style="opacity:0.40163933"
     transform="matrix(-0.782995,0,0,0.650879,-2447.148,316.0714)" /><g
     id="g2350"
     style="opacity:0.40163933"
     transform="matrix(-0.782995,0,0,0.650879,-2447.148,316.0714)" /><g
     id="g2352"
     style="opacity:0.40163933"
     transform="matrix(1,0,0,0.650879,753.8147,323.3992)" /><g
     id="g2354"
     style="opacity:0.40163933"
     transform="matrix(1,0,0,0.650879,753.8147,323.3992)" /><g
     id="g2360"
     style="display:inline"
     transform="translate(397.4754,-243.7262)" /><g
     id="g2362"
     style="display:inline"
     transform="translate(397.4754,-243.7262)" /><rect
     id="rect2376"
     style="opacity:0.57786889;fill:#ffffff;fill-opacity:1;fill-rule:nonzero;stroke:none;stroke-width:3.63199997;stroke-linecap:round;stroke-linejoin:round;stroke-miterlimit:4;stroke-dasharray:none;stroke-dashoffset:4;stroke-opacity:1"
     y="-305.25888"
     x="311.00598"
     height="0"
     width="1" /><rect
     id="rect2378"
     style="opacity:0.57786889;fill:#ffffff;fill-opacity:1;fill-rule:nonzero;stroke:none;stroke-width:3.63199997;stroke-linecap:round;stroke-linejoin:round;stroke-miterlimit:4;stroke-dasharray:none;stroke-dashoffset:4;stroke-opacity:1"
     y="-332.7865"
     x="275.87918"
     height="0"
     width="1" /><g
     id="g2382"
     style="opacity:0.40163933"
     transform="matrix(-0.782995,0,0,0.650879,-2205.917,280.5151)" /><g
     id="g2384"
     style="opacity:0.40163933"
     transform="matrix(-0.782995,0,0,0.650879,-2205.917,280.5151)" /><g
     id="g2386"
     style="opacity:0.40163933"
     transform="matrix(1,0,0,0.650879,995.0462,287.8429)" /><g
     id="g2388"
     style="opacity:0.40163933"
     transform="matrix(1,0,0,0.650879,995.0462,287.8429)" /><g
     id="g4414"
     transform="matrix(-0.7179118,0,0,0.7179118,162.34542,191.41121)"><g
       id="g3232"
       transform="translate(214.92589,-100.31048)" /><g
       id="g4591"
       transform="translate(214.92589,-100.31048)" /><path
       id="path3300"
       style="fill:url(#linearGradient3292);fill-opacity:1;stroke:none;stroke-width:8;stroke-linecap:round;stroke-linejoin:round;stroke-miterlimit:4;stroke-dashoffset:1.08779998;stroke-opacity:1"
       d="M 36.38397,16.014487 C 35.368416,16.022627 34.396138,16.426825 33.674128,17.14105 L 17.141042,33.674136 C 15.619653,35.196143 15.619658,37.663151 17.141038,39.18516 L 41.925447,64.000017 L 17.141043,88.814869 C 15.619658,90.336872 15.619658,92.803885 17.141043,94.325888 L 33.674129,110.85897 C 35.196133,112.38036 37.663145,112.38036 39.185158,110.85898 L 64.000009,86.074579 L 88.814857,110.85898 C 90.336869,112.38036 92.803876,112.38036 94.325882,110.85897 L 110.85897,94.325889 C 112.38035,92.803884 112.38035,90.336877 110.85897,88.814865 L 86.074572,64.000017 L 110.85898,39.185165 C 112.38035,37.663151 112.38035,35.196143 110.85897,33.674132 L 94.325885,17.141047 C 92.803876,15.619666 90.336868,15.619662 88.814861,17.141051 L 64.000009,41.925455 L 39.185152,17.141046 C 38.440691,16.404445 37.431131,15.998429 36.38397,16.014487 z M 66.770743,77.792808 C 66.038628,77.052845 65.040943,76.636472 64.000009,76.636472 C 62.959075,76.636473 61.961385,77.052844 61.229271,77.792812 L 66.770743,77.792808 z" /><path
       id="path3507"
       clip-path="url(#clipPath3559)"
       style="fill:#000000;fill-opacity:1;fill-rule:evenodd;stroke:#000000;stroke-width:0.7451762px;stroke-linecap:butt;stroke-linejoin:miter;stroke-opacity:1;filter:url(#filter3549)"
       transform="matrix(0.9743255,0,0,0.9743255,99.290143,5.5404808)"
       d="M -62.57895,106.7868 L -36.415999,79.916739 L -10.606602,106.43324 L -36.415999,66.128157 L -62.57895,106.7868 z" /><path
       id="path5159"
       style="opacity:0.49812736;fill:url(#linearGradient3294);fill-opacity:1;fill-rule:evenodd;stroke:none;stroke-width:1px;stroke-linecap:butt;stroke-linejoin:miter;stroke-opacity:1;filter:url(#filter3477)"
       transform="matrix(0,1.8163775,-1.8163775,0,130.55195,34.179955)"
       d="M 31.7,16 L 34.575,12.625 C 33.523795,10.929242 30.639864,10.336982 28.6375,12.3125 L 31.45,15.6875 L 31.7,16 z" /><path
       id="path3485"
       style="opacity:0.79026214;fill:url(#linearGradient3296);fill-opacity:1;fill-rule:evenodd;stroke:none;stroke-width:1px;stroke-linecap:butt;stroke-linejoin:miter;stroke-opacity:1;filter:url(#filter3477)"
       transform="matrix(1.7938181,0,0,-1.7938181,-20.276758,130.94405)"
       d="M 31.7,16 L 34.575,12.625 C 33.523795,10.929242 30.639864,10.336982 28.6375,12.3125 L 31.45,15.6875 L 31.7,16 z" /><path
       id="path3493"
       style="opacity:0.49812736;fill:url(#linearGradient3298);fill-opacity:1;fill-rule:evenodd;stroke:none;stroke-width:1px;stroke-linecap:butt;stroke-linejoin:miter;stroke-opacity:1;filter:url(#filter3477)"
       transform="matrix(0,1.6448195,1.6448195,0,-0.724353,39.584706)"
       d="M 31.7,16 L 34.575,12.625 C 33.523795,10.929242 30.639864,10.336982 28.6375,12.3125 L 31.45,15.6875 L 31.7,16 z" /><path
       id="rect2323"
       style="opacity:0.92134836;fill:url(#linearGradient3301);fill-opacity:1;stroke:none;stroke-width:0.69921422;stroke-linecap:round;stroke-linejoin:round;stroke-miterlimit:4;stroke-dasharray:none;stroke-dashoffset:1.08779998;stroke-opacity:0"
       d="M 91.558091,23.43728 L 64.000006,50.995365 L 36.441924,23.437284 L 23.437276,36.441932 L 50.995358,64.000013 L 23.437269,91.558102 L 36.441924,104.56274 L 64.000004,77.00466 L 91.558088,104.56274 L 104.56273,91.558096 L 77.004652,64.000012 L 104.56273,36.441929 L 91.558091,23.43728 z" /><path
       id="path3487"
       style="opacity:0.79026214;fill:url(#linearGradient3304);fill-opacity:1;fill-rule:evenodd;stroke:none;stroke-width:1px;stroke-linecap:butt;stroke-linejoin:miter;stroke-opacity:1;filter:url(#filter3477)"
       transform="matrix(1.6448195,0,0,-1.6448195,-53.800876,129.5366)"
       d="M 88.7,16 L 91.575,12.625 C 90.523795,10.929242 87.639864,10.336982 85.6375,12.3125 L 88.45,15.6875 L 88.7,16 z" /><path
       id="path3565"
       clip-path="url(#clipPath3559)"
       style="fill:url(#radialGradient8545);fill-opacity:1;fill-rule:evenodd;stroke:none;stroke-width:1px;stroke-linecap:butt;stroke-linejoin:miter;stroke-opacity:1;filter:url(#filter3549)"
       transform="matrix(0.9743255,0,0,-0.9743255,99.290147,122.00005)"
       d="M -62.57895,106.7868 L -36.415999,79.916739 L -10.606602,106.43324 L -36.415999,66.128157 L -62.57895,106.7868 z" /><path
       id="path3403"
       style="opacity:0.79026214;fill:url(#linearGradient3310);fill-opacity:1;fill-rule:evenodd;stroke:none;stroke-width:1px;stroke-linecap:butt;stroke-linejoin:miter;stroke-opacity:1;filter:url(#filter3477)"
       transform="matrix(1.4958209,0,0,1.4958209,-10.888668,0.6143956)"
       d="M 31.7,16 L 34.575,12.625 C 33.523795,10.929242 30.639864,10.336982 28.6375,12.3125 L 31.45,15.6875 L 31.7,16 z" /><path
       id="path3481"
       style="opacity:0.79026214;fill:url(#linearGradient3312);fill-opacity:1;fill-rule:evenodd;stroke:none;stroke-width:1px;stroke-linecap:butt;stroke-linejoin:miter;stroke-opacity:1;filter:url(#filter3477)"
       transform="matrix(1.5356935,0,0,1.5356935,-44.142789,0.2377555)"
       d="M 88.7,16 L 91.575,12.625 C 90.523795,10.929242 87.639864,10.336982 85.6375,12.3125 L 88.45,15.6875 L 88.7,16 z" /><path
       id="path3328"
       style="opacity:0.92134836;fill:none;fill-opacity:1;stroke:url(#linearGradient3314);stroke-width:2.3235724;stroke-linecap:round;stroke-linejoin:round;stroke-miterlimit:4;stroke-dasharray:none;stroke-dashoffset:1.08779998;stroke-opacity:1;filter:url(#filter3354)"
       transform="matrix(0.9743255,0,0,0.9743255,5.5404775,5.5404852)"
       d="M 88.284271,18.368396 L 60,46.652666 L 31.715729,18.368396 L 18.368396,31.715729 L 46.652666,60 L 18.368396,88.284271 L 31.715729,101.63161 L 60,73.347334 L 88.284271,101.63161 L 101.63161,88.284271 L 73.347334,60 L 101.63161,31.715729 L 88.284271,18.368396 z" /><path
       id="path3374"
       style="fill:url(#linearGradient3316);fill-opacity:1;stroke:none;stroke-width:1.01534986;stroke-linecap:round;stroke-linejoin:round;stroke-miterlimit:4;stroke-dasharray:none;stroke-dashoffset:1.08779998;stroke-opacity:1"
       d="M 36.427153,23.374602 L 35.696409,24.105346 L 23.424273,36.377482 L 36.183569,24.592505 L 64.001323,50.998249 L 91.293853,24.592506 L 102.2263,35.524947 C 102.13068,36.019464 102.00159,36.499086 101.86092,36.986433 L 90.015918,50.780093 C 79.333103,56.105894 64.437356,61.359223 48.422674,61.375883 L 48.696698,61.649906 C 49.156176,61.655321 49.604872,61.68036 50.06685,61.680362 C 66.129599,61.680361 77.174729,58.372504 87.884581,53.033222 L 103.62689,37.29091 C 103.69171,37.066347 103.75182,36.844556 103.80958,36.621059 C 103.87717,36.35953 103.94071,36.096079 103.99227,35.829425 L 91.537438,23.374602 L 90.806694,24.105347 L 64.001323,50.998249 L 36.427153,23.374602 z" /><path
       id="path5167"
       style="fill:url(#linearGradient3318);fill-opacity:1;stroke:none;stroke-width:1.01534986;stroke-linecap:round;stroke-linejoin:round;stroke-miterlimit:4;stroke-dasharray:none;stroke-dashoffset:1.08779998;stroke-opacity:1"
       d="M 36.444861,23.441989 L 23.441982,36.444869 L 48.714415,61.717302 C 49.173883,61.722709 49.622581,61.747747 50.084559,61.747749 C 66.14731,61.747746 77.192437,58.439891 87.90229,53.100609 L 103.64461,37.358305 C 103.78528,36.870954 103.91436,36.391328 104.00998,35.896811 L 91.555147,23.441989 L 64.000005,50.997131 L 36.444861,23.441989 z" /><path
       id="path3399"
       style="fill:url(#linearGradient3320);fill-opacity:1;stroke:none;stroke-width:1.01534986;stroke-linecap:round;stroke-linejoin:round;stroke-miterlimit:4;stroke-dasharray:none;stroke-dashoffset:1.08779998;stroke-opacity:1"
       d="M 36.427153,23.374602 L 35.696409,24.105346 L 23.424273,36.377482 L 36.183569,24.592505 L 64.007725,52.836415 L 64.001323,50.998249 L 64.011006,52.82226 L 91.293853,24.592506 L 102.2263,35.524947 C 102.13068,36.019464 102.00159,36.499086 101.86092,36.986433 L 90.015918,50.780093 C 79.333103,56.105894 64.437356,61.359223 48.422674,61.375883 L 48.696698,61.649906 C 49.156176,61.655321 49.604872,61.68036 50.06685,61.680362 C 66.129599,61.680361 77.174729,58.372504 87.884581,53.033222 L 103.62689,37.29091 C 103.69171,37.066347 103.75182,36.844556 103.80958,36.621059 C 103.87717,36.35953 103.94071,36.096079 103.99227,35.829425 L 91.537438,23.374602 L 90.806694,24.105347 L 64.001323,50.998249 L 36.427153,23.374602 z" /></g><g
     id="g5368"
     transform="matrix(-0.6625687,0,0,0.6625687,131.9011,52.667293)" /></g></svg>