<?xml version="1.0" encoding="UTF-8" standalone="no"?>
<!-- Created with Inkscape (http://www.inkscape.org/) -->

<svg
   xmlns:dc="http://purl.org/dc/elements/1.1/"
   xmlns:cc="http://creativecommons.org/ns#"
   xmlns:rdf="http://www.w3.org/1999/02/22-rdf-syntax-ns#"
   xmlns:svg="http://www.w3.org/2000/svg"
   xmlns="http://www.w3.org/2000/svg"
   xmlns:xlink="http://www.w3.org/1999/xlink"
   xmlns:sodipodi="http://sodipodi.sourceforge.net/DTD/sodipodi-0.dtd"
   xmlns:inkscape="http://www.inkscape.org/namespaces/inkscape"
   width="128"
   height="128"
   id="svg1307"
   sodipodi:version="0.32"
   inkscape:version="0.48.1 r9760"
   version="1.0"
   sodipodi:docname="audio-headphones.svgz"
   inkscape:output_extension="org.inkscape.output.svg.inkscape"
   inkscape:export-filename="/home/pinheiro/pics/oxygen-icons/scalable/devices/audio-headphones.png"
   inkscape:export-xdpi="180"
   inkscape:export-ydpi="180">
  <defs
     id="defs1309">
    <linearGradient
       inkscape:collect="always"
       id="linearGradient63013">
      <stop
         style="stop-color:#ffffff;stop-opacity:1;"
         offset="0"
         id="stop63015" />
      <stop
         style="stop-color:#ffffff;stop-opacity:0;"
         offset="1"
         id="stop63017" />
    </linearGradient>
    <linearGradient
       inkscape:collect="always"
       id="linearGradient58626">
      <stop
         style="stop-color:#ffffff;stop-opacity:1;"
         offset="0"
         id="stop58628" />
      <stop
         style="stop-color:#ffffff;stop-opacity:0;"
         offset="1"
         id="stop58630" />
    </linearGradient>
    <linearGradient
       inkscape:collect="always"
       id="linearGradient56867">
      <stop
         style="stop-color:#ffffff;stop-opacity:1;"
         offset="0"
         id="stop56869" />
      <stop
         style="stop-color:#ffffff;stop-opacity:0;"
         offset="1"
         id="stop56871" />
    </linearGradient>
    <linearGradient
       inkscape:collect="always"
       id="linearGradient55981">
      <stop
         style="stop-color:#000000;stop-opacity:1;"
         offset="0"
         id="stop55983" />
      <stop
         style="stop-color:#000000;stop-opacity:0;"
         offset="1"
         id="stop55985" />
    </linearGradient>
    <linearGradient
       inkscape:collect="always"
       id="linearGradient54215">
      <stop
         style="stop-color:#000000;stop-opacity:1;"
         offset="0"
         id="stop54217" />
      <stop
         style="stop-color:#000000;stop-opacity:0;"
         offset="1"
         id="stop54219" />
    </linearGradient>
    <linearGradient
       inkscape:collect="always"
       id="linearGradient53332">
      <stop
         style="stop-color:#ffffff;stop-opacity:1;"
         offset="0"
         id="stop53334" />
      <stop
         style="stop-color:#ffffff;stop-opacity:0;"
         offset="1"
         id="stop53336" />
    </linearGradient>
    <linearGradient
       inkscape:collect="always"
       id="linearGradient51576">
      <stop
         style="stop-color:#ffffff;stop-opacity:1;"
         offset="0"
         id="stop51578" />
      <stop
         style="stop-color:#ffffff;stop-opacity:0;"
         offset="1"
         id="stop51580" />
    </linearGradient>
    <linearGradient
       inkscape:collect="always"
       id="linearGradient49808">
      <stop
         style="stop-color:#000000;stop-opacity:1;"
         offset="0"
         id="stop49810" />
      <stop
         style="stop-color:#000000;stop-opacity:0;"
         offset="1"
         id="stop49812" />
    </linearGradient>
    <linearGradient
       inkscape:collect="always"
       id="linearGradient48890">
      <stop
         style="stop-color:#ffffff;stop-opacity:1;"
         offset="0"
         id="stop48892" />
      <stop
         style="stop-color:#ffffff;stop-opacity:0;"
         offset="1"
         id="stop48894" />
    </linearGradient>
    <linearGradient
       inkscape:collect="always"
       id="linearGradient41702">
      <stop
         style="stop-color:#000000;stop-opacity:1;"
         offset="0"
         id="stop41704" />
      <stop
         style="stop-color:#000000;stop-opacity:0;"
         offset="1"
         id="stop41706" />
    </linearGradient>
    <linearGradient
       inkscape:collect="always"
       id="linearGradient39063">
      <stop
         style="stop-color:#000000;stop-opacity:1;"
         offset="0"
         id="stop39065" />
      <stop
         style="stop-color:#000000;stop-opacity:0;"
         offset="1"
         id="stop39067" />
    </linearGradient>
    <linearGradient
       inkscape:collect="always"
       id="linearGradient23203">
      <stop
         style="stop-color:#000000;stop-opacity:1;"
         offset="0"
         id="stop23205" />
      <stop
         style="stop-color:#000000;stop-opacity:0;"
         offset="1"
         id="stop23207" />
    </linearGradient>
    <linearGradient
       inkscape:collect="always"
       id="linearGradient21434">
      <stop
         style="stop-color:#000000;stop-opacity:1;"
         offset="0"
         id="stop21436" />
      <stop
         style="stop-color:#000000;stop-opacity:0;"
         offset="1"
         id="stop21438" />
    </linearGradient>
    <linearGradient
       id="linearGradient12658">
      <stop
         style="stop-color:#ffffff;stop-opacity:1;"
         offset="0"
         id="stop12660" />
      <stop
         style="stop-color:#000000;stop-opacity:0;"
         offset="1"
         id="stop12662" />
    </linearGradient>
    <linearGradient
       inkscape:collect="always"
       id="linearGradient2890">
      <stop
         style="stop-color:#000000;stop-opacity:1;"
         offset="0"
         id="stop2892" />
      <stop
         style="stop-color:#000000;stop-opacity:0;"
         offset="1"
         id="stop2894" />
    </linearGradient>
    <linearGradient
       inkscape:collect="always"
       id="linearGradient2878">
      <stop
         style="stop-color:#ffffff;stop-opacity:1;"
         offset="0"
         id="stop2880" />
      <stop
         style="stop-color:#ffffff;stop-opacity:0;"
         offset="1"
         id="stop2882" />
    </linearGradient>
    <linearGradient
       inkscape:collect="always"
       id="linearGradient2854">
      <stop
         style="stop-color:#ffffff;stop-opacity:1;"
         offset="0"
         id="stop2856" />
      <stop
         style="stop-color:#ffffff;stop-opacity:0;"
         offset="1"
         id="stop2858" />
    </linearGradient>
    <linearGradient
       id="linearGradient2803">
      <stop
         style="stop-color:#e2dcdc;stop-opacity:1;"
         offset="0"
         id="stop2809" />
      <stop
         id="stop2811"
         offset="0.39074388"
         style="stop-color:#ffffff;stop-opacity:1;" />
      <stop
         id="stop2813"
         offset="0.82692307"
         style="stop-color:#dfd9df;stop-opacity:1;" />
      <stop
         id="stop2815"
         offset="1"
         style="stop-color:#c3c3c3;stop-opacity:1;" />
    </linearGradient>
    <linearGradient
       id="linearGradient2334">
      <stop
         id="stop2346"
         offset="0"
         style="stop-color:#dfe1e1;stop-opacity:1;" />
      <stop
         style="stop-color:#554141;stop-opacity:1;"
         offset="0"
         id="stop20557" />
      <stop
         id="stop2342"
         offset="0.5"
         style="stop-color:#e2dcdc;stop-opacity:1;" />
      <stop
         style="stop-color:#ffffff;stop-opacity:1;"
         offset="0.78201604"
         id="stop2348" />
      <stop
         style="stop-color:#dfd9df;stop-opacity:1;"
         offset="1"
         id="stop2344" />
    </linearGradient>
    <linearGradient
       id="linearGradient2270">
      <stop
         style="stop-color:#000000;stop-opacity:1;"
         offset="0"
         id="stop2272" />
      <stop
         id="stop2286"
         offset="0.11893105"
         style="stop-color:#141414;stop-opacity:1;" />
      <stop
         id="stop2282"
         offset="0.17597927"
         style="stop-color:#282828;stop-opacity:1;" />
      <stop
         style="stop-color:#363636;stop-opacity:1;"
         offset="0.50941366"
         id="stop2284" />
      <stop
         style="stop-color:#303030;stop-opacity:1;"
         offset="0.84284806"
         id="stop2280" />
      <stop
         id="stop2288"
         offset="0.88084084"
         style="stop-color:#141414;stop-opacity:1;" />
      <stop
         style="stop-color:#000000;stop-opacity:1;"
         offset="1"
         id="stop2274" />
    </linearGradient>
    <linearGradient
       inkscape:collect="always"
       xlink:href="#linearGradient12658"
       id="linearGradient4511"
       gradientUnits="userSpaceOnUse"
       gradientTransform="translate(0.176776,-7.214001e-8)"
       x1="16.596193"
       y1="32.796188"
       x2="16.255606"
       y2="46.164215" />
    <radialGradient
       inkscape:collect="always"
       xlink:href="#linearGradient2890"
       id="radialGradient4513"
       gradientUnits="userSpaceOnUse"
       gradientTransform="matrix(1,0,0,1.239918,0,-7.868381)"
       cx="25.353127"
       cy="28.091335"
       fx="25.353127"
       fy="28.091335"
       r="9.6408129" />
    <radialGradient
       inkscape:collect="always"
       xlink:href="#linearGradient2803"
       id="radialGradient4515"
       gradientUnits="userSpaceOnUse"
       gradientTransform="matrix(-0.00932017,1.394366,-2.178833,-0.01456373,90.68496,15.71249)"
       cx="14.509778"
       cy="35.00518"
       fx="14.509778"
       fy="35.00518"
       r="2.8726213" />
    <radialGradient
       inkscape:collect="always"
       xlink:href="#linearGradient2334"
       id="radialGradient4517"
       gradientUnits="userSpaceOnUse"
       gradientTransform="matrix(1.666942,0,0,1.506876,-15.01094,-18.679)"
       cx="22.408136"
       cy="37.070213"
       fx="22.408136"
       fy="37.070213"
       r="3.0923135" />
    <radialGradient
       inkscape:collect="always"
       xlink:href="#linearGradient2803"
       id="radialGradient4519"
       gradientUnits="userSpaceOnUse"
       gradientTransform="matrix(2.915571,0.0290238,-0.01252409,1.258101,-25.00843,-10.75595)"
       cx="13.379482"
       cy="38.20137"
       fx="13.379482"
       fy="38.20137"
       r="3.0453751" />
    <radialGradient
       inkscape:collect="always"
       xlink:href="#linearGradient21434"
       id="radialGradient4521"
       gradientUnits="userSpaceOnUse"
       gradientTransform="translate(-24.34109,-0.719346)"
       cx="23.744551"
       cy="34.788834"
       fx="23.744551"
       fy="34.788834"
       r="3.0923135" />
    <linearGradient
       inkscape:collect="always"
       xlink:href="#linearGradient23203"
       id="linearGradient4523"
       gradientUnits="userSpaceOnUse"
       x1="23.744551"
       y1="38.748631"
       x2="25.186951"
       y2="34.788834" />
    <radialGradient
       inkscape:collect="always"
       xlink:href="#linearGradient41702"
       id="radialGradient4529"
       gradientUnits="userSpaceOnUse"
       gradientTransform="matrix(0.999906,-0.01373107,0.07333252,5.340124,-4.800057,-268.5467)"
       cx="9.3238058"
       cy="65.46804"
       fx="9.3238058"
       fy="65.46804"
       r="5.1136933" />
    <radialGradient
       inkscape:collect="always"
       xlink:href="#linearGradient2854"
       id="radialGradient4531"
       gradientUnits="userSpaceOnUse"
       gradientTransform="matrix(-1,0,0,-5.684198,23.39761,332.1682)"
       cx="12.698806"
       cy="51.895706"
       fx="12.698806"
       fy="51.895706"
       r="5.1136932" />
    <radialGradient
       inkscape:collect="always"
       xlink:href="#linearGradient2803"
       id="radialGradient4541"
       gradientUnits="userSpaceOnUse"
       gradientTransform="matrix(-0.00932017,1.394366,-2.178833,-0.01456373,90.68496,15.71249)"
       cx="14.509778"
       cy="35.00518"
       fx="14.509778"
       fy="35.00518"
       r="2.8726213" />
    <radialGradient
       inkscape:collect="always"
       xlink:href="#linearGradient2334"
       id="radialGradient4543"
       gradientUnits="userSpaceOnUse"
       gradientTransform="matrix(1.666942,0,0,1.506876,-15.01094,-18.679)"
       cx="22.408136"
       cy="37.070213"
       fx="22.408136"
       fy="37.070213"
       r="3.0923135" />
    <linearGradient
       inkscape:collect="always"
       xlink:href="#linearGradient23203"
       id="linearGradient4549"
       gradientUnits="userSpaceOnUse"
       x1="26.836864"
       y1="37.881145"
       x2="23.744551"
       y2="34.788834" />
    <radialGradient
       inkscape:collect="always"
       xlink:href="#linearGradient41702"
       id="radialGradient4555"
       gradientUnits="userSpaceOnUse"
       gradientTransform="matrix(0.999906,-0.01373107,0.07333252,5.340124,-4.800057,-268.5467)"
       cx="9.3238058"
       cy="65.46804"
       fx="9.3238058"
       fy="65.46804"
       r="5.1136933" />
    <radialGradient
       inkscape:collect="always"
       xlink:href="#linearGradient2854"
       id="radialGradient4557"
       gradientUnits="userSpaceOnUse"
       gradientTransform="matrix(-1,0,0,-5.684198,23.39761,332.1682)"
       cx="12.698806"
       cy="51.895706"
       fx="12.698806"
       fy="51.895706"
       r="5.1136932" />
    <radialGradient
       inkscape:collect="always"
       xlink:href="#linearGradient63013"
       id="radialGradient3158"
       gradientUnits="userSpaceOnUse"
       gradientTransform="matrix(0.00863184,0.27465828,-1.7197979,0.05362604,-4.543154,6.369034)"
       cx="26.145737"
       cy="-17.76833"
       fx="26.145737"
       fy="-17.76833"
       r="34.541764" />
    <radialGradient
       inkscape:collect="always"
       xlink:href="#linearGradient55981"
       id="radialGradient3161"
       gradientUnits="userSpaceOnUse"
       gradientTransform="matrix(1.6980398,-1.7427533e-6,1.5513188e-5,14.63059,-13.628418,-1030.2534)"
       cx="19.281994"
       cy="78.556969"
       fx="19.281994"
       fy="78.556969"
       r="2.447025" />
    <radialGradient
       inkscape:collect="always"
       xlink:href="#linearGradient54215"
       id="radialGradient3164"
       gradientUnits="userSpaceOnUse"
       gradientTransform="matrix(1.4278607,-1.1712969e-5,8.8447578e-5,10.697726,-41.732747,-722.06072)"
       cx="107.35215"
       cy="78.328499"
       fx="107.35215"
       fy="78.328499"
       r="2.447025" />
    <radialGradient
       inkscape:collect="always"
       xlink:href="#linearGradient53332"
       id="radialGradient3167"
       gradientUnits="userSpaceOnUse"
       gradientTransform="matrix(1.0517715,0,0,10.697726,17.974481,-711.36426)"
       cx="85.977142"
       cy="73.204399"
       fx="85.977142"
       fy="73.204399"
       r="2.447025" />
    <radialGradient
       inkscape:collect="always"
       xlink:href="#linearGradient51576"
       id="radialGradient3170"
       gradientUnits="userSpaceOnUse"
       gradientTransform="matrix(1.0517715,0,0,10.697726,-1.1658936,-719.59352)"
       cx="20.668358"
       cy="74.121422"
       fx="20.668358"
       fy="74.121422"
       r="2.447025" />
    <radialGradient
       inkscape:collect="always"
       xlink:href="#linearGradient49808"
       id="radialGradient3173"
       gradientUnits="userSpaceOnUse"
       gradientTransform="matrix(-1.2013523,0,0,2.0387406,135.46205,-34.060343)"
       cx="16.369699"
       cy="44.139114"
       fx="16.369699"
       fy="44.139114"
       r="1.7509805" />
    <radialGradient
       inkscape:collect="always"
       xlink:href="#linearGradient49808"
       id="radialGradient3176"
       gradientUnits="userSpaceOnUse"
       gradientTransform="matrix(1.0517715,0,0,2.0387406,-1.2588576,-34.487794)"
       cx="16.369699"
       cy="44.139114"
       fx="16.369699"
       fy="44.139114"
       r="1.7509805" />
    <radialGradient
       inkscape:collect="always"
       xlink:href="#linearGradient2878"
       id="radialGradient3179"
       gradientUnits="userSpaceOnUse"
       gradientTransform="matrix(3.1079395,-0.02363072,-0.0899075,-11.731491,78.580762,928.68966)"
       cx="12.865432"
       cy="73.830261"
       fx="12.865432"
       fy="73.830261"
       r="2.8294306" />
    <radialGradient
       inkscape:collect="always"
       xlink:href="#linearGradient48890"
       id="radialGradient3182"
       gradientUnits="userSpaceOnUse"
       gradientTransform="matrix(-1.0517715,-1.292981e-8,9.7158792e-8,-7.8414806,57.963244,548.08196)"
       cx="38.92181"
       cy="60.765884"
       fx="38.92181"
       fy="60.765884"
       r="2.8281901" />
    <radialGradient
       inkscape:collect="always"
       xlink:href="#linearGradient2803"
       id="radialGradient3185"
       gradientUnits="userSpaceOnUse"
       gradientTransform="matrix(1.0517431,0.00769174,0.02798678,-3.796864,113.52714,304.57292)"
       cx="7.258028"
       cy="63.070908"
       fx="7.258028"
       fy="63.070908"
       r="2.3488126" />
    <radialGradient
       inkscape:collect="always"
       xlink:href="#linearGradient2878"
       id="radialGradient3194"
       gradientUnits="userSpaceOnUse"
       gradientTransform="matrix(1.3994167,-0.02363072,-0.199642,-11.73015,108.61947,928.2663)"
       cx="13.351931"
       cy="73.529305"
       fx="13.351931"
       fy="73.529305"
       r="2.8294306" />
    <linearGradient
       inkscape:collect="always"
       xlink:href="#linearGradient39063"
       id="linearGradient3197"
       gradientUnits="userSpaceOnUse"
       gradientTransform="matrix(-1.0517715,0,0,1.0476463,154.69422,12.288813)"
       x1="37.07943"
       y1="99.367859"
       x2="36.783859"
       y2="58.492859" />
    <radialGradient
       inkscape:collect="always"
       xlink:href="#linearGradient2803"
       id="radialGradient3202"
       gradientUnits="userSpaceOnUse"
       gradientTransform="matrix(3.0666144,-0.01786114,-0.01669478,-2.8441073,70.805039,162.16616)"
       cx="13.775342"
       cy="40.040668"
       fx="13.775342"
       fy="40.040668"
       r="3.0453751" />
    <radialGradient
       inkscape:collect="always"
       xlink:href="#linearGradient21434"
       id="radialGradient3204"
       gradientUnits="userSpaceOnUse"
       gradientTransform="matrix(0.75239212,0.73205334,0.73493586,-0.74944113,54.478105,54.348851)"
       cx="23.744551"
       cy="34.788834"
       fx="23.744551"
       fy="34.788834"
       r="3.0923135" />
    <radialGradient
       inkscape:collect="always"
       xlink:href="#linearGradient2890"
       id="radialGradient3210"
       gradientUnits="userSpaceOnUse"
       gradientTransform="matrix(-1.0517715,0,0,1.2989955,133.05885,3.0765583)"
       cx="14.478127"
       cy="29.50272"
       fx="14.478127"
       fy="29.50272"
       r="9.6408129" />
    <linearGradient
       inkscape:collect="always"
       xlink:href="#linearGradient12658"
       id="linearGradient3213"
       gradientUnits="userSpaceOnUse"
       gradientTransform="matrix(-1.0517715,0,0,1.0476463,132.87291,11.319838)"
       x1="16.596193"
       y1="32.796188"
       x2="16.255606"
       y2="46.164215" />
    <radialGradient
       inkscape:collect="always"
       xlink:href="#linearGradient58626"
       id="radialGradient3219"
       gradientUnits="userSpaceOnUse"
       gradientTransform="matrix(-1.2283272,0.01160224,-0.05216601,-5.4796008,265.08069,496.0835)"
       cx="116.15437"
       cy="78.578934"
       fx="116.15437"
       fy="78.578934"
       r="4.21875" />
    <radialGradient
       inkscape:collect="always"
       xlink:href="#linearGradient2803"
       id="radialGradient3222"
       gradientUnits="userSpaceOnUse"
       gradientTransform="matrix(-1.0516863,0.01335727,-0.10714502,-8.3700548,23.217046,598.20544)"
       cx="8.4597883"
       cy="64.232155"
       fx="8.4597883"
       fy="64.232155"
       r="2.3488126" />
    <radialGradient
       inkscape:collect="always"
       xlink:href="#linearGradient2878"
       id="radialGradient3231"
       gradientUnits="userSpaceOnUse"
       gradientTransform="matrix(-1.3994167,-0.02363072,0.199642,-11.73015,23.134009,928.39684)"
       cx="13.351931"
       cy="73.529305"
       fx="13.351931"
       fy="73.529305"
       r="2.8294306" />
    <linearGradient
       inkscape:collect="always"
       xlink:href="#linearGradient39063"
       id="linearGradient3234"
       gradientUnits="userSpaceOnUse"
       gradientTransform="matrix(1.0517715,0,0,1.0476463,-22.894288,12.280385)"
       x1="37.07943"
       y1="99.367859"
       x2="36.783859"
       y2="58.492859" />
    <radialGradient
       inkscape:collect="always"
       xlink:href="#linearGradient56867"
       id="radialGradient3252"
       gradientUnits="userSpaceOnUse"
       gradientTransform="matrix(-1.0516116,0.01823766,-0.0431496,-2.4685941,51.642643,223.22728)"
       cx="38.784943"
       cy="62.149143"
       fx="38.784943"
       fy="62.149143"
       r="6.09375" />
    <filter
       inkscape:collect="always"
       id="filter4037">
      <feGaussianBlur
         inkscape:collect="always"
         stdDeviation="0.14071859"
         id="feGaussianBlur4039" />
    </filter>
    <filter
       inkscape:collect="always"
       id="filter4041">
      <feGaussianBlur
         inkscape:collect="always"
         stdDeviation="0.10824507"
         id="feGaussianBlur4043" />
    </filter>
  </defs>
  <sodipodi:namedview
     id="base"
     pagecolor="#ffffff"
     bordercolor="#666666"
     borderopacity="1.0"
     inkscape:pageopacity="0.0"
     inkscape:pageshadow="2"
     inkscape:zoom="4"
     inkscape:cx="31.474696"
     inkscape:cy="58.834671"
     inkscape:current-layer="layer1"
     showgrid="true"
     inkscape:document-units="px"
     inkscape:grid-bbox="true"
     showguides="true"
     inkscape:guide-bbox="true"
     inkscape:window-width="942"
     inkscape:window-height="696"
     inkscape:window-x="0"
     inkscape:window-y="0"
     inkscape:window-maximized="0">
    <inkscape:grid
       type="xygrid"
       id="grid4064"
       empspacing="5"
       visible="true"
       enabled="true"
       snapvisiblegridlinesonly="true"
       spacingx="4px"
       spacingy="4px" />
  </sodipodi:namedview>
  <metadata
     id="metadata1312">
    <rdf:RDF>
      <cc:Work
         rdf:about="">
        <dc:format>image/svg+xml</dc:format>
        <dc:type
           rdf:resource="http://purl.org/dc/dcmitype/StillImage" />
        <dc:title></dc:title>
      </cc:Work>
    </rdf:RDF>
  </metadata>
  <g
     id="layer1"
     inkscape:label="Layer 1"
     inkscape:groupmode="layer">
    <path
       inkscape:connector-curvature="0"
       style="fill:#000000;fill-opacity:1;fill-rule:nonzero;stroke:none"
       d="M 16.756199,70.396151 C 5.7436391,70.327658 4,80.48176 4,89.987441 c 0,9.47571 1.8833618,18.859479 12.682672,19.188629 -0.0045,-0.0592 0,-0.12267 0,-0.1831 l 0,-37.791193 c 0,-0.281998 0.0556,-0.555912 0.147053,-0.805626 -0.02814,0.0085 -0.04543,-0.0088 -0.07353,0 z"
       id="path8165"
       inkscape:r_cx="true"
       inkscape:r_cy="true"
       sodipodi:nodetypes="cscccsc" />
    <path
       inkscape:connector-curvature="0"
       style="fill:#555753;fill-opacity:1;fill-rule:nonzero;stroke:none"
       d="m 20.755241,64.801866 c 0.409107,-0.321484 1.327791,-1.109075 2.829806,-1.159544 0.379035,-0.01273 0.676732,0.513197 0.676732,0.891008 0,0 -0.989888,13.323085 -0.989888,25.861319 0,12.538231 0.457329,24.123991 0.457329,24.123991 0,0.3778 0.01999,1.38728 -1.353168,1.47865 l -0.581426,-0.01 c -1.002928,-0.0414 -2.472392,-1.42228 -2.472392,-1.80009 0,0 -0.207877,-11.17163 -0.207877,-23.709868 0,-12.538234 0.789933,-24.538108 0.789933,-24.538108 0,-0.377809 0.567288,-0.914591 0.850951,-1.137499 z"
       id="rect1971"
       sodipodi:nodetypes="cscsccccscs"
       inkscape:r_cx="true"
       inkscape:r_cy="true" />
    <path
       inkscape:connector-curvature="0"
       inkscape:r_cy="true"
       inkscape:r_cx="true"
       sodipodi:nodetypes="cccsccccscc"
       id="path3731"
       d="m 26.515515,63.741751 0.487884,0 c 1.908001,0 4.094838,1.358341 4.212432,6.47998 0,0 -0.235186,9.571278 -0.235186,19.142555 0,9.571277 0.235186,19.142554 0.235186,19.142554 -0.05879,4.94594 -2.807677,7.28268 -5.500038,7.37484 l -0.627827,0.0163 c -1.156708,-0.0499 -1.3548,-0.864 -1.3548,-1.2418 0,0 -0.82315,-12.41172 -0.705558,-24.82344 0.117594,-12.411719 1.17593,-24.823438 1.17593,-24.823438 0,-0.904901 1.305736,-1.317582 2.311977,-1.267623 z"
       style="fill:#000000;fill-opacity:1;fill-rule:nonzero;stroke:none" />
    <path
       inkscape:connector-curvature="0"
       style="opacity:0.79587157;fill:url(#radialGradient3252);fill-opacity:1;fill-rule:nonzero;stroke:none"
       d="M 16.489786,70.514662 C 5.8199528,70.682279 4.1314715,80.731005 4.1314715,90.12529 c 0,3.309095 0.2600305,6.589331 1.0189037,9.494295 -0.073099,-0.831109 -0.098604,-1.66446 -0.098604,-2.520899 0,-9.815737 4.9514888,-18.123018 11.7666938,-20.985664 l 0,-4.779886 c -1e-6,-0.281998 0.04002,-0.568759 0.131472,-0.818474 -0.0031,-1.43e-4 -0.02999,4.42e-4 -0.03287,0 -0.0031,-1.28e-4 -0.02965,-3.82e-4 -0.03287,0 -0.129054,-8.03e-4 -0.267895,-0.002 -0.394415,0 z"
       id="path55989"
       inkscape:r_cx="true"
       inkscape:r_cy="true" />
    <path
       inkscape:connector-curvature="0"
       inkscape:r_cy="true"
       inkscape:r_cx="true"
       style="fill:#b5b5b5;fill-opacity:1;fill-rule:nonzero;stroke:#000000;stroke-width:0.49546164;stroke-linecap:round;stroke-linejoin:round;stroke-miterlimit:4;stroke-opacity:0.48309183;stroke-dasharray:none"
       d="m 19.103993,64.93262 0.255226,0.01421 c 0.603173,-0.0035 0.610975,0.517715 0.610975,1.656876 0,0 -0.329536,5.505173 -0.51721,17.298398 -0.187672,11.793223 -0.09162,29.591896 -0.09162,29.591896 0,0.58487 -0.316918,1.0377 -0.681,1.0474 -1.797645,0.0473 -4.682673,-3.28584 -4.661883,-6.76957 l 0.01721,-37.009952 c 0,-0.377805 2.533096,-5.870673 5.068298,-5.829258 z"
       id="rect3735"
       sodipodi:nodetypes="cccscsccc" />
    <path
       inkscape:connector-curvature="0"
       inkscape:r_cy="true"
       inkscape:r_cx="true"
       sodipodi:nodetypes="cscscssc"
       id="path61265"
       d="m 65.64967,11.821472 c -21.655403,0.484635 -36.212177,12.422147 -41.146888,22.949587 -0.976239,2.082652 -0.244731,3.921222 2.160963,6.400884 10.646524,-11.118869 20.79778,-17.12463 39.466929,-17.12463 18.669147,0 29.13742,6.38655 39.335026,17.380642 2.75956,-2.915447 2.74725,-4.121653 1.8895,-6.360061 -3.54378,-9.247914 -18.155649,-23.246423 -40.411519,-23.246422 -0.434684,0 -0.862628,-0.0096 -1.294011,0 z"
       style="fill:none;stroke:#000000;stroke-width:0.81037372;stroke-linecap:round;stroke-linejoin:round;stroke-miterlimit:4;stroke-opacity:0.56763288;stroke-dasharray:none" />
    <g
       id="g44343"
       transform="matrix(1.0517715,0,0,1.0476463,-1.2588576,11.126213)"
       inkscape:r_cx="true"
       inkscape:r_cy="true">
      <path
         inkscape:connector-curvature="0"
         sodipodi:nodetypes="cssssssscsssssscscsssssssssssssccssssc"
         id="path17051"
         d="m 29.25,20.84375 c -0.0074,0.0017 -0.02389,0.02936 -0.03125,0.03125 -0.01452,0.0041 -0.04839,-0.0048 -0.0625,0 -0.01389,0.0051 -0.04907,0.02545 -0.0625,0.03125 -0.01319,0.0061 -0.04981,0.02444 -0.0625,0.03125 C 29.02505,20.9411 29.00608,20.96501 29,20.96875 28.98811,20.97655 28.94881,20.9915 28.9375,21 c -0.0055,0.0044 -0.02589,0.02666 -0.03125,0.03125 -0.0208,0.01902 -0.04436,0.04079 -0.0625,0.0625 0,0 -3.240088,3.084277 -6,6.625 -2.759912,3.540723 -5.234354,7.82957 -5.304687,7.8125 -0.123687,-0.03002 -0.436514,-0.0625 -0.726563,-0.0625 -2.65188,0 -4.8125,2.095814 -4.8125,4.65625 0,2.560436 2.160619,4.625 4.8125,4.625 2.65188,0 4.781251,-2.064565 4.78125,-4.625 0,-1.320225 -0.550872,-2.53003 -1.46875,-3.375 0.227525,-0.43628 2.131332,-4.024322 4.71875,-7.34375 2.759912,-3.540724 6.3125,-6.781251 6.3125,-6.78125 0.0044,-0.0056 -0.0041,-0.02556 0,-0.03125 0.0039,-0.0058 0.02757,-0.02537 0.03125,-0.03125 0.0138,-0.02387 0.02103,-0.0686 0.03125,-0.09375 0.0023,-0.0064 0.02913,-0.02482 0.03125,-0.03125 0.0038,-0.01299 -0.0029,-0.04927 0,-0.0625 0.0062,-0.03335 0.0303,-0.09051 0.03125,-0.125 -3.6e-5,-0.01387 8.63e-4,-0.0485 0,-0.0625 -0.0013,-0.01405 -0.02916,-0.04837 -0.03125,-0.0625 -0.0025,-0.01417 0.0033,-0.04828 0,-0.0625 C 31.2463,22.04827 31.22322,22.01424 31.21875,22 31.19686,21.93596 31.16224,21.843746 31.125,21.78125 31.10771,21.75361 31.08269,21.71444 31.0625,21.6875 c -0.0627,-0.0802 -0.162652,-0.180263 -0.25,-0.25 -0.02977,-0.02287 -0.0614,-0.04126 -0.09375,-0.0625 l -0.4375,-0.3125 c -0.07279,-0.04779 -0.173666,-0.0912 -0.25,-0.125 -0.170135,-0.07167 -0.366608,-0.09064 -0.53125,-0.09375 -0.03272,6.1e-5 -0.09327,-0.0028 -0.125,0 -0.02358,0.0026 -0.07088,-0.0041 -0.09375,0 -0.0075,0.0015 -0.0238,-0.0017 -0.03125,0 z"
         style="opacity:0.49311924;fill:none;stroke:#000000;stroke-width:0.972;stroke-linecap:round;stroke-linejoin:round;stroke-miterlimit:4;stroke-opacity:1;stroke-dasharray:none"
         inkscape:r_cx="true"
         inkscape:r_cy="true" />
      <path
         inkscape:connector-curvature="0"
         sodipodi:nodetypes="cssssssscsssssscscsssssssssssssccssssc"
         id="rect8188"
         d="m 29.25,20.84375 c -0.0074,0.0017 -0.02389,0.02936 -0.03125,0.03125 -0.01452,0.0041 -0.04839,-0.0048 -0.0625,0 -0.01389,0.0051 -0.04907,0.02545 -0.0625,0.03125 -0.01319,0.0061 -0.04981,0.02444 -0.0625,0.03125 C 29.02505,20.9411 29.00608,20.96501 29,20.96875 28.98811,20.97655 28.94881,20.9915 28.9375,21 c -0.0055,0.0044 -0.02589,0.02666 -0.03125,0.03125 -0.0208,0.01902 -0.04436,0.04079 -0.0625,0.0625 0,0 -3.240088,3.084277 -6,6.625 -2.759912,3.540723 -5.234354,7.82957 -5.304687,7.8125 -0.123687,-0.03002 -0.436514,-0.0625 -0.726563,-0.0625 -2.65188,0 -4.8125,2.095814 -4.8125,4.65625 0,2.560436 2.160619,4.625 4.8125,4.625 2.65188,0 4.781251,-2.064565 4.78125,-4.625 0,-1.320225 -0.550872,-2.53003 -1.46875,-3.375 0.227525,-0.43628 2.131332,-4.024322 4.71875,-7.34375 2.759912,-3.540724 6.3125,-6.781251 6.3125,-6.78125 0.0044,-0.0056 -0.0041,-0.02556 0,-0.03125 0.0039,-0.0058 0.02757,-0.02537 0.03125,-0.03125 0.0138,-0.02387 0.02103,-0.0686 0.03125,-0.09375 0.0023,-0.0064 0.02913,-0.02482 0.03125,-0.03125 0.0038,-0.01299 -0.0029,-0.04927 0,-0.0625 0.0062,-0.03335 0.0303,-0.09051 0.03125,-0.125 -3.6e-5,-0.01387 8.63e-4,-0.0485 0,-0.0625 -0.0013,-0.01405 -0.02916,-0.04837 -0.03125,-0.0625 -0.0025,-0.01417 0.0033,-0.04828 0,-0.0625 C 31.2463,22.04827 31.22322,22.01424 31.21875,22 31.19686,21.93596 31.16224,21.843746 31.125,21.78125 31.10771,21.75361 31.08269,21.71444 31.0625,21.6875 c -0.0627,-0.0802 -0.162652,-0.180263 -0.25,-0.25 -0.02977,-0.02287 -0.0614,-0.04126 -0.09375,-0.0625 l -0.4375,-0.3125 c -0.07279,-0.04779 -0.173666,-0.0912 -0.25,-0.125 -0.170135,-0.07167 -0.366608,-0.09064 -0.53125,-0.09375 -0.03272,6.1e-5 -0.09327,-0.0028 -0.125,0 -0.02358,0.0026 -0.07088,-0.0041 -0.09375,0 -0.0075,0.0015 -0.0238,-0.0017 -0.03125,0 z"
         style="fill:#babdb6;fill-opacity:1;fill-rule:nonzero;stroke:none"
         inkscape:r_cx="true"
         inkscape:r_cy="true" />
      <path
         inkscape:connector-curvature="0"
         inkscape:r_cy="true"
         inkscape:r_cx="true"
         sodipodi:nodetypes="cssssssscsssssscscsssssssssssssccssssc"
         id="path12666"
         d="m 29.426776,20.84375 c -0.0074,0.0017 -0.02389,0.02936 -0.03125,0.03125 -0.01452,0.0041 -0.04839,-0.0048 -0.0625,0 -0.01389,0.0051 -0.04907,0.02545 -0.0625,0.03125 -0.01319,0.0061 -0.04981,0.02444 -0.0625,0.03125 -0.0062,0.0036 -0.02517,0.02751 -0.03125,0.03125 -0.01189,0.0078 -0.05119,0.02275 -0.0625,0.03125 -0.0055,0.0044 -0.02589,0.02666 -0.03125,0.03125 -0.0208,0.01902 -0.04436,0.04079 -0.0625,0.0625 0,0 -3.240088,3.084277 -6,6.625 -2.759912,3.540723 -5.234353,7.82957 -5.304686,7.8125 -0.123687,-0.03002 -0.436514,-0.0625 -0.726563,-0.0625 -2.65188,0 -4.8125,2.095814 -4.8125,4.65625 0,2.560436 2.160619,4.625 4.8125,4.625 2.65188,0 4.78125,-2.064565 4.781249,-4.625 0,-1.320225 -0.550872,-2.53003 -1.46875,-3.375 0.227525,-0.43628 2.131332,-4.024322 4.71875,-7.34375 2.759912,-3.540724 6.3125,-6.781251 6.3125,-6.78125 0.0044,-0.0056 -0.0041,-0.02556 0,-0.03125 0.0039,-0.0058 0.02757,-0.02537 0.03125,-0.03125 0.0138,-0.02387 0.02103,-0.0686 0.03125,-0.09375 0.0023,-0.0064 0.02913,-0.02482 0.03125,-0.03125 0.0038,-0.01299 -0.0029,-0.04927 0,-0.0625 0.0062,-0.03335 0.0303,-0.09051 0.03125,-0.125 -3.6e-5,-0.01387 8.63e-4,-0.0485 0,-0.0625 -0.0013,-0.01405 -0.02916,-0.04837 -0.03125,-0.0625 -0.0025,-0.01417 0.0033,-0.04828 0,-0.0625 -0.0037,-0.01423 -0.02678,-0.04826 -0.03125,-0.0625 -0.02189,-0.06404 -0.05651,-0.156254 -0.09375,-0.21875 -0.01729,-0.02764 -0.04231,-0.06681 -0.0625,-0.09375 -0.0627,-0.0802 -0.162652,-0.180263 -0.25,-0.25 -0.02977,-0.02287 -0.0614,-0.04126 -0.09375,-0.0625 l -0.4375,-0.3125 c -0.07279,-0.04779 -0.173666,-0.0912 -0.25,-0.125 -0.170135,-0.07167 -0.366608,-0.09064 -0.53125,-0.09375 -0.03272,6.1e-5 -0.09327,-0.0028 -0.125,0 -0.02358,0.0026 -0.07088,-0.0041 -0.09375,0 -0.0075,0.0015 -0.0238,-0.0017 -0.03125,0 z"
         style="fill:url(#linearGradient4511);fill-opacity:1;fill-rule:nonzero;stroke:none" />
      <path
         inkscape:connector-curvature="0"
         style="opacity:0.66972477;fill:url(#radialGradient4513);fill-opacity:1;fill-rule:nonzero;stroke:none"
         d="m 29.25,20.84375 c -0.0074,0.0017 -0.02389,0.02936 -0.03125,0.03125 -0.01452,0.0041 -0.04839,-0.0048 -0.0625,0 -0.01389,0.0051 -0.04907,0.02545 -0.0625,0.03125 -0.01319,0.0061 -0.04981,0.02444 -0.0625,0.03125 C 29.02505,20.9411 29.00608,20.96501 29,20.96875 28.98811,20.97655 28.94881,20.9915 28.9375,21 c -0.0055,0.0044 -0.02589,0.02666 -0.03125,0.03125 -0.0208,0.01902 -0.04436,0.04079 -0.0625,0.0625 0,0 -3.240088,3.084277 -6,6.625 -2.759912,3.540723 -5.234354,7.82957 -5.304687,7.8125 -0.123687,-0.03002 -0.436514,-0.0625 -0.726563,-0.0625 -2.65188,0 -4.8125,2.095814 -4.8125,4.65625 0,2.560436 2.160619,4.625 4.8125,4.625 2.65188,0 4.781251,-2.064565 4.78125,-4.625 0,-1.320225 -0.550872,-2.53003 -1.46875,-3.375 0.227525,-0.43628 2.131332,-4.024322 4.71875,-7.34375 2.759912,-3.540724 6.3125,-6.781251 6.3125,-6.78125 0.0044,-0.0056 -0.0041,-0.02556 0,-0.03125 0.0039,-0.0058 0.02757,-0.02537 0.03125,-0.03125 0.0138,-0.02387 0.02103,-0.0686 0.03125,-0.09375 0.0023,-0.0064 0.02913,-0.02482 0.03125,-0.03125 0.0038,-0.01299 -0.0029,-0.04927 0,-0.0625 0.0062,-0.03335 0.0303,-0.09051 0.03125,-0.125 -3.6e-5,-0.01387 8.63e-4,-0.0485 0,-0.0625 -0.0013,-0.01405 -0.02916,-0.04837 -0.03125,-0.0625 -0.0025,-0.01417 0.0033,-0.04828 0,-0.0625 C 31.2463,22.04827 31.22322,22.01424 31.21875,22 31.19686,21.93596 31.16224,21.843746 31.125,21.78125 31.10771,21.75361 31.08269,21.71444 31.0625,21.6875 c -0.0627,-0.0802 -0.162652,-0.180263 -0.25,-0.25 -0.02977,-0.02287 -0.0614,-0.04126 -0.09375,-0.0625 l -0.4375,-0.3125 c -0.07279,-0.04779 -0.173666,-0.0912 -0.25,-0.125 -0.170135,-0.07167 -0.366608,-0.09064 -0.53125,-0.09375 -0.03272,6.1e-5 -0.09327,-0.0028 -0.125,0 -0.02358,0.0026 -0.07088,-0.0041 -0.09375,0 -0.0075,0.0015 -0.0238,-0.0017 -0.03125,0 z"
         id="path11783"
         sodipodi:nodetypes="cssssssscsssssscscsssssssssssssccssssc"
         inkscape:r_cx="true"
         inkscape:r_cy="true" />
      <path
         transform="matrix(1.53959,0,0,1.53959,-5.362676,-19.96577)"
         inkscape:r_cy="true"
         inkscape:r_cx="true"
         d="m 17.324116,39.037128 c 0,1.586505 -1.286116,2.872622 -2.872621,2.872622 -1.586505,0 -2.872621,-1.286117 -2.872621,-2.872622 0,-1.586504 1.286116,-2.872621 2.872621,-2.872621 1.586505,0 2.872621,1.286117 2.872621,2.872621 z"
         sodipodi:ry="2.8726213"
         sodipodi:rx="2.8726213"
         sodipodi:cy="39.037128"
         sodipodi:cx="14.451495"
         id="path16168"
         style="opacity:0.66972477;fill:url(#radialGradient4515);fill-opacity:1;fill-rule:nonzero;stroke:none"
         sodipodi:type="arc" />
      <path
         transform="matrix(1.071429,0,0,1.071429,-8.753795,3.039429)"
         inkscape:r_cy="true"
         inkscape:r_cx="true"
         d="m 26.836864,34.788834 c 0,1.707837 -1.384476,3.092313 -3.092313,3.092313 -1.707838,0 -3.092314,-1.384476 -3.092314,-3.092313 0,-1.707838 1.384476,-3.092314 3.092314,-3.092314 1.707837,0 3.092313,1.384476 3.092313,3.092314 z"
         sodipodi:ry="3.0923135"
         sodipodi:rx="3.0923135"
         sodipodi:cy="34.788834"
         sodipodi:cx="23.744551"
         id="path8195"
         style="opacity:0.67431192;fill:#2e3436;fill-opacity:1;fill-rule:nonzero;stroke:#000000;stroke-width:0.43866649;stroke-linecap:round;stroke-linejoin:round;stroke-miterlimit:4;stroke-opacity:1;stroke-dasharray:none"
         sodipodi:type="arc" />
      <path
         sodipodi:type="arc"
         style="opacity:0.39678901;fill:url(#radialGradient4517);fill-opacity:1;fill-rule:nonzero;stroke:none"
         id="path18799"
         sodipodi:cx="23.744551"
         sodipodi:cy="34.788834"
         sodipodi:rx="3.0923135"
         sodipodi:ry="3.0923135"
         d="m 26.836864,34.788834 c 0,1.707837 -1.384476,3.092313 -3.092313,3.092313 -1.707838,0 -3.092314,-1.384476 -3.092314,-3.092313 0,-1.707838 1.384476,-3.092314 3.092314,-3.092314 1.707837,0 3.092313,1.384476 3.092313,3.092314 z"
         inkscape:r_cx="true"
         inkscape:r_cy="true"
         transform="matrix(1.071429,0,0,1.071429,-8.753795,3.039429)" />
      <path
         inkscape:connector-curvature="0"
         inkscape:r_cy="true"
         inkscape:r_cx="true"
         id="path20559"
         d="m 16.190153,37.030654 c -1.629955,0.207392 -2.906249,1.626498 -2.90625,3.3125 0,1.297364 0.75675,2.425021 1.84375,2.96875 0.01437,0.0072 0.04802,-0.007 0.0625,0 1.678216,-0.847515 2.812499,-2.599596 2.8125,-4.59375 0,-0.508487 -0.07948,-1.004923 -0.21875,-1.46875 -0.0036,-0.0121 -0.02753,-0.01919 -0.03125,-0.03125 -0.355161,-0.130123 -0.756181,-0.1875 -1.15625,-0.1875 -0.142882,0 -0.268118,-0.01758 -0.40625,0 z"
         style="opacity:0.39678901;fill:url(#radialGradient4519);fill-opacity:1;fill-rule:nonzero;stroke:url(#radialGradient4521);stroke-width:1.37199998;stroke-linecap:round;stroke-linejoin:round;stroke-miterlimit:4;stroke-opacity:1;stroke-dasharray:none" />
      <path
         transform="matrix(1.071429,0,0,1.071429,-8.753795,3.039429)"
         inkscape:r_cy="true"
         inkscape:r_cx="true"
         d="m 26.836864,34.788834 c 0,1.707837 -1.384476,3.092313 -3.092313,3.092313 -1.707838,0 -3.092314,-1.384476 -3.092314,-3.092313 0,-1.707838 1.384476,-3.092314 3.092314,-3.092314 1.707837,0 3.092313,1.384476 3.092313,3.092314 z"
         sodipodi:ry="3.0923135"
         sodipodi:rx="3.0923135"
         sodipodi:cy="34.788834"
         sodipodi:cx="23.744551"
         id="path22328"
         style="opacity:0.95412843;fill:url(#linearGradient4523);fill-opacity:1;fill-rule:nonzero;stroke:none"
         sodipodi:type="arc" />
    </g>
    <path
       inkscape:connector-curvature="0"
       sodipodi:nodetypes="cscccsc"
       inkscape:r_cy="true"
       inkscape:r_cx="true"
       id="path44361"
       d="m 115.0438,70.589776 c 11.01255,-0.06849 12.7562,10.08561 12.7562,19.591292 0,9.475708 -1.88337,18.859482 -12.68268,19.188632 0.004,-0.0592 0,-0.12267 0,-0.1831 l 0,-37.791197 c 0,-0.281997 -0.0556,-0.555911 -0.14706,-0.805627 0.0282,0.0085 0.0455,-0.0088 0.0735,0 z"
       style="fill:#000000;fill-opacity:1;fill-rule:nonzero;stroke:none" />
    <path
       inkscape:connector-curvature="0"
       inkscape:r_cy="true"
       inkscape:r_cx="true"
       sodipodi:nodetypes="cscsccccscs"
       id="path44363"
       d="m 111.04475,64.810294 c -0.40911,-0.321485 -1.32779,-1.109075 -2.82981,-1.159545 -0.37902,-0.01273 -0.67673,0.513197 -0.67673,0.891008 0,0 0.9899,13.323085 0.9899,25.861319 0,12.538234 -0.45734,24.123994 -0.45734,24.123994 0,0.3778 -0.0199,1.3873 1.35317,1.47865 l 0.58143,-0.01 c 1.00293,-0.0414 2.47238,-1.42229 2.47238,-1.8001 0,0 0.20788,-11.17163 0.20788,-23.70986 0,-12.538235 -0.78993,-24.538108 -0.78993,-24.538108 0,-0.37781 -0.56729,-0.914593 -0.85095,-1.1375 z"
       style="fill:#555753;fill-opacity:1;fill-rule:nonzero;stroke:none" />
    <path
       inkscape:connector-curvature="0"
       style="fill:#000000;fill-opacity:1;fill-rule:nonzero;stroke:none"
       d="m 105.28447,63.750179 -0.48789,0 c -1.908,0 -4.09483,1.35834 -4.21243,6.479979 0,0 0.23519,9.571279 0.23519,19.142556 0,9.571276 -0.23519,19.142556 -0.23519,19.142556 0.0588,4.94594 2.80768,7.28269 5.50005,7.37484 l 0.62783,0.0163 c 1.1567,-0.05 1.35479,-0.86399 1.35479,-1.24181 0,0 0.82316,-12.41171 0.70556,-24.823433 -0.11759,-12.411719 -1.17592,-24.823437 -1.17592,-24.823437 0,-0.904902 -1.30575,-1.317582 -2.31199,-1.267624 z"
       id="path44365"
       sodipodi:nodetypes="cccsccccscc"
       inkscape:r_cx="true"
       inkscape:r_cy="true" />
    <path
       inkscape:connector-curvature="0"
       sodipodi:nodetypes="cccscsccc"
       id="path37315"
       d="m 19.003335,64.863255 0.255226,0.01421 c 0.603173,-0.0035 0.610976,0.517713 0.610976,1.656876 0,0 -0.329537,5.505171 -0.51721,17.298397 -0.187673,11.793223 -0.09162,29.591902 -0.09162,29.591902 0,0.58487 -0.316918,1.03769 -0.680999,1.04739 -1.797646,0.0473 -4.682674,-3.28584 -4.661884,-6.76956 l 0.01721,-37.009957 c 0,-0.377807 2.533097,-5.870674 5.068298,-5.829259 z"
       style="opacity:0.66284407;fill:url(#linearGradient3234);fill-opacity:1;fill-rule:nonzero;stroke:none"
       inkscape:r_cx="true"
       inkscape:r_cy="true" />
    <path
       inkscape:connector-curvature="0"
       inkscape:r_cy="true"
       inkscape:r_cx="true"
       style="opacity:0.66284407;fill:url(#radialGradient3231);fill-opacity:1;fill-rule:nonzero;stroke:none"
       d="m 19.003335,64.863255 0.255226,0.01421 c 0.603173,-0.0035 0.610976,0.517713 0.610976,1.656876 0,0 -0.329537,5.505171 -0.51721,17.298397 -0.187673,11.793223 -0.09162,29.591902 -0.09162,29.591902 0,0.58487 -0.316918,1.03769 -0.680999,1.04739 -1.797646,0.0473 -4.682674,-3.28584 -4.661884,-6.76956 l 0.01721,-37.009957 c 0,-0.377807 2.533097,-5.870674 5.068298,-5.829259 z"
       id="path39944"
       sodipodi:nodetypes="cccscsccc" />
    <g
       id="g44354"
       transform="matrix(1.0517715,0,0,1.0476463,-1.2588576,11.126213)"
       inkscape:r_cx="true"
       inkscape:r_cy="true">
      <path
         transform="translate(-6.624738,9.564268)"
         inkscape:r_cy="true"
         inkscape:r_cx="true"
         d="m 19.835548,63.885883 c 0,1.595789 -1.293642,2.889431 -2.889431,2.889431 -1.595788,0 -2.88943,-1.293642 -2.88943,-2.889431 0,-1.595788 1.293642,-2.88943 2.88943,-2.88943 1.595789,0 2.889431,1.293642 2.889431,2.88943 z"
         sodipodi:ry="2.8894303"
         sodipodi:rx="2.8894303"
         sodipodi:cy="63.885883"
         sodipodi:cx="16.946117"
         id="path8174"
         style="fill:#babdb6;fill-opacity:1;fill-rule:nonzero;stroke:none"
         sodipodi:type="arc" />
      <path
         inkscape:connector-curvature="0"
         style="fill:none;stroke:#000000;stroke-width:0.472;stroke-linecap:round;stroke-linejoin:round;stroke-miterlimit:4;stroke-opacity:0.70772944;stroke-dasharray:none"
         d="m 16.396488,42.000005 c -0.438461,7.92e-4 -0.743512,0.105763 -1.054688,0.546875 -0.05535,0.07846 -0.08532,0.182284 -0.09375,0.28125 0,0 7.9e-5,1.678661 0,1.78125 -0.139663,0.109293 -6.1874999,4.75 -6.1874999,4.75 -0.546424,0.439661 -1.430863,1.022319 -1.625,1.71875 -0.177485,0.636697 -0.074518,1.123098 -0.03125,1.84375 l 1.1875,19.875 c 0.00103,0.01716 -0.00134,0.04547 0,0.0625 -0.00179,0.0054 0.00174,0.02584 0,0.03125 -0.039105,0.121813 -0.051365,0.242103 -0.0625,0.375 -0.079179,0.945046 0.617454,1.76457 1.5624999,1.84375 0.945046,0.07918 1.76457,-0.617457 1.84375,-1.5625 0.03959,-0.472523 -0.122334,-0.914158 -0.40625,-1.25 -0.0089,-0.0105 0.0091,-0.02097 0,-0.03125 L 10.37305,52.73438 c -0.07795,-0.648 0.04286,-0.886309 0.5625,-1.21875 0,-1e-6 4.62026,-3.514978 6.34375,-4.8125 0.07324,-0.05514 0.273069,-0.17073 0.28125,-0.46875 0.0041,-0.145964 6.18e-4,-3.391978 0,-3.40625 -4.91e-4,-0.0056 -0.003,-0.158597 -0.109375,-0.300781 -0.329969,-0.44098 -0.616227,-0.528136 -1.054687,-0.527344 z"
         id="path43468"
         sodipodi:nodetypes="cscccsccsssssscccssssz"
         inkscape:r_cx="true"
         inkscape:r_cy="true" />
      <path
         inkscape:connector-curvature="0"
         inkscape:r_cy="true"
         inkscape:r_cx="true"
         sodipodi:nodetypes="cscccsccsssssscccssssz"
         id="path8178"
         d="m 16.396488,42.000005 c -0.438461,7.92e-4 -0.743512,0.105763 -1.054688,0.546875 -0.05535,0.07846 -0.08532,0.182284 -0.09375,0.28125 0,0 7.9e-5,1.678661 0,1.78125 -0.139663,0.109293 -6.1874999,4.75 -6.1874999,4.75 -0.546424,0.439661 -1.430863,1.022319 -1.625,1.71875 -0.177485,0.636697 -0.074518,1.123098 -0.03125,1.84375 l 1.1875,19.875 c 0.00103,0.01716 -0.00134,0.04547 0,0.0625 -0.00179,0.0054 0.00174,0.02584 0,0.03125 -0.039105,0.121813 -0.051365,0.242103 -0.0625,0.375 -0.079179,0.945046 0.617454,1.76457 1.5624999,1.84375 0.945046,0.07918 1.76457,-0.617457 1.84375,-1.5625 0.03959,-0.472523 -0.122334,-0.914158 -0.40625,-1.25 -0.0089,-0.0105 0.0091,-0.02097 0,-0.03125 L 10.37305,52.73438 c -0.07795,-0.648 0.04286,-0.886309 0.5625,-1.21875 0,-1e-6 4.62026,-3.514978 6.34375,-4.8125 0.07324,-0.05514 0.273069,-0.17073 0.28125,-0.46875 0.0041,-0.145964 6.18e-4,-3.391978 0,-3.40625 -4.91e-4,-0.0056 -0.003,-0.158597 -0.109375,-0.300781 -0.329969,-0.44098 -0.616227,-0.528136 -1.054687,-0.527344 z"
         style="fill:#555555;fill-opacity:1;fill-rule:nonzero;stroke:none" />
      <path
         inkscape:connector-curvature="0"
         style="fill:url(#radialGradient4529);fill-opacity:1;fill-rule:nonzero;stroke:none"
         d="m 16.396488,42.000005 c -0.438461,7.92e-4 -0.743512,0.105763 -1.054688,0.546875 -0.05535,0.07846 -0.08532,0.182284 -0.09375,0.28125 0,0 7.9e-5,1.678661 0,1.78125 -0.139663,0.109293 -6.1874999,4.75 -6.1874999,4.75 -0.546424,0.439661 -1.430863,1.022319 -1.625,1.71875 -0.177485,0.636697 -0.074518,1.123098 -0.03125,1.84375 l 1.1875,19.875 c 0.00103,0.01716 -0.00134,0.04547 0,0.0625 -0.00179,0.0054 0.00174,0.02584 0,0.03125 -0.039105,0.121813 -0.051365,0.242103 -0.0625,0.375 -0.079179,0.945046 0.617454,1.76457 1.5624999,1.84375 0.945046,0.07918 1.76457,-0.617457 1.84375,-1.5625 0.03959,-0.472523 -0.122334,-0.914158 -0.40625,-1.25 -0.0089,-0.0105 0.0091,-0.02097 0,-0.03125 L 10.37305,52.73438 c -0.07795,-0.648 0.04286,-0.886309 0.5625,-1.21875 0,-1e-6 4.62026,-3.514978 6.34375,-4.8125 0.07324,-0.05514 0.273069,-0.17073 0.28125,-0.46875 0.0041,-0.145964 6.18e-4,-3.391978 0,-3.40625 -4.91e-4,-0.0056 -0.003,-0.158597 -0.109375,-0.300781 -0.329969,-0.44098 -0.616227,-0.528136 -1.054687,-0.527344 z"
         id="path40827"
         sodipodi:nodetypes="cscccsccsssssscccssssz"
         inkscape:r_cx="true"
         inkscape:r_cy="true" />
      <path
         inkscape:connector-curvature="0"
         inkscape:r_cy="true"
         inkscape:r_cx="true"
         sodipodi:nodetypes="cscccsccsssssscccssssz"
         id="path41710"
         d="m 16.396488,42.000005 c -0.438461,7.92e-4 -0.743512,0.105763 -1.054688,0.546875 -0.05535,0.07846 -0.08532,0.182284 -0.09375,0.28125 0,0 7.9e-5,1.678661 0,1.78125 -0.139663,0.109293 -6.1874999,4.75 -6.1874999,4.75 -0.546424,0.439661 -1.430863,1.022319 -1.625,1.71875 -0.177485,0.636697 -0.074518,1.123098 -0.03125,1.84375 l 1.1875,19.875 c 0.00103,0.01716 -0.00134,0.04547 0,0.0625 -0.00179,0.0054 0.00174,0.02584 0,0.03125 -0.039105,0.121813 -0.051365,0.242103 -0.0625,0.375 -0.079179,0.945046 0.617454,1.76457 1.5624999,1.84375 0.945046,0.07918 1.76457,-0.617457 1.84375,-1.5625 0.03959,-0.472523 -0.122334,-0.914158 -0.40625,-1.25 -0.0089,-0.0105 0.0091,-0.02097 0,-0.03125 L 10.37305,52.73438 c -0.07795,-0.648 0.04286,-0.886309 0.5625,-1.21875 0,-1e-6 4.62026,-3.514978 6.34375,-4.8125 0.07324,-0.05514 0.273069,-0.17073 0.28125,-0.46875 0.0041,-0.145964 6.18e-4,-3.391978 0,-3.40625 -4.91e-4,-0.0056 -0.003,-0.158597 -0.109375,-0.300781 -0.329969,-0.44098 -0.616227,-0.528136 -1.054687,-0.527344 z"
         style="fill:url(#radialGradient4531);fill-opacity:1;fill-rule:nonzero;stroke:none;filter:url(#filter4041)" />
    </g>
    <path
       inkscape:connector-curvature="0"
       style="fill:url(#radialGradient3222);fill-opacity:1;fill-rule:nonzero;stroke:none"
       d="m 8.0059973,63.523606 c -0.6773919,0.0069 -1.3100697,0.656657 -1.5142575,1.38627 -0.1866733,0.667033 0.053095,0.718265 0.098602,1.473253 l 1.2489787,20.82197 c 0.00105,0.01798 -0.00139,0.04763 0,0.06547 -0.00192,0.0057 0.00181,0.02708 0,0.03274 -0.041131,0.127617 -0.054034,0.253639 -0.065731,0.392868 -0.083277,0.990073 0.6494207,1.848645 1.6433938,1.931597 0.9939717,0.08296 1.8559247,-0.646876 1.9392027,-1.636947 0.04164,-0.495037 -0.128667,-0.957714 -0.427281,-1.309558 -0.0094,-0.01099 0.0096,-0.02196 0,-0.03274 0,0 -1.1349827,-15.403826 -1.3515698,-21.547845 -0.032295,-0.916067 -0.7685215,-1.585248 -1.5713379,-1.577083 z"
       id="path45344"
       sodipodi:nodetypes="csccsssssscss"
       inkscape:r_cx="true"
       inkscape:r_cy="true" />
    <path
       inkscape:connector-curvature="0"
       style="opacity:0.8;fill:url(#radialGradient3219);fill-opacity:1;fill-rule:nonzero;stroke:none"
       d="m 115.17033,70.955026 c 0.0915,0.249715 0.13145,0.536474 0.13146,0.818474 l 0,33.19729 c 5.14692,-3.80535 8.74285,-12.855291 8.74285,-23.375607 0,-2.725469 -0.24052,-5.331774 -0.69021,-7.791868 -1.88347,-1.794729 -4.50488,-2.870763 -8.11837,-2.848289 -0.003,-3.82e-4 -0.0299,-1.27e-4 -0.033,0 -0.003,5.4e-4 -0.03,-4.42e-4 -0.0329,0 z"
       id="path57748"
       inkscape:r_cx="true"
       inkscape:r_cy="true" />
    <path
       inkscape:connector-curvature="0"
       sodipodi:nodetypes="cccscsccc"
       id="path44367"
       d="m 112.69601,64.941047 -0.25525,0.01421 c -0.60316,-0.0035 -0.61097,0.517715 -0.61097,1.656877 0,0 0.32954,5.505172 0.51722,17.298397 0.18767,11.793223 0.0916,29.591889 0.0916,29.591889 0,0.58487 0.31692,1.03769 0.681,1.04739 1.79764,0.0473 4.68266,-3.28583 4.66188,-6.76956 l -0.0173,-37.009944 c 0,-0.377806 -2.53309,-5.870674 -5.06829,-5.829259 z"
       style="fill:#b5b5b5;fill-opacity:1;fill-rule:nonzero;stroke:#000000;stroke-width:0.49546164;stroke-linecap:round;stroke-linejoin:round;stroke-miterlimit:4;stroke-opacity:0.48309183;stroke-dasharray:none"
       inkscape:r_cx="true"
       inkscape:r_cy="true" />
    <path
       inkscape:connector-curvature="0"
       inkscape:r_cy="true"
       inkscape:r_cx="true"
       sodipodi:nodetypes="cssssssscsssssscscsssssssssssssccssssc"
       id="path44371"
       d="m 102.29454,33.156716 c 0.007,0.0018 0.0252,0.03076 0.0329,0.03274 0.0153,0.0043 0.0509,-0.005 0.0657,0 0.0146,0.0053 0.0517,0.02666 0.0657,0.03274 0.0139,0.0064 0.0524,0.0256 0.0657,0.03274 0.006,0.0037 0.0265,0.0288 0.0329,0.03274 0.0125,0.0082 0.0539,0.02383 0.0657,0.03274 0.006,0.0046 0.0272,0.02793 0.0329,0.03274 0.0219,0.01993 0.0468,0.04273 0.0657,0.06547 0,0 3.40784,3.231231 6.31063,6.940656 2.9028,3.709426 5.50534,8.20262 5.57932,8.184737 0.13009,-0.03145 0.45911,-0.06547 0.76418,-0.06547 2.78917,0 5.06165,2.195672 5.06165,4.878103 0,2.682431 -2.27248,4.845365 -5.06165,4.845365 -2.78917,0 -5.02878,-2.162935 -5.02878,-4.845365 0,-1.383129 0.57938,-2.650576 1.54479,-3.535806 -0.23931,-0.457067 -2.24168,-4.216065 -4.96305,-7.693652 -2.9028,-3.709427 -6.63932,-7.104353 -6.63932,-7.104352 -0.005,-0.0059 0.004,-0.02678 0,-0.03274 -0.004,-0.0061 -0.029,-0.02657 -0.0329,-0.03274 -0.0145,-0.02501 -0.0221,-0.07187 -0.0329,-0.09822 -0.002,-0.0067 -0.0306,-0.026 -0.0329,-0.03274 -0.004,-0.01361 0.003,-0.05162 0,-0.06547 -0.007,-0.03494 -0.0319,-0.09482 -0.0329,-0.130956 4e-5,-0.01454 -9.1e-4,-0.05082 0,-0.06547 0.001,-0.01472 0.0307,-0.05067 0.0329,-0.06547 0.003,-0.01485 -0.004,-0.05058 0,-0.06548 0.004,-0.01491 0.0282,-0.05056 0.0329,-0.06548 0.023,-0.06709 0.0594,-0.163699 0.0986,-0.229172 0.0182,-0.02895 0.0445,-0.06999 0.0657,-0.09822 0.066,-0.08402 0.17108,-0.188852 0.26295,-0.261912 0.0313,-0.02396 0.0646,-0.04322 0.0986,-0.06547 l 0.46015,-0.32739 c 0.0766,-0.05006 0.18266,-0.09554 0.26294,-0.130956 0.17895,-0.07508 0.38559,-0.09495 0.55875,-0.09822 0.0344,6.4e-5 0.0981,-0.0029 0.13148,0 0.0248,0.0028 0.0746,-0.0043 0.0985,0 0.009,0.0016 0.0251,-0.0018 0.0329,0 z"
       style="opacity:0.49311924;fill:none;stroke:#000000;stroke-width:1.02031505;stroke-linecap:round;stroke-linejoin:round;stroke-miterlimit:4;stroke-opacity:1;stroke-dasharray:none" />
    <path
       inkscape:connector-curvature="0"
       inkscape:r_cy="true"
       inkscape:r_cx="true"
       sodipodi:nodetypes="cssssssscsssssscscsssssssssssssccssssc"
       id="path44373"
       d="m 102.29454,33.156716 c 0.007,0.0018 0.0252,0.03076 0.0329,0.03274 0.0153,0.0043 0.0509,-0.005 0.0657,0 0.0146,0.0053 0.0517,0.02666 0.0657,0.03274 0.0139,0.0064 0.0524,0.0256 0.0657,0.03274 0.006,0.0037 0.0265,0.0288 0.0329,0.03274 0.0125,0.0082 0.0539,0.02383 0.0657,0.03274 0.006,0.0046 0.0272,0.02793 0.0329,0.03274 0.0219,0.01993 0.0468,0.04273 0.0657,0.06547 0,0 3.40784,3.231231 6.31063,6.940656 2.9028,3.709426 5.50534,8.20262 5.57932,8.184737 0.13009,-0.03145 0.45911,-0.06547 0.76418,-0.06547 2.78917,0 5.06165,2.195672 5.06165,4.878103 0,2.682431 -2.27248,4.845365 -5.06165,4.845365 -2.78917,0 -5.02878,-2.162935 -5.02878,-4.845365 0,-1.383129 0.57938,-2.650576 1.54479,-3.535806 -0.23931,-0.457067 -2.24168,-4.216065 -4.96305,-7.693652 -2.9028,-3.709427 -6.63932,-7.104353 -6.63932,-7.104352 -0.005,-0.0059 0.004,-0.02678 0,-0.03274 -0.004,-0.0061 -0.029,-0.02657 -0.0329,-0.03274 -0.0145,-0.02501 -0.0221,-0.07187 -0.0329,-0.09822 -0.002,-0.0067 -0.0306,-0.026 -0.0329,-0.03274 -0.004,-0.01361 0.003,-0.05162 0,-0.06547 -0.007,-0.03494 -0.0319,-0.09482 -0.0329,-0.130956 4e-5,-0.01454 -9.1e-4,-0.05082 0,-0.06547 0.001,-0.01472 0.0307,-0.05067 0.0329,-0.06547 0.003,-0.01485 -0.004,-0.05058 0,-0.06548 0.004,-0.01491 0.0282,-0.05056 0.0329,-0.06548 0.023,-0.06709 0.0594,-0.163699 0.0986,-0.229172 0.0182,-0.02895 0.0445,-0.06999 0.0657,-0.09822 0.066,-0.08402 0.17108,-0.188852 0.26295,-0.261912 0.0313,-0.02396 0.0646,-0.04322 0.0986,-0.06547 l 0.46015,-0.32739 c 0.0766,-0.05006 0.18266,-0.09554 0.26294,-0.130956 0.17895,-0.07508 0.38559,-0.09495 0.55875,-0.09822 0.0344,6.4e-5 0.0981,-0.0029 0.13148,0 0.0248,0.0028 0.0746,-0.0043 0.0985,0 0.009,0.0016 0.0251,-0.0018 0.0328,0 z"
       style="fill:#babdb6;fill-opacity:1;fill-rule:nonzero;stroke:none" />
    <path
       inkscape:connector-curvature="0"
       inkscape:r_cy="true"
       inkscape:r_cx="true"
       sodipodi:nodetypes="cssssssscsssssscscsssssssssssssccssssc"
       id="path44375"
       d="m 102.10862,33.156716 c 0.007,0.0018 0.0251,0.03076 0.0329,0.03274 0.0152,0.0043 0.0509,-0.005 0.0657,0 0.0146,0.0053 0.0517,0.02666 0.0658,0.03274 0.0139,0.0064 0.0524,0.0256 0.0657,0.03274 0.006,0.0037 0.0265,0.0288 0.0329,0.03274 0.0125,0.0082 0.0539,0.02383 0.0657,0.03274 0.006,0.0046 0.0272,0.02793 0.0329,0.03274 0.0219,0.01993 0.0466,0.04273 0.0657,0.06547 0,0 3.40783,3.231231 6.31063,6.940656 2.9028,3.709426 5.50535,8.20262 5.57932,8.184737 0.13009,-0.03145 0.45911,-0.06547 0.76417,-0.06547 2.78918,0 5.06165,2.195672 5.06165,4.878103 0,2.682431 -2.27247,4.845365 -5.06165,4.845365 -2.78917,0 -5.02877,-2.162935 -5.02877,-4.845365 0,-1.383129 0.57939,-2.650576 1.54479,-3.535806 -0.2393,-0.457067 -2.24168,-4.216065 -4.96305,-7.693652 -2.9028,-3.709427 -6.63932,-7.104353 -6.63932,-7.104352 -0.005,-0.0059 0.004,-0.02678 0,-0.03274 -0.004,-0.0061 -0.029,-0.02657 -0.0329,-0.03274 -0.0145,-0.02501 -0.0221,-0.07187 -0.0329,-0.09822 -0.002,-0.0067 -0.0306,-0.026 -0.0329,-0.03274 -0.004,-0.01361 0.003,-0.05162 0,-0.06547 -0.0065,-0.03494 -0.03187,-0.09482 -0.03287,-0.130956 3.8e-5,-0.01454 -9.07e-4,-0.05082 0,-0.06547 0.0014,-0.01472 0.03067,-0.05067 0.03287,-0.06547 0.003,-0.01485 -0.004,-0.05058 0,-0.06548 0.004,-0.01491 0.0282,-0.05056 0.0329,-0.06548 0.023,-0.06709 0.0594,-0.163699 0.0986,-0.229172 0.0182,-0.02895 0.0445,-0.06999 0.0657,-0.09822 0.0659,-0.08402 0.17108,-0.188852 0.26295,-0.261912 0.0313,-0.02396 0.0646,-0.04322 0.0986,-0.06547 l 0.46016,-0.32739 c 0.0766,-0.05006 0.18265,-0.09554 0.26294,-0.130956 0.17894,-0.07508 0.38559,-0.09495 0.55875,-0.09822 0.0344,6.4e-5 0.0981,-0.0029 0.13147,0 0.0248,0.0028 0.0746,-0.0043 0.0986,0 0.008,0.0016 0.025,-0.0018 0.0329,0 z"
       style="fill:url(#linearGradient3213);fill-opacity:1;fill-rule:nonzero;stroke:none" />
    <path
       inkscape:connector-curvature="0"
       inkscape:r_cy="true"
       inkscape:r_cx="true"
       style="opacity:0.66972477;fill:url(#radialGradient3210);fill-opacity:1;fill-rule:nonzero;stroke:none"
       d="m 102.29454,33.156716 c 0.007,0.0018 0.0252,0.03076 0.0329,0.03274 0.0153,0.0043 0.0509,-0.005 0.0657,0 0.0146,0.0053 0.0517,0.02666 0.0657,0.03274 0.0139,0.0064 0.0524,0.0256 0.0657,0.03274 0.006,0.0037 0.0265,0.0288 0.0329,0.03274 0.0125,0.0082 0.0539,0.02383 0.0657,0.03274 0.006,0.0046 0.0272,0.02793 0.0329,0.03274 0.0219,0.01993 0.0468,0.04273 0.0657,0.06547 0,0 3.40784,3.231231 6.31063,6.940656 2.9028,3.709426 5.50534,8.20262 5.57932,8.184737 0.13009,-0.03145 0.45911,-0.06547 0.76418,-0.06547 2.78917,0 5.06165,2.195672 5.06165,4.878103 0,2.682431 -2.27248,4.845365 -5.06165,4.845365 -2.78917,0 -5.02878,-2.162935 -5.02878,-4.845365 0,-1.383129 0.57938,-2.650576 1.54479,-3.535806 -0.23931,-0.457067 -2.24168,-4.216065 -4.96305,-7.693652 -2.9028,-3.709427 -6.63932,-7.104353 -6.63932,-7.104352 -0.005,-0.0059 0.004,-0.02678 0,-0.03274 -0.004,-0.0061 -0.029,-0.02657 -0.0329,-0.03274 -0.0145,-0.02501 -0.0221,-0.07187 -0.0329,-0.09822 -0.002,-0.0067 -0.0306,-0.026 -0.0329,-0.03274 -0.004,-0.01361 0.003,-0.05162 0,-0.06547 -0.007,-0.03494 -0.0319,-0.09482 -0.0329,-0.130956 4e-5,-0.01454 -9.1e-4,-0.05082 0,-0.06547 0.001,-0.01472 0.0307,-0.05067 0.0329,-0.06547 0.003,-0.01485 -0.004,-0.05058 0,-0.06548 0.004,-0.01491 0.0282,-0.05056 0.0329,-0.06548 0.023,-0.06709 0.0594,-0.163699 0.0986,-0.229172 0.0182,-0.02895 0.0445,-0.06999 0.0657,-0.09822 0.066,-0.08402 0.17108,-0.188852 0.26295,-0.261912 0.0313,-0.02396 0.0646,-0.04322 0.0986,-0.06547 l 0.46015,-0.32739 c 0.0766,-0.05006 0.18266,-0.09554 0.26294,-0.130956 0.17895,-0.07508 0.38559,-0.09495 0.55875,-0.09822 0.0344,6.4e-5 0.0981,-0.0029 0.13148,0 0.0248,0.0028 0.0746,-0.0043 0.0985,0 0.009,0.0016 0.0251,-0.0018 0.0328,0 z"
       id="path44377"
       sodipodi:nodetypes="cssssssscsssssscscsssssssssssssccssssc" />
    <path
       transform="matrix(-1.6192968,0,0,1.6129458,138.69919,-9.5972264)"
       inkscape:r_cy="true"
       inkscape:r_cx="true"
       d="m 17.324116,39.037128 a 2.8726213,2.8726213 0 1 1 -5.745242,0 2.8726213,2.8726213 0 1 1 5.745242,0 z"
       sodipodi:ry="2.8726213"
       sodipodi:rx="2.8726213"
       sodipodi:cy="39.037128"
       sodipodi:cx="14.451495"
       id="path44379"
       style="opacity:0.66972477;fill:url(#radialGradient4541);fill-opacity:1;fill-rule:nonzero;stroke:none"
       sodipodi:type="arc" />
    <path
       transform="matrix(-1.1268985,0,0,1.1224786,142.26585,14.504085)"
       inkscape:r_cy="true"
       inkscape:r_cx="true"
       d="m 26.836864,34.788834 a 3.0923135,3.0923135 0 1 1 -6.184627,0 3.0923135,3.0923135 0 1 1 6.184627,0 z"
       sodipodi:ry="3.0923135"
       sodipodi:rx="3.0923135"
       sodipodi:cy="34.788834"
       sodipodi:cx="23.744551"
       id="path44381"
       style="opacity:0.67431192;fill:#2e3436;fill-opacity:1;fill-rule:nonzero;stroke:#000000;stroke-width:0.43866649;stroke-linecap:round;stroke-linejoin:round;stroke-miterlimit:4;stroke-opacity:1;stroke-dasharray:none"
       sodipodi:type="arc" />
    <path
       sodipodi:type="arc"
       style="opacity:0.39678901;fill:url(#radialGradient4543);fill-opacity:1;fill-rule:nonzero;stroke:none"
       id="path44383"
       sodipodi:cx="23.744551"
       sodipodi:cy="34.788834"
       sodipodi:rx="3.0923135"
       sodipodi:ry="3.0923135"
       d="m 26.836864,34.788834 a 3.0923135,3.0923135 0 1 1 -6.184627,0 3.0923135,3.0923135 0 1 1 6.184627,0 z"
       inkscape:r_cx="true"
       inkscape:r_cy="true"
       transform="matrix(-1.1268985,0,0,1.1224786,142.26585,14.504085)" />
    <path
       inkscape:connector-curvature="0"
       inkscape:r_cy="true"
       inkscape:r_cx="true"
       id="path44385"
       d="m 112.71724,55.728441 c -1.07394,-1.348636 -0.99125,-3.346492 0.24785,-4.61005 0.95347,-0.972298 2.3516,-1.263428 3.56906,-0.87518 0.0161,0.0051 0.0311,0.04039 0.047,0.04575 0.63981,1.863707 0.20557,4.007141 -1.26001,5.501641 -0.37371,0.381081 -0.79835,0.694947 -1.24403,0.940604 -0.0115,0.0064 -0.0348,-0.0058 -0.0465,5.45e-4 -0.36285,-0.162478 -0.70674,-0.413044 -1.00776,-0.705917 -0.1075,-0.104601 -0.21464,-0.183105 -0.30565,-0.297396 z"
       style="opacity:0.39678901;fill:url(#radialGradient3202);fill-opacity:1;fill-rule:nonzero;stroke:url(#radialGradient3204);stroke-width:1.44019783;stroke-linecap:round;stroke-linejoin:round;stroke-miterlimit:4;stroke-opacity:1;stroke-dasharray:none" />
    <path
       transform="matrix(-1.1268985,0,0,1.1224786,141.94727,14.599015)"
       inkscape:r_cy="true"
       inkscape:r_cx="true"
       d="m 26.836864,34.788834 a 3.0923135,3.0923135 0 1 1 -6.184627,0 3.0923135,3.0923135 0 1 1 6.184627,0 z"
       sodipodi:ry="3.0923135"
       sodipodi:rx="3.0923135"
       sodipodi:cy="34.788834"
       sodipodi:cx="23.744551"
       id="path44387"
       style="opacity:0.95412843;fill:url(#linearGradient4549);fill-opacity:1;fill-rule:nonzero;stroke:none"
       sodipodi:type="arc" />
    <path
       inkscape:connector-curvature="0"
       style="fill:#030000;fill-opacity:1;fill-rule:nonzero;stroke:none"
       d="m 65.64967,11.821472 c -21.655403,0.484635 -36.212177,12.422147 -41.146888,22.949587 -0.976239,2.082652 -0.244731,3.921222 2.160963,6.400884 10.646524,-11.118869 20.79778,-17.12463 39.466929,-17.12463 18.669147,0 29.13742,6.38655 39.335026,17.380642 2.75956,-2.915447 2.74725,-4.121653 1.8895,-6.360061 -3.54378,-9.247914 -18.155649,-23.246423 -40.411519,-23.246422 -0.434684,0 -0.862628,-0.0096 -1.294011,0 z"
       id="path6407"
       sodipodi:nodetypes="cscscssc"
       inkscape:r_cx="true"
       inkscape:r_cy="true" />
    <path
       inkscape:connector-curvature="0"
       inkscape:r_cy="true"
       inkscape:r_cx="true"
       style="opacity:0.66284407;fill:url(#linearGradient3197);fill-opacity:1;fill-rule:nonzero;stroke:none"
       d="m 112.79666,64.871682 -0.25522,0.0142 c -0.60319,-0.0035 -0.61098,0.517714 -0.61098,1.656876 0,0 0.32953,5.505172 0.51721,17.298398 0.18766,11.793223 0.0916,29.591894 0.0916,29.591894 0,0.58487 0.31692,1.0377 0.68099,1.0474 1.79765,0.0473 4.68269,-3.28584 4.66189,-6.76956 l -0.0173,-37.00996 c 0,-0.377806 -2.5331,-5.870673 -5.0683,-5.829259 z"
       id="path44389"
       sodipodi:nodetypes="cccscsccc" />
    <path
       inkscape:connector-curvature="0"
       sodipodi:nodetypes="cccscsccc"
       id="path44391"
       d="m 112.75018,64.732781 -0.25522,0.01421 c -0.60319,-0.0035 -0.61098,0.517715 -0.61098,1.656878 0,0 0.32954,5.505171 0.51721,17.298396 0.18766,11.793224 0.0916,29.591895 0.0916,29.591895 0,0.58488 0.31692,1.0377 0.681,1.0474 1.79765,0.0473 4.68268,-3.28584 4.66188,-6.76956 l -0.0173,-37.009959 c 0,-0.377807 -2.5331,-5.870674 -5.0683,-5.82926 z"
       style="opacity:0.66284407;fill:url(#radialGradient3194);fill-opacity:1;fill-rule:nonzero;stroke:none"
       inkscape:r_cx="true"
       inkscape:r_cy="true" />
    <g
       id="g44393"
       transform="matrix(-1.0517715,0,0,1.0476463,133.05885,11.319838)"
       inkscape:r_cx="true"
       inkscape:r_cy="true">
      <path
         sodipodi:type="arc"
         style="fill:#babdb6;fill-opacity:1;fill-rule:nonzero;stroke:none"
         id="path44395"
         sodipodi:cx="16.946117"
         sodipodi:cy="63.885883"
         sodipodi:rx="2.8894303"
         sodipodi:ry="2.8894303"
         d="m 19.835548,63.885883 c 0,1.595789 -1.293642,2.889431 -2.889431,2.889431 -1.595788,0 -2.88943,-1.293642 -2.88943,-2.889431 0,-1.595788 1.293642,-2.88943 2.88943,-2.88943 1.595789,0 2.889431,1.293642 2.889431,2.88943 z"
         inkscape:r_cx="true"
         inkscape:r_cy="true"
         transform="translate(-6.624738,9.564268)" />
      <path
         inkscape:connector-curvature="0"
         inkscape:r_cy="true"
         inkscape:r_cx="true"
         sodipodi:nodetypes="cscccsccsssssscccssssz"
         id="path44397"
         d="m 16.396488,42.000005 c -0.438461,7.92e-4 -0.743512,0.105763 -1.054688,0.546875 -0.05535,0.07846 -0.08532,0.182284 -0.09375,0.28125 0,0 7.9e-5,1.678661 0,1.78125 -0.139663,0.109293 -6.1874999,4.75 -6.1874999,4.75 -0.546424,0.439661 -1.430863,1.022319 -1.625,1.71875 -0.177485,0.636697 -0.074518,1.123098 -0.03125,1.84375 l 1.1875,19.875 c 0.00103,0.01716 -0.00134,0.04547 0,0.0625 -0.00179,0.0054 0.00174,0.02584 0,0.03125 -0.039105,0.121813 -0.051365,0.242103 -0.0625,0.375 -0.079179,0.945046 0.617454,1.76457 1.5624999,1.84375 0.945046,0.07918 1.76457,-0.617457 1.84375,-1.5625 0.03959,-0.472523 -0.122334,-0.914158 -0.40625,-1.25 -0.0089,-0.0105 0.0091,-0.02097 0,-0.03125 L 10.37305,52.73438 c -0.07795,-0.648 0.04286,-0.886309 0.5625,-1.21875 0,-1e-6 4.62026,-3.514978 6.34375,-4.8125 0.07324,-0.05514 0.273069,-0.17073 0.28125,-0.46875 0.0041,-0.145964 6.18e-4,-3.391978 0,-3.40625 -4.91e-4,-0.0056 -0.003,-0.158597 -0.109375,-0.300781 -0.329969,-0.44098 -0.616227,-0.528136 -1.054687,-0.527344 z"
         style="fill:none;stroke:#000000;stroke-width:0.472;stroke-linecap:round;stroke-linejoin:round;stroke-miterlimit:4;stroke-opacity:0.70772944;stroke-dasharray:none" />
      <path
         inkscape:connector-curvature="0"
         style="fill:#555555;fill-opacity:1;fill-rule:nonzero;stroke:none"
         d="m 16.396488,42.000005 c -0.438461,7.92e-4 -0.743512,0.105763 -1.054688,0.546875 -0.05535,0.07846 -0.08532,0.182284 -0.09375,0.28125 0,0 7.9e-5,1.678661 0,1.78125 -0.139663,0.109293 -6.1874999,4.75 -6.1874999,4.75 -0.546424,0.439661 -1.430863,1.022319 -1.625,1.71875 -0.177485,0.636697 -0.074518,1.123098 -0.03125,1.84375 l 1.1875,19.875 c 0.00103,0.01716 -0.00134,0.04547 0,0.0625 -0.00179,0.0054 0.00174,0.02584 0,0.03125 -0.039105,0.121813 -0.051365,0.242103 -0.0625,0.375 -0.079179,0.945046 0.617454,1.76457 1.5624999,1.84375 0.945046,0.07918 1.76457,-0.617457 1.84375,-1.5625 0.03959,-0.472523 -0.122334,-0.914158 -0.40625,-1.25 -0.0089,-0.0105 0.0091,-0.02097 0,-0.03125 L 10.37305,52.73438 c -0.07795,-0.648 0.04286,-0.886309 0.5625,-1.21875 0,-1e-6 4.62026,-3.514978 6.34375,-4.8125 0.07324,-0.05514 0.273069,-0.17073 0.28125,-0.46875 0.0041,-0.145964 6.18e-4,-3.391978 0,-3.40625 -4.91e-4,-0.0056 -0.003,-0.158597 -0.109375,-0.300781 -0.329969,-0.44098 -0.616227,-0.528136 -1.054687,-0.527344 z"
         id="path44399"
         sodipodi:nodetypes="cscccsccsssssscccssssz"
         inkscape:r_cx="true"
         inkscape:r_cy="true" />
      <path
         inkscape:connector-curvature="0"
         inkscape:r_cy="true"
         inkscape:r_cx="true"
         sodipodi:nodetypes="cscccsccsssssscccssssz"
         id="path44401"
         d="m 16.396488,42.000005 c -0.438461,7.92e-4 -0.743512,0.105763 -1.054688,0.546875 -0.05535,0.07846 -0.08532,0.182284 -0.09375,0.28125 0,0 7.9e-5,1.678661 0,1.78125 -0.139663,0.109293 -6.1874999,4.75 -6.1874999,4.75 -0.546424,0.439661 -1.430863,1.022319 -1.625,1.71875 -0.177485,0.636697 -0.074518,1.123098 -0.03125,1.84375 l 1.1875,19.875 c 0.00103,0.01716 -0.00134,0.04547 0,0.0625 -0.00179,0.0054 0.00174,0.02584 0,0.03125 -0.039105,0.121813 -0.051365,0.242103 -0.0625,0.375 -0.079179,0.945046 0.617454,1.76457 1.5624999,1.84375 0.945046,0.07918 1.76457,-0.617457 1.84375,-1.5625 0.03959,-0.472523 -0.122334,-0.914158 -0.40625,-1.25 -0.0089,-0.0105 0.0091,-0.02097 0,-0.03125 L 10.37305,52.73438 c -0.07795,-0.648 0.04286,-0.886309 0.5625,-1.21875 0,-1e-6 4.62026,-3.514978 6.34375,-4.8125 0.07324,-0.05514 0.273069,-0.17073 0.28125,-0.46875 0.0041,-0.145964 6.18e-4,-3.391978 0,-3.40625 -4.91e-4,-0.0056 -0.003,-0.158597 -0.109375,-0.300781 -0.329969,-0.44098 -0.616227,-0.528136 -1.054687,-0.527344 z"
         style="fill:url(#radialGradient4555);fill-opacity:1;fill-rule:nonzero;stroke:none" />
      <path
         inkscape:connector-curvature="0"
         style="fill:url(#radialGradient4557);fill-opacity:1;fill-rule:nonzero;stroke:none;filter:url(#filter4037)"
         d="m 16.396488,42.000005 c -0.438461,7.92e-4 -0.743512,0.105763 -1.054688,0.546875 -0.05535,0.07846 -0.08532,0.182284 -0.09375,0.28125 0,0 7.9e-5,1.678661 0,1.78125 -0.139663,0.109293 -6.1874999,4.75 -6.1874999,4.75 -0.546424,0.439661 -1.430863,1.022319 -1.625,1.71875 -0.177485,0.636697 -0.074518,1.123098 -0.03125,1.84375 l 1.1875,19.875 c 0.00103,0.01716 -0.00134,0.04547 0,0.0625 -0.00179,0.0054 0.00174,0.02584 0,0.03125 -0.039105,0.121813 -0.051365,0.242103 -0.0625,0.375 -0.079179,0.945046 0.617454,1.76457 1.5624999,1.84375 0.945046,0.07918 1.76457,-0.617457 1.84375,-1.5625 0.03959,-0.472523 -0.122334,-0.914158 -0.40625,-1.25 -0.0089,-0.0105 0.0091,-0.02097 0,-0.03125 L 10.37305,52.73438 c -0.07795,-0.648 0.04286,-0.886309 0.5625,-1.21875 0,-1e-6 4.62026,-3.514978 6.34375,-4.8125 0.07324,-0.05514 0.273069,-0.17073 0.28125,-0.46875 0.0041,-0.145964 6.18e-4,-3.391978 0,-3.40625 -4.91e-4,-0.0056 -0.003,-0.158597 -0.109375,-0.300781 -0.329969,-0.44098 -0.616227,-0.528136 -1.054687,-0.527344 z"
         id="path44403"
         sodipodi:nodetypes="cscccsccsssssscccssssz"
         inkscape:r_cx="true"
         inkscape:r_cy="true" />
    </g>
    <path
       inkscape:connector-curvature="0"
       inkscape:r_cy="true"
       inkscape:r_cx="true"
       sodipodi:nodetypes="cscssssscss"
       id="path47133"
       d="m 123.65416,63.589085 c 0.6763,-0.03888 1.35655,0.517756 1.56075,1.247369 0.18667,0.667034 0.27227,0.996065 0.22676,1.751053 0,0 -1.34109,20.764077 -1.35789,21.01046 -0.0139,0.20417 0.15216,0.386921 0.12583,0.765592 -0.0688,0.991169 -0.9639,1.749173 -1.96126,1.735646 -1.10901,-0.01526 -1.76249,-0.889127 -1.84576,-1.879199 -0.0416,-0.495036 0.21803,-0.824248 0.39441,-1.178601 0.0745,-0.149539 0.0641,-0.316619 0.0737,-0.327389 0,0 0.99555,-15.403826 1.21212,-21.547845 0.0323,-0.916072 0.90797,-1.538953 1.57133,-1.577086 z"
       style="fill:url(#radialGradient3185);fill-opacity:1;fill-rule:nonzero;stroke:none" />
    <path
       inkscape:connector-curvature="0"
       style="opacity:0.66284407;fill:url(#radialGradient3182);fill-opacity:1;fill-rule:nonzero;stroke:none"
       d="m 18.850633,65.746973 c -2.392752,0.35421 -4.724462,5.289003 -4.798708,5.794793 -3.08e-4,0.0035 0,0.02979 0,0.03274 l 0,18.432027 c 1.194894,-4.448107 3.109839,-8.36488 5.554668,-11.425892 0.181432,-7.576386 0.394415,-11.163982 0.394415,-11.163981 0,-0.676377 -0.003,-1.147579 -0.131471,-1.407775 -0.0072,-0.01315 -0.02503,-0.05343 -0.03287,-0.06547 -0.0041,-0.0058 -0.02856,-0.02726 -0.03287,-0.03274 -0.0045,-0.0052 -0.02815,-0.02779 -0.03287,-0.03274 -0.0099,-0.0093 -0.02217,-0.02446 -0.03287,-0.03274 -0.0055,-0.0038 -0.02708,-0.02914 -0.03287,-0.03274 -0.03012,-0.01668 -0.09526,-0.02265 -0.131472,-0.03274 -0.01499,-0.0035 -0.04968,-0.03027 -0.06573,-0.03274 -0.03319,-0.0038 -0.09378,-2.22e-4 -0.131471,0 l -0.230075,0 c -0.09903,-0.0016 -0.196937,-0.01463 -0.295811,0 z"
       id="path48010"
       inkscape:r_cx="true"
       inkscape:r_cy="true" />
    <path
       inkscape:connector-curvature="0"
       style="opacity:0.66284407;fill:url(#radialGradient3179);fill-opacity:1;fill-rule:nonzero;stroke:none"
       d="m 112.42087,65.065872 c -0.0161,0.0026 -0.0507,0.02923 -0.0657,0.03274 -0.0362,0.01003 -0.10139,0.01606 -0.13146,0.03274 -0.006,0.0035 -0.0273,0.02887 -0.033,0.03274 -0.005,0.0041 -0.0277,0.02834 -0.033,0.03274 -0.004,0.0049 -0.0284,0.02754 -0.0329,0.03274 -0.004,0.0054 -0.0287,0.02699 -0.033,0.03274 -0.007,0.01205 -0.0257,0.05233 -0.0329,0.06548 -0.1285,0.260195 -0.13147,0.731397 -0.13147,1.407775 0,-10e-7 0.33821,5.492938 0.52588,17.286163 0.13131,8.252052 0.11499,19.42791 0.0985,25.40542 1.79982,-7.19525 2.92524,-17.399258 2.92524,-28.712053 0,-5.176055 -0.22966,-10.136878 -0.65736,-14.667048 -0.64116,-0.598532 -1.34459,-0.993492 -2.03781,-0.982168 l -0.23007,0 c -0.0377,-2.23e-4 -0.0982,-0.0038 -0.13148,0 z"
       id="path48898"
       inkscape:r_cx="true"
       inkscape:r_cy="true" />
    <path
       inkscape:connector-curvature="0"
       style="fill:url(#radialGradient3176);fill-opacity:1;fill-rule:nonzero;stroke:none"
       d="m 15.766706,54.89559 c -0.374828,0.02792 -0.666794,0.184936 -0.953169,0.5893 -0.01035,0.01601 -0.02441,0.04795 -0.03287,0.06548 -0.01056,0.02393 -0.02551,0.0727 -0.03287,0.09822 -0.0017,0.0064 0.0015,0.02625 0,0.03274 -0.0026,0.01303 -0.03103,0.05242 -0.03287,0.06547 -7.32e-4,0.0065 5.54e-4,0.02625 0,0.03274 0,0 8.3e-5,1.758643 0,1.86612 -0.03923,0.03058 -0.562859,0.391954 -1.248978,0.916691 0,0.01056 -2.7e-5,0.02223 0,0.03274 0.0031,1.237546 0.172563,2.417121 0.493017,3.437589 8.16e-4,0.0027 0.03205,-0.0027 0.03287,0 1.112599,-0.841018 2.183971,-1.686933 2.859504,-2.193509 0.0337,-0.02527 0.107698,-0.07074 0.16434,-0.130956 0.02004,-0.02269 0.04813,-0.06902 0.06573,-0.09822 0.01345,-0.02449 0.02277,-0.06887 0.03287,-0.09822 0.0068,-0.02298 0.02879,-0.07221 0.03287,-0.09822 0.002,-0.01805 -5.38e-4,-0.04595 0,-0.06547 0.0043,-0.152919 0.161973,-3.382735 0.07395,-3.519437 -0.08149,-0.126556 -0.204805,-0.285503 -0.328677,-0.392867 -0.22426,-0.194373 -0.500225,-0.541022 -0.961385,-0.540192 -0.05765,1.04e-4 -0.110792,-0.0039 -0.164339,0 z"
       id="path48913"
       inkscape:r_cx="true"
       inkscape:r_cy="true"
       sodipodi:nodetypes="cssssscssssssssssssssc" />
    <path
       inkscape:connector-curvature="0"
       inkscape:r_cy="true"
       inkscape:r_cx="true"
       id="path49816"
       d="m 116.01513,55.32304 c 0.42813,0.02792 0.76162,0.184938 1.08872,0.589302 0.0117,0.01601 0.11055,0.248853 0.11264,0.261911 8.4e-4,0.0065 0.004,0.431957 -1.37116,2.934872 -0.0222,0.04028 -1.40636,0.685925 -1.40698,0.666412 -0.005,-0.152919 -7.5e-4,-3.553593 0,-3.568545 5.9e-4,-0.0079 0.10864,-0.322735 0.11263,-0.32739 0.39641,-0.461989 0.74969,-0.557391 1.27644,-0.556562 0.0658,1.04e-4 0.12655,-0.0039 0.18771,0 z"
       style="fill:url(#radialGradient3173);fill-opacity:1;fill-rule:nonzero;stroke:none"
       sodipodi:nodetypes="csssssssc" />
    <path
       inkscape:connector-curvature="0"
       inkscape:r_cy="true"
       inkscape:r_cx="true"
       sodipodi:nodetypes="cscsccscs"
       id="path49820"
       d="m 20.952448,64.878578 c 0.409107,-0.321485 0.999112,-0.716207 2.501127,-0.766677 0.379036,-0.01273 -1.365746,6.59606 -0.576918,2.914241 0,0 -1.511102,10.448639 -1.511102,22.986874 l 0.363335,25.658254 c -1.002927,-0.0414 -2.143712,-1.48777 -2.143712,-1.86557 0,0 0.318008,-11.04067 0.318008,-23.578904 0,-12.538234 0.395518,-24.079762 0.395518,-24.079762 0,-0.37781 0.370082,-1.045549 0.653744,-1.268456 z"
       style="opacity:0.56880739;fill:url(#radialGradient3170);fill-opacity:1;fill-rule:nonzero;stroke:none" />
    <path
       inkscape:connector-curvature="0"
       style="fill:url(#radialGradient3167);fill-opacity:1;fill-rule:nonzero;stroke:none"
       d="m 111.17622,64.679338 c -0.4091,-0.321485 -1.32779,-1.109075 -2.82981,-1.159545 -0.37902,-0.01273 -0.67673,0.513197 -0.67673,0.891008 0,0 0.9899,13.323086 0.9899,25.861319 0,12.53823 -0.45733,24.12399 -0.45733,24.12399 0,0.3778 -0.02,1.38729 1.35316,1.47866 l 0.58144,-0.01 c 1.00291,-0.0414 2.47238,-1.42228 2.47238,-1.80009 0,0 0.20787,-11.17163 0.20787,-23.709865 0,-12.538235 -0.78994,-24.538108 -0.78994,-24.538108 0,-0.37781 -0.56728,-0.914593 -0.85094,-1.1375 z"
       id="path52457"
       sodipodi:nodetypes="cscsccccscs"
       inkscape:r_cx="true"
       inkscape:r_cy="true" />
    <path
       inkscape:connector-curvature="0"
       inkscape:r_cy="true"
       inkscape:r_cx="true"
       sodipodi:nodetypes="cscsccccscs"
       id="path53340"
       d="m 111.17622,64.679338 c -0.4091,-0.321485 -1.32779,-1.109075 -2.82981,-1.159545 -0.37902,-0.01273 -0.67673,0.513197 -0.67673,0.891008 0,0 0.9899,13.323086 0.9899,25.861319 0,12.53823 -0.45733,24.12399 -0.45733,24.12399 0,0.3778 -0.02,1.38729 1.35316,1.47866 l 0.58144,-0.01 c 1.00291,-0.0414 2.47238,-1.42228 2.47238,-1.80009 0,0 0.20787,-11.17163 0.20787,-23.709865 0,-12.538235 -0.78994,-24.538108 -0.78994,-24.538108 0,-0.37781 -0.56728,-0.914593 -0.85094,-1.1375 z"
       style="fill:url(#radialGradient3164);fill-opacity:1;fill-rule:nonzero;stroke:none" />
    <path
       inkscape:connector-curvature="0"
       inkscape:r_cy="true"
       inkscape:r_cx="true"
       sodipodi:nodetypes="cscsccccscs"
       id="path55098"
       d="m 20.755241,64.801866 c 0.409107,-0.321484 1.327791,-1.109075 2.829806,-1.159544 0.379035,-0.01273 0.676732,0.513197 0.676732,0.891008 0,0 -0.989888,13.323085 -0.989888,25.861319 0,12.538231 0.457329,24.123991 0.457329,24.123991 0,0.3778 0.01999,1.38728 -1.353168,1.47865 l -0.581426,-0.01 c -1.002928,-0.0414 -2.472392,-1.42228 -2.472392,-1.80009 0,0 -0.207877,-11.17163 -0.207877,-23.709868 0,-12.538234 0.789933,-24.538108 0.789933,-24.538108 0,-0.377809 0.567288,-0.914591 0.850951,-1.137499 z"
       style="fill:url(#radialGradient3161);fill-opacity:1;fill-rule:nonzero;stroke:none" />
    <path
       inkscape:connector-curvature="0"
       style="fill:url(#radialGradient3158);fill-opacity:1;fill-rule:nonzero;stroke:none"
       d="M 65.397161,11.551819 C 43.881627,12.123492 29.42498,24.015505 24.509544,34.50182 c -0.939019,2.003253 -0.284803,3.782841 1.906336,6.122183 -0.183531,-0.928133 -0.25228,-1.895174 -0.230075,-2.848287 0.299178,-12.841953 18.938779,-24.46608 42.543256,-23.89654 10.419161,0.251398 20.681558,4.20405 28.024038,7.756238 -7.078242,-5.568437 -17.215887,-10.083596 -29.811148,-10.083595 -0.434689,10e-7 -0.850464,-0.0096 -1.281847,0 -0.08459,0.0019 -0.178568,-0.0022 -0.262943,0 z"
       id="path59507"
       inkscape:r_cx="true"
       inkscape:r_cy="true"
       sodipodi:nodetypes="cscsscssc" />
  </g>
</svg>
