<?xml version="1.0" encoding="UTF-8" standalone="no"?>
<!-- Created with Inkscape (http://www.inkscape.org/) -->

<svg
   xmlns:dc="http://purl.org/dc/elements/1.1/"
   xmlns:cc="http://creativecommons.org/ns#"
   xmlns:rdf="http://www.w3.org/1999/02/22-rdf-syntax-ns#"
   xmlns:svg="http://www.w3.org/2000/svg"
   xmlns="http://www.w3.org/2000/svg"
   xmlns:xlink="http://www.w3.org/1999/xlink"
   xmlns:sodipodi="http://sodipodi.sourceforge.net/DTD/sodipodi-0.dtd"
   xmlns:inkscape="http://www.inkscape.org/namespaces/inkscape"
   width="128"
   height="128"
   id="svg2"
   sodipodi:version="0.32"
   inkscape:version="0.46+devel"
   version="1.0"
   sodipodi:docname="code-typedef.svgz"
   inkscape:output_extension="org.inkscape.output.svgz.inkscape"
   inkscape:export-filename="/home/pinheiro/pics/oxygen-icons/scalable/actions/small/32x32/code-typedef.png"
   inkscape:export-xdpi="90"
   inkscape:export-ydpi="90">
  <defs
     id="defs4">
    <linearGradient
       id="linearGradient3866"
       inkscape:collect="always">
      <stop
         id="stop3868"
         offset="0"
         style="stop-color:#f9ffb3;stop-opacity:1" />
      <stop
         id="stop3870"
         offset="1"
         style="stop-color:#e5ff00;stop-opacity:0;" />
    </linearGradient>
    <linearGradient
       inkscape:collect="always"
       id="linearGradient3804">
      <stop
         style="stop-color:#000000;stop-opacity:1;"
         offset="0"
         id="stop3806" />
      <stop
         style="stop-color:#000000;stop-opacity:0;"
         offset="1"
         id="stop3808" />
    </linearGradient>
    <linearGradient
       inkscape:collect="always"
       id="linearGradient3493">
      <stop
         style="stop-color:#ffffff;stop-opacity:1;"
         offset="0"
         id="stop3495" />
      <stop
         style="stop-color:#ffffff;stop-opacity:0;"
         offset="1"
         id="stop3497" />
    </linearGradient>
    <linearGradient
       inkscape:collect="always"
       id="linearGradient3386">
      <stop
         style="stop-color:#ffffff;stop-opacity:1;"
         offset="0"
         id="stop3388" />
      <stop
         style="stop-color:#ffffff;stop-opacity:0;"
         offset="1"
         id="stop3390" />
    </linearGradient>
    <linearGradient
       id="linearGradient3361">
      <stop
         style="stop-color:#e7f0ce;stop-opacity:1;"
         offset="0"
         id="stop3363" />
      <stop
         style="stop-color:#edffbf;stop-opacity:0;"
         offset="1"
         id="stop3365" />
    </linearGradient>
    <linearGradient
       id="linearGradient3348">
      <stop
         style="stop-color:#a7bf50;stop-opacity:1;"
         offset="0"
         id="stop3350" />
      <stop
         style="stop-color:#173517;stop-opacity:1;"
         offset="1"
         id="stop3352" />
    </linearGradient>
    <linearGradient
       inkscape:collect="always"
       xlink:href="#linearGradient3348"
       id="linearGradient3784"
       x1="20.095404"
       y1="12.910217"
       x2="20.095404"
       y2="99.999657"
       gradientUnits="userSpaceOnUse"
       gradientTransform="matrix(0.7931548,0,0,0.7931548,82.740255,19.019887)" />
    <linearGradient
       inkscape:collect="always"
       xlink:href="#linearGradient3386"
       id="linearGradient3795"
       gradientUnits="userSpaceOnUse"
       gradientTransform="matrix(0.7931548,0,0,0.7931548,82.740255,19.029799)"
       x1="36"
       y1="31.987499"
       x2="36"
       y2="43.987499" />
    <radialGradient
       inkscape:collect="always"
       xlink:href="#linearGradient3386"
       id="radialGradient3819"
       cx="61"
       cy="30.999996"
       fx="61"
       fy="30.999996"
       r="6"
       gradientUnits="userSpaceOnUse"
       gradientTransform="matrix(-3.9999996,3.9999996,-1.3333339,-1.3333335,337.33332,-174.66664)" />
    <filter
       inkscape:collect="always"
       id="filter3845"
       x="-0.12815534"
       width="1.2563107"
       y="-0.12815534"
       height="1.2563107">
      <feGaussianBlur
         inkscape:collect="always"
         stdDeviation="0.6407767"
         id="feGaussianBlur3847" />
    </filter>
    <radialGradient
       inkscape:collect="always"
       xlink:href="#linearGradient3361"
       id="radialGradient3863"
       gradientUnits="userSpaceOnUse"
       gradientTransform="matrix(-3.9999996,3.9999996,-1.3333339,-1.3333335,337.33332,-174.66664)"
       cx="62.125"
       cy="27.624998"
       fx="62.125"
       fy="27.624998"
       r="6" />
    <radialGradient
       inkscape:collect="always"
       xlink:href="#linearGradient3361"
       id="radialGradient3865"
       gradientUnits="userSpaceOnUse"
       gradientTransform="matrix(-3.9999996,3.9999996,-1.3333339,-1.3333335,337.33332,-174.66664)"
       cx="61.125"
       cy="24.624998"
       fx="61.125"
       fy="24.624998"
       r="6" />
    <clipPath
       clipPathUnits="userSpaceOnUse"
       id="clipPath3875">
      <rect
         style="fill:url(#linearGradient3879);fill-opacity:1;stroke:none"
         id="rect3877"
         width="136.42764"
         height="65.003738"
         x="-84.427773"
         y="26.545454"
         rx="8"
         ry="8" />
    </clipPath>
    <linearGradient
       inkscape:collect="always"
       xlink:href="#linearGradient3348"
       id="linearGradient3879"
       gradientUnits="userSpaceOnUse"
       x1="60"
       y1="-16"
       x2="60"
       y2="84" />
    <filter
       inkscape:collect="always"
       id="filter3894"
       x="-0.036043689"
       width="1.0720874"
       y="-0.28834951"
       height="1.576699">
      <feGaussianBlur
         inkscape:collect="always"
         stdDeviation="0.72087379"
         id="feGaussianBlur3896" />
    </filter>
    <linearGradient
       inkscape:collect="always"
       xlink:href="#linearGradient3348"
       id="linearGradient3785"
       gradientUnits="userSpaceOnUse"
       gradientTransform="matrix(0.7931548,0,0,0.7931548,82.740255,19.019887)"
       x1="60"
       y1="-16"
       x2="60"
       y2="84" />
    <linearGradient
       inkscape:collect="always"
       xlink:href="#linearGradient3804"
       id="linearGradient3810"
       x1="21.3328"
       y1="58.6684"
       x2="9.2592554"
       y2="46.594856"
       gradientUnits="userSpaceOnUse" />
    <filter
       inkscape:collect="always"
       id="filter3816"
       x="-0.10805687"
       width="1.2161137"
       y="-0.10805687"
       height="1.2161137">
      <feGaussianBlur
         inkscape:collect="always"
         stdDeviation="0.72036114"
         id="feGaussianBlur3818" />
    </filter>
    <clipPath
       clipPathUnits="userSpaceOnUse"
       id="clipPath3822">
      <path
         id="path3824"
         d="m 24,33.75625 c -7.363613,0 -12.94375,5.980137 -12.94375,13.34375 0,5.532989 2.98786,10.263553 7.7875,12.28125 l 0,20.61875 c 0,2.954611 2.357889,5.34375 5.3125,5.34375 l 80,0 C 107.11086,85.34375 109.5,82.954611 109.5,80 l 0,-32.9 c 0,-2.954611 -2.38914,-5.34375 -5.34375,-5.34375 l -67.9375,0 c -2.060228,-4.70241 -6.756117,-8 -12.21875,-8 z"
         style="fill:url(#linearGradient3826);fill-opacity:1;stroke:none"
         sodipodi:nodetypes="csccccccccc" />
    </clipPath>
    <linearGradient
       inkscape:collect="always"
       xlink:href="#linearGradient3348"
       id="linearGradient3826"
       gradientUnits="userSpaceOnUse"
       gradientTransform="matrix(0.66665416,0,0,0.66665416,74.831217,24.00245)"
       x1="60"
       y1="-16"
       x2="60"
       y2="84" />
    <linearGradient
       inkscape:collect="always"
       xlink:href="#linearGradient3361"
       id="linearGradient3852"
       gradientUnits="userSpaceOnUse"
       gradientTransform="matrix(0.7931548,0,0,0.7931548,82.740255,19.019887)"
       x1="21.081562"
       y1="16.677738"
       x2="32.600307"
       y2="59.666279" />
    <radialGradient
       inkscape:collect="always"
       xlink:href="#linearGradient3866"
       id="radialGradient3864"
       cx="21.3328"
       cy="45.3354"
       fx="19.265131"
       fy="41.754089"
       r="5.3332"
       gradientUnits="userSpaceOnUse"
       gradientTransform="matrix(1.3312127,0,0,1.3312127,-7.0656953,-15.015662)" />
    <radialGradient
       inkscape:collect="always"
       xlink:href="#linearGradient3493"
       id="radialGradient3880"
       cx="23.999399"
       cy="36.421463"
       fx="23.999399"
       fy="36.421463"
       r="5.3332"
       gradientTransform="matrix(1,0,0,1.25,0,-9.0005759)"
       gradientUnits="userSpaceOnUse" />
    <filter
       inkscape:collect="always"
       id="filter3882">
      <feGaussianBlur
         inkscape:collect="always"
         stdDeviation="0.12887266"
         id="feGaussianBlur3884" />
    </filter>
  </defs>
  <sodipodi:namedview
     id="base"
     pagecolor="#ffffff"
     bordercolor="#666666"
     borderopacity="1.0"
     gridtolerance="10000"
     guidetolerance="10"
     objecttolerance="10"
     inkscape:pageopacity="0.0"
     inkscape:pageshadow="2"
     inkscape:zoom="4.8125"
     inkscape:cx="52.491025"
     inkscape:cy="63.814125"
     inkscape:document-units="px"
     inkscape:current-layer="layer1"
     width="128px"
     height="128px"
     showgrid="false"
     inkscape:window-width="1096"
     inkscape:window-height="1000"
     inkscape:window-x="85"
     inkscape:window-y="74"
     inkscape:snap-nodes="true">
    <inkscape:grid
       id="GridFromPre046Settings"
       type="xygrid"
       originx="0px"
       originy="0px"
       spacingx="4px"
       spacingy="4px"
       color="#0000ff"
       empcolor="#0000ff"
       opacity="0.2"
       empopacity="0.4"
       empspacing="2"
       visible="true"
       enabled="true" />
  </sodipodi:namedview>
  <metadata
     id="metadata7">
    <rdf:RDF>
      <cc:Work
         rdf:about="">
        <dc:format>image/svg+xml</dc:format>
        <dc:type
           rdf:resource="http://purl.org/dc/dcmitype/StillImage" />
        <dc:title></dc:title>
      </cc:Work>
    </rdf:RDF>
  </metadata>
  <g
     inkscape:label="Layer 1"
     inkscape:groupmode="layer"
     id="layer1">
    <path
       style="fill:url(#linearGradient3785);fill-opacity:1;stroke:none"
       d="m 22.863586,31.500488 c -10.113675,0 -15.7047017,8.022618 -15.7047017,15.175787 0,7.153169 3.1307217,11.911109 8.8411157,14.311673 l 0,24.655276 c 0,3.515261 2.805308,6.35775 6.32057,6.35775 l 95.30928,0 c 3.51526,0 6.35775,-2.842489 6.35775,-6.35775 l 0,-39.266949 c 0,-3.515262 -2.84249,-6.35775 -6.35775,-6.35775 l -80.828951,0 C 34.349734,34.423811 29.362777,31.500488 22.863586,31.500488 z"
       id="rect3803"
       sodipodi:nodetypes="czccccccccc" />
    <path
       style="fill:url(#radialGradient3880);fill-opacity:1;stroke-width:1px;filter:url(#filter3882)"
       d="m 23.9994,34.669 c -2.6666,0 -5.915724,1.259934 -7.9998,2.6666 5.441755,12.592362 10.753244,10.073927 15.9996,0 -1.383493,-1.414521 -5.465079,-2.664265 -7.9998,-2.6666 z"
       id="path3872"
       sodipodi:nodetypes="cccs"
       transform="matrix(1.1897546,0,0,1.1897546,-5.5905224,-9.5371359)" />
    <path
       style="fill:url(#linearGradient3810);fill-opacity:1;stroke:none;filter:url(#filter3816)"
       d="M 18.880669,60.338146 23.9994,56.0018 18.6662,45.3354 7.9998,48.002 13.333,61.335 18.880669,60.338146 z"
       id="path3794"
       clip-path="url(#clipPath3822)"
       transform="matrix(1.1897546,0,0,1.1897546,-6.2905224,-9.5371359)" />
    <g
       id="g3867"
       clip-path="url(#clipPath3875)"
       transform="matrix(0.7931548,0,0,0.7931548,82.740255,19.019887)">
      <path
         id="rect3807"
         d="m 44,24 0,12 12,0 C 56,29.352006 50.647994,24 44,24 z"
         style="opacity:0.93564357;fill:url(#radialGradient3819);fill-opacity:1;stroke:none;filter:url(#filter3845)"
         sodipodi:nodetypes="cccc"
         transform="matrix(0.66666667,0,0,0.66666667,14.540588,10.613133)" />
      <path
         transform="matrix(0.66666667,0,0,-0.66666667,13.916652,113.90033)"
         style="opacity:0.54960399;fill:url(#radialGradient3863);fill-opacity:1;stroke:none;filter:url(#filter3845)"
         d="m 44,33 0,12 12,0 C 56,38.352006 50.647994,33 44,33 z"
         id="path3859"
         sodipodi:nodetypes="cccc" />
      <path
         id="path3861"
         d="m 52,33 0,12 12,0 C 64,38.352006 58.647994,33 52,33 z"
         style="opacity:0.54960399;fill:url(#radialGradient3865);fill-opacity:1;stroke:none;filter:url(#filter3845)"
         transform="matrix(-0.66666667,0,0,-0.66666667,-40.934971,113.6003)"
         sodipodi:nodetypes="cccc" />
    </g>
    <path
       style="fill:url(#linearGradient3784);fill-opacity:1;stroke:none"
       d="m 22.963586,34.481963 c -7.008712,0 -12.678321,5.669609 -12.678321,12.678322 0,5.985596 4.128465,10.96912 9.703935,12.306523 l 0,26.176416 c 0,1.757631 1.402654,3.160286 3.160285,3.160286 l 93.653055,0 c 1.75763,0 3.19746,-1.402655 3.19746,-3.160286 l 0,-38.482939 C 120,45.402654 118.56017,44 116.80254,44 L 35.23293,44 C 33.824533,38.526001 28.877187,34.481963 22.963586,34.481963 z"
       id="rect3763"
       sodipodi:nodetypes="csccccccccc" />
    <path
       style="opacity:0.93564357;fill:url(#linearGradient3852);fill-opacity:1;stroke:none"
       d="m 22.963586,34.481963 c -7.008712,0 -12.678321,5.669609 -12.678321,12.678322 0,5.985596 4.128465,11.379915 9.703935,12.717318 l 0,3.346185 C 35.640956,68.003089 112.47206,63.576077 120,56.529602 l 0,-9.369317 C 120,45.402655 118.56015,44 116.80254,44 L 35.23293,44 C 33.824533,38.526001 28.877187,34.481963 22.963586,34.481963 z m 0,3.160286 c 5.256535,0 9.518036,4.2615 9.518036,9.518036 0,5.256536 -4.261501,9.518037 -9.518036,9.518037 -5.256536,0 -9.518036,-4.261501 -9.518036,-9.518037 0,-5.256536 4.2615,-9.518036 9.518036,-9.518036 z"
       id="path3765"
       sodipodi:nodetypes="csccccccccsssc" />
    <path
       style="fill:url(#linearGradient3795);fill-opacity:1;stroke:none"
       d="m 22.863586,34.481963 c -6.770754,0 -12.273283,5.293052 -12.641142,11.971905 0.649875,-6.399211 6.070473,-11.377026 12.641142,-11.377026 5.7075,0 10.558806,3.742293 12.157804,8.923158 l 0.148719,0.557698 0.07436,0 81.485381,0 c 1.75761,0 3.19746,1.402655 3.19746,3.160285 l 0,-0.557698 C 119.92731,45.402654 118.48746,44 116.72985,44 L 35.13293,44 C 33.728572,38.530324 28.775406,34.481963 22.863586,34.481963 z"
       id="path3786"
       sodipodi:nodetypes="ccsccccccccc" />
    <path
       style="fill:#a0b566;fill-opacity:1;stroke:none;filter:url(#filter3894)"
       d="m -80.574472,56.669881 0,2 c 0,2.216 1.784,4 4,4 l 117.980084,0 c 2.216,0 4,-1.784 4,-4 l 0,-2 c 0,2.216 -1.784,4 -4,4 l -117.980084,0 c -2.216,0 -4,-1.784 -4,-4 z"
       id="rect3881"
       sodipodi:nodetypes="ccccccccc"
       transform="matrix(0.7931548,0,0,0.7931548,83.798007,39.110814)" />
    <path
       sodipodi:type="arc"
       style="fill:url(#radialGradient3864);fill-opacity:1;stroke:none"
       id="path3855"
       sodipodi:cx="21.3328"
       sodipodi:cy="45.3354"
       sodipodi:rx="7.9997969"
       sodipodi:ry="7.9997969"
       d="m 29.332597,45.3354 a 7.9997969,7.9997969 0 1 1 -15.999594,0 7.9997969,7.9997969 0 1 1 15.999594,0 z"
       transform="matrix(1.1897546,0,0,1.1897546,-3.1179241,-6.3645398)" />
  </g>
</svg>
