<?xml version="1.0" encoding="UTF-8" standalone="no"?>
<!-- Created with Inkscape (http://www.inkscape.org/) -->

<svg
   xmlns:a="http://ns.adobe.com/AdobeSVGViewerExtensions/3.0/"
   xmlns:dc="http://purl.org/dc/elements/1.1/"
   xmlns:cc="http://creativecommons.org/ns#"
   xmlns:rdf="http://www.w3.org/1999/02/22-rdf-syntax-ns#"
   xmlns:svg="http://www.w3.org/2000/svg"
   xmlns="http://www.w3.org/2000/svg"
   xmlns:xlink="http://www.w3.org/1999/xlink"
   xmlns:sodipodi="http://sodipodi.sourceforge.net/DTD/sodipodi-0.dtd"
   xmlns:inkscape="http://www.inkscape.org/namespaces/inkscape"
   width="128"
   height="128"
   id="svg2"
   sodipodi:version="0.32"
   inkscape:version="0.46+devel"
   version="1.0"
   sodipodi:docname="code-variable.svgz"
   inkscape:output_extension="org.inkscape.output.svgz.inkscape"
   inkscape:export-filename="/home/pinheiro/pics/oxygen-icons/scalable/actions/small/32x32/code-variable.png"
   inkscape:export-xdpi="90"
   inkscape:export-ydpi="90">
  <defs
     id="defs4">
    <linearGradient
       inkscape:collect="always"
       id="linearGradient3619">
      <stop
         style="stop-color:#111111;stop-opacity:1;"
         offset="0"
         id="stop3621" />
      <stop
         style="stop-color:#111111;stop-opacity:0;"
         offset="1"
         id="stop3623" />
    </linearGradient>
    <linearGradient
       id="linearGradient4100">
      <stop
         style="stop-color:#4392cc;stop-opacity:1;"
         offset="0"
         id="stop4102" />
      <stop
         style="stop-color:#003a65;stop-opacity:1;"
         offset="1"
         id="stop4104" />
    </linearGradient>
    <linearGradient
       id="linearGradient4073">
      <stop
         id="stop4075"
         offset="0"
         style="stop-color:#888888;stop-opacity:1;" />
      <stop
         id="stop4077"
         offset="1"
         style="stop-color:#484848;stop-opacity:1;" />
    </linearGradient>
    <linearGradient
       id="linearGradient4067">
      <stop
         style="stop-color:#dfdfdf;stop-opacity:1;"
         offset="0"
         id="stop4069" />
      <stop
         style="stop-color:#dfdfdf;stop-opacity:0;"
         offset="1"
         id="stop4071" />
    </linearGradient>
    <linearGradient
       id="linearGradient3972">
      <stop
         id="stop3974"
         offset="0"
         style="stop-color:#dfdfdf;stop-opacity:1;" />
      <stop
         id="stop3976"
         offset="1"
         style="stop-color:#dfdfdf;stop-opacity:0;" />
    </linearGradient>
    <linearGradient
       inkscape:collect="always"
       id="linearGradient3386">
      <stop
         style="stop-color:#ffffff;stop-opacity:1;"
         offset="0"
         id="stop3388" />
      <stop
         style="stop-color:#ffffff;stop-opacity:0;"
         offset="1"
         id="stop3390" />
    </linearGradient>
    <radialGradient
       cx="265.3931"
       cy="-6078.353"
       r="253.01871"
       fx="369.5242"
       fy="-6078.353"
       id="path2295_1_"
       gradientUnits="userSpaceOnUse"
       gradientTransform="matrix(0.183616,0,0,-1.462967e-2,-0.962917,-7.25873)">
      <stop
         style="stop-color:#000000;stop-opacity:1"
         offset="0"
         id="stop8" />
      <stop
         style="stop-color:#ffffff;stop-opacity:1"
         offset="1"
         id="stop10" />
      <a:midPointStop
         style="stop-color:#000000"
         offset="0" />
      <a:midPointStop
         style="stop-color:#000000"
         offset="0.5" />
      <a:midPointStop
         style="stop-color:#FFFFFF"
         offset="1" />
    </radialGradient>
    <filter
       inkscape:collect="always"
       id="filter3845"
       x="-0.12815534"
       width="1.2563107"
       y="-0.12815534"
       height="1.2563107">
      <feGaussianBlur
         inkscape:collect="always"
         stdDeviation="0.6407767"
         id="feGaussianBlur3847" />
    </filter>
    <filter
       inkscape:collect="always"
       id="filter4014"
       x="-0.038046117"
       width="1.0760922"
       y="-0.20291262"
       height="1.4058252">
      <feGaussianBlur
         inkscape:collect="always"
         stdDeviation="0.50728155"
         id="feGaussianBlur4016" />
    </filter>
    <linearGradient
       inkscape:collect="always"
       xlink:href="#linearGradient4073"
       id="linearGradient4047"
       gradientUnits="userSpaceOnUse"
       gradientTransform="translate(36,24.25)"
       x1="60"
       y1="11.75"
       x2="60"
       y2="71.75" />
    <linearGradient
       inkscape:collect="always"
       xlink:href="#path2295_1_"
       id="linearGradient4057"
       gradientUnits="userSpaceOnUse"
       gradientTransform="translate(36,24.25)"
       x1="60"
       y1="-4.25"
       x2="60"
       y2="63.874878" />
    <linearGradient
       inkscape:collect="always"
       xlink:href="#linearGradient4067"
       id="linearGradient4059"
       gradientUnits="userSpaceOnUse"
       x1="108"
       y1="44"
       x2="114.29734"
       y2="67.501991"
       gradientTransform="translate(-52,12)" />
    <clipPath
       clipPathUnits="userSpaceOnUse"
       id="clipPath4114">
      <rect
         ry="8.0000019"
         rx="8.0000019"
         y="20"
         x="-4"
         height="47.999973"
         width="80"
         id="rect4116"
         style="fill:url(#linearGradient4118);fill-opacity:1;stroke:none" />
    </clipPath>
    <linearGradient
       inkscape:collect="always"
       xlink:href="#linearGradient4100"
       id="linearGradient4118"
       gradientUnits="userSpaceOnUse"
       gradientTransform="translate(8,0.25)"
       x1="60"
       y1="23.75"
       x2="60"
       y2="71.75" />
    <radialGradient
       inkscape:collect="always"
       xlink:href="#linearGradient3386"
       id="radialGradient2995"
       gradientUnits="userSpaceOnUse"
       gradientTransform="matrix(-3.9999996,3.9999996,-1.3333339,-1.3333335,330.33332,-174.66664)"
       cx="61"
       cy="30.999996"
       fx="61"
       fy="30.999996"
       r="6" />
    <radialGradient
       inkscape:collect="always"
       xlink:href="#linearGradient3386"
       id="radialGradient2997"
       gradientUnits="userSpaceOnUse"
       gradientTransform="matrix(-3.9999996,3.9999996,-1.3333339,-1.3333335,337.33332,-174.66664)"
       cx="60"
       cy="28"
       fx="60"
       fy="28"
       r="6" />
    <radialGradient
       inkscape:collect="always"
       xlink:href="#linearGradient3972"
       id="radialGradient2999"
       gradientUnits="userSpaceOnUse"
       gradientTransform="matrix(-3.9999996,3.9999996,-1.3333339,-1.3333335,337.33332,-174.66664)"
       cx="62.125"
       cy="27.624998"
       fx="62.125"
       fy="27.624998"
       r="6" />
    <radialGradient
       inkscape:collect="always"
       xlink:href="#linearGradient3972"
       id="radialGradient3001"
       gradientUnits="userSpaceOnUse"
       gradientTransform="matrix(-3.9999996,3.9999996,-1.3333339,-1.3333335,337.33332,-174.66664)"
       cx="61.125"
       cy="24.624998"
       fx="61.125"
       fy="24.624998"
       r="6" />
    <linearGradient
       inkscape:collect="always"
       xlink:href="#linearGradient3619"
       id="linearGradient3625"
       x1="96"
       y1="40"
       x2="96"
       y2="88.166382"
       gradientUnits="userSpaceOnUse" />
  </defs>
  <sodipodi:namedview
     id="base"
     pagecolor="#ffffff"
     bordercolor="#666666"
     borderopacity="1.0"
     gridtolerance="10000"
     guidetolerance="10"
     objecttolerance="10"
     inkscape:pageopacity="0.0"
     inkscape:pageshadow="2"
     inkscape:zoom="6.8059028"
     inkscape:cx="80.48818"
     inkscape:cy="54.547295"
     inkscape:document-units="px"
     inkscape:current-layer="layer1"
     width="128px"
     height="128px"
     showgrid="true"
     inkscape:window-width="1040"
     inkscape:window-height="728"
     inkscape:window-x="870"
     inkscape:window-y="404">
    <inkscape:grid
       id="GridFromPre046Settings"
       type="xygrid"
       originx="0px"
       originy="0px"
       spacingx="4px"
       spacingy="4px"
       color="#0000ff"
       empcolor="#0000ff"
       opacity="0.2"
       empopacity="0.4"
       empspacing="2" />
  </sodipodi:namedview>
  <metadata
     id="metadata7">
    <rdf:RDF>
      <cc:Work
         rdf:about="">
        <dc:format>image/svg+xml</dc:format>
        <dc:type
           rdf:resource="http://purl.org/dc/dcmitype/StillImage" />
        <dc:title></dc:title>
      </cc:Work>
    </rdf:RDF>
  </metadata>
  <g
     inkscape:label="Layer 1"
     inkscape:groupmode="layer"
     id="layer1">
    <rect
       ry="8"
       rx="8"
       y="44"
       x="24"
       height="48"
       width="80"
       id="rect4027"
       style="fill:url(#linearGradient4047);fill-opacity:1;stroke:none" />
    <g
       transform="translate(28,24)"
       clip-path="url(#clipPath4114)"
       id="g3954">
      <path
         sodipodi:nodetypes="cccc"
         style="opacity:0.93564357;fill:url(#radialGradient2995);fill-opacity:1;stroke:none;filter:url(#filter3845)"
         d="m 37,24 0,12 12,0 C 49,29.352006 43.647994,24 37,24 z"
         id="path3956"
         transform="matrix(0.66666666,0,0,0.66666666,43.333334,4)" />
      <path
         id="path3958"
         d="m 52,24 0,12 12,0 C 64,29.352006 58.647994,24 52,24 z"
         style="opacity:0.93564357;fill:url(#radialGradient2997);fill-opacity:1;stroke:none;filter:url(#filter3845)"
         transform="matrix(-0.66666667,0,0,0.66666667,38.666667,4)" />
      <path
         sodipodi:nodetypes="cccc"
         id="path3960"
         d="m 44,33 0,12 12,0 C 56,38.352006 50.647994,33 44,33 z"
         style="opacity:0.54960399;fill:url(#radialGradient2999);fill-opacity:1;stroke:none;filter:url(#filter3845)"
         transform="matrix(0.66666667,0,0,-0.66666667,38.666667,90)" />
      <path
         sodipodi:nodetypes="cccc"
         transform="matrix(-0.66666667,0,0,-0.66666667,38.666667,90)"
         style="opacity:0.54960399;fill:url(#radialGradient3001);fill-opacity:1;stroke:none;filter:url(#filter3845)"
         d="m 52,33 0,12 12,0 C 64,38.352006 58.647994,33 52,33 z"
         id="path3962" />
    </g>
    <rect
       style="fill:url(#linearGradient4057);fill-opacity:1;stroke:none"
       id="rect4039"
       width="72"
       height="40.000004"
       x="28"
       y="48"
       rx="4"
       ry="4" />
    <path
       id="path4041"
       d="m 32,48 c -2.216,0 -4,1.784 -4,4 l 0,17.84375 C 29.314787,69.93175 30.637024,70 32,70 44.75797,70 95.66203,66.02003 100,60.40625 L 100,52 c 0,-2.216 -1.784,-4 -4,-4 l -64,0 z"
       style="opacity:0.54960399;fill:url(#linearGradient4059);fill-opacity:1;stroke:none"
       sodipodi:nodetypes="cccscccc" />
    <path
       id="path4043"
       d="m 80.091873,114.6 0,2 c 0,2.216 1.784,4 4,4 l 63.159167,0 c 2.216,0 4,-1.784 4,-4 l 0,-2 c 0,2.216 -1.784,4.7 -4,4.7 l -63.159167,0 c -2.216,0 -4,-2.484 -4,-4.7 z"
       style="fill:#ffffff;fill-opacity:1;stroke:none;filter:url(#filter4014)"
       sodipodi:nodetypes="ccccccccc"
       transform="matrix(1.0116175,0,0,1,-53.008197,-32)" />
    <path
       id="path4045"
       d="m 32,48 c -2.216,0 -4,1.784 -4,4 l 0,1 c 0,-2.216 1.784,-4 4,-4 l 64,0 c 2.216,0 4,1.784 4,4 l 0,-1 c 0,-2.216 -1.784,-4 -4,-4 l -64,0 z"
       style="fill:#ffffff;fill-opacity:1;stroke:none"
       sodipodi:nodetypes="ccccccccc" />
    <path
       style="opacity:0.50724636999999995;fill:url(#linearGradient3625);fill-opacity:1;stroke:none"
       d="M 44 56 L 44 84 L 48 84 L 48 56 L 44 56 z M 68 56 L 68 76 L 72 76 L 72 56 L 68 56 z M 92 56 L 92 64 L 96 64 L 96 56 L 92 56 z M 32 64 L 32 84 L 36 84 L 36 64 L 32 64 z M 56 64 L 56 84 L 60 84 L 60 64 L 56 64 z M 80 68 L 80 84 L 84 84 L 84 68 L 80 68 z "
       id="rect2834" />
  </g>
</svg>
