<?xml version="1.0" encoding="UTF-8" standalone="no"?>
<!-- Generator: Adobe Illustrator 12.0.0, SVG Export Plug-In . SVG Version: 6.00 Build 51448)  -->
<svg
   xmlns:ns="http://ns.adobe.com/SaveForWeb/1.0/"
   xmlns:dc="http://purl.org/dc/elements/1.1/"
   xmlns:cc="http://creativecommons.org/ns#"
   xmlns:rdf="http://www.w3.org/1999/02/22-rdf-syntax-ns#"
   xmlns:svg="http://www.w3.org/2000/svg"
   xmlns="http://www.w3.org/2000/svg"
   xmlns:xlink="http://www.w3.org/1999/xlink"
   xmlns:sodipodi="http://sodipodi.sourceforge.net/DTD/sodipodi-0.dtd"
   xmlns:inkscape="http://www.inkscape.org/namespaces/inkscape"
   version="1.1"
   id="Layer_1"
   width="128"
   height="128"
   viewBox="0 0 128 128"
   overflow="visible"
   enable-background="new 0 0 128 128"
   xml:space="preserve"
   sodipodi:version="0.32"
   inkscape:version="0.46"
   sodipodi:docname="go-first-page.svgz"
   sodipodi:docbase="/Users/david/Desktop/sandbox"
   inkscape:output_extension="org.inkscape.output.svgz.inkscape"
   inkscape:export-filename="/home/pinheiro/pics/oxygen/scalable/actions/go-first-page.png"
   inkscape:export-xdpi="45"
   inkscape:export-ydpi="45"><defs
   id="defs105"><linearGradient
     inkscape:collect="always"
     id="linearGradient4578"><stop
       style="stop-color:#ffffff;stop-opacity:1;"
       offset="0"
       id="stop4580" /><stop
       style="stop-color:#ffffff;stop-opacity:0"
       offset="1"
       id="stop4582" /></linearGradient><linearGradient
     inkscape:collect="always"
     id="linearGradient4568"><stop
       style="stop-color:#ffffff;stop-opacity:1;"
       offset="0"
       id="stop4570" /><stop
       style="stop-color:#ffffff;stop-opacity:0;"
       offset="1"
       id="stop4572" /></linearGradient><filter
     inkscape:collect="always"
     id="filter3241"><feGaussianBlur
       inkscape:collect="always"
       stdDeviation="1.0394514"
       id="feGaussianBlur3243" /></filter><filter
     inkscape:collect="always"
     id="filter3772"><feGaussianBlur
       inkscape:collect="always"
       stdDeviation="0.50063244"
       id="feGaussianBlur3774" /></filter><filter
     id="filter3722"
     height="1.5982659"
     y="-0.29913295"
     width="1.9039301"
     x="-0.45196507"
     inkscape:collect="always"><feGaussianBlur
       id="feGaussianBlur3724"
       stdDeviation="1.3476562"
       inkscape:collect="always" /></filter><filter
     id="filter3681"
     height="1.1579429"
     y="-0.078971461"
     width="1.2447821"
     x="-0.12239107"
     inkscape:collect="always"><feGaussianBlur
       id="feGaussianBlur3683"
       stdDeviation="0.321914"
       inkscape:collect="always" /></filter><filter
     id="filter3533"
     inkscape:collect="always"><feGaussianBlur
       id="feGaussianBlur3535"
       stdDeviation="1.0600355"
       inkscape:collect="always" /></filter><filter
     id="filter3396"
     inkscape:collect="always"><feGaussianBlur
       id="feGaussianBlur3398"
       stdDeviation="0.495"
       inkscape:collect="always" /></filter><linearGradient
     id="linearGradient3294"
     inkscape:collect="always"><stop
       id="stop3296"
       offset="0"
       style="stop-color:#37a42c;stop-opacity:1;" /><stop
       id="stop3298"
       offset="1"
       style="stop-color:#bff500;stop-opacity:1" /></linearGradient><linearGradient
     id="linearGradient3348"
     inkscape:collect="always"><stop
       id="stop3350"
       offset="0"
       style="stop-color:#cbff10;stop-opacity:1" /><stop
       id="stop3352"
       offset="1"
       style="stop-color:#004d00;stop-opacity:1" /></linearGradient><linearGradient
     id="linearGradient3361"
     inkscape:collect="always"><stop
       id="stop3363"
       offset="0"
       style="stop-color:#edffbf;stop-opacity:1;" /><stop
       id="stop3365"
       offset="1"
       style="stop-color:#edffbf;stop-opacity:0;" /></linearGradient><linearGradient
     id="linearGradient3400"
     inkscape:collect="always"><stop
       id="stop3402"
       offset="0"
       style="stop-color:#e5ff00;stop-opacity:1;" /><stop
       id="stop3404"
       offset="1"
       style="stop-color:#e5ff00;stop-opacity:0;" /></linearGradient><linearGradient
     inkscape:collect="always"
     id="linearGradient3503"><stop
       style="stop-color:#005f1e;stop-opacity:1"
       offset="0"
       id="stop3505" /><stop
       style="stop-color:#43943c;stop-opacity:1"
       offset="1"
       id="stop3507" /></linearGradient><linearGradient
     id="linearGradient3669"
     inkscape:collect="always"><stop
       id="stop3671"
       offset="0"
       style="stop-color:#ffffff;stop-opacity:1;" /><stop
       id="stop3673"
       offset="1"
       style="stop-color:#ffffff;stop-opacity:0;" /></linearGradient><linearGradient
     inkscape:collect="always"
     id="linearGradient3689"><stop
       style="stop-color:#f0ff80;stop-opacity:1"
       offset="0"
       id="stop3691" /><stop
       style="stop-color:#f0ff80;stop-opacity:0"
       offset="1"
       id="stop3693" /></linearGradient><linearGradient
     id="linearGradient3710"
     inkscape:collect="always"><stop
       id="stop3712"
       offset="0"
       style="stop-color:#ffffff;stop-opacity:1;" /><stop
       id="stop3714"
       offset="1"
       style="stop-color:#ffffff;stop-opacity:0;" /></linearGradient><radialGradient
     inkscape:collect="always"
     xlink:href="#linearGradient3669"
     id="radialGradient2877"
     gradientUnits="userSpaceOnUse"
     gradientTransform="matrix(0.9650814,0.2619502,-0.9201984,3.3902106,33.309062,-57.693239)"
     cx="71.775223"
     cy="16.0865"
     fx="71.775223"
     fy="16.0865"
     r="3.15625" /><radialGradient
     inkscape:collect="always"
     xlink:href="#linearGradient3689"
     id="radialGradient2881"
     gradientUnits="userSpaceOnUse"
     gradientTransform="matrix(0.9650814,0.2619502,-0.9201984,3.3902106,17.309062,-57.693239)"
     cx="71.775223"
     cy="16.0865"
     fx="71.775223"
     fy="16.0865"
     r="3.15625" /><linearGradient
     inkscape:collect="always"
     xlink:href="#linearGradient3710"
     id="linearGradient2895"
     gradientUnits="userSpaceOnUse"
     gradientTransform="matrix(1.0533333,0,0,0.9219945,11.76,4.9924269)"
     x1="73.739265"
     y1="69.923088"
     x2="35.568035"
     y2="48.212151" /><linearGradient
     inkscape:collect="always"
     xlink:href="#linearGradient3710"
     id="linearGradient2897"
     gradientUnits="userSpaceOnUse"
     gradientTransform="matrix(1.0533333,0,0,0.9219945,11.76,4.9924269)"
     x1="63.159035"
     y1="21.171064"
     x2="63.159035"
     y2="80.12056" /><radialGradient
     inkscape:collect="always"
     xlink:href="#linearGradient3669"
     id="radialGradient4295"
     gradientUnits="userSpaceOnUse"
     gradientTransform="matrix(0.9650814,0.2619502,-0.9201984,3.3902106,33.309062,-57.693239)"
     cx="71.775223"
     cy="16.0865"
     fx="71.775223"
     fy="16.0865"
     r="3.15625" /><radialGradient
     inkscape:collect="always"
     xlink:href="#linearGradient3689"
     id="radialGradient4297"
     gradientUnits="userSpaceOnUse"
     gradientTransform="matrix(0.9650814,0.2619502,-0.9201984,3.3902106,17.309062,-57.693239)"
     cx="71.775223"
     cy="16.0865"
     fx="71.775223"
     fy="16.0865"
     r="3.15625" /><radialGradient
     inkscape:collect="always"
     xlink:href="#linearGradient3710"
     id="radialGradient4301"
     gradientUnits="userSpaceOnUse"
     gradientTransform="matrix(6.5079869,0,0,1.510917,-63.772161,-32.970115)"
     cx="11.578125"
     cy="64.53125"
     fx="11.578125"
     fy="64.53125"
     r="3.578125" /><linearGradient
     inkscape:collect="always"
     xlink:href="#linearGradient3710"
     id="linearGradient4319"
     gradientUnits="userSpaceOnUse"
     gradientTransform="matrix(0.5266666,0,0,0.4609973,25.86667,22.503737)"
     x1="63.159035"
     y1="21.171064"
     x2="63.159035"
     y2="80.12056" /><linearGradient
     inkscape:collect="always"
     xlink:href="#linearGradient3710"
     id="linearGradient4322"
     gradientUnits="userSpaceOnUse"
     gradientTransform="matrix(0.5266666,0,0,0.4609973,25.86667,22.503737)"
     x1="73.739265"
     y1="69.923088"
     x2="35.568035"
     y2="48.212151" /><linearGradient
     inkscape:collect="always"
     xlink:href="#linearGradient3361"
     id="linearGradient4325"
     gradientUnits="userSpaceOnUse"
     gradientTransform="matrix(0.5266666,0,0,0.4609973,25.86667,22.503737)"
     x1="63.159035"
     y1="21.171064"
     x2="63.159035"
     y2="80.12056" /><linearGradient
     inkscape:collect="always"
     xlink:href="#linearGradient3400"
     id="linearGradient4328"
     gradientUnits="userSpaceOnUse"
     gradientTransform="matrix(-0.5266666,0,0,0.4609973,110.13333,22.503737)"
     x1="91.785248"
     y1="112.5"
     x2="91.992706"
     y2="44.287056" /><radialGradient
     inkscape:collect="always"
     xlink:href="#linearGradient3348"
     id="radialGradient4331"
     gradientUnits="userSpaceOnUse"
     gradientTransform="matrix(0.7599745,3.675962e-8,-4.0316217e-8,0.6386057,9.87431,8.0092037)"
     cx="72.222832"
     cy="81.225037"
     fx="75.65107"
     fy="93.974243"
     r="50" /><linearGradient
     inkscape:collect="always"
     xlink:href="#linearGradient3294"
     id="linearGradient4335"
     gradientUnits="userSpaceOnUse"
     gradientTransform="matrix(0.5266666,0,0,0.4609973,23.76001,22.503737)"
     x1="43.799026"
     y1="32.051865"
     x2="58.606159"
     y2="96.363052" /><linearGradient
     inkscape:collect="always"
     xlink:href="#linearGradient3503"
     id="linearGradient4340"
     gradientUnits="userSpaceOnUse"
     gradientTransform="matrix(0.5886274,0,0,0.5386093,20.90981,17.536688)"
     x1="71.626404"
     y1="123.73875"
     x2="46.225941"
     y2="28.942928" /><radialGradient
     inkscape:collect="always"
     xlink:href="#linearGradient3348"
     id="radialGradient4467"
     cx="122.17677"
     cy="53.333336"
     fx="122.17677"
     fy="53.333336"
     r="2"
     gradientTransform="matrix(10.715398,2.871182,-2.6956613,10.060345,-1183.2272,-819.3435)"
     gradientUnits="userSpaceOnUse" /><linearGradient
     inkscape:collect="always"
     xlink:href="#linearGradient3689"
     id="linearGradient4480"
     x1="122.12132"
     y1="24"
     x2="122.12132"
     y2="60.048988"
     gradientUnits="userSpaceOnUse"
     gradientTransform="matrix(-1,0,0,1,140,0)" /><linearGradient
     inkscape:collect="always"
     xlink:href="#linearGradient3669"
     id="linearGradient4491"
     gradientUnits="userSpaceOnUse"
     gradientTransform="matrix(-1,0,0,1,140,0)"
     x1="132"
     y1="52"
     x2="116"
     y2="28" /><linearGradient
     inkscape:collect="always"
     xlink:href="#linearGradient3400"
     id="linearGradient4501"
     x1="121.85139"
     y1="64"
     x2="120"
     y2="44"
     gradientUnits="userSpaceOnUse" /><filter
     inkscape:collect="always"
     id="filter4535"
     x="-0.16561315"
     width="1.3312263"
     y="-0.014431021"
     height="1.028862"><feGaussianBlur
       inkscape:collect="always"
       stdDeviation="0.28982301"
       id="feGaussianBlur4537" /></filter><filter
     inkscape:collect="always"
     id="filter4549"><feGaussianBlur
       inkscape:collect="always"
       stdDeviation="0.1159292"
       id="feGaussianBlur4551" /></filter><linearGradient
     inkscape:collect="always"
     xlink:href="#linearGradient4568"
     id="linearGradient4574"
     x1="116"
     y1="29.274029"
     x2="124"
     y2="74.399025"
     gradientUnits="userSpaceOnUse" /><radialGradient
     inkscape:collect="always"
     xlink:href="#linearGradient4578"
     id="radialGradient4584"
     cx="114"
     cy="26"
     fx="114"
     fy="26"
     r="2.5"
     gradientUnits="userSpaceOnUse"
     gradientTransform="matrix(0.7071068,-0.7071068,2.6709373,2.6709373,-36.054544,37.165802)" /><filter
     inkscape:collect="always"
     id="filter4666"
     x="-0.24955752"
     width="1.499115"
     y="-0.24955752"
     height="1.499115"><feGaussianBlur
       inkscape:collect="always"
       stdDeviation="0.4159292"
       id="feGaussianBlur4668" /></filter><radialGradient
     inkscape:collect="always"
     xlink:href="#linearGradient4578"
     id="radialGradient4672"
     gradientUnits="userSpaceOnUse"
     gradientTransform="matrix(0.7071068,-0.7071068,2.6709373,2.6709373,-136.05454,37.165802)"
     cx="114"
     cy="26"
     fx="114"
     fy="26"
     r="2.5" /><radialGradient
     inkscape:collect="always"
     xlink:href="#linearGradient3400"
     id="radialGradient4678"
     gradientUnits="userSpaceOnUse"
     gradientTransform="matrix(0.7071068,-0.7071068,2.6709373,2.6709373,-36.054544,37.165802)"
     cx="114"
     cy="26"
     fx="114"
     fy="26"
     r="2.5" /><radialGradient
     inkscape:collect="always"
     xlink:href="#linearGradient3400"
     id="radialGradient4680"
     gradientUnits="userSpaceOnUse"
     gradientTransform="matrix(0.7071068,-0.7071068,2.6709373,2.6709373,-36.054544,37.165802)"
     cx="114"
     cy="26"
     fx="114"
     fy="26"
     r="2.5" /><filter
     inkscape:collect="always"
     id="filter4107"><feGaussianBlur
       inkscape:collect="always"
       stdDeviation="0.40750996"
       id="feGaussianBlur4109" /></filter><filter
     inkscape:collect="always"
     id="filter4171"><feGaussianBlur
       inkscape:collect="always"
       stdDeviation="0.4901192"
       id="feGaussianBlur4173" /></filter><filter
     inkscape:collect="always"
     id="filter4209"><feGaussianBlur
       inkscape:collect="always"
       stdDeviation="0.90565481"
       id="feGaussianBlur4211" /></filter><radialGradient
     inkscape:collect="always"
     xlink:href="#XMLID_7_"
     id="radialGradient6372"
     gradientUnits="userSpaceOnUse"
     gradientTransform="matrix(0.7538414,0,0,0.7538414,7.5189891,18.558777)"
     cx="111.79375"
     cy="107.89297"
     fx="111.79375"
     fy="107.89297"
     r="139.5585" /><radialGradient
     inkscape:collect="always"
     xlink:href="#XMLID_8_"
     id="radialGradient6374"
     gradientUnits="userSpaceOnUse"
     gradientTransform="matrix(0.9787234,0,0,0.9818182,-18.638296,-6.8363636)"
     cx="112.83274"
     cy="112.77987"
     fx="112.83274"
     fy="112.77987"
     r="139.55859" /><linearGradient
     inkscape:collect="always"
     xlink:href="#XMLID_9_"
     id="linearGradient6376"
     gradientUnits="userSpaceOnUse"
     x1="94.3438"
     y1="102.3447"
     x2="86.5356"
     y2="94.5366" /><linearGradient
     inkscape:collect="always"
     xlink:href="#XMLID_11_"
     id="linearGradient6378"
     gradientUnits="userSpaceOnUse"
     x1="95"
     y1="103"
     x2="87.293"
     y2="95.293" /><linearGradient
     inkscape:collect="always"
     xlink:href="#XMLID_12_"
     id="linearGradient6380"
     gradientUnits="userSpaceOnUse"
     x1="96"
     y1="104"
     x2="88.0002"
     y2="96.0002" /><radialGradient
     inkscape:collect="always"
     xlink:href="#XMLID_7_"
     id="radialGradient6382"
     gradientUnits="userSpaceOnUse"
     gradientTransform="matrix(0.7538414,0,0,0.7538414,7.5189891,18.558777)"
     cx="111.79375"
     cy="107.89297"
     fx="111.79375"
     fy="107.89297"
     r="139.5585" /><radialGradient
     inkscape:collect="always"
     xlink:href="#XMLID_8_"
     id="radialGradient6384"
     gradientUnits="userSpaceOnUse"
     gradientTransform="matrix(0.9787234,0,0,0.9818182,-18.638296,-6.8363636)"
     cx="112.83274"
     cy="116.85395"
     fx="112.83274"
     fy="116.85395"
     r="139.55859" /><linearGradient
     inkscape:collect="always"
     xlink:href="#XMLID_9_"
     id="linearGradient6386"
     gradientUnits="userSpaceOnUse"
     x1="94.3438"
     y1="102.3447"
     x2="86.5356"
     y2="94.5366" /><linearGradient
     inkscape:collect="always"
     xlink:href="#XMLID_11_"
     id="linearGradient6388"
     gradientUnits="userSpaceOnUse"
     x1="95"
     y1="103"
     x2="87.293"
     y2="95.293" /><linearGradient
     inkscape:collect="always"
     xlink:href="#XMLID_12_"
     id="linearGradient6390"
     gradientUnits="userSpaceOnUse"
     x1="96"
     y1="104"
     x2="88.0002"
     y2="96.0002" /><linearGradient
     inkscape:collect="always"
     xlink:href="#linearGradient3400"
     id="linearGradient3378"
     gradientUnits="userSpaceOnUse"
     x1="121.85139"
     y1="64"
     x2="120"
     y2="44" /></defs><sodipodi:namedview
   inkscape:window-height="687"
   inkscape:window-width="1022"
   inkscape:pageshadow="2"
   inkscape:pageopacity="0.0"
   guidetolerance="10.0"
   gridtolerance="10.0"
   objecttolerance="10.0"
   borderopacity="1.0"
   bordercolor="#666666"
   pagecolor="#ffffff"
   id="base"
   inkscape:zoom="2"
   inkscape:cx="140.56792"
   inkscape:cy="27.81653"
   inkscape:window-x="160"
   inkscape:window-y="267"
   inkscape:current-layer="Layer_1"
   showgrid="true"
   showguides="true"
   inkscape:guide-bbox="true"><inkscape:grid
     id="GridFromPre046Settings"
     type="xygrid"
     originx="0px"
     originy="0px"
     spacingx="4px"
     spacingy="4px"
     color="#0000ff"
     empcolor="#0000ff"
     opacity="0.2"
     empopacity="0.4"
     empspacing="2"
     enabled="true"
     visible="true" /></sodipodi:namedview>
<metadata
   id="metadata3">
	<ns:sfw>
		<ns:slices>
			<ns:slice
   y="0"
   x="0"
   height="128"
   width="128"
   sliceID="1316743234" />
		</ns:slices>
		<ns:sliceSourceBounds
   y="0"
   x="0"
   height="128"
   width="128"
   bottomLeftOrigin="true" />
		<ns:optimizationSettings>
			<ns:targetSettings
   targetSettingsID="0"
   fileFormat="PNG24Format">
				<ns:PNG24Format
   transparency="true"
   filtered="false"
   matteColor="#FFFFFF"
   noMatteColor="false"
   interlaced="false">
					</ns:PNG24Format>
			</ns:targetSettings>
			<ns:targetSettings
   targetSettingsID="1696735251"
   fileFormat="PNG24Format">
				<ns:PNG24Format
   transparency="true"
   filtered="false"
   matteColor="#FFFFFF"
   noMatteColor="false"
   interlaced="false">
					</ns:PNG24Format>
			</ns:targetSettings>
		</ns:optimizationSettings>
	</ns:sfw>
<rdf:RDF><cc:Work
     rdf:about=""><dc:format>image/svg+xml</dc:format><dc:type
       rdf:resource="http://purl.org/dc/dcmitype/StillImage" /></cc:Work></rdf:RDF></metadata>

<radialGradient
   id="XMLID_7_"
   cx="102"
   cy="112.3047"
   r="139.5585"
   gradientUnits="userSpaceOnUse">
	<stop
   offset="0"
   style="stop-color:#00537D"
   id="stop16" />
	<stop
   offset="0.0151"
   style="stop-color:#186389"
   id="stop18" />
	<stop
   offset="0.0558"
   style="stop-color:#558CA8"
   id="stop20" />
	<stop
   offset="0.0964"
   style="stop-color:#89AFC3"
   id="stop22" />
	<stop
   offset="0.1357"
   style="stop-color:#B3CCD8"
   id="stop24" />
	<stop
   offset="0.1737"
   style="stop-color:#D4E2E9"
   id="stop26" />
	<stop
   offset="0.2099"
   style="stop-color:#ECF2F5"
   id="stop28" />
	<stop
   offset="0.2435"
   style="stop-color:#FAFCFD"
   id="stop30" />
	<stop
   offset="0.2722"
   style="stop-color:#FFFFFF"
   id="stop32" />
</radialGradient>

<radialGradient
   id="XMLID_8_"
   cx="102"
   cy="112.3047"
   r="139.55859"
   gradientUnits="userSpaceOnUse">
	<stop
   offset="0"
   style="stop-color:#535557"
   id="stop37" />
	
	<stop
   offset="0.11366145"
   style="stop-color:#898A8C"
   id="stop41" />
	
	
	<stop
   offset="0.20296688"
   style="stop-color:#ECECEC"
   id="stop47" />
	<stop
   offset="0.2363"
   style="stop-color:#FAFAFA"
   id="stop49" />
	<stop
   offset="0.2722"
   style="stop-color:#FFFFFF"
   id="stop51" />
	<stop
   offset="0.5313"
   style="stop-color:#FAFAFA"
   id="stop53" />
	<stop
   offset="0.8449"
   style="stop-color:#EBECEC"
   id="stop55" />
	<stop
   offset="1"
   style="stop-color:#E1E2E3"
   id="stop57" />
</radialGradient>

<linearGradient
   id="XMLID_9_"
   gradientUnits="userSpaceOnUse"
   x1="94.3438"
   y1="102.3447"
   x2="86.5356"
   y2="94.5366">
	<stop
   offset="0"
   style="stop-color:#FFFFFF"
   id="stop62" />
	<stop
   offset="1"
   style="stop-color:#555753"
   id="stop64" />
</linearGradient>

<linearGradient
   id="XMLID_10_"
   gradientUnits="userSpaceOnUse"
   x1="95"
   y1="103"
   x2="86.5865"
   y2="94.5865">
	<stop
   offset="0"
   style="stop-color:#FFFFFF"
   id="stop69" />
	<stop
   offset="1"
   style="stop-color:#555753"
   id="stop71" />
</linearGradient>

<linearGradient
   id="XMLID_11_"
   gradientUnits="userSpaceOnUse"
   x1="95"
   y1="103"
   x2="87.293"
   y2="95.293">
	<stop
   offset="0"
   style="stop-color:#FFFFFF"
   id="stop76" />
	<stop
   offset="1"
   style="stop-color:#393B38"
   id="stop78" />
</linearGradient>

<linearGradient
   id="XMLID_12_"
   gradientUnits="userSpaceOnUse"
   x1="96"
   y1="104"
   x2="88.0002"
   y2="96.0002">
	<stop
   offset="0"
   style="stop-color:#888A85"
   id="stop83" />
	<stop
   offset="0.0072"
   style="stop-color:#8C8E89"
   id="stop85" />
	<stop
   offset="0.0673"
   style="stop-color:#ABACA9"
   id="stop87" />
	<stop
   offset="0.1347"
   style="stop-color:#C5C6C4"
   id="stop89" />
	<stop
   offset="0.2115"
   style="stop-color:#DBDBDA"
   id="stop91" />
	<stop
   offset="0.3012"
   style="stop-color:#EBEBEB"
   id="stop93" />
	<stop
   offset="0.4122"
   style="stop-color:#F7F7F6"
   id="stop95" />
	<stop
   offset="0.5679"
   style="stop-color:#FDFDFD"
   id="stop97" />
	<stop
   offset="1"
   style="stop-color:#FFFFFF"
   id="stop99" />
</linearGradient>
<g
   id="g3777"
   transform="translate(134.90149,-66.906491)"><g
     transform="translate(-154.90149,58.906487)"
     id="g3741"
     style="overflow:visible"><path
       sodipodi:nodetypes="cccccccc"
       transform="matrix(1.0416667,0,0,1.0357143,-9.9583333,-3.3215342)"
       style="opacity:0.30684934;fill:#000000;fill-opacity:1;filter:url(#filter3241)"
       d="M 30.68,12.862069 L 30.720816,121 L 84.172,121 C 84.702,121 85.211,120.789 85.586,120.414 L 118.414,87.586 C 118.789,87.211 119,86.702 119,86.172 L 119,12.862069 L 30.68,12.862069 z"
       id="path4081" /><path
       sodipodi:nodetypes="cccccccc"
       transform="matrix(1.0416667,0,0,1.0357143,-9.9583333,-3.3215342)"
       style="opacity:0.89589042;fill:#000000;fill-opacity:1;filter:url(#filter3772)"
       d="M 32.599999,14.793205 L 32.599999,119.06907 L 83.596,119.06897 C 84.126,119.06897 84.635,118.85797 85.01,118.48297 L 116.494,86.717034 C 116.869,86.342034 117.08,85.833034 117.08,85.303034 L 117.08,14.793205 L 32.599999,14.793205 z"
       id="path3744" /><path
       id="path3746"
       d="M 30.68,13.827586 L 30.720816,121 L 84.172,121 C 84.702,121 85.211,120.789 85.586,120.414 L 118.414,87.586 C 118.789,87.211 119,86.702 119,86.172 L 119,13.827586 L 30.68,13.827586 z"
       style="opacity:0.30684934;fill:#000000;fill-opacity:1;filter:url(#filter3241)"
       transform="matrix(1.0416667,0,0,1.0357143,-9.9583333,-3.3215342)"
       sodipodi:nodetypes="cccccccc" /><path
       style="fill:url(#radialGradient6372)"
       d="M 24.000002,12 L 24.000002,120 L 77.172002,120 C 77.702002,120 78.211002,119.789 78.586002,119.414 L 111.414,86.586 C 111.789,86.211 112,85.702 112,85.172 L 112,12 L 24.000002,12 z"
       id="path3748"
       sodipodi:nodetypes="cccccccc" /><path
       style="fill:url(#radialGradient6374);fill-opacity:1"
       d="M 28.678725,15.7 C 28.139449,15.7 27.700002,16.140836 27.700002,16.681818 L 27.000002,117.01818 C 27.000002,117.56015 27.439449,118 27.978725,118 L 76.891747,118 C 77.149151,118 77.401662,117.89593 77.583704,117.71233 L 107.71323,85.4812 C 107.89626,85.2976 108,85.045273 108,84.787055 L 108,16.981818 C 108,16.440836 107.56153,16 107.02128,16 L 28.678725,15.7 z"
       id="path3750"
       sodipodi:nodetypes="ccccccccccc" /><g
       id="g3753"
       transform="translate(2.4e-6,0)"><path
         style="opacity:0.1;fill:url(#linearGradient6376);filter:url(#filter4107)"
         id="path3755"
         d="M 111.414,86.586 C 111.664,86.336 85.035,85 80,85 C 78.346,85 77,86.346 77,88 C 77,93.035 78.336,119.664 78.586,119.414 L 111.414,86.586 z"
         sodipodi:nodetypes="csscc" /><path
         style="opacity:0.2;fill:#000000;fill-opacity:1;filter:url(#filter4209)"
         id="path3757"
         d="M 111.414,86.586 C 111.789,86.211 89.444,86 80,86 C 78.897,86 78,86.897 78,88 C 78,97.444 78.211,119.789 78.586,119.414 L 111.414,86.586 z"
         sodipodi:nodetypes="csscc" /><path
         style="opacity:0.1;fill:url(#linearGradient6378);filter:url(#filter4171)"
         id="path3759"
         d="M 111.414,86.586 C 111.653,86.347 89.807,87 80,87 C 79.447,87 79,87.447 79,88 C 79,97.807 78.347,119.653 78.586,119.414 L 111.414,86.586 z"
         sodipodi:nodetypes="csscc" /><path
         style="fill:url(#linearGradient6380)"
         id="path3761"
         d="M 78.586,119.414 C 78.586,119.414 90.5,109.5 96,104 C 101.5,98.5 111.414,86.586 111.414,86.586 C 111.414,86.586 90.25,88 80,88 C 80,98.25 78.586,119.414 78.586,119.414 z"
         sodipodi:nodetypes="csccc" /></g><path
       style="fill:none;fill-rule:evenodd;stroke:#000000;stroke-width:1px;stroke-linecap:butt;stroke-linejoin:miter;stroke-opacity:1"
       d="M 100,32 L 100,32 z"
       id="path3763" /></g></g><g
   transform="translate(166.90149,-54.906491)"
   id="g3801"><g
     style="overflow:visible"
     id="g3803"
     transform="translate(-154.90149,58.906487)"><path
       id="path3805"
       d="M 30.68,12.862069 L 30.720816,121 L 84.172,121 C 84.702,121 85.211,120.789 85.586,120.414 L 118.414,87.586 C 118.789,87.211 119,86.702 119,86.172 L 119,12.862069 L 30.68,12.862069 z"
       style="opacity:0.30684934;fill:#000000;fill-opacity:1;filter:url(#filter3241)"
       transform="matrix(1.0416667,0,0,1.0357143,-9.9583333,-3.3215342)"
       sodipodi:nodetypes="cccccccc" /><path
       id="path3807"
       d="M 32.599999,14.793205 L 32.599999,119.06907 L 83.596,119.06897 C 84.126,119.06897 84.635,118.85797 85.01,118.48297 L 116.494,86.717034 C 116.869,86.342034 117.08,85.833034 117.08,85.303034 L 117.08,14.793205 L 32.599999,14.793205 z"
       style="opacity:0.89589042;fill:#000000;fill-opacity:1;filter:url(#filter3772)"
       transform="matrix(1.0416667,0,0,1.0357143,-9.9583333,-3.3215342)"
       sodipodi:nodetypes="cccccccc" /><path
       sodipodi:nodetypes="cccccccc"
       transform="matrix(1.0416667,0,0,1.0357143,-9.9583333,-3.3215342)"
       style="opacity:0.30684934;fill:#000000;fill-opacity:1;filter:url(#filter3241)"
       d="M 30.68,13.827586 L 30.720816,121 L 84.172,121 C 84.702,121 85.211,120.789 85.586,120.414 L 118.414,87.586 C 118.789,87.211 119,86.702 119,86.172 L 119,13.827586 L 30.68,13.827586 z"
       id="path3809" /><path
       sodipodi:nodetypes="cccccccc"
       id="path3811"
       d="M 24.000002,12 L 24.000002,120 L 77.172002,120 C 77.702002,120 78.211002,119.789 78.586002,119.414 L 111.414,86.586 C 111.789,86.211 112,85.702 112,85.172 L 112,12 L 24.000002,12 z"
       style="fill:url(#radialGradient6382)" /><path
       sodipodi:nodetypes="ccccccccccc"
       id="path3813"
       d="M 28.678725,15.7 C 28.139449,15.7 27.700002,16.140836 27.700002,16.681818 L 27.000002,117.01818 C 27.000002,117.56015 27.439449,118 27.978725,118 L 76.891747,118 C 77.149151,118 77.401662,117.89593 77.583704,117.71233 L 107.71323,85.4812 C 107.89626,85.2976 108,85.045273 108,84.787055 L 108,16.981818 C 108,16.440836 107.56153,16 107.02128,16 L 28.678725,15.7 z"
       style="fill:url(#radialGradient6384);fill-opacity:1" /><g
       transform="translate(2.4e-6,0)"
       id="g3815"><path
         sodipodi:nodetypes="csscc"
         d="M 111.414,86.586 C 111.664,86.336 85.035,85 80,85 C 78.346,85 77,86.346 77,88 C 77,93.035 78.336,119.664 78.586,119.414 L 111.414,86.586 z"
         id="path3817"
         style="opacity:0.1;fill:url(#linearGradient6386);filter:url(#filter4107)" /><path
         sodipodi:nodetypes="csscc"
         d="M 111.414,86.586 C 111.789,86.211 89.444,86 80,86 C 78.897,86 78,86.897 78,88 C 78,97.444 78.211,119.789 78.586,119.414 L 111.414,86.586 z"
         id="path3819"
         style="opacity:0.2;fill:#000000;fill-opacity:1;filter:url(#filter4209)" /><path
         sodipodi:nodetypes="csscc"
         d="M 111.414,86.586 C 111.653,86.347 89.807,87 80,87 C 79.447,87 79,87.447 79,88 C 79,97.807 78.347,119.653 78.586,119.414 L 111.414,86.586 z"
         id="path3821"
         style="opacity:0.1;fill:url(#linearGradient6388);filter:url(#filter4171)" /><path
         sodipodi:nodetypes="csccc"
         d="M 78.586,119.414 C 78.586,119.414 90.5,109.5 96,104 C 101.5,98.5 111.414,86.586 111.414,86.586 C 111.414,86.586 90.25,88 80,88 C 80,98.25 78.586,119.414 78.586,119.414 z"
         id="path3823"
         style="fill:url(#linearGradient6390)" /></g><path
       id="path3825"
       d="M 100,32 L 100,32 z"
       style="fill:none;fill-rule:evenodd;stroke:#000000;stroke-width:1px;stroke-linecap:butt;stroke-linejoin:miter;stroke-opacity:1" /></g></g><path
   id="path2602"
   d="M 36,32 L 36,32 z"
   style="fill:none;fill-rule:evenodd;stroke:#000000;stroke-width:1px;stroke-linecap:butt;stroke-linejoin:miter;stroke-opacity:1" />

<path
   style="fill:none;fill-rule:evenodd;stroke:#000000;stroke-width:1px;stroke-linecap:butt;stroke-linejoin:miter;stroke-opacity:1"
   d="M 60,20 L 60,20 z"
   id="path3341" /><path
   style="opacity:0.90526321;fill:none;fill-opacity:1;fill-rule:evenodd;stroke:#638000;stroke-width:0.9659996;stroke-linecap:butt;stroke-linejoin:round;stroke-miterlimit:4;stroke-dasharray:none;stroke-opacity:1;filter:url(#filter3533)"
   d="M 87.875,12 C 87.009497,12.026935 86.176101,12.333976 85.5,12.875 L 25.5,60.875 C 24.550144,61.634129 24,62.784063 24,64 C 24,65.215937 24.550144,66.365871 25.5,67.125 L 85.5,115.125 C 86.700963,116.08613 88.332437,116.26025 89.71875,115.59375 C 91.105067,114.92725 92.000642,113.53821 92,112 L 92,88.3125 L 92,78.0625 L 90.5,76.875 C 89.299037,75.91387 87.667563,75.739753 86.28125,76.40625 C 84.894933,77.072748 83.999358,78.461793 84,80 L 84,103.6875 L 34.40625,64 L 84,24.3125 L 84,48 C 83.999358,49.538207 84.894936,50.927253 86.28125,51.59375 C 87.66756,52.260246 89.299037,52.08613 90.5,51.125 L 92,49.9375 L 92,39.6875 L 92,16 C 92.000417,14.917152 91.558627,13.878821 90.78125,13.125 C 90.003873,12.37118 88.957323,11.966273 87.875,12 z"
   id="path3519"
   transform="matrix(0.5266666,0,0,0.5086866,17.44,19.451617)" /><path
   style="fill:url(#linearGradient4340);fill-opacity:1;fill-rule:evenodd;stroke:none;stroke-width:8;stroke-linecap:butt;stroke-linejoin:round;stroke-miterlimit:4;stroke-dasharray:none;stroke-opacity:1"
   d="M 89.5625,24 C 90.19959,23.981834 90.82366,24.187735 91.28125,24.59375 C 91.73884,24.999765 92.00025,25.573018 92,26.15625 L 92,38.90625 L 92,41.78125 L 92,44.4375 L 92,59.59375 L 92,62.71875 L 92,65.09375 L 92,77.875 C 92.00038,78.70349 91.47228,79.422266 90.65625,79.78125 C 89.84023,80.14023 88.89442,80.048923 88.1875,79.53125 L 68,64.78125 L 68,65.09375 L 68,77.875 C 68.00038,78.70349 67.472272,79.422266 66.65625,79.78125 C 65.840225,80.14023 64.894422,80.048923 64.1875,79.53125 L 28.84375,53.6875 C 28.28463,53.278626 27.96875,52.654915 27.96875,52 C 27.96875,51.345084 28.28463,50.721375 28.84375,50.3125 L 64.1875,24.46875 C 64.585468,24.177349 65.053039,24.014508 65.5625,24 C 66.199582,23.981834 66.823667,24.187735 67.28125,24.59375 C 67.738832,24.999765 68.00025,25.573018 68,26.15625 L 68,38.90625 L 68,39.21875 L 88.1875,24.46875 C 88.58547,24.177349 89.05304,24.014508 89.5625,24 z M 20.75,24 C 22.5505,24 24,25.4495 24,27.25 L 24,76.75 C 24,78.5505 22.5505,80 20.75,80 L 15.25,80 C 13.4495,80 12,78.5505 12,76.75 L 12,27.25 C 12,25.4495 13.4495,24 15.25,24 L 20.75,24 z M 87.28125,30.625 L 68,44.75 L 68,59.25 L 87.28125,73.375 L 87.28125,63.25 L 78.46875,63.25 C 78.14265,63.25 77.875,63.01714 77.875,62.71875 L 77.875,41.78125 C 77.875,41.482861 78.14265,41.249999 78.46875,41.25 L 87.28125,41.25 L 87.28125,30.625 z M 63.28125,30.625 L 34.09375,52 L 63.28125,73.375 L 63.28125,63.25 L 54.46875,63.25 C 54.142648,63.25 53.875001,63.01714 53.875,62.71875 L 53.875,54.4375 L 52.84375,53.6875 C 52.284635,53.278626 51.968748,52.654915 51.96875,52 C 51.968747,51.345084 52.284636,50.721375 52.84375,50.3125 L 53.875,49.5625 L 53.875,41.78125 C 53.874997,41.482861 54.142649,41.249999 54.46875,41.25 L 63.28125,41.25 L 63.28125,30.625 z"
   id="path3302" /><path
   style="opacity:0.85;fill:url(#radialGradient4295);fill-opacity:1;fill-rule:evenodd;stroke:none;stroke-width:8;stroke-linecap:butt;stroke-linejoin:round;stroke-miterlimit:4;stroke-dasharray:none;stroke-opacity:1;filter:url(#filter3681)"
   d="M 87.875,12 C 87.075959,12.024867 86.302054,12.283948 85.65625,12.75 L 84.79747,22.272712 L 91.96875,15.625 C 91.880958,14.678789 91.469257,13.792159 90.78125,13.125 C 90.003873,12.37118 88.957323,11.966273 87.875,12 z"
   id="path3651"
   transform="matrix(0.5266666,0,0,0.5086866,19.34,18.451617)"
   sodipodi:nodetypes="ccccsc" /><path
   id="path3685"
   d="M 71.875,12 C 71.075959,12.024867 70.302054,12.283948 69.65625,12.75 L 68.607596,23.009904 L 75.96875,15.625 C 75.880958,14.678789 75.469257,13.792159 74.78125,13.125 C 74.003873,12.37118 72.957323,11.966273 71.875,12 z"
   style="opacity:0.35;fill:url(#radialGradient4297);fill-opacity:1;fill-rule:evenodd;stroke:none;stroke-width:8;stroke-linecap:butt;stroke-linejoin:round;stroke-miterlimit:4;stroke-dasharray:none;stroke-opacity:1;filter:url(#filter3681)"
   transform="matrix(0.5266666,0,0,-0.5086866,27.86667,86.451238)"
   sodipodi:nodetypes="ccccsc" /><path
   style="fill:url(#linearGradient4335);fill-opacity:1;fill-rule:evenodd;stroke:none;stroke-width:1px;stroke-linecap:butt;stroke-linejoin:miter;stroke-opacity:1"
   d="M 87.78125,29.875 L 87.78125,74.125 L 63.781255,57.3125 L 63.781255,74.125 L 32.18751,52 L 63.781255,29.875 L 63.781255,46.6875 L 87.78125,29.875 z"
   id="path2323" /><path
   style="opacity:0.5;fill:url(#radialGradient4301);fill-opacity:1;fill-rule:evenodd;stroke:none;stroke-width:8;stroke-linecap:butt;stroke-linejoin:round;stroke-miterlimit:4;stroke-dasharray:none;stroke-opacity:1;filter:url(#filter3722)"
   d="M 11.6875,59.125 L 9.5,60.875 C 8.5501441,61.634129 8,62.784063 8,64 C 8.0000001,65.215937 8.5501441,66.365871 9.5,67.125 L 13.03125,69.9375 L 15.15625,64.3125 L 11.6875,59.125 z"
   id="path3705"
   transform="matrix(0.5266666,0,0,-0.5086866,25.86667,84.849638)" /><path
   style="fill:url(#radialGradient4331);fill-opacity:1;fill-rule:evenodd;stroke:none;stroke-width:1px;stroke-linecap:butt;stroke-linejoin:miter;stroke-opacity:1"
   d="M 87.78125,29.875 L 87.78125,44.625 L 87.78125,59.375 L 87.78125,74.125 L 63.781255,57.3125 L 63.781255,59.375 L 63.781255,74.125 L 33.18751,52 L 63.781255,29.875 L 63.781255,44.625 L 63.781255,46.6875 L 87.78125,29.875 z"
   id="path3320"
   sodipodi:nodetypes="cccccccccccc" /><path
   style="fill:none;fill-opacity:1;fill-rule:evenodd;stroke:url(#linearGradient4328);stroke-width:0.5px;stroke-linecap:butt;stroke-linejoin:miter;stroke-opacity:1;filter:url(#filter3396)"
   d="M 48.218745,29.875 L 48.218745,44.625 L 48.218745,59.375 L 48.218745,74.125 L 72.218745,57.3125 L 72.218745,59.375 L 72.218745,74.125 L 102.81249,52 L 72.218745,29.875 L 72.218745,44.625 L 72.218745,46.6875 L 48.218745,29.875 z"
   id="path3895"
   sodipodi:nodetypes="cccccccccccc"
   transform="matrix(-1,0,0,1,136,0)" /><path
   style="fill:url(#linearGradient4325);fill-opacity:1;fill-rule:evenodd;stroke:none;stroke-width:1px;stroke-linecap:butt;stroke-linejoin:miter;stroke-opacity:1"
   d="M 87.78125,29.875 L 87.78125,44.625 L 87.78125,49.96875 C 81.94636,51.645381 74.78808,52.624999 67.031255,52.625 C 63.27596,52.625 59.646931,52.398169 56.250005,51.96875 L 56.937505,51.5 C 52.660574,52.225743 47.976579,52.624999 43.031255,52.625 C 39.27596,52.625 35.64693,52.398169 32.25001,51.96875 L 63.781255,29.875 L 63.781255,44.625 L 63.781255,46.6875 L 87.78125,29.875 z"
   id="path3897" /><path
   style="fill:url(#linearGradient4322);fill-opacity:1;fill-rule:evenodd;stroke:none;stroke-width:1px;stroke-linecap:butt;stroke-linejoin:miter;stroke-opacity:1"
   d="M 63.781255,29.875 L 63.781255,44.625 L 63.781255,46.6875 L 63.343755,47 L 63.343755,44.4375 L 63.343755,30.1875 L 63.781255,29.875 z M 57.625005,51 L 56.937505,51.5 C 52.660574,52.225743 47.976579,52.624999 43.031255,52.625 C 39.27596,52.625 35.64693,52.398169 32.25001,51.96875 L 32.62501,51.71875 C 35.8655,52.112612 39.30926,52.312501 42.875005,52.3125 C 48.158695,52.3125 53.136664,51.830725 57.625005,51 z"
   id="path3910" /><path
   style="fill:url(#linearGradient4319);fill-opacity:1;fill-rule:evenodd;stroke:none;stroke-width:1px;stroke-linecap:butt;stroke-linejoin:miter;stroke-opacity:1"
   d="M 63.781255,29.875 L 63.781255,44.625 L 63.781255,46.6875 L 63.312505,47.03125 L 63.312505,44.875 L 63.312505,30.53125 L 32.71876,51.96875 C 34.36724,52.177141 36.06848,52.360054 37.81251,52.46875 C 35.90738,52.356859 34.04566,52.195747 32.25001,51.96875 L 63.781255,29.875 z"
   id="path3919" /><g
   transform="matrix(-0.5,0,0,0.5,107.97333,19.99895)"
   inkscape:label="Layer 1"
   id="g2845"><g
     id="g2847"
     transform="matrix(-1,0,0,1,127.97333,1.7146484e-2)"><path
       transform="matrix(1.0533333,0,0,1.0173732,-1.8933333,-2.7118124)"
       id="path2853"
       d="M 87.875,12 C 87.075959,12.024867 86.302054,12.283948 85.65625,12.75 L 85.367091,22.026981 L 91.96875,15.625 C 91.880958,14.678789 91.469257,13.792159 90.78125,13.125 C 90.003873,12.37118 88.957323,11.966273 87.875,12 z"
       style="opacity:0.85;fill:url(#radialGradient2877);fill-opacity:1;fill-rule:evenodd;stroke:none;stroke-width:8;stroke-linecap:butt;stroke-linejoin:round;stroke-miterlimit:4;stroke-dasharray:none;stroke-opacity:1;filter:url(#filter3681)"
       sodipodi:nodetypes="ccccsc" /><path
       transform="matrix(1.0533333,0,0,-1.0173732,14.56,131.28743)"
       style="opacity:0.35;fill:url(#radialGradient2881);fill-opacity:1;fill-rule:evenodd;stroke:none;stroke-width:8;stroke-linecap:butt;stroke-linejoin:round;stroke-miterlimit:4;stroke-dasharray:none;stroke-opacity:1;filter:url(#filter3681)"
       d="M 71.875,12 C 71.075959,12.024867 70.302054,12.283948 69.65625,12.75 L 69.746837,22.026981 L 75.96875,15.625 C 75.880958,14.678789 75.469257,13.792159 74.78125,13.125 C 74.003873,12.37118 72.957323,11.966273 71.875,12 z"
       id="path2857"
       sodipodi:nodetypes="ccccsc" /><path
       id="path2871"
       d="M 87.6,19.744339 L 86.71125,20.37821 L 86.71125,48.84479 L 86.71125,59.361289 C 75.203203,62.668078 61.061565,64.605133 45.762917,64.605133 C 38.631436,64.605133 31.769756,64.182739 25.28875,63.395014 L 24.531667,63.913636 C 31.325523,64.772472 38.548578,65.239004 46.059167,65.239003 C 61.572821,65.239003 75.930219,63.261985 87.6,59.908723 L 87.6,49.248162 L 87.6,19.744339 z"
       style="fill:url(#linearGradient2895);fill-opacity:1;fill-rule:evenodd;stroke:none;stroke-width:1px;stroke-linecap:butt;stroke-linejoin:miter;stroke-opacity:1" /><path
       id="path2873"
       d="M 87.6,19.744339 L 24.531667,63.913636 C 28.122981,64.367627 31.847249,64.698286 35.6575,64.922068 C 32.169447,64.704673 27.95029,64.35923 24.653333,63.942448 L 38.666848,54.007749 C 38.713382,54.245556 38.853667,54.316658 38.931451,54.271894 L 86.678333,21.069705 L 86.678333,49.709159 L 86.678333,60.052784 C 82.430956,61.273251 77.821812,62.321664 72.919167,63.135704 C 78.150964,62.285094 83.084328,61.206282 87.6,59.908723 L 87.6,49.248162 L 87.6,19.744339 z M 35.6575,64.922068 C 37.402503,65.024555 39.172559,65.101717 40.957083,65.152566 C 39.171728,65.097092 37.401526,65.030765 35.6575,64.922068 z"
       style="fill:url(#linearGradient2897);fill-opacity:1;fill-rule:evenodd;stroke:none;stroke-width:1px;stroke-linecap:butt;stroke-linejoin:miter;stroke-opacity:1"
       sodipodi:nodetypes="ccccccccccccccsc" /></g></g><rect
   style="opacity:1;fill:url(#radialGradient4467);fill-opacity:1;fill-rule:nonzero;stroke:none;stroke-width:3.5;stroke-linecap:round;stroke-linejoin:round;stroke-miterlimit:4;stroke-dasharray:none;stroke-dashoffset:0;stroke-opacity:1"
   id="rect4458"
   width="4"
   height="48"
   x="-20"
   y="28"
   rx="0"
   ry="0"
   transform="scale(-1,1)" /><path
   style="opacity:1;fill:url(#linearGradient4480);fill-opacity:1;fill-rule:nonzero;stroke:none;stroke-width:3.5;stroke-linecap:round;stroke-linejoin:round;stroke-miterlimit:4;stroke-dasharray:none;stroke-dashoffset:0;stroke-opacity:1"
   d="M 20,28 L 20,52.475 C 18.60593,52.320706 17.27976,52.191969 16,51.7375 L 16,28 L 20,28 z"
   id="path4469"
   sodipodi:nodetypes="ccccc" /><path
   style="opacity:1;fill:url(#linearGradient4491);fill-opacity:1;fill-rule:nonzero;stroke:none;stroke-width:3.5;stroke-linecap:round;stroke-linejoin:round;stroke-miterlimit:4;stroke-dasharray:none;stroke-dashoffset:0;stroke-opacity:1"
   d="M 16.09375,28 L 16.09375,51.5375 C 17.34508,51.981872 18.63984,52.116578 20,52.275 L 20,52.475 C 18.60593,52.320706 17.27976,52.191969 16,51.7375 L 16,28 L 16.09375,28 z"
   id="path4482"
   sodipodi:nodetypes="ccccccc" /><rect
   ry="0"
   rx="0"
   y="28"
   x="116"
   height="48"
   width="4"
   id="rect4493"
   style="opacity:1;fill:none;fill-opacity:1;fill-rule:nonzero;stroke:url(#linearGradient4501);stroke-width:0.2;stroke-linecap:round;stroke-linejoin:round;stroke-miterlimit:4;stroke-dasharray:none;stroke-dashoffset:0;stroke-opacity:1;filter:url(#filter4535)"
   transform="matrix(-1,0,0,1,136,0)" /><rect
   style="opacity:1;fill:none;fill-opacity:1;fill-rule:nonzero;stroke:url(#linearGradient3378);stroke-width:0.2;stroke-linecap:round;stroke-linejoin:round;stroke-miterlimit:4;stroke-dasharray:none;stroke-dashoffset:0;stroke-opacity:1;filter:url(#filter4549)"
   id="rect4539"
   width="4"
   height="48"
   x="116"
   y="28"
   rx="0"
   ry="0"
   transform="matrix(-1,0,0,1,136,0)" /><path
   style="opacity:1;fill:url(#linearGradient4574);fill-opacity:1;fill-rule:nonzero;stroke:none;stroke-width:0.2;stroke-linecap:round;stroke-linejoin:round;stroke-miterlimit:4;stroke-dasharray:none;stroke-dashoffset:0;stroke-opacity:1;filter:url(#filter4549)"
   d="M 116,28 L 116,52.798059 L 116,52.70967 L 116.1875,28.1875 L 120,28.1875 L 120,28 L 116,28 z"
   id="rect4557"
   sodipodi:nodetypes="ccccccc"
   transform="matrix(-1,0,0,1,136,0)" /><path
   style="opacity:0.81531528;fill:url(#radialGradient4584);fill-opacity:1;fill-rule:evenodd;stroke:none;stroke-width:1px;stroke-linecap:butt;stroke-linejoin:miter;stroke-opacity:1;filter:url(#filter4666)"
   d="M 116,28 L 116,24 C 113.03684,24.314689 112.14988,25.927009 112,28 L 116,28 z"
   id="path4576"
   sodipodi:nodetypes="cccc"
   transform="matrix(-1,0,0,1,136,0)" /><path
   sodipodi:nodetypes="cccc"
   id="path4670"
   d="M 16,28 L 16,24 C 13.03684,24.314689 12.14988,25.927009 12,28 L 16,28 z"
   style="opacity:0.81531528;fill:url(#radialGradient4672);fill-opacity:1;fill-rule:evenodd;stroke:none;stroke-width:1px;stroke-linecap:butt;stroke-linejoin:miter;stroke-opacity:1;filter:url(#filter4666)" /><path
   sodipodi:nodetypes="cccc"
   id="path4674"
   d="M 116,28 L 116,24 C 113.03684,24.314689 112.14988,25.927009 112,28 L 116,28 z"
   style="opacity:0.36936939;fill:url(#radialGradient4678);fill-opacity:1;fill-rule:evenodd;stroke:none;stroke-width:1px;stroke-linecap:butt;stroke-linejoin:miter;stroke-opacity:1;filter:url(#filter4666)"
   transform="matrix(-1,0,0,-1,136,104.2)" /><path
   transform="matrix(1,0,0,-1,-100,104.2)"
   style="opacity:0.36936939;fill:url(#radialGradient4680);fill-opacity:1;fill-rule:evenodd;stroke:none;stroke-width:1px;stroke-linecap:butt;stroke-linejoin:miter;stroke-opacity:1;filter:url(#filter4666)"
   d="M 116,28 L 116,24 C 113.03684,24.314689 112.14988,25.927009 112,28 L 116,28 z"
   id="path4676"
   sodipodi:nodetypes="cccc" /><path
   id="path6299"
   d="M 265.79375,5.893072 L 265.79375,5.893072 z"
   style="fill:none;fill-rule:evenodd;stroke:#000000;stroke-width:1px;stroke-linecap:butt;stroke-linejoin:miter;stroke-opacity:1" /><path
   style="fill:none;fill-rule:evenodd;stroke:#000000;stroke-width:1px;stroke-linecap:butt;stroke-linejoin:miter;stroke-opacity:1"
   d="M 237.79375,-6.106928 L 237.79375,-6.106928 z"
   id="path6301" /></svg>