<?xml version="1.0" encoding="UTF-8" standalone="no"?>
<!-- Created with Inkscape (http://www.inkscape.org/) -->

<svg
   xmlns:dc="http://purl.org/dc/elements/1.1/"
   xmlns:cc="http://creativecommons.org/ns#"
   xmlns:rdf="http://www.w3.org/1999/02/22-rdf-syntax-ns#"
   xmlns:svg="http://www.w3.org/2000/svg"
   xmlns="http://www.w3.org/2000/svg"
   xmlns:xlink="http://www.w3.org/1999/xlink"
   xmlns:sodipodi="http://sodipodi.sourceforge.net/DTD/sodipodi-0.dtd"
   xmlns:inkscape="http://www.inkscape.org/namespaces/inkscape"
   width="128"
   height="128"
   id="svg2"
   sodipodi:version="0.32"
   inkscape:version="0.46+devel"
   version="1.0"
   sodipodi:docname="go-next-context.svgz"
   inkscape:output_extension="org.inkscape.output.svgz.inkscape"
   inkscape:export-filename="/home/pinheiro/pics/oxygen-icons/scalable/actions/small/32x32/go-next-context.png"
   inkscape:export-xdpi="90"
   inkscape:export-ydpi="90">
  <defs
     id="defs4">
    <linearGradient
       inkscape:collect="always"
       id="linearGradient3835">
      <stop
         style="stop-color:#000000;stop-opacity:1;"
         offset="0"
         id="stop3837" />
      <stop
         style="stop-color:#000000;stop-opacity:0;"
         offset="1"
         id="stop3839" />
    </linearGradient>
    <linearGradient
       inkscape:collect="always"
       id="linearGradient5440">
      <stop
         style="stop-color:#ffffff;stop-opacity:1;"
         offset="0"
         id="stop5442" />
      <stop
         style="stop-color:#ffffff;stop-opacity:0;"
         offset="1"
         id="stop5444" />
    </linearGradient>
    <linearGradient
       id="linearGradient5342">
      <stop
         style="stop-color:#232221;stop-opacity:1;"
         offset="0"
         id="stop5344" />
      <stop
         id="stop5394"
         offset="0.10646833"
         style="stop-color:#555350;stop-opacity:1;" />
      <stop
         style="stop-color:#918d88;stop-opacity:1;"
         offset="1"
         id="stop5346" />
    </linearGradient>
    <linearGradient
       id="linearGradient3857"
       inkscape:collect="always">
      <stop
         id="stop3859"
         offset="0"
         style="stop-color:#ffffff;stop-opacity:1;" />
      <stop
         id="stop3861"
         offset="1"
         style="stop-color:#ffffff;stop-opacity:0" />
    </linearGradient>
    <linearGradient
       inkscape:collect="always"
       xlink:href="#linearGradient5440"
       id="linearGradient5451"
       gradientUnits="userSpaceOnUse"
       x1="71.937897"
       y1="31.666744"
       x2="71.937897"
       y2="184.00002"
       gradientTransform="matrix(-0.5,0,0,0.5,84.387072,24)" />
    <linearGradient
       inkscape:collect="always"
       xlink:href="#linearGradient5342"
       id="linearGradient2988"
       gradientUnits="userSpaceOnUse"
       gradientTransform="matrix(0.82532899,0,0,-0.82532899,27.563153,11.178945)"
       x1="80.151077"
       y1="-120.00011"
       x2="80.151077"
       y2="-15.919633" />
    <radialGradient
       inkscape:collect="always"
       xlink:href="#linearGradient3857"
       id="radialGradient3768"
       cx="72"
       cy="119.96851"
       fx="72"
       fy="119.96851"
       r="55.96851"
       gradientTransform="matrix(1,0,0,0.85762511,0,9.1119933)"
       gradientUnits="userSpaceOnUse" />
    <linearGradient
       inkscape:collect="always"
       xlink:href="#linearGradient3857"
       id="linearGradient3779"
       x1="120"
       y1="-57.246754"
       x2="120"
       y2="122.20984"
       gradientUnits="userSpaceOnUse"
       gradientTransform="matrix(-1,0,0,1,0.38707,0)" />
    <radialGradient
       inkscape:collect="always"
       xlink:href="#linearGradient3857"
       id="radialGradient3789"
       cx="116.84712"
       cy="19.013723"
       fx="116.84712"
       fy="19.013723"
       r="7.2363849"
       gradientTransform="matrix(0.76634635,0.64242764,-0.99999902,1.1928901,46.315462,-78.733381)"
       gradientUnits="userSpaceOnUse" />
    <filter
       inkscape:collect="always"
       id="filter3791">
      <feGaussianBlur
         inkscape:collect="always"
         stdDeviation="0.20159556"
         id="feGaussianBlur3793" />
    </filter>
    <radialGradient
       inkscape:collect="always"
       xlink:href="#linearGradient3857"
       id="radialGradient3797"
       gradientUnits="userSpaceOnUse"
       gradientTransform="matrix(0.76634635,0.64242764,-0.99999902,1.1928901,46.315462,-78.733381)"
       cx="116.84712"
       cy="19.013723"
       fx="116.84712"
       fy="19.013723"
       r="7.2363849" />
    <linearGradient
       inkscape:collect="always"
       xlink:href="#linearGradient3857"
       id="linearGradient3808"
       gradientUnits="userSpaceOnUse"
       gradientTransform="matrix(-1,0,0,1,128.41228,0.02520961)"
       x1="119.98701"
       y1="45.322445"
       x2="-57.03896"
       y2="-55.66029" />
    <radialGradient
       inkscape:collect="always"
       xlink:href="#linearGradient3857"
       id="radialGradient3818"
       cx="37.859638"
       cy="16.90958"
       fx="37.859638"
       fy="16.90958"
       r="4.7018008"
       gradientTransform="matrix(1.1800401,-0.68129628,0.909074,1.5745629,-21.478488,16.088385)"
       gradientUnits="userSpaceOnUse" />
    <filter
       inkscape:collect="always"
       id="filter3820">
      <feGaussianBlur
         inkscape:collect="always"
         stdDeviation="0.2741905"
         id="feGaussianBlur3822" />
    </filter>
    <radialGradient
       inkscape:collect="always"
       xlink:href="#linearGradient3857"
       id="radialGradient3826"
       gradientUnits="userSpaceOnUse"
       gradientTransform="matrix(0.97236837,-0.56139711,1.2749973,2.2083604,-19.803722,0.83179405)"
       cx="37.859638"
       cy="16.90958"
       fx="37.859638"
       fy="16.90958"
       r="4.7018008" />
    <linearGradient
       inkscape:collect="always"
       xlink:href="#linearGradient3835"
       id="linearGradient3841"
       x1="-4.3022718"
       y1="111.8996"
       x2="67.872253"
       y2="64"
       gradientUnits="userSpaceOnUse"
       gradientTransform="matrix(-1,0,0,1,128.38707,0)" />
    <linearGradient
       inkscape:collect="always"
       xlink:href="#linearGradient3835"
       id="linearGradient3866"
       gradientUnits="userSpaceOnUse"
       gradientTransform="matrix(-1,0,0,1,128.38707,0)"
       x1="148.38707"
       y1="112"
       x2="67.872253"
       y2="64" />
    <radialGradient
       inkscape:collect="always"
       xlink:href="#linearGradient3857"
       id="radialGradient3872"
       gradientUnits="userSpaceOnUse"
       gradientTransform="matrix(-1,0,0,0.85762511,128.38707,9.1119933)"
       cx="72"
       cy="119.96851"
       fx="72"
       fy="119.96851"
       r="55.96851" />
    <linearGradient
       inkscape:collect="always"
       xlink:href="#linearGradient3857"
       id="linearGradient3875"
       x1="112"
       y1="-56"
       x2="112"
       y2="120"
       gradientUnits="userSpaceOnUse" />
    <linearGradient
       inkscape:collect="always"
       xlink:href="#linearGradient3857"
       id="linearGradient3883"
       gradientUnits="userSpaceOnUse"
       x1="112"
       y1="-56"
       x2="112"
       y2="120"
       gradientTransform="translate(-51.15625,-78.5)" />
    <linearGradient
       inkscape:collect="always"
       xlink:href="#linearGradient3857"
       id="linearGradient3887"
       gradientUnits="userSpaceOnUse"
       gradientTransform="translate(-51.95625,-79.3)"
       x1="112"
       y1="-56"
       x2="112"
       y2="120" />
    <linearGradient
       inkscape:collect="always"
       xlink:href="#linearGradient3857"
       id="linearGradient3890"
       gradientUnits="userSpaceOnUse"
       gradientTransform="translate(0.05625,-0.0875)"
       x1="130.80721"
       y1="60.957298"
       x2="-76.84375"
       y2="-41.5" />
  </defs>
  <sodipodi:namedview
     id="base"
     pagecolor="#ffffff"
     bordercolor="#666666"
     borderopacity="1.0"
     gridtolerance="10000"
     guidetolerance="10"
     objecttolerance="10"
     inkscape:pageopacity="0.0"
     inkscape:pageshadow="2"
     inkscape:zoom="2.40625"
     inkscape:cx="40.508543"
     inkscape:cy="84.186175"
     inkscape:document-units="px"
     inkscape:current-layer="layer1"
     width="128px"
     height="128px"
     showgrid="true"
     inkscape:window-width="1040"
     inkscape:window-height="728"
     inkscape:window-x="199"
     inkscape:window-y="343"
     showguides="true"
     inkscape:guide-bbox="true">
    <inkscape:grid
       id="GridFromPre046Settings"
       type="xygrid"
       originx="0px"
       originy="0px"
       spacingx="4px"
       spacingy="4px"
       color="#0000ff"
       empcolor="#0000ff"
       opacity="0.2"
       empopacity="0.4"
       empspacing="2" />
    <sodipodi:guide
       orientation="0,1"
       position="-87.571042,184.54569"
       id="guide3877" />
    <sodipodi:guide
       orientation="0,1"
       position="-64.062038,5.2895261"
       id="guide3879" />
  </sodipodi:namedview>
  <metadata
     id="metadata7">
    <rdf:RDF>
      <cc:Work
         rdf:about="">
        <dc:format>image/svg+xml</dc:format>
        <dc:type
           rdf:resource="http://purl.org/dc/dcmitype/StillImage" />
        <dc:title></dc:title>
      </cc:Work>
    </rdf:RDF>
  </metadata>
  <g
     inkscape:label="Layer 1"
     inkscape:groupmode="layer"
     id="layer1">
    <path
       d="m 43.25,12 c -3.229493,0 -6.134282,0.827305 -8.125,2.59375 -1.990718,1.766445 -2.88765,3.640205 -4.3125,5.8125 L 5.78125,58.59375 5.75,58.625 C 3.7207351,61.707562 3.7091082,66.120192 5.71875,69.3125 A 3.9894433,3.9894433 0 0 0 5.75,69.375 l 25.0625,38.21875 c 1.424853,2.1723 2.321782,4.04605 4.3125,5.8125 C 37.115718,115.1727 40.020509,116 43.25,116 l 66.84375,0 C 117.72259,116 124,109.72258 124,102.09375 l 0,-76.1875 C 124,18.277417 117.72259,12 110.09375,12 L 43.25,12 z"
       id="path2990"
       style="fill:url(#linearGradient2988);fill-opacity:1;stroke:none"
       inkscape:original="M 43.25 16 C 37.763213 16 37.16555 18.005838 34.15625 22.59375 L 9.09375 60.8125 C 7.7337308 62.856649 7.7051191 64.981665 9.09375 67.1875 L 34.15625 105.40625 C 37.165554 109.99417 37.763213 112 43.25 112 L 110.09375 112 C 115.58054 112 120 107.58053 120 102.09375 L 120 25.90625 C 120 20.419463 115.58054 16 110.09375 16 L 43.25 16 z "
       inkscape:radius="3.9890444"
       sodipodi:type="inkscape:offset"
       transform="matrix(-1,0,0,1,128.38707,0)" />
    <path
       style="font-size:113.80991364px;fill:url(#linearGradient5451);fill-opacity:1"
       d="m 60.387072,36 c 4.52672,0.02227 8.066262,0.606367 9.625,1.9375 1.571054,1.339326 2.343766,4.039234 2.34375,8.09375 l 0,6.59375 c 1.6e-5,2.733636 0.458813,4.748431 1.46875,5.8125 0.991263,1.045765 2.169259,1.562519 4.84375,1.5625 l 1.71875,0 0,4 -1.71875,0 c -2.655788,1.6e-5 -3.833784,0.467173 -4.84375,1.53125 -1.009937,1.064103 -1.468734,2.885955 -1.46875,5.65625 l 0,2.578125 c 1.6e-5,4.05455 -0.772696,10.751735 -2.34375,12.109375 -1.558738,1.33116 -5.09828,2.09578 -9.625,2.125 l 0,-4 c 2.595343,-0.01085 5.783653,-0.468145 6.578125,-1.265625 0.804243,-0.807245 1.203146,-6.50691 1.203125,-9.09375 l 0,-2.8125 c 2.1e-5,-2.862027 0.377144,-4.853643 1.21875,-6.15625 0.841646,-1.302579 1.580254,-2.176506 3.65625,-2.671875 -2.057293,-0.458643 -2.783354,-1.353637 -3.625,-2.65625 -0.860309,-1.302573 -1.249979,-3.494594 -1.25,-6.375 l 0,-6.828125 c 2.1e-5,-2.586807 -0.398882,-4.286472 -1.203125,-5.09375 C 66.170725,40.249434 62.982415,40.007341 60.387072,40 l 0,-4 z m -16,0 0,4 c -2.595343,0.0073 -5.783653,0.249434 -6.578125,1.046875 -0.804242,0.807278 -1.203146,2.506943 -1.203125,5.09375 l 0,6.828125 c -2.1e-5,2.880406 -0.389691,5.072427 -1.25,6.375 -0.841646,1.302613 -1.567707,2.197607 -3.625,2.65625 2.075996,0.495369 2.814604,1.369296 3.65625,2.671875 0.841606,1.302607 1.218729,3.294223 1.21875,6.15625 l 0,2.8125 c -2.1e-5,2.58684 0.398883,8.286505 1.203125,9.09375 0.794472,0.79748 3.982782,1.254775 6.578125,1.265625 l 0,4 c -4.52672,-0.02922 -8.066262,-0.79384 -9.625,-2.125 -1.571054,-1.35764 -2.343766,-8.054825 -2.34375,-12.109375 l 0,-2.578125 c -1.6e-5,-2.770295 -0.458813,-4.592147 -1.46875,-5.65625 C 29.939607,64.467173 28.761612,64.000016 26.105822,64 l -1.71875,0 0,-4 1.71875,0 c 2.67449,1.9e-5 3.852485,-0.516735 4.84375,-1.5625 1.009937,-1.064069 1.468734,-3.078864 1.46875,-5.8125 l 0,-6.59375 c -1.6e-5,-4.054516 0.772696,-6.754424 2.34375,-8.09375 1.558738,-1.331133 5.09828,-1.915235 9.625,-1.9375 z"
       id="path3006"
       sodipodi:nodetypes="csccsccccscccccsccsccccsccccsccccsccscccccsccccsccsc" />
    <path
       sodipodi:type="inkscape:offset"
       inkscape:radius="0"
       inkscape:original="M 43.25 16 C 37.763213 16 37.16555 18.005838 34.15625 22.59375 L 9.09375 60.8125 C 7.7337308 62.856649 7.7051191 64.981665 9.09375 67.1875 L 34.15625 105.40625 C 37.165554 109.99417 37.763213 112 43.25 112 L 110.09375 112 C 115.58054 112 120 107.58053 120 102.09375 L 120 25.90625 C 120 20.419463 115.58054 16 110.09375 16 L 43.25 16 z "
       style="opacity:0.4;fill:url(#radialGradient3768);fill-opacity:1;stroke:none"
       id="path2986"
       d="m 43.25,16 c -5.486787,0 -6.08445,2.005838 -9.09375,6.59375 L 9.09375,60.8125 c -1.3600192,2.044149 -1.3886309,4.169165 0,6.375 l 25.0625,38.21875 C 37.165554,109.99417 37.763213,112 43.25,112 l 66.84375,0 C 115.58054,112 120,107.58053 120,102.09375 l 0,-76.1875 C 120,20.419463 115.58054,16 110.09375,16 L 43.25,16 z"
       transform="matrix(-1,0,0,1,128.38707,0)" />
    <path
       id="path3864"
       d="m 85.137072,12 c 3.229493,0 6.134282,0.827305 8.125,2.59375 1.990718,1.766445 2.88765,3.640205 4.3125,5.8125 l 25.031248,38.1875 0.0313,0.03125 c 2.02927,3.082562 2.04089,7.495192 0.0313,10.6875 a 3.9894433,3.9894433 0 0 1 -0.0313,0.0625 l -25.062498,38.21875 c -1.424853,2.1723 -2.321782,4.04605 -4.3125,5.8125 C 91.271354,115.1727 88.366563,116 85.137072,116 l -66.84375,0 c -7.62884,0 -13.9062503,-6.27742 -13.9062503,-13.90625 l 0,-76.1875 C 4.3870717,18.277417 10.664482,12 18.293322,12 l 66.84375,0 z m 0,4 -66.84375,0 c -5.48679,0 -9.9062503,4.419463 -9.9062503,9.90625 l 0,76.1875 c 0,5.48678 4.4194603,9.90625 9.9062503,9.90625 l 66.84375,0 c 5.486787,0 6.084446,-2.00583 9.09375,-6.59375 L 119.29332,67.1875 c 1.38863,-2.205835 1.36002,-4.330851 0,-6.375 L 94.230822,22.59375 C 91.221522,18.005838 90.623859,16 85.137072,16 z"
       style="fill:url(#linearGradient3866);fill-opacity:1;stroke:none" />
    <path
       style="fill:url(#radialGradient3789);fill-opacity:1;stroke-width:1px;filter:url(#filter3791)"
       d="m 109.61073,12.071221 0.0735,3.893678 c 5.28541,0.306171 10.21665,3.353662 10.35866,9.991327 l 4.04061,-0.514259 c 0,-6.921709 -5.91869,-13.370746 -14.47274,-13.370746 l -3e-5,0 z"
       id="path3781"
       sodipodi:nodetypes="cccccc"
       transform="matrix(-1,0,0,1,128.38707,0)" />
    <path
       style="fill:url(#linearGradient3841);fill-opacity:1;stroke:none"
       d="m 85.137072,12 c 3.229493,0 6.134282,0.827305 8.125,2.59375 1.990718,1.766445 2.88765,3.640205 4.3125,5.8125 l 25.031248,38.1875 0.0313,0.03125 c 2.02927,3.082562 2.04089,7.495192 0.0313,10.6875 a 3.9894433,3.9894433 0 0 1 -0.0313,0.0625 l -25.062498,38.21875 c -1.424853,2.1723 -2.321782,4.04605 -4.3125,5.8125 C 91.271354,115.1727 88.366563,116 85.137072,116 l -66.84375,0 c -7.62884,0 -13.9062503,-6.27742 -13.9062503,-13.90625 l 0,-76.1875 C 4.3870717,18.277417 10.664482,12 18.293322,12 l 66.84375,0 z m 0,4 -66.84375,0 c -5.48679,0 -9.9062503,4.419463 -9.9062503,9.90625 l 0,76.1875 c 0,5.48678 4.4194603,9.90625 9.9062503,9.90625 l 66.84375,0 c 5.486787,0 6.084446,-2.00583 9.09375,-6.59375 L 119.29332,67.1875 c 1.38863,-2.205835 1.36002,-4.330851 0,-6.375 L 94.230822,22.59375 C 91.221522,18.005838 90.623859,16 85.137072,16 z"
       id="path3828" />
    <path
       style="fill:url(#radialGradient3818);fill-opacity:1;stroke-width:1px;filter:url(#filter3820)"
       d="m 42.095812,12.07122 0.404061,3.967145 c -2.191572,0.09392 -4.350362,0.371405 -6.060916,3.159023 l -3.342686,-2.277435 c 1.954982,-2.701297 4.514218,-4.775098 8.999541,-4.848733 z"
       id="path3810"
       sodipodi:nodetypes="ccccc"
       transform="matrix(-1,0,0,1,128.38707,0)" />
    <path
       sodipodi:nodetypes="cccccc"
       id="path3795"
       d="m 109.61073,12.071221 0.0735,3.893678 c 5.28541,0.306171 10.21665,3.353662 10.35866,9.991327 l 4.04061,-0.514259 c 0,-6.921709 -5.91869,-13.370746 -14.47274,-13.370746 l -3e-5,0 z"
       style="opacity:0.5120773;fill:url(#radialGradient3797);fill-opacity:1;stroke-width:1px;filter:url(#filter3791)"
       transform="matrix(-1,0,0,-1,128.38707,128.02745)" />
    <path
       sodipodi:nodetypes="ccccc"
       id="path3824"
       d="m 42.095812,12.07122 0.404061,3.967145 c -2.191572,0.09392 -4.350362,0.371405 -6.060916,3.159023 l -3.342686,-2.277435 c 1.954982,-2.701297 4.514218,-4.775098 8.999541,-4.848733 z"
       style="opacity:0.79227056;fill:url(#radialGradient3826);fill-opacity:1;stroke-width:1px;filter:url(#filter3820)"
       transform="matrix(-1,0,0,-1,128.38707,128.06861)" />
    <path
       style="opacity:1;fill:url(#linearGradient3875);fill-opacity:1;stroke:none"
       d="M 18.28125 16 C 12.79446 16 8.375 20.419463 8.375 25.90625 L 8.375 73.40625 C 18.638431 75.717263 30.013453 77 42 77 C 73.966773 77 101.63006 67.843947 115.15625 54.5 L 94.21875 22.59375 C 91.20945 18.005838 90.611787 16 85.125 16 L 18.28125 16 z "
       id="path3868" />
    <path
       style="fill:url(#linearGradient3890);fill-opacity:1;stroke:none"
       d="m 90.49375,17.35 c 0.922022,1.05167 1.739539,2.469722 2.96875,4.34375 L 114.4,53.6 C 100.87381,66.943947 73.210523,76.1 41.24375,76.1 29.569803,76.1 18.483154,74.89209 8.43125,72.69375 l 0,0.625 c 10.263431,2.311013 21.638453,3.59375 33.625,3.59375 31.966773,0 59.63006,-9.156053 73.15625,-22.5 L 94.275,22.50625 C 92.707656,20.116712 91.784186,18.420086 90.49375,17.35 z"
       id="path3881" />
  </g>
</svg>
