<?xml version="1.0" encoding="UTF-8" standalone="no"?>
<!-- Created with Inkscape (http://www.inkscape.org/) -->

<svg
   xmlns:dc="http://purl.org/dc/elements/1.1/"
   xmlns:cc="http://creativecommons.org/ns#"
   xmlns:rdf="http://www.w3.org/1999/02/22-rdf-syntax-ns#"
   xmlns:svg="http://www.w3.org/2000/svg"
   xmlns="http://www.w3.org/2000/svg"
   xmlns:xlink="http://www.w3.org/1999/xlink"
   xmlns:sodipodi="http://sodipodi.sourceforge.net/DTD/sodipodi-0.dtd"
   xmlns:inkscape="http://www.inkscape.org/namespaces/inkscape"
   width="128"
   height="128"
   id="svg2"
   sodipodi:version="0.32"
   inkscape:version="0.46+devel"
   version="1.0"
   sodipodi:docname="go-previous-context.svgz"
   inkscape:output_extension="org.inkscape.output.svgz.inkscape"
   inkscape:export-filename="/home/pinheiro/pics/oxygen-icons/scalable/actions/small/16x16/context.png"
   inkscape:export-xdpi="90"
   inkscape:export-ydpi="90">
  <defs
     id="defs4">
    <linearGradient
       inkscape:collect="always"
       id="linearGradient3835">
      <stop
         style="stop-color:#000000;stop-opacity:1;"
         offset="0"
         id="stop3837" />
      <stop
         style="stop-color:#000000;stop-opacity:0;"
         offset="1"
         id="stop3839" />
    </linearGradient>
    <linearGradient
       inkscape:collect="always"
       id="linearGradient5440">
      <stop
         style="stop-color:#ffffff;stop-opacity:1;"
         offset="0"
         id="stop5442" />
      <stop
         style="stop-color:#ffffff;stop-opacity:0;"
         offset="1"
         id="stop5444" />
    </linearGradient>
    <linearGradient
       id="linearGradient5342">
      <stop
         style="stop-color:#232221;stop-opacity:1;"
         offset="0"
         id="stop5344" />
      <stop
         id="stop5394"
         offset="0.10646833"
         style="stop-color:#555350;stop-opacity:1;" />
      <stop
         style="stop-color:#918d88;stop-opacity:1;"
         offset="1"
         id="stop5346" />
    </linearGradient>
    <linearGradient
       id="linearGradient3857"
       inkscape:collect="always">
      <stop
         id="stop3859"
         offset="0"
         style="stop-color:#ffffff;stop-opacity:1;" />
      <stop
         id="stop3861"
         offset="1"
         style="stop-color:#ffffff;stop-opacity:0" />
    </linearGradient>
    <linearGradient
       inkscape:collect="always"
       xlink:href="#linearGradient5440"
       id="linearGradient5451"
       gradientUnits="userSpaceOnUse"
       x1="71.937897"
       y1="31.666744"
       x2="71.937897"
       y2="184.00002"
       gradientTransform="matrix(0.5,0,0,0.5,44,24)" />
    <linearGradient
       inkscape:collect="always"
       xlink:href="#linearGradient5342"
       id="linearGradient2988"
       gradientUnits="userSpaceOnUse"
       gradientTransform="matrix(0.82532899,0,0,-0.82532899,27.563153,11.178945)"
       x1="80.151077"
       y1="-120.00011"
       x2="80.151077"
       y2="-15.919633" />
    <radialGradient
       inkscape:collect="always"
       xlink:href="#linearGradient3857"
       id="radialGradient3768"
       cx="72"
       cy="119.96851"
       fx="72"
       fy="119.96851"
       r="55.96851"
       gradientTransform="matrix(1,0,0,0.85762511,0,9.1119933)"
       gradientUnits="userSpaceOnUse" />
    <linearGradient
       inkscape:collect="always"
       xlink:href="#linearGradient3857"
       id="linearGradient3779"
       x1="120"
       y1="-57.246754"
       x2="120"
       y2="122.20984"
       gradientUnits="userSpaceOnUse" />
    <radialGradient
       inkscape:collect="always"
       xlink:href="#linearGradient3857"
       id="radialGradient3789"
       cx="116.84712"
       cy="19.013723"
       fx="116.84712"
       fy="19.013723"
       r="7.2363849"
       gradientTransform="matrix(0.76634635,0.64242764,-0.99999902,1.1928901,46.315462,-78.733381)"
       gradientUnits="userSpaceOnUse" />
    <filter
       inkscape:collect="always"
       id="filter3791">
      <feGaussianBlur
         inkscape:collect="always"
         stdDeviation="0.20159556"
         id="feGaussianBlur3793" />
    </filter>
    <radialGradient
       inkscape:collect="always"
       xlink:href="#linearGradient3857"
       id="radialGradient3797"
       gradientUnits="userSpaceOnUse"
       gradientTransform="matrix(0.76634635,0.64242764,-0.99999902,1.1928901,46.315462,-78.733381)"
       cx="116.84712"
       cy="19.013723"
       fx="116.84712"
       fy="19.013723"
       r="7.2363849" />
    <linearGradient
       inkscape:collect="always"
       xlink:href="#linearGradient3857"
       id="linearGradient3808"
       gradientUnits="userSpaceOnUse"
       gradientTransform="translate(-0.02520644,0.02520961)"
       x1="119.98701"
       y1="45.322445"
       x2="-57.03896"
       y2="-55.66029" />
    <radialGradient
       inkscape:collect="always"
       xlink:href="#linearGradient3857"
       id="radialGradient3818"
       cx="37.859638"
       cy="16.90958"
       fx="37.859638"
       fy="16.90958"
       r="4.7018008"
       gradientTransform="matrix(1.1800401,-0.68129628,0.909074,1.5745629,-21.478488,16.088385)"
       gradientUnits="userSpaceOnUse" />
    <filter
       inkscape:collect="always"
       id="filter3820">
      <feGaussianBlur
         inkscape:collect="always"
         stdDeviation="0.2741905"
         id="feGaussianBlur3822" />
    </filter>
    <radialGradient
       inkscape:collect="always"
       xlink:href="#linearGradient3857"
       id="radialGradient3826"
       gradientUnits="userSpaceOnUse"
       gradientTransform="matrix(0.97236837,-0.56139711,1.2749973,2.2083604,-19.803722,0.83179405)"
       cx="37.859638"
       cy="16.90958"
       fx="37.859638"
       fy="16.90958"
       r="4.7018008" />
    <linearGradient
       inkscape:collect="always"
       xlink:href="#linearGradient5342"
       id="linearGradient3832"
       gradientUnits="userSpaceOnUse"
       gradientTransform="matrix(0.82532899,0,0,-0.82532899,27.563153,11.178945)"
       x1="80.151077"
       y1="-120.00011"
       x2="80.151077"
       y2="-15.919633" />
    <linearGradient
       inkscape:collect="always"
       xlink:href="#linearGradient3835"
       id="linearGradient3841"
       x1="-4.3022718"
       y1="111.8996"
       x2="67.872253"
       y2="64"
       gradientUnits="userSpaceOnUse" />
  </defs>
  <sodipodi:namedview
     id="base"
     pagecolor="#ffffff"
     bordercolor="#666666"
     borderopacity="1.0"
     gridtolerance="10000"
     guidetolerance="10"
     objecttolerance="10"
     inkscape:pageopacity="0.0"
     inkscape:pageshadow="2"
     inkscape:zoom="1.7014757"
     inkscape:cx="42.949641"
     inkscape:cy="125.62952"
     inkscape:document-units="px"
     inkscape:current-layer="layer1"
     width="128px"
     height="128px"
     showgrid="false"
     inkscape:window-width="1040"
     inkscape:window-height="728"
     inkscape:window-x="504"
     inkscape:window-y="333"
     showguides="true"
     inkscape:guide-bbox="true">
    <inkscape:grid
       id="GridFromPre046Settings"
       type="xygrid"
       originx="0px"
       originy="0px"
       spacingx="4px"
       spacingy="4px"
       color="#0000ff"
       empcolor="#0000ff"
       opacity="0.2"
       empopacity="0.4"
       empspacing="2" />
  </sodipodi:namedview>
  <metadata
     id="metadata7">
    <rdf:RDF>
      <cc:Work
         rdf:about="">
        <dc:format>image/svg+xml</dc:format>
        <dc:type
           rdf:resource="http://purl.org/dc/dcmitype/StillImage" />
        <dc:title></dc:title>
      </cc:Work>
    </rdf:RDF>
  </metadata>
  <g
     inkscape:label="Layer 1"
     inkscape:groupmode="layer"
     id="layer1">
    <path
       d="m 43.25,12 c -3.229493,0 -6.134282,0.827305 -8.125,2.59375 -1.990718,1.766445 -2.88765,3.640205 -4.3125,5.8125 L 5.78125,58.59375 5.75,58.625 C 3.7207351,61.707562 3.7091082,66.120192 5.71875,69.3125 A 3.9894433,3.9894433 0 0 0 5.75,69.375 l 25.0625,38.21875 c 1.424853,2.1723 2.321782,4.04605 4.3125,5.8125 C 37.115718,115.1727 40.020509,116 43.25,116 l 66.84375,0 C 117.72259,116 124,109.72258 124,102.09375 l 0,-76.1875 C 124,18.277417 117.72259,12 110.09375,12 L 43.25,12 z"
       id="path2990"
       style="fill:url(#linearGradient2988);fill-opacity:1;stroke:none"
       inkscape:original="M 43.25 16 C 37.763213 16 37.16555 18.005838 34.15625 22.59375 L 9.09375 60.8125 C 7.7337308 62.856649 7.7051191 64.981665 9.09375 67.1875 L 34.15625 105.40625 C 37.165554 109.99417 37.763213 112 43.25 112 L 110.09375 112 C 115.58054 112 120 107.58053 120 102.09375 L 120 25.90625 C 120 20.419463 115.58054 16 110.09375 16 L 43.25 16 z "
       inkscape:radius="3.9890444"
       sodipodi:type="inkscape:offset" />
    <path
       style="font-size:113.80991364px;fill:url(#linearGradient5451);fill-opacity:1"
       d="m 68,36 c -4.52672,0.02227 -8.066262,0.606367 -9.625,1.9375 -1.571054,1.339326 -2.343766,4.039234 -2.34375,8.09375 l 0,6.59375 c -1.6e-5,2.733636 -0.458813,4.748431 -1.46875,5.8125 C 53.571237,59.483265 52.393241,60.000019 49.71875,60 L 48,60 l 0,4 1.71875,0 c 2.655788,1.6e-5 3.833784,0.467173 4.84375,1.53125 1.009937,1.064103 1.468734,2.885955 1.46875,5.65625 l 0,2.578125 C 56.031234,77.820175 56.803946,84.51736 58.375,85.875 59.933738,87.20616 63.47328,87.97078 68,88 l 0,-4 c -2.595343,-0.01085 -5.783653,-0.468145 -6.578125,-1.265625 -0.804243,-0.807245 -1.203146,-6.50691 -1.203125,-9.09375 l 0,-2.8125 C 60.218729,67.966098 59.841606,65.974482 59,64.671875 58.158354,63.369296 57.419746,62.495369 55.34375,62 c 2.057293,-0.458643 2.783354,-1.353637 3.625,-2.65625 0.860309,-1.302573 1.249979,-3.494594 1.25,-6.375 l 0,-6.828125 c -2.1e-5,-2.586807 0.398882,-4.286472 1.203125,-5.09375 C 62.216347,40.249434 65.404657,40.007341 68,40 l 0,-4 z m 16,0 0,4 c 2.595343,0.0073 5.783653,0.249434 6.578125,1.046875 0.804242,0.807278 1.203146,2.506943 1.203125,5.09375 l 0,6.828125 c 2.1e-5,2.880406 0.389691,5.072427 1.25,6.375 0.841646,1.302613 1.567707,2.197607 3.625,2.65625 -2.075996,0.495369 -2.814604,1.369296 -3.65625,2.671875 -0.841606,1.302607 -1.218729,3.294223 -1.21875,6.15625 l 0,2.8125 c 2.1e-5,2.58684 -0.398883,8.286505 -1.203125,9.09375 C 89.783653,83.531855 86.595343,83.98915 84,84 l 0,4 c 4.52672,-0.02922 8.066262,-0.79384 9.625,-2.125 1.571054,-1.35764 2.343766,-8.054825 2.34375,-12.109375 l 0,-2.578125 c 1.6e-5,-2.770295 0.458813,-4.592147 1.46875,-5.65625 C 98.447465,64.467173 99.62546,64.000016 102.28125,64 L 104,64 l 0,-4 -1.71875,0 c -2.67449,1.9e-5 -3.852485,-0.516735 -4.84375,-1.5625 -1.009937,-1.064069 -1.468734,-3.078864 -1.46875,-5.8125 l 0,-6.59375 C 95.968766,41.976734 95.196054,39.276826 93.625,37.9375 92.066262,36.606367 88.52672,36.022265 84,36 z"
       id="path3006"
       sodipodi:nodetypes="csccsccccscccccsccsccccsccccsccccsccscccccsccccsccsc" />
    <path
       style="fill:url(#linearGradient3779);fill-opacity:1;stroke:none"
       d="M 43.25 16 C 37.763213 16 37.16555 18.005838 34.15625 22.59375 L 9.09375 60.8125 C 7.7337308 62.856649 7.7051191 64.981665 9.09375 67.1875 L 9.3125 67.53125 C 20.988889 70.393537 34.118642 72 48 72 C 77.770749 72 104.07546 64.594321 120 53.28125 L 120 25.90625 C 120 20.419463 115.58054 16 110.09375 16 L 43.25 16 z "
       id="path2992" />
    <path
       sodipodi:type="inkscape:offset"
       inkscape:radius="0"
       inkscape:original="M 43.25 16 C 37.763213 16 37.16555 18.005838 34.15625 22.59375 L 9.09375 60.8125 C 7.7337308 62.856649 7.7051191 64.981665 9.09375 67.1875 L 34.15625 105.40625 C 37.165554 109.99417 37.763213 112 43.25 112 L 110.09375 112 C 115.58054 112 120 107.58053 120 102.09375 L 120 25.90625 C 120 20.419463 115.58054 16 110.09375 16 L 43.25 16 z "
       style="fill:url(#radialGradient3768);fill-opacity:1;stroke:none;opacity:0.4"
       id="path2986"
       d="m 43.25,16 c -5.486787,0 -6.08445,2.005838 -9.09375,6.59375 L 9.09375,60.8125 c -1.3600192,2.044149 -1.3886309,4.169165 0,6.375 l 25.0625,38.21875 C 37.165554,109.99417 37.763213,112 43.25,112 l 66.84375,0 C 115.58054,112 120,107.58053 120,102.09375 l 0,-76.1875 C 120,20.419463 115.58054,16 110.09375,16 L 43.25,16 z" />
    <path
       style="stroke-width:1px;fill-opacity:1;fill:url(#radialGradient3789);filter:url(#filter3791)"
       d="m 109.61073,12.071221 0.0735,3.893678 c 5.28541,0.306171 10.21665,3.353662 10.35866,9.991327 l 4.04061,-0.514259 c 0,-6.921709 -5.91869,-13.370746 -14.47274,-13.370746 l -3e-5,0 z"
       id="path3781"
       sodipodi:nodetypes="cccccc" />
    <path
       sodipodi:nodetypes="cccccc"
       id="path3795"
       d="m 109.61073,12.071221 0.0735,3.893678 c 5.28541,0.306171 10.21665,3.353662 10.35866,9.991327 l 4.04061,-0.514259 c 0,-6.921709 -5.91869,-13.370746 -14.47274,-13.370746 l -3e-5,0 z"
       style="fill:url(#radialGradient3797);fill-opacity:1;stroke-width:1px;filter:url(#filter3791);opacity:0.51207729"
       transform="matrix(1,0,0,-1,0,128.02745)" />
    <path
       style="fill:url(#linearGradient3808);fill-opacity:1;stroke:none"
       d="m 116.83681,18.675778 c 1.70003,1.777104 2.75,4.17972 2.75,6.84375 l 0,27.375 c -15.92454,11.313071 -42.229258,18.71875 -72.000007,18.71875 -13.83229,0 -26.917155,-1.594182 -38.5624994,-4.4375 0.00787,0.01264 0.023288,0.0186 0.03125,0.03125 l 0.21875,0.34375 c 11.6763884,2.862287 24.8061414,4.46875 38.6874994,4.46875 29.770749,0 56.075467,-7.405679 72.000007,-18.71875 l 0,-27.375 c 0,-2.867836 -1.18892,-5.444003 -3.125,-7.25 z"
       id="path3799" />
    <path
       sodipodi:nodetypes="ccccc"
       id="path3824"
       d="m 42.095812,12.07122 0.404061,3.967145 c -2.191572,0.09392 -4.350362,0.371405 -6.060916,3.159023 l -3.342686,-2.277435 c 1.954982,-2.701297 4.514218,-4.775098 8.999541,-4.848733 z"
       style="opacity:0.79227053;fill:url(#radialGradient3826);fill-opacity:1;stroke-width:1px;filter:url(#filter3820)"
       transform="matrix(1,0,0,-1,0,128.06861)" />
    <path
       style="fill:url(#linearGradient3841);fill-opacity:1;stroke:none"
       d="M 43.25 12 C 40.020507 12 37.115718 12.827305 35.125 14.59375 C 33.134282 16.360195 32.23735 18.233955 30.8125 20.40625 L 5.78125 58.59375 L 5.75 58.625 C 3.7207351 61.707562 3.7091082 66.120192 5.71875 69.3125 A 3.9894433 3.9894433 0 0 0 5.75 69.375 L 30.8125 107.59375 C 32.237353 109.76605 33.134282 111.6398 35.125 113.40625 C 37.115718 115.1727 40.020509 116 43.25 116 L 110.09375 116 C 117.72259 116 124 109.72258 124 102.09375 L 124 25.90625 C 124 18.277417 117.72259 12 110.09375 12 L 43.25 12 z M 43.25 16 L 110.09375 16 C 115.58054 16 120 20.419463 120 25.90625 L 120 102.09375 C 120 107.58053 115.58054 112 110.09375 112 L 43.25 112 C 37.763213 112 37.165554 109.99417 34.15625 105.40625 L 9.09375 67.1875 C 7.7051191 64.981665 7.7337308 62.856649 9.09375 60.8125 L 34.15625 22.59375 C 37.16555 18.005838 37.763213 16 43.25 16 z "
       id="path3828" />
    <path
       style="stroke-width:1px;fill-opacity:1;fill:url(#radialGradient3818);filter:url(#filter3820)"
       d="m 42.095812,12.07122 0.404061,3.967145 c -2.191572,0.09392 -4.350362,0.371405 -6.060916,3.159023 l -3.342686,-2.277435 c 1.954982,-2.701297 4.514218,-4.775098 8.999541,-4.848733 z"
       id="path3810"
       sodipodi:nodetypes="ccccc" />
  </g>
</svg>
