<?xml version="1.0" encoding="UTF-8" standalone="no"?>
<!-- Created with Inkscape (http://www.inkscape.org/) -->

<svg
   xmlns:dc="http://purl.org/dc/elements/1.1/"
   xmlns:cc="http://creativecommons.org/ns#"
   xmlns:rdf="http://www.w3.org/1999/02/22-rdf-syntax-ns#"
   xmlns:svg="http://www.w3.org/2000/svg"
   xmlns="http://www.w3.org/2000/svg"
   xmlns:xlink="http://www.w3.org/1999/xlink"
   xmlns:sodipodi="http://sodipodi.sourceforge.net/DTD/sodipodi-0.dtd"
   xmlns:inkscape="http://www.inkscape.org/namespaces/inkscape"
   width="128"
   height="128"
   id="svg2"
   sodipodi:version="0.32"
   inkscape:version="0.48.1 r9760"
   version="1.0"
   sodipodi:docname="im-gadu-gadu.svgz"
   inkscape:output_extension="org.inkscape.output.svgz.inkscape"
   inkscape:export-filename="/home/pinheiro/pics/oxygen-icons/scalable/actions/small/32x32/im-gadu-gadu.png"
   inkscape:export-xdpi="90"
   inkscape:export-ydpi="90">
  <defs
     id="defs4">
    <linearGradient
       id="linearGradient3857"
       inkscape:collect="always">
      <stop
         id="stop3859"
         offset="0"
         style="stop-color:#ffffff;stop-opacity:1;" />
      <stop
         id="stop3861"
         offset="1"
         style="stop-color:#ffffff;stop-opacity:0" />
    </linearGradient>
    <filter
       inkscape:collect="always"
       id="filter5416"
       x="-0.21917803"
       width="1.4383561"
       y="-0.21917814"
       height="1.4383563">
      <feGaussianBlur
         inkscape:collect="always"
         stdDeviation="1.4611876"
         id="feGaussianBlur5418" />
    </filter>
    <radialGradient
       inkscape:collect="always"
       xlink:href="#linearGradient3857"
       id="radialGradient5424"
       gradientUnits="userSpaceOnUse"
       gradientTransform="matrix(0.70743936,0.70677405,-0.99807448,0.99901401,48.73805,-79.148369)"
       cx="112.00771"
       cy="15.99981"
       fx="112.00771"
       fy="15.99981"
       r="8.0077057" />
    <radialGradient
       inkscape:collect="always"
       xlink:href="#linearGradient3857"
       id="radialGradient32222"
       gradientUnits="userSpaceOnUse"
       gradientTransform="matrix(0.70727305,0.70694048,-1.9971123,1.9980518,64.741093,-95.151426)"
       cx="112.00771"
       cy="15.99981"
       fx="112.00771"
       fy="15.99981"
       r="8.0077057" />
    <radialGradient
       inkscape:collect="always"
       xlink:href="#linearGradient3857"
       id="radialGradient32224"
       gradientUnits="userSpaceOnUse"
       gradientTransform="matrix(0.70727305,0.70694048,-1.9971123,1.9980518,64.741093,-95.151426)"
       cx="112.00771"
       cy="15.99981"
       fx="112.00771"
       fy="15.99981"
       r="8.0077057" />
    <radialGradient
       inkscape:collect="always"
       xlink:href="#linearGradient3857"
       id="radialGradient32226"
       gradientUnits="userSpaceOnUse"
       gradientTransform="matrix(0.70727305,0.70694048,-1.9971123,1.9980518,64.741093,-95.151426)"
       cx="112.00771"
       cy="15.99981"
       fx="112.00771"
       fy="15.99981"
       r="8.0077057" />
    <radialGradient
       inkscape:collect="always"
       xlink:href="#linearGradient3857"
       id="radialGradient32230"
       gradientUnits="userSpaceOnUse"
       gradientTransform="matrix(0.70727305,0.70694048,-1.9971123,1.9980518,64.741093,-95.151426)"
       cx="112.00771"
       cy="15.99981"
       fx="112.00771"
       fy="15.99981"
       r="8.0077057" />
    <linearGradient
       id="linearGradient26434">
      <stop
         style="stop-color:#aa8610;stop-opacity:1;"
         offset="0"
         id="stop26436" />
      <stop
         style="stop-color:#e3ad00;stop-opacity:0;"
         offset="1"
         id="stop26438" />
    </linearGradient>
    <linearGradient
       id="linearGradient3649-2">
      <stop
         style="stop-color:#f7f4f4;stop-opacity:1;"
         offset="0"
         id="stop3651-7-2" />
      <stop
         style="stop-color:#5c4a4a;stop-opacity:1"
         offset="1"
         id="stop3653-6" />
    </linearGradient>
    <linearGradient
       id="linearGradient3637-8">
      <stop
         style="stop-color:#ffffff;stop-opacity:0;"
         offset="0"
         id="stop3639-7" />
      <stop
         id="stop3645-1"
         offset="0.5"
         style="stop-color:#f2efef;stop-opacity:0;" />
      <stop
         style="stop-color:#fcdd84;stop-opacity:0;"
         offset="0.81488997"
         id="stop3647-7" />
      <stop
         id="stop3657-2"
         offset="0.89840978"
         style="stop-color:#f0e4b9;stop-opacity:0.49803922;" />
      <stop
         style="stop-color:#ecebb5;stop-opacity:1;"
         offset="1"
         id="stop3641-7" />
    </linearGradient>
    <linearGradient
       inkscape:collect="always"
       id="linearGradient3353-5">
      <stop
         style="stop-color:#ffffff;stop-opacity:1;"
         offset="0"
         id="stop3355-8-0" />
      <stop
         style="stop-color:#ffffff;stop-opacity:0;"
         offset="1"
         id="stop3357-9-4" />
    </linearGradient>
    <filter
       inkscape:collect="always"
       id="filter3733-4">
      <feGaussianBlur
         inkscape:collect="always"
         stdDeviation="1.3088738"
         id="feGaussianBlur3735-9" />
    </filter>
    <clipPath
       clipPathUnits="userSpaceOnUse"
       id="clipPath3739-6">
      <path
         d="M 88,37.27911 A 29.958668,29.958668 0 1 1 28.082664,37.27911 A 29.958668,29.958668 0 1 1 88,37.27911 z"
         sodipodi:ry="29.958668"
         sodipodi:rx="29.958668"
         sodipodi:cy="37.27911"
         sodipodi:cx="58.041332"
         id="path3741-6"
         style="opacity:1;fill:url(#radialGradient3743-2);fill-opacity:1;stroke:none;stroke-width:3.40000010000000019;stroke-linecap:round;stroke-linejoin:round;stroke-miterlimit:4;stroke-dasharray:none;stroke-dashoffset:0;stroke-opacity:1"
         sodipodi:type="arc" />
    </clipPath>
    <radialGradient
       inkscape:collect="always"
       xlink:href="#linearGradient3649-2"
       id="radialGradient3743-2"
       gradientUnits="userSpaceOnUse"
       gradientTransform="matrix(0.8355412,0,0,0.8355412,9.54541,6.1308791)"
       cx="63.491623"
       cy="32.737198"
       fx="71.005272"
       fy="16.636555"
       r="29.958668" />
    <filter
       inkscape:collect="always"
       id="filter4092-8"
       x="-0.087538233"
       width="1.1750765"
       y="-0.27136852"
       height="1.542737">
      <feGaussianBlur
         inkscape:collect="always"
         stdDeviation="0.60683384"
         id="feGaussianBlur4094-9" />
    </filter>
    <linearGradient
       id="linearGradient13187">
      <stop
         style="stop-color:#ffffff;stop-opacity:0;"
         offset="0"
         id="stop13189" />
      <stop
         id="stop13191"
         offset="0.5"
         style="stop-color:#f2efef;stop-opacity:0;" />
      <stop
         style="stop-color:#675a19;stop-opacity:0;"
         offset="0.86730784"
         id="stop13193" />
      <stop
         id="stop13195"
         offset="0.92809278"
         style="stop-color:#f0e2b9;stop-opacity:0.49803922;" />
      <stop
         style="stop-color:#fff0a2;stop-opacity:1;"
         offset="1"
         id="stop13197" />
    </linearGradient>
    <linearGradient
       id="linearGradient13201">
      <stop
         id="stop13203"
         offset="0"
         style="stop-color:#f9f8cd;stop-opacity:1;" />
      <stop
         style="stop-color:#e2df87;stop-opacity:1;"
         offset="0.2265625"
         id="stop13205" />
      <stop
         style="stop-color:#eeb81f;stop-opacity:1;"
         offset="0.6350528"
         id="stop13207" />
      <stop
         id="stop13209"
         offset="1"
         style="stop-color:#a96d00;stop-opacity:1" />
    </linearGradient>
    <linearGradient
       id="linearGradient13824">
      <stop
         id="stop13826"
         offset="0"
         style="stop-color:#ff5900;stop-opacity:1;" />
      <stop
         id="stop13828"
         offset="1"
         style="stop-color:#520000;stop-opacity:1" />
    </linearGradient>
    <linearGradient
       inkscape:collect="always"
       xlink:href="#linearGradient13824"
       id="linearGradient4337"
       gradientUnits="userSpaceOnUse"
       x1="282.65961"
       y1="8.0030003"
       x2="323.38687"
       y2="159.99921" />
    <radialGradient
       inkscape:collect="always"
       xlink:href="#linearGradient13201"
       id="radialGradient4339"
       gradientUnits="userSpaceOnUse"
       gradientTransform="matrix(1.0164983,0,0,1.0164983,-1.2540517,-0.41396973)"
       cx="59.679672"
       cy="36.167953"
       fx="67.193321"
       fy="20.06731"
       r="29.958668" />
    <radialGradient
       inkscape:collect="always"
       xlink:href="#linearGradient3353-5"
       id="radialGradient4341"
       gradientUnits="userSpaceOnUse"
       cx="76.61216"
       cy="25.895178"
       fx="76.61216"
       fy="25.895178"
       r="3.8909853" />
    <radialGradient
       inkscape:collect="always"
       xlink:href="#linearGradient3637-8"
       id="radialGradient4343"
       gradientUnits="userSpaceOnUse"
       gradientTransform="matrix(1.0732128,0,0,1.0016658,-3.0892676,-0.94553)"
       cx="59.612423"
       cy="32.667538"
       fx="59.612423"
       fy="32.667538"
       r="29.958668" />
    <radialGradient
       inkscape:collect="always"
       xlink:href="#linearGradient13187"
       id="radialGradient4345"
       gradientUnits="userSpaceOnUse"
       gradientTransform="matrix(1.0732128,0,0,1.0016658,-3.0892676,-0.94553)"
       cx="55.369141"
       cy="36.077316"
       fx="54.83873"
       fy="18.270697"
       r="29.958668" />
    <linearGradient
       inkscape:collect="always"
       xlink:href="#linearGradient26434"
       id="linearGradient4347"
       gradientUnits="userSpaceOnUse"
       x1="63.060799"
       y1="49.136856"
       x2="63.060799"
       y2="46.289307" />
    <linearGradient
       inkscape:collect="always"
       xlink:href="#linearGradient13824"
       id="linearGradient4377"
       x1="439.9548"
       y1="-31.98805"
       x2="439.9548"
       y2="106.67515"
       gradientUnits="userSpaceOnUse" />
    <filter
       inkscape:collect="always"
       id="filter4383">
      <feGaussianBlur
         inkscape:collect="always"
         stdDeviation="1.061028"
         id="feGaussianBlur4385" />
    </filter>
    <clipPath
       clipPathUnits="userSpaceOnUse"
       id="clipPath4387">
      <path
         inkscape:connector-curvature="0"
         style="fill:url(#linearGradient4391);fill-opacity:1;stroke:none"
         d="m 442.57975,29.34375 c -1.4652,0 -2.625,1.159801 -2.625,2.625 l 0,11.09375 c -6.32387,0.901453 -12.14344,3.375877 -17.03125,7.03125 l -7.8125,-7.8125 c -1.03605,-1.036052 -2.71395,-1.036052 -3.75,0 l -3.8125,3.78125 c -1.03605,1.036052 -1.03605,2.713948 0,3.75 l 7.8125,7.8125 c -0.005,0.0066 0.005,0.02461 0,0.03125 -3.64931,4.879704 -6.12605,10.688317 -7.03125,17 l -11.0625,0 c -1.4652,0 -2.65625,1.191051 -2.65625,2.65625 l 0,5.375 c 0,1.465199 1.19105,2.65625 2.65625,2.65625 l 11.0625,0 c 0.9052,6.311683 3.38194,12.120296 7.03125,17 0.005,0.007 -0.005,0.0246 0,0.0313 l -7.8125,7.8125 c -1.03605,1.03605 -1.03605,2.71395 0,3.75 l 3.8125,3.78125 c 1.03605,1.03605 2.71395,1.03605 3.75,0 l 7.78125,-7.78125 c 0.006,0.005 0.0248,-0.005 0.0313,0 4.8886,3.65596 10.7062,6.13016 17.03125,7.03125 l 0,11.0625 c 0,1.4652 1.1598,2.625 2.625,2.625 l 5.375,0 c 1.4652,0 2.65625,-1.1598 2.65625,-2.625 l 0,-11.09375 c 6.3268,-0.90737 12.14429,-3.3676 17.03125,-7.03125 l 7.8125,7.8125 c 1.03605,1.03605 2.71395,1.03605 3.75,0 l 3.8125,-3.78125 c 1.03605,-1.03605 1.03605,-2.71395 0,-3.75 l -7.8125,-7.8125 0,-0.0313 c 3.64931,-4.879704 6.0948,-10.688317 7,-17 l 11.09375,0 c 1.4652,0 2.65625,-1.191051 2.65625,-2.65625 l 0,-5.375 c 0,-1.465199 -1.19105,-2.65625 -2.65625,-2.65625 l -11.09375,0 c -0.9052,-6.311683 -3.35069,-12.120296 -7,-17 -0.005,-0.0065 0.005,-0.02476 0,-0.03125 l 7.8125,-7.8125 c 1.03605,-1.036052 1.03605,-2.713948 0,-3.75 l -3.81255,-3.78125 c -1.03605,-1.036052 -2.71395,-1.036052 -3.75,0 l -7.8125,7.8125 -0.0313,0 c -4.87993,-3.64948 -10.68797,-6.126151 -17,-7.03125 l 0,-11.09375 c 0,-1.465199 -1.19105,-2.625 -2.65625,-2.625 l -5.375,0 z"
         id="path4389" />
    </clipPath>
    <linearGradient
       inkscape:collect="always"
       xlink:href="#linearGradient13824"
       id="linearGradient4391"
       gradientUnits="userSpaceOnUse"
       gradientTransform="translate(143.95475,0)"
       x1="282.65961"
       y1="8.0030003"
       x2="323.38687"
       y2="159.99921" />
  </defs>
  <sodipodi:namedview
     id="base"
     pagecolor="#ffffff"
     bordercolor="#666666"
     borderopacity="1.0"
     gridtolerance="10000"
     guidetolerance="10"
     objecttolerance="10"
     inkscape:pageopacity="0.0"
     inkscape:pageshadow="2"
     inkscape:zoom="3.4029514"
     inkscape:cx="75.871792"
     inkscape:cy="73.548615"
     inkscape:document-units="px"
     inkscape:current-layer="layer1"
     width="128px"
     height="128px"
     showgrid="true"
     inkscape:window-width="1040"
     inkscape:window-height="728"
     inkscape:window-x="137"
     inkscape:window-y="461"
     showguides="true"
     inkscape:guide-bbox="true"
     inkscape:snap-nodes="true"
     inkscape:snap-bbox="true"
     inkscape:window-maximized="0"
     inkscape:snap-global="true">
    <inkscape:grid
       id="GridFromPre046Settings"
       type="xygrid"
       originx="0px"
       originy="0px"
       spacingx="2.6666px"
       spacingy="2.6666px"
       color="#0000ff"
       empcolor="#0000ff"
       opacity="0.2"
       empopacity="0.4"
       empspacing="2"
       visible="true"
       enabled="true" />
  </sodipodi:namedview>
  <metadata
     id="metadata7">
    <rdf:RDF>
      <cc:Work
         rdf:about="">
        <dc:format>image/svg+xml</dc:format>
        <dc:type
           rdf:resource="http://purl.org/dc/dcmitype/StillImage" />
        <dc:title></dc:title>
      </cc:Work>
    </rdf:RDF>
  </metadata>
  <g
     inkscape:label="Layer 1"
     inkscape:groupmode="layer"
     id="layer1">
    <rect
       style="opacity:0.01000001;fill:#000000;fill-opacity:0.00392157;stroke:none"
       id="rect12093"
       width="127.9968"
       height="127.9968"
       x="0"
       y="0.0031999999"
       inkscape:export-xdpi="135.00337"
       inkscape:export-ydpi="135.00337" />
    <g
       id="g4323"
       transform="matrix(1.2098308,0,0,1.2098308,-300.53032,-32.831173)"
       clip-path="none">
      <path
         id="rect4299"
         d="m 298.625,29.34375 c -1.4652,0 -2.625,1.159801 -2.625,2.625 l 0,11.09375 c -6.32387,0.901453 -12.14344,3.375877 -17.03125,7.03125 l -7.8125,-7.8125 c -1.03605,-1.036052 -2.71395,-1.036052 -3.75,0 l -3.8125,3.78125 c -1.03605,1.036052 -1.03605,2.713948 0,3.75 l 7.8125,7.8125 c -0.005,0.0066 0.005,0.02461 0,0.03125 -3.64931,4.879704 -6.12605,10.688317 -7.03125,17 l -11.0625,0 c -1.4652,0 -2.65625,1.191051 -2.65625,2.65625 l 0,5.375 c 0,1.465199 1.19105,2.65625 2.65625,2.65625 l 11.0625,0 c 0.9052,6.311683 3.38194,12.120296 7.03125,17 0.005,0.007 -0.005,0.0246 0,0.0313 l -7.8125,7.8125 c -1.03605,1.03605 -1.03605,2.71395 0,3.75 l 3.8125,3.78125 c 1.03605,1.03605 2.71395,1.03605 3.75,0 l 7.78125,-7.78125 c 0.006,0.005 0.0248,-0.005 0.0313,0 4.8886,3.65596 10.7062,6.13016 17.03125,7.03125 l 0,11.0625 c 0,1.4652 1.1598,2.625 2.625,2.625 l 5.375,0 c 1.4652,0 2.65625,-1.1598 2.65625,-2.625 l 0,-11.09375 c 6.3268,-0.90737 12.14429,-3.3676 17.03125,-7.03125 l 7.8125,7.8125 c 1.03605,1.03605 2.71395,1.03605 3.75,0 l 3.8125,-3.78125 c 1.03605,-1.03605 1.03605,-2.71395 0,-3.75 l -7.8125,-7.8125 0,-0.0313 c 3.64931,-4.879704 6.0948,-10.688317 7,-17 l 11.09375,0 c 1.4652,0 2.65625,-1.191051 2.65625,-2.65625 l 0,-5.375 c 0,-1.465199 -1.19105,-2.65625 -2.65625,-2.65625 l -11.09375,0 c -0.9052,-6.311683 -3.35069,-12.120296 -7,-17 -0.005,-0.0065 0.005,-0.02476 0,-0.03125 l 7.8125,-7.8125 c 1.03605,-1.036052 1.03605,-2.713948 0,-3.75 L 335.25,42.28125 c -1.03605,-1.036052 -2.71395,-1.036052 -3.75,0 l -7.8125,7.8125 -0.0313,0 c -4.87993,-3.64948 -10.68797,-6.126151 -17,-7.03125 l 0,-11.09375 c 0,-1.465199 -1.19105,-2.625 -2.65625,-2.625 l -5.375,0 z"
         style="fill:url(#linearGradient4337);fill-opacity:1;stroke:none"
         inkscape:connector-curvature="0" />
      <g
         transform="matrix(1.0239456,0,0,1.0239456,-6.124176,0.4423525)"
         id="g4270">
        <g
           id="g13211"
           transform="matrix(1.6134389,0,0,1.6134897,-132.06009,32.367543)">
          <path
             transform="matrix(0.65240024,0,0,0.65240024,230.07702,3.7516027)"
             d="m 88,37.27911 c 0,16.545715 -13.412952,29.958668 -29.958668,29.958668 -16.545715,0 -29.958668,-13.412953 -29.958668,-29.958668 0,-16.545715 13.412953,-29.9586678 29.958668,-29.9586678 C 74.587048,7.3204422 88,20.733395 88,37.27911 z"
             sodipodi:ry="29.958668"
             sodipodi:rx="29.958668"
             sodipodi:cy="37.27911"
             sodipodi:cx="58.041332"
             id="path2563-4"
             style="fill:url(#radialGradient4339);fill-opacity:1;stroke:none"
             sodipodi:type="arc" />
          <path
             transform="matrix(0.55202058,-0.19594585,0.21823594,0.61481635,229.57426,22.012558)"
             d="m 80.503145,25.895178 c 0,2.148932 -1.742053,3.890985 -3.890985,3.890985 -2.148932,0 -3.890986,-1.742053 -3.890986,-3.890985 0,-2.148932 1.742054,-3.890985 3.890986,-3.890985 2.148932,0 3.890985,1.742053 3.890985,3.890985 z"
             sodipodi:ry="3.8909853"
             sodipodi:rx="3.8909853"
             sodipodi:cy="25.895178"
             sodipodi:cx="76.61216"
             id="path3343-4"
             style="fill:url(#radialGradient4341);fill-opacity:1;stroke:none"
             sodipodi:type="arc" />
          <path
             clip-path="url(#clipPath3739-6)"
             sodipodi:end="4.7234523"
             sodipodi:start="0"
             sodipodi:type="arc"
             style="opacity:0.40707966;fill:url(#radialGradient4343);fill-opacity:1;stroke:none;filter:url(#filter3733-4)"
             id="path3635-4"
             sodipodi:cx="58.041332"
             sodipodi:cy="37.27911"
             sodipodi:rx="28.834606"
             sodipodi:ry="28.834606"
             d="m 86.875938,37.27911 c 0,15.924913 -12.909692,28.834606 -28.834606,28.834606 -15.924913,0 -28.834606,-12.909693 -28.834606,-28.834606 0,-15.924913 12.909693,-28.8346062 28.834606,-28.8346062 0.106336,0 0.212671,5.882e-4 0.319,0.00176 l -0.319,28.8328416 z"
             transform="matrix(0.65240024,0,0,0.65240024,230.07702,3.7516027)" />
          <path
             transform="matrix(0.65240024,0,0,0.65240024,229.99113,3.7516027)"
             d="m 87.325563,37.27911 c 0,16.173234 -13.110996,29.284231 -29.284231,29.284231 -16.173234,0 -29.284231,-13.110997 -29.284231,-29.284231 0,-16.173234 13.110997,-29.2842312 29.284231,-29.2842312 16.173235,0 29.284231,13.1109972 29.284231,29.2842312 z"
             sodipodi:ry="29.284231"
             sodipodi:rx="29.284231"
             sodipodi:cy="37.27911"
             sodipodi:cx="58.041332"
             id="path3745-7"
             style="opacity:0.3539823;fill:url(#radialGradient4345);fill-opacity:1;stroke:none;filter:url(#filter3733-4)"
             sodipodi:type="arc"
             clip-path="url(#clipPath3739-6)" />
          <path
             sodipodi:type="arc"
             style="opacity:0.22277228;fill:url(#linearGradient4347);fill-opacity:1;stroke:none;filter:url(#filter4092-8)"
             id="path4013-6"
             sodipodi:cx="63.060799"
             sodipodi:cy="48.033543"
             sodipodi:rx="8.3186579"
             sodipodi:ry="2.6834381"
             d="m 71.379457,48.033543 c 0,1.482022 -3.72439,2.683438 -8.318658,2.683438 -4.594268,0 -8.318658,-1.201416 -8.318658,-2.683438 0,-1.482022 3.72439,-2.683438 8.318658,-2.683438 4.594268,0 8.318658,1.201416 8.318658,2.683438 z"
             transform="matrix(0.58075825,0,0,0.60926132,231.41985,15.769314)" />
        </g>
        <g
           id="g4226"
           transform="matrix(0.82635547,0,0,0.82635547,53.965361,11.852935)">
          <path
             transform="matrix(1,0,0,0.73287079,201.58567,19.005983)"
             d="m 87.064938,65.350647 c 0,2.582111 -1.581539,4.675325 -3.532467,4.675325 -1.950928,0 -3.532468,-2.093214 -3.532468,-4.675325 0,-2.582111 1.58154,-4.675325 3.532468,-4.675325 1.950928,0 3.532467,2.093214 3.532467,4.675325 z"
             sodipodi:ry="4.6753249"
             sodipodi:rx="3.5324676"
             sodipodi:cy="65.350647"
             sodipodi:cx="83.532471"
             id="path5814"
             style="fill:#000000;fill-opacity:1;stroke:none"
             sodipodi:type="arc" />
          <path
             sodipodi:type="arc"
             style="fill:#000000;fill-opacity:1;stroke:none"
             id="path5824"
             sodipodi:cx="83.532471"
             sodipodi:cy="65.350647"
             sodipodi:rx="3.5324676"
             sodipodi:ry="4.6753249"
             d="m 87.064938,65.350647 c 0,2.582111 -1.581539,4.675325 -3.532467,4.675325 -1.950928,0 -3.532468,-2.093214 -3.532468,-4.675325 0,-2.582111 1.58154,-4.675325 3.532468,-4.675325 1.950928,0 3.532467,2.093214 3.532467,4.675325 z"
             transform="matrix(1,0,0,0.73287079,227.25576,19.005983)" />
        </g>
        <path
           sodipodi:type="arc"
           style="fill:#ffffff;fill-opacity:0.07638891;stroke:#000000;stroke-width:2.7201755;stroke-linecap:round;stroke-linejoin:round;stroke-miterlimit:4;stroke-opacity:1;stroke-dasharray:none"
           id="path3456"
           sodipodi:cx="296.06653"
           sodipodi:cy="83.47982"
           sodipodi:rx="15.427784"
           sodipodi:ry="15.427784"
           d="m 309.42738,91.193712 c -4.26026,7.378996 -13.69575,9.907228 -21.07474,5.646961 -2.34532,-1.354071 -4.29289,-3.301641 -5.64696,-5.646961"
           sodipodi:start="0.52359878"
           sodipodi:end="2.6179939"
           sodipodi:open="true"
           transform="matrix(1.2032312,0,0,1.2032312,-56.055878,-26.405423)" />
      </g>
      <path
         id="path4361"
         d="m 442.57975,29.34375 c -1.4652,0 -2.625,1.159801 -2.625,2.625 l 0,11.09375 c -6.32387,0.901453 -12.14344,3.375877 -17.03125,7.03125 l -7.8125,-7.8125 c -1.03605,-1.036052 -2.71395,-1.036052 -3.75,0 l -3.8125,3.78125 c -1.03605,1.036052 -1.03605,2.713948 0,3.75 l 7.8125,7.8125 c -0.005,0.0066 0.005,0.02461 0,0.03125 -3.64931,4.879704 -6.12605,10.688317 -7.03125,17 l -11.0625,0 c -1.4652,0 -2.65625,1.191051 -2.65625,2.65625 l 0,5.375 c 0,1.465199 1.19105,2.65625 2.65625,2.65625 l 11.0625,0 c 0.9052,6.311683 3.38194,12.120296 7.03125,17 0.005,0.007 -0.005,0.0246 0,0.0313 l -7.8125,7.8125 c -1.03605,1.03605 -1.03605,2.71395 0,3.75 l 3.8125,3.78125 c 1.03605,1.03605 2.71395,1.03605 3.75,0 l 7.78125,-7.78125 c 0.006,0.005 0.0248,-0.005 0.0313,0 4.8886,3.65596 10.7062,6.13016 17.03125,7.03125 l 0,11.0625 c 0,1.4652 1.1598,2.625 2.625,2.625 l 5.375,0 c 1.4652,0 2.65625,-1.1598 2.65625,-2.625 l 0,-11.09375 c 6.3268,-0.90737 12.14429,-3.3676 17.03125,-7.03125 l 7.8125,7.8125 c 1.03605,1.03605 2.71395,1.03605 3.75,0 l 3.8125,-3.78125 c 1.03605,-1.03605 1.03605,-2.71395 0,-3.75 l -7.8125,-7.8125 0,-0.0313 c 3.64931,-4.879704 6.0948,-10.688317 7,-17 l 11.09375,0 c 1.4652,0 2.65625,-1.191051 2.65625,-2.65625 l 0,-5.375 c 0,-1.465199 -1.19105,-2.65625 -2.65625,-2.65625 l -11.09375,0 c -0.9052,-6.311683 -3.35069,-12.120296 -7,-17 -0.005,-0.0065 0.005,-0.02476 0,-0.03125 l 7.8125,-7.8125 c 1.03605,-1.036052 1.03605,-2.713948 0,-3.75 l -3.81255,-3.78125 c -1.03605,-1.036052 -2.71395,-1.036052 -3.75,0 l -7.8125,7.8125 -0.0313,0 c -4.87993,-3.64948 -10.68797,-6.126151 -17,-7.03125 l 0,-11.09375 c 0,-1.465199 -1.19105,-2.625 -2.65625,-2.625 l -5.375,0 z"
         style="fill:none;stroke:url(#linearGradient4377);stroke-width:3.4000001;stroke-miterlimit:4;stroke-opacity:1;stroke-dasharray:none;filter:url(#filter4383)"
         inkscape:connector-curvature="0"
         clip-path="url(#clipPath4387)"
         transform="translate(-144,0)" />
    </g>
    <path
       inkscape:connector-curvature="0"
       style="fill:#ffffff;fill-opacity:0.75688076;fill-rule:nonzero;stroke:none"
       d="m 223.98555,-331.69126 0,-0.81738 0,0.81738 z"
       id="path6503-6"
       sodipodi:nodetypes="ccc"
       inkscape:r_cx="true"
       inkscape:r_cy="true" />
    <path
       inkscape:connector-curvature="0"
       style="fill:#ffffff;fill-opacity:0.75688076;fill-rule:nonzero;stroke:none"
       d="m 126.31109,-286.09789 0,-2.79471 0,2.79471 z"
       id="path6505"
       sodipodi:nodetypes="ccc"
       inkscape:r_cx="true"
       inkscape:r_cy="true" />
    <path
       inkscape:connector-curvature="0"
       style="fill:#ffffff;fill-opacity:0.75688076;fill-rule:nonzero;stroke:none"
       d="m 194.03436,-491.61961 0,-0.81738 0,0.81738 z"
       id="path7553"
       sodipodi:nodetypes="ccc"
       inkscape:r_cx="true"
       inkscape:r_cy="true" />
    <g
       id="g3783"
       transform="matrix(0.3221932,0,0,0.32220334,259.16571,33.777082)"
       style="display:inline">
      <g
         id="g3744" />
    </g>
    <use
       style="display:inline"
       height="336"
       width="256"
       transform="matrix(0.32219319,0,0,0.32220334,66.090065,33.858948)"
       id="use3781"
       xlink:href="#g3744"
       y="0"
       x="0" />
    <use
       x="0"
       y="0"
       xlink:href="#g3744"
       id="use5883"
       transform="matrix(0.32219319,0,0,0.32220334,82.032109,33.858948)"
       width="256"
       height="336"
       style="display:inline" />
  </g>
</svg>
