<?xml version="1.0" encoding="UTF-8" standalone="no"?>
<!-- Created with Inkscape (http://www.inkscape.org/) -->

<svg
   xmlns:dc="http://purl.org/dc/elements/1.1/"
   xmlns:cc="http://creativecommons.org/ns#"
   xmlns:rdf="http://www.w3.org/1999/02/22-rdf-syntax-ns#"
   xmlns:svg="http://www.w3.org/2000/svg"
   xmlns="http://www.w3.org/2000/svg"
   xmlns:xlink="http://www.w3.org/1999/xlink"
   xmlns:sodipodi="http://sodipodi.sourceforge.net/DTD/sodipodi-0.dtd"
   xmlns:inkscape="http://www.inkscape.org/namespaces/inkscape"
   width="128"
   height="128"
   id="svg2"
   sodipodi:version="0.32"
   inkscape:version="0.48.1 r9760"
   version="1.0"
   sodipodi:docname="im-google-talk.svgz"
   inkscape:output_extension="org.inkscape.output.svgz.inkscape"
   inkscape:export-filename="/home/pinheiro/pics/oxygen-icons/scalable/actions/small/32x32/im-protocol-msn.png"
   inkscape:export-xdpi="90"
   inkscape:export-ydpi="90">
  <defs
     id="defs4">
    <linearGradient
       id="linearGradient3857"
       inkscape:collect="always">
      <stop
         id="stop3859"
         offset="0"
         style="stop-color:#ffffff;stop-opacity:1;" />
      <stop
         id="stop3861"
         offset="1"
         style="stop-color:#ffffff;stop-opacity:0" />
    </linearGradient>
    <radialGradient
       inkscape:collect="always"
       xlink:href="#linearGradient3857"
       id="radialGradient5424"
       gradientUnits="userSpaceOnUse"
       gradientTransform="matrix(0.70743936,0.70677405,-0.99807448,0.99901401,48.73805,-79.148369)"
       cx="112.00771"
       cy="15.99981"
       fx="112.00771"
       fy="15.99981"
       r="8.0077057" />
    <radialGradient
       inkscape:collect="always"
       xlink:href="#linearGradient3857"
       id="radialGradient32220"
       gradientUnits="userSpaceOnUse"
       gradientTransform="matrix(0.70727305,0.70694048,-1.9971123,1.9980518,64.741093,-95.151426)"
       cx="112.00771"
       cy="15.99981"
       fx="112.00771"
       fy="15.99981"
       r="8.0077057" />
    <radialGradient
       inkscape:collect="always"
       xlink:href="#linearGradient3857"
       id="radialGradient32222"
       gradientUnits="userSpaceOnUse"
       gradientTransform="matrix(0.70727305,0.70694048,-1.9971123,1.9980518,64.741093,-95.151426)"
       cx="112.00771"
       cy="15.99981"
       fx="112.00771"
       fy="15.99981"
       r="8.0077057" />
    <radialGradient
       inkscape:collect="always"
       xlink:href="#linearGradient3857"
       id="radialGradient32224"
       gradientUnits="userSpaceOnUse"
       gradientTransform="matrix(0.70727305,0.70694048,-1.9971123,1.9980518,64.741093,-95.151426)"
       cx="112.00771"
       cy="15.99981"
       fx="112.00771"
       fy="15.99981"
       r="8.0077057" />
    <radialGradient
       inkscape:collect="always"
       xlink:href="#linearGradient3857"
       id="radialGradient32226"
       gradientUnits="userSpaceOnUse"
       gradientTransform="matrix(0.70727305,0.70694048,-1.9971123,1.9980518,64.741093,-95.151426)"
       cx="112.00771"
       cy="15.99981"
       fx="112.00771"
       fy="15.99981"
       r="8.0077057" />
    <radialGradient
       inkscape:collect="always"
       xlink:href="#linearGradient3857"
       id="radialGradient32228"
       gradientUnits="userSpaceOnUse"
       gradientTransform="matrix(0.70727305,0.70694048,-1.9971123,1.9980518,64.741093,-95.151426)"
       cx="112.00771"
       cy="15.99981"
       fx="112.00771"
       fy="15.99981"
       r="8.0077057" />
    <radialGradient
       inkscape:collect="always"
       xlink:href="#linearGradient3857"
       id="radialGradient32230"
       gradientUnits="userSpaceOnUse"
       gradientTransform="matrix(0.70727305,0.70694048,-1.9971123,1.9980518,64.741093,-95.151426)"
       cx="112.00771"
       cy="15.99981"
       fx="112.00771"
       fy="15.99981"
       r="8.0077057" />
    <radialGradient
       inkscape:collect="always"
       xlink:href="#linearGradient3857"
       id="radialGradient32403"
       gradientUnits="userSpaceOnUse"
       gradientTransform="matrix(1.3086619,0,0,0.65227042,-19.755964,30.291424)"
       cx="64"
       cy="136"
       fx="64"
       fy="136"
       r="48" />
    <linearGradient
       id="linearGradient2949">
      <stop
         id="stop2951-1"
         offset="0"
         style="stop-color:#cddff9;stop-opacity:1;" />
      <stop
         style="stop-color:#92aed7;stop-opacity:1;"
         offset="0.2265625"
         id="stop4314" />
      <stop
         style="stop-color:#587eb5;stop-opacity:1;"
         offset="0.5"
         id="stop2953-3" />
      <stop
         id="stop2955-80"
         offset="1"
         style="stop-color:#0c2a58;stop-opacity:1;" />
    </linearGradient>
    <filter
       inkscape:collect="always"
       id="filter4081">
      <feGaussianBlur
         inkscape:collect="always"
         stdDeviation="1.3481658"
         id="feGaussianBlur4083" />
    </filter>
    <linearGradient
       id="linearGradient33721-8">
      <stop
         style="stop-color:#eaf7cf;stop-opacity:1;"
         offset="0"
         id="stop33723-5" />
      <stop
         id="stop33725-0"
         offset="0.2265625"
         style="stop-color:#ced7a1;stop-opacity:1;" />
      <stop
         id="stop33727-9"
         offset="0.5"
         style="stop-color:#9eb267;stop-opacity:1;" />
      <stop
         style="stop-color:#3d5a11;stop-opacity:1;"
         offset="1"
         id="stop33729-9" />
    </linearGradient>
    <linearGradient
       id="linearGradient13201">
      <stop
         id="stop13203"
         offset="0"
         style="stop-color:#f9f8cd;stop-opacity:1;" />
      <stop
         style="stop-color:#e2df87;stop-opacity:1;"
         offset="0.2265625"
         id="stop13205" />
      <stop
         style="stop-color:#eeb81f;stop-opacity:1;"
         offset="0.6350528"
         id="stop13207" />
      <stop
         id="stop13209"
         offset="1"
         style="stop-color:#a96d00;stop-opacity:1" />
    </linearGradient>
    <linearGradient
       id="linearGradient13824">
      <stop
         id="stop13826"
         offset="0"
         style="stop-color:#ff5900;stop-opacity:1;" />
      <stop
         id="stop13828"
         offset="1"
         style="stop-color:#520000;stop-opacity:1" />
    </linearGradient>
    <filter
       inkscape:collect="always"
       id="filter4680">
      <feGaussianBlur
         inkscape:collect="always"
         stdDeviation="1.3116501"
         id="feGaussianBlur4682" />
    </filter>
    <filter
       inkscape:collect="always"
       id="filter4700"
       x="-0.12235507"
       width="1.2447101"
       y="-0.01794818"
       height="1.0358964">
      <feGaussianBlur
         inkscape:collect="always"
         stdDeviation="1.3764946"
         id="feGaussianBlur4702" />
    </filter>
    <filter
       inkscape:collect="always"
       id="filter4720">
      <feGaussianBlur
         inkscape:collect="always"
         stdDeviation="1.2743204"
         id="feGaussianBlur4722" />
    </filter>
    <filter
       inkscape:collect="always"
       id="filter4730"
       x="-0.13480032"
       width="1.2696006"
       y="-0.17241348"
       height="1.344827">
      <feGaussianBlur
         inkscape:collect="always"
         stdDeviation="4.6049844"
         id="feGaussianBlur4732" />
    </filter>
    <clipPath
       clipPathUnits="userSpaceOnUse"
       id="clipPath4736">
      <path
         sodipodi:nodetypes="cccccssccsscccccc"
         inkscape:connector-curvature="0"
         id="path4738"
         d="m 805.1875,-84.472187 0,45.5625 -17.0625,0 0,23.5 17.0625,0 0,72.59375 c 0,21.22731 10.64803,34.53125 32.03125,34.53125 6.75938,0 22.44311,-1.66301 31.59375,-11.03125 l -9.65625,-18.0625 c -3.73065,3.36716 -8.2995,6.07218 -14.25933,5.91883 -7.5524,-0.19433 -8.55317,-6.32319 -8.55317,-11.35633 l 0,-72.59375 28.1875,0 0,-23.5 -28.1875,0 0,-45.5625 z"
         style="fill:url(#radialGradient4740);fill-opacity:1;stroke:none" />
    </clipPath>
    <radialGradient
       inkscape:collect="always"
       xlink:href="#linearGradient2949"
       id="radialGradient4740"
       gradientUnits="userSpaceOnUse"
       gradientTransform="matrix(1,0,0,2.1835786,0,-4.2864045)"
       cx="818.49475"
       cy="5.9054346"
       fx="818.49475"
       fy="5.9054346"
       r="40.34375" />
    <filter
       inkscape:collect="always"
       id="filter4755"
       x="-0.11612181"
       width="1.2322436"
       y="-0.24003083"
       height="1.4800617">
      <feGaussianBlur
         inkscape:collect="always"
         stdDeviation="6.1726679"
         id="feGaussianBlur4757" />
    </filter>
    <clipPath
       clipPathUnits="userSpaceOnUse"
       id="clipPath4761">
      <path
         sodipodi:nodetypes="csccssscsssssssccsssccscssccccscsssc"
         inkscape:connector-curvature="0"
         id="path4763"
         d="m 932.96875,-41.878437 c -6.8021,0.17237 -15.22199,2.43627 -20.46875,4.59375 -9.75724,4.01219 -22.69919,13.34913 -30.625,20.125 l 12.9375,15.5625 c 7.25295,-5.87291 14.38225,-11.27428 22.03125,-14.6875 5.64009,-2.51679 14.20015,-3.47 19.40625,-0.875 3.35629,1.67295 5.34375,4.60371 5.34375,8.75 l 0,16.21875 c 0,0 -20.53373,4.22708 -30.46875,7.5 -6.40158,2.10889 -13.15213,3.89123 -18.65625,7.78125 -6.258,4.42283 -12.07638,10.14453 -15.4375,17.03125 -2.85638,5.85254 -3.0869,14.57932 -1.90625,21.625 0.81894,4.88711 1.82051,8.56777 5.28125,14.25 3.7981,6.23614 9.97803,10.32088 15.97037,12.37338 4.26201,1.45983 10.69296,2.44358 15.19806,2.44358 7.35113,0 14.68614,-1.18108 20.40625,-4.40625 5.26785,-3.03042 11.76055,-12.50365 11.76055,-12.50365 0,0 4.4763,10.93541 12.35227,14.28044 3.41299,1.44954 7.16838,2.24082 10.875,2.34375 3.12298,0.0867 6.30967,-0.41282 9.25,-1.46875 5.72357,-2.05543 15.71875,-9.25 15.71875,-9.25 l -6.90625,-14.5625 c -0.14653,0.4396 -6.22051,3.46875 -9.6875,3.84375 -2.66706,0.28847 -4.40305,-2.34385 -4.34375,-4.78125 l 0,-72.71875 c 0,-5.79649 -0.63556,-10.42397 -3.03125,-14.625 -6.93588,-12.16258 -17.64322,-18.56081 -33.6875,-18.84375 -0.43774,-0.008 -0.85903,-0.0115 -1.3125,0 z m 8.625,68.9375 0,30.34375 c -1.91953,1.59454 -3.81982,3.14367 -5.0625,4.03125 -4.86028,3.47144 -10.9355,7.48369 -19.6875,6.90625 -5.99146,-0.27607 -11.14993,-4.17573 -13.0625,-9.6875 -1.92764,-5.5552 -0.38217,-13.7737 2.9375,-17.625 4.85468,-5.63214 12.39556,-8.46683 19.375,-11.03125 4.93172,-1.81204 15.5,-2.9375 15.5,-2.9375 z"
         style="fill:url(#radialGradient4765);fill-opacity:1;stroke:none" />
    </clipPath>
    <radialGradient
       inkscape:collect="always"
       xlink:href="#linearGradient13824"
       id="radialGradient4765"
       gradientUnits="userSpaceOnUse"
       gradientTransform="matrix(1,0,0,1.1295263,0,-3.1687124)"
       cx="933.19635"
       cy="24.463858"
       fx="933.19635"
       fy="24.463858"
       r="58.741142" />
    <radialGradient
       inkscape:collect="always"
       xlink:href="#linearGradient13824"
       id="radialGradient4870"
       gradientUnits="userSpaceOnUse"
       gradientTransform="matrix(0.27579658,0,0,0.31151949,-198.17001,70.499784)"
       cx="933.19635"
       cy="24.463858"
       fx="933.19635"
       fy="24.463858"
       r="58.741142" />
    <radialGradient
       inkscape:collect="always"
       xlink:href="#linearGradient33721-8"
       id="radialGradient4873"
       gradientUnits="userSpaceOnUse"
       gradientTransform="matrix(0.27579658,0,0,0.49567347,-198.17001,72.006607)"
       cx="1093.1562"
       cy="-12.688884"
       fx="1093.1562"
       fy="-12.688884"
       r="54.40625" />
    <radialGradient
       inkscape:collect="always"
       xlink:href="#linearGradient13201"
       id="radialGradient4876"
       gradientUnits="userSpaceOnUse"
       gradientTransform="matrix(0.27579782,0,0,1.6662141,-198.17128,80.518241)"
       cx="1020.6542"
       cy="-6.576828"
       fx="1020.6542"
       fy="-6.576828"
       r="15.574716" />
    <radialGradient
       inkscape:collect="always"
       xlink:href="#linearGradient2949"
       id="radialGradient4879"
       gradientUnits="userSpaceOnUse"
       gradientTransform="matrix(0.27579658,0,0,0.60222351,-198.17001,70.191528)"
       cx="818.49475"
       cy="5.9054346"
       fx="818.49475"
       fy="5.9054346"
       r="40.34375" />
    <radialGradient
       inkscape:collect="always"
       xlink:href="#linearGradient33721-8"
       id="radialGradient4881"
       gradientUnits="userSpaceOnUse"
       gradientTransform="matrix(2.3602888,0.16203794,-0.16820272,2.4500867,-1502.5037,-168.25091)"
       cx="1102.8363"
       cy="-34.929119"
       fx="1102.8363"
       fy="-34.929119"
       r="54.40625" />
    <radialGradient
       inkscape:collect="always"
       xlink:href="#linearGradient13201"
       id="radialGradient4883"
       gradientUnits="userSpaceOnUse"
       gradientTransform="matrix(1.6796737,0,0,10.147636,-690.91559,107.49807)"
       cx="1016.5401"
       cy="-18.10474"
       fx="1023.4678"
       fy="-19.906708"
       r="15.574716" />
    <radialGradient
       inkscape:collect="always"
       xlink:href="#linearGradient13824"
       id="radialGradient4885"
       gradientUnits="userSpaceOnUse"
       gradientTransform="matrix(1.7236903,0,1.0639437e-8,1.7884621,-686.17723,17.58679)"
       cx="948.64246"
       cy="-24.503862"
       fx="948.64246"
       fy="-24.503862"
       r="58.741142" />
    <radialGradient
       inkscape:collect="always"
       xlink:href="#linearGradient2949"
       id="radialGradient4887"
       gradientUnits="userSpaceOnUse"
       gradientTransform="matrix(1.3790212,0.36950762,-0.80684891,3.0112011,-305.46207,-311.61392)"
       cx="811.93329"
       cy="-15.095428"
       fx="810.86768"
       fy="-21.037235"
       r="40.34375" />
  </defs>
  <sodipodi:namedview
     id="base"
     pagecolor="#ffffff"
     bordercolor="#666666"
     borderopacity="1.0"
     gridtolerance="10000"
     guidetolerance="10"
     objecttolerance="10"
     inkscape:pageopacity="0.0"
     inkscape:pageshadow="2"
     inkscape:zoom="2.40625"
     inkscape:cx="78.886349"
     inkscape:cy="21.906851"
     inkscape:document-units="px"
     inkscape:current-layer="layer1"
     width="128px"
     height="128px"
     showgrid="true"
     inkscape:window-width="1040"
     inkscape:window-height="728"
     inkscape:window-x="225"
     inkscape:window-y="215"
     showguides="true"
     inkscape:guide-bbox="true"
     inkscape:snap-nodes="true"
     inkscape:snap-bbox="true"
     inkscape:window-maximized="0"
     inkscape:snap-global="false"
     inkscape:snap-grids="false"
     inkscape:object-paths="true"
     inkscape:bbox-paths="true"
     inkscape:bbox-nodes="true"
     inkscape:snap-bbox-edge-midpoints="true"
     inkscape:snap-bbox-midpoints="true"
     inkscape:object-nodes="true"
     inkscape:snap-intersection-paths="true"
     inkscape:snap-smooth-nodes="true">
    <inkscape:grid
       id="GridFromPre046Settings"
       type="xygrid"
       originx="0px"
       originy="0px"
       spacingx="2.6666px"
       spacingy="2.6666px"
       color="#0000ff"
       empcolor="#0000ff"
       opacity="0.2"
       empopacity="0.4"
       empspacing="2"
       visible="true"
       enabled="true" />
  </sodipodi:namedview>
  <metadata
     id="metadata7">
    <rdf:RDF>
      <cc:Work
         rdf:about="">
        <dc:format>image/svg+xml</dc:format>
        <dc:type
           rdf:resource="http://purl.org/dc/dcmitype/StillImage" />
        <dc:title></dc:title>
      </cc:Work>
    </rdf:RDF>
  </metadata>
  <g
     inkscape:label="Layer 1"
     inkscape:groupmode="layer"
     id="layer1">
    <path
       inkscape:connector-curvature="0"
       style="fill:#ffffff;fill-opacity:0.75688076;fill-rule:nonzero;stroke:none"
       d="m 138.51308,-135.31597 0,-0.81738 0,0.81738 z"
       id="path6503"
       sodipodi:nodetypes="ccc"
       inkscape:r_cx="true"
       inkscape:r_cy="true" />
    <g
       id="g4889"
       transform="matrix(1.1677292,0,0,1.1677292,-18.688112,-13.809672)"
       clip-path="none">
      <path
         sodipodi:nodetypes="cccccssccsscccccc"
         inkscape:connector-curvature="0"
         id="rect3255"
         d="m 23.897955,48.076563 0,12.565982 -4.705777,0 0,6.48122 4.705777,0 0,20.021108 c 0,5.85442 2.936692,9.523602 8.834113,9.523602 1.864213,0 6.189728,-0.458653 8.713446,-3.042382 l -2.663158,-4.981575 c -1.028905,0.928651 -2.288974,1.674687 -3.932678,1.632393 -2.082927,-0.05359 -2.358937,-1.743915 -2.358937,-3.132038 l 0,-20.021108 7.774016,0 0,-6.48122 -7.774016,0 0,-12.565982 z"
         style="fill:url(#radialGradient4879);fill-opacity:1;stroke:none" />
      <rect
         style="fill:url(#radialGradient4876);fill-opacity:1;stroke:none"
         id="rect3259"
         width="8.5909071"
         height="51.90139"
         x="79.027481"
         y="43.609142" />
      <path
         inkscape:connector-curvature="0"
         id="rect3261"
         d="m 94.725964,43.612106 0,51.901471 8.592766,0 0,-16.909779 14.0398,18.943778 6.30018,-4.662686 -11.16109,-15.05677 12.23846,-13.850159 -5.8693,-5.188424 -15.54805,17.59927 0,-32.776701 -8.592766,0 z"
         style="fill:url(#radialGradient4873);fill-opacity:1;stroke:none" />
      <path
         sodipodi:nodetypes="csccssscsssssssccsssccscssccccscsssc"
         inkscape:connector-curvature="0"
         id="rect3274"
         d="m 59.139587,59.823775 c -1.875993,0.04754 -4.19817,0.671915 -5.645214,1.26694 -2.69101,1.106548 -6.260358,3.681645 -8.446262,5.550407 l 3.568113,4.292084 c 2.000338,-1.619729 3.96658,-3.109408 6.076142,-4.050763 1.555518,-0.694121 3.916355,-0.957014 5.352182,-0.241321 0.925649,0.461394 1.47379,1.269687 1.47379,2.413219 l 0,4.473076 c 0,0 -5.663135,1.165815 -8.40318,2.068475 -1.765535,0.581624 -3.627312,1.073188 -5.145333,2.146042 -1.725932,1.219801 -3.330621,2.797827 -4.257609,4.697161 -0.787779,1.61411 -0.851354,4.020927 -0.52574,5.964101 0.225862,1.347848 0.502093,2.362961 1.456555,3.930101 1.047505,1.719906 2.751907,2.846464 4.404572,3.412536 1.175451,0.402616 2.949086,0.673931 4.19157,0.673931 2.027419,0 4.05039,-0.325738 5.627973,-1.215229 1.452856,-0.83578 3.243526,-3.448464 3.243526,-3.448464 0,0 1.234546,3.015949 3.406712,3.938497 0.941294,0.399778 1.97702,0.618011 2.999285,0.646398 0.861311,0.02392 1.740187,-0.113855 2.551123,-0.405076 1.57854,-0.566881 4.335173,-2.551119 4.335173,-2.551119 l -1.904716,-4.016287 c -0.0404,0.121239 -1.715595,0.956669 -2.671783,1.060092 -0.735563,0.07956 -1.214342,-0.646425 -1.197986,-1.318652 l 0,-20.055583 c 0,-1.598652 -0.175288,-2.874895 -0.836014,-4.033524 -1.912888,-3.354398 -4.865937,-5.119009 -9.290893,-5.197042 -0.120731,-0.0022 -0.236917,-0.0032 -0.361986,0 z m 2.378751,19.012727 0,8.368702 c -0.529406,0.439769 -1.053498,0.867013 -1.396224,1.111806 -1.340452,0.95741 -3.015977,2.063975 -5.429748,1.90472 -1.65242,-0.07613 -3.075112,-1.151653 -3.602591,-2.67178 -0.531636,-1.532106 -0.105402,-3.79874 0.810155,-4.860915 1.3389,-1.553325 3.418652,-2.335123 5.343559,-3.042381 1.36015,-0.499755 4.274849,-0.810152 4.274849,-0.810152 z"
         style="fill:url(#radialGradient4870);fill-opacity:1;stroke:none" />
      <path
         transform="matrix(0.27579658,0,0,0.27579658,-198.17001,71.373704)"
         d="m 807.25,-82.40625 0,43.5 a 2.0781299,2.0781299 0 0 1 -2.0625,2.0625 l -15,0 0,19.375 15,0 a 2.0781299,2.0781299 0 0 1 2.0625,2.0625 l 0,72.59375 c 0,10.266213 2.59793,18.349485 7.5,23.84375 4.90207,5.494265 12.20808,8.625 22.46875,8.625 6.15755,0 20.39201,-1.734903 28.96875,-9.46875 L 858.5,65.8125 c -3.63569,2.783964 -8.11825,4.923746 -13.65625,4.78125 -4.33419,-0.111523 -7.37913,-2.17785 -8.875,-4.90625 -1.49587,-2.7284 -1.6875,-5.844424 -1.6875,-8.5 l 0,-72.59375 a 2.0781299,2.0781299 0 0 1 2.0625,-2.0625 l 26.125,0 0,-19.375 -26.125,0 a 2.0781299,2.0781299 0 0 1 -2.0625,-2.0625 l 0,-43.5 -27.03125,0 z"
         id="path4065"
         style="fill:url(#radialGradient4887);fill-opacity:1;stroke:none;filter:url(#filter4081)"
         inkscape:original="M 805.1875 -84.46875 L 805.1875 -38.90625 L 788.125 -38.90625 L 788.125 -15.40625 L 805.1875 -15.40625 L 805.1875 57.1875 C 805.1875 78.41481 815.83553 91.71875 837.21875 91.71875 C 843.97813 91.71875 859.66186 90.05574 868.8125 80.6875 L 859.15625 62.625 C 855.4256 65.99216 850.86608 68.6846 844.90625 68.53125 C 837.35385 68.33692 836.34375 62.22064 836.34375 57.1875 L 836.34375 -15.40625 L 864.53125 -15.40625 L 864.53125 -38.90625 L 836.34375 -38.90625 L 836.34375 -84.46875 L 805.1875 -84.46875 z "
         inkscape:radius="-2.0779221"
         sodipodi:type="inkscape:offset" />
      <path
         transform="matrix(0.27579658,0,0,0.27579658,-198.17001,71.373704)"
         d="m 933.03125,-39.8125 c -6.38671,0.161844 -14.75246,2.382499 -19.75,4.4375 -8.75234,3.598973 -20.58919,11.966621 -28.46875,18.5 l 10.3125,12.4375 c 6.74471,-5.4020816 13.51086,-10.432645 20.875,-13.71875 6.17395,-2.755014 14.99001,-3.932911 21.1875,-0.84375 3.92784,1.957839 6.46875,5.786335 6.46875,10.59375 l 0,16.21875 A 2.0690922,2.0690922 0 0 1 942,9.84375 c 0,0 -20.58555,4.264009 -30.21875,7.4375 -6.48308,2.13574 -13.02874,3.898232 -18.125,7.5 -6.0648,4.286288 -11.6348,9.80312 -14.78125,16.25 -2.52007,5.163452 -2.84613,13.647232 -1.71875,20.375 0.80148,4.78293 1.68472,8.036547 5.03125,13.53125 3.48848,5.727778 9.23537,9.547764 14.84375,11.46875 3.92732,1.345192 10.32547,2.34375 14.53125,2.34375 7.12953,0 14.12578,-1.19658 19.375,-4.15625 l 0,0.03125 c 2.14601,-1.234529 5.09077,-4.269485 7.3125,-6.9375 2.22173,-2.668015 3.78125,-4.96875 3.78125,-4.96875 a 2.0690922,2.0690922 0 0 1 3.625,0.40625 c 0,0 4.60831,10.335435 11.25,13.15625 3.15973,1.341979 6.67372,2.091661 10.125,2.1875 2.8636,0.0795 5.81185,-0.378382 8.5,-1.34375 2.49967,-0.897673 6.43098,-3.164846 9.59375,-5.1875 2.36495,-1.512432 3.34414,-2.248861 4.1875,-2.84375 L 984.125,68.1875 c -0.58187,0.294815 -1.15032,0.590246 -1.875,0.90625 -2.07213,0.903564 -4.49031,1.824845 -6.6875,2.0625 -2.05012,0.221741 -3.89005,-0.771534 -5,-2.125 -1.09655,-1.337116 -1.65239,-3.012921 -1.625,-4.71875 l 0,-0.0625 0,-72.65625 c 0,-5.64526 -0.63142,-9.823859 -2.78125,-13.59375 -6.63666,-11.63787 -16.39552,-17.538969 -31.90625,-17.8125 -0.42452,-0.0078 -0.80838,-0.01041 -1.21875,0 z M 941.375,25 a 2.0690922,2.0690922 0 0 1 2.28125,2.0625 l 0,30.34375 A 2.0690922,2.0690922 0 0 1 942.90625,59 c -1.92915,1.602535 -3.83008,3.155465 -5.1875,4.125 -4.90445,3.502989 -11.54356,7.891633 -20.96875,7.28125 -0.0105,-4.82e-4 -0.0208,5.02e-4 -0.0313,0 -6.81845,-0.326947 -12.71842,-4.757476 -14.90625,-11.0625 -1.12354,-3.237893 -1.17195,-6.986608 -0.5625,-10.5 0.60945,-3.513392 1.87492,-6.79961 3.90625,-9.15625 5.32228,-6.174629 13.22885,-9.056738 20.21875,-11.625 5.56952,-2.046383 16,-3.0625 16,-3.0625 z"
         id="path4672"
         style="fill:url(#radialGradient4885);fill-opacity:1;stroke:none;filter:url(#filter4680)"
         inkscape:original="M 932.96875 -41.875 C 926.16665 -41.70263 917.74676 -39.43873 912.5 -37.28125 C 902.74276 -33.26906 889.80081 -23.93212 881.875 -17.15625 L 894.8125 -1.59375 C 902.06545 -7.46666 909.19475 -12.86803 916.84375 -16.28125 C 922.48384 -18.79804 931.0439 -19.75125 936.25 -17.15625 C 939.60629 -15.4833 941.59375 -12.55254 941.59375 -8.40625 L 941.59375 7.8125 C 941.59375 7.8125 921.06002 12.03958 911.125 15.3125 C 904.72342 17.42139 897.97287 19.20373 892.46875 23.09375 C 886.21075 27.51658 880.39237 33.23828 877.03125 40.125 C 874.17487 45.97754 873.94435 54.70432 875.125 61.75 C 875.94394 66.63711 876.94551 70.31777 880.40625 76 C 884.20435 82.23614 890.38266 86.3225 896.375 88.375 C 900.63701 89.83483 907.0574 90.8125 911.5625 90.8125 C 918.91363 90.8125 926.24864 89.63142 931.96875 86.40625 C 937.2366 83.37583 943.75 73.90625 943.75 73.90625 C 943.75 73.90625 948.21778 84.84247 956.09375 88.1875 C 959.50674 89.63704 963.26213 90.42832 966.96875 90.53125 C 970.09173 90.61795 973.27842 90.11843 976.21875 89.0625 C 981.94232 87.00707 991.9375 79.8125 991.9375 79.8125 L 985.03125 65.25 C 984.88472 65.6896 978.81074 68.71875 975.34375 69.09375 C 972.67669 69.38222 970.9407 66.7499 971 64.3125 L 971 -8.40625 C 971 -14.20274 970.36444 -18.83022 967.96875 -23.03125 C 961.03287 -35.19383 950.32553 -41.59206 934.28125 -41.875 C 933.84351 -41.883 933.42222 -41.8865 932.96875 -41.875 z M 941.59375 27.0625 L 941.59375 57.40625 C 939.67422 59.00079 937.77393 60.54992 936.53125 61.4375 C 931.67097 64.90894 925.59575 68.92119 916.84375 68.34375 C 910.85229 68.06768 905.69382 64.16802 903.78125 58.65625 C 901.85361 53.10105 903.39908 44.88255 906.71875 41.03125 C 911.57343 35.39911 919.11431 32.56442 926.09375 30 C 931.02547 28.18796 941.59375 27.0625 941.59375 27.0625 z "
         inkscape:radius="-2.0688853"
         sodipodi:type="inkscape:offset" />
      <path
         transform="matrix(0.27579658,0,0,0.27579658,-198.17001,71.373704)"
         d="m 1007.1562,-98.59375 0,184.0625 27,0 0,-184.0625 -27,0 z"
         id="path4696"
         style="fill:url(#radialGradient4883);fill-opacity:1;stroke:none;filter:url(#filter4700)"
         inkscape:original="M 1005.0938 -100.65625 L 1005.0938 87.53125 L 1036.2188 87.53125 L 1036.2188 -100.65625 L 1005.0938 -100.65625 z "
         inkscape:radius="-2.0570879"
         sodipodi:type="inkscape:offset" />
      <path
         transform="matrix(0.27579658,0,0,0.27579658,-198.17001,71.373704)"
         d="m 1064.3438,-98.3125 0,183.5 26.4687,0 0,-58.96875 a 2.3511355,2.3511355 0 0 1 4.2187,-1.40625 L 1144.5625,91.625 1163.625,77.5 1124.5625,24.8125 a 2.3511355,2.3511355 0 0 1 0.125,-2.96875 L 1167.5,-26.59375 1149.75,-42.3125 1094.9062,19.75 a 2.3511355,2.3511355 0 0 1 -4.0937,-1.5625 l 0,-116.5 -26.4687,0 z"
         id="path4716"
         style="fill:url(#radialGradient4881);fill-opacity:1;stroke:none;filter:url(#filter4720)"
         inkscape:original="M 1062 -100.65625 L 1062 87.53125 L 1093.1562 87.53125 L 1093.1562 26.21875 L 1144.0625 94.90625 L 1166.9062 78 L 1126.4375 23.40625 L 1170.8125 -26.8125 L 1149.5312 -45.625 L 1093.1562 18.1875 L 1093.1562 -100.65625 L 1062 -100.65625 z "
         inkscape:radius="-2.3509004"
         sodipodi:type="inkscape:offset" />
      <path
         transform="matrix(0.27579658,0,0,0.27579658,-198.17001,71.373704)"
         clip-path="url(#clipPath4736)"
         sodipodi:nodetypes="cccccscccsssssscc"
         inkscape:connector-curvature="0"
         id="path4724"
         d="m 793.72277,44.836896 -0.88159,13.517678 6.46498,17.337891 0.38754,25.750415 34.87597,1.87267 c 0,0 30.5617,6.17111 31.73715,5.58338 1.17545,-0.58772 7.0527,-4.99566 7.0527,-4.99566 l 1.46932,-14.98699 -8.64134,-8.72878 c 0,0 -5.28981,7.185557 -7.87477,5.018543 -2.58496,-2.167014 -8.16835,-0.109977 -12.57629,-0.403839 -4.40793,-0.293863 -10.57905,-0.881588 -15.86857,-3.820213 -5.28953,-2.938626 -10.57906,-5.583389 -11.75451,-7.052702 -1.17545,-1.469313 -2.3509,-4.701801 -4.11407,-6.758839 -1.76318,-2.057038 -4.68679,-6.742085 -6.74929,-9.98295 -2.0625,-3.240865 -9.41315,-8.530391 -9.41315,-8.530391 z"
         style="opacity:0.58407078;fill:#c6d9f5;fill-opacity:1;stroke:none;filter:url(#filter4730)" />
      <path
         transform="matrix(0.27579658,0,0,0.27579658,-198.17001,71.373704)"
         clip-path="url(#clipPath4761)"
         id="path4742"
         d="m 863.96875,51.59375 5.28125,18.8125 12.34375,22.90625 c 0,0 17.64082,11.18035 25.28125,13.53125 7.64042,2.3509 17.6107,6.46875 22.3125,6.46875 4.7018,0 10.59375,-5.28125 10.59375,-5.28125 0,0 -9.40512,-5.88103 -12.34375,-6.46875 -2.93862,-0.58773 -6.4857,-2.360699 -11.1875,-7.0625 -4.7018,-4.701801 -8.7982,-9.99285 -13.5,-12.34375 -4.7018,-2.350901 -7.64308,-3.5241 -9.40625,-5.875 -1.76318,-2.350901 -9.40625,-12.34375 -9.40625,-12.34375 0,0 -5.2982,-4.7116 -10,-7.0625 -4.7018,-2.350901 -9.96875,-5.28125 -9.96875,-5.28125 z m 80.5,28.21875 -5.28125,7.625 c 0,0 5.2741,2.373874 7.625,5.3125 2.3509,2.938626 8.22855,3.51205 15.28125,4.6875 7.0527,1.17545 17.65287,-1.774099 26.46875,-4.125 8.81587,-2.3509 -4.71875,-2.9375 -4.71875,-2.9375 l -13.5,-2.34375 c 0,0 -14.7116,-4.69955 -17.0625,-5.875 -2.3509,-1.17545 -8.8125,-2.34375 -8.8125,-2.34375 z"
         style="fill:#ffab7f;fill-opacity:1;stroke:none;filter:url(#filter4755)"
         inkscape:connector-curvature="0" />
    </g>
  </g>
</svg>
