<?xml version="1.0" encoding="UTF-8" standalone="no"?>
<!-- Created with Inkscape (http://www.inkscape.org/) -->

<svg
   xmlns:dc="http://purl.org/dc/elements/1.1/"
   xmlns:cc="http://creativecommons.org/ns#"
   xmlns:rdf="http://www.w3.org/1999/02/22-rdf-syntax-ns#"
   xmlns:svg="http://www.w3.org/2000/svg"
   xmlns="http://www.w3.org/2000/svg"
   xmlns:xlink="http://www.w3.org/1999/xlink"
   xmlns:sodipodi="http://sodipodi.sourceforge.net/DTD/sodipodi-0.dtd"
   xmlns:inkscape="http://www.inkscape.org/namespaces/inkscape"
   width="128"
   height="128"
   id="svg2"
   sodipodi:version="0.32"
   inkscape:version="0.48.1 r9760"
   version="1.0"
   sodipodi:docname="im-yahoo.svgz"
   inkscape:output_extension="org.inkscape.output.svgz.inkscape"
   inkscape:export-filename="/home/pinheiro/pics/oxygen-icons/scalable/actions/small/32x32/im-yahoo.png"
   inkscape:export-xdpi="90"
   inkscape:export-ydpi="90">
  <defs
     id="defs4">
    <linearGradient
       id="linearGradient5261">
      <stop
         style="stop-color:#ffd1b8;stop-opacity:1;"
         offset="0"
         id="stop5263" />
      <stop
         id="stop5267"
         offset="0.5"
         style="stop-color:#dd3a00;stop-opacity:1;" />
      <stop
         style="stop-color:#9e0000;stop-opacity:1;"
         offset="1"
         id="stop5265" />
    </linearGradient>
    <linearGradient
       id="linearGradient33783">
      <stop
         style="stop-color:#ffffff;stop-opacity:0;"
         offset="0"
         id="stop33785" />
      <stop
         id="stop33787"
         offset="0.5"
         style="stop-color:#f2efef;stop-opacity:0;" />
      <stop
         style="stop-color:#f484fc;stop-opacity:0;"
         offset="0.81488997"
         id="stop33789" />
      <stop
         id="stop33791"
         offset="0.89840978"
         style="stop-color:#efb9f0;stop-opacity:0.49803922;" />
      <stop
         style="stop-color:#ecb5eb;stop-opacity:1;"
         offset="1"
         id="stop33793" />
    </linearGradient>
    <linearGradient
       id="linearGradient33765">
      <stop
         style="stop-color:#0043a2;stop-opacity:1;"
         offset="0"
         id="stop33767" />
      <stop
         style="stop-color:#001343;stop-opacity:1;"
         offset="1"
         id="stop33769" />
    </linearGradient>
    <linearGradient
       id="linearGradient33753">
      <stop
         style="stop-color:#ffffff;stop-opacity:0;"
         offset="0"
         id="stop33755" />
      <stop
         id="stop33757"
         offset="0.5"
         style="stop-color:#f2efef;stop-opacity:0;" />
      <stop
         style="stop-color:#67195a;stop-opacity:0;"
         offset="0.86730784"
         id="stop33759" />
      <stop
         id="stop33761"
         offset="0.9181866"
         style="stop-color:#f0b9ec;stop-opacity:0.49803922;" />
      <stop
         style="stop-color:#ecb5e3;stop-opacity:1;"
         offset="1"
         id="stop33763" />
    </linearGradient>
    <linearGradient
       id="linearGradient33721">
      <stop
         style="stop-color:#f6cdf9;stop-opacity:1;"
         offset="0"
         id="stop33723" />
      <stop
         id="stop33725"
         offset="0.2265625"
         style="stop-color:#d292d7;stop-opacity:1;" />
      <stop
         id="stop33727"
         offset="0.5"
         style="stop-color:#aa58b5;stop-opacity:1;" />
      <stop
         style="stop-color:#480c58;stop-opacity:1;"
         offset="1"
         id="stop33729" />
    </linearGradient>
    <linearGradient
       id="linearGradient3857"
       inkscape:collect="always">
      <stop
         id="stop3859"
         offset="0"
         style="stop-color:#ffffff;stop-opacity:1;" />
      <stop
         id="stop3861"
         offset="1"
         style="stop-color:#ffffff;stop-opacity:0" />
    </linearGradient>
    <filter
       inkscape:collect="always"
       id="filter5416"
       x="-0.21917803"
       width="1.4383561"
       y="-0.21917814"
       height="1.4383563">
      <feGaussianBlur
         inkscape:collect="always"
         stdDeviation="1.4611876"
         id="feGaussianBlur5418" />
    </filter>
    <clipPath
       clipPathUnits="userSpaceOnUse"
       id="clipPath5420">
      <path
         style="fill:url(#radialGradient5424);fill-opacity:1;stroke:none"
         d="m 108,8 c -52,0 -36,4 0,4 3.57143,0 8,2.700959 8,8 0,24 4,24 4,0 0,-5.923499 -4.70207,-12 -12,-12 z"
         id="path5422"
         sodipodi:nodetypes="ccccc" />
    </clipPath>
    <radialGradient
       inkscape:collect="always"
       xlink:href="#linearGradient3857"
       id="radialGradient5424"
       gradientUnits="userSpaceOnUse"
       gradientTransform="matrix(0.70743936,0.70677405,-0.99807448,0.99901401,48.73805,-79.148369)"
       cx="112.00771"
       cy="15.99981"
       fx="112.00771"
       fy="15.99981"
       r="8.0077057" />
    <radialGradient
       inkscape:collect="always"
       xlink:href="#linearGradient3857"
       id="radialGradient32222"
       gradientUnits="userSpaceOnUse"
       gradientTransform="matrix(0.70727305,0.70694048,-1.9971123,1.9980518,64.741093,-95.151426)"
       cx="112.00771"
       cy="15.99981"
       fx="112.00771"
       fy="15.99981"
       r="8.0077057" />
    <radialGradient
       inkscape:collect="always"
       xlink:href="#linearGradient3857"
       id="radialGradient32224"
       gradientUnits="userSpaceOnUse"
       gradientTransform="matrix(0.70727305,0.70694048,-1.9971123,1.9980518,64.741093,-95.151426)"
       cx="112.00771"
       cy="15.99981"
       fx="112.00771"
       fy="15.99981"
       r="8.0077057" />
    <radialGradient
       inkscape:collect="always"
       xlink:href="#linearGradient3857"
       id="radialGradient32226"
       gradientUnits="userSpaceOnUse"
       gradientTransform="matrix(0.70727305,0.70694048,-1.9971123,1.9980518,64.741093,-95.151426)"
       cx="112.00771"
       cy="15.99981"
       fx="112.00771"
       fy="15.99981"
       r="8.0077057" />
    <radialGradient
       inkscape:collect="always"
       xlink:href="#linearGradient3857"
       id="radialGradient32230"
       gradientUnits="userSpaceOnUse"
       gradientTransform="matrix(0.70727305,0.70694048,-1.9971123,1.9980518,64.741093,-95.151426)"
       cx="112.00771"
       cy="15.99981"
       fx="112.00771"
       fy="15.99981"
       r="8.0077057" />
    <filter
       height="1.542737"
       y="-0.27136852"
       width="1.1750765"
       x="-0.087538233"
       id="filter4092"
       inkscape:collect="always">
      <feGaussianBlur
         id="feGaussianBlur4094"
         stdDeviation="0.60683384"
         inkscape:collect="always" />
    </filter>
    <radialGradient
       r="29.958668"
       fy="16.636555"
       fx="71.005272"
       cy="32.737198"
       cx="63.491623"
       gradientTransform="matrix(0.8355412,0,0,0.8355412,9.54541,6.1308791)"
       gradientUnits="userSpaceOnUse"
       id="radialGradient3743"
       xlink:href="#linearGradient3649"
       inkscape:collect="always" />
    <clipPath
       id="clipPath3739"
       clipPathUnits="userSpaceOnUse">
      <path
         sodipodi:type="arc"
         style="opacity:1;fill:url(#radialGradient3743);fill-opacity:1;stroke:none;stroke-width:3.4000001;stroke-linecap:round;stroke-linejoin:round;stroke-miterlimit:4;stroke-dasharray:none;stroke-dashoffset:0;stroke-opacity:1"
         id="path3741"
         sodipodi:cx="58.041332"
         sodipodi:cy="37.27911"
         sodipodi:rx="29.958668"
         sodipodi:ry="29.958668"
         d="M 88,37.27911 A 29.958668,29.958668 0 1 1 28.082664,37.27911 A 29.958668,29.958668 0 1 1 88,37.27911 z" />
    </clipPath>
    <filter
       id="filter3733"
       inkscape:collect="always">
      <feGaussianBlur
         id="feGaussianBlur3735"
         stdDeviation="1.3088738"
         inkscape:collect="always" />
    </filter>
    <linearGradient
       id="linearGradient3353"
       inkscape:collect="always">
      <stop
         id="stop3355-8"
         offset="0"
         style="stop-color:#ffffff;stop-opacity:1;" />
      <stop
         id="stop3357-9"
         offset="1"
         style="stop-color:#ffffff;stop-opacity:0;" />
    </linearGradient>
    <linearGradient
       id="linearGradient3649">
      <stop
         id="stop3651-7"
         offset="0"
         style="stop-color:#f7f4f4;stop-opacity:1;" />
      <stop
         id="stop3653"
         offset="1"
         style="stop-color:#5c4a4a;stop-opacity:1" />
    </linearGradient>
    <linearGradient
       id="linearGradient26434">
      <stop
         style="stop-color:#aa8610;stop-opacity:1;"
         offset="0"
         id="stop26436" />
      <stop
         style="stop-color:#e3ad00;stop-opacity:0;"
         offset="1"
         id="stop26438" />
    </linearGradient>
    <linearGradient
       id="linearGradient3649-2">
      <stop
         style="stop-color:#f7f4f4;stop-opacity:1;"
         offset="0"
         id="stop3651-7-2" />
      <stop
         style="stop-color:#5c4a4a;stop-opacity:1"
         offset="1"
         id="stop3653-6" />
    </linearGradient>
    <linearGradient
       id="linearGradient3637-8">
      <stop
         style="stop-color:#ffffff;stop-opacity:0;"
         offset="0"
         id="stop3639-7" />
      <stop
         id="stop3645-1"
         offset="0.5"
         style="stop-color:#f2efef;stop-opacity:0;" />
      <stop
         style="stop-color:#fcdd84;stop-opacity:0;"
         offset="0.81488997"
         id="stop3647-7" />
      <stop
         id="stop3657-2"
         offset="0.89840978"
         style="stop-color:#f0e4b9;stop-opacity:0.49803922;" />
      <stop
         style="stop-color:#ecebb5;stop-opacity:1;"
         offset="1"
         id="stop3641-7" />
    </linearGradient>
    <linearGradient
       inkscape:collect="always"
       id="linearGradient3353-5">
      <stop
         style="stop-color:#ffffff;stop-opacity:1;"
         offset="0"
         id="stop3355-8-0" />
      <stop
         style="stop-color:#ffffff;stop-opacity:0;"
         offset="1"
         id="stop3357-9-4" />
    </linearGradient>
    <filter
       inkscape:collect="always"
       id="filter3733-4">
      <feGaussianBlur
         inkscape:collect="always"
         stdDeviation="1.3088738"
         id="feGaussianBlur3735-9" />
    </filter>
    <clipPath
       clipPathUnits="userSpaceOnUse"
       id="clipPath3739-6">
      <path
         d="M 88,37.27911 A 29.958668,29.958668 0 1 1 28.082664,37.27911 A 29.958668,29.958668 0 1 1 88,37.27911 z"
         sodipodi:ry="29.958668"
         sodipodi:rx="29.958668"
         sodipodi:cy="37.27911"
         sodipodi:cx="58.041332"
         id="path3741-6"
         style="opacity:1;fill:url(#radialGradient3743-2);fill-opacity:1;stroke:none;stroke-width:3.40000010000000019;stroke-linecap:round;stroke-linejoin:round;stroke-miterlimit:4;stroke-dasharray:none;stroke-dashoffset:0;stroke-opacity:1"
         sodipodi:type="arc" />
    </clipPath>
    <radialGradient
       inkscape:collect="always"
       xlink:href="#linearGradient3649-2"
       id="radialGradient3743-2"
       gradientUnits="userSpaceOnUse"
       gradientTransform="matrix(0.8355412,0,0,0.8355412,9.54541,6.1308791)"
       cx="63.491623"
       cy="32.737198"
       fx="71.005272"
       fy="16.636555"
       r="29.958668" />
    <filter
       inkscape:collect="always"
       id="filter4092-8"
       x="-0.087538233"
       width="1.1750765"
       y="-0.27136852"
       height="1.542737">
      <feGaussianBlur
         inkscape:collect="always"
         stdDeviation="0.60683384"
         id="feGaussianBlur4094-9" />
    </filter>
    <linearGradient
       id="linearGradient13187">
      <stop
         style="stop-color:#ffffff;stop-opacity:0;"
         offset="0"
         id="stop13189" />
      <stop
         id="stop13191"
         offset="0.5"
         style="stop-color:#f2efef;stop-opacity:0;" />
      <stop
         style="stop-color:#675a19;stop-opacity:0;"
         offset="0.86730784"
         id="stop13193" />
      <stop
         id="stop13195"
         offset="0.92809278"
         style="stop-color:#f0e2b9;stop-opacity:0.49803922;" />
      <stop
         style="stop-color:#fff0a2;stop-opacity:1;"
         offset="1"
         id="stop13197" />
    </linearGradient>
    <linearGradient
       id="linearGradient13201">
      <stop
         id="stop13203"
         offset="0"
         style="stop-color:#f9f8cd;stop-opacity:1;" />
      <stop
         style="stop-color:#e2df87;stop-opacity:1;"
         offset="0.2265625"
         id="stop13205" />
      <stop
         style="stop-color:#eeb81f;stop-opacity:1;"
         offset="0.6350528"
         id="stop13207" />
      <stop
         id="stop13209"
         offset="1"
         style="stop-color:#a96d00;stop-opacity:1" />
    </linearGradient>
    <linearGradient
       id="linearGradient13824">
      <stop
         id="stop13826"
         offset="0"
         style="stop-color:#ff5900;stop-opacity:1;" />
      <stop
         id="stop13828"
         offset="1"
         style="stop-color:#520000;stop-opacity:1" />
    </linearGradient>
    <linearGradient
       id="linearGradient6699"
       inkscape:collect="always">
      <stop
         id="stop6701"
         offset="0"
         style="stop-color:#e0e0e0;stop-opacity:1" />
      <stop
         id="stop6703"
         offset="1"
         style="stop-color:#ffffff;stop-opacity:1" />
    </linearGradient>
    <linearGradient
       inkscape:collect="always"
       id="linearGradient6418">
      <stop
         style="stop-color:#eeeeee;stop-opacity:1;"
         offset="0"
         id="stop6420" />
      <stop
         style="stop-color:#ffffff;stop-opacity:1"
         offset="1"
         id="stop6422" />
    </linearGradient>
    <linearGradient
       id="linearGradient3572">
      <stop
         style="stop-color:#fffcca;stop-opacity:1"
         offset="0"
         id="stop3574" />
      <stop
         id="stop3576"
         offset="0.29983425"
         style="stop-color:#ffd81b;stop-opacity:1" />
      <stop
         style="stop-color:#f9d93b;stop-opacity:1"
         offset="0.74958563"
         id="stop3578" />
      <stop
         style="stop-color:#f49b23;stop-opacity:1"
         offset="1"
         id="stop3580" />
    </linearGradient>
    <linearGradient
       id="linearGradient3191">
      <stop
         style="stop-color:#fffeee;stop-opacity:1;"
         offset="0"
         id="stop3193" />
      <stop
         id="stop6709"
         offset="0.31999999"
         style="stop-color:#fffeee;stop-opacity:0.79069769;" />
      <stop
         style="stop-color:#fffeee;stop-opacity:0;"
         offset="1"
         id="stop3195" />
    </linearGradient>
    <linearGradient
       inkscape:collect="always"
       id="linearGradient3413">
      <stop
         style="stop-color:#000000;stop-opacity:1;"
         offset="0"
         id="stop3415" />
      <stop
         style="stop-color:#000000;stop-opacity:0;"
         offset="1"
         id="stop3417" />
    </linearGradient>
    <linearGradient
       id="linearGradient4031">
      <stop
         style="stop-color:#ffffff;stop-opacity:0"
         offset="0"
         id="stop4033" />
      <stop
         id="stop4037"
         offset="0.49999997"
         style="stop-color:#ffffff;stop-opacity:0;" />
      <stop
         style="stop-color:#000000;stop-opacity:1"
         offset="1"
         id="stop4035" />
    </linearGradient>
    <clipPath
       clipPathUnits="userSpaceOnUse"
       id="clipPath6612">
      <path
         id="path6614"
         d="M 128,120 C 103.40867,120 79.642872,120.62629 57.096875,121.80469 C 56.370779,125.98022 56,130.27989 56,134.66667 C 56,175.14667 88.255999,208 128,208 C 167.744,208 200.00001,175.14667 200,134.66667 C 200,130.27989 199.62922,125.98022 198.90313,121.80469 C 176.35713,120.62629 152.59133,120 128,120 z"
         style="opacity:1;fill:url(#linearGradient6616);fill-opacity:1;stroke:none;stroke-width:20;stroke-linecap:round;stroke-linejoin:round;stroke-miterlimit:4;stroke-dasharray:none;stroke-opacity:0" />
    </clipPath>
    <linearGradient
       inkscape:collect="always"
       xlink:href="#linearGradient6418"
       id="linearGradient6616"
       gradientUnits="userSpaceOnUse"
       gradientTransform="matrix(0.9818182,0,0,1,2.3272722,0)"
       spreadMethod="reflect"
       x1="71.857597"
       y1="164"
       x2="128.10901"
       y2="164" />
    <filter
       inkscape:collect="always"
       id="filter6669">
      <feGaussianBlur
         inkscape:collect="always"
         stdDeviation="1.8168745"
         id="feGaussianBlur6671" />
    </filter>
    <filter
       inkscape:collect="always"
       id="filter6775">
      <feGaussianBlur
         inkscape:collect="always"
         stdDeviation="1.16"
         id="feGaussianBlur6777" />
    </filter>
    <linearGradient
       id="linearGradient3879"
       inkscape:collect="always">
      <stop
         id="stop3881"
         offset="0"
         style="stop-color:#4d2600;stop-opacity:1" />
      <stop
         id="stop3883"
         offset="1"
         style="stop-color:#000000;stop-opacity:1" />
    </linearGradient>
    <filter
       inkscape:collect="always"
       id="filter5257">
      <feGaussianBlur
         inkscape:collect="always"
         stdDeviation="0.18657625"
         id="feGaussianBlur5259" />
    </filter>
    <filter
       inkscape:collect="always"
       id="filter5452"
       x="-0.10435396"
       width="1.2087079"
       y="-0.030294013"
       height="1.060588">
      <feGaussianBlur
         inkscape:collect="always"
         stdDeviation="1.7324389"
         id="feGaussianBlur5454" />
    </filter>
    <filter
       inkscape:collect="always"
       id="filter5458">
      <feGaussianBlur
         inkscape:collect="always"
         stdDeviation="1.4256149"
         id="feGaussianBlur5460" />
    </filter>
    <radialGradient
       inkscape:collect="always"
       xlink:href="#linearGradient3857"
       id="radialGradient5714"
       gradientUnits="userSpaceOnUse"
       gradientTransform="matrix(0.70727305,0.70694048,-1.9971123,1.9980518,64.741093,-95.151426)"
       cx="112.00771"
       cy="15.99981"
       fx="112.00771"
       fy="15.99981"
       r="8.0077057" />
    <radialGradient
       inkscape:collect="always"
       xlink:href="#linearGradient3857"
       id="radialGradient5716"
       gradientUnits="userSpaceOnUse"
       gradientTransform="matrix(0.70727305,0.70694048,-1.9971123,1.9980518,64.741093,-95.151426)"
       cx="112.00771"
       cy="15.99981"
       fx="112.00771"
       fy="15.99981"
       r="8.0077057" />
    <radialGradient
       inkscape:collect="always"
       xlink:href="#linearGradient33721"
       id="radialGradient5718"
       gradientUnits="userSpaceOnUse"
       gradientTransform="matrix(0.8355412,0,0,0.8355412,9.54541,6.1308791)"
       cx="63.491623"
       cy="32.737198"
       fx="71.005272"
       fy="16.636555"
       r="29.958668" />
    <radialGradient
       inkscape:collect="always"
       xlink:href="#linearGradient3353"
       id="radialGradient5720"
       gradientUnits="userSpaceOnUse"
       cx="76.61216"
       cy="25.895178"
       fx="76.61216"
       fy="25.895178"
       r="3.8909853" />
    <radialGradient
       inkscape:collect="always"
       xlink:href="#linearGradient33783"
       id="radialGradient5722"
       gradientUnits="userSpaceOnUse"
       gradientTransform="matrix(1.0732128,0,0,1.0016658,-3.0892676,-0.94553)"
       cx="59.612423"
       cy="32.667538"
       fx="59.612423"
       fy="32.667538"
       r="29.958668" />
    <radialGradient
       inkscape:collect="always"
       xlink:href="#linearGradient33753"
       id="radialGradient5724"
       gradientUnits="userSpaceOnUse"
       gradientTransform="matrix(1.0732128,0,0,1.0016658,-3.0892676,-0.94553)"
       cx="55.369141"
       cy="36.077316"
       fx="54.83873"
       fy="18.270697"
       r="29.958668" />
    <linearGradient
       inkscape:collect="always"
       xlink:href="#linearGradient33765"
       id="linearGradient5726"
       gradientUnits="userSpaceOnUse"
       x1="63.060799"
       y1="49.136856"
       x2="63.060799"
       y2="46.289307" />
    <radialGradient
       inkscape:collect="always"
       xlink:href="#linearGradient33721"
       id="radialGradient5728"
       gradientUnits="userSpaceOnUse"
       gradientTransform="matrix(0.22326446,0.02390627,-0.14622726,1.3656399,-18.023756,163.49499)"
       cx="778.22009"
       cy="-114.09944"
       fx="780.8479"
       fy="-121.64007"
       r="24.1875" />
    <radialGradient
       inkscape:collect="always"
       xlink:href="#linearGradient33721"
       id="radialGradient5730"
       gradientUnits="userSpaceOnUse"
       gradientTransform="matrix(1.9213325,1.4550582e-7,-2.3421132e-7,3.1440944,-717.32151,205.2511)"
       cx="779.34363"
       cy="-115.77751"
       fx="781.97144"
       fy="-123.31815"
       r="24.1875" />
    <radialGradient
       inkscape:collect="always"
       xlink:href="#linearGradient13201"
       id="radialGradient5732"
       gradientUnits="userSpaceOnUse"
       gradientTransform="matrix(1.0164983,0,0,1.0164983,-1.2540517,-0.41396973)"
       cx="59.679672"
       cy="36.167953"
       fx="67.193321"
       fy="20.06731"
       r="29.958668" />
    <radialGradient
       inkscape:collect="always"
       xlink:href="#linearGradient3353-5"
       id="radialGradient5734"
       gradientUnits="userSpaceOnUse"
       cx="76.61216"
       cy="25.895178"
       fx="76.61216"
       fy="25.895178"
       r="3.8909853" />
    <radialGradient
       inkscape:collect="always"
       xlink:href="#linearGradient3637-8"
       id="radialGradient5736"
       gradientUnits="userSpaceOnUse"
       gradientTransform="matrix(1.0732128,0,0,1.0016658,-3.0892676,-0.94553)"
       cx="59.612423"
       cy="32.667538"
       fx="59.612423"
       fy="32.667538"
       r="29.958668" />
    <radialGradient
       inkscape:collect="always"
       xlink:href="#linearGradient13187"
       id="radialGradient5738"
       gradientUnits="userSpaceOnUse"
       gradientTransform="matrix(1.0732128,0,0,1.0016658,-3.0892676,-0.94553)"
       cx="55.369141"
       cy="36.077316"
       fx="54.83873"
       fy="18.270697"
       r="29.958668" />
    <linearGradient
       inkscape:collect="always"
       xlink:href="#linearGradient26434"
       id="linearGradient5740"
       gradientUnits="userSpaceOnUse"
       x1="63.060799"
       y1="49.136856"
       x2="63.060799"
       y2="46.289307" />
    <radialGradient
       inkscape:collect="always"
       xlink:href="#linearGradient3572"
       id="radialGradient5748"
       gradientUnits="userSpaceOnUse"
       gradientTransform="matrix(0.6101837,2.1079737e-8,0,0.41402189,635.14596,88.761393)"
       cx="128"
       cy="181.06129"
       fx="128"
       fy="181.06129"
       r="76.545453" />
    <radialGradient
       inkscape:collect="always"
       xlink:href="#linearGradient4031"
       id="radialGradient5750"
       gradientUnits="userSpaceOnUse"
       gradientTransform="matrix(0.91222104,0,0,0.33498135,596.48517,101.91755)"
       cx="128"
       cy="166.44806"
       fx="128"
       fy="230.95265"
       r="76.545456" />
    <linearGradient
       inkscape:collect="always"
       xlink:href="#linearGradient6699"
       id="linearGradient5752"
       gradientUnits="userSpaceOnUse"
       gradientTransform="matrix(0.56571467,0,0,0.576209,640.838,63.752464)"
       spreadMethod="reflect"
       x1="71.857597"
       y1="164"
       x2="128.10901"
       y2="164" />
    <linearGradient
       inkscape:collect="always"
       xlink:href="#linearGradient3413"
       id="linearGradient5754"
       gradientUnits="userSpaceOnUse"
       gradientTransform="matrix(0.57619085,0,0,0.576209,639.49704,63.752464)"
       x1="137.94228"
       y1="143"
       x2="137.94228"
       y2="147.1337" />
    <linearGradient
       inkscape:collect="always"
       xlink:href="#linearGradient3191"
       id="linearGradient5756"
       gradientUnits="userSpaceOnUse"
       gradientTransform="matrix(0.56571467,0,0,0.576209,640.838,63.752464)"
       spreadMethod="reflect"
       x1="128"
       y1="164"
       x2="42.519455"
       y2="164" />
    <linearGradient
       inkscape:collect="always"
       xlink:href="#linearGradient3879"
       id="linearGradient5758"
       gradientUnits="userSpaceOnUse"
       gradientTransform="matrix(0.56571467,0,0,0.576209,640.838,63.752464)"
       spreadMethod="reflect"
       x1="128"
       y1="164"
       x2="42.519455"
       y2="164" />
    <radialGradient
       inkscape:collect="always"
       xlink:href="#linearGradient13824"
       id="radialGradient5760"
       gradientUnits="userSpaceOnUse"
       gradientTransform="matrix(2.4386293,0,0,3.0360823,-29.011541,-53.063454)"
       cx="304.7533"
       cy="75.010063"
       fx="304.7533"
       fy="75.010063"
       r="16.074715" />
    <radialGradient
       inkscape:collect="always"
       xlink:href="#linearGradient5261"
       id="radialGradient5762"
       gradientUnits="userSpaceOnUse"
       gradientTransform="matrix(1,0,0,1.0073025,388.4863,90.047935)"
       cx="304.7533"
       cy="75.010063"
       fx="304.7533"
       fy="79.094315"
       r="16.074715" />
    <linearGradient
       inkscape:collect="always"
       id="linearGradient5268-4">
      <stop
         style="stop-color:#ffffff;stop-opacity:1;"
         offset="0"
         id="stop5270-2" />
      <stop
         style="stop-color:#ffffff;stop-opacity:0;"
         offset="1"
         id="stop5272-0" />
    </linearGradient>
    <radialGradient
       inkscape:collect="always"
       xlink:href="#linearGradient5268-4"
       id="radialGradient3365"
       gradientUnits="userSpaceOnUse"
       gradientTransform="matrix(0.64231349,0,0,0.33879937,27.416583,-65.952334)"
       cx="107"
       cy="373.49469"
       fx="107"
       fy="373.49469"
       r="8.0000095" />
    <radialGradient
       inkscape:collect="always"
       xlink:href="#linearGradient5268-4"
       id="radialGradient3367"
       gradientUnits="userSpaceOnUse"
       gradientTransform="matrix(0.64231349,0,0,0.33879937,7.9921802,-65.952334)"
       cx="107"
       cy="373.49469"
       fx="107"
       fy="373.49469"
       r="8.0000095" />
    <radialGradient
       inkscape:collect="always"
       xlink:href="#linearGradient33765"
       id="radialGradient3369"
       gradientUnits="userSpaceOnUse"
       gradientTransform="matrix(1,0,0,1.3235295,0,-21.142859)"
       cx="83.532471"
       cy="65.350647"
       fx="84.560989"
       fy="63.574409"
       r="3.5324676" />
    <radialGradient
       inkscape:collect="always"
       xlink:href="#linearGradient33765"
       id="radialGradient3371"
       gradientUnits="userSpaceOnUse"
       gradientTransform="matrix(1,0,0,1.3235295,0,-21.142859)"
       cx="83.532471"
       cy="65.350647"
       fx="84.560989"
       fy="63.574409"
       r="3.5324676" />
  </defs>
  <sodipodi:namedview
     id="base"
     pagecolor="#ffffff"
     bordercolor="#666666"
     borderopacity="1.0"
     gridtolerance="10000"
     guidetolerance="10"
     objecttolerance="10"
     inkscape:pageopacity="0.0"
     inkscape:pageshadow="2"
     inkscape:zoom="1.7014757"
     inkscape:cx="85.844377"
     inkscape:cy="38.602118"
     inkscape:document-units="px"
     inkscape:current-layer="layer1"
     width="128px"
     height="128px"
     showgrid="true"
     inkscape:window-width="1040"
     inkscape:window-height="728"
     inkscape:window-x="292"
     inkscape:window-y="318"
     showguides="true"
     inkscape:guide-bbox="true"
     inkscape:snap-nodes="true"
     inkscape:snap-bbox="true"
     inkscape:window-maximized="0"
     inkscape:snap-global="false">
    <inkscape:grid
       id="GridFromPre046Settings"
       type="xygrid"
       originx="0px"
       originy="0px"
       spacingx="2.6666px"
       spacingy="2.6666px"
       color="#0000ff"
       empcolor="#0000ff"
       opacity="0.2"
       empopacity="0.4"
       empspacing="2"
       visible="true"
       enabled="true" />
  </sodipodi:namedview>
  <metadata
     id="metadata7">
    <rdf:RDF>
      <cc:Work
         rdf:about="">
        <dc:format>image/svg+xml</dc:format>
        <dc:type
           rdf:resource="http://purl.org/dc/dcmitype/StillImage" />
        <dc:title></dc:title>
      </cc:Work>
    </rdf:RDF>
  </metadata>
  <g
     inkscape:label="Layer 1"
     inkscape:groupmode="layer"
     id="layer1">
    <path
       inkscape:connector-curvature="0"
       style="fill:#ffffff;fill-opacity:0.75688076;fill-rule:nonzero;stroke:none"
       d="m 223.98555,-331.69126 0,-0.81738 0,0.81738 z"
       id="path6503-6"
       sodipodi:nodetypes="ccc"
       inkscape:r_cx="true"
       inkscape:r_cy="true" />
    <path
       inkscape:connector-curvature="0"
       style="fill:#ffffff;fill-opacity:0.75688076;fill-rule:nonzero;stroke:none"
       d="m 126.31109,-286.09789 0,-2.79471 0,2.79471 z"
       id="path6505"
       sodipodi:nodetypes="ccc"
       inkscape:r_cx="true"
       inkscape:r_cy="true" />
    <path
       inkscape:connector-curvature="0"
       style="fill:#ffffff;fill-opacity:0.75688076;fill-rule:nonzero;stroke:none"
       d="m 194.03436,-491.61961 0,-0.81738 0,0.81738 z"
       id="path7553"
       sodipodi:nodetypes="ccc"
       inkscape:r_cx="true"
       inkscape:r_cy="true" />
    <g
       id="g5677"
       transform="matrix(1.098465,0,0,1.098465,-83.323155,12.078127)"
       clip-path="none">
      <path
         inkscape:connector-curvature="0"
         transform="matrix(0.85712141,0,0,0.85442216,19.809031,-1.4989773)"
         clip-path="url(#clipPath5420)"
         style="fill:url(#radialGradient5714);fill-opacity:1;stroke:none;filter:url(#filter5416)"
         d="m 108,8 -4,8 c 3.30365,-0.176594 7.9579,2.481149 8,8 l 8,-4 C 120.007,14.388483 115.55603,8.131068 108,8 z"
         id="path5414"
         sodipodi:nodetypes="ccccc" />
      <path
         inkscape:connector-curvature="0"
         transform="matrix(0.85712141,0,0,0.85442216,19.809031,-1.4989773)"
         sodipodi:nodetypes="ccccc"
         id="path5455"
         d="m 108,8 -4,8 c 3.30365,-0.176594 7.9579,2.481149 8,8 l 8,-4 C 120.007,14.388483 115.55603,8.131068 108,8 z"
         style="fill:url(#radialGradient5716);fill-opacity:1;stroke:none;filter:url(#filter5416)"
         clip-path="url(#clipPath5420)" />
      <path
         sodipodi:type="arc"
         style="fill:url(#radialGradient5718);fill-opacity:1;stroke:none"
         id="path33665"
         sodipodi:cx="58.041332"
         sodipodi:cy="37.27911"
         sodipodi:rx="29.958668"
         sodipodi:ry="29.958668"
         d="m 88,37.27911 c 0,16.545715 -13.412952,29.958668 -29.958668,29.958668 -16.545715,0 -29.958668,-13.412953 -29.958668,-29.958668 0,-16.545715 13.412953,-29.9586678 29.958668,-29.9586678 C 74.587048,7.3204422 88,20.733395 88,37.27911 z"
         transform="matrix(1.3185473,0,0,1.0257096,41.742714,-5.4866646)" />
      <path
         sodipodi:type="arc"
         style="fill:url(#radialGradient5720);fill-opacity:1;stroke:none"
         id="path33667"
         sodipodi:cx="76.61216"
         sodipodi:cy="25.895178"
         sodipodi:rx="3.8909853"
         sodipodi:ry="3.8909853"
         d="m 80.503145,25.895178 c 0,2.148932 -1.742053,3.890985 -3.890985,3.890985 -2.148932,0 -3.890986,-1.742053 -3.890986,-3.890985 0,-2.148932 1.742054,-3.890985 3.890986,-3.890985 2.148932,0 3.890985,1.742053 3.890985,3.890985 z"
         transform="matrix(1.115673,-0.30806787,0.44107041,0.96661985,40.726604,23.223369)" />
      <path
         transform="matrix(1.3185473,0,0,1.0257096,41.742714,-5.4866646)"
         d="m 86.875938,37.27911 c 0,15.924913 -12.909692,28.834606 -28.834606,28.834606 -15.924913,0 -28.834606,-12.909693 -28.834606,-28.834606 0,-15.924913 12.909693,-28.8346062 28.834606,-28.8346062 0.106336,0 0.212671,5.882e-4 0.319,0.00176 l -0.319,28.8328416 z"
         sodipodi:ry="28.834606"
         sodipodi:rx="28.834606"
         sodipodi:cy="37.27911"
         sodipodi:cx="58.041332"
         id="path33669"
         style="fill:url(#radialGradient5722);fill-opacity:1;stroke:none;filter:url(#filter3733)"
         sodipodi:type="arc"
         sodipodi:start="0"
         sodipodi:end="4.7234523"
         clip-path="url(#clipPath3739)" />
      <path
         clip-path="url(#clipPath3739)"
         sodipodi:type="arc"
         style="fill:url(#radialGradient5724);fill-opacity:1;stroke:none;filter:url(#filter3733)"
         id="path33671"
         sodipodi:cx="58.041332"
         sodipodi:cy="37.27911"
         sodipodi:rx="29.284231"
         sodipodi:ry="29.284231"
         d="m 87.325563,37.27911 c 0,16.173234 -13.110996,29.284231 -29.284231,29.284231 -16.173234,0 -29.284231,-13.110997 -29.284231,-29.284231 0,-16.173234 13.110997,-29.2842312 29.284231,-29.2842312 16.173235,0 29.284231,13.1109972 29.284231,29.2842312 z"
         transform="matrix(1.3185473,0,0,1.0257096,41.569154,-5.4866646)" />
      <path
         transform="matrix(1.1737538,0,0,0.95788618,44.456684,13.407684)"
         d="m 71.379457,48.033543 c 0,1.482022 -3.72439,2.683438 -8.318658,2.683438 -4.594268,0 -8.318658,-1.201416 -8.318658,-2.683438 0,-1.482022 3.72439,-2.683438 8.318658,-2.683438 4.594268,0 8.318658,1.201416 8.318658,2.683438 z"
         sodipodi:ry="2.6834381"
         sodipodi:rx="8.3186579"
         sodipodi:cy="48.033543"
         sodipodi:cx="63.060799"
         id="path33677"
         style="opacity:0.22277228;fill:url(#linearGradient5726);fill-opacity:1;stroke:none;filter:url(#filter4092)"
         sodipodi:type="arc" />
      <path
         transform="matrix(0.50522201,0,0,0.50522201,-125.01798,60.664039)"
         style="fill:#000000;fill-opacity:1;stroke:none;filter:url(#filter5458)"
         d="m 435.4007,-89.054691 47.77316,0 0,4.920489 -14.2827,0.984098 19.20777,27.062692 20.68529,-16.237615 -13.29768,-2.952294 -1.47752,-4.428441 41.86308,0 -2.95504,4.92049 -13.29769,1.968196 -25.61035,22.63425 -1.97003,1.968197 0.98502,17.713763 8.37261,0 0,4.920488 -38.41554,0 0,-4.428444 12.80519,-0.984097 0.98501,-18.697858 -27.08788,-31.98318 -14.2827,-2.460245 z"
         id="path5456"
         inkscape:connector-curvature="0"
         sodipodi:nodetypes="ccccccccccccccccccccccc" />
      <path
         sodipodi:nodetypes="ccccccccccccccccccccccc"
         inkscape:connector-curvature="0"
         id="path5405"
         d="m 94.450814,15.166427 24.136046,0 0,2.485939 -7.21593,0.497188 9.70419,13.672668 10.45066,-8.203601 -6.71828,-1.491564 -0.74647,-2.237346 21.15015,0 -1.49296,2.48594 -6.71828,0.994376 -12.93891,11.435322 -0.99531,0.994376 0.49766,8.949383 4.23002,0 0,2.485939 -19.40837,0 0,-2.237347 6.46946,-0.497188 0.49765,-9.446569 -13.68539,-16.158607 -7.215936,-1.24297 z"
         style="fill:#ffffff;fill-opacity:1;stroke:none" />
      <path
         inkscape:connector-curvature="0"
         id="path5407"
         d="m 166.54636,1.4097324 0.63133,39.9282456 6.65867,1.262647 10.13692,-38.0223626 -17.42692,-3.16853 z m 0.32162,45.6220696 -0.95294,8.56456 7.92132,0.94103 0.95294,-8.552649 c 0,0 -6.65403,-0.636118 -7.92132,-0.952941 z"
         style="fill:url(#radialGradient5728);fill-opacity:1;stroke:none" />
      <path
         transform="matrix(0.38117654,0,0,0.38117654,-124.61296,71.748719)"
         d="m 767.09375,-180.6875 1.5625,98.25 11.96875,2.28125 24.9375,-93.53125 -38.46875,-7 z M 767.5,-61.25 765.71875,-45.15625 780.125,-43.4375 781.9375,-59.5 c -1.67889,-0.165629 -2.84771,-0.253482 -5.96875,-0.59375 C 772.59539,-60.461526 770.06,-60.858057 767.5,-61.25 z"
         id="path5424"
         style="fill:url(#radialGradient5730);fill-opacity:1;stroke:none;filter:url(#filter5452)"
         inkscape:original="M 763.84375 -184.53125 L 765.5 -79.78125 L 782.96875 -76.46875 L 809.5625 -176.21875 L 763.84375 -184.53125 z M 764.6875 -64.84375 L 762.1875 -42.375 L 782.96875 -39.90625 L 785.46875 -62.34375 C 785.46875 -62.34375 768.01218 -64.01258 764.6875 -64.84375 z "
         inkscape:radius="-3.1928563"
         sodipodi:type="inkscape:offset" />
      <g
         transform="matrix(0.62025094,0,0,0.62025094,-287.81198,-23.443704)"
         id="g5462">
        <g
           id="g13211"
           transform="matrix(2.8853767,0,0,2.8854676,-60.736631,56.774976)">
          <path
             transform="matrix(0.65240024,0,0,0.65240024,230.07702,3.7516027)"
             d="m 88,37.27911 c 0,16.545715 -13.412952,29.958668 -29.958668,29.958668 -16.545715,0 -29.958668,-13.412953 -29.958668,-29.958668 0,-16.545715 13.412953,-29.9586678 29.958668,-29.9586678 C 74.587048,7.3204422 88,20.733395 88,37.27911 z"
             sodipodi:ry="29.958668"
             sodipodi:rx="29.958668"
             sodipodi:cy="37.27911"
             sodipodi:cx="58.041332"
             id="path2563-4"
             style="fill:url(#radialGradient5732);fill-opacity:1;stroke:none"
             sodipodi:type="arc" />
          <path
             transform="matrix(0.55202058,-0.19594585,0.21823594,0.61481635,229.57426,22.012558)"
             d="m 80.503145,25.895178 c 0,2.148932 -1.742053,3.890985 -3.890985,3.890985 -2.148932,0 -3.890986,-1.742053 -3.890986,-3.890985 0,-2.148932 1.742054,-3.890985 3.890986,-3.890985 2.148932,0 3.890985,1.742053 3.890985,3.890985 z"
             sodipodi:ry="3.8909853"
             sodipodi:rx="3.8909853"
             sodipodi:cy="25.895178"
             sodipodi:cx="76.61216"
             id="path3343-4"
             style="fill:url(#radialGradient5734);fill-opacity:1;stroke:none"
             sodipodi:type="arc" />
          <path
             clip-path="url(#clipPath3739-6)"
             sodipodi:end="4.7234523"
             sodipodi:start="0"
             sodipodi:type="arc"
             style="opacity:0.40707966;fill:url(#radialGradient5736);fill-opacity:1;stroke:none;filter:url(#filter3733-4)"
             id="path3635-4"
             sodipodi:cx="58.041332"
             sodipodi:cy="37.27911"
             sodipodi:rx="28.834606"
             sodipodi:ry="28.834606"
             d="m 86.875938,37.27911 c 0,15.924913 -12.909692,28.834606 -28.834606,28.834606 -15.924913,0 -28.834606,-12.909693 -28.834606,-28.834606 0,-15.924913 12.909693,-28.8346062 28.834606,-28.8346062 0.106336,0 0.212671,5.882e-4 0.319,0.00176 l -0.319,28.8328416 z"
             transform="matrix(0.65240024,0,0,0.65240024,230.07702,3.7516027)" />
          <path
             transform="matrix(0.65240024,0,0,0.65240024,229.99113,3.7516027)"
             d="m 87.325563,37.27911 c 0,16.173234 -13.110996,29.284231 -29.284231,29.284231 -16.173234,0 -29.284231,-13.110997 -29.284231,-29.284231 0,-16.173234 13.110997,-29.2842312 29.284231,-29.2842312 16.173235,0 29.284231,13.1109972 29.284231,29.2842312 z"
             sodipodi:ry="29.284231"
             sodipodi:rx="29.284231"
             sodipodi:cy="37.27911"
             sodipodi:cx="58.041332"
             id="path3745-7"
             style="opacity:0.3539823;fill:url(#radialGradient5738);fill-opacity:1;stroke:none;filter:url(#filter3733-4)"
             sodipodi:type="arc"
             clip-path="url(#clipPath3739-6)" />
          <path
             sodipodi:type="arc"
             style="opacity:0.22277228;fill:url(#linearGradient5740);fill-opacity:1;stroke:none;filter:url(#filter4092-8)"
             id="path4013-6"
             sodipodi:cx="63.060799"
             sodipodi:cy="48.033543"
             sodipodi:rx="8.3186579"
             sodipodi:ry="2.6834381"
             d="m 71.379457,48.033543 c 0,1.482022 -3.72439,2.683438 -8.318658,2.683438 -4.594268,0 -8.318658,-1.201416 -8.318658,-2.683438 0,-1.482022 3.72439,-2.683438 8.318658,-2.683438 4.594268,0 8.318658,1.201416 8.318658,2.683438 z"
             transform="matrix(0.58075825,0,0,0.60926132,231.41985,15.769314)" />
        </g>
        <g
           id="g3783"
           transform="matrix(0.57619085,0,0,0.576209,638.92085,59.295711)"
           style="display:inline">
          <g
             id="g3744" />
        </g>
        <path
           style="opacity:0.56756759;fill:#ffffff;fill-opacity:1;stroke:none;filter:url(#filter6669)"
           d="m 128,123 c -24.87078,0 -48.906641,0.63341 -71.708842,1.8252 -0.734348,4.22298 -1.10934,8.57151 -1.10934,13.00814 0,40.94 32.622545,74.16666 72.818182,74.16666 40.19564,0 72.81819,-33.22666 72.81818,-74.16666 0,-4.43663 -0.375,-8.78516 -1.10933,-13.00814 C 176.90664,123.63341 152.87078,123 128,123 z"
           id="path6630"
           inkscape:connector-curvature="0"
           transform="matrix(0.57619085,0,0,0.576209,639.49704,63.752464)" />
        <path
           style="fill:url(#radialGradient5748);fill-opacity:1;stroke:none"
           d="m 713.24946,132.03323 c -15.06382,0 -29.62195,0.365 -43.43287,1.0517 -0.44478,2.43333 -0.67191,4.93899 -0.67191,7.49541 0,23.58999 19.75894,42.7355 44.10478,42.7355 24.34585,0 44.10481,-19.14551 44.10479,-42.7355 0,-2.55642 -0.22712,-5.06208 -0.6719,-7.49541 -13.81092,-0.6867 -28.36906,-1.0517 -43.43289,-1.0517 z"
           id="path6550"
           inkscape:connector-curvature="0" />
        <path
           id="path6556"
           d="m 713.24946,132.03323 c -15.06382,0 -29.62195,0.365 -43.43287,1.0517 -0.44478,2.43333 -0.67191,4.93899 -0.67191,7.49541 0,23.58999 19.75894,42.7355 44.10478,42.7355 24.34585,0 44.10481,-19.14551 44.10479,-42.7355 0,-2.55642 -0.22712,-5.06208 -0.6719,-7.49541 -13.81092,-0.6867 -28.36906,-1.0517 -43.43289,-1.0517 z"
           style="opacity:0.21171169;fill:url(#radialGradient5750);fill-opacity:1;stroke:none"
           inkscape:connector-curvature="0" />
        <path
           id="path6413"
           d="m 713.24946,132.89756 c -14.16928,0 -27.86293,0.36086 -40.85372,1.03987 -0.41838,2.40599 -0.63202,4.88349 -0.63202,7.41119 0,23.32494 18.58563,42.25532 41.48574,42.25532 22.90014,0 41.48576,-18.93038 41.48575,-42.25532 0,-2.5277 -0.21364,-5.0052 -0.632,-7.41119 -12.99081,-0.67901 -26.68444,-1.03987 -40.85375,-1.03987 z"
           style="fill:url(#linearGradient5752);fill-opacity:1;stroke:none"
           inkscape:connector-curvature="0" />
        <path
           style="opacity:0.2837838;fill:url(#linearGradient5754);fill-opacity:1;stroke:none"
           d="m 713.24946,146.15036 c -14.02685,0 -27.76209,0.22681 -41.12561,0.64824 0.0733,0.57924 0.15591,1.15694 0.25208,1.72863 13.2751,-0.42506 26.92925,-0.64824 40.87353,-0.64824 13.9443,0 27.59846,0.22318 40.87354,0.64824 0.0963,-0.57169 0.17874,-1.14939 0.2521,-1.72863 -13.36352,-0.42143 -27.09878,-0.64824 -41.12564,-0.64824 z"
           id="path6673"
           inkscape:connector-curvature="0" />
        <path
           style="fill:url(#linearGradient5756);fill-opacity:1;stroke:none"
           d="m 713.24946,132.89756 c -14.16928,0 -27.86293,0.36086 -40.85372,1.03987 -0.41838,2.40599 -0.63202,4.88349 -0.63202,7.41119 0,23.32494 18.58563,42.25532 41.48574,42.25532 22.90014,0 41.48576,-18.93038 41.48575,-42.25532 0,-2.5277 -0.21364,-5.0052 -0.632,-7.41119 -12.99081,-0.67901 -26.68444,-1.03987 -40.85375,-1.03987 z"
           id="path6705"
           inkscape:connector-curvature="0" />
        <path
           inkscape:connector-curvature="0"
           id="path4439"
           d="m 672.17683,147.47495 c 2.92396,20.41632 20.23415,36.15263 41.08555,36.15263 20.85123,0 38.11394,-15.73657 41.03811,-36.15263 l -82.12366,0 z"
           style="fill:url(#linearGradient5758);fill-opacity:1;stroke:none" />
        <path
           style="fill:url(#radialGradient5760);fill-opacity:1;stroke:none"
           d="m 685.74379,147.47495 c 0,9.36721 2.36522,19.61416 4.12924,28.7513 6.66846,4.65206 14.71365,7.40133 23.38935,7.40133 9.18219,0 17.65561,-3.04877 24.52798,-8.20788 2.94253,-7.29686 5.12555,-16.82773 5.12555,-27.94475 z"
           id="path5214"
           inkscape:connector-curvature="0"
           sodipodi:nodetypes="ccsccc" />
        <path
           clip-path="url(#clipPath6612)"
           id="path6610"
           d="m 128,120 c -24.59133,0 -48.357128,0.62629 -70.903125,1.80469 C 56.370779,125.98022 56,130.27989 56,134.66667 56,175.14667 88.255999,208 128,208 c 39.744,0 72.00001,-32.85333 72,-73.33333 0,-4.38678 -0.37078,-8.68645 -1.09687,-12.86198 C 176.35713,120.62629 152.59133,120 128,120 z"
           style="opacity:0.2342342;fill:none;stroke:#000000;stroke-width:9.31103611;stroke-linecap:round;stroke-linejoin:round;stroke-miterlimit:4;stroke-opacity:1;stroke-dasharray:none;filter:url(#filter6775)"
           inkscape:connector-curvature="0"
           transform="matrix(0.57619085,0,0,0.576209,639.49704,63.752464)" />
        <path
           sodipodi:nodetypes="ccsccc"
           inkscape:connector-curvature="0"
           id="path5249"
           d="m 675.51642,147.69115 c 0,7.15263 1.55794,13.41918 2.71988,19.4375 4.39242,3.06415 8.69168,4.375 14.40625,4.375 6.04818,0 10.62951,-1.50812 15.15625,-4.90625 1.9382,-4.80619 3.37613,-11.41403 3.37613,-18.90625 z"
           style="fill:url(#radialGradient5762);fill-opacity:1;stroke:none;filter:url(#filter5257)"
           transform="matrix(1.5181728,0,0,1.5182206,-338.28871,-76.752803)" />
      </g>
    </g>
    <path
       sodipodi:type="arc"
       style="fill:url(#radialGradient3371);fill-opacity:1;stroke:none"
       id="path5814"
       sodipodi:cx="83.532471"
       sodipodi:cy="65.350647"
       sodipodi:rx="3.5324676"
       sodipodi:ry="4.6753249"
       d="m 87.064938,65.350647 a 3.5324676,4.6753249 0 1 1 -7.064935,0 3.5324676,4.6753249 0 1 1 7.064935,0 z"
       transform="matrix(1.2184386,0,0,1.2184386,-25.12773,-14.064143)" />
    <path
       transform="matrix(1.2184386,0,0,1.2184386,-5.6138147,-14.064143)"
       d="m 87.064938,65.350647 a 3.5324676,4.6753249 0 1 1 -7.064935,0 3.5324676,4.6753249 0 1 1 7.064935,0 z"
       sodipodi:ry="4.6753249"
       sodipodi:rx="3.5324676"
       sodipodi:cy="65.350647"
       sodipodi:cx="83.532471"
       id="path5824"
       style="fill:url(#radialGradient3369);fill-opacity:1;stroke:none"
       sodipodi:type="arc" />
    <path
       inkscape:connector-curvature="0"
       style="fill:url(#radialGradient3367);fill-opacity:1;stroke:none;display:inline"
       d="m 76.719725,60.587686 c -1.106297,2e-6 -2.082719,0.355757 -2.686669,0.883317 0.240123,0.110549 0.500017,0.201804 0.772878,0.282169 0.542645,-0.193478 1.201135,-0.306706 1.913791,-0.306706 0.735433,0 1.4108,0.126349 1.962863,0.331244 0.273231,-0.07622 0.531057,-0.163665 0.772878,-0.269903 -0.599566,-0.550203 -1.601669,-0.920122 -2.735741,-0.920121 z"
       id="path3706" />
    <use
       style="display:inline"
       height="336"
       width="256"
       transform="matrix(0.32219319,0,0,0.32220334,66.090065,33.858948)"
       id="use3781"
       xlink:href="#g3744"
       y="0"
       x="0" />
    <path
       id="path5881"
       d="m 96.144127,60.587686 c -1.106297,2e-6 -2.082718,0.355757 -2.686668,0.883317 0.240122,0.110549 0.500017,0.201804 0.772877,0.282169 0.542645,-0.193478 1.201135,-0.306706 1.913791,-0.306706 0.735438,0 1.410806,0.126349 1.962869,0.331244 0.273222,-0.07622 0.531056,-0.163665 0.772867,-0.269903 -0.599557,-0.550203 -1.601662,-0.920122 -2.735736,-0.920121 z"
       style="fill:url(#radialGradient3365);fill-opacity:1;stroke:none;display:inline"
       inkscape:connector-curvature="0" />
    <use
       x="0"
       y="0"
       xlink:href="#g3744"
       id="use5883"
       transform="matrix(0.32219319,0,0,0.32220334,82.032109,33.858948)"
       width="256"
       height="336"
       style="display:inline" />
  </g>
</svg>
