<?xml version="1.0" encoding="UTF-8" standalone="no"?>
<!-- Created with Inkscape (http://www.inkscape.org/) -->

<svg
   xmlns:dc="http://purl.org/dc/elements/1.1/"
   xmlns:cc="http://creativecommons.org/ns#"
   xmlns:rdf="http://www.w3.org/1999/02/22-rdf-syntax-ns#"
   xmlns:svg="http://www.w3.org/2000/svg"
   xmlns="http://www.w3.org/2000/svg"
   xmlns:xlink="http://www.w3.org/1999/xlink"
   xmlns:sodipodi="http://sodipodi.sourceforge.net/DTD/sodipodi-0.dtd"
   xmlns:inkscape="http://www.inkscape.org/namespaces/inkscape"
   width="128"
   height="128"
   id="svg2"
   sodipodi:version="0.32"
   inkscape:version="0.47 r22583"
   version="1.0"
   sodipodi:docname="printer-laser.svgz"
   inkscape:output_extension="org.inkscape.output.svgz.inkscape"
   inkscape:export-filename="/home/pinheiro/pics/oxygen-icons/scalable/devices/printer-laser.png"
   inkscape:export-xdpi="90"
   inkscape:export-ydpi="90">
  <defs
     id="defs4">
    <inkscape:perspective
       sodipodi:type="inkscape:persp3d"
       inkscape:vp_x="0 : 64 : 1"
       inkscape:vp_y="0 : 1000 : 0"
       inkscape:vp_z="128 : 64 : 1"
       inkscape:persp3d-origin="64 : 42.666667 : 1"
       id="perspective159" />
    <linearGradient
       inkscape:collect="always"
       id="linearGradient16203">
      <stop
         style="stop-color:#000000;stop-opacity:1;"
         offset="0"
         id="stop16205" />
      <stop
         style="stop-color:#000000;stop-opacity:0;"
         offset="1"
         id="stop16207" />
    </linearGradient>
    <linearGradient
       inkscape:collect="always"
       id="linearGradient16181">
      <stop
         style="stop-color:#000000;stop-opacity:0.44351464"
         offset="0"
         id="stop16183" />
      <stop
         style="stop-color:#000000;stop-opacity:0;"
         offset="1"
         id="stop16185" />
    </linearGradient>
    <linearGradient
       id="linearGradient16138">
      <stop
         id="stop16140"
         offset="0"
         style="stop-color:#ffffff;stop-opacity:1;" />
      <stop
         style="stop-color:#d4d4d4;stop-opacity:1;"
         offset="0.77628052"
         id="stop16144" />
      <stop
         id="stop16142"
         offset="1"
         style="stop-color:#a9a9a9;stop-opacity:1" />
    </linearGradient>
    <linearGradient
       inkscape:collect="always"
       id="linearGradient16076">
      <stop
         style="stop-color:#ffffff;stop-opacity:1;"
         offset="0"
         id="stop16078" />
      <stop
         style="stop-color:#ffffff;stop-opacity:0;"
         offset="1"
         id="stop16080" />
    </linearGradient>
    <linearGradient
       inkscape:collect="always"
       id="linearGradient16018">
      <stop
         style="stop-color:#ffffff;stop-opacity:1;"
         offset="0"
         id="stop16020" />
      <stop
         style="stop-color:#ffffff;stop-opacity:0;"
         offset="1"
         id="stop16022" />
    </linearGradient>
    <linearGradient
       inkscape:collect="always"
       id="linearGradient15999">
      <stop
         style="stop-color:#2d2d2d;stop-opacity:1;"
         offset="0"
         id="stop16001" />
      <stop
         style="stop-color:#2d2d2d;stop-opacity:0;"
         offset="1"
         id="stop16003" />
    </linearGradient>
    <linearGradient
       inkscape:collect="always"
       id="linearGradient15978">
      <stop
         style="stop-color:#ffffff;stop-opacity:1;"
         offset="0"
         id="stop15980" />
      <stop
         style="stop-color:#ffffff;stop-opacity:0;"
         offset="1"
         id="stop15982" />
    </linearGradient>
    <linearGradient
       inkscape:collect="always"
       id="linearGradient15942">
      <stop
         style="stop-color:#494f59;stop-opacity:1;"
         offset="0"
         id="stop15944" />
      <stop
         style="stop-color:#494f59;stop-opacity:0;"
         offset="1"
         id="stop15946" />
    </linearGradient>
    <linearGradient
       id="linearGradient15907">
      <stop
         style="stop-color:#a7ff37;stop-opacity:1;"
         offset="0"
         id="stop15909" />
      <stop
         id="stop15915"
         offset="0.76602578"
         style="stop-color:#74ba1b;stop-opacity:1;" />
      <stop
         style="stop-color:#427600;stop-opacity:1;"
         offset="1"
         id="stop15911" />
    </linearGradient>
    <linearGradient
       id="linearGradient15885">
      <stop
         style="stop-color:#c1c2c6;stop-opacity:1;"
         offset="0"
         id="stop15887" />
      <stop
         style="stop-color:#8a8c94;stop-opacity:1;"
         offset="1"
         id="stop15889" />
    </linearGradient>
    <linearGradient
       inkscape:collect="always"
       id="linearGradient15826">
      <stop
         style="stop-color:#0a0a0a;stop-opacity:1;"
         offset="0"
         id="stop15828" />
      <stop
         style="stop-color:#0a0a0a;stop-opacity:0;"
         offset="1"
         id="stop15830" />
    </linearGradient>
    <linearGradient
       inkscape:collect="always"
       id="linearGradient15772">
      <stop
         style="stop-color:#000000;stop-opacity:1;"
         offset="0"
         id="stop15774" />
      <stop
         style="stop-color:#000000;stop-opacity:0;"
         offset="1"
         id="stop15776" />
    </linearGradient>
    <linearGradient
       id="linearGradient14266">
      <stop
         id="stop14268"
         offset="0"
         style="stop-color:#ffffff;stop-opacity:1;" />
      <stop
         style="stop-color:#b8babd;stop-opacity:1;"
         offset="0.05526761"
         id="stop15744" />
      <stop
         style="stop-color:#9e9fa4;stop-opacity:1;"
         offset="0.56930101"
         id="stop14270" />
      <stop
         style="stop-color:#c7c8cd;stop-opacity:1"
         offset="0.6357947"
         id="stop14272" />
      <stop
         id="stop14274"
         offset="0.75"
         style="stop-color:#e1e2e7;stop-opacity:1" />
      <stop
         style="stop-color:#dfe0e5;stop-opacity:1"
         offset="0.79792732"
         id="stop14276" />
      <stop
         id="stop14278"
         offset="1"
         style="stop-color:#b6b8bd;stop-opacity:1" />
    </linearGradient>
    <linearGradient
       id="linearGradient14229">
      <stop
         style="stop-color:#d5d8db;stop-opacity:1;"
         offset="0"
         id="stop14231" />
      <stop
         id="stop14239"
         offset="0.56930101"
         style="stop-color:#d5d6db;stop-opacity:1" />
      <stop
         id="stop14237"
         offset="0.61744404"
         style="stop-color:#e1e1e7;stop-opacity:1" />
      <stop
         style="stop-color:#fbfafc;stop-opacity:1;"
         offset="0.72430909"
         id="stop14241" />
      <stop
         id="stop14243"
         offset="0.79792732"
         style="stop-color:#dadce1;stop-opacity:1" />
      <stop
         style="stop-color:#b8bdc1;stop-opacity:1"
         offset="1"
         id="stop14233" />
    </linearGradient>
    <linearGradient
       id="linearGradient4244">
      <stop
         style="stop-color:#2b2b2b;stop-opacity:1;"
         offset="0"
         id="stop4246" />
      <stop
         id="stop4252"
         offset="0.5"
         style="stop-color:#ffffff;stop-opacity:1;" />
      <stop
         style="stop-color:#3d3d3d;stop-opacity:1;"
         offset="1"
         id="stop4248" />
    </linearGradient>
    <linearGradient
       inkscape:collect="always"
       xlink:href="#linearGradient14229"
       id="linearGradient14235"
       x1="-52"
       y1="112"
       x2="-52"
       y2="15.667243"
       gradientUnits="userSpaceOnUse"
       gradientTransform="matrix(0.98596284,0,0,1.0199782,137.88969,-0.29854813)" />
    <filter
       inkscape:collect="always"
       id="filter14247"
       x="-0.036002254"
       width="1.0720045"
       y="-0.86765432"
       height="2.7353086">
      <feGaussianBlur
         inkscape:collect="always"
         stdDeviation="1.8076132"
         id="feGaussianBlur14249" />
    </filter>
    <filter
       inkscape:collect="always"
       id="filter15768"
       x="-0.085551062"
       width="1.1711021"
       y="-0.19282407"
       height="1.3856481">
      <feGaussianBlur
         inkscape:collect="always"
         stdDeviation="1.2854938"
         id="feGaussianBlur15770" />
    </filter>
    <linearGradient
       inkscape:collect="always"
       xlink:href="#linearGradient15772"
       id="linearGradient15778"
       x1="134"
       y1="79"
       x2="162"
       y2="59"
       gradientUnits="userSpaceOnUse" />
    <clipPath
       clipPathUnits="userSpaceOnUse"
       id="clipPath15780">
      <path
         id="path15782"
         d="m 127.9375,72 0,4 c 0,2.77 2.23,5 5,5 L 159,81 c 2.77,0 5,-2.23 5,-5 l 0,-4 -36.0625,0 z"
         style="opacity:0.41841006;fill:#d6d5db;fill-opacity:1;stroke:none"
         inkscape:transform-center-x="86.03125"
         sodipodi:nodetypes="ccccccc" />
    </clipPath>
    <linearGradient
       inkscape:collect="always"
       xlink:href="#linearGradient4244"
       id="linearGradient15804"
       x1="-7.5579267"
       y1="100.6076"
       x2="126.1358"
       y2="23.419485"
       gradientUnits="userSpaceOnUse"
       gradientTransform="matrix(0.59786248,0,0,0.59786251,27.873603,25.944023)" />
    <filter
       inkscape:collect="always"
       id="filter15816"
       x="-0.020231349"
       width="1.0404627"
       y="-0.11863943"
       height="1.2372789">
      <feGaussianBlur
         inkscape:collect="always"
         stdDeviation="0.20152754"
         id="feGaussianBlur15818" />
    </filter>
    <clipPath
       clipPathUnits="userSpaceOnUse"
       id="clipPath15844">
      <path
         mask="none"
         style="opacity:0.59414224;fill:url(#linearGradient15848);fill-opacity:1;stroke:none"
         d="m -120,16 c -3.324,0 -3.9661,0.840883 -5,4 l -4.90625,14.9375 C -131.24343,39.023296 -132,45.536783 -132,50.0625 L -132,108 c 0,3.324 2.676,6 6,6 l 110,0 c 3.324,0 6,-2.676 6,-6 l 0,-57.9375 c 0,-4.525717 -0.75657,-11.039204 -2.09375,-15.125 L -17,20 c -1.0339,-3.159117 -1.676,-4 -5,-4 l -98,0 z"
         id="path15846"
         sodipodi:nodetypes="ccccccccccccc"
         clip-path="none" />
    </clipPath>
    <linearGradient
       inkscape:collect="always"
       xlink:href="#linearGradient15826"
       id="linearGradient15848"
       gradientUnits="userSpaceOnUse"
       gradientTransform="translate(-272,0)"
       x1="112.9984"
       y1="63.680275"
       x2="144.92528"
       y2="63.680275" />
    <filter
       inkscape:collect="always"
       id="filter15856">
      <feGaussianBlur
         inkscape:collect="always"
         stdDeviation="1.5843621"
         id="feGaussianBlur15858" />
    </filter>
    <clipPath
       clipPathUnits="userSpaceOnUse"
       id="clipPath15873">
      <path
         style="opacity:0.209205;fill:url(#linearGradient15877);fill-opacity:1;stroke:none"
         mask="none"
         d="M 3,128.16667 3,121.5 c 0,-5.54 2.676,-10 6,-10 l 110,0 c 3.324,0 6,4.46 6,10 l 0,6.66667 -122,0 z"
         id="path15875" />
    </clipPath>
    <linearGradient
       inkscape:collect="always"
       xlink:href="#linearGradient14266"
       id="linearGradient15877"
       gradientUnits="userSpaceOnUse"
       gradientTransform="matrix(1,0,0,-1.6666667,139,301.5)"
       x1="-52"
       y1="116.00498"
       x2="-52"
       y2="15.667243" />
    <radialGradient
       inkscape:collect="always"
       xlink:href="#linearGradient15907"
       id="radialGradient15919"
       gradientUnits="userSpaceOnUse"
       cx="117.50485"
       cy="101.47604"
       fx="117.50485"
       fy="101.47604"
       r="1.4951468" />
    <linearGradient
       inkscape:collect="always"
       xlink:href="#linearGradient15942"
       id="linearGradient15948"
       x1="74.145844"
       y1="48.236305"
       x2="74.145844"
       y2="15.995978"
       gradientUnits="userSpaceOnUse"
       gradientTransform="matrix(1.0248751,0,0,0.93194778,-2.6118871,1.1099387)" />
    <linearGradient
       inkscape:collect="always"
       xlink:href="#linearGradient15978"
       id="linearGradient15984"
       x1="88"
       y1="-76.242203"
       x2="88"
       y2="56"
       gradientUnits="userSpaceOnUse"
       gradientTransform="matrix(1.0248751,0,0,0.93194778,-2.6118871,1.1099387)" />
    <linearGradient
       inkscape:collect="always"
       xlink:href="#linearGradient15978"
       id="linearGradient15992"
       gradientUnits="userSpaceOnUse"
       x1="76.5"
       y1="37.520771"
       x2="76.5"
       y2="31.491938"
       gradientTransform="matrix(1.0248751,0,0,0.93194778,-2.6118871,1.1099387)" />
    <linearGradient
       inkscape:collect="always"
       xlink:href="#linearGradient15999"
       id="linearGradient16014"
       gradientUnits="userSpaceOnUse"
       x1="72.203217"
       y1="24.103592"
       x2="72.203217"
       y2="32.002613"
       gradientTransform="matrix(1.0248751,0,0,0.93194778,-2.6118871,1.1099387)" />
    <linearGradient
       inkscape:collect="always"
       xlink:href="#linearGradient16018"
       id="linearGradient16024"
       x1="38"
       y1="26"
       x2="38"
       y2="32"
       gradientUnits="userSpaceOnUse"
       gradientTransform="matrix(3.9872502,0,0,0.93194778,-111.52187,0.97351568)" />
    <linearGradient
       inkscape:collect="always"
       xlink:href="#linearGradient16018"
       id="linearGradient16032"
       gradientUnits="userSpaceOnUse"
       gradientTransform="matrix(2.0497501,0,0,0.93194778,-40.865627,0.97351568)"
       x1="38"
       y1="26"
       x2="38"
       y2="32" />
    <linearGradient
       inkscape:collect="always"
       xlink:href="#linearGradient16018"
       id="linearGradient16040"
       gradientUnits="userSpaceOnUse"
       x1="38"
       y1="26"
       x2="38"
       y2="32"
       gradientTransform="matrix(2.0497501,0,0,0.93194778,11.736363,2.0418865)" />
    <linearGradient
       inkscape:collect="always"
       xlink:href="#linearGradient16018"
       id="linearGradient16044"
       gradientUnits="userSpaceOnUse"
       gradientTransform="matrix(2.0497501,0,0,0.93194778,15.835862,2.0418865)"
       x1="38"
       y1="26"
       x2="38"
       y2="32" />
    <filter
       inkscape:collect="always"
       id="filter16062"
       x="-0.023448833"
       width="1.0468977"
       y="-0.12532971"
       height="1.2506594">
      <feGaussianBlur
         inkscape:collect="always"
         stdDeviation="0.80529281"
         id="feGaussianBlur16064" />
    </filter>
    <clipPath
       clipPathUnits="userSpaceOnUse"
       id="clipPath16070">
      <path
         sodipodi:nodetypes="cccccccccccccccc"
         style="fill:url(#linearGradient16074);fill-opacity:1;stroke:none"
         mask="none"
         d="m 32,16 c -0.04948,0.223408 -0.104456,0.365693 -0.15625,0.625 l -3.4375,16.3125 C 27.678011,36.377331 27,39.65626 27,42.5 l 0,3.5 77,0 0,-3.5 c 0,-2.872723 -0.53302,-6.12751 -1.28125,-9.5625 L 99.15625,16.625 C 99.10446,16.365693 99.04948,16.223408 99,16 l -67,0 z m 0.88125,0 65.2375,0 2.2875,11 -69.71875,0 2.19375,-11 z"
         id="path16072" />
    </clipPath>
    <linearGradient
       inkscape:collect="always"
       xlink:href="#linearGradient15942"
       id="linearGradient16074"
       gradientUnits="userSpaceOnUse"
       x1="76"
       y1="12"
       x2="76"
       y2="28" />
    <linearGradient
       inkscape:collect="always"
       xlink:href="#linearGradient16076"
       id="linearGradient16082"
       x1="59.350136"
       y1="45.817299"
       x2="59.350136"
       y2="37.508793"
       gradientUnits="userSpaceOnUse" />
    <radialGradient
       inkscape:collect="always"
       xlink:href="#linearGradient16138"
       id="radialGradient16124"
       cx="112.65003"
       cy="32.664448"
       fx="112.62651"
       fy="30.449385"
       r="3.1992245"
       gradientTransform="matrix(1.2174064,0,0.03456132,0.41602345,-25.675572,19.464494)"
       gradientUnits="userSpaceOnUse" />
    <filter
       inkscape:collect="always"
       id="filter16154">
      <feGaussianBlur
         inkscape:collect="always"
         stdDeviation="0.082681545"
         id="feGaussianBlur16156" />
    </filter>
    <radialGradient
       inkscape:collect="always"
       xlink:href="#linearGradient16181"
       id="radialGradient16187"
       cx="65.5625"
       cy="91.697258"
       fx="65.3125"
       fy="73.706467"
       r="37.59375"
       gradientTransform="matrix(1.0248751,0,0,0.15540418,-2.6118871,19.59447)"
       gradientUnits="userSpaceOnUse" />
    <linearGradient
       inkscape:collect="always"
       xlink:href="#linearGradient15999"
       id="linearGradient16189"
       gradientUnits="userSpaceOnUse"
       x1="71.109795"
       y1="34.998165"
       x2="71.109795"
       y2="15.131305"
       gradientTransform="matrix(1.0248751,0,0,0.93194778,-2.6118871,1.1099387)" />
    <linearGradient
       inkscape:collect="always"
       xlink:href="#linearGradient15942"
       id="linearGradient16191"
       gradientUnits="userSpaceOnUse"
       x1="76"
       y1="12"
       x2="76"
       y2="28"
       gradientTransform="matrix(1.0248751,0,0,0.93194778,-2.6118871,1.1099387)" />
    <filter
       inkscape:collect="always"
       id="filter16199"
       x="-0.035937011"
       width="1.071874"
       y="-0.86608195"
       height="2.7321639">
      <feGaussianBlur
         inkscape:collect="always"
         stdDeviation="1.8043374"
         id="feGaussianBlur16201" />
    </filter>
    <linearGradient
       inkscape:collect="always"
       xlink:href="#linearGradient16203"
       id="linearGradient16209"
       x1="72"
       y1="115"
       x2="72"
       y2="120"
       gradientUnits="userSpaceOnUse"
       gradientTransform="matrix(0.9770126,0,0,1.0471184,1.4136873,-7.5810011)" />
    <radialGradient
       inkscape:collect="always"
       xlink:href="#linearGradient15907"
       id="radialGradient3739"
       gradientUnits="userSpaceOnUse"
       cx="117.50485"
       cy="101.47604"
       fx="117.50485"
       fy="101.47604"
       r="1.4951468" />
    <linearGradient
       inkscape:collect="always"
       xlink:href="#linearGradient16018"
       id="linearGradient3743"
       gradientUnits="userSpaceOnUse"
       gradientTransform="matrix(3.9872502,0,0,0.93194778,-59.521868,0.97351568)"
       x1="38"
       y1="26"
       x2="38"
       y2="32" />
  </defs>
  <sodipodi:namedview
     id="base"
     pagecolor="#ffffff"
     bordercolor="#666666"
     borderopacity="1.0"
     gridtolerance="10000"
     guidetolerance="10"
     objecttolerance="10"
     inkscape:pageopacity="0.0"
     inkscape:pageshadow="2"
     inkscape:zoom="2.828427"
     inkscape:cx="80.957756"
     inkscape:cy="1.5915701"
     inkscape:document-units="px"
     inkscape:current-layer="layer1"
     width="128px"
     height="128px"
     showgrid="true"
     inkscape:grid-points="true"
     inkscape:window-width="1240"
     inkscape:window-height="791"
     inkscape:window-x="195"
     inkscape:window-y="251"
     showguides="true"
     inkscape:guide-bbox="true"
     inkscape:snap-global="false"
     inkscape:snap-nodes="true"
     inkscape:object-paths="true"
     inkscape:snap-intersection-paths="true"
     inkscape:object-nodes="true"
     inkscape:snap-smooth-nodes="true"
     inkscape:snap-midpoints="true"
     inkscape:snap-grids="true"
     inkscape:snap-bbox="true"
     inkscape:window-maximized="0">
    <inkscape:grid
       id="GridFromPre046Settings"
       type="xygrid"
       originx="0px"
       originy="0px"
       spacingx="4px"
       spacingy="4px"
       color="#0000ff"
       empcolor="#0000ff"
       opacity="0.2"
       empopacity="0.4"
       empspacing="4"
       visible="true"
       enabled="true"
       snapvisiblegridlinesonly="true" />
  </sodipodi:namedview>
  <metadata
     id="metadata7">
    <rdf:RDF>
      <cc:Work
         rdf:about="">
        <dc:format>image/svg+xml</dc:format>
        <dc:type
           rdf:resource="http://purl.org/dc/dcmitype/StillImage" />
        <dc:title></dc:title>
      </cc:Work>
    </rdf:RDF>
  </metadata>
  <g
     inkscape:label="Layer 1"
     inkscape:groupmode="layer"
     id="layer1">
    <rect
       style="fill:#000000;fill-opacity:1;stroke:none;filter:url(#filter14247)"
       id="rect14245"
       width="120.5"
       height="5"
       x="3.5"
       y="111"
       rx="6"
       ry="5"
       transform="matrix(0.98596284,0,0,-0.61198696,0.84087167,185.8295)" />
    <path
       style="fill:url(#linearGradient14235);fill-opacity:1;stroke:none"
       d="m 15.630313,16.021104 c -3.27734,0 -3.910427,0.857683 -4.929814,4.079913 L 5.8631196,35.336943 C 4.5447098,39.504366 3.79876,46.147981 3.79876,50.764114 l 0,59.094996 c 0,3.3904 2.6384364,6.11986 5.9157766,6.11986 l 108.4559134,0 c 3.27733,0 5.91576,-2.72946 5.91576,-6.11986 l 0,-59.094996 c 0,-4.616133 -0.74594,-11.259748 -2.06436,-15.427171 l -4.83737,-15.235926 c -1.01939,-3.22223 -1.65247,-4.079913 -4.92982,-4.079913 l -96.624347,0 z"
       id="rect13446"
       sodipodi:nodetypes="ccccccccccccc" />
    <path
       style="fill:url(#linearGradient15984);fill-opacity:1;stroke:none"
       d="m 28.102336,16.021103 c -0.03296,0.109462 -0.05538,0.200343 -0.09608,0.378604 -0.0029,0.013 0.0029,0.01552 0,0.02912 l -3.523012,15.17328 c -0.746991,3.208476 -1.473258,6.317265 -1.473258,9.115614 l 0,3.261817 c 5.5e-5,0.487954 0.488266,0.9319 1.024874,0.931948 l 79.94026,0 c 0.5366,-4.8e-5 1.02482,-0.443994 1.02488,-0.931948 l 0,-3.261817 c 0,-2.792507 -0.57118,-5.884695 -1.34515,-9.115614 l -3.65112,-15.173278 c -0.003,-0.01359 0.003,-0.01613 0,-0.02912 -0.04063,-0.178269 -0.06311,-0.269145 -0.09605,-0.378604 l -1.056951,0 c 0.05072,0.208205 0.107051,0.340807 0.160136,0.582468 l 3.651099,15.202399 c 0.76687,3.201232 1.31313,6.234523 1.31313,8.911751 l 0,3.261817 -79.940245,0 0,-3.261817 c 0,-2.650218 0.694876,-5.706008 1.441231,-8.911751 l 3.522999,-15.202403 c 0.05309,-0.241661 0.109424,-0.374263 0.160137,-0.582468 l -1.056903,0 z m 2.882461,0.931948 -2.145832,9.319478 70.428131,0 -2.241916,-9.319478 -66.040383,0 z m 0.832711,0 64.374962,0 1.793531,8.387531 -67.89797,0 1.729477,-8.387531 z"
       id="path15966"
       sodipodi:nodetypes="csccccccccccscccccccccccccccccccccc" />
    <path
       style="fill:url(#linearGradient15948);fill-opacity:1;stroke:none"
       mask="none"
       d="m 29.159238,16.021103 c -0.05071,0.208205 -0.107055,0.340807 -0.160136,0.582468 L 25.476093,31.80597 c -0.746353,3.205743 -1.44123,6.261533 -1.44123,8.91175 l 0,3.261818 79.940237,0 0,-3.261818 c 0,-2.677228 -0.54626,-5.710519 -1.31312,-8.91175 L 99.010873,16.603571 c -0.05305,-0.241661 -0.109427,-0.374263 -0.160136,-0.582468 l -69.691499,0 z m 0.800685,0.931948 68.090133,0 2.241914,9.319478 -72.47788,0 2.145833,-9.319478 z"
       id="path14260"
       sodipodi:nodetypes="cccccccccccccccc" />
    <rect
       style="opacity:0.50638302;fill:#000000;fill-opacity:0.62068942;stroke:none"
       id="rect14254"
       width="120.28745"
       height="3.9999983"
       x="4"
       y="56"
       rx="0"
       ry="0" />
    <rect
       ry="0"
       rx="0"
       y="52"
       x="3.8562584"
       height="4.0000014"
       width="120.28748"
       id="rect14256"
       style="fill:#ffffff;fill-opacity:0.56768559;stroke:none" />
    <path
       sodipodi:nodetypes="csccccccccccsccccccccccccccccccccccc"
       id="path15990"
       d="m 28.102336,16.021103 c -0.03296,0.109462 -0.05538,0.200343 -0.09608,0.378604 -0.0029,0.013 0.0029,0.01552 0,0.02912 l -3.523012,15.17328 c -0.746991,3.208476 -1.473258,6.317265 -1.473258,9.115614 l 0,3.261817 c 5.5e-5,0.487954 0.488266,2.863847 1.024874,2.863896 l 79.94026,0 c 0.5366,-4.9e-5 1.02482,-2.375942 1.02488,-2.863896 l 0,-3.261817 c 0,-2.792507 -0.57118,-5.884695 -1.34515,-9.115614 l -3.65112,-15.173278 c -0.003,-0.01359 0.003,-0.01613 0,-0.02912 -0.04063,-0.178269 -0.06311,-0.269145 -0.09605,-0.378604 l -1.056951,0 c 0.05072,0.208205 0.107051,0.340807 0.160136,0.582468 l 3.651095,15.202399 c 0.76687,3.201232 1.31313,6.234523 1.31313,8.911751 l 0,3.261817 -79.940241,0 0,-3.261817 c 0,-2.650218 0.694876,-5.706008 1.441231,-8.911751 l 3.522999,-15.202403 c 0.05309,-0.241661 0.109424,-0.374263 0.160137,-0.582468 l -1.056903,0 2.3e-5,2e-6 z m 2.882461,0.931948 -2.145832,9.319478 70.428131,0 -2.241916,-9.319478 -66.040383,0 z m 0.832711,0 64.374962,0 1.793531,8.387531 -67.89797,0 1.729477,-8.387531 z"
       style="fill:url(#linearGradient15992);fill-opacity:1;stroke:none" />
    <path
       clip-path="url(#clipPath15844)"
       sodipodi:nodetypes="ccccccccccccc"
       id="path15834"
       d="m -120,15 c -3.324,0 -3.9661,0.840883 -5,4 l -4.90625,15.9375 C -131.24343,39.023296 -132,45.536783 -132,50.0625 L -132,108 c 0,3.324 2.676,6 6,6 l 110,0 c 3.324,0 6,-2.676 6,-6 l 0,-57.9375 c 0,-4.525717 -0.75657,-11.039204 -2.09375,-15.125 L -17,19 c -1.0339,-3.159117 -1.676,-4 -5,-4 l -98,0 z"
       style="opacity:0.20083684;fill:none;stroke:#000000;stroke-width:1.70000005;stroke-miterlimit:4;stroke-opacity:1;stroke-dasharray:none;filter:url(#filter15856)"
       mask="none"
       transform="matrix(0.98596284,0,0,1.0199782,133.94584,-0.29854813)" />
    <rect
       transform="matrix(0.98596284,0,0,-0.61198696,0.84087167,184.21552)"
       ry="3.077714"
       rx="6"
       y="111"
       x="3.5"
       height="8.1774263"
       width="120.32071"
       id="rect15860"
       style="opacity:0.80930233;fill:#ffffff;fill-opacity:1;stroke:none;filter:url(#filter16199)"
       clip-path="url(#clipPath15873)" />
    <path
       transform="matrix(0.98596284,0,0.37675646,1.1495286,-11.716779,-4.1381646)"
       d="m 116,33.330952 a 3.1992245,1.3309524 0 1 1 -6.39845,0 3.1992245,1.3309524 0 1 1 6.39845,0 z"
       sodipodi:ry="1.3309524"
       sodipodi:rx="3.1992245"
       sodipodi:cy="33.330952"
       sodipodi:cx="112.80077"
       id="path16126"
       style="opacity:0.66527201;fill:#111111;fill-opacity:0.91266378;stroke:none;filter:url(#filter16154)"
       sodipodi:type="arc" />
    <path
       transform="matrix(0.98596284,0,0,1.0199782,133.94584,-0.29854813)"
       mask="none"
       style="opacity:0.20083683999999999;fill:none;stroke:#000000;stroke-width:4.79444941;stroke-miterlimit:4;stroke-opacity:1;stroke-dasharray:none;filter:url(#filter15856)"
       d="m -120,15 c -3.324,0 -3.9661,0.840883 -5,4 l -4.90625,15.9375 C -131.24343,39.023296 -132,45.536783 -132,50.0625 L -132,108 c 0,3.324 2.676,6 6,6 l 110,0 c 3.324,0 6,-2.676 6,-6 l 0,-57.9375 c 0,-4.525717 -0.75657,-11.039204 -2.09375,-15.125 L -17,19 c -1.0339,-3.159117 -1.676,-4 -5,-4 L -79.934059,15 -120,15 z"
       id="path15921"
       sodipodi:nodetypes="cccccccccccccc"
       clip-path="url(#clipPath15844)" />
    <path
       id="path15986"
       d="m 29.159238,16.021103 c -0.05071,0.208205 -0.107055,0.340807 -0.160136,0.582468 L 25.476093,31.80597 c -0.746353,3.205743 -1.44123,6.261533 -1.44123,8.91175 l 0,3.261818 79.940237,0 0,-3.261818 c 0,-2.677228 -0.54626,-5.710519 -1.31312,-8.91175 L 99.010873,16.603571 c -0.05305,-0.241661 -0.109427,-0.374263 -0.160136,-0.582468 l -69.691499,0 z m 1.928045,0 65.835409,0 2.344404,10.251426 -70.428131,0 2.248318,-10.251426 z"
       mask="none"
       style="fill:url(#linearGradient16191);fill-opacity:1;stroke:none"
       sodipodi:nodetypes="cccccccccccccccc" />
    <path
       style="fill:url(#linearGradient16189);fill-opacity:1;stroke:none"
       d="m 32,24 0,4 -5.665388,0.06837 L 24.985313,36 103.1,36 c -0.34332,-1.584565 -1.24005,-6.509176 -1.61059,-8.056627 l -5.213296,0.125 -0.25,-4.238895 L 84,24 l 0,4 -40,0 0,-4 -12,0 z"
       id="rect15994"
       sodipodi:nodetypes="ccccccccccccc" />
    <rect
       style="fill:url(#linearGradient16024);fill-opacity:1;stroke:none"
       id="rect16016"
       width="3.9872501"
       height="5.5916867"
       x="36.006374"
       y="28" />
    <path
       style="opacity:0.66527201;fill:url(#linearGradient16082);fill-opacity:1;stroke:none;filter:url(#filter16062)"
       d="m 28,46 c 4.347888,-7.829159 3.129073,-7.980663 4.096232,-11.161319 l 68.578098,0.176777 3.15425,14.407301 C 76.354533,48.288442 36.705735,53.758426 28,46 z"
       id="path16056"
       sodipodi:nodetypes="ccccc"
       clip-path="url(#clipPath16070)"
       transform="matrix(1.0248751,0,0,0.93194778,-2.6118871,1.1099387)" />
    <rect
       style="fill:#212122;fill-opacity:1;stroke:none"
       id="rect16084"
       width="10.248749"
       height="1.8639153"
       x="32.233864"
       y="34.660061" />
    <rect
       y="34.660061"
       x="85.527359"
       height="1.8638924"
       width="10.248753"
       id="rect16086"
       style="fill:#212122;fill-opacity:1;stroke:none" />
    <path
       sodipodi:type="arc"
       style="fill:url(#radialGradient16124);fill-opacity:1;stroke:none"
       id="path16116"
       sodipodi:cx="112.80077"
       sodipodi:cy="33.330952"
       sodipodi:rx="3.1992245"
       sodipodi:ry="1.3309524"
       d="m 116,33.330952 a 3.1992245,1.3309524 0 1 1 -6.39845,0 3.1992245,1.3309524 0 1 1 6.39845,0 z"
       transform="matrix(0.98596284,0,0.37675646,1.1495286,-11.716779,-4.4441581)" />
    <text
       id="text16166"
       y="38.065758"
       x="75.072716"
       style="font-size:1.22705984px;font-style:normal;font-variant:normal;font-weight:normal;font-stretch:normal;fill:#484848;fill-opacity:1;stroke:none;font-family:Liberation Sans;-inkscape-font-specification:Liberation Sans"
       xml:space="preserve"
       transform="matrix(1.2225348,0,0.37713501,0.81797264,0,0)"><tspan
         y="38.065758"
         x="75.072716"
         id="tspan16168"
         sodipodi:role="line">the laser printer</tspan></text>
    <path
       style="opacity:0.66527201;fill:#ffffff;fill-opacity:1;stroke:none"
       d="m 27.461866,69.952882 c -2.713949,0 -4.929813,3.353306 -4.929813,6.235592 l 0,39.790496 0.985962,0 0,-39.790496 C 23.518015,73.868059 25.276974,72 27.461866,72 l 72.961244,0 c 2.18489,0 3.94385,1.868059 3.94385,4.188474 l 0,39.790496 0.98597,0 0,-39.790496 c 0,-2.882286 -2.21587,-6.235592 -4.92982,-6.235592 l -72.961244,0 z"
       id="path15732"
       sodipodi:nodetypes="ccccccccccccc" />
    <path
       style="opacity:0.41841006;fill:#d6d5db;fill-opacity:1;stroke:none"
       d="m 44.041189,76.12903 0,3.956377 c 0,3.653056 2.468388,6.593964 5.534504,6.593964 l 28.848613,0 c 3.066117,0 5.534505,-2.940908 5.534505,-6.593964 l 0,-3.956377 -39.917622,0 z"
       id="rect15746" />
    <path
       style="opacity:0.77405856;fill:#ffffff;fill-opacity:1;stroke:none"
       d="m 44.041189,81.4042 0,1.318792 c 0,3.653057 2.468388,7.593964 5.534504,7.593964 l 28.848613,0 c 3.066117,0 5.534505,-3.940907 5.534505,-7.593964 l 0,-1.318792 c 0,3.653055 -2.468388,6.593962 -5.534505,6.593962 l -28.848613,0 c -3.066116,0 -5.534504,-2.940907 -5.534504,-6.593962 z"
       id="path15751"
       sodipodi:nodetypes="ccccccccc" />
    <path
       inkscape:transform-center-x="95.228082"
       style="opacity:0.92468621;fill:#000000;fill-opacity:0.06550215;stroke:url(#linearGradient15778);stroke-opacity:1;filter:url(#filter15768)"
       d="m 127.9375,64 0,11.6 c 0,2.77 2.23,5 5,5 L 159,80.6 c 2.77,0 5,-2.23 5,-5 l 0,-11.6 -36.0625,0 z"
       id="path15758"
       sodipodi:nodetypes="ccccccc"
       clip-path="url(#clipPath15780)"
       transform="matrix(1.1069013,0,0,1.3187923,-97.572986,-18.824029)" />
    <path
       transform="matrix(2.5861031,0,0,2.6753227,-191.87966,-171.48116)"
       d="m 119,101.47604 a 1.4951468,1.4951468 0 1 1 -2.99029,0 1.4951468,1.4951468 0 1 1 2.99029,0 z"
       sodipodi:ry="1.4951468"
       sodipodi:rx="1.4951468"
       sodipodi:cy="101.47604"
       sodipodi:cx="117.50485"
       id="path15917"
       style="fill:url(#radialGradient15919);fill-opacity:1;stroke:none"
       sodipodi:type="arc" />
    <path
       style="opacity:0.41841006;fill:url(#linearGradient16209);fill-opacity:1;stroke:none"
       d="m 27.793025,72 c -2.165058,0 -3.90805,1.868059 -3.90805,4.188474 l 0,39.790496 2.477014,0 0,-39.790496 c 0,-1.755524 -0.206953,-1.141356 1.431036,-1.141356 l 72.298925,0 c 1.638,0 1.63105,-0.614168 1.63105,1.141356 l 0,39.790496 2.277,0 0,-39.790496 C 104,73.868059 102.25701,72 100.09195,72 l -72.298925,0 z"
       id="rect15726"
       sodipodi:nodetypes="ccccccccccccc" />
    <path
       sodipodi:type="arc"
       style="fill:url(#radialGradient3739);fill-opacity:1;stroke:none"
       id="path3737"
       sodipodi:cx="117.50485"
       sodipodi:cy="101.47604"
       sodipodi:rx="1.4951468"
       sodipodi:ry="1.4951468"
       d="m 119,101.47604 a 1.4951468,1.4951468 0 1 1 -2.99029,0 1.4951468,1.4951468 0 1 1 2.99029,0 z"
       transform="matrix(2.5861031,0,0,2.6753227,-191.87966,-183.48116)" />
    <rect
       y="28"
       x="88.006378"
       height="5.5916867"
       width="3.9872501"
       id="rect3741"
       style="fill:url(#linearGradient3743);fill-opacity:1;stroke:none" />
  </g>
</svg>
