<?xml version="1.0" encoding="UTF-8" standalone="no"?>
<!-- Created with Inkscape (http://www.inkscape.org/) -->

<svg
   xmlns:dc="http://purl.org/dc/elements/1.1/"
   xmlns:cc="http://creativecommons.org/ns#"
   xmlns:rdf="http://www.w3.org/1999/02/22-rdf-syntax-ns#"
   xmlns:svg="http://www.w3.org/2000/svg"
   xmlns="http://www.w3.org/2000/svg"
   xmlns:xlink="http://www.w3.org/1999/xlink"
   xmlns:sodipodi="http://sodipodi.sourceforge.net/DTD/sodipodi-0.dtd"
   xmlns:inkscape="http://www.inkscape.org/namespaces/inkscape"
   width="128"
   height="128"
   id="svg2606"
   sodipodi:version="0.32"
   inkscape:version="0.48.0 r9654"
   version="1.0"
   sodipodi:docname="application-x-zerosize.svgz"
   inkscape:output_extension="org.inkscape.output.svgz.inkscape"
   inkscape:export-filename="/home/pinheiro/pics/oxygen-icons/scalable/mimetypes/small/32x32/text-x-texinfo.png"
   inkscape:export-xdpi="180"
   inkscape:export-ydpi="180">
  <defs
     id="defs2608">
    <linearGradient
       id="linearGradient6131">
      <stop
         id="stop6133"
         offset="0"
         style="stop-color:#fcfcfc;stop-opacity:1" />
      <stop
         style="stop-color:#f8f8f8;stop-opacity:1"
         offset="0.52275378"
         id="stop6135" />
      <stop
         id="stop6141"
         offset="0.77457333"
         style="stop-color:#f0efef;stop-opacity:1;" />
      <stop
         id="stop6139"
         offset="0.90122044"
         style="stop-color:#e3e1e1;stop-opacity:1;" />
      <stop
         id="stop6137"
         offset="1"
         style="stop-color:#cecbcb;stop-opacity:1" />
    </linearGradient>
    <linearGradient
       inkscape:collect="always"
       xlink:href="#linearGradient6131"
       id="linearGradient3893"
       gradientUnits="userSpaceOnUse"
       gradientTransform="matrix(1.0119858,0,0,1.0119858,-0.89554075,-0.9871566)"
       x1="86.73793"
       y1="93.621468"
       x2="95.460213"
       y2="102.34375" />
    <radialGradient
       inkscape:collect="always"
       xlink:href="#linearGradient3913-5"
       id="radialGradient3919-5"
       cx="90.75"
       cy="110.25299"
       fx="90.75"
       fy="110.25299"
       r="18.750002"
       gradientTransform="matrix(1.3067347,0,0,1.3067347,-27.83617,-33.818441)"
       gradientUnits="userSpaceOnUse" />
    <linearGradient
       inkscape:collect="always"
       id="linearGradient3913-5">
      <stop
         style="stop-color:#ffffff;stop-opacity:1;"
         offset="0"
         id="stop3915-4" />
      <stop
         style="stop-color:#ffffff;stop-opacity:0;"
         offset="1"
         id="stop3917-7" />
    </linearGradient>
    <clipPath
       clipPathUnits="userSpaceOnUse"
       id="clipPath3889-6">
      <path
         sodipodi:nodetypes="cscscssc"
         inkscape:connector-curvature="0"
         id="path3891-5"
         d="m 112,82.502986 c 0,4.465301 -2.79749,6.409952 -5.27972,8.093625 -5.10854,3.46508 -14.939114,3.32536 -20.720284,3.40638 -0.081,5.781159 0.16586,15.504599 -3.29922,20.613139 -1.68367,2.48224 -5.29051,5.38687 -8.20078,5.38687 2.31803,0 4.74284,-1.33476 7.58402,-4.08481 9.14197,-8.84873 17.36714,-16.13535 25.673154,-25.297529 C 109.67612,88.503916 112,86.97878 112,82.502986 z"
         style="fill:url(#linearGradient3893);fill-opacity:1;stroke:none" />
    </clipPath>
    <filter
       color-interpolation-filters="sRGB"
       inkscape:collect="always"
       id="filter3909-6">
      <feGaussianBlur
         inkscape:collect="always"
         stdDeviation="0.43040059"
         id="feGaussianBlur3911-9" />
    </filter>
    <linearGradient
       inkscape:collect="always"
       xlink:href="#linearGradient3897-7"
       id="linearGradient3895-3"
       gradientUnits="userSpaceOnUse"
       gradientTransform="matrix(1.3731411,0,0,1.4035776,-41.378546,-43.42319)"
       x1="82.15696"
       y1="90.381706"
       x2="94.220871"
       y2="102.18401" />
    <linearGradient
       id="linearGradient3897-7">
      <stop
         style="stop-color:#fcfcfc;stop-opacity:1"
         offset="0"
         id="stop3899-4" />
      <stop
         id="stop3901-5"
         offset="0.52275378"
         style="stop-color:#f8f8f8;stop-opacity:1" />
      <stop
         style="stop-color:#f0efef;stop-opacity:1;"
         offset="0.72337759"
         id="stop3903-2" />
      <stop
         style="stop-color:#e3e1e1;stop-opacity:1;"
         offset="0.89024991"
         id="stop3905-5" />
      <stop
         style="stop-color:#cecbcb;stop-opacity:1"
         offset="1"
         id="stop3907-4" />
    </linearGradient>
    <clipPath
       clipPathUnits="userSpaceOnUse"
       id="clipPath6093-7">
      <path
         inkscape:connector-curvature="0"
         sodipodi:nodetypes="cccssccc"
         id="path6095-4"
         d="m 17.000001,8 0.782827,110 57.5,0 c 1.675283,0 3.119418,0.18058 4.9,-1.6 C 88.980763,107.60206 99.94047,96.548195 107.19904,89.224043 109.6396,86.761431 110,84.752873 110,82.5 L 110,8 z"
         style="fill:#ffffff;fill-opacity:1" />
    </clipPath>
    <radialGradient
       inkscape:collect="always"
       xlink:href="#linearGradient5982-7"
       id="radialGradient5988-0"
       cx="64"
       cy="64.004021"
       fx="63.793392"
       fy="47.274845"
       r="47.5"
       gradientTransform="matrix(1.7069944,-0.08541345,0.06979496,1.3941371,-50.362376,-20.218185)"
       gradientUnits="userSpaceOnUse" />
    <linearGradient
       inkscape:collect="always"
       id="linearGradient5982-7">
      <stop
         style="stop-color:#ffffff;stop-opacity:1;"
         offset="0"
         id="stop5984-8" />
      <stop
         style="stop-color:#ffffff;stop-opacity:0;"
         offset="1"
         id="stop5986-6" />
    </linearGradient>
    <filter
       color-interpolation-filters="sRGB"
       inkscape:collect="always"
       id="filter6171-8"
       x="-0.47870937"
       width="1.9574188"
       y="-0.51275069"
       height="2.0255013">
      <feGaussianBlur
         inkscape:collect="always"
         stdDeviation="10.140743"
         id="feGaussianBlur6173-8" />
    </filter>
    <linearGradient
       inkscape:collect="always"
       xlink:href="#linearGradient4518-3"
       id="linearGradient4524-4"
       x1="72"
       y1="0"
       x2="72"
       y2="116.40091"
       gradientUnits="userSpaceOnUse"
       gradientTransform="matrix(1.013528,0,0,1.013266,-1.5133685,-1.3073648)" />
    <linearGradient
       id="linearGradient4518-3">
      <stop
         style="stop-color:#eeecec;stop-opacity:1"
         offset="0"
         id="stop4520-1" />
      <stop
         id="stop5969-4"
         offset="0.40000001"
         style="stop-color:#f4f4f4;stop-opacity:1" />
      <stop
         style="stop-color:#f6f5f5;stop-opacity:1"
         offset="1"
         id="stop4522-9" />
    </linearGradient>
    <filter
       inkscape:collect="always"
       id="filter4123">
      <feGaussianBlur
         inkscape:collect="always"
         stdDeviation="2.028"
         id="feGaussianBlur4125" />
    </filter>
    <filter
       inkscape:collect="always"
       id="filter4087"
       x="-0.16465071"
       width="1.3293014"
       y="-0.2041295"
       height="1.408259">
      <feGaussianBlur
         inkscape:collect="always"
         stdDeviation="4.2234282"
         id="feGaussianBlur4089" />
    </filter>
    <filter
       inkscape:collect="always"
       id="filter4084">
      <feGaussianBlur
         inkscape:collect="always"
         stdDeviation="1.4598961"
         id="feGaussianBlur4086" />
    </filter>
    <clipPath
       clipPathUnits="userSpaceOnUse"
       id="clipPath3199">
      <path
         style="opacity:0.84653476;fill:url(#radialGradient3203);fill-opacity:1"
         d="m 157.45361,11.577988 c -0.5121,0 -0.75343,0.353536 -0.75343,0.753428 l 0,165.706924 c 0,1.238 1.02595,2.18469 2.26028,2.26028 l 74.58931,4.56776 c 0.0798,0.005 4.93327,-0.0121 5.97242,7e-5 9.85629,-6.78636 46.66412,-45.13531 60.14328,-58.69973 2.2254,-2.49609 0.68954,-0.55764 2.19083,-2.42221 L 297.33583,12.331446 c 0,-0.486288 -0.24594,-0.753428 -0.75342,-0.753428 z"
         id="path3201"
         inkscape:connector-curvature="0"
         sodipodi:nodetypes="ccssscccccc" />
    </clipPath>
    <radialGradient
       r="27.455904"
       fy="48.36097"
       fx="87.160835"
       cy="48.36097"
       cx="87.160835"
       gradientTransform="matrix(1.4591887,0,0,1,-40.023272,0)"
       gradientUnits="userSpaceOnUse"
       id="radialGradient5441"
       xlink:href="#linearGradient6212"
       inkscape:collect="always" />
    <linearGradient
       inkscape:collect="always"
       id="linearGradient6212">
      <stop
         style="stop-color:#020910;stop-opacity:1"
         offset="0"
         id="stop6214" />
      <stop
         style="stop-color:#113e69;stop-opacity:0"
         offset="1"
         id="stop6216" />
    </linearGradient>
    <filter
       color-interpolation-filters="sRGB"
       inkscape:collect="always"
       id="filter6232">
      <feGaussianBlur
         inkscape:collect="always"
         stdDeviation="1.0965074"
         id="feGaussianBlur6234" />
    </filter>
    <radialGradient
       r="31.190229"
       fy="84.275475"
       fx="-166.53223"
       cy="84.275475"
       cx="-166.53223"
       gradientUnits="userSpaceOnUse"
       id="radialGradient5443"
       xlink:href="#linearGradient5960"
       inkscape:collect="always" />
    <linearGradient
       id="linearGradient5960"
       gradientUnits="userSpaceOnUse"
       x1="-84.002403"
       y1="-383.9971"
       x2="-12.0029"
       y2="-383.9971"
       gradientTransform="matrix(0,1,-1,0,-39.9985,140.0029)">
      <stop
         offset="0"
         style="stop-color:#0081ec;stop-opacity:1;"
         id="stop5962" />
      <stop
         offset="1"
         style="stop-color:#003871;stop-opacity:1;"
         id="stop5964" />
    </linearGradient>
    <radialGradient
       r="31.190229"
       fy="65.938202"
       fx="-166.53223"
       cy="65.938202"
       cx="-166.53223"
       gradientTransform="matrix(1,0,0,0.6578174,0,22.562908)"
       gradientUnits="userSpaceOnUse"
       id="radialGradient5445"
       xlink:href="#linearGradient5990"
       inkscape:collect="always" />
    <linearGradient
       inkscape:collect="always"
       id="linearGradient5990">
      <stop
         style="stop-color:#ffffff;stop-opacity:1;"
         offset="0"
         id="stop5992" />
      <stop
         style="stop-color:#ffffff;stop-opacity:0;"
         offset="1"
         id="stop5994" />
    </linearGradient>
    <clipPath
       clipPathUnits="userSpaceOnUse"
       id="clipPath6080">
      <path
         d="m -135.842,93.331604 a 30.690229,30.690229 0 1 1 -61.38046,0 30.690229,30.690229 0 1 1 61.38046,0 z"
         sodipodi:ry="30.690229"
         sodipodi:rx="30.690229"
         sodipodi:cy="93.331604"
         sodipodi:cx="-166.53223"
         id="path6082"
         style="fill:url(#radialGradient6084);fill-opacity:1;stroke:none;filter:url(#filter6074)"
         sodipodi:type="arc" />
    </clipPath>
    <filter
       color-interpolation-filters="sRGB"
       inkscape:collect="always"
       id="filter6074">
      <feGaussianBlur
         inkscape:collect="always"
         stdDeviation="1.9142018"
         id="feGaussianBlur6076" />
    </filter>
    <radialGradient
       r="31.190229"
       fy="116.62209"
       fx="-166.53223"
       cy="116.62209"
       cx="-166.53223"
       gradientUnits="userSpaceOnUse"
       id="radialGradient5447"
       xlink:href="#linearGradient6138"
       inkscape:collect="always" />
    <linearGradient
       id="linearGradient6138"
       gradientUnits="userSpaceOnUse"
       x1="-84.002403"
       y1="-383.9971"
       x2="-12.0029"
       y2="-383.9971"
       gradientTransform="matrix(0,1,-1,0,-39.9985,140.0029)">
      <stop
         offset="0"
         style="stop-color:#0081ec;stop-opacity:1;"
         id="stop6140" />
      <stop
         offset="1"
         style="stop-color:#004c98;stop-opacity:1;"
         id="stop6142" />
    </linearGradient>
    <linearGradient
       y2="101.12339"
       x2="-161.52484"
       y1="54.347218"
       x1="-165.45718"
       gradientTransform="matrix(2.0254562,0,0,2.0254562,580.51764,-82.307697)"
       gradientUnits="userSpaceOnUse"
       id="linearGradient5449"
       xlink:href="#linearGradient5919"
       inkscape:collect="always" />
    <linearGradient
       id="linearGradient5919">
      <stop
         style="stop-color:#ffffff;stop-opacity:1;"
         offset="0"
         id="stop5921" />
      <stop
         id="stop6238"
         offset="0.5"
         style="stop-color:#78c9ff;stop-opacity:0.49803922;" />
      <stop
         style="stop-color:#ffffff;stop-opacity:0;"
         offset="1"
         id="stop5923" />
    </linearGradient>
    <filter
       color-interpolation-filters="sRGB"
       inkscape:collect="always"
       id="filter5956">
      <feGaussianBlur
         inkscape:collect="always"
         stdDeviation="0.55418773"
         id="feGaussianBlur5958" />
    </filter>
    <linearGradient
       y2="109.09552"
       x2="-176.82246"
       y1="5.9640594"
       x1="-176.82246"
       gradientTransform="matrix(1.914689,0,0,1.914689,570.04123,-83.022107)"
       gradientUnits="userSpaceOnUse"
       id="linearGradient5451"
       xlink:href="#linearGradient5919"
       inkscape:collect="always" />
    <linearGradient
       id="linearGradient3160">
      <stop
         style="stop-color:#ffffff;stop-opacity:1;"
         offset="0"
         id="stop3162" />
      <stop
         id="stop3164"
         offset="0.5"
         style="stop-color:#78c9ff;stop-opacity:0.49803922;" />
      <stop
         style="stop-color:#ffffff;stop-opacity:0;"
         offset="1"
         id="stop3166" />
    </linearGradient>
    <linearGradient
       y2="91.532112"
       x2="-196.51477"
       y1="130.50459"
       x1="-141.69565"
       gradientTransform="matrix(1.914689,0,0,1.914689,569.3109,-90.120796)"
       gradientUnits="userSpaceOnUse"
       id="linearGradient5453"
       xlink:href="#linearGradient5919"
       inkscape:collect="always" />
    <linearGradient
       id="linearGradient3169">
      <stop
         style="stop-color:#ffffff;stop-opacity:1;"
         offset="0"
         id="stop3171" />
      <stop
         id="stop3173"
         offset="0.5"
         style="stop-color:#78c9ff;stop-opacity:0.49803922;" />
      <stop
         style="stop-color:#ffffff;stop-opacity:0;"
         offset="1"
         id="stop3175" />
    </linearGradient>
    <linearGradient
       y2="89.160271"
       x2="-176.82246"
       y1="62.791336"
       x1="-176.82246"
       gradientTransform="matrix(1.914689,0,0,1.914689,570.04123,-83.022107)"
       gradientUnits="userSpaceOnUse"
       id="linearGradient5455"
       xlink:href="#linearGradient5919"
       inkscape:collect="always" />
    <linearGradient
       id="linearGradient3178">
      <stop
         style="stop-color:#ffffff;stop-opacity:1;"
         offset="0"
         id="stop3180" />
      <stop
         id="stop3182"
         offset="0.5"
         style="stop-color:#78c9ff;stop-opacity:0.49803922;" />
      <stop
         style="stop-color:#ffffff;stop-opacity:0;"
         offset="1"
         id="stop3184" />
    </linearGradient>
    <linearGradient
       y2="-7.1532998"
       x2="36.671902"
       y1="102.8467"
       x1="76.671898"
       gradientTransform="translate(188.91421,60.267771)"
       gradientUnits="userSpaceOnUse"
       id="linearGradient5457"
       xlink:href="#path9576_1_"
       inkscape:collect="always" />
    <linearGradient
       id="path9576_1_"
       gradientUnits="userSpaceOnUse"
       x1="76.671898"
       y1="102.8467"
       x2="36.671902"
       y2="-7.1532998">
      <stop
         offset="0"
         style="stop-color:#D6D6D6"
         id="stop86" />
      <stop
         offset="0.0092"
         style="stop-color:#D7D7D7"
         id="stop88" />
      <stop
         offset="0.2195"
         style="stop-color:#EDEDED"
         id="stop90" />
      <stop
         offset="0.4212"
         style="stop-color:#FAFAFA"
         id="stop92" />
      <stop
         offset="0.6036"
         style="stop-color:#FFFFFF"
         id="stop94" />
      <stop
         offset="1"
         style="stop-color:#D6D6D6"
         id="stop96" />
    </linearGradient>
    <linearGradient
       y2="-2.0731001"
       x2="22.700199"
       y1="107.9268"
       x1="62.700199"
       gradientTransform="translate(188.91421,60.267771)"
       gradientUnits="userSpaceOnUse"
       id="linearGradient5459"
       xlink:href="#path2876_1_"
       inkscape:collect="always" />
    <linearGradient
       id="path2876_1_"
       gradientUnits="userSpaceOnUse"
       x1="62.700199"
       y1="107.9268"
       x2="22.700199"
       y2="-2.0731001">
      <stop
         offset="0"
         style="stop-color:#D6D6D6"
         id="stop100" />
      <stop
         offset="0.0092"
         style="stop-color:#D7D7D7"
         id="stop102" />
      <stop
         offset="0.2195"
         style="stop-color:#EDEDED"
         id="stop104" />
      <stop
         offset="0.4212"
         style="stop-color:#FAFAFA"
         id="stop106" />
      <stop
         offset="0.6036"
         style="stop-color:#FFFFFF"
         id="stop108-5" />
      <stop
         offset="1"
         style="stop-color:#D6D6D6"
         id="stop110-4" />
    </linearGradient>
    <clipPath
       id="clipPath5421"
       clipPathUnits="userSpaceOnUse">
      <path
         inkscape:connector-curvature="0"
         id="path5423"
         d="m 110.6875,76.28125 c -4.416,0 -8,3.585 -8,8 0,4.416 3.584,8 8,8 4.414,0 8,-3.585 8,-8 0,-4.415 -3.586,-8 -8,-8 z m 6.50337,21.886285 -20.573309,5.143325 0,5.14333 10.286659,0 -0.0158,30.86269 -10.370751,0 0.08036,10.33057 30.852941,0 0,-10.33057 -10.33057,0 z"
         style="fill:url(#linearGradient5425)"
         sodipodi:nodetypes="sssssccccccccccc" />
    </clipPath>
    <filter
       color-interpolation-filters="sRGB"
       id="filter5417"
       inkscape:collect="always">
      <feGaussianBlur
         id="feGaussianBlur5419"
         stdDeviation="1.2908951"
         inkscape:collect="always" />
    </filter>
  </defs>
  <sodipodi:namedview
     id="base"
     pagecolor="#ffffff"
     bordercolor="#666666"
     borderopacity="1.0"
     inkscape:pageopacity="0.0"
     inkscape:pageshadow="2"
     inkscape:zoom="4"
     inkscape:cx="-1.8109217"
     inkscape:cy="67.739099"
     inkscape:document-units="px"
     inkscape:current-layer="layer1"
     width="128px"
     height="128px"
     showgrid="true"
     inkscape:grid-points="true"
     showguides="true"
     inkscape:guide-bbox="true"
     inkscape:window-width="1224"
     inkscape:window-height="757"
     inkscape:window-x="210"
     inkscape:window-y="209"
     inkscape:snap-global="true"
     inkscape:window-maximized="0"
     inkscape:snap-page="true">
    <inkscape:grid
       id="GridFromPre046Settings"
       type="xygrid"
       originx="0px"
       originy="0px"
       spacingx="4px"
       spacingy="4px"
       color="#0000ff"
       empcolor="#0000ff"
       opacity="0.2"
       empopacity="0.4"
       empspacing="2"
       visible="true"
       enabled="true"
       snapvisiblegridlinesonly="true" />
    <sodipodi:guide
       orientation="1,0"
       position="-68,29.325902"
       id="guide4564" />
    <sodipodi:guide
       orientation="1,0"
       position="-121.62237,135.0574"
       id="guide3859" />
    <sodipodi:guide
       orientation="0,1"
       position="38.581514,-74.688154"
       id="guide4360" />
  </sodipodi:namedview>
  <metadata
     id="metadata2611">
    <rdf:RDF>
      <cc:Work
         rdf:about="">
        <dc:format>image/svg+xml</dc:format>
        <dc:type
           rdf:resource="http://purl.org/dc/dcmitype/StillImage" />
        <dc:title></dc:title>
      </cc:Work>
    </rdf:RDF>
  </metadata>
  <g
     inkscape:label="Livello 1"
     inkscape:groupmode="layer"
     id="layer1">
    <path
       style="opacity:0.45606695;fill:#000000;fill-opacity:1;filter:url(#filter4123)"
       d="m 13.333,5.3364 0,118.3304 49.8545,-0.0668 c 2.115554,-0.003 4.528919,-1.77169 7,-4.25 0.71234,-0.71442 1.440746,-1.39395 2.15625,-2.09375 0.415612,-0.40649 0.832187,-0.81443 1.25,-1.21875 7.773958,-7.40962 26.98341,-25.122599 34.21875,-33.099999 0.42065,-0.42064 0.81207,-0.8111 1.15625,-1.1875 1.46444,-1.49766 2.76158,-2.8378 2.99375,-5.8625 L 112,75.156251 111.9972,5.3364 z"
       id="path5990"
       inkscape:connector-curvature="0"
       sodipodi:nodetypes="ccsssccccccc"
       transform="matrix(1.013528,0,0,1.013266,-1.5133689,-1.3073677)" />
    <path
       sodipodi:type="inkscape:offset"
       inkscape:radius="-0.31466308"
       inkscape:original="M 13.1875 4.53125 C 12.818918 4.609246 12.529956 4.967008 12.53125 5.34375 L 12.53125 123.65625 C 12.53885 124.07954 12.920464 124.4611 13.34375 124.46875 L 62.15625 124.46875 C 63.930251 124.46875 65.829207 124.74865 68.6875 122.8125 C 68.829003 122.58432 71.218784 120.82456 70.53125 121.25 C 80.188854 112.07585 98.162197 92.41186 109.34375 81.09375 C 111.06182 79.375681 112.8125 77.674752 112.8125 73.3125 L 112.8125 5.34375 C 112.80483 4.9204809 112.42327 4.5388981 112 4.53125 L 13.34375 4.53125 C 13.29182 4.52633 13.239428 4.52633 13.1875 4.53125 z "
       style="fill:#000000;fill-opacity:1;filter:url(#filter4084)"
       id="path3314"
       d="m 13.21875,4.84375 c -0.201143,0.05725 -0.375711,0.2931131 -0.375,0.5 l 0,118.3125 c 0.0043,0.23765 0.262302,0.4957 0.5,0.5 l 48.8125,0 c 1.807099,0 3.550693,0.29821 6.34375,-1.59375 0.03611,-0.0371 0.07724,-0.0824 0.125,-0.125 0.08359,-0.0745 0.19399,-0.18448 0.3125,-0.28125 0.23702,-0.19354 0.516618,-0.41733 0.78125,-0.625 0.206542,-0.16208 0.368737,-0.26884 0.5,-0.375 a 0.31469455,0.31469455 0 0 1 0.03125,-0.0625 c 0.0046,-0.004 0.02682,0.004 0.03125,0 a 0.31469455,0.31469455 0 0 1 0.03125,-0.0625 c 0.0044,-0.004 0.02685,0.004 0.03125,0 9.639369,-9.15919 27.595222,-28.83361 38.78125,-40.15625 1.72022,-1.720217 3.375,-3.284436 3.375,-7.5625 l 0,-67.96875 c -0.004,-0.2376834 -0.26234,-0.4957056 -0.5,-0.5 l -98.65625,0 a 0.31469455,0.31469455 0 0 1 -0.03125,0 c -0.02143,-0.00203 -0.04093,-6.768e-4 -0.0625,0 -0.01078,3.384e-4 -0.02054,-0.00102 -0.03125,0 z"
       transform="matrix(1.013528,0,0,1.013266,-1.5133689,-1.3073677)" />
    <path
       style="fill:#ffffff;fill-opacity:1"
       d="m 12,4 0,120 49.999784,0 c 1.697965,0 3.967298,-0.57754 7.094784,-3.68191 8.990151,-8.92376 32.510002,-32.235741 39.866862,-39.726545 2.47359,-2.518643 3.04157,-4.572903 3.04157,-6.87703 L 112,4 z"
       id="path34"
       sodipodi:nodetypes="cccssccc"
       inkscape:connector-curvature="0" />
    <path
       style="fill:url(#linearGradient4524-4);fill-opacity:1"
       d="M 15.506762,7 C 15.162322,7 15,7.2377304 15,7.5066333 L 15,119.48009 c 0,0.83248 0.688512,1.5205 1.520292,1.51991 l 44.959416,-0.0317 c 0.05379,-4e-5 0.821348,0.0237 1.520292,0.0317 1.801712,-0.0406 3.174343,-0.76374 4.414963,-1.61442 C 68.481059,119.09069 97.540465,90.697457 106.78496,81.385896 108.1658,79.995068 109,77.38535 109,76.425341 L 109,7.5066332 C 109,7.179635 108.83457,7 108.49323,7 z"
       id="path3967"
       inkscape:connector-curvature="0"
       sodipodi:nodetypes="ccsssccscccc" />
    <path
       sodipodi:nodetypes="ccssscccccc"
       inkscape:connector-curvature="0"
       id="path5980"
       d="M 15.506762,7 C 15.162322,7 15,7.2377304 15,7.5066333 L 15,119.48009 c 0,0.83249 0.688527,1.51486 1.520292,1.51991 l 46.845657,0.2846 c 0.05379,3.3e-4 3.318172,-0.008 4.017117,5e-5 6.629458,-4.5634 31.077115,-31.337425 40.143354,-40.458653 0.66623,-0.74707 0.46379,-0.37498 1.47358,-1.628786 L 109,7.5066332 C 109,7.179635 108.83457,7 108.49323,7 z"
       style="opacity:0.84653476;fill:url(#radialGradient5988-0);fill-opacity:1" />
    <path
       style="fill:#000000"
       d=""
       id="path2197" />
    <path
       clip-path="url(#clipPath6093-7)"
       style="opacity:0.34728035;fill:#000000;fill-opacity:1;stroke:none;filter:url(#filter6171-8)"
       d="m 114.4,82.502986 c 0,4.465301 -6.19771,3.506816 -8.67994,5.190489 -5.10854,3.46508 -20.174689,2.225237 -25.955859,2.306257 -0.081,5.781159 0.786541,16.143798 0.786541,22.293818 0,2.97817 -3.440475,11.20945 -6.350745,11.20945 -2.091359,1.5337 3.488204,8.21101 6.734971,5.31989 9.501888,-8.46107 35.131682,-30.022704 43.350822,-39.262889 2.04044,-2.29392 -4.90514,-9.844666 -9.88579,-7.057015 z"
       id="path6153"
       inkscape:connector-curvature="0"
       sodipodi:nodetypes="cscscssc"
       transform="matrix(1.2713893,0,0,1.3008089,-31.411352,-31.072453)" />
    <g
       transform="matrix(0.77770667,0,0,0.77770667,-121.28416,-20.345547)"
       id="g5427"
       clip-path="url(#clipPath3199)">
      <path
         transform="matrix(1.8982671,0,0,1.1681643,71.258861,97.036775)"
         d="m 114.55424,39.742821 c 0,15.128959 -12.26445,27.393404 -27.393405,27.393404 -15.128959,0 -27.393404,-12.264445 -27.393404,-27.393404 0,-15.12896 12.264445,-27.393404 27.393404,-27.393404 15.128955,0 27.393405,12.264444 27.393405,27.393404 z"
         sodipodi:ry="27.393404"
         sodipodi:rx="27.393404"
         sodipodi:cy="39.742821"
         sodipodi:cx="87.160835"
         id="path6210"
         style="fill:url(#radialGradient5441);fill-opacity:1;stroke:none;filter:url(#filter6232)"
         sodipodi:type="arc" />
      <path
         transform="matrix(-1.9550195,0,0,1.9550195,-88.823746,-71.002188)"
         d="m -135.842,93.331604 c 0,16.949746 -13.74048,30.690226 -30.69023,30.690226 -16.94974,0 -30.69023,-13.74048 -30.69023,-30.690226 0,-16.949746 13.74049,-30.690229 30.69023,-30.690229 16.94975,0 30.69023,13.740483 30.69023,30.690229 z"
         sodipodi:ry="30.690229"
         sodipodi:rx="30.690229"
         sodipodi:cy="93.331604"
         sodipodi:cx="-166.53223"
         id="path5515"
         style="fill:url(#radialGradient5443);fill-opacity:1;stroke:none"
         sodipodi:type="arc" />
      <path
         clip-path="url(#clipPath6080)"
         transform="matrix(-1.9550195,0,0,1.9550195,-88.823746,-71.002188)"
         d="m -135.842,93.331604 c 0,16.949746 -13.74048,30.690226 -30.69023,30.690226 -16.94974,0 -30.69023,-13.74048 -30.69023,-30.690226 0,-16.949746 13.74049,-30.690229 30.69023,-30.690229 16.94975,0 30.69023,13.740483 30.69023,30.690229 z"
         sodipodi:ry="30.690229"
         sodipodi:rx="30.690229"
         sodipodi:cy="93.331604"
         sodipodi:cx="-166.53223"
         id="path6078"
         style="fill:url(#radialGradient5445);fill-opacity:1;stroke:none;filter:url(#filter6074)"
         sodipodi:type="arc" />
      <path
         sodipodi:type="arc"
         style="fill:url(#radialGradient5447);fill-opacity:1;stroke:none"
         id="path5906"
         sodipodi:cx="-166.53223"
         sodipodi:cy="93.331604"
         sodipodi:rx="30.690229"
         sodipodi:ry="30.690229"
         d="m -135.842,93.331604 c 0,16.949746 -13.74048,30.690226 -30.69023,30.690226 -16.94974,0 -30.69023,-13.74048 -30.69023,-30.690226 0,-16.949746 13.74049,-30.690229 30.69023,-30.690229 16.94975,0 30.69023,13.740483 30.69023,30.690229 z"
         transform="matrix(-1.8139017,0,0,1.8139017,-65.323074,-58.086195)" />
      <path
         id="path5910"
         d="m 236.74449,55.559011 c -30.72933,0 -55.64564,24.916327 -55.64564,55.645649 0,2.86078 0.18148,5.69164 0.59834,8.4366 0.003,0.0193 -0.003,0.0405 0,0.0598 11.70025,1.87142 24.16003,2.8122 37.09708,2.8122 27.63885,0 53.15103,-4.61852 73.59586,-12.38564 -0.57482,-30.232726 -25.27627,-54.568635 -55.64564,-54.568639 z"
         style="opacity:0.8921933;fill:url(#linearGradient5449);fill-opacity:1;stroke:none"
         inkscape:connector-curvature="0" />
      <path
         id="path5927"
         transform="matrix(-1.914689,0,0,1.914689,35.612094,-78.003428)"
         d="m -134.09375,98.625 c -0.003,0.166656 -0.0313,0.332675 -0.0313,0.5 0,16.04925 13.0445,29.0625 29.09375,29.0625 16.049249,0 29.062503,-13.01325 29.0625,-29.0625 0,-0.167107 0.0028,-0.33356 0,-0.5 -0.267346,15.81875 -13.180358,28.5625 -29.0625,28.5625 -15.88193,0 -28.79481,-12.74404 -29.0625,-28.5625 z"
         style="fill:#007fea;fill-opacity:1;stroke:none;filter:url(#filter5956)"
         inkscape:connector-curvature="0" />
      <path
         id="path5966"
         d="m 236.71107,55.598558 c -30.72931,0 -55.64564,24.916331 -55.64564,55.645662 0,0.28182 -0.004,0.55647 0,0.83767 0.5743,-30.232184 25.27627,-54.568648 55.64564,-54.568628 29.72353,0 54.02704,23.317801 55.58583,52.653938 0.0173,-0.007 0.0425,0.007 0.0599,0 -0.57487,-30.232725 -25.27633,-54.568622 -55.6457,-54.568642 z"
         style="fill:url(#linearGradient5451);fill-opacity:1;stroke:none"
         inkscape:connector-curvature="0" />
      <path
         sodipodi:nodetypes="cccccscc"
         id="path5974"
         d="m 257.56306,59.585695 c 18.46116,8.800121 33.64111,28.341169 34.05389,50.052055 -20.44483,7.76715 -49.35952,12.04746 -76.99837,12.04748 -10.76347,0.22815 -21.18467,-0.14479 -32.9849,-2.02617 0.003,0.0193 -0.003,0.0406 0,0.0598 11.70022,1.87139 24.16004,2.81218 37.09709,2.81218 27.63885,0 53.15103,-4.61848 73.59586,-12.38563 -0.43515,-22.885739 -14.68492,-42.430483 -34.76357,-50.559755 z"
         style="fill:url(#linearGradient5453);fill-opacity:1;stroke:none"
         inkscape:connector-curvature="0" />
      <path
         sodipodi:nodetypes="cscsccc"
         style="fill:url(#linearGradient5455);fill-opacity:1;stroke:none"
         d="m 236.71107,55.598558 c -30.72931,0 -55.64564,24.916331 -55.64564,55.645662 0,0.28182 -0.004,0.55647 0,0.83767 0.5743,-30.232184 25.27627,-55.334524 55.64564,-55.334503 29.72353,0 54.02704,24.083676 55.58583,53.419813 0.0173,-0.007 0.0425,0.007 0.0599,0 -0.57487,-30.232725 -25.27633,-54.568622 -55.6457,-54.568642 z"
         id="path6088"
         inkscape:connector-curvature="0" />
      <path
         inkscape:connector-curvature="0"
         id="path4546"
         d="m 236.91521,76.267774 c -4.416,0 -8.001,3.585 -8.001,8 0,4.416 3.585,8 8.001,8 4.414,0 7.999,-3.585 7.999,-8 0,-4.415 -3.585,-8 -7.999,-8 z"
         style="fill:url(#linearGradient5457)" />
      <path
         sodipodi:nodetypes="ccccccccccc"
         inkscape:connector-curvature="0"
         id="path4548"
         d="m 243.3876,98.167535 -20.57331,5.143325 0,5.14333 10.28666,0 0,30.85996 -10.28666,0 0,10.28666 30.85996,0 0,-10.28666 -10.28665,0 z"
         style="fill:url(#linearGradient5459)" />
      <path
         style="opacity:0.92468621;fill:#000000;fill-opacity:0.45414848;stroke:none;filter:url(#filter5417)"
         d="m 71.0625,60.70625 0,99 80.25,0 0,-99 z m 39.625,16.875 c 4.414,0 8,3.585 8,8 0,4.415 -3.586,8 -8,8 -4.416,0 -8,-3.584 -8,-8 0,-4.415 3.584,-8 8,-8 z m 6.50337,21.886285 -0.0705,41.149345 10.33057,0 0,10.33057 -30.852937,0 -0.08036,-10.33057 10.370747,0 0.0158,-30.86269 -10.286655,0 0,-5.14333 z"
         id="rect4565"
         inkscape:connector-curvature="0"
         clip-path="url(#clipPath5421)"
         transform="translate(126.19673,0)"
         sodipodi:nodetypes="cccccsssssccccccccccc" />
    </g>
    <path
       sodipodi:nodetypes="cscscssc"
       inkscape:connector-curvature="0"
       id="path6081"
       d="m 113.9,82.502986 c 0,4.465301 -7.96273,11.129672 -10.95287,11.553449 -6.394981,0.906328 -15.824979,-3.47754 -21.606149,-3.39652 -0.081,5.781159 3.918356,18.962455 0.453276,24.070995 -1.68367,2.48224 -3.883991,8.07209 -6.794261,8.07209 -2.091359,1.5337 3.488204,11.21101 6.734971,8.31989 9.501888,-8.46107 45.998943,-30.20138 54.218083,-39.441569 2.04044,-2.29392 -17.0724,-11.965986 -22.05305,-9.178335 z"
       style="opacity:0.49295774;fill:#000000;fill-opacity:1;stroke:none;filter:url(#filter4087)"
       clip-path="url(#clipPath6093-7)"
       transform="matrix(1.323697,0,0,1.3543271,-37.27081,-37.383179)" />
    <path
       style="fill:url(#linearGradient3895-3);fill-opacity:1;stroke:none"
       d="m 111.80692,72.373791 c 0,6.193164 -3.79585,8.890306 -7.16393,11.225476 C 97.711316,88.405175 83.444341,87.387629 75.6,87.5 c -0.109909,8.0182 0.701692,21.4147 -4,28.5 -2.284534,3.44276 -6.727129,8.38457 -10.67601,8.38457 3.145284,0 6.435454,-1.85125 10.290589,-5.66544 12.404537,-12.27278 23.56509,-22.378984 34.835341,-35.086504 2.60379,-2.935824 5.757,-5.051122 5.757,-11.258835 z"
       id="path6011"
       inkscape:connector-curvature="0"
       sodipodi:nodetypes="cscscssc" />
    <path
       style="fill:#ffffff;fill-opacity:1;stroke:none"
       d="m 111.83234,71.941762 c -0.42932,5.407885 -4.39696,7.298568 -6.55729,8.796367 C 100.15305,84.28932 93.349113,84 72,84 c 0,19.65502 0.5,28.4 -3.219913,33.20293 -2.21447,2.85919 -6.648335,6.04727 -10.26176,6.86542 4.951272,0 8.407066,-1.08166 11.641616,-4.28186 0.460141,-0.53889 1.37925,-1.54169 2.101048,-2.68043 C 76.100178,111.32051 76,99.904353 76,88 c 7.844341,-0.112342 21.630842,1.155905 28.5625,-3.65 0.63154,-0.437847 2.56984,-2.009889 3.13546,-2.57551 3.14173,-3.14173 3.82294,-5.144366 4.13438,-9.832728 z M 58.518327,124.06835 c -0.213922,0.0483 -0.425295,0.0575 -0.636038,0.0866 0.213019,-0.0234 0.421235,-0.0465 0.636038,-0.0866 z"
       id="path6122"
       inkscape:connector-curvature="0"
       sodipodi:nodetypes="cscsccccsscccc" />
    <path
       style="fill:none;stroke:url(#radialGradient3919-5);stroke-width:1.85605633;stroke-linecap:butt;stroke-linejoin:miter;stroke-miterlimit:4;stroke-opacity:1;stroke-dasharray:none;filter:url(#filter3909-6)"
       d="M 108.97651,89.508691 79.934895,118.21077"
       id="path3873"
       inkscape:connector-curvature="0"
       sodipodi:nodetypes="cc"
       clip-path="url(#clipPath3889-6)"
       transform="matrix(1.3568778,0,0,1.3869539,-40.163409,-42.054049)" />
  </g>
</svg>
