<?xml version="1.0" encoding="UTF-8" standalone="no"?>
<!-- Created with Inkscape (http://www.inkscape.org/) -->

<svg
   xmlns:dc="http://purl.org/dc/elements/1.1/"
   xmlns:cc="http://creativecommons.org/ns#"
   xmlns:rdf="http://www.w3.org/1999/02/22-rdf-syntax-ns#"
   xmlns:svg="http://www.w3.org/2000/svg"
   xmlns="http://www.w3.org/2000/svg"
   xmlns:xlink="http://www.w3.org/1999/xlink"
   xmlns:sodipodi="http://sodipodi.sourceforge.net/DTD/sodipodi-0.dtd"
   xmlns:inkscape="http://www.inkscape.org/namespaces/inkscape"
   width="128"
   height="128"
   id="svg2"
   sodipodi:version="0.32"
   inkscape:version="0.48.1 r9760"
   version="1.0"
   sodipodi:docname="tools-check-spelling.svgz"
   inkscape:output_extension="org.inkscape.output.svgz.inkscape"
   inkscape:export-filename="/home/pinheiro/pics/oxygen-icons/scalable/actions/small/32x32/tools-check-spelling.png"
   inkscape:export-xdpi="90"
   inkscape:export-ydpi="90"
   sodipodi:modified="true">
  <defs
     id="defs4">
    <linearGradient
       y2="30.849478"
       x2="89.090881"
       y1="103.89701"
       x1="89.090881"
       gradientTransform="matrix(1.0320438,0,0,1.0327501,-2.0508002,2.0332651)"
       gradientUnits="userSpaceOnUse"
       id="linearGradient8244"
       xlink:href="#linearGradient2956"
       inkscape:collect="always" />
    <linearGradient
       id="linearGradient2956"
       inkscape:collect="always">
      <stop
         id="stop2958"
         offset="0"
         style="stop-color:#003100;stop-opacity:1;" />
      <stop
         id="stop2960"
         offset="1"
         style="stop-color:#008c00;stop-opacity:1" />
    </linearGradient>
    <linearGradient
       id="linearGradient2998"
       inkscape:collect="always">
      <stop
         id="stop3000"
         offset="0"
         style="stop-color:#ffffff;stop-opacity:1;" />
      <stop
         id="stop3002"
         offset="1"
         style="stop-color:#ffffff;stop-opacity:0;" />
    </linearGradient>
    <radialGradient
       r="3.015625"
       fy="29.374895"
       fx="99.765625"
       cy="29.374895"
       cx="99.765625"
       gradientTransform="matrix(1.9646726,3.4242959e-7,-1.0414508e-6,5.9752716,-167.24116,-126.14811)"
       gradientUnits="userSpaceOnUse"
       id="radialGradient8248"
       xlink:href="#linearGradient3415-6"
       inkscape:collect="always" />
    <linearGradient
       id="linearGradient3415-6"
       inkscape:collect="always">
      <stop
         id="stop3417"
         offset="0"
         style="stop-color:#f0ff80;stop-opacity:1;" />
      <stop
         id="stop3419"
         offset="1"
         style="stop-color:#f0ff80;stop-opacity:0;" />
    </linearGradient>
    <filter
       color-interpolation-filters="sRGB"
       height="1.2057828"
       y="-0.10289138"
       width="1.3646584"
       x="-0.18232919"
       id="filter3525"
       inkscape:collect="always">
      <feGaussianBlur
         id="feGaussianBlur3527"
         stdDeviation="0.45819706"
         inkscape:collect="always" />
    </filter>
    <radialGradient
       r="3.015625"
       fy="29.374895"
       fx="99.765625"
       cy="29.374895"
       cx="99.765625"
       gradientTransform="matrix(1.9646726,3.4242959e-7,-1.0414508e-6,5.9752716,-96.241137,-146.14811)"
       gradientUnits="userSpaceOnUse"
       id="radialGradient8250"
       xlink:href="#linearGradient2998"
       inkscape:collect="always" />
    <filter
       color-interpolation-filters="sRGB"
       height="1.3702595"
       y="-0.18512975"
       width="1.2076595"
       x="-0.10382974"
       id="filter3533"
       inkscape:collect="always">
      <feGaussianBlur
         id="feGaussianBlur3535"
         stdDeviation="0.45819702"
         inkscape:collect="always" />
    </filter>
    <radialGradient
       r="3.015625"
       fy="29.374895"
       fx="99.765625"
       cy="29.374895"
       cx="99.765625"
       gradientTransform="matrix(1.9646726,3.4242959e-7,-1.0414508e-6,5.9752716,-167.24116,-126.14811)"
       gradientUnits="userSpaceOnUse"
       id="radialGradient8252"
       xlink:href="#linearGradient2998"
       inkscape:collect="always" />
    <filter
       color-interpolation-filters="sRGB"
       height="1.2057828"
       y="-0.10289138"
       width="1.3646584"
       x="-0.18232919"
       id="filter3529"
       inkscape:collect="always">
      <feGaussianBlur
         id="feGaussianBlur3531"
         stdDeviation="0.45819706"
         inkscape:collect="always" />
    </filter>
    <radialGradient
       r="3.015625"
       fy="29.374895"
       fx="99.765625"
       cy="29.374895"
       cx="99.765625"
       gradientTransform="matrix(1.9646726,3.4242959e-7,-1.0414508e-6,5.9752716,-96.241137,-146.14811)"
       gradientUnits="userSpaceOnUse"
       id="radialGradient8254"
       xlink:href="#linearGradient2998"
       inkscape:collect="always" />
    <filter
       color-interpolation-filters="sRGB"
       height="1.3702595"
       y="-0.18512975"
       width="1.2076595"
       x="-0.10382974"
       id="filter3541"
       inkscape:collect="always">
      <feGaussianBlur
         id="feGaussianBlur3543"
         stdDeviation="0.45819702"
         inkscape:collect="always" />
    </filter>
    <radialGradient
       r="3.015625"
       fy="29.374895"
       fx="99.765625"
       cy="29.374895"
       cx="99.765625"
       gradientTransform="matrix(1.9646726,3.4242959e-7,-1.0414508e-6,5.9752716,-96.241137,-146.14811)"
       gradientUnits="userSpaceOnUse"
       id="radialGradient8256"
       xlink:href="#linearGradient2998"
       inkscape:collect="always" />
    <filter
       color-interpolation-filters="sRGB"
       height="1.2057828"
       y="-0.10289138"
       width="1.3646584"
       x="-0.18232919"
       id="filter3537"
       inkscape:collect="always">
      <feGaussianBlur
         id="feGaussianBlur3539"
         stdDeviation="0.45819706"
         inkscape:collect="always" />
    </filter>
    <radialGradient
       r="52.000004"
       fy="87.08094"
       fx="53.15992"
       cy="95.459297"
       cx="52.791927"
       gradientTransform="matrix(0.5827558,8.8117673e-8,-1.4310329e-7,0.9476925,23.156011,-1.9491064)"
       gradientUnits="userSpaceOnUse"
       id="radialGradient8258"
       xlink:href="#linearGradient2981"
       inkscape:collect="always" />
    <linearGradient
       id="linearGradient2981"
       inkscape:collect="always">
      <stop
         id="stop2983"
         offset="0"
         style="stop-color:#001400;stop-opacity:1;" />
      <stop
         id="stop2985"
         offset="1"
         style="stop-color:#001400;stop-opacity:0;" />
    </linearGradient>
    <radialGradient
       r="48.000004"
       fy="99.883759"
       fx="54.537579"
       cy="77.542084"
       cx="54.537579"
       gradientTransform="matrix(1.3537573,6.0385115e-8,-4.5257853e-8,1.0160126,-19.498529,-0.7409857)"
       gradientUnits="userSpaceOnUse"
       id="radialGradient8260"
       xlink:href="#linearGradient2948"
       inkscape:collect="always" />
    <linearGradient
       id="linearGradient2948"
       inkscape:collect="always">
      <stop
         id="stop2950"
         offset="0"
         style="stop-color:#66f515;stop-opacity:1" />
      <stop
         id="stop2952"
         offset="1"
         style="stop-color:#002e00;stop-opacity:1" />
    </linearGradient>
    <linearGradient
       y2="89.99453"
       x2="83.324677"
       y1="24.0625"
       x1="83.324677"
       gradientTransform="matrix(1.0320437,0,0,1.0327501,-2.0508249,2.033265)"
       gradientUnits="userSpaceOnUse"
       id="linearGradient8262"
       xlink:href="#linearGradient2971"
       inkscape:collect="always" />
    <linearGradient
       id="linearGradient2971"
       inkscape:collect="always">
      <stop
         id="stop2973"
         offset="0"
         style="stop-color:#bfffbf;stop-opacity:1;" />
      <stop
         id="stop2975"
         offset="1"
         style="stop-color:#bfffbf;stop-opacity:0;" />
    </linearGradient>
    <linearGradient
       y2="47.378731"
       x2="71.603867"
       y1="96.884026"
       x1="71.603867"
       gradientUnits="userSpaceOnUse"
       id="linearGradient8264"
       xlink:href="#linearGradient3415-6"
       inkscape:collect="always" />
    <filter
       color-interpolation-filters="sRGB"
       id="filter3423"
       inkscape:collect="always">
      <feGaussianBlur
         id="feGaussianBlur3425"
         stdDeviation="0.425"
         inkscape:collect="always" />
    </filter>
    <linearGradient
       y2="46.277084"
       x2="77.137749"
       y1="74.838577"
       x1="87.533279"
       gradientTransform="matrix(1.0320437,0,0,1.0327501,-2.0508249,-2.0977352)"
       gradientUnits="userSpaceOnUse"
       id="linearGradient8266"
       xlink:href="#linearGradient3436"
       inkscape:collect="always" />
    <linearGradient
       id="linearGradient3436"
       inkscape:collect="always">
      <stop
         id="stop3438"
         offset="0"
         style="stop-color:#ffffff;stop-opacity:1;" />
      <stop
         id="stop3440"
         offset="1"
         style="stop-color:#ffffff;stop-opacity:0;" />
    </linearGradient>
    <linearGradient
       y2="69.837845"
       x2="83.324677"
       y1="24.0625"
       x1="83.324677"
       gradientTransform="matrix(1.0320437,0,0,1.0327501,-2.0508249,2.033265)"
       gradientUnits="userSpaceOnUse"
       id="linearGradient8268"
       xlink:href="#linearGradient3436"
       inkscape:collect="always" />
    <linearGradient
       id="linearGradient4126">
      <stop
         id="stop4128"
         offset="0"
         style="stop-color:#555555;stop-opacity:1;" />
      <stop
         id="stop4130"
         offset="1"
         style="stop-color:#000000;stop-opacity:1;" />
    </linearGradient>
    <linearGradient
       gradientTransform="matrix(1.3236014,0,0,1.295062,-13.67787,-20.239744)"
       inkscape:collect="always"
       xlink:href="#linearGradient4126"
       id="linearGradient3946"
       gradientUnits="userSpaceOnUse"
       x1="58.929012"
       y1="58.6684"
       x2="58.929012"
       y2="5.3364" />
    <linearGradient
       gradientTransform="matrix(1.3236014,0,0,1.295062,-13.67787,-20.239744)"
       y2="5.3364"
       x2="58.929012"
       y1="58.6684"
       x1="58.929012"
       gradientUnits="userSpaceOnUse"
       id="linearGradient4000"
       xlink:href="#linearGradient4126"
       inkscape:collect="always" />
    <linearGradient
       inkscape:collect="always"
       xlink:href="#linearGradient4126"
       id="linearGradient3097"
       gradientUnits="userSpaceOnUse"
       gradientTransform="matrix(1.3236014,0,0,1.295062,-13.67787,-20.239744)"
       x1="58.929012"
       y1="58.6684"
       x2="58.929012"
       y2="5.3364" />
  </defs>
  <sodipodi:namedview
     id="base"
     pagecolor="#ffffff"
     bordercolor="#666666"
     borderopacity="1.0"
     gridtolerance="10000"
     guidetolerance="10"
     objecttolerance="10"
     inkscape:pageopacity="0"
     inkscape:pageshadow="2"
     inkscape:zoom="4"
     inkscape:cx="95.356937"
     inkscape:cy="74.200399"
     inkscape:document-units="px"
     inkscape:current-layer="svg2"
     width="128px"
     height="128px"
     borderlayer="true"
     showgrid="true"
     showborder="true"
     inkscape:grid-points="true"
     inkscape:window-width="1098"
     inkscape:window-height="760"
     inkscape:window-x="455"
     inkscape:window-y="345"
     inkscape:snap-bbox="true"
     inkscape:window-maximized="0">
    <inkscape:grid
       id="GridFromPre046Settings"
       type="xygrid"
       originx="0px"
       originy="0px"
       spacingx="4px"
       spacingy="4px"
       color="#0000ff"
       empcolor="#0000ff"
       opacity="0.2"
       empopacity="0.4"
       empspacing="2"
       visible="true"
       enabled="true"
       snapvisiblegridlinesonly="true" />
  </sodipodi:namedview>
  <metadata
     id="metadata7">
    <rdf:RDF>
      <cc:Work
         rdf:about="">
        <dc:format>image/svg+xml</dc:format>
        <dc:type
           rdf:resource="http://purl.org/dc/dcmitype/StillImage" />
        <dc:title></dc:title>
      </cc:Work>
    </rdf:RDF>
  </metadata>
  <path
     sodipodi:type="inkscape:offset"
     inkscape:radius="-0.60060769"
     inkscape:original="M 98.625 7.40625 C 95.59578 7.40629 92.9717 7.905978 90.71875 8.90625 C 88.4847 9.9066 86.60835 11.309656 85.09375 13.125 C 83.57915 14.921889 82.4448 17.087203 81.6875 19.625 C 80.9302 22.162853 80.53125 24.95624 80.53125 28.03125 C 80.53125 31.217444 80.9302 34.112637 81.6875 36.6875 C 82.4448 39.24386 83.56683 41.39645 85.0625 43.15625 C 86.55816 44.916062 88.39757 46.28674 90.59375 47.25 C 92.80884 48.19474 95.39026 48.65625 98.34375 48.65625 C 101.35399 48.65625 103.97237 48.188939 106.1875 47.28125 C 108.40257 46.355037 110.11972 45.39384 111.3125 44.375 L 108.53125 40.5625 C 108.1147 40.858895 107.56886 41.204747 106.90625 41.59375 C 106.24358 41.964242 105.48925 42.310092 104.65625 42.625 C 103.82319 42.921394 102.88501 43.171238 101.84375 43.375 C 100.82137 43.578768 99.71736 43.687506 98.5625 43.6875 C 94.41626 43.687506 91.35058 42.291375 89.34375 39.53125 C 87.35583 36.752617 86.37499 32.921677 86.375 28.03125 C 86.37499 23.140861 87.36814 19.309922 89.375 16.53125 C 91.40076 13.734117 94.47876 12.343787 98.625 12.34375 C 99.91239 12.343787 101.04674 12.439793 102.03125 12.625 C 103.01571 12.810278 103.93588 13.060123 104.75 13.375 C 105.56407 13.671425 106.26913 14.017273 106.875 14.40625 C 107.49974 14.795293 108.05129 15.160796 108.5625 15.53125 L 111.375 11.6875 C 109.72784 10.372313 107.87611 9.340559 105.8125 8.5625 C 103.76776 7.78452 101.37019 7.40629 98.625 7.40625 z "
     style="font-size:43.94123459px;font-style:normal;font-variant:normal;font-weight:normal;font-stretch:normal;line-height:125%;letter-spacing:0px;word-spacing:0px;fill:url(#linearGradient3097);fill-opacity:1;stroke:none;font-family:Nokia Pure Headline;-inkscape-font-specification:Nokia Pure Headline"
     id="path3095"
     d="m 98.625,8 c -2.963175,3.91e-5 -5.493581,0.5085613 -7.65625,1.46875 -2.157354,0.966007 -3.950445,2.286376 -5.40625,4.03125 -1.4566,1.728079 -2.575425,3.811228 -3.3125,6.28125 -0.739296,2.47752 -1.125,5.226938 -1.125,8.25 0,3.136058 0.385976,5.987278 1.125,8.5 0.73749,2.48949 1.846106,4.561414 3.28125,6.25 1.437958,1.691919 3.195281,2.977623 5.3125,3.90625 2.125129,0.906371 4.609077,1.375 7.5,1.375 2.94808,0 5.4966,-0.471601 7.625,-1.34375 1.93113,-0.807486 3.39878,-1.625754 4.5,-2.46875 L 108.375,41.375 c -0.35701,0.235795 -0.68528,0.473503 -1.15625,0.75 a 0.60066775,0.60066775 0 0 1 -0.0313,0 c -0.69316,0.38754 -1.45563,0.738567 -2.3125,1.0625 a 0.60066775,0.60066775 0 0 1 -0.0313,0 c -0.8668,0.3084 -1.80966,0.572776 -2.875,0.78125 -1.0635,0.211963 -2.213687,0.312506 -3.40625,0.3125 -4.281066,6e-6 -7.597482,-1.488731 -9.71875,-4.40625 -2.085525,-2.915062 -3.06251,-6.873016 -3.0625,-11.84375 -1e-5,-4.971705 0.988543,-8.928909 3.09375,-11.84375 2.139829,-2.954637 5.469498,-4.437462 9.75,-4.4375 1.31724,3.8e-5 2.50142,0.08752 3.53125,0.28125 1.01406,0.190848 1.95606,0.450007 2.8125,0.78125 0.85044,0.309667 1.57082,0.677768 2.21875,1.09375 0.45162,0.281235 0.82662,0.542377 1.21875,0.8125 l 2.125,-2.875 C 109.04948,10.732667 107.41924,9.8132778 105.59375,9.125 103.63438,8.3795029 101.31503,8.0000392 98.625,8 z" />
  <path
     d="m 38.55997,36.162273 -13.25014,-0.1 -4.35105,11.953197 -4.64018,0 13.48942,-40.01247 4.25135,0 13.54621,40.01247 -4.66616,0 -4.37945,-11.853197 m -12.3166,-4.012548 11.21147,0 -5.44894,-17.477981 -5.76253,17.477981"
     style="font-size:43.94123459px;font-style:normal;font-variant:normal;font-weight:normal;font-stretch:normal;line-height:125%;letter-spacing:0px;word-spacing:0px;fill:url(#linearGradient4000);fill-opacity:1;stroke:none;font-family:Nokia Pure Headline;-inkscape-font-specification:Nokia Pure Headline"
     id="path3125"
     inkscape:connector-curvature="0"
     sodipodi:nodetypes="ccccccccccccc" />
  <g
     transform="matrix(1.093923,0,0,1.093923,-80.668714,22.107514)"
     id="g3840">
    <g
       id="layer1-5"
       inkscape:label="Layer 1"
       transform="translate(71.000004,-15.052857)">
      <g
         transform="translate(2.3931686e-5,0)"
         id="g2358"
         style="overflow:visible">
        <path
           inkscape:connector-curvature="0"
           style="fill:none;stroke:url(#linearGradient8244);stroke-width:8;stroke-linecap:round;stroke-linejoin:round;stroke-miterlimit:4;stroke-opacity:1;stroke-dasharray:none"
           id="path2365"
           d="M 54.086153,74.485105 C 45.677062,65.861347 27.497467,47.216081 27.497467,47.216081 L 14.461871,60.588127 54.086153,100.95761 113.53808,40.245018 100.5007,26.873858 c 0,0 -36.391927,37.331253 -46.414547,47.611247 z"
           sodipodi:nodetypes="ccccccc" />
        <path
           inkscape:connector-curvature="0"
           transform="matrix(1.0320437,0,0,-1.0327501,24.782337,150.49087)"
           id="path3455"
           d="m 28.406226,44.03125 c -0.149888,-0.0024 -0.286582,0.01658 -0.4375,0.03125 -0.827192,0.08205 -1.59533,0.427082 -2.21875,0.96875 l 1.6875,9.6875 c 0.110915,-0.113676 0.850367,-0.848179 0.9375,-0.9375 l 0.375,0.375 3.03125,-8.34375 -0.5625,-0.5625 c -0.74135,-0.759594 -1.76329,-1.201919 -2.8125,-1.21875 z"
           style="opacity:0.40952382;fill:url(#radialGradient8248);fill-opacity:1;stroke:none;filter:url(#filter3525)" />
        <path
           inkscape:connector-curvature="0"
           id="path3290"
           transform="matrix(-0.3529798,0.9704677,0.969804,0.3532214,22.934783,-45.683195)"
           d="m 99.40625,24.03125 c -0.149888,-0.0024 -0.286582,0.01658 -0.4375,0.03125 -0.827192,0.08205 -1.59533,0.427082 -2.21875,0.96875 l 1.6875,9.6875 c 0.110915,-0.113676 0.850367,-0.848179 0.9375,-0.9375 l 0.375,0.375 3.03125,-8.34375 -0.5625,-0.5625 c -0.74135,-0.759594 -1.76329,-1.201919 -2.8125,-1.21875 z"
           style="opacity:0.23809521;fill:url(#radialGradient8250);fill-opacity:1;stroke:none;filter:url(#filter3533)" />
        <path
           inkscape:connector-curvature="0"
           transform="matrix(1.0320437,0,0,1.0327501,-2.0508002,-2.0977352)"
           style="opacity:0.77619048;fill:url(#radialGradient8252);fill-opacity:1;stroke:none;filter:url(#filter3529)"
           d="m 28.406226,44.03125 c -0.149888,-0.0024 -0.286582,0.01658 -0.4375,0.03125 -0.827192,0.08205 -1.59533,0.427082 -2.21875,0.96875 l 1.6875,9.6875 c 0.110915,-0.113676 0.850367,-0.848179 0.9375,-0.9375 l 0.375,0.375 3.03125,-8.34375 -0.5625,-0.5625 c -0.74135,-0.759594 -1.76329,-1.201919 -2.8125,-1.21875 z"
           id="path3286" />
        <path
           inkscape:connector-curvature="0"
           style="opacity:0.37142861;fill:url(#radialGradient8254);fill-opacity:1;stroke:none;filter:url(#filter3541)"
           d="m 99.40625,24.03125 c -0.149888,-0.0024 -0.286582,0.01658 -0.4375,0.03125 -0.827192,0.08205 -1.59533,0.427082 -2.21875,0.96875 l 1.6875,9.6875 c 0.110915,-0.113676 0.850367,-0.848179 0.9375,-0.9375 l 0.375,0.375 3.03125,-8.34375 -0.5625,-0.5625 c -0.74135,-0.759594 -1.76329,-1.201919 -2.8125,-1.21875 z"
           transform="matrix(0.3529798,0.9704677,-0.969804,0.3532214,105.83222,-66.338197)"
           id="path3254" />
        <path
           inkscape:connector-curvature="0"
           id="path2989"
           transform="matrix(1.0320437,0,0,1.0327501,-2.0508249,-2.0977352)"
           d="m 99.40625,24.03125 c -0.149888,-0.0024 -0.286582,0.01658 -0.4375,0.03125 -0.827192,0.08205 -1.59533,0.427082 -2.21875,0.96875 l 1.6875,9.6875 c 0.110915,-0.113676 0.850367,-0.848179 0.9375,-0.9375 l 0.375,0.375 3.03125,-8.34375 -0.5625,-0.5625 c -0.74135,-0.759594 -1.76329,-1.201919 -2.8125,-1.21875 z"
           style="opacity:0.87142855;fill:url(#radialGradient8256);fill-opacity:1;stroke:none;filter:url(#filter3537)" />
        <path
           inkscape:connector-curvature="0"
           d="M 54.086153,74.485105 C 45.677062,65.861347 27.497467,47.216081 27.497467,47.216081 L 14.461871,60.588127 54.086153,100.95761 113.53808,40.245018 100.5007,26.873858 c 0,0 -36.391927,37.331253 -46.414547,47.611247 z"
           id="path2979"
           style="opacity:0.2857143;fill:none;stroke:url(#radialGradient8258);stroke-width:8;stroke-linecap:round;stroke-linejoin:round;stroke-miterlimit:4;stroke-opacity:1;stroke-dasharray:none"
           sodipodi:nodetypes="ccccccc" />
        <path
           inkscape:connector-curvature="0"
           d="M 54.086153,74.485105 C 45.677061,65.861347 27.497467,47.216081 27.497467,47.216081 L 14.461871,60.588127 54.086153,100.95761 113.53808,40.245017 100.5007,26.873858 c 0,0 -36.391927,37.331254 -46.414547,47.611247 z"
           id="path24"
           style="fill:url(#radialGradient8260);fill-opacity:1"
           sodipodi:nodetypes="ccccccc" />
        <path
           inkscape:connector-curvature="0"
           id="path2964"
           d="m 100.50852,26.883814 c 0,0 -36.387094,37.32333 -46.409714,47.603323 C 45.689715,65.86338 27.491428,47.216081 27.491428,47.216081 l -13.029552,13.361204 16.99647,17.427657 c 0.194964,5.03e-4 0.385342,0 0.580525,0 18.09152,0 35.230146,-2.161689 50.602395,-6.035133 L 113.53808,40.245017 100.50852,26.883814 z"
           style="fill:url(#linearGradient8262);fill-opacity:1" />
        <path
           inkscape:connector-curvature="0"
           transform="matrix(1.0320437,0,0,1.0327501,-2.0508002,-2.0977352)"
           style="fill:none;stroke:url(#linearGradient8264);stroke-width:0.96861976;stroke-opacity:1;filter:url(#filter3423)"
           id="path3413"
           d="M 54.393966,74.154282 C 46.245967,65.803997 28.630827,47.75 28.630827,47.75 L 15.999972,60.697999 54.393966,99.787304 111.99998,41 99.367397,28.05286 c 0,0 -35.262002,36.147423 -44.973431,46.101422 z"
           sodipodi:nodetypes="ccccccc" />
        <path
           inkscape:connector-curvature="0"
           sodipodi:nodetypes="ccccsccsccc"
           id="path3427"
           d="m 100.50852,26.883814 c 0,0 -0.41306,0.445467 -0.41926,0.451828 L 112.66729,40.019104 81.705977,71.22752 c -15.405523,3.808403 -32.052449,6.42241 -50.183128,6.422414 -0.130404,0 -0.258105,-10e-7 -0.387016,0 l 0.322513,0.355008 c 0.194965,5.03e-4 0.385342,0 0.580525,0 18.09152,0 35.230146,-2.161689 50.602395,-6.035133 L 113.53807,40.245017 100.50852,26.883814 z"
           style="fill:url(#linearGradient8266);fill-opacity:1" />
        <path
           inkscape:connector-curvature="0"
           id="path3444"
           d="m 100.50852,26.883814 c 0,0 -36.387094,37.32333 -46.409714,47.603323 C 45.689715,65.86338 27.491428,47.216081 27.491428,47.216081 l -13.029552,13.361204 0.516022,0.516374 12.51353,-12.844828 c 0,0 18.198287,18.647298 26.607378,27.271056 10.02262,-10.279993 46.409714,-47.603323 46.409714,-47.603323 l 12.51353,12.844829 0.51602,-0.516376 -13.02955,-13.361203 z"
           style="fill:url(#linearGradient8268);fill-opacity:1" />
      </g>
    </g>
  </g>
  <path
     d="m 62.69288,8.003 c 2.51801,4e-5 4.61005,0.324215 6.27613,0.972525 1.66604,0.648388 2.99131,1.463456 3.97583,2.445207 1.00339,0.981822 1.69443,2.084016 2.07311,3.306586 0.39755,1.204111 0.59634,2.398926 0.59637,3.58445 -3e-5,1.444923 -0.23668,2.395312 -0.70997,3.451169 -0.4544,1.05591 -1.02238,1.935812 -1.70392,2.639711 -0.6816,0.703946 -1.4105,0.950412 -2.18671,1.339399 -0.77625,0.370508 -1.47676,0.611324 -2.10151,0.722448 0.73835,0.111168 1.60924,0.34272 2.61269,0.694661 1.02233,0.333458 1.99735,1.070661 2.92507,1.811614 0.92767,0.740989 1.7039,2.122776 2.3287,3.345362 0.64368,1.204093 0.96553,2.741608 0.96556,4.612549 -3e-5,1.593098 -0.27455,3.07504 -0.82356,4.44583 -0.53014,1.352278 -1.39157,2.52857 -2.58429,3.528877 -1.17384,0.98179 -2.67898,1.750547 -4.51541,2.306275 -1.83647,0.537204 -4.04211,0.805807 -6.61691,0.805807 L 52,48.01547 52,8.003 l 10.69288,0 m -0.70997,16.044231 c 1.59032,2.4e-5 2.91559,-0.185219 3.97583,-0.555728 1.07913,-0.388987 2.34056,-0.698404 2.98429,-1.328255 0.64368,-0.629801 1.0886,-1.133722 1.33474,-1.91177 0.2461,-0.777991 0.36916,-1.065274 0.36918,-1.861847 -2e-5,-2.056165 -0.59269,-3.785459 -1.93688,-4.767279 -1.32529,-0.981753 -3.62801,-1.472646 -6.10815,-1.472681 l -6.50332,0 -0.0794,11.89756 5.96374,0 m 2.06734,20.03504 c 1.55245,4e-6 2.85879,0.01476 3.91903,-0.355729 1.07913,-0.389005 2.34056,-1.48916 2.98429,-2.100468 0.66261,-0.629819 1.12646,-1.352265 1.39154,-2.167342 0.28396,-0.815059 0.42596,-2.6857 0.42598,-3.611925 -2e-5,-1.333735 -0.32557,-1.86897 -0.81779,-2.758149 -0.47334,-0.889151 -1.14544,-2.302335 -2.01632,-2.839557 -0.87091,-0.555711 -2.32167,-1.153983 -3.55226,-1.394816 -1.2117,-0.259322 -2.57484,-0.388992 -4.08942,-0.389011 l -6.1967,-0.01601 0,15.633 7.95165,0"
     style="font-size:43.94123459px;font-style:normal;font-variant:normal;font-weight:normal;font-stretch:normal;line-height:125%;letter-spacing:0px;word-spacing:0px;fill:url(#linearGradient3946);fill-opacity:1;stroke:none;font-family:Nokia Pure Headline;-inkscape-font-specification:Nokia Pure Headline"
     id="path3127"
     inkscape:connector-curvature="0"
     sodipodi:nodetypes="ccccccscccccccccscccccsccccccccccccccccccc" />
</svg>
