<?xml version="1.0" encoding="UTF-8" standalone="no"?>
<!-- Created with Inkscape (http://www.inkscape.org/) -->

<svg
   xmlns:dc="http://purl.org/dc/elements/1.1/"
   xmlns:cc="http://creativecommons.org/ns#"
   xmlns:rdf="http://www.w3.org/1999/02/22-rdf-syntax-ns#"
   xmlns:svg="http://www.w3.org/2000/svg"
   xmlns="http://www.w3.org/2000/svg"
   xmlns:xlink="http://www.w3.org/1999/xlink"
   xmlns:sodipodi="http://sodipodi.sourceforge.net/DTD/sodipodi-0.dtd"
   xmlns:inkscape="http://www.inkscape.org/namespaces/inkscape"
   width="128"
   height="128"
   id="svg2"
   sodipodi:version="0.32"
   inkscape:version="0.46+devel"
   version="1.0"
   sodipodi:docname="view-calendar-special-occasion.svgz"
   inkscape:output_extension="org.inkscape.output.svgz.inkscape"
   inkscape:export-filename="/home/pinheiro/pics/oxygen-icons/scalable/actions/small/32x32/view-calendar-special-occasion.png"
   inkscape:export-xdpi="720"
   inkscape:export-ydpi="720">
  <defs
     id="defs4">
    <inkscape:perspective
       sodipodi:type="inkscape:persp3d"
       inkscape:vp_x="0 : 64 : 1"
       inkscape:vp_y="0 : 1000 : 0"
       inkscape:vp_z="128 : 64 : 1"
       inkscape:persp3d-origin="64 : 42.666667 : 1"
       id="perspective110" />
    <linearGradient
       id="linearGradient10897">
      <stop
         style="stop-color:#820000;stop-opacity:1;"
         offset="0"
         id="stop10899" />
      <stop
         style="stop-color:#000000;stop-opacity:0;"
         offset="1"
         id="stop10901" />
    </linearGradient>
    <linearGradient
       id="linearGradient10879">
      <stop
         style="stop-color:#000000;stop-opacity:1;"
         offset="0"
         id="stop10881" />
      <stop
         style="stop-color:#660000;stop-opacity:1;"
         offset="1"
         id="stop10883" />
    </linearGradient>
    <linearGradient
       inkscape:collect="always"
       id="linearGradient10867">
      <stop
         style="stop-color:#ffffff;stop-opacity:1"
         offset="0"
         id="stop10869" />
      <stop
         style="stop-color:#555555;stop-opacity:1"
         offset="1"
         id="stop10871" />
    </linearGradient>
    <linearGradient
       id="linearGradient10964">
      <stop
         style="stop-color:#ffffff;stop-opacity:1;"
         offset="0"
         id="stop10966" />
      <stop
         style="stop-color:#eeeeee;stop-opacity:1"
         offset="1"
         id="stop10968" />
    </linearGradient>
    <filter
       inkscape:collect="always"
       id="filter9643">
      <feGaussianBlur
         inkscape:collect="always"
         stdDeviation="1.18"
         id="feGaussianBlur9645" />
    </filter>
    <radialGradient
       inkscape:collect="always"
       xlink:href="#linearGradient3831-6"
       id="radialGradient10781"
       gradientUnits="userSpaceOnUse"
       gradientTransform="matrix(1.3200684,-5.4249581e-5,4.5327926e-5,1.1029756,0.6389866,10.038529)"
       cx="48"
       cy="-0.2148"
       r="55.147999"
       fx="48"
       fy="-0.2148" />
    <radialGradient
       inkscape:collect="always"
       xlink:href="#linearGradient3831"
       id="radialGradient10784"
       gradientUnits="userSpaceOnUse"
       gradientTransform="matrix(1.25,0,0,1,4.0000013,8.1249992)"
       cx="48.125"
       cy="8.625"
       r="49.875" />
    <clipPath
       clipPathUnits="userSpaceOnUse"
       id="clipPath10906">
      <rect
         y="40.838711"
         x="0.12903222"
         height="89.032265"
         width="127.74194"
         id="rect10908"
         style="opacity:1;fill:#ffffff;fill-opacity:1;stroke:none;stroke-width:4;stroke-miterlimit:4;stroke-dasharray:none;stroke-opacity:1" />
    </clipPath>
    <clipPath
       clipPathUnits="userSpaceOnUse"
       id="clipPath10917">
      <rect
         y="-13.354839"
         x="-28.903227"
         height="54.19355"
         width="185.80646"
         id="rect10919"
         style="opacity:1;fill:#ffffff;fill-opacity:1;stroke:none;stroke-width:4;stroke-miterlimit:4;stroke-dasharray:none;stroke-opacity:1" />
    </clipPath>
    <linearGradient
       inkscape:collect="always"
       xlink:href="#linearGradient10964"
       id="linearGradient11297"
       gradientUnits="userSpaceOnUse"
       x1="27.936609"
       y1="31.109358"
       x2="32.048244"
       y2="177.5768" />
    <linearGradient
       inkscape:collect="always"
       xlink:href="#linearGradient10867"
       id="linearGradient10873"
       x1="24"
       y1="6.1218567"
       x2="24"
       y2="-4.0054421"
       gradientUnits="userSpaceOnUse"
       spreadMethod="reflect"
       gradientTransform="scale(1,1.1648177)" />
    <radialGradient
       inkscape:collect="always"
       xlink:href="#linearGradient10879"
       id="radialGradient10885"
       cx="24"
       cy="17.363621"
       fx="24"
       fy="17.363621"
       r="10.839936"
       gradientTransform="matrix(1.7134983,0,0,0.6139271,-17.123959,5.5555333)"
       gradientUnits="userSpaceOnUse" />
    <radialGradient
       inkscape:collect="always"
       xlink:href="#linearGradient10879"
       id="radialGradient10891"
       gradientUnits="userSpaceOnUse"
       gradientTransform="matrix(1.7134983,0,0,0.6139271,62.799971,5.5555333)"
       cx="24"
       cy="17.363621"
       fx="24"
       fy="17.363621"
       r="10.839936" />
    <linearGradient
       inkscape:collect="always"
       xlink:href="#linearGradient10867"
       id="linearGradient10893"
       gradientUnits="userSpaceOnUse"
       gradientTransform="matrix(1,0,0,1.1648177,79.92393,0)"
       spreadMethod="reflect"
       x1="24"
       y1="6.1218567"
       x2="24"
       y2="-4.0054421" />
    <linearGradient
       inkscape:collect="always"
       xlink:href="#linearGradient10897"
       id="linearGradient10903"
       x1="25.559429"
       y1="-0.20285282"
       x2="25.559429"
       y2="4.0027528"
       gradientUnits="userSpaceOnUse" />
    <linearGradient
       inkscape:collect="always"
       xlink:href="#linearGradient10897"
       id="linearGradient10907"
       gradientUnits="userSpaceOnUse"
       x1="25.559429"
       y1="-0.20285282"
       x2="25.559429"
       y2="4.0027528"
       gradientTransform="translate(79.92393,0)" />
    <linearGradient
       inkscape:collect="always"
       xlink:href="#linearGradient10897"
       id="linearGradient10911"
       gradientUnits="userSpaceOnUse"
       gradientTransform="matrix(1,0,0,1.2895928,79.92393,-18.34379)"
       x1="25.559429"
       y1="-0.20285282"
       x2="25.559429"
       y2="4.0027528" />
    <linearGradient
       inkscape:collect="always"
       xlink:href="#linearGradient10897"
       id="linearGradient10915"
       gradientUnits="userSpaceOnUse"
       gradientTransform="matrix(1,0,0,1.2895928,-0.2028529,-18.34379)"
       x1="25.559429"
       y1="-0.20285282"
       x2="25.559429"
       y2="4.0027528" />
    <linearGradient
       id="linearGradient3810">
      <stop
         id="stop3812"
         offset="0"
         style="stop-color:#ebdd91;stop-opacity:1;" />
      <stop
         style="stop-color:#d9b75d;stop-opacity:1"
         offset="0.82156402"
         id="stop3814" />
      <stop
         id="stop3816"
         offset="0.87242079"
         style="stop-color:#e3bb59;stop-opacity:1" />
      <stop
         id="stop3818"
         offset="0.87755108"
         style="stop-color:#d8ae46;stop-opacity:1" />
      <stop
         style="stop-color:#fdf393;stop-opacity:1"
         offset="0.89598852"
         id="stop3820" />
      <stop
         id="stop3822"
         offset="0.91836739"
         style="stop-color:#fdfa9f;stop-opacity:1" />
      <stop
         style="stop-color:#b58019;stop-opacity:1"
         offset="0.98913205"
         id="stop3824" />
      <stop
         id="stop3826"
         offset="1"
         style="stop-color:#d2b04c;stop-opacity:1" />
    </linearGradient>
    <linearGradient
       id="linearGradient3831">
      <stop
         style="stop-color:#ffb4b4;stop-opacity:1;"
         offset="0"
         id="stop3833" />
      <stop
         style="stop-color:#8c0000;stop-opacity:1"
         offset="1"
         id="stop3835" />
    </linearGradient>
    <linearGradient
       id="linearGradient4619">
      <stop
         style="stop-color:#ebdd91;stop-opacity:1;"
         offset="0"
         id="stop4621" />
      <stop
         id="stop4623"
         offset="0.7582137"
         style="stop-color:#d9b75d;stop-opacity:1" />
      <stop
         style="stop-color:#e3bb59;stop-opacity:1"
         offset="0.82816505"
         id="stop4625" />
      <stop
         style="stop-color:#d8ae46;stop-opacity:1"
         offset="0.83974928"
         id="stop4627" />
      <stop
         id="stop4629"
         offset="0.85818672"
         style="stop-color:#fdf393;stop-opacity:1" />
      <stop
         style="stop-color:#fdfa9f;stop-opacity:1"
         offset="0.89439553"
         id="stop4631" />
      <stop
         id="stop4633"
         offset="0.98913205"
         style="stop-color:#b58019;stop-opacity:1" />
      <stop
         style="stop-color:#d2b04c;stop-opacity:1"
         offset="1"
         id="stop4635" />
    </linearGradient>
    <linearGradient
       id="linearGradient4691">
      <stop
         style="stop-color:#ebdd91;stop-opacity:1;"
         offset="0"
         id="stop4693" />
      <stop
         id="stop4695"
         offset="0.73038304"
         style="stop-color:#d9b75d;stop-opacity:1" />
      <stop
         style="stop-color:#e3bb59;stop-opacity:1"
         offset="0.82608974"
         id="stop4697" />
      <stop
         style="stop-color:#d8ae46;stop-opacity:1"
         offset="0.85052466"
         id="stop4699" />
      <stop
         id="stop4701"
         offset="0.89598852"
         style="stop-color:#fdf393;stop-opacity:1" />
      <stop
         style="stop-color:#fdfa9f;stop-opacity:1"
         offset="0.91836739"
         id="stop4703" />
      <stop
         id="stop4705"
         offset="0.98913205"
         style="stop-color:#b58019;stop-opacity:1" />
      <stop
         style="stop-color:#d2b04c;stop-opacity:1"
         offset="1"
         id="stop4707" />
    </linearGradient>
    <radialGradient
       inkscape:collect="always"
       xlink:href="#linearGradient3831"
       id="radialGradient4179"
       gradientUnits="userSpaceOnUse"
       gradientTransform="matrix(1.0735267,-4.6475655e-5,3.6862286e-5,0.9449199,-122.84658,-136.87185)"
       cx="48"
       cy="-0.2148"
       fx="48"
       fy="-0.2148"
       r="55.147999" />
    <filter
       id="filter5633"
       inkscape:collect="always">
      <feGaussianBlur
         id="feGaussianBlur5635"
         stdDeviation="3.8668223"
         inkscape:collect="always" />
    </filter>
    <filter
       id="filter4931"
       inkscape:collect="always">
      <feGaussianBlur
         id="feGaussianBlur4933"
         stdDeviation="0.38961149"
         inkscape:collect="always" />
    </filter>
    <filter
       id="filter4917"
       inkscape:collect="always">
      <feGaussianBlur
         id="feGaussianBlur4919"
         stdDeviation="0.2467224"
         inkscape:collect="always" />
    </filter>
    <filter
       id="filter4886"
       inkscape:collect="always">
      <feGaussianBlur
         id="feGaussianBlur4888"
         stdDeviation="0.41738014"
         inkscape:collect="always" />
    </filter>
    <radialGradient
       r="40.430302"
       fy="176.86684"
       fx="525.14954"
       cy="176.86684"
       cx="525.14954"
       gradientTransform="matrix(1,0,0,0.81521566,-5.6619046,76.876395)"
       gradientUnits="userSpaceOnUse"
       id="radialGradient4805"
       xlink:href="#linearGradient4071"
       inkscape:collect="always" />
    <clipPath
       id="clipPath4801"
       clipPathUnits="userSpaceOnUse">
      <path
         style="fill:url(#radialGradient4805);fill-opacity:1;stroke-width:1px"
         d="m 547.11881,188.10407 c -3.66019,-0.0921 -4.93194,2.4149 -7.60139,2.82843 -20.52671,3.17981 -39.33371,7.57014 -54.09367,22.80419 -4.36635,4.50659 -8.83053,10.73737 -4.77297,16.79379 5.36247,8.00416 11.93814,15.02219 19.62221,20.85965 2.87056,2.18072 5.61456,3.37398 9.01561,2.12132 26.48446,-9.75468 32.49368,-22.65365 42.24963,-45.96194 1.54695,-3.24829 3.90959,-6.04731 5.65686,-9.19239 0,0 3.23895,-3.0503 2.65165,-4.77297 -1.49054,-4.37208 -9.06774,-5.38795 -12.72793,-5.48008 z"
         id="path4803"
         sodipodi:nodetypes="cssssscssz" />
    </clipPath>
    <filter
       height="1.2683526"
       y="-0.1341763"
       width="1.1852346"
       x="-0.092617299"
       id="filter4753"
       inkscape:collect="always">
      <feGaussianBlur
         id="feGaussianBlur4755"
         stdDeviation="1.1563135"
         inkscape:collect="always" />
    </filter>
    <filter
       height="1.2070016"
       y="-0.10350078"
       width="1.0745205"
       x="-0.037260271"
       id="filter4745"
       inkscape:collect="always">
      <feGaussianBlur
         id="feGaussianBlur4747"
         stdDeviation="0.61750765"
         inkscape:collect="always" />
    </filter>
    <filter
       id="filter4731"
       inkscape:collect="always">
      <feGaussianBlur
         id="feGaussianBlur4733"
         stdDeviation="0.57755137"
         inkscape:collect="always" />
    </filter>
    <filter
       id="filter4709"
       inkscape:collect="always">
      <feGaussianBlur
         id="feGaussianBlur4711"
         stdDeviation="0.81910572"
         inkscape:collect="always" />
    </filter>
    <filter
       id="filter4705"
       inkscape:collect="always">
      <feGaussianBlur
         id="feGaussianBlur4707"
         stdDeviation="0.81910572"
         inkscape:collect="always" />
    </filter>
    <filter
       id="filter4683"
       inkscape:collect="always">
      <feGaussianBlur
         id="feGaussianBlur4685"
         stdDeviation="0.50945443"
         inkscape:collect="always" />
    </filter>
    <filter
       id="filter4603"
       inkscape:collect="always">
      <feGaussianBlur
         id="feGaussianBlur4605"
         stdDeviation="0.86258562"
         inkscape:collect="always" />
    </filter>
    <filter
       id="filter4599"
       inkscape:collect="always">
      <feGaussianBlur
         id="feGaussianBlur4601"
         stdDeviation="0.78510274"
         inkscape:collect="always" />
    </filter>
    <filter
       id="filter4595"
       inkscape:collect="always">
      <feGaussianBlur
         id="feGaussianBlur4597"
         stdDeviation="0.70027112"
         inkscape:collect="always" />
    </filter>
    <radialGradient
       r="31.960064"
       fy="86.769524"
       fx="614.34991"
       cy="86.769524"
       cx="614.34991"
       gradientTransform="matrix(1,0,0,1.1017073,117.04578,111.96651)"
       gradientUnits="userSpaceOnUse"
       id="radialGradient4583"
       xlink:href="#linearGradient4071"
       inkscape:collect="always" />
    <clipPath
       id="clipPath4579"
       clipPathUnits="userSpaceOnUse">
      <path
         sodipodi:nodetypes="cscscsssssccc"
         id="path4581"
         d="m 705.52119,262.24563 c 0,0 17.11346,-6.32016 23.93661,-9.93978 12.28719,-6.51823 23.94098,-13.31539 31.49287,-25.66086 1.69082,-3.17937 3.15945,-5.67423 1.97781,-7.80982 -6.00866,-10.85955 -21.29376,-23.68951 -25.96513,-25.55943 -2.55017,-1.02082 -5.66367,-0.10475 -8.92552,1.21711 -5.88835,2.38626 -11.61159,6.25868 -16.63391,11.76546 -3.43483,3.76616 -6.20577,7.86199 -7.30269,11.9683 -0.85782,3.21124 -0.43306,6.88089 -0.40571,10.75119 0.0435,6.15444 0.67885,12.85077 -2.63708,19.06815 l -1.62282,3.04279 5.07131,12.17115 1.01426,-1.01426 z"
         style="fill:url(#radialGradient4583);fill-opacity:1;stroke-width:1px" />
    </clipPath>
    <filter
       id="filter4556"
       inkscape:collect="always">
      <feGaussianBlur
         id="feGaussianBlur4558"
         stdDeviation="0.47196062"
         inkscape:collect="always" />
    </filter>
    <filter
       id="filter4479"
       inkscape:collect="always">
      <feGaussianBlur
         id="feGaussianBlur4481"
         stdDeviation="0.62477247"
         inkscape:collect="always" />
    </filter>
    <filter
       id="filter4453"
       inkscape:collect="always">
      <feGaussianBlur
         id="feGaussianBlur4455"
         stdDeviation="0.62470675"
         inkscape:collect="always" />
    </filter>
    <radialGradient
       r="32.798069"
       fy="210.25783"
       fx="500.9935"
       cy="210.25783"
       cx="500.9935"
       gradientTransform="matrix(0.96769715,-0.2521155,0.56901032,2.1840373,34.078708,-101.20399)"
       gradientUnits="userSpaceOnUse"
       id="radialGradient4360"
       xlink:href="#linearGradient4071"
       inkscape:collect="always" />
    <clipPath
       id="clipPath4356"
       clipPathUnits="userSpaceOnUse">
      <path
         style="fill:url(#radialGradient4360);fill-opacity:1;stroke:none"
         d="m 612.44032,160.09003 a 1.0143645,1.0143645 0 0 0 -0.28125,0.125 c -0.0274,0.0139 -0.0328,0.0115 -0.0625,0.0313 -0.0256,0.0139 -0.0377,0.0149 -0.0625,0.0313 -0.11828,0.0777 -0.24834,0.15209 -0.40625,0.25 -0.30586,0.18965 -0.76518,0.44417 -1.21875,0.71875 -0.45406,0.27488 -0.8712,0.5524 -1.1875,0.75 -0.0995,0.0622 -0.23498,0.12508 -0.46875,0.28125 -0.1126,0.0753 -0.19049,0.13381 -0.25,0.1875 -0.0298,0.0268 -0.0433,0.0748 -0.0625,0.0937 l -0.0313,0 c -0.005,0.005 -0.0127,0.0107 -0.0313,0.0313 -1.7e-4,1.8e-4 -0.0625,0.0937 -0.0625,0.0937 -6.73849,6.57119 -9.95785,14.7464 -10.84375,23.59375 -0.89117,8.89994 0.57128,18.45681 3.1875,27.84375 5.21447,18.70947 15.00053,36.70704 20.15625,47.125 a 1.0143645,1.0143645 0 0 0 0.78125,0.5625 l 40.0625,5 a 1.0143645,1.0143645 0 0 0 1,-1.53125 c -17.39229,-29.438 -32.51429,-59.83765 -41.375,-92.90625 -0.30238,-1.12853 -1.11502,-1.71711 -1.78125,-2.375 -0.34165,-0.33736 -0.63716,-0.61494 -0.78125,-0.84375 -0.14173,-0.22506 -0.14741,-0.39593 -0.125,-0.5 -0.018,0.0837 0.0581,-0.16178 0.15625,-0.46875 0.0891,-0.27895 0.18524,-0.60405 0.28125,-0.90625 0.10548,-0.33201 0.18169,-0.63051 0.25,-0.875 3.4e-4,-0.001 0.0587,-0.0431 0.125,-0.34375 a 1.0143645,1.0143645 0 0 0 -0.34375,-1 l -5.75,-4.75 a 1.0143645,1.0143645 0 0 0 -0.875,-0.21875 z"
         id="path4358" />
    </clipPath>
    <filter
       height="1.1824269"
       y="-0.09121346"
       width="1.4076416"
       x="-0.20382078"
       id="filter4340"
       inkscape:collect="always">
      <feGaussianBlur
         id="feGaussianBlur4342"
         stdDeviation="0.7822854"
         inkscape:collect="always" />
    </filter>
    <filter
       height="1.1596315"
       y="-0.079815743"
       width="1.2993264"
       x="-0.14966319"
       id="filter4318"
       inkscape:collect="always">
      <feGaussianBlur
         id="feGaussianBlur4320"
         stdDeviation="1.4597026"
         inkscape:collect="always" />
    </filter>
    <filter
       height="1.070463"
       y="-0.035231481"
       width="1.4168306"
       x="-0.20841532"
       id="filter4296"
       inkscape:collect="always">
      <feGaussianBlur
         id="feGaussianBlur4298"
         stdDeviation="0.88226542"
         inkscape:collect="always" />
    </filter>
    <filter
       height="1.0314513"
       y="-0.015725634"
       width="1.2125498"
       x="-0.1062749"
       id="filter4288"
       inkscape:collect="always">
      <feGaussianBlur
         id="feGaussianBlur4290"
         stdDeviation="0.39380074"
         inkscape:collect="always" />
    </filter>
    <filter
       id="filter4274"
       inkscape:collect="always">
      <feGaussianBlur
         id="feGaussianBlur4276"
         stdDeviation="0.59705172"
         inkscape:collect="always" />
    </filter>
    <filter
       height="1.4243902"
       y="-0.21219511"
       width="1.2540146"
       x="-0.1270073"
       id="filter4231"
       inkscape:collect="always">
      <feGaussianBlur
         id="feGaussianBlur4233"
         stdDeviation="2.0798578"
         inkscape:collect="always" />
    </filter>
    <radialGradient
       r="43.461855"
       fy="169.382"
       fx="602.01119"
       cy="169.382"
       cx="602.01119"
       gradientTransform="matrix(0.96275605,0,0,0.85313525,22.421273,24.876244)"
       gradientUnits="userSpaceOnUse"
       id="radialGradient4225"
       xlink:href="#linearGradient4071"
       inkscape:collect="always" />
    <clipPath
       id="clipPath4221"
       clipPathUnits="userSpaceOnUse">
      <path
         d="m 581.90625,131.65625 a 0.6623239,0.6623239 0 0 0 -0.25,0.0937 l -21.84375,12.6875 a 0.6623239,0.6623239 0 0 0 -0.0313,1.09375 c 30.62181,22.01648 51.72207,40.14597 75.21875,61.4375 a 0.6623239,0.6623239 0 0 0 1.09375,-0.375 c 2.26921,-11.83252 5.67685,-23.01218 8.375,-32.40625 a 0.6623239,0.6623239 0 0 0 -0.0625,-0.53125 c -0.53017,-0.85769 -1.65767,-2.04881 -3.3125,-3.625 -1.65483,-1.57619 -3.81697,-3.49642 -6.34375,-5.625 -5.05356,-4.25717 -11.55799,-9.34449 -18.21875,-14.125 C 609.87049,145.50074 603.065,141.03185 597.3125,138 c -2.87625,-1.51593 -5.47833,-2.68919 -7.6875,-3.34375 -1.95105,-0.57808 -3.56118,-0.68422 -4.875,-0.28125 l -2.25,-2.5 a 0.6623239,0.6623239 0 0 0 -0.59375,-0.21875 z"
         id="path4223"
         style="fill:url(#radialGradient4225);fill-opacity:1;stroke-width:1px"
         inkscape:original="M 582 132.3125 L 560.15625 145 C 590.80076 167.0328 611.93309 185.17021 635.4375 206.46875 C 637.71538 194.59103 641.14817 183.38512 643.84375 174 C 640.3014 168.26935 593.34872 130.89423 584.46875 135.0625 L 582 132.3125 z "
         inkscape:radius="0.66225767"
         sodipodi:type="inkscape:offset"
         transform="translate(0.01792977,0)" />
    </clipPath>
    <filter
       height="1.5066177"
       y="-0.25330883"
       width="1.6804938"
       x="-0.3402469"
       id="filter4211"
       inkscape:collect="always">
      <feGaussianBlur
         id="feGaussianBlur4213"
         stdDeviation="2.7000861"
         inkscape:collect="always" />
    </filter>
    <filter
       height="1.4041691"
       y="-0.20208457"
       width="1.2618561"
       x="-0.13092803"
       id="filter4169"
       inkscape:collect="always">
      <feGaussianBlur
         id="feGaussianBlur4171"
         stdDeviation="1.571413"
         inkscape:collect="always" />
    </filter>
    <filter
       id="filter4102"
       inkscape:collect="always">
      <feGaussianBlur
         id="feGaussianBlur4104"
         stdDeviation="0.37087425"
         inkscape:collect="always" />
    </filter>
    <linearGradient
       id="linearGradient3810-3">
      <stop
         id="stop3812-1"
         offset="0"
         style="stop-color:#ebdd91;stop-opacity:1;" />
      <stop
         style="stop-color:#d9b75d;stop-opacity:1"
         offset="0.82156402"
         id="stop3814-4" />
      <stop
         id="stop3816-9"
         offset="0.87242079"
         style="stop-color:#e3bb59;stop-opacity:1" />
      <stop
         id="stop3818-2"
         offset="0.87755108"
         style="stop-color:#d8ae46;stop-opacity:1" />
      <stop
         style="stop-color:#fdf393;stop-opacity:1"
         offset="0.89598852"
         id="stop3820-0" />
      <stop
         id="stop3822-6"
         offset="0.91836739"
         style="stop-color:#fdfa9f;stop-opacity:1" />
      <stop
         style="stop-color:#b58019;stop-opacity:1"
         offset="0.98913205"
         id="stop3824-8" />
      <stop
         id="stop3826-9"
         offset="1"
         style="stop-color:#d2b04c;stop-opacity:1" />
    </linearGradient>
    <filter
       id="filter4225-0"
       inkscape:label="filter6">
      <feBlend
         blend="normal"
         id="feBlend4227-4"
         mode="multiply" />
    </filter>
    <linearGradient
       id="linearGradient3831-6">
      <stop
         id="stop3833-8"
         offset="0"
         style="stop-color:#ff6161;stop-opacity:1;" />
      <stop
         id="stop3835-8"
         offset="1"
         style="stop-color:#a60000;stop-opacity:1;" />
    </linearGradient>
    <clipPath
       id="clipPath10917-4"
       clipPathUnits="userSpaceOnUse">
      <rect
         style="opacity:1;fill:#ffffff;fill-opacity:1;stroke:none;stroke-width:4;stroke-miterlimit:4;stroke-dasharray:none;stroke-opacity:1"
         id="rect10919-4"
         width="185.80646"
         height="54.19355"
         x="-28.903227"
         y="-13.354839" />
    </clipPath>
    <clipPath
       id="clipPath10906-4"
       clipPathUnits="userSpaceOnUse">
      <rect
         style="fill:#ffffff;fill-opacity:1;stroke:none"
         id="rect10908-7"
         width="162.3902"
         height="89.032265"
         x="-34.519199"
         y="40.838711" />
    </clipPath>
    <filter
       id="filter9643-4"
       inkscape:collect="always">
      <feGaussianBlur
         id="feGaussianBlur9645-5"
         stdDeviation="1.18"
         inkscape:collect="always" />
    </filter>
    <linearGradient
       id="linearGradient10964-9">
      <stop
         id="stop10966-3"
         offset="0"
         style="stop-color:#ffffff;stop-opacity:1;" />
      <stop
         id="stop10968-7"
         offset="1"
         style="stop-color:#eeeeee;stop-opacity:1" />
    </linearGradient>
    <linearGradient
       id="linearGradient10879-5">
      <stop
         id="stop10881-4"
         offset="0"
         style="stop-color:#000000;stop-opacity:1;" />
      <stop
         id="stop10883-7"
         offset="1"
         style="stop-color:#660000;stop-opacity:1;" />
    </linearGradient>
    <linearGradient
       id="linearGradient4035">
      <stop
         style="stop-color:#ff9696;stop-opacity:1;"
         offset="0"
         id="stop4037" />
      <stop
         style="stop-color:#100000;stop-opacity:1;"
         offset="1"
         id="stop4039" />
    </linearGradient>
    <linearGradient
       id="linearGradient4071"
       inkscape:collect="always">
      <stop
         id="stop4073"
         offset="0"
         style="stop-color:#f11a22;stop-opacity:1" />
      <stop
         id="stop4075"
         offset="1"
         style="stop-color:#990509;stop-opacity:1" />
    </linearGradient>
    <linearGradient
       id="linearGradient4128"
       inkscape:collect="always">
      <stop
         id="stop4130"
         offset="0"
         style="stop-color:#eb181f;stop-opacity:1;" />
      <stop
         id="stop4132"
         offset="1"
         style="stop-color:#eb181f;stop-opacity:0;" />
    </linearGradient>
    <linearGradient
       id="linearGradient4173">
      <stop
         id="stop4175"
         offset="0"
         style="stop-color:#4e0202;stop-opacity:1;" />
      <stop
         id="stop4177"
         offset="1"
         style="stop-color:#7e0404;stop-opacity:0.8888889;" />
    </linearGradient>
    <linearGradient
       id="linearGradient4183"
       inkscape:collect="always">
      <stop
         id="stop4185"
         offset="0"
         style="stop-color:#640101;stop-opacity:1;" />
      <stop
         id="stop4187"
         offset="1"
         style="stop-color:#640101;stop-opacity:0;" />
    </linearGradient>
    <linearGradient
       id="linearGradient4280"
       inkscape:collect="always">
      <stop
         id="stop4282"
         offset="0"
         style="stop-color:#de1822;stop-opacity:1;" />
      <stop
         id="stop4284"
         offset="1"
         style="stop-color:#de1822;stop-opacity:0;" />
    </linearGradient>
    <linearGradient
       id="linearGradient4302"
       inkscape:collect="always">
      <stop
         id="stop4304"
         offset="0"
         style="stop-color:#da141b;stop-opacity:1;" />
      <stop
         id="stop4306"
         offset="1"
         style="stop-color:#da141b;stop-opacity:0;" />
    </linearGradient>
    <linearGradient
       id="linearGradient4324"
       inkscape:collect="always">
      <stop
         id="stop4326"
         offset="0"
         style="stop-color:#680000;stop-opacity:1;" />
      <stop
         id="stop4328"
         offset="1"
         style="stop-color:#680000;stop-opacity:0;" />
    </linearGradient>
    <linearGradient
       id="linearGradient4471">
      <stop
         id="stop4473"
         offset="0"
         style="stop-color:#dc0c0c;stop-opacity:1;" />
      <stop
         id="stop4475"
         offset="1"
         style="stop-color:#dc0c0c;stop-opacity:0;" />
    </linearGradient>
    <linearGradient
       id="linearGradient4560"
       inkscape:collect="always">
      <stop
         id="stop4562"
         offset="0"
         style="stop-color:#da141b;stop-opacity:1;" />
      <stop
         id="stop4564"
         offset="1"
         style="stop-color:#da141b;stop-opacity:0;" />
    </linearGradient>
    <linearGradient
       id="linearGradient4719"
       inkscape:collect="always">
      <stop
         id="stop4721"
         offset="0"
         style="stop-color:#520000;stop-opacity:1;" />
      <stop
         id="stop4723"
         offset="1"
         style="stop-color:#520000;stop-opacity:0;" />
    </linearGradient>
    <linearGradient
       id="linearGradient4757"
       inkscape:collect="always">
      <stop
         id="stop4759"
         offset="0"
         style="stop-color:#d30e13;stop-opacity:1;" />
      <stop
         id="stop4761"
         offset="1"
         style="stop-color:#d30e13;stop-opacity:0;" />
    </linearGradient>
    <linearGradient
       id="linearGradient4769"
       inkscape:collect="always">
      <stop
         id="stop4771"
         offset="0"
         style="stop-color:#f1454a;stop-opacity:1;" />
      <stop
         id="stop4773"
         offset="1"
         style="stop-color:#f1454a;stop-opacity:0;" />
    </linearGradient>
    <linearGradient
       id="linearGradient5639"
       inkscape:collect="always">
      <stop
         id="stop5641"
         offset="0"
         style="stop-color:#340305;stop-opacity:1;" />
      <stop
         id="stop5643"
         offset="1"
         style="stop-color:#340305;stop-opacity:0;" />
    </linearGradient>
    <inkscape:perspective
       id="perspective3156"
       inkscape:persp3d-origin="64 : 42.666667 : 1"
       inkscape:vp_z="128 : 64 : 1"
       inkscape:vp_y="0 : 1000 : 0"
       inkscape:vp_x="0 : 64 : 1"
       sodipodi:type="inkscape:persp3d" />
    <radialGradient
       inkscape:collect="always"
       xlink:href="#linearGradient4071"
       id="radialGradient3467"
       gradientUnits="userSpaceOnUse"
       gradientTransform="matrix(0.92626593,0,0,0.8959107,3.230033,8.977519)"
       cx="10.547706"
       cy="56.951527"
       fx="10.547706"
       fy="56.951527"
       r="53.563339" />
    <radialGradient
       inkscape:collect="always"
       xlink:href="#linearGradient4071"
       id="radialGradient3483"
       gradientUnits="userSpaceOnUse"
       gradientTransform="matrix(0.75339885,0,0,0.89613547,25.769071,-95.036297)"
       cx="57.302845"
       cy="52.487911"
       fx="57.302845"
       fy="52.487911"
       r="53.563339" />
    <radialGradient
       inkscape:collect="always"
       xlink:href="#linearGradient5639"
       id="radialGradient3497"
       gradientUnits="userSpaceOnUse"
       gradientTransform="matrix(1,0,0,1.0180661,0,-6.1200686)"
       cx="888.03326"
       cy="151.09335"
       fx="888.03326"
       fy="151.09335"
       r="93.122618" />
    <radialGradient
       inkscape:collect="always"
       xlink:href="#linearGradient4071"
       id="radialGradient3499"
       gradientUnits="userSpaceOnUse"
       gradientTransform="matrix(0.96275605,0,0,0.85313525,22.421273,24.876244)"
       cx="602.01119"
       cy="169.382"
       fx="602.01119"
       fy="169.382"
       r="43.461855" />
    <radialGradient
       inkscape:collect="always"
       xlink:href="#linearGradient4128"
       id="radialGradient3501"
       gradientUnits="userSpaceOnUse"
       gradientTransform="matrix(1.2389907,0,0,0.74158575,-145.38345,37.08021)"
       cx="608.32251"
       cy="143.49136"
       fx="608.32251"
       fy="143.49136"
       r="19.65107" />
    <radialGradient
       inkscape:collect="always"
       xlink:href="#linearGradient4173"
       id="radialGradient3503"
       gradientUnits="userSpaceOnUse"
       gradientTransform="matrix(1,0,0,0.72095656,0,37.755329)"
       cx="573.46431"
       cy="135.30269"
       fx="573.46431"
       fy="135.30269"
       r="18.173926" />
    <linearGradient
       inkscape:collect="always"
       xlink:href="#linearGradient4183"
       id="linearGradient3505"
       gradientUnits="userSpaceOnUse"
       x1="633.93695"
       y1="197.16135"
       x2="613.62915"
       y2="166.93631" />
    <radialGradient
       inkscape:collect="always"
       xlink:href="#linearGradient4071"
       id="radialGradient3507"
       gradientUnits="userSpaceOnUse"
       gradientTransform="matrix(1,0,0,0.81521566,93.338095,76.876395)"
       cx="512.42163"
       cy="176.86684"
       fx="512.42163"
       fy="176.86684"
       r="40.430302" />
    <radialGradient
       inkscape:collect="always"
       xlink:href="#linearGradient4324"
       id="radialGradient3509"
       gradientUnits="userSpaceOnUse"
       gradientTransform="matrix(1,0,0,0.94587577,93.338095,54.308057)"
       cx="525.94031"
       cy="181.44438"
       fx="525.94031"
       fy="181.44438"
       r="24.040405" />
    <radialGradient
       inkscape:collect="always"
       xlink:href="#linearGradient4719"
       id="radialGradient3511"
       gradientUnits="userSpaceOnUse"
       gradientTransform="matrix(1.5046847,-1.0483941,0.26345274,0.37811479,-106.5377,583.33735)"
       cx="414.93909"
       cy="129.53432"
       fx="414.93909"
       fy="129.53432"
       r="14.981825" />
    <radialGradient
       inkscape:collect="always"
       xlink:href="#linearGradient4719"
       id="radialGradient3513"
       gradientUnits="userSpaceOnUse"
       gradientTransform="matrix(1.7614531,-0.86937863,0.12043186,0.24400771,-190.55413,519.5767)"
       cx="411.1384"
       cy="120.34568"
       fx="411.50674"
       fy="128.90279"
       r="17.810255" />
    <linearGradient
       inkscape:collect="always"
       xlink:href="#linearGradient4757"
       id="linearGradient3515"
       gradientUnits="userSpaceOnUse"
       x1="543.69733"
       y1="188.54602"
       x2="514.1756"
       y2="201.09717" />
    <radialGradient
       inkscape:collect="always"
       xlink:href="#linearGradient4769"
       id="radialGradient3517"
       gradientUnits="userSpaceOnUse"
       gradientTransform="matrix(1,0,0,0.88218298,0,24.034671)"
       cx="536.34375"
       cy="204"
       fx="536.34375"
       fy="204"
       r="23.684604" />
    <linearGradient
       inkscape:collect="always"
       xlink:href="#linearGradient4183"
       id="linearGradient3519"
       gradientUnits="userSpaceOnUse"
       x1="578.05731"
       y1="246.16328"
       x2="593.51062"
       y2="233.78893" />
    <radialGradient
       inkscape:collect="always"
       xlink:href="#linearGradient4071"
       id="radialGradient3521"
       gradientUnits="userSpaceOnUse"
       gradientTransform="matrix(0.96769715,-0.2521155,0.56901032,2.1840373,-103.45536,-115.60652)"
       cx="500.9935"
       cy="210.25783"
       fx="500.9935"
       fy="210.25783"
       r="32.798069" />
    <linearGradient
       inkscape:collect="always"
       xlink:href="#linearGradient4302"
       id="linearGradient3523"
       gradientUnits="userSpaceOnUse"
       gradientTransform="translate(8.1759917,-40.306206)"
       x1="621.66223"
       y1="224.39064"
       x2="599.09723"
       y2="185.30687" />
    <radialGradient
       inkscape:collect="always"
       xlink:href="#linearGradient4183"
       id="radialGradient3525"
       gradientUnits="userSpaceOnUse"
       gradientTransform="matrix(2.4838716,-0.29032342,1.160764,9.9309545,-846.24134,-1441.3972)"
       cx="504.05121"
       cy="178.18993"
       fx="504.05121"
       fy="178.18993"
       r="4.4465899" />
    <radialGradient
       inkscape:collect="always"
       xlink:href="#linearGradient4280"
       id="radialGradient3527"
       gradientUnits="userSpaceOnUse"
       gradientTransform="matrix(2.4838716,-0.29032342,1.160764,9.9309545,-847.44134,-1441.3972)"
       cx="505.33368"
       cy="176.75418"
       fx="505.33368"
       fy="176.75418"
       r="4.44659" />
    <linearGradient
       inkscape:collect="always"
       xlink:href="#linearGradient4302"
       id="linearGradient3529"
       gradientUnits="userSpaceOnUse"
       x1="636.57983"
       y1="237.15666"
       x2="599.09723"
       y2="185.30687" />
    <linearGradient
       inkscape:collect="always"
       xlink:href="#linearGradient4324"
       id="linearGradient3531"
       gradientUnits="userSpaceOnUse"
       x1="615.52582"
       y1="158.33723"
       x2="607.38214"
       y2="188.72986" />
    <radialGradient
       inkscape:collect="always"
       xlink:href="#linearGradient4071"
       id="radialGradient3533"
       gradientUnits="userSpaceOnUse"
       gradientTransform="matrix(1,0,0,1.1017073,117.04578,-10.716512)"
       cx="614.34991"
       cy="86.769524"
       fx="614.34991"
       fy="86.769524"
       r="31.960064" />
    <radialGradient
       inkscape:collect="always"
       xlink:href="#linearGradient4560"
       id="radialGradient3535"
       gradientUnits="userSpaceOnUse"
       gradientTransform="matrix(0.33934165,-0.24330689,0.62793048,0.8757786,472.42245,224.33623)"
       cx="631.99207"
       cy="49.465736"
       fx="646.78052"
       fy="44.289093"
       r="31.960064" />
    <radialGradient
       inkscape:collect="always"
       xlink:href="#linearGradient4324"
       id="radialGradient3537"
       gradientUnits="userSpaceOnUse"
       gradientTransform="matrix(0.73417365,0.20038249,-0.09777851,0.3582469,285.39165,-66.467084)"
       cx="652.04889"
       cy="84.397194"
       fx="652.04889"
       fy="84.397194"
       r="31.960064" />
    <radialGradient
       inkscape:collect="always"
       xlink:href="#linearGradient4324"
       id="radialGradient3539"
       gradientUnits="userSpaceOnUse"
       gradientTransform="matrix(0.72277,0,0,0.77646374,287.38948,23.826205)"
       cx="628.26636"
       cy="99.072815"
       fx="628.26636"
       fy="99.072815"
       r="31.960064" />
    <radialGradient
       inkscape:collect="always"
       xlink:href="#linearGradient4471"
       id="radialGradient3541"
       gradientUnits="userSpaceOnUse"
       gradientTransform="matrix(1.1485887,-0.663138,0.89222187,1.5453736,-30.118028,428.68904)"
       cx="579.65076"
       cy="116.33273"
       fx="579.65076"
       fy="116.33273"
       r="9.72272" />
    <radialGradient
       inkscape:collect="always"
       xlink:href="#linearGradient4128"
       id="radialGradient3543"
       gradientUnits="userSpaceOnUse"
       gradientTransform="matrix(0.71077999,0.70341439,-1.91,1.93,621.42937,-356.14176)"
       cx="492"
       cy="140.1875"
       fx="492"
       fy="140.1875"
       r="12.5" />
    <radialGradient
       inkscape:collect="always"
       xlink:href="#linearGradient4183"
       id="radialGradient3545"
       gradientUnits="userSpaceOnUse"
       gradientTransform="matrix(0.68874948,0.72499942,-0.97560975,0.92682931,497.71941,-224.14436)"
       cx="490.15625"
       cy="137.12759"
       fx="490.15625"
       fy="137.12759"
       r="11.53125" />
    <radialGradient
       inkscape:collect="always"
       xlink:href="#linearGradient4128"
       id="radialGradient3547"
       gradientUnits="userSpaceOnUse"
       gradientTransform="matrix(0.72911968,0.68438622,-1.4020435,1.493685,533.67372,-281.27215)"
       cx="489.4375"
       cy="135.31659"
       fx="489.4375"
       fy="135.31659"
       r="14.75" />
    <radialGradient
       inkscape:collect="always"
       xlink:href="#linearGradient4324"
       id="radialGradient3549"
       gradientUnits="userSpaceOnUse"
       gradientTransform="matrix(0.78337417,0.62155041,-0.9740634,1.2276657,445.78109,-211.58561)"
       cx="487.84375"
       cy="132.15416"
       fx="487.84375"
       fy="132.15416"
       r="10.84375" />
    <radialGradient
       inkscape:collect="always"
       xlink:href="#linearGradient4071"
       id="radialGradient3551"
       gradientUnits="userSpaceOnUse"
       gradientTransform="matrix(0.35274711,0.56411196,-1.9569042,1.2236796,902.04384,-283.54655)"
       cx="429.3125"
       cy="117.875"
       fx="429.3125"
       fy="117.875"
       r="12.8125" />
    <radialGradient
       inkscape:collect="always"
       xlink:href="#linearGradient4071"
       id="radialGradient3553"
       gradientUnits="userSpaceOnUse"
       gradientTransform="matrix(1.5891969,-0.39274711,0.26092755,1.0558073,-225.10901,245.60693)"
       cx="643.57843"
       cy="99.317131"
       fx="643.57843"
       fy="99.317131"
       r="6.0471482" />
    <radialGradient
       inkscape:collect="always"
       xlink:href="#linearGradient4280"
       id="radialGradient3555"
       gradientUnits="userSpaceOnUse"
       gradientTransform="matrix(1.0104117,-0.206709,0.21797957,1.0655032,152.87036,124.56903)"
       cx="644.83069"
       cy="110.85268"
       fx="644.83069"
       fy="110.85268"
       r="6.0471482" />
    <radialGradient
       inkscape:collect="always"
       xlink:href="#linearGradient4071"
       id="radialGradient3557"
       gradientUnits="userSpaceOnUse"
       gradientTransform="matrix(1.3472938,0,0,1.3893967,-41.649421,-39.266837)"
       cx="638.21875"
       cy="101.83239"
       fx="638.21875"
       fy="101.83239"
       r="9" />
  </defs>
  <sodipodi:namedview
     id="base"
     pagecolor="#ffffff"
     bordercolor="#666666"
     borderopacity="1.0"
     gridtolerance="50"
     guidetolerance="10"
     objecttolerance="10"
     inkscape:pageopacity="0.0"
     inkscape:pageshadow="2"
     inkscape:zoom="4.0000001"
     inkscape:cx="98.663127"
     inkscape:cy="84.675176"
     inkscape:document-units="px"
     inkscape:current-layer="layer1"
     width="128px"
     height="128px"
     showgrid="true"
     showborder="true"
     inkscape:window-width="1281"
     inkscape:window-height="806"
     inkscape:window-x="0"
     inkscape:window-y="326"
     inkscape:grid-bbox="true"
     inkscape:snap-nodes="true">
    <inkscape:grid
       id="GridFromPre046Settings"
       type="xygrid"
       originx="0px"
       originy="0px"
       spacingx="4px"
       spacingy="4px"
       color="#0000ff"
       empcolor="#0000ff"
       opacity="0.2"
       empopacity="0.4"
       empspacing="2"
       visible="true"
       enabled="true" />
  </sodipodi:namedview>
  <metadata
     id="metadata7">
    <rdf:RDF>
      <cc:Work
         rdf:about="">
        <dc:format>image/svg+xml</dc:format>
        <dc:type
           rdf:resource="http://purl.org/dc/dcmitype/StillImage" />
        <dc:title></dc:title>
      </cc:Work>
    </rdf:RDF>
  </metadata>
  <g
     inkscape:label="Layer 1"
     inkscape:groupmode="layer"
     id="layer1">
    <g
       id="g10960">
      <rect
         transform="matrix(1.0333333,0,0,1.0333333,-2.1333333,-2.2)"
         style="opacity:1;fill:#3d0000;fill-opacity:1;stroke:none;stroke-width:4;stroke-miterlimit:4;stroke-dasharray:none;stroke-opacity:1;filter:url(#filter9643)"
         id="rect10958"
         width="120"
         height="116"
         x="4"
         y="8"
         clip-path="url(#clipPath10917)" />
      <rect
         clip-path="url(#clipPath10917)"
         y="7.9245849"
         x="4"
         height="116.07536"
         width="120"
         id="rect10904"
         style="fill:#3d0000;fill-opacity:1;stroke:none;filter:url(#filter9643)"
         transform="matrix(1.0333333,0,0,1.0333333,-2.1333333,-2.2)" />
    </g>
    <path
       transform="matrix(1.0333333,0,0,1.0333333,-2.1333333,-2.2)"
       style="opacity:0.5;fill:#000000;fill-opacity:1;stroke:none;stroke-width:4;stroke-miterlimit:4;stroke-opacity:1;filter:url(#filter9643)"
       clip-path="url(#clipPath10906)"
       d="M 4,8.967742 124,8 124,123.83279 4,124 4,8.967742 z"
       id="rect9637"
       sodipodi:nodetypes="ccccc" />
    <path
       style="fill:#ffffff;fill-opacity:1;stroke:none;stroke-width:4;stroke-miterlimit:4;stroke-opacity:1"
       d="M 4,8 124,8 124,124.06339 104.4691,124 4,124 4,8 z"
       id="rect8666"
       sodipodi:nodetypes="cccccc" />
    <path
       style="fill:url(#linearGradient11297);fill-opacity:1;stroke:none;stroke-width:4;stroke-miterlimit:4;stroke-opacity:1"
       d="m 6.0285263,10.028526 115.9429637,0 0,112.049134 -17.09669,-0.10617 -98.8462737,0 0,-111.942964 z"
       id="rect10972"
       sodipodi:nodetypes="cccccc" />
    <rect
       width="120"
       height="31.875"
       id="rect3079"
       style="fill:url(#radialGradient10784);fill-opacity:1.0"
       x="4"
       y="8.125" />
    <rect
       x="5"
       y="10"
       width="118"
       height="30"
       id="rect3092"
       style="fill:url(#radialGradient10781);fill-opacity:1.0" />
    <g
       id="g10929">
      <g
         id="g10923">
        <rect
           ry="3.0427892"
           rx="3.3274946"
           style="opacity:1;fill:url(#radialGradient10891);fill-opacity:1;stroke:none;stroke-width:0.89999998;stroke-miterlimit:4;stroke-dasharray:none;stroke-opacity:1"
           id="rect10887"
           width="23.708399"
           height="8.4944525"
           x="92.069733"
           y="10.142631" />
        <rect
           y="1.4210855e-14"
           x="95.923927"
           height="18.637083"
           width="16"
           id="rect10889"
           style="opacity:1;fill:url(#linearGradient10893);fill-opacity:1;stroke:none;stroke-width:0.89999998;stroke-miterlimit:4;stroke-dasharray:none;stroke-opacity:1" />
        <rect
           y="-0.20285282"
           x="95.949287"
           height="4.2028527"
           width="15.974644"
           id="rect10905"
           style="opacity:0.45197742;fill:url(#linearGradient10907);fill-opacity:1;stroke:none;stroke-width:1.20000005;stroke-miterlimit:4;stroke-dasharray:none;stroke-opacity:0.8433735" />
        <rect
           style="opacity:0.6384181;fill:url(#linearGradient10911);fill-opacity:1;stroke:none;stroke-width:1.20000005;stroke-miterlimit:4;stroke-dasharray:none;stroke-opacity:0.8433735"
           id="rect10909"
           width="15.974644"
           height="5.4199686"
           x="95.949287"
           y="-18.605389"
           transform="scale(1,-1)" />
      </g>
      <g
         id="g10917">
        <rect
           y="10.142631"
           x="12.145801"
           height="8.4944525"
           width="23.708399"
           id="rect10875"
           style="opacity:1;fill:url(#radialGradient10885);fill-opacity:1.0;stroke:none;stroke-width:0.89999998000000003;stroke-miterlimit:4;stroke-dasharray:none;stroke-opacity:1"
           rx="3.3274946"
           ry="3.0427892" />
        <rect
           style="opacity:1;fill:url(#linearGradient10873);fill-opacity:1;stroke:none;stroke-width:0.89999998;stroke-miterlimit:4;stroke-dasharray:none;stroke-opacity:1"
           id="rect10865"
           width="16"
           height="18.637083"
           x="16"
           y="1.4210855e-14" />
        <rect
           style="opacity:0.4519774;fill:url(#linearGradient10903);fill-opacity:1.0;stroke:none;stroke-width:1.20000005;stroke-miterlimit:4;stroke-dasharray:none;stroke-opacity:0.8433735"
           id="rect10895"
           width="15.974644"
           height="4.2028527"
           x="16.025356"
           y="-0.20285282" />
        <rect
           transform="scale(1,-1)"
           y="-18.605389"
           x="15.822505"
           height="5.4199686"
           width="15.974644"
           id="rect10913"
           style="opacity:0.6384181;fill:url(#linearGradient10915);fill-opacity:1;stroke:none;stroke-width:1.20000005;stroke-miterlimit:4;stroke-dasharray:none;stroke-opacity:0.8433735" />
      </g>
    </g>
    <g
       id="g10977"
       transform="matrix(0.88885,0,0,0.88885,-327.11071,95.679998)" />
    <rect
       style="fill:url(#radialGradient3483);fill-opacity:1;stroke:none"
       id="rect5998"
       width="84"
       height="8.000001"
       x="40"
       y="-48"
       transform="matrix(0,1,-1,0,0,0)" />
    <rect
       y="56.002007"
       x="4"
       height="7.9979935"
       width="120"
       id="rect7458"
       style="fill:url(#radialGradient3467);fill-opacity:1;stroke:none" />
    <g
       id="g5933"
       transform="matrix(1.1845265,0,0,1.1845265,-54.210197,-147.60926)">
      <path
         sodipodi:nodetypes="csssssssssssssssssssssssssssssscsccccccccssssscsscccsssssscccccccssssssscscssssssssscc"
         transform="matrix(0.47834684,0,0,0.47834684,-337.9192,106.61079)"
         style="opacity:0.6;fill:url(#radialGradient3497);fill-opacity:1;stroke-width:1px;filter:url(#filter5633)"
         d="m 924.4375,84.187067 c -1.2288,-0.06177 -2.536,0.211791 -3.9063,0.595412 -0.4836,0.135415 -0.9733,0.276299 -1.4687,0.446559 -0.5047,0.173432 -1.0176,0.33757 -1.5313,0.535871 -5.1523,1.98913 -10.1782,5.066537 -14.7187,9.318197 -0.6486,0.607381 -1.2785,1.249559 -1.9063,1.905319 -0.01,0.01047 -0.021,0.01927 -0.031,0.02976 -0.02,0.0208 -0.043,0.0388 -0.063,0.0595 -0.7858,0.82488 -1.516,1.676475 -2.2187,2.530505 -0.036,0.0437 -0.089,0.0754 -0.125,0.11908 -0.01,0.011 -0.022,0.0188 -0.031,0.0298 -0.3702,0.45479 -0.7215,0.90815 -1.0625,1.36945 -0.01,0.0113 -0.023,0.0185 -0.031,0.0298 -0.3402,0.46136 -0.6616,0.93247 -0.9688,1.39921 -0.085,0.1292 -0.1678,0.25747 -0.25,0.38702 -1.1359,1.78777 -2.0201,3.62516 -2.5312,5.44802 0,0.009 0,0.0208 0,0.0298 -0.21,0.75615 -0.3581,1.51648 -0.4376,2.32211 0,0.0194 0,0.0401 0,0.0595 -0.076,0.79732 -0.095,1.63267 -0.094,2.47096 0,0.85863 0.032,1.72577 0.063,2.61981 3e-4,0.0101 -3e-4,0.0196 0,0.0298 0.03,0.88467 0.056,1.79737 0.063,2.70913 10e-5,0.01 -10e-5,0.0198 0,0.0298 0.01,1.13585 0.047,2.28542 0.063,3.45339 0.01,0.33145 0,0.64917 0,0.98243 0,0.25876 0,0.51434 0,0.77404 -0.01,1.1786 -0.032,2.38349 -0.125,3.57247 -0.043,0.54543 -0.1166,1.09198 -0.1875,1.63738 -0.01,0.0491 0.01,0.0998 0,0.14885 0,0.01 0,0.0199 0,0.0298 -0.1607,1.17891 -0.4091,2.34525 -0.75,3.51293 -0.1458,-0.0592 -0.3116,-0.0819 -0.4687,-0.0595 -0.1734,0.0233 -0.3388,0.0968 -0.4688,0.2084 l -6.375,5.71595 -5.375,1.36945 c -0.01,-1.7e-4 -0.021,-1.7e-4 -0.031,0 l -2.875,0.83358 c -0.3218,0.0901 -0.5761,0.36873 -0.625,0.68472 l -0.4688,3.51293 -3.75,4.64421 c -3.2744,0.13235 -4.5524,2.30432 -7.0938,2.67936 -20.5264,3.02927 -39.3337,7.21968 -54.0937,21.73254 -4.3663,4.29324 -8.8386,10.24687 -4.7813,16.01658 5.3627,7.62524 11.9413,14.29589 19.625,19.85699 2.8708,2.07748 5.6302,3.21776 9.0313,2.02441 15.6239,-5.48214 24.0945,-11.99934 30.4375,-20.98827 0.5669,4.63729 1.6051,9.36107 2.9688,14.02195 5.2143,17.82374 10.81943,28.07054 15.97513,37.9953 0.14614,0.28647 0.44968,0.49468 0.7812,0.53586 l 40.0626,4.7633 c 0.75305,0.0945 1.39354,-0.83987 1,-1.45876 -17.3924,-28.04437 -28.33333,-50.10612 -37.19393,-81.60923 -0.3025,-1.07511 -1.1151,-1.63582 -1.7813,-2.26257 -0.3416,-0.32139 -0.6371,-0.58583 -0.7813,-0.8038 -0.1416,-0.21441 -0.1473,-0.37719 -0.125,-0.47633 -0.018,0.0797 0.058,-0.15412 0.1563,-0.44656 0.089,-0.26575 0.1851,-0.57546 0.2813,-0.86335 0.09,-0.27154 0.1578,-0.50238 0.2187,-0.71449 l 2,-1.19083 0.063,-0.0298 0.063,-0.0298 2.9063,-1.10152 c 28.323,19.65264 48.5297,36.23533 70.9062,55.55194 0.34888,0.29795 1.0102,0.082 1.0938,-0.35724 2.269,-11.27235 5.6766,-21.92276 8.375,-30.87211 0.0539,-0.16719 0.0304,-0.35556 -0.063,-0.50611 -0.5299,-0.81708 -1.6578,-1.9518 -3.3124,-3.45339 -1.6549,-1.50157 -3.817,-3.33089 -6.3438,-5.3587 -5.0536,-4.05564 -11.5578,-8.90212 -18.2188,-13.45632 -6.6605,-4.55419 -13.4662,-8.81152 -19.2187,-11.69984 -2.8763,-1.44417 -5.4783,-2.56188 -7.6875,-3.18546 -1.6212,-0.45762 -3.0115,-0.60037 -4.1875,-0.41678 2.3599,-0.97386 4.5356,-1.93563 6.125,-2.7389 12.2872,-6.20965 23.9481,-12.68064 31.5,-24.44166 1.6908,-3.02886 3.1505,-5.40816 1.9687,-7.44265 -0.081,-0.14027 -0.1964,-0.27586 -0.2812,-0.41678 -3.8255,-6.35537 -10.9867,-13.341908 -17,-18.160075 -0.053,-0.04231 -0.1036,-0.07712 -0.1562,-0.119083 -2.3975,-1.91232 -4.5967,-3.497871 -6.3126,-4.525131 -0.01,-0.005 -0.023,0.005 -0.031,0 -0.866,-0.517286 -1.6091,-0.910727 -2.1875,-1.131283 -0.1845,-0.07034 -0.3723,-0.09726 -0.5625,-0.148853 -0.3669,-0.0995 -0.7385,-0.172658 -1.125,-0.208394 -0.1057,-0.0098 -0.2055,-0.05416 -0.3125,-0.05954 l -0.002,-6.4e-5 z"
         id="path5637" />
      <path
         sodipodi:nodetypes="csssssssssssssssssssssssssssssscsccccccccssssscsscccsssssscccccccssssssscscsssssssssccc"
         transform="matrix(0.47834684,0,0,0.47834684,-337.9192,106.61079)"
         id="path5048"
         d="m 924.4375,87.187067 c -1.2288,-0.06177 -2.536,0.211791 -3.9063,0.595412 -0.4836,0.135415 -0.9733,0.276299 -1.4687,0.446559 -0.5047,0.173432 -1.0176,0.33757 -1.5313,0.535871 -5.1523,1.98913 -10.1782,5.066537 -14.7187,9.318197 -0.6486,0.607381 -1.2785,1.249559 -1.9063,1.905319 -0.01,0.01047 -0.021,0.01896 -0.031,0.02975 -0.02,0.0208 -0.043,0.0388 -0.063,0.0595 -0.7858,0.82487 -1.516,1.67646 -2.2187,2.53051 -0.036,0.0437 -0.089,0.0754 -0.125,0.11908 -0.01,0.011 -0.022,0.0188 -0.031,0.0298 -0.3702,0.45481 -0.7215,0.90816 -1.0625,1.36945 -0.01,0.0113 -0.023,0.0185 -0.031,0.0298 -0.3402,0.46136 -0.6616,0.93247 -0.9688,1.39921 -0.085,0.1292 -0.1678,0.25747 -0.25,0.38702 -1.1359,1.78777 -2.0201,3.62516 -2.5312,5.44802 0,0.009 0,0.0208 0,0.0298 -0.21,0.75615 -0.3581,1.51648 -0.4376,2.32211 0,0.0194 0,0.0401 0,0.0595 -0.076,0.79732 -0.095,1.63267 -0.094,2.47096 0,0.85863 0.032,1.72577 0.063,2.61981 3e-4,0.0101 -3e-4,0.0196 0,0.0298 0.03,0.88467 0.056,1.79737 0.063,2.70913 10e-5,0.01 -10e-5,0.0198 0,0.0298 0.01,1.13585 0.047,2.28542 0.063,3.45339 0.01,0.33145 0,0.64917 0,0.98243 0,0.25876 0,0.51434 0,0.77404 -0.01,1.1786 -0.032,2.38349 -0.125,3.57247 -0.043,0.54543 -0.1166,1.09198 -0.1875,1.63738 -0.01,0.0491 0.01,0.0998 0,0.14885 0,0.01 0,0.0199 0,0.0298 -0.1607,1.17891 -0.4091,2.34525 -0.75,3.51293 -0.1458,-0.0592 -0.3116,-0.0819 -0.4687,-0.0595 -0.1734,0.0233 -0.3388,0.0968 -0.4688,0.2084 l -6.375,5.71595 -5.375,1.36945 c -0.01,-1.7e-4 -0.021,-1.7e-4 -0.031,0 l -2.875,0.83358 c -0.3218,0.0901 -0.5761,0.36873 -0.625,0.68472 l -0.4688,3.51293 -3.75,4.64421 c -3.2744,0.13235 -4.5524,2.30432 -7.0938,2.67936 -20.5264,3.02927 -39.3337,7.21968 -54.0937,21.73254 -4.3663,4.29324 -8.8386,10.24688 -4.7813,16.01659 5.3627,7.62523 11.9413,14.29589 19.625,19.85698 2.8708,2.07748 5.6302,3.21776 9.0313,2.02441 15.6239,-5.48214 24.0945,-11.99934 30.4375,-20.98827 0.5669,4.63729 1.6051,9.36107 2.9688,14.02195 5.2143,17.82374 10.19228,24.93476 15.34798,34.85952 0.14613,0.28647 0.44967,0.49468 0.7812,0.53586 l 40.0626,4.76331 c 0.75304,0.0944 1.39353,-0.83988 1,-1.45876 -17.3924,-28.04437 -27.70618,-46.97034 -36.56678,-78.47345 -0.3025,-1.07511 -1.1151,-1.63582 -1.7813,-2.26258 -0.3416,-0.32139 -0.6371,-0.58582 -0.7813,-0.80379 -0.1416,-0.21441 -0.1473,-0.3772 -0.125,-0.47633 -0.018,0.0797 0.058,-0.15412 0.1563,-0.44656 0.089,-0.26575 0.1851,-0.57546 0.2813,-0.86335 0.09,-0.27154 0.1578,-0.50238 0.2187,-0.7145 l 2,-1.19083 0.063,-0.0298 0.063,-0.0298 2.9063,-1.10152 c 28.323,19.65264 48.5297,36.23533 70.9062,55.55194 0.34888,0.29794 1.0102,0.0819 1.0938,-0.35724 2.269,-11.27235 5.6766,-21.92276 8.375,-30.87211 0.0539,-0.16719 0.0304,-0.35556 -0.063,-0.50611 -0.5299,-0.81708 -1.6578,-1.9518 -3.3124,-3.45339 -1.6549,-1.50157 -3.817,-3.33089 -6.3438,-5.3587 -5.0536,-4.05564 -11.5578,-8.90212 -18.2188,-13.45632 -6.6605,-4.55419 -13.4662,-8.81152 -19.2187,-11.69984 -2.8763,-1.44418 -5.4783,-2.56188 -7.6875,-3.18546 -1.6212,-0.45762 -3.0115,-0.60037 -4.1875,-0.41678 2.3599,-0.97386 4.5356,-1.93563 6.125,-2.7389 12.2872,-6.20965 23.9481,-12.68064 31.5,-24.44166 1.6908,-3.02886 3.1505,-5.40816 1.9687,-7.44265 -0.081,-0.14027 -0.1964,-0.27586 -0.2812,-0.41678 -3.8255,-6.35537 -10.9867,-13.342218 -17,-18.160385 -0.053,-0.04231 -0.1036,-0.07712 -0.1562,-0.119083 -2.3975,-1.91232 -4.5967,-3.497871 -6.3126,-4.525131 -0.01,-0.005 -0.023,0.005 -0.031,0 -0.866,-0.517286 -1.6091,-0.910727 -2.1875,-1.131283 -0.1845,-0.07034 -0.3723,-0.09726 -0.5625,-0.148853 -0.3669,-0.0995 -0.7385,-0.172658 -1.125,-0.208394 -0.1057,-0.0098 -0.2055,-0.05416 -0.3125,-0.05954 l -0.002,1e-6 -4e-4,5e-6 z"
         style="opacity:0.36744187;fill:#340305;fill-opacity:1;stroke-width:1px;filter:url(#filter5633)" />
      <g
         transform="matrix(0.47834684,0,0,0.47834684,-336.34395,117.56736)"
         id="g4394">
        <path
           sodipodi:type="inkscape:offset"
           inkscape:radius="0.66225767"
           inkscape:original="M 582 132.3125 L 560.15625 145 C 590.80076 167.0328 611.93309 185.17021 635.4375 206.46875 C 637.71538 194.59103 641.14817 183.38512 643.84375 174 C 640.3014 168.26935 593.34872 130.89423 584.46875 135.0625 L 582 132.3125 z "
           style="fill:url(#radialGradient3499);fill-opacity:1;stroke-width:1px"
           id="path4079"
           d="m 581.90625,131.65625 a 0.6623239,0.6623239 0 0 0 -0.25,0.0937 l -21.84375,12.6875 a 0.6623239,0.6623239 0 0 0 -0.0313,1.09375 c 30.62181,22.01648 51.72207,40.14597 75.21875,61.4375 a 0.6623239,0.6623239 0 0 0 1.09375,-0.375 c 2.26921,-11.83252 5.67685,-23.01218 8.375,-32.40625 a 0.6623239,0.6623239 0 0 0 -0.0625,-0.53125 c -0.53017,-0.85769 -1.65767,-2.04881 -3.3125,-3.625 -1.65483,-1.57619 -3.81697,-3.49642 -6.34375,-5.625 -5.05356,-4.25717 -11.55799,-9.34449 -18.21875,-14.125 C 609.87049,145.50074 603.065,141.03185 597.3125,138 c -2.87625,-1.51593 -5.47833,-2.68919 -7.6875,-3.34375 -1.95105,-0.57808 -3.56118,-0.68422 -4.875,-0.28125 l -2.25,-2.5 a 0.6623239,0.6623239 0 0 0 -0.59375,-0.21875 z"
           clip-path="none"
           transform="translate(323.75276,-21.096671)" />
        <g
           id="g4215"
           clip-path="url(#clipPath4221)"
           transform="translate(323.75276,-21.096671)">
          <path
             id="path4126"
             d="m 588.67141,133.16378 1.43439,6.88505 4.87691,4.01628 7.74567,4.8769 10.32757,4.59003 14.9176,1.72127 -5.16378,-12.04883 -34.13836,-11.47508 0,1.43438 z"
             style="fill:url(#radialGradient3501);fill-opacity:1;stroke-width:1px;filter:url(#filter4231)" />
          <path
             transform="translate(0.01792977,40.162767)"
             clip-path="none"
             id="path4087"
             d="m 581.84375,90.993483 c -0.14688,0.02305 -0.31002,0.08031 -0.4375,0.15625 -0.008,0.0049 -0.0232,-0.005 -0.0313,0 l -21.8125,12.687497 -0.0313,0.0313 c -0.69094,0.44303 -0.69572,1.42443 -0.0313,1.90625 30.60457,22.00409 51.66529,40.1199 75.15625,61.40625 0.33608,0.30122 0.79787,0.31037 1.15625,0.1875 0.35838,-0.12287 0.7007,-0.39968 0.78125,-0.84375 2.2606,-11.78764 5.64505,-22.94905 8.34375,-32.34375 0.003,-0.009 -0.003,-0.0224 0,-0.0313 0.0851,-0.30568 0.0681,-0.63175 -0.0937,-0.90625 -0.58801,-0.95127 -1.74246,-2.16527 -3.40625,-3.75 -1.66547,-1.58633 -3.84239,-3.49151 -6.375,-5.625 -5.06513,-4.26692 -11.578,-9.36767 -18.25,-14.15625 -6.67186,-4.78846 -13.49336,-9.262 -19.28125,-12.312497 -2.89215,-1.52431 -5.48733,-2.70459 -7.75,-3.375 -1.84883,-0.54779 -3.44125,-0.6388 -4.8125,-0.3125 l -2.09375,-2.34375 c -0.26257,-0.29951 -0.63712,-0.43256 -1.03125,-0.375 z m 0.125,1 c 0.0411,-0.006 0.1289,0.0313 0.15625,0.0625 l 2.25,2.5 0.21875,0.21875 0.3125,-0.09375 c 1.1808,-0.36217 2.66731,-0.28028 4.5625,0.28125 2.15567,0.63871 4.76465,1.80495 7.625,3.3125 5.71711,3.013197 12.50669,7.477537 19.15625,12.249997 6.64952,4.77244 13.14551,9.84633 18.1875,14.09375 2.52095,2.12367 4.66831,4.05895 6.3125,5.625 1.64587,1.56765 2.74642,2.73589 3.21875,3.5 0.0191,0.0323 0.0423,0.0891 0.0313,0.125 l 0,0.0313 c -2.69637,9.38787 -6.13057,20.57126 -8.40625,32.4375 -0.003,0.0169 -0.0446,0.0662 -0.125,0.0937 -0.0804,0.0275 -0.11219,0.0115 -0.125,0 -23.5024,-21.29671 -44.6422,-39.43988 -75.28125,-61.46875 -0.0304,-0.0221 -4.2e-4,-0.26095 0.0313,-0.28125 l 21.8125,-12.656247 0.0313,0 c 0.0178,-0.01121 0.0105,-0.02799 0.0313,-0.03125 z"
             style="font-size:medium;font-style:normal;font-variant:normal;font-weight:normal;font-stretch:normal;text-indent:0;text-align:start;text-decoration:none;line-height:normal;letter-spacing:normal;word-spacing:normal;text-transform:none;direction:ltr;block-progression:tb;writing-mode:lr-tb;text-anchor:start;color:#000000;fill:#791113;fill-opacity:1;fill-rule:nonzero;stroke:none;stroke-width:1px;marker:none;visibility:visible;display:inline;overflow:visible;filter:url(#filter4102);enable-background:accumulate;font-family:Bitstream Vera Sans;-inkscape-font-specification:Bitstream Vera Sans" />
          <path
             id="path4147"
             d="m 559.06178,144.22821 9.12837,0.4057 5.47702,-1.41996 4.05705,-2.83994 3.8542,-0.81141 3.04279,0.20285 -0.81141,-1.41997 c 0,0 -3.04279,-0.20285 -2.23138,-1.21711 0.81141,-1.01427 3.04279,-3.4485 3.04279,-3.4485 l 3.24564,-5.47702 -10.75118,-2.23138 c 0,0 -4.66561,2.02853 -6.49129,2.83994 -1.82567,0.81141 -10.34548,11.35975 -10.34548,11.35975 l -1.21712,4.05705 z"
             style="fill:url(#radialGradient3503);fill-opacity:1;stroke-width:1px;filter:url(#filter4169)" />
          <path
             id="path4181"
             d="m 635.33436,192.91283 c 0,0 -3.24564,-6.89698 -3.65134,-7.70839 -0.40571,-0.81142 -3.8542,-5.88273 -4.66561,-6.28844 -0.81141,-0.4057 -6.28843,-3.44849 -7.09984,-3.65134 -0.81141,-0.20286 -3.4485,1.01426 -3.4485,1.01426 0,0 -0.4057,3.44849 0,4.46276 0.40571,1.01426 4.05705,6.08558 4.86847,7.09984 0.81141,1.01426 5.47702,5.07131 6.49128,5.88272 1.01426,0.81142 3.24564,2.63709 3.8542,3.8542 0.60856,1.21712 2.23138,3.24565 2.23138,3.24565 l 1.41996,-2.43424 0,-5.47702 z"
             style="opacity:0.8;fill:url(#linearGradient3505);fill-opacity:1;stroke-width:1px;filter:url(#filter4211)" />
        </g>
      </g>
      <g
         transform="matrix(0.47834684,0,0,0.47834684,-229.90882,84.765145)"
         id="g4815">
        <path
           style="fill:url(#radialGradient3507);fill-opacity:1;stroke-width:1px"
           d="m 646.11881,188.10407 c -3.66019,-0.0921 -4.93194,2.4149 -7.60139,2.82843 -20.52671,3.17981 -39.33371,7.57014 -54.09367,22.80419 -4.36635,4.50659 -8.83053,10.73737 -4.77297,16.79379 5.36247,8.00416 11.93814,15.02219 19.62221,20.85965 2.87056,2.18072 5.61456,3.37398 9.01561,2.12132 26.48446,-9.75468 32.49368,-22.65365 42.24963,-45.96194 1.54695,-3.24829 3.90959,-6.04731 5.65686,-9.19239 0,0 3.23895,-3.0503 2.65165,-4.77297 -1.49054,-4.37208 -9.06774,-5.38795 -12.72793,-5.48008 z"
           id="path4638"
           sodipodi:nodetypes="cssssscssz" />
        <path
           style="fill:url(#radialGradient3509);fill-opacity:1;stroke-width:1px"
           d="m 650.21309,208.31917 c -6.13059,3.93839 -12.29196,8.20282 -23.1875,14.4375 -7.20976,4.12559 -22.84423,15.10477 -24.65625,24.125 -1.16669,5.80779 2.19078,7.55521 5.3125,6.71875 -0.005,0.033 0.005,0.0612 0,0.0937 0.20287,-0.0586 0.38616,-0.11104 0.59375,-0.1875 26.18225,-9.64337 32.37428,-22.37908 41.9375,-45.1875 z"
           id="path4640" />
        <g
           id="g4792"
           clip-path="url(#clipPath4801)"
           transform="translate(98.966573,-0.01657282)">
          <path
             id="path4665"
             d="m 547.125,187.28125 c -1.9456,-0.049 -3.30232,0.62991 -4.4375,1.3125 -1.13518,0.68259 -2.05446,1.34605 -3.25,1.53125 -20.54986,3.1834 -39.50075,7.58549 -54.375,22.9375 -2.20405,2.27484 -4.45961,5.01724 -5.65625,8 -1.19664,2.98276 -1.27635,6.27298 0.84375,9.4375 5.39245,8.04891 11.99038,15.09764 19.71875,20.96875 2.92282,2.22042 5.92047,3.5059 9.5,2.1875 13.29779,-4.8978 21.50161,-10.60072 27.59375,-18.03125 6.09214,-7.43053 10.05809,-16.52993 14.9375,-28.1875 1.48829,-3.12511 3.76176,-5.8863 5.53125,-9.03125 0,0 0.0603,-0.0604 0.0625,-0.0625 0.0114,-0.0205 0.0199,-0.042 0.0313,-0.0625 0.0974,-0.0926 0.78237,-0.73442 1.5,-1.6875 0.38357,-0.50942 0.78476,-1.06728 1.03125,-1.65625 0.24649,-0.58897 0.36291,-1.20632 0.15625,-1.8125 -0.82496,-2.41977 -3.26631,-3.85294 -5.875,-4.6875 -2.60869,-0.83456 -5.44487,-1.10924 -7.3125,-1.15625 z m -0.0313,1 c 1.79256,0.0451 4.59491,0.33558 7.0625,1.125 2.46759,0.78942 4.55317,2.07894 5.21875,4.03125 0.087,0.25515 0.0394,0.65754 -0.15625,1.125 -0.19564,0.46746 -0.52225,0.96901 -0.875,1.4375 -0.7055,0.93697 -1.5,1.6875 -1.5,1.6875 l -0.0625,0.0313 -0.0313,0.0937 c -1.7155,3.0879 -4.07227,5.8927 -5.65625,9.21875 l -0.0313,0 c -0.18347,0.43834 -0.35038,0.85036 -0.53125,1.28125 -6.10009,3.92183 -12.25318,8.17178 -23.09375,14.375 -7.20976,4.12559 -22.84423,15.10477 -24.65625,24.125 -0.58615,2.91788 -0.0592,4.7899 1.03125,5.84375 -1.07977,-0.43984 -2.13914,-1.12484 -3.25,-1.96875 -7.63977,-5.80381 -14.16751,-12.79059 -19.5,-20.75 -1.93746,-2.8919 -1.83139,-5.72662 -0.71875,-8.5 1.11264,-2.77338 3.2752,-5.4245 5.4375,-7.65625 14.64567,-15.11609 33.30894,-19.48003 53.8125,-22.65625 1.47391,-0.22833 2.5419,-1.03623 3.625,-1.6875 1.0831,-0.65127 2.16041,-1.19939 3.875,-1.15625 z m 3.1875,20.59375 c -4.51993,10.74838 -8.32058,19.20473 -13.96875,26.09375 -5.97258,7.2847 -14.00083,12.89312 -27.1875,17.75 -1.30407,0.48031 -2.48439,0.58792 -3.625,0.40625 -1.45938,-0.95975 -2.31469,-2.97296 -1.625,-6.40625 1.86132,-9.26566 17.93782,-20.54341 25.34375,-24.78125 9.59603,-5.49107 15.57161,-9.48259 21.0625,-13.0625 z"
             style="font-size:medium;font-style:normal;font-variant:normal;font-weight:normal;font-stretch:normal;text-indent:0;text-align:start;text-decoration:none;line-height:normal;letter-spacing:normal;word-spacing:normal;text-transform:none;direction:ltr;block-progression:tb;writing-mode:lr-tb;text-anchor:start;color:#000000;fill:#740a0c;fill-opacity:1;stroke:none;stroke-width:1px;marker:none;visibility:visible;display:inline;overflow:visible;filter:url(#filter4683);enable-background:accumulate;font-family:Bitstream Vera Sans;-inkscape-font-specification:Bitstream Vera Sans" />
          <path
             id="path4735"
             d="m 558.17242,191.02089 -9.81111,6.18719 -15.99829,10.51821 -2.91682,3.97748 7.51301,-2.65165 6.27557,-2.74004 7.07107,-4.77297 3.27037,-2.65165 3.44715,-4.24264 2.38648,-2.91682 -1.23743,-0.70711 z"
             style="fill:url(#radialGradient3511);fill-opacity:1;stroke-width:1px;filter:url(#filter4753)" />
          <path
             sodipodi:nodetypes="ccccc"
             id="path4717"
             d="m 554.63688,188.36924 1.23744,1.94455 -30.75915,18.64994 c -22.56521,11.17094 -7.20219,-4.02286 -4.86136,-10.16466 l 34.38307,-10.42983 z"
             style="fill:url(#radialGradient3513);fill-opacity:1;stroke-width:1px;filter:url(#filter4731)" />
          <path
             sodipodi:nodetypes="cccc"
             id="path4699"
             d="m 560.73568,188.98796 c -15.55063,8.78942 -27.81735,18.67772 -39.77476,28.8146 l -6.71751,-3.0052 c 14.86797,-9.33171 30.30704,-19.11221 46.49227,-25.8094 z"
             style="fill:#e01117;fill-opacity:1;stroke-width:1px;filter:url(#filter4709)" />
          <path
             sodipodi:nodetypes="cccc"
             id="path4701"
             d="m 552.60395,199.94812 c -9.96834,8.10136 -20.32433,12.71396 -30.75915,16.61701 l 0.53033,4.24264 c 14.0158,-6.67182 22.75346,-13.72065 30.22882,-20.85965 z"
             style="fill:#e6131c;fill-opacity:1;stroke-width:1px;filter:url(#filter4705)" />
          <path
             id="path4703"
             d="m 555.43238,187.57375 -5.48008,3.53553 -10.6066,3.53554 -12.72792,3.35875 -10.96016,3.88909 0.17678,-6.18718 12.9047,-1.59099 11.49048,-2.2981 15.2028,-4.24264 z"
             style="fill:url(#linearGradient3515);fill-opacity:1;stroke-width:1px;filter:url(#filter4745)" />
          <path
             sodipodi:nodetypes="cccc"
             id="path4767"
             d="m 558.0625,190.375 c -15.0632,6.58414 -29.50524,15.66092 -43.4375,24.40625 l 5.125,0.59375 c 11.25034,-9.53513 24.01536,-16.60989 38.3125,-25 z"
             style="fill:url(#radialGradient3517);fill-opacity:1;stroke-width:1px;filter:url(#filter4709)" />
        </g>
        <path
           sodipodi:nodetypes="cssssscssz"
           id="path4788"
           d="m 646.11881,188.10407 c -3.66019,-0.0921 -4.93194,2.4149 -7.60139,2.82843 -20.52671,3.17981 -39.33371,7.57014 -54.09367,22.80419 -4.36635,4.50659 -8.83053,10.73737 -4.77297,16.79379 5.36247,8.00416 11.93814,15.02219 19.62221,20.85965 2.87056,2.18072 5.61456,3.37398 9.01561,2.12132 26.48446,-9.75468 32.49368,-22.65365 42.24963,-45.96194 1.54695,-3.24829 3.90959,-6.04731 5.65686,-9.19239 0,0 3.23895,-3.0503 2.65165,-4.77297 -1.49054,-4.37208 -9.06774,-5.38795 -12.72793,-5.48008 z"
           style="fill:url(#linearGradient3519);fill-opacity:1;stroke-width:1px" />
      </g>
      <g
         transform="matrix(0.45185201,0,0,0.45185201,-164.17143,104.24478)"
         id="g4372">
        <path
           sodipodi:type="inkscape:offset"
           inkscape:radius="1.014263"
           inkscape:original="M 475.125 146.6875 C 475.1027 146.7023 475.0884 146.70165 475.0625 146.71875 C 474.94457 146.79625 474.79647 146.89368 474.625 147 C 474.28206 147.21264 473.83609 147.45853 473.40625 147.71875 C 472.97641 147.97897 472.55522 148.25855 472.21875 148.46875 C 472.05051 148.57385 471.89015 148.646 471.78125 148.71875 C 471.67235 148.79155 471.58807 148.88049 471.59375 148.875 C 464.96257 155.28492 461.81046 163.25066 460.9375 171.96875 C 460.06454 180.68684 461.49919 190.12826 464.09375 199.4375 C 469.26517 217.99249 479.01195 235.94823 484.1875 246.40625 L 524.25 251.40625 C 506.83289 221.92625 491.6763 191.4155 482.78125 158.21875 C 482.62604 157.63949 481.92767 156.98169 481.25 156.3125 C 480.91116 155.97791 480.57735 155.65219 480.34375 155.28125 C 480.11015 154.91031 479.96724 154.47365 480.0625 154.03125 C 480.0885 153.91041 480.16635 153.73039 480.25 153.46875 C 480.3336 153.20711 480.43102 152.87797 480.53125 152.5625 C 480.63148 152.24703 480.71448 151.95774 480.78125 151.71875 C 480.81155 151.61022 480.8598 151.50644 480.875 151.4375 L 475.125 146.6875 z "
           style="fill:url(#radialGradient3521);fill-opacity:1;stroke-width:1px"
           id="path4247"
           d="m 474.90625,145.6875 a 1.0143645,1.0143645 0 0 0 -0.28125,0.125 c -0.0274,0.0139 -0.0328,0.0115 -0.0625,0.0313 -0.0256,0.0139 -0.0377,0.0149 -0.0625,0.0313 -0.11828,0.0777 -0.24834,0.15209 -0.40625,0.25 -0.30586,0.18965 -0.76518,0.44417 -1.21875,0.71875 -0.45406,0.27488 -0.8712,0.5524 -1.1875,0.75 -0.0995,0.0622 -0.23498,0.12508 -0.46875,0.28125 -0.1126,0.0753 -0.19049,0.13381 -0.25,0.1875 -0.0298,0.0268 -0.0433,0.0748 -0.0625,0.0937 l -0.0313,0 c -0.005,0.005 -0.0127,0.0107 -0.0313,0.0313 -1.7e-4,1.8e-4 -0.0625,0.0937 -0.0625,0.0937 -6.73849,6.57119 -9.95785,14.7464 -10.84375,23.59375 -0.89117,8.89994 0.57128,18.45681 3.1875,27.84375 5.21447,18.70947 15.00053,36.70704 20.15625,47.125 a 1.0143645,1.0143645 0 0 0 0.78125,0.5625 l 40.0625,5 a 1.0143645,1.0143645 0 0 0 1,-1.53125 c -17.39229,-29.438 -32.51429,-59.83765 -41.375,-92.90625 -0.30238,-1.12853 -1.11502,-1.71711 -1.78125,-2.375 -0.34165,-0.33736 -0.63716,-0.61494 -0.78125,-0.84375 -0.14173,-0.22506 -0.14741,-0.39593 -0.125,-0.5 -0.018,0.0837 0.0581,-0.16178 0.15625,-0.46875 0.0891,-0.27895 0.18524,-0.60405 0.28125,-0.90625 0.10548,-0.33201 0.18169,-0.63051 0.25,-0.875 3.4e-4,-0.001 0.0587,-0.0431 0.125,-0.34375 a 1.0143645,1.0143645 0 0 0 -0.34375,-1 l -5.75,-4.75 a 1.0143645,1.0143645 0 0 0 -0.875,-0.21875 z"
           transform="translate(69.781297,14.402535)" />
        <g
           id="g4348"
           clip-path="url(#clipPath4356)"
           transform="translate(-67.754309,0.00294432)">
          <path
             style="fill:url(#linearGradient3523);fill-opacity:1;stroke-width:1px;filter:url(#filter4318)"
             d="m 629.83826,183.22381 c -14.76503,-13.11386 -19.86848,-25.56599 -18.647,-43.03154 0,0 -3.89856,5.22361 -4.30315,8.31943 -1.09141,8.3511 0.73716,17.69181 5.45066,24.67142 l 14.9176,22.08952 c 12.27362,-0.0465 7.495,-6.0243 2.58189,-12.04883 z"
             id="path4344"
             sodipodi:nodetypes="ccsscc" />
          <path
             style="opacity:0.53488375;fill:url(#radialGradient3525);fill-opacity:1;stroke-width:1px;filter:url(#filter4296)"
             d="m 618.12879,160.99084 c -3.57452,5.43908 -2.45887,11.68909 -1.72126,17.78637 0,0 2.74934,12.86643 3.87284,17.49949 1.1235,4.63306 2.72533,10.32757 2.72533,10.32757 0,0 1.81468,9.87466 -0.43032,11.61852 -0.36179,-4.62136 -2.10174,-15.05434 -4.59003,-19.3642 0,0 -1.88746,-6.73722 -2.43845,-10.18412 -0.5528,-3.4582 -0.86063,-10.47101 -0.86063,-10.47101 0,0 -1.13222,-5.49244 -1.1475,-7.81739 -0.009,-3.3683 0.7491,-6.13518 2.00813,-9.25179 0.65606,-1.07796 3.01221,-3.0122 3.01221,-3.0122 l -0.43032,2.86876 z"
             id="path4292"
             sodipodi:nodetypes="cczzccazcccc" />
          <path
             sodipodi:nodetypes="cczzzzzzzzcccc"
             id="path4278"
             d="m 616.92879,160.99084 c -3.57452,5.43908 -2.45887,11.68909 -1.72126,17.78637 0,0 2.74934,12.86643 3.87284,17.49949 1.1235,4.63306 2.72533,10.32757 2.72533,10.32757 0,0 1.81468,9.87466 -0.43032,11.61852 -2.245,1.74386 -5.30722,-1.14751 -5.30722,-1.14751 0,0 -0.38803,-4.06335 -0.71719,-7.02848 -0.32916,-2.96513 -1.29095,-10.75789 -1.29095,-10.75789 0,0 0.38367,-7.095 0.28688,-10.61444 -0.0968,-3.51944 -0.86063,-10.47101 -0.86063,-10.47101 0,0 -0.55847,-4.99041 -0.57375,-7.31536 -0.009,-3.3683 0.17535,-6.63721 1.43438,-9.75382 0.65606,-1.07796 3.01221,-3.0122 3.01221,-3.0122 l -0.43032,2.86876 z"
             style="fill:url(#radialGradient3527);fill-opacity:1;stroke-width:1px;filter:url(#filter4288)" />
          <path
             sodipodi:nodetypes="ccsscc"
             id="path4300"
             d="m 621.66226,223.53001 c -14.76503,-13.11386 -19.86848,-25.56599 -18.647,-43.03154 0,0 -3.89856,5.22361 -4.30315,8.31943 -1.09141,8.3511 2.13089,16.93119 5.45066,24.67142 5.19631,12.11548 14.98796,22.16305 27.82706,30.83927 12.27362,-0.0465 -5.41446,-14.77405 -10.32757,-20.79858 z"
             style="fill:url(#linearGradient3529);fill-opacity:1;stroke-width:1px;filter:url(#filter4318)" />
          <path
             sodipodi:nodetypes="cccscsc"
             id="path4322"
             d="m 612.05188,158.33723 c -0.60628,1.39223 -4.01175,1.33804 -1.29625,4.65028 -0.17622,5.49736 -2.96086,10.62209 -4.44129,15.93314 0,0 3.7208,-6.17473 5.16379,-9.46694 1.19574,-2.72808 2.86877,-8.46287 2.86877,-8.46287 0,0 1.72126,-2.00813 1.00407,-2.15157 -0.71719,-0.14344 -3.15565,0 -3.29909,-0.50204 z"
             style="fill:url(#linearGradient3531);fill-opacity:1;stroke-width:1px;filter:url(#filter4340)" />
          <path
             id="path4257"
             d="m 612.3125,159.59375 c -0.0346,0.009 -0.06,0.0507 -0.0937,0.0625 -0.11132,0.039 -0.24421,0.0611 -0.34375,0.125 l 0,0.0313 c -0.008,0.004 -0.023,-0.005 -0.0313,0 -0.0123,0.007 -0.021,0.0244 -0.0313,0.0313 -0.0145,0.006 -0.0136,-0.001 -0.0625,0.0313 -0.1001,0.0658 -0.20899,0.11582 -0.375,0.21875 -0.2856,0.17709 -0.75435,0.43761 -1.21875,0.71875 -0.46555,0.28183 -0.88208,0.5592 -1.1875,0.75 -0.0549,0.0343 -0.24358,0.1412 -0.5,0.3125 -0.10943,0.0732 -0.20233,0.11954 -0.28125,0.1875 l -0.0313,0.0313 c -0.0187,0.0168 -0.0172,0.0159 -0.0313,0.0313 l -0.0313,0.0625 -0.0313,0.0313 c 0.0421,-0.0421 -0.0286,-0.006 -0.0625,0.0313 0,0 -0.0294,0.0597 -0.0313,0.0625 -0.002,0.003 -0.0283,-0.004 -0.0313,0 -0.003,0.004 0.004,0.0257 0,0.0313 -0.004,0.006 0.004,0.0254 0,0.0313 -0.0156,0.0234 -0.0313,0.0313 -0.0313,0.0313 -6.77377,6.64667 -10.04629,14.91208 -10.9375,23.8125 -0.90011,8.98921 0.5919,18.60618 3.21875,28.03125 5.23564,18.78543 15.0418,36.82104 20.1875,47.21875 0.22348,0.45989 0.64922,0.77767 1.15625,0.84375 l 40.0625,5 c 0.60625,0.0798 1.118,-0.27736 1.40625,-0.71875 0.28825,-0.44139 0.41057,-1.0395 0.0937,-1.5625 -17.38017,-29.41749 -32.46877,-59.77603 -41.3125,-92.78125 -0.34909,-1.30287 -1.30982,-2.00518 -1.9375,-2.625 -0.34665,-0.3423 -0.61051,-0.62774 -0.6875,-0.75 -0.0841,-0.13359 -0.0575,-0.14803 -0.0625,-0.125 l -0.5,-0.0937 -0.5,-0.0937 c -0.002,0.0106 0.003,0.009 0,0.0313 -0.002,0.0113 10e-4,0.0297 0,0.0625 -6.7e-4,0.0164 -3e-5,0.0623 0,0.0625 10e-6,1.2e-4 0.0312,0.0937 0.0313,0.0937 2e-5,8e-5 0.0625,0.15621 0.0625,0.15625 0.0274,0.155 0.021,0.27232 0.125,0.4375 0.21119,0.33536 0.5071,0.60508 0.84375,0.9375 0.70478,0.69596 1.40058,1.20206 1.65625,2.15625 8.87769,33.13198 24.00184,63.57274 41.40625,93.03125 0.0767,0.12664 0.0594,0.34464 -0.0625,0.53125 -0.12187,0.18661 -0.29071,0.26933 -0.4375,0.25 l -40.0625,-5 c -0.15607,-0.0203 -0.33746,-0.13969 -0.40625,-0.28125 C 616.08426,250.59304 606.3183,232.63351 601.125,214 c -2.60559,-9.34881 -4.03848,-18.87683 -3.15625,-27.6875 0.87555,-8.74394 4.03136,-16.77344 10.65625,-23.25 0.0108,-0.0106 0.0204,-0.0207 0.0313,-0.0313 l 0.0313,-0.0313 0.0313,-0.0313 c 0,0 0.0234,-0.0195 0.0313,-0.0313 l 0.0313,-0.0313 c 0.004,-0.005 -0.003,-0.0269 0,-0.0313 0.0286,-0.0313 0.0513,-0.0129 0.0625,-0.0313 0.0325,-0.0294 0.0858,-0.0882 0.1875,-0.15625 0.21112,-0.14104 0.3247,-0.1912 0.46875,-0.28125 0.32718,-0.2044 0.71368,-0.45082 1.15625,-0.71875 0.44274,-0.26802 0.92388,-0.54779 1.25,-0.75 0.14981,-0.0929 0.26979,-0.16036 0.40625,-0.25 -0.0298,0.0197 -0.0436,0.0406 0.0313,0 0.0114,-0.005 0.01,-0.0203 0.0313,-0.0313 l 0.0313,0 0.0313,-0.0313 c 0.0436,-0.028 0.075,-0.0489 0.125,-0.0625 l 0,0.0313 c 0.14458,-0.0317 0.32484,-0.002 0.4375,0.0937 l 5.75,4.75 c 0.13236,0.10956 0.19328,0.33221 0.15625,0.5 -0.0231,0.10472 -0.0255,0.14174 -0.0313,0.15625 -10e-4,0.003 -3e-5,0.0313 0,0.0313 -0.0109,0.0146 -0.0313,0.0313 -0.0313,0.0313 l -0.0313,0.0937 0,0.0313 c -0.0708,0.25325 -0.14966,0.52793 -0.25,0.84375 -0.0982,0.30902 -0.19469,0.63525 -0.28125,0.90625 -0.0445,0.13915 -0.0661,0.25796 -0.0937,0.34375 -8e-5,1e-4 0.0626,-0.0626 0.0625,-0.0625 -7e-5,6e-5 0.12506,-0.0938 0.125,-0.0937 0,0 0.21875,0.4375 0.21875,0.4375 -3e-5,-4e-5 0.46877,-0.12492 0.46875,-0.125 -2e-5,-8e-5 0.0313,0.0939 0.0313,0.0937 -3e-5,-2.3e-4 6.4e-4,0.0469 0,0.0625 0.0299,-0.0925 0.0799,-0.20281 0.125,-0.34375 0.0916,-0.2869 0.18741,-0.61087 0.28125,-0.90625 0.0909,-0.28625 0.12914,-0.53592 0.1875,-0.75 0.008,-0.0113 0.0235,-0.0195 0.0313,-0.0313 0.0198,-0.0303 0.0459,-0.0589 0.0625,-0.0937 0.046,-0.0969 0.0863,-0.23059 0.125,-0.40625 0.12277,-0.55635 -0.0924,-1.10548 -0.53125,-1.46875 l -5.75,-4.75 c -0.36162,-0.30812 -0.81718,-0.44544 -1.28125,-0.34375 l 0.0313,0.1875 -0.0625,-0.1875 z"
             style="font-size:medium;font-style:normal;font-variant:normal;font-weight:normal;font-stretch:normal;text-indent:0;text-align:start;text-decoration:none;line-height:normal;letter-spacing:normal;word-spacing:normal;text-transform:none;direction:ltr;block-progression:tb;writing-mode:lr-tb;text-anchor:start;color:#000000;fill:#681315;fill-opacity:1;fill-rule:nonzero;stroke:none;stroke-width:1px;marker:none;visibility:visible;display:inline;overflow:visible;filter:url(#filter4274);enable-background:accumulate;font-family:Bitstream Vera Sans;-inkscape-font-specification:Bitstream Vera Sans" />
        </g>
      </g>
      <g
         transform="matrix(0.47834684,0,0,0.47834684,-247.43938,108.302)"
         id="g4607">
        <path
           sodipodi:nodetypes="cscscsssssccc"
           id="path4426"
           d="m 705.52119,139.5626 c 0,0 17.11346,-6.32016 23.93661,-9.93978 12.28719,-6.51823 23.94098,-13.31539 31.49287,-25.66086 1.69082,-3.17937 3.15945,-5.674227 1.97781,-7.809819 -6.00866,-10.859544 -21.29376,-23.68951 -25.96513,-25.559429 -2.55017,-1.020817 -5.66367,-0.104753 -8.92552,1.217116 -5.88835,2.386259 -11.61159,6.258674 -16.63391,11.765451 -3.43483,3.76616 -6.20577,7.861994 -7.30269,11.968304 -0.85782,3.211237 -0.43306,6.880887 -0.40571,10.751187 0.0435,6.15444 0.67885,12.85077 -2.63708,19.06815 l -1.62282,3.04279 5.07131,12.17115 1.01426,-1.01426 z"
           style="fill:url(#radialGradient3533);fill-opacity:1;stroke-width:1px" />
        <path
           style="fill:url(#radialGradient3535);fill-opacity:1;stroke-width:1px"
           d="m 733.875,70.21875 c -1.82144,0.135335 -3.80509,0.798832 -5.84375,1.625 -5.88835,2.386259 -11.63393,6.274474 -16.65625,11.78125 -3.43483,3.76616 -6.18433,7.86244 -7.28125,11.96875 -0.85782,3.211237 -0.4336,6.8797 -0.40625,10.75 0.0435,6.15444 0.65968,12.84512 -2.65625,19.0625 l -1.625,3.03125 5.09375,12.1875 0.0313,-0.0625 -0.4375,-1 c 1.32939,-0.76243 2.87661,-1.5043 4.75,-2.21875 6.06798,-2.31415 8.75305,-3.94413 10.84375,-5.75 4.19074,-3.61979 5.93229,-7.54592 7.75,-10.625 1.289,-2.18347 2.7257,-3.70911 5.15625,-7.3125 1.79855,-2.66641 3.35407,-5.02591 4.59375,-6.3125 2.55771,-2.6545 4.89883,-5.55871 7.875,-7.75 3.72812,-2.877041 7.72618,-4.989508 12.21875,-5.15625 1.03675,-0.03848 2.09503,0.03504 3.1875,0.21875 0.9567,0.24585 1.69587,0.557349 2.15625,1.0625 -6.17979,-10.757482 -21.08275,-23.250498 -25.6875,-25.09375 -0.95631,-0.382806 -1.96963,-0.487451 -3.0625,-0.40625 z m 18.875,43.875 c -1.82435,1.74893 -3.73854,3.36276 -5.75,4.875 2.00981,-1.51383 3.92747,-3.12414 5.75,-4.875 z m -23.3125,15.5625 c -1.70309,0.90133 -4.04582,1.96808 -6.59375,3.0625 2.54846,-1.09556 4.89676,-2.16226 6.59375,-3.0625 z m -6.625,3.09375 c -5.11982,2.19791 -11.08597,4.48662 -14.5,5.78125 3.42679,-1.30021 9.3868,-3.58447 14.5,-5.78125 z"
           id="path4420" />
        <path
           id="path4433"
           d="m 757.27509,94.437051 c -4.49257,0.166742 -8.49063,2.279209 -12.21875,5.15625 -2.97617,2.191289 -5.31729,5.095499 -7.875,7.749999 -1.23968,1.28659 -2.7952,3.64609 -4.59375,6.3125 -2.43055,3.60339 -3.86725,5.12903 -5.15625,7.3125 -1.81771,3.07908 -3.55926,7.00521 -7.75,10.625 -2.0907,1.80587 -4.77577,3.43585 -10.84375,5.75 -1.87339,0.71445 -3.42061,1.45632 -4.75,2.21875 l 0.4375,1 1,-1 c 0,0 17.11436,-6.31788 23.9375,-9.9375 12.28719,-6.51823 23.94811,-13.31078 31.5,-25.65625 1.44142,-2.71041 2.72962,-4.926773 2.34375,-6.843748 -0.003,-0.009 0.003,-0.02225 0,-0.03125 -0.10411,-0.311868 -0.22049,-0.620579 -0.375,-0.9375 -0.0504,-0.09112 -0.10454,-0.18986 -0.15625,-0.28125 -0.008,-0.01148 -0.0226,-0.01996 -0.0313,-0.03125 -0.4448,-0.584254 -1.24483,-0.921163 -2.28125,-1.1875 -1.09247,-0.183706 -2.15075,-0.257229 -3.1875,-0.21875 z"
           style="fill:url(#radialGradient3537);fill-opacity:1;stroke-width:1px" />
        <path
           style="fill:url(#radialGradient3539);fill-opacity:1;stroke-width:1px"
           d="m 757.27509,94.437051 c -4.49257,0.166742 -8.49063,2.279209 -12.21875,5.15625 -2.97617,2.191289 -5.31729,5.095499 -7.875,7.749999 -1.23968,1.28659 -2.7952,3.64609 -4.59375,6.3125 -2.43055,3.60339 -3.86725,5.12903 -5.15625,7.3125 -1.81771,3.07908 -3.55926,7.00521 -7.75,10.625 -2.0907,1.80587 -4.77577,3.43585 -10.84375,5.75 -1.87339,0.71445 -3.42061,1.45632 -4.75,2.21875 l 0.4375,1 1,-1 c 0,0 17.11436,-6.31788 23.9375,-9.9375 12.28719,-6.51823 23.94811,-13.31078 31.5,-25.65625 1.44142,-2.71041 2.72962,-4.926773 2.34375,-6.843748 -0.003,-0.009 0.003,-0.02225 0,-0.03125 -0.10411,-0.311868 -0.22049,-0.620579 -0.375,-0.9375 -0.0504,-0.09112 -0.10454,-0.18986 -0.15625,-0.28125 -0.008,-0.01148 -0.0226,-0.01996 -0.0313,-0.03125 -0.4448,-0.584254 -1.24483,-0.921163 -2.28125,-1.1875 -1.09247,-0.183706 -2.15075,-0.257229 -3.1875,-0.21875 z"
           id="path4410" />
        <g
           id="g4571"
           clip-path="url(#clipPath4579)"
           transform="translate(0.0171356,-122.63188)">
          <path
             id="path4441"
             d="m 733.65625,192.03125 c -2.00054,0.0849 -4.15346,0.81255 -6.3125,1.6875 -5.95834,2.41462 -11.74138,6.31471 -16.8125,11.875 -3.46624,3.80059 -6.27654,7.95844 -7.40625,12.1875 -0.89295,3.34276 -0.46461,7.03905 -0.4375,10.875 0.0437,6.18629 0.6708,12.7813 -2.5625,18.84375 l -1.625,3.03125 -0.125,0.21875 0.0937,0.21875 5.0625,12.15625 0.3125,0.71875 0.53125,-0.53125 0.90625,-0.9375 c 0.16581,-0.0612 17.02406,-6.28656 23.90625,-9.9375 12.29869,-6.52433 24.05876,-13.37264 31.6875,-25.84375 l 0.0313,-0.0313 c 0.84269,-1.58457 1.63966,-3.01729 2.09375,-4.375 0.2612,-0.78098 0.39829,-1.53438 0.34375,-2.28125 -0.0403,-0.55153 -0.18277,-1.10815 -0.46875,-1.625 -3.0509,-5.51394 -8.41292,-11.45973 -13.59375,-16.28125 -2.59042,-2.41076 -5.14284,-4.53922 -7.34375,-6.1875 -2.20091,-1.64828 -4.01761,-2.80667 -5.28125,-3.3125 -0.69408,-0.27784 -1.41135,-0.42667 -2.15625,-0.46875 -0.27934,-0.0158 -0.55796,-0.0121 -0.84375,0 z m 0,1 c 0.25623,-0.0129 0.50323,-0.012 0.75,0 0.65804,0.032 1.294,0.17368 1.875,0.40625 1.07204,0.42913 2.89586,1.56489 5.0625,3.1875 2.16664,1.62261 4.68414,3.73709 7.25,6.125 4.72072,4.39333 9.57154,9.7324 12.625,14.71875 -0.2277,-0.0782 -0.4909,-0.15216 -0.75,-0.21875 -1.09247,-0.1837 -2.15075,-0.25723 -3.1875,-0.21875 -4.49257,0.16674 -8.49063,2.27921 -12.21875,5.15625 -2.97617,2.19129 -5.31729,5.0955 -7.875,7.75 -1.23968,1.28659 -2.7952,3.64609 -4.59375,6.3125 -2.43055,3.60339 -3.86725,5.12903 -5.15625,7.3125 -0.1809,0.30643 -0.38062,0.64668 -0.5625,0.96875 1.27034,-2.06081 2.73189,-3.6547 5.09375,-7.15625 1.84681,-2.73796 3.4458,-5.17889 4.71875,-6.5 2.62634,-2.72574 5.00647,-5.68741 8.0625,-7.9375 3.82817,-2.95425 7.94938,-5.14129 12.5625,-5.3125 1.06457,-0.0395 2.15946,0.0301 3.28125,0.21875 0.39355,0.10113 0.74128,0.21372 1.0625,0.34375 0.10979,0.18932 0.23969,0.37442 0.34375,0.5625 0.5084,0.91884 0.43872,1.90654 0.0313,3.125 -0.40389,1.20761 -1.16069,2.61022 -2,4.1875 -0.008,0.0142 -0.0236,0.017 -0.0313,0.0313 -7.47572,12.19601 -19.0182,18.96332 -31.28125,25.46875 -6.73025,3.57034 -23.875,9.90625 -23.875,9.90625 l -0.0937,0.0313 -0.0937,0.0937 -0.46875,0.46875 -4.6875,-11.28125 1.5,-2.8125 c 3.39856,-6.37231 2.73077,-13.18991 2.6875,-19.3125 -0.0276,-3.90465 -0.41644,-7.54528 0.40625,-10.625 1.06413,-3.98356 3.78408,-8.01827 7.1875,-11.75 4.97352,-5.45327 10.61914,-9.2671 16.4375,-11.625 2.12214,-0.85999 4.14388,-1.53453 5.9375,-1.625 z"
             style="font-size:medium;font-style:normal;font-variant:normal;font-weight:normal;font-stretch:normal;text-indent:0;text-align:start;text-decoration:none;line-height:normal;letter-spacing:normal;word-spacing:normal;text-transform:none;direction:ltr;block-progression:tb;writing-mode:lr-tb;text-anchor:start;color:#000000;fill:#630e0f;fill-opacity:1;stroke:none;stroke-width:1px;marker:none;visibility:visible;display:inline;overflow:visible;filter:url(#filter4453);enable-background:accumulate;font-family:Bitstream Vera Sans;-inkscape-font-specification:Bitstream Vera Sans" />
          <path
             id="path4469"
             d="m 745.64645,211.0107 -7.0625,0.34375 -4.96875,4.59375 -3.1875,6.71875 -0.6875,4.59375 3.125,8.4375 c 1.52274,-2.26026 2.88223,-4.27862 3.96875,-5.40625 2.55771,-2.6545 4.89883,-5.55871 7.875,-7.75 1.38631,-1.06984 2.80874,-2.01484 4.28125,-2.8125 l -3.34375,-8.71875 z"
             style="fill:url(#radialGradient3541);fill-opacity:1;stroke-width:1px;filter:url(#filter4479)" />
          <path
             sodipodi:nodetypes="csccsc"
             id="path4492"
             d="m 702.25,260.5 c 9.43605,-6.42568 13.661,-11.50097 16.23665,-15.98111 1.66448,-2.89524 2.64017,-5.54192 3.88835,-8.14389 l 4.875,2.25 c -1.17572,2.68644 -3.08457,5.2105 -5.45774,7.60494 -5.2208,5.2676 -12.6888,9.90794 -19.54226,14.27006 z"
             style="fill:url(#radialGradient3543);fill-opacity:1;stroke-width:1px;filter:url(#filter4599)" />
          <path
             style="fill:url(#radialGradient3545);fill-opacity:1;stroke-width:1px;filter:url(#filter4595)"
             d="m 698.25,260.5 c 0.87877,-0.59842 1.02484,-1.62262 1.8161,-2.19822 7.70508,-5.60511 11.27227,-9.34498 13.60805,-13.40789 1.66448,-2.89524 3.45267,-5.91692 4.70085,-8.51889 l 2.9375,2.125 c -1.17572,2.68644 -3.77207,8.648 -6.14524,11.04244 -4.63913,4.68072 -7.24012,6.74116 -13.42013,10.67622 -0.77486,0.49339 -2.73356,-0.20466 -3.49713,0.28134 z"
             id="path4494"
             sodipodi:nodetypes="cssccssc" />
          <path
             style="fill:url(#radialGradient3547);fill-opacity:1;stroke-width:1px;filter:url(#filter4603)"
             d="m 692.8125,261.8125 c 9.43605,-6.42568 18.161,-16.00097 20.73665,-20.48111 1.66448,-2.89524 2.64017,-5.54192 3.88835,-8.14389 l 4.875,2.25 c -1.17572,2.68644 -3.08457,5.2105 -5.45774,7.60494 -5.2208,5.2676 -17.1888,14.40794 -24.04226,18.77006 z"
             id="path4496"
             sodipodi:nodetypes="csccsc" />
          <path
             sodipodi:nodetypes="cssccssc"
             id="path4498"
             d="m 694.5,256.8125 c 0.87877,-0.59842 1.02484,-1.62262 1.8161,-2.19822 7.70508,-5.60511 9.89727,-9.46998 12.23305,-13.53289 1.66448,-2.89524 3.45267,-5.91692 4.70085,-8.51889 l 2.9375,2.125 c -1.17572,2.68644 -3.77207,8.648 -6.14524,11.04244 -4.63913,4.68072 -5.86512,6.86616 -12.04513,10.80122 -0.77486,0.49339 -2.73356,-0.20466 -3.49713,0.28134 z"
             style="fill:url(#radialGradient3549);fill-opacity:1;stroke-width:1px;filter:url(#filter4556)" />
        </g>
      </g>
      <g
         transform="matrix(0.47834684,0,0,0.47834684,-308.50087,124.07045)"
         id="g4939">
        <path
           style="fill:url(#radialGradient3551);fill-opacity:1;stroke-width:1px"
           d="m 829.875,88.125 c -0.17328,0.0244 -0.33877,0.10159 -0.46875,0.21875 l -6.375,6 -5.375,1.4375 c -0.0104,-1.8e-4 -0.0209,-1.8e-4 -0.0313,0 l -2.875,0.875 c -0.32167,0.0946 -0.57596,0.38706 -0.625,0.71875 l -0.46875,3.6875 -4.34375,5.65625 c -0.25807,0.33243 -0.2299,0.85357 0.0625,1.15625 3.58921,2.57158 6.9509,5.5982 9.875,9.5 0.16508,0.16043 0.39482,0.25233 0.625,0.25 l 2.25,0 c 0.16379,0.003 0.32813,-0.041 0.46875,-0.125 l 3.875,-2.4375 0.0625,-0.0313 0.0625,-0.0313 4.5,-1.8125 c 0.32389,-0.14065 0.5444,-0.49089 0.53125,-0.84375 l -0.0937,-3 4.5625,-2.96875 c 0.33591,-0.20707 0.49944,-0.65678 0.375,-1.03125 -2.74649,-5.19307 -4.54444,-10.76556 -5.625,-16.625 -0.13058,-0.39004 -0.56194,-0.65438 -0.96875,-0.59365 z"
           id="path4838"
           sodipodi:nodetypes="cccccccccccccccccccccccc" />
        <path
           id="path4880"
           d="m 814.65625,96.6875 c -0.27457,0.119994 -0.48728,0.390123 -0.53125,0.6875 l -0.46875,3.6875 -0.0625,0.0937 12.59375,14.09375 0.28125,-0.1875 0.0625,-0.0313 0.0625,-0.0313 4.5,-1.8125 c 0.26285,-0.11414 0.44295,-0.37666 0.5,-0.65625 l -16.9375,-15.8436 z"
           style="fill:#340305;fill-opacity:1;stroke-width:1px;filter:url(#filter4886)" />
        <path
           id="path4903"
           d="m 823.125,94.25 -0.0937,0.09375 -3.5,0.9375 11.78125,17.75 c 0.19804,-0.17438 0.32236,-0.42285 0.3125,-0.6875 l -0.0937,-3 0.0625,-0.0313 L 823.125,94.25 z"
           style="fill:#340305;fill-opacity:1;stroke-width:1px;filter:url(#filter4917)" />
        <path
           style="fill:url(#radialGradient3553);fill-opacity:1;stroke-width:1px"
           d="m 823.125,94.25 -0.0937,0.09375 -3.5,0.9375 11.78125,17.75 c 0.19804,-0.17438 0.32236,-0.42285 0.3125,-0.6875 l -0.0937,-3 0.0625,-0.0313 L 823.125,94.25 z"
           id="path4890" />
        <path
           id="path4921"
           d="m 823.125,94.25 -0.0937,0.09375 -3.5,0.9375 11.78125,17.75 c 0.19804,-0.17438 0.32236,-0.42285 0.3125,-0.6875 l -0.0937,-3 0.0625,-0.0313 L 823.125,94.25 z"
           style="fill:url(#radialGradient3555);fill-opacity:1;stroke-width:1px" />
        <path
           style="fill:url(#radialGradient3557);fill-opacity:1;stroke-width:1px"
           d="m 814.65625,96.6875 c -0.27457,0.119994 -0.48728,0.390123 -0.53125,0.6875 l -0.46875,3.6875 -0.0625,0.0937 12.59375,14.09375 0.28125,-0.1875 0.0625,-0.0313 0.0625,-0.0313 4.5,-1.8125 c 0.26285,-0.11414 0.44295,-0.37666 0.5,-0.65625 l -16.9375,-15.8436 z"
           id="path4845" />
        <path
           style="fill:none;stroke:#690d0d;stroke-width:1px;stroke-opacity:1;filter:url(#filter4931)"
           d="m 830,88.25 c -0.17328,0.0244 -0.33877,0.10159 -0.46875,0.21875 l -6.375,6 -5.375,1.4375 c -0.0104,-1.8e-4 -0.0209,-1.8e-4 -0.0313,0 l -2.875,0.875 c -0.32167,0.0946 -0.57596,0.38706 -0.625,0.71875 l -0.46875,3.6875 -4.34375,5.65625 c -0.25807,0.33243 -0.2299,0.85357 0.0625,1.15625 3.58921,2.57158 6.9509,5.5982 9.875,9.5 0.16508,0.16043 0.39482,0.25233 0.625,0.25 l 2.25,0 c 0.16379,0.003 0.32813,-0.041 0.46875,-0.125 l 3.875,-2.4375 0.0625,-0.0313 0.0625,-0.0313 4.5,-1.8125 c 0.32389,-0.14065 0.5444,-0.49089 0.53125,-0.84375 l -0.0937,-3 4.5625,-2.96875 c 0.33591,-0.20707 0.49944,-0.65678 0.375,-1.03125 -2.74649,-5.19307 -4.54444,-10.76556 -5.625,-16.625 C 830.83817,88.45361 830.40681,88.18927 830,88.25 z"
           id="path4929"
           sodipodi:nodetypes="cccccccccccccccccccccccc" />
      </g>
    </g>
  </g>
</svg>
