<?xml version="1.0" encoding="UTF-8" standalone="no"?>
<!-- Created with Inkscape (http://www.inkscape.org/) -->

<svg
   xmlns:dc="http://purl.org/dc/elements/1.1/"
   xmlns:cc="http://creativecommons.org/ns#"
   xmlns:rdf="http://www.w3.org/1999/02/22-rdf-syntax-ns#"
   xmlns:svg="http://www.w3.org/2000/svg"
   xmlns="http://www.w3.org/2000/svg"
   xmlns:xlink="http://www.w3.org/1999/xlink"
   xmlns:sodipodi="http://sodipodi.sourceforge.net/DTD/sodipodi-0.dtd"
   xmlns:inkscape="http://www.inkscape.org/namespaces/inkscape"
   width="128"
   height="128"
   id="svg6570"
   version="1.1"
   inkscape:version="0.47 r22583"
   sodipodi:docname="view-finantial-forcast.svgz"
   inkscape:export-filename="/home/pinheiro/pics/oxygen-icons/scalable/actions/small/32x32/view-finantial-forcast.png"
   inkscape:export-xdpi="90"
   inkscape:export-ydpi="90">
  <defs
     id="defs6572">
    <inkscape:perspective
       sodipodi:type="inkscape:persp3d"
       inkscape:vp_x="0 : 32 : 1"
       inkscape:vp_y="0 : 1000 : 0"
       inkscape:vp_z="64 : 32 : 1"
       inkscape:persp3d-origin="32 : 21.333333 : 1"
       id="perspective6578" />
    <inkscape:perspective
       id="perspective6501"
       inkscape:persp3d-origin="0.5 : 0.33333333 : 1"
       inkscape:vp_z="1 : 0.5 : 1"
       inkscape:vp_y="0 : 1000 : 0"
       inkscape:vp_x="0 : 0.5 : 1"
       sodipodi:type="inkscape:persp3d" />
    <radialGradient
       inkscape:collect="always"
       xlink:href="#linearGradient6449"
       id="radialGradient6455"
       cx="53.038239"
       cy="100.34634"
       fx="53.038239"
       fy="100.34634"
       r="29.028929"
       gradientTransform="matrix(2.2058654,0.0152859,-0.00591903,1.3316478,-63.363025,-34.090377)"
       gradientUnits="userSpaceOnUse" />
    <linearGradient
       inkscape:collect="always"
       id="linearGradient6449">
      <stop
         style="stop-color:#081519;stop-opacity:1"
         offset="0"
         id="stop6451" />
      <stop
         style="stop-color:#143943;stop-opacity:1"
         offset="1"
         id="stop6453" />
    </linearGradient>
    <filter
       color-interpolation-filters="sRGB"
       inkscape:collect="always"
       id="filter6445"
       x="-0.017446402"
       width="1.0348928"
       y="-0.1937702"
       height="1.3875403">
      <feGaussianBlur
         inkscape:collect="always"
         stdDeviation="0.40229258"
         id="feGaussianBlur6447" />
    </filter>
    <linearGradient
       inkscape:collect="always"
       xlink:href="#linearGradient3861"
       id="linearGradient6390"
       x1="57.941036"
       y1="100.91313"
       x2="57.941036"
       y2="94.566505"
       gradientUnits="userSpaceOnUse"
       gradientTransform="matrix(1.0166811,0,0,1.0166811,11.80292,2.0406959)" />
    <linearGradient
       id="linearGradient3861">
      <stop
         style="stop-color:#0089ab;stop-opacity:1;"
         offset="0"
         id="stop3863" />
      <stop
         style="stop-color:#cbf5ff;stop-opacity:1;"
         offset="1"
         id="stop3867" />
    </linearGradient>
    <filter
       color-interpolation-filters="sRGB"
       inkscape:collect="always"
       id="filter6431"
       x="-0.062807053"
       width="1.125614"
       y="-0.69757277"
       height="2.3951454">
      <feGaussianBlur
         inkscape:collect="always"
         stdDeviation="1.4482533"
         id="feGaussianBlur6433" />
    </filter>
    <radialGradient
       inkscape:collect="always"
       xlink:href="#linearGradient3861"
       id="radialGradient6244"
       cx="36.503647"
       cy="79.330017"
       fx="36.503647"
       fy="79.330017"
       r="23.999399"
       gradientTransform="matrix(1.3714205,0.29813495,-0.77969592,3.5866007,44.786405,-195.95704)"
       gradientUnits="userSpaceOnUse" />
    <linearGradient
       id="linearGradient6518">
      <stop
         style="stop-color:#0089ab;stop-opacity:1;"
         offset="0"
         id="stop6520" />
      <stop
         style="stop-color:#cbf5ff;stop-opacity:1;"
         offset="1"
         id="stop6522" />
    </linearGradient>
    <clipPath
       clipPathUnits="userSpaceOnUse"
       id="clipPath6279">
      <path
         sodipodi:nodetypes="csscccsscc"
         id="path6281"
         d="m 52.823393,-68.754626 c -0.647573,3.561529 -1.109808,8.669569 -1.942719,10.684586 -0.63775,1.542874 -1.519194,5.193562 -2.45201,7.58927 -4.40078,11.302316 -8.47513,31.603343 -17.164073,42.6774021 l 22.068094,0 22.068093,0 C 68.016029,-18.694419 62.92133,-41.14211 62.541456,-43.90589 c -0.5453,-3.967333 -2.576687,-10.957353 -3.002241,-12.937685 -0.829354,-3.85943 -3.482432,-8.254813 -5.223647,-12.38222 -0.438156,-0.316839 -0.902342,-0.42542 -1.492175,0.471169 z"
         style="fill:url(#radialGradient6283);fill-opacity:1;stroke:none" />
    </clipPath>
    <filter
       color-interpolation-filters="sRGB"
       inkscape:collect="always"
       id="filter6271">
      <feGaussianBlur
         inkscape:collect="always"
         stdDeviation="1.2565264"
         id="feGaussianBlur6273" />
    </filter>
    <linearGradient
       inkscape:collect="always"
       xlink:href="#linearGradient3861"
       id="linearGradient6252"
       x1="53.332001"
       y1="100.24344"
       x2="53.332001"
       y2="92.111717"
       gradientUnits="userSpaceOnUse"
       gradientTransform="matrix(1.2268905,0,0,1.2268905,-2.3360824,-12.871344)" />
    <linearGradient
       id="linearGradient6529">
      <stop
         style="stop-color:#0089ab;stop-opacity:1;"
         offset="0"
         id="stop6531" />
      <stop
         style="stop-color:#cbf5ff;stop-opacity:1;"
         offset="1"
         id="stop6533" />
    </linearGradient>
    <linearGradient
       inkscape:collect="always"
       xlink:href="#linearGradient6287"
       id="linearGradient6293"
       x1="58.868549"
       y1="101.5758"
       x2="58.868549"
       y2="98.177971"
       gradientUnits="userSpaceOnUse"
       gradientTransform="matrix(1.2268905,0,0,1.2268905,-2.3360824,-12.871344)" />
    <linearGradient
       inkscape:collect="always"
       id="linearGradient6287">
      <stop
         style="stop-color:#2e869c;stop-opacity:1;"
         offset="0"
         id="stop6289" />
      <stop
         style="stop-color:#2e869c;stop-opacity:0;"
         offset="1"
         id="stop6291" />
    </linearGradient>
    <linearGradient
       inkscape:collect="always"
       xlink:href="#linearGradient6323"
       id="linearGradient6329"
       x1="56.954021"
       y1="67.3125"
       x2="48.770996"
       y2="43.5625"
       gradientUnits="userSpaceOnUse" />
    <linearGradient
       inkscape:collect="always"
       id="linearGradient6323">
      <stop
         style="stop-color:#cbf5ff;stop-opacity:1;"
         offset="0"
         id="stop6325" />
      <stop
         style="stop-color:#cbf5ff;stop-opacity:0;"
         offset="1"
         id="stop6327" />
    </linearGradient>
    <filter
       color-interpolation-filters="sRGB"
       inkscape:collect="always"
       id="filter6369"
       x="-0.16820407"
       width="1.3364081"
       y="-0.053825226"
       height="1.1076504">
      <feGaussianBlur
         inkscape:collect="always"
         stdDeviation="0.86905309"
         id="feGaussianBlur6371" />
    </filter>
    <linearGradient
       inkscape:collect="always"
       xlink:href="#linearGradient6333"
       id="linearGradient6395"
       gradientUnits="userSpaceOnUse"
       gradientTransform="matrix(1.040033,0,0,1.040033,-0.67313969,-3.3354677)"
       x1="28.375"
       y1="48.875"
       x2="51.625"
       y2="61.375" />
    <linearGradient
       inkscape:collect="always"
       id="linearGradient6333">
      <stop
         style="stop-color:#bbedf9;stop-opacity:1;"
         offset="0"
         id="stop6335" />
      <stop
         style="stop-color:#bbedf9;stop-opacity:0;"
         offset="1"
         id="stop6337" />
    </linearGradient>
    <filter
       color-interpolation-filters="sRGB"
       inkscape:collect="always"
       id="filter6341">
      <feGaussianBlur
         inkscape:collect="always"
         stdDeviation="0.6726335"
         id="feGaussianBlur6343" />
    </filter>
    <clipPath
       clipPathUnits="userSpaceOnUse"
       id="clipPath6419">
      <path
         sodipodi:nodetypes="csccccccs"
         id="path6421"
         d="m 27.098973,94.72027 c 4.194174,5.10929 67.89306,5.87897 72.100457,0 0.93659,-1.3087 3.19087,1.42313 3.19087,3.19085 l 0,2e-5 c 0,1.76773 -1.42313,3.19086 -3.19087,3.19086 -24.196678,4.10446 -48.242578,3.67433 -72.100457,0 -1.76774,0 -3.190866,-1.42313 -3.190866,-3.19086 l 0,-2e-5 c 0,-1.76772 2.165981,-4.43936 3.190866,-3.19085 z"
         style="fill:#a7e2f0;fill-opacity:1;stroke:none" />
    </clipPath>
    <filter
       color-interpolation-filters="sRGB"
       inkscape:collect="always"
       id="filter6415"
       x="-0.022893753"
       width="1.0457875"
       y="-0.18630368"
       height="1.3726074">
      <feGaussianBlur
         inkscape:collect="always"
         stdDeviation="0.74864664"
         id="feGaussianBlur6417" />
    </filter>
  </defs>
  <sodipodi:namedview
     id="base"
     pagecolor="#ffffff"
     bordercolor="#666666"
     borderopacity="1.0"
     inkscape:pageopacity="0.0"
     inkscape:pageshadow="2"
     inkscape:zoom="1.4663086"
     inkscape:cx="-84.495246"
     inkscape:cy="56.448451"
     inkscape:current-layer="layer1"
     showgrid="true"
     inkscape:document-units="px"
     inkscape:grid-bbox="true"
     inkscape:window-width="1047"
     inkscape:window-height="771"
     inkscape:window-x="385"
     inkscape:window-y="141"
     inkscape:window-maximized="0">
    <inkscape:grid
       type="xygrid"
       id="grid9545"
       empspacing="5"
       visible="true"
       enabled="true"
       snapvisiblegridlinesonly="true"
       spacingx="4px"
       spacingy="4px" />
  </sodipodi:namedview>
  <metadata
     id="metadata6575">
    <rdf:RDF>
      <cc:Work
         rdf:about="">
        <dc:format>image/svg+xml</dc:format>
        <dc:type
           rdf:resource="http://purl.org/dc/dcmitype/StillImage" />
        <dc:title></dc:title>
      </cc:Work>
    </rdf:RDF>
  </metadata>
  <g
     id="layer1"
     inkscape:label="Layer 1"
     inkscape:groupmode="layer"
     transform="translate(0,64)">
    <g
       transform="matrix(1.2098819,0,0,1.2098819,-11.702009,-74.985545)"
       id="g6478">
      <path
         transform="matrix(1.4069426,0,0,1.126811,-11.400255,-4.3153823)"
         style="fill:url(#radialGradient6455);fill-opacity:1;stroke:none;filter:url(#filter6445)"
         d="m 27.968492,97.854984 50.139495,0 c 1.440829,0 2.600775,0.5575 2.600775,1.25 0,0.6925 -1.159946,1.249996 -2.600775,1.249996 -15.347991,2.86706 -33.831472,3.7258 -50.139495,0 -1.440829,0 -2.600775,-0.557496 -2.600775,-1.249996 0,-0.6925 1.159946,-1.25 2.600775,-1.25 z"
         id="path6435"
         sodipodi:nodetypes="ccsccsc" />
      <path
         sodipodi:nodetypes="ccccc"
         id="path6374"
         d="m 26.118609,101.46973 c 15.59754,-2.02811 62.471744,-1.97305 73.913161,-0.0723 l 0.73075,3.20096 -67.228042,2.54171 -7.415869,-5.67038 z"
         style="fill:url(#linearGradient6390);fill-opacity:1;stroke:none" />
      <path
         sodipodi:nodetypes="ccsccsc"
         id="rect6295"
         d="m 27.968492,97.854984 50.139495,0 c 1.440829,0 2.600775,0.5575 2.600775,1.25 0,0.6925 -1.159946,1.249996 -2.600775,1.249996 -15.347991,2.86706 -33.831472,3.7258 -50.139495,0 -1.440829,0 -2.600775,-0.557496 -2.600775,-1.249996 0,-0.6925 1.159946,-1.25 2.600775,-1.25 z"
         style="opacity:0.44059406;fill:#1a4956;fill-opacity:1;stroke:none;filter:url(#filter6431)"
         transform="matrix(1.4069426,0,0,1.126811,-11.400255,-3.3153823)" />
      <path
         sodipodi:nodetypes="csscccsscc"
         id="path5454"
         d="M 62.157218,13.907484 C 61.168842,19.343363 60.463346,27.139644 59.192092,30.21512 58.21871,32.569972 56.873381,38.141932 55.449645,41.798444 48.732838,59.048906 42.514252,90.03389 29.252522,106.93596 l 33.682017,0 33.682016,0 C 85.345385,90.313211 77.569465,56.051824 76.989671,51.833531 76.157393,45.778283 73.056935,35.109578 72.407422,32.087044 71.141597,26.196486 67.092267,19.487914 64.434691,13.18835 63.765945,12.704766 63.057467,12.539042 62.157218,13.907484 z"
         style="fill:url(#radialGradient6244);fill-opacity:1;stroke:none" />
      <path
         clip-path="url(#clipPath6279)"
         sodipodi:nodetypes="csssssccccssssscsssssscccsssssscsc"
         id="path6275"
         d="m 54.110621,-76.40625 c -0.844817,0.156576 -1.436156,0.739175 -1.875,1.40625 -0.109397,0.170435 -0.184258,0.362935 -0.21875,0.5625 -0.363365,1.99844 -0.674031,4.378021 -1,6.5 -0.325969,2.121979 -0.712944,4.042439 -1.03125,4.8125 -0.829861,2.007637 -1.714902,5.86363 -2.65625,8.28125 -4.894362,12.569958 -9.402938,34.516698 -18.4375,46.03125 -0.708574,0.8890175 0.05065,2.4674052 1.1875,2.46875 l 5.4375,0 c 0.573338,-7.16e-4 1.131527,-0.3559269 1.375,-0.875 5.526647,-11.331629 8.025409,-24.582879 11.337694,-34.138298 1.259108,-3.632332 3.769124,0.240888 5.254548,3.797037 0.208349,0.498791 -2.952451,-8.207951 -2.763487,-8.771673 0.858839,-2.562106 1.620729,-5.500785 2.077495,-6.605816 0.587498,-1.421302 -0.329995,-3.491574 0.004,-5.66595 0.234681,-1.527718 0.35889,-8.371172 0.587466,-9.847396 3.041666,5.330472 5.021099,11.824382 5.709266,15.026793 0.257973,1.200488 0.412535,5.140835 1.088624,7.830303 0.676089,2.689468 1.377801,5.661641 1.65625,7.6875 0.201751,1.467841 1.145788,5.820586 2.75,11.59375 0.845426,3.042478 1.221062,6.716192 3.036211,9.860123 11.217453,19.4291972 -26.963049,6.354709 -26.28971,8.0864757 0.518595,1.333776 29.253066,-0.2039328 29.815999,1.0846513 0.229113,0.5516395 0.808924,0.9381797 1.40625,0.9375 l 4.78125,0 c 1.095858,-0.00599 1.865497,-1.4683005 1.25,-2.375 -3.834711,-5.655444 -7.232723,-14.643182 -9.65625,-22.53125 -1.211764,-3.944034 -2.177083,-7.631561 -2.875,-10.5 -0.697917,-2.868439 -1.140286,-5.022887 -1.21875,-5.59375 -0.314573,-2.288678 -1.002544,-5.275262 -1.6875,-8 -0.684956,-2.724738 -1.357676,-5.203096 -1.5625,-6.15625 -0.99236,-4.617981 -3.217181,-9.415815 -5.045629,-13.75 -0.107234,-0.247765 -0.281816,-0.465993 -0.5,-0.625 -0.353129,-0.255354 -1.046233,-0.696435 -1.9375,-0.53125 z"
         style="fill:#2e869c;fill-opacity:1;stroke:none;filter:url(#filter6271)"
         transform="matrix(1.5262767,0,0,1.5262767,-18.465895,118.37816)" />
      <path
         sodipodi:nodetypes="csccccccs"
         id="rect5456"
         d="m 27.098973,101.72027 c 4.194174,5.10929 67.89306,5.87897 72.100457,0 0.93659,-1.3087 3.19087,1.42313 3.19087,3.19085 l 0,2e-5 c 0,1.76773 -1.42313,3.19086 -3.19087,3.19086 -24.196678,4.10446 -48.242578,3.67433 -72.100457,0 -1.76774,0 -3.190866,-1.42313 -3.190866,-3.19086 l 0,-2e-5 c 0,-1.76772 2.165981,-4.43936 3.190866,-3.19085 z"
         style="fill:url(#linearGradient6252);fill-opacity:1;stroke:none" />
      <path
         sodipodi:nodetypes="ccccccccc"
         id="rect6285"
         d="m 27.098973,101.72027 c 2.625935,3.86272 64.33264,7.62542 72.100457,0 1.76774,0 3.19087,1.42313 3.19087,3.19085 l 0,2e-5 c 0,1.76773 -1.42313,3.19086 -3.19087,3.19086 -24.033484,3.95917 -48.066971,3.83289 -72.100457,0 -1.76774,0 -3.190866,-1.42313 -3.190866,-3.19086 l 0,-2e-5 c 0,-1.76772 1.423126,-3.19085 3.190866,-3.19085 z"
         style="fill:url(#linearGradient6293);fill-opacity:1;stroke:none" />
      <path
         sodipodi:nodetypes="cccccc"
         id="path6313"
         d="m 77.725405,86.211241 -5.819194,14.034529 c 4.106232,-2.84286 8.737663,-5.05548 11.296082,-9.755711 -4.839757,1.435464 -8.978098,-0.636143 -13.178762,-2.396139 3.404229,3.727711 6.878998,7.5965 10.61147,11.98069 L 77.725405,86.211241 z"
         style="fill:#ffffff;fill-opacity:1;stroke:none" />
      <path
         transform="matrix(1.1629916,0,0,1.1629916,4.2593598,-11.901547)"
         sodipodi:nodetypes="ccccccc"
         id="path6317"
         d="m 58.875,76.625 c -4.463118,-4.869747 -9.474065,-16.066376 -12,-26 C 46.330401,47.799286 46.5,42 46.5,42 l 0.625,-3.625 1,2.5 10.75,36.25 0,-0.5 z"
         style="fill:url(#linearGradient6329);fill-opacity:1;stroke:none;filter:url(#filter6369)" />
      <path
         transform="matrix(1.1182257,0,0,1.1182257,5.0120819,-8.1717414)"
         id="path6331"
         d="m 52.5,24.09375 -2.46875,11.96875 -1.5,9.25 0.4375,2.40625 c 0.480331,-0.820305 1.1875,-2.03125 1.1875,-2.03125 l 1.5625,-9.625 0.09375,-0.53125 C 52.086844,30.900874 52.5,24.09375 52.5,24.09375 z M 43.8125,54.4375 c -1.005295,2.82222 -5.09375,13.34375 -5.09375,13.34375 l -2.875,14.15625 -6.625,14.96875 c 0,0 3.355466,-5.208416 5.4375,-8.4375 L 37.5625,81.9375 40.40625,67.78125 c 0,0 2.928438,-7.497609 4.5,-11.6875 -0.361964,-0.549576 -0.63569,-0.960885 -1.09375,-1.65625 z"
         style="fill:url(#linearGradient6395);fill-opacity:1;stroke:none;filter:url(#filter6341)" />
      <path
         style="fill:#ffffff;fill-opacity:1;stroke:none"
         d="m 53.92283,71.329815 -1.651498,13.679833 c -1.895021,-4.140791 -4.463212,-8.035289 -4.37434,-12.901941 3.063712,3.385235 7.113393,3.704243 11.075466,4.295689 -4.208435,1.317438 -8.531741,2.712011 -13.27472,4.388394 l 8.225092,-9.461975 z"
         id="path6350"
         sodipodi:nodetypes="cccccc" />
      <path
         id="path6352"
         d="m 68.55782,40.115944 c -1.199076,-0.692286 -2.503042,-1.028547 -3.797032,-1.098135 3.077022,2.279556 4.037605,6.555972 2.077005,9.95183 -1.960597,3.395858 -6.132532,4.681661 -9.645196,3.15666 0.707421,1.087003 1.649437,2.046385 2.849531,2.739259 4.069706,2.349645 9.266825,0.957084 11.616473,-3.112626 2.349649,-4.069711 0.968925,-9.287341 -3.100781,-11.636988 z"
         style="fill:#ffffff;fill-opacity:1;stroke:none" />
      <path
         transform="translate(0,7.081475)"
         clip-path="url(#clipPath6419)"
         sodipodi:nodetypes="csccccccs"
         id="path6405"
         d="m 27.098973,90.72027 c 4.194174,5.10929 67.89306,5.87897 72.100457,0 0.93659,-1.3087 3.19087,1.42313 3.19087,3.19085 l 0,2e-5 c 0,1.76773 -1.42313,3.19086 -3.19087,3.19086 -24.47259,6.58767 -48.434861,5.40488 -72.100457,0 -1.76774,0 -3.190866,-1.42313 -3.190866,-3.19086 l 0,-2e-5 c 0,-1.76772 2.165981,-4.43936 3.190866,-3.19085 z"
         style="fill:#bee9f4;fill-opacity:1;stroke:none;filter:url(#filter6415)" />
    </g>
  </g>
</svg>
