<?xml version="1.0" encoding="UTF-8" standalone="no"?>
<!-- Generator: Adobe Illustrator 12.0.0, SVG Export Plug-In . SVG Version: 6.00 Build 51448)  -->

<svg
   xmlns:ns="http://ns.adobe.com/SaveForWeb/1.0/"
   xmlns:dc="http://purl.org/dc/elements/1.1/"
   xmlns:cc="http://creativecommons.org/ns#"
   xmlns:rdf="http://www.w3.org/1999/02/22-rdf-syntax-ns#"
   xmlns:svg="http://www.w3.org/2000/svg"
   xmlns="http://www.w3.org/2000/svg"
   xmlns:xlink="http://www.w3.org/1999/xlink"
   xmlns:sodipodi="http://sodipodi.sourceforge.net/DTD/sodipodi-0.dtd"
   xmlns:inkscape="http://www.inkscape.org/namespaces/inkscape"
   version="1.1"
   id="Layer_1"
   width="128"
   height="128"
   viewBox="0 0 128 128"
   overflow="visible"
   enable-background="new 0 0 128 128"
   xml:space="preserve"
   sodipodi:version="0.32"
   inkscape:version="0.47pre3 r22311"
   sodipodi:docname="view-multiple-objects.svgz"
   inkscape:output_extension="org.inkscape.output.svgz.inkscape"
   inkscape:export-filename="/home/pinheiro/pics/oxygen-icons/scalable/actions/small/32x32/view-multiple-objects.png"
   inkscape:export-xdpi="90"
   inkscape:export-ydpi="90"><defs
   id="defs105"><radialGradient
     gradientUnits="userSpaceOnUse"
     r="139.55859"
     cy="112.3047"
     cx="102"
     id="radialGradient4141">
	<stop
   id="stop4143"
   style="stop-color:#535557"
   offset="0" />
	
	<stop
   id="stop4145"
   style="stop-color:#d3d3d4;stop-opacity:1"
   offset="0.11366145" />
	
	
	<stop
   id="stop4147"
   style="stop-color:#ECECEC"
   offset="0.20296688" />
	<stop
   id="stop4149"
   style="stop-color:#FAFAFA"
   offset="0.2363" />
	<stop
   id="stop4151"
   style="stop-color:#FFFFFF"
   offset="0.2722" />
	<stop
   id="stop4153"
   style="stop-color:#FAFAFA"
   offset="0.5313" />
	<stop
   id="stop4155"
   style="stop-color:#EBECEC"
   offset="0.8449" />
	<stop
   id="stop4157"
   style="stop-color:#E1E2E3"
   offset="1" />
</radialGradient><filter
     inkscape:collect="always"
     id="filter3241"><feGaussianBlur
       inkscape:collect="always"
       stdDeviation="1.0394514"
       id="feGaussianBlur3243" /></filter><filter
     inkscape:collect="always"
     id="filter3772"><feGaussianBlur
       inkscape:collect="always"
       stdDeviation="0.50063244"
       id="feGaussianBlur3774" /></filter><radialGradient
     inkscape:collect="always"
     xlink:href="#XMLID_7_"
     id="radialGradient3738"
     gradientUnits="userSpaceOnUse"
     gradientTransform="translate(2.4e-6,-61.3318)"
     cx="133.33"
     cy="134.44235"
     fx="133.33"
     fy="134.44235"
     r="139.5585" /><radialGradient
     inkscape:collect="always"
     xlink:href="#radialGradient4141"
     id="radialGradient3740"
     gradientUnits="userSpaceOnUse"
     gradientTransform="matrix(0.9787234,0,0,0.9818182,1.3617045,-60.168164)"
     cx="129.38803"
     cy="136.27953"
     fx="129.38803"
     fy="136.27953"
     r="139.55859" /><radialGradient
     inkscape:collect="always"
     xlink:href="#XMLID_7_"
     id="radialGradient3752"
     gradientUnits="userSpaceOnUse"
     gradientTransform="translate(50.665403,-61.3318)"
     cx="133.33"
     cy="134.44235"
     fx="133.33"
     fy="134.44235"
     r="139.5585" /><radialGradient
     inkscape:collect="always"
     xlink:href="#radialGradient4141"
     id="radialGradient3754"
     gradientUnits="userSpaceOnUse"
     gradientTransform="matrix(0.9787234,0,0,0.9818182,52.027105,-60.168164)"
     cx="129.38803"
     cy="136.27953"
     fx="129.38803"
     fy="136.27953"
     r="139.55859" /><radialGradient
     inkscape:collect="always"
     xlink:href="#XMLID_7_"
     id="radialGradient3837"
     gradientUnits="userSpaceOnUse"
     gradientTransform="translate(50.665403,-9.3317989)"
     cx="133.33"
     cy="134.44235"
     fx="133.33"
     fy="134.44235"
     r="139.5585" /><radialGradient
     inkscape:collect="always"
     xlink:href="#radialGradient4141"
     id="radialGradient3839"
     gradientUnits="userSpaceOnUse"
     gradientTransform="matrix(0.9787234,0,0,0.9818182,52.027105,-8.1681629)"
     cx="77.624481"
     cy="138.68979"
     fx="77.624481"
     fy="138.68979"
     r="139.55859" /></defs><sodipodi:namedview
   inkscape:window-height="1132"
   inkscape:window-width="1206"
   inkscape:pageshadow="2"
   inkscape:pageopacity="0.0"
   guidetolerance="10.0"
   gridtolerance="10.0"
   objecttolerance="10.0"
   borderopacity="1.0"
   bordercolor="#666666"
   pagecolor="#ffffff"
   id="base"
   inkscape:zoom="1.2761067"
   inkscape:cx="335.12834"
   inkscape:cy="16.92151"
   inkscape:window-x="705"
   inkscape:window-y="0"
   inkscape:current-layer="Layer_1"
   showgrid="true"
   showguides="true"
   inkscape:guide-bbox="true"
   inkscape:window-maximized="0"
   inkscape:snap-bbox="true"><inkscape:grid
     id="GridFromPre046Settings"
     type="xygrid"
     originx="0px"
     originy="0px"
     spacingx="4px"
     spacingy="4px"
     color="#0000ff"
     empcolor="#0000ff"
     opacity="0.2"
     empopacity="0.4"
     empspacing="4"
     enabled="true"
     visible="true"
     snapvisiblegridlinesonly="true" /></sodipodi:namedview>
<metadata
   id="metadata3">
	<ns:sfw>
		<ns:slices>
			<ns:slice
   y="0"
   x="0"
   height="128"
   width="128"
   sliceID="1316743234" />
		</ns:slices>
		<ns:sliceSourceBounds
   y="0"
   x="0"
   height="128"
   width="128"
   bottomLeftOrigin="true" />
		<ns:optimizationSettings>
			<ns:targetSettings
   targetSettingsID="0"
   fileFormat="PNG24Format">
				<ns:PNG24Format
   transparency="true"
   filtered="false"
   matteColor="#FFFFFF"
   noMatteColor="false"
   interlaced="false">
					</ns:PNG24Format>
			</ns:targetSettings>
			<ns:targetSettings
   targetSettingsID="1696735251"
   fileFormat="PNG24Format">
				<ns:PNG24Format
   transparency="true"
   filtered="false"
   matteColor="#FFFFFF"
   noMatteColor="false"
   interlaced="false">
					</ns:PNG24Format>
			</ns:targetSettings>
		</ns:optimizationSettings>
	</ns:sfw>
<rdf:RDF><cc:Work
     rdf:about=""><dc:format>image/svg+xml</dc:format><dc:type
       rdf:resource="http://purl.org/dc/dcmitype/StillImage" /><dc:title></dc:title></cc:Work></rdf:RDF></metadata>

<radialGradient
   id="XMLID_7_"
   cx="102"
   cy="112.3047"
   r="139.5585"
   gradientUnits="userSpaceOnUse">
	<stop
   offset="0"
   style="stop-color:#dcdcdc;stop-opacity:1;"
   id="stop16" />
	<stop
   offset="0.0151"
   style="stop-color:#b5def2;stop-opacity:1;"
   id="stop18" />
	<stop
   offset="0.0558"
   style="stop-color:#558CA8"
   id="stop20" />
	<stop
   offset="0.0964"
   style="stop-color:#89AFC3"
   id="stop22" />
	<stop
   offset="0.1357"
   style="stop-color:#B3CCD8"
   id="stop24" />
	<stop
   offset="0.1737"
   style="stop-color:#D4E2E9"
   id="stop26" />
	<stop
   offset="0.2099"
   style="stop-color:#ECF2F5"
   id="stop28" />
	<stop
   offset="0.2435"
   style="stop-color:#FAFCFD"
   id="stop30" />
	<stop
   offset="0.2722"
   style="stop-color:#FFFFFF"
   id="stop32" />
</radialGradient>

<radialGradient
   id="XMLID_8_"
   cx="102"
   cy="112.3047"
   r="139.55859"
   gradientUnits="userSpaceOnUse">
	<stop
   offset="0"
   style="stop-color:#535557"
   id="stop37" />
	
	<stop
   offset="0.11366145"
   style="stop-color:#898A8C"
   id="stop41" />
	
	
	<stop
   offset="0.20296688"
   style="stop-color:#ECECEC"
   id="stop47" />
	<stop
   offset="0.2363"
   style="stop-color:#FAFAFA"
   id="stop49" />
	<stop
   offset="0.2722"
   style="stop-color:#FFFFFF"
   id="stop51" />
	<stop
   offset="0.5313"
   style="stop-color:#FAFAFA"
   id="stop53" />
	<stop
   offset="0.8449"
   style="stop-color:#EBECEC"
   id="stop55" />
	<stop
   offset="1"
   style="stop-color:#E1E2E3"
   id="stop57" />
</radialGradient>

<linearGradient
   id="XMLID_9_"
   gradientUnits="userSpaceOnUse"
   x1="94.3438"
   y1="102.3447"
   x2="86.5356"
   y2="94.5366">
	<stop
   offset="0"
   style="stop-color:#FFFFFF"
   id="stop62" />
	<stop
   offset="1"
   style="stop-color:#555753"
   id="stop64" />
</linearGradient>

<linearGradient
   id="XMLID_10_"
   gradientUnits="userSpaceOnUse"
   x1="95"
   y1="103"
   x2="86.5865"
   y2="94.5865">
	<stop
   offset="0"
   style="stop-color:#FFFFFF"
   id="stop69" />
	<stop
   offset="1"
   style="stop-color:#555753"
   id="stop71" />
</linearGradient>

<linearGradient
   id="XMLID_11_"
   gradientUnits="userSpaceOnUse"
   x1="95"
   y1="103"
   x2="87.293"
   y2="95.293">
	<stop
   offset="0"
   style="stop-color:#FFFFFF"
   id="stop76" />
	<stop
   offset="1"
   style="stop-color:#393B38"
   id="stop78" />
</linearGradient>

<linearGradient
   id="XMLID_12_"
   gradientUnits="userSpaceOnUse"
   x1="96"
   y1="104"
   x2="88.0002"
   y2="96.0002">
	<stop
   offset="0"
   style="stop-color:#888A85"
   id="stop83" />
	<stop
   offset="0.0072"
   style="stop-color:#8C8E89"
   id="stop85" />
	<stop
   offset="0.0673"
   style="stop-color:#ABACA9"
   id="stop87" />
	<stop
   offset="0.1347"
   style="stop-color:#C5C6C4"
   id="stop89" />
	<stop
   offset="0.2115"
   style="stop-color:#DBDBDA"
   id="stop91" />
	<stop
   offset="0.3012"
   style="stop-color:#EBEBEB"
   id="stop93" />
	<stop
   offset="0.4122"
   style="stop-color:#F7F7F6"
   id="stop95" />
	<stop
   offset="0.5679"
   style="stop-color:#FDFDFD"
   id="stop97" />
	<stop
   offset="1"
   style="stop-color:#FFFFFF"
   id="stop99" />
</linearGradient>


<g
   id="g10977"
   transform="matrix(0,-0.7741915,0.7742719,0,455.24531,225.18552)" /><g
   id="layer4"
   inkscape:label="box"
   style="display:inline"
   transform="matrix(0,-0.9362441,0.9373724,0,560.28031,-17.31754)" /><g
   id="layer5"
   inkscape:label="zip_app"
   style="display:inline"
   transform="matrix(0,-0.9362441,0.9373724,0,560.28031,-17.31754)" /><rect
   style="opacity:0.57786889;fill:#ffffff;fill-opacity:1;fill-rule:nonzero;stroke:none"
   id="rect1327"
   width="0.93624407"
   height="0"
   x="-63.63892"
   y="502.60129"
   transform="matrix(0,-1,1,0,0,0)" /><rect
   style="opacity:0.57786889;fill:#ffffff;fill-opacity:1;fill-rule:nonzero;stroke:none"
   id="rect2482"
   width="0.93624407"
   height="0"
   x="-96.526184"
   y="476.79767"
   transform="matrix(0,-1,1,0,0,0)" /><g
   style="opacity:0.40163933"
   transform="matrix(0,0.7330744,0.610116,0,1051.6897,2420.0931)"
   id="g4640" /><g
   id="g4646"
   transform="matrix(0,0.7330744,0.610116,0,1051.6897,2420.0931)"
   style="opacity:0.40163933" /><g
   id="g4730"
   transform="matrix(0,-0.9362441,0.610116,0,1058.5585,-576.78968)"
   style="opacity:0.40163933" /><g
   style="opacity:0.40163933"
   transform="matrix(0,-0.9362441,0.610116,0,1058.5585,-576.78968)"
   id="g4748" /><g
   inkscape:label="fill text"
   id="g3232"
   transform="translate(325.10036,-193.98005)" /><g
   inkscape:label="fill text"
   id="g4591"
   transform="translate(325.10036,-193.98005)" /><g
   id="g5368"
   inkscape:label="fill text"
   transform="translate(110.17447,-93.669568)" /><path
   id="path3728"
   d="m 23.96,80.127633 -1.87918,42.803397 35.853182,-0.007 c 0.375,-0.375 0.586,-0.884 0.586,-1.414 l -1.92,-41.382397 -32.640002,0 z"
   style="opacity:0.20772944;fill:#000000;fill-opacity:1;filter:url(#filter3241)"
   transform="matrix(1.0416667,0,0,1.0357143,-9.9583333,-64.653334)"
   sodipodi:nodetypes="cccccc" /><path
   id="path3730"
   d="m 24.919615,81.734252 0,38.620688 30.133231,1.9e-4 c 0.375,-0.375 0.586,-0.884 0.586,-1.414 l 0,-37.206878 -30.719231,0 z"
   style="opacity:0.89589042;fill:#000000;fill-opacity:1;filter:url(#filter3772)"
   transform="matrix(1.0416667,0,0,1.0357143,-9.9583333,-64.653334)"
   sodipodi:nodetypes="cccccc" /><path
   sodipodi:nodetypes="ccccccc"
   transform="matrix(1.0416667,0,0,1.0357143,-9.9583333,-64.653334)"
   style="opacity:0.17874397;fill:#000000;fill-opacity:1;filter:url(#filter3241)"
   d="m 23.96,80.513839 -1.879184,42.417191 35.853186,-0.007 c 0.375,-0.375 0.586,-0.884 0.586,-1.414 l -0.96,-40.996091 -33.600002,0 0,-10e-5 z"
   id="path3732" /><path
   sodipodi:nodetypes="ccccc"
   id="path3734"
   d="m 16.000002,20 0,40.014 L 47.9988,60 l 0,-40 -31.998798,0 z"
   style="fill:url(#radialGradient3738)" /><path
   sodipodi:nodetypes="cccccccc"
   id="path3736"
   d="M 21.078723,24.0026 C 20.539447,24.0026 20.1,24.443436 20.1,24.984418 L 20,55.08638 c 0,0.54197 0.439447,0.98182 0.978723,0.98182 L 44,56.0018 43.9694,24.984418 c 0,-0.540982 -0.43847,-0.981818 -0.97872,-0.981818 l -21.911957,0 z"
   style="fill:url(#radialGradient3740);fill-opacity:1" /><path
   sodipodi:nodetypes="cccccc"
   transform="matrix(1.0416667,0,0,1.0357143,40.707067,-64.653334)"
   style="opacity:0.20772944;fill:#000000;fill-opacity:1;filter:url(#filter3241)"
   d="m 18.2,80.127633 -1.87918,42.803397 53.421182,-0.007 c 0.375,-0.375 0.586,-0.884 0.586,-1.414 l -0.96,-41.382397 -51.168002,0 z"
   id="path3742" /><path
   sodipodi:nodetypes="cccccc"
   transform="matrix(1.0416667,0,0,1.0357143,40.707067,-64.653334)"
   style="opacity:0.89589042;fill:#000000;fill-opacity:1;filter:url(#filter3772)"
   d="m 18.521215,81.734252 0,38.620498 49.33131,1.9e-4 c 0.375,-0.375 0.586,-0.884 0.586,-1.414 l 0,-37.206688 -49.91731,0 z"
   id="path3744" /><path
   id="path3746"
   d="m 17.24,80.513838 -0.919184,42.417192 53.419645,-0.007 c 0.375,-0.375 0.586,-0.884 0.586,-1.414 l -1.92,-40.996092 -51.166461,0 0,-10e-5 z"
   style="opacity:0.17874397;fill:#000000;fill-opacity:1;filter:url(#filter3241)"
   transform="matrix(1.0416667,0,0,1.0357143,40.707067,-64.653334)"
   sodipodi:nodetypes="ccccccc" /><path
   style="fill:url(#radialGradient3752)"
   d="m 60,20 0,40.014 51.9972,-0.014 0,-40 L 60,20 z"
   id="path3748"
   sodipodi:nodetypes="ccccc" /><path
   style="fill:url(#radialGradient3754);fill-opacity:1"
   d="m 65.077123,24.0026 c -0.539276,0 -0.978723,0.440836 -0.978723,0.981818 l -0.1,30.101962 c 0,0.54197 0.439447,0.98182 0.978723,0.98182 L 108,56.0018 107.9694,24.984418 c 0,-0.540982 -0.43847,-0.981818 -0.97872,-0.981818 l -41.913557,0 z"
   id="path3750"
   sodipodi:nodetypes="cccccccc" /><path
   sodipodi:type="arc"
   style="fill:#000000;fill-opacity:0.19075144;stroke:none"
   id="path3756"
   sodipodi:cx="103.9974"
   sodipodi:cy="56.001801"
   sodipodi:rx="2.6666"
   sodipodi:ry="2.6666"
   d="m 106.664,56.001801 a 2.6666,2.6666 0 1 1 -5.3332,0 2.6666,2.6666 0 1 1 5.3332,0 z"
   transform="matrix(1.5000375,0,0,1.5000375,-55.999998,-36.004802)" /><path
   transform="matrix(1.5000376,0,0,1.5000375,-68.000005,-36.004802)"
   d="m 106.664,56.001801 a 2.6666,2.6666 0 1 1 -5.3332,0 2.6666,2.6666 0 1 1 5.3332,0 z"
   sodipodi:ry="2.6666"
   sodipodi:rx="2.6666"
   sodipodi:cy="56.001801"
   sodipodi:cx="103.9974"
   id="path3770"
   style="fill:#000000;fill-opacity:0.19075144;stroke:none"
   sodipodi:type="arc" /><path
   sodipodi:type="arc"
   style="fill:#000000;fill-opacity:0.19075144;stroke:none"
   id="path3774"
   sodipodi:cx="103.9974"
   sodipodi:cy="56.001801"
   sodipodi:rx="2.6666"
   sodipodi:ry="2.6666"
   d="m 106.664,56.001801 a 2.6666,2.6666 0 1 1 -5.3332,0 2.6666,2.6666 0 1 1 5.3332,0 z"
   transform="matrix(1.5000374,0,0,1.5000375,-119.99998,-36.0048)" /><path
   id="path3823"
   d="m -24.039999,80.127633 -1.87918,42.803397 95.661181,-0.007 c 0.375,-0.375 0.586,-0.884 0.586,-1.414 l -0.96,-41.382397 -93.408001,0 z"
   style="opacity:0.20772944;fill:#000000;fill-opacity:1;filter:url(#filter3241)"
   transform="matrix(1.0416667,0,0,1.0357143,40.707067,-12.653333)"
   sodipodi:nodetypes="cccccc" /><path
   id="path3825"
   d="m -23.718784,81.734252 0,38.620498 91.571309,1.9e-4 c 0.375,-0.375 0.586,-0.884 0.586,-1.414 l 0,-37.206688 -92.157309,0 z"
   style="opacity:0.89589042;fill:#000000;fill-opacity:1;filter:url(#filter3772)"
   transform="matrix(1.0416667,0,0,1.0357143,40.707067,-12.653333)"
   sodipodi:nodetypes="cccccc" /><path
   sodipodi:nodetypes="ccccccc"
   transform="matrix(1.0416667,0,0,1.0357143,40.707067,-12.653333)"
   style="opacity:0.17874397;fill:#000000;fill-opacity:1;filter:url(#filter3241)"
   d="m -24.719599,80.513838 -0.919184,42.417192 95.379244,-0.007 c 0.375,-0.375 0.586,-0.884 0.586,-1.414 l -1.92,-40.996092 -93.12606,0 0,-10e-5 z"
   id="path3827" /><path
   sodipodi:nodetypes="ccccc"
   id="path3829"
   d="M 16,72.000001 16,112.014 111.9972,112 l 0,-39.999999 -95.9972,0 z"
   style="fill:url(#radialGradient3837)" /><path
   sodipodi:nodetypes="cccccccc"
   id="path3831"
   d="M 21.078723,76.002601 C 20.539447,76.002601 20.1,76.443437 20.1,76.984419 L 20,107.08638 c 0,0.54197 0.439447,0.98182 0.978723,0.98182 L 108,108.0018 107.9694,76.984419 c 0,-0.540982 -0.43847,-0.981818 -0.97872,-0.981818 l -85.911957,0 z"
   style="fill:url(#radialGradient3839);fill-opacity:1" /><path
   transform="matrix(1.5000375,0,0,1.5000375,-55.999998,15.995199)"
   d="m 106.664,56.001801 a 2.6666,2.6666 0 1 1 -5.3332,0 2.6666,2.6666 0 1 1 5.3332,0 z"
   sodipodi:ry="2.6666"
   sodipodi:rx="2.6666"
   sodipodi:cy="56.001801"
   sodipodi:cx="103.9974"
   id="path3833"
   style="fill:#000000;fill-opacity:0.19075144;stroke:none"
   sodipodi:type="arc" /><path
   sodipodi:type="arc"
   style="fill:#000000;fill-opacity:0.19075144;stroke:none"
   id="path3835"
   sodipodi:cx="103.9974"
   sodipodi:cy="56.001801"
   sodipodi:rx="2.6666"
   sodipodi:ry="2.6666"
   d="m 106.664,56.001801 a 2.6666,2.6666 0 1 1 -5.3332,0 2.6666,2.6666 0 1 1 5.3332,0 z"
   transform="matrix(1.5000376,0,0,1.5000375,-68.000005,15.995199)" /><path
   transform="matrix(1.5000364,0,0,1.5000363,-79.999886,15.995268)"
   d="m 106.664,56.001801 a 2.6666,2.6666 0 1 1 -5.3332,0 2.6666,2.6666 0 1 1 5.3332,0 z"
   sodipodi:ry="2.6666"
   sodipodi:rx="2.6666"
   sodipodi:cy="56.001801"
   sodipodi:cx="103.9974"
   id="path3841"
   style="fill:#000000;fill-opacity:0.19075144;stroke:none"
   sodipodi:type="arc" /></svg>