<?xml version="1.0" encoding="UTF-8" standalone="no"?>
<!-- Created with Inkscape (http://www.inkscape.org/) -->

<svg
   xmlns:dc="http://purl.org/dc/elements/1.1/"
   xmlns:cc="http://creativecommons.org/ns#"
   xmlns:rdf="http://www.w3.org/1999/02/22-rdf-syntax-ns#"
   xmlns:svg="http://www.w3.org/2000/svg"
   xmlns="http://www.w3.org/2000/svg"
   xmlns:xlink="http://www.w3.org/1999/xlink"
   xmlns:sodipodi="http://sodipodi.sourceforge.net/DTD/sodipodi-0.dtd"
   xmlns:inkscape="http://www.inkscape.org/namespaces/inkscape"
   width="128"
   height="128"
   id="svg2606"
   sodipodi:version="0.32"
   inkscape:version="0.48.0 r9654"
   version="1.0"
   sodipodi:docname="x-kde-nsplugin-generated.svgz"
   inkscape:output_extension="org.inkscape.output.svgz.inkscape"
   inkscape:export-filename="/home/pinheiro/pics/oxygen-icons/scalable/mimetypes/small/32x32/x-kde-nsplugin-generated.png"
   inkscape:export-xdpi="180"
   inkscape:export-ydpi="180">
  <defs
     id="defs2608">
    <linearGradient
       id="linearGradient6131">
      <stop
         id="stop6133"
         offset="0"
         style="stop-color:#fcfcfc;stop-opacity:1" />
      <stop
         style="stop-color:#f8f8f8;stop-opacity:1"
         offset="0.52275378"
         id="stop6135" />
      <stop
         id="stop6141"
         offset="0.77457333"
         style="stop-color:#f0efef;stop-opacity:1;" />
      <stop
         id="stop6139"
         offset="0.90122044"
         style="stop-color:#e3e1e1;stop-opacity:1;" />
      <stop
         id="stop6137"
         offset="1"
         style="stop-color:#cecbcb;stop-opacity:1" />
    </linearGradient>
    <linearGradient
       inkscape:collect="always"
       xlink:href="#linearGradient6131"
       id="linearGradient3893"
       gradientUnits="userSpaceOnUse"
       gradientTransform="matrix(1.0119858,0,0,1.0119858,-0.89554075,-0.9871566)"
       x1="86.73793"
       y1="93.621468"
       x2="95.460213"
       y2="102.34375" />
    <radialGradient
       inkscape:collect="always"
       xlink:href="#linearGradient3913-5"
       id="radialGradient3919-5"
       cx="90.75"
       cy="110.25299"
       fx="90.75"
       fy="110.25299"
       r="18.750002"
       gradientTransform="matrix(1.3067347,0,0,1.3067347,-27.83617,-33.818441)"
       gradientUnits="userSpaceOnUse" />
    <linearGradient
       inkscape:collect="always"
       id="linearGradient3913-5">
      <stop
         style="stop-color:#ffffff;stop-opacity:1;"
         offset="0"
         id="stop3915-4" />
      <stop
         style="stop-color:#ffffff;stop-opacity:0;"
         offset="1"
         id="stop3917-7" />
    </linearGradient>
    <clipPath
       clipPathUnits="userSpaceOnUse"
       id="clipPath3889-6">
      <path
         sodipodi:nodetypes="cscscssc"
         inkscape:connector-curvature="0"
         id="path3891-5"
         d="m 112,82.502986 c 0,4.465301 -2.79749,6.409952 -5.27972,8.093625 -5.10854,3.46508 -14.939114,3.32536 -20.720284,3.40638 -0.081,5.781159 0.16586,15.504599 -3.29922,20.613139 -1.68367,2.48224 -5.29051,5.38687 -8.20078,5.38687 2.31803,0 4.74284,-1.33476 7.58402,-4.08481 9.14197,-8.84873 17.36714,-16.13535 25.673154,-25.297529 C 109.67612,88.503916 112,86.97878 112,82.502986 z"
         style="fill:url(#linearGradient3893);fill-opacity:1;stroke:none" />
    </clipPath>
    <filter
       color-interpolation-filters="sRGB"
       inkscape:collect="always"
       id="filter3909-6">
      <feGaussianBlur
         inkscape:collect="always"
         stdDeviation="0.43040059"
         id="feGaussianBlur3911-9" />
    </filter>
    <linearGradient
       inkscape:collect="always"
       xlink:href="#linearGradient3897-7"
       id="linearGradient3895-3"
       gradientUnits="userSpaceOnUse"
       gradientTransform="matrix(1.3731411,0,0,1.4035776,-41.378546,-43.42319)"
       x1="82.15696"
       y1="90.381706"
       x2="94.220871"
       y2="102.18401" />
    <linearGradient
       id="linearGradient3897-7">
      <stop
         style="stop-color:#fcfcfc;stop-opacity:1"
         offset="0"
         id="stop3899-4" />
      <stop
         id="stop3901-5"
         offset="0.52275378"
         style="stop-color:#f8f8f8;stop-opacity:1" />
      <stop
         style="stop-color:#f0efef;stop-opacity:1;"
         offset="0.72337759"
         id="stop3903-2" />
      <stop
         style="stop-color:#e3e1e1;stop-opacity:1;"
         offset="0.89024991"
         id="stop3905-5" />
      <stop
         style="stop-color:#cecbcb;stop-opacity:1"
         offset="1"
         id="stop3907-4" />
    </linearGradient>
    <clipPath
       clipPathUnits="userSpaceOnUse"
       id="clipPath6093-7">
      <path
         inkscape:connector-curvature="0"
         sodipodi:nodetypes="cccssccc"
         id="path6095-4"
         d="m 17.000001,8 0.782827,110 57.5,0 c 1.675283,0 3.119418,0.18058 4.9,-1.6 C 88.980763,107.60206 99.94047,96.548195 107.19904,89.224043 109.6396,86.761431 110,84.752873 110,82.5 L 110,8 z"
         style="fill:#ffffff;fill-opacity:1" />
    </clipPath>
    <radialGradient
       inkscape:collect="always"
       xlink:href="#linearGradient5982-7"
       id="radialGradient5988-0"
       cx="64"
       cy="64.004021"
       fx="63.793392"
       fy="47.274845"
       r="47.5"
       gradientTransform="matrix(1.7069944,-0.08541345,0.06979496,1.3941371,-50.362376,-20.218185)"
       gradientUnits="userSpaceOnUse" />
    <linearGradient
       inkscape:collect="always"
       id="linearGradient5982-7">
      <stop
         style="stop-color:#ffffff;stop-opacity:1;"
         offset="0"
         id="stop5984-8" />
      <stop
         style="stop-color:#ffffff;stop-opacity:0;"
         offset="1"
         id="stop5986-6" />
    </linearGradient>
    <filter
       color-interpolation-filters="sRGB"
       inkscape:collect="always"
       id="filter6171-8"
       x="-0.47870937"
       width="1.9574188"
       y="-0.51275069"
       height="2.0255013">
      <feGaussianBlur
         inkscape:collect="always"
         stdDeviation="10.140743"
         id="feGaussianBlur6173-8" />
    </filter>
    <linearGradient
       inkscape:collect="always"
       xlink:href="#linearGradient4518-3"
       id="linearGradient4524-4"
       x1="72"
       y1="0"
       x2="72"
       y2="116.40091"
       gradientUnits="userSpaceOnUse"
       gradientTransform="matrix(1.013528,0,0,1.013266,-1.5133685,-1.3073648)" />
    <linearGradient
       id="linearGradient4518-3">
      <stop
         style="stop-color:#eeecec;stop-opacity:1"
         offset="0"
         id="stop4520-1" />
      <stop
         id="stop5969-4"
         offset="0.40000001"
         style="stop-color:#f4f4f4;stop-opacity:1" />
      <stop
         style="stop-color:#f6f5f5;stop-opacity:1"
         offset="1"
         id="stop4522-9" />
    </linearGradient>
    <filter
       inkscape:collect="always"
       id="filter4123">
      <feGaussianBlur
         inkscape:collect="always"
         stdDeviation="2.028"
         id="feGaussianBlur4125" />
    </filter>
    <filter
       inkscape:collect="always"
       id="filter4087"
       x="-0.16465071"
       width="1.3293014"
       y="-0.2041295"
       height="1.408259">
      <feGaussianBlur
         inkscape:collect="always"
         stdDeviation="4.2234282"
         id="feGaussianBlur4089" />
    </filter>
    <filter
       inkscape:collect="always"
       id="filter4084">
      <feGaussianBlur
         inkscape:collect="always"
         stdDeviation="1.4598961"
         id="feGaussianBlur4086" />
    </filter>
    <clipPath
       clipPathUnits="userSpaceOnUse"
       id="clipPath3292">
      <path
         style="opacity:0.84653476;fill:url(#radialGradient3296);fill-opacity:1"
         d="m 42.990217,44.490646 c -0.167723,0 -0.246765,0.115791 -0.246765,0.246765 l 0,50.81807 c 0,0.405474 0.335266,0.740027 0.740294,0.740294 l 23.44263,0.01545 c 0.0262,1.7e-5 1.615757,-0.0039 1.956103,2.5e-5 3.22816,-2.222687 14.79003,-12.808723 19.204761,-17.251378 0.728868,-0.817526 0.225839,-0.18264 0.717547,-0.793328 l 2.9e-5,-33.52913 c 0,-0.159271 -0.08055,-0.246765 -0.246764,-0.246765 z"
         id="path3294"
         inkscape:connector-curvature="0"
         sodipodi:nodetypes="ccssscccccc" />
    </clipPath>
    <linearGradient
       inkscape:collect="always"
       xlink:href="#linearGradient3349"
       id="linearGradient5532"
       gradientUnits="userSpaceOnUse"
       gradientTransform="translate(0,0.5)"
       x1="70.999763"
       y1="40.292381"
       x2="70.999763"
       y2="89.867455" />
    <linearGradient
       id="linearGradient3349"
       inkscape:collect="always">
      <stop
         id="stop3351"
         offset="0"
         style="stop-color:#00dd00;stop-opacity:1" />
      <stop
         id="stop3353"
         offset="1"
         style="stop-color:#000e00;stop-opacity:1" />
    </linearGradient>
    <filter
       color-interpolation-filters="sRGB"
       id="filter4587"
       inkscape:collect="always">
      <feGaussianBlur
         id="feGaussianBlur4589"
         stdDeviation="0.40704226"
         inkscape:collect="always" />
    </filter>
    <linearGradient
       inkscape:collect="always"
       xlink:href="#linearGradient3349"
       id="linearGradient5534"
       gradientUnits="userSpaceOnUse"
       x1="77.749763"
       y1="100.68314"
       x2="77.749763"
       y2="46.330647" />
    <radialGradient
       inkscape:collect="always"
       xlink:href="#linearGradient3342-5"
       id="radialGradient5536"
       gradientUnits="userSpaceOnUse"
       gradientTransform="matrix(1.5587643,0,0,1.5078663,-39.380594,-45.896825)"
       cx="70.478012"
       cy="89.574303"
       fx="70.478012"
       fy="89.574303"
       r="18.978512" />
    <linearGradient
       inkscape:collect="always"
       id="linearGradient3342-5">
      <stop
         style="stop-color:#00ff00;stop-opacity:1"
         offset="0"
         id="stop3344-4" />
      <stop
         style="stop-color:#004d00;stop-opacity:1"
         offset="1"
         id="stop3346-7" />
    </linearGradient>
    <radialGradient
       inkscape:collect="always"
       xlink:href="#linearGradient3409"
       id="radialGradient5538"
       gradientUnits="userSpaceOnUse"
       gradientTransform="matrix(1.2247067,0,0,1.1847166,-15.836259,-16.95092)"
       cx="70.766693"
       cy="66.595299"
       fx="70.766693"
       fy="66.595299"
       r="18.978512" />
    <linearGradient
       inkscape:collect="always"
       id="linearGradient3409">
      <stop
         style="stop-color:#ffffff;stop-opacity:1;"
         offset="0"
         id="stop3411" />
      <stop
         style="stop-color:#ffffff;stop-opacity:0;"
         offset="1"
         id="stop3413" />
    </linearGradient>
    <radialGradient
       inkscape:collect="always"
       xlink:href="#linearGradient3362"
       id="radialGradient5540"
       gradientUnits="userSpaceOnUse"
       gradientTransform="matrix(2.0724635,0,0,2.0047918,-66.652305,-71.869984)"
       cx="57.522243"
       cy="63.842773"
       fx="57.522243"
       fy="63.842773"
       r="18.978512" />
    <linearGradient
       id="linearGradient3362"
       inkscape:collect="always">
      <stop
         id="stop3364"
         offset="0"
         style="stop-color:#bfffbf;stop-opacity:1" />
      <stop
         id="stop3366"
         offset="1"
         style="stop-color:#bfffbf;stop-opacity:0" />
    </linearGradient>
    <radialGradient
       inkscape:collect="always"
       xlink:href="#linearGradient3409"
       id="radialGradient5542"
       gradientUnits="userSpaceOnUse"
       gradientTransform="matrix(2.0724635,0,0,2.0047918,-66.656198,-71.869984)"
       cx="56.692532"
       cy="75.276314"
       fx="56.692532"
       fy="75.276314"
       r="18.978512" />
    <linearGradient
       inkscape:collect="always"
       xlink:href="#linearGradient3689"
       id="linearGradient5544"
       gradientUnits="userSpaceOnUse"
       x1="71.9375"
       y1="92.231743"
       x2="71.9375"
       y2="73.141258" />
    <linearGradient
       id="linearGradient3689"
       inkscape:collect="always">
      <stop
         id="stop3691"
         offset="0"
         style="stop-color:#f0ff80;stop-opacity:1" />
      <stop
         id="stop3693"
         offset="1"
         style="stop-color:#f0ff80;stop-opacity:0" />
    </linearGradient>
    <linearGradient
       y2="73.141258"
       x2="71.9375"
       y1="92.231743"
       x1="71.9375"
       gradientUnits="userSpaceOnUse"
       id="linearGradient3189"
       xlink:href="#linearGradient3689"
       inkscape:collect="always" />
  </defs>
  <sodipodi:namedview
     id="base"
     pagecolor="#ffffff"
     bordercolor="#666666"
     borderopacity="1.0"
     inkscape:pageopacity="0.0"
     inkscape:pageshadow="2"
     inkscape:zoom="2.8284271"
     inkscape:cx="63.815552"
     inkscape:cy="60.668"
     inkscape:document-units="px"
     inkscape:current-layer="layer1"
     width="128px"
     height="128px"
     showgrid="true"
     inkscape:grid-points="true"
     showguides="true"
     inkscape:guide-bbox="true"
     inkscape:window-width="1224"
     inkscape:window-height="757"
     inkscape:window-x="208"
     inkscape:window-y="151"
     inkscape:snap-global="false"
     inkscape:window-maximized="0"
     inkscape:snap-page="true">
    <inkscape:grid
       id="GridFromPre046Settings"
       type="xygrid"
       originx="0px"
       originy="0px"
       spacingx="4px"
       spacingy="4px"
       color="#0000ff"
       empcolor="#0000ff"
       opacity="0.2"
       empopacity="0.4"
       empspacing="2"
       visible="true"
       enabled="true"
       snapvisiblegridlinesonly="true" />
    <sodipodi:guide
       orientation="1,0"
       position="-68,29.325902"
       id="guide4564" />
    <sodipodi:guide
       orientation="1,0"
       position="-121.62237,135.0574"
       id="guide3859" />
    <sodipodi:guide
       orientation="0,1"
       position="38.581514,-74.688154"
       id="guide4360" />
  </sodipodi:namedview>
  <metadata
     id="metadata2611">
    <rdf:RDF>
      <cc:Work
         rdf:about="">
        <dc:format>image/svg+xml</dc:format>
        <dc:type
           rdf:resource="http://purl.org/dc/dcmitype/StillImage" />
        <dc:title></dc:title>
      </cc:Work>
    </rdf:RDF>
  </metadata>
  <g
     inkscape:label="Livello 1"
     inkscape:groupmode="layer"
     id="layer1">
    <path
       style="opacity:0.45606695;fill:#000000;fill-opacity:1;filter:url(#filter4123)"
       d="m 13.333,5.3364 0,118.3304 49.8545,-0.0668 c 2.115554,-0.003 4.528919,-1.77169 7,-4.25 0.71234,-0.71442 1.440746,-1.39395 2.15625,-2.09375 0.415612,-0.40649 0.832187,-0.81443 1.25,-1.21875 7.773958,-7.40962 26.98341,-25.122599 34.21875,-33.099999 0.42065,-0.42064 0.81207,-0.8111 1.15625,-1.1875 1.46444,-1.49766 2.76158,-2.8378 2.99375,-5.8625 L 112,75.156251 111.9972,5.3364 z"
       id="path5990"
       inkscape:connector-curvature="0"
       sodipodi:nodetypes="ccsssccccccc"
       transform="matrix(1.013528,0,0,1.013266,-1.5133689,-1.3073677)" />
    <path
       sodipodi:type="inkscape:offset"
       inkscape:radius="-0.31466308"
       inkscape:original="M 13.1875 4.53125 C 12.818918 4.609246 12.529956 4.967008 12.53125 5.34375 L 12.53125 123.65625 C 12.53885 124.07954 12.920464 124.4611 13.34375 124.46875 L 62.15625 124.46875 C 63.930251 124.46875 65.829207 124.74865 68.6875 122.8125 C 68.829003 122.58432 71.218784 120.82456 70.53125 121.25 C 80.188854 112.07585 98.162197 92.41186 109.34375 81.09375 C 111.06182 79.375681 112.8125 77.674752 112.8125 73.3125 L 112.8125 5.34375 C 112.80483 4.9204809 112.42327 4.5388981 112 4.53125 L 13.34375 4.53125 C 13.29182 4.52633 13.239428 4.52633 13.1875 4.53125 z "
       style="fill:#000000;fill-opacity:1;filter:url(#filter4084)"
       id="path3314"
       d="m 13.21875,4.84375 c -0.201143,0.05725 -0.375711,0.2931131 -0.375,0.5 l 0,118.3125 c 0.0043,0.23765 0.262302,0.4957 0.5,0.5 l 48.8125,0 c 1.807099,0 3.550693,0.29821 6.34375,-1.59375 0.03611,-0.0371 0.07724,-0.0824 0.125,-0.125 0.08359,-0.0745 0.19399,-0.18448 0.3125,-0.28125 0.23702,-0.19354 0.516618,-0.41733 0.78125,-0.625 0.206542,-0.16208 0.368737,-0.26884 0.5,-0.375 a 0.31469455,0.31469455 0 0 1 0.03125,-0.0625 c 0.0046,-0.004 0.02682,0.004 0.03125,0 a 0.31469455,0.31469455 0 0 1 0.03125,-0.0625 c 0.0044,-0.004 0.02685,0.004 0.03125,0 9.639369,-9.15919 27.595222,-28.83361 38.78125,-40.15625 1.72022,-1.720217 3.375,-3.284436 3.375,-7.5625 l 0,-67.96875 c -0.004,-0.2376834 -0.26234,-0.4957056 -0.5,-0.5 l -98.65625,0 a 0.31469455,0.31469455 0 0 1 -0.03125,0 c -0.02143,-0.00203 -0.04093,-6.768e-4 -0.0625,0 -0.01078,3.384e-4 -0.02054,-0.00102 -0.03125,0 z"
       transform="matrix(1.013528,0,0,1.013266,-1.5133689,-1.3073677)" />
    <path
       style="fill:#ffffff;fill-opacity:1"
       d="m 12,4 0,120 49.999784,0 c 1.697965,0 3.967298,-0.57754 7.094784,-3.68191 8.990151,-8.92376 32.510002,-32.235741 39.866862,-39.726545 2.47359,-2.518643 3.04157,-4.572903 3.04157,-6.87703 L 112,4 z"
       id="path34"
       sodipodi:nodetypes="cccssccc"
       inkscape:connector-curvature="0" />
    <path
       style="fill:url(#linearGradient4524-4);fill-opacity:1"
       d="M 15.506762,7 C 15.162322,7 15,7.2377304 15,7.5066333 L 15,119.48009 c 0,0.83248 0.688512,1.5205 1.520292,1.51991 l 44.959416,-0.0317 c 0.05379,-4e-5 0.821348,0.0237 1.520292,0.0317 1.801712,-0.0406 3.174343,-0.76374 4.414963,-1.61442 C 68.481059,119.09069 97.540465,90.697457 106.78496,81.385896 108.1658,79.995068 109,77.38535 109,76.425341 L 109,7.5066332 C 109,7.179635 108.83457,7 108.49323,7 z"
       id="path3967"
       inkscape:connector-curvature="0"
       sodipodi:nodetypes="ccsssccscccc" />
    <path
       sodipodi:nodetypes="ccssscccccc"
       inkscape:connector-curvature="0"
       id="path5980"
       d="M 15.506762,7 C 15.162322,7 15,7.2377304 15,7.5066333 L 15,119.48009 c 0,0.83249 0.688527,1.51486 1.520292,1.51991 l 46.845657,0.2846 c 0.05379,3.3e-4 3.318172,-0.008 4.017117,5e-5 6.629458,-4.5634 31.077115,-31.337425 40.143354,-40.458653 0.66623,-0.74707 0.46379,-0.37498 1.47358,-1.628786 L 109,7.5066332 C 109,7.179635 108.83457,7 108.49323,7 z"
       style="opacity:0.84653476;fill:url(#radialGradient5988-0);fill-opacity:1" />
    <g
       transform="matrix(2.6446683,0,0,2.6446683,-118.07114,-138.06626)"
       id="g4591"
       clip-path="url(#clipPath3292)">
      <path
         sodipodi:nodetypes="ssssccsssccssssssssssssccssccssssssssssssssssccsscccsssccsssscsscsccccssssssss"
         inkscape:connector-curvature="0"
         id="path4583"
         d="m 70.6875,61.5 c -1.035205,0.01531 -2.078771,0.195296 -2.9375,0.625 -0.858729,0.429704 -1.567917,1.184136 -1.65625,2.1875 -0.07739,0.87908 0.495053,1.505355 0.84375,2.03125 0.174348,0.262948 0.300137,0.512054 0.34375,0.6875 0.04361,0.175446 0.05814,0.252903 -0.0625,0.4375 -0.204415,0.312797 -0.563898,0.520859 -1.0625,0.65625 -0.498602,0.135391 -1.133892,0.19942 -1.84375,0.1875 -1.419717,-0.02384 -3.078122,-0.28125 -4.5,-0.28125 l -0.5,0 0,0.5 c 0.009,1.649997 -0.106425,3.442762 -0.28125,4.9375 -0.174825,1.494738 -0.443015,2.751288 -0.65625,3.15625 -0.294293,0.558901 -0.5681,0.78355 -0.75,0.84375 -0.1819,0.0602 -0.405013,0.03286 -0.84375,-0.25 -0.273708,-0.176464 -0.714885,-0.606774 -1.1875,-1 -0.472615,-0.393226 -1.006447,-0.8125 -1.6875,-0.8125 -0.880066,0 -1.69834,0.597752 -2.3125,1.5 -0.61416,0.902248 -1.03125,2.147854 -1.03125,3.625 0,2.964896 1.753476,4.78125 3.40625,4.78125 0.682366,0 1.273787,-0.296119 1.8125,-0.625 0.538713,-0.328881 1.049495,-0.707729 1.46875,-0.9375 0.493594,-0.270512 0.912743,-0.37167 1.09375,-0.34375 0.0905,0.01396 0.106635,0.03429 0.15625,0.09375 0.04962,0.05946 0.12119,0.172916 0.15625,0.40625 0.02533,0.168594 0.07056,0.820009 0.125,1.625 0.05444,0.804991 0.127937,1.792736 0.1875,2.8125 0.119127,2.039528 0.232285,4.133073 0.28125,4.84375 l 0.01566,0.328125 c 1.326754,0.02205 3.76686,0.211879 5.296876,0.203126 1.6262,-0.0093 3.12593,-0.126592 4.0625,-0.9375 0.412846,-0.357453 0.486086,-0.932763 0.375,-1.375 -0.111086,-0.442237 -0.342611,-0.845881 -0.5625,-1.25 -0.219889,-0.404119 -0.421662,-0.797308 -0.53125,-1.125 -0.109588,-0.327692 -0.115671,-0.530377 -0.03125,-0.6875 0.277549,-0.51657 0.616274,-0.825804 1.15625,-1.03125 0.539976,-0.205446 1.303316,-0.29525 2.25,-0.28125 0.92036,0.01361 1.827622,0.198213 2.5,0.53125 0.672378,0.333037 1.071778,0.770452 1.125,1.375 0.02968,0.337164 -0.295052,0.795468 -0.6875,1.375 -0.196224,0.289766 -0.40093,0.617632 -0.5,1 -0.09907,0.382368 -0.0744,0.849239 0.1875,1.25 0.390582,0.597671 1.068973,0.891372 1.8125,1.0625 0.743527,0.171128 1.607315,0.231376 2.5,0.21875 C 80.00412,93.8185 81.947869,93.5625 83.25,93.5625 l 0.46875,0 L 83.75,93.125 c 0.120986,-1.307248 0.14863,-3.447835 -0.03125,-5.4375 -0.08994,-0.994833 -0.223041,-1.938101 -0.4375,-2.75 C 83.066791,84.125601 82.803552,83.438881 82.3125,83 l -0.03125,-0.03125 -0.03125,0 c -0.430697,-0.298858 -0.886605,-0.429923 -1.28125,-0.34375 -0.394645,0.08617 -0.650826,0.325207 -0.875,0.53125 -0.224174,0.206043 -0.40728,0.409785 -0.59375,0.53125 -0.157951,0.102888 -0.336332,0.121402 -0.53125,0.125 -1.018489,-0.486601 -2.068316,-1.981071 -2.0625,-3.625 0.0028,-0.804062 0.256581,-1.692635 0.65625,-2.375 0.399669,-0.682365 0.955351,-1.116167 1.40625,-1.21875 0.453356,-0.103142 1.03071,0.08438 1.78125,0.34375 0.75054,0.25937 1.657971,0.539143 2.65625,0.25 0.273206,-0.07913 0.352833,-0.233019 0.40625,-0.34375 0.05342,-0.110731 0.09726,-0.226278 0.125,-0.34375 0.05548,-0.234944 0.09377,-0.505248 0.125,-0.84375 0.06246,-0.677004 0.09502,-1.573136 0.09375,-2.5 -0.0013,-0.926864 -0.03194,-1.904177 -0.09375,-2.75 C 84.000687,69.560427 83.894933,68.858507 83.75,68.375 l -0.09375,-0.34375 -0.375,0 c -1.430835,0.008 -3.465311,0.165224 -5.3125,0.15625 -0.923594,-0.0045 -1.791007,-0.0416 -2.5,-0.15625 -0.708993,-0.114649 -1.267731,-0.330145 -1.5,-0.53125 -0.112888,-0.09774 -0.09404,-0.125026 -0.03125,-0.375 0.06279,-0.249974 0.251744,-0.632428 0.46875,-1.03125 0.217006,-0.398822 0.440017,-0.821557 0.59375,-1.28125 0.153733,-0.459693 0.231174,-1.011581 -0.03125,-1.5 -0.380491,-0.708163 -0.959821,-1.191888 -1.6875,-1.46875 C 72.553571,61.566888 71.699656,61.485032 70.6875,61.5 z"
         style="font-size:medium;font-style:normal;font-variant:normal;font-weight:normal;font-stretch:normal;text-indent:0;text-align:start;text-decoration:none;line-height:normal;letter-spacing:normal;word-spacing:normal;text-transform:none;direction:ltr;block-progression:tb;writing-mode:lr-tb;text-anchor:start;baseline-shift:baseline;color:#000000;fill:url(#linearGradient5532);fill-opacity:1;fill-rule:evenodd;stroke:none;stroke-width:0.99999988;marker:none;visibility:visible;display:inline;overflow:visible;filter:url(#filter4587);enable-background:accumulate;font-family:Sans;-inkscape-font-specification:Sans" />
      <path
         style="font-size:medium;font-style:normal;font-variant:normal;font-weight:normal;font-stretch:normal;text-indent:0;text-align:start;text-decoration:none;line-height:normal;letter-spacing:normal;word-spacing:normal;text-transform:none;direction:ltr;block-progression:tb;writing-mode:lr-tb;text-anchor:start;baseline-shift:baseline;color:#000000;fill:url(#linearGradient5534);fill-opacity:1;fill-rule:evenodd;stroke:none;stroke-width:0.99999988;marker:none;visibility:visible;display:inline;overflow:visible;enable-background:accumulate;font-family:Sans;-inkscape-font-specification:Sans"
         d="m 70.6875,61 c -1.035205,0.01531 -2.078771,0.195296 -2.9375,0.625 -0.858729,0.429704 -1.567917,1.184136 -1.65625,2.1875 -0.07739,0.87908 0.495053,1.505355 0.84375,2.03125 0.174348,0.262948 0.300137,0.512054 0.34375,0.6875 0.04361,0.175446 0.05814,0.252903 -0.0625,0.4375 -0.204415,0.312797 -0.563898,0.520859 -1.0625,0.65625 -0.498602,0.135391 -1.133892,0.19942 -1.84375,0.1875 -1.419717,-0.02384 -3.078122,-0.28125 -4.5,-0.28125 l -0.5,0 0,0.5 c 0.009,1.649997 -0.106425,3.442762 -0.28125,4.9375 -0.174825,1.494738 -0.443015,2.751288 -0.65625,3.15625 -0.294293,0.558901 -0.5681,0.78355 -0.75,0.84375 -0.1819,0.0602 -0.405013,0.03286 -0.84375,-0.25 -0.273708,-0.176464 -0.714885,-0.606774 -1.1875,-1 -0.472615,-0.393226 -1.006447,-0.8125 -1.6875,-0.8125 -0.880066,0 -1.69834,0.597752 -2.3125,1.5 -0.61416,0.902248 -1.03125,2.147854 -1.03125,3.625 0,2.964896 1.753476,4.78125 3.40625,4.78125 0.682366,0 1.273787,-0.296119 1.8125,-0.625 0.538713,-0.328881 1.049495,-0.707729 1.46875,-0.9375 0.493594,-0.270512 0.912743,-0.37167 1.09375,-0.34375 0.0905,0.01396 0.106635,0.03429 0.15625,0.09375 0.04962,0.05946 0.12119,0.172916 0.15625,0.40625 0.02533,0.168594 0.07056,0.820009 0.125,1.625 0.05444,0.804991 0.127937,1.792736 0.1875,2.8125 0.119127,2.039528 0.232285,4.133073 0.28125,4.84375 l 0.01566,0.328125 c 1.326754,0.02205 3.76686,0.211879 5.296876,0.203126 1.6262,-0.0093 3.12593,-0.126592 4.0625,-0.9375 0.412846,-0.357453 0.486086,-0.932763 0.375,-1.375 -0.111086,-0.442237 -0.342611,-0.845881 -0.5625,-1.25 -0.219889,-0.404119 -0.421662,-0.797308 -0.53125,-1.125 -0.109588,-0.327692 -0.115671,-0.530377 -0.03125,-0.6875 0.277549,-0.51657 0.616274,-0.825804 1.15625,-1.03125 0.539976,-0.205446 1.303316,-0.29525 2.25,-0.28125 0.92036,0.01361 1.827622,0.198213 2.5,0.53125 0.672378,0.333037 1.071778,0.770452 1.125,1.375 0.02968,0.337164 -0.295052,0.795468 -0.6875,1.375 -0.196224,0.289766 -0.40093,0.617632 -0.5,1 -0.09907,0.382368 -0.0744,0.849239 0.1875,1.25 0.390582,0.597671 1.068973,0.891372 1.8125,1.0625 0.743527,0.171128 1.607315,0.231376 2.5,0.21875 C 80.00412,93.3185 81.947869,93.0625 83.25,93.0625 l 0.46875,0 L 83.75,92.625 c 0.120986,-1.307248 0.14863,-3.447835 -0.03125,-5.4375 -0.08994,-0.994833 -0.223041,-1.938101 -0.4375,-2.75 C 83.066791,83.625601 82.803552,82.938881 82.3125,82.5 l -0.03125,-0.03125 -0.03125,0 c -0.430697,-0.298858 -0.886605,-0.429923 -1.28125,-0.34375 -0.394645,0.08617 -0.650826,0.325207 -0.875,0.53125 -0.224174,0.206043 -0.40728,0.409785 -0.59375,0.53125 -0.157951,0.102888 -0.336332,0.121402 -0.53125,0.125 -1.018489,-0.486601 -2.068316,-1.981071 -2.0625,-3.625 0.0028,-0.804062 0.256581,-1.692635 0.65625,-2.375 0.399669,-0.682365 0.955351,-1.116167 1.40625,-1.21875 0.453356,-0.103142 1.03071,0.08438 1.78125,0.34375 0.75054,0.25937 1.657971,0.539143 2.65625,0.25 0.273206,-0.07913 0.352833,-0.233019 0.40625,-0.34375 0.05342,-0.110731 0.09726,-0.226278 0.125,-0.34375 0.05548,-0.234944 0.09377,-0.505248 0.125,-0.84375 0.06246,-0.677004 0.09502,-1.573136 0.09375,-2.5 -0.0013,-0.926864 -0.03194,-1.904177 -0.09375,-2.75 C 84.000687,69.060427 83.894933,68.358507 83.75,67.875 l -0.09375,-0.34375 -0.375,0 c -1.430835,0.008 -3.465311,0.165224 -5.3125,0.15625 -0.923594,-0.0045 -1.791007,-0.0416 -2.5,-0.15625 -0.708993,-0.114649 -1.267731,-0.330145 -1.5,-0.53125 -0.112888,-0.09774 -0.09404,-0.125026 -0.03125,-0.375 0.06279,-0.249974 0.251744,-0.632428 0.46875,-1.03125 0.217006,-0.398822 0.440017,-0.821557 0.59375,-1.28125 0.153733,-0.459693 0.231174,-1.011581 -0.03125,-1.5 -0.380491,-0.708163 -0.959821,-1.191888 -1.6875,-1.46875 C 72.553571,61.066888 71.699656,60.985032 70.6875,61 z"
         id="path4176"
         inkscape:connector-curvature="0"
         sodipodi:nodetypes="ssssccsssccssssssssssssccssccssssssssssssssssccsscccsssccsssscsscsccccssssssss" />
      <path
         style="fill:url(#radialGradient5536);fill-opacity:1;fill-rule:evenodd;stroke:none"
         d="m 70.6875,61.5 c -1.955526,0.02892 -3.951914,0.732643 -4.09375,2.34375 -0.107445,1.220462 1.794612,2.23815 1.03125,3.40625 -1.15006,1.759827 -5.088491,0.78125 -7.8125,0.78125 0.01825,3.344002 -0.402346,7.177477 -1,8.3125 -0.644075,1.223184 -1.309933,1.427624 -2.3125,0.78125 -0.718909,-0.463494 -1.699589,-1.71875 -2.59375,-1.71875 -1.273127,0 -2.84375,1.860058 -2.84375,4.625 0,2.764942 1.65858,4.28125 2.90625,4.28125 1.052494,0 2.093162,-0.985884 3.03125,-1.5 1.077732,-0.590647 1.978711,-0.650333 2.15625,0.53125 0.137909,0.917833 0.493928,7.828977 0.589844,9.221094 l 0.06641,0.0039 c 2.795707,0.01564 7.043989,0.598993 8.49375,-0.65625 1.051467,-0.910389 -1.56869,-3.021416 -0.875,-4.3125 0.65804,-1.224733 1.88491,-1.591468 3.84375,-1.5625 1.955526,0.02892 3.983164,0.732643 4.125,2.34375 0.107445,1.220462 -1.825862,2.23815 -1.0625,3.40625 1.15006,1.759827 6.188491,0.78125 8.9125,0.78125 0.233769,-2.52586 0.102412,-8.457091 -1.28125,-9.69375 -1.437371,-0.997382 -1.633157,1.086074 -3.125,0.96875 -1.283499,-0.553851 -2.444177,-2.268916 -2.4375,-4.15625 0.0064,-1.813043 1.127999,-3.795828 2.4375,-4.09375 1.315218,-0.299222 2.763635,1.10982 4.4375,0.625 0.492997,-0.142792 0.472953,-6.609693 0,-8.1875 -2.795707,0.01564 -8.175239,0.598993 -9.625,-0.65625 -1.051467,-0.910389 1.56869,-3.021416 0.875,-4.3125 C 73.87321,61.837767 72.64634,61.471032 70.6875,61.5 z"
         id="path10"
         inkscape:connector-curvature="0"
         sodipodi:nodetypes="ssscsssssssccssssscccssscsss" />
      <path
         style="fill:url(#radialGradient5538);fill-opacity:1;fill-rule:evenodd;stroke:none"
         d="m 70.688122,61.5 c -1.95553,0.02892 -3.95191,0.732643 -4.09375,2.34375 -0.0048,0.05421 -0.0028,0.102811 0,0.15625 0.1652,-1.588525 2.15116,-2.283771 4.09375,-2.3125 1.95884,-0.02897 3.18572,0.337773 3.84375,1.5625 0.06768,0.125959 0.11392,0.266558 0.125,0.40625 0.0123,-0.204473 -0.02911,-0.415277 -0.125,-0.59375 -0.65803,-1.224727 -1.88491,-1.591468 -3.84375,-1.5625 z m -2.90625,5.3125 c -0.02126,0.142002 -0.06083,0.291488 -0.15625,0.4375 -1.15006,1.759827 -5.08849,0.78125 -7.8125,0.78125 3.3e-4,0.06113 -4e-5,0.126058 0,0.1875 2.72401,0 6.66244,0.978577 7.8125,-0.78125 0.14313,-0.219019 0.16972,-0.414229 0.15625,-0.625 z m 5.625,0.15625 c -0.0076,0.229394 0.06107,0.430164 0.25,0.59375 1.44977,1.255243 6.8293,0.67189 9.625,0.65625 0.11824,0.394452 0.22056,1.107118 0.28125,1.9375 -0.06055,-0.906769 -0.15477,-1.703062 -0.28125,-2.125 -2.7957,0.01564 -8.17523,0.598993 -9.625,-0.65625 -0.13143,-0.113799 -0.21966,-0.258878 -0.25,-0.40625 z m -13.875,6.0625 c -0.17757,1.518247 -0.41993,2.744989 -0.71875,3.3125 -0.64407,1.223184 -1.30993,1.427624 -2.3125,0.78125 -0.71891,-0.463494 -1.69959,-1.71875 -2.59375,-1.71875 -1.148663,0 -2.520285,1.516983 -2.78125,3.84375 0.318033,-2.208322 1.667264,-3.65625 2.78125,-3.65625 0.89416,0 1.87484,1.255256 2.59375,1.71875 1.00257,0.646374 1.66843,0.441934 2.3125,-0.78125 0.31023,-0.589164 0.54055,-1.902553 0.71875,-3.5 z m 16.875,6.84375 c -0.0067,1.887334 1.15401,3.602399 2.4375,4.15625 1.49185,0.117324 1.68763,-1.966132 3.125,-0.96875 0.69183,0.618329 1.07342,2.421877 1.25,4.375 -0.16904,-2.024718 -0.53617,-3.924517 -1.25,-4.5625 -1.43737,-0.997382 -1.63315,1.086074 -3.125,0.96875 -1.24009,-0.535124 -2.36883,-2.157577 -2.4375,-3.96875 z m -9.09375,8.3125 c -0.09206,1.001832 1.10925,2.326368 1.21875,3.25 0.0837,-0.871882 -1.15523,-2.19434 -1.21875,-3.25 z m 8.0625,0.34375 c -0.04265,0.921479 -1.1111,1.734098 -1.1875,2.59375 0.21666,-0.836226 1.29934,-1.615904 1.21875,-2.53125 -0.0021,-0.02366 -0.02836,-0.03923 -0.03125,-0.0625 z"
         id="path4527"
         inkscape:connector-curvature="0" />
      <path
         inkscape:connector-curvature="0"
         style="fill:url(#radialGradient5540);fill-opacity:1;fill-rule:evenodd;stroke:none"
         d="m 70.6875,61.5 c -1.955526,0.02892 -3.951914,0.732643 -4.09375,2.34375 -0.107445,1.220462 1.794612,2.23815 1.03125,3.40625 -1.15006,1.759827 -5.088491,0.78125 -7.8125,0.78125 0.01825,3.344002 -0.402346,7.177477 -1,8.3125 -0.644075,1.223184 -1.309933,1.427624 -2.3125,0.78125 -0.718909,-0.463494 -1.699589,-1.71875 -2.59375,-1.71875 -1.273127,0 -2.84375,1.860058 -2.84375,4.625 0,0.05551 -0.0013,0.101745 0,0.15625 12.952189,-1.175713 24.344221,-4.591076 32.53125,-9.40625 -0.05589,-1.163268 -0.158511,-2.236281 -0.3125,-2.75 -2.795707,0.01564 -8.175239,0.598993 -9.625,-0.65625 -1.051467,-0.910389 1.56869,-3.021416 0.875,-4.3125 C 73.873206,61.837773 72.64634,61.471032 70.6875,61.5 z"
         id="path4538" />
      <path
         style="opacity:0.61924684;fill:url(#radialGradient5542);fill-opacity:1;fill-rule:evenodd;stroke:none"
         d="m 74.089857,62.46875 c 0.09062,0.118531 0.17457,0.265871 0.25,0.40625 0.69369,1.291084 -1.92647,3.402111 -0.875,4.3125 0.0067,0.0058 0.02442,-0.0057 0.03125,0 -0.58107,-0.98679 1.68158,-2.914609 1.03125,-4.125 -0.12543,-0.233446 -0.26961,-0.419448 -0.4375,-0.59375 z m 9.03125,5.5625 c 0.13334,0.553371 0.23001,1.496171 0.28125,2.5625 -8.1469,4.791572 -19.4703,8.183222 -32.34375,9.375 -1.9e-4,0.02141 0,0.04098 0,0.0625 0,0.05551 -0.001,0.101745 0,0.15625 12.95219,-1.175713 24.34422,-4.591076 32.53125,-9.40625 -0.0559,-1.163268 -0.15851,-2.236281 -0.3125,-2.75 -0.04417,2.47e-4 -0.11081,-5.21e-4 -0.15625,0 z"
         id="path4547"
         inkscape:connector-curvature="0" />
      <path
         sodipodi:nodetypes="ssscsssssssccssssscccssscsss"
         inkscape:connector-curvature="0"
         id="path4571"
         d="m 70.6875,61.5 c -1.955526,0.02892 -3.951914,0.732643 -4.09375,2.34375 -0.107445,1.220462 1.794612,2.23815 1.03125,3.40625 -1.15006,1.759827 -5.088491,0.78125 -7.8125,0.78125 0.01825,3.344002 -0.402346,7.177477 -1,8.3125 -0.644075,1.223184 -1.309933,1.427624 -2.3125,0.78125 -0.718909,-0.463494 -1.699589,-1.71875 -2.59375,-1.71875 -1.273127,0 -2.84375,1.860058 -2.84375,4.625 0,2.764942 1.65858,4.28125 2.90625,4.28125 1.052494,0 2.093162,-0.985884 3.03125,-1.5 1.077732,-0.590647 1.978711,-0.650333 2.15625,0.53125 0.137909,0.917833 0.493928,7.828977 0.589844,9.221094 l 0.06641,0.0039 c 2.795707,0.01564 7.043989,0.598993 8.49375,-0.65625 1.051467,-0.910389 -1.56869,-3.021416 -0.875,-4.3125 0.65804,-1.224733 1.88491,-1.591468 3.84375,-1.5625 1.955526,0.02892 3.983164,0.732643 4.125,2.34375 0.107445,1.220462 -1.825862,2.23815 -1.0625,3.40625 1.15006,1.759827 6.188491,0.78125 8.9125,0.78125 0.233769,-2.52586 0.102412,-8.457091 -1.28125,-9.69375 -1.437371,-0.997382 -1.633157,1.086074 -3.125,0.96875 -1.283499,-0.553851 -2.444177,-2.268916 -2.4375,-4.15625 0.0064,-1.813043 1.127999,-3.795828 2.4375,-4.09375 1.315218,-0.299222 2.763635,1.10982 4.4375,0.625 0.492997,-0.142792 0.472953,-6.609693 0,-8.1875 -2.795707,0.01564 -8.175239,0.598993 -9.625,-0.65625 -1.051467,-0.910389 1.56869,-3.021416 0.875,-4.3125 C 73.87321,61.837767 72.64634,61.471032 70.6875,61.5 z"
         style="fill:none;stroke:url(#linearGradient3189);stroke-width:0.2;stroke-miterlimit:4;stroke-opacity:1;stroke-dasharray:none" />
    </g>
    <path
       style="fill:#000000"
       d=""
       id="path2197" />
    <path
       clip-path="url(#clipPath6093-7)"
       style="opacity:0.34728035;fill:#000000;fill-opacity:1;stroke:none;filter:url(#filter6171-8)"
       d="m 114.4,82.502986 c 0,4.465301 -6.19771,3.506816 -8.67994,5.190489 -5.10854,3.46508 -20.174689,2.225237 -25.955859,2.306257 -0.081,5.781159 0.786541,16.143798 0.786541,22.293818 0,2.97817 -3.440475,11.20945 -6.350745,11.20945 -2.091359,1.5337 3.488204,8.21101 6.734971,5.31989 9.501888,-8.46107 35.131682,-30.022704 43.350822,-39.262889 2.04044,-2.29392 -4.90514,-9.844666 -9.88579,-7.057015 z"
       id="path6153"
       inkscape:connector-curvature="0"
       sodipodi:nodetypes="cscscssc"
       transform="matrix(1.2713893,0,0,1.3008089,-31.411352,-31.072453)" />
    <path
       sodipodi:nodetypes="cscscssc"
       inkscape:connector-curvature="0"
       id="path6081"
       d="m 113.9,82.502986 c 0,4.465301 -7.96273,11.129672 -10.95287,11.553449 -6.394981,0.906328 -15.824979,-3.47754 -21.606149,-3.39652 -0.081,5.781159 3.918356,18.962455 0.453276,24.070995 -1.68367,2.48224 -3.883991,8.07209 -6.794261,8.07209 -2.091359,1.5337 3.488204,11.21101 6.734971,8.31989 9.501888,-8.46107 45.998943,-30.20138 54.218083,-39.441569 2.04044,-2.29392 -17.0724,-11.965986 -22.05305,-9.178335 z"
       style="opacity:0.49295774;fill:#000000;fill-opacity:1;stroke:none;filter:url(#filter4087)"
       clip-path="url(#clipPath6093-7)"
       transform="matrix(1.323697,0,0,1.3543271,-37.27081,-37.383179)" />
    <path
       style="fill:url(#linearGradient3895-3);fill-opacity:1;stroke:none"
       d="m 111.80692,72.373791 c 0,6.193164 -3.79585,8.890306 -7.16393,11.225476 C 97.711316,88.405175 83.444341,87.387629 75.6,87.5 c -0.109909,8.0182 0.701692,21.4147 -4,28.5 -2.284534,3.44276 -6.727129,8.38457 -10.67601,8.38457 3.145284,0 6.435454,-1.85125 10.290589,-5.66544 12.404537,-12.27278 23.56509,-22.378984 34.835341,-35.086504 2.60379,-2.935824 5.757,-5.051122 5.757,-11.258835 z"
       id="path6011"
       inkscape:connector-curvature="0"
       sodipodi:nodetypes="cscscssc" />
    <path
       style="fill:#ffffff;fill-opacity:1;stroke:none"
       d="m 111.83234,71.941762 c -0.42932,5.407885 -4.39696,7.298568 -6.55729,8.796367 C 100.15305,84.28932 93.349113,84 72,84 c 0,19.65502 0.5,28.4 -3.219913,33.20293 -2.21447,2.85919 -6.648335,6.04727 -10.26176,6.86542 4.951272,0 8.407066,-1.08166 11.641616,-4.28186 0.460141,-0.53889 1.37925,-1.54169 2.101048,-2.68043 C 76.100178,111.32051 76,99.904353 76,88 c 7.844341,-0.112342 21.630842,1.155905 28.5625,-3.65 0.63154,-0.437847 2.56984,-2.009889 3.13546,-2.57551 3.14173,-3.14173 3.82294,-5.144366 4.13438,-9.832728 z M 58.518327,124.06835 c -0.213922,0.0483 -0.425295,0.0575 -0.636038,0.0866 0.213019,-0.0234 0.421235,-0.0465 0.636038,-0.0866 z"
       id="path6122"
       inkscape:connector-curvature="0"
       sodipodi:nodetypes="cscsccccsscccc" />
    <path
       style="fill:none;stroke:url(#radialGradient3919-5);stroke-width:1.85605633;stroke-linecap:butt;stroke-linejoin:miter;stroke-miterlimit:4;stroke-opacity:1;stroke-dasharray:none;filter:url(#filter3909-6)"
       d="M 108.97651,89.508691 79.934895,118.21077"
       id="path3873"
       inkscape:connector-curvature="0"
       sodipodi:nodetypes="cc"
       clip-path="url(#clipPath3889-6)"
       transform="matrix(1.3568778,0,0,1.3869539,-40.163409,-42.054049)" />
  </g>
</svg>
