<?xml version="1.0" encoding="UTF-8" standalone="no"?>
<!-- Generator: Adobe Illustrator 12.0.0, SVG Export Plug-In . SVG Version: 6.00 Build 51448)  -->
<svg
   xmlns:dc="http://purl.org/dc/elements/1.1/"
   xmlns:cc="http://web.resource.org/cc/"
   xmlns:rdf="http://www.w3.org/1999/02/22-rdf-syntax-ns#"
   xmlns:svg="http://www.w3.org/2000/svg"
   xmlns="http://www.w3.org/2000/svg"
   xmlns:xlink="http://www.w3.org/1999/xlink"
   xmlns:sodipodi="http://sodipodi.sourceforge.net/DTD/sodipodi-0.dtd"
   xmlns:inkscape="http://www.inkscape.org/namespaces/inkscape"
   version="1.0"
   id="Livello_1"
   width="128"
   height="128"
   viewBox="0 0 144 94"
   overflow="visible"
   enable-background="new 0 0 144 94"
   xml:space="preserve"
   sodipodi:version="0.32"
   inkscape:version="0.45.1"
   sodipodi:docname="accessories-character-map.svgz"
   inkscape:output_extension="org.inkscape.output.svgz.inkscape"
   style="overflow:visible"
   sodipodi:docbase="/home/david/Documents/Projects/KDE/Oxygen/kdelibs/scalable/apps/small/16x16"
   inkscape:export-filename="/home/david/Documents/Projects/KDE/Oxygen/kdelibs/scalable/apps/small/16x16/accessories-character-map.png"
   inkscape:export-xdpi="11.25"
   inkscape:export-ydpi="11.25"><metadata
   id="metadata224"><rdf:RDF><cc:Work
       rdf:about=""><dc:format>image/svg+xml</dc:format><dc:type
         rdf:resource="http://purl.org/dc/dcmitype/StillImage" /></cc:Work></rdf:RDF></metadata><defs
   id="defs222"><linearGradient
     gradientTransform="matrix(0.422,0,0,-0.4134,-234.5929,-465.6429)"
     y2="-1271.6509"
     x2="645.9834"
     y1="-1316.9951"
     x1="645.9834"
     gradientUnits="userSpaceOnUse"
     id="linearGradient3521">
	<stop
   id="stop3523"
   style="stop-color:#e4e4e4;stop-opacity:1;"
   offset="0" /><stop
   offset="0.07317445"
   style="stop-color:#bebebe;stop-opacity:1;"
   id="stop3525" /><stop
   id="stop3527"
   style="stop-color:#cdcdcd;stop-opacity:1;"
   offset="0.59006214" />
	<stop
   id="stop3529"
   style="stop-color:#a5a5a5;stop-opacity:1;"
   offset="1" />
</linearGradient><linearGradient
     id="linearGradient3124"><stop
       style="stop-color:#484848;stop-opacity:1;"
       offset="0"
       id="stop3126" /><stop
       style="stop-color:#696969;stop-opacity:1;"
       offset="1"
       id="stop3128" /></linearGradient><filter
     inkscape:collect="always"
     x="-0.22179123"
     width="1.4435825"
     y="-0.10660794"
     height="1.2132159"
     id="filter3460"><feGaussianBlur
       inkscape:collect="always"
       stdDeviation="0.31193415"
       id="feGaussianBlur3462" /></filter><filter
     inkscape:collect="always"
     x="-0.21991603"
     width="1.4398321"
     y="-0.10704668"
     height="1.2140934"
     id="filter3464"><feGaussianBlur
       inkscape:collect="always"
       stdDeviation="0.30861549"
       id="feGaussianBlur3466" /></filter><filter
     inkscape:collect="always"
     x="-0.028919654"
     width="1.0578393"
     y="-0.14108369"
     height="1.2821674"
     id="filter3500"><feGaussianBlur
       inkscape:collect="always"
       stdDeviation="0.33592005"
       id="feGaussianBlur3502" /></filter><linearGradient
     id="XMLID_30_"
     gradientUnits="userSpaceOnUse"
     x1="31.742201"
     y1="17.6504"
     x2="31.742201"
     y2="9.7958002">
		<stop
   offset="0"
   style="stop-color:#FFFFFF"
   id="stop152" /><stop
   id="stop3366"
   style="stop-color:#eaeaea;stop-opacity:1;"
   offset="0.68235296" />
		<stop
   offset="1"
   style="stop-color:#c8c8c8;stop-opacity:1;"
   id="stop154" />
	</linearGradient><linearGradient
     inkscape:collect="always"
     xlink:href="#XMLID_30_"
     id="linearGradient2979"
     gradientUnits="userSpaceOnUse"
     spreadMethod="pad"
     x1="38.033699"
     y1="55.649399"
     x2="38.033699"
     y2="47.795502" /><filter
     inkscape:collect="always"
     id="filter3372"><feGaussianBlur
       inkscape:collect="always"
       stdDeviation="0.3179705"
       id="feGaussianBlur3374" /></filter><linearGradient
     inkscape:collect="always"
     xlink:href="#linearGradient3521"
     id="linearGradient3305"
     gradientUnits="userSpaceOnUse"
     gradientTransform="matrix(1.4772433,0,0,-1.4471262,-882.23226,-1806.3392)"
     x1="645.95471"
     y1="-1322.3207"
     x2="645.95471"
     y2="-1244.7108" /><linearGradient
     inkscape:collect="always"
     xlink:href="#linearGradient3124"
     id="linearGradient3307"
     gradientUnits="userSpaceOnUse"
     gradientTransform="matrix(1.0001646,0,0,1.0001647,-1.1857729e-2,-7.7436968e-3)"
     x1="81.0867"
     y1="109.98982"
     x2="134.98981"
     y2="47.000006" /></defs><sodipodi:namedview
   inkscape:window-height="738"
   inkscape:window-width="794"
   inkscape:pageshadow="2"
   inkscape:pageopacity="0.0"
   guidetolerance="10.0"
   gridtolerance="10.0"
   objecttolerance="10.0"
   borderopacity="1.0"
   bordercolor="#666666"
   pagecolor="#ffffff"
   id="base"
   height="128px"
   width="128px"
   inkscape:zoom="0.125"
   inkscape:cx="64"
   inkscape:cy="64"
   inkscape:window-x="0"
   inkscape:window-y="0"
   inkscape:current-layer="g3047"
   showgrid="false"
   gridspacingx="8px"
   gridspacingy="8px"
   showborder="false"
   gridempspacing="4" />
<filter
   id="AI_Sfocatura_2">
	<feGaussianBlur
   stdDeviation="2"
   id="feGaussianBlur4" />
</filter>
<path
   display="none"
   d="M 89.758,1.8 C 88.983,1.8 88.229,1.945 87.501,2.17 C 86.774,1.945 86.022,1.8 85.248,1.8 L 52.752,1.8 C 51.978,1.8 51.226,1.945 50.499,2.17 C 49.772,1.944 49.02,1.8 48.245,1.8 L 15.755,1.8 C 11.479,1.8 8,5.275 8,9.546 L 8,42.054 C 8,45.72 10.57,48.783 14,49.582 C 14,53.16 14,80.057 14,80.057 C 14,84.327 17.478,87.8 21.752,87.8 L 54.248,87.8 C 55.022,87.8 55.774,87.655 56.5,87.431 C 57.227,87.656 57.979,87.8 58.754,87.8 L 91.241,87.8 C 92.017,87.8 92.77,87.655 93.498,87.431 C 94.225,87.655 94.977,87.8 95.751,87.8 L 128.241,87.8 C 132.518,87.8 135.999,84.326 135.999,80.057 L 135.999,47.546 C 135.999,43.881 133.43,40.818 129.999,40.019 C 129.999,36.442 129.999,9.546 129.999,9.546 C 129.999,5.275 126.521,1.8 122.247,1.8 L 89.758,1.8 L 89.758,1.8 z"
   id="path6"
   style="fill:#ff00bf;display:none" />

<linearGradient
   id="XMLID_35_"
   gradientUnits="userSpaceOnUse"
   x1="72.000504"
   y1="83.799797"
   x2="72.000504"
   y2="5.8003001">
	<stop
   offset="0.0059"
   style="stop-color:#888888"
   id="stop13" />
	<stop
   offset="0.5"
   style="stop-color:#555555"
   id="stop15" />
	<stop
   offset="0.54"
   style="stop-color:#888888"
   id="stop17" />
	<stop
   offset="1"
   style="stop-color:#555555"
   id="stop19" />
</linearGradient>

<linearGradient
   id="rect3785_1_"
   gradientUnits="userSpaceOnUse"
   x1="780.81049"
   y1="-1240.9404"
   x2="780.81049"
   y2="-1195.5962"
   gradientTransform="matrix(0.422,0,0,-0.4134,-223.4874,-472.1986)">
	<stop
   offset="0"
   style="stop-color:#BEBEBE"
   id="stop24" />
	<stop
   offset="1"
   style="stop-color:#EDEDED"
   id="stop26" />
</linearGradient>


<linearGradient
   id="rect3791_1_"
   gradientUnits="userSpaceOnUse"
   x1="708.39648"
   y1="-1240.9404"
   x2="708.39648"
   y2="-1195.5962"
   gradientTransform="matrix(0.422,0,0,-0.4134,-229.9298,-472.1986)">
	<stop
   offset="0"
   style="stop-color:#BEBEBE"
   id="stop38" />
	<stop
   offset="1"
   style="stop-color:#EDEDED"
   id="stop40" />
</linearGradient>


<linearGradient
   id="rect3797_1_"
   gradientUnits="userSpaceOnUse"
   x1="635.9834"
   y1="-1240.9404"
   x2="635.9834"
   y2="-1195.5962"
   gradientTransform="matrix(0.422,0,0,-0.4134,-236.3732,-472.1986)">
	<stop
   offset="0"
   style="stop-color:#BEBEBE"
   id="stop52" />
	<stop
   offset="1"
   style="stop-color:#EDEDED"
   id="stop54" />
</linearGradient>


<linearGradient
   id="rect3929_1_"
   gradientUnits="userSpaceOnUse"
   x1="790.81049"
   y1="-1316.9951"
   x2="790.81049"
   y2="-1271.6509"
   gradientTransform="matrix(0.422,0,0,-0.4134,-221.7071,-465.6429)">
	<stop
   offset="0"
   style="stop-color:#BEBEBE"
   id="stop66" />
	<stop
   offset="1"
   style="stop-color:#EDEDED"
   id="stop68" />
</linearGradient>


<linearGradient
   id="rect3935_1_"
   gradientUnits="userSpaceOnUse"
   x1="718.39838"
   y1="-1316.9951"
   x2="718.39838"
   y2="-1271.6509"
   gradientTransform="matrix(0.422,0,0,-0.4134,-228.1505,-465.6429)">
	<stop
   offset="0"
   style="stop-color:#BEBEBE"
   id="stop80" />
	<stop
   offset="1"
   style="stop-color:#EDEDED"
   id="stop82" />
</linearGradient>


<linearGradient
   id="rect3941_1_"
   gradientUnits="userSpaceOnUse"
   x1="645.9834"
   y1="-1316.9951"
   x2="645.9834"
   y2="-1271.6509"
   gradientTransform="matrix(0.422,0,0,-0.4134,-234.5929,-465.6429)">
	<stop
   offset="0"
   style="stop-color:#e4e4e4;stop-opacity:1;"
   id="stop94" /><stop
   id="stop3516"
   style="stop-color:#bebebe;stop-opacity:1;"
   offset="0.18012393" /><stop
   offset="0.59006214"
   style="stop-color:#cdcdcd;stop-opacity:1;"
   id="stop3376" />
	<stop
   offset="1"
   style="stop-color:#959595;stop-opacity:1;"
   id="stop96" />
</linearGradient>













<path
   id="rect3941"
   d="M 15.122636,-16.009322 L 128.87737,-16.009322 C 132.26242,-16.009322 135.01038,-13.275395 135.01038,-9.8973672 L 135.01038,103.90891 C 135.01038,107.28693 132.26242,110.01036 128.87737,110.01036 L 15.122636,110.01036 C 11.737579,110.01036 8.9896248,107.28343 8.9896248,103.90891 L 8.9896248,-9.8973672 C 8.9896248,-13.275395 11.737579,-16.009322 15.122636,-16.009322 z "
   style="fill:url(#linearGradient3305)" /><path
   style="opacity:0.5;fill:none;stroke:url(#linearGradient3307);stroke-width:2.25;stroke-miterlimit:4;stroke-dasharray:none;stroke-opacity:1"
   d="M 16.147497,-14.875001 L 127.85248,-14.875001 C 131.17657,-14.875001 133.87499,-12.190313 133.87499,-8.8731248 L 133.87499,102.88343 C 133.87499,106.20062 131.17657,108.875 127.85248,108.875 L 16.147497,108.875 C 12.823438,108.875 10.124997,106.19718 10.124997,102.88343 L 10.124997,-8.8731248 C 10.124997,-12.190313 12.823438,-14.875001 16.147497,-14.875001 z "
   id="path2932" /><g
   id="path3943"
   nodetypes="cccsssssscccc"
   transform="matrix(3.3436577,0,0,3.5609716,-55.059066,-177.41386)"
   style="filter:url(#filter3372)">
	
		<radialGradient
   id="XMLID_27_"
   cx="438.85059"
   cy="-1021.27"
   r="40.039001"
   gradientTransform="matrix(0.6404,-8.5e-3,-7.7e-3,-0.6279,-252.0475,-561.7972)"
   gradientUnits="userSpaceOnUse">
		<stop
   offset="0"
   style="stop-color:#E8E8E8"
   id="stop101" />
		<stop
   offset="0.5858"
   style="stop-color:#FFFFFF"
   id="stop103" />
	</radialGradient>
	<path
   d="M 22.112401,47.856 L 21.849,78.087196 C 33.803829,78.087196 42.368842,78.087196 54.15,78.087196 L 53.890692,47.857 L 22.112401,47.856 z "
   id="path105"
   style="fill:url(#XMLID_27_)"
   sodipodi:nodetypes="ccccc" />
</g><path
   style="fill:url(#linearGradient2979);fill-opacity:1;filter:url(#filter3500)"
   id="path122"
   d="M 24.1,48.856 C 23.693,57.45 52.262,55.434 51.971,48.856 C 42.68,48.856 33.39,48.856 24.1,48.856"
   transform="matrix(3.3436577,0,0,5.6084217,-55.059066,-274.08253)" /><g
   transform="matrix(1.0626551,0,0.2439529,1.0588235,-2.0673915,1.470589)"
   id="g3047"
   style="fill:#323232;fill-opacity:1">
	<path
   style="fill:#323232;fill-opacity:1"
   id="path3049"
   d="M 53.687,67.793 C 52.838,70.958 52.154,74.051 51.935,76.209 L 43.95,76.209 L 44.416,72.324 L 44.2,72.324 C 41.31,75.058 37.12,77 32.589,77 C 25.539,77 22.951,71.893 24.378,66.57 C 26.748,57.721 35.784,53.261 48.713,53.334 L 48.867,52.759 C 49.483,50.457 49.57,46.645 43.384,46.645 C 39.932,46.645 36.045,47.724 33.267,49.235 L 33.082,43.48 C 36.096,41.897 41.032,40.387 46.571,40.387 C 57.793,40.387 59.122,47.508 57.079,55.133 L 53.687,67.793 z M 47.387,59.089 C 41.167,58.945 34.83,60.312 33.405,65.635 C 32.48,69.087 34.286,70.67 37.091,70.67 C 40.616,70.67 43.822,68.368 45.288,65.851 C 45.678,65.204 45.942,64.484 46.096,63.909 L 47.387,59.089 z M 54.553016,26 L 53.755572,35.1228 L 43.449079,35.1228 L 41.730523,26 L 54.553016,26 z "
   sodipodi:nodetypes="cccccscccsccscccsscccccccc" />
</g>
</svg>