<?xml version="1.0" encoding="UTF-8" standalone="no"?>
<!-- Created with Inkscape (http://www.inkscape.org/) -->
<svg
   xmlns:dc="http://purl.org/dc/elements/1.1/"
   xmlns:cc="http://web.resource.org/cc/"
   xmlns:rdf="http://www.w3.org/1999/02/22-rdf-syntax-ns#"
   xmlns:svg="http://www.w3.org/2000/svg"
   xmlns="http://www.w3.org/2000/svg"
   xmlns:xlink="http://www.w3.org/1999/xlink"
   xmlns:sodipodi="http://sodipodi.sourceforge.net/DTD/sodipodi-0.dtd"
   xmlns:inkscape="http://www.inkscape.org/namespaces/inkscape"
   width="16"
   height="16"
   id="svg2"
   sodipodi:version="0.32"
   inkscape:version="0.45.1"
   version="1.0"
   sodipodi:docbase="/home/david/Documents/Projects/KDE/Oxygen/kdelibs/scalable/apps/small/16x16"
   sodipodi:docname="accessories-dictionary.svgz"
   inkscape:output_extension="org.inkscape.output.svgz.inkscape">
  <defs
     id="defs4">
    <linearGradient
       inkscape:collect="always"
       id="linearGradient3606">
      <stop
         style="stop-color:#ffffff;stop-opacity:1;"
         offset="0"
         id="stop3608" />
      <stop
         style="stop-color:#dddddd;stop-opacity:1"
         offset="1"
         id="stop3610" />
    </linearGradient>
    <linearGradient
       inkscape:collect="always"
       id="linearGradient3592">
      <stop
         style="stop-color:#000000;stop-opacity:1;"
         offset="0"
         id="stop3594" />
      <stop
         style="stop-color:#000000;stop-opacity:0;"
         offset="1"
         id="stop3596" />
    </linearGradient>
    <linearGradient
       inkscape:collect="always"
       id="linearGradient3582">
      <stop
         style="stop-color:#ffffff;stop-opacity:1;"
         offset="0"
         id="stop3584" />
      <stop
         style="stop-color:#dddddd;stop-opacity:1"
         offset="1"
         id="stop3586" />
    </linearGradient>
    <linearGradient
       id="linearGradient3549">
      <stop
         style="stop-color:#e29390;stop-opacity:1"
         offset="0"
         id="stop3551" />
      <stop
         id="stop3557"
         offset="0.65957445"
         style="stop-color:#a71b1b;stop-opacity:1;" />
      <stop
         style="stop-color:#8a2121;stop-opacity:1;"
         offset="1"
         id="stop3553" />
    </linearGradient>
    <radialGradient
       inkscape:collect="always"
       xlink:href="#linearGradient3549"
       id="radialGradient3559"
       cx="-36.127712"
       cy="14.53337"
       fx="-36.127712"
       fy="14.53337"
       r="47.974007"
       gradientTransform="matrix(0.4524714,0,0,0.5278833,17.739469,-10.895552)"
       gradientUnits="userSpaceOnUse" />
    <linearGradient
       inkscape:collect="always"
       xlink:href="#linearGradient3582"
       id="linearGradient3588"
       x1="8.9042034"
       y1="5"
       x2="8.9042034"
       y2="9.4209986"
       gradientUnits="userSpaceOnUse" />
    <linearGradient
       inkscape:collect="always"
       xlink:href="#linearGradient3592"
       id="linearGradient3598"
       x1="11.322603"
       y1="4.8094378"
       x2="11.322603"
       y2="10.569438"
       gradientUnits="userSpaceOnUse" />
    <linearGradient
       inkscape:collect="always"
       xlink:href="#linearGradient3606"
       id="linearGradient3612"
       x1="8"
       y1="15.8312"
       x2="8"
       y2="14"
       gradientUnits="userSpaceOnUse"
       gradientTransform="matrix(0.8333333,0,0,1,1.3333333,-1)" />
  </defs>
  <sodipodi:namedview
     id="base"
     pagecolor="#ffffff"
     bordercolor="#666666"
     borderopacity="1.0"
     gridtolerance="10000"
     guidetolerance="10"
     objecttolerance="10"
     inkscape:pageopacity="0.0"
     inkscape:pageshadow="2"
     inkscape:zoom="39.0625"
     inkscape:cx="8"
     inkscape:cy="8"
     inkscape:document-units="px"
     inkscape:current-layer="layer1"
     width="16px"
     height="16px"
     showgrid="false"
     gridspacingx="1px"
     gridspacingy="1px"
     gridempspacing="4"
     showborder="false"
     inkscape:window-width="794"
     inkscape:window-height="738"
     inkscape:window-x="0"
     inkscape:window-y="0" />
  <metadata
     id="metadata7">
    <rdf:RDF>
      <cc:Work
         rdf:about="">
        <dc:format>image/svg+xml</dc:format>
        <dc:type
           rdf:resource="http://purl.org/dc/dcmitype/StillImage" />
      </cc:Work>
    </rdf:RDF>
  </metadata>
  <g
     inkscape:label="Layer 1"
     inkscape:groupmode="layer"
     id="layer1">
    <rect
       style="opacity:1;fill:url(#radialGradient3559);fill-opacity:1;stroke:none;stroke-width:4;stroke-linecap:round;stroke-linejoin:round;stroke-miterlimit:4;stroke-dasharray:none;stroke-dashoffset:0;stroke-opacity:1"
       id="rect2578"
       width="12"
       height="14"
       x="2"
       y="1"
       rx="0.92799973"
       ry="0.92799973" />
    <path
       id="path3590"
       d="M 7.4637288,8.3150608 L 7.4637288,8.410125 L 6.1913308,8.410125 L 6.1913308,8.3150608 C 6.3229555,8.3118108 6.4139576,8.2988106 6.4643357,8.2760601 C 6.5147092,8.2516848 6.5398972,8.207809 6.5398999,8.1444326 C 6.5398972,8.0631815 6.5082093,7.951867 6.4448353,7.810489 L 6.2400818,7.3327303 L 4.9335578,7.3327303 L 4.701991,7.9153034 C 4.6759894,7.9851802 4.6629896,8.0501813 4.6629902,8.110307 C 4.6629896,8.1801836 4.6898021,8.2321844 4.7434292,8.2663099 C 4.7970543,8.2988106 4.883181,8.3150609 5.0018092,8.3150608 L 5.0018092,8.410125 L 4.014603,8.410125 L 4.014603,8.3150608 C 4.0796041,8.3118108 4.1307925,8.3028731 4.1681688,8.2882478 C 4.2071689,8.2736226 4.2502323,8.236247 4.2973588,8.1761208 C 4.344484,8.1143699 4.3916098,8.033931 4.4387363,7.9348038 C 4.4874867,7.8356776 4.5524878,7.689425 4.6337397,7.4960458 L 5.6721335,5.0463133 L 5.7720729,5.0463133 L 7.015221,7.8811778 C 7.1013443,8.0664316 7.1695957,8.1834336 7.2199745,8.2321842 C 7.2703473,8.2809353 7.3515985,8.3085608 7.4637288,8.3150608 M 5.0164341,7.1279765 L 6.169393,7.1279765 L 5.5916946,5.7532013 L 5.0164341,7.1279765 M 8.209618,5.0097502 L 8.209618,6.5380907 C 8.2599928,6.4162155 8.350182,6.3154637 8.4801849,6.2358352 C 8.6118116,6.1545859 8.7531891,6.1139602 8.9043182,6.113958 C 9.1545711,6.1139602 9.3633872,6.217962 9.530767,6.4259637 C 9.6981429,6.6323442 9.7818315,6.8890987 9.7818342,7.1962277 C 9.7818315,7.5537352 9.6697045,7.8535529 9.4454526,8.0956818 C 9.2211967,8.3378115 8.9441299,8.458876 8.6142503,8.458876 C 8.4143702,8.458876 8.2266797,8.4255629 8.0511775,8.3589364 C 7.877299,8.2906854 7.7903595,8.2175592 7.7903601,8.1395575 L 7.7903601,5.5484476 C 7.7903595,5.4444487 7.7749223,5.3761975 7.7440465,5.3436938 C 7.7131708,5.3111964 7.6473574,5.294946 7.5466058,5.294943 C 7.5092302,5.294946 7.4807918,5.2965711 7.4612914,5.299818 L 7.4612914,5.219379 L 7.6075444,5.1803784 C 7.8415479,5.1137554 8.0341139,5.0536294 8.1852422,5 L 8.209618,5.0097502 M 8.209618,6.8037831 L 8.209618,8.0615561 C 8.2096167,8.1233076 8.2583677,8.1785585 8.3558704,8.2273091 C 8.453371,8.2760602 8.5663109,8.3004356 8.6946893,8.3004355 C 8.8994415,8.3004356 9.0586943,8.2240593 9.1724477,8.0713063 C 9.2861978,7.918554 9.3430738,7.7040503 9.3430759,7.4277945 C 9.3430738,7.1222902 9.2853856,6.8793485 9.1700103,6.6989686 C 9.0546317,6.5185922 8.8994415,6.4284032 8.7044395,6.4284012 C 8.5760611,6.4284032 8.4614961,6.4665914 8.3607458,6.5429658 C 8.2599928,6.619344 8.2096167,6.706283 8.209618,6.8037831 M 10.067027,7.3473556 C 10.067027,7.1604784 10.097902,6.9882254 10.159654,6.8305961 C 10.221405,6.6729699 10.303469,6.5429677 10.405846,6.4405889 C 10.508222,6.3382141 10.624412,6.2585878 10.754415,6.2017096 C 10.886041,6.1432108 11.021731,6.1139602 11.161484,6.113958 C 11.371112,6.1139602 11.55149,6.1651486 11.702619,6.2675232 C 11.853745,6.3682771 11.929309,6.4885292 11.929311,6.6282799 C 11.929309,6.6851576 11.905746,6.734721 11.858623,6.7769701 C 11.811495,6.8175974 11.755431,6.8379103 11.690432,6.8379087 C 11.638429,6.8379103 11.591303,6.8175974 11.549054,6.7769701 C 11.506802,6.734721 11.475926,6.6786575 11.456428,6.6087795 L 11.42474,6.49909 C 11.400363,6.4064653 11.367049,6.3430892 11.3248,6.3089615 C 11.284173,6.274838 11.219172,6.2577752 11.129796,6.2577731 C 10.928292,6.2577752 10.764976,6.3390267 10.63985,6.5015275 C 10.514722,6.6624072 10.452159,6.8712234 10.452159,7.1279765 C 10.452159,7.4139827 10.52366,7.6479868 10.666663,7.8299894 C 10.81129,8.0103681 10.997355,8.1005571 11.224861,8.1005568 C 11.367862,8.1005571 11.491364,8.0664316 11.595368,7.99818 C 11.699368,7.9283042 11.810682,7.806427 11.929311,7.6325483 L 12,7.6764241 C 11.975622,7.7219256 11.956122,7.7584887 11.941499,7.7861136 C 11.928496,7.8137397 11.902496,7.858428 11.863497,7.9201785 C 11.824495,7.9803051 11.787932,8.0306809 11.753808,8.0713063 C 11.71968,8.1119324 11.67418,8.1590581 11.617306,8.2126839 C 11.562053,8.26631 11.50599,8.3093733 11.449115,8.341874 C 11.392237,8.3743745 11.325611,8.4019999 11.249236,8.4247506 C 11.174483,8.4475007 11.096483,8.458876 11.015232,8.458876 C 10.738976,8.458876 10.511472,8.3548738 10.332719,8.1468702 C 10.155591,7.9388668 10.067027,7.6723622 10.067027,7.3473556"
       style="font-size:7.43064022px;font-style:normal;font-weight:normal;opacity:0.15873018;fill:url(#linearGradient3588);fill-opacity:1;stroke:url(#linearGradient3598);stroke-width:2;stroke-linecap:round;stroke-linejoin:round;stroke-miterlimit:4;stroke-dasharray:none;stroke-opacity:1;font-family:Liberation Serif" />
    <rect
       ry="0.41599974"
       rx="0.41599974"
       y="1.5"
       x="2.5"
       height="13"
       width="11"
       id="rect3565"
       style="opacity:0.32275132;fill:none;fill-opacity:1;stroke:#000000;stroke-width:1;stroke-linecap:round;stroke-linejoin:round;stroke-miterlimit:4;stroke-dasharray:none;stroke-dashoffset:0;stroke-opacity:1" />
    <path
       style="font-size:7.43064022px;font-style:normal;font-weight:normal;opacity:0.77248673;fill:#ffffff;fill-opacity:1;stroke:#ffffff;stroke-width:0.2;stroke-linecap:butt;stroke-linejoin:miter;stroke-miterlimit:4;stroke-dasharray:none;stroke-opacity:1;font-family:Liberation Serif"
       d="M 7.4637288,8.3150608 L 7.4637288,8.410125 L 6.1913308,8.410125 L 6.1913308,8.3150608 C 6.3229555,8.3118108 6.4139576,8.2988106 6.4643357,8.2760601 C 6.5147092,8.2516848 6.5398972,8.207809 6.5398999,8.1444326 C 6.5398972,8.0631815 6.5082093,7.951867 6.4448353,7.810489 L 6.2400818,7.3327303 L 4.9335578,7.3327303 L 4.701991,7.9153034 C 4.6759894,7.9851802 4.6629896,8.0501813 4.6629902,8.110307 C 4.6629896,8.1801836 4.6898021,8.2321844 4.7434292,8.2663099 C 4.7970543,8.2988106 4.883181,8.3150609 5.0018092,8.3150608 L 5.0018092,8.410125 L 4.014603,8.410125 L 4.014603,8.3150608 C 4.0796041,8.3118108 4.1307925,8.3028731 4.1681688,8.2882478 C 4.2071689,8.2736226 4.2502323,8.236247 4.2973588,8.1761208 C 4.344484,8.1143699 4.3916098,8.033931 4.4387363,7.9348038 C 4.4874867,7.8356776 4.5524878,7.689425 4.6337397,7.4960458 L 5.6721335,5.0463133 L 5.7720729,5.0463133 L 7.015221,7.8811778 C 7.1013443,8.0664316 7.1695957,8.1834336 7.2199745,8.2321842 C 7.2703473,8.2809353 7.3515985,8.3085608 7.4637288,8.3150608 M 5.0164341,7.1279765 L 6.169393,7.1279765 L 5.5916946,5.7532013 L 5.0164341,7.1279765 M 8.209618,5.0097502 L 8.209618,6.5380907 C 8.2599928,6.4162155 8.350182,6.3154637 8.4801849,6.2358352 C 8.6118116,6.1545859 8.7531891,6.1139602 8.9043182,6.113958 C 9.1545711,6.1139602 9.3633872,6.217962 9.530767,6.4259637 C 9.6981429,6.6323442 9.7818315,6.8890987 9.7818342,7.1962277 C 9.7818315,7.5537352 9.6697045,7.8535529 9.4454526,8.0956818 C 9.2211967,8.3378115 8.9441299,8.458876 8.6142503,8.458876 C 8.4143702,8.458876 8.2266797,8.4255629 8.0511775,8.3589364 C 7.877299,8.2906854 7.7903595,8.2175592 7.7903601,8.1395575 L 7.7903601,5.5484476 C 7.7903595,5.4444487 7.7749223,5.3761975 7.7440465,5.3436938 C 7.7131708,5.3111964 7.6473574,5.294946 7.5466058,5.294943 C 7.5092302,5.294946 7.4807918,5.2965711 7.4612914,5.299818 L 7.4612914,5.219379 L 7.6075444,5.1803784 C 7.8415479,5.1137554 8.0341139,5.0536294 8.1852422,5 L 8.209618,5.0097502 M 8.209618,6.8037831 L 8.209618,8.0615561 C 8.2096167,8.1233076 8.2583677,8.1785585 8.3558704,8.2273091 C 8.453371,8.2760602 8.5663109,8.3004356 8.6946893,8.3004355 C 8.8994415,8.3004356 9.0586943,8.2240593 9.1724477,8.0713063 C 9.2861978,7.918554 9.3430738,7.7040503 9.3430759,7.4277945 C 9.3430738,7.1222902 9.2853856,6.8793485 9.1700103,6.6989686 C 9.0546317,6.5185922 8.8994415,6.4284032 8.7044395,6.4284012 C 8.5760611,6.4284032 8.4614961,6.4665914 8.3607458,6.5429658 C 8.2599928,6.619344 8.2096167,6.706283 8.209618,6.8037831 M 10.067027,7.3473556 C 10.067027,7.1604784 10.097902,6.9882254 10.159654,6.8305961 C 10.221405,6.6729699 10.303469,6.5429677 10.405846,6.4405889 C 10.508222,6.3382141 10.624412,6.2585878 10.754415,6.2017096 C 10.886041,6.1432108 11.021731,6.1139602 11.161484,6.113958 C 11.371112,6.1139602 11.55149,6.1651486 11.702619,6.2675232 C 11.853745,6.3682771 11.929309,6.4885292 11.929311,6.6282799 C 11.929309,6.6851576 11.905746,6.734721 11.858623,6.7769701 C 11.811495,6.8175974 11.755431,6.8379103 11.690432,6.8379087 C 11.638429,6.8379103 11.591303,6.8175974 11.549054,6.7769701 C 11.506802,6.734721 11.475926,6.6786575 11.456428,6.6087795 L 11.42474,6.49909 C 11.400363,6.4064653 11.367049,6.3430892 11.3248,6.3089615 C 11.284173,6.274838 11.219172,6.2577752 11.129796,6.2577731 C 10.928292,6.2577752 10.764976,6.3390267 10.63985,6.5015275 C 10.514722,6.6624072 10.452159,6.8712234 10.452159,7.1279765 C 10.452159,7.4139827 10.52366,7.6479868 10.666663,7.8299894 C 10.81129,8.0103681 10.997355,8.1005571 11.224861,8.1005568 C 11.367862,8.1005571 11.491364,8.0664316 11.595368,7.99818 C 11.699368,7.9283042 11.810682,7.806427 11.929311,7.6325483 L 12,7.6764241 C 11.975622,7.7219256 11.956122,7.7584887 11.941499,7.7861136 C 11.928496,7.8137397 11.902496,7.858428 11.863497,7.9201785 C 11.824495,7.9803051 11.787932,8.0306809 11.753808,8.0713063 C 11.71968,8.1119324 11.67418,8.1590581 11.617306,8.2126839 C 11.562053,8.26631 11.50599,8.3093733 11.449115,8.341874 C 11.392237,8.3743745 11.325611,8.4019999 11.249236,8.4247506 C 11.174483,8.4475007 11.096483,8.458876 11.015232,8.458876 C 10.738976,8.458876 10.511472,8.3548738 10.332719,8.1468702 C 10.155591,7.9388668 10.067027,7.6723622 10.067027,7.3473556"
       id="text3567" />
    <rect
       ry="0.5"
       rx="0.5"
       y="13"
       x="3"
       height="1"
       width="10"
       id="rect3602"
       style="opacity:0.68253968;fill:url(#linearGradient3612);fill-opacity:1;stroke:none;stroke-width:4;stroke-linecap:round;stroke-linejoin:round;stroke-miterlimit:4;stroke-dasharray:none;stroke-dashoffset:0;stroke-opacity:1" />
  </g>
</svg>
