<?xml version="1.0" encoding="UTF-8" standalone="no"?>
<!-- Created with Inkscape (http://www.inkscape.org/) -->

<svg
   xmlns:dc="http://purl.org/dc/elements/1.1/"
   xmlns:cc="http://creativecommons.org/ns#"
   xmlns:rdf="http://www.w3.org/1999/02/22-rdf-syntax-ns#"
   xmlns:svg="http://www.w3.org/2000/svg"
   xmlns="http://www.w3.org/2000/svg"
   xmlns:xlink="http://www.w3.org/1999/xlink"
   xmlns:sodipodi="http://sodipodi.sourceforge.net/DTD/sodipodi-0.dtd"
   xmlns:inkscape="http://www.inkscape.org/namespaces/inkscape"
   width="128"
   height="128"
   id="svg2606"
   sodipodi:version="0.32"
   inkscape:version="0.48.0 r9654"
   version="1.0"
   sodipodi:docname="application-x-font-bdf.svgz"
   inkscape:output_extension="org.inkscape.output.svgz.inkscape"
   inkscape:export-filename="/home/pinheiro/pics/oxygen-icons/scalable/mimetypes/small/16x16/application-x-font-bdf.png"
   inkscape:export-xdpi="180"
   inkscape:export-ydpi="180">
  <defs
     id="defs2608">
    <linearGradient
       id="linearGradient6131">
      <stop
         id="stop6133"
         offset="0"
         style="stop-color:#fcfcfc;stop-opacity:1" />
      <stop
         style="stop-color:#f8f8f8;stop-opacity:1"
         offset="0.52275378"
         id="stop6135" />
      <stop
         id="stop6141"
         offset="0.77457333"
         style="stop-color:#f0efef;stop-opacity:1;" />
      <stop
         id="stop6139"
         offset="0.90122044"
         style="stop-color:#e3e1e1;stop-opacity:1;" />
      <stop
         id="stop6137"
         offset="1"
         style="stop-color:#cecbcb;stop-opacity:1" />
    </linearGradient>
    <linearGradient
       inkscape:collect="always"
       xlink:href="#linearGradient6131"
       id="linearGradient3893"
       gradientUnits="userSpaceOnUse"
       gradientTransform="matrix(1.0119858,0,0,1.0119858,-0.89554075,-0.9871566)"
       x1="86.73793"
       y1="93.621468"
       x2="95.460213"
       y2="102.34375" />
    <radialGradient
       inkscape:collect="always"
       xlink:href="#linearGradient3913-5"
       id="radialGradient3919-5"
       cx="90.75"
       cy="110.25299"
       fx="90.75"
       fy="110.25299"
       r="18.750002"
       gradientTransform="matrix(1.3067347,0,0,1.3067347,-27.83617,-33.818441)"
       gradientUnits="userSpaceOnUse" />
    <linearGradient
       inkscape:collect="always"
       id="linearGradient3913-5">
      <stop
         style="stop-color:#ffffff;stop-opacity:1;"
         offset="0"
         id="stop3915-4" />
      <stop
         style="stop-color:#ffffff;stop-opacity:0;"
         offset="1"
         id="stop3917-7" />
    </linearGradient>
    <clipPath
       clipPathUnits="userSpaceOnUse"
       id="clipPath3889-6">
      <path
         sodipodi:nodetypes="cscscssc"
         inkscape:connector-curvature="0"
         id="path3891-5"
         d="m 112,82.502986 c 0,4.465301 -2.79749,6.409952 -5.27972,8.093625 -5.10854,3.46508 -14.939114,3.32536 -20.720284,3.40638 -0.081,5.781159 0.16586,15.504599 -3.29922,20.613139 -1.68367,2.48224 -5.29051,5.38687 -8.20078,5.38687 2.31803,0 4.74284,-1.33476 7.58402,-4.08481 9.14197,-8.84873 17.36714,-16.13535 25.673154,-25.297529 C 109.67612,88.503916 112,86.97878 112,82.502986 z"
         style="fill:url(#linearGradient3893);fill-opacity:1;stroke:none" />
    </clipPath>
    <filter
       color-interpolation-filters="sRGB"
       inkscape:collect="always"
       id="filter3909-6">
      <feGaussianBlur
         inkscape:collect="always"
         stdDeviation="0.43040059"
         id="feGaussianBlur3911-9" />
    </filter>
    <linearGradient
       inkscape:collect="always"
       xlink:href="#linearGradient3897-7"
       id="linearGradient3895-3"
       gradientUnits="userSpaceOnUse"
       gradientTransform="matrix(1.3344708,0,0,1.3640502,-37.238647,-42.998247)"
       x1="82.15696"
       y1="90.381706"
       x2="94.220871"
       y2="102.18401" />
    <linearGradient
       id="linearGradient3897-7">
      <stop
         style="stop-color:#fcfcfc;stop-opacity:1"
         offset="0"
         id="stop3899-4" />
      <stop
         id="stop3901-5"
         offset="0.52275378"
         style="stop-color:#f8f8f8;stop-opacity:1" />
      <stop
         style="stop-color:#f0efef;stop-opacity:1;"
         offset="0.72337759"
         id="stop3903-2" />
      <stop
         style="stop-color:#e3e1e1;stop-opacity:1;"
         offset="0.89024991"
         id="stop3905-5" />
      <stop
         style="stop-color:#cecbcb;stop-opacity:1"
         offset="1"
         id="stop3907-4" />
    </linearGradient>
    <clipPath
       clipPathUnits="userSpaceOnUse"
       id="clipPath6093-7">
      <path
         inkscape:connector-curvature="0"
         sodipodi:nodetypes="cccssccc"
         id="path6095-4"
         d="m 17.000001,8 0.782827,110 57.5,0 c 1.675283,0 3.119418,0.18058 4.9,-1.6 8.797935,-8.79794 21.481402,-23.383226 28.739972,-30.707378 2.44056,-2.462612 2.80096,-4.47117 2.80096,-6.724043 L 110,8 z"
         style="fill:#ffffff;fill-opacity:1" />
    </clipPath>
    <radialGradient
       inkscape:collect="always"
       xlink:href="#linearGradient5982-7"
       id="radialGradient5988-0"
       cx="68.138977"
       cy="89.42041"
       fx="67.932365"
       fy="72.691223"
       r="47.5"
       gradientTransform="matrix(1.5860719,-0.07936281,0.06485072,1.2953772,-41.872296,-14.425457)"
       gradientUnits="userSpaceOnUse" />
    <linearGradient
       inkscape:collect="always"
       id="linearGradient5982-7">
      <stop
         style="stop-color:#ffffff;stop-opacity:1;"
         offset="0"
         id="stop5984-8" />
      <stop
         style="stop-color:#ffffff;stop-opacity:0;"
         offset="1"
         id="stop5986-6" />
    </linearGradient>
    <filter
       color-interpolation-filters="sRGB"
       inkscape:collect="always"
       id="filter6171-8"
       x="-0.47870937"
       width="1.9574188"
       y="-0.51275069"
       height="2.0255013">
      <feGaussianBlur
         inkscape:collect="always"
         stdDeviation="10.140743"
         id="feGaussianBlur6173-8" />
    </filter>
    <linearGradient
       inkscape:collect="always"
       xlink:href="#linearGradient4518-3"
       id="linearGradient4524-4"
       x1="47.236164"
       y1="22.150356"
       x2="72"
       y2="116.40091"
       gradientUnits="userSpaceOnUse"
       gradientTransform="matrix(0.94173025,0,0,0.94148681,3.5162756,3.1457312)" />
    <linearGradient
       id="linearGradient4518-3">
      <stop
         style="stop-color:#eeecec;stop-opacity:1"
         offset="0"
         id="stop4520-1" />
      <stop
         id="stop5969-4"
         offset="0.40000001"
         style="stop-color:#f4f4f4;stop-opacity:1" />
      <stop
         style="stop-color:#f6f5f5;stop-opacity:1"
         offset="1"
         id="stop4522-9" />
    </linearGradient>
    <filter
       inkscape:collect="always"
       id="filter4123">
      <feGaussianBlur
         inkscape:collect="always"
         stdDeviation="2.028"
         id="feGaussianBlur4125" />
    </filter>
    <filter
       inkscape:collect="always"
       id="filter3822">
      <feGaussianBlur
         inkscape:collect="always"
         stdDeviation="2.7153804"
         id="feGaussianBlur3824" />
    </filter>
    <filter
       inkscape:collect="always"
       id="filter3827"
       x="-0.084733292"
       width="1.1694666"
       y="-0.10505005"
       height="1.2101001">
      <feGaussianBlur
         inkscape:collect="always"
         stdDeviation="2.1734796"
         id="feGaussianBlur3829" />
    </filter>
    <linearGradient
       y2="26"
       x2="79.5"
       y1="63.5"
       x1="79"
       spreadMethod="reflect"
       gradientTransform="matrix(1.5227785,0,0,0.21726445,87.942746,76.242454)"
       gradientUnits="userSpaceOnUse"
       id="linearGradient3346"
       xlink:href="#linearGradient3264"
       inkscape:collect="always" />
    <linearGradient
       id="linearGradient3342-6"
       inkscape:collect="always"
       gradientTransform="matrix(4.8383621,0,0,0.17253915,35.737075,0)"
       x1="25.679031"
       y1="255.00529"
       x2="37.328205"
       y2="255.00529"
       gradientUnits="userSpaceOnUse">
      <stop
         id="stop3344"
         offset="0"
         style="stop-color:#000000;stop-opacity:1;" />
      <stop
         id="stop3346"
         offset="1"
         style="stop-color:#000000;stop-opacity:0;" />
    </linearGradient>
    <linearGradient
       id="linearGradient3334"
       inkscape:collect="always"
       gradientTransform="matrix(4.5867409,0,0,0.17734072,33.958189,0)"
       x1="26.600897"
       y1="394.6853"
       x2="37.950912"
       y2="394.6853"
       gradientUnits="userSpaceOnUse">
      <stop
         id="stop3336"
         offset="0"
         style="stop-color:#000000;stop-opacity:1;" />
      <stop
         id="stop3338"
         offset="1"
         style="stop-color:#000000;stop-opacity:0;" />
    </linearGradient>
    <linearGradient
       id="linearGradient3264"
       inkscape:collect="always">
      <stop
         id="stop3266"
         offset="0"
         style="stop-color:#000000;stop-opacity:1;" />
      <stop
         id="stop3268"
         offset="1"
         style="stop-color:#000000;stop-opacity:0;" />
    </linearGradient>
    <linearGradient
       id="linearGradient3180">
      <stop
         style="stop-color:#1c1c1c;stop-opacity:1;"
         offset="0"
         id="stop3182" />
      <stop
         id="stop3188"
         offset="0.5"
         style="stop-color:#888888;stop-opacity:1;" />
      <stop
         style="stop-color:#000000;stop-opacity:1;"
         offset="1"
         id="stop3184" />
    </linearGradient>
    <clipPath
       id="clipPath3588"
       clipPathUnits="userSpaceOnUse">
      <path
         sodipodi:nodetypes="ccssscccccc"
         inkscape:connector-curvature="0"
         id="path3590"
         d="m 146.37675,19.999372 c -0.25489,0 -0.375,0.175964 -0.375,0.375001 l 0,82.476767 c 0,0.61619 0.50958,1.11468 1.125,1.125 l 46.12512,0.7735 c 0.0398,6.7e-4 2.45542,-0.006 2.97263,3e-5 4.90574,-3.37775 11.97595,-13.465023 18.68489,-20.216397 1.10764,-1.242371 0.3432,-0.277554 1.09044,-1.205598 l 4e-5,-62.953282 c 0,-0.242038 -0.12241,-0.375001 -0.375,-0.375001 z"
         style="opacity:0.84653476;fill:url(#radialGradient3592);fill-opacity:1" />
    </clipPath>
    <filter
       height="1.408259"
       y="-0.2041295"
       width="1.3293014"
       x="-0.16465071"
       id="filter4087"
       inkscape:collect="always">
      <feGaussianBlur
         id="feGaussianBlur4089"
         stdDeviation="4.2234282"
         inkscape:collect="always" />
    </filter>
    <linearGradient
       id="linearGradient4518-3-0">
      <stop
         id="stop4520-1-6"
         offset="0"
         style="stop-color:#eeecec;stop-opacity:1" />
      <stop
         style="stop-color:#f4f4f4;stop-opacity:1"
         offset="0.40000001"
         id="stop5969-4-8" />
      <stop
         id="stop4522-9-9"
         offset="1"
         style="stop-color:#f6f5f5;stop-opacity:1" />
    </linearGradient>
    <filter
       height="2.0255013"
       y="-0.51275069"
       width="1.9574188"
       x="-0.47870937"
       id="filter6171-8-4"
       inkscape:collect="always"
       color-interpolation-filters="sRGB">
      <feGaussianBlur
         id="feGaussianBlur6173-8-9"
         stdDeviation="10.140743"
         inkscape:collect="always" />
    </filter>
    <clipPath
       id="clipPath6093-7-6"
       clipPathUnits="userSpaceOnUse">
      <path
         style="fill:#ffffff;fill-opacity:1"
         d="m 17.000001,8 0.782827,110 57.5,0 c 1.675283,0 3.119418,0.18058 4.9,-1.6 C 88.980763,107.60206 99.94047,96.548195 107.19904,89.224043 109.6396,86.761431 110,84.752873 110,82.5 L 110,8 z"
         id="path6095-4-8"
         sodipodi:nodetypes="cccssccc"
         inkscape:connector-curvature="0" />
    </clipPath>
    <linearGradient
       id="linearGradient3897-7-4">
      <stop
         id="stop3899-4-4"
         offset="0"
         style="stop-color:#fcfcfc;stop-opacity:1" />
      <stop
         style="stop-color:#f8f8f8;stop-opacity:1"
         offset="0.52275378"
         id="stop3901-5-3" />
      <stop
         id="stop3903-2-0"
         offset="0.72337759"
         style="stop-color:#f0efef;stop-opacity:1;" />
      <stop
         id="stop3905-5-7"
         offset="0.89024991"
         style="stop-color:#e3e1e1;stop-opacity:1;" />
      <stop
         id="stop3907-4-8"
         offset="1"
         style="stop-color:#cecbcb;stop-opacity:1" />
    </linearGradient>
    <filter
       id="filter3909-6-5"
       inkscape:collect="always"
       color-interpolation-filters="sRGB">
      <feGaussianBlur
         id="feGaussianBlur3911-9-4"
         stdDeviation="0.43040059"
         inkscape:collect="always" />
    </filter>
    <clipPath
       id="clipPath3889-6-5"
       clipPathUnits="userSpaceOnUse">
      <path
         style="fill:url(#linearGradient3893-6);fill-opacity:1;stroke:none"
         d="m 112,82.502986 c 0,4.465301 -2.79749,6.409952 -5.27972,8.093625 -5.10854,3.46508 -14.939114,3.32536 -20.720284,3.40638 -0.081,5.781159 0.16586,15.504599 -3.29922,20.613139 -1.68367,2.48224 -5.29051,5.38687 -8.20078,5.38687 2.31803,0 4.74284,-1.33476 7.58402,-4.08481 9.14197,-8.84873 17.36714,-16.13535 25.673154,-25.297529 C 109.67612,88.503916 112,86.97878 112,82.502986 z"
         id="path3891-5-2"
         inkscape:connector-curvature="0"
         sodipodi:nodetypes="cscscssc" />
    </clipPath>
    <linearGradient
       id="linearGradient3913-5-3"
       inkscape:collect="always">
      <stop
         id="stop3915-4-7"
         offset="0"
         style="stop-color:#ffffff;stop-opacity:1;" />
      <stop
         id="stop3917-7-4"
         offset="1"
         style="stop-color:#ffffff;stop-opacity:0;" />
    </linearGradient>
    <radialGradient
       gradientUnits="userSpaceOnUse"
       gradientTransform="matrix(1.3067347,0,0,1.3067347,-27.83617,-33.818441)"
       r="18.750002"
       fy="110.25299"
       fx="90.75"
       cy="110.25299"
       cx="90.75"
       id="radialGradient3919-5-9"
       xlink:href="#linearGradient3913-5-3"
       inkscape:collect="always" />
    <linearGradient
       y2="102.34375"
       x2="95.460213"
       y1="93.621468"
       x1="86.73793"
       gradientTransform="matrix(1.0119858,0,0,1.0119858,-0.89554075,-0.9871566)"
       gradientUnits="userSpaceOnUse"
       id="linearGradient3893-6"
       xlink:href="#linearGradient6131-5"
       inkscape:collect="always" />
    <linearGradient
       id="linearGradient6131-5">
      <stop
         style="stop-color:#fcfcfc;stop-opacity:1"
         offset="0"
         id="stop6133-5" />
      <stop
         id="stop6135-4"
         offset="0.52275378"
         style="stop-color:#f8f8f8;stop-opacity:1" />
      <stop
         style="stop-color:#f0efef;stop-opacity:1;"
         offset="0.77457333"
         id="stop6141-7" />
      <stop
         style="stop-color:#e3e1e1;stop-opacity:1;"
         offset="0.90122044"
         id="stop6139-6" />
      <stop
         style="stop-color:#cecbcb;stop-opacity:1"
         offset="1"
         id="stop6137-5" />
    </linearGradient>
    <linearGradient
       inkscape:collect="always"
       xlink:href="#linearGradient3264"
       id="linearGradient3296"
       gradientUnits="userSpaceOnUse"
       gradientTransform="matrix(2.2953917,0,0,0.32749807,-95.786951,72.591605)"
       spreadMethod="reflect"
       x1="79"
       y1="63.5"
       x2="79.5"
       y2="26" />
    <linearGradient
       inkscape:collect="always"
       xlink:href="#linearGradient3264"
       id="linearGradient3299"
       gradientUnits="userSpaceOnUse"
       gradientTransform="matrix(2.9581948,0,0,1.3542657,-201.7056,-27.888039)"
       spreadMethod="reflect"
       x1="79"
       y1="63.5"
       x2="79.5"
       y2="26" />
    <linearGradient
       inkscape:collect="always"
       xlink:href="#linearGradient3342-6"
       id="linearGradient3302"
       gradientUnits="userSpaceOnUse"
       gradientTransform="matrix(7.2932053,0,0,0.26008046,-174.48025,-42.334036)"
       x1="25.679031"
       y1="255.00529"
       x2="37.328205"
       y2="255.00529" />
    <linearGradient
       inkscape:collect="always"
       xlink:href="#linearGradient3334"
       id="linearGradient3311"
       gradientUnits="userSpaceOnUse"
       gradientTransform="matrix(7.7990605,0,0,0.26731821,-183.93034,-44.53069)"
       x1="32.815536"
       y1="405.99811"
       x2="37.944359"
       y2="376.07123" />
    <linearGradient
       inkscape:collect="always"
       xlink:href="#linearGradient3264"
       id="linearGradient3314"
       gradientUnits="userSpaceOnUse"
       gradientTransform="matrix(8.0241907e-8,-2.7710229,1.0499096,-1.990907e-7,-15.271538,314.17508)"
       spreadMethod="reflect"
       x1="79"
       y1="63.5"
       x2="79.5"
       y2="26" />
    <linearGradient
       inkscape:collect="always"
       xlink:href="#linearGradient3264"
       id="linearGradient3320"
       gradientUnits="userSpaceOnUse"
       gradientTransform="matrix(2.9827191,0,0,1.1317456,-158.64851,-13.974231)"
       spreadMethod="reflect"
       x1="79"
       y1="63.5"
       x2="79.5"
       y2="26" />
    <linearGradient
       inkscape:collect="always"
       xlink:href="#linearGradient3180"
       id="linearGradient3323"
       gradientUnits="userSpaceOnUse"
       gradientTransform="matrix(1.3008303,0,0,1.3008303,-28.567844,-17.658709)"
       x1="61.149742"
       y1="8.8670044"
       x2="61.149742"
       y2="111.16158" />
  </defs>
  <sodipodi:namedview
     id="base"
     pagecolor="#ffffff"
     bordercolor="#666666"
     borderopacity="1.0"
     inkscape:pageopacity="0.0"
     inkscape:pageshadow="2"
     inkscape:zoom="2.8284271"
     inkscape:cx="46.055674"
     inkscape:cy="35.935753"
     inkscape:document-units="px"
     inkscape:current-layer="layer1"
     width="128px"
     height="128px"
     showgrid="true"
     inkscape:grid-points="true"
     showguides="true"
     inkscape:guide-bbox="true"
     inkscape:window-width="1224"
     inkscape:window-height="757"
     inkscape:window-x="201"
     inkscape:window-y="270"
     inkscape:snap-global="true"
     inkscape:window-maximized="0"
     inkscape:snap-page="true">
    <inkscape:grid
       id="GridFromPre046Settings"
       type="xygrid"
       originx="0px"
       originy="0px"
       spacingx="8px"
       spacingy="8px"
       color="#0000ff"
       empcolor="#0000ff"
       opacity="0.2"
       empopacity="0.4"
       empspacing="2"
       visible="true"
       enabled="true"
       snapvisiblegridlinesonly="true" />
    <sodipodi:guide
       orientation="1,0"
       position="-68,29.325902"
       id="guide4564" />
    <sodipodi:guide
       orientation="1,0"
       position="-121.62237,135.0574"
       id="guide3859" />
    <sodipodi:guide
       orientation="0,1"
       position="38.581514,-74.688154"
       id="guide4360" />
  </sodipodi:namedview>
  <metadata
     id="metadata2611">
    <rdf:RDF>
      <cc:Work
         rdf:about="">
        <dc:format>image/svg+xml</dc:format>
        <dc:type
           rdf:resource="http://purl.org/dc/dcmitype/StillImage" />
        <dc:title></dc:title>
      </cc:Work>
    </rdf:RDF>
  </metadata>
  <g
     inkscape:label="Livello 1"
     inkscape:groupmode="layer"
     id="layer1">
    <rect
       style="fill:#000000;fill-opacity:0.00392157000000000;stroke:none;opacity:0.01"
       id="rect3854"
       width="128"
       height="128"
       x="0"
       y="0" />
    <path
       style="opacity:0.45606695;fill:#000000;fill-opacity:1;filter:url(#filter4123)"
       d="m 13.333,5.3364 0,118.3304 49.8545,-0.0668 c 2.115554,-0.003 4.528919,-1.77169 7,-4.25 0.71234,-0.71442 1.440746,-1.39395 2.15625,-2.09375 0.415612,-0.40649 0.832187,-0.81443 1.25,-1.21875 7.773958,-7.40962 26.98341,-25.122599 34.21875,-33.099999 0.42065,-0.42064 0.81207,-0.8111 1.15625,-1.1875 1.46444,-1.49766 2.76158,-2.8378 2.99375,-5.8625 L 112,75.156251 111.9972,5.3364 z"
       id="path5990"
       inkscape:connector-curvature="0"
       sodipodi:nodetypes="ccsssccccccc"
       transform="matrix(0.94173025,0,0,0.94148681,3.5162752,3.1457285)" />
    <path
       transform="matrix(0.94173025,0,0,0.94148681,3.5162752,3.1457285)"
       style="fill:#000000;fill-opacity:1;filter:url(#filter3822)"
       d="m 12.96875,3.4375 c -1.48e-4,0.010416 -1.48e-4,0.020834 0,0.03125 -0.921246,0.1949457 -1.534484,0.9333582 -1.53125,1.875 l 0,118.73736 c -1.48e-4,0.0104 -1.48e-4,0.0209 0,0.0313 0.01925,1.0723 0.80288,1.85562 1.875,1.875 0.01042,1.5e-4 0.02083,1.5e-4 0.03125,0 l 52.529063,0 c 1.658286,0 4.069886,0.24689 7.15625,-1.84375 0.09606,-0.0692 0.180839,-0.15394 0.25,-0.25 -0.05642,0.0503 -0.118387,0.22919 0.0625,-0.0625 0.05493,-0.0473 0.106764,-0.0903 0.1875,-0.15625 0.219835,-0.17951 0.516782,-0.38621 0.78125,-0.59375 0.264468,-0.20754 0.493455,-0.39466 0.65625,-0.53125 0.0407,-0.0341 0.0777,-0.0491 0.125,-0.0937 0.02365,-0.0223 0.04509,-0.0687 0.09375,-0.125 0.02433,-0.0281 0.07533,-0.0459 0.125,-0.125 0.01159,-0.0185 0.01274,-0.0566 0.03125,-0.0937 9.792927,-9.35059 27.456717,-28.634354 38.499997,-39.8125 1.71056,-1.710561 3.78125,-3.905917 3.78125,-8.5625 l 0,-68.39361 c 1.5e-4,-0.010416 1.5e-4,-0.020834 0,-0.03125 -0.0194,-1.0720969 -0.80283,-1.8556268 -1.875,-1.875 -0.0104,-1.484e-4 -0.0209,-1.484e-4 -0.0313,0 l -102.27906,0 c -0.03303,-0.00313 -0.06067,0.00142 -0.09375,0 -0.08821,-0.00379 -0.161926,-0.00834 -0.25,0 -0.04162,-0.00237 -0.08338,-0.00237 -0.125,0 z"
       id="path3314"
       inkscape:connector-curvature="0"
       sodipodi:nodetypes="cccccccsccccscsccccsccccccccc" />
    <path
       style="fill:#ffffff;fill-opacity:1"
       d="m 16.072365,8.0771252 0,111.4992648 49.707827,-0.0771 c 1.577682,0 3.686257,-0.53663 6.592193,-3.42109 8.353294,-8.2916 30.207015,-29.952167 37.042715,-36.912327 2.29836,-2.340224 2.82611,-4.248961 2.82611,-6.389865 L 112.23821,8 z"
       id="path34"
       sodipodi:nodetypes="cccssccc"
       inkscape:connector-curvature="0" />
    <path
       style="fill:url(#linearGradient4524-4);fill-opacity:1"
       d="m 22.330709,13.864607 c -0.32004,0 -0.470863,0.220889 -0.470863,0.470743 l 0,98.04132 c 0,0.7735 0.639738,1.41283 1.412596,1.41224 l 38.774516,-0.0295 c 0.04998,-4e-5 0.763164,0.022 1.412595,0.0295 1.67408,-0.0377 2.949474,-0.70964 4.10221,-1.50006 0.990574,-0.274 27.991428,-26.655867 36.581047,-35.307802 1.28302,-1.292303 2.05813,-3.71715 2.05813,-4.609153 l 0,-58.036545 c 0,-0.303834 -0.15371,-0.470743 -0.47087,-0.470743 z"
       id="path3967"
       inkscape:connector-curvature="0"
       sodipodi:nodetypes="ccsssccscccc" />
    <path
       sodipodi:nodetypes="ccssscccccc"
       inkscape:connector-curvature="0"
       id="path5980"
       d="m 26.330709,17.864607 c -0.32004,0 -0.470863,0.220889 -0.470863,0.470743 l -4,94.04132 c -0.03287,0.77281 0.639752,1.40754 1.412596,1.41224 l 43.527137,0.26444 c 0.04998,3e-4 3.083114,-0.007 3.732546,4e-5 6.159831,-4.24013 28.87563,-26.117493 37.299625,-34.592579 0.61903,-0.694148 0.43093,-0.348416 1.36919,-1.513403 l 0,-63.612058 c 0,-0.303834 -0.15371,-0.470743 -0.47087,-0.470743 z"
       style="opacity:0.84653476;fill:url(#radialGradient5988-0);fill-opacity:1" />
    <path
       style="fill:#000000"
       d=""
       id="path2197" />
    <path
       clip-path="url(#clipPath6093-7)"
       style="opacity:0.34728035;fill:#000000;fill-opacity:1;stroke:none;filter:url(#filter6171-8)"
       d="m 116.12376,78.971565 c 0,4.465301 -6.19771,3.506816 -8.67994,5.190489 -5.10854,3.46508 -20.174687,2.225237 -25.955857,2.306257 -0.081,5.781159 -0.937221,19.675219 -0.937221,25.825239 0,2.97817 -3.440475,11.20945 -6.350745,11.20945 -2.091359,1.5337 3.488204,8.21101 6.734971,5.31989 9.501888,-8.46107 35.131682,-30.022704 43.350822,-39.262889 2.04044,-2.29392 -3.18138,-13.376087 -8.16203,-10.588436 z"
       id="path6153"
       inkscape:connector-curvature="0"
       sodipodi:nodetypes="cscscssc"
       transform="matrix(1.1813248,0,0,1.2086603,-24.263752,-24.510815)" />
    <g
       id="g3325">
      <path
         sodipodi:nodetypes="cccccccccccccccccccccccccccccccccc"
         id="rect3266"
         d="m 40.000007,24 0,8.000001 31.999988,0 0,-8.000001 z m 31.999988,8.000001 0,23.999999 -31.999988,0 0,8.000001 31.999988,0 0,23.999999 7.999993,0 0,-55.999999 z M 79.999988,88 l 0,8 8.000008,0 0,-8 z m -7.999993,0 -31.999988,0 0,8 31.999988,0 z m -31.999988,0 0,-23.999999 -7.999993,0 L 31.941076,88 z m 0,-55.999999 -7.999993,0 0.08396,8.010278 7.915973,-0.01025 z"
         style="fill:url(#linearGradient3323);fill-opacity:1;stroke:none"
         inkscape:connector-curvature="0" />
      <path
         inkscape:connector-curvature="0"
         id="path3262"
         d="M 78.255203,15.364928 A 1.5586703,0.6240635 0 0 0 76.986283,16 l 0,83.766258 A 1.5586703,0.6240635 0 0 0 78.731065,100.40134 1.5586703,0.6240635 0 0 0 80,99.766258 L 80,16 a 1.5586703,0.6240635 0 0 0 -0.476088,-0.444552 1.5586703,0.6240635 0 0 0 -1.268935,-0.190527 z"
         style="font-size:medium;font-style:normal;font-variant:normal;font-weight:normal;font-stretch:normal;text-indent:0;text-align:start;text-decoration:none;line-height:normal;letter-spacing:normal;word-spacing:normal;text-transform:none;direction:ltr;block-progression:tb;writing-mode:lr-tb;text-anchor:start;baseline-shift:baseline;opacity:0.52524689;color:#000000;fill:url(#linearGradient3320);fill-opacity:1;stroke:none;stroke-width:0.61410272;marker:none;visibility:visible;display:inline;overflow:visible;enable-background:accumulate;font-family:Sans;-inkscape-font-specification:Sans" />
      <path
         inkscape:connector-curvature="0"
         id="path3280"
         d="m 12.321621,92.329319 a 0.57342557,1.5876888 0 0 0 -0.06437,0.178158 0.57342557,1.5876888 0 0 0 -0.257338,1.781403 0.57342557,1.5876888 0 0 0 0.128579,0.712558 0.57342557,1.5876888 0 0 0 0.193003,0.356287 0.57342557,1.5876888 0 0 0 0.257369,0.178158 l 77.6571,0 a 0.57342557,1.5876888 0 0 0 0.257354,-0.178158 0.57342557,1.5876888 0 0 0 0.321688,-1.425126 0.57342557,1.5876888 0 0 0 -0.06421,-0.890702 0.57342557,1.5876888 0 0 0 -0.128579,-0.356284 0.57342557,1.5876888 0 0 0 -0.193004,-0.356286 0.57342557,1.5876888 0 0 0 -0.193019,0 l -77.657115,0 a 0.57342557,1.5876888 0 0 0 -0.257354,0 z"
         style="font-size:medium;font-style:normal;font-variant:normal;font-weight:normal;font-stretch:normal;text-indent:0;text-align:start;text-decoration:none;line-height:normal;letter-spacing:normal;word-spacing:normal;text-transform:none;direction:ltr;block-progression:tb;writing-mode:lr-tb;text-anchor:start;baseline-shift:baseline;opacity:0.41549383;color:#000000;fill:url(#linearGradient3314);fill-opacity:1;stroke:none;stroke-width:0.55698013;marker:none;visibility:visible;display:inline;overflow:visible;enable-background:accumulate;font-family:Sans;-inkscape-font-specification:Sans" />
      <path
         inkscape:connector-curvature="0"
         id="path3300"
         d="m 13.199303,23.990269 a 0.4590093,1.4645597 0 0 0 -0.210836,0.336351 0.4590093,1.4645597 0 0 0 -0.05276,0.1682 0.4590093,1.4645597 0 0 0 -0.105516,0.504552 0.4590093,1.4645597 0 0 0 0,1.009112 0.4590093,1.4645597 0 0 0 0.105516,0.504554 0.4590093,1.4645597 0 0 0 0.316261,0.504542 l 84.074279,0 a 0.4590093,1.4645597 0 0 0 0.263534,-0.336352 0.4590093,1.4645597 0 0 0 0.158138,-0.840925 0.4590093,1.4645597 0 0 0 -0.105516,-1.345474 0.4590093,1.4645597 0 0 0 -0.316156,-0.504554 l -84.074249,0 a 0.4590093,1.4645597 0 0 0 -0.05276,0 z"
         style="font-size:medium;font-style:normal;font-variant:normal;font-weight:normal;font-stretch:normal;text-indent:0;text-align:start;text-decoration:none;line-height:normal;letter-spacing:normal;word-spacing:normal;text-transform:none;direction:ltr;block-progression:tb;writing-mode:lr-tb;text-anchor:start;baseline-shift:baseline;opacity:0.13327164;color:#000000;fill:url(#linearGradient3302);fill-opacity:1;stroke:none;stroke-width:0.54419649;marker:none;visibility:visible;display:inline;overflow:visible;enable-background:accumulate;font-family:Sans;-inkscape-font-specification:Sans" />
      <path
         inkscape:connector-curvature="0"
         id="path3304"
         d="M 32.861266,7.3096001 A 1.4788678,0.71126868 0 0 0 32,8 l 0,100.24613 a 1.5072523,0.72492039 0 0 0 3.014485,0 L 35.014485,8 A 1.4788678,0.71126868 0 0 0 34.583649,7.5167249 1.4788678,0.71126868 0 0 0 32.861101,7.3096032 z"
         style="font-size:medium;font-style:normal;font-variant:normal;font-weight:normal;font-stretch:normal;text-indent:0;text-align:start;text-decoration:none;line-height:normal;letter-spacing:normal;word-spacing:normal;text-transform:none;direction:ltr;block-progression:tb;writing-mode:lr-tb;text-anchor:start;baseline-shift:baseline;opacity:0.28614197;color:#000000;fill:url(#linearGradient3299);fill-opacity:1;stroke:none;stroke-width:0.64382714;marker:none;visibility:visible;display:inline;overflow:visible;enable-background:accumulate;font-family:Sans;-inkscape-font-specification:Sans" />
      <path
         inkscape:connector-curvature="0"
         id="path3308"
         d="m 86.070652,80.775382 a 1.4572296,0.50827147 0 0 0 -0.177478,0.06188 1.4572296,0.50827147 0 0 0 -0.17701,0.06188 1.4572296,0.50827147 0 0 0 -0.532328,0.309326 1.4572296,0.50827147 0 0 0 0,0.06188 l 0,24.25099 a 1.4572296,0.50827147 0 0 0 0,0.0619 1.4572296,0.50827147 0 0 0 0.532328,0.30931 1.4572296,0.50827147 0 0 0 0.354488,0.0619 1.4572296,0.50827147 0 0 0 0.709519,0.0619 1.4572296,0.50827147 0 0 0 0.709429,-0.0619 1.4572296,0.50827147 0 0 0 0.354489,-0.12371 1.4572296,0.50827147 0 0 0 0.177025,-0.12371 1.4572296,0.50827147 0 0 0 0.177463,-0.18559 l 0,-24.250989 a 1.4572296,0.50827147 0 0 0 -0.354941,-0.30932 1.4572296,0.50827147 0 0 0 -0.177025,-0.06188 1.4572296,0.50827147 0 0 0 -1.064234,-0.12374 1.4572296,0.50827147 0 0 0 -0.532313,0 z"
         style="font-size:medium;font-style:normal;font-variant:normal;font-weight:normal;font-stretch:normal;text-indent:0;text-align:start;text-decoration:none;line-height:normal;letter-spacing:normal;word-spacing:normal;text-transform:none;direction:ltr;block-progression:tb;writing-mode:lr-tb;text-anchor:start;baseline-shift:baseline;opacity:0.30966049;color:#000000;fill:url(#linearGradient3296);fill-opacity:1;stroke:none;stroke-width:0.51343924;marker:none;visibility:visible;display:inline;overflow:visible;enable-background:accumulate;font-family:Sans;-inkscape-font-specification:Sans" />
    </g>
    <path
       sodipodi:nodetypes="cscscssc"
       inkscape:connector-curvature="0"
       id="path6081"
       d="m 113.9,82.502986 c 0,4.465301 -10.43981,5.304142 -13.42995,5.727919 -6.394979,0.906328 -14.119031,-0.156997 -19.900201,-0.07598 -0.505268,6.06824 0.8669,24.053992 1.224403,26.575982 0.418175,2.94999 -3.883991,8.07209 -6.794261,8.07209 -2.091359,1.5337 3.488204,11.21101 6.734971,8.31989 C 91.23685,122.66182 127.7339,100.92151 135.95304,91.681321 137.99348,89.387401 118.88065,79.715335 113.9,82.502986 z"
       style="fill:#000000;fill-opacity:1;stroke:none;filter:url(#filter3827)"
       clip-path="url(#clipPath6093-7)"
       transform="matrix(1.2864191,0,0,1.3161866,-33.246593,-37.128335)" />
    <path
       style="fill:url(#linearGradient3895-3);fill-opacity:1;stroke:none"
       d="m 111.63282,69.537665 c 0,6.018752 -3.68896,8.639938 -6.96218,10.909345 -6.736467,4.670565 -20.601656,3.681674 -28.225086,3.790881 -0.106814,7.792391 0.681931,20.811609 -3.887352,27.697379 -2.220198,3.3458 -6.53768,8.14845 -10.375353,8.14845 3.056706,0 6.25422,-1.79911 10.000786,-5.50589 12.055202,-11.92716 22.901451,-21.748749 33.854305,-34.098401 2.53047,-2.853145 5.59488,-4.908872 5.59488,-10.941764 z"
       id="path6011"
       inkscape:connector-curvature="0"
       sodipodi:nodetypes="cscscssc" />
    <path
       style="fill:#ffffff;fill-opacity:1;stroke:none"
       d="m 110.71058,68.281346 c -0.41723,5.255588 -4.27313,7.093026 -6.37262,8.548644 C 99.360203,80.281173 92.747881,80 72,80 c 0,19.101497 0.485919,27.6002 -3.129233,32.26786 -2.152106,2.77868 -6.461106,5.87696 -9.97277,6.67209 4.811835,0 8.170308,-1.05121 11.313766,-4.16129 C 70.658946,114.25496 79.29853,105.10667 80,104 c 0,-8 0,-4.430898 0,-16 7.62343,-0.109179 8,0 16,0 0.746829,0 10.14294,-9.613144 10.69263,-10.162835 3.05326,-3.053253 3.71528,-4.99949 4.01795,-9.555819 z M 58.897997,118.93995 c -0.207898,0.0469 -0.413317,0.0558 -0.618125,0.0842 0.20702,-0.0228 0.409371,-0.0452 0.618125,-0.0842 z"
       id="path6122"
       inkscape:connector-curvature="0"
       sodipodi:nodetypes="cscsccccsscccc" />
    <path
       style="fill:none;stroke:url(#radialGradient3919-5);stroke-width:1.85605633;stroke-linecap:butt;stroke-linejoin:miter;stroke-miterlimit:4;stroke-opacity:1;stroke-dasharray:none;filter:url(#filter3909-6)"
       d="M 108.97651,89.508691 79.934895,118.21077"
       id="path3873"
       inkscape:connector-curvature="0"
       sodipodi:nodetypes="cc"
       clip-path="url(#clipPath3889-6)"
       transform="matrix(1.3186655,0,0,1.3478946,-36.057732,-41.667663)" />
    <path
       style="font-size:medium;font-style:normal;font-variant:normal;font-weight:normal;font-stretch:normal;text-indent:0;text-align:start;text-decoration:none;line-height:normal;letter-spacing:normal;word-spacing:normal;text-transform:none;direction:ltr;block-progression:tb;writing-mode:lr-tb;text-anchor:start;baseline-shift:baseline;opacity:0.15679016;color:#000000;fill:url(#linearGradient3311);fill-opacity:1;stroke:none;stroke-width:0.55989742;marker:none;visibility:visible;display:inline;overflow:visible;enable-background:accumulate;font-family:Sans;-inkscape-font-specification:Sans"
       d="m 23.91574,60.985269 c -0.224215,0.0858 -0.405912,0.884832 -0.380986,1.675438 0.02493,0.790606 0.251952,1.429331 0.476033,1.339293 l 87.609163,0 c 0.0658,-0.0029 0.13146,-0.06076 0.18996,-0.167418 0.0533,-0.07619 0.10206,-0.19093 0.14249,-0.33502 0.1082,-0.457369 0.12791,-1.150858 0.0476,-1.674875 -0.0528,-0.41107 -0.16081,-0.728599 -0.28496,-0.837428 C 111.68354,60.972788 112.0315,55.987529 112,56 l -88,0 c -0.01095,-4.985259 0.03155,-0.01251 0,0 z"
       id="path3284"
       inkscape:connector-curvature="0"
       sodipodi:nodetypes="cscccccccccc" />
    <path
       inkscape:connector-curvature="0"
       style="fill:#000000"
       d=""
       id="path2197-2" />
  </g>
</svg>
