<?xml version="1.0" encoding="UTF-8" standalone="no"?>
<!-- Created with Inkscape (http://www.inkscape.org/) -->

<svg
   xmlns:dc="http://purl.org/dc/elements/1.1/"
   xmlns:cc="http://creativecommons.org/ns#"
   xmlns:rdf="http://www.w3.org/1999/02/22-rdf-syntax-ns#"
   xmlns:svg="http://www.w3.org/2000/svg"
   xmlns="http://www.w3.org/2000/svg"
   xmlns:xlink="http://www.w3.org/1999/xlink"
   xmlns:sodipodi="http://sodipodi.sourceforge.net/DTD/sodipodi-0.dtd"
   xmlns:inkscape="http://www.inkscape.org/namespaces/inkscape"
   width="128"
   height="128"
   id="svg2606"
   sodipodi:version="0.32"
   inkscape:version="0.48.0 r9654"
   version="1.0"
   sodipodi:docname="application-x-ar.svgz"
   inkscape:output_extension="org.inkscape.output.svgz.inkscape"
   inkscape:export-filename="/home/pinheiro/pics/oxygen-icons/scalable/mimetypes/small/16x16/application-x-ar.png"
   inkscape:export-xdpi="180"
   inkscape:export-ydpi="180">
  <defs
     id="defs2608">
    <linearGradient
       id="linearGradient6131">
      <stop
         id="stop6133"
         offset="0"
         style="stop-color:#fcfcfc;stop-opacity:1" />
      <stop
         style="stop-color:#f8f8f8;stop-opacity:1"
         offset="0.52275378"
         id="stop6135" />
      <stop
         id="stop6141"
         offset="0.77457333"
         style="stop-color:#f0efef;stop-opacity:1;" />
      <stop
         id="stop6139"
         offset="0.90122044"
         style="stop-color:#e3e1e1;stop-opacity:1;" />
      <stop
         id="stop6137"
         offset="1"
         style="stop-color:#cecbcb;stop-opacity:1" />
    </linearGradient>
    <linearGradient
       inkscape:collect="always"
       xlink:href="#linearGradient6131"
       id="linearGradient3893"
       gradientUnits="userSpaceOnUse"
       gradientTransform="matrix(1.0119858,0,0,1.0119858,-0.89554075,-0.9871566)"
       x1="86.73793"
       y1="93.621468"
       x2="95.460213"
       y2="102.34375" />
    <radialGradient
       inkscape:collect="always"
       xlink:href="#linearGradient3913-5"
       id="radialGradient3919-5"
       cx="90.75"
       cy="110.25299"
       fx="90.75"
       fy="110.25299"
       r="18.750002"
       gradientTransform="matrix(1.3067347,0,0,1.3067347,-27.83617,-33.818441)"
       gradientUnits="userSpaceOnUse" />
    <linearGradient
       inkscape:collect="always"
       id="linearGradient3913-5">
      <stop
         style="stop-color:#ffffff;stop-opacity:1;"
         offset="0"
         id="stop3915-4" />
      <stop
         style="stop-color:#ffffff;stop-opacity:0;"
         offset="1"
         id="stop3917-7" />
    </linearGradient>
    <clipPath
       clipPathUnits="userSpaceOnUse"
       id="clipPath3889-6">
      <path
         sodipodi:nodetypes="cscscssc"
         inkscape:connector-curvature="0"
         id="path3891-5"
         d="m 112,82.502986 c 0,4.465301 -2.79749,6.409952 -5.27972,8.093625 -5.10854,3.46508 -14.939114,3.32536 -20.720284,3.40638 -0.081,5.781159 0.16586,15.504599 -3.29922,20.613139 -1.68367,2.48224 -5.29051,5.38687 -8.20078,5.38687 2.31803,0 4.74284,-1.33476 7.58402,-4.08481 9.14197,-8.84873 17.36714,-16.13535 25.673154,-25.297529 C 109.67612,88.503916 112,86.97878 112,82.502986 z"
         style="fill:url(#linearGradient3893);fill-opacity:1;stroke:none" />
    </clipPath>
    <filter
       color-interpolation-filters="sRGB"
       inkscape:collect="always"
       id="filter3909-6">
      <feGaussianBlur
         inkscape:collect="always"
         stdDeviation="0.43040059"
         id="feGaussianBlur3911-9" />
    </filter>
    <linearGradient
       id="linearGradient3897-7">
      <stop
         style="stop-color:#fcfcfc;stop-opacity:1"
         offset="0"
         id="stop3899-4" />
      <stop
         id="stop3901-5"
         offset="0.52275378"
         style="stop-color:#f8f8f8;stop-opacity:1" />
      <stop
         style="stop-color:#f0efef;stop-opacity:1;"
         offset="0.72337759"
         id="stop3903-2" />
      <stop
         style="stop-color:#e3e1e1;stop-opacity:1;"
         offset="0.89024991"
         id="stop3905-5" />
      <stop
         style="stop-color:#cecbcb;stop-opacity:1"
         offset="1"
         id="stop3907-4" />
    </linearGradient>
    <clipPath
       clipPathUnits="userSpaceOnUse"
       id="clipPath6093-7">
      <path
         inkscape:connector-curvature="0"
         sodipodi:nodetypes="cccssccc"
         id="path6095-4"
         d="m 17.000001,8 0.782827,110 57.5,0 c 1.675283,0 3.119418,0.18058 4.9,-1.6 C 88.980763,107.60206 99.94047,96.548195 107.19904,89.224043 109.6396,86.761431 110,84.752873 110,82.5 L 110,8 z"
         style="fill:#ffffff;fill-opacity:1" />
    </clipPath>
    <filter
       color-interpolation-filters="sRGB"
       inkscape:collect="always"
       id="filter6171-8"
       x="-0.47870937"
       width="1.9574188"
       y="-0.51275069"
       height="2.0255013">
      <feGaussianBlur
         inkscape:collect="always"
         stdDeviation="10.140743"
         id="feGaussianBlur6173-8" />
    </filter>
    <linearGradient
       id="linearGradient4518-3">
      <stop
         style="stop-color:#eeecec;stop-opacity:1"
         offset="0"
         id="stop4520-1" />
      <stop
         id="stop5969-4"
         offset="0.40000001"
         style="stop-color:#f4f4f4;stop-opacity:1" />
      <stop
         style="stop-color:#f6f5f5;stop-opacity:1"
         offset="1"
         id="stop4522-9" />
    </linearGradient>
    <filter
       inkscape:collect="always"
       id="filter4087"
       x="-0.16465071"
       width="1.3293014"
       y="-0.2041295"
       height="1.408259">
      <feGaussianBlur
         inkscape:collect="always"
         stdDeviation="4.2234282"
         id="feGaussianBlur4089" />
    </filter>
    <clipPath
       clipPathUnits="userSpaceOnUse"
       id="clipPath3259">
      <path
         style="opacity:0.84653476;fill:url(#radialGradient3263);fill-opacity:1"
         d="m 7.7253689,10.985065 c -0.331858,0 -0.48825,0.229104 -0.48825,0.48825 l 0,106.407975 c 0,0.80228 0.6635159,1.48061 1.46475,1.46475 l 52.6352051,-1.04179 c 0.05181,-0.001 0.974434,-0.008 1.647844,5e-5 9.861285,-3.90149 24.816086,-21.925636 33.551104,-30.715902 1.44214,-1.617557 1.08767,-1.124261 1.41974,-2.820822 l 1.07235,-73.294281 c 0,-0.315134 -0.15938,-0.48825 -0.48825,-0.48825 z"
         id="path3261"
         inkscape:connector-curvature="0"
         sodipodi:nodetypes="ccssscccccc" />
    </clipPath>
    <radialGradient
       r="51"
       fy="105"
       fx="64"
       cy="105"
       cx="64"
       gradientTransform="matrix(1,0,0,0.2156863,0,82.352941)"
       gradientUnits="userSpaceOnUse"
       id="radialGradient6633"
       xlink:href="#linearGradient6505"
       inkscape:collect="always" />
    <linearGradient
       id="linearGradient6505">
      <stop
         id="stop6507"
         offset="0"
         style="stop-color:#000000;stop-opacity:1;" />
      <stop
         style="stop-color:#000000;stop-opacity:0.49803922;"
         offset="1"
         id="stop6513" />
      <stop
         id="stop6509"
         offset="1"
         style="stop-color:#000000;stop-opacity:0;" />
    </linearGradient>
    <filter
       color-interpolation-filters="sRGB"
       id="filter3400"
       height="1.3529412"
       y="-0.17647055"
       width="1.1479322"
       x="-0.073966116"
       inkscape:collect="always">
      <feGaussianBlur
         id="feGaussianBlur3402"
         stdDeviation="3.1565288"
         inkscape:collect="always" />
    </filter>
    <radialGradient
       gradientUnits="userSpaceOnUse"
       r="126.4133"
       cy="8.3301001"
       cx="7.5"
       id="XMLID_15_">
      <stop
         id="stop4-7"
         style="stop-color:#DBC298"
         offset="0.2722" />
      <stop
         id="stop6-6"
         style="stop-color:#C7B08A"
         offset="0.4545" />
      <stop
         id="stop8-5"
         style="stop-color:#b99c6f;stop-opacity:1;"
         offset="0.71829998" />
      <stop
         id="stop10"
         style="stop-color:#b09469;stop-opacity:1;"
         offset="0.88169998" />
      <stop
         id="stop12"
         style="stop-color:#a48a5f;stop-opacity:1;"
         offset="1" />
    </radialGradient>
    <linearGradient
       inkscape:collect="always"
       xlink:href="#XMLID_17_"
       id="linearGradient5816"
       gradientUnits="userSpaceOnUse"
       x1="0.25"
       y1="13.2949"
       x2="104.25"
       y2="13.2949"
       gradientTransform="matrix(0.43504871,0,0,0.43243459,57.285426,61.638819)" />
    <linearGradient
       y2="13.2949"
       x2="104.25"
       y1="13.2949"
       x1="0.25"
       gradientUnits="userSpaceOnUse"
       id="XMLID_17_">
      <stop
         id="stop28"
         style="stop-color:#8F6B32"
         offset="0" />
      <stop
         id="stop30"
         style="stop-color:#3e2e15;stop-opacity:1;"
         offset="0.5" />
      <stop
         id="stop32"
         style="stop-color:#8F6B32"
         offset="1" />
    </linearGradient>
    <linearGradient
       inkscape:collect="always"
       xlink:href="#linearGradient3329"
       id="linearGradient5813"
       gradientUnits="userSpaceOnUse"
       x1="45.35817"
       y1="9.0646334"
       x2="45.35817"
       y2="25.815258"
       gradientTransform="matrix(0.43504871,0,0,0.43243459,57.285426,61.638819)" />
    <linearGradient
       id="linearGradient3329">
      <stop
         id="stop3331"
         offset="0"
         style="stop-color:#000000;stop-opacity:1;" />
      <stop
         id="stop3333"
         offset="1"
         style="stop-color:#000000;stop-opacity:0;" />
    </linearGradient>
    <linearGradient
       inkscape:collect="always"
       xlink:href="#linearGradient6524"
       id="linearGradient5810"
       gradientUnits="userSpaceOnUse"
       gradientTransform="matrix(0.43504871,0,0,0.43243459,57.285426,61.638819)"
       x1="63.573593"
       y1="16.737045"
       x2="59.166992"
       y2="24.58" />
    <linearGradient
       id="linearGradient6524"
       inkscape:collect="always">
      <stop
         id="stop6526"
         offset="0"
         style="stop-color:#000000;stop-opacity:1;" />
      <stop
         id="stop6528"
         offset="1"
         style="stop-color:#000000;stop-opacity:0;" />
    </linearGradient>
    <linearGradient
       inkscape:collect="always"
       xlink:href="#linearGradient6534"
       id="linearGradient5807"
       gradientUnits="userSpaceOnUse"
       gradientTransform="matrix(0.43504871,0,0,0.43243459,57.285426,61.638819)"
       x1="90.625519"
       y1="3.1541069"
       x2="62.901402"
       y2="21.1523" />
    <linearGradient
       id="linearGradient6534"
       gradientUnits="userSpaceOnUse"
       x1="91.572304"
       y1="4.5991001"
       x2="62.901402"
       y2="21.1523">
      <stop
         offset="0.0118"
         style="stop-color:#AD9C80"
         id="stop6536" />
      <stop
         offset="0.02147562"
         style="stop-color:#FFE6BC"
         id="stop6538" />
      <stop
         offset="0.06798933"
         style="stop-color:#C4B091"
         id="stop6540" />
      <stop
         offset="0.11206073"
         style="stop-color:#DEC8A4"
         id="stop6542" />
      <stop
         offset="1"
         style="stop-color:#B39E7C"
         id="stop6544" />
    </linearGradient>
    <linearGradient
       inkscape:collect="always"
       xlink:href="#linearGradient6548"
       id="linearGradient5804"
       gradientUnits="userSpaceOnUse"
       gradientTransform="matrix(0.43504871,0,0,0.43243459,57.285426,61.638819)"
       x1="13.051652"
       y1="2.4199617"
       x2="50.6035"
       y2="26.3501" />
    <linearGradient
       id="linearGradient6548"
       gradientUnits="userSpaceOnUse"
       x1="12.0713"
       y1="4.1034999"
       x2="50.6035"
       y2="26.3501">
      <stop
         offset="0.0118"
         style="stop-color:#AD9C80"
         id="stop6550" />
      <stop
         offset="0.04393823"
         style="stop-color:#FFE6BC"
         id="stop6552" />
      <stop
         offset="0.07207061"
         style="stop-color:#C4B091"
         id="stop6554" />
      <stop
         offset="0.1025845"
         style="stop-color:#DEC8A4"
         id="stop6556" />
      <stop
         offset="1"
         style="stop-color:#B39E7C"
         id="stop6558" />
    </linearGradient>
    <linearGradient
       inkscape:collect="always"
       xlink:href="#XMLID_23_"
       id="linearGradient5859"
       gradientUnits="userSpaceOnUse"
       x1="101.3027"
       y1="60.659199"
       x2="102.3008"
       y2="60.714802"
       gradientTransform="matrix(0.43504871,0,0,0.43243459,57.285426,61.638819)" />
    <linearGradient
       y2="60.714802"
       x2="102.3008"
       y1="60.659199"
       x1="101.3027"
       gradientUnits="userSpaceOnUse"
       id="XMLID_23_">
      <stop
         id="stop144-6"
         style="stop-color:#544C3E"
         offset="0" />
      <stop
         id="stop146-9"
         style="stop-color:#B39E7C"
         offset="1" />
    </linearGradient>
    <linearGradient
       inkscape:collect="always"
       xlink:href="#XMLID_24_"
       id="linearGradient5856"
       gradientUnits="userSpaceOnUse"
       x1="103.8984"
       y1="60.580101"
       x2="103.3984"
       y2="60.580101"
       gradientTransform="matrix(0.6153846,0,0,0.61168688,32.346155,30.173086)" />
    <linearGradient
       y2="60.580101"
       x2="103.3984"
       y1="60.580101"
       x1="103.8984"
       gradientUnits="userSpaceOnUse"
       id="XMLID_24_">
      <stop
         id="stop151"
         style="stop-color:#544C3E"
         offset="0" />
      <stop
         id="stop153"
         style="stop-color:#50483B"
         offset="0.2162" />
      <stop
         id="stop155-3"
         style="stop-color:#443D32"
         offset="0.4356" />
      <stop
         id="stop157-7"
         style="stop-color:#2F2B23"
         offset="0.6567" />
      <stop
         id="stop159-4"
         style="stop-color:#13110E"
         offset="0.8775" />
      <stop
         id="stop161-5"
         style="stop-color:#000000"
         offset="1" />
    </linearGradient>
    <filter
       color-interpolation-filters="sRGB"
       inkscape:collect="always"
       id="filter6125"
       x="-0.12374716"
       width="1.2474943"
       y="-0.0078790402"
       height="1.0157582">
      <feGaussianBlur
         inkscape:collect="always"
         stdDeviation="0.13253641"
         id="feGaussianBlur6127" />
    </filter>
    <linearGradient
       inkscape:collect="always"
       xlink:href="#XMLID_25_"
       id="linearGradient5839"
       gradientUnits="userSpaceOnUse"
       x1="2.1997001"
       y1="60.715801"
       x2="3.198"
       y2="60.660099"
       gradientTransform="matrix(0.43504871,0,0,0.43243459,57.285426,61.638819)" />
    <linearGradient
       y2="60.660099"
       x2="3.198"
       y1="60.715801"
       x1="2.1997001"
       gradientUnits="userSpaceOnUse"
       id="XMLID_25_">
      <stop
         id="stop168"
         style="stop-color:#B39E7C"
         offset="0" />
      <stop
         id="stop170-2"
         style="stop-color:#544C3E"
         offset="1" />
    </linearGradient>
    <linearGradient
       y2="60.580101"
       x2="1.1021"
       y1="60.580101"
       x1="0.60159999"
       gradientUnits="userSpaceOnUse"
       id="XMLID_26_">
      <stop
         id="stop175"
         style="stop-color:#544C3E"
         offset="0" />
      <stop
         id="stop177"
         style="stop-color:#000000"
         offset="1" />
    </linearGradient>
    <linearGradient
       inkscape:collect="always"
       xlink:href="#linearGradient4360"
       id="linearGradient5767"
       gradientUnits="userSpaceOnUse"
       x1="52.25"
       y1="97.514183"
       x2="52.25"
       y2="22.061335" />
    <linearGradient
       id="linearGradient4360">
      <stop
         id="stop4362"
         offset="0"
         style="stop-color:#ffdfbf;stop-opacity:1;" />
      <stop
         id="stop4364"
         offset="1"
         style="stop-color:#ffdfbf;stop-opacity:0;" />
    </linearGradient>
    <filter
       color-interpolation-filters="sRGB"
       inkscape:collect="always"
       id="filter6137">
      <feGaussianBlur
         inkscape:collect="always"
         stdDeviation="0.72379785"
         id="feGaussianBlur6139" />
    </filter>
    <linearGradient
       inkscape:collect="always"
       xlink:href="#linearGradient6524"
       id="linearGradient6061"
       gradientUnits="userSpaceOnUse"
       gradientTransform="matrix(0.87218894,0,0,0.87009742,24.142248,26.834922)"
       x1="53.408875"
       y1="50.796875"
       x2="73.5625"
       y2="43.8125" />
    <radialGradient
       inkscape:collect="always"
       xlink:href="#linearGradient6079"
       id="radialGradient6085"
       cx="62.818913"
       cy="20.84005"
       fx="62.818913"
       fy="20.84005"
       r="16"
       gradientTransform="matrix(0.19986271,0,0,0.12658615,66.273111,56.092209)"
       gradientUnits="userSpaceOnUse" />
    <linearGradient
       inkscape:collect="always"
       id="linearGradient6079">
      <stop
         style="stop-color:#2e220f;stop-opacity:1;"
         offset="0"
         id="stop6081" />
      <stop
         style="stop-color:#2e220f;stop-opacity:0;"
         offset="1"
         id="stop6083" />
    </linearGradient>
    <radialGradient
       inkscape:collect="always"
       xlink:href="#linearGradient6109"
       id="radialGradient6115"
       cx="124.67217"
       cy="21.19462"
       fx="124.67217"
       fy="21.19462"
       r="16"
       gradientTransform="matrix(0.10846696,-0.00878716,0.02378892,0.29364554,65.076456,53.448426)"
       gradientUnits="userSpaceOnUse" />
    <linearGradient
       inkscape:collect="always"
       id="linearGradient6109">
      <stop
         style="stop-color:#fbe3b9;stop-opacity:1;"
         offset="0"
         id="stop6111" />
      <stop
         style="stop-color:#fbe3b9;stop-opacity:0;"
         offset="1"
         id="stop6113" />
    </linearGradient>
    <radialGradient
       inkscape:collect="always"
       xlink:href="#linearGradient3913-5-1"
       id="radialGradient3919-5-6"
       cx="90.75"
       cy="110.25299"
       fx="90.75"
       fy="110.25299"
       r="18.750002"
       gradientTransform="matrix(1.3067347,0,0,1.3067347,-27.83617,-33.818441)"
       gradientUnits="userSpaceOnUse" />
    <linearGradient
       inkscape:collect="always"
       id="linearGradient3913-5-1">
      <stop
         style="stop-color:#ffffff;stop-opacity:1;"
         offset="0"
         id="stop3915-4-5" />
      <stop
         style="stop-color:#ffffff;stop-opacity:0;"
         offset="1"
         id="stop3917-7-5" />
    </linearGradient>
    <clipPath
       clipPathUnits="userSpaceOnUse"
       id="clipPath3889-6-4">
      <path
         sodipodi:nodetypes="cscscssc"
         inkscape:connector-curvature="0"
         id="path3891-5-7"
         d="m 112,82.502986 c 0,4.465301 -2.79749,6.409952 -5.27972,8.093625 -5.10854,3.46508 -14.939114,3.32536 -20.720284,3.40638 -0.081,5.781159 0.16586,15.504599 -3.29922,20.613139 -1.68367,2.48224 -5.29051,5.38687 -8.20078,5.38687 2.31803,0 4.74284,-1.33476 7.58402,-4.08481 9.14197,-8.84873 17.36714,-16.13535 25.673154,-25.297529 C 109.67612,88.503916 112,86.97878 112,82.502986 z"
         style="fill:url(#linearGradient3893);fill-opacity:1;stroke:none" />
    </clipPath>
    <filter
       color-interpolation-filters="sRGB"
       inkscape:collect="always"
       id="filter3909-6-6">
      <feGaussianBlur
         inkscape:collect="always"
         stdDeviation="0.43040059"
         id="feGaussianBlur3911-9-5" />
    </filter>
    <linearGradient
       inkscape:collect="always"
       xlink:href="#linearGradient3897-7-9"
       id="linearGradient3895-3-6"
       gradientUnits="userSpaceOnUse"
       gradientTransform="matrix(1.3344708,0,0,1.3640502,-37.23865,-42.998247)"
       x1="82.15696"
       y1="90.381706"
       x2="94.220871"
       y2="102.18401" />
    <linearGradient
       id="linearGradient3897-7-9">
      <stop
         style="stop-color:#fcfcfc;stop-opacity:1"
         offset="0"
         id="stop3899-4-3" />
      <stop
         id="stop3901-5-7"
         offset="0.52275378"
         style="stop-color:#f8f8f8;stop-opacity:1" />
      <stop
         style="stop-color:#f0efef;stop-opacity:1;"
         offset="0.72337759"
         id="stop3903-2-4" />
      <stop
         style="stop-color:#e3e1e1;stop-opacity:1;"
         offset="0.89024991"
         id="stop3905-5-5" />
      <stop
         style="stop-color:#cecbcb;stop-opacity:1"
         offset="1"
         id="stop3907-4-2" />
    </linearGradient>
    <clipPath
       clipPathUnits="userSpaceOnUse"
       id="clipPath6093-7-5">
      <path
         inkscape:connector-curvature="0"
         sodipodi:nodetypes="cccssccc"
         id="path6095-4-4"
         d="m 17.000001,8 0.782827,110 57.5,0 c 1.675283,0 3.119418,0.18058 4.9,-1.6 8.797935,-8.79794 21.481402,-23.383226 28.739972,-30.707378 2.44056,-2.462612 2.80096,-4.47117 2.80096,-6.724043 L 110,8 z"
         style="fill:#ffffff;fill-opacity:1" />
    </clipPath>
    <filter
       color-interpolation-filters="sRGB"
       inkscape:collect="always"
       id="filter3827"
       x="-0.084733292"
       width="1.1694666"
       y="-0.10505005"
       height="1.2101001">
      <feGaussianBlur
         inkscape:collect="always"
         stdDeviation="2.1734796"
         id="feGaussianBlur3829" />
    </filter>
    <clipPath
       clipPathUnits="userSpaceOnUse"
       id="clipPath3885">
      <path
         inkscape:connector-curvature="0"
         sodipodi:nodetypes="cccssccc"
         id="path3887"
         d="m 17.000001,8 0.782827,110 57.5,0 c 1.675283,0 3.119418,0.18058 4.9,-1.6 8.797935,-8.79794 21.481402,-23.383226 28.739972,-30.707378 2.44056,-2.462612 2.80096,-4.47117 2.80096,-6.724043 L 110,8 z"
         style="fill:#ffffff;fill-opacity:1" />
    </clipPath>
    <filter
       color-interpolation-filters="sRGB"
       inkscape:collect="always"
       id="filter6171-8-7"
       x="-0.47870937"
       width="1.9574188"
       y="-0.51275069"
       height="2.0255013">
      <feGaussianBlur
         inkscape:collect="always"
         stdDeviation="10.140743"
         id="feGaussianBlur6173-8-4" />
    </filter>
    <radialGradient
       inkscape:collect="always"
       xlink:href="#linearGradient5982-7-3"
       id="radialGradient5988-0-4"
       cx="68.138977"
       cy="89.42041"
       fx="67.932365"
       fy="72.691223"
       r="47.5"
       gradientTransform="matrix(1.5860719,-0.07936281,0.06485072,1.2953772,-41.8723,-14.425457)"
       gradientUnits="userSpaceOnUse" />
    <linearGradient
       inkscape:collect="always"
       id="linearGradient5982-7-3">
      <stop
         style="stop-color:#ffffff;stop-opacity:1;"
         offset="0"
         id="stop5984-8-0" />
      <stop
         style="stop-color:#ffffff;stop-opacity:0;"
         offset="1"
         id="stop5986-6-7" />
    </linearGradient>
    <linearGradient
       inkscape:collect="always"
       xlink:href="#linearGradient4518-3-6"
       id="linearGradient4524-4-8"
       x1="47.236164"
       y1="22.150356"
       x2="72"
       y2="116.40091"
       gradientUnits="userSpaceOnUse"
       gradientTransform="matrix(0.94173025,0,0,0.94148681,3.5162801,3.145731)" />
    <linearGradient
       id="linearGradient4518-3-6">
      <stop
         style="stop-color:#eeecec;stop-opacity:1"
         offset="0"
         id="stop4520-1-8" />
      <stop
         id="stop5969-4-8"
         offset="0.40000001"
         style="stop-color:#f4f4f4;stop-opacity:1" />
      <stop
         style="stop-color:#f6f5f5;stop-opacity:1"
         offset="1"
         id="stop4522-9-4" />
    </linearGradient>
    <filter
       color-interpolation-filters="sRGB"
       inkscape:collect="always"
       id="filter3822">
      <feGaussianBlur
         inkscape:collect="always"
         stdDeviation="2.7153804"
         id="feGaussianBlur3824" />
    </filter>
    <filter
       color-interpolation-filters="sRGB"
       inkscape:collect="always"
       id="filter4123-3">
      <feGaussianBlur
         inkscape:collect="always"
         stdDeviation="2.028"
         id="feGaussianBlur4125-1" />
    </filter>
    <radialGradient
       inkscape:collect="always"
       xlink:href="#XMLID_15_"
       id="radialGradient3239"
       gradientUnits="userSpaceOnUse"
       cx="7.5"
       cy="8.3301001"
       r="126.4133" />
  </defs>
  <sodipodi:namedview
     id="base"
     pagecolor="#ffffff"
     bordercolor="#666666"
     borderopacity="1.0"
     inkscape:pageopacity="0.0"
     inkscape:pageshadow="2"
     inkscape:zoom="4"
     inkscape:cx="90.978871"
     inkscape:cy="77.688659"
     inkscape:document-units="px"
     inkscape:current-layer="layer1"
     width="128px"
     height="128px"
     showgrid="true"
     inkscape:grid-points="true"
     showguides="true"
     inkscape:guide-bbox="true"
     inkscape:window-width="1224"
     inkscape:window-height="757"
     inkscape:window-x="355"
     inkscape:window-y="275"
     inkscape:snap-global="true"
     inkscape:window-maximized="0"
     inkscape:snap-page="true"
     inkscape:snap-grids="true">
    <inkscape:grid
       id="GridFromPre046Settings"
       type="xygrid"
       originx="0px"
       originy="0px"
       spacingx="8px"
       spacingy="8px"
       color="#0000ff"
       empcolor="#0000ff"
       opacity="0.2"
       empopacity="0.4"
       empspacing="2"
       visible="true"
       enabled="true"
       snapvisiblegridlinesonly="true" />
    <sodipodi:guide
       orientation="1,0"
       position="-68,29.325902"
       id="guide4564" />
    <sodipodi:guide
       orientation="1,0"
       position="-121.62237,135.0574"
       id="guide3859" />
    <sodipodi:guide
       orientation="0,1"
       position="38.581514,-74.688154"
       id="guide4360" />
  </sodipodi:namedview>
  <metadata
     id="metadata2611">
    <rdf:RDF>
      <cc:Work
         rdf:about="">
        <dc:format>image/svg+xml</dc:format>
        <dc:type
           rdf:resource="http://purl.org/dc/dcmitype/StillImage" />
        <dc:title></dc:title>
      </cc:Work>
    </rdf:RDF>
  </metadata>
  <g
     inkscape:label="Livello 1"
     inkscape:groupmode="layer"
     id="layer1">
    <rect
       style="opacity:0.01000001;fill:#000000;fill-opacity:0.00392157;stroke:none"
       id="rect3854"
       width="128"
       height="128"
       x="0"
       y="0" />
    <path
       style="opacity:0.45606695;fill:#000000;fill-opacity:1;filter:url(#filter4123-3)"
       d="m 13.333,5.3364 0,118.3304 49.8545,-0.0668 c 2.115554,-0.003 4.528919,-1.77169 7,-4.25 0.71234,-0.71442 1.440746,-1.39395 2.15625,-2.09375 0.415612,-0.40649 0.832187,-0.81443 1.25,-1.21875 7.773958,-7.40962 26.98341,-25.122599 34.21875,-33.099999 0.42065,-0.42064 0.81207,-0.8111 1.15625,-1.1875 1.46444,-1.49766 2.76158,-2.8378 2.99375,-5.8625 L 112,75.156251 111.9972,5.3364 z"
       id="path5990"
       inkscape:connector-curvature="0"
       sodipodi:nodetypes="ccsssccccccc"
       transform="matrix(0.94173025,0,0,0.94148681,3.5162801,3.145729)" />
    <path
       transform="matrix(0.94173025,0,0,0.94148681,3.5162801,3.145729)"
       style="fill:#000000;fill-opacity:1;filter:url(#filter3822)"
       d="m 12.96875,3.4375 c -1.48e-4,0.010416 -1.48e-4,0.020834 0,0.03125 -0.921246,0.1949457 -1.534484,0.9333582 -1.53125,1.875 l 0,118.73736 c -1.48e-4,0.0104 -1.48e-4,0.0209 0,0.0313 0.01925,1.0723 0.80288,1.85562 1.875,1.875 0.01042,1.5e-4 0.02083,1.5e-4 0.03125,0 l 52.529063,0 c 1.658286,0 4.069886,0.24689 7.15625,-1.84375 0.09606,-0.0692 0.180839,-0.15394 0.25,-0.25 -0.05642,0.0503 -0.118387,0.22919 0.0625,-0.0625 0.05493,-0.0473 0.106764,-0.0903 0.1875,-0.15625 0.219835,-0.17951 0.516782,-0.38621 0.78125,-0.59375 0.264468,-0.20754 0.493455,-0.39466 0.65625,-0.53125 0.0407,-0.0341 0.0777,-0.0491 0.125,-0.0937 0.02365,-0.0223 0.04509,-0.0687 0.09375,-0.125 0.02433,-0.0281 0.07533,-0.0459 0.125,-0.125 0.01159,-0.0185 0.01274,-0.0566 0.03125,-0.0937 9.792927,-9.35059 27.456717,-28.634354 38.499997,-39.8125 1.71056,-1.710561 3.78125,-3.905917 3.78125,-8.5625 l 0,-68.39361 c 1.5e-4,-0.010416 1.5e-4,-0.020834 0,-0.03125 -0.0194,-1.0720969 -0.80283,-1.8556268 -1.875,-1.875 -0.0104,-1.484e-4 -0.0209,-1.484e-4 -0.0313,0 l -102.27906,0 c -0.03303,-0.00313 -0.06067,0.00142 -0.09375,0 -0.08821,-0.00379 -0.161926,-0.00834 -0.25,0 -0.04162,-0.00237 -0.08338,-0.00237 -0.125,0 z"
       id="path3314"
       inkscape:connector-curvature="0"
       sodipodi:nodetypes="cccccccsccccscsccccsccccccccc" />
    <path
       style="fill:#ffffff;fill-opacity:1"
       d="m 16.07236,8.077125 0,111.499265 49.70783,-0.0771 c 1.57768,0 3.68626,-0.53663 6.59219,-3.42109 8.3533,-8.2916 30.20702,-29.95217 37.04272,-36.91233 2.29836,-2.34022 2.82611,-4.24896 2.82611,-6.38986 L 112.23821,8 z"
       id="path34"
       sodipodi:nodetypes="cccssccc"
       inkscape:connector-curvature="0" />
    <path
       style="fill:url(#linearGradient4524-4-8);fill-opacity:1"
       d="m 22.33071,13.864607 c -0.32004,0 -0.47086,0.220889 -0.47086,0.470743 l 0,98.04132 c 0,0.7735 0.63973,1.41283 1.41259,1.41224 l 38.77452,-0.0295 c 0.05,-4e-5 0.76316,0.022 1.41259,0.0295 1.67408,-0.0377 2.94948,-0.70964 4.10221,-1.50006 0.99058,-0.274 27.99143,-26.65587 36.58105,-35.3078 1.28302,-1.29231 2.05813,-3.71715 2.05813,-4.60916 l 0,-58.03654 c 0,-0.303834 -0.15371,-0.470743 -0.47087,-0.470743 z"
       id="path3967"
       inkscape:connector-curvature="0"
       sodipodi:nodetypes="ccsssccscccc" />
    <path
       sodipodi:nodetypes="ccssscccccc"
       inkscape:connector-curvature="0"
       id="path5980"
       d="m 26.33071,17.864607 c -0.32004,0 -0.47086,0.220889 -0.47086,0.470743 l -4,94.04132 c -0.0329,0.77281 0.63975,1.40754 1.41259,1.41224 l 43.52714,0.26444 c 0.05,3e-4 3.08311,-0.007 3.73254,4e-5 6.15984,-4.24013 28.87563,-26.11749 37.29963,-34.59258 0.61903,-0.69415 0.43093,-0.34842 1.36919,-1.5134 l 0,-63.61206 c 0,-0.303834 -0.15371,-0.470743 -0.47087,-0.470743 z"
       style="opacity:0.84653476;fill:url(#radialGradient5988-0-4);fill-opacity:1" />
    <g
       transform="matrix(2.1250614,0,0,2.1490682,-98.068344,-108.88571)"
       id="g3601"
       clip-path="url(#clipPath3259)">
      <path
         inkscape:connector-curvature="0"
         style="opacity:0.6;fill:url(#radialGradient6633);fill-opacity:1;fill-rule:evenodd;stroke:#000000;stroke-width:0.5;stroke-linecap:butt;stroke-linejoin:round;stroke-miterlimit:4;stroke-opacity:1;filter:url(#filter3400)"
         d="m 18.520833,73.665304 90.958337,0 L 115,112.75 c 0,1.8005 -1.57029,3.25 -3.52083,3.25 l -94.958337,0 C 14.570292,116 13,114.5505 13,112.75 c 0,0 3.570292,-39.084696 5.520833,-39.084696 z"
         id="rect4744"
         sodipodi:nodetypes="ccccccc"
         transform="matrix(0.44196081,0,0,0.24658851,51.731229,76.837556)" />
      <path
         transform="matrix(0.43504871,0,0,0.43243459,57.285426,61.638819)"
         style="fill:url(#radialGradient3239)"
         d="M 0.3605133,95.722723 0.25,24.795 l 104,0 0,0 -4,70.725234 z"
         id="polygon14"
         inkscape:connector-curvature="0"
         sodipodi:nodetypes="cccccc" />
      <path
         style="fill:url(#linearGradient5816)"
         d="m 80.016721,72.79347 -22.622533,-0.432435 14.030322,-10.37843 17.184423,0 14.030327,10.37843 -22.622539,0.432435 z"
         id="polygon34"
         sodipodi:nodetypes="cccccc"
         inkscape:connector-curvature="0" />
      <path
         style="fill:url(#linearGradient5813);fill-opacity:1"
         d="m 80.016721,72.79347 -22.622533,-0.432435 20.392908,-8.257567 2.338387,0 22.513777,8.257567 -22.622539,0.432435 z"
         id="polygon6516"
         sodipodi:nodetypes="cccccc"
         inkscape:connector-curvature="0" />
      <path
         sodipodi:nodetypes="ccccc"
         style="fill:url(#linearGradient5810);fill-opacity:1"
         d="m 80.016721,68.001408 15.594756,1.66472 7.027783,2.601934 -22.622539,-1.173985 0,-3.092669 z"
         id="path2427"
         inkscape:connector-curvature="0" />
      <path
         id="polygon49"
         d="m 80.016721,60.224912 15.594756,1.66472 7.027783,10.37843 -21.562108,-3.118108 z"
         style="fill:url(#linearGradient5807)"
         sodipodi:nodetypes="ccccc"
         inkscape:connector-curvature="0" />
      <path
         style="fill:url(#linearGradient5804)"
         d="m 80.016721,67.613687 c -2.251023,1.130146 -7.169635,2.566646 -22.622533,4.748268 l 7.028647,-10.472323 c 0,0 4.682833,-0.698286 5.973243,-0.927528 5.457734,-0.969572 8.284343,-2.347905 8.433399,-3.022376 0.270775,0.187114 0.856502,1.916894 0.922136,3.456245 z"
         id="polygon69"
         sodipodi:nodetypes="cccscsc"
         inkscape:connector-curvature="0" />
      <path
         sodipodi:nodetypes="ccccccc"
         inkscape:connector-curvature="0"
         d="m 100.51186,102.9601 c -0.013,0.23741 0.0736,0.43719 0.19273,0.44325 0.11921,0.006 0.22797,-0.18248 0.24145,-0.41989 l 1.72315,-30.553666 c 0.013,-0.237406 -0.10477,-0.06228 -0.22397,-0.06876 -0.1192,-0.0066 -0.22797,0.182055 -0.24145,0.419894 z"
         id="path148"
         style="opacity:0.41841006;fill:url(#linearGradient5859)" />
      <path
         transform="matrix(0.70695417,0,0,0.70695417,34.418177,40.30783)"
         inkscape:connector-curvature="0"
         d="m 94.672923,70.287512 0.307692,0 c 0.02277,-0.406772 0.04554,-0.814767 0.06831,-1.223374 l -0.307693,0 -0.06831,1.223374 z m -0.411693,7.340242 0.308308,0 c 0.02215,-0.401878 0.04492,-0.809873 0.06831,-1.223374 l -0.308308,0 -0.06831,1.223374 z m 0.274462,-4.893495 0.308308,0 c 0.02277,-0.405548 0.04554,-0.813543 0.06831,-1.223374 l -0.307692,0 -0.06892,1.223374 z m -0.137231,2.446748 0.308308,0 c 0.02215,-0.403714 0.04554,-0.811709 0.06831,-1.223374 l -0.308308,0 -0.06831,1.223374 z m -0.548923,9.78699 0.308308,0 c 0.02092,-0.38414 0.04369,-0.792135 0.06831,-1.223374 l -0.308307,0 -0.06831,1.223374 z m -0.136615,2.446747 0.307692,0 c 0.01908,-0.343768 0.04246,-0.754821 0.06831,-1.223374 l -0.307693,0 -0.06831,1.223374 z m 0.273846,-4.893495 0.308308,0 c 0.02215,-0.394538 0.04492,-0.802533 0.06831,-1.223374 l -0.308307,0 -0.06831,1.223374 z m 0.137846,-2.446747 0.307692,0 c 0.02215,-0.39882 0.04492,-0.806815 0.06831,-1.223374 l -0.307692,0 -0.06831,1.223374 z m 0.822769,-14.680485 0.307693,0 c 0.02338,-0.409219 0.04615,-0.817214 0.06892,-1.223374 l -0.308308,0 -0.06831,1.223374 z m -0.137231,2.446747 0.307693,0 c 0.02277,-0.407995 0.04554,-0.81599 0.06831,-1.223374 l -0.307692,0 -0.06831,1.223374 z m 0.82277,-14.680485 0.308307,0 c 0.02338,-0.421452 0.04615,-0.830059 0.06831,-1.223374 l -0.308308,0 -0.06831,1.223374 z m 0.13723,-2.446748 0.307693,0 c 0.024,-0.432462 0.04677,-0.841069 0.06831,-1.223373 l -0.307692,0 -0.06831,1.223373 z m 0.205539,-3.670121 -0.06831,1.223374 0.307692,0 c 0.02646,-0.475892 0.04985,-0.885723 0.06831,-1.223374 l -0.307692,0 z m -0.48,8.563616 0.308308,0 c 0.02277,-0.41717 0.04554,-0.825165 0.06831,-1.223373 l -0.308307,0 -0.06831,1.223373 z m -0.411692,7.340243 0.308307,0 c 0.02277,-0.410442 0.04554,-0.818437 0.06831,-1.223374 l -0.308308,0 -0.06831,1.223374 z m 0.275077,-4.893495 0.307692,0 c 0.02338,-0.414112 0.04615,-0.822107 0.06892,-1.223374 l -0.308308,0 -0.06831,1.223374 z m -0.137847,2.446748 0.308308,0 c 0.02339,-0.412277 0.04615,-0.819661 0.06831,-1.223374 l -0.308308,0 -0.06831,1.223374 z"
         id="path163"
         style="opacity:0.1966527;fill:url(#linearGradient5856);filter:url(#filter6125)" />
      <path
         sodipodi:nodetypes="ccccccc"
         inkscape:connector-curvature="0"
         d="m 58.109853,102.04354 c 0.01349,0.23741 -0.07352,0.43719 -0.192728,0.44325 -0.119203,0.006 -0.22753,-0.18248 -0.241452,-0.41989 L 57.38997,72.517513 c -0.01305,-0.237408 0.07905,-0.149992 0.19825,-0.156478 0.119203,-0.0066 0.227965,0.182055 0.241452,0.419894 z"
         id="path172"
         style="opacity:0.58577408;fill:url(#linearGradient5839)" />
      <path
         transform="matrix(0.41316911,0,0,0.41068647,58.428637,63.355742)"
         style="opacity:0.209205;fill:none;stroke:url(#linearGradient5767);stroke-width:1.86274767;stroke-linejoin:round;stroke-miterlimit:4;stroke-opacity:1;filter:url(#filter6137)"
         d="m -2.3873279,96.611154 0,-71.416705 L 104.25,24.795 l 0,0 -4,71.785 z"
         id="polygon2416"
         inkscape:connector-curvature="0"
         sodipodi:nodetypes="cccccc" />
      <path
         inkscape:connector-curvature="0"
         sodipodi:nodetypes="ccccc"
         id="rect6520"
         d="m 80.01685,60.279291 9.321521,0.924479 3.488756,10.767455 -12.334572,-1.345932 z"
         style="opacity:0.25941425;fill:url(#linearGradient6061);fill-opacity:1;fill-rule:evenodd;stroke:none" />
      <path
         sodipodi:nodetypes="ccccc"
         inkscape:connector-curvature="0"
         id="path6065"
         d="m 80.016721,60.323471 1.060431,8.836927 19.408098,2.794678 -19.308683,-2.927232 z"
         style="fill:#e2cca7;fill-opacity:1;stroke:none" />
      <path
         inkscape:connector-curvature="0"
         sodipodi:nodetypes="cccscsc"
         id="path6069"
         d="m 80.016721,67.613687 c -2.251023,1.130146 -7.169635,2.566646 -22.622533,4.748268 l 7.028647,-10.472323 c 0,0 4.682833,-0.698286 5.973243,-0.927528 5.457734,-0.969572 8.284343,-2.347905 8.433399,-3.022376 0.270775,0.187114 0.856502,1.916894 0.922136,3.456245 z"
         style="opacity:0.23012552;fill:url(#radialGradient6085);fill-opacity:1;stroke:none" />
      <path
         sodipodi:nodetypes="csccccscccccc"
         inkscape:connector-curvature="0"
         id="path6087"
         d="m 78.839829,57.9375 c -0.149055,0.67447 -2.981537,2.057077 -8.439266,3.026648 -1.290411,0.229243 -5.987019,0.927876 -5.987019,0.927876 l -7.019833,10.471759 c 0.0247,-0.0035 0.04164,-0.0186 0.06628,-0.02209 L 64.34727,62.090858 c 0,0 4.696608,-0.676542 5.987018,-0.905784 5.457729,-0.969572 8.361849,-2.64899 8.479659,-3.073513 0.270771,0.187114 0.799758,1.953916 0.865391,3.493267 l 0.265108,6.053294 c 0.02118,-0.01048 0.04556,-0.03379 0.06628,-0.04419 L 79.745622,61.405991 C 79.679981,59.866644 79.110599,58.124614 78.839829,57.9375 z"
         style="fill:url(#radialGradient6115);fill-opacity:1;stroke:none" />
      <path
         style="fill:#f4eddf;fill-opacity:1;stroke:none"
         d="m 57.427848,72.398989 22.16525,0.401248 22.266852,-0.09533 -22.167437,-0.03723 z"
         id="path6123"
         inkscape:connector-curvature="0"
         sodipodi:nodetypes="ccccc" />
    </g>
    <path
       clip-path="url(#clipPath6093-7-5)"
       style="opacity:0.34728035;fill:#000000;fill-opacity:1;stroke:none;filter:url(#filter6171-8-7)"
       d="m 116.12376,78.971565 c 0,4.465301 -6.19771,3.506816 -8.67994,5.190489 -5.10854,3.46508 -20.174687,2.225237 -25.955857,2.306257 -0.081,5.781159 -0.937221,19.675219 -0.937221,25.825239 0,2.97817 -3.440475,11.20945 -6.350745,11.20945 -2.091359,1.5337 3.488204,8.21101 6.734971,5.31989 9.501888,-8.46107 35.131682,-30.022704 43.350822,-39.262889 2.04044,-2.29392 -3.18138,-13.376087 -8.16203,-10.588436 z"
       id="path6153"
       inkscape:connector-curvature="0"
       sodipodi:nodetypes="cscscssc"
       transform="matrix(1.1813248,0,0,1.2086603,-24.26375,-24.510815)" />
    <path
       sodipodi:nodetypes="cscscssc"
       inkscape:connector-curvature="0"
       id="path6081"
       d="m 113.9,82.502986 c 0,4.465301 -10.43981,5.304142 -13.42995,5.727919 -6.394979,0.906328 -14.119031,-0.156997 -19.900201,-0.07598 -0.505268,6.06824 0.8669,24.053995 1.224403,26.575985 0.418175,2.94999 -3.883991,8.07209 -6.794261,8.07209 -2.091359,1.5337 3.488204,11.21101 6.734971,8.31989 C 91.23685,122.66182 127.7339,100.92151 135.95304,91.681321 137.99348,89.387401 118.88065,79.715335 113.9,82.502986 z"
       style="fill:#000000;fill-opacity:1;stroke:none;filter:url(#filter3827)"
       clip-path="url(#clipPath6093-7-5)"
       transform="matrix(1.2864191,0,0,1.3161866,-33.24659,-37.128335)" />
    <path
       style="fill:url(#linearGradient3895-3-6);fill-opacity:1;stroke:none"
       d="m 111.63282,69.53766 c 0,6.01876 -3.68896,8.63994 -6.96218,10.90935 -6.73647,4.67056 -20.60166,3.68167 -28.22509,3.79088 -0.10681,7.79239 0.68193,20.81161 -3.88735,27.69738 -2.2202,3.3458 -6.53768,8.14845 -10.37535,8.14845 3.0567,0 6.25422,-1.79911 10.00078,-5.50589 12.05521,-11.92716 22.90146,-21.74875 33.85431,-34.0984 2.53047,-2.85315 5.59488,-4.90887 5.59488,-10.94177 z"
       id="path6011"
       inkscape:connector-curvature="0"
       sodipodi:nodetypes="cscscssc" />
    <path
       style="fill:#ffffff;fill-opacity:1;stroke:none"
       d="m 110.71058,68.28135 c -0.41723,5.25558 -4.27313,7.09302 -6.37262,8.54864 C 99.3602,80.28117 92.74788,80 72,80 c 0,19.1015 0.48592,27.6002 -3.12923,32.26786 -2.15211,2.77868 -6.46111,5.87696 -9.97277,6.67209 4.81183,0 8.1703,-1.05121 11.31376,-4.16129 C 70.65895,114.25496 79.29853,105.10667 80,104 c 0,-8 0,-4.4309 0,-16 7.62343,-0.10918 8,0 16,0 0.74683,0 10.14294,-9.61314 10.69263,-10.16284 3.05326,-3.05325 3.71528,-4.99949 4.01795,-9.55581 z M 58.898,118.93995 c -0.2079,0.0469 -0.41332,0.0558 -0.61813,0.0842 0.20702,-0.0228 0.40937,-0.0452 0.61813,-0.0842 z"
       id="path6122"
       inkscape:connector-curvature="0"
       sodipodi:nodetypes="cscsccccsscccc" />
    <path
       style="fill:none;stroke:url(#radialGradient3919-5-6);stroke-width:1.85605633;stroke-linecap:butt;stroke-linejoin:miter;stroke-miterlimit:4;stroke-opacity:1;stroke-dasharray:none;filter:url(#filter3909-6-6)"
       d="M 108.97651,89.508691 79.934895,118.21077"
       id="path3873"
       inkscape:connector-curvature="0"
       sodipodi:nodetypes="cc"
       clip-path="url(#clipPath3889-6-4)"
       transform="matrix(1.3186655,0,0,1.3478946,-36.05773,-41.667663)" />
    <path
       style="fill:#000000"
       d=""
       id="path2197" />
  </g>
</svg>
