<?xml version="1.0" encoding="UTF-8" standalone="no"?>
<!-- Created with Inkscape (http://www.inkscape.org/) -->

<svg
   xmlns:dc="http://purl.org/dc/elements/1.1/"
   xmlns:cc="http://creativecommons.org/ns#"
   xmlns:rdf="http://www.w3.org/1999/02/22-rdf-syntax-ns#"
   xmlns:svg="http://www.w3.org/2000/svg"
   xmlns="http://www.w3.org/2000/svg"
   xmlns:xlink="http://www.w3.org/1999/xlink"
   xmlns:sodipodi="http://sodipodi.sourceforge.net/DTD/sodipodi-0.dtd"
   xmlns:inkscape="http://www.inkscape.org/namespaces/inkscape"
   width="128"
   height="128"
   id="svg2606"
   sodipodi:version="0.32"
   inkscape:version="0.48.0 r9654"
   version="1.0"
   sodipodi:docname="application-x-zerosize.svgz"
   inkscape:output_extension="org.inkscape.output.svgz.inkscape"
   inkscape:export-filename="/home/pinheiro/pics/oxygen-icons/scalable/mimetypes/small/16x16/application-x-kgetlist.png"
   inkscape:export-xdpi="180"
   inkscape:export-ydpi="180">
  <defs
     id="defs2608">
    <linearGradient
       id="linearGradient6131">
      <stop
         id="stop6133"
         offset="0"
         style="stop-color:#fcfcfc;stop-opacity:1" />
      <stop
         style="stop-color:#f8f8f8;stop-opacity:1"
         offset="0.52275378"
         id="stop6135" />
      <stop
         id="stop6141"
         offset="0.77457333"
         style="stop-color:#f0efef;stop-opacity:1;" />
      <stop
         id="stop6139"
         offset="0.90122044"
         style="stop-color:#e3e1e1;stop-opacity:1;" />
      <stop
         id="stop6137"
         offset="1"
         style="stop-color:#cecbcb;stop-opacity:1" />
    </linearGradient>
    <linearGradient
       inkscape:collect="always"
       xlink:href="#linearGradient6131"
       id="linearGradient3893"
       gradientUnits="userSpaceOnUse"
       gradientTransform="matrix(1.0119858,0,0,1.0119858,-0.89554075,-0.9871566)"
       x1="86.73793"
       y1="93.621468"
       x2="95.460213"
       y2="102.34375" />
    <radialGradient
       inkscape:collect="always"
       xlink:href="#linearGradient3913-5"
       id="radialGradient3919-5"
       cx="90.75"
       cy="110.25299"
       fx="90.75"
       fy="110.25299"
       r="18.750002"
       gradientTransform="matrix(1.3067347,0,0,1.3067347,-27.83617,-33.818441)"
       gradientUnits="userSpaceOnUse" />
    <linearGradient
       inkscape:collect="always"
       id="linearGradient3913-5">
      <stop
         style="stop-color:#ffffff;stop-opacity:1;"
         offset="0"
         id="stop3915-4" />
      <stop
         style="stop-color:#ffffff;stop-opacity:0;"
         offset="1"
         id="stop3917-7" />
    </linearGradient>
    <clipPath
       clipPathUnits="userSpaceOnUse"
       id="clipPath3889-6">
      <path
         sodipodi:nodetypes="cscscssc"
         inkscape:connector-curvature="0"
         id="path3891-5"
         d="m 112,82.502986 c 0,4.465301 -2.79749,6.409952 -5.27972,8.093625 -5.10854,3.46508 -14.939114,3.32536 -20.720284,3.40638 -0.081,5.781159 0.16586,15.504599 -3.29922,20.613139 -1.68367,2.48224 -5.29051,5.38687 -8.20078,5.38687 2.31803,0 4.74284,-1.33476 7.58402,-4.08481 9.14197,-8.84873 17.36714,-16.13535 25.673154,-25.297529 C 109.67612,88.503916 112,86.97878 112,82.502986 z"
         style="fill:url(#linearGradient3893);fill-opacity:1;stroke:none" />
    </clipPath>
    <filter
       color-interpolation-filters="sRGB"
       inkscape:collect="always"
       id="filter3909-6">
      <feGaussianBlur
         inkscape:collect="always"
         stdDeviation="0.43040059"
         id="feGaussianBlur3911-9" />
    </filter>
    <linearGradient
       inkscape:collect="always"
       xlink:href="#linearGradient3897-7"
       id="linearGradient3895-3"
       gradientUnits="userSpaceOnUse"
       gradientTransform="matrix(1.3344708,0,0,1.3640502,-37.238647,-42.998247)"
       x1="82.15696"
       y1="90.381706"
       x2="94.220871"
       y2="102.18401" />
    <linearGradient
       id="linearGradient3897-7">
      <stop
         style="stop-color:#fcfcfc;stop-opacity:1"
         offset="0"
         id="stop3899-4" />
      <stop
         id="stop3901-5"
         offset="0.52275378"
         style="stop-color:#f8f8f8;stop-opacity:1" />
      <stop
         style="stop-color:#f0efef;stop-opacity:1;"
         offset="0.72337759"
         id="stop3903-2" />
      <stop
         style="stop-color:#e3e1e1;stop-opacity:1;"
         offset="0.89024991"
         id="stop3905-5" />
      <stop
         style="stop-color:#cecbcb;stop-opacity:1"
         offset="1"
         id="stop3907-4" />
    </linearGradient>
    <clipPath
       clipPathUnits="userSpaceOnUse"
       id="clipPath6093-7">
      <path
         inkscape:connector-curvature="0"
         sodipodi:nodetypes="cccssccc"
         id="path6095-4"
         d="m 17.000001,8 0.782827,110 57.5,0 c 1.675283,0 3.119418,0.18058 4.9,-1.6 8.797935,-8.79794 21.481402,-23.383226 28.739972,-30.707378 2.44056,-2.462612 2.80096,-4.47117 2.80096,-6.724043 L 110,8 z"
         style="fill:#ffffff;fill-opacity:1" />
    </clipPath>
    <radialGradient
       inkscape:collect="always"
       xlink:href="#linearGradient5982-7"
       id="radialGradient5988-0"
       cx="68.138977"
       cy="89.42041"
       fx="67.932365"
       fy="72.691223"
       r="47.5"
       gradientTransform="matrix(1.5860719,-0.07936281,0.06485072,1.2953772,-41.872296,-14.425457)"
       gradientUnits="userSpaceOnUse" />
    <linearGradient
       inkscape:collect="always"
       id="linearGradient5982-7">
      <stop
         style="stop-color:#ffffff;stop-opacity:1;"
         offset="0"
         id="stop5984-8" />
      <stop
         style="stop-color:#ffffff;stop-opacity:0;"
         offset="1"
         id="stop5986-6" />
    </linearGradient>
    <filter
       color-interpolation-filters="sRGB"
       inkscape:collect="always"
       id="filter6171-8"
       x="-0.47870937"
       width="1.9574188"
       y="-0.51275069"
       height="2.0255013">
      <feGaussianBlur
         inkscape:collect="always"
         stdDeviation="10.140743"
         id="feGaussianBlur6173-8" />
    </filter>
    <linearGradient
       inkscape:collect="always"
       xlink:href="#linearGradient4518-3"
       id="linearGradient4524-4"
       x1="47.236164"
       y1="22.150356"
       x2="72"
       y2="116.40091"
       gradientUnits="userSpaceOnUse"
       gradientTransform="matrix(0.94173025,0,0,0.94148681,3.5162756,3.1457312)" />
    <linearGradient
       id="linearGradient4518-3">
      <stop
         style="stop-color:#eeecec;stop-opacity:1"
         offset="0"
         id="stop4520-1" />
      <stop
         id="stop5969-4"
         offset="0.40000001"
         style="stop-color:#f4f4f4;stop-opacity:1" />
      <stop
         style="stop-color:#f6f5f5;stop-opacity:1"
         offset="1"
         id="stop4522-9" />
    </linearGradient>
    <filter
       inkscape:collect="always"
       id="filter4123">
      <feGaussianBlur
         inkscape:collect="always"
         stdDeviation="2.028"
         id="feGaussianBlur4125" />
    </filter>
    <filter
       inkscape:collect="always"
       id="filter3822">
      <feGaussianBlur
         inkscape:collect="always"
         stdDeviation="2.7153804"
         id="feGaussianBlur3824" />
    </filter>
    <filter
       inkscape:collect="always"
       id="filter3827"
       x="-0.084733292"
       width="1.1694666"
       y="-0.10505005"
       height="1.2101001">
      <feGaussianBlur
         inkscape:collect="always"
         stdDeviation="2.1734796"
         id="feGaussianBlur3829" />
    </filter>
    <linearGradient
       gradientTransform="translate(-484,-674)"
       y2="677.06049"
       x2="538.77338"
       y1="675.48541"
       x1="538.77338"
       gradientUnits="userSpaceOnUse"
       id="XMLID_16_">
      <stop
         id="stop146"
         style="stop-color:#FFFFFF"
         offset="0" />
      <stop
         id="stop148"
         style="stop-color:#00BF00"
         offset="1" />
    </linearGradient>
    <radialGradient
       gradientUnits="userSpaceOnUse"
       gradientTransform="translate(-484,-674)"
       r="126.0234"
       cy="651.10352"
       cx="538.77338"
       id="XMLID_15_">
      <stop
         id="stop137"
         style="stop-color:#CCEAAC"
         offset="0" />
      <stop
         id="stop139"
         style="stop-color:#3BA42A"
         offset="0.5393" />
      <stop
         id="stop141"
         style="stop-color:#91E851"
         offset="1" />
    </radialGradient>
    <linearGradient
       gradientTransform="translate(-484,-674)"
       y2="789.12207"
       x2="538.77338"
       y1="677.87701"
       x1="538.77338"
       gradientUnits="userSpaceOnUse"
       id="XMLID_14_">
      <stop
         id="stop122"
         style="stop-color:#1E7D27"
         offset="0.0056" />
      <stop
         id="stop124"
         style="stop-color:#3BA42A"
         offset="0.1348" />
      <stop
         id="stop126"
         style="stop-color:#B8E57F"
         offset="0.4831" />
      <stop
         id="stop128"
         style="stop-color:#A9E66E"
         offset="0.6299" />
      <stop
         id="stop130"
         style="stop-color:#97E859"
         offset="0.8528" />
      <stop
         id="stop132"
         style="stop-color:#91E851"
         offset="1" />
    </linearGradient>
    <radialGradient
       gradientUnits="userSpaceOnUse"
       gradientTransform="translate(-484,-674)"
       r="121.5466"
       cy="792.99609"
       cx="538.77252"
       id="XMLID_13_">
      <stop
         id="stop9505"
         style="stop-color:#FFFAB3"
         offset="0" />
      <stop
         id="stop9507"
         style="stop-color:#DFEE9F"
         offset="0.0494" />
      <stop
         id="stop9509"
         style="stop-color:#C3E48D"
         offset="0.1049" />
      <stop
         id="stop9511"
         style="stop-color:#AEDC80"
         offset="0.1605" />
      <stop
         id="stop9513"
         style="stop-color:#A2D879"
         offset="0.2156" />
      <stop
         id="stop9515"
         style="stop-color:#9ED676"
         offset="0.2697" />
      <stop
         id="stop9517"
         style="stop-color:#3BA42A"
         offset="0.3989" />
      <stop
         id="stop9519"
         style="stop-color:#3BA42A"
         offset="0.3995" />
      <stop
         id="stop9521"
         style="stop-color:#258426"
         offset="0.4484" />
      <stop
         id="stop101"
         style="stop-color:#166D24"
         offset="0.4956" />
      <stop
         id="stop103"
         style="stop-color:#0C5F23"
         offset="0.54" />
      <stop
         id="stop105"
         style="stop-color:#095A22"
         offset="0.5787" />
      <stop
         id="stop107"
         style="stop-color:#166727"
         offset="0.5948" />
      <stop
         id="stop109"
         style="stop-color:#388B33"
         offset="0.6456" />
      <stop
         id="stop111"
         style="stop-color:#51A53C"
         offset="0.6932" />
      <stop
         id="stop113"
         style="stop-color:#61B542"
         offset="0.7359" />
      <stop
         id="stop115"
         style="stop-color:#66BA44"
         offset="0.7697" />
      <stop
         id="stop117"
         style="stop-color:#095A22"
         offset="1" />
    </radialGradient>
    <linearGradient
       y2="96.000198"
       x2="88.000198"
       y1="104"
       x1="96"
       gradientUnits="userSpaceOnUse"
       id="XMLID_12_">
      <stop
         id="stop83"
         style="stop-color:#888A85"
         offset="0" />
      <stop
         id="stop85"
         style="stop-color:#8C8E89"
         offset="0.0072" />
      <stop
         id="stop87"
         style="stop-color:#ABACA9"
         offset="0.0673" />
      <stop
         id="stop89"
         style="stop-color:#C5C6C4"
         offset="0.1347" />
      <stop
         id="stop91"
         style="stop-color:#DBDBDA"
         offset="0.2652576" />
      <stop
         id="stop93"
         style="stop-color:#EBEBEB"
         offset="0.37646064" />
      <stop
         id="stop95"
         style="stop-color:#F7F7F6"
         offset="0.48740286" />
      <stop
         id="stop97"
         style="stop-color:#FDFDFD"
         offset="0.6324091" />
      <stop
         id="stop99"
         style="stop-color:#FFFFFF"
         offset="1" />
    </linearGradient>
    <linearGradient
       gradientTransform="translate(-484,-674)"
       y2="736.55688"
       x2="579.72852"
       y1="732.41022"
       x1="579.72852"
       gradientUnits="userSpaceOnUse"
       id="XMLID_11_">
      <stop
         id="stop61"
         style="stop-color:#094422"
         offset="0" />
      <stop
         id="stop63"
         style="stop-color:#9ED676"
         offset="1" />
    </linearGradient>
    <linearGradient
       gradientTransform="translate(-484,-674)"
       y2="678.3681"
       x2="538.77338"
       y1="674"
       x1="538.77338"
       gradientUnits="userSpaceOnUse"
       id="XMLID_10_">
      <stop
         id="stop54"
         style="stop-color:#094422"
         offset="0" />
      <stop
         id="stop56"
         style="stop-color:#9ED676"
         offset="1" />
    </linearGradient>
    <linearGradient
       gradientTransform="translate(-484,-674)"
       y2="674"
       x2="538.77338"
       y1="793"
       x1="538.77338"
       gradientUnits="userSpaceOnUse"
       id="XMLID_9_">
      <stop
         id="stop7"
         style="stop-color:#094422"
         offset="0" />
      <stop
         id="stop9"
         style="stop-color:#095A22"
         offset="0.1124" />
      <stop
         id="stop11"
         style="stop-color:#1E7D27"
         offset="0.4045" />
      <stop
         id="stop13"
         style="stop-color:#217F29"
         offset="0.4231" />
      <stop
         id="stop15"
         style="stop-color:#2A8531"
         offset="0.4369" />
      <stop
         id="stop17"
         style="stop-color:#3A8F3D"
         offset="0.4491" />
      <stop
         id="stop19"
         style="stop-color:#519D4E"
         offset="0.4605" />
      <stop
         id="stop21"
         style="stop-color:#6EAF64"
         offset="0.4712" />
      <stop
         id="stop23"
         style="stop-color:#92C680"
         offset="0.4814" />
      <stop
         id="stop25"
         style="stop-color:#BCE0A0"
         offset="0.4911" />
      <stop
         id="stop27"
         style="stop-color:#CCEAAC"
         offset="0.4944" />
      <stop
         id="stop29"
         style="stop-color:#A4CD90"
         offset="0.5124" />
      <stop
         id="stop31"
         style="stop-color:#80B276"
         offset="0.5326" />
      <stop
         id="stop33"
         style="stop-color:#609A5F"
         offset="0.5552" />
      <stop
         id="stop35"
         style="stop-color:#44864C"
         offset="0.5803" />
      <stop
         id="stop37"
         style="stop-color:#2E763C"
         offset="0.6086" />
      <stop
         id="stop39"
         style="stop-color:#1D6931"
         offset="0.6416" />
      <stop
         id="stop9560"
         style="stop-color:#126028"
         offset="0.6825" />
      <stop
         id="stop43"
         style="stop-color:#0B5B23"
         offset="0.7398" />
      <stop
         id="stop45"
         style="stop-color:#095A22"
         offset="0.8989" />
      <stop
         id="stop9564"
         style="stop-color:#9ED676"
         offset="1" />
    </linearGradient>
    <filter
       inkscape:collect="always"
       id="filter4274"
       x="-0.085184656"
       width="1.1703693"
       y="-0.17037249"
       height="1.340745"
       color-interpolation-filters="sRGB">
      <feGaussianBlur
         inkscape:collect="always"
         stdDeviation="2.3426182"
         id="feGaussianBlur4276" />
    </filter>
    <clipPath
       id="clipPath3696"
       clipPathUnits="userSpaceOnUse">
      <path
         sodipodi:nodetypes="ccssscccccc"
         inkscape:connector-curvature="0"
         id="path3698"
         d="m 174.87599,37.680259 c -0.29803,0 -0.43848,0.205749 -0.43848,0.438478 l 0,96.437783 c 0,0.72049 0.59574,1.31496 1.31544,1.31543 l 41.65542,0.0275 c 0.0465,3e-5 2.87105,-0.007 3.47582,5e-5 5.73614,-3.94952 26.28054,-25.39081 34.12511,-33.285 1.29513,-1.45267 0.4013,-0.32454 1.27502,-1.40967 l 5e-5,-63.086043 c 0,-0.283009 -0.14314,-0.438478 -0.43848,-0.438478 z"
         style="opacity:0.84653476;fill:url(#radialGradient3700);fill-opacity:1" />
    </clipPath>
    <filter
       height="1.408259"
       y="-0.2041295"
       width="1.3293014"
       x="-0.16465071"
       id="filter4087"
       inkscape:collect="always">
      <feGaussianBlur
         id="feGaussianBlur4089"
         stdDeviation="4.2234282"
         inkscape:collect="always" />
    </filter>
    <filter
       id="filter4123-2"
       inkscape:collect="always">
      <feGaussianBlur
         id="feGaussianBlur4125-6"
         stdDeviation="2.028"
         inkscape:collect="always" />
    </filter>
    <linearGradient
       id="linearGradient4518-3-0">
      <stop
         id="stop4520-1-6"
         offset="0"
         style="stop-color:#eeecec;stop-opacity:1" />
      <stop
         style="stop-color:#f4f4f4;stop-opacity:1"
         offset="0.40000001"
         id="stop5969-4-8" />
      <stop
         id="stop4522-9-9"
         offset="1"
         style="stop-color:#f6f5f5;stop-opacity:1" />
    </linearGradient>
    <filter
       height="2.0255013"
       y="-0.51275069"
       width="1.9574188"
       x="-0.47870937"
       id="filter6171-8-4"
       inkscape:collect="always"
       color-interpolation-filters="sRGB">
      <feGaussianBlur
         id="feGaussianBlur6173-8-9"
         stdDeviation="10.140743"
         inkscape:collect="always" />
    </filter>
    <linearGradient
       id="linearGradient5982-7-4"
       inkscape:collect="always">
      <stop
         id="stop5984-8-3"
         offset="0"
         style="stop-color:#ffffff;stop-opacity:1;" />
      <stop
         id="stop5986-6-1"
         offset="1"
         style="stop-color:#ffffff;stop-opacity:0;" />
    </linearGradient>
    <clipPath
       id="clipPath6093-7-6"
       clipPathUnits="userSpaceOnUse">
      <path
         style="fill:#ffffff;fill-opacity:1"
         d="m 17.000001,8 0.782827,110 57.5,0 c 1.675283,0 3.119418,0.18058 4.9,-1.6 C 88.980763,107.60206 99.94047,96.548195 107.19904,89.224043 109.6396,86.761431 110,84.752873 110,82.5 L 110,8 z"
         id="path6095-4-8"
         sodipodi:nodetypes="cccssccc"
         inkscape:connector-curvature="0" />
    </clipPath>
    <linearGradient
       id="linearGradient3897-7-4">
      <stop
         id="stop3899-4-4"
         offset="0"
         style="stop-color:#fcfcfc;stop-opacity:1" />
      <stop
         style="stop-color:#f8f8f8;stop-opacity:1"
         offset="0.52275378"
         id="stop3901-5-3" />
      <stop
         id="stop3903-2-0"
         offset="0.72337759"
         style="stop-color:#f0efef;stop-opacity:1;" />
      <stop
         id="stop3905-5-7"
         offset="0.89024991"
         style="stop-color:#e3e1e1;stop-opacity:1;" />
      <stop
         id="stop3907-4-8"
         offset="1"
         style="stop-color:#cecbcb;stop-opacity:1" />
    </linearGradient>
    <filter
       id="filter3909-6-5"
       inkscape:collect="always"
       color-interpolation-filters="sRGB">
      <feGaussianBlur
         id="feGaussianBlur3911-9-4"
         stdDeviation="0.43040059"
         inkscape:collect="always" />
    </filter>
    <clipPath
       id="clipPath3889-6-5"
       clipPathUnits="userSpaceOnUse">
      <path
         style="fill:url(#linearGradient3893-6);fill-opacity:1;stroke:none"
         d="m 112,82.502986 c 0,4.465301 -2.79749,6.409952 -5.27972,8.093625 -5.10854,3.46508 -14.939114,3.32536 -20.720284,3.40638 -0.081,5.781159 0.16586,15.504599 -3.29922,20.613139 -1.68367,2.48224 -5.29051,5.38687 -8.20078,5.38687 2.31803,0 4.74284,-1.33476 7.58402,-4.08481 9.14197,-8.84873 17.36714,-16.13535 25.673154,-25.297529 C 109.67612,88.503916 112,86.97878 112,82.502986 z"
         id="path3891-5-2"
         inkscape:connector-curvature="0"
         sodipodi:nodetypes="cscscssc" />
    </clipPath>
    <linearGradient
       id="linearGradient3913-5-3"
       inkscape:collect="always">
      <stop
         id="stop3915-4-7"
         offset="0"
         style="stop-color:#ffffff;stop-opacity:1;" />
      <stop
         id="stop3917-7-4"
         offset="1"
         style="stop-color:#ffffff;stop-opacity:0;" />
    </linearGradient>
    <radialGradient
       gradientUnits="userSpaceOnUse"
       gradientTransform="matrix(1.3067347,0,0,1.3067347,-27.83617,-33.818441)"
       r="18.750002"
       fy="110.25299"
       fx="90.75"
       cy="110.25299"
       cx="90.75"
       id="radialGradient3919-5-9"
       xlink:href="#linearGradient3913-5-3"
       inkscape:collect="always" />
    <linearGradient
       y2="102.34375"
       x2="95.460213"
       y1="93.621468"
       x1="86.73793"
       gradientTransform="matrix(1.0119858,0,0,1.0119858,-0.89554075,-0.9871566)"
       gradientUnits="userSpaceOnUse"
       id="linearGradient3893-6"
       xlink:href="#linearGradient6131-5"
       inkscape:collect="always" />
    <linearGradient
       id="linearGradient6131-5">
      <stop
         style="stop-color:#fcfcfc;stop-opacity:1"
         offset="0"
         id="stop6133-5" />
      <stop
         id="stop6135-4"
         offset="0.52275378"
         style="stop-color:#f8f8f8;stop-opacity:1" />
      <stop
         style="stop-color:#f0efef;stop-opacity:1;"
         offset="0.77457333"
         id="stop6141-7" />
      <stop
         style="stop-color:#e3e1e1;stop-opacity:1;"
         offset="0.90122044"
         id="stop6139-6" />
      <stop
         style="stop-color:#cecbcb;stop-opacity:1"
         offset="1"
         id="stop6137-5" />
    </linearGradient>
    <linearGradient
       inkscape:collect="always"
       xlink:href="#linearGradient3897-7-4"
       id="linearGradient3373"
       gradientUnits="userSpaceOnUse"
       gradientTransform="matrix(1.3731411,0,0,1.4035776,-245.50789,-75.63962)"
       x1="82.15696"
       y1="90.381706"
       x2="94.220871"
       y2="102.18401" />
    <radialGradient
       inkscape:collect="always"
       xlink:href="#linearGradient5982-7-4"
       id="radialGradient3405"
       gradientUnits="userSpaceOnUse"
       gradientTransform="matrix(1.7069944,-0.08541345,0.06979496,1.3941371,-254.49172,-52.434615)"
       cx="64"
       cy="64.004021"
       fx="63.793392"
       fy="47.274845"
       r="47.5" />
    <linearGradient
       inkscape:collect="always"
       xlink:href="#linearGradient4518-3-0"
       id="linearGradient3408"
       gradientUnits="userSpaceOnUse"
       gradientTransform="matrix(1.013528,0,0,1.013266,-205.64271,-33.523795)"
       x1="72"
       y1="0"
       x2="72"
       y2="116.40091" />
    <linearGradient
       inkscape:collect="always"
       xlink:href="#XMLID_9_"
       id="linearGradient3413"
       gradientUnits="userSpaceOnUse"
       gradientTransform="matrix(0.6024737,0,0,0.6890756,-188.17076,-522.43699)"
       x1="538.77338"
       y1="793"
       x2="538.77338"
       y2="674" />
    <linearGradient
       inkscape:collect="always"
       xlink:href="#XMLID_10_"
       id="linearGradient3415"
       gradientUnits="userSpaceOnUse"
       gradientTransform="translate(-484,-674)"
       x1="538.77338"
       y1="674"
       x2="538.77338"
       y2="678.3681" />
    <linearGradient
       inkscape:collect="always"
       xlink:href="#XMLID_11_"
       id="linearGradient3417"
       gradientUnits="userSpaceOnUse"
       gradientTransform="translate(-484,-674)"
       x1="579.72852"
       y1="732.41022"
       x2="579.72852"
       y2="736.55688" />
    <linearGradient
       inkscape:collect="always"
       xlink:href="#XMLID_12_"
       id="linearGradient3419"
       gradientUnits="userSpaceOnUse"
       gradientTransform="translate(-484,-674)"
       x1="497.81451"
       y1="732.4082"
       x2="497.81451"
       y2="736.62341" />
    <radialGradient
       inkscape:collect="always"
       xlink:href="#XMLID_13_"
       id="radialGradient3421"
       gradientUnits="userSpaceOnUse"
       gradientTransform="matrix(0.6024737,0,0,0.6890756,-188.17076,-522.43699)"
       cx="538.77252"
       cy="792.99609"
       r="121.5466" />
    <linearGradient
       inkscape:collect="always"
       xlink:href="#XMLID_14_"
       id="linearGradient3423"
       gradientUnits="userSpaceOnUse"
       gradientTransform="matrix(0.6024737,0,0,0.6890756,-188.17074,-522.43699)"
       x1="538.77338"
       y1="677.87701"
       x2="538.77338"
       y2="789.12207" />
    <radialGradient
       inkscape:collect="always"
       xlink:href="#XMLID_15_"
       id="radialGradient3425"
       gradientUnits="userSpaceOnUse"
       gradientTransform="matrix(0.6015648,0,0,0.7971009,-187.68106,-594.06594)"
       cx="538.77338"
       cy="651.10352"
       fx="538.77338"
       fy="651.10352"
       r="126.0234" />
    <linearGradient
       inkscape:collect="always"
       xlink:href="#XMLID_16_"
       id="linearGradient3427"
       gradientUnits="userSpaceOnUse"
       gradientTransform="matrix(0.6024737,0,0,0.6890756,-188.17076,-522.14757)"
       x1="538.77338"
       y1="675.48541"
       x2="538.77338"
       y2="677.06049" />
    <clipPath
       clipPathUnits="userSpaceOnUse"
       id="clipPath3431">
      <path
         inkscape:connector-curvature="0"
         sodipodi:nodetypes="cccssccc"
         id="path3433"
         d="m 191.64324,71.236282 0,63.531678 27.09998,-0.0447 c 0.91537,0 2.13877,-0.31135 3.8248,-1.98492 4.8466,-4.8108 17.52617,-17.3783 21.49225,-21.4166 1.33351,-1.3578 1.63972,-2.46525 1.63972,-3.70741 l -0.002,-36.422756 z"
         style="fill:#ffffff;fill-opacity:1" />
    </clipPath>
  </defs>
  <sodipodi:namedview
     id="base"
     pagecolor="#ffffff"
     bordercolor="#666666"
     borderopacity="1.0"
     inkscape:pageopacity="0.0"
     inkscape:pageshadow="2"
     inkscape:zoom="2.0000001"
     inkscape:cx="-22.196249"
     inkscape:cy="83.529425"
     inkscape:document-units="px"
     inkscape:current-layer="layer1"
     width="128px"
     height="128px"
     showgrid="true"
     inkscape:grid-points="true"
     showguides="true"
     inkscape:guide-bbox="true"
     inkscape:window-width="1224"
     inkscape:window-height="757"
     inkscape:window-x="65"
     inkscape:window-y="298"
     inkscape:snap-global="false"
     inkscape:window-maximized="0"
     inkscape:snap-page="true">
    <inkscape:grid
       id="GridFromPre046Settings"
       type="xygrid"
       originx="0px"
       originy="0px"
       spacingx="8px"
       spacingy="8px"
       color="#0000ff"
       empcolor="#0000ff"
       opacity="0.2"
       empopacity="0.4"
       empspacing="2"
       visible="true"
       enabled="true"
       snapvisiblegridlinesonly="true" />
    <sodipodi:guide
       orientation="1,0"
       position="-68,29.325902"
       id="guide4564" />
    <sodipodi:guide
       orientation="1,0"
       position="-121.62237,135.0574"
       id="guide3859" />
    <sodipodi:guide
       orientation="0,1"
       position="38.581514,-74.688154"
       id="guide4360" />
  </sodipodi:namedview>
  <metadata
     id="metadata2611">
    <rdf:RDF>
      <cc:Work
         rdf:about="">
        <dc:format>image/svg+xml</dc:format>
        <dc:type
           rdf:resource="http://purl.org/dc/dcmitype/StillImage" />
        <dc:title></dc:title>
      </cc:Work>
    </rdf:RDF>
  </metadata>
  <g
     inkscape:label="Livello 1"
     inkscape:groupmode="layer"
     id="layer1">
    <path
       style="opacity:0.45606695;fill:#000000;fill-opacity:1;filter:url(#filter4123)"
       d="m 13.333,5.3364 0,118.3304 49.8545,-0.0668 c 2.115554,-0.003 4.528919,-1.77169 7,-4.25 0.71234,-0.71442 1.440746,-1.39395 2.15625,-2.09375 0.415612,-0.40649 0.832187,-0.81443 1.25,-1.21875 7.773958,-7.40962 26.98341,-25.122599 34.21875,-33.099999 0.42065,-0.42064 0.81207,-0.8111 1.15625,-1.1875 1.46444,-1.49766 2.76158,-2.8378 2.99375,-5.8625 L 112,75.156251 111.9972,5.3364 z"
       id="path5990"
       inkscape:connector-curvature="0"
       sodipodi:nodetypes="ccsssccccccc"
       transform="matrix(0.94173025,0,0,0.94148681,3.5162752,3.1457285)" />
    <path
       transform="matrix(0.94173025,0,0,0.94148681,3.5162752,3.1457285)"
       style="fill:#000000;fill-opacity:1;filter:url(#filter3822)"
       d="m 12.96875,3.4375 c -1.48e-4,0.010416 -1.48e-4,0.020834 0,0.03125 -0.921246,0.1949457 -1.534484,0.9333582 -1.53125,1.875 l 0,118.73736 c -1.48e-4,0.0104 -1.48e-4,0.0209 0,0.0313 0.01925,1.0723 0.80288,1.85562 1.875,1.875 0.01042,1.5e-4 0.02083,1.5e-4 0.03125,0 l 52.529063,0 c 1.658286,0 4.069886,0.24689 7.15625,-1.84375 0.09606,-0.0692 0.180839,-0.15394 0.25,-0.25 -0.05642,0.0503 -0.118387,0.22919 0.0625,-0.0625 0.05493,-0.0473 0.106764,-0.0903 0.1875,-0.15625 0.219835,-0.17951 0.516782,-0.38621 0.78125,-0.59375 0.264468,-0.20754 0.493455,-0.39466 0.65625,-0.53125 0.0407,-0.0341 0.0777,-0.0491 0.125,-0.0937 0.02365,-0.0223 0.04509,-0.0687 0.09375,-0.125 0.02433,-0.0281 0.07533,-0.0459 0.125,-0.125 0.01159,-0.0185 0.01274,-0.0566 0.03125,-0.0937 9.792927,-9.35059 27.456717,-28.634354 38.499997,-39.8125 1.71056,-1.710561 3.78125,-3.905917 3.78125,-8.5625 l 0,-68.39361 c 1.5e-4,-0.010416 1.5e-4,-0.020834 0,-0.03125 -0.0194,-1.0720969 -0.80283,-1.8556268 -1.875,-1.875 -0.0104,-1.484e-4 -0.0209,-1.484e-4 -0.0313,0 l -102.27906,0 c -0.03303,-0.00313 -0.06067,0.00142 -0.09375,0 -0.08821,-0.00379 -0.161926,-0.00834 -0.25,0 -0.04162,-0.00237 -0.08338,-0.00237 -0.125,0 z"
       id="path3314"
       inkscape:connector-curvature="0"
       sodipodi:nodetypes="cccccccsccccscsccccsccccccccc" />
    <path
       style="fill:#ffffff;fill-opacity:1"
       d="m 16.072365,8.0771252 0,111.4992648 49.707827,-0.0771 c 1.577682,0 3.686257,-0.53663 6.592193,-3.42109 8.353294,-8.2916 30.207015,-29.952167 37.042715,-36.912327 2.29836,-2.340224 2.82611,-4.248961 2.82611,-6.389865 L 112.23821,8 z"
       id="path34"
       sodipodi:nodetypes="cccssccc"
       inkscape:connector-curvature="0" />
    <path
       style="fill:url(#linearGradient4524-4);fill-opacity:1"
       d="m 22.330709,13.864607 c -0.32004,0 -0.470863,0.220889 -0.470863,0.470743 l 0,98.04132 c 0,0.7735 0.639738,1.41283 1.412596,1.41224 l 38.774516,-0.0295 c 0.04998,-4e-5 0.763164,0.022 1.412595,0.0295 1.67408,-0.0377 2.949474,-0.70964 4.10221,-1.50006 0.990574,-0.274 27.991428,-26.655867 36.581047,-35.307802 1.28302,-1.292303 2.05813,-3.71715 2.05813,-4.609153 l 0,-58.036545 c 0,-0.303834 -0.15371,-0.470743 -0.47087,-0.470743 z"
       id="path3967"
       inkscape:connector-curvature="0"
       sodipodi:nodetypes="ccsssccscccc" />
    <path
       sodipodi:nodetypes="ccssscccccc"
       inkscape:connector-curvature="0"
       id="path5980"
       d="m 26.330709,17.864607 c -0.32004,0 -0.470863,0.220889 -0.470863,0.470743 l -4,94.04132 c -0.03287,0.77281 0.639752,1.40754 1.412596,1.41224 l 43.527137,0.26444 c 0.04998,3e-4 3.083114,-0.007 3.732546,4e-5 6.159831,-4.24013 28.87563,-26.117493 37.299625,-34.592579 0.61903,-0.694148 0.43093,-0.348416 1.36919,-1.513403 l 0,-63.612058 c 0,-0.303834 -0.15371,-0.470743 -0.47087,-0.470743 z"
       style="opacity:0.84653476;fill:url(#radialGradient5988-0);fill-opacity:1" />
    <path
       style="fill:#000000"
       d=""
       id="path2197" />
    <g
       transform="matrix(1.7235381,0,0,1.7235381,-313.23207,-112.70132)"
       id="g4278"
       clip-path="url(#clipPath3431)">
      <path
         style="opacity:0.67782425;fill:#0c1508;fill-opacity:0.17030568;filter:url(#filter4274)"
         d="m 207.21875,102.25 c -1.28809,0 -2.3125,0.46961 -2.3125,1.0625 l 0,0.15625 0,14.96875 -14.3125,0 c -0.93926,0 -1.78934,0.25858 -2.15625,0.65625 0,0.001 -0.1875,0.4375 -0.1875,0.4375 0,0.0311 0.0251,0.0636 0.0313,0.0937 0.007,0.0335 -0.0138,0.061 0,0.0937 -0.008,0.0173 -0.0313,0.0625 -0.0313,0.0625 0,0.12894 0.0622,0.25714 0.15625,0.375 0.0223,-0.0494 0.0313,-0.0935 0.0313,-0.0937 0.0188,-0.0205 0.0412,-0.0428 0.0625,-0.0625 0.10479,0.0964 0.23955,0.20178 0.40625,0.28125 l 30.65625,14.625 c 0.4374,0.20909 1.05611,0.34375 1.6875,0.34375 0.63199,0 1.2495,-0.13466 1.6875,-0.34375 l 30.65625,-14.625 c 0.16277,-0.0778 0.30313,-0.18832 0.4062,-0.2812 0.0198,0.0185 0.0448,0.0434 0.0625,0.0625 0.0211,0.0233 0.0445,0.0701 0.0625,0.0937 0.10372,-0.13666 0.114,-0.29269 0.0937,-0.4375 0.008,-0.0201 -0.006,-0.0422 0,-0.0625 0.009,-0.0314 0.0287,-0.062 0.0313,-0.0937 0.002,-0.0205 9.3e-4,-0.042 0,-0.0625 -0.002,-0.0506 -0.0132,-0.10578 -0.0313,-0.15625 -0.0291,-0.0829 -0.0827,-0.17042 -0.15625,-0.25 -0.0867,-0.0937 -0.20921,-0.17348 -0.34375,-0.25 -0.007,-0.004 -0.0238,0.004 -0.0313,0 -0.14554,-0.08 -0.31289,-0.16185 -0.5,-0.21875 -0.18711,-0.0569 -0.377,-0.0948 -0.59375,-0.125 -0.21671,-0.0302 -0.45314,-0.0625 -0.6875,-0.0625 l -14.3125,0 0,-14.96875 0,-0.15625 c -6e-4,-0.59289 -1.02441,-1.0625 -2.3125,-1.0625 l -28.0625,0 z"
         id="path3374"
         inkscape:connector-curvature="0" />
      <g
         id="g9589"
         transform="matrix(1,0,0,0.9756098,84.8235,110.83537)">
        <path
           inkscape:connector-curvature="0"
           id="path49"
           d="m 122.40803,-58 c -1.28808,0 -2.33578,1.198991 -2.33578,2.672235 0,0 0,35.08429 0,37.575296 -1.9966,0 -14.30936,0 -14.30936,0 -0.93925,0 -1.78271,0.638768 -2.14962,1.626902 -6.1e-4,0.0028 -0.18677,1.045336 -0.18677,1.045336 0,0.695277 0.23195,1.354033 0.65369,1.853611 l 30.66289,36.408 C 135.18048,23.70094 135.7944,24 136.42579,24 c 0.63199,0 1.24471,-0.29906 1.68271,-0.81862 l 30.6635,-36.408 c 0.65127,-0.773829 0.83503,-1.910121 0.46753,-2.898947 -0.36872,-0.989507 -1.21218,-1.62621 -2.15024,-1.62621 0,0 -12.31275,0 -14.30935,0 0,-2.491698 0,-37.575299 0,-37.575299 C 152.77933,-56.801009 151.73164,-58 150.44355,-58 l -28.03552,0 z"
           style="fill:url(#linearGradient3413)" />
        <g
           transform="matrix(0.6024737,0,0,0.6890756,103.4265,-58)"
           id="g51">
          <linearGradient
             gradientTransform="translate(-484,-674)"
             y2="678.3681"
             x2="538.77338"
             y1="674"
             x1="538.77338"
             gradientUnits="userSpaceOnUse"
             id="linearGradient9265">
            <stop
               id="stop9267"
               style="stop-color:#094422"
               offset="0" />
            <stop
               id="stop9269"
               style="stop-color:#9ED676"
               offset="1" />
          </linearGradient>
          <path
             inkscape:connector-curvature="0"
             id="path58"
             d="m 31.506,0.486 46.534,0 c 2.14,0 3.878,1.739 3.878,3.877 0,-0.312 0,-0.485 0,-0.485 C 81.917,1.74 80.178,0 78.04,0 L 31.506,0 c -2.138,0 -3.877,1.74 -3.877,3.878 0,0 0,0.173 0,0.485 0,-2.138 1.739,-3.877 3.877,-3.877 z"
             style="fill:url(#linearGradient3415)" />
          <linearGradient
             gradientTransform="translate(-484,-674)"
             y2="736.55688"
             x2="579.72852"
             y1="732.41022"
             x1="579.72852"
             gradientUnits="userSpaceOnUse"
             id="linearGradient9272">
            <stop
               id="stop9274"
               style="stop-color:#094422"
               offset="0" />
            <stop
               id="stop9276"
               style="stop-color:#9ED676"
               offset="1" />
          </linearGradient>
          <path
             inkscape:connector-curvature="0"
             id="path65"
             d="m 81.917,58.894 c 3.313,0 23.751,0 23.751,0 1.559,0 2.957,0.926 3.568,2.361 0.179,0.42 0.27,0.856 0.295,1.296 0.041,-0.597 -0.051,-1.207 -0.295,-1.781 -0.611,-1.435 -2.012,-2.359 -3.568,-2.359 0,0 -20.438,0 -23.751,0 0,0.205 0,0.368 0,0.483 z"
             style="fill:url(#linearGradient3417)" />
          <linearGradient
             gradientTransform="translate(-484,-674)"
             y2="736.62341"
             x2="497.81451"
             y1="732.4082"
             x1="497.81451"
             gradientUnits="userSpaceOnUse"
             id="linearGradient9279">
            <stop
               id="stop9281"
               style="stop-color:#094422"
               offset="0" />
            <stop
               id="stop9283"
               style="stop-color:#9ED676"
               offset="1" />
          </linearGradient>
          <path
             inkscape:connector-curvature="0"
             id="path72"
             d="m 0.309,61.256 c 0.609,-1.435 2.01,-2.362 3.568,-2.362 0,0 20.437,0 23.751,0 0,-0.115 0,-0.278 0,-0.486 -3.314,0 -23.751,0 -23.751,0 -1.559,0 -2.959,0.927 -3.568,2.361 0,0.004 -0.309,1.517 -0.309,1.517 0,0.112 0.022,0.221 0.032,0.33 0.077,-0.377 0.277,-1.358 0.277,-1.36 z"
             style="fill:url(#linearGradient3419)" />
        </g>
        <path
           inkscape:connector-curvature="0"
           id="path74"
           d="m 152.77933,-15.331057 c 1.99601,0 14.30936,0 14.30936,0 0.93925,0 1.78152,0.638086 2.14963,1.626902 0.0211,0.05788 0.0356,0.11853 0.0536,0.177093 0.18858,-0.617406 0.17954,-1.303726 -0.0536,-1.9301 -0.36811,-0.988815 -1.21218,-1.626902 -2.14963,-1.626902 0,0 -12.31335,0 -14.30936,0 0,0.8827 0,1.494606 0,1.753007 z"
           enable-background="new    "
           style="opacity:0.5;fill:#ffffff" />
        <path
           inkscape:connector-curvature="0"
           id="path76"
           d="m 103.61266,-13.703464 c 0.36691,-0.990198 1.21098,-1.627593 2.14963,-1.627593 0,0 12.31275,0 14.30935,0 0,-0.258401 0,-0.870307 0,-1.753007 -1.9966,0 -14.30935,0 -14.30935,0 -0.93925,0 -1.78272,0.638768 -2.14963,1.627594 0,0.0021 -0.18616,1.044644 -0.18616,1.044644 0,0.32041 0.0542,0.628427 0.14821,0.921285 0.0223,-0.122648 0.038,-0.212231 0.038,-0.212923 z"
           enable-background="new    "
           style="opacity:0.5;fill:#ffffff" />
        <path
           inkscape:connector-curvature="0"
           id="path78"
           d="m 167.08869,-17.084064 c 0,0 -11.96151,0 -14.89375,0 -0.32293,0 -0.585,-0.299059 -0.585,-0.668405 l 0,0.668405 c 0,0.19638 0,0.88753 0,1.084602 1.07421,0 15.47694,0 15.47694,0 0.51452,0 0.99529,-0.491312 1.42486,-0.214987 -0.32052,-0.530588 -0.84166,-0.869615 -1.42305,-0.869615 z"
           style="fill:#ffffff" />
        <path
           inkscape:connector-curvature="0"
           id="path80"
           d="m 120.65604,-17.084064 c -2.93223,0 -14.89375,0 -14.89375,0 -0.58139,0 -1.10192,0.338336 -1.42485,0.870296 0.42896,-0.275624 0.91034,0.214997 1.42485,0.214997 0,0 14.40334,0 15.47755,0 0,-0.197082 0,-0.888221 0,-1.084601 l 0,-0.668405 c 6e-4,0.368654 -0.26087,0.667713 -0.5838,0.667713 z"
           style="fill:#ffffff" />
        <path
           inkscape:connector-curvature="0"
           id="path119"
           d="m 122.40803,-56.663883 c -0.64464,0 -1.16759,0.598118 -1.16759,1.336118 0,0 0,36.414207 0,38.912106 -2.02009,0 -15.47755,0 -15.47755,0 -0.46812,0 -0.89166,0.320421 -1.07481,0.813106 -0.0627,0.168136 -0.0934,0.34592 -0.0934,0.523694 0,0.337655 0.11326,0.674608 0.32654,0.927497 l 30.6629,36.408002 c 0.2205,0.26254 0.52415,0.41069 0.84105,0.41069 0.3169,0 0.62115,-0.14815 0.84105,-0.41069 l 30.66351,-36.408002 c 0.32473,-0.38726 0.4151,-0.957815 0.23376,-1.449819 -0.18436,-0.492684 -0.60669,-0.813105 -1.07482,-0.813105 0,0 -13.45806,0 -15.47695,0 0,-2.4979 0,-38.91279 0,-38.91279 0,-0.738 -0.52355,-1.336117 -1.16759,-1.336117 l -28.03612,-6.9e-4 0,0 z"
           style="fill:url(#radialGradient3421)" />
        <path
           inkscape:connector-curvature="0"
           sodipodi:nodetypes="cccccccc"
           id="polygon134"
           d="m 150.59252,-14.872146 -0.0898,-40.844546 -28.06253,0 0,40.749133 -16.29853,0.10663 30.28411,36.188689 30.28351,-36.30854 z"
           style="fill:url(#linearGradient3423)" />
        <path
           inkscape:connector-curvature="0"
           id="path143"
           d="m 124.77873,-53.319684 c 0,5.920263 0,38.352125 0,38.352125 0,1.944861 -0.87133,2.397008 -2.33854,2.397008 0,0 -6.09532,0 -10.40653,0 5.68196,7.8164674 21.62713,28.855401 24.39276,32.660141 2.76562,-3.80474 18.45061,-24.8436736 24.13204,-32.660141 -4.31177,0 -10.05574,0 -10.05574,0 -1.46776,0 -2.33855,-0.452147 -2.33855,-2.397008 0,0 0,-32.431862 0,-38.352125 -3.76916,0 -19.61737,0 -23.38544,0 z"
           style="fill:url(#radialGradient3425)"
           sodipodi:nodetypes="cccccccccc" />
        <path
           inkscape:connector-curvature="0"
           id="path150"
           d="m 122.40803,-56.541895 c -0.60247,0 -1.10854,0.371413 -1.42424,0.902689 0.42776,-0.281143 0.89648,0.182605 1.42424,0.182605 l 28.03552,0 c 0.52776,0 0.99589,-0.463748 1.42425,-0.182605 -0.3157,-0.531276 -0.82179,-0.905798 -1.42425,-0.902689 l -28.03552,0 z"
           style="fill:url(#linearGradient3427)"
           sodipodi:nodetypes="ccsscscc" />
        <path
           inkscape:connector-curvature="0"
           id="path152"
           d="m 137.26745,21.62407 c -0.21991,0.23911 -0.52476,0.3721 -0.84166,0.3721 -0.3169,0 -0.62115,-0.13299 -0.84165,-0.3721 l -5.75302,-6.199616 5.75302,6.830806 c 0.2205,0.26185 0.52415,0.41 0.84105,0.41 0.3169,0 0.62115,-0.14815 0.84105,-0.41 l 5.75182,-6.829423 -5.75061,6.198233 z"
           style="fill:#ffffff" />
      </g>
    </g>
    <path
       clip-path="url(#clipPath6093-7)"
       style="opacity:0.34728035;fill:#000000;fill-opacity:1;stroke:none;filter:url(#filter6171-8)"
       d="m 116.12376,78.971565 c 0,4.465301 -6.19771,3.506816 -8.67994,5.190489 -5.10854,3.46508 -20.174687,2.225237 -25.955857,2.306257 -0.081,5.781159 -0.937221,19.675219 -0.937221,25.825239 0,2.97817 -3.440475,11.20945 -6.350745,11.20945 -2.091359,1.5337 3.488204,8.21101 6.734971,5.31989 9.501888,-8.46107 35.131682,-30.022704 43.350822,-39.262889 2.04044,-2.29392 -3.18138,-13.376087 -8.16203,-10.588436 z"
       id="path6153"
       inkscape:connector-curvature="0"
       sodipodi:nodetypes="cscscssc"
       transform="matrix(1.1813248,0,0,1.2086603,-24.263752,-24.510815)" />
    <path
       sodipodi:nodetypes="cscscssc"
       inkscape:connector-curvature="0"
       id="path6081"
       d="m 113.9,82.502986 c 0,4.465301 -10.43981,5.304142 -13.42995,5.727919 -6.394979,0.906328 -14.119031,-0.156997 -19.900201,-0.07598 -0.505268,6.06824 0.8669,24.053992 1.224403,26.575982 0.418175,2.94999 -3.883991,8.07209 -6.794261,8.07209 -2.091359,1.5337 3.488204,11.21101 6.734971,8.31989 C 91.23685,122.66182 127.7339,100.92151 135.95304,91.681321 137.99348,89.387401 118.88065,79.715335 113.9,82.502986 z"
       style="fill:#000000;fill-opacity:1;stroke:none;filter:url(#filter3827)"
       clip-path="url(#clipPath6093-7)"
       transform="matrix(1.2864191,0,0,1.3161866,-33.246593,-37.128335)" />
    <path
       style="fill:url(#linearGradient3895-3);fill-opacity:1;stroke:none"
       d="m 111.63282,69.537665 c 0,6.018752 -3.68896,8.639938 -6.96218,10.909345 -6.736467,4.670565 -20.601656,3.681674 -28.225086,3.790881 -0.106814,7.792391 0.681931,20.811609 -3.887352,27.697379 -2.220198,3.3458 -6.53768,8.14845 -10.375353,8.14845 3.056706,0 6.25422,-1.79911 10.000786,-5.50589 12.055202,-11.92716 22.901451,-21.748749 33.854305,-34.098401 2.53047,-2.853145 5.59488,-4.908872 5.59488,-10.941764 z"
       id="path6011"
       inkscape:connector-curvature="0"
       sodipodi:nodetypes="cscscssc" />
    <path
       style="fill:#ffffff;fill-opacity:1;stroke:none"
       d="m 110.71058,68.281346 c -0.41723,5.255588 -4.27313,7.093026 -6.37262,8.548644 C 99.360203,80.281173 92.747881,80 72,80 c 0,19.101497 0.485919,27.6002 -3.129233,32.26786 -2.152106,2.77868 -6.461106,5.87696 -9.97277,6.67209 4.811835,0 8.170308,-1.05121 11.313766,-4.16129 C 70.658946,114.25496 79.29853,105.10667 80,104 c 0,-8 0,-4.430898 0,-16 7.62343,-0.109179 8,0 16,0 0.746829,0 10.14294,-9.613144 10.69263,-10.162835 3.05326,-3.053253 3.71528,-4.99949 4.01795,-9.555819 z M 58.897997,118.93995 c -0.207898,0.0469 -0.413317,0.0558 -0.618125,0.0842 0.20702,-0.0228 0.409371,-0.0452 0.618125,-0.0842 z"
       id="path6122"
       inkscape:connector-curvature="0"
       sodipodi:nodetypes="cscsccccsscccc" />
    <path
       style="fill:none;stroke:url(#radialGradient3919-5);stroke-width:1.85605633;stroke-linecap:butt;stroke-linejoin:miter;stroke-miterlimit:4;stroke-opacity:1;stroke-dasharray:none;filter:url(#filter3909-6)"
       d="M 108.97651,89.508691 79.934895,118.21077"
       id="path3873"
       inkscape:connector-curvature="0"
       sodipodi:nodetypes="cc"
       clip-path="url(#clipPath3889-6)"
       transform="matrix(1.3186655,0,0,1.3478946,-36.057732,-41.667663)" />
    <path
       inkscape:connector-curvature="0"
       style="fill:#000000"
       d=""
       id="path2197-2" />
  </g>
</svg>
