<?xml version="1.0" encoding="UTF-8" standalone="no"?>
<!-- Generator: Adobe Illustrator 12.0.0, SVG Export Plug-In . SVG Version: 6.00 Build 51448)  -->
<svg
   xmlns:ns="http://ns.adobe.com/SaveForWeb/1.0/"
   xmlns:dc="http://purl.org/dc/elements/1.1/"
   xmlns:cc="http://creativecommons.org/ns#"
   xmlns:rdf="http://www.w3.org/1999/02/22-rdf-syntax-ns#"
   xmlns:svg="http://www.w3.org/2000/svg"
   xmlns="http://www.w3.org/2000/svg"
   xmlns:xlink="http://www.w3.org/1999/xlink"
   xmlns:sodipodi="http://sodipodi.sourceforge.net/DTD/sodipodi-0.dtd"
   xmlns:inkscape="http://www.inkscape.org/namespaces/inkscape"
   version="1.1"
   id="Layer_1"
   width="128"
   height="128"
   viewBox="0 0 128 128"
   overflow="visible"
   enable-background="new 0 0 128 128"
   xml:space="preserve"
   sodipodi:version="0.32"
   inkscape:version="0.46"
   sodipodi:docname="archive-remove.svgz"
   sodipodi:docbase="/Users/david/Desktop/sandbox"
   inkscape:output_extension="org.inkscape.output.svgz.inkscape"
   inkscape:export-filename="/home/pinheiro/pics/oxygen/scalable/actions/small/16x16/archive-remove.png"
   inkscape:export-xdpi="90"
   inkscape:export-ydpi="90"><defs
   id="defs105"><linearGradient
     inkscape:collect="always"
     id="linearGradient4745"><stop
       style="stop-color:#000000;stop-opacity:1;"
       offset="0"
       id="stop4747" /><stop
       style="stop-color:#000000;stop-opacity:0;"
       offset="1"
       id="stop4749" /></linearGradient><linearGradient
     y2="95.293"
     x2="87.293"
     y1="103"
     x1="95"
     gradientUnits="userSpaceOnUse"
     id="linearGradient4175">
	<stop
   id="stop4177"
   style="stop-color:#000000;stop-opacity:1"
   offset="0" />
	<stop
   id="stop4179"
   style="stop-color:#393B38"
   offset="1" />
</linearGradient><linearGradient
     inkscape:collect="always"
     xlink:href="#linearGradient4175"
     id="linearGradient2295"
     gradientUnits="userSpaceOnUse"
     x1="85.219681"
     y1="93.219681"
     x2="61.336319"
     y2="69.336319" /><linearGradient
     inkscape:collect="always"
     xlink:href="#XMLID_12_"
     id="linearGradient2297"
     gradientUnits="userSpaceOnUse"
     x1="96"
     y1="104"
     x2="88.0002"
     y2="96.0002" /><radialGradient
     inkscape:collect="always"
     xlink:href="#XMLID_8_"
     id="radialGradient2272"
     gradientUnits="userSpaceOnUse"
     gradientTransform="matrix(0.9787234,0,0,0.9818182,1.3617045,1.1636364)"
     cx="102"
     cy="112.3047"
     r="139.55859" /><radialGradient
     inkscape:collect="always"
     xlink:href="#XMLID_7_"
     id="radialGradient2275"
     gradientUnits="userSpaceOnUse"
     gradientTransform="translate(2.4e-6,0)"
     cx="102"
     cy="112.3047"
     r="139.5585" /><filter
     inkscape:collect="always"
     id="filter3241"><feGaussianBlur
       inkscape:collect="always"
       stdDeviation="1.0394514"
       id="feGaussianBlur3243" /></filter><filter
     inkscape:collect="always"
     id="filter3772"><feGaussianBlur
       inkscape:collect="always"
       stdDeviation="0.50063244"
       id="feGaussianBlur3774" /></filter><filter
     inkscape:collect="always"
     id="filter4171"><feGaussianBlur
       inkscape:collect="always"
       stdDeviation="0.4901192"
       id="feGaussianBlur4173" /></filter><filter
     inkscape:collect="always"
     id="filter4209"><feGaussianBlur
       inkscape:collect="always"
       stdDeviation="0.90565481"
       id="feGaussianBlur4211" /></filter><filter
     inkscape:collect="always"
     id="filter4293"
     x="-0.12357724"
     width="1.2471545"
     y="-0.12357724"
     height="1.2471545"><feGaussianBlur
       inkscape:collect="always"
       stdDeviation="1.7720846"
       id="feGaussianBlur4295" /></filter><linearGradient
     x1="1229.8545"
     y1="-280.94821"
     x2="1231.6117"
     y2="-393.9523"
     id="path4399_1_"
     gradientUnits="userSpaceOnUse"
     gradientTransform="matrix(0.9579,0,0,-0.9579,-1135.012,-285.1991)"><stop
       style="stop-color:#740000;stop-opacity:1"
       offset="0"
       id="stop6608" /><stop
       style="stop-color:#de0000;stop-opacity:1"
       offset="1"
       id="stop6610" /></linearGradient><linearGradient
     inkscape:collect="always"
     id="linearGradient2902"><stop
       style="stop-color:white;stop-opacity:1;"
       offset="0"
       id="stop2904" /><stop
       style="stop-color:white;stop-opacity:0;"
       offset="1"
       id="stop2906" /></linearGradient><linearGradient
     inkscape:collect="always"
     xlink:href="#path4399_1_"
     id="linearGradient3962"
     gradientUnits="userSpaceOnUse"
     gradientTransform="matrix(0.7792907,0,0,-0.7805759,-863.06921,-172.4085)"
     x1="1240.3669"
     y1="-386.25824"
     x2="1240.3669"
     y2="-302.74118" /><linearGradient
     inkscape:collect="always"
     xlink:href="#path4399_1_"
     id="linearGradient3964"
     gradientUnits="userSpaceOnUse"
     gradientTransform="matrix(0.7792907,0,0,-0.7805759,-863.06921,-172.4085)"
     x1="1229.8545"
     y1="-280.94821"
     x2="1231.6117"
     y2="-393.9523" /><linearGradient
     inkscape:collect="always"
     xlink:href="#linearGradient2902"
     id="linearGradient3970"
     gradientUnits="userSpaceOnUse"
     gradientTransform="matrix(0.6935342,0,0,-0.694678,-757.51705,-142.88889)"
     x1="1230.6776"
     y1="-292.06177"
     x2="1236.4452"
     y2="-361.15854" /><linearGradient
     inkscape:collect="always"
     xlink:href="#linearGradient4745"
     id="linearGradient4751"
     x1="-224"
     y1="0"
     x2="-96"
     y2="0"
     gradientUnits="userSpaceOnUse" /></defs><sodipodi:namedview
   inkscape:window-height="687"
   inkscape:window-width="1022"
   inkscape:pageshadow="2"
   inkscape:pageopacity="0.0"
   guidetolerance="10.0"
   gridtolerance="10.0"
   objecttolerance="10.0"
   borderopacity="1.0"
   bordercolor="#666666"
   pagecolor="#ffffff"
   id="base"
   inkscape:zoom="1.2761068"
   inkscape:cx="64.746023"
   inkscape:cy="81.053249"
   inkscape:window-x="404"
   inkscape:window-y="248"
   inkscape:current-layer="Layer_1"
   showgrid="true"
   showguides="true"
   inkscape:guide-bbox="true"><inkscape:grid
     id="GridFromPre046Settings"
     type="xygrid"
     originx="0px"
     originy="0px"
     spacingx="4px"
     spacingy="4px"
     color="#0000ff"
     empcolor="#0000ff"
     opacity="0.2"
     empopacity="0.4"
     empspacing="2"
     enabled="true"
     visible="true" /></sodipodi:namedview>
<metadata
   id="metadata3">
	<ns:sfw>
		<ns:slices>
			<ns:slice
   y="0"
   x="0"
   height="128"
   width="128"
   sliceID="1316743234" />
		</ns:slices>
		<ns:sliceSourceBounds
   y="0"
   x="0"
   height="128"
   width="128"
   bottomLeftOrigin="true" />
		<ns:optimizationSettings>
			<ns:targetSettings
   targetSettingsID="0"
   fileFormat="PNG24Format">
				<ns:PNG24Format
   transparency="true"
   filtered="false"
   matteColor="#FFFFFF"
   noMatteColor="false"
   interlaced="false">
					</ns:PNG24Format>
			</ns:targetSettings>
			<ns:targetSettings
   targetSettingsID="1696735251"
   fileFormat="PNG24Format">
				<ns:PNG24Format
   transparency="true"
   filtered="false"
   matteColor="#FFFFFF"
   noMatteColor="false"
   interlaced="false">
					</ns:PNG24Format>
			</ns:targetSettings>
		</ns:optimizationSettings>
	</ns:sfw>
<rdf:RDF><cc:Work
     rdf:about=""><dc:format>image/svg+xml</dc:format><dc:type
       rdf:resource="http://purl.org/dc/dcmitype/StillImage" /></cc:Work></rdf:RDF></metadata>

<radialGradient
   id="XMLID_7_"
   cx="102"
   cy="112.3047"
   r="139.5585"
   gradientUnits="userSpaceOnUse">
	<stop
   offset="0"
   style="stop-color:#00537D"
   id="stop16" />
	<stop
   offset="0.0151"
   style="stop-color:#186389"
   id="stop18" />
	<stop
   offset="0.0558"
   style="stop-color:#558CA8"
   id="stop20" />
	<stop
   offset="0.0964"
   style="stop-color:#89AFC3"
   id="stop22" />
	<stop
   offset="0.1357"
   style="stop-color:#B3CCD8"
   id="stop24" />
	<stop
   offset="0.1737"
   style="stop-color:#D4E2E9"
   id="stop26" />
	<stop
   offset="0.2099"
   style="stop-color:#ECF2F5"
   id="stop28" />
	<stop
   offset="0.2435"
   style="stop-color:#FAFCFD"
   id="stop30" />
	<stop
   offset="0.2722"
   style="stop-color:#FFFFFF"
   id="stop32" />
</radialGradient>

<radialGradient
   id="XMLID_8_"
   cx="102"
   cy="112.3047"
   r="139.55859"
   gradientUnits="userSpaceOnUse">
	<stop
   offset="0"
   style="stop-color:#535557"
   id="stop37" />
	
	<stop
   offset="0.11366145"
   style="stop-color:#898A8C"
   id="stop41" />
	
	
	<stop
   offset="0.20296688"
   style="stop-color:#ECECEC"
   id="stop47" />
	<stop
   offset="0.2363"
   style="stop-color:#FAFAFA"
   id="stop49" />
	<stop
   offset="0.2722"
   style="stop-color:#FFFFFF"
   id="stop51" />
	<stop
   offset="0.5313"
   style="stop-color:#FAFAFA"
   id="stop53" />
	<stop
   offset="0.8449"
   style="stop-color:#EBECEC"
   id="stop55" />
	<stop
   offset="1"
   style="stop-color:#E1E2E3"
   id="stop57" />
</radialGradient>

<linearGradient
   id="XMLID_9_"
   gradientUnits="userSpaceOnUse"
   x1="94.3438"
   y1="102.3447"
   x2="86.5356"
   y2="94.5366">
	<stop
   offset="0"
   style="stop-color:#FFFFFF"
   id="stop62" />
	<stop
   offset="1"
   style="stop-color:#555753"
   id="stop64" />
</linearGradient>

<linearGradient
   id="XMLID_10_"
   gradientUnits="userSpaceOnUse"
   x1="95"
   y1="103"
   x2="86.5865"
   y2="94.5865">
	<stop
   offset="0"
   style="stop-color:#FFFFFF"
   id="stop69" />
	<stop
   offset="1"
   style="stop-color:#555753"
   id="stop71" />
</linearGradient>

<linearGradient
   id="XMLID_11_"
   gradientUnits="userSpaceOnUse"
   x1="95"
   y1="103"
   x2="87.293"
   y2="95.293">
	<stop
   offset="0"
   style="stop-color:#FFFFFF"
   id="stop76" />
	<stop
   offset="1"
   style="stop-color:#393B38"
   id="stop78" />
</linearGradient>

<linearGradient
   id="XMLID_12_"
   gradientUnits="userSpaceOnUse"
   x1="96"
   y1="104"
   x2="88.0002"
   y2="96.0002">
	<stop
   offset="0"
   style="stop-color:#888A85"
   id="stop83" />
	<stop
   offset="0.0072"
   style="stop-color:#8C8E89"
   id="stop85" />
	<stop
   offset="0.0673"
   style="stop-color:#ABACA9"
   id="stop87" />
	<stop
   offset="0.1347"
   style="stop-color:#C5C6C4"
   id="stop89" />
	<stop
   offset="0.2115"
   style="stop-color:#DBDBDA"
   id="stop91" />
	<stop
   offset="0.3012"
   style="stop-color:#EBEBEB"
   id="stop93" />
	<stop
   offset="0.4122"
   style="stop-color:#F7F7F6"
   id="stop95" />
	<stop
   offset="0.5679"
   style="stop-color:#FDFDFD"
   id="stop97" />
	<stop
   offset="1"
   style="stop-color:#FFFFFF"
   id="stop99" />
</linearGradient>
<path
   sodipodi:nodetypes="cccccccc"
   transform="matrix(1.0416667,0,0,1.0357143,-9.9583333,-3.3215342)"
   style="opacity:0.71506849;fill:#000000;fill-opacity:1;filter:url(#filter3241)"
   d="M 23,9 L 23.040816,121 L 84.172,121 C 84.702,121 85.211,120.789 85.586,120.414 L 118.414,87.586 C 118.789,87.211 119,86.702 119,86.172 L 119,9 L 23,9 z"
   id="path4081" /><path
   sodipodi:nodetypes="cccccccc"
   transform="matrix(1.0416667,0,0,1.0357143,-9.9583333,-3.3215342)"
   style="opacity:0.89589041000000003;fill:#000000;fill-opacity:1;filter:url(#filter3772)"
   d="M 24.919999,10.931136 L 24.919999,119.06907 L 83.596,119.06897 C 84.126,119.06897 84.635,118.85797 85.01,118.48297 L 116.494,86.717034 C 116.869,86.342034 117.08,85.833034 117.08,85.303034 L 117.08,10.931136 L 24.919999,10.931136 z"
   id="path3726" /><path
   id="path6594"
   d="M 23,9.9655172 L 23.040816,121 L 84.172,121 C 84.702,121 85.211,120.789 85.586,120.414 C 98.882921,112.20339 109.72686,101.14616 118.414,87.586 C 118.789,87.211 119,86.702 119,86.172 L 119,9.9655172 L 23,9.9655172 z"
   style="opacity:0.83561644;fill:#000000;fill-opacity:1;filter:url(#filter3241)"
   transform="matrix(1.0416667,0,0,1.0357143,-9.9583333,-3.3215342)"
   sodipodi:nodetypes="cccccccc" /><path
   style="fill:url(#radialGradient2275)"
   d="M 16.000002,8 L 16.000002,120 L 77.172002,120 C 77.702002,120 78.211002,119.789 78.586002,119.414 L 111.414,86.586 C 111.789,86.211 112,85.702 112,85.172 L 112,8 L 16.000002,8 z "
   id="path34"
   sodipodi:nodetypes="cccccccc" /><path
   style="fill:url(#radialGradient2272);fill-opacity:1"
   d="M 24.678725,16 C 24.139449,16 23.700002,16.440836 23.700002,16.981818 L 24.000002,111.01818 C 24.000002,111.56015 24.439449,112 24.978725,112 L 76.891747,112 C 77.149151,112 77.401662,111.89593 77.583704,111.71233 L 103.71323,85.4812 C 103.89626,85.2976 104,85.045273 104,84.787055 L 104,16.981818 C 104,16.440836 103.56153,16 103.02128,16 L 24.678725,16 z"
   id="path59"
   sodipodi:nodetypes="ccccccccccc" /><g
   id="g1973"
   transform="translate(2.4e-6,0)"><path
     style="opacity:0.90684931999999996;fill:#000000;filter:url(#filter4293);fill-opacity:1"
     id="path66"
     d="M 111.414,86.586 C 111.664,86.336 85.035,85 80,85 C 78.346,85 77,86.346 77,88 C 77,93.035 78.336,119.664 78.586,119.414 L 111.414,86.586 z"
     sodipodi:nodetypes="csscc" /><path
     style="opacity:0.2;fill:#000000;filter:url(#filter4209);fill-opacity:1"
     id="path73"
     d="M 111.414,86.586 C 111.789,86.211 89.444,86 80,86 C 78.897,86 78,86.897 78,88 C 78,97.444 78.211,119.789 78.586,119.414 L 111.414,86.586 z"
     sodipodi:nodetypes="csscc" /><path
     style="opacity:0.10000000000000001;fill:url(#linearGradient2295);filter:url(#filter4171)"
     id="path80"
     d="M 111.414,86.586 C 111.653,86.347 89.807,87 80,87 C 79.447,87 79,87.447 79,88 C 79,97.807 78.347,119.653 78.586,119.414 L 111.414,86.586 z"
     sodipodi:nodetypes="csscc" /><path
     style="fill:url(#linearGradient2297)"
     id="path101"
     d="M 78.586,119.414 C 78.586,119.414 90.5,109.5 96,104 C 101.5,98.5 111.414,86.586 111.414,86.586 C 111.414,86.586 90.25,88 80,88 C 80,98.25 78.586,119.414 78.586,119.414 z"
     sodipodi:nodetypes="csccc" /></g>

<path
   style="fill:none;fill-rule:evenodd;stroke:#000000;stroke-width:1px;stroke-linecap:butt;stroke-linejoin:miter;stroke-opacity:1"
   d="M 100,32 L 100,32 z"
   id="path3341" /><path
   sodipodi:nodetypes="ccc"
   id="path2276"
   d="M 101.3252,-98.978845 L 101.3252,-101.78499 L 101.3252,-98.978845 z"
   style="fill:#ffffff;fill-opacity:0.75688076;fill-rule:nonzero;stroke:none;stroke-width:0.5;stroke-linecap:round;stroke-linejoin:round;stroke-miterlimit:4;stroke-dasharray:none;stroke-dashoffset:4;stroke-opacity:1" /><rect
   style="opacity:0.57786889;fill:#ffffff;fill-opacity:1;fill-rule:nonzero;stroke:none;stroke-width:3.63199997;stroke-linecap:round;stroke-linejoin:round;stroke-miterlimit:4;stroke-dasharray:none;stroke-dashoffset:4;stroke-opacity:1"
   id="rect1327"
   width="0.94522029"
   height="0"
   x="312.38452"
   y="-101.03275" /><path
   sodipodi:nodetypes="ccc"
   id="path3588"
   d="M 162.15371,-174.54821 L 162.15371,-177.35435 L 162.15371,-174.54821 z"
   style="fill:#ffffff;fill-opacity:0.75688076;fill-rule:nonzero;stroke:none;stroke-width:0.5;stroke-linecap:round;stroke-linejoin:round;stroke-miterlimit:4;stroke-dasharray:none;stroke-dashoffset:4;stroke-opacity:1" /><g
   style="opacity:0.40163933"
   transform="matrix(-0.7401027,0,0,0.6535407,-2033.4593,514.77692)"
   id="g4640" /><g
   id="g4646"
   transform="matrix(-0.7401027,0,0,0.6535407,-2033.4593,514.77692)"
   style="opacity:0.40163933" /><g
   id="g4730"
   transform="matrix(0.9452202,0,0,0.6535407,992.15579,522.13468)"
   style="opacity:0.40163933" /><g
   style="opacity:0.40163933"
   transform="matrix(0.9452202,0,0,0.6535407,992.15579,522.13468)"
   id="g4748" /><path
   sodipodi:nodetypes="ccc"
   id="path4211"
   d="M 460.28384,-210.61196 L 460.28384,-213.41809 L 460.28384,-210.61196 z"
   style="fill:#ffffff;fill-opacity:0.75688076;fill-rule:nonzero;stroke:none;stroke-width:0.5;stroke-linecap:round;stroke-linejoin:round;stroke-miterlimit:4;stroke-dasharray:none;stroke-dashoffset:4;stroke-opacity:1" /><g
   id="g3958"
   transform="matrix(0.8899557,0,0,0.8899557,10.576315,10.547034)"><path
     d="M 74.34375,60.0625 C 73.302315,59.916695 71.863441,60.228586 70.84375,61.25 L 61.5625,70.5625 C 60.549075,71.577589 60.229971,73.018282 60.375,74.0625 C 60.520029,75.106718 60.999397,75.911843 61.625,76.53125 L 80.9375,95.84375 L 61.625,115.1875 C 60.902495,115.90703 60.497586,116.71732 60.375,117.6875 C 60.252414,118.65768 60.399339,120.03149 61.5625,121.1875 L 70.84375,130.4375 C 71.859797,131.45526 73.298326,131.77002 74.34375,131.625 C 75.389174,131.47998 76.191602,131.00406 76.8125,130.375 L 96.09375,111.03125 L 115.40625,130.375 C 116.12752,131.1017 116.93498,131.50242 117.90625,131.625 C 118.87752,131.74758 120.24905,131.6059 121.40625,130.4375 L 130.65625,121.15625 C 131.82292,119.99664 131.96701,118.65412 131.84375,117.6875 C 131.72049,116.72088 131.31089,115.90581 130.59375,115.1875 L 111.28125,95.84375 L 130.59375,76.5 C 131.20903,75.883725 131.69809,75.101819 131.84375,74.0625 C 131.98941,73.023181 131.68362,71.552397 130.65625,70.53125 L 121.375,61.25 C 121.37504,61.239583 121.37504,61.229167 121.375,61.21875 C 120.21405,60.073914 118.86679,59.941139 117.90625,60.0625 C 116.94571,60.183861 116.12773,60.562687 115.40625,61.28125 C 115.40621,61.291667 115.40621,61.302083 115.40625,61.3125 L 96.09375,80.65625 L 76.78125,61.3125 C 76.16179,60.688494 75.385185,60.208305 74.34375,60.0625 z"
     id="path3954"
     style="fill:url(#linearGradient3962)"
     inkscape:original="M 73.59375 64 L 64.3125 73.3125 C 64.208366 73.416805 64.23344 73.609842 64.375 73.75 L 86.4375 95.84375 L 64.375 117.9375 C 64.233437 118.07848 64.20837 118.30276 64.3125 118.40625 L 73.59375 127.6875 C 73.697884 127.79181 73.8913 127.76679 74.03125 127.625 L 96.09375 105.53125 L 118.15625 127.625 C 118.29698 127.76679 118.52169 127.79181 118.625 127.6875 L 127.90625 118.40625 C 128.01037 118.30276 127.9845 118.07848 127.84375 117.9375 L 105.78125 95.84375 L 127.84375 73.75 C 127.9845 73.609023 128.01037 73.415989 127.90625 73.3125 L 118.625 64 C 118.52088 63.897325 118.29698 63.922339 118.15625 64.0625 L 96.09375 86.15625 L 74.03125 64.0625 C 73.891303 63.921526 73.69788 63.895694 73.59375 64 z "
     inkscape:radius="3.9034982"
     sodipodi:type="inkscape:offset" /><path
     d="M 118.61083,64 C 118.50671,63.897325 118.31145,63.927477 118.17072,64.067638 L 96.10424,86.170485 L 74.03699,64.067638 C 73.89704,63.926661 73.70018,63.89651 73.59605,64.000816 L 64.30785,73.30432 C 64.20372,73.408626 64.23301,73.605826 64.37457,73.745984 L 86.44102,95.849646 L 64.37457,117.9525 C 64.23301,118.09348 64.20372,118.29067 64.30785,118.39416 L 73.59605,127.69848 C 73.70018,127.80279 73.89704,127.77345 74.03699,127.63166 L 96.10424,105.52882 L 118.17072,127.63166 C 118.31145,127.77345 118.50834,127.80279 118.61165,127.69848 L 127.90066,118.39416 C 128.00478,118.29067 127.97468,118.09348 127.83393,117.9525 L 105.76747,95.849646 L 127.83393,73.745984 C 127.97468,73.60501 128.00478,73.407809 127.90066,73.30432 L 118.61165,64.000816 L 118.61165,64.000816 C 118.61165,64.000816 118.61165,64 118.61083,64 z"
     style="fill:url(#linearGradient3964)"
     id="path4399" /><path
     style="fill:url(#linearGradient3970);fill-opacity:1"
     d="M 76.25 67.4375 C 76.179048 67.426712 76.108836 67.453586 76.0625 67.5 L 67.8125 75.78125 C 67.719832 75.874079 67.749018 76.062766 67.875 76.1875 L 87.5 95.84375 L 83.4375 99.90625 C 84.51655 99.953844 85.588946 100 86.6875 100 C 93.647908 100 100.26183 99.04825 106.15625 97.3125 L 104.71875 95.84375 L 124.34375 76.1875 C 124.46901 76.062036 124.49891 75.873351 124.40625 75.78125 L 116.125 67.5 C 116.03234 67.408626 115.87524 67.437763 115.75 67.5625 L 96.09375 87.25 L 76.46875 67.5625 C 76.406475 67.499769 76.320952 67.448288 76.25 67.4375 z "
     transform="matrix(1.1236514,0,0,1.1236514,-11.884092,-11.85119)"
     id="path3968" /></g></svg>