<?xml version="1.0" encoding="UTF-8" standalone="no"?>
<!-- Created with Inkscape (http://www.inkscape.org/) -->

<svg
   xmlns:dc="http://purl.org/dc/elements/1.1/"
   xmlns:cc="http://creativecommons.org/ns#"
   xmlns:rdf="http://www.w3.org/1999/02/22-rdf-syntax-ns#"
   xmlns:svg="http://www.w3.org/2000/svg"
   xmlns="http://www.w3.org/2000/svg"
   xmlns:xlink="http://www.w3.org/1999/xlink"
   xmlns:sodipodi="http://sodipodi.sourceforge.net/DTD/sodipodi-0.dtd"
   xmlns:inkscape="http://www.inkscape.org/namespaces/inkscape"
   width="128"
   height="128"
   id="svg1307"
   sodipodi:version="0.32"
   inkscape:version="0.48.1 r9760"
   version="1.0"
   sodipodi:docname="audio-headphones.svgz"
   inkscape:output_extension="org.inkscape.output.svg.inkscape"
   inkscape:export-filename="/home/pinheiro/pics/oxygen-icons/scalable/devices/audio-headphones.png"
   inkscape:export-xdpi="180"
   inkscape:export-ydpi="180">
  <defs
     id="defs1309">
    <linearGradient
       inkscape:collect="always"
       id="linearGradient63013">
      <stop
         style="stop-color:#ffffff;stop-opacity:1;"
         offset="0"
         id="stop63015" />
      <stop
         style="stop-color:#ffffff;stop-opacity:0;"
         offset="1"
         id="stop63017" />
    </linearGradient>
    <linearGradient
       inkscape:collect="always"
       id="linearGradient58626">
      <stop
         style="stop-color:#ffffff;stop-opacity:1;"
         offset="0"
         id="stop58628" />
      <stop
         style="stop-color:#ffffff;stop-opacity:0;"
         offset="1"
         id="stop58630" />
    </linearGradient>
    <linearGradient
       inkscape:collect="always"
       id="linearGradient56867">
      <stop
         style="stop-color:#ffffff;stop-opacity:1;"
         offset="0"
         id="stop56869" />
      <stop
         style="stop-color:#ffffff;stop-opacity:0;"
         offset="1"
         id="stop56871" />
    </linearGradient>
    <linearGradient
       inkscape:collect="always"
       id="linearGradient55981">
      <stop
         style="stop-color:#000000;stop-opacity:1;"
         offset="0"
         id="stop55983" />
      <stop
         style="stop-color:#000000;stop-opacity:0;"
         offset="1"
         id="stop55985" />
    </linearGradient>
    <linearGradient
       inkscape:collect="always"
       id="linearGradient54215">
      <stop
         style="stop-color:#000000;stop-opacity:1;"
         offset="0"
         id="stop54217" />
      <stop
         style="stop-color:#000000;stop-opacity:0;"
         offset="1"
         id="stop54219" />
    </linearGradient>
    <linearGradient
       inkscape:collect="always"
       id="linearGradient53332">
      <stop
         style="stop-color:#ffffff;stop-opacity:1;"
         offset="0"
         id="stop53334" />
      <stop
         style="stop-color:#ffffff;stop-opacity:0;"
         offset="1"
         id="stop53336" />
    </linearGradient>
    <linearGradient
       inkscape:collect="always"
       id="linearGradient51576">
      <stop
         style="stop-color:#ffffff;stop-opacity:1;"
         offset="0"
         id="stop51578" />
      <stop
         style="stop-color:#ffffff;stop-opacity:0;"
         offset="1"
         id="stop51580" />
    </linearGradient>
    <linearGradient
       inkscape:collect="always"
       id="linearGradient49808">
      <stop
         style="stop-color:#000000;stop-opacity:1;"
         offset="0"
         id="stop49810" />
      <stop
         style="stop-color:#000000;stop-opacity:0;"
         offset="1"
         id="stop49812" />
    </linearGradient>
    <linearGradient
       inkscape:collect="always"
       id="linearGradient48890">
      <stop
         style="stop-color:#ffffff;stop-opacity:1;"
         offset="0"
         id="stop48892" />
      <stop
         style="stop-color:#ffffff;stop-opacity:0;"
         offset="1"
         id="stop48894" />
    </linearGradient>
    <linearGradient
       inkscape:collect="always"
       id="linearGradient41702">
      <stop
         style="stop-color:#000000;stop-opacity:1;"
         offset="0"
         id="stop41704" />
      <stop
         style="stop-color:#000000;stop-opacity:0;"
         offset="1"
         id="stop41706" />
    </linearGradient>
    <linearGradient
       inkscape:collect="always"
       id="linearGradient39063">
      <stop
         style="stop-color:#000000;stop-opacity:1;"
         offset="0"
         id="stop39065" />
      <stop
         style="stop-color:#000000;stop-opacity:0;"
         offset="1"
         id="stop39067" />
    </linearGradient>
    <linearGradient
       inkscape:collect="always"
       id="linearGradient23203">
      <stop
         style="stop-color:#000000;stop-opacity:1;"
         offset="0"
         id="stop23205" />
      <stop
         style="stop-color:#000000;stop-opacity:0;"
         offset="1"
         id="stop23207" />
    </linearGradient>
    <linearGradient
       inkscape:collect="always"
       id="linearGradient21434">
      <stop
         style="stop-color:#000000;stop-opacity:1;"
         offset="0"
         id="stop21436" />
      <stop
         style="stop-color:#000000;stop-opacity:0;"
         offset="1"
         id="stop21438" />
    </linearGradient>
    <linearGradient
       id="linearGradient12658">
      <stop
         style="stop-color:#ffffff;stop-opacity:1;"
         offset="0"
         id="stop12660" />
      <stop
         style="stop-color:#000000;stop-opacity:0;"
         offset="1"
         id="stop12662" />
    </linearGradient>
    <linearGradient
       inkscape:collect="always"
       id="linearGradient2890">
      <stop
         style="stop-color:#000000;stop-opacity:1;"
         offset="0"
         id="stop2892" />
      <stop
         style="stop-color:#000000;stop-opacity:0;"
         offset="1"
         id="stop2894" />
    </linearGradient>
    <linearGradient
       inkscape:collect="always"
       id="linearGradient2878">
      <stop
         style="stop-color:#ffffff;stop-opacity:1;"
         offset="0"
         id="stop2880" />
      <stop
         style="stop-color:#ffffff;stop-opacity:0;"
         offset="1"
         id="stop2882" />
    </linearGradient>
    <linearGradient
       inkscape:collect="always"
       id="linearGradient2854">
      <stop
         style="stop-color:#ffffff;stop-opacity:1;"
         offset="0"
         id="stop2856" />
      <stop
         style="stop-color:#ffffff;stop-opacity:0;"
         offset="1"
         id="stop2858" />
    </linearGradient>
    <linearGradient
       id="linearGradient2803">
      <stop
         style="stop-color:#e2dcdc;stop-opacity:1;"
         offset="0"
         id="stop2809" />
      <stop
         id="stop2811"
         offset="0.39074388"
         style="stop-color:#ffffff;stop-opacity:1;" />
      <stop
         id="stop2813"
         offset="0.82692307"
         style="stop-color:#dfd9df;stop-opacity:1;" />
      <stop
         id="stop2815"
         offset="1"
         style="stop-color:#c3c3c3;stop-opacity:1;" />
    </linearGradient>
    <linearGradient
       id="linearGradient2334">
      <stop
         id="stop2346"
         offset="0"
         style="stop-color:#dfe1e1;stop-opacity:1;" />
      <stop
         style="stop-color:#554141;stop-opacity:1;"
         offset="0"
         id="stop20557" />
      <stop
         id="stop2342"
         offset="0.5"
         style="stop-color:#e2dcdc;stop-opacity:1;" />
      <stop
         style="stop-color:#ffffff;stop-opacity:1;"
         offset="0.78201604"
         id="stop2348" />
      <stop
         style="stop-color:#dfd9df;stop-opacity:1;"
         offset="1"
         id="stop2344" />
    </linearGradient>
    <linearGradient
       id="linearGradient2270">
      <stop
         style="stop-color:#000000;stop-opacity:1;"
         offset="0"
         id="stop2272" />
      <stop
         id="stop2286"
         offset="0.11893105"
         style="stop-color:#141414;stop-opacity:1;" />
      <stop
         id="stop2282"
         offset="0.17597927"
         style="stop-color:#282828;stop-opacity:1;" />
      <stop
         style="stop-color:#363636;stop-opacity:1;"
         offset="0.50941366"
         id="stop2284" />
      <stop
         style="stop-color:#303030;stop-opacity:1;"
         offset="0.84284806"
         id="stop2280" />
      <stop
         id="stop2288"
         offset="0.88084084"
         style="stop-color:#141414;stop-opacity:1;" />
      <stop
         style="stop-color:#000000;stop-opacity:1;"
         offset="1"
         id="stop2274" />
    </linearGradient>
    <linearGradient
       inkscape:collect="always"
       xlink:href="#linearGradient12658"
       id="linearGradient4511"
       gradientUnits="userSpaceOnUse"
       gradientTransform="translate(0.176776,-7.214001e-8)"
       x1="16.596193"
       y1="32.796188"
       x2="16.255606"
       y2="46.164215" />
    <radialGradient
       inkscape:collect="always"
       xlink:href="#linearGradient2890"
       id="radialGradient4513"
       gradientUnits="userSpaceOnUse"
       gradientTransform="matrix(1,0,0,1.239918,0,-7.868381)"
       cx="25.353127"
       cy="28.091335"
       fx="25.353127"
       fy="28.091335"
       r="9.6408129" />
    <radialGradient
       inkscape:collect="always"
       xlink:href="#linearGradient2803"
       id="radialGradient4515"
       gradientUnits="userSpaceOnUse"
       gradientTransform="matrix(-0.00932017,1.394366,-2.178833,-0.01456373,90.68496,15.71249)"
       cx="14.509778"
       cy="35.00518"
       fx="14.509778"
       fy="35.00518"
       r="2.8726213" />
    <radialGradient
       inkscape:collect="always"
       xlink:href="#linearGradient2334"
       id="radialGradient4517"
       gradientUnits="userSpaceOnUse"
       gradientTransform="matrix(1.666942,0,0,1.506876,-15.01094,-18.679)"
       cx="22.408136"
       cy="37.070213"
       fx="22.408136"
       fy="37.070213"
       r="3.0923135" />
    <radialGradient
       inkscape:collect="always"
       xlink:href="#linearGradient2803"
       id="radialGradient4519"
       gradientUnits="userSpaceOnUse"
       gradientTransform="matrix(2.915571,0.0290238,-0.01252409,1.258101,-25.00843,-10.75595)"
       cx="13.379482"
       cy="38.20137"
       fx="13.379482"
       fy="38.20137"
       r="3.0453751" />
    <radialGradient
       inkscape:collect="always"
       xlink:href="#linearGradient21434"
       id="radialGradient4521"
       gradientUnits="userSpaceOnUse"
       gradientTransform="translate(-24.34109,-0.719346)"
       cx="23.744551"
       cy="34.788834"
       fx="23.744551"
       fy="34.788834"
       r="3.0923135" />
    <linearGradient
       inkscape:collect="always"
       xlink:href="#linearGradient23203"
       id="linearGradient4523"
       gradientUnits="userSpaceOnUse"
       x1="23.744551"
       y1="38.748631"
       x2="25.186951"
       y2="34.788834" />
    <radialGradient
       inkscape:collect="always"
       xlink:href="#linearGradient41702"
       id="radialGradient4529"
       gradientUnits="userSpaceOnUse"
       gradientTransform="matrix(0.999906,-0.01373107,0.07333252,5.340124,-4.800057,-268.5467)"
       cx="9.3238058"
       cy="65.46804"
       fx="9.3238058"
       fy="65.46804"
       r="5.1136933" />
    <radialGradient
       inkscape:collect="always"
       xlink:href="#linearGradient2854"
       id="radialGradient4531"
       gradientUnits="userSpaceOnUse"
       gradientTransform="matrix(-1,0,0,-5.684198,23.39761,332.1682)"
       cx="12.698806"
       cy="51.895706"
       fx="12.698806"
       fy="51.895706"
       r="5.1136932" />
    <radialGradient
       inkscape:collect="always"
       xlink:href="#linearGradient2803"
       id="radialGradient4541"
       gradientUnits="userSpaceOnUse"
       gradientTransform="matrix(-0.00932017,1.394366,-2.178833,-0.01456373,90.68496,15.71249)"
       cx="14.509778"
       cy="35.00518"
       fx="14.509778"
       fy="35.00518"
       r="2.8726213" />
    <radialGradient
       inkscape:collect="always"
       xlink:href="#linearGradient2334"
       id="radialGradient4543"
       gradientUnits="userSpaceOnUse"
       gradientTransform="matrix(1.666942,0,0,1.506876,-15.01094,-18.679)"
       cx="22.408136"
       cy="37.070213"
       fx="22.408136"
       fy="37.070213"
       r="3.0923135" />
    <linearGradient
       inkscape:collect="always"
       xlink:href="#linearGradient23203"
       id="linearGradient4549"
       gradientUnits="userSpaceOnUse"
       x1="26.836864"
       y1="37.881145"
       x2="23.744551"
       y2="34.788834" />
    <radialGradient
       inkscape:collect="always"
       xlink:href="#linearGradient41702"
       id="radialGradient4555"
       gradientUnits="userSpaceOnUse"
       gradientTransform="matrix(0.999906,-0.01373107,0.07333252,5.340124,-4.800057,-268.5467)"
       cx="9.3238058"
       cy="65.46804"
       fx="9.3238058"
       fy="65.46804"
       r="5.1136933" />
    <radialGradient
       inkscape:collect="always"
       xlink:href="#linearGradient2854"
       id="radialGradient4557"
       gradientUnits="userSpaceOnUse"
       gradientTransform="matrix(-1,0,0,-5.684198,23.39761,332.1682)"
       cx="12.698806"
       cy="51.895706"
       fx="12.698806"
       fy="51.895706"
       r="5.1136932" />
    <radialGradient
       inkscape:collect="always"
       xlink:href="#linearGradient63013"
       id="radialGradient3158"
       gradientUnits="userSpaceOnUse"
       gradientTransform="matrix(0.00891074,0.28353254,-1.7753649,0.05535871,-8.8191848,6.2015773)"
       cx="26.145737"
       cy="-17.76833"
       fx="26.145737"
       fy="-17.76833"
       r="34.541764" />
    <radialGradient
       inkscape:collect="always"
       xlink:href="#linearGradient55981"
       id="radialGradient3161"
       gradientUnits="userSpaceOnUse"
       gradientTransform="matrix(1.7529038,-1.799062e-6,1.6014422e-5,15.103307,-18.197995,-1063.9143)"
       cx="19.281994"
       cy="78.556969"
       fx="19.281994"
       fy="78.556969"
       r="2.447025" />
    <radialGradient
       inkscape:collect="always"
       xlink:href="#linearGradient54215"
       id="radialGradient3164"
       gradientUnits="userSpaceOnUse"
       gradientTransform="matrix(1.4739951,-1.2091417e-5,9.1305335e-5,11.043371,-47.21038,-745.76387)"
       cx="107.35215"
       cy="78.328499"
       fx="107.35215"
       fy="78.328499"
       r="2.447025" />
    <radialGradient
       inkscape:collect="always"
       xlink:href="#linearGradient53332"
       id="radialGradient3167"
       gradientUnits="userSpaceOnUse"
       gradientTransform="matrix(1.0857544,0,0,11.043371,14.425999,-734.72181)"
       cx="85.977142"
       cy="73.204399"
       fx="85.977142"
       fy="73.204399"
       r="2.447025" />
    <radialGradient
       inkscape:collect="always"
       xlink:href="#linearGradient51576"
       id="radialGradient3170"
       gradientUnits="userSpaceOnUse"
       gradientTransform="matrix(1.0857544,0,0,11.043371,-5.3328045,-743.21696)"
       cx="20.668358"
       cy="74.121422"
       fx="20.668358"
       fy="74.121422"
       r="2.447025" />
    <radialGradient
       inkscape:collect="always"
       xlink:href="#linearGradient49808"
       id="radialGradient3173"
       gradientUnits="userSpaceOnUse"
       gradientTransform="matrix(-1.2401682,0,0,2.1046127,135.70961,-35.53408)"
       cx="16.369699"
       cy="44.139114"
       fx="16.369699"
       fy="44.139114"
       r="1.7509805" />
    <radialGradient
       inkscape:collect="always"
       xlink:href="#linearGradient49808"
       id="radialGradient3176"
       gradientUnits="userSpaceOnUse"
       gradientTransform="matrix(1.0857544,0,0,2.1046127,-5.4287722,-35.975342)"
       cx="16.369699"
       cy="44.139114"
       fx="16.369699"
       fy="44.139114"
       r="1.7509805" />
    <radialGradient
       inkscape:collect="always"
       xlink:href="#linearGradient2878"
       id="radialGradient3179"
       gradientUnits="userSpaceOnUse"
       gradientTransform="matrix(3.2083576,-0.02439423,-0.09281243,-12.110538,76.99048,958.32255)"
       cx="12.865432"
       cy="73.830261"
       fx="12.865432"
       fy="73.830261"
       r="2.8294306" />
    <radialGradient
       inkscape:collect="always"
       xlink:href="#linearGradient48890"
       id="radialGradient3182"
       gradientUnits="userSpaceOnUse"
       gradientTransform="matrix(-1.0857544,-1.3347574e-8,1.0029801e-7,-8.0948402,55.706806,565.41734)"
       cx="38.92181"
       cy="60.765884"
       fx="38.92181"
       fy="60.765884"
       r="2.8281901" />
    <radialGradient
       inkscape:collect="always"
       xlink:href="#linearGradient2803"
       id="radialGradient3185"
       gradientUnits="userSpaceOnUse"
       gradientTransform="matrix(1.0857251,0.00794026,0.02889104,-3.9195414,113.06598,314.04048)"
       cx="7.258028"
       cy="63.070908"
       fx="7.258028"
       fy="63.070908"
       r="2.3488126" />
    <radialGradient
       inkscape:collect="always"
       xlink:href="#linearGradient2878"
       id="radialGradient3194"
       gradientUnits="userSpaceOnUse"
       gradientTransform="matrix(1.4446321,-0.02439423,-0.20609247,-12.109153,107.99974,957.88551)"
       cx="13.351931"
       cy="73.529305"
       fx="13.351931"
       fy="73.529305"
       r="2.8294306" />
    <linearGradient
       inkscape:collect="always"
       xlink:href="#linearGradient39063"
       id="linearGradient3197"
       gradientUnits="userSpaceOnUse"
       gradientTransform="matrix(-1.0857544,0,0,1.0814959,155.56318,12.312625)"
       x1="37.07943"
       y1="99.367859"
       x2="36.783859"
       y2="58.492859" />
    <radialGradient
       inkscape:collect="always"
       xlink:href="#linearGradient2803"
       id="radialGradient3202"
       gradientUnits="userSpaceOnUse"
       gradientTransform="matrix(3.1656973,-0.01843824,-0.01723419,-2.936001,68.963523,167.03254)"
       cx="13.775342"
       cy="40.040668"
       fx="13.775342"
       fy="40.040668"
       r="3.0453751" />
    <radialGradient
       inkscape:collect="always"
       xlink:href="#linearGradient21434"
       id="radialGradient3204"
       gradientUnits="userSpaceOnUse"
       gradientTransform="matrix(0.77670206,0.75570613,0.75868178,-0.77365572,52.109063,55.731632)"
       cx="23.744551"
       cy="34.788834"
       fx="23.744551"
       fy="34.788834"
       r="3.0923135" />
    <radialGradient
       inkscape:collect="always"
       xlink:href="#linearGradient2890"
       id="radialGradient3210"
       gradientUnits="userSpaceOnUse"
       gradientTransform="matrix(-1.0857544,0,0,1.3409663,133.22876,2.8027211)"
       cx="14.478127"
       cy="29.50272"
       fx="14.478127"
       fy="29.50272"
       r="9.6408129" />
    <linearGradient
       inkscape:collect="always"
       xlink:href="#linearGradient12658"
       id="linearGradient3213"
       gradientUnits="userSpaceOnUse"
       gradientTransform="matrix(-1.0857544,0,0,1.0814959,133.03682,11.312343)"
       x1="16.596193"
       y1="32.796188"
       x2="16.255606"
       y2="46.164215" />
    <radialGradient
       inkscape:collect="always"
       xlink:href="#linearGradient58626"
       id="radialGradient3219"
       gradientUnits="userSpaceOnUse"
       gradientTransform="matrix(-1.2680147,0.01197711,-0.0538515,-5.6566477,269.51625,511.7388)"
       cx="116.15437"
       cy="78.578934"
       fx="116.15437"
       fy="78.578934"
       r="4.21875" />
    <radialGradient
       inkscape:collect="always"
       xlink:href="#linearGradient2803"
       id="radialGradient3222"
       gradientUnits="userSpaceOnUse"
       gradientTransform="matrix(-1.0856665,0.01378885,-0.11060689,-8.6404928,19.837952,617.16032)"
       cx="8.4597883"
       cy="64.232155"
       fx="8.4597883"
       fy="64.232155"
       r="2.3488126" />
    <radialGradient
       inkscape:collect="always"
       xlink:href="#linearGradient2878"
       id="radialGradient3231"
       gradientUnits="userSpaceOnUse"
       gradientTransform="matrix(-1.4446321,-0.02439423,0.20609247,-12.109153,19.752232,958.02027)"
       cx="13.351931"
       cy="73.529305"
       fx="13.351931"
       fy="73.529305"
       r="2.8294306" />
    <linearGradient
       inkscape:collect="always"
       xlink:href="#linearGradient39063"
       id="linearGradient3234"
       gradientUnits="userSpaceOnUse"
       gradientTransform="matrix(1.0857544,0,0,1.0814959,-27.763247,12.303925)"
       x1="37.07943"
       y1="99.367859"
       x2="36.783859"
       y2="58.492859" />
    <radialGradient
       inkscape:collect="always"
       xlink:href="#linearGradient56867"
       id="radialGradient3252"
       gradientUnits="userSpaceOnUse"
       gradientTransform="matrix(-1.0855894,0.01882692,-0.04454377,-2.5483548,49.181985,230.06655)"
       cx="38.784943"
       cy="62.149143"
       fx="38.784943"
       fy="62.149143"
       r="6.09375" />
    <filter
       inkscape:collect="always"
       id="filter4037">
      <feGaussianBlur
         inkscape:collect="always"
         stdDeviation="0.14071859"
         id="feGaussianBlur4039" />
    </filter>
    <filter
       inkscape:collect="always"
       id="filter4041">
      <feGaussianBlur
         inkscape:collect="always"
         stdDeviation="0.10824507"
         id="feGaussianBlur4043" />
    </filter>
  </defs>
  <sodipodi:namedview
     id="base"
     pagecolor="#ffffff"
     bordercolor="#666666"
     borderopacity="1.0"
     inkscape:pageopacity="0.0"
     inkscape:pageshadow="2"
     inkscape:zoom="4"
     inkscape:cx="53.200985"
     inkscape:cy="78.864262"
     inkscape:current-layer="layer1"
     showgrid="true"
     inkscape:document-units="px"
     inkscape:grid-bbox="true"
     showguides="true"
     inkscape:guide-bbox="true"
     inkscape:window-width="942"
     inkscape:window-height="696"
     inkscape:window-x="0"
     inkscape:window-y="0"
     inkscape:window-maximized="0">
    <inkscape:grid
       type="xygrid"
       id="grid4064"
       empspacing="5"
       visible="true"
       enabled="true"
       snapvisiblegridlinesonly="true"
       spacingx="4px"
       spacingy="4px" />
  </sodipodi:namedview>
  <metadata
     id="metadata1312">
    <rdf:RDF>
      <cc:Work
         rdf:about="">
        <dc:format>image/svg+xml</dc:format>
        <dc:type
           rdf:resource="http://purl.org/dc/dcmitype/StillImage" />
        <dc:title></dc:title>
      </cc:Work>
    </rdf:RDF>
  </metadata>
  <g
     id="layer1"
     inkscape:label="Layer 1"
     inkscape:groupmode="layer">
    <path
       inkscape:connector-curvature="0"
       style="fill:#000000;fill-opacity:1;fill-rule:nonzero;stroke:none"
       d="M 13.168354,72.297422 C 1.7999764,72.226716 0,82.708899 0,92.52171 c 0,9.78187 1.9442136,19.46883 13.092451,19.80862 -0.0046,-0.0611 0,-0.12664 0,-0.18902 l 0,-39.012232 c 0,-0.29111 0.0574,-0.573874 0.151805,-0.831656 -0.02905,0.0088 -0.0469,-0.0091 -0.07591,0 z"
       id="path8165"
       inkscape:r_cx="true"
       inkscape:r_cy="true"
       sodipodi:nodetypes="cscccsc" />
    <path
       inkscape:connector-curvature="0"
       style="fill:#555753;fill-opacity:1;fill-rule:nonzero;stroke:none"
       d="m 17.296606,66.522384 c 0.422325,-0.331871 1.370692,-1.144909 2.921237,-1.197009 0.391282,-0.01314 0.698598,0.529779 0.698598,0.919797 0,0 -1.021872,13.753556 -1.021872,26.696903 0,12.943345 0.472106,24.903445 0.472106,24.903445 0,0.39 0.02063,1.4321 -1.396889,1.52642 l -0.600212,-0.0103 c -1.035333,-0.0427 -2.552276,-1.46824 -2.552276,-1.85825 0,0 -0.214593,-11.53259 -0.214593,-24.475941 0,-12.943346 0.815455,-25.330938 0.815455,-25.330938 0,-0.390016 0.585618,-0.944142 0.878446,-1.174252 z"
       id="rect1971"
       sodipodi:nodetypes="cscsccccscs"
       inkscape:r_cx="true"
       inkscape:r_cy="true" />
    <path
       inkscape:connector-curvature="0"
       inkscape:r_cy="true"
       inkscape:r_cx="true"
       sodipodi:nodetypes="cccsccccscc"
       id="path3731"
       d="m 23.242995,65.428017 0.503648,0 c 1.969649,0 4.227143,1.402229 4.348536,6.689349 0,0 -0.242785,9.880528 -0.242785,19.761055 0,9.880529 0.242785,19.761049 0.242785,19.761049 -0.06069,5.10575 -2.898393,7.51799 -5.677745,7.61313 l -0.648112,0.0168 c -1.194082,-0.0515 -1.398574,-0.89191 -1.398574,-1.28192 0,0 -0.849746,-12.81274 -0.728355,-25.62549 0.121394,-12.812743 1.213925,-25.625487 1.213925,-25.625487 0,-0.934139 1.347924,-1.360154 2.386677,-1.30858 z"
       style="fill:#000000;fill-opacity:1;fill-rule:nonzero;stroke:none" />
    <path
       inkscape:connector-curvature="0"
       style="opacity:0.79587157;fill:url(#radialGradient3252);fill-opacity:1;fill-rule:nonzero;stroke:none"
       d="M 12.893333,72.419762 C 1.8787558,72.592795 0.13571937,82.966197 0.13571937,92.664013 c 0,3.416012 0.26843213,6.802233 1.05182463,9.801057 -0.075461,-0.85796 -0.1017899,-1.71824 -0.1017899,-2.60235 0,-10.132885 5.1114723,-18.708575 12.1468779,-21.663714 l 0,-4.934325 c -1e-6,-0.291109 0.04131,-0.587136 0.13572,-0.844919 -0.0032,-1.48e-4 -0.03096,4.56e-4 -0.03393,0 -0.0032,-1.32e-4 -0.03061,-3.94e-4 -0.03393,0 -0.133224,-8.29e-4 -0.276551,-0.0021 -0.407159,0 z"
       id="path55989"
       inkscape:r_cx="true"
       inkscape:r_cy="true" />
    <path
       inkscape:connector-curvature="0"
       inkscape:r_cy="true"
       inkscape:r_cx="true"
       style="fill:#b5b5b5;fill-opacity:1;fill-rule:nonzero;stroke:#000000;stroke-width:0.51147008;stroke-linecap:round;stroke-linejoin:round;stroke-miterlimit:4;stroke-opacity:0.48309183;stroke-dasharray:none"
       d="m 15.592006,66.657363 0.263472,0.01467 c 0.622662,-0.0036 0.630716,0.534443 0.630716,1.71041 0,0 -0.340184,5.683046 -0.533921,17.857313 -0.193736,12.174264 -0.09458,30.548014 -0.09458,30.548014 0,0.60377 -0.327157,1.07123 -0.703003,1.08124 -1.855727,0.0488 -4.833971,-3.392 -4.812509,-6.98829 l 0.01777,-38.205753 c 0,-0.390012 2.614941,-6.060356 5.232056,-6.017603 z"
       id="rect3735"
       sodipodi:nodetypes="cccscsccc" />
    <path
       inkscape:connector-curvature="0"
       inkscape:r_cy="true"
       inkscape:r_cx="true"
       sodipodi:nodetypes="cscscssc"
       id="path61265"
       d="m 63.641582,11.830185 c -22.355093,0.500293 -37.382199,12.823508 -42.476351,23.691092 -1.007782,2.149943 -0.252639,4.047917 2.230784,6.607697 10.990515,-11.478121 21.46976,-17.677929 40.742112,-17.677929 19.272351,0 30.078855,6.5929 40.605943,17.942213 2.84873,-3.009645 2.83602,-4.254824 1.95055,-6.565555 -3.65828,-9.546716 -18.742256,-23.997519 -41.717217,-23.997518 -0.448729,0 -0.8905,-0.0099 -1.335821,0 z"
       style="fill:none;stroke:#000000;stroke-width:0.83655703;stroke-linecap:round;stroke-linejoin:round;stroke-miterlimit:4;stroke-opacity:0.56763288;stroke-dasharray:none" />
    <g
       id="g44343"
       transform="matrix(1.0857544,0,0,1.0814959,-5.4287722,11.112462)"
       inkscape:r_cx="true"
       inkscape:r_cy="true">
      <path
         inkscape:connector-curvature="0"
         sodipodi:nodetypes="cssssssscsssssscscsssssssssssssccssssc"
         id="path17051"
         d="m 29.25,20.84375 c -0.0074,0.0017 -0.02389,0.02936 -0.03125,0.03125 -0.01452,0.0041 -0.04839,-0.0048 -0.0625,0 -0.01389,0.0051 -0.04907,0.02545 -0.0625,0.03125 -0.01319,0.0061 -0.04981,0.02444 -0.0625,0.03125 C 29.02505,20.9411 29.00608,20.96501 29,20.96875 28.98811,20.97655 28.94881,20.9915 28.9375,21 c -0.0055,0.0044 -0.02589,0.02666 -0.03125,0.03125 -0.0208,0.01902 -0.04436,0.04079 -0.0625,0.0625 0,0 -3.240088,3.084277 -6,6.625 -2.759912,3.540723 -5.234354,7.82957 -5.304687,7.8125 -0.123687,-0.03002 -0.436514,-0.0625 -0.726563,-0.0625 -2.65188,0 -4.8125,2.095814 -4.8125,4.65625 0,2.560436 2.160619,4.625 4.8125,4.625 2.65188,0 4.781251,-2.064565 4.78125,-4.625 0,-1.320225 -0.550872,-2.53003 -1.46875,-3.375 0.227525,-0.43628 2.131332,-4.024322 4.71875,-7.34375 2.759912,-3.540724 6.3125,-6.781251 6.3125,-6.78125 0.0044,-0.0056 -0.0041,-0.02556 0,-0.03125 0.0039,-0.0058 0.02757,-0.02537 0.03125,-0.03125 0.0138,-0.02387 0.02103,-0.0686 0.03125,-0.09375 0.0023,-0.0064 0.02913,-0.02482 0.03125,-0.03125 0.0038,-0.01299 -0.0029,-0.04927 0,-0.0625 0.0062,-0.03335 0.0303,-0.09051 0.03125,-0.125 -3.6e-5,-0.01387 8.63e-4,-0.0485 0,-0.0625 -0.0013,-0.01405 -0.02916,-0.04837 -0.03125,-0.0625 -0.0025,-0.01417 0.0033,-0.04828 0,-0.0625 C 31.2463,22.04827 31.22322,22.01424 31.21875,22 31.19686,21.93596 31.16224,21.843746 31.125,21.78125 31.10771,21.75361 31.08269,21.71444 31.0625,21.6875 c -0.0627,-0.0802 -0.162652,-0.180263 -0.25,-0.25 -0.02977,-0.02287 -0.0614,-0.04126 -0.09375,-0.0625 l -0.4375,-0.3125 c -0.07279,-0.04779 -0.173666,-0.0912 -0.25,-0.125 -0.170135,-0.07167 -0.366608,-0.09064 -0.53125,-0.09375 -0.03272,6.1e-5 -0.09327,-0.0028 -0.125,0 -0.02358,0.0026 -0.07088,-0.0041 -0.09375,0 -0.0075,0.0015 -0.0238,-0.0017 -0.03125,0 z"
         style="opacity:0.49311924;fill:none;stroke:#000000;stroke-width:0.972;stroke-linecap:round;stroke-linejoin:round;stroke-miterlimit:4;stroke-opacity:1;stroke-dasharray:none"
         inkscape:r_cx="true"
         inkscape:r_cy="true" />
      <path
         inkscape:connector-curvature="0"
         sodipodi:nodetypes="cssssssscsssssscscsssssssssssssccssssc"
         id="rect8188"
         d="m 29.25,20.84375 c -0.0074,0.0017 -0.02389,0.02936 -0.03125,0.03125 -0.01452,0.0041 -0.04839,-0.0048 -0.0625,0 -0.01389,0.0051 -0.04907,0.02545 -0.0625,0.03125 -0.01319,0.0061 -0.04981,0.02444 -0.0625,0.03125 C 29.02505,20.9411 29.00608,20.96501 29,20.96875 28.98811,20.97655 28.94881,20.9915 28.9375,21 c -0.0055,0.0044 -0.02589,0.02666 -0.03125,0.03125 -0.0208,0.01902 -0.04436,0.04079 -0.0625,0.0625 0,0 -3.240088,3.084277 -6,6.625 -2.759912,3.540723 -5.234354,7.82957 -5.304687,7.8125 -0.123687,-0.03002 -0.436514,-0.0625 -0.726563,-0.0625 -2.65188,0 -4.8125,2.095814 -4.8125,4.65625 0,2.560436 2.160619,4.625 4.8125,4.625 2.65188,0 4.781251,-2.064565 4.78125,-4.625 0,-1.320225 -0.550872,-2.53003 -1.46875,-3.375 0.227525,-0.43628 2.131332,-4.024322 4.71875,-7.34375 2.759912,-3.540724 6.3125,-6.781251 6.3125,-6.78125 0.0044,-0.0056 -0.0041,-0.02556 0,-0.03125 0.0039,-0.0058 0.02757,-0.02537 0.03125,-0.03125 0.0138,-0.02387 0.02103,-0.0686 0.03125,-0.09375 0.0023,-0.0064 0.02913,-0.02482 0.03125,-0.03125 0.0038,-0.01299 -0.0029,-0.04927 0,-0.0625 0.0062,-0.03335 0.0303,-0.09051 0.03125,-0.125 -3.6e-5,-0.01387 8.63e-4,-0.0485 0,-0.0625 -0.0013,-0.01405 -0.02916,-0.04837 -0.03125,-0.0625 -0.0025,-0.01417 0.0033,-0.04828 0,-0.0625 C 31.2463,22.04827 31.22322,22.01424 31.21875,22 31.19686,21.93596 31.16224,21.843746 31.125,21.78125 31.10771,21.75361 31.08269,21.71444 31.0625,21.6875 c -0.0627,-0.0802 -0.162652,-0.180263 -0.25,-0.25 -0.02977,-0.02287 -0.0614,-0.04126 -0.09375,-0.0625 l -0.4375,-0.3125 c -0.07279,-0.04779 -0.173666,-0.0912 -0.25,-0.125 -0.170135,-0.07167 -0.366608,-0.09064 -0.53125,-0.09375 -0.03272,6.1e-5 -0.09327,-0.0028 -0.125,0 -0.02358,0.0026 -0.07088,-0.0041 -0.09375,0 -0.0075,0.0015 -0.0238,-0.0017 -0.03125,0 z"
         style="fill:#babdb6;fill-opacity:1;fill-rule:nonzero;stroke:none"
         inkscape:r_cx="true"
         inkscape:r_cy="true" />
      <path
         inkscape:connector-curvature="0"
         inkscape:r_cy="true"
         inkscape:r_cx="true"
         sodipodi:nodetypes="cssssssscsssssscscsssssssssssssccssssc"
         id="path12666"
         d="m 29.426776,20.84375 c -0.0074,0.0017 -0.02389,0.02936 -0.03125,0.03125 -0.01452,0.0041 -0.04839,-0.0048 -0.0625,0 -0.01389,0.0051 -0.04907,0.02545 -0.0625,0.03125 -0.01319,0.0061 -0.04981,0.02444 -0.0625,0.03125 -0.0062,0.0036 -0.02517,0.02751 -0.03125,0.03125 -0.01189,0.0078 -0.05119,0.02275 -0.0625,0.03125 -0.0055,0.0044 -0.02589,0.02666 -0.03125,0.03125 -0.0208,0.01902 -0.04436,0.04079 -0.0625,0.0625 0,0 -3.240088,3.084277 -6,6.625 -2.759912,3.540723 -5.234353,7.82957 -5.304686,7.8125 -0.123687,-0.03002 -0.436514,-0.0625 -0.726563,-0.0625 -2.65188,0 -4.8125,2.095814 -4.8125,4.65625 0,2.560436 2.160619,4.625 4.8125,4.625 2.65188,0 4.78125,-2.064565 4.781249,-4.625 0,-1.320225 -0.550872,-2.53003 -1.46875,-3.375 0.227525,-0.43628 2.131332,-4.024322 4.71875,-7.34375 2.759912,-3.540724 6.3125,-6.781251 6.3125,-6.78125 0.0044,-0.0056 -0.0041,-0.02556 0,-0.03125 0.0039,-0.0058 0.02757,-0.02537 0.03125,-0.03125 0.0138,-0.02387 0.02103,-0.0686 0.03125,-0.09375 0.0023,-0.0064 0.02913,-0.02482 0.03125,-0.03125 0.0038,-0.01299 -0.0029,-0.04927 0,-0.0625 0.0062,-0.03335 0.0303,-0.09051 0.03125,-0.125 -3.6e-5,-0.01387 8.63e-4,-0.0485 0,-0.0625 -0.0013,-0.01405 -0.02916,-0.04837 -0.03125,-0.0625 -0.0025,-0.01417 0.0033,-0.04828 0,-0.0625 -0.0037,-0.01423 -0.02678,-0.04826 -0.03125,-0.0625 -0.02189,-0.06404 -0.05651,-0.156254 -0.09375,-0.21875 -0.01729,-0.02764 -0.04231,-0.06681 -0.0625,-0.09375 -0.0627,-0.0802 -0.162652,-0.180263 -0.25,-0.25 -0.02977,-0.02287 -0.0614,-0.04126 -0.09375,-0.0625 l -0.4375,-0.3125 c -0.07279,-0.04779 -0.173666,-0.0912 -0.25,-0.125 -0.170135,-0.07167 -0.366608,-0.09064 -0.53125,-0.09375 -0.03272,6.1e-5 -0.09327,-0.0028 -0.125,0 -0.02358,0.0026 -0.07088,-0.0041 -0.09375,0 -0.0075,0.0015 -0.0238,-0.0017 -0.03125,0 z"
         style="fill:url(#linearGradient4511);fill-opacity:1;fill-rule:nonzero;stroke:none" />
      <path
         inkscape:connector-curvature="0"
         style="opacity:0.66972477;fill:url(#radialGradient4513);fill-opacity:1;fill-rule:nonzero;stroke:none"
         d="m 29.25,20.84375 c -0.0074,0.0017 -0.02389,0.02936 -0.03125,0.03125 -0.01452,0.0041 -0.04839,-0.0048 -0.0625,0 -0.01389,0.0051 -0.04907,0.02545 -0.0625,0.03125 -0.01319,0.0061 -0.04981,0.02444 -0.0625,0.03125 C 29.02505,20.9411 29.00608,20.96501 29,20.96875 28.98811,20.97655 28.94881,20.9915 28.9375,21 c -0.0055,0.0044 -0.02589,0.02666 -0.03125,0.03125 -0.0208,0.01902 -0.04436,0.04079 -0.0625,0.0625 0,0 -3.240088,3.084277 -6,6.625 -2.759912,3.540723 -5.234354,7.82957 -5.304687,7.8125 -0.123687,-0.03002 -0.436514,-0.0625 -0.726563,-0.0625 -2.65188,0 -4.8125,2.095814 -4.8125,4.65625 0,2.560436 2.160619,4.625 4.8125,4.625 2.65188,0 4.781251,-2.064565 4.78125,-4.625 0,-1.320225 -0.550872,-2.53003 -1.46875,-3.375 0.227525,-0.43628 2.131332,-4.024322 4.71875,-7.34375 2.759912,-3.540724 6.3125,-6.781251 6.3125,-6.78125 0.0044,-0.0056 -0.0041,-0.02556 0,-0.03125 0.0039,-0.0058 0.02757,-0.02537 0.03125,-0.03125 0.0138,-0.02387 0.02103,-0.0686 0.03125,-0.09375 0.0023,-0.0064 0.02913,-0.02482 0.03125,-0.03125 0.0038,-0.01299 -0.0029,-0.04927 0,-0.0625 0.0062,-0.03335 0.0303,-0.09051 0.03125,-0.125 -3.6e-5,-0.01387 8.63e-4,-0.0485 0,-0.0625 -0.0013,-0.01405 -0.02916,-0.04837 -0.03125,-0.0625 -0.0025,-0.01417 0.0033,-0.04828 0,-0.0625 C 31.2463,22.04827 31.22322,22.01424 31.21875,22 31.19686,21.93596 31.16224,21.843746 31.125,21.78125 31.10771,21.75361 31.08269,21.71444 31.0625,21.6875 c -0.0627,-0.0802 -0.162652,-0.180263 -0.25,-0.25 -0.02977,-0.02287 -0.0614,-0.04126 -0.09375,-0.0625 l -0.4375,-0.3125 c -0.07279,-0.04779 -0.173666,-0.0912 -0.25,-0.125 -0.170135,-0.07167 -0.366608,-0.09064 -0.53125,-0.09375 -0.03272,6.1e-5 -0.09327,-0.0028 -0.125,0 -0.02358,0.0026 -0.07088,-0.0041 -0.09375,0 -0.0075,0.0015 -0.0238,-0.0017 -0.03125,0 z"
         id="path11783"
         sodipodi:nodetypes="cssssssscsssssscscsssssssssssssccssssc"
         inkscape:r_cx="true"
         inkscape:r_cy="true" />
      <path
         transform="matrix(1.53959,0,0,1.53959,-5.362676,-19.96577)"
         inkscape:r_cy="true"
         inkscape:r_cx="true"
         d="m 17.324116,39.037128 c 0,1.586505 -1.286116,2.872622 -2.872621,2.872622 -1.586505,0 -2.872621,-1.286117 -2.872621,-2.872622 0,-1.586504 1.286116,-2.872621 2.872621,-2.872621 1.586505,0 2.872621,1.286117 2.872621,2.872621 z"
         sodipodi:ry="2.8726213"
         sodipodi:rx="2.8726213"
         sodipodi:cy="39.037128"
         sodipodi:cx="14.451495"
         id="path16168"
         style="opacity:0.66972477;fill:url(#radialGradient4515);fill-opacity:1;fill-rule:nonzero;stroke:none"
         sodipodi:type="arc" />
      <path
         transform="matrix(1.071429,0,0,1.071429,-8.753795,3.039429)"
         inkscape:r_cy="true"
         inkscape:r_cx="true"
         d="m 26.836864,34.788834 c 0,1.707837 -1.384476,3.092313 -3.092313,3.092313 -1.707838,0 -3.092314,-1.384476 -3.092314,-3.092313 0,-1.707838 1.384476,-3.092314 3.092314,-3.092314 1.707837,0 3.092313,1.384476 3.092313,3.092314 z"
         sodipodi:ry="3.0923135"
         sodipodi:rx="3.0923135"
         sodipodi:cy="34.788834"
         sodipodi:cx="23.744551"
         id="path8195"
         style="opacity:0.67431192;fill:#2e3436;fill-opacity:1;fill-rule:nonzero;stroke:#000000;stroke-width:0.43866649;stroke-linecap:round;stroke-linejoin:round;stroke-miterlimit:4;stroke-opacity:1;stroke-dasharray:none"
         sodipodi:type="arc" />
      <path
         sodipodi:type="arc"
         style="opacity:0.39678901;fill:url(#radialGradient4517);fill-opacity:1;fill-rule:nonzero;stroke:none"
         id="path18799"
         sodipodi:cx="23.744551"
         sodipodi:cy="34.788834"
         sodipodi:rx="3.0923135"
         sodipodi:ry="3.0923135"
         d="m 26.836864,34.788834 c 0,1.707837 -1.384476,3.092313 -3.092313,3.092313 -1.707838,0 -3.092314,-1.384476 -3.092314,-3.092313 0,-1.707838 1.384476,-3.092314 3.092314,-3.092314 1.707837,0 3.092313,1.384476 3.092313,3.092314 z"
         inkscape:r_cx="true"
         inkscape:r_cy="true"
         transform="matrix(1.071429,0,0,1.071429,-8.753795,3.039429)" />
      <path
         inkscape:connector-curvature="0"
         inkscape:r_cy="true"
         inkscape:r_cx="true"
         id="path20559"
         d="m 16.190153,37.030654 c -1.629955,0.207392 -2.906249,1.626498 -2.90625,3.3125 0,1.297364 0.75675,2.425021 1.84375,2.96875 0.01437,0.0072 0.04802,-0.007 0.0625,0 1.678216,-0.847515 2.812499,-2.599596 2.8125,-4.59375 0,-0.508487 -0.07948,-1.004923 -0.21875,-1.46875 -0.0036,-0.0121 -0.02753,-0.01919 -0.03125,-0.03125 -0.355161,-0.130123 -0.756181,-0.1875 -1.15625,-0.1875 -0.142882,0 -0.268118,-0.01758 -0.40625,0 z"
         style="opacity:0.39678901;fill:url(#radialGradient4519);fill-opacity:1;fill-rule:nonzero;stroke:url(#radialGradient4521);stroke-width:1.37199998;stroke-linecap:round;stroke-linejoin:round;stroke-miterlimit:4;stroke-opacity:1;stroke-dasharray:none" />
      <path
         transform="matrix(1.071429,0,0,1.071429,-8.753795,3.039429)"
         inkscape:r_cy="true"
         inkscape:r_cx="true"
         d="m 26.836864,34.788834 c 0,1.707837 -1.384476,3.092313 -3.092313,3.092313 -1.707838,0 -3.092314,-1.384476 -3.092314,-3.092313 0,-1.707838 1.384476,-3.092314 3.092314,-3.092314 1.707837,0 3.092313,1.384476 3.092313,3.092314 z"
         sodipodi:ry="3.0923135"
         sodipodi:rx="3.0923135"
         sodipodi:cy="34.788834"
         sodipodi:cx="23.744551"
         id="path22328"
         style="opacity:0.95412843;fill:url(#linearGradient4523);fill-opacity:1;fill-rule:nonzero;stroke:none"
         sodipodi:type="arc" />
    </g>
    <path
       inkscape:connector-curvature="0"
       sodipodi:nodetypes="cscccsc"
       inkscape:r_cy="true"
       inkscape:r_cx="true"
       id="path44361"
       d="M 114.63164,72.497303 C 126.00001,72.4266 127.8,82.908781 127.8,92.721593 c 0,9.781867 -1.94422,19.468837 -13.09246,19.808617 0.004,-0.0611 0,-0.12663 0,-0.18901 l 0,-39.01224 c 0,-0.291109 -0.0574,-0.573873 -0.15181,-0.831657 0.0291,0.0088 0.047,-0.0091 0.0759,0 z"
       style="fill:#000000;fill-opacity:1;fill-rule:nonzero;stroke:none" />
    <path
       inkscape:connector-curvature="0"
       inkscape:r_cy="true"
       inkscape:r_cx="true"
       sodipodi:nodetypes="cscsccccscs"
       id="path44363"
       d="m 110.50338,66.531085 c -0.42232,-0.331872 -1.37069,-1.14491 -2.92124,-1.19701 -0.39126,-0.01314 -0.69859,0.529778 -0.69859,0.919796 0,0 1.02188,13.753557 1.02188,26.696903 0,12.943346 -0.47211,24.903446 -0.47211,24.903446 0,0.39001 -0.0206,1.43212 1.39689,1.52642 l 0.60021,-0.0103 c 1.03534,-0.0427 2.55227,-1.46824 2.55227,-1.85826 0,0 0.21459,-11.53259 0.21459,-24.47593 0,-12.943348 -0.81545,-25.330939 -0.81545,-25.330939 0,-0.390017 -0.58562,-0.944144 -0.87845,-1.174253 z"
       style="fill:#555753;fill-opacity:1;fill-rule:nonzero;stroke:none" />
    <path
       inkscape:connector-curvature="0"
       style="fill:#000000;fill-opacity:1;fill-rule:nonzero;stroke:none"
       d="m 104.55699,65.436717 -0.50365,0 c -1.96965,0 -4.227139,1.402228 -4.348539,6.689349 0,0 0.242789,9.880528 0.242789,19.761055 0,9.880529 -0.242789,19.761059 -0.242789,19.761059 0.0607,5.10574 2.898399,7.51799 5.677759,7.61312 l 0.64811,0.0168 c 1.19408,-0.0516 1.39857,-0.89191 1.39857,-1.28194 0,0 0.84975,-12.81273 0.72835,-25.62548 -0.12139,-12.812744 -1.21391,-25.625487 -1.21391,-25.625487 0,-0.934139 -1.34794,-1.360153 -2.38669,-1.308581 z"
       id="path44365"
       sodipodi:nodetypes="cccsccccscc"
       inkscape:r_cx="true"
       inkscape:r_cy="true" />
    <path
       inkscape:connector-curvature="0"
       sodipodi:nodetypes="cccscsccc"
       id="path37315"
       d="m 15.488095,66.585757 0.263473,0.01467 c 0.622661,-0.0036 0.630717,0.53444 0.630717,1.71041 0,0 -0.340185,5.683044 -0.533922,17.857311 -0.193736,12.174264 -0.09458,30.548023 -0.09458,30.548023 0,0.60377 -0.327158,1.07122 -0.703002,1.08123 -1.855728,0.0488 -4.833972,-3.39201 -4.81251,-6.98829 l 0.01777,-38.205751 c 0,-0.390014 2.614942,-6.060356 5.232055,-6.017603 z"
       style="opacity:0.66284407;fill:url(#linearGradient3234);fill-opacity:1;fill-rule:nonzero;stroke:none"
       inkscape:r_cx="true"
       inkscape:r_cy="true" />
    <path
       inkscape:connector-curvature="0"
       inkscape:r_cy="true"
       inkscape:r_cx="true"
       style="opacity:0.66284407;fill:url(#radialGradient3231);fill-opacity:1;fill-rule:nonzero;stroke:none"
       d="m 15.488095,66.585757 0.263473,0.01467 c 0.622661,-0.0036 0.630717,0.53444 0.630717,1.71041 0,0 -0.340185,5.683044 -0.533922,17.857311 -0.193736,12.174264 -0.09458,30.548023 -0.09458,30.548023 0,0.60377 -0.327158,1.07122 -0.703002,1.08123 -1.855728,0.0488 -4.833972,-3.39201 -4.81251,-6.98829 l 0.01777,-38.205751 c 0,-0.390014 2.614942,-6.060356 5.232055,-6.017603 z"
       id="path39944"
       sodipodi:nodetypes="cccscsccc" />
    <g
       id="g44354"
       transform="matrix(1.0857544,0,0,1.0814959,-5.4287722,11.112462)"
       inkscape:r_cx="true"
       inkscape:r_cy="true">
      <path
         transform="translate(-6.624738,9.564268)"
         inkscape:r_cy="true"
         inkscape:r_cx="true"
         d="m 19.835548,63.885883 c 0,1.595789 -1.293642,2.889431 -2.889431,2.889431 -1.595788,0 -2.88943,-1.293642 -2.88943,-2.889431 0,-1.595788 1.293642,-2.88943 2.88943,-2.88943 1.595789,0 2.889431,1.293642 2.889431,2.88943 z"
         sodipodi:ry="2.8894303"
         sodipodi:rx="2.8894303"
         sodipodi:cy="63.885883"
         sodipodi:cx="16.946117"
         id="path8174"
         style="fill:#babdb6;fill-opacity:1;fill-rule:nonzero;stroke:none"
         sodipodi:type="arc" />
      <path
         inkscape:connector-curvature="0"
         style="fill:none;stroke:#000000;stroke-width:0.472;stroke-linecap:round;stroke-linejoin:round;stroke-miterlimit:4;stroke-opacity:0.70772944;stroke-dasharray:none"
         d="m 16.396488,42.000005 c -0.438461,7.92e-4 -0.743512,0.105763 -1.054688,0.546875 -0.05535,0.07846 -0.08532,0.182284 -0.09375,0.28125 0,0 7.9e-5,1.678661 0,1.78125 -0.139663,0.109293 -6.1874999,4.75 -6.1874999,4.75 -0.546424,0.439661 -1.430863,1.022319 -1.625,1.71875 -0.177485,0.636697 -0.074518,1.123098 -0.03125,1.84375 l 1.1875,19.875 c 0.00103,0.01716 -0.00134,0.04547 0,0.0625 -0.00179,0.0054 0.00174,0.02584 0,0.03125 -0.039105,0.121813 -0.051365,0.242103 -0.0625,0.375 -0.079179,0.945046 0.617454,1.76457 1.5624999,1.84375 0.945046,0.07918 1.76457,-0.617457 1.84375,-1.5625 0.03959,-0.472523 -0.122334,-0.914158 -0.40625,-1.25 -0.0089,-0.0105 0.0091,-0.02097 0,-0.03125 L 10.37305,52.73438 c -0.07795,-0.648 0.04286,-0.886309 0.5625,-1.21875 0,-1e-6 4.62026,-3.514978 6.34375,-4.8125 0.07324,-0.05514 0.273069,-0.17073 0.28125,-0.46875 0.0041,-0.145964 6.18e-4,-3.391978 0,-3.40625 -4.91e-4,-0.0056 -0.003,-0.158597 -0.109375,-0.300781 -0.329969,-0.44098 -0.616227,-0.528136 -1.054687,-0.527344 z"
         id="path43468"
         sodipodi:nodetypes="cscccsccsssssscccssssz"
         inkscape:r_cx="true"
         inkscape:r_cy="true" />
      <path
         inkscape:connector-curvature="0"
         inkscape:r_cy="true"
         inkscape:r_cx="true"
         sodipodi:nodetypes="cscccsccsssssscccssssz"
         id="path8178"
         d="m 16.396488,42.000005 c -0.438461,7.92e-4 -0.743512,0.105763 -1.054688,0.546875 -0.05535,0.07846 -0.08532,0.182284 -0.09375,0.28125 0,0 7.9e-5,1.678661 0,1.78125 -0.139663,0.109293 -6.1874999,4.75 -6.1874999,4.75 -0.546424,0.439661 -1.430863,1.022319 -1.625,1.71875 -0.177485,0.636697 -0.074518,1.123098 -0.03125,1.84375 l 1.1875,19.875 c 0.00103,0.01716 -0.00134,0.04547 0,0.0625 -0.00179,0.0054 0.00174,0.02584 0,0.03125 -0.039105,0.121813 -0.051365,0.242103 -0.0625,0.375 -0.079179,0.945046 0.617454,1.76457 1.5624999,1.84375 0.945046,0.07918 1.76457,-0.617457 1.84375,-1.5625 0.03959,-0.472523 -0.122334,-0.914158 -0.40625,-1.25 -0.0089,-0.0105 0.0091,-0.02097 0,-0.03125 L 10.37305,52.73438 c -0.07795,-0.648 0.04286,-0.886309 0.5625,-1.21875 0,-1e-6 4.62026,-3.514978 6.34375,-4.8125 0.07324,-0.05514 0.273069,-0.17073 0.28125,-0.46875 0.0041,-0.145964 6.18e-4,-3.391978 0,-3.40625 -4.91e-4,-0.0056 -0.003,-0.158597 -0.109375,-0.300781 -0.329969,-0.44098 -0.616227,-0.528136 -1.054687,-0.527344 z"
         style="fill:#555555;fill-opacity:1;fill-rule:nonzero;stroke:none" />
      <path
         inkscape:connector-curvature="0"
         style="fill:url(#radialGradient4529);fill-opacity:1;fill-rule:nonzero;stroke:none"
         d="m 16.396488,42.000005 c -0.438461,7.92e-4 -0.743512,0.105763 -1.054688,0.546875 -0.05535,0.07846 -0.08532,0.182284 -0.09375,0.28125 0,0 7.9e-5,1.678661 0,1.78125 -0.139663,0.109293 -6.1874999,4.75 -6.1874999,4.75 -0.546424,0.439661 -1.430863,1.022319 -1.625,1.71875 -0.177485,0.636697 -0.074518,1.123098 -0.03125,1.84375 l 1.1875,19.875 c 0.00103,0.01716 -0.00134,0.04547 0,0.0625 -0.00179,0.0054 0.00174,0.02584 0,0.03125 -0.039105,0.121813 -0.051365,0.242103 -0.0625,0.375 -0.079179,0.945046 0.617454,1.76457 1.5624999,1.84375 0.945046,0.07918 1.76457,-0.617457 1.84375,-1.5625 0.03959,-0.472523 -0.122334,-0.914158 -0.40625,-1.25 -0.0089,-0.0105 0.0091,-0.02097 0,-0.03125 L 10.37305,52.73438 c -0.07795,-0.648 0.04286,-0.886309 0.5625,-1.21875 0,-1e-6 4.62026,-3.514978 6.34375,-4.8125 0.07324,-0.05514 0.273069,-0.17073 0.28125,-0.46875 0.0041,-0.145964 6.18e-4,-3.391978 0,-3.40625 -4.91e-4,-0.0056 -0.003,-0.158597 -0.109375,-0.300781 -0.329969,-0.44098 -0.616227,-0.528136 -1.054687,-0.527344 z"
         id="path40827"
         sodipodi:nodetypes="cscccsccsssssscccssssz"
         inkscape:r_cx="true"
         inkscape:r_cy="true" />
      <path
         inkscape:connector-curvature="0"
         inkscape:r_cy="true"
         inkscape:r_cx="true"
         sodipodi:nodetypes="cscccsccsssssscccssssz"
         id="path41710"
         d="m 16.396488,42.000005 c -0.438461,7.92e-4 -0.743512,0.105763 -1.054688,0.546875 -0.05535,0.07846 -0.08532,0.182284 -0.09375,0.28125 0,0 7.9e-5,1.678661 0,1.78125 -0.139663,0.109293 -6.1874999,4.75 -6.1874999,4.75 -0.546424,0.439661 -1.430863,1.022319 -1.625,1.71875 -0.177485,0.636697 -0.074518,1.123098 -0.03125,1.84375 l 1.1875,19.875 c 0.00103,0.01716 -0.00134,0.04547 0,0.0625 -0.00179,0.0054 0.00174,0.02584 0,0.03125 -0.039105,0.121813 -0.051365,0.242103 -0.0625,0.375 -0.079179,0.945046 0.617454,1.76457 1.5624999,1.84375 0.945046,0.07918 1.76457,-0.617457 1.84375,-1.5625 0.03959,-0.472523 -0.122334,-0.914158 -0.40625,-1.25 -0.0089,-0.0105 0.0091,-0.02097 0,-0.03125 L 10.37305,52.73438 c -0.07795,-0.648 0.04286,-0.886309 0.5625,-1.21875 0,-1e-6 4.62026,-3.514978 6.34375,-4.8125 0.07324,-0.05514 0.273069,-0.17073 0.28125,-0.46875 0.0041,-0.145964 6.18e-4,-3.391978 0,-3.40625 -4.91e-4,-0.0056 -0.003,-0.158597 -0.109375,-0.300781 -0.329969,-0.44098 -0.616227,-0.528136 -1.054687,-0.527344 z"
         style="fill:url(#radialGradient4531);fill-opacity:1;fill-rule:nonzero;stroke:none;filter:url(#filter4041)" />
    </g>
    <path
       inkscape:connector-curvature="0"
       style="fill:url(#radialGradient3222);fill-opacity:1;fill-rule:nonzero;stroke:none"
       d="m 4.1354318,65.202824 c -0.6992786,0.0071 -1.3523983,0.677873 -1.5631834,1.43106 -0.1927048,0.688585 0.054811,0.741473 0.1017878,1.520854 L 3.9633696,89.64947 c 0.00108,0.01856 -0.00143,0.04917 0,0.06759 -0.00198,0.0059 0.00187,0.02795 0,0.0338 -0.04246,0.13174 -0.05578,0.261834 -0.067855,0.405562 -0.085968,1.022062 0.6704036,1.908375 1.6964922,1.994007 1.0260871,0.08564 1.9158899,-0.667777 2.0018587,-1.689837 0.042985,-0.511032 -0.1328243,-0.988658 -0.4410865,-1.35187 -0.0097,-0.01135 0.00991,-0.02267 0,-0.0338 0,0 -1.1716542,-15.901526 -1.3952393,-22.24406 C 5.7242014,65.885192 4.9641873,65.19439 4.1354318,65.202819 z"
       id="path45344"
       sodipodi:nodetypes="csccsssssscss"
       inkscape:r_cx="true"
       inkscape:r_cy="true" />
    <path
       inkscape:connector-curvature="0"
       style="opacity:0.8;fill:url(#radialGradient3219);fill-opacity:1;fill-rule:nonzero;stroke:none"
       d="m 114.76226,72.874354 c 0.0945,0.257784 0.1357,0.553808 0.13571,0.844919 l 0,34.269897 c 5.31322,-3.9283 9.02533,-13.270644 9.02533,-24.130873 0,-2.81353 -0.24829,-5.504045 -0.71251,-8.043625 -1.94432,-1.852717 -4.65043,-2.963518 -8.38067,-2.940318 -0.003,-3.94e-4 -0.0309,-1.31e-4 -0.0341,0 -0.003,5.58e-4 -0.031,-4.56e-4 -0.034,0 z"
       id="path57748"
       inkscape:r_cx="true"
       inkscape:r_cy="true" />
    <path
       inkscape:connector-curvature="0"
       sodipodi:nodetypes="cccscsccc"
       id="path44367"
       d="m 112.208,66.666062 -0.2635,0.01467 c -0.62265,-0.0036 -0.63071,0.534442 -0.63071,1.710411 0,0 0.34019,5.683045 0.53393,17.857311 0.19373,12.174264 0.0946,30.548006 0.0946,30.548006 0,0.60377 0.32716,1.07122 0.703,1.08123 1.85573,0.0488 4.83396,-3.39199 4.81251,-6.98828 l -0.0179,-38.205744 c 0,-0.390013 -2.61493,-6.060357 -5.23205,-6.017604 z"
       style="fill:#b5b5b5;fill-opacity:1;fill-rule:nonzero;stroke:#000000;stroke-width:0.51147008;stroke-linecap:round;stroke-linejoin:round;stroke-miterlimit:4;stroke-opacity:0.48309183;stroke-dasharray:none"
       inkscape:r_cx="true"
       inkscape:r_cy="true" />
    <path
       inkscape:connector-curvature="0"
       inkscape:r_cy="true"
       inkscape:r_cx="true"
       sodipodi:nodetypes="cssssssscsssssscscsssssssssssssccssssc"
       id="path44371"
       d="m 101.47045,33.854774 c 0.007,0.0019 0.026,0.03175 0.034,0.0338 0.0158,0.0044 0.0525,-0.0052 0.0678,0 0.0151,0.0055 0.0534,0.02752 0.0678,0.0338 0.0143,0.0066 0.0541,0.02643 0.0678,0.0338 0.006,0.0038 0.0273,0.02973 0.034,0.0338 0.0129,0.0085 0.0556,0.0246 0.0678,0.0338 0.006,0.0047 0.0281,0.02883 0.034,0.0338 0.0226,0.02057 0.0483,0.04411 0.0678,0.06759 0,0 3.51794,3.335633 6.51452,7.16491 2.99659,3.829278 5.68322,8.467648 5.75959,8.449188 0.1343,-0.03247 0.47395,-0.06759 0.78887,-0.06759 2.87929,0 5.2252,2.266615 5.2252,5.035716 0,2.7691 -2.34591,5.001919 -5.2252,5.001919 -2.87928,0 -5.19126,-2.23282 -5.19126,-5.001919 0,-1.427819 0.5981,-2.736217 1.59471,-3.650049 -0.24705,-0.471835 -2.31411,-4.352287 -5.12341,-7.942235 -2.99659,-3.829279 -6.853839,-7.333896 -6.853839,-7.333895 -0.0052,-0.0061 0.0041,-0.02764 0,-0.0338 -0.0041,-0.0063 -0.02994,-0.02743 -0.03396,-0.0338 -0.01497,-0.02582 -0.02281,-0.07419 -0.03396,-0.101393 -0.0021,-0.0069 -0.03159,-0.02684 -0.03396,-0.0338 -0.0041,-0.01405 0.0031,-0.05329 0,-0.06759 -0.0072,-0.03607 -0.03293,-0.09788 -0.03396,-0.135188 4.1e-5,-0.01501 -9.39e-4,-0.05246 0,-0.06759 10e-4,-0.0152 0.03169,-0.05231 0.03396,-0.06759 0.0031,-0.01533 -0.0041,-0.05222 0,-0.0676 0.0041,-0.01539 0.02911,-0.05219 0.03396,-0.0676 0.02374,-0.06926 0.06132,-0.168988 0.101786,-0.236576 0.01879,-0.02989 0.04594,-0.07225 0.06782,-0.101394 0.06813,-0.08673 0.176607,-0.194954 0.271446,-0.270374 0.03231,-0.02473 0.06669,-0.04462 0.101785,-0.06759 l 0.475012,-0.337968 c 0.0791,-0.05168 0.18856,-0.09863 0.27144,-0.135187 0.18473,-0.07751 0.39805,-0.09802 0.5768,-0.101393 0.0355,6.6e-5 0.10127,-0.003 0.13573,0 0.0256,0.0029 0.077,-0.0044 0.10168,0 0.009,0.0017 0.0259,-0.0019 0.034,0 z"
       style="opacity:0.49311924;fill:none;stroke:#000000;stroke-width:1.05328166;stroke-linecap:round;stroke-linejoin:round;stroke-miterlimit:4;stroke-opacity:1;stroke-dasharray:none" />
    <path
       inkscape:connector-curvature="0"
       inkscape:r_cy="true"
       inkscape:r_cx="true"
       sodipodi:nodetypes="cssssssscsssssscscsssssssssssssccssssc"
       id="path44373"
       d="m 101.47045,33.854774 c 0.007,0.0019 0.026,0.03175 0.034,0.0338 0.0158,0.0044 0.0525,-0.0052 0.0678,0 0.0151,0.0055 0.0534,0.02752 0.0678,0.0338 0.0143,0.0066 0.0541,0.02643 0.0678,0.0338 0.006,0.0038 0.0273,0.02973 0.034,0.0338 0.0129,0.0085 0.0556,0.0246 0.0678,0.0338 0.006,0.0047 0.0281,0.02883 0.034,0.0338 0.0226,0.02057 0.0483,0.04411 0.0678,0.06759 0,0 3.51794,3.335633 6.51452,7.16491 2.99659,3.829278 5.68322,8.467648 5.75959,8.449188 0.1343,-0.03247 0.47395,-0.06759 0.78887,-0.06759 2.87929,0 5.2252,2.266615 5.2252,5.035716 0,2.7691 -2.34591,5.001919 -5.2252,5.001919 -2.87928,0 -5.19126,-2.23282 -5.19126,-5.001919 0,-1.427819 0.5981,-2.736217 1.59471,-3.650049 -0.24705,-0.471835 -2.31411,-4.352287 -5.12341,-7.942235 -2.99659,-3.829279 -6.853839,-7.333896 -6.853839,-7.333895 -0.0052,-0.0061 0.0041,-0.02764 0,-0.0338 -0.0041,-0.0063 -0.02994,-0.02743 -0.03396,-0.0338 -0.01497,-0.02582 -0.02281,-0.07419 -0.03396,-0.101393 -0.0021,-0.0069 -0.03159,-0.02684 -0.03396,-0.0338 -0.0041,-0.01405 0.0031,-0.05329 0,-0.06759 -0.0072,-0.03607 -0.03293,-0.09788 -0.03396,-0.135188 4.1e-5,-0.01501 -9.39e-4,-0.05246 0,-0.06759 0.001,-0.0152 0.03169,-0.05231 0.03396,-0.06759 0.0031,-0.01533 -0.0041,-0.05222 0,-0.0676 0.0041,-0.01539 0.02911,-0.05219 0.03396,-0.0676 0.02374,-0.06926 0.06132,-0.168988 0.101786,-0.236576 0.01879,-0.02989 0.04594,-0.07225 0.06782,-0.101394 0.06813,-0.08673 0.176607,-0.194954 0.271446,-0.270374 0.03231,-0.02473 0.06669,-0.04462 0.101785,-0.06759 l 0.475015,-0.337968 c 0.0791,-0.05168 0.18856,-0.09863 0.27144,-0.135187 0.18473,-0.07751 0.39805,-0.09802 0.5768,-0.101393 0.0355,6.6e-5 0.10127,-0.003 0.13573,0 0.0256,0.0029 0.077,-0.0044 0.10168,0 0.009,0.0017 0.0259,-0.0019 0.0339,0 z"
       style="fill:#babdb6;fill-opacity:1;fill-rule:nonzero;stroke:none" />
    <path
       inkscape:connector-curvature="0"
       inkscape:r_cy="true"
       inkscape:r_cx="true"
       sodipodi:nodetypes="cssssssscsssssscscsssssssssssssccssssc"
       id="path44375"
       d="m 101.27853,33.854774 c 0.007,0.0019 0.0259,0.03175 0.034,0.0338 0.0157,0.0044 0.0525,-0.0052 0.0678,0 0.0151,0.0055 0.0534,0.02752 0.0679,0.0338 0.0144,0.0066 0.0541,0.02643 0.0678,0.0338 0.006,0.0038 0.0274,0.02973 0.034,0.0338 0.0129,0.0085 0.0556,0.0246 0.0678,0.0338 0.006,0.0047 0.0281,0.02883 0.034,0.0338 0.0226,0.02057 0.0481,0.04411 0.0678,0.06759 0,0 3.51794,3.335633 6.51453,7.16491 2.99659,3.829278 5.68323,8.467648 5.75959,8.449188 0.13429,-0.03247 0.47394,-0.06759 0.78886,-0.06759 2.8793,0 5.22519,2.266615 5.22519,5.035716 0,2.7691 -2.34589,5.001919 -5.22519,5.001919 -2.87929,0 -5.19125,-2.23282 -5.19125,-5.001919 0,-1.427819 0.59811,-2.736217 1.5947,-3.650049 -0.24703,-0.471835 -2.31411,-4.352287 -5.12341,-7.942235 -2.99659,-3.829279 -6.853833,-7.333896 -6.853833,-7.333895 -0.0052,-0.0061 0.0041,-0.02764 0,-0.0338 -0.0041,-0.0063 -0.02994,-0.02743 -0.03396,-0.0338 -0.01497,-0.02582 -0.02281,-0.07419 -0.03396,-0.101393 -0.0021,-0.0069 -0.03159,-0.02684 -0.03396,-0.0338 -0.0041,-0.01405 0.0031,-0.05329 0,-0.06759 -0.0067,-0.03607 -0.0329,-0.09788 -0.03393,-0.135188 3.9e-5,-0.01501 -9.36e-4,-0.05246 0,-0.06759 0.0014,-0.0152 0.03166,-0.05231 0.03393,-0.06759 0.0031,-0.01533 -0.0041,-0.05222 0,-0.0676 0.0041,-0.01539 0.02911,-0.05219 0.03396,-0.0676 0.02374,-0.06926 0.06132,-0.168988 0.101786,-0.236576 0.01879,-0.02989 0.04594,-0.07225 0.06782,-0.101394 0.06803,-0.08673 0.176607,-0.194954 0.271446,-0.270374 0.03231,-0.02473 0.06669,-0.04462 0.101786,-0.06759 l 0.475028,-0.337968 c 0.0791,-0.05168 0.18855,-0.09863 0.27144,-0.135187 0.18472,-0.07751 0.39804,-0.09802 0.5768,-0.101393 0.0355,6.6e-5 0.10127,-0.003 0.13572,0 0.0256,0.0029 0.077,-0.0044 0.10178,0 0.008,0.0017 0.0258,-0.0019 0.034,0 z"
       style="fill:url(#linearGradient3213);fill-opacity:1;fill-rule:nonzero;stroke:none" />
    <path
       inkscape:connector-curvature="0"
       inkscape:r_cy="true"
       inkscape:r_cx="true"
       style="opacity:0.66972477;fill:url(#radialGradient3210);fill-opacity:1;fill-rule:nonzero;stroke:none"
       d="m 101.47045,33.854774 c 0.007,0.0019 0.026,0.03175 0.034,0.0338 0.0158,0.0044 0.0525,-0.0052 0.0678,0 0.0151,0.0055 0.0534,0.02752 0.0678,0.0338 0.0143,0.0066 0.0541,0.02643 0.0678,0.0338 0.006,0.0038 0.0273,0.02973 0.034,0.0338 0.0129,0.0085 0.0556,0.0246 0.0678,0.0338 0.006,0.0047 0.0281,0.02883 0.034,0.0338 0.0226,0.02057 0.0483,0.04411 0.0678,0.06759 0,0 3.51794,3.335633 6.51452,7.16491 2.99659,3.829278 5.68322,8.467648 5.75959,8.449188 0.1343,-0.03247 0.47395,-0.06759 0.78887,-0.06759 2.87929,0 5.2252,2.266615 5.2252,5.035716 0,2.7691 -2.34591,5.001919 -5.2252,5.001919 -2.87928,0 -5.19126,-2.23282 -5.19126,-5.001919 0,-1.427819 0.5981,-2.736217 1.59471,-3.650049 -0.24705,-0.471835 -2.31411,-4.352287 -5.12341,-7.942235 -2.99659,-3.829279 -6.853839,-7.333896 -6.853839,-7.333895 -0.0052,-0.0061 0.0041,-0.02764 0,-0.0338 -0.0041,-0.0063 -0.02994,-0.02743 -0.03396,-0.0338 -0.01497,-0.02582 -0.02281,-0.07419 -0.03396,-0.101393 -0.0021,-0.0069 -0.03159,-0.02684 -0.03396,-0.0338 -0.0041,-0.01405 0.0031,-0.05329 0,-0.06759 -0.0072,-0.03607 -0.03293,-0.09788 -0.03396,-0.135188 4.1e-5,-0.01501 -9.39e-4,-0.05246 0,-0.06759 0.001,-0.0152 0.03169,-0.05231 0.03396,-0.06759 0.0031,-0.01533 -0.0041,-0.05222 0,-0.0676 0.0041,-0.01539 0.02911,-0.05219 0.03396,-0.0676 0.02374,-0.06926 0.06132,-0.168988 0.101786,-0.236576 0.01879,-0.02989 0.04594,-0.07225 0.06782,-0.101394 0.06813,-0.08673 0.176607,-0.194954 0.271446,-0.270374 0.03231,-0.02473 0.06669,-0.04462 0.101785,-0.06759 l 0.475015,-0.337968 c 0.0791,-0.05168 0.18856,-0.09863 0.27144,-0.135187 0.18473,-0.07751 0.39805,-0.09802 0.5768,-0.101393 0.0355,6.6e-5 0.10127,-0.003 0.13573,0 0.0256,0.0029 0.077,-0.0044 0.10168,0 0.009,0.0017 0.0259,-0.0019 0.0339,0 z"
       id="path44377"
       sodipodi:nodetypes="cssssssscsssssscscsssssssssssssccssssc" />
    <path
       transform="matrix(-1.6716166,0,0,1.6650604,139.05134,-10.280556)"
       inkscape:r_cy="true"
       inkscape:r_cx="true"
       d="m 17.324116,39.037128 a 2.8726213,2.8726213 0 1 1 -5.745242,0 2.8726213,2.8726213 0 1 1 5.745242,0 z"
       sodipodi:ry="2.8726213"
       sodipodi:rx="2.8726213"
       sodipodi:cy="39.037128"
       sodipodi:cx="14.451495"
       id="path44379"
       style="opacity:0.66972477;fill:url(#radialGradient4541);fill-opacity:1;fill-rule:nonzero;stroke:none"
       sodipodi:type="arc" />
    <path
       transform="matrix(-1.1633088,0,0,1.1587461,142.73324,14.599473)"
       inkscape:r_cy="true"
       inkscape:r_cx="true"
       d="m 26.836864,34.788834 a 3.0923135,3.0923135 0 1 1 -6.184627,0 3.0923135,3.0923135 0 1 1 6.184627,0 z"
       sodipodi:ry="3.0923135"
       sodipodi:rx="3.0923135"
       sodipodi:cy="34.788834"
       sodipodi:cx="23.744551"
       id="path44381"
       style="opacity:0.67431192;fill:#2e3436;fill-opacity:1;fill-rule:nonzero;stroke:#000000;stroke-width:0.43866649;stroke-linecap:round;stroke-linejoin:round;stroke-miterlimit:4;stroke-opacity:1;stroke-dasharray:none"
       sodipodi:type="arc" />
    <path
       sodipodi:type="arc"
       style="opacity:0.39678901;fill:url(#radialGradient4543);fill-opacity:1;fill-rule:nonzero;stroke:none"
       id="path44383"
       sodipodi:cx="23.744551"
       sodipodi:cy="34.788834"
       sodipodi:rx="3.0923135"
       sodipodi:ry="3.0923135"
       d="m 26.836864,34.788834 a 3.0923135,3.0923135 0 1 1 -6.184627,0 3.0923135,3.0923135 0 1 1 6.184627,0 z"
       inkscape:r_cx="true"
       inkscape:r_cy="true"
       transform="matrix(-1.1633088,0,0,1.1587461,142.73324,14.599473)" />
    <path
       inkscape:connector-curvature="0"
       inkscape:r_cy="true"
       inkscape:r_cx="true"
       id="path44385"
       d="m 112.22991,57.155796 c -1.10864,-1.392211 -1.02327,-3.454618 0.25586,-4.759002 0.98428,-1.003713 2.42758,-1.30425 3.68438,-0.903457 0.0166,0.0053 0.0321,0.0417 0.0485,0.04723 0.66048,1.923924 0.21221,4.136612 -1.30072,5.6794 -0.38579,0.393394 -0.82415,0.717401 -1.28423,0.970995 -0.0119,0.0066 -0.0359,-0.006 -0.048,5.63e-4 -0.37458,-0.167728 -0.72958,-0.42639 -1.04032,-0.728726 -0.11098,-0.10798 -0.22158,-0.189021 -0.31553,-0.307005 z"
       style="opacity:0.39678901;fill:url(#radialGradient3202);fill-opacity:1;fill-rule:nonzero;stroke:url(#radialGradient3204);stroke-width:1.48673081;stroke-linecap:round;stroke-linejoin:round;stroke-miterlimit:4;stroke-opacity:1;stroke-dasharray:none" />
    <path
       transform="matrix(-1.1633088,0,0,1.1587461,142.40437,14.69747)"
       inkscape:r_cy="true"
       inkscape:r_cx="true"
       d="m 26.836864,34.788834 a 3.0923135,3.0923135 0 1 1 -6.184627,0 3.0923135,3.0923135 0 1 1 6.184627,0 z"
       sodipodi:ry="3.0923135"
       sodipodi:rx="3.0923135"
       sodipodi:cy="34.788834"
       sodipodi:cx="23.744551"
       id="path44387"
       style="opacity:0.95412843;fill:url(#linearGradient4549);fill-opacity:1;fill-rule:nonzero;stroke:none"
       sodipodi:type="arc" />
    <path
       inkscape:connector-curvature="0"
       style="fill:#030000;fill-opacity:1;fill-rule:nonzero;stroke:none"
       d="m 63.641582,11.830185 c -22.355093,0.500293 -37.382199,12.823508 -42.476351,23.691092 -1.007782,2.149943 -0.252639,4.047917 2.230784,6.607697 10.990515,-11.478121 21.46976,-17.677929 40.742112,-17.677929 19.272351,0 30.078855,6.5929 40.605943,17.942213 2.84873,-3.009645 2.83602,-4.254824 1.95055,-6.565555 -3.65828,-9.546716 -18.742256,-23.997519 -41.717217,-23.997518 -0.448729,0 -0.8905,-0.0099 -1.335821,0 z"
       id="path6407"
       sodipodi:nodetypes="cscscssc"
       inkscape:r_cx="true"
       inkscape:r_cy="true" />
    <path
       inkscape:connector-curvature="0"
       inkscape:r_cy="true"
       inkscape:r_cx="true"
       style="opacity:0.66284407;fill:url(#linearGradient3197);fill-opacity:1;fill-rule:nonzero;stroke:none"
       d="m 112.3119,66.594456 -0.26347,0.01466 c -0.62268,-0.0036 -0.63072,0.534441 -0.63072,1.71041 0,0 0.34018,5.683045 0.53392,17.857312 0.19373,12.174264 0.0946,30.548013 0.0946,30.548013 0,0.60377 0.32716,1.07123 0.703,1.08124 1.85573,0.0488 4.83398,-3.392 4.81251,-6.98828 l -0.0179,-38.205762 c 0,-0.390013 -2.61494,-6.060355 -5.23205,-6.017603 z"
       id="path44389"
       sodipodi:nodetypes="cccscsccc" />
    <path
       inkscape:connector-curvature="0"
       sodipodi:nodetypes="cccscsccc"
       id="path44391"
       d="m 112.26392,66.451067 -0.26347,0.01467 c -0.62268,-0.0036 -0.63072,0.534443 -0.63072,1.710412 0,0 0.34019,5.683045 0.53392,17.857311 0.19373,12.174265 0.0946,30.548011 0.0946,30.548011 0,0.60378 0.32716,1.07123 0.703,1.08124 1.85574,0.0488 4.83398,-3.392 4.81251,-6.98828 l -0.0179,-38.205758 c 0,-0.390014 -2.61494,-6.060357 -5.23206,-6.017605 z"
       style="opacity:0.66284407;fill:url(#radialGradient3194);fill-opacity:1;fill-rule:nonzero;stroke:none"
       inkscape:r_cx="true"
       inkscape:r_cy="true" />
    <g
       id="g44393"
       transform="matrix(-1.0857544,0,0,1.0814959,133.22876,11.312343)"
       inkscape:r_cx="true"
       inkscape:r_cy="true">
      <path
         sodipodi:type="arc"
         style="fill:#babdb6;fill-opacity:1;fill-rule:nonzero;stroke:none"
         id="path44395"
         sodipodi:cx="16.946117"
         sodipodi:cy="63.885883"
         sodipodi:rx="2.8894303"
         sodipodi:ry="2.8894303"
         d="m 19.835548,63.885883 c 0,1.595789 -1.293642,2.889431 -2.889431,2.889431 -1.595788,0 -2.88943,-1.293642 -2.88943,-2.889431 0,-1.595788 1.293642,-2.88943 2.88943,-2.88943 1.595789,0 2.889431,1.293642 2.889431,2.88943 z"
         inkscape:r_cx="true"
         inkscape:r_cy="true"
         transform="translate(-6.624738,9.564268)" />
      <path
         inkscape:connector-curvature="0"
         inkscape:r_cy="true"
         inkscape:r_cx="true"
         sodipodi:nodetypes="cscccsccsssssscccssssz"
         id="path44397"
         d="m 16.396488,42.000005 c -0.438461,7.92e-4 -0.743512,0.105763 -1.054688,0.546875 -0.05535,0.07846 -0.08532,0.182284 -0.09375,0.28125 0,0 7.9e-5,1.678661 0,1.78125 -0.139663,0.109293 -6.1874999,4.75 -6.1874999,4.75 -0.546424,0.439661 -1.430863,1.022319 -1.625,1.71875 -0.177485,0.636697 -0.074518,1.123098 -0.03125,1.84375 l 1.1875,19.875 c 0.00103,0.01716 -0.00134,0.04547 0,0.0625 -0.00179,0.0054 0.00174,0.02584 0,0.03125 -0.039105,0.121813 -0.051365,0.242103 -0.0625,0.375 -0.079179,0.945046 0.617454,1.76457 1.5624999,1.84375 0.945046,0.07918 1.76457,-0.617457 1.84375,-1.5625 0.03959,-0.472523 -0.122334,-0.914158 -0.40625,-1.25 -0.0089,-0.0105 0.0091,-0.02097 0,-0.03125 L 10.37305,52.73438 c -0.07795,-0.648 0.04286,-0.886309 0.5625,-1.21875 0,-1e-6 4.62026,-3.514978 6.34375,-4.8125 0.07324,-0.05514 0.273069,-0.17073 0.28125,-0.46875 0.0041,-0.145964 6.18e-4,-3.391978 0,-3.40625 -4.91e-4,-0.0056 -0.003,-0.158597 -0.109375,-0.300781 -0.329969,-0.44098 -0.616227,-0.528136 -1.054687,-0.527344 z"
         style="fill:none;stroke:#000000;stroke-width:0.472;stroke-linecap:round;stroke-linejoin:round;stroke-miterlimit:4;stroke-opacity:0.70772944;stroke-dasharray:none" />
      <path
         inkscape:connector-curvature="0"
         style="fill:#555555;fill-opacity:1;fill-rule:nonzero;stroke:none"
         d="m 16.396488,42.000005 c -0.438461,7.92e-4 -0.743512,0.105763 -1.054688,0.546875 -0.05535,0.07846 -0.08532,0.182284 -0.09375,0.28125 0,0 7.9e-5,1.678661 0,1.78125 -0.139663,0.109293 -6.1874999,4.75 -6.1874999,4.75 -0.546424,0.439661 -1.430863,1.022319 -1.625,1.71875 -0.177485,0.636697 -0.074518,1.123098 -0.03125,1.84375 l 1.1875,19.875 c 0.00103,0.01716 -0.00134,0.04547 0,0.0625 -0.00179,0.0054 0.00174,0.02584 0,0.03125 -0.039105,0.121813 -0.051365,0.242103 -0.0625,0.375 -0.079179,0.945046 0.617454,1.76457 1.5624999,1.84375 0.945046,0.07918 1.76457,-0.617457 1.84375,-1.5625 0.03959,-0.472523 -0.122334,-0.914158 -0.40625,-1.25 -0.0089,-0.0105 0.0091,-0.02097 0,-0.03125 L 10.37305,52.73438 c -0.07795,-0.648 0.04286,-0.886309 0.5625,-1.21875 0,-1e-6 4.62026,-3.514978 6.34375,-4.8125 0.07324,-0.05514 0.273069,-0.17073 0.28125,-0.46875 0.0041,-0.145964 6.18e-4,-3.391978 0,-3.40625 -4.91e-4,-0.0056 -0.003,-0.158597 -0.109375,-0.300781 -0.329969,-0.44098 -0.616227,-0.528136 -1.054687,-0.527344 z"
         id="path44399"
         sodipodi:nodetypes="cscccsccsssssscccssssz"
         inkscape:r_cx="true"
         inkscape:r_cy="true" />
      <path
         inkscape:connector-curvature="0"
         inkscape:r_cy="true"
         inkscape:r_cx="true"
         sodipodi:nodetypes="cscccsccsssssscccssssz"
         id="path44401"
         d="m 16.396488,42.000005 c -0.438461,7.92e-4 -0.743512,0.105763 -1.054688,0.546875 -0.05535,0.07846 -0.08532,0.182284 -0.09375,0.28125 0,0 7.9e-5,1.678661 0,1.78125 -0.139663,0.109293 -6.1874999,4.75 -6.1874999,4.75 -0.546424,0.439661 -1.430863,1.022319 -1.625,1.71875 -0.177485,0.636697 -0.074518,1.123098 -0.03125,1.84375 l 1.1875,19.875 c 0.00103,0.01716 -0.00134,0.04547 0,0.0625 -0.00179,0.0054 0.00174,0.02584 0,0.03125 -0.039105,0.121813 -0.051365,0.242103 -0.0625,0.375 -0.079179,0.945046 0.617454,1.76457 1.5624999,1.84375 0.945046,0.07918 1.76457,-0.617457 1.84375,-1.5625 0.03959,-0.472523 -0.122334,-0.914158 -0.40625,-1.25 -0.0089,-0.0105 0.0091,-0.02097 0,-0.03125 L 10.37305,52.73438 c -0.07795,-0.648 0.04286,-0.886309 0.5625,-1.21875 0,-1e-6 4.62026,-3.514978 6.34375,-4.8125 0.07324,-0.05514 0.273069,-0.17073 0.28125,-0.46875 0.0041,-0.145964 6.18e-4,-3.391978 0,-3.40625 -4.91e-4,-0.0056 -0.003,-0.158597 -0.109375,-0.300781 -0.329969,-0.44098 -0.616227,-0.528136 -1.054687,-0.527344 z"
         style="fill:url(#radialGradient4555);fill-opacity:1;fill-rule:nonzero;stroke:none" />
      <path
         inkscape:connector-curvature="0"
         style="fill:url(#radialGradient4557);fill-opacity:1;fill-rule:nonzero;stroke:none;filter:url(#filter4037)"
         d="m 16.396488,42.000005 c -0.438461,7.92e-4 -0.743512,0.105763 -1.054688,0.546875 -0.05535,0.07846 -0.08532,0.182284 -0.09375,0.28125 0,0 7.9e-5,1.678661 0,1.78125 -0.139663,0.109293 -6.1874999,4.75 -6.1874999,4.75 -0.546424,0.439661 -1.430863,1.022319 -1.625,1.71875 -0.177485,0.636697 -0.074518,1.123098 -0.03125,1.84375 l 1.1875,19.875 c 0.00103,0.01716 -0.00134,0.04547 0,0.0625 -0.00179,0.0054 0.00174,0.02584 0,0.03125 -0.039105,0.121813 -0.051365,0.242103 -0.0625,0.375 -0.079179,0.945046 0.617454,1.76457 1.5624999,1.84375 0.945046,0.07918 1.76457,-0.617457 1.84375,-1.5625 0.03959,-0.472523 -0.122334,-0.914158 -0.40625,-1.25 -0.0089,-0.0105 0.0091,-0.02097 0,-0.03125 L 10.37305,52.73438 c -0.07795,-0.648 0.04286,-0.886309 0.5625,-1.21875 0,-1e-6 4.62026,-3.514978 6.34375,-4.8125 0.07324,-0.05514 0.273069,-0.17073 0.28125,-0.46875 0.0041,-0.145964 6.18e-4,-3.391978 0,-3.40625 -4.91e-4,-0.0056 -0.003,-0.158597 -0.109375,-0.300781 -0.329969,-0.44098 -0.616227,-0.528136 -1.054687,-0.527344 z"
         id="path44403"
         sodipodi:nodetypes="cscccsccsssssscccssssz"
         inkscape:r_cx="true"
         inkscape:r_cy="true" />
    </g>
    <path
       inkscape:connector-curvature="0"
       inkscape:r_cy="true"
       inkscape:r_cx="true"
       sodipodi:nodetypes="cscssssscss"
       id="path47133"
       d="m 123.52021,65.270418 c 0.69815,-0.04014 1.40038,0.534485 1.61118,1.287672 0.1927,0.688586 0.28106,1.028248 0.23408,1.80763 0,0 -1.38442,21.434968 -1.40176,21.689312 -0.0144,0.210766 0.15707,0.399422 0.12989,0.790328 -0.071,1.023194 -0.99504,1.805689 -2.02462,1.791725 -1.14485,-0.01575 -1.81944,-0.917855 -1.9054,-1.939916 -0.0429,-0.511031 0.22507,-0.85088 0.40715,-1.216682 0.0769,-0.154371 0.0662,-0.326849 0.0761,-0.337967 0,0 1.02772,-15.901526 1.25129,-22.24406 0.0333,-0.94567 0.9373,-1.588677 1.6221,-1.628042 z"
       style="fill:url(#radialGradient3185);fill-opacity:1;fill-rule:nonzero;stroke:none" />
    <path
       inkscape:connector-curvature="0"
       style="opacity:0.66284407;fill:url(#radialGradient3182);fill-opacity:1;fill-rule:nonzero;stroke:none"
       d="m 15.33046,67.498028 c -2.470063,0.365655 -4.877111,5.459892 -4.953756,5.982024 -3.17e-4,0.0036 0,0.03075 0,0.0338 l 0,19.027569 c 1.233502,-4.591826 3.210319,-8.635151 5.734141,-11.795065 0.187294,-7.82118 0.407158,-11.524692 0.407158,-11.524691 0,-0.698231 -0.0031,-1.184658 -0.135718,-1.453261 -0.0074,-0.01357 -0.02584,-0.05516 -0.03393,-0.06758 -0.0042,-0.006 -0.02948,-0.02814 -0.03393,-0.0338 -0.0046,-0.0054 -0.02906,-0.02869 -0.03393,-0.0338 -0.01022,-0.0096 -0.02289,-0.02525 -0.03393,-0.0338 -0.0057,-0.0039 -0.02796,-0.03008 -0.03393,-0.0338 -0.03109,-0.01722 -0.09834,-0.02338 -0.13572,-0.0338 -0.01547,-0.0036 -0.05129,-0.03125 -0.06785,-0.0338 -0.03426,-0.0039 -0.09681,-2.29e-4 -0.135719,0 l -0.237509,0 c -0.10223,-0.0017 -0.2033,-0.0151 -0.305369,0 z"
       id="path48010"
       inkscape:r_cx="true"
       inkscape:r_cy="true" />
    <path
       inkscape:connector-curvature="0"
       style="opacity:0.66284407;fill:url(#radialGradient3179);fill-opacity:1;fill-rule:nonzero;stroke:none"
       d="m 111.92397,66.794921 c -0.0166,0.0027 -0.0523,0.03017 -0.0678,0.0338 -0.0374,0.01035 -0.10466,0.01658 -0.1357,0.0338 -0.006,0.0036 -0.0282,0.0298 -0.0341,0.0338 -0.005,0.0042 -0.0286,0.02926 -0.0341,0.0338 -0.004,0.0051 -0.0293,0.02843 -0.034,0.0338 -0.004,0.0056 -0.0296,0.02786 -0.0341,0.0338 -0.007,0.01244 -0.0265,0.05402 -0.034,0.06759 -0.13265,0.268602 -0.13572,0.755029 -0.13572,1.453261 0,-10e-7 0.34914,5.670416 0.54288,17.844682 0.13555,8.518677 0.1187,20.055624 0.10168,26.226274 1.85797,-7.42773 3.01975,-17.961432 3.01975,-29.639745 0,-5.343294 -0.23708,-10.464403 -0.6786,-15.140943 -0.66187,-0.617871 -1.38803,-1.025592 -2.10365,-1.013902 l -0.2375,0 c -0.0389,-2.3e-4 -0.10137,-0.0039 -0.13573,0 z"
       id="path48898"
       inkscape:r_cx="true"
       inkscape:r_cy="true" />
    <path
       inkscape:connector-curvature="0"
       style="fill:url(#radialGradient3176);fill-opacity:1;fill-rule:nonzero;stroke:none"
       d="m 12.14689,56.296035 c -0.386938,0.02882 -0.688338,0.190911 -0.983966,0.60834 -0.01068,0.01653 -0.0252,0.0495 -0.03393,0.0676 -0.0109,0.0247 -0.02633,0.07505 -0.03393,0.101394 -0.0018,0.0066 0.0015,0.0271 0,0.0338 -0.0027,0.01345 -0.03203,0.05411 -0.03393,0.06759 -7.55e-4,0.0067 5.72e-4,0.0271 0,0.0338 0,0 8.6e-5,1.815465 0,1.926414 -0.0405,0.03157 -0.581045,0.404618 -1.2893325,0.94631 0,0.0109 -2.79e-5,0.02295 0,0.0338 0.0032,1.277532 0.1781385,2.495219 0.5089465,3.548659 8.42e-4,0.0028 0.03309,-0.0028 0.03393,0 1.148547,-0.868192 2.254535,-1.741439 2.951895,-2.264382 0.03479,-0.02609 0.111178,-0.07303 0.16965,-0.135187 0.02069,-0.02342 0.04969,-0.07125 0.06785,-0.101394 0.01388,-0.02528 0.02351,-0.07109 0.03393,-0.101393 0.007,-0.02372 0.02972,-0.07454 0.03393,-0.101394 0.0021,-0.01863 -5.56e-4,-0.04743 0,-0.06758 0.0044,-0.15786 0.167206,-3.492032 0.07634,-3.633151 -0.08412,-0.130645 -0.211422,-0.294727 -0.339297,-0.40556 -0.231505,-0.200654 -0.516387,-0.558503 -0.992447,-0.557646 -0.05951,1.07e-4 -0.114372,-0.004 -0.169649,0 z"
       id="path48913"
       inkscape:r_cx="true"
       inkscape:r_cy="true"
       sodipodi:nodetypes="cssssscssssssssssssssc" />
    <path
       inkscape:connector-curvature="0"
       inkscape:r_cy="true"
       inkscape:r_cx="true"
       id="path49816"
       d="m 115.63436,56.737296 c 0.44196,0.02882 0.78623,0.190913 1.1239,0.608342 0.0121,0.01653 0.11412,0.256894 0.11627,0.270374 8.7e-4,0.0067 0.004,0.445913 -1.41546,3.029698 -0.0229,0.04158 -1.4518,0.708087 -1.45244,0.687944 -0.005,-0.15786 -7.7e-4,-3.66841 0,-3.683845 6.1e-4,-0.0082 0.11215,-0.333163 0.11627,-0.337968 0.40922,-0.476916 0.77391,-0.575401 1.31768,-0.574545 0.0679,1.07e-4 0.13064,-0.004 0.19378,0 z"
       style="fill:url(#radialGradient3173);fill-opacity:1;fill-rule:nonzero;stroke:none"
       sodipodi:nodetypes="csssssssc" />
    <path
       inkscape:connector-curvature="0"
       inkscape:r_cy="true"
       inkscape:r_cx="true"
       sodipodi:nodetypes="cscsccscs"
       id="path49820"
       d="m 17.500185,66.601575 c 0.422325,-0.331872 1.031393,-0.739348 2.581938,-0.791448 0.391283,-0.01314 -1.409873,6.809179 -0.595558,3.0084 0,0 -1.559926,10.786237 -1.559926,23.729584 l 0.375075,26.487279 c -1.035332,-0.0427 -2.212976,-1.53584 -2.212976,-1.92585 0,0 0.328283,-11.39739 0.328283,-24.340742 0,-12.943346 0.408297,-24.857783 0.408297,-24.857783 0,-0.390017 0.382039,-1.079331 0.674867,-1.30944 z"
       style="opacity:0.56880739;fill:url(#radialGradient3170);fill-opacity:1;fill-rule:nonzero;stroke:none" />
    <path
       inkscape:connector-curvature="0"
       style="fill:url(#radialGradient3167);fill-opacity:1;fill-rule:nonzero;stroke:none"
       d="m 110.6391,66.395898 c -0.42232,-0.331873 -1.37069,-1.14491 -2.92124,-1.197011 -0.39127,-0.01314 -0.69859,0.529779 -0.69859,0.919797 0,0 1.02188,13.753557 1.02188,26.696903 0,12.943343 -0.47211,24.903443 -0.47211,24.903443 0,0.39 -0.0206,1.43211 1.39688,1.52643 l 0.60023,-0.0103 c 1.03531,-0.0427 2.55226,-1.46823 2.55226,-1.85825 0,0 0.21459,-11.53259 0.21459,-24.475936 0,-12.943348 -0.81546,-25.330939 -0.81546,-25.330939 0,-0.390017 -0.58561,-0.944143 -0.87844,-1.174253 z"
       id="path52457"
       sodipodi:nodetypes="cscsccccscs"
       inkscape:r_cx="true"
       inkscape:r_cy="true" />
    <path
       inkscape:connector-curvature="0"
       inkscape:r_cy="true"
       inkscape:r_cx="true"
       sodipodi:nodetypes="cscsccccscs"
       id="path53340"
       d="m 110.6391,66.395898 c -0.42232,-0.331873 -1.37069,-1.14491 -2.92124,-1.197011 -0.39127,-0.01314 -0.69859,0.529779 -0.69859,0.919797 0,0 1.02188,13.753557 1.02188,26.696903 0,12.943343 -0.47211,24.903443 -0.47211,24.903443 0,0.39 -0.0206,1.43211 1.39688,1.52643 l 0.60023,-0.0103 c 1.03531,-0.0427 2.55226,-1.46823 2.55226,-1.85825 0,0 0.21459,-11.53259 0.21459,-24.475936 0,-12.943348 -0.81546,-25.330939 -0.81546,-25.330939 0,-0.390017 -0.58561,-0.944143 -0.87844,-1.174253 z"
       style="fill:url(#radialGradient3164);fill-opacity:1;fill-rule:nonzero;stroke:none" />
    <path
       inkscape:connector-curvature="0"
       inkscape:r_cy="true"
       inkscape:r_cx="true"
       sodipodi:nodetypes="cscsccccscs"
       id="path55098"
       d="m 17.296606,66.522384 c 0.422325,-0.331871 1.370692,-1.144909 2.921237,-1.197009 0.391282,-0.01314 0.698598,0.529779 0.698598,0.919797 0,0 -1.021872,13.753556 -1.021872,26.696903 0,12.943345 0.472106,24.903445 0.472106,24.903445 0,0.39 0.02063,1.4321 -1.396889,1.52642 l -0.600212,-0.0103 c -1.035333,-0.0427 -2.552276,-1.46824 -2.552276,-1.85825 0,0 -0.214593,-11.53259 -0.214593,-24.475941 0,-12.943346 0.815455,-25.330938 0.815455,-25.330938 0,-0.390016 0.585618,-0.944142 0.878446,-1.174252 z"
       style="fill:url(#radialGradient3161);fill-opacity:1;fill-rule:nonzero;stroke:none" />
    <path
       inkscape:connector-curvature="0"
       style="fill:url(#radialGradient3158);fill-opacity:1;fill-rule:nonzero;stroke:none"
       d="m 63.380914,11.551819 c -22.210705,0.590144 -37.134448,12.86639 -42.208703,23.69152 -0.969359,2.067978 -0.294005,3.905065 1.96793,6.319991 -0.189461,-0.958121 -0.260431,-1.956407 -0.237509,-2.940315 0.308845,-13.256879 19.550695,-25.256584 43.917836,-24.668642 10.755806,0.259521 21.349783,4.339884 28.9295,8.006844 -7.306941,-5.748354 -17.772135,-10.409399 -30.774351,-10.409398 -0.448734,10e-7 -0.877943,-0.0099 -1.323264,0 -0.08732,0.002 -0.184338,-0.0023 -0.271439,0 z"
       id="path59507"
       inkscape:r_cx="true"
       inkscape:r_cy="true"
       sodipodi:nodetypes="cscsscssc" />
  </g>
</svg>
