<?xml version="1.0" encoding="UTF-8" standalone="no"?>
<!-- Created with Inkscape (http://www.inkscape.org/) -->

<svg
   xmlns:dc="http://purl.org/dc/elements/1.1/"
   xmlns:cc="http://creativecommons.org/ns#"
   xmlns:rdf="http://www.w3.org/1999/02/22-rdf-syntax-ns#"
   xmlns:svg="http://www.w3.org/2000/svg"
   xmlns="http://www.w3.org/2000/svg"
   xmlns:xlink="http://www.w3.org/1999/xlink"
   xmlns:sodipodi="http://sodipodi.sourceforge.net/DTD/sodipodi-0.dtd"
   xmlns:inkscape="http://www.inkscape.org/namespaces/inkscape"
   width="128"
   height="128"
   id="svg2606"
   sodipodi:version="0.32"
   inkscape:version="0.48.0 r9654"
   version="1.0"
   sodipodi:docname="audio-midi.svgz"
   inkscape:output_extension="org.inkscape.output.svgz.inkscape"
   inkscape:export-filename="/home/pinheiro/pics/oxygen-icons/scalable/mimetypes/small/16x16/audio-midi.png"
   inkscape:export-xdpi="180"
   inkscape:export-ydpi="180">
  <defs
     id="defs2608">
    <linearGradient
       id="linearGradient6131">
      <stop
         id="stop6133"
         offset="0"
         style="stop-color:#fcfcfc;stop-opacity:1" />
      <stop
         style="stop-color:#f8f8f8;stop-opacity:1"
         offset="0.52275378"
         id="stop6135" />
      <stop
         id="stop6141"
         offset="0.77457333"
         style="stop-color:#f0efef;stop-opacity:1;" />
      <stop
         id="stop6139"
         offset="0.90122044"
         style="stop-color:#e3e1e1;stop-opacity:1;" />
      <stop
         id="stop6137"
         offset="1"
         style="stop-color:#cecbcb;stop-opacity:1" />
    </linearGradient>
    <linearGradient
       inkscape:collect="always"
       xlink:href="#linearGradient6131"
       id="linearGradient3893"
       gradientUnits="userSpaceOnUse"
       gradientTransform="matrix(1.0119858,0,0,1.0119858,-0.89554075,-0.9871566)"
       x1="86.73793"
       y1="93.621468"
       x2="95.460213"
       y2="102.34375" />
    <radialGradient
       inkscape:collect="always"
       xlink:href="#linearGradient3913-5"
       id="radialGradient3919-5"
       cx="90.75"
       cy="110.25299"
       fx="90.75"
       fy="110.25299"
       r="18.750002"
       gradientTransform="matrix(1.3067347,0,0,1.3067347,-27.83617,-33.818441)"
       gradientUnits="userSpaceOnUse" />
    <linearGradient
       inkscape:collect="always"
       id="linearGradient3913-5">
      <stop
         style="stop-color:#ffffff;stop-opacity:1;"
         offset="0"
         id="stop3915-4" />
      <stop
         style="stop-color:#ffffff;stop-opacity:0;"
         offset="1"
         id="stop3917-7" />
    </linearGradient>
    <clipPath
       clipPathUnits="userSpaceOnUse"
       id="clipPath3889-6">
      <path
         sodipodi:nodetypes="cscscssc"
         inkscape:connector-curvature="0"
         id="path3891-5"
         d="m 112,82.502986 c 0,4.465301 -2.79749,6.409952 -5.27972,8.093625 -5.10854,3.46508 -14.939114,3.32536 -20.720284,3.40638 -0.081,5.781159 0.16586,15.504599 -3.29922,20.613139 -1.68367,2.48224 -5.29051,5.38687 -8.20078,5.38687 2.31803,0 4.74284,-1.33476 7.58402,-4.08481 9.14197,-8.84873 17.36714,-16.13535 25.673154,-25.297529 C 109.67612,88.503916 112,86.97878 112,82.502986 z"
         style="fill:url(#linearGradient3893);fill-opacity:1;stroke:none" />
    </clipPath>
    <filter
       color-interpolation-filters="sRGB"
       inkscape:collect="always"
       id="filter3909-6">
      <feGaussianBlur
         inkscape:collect="always"
         stdDeviation="0.43040059"
         id="feGaussianBlur3911-9" />
    </filter>
    <linearGradient
       inkscape:collect="always"
       xlink:href="#linearGradient3897-7"
       id="linearGradient3895-3"
       gradientUnits="userSpaceOnUse"
       gradientTransform="matrix(1.3344708,0,0,1.3640502,-37.238647,-42.998247)"
       x1="82.15696"
       y1="90.381706"
       x2="94.220871"
       y2="102.18401" />
    <linearGradient
       id="linearGradient3897-7">
      <stop
         style="stop-color:#fcfcfc;stop-opacity:1"
         offset="0"
         id="stop3899-4" />
      <stop
         id="stop3901-5"
         offset="0.52275378"
         style="stop-color:#f8f8f8;stop-opacity:1" />
      <stop
         style="stop-color:#f0efef;stop-opacity:1;"
         offset="0.72337759"
         id="stop3903-2" />
      <stop
         style="stop-color:#e3e1e1;stop-opacity:1;"
         offset="0.89024991"
         id="stop3905-5" />
      <stop
         style="stop-color:#cecbcb;stop-opacity:1"
         offset="1"
         id="stop3907-4" />
    </linearGradient>
    <clipPath
       clipPathUnits="userSpaceOnUse"
       id="clipPath6093-7">
      <path
         inkscape:connector-curvature="0"
         sodipodi:nodetypes="cccssccc"
         id="path6095-4"
         d="m 17.000001,8 0.782827,110 57.5,0 c 1.675283,0 3.119418,0.18058 4.9,-1.6 8.797935,-8.79794 21.481402,-23.383226 28.739972,-30.707378 2.44056,-2.462612 2.80096,-4.47117 2.80096,-6.724043 L 110,8 z"
         style="fill:#ffffff;fill-opacity:1" />
    </clipPath>
    <radialGradient
       inkscape:collect="always"
       xlink:href="#linearGradient5982-7"
       id="radialGradient5988-0"
       cx="68.138977"
       cy="89.42041"
       fx="67.932365"
       fy="72.691223"
       r="47.5"
       gradientTransform="matrix(1.5860719,-0.07936281,0.06485072,1.2953772,-41.872296,-14.425457)"
       gradientUnits="userSpaceOnUse" />
    <linearGradient
       inkscape:collect="always"
       id="linearGradient5982-7">
      <stop
         style="stop-color:#ffffff;stop-opacity:1;"
         offset="0"
         id="stop5984-8" />
      <stop
         style="stop-color:#ffffff;stop-opacity:0;"
         offset="1"
         id="stop5986-6" />
    </linearGradient>
    <filter
       color-interpolation-filters="sRGB"
       inkscape:collect="always"
       id="filter6171-8"
       x="-0.47870937"
       width="1.9574188"
       y="-0.51275069"
       height="2.0255013">
      <feGaussianBlur
         inkscape:collect="always"
         stdDeviation="10.140743"
         id="feGaussianBlur6173-8" />
    </filter>
    <linearGradient
       inkscape:collect="always"
       xlink:href="#linearGradient4518-3"
       id="linearGradient4524-4"
       x1="47.236164"
       y1="22.150356"
       x2="72"
       y2="116.40091"
       gradientUnits="userSpaceOnUse"
       gradientTransform="matrix(0.94173025,0,0,0.94148681,3.5162756,3.1457312)" />
    <linearGradient
       id="linearGradient4518-3">
      <stop
         style="stop-color:#eeecec;stop-opacity:1"
         offset="0"
         id="stop4520-1" />
      <stop
         id="stop5969-4"
         offset="0.40000001"
         style="stop-color:#f4f4f4;stop-opacity:1" />
      <stop
         style="stop-color:#f6f5f5;stop-opacity:1"
         offset="1"
         id="stop4522-9" />
    </linearGradient>
    <filter
       inkscape:collect="always"
       id="filter4123">
      <feGaussianBlur
         inkscape:collect="always"
         stdDeviation="2.028"
         id="feGaussianBlur4125" />
    </filter>
    <filter
       inkscape:collect="always"
       id="filter3822">
      <feGaussianBlur
         inkscape:collect="always"
         stdDeviation="2.7153804"
         id="feGaussianBlur3824" />
    </filter>
    <filter
       inkscape:collect="always"
       id="filter3827"
       x="-0.084733292"
       width="1.1694666"
       y="-0.10505005"
       height="1.2101001">
      <feGaussianBlur
         inkscape:collect="always"
         stdDeviation="2.1734796"
         id="feGaussianBlur3829" />
    </filter>
    <filter
       id="filter4074"
       inkscape:collect="always"
       color-interpolation-filters="sRGB">
      <feGaussianBlur
         id="feGaussianBlur4076"
         stdDeviation="0.48029844"
         inkscape:collect="always" />
    </filter>
    <linearGradient
       id="linearGradient4379-5"
       inkscape:collect="always">
      <stop
         id="stop4381-6"
         offset="0"
         style="stop-color:#000000;stop-opacity:1;" />
      <stop
         id="stop4383-9"
         offset="1"
         style="stop-color:#000000;stop-opacity:0;" />
    </linearGradient>
    <linearGradient
       inkscape:collect="always"
       xlink:href="#linearGradient4379-5"
       id="linearGradient3357"
       gradientUnits="userSpaceOnUse"
       gradientTransform="translate(-2,0)"
       x1="78.650177"
       y1="115.62798"
       x2="78.650177"
       y2="89.654533" />
    <linearGradient
       id="linearGradient4395-5">
      <stop
         id="stop4397-4"
         offset="0"
         style="stop-color:#171717;stop-opacity:1;" />
      <stop
         id="stop4399-7"
         offset="1"
         style="stop-color:#8a8a8a;stop-opacity:1;" />
    </linearGradient>
    <linearGradient
       y2="70.786308"
       x2="80.797417"
       y1="105.28602"
       x1="80.797417"
       gradientTransform="translate(-2,0)"
       gradientUnits="userSpaceOnUse"
       id="linearGradient4407-5"
       xlink:href="#linearGradient4395-5"
       inkscape:collect="always" />
    <filter
       height="1.2101001"
       y="-0.10505005"
       width="1.1694666"
       x="-0.084733292"
       id="filter3827-6"
       inkscape:collect="always">
      <feGaussianBlur
         id="feGaussianBlur3829-3"
         stdDeviation="2.1734796"
         inkscape:collect="always" />
    </filter>
    <linearGradient
       id="linearGradient4518-3-4">
      <stop
         id="stop4520-1-9"
         offset="0"
         style="stop-color:#eeecec;stop-opacity:1" />
      <stop
         style="stop-color:#f4f4f4;stop-opacity:1"
         offset="0.40000001"
         id="stop5969-4-9" />
      <stop
         id="stop4522-9-9"
         offset="1"
         style="stop-color:#f6f5f5;stop-opacity:1" />
    </linearGradient>
    <filter
       height="2.0255013"
       y="-0.51275069"
       width="1.9574188"
       x="-0.47870937"
       id="filter6171-8-5"
       inkscape:collect="always"
       color-interpolation-filters="sRGB">
      <feGaussianBlur
         id="feGaussianBlur6173-8-4"
         stdDeviation="10.140743"
         inkscape:collect="always" />
    </filter>
    <clipPath
       id="clipPath6093-7-1"
       clipPathUnits="userSpaceOnUse">
      <path
         style="fill:#ffffff;fill-opacity:1"
         d="m 17.000001,8 0.782827,110 57.5,0 c 1.675283,0 3.119418,0.18058 4.9,-1.6 8.797935,-8.79794 21.481402,-23.383226 28.739972,-30.707378 2.44056,-2.462612 2.80096,-4.47117 2.80096,-6.724043 L 110,8 z"
         id="path6095-4-0"
         sodipodi:nodetypes="cccssccc"
         inkscape:connector-curvature="0" />
    </clipPath>
    <linearGradient
       id="linearGradient3897-7-1">
      <stop
         id="stop3899-4-8"
         offset="0"
         style="stop-color:#fcfcfc;stop-opacity:1" />
      <stop
         style="stop-color:#f8f8f8;stop-opacity:1"
         offset="0.52275378"
         id="stop3901-5-7" />
      <stop
         id="stop3903-2-0"
         offset="0.72337759"
         style="stop-color:#f0efef;stop-opacity:1;" />
      <stop
         id="stop3905-5-5"
         offset="0.89024991"
         style="stop-color:#e3e1e1;stop-opacity:1;" />
      <stop
         id="stop3907-4-1"
         offset="1"
         style="stop-color:#cecbcb;stop-opacity:1" />
    </linearGradient>
    <filter
       id="filter3909-6-3"
       inkscape:collect="always"
       color-interpolation-filters="sRGB">
      <feGaussianBlur
         id="feGaussianBlur3911-9-3"
         stdDeviation="0.43040059"
         inkscape:collect="always" />
    </filter>
    <clipPath
       id="clipPath3889-6-6"
       clipPathUnits="userSpaceOnUse">
      <path
         style="fill:url(#linearGradient3893-9);fill-opacity:1;stroke:none"
         d="m 112,82.502986 c 0,4.465301 -2.79749,6.409952 -5.27972,8.093625 -5.10854,3.46508 -14.939114,3.32536 -20.720284,3.40638 -0.081,5.781159 0.16586,15.504599 -3.29922,20.613139 -1.68367,2.48224 -5.29051,5.38687 -8.20078,5.38687 2.31803,0 4.74284,-1.33476 7.58402,-4.08481 9.14197,-8.84873 17.36714,-16.13535 25.673154,-25.297529 C 109.67612,88.503916 112,86.97878 112,82.502986 z"
         id="path3891-5-0"
         inkscape:connector-curvature="0"
         sodipodi:nodetypes="cscscssc" />
    </clipPath>
    <linearGradient
       id="linearGradient3913-5-5"
       inkscape:collect="always">
      <stop
         id="stop3915-4-3"
         offset="0"
         style="stop-color:#ffffff;stop-opacity:1;" />
      <stop
         id="stop3917-7-8"
         offset="1"
         style="stop-color:#ffffff;stop-opacity:0;" />
    </linearGradient>
    <radialGradient
       gradientUnits="userSpaceOnUse"
       gradientTransform="matrix(1.3067347,0,0,1.3067347,-27.83617,-33.818441)"
       r="18.750002"
       fy="110.25299"
       fx="90.75"
       cy="110.25299"
       cx="90.75"
       id="radialGradient3919-5-5"
       xlink:href="#linearGradient3913-5-5"
       inkscape:collect="always" />
    <linearGradient
       y2="102.34375"
       x2="95.460213"
       y1="93.621468"
       x1="86.73793"
       gradientTransform="matrix(1.0119858,0,0,1.0119858,-0.89554075,-0.9871566)"
       gradientUnits="userSpaceOnUse"
       id="linearGradient3893-9"
       xlink:href="#linearGradient6131-8"
       inkscape:collect="always" />
    <linearGradient
       id="linearGradient6131-8">
      <stop
         style="stop-color:#fcfcfc;stop-opacity:1"
         offset="0"
         id="stop6133-5" />
      <stop
         id="stop6135-7"
         offset="0.52275378"
         style="stop-color:#f8f8f8;stop-opacity:1" />
      <stop
         style="stop-color:#f0efef;stop-opacity:1;"
         offset="0.77457333"
         id="stop6141-3" />
      <stop
         style="stop-color:#e3e1e1;stop-opacity:1;"
         offset="0.90122044"
         id="stop6139-3" />
      <stop
         style="stop-color:#cecbcb;stop-opacity:1"
         offset="1"
         id="stop6137-8" />
    </linearGradient>
    <linearGradient
       inkscape:collect="always"
       xlink:href="#linearGradient4395-5"
       id="linearGradient4025"
       gradientUnits="userSpaceOnUse"
       gradientTransform="translate(-2,0)"
       x1="80.797417"
       y1="105.28602"
       x2="80.797417"
       y2="70.786308" />
    <linearGradient
       inkscape:collect="always"
       xlink:href="#linearGradient4379-5"
       id="linearGradient4027"
       gradientUnits="userSpaceOnUse"
       gradientTransform="translate(-2,0)"
       x1="78.650177"
       y1="115.62798"
       x2="78.650177"
       y2="89.654533" />
    <clipPath
       clipPathUnits="userSpaceOnUse"
       id="clipPath4035">
      <rect
         style="opacity:0.19026549;fill:#000000;fill-opacity:0.21925133;stroke:none"
         id="rect4037"
         width="35.253834"
         height="23.502556"
         x="65.675377"
         y="72.279976" />
    </clipPath>
  </defs>
  <sodipodi:namedview
     id="base"
     pagecolor="#ffffff"
     bordercolor="#666666"
     borderopacity="1.0"
     inkscape:pageopacity="0.0"
     inkscape:pageshadow="2"
     inkscape:zoom="2.0000001"
     inkscape:cx="-82.82563"
     inkscape:cy="81.499323"
     inkscape:document-units="px"
     inkscape:current-layer="layer1"
     width="128px"
     height="128px"
     showgrid="true"
     inkscape:grid-points="true"
     showguides="true"
     inkscape:guide-bbox="true"
     inkscape:window-width="1224"
     inkscape:window-height="757"
     inkscape:window-x="-41"
     inkscape:window-y="289"
     inkscape:snap-global="true"
     inkscape:window-maximized="0"
     inkscape:snap-page="true">
    <inkscape:grid
       id="GridFromPre046Settings"
       type="xygrid"
       originx="0px"
       originy="0px"
       spacingx="8px"
       spacingy="8px"
       color="#0000ff"
       empcolor="#0000ff"
       opacity="0.2"
       empopacity="0.4"
       empspacing="2"
       visible="true"
       enabled="true"
       snapvisiblegridlinesonly="true" />
    <sodipodi:guide
       orientation="1,0"
       position="-68,29.325902"
       id="guide4564" />
    <sodipodi:guide
       orientation="1,0"
       position="-121.62237,135.0574"
       id="guide3859" />
    <sodipodi:guide
       orientation="0,1"
       position="38.581514,-74.688154"
       id="guide4360" />
  </sodipodi:namedview>
  <metadata
     id="metadata2611">
    <rdf:RDF>
      <cc:Work
         rdf:about="">
        <dc:format>image/svg+xml</dc:format>
        <dc:type
           rdf:resource="http://purl.org/dc/dcmitype/StillImage" />
        <dc:title></dc:title>
      </cc:Work>
    </rdf:RDF>
  </metadata>
  <g
     inkscape:label="Livello 1"
     inkscape:groupmode="layer"
     id="layer1">
    <path
       style="opacity:0.45606695;fill:#000000;fill-opacity:1;filter:url(#filter4123)"
       d="m 13.333,5.3364 0,118.3304 49.8545,-0.0668 c 2.115554,-0.003 4.528919,-1.77169 7,-4.25 0.71234,-0.71442 1.440746,-1.39395 2.15625,-2.09375 0.415612,-0.40649 0.832187,-0.81443 1.25,-1.21875 7.773958,-7.40962 26.98341,-25.122599 34.21875,-33.099999 0.42065,-0.42064 0.81207,-0.8111 1.15625,-1.1875 1.46444,-1.49766 2.76158,-2.8378 2.99375,-5.8625 L 112,75.156251 111.9972,5.3364 z"
       id="path5990"
       inkscape:connector-curvature="0"
       sodipodi:nodetypes="ccsssccccccc"
       transform="matrix(0.94173025,0,0,0.94148681,3.5162752,3.1457285)" />
    <path
       transform="matrix(0.94173025,0,0,0.94148681,3.5162752,3.1457285)"
       style="fill:#000000;fill-opacity:1;filter:url(#filter3822)"
       d="m 12.96875,3.4375 c -1.48e-4,0.010416 -1.48e-4,0.020834 0,0.03125 -0.921246,0.1949457 -1.534484,0.9333582 -1.53125,1.875 l 0,118.73736 c -1.48e-4,0.0104 -1.48e-4,0.0209 0,0.0313 0.01925,1.0723 0.80288,1.85562 1.875,1.875 0.01042,1.5e-4 0.02083,1.5e-4 0.03125,0 l 52.529063,0 c 1.658286,0 4.069886,0.24689 7.15625,-1.84375 0.09606,-0.0692 0.180839,-0.15394 0.25,-0.25 -0.05642,0.0503 -0.118387,0.22919 0.0625,-0.0625 0.05493,-0.0473 0.106764,-0.0903 0.1875,-0.15625 0.219835,-0.17951 0.516782,-0.38621 0.78125,-0.59375 0.264468,-0.20754 0.493455,-0.39466 0.65625,-0.53125 0.0407,-0.0341 0.0777,-0.0491 0.125,-0.0937 0.02365,-0.0223 0.04509,-0.0687 0.09375,-0.125 0.02433,-0.0281 0.07533,-0.0459 0.125,-0.125 0.01159,-0.0185 0.01274,-0.0566 0.03125,-0.0937 9.792927,-9.35059 27.456717,-28.634354 38.499997,-39.8125 1.71056,-1.710561 3.78125,-3.905917 3.78125,-8.5625 l 0,-68.39361 c 1.5e-4,-0.010416 1.5e-4,-0.020834 0,-0.03125 -0.0194,-1.0720969 -0.80283,-1.8556268 -1.875,-1.875 -0.0104,-1.484e-4 -0.0209,-1.484e-4 -0.0313,0 l -102.27906,0 c -0.03303,-0.00313 -0.06067,0.00142 -0.09375,0 -0.08821,-0.00379 -0.161926,-0.00834 -0.25,0 -0.04162,-0.00237 -0.08338,-0.00237 -0.125,0 z"
       id="path3314"
       inkscape:connector-curvature="0"
       sodipodi:nodetypes="cccccccsccccscsccccsccccccccc" />
    <path
       style="fill:#ffffff;fill-opacity:1"
       d="m 16.072365,8.0771252 0,111.4992648 49.707827,-0.0771 c 1.577682,0 3.686257,-0.53663 6.592193,-3.42109 8.353294,-8.2916 30.207015,-29.952167 37.042715,-36.912327 2.29836,-2.340224 2.82611,-4.248961 2.82611,-6.389865 L 112.23821,8 z"
       id="path34"
       sodipodi:nodetypes="cccssccc"
       inkscape:connector-curvature="0" />
    <path
       style="fill:url(#linearGradient4524-4);fill-opacity:1"
       d="m 22.330709,13.864607 c -0.32004,0 -0.470863,0.220889 -0.470863,0.470743 l 0,98.04132 c 0,0.7735 0.639738,1.41283 1.412596,1.41224 l 38.774516,-0.0295 c 0.04998,-4e-5 0.763164,0.022 1.412595,0.0295 1.67408,-0.0377 2.949474,-0.70964 4.10221,-1.50006 0.990574,-0.274 27.991428,-26.655867 36.581047,-35.307802 1.28302,-1.292303 2.05813,-3.71715 2.05813,-4.609153 l 0,-58.036545 c 0,-0.303834 -0.15371,-0.470743 -0.47087,-0.470743 z"
       id="path3967"
       inkscape:connector-curvature="0"
       sodipodi:nodetypes="ccsssccscccc" />
    <path
       sodipodi:nodetypes="ccssscccccc"
       inkscape:connector-curvature="0"
       id="path5980"
       d="m 26.330709,17.864607 c -0.32004,0 -0.470863,0.220889 -0.470863,0.470743 l -4,94.04132 c -0.03287,0.77281 0.639752,1.40754 1.412596,1.41224 l 43.527137,0.26444 c 0.04998,3e-4 3.083114,-0.007 3.732546,4e-5 6.159831,-4.24013 28.87563,-26.117493 37.299625,-34.592579 0.61903,-0.694148 0.43093,-0.348416 1.36919,-1.513403 l 0,-63.612058 c 0,-0.303834 -0.15371,-0.470743 -0.47087,-0.470743 z"
       style="opacity:0.84653476;fill:url(#radialGradient5988-0);fill-opacity:1" />
    <path
       style="fill:#000000"
       d=""
       id="path2197" />
    <path
       clip-path="url(#clipPath6093-7)"
       style="opacity:0.34728035;fill:#000000;fill-opacity:1;stroke:none;filter:url(#filter6171-8)"
       d="m 116.12376,78.971565 c 0,4.465301 -6.19771,3.506816 -8.67994,5.190489 -5.10854,3.46508 -20.174687,2.225237 -25.955857,2.306257 -0.081,5.781159 -0.937221,19.675219 -0.937221,25.825239 0,2.97817 -3.440475,11.20945 -6.350745,11.20945 -2.091359,1.5337 3.488204,8.21101 6.734971,5.31989 9.501888,-8.46107 35.131682,-30.022704 43.350822,-39.262889 2.04044,-2.29392 -3.18138,-13.376087 -8.16203,-10.588436 z"
       id="path6153"
       inkscape:connector-curvature="0"
       sodipodi:nodetypes="cscscssc"
       transform="matrix(1.1813248,0,0,1.2086603,-24.263752,-24.510815)" />
    <rect
       style="fill:#000000;fill-opacity:1;stroke:none"
       id="rect3038"
       width="96"
       height="8"
       x="16"
       y="56"
       rx="0"
       ry="0" />
    <rect
       ry="0"
       rx="0"
       y="-32"
       x="64"
       height="8"
       width="40"
       id="rect3808"
       style="fill:#000000;fill-opacity:1;stroke:none"
       transform="matrix(0,1,-1,0,0,0)" />
    <rect
       style="fill:#000000;fill-opacity:0.06417111;stroke:none"
       id="rect3816"
       width="8"
       height="56"
       x="32"
       y="64" />
    <rect
       y="64"
       x="16"
       height="56"
       width="8"
       id="rect3832"
       style="fill:#000000;fill-opacity:0.06417111;stroke:none" />
    <rect
       style="fill:#000000;fill-opacity:0.06417111;stroke:none"
       id="rect3834"
       width="8"
       height="8"
       x="24"
       y="112" />
    <path
       inkscape:connector-curvature="0"
       style="fill:#000000"
       d=""
       id="path2197-9" />
    <g
       id="g4403"
       transform="matrix(2.2465642,0,0,2.042331,-132.74395,-139.86937)"
       clip-path="url(#clipPath4035)">
      <path
         sodipodi:type="inkscape:offset"
         inkscape:radius="0.38491002"
         inkscape:original="M 82.53125 68.75 C 81.734522 68.79436 80.915488 69.659414 80.78125 73.34375 C 80.73595 74.587052 80.741232 76.12533 80.96875 77.875 C 81.11339 78.97478 81.258916 80.234502 81.40625 81.46875 C 81.196744 81.65446 80.99965 81.849045 80.78125 82.03125 C 79.413406 83.157768 77.870153 84.248786 76.40625 85.625 C 74.958916 86.963115 73.628989 88.664233 73.03125 90.78125 C 72.64239 92.237433 72.673267 93.798831 73.09375 95.25 C 73.519103 96.711518 74.360688 98.040074 75.46875 99.0625 C 76.597492 100.10146 77.967419 100.79266 79.4375 101.09375 C 80.946485 101.40329 82.506432 101.27758 83.90625 100.78125 C 83.93916 100.77015 83.96736 100.7615 84 100.75 C 84.08635 101.26584 84.19512 101.7902 84.28125 102.28125 C 84.389599 102.88284 84.467676 103.49824 84.4375 104.125 C 84.35089 105.58915 83.560195 106.75495 82.65625 107.4375 C 81.13313 108.58264 79.57694 108.52764 78.96875 108.46875 C 78.736017 108.44975 78.65625 108.40625 78.65625 108.40625 C 78.44146 108.29744 78.47273 107.8529 78.96875 107.5625 C 78.98098 107.5545 78.98723 107.53825 79 107.53125 C 79.554401 107.19197 79.912061 106.60446 79.9375 105.90625 C 79.97785 104.79895 79.138544 103.8841 78.03125 103.84375 C 77.576669 103.82715 77.158099 103.94478 76.8125 104.1875 C 76.8085 104.1905 76.78523 104.18419 76.78125 104.1875 C 76.74946 104.2075 76.71893 104.25795 76.6875 104.28125 C 76.64149 104.31865 76.605035 104.36504 76.5625 104.40625 C 76.47989 104.48295 76.416448 104.55269 76.34375 104.65625 C 76.29779 104.72175 76.22755 104.79802 76.1875 104.875 C 76.1756 104.8992 76.1682 104.9117 76.15625 104.9375 C 76.14855 104.9539 76.1324 104.9829 76.125 105 C 76.0699 105.11808 76.03147 105.24546 76 105.375 C 75.97115 105.49889 75.9423 105.61812 75.9375 105.75 C 75.89938 106.16883 75.969578 106.64957 76.1875 107.09375 C 76.484725 107.66557 76.961761 108.07857 77.4375 108.3125 C 77.940847 108.56159 78.384651 108.65137 78.65625 108.6875 C 78.65625 108.6875 78.769169 108.7322 78.96875 108.75 C 79.56152 108.8079 81.154146 108.92474 82.8125 107.6875 C 83.770285 106.96806 84.646893 105.73387 84.75 104.15625 C 84.78208 103.4872 84.670349 102.85231 84.5625 102.25 C 84.47516 101.73817 84.368574 101.16572 84.28125 100.625 C 84.644044 100.47614 85.019626 100.3002 85.34375 100.09375 C 86.51046 99.351238 87.374494 98.264416 87.875 97.03125 C 88.568195 95.33254 88.469896 93.454452 87.6875 91.9375 C 87.261763 91.128311 86.651456 90.458887 85.9375 89.96875 C 85.173712 89.445629 84.295365 89.135715 83.4375 89.0625 C 83.199883 89.04381 82.979706 89.04799 82.75 89.0625 C 82.72656 88.851842 82.71041 88.648358 82.6875 88.4375 C 82.479371 86.52143 82.27654 84.594384 82.09375 82.71875 C 83.21034 81.437753 84.066062 80.080421 84.59375 78.875 C 84.61401 78.82854 84.63672 78.796471 84.65625 78.75 C 85.103496 77.697714 85.351038 76.790159 85.5 76.03125 C 85.736563 74.82603 85.724177 73.543494 85.5 72.1875 C 85.304077 71.002324 84.305224 69.352091 83.28125 68.90625 C 83.046166 68.803892 82.796826 68.735211 82.53125 68.75 z M 83.03125 71.53125 C 83.741218 71.51959 84.933567 72.223196 85.03125 73.75 C 85.07688 74.457968 85.031038 75.249576 84.90625 75.96875 C 84.749895 76.867383 84.445782 77.746188 83.96875 78.5625 C 83.454362 79.453857 82.712018 80.237078 81.90625 81 C 81.800768 79.918777 81.699254 78.838334 81.59375 77.8125 C 81.436148 76.18348 81.372836 74.243981 81.5625 73.46875 C 81.719177 72.828304 81.863559 71.940093 82.75 71.59375 C 82.82674 71.56377 82.929826 71.53292 83.03125 71.53125 z M 81.625 83.25 C 81.82415 84.945148 82.030346 86.678209 82.25 88.46875 C 82.27556 88.677064 82.28645 88.884987 82.3125 89.09375 C 81.628436 89.195327 81.012487 89.478329 80.46875 89.8125 C 79.514587 90.402018 78.880255 91.237475 78.53125 92.09375 C 78.094149 93.172892 78.109026 94.192247 78.3125 95 C 78.54608 95.919817 78.99046 96.537377 79.3125 96.90625 C 79.63454 97.275122 79.84375 97.4375 79.84375 97.4375 C 79.84375 97.4375 78.919849 96.666752 78.71875 94.9375 C 78.63162 94.18229 78.744083 93.266915 79.21875 92.40625 C 79.594636 91.725178 80.206224 91.098891 81 90.71875 C 81.454767 90.500729 81.969647 90.368619 82.5 90.34375 C 82.932718 93.700882 83.411937 97.017943 83.90625 100.03125 C 83.83693 100.06445 83.76106 100.12535 83.6875 100.15625 C 82.951869 100.48265 82.007942 100.69774 80.875 100.625 C 80.477843 100.5995 80.053933 100.52734 79.59375 100.40625 C 78.428752 100.10028 77.104543 99.434325 76.09375 98.34375 C 75.217423 97.39763 74.60074 96.157005 74.34375 94.875 C 74.08787 93.598542 74.199691 92.292961 74.59375 91.1875 C 75.29572 89.184045 76.770851 87.82738 77.71875 86.9375 C 77.77524 86.88554 77.852493 86.863008 77.90625 86.8125 C 79.148919 85.668699 80.461332 84.497124 81.625 83.25 z M 82.875 90.34375 C 83.013843 90.35205 83.17394 90.35076 83.3125 90.375 C 83.936771 90.483072 84.545826 90.769584 85.0625 91.1875 C 85.5457 91.577923 85.956385 92.095659 86.21875 92.6875 C 86.29393 92.85491 86.354915 93.040144 86.40625 93.21875 C 86.786331 94.542316 86.647416 95.543767 86.46875 96.4375 C 86.327639 97.140553 86.125407 97.800971 85.71875 98.4375 C 85.384654 98.960533 84.902666 99.498641 84.1875 99.90625 C 83.725424 96.975552 83.266499 93.700959 82.875 90.34375 z "
         style="fill:url(#linearGradient4025);fill-opacity:1;stroke:#000000;stroke-width:0;stroke-linecap:butt;stroke-linejoin:miter;stroke-miterlimit:4;stroke-opacity:1"
         id="path3072"
         d="m 82.5,68.375 c -0.529716,0.02949 -1.077442,0.391181 -1.4375,1.15625 -0.360058,0.765069 -0.588134,1.942962 -0.65625,3.8125 -0.04576,1.255935 -0.04364,2.816228 0.1875,4.59375 0.136416,1.03725 0.2668,2.203262 0.40625,3.375 -0.159717,0.146445 -0.314465,0.308785 -0.46875,0.4375 l 0,-0.03125 c -1.352316,1.113729 -2.886704,2.225854 -4.375,3.625 -1.480431,1.368715 -2.876344,3.134942 -3.5,5.34375 -0.407865,1.527353 -0.377121,3.139031 0.0625,4.65625 0.44593,1.532222 1.341192,2.93075 2.5,4 1.180334,1.08645 2.618778,1.81011 4.15625,2.125 1.461731,0.29985 2.935378,0.17641 4.3125,-0.25 0.07064,0.38482 0.156433,0.76971 0.21875,1.125 0.10595,0.58827 0.18431,1.16718 0.15625,1.75 -0.07917,1.33832 -0.803118,2.41066 -1.625,3.03125 -1.417732,1.06591 -2.869119,1.02379 -3.4375,0.96875 0.03238,-0.0535 0.03446,-0.1162 0.15625,-0.1875 a 0.38494851,0.38494851 0 0 0 0.03125,-0.0313 c 0.08049,-0.0441 0.0957,-0.0962 0.09375,-0.0937 0.597924,-0.41366 1.003011,-1.09994 1.03125,-1.875 0.0477,-1.30912 -0.969442,-2.3897 -2.28125,-2.4375 -0.470531,-0.0172 -0.893318,0.11368 -1.28125,0.34375 -0.01644,0.01 -0.04629,-0.0102 -0.0625,0 -0.03168,0.0199 -0.06302,0.0409 -0.09375,0.0625 -0.0094,0.005 -0.02352,-0.004 -0.03125,0 -0.01353,0.008 -0.03118,0.0312 -0.03125,0.0313 -0.04232,0.0349 -0.08103,0.0477 -0.09375,0.0625 -0.08071,0.0656 -0.104325,0.13378 -0.125,0.15625 l 0,0.0313 c -0.08991,0.0851 -0.199517,0.16482 -0.28125,0.28125 -0.02074,0.0296 -0.11045,0.1019 -0.1875,0.25 a 0.38494851,0.38494851 0 0 0 0,0.0313 c -0.0072,0.0146 -0.01376,0.0247 -0.03125,0.0625 0.0061,-0.013 -0.0058,0.004 -0.03125,0.0625 -0.07095,0.15206 -0.121475,0.29436 -0.15625,0.4375 -0.02651,0.11383 -0.05278,0.27373 -0.0625,0.4375 -9.23e-4,0.0101 8.15e-4,0.0211 0,0.0313 -0.03838,0.48001 0.03459,0.99725 0.28125,1.5 a 0.38494851,0.38494851 0 0 0 0,0.0313 c 0.339975,0.65407 0.89221,1.10687 1.4375,1.375 0.511382,0.25307 0.91594,0.32954 1.21875,0.375 0,0 0.07791,0.026 0.09375,0.0313 0.05634,0.0185 0.15364,0.0455 0.34375,0.0625 0.609296,0.0595 2.331417,0.18981 4.09375,-1.125 1.036629,-0.77866 1.982236,-2.10624 2.09375,-3.8125 0.03469,-0.72339 -0.07951,-1.3969 -0.1875,-2 -0.0727,-0.42604 -0.14271,-0.89438 -0.21875,-1.34375 0.287695,-0.12769 0.576142,-0.26705 0.84375,-0.4375 1.237619,-0.78764 2.127328,-1.915572 2.65625,-3.21875 0.735502,-1.802384 0.648204,-3.817192 -0.1875,-5.4375 -0.455585,-0.86592 -1.110606,-1.568987 -1.875,-2.09375 -0.81882,-0.560812 -1.760117,-0.889602 -2.6875,-0.96875 -0.13031,-0.01025 -0.252154,-5.58e-4 -0.375,0 -0.0089,-0.09351 -0.02058,-0.18305 -0.03125,-0.28125 -0.203537,-1.8738 -0.414263,-3.758484 -0.59375,-5.59375 1.08104,-1.266671 1.942134,-2.578277 2.46875,-3.78125 0.0041,-0.0093 0.02618,-0.03858 0.0625,-0.125 0.458411,-1.078554 0.721686,-2.031418 0.875,-2.8125 0.246993,-1.258355 0.230175,-2.576473 0,-3.96875 -0.11044,-0.668073 -0.415415,-1.406009 -0.84375,-2.0625 -0.428335,-0.656491 -0.964394,-1.225977 -1.59375,-1.5 C 83.168861,68.445532 82.844984,68.355789 82.5,68.375 z m 0.53125,3.53125 c 0.224344,-0.0037 0.637415,0.134188 0.96875,0.4375 0.331335,0.303312 0.613539,0.769924 0.65625,1.4375 0.04338,0.673077 -0.0056,1.437058 -0.125,2.125 -0.149171,0.857344 -0.453979,1.694811 -0.90625,2.46875 -0.365636,0.633592 -0.871616,1.205372 -1.4375,1.78125 -0.07742,-0.802138 -0.140003,-1.609332 -0.21875,-2.375 -0.07787,-0.804854 -0.113385,-1.696997 -0.125,-2.46875 -0.01162,-0.771753 0.01888,-1.443963 0.09375,-1.75 0.08161,-0.333609 0.143281,-0.682511 0.28125,-0.96875 0.137969,-0.286239 0.310317,-0.52109 0.65625,-0.65625 0.05128,-0.02003 0.128553,-0.03079 0.15625,-0.03125 z m -1.6875,12.125 c 0.172408,1.461465 0.343088,2.934923 0.53125,4.46875 0.01115,0.09085 0.02254,0.213573 0.03125,0.3125 -0.606947,0.143745 -1.14603,0.393134 -1.625,0.6875 -1.027606,0.634894 -1.716246,1.511304 -2.09375,2.4375 -0.469905,1.160131 -0.471125,2.278425 -0.25,3.15625 0.252129,0.99286 0.747105,1.665443 1.09375,2.0625 0.339551,0.388929 0.5625,0.59375 0.5625,0.59375 a 0.38811695,0.38811695 0 0 0 0.5,-0.59375 c 0,0 -0.176524,-0.164529 -0.40625,-0.53125 -0.229726,-0.366721 -0.500255,-0.914789 -0.59375,-1.71875 -0.07875,-0.682568 0.0374,-1.530384 0.46875,-2.3125 0.338775,-0.61383 0.879045,-1.188976 1.59375,-1.53125 0.304931,-0.146188 0.679981,-0.197571 1.03125,-0.25 0.40609,3.119212 0.853265,6.179306 1.3125,9 -0.677755,0.2961 -1.536164,0.5054 -2.59375,0.4375 -0.368298,-0.0237 -0.778431,-0.10289 -1.21875,-0.21875 -1.101589,-0.289317 -2.362533,-0.912552 -3.3125,-1.9375 -0.823511,-0.889098 -1.413178,-2.068675 -1.65625,-3.28125 -0.241691,-1.205675 -0.119608,-2.463132 0.25,-3.5 0.664256,-1.895818 2.049145,-3.201095 3,-4.09375 -0.03139,0.02888 0.04126,0.0124 0.1875,-0.125 1.055013,-0.971075 2.151926,-2.007345 3.1875,-3.0625 z m 1.96875,6.75 c 0.530429,0.104403 1.050437,0.355117 1.5,0.71875 0.43674,0.352884 0.826741,0.811926 1.0625,1.34375 0.06358,0.141579 0.107754,0.300022 0.15625,0.46875 0.358997,1.250145 0.237849,2.185359 0.0625,3.0625 -0.1363,0.679084 -0.314703,1.260222 -0.6875,1.84375 -0.217947,0.3412 -0.56002,0.665229 -0.9375,0.96875 -0.406213,-2.621161 -0.805853,-5.458089 -1.15625,-8.40625 z" />
      <path
         style="opacity:0.55230126;fill:url(#linearGradient4027);fill-opacity:1;stroke:#000000;stroke-width:0;stroke-linecap:butt;stroke-linejoin:miter;stroke-miterlimit:4;stroke-opacity:1;filter:url(#filter4074)"
         d="m 82.51694,91.008525 c -0.796728,0.01968 -1.609178,0.41666 -1.743416,2.051366 -0.0453,0.551642 -0.03179,1.230629 0.195728,2.006942 0.14464,0.487962 0.29137,1.042283 0.438704,1.589908 -0.209506,0.0824 -0.409414,0.170004 -0.627814,0.250847 -1.367844,0.499826 -2.916979,0.977154 -4.380882,1.587768 -1.447334,0.593709 -2.759596,1.35539 -3.357335,2.294694 -0.38886,0.64609 -0.374283,1.33539 0.0462,1.97926 0.425353,0.64847 1.258047,1.23478 2.366109,1.68842 1.128742,0.46098 2.516235,0.77278 3.986316,0.90637 1.508985,0.13734 3.07076,0.082 4.470578,-0.13821 0.03291,-0.005 0.06349,-0.0102 0.09613,-0.0153 0.08635,0.22887 0.180099,0.46838 0.266229,0.68626 0.108349,0.26692 0.209556,0.54148 0.17938,0.81957 -0.08661,0.64963 -0.905532,1.16653 -1.809477,1.46937 -1.52312,0.50808 -3.052741,0.4721 -3.660931,0.44597 -0.232733,-0.008 -0.339725,-0.0223 -0.339725,-0.0223 -0.21479,-0.0483 -0.180695,-0.24492 0.315325,-0.37376 0.01223,-0.004 0.02583,-0.005 0.0386,-0.008 0.554401,-0.15054 0.925985,-0.41572 0.951424,-0.72551 0.04035,-0.4913 -0.809298,-0.90552 -1.916592,-0.92343 -0.454581,-0.007 -0.882409,0.0577 -1.228008,0.16538 -0.004,0.001 -0.01497,-0.002 -0.01895,-3.1e-4 -0.03179,0.009 -0.06608,0.0217 -0.09751,0.0321 -0.04601,0.0166 -0.076,0.0387 -0.118535,0.057 -0.08261,0.034 -0.164371,0.0681 -0.237069,0.11403 -0.04596,0.0291 -0.100198,0.0562 -0.140248,0.0904 -0.0119,0.0107 -0.02871,0.0216 -0.04066,0.033 -0.0077,0.007 -0.01362,0.0173 -0.02102,0.0249 -0.0551,0.0524 -0.09604,0.10885 -0.12751,0.16632 -0.0015,0.003 8.4e-4,0.006 -6.92e-4,0.008 -0.02885,0.055 -0.04691,0.10903 -0.05171,0.16755 -0.03812,0.18583 0.018,0.39608 0.235922,0.59316 0.297225,0.25371 0.770073,0.43834 1.245812,0.54213 0.503347,0.11052 0.948432,0.14682 1.220031,0.16285 0,0 0.102243,0.0138 0.301824,0.0217 0.59277,0.0257 2.194152,0.0808 3.852506,-0.46814 0.957785,-0.31921 1.828357,-0.86845 1.931464,-1.56843 0.03208,-0.29685 -0.06946,-0.57755 -0.177309,-0.84478 -0.08734,-0.2271 -0.176142,-0.47999 -0.263466,-0.7199 0.362794,-0.0661 0.719904,-0.1441 1.044028,-0.2357 1.16671,-0.32945 2.039746,-0.80938 2.540252,-1.35653 0.693195,-0.7537 0.588432,-1.58643 -0.193964,-2.25949 -0.425737,-0.35903 -1.035536,-0.66115 -1.749492,-0.87862 -0.763788,-0.2321 -1.633525,-0.36139 -2.49139,-0.39387 -0.237617,-0.008 -0.472145,-0.009 -0.701851,-0.003 -0.02344,-0.09346 -0.04905,-0.18544 -0.07196,-0.278996 -0.208129,-0.850143 -0.405986,-1.703086 -0.588776,-2.535288 1.11659,-0.568367 1.984022,-1.167343 2.51171,-1.702177 0.02026,-0.02061 0.04216,-0.03732 0.06169,-0.05794 0.447246,-0.466889 0.690905,-0.878909 0.839867,-1.21563 0.236563,-0.534746 0.230977,-1.098933 0.0068,-1.700575 -0.195923,-0.525852 -1.190225,-1.260829 -2.214199,-1.458645 -0.235084,-0.04542 -0.506553,-0.07798 -0.772129,-0.07142 z m 0.504912,1.24579 c 0.709968,-0.0052 1.909518,0.297972 2.007201,0.975401 0.04563,0.314119 0.0061,0.664041 -0.118688,0.983132 -0.156355,0.398716 -0.471704,0.792746 -0.948736,1.154936 -0.514388,0.395487 -1.237941,0.748218 -2.043709,1.08672 -0.105482,-0.479729 -0.214357,-0.964449 -0.319861,-1.419602 -0.157602,-0.722781 -0.221744,-1.576141 -0.03208,-1.920104 0.156677,-0.28416 0.302052,-0.685879 1.188493,-0.839548 0.07674,-0.0133 0.165951,-0.0202 0.267375,-0.02094 z m -1.393855,5.188971 c 0.19915,0.752122 0.405334,1.530946 0.624988,2.325393 0.02556,0.09243 0.04591,0.186372 0.07196,0.279001 -0.684064,0.0451 -1.322059,0.15834 -1.865796,0.3066 -0.954163,0.26157 -1.593739,0.63266 -1.942744,1.01258 -0.437101,0.47881 -0.405241,0.94333 -0.201767,1.30172 0.23358,0.40812 0.671511,0.67748 0.993551,0.84115 0.32204,0.16366 0.531607,0.22749 0.531607,0.22749 0,0 -0.922651,-0.33699 -1.12375,-1.10424 -0.08713,-0.33508 0.0165,-0.74679 0.491167,-1.12866 0.375886,-0.30219 0.994221,-0.577 1.787997,-0.74567 0.454767,-0.0967 0.96365,-0.15845 1.494003,-0.16949 0.432718,1.48953 0.916623,2.97122 1.410936,4.3082 -0.06932,0.0147 -0.139035,0.0334 -0.212595,0.0471 -0.735631,0.14482 -1.674155,0.24789 -2.807097,0.21562 -0.397157,-0.0113 -0.841172,-0.0431 -1.301355,-0.0968 -1.164998,-0.13576 -2.461794,-0.43944 -3.472587,-0.92332 -0.876327,-0.41979 -1.514448,-0.96687 -1.771438,-1.53568 -0.25588,-0.56635 -0.126769,-1.14695 0.26729,-1.63743 0.70197,-0.88892 2.16646,-1.482827 3.114359,-1.877658 0.05649,-0.02305 0.122319,-0.0421 0.176076,-0.06451 1.242669,-0.507494 2.571524,-1.02803 3.735192,-1.581368 z m 1.259175,3.152314 c 0.138843,0.004 0.277656,0.004 0.416216,0.0151 0.624271,0.048 1.237725,0.17129 1.754399,0.35672 0.4832,0.17322 0.897289,0.40443 1.159654,0.66702 0.07518,0.0743 0.138475,0.15115 0.18981,0.23039 0.380081,0.58726 0.250106,1.0443 0.07144,1.44085 -0.141111,0.31193 -0.367692,0.59749 -0.774349,0.87992 -0.334096,0.23206 -0.799242,0.4682 -1.514408,0.64905 -0.462076,-1.30032 -0.911259,-2.74953 -1.302758,-4.23909 z"
         id="path4373"
         inkscape:connector-curvature="0" />
    </g>
    <path
       sodipodi:nodetypes="cscscssc"
       inkscape:connector-curvature="0"
       id="path6081"
       d="m 113.9,82.502986 c 0,4.465301 -10.43981,5.304142 -13.42995,5.727919 -6.394979,0.906328 -14.119031,-0.156997 -19.900201,-0.07598 -0.505268,6.06824 0.8669,24.053992 1.224403,26.575982 0.418175,2.94999 -3.883991,8.07209 -6.794261,8.07209 -2.091359,1.5337 3.488204,11.21101 6.734971,8.31989 C 91.23685,122.66182 127.7339,100.92151 135.95304,91.681321 137.99348,89.387401 118.88065,79.715335 113.9,82.502986 z"
       style="fill:#000000;fill-opacity:1;stroke:none;filter:url(#filter3827)"
       clip-path="url(#clipPath6093-7)"
       transform="matrix(1.2864191,0,0,1.3161866,-33.246593,-37.128335)" />
    <rect
       transform="matrix(0,1,-1,0,0,0)"
       style="fill:#000000;fill-opacity:1;stroke:none"
       id="rect3814"
       width="24"
       height="8"
       x="64"
       y="-96"
       rx="0"
       ry="0" />
    <path
       style="fill:url(#linearGradient3895-3);fill-opacity:1;stroke:none"
       d="m 111.63282,69.537665 c 0,6.018752 -3.68896,8.639938 -6.96218,10.909345 -6.736467,4.670565 -20.601656,3.681674 -28.225086,3.790881 -0.106814,7.792391 0.681931,20.811609 -3.887352,27.697379 -2.220198,3.3458 -6.53768,8.14845 -10.375353,8.14845 3.056706,0 6.25422,-1.79911 10.000786,-5.50589 12.055202,-11.92716 22.901451,-21.748749 33.854305,-34.098401 2.53047,-2.853145 5.59488,-4.908872 5.59488,-10.941764 z"
       id="path6011"
       inkscape:connector-curvature="0"
       sodipodi:nodetypes="cscscssc" />
    <path
       style="fill:#ffffff;fill-opacity:1;stroke:none"
       d="m 110.71058,68.281346 c -0.41723,5.255588 -4.27313,7.093026 -6.37262,8.548644 C 99.360203,80.281173 92.747881,80 72,80 c 0,19.101497 0.485919,27.6002 -3.129233,32.26786 -2.152106,2.77868 -6.461106,5.87696 -9.97277,6.67209 4.811835,0 8.170308,-1.05121 11.313766,-4.16129 C 70.658946,114.25496 79.29853,105.10667 80,104 c 0,-8 0,-4.430898 0,-16 7.62343,-0.109179 8,0 16,0 0.746829,0 10.14294,-9.613144 10.69263,-10.162835 3.05326,-3.053253 3.71528,-4.99949 4.01795,-9.555819 z M 58.897997,118.93995 c -0.207898,0.0469 -0.413317,0.0558 -0.618125,0.0842 0.20702,-0.0228 0.409371,-0.0452 0.618125,-0.0842 z"
       id="path6122"
       inkscape:connector-curvature="0"
       sodipodi:nodetypes="cscsccccsscccc" />
    <path
       style="fill:none;stroke:url(#radialGradient3919-5);stroke-width:1.85605633;stroke-linecap:butt;stroke-linejoin:miter;stroke-miterlimit:4;stroke-opacity:1;stroke-dasharray:none;filter:url(#filter3909-6)"
       d="M 108.97651,89.508691 79.934895,118.21077"
       id="path3873"
       inkscape:connector-curvature="0"
       sodipodi:nodetypes="cc"
       clip-path="url(#clipPath3889-6)"
       transform="matrix(1.3186655,0,0,1.3478946,-36.057732,-41.667663)" />
    <rect
       transform="matrix(0,1,-1,0,0,0)"
       style="fill:#000000;fill-opacity:1;stroke:none"
       id="rect3810"
       width="40"
       height="8"
       x="64"
       y="-48"
       rx="0"
       ry="0" />
    <rect
       ry="0"
       rx="0"
       y="-64"
       x="64"
       height="8"
       width="40"
       id="rect3812"
       style="fill:#000000;fill-opacity:1;stroke:none"
       transform="matrix(0,1,-1,0,0,0)" />
    <rect
       y="64"
       x="48"
       height="56"
       width="8"
       id="rect3826"
       style="fill:#000000;fill-opacity:0.06417111;stroke:none" />
    <rect
       style="fill:#000000;fill-opacity:0.06417111;stroke:none"
       id="rect3828"
       width="8"
       height="56"
       x="64"
       y="64" />
    <rect
       y="64"
       x="80"
       height="16"
       width="8"
       id="rect3830"
       style="fill:#000000;fill-opacity:0.06417111;stroke:none" />
    <rect
       y="112"
       x="40"
       height="8"
       width="8"
       id="rect3836"
       style="fill:#000000;fill-opacity:0.06417111;stroke:none" />
    <rect
       style="fill:#000000;fill-opacity:0.06417111;stroke:none"
       id="rect3838"
       width="8"
       height="8"
       x="56"
       y="112" />
  </g>
</svg>
