<?xml version="1.0" encoding="UTF-8" standalone="no"?>
<!-- Created with Inkscape (http://www.inkscape.org/) -->

<svg
   xmlns:dc="http://purl.org/dc/elements/1.1/"
   xmlns:cc="http://creativecommons.org/ns#"
   xmlns:rdf="http://www.w3.org/1999/02/22-rdf-syntax-ns#"
   xmlns:svg="http://www.w3.org/2000/svg"
   xmlns="http://www.w3.org/2000/svg"
   xmlns:xlink="http://www.w3.org/1999/xlink"
   xmlns:sodipodi="http://sodipodi.sourceforge.net/DTD/sodipodi-0.dtd"
   xmlns:inkscape="http://www.inkscape.org/namespaces/inkscape"
   width="128"
   height="128"
   id="svg2606"
   sodipodi:version="0.32"
   inkscape:version="0.48.0 r9654"
   version="1.0"
   sodipodi:docname="application-x-zerosize.svgz"
   inkscape:output_extension="org.inkscape.output.svgz.inkscape"
   inkscape:export-filename="/home/pinheiro/pics/oxygen-icons/scalable/mimetypes/small/16x16/x-office-document.png"
   inkscape:export-xdpi="180"
   inkscape:export-ydpi="180">
  <defs
     id="defs2608">
    <linearGradient
       id="linearGradient6131">
      <stop
         id="stop6133"
         offset="0"
         style="stop-color:#fcfcfc;stop-opacity:1" />
      <stop
         style="stop-color:#f8f8f8;stop-opacity:1"
         offset="0.52275378"
         id="stop6135" />
      <stop
         id="stop6141"
         offset="0.77457333"
         style="stop-color:#f0efef;stop-opacity:1;" />
      <stop
         id="stop6139"
         offset="0.90122044"
         style="stop-color:#e3e1e1;stop-opacity:1;" />
      <stop
         id="stop6137"
         offset="1"
         style="stop-color:#cecbcb;stop-opacity:1" />
    </linearGradient>
    <linearGradient
       inkscape:collect="always"
       xlink:href="#linearGradient6131"
       id="linearGradient3893"
       gradientUnits="userSpaceOnUse"
       gradientTransform="matrix(1.0119858,0,0,1.0119858,-0.89554075,-0.9871566)"
       x1="86.73793"
       y1="93.621468"
       x2="95.460213"
       y2="102.34375" />
    <radialGradient
       inkscape:collect="always"
       xlink:href="#linearGradient3913-5"
       id="radialGradient3919-5"
       cx="90.75"
       cy="110.25299"
       fx="90.75"
       fy="110.25299"
       r="18.750002"
       gradientTransform="matrix(1.3067347,0,0,1.3067347,-27.83617,-33.818441)"
       gradientUnits="userSpaceOnUse" />
    <linearGradient
       inkscape:collect="always"
       id="linearGradient3913-5">
      <stop
         style="stop-color:#ffffff;stop-opacity:1;"
         offset="0"
         id="stop3915-4" />
      <stop
         style="stop-color:#ffffff;stop-opacity:0;"
         offset="1"
         id="stop3917-7" />
    </linearGradient>
    <clipPath
       clipPathUnits="userSpaceOnUse"
       id="clipPath3889-6">
      <path
         sodipodi:nodetypes="cscscssc"
         inkscape:connector-curvature="0"
         id="path3891-5"
         d="m 112,82.502986 c 0,4.465301 -2.79749,6.409952 -5.27972,8.093625 -5.10854,3.46508 -14.939114,3.32536 -20.720284,3.40638 -0.081,5.781159 0.16586,15.504599 -3.29922,20.613139 -1.68367,2.48224 -5.29051,5.38687 -8.20078,5.38687 2.31803,0 4.74284,-1.33476 7.58402,-4.08481 9.14197,-8.84873 17.36714,-16.13535 25.673154,-25.297529 C 109.67612,88.503916 112,86.97878 112,82.502986 z"
         style="fill:url(#linearGradient3893);fill-opacity:1;stroke:none" />
    </clipPath>
    <filter
       color-interpolation-filters="sRGB"
       inkscape:collect="always"
       id="filter3909-6">
      <feGaussianBlur
         inkscape:collect="always"
         stdDeviation="0.43040059"
         id="feGaussianBlur3911-9" />
    </filter>
    <linearGradient
       inkscape:collect="always"
       xlink:href="#linearGradient3897-7"
       id="linearGradient3895-3"
       gradientUnits="userSpaceOnUse"
       gradientTransform="matrix(1.3344708,0,0,1.3640502,-37.238647,-42.998247)"
       x1="82.15696"
       y1="90.381706"
       x2="94.220871"
       y2="102.18401" />
    <linearGradient
       id="linearGradient3897-7">
      <stop
         style="stop-color:#fcfcfc;stop-opacity:1"
         offset="0"
         id="stop3899-4" />
      <stop
         id="stop3901-5"
         offset="0.52275378"
         style="stop-color:#f8f8f8;stop-opacity:1" />
      <stop
         style="stop-color:#f0efef;stop-opacity:1;"
         offset="0.72337759"
         id="stop3903-2" />
      <stop
         style="stop-color:#e3e1e1;stop-opacity:1;"
         offset="0.89024991"
         id="stop3905-5" />
      <stop
         style="stop-color:#cecbcb;stop-opacity:1"
         offset="1"
         id="stop3907-4" />
    </linearGradient>
    <clipPath
       clipPathUnits="userSpaceOnUse"
       id="clipPath6093-7">
      <path
         inkscape:connector-curvature="0"
         sodipodi:nodetypes="cccssccc"
         id="path6095-4"
         d="m 17.000001,8 0.782827,110 57.5,0 c 1.675283,0 3.119418,0.18058 4.9,-1.6 8.797935,-8.79794 21.481402,-23.383226 28.739972,-30.707378 2.44056,-2.462612 2.80096,-4.47117 2.80096,-6.724043 L 110,8 z"
         style="fill:#ffffff;fill-opacity:1" />
    </clipPath>
    <radialGradient
       inkscape:collect="always"
       xlink:href="#linearGradient5982-7"
       id="radialGradient5988-0"
       cx="68.138977"
       cy="89.42041"
       fx="67.932365"
       fy="72.691223"
       r="47.5"
       gradientTransform="matrix(1.5860719,-0.07936281,0.06485072,1.2953772,-41.872296,-14.425457)"
       gradientUnits="userSpaceOnUse" />
    <linearGradient
       inkscape:collect="always"
       id="linearGradient5982-7">
      <stop
         style="stop-color:#ffffff;stop-opacity:1;"
         offset="0"
         id="stop5984-8" />
      <stop
         style="stop-color:#ffffff;stop-opacity:0;"
         offset="1"
         id="stop5986-6" />
    </linearGradient>
    <filter
       color-interpolation-filters="sRGB"
       inkscape:collect="always"
       id="filter6171-8"
       x="-0.47870937"
       width="1.9574188"
       y="-0.51275069"
       height="2.0255013">
      <feGaussianBlur
         inkscape:collect="always"
         stdDeviation="10.140743"
         id="feGaussianBlur6173-8" />
    </filter>
    <linearGradient
       inkscape:collect="always"
       xlink:href="#linearGradient4518-3"
       id="linearGradient4524-4"
       x1="47.236164"
       y1="22.150356"
       x2="72"
       y2="116.40091"
       gradientUnits="userSpaceOnUse"
       gradientTransform="matrix(0.94173025,0,0,0.94148681,3.5162756,3.1457312)" />
    <linearGradient
       id="linearGradient4518-3">
      <stop
         style="stop-color:#eeecec;stop-opacity:1"
         offset="0"
         id="stop4520-1" />
      <stop
         id="stop5969-4"
         offset="0.40000001"
         style="stop-color:#f4f4f4;stop-opacity:1" />
      <stop
         style="stop-color:#f6f5f5;stop-opacity:1"
         offset="1"
         id="stop4522-9" />
    </linearGradient>
    <filter
       inkscape:collect="always"
       id="filter4123">
      <feGaussianBlur
         inkscape:collect="always"
         stdDeviation="2.028"
         id="feGaussianBlur4125" />
    </filter>
    <filter
       inkscape:collect="always"
       id="filter3822">
      <feGaussianBlur
         inkscape:collect="always"
         stdDeviation="2.7153804"
         id="feGaussianBlur3824" />
    </filter>
    <filter
       inkscape:collect="always"
       id="filter3827"
       x="-0.084733292"
       width="1.1694666"
       y="-0.10505005"
       height="1.2101001">
      <feGaussianBlur
         inkscape:collect="always"
         stdDeviation="2.1734796"
         id="feGaussianBlur3829" />
    </filter>
    <radialGradient
       r="47.752403"
       fy="55.27507"
       fx="64.348595"
       cy="55.27507"
       cx="64.348595"
       gradientTransform="matrix(1.136148,0,0,1.0158138,-41.024967,-14.655338)"
       gradientUnits="userSpaceOnUse"
       id="radialGradient3231"
       xlink:href="#linearGradient8528"
       inkscape:collect="always" />
    <linearGradient
       inkscape:collect="always"
       id="linearGradient5982">
      <stop
         style="stop-color:#ffffff;stop-opacity:1;"
         offset="0"
         id="stop5984" />
      <stop
         style="stop-color:#ffffff;stop-opacity:0;"
         offset="1"
         id="stop5986" />
    </linearGradient>
    <radialGradient
       inkscape:collect="always"
       xlink:href="#linearGradient5982"
       id="radialGradient3406"
       gradientUnits="userSpaceOnUse"
       gradientTransform="matrix(1.6842105,-0.08429519,0.06886339,1.3758846,-48.197002,-18.663233)"
       cx="64"
       cy="64.004021"
       fx="63.793392"
       fy="47.274845"
       r="47.5" />
    <mask
       maskUnits="userSpaceOnUse"
       id="mask3402">
      <path
         style="opacity:0.84653476;fill:url(#radialGradient3406);fill-opacity:1"
         d="m 38.786968,8.5 c -0.339844,0 -0.5,0.2346178 -0.5,0.5 l 0,108.96875 c 0,0.82158 0.679323,1.49925 1.5,1.5 L 74,119.5 c 0.05307,5e-5 0.997884,-0.008 1.6875,5e-5 10.098603,-3.99538 2.862961,-22.453284 11.80819,-31.455094 1.47685,-1.656484 1.11385,-1.151317 1.45391,-2.888706 L 88.94966,9 c 0,-0.3227174 -0.16322,-0.5 -0.5,-0.5 z"
         id="path3404"
         inkscape:connector-curvature="0"
         sodipodi:nodetypes="ccssscccccc" />
    </mask>
    <linearGradient
       id="linearGradient8528">
      <stop
         style="stop-color:#888888;stop-opacity:0.39215687;"
         offset="0"
         id="stop8530" />
      <stop
         id="stop8540"
         offset="0.5"
         style="stop-color:#888888;stop-opacity:1;" />
      <stop
         style="stop-color:#888888;stop-opacity:0.39215687;"
         offset="1"
         id="stop8532" />
    </linearGradient>
    <radialGradient
       inkscape:collect="always"
       xlink:href="#linearGradient8528"
       id="radialGradient3444"
       gradientUnits="userSpaceOnUse"
       gradientTransform="matrix(0.671928,0,0,0.60076129,-11.153064,8.286718)"
       cx="64.348595"
       cy="55.27507"
       fx="64.348595"
       fy="55.27507"
       r="47.752403" />
    <filter
       color-interpolation-filters="sRGB"
       inkscape:collect="always"
       id="filter6448">
      <feGaussianBlur
         inkscape:collect="always"
         stdDeviation="0.37043075"
         id="feGaussianBlur6450" />
    </filter>
    <radialGradient
       cx="54.212399"
       cy="18.0903"
       r="26.416201"
       id="XMLID_14_"
       gradientUnits="userSpaceOnUse">
      <stop
         style="stop-color:#f0ff80;stop-opacity:1"
         offset="0.33140001"
         id="stop74" />
      <stop
         style="stop-color:#00ff00;stop-opacity:0;"
         offset="0.67438829"
         id="stop3926" />
    </radialGradient>
    <radialGradient
       inkscape:collect="always"
       xlink:href="#XMLID_14_"
       id="radialGradient4527"
       gradientUnits="userSpaceOnUse"
       gradientTransform="matrix(0.624346,0,0,0.624346,45.032334,16.880096)"
       cx="54.212399"
       cy="18.0903"
       r="26.416201" />
    <linearGradient
       id="linearGradient3199"
       gradientUnits="userSpaceOnUse"
       x1="40.117199"
       y1="49"
       x2="48.117199"
       y2="49">
      <stop
         offset="0"
         style="stop-color:#008e00;stop-opacity:1;"
         id="stop3201" />
      <stop
         offset="0.2294"
         style="stop-color:#008700"
         id="stop3203" />
      <stop
         offset="0.5127"
         style="stop-color:#007800"
         id="stop3205" />
      <stop
         offset="0.8231"
         style="stop-color:#005F00"
         id="stop3207" />
      <stop
         offset="1"
         style="stop-color:#004D00"
         id="stop3209" />
    </linearGradient>
    <filter
       color-interpolation-filters="sRGB"
       inkscape:collect="always"
       id="filter3619-6">
      <feGaussianBlur
         inkscape:collect="always"
         stdDeviation="0.69944247"
         id="feGaussianBlur3621-6" />
    </filter>
    <linearGradient
       y2="19.949699"
       x2="52.913101"
       y1="8.6162004"
       x1="62.246101"
       gradientUnits="userSpaceOnUse"
       id="linearGradient5332-8">
      <stop
         id="stop5334-9"
         style="stop-color:#000000;stop-opacity:0;"
         offset="0" />
      <stop
         id="stop5336-2"
         style="stop-color:#07631a;stop-opacity:1;"
         offset="1" />
    </linearGradient>
    <filter
       color-interpolation-filters="sRGB"
       inkscape:collect="always"
       x="-0.073310807"
       width="1.1466216"
       y="-0.13902833"
       height="1.2780566"
       id="filter2844-0">
      <feGaussianBlur
         inkscape:collect="always"
         stdDeviation="0.73249726"
         id="feGaussianBlur2846-6" />
    </filter>
    <linearGradient
       id="linearGradient2848-4">
      <stop
         style="stop-color:#c3ff6a;stop-opacity:1;"
         offset="0"
         id="stop2850-9" />
      <stop
         style="stop-color:#a6ff88;stop-opacity:0;"
         offset="1"
         id="stop2852-2" />
    </linearGradient>
    <filter
       color-interpolation-filters="sRGB"
       inkscape:collect="always"
       id="filter5558-3">
      <feGaussianBlur
         inkscape:collect="always"
         stdDeviation="0.61029092"
         id="feGaussianBlur5560-1" />
    </filter>
    <radialGradient
       gradientUnits="userSpaceOnUse"
       fy="88.667"
       fx="17.117201"
       r="14"
       cy="94"
       cx="19.783701"
       id="radialGradient4531-6">
      <stop
         id="stop4533-8"
         style="stop-color:#ffffff;stop-opacity:1;"
         offset="0" />
      <stop
         offset="0.5"
         style="stop-color:#ffffff;stop-opacity:0.70886075;"
         id="stop4537-8" />
      <stop
         id="stop4535-4"
         style="stop-color:#ffffff;stop-opacity:0;"
         offset="1" />
    </radialGradient>
    <filter
       color-interpolation-filters="sRGB"
       inkscape:collect="always"
       x="-0.12256312"
       width="1.2451262"
       y="-0.17750549"
       height="1.355011"
       id="filter6116-7">
      <feGaussianBlur
         inkscape:collect="always"
         stdDeviation="2.0368781"
         id="feGaussianBlur6118-8" />
    </filter>
    <linearGradient
       id="linearGradient4540-4">
      <stop
         style="stop-color:#008800;stop-opacity:1;"
         offset="0"
         id="stop4542-3" />
      <stop
         style="stop-color:#0aa800;stop-opacity:0.60759491;"
         offset="1"
         id="stop4544-0" />
    </linearGradient>
    <radialGradient
       id="XMLID_10_-5"
       cx="23.783701"
       cy="100"
       r="25.195101"
       gradientUnits="userSpaceOnUse">
      <stop
         offset="0"
         style="stop-color:#287f00;stop-opacity:1;"
         id="stop35-4" />
      <stop
         id="stop9094-7"
         style="stop-color:#3cf000;stop-opacity:1;"
         offset="0.5" />
      <stop
         offset="1"
         style="stop-color:#003a00;stop-opacity:1;"
         id="stop43-4" />
    </radialGradient>
    <linearGradient
       id="linearGradient3162"
       gradientUnits="userSpaceOnUse"
       x1="62.246101"
       y1="8.6162004"
       x2="52.913101"
       y2="19.949699">
      <stop
         offset="0"
         style="stop-color:#000000;stop-opacity:1;"
         id="stop3164" />
      <stop
         offset="1"
         style="stop-color:#000000;stop-opacity:0;"
         id="stop3166" />
    </linearGradient>
    <filter
       color-interpolation-filters="sRGB"
       inkscape:collect="always"
       x="-0.55894202"
       width="2.1178839"
       y="-0.012263282"
       height="1.0245266"
       id="filter5551-5">
      <feGaussianBlur
         inkscape:collect="always"
         stdDeviation="0.465785"
         id="feGaussianBlur5553-2" />
    </filter>
    <linearGradient
       id="linearGradient4390-9">
      <stop
         style="stop-color:#00a208;stop-opacity:1;"
         offset="0"
         id="stop4392-3" />
      <stop
         id="stop4398-7"
         offset="0.5"
         style="stop-color:#dfffa8;stop-opacity:1;" />
      <stop
         style="stop-color:#8aff47;stop-opacity:0.63291138;"
         offset="1"
         id="stop4394-4" />
    </linearGradient>
    <linearGradient
       id="XMLID_9_-5"
       gradientUnits="userSpaceOnUse"
       x1="40.117199"
       y1="49"
       x2="48.117199"
       y2="49">
      <stop
         offset="0"
         style="stop-color:#008e00;stop-opacity:1;"
         id="stop16-4" />
      <stop
         offset="0.2294"
         style="stop-color:#008700"
         id="stop18-7" />
      <stop
         offset="0.5127"
         style="stop-color:#007800"
         id="stop20-6" />
      <stop
         offset="0.8231"
         style="stop-color:#005F00"
         id="stop22-5" />
      <stop
         offset="1"
         style="stop-color:#004D00"
         id="stop24-6" />
    </linearGradient>
    <filter
       inkscape:collect="always"
       id="filter4422"
       x="-0.064233132"
       width="1.1284662"
       y="-0.22429854"
       height="1.4485971"
       color-interpolation-filters="sRGB">
      <feGaussianBlur
         inkscape:collect="always"
         stdDeviation="1.8073251"
         id="feGaussianBlur4424" />
    </filter>
    <linearGradient
       id="XMLID_13_-6"
       gradientUnits="userSpaceOnUse"
       x1="62.246101"
       y1="8.6162004"
       x2="52.913101"
       y2="19.949699">
      <stop
         offset="0"
         style="stop-color:#000000;stop-opacity:1;"
         id="stop88-1" />
      <stop
         offset="1"
         style="stop-color:#000000;stop-opacity:0;"
         id="stop104-5" />
    </linearGradient>
    <filter
       height="1.408259"
       y="-0.2041295"
       width="1.3293014"
       x="-0.16465071"
       id="filter4087"
       inkscape:collect="always">
      <feGaussianBlur
         id="feGaussianBlur4089"
         stdDeviation="4.2234282"
         inkscape:collect="always" />
    </filter>
    <linearGradient
       id="linearGradient4518-3-0">
      <stop
         id="stop4520-1-6"
         offset="0"
         style="stop-color:#eeecec;stop-opacity:1" />
      <stop
         style="stop-color:#f4f4f4;stop-opacity:1"
         offset="0.40000001"
         id="stop5969-4-8" />
      <stop
         id="stop4522-9-9"
         offset="1"
         style="stop-color:#f6f5f5;stop-opacity:1" />
    </linearGradient>
    <filter
       height="2.0255013"
       y="-0.51275069"
       width="1.9574188"
       x="-0.47870937"
       id="filter6171-8-4"
       inkscape:collect="always"
       color-interpolation-filters="sRGB">
      <feGaussianBlur
         id="feGaussianBlur6173-8-9"
         stdDeviation="10.140743"
         inkscape:collect="always" />
    </filter>
    <clipPath
       id="clipPath6093-7-6"
       clipPathUnits="userSpaceOnUse">
      <path
         style="fill:#ffffff;fill-opacity:1"
         d="m 17.000001,8 0.782827,110 57.5,0 c 1.675283,0 3.119418,0.18058 4.9,-1.6 C 88.980763,107.60206 99.94047,96.548195 107.19904,89.224043 109.6396,86.761431 110,84.752873 110,82.5 L 110,8 z"
         id="path6095-4-8"
         sodipodi:nodetypes="cccssccc"
         inkscape:connector-curvature="0" />
    </clipPath>
    <linearGradient
       id="linearGradient3897-7-4">
      <stop
         id="stop3899-4-4"
         offset="0"
         style="stop-color:#fcfcfc;stop-opacity:1" />
      <stop
         style="stop-color:#f8f8f8;stop-opacity:1"
         offset="0.52275378"
         id="stop3901-5-3" />
      <stop
         id="stop3903-2-0"
         offset="0.72337759"
         style="stop-color:#f0efef;stop-opacity:1;" />
      <stop
         id="stop3905-5-7"
         offset="0.89024991"
         style="stop-color:#e3e1e1;stop-opacity:1;" />
      <stop
         id="stop3907-4-8"
         offset="1"
         style="stop-color:#cecbcb;stop-opacity:1" />
    </linearGradient>
    <filter
       id="filter3909-6-5"
       inkscape:collect="always"
       color-interpolation-filters="sRGB">
      <feGaussianBlur
         id="feGaussianBlur3911-9-4"
         stdDeviation="0.43040059"
         inkscape:collect="always" />
    </filter>
    <clipPath
       id="clipPath3889-6-5"
       clipPathUnits="userSpaceOnUse">
      <path
         style="fill:url(#linearGradient3893-6);fill-opacity:1;stroke:none"
         d="m 112,82.502986 c 0,4.465301 -2.79749,6.409952 -5.27972,8.093625 -5.10854,3.46508 -14.939114,3.32536 -20.720284,3.40638 -0.081,5.781159 0.16586,15.504599 -3.29922,20.613139 -1.68367,2.48224 -5.29051,5.38687 -8.20078,5.38687 2.31803,0 4.74284,-1.33476 7.58402,-4.08481 9.14197,-8.84873 17.36714,-16.13535 25.673154,-25.297529 C 109.67612,88.503916 112,86.97878 112,82.502986 z"
         id="path3891-5-2"
         inkscape:connector-curvature="0"
         sodipodi:nodetypes="cscscssc" />
    </clipPath>
    <linearGradient
       id="linearGradient3913-5-3"
       inkscape:collect="always">
      <stop
         id="stop3915-4-7"
         offset="0"
         style="stop-color:#ffffff;stop-opacity:1;" />
      <stop
         id="stop3917-7-4"
         offset="1"
         style="stop-color:#ffffff;stop-opacity:0;" />
    </linearGradient>
    <radialGradient
       gradientUnits="userSpaceOnUse"
       gradientTransform="matrix(1.3067347,0,0,1.3067347,-27.83617,-33.818441)"
       r="18.750002"
       fy="110.25299"
       fx="90.75"
       cy="110.25299"
       cx="90.75"
       id="radialGradient3919-5-9"
       xlink:href="#linearGradient3913-5-3"
       inkscape:collect="always" />
    <linearGradient
       y2="102.34375"
       x2="95.460213"
       y1="93.621468"
       x1="86.73793"
       gradientTransform="matrix(1.0119858,0,0,1.0119858,-0.89554075,-0.9871566)"
       gradientUnits="userSpaceOnUse"
       id="linearGradient3893-6"
       xlink:href="#linearGradient6131-5"
       inkscape:collect="always" />
    <linearGradient
       id="linearGradient6131-5">
      <stop
         style="stop-color:#fcfcfc;stop-opacity:1"
         offset="0"
         id="stop6133-5" />
      <stop
         id="stop6135-4"
         offset="0.52275378"
         style="stop-color:#f8f8f8;stop-opacity:1" />
      <stop
         style="stop-color:#f0efef;stop-opacity:1;"
         offset="0.77457333"
         id="stop6141-7" />
      <stop
         style="stop-color:#e3e1e1;stop-opacity:1;"
         offset="0.90122044"
         id="stop6139-6" />
      <stop
         style="stop-color:#cecbcb;stop-opacity:1"
         offset="1"
         id="stop6137-5" />
    </linearGradient>
    <linearGradient
       inkscape:collect="always"
       xlink:href="#XMLID_9_-5"
       id="linearGradient3396"
       gradientUnits="userSpaceOnUse"
       gradientTransform="matrix(0.74210465,0,0,0.75799254,42.595073,11.28673)"
       x1="54.103237"
       y1="32.580181"
       x2="32.584381"
       y2="31.295557" />
    <linearGradient
       inkscape:collect="always"
       xlink:href="#XMLID_13_-6"
       id="linearGradient3405"
       gradientUnits="userSpaceOnUse"
       gradientTransform="matrix(0.659491,0,0,0.7901883,39.143041,5.8541748)"
       x1="44.117001"
       y1="88.249001"
       x2="44.117001"
       y2="83.652809" />
    <linearGradient
       inkscape:collect="always"
       xlink:href="#XMLID_9_-5"
       id="linearGradient3409"
       gradientUnits="userSpaceOnUse"
       gradientTransform="matrix(0.72835331,0,0,0.94853647,35.572485,16.713956)"
       x1="40.117199"
       y1="49"
       x2="48.117199"
       y2="49" />
    <radialGradient
       inkscape:collect="always"
       xlink:href="#XMLID_14_"
       id="radialGradient3412"
       gradientUnits="userSpaceOnUse"
       gradientTransform="matrix(0.624346,0,0,0.624346,45.032334,16.880096)"
       cx="54.212399"
       cy="18.0903"
       r="26.416201" />
    <linearGradient
       inkscape:collect="always"
       xlink:href="#linearGradient4390-9"
       id="linearGradient3414"
       gradientUnits="userSpaceOnUse"
       x1="44.142799"
       y1="3.4933131"
       x2="44.142799"
       y2="94.157005" />
    <linearGradient
       inkscape:collect="always"
       xlink:href="#XMLID_10_-5"
       id="linearGradient3416"
       gradientUnits="userSpaceOnUse"
       gradientTransform="matrix(0.6433337,0,0,0.5432152,37.044465,32.23032)"
       x1="0.1174117"
       y1="101.0003"
       x2="43.927124"
       y2="92.500053" />
    <linearGradient
       inkscape:collect="always"
       xlink:href="#linearGradient4540-4"
       id="linearGradient3418"
       gradientUnits="userSpaceOnUse"
       x1="3.9885471"
       y1="100.01298"
       x2="43.87418"
       y2="100.01298" />
    <radialGradient
       inkscape:collect="always"
       xlink:href="#radialGradient4531-6"
       id="radialGradient3420"
       gradientUnits="userSpaceOnUse"
       gradientTransform="matrix(0.6862309,-0.2788753,0.2607269,0.6833644,-0.06742055,33.863485)"
       cx="22.501722"
       cy="91.356857"
       fx="19.835222"
       fy="86.023857"
       r="14" />
    <radialGradient
       inkscape:collect="always"
       xlink:href="#linearGradient2848-4"
       id="radialGradient3422"
       gradientUnits="userSpaceOnUse"
       gradientTransform="matrix(1,-0.02648657,0.0139617,0.5271235,18.16764,52.58348)"
       cx="27.127048"
       cy="113.89391"
       fx="27.127048"
       fy="113.89391"
       r="11.990002" />
    <linearGradient
       inkscape:collect="always"
       xlink:href="#linearGradient5332-8"
       id="linearGradient3424"
       gradientUnits="userSpaceOnUse"
       gradientTransform="matrix(1,0,0,-1,39.75779,128)"
       x1="22.025112"
       y1="29.212114"
       x2="21.785669"
       y2="7.9726162" />
    <radialGradient
       inkscape:collect="always"
       xlink:href="#XMLID_13_-6"
       id="radialGradient3426"
       gradientUnits="userSpaceOnUse"
       gradientTransform="matrix(1,0,0,0.2670157,0,81.512404)"
       cx="39.890652"
       cy="94.426834"
       fx="39.890652"
       fy="94.426834"
       r="33.764351" />
  </defs>
  <sodipodi:namedview
     id="base"
     pagecolor="#ffffff"
     bordercolor="#666666"
     borderopacity="1.0"
     inkscape:pageopacity="0.0"
     inkscape:pageshadow="2"
     inkscape:zoom="2.8284272"
     inkscape:cx="18.469408"
     inkscape:cy="64.074683"
     inkscape:document-units="px"
     inkscape:current-layer="layer1"
     width="128px"
     height="128px"
     showgrid="true"
     inkscape:grid-points="true"
     showguides="true"
     inkscape:guide-bbox="true"
     inkscape:window-width="1224"
     inkscape:window-height="757"
     inkscape:window-x="201"
     inkscape:window-y="270"
     inkscape:snap-global="true"
     inkscape:window-maximized="0"
     inkscape:snap-page="true">
    <inkscape:grid
       id="GridFromPre046Settings"
       type="xygrid"
       originx="0px"
       originy="0px"
       spacingx="8px"
       spacingy="8px"
       color="#0000ff"
       empcolor="#0000ff"
       opacity="0.2"
       empopacity="0.4"
       empspacing="2"
       visible="true"
       enabled="true"
       snapvisiblegridlinesonly="true" />
    <sodipodi:guide
       orientation="1,0"
       position="-68,29.325902"
       id="guide4564" />
    <sodipodi:guide
       orientation="1,0"
       position="-121.62237,135.0574"
       id="guide3859" />
    <sodipodi:guide
       orientation="0,1"
       position="38.581514,-74.688154"
       id="guide4360" />
  </sodipodi:namedview>
  <metadata
     id="metadata2611">
    <rdf:RDF>
      <cc:Work
         rdf:about="">
        <dc:format>image/svg+xml</dc:format>
        <dc:type
           rdf:resource="http://purl.org/dc/dcmitype/StillImage" />
        <dc:title></dc:title>
      </cc:Work>
    </rdf:RDF>
  </metadata>
  <g
     inkscape:label="Livello 1"
     inkscape:groupmode="layer"
     id="layer1">
    <rect
       style="fill:#000000;fill-opacity:0.00392157000000000;stroke:none;opacity:0.01"
       id="rect3854"
       width="128"
       height="128"
       x="0"
       y="0" />
    <path
       style="opacity:0.45606695;fill:#000000;fill-opacity:1;filter:url(#filter4123)"
       d="m 13.333,5.3364 0,118.3304 49.8545,-0.0668 c 2.115554,-0.003 4.528919,-1.77169 7,-4.25 0.71234,-0.71442 1.440746,-1.39395 2.15625,-2.09375 0.415612,-0.40649 0.832187,-0.81443 1.25,-1.21875 7.773958,-7.40962 26.98341,-25.122599 34.21875,-33.099999 0.42065,-0.42064 0.81207,-0.8111 1.15625,-1.1875 1.46444,-1.49766 2.76158,-2.8378 2.99375,-5.8625 L 112,75.156251 111.9972,5.3364 z"
       id="path5990"
       inkscape:connector-curvature="0"
       sodipodi:nodetypes="ccsssccccccc"
       transform="matrix(0.94173025,0,0,0.94148681,3.5162752,3.1457285)" />
    <path
       transform="matrix(0.94173025,0,0,0.94148681,3.5162752,3.1457285)"
       style="fill:#000000;fill-opacity:1;filter:url(#filter3822)"
       d="m 12.96875,3.4375 c -1.48e-4,0.010416 -1.48e-4,0.020834 0,0.03125 -0.921246,0.1949457 -1.534484,0.9333582 -1.53125,1.875 l 0,118.73736 c -1.48e-4,0.0104 -1.48e-4,0.0209 0,0.0313 0.01925,1.0723 0.80288,1.85562 1.875,1.875 0.01042,1.5e-4 0.02083,1.5e-4 0.03125,0 l 52.529063,0 c 1.658286,0 4.069886,0.24689 7.15625,-1.84375 0.09606,-0.0692 0.180839,-0.15394 0.25,-0.25 -0.05642,0.0503 -0.118387,0.22919 0.0625,-0.0625 0.05493,-0.0473 0.106764,-0.0903 0.1875,-0.15625 0.219835,-0.17951 0.516782,-0.38621 0.78125,-0.59375 0.264468,-0.20754 0.493455,-0.39466 0.65625,-0.53125 0.0407,-0.0341 0.0777,-0.0491 0.125,-0.0937 0.02365,-0.0223 0.04509,-0.0687 0.09375,-0.125 0.02433,-0.0281 0.07533,-0.0459 0.125,-0.125 0.01159,-0.0185 0.01274,-0.0566 0.03125,-0.0937 9.792927,-9.35059 27.456717,-28.634354 38.499997,-39.8125 1.71056,-1.710561 3.78125,-3.905917 3.78125,-8.5625 l 0,-68.39361 c 1.5e-4,-0.010416 1.5e-4,-0.020834 0,-0.03125 -0.0194,-1.0720969 -0.80283,-1.8556268 -1.875,-1.875 -0.0104,-1.484e-4 -0.0209,-1.484e-4 -0.0313,0 l -102.27906,0 c -0.03303,-0.00313 -0.06067,0.00142 -0.09375,0 -0.08821,-0.00379 -0.161926,-0.00834 -0.25,0 -0.04162,-0.00237 -0.08338,-0.00237 -0.125,0 z"
       id="path3314"
       inkscape:connector-curvature="0"
       sodipodi:nodetypes="cccccccsccccscsccccsccccccccc" />
    <path
       style="fill:#ffffff;fill-opacity:1"
       d="m 16.072365,8.0771252 0,111.4992648 49.707827,-0.0771 c 1.577682,0 3.686257,-0.53663 6.592193,-3.42109 8.353294,-8.2916 30.207015,-29.952167 37.042715,-36.912327 2.29836,-2.340224 2.82611,-4.248961 2.82611,-6.389865 L 112.23821,8 z"
       id="path34"
       sodipodi:nodetypes="cccssccc"
       inkscape:connector-curvature="0" />
    <path
       style="fill:url(#linearGradient4524-4);fill-opacity:1"
       d="m 22.330709,13.864607 c -0.32004,0 -0.470863,0.220889 -0.470863,0.470743 l 0,98.04132 c 0,0.7735 0.639738,1.41283 1.412596,1.41224 l 38.774516,-0.0295 c 0.04998,-4e-5 0.763164,0.022 1.412595,0.0295 1.67408,-0.0377 2.949474,-0.70964 4.10221,-1.50006 0.990574,-0.274 27.991428,-26.655867 36.581047,-35.307802 1.28302,-1.292303 2.05813,-3.71715 2.05813,-4.609153 l 0,-58.036545 c 0,-0.303834 -0.15371,-0.470743 -0.47087,-0.470743 z"
       id="path3967"
       inkscape:connector-curvature="0"
       sodipodi:nodetypes="ccsssccscccc" />
    <path
       sodipodi:nodetypes="ccssscccccc"
       inkscape:connector-curvature="0"
       id="path5980"
       d="m 26.330709,17.864607 c -0.32004,0 -0.470863,0.220889 -0.470863,0.470743 l -4,94.04132 c -0.03287,0.77281 0.639752,1.40754 1.412596,1.41224 l 43.527137,0.26444 c 0.04998,3e-4 3.083114,-0.007 3.732546,4e-5 6.159831,-4.24013 28.87563,-26.117493 37.299625,-34.592579 0.61903,-0.694148 0.43093,-0.348416 1.36919,-1.513403 l 0,-63.612058 c 0,-0.303834 -0.15371,-0.470743 -0.47087,-0.470743 z"
       style="opacity:0.84653476;fill:url(#radialGradient5988-0);fill-opacity:1" />
    <path
       style="fill:#000000"
       d=""
       id="path2197" />
    <path
       clip-path="url(#clipPath6093-7)"
       style="opacity:0.34728035;fill:#000000;fill-opacity:1;stroke:none;filter:url(#filter6171-8)"
       d="m 116.12376,78.971565 c 0,4.465301 -6.19771,3.506816 -8.67994,5.190489 -5.10854,3.46508 -20.174687,2.225237 -25.955857,2.306257 -0.081,5.781159 -0.937221,19.675219 -0.937221,25.825239 0,2.97817 -3.440475,11.20945 -6.350745,11.20945 -2.091359,1.5337 3.488204,8.21101 6.734971,5.31989 9.501888,-8.46107 35.131682,-30.022704 43.350822,-39.262889 2.04044,-2.29392 -3.18138,-13.376087 -8.16203,-10.588436 z"
       id="path6153"
       inkscape:connector-curvature="0"
       sodipodi:nodetypes="cscscssc"
       transform="matrix(1.1813248,0,0,1.2086603,-24.263752,-24.510815)" />
    <path
       sodipodi:nodetypes="cscscssc"
       inkscape:connector-curvature="0"
       id="path6081"
       d="m 113.9,82.502986 c 0,4.465301 -10.43981,5.304142 -13.42995,5.727919 -6.394979,0.906328 -14.119031,-0.156997 -19.900201,-0.07598 -0.505268,6.06824 0.8669,24.053992 1.224403,26.575982 0.418175,2.94999 -3.883991,8.07209 -6.794261,8.07209 -2.091359,1.5337 3.488204,11.21101 6.734971,8.31989 C 91.23685,122.66182 127.7339,100.92151 135.95304,91.681321 137.99348,89.387401 118.88065,79.715335 113.9,82.502986 z"
       style="fill:#000000;fill-opacity:1;stroke:none;filter:url(#filter3827)"
       clip-path="url(#clipPath6093-7)"
       transform="matrix(1.2864191,0,0,1.3161866,-33.246593,-37.128335)" />
    <path
       style="fill:url(#linearGradient3895-3);fill-opacity:1;stroke:none"
       d="m 111.63282,69.537665 c 0,6.018752 -3.68896,8.639938 -6.96218,10.909345 -6.736467,4.670565 -20.601656,3.681674 -28.225086,3.790881 -0.106814,7.792391 0.681931,20.811609 -3.887352,27.697379 -2.220198,3.3458 -6.53768,8.14845 -10.375353,8.14845 3.056706,0 6.25422,-1.79911 10.000786,-5.50589 12.055202,-11.92716 22.901451,-21.748749 33.854305,-34.098401 2.53047,-2.853145 5.59488,-4.908872 5.59488,-10.941764 z"
       id="path6011"
       inkscape:connector-curvature="0"
       sodipodi:nodetypes="cscscssc" />
    <path
       style="fill:#ffffff;fill-opacity:1;stroke:none"
       d="m 110.71058,68.281346 c -0.41723,5.255588 -4.27313,7.093026 -6.37262,8.548644 C 99.360203,80.281173 92.747881,80 72,80 c 0,19.101497 0.485919,27.6002 -3.129233,32.26786 -2.152106,2.77868 -6.461106,5.87696 -9.97277,6.67209 4.811835,0 8.170308,-1.05121 11.313766,-4.16129 C 70.658946,114.25496 79.29853,105.10667 80,104 c 0,-8 0,-4.430898 0,-16 7.62343,-0.109179 8,0 16,0 0.746829,0 10.14294,-9.613144 10.69263,-10.162835 3.05326,-3.053253 3.71528,-4.99949 4.01795,-9.555819 z M 58.897997,118.93995 c -0.207898,0.0469 -0.413317,0.0558 -0.618125,0.0842 0.20702,-0.0228 0.409371,-0.0452 0.618125,-0.0842 z"
       id="path6122"
       inkscape:connector-curvature="0"
       sodipodi:nodetypes="cscsccccsscccc" />
    <path
       style="fill:none;stroke:url(#radialGradient3919-5);stroke-width:1.85605633;stroke-linecap:butt;stroke-linejoin:miter;stroke-miterlimit:4;stroke-opacity:1;stroke-dasharray:none;filter:url(#filter3909-6)"
       d="M 108.97651,89.508691 79.934895,118.21077"
       id="path3873"
       inkscape:connector-curvature="0"
       sodipodi:nodetypes="cc"
       clip-path="url(#clipPath3889-6)"
       transform="matrix(1.3186655,0,0,1.3478946,-36.057732,-41.667663)" />
    <path
       inkscape:connector-curvature="0"
       style="fill:#000000"
       d=""
       id="path2197-2" />
    <path
       transform="matrix(0.47947128,-0.0641133,0,-0.66741661,28.622022,178.51288)"
       d="m 79.195961,111.20621 a 33.764351,9.0156116 0 1 1 -67.528702,0 33.764351,9.0156116 0 1 1 67.528702,0 z"
       sodipodi:ry="9.0156116"
       sodipodi:rx="33.764351"
       sodipodi:cy="111.20621"
       sodipodi:cx="45.43161"
       id="path2268"
       style="fill:url(#radialGradient3426);fill-opacity:1;fill-rule:evenodd;stroke:none;filter:url(#filter4422)"
       sodipodi:type="arc" />
    <path
       inkscape:connector-curvature="0"
       sodipodi:nodetypes="ccccc"
       id="polygon26"
       d="m 64.791834,16.713956 6.008916,0 0,69.925256 -6.008916,-5.083131 z"
       style="fill:url(#linearGradient3409)" />
    <path
       inkscape:connector-curvature="0"
       transform="matrix(1.5022287,0,0,-0.71871813,0.02024,85.437284)"
       style="opacity:0.7;fill:url(#linearGradient3414);fill-opacity:1;filter:url(#filter5551-5)"
       id="path28"
       d="m 43.117,3 c 0,5.489 0,86.342 0,90.657 0.813,0.204 1.005,0.252 2,0.5 0,-6.867 0,-85.747 0,-91.157 -0.937,0 -1.062,0 -2,0 z" />
    <path
       inkscape:connector-curvature="0"
       sodipodi:nodetypes="cscccc"
       style="opacity:0.3;fill:url(#linearGradient3405);fill-opacity:1"
       id="path30"
       d="m 70.87578,71.510837 c -1.130369,-1.596971 -2.472434,-1.466512 -4.014325,-2.703156 -0.41416,-0.331878 -0.836235,-0.636892 -1.261607,-0.92531 l 0,13.829875 5.275932,4.374249 0,-14.575658 z" />
    <g
       transform="matrix(1.3769571,-0.16573221,0.16231526,1.3092502,-36.73768,-12.827737)"
       id="g4907">
      <path
         inkscape:connector-curvature="0"
         style="fill:url(#linearGradient3416);fill-opacity:1"
         id="path45"
         d="m 37.422745,90.448873 c 1.672024,5.389239 9.805048,8.256329 18.16517,6.40451 8.360764,-1.852368 13.780851,-7.722891 12.10947,-13.112134 C 66.02536,78.352554 57.892979,75.48492 49.532858,77.337284 41.172737,79.189648 35.750721,85.060176 37.422745,90.448873 z" />
      <path
         inkscape:connector-curvature="0"
         style="opacity:0.9;fill:url(#linearGradient3418);fill-opacity:1;filter:url(#filter6116-7)"
         id="path49"
         d="M 43.576,95.141 C 41.685,87.924 31.358,84.38 20.508,87.226 9.659,90.072 2.397,98.231 4.288,105.45 c 1.104,4.218 5.1,7.166 10.387,8.333 -3.231,-1.651 -5.652,-4.326 -6.545,-7.736 -1.904,-7.269 3.803,-15.064 12.748,-17.412 8.945,-2.347 17.741,1.644 19.645,8.912 0.894,3.41 0.095,6.931 -1.911,9.956 4.034,-3.612 6.069,-8.145 4.964,-12.362 z"
         transform="matrix(0.686105,0,0,0.5432152,36.321363,32.23032)" />
      <path
         inkscape:connector-curvature="0"
         d="m 34.447549,87.550082 c -7.626375,4.164496 -12.096252,10.313936 -9.566387,13.160718 1.100762,1.23833 3.231368,1.53678 4.823819,1.56891 4.124595,0.0834 9.446953,-1.428 14.234531,-4.042258 7.625626,-4.163549 12.09604,-10.314544 9.565214,-13.160989 -1.100763,-1.238336 -3.231366,-1.536781 -4.823822,-1.568919 -4.125344,-0.0825 -9.445778,1.428283 -14.233355,4.042538 z"
         id="path70"
         style="opacity:0.8;fill:url(#radialGradient3420);fill-opacity:1;filter:url(#filter5558-3)"
         transform="matrix(0.7077814,0,0,0.6148065,20.645198,26.252134)" />
      <path
         inkscape:connector-curvature="0"
         d="m 46.87479,109 c -7.172,1.882 -12.588,0.601 -11.925,3.134 0.273,1.045 1.302,1.832 2.116,2.308 2.241,1.311 6.431,2.239 11.471,0.917 7.171,-1.882 10.926,-6.96 10.263,-9.492 -0.273,-1.046 -1.302,-1.832 -2.116,-2.309 -2.241,-1.31 -4.77,4.12 -9.809,5.442 z"
         id="path72"
         style="opacity:0.6;fill:url(#radialGradient3422);fill-opacity:1;filter:url(#filter2844-0)"
         transform="matrix(0.7114081,0.1240747,-0.1849201,0.7638422,40.01216,0.650991)" />
      <path
         inkscape:connector-curvature="0"
         style="opacity:0.8;fill:url(#linearGradient3424);fill-opacity:1;filter:url(#filter3619-6)"
         d="m 87.84375,97.625 c -0.647929,8.38965 -8.33824,16.48063 -19.25,19.34375 -12.995,3.409 -25.651001,-1.86025 -28.25,-11.78125 -0.232934,-0.88908 -0.377065,-1.79014 -0.4375,-2.6875 -0.107691,1.56171 0.03141,3.1375 0.4375,4.6875 2.598999,9.921 15.255,15.19025 28.25,11.78125 11.777624,-3.09031 19.782779,-12.26827 19.25,-21.34375 z"
         id="path2338"
         clip-path="none"
         transform="matrix(0.6181529,0,0,0.5432152,13.113494,32.23032)" />
    </g>
    <path
       inkscape:connector-curvature="0"
       sodipodi:nodetypes="ccccc"
       d="M 77.933351,29.390622 C 74.166433,24.891179 72.200358,19.411652 70.80075,16.713956 l 0,18.054534 C 96.28759,45.496359 79.824982,74 79.824982,74 98.65292,54.606763 81.400468,33.531537 77.933351,29.390622 z"
       style="fill:url(#linearGradient3396);fill-opacity:1"
       id="path29" />
    <path
       transform="matrix(1.1016547,0,0,1.1016547,-4.1117702,-5.3191378)"
       inkscape:connector-curvature="0"
       d="m 73.283992,31.834433 c -3.124227,-3.830364 -3.782911,-6.407664 -4.516521,-7.486534 0,11.959973 3.892177,11.817622 0.318418,11.130841 C 75.426749,38.7397 80.299771,43.233118 82.158445,48 80.073753,40.152595 75.917481,35.062926 73.283992,31.834433 z"
       style="fill:url(#radialGradient3412);filter:url(#filter6448)"
       id="path90" />
  </g>
</svg>
