<?xml version="1.0" encoding="UTF-8" standalone="no"?>
<!-- Generator: Adobe Illustrator 12.0.0, SVG Export Plug-In . SVG Version: 6.00 Build 51448)  -->

<svg
   xmlns:ns="http://ns.adobe.com/SaveForWeb/1.0/"
   xmlns:dc="http://purl.org/dc/elements/1.1/"
   xmlns:cc="http://creativecommons.org/ns#"
   xmlns:rdf="http://www.w3.org/1999/02/22-rdf-syntax-ns#"
   xmlns:svg="http://www.w3.org/2000/svg"
   xmlns="http://www.w3.org/2000/svg"
   xmlns:xlink="http://www.w3.org/1999/xlink"
   xmlns:sodipodi="http://sodipodi.sourceforge.net/DTD/sodipodi-0.dtd"
   xmlns:inkscape="http://www.inkscape.org/namespaces/inkscape"
   version="1.1"
   id="Layer_1"
   width="128"
   height="128"
   viewBox="0 0 128 128"
   overflow="visible"
   enable-background="new 0 0 128 128"
   xml:space="preserve"
   sodipodi:version="0.32"
   inkscape:version="0.46+devel"
   sodipodi:docname="distribute-vertical-page.svgz"
   inkscape:output_extension="org.inkscape.output.svgz.inkscape"
   inkscape:export-filename="/home/pinheiro/artwork/Oxygen/scribus/scalable/small/16x16/distribute-vertical-page.png"
   inkscape:export-xdpi="11.25"
   inkscape:export-ydpi="11.25"><defs
   id="defs105"><radialGradient
     inkscape:collect="always"
     xlink:href="#XMLID_8_"
     id="radialGradient2883"
     gradientUnits="userSpaceOnUse"
     cx="102"
     cy="112.3047"
     r="139.55859" /><radialGradient
     inkscape:collect="always"
     xlink:href="#XMLID_7_"
     id="radialGradient2886"
     gradientUnits="userSpaceOnUse"
     cx="102"
     cy="112.3047"
     r="139.5585" /><linearGradient
     inkscape:collect="always"
     xlink:href="#XMLID_12_"
     id="linearGradient2902"
     gradientUnits="userSpaceOnUse"
     x1="96"
     y1="104"
     x2="88.0002"
     y2="96.0002" /><linearGradient
     inkscape:collect="always"
     xlink:href="#XMLID_11_"
     id="linearGradient2905"
     gradientUnits="userSpaceOnUse"
     x1="95"
     y1="103"
     x2="87.293"
     y2="95.293" /><linearGradient
     inkscape:collect="always"
     xlink:href="#XMLID_10_"
     id="linearGradient2908"
     gradientUnits="userSpaceOnUse"
     x1="95"
     y1="103"
     x2="86.5865"
     y2="94.5865" /><linearGradient
     inkscape:collect="always"
     xlink:href="#XMLID_9_"
     id="linearGradient2911"
     gradientUnits="userSpaceOnUse"
     x1="94.3438"
     y1="102.3447"
     x2="86.5356"
     y2="94.5366" /><linearGradient
     y2="32"
     x2="74.330322"
     y1="-5.8302126"
     x1="102.31124"
     gradientTransform="matrix(0,-0.6389833,-0.3828125,0,110.375,113.25436)"
     gradientUnits="userSpaceOnUse"
     id="linearGradient2343"
     xlink:href="#linearGradient3310"
     inkscape:collect="always" /><linearGradient
     y2="27.999992"
     x2="124.09152"
     y1="99.999985"
     x1="42.728634"
     gradientTransform="matrix(0.2500001,0,0,0.5555557,75.999995,24.444446)"
     gradientUnits="userSpaceOnUse"
     id="linearGradient2341"
     xlink:href="#linearGradient2431"
     inkscape:collect="always" /><linearGradient
     y2="549.06134"
     x2="399.77466"
     y1="1164.6696"
     x1="399.77466"
     gradientTransform="matrix(4.0485662e-2,0,0,9.1083475e-2,69.372429,-18.052478)"
     gradientUnits="userSpaceOnUse"
     id="linearGradient2339"
     xlink:href="#linearGradient7422"
     inkscape:collect="always" /><linearGradient
     y2="32"
     x2="74.330322"
     y1="-5.8302126"
     x1="102.31124"
     gradientTransform="matrix(0,-0.6389833,-0.3828125,0,62.375,113.25436)"
     gradientUnits="userSpaceOnUse"
     id="linearGradient2340"
     xlink:href="#linearGradient3310"
     inkscape:collect="always" /><linearGradient
     y2="27.999992"
     x2="124.09152"
     y1="99.999985"
     x1="42.728634"
     gradientTransform="matrix(0.2500001,0,0,0.5555557,27.999995,24.444446)"
     gradientUnits="userSpaceOnUse"
     id="linearGradient2338"
     xlink:href="#linearGradient2431"
     inkscape:collect="always" /><linearGradient
     y2="549.06134"
     x2="399.77466"
     y1="1164.6696"
     x1="399.77466"
     gradientTransform="matrix(4.0485662e-2,0,0,9.1083475e-2,21.372429,-18.052478)"
     gradientUnits="userSpaceOnUse"
     id="linearGradient2336"
     xlink:href="#linearGradient7422"
     inkscape:collect="always" /><linearGradient
     id="linearGradient2431"><stop
       style="stop-color:#ffffff;stop-opacity:1;"
       offset="0"
       id="stop2433" /><stop
       id="stop2435"
       offset="0.42597079"
       style="stop-color:#ffffff;stop-opacity:1;" /><stop
       id="stop2437"
       offset="0.5892781"
       style="stop-color:#f1f1f1;stop-opacity:1;" /><stop
       style="stop-color:#eaeaea;stop-opacity:1;"
       offset="0.80219781"
       id="stop2439" /><stop
       style="stop-color:#dfdfdf;stop-opacity:1;"
       offset="1"
       id="stop2441" /></linearGradient><linearGradient
     id="linearGradient7422"><stop
       style="stop-color:#b4b4b6;stop-opacity:1;"
       offset="0"
       id="stop7424" /><stop
       id="stop5348"
       offset="0.5"
       style="stop-color:#9c9ca1;stop-opacity:1;" /><stop
       id="stop7426"
       offset="1"
       style="stop-color:#cdcdd1;stop-opacity:1;" /></linearGradient><linearGradient
     id="linearGradient3310"
     inkscape:collect="always"><stop
       id="stop3312"
       offset="0"
       style="stop-color:#ffffff;stop-opacity:1;" /><stop
       id="stop3314"
       offset="1"
       style="stop-color:#ffffff;stop-opacity:0;" /></linearGradient><linearGradient
     inkscape:collect="always"
     xlink:href="#linearGradient3310"
     id="linearGradient3595"
     gradientUnits="userSpaceOnUse"
     gradientTransform="matrix(0.8345904,0,0,0.5,-3.4007779,16)"
     x1="102.31124"
     y1="-5.8302126"
     x2="74.330322"
     y2="32" /><linearGradient
     inkscape:collect="always"
     xlink:href="#linearGradient2431"
     id="linearGradient3598"
     gradientUnits="userSpaceOnUse"
     gradientTransform="matrix(0.2500001,0,0,0.5555557,35.999995,8.444446)"
     x1="42.728634"
     y1="99.999985"
     x2="124.09152"
     y2="27.999992" /><linearGradient
     inkscape:collect="always"
     xlink:href="#linearGradient7422"
     id="linearGradient3601"
     gradientUnits="userSpaceOnUse"
     gradientTransform="matrix(4.0485662e-2,0,0,9.1083475e-2,29.372429,-34.052478)"
     x1="399.77466"
     y1="1164.6696"
     x2="399.77466"
     y2="549.06134" /><linearGradient
     inkscape:collect="always"
     xlink:href="#linearGradient7422"
     id="linearGradient2377"
     gradientUnits="userSpaceOnUse"
     gradientTransform="matrix(4.0485662e-2,0,0,9.1083475e-2,29.372429,21.947522)"
     x1="399.77466"
     y1="1164.6696"
     x2="399.77466"
     y2="549.06134" /><linearGradient
     inkscape:collect="always"
     xlink:href="#linearGradient2431"
     id="linearGradient2379"
     gradientUnits="userSpaceOnUse"
     gradientTransform="matrix(0.2500001,0,0,0.5555557,35.999995,64.444446)"
     x1="42.728634"
     y1="99.999985"
     x2="124.09152"
     y2="27.999992" /><linearGradient
     inkscape:collect="always"
     xlink:href="#linearGradient3310"
     id="linearGradient2381"
     gradientUnits="userSpaceOnUse"
     gradientTransform="matrix(0.8345904,0,0,0.5,-3.4007779,72)"
     x1="102.31124"
     y1="-5.8302126"
     x2="74.330322"
     y2="32" /><clipPath
     clipPathUnits="userSpaceOnUse"
     id="clipPath2397"><path
       style="fill:none;fill-opacity:0.75;fill-rule:evenodd;stroke:#000000;stroke-width:1px;stroke-linecap:butt;stroke-linejoin:miter;stroke-opacity:1"
       d="M 23.5,64.5 C 31.5,64.5 103.5,64.5 103.5,64.5 L 103.5,96.500001 L 87.5,112.5 C 87.5,112.5 23.5,112.5 23.5,112.5 L 23.5,64.5 z "
       id="path2399" /></clipPath></defs><sodipodi:namedview
   inkscape:window-height="670"
   inkscape:window-width="1049"
   inkscape:pageshadow="2"
   inkscape:pageopacity="0.0"
   guidetolerance="10.0"
   gridtolerance="10.0"
   objecttolerance="10.0"
   borderopacity="1.0"
   bordercolor="#666666"
   pagecolor="#ffffff"
   id="base"
   inkscape:zoom="2.8284271"
   inkscape:cx="31.100587"
   inkscape:cy="77.254753"
   inkscape:window-x="581"
   inkscape:window-y="281"
   inkscape:current-layer="Layer_1"
   showgrid="true"
   showguides="true"
   inkscape:guide-bbox="true"><inkscape:grid
     id="GridFromPre046Settings"
     type="xygrid"
     originx="0px"
     originy="0px"
     spacingx="8px"
     spacingy="8px"
     color="#0000ff"
     empcolor="#0000ff"
     opacity="0.2"
     empopacity="0.4"
     empspacing="0" /></sodipodi:namedview>
<metadata
   id="metadata3">
	<ns:sfw>
		<ns:slices>
			<ns:slice
   y="0"
   x="0"
   height="128"
   width="128"
   sliceID="1316743234" />
		</ns:slices>
		<ns:sliceSourceBounds
   y="0"
   x="0"
   height="128"
   width="128"
   bottomLeftOrigin="true" />
		<ns:optimizationSettings>
			<ns:targetSettings
   targetSettingsID="0"
   fileFormat="PNG24Format">
				<ns:PNG24Format
   transparency="true"
   filtered="false"
   matteColor="#FFFFFF"
   noMatteColor="false"
   interlaced="false">
					</ns:PNG24Format>
			</ns:targetSettings>
			<ns:targetSettings
   targetSettingsID="1696735251"
   fileFormat="PNG24Format">
				<ns:PNG24Format
   transparency="true"
   filtered="false"
   matteColor="#FFFFFF"
   noMatteColor="false"
   interlaced="false">
					</ns:PNG24Format>
			</ns:targetSettings>
		</ns:optimizationSettings>
	</ns:sfw>
<rdf:RDF><cc:Work
     rdf:about=""><dc:format>image/svg+xml</dc:format><dc:type
       rdf:resource="http://purl.org/dc/dcmitype/StillImage" /><dc:title></dc:title></cc:Work></rdf:RDF></metadata>

<radialGradient
   id="XMLID_7_"
   cx="102"
   cy="112.3047"
   r="139.5585"
   gradientUnits="userSpaceOnUse">
	
	
	
	
	
	
	<stop
   offset="0"
   style="stop-color:#656565;stop-opacity:1;"
   id="stop28" />
	<stop
   offset="0.24349999"
   style="stop-color:#fcfcfc;stop-opacity:1;"
   id="stop30" />
	<stop
   offset="0.2722"
   style="stop-color:#FFFFFF"
   id="stop32" />
</radialGradient>

<radialGradient
   id="XMLID_8_"
   cx="102"
   cy="112.3047"
   r="139.55859"
   gradientUnits="userSpaceOnUse">
	<stop
   offset="0"
   style="stop-color:#535557"
   id="stop37" />
	
	<stop
   offset="0.11366145"
   style="stop-color:#898A8C"
   id="stop41" />
	
	
	<stop
   offset="0.20296688"
   style="stop-color:#ECECEC"
   id="stop47" />
	<stop
   offset="0.2363"
   style="stop-color:#FAFAFA"
   id="stop49" />
	<stop
   offset="0.2722"
   style="stop-color:#FFFFFF"
   id="stop51" />
	<stop
   offset="0.5313"
   style="stop-color:#FAFAFA"
   id="stop53" />
	<stop
   offset="0.8449"
   style="stop-color:#EBECEC"
   id="stop55" />
	<stop
   offset="1"
   style="stop-color:#E1E2E3"
   id="stop57" />
</radialGradient>

<linearGradient
   id="XMLID_9_"
   gradientUnits="userSpaceOnUse"
   x1="94.3438"
   y1="102.3447"
   x2="86.5356"
   y2="94.5366">
	<stop
   offset="0"
   style="stop-color:#FFFFFF"
   id="stop62" />
	<stop
   offset="1"
   style="stop-color:#555753"
   id="stop64" />
</linearGradient>

<linearGradient
   id="XMLID_10_"
   gradientUnits="userSpaceOnUse"
   x1="95"
   y1="103"
   x2="86.5865"
   y2="94.5865">
	<stop
   offset="0"
   style="stop-color:#FFFFFF"
   id="stop69" />
	<stop
   offset="1"
   style="stop-color:#555753"
   id="stop71" />
</linearGradient>

<linearGradient
   id="XMLID_11_"
   gradientUnits="userSpaceOnUse"
   x1="95"
   y1="103"
   x2="87.293"
   y2="95.293">
	<stop
   offset="0"
   style="stop-color:#FFFFFF"
   id="stop76" />
	<stop
   offset="1"
   style="stop-color:#393B38"
   id="stop78" />
</linearGradient>

<linearGradient
   id="XMLID_12_"
   gradientUnits="userSpaceOnUse"
   x1="96"
   y1="104"
   x2="88.0002"
   y2="96.0002">
	<stop
   offset="0"
   style="stop-color:#888A85"
   id="stop83" />
	<stop
   offset="0.0072"
   style="stop-color:#8C8E89"
   id="stop85" />
	<stop
   offset="0.0673"
   style="stop-color:#ABACA9"
   id="stop87" />
	<stop
   offset="0.1347"
   style="stop-color:#C5C6C4"
   id="stop89" />
	<stop
   offset="0.2115"
   style="stop-color:#DBDBDA"
   id="stop91" />
	<stop
   offset="0.3012"
   style="stop-color:#EBEBEB"
   id="stop93" />
	<stop
   offset="0.4122"
   style="stop-color:#F7F7F6"
   id="stop95" />
	<stop
   offset="0.5679"
   style="stop-color:#FDFDFD"
   id="stop97" />
	<stop
   offset="1"
   style="stop-color:#FFFFFF"
   id="stop99" />
</linearGradient>
<path
   id="path4696"
   d="M 16,8 L 16,118 C 16,119.104 16.896,120 18,120 L 77.1875,120 C 77.717503,120 78.21875,119.78125 78.59375,119.40625 C 78.593751,119.40625 90.5,109.5 96,104 C 101.5,98.5 111.40625,86.59375 111.40625,86.59375 C 111.78125,86.218751 112,85.7175 112,85.1875 L 112,8 L 16,8 z "
   style="opacity:0.1;fill:none;stroke:#000000;stroke-width:16;stroke-linejoin:round;stroke-miterlimit:4;stroke-dasharray:none;stroke-opacity:1"
   sodipodi:nodetypes="cccccscccc" /><path
   style="opacity:0.15;fill:none;stroke:#000000;stroke-width:12;stroke-linejoin:round;stroke-miterlimit:4;stroke-dasharray:none;stroke-opacity:1"
   d="M 16,8 L 16,118 C 16,119.104 16.896,120 18,120 L 77.1875,120 C 77.717503,120 78.21875,119.78125 78.59375,119.40625 C 78.593751,119.40625 90.5,109.5 96,104 C 101.5,98.5 111.40625,86.59375 111.40625,86.59375 C 111.78125,86.218751 112,85.7175 112,85.1875 L 112,8 L 16,8 z "
   id="path4694"
   sodipodi:nodetypes="cccccscccc" /><path
   id="path4692"
   d="M 16,8 L 16,118 C 16,119.104 16.896,120 18,120 L 77.1875,120 C 77.717503,120 78.21875,119.78125 78.59375,119.40625 C 78.593751,119.40625 90.5,109.5 96,104 C 101.5,98.5 111.40625,86.59375 111.40625,86.59375 C 111.78125,86.218751 112,85.7175 112,85.1875 L 112,8 L 16,8 z "
   style="opacity:0.2;fill:none;stroke:#000000;stroke-width:8;stroke-linejoin:round;stroke-miterlimit:4;stroke-dasharray:none;stroke-opacity:1"
   sodipodi:nodetypes="cccccscccc" /><path
   style="opacity:0.25;fill:none;stroke:#000000;stroke-width:4;stroke-linejoin:round;stroke-miterlimit:4;stroke-dasharray:none;stroke-opacity:1"
   d="M 16,8 L 16,118 C 16,119.104 16.896,120 18,120 L 77.1875,120 C 77.717503,120 78.21875,119.78125 78.59375,119.40625 C 78.593751,119.40625 90.5,109.5 96,104 C 101.5,98.5 111.40625,86.59375 111.40625,86.59375 C 111.78125,86.218751 112,85.7175 112,85.1875 L 112,8 L 16,8 z "
   id="path3802"
   sodipodi:nodetypes="cccccscccc" /><path
   style="fill:url(#radialGradient2886)"
   d="M 16,8 L 16,118 C 16,119.104 16.896,120 18,120 L 77.172,120 C 77.702,120 78.211,119.789 78.586,119.414 L 111.414,86.586 C 111.789,86.211 112,85.702 112,85.172 L 112,8 L 16,8 z "
   id="path34"
   sodipodi:nodetypes="ccccccccc" /><path
   style="fill:url(#radialGradient2883);fill-opacity:1;opacity:0.54681648"
   d="M 25,16 C 24.449,16 24,16.449 24,17 L 24,112 C 24,112.552 24.449,113 25,113 L 83.172,112 C 83.435,112 83.693,111.894 83.879,111.707 L 103.707,90.879 C 103.894,90.692 104,90.435 104,90.172 L 104,17 C 104,16.449 103.552,16 103,16 L 25,16 z "
   id="path59"
   sodipodi:nodetypes="ccccccccccc" /><g
   id="g2391"
   clip-path="url(#clipPath2397)"><rect
     inkscape:export-ydpi="90"
     inkscape:export-xdpi="90"
     inkscape:export-filename="/home/pinheiro/Desktop/mock2.png"
     style="fill:url(#linearGradient2377);fill-opacity:1;fill-rule:nonzero;stroke:none;stroke-width:2;stroke-linecap:round;stroke-linejoin:round;stroke-miterlimit:4;stroke-dasharray:none;stroke-dashoffset:4;stroke-opacity:1"
     id="rect2371"
     width="64"
     height="40"
     x="32"
     y="72"
     inkscape:r_cx="true"
     inkscape:r_cy="true"
     ry="3.8236389"
     rx="3.8236389" /><rect
     ry="2.1800373"
     rx="2.1800373"
     y="80"
     x="40"
     height="24"
     width="48"
     id="rect2373"
     style="fill:url(#linearGradient2379);fill-opacity:1;fill-rule:evenodd;stroke:none;stroke-width:8;stroke-linecap:round;stroke-linejoin:round;stroke-miterlimit:4;stroke-dasharray:none;stroke-opacity:1" /><path
     id="path2375"
     d="M 72.964256,80 C 64.047853,84.714044 55.68955,89.812807 50.482474,96 L 73.198984,96 C 74.471293,90.076513 78.443083,84.72542 83.918256,80 L 72.964256,80 z "
     style="fill:url(#linearGradient2381);fill-opacity:1;fill-rule:evenodd;stroke:none;stroke-width:1px;stroke-linecap:butt;stroke-linejoin:miter;stroke-opacity:1" /></g><path
   d="M 111.414,86.586 C 111.664,86.336 93.035,93 88,93 C 86.346,93 85,94.346 85,96 C 85,101.035 78.336,119.664 78.586,119.414 L 111.414,86.586 z "
   id="path66"
   style="opacity:0.15;fill:url(#linearGradient2911)" /><path
   d="M 111.414,86.586 C 111.789,86.211 97.444,94 88,94 C 86.897,94 86,94.897 86,96 C 86,105.444 78.211,119.789 78.586,119.414 L 111.414,86.586 z "
   id="path73"
   style="opacity:0.2;fill:url(#linearGradient2908)" /><path
   d="M 111.414,86.586 C 111.653,86.347 97.807,95 88,95 C 87.447,95 87,95.447 87,96 C 87,105.807 78.347,119.653 78.586,119.414 L 111.414,86.586 z "
   id="path80"
   style="opacity:0.25;fill:url(#linearGradient2905)" /><rect
   inkscape:export-ydpi="90"
   inkscape:export-xdpi="90"
   inkscape:export-filename="/home/pinheiro/Desktop/mock2.png"
   style="fill:url(#linearGradient3601);fill-opacity:1;fill-rule:nonzero;stroke:none;stroke-width:2;stroke-linecap:round;stroke-linejoin:round;stroke-miterlimit:4;stroke-dasharray:none;stroke-dashoffset:4;stroke-opacity:1"
   id="rect3561"
   width="64"
   height="40"
   x="32"
   y="16"
   inkscape:r_cx="true"
   inkscape:r_cy="true"
   ry="3.8236389"
   rx="3.8236389" /><rect
   ry="2.1800373"
   rx="2.1800373"
   y="24"
   x="40"
   height="24"
   width="48"
   id="rect3563"
   style="fill:url(#linearGradient3598);fill-opacity:1;fill-rule:evenodd;stroke:none;stroke-width:8;stroke-linecap:round;stroke-linejoin:round;stroke-miterlimit:4;stroke-dasharray:none;stroke-opacity:1" /><path
   id="path3565"
   d="M 72.964256,24 C 64.047853,28.714044 55.68955,33.812807 50.482474,40 L 73.198984,40 C 74.471293,34.076513 78.443083,28.72542 83.918256,24 L 72.964256,24 z "
   style="fill:url(#linearGradient3595);fill-opacity:1;fill-rule:evenodd;stroke:none;stroke-width:1px;stroke-linecap:butt;stroke-linejoin:miter;stroke-opacity:1" /><path
   d="M 78.586,119.414 C 78.586,119.414 90.5,109.5 96,104 C 101.5,98.5 111.414,86.586 111.414,86.586 C 111.414,86.586 98.25,96 88,96 C 88,106.25 78.586,119.414 78.586,119.414 z "
   id="path101"
   style="fill:url(#linearGradient2902)" />

<g
   id="layer1"
   inkscape:label="Livello 1"
   transform="translate(393,108)"><rect
     rx="3.8236389"
     ry="3.8236389"
     inkscape:r_cy="true"
     inkscape:r_cx="true"
     y="32"
     x="24"
     height="56"
     width="40"
     id="rect2330"
     style="fill:url(#linearGradient2336);fill-opacity:1;fill-rule:nonzero;stroke:none;stroke-width:2;stroke-linecap:round;stroke-linejoin:round;stroke-miterlimit:4;stroke-dasharray:none;stroke-dashoffset:4;stroke-opacity:1"
     inkscape:export-filename="/home/pinheiro/Desktop/mock2.png"
     inkscape:export-xdpi="90"
     inkscape:export-ydpi="90" /><rect
     style="fill:url(#linearGradient2338);fill-opacity:1;fill-rule:evenodd;stroke:none;stroke-width:8;stroke-linecap:round;stroke-linejoin:round;stroke-miterlimit:4;stroke-dasharray:none;stroke-opacity:1"
     id="rect2332"
     width="24"
     height="40"
     x="32"
     y="40"
     rx="2.1800373"
     ry="2.1800373" /><path
     style="fill:url(#linearGradient2340);fill-opacity:1;fill-rule:evenodd;stroke:none;stroke-width:1px;stroke-linecap:butt;stroke-linejoin:miter;stroke-opacity:1"
     d="M 56.25,54.787385 C 52.64081,61.614006 48.73707,68.013332 44,71.999999 L 44,54.607671 C 48.53517,53.63356 52.6321,50.592658 56.25,46.400729 L 56.25,54.787385 z "
     id="path2334" /><rect
     inkscape:export-ydpi="90"
     inkscape:export-xdpi="90"
     inkscape:export-filename="/home/pinheiro/Desktop/mock2.png"
     style="fill:url(#linearGradient2339);fill-opacity:1;fill-rule:nonzero;stroke:none;stroke-width:2;stroke-linecap:round;stroke-linejoin:round;stroke-miterlimit:4;stroke-dasharray:none;stroke-dashoffset:4;stroke-opacity:1"
     id="rect2333"
     width="40"
     height="56"
     x="72"
     y="32"
     inkscape:r_cx="true"
     inkscape:r_cy="true"
     ry="3.8236389"
     rx="3.8236389" /><rect
     ry="2.1800373"
     rx="2.1800373"
     y="40"
     x="80"
     height="40"
     width="24"
     id="rect2335"
     style="fill:url(#linearGradient2341);fill-opacity:1;fill-rule:evenodd;stroke:none;stroke-width:8;stroke-linecap:round;stroke-linejoin:round;stroke-miterlimit:4;stroke-dasharray:none;stroke-opacity:1" /><path
     id="path2337"
     d="M 104.25,54.787385 C 100.64081,61.614006 96.73707,68.013332 92,71.999999 L 92,54.607671 C 96.53517,53.63356 100.6321,50.592658 104.25,46.400729 L 104.25,54.787385 z "
     style="fill:url(#linearGradient2343);fill-opacity:1;fill-rule:evenodd;stroke:none;stroke-width:1px;stroke-linecap:butt;stroke-linejoin:miter;stroke-opacity:1" /></g></svg>