<?xml version="1.0" encoding="UTF-8" standalone="no"?>
<!-- Created with Inkscape (http://www.inkscape.org/) -->

<svg
   xmlns:a="http://ns.adobe.com/AdobeSVGViewerExtensions/3.0/"
   xmlns:dc="http://purl.org/dc/elements/1.1/"
   xmlns:cc="http://creativecommons.org/ns#"
   xmlns:rdf="http://www.w3.org/1999/02/22-rdf-syntax-ns#"
   xmlns:svg="http://www.w3.org/2000/svg"
   xmlns="http://www.w3.org/2000/svg"
   xmlns:xlink="http://www.w3.org/1999/xlink"
   xmlns:sodipodi="http://sodipodi.sourceforge.net/DTD/sodipodi-0.dtd"
   xmlns:inkscape="http://www.inkscape.org/namespaces/inkscape"
   width="128"
   height="128"
   id="svg2"
   sodipodi:version="0.32"
   inkscape:version="0.46+devel"
   version="1.0"
   sodipodi:docname="go-next-use.svgz"
   inkscape:output_extension="org.inkscape.output.svgz.inkscape"
   inkscape:export-filename="/home/pinheiro/pics/oxygen-icons/scalable/actions/small/16x16/go-next-use.png"
   inkscape:export-xdpi="90"
   inkscape:export-ydpi="90">
  <defs
     id="defs4">
    <linearGradient
       inkscape:collect="always"
       id="linearGradient2969">
      <stop
         style="stop-color:#111111;stop-opacity:1;"
         offset="0"
         id="stop2971" />
      <stop
         style="stop-color:#111111;stop-opacity:0;"
         offset="1"
         id="stop2973" />
    </linearGradient>
    <linearGradient
       id="linearGradient4073">
      <stop
         id="stop4075"
         offset="0"
         style="stop-color:#888888;stop-opacity:1;" />
      <stop
         id="stop4077"
         offset="1"
         style="stop-color:#484848;stop-opacity:1;" />
    </linearGradient>
    <linearGradient
       id="linearGradient4067">
      <stop
         style="stop-color:#dfdfdf;stop-opacity:1;"
         offset="0"
         id="stop4069" />
      <stop
         style="stop-color:#dfdfdf;stop-opacity:0;"
         offset="1"
         id="stop4071" />
    </linearGradient>
    <linearGradient
       inkscape:collect="always"
       id="linearGradient3386">
      <stop
         style="stop-color:#ffffff;stop-opacity:1;"
         offset="0"
         id="stop3388" />
      <stop
         style="stop-color:#ffffff;stop-opacity:0;"
         offset="1"
         id="stop3390" />
    </linearGradient>
    <radialGradient
       cx="265.3931"
       cy="-6078.353"
       r="253.01871"
       fx="369.5242"
       fy="-6078.353"
       id="path2295_1_"
       gradientUnits="userSpaceOnUse"
       gradientTransform="matrix(0.183616,0,0,-1.462967e-2,-0.962917,-7.25873)">
      <stop
         style="stop-color:#000000;stop-opacity:1"
         offset="0"
         id="stop8" />
      <stop
         style="stop-color:#ffffff;stop-opacity:1"
         offset="1"
         id="stop10" />
      <a:midPointStop
         style="stop-color:#000000"
         offset="0" />
      <a:midPointStop
         style="stop-color:#000000"
         offset="0.5" />
      <a:midPointStop
         style="stop-color:#FFFFFF"
         offset="1" />
    </radialGradient>
    <filter
       inkscape:collect="always"
       id="filter3845"
       x="-0.12815534"
       width="1.2563107"
       y="-0.12815534"
       height="1.2563107">
      <feGaussianBlur
         inkscape:collect="always"
         stdDeviation="0.6407767"
         id="feGaussianBlur3847" />
    </filter>
    <filter
       inkscape:collect="always"
       id="filter4014"
       x="-0.038046117"
       width="1.0760922"
       y="-0.20291262"
       height="1.4058252">
      <feGaussianBlur
         inkscape:collect="always"
         stdDeviation="0.50728155"
         id="feGaussianBlur4016" />
    </filter>
    <radialGradient
       inkscape:collect="always"
       xlink:href="#linearGradient3386"
       id="radialGradient2996"
       gradientUnits="userSpaceOnUse"
       gradientTransform="matrix(-3.9999996,3.9999996,-1.3333339,-1.3333335,360.33332,-133.66664)"
       cx="61"
       cy="30.999996"
       fx="61"
       fy="30.999996"
       r="6" />
    <radialGradient
       inkscape:collect="always"
       xlink:href="#linearGradient3386"
       id="radialGradient2998"
       gradientUnits="userSpaceOnUse"
       gradientTransform="matrix(-3.9999996,3.9999996,-1.3333339,-1.3333335,337.33332,-174.66664)"
       cx="60"
       cy="28"
       fx="60"
       fy="28"
       r="6" />
    <radialGradient
       inkscape:collect="always"
       xlink:href="#linearGradient4067"
       id="radialGradient3000"
       gradientUnits="userSpaceOnUse"
       gradientTransform="matrix(-3.9999996,3.9999996,-1.3333339,-1.3333335,337.33332,-174.66664)"
       cx="62.125"
       cy="27.624998"
       fx="62.125"
       fy="27.624998"
       r="6" />
    <radialGradient
       inkscape:collect="always"
       xlink:href="#linearGradient4067"
       id="radialGradient3002"
       gradientUnits="userSpaceOnUse"
       gradientTransform="matrix(-3.9999996,3.9999996,-1.3333339,-1.3333335,337.33332,-174.66664)"
       cx="61.125"
       cy="24.624998"
       fx="61.125"
       fy="24.624998"
       r="6" />
    <linearGradient
       inkscape:collect="always"
       id="linearGradient5789">
      <stop
         style="stop-color:#c8e1ff;stop-opacity:1"
         offset="0"
         id="stop5791" />
      <stop
         style="stop-color:#ffffff;stop-opacity:1"
         offset="1"
         id="stop5793" />
    </linearGradient>
    <linearGradient
       y2="36.6406"
       x2="40.4805"
       y1="8.0806"
       x1="78.5605"
       gradientUnits="userSpaceOnUse"
       id="XMLID_4_-3">
      <stop
         id="stop15-9"
         style="stop-color:#8E79B9"
         offset="0" />
      <stop
         id="stop17-0"
         style="stop-color:#462886"
         offset="1" />
    </linearGradient>
    <linearGradient
       inkscape:collect="always"
       xlink:href="#linearGradient2969"
       id="linearGradient4117"
       gradientUnits="userSpaceOnUse"
       x1="52"
       y1="28"
       x2="56"
       y2="104"
       gradientTransform="translate(32,0)" />
    <linearGradient
       inkscape:collect="always"
       xlink:href="#linearGradient4067"
       id="linearGradient4122"
       gradientUnits="userSpaceOnUse"
       gradientTransform="translate(-16,16)"
       x1="108"
       y1="44"
       x2="114.29734"
       y2="67.501991" />
    <linearGradient
       inkscape:collect="always"
       xlink:href="#path2295_1_"
       id="linearGradient4125"
       gradientUnits="userSpaceOnUse"
       gradientTransform="translate(72,24.25)"
       x1="60"
       y1="-60.314499"
       x2="60"
       y2="63.75" />
    <linearGradient
       inkscape:collect="always"
       xlink:href="#linearGradient4073"
       id="linearGradient4133"
       gradientUnits="userSpaceOnUse"
       gradientTransform="translate(72,24.25)"
       x1="60"
       y1="11.75"
       x2="60"
       y2="71.75" />
    <radialGradient
       inkscape:collect="always"
       xlink:href="#linearGradient5789"
       id="radialGradient4135"
       gradientUnits="userSpaceOnUse"
       gradientTransform="matrix(1,0,0,0.7462986,0,12.216192)"
       cx="71.30835"
       cy="48.151859"
       fx="71.30835"
       fy="48.151859"
       r="23.752516" />
    <linearGradient
       inkscape:collect="always"
       xlink:href="#XMLID_4_-3"
       id="linearGradient4150"
       gradientUnits="userSpaceOnUse"
       gradientTransform="matrix(-1,0,0,1,199.6147,-208.90735)"
       x1="172.56801"
       y1="233.48956"
       x2="178.04466"
       y2="367.96475" />
  </defs>
  <sodipodi:namedview
     id="base"
     pagecolor="#ffffff"
     bordercolor="#666666"
     borderopacity="1.0"
     gridtolerance="10000"
     guidetolerance="10"
     objecttolerance="10"
     inkscape:pageopacity="0.0"
     inkscape:pageshadow="2"
     inkscape:zoom="3.4029514"
     inkscape:cx="44.075407"
     inkscape:cy="77.523178"
     inkscape:document-units="px"
     inkscape:current-layer="layer1"
     width="128px"
     height="128px"
     showgrid="true"
     inkscape:window-width="1040"
     inkscape:window-height="728"
     inkscape:window-x="760"
     inkscape:window-y="243"
     inkscape:snap-nodes="false"
     inkscape:snap-bbox="true"
     showguides="true"
     inkscape:guide-bbox="true">
    <inkscape:grid
       id="GridFromPre046Settings"
       type="xygrid"
       originx="0px"
       originy="0px"
       spacingx="4px"
       spacingy="4px"
       color="#0000ff"
       empcolor="#0000ff"
       opacity="0.2"
       empopacity="0.4"
       empspacing="2" />
    <sodipodi:guide
       orientation="0,1"
       position="87.424111,60.535687"
       id="guide4304" />
  </sodipodi:namedview>
  <metadata
     id="metadata7">
    <rdf:RDF>
      <cc:Work
         rdf:about="">
        <dc:format>image/svg+xml</dc:format>
        <dc:type
           rdf:resource="http://purl.org/dc/dcmitype/StillImage" />
        <dc:title></dc:title>
      </cc:Work>
    </rdf:RDF>
  </metadata>
  <g
     inkscape:label="Layer 1"
     inkscape:groupmode="layer"
     id="layer1">
    <rect
       style="fill:url(#linearGradient4133);fill-opacity:1;stroke:none"
       id="rect3936"
       width="72.359566"
       height="56"
       x="56"
       y="40"
       rx="11.999989"
       ry="11.999989" />
    <g
       transform="translate(48,-24)"
       id="g3025">
      <path
         sodipodi:nodetypes="cccc"
         style="opacity:0.93564357;fill:url(#radialGradient2996);fill-opacity:1;stroke:none;filter:url(#filter3845)"
         d="m 67,65 0,12 12,0 C 79,70.352006 73.647994,65 67,65 z"
         id="path3938" />
      <path
         id="path3940"
         d="m 52,24 0,12 12,0 C 64,29.352006 58.647994,24 52,24 z"
         style="opacity:0.93564357;fill:url(#radialGradient2998);fill-opacity:1;stroke:none;filter:url(#filter3845)"
         transform="matrix(-1,0,0,1,72,41)" />
      <path
         sodipodi:nodetypes="cccc"
         id="path3942"
         d="m 44,33 0,12 12,0 C 56,38.352006 50.647994,33 44,33 z"
         style="opacity:0.54960399;fill:url(#radialGradient3000);fill-opacity:1;stroke:none;filter:url(#filter3845)"
         transform="matrix(1,0,0,-1,23.4,152)" />
      <path
         sodipodi:nodetypes="cccc"
         transform="matrix(-1,0,0,-1,72,153)"
         style="opacity:0.54960399;fill:url(#radialGradient3002);fill-opacity:1;stroke:none;filter:url(#filter3845)"
         d="m 52,33 0,12 12,0 C 64,38.352006 58.647994,33 52,33 z"
         id="path3944" />
    </g>
    <rect
       ry="4"
       rx="4"
       y="48"
       x="64"
       height="39.999992"
       width="56.212643"
       id="rect3946"
       style="fill:url(#linearGradient4125);fill-opacity:1;stroke:none" />
    <path
       sodipodi:nodetypes="cccscccc"
       style="opacity:0.54960399;fill:url(#linearGradient4122);fill-opacity:1;stroke:none"
       d="m 68,48 c -2.216,0 -4,1.784 -4,4 l 0,13.84375 C 65.314787,65.93175 66.637024,66 68,66 c 12.75797,0 47.66203,-3.97997 52,-9.59375 L 120,52 c 0,-2.216 -1.784,-4 -4,-4 l -48,0 z"
       id="path3948" />
    <path
       sodipodi:nodetypes="ccccccccc"
       style="fill:#ffffff;fill-opacity:1;stroke:none;filter:url(#filter4014)"
       d="m 64,82 0,2 c 0,2.216 1.784,4 4,4 l 48,0 c 2.216,0 4,-1.784 4,-4 l 0,-2 c 0,2.216 -1.784,4 -4,4 l -48,0 c -2.216,0 -4,-1.784 -4,-4 z"
       id="path3950" />
    <path
       sodipodi:nodetypes="ccccccccc"
       style="fill:#ffffff;fill-opacity:1;stroke:none"
       d="m 68,48 c -2.216,0 -4,1.784 -4,4 l 0,1 c 0,-2.216 1.784,-4 4,-4 l 48,0 c 2.216,0 4,1.784 4,4 l 0,-1 c 0,-2.216 -1.784,-4 -4,-4 l -48,0 z"
       id="path3952" />
    <path
       id="rect2962"
       d="m 88,56 0,24 8,0 0,-24 -8,0 z m 16,0 0,16 8,0 0,-16 -8,0 z m -32,8 0,16 8,0 0,-16 -8,0 z"
       style="opacity:0.50724637;fill:url(#linearGradient4117);fill-opacity:1;stroke:none"
       sodipodi:nodetypes="ccccccccccccccc" />
    <g
       transform="matrix(0.9821429,0,0,0.9821429,620.9633,-486.34684)"
       style="display:inline"
       inkscape:label="box"
       id="layer4" />
    <g
       transform="matrix(0.9821429,0,0,0.9821429,620.9633,-486.34684)"
       style="display:inline"
       inkscape:label="zip_app"
       id="layer5" />
    <rect
       y="-546.7807"
       x="536.03796"
       height="0"
       width="0.98214245"
       id="rect1327"
       style="opacity:0.57786889;fill:#ffffff;fill-opacity:1;fill-rule:nonzero;stroke:none" />
    <rect
       y="-573.81671"
       x="501.53839"
       height="0"
       width="0.98214245"
       id="rect2482"
       style="opacity:0.57786889;fill:#ffffff;fill-opacity:1;fill-rule:nonzero;stroke:none" />
    <g
       id="g4640"
       transform="matrix(-0.7690129,0,0,0.6392557,-1935.9381,28.53294)"
       style="opacity:0.40163933" />
    <g
       style="opacity:0.40163933"
       transform="matrix(-0.7690129,0,0,0.6392557,-1935.9381,28.53294)"
       id="g4646" />
    <g
       style="opacity:0.40163933"
       transform="matrix(0.9821429,0,0,0.6392557,1207.863,35.7298)"
       id="g4730" />
    <g
       id="g4748"
       transform="matrix(0.9821429,0,0,0.6392557,1207.863,35.7298)"
       style="opacity:0.40163933" />
    <g
       transform="matrix(0.9821429,0,0,0.9821429,758.88066,-332.35807)"
       style="display:inline"
       inkscape:label="box"
       id="g6929" />
    <g
       transform="matrix(0.9821429,0,0,0.9821429,758.88066,-332.35807)"
       style="display:inline"
       inkscape:label="zip_app"
       id="g6931" />
    <rect
       y="-392.7919"
       x="673.95538"
       height="0"
       width="0.98214245"
       id="rect6937"
       style="opacity:0.57786889;fill:#ffffff;fill-opacity:1;fill-rule:nonzero;stroke:none" />
    <rect
       y="-419.82794"
       x="639.45587"
       height="0"
       width="0.98214245"
       id="rect6939"
       style="opacity:0.57786889;fill:#ffffff;fill-opacity:1;fill-rule:nonzero;stroke:none" />
    <g
       id="g6943"
       transform="matrix(-0.7690129,0,0,0.6392557,-1798.0209,182.52166)"
       style="opacity:0.40163933" />
    <g
       style="opacity:0.40163933"
       transform="matrix(-0.7690129,0,0,0.6392557,-1798.0209,182.52166)"
       id="g6945" />
    <g
       style="opacity:0.40163933"
       transform="matrix(0.9821429,0,0,0.6392557,1345.7804,189.71866)"
       id="g6947" />
    <g
       id="g6949"
       transform="matrix(0.9821429,0,0,0.6392557,1345.7804,189.71866)"
       style="opacity:0.40163933" />
    <g
       transform="matrix(0.9821429,0,0,0.9821429,710.26461,-383.4295)"
       style="display:inline"
       inkscape:label="box"
       id="g7565" />
    <g
       transform="matrix(0.9821429,0,0,0.9821429,710.26461,-383.4295)"
       style="display:inline"
       inkscape:label="zip_app"
       id="g7567" />
    <rect
       y="-443.86331"
       x="625.33936"
       height="0"
       width="0.98214245"
       id="rect7573"
       style="opacity:0.57786889;fill:#ffffff;fill-opacity:1;fill-rule:nonzero;stroke:none" />
    <rect
       y="-470.89935"
       x="590.83978"
       height="0"
       width="0.98214245"
       id="rect7575"
       style="opacity:0.57786889;fill:#ffffff;fill-opacity:1;fill-rule:nonzero;stroke:none" />
    <g
       id="g7579"
       transform="matrix(-0.7690129,0,0,0.6392557,-1846.6367,131.45023)"
       style="opacity:0.40163933" />
    <g
       style="opacity:0.40163933"
       transform="matrix(-0.7690129,0,0,0.6392557,-1846.6367,131.45023)"
       id="g7581" />
    <g
       style="opacity:0.40163933"
       transform="matrix(0.9821429,0,0,0.6392557,1297.1643,138.64723)"
       id="g7583" />
    <g
       id="g7585"
       transform="matrix(0.9821429,0,0,0.6392557,1297.1643,138.64723)"
       style="opacity:0.40163933" />
    <g
       transform="matrix(0.9821429,0,0,0.9821429,329.92992,-261.88935)"
       style="display:inline"
       inkscape:label="box"
       id="g8400" />
    <g
       transform="matrix(0.9821429,0,0,0.9821429,329.92992,-261.88935)"
       style="display:inline"
       inkscape:label="zip_app"
       id="g8402" />
    <rect
       y="-322.32318"
       x="245.00468"
       height="0"
       width="0.98214245"
       id="rect8408"
       style="opacity:0.57786889;fill:#ffffff;fill-opacity:1;fill-rule:nonzero;stroke:none" />
    <rect
       y="-349.35922"
       x="210.50511"
       height="0"
       width="0.98214245"
       id="rect8410"
       style="opacity:0.57786889;fill:#ffffff;fill-opacity:1;fill-rule:nonzero;stroke:none" />
    <g
       id="g8414"
       transform="matrix(-0.7690129,0,0,0.6392557,-2226.9709,252.99037)"
       style="opacity:0.40163933" />
    <g
       style="opacity:0.40163933"
       transform="matrix(-0.7690129,0,0,0.6392557,-2226.9709,252.99037)"
       id="g8416" />
    <g
       style="opacity:0.40163933"
       transform="matrix(0.9821429,0,0,0.6392557,916.82965,260.18737)"
       id="g8418" />
    <g
       id="g8420"
       transform="matrix(0.9821429,0,0,0.6392557,916.82965,260.18737)"
       style="opacity:0.40163933" />
    <g
       transform="matrix(0.9821429,0,0,0.9821429,577.81504,-88.64721)"
       style="display:inline"
       inkscape:label="box"
       id="g9110" />
    <g
       transform="matrix(0.9821429,0,0,0.9821429,577.81504,-88.64721)"
       style="display:inline"
       inkscape:label="zip_app"
       id="g9112" />
    <rect
       y="-149.08105"
       x="492.88971"
       height="0"
       width="0.98214245"
       id="rect9118"
       style="opacity:0.57786889;fill:#ffffff;fill-opacity:1;fill-rule:nonzero;stroke:none" />
    <rect
       y="-176.11703"
       x="458.39017"
       height="0"
       width="0.98214245"
       id="rect9120"
       style="opacity:0.57786889;fill:#ffffff;fill-opacity:1;fill-rule:nonzero;stroke:none" />
    <g
       id="g9124"
       transform="matrix(-0.7690129,0,0,0.6392557,-1979.0867,426.23252)"
       style="opacity:0.40163933" />
    <g
       style="opacity:0.40163933"
       transform="matrix(-0.7690129,0,0,0.6392557,-1979.0867,426.23252)"
       id="g9126" />
    <g
       style="opacity:0.40163933"
       transform="matrix(0.9821429,0,0,0.6392557,1164.7147,433.42952)"
       id="g9128" />
    <g
       id="g9130"
       transform="matrix(0.9821429,0,0,0.6392557,1164.7147,433.42952)"
       style="opacity:0.40163933" />
    <g
       transform="matrix(0.9821429,0,0,0.9821429,478.96264,-318.03993)"
       style="display:inline"
       inkscape:label="box"
       id="g3639" />
    <g
       transform="matrix(0.9821429,0,0,0.9821429,478.96264,-318.03993)"
       style="display:inline"
       inkscape:label="zip_app"
       id="g3641" />
    <rect
       y="-378.47375"
       x="394.03745"
       height="0"
       width="0.98214245"
       id="rect3647"
       style="opacity:0.57786889;fill:#ffffff;fill-opacity:1;fill-rule:nonzero;stroke:none" />
    <rect
       y="-405.5098"
       x="359.5379"
       height="0"
       width="0.98214245"
       id="rect3649"
       style="opacity:0.57786889;fill:#ffffff;fill-opacity:1;fill-rule:nonzero;stroke:none" />
    <g
       id="g3653"
       transform="matrix(-0.7690129,0,0,0.6392557,-2077.9381,196.8398)"
       style="opacity:0.40163933" />
    <g
       style="opacity:0.40163933"
       transform="matrix(-0.7690129,0,0,0.6392557,-2077.9381,196.8398)"
       id="g3655" />
    <g
       style="opacity:0.40163933"
       transform="matrix(0.9821429,0,0,0.6392557,1065.8624,204.0368)"
       id="g3657" />
    <g
       id="g3659"
       transform="matrix(0.9821429,0,0,0.6392557,1065.8624,204.0368)"
       style="opacity:0.40163933" />
    <g
       transform="matrix(0.9821429,0,0,0.9821429,480.93435,-318.94821)"
       style="display:inline"
       inkscape:label="box"
       id="g10467" />
    <g
       transform="matrix(0.9821429,0,0,0.9821429,480.93435,-318.94821)"
       style="display:inline"
       inkscape:label="zip_app"
       id="g10469" />
    <rect
       y="-379.38202"
       x="396.00909"
       height="0"
       width="0.98214245"
       id="rect10475"
       style="opacity:0.57786889;fill:#ffffff;fill-opacity:1;fill-rule:nonzero;stroke:none" />
    <rect
       y="-406.41806"
       x="361.50952"
       height="0"
       width="0.98214245"
       id="rect10477"
       style="opacity:0.57786889;fill:#ffffff;fill-opacity:1;fill-rule:nonzero;stroke:none" />
    <g
       id="g10481"
       transform="matrix(-0.7690129,0,0,0.6392557,-2075.9667,195.93151)"
       style="opacity:0.40163933" />
    <g
       style="opacity:0.40163933"
       transform="matrix(-0.7690129,0,0,0.6392557,-2075.9667,195.93151)"
       id="g10483" />
    <g
       style="opacity:0.40163933"
       transform="matrix(0.9821429,0,0,0.6392557,1067.8341,203.12851)"
       id="g10485" />
    <g
       id="g10487"
       transform="matrix(0.9821429,0,0,0.6392557,1067.8341,203.12851)"
       style="opacity:0.40163933" />
    <g
       transform="matrix(0.9821429,0,0,0.9821429,644.39712,-363.84507)"
       style="display:inline"
       inkscape:label="box"
       id="g2885" />
    <g
       transform="matrix(0.9821429,0,0,0.9821429,644.39712,-363.84507)"
       style="display:inline"
       inkscape:label="zip_app"
       id="g2887" />
    <rect
       y="-424.27896"
       x="559.47174"
       height="0"
       width="0.98214245"
       id="rect2893"
       style="opacity:0.57786889;fill:#ffffff;fill-opacity:1;fill-rule:nonzero;stroke:none" />
    <rect
       y="-451.31497"
       x="524.97223"
       height="0"
       width="0.98214245"
       id="rect2895"
       style="opacity:0.57786889;fill:#ffffff;fill-opacity:1;fill-rule:nonzero;stroke:none" />
    <g
       id="g2899"
       transform="matrix(-0.7690129,0,0,0.6392557,-1912.5038,151.03466)"
       style="opacity:0.40163933" />
    <g
       style="opacity:0.40163933"
       transform="matrix(-0.7690129,0,0,0.6392557,-1912.5038,151.03466)"
       id="g2901" />
    <g
       style="opacity:0.40163933"
       transform="matrix(0.9821429,0,0,0.6392557,1231.2967,158.23151)"
       id="g2903" />
    <g
       id="g2905"
       transform="matrix(0.9821429,0,0,0.6392557,1231.2967,158.23151)"
       style="opacity:0.40163933" />
    <g
       transform="matrix(0.9821429,0,0,0.9821429,782.31448,-209.85635)"
       style="display:inline"
       inkscape:label="box"
       id="g2913" />
    <g
       transform="matrix(0.9821429,0,0,0.9821429,782.31448,-209.85635)"
       style="display:inline"
       inkscape:label="zip_app"
       id="g2915" />
    <rect
       y="-270.29016"
       x="697.38922"
       height="0"
       width="0.98214245"
       id="rect2921"
       style="opacity:0.57786889;fill:#ffffff;fill-opacity:1;fill-rule:nonzero;stroke:none" />
    <rect
       y="-297.3262"
       x="662.88971"
       height="0"
       width="0.98214245"
       id="rect2923"
       style="opacity:0.57786889;fill:#ffffff;fill-opacity:1;fill-rule:nonzero;stroke:none" />
    <g
       id="g2927"
       transform="matrix(-0.7690129,0,0,0.6392557,-1774.5867,305.02337)"
       style="opacity:0.40163933" />
    <g
       style="opacity:0.40163933"
       transform="matrix(-0.7690129,0,0,0.6392557,-1774.5867,305.02337)"
       id="g2929" />
    <g
       style="opacity:0.40163933"
       transform="matrix(0.9821429,0,0,0.6392557,1369.2141,312.22037)"
       id="g2931" />
    <g
       id="g2933"
       transform="matrix(0.9821429,0,0,0.6392557,1369.2141,312.22037)"
       style="opacity:0.40163933" />
    <g
       transform="matrix(1.3333329,0,0,1.3333329,207.48363,-609.41033)"
       style="display:inline"
       inkscape:label="box"
       id="g4117" />
    <g
       transform="matrix(1.3333329,0,0,1.3333329,207.48363,-609.41033)"
       style="display:inline"
       inkscape:label="zip_app"
       id="g4119" />
    <rect
       y="-691.45392"
       x="92.190994"
       height="0"
       width="1.3333334"
       id="rect4125"
       style="opacity:0.57786889;fill:#ffffff;fill-opacity:1;fill-rule:nonzero;stroke:none" />
    <rect
       y="-728.15735"
       x="45.35524"
       height="0"
       width="1.3333334"
       id="rect4127"
       style="opacity:0.57786889;fill:#ffffff;fill-opacity:1;fill-rule:nonzero;stroke:none" />
    <g
       id="g4131"
       transform="matrix(-1.0439929,0,0,0.8678386,-3263.7053,89.57808)"
       style="opacity:0.40163933" />
    <g
       style="opacity:0.40163933"
       transform="matrix(-1.0439929,0,0,0.8678386,-3263.7053,89.57808)"
       id="g4133" />
    <g
       style="opacity:0.40163933"
       transform="matrix(1.3333329,0,0,0.8678386,1004.2445,99.34837)"
       id="g4135" />
    <g
       id="g4137"
       transform="matrix(1.3333329,0,0,0.8678386,1004.2445,99.34837)"
       style="opacity:0.40163933" />
    <g
       transform="matrix(1.3333329,0,0,1.3333329,394.71692,-400.35893)"
       style="display:inline"
       inkscape:label="box"
       id="g4145" />
    <g
       transform="matrix(1.3333329,0,0,1.3333329,394.71692,-400.35893)"
       style="display:inline"
       inkscape:label="zip_app"
       id="g4147" />
    <rect
       y="-482.40237"
       x="279.42444"
       height="0"
       width="1.3333334"
       id="rect4153"
       style="opacity:0.57786889;fill:#ffffff;fill-opacity:1;fill-rule:nonzero;stroke:none" />
    <rect
       y="-519.10583"
       x="232.5887"
       height="0"
       width="1.3333334"
       id="rect4155"
       style="opacity:0.57786889;fill:#ffffff;fill-opacity:1;fill-rule:nonzero;stroke:none" />
    <g
       id="g4159"
       transform="matrix(-1.0439929,0,0,0.8678386,-3076.4724,298.62966)"
       style="opacity:0.40163933" />
    <g
       style="opacity:0.40163933"
       transform="matrix(-1.0439929,0,0,0.8678386,-3076.4724,298.62966)"
       id="g4161" />
    <g
       style="opacity:0.40163933"
       transform="matrix(1.3333329,0,0,0.8678386,1191.478,308.40009)"
       id="g4163" />
    <g
       id="g4165"
       transform="matrix(1.3333329,0,0,0.8678386,1191.478,308.40009)"
       style="opacity:0.40163933" />
    <g
       transform="matrix(1.3333329,0,0,1.3333329,328.71692,-469.69213)"
       style="display:inline"
       inkscape:label="box"
       id="g4173" />
    <g
       transform="matrix(1.3333329,0,0,1.3333329,328.71692,-469.69213)"
       style="display:inline"
       inkscape:label="zip_app"
       id="g4175" />
    <rect
       y="-551.73572"
       x="213.42448"
       height="0"
       width="1.3333334"
       id="rect4181"
       style="opacity:0.57786889;fill:#ffffff;fill-opacity:1;fill-rule:nonzero;stroke:none" />
    <rect
       y="-588.43915"
       x="166.5887"
       height="0"
       width="1.3333334"
       id="rect4184"
       style="opacity:0.57786889;fill:#ffffff;fill-opacity:1;fill-rule:nonzero;stroke:none" />
    <g
       id="g4188"
       transform="matrix(-1.0439929,0,0,0.8678386,-3142.4724,229.29623)"
       style="opacity:0.40163933" />
    <g
       style="opacity:0.40163933"
       transform="matrix(-1.0439929,0,0,0.8678386,-3142.4724,229.29623)"
       id="g4190" />
    <g
       style="opacity:0.40163933"
       transform="matrix(1.3333329,0,0,0.8678386,1125.4781,239.06666)"
       id="g4192" />
    <g
       id="g4194"
       transform="matrix(1.3333329,0,0,0.8678386,1125.4781,239.06666)"
       style="opacity:0.40163933" />
    <g
       transform="matrix(1.3333329,0,0,1.3333329,-187.61638,-304.69221)"
       style="display:inline"
       inkscape:label="box"
       id="g4202" />
    <g
       transform="matrix(1.3333329,0,0,1.3333329,-187.61638,-304.69221)"
       style="display:inline"
       inkscape:label="zip_app"
       id="g4204" />
    <rect
       y="-386.73569"
       x="-302.90887"
       height="0"
       width="1.3333334"
       id="rect4210"
       style="opacity:0.57786889;fill:#ffffff;fill-opacity:1;fill-rule:nonzero;stroke:none" />
    <rect
       y="-423.43915"
       x="-349.74463"
       height="0"
       width="1.3333334"
       id="rect4212"
       style="opacity:0.57786889;fill:#ffffff;fill-opacity:1;fill-rule:nonzero;stroke:none" />
    <g
       id="g4216"
       transform="matrix(-1.0439929,0,0,0.8678386,-3658.8053,394.29623)"
       style="opacity:0.40163933" />
    <g
       style="opacity:0.40163933"
       transform="matrix(-1.0439929,0,0,0.8678386,-3658.8053,394.29623)"
       id="g4218" />
    <g
       style="opacity:0.40163933"
       transform="matrix(1.3333329,0,0,0.8678386,609.14464,404.06666)"
       id="g4220" />
    <g
       id="g4222"
       transform="matrix(1.3333329,0,0,0.8678386,609.14464,404.06666)"
       style="opacity:0.40163933" />
    <g
       transform="matrix(1.3333329,0,0,1.3333329,148.90648,-69.50278)"
       style="display:inline"
       inkscape:label="box"
       id="g4230" />
    <g
       transform="matrix(1.3333329,0,0,1.3333329,148.90648,-69.50278)"
       style="display:inline"
       inkscape:label="zip_app"
       id="g4232" />
    <rect
       y="-151.5463"
       x="33.613968"
       height="0"
       width="1.3333334"
       id="rect4238"
       style="opacity:0.57786889;fill:#ffffff;fill-opacity:1;fill-rule:nonzero;stroke:none" />
    <rect
       y="-188.24976"
       x="-13.221788"
       height="0"
       width="1.3333334"
       id="rect4240"
       style="opacity:0.57786889;fill:#ffffff;fill-opacity:1;fill-rule:nonzero;stroke:none" />
    <g
       id="g4244"
       transform="matrix(-1.0439929,0,0,0.8678386,-3322.2824,629.48579)"
       style="opacity:0.40163933" />
    <g
       style="opacity:0.40163933"
       transform="matrix(-1.0439929,0,0,0.8678386,-3322.2824,629.48579)"
       id="g4246" />
    <g
       style="opacity:0.40163933"
       transform="matrix(1.3333329,0,0,0.8678386,945.6675,639.25609)"
       id="g4248" />
    <g
       id="g4250"
       transform="matrix(1.3333329,0,0,0.8678386,945.6675,639.25609)"
       style="opacity:0.40163933" />
    <g
       transform="matrix(1.3333329,0,0,1.3333329,14.706912,-380.92093)"
       style="display:inline"
       inkscape:label="box"
       id="g4258" />
    <g
       transform="matrix(1.3333329,0,0,1.3333329,14.706912,-380.92093)"
       style="display:inline"
       inkscape:label="zip_app"
       id="g4260" />
    <rect
       y="-462.96442"
       x="-100.58556"
       height="0"
       width="1.3333334"
       id="rect4266"
       style="opacity:0.57786889;fill:#ffffff;fill-opacity:1;fill-rule:nonzero;stroke:none" />
    <rect
       y="-499.66788"
       x="-147.42131"
       height="0"
       width="1.3333334"
       id="rect4268"
       style="opacity:0.57786889;fill:#ffffff;fill-opacity:1;fill-rule:nonzero;stroke:none" />
    <g
       id="g4272"
       transform="matrix(-1.0439929,0,0,0.8678386,-3456.481,318.06766)"
       style="opacity:0.40163933" />
    <g
       style="opacity:0.40163933"
       transform="matrix(-1.0439929,0,0,0.8678386,-3456.481,318.06766)"
       id="g4274" />
    <g
       style="opacity:0.40163933"
       transform="matrix(1.3333329,0,0,0.8678386,811.46807,327.83809)"
       id="g4276" />
    <g
       id="g4278"
       transform="matrix(1.3333329,0,0,0.8678386,811.46807,327.83809)"
       style="opacity:0.40163933" />
    <g
       transform="matrix(1.3333329,0,0,1.3333329,17.383622,-382.15393)"
       style="display:inline"
       inkscape:label="box"
       id="g4290" />
    <g
       transform="matrix(1.3333329,0,0,1.3333329,17.383622,-382.15393)"
       style="display:inline"
       inkscape:label="zip_app"
       id="g4292" />
    <rect
       y="-464.19745"
       x="-97.908867"
       height="0"
       width="1.3333334"
       id="rect4298"
       style="opacity:0.57786889;fill:#ffffff;fill-opacity:1;fill-rule:nonzero;stroke:none" />
    <rect
       y="-500.90091"
       x="-144.74467"
       height="0"
       width="1.3333334"
       id="rect4300"
       style="opacity:0.57786889;fill:#ffffff;fill-opacity:1;fill-rule:nonzero;stroke:none" />
    <g
       id="g4304"
       transform="matrix(-1.0439929,0,0,0.8678386,-3453.8053,316.83452)"
       style="opacity:0.40163933" />
    <g
       style="opacity:0.40163933"
       transform="matrix(-1.0439929,0,0,0.8678386,-3453.8053,316.83452)"
       id="g4306" />
    <g
       style="opacity:0.40163933"
       transform="matrix(1.3333329,0,0,0.8678386,814.14464,326.60495)"
       id="g4308" />
    <g
       id="g4310"
       transform="matrix(1.3333329,0,0,0.8678386,814.14464,326.60495)"
       style="opacity:0.40163933" />
    <g
       transform="matrix(1.3333329,0,0,1.3333329,239.29677,-443.10494)"
       style="display:inline"
       inkscape:label="box"
       id="g4364" />
    <g
       transform="matrix(1.3333329,0,0,1.3333329,239.29677,-443.10494)"
       style="display:inline"
       inkscape:label="zip_app"
       id="g4366" />
    <rect
       y="-525.14844"
       x="124.00417"
       height="0"
       width="1.3333334"
       id="rect4372"
       style="opacity:0.57786889;fill:#ffffff;fill-opacity:1;fill-rule:nonzero;stroke:none" />
    <rect
       y="-561.85193"
       x="77.168411"
       height="0"
       width="1.3333334"
       id="rect4374"
       style="opacity:0.57786889;fill:#ffffff;fill-opacity:1;fill-rule:nonzero;stroke:none" />
    <g
       id="g4378"
       transform="matrix(-1.0439929,0,0,0.8678386,-3231.8924,255.88366)"
       style="opacity:0.40163933" />
    <g
       style="opacity:0.40163933"
       transform="matrix(-1.0439929,0,0,0.8678386,-3231.8924,255.88366)"
       id="g4380" />
    <g
       style="opacity:0.40163933"
       transform="matrix(1.3333329,0,0,0.8678386,1036.0578,265.65394)"
       id="g4382" />
    <g
       id="g4384"
       transform="matrix(1.3333329,0,0,0.8678386,1036.0578,265.65394)"
       style="opacity:0.40163933" />
    <g
       transform="matrix(1.3333329,0,0,1.3333329,426.53021,-234.0535)"
       style="display:inline"
       inkscape:label="box"
       id="g4392" />
    <g
       transform="matrix(1.3333329,0,0,1.3333329,426.53021,-234.0535)"
       style="display:inline"
       inkscape:label="zip_app"
       id="g4394" />
    <rect
       y="-316.09689"
       x="311.23767"
       height="0"
       width="1.3333334"
       id="rect4400"
       style="opacity:0.57786889;fill:#ffffff;fill-opacity:1;fill-rule:nonzero;stroke:none" />
    <rect
       y="-352.80035"
       x="264.40186"
       height="0"
       width="1.3333334"
       id="rect4402"
       style="opacity:0.57786889;fill:#ffffff;fill-opacity:1;fill-rule:nonzero;stroke:none" />
    <g
       id="g4406"
       transform="matrix(-1.0439929,0,0,0.8678386,-3044.6595,464.93509)"
       style="opacity:0.40163933" />
    <g
       style="opacity:0.40163933"
       transform="matrix(-1.0439929,0,0,0.8678386,-3044.6595,464.93509)"
       id="g4408" />
    <g
       style="opacity:0.40163933"
       transform="matrix(1.3333329,0,0,0.8678386,1223.2912,474.70552)"
       id="g4410" />
    <g
       id="g4412"
       transform="matrix(1.3333329,0,0,0.8678386,1223.2912,474.70552)"
       style="opacity:0.40163933" />
    <g
       transform="translate(468.0002,-196.00021)"
       style="opacity:0.33333333;display:none"
       inkscape:label="slice"
       id="layer2">
      <rect
         inkscape:export-ydpi="180"
         inkscape:export-xdpi="180"
         inkscape:export-filename="/home/djm/lokalize.png"
         ry="0"
         rx="0"
         y="0"
         x="0"
         height="128"
         width="128"
         id="rect3535"
         style="fill:#000000;fill-opacity:1;stroke:none" />
      <rect
         style="fill:#000000;fill-opacity:1;stroke:none"
         id="rect3933"
         width="31.999603"
         height="32"
         x="200"
         y="64"
         rx="0"
         ry="0" />
      <rect
         style="fill:#000000;fill-opacity:1;stroke:none"
         id="rect3537"
         width="16"
         height="15.999993"
         x="200"
         y="1.8861262e-14"
         rx="0"
         ry="0" />
      <rect
         style="fill:#000000;fill-opacity:1;stroke:none"
         id="rect3721"
         width="22.00001"
         height="21.99991"
         x="200.00002"
         y="24.000008"
         rx="0"
         ry="0" />
      <rect
         style="fill:#000000;fill-opacity:1;stroke:none"
         id="rect4141"
         width="47.999996"
         height="47.999996"
         x="199.9998"
         y="112.00021"
         rx="0"
         ry="0" />
    </g>
    <g
       id="g3561"
       style="fill:url(#radialGradient4135);fill-opacity:1"
       transform="matrix(0.1463445,-0.02678525,0.01010528,0.1292785,665.64475,-194.37006)" />
    <path
       sodipodi:nodetypes="cccsccsccccccccccccc"
       id="path3127"
       d="m 36.11105,29.999996 c 0.81935,0.0301 1.62737,0.31785 2.28125,0.8125 l 16,14 c 0.99402,0.74681 1.6077,1.97545 1.6077,3.21875 0,1.2433 -0.61368,2.47194 -1.6077,3.21875 l -16,14 c -1.18839,0.88898 -2.88459,1.04085 -4.21201,0.37714 -1.32742,-0.66371 -2.22364,-2.11179 -2.22549,-3.59589 l 0,-6.03125 -12,0 c -2.24271,0 -4,1.75729 -4,4 l 0,56.000004 c 0.003,2.11151 -1.88848,4.00278 -4,4 l -8,0 c -2.11151,0.003 -4.00278,-1.88849 -4,-4 l 0,-56.000004 c 0,-11.01213 9.01912,-20 20.03125,-20 l 11.96875,0 0,-5.96875 c -0.004,-2.15389 2.00348,-4.10096 4.15625,-4.03125 z"
       style="fill:url(#linearGradient4150);fill-opacity:1;stroke:none" />
  </g>
</svg>
