<?xml version="1.0" encoding="UTF-8" standalone="no"?>
<!-- Generator: Adobe Illustrator 12.0.0, SVG Export Plug-In . SVG Version: 6.00 Build 51448)  -->
<svg
   xmlns:ns="http://ns.adobe.com/SaveForWeb/1.0/"
   xmlns:dc="http://purl.org/dc/elements/1.1/"
   xmlns:cc="http://creativecommons.org/ns#"
   xmlns:rdf="http://www.w3.org/1999/02/22-rdf-syntax-ns#"
   xmlns:svg="http://www.w3.org/2000/svg"
   xmlns="http://www.w3.org/2000/svg"
   xmlns:xlink="http://www.w3.org/1999/xlink"
   xmlns:sodipodi="http://sodipodi.sourceforge.net/DTD/sodipodi-0.dtd"
   xmlns:inkscape="http://www.inkscape.org/namespaces/inkscape"
   version="1.1"
   id="Layer_1"
   width="128"
   height="128"
   viewBox="0 0 128 128"
   overflow="visible"
   enable-background="new 0 0 128 128"
   xml:space="preserve"
   sodipodi:version="0.32"
   inkscape:version="0.46"
   sodipodi:docname="go-next-page.svgz"
   sodipodi:docbase="/Users/david/Desktop/sandbox"
   inkscape:output_extension="org.inkscape.output.svgz.inkscape"
   inkscape:export-filename="/home/pinheiro/pics/oxygen/scalable/actions/go-next-page.png"
   inkscape:export-xdpi="45"
   inkscape:export-ydpi="45"><defs
   id="defs105"><linearGradient
     y2="94.5366"
     x2="86.5356"
     y1="102.3447"
     x1="94.3438"
     gradientUnits="userSpaceOnUse"
     id="linearGradient4749">
	<stop
   id="stop4751"
   style="stop-color:#000000;stop-opacity:1"
   offset="0" />
	<stop
   id="stop4753"
   style="stop-color:#555753"
   offset="1" />
</linearGradient><linearGradient
     y2="96.0002"
     x2="88.0002"
     y1="104"
     x1="96"
     gradientUnits="userSpaceOnUse"
     id="linearGradient4627">
	<stop
   id="stop4629"
   style="stop-color:#888A85"
   offset="0" />
	<stop
   id="stop4631"
   style="stop-color:#8C8E89"
   offset="0.06730022" />
	<stop
   id="stop4633"
   style="stop-color:#ABACA9"
   offset="0.0673" />
	<stop
   id="stop4635"
   style="stop-color:#C5C6C4"
   offset="0.1347" />
	<stop
   id="stop4637"
   style="stop-color:#DBDBDA"
   offset="0.2115" />
	<stop
   id="stop4639"
   style="stop-color:#EBEBEB"
   offset="0.3012" />
	<stop
   id="stop4641"
   style="stop-color:#F7F7F6"
   offset="0.4122" />
	<stop
   id="stop4643"
   style="stop-color:#FDFDFD"
   offset="0.5679" />
	<stop
   id="stop4645"
   style="stop-color:#FFFFFF"
   offset="1" />
</linearGradient><filter
     inkscape:collect="always"
     id="filter3241"><feGaussianBlur
       inkscape:collect="always"
       stdDeviation="1.0394514"
       id="feGaussianBlur3243" /></filter><filter
     inkscape:collect="always"
     id="filter3772"><feGaussianBlur
       inkscape:collect="always"
       stdDeviation="0.50063244"
       id="feGaussianBlur3774" /></filter><filter
     id="filter3187"
     inkscape:collect="always"><feGaussianBlur
       id="feGaussianBlur3189"
       stdDeviation="0.56525828"
       inkscape:collect="always" /></filter><linearGradient
     y2="65.448112"
     x2="173.98071"
     y1="123.75864"
     x1="179.17224"
     gradientUnits="userSpaceOnUse"
     id="linearGradient2226"
     xlink:href="#linearGradient3295"
     inkscape:collect="always" /><radialGradient
     r="56"
     fy="76"
     fx="172"
     cy="76"
     cx="172"
     gradientTransform="matrix(1,0,0,1.1383929,0,-10.517857)"
     gradientUnits="userSpaceOnUse"
     id="radialGradient3629"
     xlink:href="#XMLID_4_"
     inkscape:collect="always" /><radialGradient
     gradientUnits="userSpaceOnUse"
     gradientTransform="matrix(0.9792,0,0,0.9725,133.0002,20.8762)"
     r="55.148"
     cy="-0.2148"
     cx="48"
     id="XMLID_4_"><stop
       id="stop3082"
       style="stop-color:#72D13D"
       offset="0" /><stop
       id="stop3084"
       style="stop-color:#35AC1C"
       offset="0.3553" /><stop
       id="stop3086"
       style="stop-color:#0F9508"
       offset="0.6194" /><stop
       id="stop3088"
       style="stop-color:#008C00"
       offset="0.7574" /><stop
       id="stop3090"
       style="stop-color:#007A00"
       offset="1" /></radialGradient><linearGradient
     id="linearGradient3295"><stop
       id="stop3297"
       offset="0"
       style="stop-color:#63e9ff;stop-opacity:1;" /><stop
       id="stop3299"
       offset="1"
       style="stop-color:#ffffff;stop-opacity:0;" /></linearGradient><linearGradient
     y2="80.12056"
     x2="63.159035"
     y1="21.171064"
     x1="63.159035"
     gradientTransform="matrix(1.0533333,0,0,0.9219945,11.76,4.9924269)"
     gradientUnits="userSpaceOnUse"
     id="linearGradient2382"
     xlink:href="#linearGradient3710"
     inkscape:collect="always" /><linearGradient
     y2="48.212151"
     x2="35.568035"
     y1="69.923088"
     x1="73.739265"
     gradientTransform="matrix(1.0533333,0,0,0.9219945,11.76,4.9924269)"
     gradientUnits="userSpaceOnUse"
     id="linearGradient2380"
     xlink:href="#linearGradient3710"
     inkscape:collect="always" /><linearGradient
     y2="80.12056"
     x2="63.159035"
     y1="21.171064"
     x1="63.159035"
     gradientTransform="matrix(1.0533333,0,0,0.9219945,11.76,4.9924269)"
     gradientUnits="userSpaceOnUse"
     id="linearGradient2378"
     xlink:href="#linearGradient3361"
     inkscape:collect="always" /><linearGradient
     y2="44.287056"
     x2="91.992706"
     y1="112.5"
     x1="91.785248"
     gradientTransform="translate(20,0)"
     gradientUnits="userSpaceOnUse"
     id="linearGradient2376"
     xlink:href="#linearGradient3400"
     inkscape:collect="always" /><linearGradient
     y2="44.287056"
     x2="91.992706"
     y1="112.5"
     x1="91.785248"
     gradientTransform="translate(20,0)"
     gradientUnits="userSpaceOnUse"
     id="linearGradient2374"
     xlink:href="#linearGradient3400"
     inkscape:collect="always" /><radialGradient
     r="50"
     fy="91.805016"
     fx="57.058514"
     cy="79.055809"
     cx="53.630272"
     gradientTransform="matrix(1.519949,7.3519239e-8,-8.0632435e-8,1.2772114,-20.224726,-23.996639)"
     gradientUnits="userSpaceOnUse"
     id="radialGradient2372"
     xlink:href="#linearGradient3348"
     inkscape:collect="always" /><radialGradient
     r="3.578125"
     fy="64.53125"
     fx="11.578125"
     cy="64.53125"
     cx="11.578125"
     gradientTransform="matrix(6.5079869,0,0,1.510917,-63.772161,-32.970115)"
     gradientUnits="userSpaceOnUse"
     id="radialGradient2370"
     xlink:href="#linearGradient3710"
     inkscape:collect="always" /><linearGradient
     y2="96.363052"
     x2="58.606159"
     y1="32.051865"
     x1="43.799026"
     gradientTransform="matrix(1.0533333,0,0,0.9219945,7.5466667,4.9924269)"
     gradientUnits="userSpaceOnUse"
     id="linearGradient2368"
     xlink:href="#linearGradient3294"
     inkscape:collect="always" /><radialGradient
     r="3.15625"
     fy="16.0865"
     fx="71.775223"
     cy="16.0865"
     cx="71.775223"
     gradientTransform="matrix(0.9650814,0.2619502,-0.9201984,3.3902106,17.309062,-57.693239)"
     gradientUnits="userSpaceOnUse"
     id="radialGradient2366"
     xlink:href="#linearGradient3689"
     inkscape:collect="always" /><radialGradient
     r="3.15625"
     fy="16.0865"
     fx="71.775223"
     cy="16.0865"
     cx="71.775223"
     gradientTransform="matrix(0.9650814,0.2619502,-0.9201984,3.3902106,33.309062,-57.693239)"
     gradientUnits="userSpaceOnUse"
     id="radialGradient2362"
     xlink:href="#linearGradient3669"
     inkscape:collect="always" /><filter
     id="filter3722"
     height="1.5982659"
     y="-0.29913295"
     width="1.9039301"
     x="-0.45196507"
     inkscape:collect="always"><feGaussianBlur
       id="feGaussianBlur3724"
       stdDeviation="1.3476562"
       inkscape:collect="always" /></filter><filter
     id="filter3681"
     height="1.1579429"
     y="-0.078971461"
     width="1.2447821"
     x="-0.12239107"
     inkscape:collect="always"><feGaussianBlur
       id="feGaussianBlur3683"
       stdDeviation="0.321914"
       inkscape:collect="always" /></filter><filter
     id="filter3533"
     inkscape:collect="always"><feGaussianBlur
       id="feGaussianBlur3535"
       stdDeviation="1.0600355"
       inkscape:collect="always" /></filter><filter
     id="filter3396"
     inkscape:collect="always"><feGaussianBlur
       id="feGaussianBlur3398"
       stdDeviation="0.495"
       inkscape:collect="always" /></filter><linearGradient
     id="linearGradient3294"
     inkscape:collect="always"><stop
       id="stop3296"
       offset="0"
       style="stop-color:#37a42c;stop-opacity:1;" /><stop
       id="stop3298"
       offset="1"
       style="stop-color:#bff500;stop-opacity:1" /></linearGradient><linearGradient
     id="linearGradient3348"
     inkscape:collect="always"><stop
       id="stop3350"
       offset="0"
       style="stop-color:#cbff10;stop-opacity:1" /><stop
       id="stop3352"
       offset="1"
       style="stop-color:#004d00;stop-opacity:1" /></linearGradient><linearGradient
     id="linearGradient3361"
     inkscape:collect="always"><stop
       id="stop3363"
       offset="0"
       style="stop-color:#edffbf;stop-opacity:1;" /><stop
       id="stop3365"
       offset="1"
       style="stop-color:#edffbf;stop-opacity:0;" /></linearGradient><linearGradient
     id="linearGradient3400"
     inkscape:collect="always"><stop
       id="stop3402"
       offset="0"
       style="stop-color:#e5ff00;stop-opacity:1;" /><stop
       id="stop3404"
       offset="1"
       style="stop-color:#e5ff00;stop-opacity:0;" /></linearGradient><linearGradient
     inkscape:collect="always"
     id="linearGradient3503"><stop
       style="stop-color:#005f1e;stop-opacity:1"
       offset="0"
       id="stop3505" /><stop
       style="stop-color:#43943c;stop-opacity:1"
       offset="1"
       id="stop3507" /></linearGradient><linearGradient
     id="linearGradient3511"
     inkscape:collect="always"><stop
       id="stop3513"
       offset="0"
       style="stop-color:#002a0d;stop-opacity:1;" /><stop
       id="stop3515"
       offset="1"
       style="stop-color:#002a0d;stop-opacity:0;" /></linearGradient><linearGradient
     id="linearGradient3669"
     inkscape:collect="always"><stop
       id="stop3671"
       offset="0"
       style="stop-color:#ffffff;stop-opacity:1;" /><stop
       id="stop3673"
       offset="1"
       style="stop-color:#ffffff;stop-opacity:0;" /></linearGradient><linearGradient
     inkscape:collect="always"
     id="linearGradient3689"><stop
       style="stop-color:#f0ff80;stop-opacity:1"
       offset="0"
       id="stop3691" /><stop
       style="stop-color:#f0ff80;stop-opacity:0"
       offset="1"
       id="stop3693" /></linearGradient><linearGradient
     id="linearGradient3710"
     inkscape:collect="always"><stop
       id="stop3712"
       offset="0"
       style="stop-color:#ffffff;stop-opacity:1;" /><stop
       id="stop3714"
       offset="1"
       style="stop-color:#ffffff;stop-opacity:0;" /></linearGradient><filter
     id="filter4209"
     inkscape:collect="always"><feGaussianBlur
       id="feGaussianBlur4211"
       stdDeviation="0.90565481"
       inkscape:collect="always" /></filter><filter
     id="filter4171"
     inkscape:collect="always"><feGaussianBlur
       id="feGaussianBlur4173"
       stdDeviation="0.4901192"
       inkscape:collect="always" /></filter><filter
     id="filter4107"
     inkscape:collect="always"><feGaussianBlur
       id="feGaussianBlur4109"
       stdDeviation="0.40750996"
       inkscape:collect="always" /></filter><radialGradient
     inkscape:collect="always"
     xlink:href="#XMLID_7_"
     id="radialGradient3791"
     gradientUnits="userSpaceOnUse"
     gradientTransform="matrix(0.7538414,0,0,0.7538414,7.5189891,18.558777)"
     cx="111.79375"
     cy="107.89297"
     r="139.5585"
     fx="111.79375"
     fy="107.89297" /><radialGradient
     inkscape:collect="always"
     xlink:href="#XMLID_8_"
     id="radialGradient3793"
     gradientUnits="userSpaceOnUse"
     gradientTransform="matrix(0.9787234,0,0,0.9818182,-18.638296,-6.8363636)"
     cx="113.03709"
     cy="112.88172"
     fx="113.03709"
     fy="112.88172"
     r="139.55859" /><linearGradient
     inkscape:collect="always"
     xlink:href="#linearGradient4749"
     id="linearGradient3795"
     gradientUnits="userSpaceOnUse"
     x1="71.993744"
     y1="85.496582"
     x2="55.993748"
     y2="67.992966" /><linearGradient
     inkscape:collect="always"
     xlink:href="#XMLID_11_"
     id="linearGradient3797"
     gradientUnits="userSpaceOnUse"
     x1="95"
     y1="103"
     x2="87.293"
     y2="95.293" /><linearGradient
     inkscape:collect="always"
     xlink:href="#linearGradient4627"
     id="linearGradient3799"
     gradientUnits="userSpaceOnUse"
     x1="99.993744"
     y1="114.99297"
     x2="83.993744"
     y2="98.992966"
     gradientTransform="translate(-4,-7)" /><radialGradient
     inkscape:collect="always"
     xlink:href="#XMLID_7_"
     id="radialGradient4675"
     gradientUnits="userSpaceOnUse"
     gradientTransform="matrix(0.7538414,0,0,0.7538414,7.5189891,18.558777)"
     cx="111.79375"
     cy="107.89297"
     fx="111.79375"
     fy="107.89297"
     r="139.5585" /><radialGradient
     inkscape:collect="always"
     xlink:href="#XMLID_8_"
     id="radialGradient4677"
     gradientUnits="userSpaceOnUse"
     gradientTransform="matrix(0.9787234,0,0,0.9818182,-18.638296,-6.8363636)"
     cx="108.95013"
     cy="108.80765"
     fx="108.95013"
     fy="108.80765"
     r="139.55859" /><linearGradient
     inkscape:collect="always"
     xlink:href="#XMLID_9_"
     id="linearGradient4679"
     gradientUnits="userSpaceOnUse"
     x1="94.3438"
     y1="102.3447"
     x2="86.5356"
     y2="94.5366" /><linearGradient
     inkscape:collect="always"
     xlink:href="#XMLID_11_"
     id="linearGradient4681"
     gradientUnits="userSpaceOnUse"
     x1="95"
     y1="103"
     x2="87.293"
     y2="95.293" /><linearGradient
     inkscape:collect="always"
     xlink:href="#linearGradient4627"
     id="linearGradient4683"
     gradientUnits="userSpaceOnUse"
     gradientTransform="translate(-4,-7)"
     x1="99.993744"
     y1="114.99297"
     x2="83.993744"
     y2="98.992966" /><linearGradient
     inkscape:collect="always"
     xlink:href="#linearGradient3511"
     id="linearGradient4687"
     gradientUnits="userSpaceOnUse"
     gradientTransform="matrix(1.1772548,0,0,1.0772187,6.5552946,-4.9416701)"
     x1="96.373123"
     y1="120.42788"
     x2="96.373123"
     y2="46.089832" /><linearGradient
     inkscape:collect="always"
     xlink:href="#linearGradient3503"
     id="linearGradient4691"
     gradientUnits="userSpaceOnUse"
     gradientTransform="matrix(1.1772548,0,0,1.0772187,1.8462753,-4.9416701)"
     x1="71.626404"
     y1="123.73875"
     x2="46.225941"
     y2="28.942928" /><radialGradient
     inkscape:collect="always"
     xlink:href="#XMLID_7_"
     id="radialGradient4739"
     gradientUnits="userSpaceOnUse"
     gradientTransform="matrix(0.7538414,0,0,0.7538414,7.5189891,18.558777)"
     cx="111.79375"
     cy="107.89297"
     fx="111.79375"
     fy="107.89297"
     r="139.5585" /><radialGradient
     inkscape:collect="always"
     xlink:href="#XMLID_8_"
     id="radialGradient4741"
     gradientUnits="userSpaceOnUse"
     gradientTransform="matrix(0.9787234,0,0,0.9818182,-18.638296,-6.8363636)"
     cx="104.86317"
     cy="108.80765"
     fx="104.86317"
     fy="108.80765"
     r="139.55859" /><linearGradient
     inkscape:collect="always"
     xlink:href="#XMLID_9_"
     id="linearGradient4743"
     gradientUnits="userSpaceOnUse"
     x1="94.3438"
     y1="102.3447"
     x2="86.5356"
     y2="94.5366" /><linearGradient
     inkscape:collect="always"
     xlink:href="#XMLID_11_"
     id="linearGradient4745"
     gradientUnits="userSpaceOnUse"
     x1="95"
     y1="103"
     x2="87.293"
     y2="95.293" /><linearGradient
     inkscape:collect="always"
     xlink:href="#linearGradient4627"
     id="linearGradient4747"
     gradientUnits="userSpaceOnUse"
     gradientTransform="translate(-4,-7)"
     x1="99.993744"
     y1="114.99297"
     x2="83.993744"
     y2="98.992966" /><radialGradient
     inkscape:collect="always"
     xlink:href="#XMLID_7_"
     id="radialGradient4781"
     gradientUnits="userSpaceOnUse"
     gradientTransform="matrix(0.7538414,0,0,0.7538414,7.5189891,18.558777)"
     cx="111.79375"
     cy="107.89297"
     fx="111.79375"
     fy="107.89297"
     r="139.5585" /><radialGradient
     inkscape:collect="always"
     xlink:href="#XMLID_8_"
     id="radialGradient4783"
     gradientUnits="userSpaceOnUse"
     gradientTransform="matrix(0.9787234,0,0,0.9818182,-18.638296,-6.8363636)"
     cx="113.03709"
     cy="112.88172"
     fx="113.03709"
     fy="112.88172"
     r="139.55859" /><linearGradient
     inkscape:collect="always"
     xlink:href="#linearGradient4749"
     id="linearGradient4785"
     gradientUnits="userSpaceOnUse"
     x1="71.993744"
     y1="85.496582"
     x2="55.993748"
     y2="67.992966" /><linearGradient
     inkscape:collect="always"
     xlink:href="#XMLID_11_"
     id="linearGradient4787"
     gradientUnits="userSpaceOnUse"
     x1="95"
     y1="103"
     x2="87.293"
     y2="95.293" /><linearGradient
     inkscape:collect="always"
     xlink:href="#linearGradient4627"
     id="linearGradient4789"
     gradientUnits="userSpaceOnUse"
     gradientTransform="translate(-4,-7)"
     x1="99.993744"
     y1="114.99297"
     x2="83.993744"
     y2="98.992966" /></defs><sodipodi:namedview
   inkscape:window-height="687"
   inkscape:window-width="1022"
   inkscape:pageshadow="2"
   inkscape:pageopacity="0.0"
   guidetolerance="10.0"
   gridtolerance="10.0"
   objecttolerance="10.0"
   borderopacity="1.0"
   bordercolor="#666666"
   pagecolor="#ffffff"
   id="base"
   inkscape:zoom="1.8046875"
   inkscape:cx="92.352236"
   inkscape:cy="106.27239"
   inkscape:window-x="160"
   inkscape:window-y="267"
   inkscape:current-layer="Layer_1"
   showgrid="true"
   showguides="true"
   inkscape:guide-bbox="true"><inkscape:grid
     id="GridFromPre046Settings"
     type="xygrid"
     originx="0px"
     originy="0px"
     spacingx="4px"
     spacingy="4px"
     color="#0000ff"
     empcolor="#0000ff"
     opacity="0.2"
     empopacity="0.4"
     empspacing="2"
     enabled="true"
     visible="true" /></sodipodi:namedview>
<metadata
   id="metadata3">
	<ns:sfw>
		<ns:slices>
			<ns:slice
   y="0"
   x="0"
   height="128"
   width="128"
   sliceID="1316743234" />
		</ns:slices>
		<ns:sliceSourceBounds
   y="0"
   x="0"
   height="128"
   width="128"
   bottomLeftOrigin="true" />
		<ns:optimizationSettings>
			<ns:targetSettings
   targetSettingsID="0"
   fileFormat="PNG24Format">
				<ns:PNG24Format
   transparency="true"
   filtered="false"
   matteColor="#FFFFFF"
   noMatteColor="false"
   interlaced="false">
					</ns:PNG24Format>
			</ns:targetSettings>
			<ns:targetSettings
   targetSettingsID="1696735251"
   fileFormat="PNG24Format">
				<ns:PNG24Format
   transparency="true"
   filtered="false"
   matteColor="#FFFFFF"
   noMatteColor="false"
   interlaced="false">
					</ns:PNG24Format>
			</ns:targetSettings>
		</ns:optimizationSettings>
	</ns:sfw>
<rdf:RDF><cc:Work
     rdf:about=""><dc:format>image/svg+xml</dc:format><dc:type
       rdf:resource="http://purl.org/dc/dcmitype/StillImage" /></cc:Work></rdf:RDF></metadata>

<radialGradient
   id="XMLID_7_"
   cx="102"
   cy="112.3047"
   r="139.5585"
   gradientUnits="userSpaceOnUse">
	<stop
   offset="0"
   style="stop-color:#00537D"
   id="stop16" />
	<stop
   offset="0.0151"
   style="stop-color:#186389"
   id="stop18" />
	<stop
   offset="0.0558"
   style="stop-color:#558CA8"
   id="stop20" />
	<stop
   offset="0.0964"
   style="stop-color:#89AFC3"
   id="stop22" />
	<stop
   offset="0.1357"
   style="stop-color:#B3CCD8"
   id="stop24" />
	<stop
   offset="0.1737"
   style="stop-color:#D4E2E9"
   id="stop26" />
	<stop
   offset="0.2099"
   style="stop-color:#ECF2F5"
   id="stop28" />
	<stop
   offset="0.2435"
   style="stop-color:#FAFCFD"
   id="stop30" />
	<stop
   offset="0.2722"
   style="stop-color:#FFFFFF"
   id="stop32" />
</radialGradient>

<radialGradient
   id="XMLID_8_"
   cx="102"
   cy="112.3047"
   r="139.55859"
   gradientUnits="userSpaceOnUse">
	<stop
   offset="0"
   style="stop-color:#535557"
   id="stop37" />
	
	<stop
   offset="0.11366145"
   style="stop-color:#898A8C"
   id="stop41" />
	
	
	<stop
   offset="0.20296688"
   style="stop-color:#ECECEC"
   id="stop47" />
	<stop
   offset="0.2363"
   style="stop-color:#FAFAFA"
   id="stop49" />
	<stop
   offset="0.2722"
   style="stop-color:#FFFFFF"
   id="stop51" />
	<stop
   offset="0.5313"
   style="stop-color:#FAFAFA"
   id="stop53" />
	<stop
   offset="0.8449"
   style="stop-color:#EBECEC"
   id="stop55" />
	<stop
   offset="1"
   style="stop-color:#E1E2E3"
   id="stop57" />
</radialGradient>

<linearGradient
   id="XMLID_9_"
   gradientUnits="userSpaceOnUse"
   x1="94.3438"
   y1="102.3447"
   x2="86.5356"
   y2="94.5366">
	<stop
   offset="0"
   style="stop-color:#FFFFFF"
   id="stop62" />
	<stop
   offset="1"
   style="stop-color:#555753"
   id="stop64" />
</linearGradient>

<linearGradient
   id="XMLID_10_"
   gradientUnits="userSpaceOnUse"
   x1="95"
   y1="103"
   x2="86.5865"
   y2="94.5865">
	<stop
   offset="0"
   style="stop-color:#FFFFFF"
   id="stop69" />
	<stop
   offset="1"
   style="stop-color:#555753"
   id="stop71" />
</linearGradient>

<linearGradient
   id="XMLID_11_"
   gradientUnits="userSpaceOnUse"
   x1="95"
   y1="103"
   x2="87.293"
   y2="95.293">
	<stop
   offset="0"
   style="stop-color:#FFFFFF"
   id="stop76" />
	<stop
   offset="1"
   style="stop-color:#393B38"
   id="stop78" />
</linearGradient>

<linearGradient
   id="XMLID_12_"
   gradientUnits="userSpaceOnUse"
   x1="96"
   y1="104"
   x2="88.0002"
   y2="96.0002">
	<stop
   offset="0"
   style="stop-color:#888A85"
   id="stop83" />
	<stop
   offset="0.0072"
   style="stop-color:#8C8E89"
   id="stop85" />
	<stop
   offset="0.0673"
   style="stop-color:#ABACA9"
   id="stop87" />
	<stop
   offset="0.1347"
   style="stop-color:#C5C6C4"
   id="stop89" />
	<stop
   offset="0.2115"
   style="stop-color:#DBDBDA"
   id="stop91" />
	<stop
   offset="0.3012"
   style="stop-color:#EBEBEB"
   id="stop93" />
	<stop
   offset="0.4122"
   style="stop-color:#F7F7F6"
   id="stop95" />
	<stop
   offset="0.5679"
   style="stop-color:#FDFDFD"
   id="stop97" />
	<stop
   offset="1"
   style="stop-color:#FFFFFF"
   id="stop99" />
</linearGradient>
<g
   transform="translate(166.90774,-58.899455)"
   id="g4755"><g
     style="overflow:visible"
     id="g4757"
     transform="translate(-154.90149,58.906487)"><path
       id="path4759"
       d="M 33.56,24.448276 L 33.600816,121 L 83.212,121 C 83.742,121 84.251,120.789 84.626,120.414 L 114.574,90.482552 C 114.949,90.107552 115.16,89.598552 115.16,89.068552 L 115.16,24.448276 L 33.56,24.448276 z"
       style="opacity:0.72522523;fill:#000000;fill-opacity:1;filter:url(#filter3241)"
       transform="matrix(1.0416667,0,0,1.0357143,-9.9583333,-3.3215342)"
       sodipodi:nodetypes="cccccccc" /><path
       id="path4761"
       d="M 36.439999,26.379412 L 36.439999,119.06907 L 82.513997,119.06228 L 113.234,88.165725 L 113.24,26.379412 L 36.439999,26.379412 z"
       style="opacity:0.89589042;fill:#000000;fill-opacity:1;filter:url(#filter3772)"
       transform="matrix(1.0416667,0,0,1.0357143,-9.9583333,-3.3215342)"
       sodipodi:nodetypes="cccccc" /><path
       sodipodi:nodetypes="cccccccc"
       transform="matrix(1.0416667,0,0,1.0357143,-9.9583333,-3.3215342)"
       style="opacity:0.79279288;fill:#000000;fill-opacity:1;filter:url(#filter3241)"
       d="M 35.48,25.413793 L 35.520816,121 L 83.212,121 C 83.742,121 84.251,120.789 84.626,120.414 L 114.574,90.482552 C 114.949,90.107552 115.16,89.598552 115.16,89.068552 L 115.16,25.413793 L 35.48,25.413793 z"
       id="path4763" /><path
       sodipodi:nodetypes="cccccc"
       id="path4765"
       d="M 28.000002,24 L 28.000002,120 L 75.99375,119.99297 L 107.99375,87.992968 L 108,24 L 28.000002,24 z"
       style="fill:url(#radialGradient4781)" /><path
       sodipodi:nodetypes="ccccccccccc"
       id="path4767"
       d="M 36.678725,31.7 C 36.139449,31.7 35.700002,32.140836 35.700002,32.681818 L 35.000002,119.01818 C 35.000002,119.56015 35.439449,120 35.978725,120 L 75.891747,120 C 76.149151,120 76.401662,119.89593 76.583704,119.71233 L 106.71323,85.4812 C 106.89626,85.2976 107,85.045273 107,84.787055 L 107,32.981818 C 107,32.440836 106.56153,32 106.02128,32 L 36.678725,31.7 z"
       style="fill:url(#radialGradient4783);fill-opacity:1" /><g
       transform="translate(2.4e-6,0)"
       id="g4769"><path
         sodipodi:nodetypes="csscc"
         d="M 107.99375,87.992968 C 108.24375,87.742968 82.035,86 77,86 C 75.346,86 74,87.346 74,89 C 74,94.035 75.743748,120.24297 75.993748,119.99297 L 107.99375,87.992968 z"
         id="path4771"
         style="opacity:1;fill:url(#linearGradient4785);filter:url(#filter4107)" /><path
         sodipodi:nodetypes="csscc"
         d="M 107.99375,87.992968 C 108.36875,87.617968 86.444,87 77,87 C 75.897,87 75,87.897 75,89 C 75,98.444 75.618748,120.36797 75.993748,119.99297 L 107.99375,87.992968 z"
         id="path4773"
         style="opacity:0.2;fill:#000000;fill-opacity:1;filter:url(#filter4209)" /><path
         sodipodi:nodetypes="csscc"
         d="M 107.99375,87.992968 C 108.23275,87.753968 86.507,87.6 76.7,87.6 C 76.147,87.6 75.7,88.047 75.7,88.6 C 75.7,98.407 75.754748,120.23197 75.993748,119.99297 L 107.99375,87.992968 z"
         id="path4775"
         style="opacity:0.1;fill:url(#linearGradient4787);filter:url(#filter4171)" /><path
         sodipodi:nodetypes="cccc"
         d="M 75.993748,119.99297 L 107.99375,87.992968 L 75.993748,87.992968 L 75.993748,119.99297 z"
         id="path4777"
         style="fill:url(#linearGradient4789)" /></g><path
       id="path4779"
       d="M 100,32 L 100,32 z"
       style="fill:none;fill-rule:evenodd;stroke:#000000;stroke-width:1px;stroke-linecap:butt;stroke-linejoin:miter;stroke-opacity:1" /></g></g><path
   id="path4673"
   d="M 108,28 L 108,28 z"
   style="fill:none;fill-rule:evenodd;stroke:#000000;stroke-width:1px;stroke-linecap:butt;stroke-linejoin:miter;stroke-opacity:1" /><g
   id="g3777"
   transform="translate(134.90774,-74.899455)"><g
     transform="translate(-154.90149,58.906487)"
     id="g3741"
     style="overflow:visible"><path
       sodipodi:nodetypes="cccccccc"
       transform="matrix(1.0416667,0,0,1.0357143,-9.9583333,-3.3215342)"
       style="opacity:0.72522523;fill:#000000;fill-opacity:1;filter:url(#filter3241)"
       d="M 33.56,24.448276 L 33.600816,121 L 83.212,121 C 83.742,121 84.251,120.789 84.626,120.414 L 114.574,90.482552 C 114.949,90.107552 115.16,89.598552 115.16,89.068552 L 115.16,24.448276 L 33.56,24.448276 z"
       id="path4081" /><path
       sodipodi:nodetypes="cccccc"
       transform="matrix(1.0416667,0,0,1.0357143,-9.9583333,-3.3215342)"
       style="opacity:0.89589042;fill:#000000;fill-opacity:1;filter:url(#filter3772)"
       d="M 36.439999,26.379412 L 36.439999,119.06907 L 82.513997,119.06228 L 113.234,88.165725 L 113.24,26.379412 L 36.439999,26.379412 z"
       id="path3744" /><path
       id="path3746"
       d="M 35.48,25.413793 L 35.520816,121 L 83.212,121 C 83.742,121 84.251,120.789 84.626,120.414 L 114.574,90.482552 C 114.949,90.107552 115.16,89.598552 115.16,89.068552 L 115.16,25.413793 L 35.48,25.413793 z"
       style="opacity:0.79279279;fill:#000000;fill-opacity:1;filter:url(#filter3241)"
       transform="matrix(1.0416667,0,0,1.0357143,-9.9583333,-3.3215342)"
       sodipodi:nodetypes="cccccccc" /><path
       style="fill:url(#radialGradient3791)"
       d="M 28.000002,24 L 28.000002,120 L 75.99375,119.99297 L 107.99375,87.992968 L 108,24 L 28.000002,24 z"
       id="path3748"
       sodipodi:nodetypes="cccccc" /><path
       style="fill:url(#radialGradient3793);fill-opacity:1"
       d="M 36.678725,31.7 C 36.139449,31.7 35.700002,32.140836 35.700002,32.681818 L 35.000002,119.01818 C 35.000002,119.56015 35.439449,120 35.978725,120 L 75.891747,120 C 76.149151,120 76.401662,119.89593 76.583704,119.71233 L 106.71323,85.4812 C 106.89626,85.2976 107,85.045273 107,84.787055 L 107,32.981818 C 107,32.440836 106.56153,32 106.02128,32 L 36.678725,31.7 z"
       id="path3750"
       sodipodi:nodetypes="ccccccccccc" /><g
       id="g3753"
       transform="translate(2.4e-6,0)"><path
         style="opacity:1;fill:url(#linearGradient3795);filter:url(#filter4107)"
         id="path3755"
         d="M 107.99375,87.992968 C 108.24375,87.742968 82.035,86 77,86 C 75.346,86 74,87.346 74,89 C 74,94.035 75.743748,120.24297 75.993748,119.99297 L 107.99375,87.992968 z"
         sodipodi:nodetypes="csscc" /><path
         style="opacity:0.2;fill:#000000;fill-opacity:1;filter:url(#filter4209)"
         id="path3757"
         d="M 107.99375,87.992968 C 108.36875,87.617968 86.444,87 77,87 C 75.897,87 75,87.897 75,89 C 75,98.444 75.618748,120.36797 75.993748,119.99297 L 107.99375,87.992968 z"
         sodipodi:nodetypes="csscc" /><path
         style="opacity:0.1;fill:url(#linearGradient3797);filter:url(#filter4171)"
         id="path3759"
         d="M 107.99375,87.992968 C 108.23275,87.753968 86.507,87.6 76.7,87.6 C 76.147,87.6 75.7,88.047 75.7,88.6 C 75.7,98.407 75.754748,120.23197 75.993748,119.99297 L 107.99375,87.992968 z"
         sodipodi:nodetypes="csscc" /><path
         style="fill:url(#linearGradient3799)"
         id="path3761"
         d="M 75.993748,119.99297 L 107.99375,87.992968 L 75.993748,87.992968 L 75.993748,119.99297 z"
         sodipodi:nodetypes="cccc" /></g><path
       style="fill:none;fill-rule:evenodd;stroke:#000000;stroke-width:1px;stroke-linecap:butt;stroke-linejoin:miter;stroke-opacity:1"
       d="M 100,32 L 100,32 z"
       id="path3763" /></g></g><path
   id="path2602"
   d="M 104,32 L 104,32 z"
   style="fill:none;fill-rule:evenodd;stroke:#000000;stroke-width:1px;stroke-linecap:butt;stroke-linejoin:miter;stroke-opacity:1" />

<path
   style="fill:none;fill-rule:evenodd;stroke:#000000;stroke-width:1px;stroke-linecap:butt;stroke-linejoin:miter;stroke-opacity:1"
   d="M 76,20 L 76,20 z"
   id="path3341" /><g
   id="layer1"
   inkscape:label="Layer 1"
   transform="matrix(0.4813011,0,0,0.4813011,60.692707,12.195922)"><g
     transform="matrix(-1,0,0,1,127.97333,1.7146484e-2)"
     id="g2345"><path
       style="opacity:0.90526321;fill:none;fill-opacity:1;fill-rule:evenodd;stroke:#638000;stroke-width:0.9659996;stroke-linecap:butt;stroke-linejoin:round;stroke-miterlimit:4;stroke-dasharray:none;stroke-opacity:1;filter:url(#filter3533)"
       d="M 87.875,12 C 87.009497,12.026935 86.176101,12.333976 85.5,12.875 L 25.5,60.875 C 24.550144,61.634129 24,62.784063 24,64 C 24,65.215937 24.550144,66.365871 25.5,67.125 L 85.5,115.125 C 86.700963,116.08613 88.332437,116.26025 89.71875,115.59375 C 91.105067,114.92725 92.000642,113.53821 92,112 L 92,88.3125 L 92,78.0625 L 90.5,76.875 C 89.299037,75.91387 87.667563,75.739753 86.28125,76.40625 C 84.894933,77.072748 83.999358,78.461793 84,80 L 84,103.6875 L 34.40625,64 L 84,24.3125 L 84,48 C 83.999358,49.538207 84.894936,50.927253 86.28125,51.59375 C 87.66756,52.260246 89.299037,52.08613 90.5,51.125 L 92,49.9375 L 92,39.6875 L 92,16 C 92.000417,14.917152 91.558627,13.878821 90.78125,13.125 C 90.003873,12.37118 88.957323,11.966273 87.875,12 z"
       id="path3519"
       transform="matrix(1.0533333,0,0,1.0173732,-5.0933333,-1.1118124)" /><path
       sodipodi:type="inkscape:offset"
       inkscape:radius="8.0641012"
       inkscape:original="M 91.15625 8 C 90.137337 8.0290147 89.170943 8.3546989 88.375 8.9375 L 17.75 60.625 C 16.631776 61.442748 15.96875 62.690169 15.96875 64 C 15.96875 65.309829 16.631777 66.557252 17.75 67.375 L 88.375 119.0625 C 89.788837 120.09785 91.711707 120.28046 93.34375 119.5625 C 94.975804 118.84453 96.032008 117.37573 96.03125 115.71875 L 96.03125 90.1875 L 96.03125 85.40625 L 96.03125 79.15625 L 96.03125 48.84375 L 96.03125 43.53125 L 96.03125 37.8125 L 96.03125 12.28125 C 96.031747 11.114786 95.508921 9.9995295 94.59375 9.1875 C 93.678578 8.3754712 92.43042 7.9636687 91.15625 8 z M 86.59375 21.25 L 86.59375 42.46875 L 68.9375 42.46875 C 68.285299 42.46875 67.78125 42.934471 67.78125 43.53125 L 67.78125 85.40625 C 67.781253 86.003029 68.285301 86.5 68.9375 86.5 L 86.59375 86.5 L 86.59375 106.75 L 28.21875 64 L 86.59375 21.25 z "
       style="fill:url(#linearGradient4691);fill-opacity:1;fill-rule:evenodd;stroke:none;stroke-width:8;stroke-linecap:butt;stroke-linejoin:round;stroke-miterlimit:4;stroke-dasharray:none;stroke-opacity:1"
       id="path4689"
       d="M 90.9375,-0.0625 C 88.347297,0.011258954 85.775863,0.86260633 83.625,2.4375 L 13,54.125 C 9.9536521,56.352769 7.90625,59.968847 7.90625,64 C 7.90625,68.03116 9.953651,71.647228 13,73.875 L 83.625,125.5625 C 87.486112,128.38998 92.363379,128.7985 96.59375,126.9375 C 100.76258,125.10355 104.09608,120.80476 104.09375,115.71875 L 104.09375,90.1875 L 104.09375,85.40625 L 104.09375,79.15625 L 104.09375,48.84375 L 104.09375,43.53125 L 104.09375,37.8125 L 104.09375,12.28125 C 104.09527,8.7029656 102.45401,5.3891472 99.9375,3.15625 C 97.312,0.8266533 94.097038,-0.15259013 90.9375,-0.0625 z M 59.71875,50.90625 L 59.71875,77.09375 L 41.84375,64 L 59.71875,50.90625 z" /><path
       style="opacity:0.85;fill:url(#radialGradient2362);fill-opacity:1;fill-rule:evenodd;stroke:none;stroke-width:8;stroke-linecap:butt;stroke-linejoin:round;stroke-miterlimit:4;stroke-dasharray:none;stroke-opacity:1;filter:url(#filter3681)"
       d="M 87.875,12 C 87.075959,12.024867 86.302054,12.283948 85.65625,12.75 L 85.65625,21.259131 L 91.96875,15.625 C 91.880958,14.678789 91.469257,13.792159 90.78125,13.125 C 90.003873,12.37118 88.957323,11.966273 87.875,12 z"
       id="path3651"
       transform="matrix(1.9975842,0,0,1.929388,-83.247033,-21.120545)"
       sodipodi:nodetypes="ccccsc" /><path
       sodipodi:type="inkscape:offset"
       inkscape:radius="8.3666096"
       inkscape:original="M 91.15625 8 C 90.137337 8.0290147 89.170943 8.3546989 88.375 8.9375 L 17.75 60.625 C 16.631776 61.442748 15.96875 62.690169 15.96875 64 C 15.96875 65.309829 16.631777 66.557252 17.75 67.375 L 88.375 119.0625 C 89.788837 120.09785 91.711707 120.28046 93.34375 119.5625 C 94.975804 118.84453 96.032008 117.37573 96.03125 115.71875 L 96.03125 90.1875 L 96.03125 85.40625 L 96.03125 84.65625 L 96.03125 79.15625 L 96.03125 48.84375 L 96.03125 43.53125 L 96.03125 43.34375 L 96.03125 37.8125 L 96.03125 12.28125 C 96.031747 11.114786 95.508921 9.9995295 94.59375 9.1875 C 93.678578 8.3754712 92.43042 7.9636687 91.15625 8 z M 86.59375 21.25 L 86.59375 42.46875 L 68.9375 42.46875 C 68.285299 42.46875 67.78125 42.934471 67.78125 43.53125 L 67.78125 85.40625 C 67.781253 86.003029 68.285301 86.5 68.9375 86.5 L 86.59375 86.5 L 86.59375 106.75 L 28.21875 64 L 86.59375 21.25 z "
       style="opacity:0.90526321;fill:url(#linearGradient4687);fill-opacity:1;fill-rule:evenodd;stroke:none;stroke-width:8;stroke-linecap:butt;stroke-linejoin:round;stroke-miterlimit:4;stroke-dasharray:none;stroke-opacity:1"
       id="path4685"
       d="M 90.90625,-0.375 C 88.257103,-0.29956256 85.639191,0.57539 83.4375,2.1875 L 12.8125,53.875 C 9.6938224,56.155663 7.59375,59.866762 7.59375,64 C 7.59375,68.133245 9.6938213,71.844334 12.8125,74.125 L 83.4375,125.8125 C 87.390417,128.70721 92.390908,129.12263 96.71875,127.21875 C 100.98275,125.34294 104.40864,120.93339 104.40625,115.71875 L 104.40625,90.1875 L 104.40625,85.40625 L 104.40625,84.65625 L 104.40625,79.15625 L 104.40625,48.84375 L 104.40625,43.53125 L 104.40625,43.34375 L 104.40625,37.8125 L 104.40625,12.28125 C 104.40781,8.612491 102.73283,5.2236982 100.15625,2.9375 C 97.46659,0.55097482 94.136514,-0.46710678 90.90625,-0.375 z M 59.40625,51.53125 L 59.40625,76.46875 L 42.375,64 L 59.40625,51.53125 z" /><path
       id="path3685"
       d="M 71.875,12 C 71.075959,12.024867 70.302054,12.283948 69.65625,12.75 L 69.65625,21.322989 L 75.96875,15.625 C 75.880958,14.678789 75.469257,13.792159 74.78125,13.125 C 74.003873,12.37118 72.957323,11.966273 71.875,12 z"
       style="opacity:0.35;fill:url(#radialGradient2366);fill-opacity:1;fill-rule:evenodd;stroke:none;stroke-width:8;stroke-linecap:butt;stroke-linejoin:round;stroke-miterlimit:4;stroke-dasharray:none;stroke-opacity:1;filter:url(#filter3681)"
       transform="matrix(2.0073652,0,0,-1.938835,-51.966993,148.95802)"
       sodipodi:nodetypes="ccccsc" /><path
       style="fill:url(#linearGradient2368);fill-opacity:1;fill-rule:evenodd;stroke:none;stroke-width:1px;stroke-linecap:butt;stroke-linejoin:miter;stroke-opacity:1"
       d="M 24.4,64.000073 L 87.6,19.744339 L 87.18446,107.00919 L 24.4,64.000073 z"
       id="path2323"
       sodipodi:nodetypes="cccc" /><path
       style="opacity:0.5;fill:url(#radialGradient2370);fill-opacity:1;fill-rule:evenodd;stroke:none;stroke-width:8;stroke-linecap:butt;stroke-linejoin:round;stroke-miterlimit:4;stroke-dasharray:none;stroke-opacity:1;filter:url(#filter3722)"
       d="M 11.6875,59.125 L 9.5,60.875 C 8.5501441,61.634129 8,62.784063 8,64 C 8.0000001,65.215937 8.5501441,66.365871 9.5,67.125 L 13.03125,69.9375 L 15.15625,64.3125 L 11.6875,59.125 z"
       id="path3705"
       transform="matrix(2.5069599,0,0,-2.4213739,-10.754833,220.28615)" /><path
       style="fill:url(#radialGradient2372);fill-opacity:1;fill-rule:evenodd;stroke:none;stroke-width:1px;stroke-linecap:butt;stroke-linejoin:miter;stroke-opacity:1"
       d="M 87.6,19.744339 L 24.4,64.000073 L 87.027458,106.78518 L 87.6,78.751985 L 87.6,49.248162 L 87.6,19.744339 z"
       id="path3320"
       sodipodi:nodetypes="cccccc" /><path
       style="fill:none;fill-opacity:1;fill-rule:evenodd;stroke:url(#linearGradient2374);stroke-width:1.0147357px;stroke-linecap:butt;stroke-linejoin:miter;stroke-opacity:1;filter:url(#filter3396)"
       d="M 92,16 L 32,64 L 91.45645,110.40495 L 92,80 L 92,48 L 92,16 z"
       id="path3394"
       transform="matrix(1.0533333,0,0,0.9219945,-9.3066667,4.9924269)"
       sodipodi:nodetypes="cccccc" /><path
       id="path3895"
       d="M 92,16 L 32,64 L 90.27295,109.05285 L 92,80 L 92,48 L 92,16 z"
       style="fill:none;fill-opacity:1;fill-rule:evenodd;stroke:url(#linearGradient2376);stroke-width:1.0147357px;stroke-linecap:butt;stroke-linejoin:miter;stroke-opacity:1;filter:url(#filter3396)"
       transform="matrix(1.0533333,0,0,0.9219945,-9.3066667,4.9924269)"
       sodipodi:nodetypes="cccccc" /><path
       style="fill:url(#linearGradient2378);fill-opacity:1;fill-rule:evenodd;stroke:none;stroke-width:1px;stroke-linecap:butt;stroke-linejoin:miter;stroke-opacity:1"
       d="M 87.6,19.744339 L 24.531667,63.913636 C 31.325523,64.772472 38.548578,65.239004 46.059167,65.239003 C 61.572821,65.239003 75.930219,63.261985 87.6,59.908723 L 87.6,49.248162 L 87.6,19.744339 z"
       id="path3897" /><path
       style="fill:url(#linearGradient2380);fill-opacity:1;fill-rule:evenodd;stroke:none;stroke-width:1px;stroke-linecap:butt;stroke-linejoin:miter;stroke-opacity:1"
       d="M 87.6,19.744339 L 86.71125,20.37821 L 86.71125,48.84479 L 86.71125,59.361289 C 75.203203,62.668078 61.061565,64.605133 45.762917,64.605133 C 38.631436,64.605133 31.769756,64.182739 25.28875,63.395014 L 24.531667,63.913636 C 31.325523,64.772472 38.548578,65.239004 46.059167,65.239003 C 61.572821,65.239003 75.930219,63.261985 87.6,59.908723 L 87.6,49.248162 L 87.6,19.744339 z"
       id="path3910" /><path
       style="fill:url(#linearGradient2382);fill-opacity:1;fill-rule:evenodd;stroke:none;stroke-width:1px;stroke-linecap:butt;stroke-linejoin:miter;stroke-opacity:1"
       d="M 87.6,19.744339 L 24.531667,63.913636 C 28.122981,64.367627 31.847249,64.698286 35.6575,64.922068 C 32.169447,64.704673 28.75029,64.35923 25.453333,63.942448 L 86.678333,21.069705 L 86.678333,49.709159 L 86.678333,60.052784 C 82.430956,61.273251 77.821812,62.321664 72.919167,63.135704 C 78.150964,62.285094 83.084328,61.206282 87.6,59.908723 L 87.6,49.248162 L 87.6,19.744339 z M 35.6575,64.922068 C 37.402503,65.024555 39.172559,65.101717 40.957083,65.152566 C 39.171728,65.097092 37.401526,65.030765 35.6575,64.922068 z"
       id="path3919" /></g></g></svg>