<?xml version="1.0" encoding="UTF-8" standalone="no"?>
<!-- Created with Inkscape (http://www.inkscape.org/) -->

<svg
   xmlns:dc="http://purl.org/dc/elements/1.1/"
   xmlns:cc="http://creativecommons.org/ns#"
   xmlns:rdf="http://www.w3.org/1999/02/22-rdf-syntax-ns#"
   xmlns:svg="http://www.w3.org/2000/svg"
   xmlns="http://www.w3.org/2000/svg"
   xmlns:xlink="http://www.w3.org/1999/xlink"
   xmlns:sodipodi="http://sodipodi.sourceforge.net/DTD/sodipodi-0.dtd"
   xmlns:inkscape="http://www.inkscape.org/namespaces/inkscape"
   width="128"
   height="128"
   id="svg2"
   sodipodi:version="0.32"
   inkscape:version="0.46+devel"
   version="1.0"
   sodipodi:docname="go-previus-context.svgz"
   inkscape:output_extension="org.inkscape.output.svgz.inkscape"
   inkscape:export-filename="/home/pinheiro/pics/oxygen-icons/scalable/actions/small/16x16/context.png"
   inkscape:export-xdpi="90"
   inkscape:export-ydpi="90">
  <defs
     id="defs4">
    <linearGradient
       inkscape:collect="always"
       id="linearGradient4153">
      <stop
         style="stop-color:#000000;stop-opacity:1;"
         offset="0"
         id="stop4155" />
      <stop
         style="stop-color:#000000;stop-opacity:0;"
         offset="1"
         id="stop4157" />
    </linearGradient>
    <linearGradient
       inkscape:collect="always"
       id="linearGradient4126">
      <stop
         style="stop-color:#ffffff;stop-opacity:1;"
         offset="0"
         id="stop4128" />
      <stop
         style="stop-color:#ffffff;stop-opacity:0;"
         offset="1"
         id="stop4130" />
    </linearGradient>
    <linearGradient
       id="linearGradient5342">
      <stop
         style="stop-color:#232221;stop-opacity:1;"
         offset="0"
         id="stop5344" />
      <stop
         id="stop5394"
         offset="0.10646833"
         style="stop-color:#555350;stop-opacity:1;" />
      <stop
         style="stop-color:#918d88;stop-opacity:1;"
         offset="1"
         id="stop5346" />
    </linearGradient>
    <linearGradient
       id="linearGradient3857"
       inkscape:collect="always">
      <stop
         id="stop3859"
         offset="0"
         style="stop-color:#ffffff;stop-opacity:1;" />
      <stop
         id="stop3861"
         offset="1"
         style="stop-color:#ffffff;stop-opacity:0" />
    </linearGradient>
    <filter
       inkscape:collect="always"
       id="filter5416"
       x="-0.21917803"
       width="1.4383561"
       y="-0.21917814"
       height="1.4383563">
      <feGaussianBlur
         inkscape:collect="always"
         stdDeviation="1.4611876"
         id="feGaussianBlur5418" />
    </filter>
    <clipPath
       clipPathUnits="userSpaceOnUse"
       id="clipPath5420">
      <path
         style="fill:url(#radialGradient5424);fill-opacity:1;stroke:none"
         d="m 108,8 c -56.856851,-6.4550541 -20.421406,2.416483 -4,8 3.30365,-0.176594 7.9579,2.481149 8,8 -6.88851,24.743398 27.73448,21.859264 8,-4 0.39763,-6.392767 -4.44397,-11.868932 -12,-12 z"
         id="path5422"
         sodipodi:nodetypes="ccccc" />
    </clipPath>
    <radialGradient
       inkscape:collect="always"
       xlink:href="#linearGradient3857"
       id="radialGradient5424"
       gradientUnits="userSpaceOnUse"
       gradientTransform="matrix(0.70743936,0.70677405,-0.99807448,0.99901401,48.73805,-79.148369)"
       cx="112.00771"
       cy="15.99981"
       fx="112.00771"
       fy="15.99981"
       r="8.0077057" />
    <radialGradient
       inkscape:collect="always"
       xlink:href="#linearGradient3857"
       id="radialGradient5426"
       gradientUnits="userSpaceOnUse"
       gradientTransform="matrix(0.70727305,0.70694048,-1.9971123,1.9980518,64.741093,-95.151426)"
       cx="112.00771"
       cy="15.99981"
       fx="112.00771"
       fy="15.99981"
       r="8.0077057" />
    <radialGradient
       inkscape:collect="always"
       xlink:href="#linearGradient3857"
       id="radialGradient5430"
       gradientUnits="userSpaceOnUse"
       gradientTransform="matrix(0.70727305,0.70694048,-1.9971123,1.9980518,64.741093,-95.151426)"
       cx="112.00771"
       cy="15.99981"
       fx="112.00771"
       fy="15.99981"
       r="8.0077057" />
    <radialGradient
       inkscape:collect="always"
       xlink:href="#linearGradient3857"
       id="radialGradient5436"
       gradientUnits="userSpaceOnUse"
       gradientTransform="matrix(0.70727305,0.70694048,-1.9971123,1.9980518,64.741093,-95.151426)"
       cx="112.00771"
       cy="15.99981"
       fx="112.00771"
       fy="15.99981"
       r="8.0077057" />
    <radialGradient
       inkscape:collect="always"
       xlink:href="#linearGradient3857"
       id="radialGradient5438"
       gradientUnits="userSpaceOnUse"
       gradientTransform="matrix(0.70727305,0.70694048,-1.9971123,1.9980518,64.741093,-95.151426)"
       cx="112.00771"
       cy="15.99981"
       fx="112.00771"
       fy="15.99981"
       r="8.0077057" />
    <linearGradient
       inkscape:collect="always"
       xlink:href="#linearGradient5342"
       id="linearGradient4070"
       x1="79.953979"
       y1="119.50533"
       x2="79.953979"
       y2="17.140291"
       gradientUnits="userSpaceOnUse"
       gradientTransform="translate(16,0)" />
    <radialGradient
       inkscape:collect="always"
       xlink:href="#linearGradient3857"
       id="radialGradient4119"
       cx="204"
       cy="119.08856"
       fx="204"
       fy="119.08856"
       r="55.088566"
       gradientTransform="matrix(1,0,0,0.8713242,0,8.2352512)"
       gradientUnits="userSpaceOnUse" />
    <linearGradient
       inkscape:collect="always"
       xlink:href="#linearGradient4126"
       id="linearGradient4132"
       x1="262.89728"
       y1="-44.0037"
       x2="262.89728"
       y2="120.36926"
       gradientUnits="userSpaceOnUse"
       gradientTransform="translate(-128,0)" />
    <linearGradient
       inkscape:collect="always"
       xlink:href="#linearGradient4126"
       id="linearGradient4143"
       gradientUnits="userSpaceOnUse"
       gradientTransform="translate(-128.0125,0.03125)"
       x1="262.89728"
       y1="-0.0050510014"
       x2="262.89728"
       y2="120.36926" />
    <radialGradient
       inkscape:collect="always"
       xlink:href="#linearGradient3857"
       id="radialGradient4145"
       gradientUnits="userSpaceOnUse"
       gradientTransform="matrix(0.70727305,0.70694048,-1.9971123,1.9980518,64.741093,-95.151426)"
       cx="112.00771"
       cy="15.99981"
       fx="112.00771"
       fy="15.99981"
       r="8.0077057" />
    <radialGradient
       inkscape:collect="always"
       xlink:href="#linearGradient3857"
       id="radialGradient4149"
       gradientUnits="userSpaceOnUse"
       gradientTransform="matrix(0.70727305,0.70694048,-1.9971123,1.9980518,64.741093,-95.151426)"
       cx="112.00771"
       cy="15.99981"
       fx="112.00771"
       fy="15.99981"
       r="8.0077057" />
    <linearGradient
       inkscape:collect="always"
       xlink:href="#linearGradient4153"
       id="linearGradient4159"
       x1="-20"
       y1="116"
       x2="69.397987"
       y2="64.386047"
       gradientUnits="userSpaceOnUse" />
    <radialGradient
       inkscape:collect="always"
       xlink:href="#linearGradient3857"
       id="radialGradient4164"
       gradientUnits="userSpaceOnUse"
       gradientTransform="matrix(1,0,0,0.65349309,0,34.176445)"
       cx="204"
       cy="119.08856"
       fx="204"
       fy="119.08856"
       r="55.088566" />
    <radialGradient
       inkscape:collect="always"
       xlink:href="#linearGradient4126"
       id="radialGradient4174"
       cx="40.347382"
       cy="17.324789"
       fx="40.347382"
       fy="17.324789"
       r="6.1289759"
       gradientTransform="matrix(0.85213193,-0.52332702,1.6787399,2.7334875,-23.117725,-9.3117136)"
       gradientUnits="userSpaceOnUse" />
    <filter
       inkscape:collect="always"
       id="filter4180"
       x="-0.12407009"
       width="1.2481402"
       y="-0.1383146"
       height="1.2766292">
      <feGaussianBlur
         inkscape:collect="always"
         stdDeviation="0.63368549"
         id="feGaussianBlur4182" />
    </filter>
    <clipPath
       clipPathUnits="userSpaceOnUse"
       id="clipPath4186">
      <path
         sodipodi:nodetypes="ccccc"
         id="path4188"
         d="M 42.070416,8 C 36.960573,7.915807 33.149963,11.41872 31.742048,13.968374 27.453259,21.573186 27.870853,27.086271 26.583374,33.357168 28.12481,31.48941 64.798281,18.559396 67.063835,18.554976 58.735594,15.034428 55.981743,7.2401818 42.070416,8 z"
         style="fill:url(#radialGradient4190);fill-opacity:1;stroke-width:1px;filter:url(#filter4180)" />
    </clipPath>
    <radialGradient
       inkscape:collect="always"
       xlink:href="#linearGradient4126"
       id="radialGradient4190"
       gradientUnits="userSpaceOnUse"
       gradientTransform="matrix(0.85213193,-0.52332702,1.6787399,2.7334875,-23.117725,-9.3117136)"
       cx="40.347382"
       cy="17.324789"
       fx="40.347382"
       fy="17.324789"
       r="6.1289759" />
    <radialGradient
       inkscape:collect="always"
       xlink:href="#linearGradient4126"
       id="radialGradient4194"
       gradientUnits="userSpaceOnUse"
       gradientTransform="matrix(0.85213193,-0.52332702,1.6787399,2.7334875,-23.117725,-9.3117136)"
       cx="40.347382"
       cy="17.324789"
       fx="40.347382"
       fy="17.324789"
       r="6.1289759" />
  </defs>
  <sodipodi:namedview
     id="base"
     pagecolor="#ffffff"
     bordercolor="#666666"
     borderopacity="1.0"
     gridtolerance="10000"
     guidetolerance="10"
     objecttolerance="10"
     inkscape:pageopacity="0.0"
     inkscape:pageshadow="2"
     inkscape:zoom="1.8101934"
     inkscape:cx="107.1282"
     inkscape:cy="87.411387"
     inkscape:document-units="px"
     inkscape:current-layer="layer1"
     width="128px"
     height="128px"
     showgrid="false"
     inkscape:window-width="1040"
     inkscape:window-height="728"
     inkscape:window-x="478"
     inkscape:window-y="384"
     inkscape:snap-bbox="false"
     inkscape:object-paths="true"
     showguides="true"
     inkscape:guide-bbox="true"
     inkscape:snap-nodes="true"
     inkscape:snap-smooth-nodes="true">
    <inkscape:grid
       id="GridFromPre046Settings"
       type="xygrid"
       originx="0px"
       originy="0px"
       spacingx="4px"
       spacingy="4px"
       color="#0000ff"
       empcolor="#0000ff"
       opacity="0.2"
       empopacity="0.4"
       empspacing="2" />
  </sodipodi:namedview>
  <metadata
     id="metadata7">
    <rdf:RDF>
      <cc:Work
         rdf:about="">
        <dc:format>image/svg+xml</dc:format>
        <dc:type
           rdf:resource="http://purl.org/dc/dcmitype/StillImage" />
        <dc:title></dc:title>
      </cc:Work>
    </rdf:RDF>
  </metadata>
  <g
     inkscape:label="Layer 1"
     inkscape:groupmode="layer"
     id="layer1">
    <path
       style="fill:url(#linearGradient4070);fill-opacity:1;stroke-width:1px"
       d="m 42,8 a 11.721951,11.721951 0 0 0 -9.78125,5.25 L 3.0625,57.1875 a 11.721951,11.721951 0 0 0 -0.0313,12.875 l 29.1875,44.625 A 11.721951,11.721951 0 0 0 42.0312,120 l 74.25,0 A 11.721951,11.721951 0 0 0 128,108.28125 l 0,-88.5625 A 11.721951,11.721951 0 0 0 116.28125,8 L 42,8 z"
       id="path3288" />
    <path
       sodipodi:type="inkscape:offset"
       inkscape:radius="8"
       inkscape:original="M 172 24 L 145.8125 64 L 172 104 L 240 104 L 240 24 L 172 24 z "
       style="opacity:0.40000000000000002;fill:url(#radialGradient4164);fill-opacity:1;stroke-width:1px"
       id="path4115"
       d="m 172,16 a 8.0008,8.0008 0 0 0 -6.6875,3.625 l -26.1875,40 a 8.0008,8.0008 0 0 0 0,8.75 l 26.1875,40 A 8.0008,8.0008 0 0 0 172,112 l 68,0 a 8.0008,8.0008 0 0 0 8,-8 l 0,-80 a 8.0008,8.0008 0 0 0 -8,-8 l -68,0 z"
       transform="translate(-128,0)" />
    <path
       style="opacity:0.40000000000000002;fill:url(#linearGradient4132);fill-opacity:1;stroke:none"
       d="m 44,16 a 8.0008,8.0008 0 0 0 -6.6875,3.625 l -26.1875,40 a 8.0008,8.0008 0 0 0 -1.25,3.5625 C 20.25768,64.990275 31.38969,66 43,66 73.8666,66 101.47369,59.066311 120,48.15625 L 120,24 a 8.0008,8.0008 0 0 0 -8,-8 l -68,0 z"
       id="path4121" />
    <path
       style="fill:url(#linearGradient4143);fill-opacity:1;stroke:none"
       d="m 117.175,17.96875 a 8.0008,8.0008 0 0 1 2.125,5.375 l 0,24.15625 c -18.52631,10.910061 -46.1334,17.84375 -77,17.84375 -11.32005,0 -22.18427,-0.968588 -32.34375,-2.6875 a 8.0008,8.0008 0 0 0 -0.0937,0.5625 c 10.38263,1.802775 21.51464,2.8125 33.12495,2.8125 30.8666,0 58.47369,-6.933689 77,-17.84375 l 0,-24.15625 a 8.0008,8.0008 0 0 0 -2.8125,-6.0625 z"
       id="path4134" />
    <path
       sodipodi:nodetypes="ccccc"
       id="path5414"
       d="m 108,8 -4,8 c 3.30365,-0.176594 7.9579,2.481149 8,8 l 8,-4 C 120.007,14.388483 115.55603,8.131068 108,8 z"
       style="fill:url(#radialGradient4145);fill-opacity:1;stroke:none;filter:url(#filter5416)"
       clip-path="url(#clipPath5420)"
       transform="translate(7.8,0)" />
    <path
       transform="matrix(1,0,0,-1,8,127.77955)"
       clip-path="url(#clipPath5420)"
       style="opacity:0.6956522;fill:url(#radialGradient4149);fill-opacity:1;stroke:none;filter:url(#filter5416)"
       d="m 108,8 -4,8 c 3.30365,-0.176594 7.9579,2.481149 8,8 l 8,-4 C 120.007,14.388483 115.55603,8.131068 108,8 z"
       id="path4147"
       sodipodi:nodetypes="ccccc" />
    <path
       style="font-size:113.80991364px;fill:#ffffff;fill-opacity:1"
       d="m 64,24 c -9.05344,0.04453 -16.13252,1.212734 -19.25,3.875 -3.14211,2.678653 -4.68753,8.078467 -4.6875,16.1875 l 0,5.1875 c -3e-5,5.467272 -0.91763,9.496862 -2.9375,11.625 -1.98253,2.091529 -4.33852,3.125038 -9.6875,3.125 L 24,64 l 0,8 3.4375,0 c 5.31158,3.1e-5 7.66757,0.934347 9.6875,3.0625 2.01987,2.128206 2.93747,5.77191 2.9375,11.3125 l 0,5.15625 c -3e-5,8.1091 1.54539,13.50347 4.6875,16.21875 3.11748,2.66232 10.19656,4.19156 19.25,4.25 l 0,-8 c -5.19069,-0.0217 -11.56731,-0.93629 -13.15625,-2.53125 -1.60849,-1.61449 -2.40629,-5.01382 -2.40625,-10.1875 l 0,-5.625 C 48.43746,79.932196 47.68321,75.948964 46,73.34375 44.31671,70.738593 42.83949,68.990738 38.6875,68 c 4.11459,-0.917286 5.56671,-2.707275 7.25,-5.3125 1.72062,-2.605146 2.49996,-6.989187 2.5,-12.75 l 0,-5.65625 c -4e-5,-5.173613 0.79776,-8.572944 2.40625,-10.1875 C 52.43269,32.498869 58.80931,32.014681 64,32 l 0,-8 z"
       id="path3006"
       sodipodi:nodetypes="ccccsccccscccccsccsccccscc" />
    <path
       sodipodi:nodetypes="ccccsccccscccccsccsccccscc"
       id="path5340"
       d="m 80,24 c 9.05344,0.04453 16.13252,1.212734 19.25,3.875 3.14211,2.678653 4.68753,8.078467 4.6875,16.1875 l 0,5.1875 c 3e-5,5.467272 0.91763,9.496862 2.9375,11.625 1.98253,2.091529 4.33852,3.125038 9.6875,3.125 l 3.4375,0 0,8 -3.4375,0 c -5.31158,3.1e-5 -7.66757,0.934347 -9.6875,3.0625 -2.01987,2.128206 -2.93747,5.77191 -2.9375,11.3125 l 0,5.15625 c 3e-5,8.1091 -1.54539,13.50347 -4.6875,16.21875 -3.11748,2.66232 -10.19656,4.19156 -19.25,4.25 l 0,-8 c 5.19069,-0.0217 11.56731,-0.93629 13.15625,-2.53125 1.60849,-1.61449 2.40629,-5.01382 2.40625,-10.1875 l 0,-5.625 c 4e-5,-5.724054 0.75429,-9.707286 2.4375,-12.3125 1.68329,-2.605157 3.16051,-4.353012 7.3125,-5.34375 -4.11459,-0.917286 -5.56671,-2.707275 -7.25,-5.3125 -1.72062,-2.605146 -2.49996,-6.989187 -2.5,-12.75 l 0,-5.65625 c 4e-5,-5.173613 -0.79776,-8.572944 -2.40625,-10.1875 C 91.56731,32.498869 85.19069,32.014681 80,32 l 0,-8 z"
       style="font-size:113.80991364px;fill:#ffffff;fill-opacity:1" />
    <path
       style="fill:url(#linearGradient4159);fill-opacity:1;stroke-width:1px"
       d="M 42 8 A 11.721951 11.721951 0 0 0 32.21875 13.25 L 3.0625 57.1875 A 11.721951 11.721951 0 0 0 3.03125 70.0625 L 32.21875 114.6875 A 11.721951 11.721951 0 0 0 42.03125 120 L 116.28125 120 A 11.721951 11.721951 0 0 0 128 108.28125 L 128 19.71875 A 11.721951 11.721951 0 0 0 116.28125 8 L 42 8 z M 44 16 L 112 16 A 8.0008 8.0008 0 0 1 120 24 L 120 104 A 8.0008 8.0008 0 0 1 112 112 L 44 112 A 8.0008 8.0008 0 0 1 37.3125 108.375 L 11.125 68.375 A 8.0008 8.0008 0 0 1 11.125 59.625 L 37.3125 19.625 A 8.0008 8.0008 0 0 1 44 16 z "
       id="path4151" />
    <path
       style="stroke-width:1px;fill-opacity:1;fill:url(#radialGradient4174);filter:url(#filter4180)"
       d="m 42.070416,8 c -5.109843,-0.084193 -8.920453,3.41872 -10.328368,5.968374 l 6.027976,5.025687 C 39.31146,17.126303 41.734446,16.00442 44,16 L 42.070416,8 z"
       id="path4166"
       sodipodi:nodetypes="ccccc"
       clip-path="url(#clipPath4186)" />
    <path
       clip-path="url(#clipPath4186)"
       sodipodi:nodetypes="ccccc"
       id="path4192"
       d="m 42.070416,8 c -5.109843,-0.084193 -8.920453,3.41872 -10.328368,5.968374 l 6.027976,5.025687 C 39.31146,17.126303 41.734446,16.00442 44,16 L 42.070416,8 z"
       style="fill:url(#radialGradient4194);fill-opacity:1;stroke-width:1px;filter:url(#filter4180);opacity:0.71497585"
       transform="matrix(1,0,0,-1,0,128)" />
  </g>
</svg>
