<?xml version="1.0" encoding="UTF-8" standalone="no"?>
<!-- Created with Inkscape (http://www.inkscape.org/) -->

<svg
   xmlns:dc="http://purl.org/dc/elements/1.1/"
   xmlns:cc="http://creativecommons.org/ns#"
   xmlns:rdf="http://www.w3.org/1999/02/22-rdf-syntax-ns#"
   xmlns:svg="http://www.w3.org/2000/svg"
   xmlns="http://www.w3.org/2000/svg"
   xmlns:xlink="http://www.w3.org/1999/xlink"
   xmlns:sodipodi="http://sodipodi.sourceforge.net/DTD/sodipodi-0.dtd"
   xmlns:inkscape="http://www.inkscape.org/namespaces/inkscape"
   width="128"
   height="128"
   id="svg2"
   sodipodi:version="0.32"
   inkscape:version="0.48.1 r9760"
   version="1.0"
   sodipodi:docname="im-twitter.svgz"
   inkscape:output_extension="org.inkscape.output.svgz.inkscape"
   inkscape:export-filename="/home/pinheiro/pics/oxygen-icons/scalable/actions/small/16x16/im-twitter.png"
   inkscape:export-xdpi="90"
   inkscape:export-ydpi="90">
  <defs
     id="defs4">
    <linearGradient
       id="linearGradient3960">
      <stop
         style="stop-color:#e1edff;stop-opacity:1;"
         offset="0"
         id="stop3962" />
      <stop
         id="stop3964"
         offset="0.35053781"
         style="stop-color:#bdd6fb;stop-opacity:1;" />
      <stop
         id="stop3966"
         offset="0.70107555"
         style="stop-color:#9ebad4;stop-opacity:1;" />
      <stop
         style="stop-color:#4b648b;stop-opacity:1;"
         offset="1"
         id="stop3968" />
    </linearGradient>
    <linearGradient
       inkscape:collect="always"
       id="linearGradient4050">
      <stop
         style="stop-color:#c5d8f4;stop-opacity:1;"
         offset="0"
         id="stop4052" />
      <stop
         style="stop-color:#c5d8f4;stop-opacity:0;"
         offset="1"
         id="stop4054" />
    </linearGradient>
    <linearGradient
       id="linearGradient3857"
       inkscape:collect="always">
      <stop
         id="stop3859"
         offset="0"
         style="stop-color:#ffffff;stop-opacity:1;" />
      <stop
         id="stop3861"
         offset="1"
         style="stop-color:#ffffff;stop-opacity:0" />
    </linearGradient>
    <radialGradient
       inkscape:collect="always"
       xlink:href="#linearGradient3857"
       id="radialGradient5424"
       gradientUnits="userSpaceOnUse"
       gradientTransform="matrix(0.70743936,0.70677405,-0.99807448,0.99901401,48.73805,-79.148369)"
       cx="112.00771"
       cy="15.99981"
       fx="112.00771"
       fy="15.99981"
       r="8.0077057" />
    <radialGradient
       inkscape:collect="always"
       xlink:href="#linearGradient3857"
       id="radialGradient32224"
       gradientUnits="userSpaceOnUse"
       gradientTransform="matrix(0.70727305,0.70694048,-1.9971123,1.9980518,64.741093,-95.151426)"
       cx="112.00771"
       cy="15.99981"
       fx="112.00771"
       fy="15.99981"
       r="8.0077057" />
    <radialGradient
       inkscape:collect="always"
       xlink:href="#linearGradient3857"
       id="radialGradient32226"
       gradientUnits="userSpaceOnUse"
       gradientTransform="matrix(0.70727305,0.70694048,-1.9971123,1.9980518,64.741093,-95.151426)"
       cx="112.00771"
       cy="15.99981"
       fx="112.00771"
       fy="15.99981"
       r="8.0077057" />
    <linearGradient
       id="linearGradient2949">
      <stop
         id="stop2951-1"
         offset="0"
         style="stop-color:#cddff9;stop-opacity:1;" />
      <stop
         style="stop-color:#92aed7;stop-opacity:1;"
         offset="0.2265625"
         id="stop4314" />
      <stop
         style="stop-color:#587eb5;stop-opacity:1;"
         offset="0.5"
         id="stop2953-3" />
      <stop
         id="stop2955-80"
         offset="1"
         style="stop-color:#0c2a58;stop-opacity:1;" />
    </linearGradient>
    <linearGradient
       id="linearGradient3993">
      <stop
         id="stop3995"
         offset="0"
         style="stop-color:#0a2042;stop-opacity:1" />
      <stop
         id="stop3997"
         offset="1"
         style="stop-color:#1b3473;stop-opacity:1;" />
    </linearGradient>
    <filter
       inkscape:collect="always"
       id="filter4046">
      <feGaussianBlur
         inkscape:collect="always"
         stdDeviation="1.9932065"
         id="feGaussianBlur4048" />
    </filter>
    <clipPath
       clipPathUnits="userSpaceOnUse"
       id="clipPath4058">
      <rect
         ry="11.46064"
         rx="11.46064"
         y="27.499004"
         x="320.89792"
         height="102.8519"
         width="102.8519"
         id="rect4060"
         style="fill:url(#radialGradient4062);fill-opacity:1;stroke:none" />
    </clipPath>
    <radialGradient
       inkscape:collect="always"
       xlink:href="#linearGradient3993"
       id="radialGradient4062"
       gradientUnits="userSpaceOnUse"
       gradientTransform="matrix(1.3394112,0,0,1.3394112,79.089762,-26.788015)"
       cx="218.92761"
       cy="78.92495"
       fx="218.92761"
       fy="78.92495"
       r="51.425949" />
    <filter
       inkscape:collect="always"
       id="filter4070"
       x="-0.04720061"
       width="1.0944012"
       y="-0.73375492"
       height="2.4675098">
      <feGaussianBlur
         inkscape:collect="always"
         stdDeviation="1.9765451"
         id="feGaussianBlur4072" />
    </filter>
    <linearGradient
       inkscape:collect="always"
       xlink:href="#linearGradient4050"
       id="linearGradient4173"
       gradientUnits="userSpaceOnUse"
       x1="234.24437"
       y1="198.78229"
       x2="428.18301"
       y2="5.3257771" />
    <radialGradient
       inkscape:collect="always"
       xlink:href="#linearGradient3960"
       id="radialGradient3159"
       gradientUnits="userSpaceOnUse"
       gradientTransform="matrix(2.0934426,0,0,1.5957562,-372.14666,-55.131208)"
       cx="216.27335"
       cy="59.184086"
       fx="231.64581"
       fy="48.599232"
       r="51.425949" />
    <linearGradient
       inkscape:collect="always"
       xlink:href="#linearGradient4050"
       id="linearGradient3161"
       gradientUnits="userSpaceOnUse"
       x1="234.24437"
       y1="198.78229"
       x2="428.18301"
       y2="5.3257771" />
    <linearGradient
       inkscape:collect="always"
       xlink:href="#linearGradient2949"
       id="linearGradient3168"
       gradientUnits="userSpaceOnUse"
       x1="56.785458"
       y1="182.24541"
       x2="58.665199"
       y2="74.667999"
       gradientTransform="matrix(1.5334908,0,0,1.5004458,-49.802151,-31.570497)" />
    <linearGradient
       inkscape:collect="always"
       xlink:href="#linearGradient2949"
       id="linearGradient3172"
       gradientUnits="userSpaceOnUse"
       x1="56.785458"
       y1="195.08235"
       x2="56.785458"
       y2="-47.995602"
       gradientTransform="matrix(1.5334908,0,0,1.5004458,-49.802151,-31.570497)" />
    <radialGradient
       inkscape:collect="always"
       xlink:href="#linearGradient3993"
       id="radialGradient3177"
       gradientUnits="userSpaceOnUse"
       gradientTransform="matrix(1.4422695,0,0,1.4147072,-251.0919,-49.443502)"
       cx="218.92761"
       cy="78.92495"
       fx="218.92761"
       fy="78.92495"
       r="51.425949" />
    <linearGradient
       inkscape:collect="always"
       xlink:href="#linearGradient4050"
       id="linearGradient3180"
       gradientUnits="userSpaceOnUse"
       x1="234.24437"
       y1="198.78229"
       x2="428.18301"
       y2="5.3257771" />
    <filter
       inkscape:collect="always"
       id="filter3807">
      <feGaussianBlur
         inkscape:collect="always"
         stdDeviation="2.5769478"
         id="feGaussianBlur3809" />
    </filter>
  </defs>
  <sodipodi:namedview
     id="base"
     pagecolor="#ffffff"
     bordercolor="#666666"
     borderopacity="1.0"
     gridtolerance="10000"
     guidetolerance="10"
     objecttolerance="10"
     inkscape:pageopacity="0.0"
     inkscape:pageshadow="2"
     inkscape:zoom="2.40625"
     inkscape:cx="117.07775"
     inkscape:cy="48.630635"
     inkscape:document-units="px"
     inkscape:current-layer="layer1"
     width="128px"
     height="128px"
     showgrid="true"
     inkscape:window-width="1040"
     inkscape:window-height="728"
     inkscape:window-x="359"
     inkscape:window-y="159"
     showguides="true"
     inkscape:guide-bbox="true"
     inkscape:snap-nodes="true"
     inkscape:snap-bbox="true"
     inkscape:window-maximized="0"
     inkscape:snap-global="true">
    <inkscape:grid
       id="GridFromPre046Settings"
       type="xygrid"
       originx="0px"
       originy="0px"
       spacingx="8px"
       spacingy="8px"
       color="#0000ff"
       empcolor="#0000ff"
       opacity="0.2"
       empopacity="0.4"
       empspacing="2"
       visible="true"
       enabled="true"
       snapvisiblegridlinesonly="true" />
  </sodipodi:namedview>
  <metadata
     id="metadata7">
    <rdf:RDF>
      <cc:Work
         rdf:about="">
        <dc:format>image/svg+xml</dc:format>
        <dc:type
           rdf:resource="http://purl.org/dc/dcmitype/StillImage" />
        <dc:title></dc:title>
      </cc:Work>
    </rdf:RDF>
  </metadata>
  <g
     inkscape:label="Layer 1"
     inkscape:groupmode="layer"
     id="layer1">
    <rect
       style="fill:url(#radialGradient3177);fill-opacity:1;stroke:none"
       id="rect3226"
       width="128"
       height="128"
       x="0"
       y="0"
       rx="20.812952"
       ry="20.812952" />
    <rect
       ry="12.597967"
       rx="12.597967"
       y="19.15967"
       x="39.056866"
       height="95.245667"
       width="93.384338"
       id="rect4004"
       style="fill:url(#radialGradient3159);fill-opacity:1;stroke:none;filter:url(#filter3807)"
       transform="matrix(1.1993446,0,0,1.1759065,-38.84264,-14.52998)" />
    <path
       sodipodi:nodetypes="cccsscscsssccscccc"
       inkscape:connector-curvature="0"
       id="rect3955"
       d="M 40.050827,16.349989 C 35.773927,16.415529 31.941563,20.276915 32,24.461775 l 0,52.53564 c 0,6.384971 1.561111,13.320501 6.373571,18.943125 4.812461,5.62262 12.782364,9.04956 22.235616,9.04956 l 24.535854,0 c 4.406334,0.20309 8.564575,-3.67839 8.564575,-7.99456 0,-4.31616 -4.158241,-8.197653 -8.564575,-7.994559 l -24.535854,0 c -5.854092,0 -8.096441,-1.525668 -9.68016,-3.376004 -1.583719,-1.850334 -2.587766,-4.893492 -2.587766,-8.627562 l 0,-21.103841 36.80378,0 c 4.406334,0.203094 8.564575,-3.678399 8.564575,-7.994561 0,-4.316164 -4.158241,-8.197656 -8.564575,-7.994563 l -36.80378,0 0,-15.442675 c 0.05939,-4.262925 -3.933625,-8.169902 -8.290434,-8.111786 z"
       style="fill:url(#linearGradient3172);fill-opacity:1;stroke:none" />
    <path
       sodipodi:nodetypes="cccccccccccscccsssccscssc"
       inkscape:connector-curvature="0"
       id="path3972"
       d="M 40.050827,16.349989 C 35.773927,16.415529 31.941563,20.276915 32,24.461775 L 32,26.9 c 0.231741,-3.995162 3.961518,-7.492506 8.050827,-7.549119 4.356809,-0.05811 8.349831,3.84886 8.290434,8.111785 l 0,-3.000891 c 0.05939,-4.262925 -3.933625,-8.169902 -8.290434,-8.111786 z m 8.290434,24.100911 0,3.000892 36.80378,0 c 3.904093,-0.184642 7.713101,2.758785 8.434199,6.517561 0.470617,-2.372683 -0.231419,-4.941463 -1.849568,-6.767632 -1.618148,-1.82617 -4.117466,-2.870294 -6.584631,-2.750821 z m 0,36.013588 0,3.000892 c 0,3.73407 1.004047,6.777228 2.587766,8.627562 1.583719,1.850335 3.826068,3.376004 9.68016,3.376004 l 24.535854,0 c 3.904093,-0.184643 7.713101,2.758785 8.434199,6.517554 0.470617,-2.37268 -0.231419,-4.941457 -1.849568,-6.767625 -1.618148,-1.826171 -4.117466,-2.870295 -6.584631,-2.750821 l -24.535854,0 c -5.854092,0 -8.096441,-1.525668 -9.68016,-3.376004 -1.583719,-1.850334 -2.587766,-4.893492 -2.587766,-8.627562 z"
       style="fill:#000000;fill-opacity:0.51351348;stroke:none" />
    <path
       inkscape:connector-curvature="0"
       id="path4013"
       d="M 33.629333,19.772882 C 32.606008,21.130771 31.976338,22.767318 32,24.461775 l 0,51.985383 c 0,6.384971 1.561111,13.320501 6.373571,18.943132 4.812461,5.62262 12.782364,9.04956 22.235616,9.04956 l 24.535854,0 c 3.304751,0.15231 6.483089,-1.97342 7.85914,-4.87645 -1.614463,2.09956 -4.25135,3.50031 -6.94863,3.376 l -24.535853,0 c -9.453253,0 -17.423156,-3.42694 -22.235617,-9.049561 C 34.47162,88.267213 32.91051,81.331682 32.91051,74.946711 l 0,-51.985382 c -0.01557,-1.114997 0.247174,-2.185051 0.718823,-3.188447 z m 59.374848,31.790695 c -1.614463,2.099562 -4.25135,3.500324 -6.94863,3.376002 l -36.80378,0 0,1.500446 35.89327,0 c 3.304751,0.15232 6.483089,-1.973418 7.85914,-4.876448 z"
       style="fill:url(#linearGradient3168);fill-opacity:1;stroke:none"
       sodipodi:nodetypes="ccssscccssscccccccc" />
    <path
       inkscape:connector-curvature="0"
       style="fill:#ffffff;fill-opacity:0.75688076;fill-rule:nonzero;stroke:none"
       d="m 138.51308,-135.31597 0,-0.81738 0,0.81738 z"
       id="path6503"
       sodipodi:nodetypes="ccc"
       inkscape:r_cx="true"
       inkscape:r_cy="true" />
  </g>
</svg>
