<?xml version="1.0" encoding="UTF-8" standalone="no"?>
<!-- Created with Inkscape (http://www.inkscape.org/) -->
<svg
   xmlns:dc="http://purl.org/dc/elements/1.1/"
   xmlns:cc="http://creativecommons.org/ns#"
   xmlns:rdf="http://www.w3.org/1999/02/22-rdf-syntax-ns#"
   xmlns:svg="http://www.w3.org/2000/svg"
   xmlns="http://www.w3.org/2000/svg"
   xmlns:xlink="http://www.w3.org/1999/xlink"
   xmlns:sodipodi="http://sodipodi.sourceforge.net/DTD/sodipodi-0.dtd"
   xmlns:inkscape="http://www.inkscape.org/namespaces/inkscape"
   width="128"
   height="128"
   id="svg2606"
   sodipodi:version="0.32"
   inkscape:version="0.46"
   version="1.0"
   sodipodi:docname="irc-close-channel.svgz"
   inkscape:output_extension="org.inkscape.output.svgz.inkscape"
   sodipodi:docbase="/home/pinheiro/pics/oxygen/scalable/mimetypes"
   inkscape:export-filename="/home/pinheiro/pics/oxygen/scalable/actions/irc-close-channel.png"
   inkscape:export-xdpi="90"
   inkscape:export-ydpi="90">
  <sodipodi:namedview
     id="base"
     pagecolor="#ffffff"
     bordercolor="#666666"
     borderopacity="1.0"
     inkscape:pageopacity="0.0"
     inkscape:pageshadow="2"
     inkscape:zoom="1.3175388"
     inkscape:cx="-46.456862"
     inkscape:cy="93.594214"
     inkscape:document-units="px"
     inkscape:current-layer="layer1"
     width="128px"
     height="128px"
     showgrid="true"
     inkscape:grid-points="true"
     showguides="true"
     inkscape:guide-bbox="true"
     inkscape:window-width="1016"
     inkscape:window-height="692"
     inkscape:window-x="428"
     inkscape:window-y="32">
    <inkscape:grid
       type="xygrid"
       id="grid4304"
       spacingx="4px"
       spacingy="4px"
       empspacing="2"
       visible="true"
       enabled="true" />
  </sodipodi:namedview>
  <defs
     id="defs2608">
    <linearGradient
       id="linearGradient6964">
      <stop
         id="stop6966"
         offset="0"
         style="stop-color:#f7f4f4;stop-opacity:1;" />
      <stop
         id="stop6968"
         offset="1"
         style="stop-color:#725b5b;stop-opacity:1;" />
    </linearGradient>
    <linearGradient
       inkscape:collect="always"
       id="linearGradient3489">
      <stop
         style="stop-color:#765c44;stop-opacity:1;"
         offset="0"
         id="stop3491" />
      <stop
         style="stop-color:#765c44;stop-opacity:0;"
         offset="1"
         id="stop3493" />
    </linearGradient>
    <linearGradient
       inkscape:collect="always"
       id="linearGradient3499">
      <stop
         style="stop-color:#ffffff;stop-opacity:1;"
         offset="0"
         id="stop3501" />
      <stop
         style="stop-color:#ffffff;stop-opacity:0;"
         offset="1"
         id="stop3503" />
    </linearGradient>
    <linearGradient
       id="linearGradient3397">
      <stop
         style="stop-color:#f4f5f8;stop-opacity:1;"
         offset="0"
         id="stop3399" />
      <stop
         style="stop-color:#fdfdfe;stop-opacity:1;"
         offset="1"
         id="stop3401" />
    </linearGradient>
    <linearGradient
       id="linearGradient3163">
      <stop
         offset="0"
         id="stop3165"
         style="stop-color:#fff5e4;stop-opacity:1;" />
      <stop
         offset="0.25"
         id="stop3173"
         style="stop-color:#ffecd0;stop-opacity:1;" />
      <stop
         offset="0.5"
         id="stop3171"
         style="stop-color:#ffd390;stop-opacity:1;" />
      <stop
         offset="1"
         id="stop3167"
         style="stop-color:#ffc46a;stop-opacity:1;" />
    </linearGradient>
    <linearGradient
       id="linearGradient3207">
      <stop
         style="stop-color:#ffffff;stop-opacity:1;"
         offset="0"
         id="stop3209" />
      <stop
         style="stop-color:#252525;stop-opacity:0;"
         offset="1"
         id="stop3211" />
    </linearGradient>
    <linearGradient
       y2="-15.688621"
       x2="58.743717"
       y1="78.411346"
       x1="58.743717"
       gradientTransform="translate(-96.166522,0)"
       gradientUnits="userSpaceOnUse"
       id="linearGradient3563"
       xlink:href="#linearGradient5826"
       inkscape:collect="always" />
    <clipPath
       id="clipPath3559"
       clipPathUnits="userSpaceOnUse">
      <path
         style="fill:url(#linearGradient3563);fill-opacity:1;stroke:none;stroke-width:8;stroke-linecap:round;stroke-linejoin:round;stroke-miterlimit:4;stroke-dashoffset:1.08779998;stroke-opacity:1"
         d="M -64.510272,10.75 C -65.552588,10.758355 -66.55048,11.173209 -67.291522,11.90625 L -84.260272,28.875 C -85.821746,30.437119 -85.821746,32.969131 -84.260272,34.53125 L -58.822772,60 L -84.260272,85.46875 C -85.821746,87.030869 -85.821746,89.562881 -84.260272,91.125 L -67.291522,108.09375 C -65.729403,109.65522 -63.197391,109.65522 -61.635272,108.09375 L -36.166522,82.65625 L -10.697772,108.09375 C -9.1356529,109.65522 -6.6036409,109.65522 -5.0415219,108.09375 L 11.927228,91.125 C 13.488698,89.562881 13.488698,87.030869 11.927228,85.46875 L -13.510272,60 L 11.927228,34.53125 C 13.488698,32.969131 13.488698,30.437119 11.927228,28.875 L -5.0415219,11.90625 C -6.6036409,10.344776 -9.1356529,10.344776 -10.697772,11.90625 L -36.166522,37.34375 L -61.635272,11.90625 C -62.399349,11.150239 -63.435519,10.733519 -64.510272,10.75 z M -33.322772,74.15625 C -34.074181,73.396786 -35.098158,72.96944 -36.166522,72.96944 C -37.234886,72.96944 -38.258863,73.396786 -39.010272,74.15625 L -33.322772,74.15625 z "
         id="path3561"
         sodipodi:nodetypes="cccccccccccccccccccccccscc" />
    </clipPath>
    <filter
       id="filter3549"
       height="1.2960713"
       y="-0.14803563"
       width="1.2328371"
       x="-0.11641854"
       inkscape:collect="always">
      <feGaussianBlur
         id="feGaussianBlur3551"
         stdDeviation="2.5695681"
         inkscape:collect="always" />
    </filter>
    <filter
       id="filter3477"
       height="1.2774813"
       y="-0.13874065"
       width="1.279832"
       x="-0.13991599"
       inkscape:collect="always">
      <feGaussianBlur
         id="feGaussianBlur3479"
         stdDeviation="0.28784801"
         inkscape:collect="always" />
    </filter>
    <filter
       id="filter3354"
       inkscape:collect="always">
      <feGaussianBlur
         id="feGaussianBlur3356"
         stdDeviation="0.45754832"
         inkscape:collect="always" />
    </filter>
    <linearGradient
       id="linearGradient5826">
      <stop
         id="stop5828"
         offset="0"
         style="stop-color:#810000;stop-opacity:1;" />
      <stop
         id="stop5830"
         offset="1"
         style="stop-color:#c50000;stop-opacity:1;" />
    </linearGradient>
    <linearGradient
       id="linearGradient3366"
       inkscape:collect="always">
      <stop
         id="stop3368"
         offset="0"
         style="stop-color:#ff8787;stop-opacity:1;" />
      <stop
         id="stop4472"
         offset="1"
         style="stop-color:#ff8787;stop-opacity:0;" />
    </linearGradient>
    <linearGradient
       id="linearGradient3575"
       inkscape:collect="always">
      <stop
         id="stop3577"
         offset="0"
         style="stop-color:#000000;stop-opacity:1;" />
      <stop
         id="stop3579"
         offset="1"
         style="stop-color:#000000;stop-opacity:0;" />
    </linearGradient>
    <linearGradient
       inkscape:collect="always"
       xlink:href="#linearGradient5826"
       id="linearGradient5251"
       gradientUnits="userSpaceOnUse"
       gradientTransform="matrix(0.5519938,-0.5519938,0.5519938,0.5519938,105.93193,76.396136)"
       x1="58.743717"
       y1="78.411346"
       x2="58.743717"
       y2="-15.688621" />
    <linearGradient
       inkscape:collect="always"
       xlink:href="#linearGradient3499"
       id="linearGradient5253"
       gradientUnits="userSpaceOnUse"
       gradientTransform="scale(1.0975951,0.9110828)"
       x1="26.091134"
       y1="14.856744"
       x2="31.500688"
       y2="14.856744" />
    <linearGradient
       inkscape:collect="always"
       xlink:href="#linearGradient3489"
       id="linearGradient5255"
       gradientUnits="userSpaceOnUse"
       gradientTransform="scale(1.0975951,0.9110828)"
       x1="26.091134"
       y1="14.856744"
       x2="31.500688"
       y2="14.856744" />
    <linearGradient
       inkscape:collect="always"
       xlink:href="#linearGradient3489"
       id="linearGradient5257"
       gradientUnits="userSpaceOnUse"
       x1="304.88664"
       y1="385.86126"
       x2="345.62039"
       y2="384.62384" />
    <linearGradient
       inkscape:collect="always"
       xlink:href="#linearGradient5826"
       id="linearGradient5259"
       gradientUnits="userSpaceOnUse"
       gradientTransform="matrix(0.5519938,-0.5519938,0.5519938,0.5519938,105.93193,76.396136)"
       x1="65.072342"
       y1="18.368395"
       x2="63.730301"
       y2="80.272057" />
    <linearGradient
       inkscape:collect="always"
       xlink:href="#linearGradient3366"
       id="linearGradient5261"
       gradientUnits="userSpaceOnUse"
       gradientTransform="translate(56.7,0)"
       spreadMethod="reflect"
       x1="31.90625"
       y1="13.510336"
       x2="34.875107"
       y2="13.510336" />
    <linearGradient
       inkscape:collect="always"
       xlink:href="#linearGradient3163"
       id="linearGradient5263"
       gradientUnits="userSpaceOnUse"
       x1="59.999996"
       y1="92.973083"
       x2="57.434441"
       y2="55.07938" />
    <radialGradient
       inkscape:collect="always"
       xlink:href="#linearGradient3575"
       id="radialGradient5265"
       gradientUnits="userSpaceOnUse"
       gradientTransform="matrix(0.4576062,0,0,0.782313,-19.847694,18.82067)"
       cx="-36.592777"
       cy="90.072952"
       fx="-36.592777"
       fy="90.072952"
       r="25.986174" />
    <linearGradient
       inkscape:collect="always"
       xlink:href="#linearGradient3397"
       id="linearGradient5267"
       gradientUnits="userSpaceOnUse"
       gradientTransform="matrix(0.7825428,-0.7825428,0.389368,0.389368,105.93193,76.396136)"
       x1="68.313011"
       y1="109.97649"
       x2="51.544849"
       y2="32.750854" />
    <linearGradient
       inkscape:collect="always"
       xlink:href="#linearGradient3366"
       id="linearGradient5269"
       gradientUnits="userSpaceOnUse"
       gradientTransform="matrix(0.5519938,-0.5519938,0.5519938,0.5519938,105.93193,76.396136)"
       x1="47.264141"
       y1="21.738457"
       x2="47.264141"
       y2="70.357269" />
    <linearGradient
       inkscape:collect="always"
       xlink:href="#linearGradient3207"
       id="linearGradient5271"
       gradientUnits="userSpaceOnUse"
       gradientTransform="matrix(0.5519938,-0.5519938,0.5519938,0.5519938,106.62882,77.079228)"
       x1="63.174049"
       y1="10.40386"
       x2="63.174042"
       y2="61.87199" />
    <linearGradient
       inkscape:collect="always"
       xlink:href="#linearGradient3207"
       id="linearGradient5273"
       gradientUnits="userSpaceOnUse"
       gradientTransform="translate(-0.3,0)"
       spreadMethod="reflect"
       x1="31.90625"
       y1="13.510336"
       x2="34.875107"
       y2="13.510336" />
    <linearGradient
       inkscape:collect="always"
       xlink:href="#linearGradient3207"
       id="linearGradient5275"
       gradientUnits="userSpaceOnUse"
       gradientTransform="translate(56.7,0)"
       spreadMethod="reflect"
       x1="31.90625"
       y1="13.510336"
       x2="34.875107"
       y2="13.510336" />
    <filter
       height="1.2063982"
       y="-0.10319912"
       width="1.2386586"
       x="-0.11932931"
       id="filter3952"
       inkscape:collect="always">
      <feGaussianBlur
         id="feGaussianBlur3954"
         stdDeviation="0.52540178"
         inkscape:collect="always" />
    </filter>
    <filter
       id="filter3874"
       inkscape:collect="always">
      <feGaussianBlur
         id="feGaussianBlur3876"
         stdDeviation="0.44866101"
         inkscape:collect="always" />
    </filter>
    <linearGradient
       y2="103.5"
       x2="58"
       y1="69.626083"
       x1="56.125"
       gradientUnits="userSpaceOnUse"
       id="linearGradient3790"
       xlink:href="#linearGradient3691"
       inkscape:collect="always" />
    <clipPath
       id="clipPath3786"
       clipPathUnits="userSpaceOnUse">
      <path
         style="fill:url(#linearGradient9734);fill-opacity:1;stroke:none;stroke-width:1.20000005;stroke-linecap:round;stroke-linejoin:round;stroke-miterlimit:4;stroke-dashoffset:0;stroke-opacity:1"
         d="M -23.029324,-146.61201 C -28.56094,-146.85284 -33.674594,-143.07649 -35.029324,-137.64326 C -35.029345,-137.63284 -35.029345,-137.62243 -35.029324,-137.61201 L -37.841824,-126.20576 L -43.873074,-126.20576 C -50.314423,-126.20576 -55.716824,-120.80336 -55.716824,-114.36201 L -55.716824,-106.36201 C -55.716824,-100.51606 -51.199238,-95.735446 -45.560574,-94.86201 L -49.685574,-78.20576 L -55.873074,-78.20576 C -62.314423,-78.20576 -67.716824,-72.803358 -67.716824,-66.36201 L -67.716824,-58.36201 C -67.716824,-52.471552 -63.135144,-47.64742 -57.435574,-46.83076 L -58.279324,-43.39326 C -59.833003,-37.16213 -55.89687,-30.60601 -49.654324,-29.04951 L -41.873074,-27.11201 C -35.641951,-25.55833 -29.05458,-29.49451 -27.498074,-35.73701 C -27.498053,-35.74743 -27.498053,-35.75784 -27.498074,-35.76826 L -24.841824,-46.51826 L -10.185574,-46.51826 L -10.966824,-43.39326 C -12.520505,-37.16212 -8.584369,-30.60601 -2.341824,-29.04951 L 5.439426,-27.11201 C 11.653197,-25.56265 18.244025,-29.5641 19.783176,-35.73701 C 19.783197,-35.74743 19.783197,-35.75784 19.783176,-35.76826 L 22.439426,-46.51826 L 32.126926,-46.51826 C 38.568276,-46.51826 43.970676,-51.920656 43.970676,-58.36201 L 43.970676,-66.36201 C 43.970676,-72.803363 38.568276,-78.20576 32.126926,-78.20576 L 30.251926,-78.20576 L 34.283176,-94.51826 L 44.126926,-94.51826 C 50.568276,-94.51826 55.970676,-99.920656 55.970676,-106.36201 L 55.970676,-114.36201 C 55.970676,-120.80336 50.568276,-126.20576 44.126926,-126.20576 L 42.095676,-126.20576 L 43.033176,-129.98701 C 44.586866,-136.21816 40.650676,-142.77425 34.408176,-144.33076 L 26.626926,-146.26826 C 20.395805,-147.82193 13.808439,-143.88575 12.251926,-137.64326 C 12.251905,-137.63284 12.251905,-137.62243 12.251926,-137.61201 L 9.439426,-126.20576 L -5.185574,-126.20576 L -4.248074,-129.98701 C -2.677049,-136.28773 -6.679171,-142.77858 -12.904324,-144.33076 L -20.654324,-146.26826 C -21.331478,-146.4371 -22.087564,-146.57101 -23.029324,-146.61201 z M -12.998074,-94.51826 L 1.626926,-94.51826 L -2.404324,-78.20576 L -17.029324,-78.20576 L -12.998074,-94.51826 z"
         id="use3788"
         sodipodi:nodetypes="ccccccccccccccccccccccccccccccccccccccccccccccccccccc" />
    </clipPath>
    <filter
       height="1.3016359"
       y="-0.15081793"
       width="1.0471508"
       x="-0.023575393"
       id="filter3780"
       inkscape:collect="always">
      <feGaussianBlur
         id="feGaussianBlur3782"
         stdDeviation="1.1468447"
         inkscape:collect="always" />
    </filter>
    <linearGradient
       gradientUnits="userSpaceOnUse"
       y2="103.5"
       x2="58"
       y1="38.876087"
       x1="58"
       id="linearGradient3697"
       xlink:href="#linearGradient3691"
       inkscape:collect="always" />
    <clipPath
       id="clipPath3662"
       clipPathUnits="userSpaceOnUse">
      <path
         style="fill:url(#linearGradient9730);fill-opacity:1;stroke:none;stroke-width:1.20000005;stroke-linecap:round;stroke-linejoin:round;stroke-miterlimit:4;stroke-dashoffset:0;stroke-opacity:1"
         d="M -23.029324,-146.61201 C -28.56094,-146.85284 -33.674594,-143.07649 -35.029324,-137.64326 C -35.029345,-137.63284 -35.029345,-137.62243 -35.029324,-137.61201 L -37.841824,-126.20576 L -43.873074,-126.20576 C -50.314423,-126.20576 -55.716824,-120.80336 -55.716824,-114.36201 L -55.716824,-106.36201 C -55.716824,-100.51606 -51.199238,-95.735446 -45.560574,-94.86201 L -49.685574,-78.20576 L -55.873074,-78.20576 C -62.314423,-78.20576 -67.716824,-72.803358 -67.716824,-66.36201 L -67.716824,-58.36201 C -67.716824,-52.471552 -63.135144,-47.64742 -57.435574,-46.83076 L -58.279324,-43.39326 C -59.833003,-37.16213 -55.89687,-30.60601 -49.654324,-29.04951 L -41.873074,-27.11201 C -35.641951,-25.55833 -29.05458,-29.49451 -27.498074,-35.73701 C -27.498053,-35.74743 -27.498053,-35.75784 -27.498074,-35.76826 L -24.841824,-46.51826 L -10.185574,-46.51826 L -10.966824,-43.39326 C -12.520505,-37.16212 -8.584369,-30.60601 -2.341824,-29.04951 L 5.439426,-27.11201 C 11.653197,-25.56265 18.244025,-29.5641 19.783176,-35.73701 C 19.783197,-35.74743 19.783197,-35.75784 19.783176,-35.76826 L 22.439426,-46.51826 L 32.126926,-46.51826 C 38.568276,-46.51826 43.970676,-51.920656 43.970676,-58.36201 L 43.970676,-66.36201 C 43.970676,-72.803363 38.568276,-78.20576 32.126926,-78.20576 L 30.251926,-78.20576 L 34.283176,-94.51826 L 44.126926,-94.51826 C 50.568276,-94.51826 55.970676,-99.920656 55.970676,-106.36201 L 55.970676,-114.36201 C 55.970676,-120.80336 50.568276,-126.20576 44.126926,-126.20576 L 42.095676,-126.20576 L 43.033176,-129.98701 C 44.586866,-136.21816 40.650676,-142.77425 34.408176,-144.33076 L 26.626926,-146.26826 C 20.395805,-147.82193 13.808439,-143.88575 12.251926,-137.64326 C 12.251905,-137.63284 12.251905,-137.62243 12.251926,-137.61201 L 9.439426,-126.20576 L -5.185574,-126.20576 L -4.248074,-129.98701 C -2.677049,-136.28773 -6.679171,-142.77858 -12.904324,-144.33076 L -20.654324,-146.26826 C -21.331478,-146.4371 -22.087564,-146.57101 -23.029324,-146.61201 z M -12.998074,-94.51826 L 1.626926,-94.51826 L -2.404324,-78.20576 L -17.029324,-78.20576 L -12.998074,-94.51826 z"
         id="use3664"
         sodipodi:nodetypes="ccccccccccccccccccccccccccccccccccccccccccccccccccccc" />
    </clipPath>
    <filter
       id="filter3648"
       inkscape:collect="always">
      <feGaussianBlur
         id="feGaussianBlur3650"
         stdDeviation="1.2346784"
         inkscape:collect="always" />
    </filter>
    <linearGradient
       gradientUnits="userSpaceOnUse"
       y2="5.5514274"
       x2="72.138878"
       y1="118.03125"
       x1="42"
       id="linearGradient3638"
       xlink:href="#linearGradient3632"
       inkscape:collect="always" />
    <filter
       id="filter3588"
       inkscape:collect="always">
      <feGaussianBlur
         id="feGaussianBlur3590"
         stdDeviation="0.52076611"
         inkscape:collect="always" />
    </filter>
    <linearGradient
       inkscape:collect="always"
       id="linearGradient5543">
      <stop
         style="stop-color:#ffffff;stop-opacity:1;"
         offset="0"
         id="stop5545" />
      <stop
         style="stop-color:#ffffff;stop-opacity:0;"
         offset="1"
         id="stop5547" />
    </linearGradient>
    <linearGradient
       gradientTransform="matrix(0,1,-1,0,-39.9985,140.0029)"
       y2="-383.9975"
       x2="-23.516129"
       y1="-383.9971"
       x1="-84.002403"
       gradientUnits="userSpaceOnUse"
       id="linearGradient3711">
      <stop
         id="stop3713"
         style="stop-color:#f1e1e1;stop-opacity:1;"
         offset="0" />
      <stop
         id="stop3715"
         style="stop-color:white;stop-opacity:0;"
         offset="1" />
    </linearGradient>
    <linearGradient
       id="linearGradient3517">
      <stop
         id="stop3519"
         offset="0"
         style="stop-color:#403a3a;stop-opacity:1;" />
      <stop
         id="stop3521"
         offset="1"
         style="stop-color:#6a5252;stop-opacity:1;" />
    </linearGradient>
    <linearGradient
       id="linearGradient3540"
       inkscape:collect="always">
      <stop
         id="stop3542"
         offset="0"
         style="stop-color:#ffffff;stop-opacity:1;" />
      <stop
         id="stop3544"
         offset="1"
         style="stop-color:#ffffff;stop-opacity:0;" />
    </linearGradient>
    <linearGradient
       id="linearGradient3632"
       inkscape:collect="always">
      <stop
         id="stop3634"
         offset="0"
         style="stop-color:#084775;stop-opacity:1;" />
      <stop
         id="stop3636"
         offset="1"
         style="stop-color:#084775;stop-opacity:0" />
    </linearGradient>
    <linearGradient
       id="linearGradient3691">
      <stop
         id="stop3693"
         offset="0"
         style="stop-color:#beaeae;stop-opacity:1;" />
      <stop
         id="stop3695"
         offset="1"
         style="stop-color:#8c8c8c;stop-opacity:0;" />
    </linearGradient>
    <linearGradient
       inkscape:collect="always"
       id="linearGradient3812">
      <stop
         style="stop-color:#ffffff;stop-opacity:1;"
         offset="0"
         id="stop3814" />
      <stop
         style="stop-color:#ffffff;stop-opacity:0"
         offset="1"
         id="stop3816" />
    </linearGradient>
    <linearGradient
       inkscape:collect="always"
       xlink:href="#linearGradient3691"
       id="linearGradient6798"
       gradientUnits="userSpaceOnUse"
       x1="58"
       y1="38.876087"
       x2="58"
       y2="103.5" />
    <linearGradient
       inkscape:collect="always"
       xlink:href="#linearGradient3632"
       id="linearGradient6800"
       gradientUnits="userSpaceOnUse"
       x1="42"
       y1="118.03125"
       x2="72.138878"
       y2="5.5514274" />
    <linearGradient
       y2="5.5514274"
       x2="72.138878"
       y1="118.03125"
       x1="42"
       gradientUnits="userSpaceOnUse"
       id="linearGradient6617"
       xlink:href="#linearGradient3632"
       inkscape:collect="always" />
    <linearGradient
       inkscape:collect="always"
       xlink:href="#linearGradient3517"
       id="linearGradient9730"
       gradientUnits="userSpaceOnUse"
       gradientTransform="translate(-67.873074,-150.36201)"
       x1="120"
       y1="120"
       x2="120"
       y2="7.9285941" />
    <linearGradient
       inkscape:collect="always"
       xlink:href="#linearGradient3517"
       id="linearGradient9734"
       gradientUnits="userSpaceOnUse"
       gradientTransform="translate(-67.873074,-150.36201)"
       x1="120"
       y1="120"
       x2="120"
       y2="7.9285941" />
    <linearGradient
       inkscape:collect="always"
       xlink:href="#linearGradient3691"
       id="linearGradient12415"
       gradientUnits="userSpaceOnUse"
       x1="58"
       y1="38.876087"
       x2="58"
       y2="103.5" />
    <linearGradient
       inkscape:collect="always"
       xlink:href="#linearGradient3691"
       id="linearGradient12417"
       gradientUnits="userSpaceOnUse"
       x1="58"
       y1="38.876087"
       x2="58"
       y2="103.5" />
    <linearGradient
       inkscape:collect="always"
       xlink:href="#linearGradient3691"
       id="linearGradient12419"
       gradientUnits="userSpaceOnUse"
       x1="56.125"
       y1="69.626083"
       x2="58"
       y2="103.5" />
    <linearGradient
       inkscape:collect="always"
       xlink:href="#linearGradient3632"
       id="linearGradient12421"
       gradientUnits="userSpaceOnUse"
       x1="42"
       y1="118.03125"
       x2="72.138878"
       y2="5.5514274" />
    <linearGradient
       inkscape:collect="always"
       xlink:href="#linearGradient3632"
       id="linearGradient12423"
       gradientUnits="userSpaceOnUse"
       x1="42"
       y1="118.03125"
       x2="72.138878"
       y2="5.5514274" />
    <linearGradient
       inkscape:collect="always"
       xlink:href="#linearGradient3540"
       id="linearGradient12447"
       gradientUnits="userSpaceOnUse"
       gradientTransform="translate(-0.5384864,0.1645523)"
       x1="91.316116"
       y1="29.803303"
       x2="115.5"
       y2="120.05878" />
    <linearGradient
       inkscape:collect="always"
       xlink:href="#linearGradient5543"
       id="linearGradient12450"
       gradientUnits="userSpaceOnUse"
       gradientTransform="translate(-0.2828858,0.1645523)"
       x1="91.261658"
       y1="71.047203"
       x2="64.821625"
       y2="17.806919" />
    <linearGradient
       inkscape:collect="always"
       xlink:href="#linearGradient3540"
       id="linearGradient12454"
       gradientUnits="userSpaceOnUse"
       x1="97.559929"
       y1="27.987837"
       x2="97.559929"
       y2="128.01216"
       gradientTransform="translate(-0.2884864,0.1645523)" />
    <linearGradient
       inkscape:collect="always"
       xlink:href="#linearGradient3711"
       id="linearGradient12457"
       gradientUnits="userSpaceOnUse"
       x1="115.5"
       y1="1.8419952"
       x2="124"
       y2="83.558777"
       gradientTransform="translate(-0.2884864,0.1645523)" />
    <radialGradient
       inkscape:collect="always"
       xlink:href="#linearGradient6964"
       id="radialGradient12460"
       gradientUnits="userSpaceOnUse"
       gradientTransform="matrix(1.3417524,0,0,1.2939915,-21.477135,-18.553243)"
       cx="62"
       cy="63.667816"
       fx="82.588043"
       fy="94.229912"
       r="54" />
    <linearGradient
       inkscape:collect="always"
       xlink:href="#linearGradient3540"
       id="linearGradient12463"
       gradientUnits="userSpaceOnUse"
       gradientTransform="translate(-1.0839773,0.2529403)"
       spreadMethod="reflect"
       x1="60.949356"
       y1="14.176316"
       x2="63.247452"
       y2="19.313419" />
    <linearGradient
       inkscape:collect="always"
       xlink:href="#linearGradient3540"
       id="linearGradient12466"
       gradientUnits="userSpaceOnUse"
       gradientTransform="translate(46.468954,0.2529403)"
       spreadMethod="reflect"
       x1="60.949356"
       y1="14.176316"
       x2="63.247452"
       y2="19.313419" />
    <linearGradient
       inkscape:collect="always"
       xlink:href="#linearGradient3812"
       id="linearGradient12469"
       gradientUnits="userSpaceOnUse"
       gradientTransform="matrix(0.9166823,0,0,0.9166823,-148.80767,21.512457)"
       spreadMethod="reflect"
       x1="180.84862"
       y1="11.164258"
       x2="188.04994"
       y2="7.4519472" />
    <linearGradient
       inkscape:collect="always"
       xlink:href="#linearGradient3812"
       id="linearGradient12475"
       gradientUnits="userSpaceOnUse"
       gradientTransform="matrix(0.9166823,0,0,0.9166823,-157.00526,69.772495)"
       spreadMethod="reflect"
       x1="180.84862"
       y1="11.164258"
       x2="188.04994"
       y2="7.4519472" />
    <linearGradient
       inkscape:collect="always"
       xlink:href="#linearGradient3812"
       id="linearGradient12483"
       gradientUnits="userSpaceOnUse"
       gradientTransform="matrix(0.9166823,0,0,0.9166823,-123.94802,1.0063613)"
       spreadMethod="reflect"
       x1="180.84862"
       y1="11.164258"
       x2="188.04994"
       y2="7.4519472" />
    <linearGradient
       inkscape:collect="always"
       xlink:href="#linearGradient3812"
       id="linearGradient12486"
       gradientUnits="userSpaceOnUse"
       gradientTransform="matrix(0.9166823,0,0,0.9166823,-76.925415,1.0063613)"
       spreadMethod="reflect"
       x1="180.84862"
       y1="11.164258"
       x2="188.04994"
       y2="7.4519472" />
    <linearGradient
       inkscape:collect="always"
       xlink:href="#linearGradient3517"
       id="linearGradient12495"
       gradientUnits="userSpaceOnUse"
       x1="120"
       y1="100"
       x2="120"
       y2="-24"
       gradientTransform="translate(-0.2884864,0.1645523)" />
    <linearGradient
       inkscape:collect="always"
       xlink:href="#linearGradient3691"
       id="linearGradient12497"
       gradientUnits="userSpaceOnUse"
       gradientTransform="matrix(0.9166823,0,0,0.9166823,-133.55902,107.26138)"
       spreadMethod="reflect"
       x1="180.84862"
       y1="11.164258"
       x2="188.04994"
       y2="7.4519472" />
    <linearGradient
       inkscape:collect="always"
       xlink:href="#linearGradient3691"
       id="linearGradient12499"
       gradientUnits="userSpaceOnUse"
       gradientTransform="matrix(0.9166823,0,0,0.9166823,-133.55902,107.26138)"
       spreadMethod="reflect"
       x1="180.84862"
       y1="11.164258"
       x2="188.04994"
       y2="7.4519472" />
    <linearGradient
       inkscape:collect="always"
       xlink:href="#linearGradient3540"
       id="linearGradient12501"
       gradientUnits="userSpaceOnUse"
       gradientTransform="translate(46.403887,65.318989)"
       spreadMethod="reflect"
       x1="60.949356"
       y1="14.176316"
       x2="63.247452"
       y2="19.313419" />
    <linearGradient
       inkscape:collect="always"
       xlink:href="#linearGradient3540"
       id="linearGradient12503"
       gradientUnits="userSpaceOnUse"
       gradientTransform="translate(46.403887,65.318989)"
       spreadMethod="reflect"
       x1="60.949356"
       y1="14.176316"
       x2="63.247452"
       y2="19.313419" />
    <linearGradient
       inkscape:collect="always"
       xlink:href="#linearGradient3691"
       id="linearGradient12505"
       gradientUnits="userSpaceOnUse"
       gradientTransform="matrix(0.9166823,0,0,0.9166823,-133.55902,107.26138)"
       spreadMethod="reflect"
       x1="180.84862"
       y1="11.164258"
       x2="188.04994"
       y2="7.4519472" />
    <linearGradient
       inkscape:collect="always"
       xlink:href="#linearGradient3691"
       id="linearGradient12507"
       gradientUnits="userSpaceOnUse"
       gradientTransform="matrix(0.9166823,0,0,0.9166823,-133.55902,107.26138)"
       spreadMethod="reflect"
       x1="180.84862"
       y1="11.164258"
       x2="188.04994"
       y2="7.4519472" />
    <linearGradient
       inkscape:collect="always"
       xlink:href="#linearGradient3691"
       id="linearGradient12509"
       gradientUnits="userSpaceOnUse"
       gradientTransform="translate(-45.24256,98.588388)"
       spreadMethod="reflect"
       x1="60.949356"
       y1="14.176316"
       x2="63.247452"
       y2="19.313419" />
    <linearGradient
       inkscape:collect="always"
       xlink:href="#linearGradient3691"
       id="linearGradient12511"
       gradientUnits="userSpaceOnUse"
       gradientTransform="translate(-45.24256,98.588388)"
       spreadMethod="reflect"
       x1="60.949356"
       y1="14.176316"
       x2="63.247452"
       y2="19.313419" />
    <linearGradient
       inkscape:collect="always"
       xlink:href="#linearGradient3691"
       id="linearGradient12513"
       gradientUnits="userSpaceOnUse"
       gradientTransform="translate(-45.24256,98.588388)"
       spreadMethod="reflect"
       x1="60.949356"
       y1="14.176316"
       x2="63.247452"
       y2="19.313419" />
  </defs>
  <metadata
     id="metadata2611">
    <rdf:RDF>
      <cc:Work
         rdf:about="">
        <dc:format>image/svg+xml</dc:format>
        <dc:type
           rdf:resource="http://purl.org/dc/dcmitype/StillImage" />
      </cc:Work>
    </rdf:RDF>
  </metadata>
  <g
     inkscape:groupmode="layer"
     id="layer1"
     inkscape:label="Livello 1">
    <path
       style="fill:url(#linearGradient12495);fill-opacity:1;stroke:none;stroke-width:1.20000005;stroke-linecap:round;stroke-linejoin:round;stroke-miterlimit:4;stroke-dashoffset:0;stroke-opacity:1"
       d="M 44.555264,3.9145523 C 39.023648,3.6737253 33.909994,7.450069 32.555264,12.883302 C 32.555243,12.893719 32.555243,12.904135 32.555264,12.914552 L 29.742764,24.320802 L 19.711514,24.320802 C 13.270165,24.320802 7.8677636,29.723205 7.8677636,36.164552 L 7.8677636,44.164552 C 7.8677636,49.957685 12.304089,54.704646 17.87146,55.639924 C 17.922218,55.648451 21.97307,55.656661 22.024014,55.664552 L 17.899014,72.320802 L 11.711514,72.320802 C 5.2701648,72.320802 -0.1322364,77.723204 -0.1322364,84.164552 L -0.1322364,92.164552 C -0.1322364,98.05501 4.4494438,102.87914 10.149014,103.6958 L 9.305264,107.1333 C 7.7515847,113.36443 11.687718,119.92055 17.930264,121.47705 L 25.711514,123.41455 C 31.942637,124.96823 38.530008,121.03205 40.086514,114.78955 C 40.086535,114.77913 40.086535,114.76872 40.086514,114.7583 L 42.742764,104.0083 L 57.399014,104.0083 L 56.617764,107.1333 C 55.064083,113.36444 59.000219,119.92055 65.242764,121.47705 L 73.024014,123.41455 C 79.237785,124.96391 85.828613,120.96246 87.367764,114.78955 C 87.367785,114.77913 87.367785,114.76872 87.367764,114.7583 L 90.024014,104.0083 L 99.71151,104.0083 C 106.15286,104.0083 111.55526,98.60591 111.55526,92.164552 L 111.55526,84.164552 C 111.55526,77.723199 106.15286,72.320802 99.71151,72.320802 L 97.836514,72.320802 L 101.86776,56.008302 L 115.71151,56.008302 C 122.15286,56.008302 127.55526,50.605906 127.55526,44.164552 L 127.55526,36.164552 C 127.55526,29.723199 122.15286,24.320802 115.71151,24.320802 L 109.68026,24.320802 L 110.61776,20.539552 C 112.17145,14.308403 108.23526,7.752315 101.99276,6.1958023 L 94.211514,4.2583023 C 87.980393,2.7046323 81.393027,6.640811 79.836514,12.883302 C 79.836493,12.893719 79.836493,12.904135 79.836514,12.914552 L 77.024014,24.320802 L 62.399014,24.320802 L 63.336514,20.539552 C 64.907539,14.238833 60.905417,7.747985 54.680264,6.1958023 L 46.930264,4.2583023 C 46.25311,4.0894613 45.497024,3.9555533 44.555264,3.9145523 z M 54.586514,56.008302 L 69.211514,56.008302 L 65.180264,72.320802 L 50.555264,72.320802 L 54.586514,56.008302 z"
       id="path2463"
       sodipodi:nodetypes="cccccccscccccccccccccccccccccccccccccccccccccccccccccc" />
    <path
       id="path3992"
       d="M 13.30115,106.21339 C 11.1043,110.45184 8.1449003,116.27589 8.1449003,116.27589 L 18.48865,118.43214 C 19.45123,113.62286 17.22503,108.80361 13.30115,106.21339 z"
       style="opacity:0.50495055;fill:url(#linearGradient12513);fill-opacity:1;stroke:none;stroke-width:1.20000005;stroke-linecap:round;stroke-linejoin:round;stroke-miterlimit:4;stroke-dashoffset:0;stroke-opacity:1;filter:url(#filter3952)"
       transform="matrix(-1,0,0,-1,20.568407,209.81008)" />
    <path
       transform="matrix(-1,0,0,-1,76.568407,226.31008)"
       style="opacity:0.66336634;fill:url(#linearGradient12511);fill-opacity:1;stroke:none;stroke-width:1.20000005;stroke-linecap:round;stroke-linejoin:round;stroke-miterlimit:4;stroke-dashoffset:0;stroke-opacity:1;filter:url(#filter3952)"
       d="M 13.30115,106.21339 C 11.1043,110.45184 8.1449003,116.27589 8.1449003,116.27589 L 18.48865,118.43214 C 19.45123,113.62286 17.22503,108.80361 13.30115,106.21339 z"
       id="path3988" />
    <path
       id="path3984"
       d="M 13.30115,106.21339 C 11.1043,110.45184 8.1449003,116.27589 8.1449003,116.27589 L 18.48865,118.43214 C 19.45123,113.62286 17.22503,108.80361 13.30115,106.21339 z"
       style="opacity:0.66336634;fill:url(#linearGradient12509);fill-opacity:1;stroke:none;stroke-width:1.20000005;stroke-linecap:round;stroke-linejoin:round;stroke-miterlimit:4;stroke-dashoffset:0;stroke-opacity:1;filter:url(#filter3952)"
       transform="matrix(-1,0,0,-1,28.318407,225.81008)" />
    <path
       transform="matrix(-1,0,0,-1,110.56671,233.918)"
       style="fill:url(#linearGradient12507);fill-opacity:1;fill-rule:evenodd;stroke:none;stroke-width:1px;stroke-linecap:butt;stroke-linejoin:miter;stroke-opacity:1;filter:url(#filter3874)"
       d="M 34.308417,110.69894 C 29.610723,110.91559 25.4178,114.25117 24.253559,118.92043 C 24.25354,118.92998 24.253531,118.93953 24.253559,118.94908 C 28.643907,120.42257 34.165186,122.35799 34.165186,122.35799 L 37.230342,110.9854 C 36.657241,110.85211 36.031661,110.73281 35.253746,110.69894 C 34.936821,110.68514 34.621592,110.68449 34.308417,110.69894 z"
       id="path3972" />
    <path
       id="path3968"
       d="M 34.308417,110.69894 C 29.610723,110.91559 25.4178,114.25117 24.253559,118.92043 C 24.25354,118.92998 24.253531,118.93953 24.253559,118.94908 C 28.643907,120.42257 34.165186,122.35799 34.165186,122.35799 L 37.230342,110.9854 C 36.657241,110.85211 36.031661,110.73281 35.253746,110.69894 C 34.936821,110.68514 34.621592,110.68449 34.308417,110.69894 z"
       style="fill:url(#linearGradient12505);fill-opacity:1;fill-rule:evenodd;stroke:none;stroke-width:1px;stroke-linecap:butt;stroke-linejoin:miter;stroke-opacity:1;filter:url(#filter3874)"
       transform="matrix(-1,0,0,-1,63.316718,233.918)" />
    <path
       transform="matrix(0.9464062,-0.3229786,0.3229786,0.9464062,-5.0942784,-10.631356)"
       id="path3964"
       d="M 104.9476,72.943989 C 102.75075,77.182443 99.791347,83.006488 99.791347,83.006488 L 110.1351,85.162738 C 111.09768,80.353459 108.87148,75.534213 104.9476,72.943989 z"
       style="opacity:0.66336634;fill:url(#linearGradient12503);fill-opacity:1;stroke:none;stroke-width:1.20000005;stroke-linecap:round;stroke-linejoin:round;stroke-miterlimit:4;stroke-dashoffset:0;stroke-opacity:1;filter:url(#filter3952)" />
    <path
       id="path3878"
       d="M 90.942027,4.4439193 C 86.244333,4.6605713 82.05141,7.99615 80.887169,12.665414 C 80.88715,12.674963 80.887141,12.684511 80.887169,12.69406 C 85.277517,14.167547 90.798796,16.102972 90.798796,16.102972 L 93.863952,4.7303833 C 93.290851,4.5970933 92.665271,4.4777883 91.887356,4.4439193 C 91.570431,4.4301223 91.255202,4.4294763 90.942027,4.4439193 z"
       style="fill:url(#linearGradient12486);fill-opacity:1;fill-rule:evenodd;stroke:none;stroke-width:1px;stroke-linecap:butt;stroke-linejoin:miter;stroke-opacity:1;filter:url(#filter3874)" />
    <path
       style="fill:url(#linearGradient12483);fill-opacity:1;fill-rule:evenodd;stroke:none;stroke-width:1px;stroke-linecap:butt;stroke-linejoin:miter;stroke-opacity:1;filter:url(#filter3874)"
       d="M 43.919426,4.4439193 C 39.221732,4.6605713 35.028809,7.99615 33.864568,12.665414 C 33.864549,12.674963 33.86454,12.684511 33.864568,12.69406 C 38.254916,14.167547 43.776195,16.102972 43.776195,16.102972 L 46.841351,4.7303833 C 46.26825,4.5970933 45.64267,4.4777883 44.864755,4.4439193 C 44.54783,4.4301223 44.232601,4.4294763 43.919426,4.4439193 z"
       id="path3672" />
    <path
       style="opacity:0.66336634;fill:url(#linearGradient12501);fill-opacity:1;stroke:none;stroke-width:1.20000005;stroke-linecap:round;stroke-linejoin:round;stroke-miterlimit:4;stroke-dashoffset:0;stroke-opacity:1;filter:url(#filter3952)"
       d="M 104.9476,72.943989 C 102.75075,77.182443 99.791347,83.006488 99.791347,83.006488 L 110.1351,85.162738 C 111.09768,80.353459 108.87148,75.534213 104.9476,72.943989 z"
       id="path3960"
       transform="matrix(0.9464062,-0.3229786,0.3229786,0.9464062,-20.469278,37.743644)" />
    <path
       id="path3886"
       d="M 10.862185,73.210054 C 6.1644907,73.426705 1.9715677,76.762284 0.8073267,81.431548 C 0.8073077,81.441097 0.8072987,81.450645 0.8073267,81.460194 C 5.1976747,82.933681 10.718954,84.869106 10.718954,84.869106 L 13.78411,73.496517 C 13.211009,73.363227 12.585429,73.243922 11.807514,73.210054 C 11.490589,73.196256 11.17536,73.19561 10.862185,73.210054 z"
       style="opacity:0.67326732;fill:url(#linearGradient12475);fill-opacity:1;fill-rule:evenodd;stroke:none;stroke-width:1px;stroke-linecap:butt;stroke-linejoin:miter;stroke-opacity:1;filter:url(#filter3874)" />
    <path
       id="path3976"
       d="M 34.308417,110.69894 C 29.610723,110.91559 25.4178,114.25117 24.253559,118.92043 C 24.25354,118.92998 24.253531,118.93953 24.253559,118.94908 C 28.643907,120.42257 34.165186,122.35799 34.165186,122.35799 L 37.230342,110.9854 C 36.657241,110.85211 36.031661,110.73281 35.253746,110.69894 C 34.936821,110.68514 34.621592,110.68449 34.308417,110.69894 z"
       style="opacity:0.36633666;fill:url(#linearGradient12499);fill-opacity:1;fill-rule:evenodd;stroke:none;stroke-width:1px;stroke-linecap:butt;stroke-linejoin:miter;stroke-opacity:1;filter:url(#filter3874)"
       transform="matrix(-1,0,0,-1,134.56671,213.918)" />
    <path
       style="opacity:0.83663366;fill:url(#linearGradient12469);fill-opacity:1;fill-rule:evenodd;stroke:none;stroke-width:1px;stroke-linecap:butt;stroke-linejoin:miter;stroke-opacity:1;filter:url(#filter3874)"
       d="M 19.059777,24.950016 C 14.362083,25.166667 10.16916,28.502246 9.0049186,33.17151 C 9.0048996,33.181059 9.0048906,33.190607 9.0049186,33.200156 C 13.395267,34.673643 18.916546,36.609068 18.916546,36.609068 L 21.981702,25.236479 C 21.408601,25.103189 20.783021,24.983884 20.005106,24.950016 C 19.688181,24.936218 19.372952,24.935572 19.059777,24.950016 z"
       id="path3882" />
    <path
       style="opacity:0.66336634;fill:url(#linearGradient12466);fill-opacity:1;stroke:none;stroke-width:1.20000005;stroke-linecap:round;stroke-linejoin:round;stroke-miterlimit:4;stroke-dashoffset:0;stroke-opacity:1;filter:url(#filter3952)"
       d="M 105.01266,7.87794 C 102.81581,12.116395 99.85641,17.94044 99.85641,17.94044 L 110.20016,20.09669 C 111.16274,15.287411 108.93654,10.468165 105.01266,7.87794 z"
       id="path3666" />
    <path
       id="path3956"
       d="M 57.459733,7.87794 C 55.262883,12.116395 52.303483,17.94044 52.303483,17.94044 L 62.647233,20.09669 C 63.609813,15.287411 61.383613,10.468165 57.459733,7.87794 z"
       style="opacity:0.66336634;fill:url(#linearGradient12463);fill-opacity:1;stroke:none;stroke-width:1.20000005;stroke-linecap:round;stroke-linejoin:round;stroke-miterlimit:4;stroke-dashoffset:0;stroke-opacity:1;filter:url(#filter3952)" />
    <path
       style="fill:url(#radialGradient12460);fill-opacity:1;stroke:none;stroke-width:1.20000005;stroke-linecap:round;stroke-linejoin:round;stroke-miterlimit:4;stroke-dasharray:none;stroke-dashoffset:0;stroke-opacity:1"
       d="M 44.211514,11.758302 C 42.353025,11.67739 40.648562,12.911413 40.180264,14.789552 L 35.899014,32.164552 L 19.711514,32.164552 C 17.499351,32.164552 15.711514,33.95239 15.711514,36.164552 L 15.711514,44.164552 C 15.711514,46.376715 17.49935,48.164552 19.711514,48.164552 L 31.961514,48.164552 L 24.055264,80.164552 L 11.711514,80.164552 C 9.499351,80.164552 7.7115136,81.95239 7.7115136,84.164552 L 7.7115136,92.164552 C 7.7115136,94.376715 9.499351,96.164552 11.711514,96.164552 L 20.086514,96.164552 L 16.930264,109.0083 C 16.395068,111.15474 17.690068,113.31686 19.836514,113.85205 L 27.617764,115.78955 C 29.764211,116.32475 31.926318,115.02975 32.461514,112.8833 L 36.586514,96.164552 L 67.399014,96.164552 L 64.242764,109.0083 C 63.707568,111.15474 65.002571,113.31686 67.149014,113.85205 L 74.930264,115.78955 C 77.076711,116.32475 79.207569,115.02975 79.742764,112.8833 L 83.867764,96.164552 L 99.71151,96.164552 C 101.92367,96.164552 103.71151,94.376714 103.71151,92.164552 L 103.71151,84.164552 C 103.71151,81.952389 101.92367,80.164552 99.71151,80.164552 L 87.805264,80.164552 L 95.711514,48.164552 L 115.71151,48.164552 C 117.92367,48.164552 119.71151,46.376714 119.71151,44.164552 L 119.71151,36.164552 C 119.71151,33.952389 117.92367,32.164552 115.71151,32.164552 L 99.64901,32.164552 L 102.99276,18.664552 C 103.52796,16.518107 102.23295,14.355998 100.08651,13.820802 L 92.305264,11.883302 C 90.158817,11.348106 87.996712,12.643107 87.461514,14.789552 L 83.180264,32.164552 L 52.367764,32.164552 L 55.711514,18.664552 C 56.24671,16.518107 54.92046,14.355998 52.774014,13.820802 L 45.024014,11.883302 C 44.755708,11.816403 44.477012,11.769861 44.211514,11.758302 z M 48.430264,48.164552 L 79.242764,48.164552 L 71.336514,80.164552 L 40.524014,80.164552 L 48.430264,48.164552 z"
       id="rect2439"
       sodipodi:nodetypes="ccccccccccccccccccccccccccccccccccccccccccccccccccc" />
    <path
       style="fill:url(#linearGradient12457);fill-opacity:1;stroke:none;stroke-width:1.20000005;stroke-linecap:round;stroke-linejoin:round;stroke-miterlimit:4;stroke-dasharray:none;stroke-dashoffset:0;stroke-opacity:1"
       d="M 44.211514,11.758302 C 42.353025,11.67739 40.648562,12.911413 40.180264,14.789552 L 35.899014,32.164552 L 19.711514,32.164552 C 17.499351,32.164552 15.711514,33.95239 15.711514,36.164552 L 15.711514,44.164552 C 15.711514,46.376715 17.49935,48.164552 19.711514,48.164552 L 31.961514,48.164552 L 24.305264,79.133302 C 30.035349,79.023268 35.647362,78.613509 41.086514,77.914552 L 48.430264,48.164552 L 79.242764,48.164552 L 73.961514,69.508302 C 80.923791,66.715871 87.287994,63.403388 92.867764,59.633302 L 95.711514,48.164552 L 106.21151,48.164552 C 110.08911,43.835819 113.1516,39.187968 115.21151,34.289552 C 114.5388,33.029484 113.24206,32.164552 111.71151,32.164552 L 99.64901,32.164552 L 102.99276,18.664552 C 103.52796,16.518107 102.23295,14.355998 100.08651,13.820802 L 92.305264,11.883302 C 90.158817,11.348106 87.996712,12.643107 87.461514,14.789552 L 83.180264,32.164552 L 52.367764,32.164552 L 55.711514,18.664552 C 56.24671,16.518107 54.92046,14.355998 52.774014,13.820802 L 45.024014,11.883302 C 44.755708,11.816403 44.477012,11.769861 44.211514,11.758302 z"
       id="path3525"
       sodipodi:nodetypes="ccccccccccccccccccccccccccccc" />
    <path
       id="path3538"
       d="M 44.211514,11.758302 C 42.353025,11.67739 40.648562,12.911413 40.180264,14.789552 L 35.899014,32.164552 L 19.711514,32.164552 C 17.499351,32.164552 15.711514,33.95239 15.711514,36.164552 L 15.711514,44.164552 C 15.711514,46.376715 17.49935,48.164552 19.711514,48.164552 L 31.961514,48.164552 L 24.055264,80.164552 L 11.711514,80.164552 C 9.499351,80.164552 7.7115136,81.95239 7.7115136,84.164552 L 7.7115136,92.164552 C 7.7115136,94.376715 9.499351,96.164552 11.711514,96.164552 L 20.086514,96.164552 L 16.930264,109.0083 C 16.395068,111.15474 17.690068,113.31686 19.836514,113.85205 L 27.617764,115.78955 C 29.764211,116.32475 31.926318,115.02975 32.461514,112.8833 L 36.586514,96.164552 L 67.399014,96.164552 L 64.242764,109.0083 C 63.707568,111.15474 65.002571,113.31686 67.149014,113.85205 L 74.930264,115.78955 C 77.076711,116.32475 79.207569,115.02975 79.742764,112.8833 L 83.867764,96.164552 L 99.71151,96.164552 C 101.92367,96.164552 103.71151,94.376714 103.71151,92.164552 L 103.71151,84.164552 C 103.71151,81.952389 101.92367,80.164552 99.71151,80.164552 L 87.805264,80.164552 L 95.711514,48.164552 L 115.71151,48.164552 C 117.92367,48.164552 119.71151,46.376714 119.71151,44.164552 L 119.71151,36.164552 C 119.71151,33.952389 117.92367,32.164552 115.71151,32.164552 L 99.64901,32.164552 L 102.99276,18.664552 C 103.52796,16.518107 102.23295,14.355998 100.08651,13.820802 L 92.305264,11.883302 C 90.158817,11.348106 87.996712,12.643107 87.461514,14.789552 L 83.180264,32.164552 L 52.367764,32.164552 L 55.711514,18.664552 C 56.24671,16.518107 54.92046,14.355998 52.774014,13.820802 L 45.024014,11.883302 C 44.755708,11.816403 44.477012,11.769861 44.211514,11.758302 z M 48.430264,48.164552 L 79.242764,48.164552 L 71.336514,80.164552 L 40.524014,80.164552 L 48.430264,48.164552 z"
       style="fill:none;fill-opacity:1;stroke:url(#linearGradient12454);stroke-width:1.20000005;stroke-linecap:round;stroke-linejoin:round;stroke-miterlimit:4;stroke-dasharray:none;stroke-dashoffset:0;stroke-opacity:1;filter:url(#filter3588)"
       sodipodi:nodetypes="ccccccccccccccccccccccccccccccccccccccccccccccccccc" />
    <path
       transform="matrix(-1,0,0,-1,151.06671,166.418)"
       style="opacity:0.36633666;fill:url(#linearGradient12497);fill-opacity:1;fill-rule:evenodd;stroke:none;stroke-width:1px;stroke-linecap:butt;stroke-linejoin:miter;stroke-opacity:1;filter:url(#filter3874)"
       d="M 34.308417,110.69894 C 29.610723,110.91559 25.4178,114.25117 24.253559,118.92043 C 24.25354,118.92998 24.253531,118.93953 24.253559,118.94908 C 28.643907,120.42257 34.165186,122.35799 34.165186,122.35799 L 37.230342,110.9854 C 36.657241,110.85211 36.031661,110.73281 35.253746,110.69894 C 34.936821,110.68514 34.621592,110.68449 34.308417,110.69894 z"
       id="path3980" />
    <path
       style="fill:url(#linearGradient12450);fill-opacity:1;stroke:none;stroke-width:1.20000005;stroke-linecap:round;stroke-linejoin:round;stroke-miterlimit:4;stroke-dasharray:none;stroke-dashoffset:0;stroke-opacity:1"
       d="M 114.50932,34.357092 C 112.35891,38.982129 108.32829,44.113894 104.70363,48.160263 L 106.23182,48.164552 C 110.10942,43.835819 113.17191,39.187968 115.23182,34.289552 L 114.50932,34.357092 z M 19.794324,44.977052 C 20.166774,46.801232 21.796184,48.164552 23.731824,48.164552 L 31.753193,48.168458 L 32.175068,47.258302 L 23.419324,47.258302 C 21.819204,47.258302 20.434404,46.33184 19.794324,44.977052 z M 93.242241,58.099601 C 87.822771,61.761376 80.991794,65.610874 74.263074,68.352052 L 73.981824,69.508302 C 80.944104,66.715871 87.308304,63.403388 92.888074,59.633302 L 93.242241,58.099601 z M 41.321188,76.869654 C 36.050918,77.546909 30.089334,78.071161 24.544324,78.195802 L 24.325574,79.133302 C 30.055664,79.023268 35.667674,78.613509 41.106824,77.914552 L 41.321188,76.869654 z"
       id="path3600"
       sodipodi:nodetypes="ccccccccccccccccccccc" />
    <path
       style="fill:url(#linearGradient12447);fill-opacity:1;stroke:none;stroke-width:1.20000005;stroke-linecap:round;stroke-linejoin:round;stroke-miterlimit:4;stroke-dasharray:none;stroke-dashoffset:0;stroke-opacity:1"
       d="M 44.237728,11.791448 C 42.379238,11.710536 40.674778,12.944559 40.206478,14.822698 L 35.90313,32.153503 L 19.727139,32.170802 C 17.514979,32.170802 15.711514,33.82739 15.711514,36.039552 L 15.711514,37.039552 C 15.711514,34.82739 17.514979,32.570802 19.727139,32.570802 L 35.90313,33.153503 L 40.206478,15.822698 C 40.674778,13.944559 42.379238,12.710536 44.237728,12.791448 C 44.503228,12.803007 44.781918,12.849549 45.050228,12.916448 L 52.800228,14.853948 C 54.452718,15.265981 55.595138,16.637878 55.800228,18.228948 C 56.053538,16.242607 54.792368,14.350667 52.800228,13.853948 L 45.050228,11.916448 C 44.781918,11.849549 44.503228,11.803007 44.237728,11.791448 z M 91.461514,11.789552 C 89.602404,11.70823 87.898564,12.942663 87.430264,14.820802 L 83.173332,32.164552 L 52.382929,32.103892 L 83.158167,33.350212 L 87.430264,15.820802 C 87.965464,13.674357 90.127564,12.379356 92.274014,12.914552 L 100.05526,14.852052 C 101.70775,15.264085 102.82744,16.635982 103.02401,18.227052 C 103.28119,16.240711 102.04739,14.348771 100.05526,13.852052 L 92.274014,11.914552 C 92.005704,11.847653 91.727104,11.801169 91.461514,11.789552 z M 99.68026,32.195802 L 111.46151,32.664552 C 112.57094,32.664552 113.73141,33.626212 114.50959,34.358802 L 115.21563,34.289552 C 114.54292,33.029484 112.99206,32.164552 111.46151,32.164552 L 99.68026,32.195802 z M 31.752415,48.168841 L 24.055264,79.133302 C 24.138844,79.131697 24.221734,79.135034 24.305264,79.133302 L 32.178196,47.254778 L 31.752415,48.168841 z M 78.742764,49.164552 L 73.711514,69.508302 C 73.807034,69.469991 73.897474,69.421809 73.992764,69.383302 L 78.992764,49.164552 L 78.742764,49.164552 z"
       id="path3592"
       sodipodi:nodetypes="cccccccccscccccccccccccccccccccccccccccccccc" />
    <g
       transform="translate(214.92589,-100.31048)"
       id="g3232"
       inkscape:label="fill text" />
    <g
       transform="translate(214.92589,-100.31048)"
       id="g4591"
       inkscape:label="fill text" />
    <g
       id="g3703"
       style="opacity:0.79207919;filter:url(#filter3780)"
       clip-path="url(#clipPath3786)"
       transform="translate(-67.873074,-150.36201)">
      <path
         id="path3676"
         d="M -1.75,68.75 L -2.75,84.25 L 8.75,83.75 L 25,82 L 17.75,72.5 L -1.75,68.75 z M 63,69.5 L 53,70.25 L 38.25,81.25 L 76,83.75 L 63,69.5 z M 101.25,70.25 L 85.75,81.5 L 114,81.5 L 112.25,72.25 L 101.25,70.25 z"
         style="fill:url(#linearGradient6798);fill-opacity:1;fill-rule:evenodd;stroke:none;stroke-width:1px;stroke-linecap:butt;stroke-linejoin:miter;stroke-opacity:1" />
      <path
         sodipodi:nodetypes="ccccccccccccccccc"
         style="fill:url(#linearGradient3697);fill-opacity:1;fill-rule:evenodd;stroke:none;stroke-width:1px;stroke-linecap:butt;stroke-linejoin:miter;stroke-opacity:1"
         d="M -1.75,68.75 L -1.25,73.5 L 8.75,83.75 L 25,82 L 17.75,72.5 L -1.75,68.75 z M 63,69.5 L 53,70.25 L 38.25,81.25 L 76,83.75 L 63,69.5 z M 101.25,70.25 L 85.75,81.5 L 99.949737,82.96025 L 110.5,74 L 112.25,72.25 L 101.25,70.25 z"
         id="path3699" />
      <path
         id="path3701"
         d="M 4.5,66 L 5,70.75 L 12.25,82.5 L 23.75,83 L 16.25,71 L 4.5,66 z M 61.75,69.5 L 55.5,70.25 L 41.5,80.5 L 73,83.75 L 61.75,69.5 z M 102.5,70 L 88,81.75 L 99.949737,82.96025 L 106,70.75 L 107.75,69 L 102.5,70 z"
         style="fill:url(#linearGradient3790);fill-opacity:1;fill-rule:evenodd;stroke:none;stroke-width:1px;stroke-linecap:butt;stroke-linejoin:miter;stroke-opacity:1"
         sodipodi:nodetypes="ccccccccccccccccc" />
    </g>
    <path
       style="fill:url(#linearGradient6800);fill-opacity:1;fill-rule:evenodd;stroke:none;stroke-width:1px;stroke-linecap:butt;stroke-linejoin:miter;stroke-opacity:1;filter:url(#filter3648)"
       d="M 22.5,42.5 L 20.25,58 L 34.25,46.25 L 22.5,42.5 z M 44.25,43 L 56.25,57.625 L 67.25,57.5 L 84.5,44.75 L 44.25,43 z M 94.25,45 L 103.5,57.375 L 109.5,57.375 L 114,46 L 94.25,45 z M 10.75,91.75 L 8.5,105.125 L 23,94.25 L 10.75,91.75 z M 101.75,93 L 83.75,94 L 91.5,105.375 L 98.75,104.875 L 101.75,93 z M 70.75,93.5 L 36.25,93.75 L 45,106.5625 L 55.3125,105.625 L 70.75,93.5 z"
       id="path3619"
       clip-path="url(#clipPath3662)"
       transform="translate(-67.873074,-150.36201)" />
    <path
       clip-path="url(#clipPath3662)"
       id="path3792"
       d="M 22.5,42.5 L 13.837695,55.249263 L 20.25,58 L 34.25,46.25 L 22.5,42.5 z M 94.25,45 L 103.5,57.375 L 121.52082,58.43566 L 114,46 L 94.25,45 z M 10.75,91.75 L 0.54504873,104.41789 L 23,94.25 L 10.75,91.75 z M 101.75,93 L 83.75,94 L 91.5,105.375 L 108.64949,105.75888 L 101.75,93 z"
       style="opacity:0.45049504;fill:url(#linearGradient3638);fill-opacity:1;fill-rule:evenodd;stroke:none;stroke-width:1px;stroke-linecap:butt;stroke-linejoin:miter;stroke-opacity:1;filter:url(#filter3648)"
       sodipodi:nodetypes="ccccccccccccccccccc"
       transform="translate(-67.873074,-150.36201)" />
    <path
       style="fill:url(#linearGradient6617);fill-opacity:1;fill-rule:evenodd;stroke:none;stroke-width:1px;stroke-linecap:butt;stroke-linejoin:miter;stroke-opacity:1;filter:url(#filter3648)"
       d="M 22.5,42.5 L 20.25,58 L 34.25,46.25 L 22.5,42.5 z M 46.075225,40.801957 L 58.075225,55.426957 L 67.25,57.5 L 84.5,44.75 L 46.075225,40.801957 z M 94.25,45 L 103.5,57.375 L 109.5,57.375 L 114,46 L 94.25,45 z M 10.75,91.75 L 8.5,105.125 L 23,94.25 L 10.75,91.75 z M 101.75,93 L 83.75,94 L 91.5,105.375 L 98.75,104.875 L 101.75,93 z M 70.75,93.5 L 36.25,93.75 L 45,106.5625 L 55.3125,105.625 L 70.75,93.5 z"
       id="path9646"
       clip-path="url(#clipPath3662)"
       transform="matrix(1.013169,0,0,0.9949638,-0.1934401,0.3969376)"
       sodipodi:nodetypes="cccccccccccccccccccccccccccc" />
    <g
       id="g5235"
       transform="matrix(0.6203919,0.6203919,-0.6203919,0.6203919,34.984132,-60.33474)">
      <path
         sodipodi:nodetypes="cccccccccccccccccccccccscc"
         id="path3300"
         d="M 129.33992,64.856016 C 128.76918,65.435979 128.44734,66.215807 128.44293,67.029491 L 128.44293,85.762781 C 128.44328,87.486985 129.84094,88.88464 131.56514,88.884996 L 159.66508,88.902246 L 159.68233,117.00218 C 159.68268,118.72638 161.08034,120.12404 162.80454,120.12439 L 181.53783,120.12439 C 183.26203,120.12404 184.65969,118.72638 184.66005,117.00218 L 184.6773,88.902246 L 212.77723,88.884996 C 214.50143,88.884637 215.89909,87.486983 215.89944,85.762781 L 215.89944,67.029491 C 215.89909,65.305289 214.50143,63.907635 212.77723,63.907276 L 184.6773,63.890026 L 184.66005,35.790092 C 184.65969,34.06589 183.26203,32.668235 181.53783,32.667877 L 162.80454,32.667877 C 161.08034,32.668233 159.68268,34.065888 159.68233,35.790092 L 159.66508,63.890026 L 131.56514,63.907276 C 130.72606,63.911729 129.92408,64.253661 129.33992,64.856016 z M 181.55508,82.640566 C 180.72109,82.63612 179.91997,82.965456 179.33024,83.555186 C 178.74051,84.144917 178.41117,84.946038 178.41562,85.780031 L 181.55508,82.640566 z"
         style="fill:url(#linearGradient5251);fill-opacity:1;stroke:none;stroke-width:8;stroke-linecap:round;stroke-linejoin:round;stroke-miterlimit:4;stroke-dashoffset:1.08779998;stroke-opacity:1" />
      <path
         transform="matrix(0.5519938,-0.5519938,0.5519938,0.5519938,159.04481,23.283251)"
         clip-path="url(#clipPath3559)"
         id="path3507"
         d="M -62.57895,106.7868 L -36.415999,79.916739 L -10.606602,106.43324 L -36.415999,66.128157 L -62.57895,106.7868 z"
         style="fill:#000000;fill-opacity:1;fill-rule:evenodd;stroke:#000000;stroke-width:1px;stroke-linecap:butt;stroke-linejoin:miter;stroke-opacity:1;filter:url(#filter3549)" />
      <path
         transform="matrix(1.0290495,1.0290495,-1.0290495,1.0290495,192.98125,21.797594)"
         style="opacity:0.49812736;fill:url(#linearGradient5253);fill-opacity:1;fill-rule:evenodd;stroke:none;stroke-width:1px;stroke-linecap:butt;stroke-linejoin:miter;stroke-opacity:1;filter:url(#filter3477)"
         d="M 31.7,16 L 34.575,12.625 C 33.523795,10.929242 30.639864,10.336982 28.6375,12.3125 L 31.45,15.6875 L 31.7,16 z"
         id="path5159"
         sodipodi:nodetypes="ccccc" />
      <path
         transform="matrix(1.0162687,-1.0162687,-1.0162687,-1.0162687,162.35151,162.06868)"
         style="opacity:0.79026214;fill:url(#linearGradient5255);fill-opacity:1;fill-rule:evenodd;stroke:none;stroke-width:1px;stroke-linecap:butt;stroke-linejoin:miter;stroke-opacity:1;filter:url(#filter3477)"
         d="M 31.7,16 L 34.575,12.625 C 33.523795,10.929242 30.639864,10.336982 28.6375,12.3125 L 31.45,15.6875 L 31.7,16 z"
         id="path3485"
         sodipodi:nodetypes="ccccc" />
      <path
         sodipodi:nodetypes="ccccc"
         id="path3493"
         d="M 31.7,16 L 34.575,12.625 C 33.523795,10.929242 30.639864,10.336982 28.6375,12.3125 L 31.45,15.6875 L 31.7,16 z"
         style="opacity:0.49812736;fill:url(#linearGradient5257);fill-opacity:1;fill-rule:evenodd;stroke:none;stroke-width:1px;stroke-linecap:butt;stroke-linejoin:miter;stroke-opacity:1;filter:url(#filter3477)"
         transform="matrix(0.9318551,0.9318551,0.9318551,-0.9318551,121.67005,99.232803)" />
      <path
         id="rect2323"
         d="M 164.80354,37.803006 L 164.80354,69.02849 L 133.57806,69.02849 L 133.57806,83.763782 L 164.80354,83.763782 L 164.80354,114.98927 L 179.53883,114.98926 L 179.53883,83.763782 L 210.76431,83.763779 L 210.76431,69.028493 L 179.53883,69.02849 L 179.53883,37.803009 L 164.80354,37.803006 z"
         style="opacity:0.92134836;fill:url(#linearGradient5259);fill-opacity:1;stroke:none;stroke-width:0.69921422;stroke-linecap:round;stroke-linejoin:round;stroke-miterlimit:4;stroke-dasharray:none;stroke-dashoffset:1.08779998;stroke-opacity:0"
         sodipodi:nodetypes="ccccccccccccc" />
      <path
         transform="matrix(0.9318551,-0.9318551,-0.9318551,-0.9318551,142.5614,180.26404)"
         sodipodi:nodetypes="ccccc"
         id="path3487"
         d="M 88.7,16 L 91.575,12.625 C 90.523795,10.929242 87.639864,10.336982 85.6375,12.3125 L 88.45,15.6875 L 88.7,16 z"
         style="opacity:0.79026214;fill:url(#linearGradient5261);fill-opacity:1;fill-rule:evenodd;stroke:none;stroke-width:1px;stroke-linecap:butt;stroke-linejoin:miter;stroke-opacity:1;filter:url(#filter3477)" />
      <path
         transform="matrix(0.5519938,-0.5519938,0.5519938,0.5519938,105.93193,76.396136)"
         style="opacity:0.92134836;fill:none;fill-opacity:1;stroke:url(#linearGradient5263);stroke-width:1;stroke-linecap:round;stroke-linejoin:round;stroke-miterlimit:4;stroke-dasharray:none;stroke-dashoffset:1.08779998;stroke-opacity:1;filter:url(#filter3354)"
         d="M 88.284271,18.368396 L 60,46.652666 L 31.715729,18.368396 L 18.368396,31.715729 L 46.652666,60 L 18.368396,88.284271 L 31.715729,101.63161 L 60,73.347334 L 88.284271,101.63161 L 101.63161,88.284271 L 73.347334,60 L 101.63161,31.715729 L 88.284271,18.368396 z"
         id="path3328"
         sodipodi:nodetypes="ccccccccccccc" />
      <path
         style="fill:url(#radialGradient5265);fill-opacity:1;fill-rule:evenodd;stroke:none;stroke-width:1px;stroke-linecap:butt;stroke-linejoin:miter;stroke-opacity:1;filter:url(#filter3549)"
         d="M -62.57895,106.7868 L -36.415999,79.916739 L -10.606602,106.43324 L -36.415999,66.128157 L -62.57895,106.7868 z"
         id="path3565"
         clip-path="url(#clipPath3559)"
         transform="matrix(0.5519938,-0.5519938,-0.5519938,-0.5519938,225.02375,89.262187)" />
      <path
         sodipodi:nodetypes="cccccccccccsccsccccc"
         id="path3374"
         d="M 133.53418,69.001347 L 133.53418,69.829337 L 133.53418,83.734635 L 134.08617,69.829337 L 164.80592,69.029377 L 165.30832,38.607188 L 177.69564,38.607186 C 177.92163,38.941523 178.12022,39.286382 178.31663,39.642175 L 179.42062,54.16749 C 176.38566,63.237002 170.92285,74.652248 161.85934,83.734635 L 162.16983,83.734635 C 162.43321,83.47739 162.7016,83.237372 162.96333,82.975644 C 172.06351,73.875463 176.44698,65.74393 179.48962,56.651462 L 179.48962,38.814181 C 179.39912,38.650234 179.30752,38.490527 179.21362,38.331187 C 179.10375,38.144724 178.99049,37.959474 178.86863,37.779193 L 164.75633,37.779197 L 164.75633,38.607188 L 164.80592,69.029377 L 133.53418,69.001347 z"
         style="fill:url(#linearGradient5267);fill-opacity:1;stroke:none;stroke-width:1.01534986;stroke-linecap:round;stroke-linejoin:round;stroke-miterlimit:4;stroke-dasharray:none;stroke-dashoffset:1.08779998;stroke-opacity:1" />
      <path
         id="path5167"
         d="M 133.58239,69.029492 L 133.58239,83.76278 L 162.21805,83.76278 C 162.48142,83.505536 162.74981,83.265516 163.01154,83.003789 C 172.11172,73.903605 176.49519,65.772075 179.53783,56.679607 L 179.53784,38.842325 C 179.34143,38.486528 179.14283,38.141674 178.91684,37.807337 L 164.80454,37.807342 L 164.80454,69.029491 L 133.58239,69.029492 z"
         style="fill:url(#linearGradient5269);fill-opacity:1;stroke:none;stroke-width:1.01534986;stroke-linecap:round;stroke-linejoin:round;stroke-miterlimit:4;stroke-dasharray:none;stroke-dashoffset:1.08779998;stroke-opacity:1"
         sodipodi:nodetypes="cccscccccc" />
      <path
         style="fill:url(#linearGradient5271);fill-opacity:1;stroke:none;stroke-width:1.01534986;stroke-linecap:round;stroke-linejoin:round;stroke-miterlimit:4;stroke-dasharray:none;stroke-dashoffset:1.08779998;stroke-opacity:1"
         d="M 133.53418,69.001347 L 133.53418,69.829337 L 133.53418,83.734635 L 134.08617,69.829337 L 165.85094,70.067144 L 164.80592,69.029377 L 165.84478,70.057266 L 165.30832,38.607188 L 177.69564,38.607186 C 177.92163,38.941523 178.12022,39.286382 178.31663,39.642175 L 179.42062,54.16749 C 176.38566,63.237002 170.92285,74.652248 161.85934,83.734635 L 162.16983,83.734635 C 162.43321,83.47739 162.7016,83.237372 162.96333,82.975644 C 172.06351,73.875463 176.44698,65.74393 179.48962,56.651462 L 179.48962,38.814181 C 179.39912,38.650234 179.30752,38.490527 179.21362,38.331187 C 179.10375,38.144724 178.99049,37.959474 178.86863,37.779193 L 164.75633,37.779197 L 164.75633,38.607188 L 164.80592,69.029377 L 133.53418,69.001347 z"
         id="path3399"
         sodipodi:nodetypes="cccccccccccccsccsccccc" />
      <path
         transform="matrix(0.8474415,-0.8474415,0.8474415,0.8474415,93.833347,82.913071)"
         sodipodi:nodetypes="ccccc"
         id="path3403"
         d="M 31.7,16 L 34.575,12.625 C 33.523795,10.929242 30.639864,10.336982 28.6375,12.3125 L 31.45,15.6875 L 31.7,16 z"
         style="opacity:0.79026214;fill:url(#linearGradient5273);fill-opacity:1;fill-rule:evenodd;stroke:none;stroke-width:1px;stroke-linecap:butt;stroke-linejoin:miter;stroke-opacity:1;filter:url(#filter3477)" />
      <path
         transform="matrix(0.8700309,-0.8700309,0.8700309,0.8700309,74.780195,101.53946)"
         style="opacity:0.79026214;fill:url(#linearGradient5275);fill-opacity:1;fill-rule:evenodd;stroke:none;stroke-width:1px;stroke-linecap:butt;stroke-linejoin:miter;stroke-opacity:1;filter:url(#filter3477)"
         d="M 88.7,16 L 91.575,12.625 C 90.523795,10.929242 87.639864,10.336982 85.6375,12.3125 L 88.45,15.6875 L 88.7,16 z"
         id="path3481"
         sodipodi:nodetypes="ccccc" />
    </g>
    <g
       id="g12375"
       style="opacity:0.79207919;filter:url(#filter3780)"
       clip-path="url(#clipPath3786)"
       transform="translate(-1.25,-75.75)">
      <path
         id="path12377"
         d="M -1.75,68.75 L -2.75,84.25 L 8.75,83.75 L 25,82 L 17.75,72.5 L -1.75,68.75 z M 63,69.5 L 53,70.25 L 38.25,81.25 L 76,83.75 L 63,69.5 z M 101.25,70.25 L 85.75,81.5 L 114,81.5 L 112.25,72.25 L 101.25,70.25 z"
         style="fill:url(#linearGradient12415);fill-opacity:1;fill-rule:evenodd;stroke:none;stroke-width:1px;stroke-linecap:butt;stroke-linejoin:miter;stroke-opacity:1" />
      <path
         sodipodi:nodetypes="ccccccccccccccccc"
         style="fill:url(#linearGradient12417);fill-opacity:1;fill-rule:evenodd;stroke:none;stroke-width:1px;stroke-linecap:butt;stroke-linejoin:miter;stroke-opacity:1"
         d="M -1.75,68.75 L -1.25,73.5 L 8.75,83.75 L 25,82 L 17.75,72.5 L -1.75,68.75 z M 63,69.5 L 53,70.25 L 38.25,81.25 L 76,83.75 L 63,69.5 z M 101.25,70.25 L 85.75,81.5 L 99.949737,82.96025 L 110.5,74 L 112.25,72.25 L 101.25,70.25 z"
         id="path12379" />
      <path
         id="path12381"
         d="M 4.5,66 L 5,70.75 L 12.25,82.5 L 23.75,83 L 16.25,71 L 4.5,66 z M 61.75,69.5 L 55.5,70.25 L 41.5,80.5 L 73,83.75 L 61.75,69.5 z M 102.5,70 L 88,81.75 L 99.949737,82.96025 L 106,70.75 L 107.75,69 L 102.5,70 z"
         style="fill:url(#linearGradient12419);fill-opacity:1;fill-rule:evenodd;stroke:none;stroke-width:1px;stroke-linecap:butt;stroke-linejoin:miter;stroke-opacity:1"
         sodipodi:nodetypes="ccccccccccccccccc" />
    </g>
    <path
       style="fill:url(#linearGradient12421);fill-opacity:1;fill-rule:evenodd;stroke:none;stroke-width:1px;stroke-linecap:butt;stroke-linejoin:miter;stroke-opacity:1;filter:url(#filter3648)"
       d="M 22.5,42.5 L 20.25,58 L 34.25,46.25 L 22.5,42.5 z M 44.25,43 L 56.25,57.625 L 67.25,57.5 L 84.5,44.75 L 44.25,43 z M 94.25,45 L 103.5,57.375 L 109.5,57.375 L 114,46 L 94.25,45 z M 10.75,91.75 L 8.5,105.125 L 23,94.25 L 10.75,91.75 z M 101.75,93 L 83.75,94 L 91.5,105.375 L 98.75,104.875 L 101.75,93 z M 70.75,93.5 L 36.25,93.75 L 45,106.5625 L 55.3125,105.625 L 70.75,93.5 z"
       id="path12384"
       clip-path="url(#clipPath3662)"
       transform="translate(-1.25,-75.75)" />
    <path
       clip-path="url(#clipPath3662)"
       id="path12387"
       d="M 22.5,42.5 L 13.837695,55.249263 L 20.25,58 L 34.25,46.25 L 22.5,42.5 z M 94.25,45 L 103.5,57.375 L 121.52082,58.43566 L 114,46 L 94.25,45 z M 10.75,91.75 L 0.54504873,104.41789 L 23,94.25 L 10.75,91.75 z M 101.75,93 L 83.75,94 L 91.5,105.375 L 108.64949,105.75888 L 101.75,93 z"
       style="opacity:0.45049504;fill:url(#linearGradient12423);fill-opacity:1;fill-rule:evenodd;stroke:none;stroke-width:1px;stroke-linecap:butt;stroke-linejoin:miter;stroke-opacity:1;filter:url(#filter3648)"
       sodipodi:nodetypes="ccccccccccccccccccc"
       transform="translate(-1.25,-75.75)" />
  </g>
  <g
     inkscape:groupmode="layer"
     id="g5368"
     inkscape:label="fill text" />
</svg>
