<?xml version="1.0" encoding="UTF-8" standalone="no"?>
<!-- Generator: Adobe Illustrator 12.0.0, SVG Export Plug-In . SVG Version: 6.00 Build 51448)  -->
<svg
   xmlns:ns="http://ns.adobe.com/SaveForWeb/1.0/"
   xmlns:dc="http://purl.org/dc/elements/1.1/"
   xmlns:cc="http://creativecommons.org/ns#"
   xmlns:rdf="http://www.w3.org/1999/02/22-rdf-syntax-ns#"
   xmlns:svg="http://www.w3.org/2000/svg"
   xmlns="http://www.w3.org/2000/svg"
   xmlns:xlink="http://www.w3.org/1999/xlink"
   xmlns:sodipodi="http://sodipodi.sourceforge.net/DTD/sodipodi-0.dtd"
   xmlns:inkscape="http://www.inkscape.org/namespaces/inkscape"
   version="1.1"
   id="Layer_1"
   width="128"
   height="128"
   viewBox="0 0 128 128"
   overflow="visible"
   enable-background="new 0 0 128 128"
   xml:space="preserve"
   sodipodi:version="0.32"
   inkscape:version="0.46"
   sodipodi:docname="irc-operator.svgz"
   sodipodi:docbase="/Users/david/Desktop/sandbox"
   inkscape:output_extension="org.inkscape.output.svgz.inkscape"
   inkscape:export-filename="/home/pinheiro/pics/oxygen/scalable/actions/irc-operator.png"
   inkscape:export-xdpi="90"
   inkscape:export-ydpi="90"><defs
   id="defs105"><linearGradient
     inkscape:collect="always"
     id="linearGradient5365"><stop
       style="stop-color:#ffffff;stop-opacity:1;"
       offset="0"
       id="stop5367" /><stop
       style="stop-color:#ffffff;stop-opacity:0;"
       offset="1"
       id="stop5369" /></linearGradient><linearGradient
     id="linearGradient5347"><stop
       id="stop5349"
       offset="0"
       style="stop-color:#d4d4d4;stop-opacity:1;" /><stop
       style="stop-color:#efefef;stop-opacity:1;"
       offset="0.375"
       id="stop5351" /><stop
       id="stop5353"
       offset="0.375"
       style="stop-color:#c2c2c2;stop-opacity:1;" /><stop
       style="stop-color:#ffffff;stop-opacity:1;"
       offset="0.4375"
       id="stop5355" /><stop
       style="stop-color:#bcbcbc;stop-opacity:1;"
       offset="0.5"
       id="stop5357" /><stop
       id="stop5359"
       offset="0.75"
       style="stop-color:#e9e9e9;stop-opacity:1;" /><stop
       id="stop5361"
       offset="1"
       style="stop-color:#ffffff;stop-opacity:1;" /></linearGradient><linearGradient
     inkscape:collect="always"
     id="linearGradient5096"><stop
       style="stop-color:#ffffff;stop-opacity:1;"
       offset="0"
       id="stop5098" /><stop
       style="stop-color:#ffffff;stop-opacity:0;"
       offset="1"
       id="stop5100" /></linearGradient><linearGradient
     inkscape:collect="always"
     id="linearGradient5008"><stop
       style="stop-color:#ffffff;stop-opacity:1;"
       offset="0"
       id="stop5010" /><stop
       style="stop-color:#ffffff;stop-opacity:0;"
       offset="1"
       id="stop5012" /></linearGradient><linearGradient
     inkscape:collect="always"
     id="linearGradient4843"><stop
       style="stop-color:#ffffff;stop-opacity:1;"
       offset="0"
       id="stop4845" /><stop
       style="stop-color:#ffffff;stop-opacity:0;"
       offset="1"
       id="stop4847" /></linearGradient><linearGradient
     id="linearGradient4750"><stop
       id="stop4752"
       offset="0"
       style="stop-color:#ffffff;stop-opacity:0;" /><stop
       id="stop4754"
       offset="1"
       style="stop-color:#ffffff;stop-opacity:1;" /></linearGradient><linearGradient
     inkscape:collect="always"
     id="linearGradient4724"><stop
       style="stop-color:#ffffff;stop-opacity:1;"
       offset="0"
       id="stop4726" /><stop
       style="stop-color:#ffffff;stop-opacity:0;"
       offset="1"
       id="stop4728" /></linearGradient><radialGradient
     id="radialGradient4538"
     cx="56.019531"
     cy="45.240723"
     r="71.35096"
     gradientTransform="matrix(0.9974,0.2673,-0.2673,0.9974,-76.963493,-22.170914)"
     gradientUnits="userSpaceOnUse"><stop
       offset="0"
       style="stop-color:#BFEBFF"
       id="stop4540" /><stop
       offset="0.08683906"
       style="stop-color:#9FDFFF"
       id="stop4542" /><stop
       offset="0.1775176"
       style="stop-color:#78D1FF"
       id="stop4544" /><stop
       offset="0.2805196"
       style="stop-color:#5AC6FF"
       id="stop4546" /><stop
       offset="0.3811481"
       style="stop-color:#44BEFF"
       id="stop4548" /><stop
       offset="0.4783"
       style="stop-color:#37BAFF"
       id="stop4550" /><stop
       offset="0.568047"
       style="stop-color:#33B8FF"
       id="stop4552" /><stop
       offset="0.8019649"
       style="stop-color:#1690E3"
       id="stop4554" /><stop
       offset="1"
       style="stop-color:#0063b4;stop-opacity:1;"
       id="stop4556" /></radialGradient><linearGradient
     inkscape:collect="always"
     id="linearGradient4191"><stop
       style="stop-color:#ffffff;stop-opacity:1;"
       offset="0"
       id="stop4193" /><stop
       style="stop-color:#ffffff;stop-opacity:0;"
       offset="1"
       id="stop4195" /></linearGradient><linearGradient
     id="linearGradient4100"><stop
       style="stop-color:#d4d4d4;stop-opacity:1;"
       offset="0"
       id="stop4102" /><stop
       id="stop4110"
       offset="0.25"
       style="stop-color:#efefef;stop-opacity:1;" /><stop
       style="stop-color:#c2c2c2;stop-opacity:1;"
       offset="0.375"
       id="stop4114" /><stop
       id="stop4116"
       offset="0.4375"
       style="stop-color:#ffffff;stop-opacity:1;" /><stop
       id="stop4108"
       offset="0.5"
       style="stop-color:#bcbcbc;stop-opacity:1;" /><stop
       style="stop-color:#e9e9e9;stop-opacity:1;"
       offset="0.75"
       id="stop4112" /><stop
       style="stop-color:#ffffff;stop-opacity:1;"
       offset="1"
       id="stop4104" /></linearGradient><linearGradient
     inkscape:collect="always"
     id="linearGradient4018"><stop
       style="stop-color:#ffffff;stop-opacity:1;"
       offset="0"
       id="stop4020" /><stop
       style="stop-color:#ffffff;stop-opacity:0;"
       offset="1"
       id="stop4022" /></linearGradient><linearGradient
     inkscape:collect="always"
     id="linearGradient4007"><stop
       style="stop-color:#000000;stop-opacity:1;"
       offset="0"
       id="stop4009" /><stop
       style="stop-color:#000000;stop-opacity:0;"
       offset="1"
       id="stop4011" /></linearGradient><linearGradient
     id="linearGradient3995"><stop
       style="stop-color:#000000;stop-opacity:1;"
       offset="0"
       id="stop3997" /><stop
       id="stop4003"
       offset="0.5"
       style="stop-color:#474747;stop-opacity:1;" /><stop
       style="stop-color:#000000;stop-opacity:1;"
       offset="1"
       id="stop3999" /></linearGradient><inkscape:perspective
     sodipodi:type="inkscape:persp3d"
     inkscape:vp_x="0 : 64 : 1"
     inkscape:vp_y="0 : 1000 : 0"
     inkscape:vp_z="128 : 64 : 1"
     inkscape:persp3d-origin="64 : 42.666667 : 1"
     id="perspective3079" /><linearGradient
     inkscape:collect="always"
     id="linearGradient5237"><stop
       style="stop-color:#001d88;stop-opacity:1;"
       offset="0"
       id="stop5239" /><stop
       style="stop-color:#001d88;stop-opacity:0;"
       offset="1"
       id="stop5241" /></linearGradient><linearGradient
     inkscape:collect="always"
     id="linearGradient5007"><stop
       style="stop-color:#000000;stop-opacity:0.64356436"
       offset="0"
       id="stop5009" /><stop
       style="stop-color:#000000;stop-opacity:0"
       offset="1"
       id="stop5011" /></linearGradient><linearGradient
     inkscape:collect="always"
     id="linearGradient4909"><stop
       style="stop-color:#8c8d8d;stop-opacity:1"
       offset="0"
       id="stop4911" /><stop
       style="stop-color:#747776;stop-opacity:1"
       offset="1"
       id="stop4913" /></linearGradient><radialGradient
     gradientUnits="userSpaceOnUse"
     gradientTransform="matrix(0.9974,0.2673,-0.2673,0.9974,-76.963493,-22.170914)"
     r="71.35096"
     cy="45.240723"
     cx="56.019531"
     id="XMLID_40_"><stop
       id="stop240"
       style="stop-color:#BFEBFF"
       offset="0" /><stop
       id="stop242"
       style="stop-color:#9FDFFF"
       offset="0.073717" /><stop
       id="stop244"
       style="stop-color:#78D1FF"
       offset="0.1775176" /><stop
       id="stop246"
       style="stop-color:#5AC6FF"
       offset="0.2805196" /><stop
       id="stop248"
       style="stop-color:#44BEFF"
       offset="0.3811481" /><stop
       id="stop250"
       style="stop-color:#37BAFF"
       offset="0.4783" /><stop
       id="stop252"
       style="stop-color:#33B8FF"
       offset="0.568047" /><stop
       id="stop254"
       style="stop-color:#1690E3"
       offset="0.8019649" /><stop
       id="stop256"
       style="stop-color:#0063b4;stop-opacity:1;"
       offset="1" /></radialGradient><linearGradient
     inkscape:collect="always"
     xlink:href="#XMLID_40_"
     id="linearGradient13725"
     gradientUnits="userSpaceOnUse"
     gradientTransform="matrix(1.0954048,0,0,1.0954048,-826.24689,-1209.4123)"
     x1="510.58234"
     y1="988.39685"
     x2="510.58234"
     y2="1160.5508" /><linearGradient
     id="linearGradient3477"><stop
       style="stop-color:#070062;stop-opacity:1;"
       offset="0"
       id="stop3479" /><stop
       style="stop-color:#001462;stop-opacity:0;"
       offset="1"
       id="stop3481" /></linearGradient><linearGradient
     y2="95.293"
     x2="87.293"
     y1="103"
     x1="95"
     gradientUnits="userSpaceOnUse"
     id="linearGradient3432">
	<stop
   id="stop3434"
   style="stop-color:#000000;stop-opacity:0"
   offset="0" />
	<stop
   id="stop3436"
   style="stop-color:#393B38"
   offset="1" />
</linearGradient><linearGradient
     id="linearGradient3284"><stop
       style="stop-color:#39465c;stop-opacity:1;"
       offset="0"
       id="stop3286" /><stop
       style="stop-color:#000000;stop-opacity:0;"
       offset="1"
       id="stop3288" /></linearGradient><linearGradient
     gradientTransform="matrix(0,1,-1,0,-39.9985,140.0029)"
     y2="-383.9975"
     x2="-23.516129"
     y1="-383.9971"
     x1="-84.002403"
     gradientUnits="userSpaceOnUse"
     id="linearGradient3711"><stop
       id="stop3713"
       style="stop-color:white;stop-opacity:1;"
       offset="0" /><stop
       id="stop3715"
       style="stop-color:white;stop-opacity:0;"
       offset="1" /></linearGradient><linearGradient
     id="linearGradient4296"><stop
       id="stop4298"
       offset="0"
       style="stop-color:#00ff00;stop-opacity:1" /><stop
       id="stop4300"
       offset="1"
       style="stop-color:#006500;stop-opacity:1" /></linearGradient><linearGradient
     inkscape:collect="always"
     xlink:href="#linearGradient4296"
     id="linearGradient4272"
     gradientUnits="userSpaceOnUse"
     x1="328.12448"
     y1="120.81158"
     x2="336.98077"
     y2="87.759453" /><linearGradient
     inkscape:collect="always"
     xlink:href="#linearGradient3284"
     id="linearGradient3401"
     gradientUnits="userSpaceOnUse"
     gradientTransform="translate(-185.95868,0.6761918)"
     x1="132.06976"
     y1="52"
     x2="83.792686"
     y2="52" /><linearGradient
     inkscape:collect="always"
     xlink:href="#linearGradient3284"
     id="linearGradient3407"
     gradientUnits="userSpaceOnUse"
     gradientTransform="translate(-189.95868,0)"
     x1="132.06976"
     y1="52"
     x2="83.792686"
     y2="52" /><linearGradient
     inkscape:collect="always"
     xlink:href="#linearGradient5007"
     id="linearGradient5013"
     x1="107.28632"
     y1="97.886986"
     x2="106.05053"
     y2="93.27494"
     gradientUnits="userSpaceOnUse" /><clipPath
     clipPathUnits="userSpaceOnUse"
     id="clipPath5072"><path
       sodipodi:nodetypes="ccccccccccccccc"
       id="path5074"
       d="M 122.46967,87.78125 L 118.15153,88.952269 L 119.78572,95.144516 C 120.34418,97.222455 119.11908,99.34332 117.04115,99.90178 L 101.85449,104.00035 C 99.776552,104.55882 97.65569,103.33371 97.097226,101.25577 L 95.463037,95.10012 L 90.925338,96.307733 C 90.956568,96.525127 90.976686,96.749008 91.035121,96.966431 L 93.450348,106.00524 C 94.229473,108.90421 97.211544,110.62677 100.11052,109.84764 L 121.29865,104.13892 C 124.19762,103.3598 125.92018,100.37773 125.14105,97.47875 L 122.68923,88.439948 C 122.6284,88.213594 122.55617,87.99222 122.46967,87.78125 z"
       style="opacity:1;fill:url(#linearGradient5076);fill-opacity:1;stroke:none;stroke-width:1;stroke-linecap:round;stroke-linejoin:round;stroke-miterlimit:4;stroke-dasharray:none;stroke-dashoffset:0;stroke-opacity:1" /></clipPath><linearGradient
     inkscape:collect="always"
     xlink:href="#linearGradient4909"
     id="linearGradient5076"
     gradientUnits="userSpaceOnUse"
     gradientTransform="matrix(1.1710191,0,0,1.1710191,40.35195,-18.232575)"
     x1="44.636116"
     y1="98.124741"
     x2="68.67775"
     y2="91.230446" /><linearGradient
     inkscape:collect="always"
     xlink:href="#linearGradient3711"
     id="linearGradient5106"
     gradientUnits="userSpaceOnUse"
     gradientTransform="matrix(0.8566821,-0.5158446,0.5158446,0.8566821,-28.421606,25.060692)"
     x1="18.217064"
     y1="48.318039"
     x2="6.0801239"
     y2="68.474304" /><linearGradient
     inkscape:collect="always"
     xlink:href="#linearGradient3711"
     id="linearGradient5110"
     gradientUnits="userSpaceOnUse"
     gradientTransform="matrix(0.8566821,-0.5158446,0.5158446,0.8566821,-28.221606,24.760692)"
     x1="18.217064"
     y1="48.318039"
     x2="6.0801239"
     y2="68.474304" /><linearGradient
     inkscape:collect="always"
     xlink:href="#linearGradient5237"
     id="linearGradient5243"
     x1="-84.36438"
     y1="62.657232"
     x2="-62.81424"
     y2="26.868113"
     gradientUnits="userSpaceOnUse" /><clipPath
     clipPathUnits="userSpaceOnUse"
     id="clipPath5265"><rect
       ry="4.6271658"
       rx="4.6271658"
       y="42.657234"
       x="-83.86438"
       height="39.999996"
       width="15.999997"
       id="rect5267"
       style="opacity:1;fill:url(#linearGradient5269);fill-opacity:1;stroke:none;stroke-width:1;stroke-linecap:round;stroke-linejoin:round;stroke-miterlimit:4;stroke-dasharray:none;stroke-dashoffset:0;stroke-opacity:1" /></clipPath><linearGradient
     inkscape:collect="always"
     xlink:href="#XMLID_40_"
     id="linearGradient5269"
     gradientUnits="userSpaceOnUse"
     gradientTransform="translate(-91.864379,-5.3427713)"
     x1="27.060225"
     y1="37.353905"
     x2="3.4941344"
     y2="76.490982" /><linearGradient
     inkscape:collect="always"
     xlink:href="#XMLID_10_"
     id="linearGradient3894"
     gradientUnits="userSpaceOnUse"
     gradientTransform="matrix(1.390934,0,0,1.3086086,-25.020073,-15.453725)"
     spreadMethod="reflect"
     x1="65.725594"
     y1="82"
     x2="97.75"
     y2="82" /><linearGradient
     inkscape:collect="always"
     xlink:href="#linearGradient3995"
     id="linearGradient4001"
     x1="17.25"
     y1="63.631729"
     x2="110.75"
     y2="63.631729"
     gradientUnits="userSpaceOnUse"
     gradientTransform="matrix(1.3509071,0,0,1.3086086,-22.458353,-14.472268)" /><linearGradient
     inkscape:collect="always"
     xlink:href="#linearGradient4007"
     id="linearGradient4013"
     x1="57"
     y1="105.63327"
     x2="57"
     y2="85.334412"
     gradientUnits="userSpaceOnUse"
     gradientTransform="matrix(1.3509071,0,0,1.3086086,-22.458353,-14.472268)" /><linearGradient
     inkscape:collect="always"
     xlink:href="#linearGradient4018"
     id="linearGradient4024"
     x1="84.992157"
     y1="19.547363"
     x2="84.992157"
     y2="55.912415"
     gradientUnits="userSpaceOnUse"
     gradientTransform="matrix(1.118215,0,0,1.118215,-14.86051,-17.58482)" /><radialGradient
     inkscape:collect="always"
     xlink:href="#linearGradient5347"
     id="radialGradient4106"
     cx="-63.958065"
     cy="141.04259"
     fx="-63.958065"
     fy="141.04259"
     r="49.895"
     gradientUnits="userSpaceOnUse"
     gradientTransform="matrix(0.9883519,-0.5910623,3.9143067e-2,7.0255191e-2,-42.208589,107.07043)"
     spreadMethod="reflect" /><filter
     inkscape:collect="always"
     id="filter4163"><feGaussianBlur
       inkscape:collect="always"
       stdDeviation="1.8240291"
       id="feGaussianBlur4165" /></filter><clipPath
     clipPathUnits="userSpaceOnUse"
     id="clipPath4167"><path
       sodipodi:type="star"
       style="opacity:1;fill:url(#radialGradient4171);fill-opacity:1;stroke:none;stroke-width:1;stroke-linecap:round;stroke-linejoin:round;stroke-miterlimit:4;stroke-dasharray:none;stroke-dashoffset:0;stroke-opacity:1"
       id="path4169"
       sodipodi:sides="6"
       sodipodi:cx="-45.254833"
       sodipodi:cy="37.843887"
       sodipodi:r1="51.655106"
       sodipodi:r2="29.726227"
       sodipodi:arg1="0.78539816"
       sodipodi:arg2="1.3089969"
       inkscape:flatsided="false"
       inkscape:rounded="0"
       inkscape:randomized="0"
       d="M -8.7291577,74.369563 L -37.561118,66.557217 L -58.624158,87.738888 L -66.274449,58.863505 L -95.149834,51.213213 L -73.968164,30.150175 L -81.780509,1.318212 L -52.948548,9.1305574 L -31.885508,-12.051113 L -24.235217,16.82427 L 4.6401673,24.474562 L -16.541503,45.5376 L -8.7291577,74.369563 z"
       transform="matrix(0.9660871,-0.2582163,0.2582163,0.9660871,342.19336,-10.251451)" /></clipPath><radialGradient
     inkscape:collect="always"
     xlink:href="#linearGradient4100"
     id="radialGradient4171"
     gradientUnits="userSpaceOnUse"
     cx="-50.797588"
     cy="43.090588"
     fx="-36.134892"
     fy="28.895321"
     r="49.895001" /><filter
     inkscape:collect="always"
     id="filter4223"><feGaussianBlur
       inkscape:collect="always"
       stdDeviation="0.23593649"
       id="feGaussianBlur4225" /></filter><filter
     inkscape:collect="always"
     id="filter4257"><feGaussianBlur
       inkscape:collect="always"
       stdDeviation="0.99610806"
       id="feGaussianBlur4259" /></filter><clipPath
     clipPathUnits="userSpaceOnUse"
     id="clipPath4261"><path
       style="opacity:1;fill:url(#linearGradient4265);fill-opacity:1;stroke:none;stroke-width:4.50000048;stroke-linecap:round;stroke-linejoin:round;stroke-miterlimit:4;stroke-dasharray:none;stroke-dashoffset:0;stroke-opacity:1"
       d="M 325.20361,129.15207 C 324.62397,129.31405 324.13337,129.70148 323.84144,130.22779 L 309.59762,154.99573 L 281.04129,154.89735 C 280.24037,154.89984 279.50113,155.32786 279.10023,156.02124 C 278.69933,156.71461 278.69721,157.56882 279.09465,158.26418 L 293.4272,182.96341 L 279.03842,207.67305 C 278.64462,208.37053 278.65126,209.22477 279.05587,209.91604 C 279.46047,210.60732 280.20203,211.03141 281.00301,211.02959 L 309.57937,210.96088 L 323.74692,235.7689 C 324.14889,236.47081 324.89666,236.90297 325.70552,236.90084 C 326.51439,236.89872 327.25988,236.46262 327.65815,235.7586 L 341.90196,210.99067 L 370.45829,211.08904 C 371.25922,211.08656 371.99846,210.65853 372.39935,209.96516 C 372.80025,209.27178 372.80238,208.41757 372.40493,207.72221 L 358.06432,182.9928 L 372.43098,158.32141 C 372.82625,157.62809 372.8247,156.77726 372.42692,156.08537 C 372.02914,155.39348 371.29463,154.96406 370.49658,154.9568 L 341.92022,155.02552 L 327.72248,130.22557 C 327.22221,129.33931 326.18938,128.89913 325.20361,129.15207 z M 325.76707,135.85903 L 338.6772,158.38303 C 339.07883,159.08119 339.82299,159.51145 340.62843,159.5112 L 366.58993,159.4621 L 353.52841,181.87617 C 353.11739,182.57497 353.11404,183.44085 353.51964,184.1428 L 366.5344,206.57414 L 340.601,206.48634 C 339.79029,206.48504 339.04155,206.91995 338.641,207.6248 L 325.73252,230.12736 L 312.82238,207.60336 C 312.42075,206.9052 311.6766,206.47494 310.87115,206.4752 L 284.90965,206.52429 L 297.97117,184.11022 C 298.3822,183.41142 298.38554,182.54555 297.97994,181.84359 L 284.96518,159.41225 L 310.89858,159.50005 C 311.7093,159.50135 312.45803,159.06644 312.85858,158.36159 L 325.76707,135.85903 z"
       id="path4263" /></clipPath><linearGradient
     inkscape:collect="always"
     xlink:href="#linearGradient4100"
     id="linearGradient4265"
     gradientUnits="userSpaceOnUse"
     gradientTransform="matrix(0.9660871,-0.2582163,0.2582163,0.9660871,359.69336,134.74855)"
     x1="-96.299835"
     y1="37.843887"
     x2="5.7901673"
     y2="37.843887" /><filter
     inkscape:collect="always"
     id="filter4296"><feGaussianBlur
       inkscape:collect="always"
       stdDeviation="2.449008"
       id="feGaussianBlur4298" /></filter><linearGradient
     inkscape:collect="always"
     xlink:href="#linearGradient4100"
     id="linearGradient4307"
     gradientUnits="userSpaceOnUse"
     gradientTransform="matrix(0.9660871,-0.2582163,0.2582163,0.9660871,359.69336,-9.951451)"
     x1="-96.299835"
     y1="37.843887"
     x2="5.7901673"
     y2="37.843887" /><radialGradient
     inkscape:collect="always"
     xlink:href="#linearGradient4191"
     id="radialGradient4309"
     gradientUnits="userSpaceOnUse"
     gradientTransform="matrix(3.066654,-1.9134324e-3,6.2394779e-4,0.9999998,107.85978,-9.9863832e-2)"
     cx="-52.19109"
     cy="1.8315512"
     fx="-52.19109"
     fy="1.8315512"
     r="50.295001" /><linearGradient
     inkscape:collect="always"
     xlink:href="#XMLID_10_"
     id="linearGradient4313"
     gradientUnits="userSpaceOnUse"
     gradientTransform="matrix(1.390934,0,0,0.3750385,-25.020073,59.051875)"
     spreadMethod="reflect"
     x1="65.725594"
     y1="82"
     x2="129.6512"
     y2="82" /><linearGradient
     inkscape:collect="always"
     xlink:href="#linearGradient4007"
     id="linearGradient4317"
     gradientUnits="userSpaceOnUse"
     gradientTransform="matrix(1.3509071,0,0,1.3086086,-22.458353,-14.472268)"
     x1="57"
     y1="81.258553"
     x2="57"
     y2="84.891571" /><filter
     inkscape:collect="always"
     id="filter4386"><feGaussianBlur
       inkscape:collect="always"
       stdDeviation="3.073754"
       id="feGaussianBlur4388" /></filter><clipPath
     clipPathUnits="userSpaceOnUse"
     id="clipPath4390"><path
       sodipodi:nodetypes="ccccccz"
       id="path4392"
       d="M 237.94826,12.792894 C 196.9368,12.792894 198.363,58.287847 196.91384,85.346513 L 182.34365,96.943198 C 198.43962,99.466507 222.98348,104.0422 237.94826,112.7028 C 252.91305,104.0422 277.4569,99.466507 293.55288,96.943198 L 278.98268,85.346513 C 277.53352,58.287847 279.25701,12.792894 237.94826,12.792894 z"
       style="fill:url(#linearGradient4394);fill-opacity:1;fill-rule:evenodd;stroke:none;stroke-width:1px;stroke-linecap:butt;stroke-linejoin:miter;stroke-opacity:1" /></clipPath><linearGradient
     inkscape:collect="always"
     xlink:href="#linearGradient3995"
     id="linearGradient4394"
     gradientUnits="userSpaceOnUse"
     gradientTransform="matrix(1.1894036,0,0,1.1894036,161.82643,-12.935961)"
     x1="17.25"
     y1="63.631729"
     x2="110.75"
     y2="63.631729" /><filter
     inkscape:collect="always"
     id="filter4444"><feGaussianBlur
       inkscape:collect="always"
       stdDeviation="0.96888256"
       id="feGaussianBlur4446" /></filter><filter
     inkscape:collect="always"
     id="filter4676"><feGaussianBlur
       inkscape:collect="always"
       stdDeviation="1.7806004"
       id="feGaussianBlur4678" /></filter><linearGradient
     inkscape:collect="always"
     xlink:href="#linearGradient3995"
     id="linearGradient4715"
     gradientUnits="userSpaceOnUse"
     gradientTransform="matrix(1.3509071,0,0,1.3086086,-22.458353,-14.472268)"
     x1="9.900301"
     y1="95.971809"
     x2="107.89148"
     y2="95.971809" /><radialGradient
     inkscape:collect="always"
     xlink:href="#linearGradient4724"
     id="radialGradient4730"
     cx="63.658714"
     cy="112.3581"
     fx="63.658714"
     fy="112.3581"
     r="3.375"
     gradientTransform="matrix(0.6852731,-1.5750489e-2,2.8099497e-2,1.1471935,17.316238,-4.5303584)"
     gradientUnits="userSpaceOnUse" /><radialGradient
     inkscape:collect="always"
     xlink:href="#linearGradient4018"
     id="radialGradient4746"
     cx="154.86336"
     cy="159.98668"
     fx="154.86336"
     fy="159.98668"
     r="55.59375"
     gradientTransform="matrix(1.1357853,0,0,0.1549668,-111.08855,98.438149)"
     gradientUnits="userSpaceOnUse" /><radialGradient
     inkscape:collect="always"
     xlink:href="#linearGradient4750"
     id="radialGradient4756"
     gradientUnits="userSpaceOnUse"
     gradientTransform="matrix(1.3503013,-2.6320763e-7,1.4938474e-7,0.7191293,-144.30922,8.1797025)"
     cx="154.86336"
     cy="159.98668"
     fx="154.86336"
     fy="159.98668"
     r="55.59375" /><filter
     inkscape:collect="always"
     id="filter4782"><feGaussianBlur
       inkscape:collect="always"
       stdDeviation="0.61592945"
       id="feGaussianBlur4784" /></filter><filter
     inkscape:collect="always"
     id="filter4837"><feGaussianBlur
       inkscape:collect="always"
       stdDeviation="2.3152306"
       id="feGaussianBlur4839" /></filter><linearGradient
     inkscape:collect="always"
     xlink:href="#linearGradient4843"
     id="linearGradient4849"
     x1="-31.433815"
     y1="7.1176219"
     x2="-31.433815"
     y2="56.000824"
     gradientUnits="userSpaceOnUse" /><clipPath
     clipPathUnits="userSpaceOnUse"
     id="clipPath4853"><path
       id="path4855"
       d="M -43.84375,12.78125 C -78.719804,12.78125 -82.886828,45.671418 -84.25,72.15625 C -81.431621,82.061453 -66.048797,90.6875 -43.84375,90.6875 C -21.92543,90.6875 -4.0509017,82.625503 -3.375,72.5625 C -4.6592178,46.009552 -8.5361262,12.78125 -43.84375,12.78125 z"
       style="fill:url(#linearGradient4857);fill-opacity:1;fill-rule:evenodd;stroke:none;stroke-width:1px;stroke-linecap:butt;stroke-linejoin:miter;stroke-opacity:1" /></clipPath><linearGradient
     inkscape:collect="always"
     xlink:href="#XMLID_10_"
     id="linearGradient4857"
     gradientUnits="userSpaceOnUse"
     gradientTransform="matrix(1.1894036,0,0,1.1894036,-119.95735,-12.935961)"
     spreadMethod="reflect"
     x1="63.019474"
     y1="63.631729"
     x2="110.75"
     y2="63.631729" /><linearGradient
     inkscape:collect="always"
     xlink:href="#XMLID_10_"
     id="linearGradient4859"
     gradientUnits="userSpaceOnUse"
     gradientTransform="matrix(0.2355347,0,0,0.2281598,48.920933,-3.8284932)"
     spreadMethod="reflect"
     x1="63.019474"
     y1="63.631729"
     x2="110.75"
     y2="63.631729" /><filter
     inkscape:collect="always"
     id="filter4975"
     x="-0.13420406"
     width="1.2684081"
     y="-0.4026122"
     height="1.8052244"><feGaussianBlur
       inkscape:collect="always"
       stdDeviation="0.86000045"
       id="feGaussianBlur4977" /></filter><radialGradient
     inkscape:collect="always"
     xlink:href="#linearGradient4191"
     id="radialGradient4979"
     gradientUnits="userSpaceOnUse"
     gradientTransform="matrix(1,0,0,1.0016908,123.46922,-0.3842446)"
     cx="-59.469215"
     cy="57.43713"
     fx="-59.469215"
     fy="57.43713"
     r="10.71743" /><radialGradient
     inkscape:collect="always"
     xlink:href="#linearGradient4191"
     id="radialGradient4981"
     gradientUnits="userSpaceOnUse"
     gradientTransform="matrix(0.6561148,-0.7546611,-0.755937,-0.6572242,146.72307,50.058553)"
     cx="-59.469215"
     cy="57.43713"
     fx="-59.469215"
     fy="57.43713"
     r="10.71743" /><radialGradient
     inkscape:collect="always"
     xlink:href="#radialGradient4538"
     id="radialGradient4983"
     gradientUnits="userSpaceOnUse"
     gradientTransform="matrix(1.4409234,0.107862,-0.105889,1.3813431,52.499473,-7.2196741)"
     cx="-107.23627"
     cy="49.263737"
     fx="-107.09864"
     fy="38.957455"
     r="23.575932" /><linearGradient
     inkscape:collect="always"
     xlink:href="#linearGradient5008"
     id="linearGradient5014"
     x1="111.15335"
     y1="98.9562"
     x2="71.409927"
     y2="87.111557"
     gradientUnits="userSpaceOnUse" /><linearGradient
     inkscape:collect="always"
     xlink:href="#linearGradient5008"
     id="linearGradient5040"
     x1="-36.614799"
     y1="43.01379"
     x2="67.964081"
     y2="54.51379"
     gradientUnits="userSpaceOnUse"
     gradientTransform="translate(-2,-4)" /><filter
     inkscape:collect="always"
     id="filter5092"><feGaussianBlur
       inkscape:collect="always"
       stdDeviation="1.4563107"
       id="feGaussianBlur5094" /></filter><linearGradient
     inkscape:collect="always"
     xlink:href="#linearGradient5096"
     id="linearGradient5102"
     x1="143.71373"
     y1="72.980972"
     x2="79.696701"
     y2="33.382992"
     gradientUnits="userSpaceOnUse"
     gradientTransform="translate(0,2)" /><filter
     inkscape:collect="always"
     id="filter5142"
     x="-0.032771326"
     width="1.0655427"
     y="-0.13099864"
     height="1.2619973"><feGaussianBlur
       inkscape:collect="always"
       stdDeviation="1.7248441"
       id="feGaussianBlur5144" /></filter><linearGradient
     inkscape:collect="always"
     xlink:href="#XMLID_10_"
     id="linearGradient5150"
     gradientUnits="userSpaceOnUse"
     gradientTransform="matrix(0.2277333,0,0,0.2206027,101.21594,-1.8274408)"
     spreadMethod="reflect"
     x1="63.019474"
     y1="63.631729"
     x2="110.75"
     y2="63.631729" /><linearGradient
     inkscape:collect="always"
     xlink:href="#XMLID_10_"
     id="linearGradient5154"
     gradientUnits="userSpaceOnUse"
     gradientTransform="matrix(0.2277333,0,0,0.2206027,101.21594,-2.8274408)"
     spreadMethod="reflect"
     x1="63.019474"
     y1="63.631729"
     x2="110.75"
     y2="63.631729" /><linearGradient
     inkscape:collect="always"
     xlink:href="#XMLID_10_"
     id="linearGradient5159"
     gradientUnits="userSpaceOnUse"
     gradientTransform="matrix(0.2277333,0,0,0.2206027,49.46594,-1.2024408)"
     spreadMethod="reflect"
     x1="63.019474"
     y1="63.631729"
     x2="110.75"
     y2="63.631729" /><filter
     inkscape:collect="always"
     id="filter5278"
     x="-0.029810084"
     width="1.0596202"
     y="-0.10770797"
     height="1.2154159"><feGaussianBlur
       inkscape:collect="always"
       stdDeviation="0.19213531"
       id="feGaussianBlur5280" /></filter><filter
     inkscape:collect="always"
     id="filter5302"><feGaussianBlur
       inkscape:collect="always"
       stdDeviation="0.34422264"
       id="feGaussianBlur5304" /></filter><filter
     inkscape:collect="always"
     id="filter5330"><feGaussianBlur
       inkscape:collect="always"
       stdDeviation="0.9700309"
       id="feGaussianBlur5332" /></filter><linearGradient
     inkscape:collect="always"
     xlink:href="#linearGradient5365"
     id="linearGradient5373"
     x1="-42.397148"
     y1="92.07605"
     x2="-24.035822"
     y2="23.379185"
     gradientUnits="userSpaceOnUse" /><radialGradient
     inkscape:collect="always"
     xlink:href="#linearGradient4191"
     id="radialGradient5376"
     gradientUnits="userSpaceOnUse"
     gradientTransform="matrix(1.114289,-1.2415216,-1.2838185,-1.0812244,204.52988,46.227584)"
     cx="-59.469215"
     cy="57.43713"
     fx="-59.469215"
     fy="57.43713"
     r="10.71743" /><radialGradient
     inkscape:collect="always"
     xlink:href="#linearGradient4191"
     id="radialGradient5379"
     gradientUnits="userSpaceOnUse"
     gradientTransform="matrix(1.9710552,0,0,1.9125675,181.32971,-50.789135)"
     cx="-59.469215"
     cy="57.43713"
     fx="-59.469215"
     fy="57.43713"
     r="10.71743" /><radialGradient
     inkscape:collect="always"
     xlink:href="#linearGradient4191"
     id="radialGradient5387"
     gradientUnits="userSpaceOnUse"
     gradientTransform="matrix(1.5667607,1.137511,1.0942717,-1.6116245,94.250934,219.49222)"
     cx="-59.469215"
     cy="57.43713"
     fx="-59.469215"
     fy="57.43713"
     r="10.71743" /></defs><sodipodi:namedview
   inkscape:window-height="678"
   inkscape:window-width="1022"
   inkscape:pageshadow="2"
   inkscape:pageopacity="0.0"
   guidetolerance="10.0"
   gridtolerance="10.0"
   objecttolerance="10.0"
   borderopacity="1.0"
   bordercolor="#666666"
   pagecolor="#ffffff"
   id="base"
   inkscape:zoom="2.0000001"
   inkscape:cx="179.60514"
   inkscape:cy="80.513729"
   inkscape:window-x="434"
   inkscape:window-y="161"
   inkscape:current-layer="Layer_1"
   showgrid="true"
   showguides="true"
   inkscape:guide-bbox="true"><inkscape:grid
     id="GridFromPre046Settings"
     type="xygrid"
     originx="0px"
     originy="0px"
     spacingx="8px"
     spacingy="8px"
     color="#0000ff"
     empcolor="#0000ff"
     opacity="0.2"
     empopacity="0.4"
     empspacing="1"
     visible="true"
     enabled="true" /><sodipodi:guide
     orientation="1,0"
     position="-102.53048,86.267025"
     id="guide3081" /><sodipodi:guide
     orientation="0,1"
     position="104.5,65"
     id="guide4032" /></sodipodi:namedview>
<metadata
   id="metadata3">
	<ns:sfw>
		<ns:slices>
			<ns:slice
   y="0"
   x="0"
   height="128"
   width="128"
   sliceID="1316743234" />
		</ns:slices>
		<ns:sliceSourceBounds
   y="0"
   x="0"
   height="128"
   width="128"
   bottomLeftOrigin="true" />
		<ns:optimizationSettings>
			<ns:targetSettings
   targetSettingsID="0"
   fileFormat="PNG24Format">
				<ns:PNG24Format
   transparency="true"
   filtered="false"
   matteColor="#FFFFFF"
   noMatteColor="false"
   interlaced="false">
					</ns:PNG24Format>
			</ns:targetSettings>
			<ns:targetSettings
   targetSettingsID="1696735251"
   fileFormat="PNG24Format">
				<ns:PNG24Format
   transparency="true"
   filtered="false"
   matteColor="#FFFFFF"
   noMatteColor="false"
   interlaced="false">
					</ns:PNG24Format>
			</ns:targetSettings>
		</ns:optimizationSettings>
	</ns:sfw>
<rdf:RDF><cc:Work
     rdf:about=""><dc:format>image/svg+xml</dc:format><dc:type
       rdf:resource="http://purl.org/dc/dcmitype/StillImage" /></cc:Work></rdf:RDF></metadata>

<radialGradient
   id="XMLID_7_"
   cx="102"
   cy="112.3047"
   r="139.5585"
   gradientUnits="userSpaceOnUse">
	<stop
   offset="0"
   style="stop-color:#00537D"
   id="stop16" />
	<stop
   offset="0.0151"
   style="stop-color:#186389"
   id="stop18" />
	<stop
   offset="0.0558"
   style="stop-color:#558CA8"
   id="stop20" />
	<stop
   offset="0.0964"
   style="stop-color:#89AFC3"
   id="stop22" />
	<stop
   offset="0.1357"
   style="stop-color:#B3CCD8"
   id="stop24" />
	<stop
   offset="0.1737"
   style="stop-color:#D4E2E9"
   id="stop26" />
	<stop
   offset="0.2099"
   style="stop-color:#ECF2F5"
   id="stop28" />
	<stop
   offset="0.2435"
   style="stop-color:#FAFCFD"
   id="stop30" />
	<stop
   offset="0.2722"
   style="stop-color:#FFFFFF"
   id="stop32" />
</radialGradient>

<radialGradient
   id="XMLID_8_"
   cx="102"
   cy="112.3047"
   r="139.55859"
   gradientUnits="userSpaceOnUse">
	<stop
   offset="0"
   style="stop-color:#535557"
   id="stop37" />
	
	<stop
   offset="0.11366145"
   style="stop-color:#898A8C"
   id="stop41" />
	
	
	<stop
   offset="0.20296688"
   style="stop-color:#ECECEC"
   id="stop47" />
	<stop
   offset="0.2363"
   style="stop-color:#FAFAFA"
   id="stop49" />
	<stop
   offset="0.2722"
   style="stop-color:#FFFFFF"
   id="stop51" />
	<stop
   offset="0.5313"
   style="stop-color:#FAFAFA"
   id="stop53" />
	<stop
   offset="0.8449"
   style="stop-color:#EBECEC"
   id="stop55" />
	<stop
   offset="1"
   style="stop-color:#E1E2E3"
   id="stop57" />
</radialGradient>

<linearGradient
   id="XMLID_9_"
   gradientUnits="userSpaceOnUse"
   x1="94.3438"
   y1="102.3447"
   x2="86.5356"
   y2="94.5366">
	<stop
   offset="0"
   style="stop-color:#FFFFFF"
   id="stop62" />
	<stop
   offset="1"
   style="stop-color:#555753"
   id="stop64" />
</linearGradient>

<linearGradient
   id="XMLID_10_"
   gradientUnits="userSpaceOnUse"
   x1="95"
   y1="103"
   x2="86.5865"
   y2="94.5865">
	<stop
   offset="0"
   style="stop-color:#FFFFFF"
   id="stop69" />
	<stop
   offset="1"
   style="stop-color:#555753"
   id="stop71" />
</linearGradient>

<linearGradient
   id="XMLID_11_"
   gradientUnits="userSpaceOnUse"
   x1="95"
   y1="103"
   x2="87.293"
   y2="95.293">
	<stop
   offset="0"
   style="stop-color:#ffffff;stop-opacity:0"
   id="stop76" />
	<stop
   offset="1"
   style="stop-color:#595c57;stop-opacity:1;"
   id="stop78" />
</linearGradient>

<linearGradient
   id="XMLID_12_"
   gradientUnits="userSpaceOnUse"
   x1="96"
   y1="104"
   x2="88.0002"
   y2="96.0002">
	<stop
   offset="0"
   style="stop-color:#888A85"
   id="stop83" />
	<stop
   offset="0.0072"
   style="stop-color:#8C8E89"
   id="stop85" />
	<stop
   offset="0.0673"
   style="stop-color:#ABACA9"
   id="stop87" />
	<stop
   offset="0.1347"
   style="stop-color:#C5C6C4"
   id="stop89" />
	<stop
   offset="0.2115"
   style="stop-color:#DBDBDA"
   id="stop91" />
	<stop
   offset="0.3012"
   style="stop-color:#EBEBEB"
   id="stop93" />
	<stop
   offset="0.4122"
   style="stop-color:#F7F7F6"
   id="stop95" />
	<stop
   offset="0.5679"
   style="stop-color:#FDFDFD"
   id="stop97" />
	<stop
   offset="1"
   style="stop-color:#FFFFFF"
   id="stop99" />
</linearGradient>


<path
   style="fill:#000000;fill-opacity:1;fill-rule:evenodd;stroke:none;stroke-width:1px;stroke-linecap:butt;stroke-linejoin:miter;stroke-opacity:1;filter:url(#filter5142)"
   d="M 17.393405,101.36032 L 0.84294415,107.4213 L 0.84479449,109.61969 C 18.467119,112.29579 45.004903,116.728 62.119471,125.94537 C 62.968938,126.40634 65.173987,126.34028 65.988307,125.88929 C 83.106363,117.04991 109.56943,112.29015 127.15461,109.61969 L 127.16148,107.44295 L 110.60599,101.36032 L 17.393405,101.36032 z"
   id="path5104"
   sodipodi:nodetypes="ccccccccc" /><path
   sodipodi:nodetypes="ccccccccc"
   id="path4711"
   d="M 17.393405,93.660317 L 0.84294415,106.4213 L 0.84479449,108.61969 C 18.467119,111.29579 45.004903,115.728 62.119471,124.94537 C 62.968938,125.40634 65.173987,125.34028 65.988307,124.88929 C 83.106363,116.04991 109.56943,111.29015 127.15461,108.61969 L 127.16148,106.44295 L 110.60599,93.660317 L 17.393405,93.660317 z"
   style="fill:url(#linearGradient4715);fill-opacity:1;fill-rule:evenodd;stroke:none;stroke-width:1px;stroke-linecap:butt;stroke-linejoin:miter;stroke-opacity:1" /><path
   style="fill:url(#radialGradient4730);fill-opacity:1;fill-rule:evenodd;stroke:none;stroke-width:1px;stroke-linecap:butt;stroke-linejoin:miter;stroke-opacity:1"
   d="M 60.55685,121.47228 L 60.55685,124.15407 C 61.078011,124.41791 61.613347,124.67277 62.118555,124.94486 C 62.968024,125.40583 65.173004,125.32708 65.987324,124.87609 C 66.711342,124.50222 67.467326,124.16967 68.223402,123.81025 L 68.223402,121.47228 L 60.55685,121.47228 z"
   id="path4717" /><path
   transform="matrix(1.012046,0,0,1.012046,-457.91658,-1065.2801)"
   id="path2797"
   d="M -258.80109,-29.73394 C -293.20059,-29.73394 -321.1279,-5.3246052 -321.1279,24.762409 C -321.1279,54.849525 -293.20059,79.258758 -258.80109,79.258758 C -224.4016,79.258758 -196.47427,54.849626 -196.47427,24.762409 C -196.47427,-5.3247064 -224.4016,-29.73394 -258.80109,-29.73394 z M -258.80109,-12.618218 C -233.08639,-12.618218 -212.22721,5.6260361 -212.22721,28.117038 C -212.22721,50.60804 -233.08639,68.852294 -258.80109,68.852294 C -284.51576,68.852294 -305.37496,50.608141 -305.37496,28.117038 C -305.37496,5.6259349 -284.51576,-12.618218 -258.80109,-12.618218 z"
   style="fill:url(#linearGradient13725);fill-opacity:1;stroke:none;stroke-width:0.00945507;stroke-linecap:round;stroke-linejoin:round;stroke-miterlimit:4;stroke-dasharray:none;stroke-dashoffset:0;stroke-opacity:1;overflow:visible" /><path
   style="fill:url(#linearGradient4001);fill-opacity:1;fill-rule:evenodd;stroke:none;stroke-width:1px;stroke-linecap:butt;stroke-linejoin:miter;stroke-opacity:1"
   d="M 63.999699,13.835196 C 17.419479,13.835196 19.039346,63.889765 17.393405,93.660317 L 0.84479449,106.41925 C 18.621102,109.11872 45.469354,113.95317 62.565936,122.97852 C 63.844702,123.34997 64.270966,123.21845 65.424873,122.98306 C 82.521056,113.95481 109.37532,109.11917 127.15461,106.41925 L 110.60599,93.660317 C 108.96006,63.889765 110.91757,13.835196 63.999699,13.835196 z"
   id="path3083"
   sodipodi:nodetypes="cccccccz" /><path
   style="opacity:0.72277228;fill:#ffffff;fill-opacity:1;fill-rule:evenodd;stroke:none;stroke-width:1px;stroke-linecap:butt;stroke-linejoin:miter;stroke-opacity:1;filter:url(#filter4782)"
   d="M 97.050403,83.629051 L 107.12667,91.407225 C 93.419927,93.474526 80.898215,97.319374 68.589356,101.4835 C 78.490731,95.611806 90.594905,92.717883 102.08854,90.258177 L 97.050403,83.629051 z"
   id="path3897"
   sodipodi:nodetypes="ccccc"
   transform="matrix(1.3509071,0,0,1.3086086,-22.458353,-14.472268)" /><path
   sodipodi:nodetypes="ccccccc"
   id="path4005"
   d="M 17.393405,93.660317 L 0.84479449,106.41925 C 18.609188,109.11692 45.43337,113.9467 62.531548,122.96038 C 63.656749,123.3181 64.340545,123.30309 65.445207,122.97233 C 82.542343,113.95097 109.38237,109.1181 127.15461,106.41925 L 110.60599,93.660317 L 17.393405,93.660317 z"
   style="fill:url(#linearGradient4013);fill-opacity:1;fill-rule:evenodd;stroke:none;stroke-width:1px;stroke-linecap:butt;stroke-linejoin:miter;stroke-opacity:1" /><path
   style="fill:url(#linearGradient4317);fill-opacity:1;fill-rule:evenodd;stroke:none;stroke-width:1px;stroke-linecap:butt;stroke-linejoin:miter;stroke-opacity:1"
   d="M 17.393405,93.660317 L 0.84479449,106.41925 C 18.6013,109.11572 45.409549,113.94242 62.508766,122.94838 C 63.20717,123.33334 64.833355,123.29322 65.436014,122.97718 C 82.532721,113.95271 109.37918,109.11858 127.15461,106.41925 L 110.60599,93.660317 L 17.393405,93.660317 z"
   id="path4315"
   sodipodi:nodetypes="ccccccc" /><path
   style="opacity:1;fill:url(#linearGradient3894);fill-opacity:1;stroke:none;stroke-width:1;stroke-linecap:round;stroke-linejoin:round;stroke-miterlimit:4;stroke-dasharray:none;stroke-dashoffset:0;stroke-opacity:1"
   d="M 17.562269,90.216416 C 17.511814,91.279282 17.449222,92.469271 17.393405,93.487937 L 110.60599,93.487937 C 110.55022,92.469271 110.4868,91.279282 110.43713,90.216416 L 17.562269,90.216416 z"
   id="rect3094" /><path
   id="path4311"
   d="M 17.562269,89.336238 C 17.511814,89.640848 17.449222,89.981892 17.393405,90.273835 L 110.60599,90.273835 C 110.55022,89.981892 110.4868,89.640848 110.43713,89.336238 L 17.562269,89.336238 z"
   style="opacity:1;fill:url(#linearGradient4313);fill-opacity:1;stroke:none;stroke-width:1;stroke-linecap:round;stroke-linejoin:round;stroke-miterlimit:4;stroke-dasharray:none;stroke-dashoffset:0;stroke-opacity:1" /><path
   transform="matrix(0.5613646,-0.1453438,0.1500417,0.5437878,83.365398,36.937066)"
   d="M -8.7291577,74.369563 L -37.561118,66.557217 L -58.624158,87.738888 L -66.274449,58.863505 L -95.149834,51.213213 L -73.968164,30.150175 L -81.780509,1.318212 L -52.948548,9.1305574 L -31.885508,-12.051113 L -24.235217,16.82427 L 4.6401673,24.474562 L -16.541503,45.5376 L -8.7291577,74.369563 z"
   inkscape:randomized="0"
   inkscape:rounded="0"
   inkscape:flatsided="false"
   sodipodi:arg2="1.3089969"
   sodipodi:arg1="0.78539816"
   sodipodi:r2="29.726227"
   sodipodi:r1="51.655106"
   sodipodi:cy="37.843887"
   sodipodi:cx="-45.254833"
   sodipodi:sides="6"
   id="use4030"
   style="opacity:1;fill:url(#radialGradient4106);fill-opacity:1;stroke:none;stroke-width:1;stroke-linecap:round;stroke-linejoin:round;stroke-miterlimit:4;stroke-dasharray:none;stroke-dashoffset:0;stroke-opacity:1"
   sodipodi:type="star" /><path
   style="opacity:0.27227723;fill:url(#linearGradient5040);fill-opacity:1;fill-rule:evenodd;stroke:none;stroke-width:1px;stroke-linecap:butt;stroke-linejoin:miter;stroke-opacity:1;filter:url(#filter5330)"
   d="M 54.625,19.5 C 18.496561,31.579182 24.181554,79.284737 22.375,90 L 45.5,89.625 C 45.793323,70.191024 46.114525,45.647024 63.5,29.5 C 68.558259,24.802065 63.219768,16.626425 54.625,19.5 z"
   id="path5032"
   sodipodi:nodetypes="cccss" /><path
   transform="matrix(0.6482017,-4.8733712e-2,4.9688927e-2,0.6357407,130.5608,22.844457)"
   d="M -90.54457,65.955434 L -97.798036,66.352143 L -102.05329,72.239669 L -108.36977,68.651882 L -115.13255,71.304222 L -118.50661,64.871036 L -125.62979,63.446089 L -124.99018,56.209996 L -130.2122,51.160173 L -125.762,45.41858 L -127.4249,38.347165 L -120.57702,35.922988 L -118.15284,29.075104 L -111.08142,30.738002 L -105.33983,26.287805 L -100.29001,31.50982 L -93.053915,30.870215 L -91.628968,37.993393 L -85.195782,41.367451 L -87.848121,48.130235 L -84.260335,54.446715 L -90.147861,58.701968 L -90.54457,65.955434 z"
   inkscape:randomized="0"
   inkscape:rounded="0"
   inkscape:flatsided="false"
   sodipodi:arg2="1.0709975"
   sodipodi:arg1="0.78539816"
   sodipodi:r2="19.2008"
   sodipodi:r1="23.271492"
   sodipodi:cy="49.500004"
   sodipodi:cx="-107"
   sodipodi:sides="11"
   id="path4614"
   style="opacity:1;fill:#000000;fill-opacity:1;stroke:none;stroke-width:1.20000005;stroke-linecap:round;stroke-linejoin:round;stroke-miterlimit:4;stroke-dasharray:none;stroke-dashoffset:0;stroke-opacity:1;filter:url(#filter4676)"
   sodipodi:type="star" /><path
   sodipodi:type="star"
   style="opacity:1;fill:url(#radialGradient4983);fill-opacity:1;stroke:none;stroke-width:1.20000005;stroke-linecap:round;stroke-linejoin:round;stroke-miterlimit:4;stroke-dasharray:none;stroke-dashoffset:0;stroke-opacity:1"
   id="path4448"
   sodipodi:sides="11"
   sodipodi:cx="-107"
   sodipodi:cy="49.500004"
   sodipodi:r1="23.271492"
   sodipodi:r2="19.2008"
   sodipodi:arg1="0.78539816"
   sodipodi:arg2="1.0709975"
   inkscape:flatsided="false"
   inkscape:rounded="0"
   inkscape:randomized="0"
   d="M -90.54457,65.955434 L -97.798036,66.352143 L -102.05329,72.239669 L -108.36977,68.651882 L -115.13255,71.304222 L -118.50661,64.871036 L -125.62979,63.446089 L -124.99018,56.209996 L -130.2122,51.160173 L -125.762,45.41858 L -127.4249,38.347165 L -120.57702,35.922988 L -118.15284,29.075104 L -111.08142,30.738002 L -105.33983,26.287805 L -100.29001,31.50982 L -93.053915,30.870215 L -91.628968,37.993393 L -85.195782,41.367451 L -87.848121,48.130235 L -84.260335,54.446715 L -90.147861,58.701968 L -90.54457,65.955434 z"
   transform="matrix(0.6482017,-4.8733712e-2,4.9688927e-2,0.6357407,130.5608,21.862646)" /><path
   style="fill:url(#radialGradient5379);fill-opacity:1;stroke:none;stroke-width:1.20000005;stroke-linecap:round;stroke-linejoin:round;stroke-miterlimit:4;stroke-dasharray:none;stroke-dashoffset:0;stroke-opacity:1"
   d="M 63.7396,44.207352 C 63.566597,44.207352 63.403401,44.23767 63.23184,44.24362 C 63.360356,44.938498 63.454877,45.559918 63.594526,46.310931 C 63.59224,46.319894 63.597683,46.336637 63.594526,46.347199 C 63.920096,48.098627 64.286703,49.949552 64.646315,51.968832 C 64.633301,51.976359 64.623091,51.997562 64.610046,52.005101 C 64.920442,52.771699 65.239678,53.551318 65.589299,54.398829 C 66.750833,53.718752 67.475917,53.283537 67.729146,53.093158 C 67.572091,52.715781 67.486207,52.417701 67.330191,52.04137 C 68.08727,51.1795 68.627368,50.585304 69.179891,49.974059 C 69.215628,49.884859 69.294049,49.762627 69.324965,49.68391 C 69.312571,49.735348 69.301868,49.845678 69.288696,49.901522 C 69.806141,49.330477 70.325778,48.756163 70.594365,48.487046 C 69.977258,48.905009 68.604597,49.707353 66.786163,50.771968 C 65.820073,48.430138 64.881431,46.152791 64.102286,44.207352 C 63.982749,44.204472 63.859826,44.207352 63.7396,44.207352 z M 55.833045,46.528543 C 55.575899,46.693834 55.317234,46.855726 55.071405,47.036302 C 56.660761,48.676588 58.561191,50.669514 60.511695,52.730473 C 60.504994,52.743525 60.482144,52.753664 60.475426,52.766742 C 61.182384,53.261943 61.860132,53.743375 62.651543,54.290022 C 63.257989,53.092454 63.635842,52.366051 63.7396,52.077638 C 63.394727,51.841004 63.140138,51.661182 62.796617,51.424804 C 62.957945,50.262907 63.068629,49.454594 63.195571,48.632121 C 63.098674,48.174924 63.023282,47.968475 62.977959,47.834212 C 62.622294,48.575798 62.176042,49.452717 61.599753,50.590625 C 59.509351,49.146936 57.557882,47.742896 55.833045,46.528543 z M 62.977959,47.834212 C 63.010897,47.964032 63.062582,48.090883 63.195571,48.450778 C 63.307955,47.729819 63.412162,47.029427 63.48572,46.673617 C 63.375246,46.932828 63.194312,47.346381 62.977959,47.797943 C 62.980145,47.803911 62.975614,47.827263 62.977959,47.834212 z M 71.609886,46.528543 C 71.322223,47.211553 71.201162,47.529616 70.884514,48.269435 C 70.179724,49.916126 69.389417,51.6739 68.563324,53.56465 C 68.541106,53.563938 68.513078,53.565369 68.490786,53.56465 C 68.326729,54.359759 68.158648,55.151188 67.983027,56.030916 C 69.412913,56.069193 70.289839,56.100017 70.558097,56.067185 C 70.560503,56.054936 70.555691,56.043161 70.558097,56.030916 C 70.626037,55.685169 70.70756,55.396318 70.775709,55.051663 C 71.774527,54.75804 72.450504,54.575094 73.205705,54.36256 C 73.386855,54.236089 73.645172,54.064503 73.786003,53.963606 C 73.699793,54.044474 73.561219,54.192838 73.459585,54.290022 C 74.380523,54.032667 75.242651,53.794338 75.635701,53.709725 C 74.931997,53.744461 73.257384,53.73303 71.029589,53.673457 C 71.503578,51.29852 71.990574,49.023115 72.407796,47.036302 C 72.154495,46.850544 71.87517,46.698072 71.609886,46.528543 z M 70.558097,56.067185 C 70.296511,56.100209 69.365244,56.343641 67.837952,56.792557 C 67.775022,57.110713 67.719112,57.34374 67.656609,57.663003 C 67.750253,57.725794 67.855395,57.819504 67.946758,57.880614 C 68.876283,57.265658 69.745173,56.685495 70.558097,56.139721 C 70.56531,56.102981 70.55088,56.10392 70.558097,56.067185 z M 56.522149,48.704658 C 56.578003,48.980467 56.659496,49.481396 56.73976,50.046597 C 56.803415,50.117704 56.97391,50.222977 57.320057,50.48182 C 56.979514,49.745891 56.651777,49.03678 56.522149,48.704658 z M 56.73976,50.046597 C 56.854399,50.853838 56.988054,51.83193 57.138715,53.093158 C 54.729157,52.980639 52.467173,52.875952 50.429024,52.766742 C 50.292877,53.063043 50.182914,53.366943 50.066338,53.673457 C 52.239151,54.213936 54.769746,54.853842 57.392595,55.523155 C 57.395016,55.544443 57.390172,55.574342 57.392595,55.595693 C 58.29474,55.643893 59.21044,55.693555 60.221546,55.740767 C 60.055665,54.35176 59.930072,53.479591 59.85886,53.238234 C 59.39825,53.218139 59.048607,53.186378 58.589459,53.165696 C 58.070519,52.090791 57.709689,51.352339 57.356326,50.590625 C 57.01024,50.249294 56.816969,50.094004 56.73976,50.046597 z M 63.812138,52.113907 C 63.729278,52.426137 63.581193,53.326033 63.376915,54.797783 C 63.628694,54.971014 63.813291,55.096036 64.066018,55.269275 C 64.167405,55.210819 64.293751,55.144981 64.392435,55.087932 C 64.207746,54.050755 64.054277,53.102916 63.884674,52.186444 C 63.854724,52.165904 63.842085,52.134451 63.812138,52.113907 z M 77.122713,52.839278 C 75.291235,54.075912 73.18548,55.499629 70.957052,56.973899 C 70.924036,56.951812 70.881432,56.923573 70.848245,56.901362 C 70.287454,57.463611 69.719669,57.984718 69.107353,58.605986 C 70.323794,59.410187 71.066254,59.964486 71.28347,60.056731 C 71.545214,59.789588 71.747594,59.561084 72.008841,59.29509 C 72.907085,59.542058 73.48405,59.747721 74.184957,59.947924 C 74.742033,59.920569 75.103771,59.900268 75.381821,59.875387 C 74.701022,59.442748 73.977296,58.969827 72.988093,58.315837 C 74.608397,56.671546 76.121016,55.174924 77.521669,53.782262 C 77.402475,53.46042 77.2634,53.150045 77.122713,52.839278 z M 71.28347,60.056731 C 71.076801,59.953807 70.079268,59.622802 68.490786,59.186284 C 68.26728,59.413885 68.097876,59.610523 67.87422,59.839118 C 67.917528,59.940003 67.976949,60.067201 68.019294,60.165536 C 69.179169,60.134044 70.271396,60.091205 71.28347,60.056731 z M 67.765415,53.129427 C 67.533877,53.3337 66.902065,54.00158 65.915717,55.124201 C 66.035873,55.414026 66.121056,55.667879 66.242133,55.958378 C 66.345176,55.961805 66.46785,55.991406 66.568551,55.994647 C 67.001831,55.002993 67.426188,54.077801 67.801683,53.201965 C 67.790736,53.175682 67.776354,53.155712 67.765415,53.129427 z M 59.895128,53.238234 C 59.968131,53.487912 60.345683,54.381234 61.019456,55.777035 C 61.347189,55.791805 61.561159,55.799082 61.889902,55.813304 C 61.940015,55.715985 61.986225,55.581838 62.034976,55.486886 C 61.271659,54.680431 60.605715,53.940841 59.931397,53.238234 C 59.92614,53.232754 59.900379,53.243703 59.895128,53.238234 z M 51.770962,54.181217 C 51.974825,54.386962 52.359204,54.790126 52.750214,55.233006 C 52.823912,55.261354 53.091116,55.301198 53.584393,55.341812 C 52.83307,54.868088 52.080282,54.403437 51.770962,54.181217 z M 52.750214,55.269275 C 53.29675,55.888714 53.959221,56.654649 54.781255,57.626734 C 52.780761,58.743962 50.920911,59.767861 49.195891,60.709565 C 49.238759,61.053766 49.310915,61.388692 49.377235,61.725085 C 51.465534,61.050001 53.837494,60.262937 56.340806,59.476433 C 56.366012,59.506576 56.388008,59.554929 56.413343,59.585239 C 57.198462,59.153749 58.00303,58.696605 58.879608,58.207031 C 57.928983,57.08326 57.332116,56.39997 57.174983,56.284796 C 56.772698,56.511134 56.452015,56.676312 56.050657,56.901362 C 55.089269,56.314697 54.423678,55.887011 53.729467,55.450618 C 53.157801,55.32336 52.826781,55.261458 52.750214,55.269275 z M 57.174983,56.284796 C 57.30369,56.417967 58.165748,56.987877 59.568711,57.844346 C 59.867747,57.67669 60.103268,57.541595 60.402889,57.372854 C 60.391689,57.273364 60.377666,57.17989 60.36662,57.082705 C 59.235814,56.794119 58.162627,56.529505 57.174983,56.284796 z M 64.28363,57.880614 C 64.144052,57.923165 64.026124,57.982443 63.884674,58.025688 C 64.129371,58.089815 64.333599,58.10748 64.573778,58.170763 C 64.470036,58.059663 64.388345,57.992584 64.28363,57.880614 z M 64.573778,58.170763 C 64.738355,58.347032 64.883886,58.505214 65.045269,58.678523 C 65.021728,58.540778 64.996573,58.41841 64.972733,58.279569 C 64.835243,58.243225 64.713166,58.20749 64.573778,58.170763 z M 65.045269,58.678523 C 65.079206,58.877076 65.084607,59.026927 65.117807,59.222552 C 65.168172,59.109366 65.212248,59.046398 65.262881,58.932403 C 65.185918,58.84965 65.123125,58.762132 65.045269,58.678523 z M 65.117807,59.222552 C 65.012388,59.459465 64.931415,59.6794 64.827658,59.911656 C 64.958277,59.826491 65.05865,59.743795 65.190345,59.657775 C 65.165761,59.512129 65.142873,59.370253 65.117807,59.222552 z M 64.827658,59.911656 C 64.634702,60.037467 64.473454,60.114641 64.28363,60.238073 C 64.425805,60.235138 64.539296,60.241135 64.682584,60.238073 C 64.73618,60.118362 64.773472,60.03295 64.827658,59.911656 z M 64.28363,60.238073 C 64.050982,60.242876 63.859547,60.233629 63.630794,60.238073 C 63.749718,60.308686 63.837318,60.384614 63.957212,60.455685 C 64.069709,60.382661 64.169734,60.312132 64.28363,60.238073 z M 63.630794,60.238073 C 63.428964,60.118238 63.248724,60.06596 63.050497,59.947924 C 63.108253,60.063813 63.173583,60.121383 63.23184,60.238073 C 63.369838,60.235502 63.491001,60.24079 63.630794,60.238073 z M 63.050497,59.947924 C 62.939843,59.725893 62.868659,59.513193 62.760348,59.29509 C 62.741353,59.44577 62.706841,59.578323 62.68781,59.730313 C 62.81203,59.804422 62.924486,59.87289 63.050497,59.947924 z M 62.760348,59.29509 C 62.788637,59.070673 62.804786,58.899111 62.832885,58.678523 C 62.745261,58.780804 62.667222,58.865551 62.579005,58.968672 C 62.639579,59.090908 62.698855,59.171266 62.760348,59.29509 z M 62.832885,58.678523 C 62.984905,58.501081 63.118482,58.344957 63.268108,58.170763 C 63.139806,58.21016 63.034638,58.239796 62.905423,58.279569 C 62.888209,58.413803 62.850213,58.542494 62.832885,58.678523 z M 63.268108,58.170763 C 63.48585,58.103907 63.670377,58.091208 63.884674,58.025688 C 63.754675,57.991623 63.65296,57.951108 63.521989,57.916883 C 63.436745,58.015972 63.354355,58.070357 63.268108,58.170763 z M 59.786323,59.29509 C 58.655097,59.650453 57.575097,59.958641 56.594686,60.274342 C 56.723266,60.32276 57.844623,60.325655 59.568711,60.31061 C 59.718619,60.028121 59.854171,59.832474 60.003934,59.54897 C 59.93804,59.469986 59.850785,59.372189 59.786323,59.29509 z M 75.41809,59.911656 C 75.20287,59.947236 74.972739,59.976915 74.583911,60.056731 C 75.450598,60.306806 76.276216,60.533578 76.68749,60.673297 C 76.407001,60.512018 75.919831,60.230148 75.41809,59.911656 z M 56.558418,60.31061 C 56.363095,60.679885 56.20963,60.958243 56.014388,61.326131 C 54.936714,61.335635 54.206666,61.328671 53.403049,61.326131 C 52.848923,61.517949 52.533053,61.664846 52.423797,61.725085 C 53.210943,61.955597 54.147331,62.226026 55.325285,62.595533 C 54.273563,64.568888 53.269902,66.416218 52.35126,68.10836 C 52.570046,68.378196 52.803313,68.616483 53.040363,68.87 C 54.418041,67.217121 56.022755,65.321502 57.682744,63.357173 C 57.749699,63.378575 57.832778,63.408079 57.900356,63.42971 C 58.311514,62.670964 58.716355,61.922876 59.169757,61.072251 C 57.679289,60.604986 56.675695,60.295174 56.558418,60.31061 z M 52.423797,61.725085 C 52.539792,61.686322 52.760079,61.545096 53.185437,61.326131 C 52.232927,61.321664 51.300589,61.315836 50.900516,61.289862 C 51.203838,61.360116 51.797138,61.541571 52.423797,61.725085 z M 78.283308,60.782102 C 77.792465,60.800171 77.598961,60.83702 77.086446,60.854639 C 77.079703,60.852472 77.058249,60.85775 77.050177,60.854639 C 75.212687,60.917714 73.257239,60.978374 71.138395,61.035982 C 71.115302,60.982376 71.08911,60.908683 71.065857,60.854639 C 70.253842,61.039817 69.458073,61.18894 68.563324,61.398669 C 69.158234,62.758461 69.541549,63.623541 69.651383,63.756128 C 69.664665,63.763766 69.674415,63.784786 69.68765,63.792396 C 70.028582,63.711489 70.290617,63.655086 70.630634,63.574784 C 71.202432,64.202393 71.555265,64.627239 72.008841,65.134335 C 72.537009,65.42854 72.939827,65.616775 73.205705,65.7509 C 72.88249,65.04648 72.530509,64.311272 72.081378,63.284636 C 74.250551,62.776225 76.256131,62.302916 78.138234,61.87016 C 78.21217,61.51353 78.235809,61.147671 78.283308,60.782102 z M 69.651383,63.756128 C 69.584806,63.610339 68.893868,62.818668 67.765415,61.580011 C 67.437217,61.657518 67.187655,61.719291 66.858699,61.797623 C 66.838539,61.906792 66.841951,62.053898 66.822432,62.160309 C 67.825715,62.747041 68.774563,63.251701 69.651383,63.756128 z M 60.511695,61.471205 C 59.761128,62.359388 59.054429,63.197411 58.408116,63.973739 C 58.518495,63.964783 59.485325,63.378433 60.946918,62.450458 C 60.915233,62.132732 60.870504,61.898628 60.838112,61.580011 C 60.735362,61.54705 60.612,61.503266 60.511695,61.471205 z M 58.408116,63.973739 C 58.383852,64.002881 58.323355,64.017371 58.29931,64.046276 C 58.339253,64.441323 58.368826,64.740461 58.408116,65.134335 C 57.608791,65.641825 57.073832,65.980247 56.449611,66.367466 C 56.059611,66.854645 55.815117,67.128457 55.724239,67.274181 C 56.503377,67.060008 57.397971,66.84414 58.55319,66.54881 C 58.7725,68.788372 58.960246,70.871433 59.133488,72.787009 C 59.465277,72.897254 59.8072,72.990457 60.149008,73.077157 C 60.20551,72.564567 60.270216,72.129852 60.330352,71.590145 C 60.527082,69.824572 60.741782,67.960336 60.983187,65.932243 C 61.061568,65.912661 61.157833,65.879464 61.237067,65.859707 C 61.160225,65.016175 61.111373,64.186474 61.019456,63.248367 C 59.486145,63.64025 58.502613,63.897975 58.408116,63.973739 z M 55.724239,67.274181 C 55.817645,67.145753 55.952066,66.900118 56.195731,66.476273 C 55.324598,67.014348 54.462664,67.547605 54.092152,67.745673 C 54.399556,67.641502 55.052973,67.458702 55.724239,67.274181 z M 62.651543,62.849412 C 62.549857,62.874712 62.424401,62.897137 62.325125,62.921949 C 62.191519,64.044728 62.071602,65.09815 61.962439,66.077318 C 62.073852,65.952464 62.540365,65.00481 63.23184,63.502248 C 63.03061,63.254968 62.853781,63.09699 62.651543,62.849412 z M 61.962439,66.077318 C 61.956449,66.131047 61.968328,66.205584 61.962439,66.258661 C 62.177362,66.522164 62.328717,66.721039 62.542736,66.984033 C 62.178252,67.776181 61.931602,68.279998 61.636021,68.906268 C 61.577249,69.528055 61.569098,69.938474 61.563484,70.17567 C 62.096614,69.591705 62.660267,68.979054 63.449451,68.144628 C 64.882431,69.911885 66.222896,71.552546 67.438997,73.077157 C 67.76871,72.991839 68.097941,72.894273 68.41825,72.787009 C 67.429532,70.878352 66.322746,68.709323 65.154076,66.403735 C 65.218169,66.336707 65.306753,66.253951 65.371687,66.186123 C 64.846338,65.529605 64.326707,64.879108 63.7396,64.155082 C 62.709111,65.244987 62.038581,65.928082 61.962439,66.077318 z M 61.563484,70.17567 C 61.562453,69.975176 61.521186,69.716571 61.490947,69.268955 C 61.067268,70.160775 60.685554,71.023213 60.475426,71.408802 C 60.687846,71.151392 61.123661,70.693967 61.563484,70.211938 C 61.563539,70.201015 61.563545,70.187572 61.563484,70.17567 z M 64.900195,62.921949 C 64.828746,62.996525 64.752278,63.102936 64.682584,63.17583 C 65.208443,64.21328 65.706662,65.180805 66.169596,66.077318 C 66.210332,65.992862 66.071022,64.922322 65.80691,63.248367 C 65.476809,63.138083 65.231499,63.031923 64.900195,62.921949 z M 66.169596,66.077318 C 66.174085,66.086013 66.165117,66.104914 66.169596,66.113586 C 66.511726,66.227445 66.771592,66.289835 67.11258,66.403735 C 67.244522,67.238625 67.303571,67.802417 67.402729,68.471045 C 67.554102,68.753728 67.760325,69.100367 67.87422,69.305224 C 67.776454,69.174398 67.600448,68.9244 67.475266,68.761194 C 67.633408,69.843525 67.767676,70.902944 67.801683,71.336265 C 67.866341,70.65652 68.149068,69.039441 68.527055,66.911496 C 70.648141,67.624046 72.577405,68.270542 74.402569,68.906268 C 74.651946,68.641445 74.898597,68.391138 75.127941,68.10836 C 74.745692,67.889458 74.438066,67.720825 74.039883,67.491794 C 72.463728,66.585203 70.769053,65.610669 68.962278,64.554036 C 68.976061,64.47895 68.984589,64.412294 68.998547,64.336425 C 68.209261,64.06593 67.442296,63.759487 66.568551,63.465979 C 66.302102,64.968018 66.134764,65.977039 66.169596,66.077318 z M 72.335258,65.460751 C 72.980302,66.186431 73.621375,66.895188 73.894808,67.237913 C 73.741227,66.944208 73.477527,66.379059 73.205705,65.787169 C 72.996045,65.701238 72.721277,65.602139 72.335258,65.460751 z"
   id="path4684" /><path
   style="fill:url(#radialGradient5387);fill-opacity:1;stroke:none;stroke-width:1.20000005;stroke-linecap:round;stroke-linejoin:round;stroke-miterlimit:4;stroke-dasharray:none;stroke-dashoffset:0;stroke-opacity:1"
   d="M 78.686946,57.206046 C 76.669738,56.635599 74.354218,55.93694 71.916326,55.210749 C 72.83337,53.199497 73.555195,51.677573 73.892715,51.067469 C 73.617762,51.41298 72.909264,52.212884 72.164299,53.033649 C 72.357182,52.968365 72.610015,52.879493 72.762585,52.825674 C 72.554843,52.932567 72.216316,53.125473 71.934251,53.276317 C 71.472878,53.78251 71.107937,54.180842 70.525378,54.80822 C 70.189165,54.707412 69.923151,54.642623 69.586053,54.541117 C 69.577532,54.545843 69.598338,54.572456 69.5898,54.577191 C 69.504737,54.641589 69.062719,55.540441 68.415122,56.959903 C 69.277579,57.216824 70.039133,57.430547 70.821288,57.658118 C 70.853602,57.586132 70.911105,57.497912 70.943113,57.426687 C 72.98384,57.579021 74.871753,57.746593 76.64331,57.892268 C 77.413279,57.95558 78.032921,58.014709 78.740769,58.075584 C 78.735383,57.791673 78.709007,57.492579 78.686946,57.206046 z M 69.5898,54.577191 C 68.708881,55.065474 67.738275,55.579967 66.726703,56.150698 C 66.740395,56.252344 66.746287,56.371293 66.760414,56.47537 C 67.086685,56.573896 67.338172,56.648643 67.663663,56.74622 C 68.831351,55.48808 69.573855,54.671867 69.5898,54.577191 z M 75.984645,49.792814 C 75.821314,49.566153 75.652353,49.332685 75.476835,49.11627 C 73.460659,49.759485 71.054186,50.49419 68.588359,51.253596 C 68.438461,50.095025 68.349778,49.243272 68.260119,48.443517 C 68.128869,48.646632 67.920218,49.010472 67.611176,49.568343 C 67.48781,50.266652 67.378662,50.846496 67.215158,51.724351 C 66.894568,51.82245 66.653624,51.90036 66.33202,51.998366 C 66.306335,52.046492 66.264757,52.105173 66.23878,52.153902 C 66.213919,52.323597 66.352763,53.270498 66.548291,54.783606 C 67.42922,54.51233 68.227859,54.266393 69.021077,54.016361 C 69.008269,53.921735 68.963887,53.788904 68.951291,53.695435 C 71.526001,52.242807 73.943465,50.915261 75.984645,49.792814 z M 66.23878,52.153902 C 65.765324,53.041997 65.248425,53.987497 64.712229,55.010711 C 64.776947,55.088915 64.888545,55.160757 64.954897,55.24076 C 65.257305,55.148851 65.471941,55.138622 65.773378,55.046385 C 66.083423,53.381195 66.255903,52.323407 66.23878,52.153902 z M 68.260119,48.443517 C 68.266977,48.433526 68.289987,48.449004 68.296193,48.439772 C 68.222377,47.779767 68.109387,47.123584 68.087816,46.784083 C 68.034231,47.230267 67.855423,48.200356 67.681943,49.196359 C 67.962083,48.836628 68.144583,48.611868 68.260119,48.443517 z M 76.36595,58.030458 C 75.952514,58.161454 75.058632,58.387951 74.130704,58.627183 C 74.50382,58.726913 74.746574,58.820218 74.958057,58.86945 C 74.966344,58.871379 74.985995,58.863872 74.994133,58.865704 C 75.548848,58.523819 76.075829,58.18931 76.36595,58.030458 z M 74.958057,58.86945 C 74.669977,58.829031 74.253641,58.768853 73.665479,58.711952 C 73.014807,58.877494 72.488864,59.011448 71.675264,59.210309 C 71.450933,58.946418 71.280194,58.773851 71.055484,58.508926 C 71.040609,58.5077 71.034337,58.513904 71.01941,58.512673 C 70.856247,58.561013 70.077632,59.068201 68.826747,59.870712 C 69.417976,60.563804 69.943731,61.152483 70.48324,61.777139 C 70.532642,61.74502 70.571023,61.721854 70.620047,61.690008 C 72.271321,62.961355 73.832053,64.142471 75.256555,65.256047 C 75.693191,65.597417 76.03618,65.899603 76.451166,66.225915 C 76.634931,65.938646 76.814596,65.632436 76.978285,65.332521 C 75.665367,63.808819 74.199886,62.110549 72.664664,60.310876 C 73.609058,59.704978 74.298108,59.276498 74.958057,58.86945 z M 71.01941,58.512673 C 70.033831,58.431709 68.990247,58.342202 67.857058,58.25761 C 67.811691,58.358539 67.717009,58.465053 67.670575,58.568681 C 67.887239,58.824531 68.073821,59.01535 68.290355,59.270062 C 69.89604,58.877547 70.883074,58.5971 71.01941,58.512673 z M 74.848497,65.189026 C 74.441643,65.06941 73.638815,64.77887 72.806823,64.489428 C 73.070227,64.781079 73.268395,64.96448 73.419112,65.118661 C 74.000164,65.139844 74.533265,65.163057 74.848497,65.189026 z M 73.346962,65.126152 C 73.14018,64.944722 72.854507,64.691057 72.427348,64.346512 C 71.755662,64.110715 71.201154,63.924858 70.345853,63.614584 C 70.29038,63.239675 70.220287,62.952071 70.165079,62.57591 C 69.939642,62.528283 69.073012,62.570125 67.645962,62.545767 C 67.777224,63.422652 67.920889,64.186447 68.044969,64.983861 C 68.084055,64.984298 68.118058,65.008257 68.156939,65.008699 C 69.016469,67.350892 69.797006,69.517942 70.509329,71.510208 C 70.838324,71.349868 71.164228,71.191872 71.478216,71.008507 C 71.180033,69.13121 70.886559,67.169544 70.564085,65.014005 C 71.724566,65.033796 72.558273,65.097822 73.346962,65.126152 z M 70.165079,62.57591 C 69.380321,61.962785 68.567831,61.307242 67.663887,60.611336 C 67.573964,60.66976 67.446338,60.729335 67.354197,60.789346 C 67.401188,61.111045 67.436479,61.366695 67.483914,61.687466 C 68.996328,62.23636 69.941913,62.543367 70.165079,62.57591 z M 69.136924,44.596728 C 68.856123,44.493266 68.590074,44.368683 68.302079,44.282312 C 66.974874,45.915826 65.424864,47.781024 63.800864,49.745195 C 63.051571,48.829647 62.463148,48.159196 61.966362,47.529078 C 61.955222,47.704319 61.986552,48.091439 62.017821,48.727034 C 62.292458,49.413566 62.514564,49.97498 62.859578,50.86391 C 62.602994,51.173134 62.406118,51.430123 62.148341,51.739959 C 62.150918,51.77819 62.193038,51.805879 62.195654,51.844436 C 62.227419,51.962816 62.843954,52.755952 63.838544,53.971057 C 64.448343,53.233609 64.972201,52.530774 65.515904,51.864324 C 65.464224,51.801947 65.400228,51.724593 65.349132,51.662859 C 66.317612,49.814572 67.243875,48.129112 68.097671,46.527816 C 68.474497,45.821077 68.789059,45.246033 69.136924,44.596728 z M 62.195654,51.844436 C 62.265222,52.871602 62.339844,53.956882 62.428289,55.138468 C 62.526362,55.169338 62.667414,55.217538 62.767943,55.249055 C 62.975986,54.999266 63.146636,54.817809 63.353609,54.568364 C 62.722752,52.942907 62.278268,51.915685 62.195654,51.844436 z M 61.966362,47.529078 C 61.538354,46.986199 61.135491,46.441167 60.950741,46.175988 C 61.131931,46.556715 61.495042,47.493521 61.879631,48.449674 C 61.928446,47.951896 61.967129,47.691202 61.966362,47.529078 z M 70.036211,70.465425 C 69.772192,70.167295 69.195944,69.429161 68.61115,68.680821 C 68.636333,68.82137 68.637583,69.031891 68.659843,69.149793 C 68.605627,68.983497 68.516009,68.690475 68.444376,68.479358 C 67.965681,67.864432 67.550637,67.309643 66.924693,66.485797 C 67.067715,66.156045 67.159954,65.90186 67.303766,65.571312 C 67.30886,65.559604 67.331,65.543198 67.336095,65.531491 C 67.141646,65.349011 66.410332,64.863522 65.251834,64.07058 C 64.888101,64.913235 64.582044,65.669882 64.257531,66.434563 C 64.275661,66.446822 64.315355,66.45092 64.333425,66.463146 C 63.908283,68.533132 63.49595,70.483756 63.114023,72.278079 C 63.052883,72.565329 63.025347,72.668982 62.964998,72.949896 C 63.343421,72.978748 63.717406,73.014981 64.102041,73.014153 C 64.800678,71.362907 65.53082,69.684474 66.334299,67.823325 C 68.139221,69.058803 69.496723,70.030043 70.036211,70.465425 z M 67.336095,65.531491 C 67.351375,65.496371 67.385465,65.486972 67.400752,65.451852 C 67.066835,64.522809 66.679486,63.558613 66.292471,62.503985 C 66.184885,62.502755 66.038339,62.506497 65.927977,62.505368 C 65.794996,62.810466 65.709498,63.039539 65.577487,63.343958 C 66.534662,64.603647 67.147059,65.352698 67.336095,65.531491 z M 65.0868,58.618179 C 64.974653,58.532907 64.87957,58.444067 64.768237,58.359546 C 64.848506,58.573106 64.898564,58.776543 64.979958,58.993907 C 65.006283,58.860429 65.060908,58.749977 65.0868,58.618179 z M 64.979958,58.993907 C 64.929548,59.249498 64.886431,59.441331 64.834678,59.7018 C 64.93911,59.591807 65.030258,59.52411 65.13313,59.415566 C 65.077666,59.267079 65.03506,59.141057 64.979958,58.993907 z M 64.834678,59.7018 C 64.696362,59.847485 64.583563,59.99585 64.442985,60.143571 C 64.55271,60.11805 64.655391,60.099108 64.763912,60.073784 C 64.788889,59.948506 64.809955,59.826244 64.834678,59.7018 z M 64.442985,60.143571 C 64.215547,60.196473 64.032811,60.229594 63.801134,60.283142 C 63.932945,60.332637 64.050523,60.377336 64.180609,60.426058 C 64.278995,60.322821 64.345463,60.24606 64.442985,60.143571 z M 63.801134,60.283142 C 63.574012,60.197858 63.385347,60.109326 63.154153,60.022147 C 63.241848,60.140222 63.289125,60.283828 63.37573,60.400239 C 63.523027,60.366321 63.655109,60.316896 63.801134,60.283142 z M 63.154153,60.022147 C 63.021297,59.843266 62.911867,59.732816 62.77704,59.550814 C 62.788149,59.685192 62.803432,59.778868 62.814497,59.911561 C 62.938187,59.958304 63.031327,59.97583 63.154153,60.022147 z M 62.77704,59.550814 C 62.757768,59.317677 62.725183,59.102653 62.705872,58.865395 C 62.641817,58.99002 62.589995,59.125576 62.526882,59.248616 C 62.606836,59.356705 62.697595,59.443575 62.77704,59.550814 z M 62.705872,58.865395 C 62.809745,58.663301 62.904519,58.492244 63.010433,58.286818 C 62.890708,58.355671 62.7865,58.436604 62.668415,58.504648 C 62.679535,58.642456 62.694739,58.728642 62.705872,58.865395 z M 63.010433,58.286818 C 63.221315,58.165541 63.378743,58.05778 63.593736,57.934543 C 63.45064,57.925051 63.330564,57.91284 63.189425,57.903597 C 63.117589,58.042656 63.081546,58.148883 63.010433,58.286818 z M 63.593736,57.934543 C 63.81884,57.94948 63.992996,57.999666 64.221989,58.015166 C 64.112425,57.9322 64.015394,57.874413 63.907172,57.792609 C 63.794102,57.857316 63.70595,57.870223 63.593736,57.934543 z M 64.221989,58.015166 C 64.40128,58.150924 64.586057,58.221233 64.768237,58.359546 C 64.720078,58.23141 64.670195,58.136494 64.622556,58.010036 C 64.486595,58.000733 64.356923,58.024294 64.221989,58.015166 z M 64.115772,63.313414 C 64.033872,63.258032 63.92464,63.179766 63.840776,63.123186 C 63.578322,63.2981 63.389494,63.45986 63.128156,63.634742 C 63.269884,65.149948 63.381734,66.066916 63.448904,66.372669 C 63.472639,66.356834 63.493569,66.344933 63.51731,66.329103 C 63.719942,65.374377 63.892809,64.399082 64.115772,63.313414 z M 63.412831,66.376416 C 63.320467,66.069853 62.978308,65.313802 62.444121,64.070402 C 61.681312,64.582789 60.980363,65.030006 60.295025,65.496844 C 60.301081,65.510727 60.296478,65.555143 60.302518,65.568994 C 58.861339,67.063007 57.508263,68.421379 56.247397,69.709332 C 56.243864,69.720053 56.218379,69.740282 56.215067,69.749152 C 56.012093,69.956464 55.852561,70.114996 55.654238,70.317875 C 55.979942,70.547026 56.327087,70.775692 56.670838,70.978054 C 58.135533,69.978399 59.63937,68.953016 61.303556,67.835188 C 62.139884,69.781719 62.753022,71.216487 63.004417,71.924823 C 62.944896,71.543049 62.890485,70.792685 62.805895,70.012866 C 62.784414,70.067525 62.699904,70.157726 62.680323,70.208222 C 62.700785,70.124053 62.728464,69.932024 62.751091,69.836238 C 62.661623,69.002309 62.571343,68.22166 62.462671,67.05849 C 62.802003,66.831412 63.072075,66.603778 63.412831,66.376416 z M 60.697415,44.087405 C 60.410651,44.155357 60.122258,44.201285 59.842861,44.285525 C 59.591892,46.366902 59.279938,48.752564 58.959769,51.232372 C 57.812023,50.863929 56.920466,50.543046 56.16289,50.283017 C 56.215269,50.396829 56.39853,50.690838 56.729249,51.172263 C 57.369484,51.6339 57.929994,52.043053 58.78118,52.672996 C 58.725891,53.095673 58.704541,53.429716 58.648519,53.853604 C 58.732908,53.934295 59.693473,54.258285 61.145565,54.724702 C 61.271847,53.746261 61.374362,52.868144 61.48165,51.9915 C 61.415557,51.970726 61.359256,51.958685 61.293786,51.93808 C 61.082667,49.117672 60.852143,46.38529 60.697415,44.087405 z M 56.16289,50.283017 C 55.559771,50.076005 55.005937,49.89186 54.724631,49.77601 C 55.057504,49.985008 55.774203,50.500757 56.533893,51.046693 C 56.321061,50.616703 56.232913,50.382626 56.16289,50.283017 z M 61.908708,62.776843 C 61.862907,62.671819 61.774102,62.53885 61.726953,62.431079 C 61.426945,62.43121 61.192733,62.480488 60.89349,62.481155 C 60.213808,63.839216 59.842826,64.661178 59.730048,64.972091 C 59.765608,64.972062 59.798964,64.924799 59.834527,64.92478 C 60.493698,64.250394 61.168482,63.544235 61.908708,62.776843 z M 61.015268,55.576893 C 59.653424,54.569234 58.782174,53.923087 58.652266,53.889679 C 59.250951,54.721505 59.911737,55.61499 60.607612,56.567274 C 60.702965,56.539509 60.830967,56.526017 60.928537,56.497488 C 60.971698,56.172164 60.972802,55.901447 61.015268,55.576893 z M 60.313128,60.7547 C 60.043677,60.576963 59.836743,60.425368 59.567779,60.248674 C 58.233604,61.036006 57.442942,61.561658 57.242056,61.729921 C 57.24936,61.728341 57.274564,61.763832 57.281877,61.762249 C 58.219878,61.559352 59.170458,61.329651 60.238616,61.09061 C 60.254193,60.982464 60.297277,60.865626 60.313128,60.7547 z M 57.242056,61.729921 C 57.442958,61.559138 57.989047,60.906715 58.905816,59.84338 C 58.075093,59.299646 57.342293,58.812811 56.597617,58.332794 C 56.583476,58.349386 56.579395,58.356073 56.565287,58.372614 C 54.081327,57.416728 51.696221,56.50143 49.651348,55.699389 C 49.589378,56.03929 49.541578,56.389013 49.503706,56.7357 C 51.170659,57.810203 53.019917,58.972879 54.973678,60.251663 C 54.132309,61.22749 53.474954,62.001983 52.921971,62.616047 C 53.010467,62.620657 53.245219,62.621536 53.715613,62.533641 C 54.432308,62.095711 55.122061,61.647446 56.149559,61.041157 C 56.52636,61.288707 56.828353,61.484776 57.20598,61.733666 C 57.208042,61.731949 57.239907,61.731746 57.242056,61.729921 z M 52.921971,62.616047 C 52.534791,63.045991 52.171651,63.426357 51.969448,63.626538 C 52.262512,63.421487 52.919379,63.004552 53.611135,62.580953 C 53.187891,62.599303 53.013248,62.592862 52.921971,62.616047 z M 60.012491,58.561637 C 59.870874,58.246534 59.735955,58.007339 59.594176,57.693482 C 57.988954,57.605526 56.993548,57.57947 56.815044,57.61741 C 57.740114,57.981182 58.718469,58.394882 59.782443,58.804306 C 59.846826,58.728788 59.946666,58.639009 60.012491,58.561637 z M 56.815044,57.61741 C 57.005843,57.611041 57.864392,57.360468 59.262995,56.962135 C 58.846323,56.043715 58.497224,55.199201 58.120019,54.382506 C 58.08254,54.393425 58.016747,54.422709 57.979466,54.433564 C 56.349181,52.202361 54.786636,50.034695 53.466342,48.192872 C 53.238651,48.431786 53.063156,48.695976 52.852093,48.94946 C 53.718323,50.807857 54.675482,52.89687 55.679562,55.109931 C 54.469965,55.454655 53.52665,55.719312 52.737806,55.92587 C 52.794197,55.976645 53.092747,56.122083 53.619962,56.344764 C 54.421462,56.377672 55.194762,56.407681 56.294616,56.468148 C 56.484888,56.889415 56.624775,57.194523 56.815044,57.61741 z M 52.737806,55.92587 C 52.73472,55.924933 52.704412,55.930284 52.70173,55.929615 C 52.13753,56.077154 51.629387,56.196605 51.349622,56.252326 C 51.722639,56.243582 52.567587,56.293006 53.435844,56.327418 C 53.035398,56.085945 52.820775,55.951052 52.737806,55.92587 z M 60.052536,62.459082 C 59.110693,62.462987 58.274214,62.466955 57.428941,62.476251 C 57.426797,62.491149 57.43857,62.533537 57.436431,62.5484 C 54.953584,63.104182 52.629371,63.624111 50.556427,64.064965 C 50.698512,64.401195 50.89255,64.711692 51.058129,65.033852 C 52.938122,65.011702 54.932488,64.99812 57.106453,64.98926 C 56.913485,66.280699 56.732967,67.275527 56.591376,68.105682 C 56.70422,68.018703 56.889498,67.894881 57.228101,67.565543 C 57.597774,66.799229 57.988062,66.023577 58.524603,64.951401 C 58.932906,64.950466 59.244633,64.943882 59.654154,64.943508 C 59.736693,64.640597 59.8494,63.818198 60.052536,62.459082 z M 56.591376,68.105682 C 56.585536,68.110185 56.600275,68.137994 56.595121,68.141757 C 56.508737,68.647123 56.418476,69.087497 56.357984,69.369678 C 56.50309,69.027403 56.80795,68.357383 57.131113,67.685004 C 56.81949,67.911518 56.691839,68.015297 56.591376,68.105682 z"
   id="path4703" /><path
   sodipodi:type="star"
   style="opacity:1;fill:url(#linearGradient5373);fill-opacity:1;stroke:none;stroke-width:1;stroke-linecap:round;stroke-linejoin:round;stroke-miterlimit:4;stroke-dasharray:none;stroke-dashoffset:0;stroke-opacity:1"
   id="path5363"
   sodipodi:sides="6"
   sodipodi:cx="-45.254833"
   sodipodi:cy="37.843887"
   sodipodi:r1="51.655106"
   sodipodi:r2="29.726227"
   sodipodi:arg1="0.78539816"
   sodipodi:arg2="1.3089969"
   inkscape:flatsided="false"
   inkscape:rounded="0"
   inkscape:randomized="0"
   d="M -8.7291577,74.369563 L -37.561118,66.557217 L -58.624158,87.738888 L -66.274449,58.863505 L -95.149834,51.213213 L -73.968164,30.150175 L -81.780509,1.318212 L -52.948548,9.1305574 L -31.885508,-12.051113 L -24.235217,16.82427 L 4.6401673,24.474562 L -16.541503,45.5376 L -8.7291577,74.369563 z"
   transform="matrix(0.5613646,-0.1453438,0.1500417,0.5437878,83.365398,36.937066)" /><path
   style="opacity:1;fill:#000000;fill-opacity:1;stroke:none;stroke-width:1;stroke-linecap:round;stroke-linejoin:round;stroke-miterlimit:4;stroke-dasharray:none;stroke-dashoffset:0;stroke-opacity:1;filter:url(#filter4163)"
   d="M 308.28125,-14.65625 L 293.40625,11.25 L 263.53125,11.125 L 265.28125,14.125 L 293.40625,14.25 L 308.28125,-11.65625 L 323.125,14.25 L 351.25,14.1875 L 353,11.1875 L 323.125,11.25 L 308.28125,-14.65625 z M 277.65625,38.46875 L 263.5,62.78125 L 265.25,62.78125 L 278.53125,39.96875 L 277.65625,38.46875 z M 338.84375,38.5 L 337.96875,40 L 351.21875,62.84375 L 352.96875,62.84375 L 338.84375,38.5 z"
   id="path4118"
   clip-path="url(#clipPath4167)"
   transform="matrix(0.5810705,0,0,0.5628766,-115.47308,42.707366)" /><g
   id="g4300"
   transform="matrix(0.5810705,0,0,0.5628766,-125.68726,42.707366)"><path
     style="fill:#000000;fill-opacity:1;stroke:none;stroke-width:4.50000048;stroke-linecap:round;stroke-linejoin:round;stroke-miterlimit:4;stroke-dashoffset:0;stroke-opacity:1;filter:url(#filter4296)"
     d="M 325.20361,-15.547928 C 324.62397,-15.38595 324.13337,-14.998521 323.84144,-14.472211 L 309.59762,10.295725 L 281.04129,10.197349 C 280.24037,10.199835 279.50113,10.627858 279.10023,11.321235 C 278.69933,12.014612 278.69721,12.86882 279.09465,13.564183 L 293.4272,38.263406 L 279.03842,62.973048 C 278.64462,63.670533 278.65126,64.524771 279.05587,65.216044 C 279.46047,65.907317 280.20203,66.331407 281.00301,66.329589 L 309.57937,66.260876 L 323.74692,91.068895 C 324.14889,91.770808 324.89666,92.202972 325.70552,92.200843 C 326.51439,92.198714 327.25988,91.762621 327.65815,91.058601 L 341.90196,66.290665 L 370.45829,66.389042 C 371.25922,66.386555 371.99846,65.958532 372.39935,65.265156 C 372.80025,64.571779 372.80238,63.717571 372.40493,63.022207 L 358.06432,38.292794 L 372.43098,13.621411 C 372.82625,12.928084 372.8247,12.07726 372.42692,11.385371 C 372.02914,10.693482 371.29463,10.264056 370.49658,10.256801 L 341.92022,10.325514 L 327.72248,-14.474435 C 327.22221,-15.360696 326.18938,-15.800869 325.20361,-15.547928 z M 325.76707,-8.8409692 L 338.6772,13.683027 C 339.07883,14.381194 339.82299,14.811454 340.62843,14.811196 L 366.58993,14.762098 L 353.52841,37.176171 C 353.11739,37.874971 353.11404,38.740845 353.51964,39.442803 L 366.5344,61.874141 L 340.601,61.78634 C 339.79029,61.785043 339.04155,62.219947 338.641,62.924802 L 325.73252,85.42736 L 312.82238,62.903364 C 312.42075,62.205197 311.6766,61.774937 310.87115,61.775195 L 284.90965,61.824293 L 297.97117,39.410219 C 298.3822,38.71142 298.38554,37.845545 297.97994,37.143588 L 284.96518,14.712249 L 310.89858,14.800051 C 311.7093,14.801347 312.45803,14.366444 312.85858,13.661588 L 325.76707,-8.8409692 z"
     id="path4282" /><path
     id="path4173"
     d="M 325.20361,-15.547928 C 324.62397,-15.38595 324.13337,-14.998521 323.84144,-14.472211 L 309.59762,10.295725 L 281.04129,10.197349 C 280.24037,10.199835 279.50113,10.627858 279.10023,11.321235 C 278.69933,12.014612 278.69721,12.86882 279.09465,13.564183 L 293.4272,38.263406 L 279.03842,62.973048 C 278.64462,63.670533 278.65126,64.524771 279.05587,65.216044 C 279.46047,65.907317 280.20203,66.331407 281.00301,66.329589 L 309.57937,66.260876 L 323.74692,91.068895 C 324.14889,91.770808 324.89666,92.202972 325.70552,92.200843 C 326.51439,92.198714 327.25988,91.762621 327.65815,91.058601 L 341.90196,66.290665 L 370.45829,66.389042 C 371.25922,66.386555 371.99846,65.958532 372.39935,65.265156 C 372.80025,64.571779 372.80238,63.717571 372.40493,63.022207 L 358.06432,38.292794 L 372.43098,13.621411 C 372.82625,12.928084 372.8247,12.07726 372.42692,11.385371 C 372.02914,10.693482 371.29463,10.264056 370.49658,10.256801 L 341.92022,10.325514 L 327.72248,-14.474435 C 327.22221,-15.360696 326.18938,-15.800869 325.20361,-15.547928 z M 325.76707,-8.8409692 L 338.6772,13.683027 C 339.07883,14.381194 339.82299,14.811454 340.62843,14.811196 L 366.58993,14.762098 L 353.52841,37.176171 C 353.11739,37.874971 353.11404,38.740845 353.51964,39.442803 L 366.5344,61.874141 L 340.601,61.78634 C 339.79029,61.785043 339.04155,62.219947 338.641,62.924802 L 325.73252,85.42736 L 312.82238,62.903364 C 312.42075,62.205197 311.6766,61.774937 310.87115,61.775195 L 284.90965,61.824293 L 297.97117,39.410219 C 298.3822,38.71142 298.38554,37.845545 297.97994,37.143588 L 284.96518,14.712249 L 310.89858,14.800051 C 311.7093,14.801347 312.45803,14.366444 312.85858,13.661588 L 325.76707,-8.8409692 z"
     style="fill:url(#linearGradient4307);fill-opacity:1;stroke:none;stroke-width:4.50000048;stroke-linecap:round;stroke-linejoin:round;stroke-miterlimit:4;stroke-dashoffset:0;stroke-opacity:1" /><path
     transform="translate(0,-144.63904)"
     clip-path="url(#clipPath4261)"
     style="opacity:0.41089107;fill:none;fill-opacity:1;stroke:#000000;stroke-width:1.20000005;stroke-linecap:round;stroke-linejoin:round;stroke-miterlimit:4;stroke-dasharray:none;stroke-dashoffset:0;stroke-opacity:1;filter:url(#filter4257)"
     d="M 325.20361,128.45207 C 324.62397,128.61405 324.13337,129.00148 323.84144,129.52779 L 309.59762,154.29573 L 281.04129,154.19735 C 280.24037,154.19984 279.50113,154.62786 279.10023,155.32124 C 278.69933,156.01461 278.69721,156.86882 279.09465,157.56418 L 293.4272,182.26341 L 279.03842,206.97305 C 278.64462,207.67053 278.65126,208.52477 279.05587,209.21604 C 279.46047,209.90732 280.20203,210.33141 281.00301,210.32959 L 309.57937,210.26088 L 323.74692,235.0689 C 324.14889,235.77081 324.89666,236.20297 325.70552,236.20084 C 326.51439,236.19872 327.25988,235.76262 327.65815,235.0586 L 341.90196,210.29067 L 370.45829,210.38904 C 371.25922,210.38656 371.99846,209.95853 372.39935,209.26516 C 372.80025,208.57178 372.80238,207.71757 372.40493,207.02221 L 358.06432,182.2928 L 372.43098,157.62141 C 372.82625,156.92809 372.8247,156.07726 372.42692,155.38537 C 372.02914,154.69348 371.29463,154.26406 370.49658,154.2568 L 341.92022,154.32552 L 327.72248,129.52557 C 327.22221,128.63931 326.18938,128.19913 325.20361,128.45207 z M 325.76707,135.15903 L 338.6772,157.68303 C 339.07883,158.38119 339.82299,158.81145 340.62843,158.8112 L 366.58993,158.7621 L 353.52841,181.17617 C 353.11739,181.87497 353.11404,182.74085 353.51964,183.4428 L 366.5344,205.87414 L 340.601,205.78634 C 339.79029,205.78504 339.04155,206.21995 338.641,206.9248 L 325.73252,229.42736 L 312.82238,206.90336 C 312.42075,206.2052 311.6766,205.77494 310.87115,205.7752 L 284.90965,205.82429 L 297.97117,183.41022 C 298.3822,182.71142 298.38554,181.84555 297.97994,181.14359 L 284.96518,158.71225 L 310.89858,158.80005 C 311.7093,158.80135 312.45803,158.36644 312.85858,157.66159 L 325.76707,135.15903 z"
     id="path4237" /><path
     sodipodi:type="star"
     style="opacity:1;fill:none;fill-opacity:1;stroke:url(#radialGradient4309);stroke-width:1.4000001;stroke-linecap:round;stroke-linejoin:round;stroke-miterlimit:4;stroke-dasharray:none;stroke-dashoffset:0;stroke-opacity:1;filter:url(#filter4223)"
     sodipodi:sides="6"
     sodipodi:cx="-45.254833"
     sodipodi:cy="37.843887"
     sodipodi:r1="51.655106"
     sodipodi:r2="29.726227"
     sodipodi:arg1="0.78539816"
     sodipodi:arg2="1.3089969"
     inkscape:flatsided="false"
     inkscape:rounded="0"
     inkscape:randomized="0"
     d="M -8.7291577,74.369563 L -37.561118,66.557217 L -58.624158,87.738888 L -66.274449,58.863505 L -95.149834,51.213213 L -73.968164,30.150175 L -81.780509,1.318212 L -52.948548,9.1305574 L -31.885508,-12.051113 L -24.235217,16.82427 L 4.6401673,24.474562 L -16.541503,45.5376 L -8.7291577,74.369563 z"
     transform="matrix(0.9660871,-0.2582163,0.2582163,0.9660871,359.69336,-10.451451)"
     id="path4305" /></g><path
   style="fill:#000000;fill-opacity:1;fill-rule:evenodd;stroke:none;stroke-width:1px;stroke-linecap:butt;stroke-linejoin:miter;stroke-opacity:1;filter:url(#filter4386)"
   d="M 238.3125,6.1243959 C 194.20517,6.1243959 195.74246,55.063206 194.1839,84.164467 L 198.82194,86.71875 C 200.21671,60.675877 198.84062,16.879272 238.3125,16.879272 C 278.0705,16.879272 276.4083,60.675878 277.80306,86.71875 L 282.4411,84.164467 C 280.88255,55.063207 282.73955,6.1243959 238.3125,6.1243959 z"
   id="path4319"
   sodipodi:nodetypes="cccsccc"
   clip-path="url(#clipPath4390)"
   transform="matrix(1.1357853,0,0,1.1002225,-206.26041,-0.2398329)" /><path
   style="opacity:0.43564356;fill:url(#linearGradient4024);fill-opacity:1;stroke:none;stroke-width:1;stroke-linecap:round;stroke-linejoin:round;stroke-miterlimit:4;stroke-dashoffset:0;stroke-opacity:1;filter:url(#filter4444)"
   d="M 86.628541,29.38022 C 86.628541,37.250218 76.293762,41.563683 63.559839,41.563683 C 50.825915,41.563683 40.491135,37.250218 40.491135,29.38022 C 40.491135,21.510222 50.825915,15.122977 63.559839,15.122977 C 76.293762,15.122977 86.628541,21.510222 86.628541,29.38022 z"
   id="path4015"
   sodipodi:nodetypes="csssc"
   transform="matrix(1.1012759,0,0,0.9999358,-6.4971439,1.2768001)" /><path
   style="fill:url(#radialGradient4746);fill-opacity:1;fill-rule:evenodd;stroke:none;stroke-width:1px;stroke-linecap:butt;stroke-linejoin:miter;stroke-opacity:1"
   d="M 126.61002,106.0004 C 108.83373,108.70562 82.132393,113.54767 65.100146,122.53812 C 64.497476,122.85416 62.852597,122.8887 62.154203,122.50373 C 45.291892,113.62256 19.0375,108.82124 1.2832113,106.10354 L 0.85729175,106.41298 C 18.613795,109.10945 45.409923,113.94475 62.509136,122.9507 C 63.207553,123.33565 64.816915,123.30114 65.419586,122.98508 C 82.516289,113.96061 109.367,109.11232 127.14242,106.41298 L 126.61002,106.0004 z"
   id="path4732" /><path
   id="path4748"
   d="M 126.61002,106.0004 C 108.83373,108.70562 82.132393,113.54767 65.100146,122.53812 C 64.497476,122.85416 62.852597,122.8887 62.154203,122.50373 C 45.291892,113.62256 19.0375,108.82124 1.2832113,106.10354 L 0.85729175,106.41298 C 18.613795,109.10945 45.409923,113.94475 62.509136,122.9507 C 63.207553,123.33565 64.816915,123.30114 65.419586,122.98508 C 82.516289,113.96061 109.367,109.11232 127.14242,106.41298 L 126.61002,106.0004 z"
   style="fill:url(#radialGradient4756);fill-opacity:1;fill-rule:evenodd;stroke:none;stroke-width:1px;stroke-linecap:butt;stroke-linejoin:miter;stroke-opacity:1" /><path
   style="opacity:0.72277228;fill:#000000;fill-opacity:1;stroke:none;stroke-width:1.20000005;stroke-linecap:round;stroke-linejoin:round;stroke-miterlimit:4;stroke-dasharray:none;stroke-dashoffset:0;stroke-opacity:1;filter:url(#filter4975)"
   d="M 64,14.5 C 60.327731,14.5 56.990335,14.995734 54.53125,15.78125 C 54.765071,17.965692 58.920784,19.6875 64,19.6875 C 69.079217,19.6875 73.234932,17.965692 73.46875,15.78125 C 71.009665,14.995734 67.672269,14.5 64,14.5 z"
   id="path4861"
   transform="matrix(0.9725454,0,0,0.9725454,1.7570955,-1.7568697)" /><path
   style="fill:url(#linearGradient4859);fill-opacity:1;fill-rule:evenodd;stroke:none;stroke-width:1px;stroke-linecap:butt;stroke-linejoin:miter;stroke-opacity:1"
   d="M 63.993519,1.1047628 C 57.087101,1.1047628 56.261918,7.4139855 55.991971,12.494492 C 56.550085,14.394579 59.596308,16.049287 63.993519,16.049287 C 68.33395,16.049287 71.873598,14.502778 72.007445,12.572421 C 71.753133,7.4788493 70.985399,1.1047628 63.993519,1.1047628 z"
   id="path4788" /><path
   style="fill:#000000;fill-opacity:0.50267382;fill-rule:evenodd;stroke:none;stroke-width:1px;stroke-linecap:butt;stroke-linejoin:miter;stroke-opacity:1;filter:url(#filter4837)"
   d="M -43.952003,12.78125 C -78.828043,12.78125 -82.995083,45.671418 -84.358253,72.15625 C -83.879263,73.839658 -83.034873,75.48905 -81.858253,77.0625 C -81.901503,76.92833 -81.944923,76.790944 -81.983253,76.65625 C -80.700503,51.73393 -76.770483,20.78125 -43.952003,20.78125 C -10.727403,20.78125 -7.0979627,52.044835 -5.8895027,77.03125 C -5.9263927,77.580499 -5.9961327,78.120783 -6.1395027,78.65625 C -4.5634327,76.753717 -3.6271527,74.70492 -3.4832527,72.5625 C -4.7674727,46.009552 -8.6443827,12.78125 -43.952003,12.78125 z"
   id="path4804"
   clip-path="url(#clipPath4853)"
   transform="matrix(0.1980275,0,0,0.191827,72.686506,-1.3470264)" /><path
   sodipodi:type="arc"
   style="opacity:0.72277228;fill:url(#linearGradient4849);fill-opacity:1;stroke:none;stroke-width:1.20000005;stroke-linecap:round;stroke-linejoin:round;stroke-miterlimit:4;stroke-dasharray:none;stroke-dashoffset:0;stroke-opacity:1"
   id="path4841"
   sodipodi:cx="-39.299328"
   sodipodi:cy="28.916662"
   sodipodi:rx="20.451195"
   sodipodi:ry="12.639534"
   d="M -18.848133,28.916662 A 20.451195,12.639534 0 1 1 -59.750523,28.916662 A 20.451195,12.639534 0 1 1 -18.848133,28.916662 z"
   transform="matrix(0.1980275,0,0,0.191827,71.782056,-1.6183108)" /><path
   transform="matrix(-1.3509071,0,0,1.3086086,151.7174,-14.472268)"
   sodipodi:nodetypes="ccccc"
   id="path5005"
   d="M 97.050403,83.629051 L 107.12667,91.407225 C 93.419927,93.474526 80.898215,97.319374 68.589356,101.4835 C 78.490731,95.611806 78.103298,88.897031 78.400753,83.667207 L 97.050403,83.629051 z"
   style="opacity:0.2871287;fill:url(#linearGradient5014);fill-opacity:1;fill-rule:evenodd;stroke:none;stroke-width:1px;stroke-linecap:butt;stroke-linejoin:miter;stroke-opacity:1;filter:url(#filter5302)" /><path
   style="opacity:0.50495055;fill:url(#linearGradient5102);fill-opacity:1;fill-rule:evenodd;stroke:none;stroke-width:1px;stroke-linecap:butt;stroke-linejoin:miter;stroke-opacity:1;filter:url(#filter5092)"
   d="M 65,15.25 C 105.18802,19.593084 106.91057,57.31284 106.85,88.6 L 105.1,88.85 C 104.4719,57.535891 101.85588,20.622354 62.75,16 L 65,15.25 z"
   id="path5058"
   sodipodi:nodetypes="ccccc" /><path
   style="fill:url(#linearGradient5159);fill-opacity:1;fill-rule:evenodd;stroke:none;stroke-width:1px;stroke-linecap:butt;stroke-linejoin:miter;stroke-opacity:1;filter:url(#filter5278)"
   d="M 56.375,13.75 C 56.35635,14.027979 56.32695,14.321816 56.3125,14.59375 C 56.85213,16.430901 59.77968,18.03125 64.03125,18.03125 C 68.22791,18.03125 71.65184,16.522669 71.78125,14.65625 C 71.76914,14.413763 71.73392,14.153857 71.71875,13.90625 C 71.31136,15.651971 68.03486,17.03125 64.03125,17.03125 C 59.91254,17.03125 57.04238,15.514086 56.375,13.75 z"
   id="path5146"
   transform="matrix(1.0416439,0,0,1.0342568,-2.7226756,-1.9384502)" /></svg>