<?xml version="1.0" encoding="UTF-8" standalone="no"?>
<!-- Generator: Adobe Illustrator 12.0.0, SVG Export Plug-In . SVG Version: 6.00 Build 51448)  -->
<svg
   xmlns:ns="http://ns.adobe.com/SaveForWeb/1.0/"
   xmlns:dc="http://purl.org/dc/elements/1.1/"
   xmlns:cc="http://creativecommons.org/ns#"
   xmlns:rdf="http://www.w3.org/1999/02/22-rdf-syntax-ns#"
   xmlns:svg="http://www.w3.org/2000/svg"
   xmlns="http://www.w3.org/2000/svg"
   xmlns:xlink="http://www.w3.org/1999/xlink"
   xmlns:sodipodi="http://sodipodi.sourceforge.net/DTD/sodipodi-0.dtd"
   xmlns:inkscape="http://www.inkscape.org/namespaces/inkscape"
   version="1.1"
   id="Layer_1"
   width="128"
   height="128"
   viewBox="0 0 128 128"
   overflow="visible"
   enable-background="new 0 0 128 128"
   xml:space="preserve"
   sodipodi:version="0.32"
   inkscape:version="0.46"
   sodipodi:docname="irc-voice.svgz"
   sodipodi:docbase="/Users/david/Desktop/sandbox"
   inkscape:output_extension="org.inkscape.output.svgz.inkscape"
   inkscape:export-filename="/home/pinheiro/pics/oxygen/scalable/actions/irc-voice.png"
   inkscape:export-xdpi="90"
   inkscape:export-ydpi="90"><defs
   id="defs105"><linearGradient
     inkscape:collect="always"
     id="linearGradient5543"><stop
       style="stop-color:#ffffff;stop-opacity:1;"
       offset="0"
       id="stop5545" /><stop
       style="stop-color:#ffffff;stop-opacity:0;"
       offset="1"
       id="stop5547" /></linearGradient><linearGradient
     inkscape:collect="always"
     id="linearGradient5237"><stop
       style="stop-color:#001d88;stop-opacity:1;"
       offset="0"
       id="stop5239" /><stop
       style="stop-color:#001d88;stop-opacity:0;"
       offset="1"
       id="stop5241" /></linearGradient><linearGradient
     inkscape:collect="always"
     id="linearGradient5007"><stop
       style="stop-color:#000000;stop-opacity:0.64356436"
       offset="0"
       id="stop5009" /><stop
       style="stop-color:#000000;stop-opacity:0"
       offset="1"
       id="stop5011" /></linearGradient><linearGradient
     inkscape:collect="always"
     id="linearGradient4921"><stop
       style="stop-color:#000000;stop-opacity:1;"
       offset="0"
       id="stop4923" /><stop
       style="stop-color:#000000;stop-opacity:0"
       offset="1"
       id="stop4925" /></linearGradient><linearGradient
     inkscape:collect="always"
     id="linearGradient4909"><stop
       style="stop-color:#8c8d8d;stop-opacity:1"
       offset="0"
       id="stop4911" /><stop
       style="stop-color:#747776;stop-opacity:1"
       offset="1"
       id="stop4913" /></linearGradient><radialGradient
     gradientUnits="userSpaceOnUse"
     gradientTransform="matrix(0.9974,0.2673,-0.2673,0.9974,-76.963493,-22.170914)"
     r="71.35096"
     cy="45.240723"
     cx="56.019531"
     id="XMLID_40_"><stop
       id="stop240"
       style="stop-color:#BFEBFF"
       offset="0" /><stop
       id="stop242"
       style="stop-color:#9FDFFF"
       offset="0.073717" /><stop
       id="stop244"
       style="stop-color:#78D1FF"
       offset="0.1775176" /><stop
       id="stop246"
       style="stop-color:#5AC6FF"
       offset="0.2805196" /><stop
       id="stop248"
       style="stop-color:#44BEFF"
       offset="0.3811481" /><stop
       id="stop250"
       style="stop-color:#37BAFF"
       offset="0.4783" /><stop
       id="stop252"
       style="stop-color:#33B8FF"
       offset="0.568047" /><stop
       id="stop254"
       style="stop-color:#1690E3"
       offset="0.8019649" /><stop
       id="stop256"
       style="stop-color:#0063b4;stop-opacity:1;"
       offset="1" /></radialGradient><linearGradient
     inkscape:collect="always"
     xlink:href="#XMLID_40_"
     id="linearGradient13725"
     gradientUnits="userSpaceOnUse"
     gradientTransform="matrix(1.0954048,0,0,1.0954048,-826.24689,-1209.4123)"
     x1="510.58234"
     y1="988.39685"
     x2="510.58234"
     y2="1160.5508" /><linearGradient
     id="linearGradient3477"><stop
       style="stop-color:#070062;stop-opacity:1;"
       offset="0"
       id="stop3479" /><stop
       style="stop-color:#001462;stop-opacity:0;"
       offset="1"
       id="stop3481" /></linearGradient><linearGradient
     y2="95.293"
     x2="87.293"
     y1="103"
     x1="95"
     gradientUnits="userSpaceOnUse"
     id="linearGradient3432">
	<stop
   id="stop3434"
   style="stop-color:#000000;stop-opacity:0"
   offset="0" />
	<stop
   id="stop3436"
   style="stop-color:#393B38"
   offset="1" />
</linearGradient><linearGradient
     id="linearGradient3284"><stop
       style="stop-color:#39465c;stop-opacity:1;"
       offset="0"
       id="stop3286" /><stop
       style="stop-color:#000000;stop-opacity:0;"
       offset="1"
       id="stop3288" /></linearGradient><linearGradient
     gradientTransform="matrix(0,1,-1,0,-39.9985,140.0029)"
     y2="-383.9975"
     x2="-23.516129"
     y1="-383.9971"
     x1="-84.002403"
     gradientUnits="userSpaceOnUse"
     id="linearGradient3711"><stop
       id="stop3713"
       style="stop-color:white;stop-opacity:1;"
       offset="0" /><stop
       id="stop3715"
       style="stop-color:white;stop-opacity:0;"
       offset="1" /></linearGradient><linearGradient
     inkscape:collect="always"
     xlink:href="#XMLID_40_"
     id="linearGradient3257"
     x1="27.060225"
     y1="37.353905"
     x2="3.4941344"
     y2="76.490982"
     gradientUnits="userSpaceOnUse"
     gradientTransform="matrix(0.8849411,0,0,0.8849411,-53.998415,33.373297)" /><linearGradient
     inkscape:collect="always"
     xlink:href="#XMLID_12_"
     id="linearGradient3280"
     x1="23.5"
     y1="68.5"
     x2="59.699673"
     y2="58.800327"
     gradientUnits="userSpaceOnUse"
     gradientTransform="matrix(0.8701224,-0.5239375,0.4727213,0.7850655,-33.319135,55.938379)" /><linearGradient
     inkscape:collect="always"
     xlink:href="#linearGradient3284"
     id="linearGradient3290"
     x1="59.128162"
     y1="124.79136"
     x2="68"
     y2="84"
     gradientUnits="userSpaceOnUse"
     gradientTransform="matrix(0.8701224,-0.5239375,0.4727213,0.7850655,-33.319135,55.938379)" /><linearGradient
     inkscape:collect="always"
     xlink:href="#linearGradient3284"
     id="linearGradient3294"
     gradientUnits="userSpaceOnUse"
     x1="48.086063"
     y1="9.6801834"
     x2="60"
     y2="52"
     gradientTransform="matrix(0.8701224,-0.5239375,0.4727213,0.7850655,-33.319135,55.938379)" /><linearGradient
     inkscape:collect="always"
     xlink:href="#XMLID_11_"
     id="linearGradient3411"
     gradientUnits="userSpaceOnUse"
     x1="48.075199"
     y1="45.514256"
     x2="47.942646"
     y2="109.4207"
     gradientTransform="matrix(0.8701224,-0.5239375,0.4727213,0.7850655,-33.319135,55.938379)" /><linearGradient
     inkscape:collect="always"
     xlink:href="#XMLID_40_"
     id="linearGradient3415"
     gradientUnits="userSpaceOnUse"
     x1="16"
     y1="16"
     x2="16"
     y2="96"
     gradientTransform="matrix(1.1172577,0,0,1.1172577,47.419653,16.975323)" /><linearGradient
     inkscape:collect="always"
     xlink:href="#linearGradient3711"
     id="linearGradient3426"
     gradientUnits="userSpaceOnUse"
     x1="18.217064"
     y1="48.318039"
     x2="6.0801239"
     y2="68.474304"
     gradientTransform="matrix(1.1999664,-0.7225507,0.7225507,1.1999664,-49.957965,38.673946)" /><linearGradient
     inkscape:collect="always"
     xlink:href="#linearGradient3432"
     id="linearGradient3430"
     gradientUnits="userSpaceOnUse"
     gradientTransform="matrix(0.8701224,-0.5239375,0.4727213,0.7850655,-33.319135,55.938379)"
     x1="104.85406"
     y1="48.459763"
     x2="116.65754"
     y2="48.459763" /><linearGradient
     inkscape:collect="always"
     xlink:href="#linearGradient3711"
     id="linearGradient3440"
     gradientUnits="userSpaceOnUse"
     gradientTransform="matrix(2.2092081,-1.3302579,1.3302579,2.2092081,-30.930071,-89.612369)"
     x1="18.58544"
     y1="51.400501"
     x2="6.4852982"
     y2="71.495651" /><linearGradient
     inkscape:collect="always"
     xlink:href="#linearGradient3477"
     id="linearGradient3483"
     x1="8"
     y1="88"
     x2="8"
     y2="33.250969"
     gradientUnits="userSpaceOnUse"
     gradientTransform="translate(16,0)" /><filter
     inkscape:collect="always"
     id="filter4889"><feGaussianBlur
       inkscape:collect="always"
       stdDeviation="0.32880764"
       id="feGaussianBlur4891" /></filter><linearGradient
     inkscape:collect="always"
     xlink:href="#linearGradient4909"
     id="linearGradient4915"
     x1="44.636116"
     y1="98.124741"
     x2="68.67775"
     y2="91.230446"
     gradientUnits="userSpaceOnUse"
     gradientTransform="matrix(1.4222055,0,0,1.4222055,-23.368676,-34.565304)" /><linearGradient
     inkscape:collect="always"
     xlink:href="#linearGradient4921"
     id="linearGradient4927"
     x1="70.28125"
     y1="87.296875"
     x2="66.147202"
     y2="94.457253"
     gradientUnits="userSpaceOnUse" /><filter
     inkscape:collect="always"
     id="filter4993"><feGaussianBlur
       inkscape:collect="always"
       stdDeviation="0.15738774"
       id="feGaussianBlur4995" /></filter><linearGradient
     inkscape:collect="always"
     xlink:href="#linearGradient4921"
     id="linearGradient4999"
     gradientUnits="userSpaceOnUse"
     x1="70.28125"
     y1="87.296875"
     x2="66.147202"
     y2="94.457253"
     gradientTransform="translate(-26.5625,7.0625001)" /><linearGradient
     inkscape:collect="always"
     xlink:href="#linearGradient5007"
     id="linearGradient5013"
     x1="107.28632"
     y1="97.886986"
     x2="106.05053"
     y2="93.27494"
     gradientUnits="userSpaceOnUse" /><filter
     inkscape:collect="always"
     id="filter5055"><feGaussianBlur
       inkscape:collect="always"
       stdDeviation="0.49829777"
       id="feGaussianBlur5057" /></filter><clipPath
     clipPathUnits="userSpaceOnUse"
     id="clipPath5072"><path
       sodipodi:nodetypes="ccccccccccccccc"
       id="path5074"
       d="M 122.46967,87.78125 L 118.15153,88.952269 L 119.78572,95.144516 C 120.34418,97.222455 119.11908,99.34332 117.04115,99.90178 L 101.85449,104.00035 C 99.776552,104.55882 97.65569,103.33371 97.097226,101.25577 L 95.463037,95.10012 L 90.925338,96.307733 C 90.956568,96.525127 90.976686,96.749008 91.035121,96.966431 L 93.450348,106.00524 C 94.229473,108.90421 97.211544,110.62677 100.11052,109.84764 L 121.29865,104.13892 C 124.19762,103.3598 125.92018,100.37773 125.14105,97.47875 L 122.68923,88.439948 C 122.6284,88.213594 122.55617,87.99222 122.46967,87.78125 z"
       style="opacity:1;fill:url(#linearGradient5076);fill-opacity:1;stroke:none;stroke-width:1;stroke-linecap:round;stroke-linejoin:round;stroke-miterlimit:4;stroke-dasharray:none;stroke-dashoffset:0;stroke-opacity:1" /></clipPath><linearGradient
     inkscape:collect="always"
     xlink:href="#linearGradient4909"
     id="linearGradient5076"
     gradientUnits="userSpaceOnUse"
     gradientTransform="matrix(1.1710191,0,0,1.1710191,40.35195,-18.232575)"
     x1="44.636116"
     y1="98.124741"
     x2="68.67775"
     y2="91.230446" /><linearGradient
     inkscape:collect="always"
     xlink:href="#linearGradient3711"
     id="linearGradient5113"
     gradientUnits="userSpaceOnUse"
     gradientTransform="matrix(1.1999664,-0.7225507,0.7225507,1.1999664,-49.957965,38.820245)"
     x1="13.196842"
     y1="69.334976"
     x2="20.825748"
     y2="56.665371" /><linearGradient
     inkscape:collect="always"
     xlink:href="#linearGradient3711"
     id="linearGradient5153"
     x1="50.25"
     y1="20.374998"
     x2="88.99929"
     y2="87.49073"
     gradientUnits="userSpaceOnUse" /><filter
     inkscape:collect="always"
     id="filter5227"><feGaussianBlur
       inkscape:collect="always"
       stdDeviation="0.79617247"
       id="feGaussianBlur5229" /></filter><linearGradient
     inkscape:collect="always"
     xlink:href="#linearGradient5237"
     id="linearGradient5243"
     x1="-84.36438"
     y1="62.657232"
     x2="-62.81424"
     y2="26.868113"
     gradientUnits="userSpaceOnUse" /><filter
     inkscape:collect="always"
     id="filter5261"><feGaussianBlur
       inkscape:collect="always"
       stdDeviation="0.436789"
       id="feGaussianBlur5263" /></filter><clipPath
     clipPathUnits="userSpaceOnUse"
     id="clipPath5265"><rect
       ry="4.6271658"
       rx="4.6271658"
       y="42.657234"
       x="-83.86438"
       height="39.999996"
       width="15.999997"
       id="rect5267"
       style="opacity:1;fill:url(#linearGradient5269);fill-opacity:1;stroke:none;stroke-width:1;stroke-linecap:round;stroke-linejoin:round;stroke-miterlimit:4;stroke-dasharray:none;stroke-dashoffset:0;stroke-opacity:1" /></clipPath><linearGradient
     inkscape:collect="always"
     xlink:href="#XMLID_40_"
     id="linearGradient5269"
     gradientUnits="userSpaceOnUse"
     gradientTransform="translate(-91.864379,-5.3427713)"
     x1="27.060225"
     y1="37.353905"
     x2="3.4941344"
     y2="76.490982" /><linearGradient
     inkscape:collect="always"
     xlink:href="#linearGradient3711"
     id="linearGradient5553"
     gradientUnits="userSpaceOnUse"
     gradientTransform="matrix(-1.2316661,0.7111028,0.7111028,1.2316661,60.291878,-56.883705)"
     x1="56.584583"
     y1="112.71148"
     x2="56.501091"
     y2="93.210129" /><linearGradient
     inkscape:collect="always"
     xlink:href="#linearGradient3711"
     id="linearGradient5555"
     gradientUnits="userSpaceOnUse"
     gradientTransform="matrix(-1.2316661,0.7111028,0.7111028,1.2316661,60.291878,-56.883705)"
     x1="52.683788"
     y1="108.91025"
     x2="70.410629"
     y2="92.530334" /><radialGradient
     inkscape:collect="always"
     xlink:href="#linearGradient5543"
     id="radialGradient5559"
     gradientUnits="userSpaceOnUse"
     gradientTransform="matrix(2.382736,-0.6384517,0.2507923,0.9359701,-106.74548,39.854572)"
     cx="57.991199"
     cy="108.29269"
     fx="56.574211"
     fy="110.23809"
     r="15.311081" /><filter
     inkscape:collect="always"
     id="filter5569"><feGaussianBlur
       inkscape:collect="always"
       stdDeviation="0.5580741"
       id="feGaussianBlur5571" /></filter></defs><sodipodi:namedview
   inkscape:window-height="678"
   inkscape:window-width="1022"
   inkscape:pageshadow="2"
   inkscape:pageopacity="0.0"
   guidetolerance="10.0"
   gridtolerance="10.0"
   objecttolerance="10.0"
   borderopacity="1.0"
   bordercolor="#666666"
   pagecolor="#ffffff"
   id="base"
   inkscape:zoom="0.088388344"
   inkscape:cx="-1113.0674"
   inkscape:cy="1392.4783"
   inkscape:window-x="225"
   inkscape:window-y="45"
   inkscape:current-layer="Layer_1"
   showgrid="false"
   showguides="true"
   inkscape:guide-bbox="true"><inkscape:grid
     id="GridFromPre046Settings"
     type="xygrid"
     originx="0px"
     originy="0px"
     spacingx="4px"
     spacingy="4px"
     color="#0000ff"
     empcolor="#0000ff"
     opacity="0.2"
     empopacity="0.4"
     empspacing="2" /></sodipodi:namedview>
<metadata
   id="metadata3">
	<ns:sfw>
		<ns:slices>
			<ns:slice
   y="0"
   x="0"
   height="128"
   width="128"
   sliceID="1316743234" />
		</ns:slices>
		<ns:sliceSourceBounds
   y="0"
   x="0"
   height="128"
   width="128"
   bottomLeftOrigin="true" />
		<ns:optimizationSettings>
			<ns:targetSettings
   targetSettingsID="0"
   fileFormat="PNG24Format">
				<ns:PNG24Format
   transparency="true"
   filtered="false"
   matteColor="#FFFFFF"
   noMatteColor="false"
   interlaced="false">
					</ns:PNG24Format>
			</ns:targetSettings>
			<ns:targetSettings
   targetSettingsID="1696735251"
   fileFormat="PNG24Format">
				<ns:PNG24Format
   transparency="true"
   filtered="false"
   matteColor="#FFFFFF"
   noMatteColor="false"
   interlaced="false">
					</ns:PNG24Format>
			</ns:targetSettings>
		</ns:optimizationSettings>
	</ns:sfw>
<rdf:RDF><cc:Work
     rdf:about=""><dc:format>image/svg+xml</dc:format><dc:type
       rdf:resource="http://purl.org/dc/dcmitype/StillImage" /></cc:Work></rdf:RDF></metadata>

<radialGradient
   id="XMLID_7_"
   cx="102"
   cy="112.3047"
   r="139.5585"
   gradientUnits="userSpaceOnUse">
	<stop
   offset="0"
   style="stop-color:#00537D"
   id="stop16" />
	<stop
   offset="0.0151"
   style="stop-color:#186389"
   id="stop18" />
	<stop
   offset="0.0558"
   style="stop-color:#558CA8"
   id="stop20" />
	<stop
   offset="0.0964"
   style="stop-color:#89AFC3"
   id="stop22" />
	<stop
   offset="0.1357"
   style="stop-color:#B3CCD8"
   id="stop24" />
	<stop
   offset="0.1737"
   style="stop-color:#D4E2E9"
   id="stop26" />
	<stop
   offset="0.2099"
   style="stop-color:#ECF2F5"
   id="stop28" />
	<stop
   offset="0.2435"
   style="stop-color:#FAFCFD"
   id="stop30" />
	<stop
   offset="0.2722"
   style="stop-color:#FFFFFF"
   id="stop32" />
</radialGradient>

<radialGradient
   id="XMLID_8_"
   cx="102"
   cy="112.3047"
   r="139.55859"
   gradientUnits="userSpaceOnUse">
	<stop
   offset="0"
   style="stop-color:#535557"
   id="stop37" />
	
	<stop
   offset="0.11366145"
   style="stop-color:#898A8C"
   id="stop41" />
	
	
	<stop
   offset="0.20296688"
   style="stop-color:#ECECEC"
   id="stop47" />
	<stop
   offset="0.2363"
   style="stop-color:#FAFAFA"
   id="stop49" />
	<stop
   offset="0.2722"
   style="stop-color:#FFFFFF"
   id="stop51" />
	<stop
   offset="0.5313"
   style="stop-color:#FAFAFA"
   id="stop53" />
	<stop
   offset="0.8449"
   style="stop-color:#EBECEC"
   id="stop55" />
	<stop
   offset="1"
   style="stop-color:#E1E2E3"
   id="stop57" />
</radialGradient>

<linearGradient
   id="XMLID_9_"
   gradientUnits="userSpaceOnUse"
   x1="94.3438"
   y1="102.3447"
   x2="86.5356"
   y2="94.5366">
	<stop
   offset="0"
   style="stop-color:#FFFFFF"
   id="stop62" />
	<stop
   offset="1"
   style="stop-color:#555753"
   id="stop64" />
</linearGradient>

<linearGradient
   id="XMLID_10_"
   gradientUnits="userSpaceOnUse"
   x1="95"
   y1="103"
   x2="86.5865"
   y2="94.5865">
	<stop
   offset="0"
   style="stop-color:#FFFFFF"
   id="stop69" />
	<stop
   offset="1"
   style="stop-color:#555753"
   id="stop71" />
</linearGradient>

<linearGradient
   id="XMLID_11_"
   gradientUnits="userSpaceOnUse"
   x1="95"
   y1="103"
   x2="87.293"
   y2="95.293">
	<stop
   offset="0"
   style="stop-color:#ffffff;stop-opacity:0"
   id="stop76" />
	<stop
   offset="1"
   style="stop-color:#595c57;stop-opacity:1;"
   id="stop78" />
</linearGradient>

<linearGradient
   id="XMLID_12_"
   gradientUnits="userSpaceOnUse"
   x1="96"
   y1="104"
   x2="88.0002"
   y2="96.0002">
	<stop
   offset="0"
   style="stop-color:#888A85"
   id="stop83" />
	<stop
   offset="0.0072"
   style="stop-color:#8C8E89"
   id="stop85" />
	<stop
   offset="0.0673"
   style="stop-color:#ABACA9"
   id="stop87" />
	<stop
   offset="0.1347"
   style="stop-color:#C5C6C4"
   id="stop89" />
	<stop
   offset="0.2115"
   style="stop-color:#DBDBDA"
   id="stop91" />
	<stop
   offset="0.3012"
   style="stop-color:#EBEBEB"
   id="stop93" />
	<stop
   offset="0.4122"
   style="stop-color:#F7F7F6"
   id="stop95" />
	<stop
   offset="0.5679"
   style="stop-color:#FDFDFD"
   id="stop97" />
	<stop
   offset="1"
   style="stop-color:#FFFFFF"
   id="stop99" />
</linearGradient>


<path
   style="fill:url(#linearGradient3280);fill-opacity:1;fill-rule:evenodd;stroke:none;stroke-width:1px;stroke-linecap:butt;stroke-linejoin:miter;stroke-opacity:1"
   d="M 75.479886,16.098941 L 12.145308,84.187285 L 27.745107,110.09444 L 117.55208,85.969773 L 75.479886,16.098941 z"
   id="path3269"
   sodipodi:nodetypes="ccccc" /><path
   style="fill:url(#linearGradient3294);fill-opacity:1;fill-rule:evenodd;stroke:none;stroke-width:1px;stroke-linecap:butt;stroke-linejoin:miter;stroke-opacity:1"
   d="M 75.479886,16.098941 L 12.145308,84.187285 L 27.745107,110.09444 L 117.55208,85.969773 L 75.479886,16.098941 z"
   id="path3292"
   sodipodi:nodetypes="ccccc" /><path
   sodipodi:nodetypes="ccccc"
   id="path3409"
   d="M 75.479886,16.098941 L 12.145308,84.187285 L 27.745107,110.09444 L 117.55208,85.969773 L 75.479886,16.098941 z"
   style="fill:url(#linearGradient3411);fill-opacity:1;fill-rule:evenodd;stroke:none;stroke-width:1px;stroke-linecap:butt;stroke-linejoin:miter;stroke-opacity:1" /><rect
   ry="4.4690299"
   rx="4.4690299"
   y="43.789509"
   x="56.357704"
   height="98.318672"
   width="8.9380598"
   id="rect3413"
   style="opacity:1;fill:url(#linearGradient3415);fill-opacity:1;stroke:none;stroke-width:1;stroke-linecap:round;stroke-linejoin:round;stroke-miterlimit:4;stroke-dasharray:none;stroke-dashoffset:0;stroke-opacity:1"
   transform="matrix(0.8566822,-0.5158446,0.5158446,0.8566822,0,0)" /><path
   sodipodi:nodetypes="cccccc"
   id="path3282"
   d="M 75.479886,16.098941 L 12.145308,84.187285 L 15.513889,89.781609 L 27.745107,110.09444 L 117.55208,85.969773 L 75.479886,16.098941 z"
   style="fill:url(#linearGradient3290);fill-opacity:1;fill-rule:evenodd;stroke:none;stroke-width:1px;stroke-linecap:butt;stroke-linejoin:miter;stroke-opacity:1" /><path
   style="opacity:0.3168317;fill:url(#linearGradient3430);fill-opacity:1;fill-rule:evenodd;stroke:none;stroke-width:1px;stroke-linecap:butt;stroke-linejoin:miter;stroke-opacity:1"
   d="M 75.479886,16.098941 L 75.519329,36.730396 L 102.06883,88.395642 L 117.55208,85.969773 L 75.479886,16.098941 z"
   id="path3428"
   sodipodi:nodetypes="ccccc" /><path
   sodipodi:nodetypes="ccccc"
   id="path3438"
   d="M 119.92476,72.803569 L 80.255308,6.7026175 C 79.240391,5.0171006 76.383294,5.1216177 74.697783,6.1365365 L 116.19365,75.050233 L 119.92476,72.803569 z"
   style="opacity:0.51485153;fill:url(#linearGradient3440);fill-opacity:1;stroke:none;stroke-width:1;stroke-linecap:round;stroke-linejoin:round;stroke-miterlimit:4;stroke-dasharray:none;stroke-dashoffset:0;stroke-opacity:1" /><path
   style="opacity:0.33663366;fill:url(#linearGradient4927);fill-opacity:1;fill-rule:evenodd;stroke:none;stroke-width:1px;stroke-linecap:butt;stroke-linejoin:miter;stroke-opacity:1;filter:url(#filter4993)"
   d="M 69.406251,88.9375 L 61.718751,93.34375 L 70.281251,91.0625 L 69.406251,88.9375 z"
   id="path4919"
   transform="matrix(1.2145024,0,0,1.2145024,-13.169224,-12.4218)" /><path
   id="path4997"
   d="M 42.843751,96 L 35.156251,100.40625 L 43.718751,98.125 L 42.843751,96 z"
   style="opacity:0.33663366;fill:url(#linearGradient4999);fill-opacity:1;fill-rule:evenodd;stroke:none;stroke-width:1px;stroke-linecap:butt;stroke-linejoin:miter;stroke-opacity:1;filter:url(#filter4993)"
   transform="matrix(1.12142,0,0,1.12142,-9.896799,-3.0757545)" /><path
   style="opacity:1;fill:url(#linearGradient4915);fill-opacity:1;stroke:none;stroke-width:1;stroke-linecap:round;stroke-linejoin:round;stroke-miterlimit:4;stroke-dasharray:none;stroke-dashoffset:0;stroke-opacity:1"
   d="M 76.363484,94.188734 L 71.119101,95.610941 L 73.103828,103.13144 C 73.782079,105.65511 72.294194,108.23088 69.770534,108.90915 L 51.326307,113.88687 C 48.802643,114.56514 46.226853,113.07723 45.548597,110.55357 L 43.563869,103.07751 L 38.052822,104.54417 C 38.090753,104.80819 38.115186,105.0801 38.186156,105.34415 L 41.119453,116.32182 C 42.065704,119.84262 45.687435,121.93467 49.208248,120.98841 L 74.941278,114.05515 C 78.462091,113.10891 80.554134,109.48718 79.607892,105.96638 L 76.630146,94.988725 C 76.556263,94.713817 76.468538,94.444958 76.363484,94.188734 z"
   id="rect4901"
   sodipodi:nodetypes="ccccccccccccccc" /><path
   sodipodi:nodetypes="ccccccczsc"
   id="path5078"
   d="M 43.537256,103.08345 C 44.226321,105.59265 44.915384,108.10184 45.604444,110.61104 C 46.278892,113.13572 48.856638,114.61155 51.381309,113.93711 L 69.841299,109.02024 C 70.527723,108.83688 71.110888,108.50553 71.62128,108.08023 C 71.171484,109.60041 69.994984,110.84576 68.344968,111.28654 L 49.884978,116.20339 C 47.360307,116.87784 44.781305,115.06681 44.11011,112.83466 C 43.453732,110.65177 42.037567,107.94934 42.405565,106.75532 L 43.537256,103.08345 z"
   style="opacity:0.7425743;fill:url(#linearGradient5555);fill-opacity:1;stroke:none;stroke-width:1;stroke-linecap:round;stroke-linejoin:round;stroke-miterlimit:4;stroke-dasharray:none;stroke-dashoffset:0;stroke-opacity:1" /><path
   style="opacity:1;fill:none;fill-opacity:1;stroke:url(#linearGradient5013);stroke-width:1.39999998;stroke-linecap:round;stroke-linejoin:round;stroke-miterlimit:4;stroke-dasharray:none;stroke-dashoffset:0;stroke-opacity:1;filter:url(#filter5055)"
   d="M 122.46967,87.78125 C 120.40607,87.339293 119.16229,87.990441 118.15153,88.952269 L 119.78572,95.144516 C 120.34418,97.222455 119.11908,99.34332 117.04115,99.90178 L 101.85449,104.00035 C 99.776552,104.55882 97.65569,103.33371 97.097226,101.25577 L 95.463037,95.10012 C 93.585267,94.380961 91.98034,94.499819 90.925338,96.307733 C 90.956568,96.525127 90.976686,96.749008 91.035121,96.966431 L 93.450348,106.00524 C 94.229473,108.90421 97.211544,110.62677 100.11052,109.84764 L 121.29865,104.13892 C 124.19762,103.3598 125.92018,100.37773 125.14105,97.47875 L 122.68923,88.439948 C 122.6284,88.213594 122.55617,87.99222 122.46967,87.78125 z"
   id="path5005"
   sodipodi:nodetypes="ccccccccccccccc"
   clip-path="url(#clipPath5072)"
   transform="matrix(1.2145024,0,0,1.2145024,-72.372004,-12.435217)" /><path
   style="opacity:0.7425743;fill:url(#linearGradient5553);fill-opacity:1;stroke:none;stroke-width:1;stroke-linecap:round;stroke-linejoin:round;stroke-miterlimit:4;stroke-dasharray:none;stroke-dashoffset:0;stroke-opacity:1"
   d="M 45.604444,110.61104 C 46.278892,113.13572 48.856638,114.61155 51.381309,113.93711 L 69.841299,109.02024 C 70.527723,108.83688 71.110888,108.50553 71.62128,108.08023 C 71.171484,109.60041 69.994984,110.84576 68.344968,111.28654 L 49.884978,116.20339 C 47.360307,116.87784 44.781305,115.06681 44.11011,112.83466 C 43.453732,110.65177 42.037567,107.94934 42.405565,106.75532 C 43.627745,102.31783 44.086601,106.62416 45.604444,110.61104 z"
   id="path5082"
   sodipodi:nodetypes="cccccczcc" /><path
   style="fill:url(#linearGradient5153);fill-opacity:1;fill-rule:evenodd;stroke:none;stroke-width:1px;stroke-linecap:butt;stroke-linejoin:miter;stroke-opacity:1;filter:url(#filter5227)"
   d="M 77.250001,20.374999 L 25.75,75.25 C 26.05011,78.288612 62.672632,42.102689 75.500001,33.749999 C 81.040559,30.1422 64.318328,51.979022 64.250001,52.499999 C 64.181674,53.020976 80.903912,43.896905 80.000001,36.499999 C 79.388995,31.499999 78.169906,25.374999 77.250001,20.374999 z"
   id="path5137"
   sodipodi:nodetypes="ccszsc"
   transform="matrix(1.1172577,0,0,1.1172577,-10.750465,-2.4214817)" /><path
   sodipodi:type="inkscape:offset"
   inkscape:radius="0.59308606"
   inkscape:original="M 71.59375 89.625 C 71.979503 92.029647 73.673647 94.11134 73.8125 96.5 C 73.89677 97.949686 73.353837 99.95899 71.875 100.4375 C 65.504294 102.4989 58.77312 105.08735 52.03125 105.96875 C 50.642127 106.15036 49.265714 105.67404 48.40625 104.125 C 47.423057 102.35296 46.582094 100.49416 46.625 98.53125 C 46.272039 97.511799 44.857113 96.925367 44.65625 98.34375 C 45.075664 100.40678 45.919847 103.54847 47 105.875 C 47.685385 107.35124 49.844408 107.85497 51.5 107.5 C 58.408529 106.01878 66.088873 104.13817 73.0625 101.5 C 74.870684 100.81595 75.466339 98.544614 75.21875 96.71875 C 75.063805 95.576117 74.901682 94.400394 74.40625 93.34375 C 73.825039 92.10416 73.623609 90.53429 72.3125 89.8125 C 72.126228 89.706818 71.800465 89.385345 71.59375 89.625 z "
   style="fill:url(#radialGradient5559);fill-opacity:1;fill-rule:evenodd;stroke:none;stroke-width:1px;stroke-linecap:butt;stroke-linejoin:miter;stroke-opacity:1;filter:url(#filter5569)"
   id="path5557"
   d="M 71.75,88.9375 C 71.542005,88.943861 71.301083,89.082088 71.15625,89.25 C 71.038468,89.376087 70.981426,89.547211 71,89.71875 C 71.42029,92.338688 73.094958,94.401674 73.21875,96.53125 C 73.255682,97.166578 73.142144,97.953277 72.875,98.59375 C 72.607856,99.234223 72.215802,99.704056 71.6875,99.875 C 65.294856,101.9435 58.61294,104.50637 51.96875,105.375 C 50.761734,105.5328 49.691658,105.20299 48.9375,103.84375 C 47.970064,102.10011 47.179723,100.31671 47.21875,98.53125 C 47.218481,98.467476 47.207929,98.404164 47.1875,98.34375 C 46.94236,97.635717 46.401834,97.093738 45.71875,96.9375 C 45.377208,96.859381 44.946715,96.907724 44.625,97.15625 C 44.303285,97.404776 44.127066,97.794073 44.0625,98.25 C 44.048938,98.322286 44.048938,98.396464 44.0625,98.46875 C 44.489448,100.56884 45.352422,103.72055 46.46875,106.125 C 46.900757,107.05549 47.776492,107.63628 48.71875,107.9375 C 49.661008,108.23872 50.689302,108.29437 51.625,108.09375 C 58.546043,106.60985 66.260076,104.71866 73.28125,102.0625 C 74.368372,101.65123 75.080523,100.74495 75.46875,99.75 C 75.856977,98.75505 75.949204,97.633137 75.8125,96.625 C 75.657432,95.481461 75.483608,94.258475 74.9375,93.09375 C 74.676569,92.537243 74.499865,91.819242 74.1875,91.125 C 73.875135,90.430758 73.3972,89.723564 72.59375,89.28125 C 72.59604,89.282549 72.447019,89.173732 72.21875,89.0625 C 72.104615,89.006884 71.957995,88.931139 71.75,88.9375 z"
   transform="matrix(1.2145024,0,0,1.2145024,-13.169224,-12.4218)" /><rect
   style="opacity:1;fill:url(#linearGradient3257);fill-opacity:1;stroke:none;stroke-width:1;stroke-linecap:round;stroke-linejoin:round;stroke-miterlimit:4;stroke-dasharray:none;stroke-dashoffset:0;stroke-opacity:1"
   id="rect2479"
   width="14.159056"
   height="35.39764"
   x="-46.918892"
   y="75.850487"
   rx="4.0947695"
   ry="4.0947695"
   transform="matrix(0.8566822,-0.5158446,0.5158446,0.8566822,0,0)" /><path
   style="opacity:1;fill:url(#linearGradient3426);fill-opacity:1;stroke:none;stroke-width:1;stroke-linecap:round;stroke-linejoin:round;stroke-miterlimit:4;stroke-dasharray:none;stroke-dashoffset:0;stroke-opacity:1"
   d="M 3.1213767,88.265137 C 1.5455099,89.174965 1.1868136,90.930517 2.0934148,92.500797 L 6.6098261,100.61264 C 11.712575,101.73897 15.379459,102.39354 21.138613,100.93818 L 12.112084,86.335301 C 11.293173,84.916907 9.9055923,84.403367 8.2479369,85.360416 L 3.1213767,88.265137 z"
   id="rect3265"
   sodipodi:nodetypes="ccccccc" /><path
   style="opacity:1;fill:url(#linearGradient3483);fill-opacity:1;stroke:none;stroke-width:1;stroke-linecap:round;stroke-linejoin:round;stroke-miterlimit:4;stroke-dasharray:none;stroke-dashoffset:0;stroke-opacity:1;filter:url(#filter4889)"
   d="M 17.899414,40.90625 C 16.750551,41.746611 15.993164,43.086295 15.993164,44.625 L 15.993164,75.375 C 15.993164,77.93845 18.054713,80 20.618164,80 L 27.368164,80 C 28.906869,80 30.246553,79.242614 31.086914,78.09375 C 30.321795,78.653413 29.39291,79 28.368164,79 L 21.618164,79 C 19.054713,79 16.993164,76.93845 16.993164,74.375 L 16.993164,43.625 C 16.993164,42.600254 17.339751,41.671369 17.899414,40.90625 z"
   id="rect3466"
   transform="matrix(0.7581131,-0.4564921,0.4564921,0.7581131,-31.457016,66.161948)" /><path
   style="opacity:1;fill:url(#linearGradient5113);fill-opacity:1;stroke:none;stroke-width:1;stroke-linecap:round;stroke-linejoin:round;stroke-miterlimit:4;stroke-dasharray:none;stroke-dashoffset:0;stroke-opacity:1"
   d="M 1.583558,91.787276 L 6.6029473,100.77753 C 11.705697,101.90386 15.374254,102.55808 21.133418,101.10272 L 20.95833,100.79632 C 15.368426,102.15688 11.870226,101.43481 6.9093504,100.33981 L 1.583558,91.787276 z"
   id="path5104"
   sodipodi:nodetypes="cccccc" /><rect
   style="opacity:1;fill:none;fill-opacity:1;stroke:url(#linearGradient5243);stroke-width:1;stroke-linecap:round;stroke-linejoin:round;stroke-miterlimit:4;stroke-dasharray:none;stroke-dashoffset:0;stroke-opacity:0.71122993;filter:url(#filter5261)"
   id="rect5235"
   width="15.999997"
   height="39.999996"
   x="-83.86438"
   y="42.657234"
   rx="4.6271658"
   ry="4.6271658"
   transform="matrix(0.7581132,-0.4564921,0.4564921,0.7581132,43.032648,18.560164)"
   clip-path="url(#clipPath5265)" /></svg>