<?xml version="1.0" encoding="UTF-8" standalone="no"?>
<!-- Created with Inkscape (http://www.inkscape.org/) -->

<svg
   xmlns:dc="http://purl.org/dc/elements/1.1/"
   xmlns:cc="http://creativecommons.org/ns#"
   xmlns:rdf="http://www.w3.org/1999/02/22-rdf-syntax-ns#"
   xmlns:svg="http://www.w3.org/2000/svg"
   xmlns="http://www.w3.org/2000/svg"
   xmlns:xlink="http://www.w3.org/1999/xlink"
   xmlns:sodipodi="http://sodipodi.sourceforge.net/DTD/sodipodi-0.dtd"
   xmlns:inkscape="http://www.inkscape.org/namespaces/inkscape"
   width="128"
   height="128"
   id="svg2"
   sodipodi:version="0.32"
   inkscape:version="0.46+devel"
   version="1.0"
   sodipodi:docname="korgac.svgz"
   inkscape:output_extension="org.inkscape.output.svgz.inkscape"
   inkscape:export-filename="/home/pinheiro/pics/oxygen-icons/scalable/apps/small/16x16/korgac.png"
   inkscape:export-xdpi="45"
   inkscape:export-ydpi="45">
  <defs
     id="defs4">
    <linearGradient
       id="linearGradient4888">
      <stop
         style="stop-color:#262626;stop-opacity:1"
         offset="0"
         id="stop4890" />
      <stop
         style="stop-color:#9a9a9a;stop-opacity:1"
         offset="1"
         id="stop4892" />
    </linearGradient>
    <linearGradient
       id="linearGradient3319"
       inkscape:collect="always">
      <stop
         id="stop3321"
         offset="0"
         style="stop-color:#323232;stop-opacity:1;" />
      <stop
         id="stop3323"
         offset="1"
         style="stop-color:#888888;stop-opacity:1" />
    </linearGradient>
    <linearGradient
       inkscape:collect="always"
       id="linearGradient3560">
      <stop
         style="stop-color:#ffffff;stop-opacity:1;"
         offset="0"
         id="stop3562" />
      <stop
         style="stop-color:#ffffff;stop-opacity:0;"
         offset="1"
         id="stop3564" />
    </linearGradient>
    <linearGradient
       id="linearGradient3533">
      <stop
         style="stop-color:#72d13d;stop-opacity:1"
         offset="0"
         id="stop3535" />
      <stop
         style="stop-color:#007a00;stop-opacity:1;"
         offset="1"
         id="stop3537" />
    </linearGradient>
    <linearGradient
       inkscape:collect="always"
       id="linearGradient3358">
      <stop
         style="stop-color:#eeeeee;stop-opacity:1;"
         offset="0"
         id="stop3360" />
      <stop
         style="stop-color:#ffffff;stop-opacity:1"
         offset="1"
         id="stop3362" />
    </linearGradient>
    <linearGradient
       inkscape:collect="always"
       xlink:href="#linearGradient3358"
       id="linearGradient3452"
       x1="106.68881"
       y1="99.584045"
       x2="65.884895"
       y2="36.437515"
       gradientUnits="userSpaceOnUse"
       gradientTransform="matrix(1.0902284,0,0,0.58145528,-10.175465,48.445835)" />
    <radialGradient
       inkscape:collect="always"
       xlink:href="#linearGradient3533"
       id="radialGradient3531"
       cx="64"
       cy="-14.787872"
       fx="64"
       fy="-14.787872"
       r="48.25"
       gradientTransform="matrix(1.8618587,0,0,0.36183895,-59.559815,31.701363)"
       gradientUnits="userSpaceOnUse" />
    <radialGradient
       inkscape:collect="always"
       xlink:href="#linearGradient3560"
       id="radialGradient3570"
       gradientUnits="userSpaceOnUse"
       gradientTransform="matrix(0.81210487,0,0,0.75906439,-1.7267485,3.7188674)"
       cx="34.87669"
       cy="13.849469"
       fx="30.739819"
       fy="6.6865129"
       r="12" />
    <linearGradient
       inkscape:collect="always"
       xlink:href="#linearGradient3319"
       id="linearGradient3630"
       x1="107.20866"
       y1="42.472649"
       x2="107.20866"
       y2="19.986471"
       gradientUnits="userSpaceOnUse"
       gradientTransform="matrix(0.72681905,0,0,0.90852363,-45.062795,5.27279)" />
    <radialGradient
       r="31.190229"
       fy="65.938202"
       fx="-166.53223"
       cy="65.938202"
       cx="-166.53223"
       gradientTransform="matrix(1,0,0,0.6578174,0,22.562908)"
       gradientUnits="userSpaceOnUse"
       id="radialGradient4912"
       xlink:href="#linearGradient5990"
       inkscape:collect="always" />
    <filter
       id="filter4900"
       inkscape:collect="always">
      <feGaussianBlur
         id="feGaussianBlur4902"
         stdDeviation="0.29348363"
         inkscape:collect="always" />
    </filter>
    <filter
       id="filter4862"
       inkscape:collect="always">
      <feGaussianBlur
         id="feGaussianBlur4864"
         stdDeviation="0.71419782"
         inkscape:collect="always" />
    </filter>
    <radialGradient
       r="45.65625"
       fy="2.569855"
       fx="-267.31253"
       cy="2.569855"
       cx="-267.31253"
       gradientTransform="matrix(0.80013505,0,0,0.81108834,-12.96929,-1.8208978)"
       gradientUnits="userSpaceOnUse"
       id="radialGradient4808"
       xlink:href="#linearGradient4775"
       inkscape:collect="always" />
    <linearGradient
       id="linearGradient6138"
       gradientUnits="userSpaceOnUse"
       x1="-84.002403"
       y1="-383.9971"
       x2="-12.0029"
       y2="-383.9971"
       gradientTransform="matrix(0,1,-1,0,-39.9985,140.0029)">
      <stop
         offset="0"
         style="stop-color:#0081ec;stop-opacity:1;"
         id="stop6140" />
      <stop
         offset="1"
         style="stop-color:#004c98;stop-opacity:1;"
         id="stop6142" />
    </linearGradient>
    <linearGradient
       inkscape:collect="always"
       id="linearGradient5990">
      <stop
         style="stop-color:#ffffff;stop-opacity:1;"
         offset="0"
         id="stop5992" />
      <stop
         style="stop-color:#ffffff;stop-opacity:0;"
         offset="1"
         id="stop5994" />
    </linearGradient>
    <linearGradient
       id="linearGradient5960"
       gradientUnits="userSpaceOnUse"
       x1="-84.002403"
       y1="-383.9971"
       x2="-12.0029"
       y2="-383.9971"
       gradientTransform="matrix(0,1,-1,0,-39.9985,140.0029)">
      <stop
         offset="0"
         style="stop-color:#0081ec;stop-opacity:1;"
         id="stop5962" />
      <stop
         offset="1"
         style="stop-color:#003871;stop-opacity:1;"
         id="stop5964" />
    </linearGradient>
    <linearGradient
       id="linearGradient5919">
      <stop
         style="stop-color:#ffffff;stop-opacity:1;"
         offset="0"
         id="stop5921" />
      <stop
         id="stop6238"
         offset="0.5"
         style="stop-color:#78c9ff;stop-opacity:0.49803922;" />
      <stop
         style="stop-color:#ffffff;stop-opacity:0;"
         offset="1"
         id="stop5923" />
    </linearGradient>
    <filter
       inkscape:collect="always"
       id="filter5956">
      <feGaussianBlur
         inkscape:collect="always"
         stdDeviation="0.55418773"
         id="feGaussianBlur5958" />
    </filter>
    <filter
       inkscape:collect="always"
       id="filter6074">
      <feGaussianBlur
         inkscape:collect="always"
         stdDeviation="1.9142018"
         id="feGaussianBlur6076" />
    </filter>
    <clipPath
       clipPathUnits="userSpaceOnUse"
       id="clipPath6080">
      <path
         d="m -135.842,93.331604 a 30.690229,30.690229 0 1 1 -61.38046,0 30.690229,30.690229 0 1 1 61.38046,0 z"
         sodipodi:ry="30.690229"
         sodipodi:rx="30.690229"
         sodipodi:cy="93.331604"
         sodipodi:cx="-166.53223"
         id="path6082"
         style="fill:url(#radialGradient6084);fill-opacity:1;stroke:none;filter:url(#filter6074)"
         sodipodi:type="arc" />
    </clipPath>
    <radialGradient
       inkscape:collect="always"
       xlink:href="#linearGradient5990"
       id="radialGradient6084"
       gradientUnits="userSpaceOnUse"
       gradientTransform="matrix(1,0,0,0.6578174,0,22.562908)"
       cx="-166.53223"
       cy="65.938202"
       fx="-166.53223"
       fy="65.938202"
       r="31.190229" />
    <linearGradient
       id="linearGradient4775">
      <stop
         id="stop4777"
         offset="0"
         style="stop-color:#ffffff;stop-opacity:0.97647059;" />
      <stop
         id="stop4779"
         offset="1"
         style="stop-color:#d4d4d4;stop-opacity:1;" />
    </linearGradient>
    <linearGradient
       id="linearGradient4880"
       inkscape:collect="always">
      <stop
         id="stop4882"
         offset="0"
         style="stop-color:#ffffff;stop-opacity:1;" />
      <stop
         id="stop4884"
         offset="1"
         style="stop-color:#ffffff;stop-opacity:0;" />
    </linearGradient>
    <radialGradient
       inkscape:collect="always"
       xlink:href="#linearGradient5990"
       id="radialGradient3941"
       gradientUnits="userSpaceOnUse"
       gradientTransform="matrix(1,0,0,0.6578174,0,22.562908)"
       cx="-166.53223"
       cy="65.938202"
       fx="-166.53223"
       fy="65.938202"
       r="31.190229" />
    <linearGradient
       inkscape:collect="always"
       xlink:href="#linearGradient3319"
       id="linearGradient3970"
       gradientUnits="userSpaceOnUse"
       gradientTransform="matrix(0.72681905,0,0,0.90852363,26.937205,5.27279)"
       x1="107.20866"
       y1="42.472649"
       x2="107.20866"
       y2="19.986471" />
    <radialGradient
       inkscape:collect="always"
       xlink:href="#linearGradient3560"
       id="radialGradient3972"
       gradientUnits="userSpaceOnUse"
       gradientTransform="matrix(0.81210487,0,0,0.75906439,70.273252,3.7188674)"
       cx="34.87669"
       cy="13.849469"
       fx="30.739819"
       fy="6.6865129"
       r="12" />
    <radialGradient
       inkscape:collect="always"
       xlink:href="#linearGradient5990"
       id="radialGradient4772"
       gradientUnits="userSpaceOnUse"
       gradientTransform="matrix(1,0,0,0.6578174,0,22.562908)"
       cx="-166.53223"
       cy="65.938202"
       fx="-166.53223"
       fy="65.938202"
       r="31.190229" />
    <radialGradient
       inkscape:collect="always"
       xlink:href="#linearGradient5960"
       id="radialGradient4820"
       gradientUnits="userSpaceOnUse"
       cx="-166.53223"
       cy="84.275475"
       fx="-166.53223"
       fy="84.275475"
       r="31.190229" />
    <radialGradient
       inkscape:collect="always"
       xlink:href="#linearGradient5990"
       id="radialGradient4822"
       gradientUnits="userSpaceOnUse"
       gradientTransform="matrix(1,0,0,0.6578174,0,22.562908)"
       cx="-166.53223"
       cy="65.938202"
       fx="-166.53223"
       fy="65.938202"
       r="31.190229" />
    <radialGradient
       inkscape:collect="always"
       xlink:href="#linearGradient6138"
       id="radialGradient4824"
       gradientUnits="userSpaceOnUse"
       cx="-166.53223"
       cy="116.62209"
       fx="-166.94461"
       fy="121.98301"
       r="31.190229" />
    <linearGradient
       inkscape:collect="always"
       xlink:href="#linearGradient5919"
       id="linearGradient4826"
       gradientUnits="userSpaceOnUse"
       gradientTransform="matrix(1.3372349,0,0,1.3372349,315.3474,-39.437777)"
       x1="-160.82661"
       y1="63.869049"
       x2="-160.82661"
       y2="107.40737" />
    <radialGradient
       inkscape:collect="always"
       xlink:href="#linearGradient4775"
       id="radialGradient4828"
       gradientUnits="userSpaceOnUse"
       gradientTransform="matrix(1.2221715,0,0,1.1944844,414.95582,102.47258)"
       cx="-268.16937"
       cy="1.8202944"
       fx="-268.16937"
       fy="1.8202944"
       r="45.65625" />
    <linearGradient
       inkscape:collect="always"
       xlink:href="#linearGradient5990"
       id="linearGradient4830"
       gradientUnits="userSpaceOnUse"
       gradientTransform="matrix(1.2641047,0,0,1.2641047,307.94857,-44.596096)"
       x1="-103.52181"
       y1="183.38284"
       x2="-196.51477"
       y2="91.532112" />
    <linearGradient
       inkscape:collect="always"
       xlink:href="#linearGradient5919"
       id="linearGradient4832"
       gradientUnits="userSpaceOnUse"
       gradientTransform="matrix(1.2641047,0,0,1.2641047,308.43073,-39.909441)"
       x1="-178.26802"
       y1="66.060356"
       x2="-178.26802"
       y2="107.8426" />
    <linearGradient
       inkscape:collect="always"
       xlink:href="#linearGradient5919"
       id="linearGradient4834"
       gradientUnits="userSpaceOnUse"
       gradientTransform="matrix(1.2641047,0,0,1.2641047,308.43073,-39.909441)"
       x1="-176.82246"
       y1="5.9640594"
       x2="-176.82246"
       y2="109.09552" />
    <linearGradient
       inkscape:collect="always"
       xlink:href="#linearGradient4880"
       id="linearGradient4836"
       gradientUnits="userSpaceOnUse"
       x1="-48.92366"
       y1="71.783142"
       x2="-21.07991"
       y2="103.61061" />
    <linearGradient
       inkscape:collect="always"
       xlink:href="#linearGradient4888"
       id="linearGradient4896"
       x1="49.13287"
       y1="109.53396"
       x2="49.13287"
       y2="7.7680397"
       gradientUnits="userSpaceOnUse" />
  </defs>
  <sodipodi:namedview
     id="base"
     pagecolor="#ffffff"
     bordercolor="#666666"
     borderopacity="1.0"
     gridtolerance="10000"
     guidetolerance="5"
     objecttolerance="2"
     inkscape:pageopacity="0.0"
     inkscape:pageshadow="2"
     inkscape:zoom="2.5592444"
     inkscape:cx="185.3793"
     inkscape:cy="26.304786"
     inkscape:document-units="px"
     inkscape:current-layer="svg2"
     width="88px"
     height="88px"
     showgrid="true"
     inkscape:window-width="1298"
     inkscape:window-height="888"
     inkscape:window-x="612"
     inkscape:window-y="0"
     showborder="true"
     inkscape:grid-bbox="true"
     inkscape:grid-points="true">
    <inkscape:grid
       id="GridFromPre046Settings"
       type="xygrid"
       originx="0px"
       originy="0px"
       spacingx="8px"
       spacingy="8px"
       color="#0000ff"
       empcolor="#0000ff"
       opacity="0.2"
       empopacity="0.4"
       empspacing="4"
       visible="true"
       enabled="true" />
  </sodipodi:namedview>
  <metadata
     id="metadata7">
    <rdf:RDF>
      <cc:Work
         rdf:about="">
        <dc:format>image/svg+xml</dc:format>
        <dc:type
           rdf:resource="http://purl.org/dc/dcmitype/StillImage" />
        <dc:title></dc:title>
      </cc:Work>
    </rdf:RDF>
  </metadata>
  <rect
     style="fill:url(#linearGradient4896);fill-opacity:1;stroke:none"
     id="rect4882"
     width="128"
     height="96"
     x="0"
     y="16"
     rx="8"
     ry="8" />
  <g
     inkscape:label="Layer 1"
     inkscape:groupmode="layer"
     id="layer1"
     transform="translate(1,-4)" />
  <path
     style="fill:url(#radialGradient3531);fill-opacity:1;stroke:none"
     d="m 8,24 112,0 0,24 L 8,48 8,24 z"
     id="rect3525"
     sodipodi:nodetypes="ccccc" />
  <path
     style="fill:url(#linearGradient3452);fill-opacity:1;stroke:none"
     d="m 8,48 112,0 0,56 -112,0 0,-56 z"
     id="rect3432"
     sodipodi:nodetypes="ccccc" />
  <rect
     style="opacity:0.5;fill:none;stroke:#ffffff;stroke-width:5.81455135;stroke-linecap:square;stroke-linejoin:round;stroke-miterlimit:4;stroke-opacity:1;stroke-dasharray:none"
     id="rect3554"
     width="11.629103"
     height="24.046618"
     x="21.804562"
     y="17.099049"
     rx="5.8145514"
     ry="5.8145509" />
  <rect
     ry="4.1106844"
     rx="4.1106844"
     y="5.1671329"
     x="20.874077"
     height="30.977293"
     width="14.447216"
     id="rect3556"
     style="fill:#dddddd;fill-opacity:1;stroke:url(#linearGradient3630);stroke-width:5.81455135;stroke-linecap:square;stroke-linejoin:round;stroke-miterlimit:4;stroke-opacity:1;stroke-dasharray:none" />
  <rect
     style="fill:url(#radialGradient3570);fill-opacity:1;stroke:none"
     id="rect3568"
     width="24"
     height="32"
     x="16"
     y="0"
     rx="5.2577419"
     ry="11.657174" />
  <rect
     y="56"
     x="16"
     height="8"
     width="8"
     id="rect3590"
     style="fill:#b1b8ab;fill-opacity:1;stroke:none" />
  <rect
     style="fill:#b1b8ab;fill-opacity:1;stroke:none"
     id="rect3269"
     width="8"
     height="8"
     x="16"
     y="72" />
  <rect
     style="fill:#b1b8ab;fill-opacity:1;stroke:none"
     id="rect3273"
     width="8"
     height="8"
     x="16"
     y="88" />
  <g
     inkscape:label="Layer 1"
     id="layer1-4"
     transform="translate(-574.32555,-24.267452)" />
  <rect
     y="56"
     x="48"
     height="8"
     width="8"
     id="rect3980"
     style="fill:#b1b8ab;fill-opacity:1;stroke:none" />
  <rect
     ry="5.8145509"
     rx="5.8145514"
     y="17.099049"
     x="93.804565"
     height="24.046618"
     width="11.629103"
     id="rect3964"
     style="opacity:0.5;fill:none;stroke:#ffffff;stroke-width:5.81455135;stroke-linecap:square;stroke-linejoin:round;stroke-miterlimit:4;stroke-opacity:1;stroke-dasharray:none" />
  <rect
     style="fill:#dddddd;fill-opacity:1;stroke:url(#linearGradient3970);stroke-width:5.81455135;stroke-linecap:square;stroke-linejoin:round;stroke-miterlimit:4;stroke-opacity:1;stroke-dasharray:none"
     id="rect3966"
     width="14.447216"
     height="30.077436"
     x="92.874077"
     y="5.1671329"
     rx="4.1106844"
     ry="4.1106844" />
  <rect
     ry="11.657174"
     rx="5.2577419"
     y="0"
     x="88"
     height="32"
     width="24"
     id="rect3968"
     style="fill:url(#radialGradient3972);fill-opacity:1;stroke:none" />
  <rect
     style="fill:#b1b8ab;fill-opacity:1;stroke:none"
     id="rect3974"
     width="8"
     height="8"
     x="32"
     y="56" />
  <rect
     y="72"
     x="32"
     height="8"
     width="8"
     id="rect3976"
     style="fill:#b1b8ab;fill-opacity:1;stroke:none" />
  <rect
     y="88"
     x="32"
     height="8"
     width="8"
     id="rect3978"
     style="fill:#b1b8ab;fill-opacity:1;stroke:none" />
  <rect
     style="fill:#b1b8ab;fill-opacity:1;stroke:none"
     id="rect3982"
     width="8"
     height="8"
     x="48"
     y="72" />
  <rect
     style="fill:#b1b8ab;fill-opacity:1;stroke:none"
     id="rect3984"
     width="8"
     height="8"
     x="48"
     y="88" />
  <g
     id="g4808"
     transform="matrix(1.0970349,0,0,1.0970349,-12.420473,-12.43068)">
    <path
       sodipodi:type="arc"
       style="fill:url(#radialGradient4820);fill-opacity:1;stroke:none"
       id="path5515"
       sodipodi:cx="-166.53223"
       sodipodi:cy="93.331604"
       sodipodi:rx="30.690229"
       sodipodi:ry="30.690229"
       d="m -135.842,93.331604 c 0,16.949746 -13.74048,30.690226 -30.69023,30.690226 -16.94974,0 -30.69023,-13.74048 -30.69023,-30.690226 0,-16.949746 13.74049,-30.690229 30.69023,-30.690229 16.94975,0 30.69023,13.740483 30.69023,30.690229 z"
       transform="matrix(-1.2907317,0,0,1.2907317,-126.56127,-31.973719)" />
    <path
       sodipodi:type="arc"
       style="fill:url(#radialGradient4822);fill-opacity:1;stroke:none;filter:url(#filter6074)"
       id="path6078"
       sodipodi:cx="-166.53223"
       sodipodi:cy="93.331604"
       sodipodi:rx="30.690229"
       sodipodi:ry="30.690229"
       d="m -135.842,93.331604 c 0,16.949746 -13.74048,30.690226 -30.69023,30.690226 -16.94974,0 -30.69023,-13.74048 -30.69023,-30.690226 0,-16.949746 13.74049,-30.690229 30.69023,-30.690229 16.94975,0 30.69023,13.740483 30.69023,30.690229 z"
       transform="matrix(-1.2907317,0,0,1.2907317,-126.56127,-31.973719)"
       clip-path="url(#clipPath6080)" />
    <path
       transform="matrix(-1.1975637,0,0,1.1975637,-111.0458,-23.446399)"
       d="m -135.842,93.331604 c 0,16.949746 -13.74048,30.690226 -30.69023,30.690226 -16.94974,0 -30.69023,-13.74048 -30.69023,-30.690226 0,-16.949746 13.74049,-30.690229 30.69023,-30.690229 16.94975,0 30.69023,13.740483 30.69023,30.690229 z"
       sodipodi:ry="30.690229"
       sodipodi:rx="30.690229"
       sodipodi:cy="93.331604"
       sodipodi:cx="-166.53223"
       id="path5906"
       style="fill:url(#radialGradient4824);fill-opacity:1;stroke:none"
       sodipodi:type="arc" />
    <path
       style="opacity:0.8921933;fill:url(#linearGradient4826);fill-opacity:1;stroke:none"
       d="m 88.383498,51.58378 c -20.287946,0 -36.738055,16.450111 -36.738055,36.738048 0,1.888722 0.119809,3.7577 0.395035,5.569959 0.0022,0.01265 -0.0022,0.02678 0,0.03951 7.724676,1.235533 15.950794,1.85665 24.492025,1.85665 18.247569,0 35.091057,-3.049207 48.589017,-8.177176 -0.3795,-19.960075 -16.68773,-36.026985 -36.738022,-36.026988 z"
       id="path5910" />
    <path
       style="fill:#007fea;fill-opacity:1;stroke:none;filter:url(#filter5956)"
       d="m -134.09375,98.625 c -0.003,0.166656 -0.0313,0.332675 -0.0313,0.5 0,16.04925 13.0445,29.0625 29.09375,29.0625 16.049249,0 29.062503,-13.01325 29.0625,-29.0625 0,-0.167107 0.0028,-0.33356 0,-0.5 -0.267346,15.81875 -13.180358,28.5625 -29.0625,28.5625 -15.88193,0 -28.79481,-12.74404 -29.0625,-28.5625 z"
       transform="matrix(-1.2641047,0,0,1.2641047,-44.406963,-36.596038)"
       id="path5927" />
    <path
       sodipodi:nodetypes="ccscccscccccccccccc"
       id="path4741"
       d="m 84.2457,62.377851 c 0.315972,2.401058 0.463914,5.247088 0,7.292385 -9.832802,1.51546 -13.111755,4.708382 -14.277344,13.012223 -1.280748,9.124342 -3.053299,17.948641 -7.649408,21.137171 -4.555388,4.46627 9.553129,2.28574 25.589512,2.28574 16.03638,0 29.99622,2.90146 26.28076,-3.10613 -4.59607,-3.188535 -6.36864,-11.192439 -7.6494,-20.316781 -1.1511,-8.200658 -5.42713,-11.334194 -15.001736,-13.012223 0.07314,-2.416676 -0.192742,-4.882552 0,-7.292385 l -7.292384,0 z m 3.926355,44.248259 c -1.087288,0 -2.15338,0.0118 -3.205462,0.035 -0.797456,0.74103 -1.293115,1.78034 -1.293115,2.93252 0.620928,5.39411 7.594497,5.11857 8.450778,0 0,-1.16124 -0.502824,-2.208 -1.311321,-2.95007 -0.867487,-0.0156 -1.750259,-0.0177 -2.64088,-0.0177 l 0,2e-4 0,1e-5 0,4e-5 z"
       style="fill:url(#radialGradient4828);fill-opacity:1;stroke-width:1px" />
    <path
       style="fill:url(#linearGradient4830);fill-opacity:1;stroke:none"
       d="m 102.12821,54.242254 c 12.18832,5.809965 22.21034,18.711241 22.48286,33.045079 -13.49797,5.127978 -32.587863,7.9539 -50.83542,7.953911 -7.106197,0.150628 -13.986424,-0.09562 -21.777103,-1.3377 0.0022,0.01265 -0.0022,0.02676 0,0.0395 7.724655,1.235525 15.950808,1.856644 24.492026,1.856644 18.247568,0 35.091077,-3.04919 48.589027,-8.177169 -0.28727,-15.10949 -9.69518,-28.013208 -22.95139,-33.380267 z"
       id="path5974"
       sodipodi:nodetypes="cccccscc" />
    <path
       id="path6088"
       d="m 88.361429,51.609887 c -20.287923,0 -36.738042,16.450118 -36.738042,36.738058 0,0.186062 -0.0022,0.36739 0,0.55304 0.379157,-19.959715 16.687756,-36.532636 36.738042,-36.532623 19.623881,0 35.669431,15.900382 36.698551,35.26852 0.0113,-0.0042 0.028,0.0042 0.0395,0 -0.37957,-19.960075 -16.68782,-36.02698 -36.738111,-36.026995 z"
       style="fill:url(#linearGradient4832);fill-opacity:1;stroke:none"
       sodipodi:nodetypes="cscsccc" />
    <path
       style="fill:url(#linearGradient4834);fill-opacity:1;stroke:none"
       d="m 88.361429,51.609887 c -20.287923,0 -36.738042,16.450118 -36.738042,36.738058 0,0.186062 -0.0022,0.36739 0,0.55304 0.379157,-19.959715 16.687756,-36.026994 36.738042,-36.026982 19.623881,0 35.669431,15.394741 36.698551,34.762879 0.0113,-0.0042 0.028,0.0042 0.0395,0 -0.37957,-19.960075 -16.68782,-36.02698 -36.738111,-36.026995 z"
       id="path5966" />
    <path
       transform="matrix(1.264113,0,0,1.2187914,143.48092,-27.016006)"
       sodipodi:nodetypes="cssscccccc"
       id="path4866"
       d="m -42.2125,76.974969 c -0.345178,0 -0.625,0.279822 -0.625,0.625 0,0.345178 0.279822,0.625 0.625,0.625 0.345178,0 0.625,-0.279822 0.625,-0.625 0,-0.345178 -0.279822,-0.625 -0.625,-0.625 z m 1.93125,4.0125 -0.75,0.6875 c 3.946774,7.385664 1.555211,12.829822 1.09375,19.793781 l 11.65625,1.4375 c -4.853376,-7.228705 0.137788,-17.298953 -12,-21.918781 z"
       style="opacity:0.54455447;fill:url(#linearGradient4836);fill-opacity:1;stroke:none;filter:url(#filter4900)" />
  </g>
</svg>
