<?xml version="1.0" encoding="UTF-8" standalone="no"?>
<!-- Generator: Adobe Illustrator 12.0.0, SVG Export Plug-In . SVG Version: 6.00 Build 51448)  -->
<svg
   xmlns:stRef="http://ns.adobe.com/xap/1.0/sType/ResourceRef#"
   xmlns:xapMM="http://ns.adobe.com/xap/1.0/mm/"
   xmlns:xapGImg="http://ns.adobe.com/xap/1.0/g/img/"
   xmlns:xap="http://ns.adobe.com/xap/1.0/"
   xmlns:pdf="http://ns.adobe.com/pdf/1.3/"
   xmlns:ns="http://ns.adobe.com/SaveForWeb/1.0/"
   xmlns:x="adobe:ns:meta/"
   xmlns:dc="http://purl.org/dc/elements/1.1/"
   xmlns:cc="http://web.resource.org/cc/"
   xmlns:rdf="http://www.w3.org/1999/02/22-rdf-syntax-ns#"
   xmlns:svg="http://www.w3.org/2000/svg"
   xmlns="http://www.w3.org/2000/svg"
   xmlns:sodipodi="http://sodipodi.sourceforge.net/DTD/sodipodi-0.dtd"
   xmlns:inkscape="http://www.inkscape.org/namespaces/inkscape"
   version="1.1"
   id="svg1307"
   width="128"
   height="128"
   viewBox="-0.5 -19 128 128"
   overflow="visible"
   enable-background="new -0.5 -19 128 128"
   xml:space="preserve"
   sodipodi:version="0.32"
   inkscape:version="0.45.1"
   sodipodi:docname="media-flash-memory-stick.svgz"
   sodipodi:docbase="/home/david/Oxygen/kdelibs/scalable/devices/small/16x16"
   inkscape:output_extension="org.inkscape.output.svgz.inkscape"
   inkscape:export-filename="/home/david/Oxygen/kdelibs/scalable/devices/small/16x16/media-flash-memory-stick.png"
   inkscape:export-xdpi="11.25"
   inkscape:export-ydpi="11.25"><defs
   id="defs121" /><sodipodi:namedview
   inkscape:window-height="735"
   inkscape:window-width="744"
   inkscape:pageshadow="2"
   inkscape:pageopacity="0.0"
   guidetolerance="10.0"
   gridtolerance="10.0"
   objecttolerance="10.0"
   borderopacity="1.0"
   bordercolor="#666666"
   pagecolor="#ffffff"
   id="base"
   showgrid="false"
   gridempspacing="2"
   gridspacingy="4px"
   gridspacingx="4px"
   showborder="false"
   inkscape:zoom="0.125"
   inkscape:cx="64"
   inkscape:cy="64"
   inkscape:window-x="0"
   inkscape:window-y="0"
   inkscape:current-layer="svg1307" />
<metadata
   id="metadata3">
	<ns:sfw>
		<ns:slices />
		<ns:sliceSourceBounds
   x="1"
   y="24.5"
   height="84"
   width="124.001"
   bottomLeftOrigin="true" />
	</ns:sfw>
	<x:xmpmeta
   x:xmptk="XMP toolkit 3.0-29, framework 1.6">
		
	<metadata
   id="metadata123"><rdf:RDF>
			<rdf:Description
   rdf:about="uuid:3af0bcd6-eebc-11da-980f-001451315092">
				<pdf:Producer>Adobe PDF library 6.66</pdf:Producer>
			</rdf:Description>
			<rdf:Description
   rdf:about="uuid:3af0bcd6-eebc-11da-980f-001451315092">
				</rdf:Description>
			<rdf:Description
   rdf:about="uuid:3af0bcd6-eebc-11da-980f-001451315092">
				</rdf:Description>
			
				<rdf:Description
   rdf:about="uuid:3af0bcd6-eebc-11da-980f-001451315092">
				<xap:CreatorTool>Illustrator</xap:CreatorTool>
				<xap:CreateDate>2006-05-28T18:16:25+02:00</xap:CreateDate>
				<xap:ModifyDate>2006-05-29T02:43:07Z</xap:ModifyDate>
				<xap:MetadataDate>2006-05-28T18:16:25+02:00</xap:MetadataDate>
				<xap:Rating>1</xap:Rating>
				<xap:Thumbnails>
					<rdf:Alt>
						<rdf:li
   rdf:parseType="Resource">
							<xapGImg:format>JPEG</xapGImg:format>
							<xapGImg:width>256</xapGImg:width>
							<xapGImg:height>176</xapGImg:height>
							<xapGImg:image>/9j/4AAQSkZJRgABAgEASABIAAD/7QAsUGhvdG9zaG9wIDMuMAA4QklNA+0AAAAAABAASAAAAAEA
AQBIAAAAAQAB/+4ADkFkb2JlAGTAAAAAAf/bAIQABgQEBAUEBgUFBgkGBQYJCwgGBggLDAoKCwoK
DBAMDAwMDAwQDA4PEA8ODBMTFBQTExwbGxscHx8fHx8fHx8fHwEHBwcNDA0YEBAYGhURFRofHx8f
Hx8fHx8fHx8fHx8fHx8fHx8fHx8fHx8fHx8fHx8fHx8fHx8fHx8fHx8fHx8f/8AAEQgAsAEAAwER
AAIRAQMRAf/EAaIAAAAHAQEBAQEAAAAAAAAAAAQFAwIGAQAHCAkKCwEAAgIDAQEBAQEAAAAAAAAA
AQACAwQFBgcICQoLEAACAQMDAgQCBgcDBAIGAnMBAgMRBAAFIRIxQVEGE2EicYEUMpGhBxWxQiPB
UtHhMxZi8CRygvElQzRTkqKyY3PCNUQnk6OzNhdUZHTD0uIIJoMJChgZhJRFRqS0VtNVKBry4/PE
1OT0ZXWFlaW1xdXl9WZ2hpamtsbW5vY3R1dnd4eXp7fH1+f3OEhYaHiImKi4yNjo+Ck5SVlpeYmZ
qbnJ2en5KjpKWmp6ipqqusra6voRAAICAQIDBQUEBQYECAMDbQEAAhEDBCESMUEFURNhIgZxgZEy
obHwFMHR4SNCFVJicvEzJDRDghaSUyWiY7LCB3PSNeJEgxdUkwgJChgZJjZFGidkdFU38qOzwygp
0+PzhJSktMTU5PRldYWVpbXF1eX1RlZmdoaWprbG1ub2R1dnd4eXp7fH1+f3OEhYaHiImKi4yNjo
+DlJWWl5iZmpucnZ6fkqOkpaanqKmqq6ytrq+v/aAAwDAQACEQMRAD8A9QXt2lvESTvirzTzV+c/
lby1epbavfrbzSqXjjCSSMVBpUiOOUqPDl1xVJP+hlPy6/6u/wD073X/AFQxV3/Qyn5df9Xf/p3u
v+qGKu/6GU/Lr/q7/wDTvdf9UMVd/wBDKfl1/wBXf/p3uv8Aqhirv+hlPy6/6u//AE73X/VDFXf9
DKfl1/1d/wDp3uv+qGKu/wChlPy6/wCrv/073X/VDFXf9DKfl1/1d/8Ap3uv+qGKu/6GU/Lr/q7/
APTvdf8AVDFXf9DKfl1/1d/+ne6/6oYq7/oZT8uv+rv/ANO91/1QxV3/AEMp+XX/AFd/+ne6/wCq
GKu/6GU/Lr/q7/8ATvdf9UMVd/0Mp+XX/V3/AOne6/6oYq7/AKGU/Lr/AKu//Tvdf9UMVd/0Mp+X
X/V3/wCne6/6oYq7/oZT8uv+rv8A9O91/wBUMVd/0Mp+XX/V3/6d7r/qhirv+hlPy6/6u/8A073X
/VDFXf8AQyn5df8AV3/6d7r/AKoYq7/oZT8uv+rv/wBO91/1QxV3/Qyn5df9Xf8A6d7r/qhirv8A
oZT8uv8Aq7/9O91/1QxV3/Qyn5df9Xf/AKd7r/qhirv+hlPy6/6u/wD073X/AFQxV3/Qyn5df9Xf
/p3uv+qGKu/6GU/Lr/q7/wDTvdf9UMVd/wBDKfl1/wBXf/p3uv8Aqhiqd+Vfzn8reZb17bSL9bia
JQ8kZSSNgpNKgSRxFh48emKvS7K7S4iDA74qxLzlqM0ET0/zrT+LYq+I9U1Fda1S71LV5Jri9nlY
swIChQaKqjwAGKqEFppBsBNIspZpWApQUUdB1xVb9X0T/fc33jFXfV9E/wB9zfeMVd9X0T/fc33j
FXfV9E/33N94xV31fRP99zfeMVd9X0T/AH3N94xV31fRP99zfeMVd9X0T/fc33jFXfV9E/33N94x
V31fRP8Afc33jFXfV9E/33N94xV31fRP99zfeMVd9X0T/fc33jFXfV9E/wB9zfeMVd9X0T/fc33j
FXfV9E/33N94xV31fRP99zfeMVd9X0T/AH3N94xV31fRP99zfeMVd9X0T/fc33jFXfV9E/33N94x
V31fRP8Afc33jFXfV9E/33N94xV31fRP99zfeMVd9X0T/fc33jFXfV9E/wB9zfeMVd9X0T/fc33j
FUTpeopo2p2mpaRJNb3sEqlWJBUqTRlYeBBxV9ueTdRmniSp/wAxX+K4qhPPf9030frTFXw8Ptyf
8ZH/AOJHFVeP/jlR/wDGVsVUcVdirsVdirsVdirsVdirsVdirsVdirsVdirsVdirsVdirsVdirsV
dirsVR+k6DresStFpVhcX0i05i3jaTiD3YqDx+nFUdqvkXzjpUBuNQ0a7t7dRVpmiYxqP8pwCo+n
FUjVWbZQSQCTTwG5xVrFWj9uP/jIn/Ehir7h8if3S/T+t8Vd57/um+j9aYq+HV+1J/xkf/iRxVER
/wDHKj/4ytiqa+UPJ2t+a9WGm6TEGcDnNNIeMUSVpzdqH7gKnFWVf8q08nDUP0QfPNqNa5+j9X+q
Teh6tacPrPL0+u3zxVLrj8tptI84QeXfM9+ukx3Yra6okf1iB6mik1eEqpPwknoeopviqcx/kTr/
APjG40Se5EOl28P1l9caP916JqF+AuBz5Agrz2oT0xVJ/L3kfyxrnm6fy9B5lMaV4WF+9oPTuZF+
0qr6/wANf2Kn4vY0BVROh/k/rN95o1XRtQuBplpoys99qjpziCU5RsoLRiki/FuwotcVUfL/AOVl
95hub+fSb6MeXNPdkfXL1TbRuEFWKxhpDsN9z0606Yq3J5L/AC8UNEnnyFrsVHA6ddCGo/4uBYU9
6Yqs/LP8tR53utQgGpfUBYrG4f0fW5+oWHTnFT7OKqGr+Wvy+tdNnuNO85/pC9jWsFl+jbmD1Gr9
n1HYqv04qyPRvyLutY8n2uuWWrob+9gaa10t4QnNkJrGJjL1oOvD5064qkXkn8tJvMtr5glnvG02
bQI1eW3aD1GdiJSUNXj4FTDToeuKsKxV2KuxV2KuxV2KuxV2KuxV2Kso/LjyZJ5u802+llmjtFBn
vpV+0sCEcqV7sSFHhWuKvTPOn5vWflGRvKvkeyt4YtPJiuLpl5Isg2dUWo5MDszvWprt3xVIPL//
ADkN5vtLxf00kOp2LECZBGsMqr3KMnFa+zD7sVZh+Ylr5Msvy2vvMnlnSoeXmARRtexLT045XBck
E/u904Mq0+I74q+esVWt9qP/AIyJ/wASGKvuLyJ/dL9P63xV3nv+6b6P1pir4dX7Un/GR/8AiRxV
ER/8cqP/AIytir0L8k/P+k+U9YvItWrHY6kkatdKpcxPEWKkgVbgeZrQeGKrf+VZ+Wv0n9Z/xro/
6C9Tnz+sf6d6Va09Cn2+32vfFU68/wDmPQvzJ85aZptpqEGnaHpqyevq946W4YSMvqGNZShbZFCD
rWvQb4qymT8x/I2pXl5+Xs9z6Hlz6mtjba4bjZpI1oazE8eFAOLE0YjeqtirwrXdLbQ9altbe/gv
Vt3DW1/ZTJIjqDVHVo2bi3tWoOKvWPzR87w3/wCWWhRWmr29xqd/Ha/pyK3liaZiLfmyzIh5KBL1
BA32xVL/ACX5x8ral+Wd15C1i9/Qly3L6vqBQtFJWYTrzK9Dy+Fq0HHviqYeRvLvk/RecPmXUvKe
qaWeci3CTmW/5txCLRuKhAAdqVGKqv5Pa95U0zzp5wkOoWen6XPOf0aZZUgjaETylBH6hXYIRtiq
WebIvV8uX68/ICUj58tJNL74CGpB/lNSmKq2r+c4NN/KPyg2japANd069ila2ilRpowI7gN6kQJb
ieYVuQpvTvirLND88eRtV0LWtfF5a6Treq2Jt9U02aWOIvcQRyCOSMOVZ+QkIBHXYHcYq+b8Vdir
sVdirsVdirsVdirsVdir2b/nGd7ca5rSNT6wbaMx+PASHn+JXFXkGoRXcV/cxXnIXccrrch/teoG
Iete/LFVDFXtmlLND/zjbqRvq+jLKTZK23wm6jC0rX/doY/51xV4niq1vtR/8ZE/4kMVfcXkT+6X
6f1virvPf9030frTFXw6n2pP+Mj/APEjiqIj/wCOVH/xlbFVHFXYq7FXYq7FXYq7FXYq7FXYq7FX
Yq7FXYq7FXYq7FXYq7FXYq7FXYqn3kjzbeeVPMdtrFsvqCOqXEFaCSF9nSv4j3AxV7B5g/L7yj+Z
lfMflLVI7XUZgDe2sg2L0pWVAecT+JAIbr7lVKdI/wCcdZbSU3fmvWbW30yD45vqzMKqOzSzLEsY
96HFUm/N78xdK1aC08r+WlCeXtMK/vEBVJXjXigQHfggruftHfsDirzDFVr/AGo/+Mif8SGKvuLy
J/dL9P63xV3nv+6b6P1pir4cj6yf8ZH/AOJHFUTH/wAcqP8A4ytiqjirsVdirsVdirsVdirsVdir
sVdirsVdirsVdirsVdirsVdirsVdirsVdiq+GeaCQSQyNFIvR0JVh9IxVWu9S1G9p9cuprnj9n1p
GkptTbkT2xVDYq7FVknWP/jIn/Ehir7j8if3S/T+t8Vd57/um+j9aYq+HI+sn/GR/wDiRxVEx/8A
HKj/AOMrYqo4q7FXYq7FXYq7FXYq7FXYq7FXYq7FXYq7FXYq7FXYq7FXYq7FXYq7FXYq7FXYq7FX
Yqsk6x/8ZE/4kMVfcfkT+6X6f1virvPf9030frTFXw3F/uz/AIyP/wASOKoqP/jlR/8AGVsVUcVd
irsVdirsVdirsVdirsVdirsVdirsVdirsVdirsVdirsVdirsVdirsVdirsVdirsVU5f91/8AGRP+
JDFX3J5E/ul+n9b4q7z3/dN9H60xV8Nw/wC7P+Mj/wDEjiqKj/45Uf8AxlbFVHFXYq7FXYq7FXYq
7FXYq7FXYq7FXYq7FXYq7FXYq7FXYq7FXYq7FXYq7FXYq7FXYq7FVOb/AHX/AMZE/wCJDFX3J5E/
ul+n9b4q7z3/AHTfR+tMVfDcP+7P+Mj/APEjiqKj/wCOVH/xlbFVHFXYq7FXYq7FXYq7FXYq7FXY
q7FXYq7FXYq7FXYq7FXYq7FXYq7FXYq7FXYq7FXYq7FVOb/df/GRP+JDFX3J5E/ul+n9b4q7z3/d
N9H60xV8NQdJP+Mj/wDEjiqLj/45Uf8AxlbFVHFXYq7FXYq7FXYq7FXYq7FXYq7FXYq7FXYq7FXY
q7FXYq7FXYq7FXYq7FXYq7FXYq7FVKfpH/xkT/iQxV9y+RP7pfp/W+Ku89/3TfR+tMVfDVv0k/4y
Sf8AEjiqLj/45Uf/ABlbFVHFXYq7FXYq7FXYq7FXYq7FXYqyLyP5F1jzlqU+n6XLBDLbwmd3uWdU
4hlSg4JIa1fwxVryx5G1zzF5il0Cz9OC+gEhnNwWWOP0TxbkUVz9ohenXFUp1jTLjStWvdLuSrXF
jPJbSslShaJyhKlgp4mm1RiqExV2KuxV2KuxVOPLPlPWPMd1NBpyIEtYjPd3MziKGGJeryO3QYqs
1zQU0v0jHqljqaylgWsZHfgVps4kSJhWuxpQ+OKpVirsVdirsVdirsVdiqlcdI/+Mkf/ABIYq+5f
In90v0/rfFXee/7pvo/WmKvhm2+zJ/xkk/4kcVRkf/HKj/4ytiqjirsVdirsVdirsVdirsVdirsV
ejflbc3Gm+WPOmt27BJ7G1tViY9nkmJX8Y8VZ1dzaXompxeabGlPO+oaU9oimrpCJEuL3w3aQANX
xxVtzJpx/M10vbjTJBqFnIt7ZRmadPVcP8MfOItyD0PxbAnFUi/L97OTRfMUeqzyXNv5m1WPR5L+
4QrMXlhmaKZkJbi/qOrEFjTxxVGXmkaZa+Q4vKl9xjTQ9R0qTXpVYHjLfuxnqwP+645AlfbFV1/H
eTa1560jWbUReVdM02aXS4TEqQW8icPqjW5AAV3FT8P2j1xVOpeP1vToJLlLyzTyrHOfKhVmN0/F
wZV5qIVPiVbn8PTFWI23mJT+X0fnhomPmXTo38tw3RoQeaq6XPj6kcDsle5OKsI8i+ZfMWg3t3c6
XZ/pG2ni9DU7OSJpoZIZDSkgXpXcA/rxVlPnDS7TQNH0Xzt5cjuPLGpag8kLaPI5MiDiwaWEuA/p
kDeo/aWlMVZxf6tqU3/OQ+maVLcu+nWyvLb2rGqI7afISwHjirCybzSfy6i1byshXVZ9UuYtavoE
D3EIRm9GMPRmjRl4ttTfFWWeVo4LryR5UnmKv5pP6Yl0NbpR6T6h9YduUpP7Yp8IPf5DFXg+oy30
t/cyX5dr5pXN0Za8/V5Hnyr35dcVQ+KuxV2KqcqNI8ESAtJJNGkaDcsxYUAGKvuTyJ/dL9P63xV3
nv8Aum+j9aYq+Gbb7Mn/ABkk/wCJHFUZH/xyo/8AjK2KqOKuxV2KuxV2KuxV2KuxV2KuxVEwanqN
vaT2cF1NFZ3XH61bJIyxy8DVfUQHi3E9K4qta/vmW3RrmUpa72ql2IiJNf3Yr8O4rtiqYReb/NkN
xPcw63fx3N0VNzOl1MrymNeKeowarcV2FegxVCz65rVwrrcahczLJMLqQSTSMGnA4iZqk1kC7cuu
KrW1bVXjuomvZ2jvmV71DK5WZkPJWlFfjKk1BbFV1xrWs3FnHY3F/cTWUVPStZJXaJadOKElR92K
rl1/XVu4LxdRuheW0YgtrkTSCSOIAqI0flyVQGIoNsVUP0hqH1JrH6zL9ReT13tebekZacfUKV48
qbVpXFVTTdZ1jS5Gk0y+uLGRwA720rwsQK0qUK164qpXuoX9/Obi+uZbqc7Gad2kc/7JiTiqude1
w6kuqHUbk6mgAS+9aT1wAvAUlrz+z8PXpiqyx1fVtPmeawvbi0mk+3JBK8TN8yhBOKrn1zW39Dnq
Fy31WVp7Ws0h9KZ25tJHv8Ls/wARYb13xVDXNzc3VxJc3Mrz3EzF5ZpWLu7HcszNUkn3xVTxV2Ku
xVk/5WaKNY8+WwdecOmxm5KnoZCQkY+9q/Rir7M8oaaIoVI6U/z/AInFUs89/wB030frTFXwza/Z
k/4yyf8AEjiqMj/45Uf/ABlbFVHFUXpGk3+r6lb6bp8RnvLpxHDGO5PcnsANyewxVRu7d7a6mtnI
LwO0bFehKEqaV+WKsmn/ACr/ADCg09tQl0O4W2QFm+wZAAKkmIMZOn+TiqU+XvKvmHzHcvbaLYyX
ssYBk4UVUDGg5u5VFrTucVVPMfk3zP5aljj1vT5LP1a+k7cXjYjchZIyyEjwBxVJsVdirsVdirsV
dirsVdirsVdirsVdirsVdirsVdirsVdirsVdirsVep/846WyPrOuztu4a2QewCyN+JAxV9d6HCI7
UU7Cn8P4YqxHz3/dN9H60xV8M2v2ZP8AjLJ/xM4qjI/+OVH/AMZWxVRxV9L/AJGeQNP0fQYfMMrR
3OqapEHSVCGWGBtxGp/mNPj99u26r511v/jtX/8AzEzf8nDir3T8o7zzpYaffea/NmpSt5Xaz52y
zS+sSysKPHGpfgAqsvGgJJ6Yq8Zg826vpup6jeaFdS6Yl/I5ZYSFYRmQuqchuOPtir1nz1qF7cfk
Lo83mFzLrF3LE0Ekn941XkaNz3qbfqffFWE+cPyom8u+UdP8xLqP1sXYga4tPR9JoBcRl1Jb1H5D
kvHoMVd5s/KmXy75MsfMUmpCee5eCO40/wBHgYGnhM3Eyc25Fdh9kda4qnF5+SGnw6zH5ej81Qt5
kmiM0OnSWksaOgVm2nDOvRDtSuKvLru2mtbqa1mHGaB2ilUGtGQlWFR7jFVLFXYq7FXYq7FXYq7F
XYq7FXYq7FXYq7FXYq7FXYq7FXpv/OO1+kHmrWLBjRrmKG4jHtFyjY/fKuKvsPRZA1qKfP8AGv8A
HFWH+e/7pvo/WmKvhi0+xJ/xlk/4mcVRtrLCIjaz/DEzco5v5WP83tiq2e3kgfi4+TDoR7Yq9W/I
v8yf0NqI8uapLTSr5/8ARJXPwwXDdqnoknQ+Db9zirzjULWa78y3NrCKzXF48UYPdnlKj8Tir3T8
pPKfn/yve3z+Z5xa+W4bZl9Ca4SWHkCCHVQzCNVUNUmny8FWD/lx5A07zh551K8jQL5W0+7eUQ1o
ZI3kY28NOvEqvxe23fFU0/O7RfP2oyzaze2C2fljSQsVnEJomKpI6xiRkRj8TsV6dBQdq4qze5tL
fWtfuvI95RYZNE0uZOY3/wBDuWaTbb4mElKe3zxViHnfW18x/ll5h1RKyRr5kIibwijijiiP0xlf
vxV6FqlxrTfmbDYx+X430q4silz5jSF4rmHkr1VbwEAUIHwjffFXy/rdvbW2tX9vazm6tobmaOC5
JqZUWQhZK/5QFcVQWKuxV2KuxV2KuxV2KuxV2KuxV2KuxV2KuxV2KuxV2Kpn5Q19vLvnDStZ39BJ
Pq92B3im+Gv+xPxYq+5fKeopLAgBqKbfL/axVB+cNMnuI24j/MU/5pxV8n/mR+Vd/o95Pq2hQmS2
di93pyjcE7l4QP8AiP3eAVefQTxTx8ozUdGB6g+BGKouC6MaejKvq2/8v7S/6p/hiq57Wqerbt60
PiPtL/rDFVESyCT1Q59WvLnU8uVa1r1rXFUdeeYdfvbZbW81O6ubZdlgmnkkjFN9lZiMVa0zzBr2
krIul6ldWCzEGUWs8kIcrWnL02WtK98VV77zb5r1C1e0v9av7u0lp6lvPczSRtxIYckdipowBxVQ
n8wa9Pe/X59Supb7h6f1p55Gl4fy8y3Lj7VxVSTVNTTT301LyddOlf1ZbISOIGkFPjaMHgW+Eb07
Yqi7nzb5qurb6rdazfT21OPoS3MzpSlKcWYjpiqVYq7FXYq7FXYq7FXYq7FXYq7FXYq7FXYq7FXY
q7FXYq7FUPe/3cf/ABlj/wCJjFX3R5F/ul+n9b4qzq5to50KsN8VYT5j8ppMrEJWvt/n92Kvn78x
PyVjubiXUdJP1HUzUsQD6Up60kXx9xv41xV45f2+o6TdfU9Ztms7jojtvFJTujjY4qugkZLq3aNi
vORFYjupPQ4qq3oAu5afzYqoYq7FXYq7FXYq7FXYq7FXYq7FXYq7FXYq7FXYq7FXYq7FXYq7FXYq
7FXYq7FUPe/3cf8Axlj/AOJjFX3R5E/ul+n9b4q9BxVZLEki8WFcVY9rHlqG4ViFBrirzXzZ+W9j
fwSQXdqk8LfaSRQwr9Pf5/firyO6/wCcfbVbpms7q8tYg3JIUYMqEfy80Y/icVUm/IB3Ys2p3xY9
TVf+qeKtf9C/H/q5X33r/wBU8Vd/0L8f+rlffev/AFTxV3/Qvx/6uV996/8AVPFXf9C/H/q5X33r
/wBU8Vd/0L8f+rlffev/AFTxV3/Qvx/6uV996/8AVPFXf9C/H/q5X33r/wBU8Vd/0L8f+rlffev/
AFTxV3/Qvx/6uV996/8AVPFXf9C/H/q5X33r/wBU8Vd/0L8f+rlffev/AFTxV3/Qvx/6uV996/8A
VPFXf9C/H/q5X33r/wBU8Vd/0L8f+rlffev/AFTxV3/Qvx/6uV996/8AVPFXf9C/H/q5X33r/wBU
8Vd/0L8f+rlffev/AFTxV3/Qvx/6uV996/8AVPFXf9C/H/q5X33r/wBU8Vd/0L8f+rlffev/AFTx
V3/Qvx/6uV996/8AVPFXf9C/H/q5X33r/wBU8Vd/0L8f+rlffev/AFTxV3/Qvx/6uV996/8AVPFX
L/zj6vNC+oXrqrK3ElSDxNf994q+kfI8UiRqGUg+B/2R/jirP8VdirsVQ1xYQTDdRXFUsfyzasxP
Eb/L+zFVv+F7X+UYq7/C9r/KMVd/he1/lGKu/wAL2v8AKMVd/he1/lGKu/wva/yjFXf4Xtf5Rirv
8L2v8oxV3+F7X+UYq7/C9r/KMVd/he1/lGKu/wAL2v8AKMVd/he1/lGKu/wva/yjFXf4Xtf5Rirv
8L2v8oxV3+F7X+UYq7/C9r/KMVd/he1/lGKu/wAL2v8AKMVd/he1/lGKu/wva/yjFXf4Xtf5Rirv
8L2v8oxV3+F7X+UYq7/C9r/KMVR9hpUNr9kAe2Kv/9k=
								</xapGImg:image>
						</rdf:li>
					</rdf:Alt>
				</xap:Thumbnails>
			</rdf:Description>
			
				<rdf:Description
   rdf:about="uuid:3af0bcd6-eebc-11da-980f-001451315092">
				<xapMM:DocumentID>uuid:749E204FEFC411DA9064DAB41CCF8339</xapMM:DocumentID>
				<xapMM:InstanceID>uuid:26a751a1-ee39-11da-95ed-00112478973e</xapMM:InstanceID>
				<xapMM:Manager>AdobeARM</xapMM:Manager>
				<xapMM:DerivedFrom
   rdf:parseType="Resource">
					<stRef:instanceID>uuid:cbd6ed1b-ee37-11da-a7f6-00112478973e</stRef:instanceID>
					<stRef:documentID>uuid:C89EA84CEF4011DA8369AD67D9F1B96A</stRef:documentID>
					<stRef:manager>AdobeARM</stRef:manager>
					<stRef:manageTo>http://192.168.0.2:3703/soap/Oxygen/documents/wip_konqueror.ai</stRef:manageTo>
				</xapMM:DerivedFrom>
			</rdf:Description>
			<rdf:Description
   rdf:about="uuid:3af0bcd6-eebc-11da-980f-001451315092">
				<dc:format>image/svg+xml</dc:format>
				<dc:title>
					<rdf:Alt>
						<rdf:li
   xml:lang="x-default">wip_konqueror</rdf:li>
					</rdf:Alt>
				</dc:title>
			</rdf:Description>
		<cc:Work
   rdf:about=""><dc:format>image/svg+xml</dc:format><dc:type
     rdf:resource="http://purl.org/dc/dcmitype/StillImage" /></cc:Work></rdf:RDF></metadata></x:xmpmeta>
</metadata>





<linearGradient
   id="XMLID_26_"
   gradientUnits="userSpaceOnUse"
   x1="61"
   y1="34.501"
   x2="61"
   y2="103.5009"
   gradientTransform="matrix(1 0 0 -1 1 108.5)">
	<stop
   offset="0"
   style="stop-color:#000000"
   id="stop16" />
	<stop
   offset="1"
   style="stop-color:#1F1F1F"
   id="stop18" />
</linearGradient>

<path
   style="fill:#323232"
   d="M 0,23.90625 C 0,25.985031 0,83.159011 0,84.075359 C 4.008871,87.888618 15.962642,99.535957 20.301685,103.875 C 20.829758,103.875 125.89495,103.875 128.09375,103.875 C 128.09375,101.53075 128.09375,98.224755 128.09375,96 L 120,96 L 120,88 L 128.09375,88 C 128.09375,70.376264 128.09375,56.020828 128.09375,23.90625 C 125.90505,23.906249 2.1898233,23.90625 0,23.90625 z "
   transform="translate(-0.5,-19)"
   id="path22"
   sodipodi:nodetypes="cccccccccc" />


<g
   enable-background="new    "
   id="g28"
   transform="matrix(1.0891022,0,0,0.8229969,-7.086346,5.5101398)">
	<path
   d="M 16.949,18.833 C 14.717,18.833 13.393,17.776 13.393,16.432 C 13.393,15.018 14.851,13.961 17.072,13.961 C 19.394,13.961 20.662,15.046 20.662,16.348 C 20.662,17.902 19.17,18.833 16.96,18.833 L 16.949,18.833 z M 17.027,17.986 C 18.182,17.986 18.844,17.307 18.844,16.383 C 18.844,15.536 18.205,14.808 17.027,14.808 C 15.849,14.808 15.187,15.522 15.187,16.404 C 15.187,17.293 15.871,17.986 17.016,17.986 L 17.027,17.986 z "
   id="path30"
   style="fill:#dddddd" />
</g>
<g
   enable-background="new    "
   id="g32"
   transform="matrix(1.0891022,0,0,0.8229969,-7.086346,5.5101398)">
	<path
   d="M 25.958,18.756 L 25.273,17.902 C 24.993,17.573 24.814,17.328 24.6,17.055 L 24.578,17.055 C 24.421,17.328 24.23,17.573 23.984,17.902 L 23.367,18.756 L 21.415,18.756 L 23.602,16.369 L 21.493,14.038 L 23.456,14.038 L 24.118,14.899 C 24.343,15.186 24.511,15.417 24.69,15.683 L 24.712,15.683 C 24.891,15.382 25.037,15.172 25.228,14.899 L 25.867,14.038 L 27.819,14.038 L 25.688,16.341 L 27.931,18.756 L 25.958,18.756 z "
   id="path34"
   style="fill:#dddddd" />
</g>
<g
   enable-background="new    "
   id="g36"
   transform="matrix(1.0891022,0,0,0.8229969,-7.086346,5.5101398)">
	<path
   d="M 31.344,18.756 L 31.344,16.824 L 28.955,14.038 L 30.918,14.038 L 31.681,15.172 C 31.917,15.515 32.085,15.767 32.264,16.075 L 32.286,16.075 C 32.454,15.781 32.634,15.508 32.858,15.172 L 33.621,14.038 L 35.539,14.038 L 33.049,16.789 L 33.049,18.756 L 31.344,18.756 z "
   id="path38"
   style="fill:#dddddd" />
</g>
<g
   enable-background="new    "
   id="g40"
   transform="matrix(1.0891022,0,0,0.8229969,-7.086346,5.5101398)">
	<path
   d="M 42.691,18.539 C 42.164,18.651 41.166,18.805 40.167,18.805 C 38.788,18.805 37.789,18.588 37.094,18.175 C 36.409,17.762 36.028,17.146 36.028,16.453 C 36.039,14.885 37.868,13.989 40.347,13.989 C 41.323,13.989 42.075,14.108 42.445,14.213 L 42.086,15.074 C 41.671,14.955 41.166,14.871 40.336,14.871 C 38.911,14.871 37.823,15.375 37.823,16.397 C 37.823,17.377 38.81,17.944 40.212,17.944 C 40.593,17.944 40.908,17.916 41.042,17.881 L 41.042,16.887 L 39.875,16.887 L 39.875,16.054 L 42.69,16.054 L 42.69,18.539 L 42.691,18.539 z "
   id="path42"
   style="fill:#dddddd" />
	<path
   d="M 48.525,16.761 L 45.743,16.761 L 45.743,17.881 L 48.85,17.881 L 48.85,18.756 L 44.038,18.756 L 44.038,14.038 L 48.693,14.038 L 48.693,14.913 L 45.743,14.913 L 45.743,15.893 L 48.525,15.893 L 48.525,16.761 L 48.525,16.761 z "
   id="path44"
   style="fill:#dddddd" />
</g>
<g
   enable-background="new    "
   id="g46"
   transform="matrix(1.0891022,0,0,0.8229969,-7.086346,5.5101398)">
	<path
   d="M 51.207,18.756 L 51.207,14.038 L 53.204,14.038 L 54.774,15.767 C 55.223,16.264 55.66,16.852 56.008,17.384 L 56.03,17.384 C 55.929,16.761 55.895,16.124 55.895,15.41 L 55.895,14.038 L 57.466,14.038 L 57.466,18.756 L 55.671,18.756 L 54.056,16.936 C 53.607,16.425 53.102,15.823 52.744,15.27 L 52.699,15.27 C 52.755,15.9 52.778,16.565 52.778,17.335 L 52.778,18.756 L 51.207,18.756 z "
   id="path48"
   style="fill:#dddddd" />
</g>
<g
   enable-background="new    "
   id="g50"
   transform="matrix(1.1235625,0,0,1.0793259,-2.9106437,2.1249308)">
	<path
   d="M 57.513,52.42 C 57.462,51.813 57.41,51.076 57.423,50.484 L 57.384,50.484 C 57.217,51.076 56.987,51.723 56.781,52.244 L 55.884,54.435 L 54.948,54.435 L 54.103,52.3 C 53.872,51.756 53.642,51.084 53.488,50.485 L 53.449,50.485 C 53.436,51.092 53.385,51.804 53.333,52.445 L 53.179,54.5 L 51.987,54.5 L 52.564,49.108 L 54.013,49.108 L 54.846,51.292 C 55.115,51.988 55.333,52.556 55.5,53.164 L 55.525,53.164 C 55.679,52.556 55.871,51.996 56.128,51.292 L 56.936,49.108 L 58.411,49.108 L 58.924,54.5 L 57.68,54.5 L 57.513,52.42 z "
   id="path52"
   style="fill:#dddddd" />
</g>
<g
   enable-background="new    "
   id="g54"
   transform="matrix(1.1235625,0,0,1.0793259,-2.9106437,2.1249308)">
	<path
   d="M 62.583,52.658 L 61.045,52.658 L 61.045,53.942 L 62.795,53.942 L 62.795,54.5 L 60.016,54.5 L 60.016,50.456 L 62.679,50.456 L 62.679,51.014 L 61.045,51.014 L 61.045,52.124 L 62.583,52.124 L 62.583,52.658 z "
   id="path56"
   style="fill:#dddddd" />
	<path
   d="M 67.573,52.94 C 67.534,52.484 67.496,51.931 67.506,51.488 L 67.477,51.488 C 67.352,51.931 67.179,52.418 67.025,52.807 L 66.352,54.452 L 65.65,54.452 L 65.016,52.849 C 64.842,52.442 64.669,51.937 64.554,51.488 L 64.526,51.488 C 64.516,51.944 64.477,52.477 64.439,52.958 L 64.323,54.5 L 63.428,54.5 L 63.861,50.456 L 64.948,50.456 L 65.573,52.094 C 65.774,52.616 65.938,53.042 66.063,53.498 L 66.083,53.498 C 66.198,53.042 66.342,52.622 66.534,52.094 L 67.14,50.456 L 68.245,50.456 L 68.63,54.5 L 67.697,54.5 L 67.573,52.94 z "
   id="path58"
   style="fill:#dddddd" />
	<path
   d="M 73.227,52.424 C 73.227,53.948 72.371,54.548 71.227,54.548 C 69.938,54.548 69.294,53.691 69.294,52.472 C 69.294,51.26 70.024,50.409 71.322,50.409 C 72.688,50.408 73.227,51.338 73.227,52.424 z M 70.361,52.478 C 70.361,53.361 70.63,53.991 71.284,53.991 C 71.947,53.991 72.159,53.264 72.159,52.455 C 72.159,51.723 71.967,50.967 71.274,50.967 C 70.63,50.966 70.361,51.632 70.361,52.478 z "
   id="path60"
   style="fill:#dddddd" />
</g>
<g
   enable-background="new    "
   id="g62"
   transform="matrix(1.1235625,0,0,1.0793259,-2.9106437,2.1249308)">
	<path
   d="M 74.063,50.516 C 74.418,50.462 74.871,50.438 75.303,50.438 C 75.966,50.438 76.524,50.51 76.908,50.733 C 77.264,50.949 77.398,51.218 77.398,51.554 C 77.398,52.022 77.033,52.388 76.379,52.575 L 76.379,52.587 C 76.83,52.689 77.071,52.959 77.196,53.439 C 77.34,53.931 77.494,54.364 77.599,54.501 L 76.532,54.501 C 76.446,54.387 76.311,53.991 76.196,53.517 C 76.071,52.996 75.83,52.822 75.321,52.822 L 75.081,52.822 L 75.081,54.502 L 74.061,54.502 L 74.061,50.516 L 74.063,50.516 z M 75.083,52.328 L 75.352,52.328 C 75.967,52.328 76.352,52.028 76.352,51.614 C 76.352,51.218 76.102,50.948 75.429,50.942 C 75.304,50.942 75.169,50.948 75.083,50.965 L 75.083,52.328 z "
   id="path64"
   style="fill:#dddddd" />
</g>
<g
   enable-background="new    "
   id="g66"
   transform="matrix(1.1235625,0,0,1.0793259,-2.9106437,2.1249308)">
	<path
   d="M 79.073,54.5 L 79.073,52.88 L 77.65,50.456 L 78.746,50.456 L 79.246,51.44 C 79.381,51.71 79.525,52.021 79.65,52.328 L 79.669,52.328 C 79.766,52.021 79.9,51.722 80.044,51.422 L 80.506,50.456 L 81.573,50.456 L 80.101,52.856 L 80.101,54.5 L 79.073,54.5 z "
   id="path68"
   style="fill:#dddddd" />
</g>
<g
   enable-background="new    "
   id="g70"
   transform="matrix(1.1235625,0,0,1.0793259,-2.9106437,2.1249308)">
	<path
   d="M 83.599,53.588 C 83.919,53.708 84.483,53.804 84.932,53.804 C 85.778,53.804 86.24,53.492 86.24,53.052 C 86.24,52.62 85.817,52.372 85.112,52.069 C 84.15,51.684 83.483,51.149 83.483,50.565 C 83.483,49.724 84.394,49.061 86.009,49.061 C 86.56,49.061 87.072,49.165 87.304,49.252 L 87.047,49.988 C 86.817,49.891 86.444,49.803 85.983,49.803 C 85.202,49.803 84.83,50.131 84.83,50.459 C 84.83,50.875 85.176,51.067 86.06,51.419 C 87.15,51.867 87.585,52.387 87.585,52.963 C 87.585,53.931 86.482,54.547 84.932,54.547 C 84.278,54.547 83.637,54.435 83.368,54.323 L 83.599,53.588 z "
   id="path72"
   style="fill:#dddddd" />
</g>
<g
   enable-background="new    "
   id="g74"
   transform="matrix(1.1235625,0,0,1.0793259,-2.9106437,2.1249308)">
	<path
   d="M 89.18,51.044 L 88.017,51.044 L 88.017,50.456 L 91.382,50.456 L 91.382,51.044 L 90.209,51.044 L 90.209,54.5 L 89.18,54.5 L 89.18,51.044 z "
   id="path76"
   style="fill:#dddddd" />
	<path
   d="M 93.103,50.456 L 93.103,54.5 L 92.075,54.5 L 92.075,50.456 L 93.103,50.456 z "
   id="path78"
   style="fill:#dddddd" />
	<path
   d="M 97.228,54.434 C 97.036,54.495 96.7,54.537 96.276,54.537 C 94.796,54.537 93.95,53.781 93.95,52.533 C 93.95,50.978 95.267,50.421 96.421,50.421 C 96.844,50.421 97.133,50.475 97.267,50.523 L 97.076,51.063 C 96.922,51.021 96.767,50.986 96.46,50.986 C 95.759,50.986 95.037,51.387 95.037,52.492 C 95.037,53.578 95.691,53.968 96.47,53.968 C 96.71,53.968 96.951,53.938 97.105,53.896 L 97.228,54.434 z "
   id="path80"
   style="fill:#dddddd" />
	<path
   d="M 97.949,50.456 L 98.969,50.456 L 98.969,52.322 L 98.997,52.322 C 99.122,52.154 99.227,51.98 99.352,51.811 L 100.372,50.456 L 101.497,50.456 L 99.987,52.202 L 101.535,54.5 L 100.41,54.5 L 99.295,52.7 L 98.969,53.059 L 98.969,54.499 L 97.949,54.499 L 97.949,50.456 L 97.949,50.456 z "
   id="path82"
   style="fill:#dddddd" />
</g>
<linearGradient
   id="XMLID_27_"
   gradientUnits="userSpaceOnUse"
   x1="61"
   y1="102.5"
   x2="61"
   y2="104"
   gradientTransform="matrix(1,0,0,-1,1,108.5)">
	<stop
   offset="0"
   style="stop-color:#888888"
   id="stop85" />
	<stop
   offset="1"
   style="stop-color:#1F1F1F"
   id="stop87" />
</linearGradient>

<polygon
   points="19.57,70 19.57,60.5 15.93,65.023 19.57,70 "
   id="polygon91"
   transform="matrix(1.1235625,0,0,1.0793259,5.6016494,1.3263025)"
   style="fill:#dddddd" />
<g
   enable-background="new    "
   id="g93"
   transform="matrix(1.1235625,0,0,1.0793259,5.6016494,1.3263025)">
	<path
   d="M 23.102,68.264 C 23.466,68.474 23.97,68.615 24.46,68.615 C 25.342,68.615 25.832,68.069 25.832,67.299 C 25.832,66.291 25.062,65.858 24.124,65.858 L 23.872,65.858 L 23.872,64.513 L 24.054,64.513 C 24.726,64.499 25.594,64.219 25.594,63.337 C 25.594,62.679 25.174,62.287 24.53,62.287 C 24.124,62.287 23.718,62.441 23.382,62.651 L 23.144,61.264 C 23.522,61.027 24.264,60.788 25.02,60.788 C 26.616,60.788 27.414,61.824 27.414,62.986 C 27.414,63.896 26.91,64.652 26.112,65.03 L 26.112,65.057 C 26.994,65.351 27.666,66.135 27.666,67.368 C 27.666,68.754 26.602,70.112 24.628,70.112 C 23.886,70.112 23.242,69.929 22.836,69.706 L 23.102,68.264 z "
   id="path95"
   style="fill:#dddddd" />
	<path
   d="M 28.8,70 L 28.8,68.768 L 29.71,67.607 C 30.886,66.109 31.852,64.863 31.852,63.56 C 31.852,62.832 31.446,62.315 30.69,62.315 C 30.116,62.315 29.654,62.567 29.318,62.777 L 28.996,61.348 C 29.416,61.082 30.2,60.788 31.026,60.788 C 33.014,60.788 33.658,62.118 33.658,63.42 C 33.658,65.128 32.594,66.5 31.544,67.718 L 30.998,68.348 L 30.998,68.376 L 33.784,68.376 L 33.784,70 L 28.8,70 z "
   id="path97"
   style="fill:#dddddd" />
</g>
<g
   enable-background="new    "
   id="g99"
   transform="matrix(1.1235625,0,0,1.0793259,5.6016494,1.3263025)">
	<path
   d="M 40.152,67.678 C 40.125,66.949 40.098,66.068 40.098,65.185 L 40.071,65.185 C 39.882,65.959 39.63,66.824 39.396,67.535 L 38.658,69.902 L 37.587,69.902 L 36.939,67.561 C 36.741,66.841 36.534,65.977 36.39,65.185 L 36.372,65.185 C 36.336,66.004 36.309,66.941 36.264,67.697 L 36.156,70 L 34.887,70 L 35.274,63.934 L 37.101,63.934 L 37.695,65.959 C 37.884,66.652 38.073,67.417 38.208,68.128 L 38.235,68.128 C 38.406,67.426 38.613,66.625 38.811,65.95 L 39.459,63.933 L 41.25,63.933 L 41.583,70 L 40.242,70 L 40.152,67.678 z "
   id="path101"
   style="fill:#dddddd" />
	<path
   d="M 42.636,64.015 C 42.996,63.944 43.725,63.889 44.409,63.889 C 45.246,63.889 45.759,63.97 46.2,64.231 C 46.623,64.457 46.929,64.871 46.929,65.419 C 46.929,65.959 46.614,66.463 45.93,66.715 L 45.93,66.734 C 46.623,66.922 47.136,67.445 47.136,68.227 C 47.136,68.777 46.884,69.208 46.506,69.514 C 46.065,69.866 45.327,70.063 44.121,70.063 C 43.446,70.063 42.942,70.018 42.636,69.973 L 42.636,64.015 z M 43.995,66.337 L 44.445,66.337 C 45.165,66.337 45.552,66.04 45.552,65.59 C 45.552,65.131 45.201,64.888 44.58,64.888 C 44.283,64.888 44.112,64.907 43.995,64.924 L 43.995,66.337 z M 43.995,69.028 C 44.13,69.046 44.292,69.046 44.526,69.046 C 45.147,69.046 45.696,68.803 45.696,68.173 C 45.696,67.561 45.147,67.319 44.463,67.319 L 43.995,67.319 L 43.995,69.028 z "
   id="path103"
   style="fill:#dddddd" />
</g>

<linearGradient
   id="XMLID_28_"
   gradientUnits="userSpaceOnUse"
   x1="8.4995"
   y1="102.5"
   x2="8.4995"
   y2="104.5"
   gradientTransform="matrix(1,0,0,-1,1,108.5)">
	<stop
   offset="0"
   style="stop-color:#888888"
   id="stop108" />
	<stop
   offset="1"
   style="stop-color:#1F1F1F"
   id="stop110" />
</linearGradient>

<g
   id="g114"
   transform="matrix(1.2653709,0,0,1.2769353,-21.77172,-1.0079798)">
	<g
   id="g116">
		<path
   d="M 111.298,11.697 C 110.96,12.26 110.22,12.528 109.537,12.655 C 108.417,11.61 106.917,10.97 105.265,10.97 C 101.805,10.97 99,13.775 99,17.235 C 99,20.695 101.805,23.5 105.265,23.5 C 108.725,23.5 111.532,20.695 111.532,17.235 C 111.532,16.167 111.262,15.161 110.792,14.281 C 111.748,13.292 111.875,10.736 111.298,11.697 z M 105.265,21.835 C 102.724,21.835 100.664,19.775 100.664,17.234 C 100.664,14.693 102.724,12.633 105.265,12.633 C 107.807,12.633 109.867,14.693 109.867,17.234 C 109.867,19.775 107.807,21.835 105.265,21.835 z "
   id="path118"
   style="fill:#dddddd" />
	</g>
</g>
<path
   sodipodi:nodetypes="cccccccccc"
   id="path3253"
   d="M 1.59375,7.0000005 C 1.59375,8.9699278 1.59375,63.150038 1.59375,64.018402 C 5.4715674,67.631983 17.034559,78.669418 21.231755,82.781251 C 21.742564,82.781251 123.37308,82.781251 125.5,82.781251 C 125.5,80.559756 125.5,81.101517 125.5,78.99326 L 117.67084,78.99326 L 117.67084,67.125093 L 125.5,67.125093 C 125.5,50.424209 125.5,37.432924 125.5,7.0000005 C 123.38285,6.9999996 3.711986,7.0000005 1.59375,7.0000005 z "
   style="fill:none;stroke:#000000;stroke-width:4.00000048;stroke-miterlimit:4;stroke-dasharray:none;stroke-opacity:1" /></svg>