<?xml version="1.0" encoding="UTF-8" standalone="no"?>
<!-- Created with Inkscape (http://www.inkscape.org/) -->
<svg
   xmlns:dc="http://purl.org/dc/elements/1.1/"
   xmlns:cc="http://creativecommons.org/ns#"
   xmlns:rdf="http://www.w3.org/1999/02/22-rdf-syntax-ns#"
   xmlns:svg="http://www.w3.org/2000/svg"
   xmlns="http://www.w3.org/2000/svg"
   xmlns:xlink="http://www.w3.org/1999/xlink"
   xmlns:sodipodi="http://sodipodi.sourceforge.net/DTD/sodipodi-0.dtd"
   xmlns:inkscape="http://www.inkscape.org/namespaces/inkscape"
   width="128"
   height="128"
   id="svg2606"
   sodipodi:version="0.32"
   inkscape:version="0.46"
   version="1.0"
   sodipodi:docname="meeting-organizer.svgz"
   inkscape:output_extension="org.inkscape.output.svgz.inkscape"
   sodipodi:docbase="/home/pinheiro/pics/oxygen/scalable/mimetypes"
   inkscape:export-filename="meeting-organizer.png"
   inkscape:export-xdpi="11.25"
   inkscape:export-ydpi="11.25">
  <sodipodi:namedview
     id="base"
     pagecolor="#ffffff"
     bordercolor="#666666"
     borderopacity="1.0"
     inkscape:pageopacity="0.0"
     inkscape:pageshadow="2"
     inkscape:zoom="0.125"
     inkscape:cx="64"
     inkscape:cy="64"
     inkscape:document-units="px"
     inkscape:current-layer="layer1"
     width="128px"
     height="128px"
     showgrid="false"
     inkscape:grid-points="true"
     showguides="true"
     inkscape:guide-bbox="true"
     inkscape:window-width="1016"
     inkscape:window-height="692"
     inkscape:window-x="240"
     inkscape:window-y="23"
     showborder="false"
     inkscape:snap-bbox="true"
     inkscape:object-paths="false"
     inkscape:object-nodes="true"
     objecttolerance="10000"
     gridtolerance="10000">
    <inkscape:grid
       type="xygrid"
       id="grid4304"
       spacingx="8px"
       spacingy="8px"
       empspacing="4"
       enabled="true"
       visible="true" />
  </sodipodi:namedview>
  <defs
     id="defs2608">
    <linearGradient
       inkscape:collect="always"
       id="linearGradient4113">
      <stop
         style="stop-color:#ffffff;stop-opacity:1;"
         offset="0"
         id="stop4115" />
      <stop
         style="stop-color:#ffffff;stop-opacity:0;"
         offset="1"
         id="stop4117" />
    </linearGradient>
    <linearGradient
       id="linearGradient4097"
       inkscape:collect="always">
      <stop
         id="stop4099"
         offset="0"
         style="stop-color:#000000;stop-opacity:1;" />
      <stop
         id="stop4101"
         offset="1"
         style="stop-color:#2e2e2e;stop-opacity:1" />
    </linearGradient>
    <linearGradient
       inkscape:collect="always"
       id="linearGradient4058">
      <stop
         style="stop-color:#db1515;stop-opacity:1"
         offset="0"
         id="stop4060" />
      <stop
         style="stop-color:#9b0e0e;stop-opacity:1"
         offset="1"
         id="stop4062" />
    </linearGradient>
    <filter
       inkscape:collect="always"
       id="filter3624">
      <feGaussianBlur
         inkscape:collect="always"
         stdDeviation="1.1236176"
         id="feGaussianBlur3626" />
    </filter>
    <radialGradient
       inkscape:collect="always"
       xlink:href="#linearGradient3654"
       id="radialGradient3660"
       cx="312"
       cy="431.38034"
       fx="311.27777"
       fy="433.70554"
       r="16.25"
       gradientTransform="matrix(0.696437,0,0,1.188967,-175.09425,-439.0428)"
       gradientUnits="userSpaceOnUse" />
    <linearGradient
       id="linearGradient3654">
      <stop
         style="stop-color:#f9ede0;stop-opacity:1;"
         offset="0"
         id="stop3656" />
      <stop
         id="stop3670"
         offset="0.5"
         style="stop-color:#f9ede0;stop-opacity:0.80575538;" />
      <stop
         style="stop-color:#f9ede0;stop-opacity:0;"
         offset="1"
         id="stop3658" />
    </linearGradient>
    <radialGradient
       inkscape:collect="always"
       xlink:href="#linearGradient3654"
       id="radialGradient3674"
       gradientUnits="userSpaceOnUse"
       gradientTransform="matrix(-0.696437,0,0,1.188967,285.63744,-439.0428)"
       cx="312"
       cy="431.38034"
       fx="311.27777"
       fy="433.70554"
       r="16.25" />
    <filter
       inkscape:collect="always"
       id="filter3694">
      <feGaussianBlur
         inkscape:collect="always"
         stdDeviation="1.640636"
         id="feGaussianBlur3696" />
    </filter>
    <clipPath
       clipPathUnits="userSpaceOnUse"
       id="clipPath3705">
      <path
         sodipodi:nodetypes="cccccccc"
         id="path3707"
         d="M 341.25,409.625 C 339.73679,416.82736 335.50876,433.0214 340.75,436.875 C 340.10353,443.87478 333.6714,446.51892 325.75,448.0625 L 324.25,448.0625 C 316.3286,446.51892 309.89647,443.87478 309.25,436.875 C 314.49124,433.0214 310.26321,416.82736 308.75,409.625 L 325,417.03125 L 341.25,409.625 z "
         style="opacity:0.74906365;fill:url(#radialGradient3709);fill-opacity:1;fill-rule:evenodd;stroke:none;stroke-width:1px;stroke-linecap:butt;stroke-linejoin:miter;stroke-opacity:1" />
    </clipPath>
    <linearGradient
       id="linearGradient3149">
      <stop
         style="stop-color:#faf0e5;stop-opacity:1;"
         offset="0"
         id="stop3151" />
      <stop
         id="stop3378"
         offset="0.591133"
         style="stop-color:#f7e7d6;stop-opacity:1;" />
      <stop
         style="stop-color:#efcfac;stop-opacity:1;"
         offset="1"
         id="stop3153" />
    </linearGradient>
    <radialGradient
       inkscape:collect="always"
       xlink:href="#linearGradient3149"
       id="radialGradient3155"
       cx="324.39757"
       cy="396.09259"
       fx="330.04404"
       fy="392.75388"
       r="22.444886"
       gradientTransform="matrix(1.0059645,0,0,1.4472234,-271.44676,-535.35257)"
       gradientUnits="userSpaceOnUse" />
    <radialGradient
       inkscape:collect="always"
       xlink:href="#linearGradient3279"
       id="radialGradient3291"
       gradientUnits="userSpaceOnUse"
       gradientTransform="matrix(1,0,0,1.4395859,0.3535533,-174.66839)"
       cx="412.43236"
       cy="395.73904"
       fx="412.43236"
       fy="395.73904"
       r="22.444886" />
    <mask
       maskUnits="userSpaceOnUse"
       id="mask3287">
      <path
         style="opacity:1;fill:url(#radialGradient3291);fill-opacity:1;fill-rule:evenodd;stroke:none;stroke-width:1px;stroke-linecap:butt;stroke-linejoin:miter;stroke-opacity:1"
         d="M 412.56716,362.7206 C 404.7906,362.9256 395.78945,368.58113 392.66091,375.5331 C 389.47419,382.61431 389.9381,391.06936 391.84841,400.8456 C 393.75873,410.62183 400.03668,420.79216 403.22341,424.4706 C 406.24381,427.95705 410.11265,427.32692 412.56716,427.25185 C 412.69296,427.25185 412.8695,427.24772 413.00466,427.25185 C 415.45917,427.32692 419.32801,427.95705 422.34841,424.4706 C 425.53514,420.79216 431.81309,410.62183 433.72341,400.8456 C 435.63374,391.06936 436.09763,382.61431 432.91091,375.5331 C 429.78236,368.58113 420.78122,362.9256 413.00466,362.7206 L 412.56716,362.7206 z "
         id="path3289"
         sodipodi:nodetypes="csssssssscc" />
    </mask>
    <filter
       inkscape:collect="always"
       id="filter3325">
      <feGaussianBlur
         inkscape:collect="always"
         stdDeviation="0.16076312"
         id="feGaussianBlur3327" />
    </filter>
    <linearGradient
       inkscape:collect="always"
       id="linearGradient3329">
      <stop
         style="stop-color:#f9eee2;stop-opacity:1;"
         offset="0"
         id="stop3331" />
      <stop
         style="stop-color:#f9eee2;stop-opacity:0;"
         offset="1"
         id="stop3333" />
    </linearGradient>
    <linearGradient
       inkscape:collect="always"
       xlink:href="#linearGradient3329"
       id="linearGradient3335"
       x1="317.01251"
       y1="431.1243"
       x2="331.42062"
       y2="418.65884"
       gradientUnits="userSpaceOnUse"
       gradientTransform="translate(-372.5,-324.5)" />
    <radialGradient
       inkscape:collect="always"
       xlink:href="#linearGradient3837"
       id="radialGradient3853"
       gradientUnits="userSpaceOnUse"
       gradientTransform="matrix(1,0,0,2.5768702,43.133514,-626.29699)"
       cx="303.71943"
       cy="397.17727"
       fx="303.71943"
       fy="397.17727"
       r="0.79621875" />
    <filter
       inkscape:collect="always"
       x="-0.15930008"
       width="1.3186002"
       y="-0.071685554"
       height="1.1433711"
       id="filter3833">
      <feGaussianBlur
         inkscape:collect="always"
         stdDeviation="0.10560268"
         id="feGaussianBlur3835" />
    </filter>
    <linearGradient
       inkscape:collect="always"
       id="linearGradient3837">
      <stop
         style="stop-color:#f1e4d4;stop-opacity:1;"
         offset="0"
         id="stop3839" />
      <stop
         style="stop-color:#f1e4d4;stop-opacity:0;"
         offset="1"
         id="stop3841" />
    </linearGradient>
    <radialGradient
       inkscape:collect="always"
       xlink:href="#linearGradient3837"
       id="radialGradient3843"
       cx="303.71943"
       cy="397.17727"
       fx="303.71943"
       fy="397.17727"
       r="0.79621875"
       gradientTransform="matrix(1,0,0,2.5768702,-372.5,-950.79699)"
       gradientUnits="userSpaceOnUse" />
    <filter
       inkscape:collect="always"
       id="filter3420">
      <feGaussianBlur
         inkscape:collect="always"
         stdDeviation="1.110954"
         id="feGaussianBlur3422" />
    </filter>
    <clipPath
       clipPathUnits="userSpaceOnUse"
       id="clipPath3429">
      <path
         style="fill:none;fill-opacity:0.75;fill-rule:evenodd;stroke:#000000;stroke-width:1px;stroke-linecap:butt;stroke-linejoin:miter;stroke-opacity:1"
         d="M 303.70236,398.81874 L 303.52558,385.56049 L 306.17724,378.31265 L 311.48054,376.54488 L 319.96582,379.19653 L 327.39044,380.61074 L 334.63828,376.89843 L 339.94158,376.89843 L 343.65389,382.02496 L 345.59844,390.15668 L 345.42166,395.45998 L 345.77521,397.40453 L 337.99704,382.37851 L 328.4511,386.09082 L 321.55681,386.2676 L 311.12698,381.31785 L 303.70236,398.81874 z "
         id="path3431" />
    </clipPath>
    <linearGradient
       inkscape:collect="always"
       id="linearGradient3433">
      <stop
         style="stop-color:#ffffff;stop-opacity:1;"
         offset="0"
         id="stop3435" />
      <stop
         style="stop-color:#ffffff;stop-opacity:0;"
         offset="1"
         id="stop3437" />
    </linearGradient>
    <linearGradient
       inkscape:collect="always"
       xlink:href="#linearGradient3433"
       id="linearGradient3439"
       x1="324.65039"
       y1="398.85446"
       x2="325.7691"
       y2="370.57019"
       gradientUnits="userSpaceOnUse" />
    <linearGradient
       inkscape:collect="always"
       id="linearGradient3368">
      <stop
         style="stop-color:#e5d3c3;stop-opacity:1;"
         offset="0"
         id="stop3370" />
      <stop
         style="stop-color:#e5d3c3;stop-opacity:0;"
         offset="1"
         id="stop3372" />
    </linearGradient>
    <radialGradient
       inkscape:collect="always"
       xlink:href="#linearGradient3368"
       id="radialGradient3374"
       cx="332.49338"
       cy="369.61789"
       fx="332.49338"
       fy="369.61789"
       r="22.779817"
       gradientTransform="matrix(-0.7020433,-0.1106778,8.3859807e-2,-0.5312371,265.2384,247.24451)"
       gradientUnits="userSpaceOnUse" />
    <filter
       inkscape:collect="always"
       x="-0.028506439"
       width="1.0570129"
       y="-0.10615479"
       height="1.2123096"
       id="filter3479">
      <feGaussianBlur
         inkscape:collect="always"
         stdDeviation="0.4439284"
         id="feGaussianBlur3481" />
    </filter>
    <linearGradient
       inkscape:collect="always"
       id="linearGradient3489">
      <stop
         style="stop-color:#765c44;stop-opacity:1;"
         offset="0"
         id="stop3491" />
      <stop
         style="stop-color:#765c44;stop-opacity:0;"
         offset="1"
         id="stop3493" />
    </linearGradient>
    <linearGradient
       inkscape:collect="always"
       xlink:href="#linearGradient3489"
       id="linearGradient3495"
       x1="304.88664"
       y1="385.86126"
       x2="345.62039"
       y2="384.62384"
       gradientUnits="userSpaceOnUse" />
    <filter
       inkscape:collect="always"
       id="filter3625">
      <feGaussianBlur
         inkscape:collect="always"
         stdDeviation="0.34264273"
         id="feGaussianBlur3627" />
    </filter>
    <linearGradient
       inkscape:collect="always"
       id="linearGradient3499">
      <stop
         style="stop-color:#ffffff;stop-opacity:1;"
         offset="0"
         id="stop3501" />
      <stop
         style="stop-color:#ffffff;stop-opacity:0;"
         offset="1"
         id="stop3503" />
    </linearGradient>
    <linearGradient
       inkscape:collect="always"
       xlink:href="#linearGradient3499"
       id="linearGradient3505"
       x1="330.09335"
       y1="407.39011"
       x2="320.36423"
       y2="367.39182"
       gradientUnits="userSpaceOnUse"
       gradientTransform="translate(-372.5,-324.5)" />
    <filter
       inkscape:collect="always"
       x="-0.1148592"
       width="1.2297184"
       y="-0.086798316"
       height="1.1735966"
       id="filter3569">
      <feGaussianBlur
         inkscape:collect="always"
         stdDeviation="0.6238629"
         id="feGaussianBlur3571" />
    </filter>
    <linearGradient
       inkscape:collect="always"
       id="linearGradient3581">
      <stop
         style="stop-color:#dfcbba;stop-opacity:1;"
         offset="0"
         id="stop3583" />
      <stop
         style="stop-color:#dfcbba;stop-opacity:0;"
         offset="1"
         id="stop3585" />
    </linearGradient>
    <linearGradient
       inkscape:collect="always"
       xlink:href="#linearGradient3581"
       id="linearGradient3587"
       x1="353.44516"
       y1="390.86218"
       x2="339.76785"
       y2="373.61218"
       gradientUnits="userSpaceOnUse"
       gradientTransform="translate(-372.5,-324.5)" />
    <filter
       inkscape:collect="always"
       x="-0.18809821"
       width="1.3761964"
       y="-0.059054089"
       height="1.1181082"
       id="filter3775">
      <feGaussianBlur
         inkscape:collect="always"
         stdDeviation="0.26451311"
         id="feGaussianBlur3777" />
    </filter>
    <linearGradient
       id="linearGradient3397">
      <stop
         style="stop-color:#f4f5f8;stop-opacity:1;"
         offset="0"
         id="stop3399" />
      <stop
         style="stop-color:#fdfdfe;stop-opacity:1;"
         offset="1"
         id="stop3401" />
    </linearGradient>
    <linearGradient
       inkscape:collect="always"
       xlink:href="#linearGradient3397"
       id="linearGradient3403"
       x1="325.29688"
       y1="481.87405"
       x2="325.29688"
       y2="426.80276"
       gradientUnits="userSpaceOnUse"
       gradientTransform="matrix(1.0059645,0,0,1.0053055,-271.66684,-360.28069)" />
    <linearGradient
       inkscape:collect="always"
       id="linearGradient3516">
      <stop
         style="stop-color:#c8cddc;stop-opacity:1;"
         offset="0"
         id="stop3518" />
      <stop
         style="stop-color:#c8cddc;stop-opacity:0;"
         offset="1"
         id="stop3520" />
    </linearGradient>
    <linearGradient
       inkscape:collect="always"
       xlink:href="#linearGradient3516"
       id="linearGradient3522"
       x1="283.50647"
       y1="463.03894"
       x2="312.78384"
       y2="443.03894"
       gradientUnits="userSpaceOnUse"
       gradientTransform="translate(-372.5,-324.5)" />
    <filter
       inkscape:collect="always"
       id="filter4059">
      <feGaussianBlur
         inkscape:collect="always"
         stdDeviation="1.5449742"
         id="feGaussianBlur4061" />
    </filter>
    <clipPath
       clipPathUnits="userSpaceOnUse"
       id="clipPath4063">
      <path
         style="fill:#f4f5f8;fill-opacity:1;fill-rule:evenodd;stroke:none;stroke-width:1px;stroke-linecap:butt;stroke-linejoin:miter;stroke-opacity:1"
         d="M 410.16587,443.06739 C 399.92306,443.35352 396.79838,439.11371 395.91587,435.375 C 394.63808,435.58506 393.88204,436.60113 393.91587,437.375 C 386.83254,440.20988 378.26803,443.06735 370.66587,446.875 C 367.84405,448.28835 364.62926,452.59537 363.79087,454.875 C 361.23389,461.82756 358.41587,471.625 358.41587,471.625 L 359.91587,473.375 C 375.56063,482.28715 396.79503,481.875 410.16587,481.875 C 423.53671,481.875 444.77111,482.28715 460.41587,473.375 L 461.91587,471.625 C 461.91587,471.625 459.09785,461.82756 456.54087,454.875 C 455.70248,452.59537 452.48769,448.28835 449.66587,446.875 C 442.06371,443.06735 433.4992,440.20988 426.41587,437.375 C 426.4497,436.60113 425.69366,435.58506 424.41587,435.375 C 422.00224,439.11764 420.40868,442.78126 410.16587,443.06739 z "
         id="path4065"
         sodipodi:nodetypes="cccssccsccssccz" />
    </clipPath>
    <linearGradient
       inkscape:collect="always"
       id="linearGradient4067">
      <stop
         style="stop-color:#8d97b7;stop-opacity:1;"
         offset="0"
         id="stop4069" />
      <stop
         style="stop-color:#8d97b7;stop-opacity:0;"
         offset="1"
         id="stop4071" />
    </linearGradient>
    <linearGradient
       inkscape:collect="always"
       xlink:href="#linearGradient4067"
       id="linearGradient4073"
       x1="414.41586"
       y1="458.62646"
       x2="461.90625"
       y2="458.62648"
       gradientUnits="userSpaceOnUse" />
    <filter
       inkscape:collect="always"
       id="filter3393">
      <feGaussianBlur
         inkscape:collect="always"
         stdDeviation="0.49977699"
         id="feGaussianBlur3395" />
    </filter>
    <linearGradient
       inkscape:collect="always"
       id="linearGradient4126">
      <stop
         style="stop-color:#ffffff;stop-opacity:1;"
         offset="0"
         id="stop4128" />
      <stop
         style="stop-color:#ffffff;stop-opacity:0;"
         offset="1"
         id="stop4130" />
    </linearGradient>
    <linearGradient
       inkscape:collect="always"
       xlink:href="#linearGradient4126"
       id="linearGradient4132"
       x1="326"
       y1="476.40894"
       x2="310.53195"
       y2="429.73987"
       gradientUnits="userSpaceOnUse"
       gradientTransform="translate(-372.5,-324.5)" />
    <filter
       inkscape:collect="always"
       x="-0.020813678"
       width="1.0416274"
       y="-0.13193184"
       height="1.2638637"
       id="filter3283">
      <feGaussianBlur
         inkscape:collect="always"
         stdDeviation="0.60896269"
         id="feGaussianBlur3285" />
    </filter>
    <clipPath
       clipPathUnits="userSpaceOnUse"
       id="clipPath3289">
      <path
         id="path3291"
         d="M 463.75,435.375 C 462.47221,435.58506 461.71617,436.60113 461.75,437.375 C 461.67075,437.40672 460.87251,438.49769 460.79289,438.52941 C 462.04491,442.53121 465.95016,446.80149 477.54289,446.49816 C 489.04307,446.19726 493.45299,441.22873 494.71875,437.5625 C 494.5676,437.5025 494.39985,437.43497 494.25,437.375 C 494.28383,436.60113 493.52779,435.58506 492.25,435.375 C 489.83637,439.11764 488.24281,442.77637 478,443.0625 C 467.75719,443.34864 464.63251,439.11371 463.75,435.375 z M 459.125,438.40625 C 453.68198,440.50508 447.66707,442.67009 441.90625,445.28125 C 447.80188,443.05208 453.52791,442.11601 458.76072,440.15441 C 458.75013,439.92745 459.01107,438.6493 459.125,438.40625 z M 497.46875,438.625 C 497.52198,438.79302 497.56984,438.93659 497.5625,439.09375 C 501.77057,440.67121 506.39991,442.24968 511.125,443.96875 C 506.49146,442.00962 501.81994,440.29346 497.46875,438.625 z "
         style="fill:#f4f5f8;fill-opacity:1;fill-rule:evenodd;stroke:#98a2bf;stroke-width:1px;stroke-linecap:butt;stroke-linejoin:miter;stroke-opacity:1;filter:url(#filter3283)"
         sodipodi:nodetypes="cccscccsccccccccc" />
    </clipPath>
    <linearGradient
       inkscape:collect="always"
       xlink:href="#linearGradient3343"
       id="linearGradient3349"
       x1="315.72318"
       y1="453.0892"
       x2="290.62091"
       y2="434.35086"
       gradientUnits="userSpaceOnUse"
       gradientTransform="translate(-372.5,-324.5)" />
    <filter
       inkscape:collect="always"
       x="-0.083255699"
       width="1.1665114"
       y="-0.42668505"
       height="1.8533701"
       id="filter3339">
      <feGaussianBlur
         inkscape:collect="always"
         stdDeviation="0.50285367"
         id="feGaussianBlur3341" />
    </filter>
    <linearGradient
       inkscape:collect="always"
       id="linearGradient3343">
      <stop
         style="stop-color:#bbc1d4;stop-opacity:1;"
         offset="0"
         id="stop3345" />
      <stop
         style="stop-color:#bbc1d4;stop-opacity:0;"
         offset="1"
         id="stop3347" />
    </linearGradient>
    <linearGradient
       inkscape:collect="always"
       xlink:href="#linearGradient3343"
       id="linearGradient3359"
       gradientUnits="userSpaceOnUse"
       gradientTransform="translate(58.5,26.5)"
       x1="315.72318"
       y1="453.0892"
       x2="290.62091"
       y2="434.35086" />
    <filter
       inkscape:collect="always"
       id="filter3493">
      <feGaussianBlur
         inkscape:collect="always"
         stdDeviation="1.105682"
         id="feGaussianBlur3495" />
    </filter>
    <linearGradient
       inkscape:collect="always"
       id="linearGradient3508">
      <stop
         style="stop-color:#c8cddc;stop-opacity:1;"
         offset="0"
         id="stop3510" />
      <stop
         style="stop-color:#c8cddc;stop-opacity:0;"
         offset="1"
         id="stop3512" />
    </linearGradient>
    <linearGradient
       inkscape:collect="always"
       xlink:href="#linearGradient3508"
       id="linearGradient3514"
       x1="270.50647"
       y1="482.53894"
       x2="299.28384"
       y2="441.53894"
       gradientUnits="userSpaceOnUse" />
    <filter
       inkscape:collect="always"
       x="-0.17129332"
       width="1.3425866"
       y="-0.074019866"
       height="1.1480397"
       id="filter3574">
      <feGaussianBlur
         inkscape:collect="always"
         stdDeviation="0.57604943"
         id="feGaussianBlur3576" />
    </filter>
    <linearGradient
       inkscape:collect="always"
       id="linearGradient3586">
      <stop
         style="stop-color:#000000;stop-opacity:1;"
         offset="0"
         id="stop3588" />
      <stop
         style="stop-color:#000000;stop-opacity:0;"
         offset="1"
         id="stop3590" />
    </linearGradient>
    <linearGradient
       inkscape:collect="always"
       xlink:href="#linearGradient3586"
       id="linearGradient3592"
       x1="313.74829"
       y1="444.45746"
       x2="305.67725"
       y2="463.13513"
       gradientUnits="userSpaceOnUse"
       gradientTransform="translate(-372.5,-324.5)" />
    <linearGradient
       inkscape:collect="always"
       id="linearGradient3578">
      <stop
         style="stop-color:#c8cddc;stop-opacity:1;"
         offset="0"
         id="stop3580" />
      <stop
         style="stop-color:#c8cddc;stop-opacity:0;"
         offset="1"
         id="stop3582" />
    </linearGradient>
    <linearGradient
       inkscape:collect="always"
       xlink:href="#linearGradient3578"
       id="linearGradient3584"
       x1="313.74829"
       y1="444.45746"
       x2="305.67725"
       y2="463.13513"
       gradientUnits="userSpaceOnUse"
       gradientTransform="translate(-372.5,-324.5)" />
    <linearGradient
       inkscape:collect="always"
       id="linearGradient3279"
       x1="338.62283"
       y1="457.90872"
       gradientTransform="translate(-95.225391,0)"
       x2="339.51855"
       gradientUnits="userSpaceOnUse"
       xlink:href="#linearGradient3215"
       y2="502.82175" />
    <linearGradient
       id="linearGradient3163">
      <stop
         offset="0"
         id="stop3165"
         style="stop-color:#fff5e4;stop-opacity:1;" />
      <stop
         offset="0.25"
         id="stop3173"
         style="stop-color:#ffecd0;stop-opacity:1;" />
      <stop
         offset="0.5"
         id="stop3171"
         style="stop-color:#ffd390;stop-opacity:1;" />
      <stop
         offset="1"
         id="stop3167"
         style="stop-color:#ffc46a;stop-opacity:1;" />
    </linearGradient>
    <linearGradient
       id="linearGradient3215">
      <stop
         offset="0"
         id="stop3217"
         style="stop-color:#671800;stop-opacity:1;" />
      <stop
         offset="1"
         id="stop3219"
         style="stop-color:#7b3900;stop-opacity:0;" />
    </linearGradient>
    <linearGradient
       id="linearGradient3733">
      <stop
         offset="0"
         id="stop3735"
         style="stop-color:#e2e2e2;stop-opacity:1;" />
      <stop
         offset="1"
         id="stop3737"
         style="stop-color:#ffffff;stop-opacity:1;" />
    </linearGradient>
    <linearGradient
       inkscape:collect="always"
       xlink:href="#linearGradient3733"
       id="linearGradient4765"
       gradientTransform="matrix(0.5366445,0,0,1.8634309,-372.5,-324.5)"
       x1="563.64667"
       y1="214.96599"
       x2="568.9887"
       y2="214.96599"
       gradientUnits="userSpaceOnUse" />
    <filter
       inkscape:collect="always"
       id="filter3319">
      <feGaussianBlur
         inkscape:collect="always"
         stdDeviation="0.58883353"
         id="feGaussianBlur3321" />
    </filter>
    <linearGradient
       inkscape:collect="always"
       xlink:href="#linearGradient3163"
       id="linearGradient3330"
       x1="412.78592"
       y1="400.84558"
       x2="412.78592"
       y2="422.63611"
       gradientUnits="userSpaceOnUse" />
    <filter
       id="filter3256"
       inkscape:label="filter19">
      <feBlend
         blend="normal"
         id="feBlend3258"
         mode="multiply" />
    </filter>
    <radialGradient
       inkscape:collect="always"
       xlink:href="#linearGradient3654"
       id="radialGradient4001"
       gradientUnits="userSpaceOnUse"
       gradientTransform="matrix(0.696437,0,0,1.188967,-175.09425,-439.0428)"
       cx="312"
       cy="431.38034"
       fx="311.27777"
       fy="433.70554"
       r="16.25" />
    <radialGradient
       inkscape:collect="always"
       xlink:href="#linearGradient3654"
       id="radialGradient4003"
       gradientUnits="userSpaceOnUse"
       gradientTransform="matrix(-0.696437,0,0,1.188967,285.63744,-439.0428)"
       cx="312"
       cy="431.38034"
       fx="311.27777"
       fy="433.70554"
       r="16.25" />
    <radialGradient
       inkscape:collect="always"
       xlink:href="#linearGradient3149"
       id="radialGradient4005"
       gradientUnits="userSpaceOnUse"
       gradientTransform="matrix(1.0059645,0,0,1.4472234,-271.44676,-535.35257)"
       cx="324.39757"
       cy="396.09259"
       fx="330.04404"
       fy="392.75388"
       r="22.444886" />
    <linearGradient
       inkscape:collect="always"
       xlink:href="#linearGradient3163"
       id="linearGradient4007"
       gradientUnits="userSpaceOnUse"
       x1="412.78592"
       y1="400.84558"
       x2="412.78592"
       y2="422.63611" />
    <linearGradient
       inkscape:collect="always"
       xlink:href="#linearGradient3329"
       id="linearGradient4009"
       gradientUnits="userSpaceOnUse"
       gradientTransform="translate(-372.5,-324.5)"
       x1="317.01251"
       y1="431.1243"
       x2="331.42062"
       y2="418.65884" />
    <radialGradient
       inkscape:collect="always"
       xlink:href="#linearGradient3837"
       id="radialGradient4011"
       gradientUnits="userSpaceOnUse"
       gradientTransform="matrix(1,0,0,2.5768702,43.133514,-626.29699)"
       cx="303.71943"
       cy="397.17727"
       fx="303.71943"
       fy="397.17727"
       r="0.79621875" />
    <radialGradient
       inkscape:collect="always"
       xlink:href="#linearGradient3837"
       id="radialGradient4013"
       gradientUnits="userSpaceOnUse"
       gradientTransform="matrix(1,0,0,2.5768702,-372.5,-950.79699)"
       cx="303.71943"
       cy="397.17727"
       fx="303.71943"
       fy="397.17727"
       r="0.79621875" />
    <linearGradient
       inkscape:collect="always"
       xlink:href="#linearGradient3433"
       id="linearGradient4015"
       gradientUnits="userSpaceOnUse"
       x1="324.65039"
       y1="398.85446"
       x2="325.7691"
       y2="370.57019" />
    <radialGradient
       inkscape:collect="always"
       xlink:href="#linearGradient3368"
       id="radialGradient4017"
       gradientUnits="userSpaceOnUse"
       gradientTransform="matrix(-0.7020433,-0.1106778,8.3859807e-2,-0.5312371,265.2384,247.24451)"
       cx="332.49338"
       cy="369.61789"
       fx="332.49338"
       fy="369.61789"
       r="22.779817" />
    <linearGradient
       inkscape:collect="always"
       xlink:href="#linearGradient3489"
       id="linearGradient4019"
       gradientUnits="userSpaceOnUse"
       x1="304.88664"
       y1="385.86126"
       x2="345.62039"
       y2="384.62384" />
    <linearGradient
       inkscape:collect="always"
       xlink:href="#linearGradient3499"
       id="linearGradient4021"
       gradientUnits="userSpaceOnUse"
       gradientTransform="translate(-372.5,-324.5)"
       x1="330.09335"
       y1="407.39011"
       x2="320.36423"
       y2="367.39182" />
    <linearGradient
       inkscape:collect="always"
       xlink:href="#linearGradient3581"
       id="linearGradient4023"
       gradientUnits="userSpaceOnUse"
       gradientTransform="translate(-372.5,-324.5)"
       x1="353.44516"
       y1="390.86218"
       x2="339.76785"
       y2="373.61218" />
    <linearGradient
       inkscape:collect="always"
       xlink:href="#linearGradient3733"
       id="linearGradient4025"
       gradientUnits="userSpaceOnUse"
       gradientTransform="matrix(0.5366445,0,0,1.8634309,-372.5,-324.5)"
       x1="563.64667"
       y1="214.96599"
       x2="568.9887"
       y2="214.96599" />
    <linearGradient
       inkscape:collect="always"
       xlink:href="#linearGradient3397"
       id="linearGradient4027"
       gradientUnits="userSpaceOnUse"
       gradientTransform="matrix(1.0059645,0,0,1.0053055,-271.66684,-360.28069)"
       x1="325.29688"
       y1="481.87405"
       x2="325.29688"
       y2="426.80276" />
    <linearGradient
       inkscape:collect="always"
       xlink:href="#linearGradient3516"
       id="linearGradient4029"
       gradientUnits="userSpaceOnUse"
       gradientTransform="translate(-372.5,-324.5)"
       x1="283.50647"
       y1="463.03894"
       x2="312.78384"
       y2="443.03894" />
    <linearGradient
       inkscape:collect="always"
       xlink:href="#linearGradient4067"
       id="linearGradient4031"
       gradientUnits="userSpaceOnUse"
       x1="414.41586"
       y1="458.62646"
       x2="461.90625"
       y2="458.62648" />
    <linearGradient
       inkscape:collect="always"
       xlink:href="#linearGradient4126"
       id="linearGradient4033"
       gradientUnits="userSpaceOnUse"
       gradientTransform="translate(-372.5,-324.5)"
       x1="326"
       y1="476.40894"
       x2="310.53195"
       y2="429.73987" />
    <linearGradient
       inkscape:collect="always"
       xlink:href="#linearGradient3343"
       id="linearGradient4035"
       gradientUnits="userSpaceOnUse"
       gradientTransform="translate(-372.5,-324.5)"
       x1="315.72318"
       y1="453.0892"
       x2="290.62091"
       y2="434.35086" />
    <linearGradient
       inkscape:collect="always"
       xlink:href="#linearGradient3343"
       id="linearGradient4037"
       gradientUnits="userSpaceOnUse"
       gradientTransform="translate(58.5,26.5)"
       x1="315.72318"
       y1="453.0892"
       x2="290.62091"
       y2="434.35086" />
    <linearGradient
       inkscape:collect="always"
       xlink:href="#linearGradient3508"
       id="linearGradient4039"
       gradientUnits="userSpaceOnUse"
       x1="270.50647"
       y1="482.53894"
       x2="299.28384"
       y2="441.53894" />
    <linearGradient
       inkscape:collect="always"
       xlink:href="#linearGradient3578"
       id="linearGradient4041"
       gradientUnits="userSpaceOnUse"
       gradientTransform="translate(-372.5,-324.5)"
       x1="313.74829"
       y1="444.45746"
       x2="305.67725"
       y2="463.13513" />
    <linearGradient
       inkscape:collect="always"
       xlink:href="#linearGradient3586"
       id="linearGradient4043"
       gradientUnits="userSpaceOnUse"
       gradientTransform="translate(-372.5,-324.5)"
       x1="313.74829"
       y1="444.45746"
       x2="305.67725"
       y2="463.13513" />
    <radialGradient
       inkscape:collect="always"
       xlink:href="#linearGradient4058"
       id="radialGradient4064"
       cx="59.444256"
       cy="104.55338"
       fx="59.444256"
       fy="104.55338"
       r="4"
       gradientTransform="matrix(12.986075,3.4796084,-2.0939094,7.814576,-493.0223,-933.7241)"
       gradientUnits="userSpaceOnUse" />
    <radialGradient
       inkscape:collect="always"
       xlink:href="#linearGradient4097"
       id="radialGradient4066"
       cx="60"
       cy="152.62862"
       fx="60"
       fy="152.62862"
       r="56"
       gradientTransform="matrix(1.824478,0,0,0.830789,-49.468681,-1.4757608)"
       gradientUnits="userSpaceOnUse" />
    <linearGradient
       inkscape:collect="always"
       xlink:href="#linearGradient4097"
       id="linearGradient4103"
       x1="112"
       y1="32"
       x2="112"
       y2="0"
       gradientUnits="userSpaceOnUse" />
    <linearGradient
       inkscape:collect="always"
       xlink:href="#linearGradient4113"
       id="linearGradient4119"
       x1="96"
       y1="56"
       x2="96"
       y2="112"
       gradientUnits="userSpaceOnUse" />
    <linearGradient
       inkscape:collect="always"
       xlink:href="#linearGradient4113"
       id="linearGradient4128"
       gradientUnits="userSpaceOnUse"
       x1="104"
       y1="0"
       x2="104"
       y2="24" />
  </defs>
  <metadata
     id="metadata2611">
    <rdf:RDF>
      <cc:Work
         rdf:about="">
        <dc:format>image/svg+xml</dc:format>
        <dc:type
           rdf:resource="http://purl.org/dc/dcmitype/StillImage" />
      </cc:Work>
    </rdf:RDF>
  </metadata>
  <g
     inkscape:groupmode="layer"
     id="layer1"
     inkscape:label="Livello 1">
    <path
       style="opacity:1;fill:#1c202c;fill-opacity:1;stroke:none;stroke-width:0.89999998;stroke-linecap:round;stroke-linejoin:round;stroke-miterlimit:4;stroke-dasharray:none;stroke-dashoffset:1.08779998;stroke-opacity:1"
       d="M 57.4375,4.125 C 52.48136,4.3641582 47.608494,6.1331064 43.65625,9.125 C 41.789372,11.428132 39.335468,13.321969 37.84375,15.90625 C 36.081916,19.24684 34.94196,22.932503 34.769185,26.71687 C 34.711602,29.623759 34.61284,32.556382 35.09375,35.4375 C 33.423096,35.518285 32.537671,37.60541 33.298916,39.004677 C 33.903034,42.299176 34.81404,45.610087 36.461384,48.536747 C 37.122002,49.418793 38.222578,49.97535 38.855528,50.873195 C 39.502516,52.518366 40.11012,54.176333 40.915005,55.753569 C 41.848966,57.843643 42.870762,59.892686 44,61.875 C 44.829178,66.273106 45.567795,70.86745 44.49837,75.291029 C 44.35195,76.310356 43.620908,77.123196 42.84375,77.6875 C 42.441253,78.28713 42.178208,79.124434 41.343381,79.158786 C 34.991153,81.492294 28.643405,83.866395 22.470568,86.645369 C 21.047153,87.365716 19.517117,87.940517 18.210453,88.852336 C 16.362456,90.385308 14.792694,92.261533 13.27923,94.081829 C 11.18847,97.93271 10.195805,102.25086 8.733235,106.35703 C 8.057112,108.65611 7.326866,110.94714 6.425364,113.16399 C 6.117588,114.6228 6.597015,116.2364 7.8125,117.125 C 8.802456,118.00384 9.751881,118.91792 11.027925,119.3552 C 15.951445,121.64079 21.292434,122.86149 26.625,123.75 C 32.090913,124.54944 37.573278,125.29896 43.086721,125.6812 C 51.558816,126.28861 60.063364,126.41548 68.549404,126.05437 C 77.213932,125.74032 85.858863,124.81268 94.39622,123.3066 C 98.65515,122.48654 102.90899,121.44655 106.88902,119.69611 C 108.04964,119.15544 109.28564,118.72142 110.11927,117.71205 C 111.03966,116.90627 112.08378,116.10141 112.28125,114.8125 C 112.90569,113.04017 111.76768,111.33844 111.37775,109.64915 C 109.74588,104.56071 108.37477,99.365288 106.125,94.5 C 105.35346,93.025827 103.98903,91.985561 102.90942,90.728874 C 101.64067,89.452739 100.348,88.148883 98.60298,87.560981 C 91.548716,84.23469 84.209436,81.580482 76.9375,78.78125 C 76.503707,78.157729 76.250359,77.315157 75.515663,77.00003 C 75.005938,76.676128 74.301456,76.444179 74.263586,75.754269 C 73.18139,73.042149 73.552607,70.043453 73.721564,67.20194 C 74.046379,64.263892 74.418457,61.276778 75.511895,58.514305 C 77.223838,55.300723 78.548258,51.89789 79.7702,48.476751 C 80.309623,47.442123 81.723754,46.677852 81.75,45.3125 C 83.157083,42.448435 83.801737,39.278912 84.34375,36.15625 C 84.288607,35.101582 83.506482,34.263803 82.5,34.03125 C 82.394568,33.223603 82.653591,32.403927 82.574567,31.581354 C 82.740925,26.90142 82.43785,22.043823 80.379178,17.756655 C 79.525675,15.66964 78.247414,13.810639 76.613716,12.259871 C 74.244127,9.752433 71.718518,7.197177 68.382342,6.0611823 C 64.943778,4.5754233 61.172876,3.9547058 57.4375,4.125 z"
       id="path4032" />
    <g
       transform="translate(214.92589,-100.31048)"
       id="g3232"
       inkscape:label="fill text" />
    <g
       transform="translate(214.92589,-100.31048)"
       id="g4591"
       inkscape:label="fill text" />
    <path
       d="M -259.40214,132.75622 L -259.40214,129.96151 L -259.40214,132.75622 z "
       id="path8227"
       style="fill:#ffffff;fill-opacity:0.75688076;fill-rule:nonzero;stroke:none;stroke-width:0.5;stroke-linecap:round;stroke-linejoin:round;stroke-miterlimit:4;stroke-dasharray:none;stroke-dashoffset:4;stroke-opacity:1"
       sodipodi:nodetypes="ccc" />
    <g
       id="g3164"
       transform="translate(4,0)">
      <path
         transform="matrix(0.9509804,0,0,1.5555555,-4.89563,-69.620313)"
         d="M 118.07128,118.07128 A 54.742138,7.2452831 0 1 1 8.5870018,118.07128 A 54.742138,7.2452831 0 1 1 118.07128,118.07128 z"
         sodipodi:ry="7.2452831"
         sodipodi:rx="54.742138"
         sodipodi:cy="118.07128"
         sodipodi:cx="63.32914"
         id="path2724"
         style="opacity:1;fill:#8994b5;fill-opacity:1;stroke:none;stroke-width:0.89999998;stroke-linecap:round;stroke-linejoin:round;stroke-miterlimit:4;stroke-dasharray:none;stroke-dashoffset:1.08779998;stroke-opacity:1;filter:url(#filter3319)"
         sodipodi:type="arc" />
      <path
         transform="matrix(1.0059645,0,0,1.0053055,103.05489,-34.059089)"
         style="fill:#c8cddc;fill-opacity:1;fill-rule:evenodd;stroke:none;stroke-width:1px;stroke-linecap:butt;stroke-linejoin:miter;stroke-opacity:1;filter:url(#filter3624)"
         d="M -98.9545,147.40533 L -97.80806,148.625 C -82.1633,157.53715 -61.37084,157.125 -48,157.125 C -34.62916,157.125 -13.39476,157.53715 2.25,148.625 L 3.75,146.875 C -29.1808,121.09132 -85.02254,99.65662 -98.9545,147.40533 z"
         id="path3259"
         sodipodi:nodetypes="ccsccc" />
      <path
         style="fill:#ddc2a4;fill-opacity:1;fill-rule:evenodd;stroke:none;stroke-width:1px;stroke-linecap:butt;stroke-linejoin:miter;stroke-opacity:1"
         d="M 73.403249,48.295662 C 75.326591,48.132728 77.202494,46.774382 79.36058,36.655358 C 79.569427,34.548685 76.758714,34.349249 76.604207,36.21107 C 74.514395,40.239272 73.598719,44.267481 73.403249,48.295662 z"
         id="path3845"
         sodipodi:nodetypes="cccc" />
      <path
         sodipodi:nodetypes="cccc"
         id="path3715"
         d="M 35.980896,49.717379 C 34.05755,49.554445 32.181647,48.196065 30.023562,38.077086 C 29.814714,35.970412 32.625427,35.770949 32.779934,37.632798 C 34.869746,41.661 35.785426,45.689164 35.980896,49.717379 z"
         style="fill:#ddc2a4;fill-opacity:1;fill-rule:evenodd;stroke:none;stroke-width:1px;stroke-linecap:butt;stroke-linejoin:miter;stroke-opacity:1" />
      <path
         sodipodi:nodetypes="cccccccc"
         id="path3629"
         d="M 38.924665,51.517533 C 40.446902,58.75809 44.700149,75.038049 39.427648,78.912104 C 40.077973,85.949027 46.548466,88.607199 54.517111,90.158961 L 56.026059,90.158961 C 63.994707,88.607199 70.465197,85.949027 71.115526,78.912104 C 65.843025,75.038049 70.096272,58.75809 71.618505,51.517533 L 55.271589,58.963065 L 38.924665,51.517533 z"
         style="fill:#cbb7a2;fill-opacity:1;fill-rule:evenodd;stroke:none;stroke-width:1px;stroke-linecap:butt;stroke-linejoin:miter;stroke-opacity:1" />
      <path
         style="fill:url(#radialGradient3660);fill-opacity:1;fill-rule:evenodd;stroke:none;stroke-width:1px;stroke-linecap:butt;stroke-linejoin:miter;stroke-opacity:1"
         d="M 38.924665,51.517533 C 40.446902,58.75809 44.700149,75.038049 39.427648,78.912104 C 40.077973,85.949027 46.548466,88.607199 54.517111,90.158961 L 56.026059,90.158961 C 63.994707,88.607199 70.465197,85.949027 71.115526,78.912104 C 65.843025,75.038049 70.096272,58.75809 71.618505,51.517533 L 55.271589,58.963065 L 38.924665,51.517533 z"
         id="path3634"
         sodipodi:nodetypes="cccccccc" />
      <path
         sodipodi:nodetypes="cccccccc"
         id="path3672"
         d="M 71.618505,51.517533 C 70.096272,58.75809 65.843025,75.038049 71.115526,78.912104 C 70.465197,85.949027 63.994707,88.607199 56.026059,90.158961 L 54.517111,90.158961 C 46.548466,88.607199 40.077973,85.949027 39.427648,78.912104 C 44.700149,75.038049 40.446902,58.75809 38.924665,51.517533 L 55.271589,58.963065 L 71.618505,51.517533 z"
         style="opacity:0.74906365;fill:url(#radialGradient3674);fill-opacity:1;fill-rule:evenodd;stroke:none;stroke-width:1px;stroke-linecap:butt;stroke-linejoin:miter;stroke-opacity:1" />
      <path
         transform="matrix(1.0059645,0,0,1.0053055,-271.46562,-360.28069)"
         clip-path="url(#clipPath3705)"
         style="fill:#382509;fill-opacity:1;fill-rule:evenodd;stroke:none;stroke-width:1px;stroke-linecap:butt;stroke-linejoin:miter;stroke-opacity:1;filter:url(#filter3694)"
         d="M 324.17882,363.78125 C 316.40226,363.98625 310.30111,369.64178 307.17257,376.59375 C 303.98585,383.67496 304.44976,392.13001 306.36007,401.90625 C 308.27039,411.68248 311.64834,421.85281 314.83507,425.53125 C 317.85547,429.0177 321.72431,428.38757 324.17882,428.3125 C 324.30462,428.3125 324.48116,428.30837 324.61632,428.3125 C 327.07083,428.38757 330.93967,429.0177 333.96007,425.53125 C 337.1468,421.85281 341.52475,411.68248 343.43507,401.90625 C 345.3454,392.13001 345.80929,383.67496 342.62257,376.59375 C 339.49402,369.64178 332.39288,363.98625 324.61632,363.78125 L 324.17882,363.78125 z"
         id="path3676"
         sodipodi:nodetypes="csssssssscc" />
      <path
         sodipodi:nodetypes="csssssssscc"
         id="path2169"
         d="M 54.665563,5.3991564 C 46.842622,5.6052254 37.787786,11.290762 34.640587,18.279618 C 31.43486,25.39839 31.901537,33.898301 33.823241,43.72642 C 35.744955,53.554519 42.060349,63.778772 45.266082,67.47675 C 48.304499,70.981692 52.196412,70.348223 54.665563,70.272743 C 54.792112,70.272743 54.969705,70.268614 55.105673,70.272743 C 57.574824,70.348223 61.466737,70.981692 64.505154,67.47675 C 67.710887,63.778772 74.026281,53.554519 75.947995,43.72642 C 77.869723,33.898301 78.336376,25.39839 75.130649,18.279618 C 71.98344,11.290762 62.928614,5.6052254 55.105673,5.3991564 L 54.665563,5.3991564 z"
         style="fill:url(#radialGradient3155);fill-opacity:1;fill-rule:evenodd;stroke:none;stroke-width:1px;stroke-linecap:butt;stroke-linejoin:miter;stroke-opacity:1" />
      <path
         transform="matrix(1.0059645,0,0,1.0053055,-360.33441,-359.22512)"
         mask="url(#mask3287)"
         style="fill:url(#linearGradient3330);fill-opacity:1;fill-rule:evenodd;stroke:none;stroke-width:1px;stroke-linecap:butt;stroke-linejoin:miter;stroke-opacity:1"
         d="M 391.84841,400.84559 C 395.5265,410.97537 400.03668,420.79215 403.22341,424.47059 C 406.24381,427.95704 410.11265,427.32691 412.56716,427.25184 C 412.69296,427.25184 412.8695,427.24771 413.00466,427.25184 C 415.45917,427.32691 419.32801,427.95704 422.34841,424.47059 C 425.53514,420.79215 430.39888,410.62182 433.72341,400.84559 L 391.84841,400.84559 z"
         id="path3157"
         sodipodi:nodetypes="csssscc" />
      <path
         transform="matrix(1.0059645,0,0,1.0053055,103.05489,-34.059089)"
         sodipodi:nodetypes="ccssscssssc"
         id="path3161"
         d="M -34.57938,94.15885 C -36.60974,97.79098 -37.62278,97.4605 -39.6875,99.96875 C -42.55362,103.27713 -46.48338,102.22748 -48.8125,102.15625 C -48.94075,102.15234 -49.09939,102.15624 -49.21875,102.15625 C -51.5479,102.22749 -55.52764,102.8396 -58.39375,99.53125 C -58.7164,99.15883 -59.10666,98.69226 -59.4875,98.1875 C -58.74735,99.25458 -58.00114,100.20997 -57.425,100.875 C -54.55888,104.18335 -50.61038,103.57124 -48.28125,103.5 C -48.16189,103.50001 -47.97201,103.49608 -47.84375,103.5 C -45.51464,103.57125 -41.86612,104.18336 -39,100.875 C -37.5985,99.25724 -36.58252,97.77257 -34.57938,94.15885 z"
         style="opacity:1;fill:url(#linearGradient3335);fill-opacity:1;fill-rule:evenodd;stroke:none;stroke-width:1px;stroke-linecap:butt;stroke-linejoin:miter;stroke-opacity:1;filter:url(#filter3325)" />
      <path
         transform="matrix(-1.0059645,0,0,1.0053055,424.44171,-361.70241)"
         style="fill:url(#radialGradient3853);fill-opacity:1;fill-rule:evenodd;stroke:none;stroke-width:1px;stroke-linecap:butt;stroke-linejoin:miter;stroke-opacity:1;filter:url(#filter3833)"
         d="M 347.29991,395.43789 C 347.20744,394.69928 346.14533,395.38264 346.06247,396.32177 C 345.97961,397.2609 346.81711,399.53599 346.96846,399.19439 C 348.18061,396.45862 347.43118,396.48647 347.29991,395.43789 z"
         id="path3849"
         sodipodi:nodetypes="csss" />
      <path
         transform="matrix(1.0059645,0,0,1.0053055,103.05489,-34.059089)"
         sodipodi:nodetypes="csss"
         id="path3779"
         d="M -68.3336,70.93789 C -68.42607,70.19928 -69.48818,70.88264 -69.57104,71.82177 C -69.6539,72.7609 -68.8164,75.03599 -68.66505,74.69439 C -67.4529,71.95862 -68.20233,71.98647 -68.3336,70.93789 z"
         style="fill:url(#radialGradient3843);fill-opacity:1;fill-rule:evenodd;stroke:none;stroke-width:1px;stroke-linecap:butt;stroke-linejoin:miter;stroke-opacity:1;filter:url(#filter3833)" />
      <path
         transform="matrix(1.0059645,0,0,1.0053055,-271.84166,-360.28069)"
         clip-path="url(#clipPath3429)"
         style="opacity:1;fill:url(#linearGradient3439);fill-opacity:1;stroke:none;stroke-width:0;stroke-linecap:round;stroke-linejoin:round;stroke-miterlimit:4;stroke-dasharray:none;stroke-dashoffset:1.08779998;stroke-opacity:1;filter:url(#filter3420)"
         d="M 324.5,363.375 C 311.942,363.375 301.75001,373.56701 301.75,386.125 C 301.75,389.62206 301.40798,393.09067 302.8197,396.05178 L 304,396.91529 C 306.57247,392.37122 304.92256,388.81578 306,384.875 C 307,382.375 308.58874,380.212 311,379.375 C 315.29826,377.88299 321.81729,383.55368 324.5,383.625 C 327.40006,383.70209 333.55852,378.27854 337.96875,379.575 C 340.40504,380.29118 342.40902,382.5821 342.96875,385.075 C 344.01673,389.74243 344.56428,391.33155 344.97135,396.35463 L 346.15441,395.75 C 347.52866,392.82109 347.25,389.57242 347.25,386.125 C 347.25,373.567 337.05801,363.37501 324.5,363.375 z"
         id="path3380"
         sodipodi:nodetypes="cscccssssccsc" />
      <path
         sodipodi:nodetypes="cscccssssccsc"
         id="path3347"
         d="M 54.768603,5.0221546 C 42.135704,5.0221546 31.882927,15.26824 31.882916,27.892857 C 31.882916,31.408457 31.538854,34.895464 32.958997,37.87231 L 34.146335,38.740385 C 36.734148,34.172199 35.074397,30.095258 36.158265,26.133565 C 37.16423,23.620296 38.762444,21.445824 41.188084,20.604384 C 45.511983,19.104468 52.069894,24.805242 54.768603,24.876946 C 57.685961,24.954449 63.88115,22.741394 68.317684,24.044716 C 70.768506,24.764708 72.78444,27.067776 73.347506,29.573896 C 74.401737,34.266089 74.952554,33.127016 75.362053,38.176749 L 76.552169,37.568904 C 77.934615,34.624465 77.654292,31.358569 77.654292,27.892857 C 77.654292,15.26824 67.401515,5.0221546 54.768603,5.0221546 z"
         style="opacity:1;fill:#b09278;fill-opacity:1;stroke:none;stroke-width:0;stroke-linecap:round;stroke-linejoin:round;stroke-miterlimit:4;stroke-dasharray:none;stroke-dashoffset:1.08779998;stroke-opacity:1" />
      <path
         style="opacity:1;fill:url(#radialGradient3374);fill-opacity:1;stroke:none;stroke-width:0;stroke-linecap:round;stroke-linejoin:round;stroke-miterlimit:4;stroke-dasharray:none;stroke-dashoffset:1.08779998;stroke-opacity:1"
         d="M 54.768603,5.0221546 C 46.69594,9.4065202 45.000549,12.012847 41.188084,20.604384 C 45.511983,19.104468 52.069894,24.805242 54.768603,24.876946 C 57.685961,24.954449 64.472845,22.365108 68.909379,23.668429 C 71.360201,24.388422 73.376135,26.69149 73.939201,29.19761 C 74.993431,33.889803 74.952554,33.127016 75.362053,38.176749 L 76.552169,37.568904 C 77.934615,34.624465 77.654292,31.358569 77.654292,27.892857 C 77.654292,15.26824 67.401515,5.0221546 54.768603,5.0221546 z"
         id="path3358"
         sodipodi:nodetypes="ccsssccsc" />
      <path
         mask="none"
         transform="matrix(1.0059645,0,0,1.0053055,-272.17782,-360.28069)"
         clip-path="none"
         sodipodi:nodetypes="cscccsssccssc"
         id="path3441"
         d="M 312.54197,377.13598 C 311.94712,377.10972 311.3605,377.18074 310.82322,377.35473 C 308.41196,378.1356 306.38128,380.96011 305.38128,383.43684 C 304.45516,387.61524 305.77474,389.38257 304.88664,394.59185 C 305.73369,391.56142 305.58479,385.07509 305.82322,384.16723 C 306.82322,381.66722 308.41196,379.50423 310.82322,378.66723 C 315.12148,377.17521 321.64051,382.84591 324.32322,382.91723 C 327.22328,382.99431 333.38174,380.79295 337.79197,382.08941 C 340.22826,382.80558 342.23224,385.09651 342.79197,387.58941 L 342.79197,387.02691 C 342.23224,384.52098 340.22826,382.17481 337.79197,381.40191 C 333.38174,380.00277 327.66522,380.73602 324.76516,380.5914 C 322.41779,380.47435 316.70593,377.31977 312.54197,377.13598 z"
         style="opacity:1;fill:url(#linearGradient3495);fill-opacity:1;stroke:none;stroke-width:0;stroke-linecap:round;stroke-linejoin:round;stroke-miterlimit:4;stroke-dasharray:none;stroke-dashoffset:1.08779998;stroke-opacity:1;filter:url(#filter3479)" />
      <path
         transform="matrix(1.0059645,0,0,1.0053055,103.05489,-34.059089)"
         sodipodi:nodetypes="csscccc"
         id="path3497"
         d="M -39.6875,56.221855 C -34.197148,56.024377 -45.05967,54.50166 -48.70706,53.9205 C -54.598622,52.981763 -62.45595,49.86348 -63.54855,46.95471 C -64.26371,45.0508 -58.65655,42.18952 -59,43.11218 C -59.65577,44.97451 -60.47583,46.68051 -55.875,50.73718 C -53.57302,52.51447 -50.99506,54.57645 -47.5,54.86218 C -45,55.12995 -42.1875,56.694245 -39.6875,56.221855 z"
         style="opacity:0.88014981;fill:url(#linearGradient3505);fill-opacity:1;fill-rule:evenodd;stroke:none;stroke-width:1px;stroke-linecap:butt;stroke-linejoin:miter;stroke-opacity:1;filter:url(#filter3625)" />
      <path
         transform="matrix(1.0059645,0,0,1.0053055,102.2077,-34.059089)"
         sodipodi:nodetypes="cccccc"
         id="path3535"
         d="M -29.75,50.61218 L -27.5,55.11218 C -25.97108,61.25336 -26.57755,60.4695 -26.76517,63.44536 C -28.54202,59.02869 -27.22154,56.27885 -33,53.11218 L -39.25,49.11218 L -29.75,50.61218 z"
         style="fill:url(#linearGradient3587);fill-opacity:1;fill-rule:evenodd;stroke:none;stroke-width:1px;stroke-linecap:butt;stroke-linejoin:miter;stroke-opacity:1;filter:url(#filter3569)" />
      <path
         transform="matrix(1.0059645,0,0,1.0053055,103.05489,-34.059089)"
         sodipodi:nodetypes="ccsccc"
         id="path3717"
         d="M -68.53033,81.05152 L -67.15533,78.55152 C -67.15533,78.55152 -68.40533,75.42652 -68.40533,74.55152 C -68.40533,73.67652 -69.29419,71.09702 -69.29419,71.09702 L -70.0221,71.56734 L -68.53033,81.05152 z"
         style="opacity:0.33333333;fill:url(#linearGradient4765);fill-opacity:1;fill-rule:evenodd;stroke:none;stroke-width:1px;stroke-linecap:butt;stroke-linejoin:miter;stroke-opacity:1;filter:url(#filter3775)" />
      <path
         sodipodi:nodetypes="cccssccsccssccz"
         id="path3875"
         d="M 55.570237,85.133393 C 45.266337,85.421039 42.123018,81.158743 41.235247,77.400215 C 39.949833,77.611383 39.189287,78.632852 39.223317,79.410814 C 32.097741,82.260716 23.482148,85.133393 15.834648,88.96121 C 12.995998,90.382067 9.762032,94.71193 8.918643,97.003673 C 6.346411,103.99312 3.511582,113.84251 3.511582,113.84251 L 5.02053,115.60183 C 20.7586,124.56125 42.119651,124.14693 55.570237,124.14693 C 69.020825,124.14693 90.381876,124.56125 106.11994,115.60183 L 107.62889,113.84251 C 107.62889,113.84251 104.79406,103.99312 102.22183,97.003673 C 101.37844,94.71193 98.14448,90.382067 95.30583,88.96121 C 87.658325,85.133393 79.042732,82.260716 71.917156,79.410814 C 71.95119,78.632852 71.19064,77.611383 69.905226,77.400215 C 67.477204,81.1627 65.874139,84.845747 55.570237,85.133393 z"
         style="fill:url(#linearGradient3403);fill-opacity:1;fill-rule:evenodd;stroke:none;stroke-width:1px;stroke-linecap:butt;stroke-linejoin:miter;stroke-opacity:1" />
      <path
         transform="matrix(1.0059645,0,0,1.0053055,103.05489,-34.059089)"
         sodipodi:nodetypes="ccccccscc"
         id="path3451"
         d="M -78.34358,152.98437 C -82.26083,139.96479 -83.8395,133.15234 -74.80805,126.11431 L -55.71616,120.45745 L -64.20144,114.0935 L -84.00043,121.87167 L -94.60703,134.59959 C -94.60703,134.59959 -98.84968,144.49909 -96.02125,145.9133 C -93.19282,147.32752 -86.12175,151.57016 -86.12175,151.57016 L -78.34358,152.98437 z"
         style="opacity:0.32209742;fill:url(#linearGradient3522);fill-opacity:1;fill-rule:evenodd;stroke:none;stroke-width:1px;stroke-linecap:butt;stroke-linejoin:miter;stroke-opacity:1;filter:url(#filter3493)" />
      <path
         sodipodi:nodetypes="ccssccsccssccscsccssccsccssccc"
         transform="matrix(1.0059645,0,0,1.0053055,-357.03287,-360.28069)"
         clip-path="url(#clipPath4063)"
         id="path3885"
         d="M 395.90625,435.375 C 394.62847,435.58506 393.87242,436.60113 393.90625,437.375 C 386.82293,440.20988 378.25841,443.06735 370.65625,446.875 C 367.83444,448.28835 364.61964,452.59537 363.78125,454.875 C 361.22428,461.82756 358.40625,471.625 358.40625,471.625 L 359.90625,473.375 C 375.55102,482.28715 396.78541,481.875 410.15625,481.875 C 423.5271,481.875 444.76149,482.28715 460.40625,473.375 L 461.90625,471.625 C 461.90626,471.625 459.08823,461.82756 456.53125,454.875 C 455.69287,452.59537 452.47807,448.28835 449.65625,446.875 C 442.0541,443.06735 433.48958,440.20988 426.40625,437.375 C 426.44009,436.60113 425.68404,435.58506 424.40625,435.375 C 421.99263,439.11764 420.39906,442.77637 410.15625,443.0625 C 409.51607,443.08038 408.89826,443.07875 408.3125,443.0625 C 409.11493,443.10929 409.95672,443.15082 410.875,443.125 C 420.66635,442.84975 422.19276,439.31912 424.5,435.71875 C 425.72147,435.92083 426.43858,436.91179 426.40625,437.65625 C 433.17737,440.38336 441.3579,443.11836 448.625,446.78125 C 451.32245,448.14088 454.41732,452.30704 455.21875,454.5 C 457.66304,461.18826 460.34374,470.59377 460.34375,470.59375 L 458.90625,472.28125 C 443.95103,480.85461 423.65651,480.46874 410.875,480.46875 C 398.09347,480.46875 376.29635,482.09204 361.34115,473.51869 L 359.81526,470.50536 C 359.81526,470.50536 363.55664,455.53141 366.70803,453.26256 C 368.60286,451.89837 370.42755,448.14089 373.125,446.78125 C 380.3921,443.11835 388.57262,440.38336 395.34375,437.65625 C 395.32311,437.18111 395.59714,436.5903 396.125,436.1875 C 396.03832,435.91957 395.96873,435.63969 395.90625,435.375 z"
         style="fill:url(#linearGradient4073);fill-opacity:1;fill-rule:evenodd;stroke:none;stroke-width:1px;stroke-linecap:butt;stroke-linejoin:miter;stroke-opacity:1;filter:url(#filter4059)" />
      <path
         transform="matrix(1.0059645,0,0,1.0053055,103.05489,-34.059089)"
         sodipodi:nodetypes="cccccscccscc"
         id="path3880"
         d="M -84.125,124.875 L -85.125,126.625 C -81.08786,134.7426 -79.91837,144.77197 -77.6875,154.09375 C -84.67104,152.87559 -91.41593,150.84084 -97.5,147.375 L -97.5,147.8125 C -81.85523,156.72466 -60.62084,156.3125 -47.25,156.3125 C -33.87915,156.31251 -12.64476,156.72465 3,147.8125 L 4.5,146.0625 L 2.666559,147.54655 C -12.978191,156.45871 -33.87916,156.00881 -47.25,156.00881 C -54.70098,156.00881 -64.58699,155.42889 -74.59375,154 C -77.77083,139.60839 -80.94792,131.83413 -84.125,124.875 z"
         style="fill:url(#linearGradient4132);fill-opacity:1;fill-rule:evenodd;stroke:none;stroke-width:1px;stroke-linecap:butt;stroke-linejoin:miter;stroke-opacity:1;filter:url(#filter3393)" />
      <path
         sodipodi:nodetypes="cccscccsccccc"
         transform="matrix(1.0059645,0,0,1.0053055,-425.2807,-360.27676)"
         clip-path="url(#clipPath3289)"
         id="path3261"
         d="M 463.75,435.375 C 462.47221,435.58506 461.71617,436.60113 461.75,437.375 C 461.67075,437.40672 461.57962,437.43703 461.5,437.46875 C 462.75202,441.47055 466.65727,445.74083 478.25,445.4375 C 489.75018,445.1366 492.07799,441.47873 494.71875,437.5625 C 494.5676,437.5025 494.39985,437.43497 494.25,437.375 C 494.28383,436.60113 493.52779,435.58506 492.25,435.375 C 489.83637,439.11764 488.24281,442.77637 478,443.0625 C 467.75719,443.34864 464.63251,439.11371 463.75,435.375 z M 497.46875,438.625 C 497.52198,438.79302 497.56984,438.93659 497.5625,439.09375 C 501.77057,440.67121 506.39991,442.24968 511.125,443.96875 C 506.49146,442.00962 501.81994,440.29346 497.46875,438.625 z"
         style="fill:#f4f5f8;fill-opacity:1;fill-rule:evenodd;stroke:#98a2bf;stroke-width:0.14528722;stroke-linecap:butt;stroke-linejoin:miter;stroke-miterlimit:4;stroke-dasharray:none;stroke-opacity:1;filter:url(#filter3283)" />
      <path
         transform="matrix(1.0059645,0,0,1.0053055,103.05489,-34.059089)"
         sodipodi:nodetypes="cccc"
         id="path3293"
         d="M -59.25169,118.68969 L -76.57581,119.3968 L -61.37302,117.27548 L -59.25169,118.68969 z"
         style="fill:url(#linearGradient3349);fill-opacity:1;fill-rule:evenodd;stroke:none;stroke-width:1px;stroke-linecap:butt;stroke-linejoin:miter;stroke-opacity:1;filter:url(#filter3339)" />
      <path
         sodipodi:nodetypes="cccc"
         id="path3357"
         d="M 371.74831,469.68969 L 354.42419,470.3968 L 369.62698,468.27548 L 371.74831,469.68969 z"
         style="fill:url(#linearGradient3359);fill-opacity:1;fill-rule:evenodd;stroke:none;stroke-width:1px;stroke-linecap:butt;stroke-linejoin:miter;stroke-opacity:1;filter:url(#filter3339)"
         transform="matrix(0.3417414,0.9455184,0.9461381,-0.3415175,-540.77608,-70.969975)" />
      <path
         transform="matrix(-1.0059645,0,0,1.0053055,383.00502,-360.28069)"
         style="opacity:0.32209742;fill:url(#linearGradient3514);fill-opacity:1;fill-rule:evenodd;stroke:none;stroke-width:1px;stroke-linecap:butt;stroke-linejoin:miter;stroke-opacity:1;filter:url(#filter3493)"
         d="M 294.15642,477.48437 C 290.23917,464.46479 288.6605,457.65234 297.69195,450.61431 L 316.78384,444.95745 L 308.29856,438.5935 L 288.49957,446.37167 L 277.89297,459.09959 C 277.89297,459.09959 273.65032,468.99909 276.47875,470.4133 C 279.30718,471.82752 286.37825,476.07016 286.37825,476.07016 L 294.15642,477.48437 z"
         id="path3498"
         sodipodi:nodetypes="ccccccscc" />
      <path
         transform="matrix(1.0059645,0,0,1.0053055,103.05489,-34.059089)"
         id="path3524"
         d="M -59.2517,120.45746 L -66.32276,138.13513 L -59.2517,120.45746 z"
         style="opacity:0.06367044;fill:url(#linearGradient3584);fill-opacity:1;fill-rule:evenodd;stroke:url(#linearGradient3592);stroke-width:0.29057443px;stroke-linecap:butt;stroke-linejoin:miter;stroke-opacity:1;filter:url(#filter3574)" />
    </g>
    <path
       sodipodi:nodetypes="ccc"
       id="path2276"
       d="M 215.3609,-31.057518 L 215.3609,-33.852227 L 215.3609,-31.057518 z"
       style="fill:#ffffff;fill-opacity:0.75688076;fill-rule:nonzero;stroke:none;stroke-width:0.5;stroke-linecap:round;stroke-linejoin:round;stroke-miterlimit:4;stroke-dasharray:none;stroke-dashoffset:4;stroke-opacity:1" />
    <path
       sodipodi:nodetypes="ccc"
       id="path1561"
       d="M 249.73645,22.336162 L 249.73645,20.809426 L 249.73645,22.336162 z"
       style="fill:#ffffff;fill-opacity:0.75688076;fill-rule:nonzero;stroke:none;stroke-width:0.5;stroke-linecap:round;stroke-linejoin:round;stroke-miterlimit:4;stroke-dasharray:none;stroke-dashoffset:4;stroke-opacity:1" />
    <g
       id="g3195"
       style="opacity:0.5476839;filter:url(#filter3256)"
       transform="translate(4,0)">
      <path
         sodipodi:type="arc"
         style="opacity:1;fill:#8994b5;fill-opacity:1;stroke:none;stroke-width:0.89999998;stroke-linecap:round;stroke-linejoin:round;stroke-miterlimit:4;stroke-dasharray:none;stroke-dashoffset:1.08779998;stroke-opacity:1;filter:url(#filter3319)"
         id="path3198"
         sodipodi:cx="63.32914"
         sodipodi:cy="118.07128"
         sodipodi:rx="54.742138"
         sodipodi:ry="7.2452831"
         d="M 118.07128,118.07128 A 54.742138,7.2452831 0 1 1 8.5870018,118.07128 A 54.742138,7.2452831 0 1 1 118.07128,118.07128 z"
         transform="matrix(0.9509804,0,0,1.5555555,-4.89563,-69.620313)" />
      <path
         sodipodi:nodetypes="ccsccc"
         id="path3200"
         d="M -98.9545,147.40533 L -97.80806,148.625 C -82.1633,157.53715 -61.37084,157.125 -48,157.125 C -34.62916,157.125 -13.39476,157.53715 2.25,148.625 L 3.75,146.875 C -29.1808,121.09132 -85.02254,99.65662 -98.9545,147.40533 z"
         style="fill:#c8cddc;fill-opacity:1;fill-rule:evenodd;stroke:none;stroke-width:1px;stroke-linecap:butt;stroke-linejoin:miter;stroke-opacity:1;filter:url(#filter3624)"
         transform="matrix(1.0059645,0,0,1.0053055,103.05489,-34.059089)" />
      <path
         sodipodi:nodetypes="cccc"
         id="path3202"
         d="M 73.403249,48.295662 C 75.326591,48.132728 77.202494,46.774382 79.36058,36.655358 C 79.569427,34.548685 76.758714,34.349249 76.604207,36.21107 C 74.514395,40.239272 73.598719,44.267481 73.403249,48.295662 z"
         style="fill:#ddc2a4;fill-opacity:1;fill-rule:evenodd;stroke:none;stroke-width:1px;stroke-linecap:butt;stroke-linejoin:miter;stroke-opacity:1" />
      <path
         style="fill:#ddc2a4;fill-opacity:1;fill-rule:evenodd;stroke:none;stroke-width:1px;stroke-linecap:butt;stroke-linejoin:miter;stroke-opacity:1"
         d="M 35.980896,49.717379 C 34.05755,49.554445 32.181647,48.196065 30.023562,38.077086 C 29.814714,35.970412 32.625427,35.770949 32.779934,37.632798 C 34.869746,41.661 35.785426,45.689164 35.980896,49.717379 z"
         id="path3204"
         sodipodi:nodetypes="cccc" />
      <path
         style="fill:#cbb7a2;fill-opacity:1;fill-rule:evenodd;stroke:none;stroke-width:1px;stroke-linecap:butt;stroke-linejoin:miter;stroke-opacity:1"
         d="M 38.924665,51.517533 C 40.446902,58.75809 44.700149,75.038049 39.427648,78.912104 C 40.077973,85.949027 46.548466,88.607199 54.517111,90.158961 L 56.026059,90.158961 C 63.994707,88.607199 70.465197,85.949027 71.115526,78.912104 C 65.843025,75.038049 70.096272,58.75809 71.618505,51.517533 L 55.271589,58.963065 L 38.924665,51.517533 z"
         id="path3206"
         sodipodi:nodetypes="cccccccc" />
      <path
         sodipodi:nodetypes="cccccccc"
         id="path3208"
         d="M 38.924665,51.517533 C 40.446902,58.75809 44.700149,75.038049 39.427648,78.912104 C 40.077973,85.949027 46.548466,88.607199 54.517111,90.158961 L 56.026059,90.158961 C 63.994707,88.607199 70.465197,85.949027 71.115526,78.912104 C 65.843025,75.038049 70.096272,58.75809 71.618505,51.517533 L 55.271589,58.963065 L 38.924665,51.517533 z"
         style="fill:url(#radialGradient4001);fill-opacity:1;fill-rule:evenodd;stroke:none;stroke-width:1px;stroke-linecap:butt;stroke-linejoin:miter;stroke-opacity:1" />
      <path
         style="opacity:0.74906365;fill:url(#radialGradient4003);fill-opacity:1;fill-rule:evenodd;stroke:none;stroke-width:1px;stroke-linecap:butt;stroke-linejoin:miter;stroke-opacity:1"
         d="M 71.618505,51.517533 C 70.096272,58.75809 65.843025,75.038049 71.115526,78.912104 C 70.465197,85.949027 63.994707,88.607199 56.026059,90.158961 L 54.517111,90.158961 C 46.548466,88.607199 40.077973,85.949027 39.427648,78.912104 C 44.700149,75.038049 40.446902,58.75809 38.924665,51.517533 L 55.271589,58.963065 L 71.618505,51.517533 z"
         id="path3210"
         sodipodi:nodetypes="cccccccc" />
      <path
         sodipodi:nodetypes="csssssssscc"
         id="path3212"
         d="M 324.17882,363.78125 C 316.40226,363.98625 310.30111,369.64178 307.17257,376.59375 C 303.98585,383.67496 304.44976,392.13001 306.36007,401.90625 C 308.27039,411.68248 311.64834,421.85281 314.83507,425.53125 C 317.85547,429.0177 321.72431,428.38757 324.17882,428.3125 C 324.30462,428.3125 324.48116,428.30837 324.61632,428.3125 C 327.07083,428.38757 330.93967,429.0177 333.96007,425.53125 C 337.1468,421.85281 341.52475,411.68248 343.43507,401.90625 C 345.3454,392.13001 345.80929,383.67496 342.62257,376.59375 C 339.49402,369.64178 332.39288,363.98625 324.61632,363.78125 L 324.17882,363.78125 z"
         style="fill:#382509;fill-opacity:1;fill-rule:evenodd;stroke:none;stroke-width:1px;stroke-linecap:butt;stroke-linejoin:miter;stroke-opacity:1;filter:url(#filter3694)"
         clip-path="url(#clipPath3705)"
         transform="matrix(1.0059645,0,0,1.0053055,-271.46562,-360.28069)" />
      <path
         style="fill:url(#radialGradient4005);fill-opacity:1;fill-rule:evenodd;stroke:none;stroke-width:1px;stroke-linecap:butt;stroke-linejoin:miter;stroke-opacity:1"
         d="M 54.665563,5.3991564 C 46.842622,5.6052254 37.787786,11.290762 34.640587,18.279618 C 31.43486,25.39839 31.901537,33.898301 33.823241,43.72642 C 35.744955,53.554519 42.060349,63.778772 45.266082,67.47675 C 48.304499,70.981692 52.196412,70.348223 54.665563,70.272743 C 54.792112,70.272743 54.969705,70.268614 55.105673,70.272743 C 57.574824,70.348223 61.466737,70.981692 64.505154,67.47675 C 67.710887,63.778772 74.026281,53.554519 75.947995,43.72642 C 77.869723,33.898301 78.336376,25.39839 75.130649,18.279618 C 71.98344,11.290762 62.928614,5.6052254 55.105673,5.3991564 L 54.665563,5.3991564 z"
         id="path3214"
         sodipodi:nodetypes="csssssssscc" />
      <path
         sodipodi:nodetypes="csssscc"
         id="path3216"
         d="M 391.84841,400.84559 C 395.5265,410.97537 400.03668,420.79215 403.22341,424.47059 C 406.24381,427.95704 410.11265,427.32691 412.56716,427.25184 C 412.69296,427.25184 412.8695,427.24771 413.00466,427.25184 C 415.45917,427.32691 419.32801,427.95704 422.34841,424.47059 C 425.53514,420.79215 430.39888,410.62182 433.72341,400.84559 L 391.84841,400.84559 z"
         style="fill:url(#linearGradient4007);fill-opacity:1;fill-rule:evenodd;stroke:none;stroke-width:1px;stroke-linecap:butt;stroke-linejoin:miter;stroke-opacity:1"
         mask="url(#mask3287)"
         transform="matrix(1.0059645,0,0,1.0053055,-360.33441,-359.22512)" />
      <path
         style="opacity:1;fill:url(#linearGradient4009);fill-opacity:1;fill-rule:evenodd;stroke:none;stroke-width:1px;stroke-linecap:butt;stroke-linejoin:miter;stroke-opacity:1;filter:url(#filter3325)"
         d="M -34.57938,94.15885 C -36.60974,97.79098 -37.62278,97.4605 -39.6875,99.96875 C -42.55362,103.27713 -46.48338,102.22748 -48.8125,102.15625 C -48.94075,102.15234 -49.09939,102.15624 -49.21875,102.15625 C -51.5479,102.22749 -55.52764,102.8396 -58.39375,99.53125 C -58.7164,99.15883 -59.10666,98.69226 -59.4875,98.1875 C -58.74735,99.25458 -58.00114,100.20997 -57.425,100.875 C -54.55888,104.18335 -50.61038,103.57124 -48.28125,103.5 C -48.16189,103.50001 -47.97201,103.49608 -47.84375,103.5 C -45.51464,103.57125 -41.86612,104.18336 -39,100.875 C -37.5985,99.25724 -36.58252,97.77257 -34.57938,94.15885 z"
         id="path3218"
         sodipodi:nodetypes="ccssscssssc"
         transform="matrix(1.0059645,0,0,1.0053055,103.05489,-34.059089)" />
      <path
         sodipodi:nodetypes="csss"
         id="path3220"
         d="M 347.29991,395.43789 C 347.20744,394.69928 346.14533,395.38264 346.06247,396.32177 C 345.97961,397.2609 346.81711,399.53599 346.96846,399.19439 C 348.18061,396.45862 347.43118,396.48647 347.29991,395.43789 z"
         style="fill:url(#radialGradient4011);fill-opacity:1;fill-rule:evenodd;stroke:none;stroke-width:1px;stroke-linecap:butt;stroke-linejoin:miter;stroke-opacity:1;filter:url(#filter3833)"
         transform="matrix(-1.0059645,0,0,1.0053055,424.44171,-361.70241)" />
      <path
         style="fill:url(#radialGradient4013);fill-opacity:1;fill-rule:evenodd;stroke:none;stroke-width:1px;stroke-linecap:butt;stroke-linejoin:miter;stroke-opacity:1;filter:url(#filter3833)"
         d="M -68.3336,70.93789 C -68.42607,70.19928 -69.48818,70.88264 -69.57104,71.82177 C -69.6539,72.7609 -68.8164,75.03599 -68.66505,74.69439 C -67.4529,71.95862 -68.20233,71.98647 -68.3336,70.93789 z"
         id="path3222"
         sodipodi:nodetypes="csss"
         transform="matrix(1.0059645,0,0,1.0053055,103.05489,-34.059089)" />
      <path
         sodipodi:nodetypes="cscccssssccsc"
         id="path3224"
         d="M 324.5,363.375 C 311.942,363.375 301.75001,373.56701 301.75,386.125 C 301.75,389.62206 301.40798,393.09067 302.8197,396.05178 L 304,396.91529 C 306.57247,392.37122 304.92256,388.81578 306,384.875 C 307,382.375 308.58874,380.212 311,379.375 C 315.29826,377.88299 321.81729,383.55368 324.5,383.625 C 327.40006,383.70209 333.55852,378.27854 337.96875,379.575 C 340.40504,380.29118 342.40902,382.5821 342.96875,385.075 C 344.01673,389.74243 344.56428,391.33155 344.97135,396.35463 L 346.15441,395.75 C 347.52866,392.82109 347.25,389.57242 347.25,386.125 C 347.25,373.567 337.05801,363.37501 324.5,363.375 z"
         style="opacity:1;fill:url(#linearGradient4015);fill-opacity:1;stroke:none;stroke-width:0;stroke-linecap:round;stroke-linejoin:round;stroke-miterlimit:4;stroke-dasharray:none;stroke-dashoffset:1.08779998;stroke-opacity:1;filter:url(#filter3420)"
         clip-path="url(#clipPath3429)"
         transform="matrix(1.0059645,0,0,1.0053055,-271.84166,-360.28069)" />
      <path
         style="opacity:1;fill:#b09278;fill-opacity:1;stroke:none;stroke-width:0;stroke-linecap:round;stroke-linejoin:round;stroke-miterlimit:4;stroke-dasharray:none;stroke-dashoffset:1.08779998;stroke-opacity:1"
         d="M 54.768603,5.0221546 C 42.135704,5.0221546 31.882927,15.26824 31.882916,27.892857 C 31.882916,31.408457 31.538854,34.895464 32.958997,37.87231 L 34.146335,38.740385 C 36.734148,34.172199 35.074397,30.095258 36.158265,26.133565 C 37.16423,23.620296 38.762444,21.445824 41.188084,20.604384 C 45.511983,19.104468 52.069894,24.805242 54.768603,24.876946 C 57.685961,24.954449 63.88115,22.741394 68.317684,24.044716 C 70.768506,24.764708 72.78444,27.067776 73.347506,29.573896 C 74.401737,34.266089 74.952554,33.127016 75.362053,38.176749 L 76.552169,37.568904 C 77.934615,34.624465 77.654292,31.358569 77.654292,27.892857 C 77.654292,15.26824 67.401515,5.0221546 54.768603,5.0221546 z"
         id="path3226"
         sodipodi:nodetypes="cscccssssccsc" />
      <path
         sodipodi:nodetypes="ccsssccsc"
         id="path3228"
         d="M 54.768603,5.0221546 C 46.69594,9.4065202 45.000549,12.012847 41.188084,20.604384 C 45.511983,19.104468 52.069894,24.805242 54.768603,24.876946 C 57.685961,24.954449 64.472845,22.365108 68.909379,23.668429 C 71.360201,24.388422 73.376135,26.69149 73.939201,29.19761 C 74.993431,33.889803 74.952554,33.127016 75.362053,38.176749 L 76.552169,37.568904 C 77.934615,34.624465 77.654292,31.358569 77.654292,27.892857 C 77.654292,15.26824 67.401515,5.0221546 54.768603,5.0221546 z"
         style="opacity:1;fill:url(#radialGradient4017);fill-opacity:1;stroke:none;stroke-width:0;stroke-linecap:round;stroke-linejoin:round;stroke-miterlimit:4;stroke-dasharray:none;stroke-dashoffset:1.08779998;stroke-opacity:1" />
      <path
         style="opacity:1;fill:url(#linearGradient4019);fill-opacity:1;stroke:none;stroke-width:0;stroke-linecap:round;stroke-linejoin:round;stroke-miterlimit:4;stroke-dasharray:none;stroke-dashoffset:1.08779998;stroke-opacity:1;filter:url(#filter3479)"
         d="M 312.54197,377.13598 C 311.94712,377.10972 311.3605,377.18074 310.82322,377.35473 C 308.41196,378.1356 306.38128,380.96011 305.38128,383.43684 C 304.45516,387.61524 305.77474,389.38257 304.88664,394.59185 C 305.73369,391.56142 305.58479,385.07509 305.82322,384.16723 C 306.82322,381.66722 308.41196,379.50423 310.82322,378.66723 C 315.12148,377.17521 321.64051,382.84591 324.32322,382.91723 C 327.22328,382.99431 333.38174,380.79295 337.79197,382.08941 C 340.22826,382.80558 342.23224,385.09651 342.79197,387.58941 L 342.79197,387.02691 C 342.23224,384.52098 340.22826,382.17481 337.79197,381.40191 C 333.38174,380.00277 327.66522,380.73602 324.76516,380.5914 C 322.41779,380.47435 316.70593,377.31977 312.54197,377.13598 z"
         id="path3230"
         sodipodi:nodetypes="cscccsssccssc"
         clip-path="none"
         transform="matrix(1.0059645,0,0,1.0053055,-272.17782,-360.28069)"
         mask="none" />
      <path
         style="opacity:0.88014981;fill:url(#linearGradient4021);fill-opacity:1;fill-rule:evenodd;stroke:none;stroke-width:1px;stroke-linecap:butt;stroke-linejoin:miter;stroke-opacity:1;filter:url(#filter3625)"
         d="M -39.6875,56.221855 C -34.197148,56.024377 -45.05967,54.50166 -48.70706,53.9205 C -54.598622,52.981763 -62.45595,49.86348 -63.54855,46.95471 C -64.26371,45.0508 -58.65655,42.18952 -59,43.11218 C -59.65577,44.97451 -60.47583,46.68051 -55.875,50.73718 C -53.57302,52.51447 -50.99506,54.57645 -47.5,54.86218 C -45,55.12995 -42.1875,56.694245 -39.6875,56.221855 z"
         id="path3232"
         sodipodi:nodetypes="csscccc"
         transform="matrix(1.0059645,0,0,1.0053055,103.05489,-34.059089)" />
      <path
         style="fill:url(#linearGradient4023);fill-opacity:1;fill-rule:evenodd;stroke:none;stroke-width:1px;stroke-linecap:butt;stroke-linejoin:miter;stroke-opacity:1;filter:url(#filter3569)"
         d="M -29.75,50.61218 L -27.5,55.11218 C -25.97108,61.25336 -26.57755,60.4695 -26.76517,63.44536 C -28.54202,59.02869 -27.22154,56.27885 -33,53.11218 L -39.25,49.11218 L -29.75,50.61218 z"
         id="path3234"
         sodipodi:nodetypes="cccccc"
         transform="matrix(1.0059645,0,0,1.0053055,102.2077,-34.059089)" />
      <path
         style="opacity:0.33333333;fill:url(#linearGradient4025);fill-opacity:1;fill-rule:evenodd;stroke:none;stroke-width:1px;stroke-linecap:butt;stroke-linejoin:miter;stroke-opacity:1;filter:url(#filter3775)"
         d="M -68.53033,81.05152 L -67.15533,78.55152 C -67.15533,78.55152 -68.40533,75.42652 -68.40533,74.55152 C -68.40533,73.67652 -69.29419,71.09702 -69.29419,71.09702 L -70.0221,71.56734 L -68.53033,81.05152 z"
         id="path3236"
         sodipodi:nodetypes="ccsccc"
         transform="matrix(1.0059645,0,0,1.0053055,103.05489,-34.059089)" />
      <path
         style="fill:url(#linearGradient4027);fill-opacity:1;fill-rule:evenodd;stroke:none;stroke-width:1px;stroke-linecap:butt;stroke-linejoin:miter;stroke-opacity:1"
         d="M 55.570237,85.133393 C 45.266337,85.421039 42.123018,81.158743 41.235247,77.400215 C 39.949833,77.611383 39.189287,78.632852 39.223317,79.410814 C 32.097741,82.260716 23.482148,85.133393 15.834648,88.96121 C 12.995998,90.382067 9.762032,94.71193 8.918643,97.003673 C 6.346411,103.99312 3.511582,113.84251 3.511582,113.84251 L 5.02053,115.60183 C 20.7586,124.56125 42.119651,124.14693 55.570237,124.14693 C 69.020825,124.14693 90.381876,124.56125 106.11994,115.60183 L 107.62889,113.84251 C 107.62889,113.84251 104.79406,103.99312 102.22183,97.003673 C 101.37844,94.71193 98.14448,90.382067 95.30583,88.96121 C 87.658325,85.133393 79.042732,82.260716 71.917156,79.410814 C 71.95119,78.632852 71.19064,77.611383 69.905226,77.400215 C 67.477204,81.1627 65.874139,84.845747 55.570237,85.133393 z"
         id="path3238"
         sodipodi:nodetypes="cccssccsccssccz" />
      <path
         style="opacity:0.32209742;fill:url(#linearGradient4029);fill-opacity:1;fill-rule:evenodd;stroke:none;stroke-width:1px;stroke-linecap:butt;stroke-linejoin:miter;stroke-opacity:1;filter:url(#filter3493)"
         d="M -78.34358,152.98437 C -82.26083,139.96479 -83.8395,133.15234 -74.80805,126.11431 L -55.71616,120.45745 L -64.20144,114.0935 L -84.00043,121.87167 L -94.60703,134.59959 C -94.60703,134.59959 -98.84968,144.49909 -96.02125,145.9133 C -93.19282,147.32752 -86.12175,151.57016 -86.12175,151.57016 L -78.34358,152.98437 z"
         id="path3240"
         sodipodi:nodetypes="ccccccscc"
         transform="matrix(1.0059645,0,0,1.0053055,103.05489,-34.059089)" />
      <path
         style="fill:url(#linearGradient4031);fill-opacity:1;fill-rule:evenodd;stroke:none;stroke-width:1px;stroke-linecap:butt;stroke-linejoin:miter;stroke-opacity:1;filter:url(#filter4059)"
         d="M 395.90625,435.375 C 394.62847,435.58506 393.87242,436.60113 393.90625,437.375 C 386.82293,440.20988 378.25841,443.06735 370.65625,446.875 C 367.83444,448.28835 364.61964,452.59537 363.78125,454.875 C 361.22428,461.82756 358.40625,471.625 358.40625,471.625 L 359.90625,473.375 C 375.55102,482.28715 396.78541,481.875 410.15625,481.875 C 423.5271,481.875 444.76149,482.28715 460.40625,473.375 L 461.90625,471.625 C 461.90626,471.625 459.08823,461.82756 456.53125,454.875 C 455.69287,452.59537 452.47807,448.28835 449.65625,446.875 C 442.0541,443.06735 433.48958,440.20988 426.40625,437.375 C 426.44009,436.60113 425.68404,435.58506 424.40625,435.375 C 421.99263,439.11764 420.39906,442.77637 410.15625,443.0625 C 409.51607,443.08038 408.89826,443.07875 408.3125,443.0625 C 409.11493,443.10929 409.95672,443.15082 410.875,443.125 C 420.66635,442.84975 422.19276,439.31912 424.5,435.71875 C 425.72147,435.92083 426.43858,436.91179 426.40625,437.65625 C 433.17737,440.38336 441.3579,443.11836 448.625,446.78125 C 451.32245,448.14088 454.41732,452.30704 455.21875,454.5 C 457.66304,461.18826 460.34374,470.59377 460.34375,470.59375 L 458.90625,472.28125 C 443.95103,480.85461 423.65651,480.46874 410.875,480.46875 C 398.09347,480.46875 376.29635,482.09204 361.34115,473.51869 L 359.81526,470.50536 C 359.81526,470.50536 363.55664,455.53141 366.70803,453.26256 C 368.60286,451.89837 370.42755,448.14089 373.125,446.78125 C 380.3921,443.11835 388.57262,440.38336 395.34375,437.65625 C 395.32311,437.18111 395.59714,436.5903 396.125,436.1875 C 396.03832,435.91957 395.96873,435.63969 395.90625,435.375 z"
         id="path3242"
         clip-path="url(#clipPath4063)"
         transform="matrix(1.0059645,0,0,1.0053055,-357.03287,-360.28069)"
         sodipodi:nodetypes="ccssccsccssccscsccssccsccssccc" />
      <path
         style="fill:url(#linearGradient4033);fill-opacity:1;fill-rule:evenodd;stroke:none;stroke-width:1px;stroke-linecap:butt;stroke-linejoin:miter;stroke-opacity:1;filter:url(#filter3393)"
         d="M -84.125,124.875 L -85.125,126.625 C -81.08786,134.7426 -79.91837,144.77197 -77.6875,154.09375 C -84.67104,152.87559 -91.41593,150.84084 -97.5,147.375 L -97.5,147.8125 C -81.85523,156.72466 -60.62084,156.3125 -47.25,156.3125 C -33.87915,156.31251 -12.64476,156.72465 3,147.8125 L 4.5,146.0625 L 2.666559,147.54655 C -12.978191,156.45871 -33.87916,156.00881 -47.25,156.00881 C -54.70098,156.00881 -64.58699,155.42889 -74.59375,154 C -77.77083,139.60839 -80.94792,131.83413 -84.125,124.875 z"
         id="path3244"
         sodipodi:nodetypes="cccccscccscc"
         transform="matrix(1.0059645,0,0,1.0053055,103.05489,-34.059089)" />
      <path
         style="fill:#f4f5f8;fill-opacity:1;fill-rule:evenodd;stroke:#98a2bf;stroke-width:0.14528722;stroke-linecap:butt;stroke-linejoin:miter;stroke-miterlimit:4;stroke-dasharray:none;stroke-opacity:1;filter:url(#filter3283)"
         d="M 463.75,435.375 C 462.47221,435.58506 461.71617,436.60113 461.75,437.375 C 461.67075,437.40672 461.57962,437.43703 461.5,437.46875 C 462.75202,441.47055 466.65727,445.74083 478.25,445.4375 C 489.75018,445.1366 492.07799,441.47873 494.71875,437.5625 C 494.5676,437.5025 494.39985,437.43497 494.25,437.375 C 494.28383,436.60113 493.52779,435.58506 492.25,435.375 C 489.83637,439.11764 488.24281,442.77637 478,443.0625 C 467.75719,443.34864 464.63251,439.11371 463.75,435.375 z M 497.46875,438.625 C 497.52198,438.79302 497.56984,438.93659 497.5625,439.09375 C 501.77057,440.67121 506.39991,442.24968 511.125,443.96875 C 506.49146,442.00962 501.81994,440.29346 497.46875,438.625 z"
         id="path3246"
         clip-path="url(#clipPath3289)"
         transform="matrix(1.0059645,0,0,1.0053055,-425.2807,-360.27676)"
         sodipodi:nodetypes="cccscccsccccc" />
      <path
         style="fill:url(#linearGradient4035);fill-opacity:1;fill-rule:evenodd;stroke:none;stroke-width:1px;stroke-linecap:butt;stroke-linejoin:miter;stroke-opacity:1;filter:url(#filter3339)"
         d="M -59.25169,118.68969 L -76.57581,119.3968 L -61.37302,117.27548 L -59.25169,118.68969 z"
         id="path3248"
         sodipodi:nodetypes="cccc"
         transform="matrix(1.0059645,0,0,1.0053055,103.05489,-34.059089)" />
      <path
         transform="matrix(0.3417414,0.9455184,0.9461381,-0.3415175,-540.77608,-70.969975)"
         style="fill:url(#linearGradient4037);fill-opacity:1;fill-rule:evenodd;stroke:none;stroke-width:1px;stroke-linecap:butt;stroke-linejoin:miter;stroke-opacity:1;filter:url(#filter3339)"
         d="M 371.74831,469.68969 L 354.42419,470.3968 L 369.62698,468.27548 L 371.74831,469.68969 z"
         id="path3250"
         sodipodi:nodetypes="cccc" />
      <path
         sodipodi:nodetypes="ccccccscc"
         id="path3252"
         d="M 294.15642,477.48437 C 290.23917,464.46479 288.6605,457.65234 297.69195,450.61431 L 316.78384,444.95745 L 308.29856,438.5935 L 288.49957,446.37167 L 277.89297,459.09959 C 277.89297,459.09959 273.65032,468.99909 276.47875,470.4133 C 279.30718,471.82752 286.37825,476.07016 286.37825,476.07016 L 294.15642,477.48437 z"
         style="opacity:0.32209742;fill:url(#linearGradient4039);fill-opacity:1;fill-rule:evenodd;stroke:none;stroke-width:1px;stroke-linecap:butt;stroke-linejoin:miter;stroke-opacity:1;filter:url(#filter3493)"
         transform="matrix(-1.0059645,0,0,1.0053055,383.00502,-360.28069)" />
      <path
         style="opacity:0.06367044;fill:url(#linearGradient4041);fill-opacity:1;fill-rule:evenodd;stroke:url(#linearGradient4043);stroke-width:0.29057443px;stroke-linecap:butt;stroke-linejoin:miter;stroke-opacity:1;filter:url(#filter3574)"
         d="M -59.2517,120.45746 L -66.32276,138.13513 L -59.2517,120.45746 z"
         id="path3254"
         transform="matrix(1.0059645,0,0,1.0053055,103.05489,-34.059089)" />
    </g>
    <path
       style="opacity:1;fill:url(#linearGradient4103);fill-opacity:1.0;stroke:none;stroke-width:0.50000000000000000;stroke-linecap:round;stroke-linejoin:round;stroke-miterlimit:4;stroke-dasharray:none;stroke-opacity:1"
       d="M 50,0 C 42.243999,0 36,7.136 36,16 L 36,24 L 28,24 L 28,32 L 92,32 L 92,24 L 84,24 L 84,16 C 84,7.136 77.756,-7.2858386e-17 70,0 L 50,0 z"
       id="rect3188" />
    <path
       style="fill:url(#radialGradient4066);fill-opacity:1;fill-rule:evenodd;stroke:none;stroke-width:1px;stroke-linecap:butt;stroke-linejoin:miter;stroke-opacity:1"
       d="M 44,77 L 12,88 L 4,120 L 52,128 L 44,77 z M 76,77 L 68,128 L 116,120 L 108,88 L 76,77 z"
       id="path3982"
       sodipodi:nodetypes="cccccccccc" />
    <rect
       style="opacity:1;fill:url(#radialGradient4064);fill-opacity:1;stroke:none;stroke-width:0.50000000000000000;stroke-linecap:round;stroke-linejoin:round;stroke-miterlimit:4;stroke-dasharray:none;stroke-opacity:1"
       id="rect3987"
       width="8"
       height="40"
       x="56"
       y="88" />
    <path
       style="fill:#ffffff;fill-opacity:1;fill-rule:evenodd;stroke:none;stroke-width:1px;stroke-linecap:butt;stroke-linejoin:miter;stroke-opacity:1"
       d="M 47,70 L 56,88 L 47.449783,87.037458 L 41.856104,77.776117 L 47,70 z"
       id="path4054"
       sodipodi:nodetypes="ccccc" />
    <path
       sodipodi:nodetypes="ccccc"
       id="path4056"
       d="M 72.856104,70 L 63.856104,88 L 72.406321,87.037458 L 78,77.776117 L 72.856104,70 z"
       style="fill:#ffffff;fill-opacity:1;fill-rule:evenodd;stroke:none;stroke-width:1px;stroke-linecap:butt;stroke-linejoin:miter;stroke-opacity:1" />
    <path
       sodipodi:type="inkscape:offset"
       inkscape:radius="-5.6078963"
       inkscape:original="M 44 77 L 12 88 L 4 120 L 52 128 L 44 77 z M 76 77 L 68 128 L 116 120 L 108 88 L 76 77 z "
       style="fill:url(#linearGradient4119);fill-opacity:1;fill-rule:evenodd;stroke:none;stroke-width:1px;stroke-linecap:butt;stroke-linejoin:miter;stroke-opacity:1"
       id="path4109"
       d="M 39.5,84.46875 L 16.6875,92.3125 L 10.90625,115.46875 L 45.25,121.1875 L 39.5,84.46875 z M 80.5,84.46875 L 74.75,121.1875 L 109.09375,115.46875 L 103.3125,92.3125 L 80.5,84.46875 z" />
    <path
       sodipodi:type="inkscape:offset"
       inkscape:radius="-7.5"
       inkscape:original="M 50 0 C 42.243999 0 36 7.136 36 16 L 36 24 L 28 24 L 28 32 L 92 32 L 92 24 L 84 24 L 84 16 C 84 7.136 77.756 -2.1857516e-16 70 0 L 50 0 z "
       style="opacity:0.22173913;fill:url(#linearGradient4128);fill-opacity:1;stroke:none;stroke-width:0.50000000000000000;stroke-linecap:round;stroke-linejoin:round;stroke-miterlimit:4;stroke-dasharray:none;stroke-opacity:1"
       id="path4125"
       d="M 50,7.5 C 46.844308,7.5 43.5,10.658111 43.5,16 L 43.5,24 C 43.495154,24.166968 43.484731,24.333728 43.46875,24.5 L 76.53125,24.5 C 76.515269,24.333728 76.504846,24.166968 76.5,24 L 76.5,16 C 76.5,10.658112 73.155691,7.5 70,7.5 L 50,7.5 z" />
  </g>
  <g
     inkscape:groupmode="layer"
     id="g5368"
     inkscape:label="fill text" />
</svg>
