<?xml version="1.0" encoding="UTF-8" standalone="no"?>
<!-- Created with Inkscape (http://www.inkscape.org/) -->
<svg
   xmlns:dc="http://purl.org/dc/elements/1.1/"
   xmlns:cc="http://web.resource.org/cc/"
   xmlns:rdf="http://www.w3.org/1999/02/22-rdf-syntax-ns#"
   xmlns:svg="http://www.w3.org/2000/svg"
   xmlns="http://www.w3.org/2000/svg"
   xmlns:xlink="http://www.w3.org/1999/xlink"
   xmlns:sodipodi="http://sodipodi.sourceforge.net/DTD/sodipodi-0.dtd"
   xmlns:inkscape="http://www.inkscape.org/namespaces/inkscape"
   width="128"
   height="128"
   id="svg4353"
   sodipodi:version="0.32"
   inkscape:version="0.45+devel"
   version="1.0"
   sodipodi:docname="office-addressbook-16.svgz"
   inkscape:output_extension="org.inkscape.output.svgz.inkscape"
   inkscape:export-filename="/Users/david/Progetti/Open Source/sandbox/cards/office-addressbook/office-addressbook_16x16.png"
   inkscape:export-xdpi="11"
   inkscape:export-ydpi="11">
  <defs
     id="defs4355">
    <filter
       inkscape:collect="always"
       id="filter3574"
       x="-0.17129332"
       y="-0.074019864"
       width="1.3425866"
       height="1.1480397">
      <feGaussianBlur
         inkscape:collect="always"
         id="feGaussianBlur3576"
         stdDeviation="0.57604943" />
    </filter>
    <linearGradient
       inkscape:collect="always"
       id="linearGradient3586">
      <stop
         offset="0"
         id="stop3588"
         style="stop-color:#000000;stop-opacity:1;" />
      <stop
         offset="1"
         id="stop3590"
         style="stop-color:#000000;stop-opacity:0;" />
    </linearGradient>
    <linearGradient
       inkscape:collect="always"
       xlink:href="#linearGradient3586"
       id="linearGradient8994"
       gradientUnits="userSpaceOnUse"
       gradientTransform="translate(-372.5,-324.5)"
       x1="313.74829"
       y1="444.45746"
       x2="305.67725"
       y2="463.13513" />
    <linearGradient
       inkscape:collect="always"
       id="linearGradient3578">
      <stop
         offset="0"
         id="stop3580"
         style="stop-color:#c8cddc;stop-opacity:1;" />
      <stop
         offset="1"
         id="stop3582"
         style="stop-color:#c8cddc;stop-opacity:0;" />
    </linearGradient>
    <linearGradient
       inkscape:collect="always"
       xlink:href="#linearGradient3578"
       id="linearGradient8992"
       gradientUnits="userSpaceOnUse"
       gradientTransform="translate(-372.5,-324.5)"
       x1="313.74829"
       y1="444.45746"
       x2="305.67725"
       y2="463.13513" />
    <linearGradient
       id="linearGradient8882"
       inkscape:collect="always">
      <stop
         style="stop-color:#a4c0e4;stop-opacity:1"
         id="stop8884"
         offset="0" />
      <stop
         style="stop-color:#c8cddc;stop-opacity:0;"
         id="stop8886"
         offset="1" />
    </linearGradient>
    <linearGradient
       inkscape:collect="always"
       xlink:href="#linearGradient8882"
       id="linearGradient8990"
       gradientUnits="userSpaceOnUse"
       x1="284.67853"
       y1="460.62231"
       x2="299.28384"
       y2="441.53894" />
    <linearGradient
       id="linearGradient8894"
       inkscape:collect="always">
      <stop
         style="stop-color:#f9ccca;stop-opacity:1"
         id="stop8896"
         offset="0" />
      <stop
         style="stop-color:#bbc1d4;stop-opacity:0;"
         id="stop8898"
         offset="1" />
    </linearGradient>
    <linearGradient
       inkscape:collect="always"
       xlink:href="#linearGradient8894"
       id="linearGradient8988"
       gradientUnits="userSpaceOnUse"
       gradientTransform="translate(58.5,26.5)"
       x1="315.72318"
       y1="453.0892"
       x2="290.62091"
       y2="434.35086" />
    <filter
       inkscape:collect="always"
       id="filter3339"
       x="-0.083255701"
       y="-0.42668504"
       width="1.1665114"
       height="1.8533701">
      <feGaussianBlur
         inkscape:collect="always"
         id="feGaussianBlur3341"
         stdDeviation="0.50285367" />
    </filter>
    <linearGradient
       id="linearGradient8900"
       inkscape:collect="always">
      <stop
         style="stop-color:#f9ccca;stop-opacity:1"
         id="stop8902"
         offset="0" />
      <stop
         style="stop-color:#c3b4da;stop-opacity:1"
         id="stop8904"
         offset="1" />
    </linearGradient>
    <linearGradient
       inkscape:collect="always"
       xlink:href="#linearGradient8900"
       id="linearGradient8986"
       gradientUnits="userSpaceOnUse"
       gradientTransform="translate(-372.5,-324.5)"
       x1="315.72318"
       y1="453.0892"
       x2="290.62091"
       y2="434.35086" />
    <filter
       inkscape:collect="always"
       id="filter3283"
       x="-0.020813677"
       y="-0.13193184"
       width="1.0416274"
       height="1.2638637">
      <feGaussianBlur
         inkscape:collect="always"
         id="feGaussianBlur3285"
         stdDeviation="0.60896269" />
    </filter>
    <clipPath
       id="clipPath3289"
       clipPathUnits="userSpaceOnUse">
      <path
         d="M 463.75,435.375 C 462.47221,435.58506 461.71617,436.60113 461.75,437.375 C 461.67075,437.40672 460.87251,438.49769 460.79289,438.52941 C 462.04491,442.53121 465.95016,446.80149 477.54289,446.49816 C 489.04307,446.19726 493.45299,441.22873 494.71875,437.5625 C 494.5676,437.5025 494.39985,437.43497 494.25,437.375 C 494.28383,436.60113 493.52779,435.58506 492.25,435.375 C 489.83637,439.11764 488.24281,442.77637 478,443.0625 C 467.75719,443.34864 464.63251,439.11371 463.75,435.375 z M 459.125,438.40625 C 453.68198,440.50508 447.66707,442.67009 441.90625,445.28125 C 447.80188,443.05208 453.52791,442.11601 458.76072,440.15441 C 458.75013,439.92745 459.01107,438.6493 459.125,438.40625 z M 497.46875,438.625 C 497.52198,438.79302 497.56984,438.93659 497.5625,439.09375 C 501.77057,440.67121 506.39991,442.24968 511.125,443.96875 C 506.49146,442.00962 501.81994,440.29346 497.46875,438.625 z"
         id="path3291"
         style="fill:#f4f5f8;fill-opacity:1;fill-rule:evenodd;stroke:#98a2bf;stroke-width:1px;stroke-linecap:butt;stroke-linejoin:miter;stroke-opacity:1;filter:url(#filter3283)"
         sodipodi:nodetypes="cccscccsccccccccc" />
    </clipPath>
    <filter
       inkscape:collect="always"
       id="filter3393">
      <feGaussianBlur
         inkscape:collect="always"
         id="feGaussianBlur3395"
         stdDeviation="0.49977699" />
    </filter>
    <linearGradient
       inkscape:collect="always"
       id="linearGradient4126">
      <stop
         offset="0"
         id="stop4128"
         style="stop-color:#ffffff;stop-opacity:1;" />
      <stop
         offset="1"
         id="stop4130"
         style="stop-color:#ffffff;stop-opacity:0;" />
    </linearGradient>
    <linearGradient
       inkscape:collect="always"
       xlink:href="#linearGradient4126"
       id="linearGradient8984"
       gradientUnits="userSpaceOnUse"
       gradientTransform="translate(-372.5,-324.5)"
       x1="326"
       y1="476.40894"
       x2="310.53195"
       y2="429.73987" />
    <filter
       inkscape:collect="always"
       id="filter4059">
      <feGaussianBlur
         inkscape:collect="always"
         id="feGaussianBlur4061"
         stdDeviation="1.5449742" />
    </filter>
    <clipPath
       id="clipPath4063"
       clipPathUnits="userSpaceOnUse">
      <path
         id="path4065"
         d="M 410.16587,443.06739 C 399.92306,443.35352 396.79838,439.11371 395.91587,435.375 C 394.63808,435.58506 393.88204,436.60113 393.91587,437.375 C 386.83254,440.20988 378.26803,443.06735 370.66587,446.875 C 367.84405,448.28835 364.62926,452.59537 363.79087,454.875 C 361.23389,461.82756 358.41587,471.625 358.41587,471.625 L 359.91587,473.375 C 375.56063,482.28715 396.79503,481.875 410.16587,481.875 C 423.53671,481.875 444.77111,482.28715 460.41587,473.375 L 461.91587,471.625 C 461.91587,471.625 459.09785,461.82756 456.54087,454.875 C 455.70248,452.59537 452.48769,448.28835 449.66587,446.875 C 442.06371,443.06735 433.4992,440.20988 426.41587,437.375 C 426.4497,436.60113 425.69366,435.58506 424.41587,435.375 C 422.00224,439.11764 420.40868,442.78126 410.16587,443.06739 z"
         style="fill:#f4f5f8;fill-opacity:1;fill-rule:evenodd;stroke:none;stroke-width:1px;stroke-linecap:butt;stroke-linejoin:miter;stroke-opacity:1"
         sodipodi:nodetypes="cccssccsccssccz" />
    </clipPath>
    <linearGradient
       inkscape:collect="always"
       id="linearGradient2979">
      <stop
         offset="0"
         id="stop2981"
         style="stop-color:#2c72c7;stop-opacity:1" />
      <stop
         offset="1"
         id="stop2983"
         style="stop-color:#8d97b7;stop-opacity:0;" />
    </linearGradient>
    <linearGradient
       inkscape:collect="always"
       xlink:href="#linearGradient2979"
       id="linearGradient10606"
       gradientUnits="userSpaceOnUse"
       x1="414.41586"
       y1="458.62646"
       x2="461.90625"
       y2="458.62646" />
    <filter
       inkscape:collect="always"
       id="filter3493">
      <feGaussianBlur
         inkscape:collect="always"
         id="feGaussianBlur3495"
         stdDeviation="1.105682" />
    </filter>
    <linearGradient
       id="linearGradient8888"
       inkscape:collect="always">
      <stop
         style="stop-color:#a4c0e4;stop-opacity:1"
         id="stop8890"
         offset="0" />
      <stop
         style="stop-color:#c8cddc;stop-opacity:0;"
         id="stop8892"
         offset="1" />
    </linearGradient>
    <linearGradient
       inkscape:collect="always"
       xlink:href="#linearGradient8888"
       id="linearGradient8980"
       gradientUnits="userSpaceOnUse"
       gradientTransform="translate(-372.5,-324.5)"
       x1="283.50647"
       y1="463.03894"
       x2="312.78384"
       y2="443.03894" />
    <linearGradient
       inkscape:collect="always"
       id="linearGradient8906">
      <stop
         style="stop-color:#a4c0e4;stop-opacity:1"
         offset="0"
         id="stop8908" />
      <stop
         style="stop-color:#ffffff;stop-opacity:1"
         offset="1"
         id="stop8910" />
    </linearGradient>
    <linearGradient
       inkscape:collect="always"
       xlink:href="#linearGradient8906"
       id="linearGradient8978"
       gradientUnits="userSpaceOnUse"
       x1="52.461521"
       y1="127.04261"
       x2="60.561855"
       y2="86.540939" />
    <filter
       inkscape:collect="always"
       id="filter3775"
       x="-0.18809821"
       y="-0.059054088"
       width="1.3761964"
       height="1.1181082">
      <feGaussianBlur
         inkscape:collect="always"
         id="feGaussianBlur3777"
         stdDeviation="0.26451311" />
    </filter>
    <linearGradient
       id="linearGradient3733">
      <stop
         offset="0"
         id="stop3735"
         style="stop-color:#e2e2e2;stop-opacity:1;" />
      <stop
         offset="1"
         id="stop3737"
         style="stop-color:#ffffff;stop-opacity:1;" />
    </linearGradient>
    <linearGradient
       inkscape:collect="always"
       xlink:href="#linearGradient3733"
       id="linearGradient8976"
       gradientUnits="userSpaceOnUse"
       gradientTransform="matrix(0.5366445,0,0,1.8634309,-372.5,-324.5)"
       x1="563.64667"
       y1="214.96599"
       x2="568.98871"
       y2="214.96599" />
    <filter
       inkscape:collect="always"
       id="filter3569"
       x="-0.1148592"
       y="-0.086798318"
       width="1.2297184"
       height="1.1735966">
      <feGaussianBlur
         inkscape:collect="always"
         id="feGaussianBlur3571"
         stdDeviation="0.6238629" />
    </filter>
    <linearGradient
       inkscape:collect="always"
       id="linearGradient3581">
      <stop
         offset="0"
         id="stop3583"
         style="stop-color:#dfcbba;stop-opacity:1;" />
      <stop
         offset="1"
         id="stop3585"
         style="stop-color:#dfcbba;stop-opacity:0;" />
    </linearGradient>
    <linearGradient
       inkscape:collect="always"
       xlink:href="#linearGradient3581"
       id="linearGradient8974"
       gradientUnits="userSpaceOnUse"
       gradientTransform="translate(-372.5,-324.5)"
       x1="353.44516"
       y1="390.86218"
       x2="339.76785"
       y2="373.61218" />
    <filter
       inkscape:collect="always"
       id="filter3625">
      <feGaussianBlur
         inkscape:collect="always"
         id="feGaussianBlur3627"
         stdDeviation="0.34264273" />
    </filter>
    <linearGradient
       inkscape:collect="always"
       id="linearGradient3499">
      <stop
         offset="0"
         id="stop3501"
         style="stop-color:#ffffff;stop-opacity:1;" />
      <stop
         offset="1"
         id="stop3503"
         style="stop-color:#ffffff;stop-opacity:0;" />
    </linearGradient>
    <linearGradient
       inkscape:collect="always"
       xlink:href="#linearGradient3499"
       id="linearGradient8972"
       gradientUnits="userSpaceOnUse"
       gradientTransform="translate(-372.5,-324.5)"
       x1="330.09335"
       y1="407.39011"
       x2="320.36423"
       y2="367.39182" />
    <filter
       inkscape:collect="always"
       id="filter3479"
       x="-0.028506439"
       y="-0.10615479"
       width="1.0570129"
       height="1.2123096">
      <feGaussianBlur
         inkscape:collect="always"
         id="feGaussianBlur3481"
         stdDeviation="0.4439284" />
    </filter>
    <linearGradient
       inkscape:collect="always"
       id="linearGradient3489">
      <stop
         offset="0"
         id="stop3491"
         style="stop-color:#765c44;stop-opacity:1;" />
      <stop
         offset="1"
         id="stop3493"
         style="stop-color:#765c44;stop-opacity:0;" />
    </linearGradient>
    <linearGradient
       inkscape:collect="always"
       xlink:href="#linearGradient3489"
       id="linearGradient8970"
       gradientUnits="userSpaceOnUse"
       x1="304.88663"
       y1="385.86127"
       x2="345.62039"
       y2="384.62384" />
    <linearGradient
       inkscape:collect="always"
       id="linearGradient3368">
      <stop
         offset="0"
         id="stop3370"
         style="stop-color:#e5d3c3;stop-opacity:1;" />
      <stop
         offset="1"
         id="stop3372"
         style="stop-color:#e5d3c3;stop-opacity:0;" />
    </linearGradient>
    <radialGradient
       inkscape:collect="always"
       xlink:href="#linearGradient3368"
       id="radialGradient8968"
       gradientUnits="userSpaceOnUse"
       gradientTransform="matrix(-0.7020433,-0.1106778,8.3859807e-2,-0.5312371,265.2384,247.24451)"
       cx="332.49338"
       cy="369.61789"
       fx="332.49338"
       fy="369.61789"
       r="22.779818" />
    <filter
       inkscape:collect="always"
       id="filter3420">
      <feGaussianBlur
         inkscape:collect="always"
         id="feGaussianBlur3422"
         stdDeviation="1.110954" />
    </filter>
    <clipPath
       id="clipPath3429"
       clipPathUnits="userSpaceOnUse">
      <path
         id="path3431"
         d="M 303.70236,398.81874 L 303.52558,385.56049 L 306.17724,378.31265 L 311.48054,376.54488 L 319.96582,379.19653 L 327.39044,380.61074 L 334.63828,376.89843 L 339.94158,376.89843 L 343.65389,382.02496 L 345.59844,390.15668 L 345.42166,395.45998 L 345.77521,397.40453 L 337.99704,382.37851 L 328.4511,386.09082 L 321.55681,386.2676 L 311.12698,381.31785 L 303.70236,398.81874 z"
         style="fill:none;fill-opacity:0.75;fill-rule:evenodd;stroke:#000000;stroke-width:1px;stroke-linecap:butt;stroke-linejoin:miter;stroke-opacity:1" />
    </clipPath>
    <linearGradient
       inkscape:collect="always"
       id="linearGradient3433">
      <stop
         offset="0"
         id="stop3435"
         style="stop-color:#ffffff;stop-opacity:1;" />
      <stop
         offset="1"
         id="stop3437"
         style="stop-color:#ffffff;stop-opacity:0;" />
    </linearGradient>
    <linearGradient
       inkscape:collect="always"
       xlink:href="#linearGradient3433"
       id="linearGradient10604"
       gradientUnits="userSpaceOnUse"
       x1="324.65039"
       y1="398.85446"
       x2="325.7691"
       y2="370.57019" />
    <radialGradient
       inkscape:collect="always"
       xlink:href="#linearGradient3837"
       id="radialGradient8964"
       gradientUnits="userSpaceOnUse"
       gradientTransform="matrix(1,0,0,2.5768702,-372.5,-950.79699)"
       cx="303.71942"
       cy="397.17728"
       fx="303.71942"
       fy="397.17728"
       r="0.79621875" />
    <filter
       inkscape:collect="always"
       id="filter3833"
       x="-0.15930007"
       y="-0.071685553"
       width="1.3186002"
       height="1.1433711">
      <feGaussianBlur
         inkscape:collect="always"
         id="feGaussianBlur3835"
         stdDeviation="0.10560268" />
    </filter>
    <linearGradient
       inkscape:collect="always"
       id="linearGradient3837">
      <stop
         offset="0"
         id="stop3839"
         style="stop-color:#f1e4d4;stop-opacity:1;" />
      <stop
         offset="1"
         id="stop3841"
         style="stop-color:#f1e4d4;stop-opacity:0;" />
    </linearGradient>
    <radialGradient
       inkscape:collect="always"
       xlink:href="#linearGradient3837"
       id="radialGradient8962"
       gradientUnits="userSpaceOnUse"
       gradientTransform="matrix(1,0,0,2.5768702,43.133514,-626.29699)"
       cx="303.71942"
       cy="397.17728"
       fx="303.71942"
       fy="397.17728"
       r="0.79621875" />
    <filter
       inkscape:collect="always"
       id="filter3325">
      <feGaussianBlur
         inkscape:collect="always"
         id="feGaussianBlur3327"
         stdDeviation="0.16076312" />
    </filter>
    <linearGradient
       inkscape:collect="always"
       id="linearGradient3329">
      <stop
         offset="0"
         id="stop3331"
         style="stop-color:#f9eee2;stop-opacity:1;" />
      <stop
         offset="1"
         id="stop3333"
         style="stop-color:#f9eee2;stop-opacity:0;" />
    </linearGradient>
    <linearGradient
       inkscape:collect="always"
       xlink:href="#linearGradient3329"
       id="linearGradient8960"
       gradientUnits="userSpaceOnUse"
       gradientTransform="translate(-372.5,-324.5)"
       x1="317.01251"
       y1="431.1243"
       x2="331.42062"
       y2="418.65884" />
    <mask
       id="mask3287"
       maskUnits="userSpaceOnUse">
      <path
         id="path3289"
         d="M 412.56716,362.7206 C 404.7906,362.9256 395.78945,368.58113 392.66091,375.5331 C 389.47419,382.61431 389.9381,391.06936 391.84841,400.8456 C 393.75873,410.62183 400.03668,420.79216 403.22341,424.4706 C 406.24381,427.95705 410.11265,427.32692 412.56716,427.25185 C 412.69296,427.25185 412.8695,427.24772 413.00466,427.25185 C 415.45917,427.32692 419.32801,427.95705 422.34841,424.4706 C 425.53514,420.79216 431.81309,410.62183 433.72341,400.8456 C 435.63374,391.06936 436.09763,382.61431 432.91091,375.5331 C 429.78236,368.58113 420.78122,362.9256 413.00466,362.7206 L 412.56716,362.7206 z"
         style="opacity:1;fill:url(#radialGradient3291);fill-opacity:1;fill-rule:evenodd;stroke:none;stroke-width:1px;stroke-linecap:butt;stroke-linejoin:miter;stroke-opacity:1"
         sodipodi:nodetypes="csssssssscc" />
    </mask>
    <linearGradient
       id="linearGradient3163">
      <stop
         offset="0"
         id="stop3165"
         style="stop-color:#fff5e4;stop-opacity:1;" />
      <stop
         offset="0.25"
         id="stop3173"
         style="stop-color:#ffecd0;stop-opacity:1;" />
      <stop
         offset="0.5"
         id="stop3171"
         style="stop-color:#ffd390;stop-opacity:1;" />
      <stop
         offset="1"
         id="stop3167"
         style="stop-color:#ffc46a;stop-opacity:1;" />
    </linearGradient>
    <linearGradient
       inkscape:collect="always"
       xlink:href="#linearGradient3163"
       id="linearGradient10602"
       gradientUnits="userSpaceOnUse"
       x1="412.78592"
       y1="400.84558"
       x2="412.78592"
       y2="422.63611" />
    <linearGradient
       id="linearGradient3149-735">
      <stop
         offset="0"
         id="stop5584"
         style="stop-color:#faf0e4;stop-opacity:1;" />
      <stop
         offset="0.591133"
         id="stop5586"
         style="stop-color:#f8e7d4;stop-opacity:1;" />
      <stop
         offset="1"
         id="stop5588"
         style="stop-color:#f1cfa9;stop-opacity:1;" />
    </linearGradient>
    <radialGradient
       inkscape:collect="always"
       xlink:href="#linearGradient3149-735"
       id="radialGradient8956"
       gradientUnits="userSpaceOnUse"
       gradientTransform="matrix(1.0059645,0,0,1.4472234,-271.44676,-535.35257)"
       cx="324.39758"
       cy="396.09259"
       fx="330.04404"
       fy="392.75388"
       r="22.444885" />
    <filter
       inkscape:collect="always"
       id="filter3694">
      <feGaussianBlur
         inkscape:collect="always"
         id="feGaussianBlur3696"
         stdDeviation="1.640636" />
    </filter>
    <clipPath
       id="clipPath3705"
       clipPathUnits="userSpaceOnUse">
      <path
         d="M 341.25,409.625 C 339.73679,416.82736 335.50876,433.0214 340.75,436.875 C 340.10353,443.87478 333.6714,446.51892 325.75,448.0625 L 324.25,448.0625 C 316.3286,446.51892 309.89647,443.87478 309.25,436.875 C 314.49124,433.0214 310.26321,416.82736 308.75,409.625 L 325,417.03125 L 341.25,409.625 z"
         id="path3707"
         style="opacity:0.74906365;fill:url(#radialGradient3709);fill-opacity:1;fill-rule:evenodd;stroke:none;stroke-width:1px;stroke-linecap:butt;stroke-linejoin:miter;stroke-opacity:1"
         sodipodi:nodetypes="cccccccc" />
    </clipPath>
    <radialGradient
       inkscape:collect="always"
       xlink:href="#linearGradient3654"
       id="radialGradient8954"
       gradientUnits="userSpaceOnUse"
       gradientTransform="matrix(-0.696437,0,0,1.188967,285.63744,-439.0428)"
       cx="312"
       cy="431.38034"
       fx="311.27777"
       fy="433.70554"
       r="16.25" />
    <linearGradient
       id="linearGradient3654">
      <stop
         offset="0"
         id="stop3656"
         style="stop-color:#f9ede0;stop-opacity:1;" />
      <stop
         offset="0.5"
         id="stop3670"
         style="stop-color:#f9ede0;stop-opacity:0.80575538;" />
      <stop
         offset="1"
         id="stop3658"
         style="stop-color:#f9ede0;stop-opacity:0;" />
    </linearGradient>
    <radialGradient
       inkscape:collect="always"
       xlink:href="#linearGradient3654"
       id="radialGradient8952"
       gradientUnits="userSpaceOnUse"
       gradientTransform="matrix(0.696437,0,0,1.188967,-175.09425,-439.0428)"
       cx="312"
       cy="431.38034"
       fx="311.27777"
       fy="433.70554"
       r="16.25" />
    <filter
       inkscape:collect="always"
       id="filter3624">
      <feGaussianBlur
         inkscape:collect="always"
         id="feGaussianBlur3626"
         stdDeviation="1.1236176" />
    </filter>
    <filter
       inkscape:collect="always"
       x="-0.10290141"
       width="1.2058028"
       y="-0.089966141"
       height="1.1799324"
       id="filter8878">
      <feGaussianBlur
         inkscape:collect="always"
         stdDeviation="1.7150235"
         id="feGaussianBlur8880" />
    </filter>
    <linearGradient
       id="linearGradient8707">
      <stop
         style="stop-color:#ffffff;stop-opacity:0;"
         offset="0"
         id="stop8709" />
      <stop
         style="stop-color:#ffffff;stop-opacity:1;"
         offset="1"
         id="stop8711" />
    </linearGradient>
    <linearGradient
       id="XMLID_2_"
       gradientUnits="userSpaceOnUse"
       x1="75.737198"
       y1="-17.413694"
       x2="75.7372"
       y2="69.5504"
       gradientTransform="translate(0,1)">
      <stop
         offset="0"
         style="stop-color:#FFFFFF"
         id="stop8154" />
      <stop
         offset="0.73608381"
         style="stop-color:#ffffff;stop-opacity:0;"
         id="stop8156" />
    </linearGradient>
    <radialGradient
       id="path5692_2_"
       cx="-5.314"
       cy="654.0664"
       r="20.3231"
       gradientTransform="matrix(0.4137,-0.5587,0.499,0.3694,-218.5837,-230.0567)"
       gradientUnits="userSpaceOnUse">
      <stop
         offset="0"
         style="stop-color:#2C72C7"
         id="stop8148" />
      <stop
         offset="1"
         style="stop-color:#6193CF"
         id="stop8150" />
    </radialGradient>
    <linearGradient
       id="XMLID_5_"
       gradientUnits="userSpaceOnUse"
       x1="28"
       y1="56"
       x2="28"
       y2="8.0005"
       gradientTransform="translate(0,1)">
      <stop
         offset="0"
         style="stop-color:#A4C0E4"
         id="stop8163" />
      <stop
         offset="1"
         style="stop-color:#6193CF"
         id="stop8165" />
    </linearGradient>
    <linearGradient
       y2="70"
       x2="60.0005"
       y1="72"
       x1="60.0005"
       gradientUnits="userSpaceOnUse"
       id="XMLID_14_">
      <stop
         id="stop8131"
         style="stop-color:#BBBBBB"
         offset="0" />
      <stop
         id="stop8133"
         style="stop-color:#555555"
         offset="1" />
    </linearGradient>
    <linearGradient
       y2="-35.0556"
       x2="58.6767"
       y1="84.9443"
       x1="155.6768"
       gradientUnits="userSpaceOnUse"
       id="XMLID_12_">
      <stop
         id="stop8122"
         style="stop-color:#2C72C7"
         offset="0" />
      <stop
         id="stop8124"
         style="stop-color:#A4C0E4"
         offset="1" />
    </linearGradient>
    <linearGradient
       y2="-13.1904"
       x2="31.6279"
       y1="106.8096"
       x1="128.6279"
       gradientUnits="userSpaceOnUse"
       id="XMLID_11_">
      <stop
         id="stop8115"
         style="stop-color:#2C72C7"
         offset="0" />
      <stop
         id="stop8117"
         style="stop-color:#A4C0E4"
         offset="1" />
    </linearGradient>
    <linearGradient
       id="XMLID_10_"
       gradientUnits="userSpaceOnUse"
       x1="26.27"
       y1="-19.9668"
       x2="109.9365"
       y2="138.7002"
       gradientTransform="translate(0,1)">
      <stop
         offset="0"
         style="stop-color:#D9DEE4"
         id="stop8104" />
      <stop
         offset="0.2899"
         style="stop-color:#FFFFFF"
         id="stop8106" />
      <stop
         offset="1"
         style="stop-color:#C5C9CF"
         id="stop8108" />
    </linearGradient>
    <filter
       inkscape:collect="always"
       id="filter3372">
      <feGaussianBlur
         inkscape:collect="always"
         stdDeviation="2.2402508"
         id="feGaussianBlur3374" />
    </filter>
    <linearGradient
       inkscape:collect="always"
       xlink:href="#XMLID_11_"
       id="linearGradient4611"
       gradientUnits="userSpaceOnUse"
       x1="128.6279"
       y1="106.8096"
       x2="31.6279"
       y2="-13.1904" />
    <linearGradient
       inkscape:collect="always"
       xlink:href="#XMLID_12_"
       id="linearGradient4613"
       gradientUnits="userSpaceOnUse"
       x1="155.6768"
       y1="84.9443"
       x2="58.6767"
       y2="-35.0556" />
    <linearGradient
       inkscape:collect="always"
       xlink:href="#XMLID_14_"
       id="linearGradient4615"
       gradientUnits="userSpaceOnUse"
       x1="60.0005"
       y1="72"
       x2="60.0005"
       y2="70" />
    <linearGradient
       inkscape:collect="always"
       xlink:href="#XMLID_2_"
       id="linearGradient5013"
       gradientUnits="userSpaceOnUse"
       gradientTransform="matrix(0.9377365,0,0,0.936618,7.76532,16.516375)"
       x1="75.737198"
       y1="-17.413694"
       x2="75.7372"
       y2="69.5504" />
    <linearGradient
       inkscape:collect="always"
       xlink:href="#linearGradient8707"
       id="linearGradient5015"
       gradientUnits="userSpaceOnUse"
       gradientTransform="matrix(0.9377365,0,0,0.936618,7.76532,16.516375)"
       x1="2"
       y1="38.9535"
       x2="118"
       y2="38.9535" />
    <radialGradient
       inkscape:collect="always"
       xlink:href="#path5692_2_"
       id="radialGradient5018"
       gradientUnits="userSpaceOnUse"
       gradientTransform="matrix(0.3180473,-0.4063643,0.3836249,0.2686792,-145.22373,-146.96592)"
       cx="-5.314"
       cy="654.0664"
       r="20.3231" />
    <linearGradient
       inkscape:collect="always"
       xlink:href="#XMLID_5_"
       id="linearGradient5022"
       gradientUnits="userSpaceOnUse"
       gradientTransform="translate(8.0000019,23.999999)"
       x1="28"
       y1="56"
       x2="28"
       y2="8.0005" />
    <linearGradient
       inkscape:collect="always"
       xlink:href="#XMLID_10_"
       id="linearGradient5040"
       gradientUnits="userSpaceOnUse"
       gradientTransform="matrix(1,0,0,0.9997388,0,2.92525e-2)"
       x1="6.3379517"
       y1="-33.879009"
       x2="153.43973"
       y2="197.64415" />
    <linearGradient
       inkscape:collect="always"
       xlink:href="#XMLID_2_"
       id="linearGradient5046"
       gradientUnits="userSpaceOnUse"
       gradientTransform="translate(8.0000019,23.999999)"
       x1="28"
       y1="46.839195"
       x2="28"
       y2="8.0005" />
    <clipPath
       clipPathUnits="userSpaceOnUse"
       id="clipPath5071">
      <rect
         id="rect5073"
         height="39.320889"
         width="33.607609"
         y="15.918683"
         x="9.6803799"
         style="opacity:1;fill:#e85290" />
    </clipPath>
  </defs>
  <sodipodi:namedview
     id="base"
     pagecolor="#ffffff"
     bordercolor="#666666"
     borderopacity="1.0"
     inkscape:pageopacity="0.0"
     inkscape:pageshadow="2"
     inkscape:zoom="5.1305528"
     inkscape:cx="75.802739"
     inkscape:cy="63.992862"
     inkscape:document-units="px"
     inkscape:current-layer="layer1"
     inkscape:window-width="1091"
     inkscape:window-height="761"
     inkscape:window-x="543"
     inkscape:window-y="195">
    <inkscape:grid
       type="xygrid"
       id="grid4625"
       spacingx="8px"
       spacingy="8px"
       empspacing="0" />
  </sodipodi:namedview>
  <metadata
     id="metadata4358">
    <rdf:RDF>
      <cc:Work
         rdf:about="">
        <dc:format>image/svg+xml</dc:format>
        <dc:type
           rdf:resource="http://purl.org/dc/dcmitype/StillImage" />
      </cc:Work>
    </rdf:RDF>
  </metadata>
  <g
     inkscape:label="Livello 1"
     inkscape:groupmode="layer"
     id="layer1">
    <path
       sodipodi:nodetypes="cccccsccccccccccsccsccccccccccscccccc"
       id="path3362"
       d="M 11.733329,15.975 C 9.6799986,15.975 7.9999986,17.774999 7.9999986,19.974997 L 7.9999986,108 C 7.9999986,110.2 9.6799986,112 11.733329,112 L 30.399999,112 C 32.453329,112 34.133329,111.1 34.133329,110 C 34.133329,108.9 32.453329,108 30.399999,108 L 30.399999,108 C 28.346669,108 26.666669,107.20314 26.666669,108.01254 L 26.666669,108.01254 C 26.666669,105.81255 28.346669,104.01255 30.399999,104.01255 L 45.333329,104.01255 C 47.38667,104.01255 49.06667,105.81255 49.06667,108.01254 L 49.06667,108.01254 C 49.33319,107.01787 47.38667,108 45.333329,108 L 45.333329,108 C 43.279999,108 41.599999,108.9 41.599999,110 C 41.599999,111.1 43.279999,112 45.333329,112 L 82.666671,112 C 84.720001,112 86.400001,111.1 86.400001,110 C 86.400001,108.9 84.720001,108 82.666671,108 L 82.666671,108 C 80.61333,108 78.93333,106.80189 78.93333,108.01254 L 78.93333,108.01254 C 78.93333,105.81255 80.61333,104.01255 82.666671,104.01255 L 97.600001,104.01255 C 99.653331,104.01255 101.33333,105.81255 101.33333,108.01254 L 101.33333,108.01254 C 101.33333,107.40377 99.653331,108 97.600001,108 L 97.600001,108 C 95.546671,108 93.866671,108.9 93.866671,110 C 93.866671,111.1 95.546671,112 97.600001,112 L 116.26667,112 C 118.32,112 120,110.2 120,108 L 120,19.974997 C 120,17.774999 118.32,15.975 116.26667,15.975 L 11.733329,15.975 z"
       style="opacity:0.5;fill:none;stroke:#000000;stroke-width:7.99999714;stroke-miterlimit:4;stroke-dasharray:none;stroke-opacity:1;filter:url(#filter3372)"
       transform="matrix(1.0000086,0,0,0.9997497,-5.5232005e-4,2.8511656e-2)" />
    <path
       style="fill:#ffffff"
       d="M 11.73333,15.999999 C 9.68,15.999999 8,17.799529 8,19.998955 L 8,108.00104 C 8,110.20047 9.68,112 11.73333,112 L 30.4,112 C 32.45333,112 34.13333,111.10023 34.13333,110.00052 C 34.13333,108.90081 32.45333,108.00104 30.4,108.00104 L 30.4,108.00104 C 28.34667,108.00104 26.66667,107.20438 26.66667,108.01358 L 26.66667,108.01358 C 26.66667,105.81415 28.34667,104.01462 30.4,104.01462 L 45.33333,104.01462 C 47.38667,104.01462 49.06667,105.81415 49.06667,108.01358 L 49.06667,108.01358 C 49.33319,107.01916 47.38667,108.00104 45.33333,108.00104 L 45.33333,108.00104 C 43.28,108.00104 41.6,108.90081 41.6,110.00052 C 41.6,111.10023 43.28,112 45.33333,112 L 82.66667,112 C 84.72,112 86.4,111.10023 86.4,110.00052 C 86.4,108.90081 84.72,108.00104 82.66667,108.00104 L 82.66667,108.00104 C 80.61333,108.00104 78.93333,106.80323 78.93333,108.01358 L 78.93333,108.01358 C 78.93333,105.81415 80.61333,104.01462 82.66667,104.01462 L 97.6,104.01462 C 99.65333,104.01462 101.33333,105.81415 101.33333,108.01358 L 101.33333,108.01358 C 101.33333,107.40496 99.65333,108.00104 97.6,108.00104 L 97.6,108.00104 C 95.54667,108.00104 93.86667,108.90081 93.86667,110.00052 C 93.86667,111.10023 95.54667,112 97.6,112 L 116.26667,112 C 118.32,112 120,110.20047 120,108.00104 L 120,19.998955 C 120,17.799529 118.32,15.999999 116.26667,15.999999 L 11.73333,15.999999 z"
       id="path8101"
       sodipodi:nodetypes="cccccsccccccccccsccsccccccccccscccccc" />
    <path
       sodipodi:nodetypes="cccccsccccccccccsccsccccccccccscccccc"
       id="path3376"
       d="M 15.74587,20.011491 C 13.69254,20.011491 12.01254,21.811021 12.01254,24.010447 L 12.01254,108.00104 C 12.01254,110.20047 13.69254,112 15.74587,112 L 30.4,112 C 32.45333,112 34.13333,111.10023 34.13333,110.00052 C 34.13333,108.90081 32.45333,108.00104 30.4,108.00104 L 30.4,108.00104 C 28.34667,108.00104 26.66667,107.20438 26.66667,108.01358 L 26.66667,108.01358 C 26.66667,105.81415 28.34667,104.01462 30.4,104.01462 L 45.33333,104.01462 C 47.38667,104.01462 49.06667,105.81415 49.06667,108.01358 L 49.06667,108.01358 C 49.33319,107.01916 47.38667,108.00104 45.33333,108.00104 L 45.33333,108.00104 C 43.28,108.00104 41.6,108.90081 41.6,110.00052 C 41.6,111.10023 43.28,112 45.33333,112 L 82.66667,112 C 84.72,112 86.4,111.10023 86.4,110.00052 C 86.4,108.90081 84.72,108.00104 82.66667,108.00104 L 82.66667,108.00104 C 80.61333,108.00104 78.93333,106.80323 78.93333,108.01358 L 78.93333,108.01358 C 78.93333,105.81415 80.61333,104.01462 82.66667,104.01462 L 97.6,104.01462 C 99.65333,104.01462 101.33333,105.81415 101.33333,108.01358 L 101.33333,108.01358 C 101.33333,107.40496 99.65333,108.00104 97.6,108.00104 L 97.6,108.00104 C 95.54667,108.00104 93.86667,108.90081 93.86667,110.00052 C 93.86667,111.10023 95.54667,112 97.6,112 L 112.25413,112 C 114.30746,112 115.98746,110.20047 115.98746,108.00104 L 115.98746,24.010447 C 115.98746,21.811021 114.30746,20.011491 112.25413,20.011491 L 15.74587,20.011491 z"
       style="fill:url(#linearGradient5040)" />
    <g
       transform="matrix(1,0,0,0.9997388,-0.64589,17.266369)"
       style="opacity:0.3"
       id="g8112">
      <linearGradient
         id="linearGradient9234"
         gradientUnits="userSpaceOnUse"
         x1="128.6279"
         y1="106.8096"
         x2="31.627899"
         y2="-13.1904">
        <stop
           offset="0"
           style="stop-color:#2C72C7"
           id="stop9236" />
        <stop
           offset="1"
           style="stop-color:#A4C0E4"
           id="stop9238" />
      </linearGradient>
      <path
         style="fill:url(#linearGradient4611)"
         d="M 119,65.969 L 119,57.018 C 114.712,58.893 109.98,59.941 105.004,59.941 C 85.733,59.941 70.088,44.299 70.088,25.016 C 70.088,15.696 73.769,7.255 79.73,1 L 66.62,1 L 67.798,2.943 C 66.005,5.949 64.552,9.172 63.527,12.593 L 45.01,16.432 C 44.494,16.543 44.119,17.036 44.119,17.56 L 44.119,29.748 C 44.119,30.264 44.512,30.712 45.01,30.829 L 62.963,35.191 C 63.924,39.149 65.406,42.94 67.363,46.394 L 56.969,62.234 C 56.676,62.679 56.735,63.271 57.11,63.637 L 65.735,72.265 C 66.092,72.625 66.649,72.669 67.083,72.406 L 83.4,62.519 C 86.599,64.368 90.068,65.841 93.712,66.826 L 95.408,75 L 96,75 C 98.757,75 101,77.243 101,80 C 101,82.256 99.488,84.145 97.433,84.766 L 97.504,85.11 C 97.615,85.625 98.061,86 98.588,86 L 110.776,86 C 111.286,86 111.731,85.657 111.854,85.156 L 116.348,66.781 C 117.246,66.539 118.129,66.266 119,65.969 z"
         id="path8119" />
      <linearGradient
         id="linearGradient9241"
         gradientUnits="userSpaceOnUse"
         x1="155.6768"
         y1="84.944298"
         x2="58.676701"
         y2="-35.055599">
        <stop
           offset="0"
           style="stop-color:#2C72C7"
           id="stop9243" />
        <stop
           offset="1"
           style="stop-color:#A4C0E4"
           id="stop9245" />
      </linearGradient>
      <path
         style="fill:url(#linearGradient4613)"
         d="M 94.979,46.484 L 116.688,43.206 L 116.688,4.669 L 119,8.055 L 119,4 C 119,2.346 117.654,1 116,1 L 94.979,1 L 94.979,46.484 z"
         id="path8126" />
    </g>
    <g
       transform="matrix(0.824052,0,0,0.9997388,14.76186,24.022983)"
       id="g8128">
      <linearGradient
         id="linearGradient9249"
         gradientUnits="userSpaceOnUse"
         x1="60.0005"
         y1="72"
         x2="60.0005"
         y2="70">
        <stop
           offset="0"
           style="stop-color:#BBBBBB"
           id="stop9251" />
        <stop
           offset="1"
           style="stop-color:#555555"
           id="stop9253" />
      </linearGradient>
      <path
         style="fill:url(#linearGradient4615)"
         d="M 118,71 C 118,71.55 117.55,72 117,72 L 3,72 C 2.45,72 2,71.55 2,71 L 2,71 C 2,70.45 2.45,70 3,70 L 117,70 C 117.55,70 118,70.45 118,71 L 118,71 z"
         id="path8135" />
    </g>
    <rect
       style="opacity:0.5;fill:url(#linearGradient5022)"
       x="16"
       y="31.999998"
       width="40"
       height="48"
       id="rect8167" />
    <path
       style="opacity:0.9;fill:url(#radialGradient5018)"
       id="path5692_1_"
       d="M 105.32614,24 L 102.51547,24.255293 L 102.51547,35.211198 L 105.29695,34.814061 L 105.29695,30.142377 L 109.03787,35.325389 L 111.96848,34.443855 L 108.13684,29.460847 L 112,24.761509 L 109.00788,24.112727 L 105.29695,28.812065 L 105.32614,24 z M 98.953671,26.670772 C 98.922171,26.672958 98.887577,26.682423 98.863731,26.704243 L 97.758209,27.750161 C 97.712866,27.794523 97.707482,27.861443 97.741293,27.915251 L 99.033627,29.932888 C 98.803764,30.297297 98.617716,30.687878 98.48627,31.102462 L 96.113767,31.567948 C 96.047672,31.581766 96,31.641407 96,31.704697 L 96,33.18191 C 96,33.244478 96.049963,33.299027 96.113767,33.312845 L 98.413988,33.84162 C 98.536996,34.321662 98.726901,34.781333 98.977517,35.199567 L 97.645988,37.11974 C 97.608301,37.173546 97.615995,37.245561 97.663648,37.289923 L 98.76917,38.335841 C 98.815295,38.37948 98.88603,38.384575 98.94214,38.352567 L 101.03325,37.153913 C 101.443,37.37794 101.88737,37.556866 102.35479,37.67615 L 102.84068,39.892348 C 102.85526,39.954897 102.91218,40 102.97982,40 L 104.54123,40 C 104.60656,40 104.66347,39.958529 104.67961,39.897441 L 105.25543,37.670334 C 105.739,37.547402 106.19256,37.364122 106.61388,37.129907 L 108.67347,38.408579 C 108.73034,38.443493 108.8057,38.437678 108.85337,38.391852 L 109.95349,37.345934 C 110.00116,37.301573 110.01114,37.234653 109.97655,37.180826 L 109.22621,36.01127 L 108.98019,36.08473 C 108.94486,36.095639 108.90486,36.080358 108.88411,36.050538 C 108.88411,36.050538 108.41054,35.390847 107.79166,34.534041 C 107.05056,35.90434 105.54066,36.841163 103.80242,36.841163 C 101.33307,36.841163 99.328842,34.944996 99.328842,32.607328 C 99.328842,30.888623 100.41592,29.411393 101.97195,28.748792 L 101.97195,27.657772 C 101.68827,27.751606 101.4138,27.865074 101.15471,27.998898 L 101.15471,27.995268 L 99.046705,26.688239 C 99.015185,26.670049 98.985211,26.667142 98.953671,26.670772 z" />
    <g
       id="g3922"
       inkscape:label="Livello 1"
       transform="matrix(1.7775438,0,0,1.7775438,-16.656326,-6.1046286)"
       style="fill:#888888" />
    <rect
       style="opacity:1;fill:#bbbbbb;fill-opacity:1;fill-rule:evenodd;stroke:none;stroke-width:3;stroke-linecap:round;stroke-linejoin:round;stroke-miterlimit:4;stroke-dasharray:none;stroke-dashoffset:0;stroke-opacity:1"
       id="rect5056"
       width="40"
       height="8.1862526"
       x="64"
       y="47.813747" />
    <rect
       y="63.813747"
       x="64"
       height="8.1862526"
       width="40"
       id="rect5058"
       style="opacity:1;fill:#bbbbbb;fill-opacity:1;fill-rule:evenodd;stroke:none;stroke-width:3;stroke-linecap:round;stroke-linejoin:round;stroke-miterlimit:4;stroke-dasharray:none;stroke-dashoffset:0;stroke-opacity:1" />
    <rect
       style="opacity:1;fill:#bbbbbb;fill-opacity:1;fill-rule:evenodd;stroke:none;stroke-width:3;stroke-linecap:round;stroke-linejoin:round;stroke-miterlimit:4;stroke-dasharray:none;stroke-dashoffset:0;stroke-opacity:1"
       id="rect5060"
       width="40"
       height="8.1862526"
       x="64"
       y="79.813751" />
    <rect
       y="31.813747"
       x="64"
       height="8.1862526"
       width="24"
       id="rect5062"
       style="opacity:1;fill:#a4c0e4;fill-opacity:1;fill-rule:evenodd;stroke:none;stroke-width:3;stroke-linecap:round;stroke-linejoin:round;stroke-miterlimit:4;stroke-dasharray:none;stroke-dashoffset:0;stroke-opacity:1" />
    <path
       sodipodi:nodetypes="ccccccc"
       d="M 116.54275,18.389615 L 11.51626,18.389615 C 10.48194,18.389615 9.64079,19.229756 9.64079,20.262846 L 9.64079,59.513711 C 37.81227,52.729783 81.086,57.722899 118.41822,22.267212 L 118.41822,20.262846 C 118.41822,19.229756 117.57707,18.389615 116.54275,18.389615 z"
       id="path8158"
       style="fill:url(#linearGradient5013);stroke:url(#linearGradient5015);stroke-width:0.99986941" />
    <g
       id="g8920"
       transform="matrix(1.1902067,0,0,1.2207252,4.4783467,12.567661)"
       clip-path="url(#clipPath5071)">
      <path
         id="path8719"
         d="M 28.625,14.25 C 23.771729,14.25 16.883848,20.024681 16.883844,24.874768 C 16.883845,26.032741 16.755219,27.193302 17.071344,28.218518 C 16.746367,27.976249 16.167418,28.174015 16.227594,28.781018 C 16.987168,32.342564 17.646375,33.071899 18.321344,33.218518 C 18.891803,34.857727 19.66,36.420379 20.415094,37.687268 C 20.845911,40.089125 21.080411,42.683593 20.258844,43.968518 C 18.946941,44.325368 19.748419,44.417682 19.758844,44.656018 C 17.021365,45.750884 16.687993,45.029441 13.75,46.5 C 12.659457,47.04586 11.38651,48.682066 11.0625,49.5625 C 10.074308,52.247683 9,56.03125 9,56.03125 L 9.59375,56.71875 C 15.639954,60.160753 23.832596,60 29,60 C 34.167405,60.000001 42.360049,60.160752 48.40625,56.71875 L 49,56.03125 C 49,56.031249 47.925691,52.247684 46.9375,49.5625 C 46.613489,48.682065 45.371794,47.04586 44.28125,46.5 C 41.343257,45.029441 39.794675,45.136379 37.057193,44.041512 C 37.070269,43.742636 36.769769,43.341388 36.275943,43.260262 C 35.43621,41.795815 35.806125,38.830994 36.307193,36.291512 C 37.022172,34.993986 37.704269,33.478777 38.182193,31.916512 C 38.735473,31.561109 37.700512,29.731542 38.322327,26.815921 C 38.37916,26.242642 37.873376,26.03916 37.541077,26.222171 C 37.719416,25.347032 37.5,24.007308 37.5,23.03125 C 37.500001,19.069515 34.857845,15.720023 31.25,14.625 C 30.993852,14.545327 30.734326,14.462531 30.46875,14.40625 C 30.448724,14.402151 30.426325,14.410212 30.40625,14.40625 C 30.140188,14.351796 29.867952,14.311066 29.59375,14.28125 C 29.573399,14.279182 29.551642,14.283178 29.53125,14.28125 C 29.235803,14.251235 28.92833,14.25 28.625,14.25 z"
         style="opacity:0.5;fill:#00316e;fill-opacity:1;fill-rule:evenodd;stroke:none;stroke-width:1px;stroke-linecap:butt;stroke-linejoin:miter;stroke-opacity:1;filter:url(#filter8878)"
         transform="matrix(-1.081507,0,0,0.9720545,58.917142,2.0669075)"
         sodipodi:nodetypes="csccccccssccsccssccccccssssssc" />
      <g
         id="g6403"
         transform="matrix(0.3361031,0,0,0.3361031,8.7272044,16.371561)">
        <path
           d="M -98.9545,147.40533 L -97.80806,148.625 C -82.1633,157.53715 -61.37084,157.125 -48,157.125 C -34.62916,157.125 -13.39476,157.53715 2.25,148.625 L 3.75,146.875 C -29.1808,121.09132 -85.02254,99.65662 -98.9545,147.40533 z"
           transform="matrix(1.0059645,0,0,1.0053055,103.05489,-34.059089)"
           sodipodi:nodetypes="ccsccc"
           style="fill:#c8cddc;fill-opacity:1;fill-rule:evenodd;stroke:none;stroke-width:1px;stroke-linecap:butt;stroke-linejoin:miter;stroke-opacity:1;filter:url(#filter3624)"
           id="path3259" />
        <path
           id="path3845"
           d="M 73.403249,48.295662 C 75.326591,48.132728 77.202494,46.774382 79.36058,36.655358 C 79.569427,34.548685 76.758714,34.349249 76.604207,36.21107 C 74.514395,40.239272 73.598719,44.267481 73.403249,48.295662 z"
           style="fill:#ddc2a4;fill-opacity:1;fill-rule:evenodd;stroke:none;stroke-width:1px;stroke-linecap:butt;stroke-linejoin:miter;stroke-opacity:1"
           sodipodi:nodetypes="cccc" />
        <path
           d="M 35.980896,49.717379 C 34.05755,49.554445 32.181647,48.196065 30.023562,38.077086 C 29.814714,35.970412 32.625427,35.770949 32.779934,37.632798 C 34.869746,41.661 35.785426,45.689164 35.980896,49.717379 z"
           id="path3715"
           style="fill:#ddc2a4;fill-opacity:1;fill-rule:evenodd;stroke:none;stroke-width:1px;stroke-linecap:butt;stroke-linejoin:miter;stroke-opacity:1"
           sodipodi:nodetypes="cccc" />
        <path
           d="M 38.924665,51.517533 C 40.446902,58.75809 44.700149,75.038049 39.427648,78.912104 C 40.077973,85.949027 46.548466,88.607199 54.517111,90.158961 L 56.026059,90.158961 C 63.994707,88.607199 70.465197,85.949027 71.115526,78.912104 C 65.843025,75.038049 70.096272,58.75809 71.618505,51.517533 L 55.271589,58.963065 L 38.924665,51.517533 z"
           id="path3629"
           style="fill:#cbb7a2;fill-opacity:1;fill-rule:evenodd;stroke:none;stroke-width:1px;stroke-linecap:butt;stroke-linejoin:miter;stroke-opacity:1"
           sodipodi:nodetypes="cccccccc" />
        <path
           id="path3634"
           d="M 38.924665,51.517533 C 40.446902,58.75809 44.700149,75.038049 39.427648,78.912104 C 40.077973,85.949027 46.548466,88.607199 54.517111,90.158961 L 56.026059,90.158961 C 63.994707,88.607199 70.465197,85.949027 71.115526,78.912104 C 65.843025,75.038049 70.096272,58.75809 71.618505,51.517533 L 55.271589,58.963065 L 38.924665,51.517533 z"
           style="fill:url(#radialGradient8952);fill-opacity:1;fill-rule:evenodd;stroke:none;stroke-width:1px;stroke-linecap:butt;stroke-linejoin:miter;stroke-opacity:1"
           sodipodi:nodetypes="cccccccc" />
        <path
           d="M 71.618505,51.517533 C 70.096272,58.75809 65.843025,75.038049 71.115526,78.912104 C 70.465197,85.949027 63.994707,88.607199 56.026059,90.158961 L 54.517111,90.158961 C 46.548466,88.607199 40.077973,85.949027 39.427648,78.912104 C 44.700149,75.038049 40.446902,58.75809 38.924665,51.517533 L 55.271589,58.963065 L 71.618505,51.517533 z"
           id="path3672"
           style="opacity:0.74906365;fill:url(#radialGradient8954);fill-opacity:1;fill-rule:evenodd;stroke:none;stroke-width:1px;stroke-linecap:butt;stroke-linejoin:miter;stroke-opacity:1"
           sodipodi:nodetypes="cccccccc" />
        <path
           id="path3676"
           transform="matrix(1.0059645,0,0,1.0053055,-271.46562,-360.28069)"
           sodipodi:nodetypes="csssssssscc"
           clip-path="url(#clipPath3705)"
           d="M 324.17882,363.78125 C 316.40226,363.98625 310.30111,369.64178 307.17257,376.59375 C 303.98585,383.67496 304.44976,392.13001 306.36007,401.90625 C 308.27039,411.68248 311.64834,421.85281 314.83507,425.53125 C 317.85547,429.0177 321.72431,428.38757 324.17882,428.3125 C 324.30462,428.3125 324.48116,428.30837 324.61632,428.3125 C 327.07083,428.38757 330.93967,429.0177 333.96007,425.53125 C 337.1468,421.85281 341.52475,411.68248 343.43507,401.90625 C 345.3454,392.13001 345.80929,383.67496 342.62257,376.59375 C 339.49402,369.64178 332.39288,363.98625 324.61632,363.78125 L 324.17882,363.78125 z"
           style="fill:#382509;fill-opacity:1;fill-rule:evenodd;stroke:none;stroke-width:1px;stroke-linecap:butt;stroke-linejoin:miter;stroke-opacity:1;filter:url(#filter3694)" />
        <path
           d="M 54.665563,5.3991564 C 46.842622,5.6052254 37.787786,11.290762 34.640587,18.279618 C 31.43486,25.39839 31.901537,33.898301 33.823241,43.72642 C 35.744955,53.554519 42.060349,63.778772 45.266082,67.47675 C 48.304499,70.981692 52.196412,70.348223 54.665563,70.272743 C 54.792112,70.272743 54.969705,70.268614 55.105673,70.272743 C 57.574824,70.348223 61.466737,70.981692 64.505154,67.47675 C 67.710887,63.778772 74.026281,53.554519 75.947995,43.72642 C 77.869723,33.898301 78.336376,25.39839 75.130649,18.279618 C 71.98344,11.290762 62.928614,5.6052254 55.105673,5.3991564 L 54.665563,5.3991564 z"
           id="path2169"
           style="fill:url(#radialGradient8956);fill-opacity:1;fill-rule:evenodd;stroke:none;stroke-width:1px;stroke-linecap:butt;stroke-linejoin:miter;stroke-opacity:1"
           sodipodi:nodetypes="csssssssscc" />
        <path
           id="path3157"
           transform="matrix(1.0059645,0,0,1.0053055,-360.33441,-359.22512)"
           mask="url(#mask3287)"
           sodipodi:nodetypes="csssscc"
           d="M 391.84841,400.84559 C 395.5265,410.97537 400.03668,420.79215 403.22341,424.47059 C 406.24381,427.95704 410.11265,427.32691 412.56716,427.25184 C 412.69296,427.25184 412.8695,427.24771 413.00466,427.25184 C 415.45917,427.32691 419.32801,427.95704 422.34841,424.47059 C 425.53514,420.79215 430.39888,410.62182 433.72341,400.84559 L 391.84841,400.84559 z"
           style="fill:url(#linearGradient10602);fill-opacity:1;fill-rule:evenodd;stroke:none;stroke-width:1px;stroke-linecap:butt;stroke-linejoin:miter;stroke-opacity:1" />
        <path
           id="path3161"
           transform="matrix(1.0059645,0,0,1.0053055,103.05489,-34.059089)"
           style="opacity:1;fill:url(#linearGradient8960);fill-opacity:1;fill-rule:evenodd;stroke:none;stroke-width:1px;stroke-linecap:butt;stroke-linejoin:miter;stroke-opacity:1;filter:url(#filter3325)"
           sodipodi:nodetypes="ccssscssssc"
           d="M -34.57938,94.15885 C -36.60974,97.79098 -37.62278,97.4605 -39.6875,99.96875 C -42.55362,103.27713 -46.48338,102.22748 -48.8125,102.15625 C -48.94075,102.15234 -49.09939,102.15624 -49.21875,102.15625 C -51.5479,102.22749 -55.52764,102.8396 -58.39375,99.53125 C -58.7164,99.15883 -59.10666,98.69226 -59.4875,98.1875 C -58.74735,99.25458 -58.00114,100.20997 -57.425,100.875 C -54.55888,104.18335 -50.61038,103.57124 -48.28125,103.5 C -48.16189,103.50001 -47.97201,103.49608 -47.84375,103.5 C -45.51464,103.57125 -41.86612,104.18336 -39,100.875 C -37.5985,99.25724 -36.58252,97.77257 -34.57938,94.15885 z" />
        <path
           d="M 347.29991,395.43789 C 347.20744,394.69928 346.14533,395.38264 346.06247,396.32177 C 345.97961,397.2609 346.81711,399.53599 346.96846,399.19439 C 348.18061,396.45862 347.43118,396.48647 347.29991,395.43789 z"
           transform="matrix(-1.0059645,0,0,1.0053055,424.44171,-361.70241)"
           sodipodi:nodetypes="csss"
           style="fill:url(#radialGradient8962);fill-opacity:1;fill-rule:evenodd;stroke:none;stroke-width:1px;stroke-linecap:butt;stroke-linejoin:miter;stroke-opacity:1;filter:url(#filter3833)"
           id="path3849" />
        <path
           id="path3779"
           transform="matrix(1.0059645,0,0,1.0053055,103.05489,-34.059089)"
           style="fill:url(#radialGradient8964);fill-opacity:1;fill-rule:evenodd;stroke:none;stroke-width:1px;stroke-linecap:butt;stroke-linejoin:miter;stroke-opacity:1;filter:url(#filter3833)"
           sodipodi:nodetypes="csss"
           d="M -68.3336,70.93789 C -68.42607,70.19928 -69.48818,70.88264 -69.57104,71.82177 C -69.6539,72.7609 -68.8164,75.03599 -68.66505,74.69439 C -67.4529,71.95862 -68.20233,71.98647 -68.3336,70.93789 z" />
        <path
           id="path3380"
           transform="matrix(1.0059645,0,0,1.0053055,-271.84166,-360.28069)"
           sodipodi:nodetypes="cscccssssccsc"
           clip-path="url(#clipPath3429)"
           d="M 324.5,363.375 C 311.942,363.375 301.75001,373.56701 301.75,386.125 C 301.75,389.62206 301.40798,393.09067 302.8197,396.05178 L 304,396.91529 C 306.57247,392.37122 304.92256,388.81578 306,384.875 C 307,382.375 308.58874,380.212 311,379.375 C 315.29826,377.88299 321.81729,383.55368 324.5,383.625 C 327.40006,383.70209 333.55852,378.27854 337.96875,379.575 C 340.40504,380.29118 342.40902,382.5821 342.96875,385.075 C 344.01673,389.74243 344.56428,391.33155 344.97135,396.35463 L 346.15441,395.75 C 347.52866,392.82109 347.25,389.57242 347.25,386.125 C 347.25,373.567 337.05801,363.37501 324.5,363.375 z"
           style="opacity:1;fill:url(#linearGradient10604);fill-opacity:1;stroke:none;stroke-width:0;stroke-linecap:round;stroke-linejoin:round;stroke-miterlimit:4;stroke-dasharray:none;stroke-dashoffset:1.08779998;stroke-opacity:1;filter:url(#filter3420)" />
        <path
           d="M 54.768603,5.0221546 C 42.135704,5.0221546 31.882927,15.26824 31.882916,27.892857 C 31.882916,31.408457 31.538854,34.895464 32.958997,37.87231 L 34.146335,38.740385 C 36.734148,34.172199 35.074397,30.095258 36.158265,26.133565 C 37.16423,23.620296 38.762444,21.445824 41.188084,20.604384 C 45.511983,19.104468 52.069894,24.805242 54.768603,24.876946 C 57.685961,24.954449 63.88115,22.741394 68.317684,24.044716 C 70.768506,24.764708 72.78444,27.067776 73.347506,29.573896 C 74.401737,34.266089 74.952554,33.127016 75.362053,38.176749 L 76.552169,37.568904 C 77.934615,34.624465 77.654292,31.358569 77.654292,27.892857 C 77.654292,15.26824 67.401515,5.0221546 54.768603,5.0221546 z"
           id="path3347"
           style="opacity:1;fill:#b09278;fill-opacity:1;stroke:none;stroke-width:0;stroke-linecap:round;stroke-linejoin:round;stroke-miterlimit:4;stroke-dasharray:none;stroke-dashoffset:1.08779998;stroke-opacity:1"
           sodipodi:nodetypes="cscccssssccsc" />
        <path
           id="path3358"
           d="M 54.768603,5.0221546 C 46.69594,9.4065202 45.000549,12.012847 41.188084,20.604384 C 45.511983,19.104468 52.069894,24.805242 54.768603,24.876946 C 57.685961,24.954449 64.472845,22.365108 68.909379,23.668429 C 71.360201,24.388422 73.376135,26.69149 73.939201,29.19761 C 74.993431,33.889803 74.952554,33.127016 75.362053,38.176749 L 76.552169,37.568904 C 77.934615,34.624465 77.654292,31.358569 77.654292,27.892857 C 77.654292,15.26824 67.401515,5.0221546 54.768603,5.0221546 z"
           style="opacity:1;fill:url(#radialGradient8968);fill-opacity:1;stroke:none;stroke-width:0;stroke-linecap:round;stroke-linejoin:round;stroke-miterlimit:4;stroke-dasharray:none;stroke-dashoffset:1.08779998;stroke-opacity:1"
           sodipodi:nodetypes="ccsssccsc" />
        <path
           id="path3441"
           transform="matrix(1.0059645,0,0,1.0053055,-272.17782,-360.28069)"
           mask="none"
           sodipodi:nodetypes="cscccsssccssc"
           clip-path="none"
           d="M 312.54197,377.13598 C 311.94712,377.10972 311.3605,377.18074 310.82322,377.35473 C 308.41196,378.1356 306.38128,380.96011 305.38128,383.43684 C 304.45516,387.61524 305.77474,389.38257 304.88664,394.59185 C 305.73369,391.56142 305.58479,385.07509 305.82322,384.16723 C 306.82322,381.66722 308.41196,379.50423 310.82322,378.66723 C 315.12148,377.17521 321.64051,382.84591 324.32322,382.91723 C 327.22328,382.99431 333.38174,380.79295 337.79197,382.08941 C 340.22826,382.80558 342.23224,385.09651 342.79197,387.58941 L 342.79197,387.02691 C 342.23224,384.52098 340.22826,382.17481 337.79197,381.40191 C 333.38174,380.00277 327.66522,380.73602 324.76516,380.5914 C 322.41779,380.47435 316.70593,377.31977 312.54197,377.13598 z"
           style="opacity:1;fill:url(#linearGradient8970);fill-opacity:1;stroke:none;stroke-width:0;stroke-linecap:round;stroke-linejoin:round;stroke-miterlimit:4;stroke-dasharray:none;stroke-dashoffset:1.08779998;stroke-opacity:1;filter:url(#filter3479)" />
        <path
           id="path3497"
           transform="matrix(1.0059645,0,0,1.0053055,103.05489,-34.059089)"
           style="opacity:0.88014981;fill:url(#linearGradient8972);fill-opacity:1;fill-rule:evenodd;stroke:none;stroke-width:1px;stroke-linecap:butt;stroke-linejoin:miter;stroke-opacity:1;filter:url(#filter3625)"
           sodipodi:nodetypes="csscccc"
           d="M -39.6875,56.221855 C -34.197148,56.024377 -45.05967,54.50166 -48.70706,53.9205 C -54.598622,52.981763 -62.45595,49.86348 -63.54855,46.95471 C -64.26371,45.0508 -58.65655,42.18952 -59,43.11218 C -59.65577,44.97451 -60.47583,46.68051 -55.875,50.73718 C -53.57302,52.51447 -50.99506,54.57645 -47.5,54.86218 C -45,55.12995 -42.1875,56.694245 -39.6875,56.221855 z" />
        <path
           id="path3535"
           transform="matrix(1.0059645,0,0,1.0053055,102.2077,-34.059089)"
           style="fill:url(#linearGradient8974);fill-opacity:1;fill-rule:evenodd;stroke:none;stroke-width:1px;stroke-linecap:butt;stroke-linejoin:miter;stroke-opacity:1;filter:url(#filter3569)"
           sodipodi:nodetypes="cccccc"
           d="M -29.75,50.61218 L -27.5,55.11218 C -25.97108,61.25336 -26.57755,60.4695 -26.76517,63.44536 C -28.54202,59.02869 -27.22154,56.27885 -33,53.11218 L -39.25,49.11218 L -29.75,50.61218 z" />
        <path
           id="path3717"
           transform="matrix(1.0059645,0,0,1.0053055,103.05489,-34.059089)"
           style="opacity:0.33333333;fill:url(#linearGradient8976);fill-opacity:1;fill-rule:evenodd;stroke:none;stroke-width:1px;stroke-linecap:butt;stroke-linejoin:miter;stroke-opacity:1;filter:url(#filter3775)"
           sodipodi:nodetypes="ccsccc"
           d="M -68.53033,81.05152 L -67.15533,78.55152 C -67.15533,78.55152 -68.40533,75.42652 -68.40533,74.55152 C -68.40533,73.67652 -69.29419,71.09702 -69.29419,71.09702 L -70.0221,71.56734 L -68.53033,81.05152 z" />
        <path
           d="M 55.570237,85.133393 C 45.266337,85.421039 42.123018,81.158743 41.235247,77.400215 C 39.949833,77.611383 39.189287,78.632852 39.223317,79.410814 C 32.097741,82.260716 23.482148,85.133393 15.834648,88.96121 C 12.995998,90.382067 9.762032,94.71193 8.918643,97.003673 C 6.346411,103.99312 3.511582,113.84251 3.511582,113.84251 L 5.02053,115.60183 C 20.7586,124.56125 42.119651,124.14693 55.570237,124.14693 C 69.020825,124.14693 90.381876,124.56125 106.11994,115.60183 L 107.62889,113.84251 C 107.62889,113.84251 104.79406,103.99312 102.22183,97.003673 C 101.37844,94.71193 98.14448,90.382067 95.30583,88.96121 C 87.658325,85.133393 79.042732,82.260716 71.917156,79.410814 C 71.95119,78.632852 71.19064,77.611383 69.905226,77.400215 C 67.477204,81.1627 65.874139,84.845747 55.570237,85.133393 z"
           id="path3875"
           style="fill:url(#linearGradient8978);fill-opacity:1;fill-rule:evenodd;stroke:none;stroke-width:1px;stroke-linecap:butt;stroke-linejoin:miter;stroke-opacity:1"
           sodipodi:nodetypes="cccssccsccssccz" />
        <path
           id="path3451"
           transform="matrix(1.0059645,0,0,1.0053055,103.05489,-34.059089)"
           style="opacity:0.32209742;fill:url(#linearGradient8980);fill-opacity:1;fill-rule:evenodd;stroke:none;stroke-width:1px;stroke-linecap:butt;stroke-linejoin:miter;stroke-opacity:1;filter:url(#filter3493)"
           sodipodi:nodetypes="ccccccscc"
           d="M -78.34358,152.98437 C -82.26083,139.96479 -83.8395,133.15234 -74.80805,126.11431 L -55.71616,120.45745 L -64.20144,114.0935 L -84.00043,121.87167 L -94.60703,134.59959 C -94.60703,134.59959 -98.84968,144.49909 -96.02125,145.9133 C -93.19282,147.32752 -86.12175,151.57016 -86.12175,151.57016 L -78.34358,152.98437 z" />
        <path
           id="path3885"
           transform="matrix(1.0059645,0,0,1.0053055,-357.03287,-360.28069)"
           sodipodi:nodetypes="ccssccsccssccscsccssccsccssccc"
           clip-path="url(#clipPath4063)"
           d="M 395.90625,435.375 C 394.62847,435.58506 393.87242,436.60113 393.90625,437.375 C 386.82293,440.20988 378.25841,443.06735 370.65625,446.875 C 367.83444,448.28835 364.61964,452.59537 363.78125,454.875 C 361.22428,461.82756 358.40625,471.625 358.40625,471.625 L 359.90625,473.375 C 375.55102,482.28715 396.78541,481.875 410.15625,481.875 C 423.5271,481.875 444.76149,482.28715 460.40625,473.375 L 461.90625,471.625 C 461.90626,471.625 459.08823,461.82756 456.53125,454.875 C 455.69287,452.59537 452.47807,448.28835 449.65625,446.875 C 442.0541,443.06735 433.48958,440.20988 426.40625,437.375 C 426.44009,436.60113 425.68404,435.58506 424.40625,435.375 C 421.99263,439.11764 420.39906,442.77637 410.15625,443.0625 C 409.51607,443.08038 408.89826,443.07875 408.3125,443.0625 C 409.11493,443.10929 409.95672,443.15082 410.875,443.125 C 420.66635,442.84975 422.19276,439.31912 424.5,435.71875 C 425.72147,435.92083 426.43858,436.91179 426.40625,437.65625 C 433.17737,440.38336 441.3579,443.11836 448.625,446.78125 C 451.32245,448.14088 454.41732,452.30704 455.21875,454.5 C 457.66304,461.18826 460.34374,470.59377 460.34375,470.59375 L 458.90625,472.28125 C 443.95103,480.85461 423.65651,480.46874 410.875,480.46875 C 398.09347,480.46875 376.29635,482.09204 361.34115,473.51869 L 359.81526,470.50536 C 359.81526,470.50536 363.55664,455.53141 366.70803,453.26256 C 368.60286,451.89837 370.42755,448.14089 373.125,446.78125 C 380.3921,443.11835 388.57262,440.38336 395.34375,437.65625 C 395.32311,437.18111 395.59714,436.5903 396.125,436.1875 C 396.03832,435.91957 395.96873,435.63969 395.90625,435.375 z"
           style="fill:url(#linearGradient10606);fill-opacity:1;fill-rule:evenodd;stroke:none;stroke-width:1px;stroke-linecap:butt;stroke-linejoin:miter;stroke-opacity:1;filter:url(#filter4059)" />
        <path
           id="path3880"
           transform="matrix(1.0059645,0,0,1.0053055,103.05489,-34.059089)"
           style="fill:url(#linearGradient8984);fill-opacity:1;fill-rule:evenodd;stroke:none;stroke-width:1px;stroke-linecap:butt;stroke-linejoin:miter;stroke-opacity:1;filter:url(#filter3393)"
           sodipodi:nodetypes="cccccscccscc"
           d="M -84.125,124.875 L -85.125,126.625 C -81.08786,134.7426 -79.91837,144.77197 -77.6875,154.09375 C -84.67104,152.87559 -91.41593,150.84084 -97.5,147.375 L -97.5,147.8125 C -81.85523,156.72466 -60.62084,156.3125 -47.25,156.3125 C -33.87915,156.31251 -12.64476,156.72465 3,147.8125 L 4.5,146.0625 L 2.666559,147.54655 C -12.978191,156.45871 -33.87916,156.00881 -47.25,156.00881 C -54.70098,156.00881 -64.58699,155.42889 -74.59375,154 C -77.77083,139.60839 -80.94792,131.83413 -84.125,124.875 z" />
        <path
           id="path3261"
           transform="matrix(1.0059645,0,0,1.0053055,-425.2807,-360.27676)"
           sodipodi:nodetypes="cccscccsccccc"
           clip-path="url(#clipPath3289)"
           d="M 463.75,435.375 C 462.47221,435.58506 461.71617,436.60113 461.75,437.375 C 461.67075,437.40672 461.57962,437.43703 461.5,437.46875 C 462.75202,441.47055 466.65727,445.74083 478.25,445.4375 C 489.75018,445.1366 492.07799,441.47873 494.71875,437.5625 C 494.5676,437.5025 494.39985,437.43497 494.25,437.375 C 494.28383,436.60113 493.52779,435.58506 492.25,435.375 C 489.83637,439.11764 488.24281,442.77637 478,443.0625 C 467.75719,443.34864 464.63251,439.11371 463.75,435.375 z M 497.46875,438.625 C 497.52198,438.79302 497.56984,438.93659 497.5625,439.09375 C 501.77057,440.67121 506.39991,442.24968 511.125,443.96875 C 506.49146,442.00962 501.81994,440.29346 497.46875,438.625 z"
           style="fill:#a4c0e4;fill-opacity:1;fill-rule:evenodd;stroke:#0057ae;stroke-width:0.23592407;stroke-linecap:butt;stroke-linejoin:miter;stroke-miterlimit:4;stroke-dasharray:none;stroke-opacity:1;filter:url(#filter3283)" />
        <path
           id="path3293"
           transform="matrix(1.0059645,0,0,1.0053055,103.05489,-34.059089)"
           style="fill:url(#linearGradient8986);fill-opacity:1;fill-rule:evenodd;stroke:none;stroke-width:1px;stroke-linecap:butt;stroke-linejoin:miter;stroke-opacity:1;filter:url(#filter3339)"
           sodipodi:nodetypes="cccc"
           d="M -59.25169,118.68969 L -76.57581,119.3968 L -61.37302,117.27548 L -59.25169,118.68969 z" />
        <path
           d="M 371.74831,469.68969 L 354.42419,470.3968 L 369.62698,468.27548 L 371.74831,469.68969 z"
           transform="matrix(0.3417414,0.9455184,0.9461381,-0.3415175,-540.77608,-70.969975)"
           id="path3357"
           style="fill:url(#linearGradient8988);fill-opacity:1;fill-rule:evenodd;stroke:none;stroke-width:1px;stroke-linecap:butt;stroke-linejoin:miter;stroke-opacity:1;filter:url(#filter3339)"
           sodipodi:nodetypes="cccc" />
        <path
           d="M 294.15642,477.48437 C 290.23917,464.46479 288.6605,457.65234 297.69195,450.61431 L 316.78384,444.95745 L 308.29856,438.5935 L 288.49957,446.37167 L 277.89297,459.09959 C 277.89297,459.09959 273.65032,468.99909 276.47875,470.4133 C 279.30718,471.82752 286.37825,476.07016 286.37825,476.07016 L 294.15642,477.48437 z"
           transform="matrix(-1.0059645,0,0,1.0053055,383.00502,-360.28069)"
           sodipodi:nodetypes="ccccccscc"
           style="opacity:0.5;fill:url(#linearGradient8990);fill-opacity:1;fill-rule:evenodd;stroke:none;stroke-width:1px;stroke-linecap:butt;stroke-linejoin:miter;stroke-opacity:1;filter:url(#filter3493)"
           id="path3498" />
        <path
           id="path3524"
           transform="matrix(1.0059645,0,0,1.0053055,103.05489,-34.059089)"
           style="opacity:0.06367044;fill:url(#linearGradient8992);fill-opacity:1;fill-rule:evenodd;stroke:url(#linearGradient8994);stroke-width:0.47184813px;stroke-linecap:butt;stroke-linejoin:miter;stroke-opacity:1;filter:url(#filter3574)"
           d="M -59.2517,120.45746 L -66.32276,138.13513 L -59.2517,120.45746 z" />
      </g>
    </g>
  </g>
</svg>
