<?xml version="1.0" encoding="UTF-8" standalone="no"?>
<!-- Generator: Adobe Illustrator 12.0.0, SVG Export Plug-In . SVG Version: 6.00 Build 51448)  -->

<svg
   xmlns:dc="http://purl.org/dc/elements/1.1/"
   xmlns:cc="http://creativecommons.org/ns#"
   xmlns:rdf="http://www.w3.org/1999/02/22-rdf-syntax-ns#"
   xmlns:svg="http://www.w3.org/2000/svg"
   xmlns="http://www.w3.org/2000/svg"
   xmlns:xlink="http://www.w3.org/1999/xlink"
   xmlns:sodipodi="http://sodipodi.sourceforge.net/DTD/sodipodi-0.dtd"
   xmlns:inkscape="http://www.inkscape.org/namespaces/inkscape"
   version="1.1"
   id="Livello_1"
   width="128"
   height="128"
   viewBox="0 0 128 128"
   overflow="visible"
   enable-background="new 0 0 128 128"
   xml:space="preserve"
   sodipodi:version="0.32"
   inkscape:version="0.46+devel"
   sodipodi:docname="pdf-annotations.svgz"
   inkscape:output_extension="org.inkscape.output.svgz.inkscape"
   inkscape:export-filename="/home/pinheiro/artwork/Oxygen/scribus/scalable/small/16x16/pdf-annotations.png"
   inkscape:export-xdpi="11.25"
   inkscape:export-ydpi="11.25"><metadata
   id="metadata42"><rdf:RDF><cc:Work
       rdf:about=""><dc:format>image/svg+xml</dc:format><dc:type
         rdf:resource="http://purl.org/dc/dcmitype/StillImage" /><dc:title></dc:title></cc:Work></rdf:RDF></metadata><defs
   id="defs40"><linearGradient
     id="linearGradient2216"><stop
       style="stop-color:#ffffff;stop-opacity:0.46209386;"
       offset="0"
       id="stop2218" /><stop
       id="stop2224"
       offset="0.5"
       style="stop-color:#ffffff;stop-opacity:1;" /><stop
       style="stop-color:#ffffff;stop-opacity:0.35018051;"
       offset="1"
       id="stop2220" /></linearGradient><linearGradient
     inkscape:collect="always"
     xlink:href="#linearGradient2216"
     id="linearGradient3248"
     x1="49.577286"
     y1="-18.779179"
     x2="136.86121"
     y2="53.675079"
     gradientUnits="userSpaceOnUse" /><radialGradient
     inkscape:collect="always"
     xlink:href="#XMLID_2_"
     id="radialGradient3252"
     gradientUnits="userSpaceOnUse"
     gradientTransform="matrix(2.7303077,0,0,2.7204642,-12.832999,-12.903335)"
     cx="8"
     cy="8.201889"
     fx="8"
     fy="8.201889"
     r="56" /></defs><sodipodi:namedview
   inkscape:window-height="745"
   inkscape:window-width="796"
   inkscape:pageshadow="2"
   inkscape:pageopacity="0.0"
   borderopacity="1.0"
   bordercolor="#666666"
   pagecolor="#ffffff"
   id="base"
   inkscape:zoom="1.4142136"
   inkscape:cx="114.64215"
   inkscape:cy="88.171332"
   inkscape:window-x="243"
   inkscape:window-y="25"
   inkscape:current-layer="Livello_1"
   showgrid="true"
   showborder="false"><inkscape:grid
     id="GridFromPre046Settings"
     type="xygrid"
     originx="0px"
     originy="0px"
     spacingx="8px"
     spacingy="8px"
     color="#0000ff"
     empcolor="#0000ff"
     opacity="0.2"
     empopacity="0.4"
     empspacing="4" /></sodipodi:namedview>




<radialGradient
   id="XMLID_2_"
   cx="10"
   cy="7.9995"
   r="156.984"
   gradientUnits="userSpaceOnUse">
	<stop
   offset="0.0765"
   style="stop-color:#F3C300"
   id="stop12" />
	<stop
   offset="0.1887"
   style="stop-color:#F7D21F"
   id="stop14" />
	<stop
   offset="0.3467"
   style="stop-color:#FDE446"
   id="stop16" />
	<stop
   offset="0.4294"
   style="stop-color:#FFEB55"
   id="stop18" />
	<stop
   offset="0.6882"
   style="stop-color:#FFEB55"
   id="stop20" />
	<stop
   offset="0.7281"
   style="stop-color:#FEE951"
   id="stop22" />
	<stop
   offset="0.7641"
   style="stop-color:#FDE446"
   id="stop24" />
	<stop
   offset="0.7987"
   style="stop-color:#FADB34"
   id="stop26" />
	<stop
   offset="0.8322"
   style="stop-color:#F7CF1A"
   id="stop28" />
	<stop
   offset="0.8588"
   style="stop-color:#F3C300"
   id="stop30" />
	<stop
   offset="0.9208"
   style="stop-color:#FBD400"
   id="stop32" />
	<stop
   offset="0.9706"
   style="stop-color:#FFDD00"
   id="stop34" />
</radialGradient>


<rect
   y="8.4037857"
   x="8"
   height="111.59621"
   width="112"
   id="rect3236"
   style="opacity:0.15;fill:none;fill-opacity:1;stroke:#000000;stroke-width:12;stroke-linecap:round;stroke-linejoin:round;stroke-miterlimit:4;stroke-dasharray:none;stroke-opacity:1" /><rect
   style="opacity:0.2;fill:none;fill-opacity:1;stroke:#000000;stroke-width:8;stroke-linecap:round;stroke-linejoin:round;stroke-miterlimit:4;stroke-dasharray:none;stroke-opacity:1"
   id="rect3234"
   width="112"
   height="111.59621"
   x="8"
   y="8.4037857" /><rect
   y="8.4037857"
   x="8"
   height="111.59621"
   width="112"
   id="rect3232"
   style="opacity:1;fill:none;fill-opacity:1;stroke:#e3ad00;stroke-width:4;stroke-linecap:round;stroke-linejoin:round;stroke-miterlimit:4;stroke-dasharray:none;stroke-opacity:1" /><rect
   style="opacity:1;fill:#ffffff;fill-opacity:1;stroke:none;stroke-width:4;stroke-linecap:round;stroke-linejoin:round;stroke-miterlimit:4;stroke-dasharray:none;stroke-opacity:1"
   id="rect2246"
   width="112"
   height="111.59621"
   x="8"
   y="8.4037857" /><rect
   y="9.4096088"
   x="9.0094633"
   height="109.58456"
   width="109.98106"
   id="rect3250"
   style="opacity:1;fill:url(#radialGradient3252);fill-opacity:1;stroke:none;stroke-width:4;stroke-linecap:round;stroke-linejoin:round;stroke-miterlimit:4;stroke-dasharray:none;stroke-opacity:1" /><path
   sodipodi:nodetypes="ccc"
   id="path2276"
   d="M 593.09658,-60.998764 L 593.09658,-63.793473 L 593.09658,-60.998764 z "
   style="fill:#ffffff;fill-opacity:0.75688076;fill-rule:nonzero;stroke:none;stroke-width:0.5;stroke-linecap:round;stroke-linejoin:round;stroke-miterlimit:4;stroke-dasharray:none;stroke-dashoffset:4;stroke-opacity:1" /><path
   sodipodi:nodetypes="ccc"
   id="path3206"
   d="M 473.59438,-147.62901 L 473.59438,-150.42372 L 473.59438,-147.62901 z "
   style="fill:#ffffff;fill-opacity:0.75688076;fill-rule:nonzero;stroke:none;stroke-width:0.5;stroke-linecap:round;stroke-linejoin:round;stroke-miterlimit:4;stroke-dasharray:none;stroke-dashoffset:4;stroke-opacity:1" /><g
   id="layer4"
   inkscape:label="box"
   style="display:inline"
   transform="translate(656.54598,-3.04738)" /><g
   id="layer5"
   inkscape:label="zip_app"
   style="display:inline"
   transform="translate(656.54598,-3.04738)" /><path
   sodipodi:nodetypes="ccc"
   id="path3946"
   d="M 720.18578,-81.873744 L 720.18578,-84.668453 L 720.18578,-81.873744 z "
   style="fill:#ffffff;fill-opacity:0.75688076;fill-rule:nonzero;stroke:none;stroke-width:0.5;stroke-linecap:round;stroke-linejoin:round;stroke-miterlimit:4;stroke-dasharray:none;stroke-dashoffset:4;stroke-opacity:1" /><path
   sodipodi:nodetypes="ccc"
   id="path1561"
   d="M 627.56133,-7.980064 L 627.56133,-9.5068 L 627.56133,-7.980064 z "
   style="fill:#ffffff;fill-opacity:0.75688076;fill-rule:nonzero;stroke:none;stroke-width:0.5;stroke-linecap:round;stroke-linejoin:round;stroke-miterlimit:4;stroke-dasharray:none;stroke-dashoffset:4;stroke-opacity:1" /><rect
   style="opacity:0.57786889;fill:#ffffff;fill-opacity:1;fill-rule:nonzero;stroke:none;stroke-width:3.63199997;stroke-linecap:round;stroke-linejoin:round;stroke-miterlimit:4;stroke-dasharray:none;stroke-dashoffset:4;stroke-opacity:1"
   id="rect1327"
   width="1"
   height="0"
   x="570.0766"
   y="-64.580048" /><rect
   style="opacity:0.57786889;fill:#ffffff;fill-opacity:1;fill-rule:nonzero;stroke:none;stroke-width:3.63199997;stroke-linecap:round;stroke-linejoin:round;stroke-miterlimit:4;stroke-dasharray:none;stroke-dashoffset:4;stroke-opacity:1"
   id="rect2482"
   width="1"
   height="0"
   x="534.94977"
   y="-92.107658" /><path
   sodipodi:nodetypes="ccc"
   id="path2494"
   d="M 376.01236,-165.32373 L 376.01236,-168.11844 L 376.01236,-165.32373 z "
   style="fill:#ffffff;fill-opacity:0.75688076;fill-rule:nonzero;stroke:none;stroke-width:0.5;stroke-linecap:round;stroke-linejoin:round;stroke-miterlimit:4;stroke-dasharray:none;stroke-dashoffset:4;stroke-opacity:1" /><g
   style="opacity:0.40163933"
   transform="matrix(-0.782995,0,0,0.650879,-1946.8467,521.1939)"
   id="g4640" /><g
   id="g4646"
   transform="matrix(-0.782995,0,0,0.650879,-1946.8467,521.1939)"
   style="opacity:0.40163933" /><g
   id="g4730"
   transform="matrix(1,0,0,0.650879,1254.1173,528.5217)"
   style="opacity:0.40163933" /><g
   style="opacity:0.40163933"
   transform="matrix(1,0,0,0.650879,1254.1173,528.5217)"
   id="g4748" /><path
   sodipodi:nodetypes="ccc"
   id="path6610"
   d="M -65.611998,116.2813 L -65.611998,113.48659 L -65.611998,116.2813 z "
   style="fill:#ffffff;fill-opacity:0.75688076;fill-rule:nonzero;stroke:none;stroke-width:0.5;stroke-linecap:round;stroke-linejoin:round;stroke-miterlimit:4;stroke-dasharray:none;stroke-dashoffset:4;stroke-opacity:1" /><path
   sodipodi:nodetypes="ccc"
   id="path6612"
   d="M -185.1142,29.651046 L -185.1142,26.856337 L -185.1142,29.651046 z "
   style="fill:#ffffff;fill-opacity:0.75688076;fill-rule:nonzero;stroke:none;stroke-width:0.5;stroke-linecap:round;stroke-linejoin:round;stroke-miterlimit:4;stroke-dasharray:none;stroke-dashoffset:4;stroke-opacity:1" /><g
   id="g6614"
   inkscape:label="box"
   style="display:inline"
   transform="translate(-2.1626,174.23268)" /><g
   id="g6616"
   inkscape:label="zip_app"
   style="display:inline"
   transform="translate(-2.1626,174.23268)" /><path
   sodipodi:nodetypes="ccc"
   id="path6646"
   d="M 61.4772,95.406316 L 61.4772,92.611607 L 61.4772,95.406316 z "
   style="fill:#ffffff;fill-opacity:0.75688076;fill-rule:nonzero;stroke:none;stroke-width:0.5;stroke-linecap:round;stroke-linejoin:round;stroke-miterlimit:4;stroke-dasharray:none;stroke-dashoffset:4;stroke-opacity:1" /><path
   sodipodi:nodetypes="ccc"
   id="path6648"
   d="M 101.22922,171.45686 L 101.22922,169.93012 L 101.22922,171.45686 z "
   style="fill:#ffffff;fill-opacity:0.75688076;fill-rule:nonzero;stroke:none;stroke-width:0.5;stroke-linecap:round;stroke-linejoin:round;stroke-miterlimit:4;stroke-dasharray:none;stroke-dashoffset:4;stroke-opacity:1" /><rect
   style="opacity:0.57786889;fill:#ffffff;fill-opacity:1;fill-rule:nonzero;stroke:none;stroke-width:3.63199997;stroke-linecap:round;stroke-linejoin:round;stroke-miterlimit:4;stroke-dasharray:none;stroke-dashoffset:4;stroke-opacity:1"
   id="rect6650"
   width="1"
   height="0"
   x="-88.631989"
   y="112.70001" /><path
   sodipodi:nodetypes="ccc"
   id="path4354"
   d="M 116.92886,-227.45905 L 116.92886,-230.25376 L 116.92886,-227.45905 z "
   style="fill:#ffffff;fill-opacity:0.75688076;fill-rule:nonzero;stroke:none;stroke-width:0.5;stroke-linecap:round;stroke-linejoin:round;stroke-miterlimit:4;stroke-dasharray:none;stroke-dashoffset:4;stroke-opacity:1" /><path
   sodipodi:nodetypes="ccc"
   id="path4897"
   d="M 89.2006,270.57468 L 89.2006,267.77997 L 89.2006,270.57468 z "
   style="fill:#ffffff;fill-opacity:0.75688076;fill-rule:nonzero;stroke:none;stroke-width:0.5;stroke-linecap:round;stroke-linejoin:round;stroke-miterlimit:4;stroke-dasharray:none;stroke-dashoffset:4;stroke-opacity:1" /><path
   sodipodi:nodetypes="ccc"
   id="path4899"
   d="M -30.301598,183.94443 L -30.301598,181.14972 L -30.301598,183.94443 z "
   style="fill:#ffffff;fill-opacity:0.75688076;fill-rule:nonzero;stroke:none;stroke-width:0.5;stroke-linecap:round;stroke-linejoin:round;stroke-miterlimit:4;stroke-dasharray:none;stroke-dashoffset:4;stroke-opacity:1" /><g
   id="g4901"
   inkscape:label="box"
   style="display:inline"
   transform="translate(152.65,328.52606)" /><g
   id="g4903"
   inkscape:label="zip_app"
   style="display:inline"
   transform="translate(152.65,328.52606)" /><path
   sodipodi:nodetypes="ccc"
   id="path4961"
   d="M 216.2898,249.6997 L 216.2898,246.90499 L 216.2898,249.6997 z "
   style="fill:#ffffff;fill-opacity:0.75688076;fill-rule:nonzero;stroke:none;stroke-width:0.5;stroke-linecap:round;stroke-linejoin:round;stroke-miterlimit:4;stroke-dasharray:none;stroke-dashoffset:4;stroke-opacity:1" /><path
   sodipodi:nodetypes="ccc"
   id="path4963"
   d="M 256.04182,325.75024 L 256.04182,324.2235 L 256.04182,325.75024 z "
   style="fill:#ffffff;fill-opacity:0.75688076;fill-rule:nonzero;stroke:none;stroke-width:0.5;stroke-linecap:round;stroke-linejoin:round;stroke-miterlimit:4;stroke-dasharray:none;stroke-dashoffset:4;stroke-opacity:1" /><rect
   style="opacity:0.57786889;fill:#ffffff;fill-opacity:1;fill-rule:nonzero;stroke:none;stroke-width:3.63199997;stroke-linecap:round;stroke-linejoin:round;stroke-miterlimit:4;stroke-dasharray:none;stroke-dashoffset:4;stroke-opacity:1"
   id="rect4965"
   width="1"
   height="0"
   x="66.180611"
   y="266.99341" /><path
   sodipodi:nodetypes="ccc"
   id="path4967"
   d="M 271.74146,-73.16567 L 271.74146,-75.96038 L 271.74146,-73.16567 z "
   style="fill:#ffffff;fill-opacity:0.75688076;fill-rule:nonzero;stroke:none;stroke-width:0.5;stroke-linecap:round;stroke-linejoin:round;stroke-miterlimit:4;stroke-dasharray:none;stroke-dashoffset:4;stroke-opacity:1" /><path
   sodipodi:nodetypes="ccc"
   id="path7199"
   d="M 323.90447,-294.39049 L 323.90447,-297.1852 L 323.90447,-294.39049 z "
   style="fill:#ffffff;fill-opacity:0.75688076;fill-rule:nonzero;stroke:none;stroke-width:0.5;stroke-linecap:round;stroke-linejoin:round;stroke-miterlimit:4;stroke-dasharray:none;stroke-dashoffset:4;stroke-opacity:1" /><path
   sodipodi:nodetypes="ccc"
   id="path7201"
   d="M 204.40227,-381.02074 L 204.40227,-383.81545 L 204.40227,-381.02074 z "
   style="fill:#ffffff;fill-opacity:0.75688076;fill-rule:nonzero;stroke:none;stroke-width:0.5;stroke-linecap:round;stroke-linejoin:round;stroke-miterlimit:4;stroke-dasharray:none;stroke-dashoffset:4;stroke-opacity:1" /><g
   id="g7203"
   inkscape:label="box"
   style="display:inline"
   transform="translate(387.35387,-236.43911)" /><g
   id="g7205"
   inkscape:label="zip_app"
   style="display:inline"
   transform="translate(387.35387,-236.43911)" /><path
   sodipodi:nodetypes="ccc"
   id="path7263"
   d="M 450.99367,-315.26547 L 450.99367,-318.06018 L 450.99367,-315.26547 z "
   style="fill:#ffffff;fill-opacity:0.75688076;fill-rule:nonzero;stroke:none;stroke-width:0.5;stroke-linecap:round;stroke-linejoin:round;stroke-miterlimit:4;stroke-dasharray:none;stroke-dashoffset:4;stroke-opacity:1" /><path
   sodipodi:nodetypes="ccc"
   id="path7265"
   d="M 490.74569,-239.21493 L 490.74569,-240.74167 L 490.74569,-239.21493 z "
   style="fill:#ffffff;fill-opacity:0.75688076;fill-rule:nonzero;stroke:none;stroke-width:0.5;stroke-linecap:round;stroke-linejoin:round;stroke-miterlimit:4;stroke-dasharray:none;stroke-dashoffset:4;stroke-opacity:1" /><rect
   style="opacity:0.57786889;fill:#ffffff;fill-opacity:1;fill-rule:nonzero;stroke:none;stroke-width:3.63199997;stroke-linecap:round;stroke-linejoin:round;stroke-miterlimit:4;stroke-dasharray:none;stroke-dashoffset:4;stroke-opacity:1"
   id="rect7267"
   width="1"
   height="0"
   x="300.88449"
   y="-297.97177" /><path
   sodipodi:nodetypes="ccc"
   id="path7269"
   d="M 506.44533,-638.13084 L 506.44533,-640.92555 L 506.44533,-638.13084 z "
   style="fill:#ffffff;fill-opacity:0.75688076;fill-rule:nonzero;stroke:none;stroke-width:0.5;stroke-linecap:round;stroke-linejoin:round;stroke-miterlimit:4;stroke-dasharray:none;stroke-dashoffset:4;stroke-opacity:1" /><path
   sodipodi:nodetypes="ccc"
   id="path3940"
   d="M 1099.8654,332.60951 L 1099.8654,329.8148 L 1099.8654,332.60951 z "
   style="fill:#ffffff;fill-opacity:0.75688076;fill-rule:nonzero;stroke:none;stroke-width:0.5;stroke-linecap:round;stroke-linejoin:round;stroke-miterlimit:4;stroke-dasharray:none;stroke-dashoffset:4;stroke-opacity:1" /><path
   sodipodi:nodetypes="ccc"
   id="path3942"
   d="M 980.36317,245.97926 L 980.36317,243.18455 L 980.36317,245.97926 z "
   style="fill:#ffffff;fill-opacity:0.75688076;fill-rule:nonzero;stroke:none;stroke-width:0.5;stroke-linecap:round;stroke-linejoin:round;stroke-miterlimit:4;stroke-dasharray:none;stroke-dashoffset:4;stroke-opacity:1" /><g
   id="g3944"
   inkscape:label="box"
   style="display:inline"
   transform="translate(1163.3148,390.56089)" /><g
   id="g3946"
   inkscape:label="zip_app"
   style="display:inline"
   transform="translate(1163.3148,390.56089)" /><path
   sodipodi:nodetypes="ccc"
   id="path4004"
   d="M 1226.9546,311.73453 L 1226.9546,308.93982 L 1226.9546,311.73453 z "
   style="fill:#ffffff;fill-opacity:0.75688076;fill-rule:nonzero;stroke:none;stroke-width:0.5;stroke-linecap:round;stroke-linejoin:round;stroke-miterlimit:4;stroke-dasharray:none;stroke-dashoffset:4;stroke-opacity:1" /><path
   sodipodi:nodetypes="ccc"
   id="path4006"
   d="M 1266.7066,387.78507 L 1266.7066,386.25833 L 1266.7066,387.78507 z "
   style="fill:#ffffff;fill-opacity:0.75688076;fill-rule:nonzero;stroke:none;stroke-width:0.5;stroke-linecap:round;stroke-linejoin:round;stroke-miterlimit:4;stroke-dasharray:none;stroke-dashoffset:4;stroke-opacity:1" /><rect
   style="opacity:0.57786889;fill:#ffffff;fill-opacity:1;fill-rule:nonzero;stroke:none;stroke-width:3.63199997;stroke-linecap:round;stroke-linejoin:round;stroke-miterlimit:4;stroke-dasharray:none;stroke-dashoffset:4;stroke-opacity:1"
   id="rect4008"
   width="1"
   height="0"
   x="1076.8453"
   y="329.02823" /><path
   sodipodi:nodetypes="ccc"
   id="path4010"
   d="M 1282.4063,-11.13084 L 1282.4063,-13.92555 L 1282.4063,-11.13084 z "
   style="fill:#ffffff;fill-opacity:0.75688076;fill-rule:nonzero;stroke:none;stroke-width:0.5;stroke-linecap:round;stroke-linejoin:round;stroke-miterlimit:4;stroke-dasharray:none;stroke-dashoffset:4;stroke-opacity:1" /><path
   style="opacity:0.06557378;fill:#2e3436"
   d="M 64.09078,8 C 62.91448,16.32175 72.03677,27.18109 85.68453,37.40625 C 81.65192,53.26532 74.75309,71.169937 67.34078,86.03125 L 67.30953,86.0625 C 46.93184,96.524105 33.29042,107.35015 37.93453,114.53125 C 39.05441,116.26286 40.4386,117.08541 41.96578,117.1875 C 31.27826,110.649 54.01601,101.09022 60.96578,97.40625 L 61.12203,97.59375 C 54.04255,109.54582 47.024,117.52561 41.96578,117.1875 C 49.24456,120.76307 59.2808,109.96514 68.46578,93.5625 C 83.19888,86.251581 101.44669,78.201401 118.99703,71.34375 C 118.99703,69.060763 118.99703,67.720333 118.99703,65.03125 C 103.66649,70.005443 87.70399,76.23455 73.93453,82.8125 C 80.2833,69.43825 85.8309,54.0537 89.21578,39.96875 C 98.0688,46.18907 108.42611,52.05267 118.99703,56.84375 C 118.99703,52.40077 118.99703,52.10219 118.99703,47.53125 C 109.07171,42.4805 99.33317,36.81239 91.05953,31.125 C 92.66902,22.13829 93.18948,14.10427 92.18453,8 C 90.90729,8 90.44159,8 89.09078,8 C 89.81755,13.45124 89.22661,20.62041 87.65328,28.71875 C 77.29517,21.20757 69.83402,13.8405 68.18453,8 C 66.21362,8 66.00084,8 64.09078,8 z "
   id="path1937" /><path
   style="fill:#9c0f0f"
   d="M 52.93453,12.25 C 51.5473,12.30195 50.06362,12.6854 48.43453,13.40625 C 33.87464,19.84876 44.60072,34.631 63.15328,48.15625 C 63.26589,45.56223 63.33394,43.02932 63.30953,40.59375 C 47.48053,29.37667 38.21599,18.45675 48.30953,14.125 C 58.94442,9.56092 63.128,22.48659 63.30953,40.59375 C 64.29958,41.29534 65.30184,41.98483 66.34078,42.6875 C 65.95258,26.2002 62.46257,13.27365 54.30953,12.3125 C 53.87486,12.26126 53.39694,12.23268 52.93453,12.25 z M 66.34078,42.6875 L 64.44155,39.57784 L 62.03344,41.72971 L 61.52786,45.0011 L 64.70878,51.20211 L 66.30953,50.40625 C 76.99255,57.77117 89.74528,64.554454 101.71578,69.21875 L 105.26586,71.357015 L 111.98935,71.886419 L 115.69577,70.162894 L 116.90611,67.196529 L 110.87203,66.34375 C 96.57201,60.61498 79.61253,51.66354 66.34078,42.6875 z M 110.87203,66.34375 C 112.73478,67.089996 114.58415,67.775971 116.34078,68.40625 C 117.24175,68.070091 118.12692,67.714832 118.99703,67.40625 C 118.99703,66.16797 118.99703,65.665798 118.99703,64.34375 C 116.42963,64.879125 113.71497,65.53823 110.87203,66.34375 z M 116.34078,68.40625 C 113.74667,69.374125 111.01759,70.417035 108.21578,71.59375 C 111.98917,72.837171 115.61174,73.799808 118.99703,74.46875 C 118.99703,72.809566 118.99703,71.296268 118.99703,69.3125 C 118.13336,69.031383 117.26016,68.736127 116.34078,68.40625 z M 108.21578,71.59375 C 106.07788,70.889271 103.92754,70.080564 101.71578,69.21875 C 88.17161,73.887286 73.33897,80.607182 61.27828,87.78125 L 57.78507,88.496834 L 55.08936,93.486259 L 51.46931,98.371274 L 55.55297,102.58537 L 58.74703,97.15625 C 72.86664,88.395217 91.92793,78.434401 108.21578,71.59375 z M 58.74703,97.15625 C 57.02175,98.226756 55.37109,99.286753 53.80953,100.3125 C 50.18885,110.94583 45.96597,118.07974 41.93453,117.78125 C 48.16178,120.90118 54.22937,111.46867 58.74703,97.15625 z M 41.93453,117.78125 C 32.43022,111.9814 49.31116,103.40356 53.80953,100.3125 C 54.82925,97.317767 55.77901,94.061344 56.68453,90.59375 C 42.50486,99.727523 33.61327,109.19882 38.37203,115.46875 C 39.51883,116.9797 40.73149,117.69217 41.93453,117.78125 z M 56.68453,90.59375 C 58.15695,89.645299 59.70028,88.719893 61.27828,87.78125 C 64.07567,76.111309 65.92882,62.696326 66.30953,50.40625 C 65.23405,49.66481 64.18322,48.9071 63.15328,48.15625 C 62.55259,61.99436 60.07086,77.626243 56.68453,90.59375 z "
   id="path3342"
   sodipodi:nodetypes="csccsccsccccccccccccccccccccccccccccccccccccccccscccccc" /><rect
   style="opacity:0.70786517;fill:url(#linearGradient3248);fill-opacity:1.0;stroke:none;stroke-width:16;stroke-linecap:round;stroke-linejoin:round;stroke-miterlimit:4;stroke-dasharray:none;stroke-opacity:1"
   id="rect3240"
   width="111.64669"
   height="23.823343"
   x="8"
   y="8.2776031" /></svg>