<?xml version="1.0" encoding="UTF-8" standalone="no"?>
<!-- Created with Inkscape (http://www.inkscape.org/) -->

<svg
   xmlns:dc="http://purl.org/dc/elements/1.1/"
   xmlns:cc="http://creativecommons.org/ns#"
   xmlns:rdf="http://www.w3.org/1999/02/22-rdf-syntax-ns#"
   xmlns:svg="http://www.w3.org/2000/svg"
   xmlns="http://www.w3.org/2000/svg"
   xmlns:xlink="http://www.w3.org/1999/xlink"
   xmlns:sodipodi="http://sodipodi.sourceforge.net/DTD/sodipodi-0.dtd"
   xmlns:inkscape="http://www.inkscape.org/namespaces/inkscape"
   version="1.1"
   width="128"
   height="128"
   id="svg2"
   inkscape:version="0.48.3.1 r9886"
   sodipodi:docname="picmi.svgz"
   inkscape:export-filename="/home/pinheiro/pics/oxygen-icons/scalable/apps/small/32x32/picmi.png"
   inkscape:export-xdpi="90"
   inkscape:export-ydpi="90">
  <sodipodi:namedview
     pagecolor="#ffffff"
     bordercolor="#666666"
     borderopacity="1"
     objecttolerance="10"
     gridtolerance="10"
     guidetolerance="10"
     inkscape:pageopacity="0"
     inkscape:pageshadow="2"
     inkscape:window-width="1511"
     inkscape:window-height="990"
     id="namedview237"
     showgrid="true"
     inkscape:zoom="4.4857086"
     inkscape:cx="137.34761"
     inkscape:cy="64.515079"
     inkscape:window-x="378"
     inkscape:window-y="295"
     inkscape:window-maximized="0"
     inkscape:current-layer="svg2"
     inkscape:snap-global="false">
    <inkscape:grid
       type="xygrid"
       id="grid3259"
       empspacing="2"
       visible="true"
       enabled="true"
       snapvisiblegridlinesonly="true"
       spacingx="4px"
       spacingy="4px" />
  </sodipodi:namedview>
  <defs
     id="defs4">
    <linearGradient
       id="linearGradient3902">
      <stop
         offset="0"
         style="stop-color:#5b9916;stop-opacity:1"
         id="stop3904" />
      <stop
         offset="1"
         style="stop-color:#095200;stop-opacity:0"
         id="stop3906" />
    </linearGradient>
    <linearGradient
       id="linearGradient4351">
      <stop
         id="stop4353"
         style="stop-color:#e1ff8d;stop-opacity:1"
         offset="0" />
      <stop
         id="stop4355"
         style="stop-color:#e1ff8d;stop-opacity:0"
         offset="1" />
    </linearGradient>
    <linearGradient
       id="linearGradient4124">
      <stop
         id="stop4126"
         style="stop-color:#f8ead4;stop-opacity:1"
         offset="0" />
      <stop
         id="stop4128"
         style="stop-color:#f8ead4;stop-opacity:0"
         offset="1" />
    </linearGradient>
    <linearGradient
       id="linearGradient4103">
      <stop
         id="stop4105"
         style="stop-color:#ffe588;stop-opacity:1"
         offset="0" />
      <stop
         id="stop4107"
         style="stop-color:#c0811d;stop-opacity:1"
         offset="1" />
    </linearGradient>
    <linearGradient
       id="linearGradient4075">
      <stop
         id="stop4077"
         style="stop-color:#482205;stop-opacity:1"
         offset="0" />
      <stop
         id="stop4079"
         style="stop-color:#803d08;stop-opacity:0"
         offset="1" />
    </linearGradient>
    <linearGradient
       id="linearGradient4047">
      <stop
         id="stop4049"
         style="stop-color:#803d08;stop-opacity:1"
         offset="0" />
      <stop
         id="stop4051"
         style="stop-color:#803d08;stop-opacity:0"
         offset="1" />
    </linearGradient>
    <linearGradient
       id="linearGradient4037">
      <stop
         id="stop4039"
         style="stop-color:#c2851d;stop-opacity:1"
         offset="0" />
      <stop
         id="stop4041"
         style="stop-color:#ac6c16;stop-opacity:1"
         offset="0.74645573" />
      <stop
         id="stop4043"
         style="stop-color:#7f3c07;stop-opacity:1"
         offset="1" />
    </linearGradient>
    <linearGradient
       id="linearGradient4018">
      <stop
         id="stop4020"
         style="stop-color:#ffffff;stop-opacity:1"
         offset="0" />
      <stop
         id="stop4022"
         style="stop-color:#f0ff90;stop-opacity:0.37142858"
         offset="0.35964912" />
      <stop
         id="stop4024"
         style="stop-color:#efff82;stop-opacity:0"
         offset="1" />
    </linearGradient>
    <linearGradient
       id="linearGradient4004">
      <stop
         id="stop4006"
         style="stop-color:#095200;stop-opacity:1"
         offset="0" />
      <stop
         id="stop4008"
         style="stop-color:#095200;stop-opacity:0"
         offset="1" />
    </linearGradient>
    <linearGradient
       id="linearGradient3969">
      <stop
         id="stop3971"
         style="stop-color:#000000;stop-opacity:1"
         offset="0" />
      <stop
         id="stop3973"
         style="stop-color:#333333;stop-opacity:1"
         offset="1" />
    </linearGradient>
    <linearGradient
       id="linearGradient3951">
      <stop
         id="stop3953"
         style="stop-color:#ffd12d;stop-opacity:1"
         offset="0" />
      <stop
         id="stop3957"
         style="stop-color:#dfa925;stop-opacity:1"
         offset="0.74645573" />
      <stop
         id="stop3955"
         style="stop-color:#c0811d;stop-opacity:1"
         offset="1" />
    </linearGradient>
    <linearGradient
       id="linearGradient6186">
      <stop
         id="stop6188"
         style="stop-color:#555555;stop-opacity:1"
         offset="0" />
      <stop
         id="stop6194"
         style="stop-color:#979797;stop-opacity:1"
         offset="0.2" />
      <stop
         id="stop6196"
         style="stop-color:#b1b1b1;stop-opacity:1"
         offset="0.35152072" />
      <stop
         id="stop6198"
         style="stop-color:#eeeeee;stop-opacity:1"
         offset="0.40671435" />
      <stop
         id="stop6200"
         style="stop-color:#e6e6e6;stop-opacity:1"
         offset="0.51806325" />
      <stop
         id="stop6202"
         style="stop-color:#888888;stop-opacity:1"
         offset="0.77787733" />
      <stop
         id="stop6190"
         style="stop-color:#dddddd;stop-opacity:1"
         offset="1" />
    </linearGradient>
    <linearGradient
       x1="73.263016"
       y1="-2.7677612"
       x2="73.263016"
       y2="117.10693"
       id="linearGradient3933"
       xlink:href="#linearGradient4103"
       gradientUnits="userSpaceOnUse" />
    <filter
       color-interpolation-filters="sRGB"
       id="filter3947">
      <feGaussianBlur
         id="feGaussianBlur3949"
         stdDeviation="0.82756696" />
    </filter>
    <linearGradient
       x1="-18.538389"
       y1="45.930031"
       x2="6.9841185"
       y2="18.384565"
       id="linearGradient3967"
       xlink:href="#linearGradient3969"
       gradientUnits="userSpaceOnUse"
       spreadMethod="reflect" />
    <filter
       color-interpolation-filters="sRGB"
       id="filter3996">
      <feGaussianBlur
         id="feGaussianBlur3998"
         stdDeviation="1.162016" />
    </filter>
    <clipPath
       id="clipPath4000">
      <path
         d="m 70.370874,86.285545 c -10.930979,10.93098 -69.78004851,10.93098 -80.711028,0 -10.93098,-10.930979 -10.93098,-69.780049 -10e-7,-80.7110284 10.93098014,-10.9309799 69.780049,-10.9309801 80.711029,-3e-7 10.93098,10.9309797 10.93098,69.7800487 0,80.7110287 z"
         transform="matrix(1.1070577,0,0,0.87067559,175.63861,24.62229)"
         id="path4002"
         style="fill:#c0811d;fill-opacity:1;fill-rule:evenodd;stroke:none" />
    </clipPath>
    <linearGradient
       x1="78.569107"
       y1="-67.575584"
       x2="78.569107"
       y2="151.91983"
       id="linearGradient4010"
       xlink:href="#linearGradient4004"
       gradientUnits="userSpaceOnUse" />
    <linearGradient
       x1="35.025448"
       y1="113.158"
       x2="41.578056"
       y2="113.158"
       id="linearGradient4059"
       xlink:href="#linearGradient4037"
       gradientUnits="userSpaceOnUse"
       spreadMethod="reflect" />
    <linearGradient
       x1="41.578056"
       y1="117.02994"
       x2="41.578056"
       y2="109.81702"
       id="linearGradient4061"
       xlink:href="#linearGradient4047"
       gradientUnits="userSpaceOnUse" />
    <linearGradient
       x1="35.025448"
       y1="113.158"
       x2="41.578056"
       y2="113.158"
       id="linearGradient4069"
       xlink:href="#linearGradient4037"
       gradientUnits="userSpaceOnUse"
       spreadMethod="reflect" />
    <linearGradient
       x1="41.578056"
       y1="117.02994"
       x2="41.578056"
       y2="109.81702"
       id="linearGradient4071"
       xlink:href="#linearGradient4047"
       gradientUnits="userSpaceOnUse" />
    <radialGradient
       cx="66.642494"
       cy="114.04181"
       r="45.862629"
       fx="66.642494"
       fy="114.04181"
       id="radialGradient4081"
       xlink:href="#linearGradient4075"
       gradientUnits="userSpaceOnUse"
       gradientTransform="matrix(1,0,0,0.05263158,0,108.03961)" />
    <filter
       x="-0.02537594"
       y="-0.48214284"
       width="1.0507519"
       height="1.9642857"
       color-interpolation-filters="sRGB"
       id="filter4091">
      <feGaussianBlur
         id="feGaussianBlur4093"
         stdDeviation="0.96983943" />
    </filter>
    <radialGradient
       cx="66.642494"
       cy="114.04181"
       r="45.862629"
       fx="66.642494"
       fy="114.04181"
       id="radialGradient4097"
       xlink:href="#linearGradient4075"
       gradientUnits="userSpaceOnUse"
       gradientTransform="matrix(1,0,0,0.05263158,0,108.03961)" />
    <radialGradient
       cx="66.642494"
       cy="114.04181"
       r="45.862629"
       fx="66.642494"
       fy="114.04181"
       id="radialGradient4101"
       xlink:href="#linearGradient4075"
       gradientUnits="userSpaceOnUse"
       gradientTransform="matrix(1,0,0,0.05263158,0,108.03961)" />
    <filter
       color-interpolation-filters="sRGB"
       id="filter4116">
      <feGaussianBlur
         id="feGaussianBlur4118"
         stdDeviation="0.48947371" />
    </filter>
    <clipPath
       id="clipPath4120">
      <path
         d="m 70.370874,86.285545 c -10.930979,10.93098 -69.78004851,10.93098 -80.711028,0 -10.93098,-10.930979 -10.93098,-69.780049 -10e-7,-80.7110284 10.93098014,-10.9309799 69.780049,-10.9309801 80.711029,-3e-7 10.93098,10.9309797 10.93098,69.7800487 0,80.7110287 z"
         transform="matrix(1.0985675,0,0,0.86399822,242.66324,24.64214)"
         id="path4122"
         style="fill:#c0811d;fill-opacity:1;fill-rule:evenodd;stroke:none" />
    </clipPath>
    <linearGradient
       x1="283.2449"
       y1="18.593788"
       x2="283.2449"
       y2="99.073578"
       id="linearGradient4130"
       xlink:href="#linearGradient4124"
       gradientUnits="userSpaceOnUse" />
    <filter
       color-interpolation-filters="sRGB"
       id="filter4149">
      <feGaussianBlur
         id="feGaussianBlur4151"
         stdDeviation="1.9451837" />
    </filter>
    <clipPath
       id="clipPath4157">
      <path
         d="m 70.370874,86.285545 c -10.930979,10.93098 -69.78004851,10.93098 -80.711028,0 -10.93098,-10.930979 -10.93098,-69.780049 -10e-7,-80.7110284 10.93098014,-10.9309799 69.780049,-10.9309801 80.711029,-3e-7 10.93098,10.9309797 10.93098,69.7800487 0,80.7110287 z"
         transform="matrix(0.85199994,0,0,0.67007845,181.51323,40.83572)"
         id="path4159"
         style="opacity:0.87727272;fill:#000000;fill-opacity:1;fill-rule:evenodd;stroke:none" />
    </clipPath>
    <linearGradient
       x1="70.236679"
       y1="24.064802"
       x2="70.236679"
       y2="76.669022"
       id="linearGradient4175"
       xlink:href="#linearGradient4018"
       gradientUnits="userSpaceOnUse" />
    <linearGradient
       x1="76.724648"
       y1="11.819321"
       x2="80.875"
       y2="16.375"
       id="linearGradient4189"
       xlink:href="#linearGradient6186"
       gradientUnits="userSpaceOnUse" />
    <linearGradient
       x1="76.724648"
       y1="11.819321"
       x2="80.875"
       y2="16.375"
       id="linearGradient4193"
       xlink:href="#linearGradient6186"
       gradientUnits="userSpaceOnUse" />
    <radialGradient
       cx="65.59301"
       cy="14.760234"
       r="7.241468"
       fx="65.59301"
       fy="10.142487"
       id="radialGradient4197"
       xlink:href="#linearGradient3951"
       gradientUnits="userSpaceOnUse" />
    <radialGradient
       cx="65.59301"
       cy="14.760234"
       r="7.241468"
       fx="65.59301"
       fy="10.142487"
       id="radialGradient4201"
       xlink:href="#linearGradient3951"
       gradientUnits="userSpaceOnUse" />
    <filter
       x="-0.10518881"
       y="-0.31556642"
       width="1.2103776"
       height="1.6311328"
       color-interpolation-filters="sRGB"
       id="filter4219">
      <feGaussianBlur
         id="feGaussianBlur4221"
         stdDeviation="1.0683239" />
    </filter>
    <clipPath
       id="clipPath4225">
      <path
         d="m 72.834478,14.760234 a 7.241468,7.241468 0 1 1 -14.482936,0 7.241468,7.241468 0 1 1 14.482936,0 z"
         transform="matrix(0.60193786,0,0,1.176094,28.904711,14.39271)"
         id="path4227"
         style="fill:url(#radialGradient4229);fill-opacity:1;fill-rule:evenodd;stroke:none" />
    </clipPath>
    <radialGradient
       cx="65.59301"
       cy="14.760234"
       r="7.241468"
       fx="65.59301"
       fy="10.142487"
       id="radialGradient4229"
       xlink:href="#linearGradient3951"
       gradientUnits="userSpaceOnUse" />
    <filter
       color-interpolation-filters="sRGB"
       id="filter4240">
      <feGaussianBlur
         id="feGaussianBlur4242"
         stdDeviation="0.21680048" />
    </filter>
    <radialGradient
       cx="65.59301"
       cy="14.760234"
       r="7.241468"
       fx="65.59301"
       fy="10.142487"
       id="radialGradient4244"
       xlink:href="#linearGradient3951"
       gradientUnits="userSpaceOnUse" />
    <filter
       color-interpolation-filters="sRGB"
       id="filter4335">
      <feGaussianBlur
         id="feGaussianBlur4337"
         stdDeviation="0.62695319" />
    </filter>
    <radialGradient
       cx="30.01536"
       cy="45.930031"
       r="48.553749"
       fx="30.01536"
       fy="11.56121"
       id="radialGradient4357"
       xlink:href="#linearGradient4351"
       gradientUnits="userSpaceOnUse"
       gradientTransform="matrix(1.0704802,0,0,1.0704802,-2.1154874,-3.2371566)" />
    <filter
       color-interpolation-filters="sRGB"
       id="filter4363">
      <feGaussianBlur
         id="feGaussianBlur4365"
         stdDeviation="0.43664568" />
    </filter>
    <filter
       color-interpolation-filters="sRGB"
       id="filter4496">
      <feGaussianBlur
         id="feGaussianBlur4498"
         stdDeviation="0.041264801" />
    </filter>
    <radialGradient
       cx="66.642494"
       cy="114.04181"
       r="45.862629"
       fx="66.642494"
       fy="114.04181"
       id="radialGradient4500"
       xlink:href="#linearGradient4075"
       gradientUnits="userSpaceOnUse"
       gradientTransform="matrix(1,0,0,0.05263158,0,108.03961)" />
    <filter
       x="-0.033834588"
       y="-0.64285713"
       width="1.0676692"
       height="2.2857141"
       color-interpolation-filters="sRGB"
       id="filter4502">
      <feGaussianBlur
         id="feGaussianBlur4504"
         stdDeviation="1.2931192" />
    </filter>
    <linearGradient
       x1="283.2449"
       y1="18.593788"
       x2="283.2449"
       y2="99.073578"
       id="linearGradient4506"
       xlink:href="#linearGradient4124"
       gradientUnits="userSpaceOnUse" />
    <linearGradient
       inkscape:collect="always"
       xlink:href="#linearGradient4018"
       id="linearGradient3155"
       gradientUnits="userSpaceOnUse"
       x1="70.236679"
       y1="24.064802"
       x2="70.236679"
       y2="76.669022"
       gradientTransform="matrix(1.2857944,0,0,1.2857944,-19.772996,-17.242404)" />
    <radialGradient
       inkscape:collect="always"
       xlink:href="#linearGradient3951"
       id="radialGradient3208"
       gradientUnits="userSpaceOnUse"
       cx="65.59301"
       cy="14.760234"
       fx="65.59301"
       fy="10.142487"
       r="7.241468"
       gradientTransform="matrix(1.1149543,0.14306224,-0.14306224,1.1149543,9.1191552,-17.678522)" />
    <radialGradient
       inkscape:collect="always"
       xlink:href="#linearGradient3951"
       id="radialGradient3211"
       gradientUnits="userSpaceOnUse"
       cx="65.59301"
       cy="14.760234"
       fx="65.59301"
       fy="10.142487"
       r="7.241468"
       gradientTransform="matrix(1.0714655,0.1374821,-0.1374821,1.0714655,47.781613,-12.738405)" />
    <linearGradient
       inkscape:collect="always"
       xlink:href="#linearGradient3902"
       id="linearGradient3221"
       gradientUnits="userSpaceOnUse"
       x1="78.569107"
       y1="39.039894"
       x2="78.569107"
       y2="151.91983"
       gradientTransform="matrix(1.0954968,0,0,0.86158317,31.178972,34.363885)" />
    <linearGradient
       inkscape:collect="always"
       xlink:href="#linearGradient3969"
       id="linearGradient3225"
       gradientUnits="userSpaceOnUse"
       spreadMethod="reflect"
       x1="-18.538389"
       y1="45.930031"
       x2="6.9841185"
       y2="18.384565"
       gradientTransform="matrix(1.1006958,0,0,0.86567208,30.977627,34.264354)" />
    <radialGradient
       inkscape:collect="always"
       xlink:href="#linearGradient3951"
       id="radialGradient3231"
       gradientUnits="userSpaceOnUse"
       cx="65.59301"
       cy="14.760234"
       fx="65.59301"
       fy="10.142487"
       r="7.241468"
       gradientTransform="matrix(1.456783,0.18692306,-0.18692306,1.456783,1.7534891,-5.9192182)" />
    <linearGradient
       inkscape:collect="always"
       xlink:href="#linearGradient6186"
       id="linearGradient3240"
       gradientUnits="userSpaceOnUse"
       x1="76.724648"
       y1="11.819321"
       x2="80.875"
       y2="16.375"
       gradientTransform="matrix(0.93059888,0.11940721,-0.11940721,0.93059888,36.977255,-8.2803012)" />
    <linearGradient
       inkscape:collect="always"
       xlink:href="#linearGradient6186"
       id="linearGradient3243"
       gradientUnits="userSpaceOnUse"
       x1="76.724648"
       y1="11.819321"
       x2="80.875"
       y2="16.375"
       gradientTransform="matrix(-0.92980485,-0.12544037,-0.12544037,0.92980485,158.89653,7.8457698)" />
    <radialGradient
       inkscape:collect="always"
       xlink:href="#linearGradient4351"
       id="radialGradient3246"
       gradientUnits="userSpaceOnUse"
       gradientTransform="matrix(1.0704802,0,0,1.0704802,-2.1154874,-3.2371566)"
       cx="30.01536"
       cy="45.930031"
       fx="30.01536"
       fy="11.56121"
       r="48.553749" />
    <linearGradient
       inkscape:collect="always"
       xlink:href="#linearGradient4124"
       id="linearGradient4190"
       gradientUnits="userSpaceOnUse"
       x1="283.2449"
       y1="18.593788"
       x2="283.2449"
       y2="99.073578" />
    <linearGradient
       inkscape:collect="always"
       xlink:href="#linearGradient4124"
       id="linearGradient4192"
       gradientUnits="userSpaceOnUse"
       x1="283.2449"
       y1="18.593788"
       x2="283.2449"
       y2="99.073578" />
    <mask
       maskUnits="userSpaceOnUse"
       id="mask4195">
      <path
         inkscape:connector-curvature="0"
         id="path4197"
         d="m -34.425148,-10.723705 0,5.2209014 123.666689,0 0,-5.2209014 -123.666689,0 z m 0,10.44180541 0,5.28232379 123.666689,0 0,-5.28232379 -123.666689,0 z m 0,10.50322659 0,5.220904 123.666689,0 0,-5.220904 -123.666689,0 z m 0,10.50323 0,5.220902 123.666689,0 0,-5.220902 -123.666689,0 z m 0,10.441803 0,5.282327 123.666689,0 0,-5.282327 -123.666689,0 z m 0,10.503229 0,5.220902 123.666689,0 0,-5.220902 -123.666689,0 z m 0,10.503228 0,5.220902 123.666689,0 0,-5.220902 -123.666689,0 z m 0,10.441806 0,5.282325 123.666689,0 0,-5.282325 -123.666689,0 z m 0,10.503226 0,5.220904 123.666689,0 0,-5.220904 -123.666689,0 z m 0,10.503228 0,5.220904 123.666689,0 0,-5.220904 -123.666689,0 z m 0,10.441807 0,5.282324 123.666689,0 0,-5.282324 -123.666689,0 z m 0,10.503226 0,5.2209 123.666689,0 0,-5.2209 -123.666689,0 z m 0,10.50323 0,5.22091 123.666689,0 0,-5.22091 -123.666689,0 z m 0,10.44181 0,5.28232 123.666689,0 0,-5.28232 -123.666689,0 z"
         style="opacity:0.74090911;fill:#ffffff;fill-opacity:1;fill-rule:evenodd;stroke:none" />
    </mask>
  </defs>
  <metadata
     id="metadata7">
    <rdf:RDF>
      <cc:Work
         rdf:about="">
        <dc:format>image/svg+xml</dc:format>
        <dc:type
           rdf:resource="http://purl.org/dc/dcmitype/StillImage" />
        <dc:title></dc:title>
      </cc:Work>
    </rdf:RDF>
  </metadata>
  <path
     inkscape:connector-curvature="0"
     style="fill:url(#radialGradient4081);fill-opacity:1;fill-rule:evenodd;stroke:none;filter:url(#filter4091)"
     id="path4231"
     transform="matrix(1.1642115,0,0,1.1642115,-14.474214,-9.102979)"
     d="m 112.50512,114.04181 a 45.862629,2.4138227 0 1 1 -91.725255,0 45.862629,2.4138227 0 1 1 91.725255,0 z" />
  <path
     inkscape:connector-curvature="0"
     style="fill:url(#linearGradient3243);fill-opacity:1;stroke:none"
     id="path4191"
     d="m 75.612195,3.4736226 a 0.45936809,0.45936809 0 0 1 0.245828,0.1515056 c 0,0 3.967969,4.4702744 7.985977,9.0062388 2.009005,2.267983 4.013098,4.561524 5.568277,6.313247 0.777589,0.875861 1.446733,1.613346 1.92835,2.153609 0.481617,0.540264 0.81588,0.908124 0.849101,0.942941 a 0.45936809,0.45936809 0 0 1 -0.0611,0.672217 l -2.094811,1.492504 a 0.45936809,0.45936809 0 0 1 -0.63924,-0.08625 L 75.157677,4.2111053 a 0.45936809,0.45936809 0 0 1 0.454518,-0.7374827 z" />
  <path
     inkscape:connector-curvature="0"
     style="fill:url(#linearGradient3240);fill-opacity:1;stroke:none"
     id="path4187"
     d="m 118.5568,9.0452723 a 0.45936809,0.45936809 0 0 0 -0.27666,0.082746 c 0,0 -4.98948,3.2913847 -10.04428,6.6332757 -2.52743,1.670947 -5.0567,3.367851 -7.01215,4.657539 -0.97774,0.644844 -1.81491,1.184084 -2.419909,1.581338 -0.605005,0.397254 -1.023063,0.6661 -1.064162,0.691134 a 0.45936809,0.45936809 0 0 0 -0.114905,0.665138 l 1.637306,1.983687 a 0.45936809,0.45936809 0 0 0 0.63979,0.08209 L 118.80502,9.875243 A 0.45936809,0.45936809 0 0 0 118.5568,9.0452723 z" />
  <g
     id="g4063"
     transform="matrix(1.2876849,0,0,2.4997344,66.264008,-2474.9582)">
    <rect
       style="fill:url(#linearGradient4069);fill-opacity:1;fill-rule:evenodd;stroke:none"
       id="rect4065"
       transform="translate(0,924.36218)"
       y="109.29908"
       x="29.090326"
       ry="2.25"
       rx="2.25"
       height="7.7178416"
       width="12.48773" />
    <rect
       style="fill:url(#linearGradient4071);fill-opacity:1;fill-rule:evenodd;stroke:none"
       id="rect4067"
       transform="translate(0,924.36218)"
       y="109.29908"
       x="29.090326"
       ry="0.82309502"
       rx="0.82309502"
       height="7.7178416"
       width="12.48773" />
  </g>
  <g
     id="g4055"
     transform="matrix(1.3233888,0,0,2.3841942,-30.744457,-2355.0829)">
    <rect
       style="fill:url(#linearGradient4059);fill-opacity:1;fill-rule:evenodd;stroke:none"
       id="rect4026"
       transform="translate(0,924.36218)"
       y="109.29908"
       x="29.090326"
       ry="2.25"
       rx="2.25"
       height="7.7178416"
       width="12.48773" />
    <rect
       style="fill:url(#linearGradient4061);fill-opacity:1;fill-rule:evenodd;stroke:none"
       id="rect4045"
       transform="translate(0,924.36218)"
       y="109.29908"
       x="29.090326"
       ry="0.94095266"
       rx="0.94095266"
       height="7.7178416"
       width="12.48773" />
  </g>
  <path
     inkscape:connector-curvature="0"
     style="fill:url(#radialGradient3231);fill-opacity:1;fill-rule:evenodd;stroke:none"
     id="path3910"
     d="M 105.09849,29.197683 A 10.635735,10.635735 0 0 1 83.999997,26.490489 10.635735,10.635735 0 1 1 105.09849,29.197683 z" />
  <path
     inkscape:connector-curvature="0"
     style="fill:#845011;fill-opacity:1;fill-rule:evenodd;stroke:none;filter:url(#filter4219)"
     id="path4209"
     clip-path="url(#clipPath4225)"
     transform="matrix(2.4201552,0.31053545,-0.15893546,1.2386622,-65.912885,-32.722871)"
     d="m 80.625,34.4375 a 12.1875,4.0625 0 1 1 -24.375,0 12.1875,4.0625 0 1 1 24.375,0 z" />
  <path
     inkscape:connector-curvature="0"
     style="fill:#c0811d;fill-opacity:1;fill-rule:evenodd;stroke:none"
     id="path3122"
     d="m 117.14065,114.9311 c -14.40359,11.18195 -91.948087,11.18195 -106.351668,0 -14.4035817,-11.18195 -14.4035817,-71.382121 -1e-6,-82.564062 14.403581,-11.181944 91.948079,-11.181944 106.351669,-10e-7 14.40357,11.181942 14.40357,71.382113 0,82.564063 z" />
  <path
     inkscape:connector-curvature="0"
     style="fill:url(#linearGradient3933);fill-opacity:1;fill-rule:evenodd;stroke:none;filter:url(#filter3947)"
     id="path3925"
     transform="matrix(1.1642115,0,0,1.1642115,-11.541831,-1.1978597)"
     d="m 64.90625,24 c -9.588293,0 -19.173942,0.611575 -27.0625,1.78125 -7.888558,1.169675 -14.140228,3.070361 -16.59375,5 -2.454418,1.930343 -4.747824,6.632101 -6.21875,12.75 -1.470926,6.117899 -2.21875,13.608826 -2.21875,21.09375 0,7.484924 0.747824,14.944601 2.21875,21.0625 1.470926,6.117899 3.764332,10.819657 6.21875,12.75 2.454578,1.93047 8.677726,3.8584 16.5625,5.03125 7.884774,1.17285 17.47559,1.75 27.0625,1.75 9.58691,0 19.208976,-0.57715 27.09375,-1.75 7.884774,-1.17285 14.10792,-3.10078 16.5625,-5.03125 2.45442,-1.930343 4.74782,-6.632101 6.21875,-12.75 1.47093,-6.117899 2.21875,-13.577576 2.21875,-21.0625 0,-7.484924 -0.74782,-14.975851 -2.21875,-21.09375 -1.47093,-6.117899 -3.76433,-10.819657 -6.21875,-12.75 -2.45462,-1.9305 -8.681889,-3.830362 -16.5625,-5 C 84.088139,24.611612 74.494543,24 64.90625,24 z m 0,2.84375 c 8.314958,0 16.618004,0.499012 23.5625,1.53125 6.944496,1.032238 12.47033,2.425177 15.625,4.90625 3.15467,2.48108 5.07271,7.046287 6.40625,12.59375 1.33354,5.547463 1.96875,12.151543 1.96875,18.75 0,6.598457 -0.63521,13.171287 -1.96875,18.71875 -1.33354,5.547463 -3.25158,10.11267 -6.40625,12.59375 -3.1545,2.480943 -8.680634,3.873448 -15.625,4.90625 -6.944366,1.0328 -15.246871,1.53125 -23.5625,1.53125 -8.315629,0 -16.618134,-0.49845 -23.5625,-1.53125 C 34.399384,99.810948 28.873253,98.418443 25.71875,95.9375 22.564075,93.45642 20.646042,88.891213 19.3125,83.34375 17.978958,77.796287 17.34375,71.223457 17.34375,64.625 c 0,-6.598457 0.635208,-13.202537 1.96875,-18.75 1.333542,-5.547463 3.251575,-10.11267 6.40625,-12.59375 3.154667,-2.481073 8.680504,-3.874012 15.625,-4.90625 6.944496,-1.032238 15.247542,-1.53125 23.5625,-1.53125 z" />
  <path
     inkscape:connector-curvature="0"
     style="fill:url(#linearGradient3225);fill-opacity:1;fill-rule:evenodd;stroke:none"
     id="path3124"
     d="m 108.43456,108.95934 c -12.031689,9.46266 -76.806614,9.46266 -88.838297,0 -12.0316841,-9.462642 -12.0316841,-60.406639 -1e-6,-69.869283 12.031684,-9.462644 76.806608,-9.462644 88.838298,0 12.03168,9.462644 12.03168,60.40664 0,69.869283 z" />
  <path
     inkscape:connector-curvature="0"
     style="fill:#000000;fill-opacity:1;fill-rule:evenodd;stroke:none"
     id="path3975"
     d="m 110.20252,110.22585 c -12.498273,9.8296 -79.785212,9.8296 -92.283492,0 -12.4982802,-9.82962 -12.4982802,-62.749255 -1e-6,-72.578864 12.498281,-9.829611 79.785219,-9.829613 92.283493,-2e-6 12.49828,9.829611 12.49828,62.749246 0,72.578866 z" />
  <path
     inkscape:connector-curvature="0"
     style="opacity:0.87727272000000001;fill:url(#linearGradient3221);fill-opacity:1;fill-rule:evenodd;stroke:none"
     id="path3959"
     d="m 108.27004,108.70605 c -11.974854,9.41797 -76.44382,9.41797 -88.418675,0 -11.9748523,-9.417942 -11.9748523,-60.121311 0,-69.53926 11.974853,-9.417946 76.443819,-9.417946 88.418675,0 11.97486,9.417949 11.97486,60.121316 0,69.53926 z" />
  <path
     inkscape:connector-curvature="0"
     style="fill:#692400;fill-opacity:1;fill-rule:evenodd;stroke:none;filter:url(#filter3996)"
     id="path3979"
     clip-path="url(#clipPath4000)"
     transform="matrix(1.1920717,0,0,1.1721637,-184.93405,-2.0146994)"
     d="m 208.875,18.78125 c -20.93993,0 -41.47706,2.559113 -48.0375,7.71875 -13.12088,10.319274 -13.12088,65.899476 0,76.21875 13.12088,10.31927 82.65412,10.31927 95.775,0 13.12088,-10.319274 13.12088,-65.899476 0,-76.21875 -6.56044,-5.159637 -26.79757,-7.71875 -47.7375,-7.71875 z m 0,2.5625 c 19.31264,0 37.90564,2.366331 43.95625,7.125 12.10123,9.517337 12.10123,60.763913 0,70.28125 -12.10123,9.51734 -76.14252,9.51734 -88.24375,0 -12.10123,-9.517337 -12.10123,-60.763913 0,-70.28125 6.05061,-4.758669 24.97486,-7.125 44.2875,-7.125 z" />
  <path
     inkscape:connector-curvature="0"
     style="opacity:0.34545456;fill:url(#linearGradient4192);fill-opacity:1;fill-rule:evenodd;stroke:none;filter:url(#filter4116)"
     id="path4111"
     clip-path="url(#clipPath4120)"
     transform="matrix(1.1701176,0,0,1.1642115,-258.22623,-0.704045)"
     d="m 275.625,10.8125 c -22.05271,0 -44.09093,2.691172 -51,8.125 -13.81815,10.867656 -13.81815,69.382344 0,80.25 13.81815,10.86766 88.2131,10.86766 102.03125,0 13.81815,-10.867656 13.81815,-69.382344 0,-80.25 -6.90907,-5.433828 -28.97854,-8.125 -51.03125,-8.125 z m 0,12.75 c 18.8683,0 37.74485,2.319567 43.65625,6.96875 11.82281,9.298367 11.82281,59.357883 0,68.65625 -11.82281,9.29837 -75.45844,9.29837 -87.28125,0 -11.82281,-9.298367 -11.82281,-59.357883 0,-68.65625 5.9114,-4.649183 24.7567,-6.96875 43.625,-6.96875 z" />
  <path
     inkscape:connector-curvature="0"
     style="opacity:0.77727272;fill:#000000;fill-opacity:1;fill-rule:evenodd;stroke:none;filter:url(#filter4149)"
     id="path4136"
     clip-path="url(#clipPath4157)"
     transform="matrix(1.2857944,0,0,1.2857944,-202.21378,-18.142461)"
     d="m 203.4375,29 c -18.20773,0.281155 -35.68646,2.689015 -41.40625,7.1875 -12.20222,9.596768 -14.02418,63.068944 -1.82196,72.66571 12.20222,9.59677 81.53545,9.59677 93.73767,0 C 266.14918,99.256444 264.32722,45.784268 252.125,36.1875 245.64257,31.089217 224.07293,28.681357 203.4375,29 z m 3.65625,10.5625 c 13.53014,0 27.04228,1.666149 31.28125,5 8.47794,6.667702 10.2999,44.40426 1.82196,51.071962 -8.47794,6.667698 -57.75973,6.667698 -66.23767,0 -8.47794,-6.667702 -6.65598,-44.40426 1.82196,-51.071962 4.23897,-3.333851 17.78236,-5 31.3125,-5 z"
     sodipodi:nodetypes="ssssssssssss" />
  <path
     inkscape:connector-curvature="0"
     style="fill:url(#radialGradient3211);fill-opacity:1;fill-rule:evenodd;stroke:none"
     id="path4195"
     d="M 123.79199,13.090112 A 7.8226072,7.8226072 0 0 1 108.274,11.098968 7.8226072,7.8226072 0 1 1 123.79199,13.090112 z" />
  <path
     inkscape:connector-curvature="0"
     style="fill:url(#radialGradient3208);fill-opacity:1;fill-rule:evenodd;stroke:none"
     id="path4199"
     d="M 88.214635,9.1983277 A 8.1400991,8.1400991 0 0 1 72.066825,7.1263664 8.1400991,8.1400991 0 1 1 88.214635,9.1983277 z" />
  <g
     style="filter:url(#filter4240)"
     id="g4237"
     transform="matrix(1.1642115,0,0,1.1642115,-11.541831,-1085.5005)">
    <path
       inkscape:connector-curvature="0"
       style="opacity:0.34545456;fill:url(#linearGradient4190);fill-opacity:1;fill-rule:evenodd;stroke:none;filter:url(#filter4116)"
       id="path4233"
       clip-path="url(#clipPath4120)"
       transform="matrix(0.88585139,0,0,-0.88585139,-179.28656,1053.3753)"
       d="m 275.625,10.8125 c -22.05271,0 -44.09093,2.691172 -51,8.125 -13.81815,10.867656 -13.81815,69.382344 0,80.25 13.81815,10.86766 88.2131,10.86766 102.03125,0 13.81815,-10.867656 13.81815,-69.382344 0,-80.25 -6.90907,-5.433828 -28.97854,-8.125 -51.03125,-8.125 z m 0,12.75 c 18.8683,0 37.74485,2.319567 43.65625,6.96875 11.82281,9.298367 11.82281,59.357883 0,68.65625 -11.82281,9.29837 -75.45844,9.29837 -87.28125,0 -11.82281,-9.298367 -11.82281,-59.357883 0,-68.65625 5.9114,-4.649183 24.7567,-6.96875 43.625,-6.96875 z" />
  </g>
  <rect
     width="8"
     height="8"
     rx="0"
     ry="0"
     x="-48.315269"
     y="40.315269"
     transform="scale(-1,1)"
     id="rect4383"
     style="opacity:0.85909095;fill:#000000;fill-opacity:1;fill-rule:evenodd;stroke:none" />
  <path
     inkscape:connector-curvature="0"
     style="opacity:0.77727272;fill:#000000;fill-opacity:1;fill-rule:evenodd;stroke:none;filter:url(#filter4149)"
     id="path4327"
     clip-path="url(#clipPath4157)"
     transform="matrix(1.2857944,0,0,1.2857944,-202.21378,-18.142461)"
     d="m 203.4375,29 c -18.20773,0.281155 -35.68646,2.689015 -41.40625,7.1875 -12.20222,9.596768 -13.1132,62.157963 -0.91098,71.75473 12.20222,9.59677 80.62447,10.50775 92.82669,0.91098 C 266.14918,99.256444 264.32722,45.784268 252.125,36.1875 245.64257,31.089217 224.07293,28.681357 203.4375,29 z m 3.65625,10.5625 c 13.53014,0 27.04228,1.666149 31.28125,5 8.47794,6.667702 12.12186,46.226222 3.64392,52.893924 -8.47794,6.667696 -61.40365,6.667696 -69.88159,0 -8.47794,-6.667702 -4.83402,-46.226222 3.64392,-52.893924 4.23897,-3.333851 17.78236,-5 31.3125,-5 z"
     sodipodi:nodetypes="ssssssssssss" />
  <rect
     width="8"
     height="8"
     rx="0"
     ry="0"
     x="-56.315269"
     y="48.315269"
     transform="scale(-1,1)"
     id="rect3311"
     style="opacity:0.85909095;fill:#000000;fill-opacity:1;fill-rule:evenodd;stroke:none" />
  <rect
     style="opacity:0.85909095;fill:#000000;fill-opacity:1;fill-rule:evenodd;stroke:none"
     id="rect3313"
     transform="scale(-1,1)"
     y="48.315269"
     x="-40.315269"
     ry="0"
     rx="0"
     height="8"
     width="8" />
  <rect
     style="opacity:0.85909095;fill:#000000;fill-opacity:1;fill-rule:evenodd;stroke:none"
     id="rect3315"
     transform="scale(-1,1)"
     y="56.315269"
     x="-56.315269"
     ry="0"
     rx="0"
     height="7.9999986"
     width="8" />
  <rect
     width="8.0000019"
     height="7.9999986"
     rx="0"
     ry="0"
     x="-40.315269"
     y="56.315269"
     transform="scale(-1,1)"
     id="rect3317"
     style="opacity:0.85909095;fill:#000000;fill-opacity:1;fill-rule:evenodd;stroke:none" />
  <rect
     width="8"
     height="8"
     rx="0"
     ry="0"
     x="-48.315269"
     y="56.315269"
     transform="scale(-1,1)"
     id="rect3319"
     style="opacity:0.85909095;fill:#000000;fill-opacity:1;fill-rule:evenodd;stroke:none" />
  <rect
     style="opacity:0.85909095;fill:#000000;fill-opacity:1;fill-rule:evenodd;stroke:none"
     id="rect3337"
     transform="scale(-1,1)"
     y="80.315269"
     x="-48.315269"
     ry="0"
     rx="0"
     height="8"
     width="7.999999" />
  <rect
     width="7.999999"
     height="8"
     rx="0"
     ry="0"
     x="-56.315269"
     y="88.315269"
     transform="scale(-1,1)"
     id="rect3339"
     style="opacity:0.85909095;fill:#000000;fill-opacity:1;fill-rule:evenodd;stroke:none" />
  <rect
     style="opacity:0.85909095;fill:#000000;fill-opacity:1;fill-rule:evenodd;stroke:none"
     id="rect3341"
     transform="scale(-1,1)"
     y="88.315269"
     x="-64.315269"
     ry="0"
     rx="0"
     height="8"
     width="7.999999" />
  <rect
     width="7.999999"
     height="8"
     rx="0"
     ry="0"
     x="-80.315269"
     y="88.315269"
     transform="scale(-1,1)"
     id="rect3345"
     style="opacity:0.85909095;fill:#000000;fill-opacity:1;fill-rule:evenodd;stroke:none" />
  <rect
     style="opacity:0.85909095;fill:#000000;fill-opacity:1;fill-rule:evenodd;stroke:none"
     id="rect3347"
     transform="scale(-1,1)"
     y="80.315269"
     x="-88.315269"
     ry="0"
     rx="0"
     height="8"
     width="7.9310217" />
  <rect
     width="7.999999"
     height="8"
     rx="0"
     ry="0"
     x="-72.315269"
     y="88.315269"
     transform="scale(-1,1)"
     id="rect3349"
     style="opacity:0.85909095;fill:#000000;fill-opacity:1;fill-rule:evenodd;stroke:none" />
  <rect
     width="8"
     height="8"
     rx="0"
     ry="0"
     x="-88"
     y="40"
     transform="scale(-1,1)"
     id="rect4383-3"
     style="opacity:0.85909095;fill:#000000;fill-opacity:1;fill-rule:evenodd;stroke:none" />
  <rect
     width="8"
     height="8"
     rx="0"
     ry="0"
     x="-96"
     y="48"
     transform="scale(-1,1)"
     id="rect3311-6"
     style="opacity:0.85909095;fill:#000000;fill-opacity:1;fill-rule:evenodd;stroke:none" />
  <rect
     style="opacity:0.85909095;fill:#000000;fill-opacity:1;fill-rule:evenodd;stroke:none"
     id="rect3313-7"
     transform="scale(-1,1)"
     y="48"
     x="-80"
     ry="0"
     rx="0"
     height="8"
     width="8" />
  <rect
     style="opacity:0.85909095;fill:#000000;fill-opacity:1;fill-rule:evenodd;stroke:none"
     id="rect3315-5"
     transform="scale(-1,1)"
     y="56"
     x="-96"
     ry="0"
     rx="0"
     height="7.9999986"
     width="8" />
  <rect
     width="8.0000019"
     height="7.9999986"
     rx="0"
     ry="0"
     x="-80"
     y="56"
     transform="scale(-1,1)"
     id="rect3317-3"
     style="opacity:0.85909095;fill:#000000;fill-opacity:1;fill-rule:evenodd;stroke:none" />
  <rect
     width="8"
     height="8"
     rx="0"
     ry="0"
     x="-88"
     y="56"
     transform="scale(-1,1)"
     id="rect3319-5"
     style="opacity:0.85909095;fill:#000000;fill-opacity:1;fill-rule:evenodd;stroke:none" />
  <path
     inkscape:connector-curvature="0"
     style="opacity:0.87727272;fill:url(#linearGradient3155);fill-opacity:1;fill-rule:evenodd;stroke:none"
     id="path4173"
     d="m 63.482192,33.425932 c -8.236223,0 -16.462037,0.494026 -23.425567,1.52688 -6.963529,1.032857 -12.490005,2.210575 -16.47424,5.344084 -4.535892,3.567374 -6.426957,9.433303 -7.754947,16.192973 a 4.2547305,4.2547305 0 0 0 3.053761,4.902091 c 12.047984,3.283801 27.15319,5.183359 43.596467,5.183359 17.358191,0 33.216284,-2.119703 45.565324,-5.745893 a 4.2547305,4.2547305 0 0 0 2.97342,-4.942271 C 109.67779,49.41183 107.84115,43.772297 103.42218,40.296896 99.433636,37.16 93.880802,35.985526 86.907759,34.952812 79.934715,33.9201 71.718415,33.425932 63.482192,33.425932 z" />
</svg>
