<?xml version="1.0" encoding="UTF-8" standalone="no"?>
<!-- Created with Inkscape (http://www.inkscape.org/) -->
<svg
   xmlns:dc="http://purl.org/dc/elements/1.1/"
   xmlns:cc="http://creativecommons.org/ns#"
   xmlns:rdf="http://www.w3.org/1999/02/22-rdf-syntax-ns#"
   xmlns:svg="http://www.w3.org/2000/svg"
   xmlns="http://www.w3.org/2000/svg"
   xmlns:xlink="http://www.w3.org/1999/xlink"
   xmlns:sodipodi="http://sodipodi.sourceforge.net/DTD/sodipodi-0.dtd"
   xmlns:inkscape="http://www.inkscape.org/namespaces/inkscape"
   width="128"
   height="128"
   id="svg2"
   sodipodi:version="0.32"
   inkscape:version="0.45+devel"
   version="1.0"
   sodipodi:docbase="/home/david/Oxygen/kdelibs/scalable/actions"
   sodipodi:docname="stylesheets.svgz"
   inkscape:output_extension="org.inkscape.output.svgz.inkscape"
   inkscape:export-filename="/home/pinheiro/pics/oxygen/scalable/actions/stylesheets.png"
   inkscape:export-xdpi="180"
   inkscape:export-ydpi="180">
  <defs
     id="defs4">
    <linearGradient
       inkscape:collect="always"
       id="linearGradient3178">
      <stop
         style="stop-color:#ffffff;stop-opacity:1;"
         offset="0"
         id="stop3180" />
      <stop
         style="stop-color:#ffffff;stop-opacity:0;"
         offset="1"
         id="stop3182" />
    </linearGradient>
    <linearGradient
       inkscape:collect="always"
       id="linearGradient3165">
      <stop
         style="stop-color:#ffffff;stop-opacity:1;"
         offset="0"
         id="stop3167" />
      <stop
         style="stop-color:#ffffff;stop-opacity:0;"
         offset="1"
         id="stop3169" />
    </linearGradient>
    <linearGradient
       inkscape:collect="always"
       id="linearGradient3155">
      <stop
         style="stop-color:#ffffff;stop-opacity:1;"
         offset="0"
         id="stop3157" />
      <stop
         style="stop-color:#ffffff;stop-opacity:0;"
         offset="1"
         id="stop3159" />
    </linearGradient>
    <linearGradient
       id="linearGradient3130">
      <stop
         id="stop3132"
         offset="0"
         style="stop-color:#b3b3b3;stop-opacity:0" />
      <stop
         style="stop-color:#595959;stop-opacity:0.66181821;"
         offset="0.5"
         id="stop3134" />
      <stop
         id="stop3136"
         offset="1"
         style="stop-color:#e5e5e5;stop-opacity:1;" />
    </linearGradient>
    <linearGradient
       inkscape:collect="always"
       id="linearGradient3120">
      <stop
         style="stop-color:#000000;stop-opacity:1;"
         offset="0"
         id="stop3122" />
      <stop
         style="stop-color:#000000;stop-opacity:0;"
         offset="1"
         id="stop3124" />
    </linearGradient>
    <linearGradient
       id="linearGradient3070">
      <stop
         style="stop-color:#7bfa6c;stop-opacity:1;"
         offset="0"
         id="stop3072" />
      <stop
         style="stop-color:#c9fdc2;stop-opacity:0;"
         offset="1"
         id="stop3074" />
    </linearGradient>
    <linearGradient
       id="linearGradient3054">
      <stop
         style="stop-color:#b3b3b3;stop-opacity:1;"
         offset="0"
         id="stop3056" />
      <stop
         id="stop3062"
         offset="0.5"
         style="stop-color:#595959;stop-opacity:0.66181821;" />
      <stop
         style="stop-color:#e5e5e5;stop-opacity:1;"
         offset="1"
         id="stop3058" />
    </linearGradient>
    <linearGradient
       id="linearGradient3044">
      <stop
         style="stop-color:#ffffff;stop-opacity:1;"
         offset="0"
         id="stop3046" />
      <stop
         style="stop-color:#ffffff;stop-opacity:0;"
         offset="1"
         id="stop3048" />
    </linearGradient>
    <linearGradient
       id="linearGradient2968">
      <stop
         style="stop-color:#4d4d4d;stop-opacity:0.12727273;"
         offset="0"
         id="stop2970" />
      <stop
         style="stop-color:#ffffff;stop-opacity:0.42909092;"
         offset="1"
         id="stop2972" />
    </linearGradient>
    <linearGradient
       id="linearGradient2962">
      <stop
         id="stop2964"
         offset="0"
         style="stop-color:#683300;stop-opacity:1;" />
      <stop
         id="stop2966"
         offset="1"
         style="stop-color:#bf5e00;stop-opacity:0;" />
    </linearGradient>
    <linearGradient
       id="linearGradient3237">
      <stop
         style="stop-color:#fdff8b;stop-opacity:1;"
         offset="0"
         id="stop3239" />
      <stop
         style="stop-color:#ffffff;stop-opacity:0;"
         offset="1"
         id="stop3241" />
    </linearGradient>
    <linearGradient
       id="linearGradient6674">
      <stop
         style="stop-color:#bf5e00;stop-opacity:1;"
         offset="0"
         id="stop6676" />
      <stop
         style="stop-color:#bf5e00;stop-opacity:0;"
         offset="1"
         id="stop6678" />
    </linearGradient>
    <linearGradient
       id="linearGradient6666">
      <stop
         id="stop6668"
         offset="0"
         style="stop-color:#7fff70;stop-opacity:1;" />
      <stop
         id="stop6670"
         offset="1"
         style="stop-color:#055900;stop-opacity:1;" />
    </linearGradient>
    <linearGradient
       id="linearGradient6631">
      <stop
         style="stop-color:#8b003e;stop-opacity:1;"
         offset="0"
         id="stop6633" />
      <stop
         style="stop-color:#bf5e00;stop-opacity:0;"
         offset="1"
         id="stop6635" />
    </linearGradient>
    <linearGradient
       inkscape:collect="always"
       id="linearGradient6610">
      <stop
         style="stop-color:#ffbf80;stop-opacity:1;"
         offset="0"
         id="stop6612" />
      <stop
         style="stop-color:#ffbf80;stop-opacity:0;"
         offset="1"
         id="stop6614" />
    </linearGradient>
    <linearGradient
       id="linearGradient6446">
      <stop
         style="stop-color:#ffe9da;stop-opacity:1;"
         offset="0"
         id="stop6448" />
      <stop
         style="stop-color:#ffffff;stop-opacity:0;"
         offset="1"
         id="stop6450" />
    </linearGradient>
    <linearGradient
       inkscape:collect="always"
       id="linearGradient9643">
      <stop
         style="stop-color:#ffaa00;stop-opacity:1;"
         offset="0"
         id="stop9645" />
      <stop
         style="stop-color:#ff7e00;stop-opacity:1"
         offset="1"
         id="stop9647" />
    </linearGradient>
    <radialGradient
       inkscape:collect="always"
       xlink:href="#linearGradient9643"
       id="radialGradient9651"
       cx="12.040753"
       cy="118.14538"
       fx="12.040753"
       fy="118.14538"
       r="42.559486"
       gradientUnits="userSpaceOnUse"
       spreadMethod="reflect"
       gradientTransform="matrix(1.7951011,0,0,1.7951011,-9.5736166,-93.937523)" />
    <radialGradient
       inkscape:collect="always"
       xlink:href="#linearGradient6666"
       id="radialGradient9692"
       gradientUnits="userSpaceOnUse"
       gradientTransform="matrix(-1.4337135,0,0,1.4142981,130.2883,-45.286552)"
       spreadMethod="pad"
       cx="46.064297"
       cy="117.21309"
       fx="46.064297"
       fy="117.21309"
       r="42.559486" />
    <linearGradient
       inkscape:collect="always"
       xlink:href="#linearGradient3044"
       id="linearGradient6452"
       x1="21.094994"
       y1="21.101994"
       x2="15.189133"
       y2="27.007854"
       gradientUnits="userSpaceOnUse"
       spreadMethod="reflect"
       gradientTransform="translate(0.4129032,0.6193548)" />
    <filter
       inkscape:collect="always"
       id="filter6458">
      <feGaussianBlur
         inkscape:collect="always"
         stdDeviation="0.28444187"
         id="feGaussianBlur6460" />
    </filter>
    <linearGradient
       inkscape:collect="always"
       xlink:href="#linearGradient3044"
       id="linearGradient6464"
       gradientUnits="userSpaceOnUse"
       gradientTransform="translate(0.4129032,0.6193548)"
       spreadMethod="reflect"
       x1="21.094994"
       y1="21.101994"
       x2="15.126888"
       y2="27.070099" />
    <linearGradient
       inkscape:collect="always"
       xlink:href="#linearGradient3044"
       id="linearGradient6470"
       gradientUnits="userSpaceOnUse"
       gradientTransform="translate(0.4129032,0.6193548)"
       spreadMethod="reflect"
       x1="21.094994"
       y1="21.101994"
       x2="13.96104"
       y2="28.235947" />
    <linearGradient
       inkscape:collect="always"
       xlink:href="#linearGradient3044"
       id="linearGradient6472"
       gradientUnits="userSpaceOnUse"
       gradientTransform="translate(0.4129032,0.6193548)"
       spreadMethod="reflect"
       x1="21.094994"
       y1="21.101994"
       x2="13.96104"
       y2="28.235947" />
    <linearGradient
       inkscape:collect="always"
       xlink:href="#linearGradient6631"
       id="linearGradient6637"
       x1="55.329033"
       y1="112"
       x2="55.329033"
       y2="74.913147"
       gradientUnits="userSpaceOnUse" />
    <linearGradient
       inkscape:collect="always"
       xlink:href="#linearGradient3237"
       id="linearGradient6649"
       x1="62.038712"
       y1="15.91371"
       x2="62.038712"
       y2="50.728985"
       gradientUnits="userSpaceOnUse" />
    <linearGradient
       inkscape:collect="always"
       xlink:href="#linearGradient6610"
       id="linearGradient6655"
       gradientUnits="userSpaceOnUse"
       x1="59.225807"
       y1="20.283871"
       x2="59.225807"
       y2="117.32368"
       gradientTransform="translate(0,1.6516129)" />
    <linearGradient
       inkscape:collect="always"
       xlink:href="#linearGradient6610"
       id="linearGradient6657"
       gradientUnits="userSpaceOnUse"
       x1="59.225807"
       y1="20.283871"
       x2="59.225807"
       y2="117.32368" />
    <linearGradient
       inkscape:collect="always"
       xlink:href="#linearGradient2962"
       id="linearGradient6680"
       x1="19.096775"
       y1="50.580647"
       x2="80.047699"
       y2="66.897575"
       gradientUnits="userSpaceOnUse" />
    <linearGradient
       inkscape:collect="always"
       xlink:href="#linearGradient6446"
       id="linearGradient3209"
       gradientUnits="userSpaceOnUse"
       gradientTransform="translate(0.2623629,1)"
       x1="59.225807"
       y1="7.8973217"
       x2="59.225807"
       y2="46.228859" />
    <linearGradient
       inkscape:collect="always"
       xlink:href="#linearGradient6446"
       id="linearGradient3225"
       gradientUnits="userSpaceOnUse"
       gradientTransform="translate(0.2332229,1.9150941)"
       x1="92.848534"
       y1="60.664852"
       x2="31.376678"
       y2="21.03125" />
    <linearGradient
       inkscape:collect="always"
       xlink:href="#linearGradient6446"
       id="linearGradient3231"
       gradientUnits="userSpaceOnUse"
       gradientTransform="translate(0.2623629,1)"
       x1="59.225807"
       y1="7.8973217"
       x2="59.225807"
       y2="46.228859" />
    <linearGradient
       inkscape:collect="always"
       xlink:href="#linearGradient6446"
       id="linearGradient3233"
       gradientUnits="userSpaceOnUse"
       gradientTransform="translate(0.2332229,1.9150941)"
       x1="92.848534"
       y1="60.664852"
       x2="31.376678"
       y2="21.03125" />
    <linearGradient
       inkscape:collect="always"
       xlink:href="#linearGradient3044"
       id="linearGradient3243"
       x1="-60.945251"
       y1="105.83054"
       x2="-59.415245"
       y2="45.631207"
       gradientUnits="userSpaceOnUse" />
    <filter
       inkscape:collect="always"
       id="filter3281">
      <feGaussianBlur
         inkscape:collect="always"
         stdDeviation="0.32872878"
         id="feGaussianBlur3283" />
    </filter>
    <linearGradient
       inkscape:collect="always"
       xlink:href="#linearGradient2968"
       id="linearGradient3289"
       gradientUnits="userSpaceOnUse"
       x1="60.402065"
       y1="64.076149"
       x2="60.402065"
       y2="-20.962214" />
    <filter
       inkscape:collect="always"
       id="filter3319">
      <feGaussianBlur
         inkscape:collect="always"
         stdDeviation="1.6179775"
         id="feGaussianBlur3321" />
    </filter>
    <radialGradient
       inkscape:collect="always"
       xlink:href="#linearGradient2968"
       id="radialGradient2974"
       cx="60"
       cy="102.24867"
       fx="60"
       fy="102.24867"
       r="43.048276"
       gradientTransform="matrix(2.3229735,-3.3311741e-7,4.9879122e-8,0.3716757,-79.378413,37.996674)"
       gradientUnits="userSpaceOnUse" />
    <filter
       inkscape:collect="always"
       id="filter3040"
       x="-0.048118985"
       width="1.096238"
       y="-0.1344013"
       height="1.2688026">
      <feGaussianBlur
         inkscape:collect="always"
         stdDeviation="1.7261995"
         id="feGaussianBlur3042" />
    </filter>
    <linearGradient
       inkscape:collect="always"
       xlink:href="#linearGradient3044"
       id="linearGradient3050"
       x1="60"
       y1="72"
       x2="60"
       y2="48"
       gradientUnits="userSpaceOnUse" />
    <linearGradient
       inkscape:collect="always"
       xlink:href="#linearGradient3054"
       id="linearGradient3060"
       x1="8"
       y1="60"
       x2="112"
       y2="60"
       gradientUnits="userSpaceOnUse"
       gradientTransform="matrix(1.2057335,0,0,1.1894054,-8.0987148,-7.9680903)" />
    <linearGradient
       inkscape:collect="always"
       xlink:href="#linearGradient3044"
       id="linearGradient3065"
       gradientUnits="userSpaceOnUse"
       gradientTransform="matrix(1.2057335,0,0,1.1894054,-7.8175101,-6.8796724)"
       x1="92.848534"
       y1="60.664852"
       x2="31.376678"
       y2="21.03125" />
    <linearGradient
       inkscape:collect="always"
       xlink:href="#linearGradient3044"
       id="linearGradient3068"
       gradientUnits="userSpaceOnUse"
       gradientTransform="matrix(1.2057335,0,0,1.1894054,-7.782375,-7.9680904)"
       x1="59.225807"
       y1="7.8973217"
       x2="59.225807"
       y2="46.228859" />
    <linearGradient
       inkscape:collect="always"
       xlink:href="#linearGradient3070"
       id="linearGradient3076"
       x1="80"
       y1="-44"
       x2="80"
       y2="68"
       gradientUnits="userSpaceOnUse"
       gradientTransform="matrix(1.2057335,0,0,1.1894054,-8.0987148,-10.346901)" />
    <filter
       inkscape:collect="always"
       id="filter3116">
      <feGaussianBlur
         inkscape:collect="always"
         stdDeviation="2.6690945"
         id="feGaussianBlur3118" />
    </filter>
    <linearGradient
       inkscape:collect="always"
       xlink:href="#linearGradient3120"
       id="linearGradient3126"
       x1="16"
       y1="60"
       x2="16"
       y2="-20"
       gradientUnits="userSpaceOnUse" />
    <linearGradient
       inkscape:collect="always"
       xlink:href="#linearGradient3044"
       id="linearGradient3146"
       gradientUnits="userSpaceOnUse"
       gradientTransform="translate(0.4129032,0.6193548)"
       spreadMethod="reflect"
       x1="21.094994"
       y1="21.101994"
       x2="13.96104"
       y2="28.235947" />
    <linearGradient
       inkscape:collect="always"
       xlink:href="#linearGradient3044"
       id="linearGradient3148"
       gradientUnits="userSpaceOnUse"
       gradientTransform="translate(0.4129032,0.6193548)"
       spreadMethod="reflect"
       x1="21.094994"
       y1="21.101994"
       x2="13.96104"
       y2="28.235947" />
    <linearGradient
       inkscape:collect="always"
       xlink:href="#linearGradient3155"
       id="linearGradient3161"
       x1="158.10245"
       y1="36"
       x2="158.10245"
       y2="60"
       gradientUnits="userSpaceOnUse"
       gradientTransform="matrix(1.2057335,0,0,1.1894054,-131.20705,-7.9680904)" />
    <radialGradient
       inkscape:collect="always"
       xlink:href="#linearGradient3165"
       id="radialGradient3171"
       cx="100"
       cy="48"
       fx="100"
       fy="48"
       r="4"
       gradientUnits="userSpaceOnUse" />
    <linearGradient
       inkscape:collect="always"
       xlink:href="#linearGradient3178"
       id="linearGradient3184"
       x1="69.996246"
       y1="70.078796"
       x2="66.559097"
       y2="39.114445"
       gradientUnits="userSpaceOnUse"
       gradientTransform="matrix(1.2057335,0,0,1.1894054,-8.0987148,-7.9680904)" />
    <radialGradient
       inkscape:collect="always"
       xlink:href="#linearGradient3165"
       id="radialGradient3188"
       gradientUnits="userSpaceOnUse"
       cx="100"
       cy="48"
       fx="100"
       fy="48"
       r="4" />
    <filter
       inkscape:collect="always"
       id="filter3214">
      <feGaussianBlur
         inkscape:collect="always"
         stdDeviation="0.20556001"
         id="feGaussianBlur3216" />
    </filter>
    <filter
       inkscape:collect="always"
       id="filter3218">
      <feGaussianBlur
         inkscape:collect="always"
         stdDeviation="0.094488189"
         id="feGaussianBlur3220" />
    </filter>
    <radialGradient
       inkscape:collect="always"
       xlink:href="#linearGradient3165"
       id="radialGradient3224"
       gradientUnits="userSpaceOnUse"
       cx="100"
       cy="48"
       fx="100"
       fy="48"
       r="4"
       gradientTransform="matrix(1,-0.3615819,0.3400361,0.9404124,-16.321733,39.018397)" />
    <radialGradient
       inkscape:collect="always"
       xlink:href="#linearGradient3165"
       id="radialGradient3236"
       gradientUnits="userSpaceOnUse"
       cx="100"
       cy="48"
       fx="100"
       fy="48"
       r="4" />
    <radialGradient
       inkscape:collect="always"
       xlink:href="#linearGradient3165"
       id="radialGradient3238"
       gradientUnits="userSpaceOnUse"
       cx="100"
       cy="48"
       fx="100"
       fy="48"
       r="4" />
    <radialGradient
       inkscape:collect="always"
       xlink:href="#linearGradient3165"
       id="radialGradient3240"
       gradientUnits="userSpaceOnUse"
       gradientTransform="matrix(1.6432736,-0.6589298,0.6821988,1.7013035,-97.072906,32.230412)"
       cx="100"
       cy="48"
       fx="100"
       fy="48"
       r="4" />
    <radialGradient
       inkscape:collect="always"
       xlink:href="#linearGradient3165"
       id="radialGradient3242"
       gradientUnits="userSpaceOnUse"
       gradientTransform="matrix(1.800295,-0.6399454,0.6018126,1.6930198,-108.91651,30.729592)"
       cx="100"
       cy="48"
       fx="100"
       fy="48"
       r="4" />
    <radialGradient
       inkscape:collect="always"
       xlink:href="#linearGradient3165"
       id="radialGradient3252"
       gradientUnits="userSpaceOnUse"
       cx="100"
       cy="48"
       fx="100"
       fy="48"
       r="4" />
    <radialGradient
       inkscape:collect="always"
       xlink:href="#linearGradient3165"
       id="radialGradient3254"
       gradientUnits="userSpaceOnUse"
       cx="100"
       cy="48"
       fx="100"
       fy="48"
       r="4" />
    <radialGradient
       inkscape:collect="always"
       xlink:href="#linearGradient3165"
       id="radialGradient3256"
       gradientUnits="userSpaceOnUse"
       gradientTransform="matrix(1.0207151,-0.2981312,0.4090389,1.400431,-21.705374,10.592434)"
       cx="100"
       cy="48"
       fx="100"
       fy="48"
       r="4" />
    <radialGradient
       inkscape:collect="always"
       xlink:href="#linearGradient3165"
       id="radialGradient3258"
       gradientUnits="userSpaceOnUse"
       gradientTransform="matrix(1.4391726,-0.5300356,0.5007396,1.3596273,-67.952769,35.741451)"
       cx="100"
       cy="48"
       fx="100"
       fy="48"
       r="4" />
    <linearGradient
       inkscape:collect="always"
       xlink:href="#linearGradient3120"
       id="linearGradient3290"
       x1="78.77108"
       y1="63.50742"
       x2="123.5572"
       y2="162.92957"
       gradientUnits="userSpaceOnUse"
       gradientTransform="matrix(1.2057335,0,0,1.1894054,-8.0987148,-7.9680904)" />
    <linearGradient
       inkscape:collect="always"
       xlink:href="#linearGradient3120"
       id="linearGradient3301"
       gradientUnits="userSpaceOnUse"
       x1="78.77108"
       y1="73.016876"
       x2="81.443878"
       y2="235.60899"
       gradientTransform="matrix(1.2057335,0,0,1.1894054,-8.0987148,-7.9680904)" />
    <linearGradient
       inkscape:collect="always"
       xlink:href="#linearGradient3165"
       id="linearGradient3312"
       gradientUnits="userSpaceOnUse"
       gradientTransform="matrix(1.2057335,0,0,1.1894054,-8.0736918,-8.0870309)"
       x1="75.061989"
       y1="115.1302"
       x2="123.5572"
       y2="162.92957" />
    <radialGradient
       inkscape:collect="always"
       xlink:href="#linearGradient3165"
       id="radialGradient3332"
       gradientUnits="userSpaceOnUse"
       gradientTransform="matrix(1,-0.3615819,0.3400361,0.9404124,-16.321733,39.018397)"
       cx="100"
       cy="48"
       fx="100"
       fy="48"
       r="4" />
    <linearGradient
       inkscape:collect="always"
       xlink:href="#linearGradient3044"
       id="linearGradient3334"
       gradientUnits="userSpaceOnUse"
       x1="60"
       y1="72"
       x2="60"
       y2="48" />
    <linearGradient
       inkscape:collect="always"
       xlink:href="#linearGradient3044"
       id="linearGradient3336"
       gradientUnits="userSpaceOnUse"
       gradientTransform="translate(0.4129032,0.6193548)"
       spreadMethod="reflect"
       x1="21.094994"
       y1="21.101994"
       x2="15.126888"
       y2="27.070099" />
    <linearGradient
       inkscape:collect="always"
       xlink:href="#linearGradient3044"
       id="linearGradient3338"
       gradientUnits="userSpaceOnUse"
       gradientTransform="translate(0.4129032,0.6193548)"
       spreadMethod="reflect"
       x1="21.094994"
       y1="21.101994"
       x2="15.189133"
       y2="27.007854" />
  </defs>
  <sodipodi:namedview
     id="base"
     pagecolor="#ffffff"
     bordercolor="#666666"
     borderopacity="1.0"
     gridtolerance="10000"
     guidetolerance="10"
     objecttolerance="10"
     inkscape:pageopacity="0.0"
     inkscape:pageshadow="2"
     inkscape:zoom="2.9444368"
     inkscape:cx="57.73626"
     inkscape:cy="65.581558"
     inkscape:document-units="px"
     inkscape:current-layer="layer1"
     width="128px"
     height="128px"
     gridempspacing="2"
     gridspacingx="4px"
     gridspacingy="4px"
     showgrid="false"
     borderlayer="true"
     inkscape:showpageshadow="false"
     showborder="true"
     inkscape:window-width="986"
     inkscape:window-height="750"
     inkscape:window-x="493"
     inkscape:window-y="407">
    <inkscape:grid
       type="xygrid"
       id="grid3285"
       spacingx="4px"
       spacingy="4px"
       empspacing="2" />
  </sodipodi:namedview>
  <metadata
     id="metadata7">
    <rdf:RDF>
      <cc:Work
         rdf:about="">
        <dc:format>image/svg+xml</dc:format>
        <dc:type
           rdf:resource="http://purl.org/dc/dcmitype/StillImage" />
      </cc:Work>
    </rdf:RDF>
  </metadata>
  <g
     inkscape:label="Layer 1"
     inkscape:groupmode="layer"
     id="layer1">
    <path
       sodipodi:nodetypes="ccccccccc"
       id="path3106"
       d="M 18.083601,8 L 101.9164,8 C 107.50271,8 112,12.497286 112,18.083601 L 112,101.9164 C 112,107.50271 107.50271,112 101.9164,112 L 18.083601,112 C 12.497286,112 8,107.50271 8,101.9164 L 8,18.083601 C 8,12.497286 12.497286,8 18.083601,8 z"
       style="fill:url(#linearGradient3126);fill-opacity:1;stroke:none;stroke-width:0.30000001;stroke-linecap:round;stroke-linejoin:round;stroke-miterlimit:4;stroke-dasharray:none;stroke-opacity:1;filter:url(#filter3116)"
       transform="matrix(1.2057335,0,0,1.1894054,-8.0987148,-7.9680904)" />
    <path
       style="fill:url(#linearGradient3289);fill-opacity:1;stroke:none;stroke-width:3;stroke-linecap:round;stroke-linejoin:round;stroke-miterlimit:4;stroke-opacity:1;filter:url(#filter3319)"
       d="M 18.083601,8 L 101.9164,8 C 107.50271,8 112,12.497286 112,18.083601 L 112,101.9164 C 112,107.50271 107.50271,112 101.9164,112 L 18.083601,112 C 12.497286,112 8,107.50271 8,101.9164 L 8,18.083601 C 8,12.497286 12.497286,8 18.083601,8 z"
       id="rect3287"
       sodipodi:nodetypes="ccccccccc"
       transform="matrix(1.2057335,0,0,1.1894054,-8.0987148,-7.9680904)" />
    <path
       style="fill:#ffffff;fill-opacity:0.65454544;stroke:url(#linearGradient3060);stroke-width:0.3592625;stroke-linecap:round;stroke-linejoin:round;stroke-miterlimit:4;stroke-dasharray:none;stroke-opacity:1"
       d="M 13.705288,1.5471531 L 114.7853,1.5471531 C 121.5209,1.5471531 126.94344,6.8962494 126.94344,13.540643 L 126.94344,113.25183 C 126.94344,119.89622 121.5209,125.24532 114.7853,125.24532 L 13.705288,125.24532 C 6.9696814,125.24532 1.5471531,119.89622 1.5471531,113.25183 L 1.5471531,13.540643 C 1.5471531,6.8962494 6.9696814,1.5471531 13.705288,1.5471531 z"
       id="rect8666"
       sodipodi:nodetypes="ccccccccc" />
    <path
       style="fill:url(#radialGradient9692);fill-opacity:1;stroke:none;stroke-width:3;stroke-linecap:round;stroke-linejoin:round;stroke-miterlimit:4;stroke-opacity:1"
       d="M 112.93747,7.035912 L 15.553121,7.035912 C 10.87633,7.035912 7.111261,10.749994 7.111261,15.363452 L 7.111261,111.42902 C 7.111261,116.04247 10.87633,119.75655 15.553121,119.75655 L 112.93747,119.75655 C 117.61425,119.75655 121.37932,116.04247 121.37932,111.42902 L 121.37932,15.363452 C 121.37932,10.749994 117.61425,7.035912 112.93747,7.035912 z"
       id="rect9641"
       sodipodi:nodetypes="ccccccccc" />
    <path
       style="opacity:1;fill:url(#linearGradient3076);fill-opacity:1;stroke:none;stroke-width:3;stroke-linecap:round;stroke-linejoin:round;stroke-miterlimit:4;stroke-dasharray:none;stroke-opacity:1"
       d="M 15.036296,7.8287007 C 10.225149,7.8287007 6.3700875,11.631557 6.3700875,16.377552 L 6.3700875,66.072397 C 41.313542,74.762946 87.860186,71.279241 121.25388,58.601444 C 121.59393,58.205749 121.88735,57.802209 122.1205,57.41204 L 122.1205,16.377552 C 122.1205,11.631557 118.26544,7.8287007 113.45429,7.8287007 L 15.036296,7.8287007 z"
       id="rect9679"
       sodipodi:nodetypes="cccccccc" />
    <path
       style="opacity:0.8876405;fill:url(#linearGradient6452);fill-opacity:1;stroke:none;stroke-width:3;stroke-linecap:round;stroke-linejoin:round;stroke-miterlimit:4;stroke-dasharray:none;stroke-opacity:1;filter:url(#filter6458)"
       d="M 17.906944,8.299378 C 13.216769,8.299378 8.509435,11.867379 8.509435,17.698118 L 12.77674,17.639205 C 13.229113,15.50937 15.628704,13.368243 17.303345,13.03582 L 17.906944,8.299378 z"
       id="rect6433"
       sodipodi:nodetypes="ccccc"
       transform="matrix(1.2057335,0,0,1.1894054,-8.0987148,-7.9680904)" />
    <path
       sodipodi:nodetypes="ccccc"
       id="path6462"
       d="M 25.397509,16.46919 C 20.707334,16.46919 16.429601,20.123899 16.429601,25.954638 L 20.77674,25.639205 C 21.229113,23.50937 23.628704,21.368243 25.303345,21.03582 L 25.397509,16.46919 z"
       style="opacity:0.8689139;fill:url(#linearGradient6464);fill-opacity:1;stroke:none;stroke-width:3;stroke-linecap:round;stroke-linejoin:round;stroke-miterlimit:4;stroke-dasharray:none;stroke-opacity:1;filter:url(#filter6458)"
       transform="matrix(-1.2057335,0,0,1.1894054,146.0753,-17.483334)" />
    <path
       sodipodi:nodetypes="ccccc"
       id="path6466"
       d="M 26.246568,16.978625 C 21.556393,16.978625 16.769225,20.633334 16.769225,26.464073 L 20.77674,25.639205 C 21.229113,23.50937 23.628704,21.368243 25.303345,21.03582 L 26.246568,16.978625 z"
       style="opacity:0.32642487;fill:url(#linearGradient6470);fill-opacity:1;stroke:none;stroke-width:3;stroke-linecap:round;stroke-linejoin:round;stroke-miterlimit:4;stroke-dasharray:none;stroke-opacity:1;filter:url(#filter6458)"
       transform="matrix(1.2057335,0,0,-1.1894054,-17.744583,144.38031)" />
    <path
       transform="matrix(-1.2057335,0,0,-1.1894054,146.0753,144.78031)"
       style="opacity:0.34799996;fill:url(#linearGradient6472);fill-opacity:1;stroke:none;stroke-width:3;stroke-linecap:round;stroke-linejoin:round;stroke-miterlimit:4;stroke-dasharray:none;stroke-opacity:1;filter:url(#filter6458)"
       d="M 26.246568,16.978625 C 21.556393,16.978625 16.769225,20.633334 16.769225,26.464073 L 20.77674,25.639205 C 21.229113,23.50937 23.628704,21.368243 25.303345,21.03582 L 26.246568,16.978625 z"
       id="path6468"
       sodipodi:nodetypes="ccccc" />
    <path
       sodipodi:nodetypes="ccccccccc"
       style="fill:url(#linearGradient3068);fill-opacity:1;stroke:none;stroke-width:3;stroke-linecap:round;stroke-linejoin:round;stroke-miterlimit:4;stroke-dasharray:none;stroke-opacity:1"
       d="M 15.342315,6.6392951 C 10.531167,6.6392951 6.6761061,10.442151 6.6761061,15.188146 L 6.6761061,16.377552 C 6.6761061,11.631557 10.531167,7.8287007 15.342315,7.8287007 L 113.76031,7.8287007 C 118.57146,7.8287007 122.42652,11.631557 122.42652,16.377552 L 122.42652,15.188146 C 122.42652,10.442151 118.57146,6.6392951 113.76031,6.6392951 L 15.342315,6.6392951 z"
       id="path3207" />
    <path
       sodipodi:nodetypes="cccccccccc"
       style="fill:url(#linearGradient3065);fill-opacity:1;stroke:none;stroke-width:3;stroke-linecap:round;stroke-linejoin:round;stroke-miterlimit:4;stroke-dasharray:none;stroke-opacity:1"
       d="M 117.55169,8.6197665 C 119.47528,10.183591 120.71675,12.529043 120.71675,15.198666 L 120.71675,56.233153 C 120.4836,56.623323 120.19016,57.026865 119.85013,57.422558 C 86.996572,69.895291 41.101014,73.465647 6.6619022,65.302369 L 6.6619022,65.97141 C 41.605348,74.661959 88.15199,71.178253 121.54569,58.500457 C 121.88573,58.104762 122.17916,57.701222 122.41231,57.311051 L 122.41231,16.276565 C 122.41231,12.883178 120.43366,10.003541 117.55169,8.6197665 z"
       id="path3215" />
    <path
       transform="matrix(-1.2057335,0,0,1.1894054,-8.0987148,-6.7786849)"
       style="fill:none;fill-opacity:1;stroke:url(#linearGradient3243);stroke-width:1;stroke-linecap:round;stroke-linejoin:round;stroke-miterlimit:4;stroke-opacity:1;filter:url(#filter3281)"
       d="M -100.38386,12.614708 L -19.616139,12.614708 C -15.737346,12.614708 -12.614708,15.737346 -12.614708,19.616139 L -12.614708,100.38386 C -12.614708,104.26265 -15.737346,107.38529 -19.616139,107.38529 L -100.38386,107.38529 C -104.26265,107.38529 -107.38529,104.26265 -107.38529,100.38386 L -107.38529,19.616139 C -107.38529,15.737346 -104.26265,12.614708 -100.38386,12.614708 z"
       id="rect3235"
       sodipodi:nodetypes="ccccccccc" />
    <path
       sodipodi:nodetypes="ccccc"
       id="path3138"
       d="M 17.906944,8.299378 C 13.216769,8.299378 8.509435,11.867379 8.509435,17.698118 L 12.77674,17.639205 C 13.229113,15.50937 15.628704,13.368243 17.303345,13.03582 L 17.906944,8.299378 z"
       style="opacity:0.8876405;fill:url(#linearGradient3338);fill-opacity:1;stroke:none;stroke-width:3;stroke-linecap:round;stroke-linejoin:round;stroke-miterlimit:4;stroke-dasharray:none;stroke-opacity:1;filter:url(#filter6458)"
       transform="matrix(1.2057335,0,0,1.1894054,-8.0987148,-7.9680904)" />
    <path
       transform="matrix(-1.2057335,0,0,1.1894054,146.0753,-17.483334)"
       style="opacity:0.8689139;fill:url(#linearGradient3336);fill-opacity:1;stroke:none;stroke-width:3;stroke-linecap:round;stroke-linejoin:round;stroke-miterlimit:4;stroke-dasharray:none;stroke-opacity:1;filter:url(#filter6458)"
       d="M 25.397509,16.46919 C 20.707334,16.46919 16.429601,20.123899 16.429601,25.954638 L 20.77674,25.639205 C 21.229113,23.50937 23.628704,21.368243 25.303345,21.03582 L 25.397509,16.46919 z"
       id="path3140"
       sodipodi:nodetypes="ccccc" />
    <path
       transform="matrix(1.2057335,0,0,-1.1894054,-17.744583,144.38031)"
       style="opacity:0.32642487;fill:url(#linearGradient3148);fill-opacity:1;stroke:none;stroke-width:3;stroke-linecap:round;stroke-linejoin:round;stroke-miterlimit:4;stroke-dasharray:none;stroke-opacity:1;filter:url(#filter6458)"
       d="M 26.246568,16.978625 C 21.556393,16.978625 16.769225,20.633334 16.769225,26.464073 L 20.77674,25.639205 C 21.229113,23.50937 23.628704,21.368243 25.303345,21.03582 L 26.246568,16.978625 z"
       id="path3142"
       sodipodi:nodetypes="ccccc" />
    <path
       style="opacity:0.58800001;fill:url(#linearGradient3290);fill-opacity:1;stroke:none;stroke-width:0.30000001;stroke-linecap:round;stroke-linejoin:round;stroke-miterlimit:4;stroke-dasharray:none;stroke-dashoffset:4.15;stroke-opacity:1"
       d="M 121.36691,64.474134 L 80.635733,104.61657 L 59.610756,83.876309 L 43.408713,99.858943 L 64.43369,120.63637 L 64.735123,120.93372 L 93.861122,120.93372 L 95.519006,119.29829 L 121.36691,93.763243 L 121.36691,64.474134 z"
       id="rect3273"
       sodipodi:nodetypes="cccccccccc" />
    <path
       sodipodi:nodetypes="ccccc"
       id="path3144"
       d="M 26.246568,16.978625 C 21.556393,16.978625 16.769225,20.633334 16.769225,26.464073 L 20.77674,25.639205 C 21.229113,23.50937 23.628704,21.368243 25.303345,21.03582 L 26.246568,16.978625 z"
       style="opacity:0.34799996;fill:url(#linearGradient3146);fill-opacity:1;stroke:none;stroke-width:3;stroke-linecap:round;stroke-linejoin:round;stroke-miterlimit:4;stroke-dasharray:none;stroke-opacity:1;filter:url(#filter6458)"
       transform="matrix(-1.2057335,0,0,-1.1894054,146.0753,144.78031)" />
    <path
       style="font-size:43.53722px;font-style:normal;font-weight:bold;text-align:justify;text-anchor:start;fill:url(#linearGradient3334);fill-opacity:1;stroke:none;stroke-width:1px;stroke-linecap:butt;stroke-linejoin:miter;stroke-opacity:1;filter:url(#filter3040);font-family:Liberation Sans"
       d="M 31.900435,71.841721 C 33.076715,71.841725 34.090031,71.678744 34.940387,71.352777 C 35.804875,71.012648 36.548918,70.573308 37.17252,70.034756 C 37.810249,69.496216 38.334623,68.886809 38.745642,68.206533 C 39.170786,67.526273 39.518006,66.838918 39.787304,66.144467 L 45.250715,68.206533 C 44.811345,69.283633 44.237368,70.339466 43.528784,71.374036 C 42.820142,72.408615 41.934376,73.322726 40.871483,74.11637 C 39.808538,74.910019 38.54012,75.554857 37.066228,76.050885 C 35.606463,76.532742 33.884534,76.773671 31.900435,76.773671 C 29.306894,76.773671 27.060592,76.39102 25.161519,75.625717 C 23.262426,74.846244 21.689306,73.769152 20.442153,72.394439 C 19.209161,71.005562 18.287964,69.36158 17.678559,67.462488 C 17.083322,65.563415 16.785705,63.487179 16.785706,61.233775 C 16.785705,58.895367 17.083322,56.783701 17.678559,54.898769 C 18.287964,53.01388 19.202074,51.412415 20.420894,50.094369 C 21.639703,48.762203 23.177393,47.7418 25.033969,47.033158 C 26.904697,46.310402 29.101397,45.94901 31.624075,45.948979 C 33.57983,45.94901 35.287587,46.154508 36.747352,46.565473 C 38.221245,46.976498 39.489662,47.557561 40.552607,48.308663 C 41.629673,49.045648 42.515439,49.924328 43.209908,50.944705 C 43.918492,51.950961 44.47121,53.063483 44.868064,54.282275 L 39.340877,55.791622 C 39.142441,55.153891 38.837738,54.544484 38.426766,53.963399 C 38.015747,53.368187 37.491373,52.843813 36.853644,52.390277 C 36.230042,51.936789 35.493085,51.575396 34.642769,51.306098 C 33.792414,51.022678 32.828701,50.880956 31.751626,50.88093 C 30.235177,50.880956 28.93133,51.12897 27.840079,51.624974 C 26.748802,52.106856 25.848863,52.801297 25.140261,53.708298 C 24.44581,54.615346 23.928523,55.706609 23.588397,56.982093 C 23.262426,58.243444 23.099445,59.660669 23.099454,61.233775 C 23.099445,62.792738 23.262426,64.224136 23.588397,65.527973 C 23.928523,66.81766 24.452896,67.930182 25.161519,68.865543 C 25.870122,69.80092 26.777146,70.530791 27.882595,71.055159 C 29.002191,71.579538 30.341469,71.841725 31.900435,71.841721 M 73.800757,67.717589 C 73.80073,69.078135 73.552715,70.318207 73.056713,71.437811 C 72.560657,72.543252 71.788269,73.492793 70.739546,74.286438 C 69.704947,75.080086 68.372755,75.696579 66.742966,76.135919 C 65.127308,76.561087 63.199881,76.773671 60.960679,76.773671 C 58.976548,76.773671 57.226274,76.596518 55.709852,76.242211 C 54.193411,75.887905 52.889563,75.363531 51.798305,74.669089 C 50.721208,73.97465 49.842528,73.117228 49.162262,72.096821 C 48.496163,71.062251 48.014307,69.878867 47.71669,68.546667 L 53.775337,67.547522 C 53.945397,68.213627 54.193411,68.823034 54.519381,69.375745 C 54.845335,69.92847 55.291761,70.410327 55.858661,70.821317 C 56.439714,71.218146 57.155413,71.529935 58.00576,71.756687 C 58.870256,71.969275 59.911917,72.075567 61.130746,72.075563 C 63.25657,72.075567 64.879294,71.756692 65.998921,71.118935 C 67.132683,70.467016 67.699573,69.4537 67.699594,68.078982 C 67.699573,67.257 67.472817,66.583817 67.019325,66.059434 C 66.565792,65.53507 65.963471,65.102816 65.21236,64.762671 C 64.461212,64.422548 63.596704,64.139103 62.618835,63.912334 C 61.640933,63.685591 60.62053,63.465921 59.557624,63.253324 C 58.707275,63.054925 57.85694,62.849427 57.006615,62.63683 C 56.156269,62.42426 55.341364,62.169159 54.561898,61.871527 C 53.796588,61.573924 53.080889,61.219618 52.414799,60.808607 C 51.748697,60.397627 51.167634,59.894512 50.671609,59.29926 C 50.189748,58.68987 49.807097,57.981257 49.523655,57.173419 C 49.254379,56.365619 49.119743,55.416078 49.119745,54.324792 C 49.119743,52.836727 49.41736,51.561224 50.012598,50.498279 C 50.60783,49.435385 51.429821,48.570878 52.478574,47.904753 C 53.541487,47.224513 54.802818,46.728484 56.26257,46.416664 C 57.722303,46.104905 59.316682,45.94901 61.045712,45.948979 C 63.001469,45.94901 64.673796,46.104905 66.062697,46.416664 C 67.465731,46.714312 68.634942,47.17491 69.570334,47.798461 C 70.519852,48.422069 71.263896,49.208629 71.802467,50.158144 C 72.35516,51.093539 72.759069,52.191889 73.014196,53.453197 L 66.934291,54.282275 C 66.622481,52.992622 65.98473,52.021822 65.021035,51.369873 C 64.071475,50.717975 62.703852,50.392013 60.918162,50.391987 C 59.812711,50.392013 58.891515,50.491218 58.154569,50.689604 C 57.431772,50.873869 56.850709,51.12897 56.411379,51.454907 C 55.986202,51.780894 55.681498,52.163545 55.497268,52.602861 C 55.313019,53.028053 55.2209,53.481565 55.220908,53.963399 C 55.2209,54.700379 55.398053,55.309786 55.752369,55.791622 C 56.106666,56.259327 56.602695,56.656151 57.240457,56.982093 C 57.878198,57.293902 58.636414,57.563175 59.515107,57.789913 C 60.407946,58.002515 61.385832,58.222185 62.448767,58.448923 C 63.38412,58.647353 64.312403,58.859937 65.233619,59.086676 C 66.154797,59.299277 67.033477,59.554377 67.869661,59.851978 C 68.705803,60.149612 69.485277,60.511005 70.208086,60.936157 C 70.930848,61.36134 71.554427,61.885714 72.078826,62.509279 C 72.617346,63.1187 73.035428,63.848572 73.333072,64.698895 C 73.644835,65.549243 73.80073,66.555473 73.800757,67.717589 M 102.88226,67.717589 C 102.88223,69.078135 102.63422,70.318207 102.13821,71.437811 C 101.64216,72.543252 100.86977,73.492793 99.821047,74.286438 C 98.786448,75.080086 97.454256,75.696579 95.824467,76.135919 C 94.208809,76.561087 92.281382,76.773671 90.04218,76.773671 C 88.058049,76.773671 86.307775,76.596518 84.791353,76.242211 C 83.274912,75.887905 81.971064,75.363531 80.879806,74.669089 C 79.802709,73.97465 78.924029,73.117228 78.243763,72.096821 C 77.577664,71.062251 77.095808,69.878867 76.798191,68.546667 L 82.856838,67.547522 C 83.026898,68.213627 83.274912,68.823034 83.600882,69.375745 C 83.926836,69.92847 84.373262,70.410327 84.940162,70.821317 C 85.521215,71.218146 86.236914,71.529935 87.087261,71.756687 C 87.951757,71.969275 88.993418,72.075567 90.212247,72.075563 C 92.338071,72.075567 93.960795,71.756692 95.080422,71.118935 C 96.214184,70.467016 96.781074,69.4537 96.781095,68.078982 C 96.781074,67.257 96.554318,66.583817 96.100826,66.059434 C 95.647293,65.53507 95.044972,65.102816 94.293861,64.762671 C 93.542713,64.422548 92.678205,64.139103 91.700336,63.912334 C 90.722434,63.685591 89.702031,63.465921 88.639125,63.253324 C 87.788776,63.054925 86.938441,62.849427 86.088116,62.63683 C 85.23777,62.42426 84.422865,62.169159 83.643399,61.871527 C 82.878089,61.573924 82.16239,61.219618 81.4963,60.808607 C 80.830198,60.397627 80.249135,59.894512 79.75311,59.29926 C 79.271249,58.68987 78.888598,57.981257 78.605156,57.173419 C 78.33588,56.365619 78.201244,55.416078 78.201246,54.324792 C 78.201244,52.836727 78.498861,51.561224 79.094099,50.498279 C 79.689331,49.435385 80.511322,48.570878 81.560075,47.904753 C 82.622988,47.224513 83.884319,46.728484 85.344071,46.416664 C 86.803804,46.104905 88.398183,45.94901 90.127213,45.948979 C 92.08297,45.94901 93.755297,46.104905 95.144198,46.416664 C 96.547232,46.714312 97.716443,47.17491 98.651835,47.798461 C 99.601353,48.422069 100.3454,49.208629 100.88397,50.158144 C 101.43666,51.093539 101.84057,52.191889 102.0957,53.453197 L 96.015792,54.282275 C 95.703982,52.992622 95.066231,52.021822 94.102536,51.369873 C 93.152976,50.717975 91.785353,50.392013 89.999663,50.391987 C 88.894212,50.392013 87.973016,50.491218 87.23607,50.689604 C 86.513273,50.873869 85.93221,51.12897 85.49288,51.454907 C 85.067703,51.780894 84.762999,52.163545 84.578769,52.602861 C 84.39452,53.028053 84.302401,53.481565 84.302409,53.963399 C 84.302401,54.700379 84.479554,55.309786 84.83387,55.791622 C 85.188167,56.259327 85.684196,56.656151 86.321958,56.982093 C 86.959699,57.293902 87.717915,57.563175 88.596608,57.789913 C 89.489447,58.002515 90.467333,58.222185 91.530268,58.448923 C 92.465621,58.647353 93.393904,58.859937 94.31512,59.086676 C 95.236298,59.299277 96.114978,59.554377 96.951162,59.851978 C 97.787304,60.149612 98.566778,60.511005 99.289587,60.936157 C 100.01235,61.36134 100.63593,61.885714 101.16033,62.509279 C 101.69885,63.1187 102.11693,63.848572 102.41457,64.698895 C 102.72634,65.549243 102.88223,66.555473 102.88226,67.717589"
       id="text2976"
       transform="matrix(1.2057335,0,0,1.1894054,-8.0987148,-7.9680904)" />
    <path
       style="opacity:0.58800001;fill:url(#linearGradient3301);fill-opacity:1;stroke:none;stroke-width:0.30000001;stroke-linecap:round;stroke-linejoin:round;stroke-miterlimit:4;stroke-dasharray:none;stroke-dashoffset:4.15;stroke-opacity:1"
       d="M 121.37321,64.474134 L 80.642024,104.61657 L 59.617046,83.876309 L 43.415002,99.858943 L 44.01787,100.45365 L 59.617046,85.065715 L 80.642024,105.80598 L 121.37321,65.663539 L 121.37321,64.474134 z"
       id="path3292" />
    <path
       style="font-size:43.53722px;font-style:normal;font-weight:bold;text-align:justify;text-anchor:start;fill:#d9d9d9;fill-opacity:1;stroke:none;stroke-width:1px;stroke-linecap:butt;stroke-linejoin:miter;stroke-opacity:1;font-family:Liberation Sans"
       d="M 30.364708,77.480842 C 31.782988,77.480847 33.004777,77.286997 34.03008,76.89929 C 35.072422,76.494739 35.969539,75.972185 36.721437,75.331628 C 37.490369,74.691086 38.122623,73.966254 38.618203,73.15713 C 39.130813,72.348025 39.549468,71.530481 39.874169,70.704498 L 46.461587,73.15713 C 45.931824,74.438238 45.239761,75.694052 44.385397,76.924576 C 43.530964,78.155109 42.462966,79.242357 41.181401,80.186322 C 39.899772,81.130292 38.370398,81.897267 36.593277,82.487244 C 34.833189,83.060368 32.757002,83.346931 30.364708,83.346931 C 27.237588,83.346931 24.529147,82.891804 22.239371,81.981548 C 19.949571,81.054438 18.052808,79.77334 16.549073,78.138248 C 15.062413,76.48631 13.951695,74.530949 13.216916,72.272158 C 12.499218,70.013391 12.140371,67.543905 12.140373,64.863694 C 12.140371,62.082379 12.499218,59.570752 13.216916,57.328803 C 13.951695,55.086906 15.053869,53.182115 16.52344,51.614424 C 17.992999,50.029938 19.847044,48.816266 22.08558,47.973403 C 24.341179,47.113753 26.989814,46.683911 30.031492,46.683874 C 32.389611,46.683911 34.44871,46.928332 36.208798,47.417136 C 37.98592,47.906011 39.515293,48.59713 40.796921,49.490496 C 42.095576,50.367069 43.163574,51.412176 44.000918,52.625818 C 44.855281,53.822665 45.521712,55.145904 46.000212,56.595542 L 39.335898,58.390768 C 39.096637,57.632247 38.729246,56.907415 38.233724,56.216269 C 37.738144,55.508321 37.105889,54.884627 36.336958,54.345189 C 35.58506,53.805809 34.696486,53.375965 33.671231,53.055661 C 32.64593,52.71856 31.483949,52.549995 30.185284,52.549964 C 28.35685,52.549995 26.784758,52.844984 25.469001,53.434934 C 24.153212,54.008087 23.068124,54.834058 22.21374,55.912851 C 21.376417,56.991699 20.752707,58.289652 20.342605,59.806721 C 19.949571,61.306978 19.753059,62.992633 19.75307,64.863694 C 19.753059,66.717933 19.949571,68.420446 20.342605,69.971236 C 20.752707,71.505197 21.38496,72.828436 22.239371,73.94096 C 23.093757,75.053502 24.187386,75.921615 25.520264,76.545302 C 26.870198,77.169 28.48501,77.480847 30.364708,77.480842 M 80.885328,72.575578 C 80.885296,74.193818 80.586256,75.668766 79.98821,77.00043 C 79.390098,78.315247 78.458804,79.444636 77.194324,80.388602 C 75.946873,81.332572 74.340605,82.065832 72.375514,82.588384 C 70.42746,83.094082 68.103497,83.346931 65.403616,83.346931 C 63.011284,83.346931 60.900919,83.136224 59.072519,82.71481 C 57.244095,82.293396 55.672002,81.669702 54.356236,80.84373 C 53.057544,80.01776 51.99809,78.997937 51.177871,77.78426 C 50.374732,76.553737 49.793743,75.146214 49.434896,73.561687 L 56.740009,72.373299 C 56.945057,73.165568 57.244095,73.8904 57.637128,74.547798 C 58.030142,75.205211 58.568412,75.778335 59.251942,76.267168 C 59.952538,76.739159 60.81548,77.110003 61.840772,77.379703 C 62.883124,77.632555 64.139089,77.75898 65.608672,77.758975 C 68.17185,77.75898 70.128422,77.379708 71.478394,76.621157 C 72.845408,75.845761 73.528927,74.640517 73.528952,73.00542 C 73.528927,72.027751 73.255519,71.227063 72.708729,70.603359 C 72.16189,69.979678 71.435651,69.465552 70.530011,69.060982 C 69.624326,68.656438 68.581961,68.319307 67.402911,68.049587 C 66.223822,67.779897 64.993488,67.51862 63.711906,67.265756 C 62.686612,67.029779 61.661335,66.785359 60.636069,66.532495 C 59.610779,66.279664 58.628221,65.976244 57.688393,65.622239 C 56.765633,65.268269 55.90269,64.846856 55.099563,64.357997 C 54.296422,63.869175 53.595814,63.270767 52.99774,62.562771 C 52.416745,61.837959 51.955369,60.995131 51.613614,60.034285 C 51.288939,59.073482 51.126603,57.944094 51.126607,56.646112 C 51.126603,54.8762 51.485451,53.359109 52.203149,52.094837 C 52.92084,50.830625 53.911942,49.802375 55.176458,49.010082 C 56.458049,48.201002 57.978878,47.611022 59.73895,47.240142 C 61.498998,46.869334 63.421395,46.683911 65.506144,46.683874 C 67.864265,46.683911 69.880647,46.869334 71.55529,47.240142 C 73.246976,47.594166 74.656732,48.142003 75.784566,48.883658 C 76.929431,49.625381 77.826551,50.56092 78.475923,51.690279 C 79.142324,52.802842 79.62933,54.109226 79.936946,55.609433 L 72.606201,56.595542 C 72.230241,55.061621 71.461284,53.906947 70.299324,53.131515 C 69.154408,52.356144 67.505419,51.968444 65.352352,51.968412 C 64.019474,51.968444 62.908757,52.086438 62.020196,52.3224 C 61.148696,52.541565 60.448089,52.844984 59.918374,53.232655 C 59.405723,53.620386 59.038331,54.075513 58.816199,54.598038 C 58.594044,55.103764 58.482973,55.643174 58.482983,56.216269 C 58.482973,57.092837 58.696572,57.81767 59.123783,58.390768 C 59.550971,58.947058 60.149049,59.419043 60.91802,59.806721 C 61.686966,60.177587 62.601173,60.497863 63.660642,60.767546 C 64.737168,61.020415 65.916238,61.281692 67.197854,61.551375 C 68.325641,61.787389 69.444902,62.040238 70.555644,62.309923 C 71.666339,62.562791 72.725793,62.866209 73.734008,63.220177 C 74.742172,63.574184 75.68201,64.004028 76.553524,64.509706 C 77.424983,65.01542 78.176853,65.639114 78.809138,66.380786 C 79.458451,67.105634 79.962545,67.973747 80.321425,68.985126 C 80.697328,69.996535 80.885296,71.19335 80.885328,72.575578 M 115.94988,72.575578 C 115.94983,74.193818 115.65081,75.668766 115.05275,77.00043 C 114.45464,78.315247 113.52335,79.444636 112.25887,80.388602 C 111.01141,81.332572 109.40515,82.065832 107.44005,82.588384 C 105.492,83.094082 103.16804,83.346931 100.46815,83.346931 C 98.075823,83.346931 95.965458,83.136224 94.137059,82.71481 C 92.308635,82.293396 90.736541,81.669702 89.420775,80.84373 C 88.122083,80.01776 87.062629,78.997937 86.24241,77.78426 C 85.439272,76.553737 84.858282,75.146214 84.499435,73.561687 L 91.804549,72.373299 C 92.009596,73.165568 92.308635,73.8904 92.701667,74.547798 C 93.094681,75.205211 93.632951,75.778335 94.316482,76.267168 C 95.017077,76.739159 95.88002,77.110003 96.905311,77.379703 C 97.947663,77.632555 99.20363,77.75898 100.67321,77.758975 C 103.23638,77.75898 105.19296,77.379708 106.54294,76.621157 C 107.90994,75.845761 108.59347,74.640517 108.59349,73.00542 C 108.59347,72.027751 108.32006,71.227063 107.77327,70.603359 C 107.22643,69.979678 106.50019,69.465552 105.59455,69.060982 C 104.68887,68.656438 103.6465,68.319307 102.46745,68.049587 C 101.28836,67.779897 100.05803,67.51862 98.776447,67.265756 C 97.751152,67.029779 96.725874,66.785359 95.700608,66.532495 C 94.675318,66.279664 93.69276,65.976244 92.752932,65.622239 C 91.830172,65.268269 90.967229,64.846856 90.164103,64.357997 C 89.360961,63.869175 88.660353,63.270767 88.06228,62.562771 C 87.481284,61.837959 87.019909,60.995131 86.678153,60.034285 C 86.353478,59.073482 86.191143,57.944094 86.191146,56.646112 C 86.191143,54.8762 86.54999,53.359109 87.267688,52.094837 C 87.985379,50.830625 88.976481,49.802375 90.240998,49.010082 C 91.522588,48.201002 93.043417,47.611022 94.803489,47.240142 C 96.563537,46.869334 98.485934,46.683911 100.57069,46.683874 C 102.92881,46.683911 104.94519,46.869334 106.61983,47.240142 C 108.31152,47.594166 109.72127,48.142003 110.8491,48.883658 C 111.99398,49.625381 112.89109,50.56092 113.54047,51.690279 C 114.20686,52.802842 114.69387,54.109226 115.00149,55.609433 L 107.67074,56.595542 C 107.29478,55.061621 106.52583,53.906947 105.36386,53.131515 C 104.21895,52.356144 102.56996,51.968444 100.41689,51.968412 C 99.084014,51.968444 97.973296,52.086438 97.084735,52.3224 C 96.213235,52.541565 95.512628,52.844984 94.982913,53.232655 C 94.470262,53.620386 94.10287,54.075513 93.880739,54.598038 C 93.658583,55.103764 93.547513,55.643174 93.547522,56.216269 C 93.547513,57.092837 93.761112,57.81767 94.188323,58.390768 C 94.615511,58.947058 95.213588,59.419043 95.982559,59.806721 C 96.751505,60.177587 97.665712,60.497863 98.725179,60.767546 C 99.801706,61.020415 100.98078,61.281692 102.26239,61.551375 C 103.39018,61.787389 104.50944,62.040238 105.62018,62.309923 C 106.73088,62.562791 107.79033,62.866209 108.79855,63.220177 C 109.80671,63.574184 110.74655,64.004028 111.61806,64.509706 C 112.48953,65.01542 113.2414,65.639114 113.87369,66.380786 C 114.52299,67.105634 115.02709,67.973747 115.38596,68.985126 C 115.76187,69.996535 115.94983,71.19335 115.94988,72.575578"
       id="text2376" />
    <path
       style="font-size:43.53722px;font-style:normal;font-weight:bold;text-align:justify;text-anchor:start;fill:url(#linearGradient3161);fill-opacity:1;stroke:none;stroke-width:1px;stroke-linecap:butt;stroke-linejoin:miter;stroke-opacity:1;font-family:Liberation Sans"
       d="M 30.285881,46.670221 C 27.244202,46.670258 24.591178,47.111485 22.335577,47.971134 C 20.097036,48.813996 18.228608,50.029203 16.759059,51.613687 C 15.289488,53.181379 14.178078,55.095804 13.443292,57.337702 C 12.725591,59.579649 12.388275,62.064506 12.388275,64.845823 C 12.388275,65.048292 12.421855,65.240461 12.425954,65.440526 C 12.47522,62.902454 12.778801,60.602828 13.443292,58.527107 C 14.178078,56.285209 15.289488,54.370784 16.759059,52.803093 C 18.228608,51.218609 20.097036,50.003402 22.335577,49.160539 C 24.591178,48.300891 27.244202,47.859664 30.285881,47.859627 C 32.643995,47.859665 34.705184,48.114201 36.465265,48.603005 C 38.242408,49.091882 39.742811,49.7911 41.024445,50.684464 C 42.323093,51.56104 43.389829,52.593012 44.227175,53.806654 C 44.867938,54.704288 45.418029,55.666001 45.847379,56.705829 L 46.26185,56.594322 C 45.783343,55.144686 45.081533,53.814094 44.227175,52.617248 C 43.389829,51.403606 42.323093,50.371634 41.024445,49.495059 C 39.742811,48.601694 38.242408,47.902476 36.465265,47.4136 C 34.705184,46.924796 32.643995,46.670259 30.285881,46.670221 z M 65.741981,46.670221 C 63.657232,46.670258 61.737113,46.856947 59.977068,47.227755 C 58.217,47.598636 56.699475,48.20278 55.417888,49.011863 C 54.153363,49.804156 53.158923,50.832671 52.441234,52.096884 C 51.723533,53.361156 51.386205,54.86158 51.386217,56.631491 C 51.386217,56.955987 51.365925,57.294463 51.386217,57.597883 C 51.416446,55.927295 51.755172,54.494833 52.441234,53.286289 C 53.158923,52.022076 54.153363,50.993562 55.417888,50.201269 C 56.699475,49.392185 58.217,48.788041 59.977068,48.417161 C 61.737113,48.046352 63.657232,47.859664 65.741981,47.859627 C 68.100095,47.859665 70.133685,48.046352 71.808328,48.417161 C 73.500009,48.771185 74.900552,49.348107 76.028395,50.089762 C 77.173251,50.831484 78.054245,51.748073 78.703616,52.877431 C 79.197859,53.702581 79.612462,54.626718 79.90935,55.6651 L 80.173105,55.627931 C 79.865486,54.127725 79.370014,52.800587 78.703616,51.688025 C 78.054245,50.558667 77.173251,49.642078 76.028395,48.900356 C 74.900552,48.158701 73.500009,47.58178 71.808328,47.227755 C 70.133685,46.856947 68.100095,46.670259 65.741981,46.670221 z M 100.82129,46.670221 C 98.736543,46.670258 96.816436,46.856947 95.05638,47.227755 C 93.29631,47.598636 91.778797,48.20278 90.4972,49.011863 C 89.232675,49.804156 88.238234,50.832671 87.520545,52.096884 C 86.802845,53.361156 86.42785,54.86158 86.42785,56.631491 C 86.42785,56.868752 86.454677,57.111707 86.465529,57.337702 C 86.527636,55.780907 86.871523,54.429584 87.520545,53.286289 C 88.238234,52.022076 89.232675,50.993562 90.4972,50.201269 C 91.778797,49.392185 93.29631,48.788041 95.05638,48.417161 C 96.816436,48.046352 98.736543,47.859664 100.82129,47.859627 C 103.17942,47.859665 105.17532,48.046352 106.84996,48.417161 C 108.54164,48.771185 109.97986,49.348107 111.10771,50.089762 C 112.25256,50.831484 113.13356,51.748073 113.78292,52.877431 C 114.27717,53.702581 114.69177,54.626718 114.98866,55.6651 L 115.25241,55.627931 C 114.94479,54.127725 114.44933,52.800587 113.78292,51.688025 C 113.13356,50.558667 112.25256,49.642078 111.10771,48.900356 C 109.97986,48.158701 108.54164,47.58178 106.84996,47.227755 C 105.17532,46.856947 103.17942,46.670259 100.82129,46.670221 z"
       id="path3150"
       sodipodi:nodetypes="ccccsccccssccccccsccsssscsssscsccccscccsssscsssscsccccscc" />
    <path
       style="font-size:43.53722px;font-style:normal;font-weight:bold;text-align:justify;text-anchor:start;fill:url(#linearGradient3184);fill-opacity:1;stroke:none;stroke-width:1px;stroke-linecap:butt;stroke-linejoin:miter;stroke-opacity:1;font-family:Liberation Sans"
       d="M 30.032606,46.670221 C 26.990929,46.670258 24.3379,47.111485 22.082301,47.971134 C 19.843765,48.813996 17.975342,50.029203 16.505784,51.613687 C 15.036212,53.181379 13.962477,55.095804 13.227697,57.337702 C 12.509999,59.579649 12.134999,62.064506 12.135,64.845823 C 12.135,65.726638 12.208204,66.575179 12.285717,67.410479 C 14.833885,67.928389 17.44418,68.348908 20.085306,68.748559 C 19.868448,67.538656 19.746185,66.223156 19.746193,64.845823 C 19.746181,62.974762 19.956027,61.291106 20.349059,59.79085 C 20.759161,58.273782 21.358016,57.00413 22.195339,55.925282 C 23.049724,54.846491 24.157638,54.008119 25.473426,53.434965 C 26.789185,52.845015 28.354891,52.54294 30.183323,52.54291 C 31.481989,52.542942 32.662184,52.726173 33.687486,53.063276 C 34.712741,53.38358 35.573129,53.787637 36.325028,54.327019 C 37.09396,54.866458 37.751087,55.514686 38.246666,56.222634 C 38.742189,56.913779 39.1001,57.61991 39.339361,58.378431 L 46.008576,56.594322 C 45.530075,55.144686 44.865942,53.814094 44.011579,52.617248 C 43.174234,51.403606 42.107503,50.371634 40.80885,49.495059 C 39.527221,48.601694 37.989112,47.902476 36.211991,47.4136 C 34.451903,46.924796 32.390726,46.670259 30.032606,46.670221 z M 65.488707,46.670221 C 63.403958,46.670258 61.483843,46.856947 59.723794,47.227755 C 57.963722,47.598636 56.446205,48.20278 55.164614,49.011863 C 53.900097,49.804156 52.905653,50.832671 52.187959,52.096884 C 51.470261,53.361156 51.132943,54.86158 51.132943,56.631491 C 51.132939,57.929473 51.298096,59.090229 51.622772,60.051032 C 51.964527,61.011879 52.398227,61.853708 52.979221,62.578519 C 53.577296,63.286515 54.286114,63.873808 55.089255,64.362627 C 55.892383,64.851486 56.766359,65.272397 57.689118,65.62637 C 58.628946,65.980376 59.602802,66.265594 60.628094,66.518425 C 61.653358,66.771289 62.69249,67.025827 63.717786,67.261803 C 64.999367,67.514667 66.231255,67.77266 67.410345,68.04235 C 68.589393,68.31207 69.632035,68.641365 70.537715,69.045911 C 70.980086,69.243529 71.349008,69.502225 71.70577,69.75212 C 74.558754,69.466423 77.400097,69.101971 80.221263,68.71139 C 79.871182,67.817434 79.416478,67.027657 78.827134,66.369749 C 78.194847,65.628077 77.437843,65.017017 76.566383,64.511303 C 75.694868,64.005625 74.748612,63.564398 73.740445,63.210391 C 72.73223,62.856423 71.648409,62.571203 70.537715,62.318337 C 69.426975,62.048652 68.312053,61.773806 67.184269,61.53779 C 65.902652,61.268105 64.718954,61.010112 63.642427,60.757242 C 62.582957,60.487558 61.698474,60.161716 60.929527,59.79085 C 60.160556,59.403173 59.548114,58.934722 59.120926,58.378431 C 58.693716,57.805333 58.480369,57.099203 58.480381,56.222634 C 58.480371,55.649538 58.597337,55.09293 58.819494,54.587201 C 59.041626,54.064677 59.399536,53.636852 59.912189,53.24912 C 60.441904,52.861449 61.150724,52.53906 62.022223,52.319897 C 62.910783,52.083935 64.00511,51.985407 65.33799,51.985377 C 67.491056,51.985407 69.166725,52.362242 70.31164,53.137614 C 71.473599,53.913045 72.234114,55.060402 72.61007,56.594322 L 79.919829,55.627931 C 79.612213,54.127725 79.154421,52.800587 78.488021,51.688025 C 77.838647,50.558667 76.919984,49.642078 75.77512,48.900356 C 74.647287,48.158701 73.246737,47.58178 71.555053,47.227755 C 69.880408,46.856947 67.846828,46.670259 65.488707,46.670221 z M 100.56801,46.670221 C 98.483266,46.670258 96.563151,46.856947 94.803102,47.227755 C 93.04303,47.598636 91.525513,48.20278 90.243922,49.011863 C 88.979406,49.804156 87.984957,50.832671 87.267268,52.096884 C 86.549569,53.361156 86.174567,54.86158 86.174572,56.631491 C 86.174569,57.929473 86.339726,59.090229 86.6644,60.051032 C 87.006156,61.011879 87.477531,61.853708 88.05853,62.578519 C 88.656604,63.286515 89.365422,63.873808 90.168563,64.362627 C 90.971691,64.851486 91.845663,65.272397 92.768426,65.62637 C 93.367492,65.852021 93.980917,66.036529 94.614706,66.221073 C 99.181047,65.271254 103.66655,64.17628 107.99081,62.950208 C 107.22242,62.706635 106.44194,62.506141 105.61702,62.318337 C 104.50628,62.048652 103.39137,61.773806 102.26357,61.53779 C 100.98196,61.268105 99.798259,61.010112 98.721731,60.757242 C 97.662265,60.487558 96.740099,60.161716 95.971156,59.79085 C 95.202185,59.403173 94.627423,58.934722 94.200235,58.378431 C 93.773025,57.805333 93.559683,57.099203 93.559689,56.222634 C 93.55968,55.649538 93.67665,55.09293 93.898802,54.587201 C 94.120934,54.064677 94.478845,53.636852 94.991498,53.24912 C 95.521213,52.861449 96.230032,52.53906 97.101531,52.319897 C 97.990091,52.083935 99.084415,51.985407 100.41729,51.985377 C 102.57036,51.985407 104.20835,52.362242 105.35327,53.137614 C 106.51523,53.913045 107.31342,55.060402 107.68938,56.594322 L 114.99914,55.627931 C 114.69152,54.127725 114.19604,52.800587 113.52965,51.688025 C 112.88027,50.558667 111.9993,49.642078 110.85443,48.900356 C 109.7266,48.158701 108.32605,47.58178 106.63436,47.227755 C 104.95972,46.856947 102.92614,46.670259 100.56801,46.670221 z"
       id="path3173" />
    <path
       d="M 96.535898,50 A 4,4 0 1 1 98,51.464102 L 100,48 z"
       sodipodi:ry="4"
       sodipodi:rx="4"
       sodipodi:cy="48"
       sodipodi:cx="100"
       id="path3222"
       style="opacity:0.41999996;fill:url(#radialGradient3224);fill-opacity:1;stroke:none;stroke-width:0.30000001;stroke-linecap:round;stroke-linejoin:round;stroke-miterlimit:4;stroke-dasharray:none;stroke-dashoffset:4.15;stroke-opacity:1;filter:url(#filter3218)"
       sodipodi:type="arc"
       transform="matrix(2.0020153,0,0,1.974904,-87.726894,-45.672019)"
       sodipodi:start="2.6179939"
       sodipodi:end="8.3775804" />
    <g
       id="g3264"
       style="opacity:0.58800001"
       transform="matrix(1.2057335,0,0,1.1894054,-8.0987148,-7.9680904)">
      <path
         d="M 104,48 A 4,4 0 1 1 96,48 A 4,4 0 1 1 104,48 z"
         sodipodi:ry="4"
         sodipodi:rx="4"
         sodipodi:cy="48"
         sodipodi:cx="100"
         id="path3163"
         style="opacity:1;fill:url(#radialGradient3171);fill-opacity:1;stroke:none;stroke-width:0.30000001;stroke-linecap:round;stroke-linejoin:round;stroke-miterlimit:4;stroke-dasharray:none;stroke-dashoffset:4.15;stroke-opacity:1;filter:url(#filter3218)"
         sodipodi:type="arc" />
      <path
         transform="matrix(0.4596623,0,0,0.4596623,54.033772,25.93621)"
         sodipodi:type="arc"
         style="opacity:1;fill:url(#radialGradient3188);fill-opacity:1;stroke:none;stroke-width:0.30000001;stroke-linecap:round;stroke-linejoin:round;stroke-miterlimit:4;stroke-dasharray:none;stroke-dashoffset:4.15;stroke-opacity:1;filter:url(#filter3214)"
         id="path3186"
         sodipodi:cx="100"
         sodipodi:cy="48"
         sodipodi:rx="4"
         sodipodi:ry="4"
         d="M 104,48 A 4,4 0 1 1 96,48 A 4,4 0 1 1 104,48 z" />
      <path
         d="M 102.82843,45.171573 A 4,4 0 0 1 103.8637,46.964724 L 100,48 z"
         sodipodi:ry="4"
         sodipodi:rx="4"
         sodipodi:cy="48"
         sodipodi:cx="100"
         id="path3226"
         style="opacity:0.41999996;fill:url(#radialGradient3332);fill-opacity:1;stroke:none;stroke-width:0.30000001;stroke-linecap:round;stroke-linejoin:round;stroke-miterlimit:4;stroke-dasharray:none;stroke-dashoffset:4.15;stroke-opacity:1;filter:url(#filter3218)"
         sodipodi:type="arc"
         transform="matrix(1.6604128,0,0,1.6604128,-66.041277,-31.699813)"
         sodipodi:start="5.4977871"
         sodipodi:end="6.0213859" />
      <path
         transform="matrix(1.3351758,0,0,1.3351758,-63.437082,-16.415507)"
         sodipodi:type="arc"
         style="opacity:0.76799999;fill:url(#radialGradient3236);fill-opacity:1;stroke:none;stroke-width:0.30000001;stroke-linecap:round;stroke-linejoin:round;stroke-miterlimit:4;stroke-dasharray:none;stroke-dashoffset:4.15;stroke-opacity:1;filter:url(#filter3218)"
         id="path3228"
         sodipodi:cx="100"
         sodipodi:cy="48"
         sodipodi:rx="4"
         sodipodi:ry="4"
         d="M 104,48 A 4,4 0 1 1 96,48 A 4,4 0 1 1 104,48 z" />
      <path
         d="M 104,48 A 4,4 0 1 1 96,48 A 4,4 0 1 1 104,48 z"
         sodipodi:ry="4"
         sodipodi:rx="4"
         sodipodi:cy="48"
         sodipodi:cx="100"
         id="path3230"
         style="opacity:1;fill:url(#radialGradient3238);fill-opacity:1;stroke:none;stroke-width:0.30000001;stroke-linecap:round;stroke-linejoin:round;stroke-miterlimit:4;stroke-dasharray:none;stroke-dashoffset:4.15;stroke-opacity:1;filter:url(#filter3214)"
         sodipodi:type="arc"
         transform="matrix(0.3418715,0,0,0.3418715,35.893346,31.263098)" />
      <path
         d="M 104,48 A 4,4 0 1 1 96,48 A 4,4 0 1 1 104,48 z"
         sodipodi:ry="4"
         sodipodi:rx="4"
         sodipodi:cy="48"
         sodipodi:cx="100"
         id="path3244"
         style="opacity:0.70800003;fill:url(#radialGradient3252);fill-opacity:1;stroke:none;stroke-width:0.30000001;stroke-linecap:round;stroke-linejoin:round;stroke-miterlimit:4;stroke-dasharray:none;stroke-dashoffset:4.15;stroke-opacity:1;filter:url(#filter3218)"
         sodipodi:type="arc"
         transform="matrix(1.1861912,0,0,1.1861912,-78.808602,-9.4850152)" />
      <path
         transform="matrix(0.3651347,0,0,0.3651347,3.2970392,29.925692)"
         sodipodi:type="arc"
         style="opacity:1;fill:url(#radialGradient3254);fill-opacity:1;stroke:none;stroke-width:0.30000001;stroke-linecap:round;stroke-linejoin:round;stroke-miterlimit:4;stroke-dasharray:none;stroke-dashoffset:4.15;stroke-opacity:1;filter:url(#filter3214)"
         id="path3246"
         sodipodi:cx="100"
         sodipodi:cy="48"
         sodipodi:rx="4"
         sodipodi:ry="4"
         d="M 104,48 A 4,4 0 1 1 96,48 A 4,4 0 1 1 104,48 z" />
    </g>
    <path
       style="opacity:0.58800001;fill:url(#linearGradient3312);fill-opacity:1;stroke:none;stroke-width:0.30000001;stroke-linecap:round;stroke-linejoin:round;stroke-miterlimit:4;stroke-dasharray:none;stroke-dashoffset:4.15;stroke-opacity:1"
       d="M 121.41017,92.454897 L 95.56225,117.98995 L 93.904367,119.62538 L 64.778368,119.62538 L 64.476935,119.32803 L 44.054824,99.145305 L 43.451957,99.740008 L 64.476935,120.51743 L 64.778368,120.81479 L 93.904367,120.81479 L 95.56225,119.17935 L 121.41017,93.644302 L 121.41017,92.454897 z"
       id="path3303" />
  </g>
</svg>
