<?xml version="1.0" encoding="UTF-8" standalone="no"?>
<!-- Generator: Adobe Illustrator 12.0.0, SVG Export Plug-In . SVG Version: 6.00 Build 51448)  -->

<svg
   xmlns:ns="http://ns.adobe.com/SaveForWeb/1.0/"
   xmlns:dc="http://purl.org/dc/elements/1.1/"
   xmlns:cc="http://creativecommons.org/ns#"
   xmlns:rdf="http://www.w3.org/1999/02/22-rdf-syntax-ns#"
   xmlns:svg="http://www.w3.org/2000/svg"
   xmlns="http://www.w3.org/2000/svg"
   xmlns:xlink="http://www.w3.org/1999/xlink"
   xmlns:sodipodi="http://sodipodi.sourceforge.net/DTD/sodipodi-0.dtd"
   xmlns:inkscape="http://www.inkscape.org/namespaces/inkscape"
   version="1.1"
   id="Layer_1"
   width="128"
   height="128"
   viewBox="0 0 128 128"
   overflow="visible"
   enable-background="new 0 0 128 128"
   xml:space="preserve"
   sodipodi:version="0.32"
   inkscape:version="0.46+devel"
   sodipodi:docname="quickopen-file.svgz"
   inkscape:output_extension="org.inkscape.output.svgz.inkscape"
   inkscape:export-filename="/home/pinheiro/pics/oxygen-icons/scalable/actions/small/16x16/quickopen-file.png"
   inkscape:export-xdpi="90"
   inkscape:export-ydpi="90"><defs
   id="defs105"><linearGradient
     y2="95.293"
     x2="87.293"
     y1="103"
     x1="95"
     gradientUnits="userSpaceOnUse"
     id="linearGradient4175">
	<stop
   id="stop4177"
   style="stop-color:#000000;stop-opacity:1"
   offset="0" />
	<stop
   id="stop4179"
   style="stop-color:#393B38"
   offset="1" />
</linearGradient><linearGradient
     inkscape:collect="always"
     xlink:href="#linearGradient4175"
     id="linearGradient2295"
     gradientUnits="userSpaceOnUse"
     x1="85.219681"
     y1="93.219681"
     x2="61.336319"
     y2="69.336319" /><linearGradient
     inkscape:collect="always"
     xlink:href="#XMLID_12_"
     id="linearGradient2297"
     gradientUnits="userSpaceOnUse"
     x1="96"
     y1="104"
     x2="88.0002"
     y2="96.0002" /><radialGradient
     inkscape:collect="always"
     xlink:href="#XMLID_8_"
     id="radialGradient2272"
     gradientUnits="userSpaceOnUse"
     gradientTransform="matrix(0.9787234,0,0,0.9818182,1.3617045,1.1636364)"
     cx="102"
     cy="112.3047"
     r="139.55859" /><radialGradient
     inkscape:collect="always"
     xlink:href="#XMLID_7_"
     id="radialGradient2275"
     gradientUnits="userSpaceOnUse"
     gradientTransform="translate(2.4e-6,0)"
     cx="102"
     cy="112.3047"
     r="139.5585" /><filter
     inkscape:collect="always"
     id="filter3241"><feGaussianBlur
       inkscape:collect="always"
       stdDeviation="1.0394514"
       id="feGaussianBlur3243" /></filter><filter
     inkscape:collect="always"
     id="filter3772"><feGaussianBlur
       inkscape:collect="always"
       stdDeviation="0.50063244"
       id="feGaussianBlur3774" /></filter><filter
     inkscape:collect="always"
     id="filter4171"><feGaussianBlur
       inkscape:collect="always"
       stdDeviation="0.4901192"
       id="feGaussianBlur4173" /></filter><filter
     inkscape:collect="always"
     id="filter4209"><feGaussianBlur
       inkscape:collect="always"
       stdDeviation="0.90565481"
       id="feGaussianBlur4211" /></filter><filter
     inkscape:collect="always"
     id="filter4293"
     x="-0.12357724"
     width="1.2471545"
     y="-0.12357724"
     height="1.2471545"><feGaussianBlur
       inkscape:collect="always"
       stdDeviation="1.7720846"
       id="feGaussianBlur4295" /></filter><linearGradient
     inkscape:collect="always"
     xlink:href="#linearGradient3895"
     id="linearGradient4024"
     gradientUnits="userSpaceOnUse"
     x1="61"
     y1="44"
     x2="105"
     y2="72" /><linearGradient
     id="linearGradient3895"><stop
       id="stop3897"
       offset="0"
       style="stop-color:#382a23;stop-opacity:1;" /><stop
       id="stop3899"
       offset="1"
       style="stop-color:#753919;stop-opacity:0;" /></linearGradient><filter
     inkscape:collect="always"
     id="filter3891"><feGaussianBlur
       inkscape:collect="always"
       stdDeviation="1.5750545"
       id="feGaussianBlur3893" /></filter><radialGradient
     gradientUnits="userSpaceOnUse"
     gradientTransform="matrix(0.9792,0,0,0.9725,133.0002,20.8762)"
     r="55.147999"
     cy="-0.2148"
     cx="48"
     id="XMLID_4_-3"><stop
       id="stop3082-9"
       style="stop-color:#fff718;stop-opacity:1;"
       offset="0" /><stop
       id="stop3090-0"
       style="stop-color:#e77100;stop-opacity:1;"
       offset="1" /></radialGradient><radialGradient
     inkscape:collect="always"
     xlink:href="#linearGradient3260-7"
     id="radialGradient4028"
     gradientUnits="userSpaceOnUse"
     gradientTransform="matrix(3.49562,-2.4342373,0.6597955,0.94748129,-257.69134,225.62669)"
     cx="92.609375"
     cy="2.3848805"
     fx="92.609375"
     fy="2.3848805"
     r="1.515625" /><linearGradient
     inkscape:collect="always"
     id="linearGradient3260-7"><stop
       style="stop-color:#ffffff;stop-opacity:1;"
       offset="0"
       id="stop3262-2" /><stop
       style="stop-color:#ffffff;stop-opacity:0;"
       offset="1"
       id="stop3264-7" /></linearGradient><filter
     inkscape:collect="always"
     id="filter3957"
     x="-0.13259934"
     width="1.2651987"
     y="-0.14784063"
     height="1.2956814"><feGaussianBlur
       inkscape:collect="always"
       stdDeviation="0.16747573"
       id="feGaussianBlur3959" /></filter><linearGradient
     inkscape:collect="always"
     id="linearGradient3875"><stop
       style="stop-color:#753919;stop-opacity:1;"
       offset="0"
       id="stop3877" /><stop
       style="stop-color:#753919;stop-opacity:0;"
       offset="1"
       id="stop3879" /></linearGradient><radialGradient
     inkscape:collect="always"
     xlink:href="#linearGradient3344"
     id="radialGradient4032"
     gradientUnits="userSpaceOnUse"
     gradientTransform="matrix(1.6002822,-3.1923724,1.0321559,0.51740226,-58.053329,296.8628)"
     cx="92.504089"
     cy="1.9914972"
     fx="92.504089"
     fy="1.9914972"
     r="1.515625" /><linearGradient
     id="linearGradient3344"><stop
       style="stop-color:#fdff63;stop-opacity:1;"
       offset="0"
       id="stop3346" /><stop
       style="stop-color:#ffffff;stop-opacity:0;"
       offset="1"
       id="stop3348" /></linearGradient><radialGradient
     inkscape:collect="always"
     xlink:href="#linearGradient3260-7"
     id="radialGradient4034"
     gradientUnits="userSpaceOnUse"
     gradientTransform="matrix(3.49562,-2.4342373,0.6597955,0.94748129,-265.30336,257.27635)"
     cx="92.609375"
     cy="2.3848805"
     fx="92.609375"
     fy="2.3848805"
     r="1.515625" /><linearGradient
     inkscape:collect="always"
     id="linearGradient4056"><stop
       style="stop-color:#31170a;stop-opacity:1"
       offset="0"
       id="stop4058" /><stop
       style="stop-color:#542912;stop-opacity:0;"
       offset="1"
       id="stop4060" /></linearGradient><radialGradient
     inkscape:collect="always"
     xlink:href="#XMLID_2_"
     id="radialGradient4036"
     gradientUnits="userSpaceOnUse"
     gradientTransform="matrix(1.8469014,0,0,3.7015753,-79.21141,-136.18737)"
     cx="77"
     cy="40.033596"
     fx="77"
     fy="40.033596"
     r="19.958006" /><linearGradient
     id="XMLID_2_"
     gradientUnits="userSpaceOnUse"
     x1="28"
     y1="57.5"
     x2="28"
     y2="0"><stop
       offset="0"
       style="stop-color:#FFEA00"
       id="stop12" /><stop
       offset="1"
       style="stop-color:#FFCC00"
       id="stop14" /></linearGradient><radialGradient
     inkscape:collect="always"
     xlink:href="#linearGradient3344"
     id="radialGradient4038"
     gradientUnits="userSpaceOnUse"
     gradientTransform="matrix(3.49562,-2.4342373,0.6597955,0.94748129,-232.69134,225.62669)"
     cx="92.609375"
     cy="2.3848805"
     fx="92.609375"
     fy="2.3848805"
     r="1.515625" /><radialGradient
     inkscape:collect="always"
     xlink:href="#linearGradient3919"
     id="radialGradient4040"
     gradientUnits="userSpaceOnUse"
     gradientTransform="matrix(1.8469014,0,0,3.7015753,-79.21141,-136.18737)"
     cx="77"
     cy="43.275459"
     fx="77"
     fy="43.275459"
     r="19.958006" /><linearGradient
     y2="0"
     x2="28"
     y1="57.5"
     x1="28"
     gradientUnits="userSpaceOnUse"
     id="linearGradient3919"><stop
       id="stop3921"
       style="stop-color:#FFEA00"
       offset="0" /><stop
       id="stop3923"
       style="stop-color:#dea200;stop-opacity:1"
       offset="1" /></linearGradient><radialGradient
     inkscape:collect="always"
     xlink:href="#XMLID_4_-3"
     id="radialGradient4042"
     gradientUnits="userSpaceOnUse"
     gradientTransform="matrix(1.631111,0.28444492,-0.80286938,4.6039467,-3.158749,-229.19883)"
     cx="54.0625"
     cy="56"
     fx="59.98452"
     fy="46.739941"
     r="14.0625" /><linearGradient
     inkscape:collect="always"
     xlink:href="#linearGradient18668"
     id="linearGradient4044"
     gradientUnits="userSpaceOnUse"
     gradientTransform="translate(67.3,-12)"
     x1="-24.299999"
     y1="88"
     x2="-20.055338"
     y2="58.741943" /><linearGradient
     y2="0"
     x2="28"
     y1="57.5"
     x1="28"
     gradientUnits="userSpaceOnUse"
     id="linearGradient18668"><stop
       id="stop18670"
       style="stop-color:#fffccf;stop-opacity:1;"
       offset="0" /><stop
       id="stop18672"
       style="stop-color:white;stop-opacity:0;"
       offset="1" /></linearGradient><linearGradient
     inkscape:collect="always"
     xlink:href="#linearGradient3825"
     id="linearGradient4046"
     gradientUnits="userSpaceOnUse"
     gradientTransform="translate(67.3,-12)"
     x1="-26.928885"
     y1="43.368244"
     x2="-19.069578"
     y2="14.036914" /><linearGradient
     id="linearGradient3825"><stop
       id="stop3827"
       offset="0"
       style="stop-color:#ffffff;stop-opacity:0;" /><stop
       style="stop-color:#ffffff;stop-opacity:0.18705036;"
       offset="0.5"
       id="stop3833" /><stop
       id="stop3829"
       offset="1"
       style="stop-color:#ffffff;stop-opacity:1;" /></linearGradient><linearGradient
     inkscape:collect="always"
     xlink:href="#linearGradient3260-7"
     id="linearGradient4048"
     gradientUnits="userSpaceOnUse"
     gradientTransform="translate(67.3,-12)"
     x1="-20"
     y1="56"
     x2="-27.925625"
     y2="42.272415" /><linearGradient
     inkscape:collect="always"
     xlink:href="#linearGradient3903"
     id="linearGradient4050"
     gradientUnits="userSpaceOnUse"
     gradientTransform="translate(-25,0)"
     x1="55.450985"
     y1="79.965019"
     x2="66.028702"
     y2="40.488441" /><linearGradient
     inkscape:collect="always"
     id="linearGradient3903"><stop
       style="stop-color:#ffeb4a;stop-opacity:1;"
       offset="0"
       id="stop3905" /><stop
       style="stop-color:#ffeb4a;stop-opacity:0;"
       offset="1"
       id="stop3907" /></linearGradient><filter
     inkscape:collect="always"
     id="filter3911"><feGaussianBlur
       inkscape:collect="always"
       stdDeviation="0.43658741"
       id="feGaussianBlur3913" /></filter><linearGradient
     gradientTransform="matrix(0,1,-1,0,-39.9985,140.0029)"
     y2="-383.9975"
     x2="-23.516129"
     y1="-383.9971"
     x1="-84.002403"
     gradientUnits="userSpaceOnUse"
     id="linearGradient3711"><stop
       id="stop3713"
       style="stop-color:white;stop-opacity:1;"
       offset="0" /><stop
       id="stop3715"
       style="stop-color:white;stop-opacity:0"
       offset="1" /></linearGradient><filter
     inkscape:collect="always"
     id="filter3991"
     x="-0.16220789"
     width="1.3244158"
     y="-0.14204141"
     height="1.2840828"><feGaussianBlur
       inkscape:collect="always"
       stdDeviation="0.17107863"
       id="feGaussianBlur3993" /></filter><radialGradient
     r="1.3515625"
     fy="2.3514786"
     fx="67.273438"
     cy="2.3514786"
     cx="67.273438"
     gradientTransform="matrix(2.1582105,2.7612836,-0.9564263,0.74753972,-100.66778,-185.24544)"
     gradientUnits="userSpaceOnUse"
     id="radialGradient4693"
     xlink:href="#linearGradient3711"
     inkscape:collect="always" /><radialGradient
     inkscape:collect="always"
     xlink:href="#linearGradient4056"
     id="radialGradient5608"
     gradientUnits="userSpaceOnUse"
     gradientTransform="matrix(0.25568275,0.1196198,-0.40782751,0.87171573,60.011076,12.507468)"
     cx="47.98196"
     cy="64.88855"
     fx="45.620869"
     fy="43.625381"
     r="22.407845" /><linearGradient
     inkscape:collect="always"
     xlink:href="#linearGradient3875"
     id="linearGradient5612"
     gradientUnits="userSpaceOnUse"
     x1="37.013638"
     y1="55.986382"
     x2="82.901695"
     y2="55.986382" /><radialGradient
     inkscape:collect="always"
     xlink:href="#XMLID_4_-3"
     id="radialGradient5616"
     gradientUnits="userSpaceOnUse"
     gradientTransform="matrix(1,0,0,1.8330946,0,-46.683121)"
     cx="59.940041"
     cy="56.035801"
     fx="59.940041"
     fy="56.035801"
     r="24.090857" /></defs><sodipodi:namedview
   inkscape:window-height="687"
   inkscape:window-width="1022"
   inkscape:pageshadow="2"
   inkscape:pageopacity="0.0"
   guidetolerance="10.0"
   gridtolerance="10.0"
   objecttolerance="10.0"
   borderopacity="1.0"
   bordercolor="#666666"
   pagecolor="#ffffff"
   id="base"
   inkscape:zoom="1.2761068"
   inkscape:cx="234.90865"
   inkscape:cy="-3.769099"
   inkscape:window-x="404"
   inkscape:window-y="248"
   inkscape:current-layer="Layer_1"
   showgrid="true"
   showguides="true"
   inkscape:guide-bbox="true"><inkscape:grid
     id="GridFromPre046Settings"
     type="xygrid"
     originx="0px"
     originy="0px"
     spacingx="4px"
     spacingy="4px"
     color="#0000ff"
     empcolor="#0000ff"
     opacity="0.2"
     empopacity="0.4"
     empspacing="2"
     enabled="true"
     visible="true" /></sodipodi:namedview>
<metadata
   id="metadata3">
	<ns:sfw>
		<ns:slices>
			<ns:slice
   y="0"
   x="0"
   height="128"
   width="128"
   sliceID="1316743234" />
		</ns:slices>
		<ns:sliceSourceBounds
   y="0"
   x="0"
   height="128"
   width="128"
   bottomLeftOrigin="true" />
		<ns:optimizationSettings>
			<ns:targetSettings
   targetSettingsID="0"
   fileFormat="PNG24Format">
				<ns:PNG24Format
   transparency="true"
   filtered="false"
   matteColor="#FFFFFF"
   noMatteColor="false"
   interlaced="false">
					</ns:PNG24Format>
			</ns:targetSettings>
			<ns:targetSettings
   targetSettingsID="1696735251"
   fileFormat="PNG24Format">
				<ns:PNG24Format
   transparency="true"
   filtered="false"
   matteColor="#FFFFFF"
   noMatteColor="false"
   interlaced="false">
					</ns:PNG24Format>
			</ns:targetSettings>
		</ns:optimizationSettings>
	</ns:sfw>
<rdf:RDF><cc:Work
     rdf:about=""><dc:format>image/svg+xml</dc:format><dc:type
       rdf:resource="http://purl.org/dc/dcmitype/StillImage" /><dc:title></dc:title></cc:Work></rdf:RDF></metadata>

<radialGradient
   id="XMLID_7_"
   cx="102"
   cy="112.3047"
   r="139.5585"
   gradientUnits="userSpaceOnUse">
	<stop
   offset="0"
   style="stop-color:#00537D"
   id="stop16" />
	<stop
   offset="0.0151"
   style="stop-color:#186389"
   id="stop18" />
	<stop
   offset="0.0558"
   style="stop-color:#558CA8"
   id="stop20" />
	<stop
   offset="0.0964"
   style="stop-color:#89AFC3"
   id="stop22" />
	<stop
   offset="0.1357"
   style="stop-color:#B3CCD8"
   id="stop24" />
	<stop
   offset="0.1737"
   style="stop-color:#D4E2E9"
   id="stop26" />
	<stop
   offset="0.2099"
   style="stop-color:#ECF2F5"
   id="stop28" />
	<stop
   offset="0.2435"
   style="stop-color:#FAFCFD"
   id="stop30" />
	<stop
   offset="0.2722"
   style="stop-color:#FFFFFF"
   id="stop32" />
</radialGradient>

<radialGradient
   id="XMLID_8_"
   cx="102"
   cy="112.3047"
   r="139.55859"
   gradientUnits="userSpaceOnUse">
	<stop
   offset="0"
   style="stop-color:#535557"
   id="stop37" />
	
	<stop
   offset="0.11366145"
   style="stop-color:#898A8C"
   id="stop41" />
	
	
	<stop
   offset="0.20296688"
   style="stop-color:#ECECEC"
   id="stop47" />
	<stop
   offset="0.2363"
   style="stop-color:#FAFAFA"
   id="stop49" />
	<stop
   offset="0.2722"
   style="stop-color:#FFFFFF"
   id="stop51" />
	<stop
   offset="0.5313"
   style="stop-color:#FAFAFA"
   id="stop53" />
	<stop
   offset="0.8449"
   style="stop-color:#EBECEC"
   id="stop55" />
	<stop
   offset="1"
   style="stop-color:#E1E2E3"
   id="stop57" />
</radialGradient>

<linearGradient
   id="XMLID_9_"
   gradientUnits="userSpaceOnUse"
   x1="94.3438"
   y1="102.3447"
   x2="86.5356"
   y2="94.5366">
	<stop
   offset="0"
   style="stop-color:#FFFFFF"
   id="stop62" />
	<stop
   offset="1"
   style="stop-color:#555753"
   id="stop64" />
</linearGradient>

<linearGradient
   id="XMLID_10_"
   gradientUnits="userSpaceOnUse"
   x1="95"
   y1="103"
   x2="86.5865"
   y2="94.5865">
	<stop
   offset="0"
   style="stop-color:#FFFFFF"
   id="stop69" />
	<stop
   offset="1"
   style="stop-color:#555753"
   id="stop71" />
</linearGradient>

<linearGradient
   id="XMLID_11_"
   gradientUnits="userSpaceOnUse"
   x1="95"
   y1="103"
   x2="87.293"
   y2="95.293">
	<stop
   offset="0"
   style="stop-color:#FFFFFF"
   id="stop76" />
	<stop
   offset="1"
   style="stop-color:#393B38"
   id="stop78" />
</linearGradient>

<linearGradient
   id="XMLID_12_"
   gradientUnits="userSpaceOnUse"
   x1="96"
   y1="104"
   x2="88.0002"
   y2="96.0002">
	<stop
   offset="0"
   style="stop-color:#888A85"
   id="stop83" />
	<stop
   offset="0.0072"
   style="stop-color:#8C8E89"
   id="stop85" />
	<stop
   offset="0.0673"
   style="stop-color:#ABACA9"
   id="stop87" />
	<stop
   offset="0.1347"
   style="stop-color:#C5C6C4"
   id="stop89" />
	<stop
   offset="0.2115"
   style="stop-color:#DBDBDA"
   id="stop91" />
	<stop
   offset="0.3012"
   style="stop-color:#EBEBEB"
   id="stop93" />
	<stop
   offset="0.4122"
   style="stop-color:#F7F7F6"
   id="stop95" />
	<stop
   offset="0.5679"
   style="stop-color:#FDFDFD"
   id="stop97" />
	<stop
   offset="1"
   style="stop-color:#FFFFFF"
   id="stop99" />
</linearGradient>
<path
   sodipodi:nodetypes="cccccccc"
   transform="matrix(1.0416667,0,0,1.0357143,-9.9583333,-3.3215342)"
   style="opacity:0.71506849;fill:#000000;fill-opacity:1;filter:url(#filter3241)"
   d="M 30.68,16.724138 30.720816,121 84.172,121 c 0.53,0 1.039,-0.211 1.414,-0.586 L 118.414,87.586 C 118.789,87.211 119,86.702 119,86.172 l 0,-69.447862 -88.32,0 z"
   id="path4081" /><path
   sodipodi:nodetypes="cccccccc"
   transform="matrix(1.0416667,0,0,1.0357143,-9.9583333,-3.3215342)"
   style="opacity:0.89589041000000003;fill:#000000;fill-opacity:1;filter:url(#filter3772)"
   d="m 32.599999,18.655274 0,100.413796 50.996001,-1e-4 c 0.53,0 1.039,-0.211 1.414,-0.586 l 31.484,-31.765936 c 0.375,-0.375 0.586,-0.884 0.586,-1.414 l 0,-66.64776 -84.480001,0 z"
   id="path3726" /><path
   id="path6594"
   d="M 30.68,17.689655 30.720816,121 84.172,121 c 0.53,0 1.039,-0.211 1.414,-0.586 13.296921,-8.21061 24.14086,-19.26784 32.828,-32.828 0.375,-0.375 0.586,-0.884 0.586,-1.414 l 0,-68.482345 -88.32,0 z"
   style="opacity:0.83561644;fill:#000000;fill-opacity:1;filter:url(#filter3241)"
   transform="matrix(1.0416667,0,0,1.0357143,-9.9583333,-3.3215342)"
   sodipodi:nodetypes="cccccccc" /><path
   style="fill:url(#radialGradient2275)"
   d="m 24.000002,16 0,104 53.172,0 c 0.53,0 1.039,-0.211 1.414,-0.586 L 111.414,86.586 C 111.789,86.211 112,85.702 112,85.172 L 112,16 24.000002,16 z"
   id="path34"
   sodipodi:nodetypes="cccccccc" /><path
   style="fill:url(#radialGradient2272);fill-opacity:1"
   d="m 32.678725,24 c -0.539276,0 -0.978723,0.440836 -0.978723,0.981818 l 0.3,86.036362 c 0,0.54197 0.439447,0.98182 0.978723,0.98182 l 43.913022,0 c 0.257404,0 0.509915,-0.10407 0.691957,-0.28767 L 103.71323,85.4812 C 103.89626,85.2976 104,85.045273 104,84.787055 l 0,-59.805237 C 104,24.440836 103.56153,24 103.02128,24 l -70.342555,0 z"
   id="path59"
   sodipodi:nodetypes="ccccccccccc" /><g
   id="g1973"
   transform="translate(2.4e-6,0)"><path
     style="opacity:0.90684931999999996;fill:#000000;filter:url(#filter4293);fill-opacity:1"
     id="path66"
     d="M 111.414,86.586 C 111.664,86.336 85.035,85 80,85 C 78.346,85 77,86.346 77,88 C 77,93.035 78.336,119.664 78.586,119.414 L 111.414,86.586 z"
     sodipodi:nodetypes="csscc" /><path
     style="opacity:0.2;fill:#000000;filter:url(#filter4209);fill-opacity:1"
     id="path73"
     d="M 111.414,86.586 C 111.789,86.211 89.444,86 80,86 C 78.897,86 78,86.897 78,88 C 78,97.444 78.211,119.789 78.586,119.414 L 111.414,86.586 z"
     sodipodi:nodetypes="csscc" /><path
     style="opacity:0.10000000000000001;fill:url(#linearGradient2295);filter:url(#filter4171)"
     id="path80"
     d="M 111.414,86.586 C 111.653,86.347 89.807,87 80,87 C 79.447,87 79,87.447 79,88 C 79,97.807 78.347,119.653 78.586,119.414 L 111.414,86.586 z"
     sodipodi:nodetypes="csscc" /><path
     style="fill:url(#linearGradient2297)"
     id="path101"
     d="M 78.586,119.414 C 78.586,119.414 90.5,109.5 96,104 C 101.5,98.5 111.414,86.586 111.414,86.586 C 111.414,86.586 90.25,88 80,88 C 80,98.25 78.586,119.414 78.586,119.414 z"
     sodipodi:nodetypes="csccc" /></g>

<path
   style="fill:none;fill-rule:evenodd;stroke:#000000;stroke-width:1px;stroke-linecap:butt;stroke-linejoin:miter;stroke-opacity:1"
   d="M 100,32 L 100,32 z"
   id="path3341" /><g
   id="g4007"
   transform="matrix(1.2647605,0,0,1.2647605,-22.29495,3.586313)"><path
     d="m 57.59375,13.5625 a 2.4257372,2.4257372 0 0 0 -2.28125,1.65625 l -13.59375,40 A 2.4257372,2.4257372 0 0 0 44,58.4375 l 6,0 -12.3125,36.78125 a 2.4257372,2.4257372 0 0 0 4.34375,2.125 l 31.90625,-48 A 2.4257372,2.4257372 0 0 0 71.90625,45.5625 l -6.25,0 L 82,17.21875 A 2.4257372,2.4257372 0 0 0 79.90625,13.5625 l -22.3125,0 z"
     id="path3883"
     style="fill:url(#linearGradient4024);fill-opacity:1;stroke-width:1px;filter:url(#filter3891)"
     inkscape:original="M 57.59375 16 L 44 56 L 53.375 56 L 40 96 L 71.90625 48 L 61.4375 48 L 79.90625 16 L 57.59375 16 z "
     inkscape:radius="2.4254947"
     sodipodi:type="inkscape:offset"
     transform="translate(-12.9,-9.5)" /><path
     sodipodi:type="inkscape:offset"
     inkscape:radius="2.013669"
     inkscape:original="M 57.59375 13.59375 C 56.596504 13.58785 55.632775 14.274314 55.3125 15.21875 L 42.03125 55.53125 C 41.52367 56.97537 42.781845 58.733368 44.3125 58.71875 L 50.34375 58.71875 L 37.71875 95.25 C 37.347281 96.344876 37.895894 97.685704 38.9375 98.1875 C 39.979106 98.689296 41.375318 98.28539 42 97.3125 L 74.21875 49 C 74.695714 48.282273 74.751928 47.290207 74.34375 46.53125 C 73.935571 45.772293 73.080505 45.278994 72.21875 45.28125 L 65.875 45.28125 L 81.96875 17.1875 C 82.387158 16.465231 82.384268 15.505203 81.96875 14.78125 C 81.553264 14.057297 80.740952 13.596842 79.90625 13.59375 L 57.59375 13.59375 z "
     style="fill:url(#radialGradient5616);fill-opacity:1;stroke-width:1px"
     id="path5614"
     d="m 57.59375,11.59375 c -1.928958,-0.01141 -3.56797,1.141861 -4.1875,2.96875 a 2.0138704,2.0138704 0 0 0 0,0.03125 L 40.125,54.875 l 0,0.03125 c -0.992102,2.888268 1.133331,5.82075 4.1875,5.8125 0.01078,-2.9e-5 0.02044,1.03e-4 0.03125,0 l 3.1875,0 -11.71875,33.875 c -0.72599,2.1398 0.193877,4.415708 2.25,5.40625 2.042065,0.98377 4.36208,0.31539 5.59375,-1.5625 l 0.03125,0 c 0.0044,-0.0068 -0.0044,-0.02446 0,-0.03125 L 75.90625,50.125 c 0.910023,-1.369387 1.010181,-3.090931 0.21875,-4.5625 -0.791433,-1.471569 -2.272552,-2.285527 -3.90625,-2.28125 l -2.875,0 14.375,-25.09375 c 0.808375,-1.395442 0.796101,-3.019212 0,-4.40625 -0.79601,-1.386987 -2.242106,-2.181683 -3.8125,-2.1875 l -22.3125,0 z"
     transform="translate(-14,-12)" /><path
     sodipodi:nodetypes="cccc"
     id="path3925"
     d="M 66,1.6874995 65.03125,4.59375 68.125,4.4062495 C 67.96589,2.1818625 66.969848,1.9661143 66,1.6874995 z"
     style="fill:url(#radialGradient4028);fill-opacity:1;stroke:none;filter:url(#filter3957)"
     transform="matrix(1.4680988,0,0,1.4680988,-30.441048,-2.1503287)" /><path
     sodipodi:type="inkscape:offset"
     inkscape:radius="1.93622"
     inkscape:original="M 57.59375 13.5625 C 56.591057 13.5704 55.630551 14.267803 55.3125 15.21875 L 42.03125 55.53125 C 41.529196 56.982544 42.776837 58.742915 44.3125 58.75 L 50.3125 58.75 L 37.6875 95.21875 C 37.247027 96.340195 37.792721 97.75179 38.875 98.28125 C 39.957279 98.81071 41.41625 98.37981 42.03125 97.34375 L 74.25 49.03125 C 74.740697 48.303089 74.790529 47.304772 74.375 46.53125 C 73.959471 45.757727 73.096789 45.24289 72.21875 45.25 L 65.96875 45.25 L 82 17.21875 C 82.431536 16.485635 82.422741 15.519471 82 14.78125 C 81.577257 14.043029 80.756944 13.561347 79.90625 13.5625 L 57.59375 13.5625 z "
     style="fill:url(#linearGradient5612);fill-opacity:1;stroke-width:1px"
     id="path5610"
     d="m 57.59375,11.625 c -1.890668,0.0149 -3.525333,1.175792 -4.125,2.96875 a 1.9364137,1.9364137 0 0 0 0,0.03125 l -13.28125,40.28125 0,0.03125 c -0.958027,2.835121 1.125673,5.736162 4.125,5.75 l 3.28125,0 L 35.875,94.5 35.84375,94.59375 c -0.778167,2.116652 0.146387,4.438971 2.1875,5.4375 2.043863,0.99988 4.396208,0.30342 5.59375,-1.625 l 0.03125,0 c 0.01241,-0.02019 0.0191,-0.04203 0.03125,-0.0625 L 75.84375,50.125 75.875,50.09375 c 0.893409,-1.35209 0.986931,-3.038753 0.21875,-4.46875 -0.769761,-1.43294 -2.242861,-2.31446 -3.875,-2.3125 -0.01054,1.3e-5 -0.0207,-8.5e-5 -0.03125,0 l -2.875,0 14.375,-25.125 -0.03125,0 c 0.814619,-1.383915 0.810265,-3.014628 0.03125,-4.375 -0.779017,-1.36037 -2.197984,-2.189646 -3.78125,-2.1875 l -22.3125,0 z"
     transform="translate(-14,-12)" /><path
     sodipodi:nodetypes="cccc"
     id="path4001"
     d="M 89.78466,2.9912276 90.25,6.5603907 93.50065,4.40625 C 93.34154,2.181863 90.25,1.899823 89.78466,2.9912276 z"
     style="fill:url(#radialGradient4032);fill-opacity:1;stroke:none;filter:url(#filter3957)"
     transform="matrix(-1.260111,0,0,-1.260111,140.39943,90.317223)" /><path
     style="fill:url(#radialGradient4034);fill-opacity:1;stroke:none;filter:url(#filter3957)"
     d="m 58.387959,33.337184 -0.96875,2.90625 3.09375,-0.1875 c -0.15911,-2.224387 -1.155152,-2.440135 -2.125,-2.71875 z"
     id="path3961"
     sodipodi:nodetypes="cccc"
     transform="matrix(1.4760622,0,0,1.4760622,-27.335112,-17.254127)" /><path
     sodipodi:type="inkscape:offset"
     inkscape:radius="1.7813225"
     inkscape:original="M 57.59375 13.5625 C 56.591057 13.5704 55.630551 14.267803 55.3125 15.21875 L 42.125 55.625 C 41.622945 57.076293 42.870587 58.836664 44.40625 58.84375 L 50.40625 58.84375 L 37.6875 95.21875 C 37.247027 96.340195 37.792721 97.75179 38.875 98.28125 C 39.957279 98.81071 41.41625 98.37981 42.03125 97.34375 L 74.5625 48.71875 C 75.053196 47.990589 75.103028 46.992273 74.6875 46.21875 C 74.271971 45.445227 73.409288 44.930391 72.53125 44.9375 L 66.28125 44.9375 L 82 17.21875 C 82.431536 16.485635 82.422741 15.519471 82 14.78125 C 81.577257 14.043029 80.756944 13.561347 79.90625 13.5625 L 57.59375 13.5625 z "
     style="fill:url(#radialGradient5608);fill-opacity:1;stroke-width:1px"
     id="path5606"
     d="m 57.59375,11.78125 c -1.81963,0.01434 -3.391612,1.149403 -3.96875,2.875 l -13.1875,40.375 0,0.03125 c -0.919611,2.723879 1.087295,5.549204 3.96875,5.5625 l 3.46875,0 L 36.03125,94.5625 36,94.625 c -0.765599,2.043439 0.12221,4.285506 2.09375,5.25 1.957748,0.95775 4.24954,0.30608 5.40625,-1.53125 0.0206,-0.03273 0.04263,-0.06027 0.0625,-0.09375 L 76.03125,49.71875 C 76.912372,48.411222 76.995993,46.763698 76.25,45.375 75.504004,43.986301 74.114982,43.143427 72.53125,43.15625 l -3.1875,0 14.1875,-25.03125 0.03125,-0.03125 -0.03125,0 c 0.767699,-1.326157 0.745394,-2.885839 0,-4.1875 -0.750515,-1.310598 -2.100339,-2.127066 -3.625,-2.125 l -22.3125,0 z"
     transform="translate(-14,-12)" /><path
     sodipodi:nodetypes="cccccccc"
     id="path2974"
     d="m 26,84 13.766383,-39.395754 -9.383646,0 13.281733,-41.1145037 22.325664,0 -17.714886,31.6265407 10.467059,0 L 26,84 z"
     style="fill:url(#radialGradient4036);fill-opacity:1;stroke-width:1px" /><path
     transform="matrix(-1.3780653,0,0,-1.3780653,155.36836,50.092383)"
     style="fill:url(#radialGradient4038);fill-opacity:1;stroke:none;filter:url(#filter3957)"
     d="M 91,1.6874995 90.03125,4.59375 93.125,4.4062495 C 92.96589,2.1818625 91.969848,1.9661143 91,1.6874995 z"
     id="path3997"
     sodipodi:nodetypes="cccc" /><path
     style="fill:url(#radialGradient4040);fill-opacity:1;stroke-width:1px"
     d="M 26,84 39.766383,44.604246 47,40 57.907859,36 26,84 z"
     id="path3915"
     sodipodi:nodetypes="ccccc" /><path
     sodipodi:nodetypes="cccccccc"
     id="path2980"
     d="m 43.59375,4 -13.202367,40.604246 9.375,0 L 26,84 46,40 38,40 54.125,4 43.59375,4 z"
     style="fill:url(#radialGradient4042);fill-opacity:1;stroke-width:1px" /><path
     sodipodi:nodetypes="ccccccccc"
     id="path3795"
     d="M 43.675536,3.4897423 31.028164,42.90625 c 2.685462,-0.03316 5.028213,-1.500541 6.842267,-2.200893 2.307406,0.0914 6.475532,0.283699 7.664814,0.259562 4.391788,-1.103535 9.396199,-3.525877 12.925812,-5.411136 l 0.28125,-0.4375 -10.46875,0 17.714479,-31.6265407 -22.3125,0 z"
     style="fill:url(#linearGradient4044);fill-opacity:1;stroke-width:1px" /><path
     id="path3799"
     d="m 43.678624,3.4897423 -0.15625,0.5 21.5625,0 -17.717567,31.6265407 10.46875,0 -0.25,0.375 c 0.294742,-0.14921 0.58686,-0.283597 0.875,-0.4375 l 0.28125,-0.4375 -10.46875,0 17.717567,-31.6265407 -22.3125,0 z"
     style="fill:url(#linearGradient4046);fill-opacity:1;stroke-width:1px"
     sodipodi:nodetypes="ccccccccccc" /><path
     sodipodi:nodetypes="cccccccccc"
     id="path3848"
     d="M 57.429807,35.116283 C 54.358691,36.744393 49.725388,38.95401 45.993824,40 l -8.05478,0.05557 c -2.024414,0.860302 -4.234266,2.211387 -6.766547,2.282222 l -0.1875,0.53125 c 2.566711,-0.03169 5.03373,-1.502422 6.874789,-2.176645 l 7.697657,0.27169 c 4.434125,-1.105398 9.344806,-3.509452 12.903614,-5.410304 l 0.28125,-0.4375 -1.3125,0 z"
     style="fill:url(#linearGradient4048);fill-opacity:1;stroke-width:1px" /><path
     style="fill:none;stroke:url(#linearGradient4050);stroke-width:1px;stroke-opacity:1;filter:url(#filter3911)"
     d="m 26,84 13.766383,-39.395754 -9.383646,0 L 43.66447,3.4897423 59,10.5 48.275248,35.116283 l 10.467059,0 L 26,84 z"
     id="path3901"
     sodipodi:nodetypes="cccccccc" /><path
     sodipodi:nodetypes="cccc"
     id="path3965"
     d="m 43.625,1.7812495 0.53125,2.890625 -2.53125,-1.421875 c 0.17769,-0.5642061 0.687414,-1.4701237 2,-1.46875 z"
     style="opacity:0.81188121;fill:url(#radialGradient4693);fill-opacity:1;stroke:none;filter:url(#filter3991)"
     transform="matrix(1.5030615,0,0,1.5030615,-22.367288,-2.3502404)" /></g></svg>