<?xml version="1.0" encoding="UTF-8" standalone="no"?>
<!-- Created with Inkscape (http://www.inkscape.org/) -->
<svg
   xmlns:dc="http://purl.org/dc/elements/1.1/"
   xmlns:cc="http://web.resource.org/cc/"
   xmlns:rdf="http://www.w3.org/1999/02/22-rdf-syntax-ns#"
   xmlns:svg="http://www.w3.org/2000/svg"
   xmlns="http://www.w3.org/2000/svg"
   xmlns:xlink="http://www.w3.org/1999/xlink"
   xmlns:sodipodi="http://sodipodi.sourceforge.net/DTD/sodipodi-0.dtd"
   xmlns:inkscape="http://www.inkscape.org/namespaces/inkscape"
   width="128"
   height="128"
   id="svg2606"
   sodipodi:version="0.32"
   inkscape:version="0.45.1"
   version="1.0"
   sodipodi:docname="text-x-tcl.svg"
   inkscape:output_extension="org.inkscape.output.svg.inkscape"
   sodipodi:docbase="/home/david/sandbox">
  <defs
     id="defs2608">
    <linearGradient
       id="linearGradient10207">
      <stop
         style="stop-color:#a2a2a2;stop-opacity:1;"
         offset="0"
         id="stop10209" />
      <stop
         style="stop-color:#ffffff;stop-opacity:1;"
         offset="1"
         id="stop10211" />
    </linearGradient>
    <radialGradient
       id="XMLID_8_"
       cx="102"
       cy="112.3047"
       r="139.55859"
       gradientUnits="userSpaceOnUse">
      <stop
         offset="0"
         style="stop-color:#b7b8b9;stop-opacity:1;"
         id="stop41" />
      <stop
         offset="0.18851049"
         style="stop-color:#ECECEC"
         id="stop47" />
      <stop
         offset="0.25718147"
         style="stop-color:#FAFAFA"
         id="stop49" />
      <stop
         offset="0.30111277"
         style="stop-color:#FFFFFF"
         id="stop51" />
      <stop
         offset="0.5313"
         style="stop-color:#FAFAFA"
         id="stop53" />
      <stop
         offset="0.8449"
         style="stop-color:#EBECEC"
         id="stop55" />
      <stop
         offset="1"
         style="stop-color:#E1E2E3"
         id="stop57" />
    </radialGradient>
    <filter
       inkscape:collect="always"
       x="-0.19200002"
       width="1.3839999"
       y="-0.19199999"
       height="1.3839999"
       id="filter6697">
      <feGaussianBlur
         inkscape:collect="always"
         stdDeviation="1.9447689"
         id="feGaussianBlur6699" />
    </filter>
    <clipPath
       clipPathUnits="userSpaceOnUse"
       id="clipPath7084">
      <path
         style="fill:#000000;fill-opacity:1;fill-rule:evenodd;stroke:none;stroke-width:1px;stroke-linecap:butt;stroke-linejoin:miter;stroke-opacity:1"
         d="M 72,88 L 40,120 L 32,120 L 32,80 L 72,80 L 72,88 z"
         id="path7086" />
    </clipPath>
    <radialGradient
       inkscape:collect="always"
       xlink:href="#XMLID_8_"
       id="radialGradient9437"
       gradientUnits="userSpaceOnUse"
       gradientTransform="matrix(0.9361702,0,0,0.9428661,4.085106,3.7642086)"
       cx="102"
       cy="112.3047"
       r="139.55859" />
    <linearGradient
       inkscape:collect="always"
       xlink:href="#linearGradient10207"
       id="linearGradient2312"
       gradientUnits="userSpaceOnUse"
       gradientTransform="translate(10,0)"
       x1="98.617439"
       y1="106.41443"
       x2="91.228737"
       y2="99.254974" />
  </defs>
  <sodipodi:namedview
     id="base"
     pagecolor="#ffffff"
     bordercolor="#666666"
     borderopacity="1.0"
     inkscape:pageopacity="0.0"
     inkscape:pageshadow="2"
     inkscape:zoom="4"
     inkscape:cx="64"
     inkscape:cy="55.798844"
     inkscape:document-units="px"
     inkscape:current-layer="layer1"
     width="128px"
     height="128px"
     gridspacingx="4px"
     gridspacingy="4px"
     gridempspacing="2"
     showgrid="true"
     inkscape:grid-points="true"
     showguides="true"
     inkscape:guide-bbox="true"
     inkscape:window-width="1016"
     inkscape:window-height="692"
     inkscape:window-x="2"
     inkscape:window-y="0"
     gridtolerance="10000" />
  <metadata
     id="metadata2611">
    <rdf:RDF>
      <cc:Work
         rdf:about="">
        <dc:format>image/svg+xml</dc:format>
        <dc:type
           rdf:resource="http://purl.org/dc/dcmitype/StillImage" />
      </cc:Work>
    </rdf:RDF>
  </metadata>
  <g
     inkscape:label="Livello 1"
     inkscape:groupmode="layer"
     id="layer1">
    <g
       id="g2485">
      <path
         sodipodi:nodetypes="cccccc"
         id="path3176"
         d="M 16.000001,8 L 16,120 C 16,120 79.146418,120 79.146418,120 L 112,87.14642 L 112,8 L 16.000001,8 z"
         style="opacity:0.1;fill:none;fill-opacity:1;stroke:#000000;stroke-width:16;stroke-linejoin:round;stroke-miterlimit:4;stroke-dasharray:none;stroke-opacity:1" />
      <path
         style="opacity:0.15;fill:none;fill-opacity:1;stroke:#000000;stroke-width:12;stroke-linejoin:round;stroke-miterlimit:4;stroke-dasharray:none;stroke-opacity:1"
         d="M 16.000001,8 L 16,120 C 16,120 79.146418,120 79.146418,120 L 112,87.14642 L 112,8 L 16.000001,8 z"
         id="path3174"
         sodipodi:nodetypes="cccccc" />
      <path
         sodipodi:nodetypes="cccccc"
         id="path3172"
         d="M 16.000001,8 L 16,120 C 16,120 79.146418,120 79.146418,120 L 112,87.14642 L 112,8 L 16.000001,8 z"
         style="opacity:0.2;fill:none;fill-opacity:1;stroke:#000000;stroke-width:8;stroke-linejoin:round;stroke-miterlimit:4;stroke-dasharray:none;stroke-opacity:1" />
      <path
         style="opacity:0.25;fill:none;fill-opacity:1;stroke:#000000;stroke-width:4;stroke-linejoin:round;stroke-miterlimit:4;stroke-dasharray:none;stroke-opacity:1"
         d="M 16.000001,8 L 16,120 C 16,120 79.146418,120 79.146418,120 L 112,87.14642 L 112,8 L 16.000001,8 z"
         id="path2789"
         sodipodi:nodetypes="cccccc" />
    </g>
    <path
       style="fill:#ffffff;fill-opacity:1"
       d="M 16.000001,8 L 16,120 C 16,120 79.146418,120 79.146418,120 L 112,87.14642 L 112,8 L 16.000001,8 z"
       id="path34"
       sodipodi:nodetypes="cccccc" />
    <path
       style="fill:url(#radialGradient9437);fill-opacity:1"
       d="M 20.93617,12.250003 C 20.42034,12.250003 20,12.673351 20,13.192869 L 20,115.02241 C 20,115.54287 20.42034,115.96527 20.93617,115.96527 L 76.331232,115.96527 C 76.577445,115.96527 78.917571,116.07669 79.0917,115.90038 L 107.7257,86.850213 C 107.90076,86.673896 108,84.317975 108,84.070002 L 108,13.192869 C 108,12.673351 107.5806,12.250003 107.06383,12.250003 L 20.93617,12.250003 z"
       id="path59"
       sodipodi:nodetypes="ccccccccccc" />
    <g
       id="g2308"
       transform="translate(-10,0)">
      <path
         transform="translate(50,0)"
         clip-path="url(#clipPath7084)"
         sodipodi:nodetypes="cccc"
         style="opacity:0.4;fill:#000000;fill-opacity:1;filter:url(#filter6697)"
         id="path5540"
         d="M 41.879531,115.98249 C 41.879531,115.98249 66.18914,91.672876 66.18914,91.672876 C 66.18914,91.672876 56.836,94.586 46.586,94.586 C 46.586,104.836 41.879531,115.98249 41.879531,115.98249 z " />
      <path
         sodipodi:nodetypes="csccc"
         d="M 89.172,120 C 89.172,120 101.086,110.086 106.586,104.586 C 112.086,99.086 122,87.172 122,87.172 C 122,87.172 108.25,96 98,96 C 98,106.25 89.172,120 89.172,120 z "
         id="path14523"
         style="fill:url(#linearGradient2312);fill-opacity:1" />
    </g>
    <path
       style="font-size:5.47867346px;font-style:normal;font-weight:normal;line-height:125%;fill:#cf4913;fill-opacity:1;stroke:none;stroke-width:1px;stroke-linecap:butt;stroke-linejoin:miter;stroke-opacity:1;font-family:Bitstream Vera Sans"
       d="M 40,72 L 32,72 L 32,48 L 24,48 L 24,40 L 48,40 L 48,48 L 40,48"
       id="path2268"
       sodipodi:nodetypes="cccccccc" />
    <path
       style="font-size:5.47867346px;font-style:normal;font-weight:normal;line-height:125%;fill:#cf4913;fill-opacity:1;stroke:none;stroke-width:1px;stroke-linecap:butt;stroke-linejoin:miter;stroke-opacity:1;font-family:Bitstream Vera Sans"
       d="M 80,72 L 80,40 L 88,40 L 88,64 L 104,64 L 104,72"
       id="path3586"
       sodipodi:nodetypes="cccccc" />
    <path
       style="opacity:1;fill:#cf4913;fill-opacity:1;stroke:none;stroke-width:2;stroke-miterlimit:4"
       d="M 60.75,40 C 53.6865,40 48,45.6865 48,52.75 L 48,59.25 C 48,66.3135 53.6865,72 60.75,72 L 67.25,72 C 70.78175,72 73.976688,70.585813 76.28125,68.28125 L 70.125,62.125 C 68.972719,63.277281 67.390875,64 65.625,64 L 62.375,64 C 58.84325,64 56,61.15675 56,57.625 L 56,54.375 C 56,50.84325 58.84325,48 62.375,48 L 65.625,48 C 67.390875,48 68.972719,48.722719 70.125,49.875 L 76.28125,43.71875 C 73.976688,41.414187 70.78175,40 67.25,40 L 60.75,40 z "
       id="rect3590" />
  </g>
</svg>
