<?xml version="1.0" encoding="UTF-8" standalone="no"?>
<!-- Created with Inkscape (http://www.inkscape.org/) -->

<svg
   xmlns:dc="http://purl.org/dc/elements/1.1/"
   xmlns:cc="http://creativecommons.org/ns#"
   xmlns:rdf="http://www.w3.org/1999/02/22-rdf-syntax-ns#"
   xmlns:svg="http://www.w3.org/2000/svg"
   xmlns="http://www.w3.org/2000/svg"
   xmlns:xlink="http://www.w3.org/1999/xlink"
   xmlns:sodipodi="http://sodipodi.sourceforge.net/DTD/sodipodi-0.dtd"
   xmlns:inkscape="http://www.inkscape.org/namespaces/inkscape"
   width="128"
   height="128"
   id="svg2606"
   sodipodi:version="0.32"
   inkscape:version="0.48.0 r9654"
   version="1.0"
   sodipodi:docname="application-x-zerosize.svgz"
   inkscape:output_extension="org.inkscape.output.svgz.inkscape"
   inkscape:export-filename="/home/pinheiro/pics/oxygen-icons/scalable/mimetypes/small/16x16/text-x-hex.png"
   inkscape:export-xdpi="180"
   inkscape:export-ydpi="180">
  <defs
     id="defs2608">
    <linearGradient
       id="linearGradient6131">
      <stop
         id="stop6133"
         offset="0"
         style="stop-color:#fcfcfc;stop-opacity:1" />
      <stop
         style="stop-color:#f8f8f8;stop-opacity:1"
         offset="0.52275378"
         id="stop6135" />
      <stop
         id="stop6141"
         offset="0.77457333"
         style="stop-color:#f0efef;stop-opacity:1;" />
      <stop
         id="stop6139"
         offset="0.90122044"
         style="stop-color:#e3e1e1;stop-opacity:1;" />
      <stop
         id="stop6137"
         offset="1"
         style="stop-color:#cecbcb;stop-opacity:1" />
    </linearGradient>
    <linearGradient
       inkscape:collect="always"
       xlink:href="#linearGradient6131"
       id="linearGradient3893"
       gradientUnits="userSpaceOnUse"
       gradientTransform="matrix(1.0119858,0,0,1.0119858,-0.89554075,-0.9871566)"
       x1="86.73793"
       y1="93.621468"
       x2="95.460213"
       y2="102.34375" />
    <radialGradient
       inkscape:collect="always"
       xlink:href="#linearGradient3913-5"
       id="radialGradient3919-5"
       cx="90.75"
       cy="110.25299"
       fx="90.75"
       fy="110.25299"
       r="18.750002"
       gradientTransform="matrix(1.3067347,0,0,1.3067347,-27.83617,-33.818441)"
       gradientUnits="userSpaceOnUse" />
    <linearGradient
       inkscape:collect="always"
       id="linearGradient3913-5">
      <stop
         style="stop-color:#ffffff;stop-opacity:1;"
         offset="0"
         id="stop3915-4" />
      <stop
         style="stop-color:#ffffff;stop-opacity:0;"
         offset="1"
         id="stop3917-7" />
    </linearGradient>
    <clipPath
       clipPathUnits="userSpaceOnUse"
       id="clipPath3889-6">
      <path
         sodipodi:nodetypes="cscscssc"
         inkscape:connector-curvature="0"
         id="path3891-5"
         d="m 112,82.502986 c 0,4.465301 -2.79749,6.409952 -5.27972,8.093625 -5.10854,3.46508 -14.939114,3.32536 -20.720284,3.40638 -0.081,5.781159 0.16586,15.504599 -3.29922,20.613139 -1.68367,2.48224 -5.29051,5.38687 -8.20078,5.38687 2.31803,0 4.74284,-1.33476 7.58402,-4.08481 9.14197,-8.84873 17.36714,-16.13535 25.673154,-25.297529 C 109.67612,88.503916 112,86.97878 112,82.502986 z"
         style="fill:url(#linearGradient3893);fill-opacity:1;stroke:none" />
    </clipPath>
    <filter
       color-interpolation-filters="sRGB"
       inkscape:collect="always"
       id="filter3909-6">
      <feGaussianBlur
         inkscape:collect="always"
         stdDeviation="0.43040059"
         id="feGaussianBlur3911-9" />
    </filter>
    <linearGradient
       inkscape:collect="always"
       xlink:href="#linearGradient3897-7"
       id="linearGradient3895-3"
       gradientUnits="userSpaceOnUse"
       gradientTransform="matrix(1.3344708,0,0,1.3640502,-37.238647,-42.998247)"
       x1="82.15696"
       y1="90.381706"
       x2="94.220871"
       y2="102.18401" />
    <linearGradient
       id="linearGradient3897-7">
      <stop
         style="stop-color:#fcfcfc;stop-opacity:1"
         offset="0"
         id="stop3899-4" />
      <stop
         id="stop3901-5"
         offset="0.52275378"
         style="stop-color:#f8f8f8;stop-opacity:1" />
      <stop
         style="stop-color:#f0efef;stop-opacity:1;"
         offset="0.72337759"
         id="stop3903-2" />
      <stop
         style="stop-color:#e3e1e1;stop-opacity:1;"
         offset="0.89024991"
         id="stop3905-5" />
      <stop
         style="stop-color:#cecbcb;stop-opacity:1"
         offset="1"
         id="stop3907-4" />
    </linearGradient>
    <clipPath
       clipPathUnits="userSpaceOnUse"
       id="clipPath6093-7">
      <path
         inkscape:connector-curvature="0"
         sodipodi:nodetypes="cccssccc"
         id="path6095-4"
         d="m 17.000001,8 0.782827,110 57.5,0 c 1.675283,0 3.119418,0.18058 4.9,-1.6 8.797935,-8.79794 21.481402,-23.383226 28.739972,-30.707378 2.44056,-2.462612 2.80096,-4.47117 2.80096,-6.724043 L 110,8 z"
         style="fill:#ffffff;fill-opacity:1" />
    </clipPath>
    <radialGradient
       inkscape:collect="always"
       xlink:href="#linearGradient5982-7"
       id="radialGradient5988-0"
       cx="68.138977"
       cy="89.42041"
       fx="67.932365"
       fy="72.691223"
       r="47.5"
       gradientTransform="matrix(1.5860719,-0.07936281,0.06485072,1.2953772,-41.872296,-14.425457)"
       gradientUnits="userSpaceOnUse" />
    <linearGradient
       inkscape:collect="always"
       id="linearGradient5982-7">
      <stop
         style="stop-color:#ffffff;stop-opacity:1;"
         offset="0"
         id="stop5984-8" />
      <stop
         style="stop-color:#ffffff;stop-opacity:0;"
         offset="1"
         id="stop5986-6" />
    </linearGradient>
    <filter
       color-interpolation-filters="sRGB"
       inkscape:collect="always"
       id="filter6171-8"
       x="-0.47870937"
       width="1.9574188"
       y="-0.51275069"
       height="2.0255013">
      <feGaussianBlur
         inkscape:collect="always"
         stdDeviation="10.140743"
         id="feGaussianBlur6173-8" />
    </filter>
    <linearGradient
       inkscape:collect="always"
       xlink:href="#linearGradient4518-3"
       id="linearGradient4524-4"
       x1="47.236164"
       y1="22.150356"
       x2="72"
       y2="116.40091"
       gradientUnits="userSpaceOnUse"
       gradientTransform="matrix(0.94173025,0,0,0.94148681,3.5162756,3.1457312)" />
    <linearGradient
       id="linearGradient4518-3">
      <stop
         style="stop-color:#eeecec;stop-opacity:1"
         offset="0"
         id="stop4520-1" />
      <stop
         id="stop5969-4"
         offset="0.40000001"
         style="stop-color:#f4f4f4;stop-opacity:1" />
      <stop
         style="stop-color:#f6f5f5;stop-opacity:1"
         offset="1"
         id="stop4522-9" />
    </linearGradient>
    <filter
       inkscape:collect="always"
       id="filter4123">
      <feGaussianBlur
         inkscape:collect="always"
         stdDeviation="2.028"
         id="feGaussianBlur4125" />
    </filter>
    <filter
       inkscape:collect="always"
       id="filter3822">
      <feGaussianBlur
         inkscape:collect="always"
         stdDeviation="2.7153804"
         id="feGaussianBlur3824" />
    </filter>
    <filter
       inkscape:collect="always"
       id="filter3827"
       x="-0.084733292"
       width="1.1694666"
       y="-0.10505005"
       height="1.2101001">
      <feGaussianBlur
         inkscape:collect="always"
         stdDeviation="2.1734796"
         id="feGaussianBlur3829" />
    </filter>
    <linearGradient
       y2="116.40091"
       x2="72"
       y1="0"
       x1="72"
       gradientTransform="matrix(1.013528,0,0,1.013266,-207.05694,-44.837511)"
       gradientUnits="userSpaceOnUse"
       id="linearGradient4005"
       xlink:href="#linearGradient4518-3-0"
       inkscape:collect="always" />
    <radialGradient
       r="47.5"
       fy="47.274845"
       fx="63.793392"
       cy="64.004021"
       cx="64"
       gradientTransform="matrix(1.7069944,-0.08541345,0.06979496,1.3941371,-255.90595,-63.748331)"
       gradientUnits="userSpaceOnUse"
       id="radialGradient4002"
       xlink:href="#linearGradient5982-7-4"
       inkscape:collect="always" />
    <linearGradient
       y2="102.18401"
       x2="94.220871"
       y1="90.381706"
       x1="82.15696"
       gradientTransform="matrix(1.3731411,0,0,1.4035776,-246.92212,-86.953336)"
       gradientUnits="userSpaceOnUse"
       id="linearGradient3973"
       xlink:href="#linearGradient3897-7-4"
       inkscape:collect="always" />
    <linearGradient
       id="linearGradient6131-5">
      <stop
         id="stop6133-5"
         offset="0"
         style="stop-color:#fcfcfc;stop-opacity:1" />
      <stop
         style="stop-color:#f8f8f8;stop-opacity:1"
         offset="0.52275378"
         id="stop6135-4" />
      <stop
         id="stop6141-7"
         offset="0.77457333"
         style="stop-color:#f0efef;stop-opacity:1;" />
      <stop
         id="stop6139-6"
         offset="0.90122044"
         style="stop-color:#e3e1e1;stop-opacity:1;" />
      <stop
         id="stop6137-5"
         offset="1"
         style="stop-color:#cecbcb;stop-opacity:1" />
    </linearGradient>
    <linearGradient
       inkscape:collect="always"
       xlink:href="#linearGradient6131-5"
       id="linearGradient3893-6"
       gradientUnits="userSpaceOnUse"
       gradientTransform="matrix(1.0119858,0,0,1.0119858,-0.89554075,-0.9871566)"
       x1="86.73793"
       y1="93.621468"
       x2="95.460213"
       y2="102.34375" />
    <radialGradient
       inkscape:collect="always"
       xlink:href="#linearGradient3913-5-3"
       id="radialGradient3919-5-9"
       cx="90.75"
       cy="110.25299"
       fx="90.75"
       fy="110.25299"
       r="18.750002"
       gradientTransform="matrix(1.3067347,0,0,1.3067347,-27.83617,-33.818441)"
       gradientUnits="userSpaceOnUse" />
    <linearGradient
       inkscape:collect="always"
       id="linearGradient3913-5-3">
      <stop
         style="stop-color:#ffffff;stop-opacity:1;"
         offset="0"
         id="stop3915-4-7" />
      <stop
         style="stop-color:#ffffff;stop-opacity:0;"
         offset="1"
         id="stop3917-7-4" />
    </linearGradient>
    <clipPath
       clipPathUnits="userSpaceOnUse"
       id="clipPath3889-6-5">
      <path
         sodipodi:nodetypes="cscscssc"
         inkscape:connector-curvature="0"
         id="path3891-5-2"
         d="m 112,82.502986 c 0,4.465301 -2.79749,6.409952 -5.27972,8.093625 -5.10854,3.46508 -14.939114,3.32536 -20.720284,3.40638 -0.081,5.781159 0.16586,15.504599 -3.29922,20.613139 -1.68367,2.48224 -5.29051,5.38687 -8.20078,5.38687 2.31803,0 4.74284,-1.33476 7.58402,-4.08481 9.14197,-8.84873 17.36714,-16.13535 25.673154,-25.297529 C 109.67612,88.503916 112,86.97878 112,82.502986 z"
         style="fill:url(#linearGradient3893-6);fill-opacity:1;stroke:none" />
    </clipPath>
    <linearGradient
       id="linearGradient3897-7-4">
      <stop
         style="stop-color:#fcfcfc;stop-opacity:1"
         offset="0"
         id="stop3899-4-4" />
      <stop
         id="stop3901-5-3"
         offset="0.52275378"
         style="stop-color:#f8f8f8;stop-opacity:1" />
      <stop
         style="stop-color:#f0efef;stop-opacity:1;"
         offset="0.72337759"
         id="stop3903-2-0" />
      <stop
         style="stop-color:#e3e1e1;stop-opacity:1;"
         offset="0.89024991"
         id="stop3905-5-7" />
      <stop
         style="stop-color:#cecbcb;stop-opacity:1"
         offset="1"
         id="stop3907-4-8" />
    </linearGradient>
    <clipPath
       clipPathUnits="userSpaceOnUse"
       id="clipPath6093-7-6">
      <path
         inkscape:connector-curvature="0"
         sodipodi:nodetypes="cccssccc"
         id="path6095-4-8"
         d="m 17.000001,8 0.782827,110 57.5,0 c 1.675283,0 3.119418,0.18058 4.9,-1.6 C 88.980763,107.60206 99.94047,96.548195 107.19904,89.224043 109.6396,86.761431 110,84.752873 110,82.5 L 110,8 z"
         style="fill:#ffffff;fill-opacity:1" />
    </clipPath>
    <linearGradient
       inkscape:collect="always"
       id="linearGradient5982-7-4">
      <stop
         style="stop-color:#ffffff;stop-opacity:1;"
         offset="0"
         id="stop5984-8-3" />
      <stop
         style="stop-color:#ffffff;stop-opacity:0;"
         offset="1"
         id="stop5986-6-1" />
    </linearGradient>
    <linearGradient
       id="linearGradient4518-3-0">
      <stop
         style="stop-color:#eeecec;stop-opacity:1"
         offset="0"
         id="stop4520-1-6" />
      <stop
         id="stop5969-4-8"
         offset="0.40000001"
         style="stop-color:#f4f4f4;stop-opacity:1" />
      <stop
         style="stop-color:#f6f5f5;stop-opacity:1"
         offset="1"
         id="stop4522-9-9" />
    </linearGradient>
    <clipPath
       clipPathUnits="userSpaceOnUse"
       id="clipPath4019">
      <path
         style="opacity:0.84653476;fill:url(#radialGradient4023);fill-opacity:1"
         d="m 62.560462,10.000003 c -0.339844,0 -0.5,0.234618 -0.5,0.5 l 0,42.26143 c 0,0.82158 0.679325,1.498391 1.5,1.5 l 15.971889,0.0313 c 0.05307,1.04e-4 3.273884,-0.008 3.9635,5e-5 6.540972,-4.50366 1.08449,-1.906472 10.02972,-10.908282 1.47685,-1.65649 0.4576,-0.37007 1.45391,-1.60746 l 6e-5,-31.277038 c 0,-0.322717 -0.16322,-0.5 -0.5,-0.5 z"
         id="path4021"
         inkscape:connector-curvature="0"
         sodipodi:nodetypes="ccssscccccc" />
    </clipPath>
    <filter
       height="1.408259"
       y="-0.2041295"
       width="1.3293014"
       x="-0.16465071"
       id="filter4087"
       inkscape:collect="always">
      <feGaussianBlur
         id="feGaussianBlur4089"
         stdDeviation="4.2234282"
         inkscape:collect="always" />
    </filter>
    <filter
       id="filter4123-0"
       inkscape:collect="always">
      <feGaussianBlur
         id="feGaussianBlur4125-4"
         stdDeviation="2.028"
         inkscape:collect="always" />
    </filter>
    <linearGradient
       id="linearGradient4518-3-6">
      <stop
         id="stop4520-1-4"
         offset="0"
         style="stop-color:#eeecec;stop-opacity:1" />
      <stop
         style="stop-color:#f4f4f4;stop-opacity:1"
         offset="0.40000001"
         id="stop5969-4-9" />
      <stop
         id="stop4522-9-5"
         offset="1"
         style="stop-color:#f6f5f5;stop-opacity:1" />
    </linearGradient>
    <filter
       height="2.0255013"
       y="-0.51275069"
       width="1.9574188"
       x="-0.47870937"
       id="filter6171-8-8"
       inkscape:collect="always"
       color-interpolation-filters="sRGB">
      <feGaussianBlur
         id="feGaussianBlur6173-8-92"
         stdDeviation="10.140743"
         inkscape:collect="always" />
    </filter>
    <linearGradient
       id="linearGradient5982-7-2"
       inkscape:collect="always">
      <stop
         id="stop5984-8-0"
         offset="0"
         style="stop-color:#ffffff;stop-opacity:1;" />
      <stop
         id="stop5986-6-6"
         offset="1"
         style="stop-color:#ffffff;stop-opacity:0;" />
    </linearGradient>
    <clipPath
       id="clipPath6093-7-1"
       clipPathUnits="userSpaceOnUse">
      <path
         style="fill:#ffffff;fill-opacity:1"
         d="m 17.000001,8 0.782827,110 57.5,0 c 1.675283,0 3.119418,0.18058 4.9,-1.6 C 88.980763,107.60206 99.94047,96.548195 107.19904,89.224043 109.6396,86.761431 110,84.752873 110,82.5 L 110,8 z"
         id="path6095-4-4"
         sodipodi:nodetypes="cccssccc"
         inkscape:connector-curvature="0" />
    </clipPath>
    <linearGradient
       id="linearGradient3897-7-8">
      <stop
         id="stop3899-4-6"
         offset="0"
         style="stop-color:#fcfcfc;stop-opacity:1" />
      <stop
         style="stop-color:#f8f8f8;stop-opacity:1"
         offset="0.52275378"
         id="stop3901-5-8" />
      <stop
         id="stop3903-2-8"
         offset="0.72337759"
         style="stop-color:#f0efef;stop-opacity:1;" />
      <stop
         id="stop3905-5-4"
         offset="0.89024991"
         style="stop-color:#e3e1e1;stop-opacity:1;" />
      <stop
         id="stop3907-4-3"
         offset="1"
         style="stop-color:#cecbcb;stop-opacity:1" />
    </linearGradient>
    <filter
       id="filter3909-6-3"
       inkscape:collect="always"
       color-interpolation-filters="sRGB">
      <feGaussianBlur
         id="feGaussianBlur3911-9-0"
         stdDeviation="0.43040059"
         inkscape:collect="always" />
    </filter>
    <clipPath
       id="clipPath3889-6-4"
       clipPathUnits="userSpaceOnUse">
      <path
         style="fill:url(#linearGradient3893-5);fill-opacity:1;stroke:none"
         d="m 112,82.502986 c 0,4.465301 -2.79749,6.409952 -5.27972,8.093625 -5.10854,3.46508 -14.939114,3.32536 -20.720284,3.40638 -0.081,5.781159 0.16586,15.504599 -3.29922,20.613139 -1.68367,2.48224 -5.29051,5.38687 -8.20078,5.38687 2.31803,0 4.74284,-1.33476 7.58402,-4.08481 9.14197,-8.84873 17.36714,-16.13535 25.673154,-25.297529 C 109.67612,88.503916 112,86.97878 112,82.502986 z"
         id="path3891-5-4"
         inkscape:connector-curvature="0"
         sodipodi:nodetypes="cscscssc" />
    </clipPath>
    <linearGradient
       id="linearGradient3913-5-5"
       inkscape:collect="always">
      <stop
         id="stop3915-4-4"
         offset="0"
         style="stop-color:#ffffff;stop-opacity:1;" />
      <stop
         id="stop3917-7-7"
         offset="1"
         style="stop-color:#ffffff;stop-opacity:0;" />
    </linearGradient>
    <radialGradient
       gradientUnits="userSpaceOnUse"
       gradientTransform="matrix(1.3067347,0,0,1.3067347,-27.83617,-33.818441)"
       r="18.750002"
       fy="110.25299"
       fx="90.75"
       cy="110.25299"
       cx="90.75"
       id="radialGradient3919-5-2"
       xlink:href="#linearGradient3913-5-5"
       inkscape:collect="always" />
    <linearGradient
       y2="102.34375"
       x2="95.460213"
       y1="93.621468"
       x1="86.73793"
       gradientTransform="matrix(1.0119858,0,0,1.0119858,-0.89554075,-0.9871566)"
       gradientUnits="userSpaceOnUse"
       id="linearGradient3893-5"
       xlink:href="#linearGradient6131-6"
       inkscape:collect="always" />
    <linearGradient
       id="linearGradient6131-6">
      <stop
         style="stop-color:#fcfcfc;stop-opacity:1"
         offset="0"
         id="stop6133-56" />
      <stop
         id="stop6135-9"
         offset="0.52275378"
         style="stop-color:#f8f8f8;stop-opacity:1" />
      <stop
         style="stop-color:#f0efef;stop-opacity:1;"
         offset="0.77457333"
         id="stop6141-3" />
      <stop
         style="stop-color:#e3e1e1;stop-opacity:1;"
         offset="0.90122044"
         id="stop6139-7" />
      <stop
         style="stop-color:#cecbcb;stop-opacity:1"
         offset="1"
         id="stop6137-4" />
    </linearGradient>
    <linearGradient
       inkscape:collect="always"
       xlink:href="#linearGradient3897-7-8"
       id="linearGradient3285"
       gradientUnits="userSpaceOnUse"
       gradientTransform="matrix(1.4094273,0,0,1.4111689,-366.50031,-142.05649)"
       x1="82.15696"
       y1="90.381706"
       x2="94.220871"
       y2="102.18401" />
    <radialGradient
       inkscape:collect="always"
       xlink:href="#linearGradient5982-7-2"
       id="radialGradient3295"
       gradientUnits="userSpaceOnUse"
       gradientTransform="matrix(1.689423,-0.08280186,0.06907651,1.3515102,-370.01309,-113.56979)"
       cx="64"
       cy="64.004021"
       fx="63.793392"
       fy="47.274845"
       r="47.5" />
    <linearGradient
       inkscape:collect="always"
       xlink:href="#linearGradient4518-3-6"
       id="linearGradient3317"
       gradientUnits="userSpaceOnUse"
       gradientTransform="matrix(1.003095,0,0,0.98228452,-321.66692,-95.137184)"
       x1="72"
       y1="0"
       x2="72"
       y2="116.40091" />
  </defs>
  <sodipodi:namedview
     id="base"
     pagecolor="#ffffff"
     bordercolor="#666666"
     borderopacity="1.0"
     inkscape:pageopacity="0.0"
     inkscape:pageshadow="2"
     inkscape:zoom="2.8284272"
     inkscape:cx="3.2897291"
     inkscape:cy="63.596925"
     inkscape:document-units="px"
     inkscape:current-layer="layer1"
     width="128px"
     height="128px"
     showgrid="true"
     inkscape:grid-points="true"
     showguides="true"
     inkscape:guide-bbox="true"
     inkscape:window-width="1224"
     inkscape:window-height="757"
     inkscape:window-x="65"
     inkscape:window-y="298"
     inkscape:snap-global="true"
     inkscape:window-maximized="0"
     inkscape:snap-page="true">
    <inkscape:grid
       id="GridFromPre046Settings"
       type="xygrid"
       originx="0px"
       originy="0px"
       spacingx="8px"
       spacingy="8px"
       color="#0000ff"
       empcolor="#0000ff"
       opacity="0.2"
       empopacity="0.4"
       empspacing="2"
       visible="true"
       enabled="true"
       snapvisiblegridlinesonly="true" />
    <sodipodi:guide
       orientation="1,0"
       position="-68,29.325902"
       id="guide4564" />
    <sodipodi:guide
       orientation="1,0"
       position="-121.62237,135.0574"
       id="guide3859" />
    <sodipodi:guide
       orientation="0,1"
       position="38.581514,-74.688154"
       id="guide4360" />
  </sodipodi:namedview>
  <metadata
     id="metadata2611">
    <rdf:RDF>
      <cc:Work
         rdf:about="">
        <dc:format>image/svg+xml</dc:format>
        <dc:type
           rdf:resource="http://purl.org/dc/dcmitype/StillImage" />
        <dc:title></dc:title>
      </cc:Work>
    </rdf:RDF>
  </metadata>
  <g
     inkscape:label="Livello 1"
     inkscape:groupmode="layer"
     id="layer1">
    <path
       style="opacity:0.45606695;fill:#000000;fill-opacity:1;filter:url(#filter4123)"
       d="m 13.333,5.3364 0,118.3304 49.8545,-0.0668 c 2.115554,-0.003 4.528919,-1.77169 7,-4.25 0.71234,-0.71442 1.440746,-1.39395 2.15625,-2.09375 0.415612,-0.40649 0.832187,-0.81443 1.25,-1.21875 7.773958,-7.40962 26.98341,-25.122599 34.21875,-33.099999 0.42065,-0.42064 0.81207,-0.8111 1.15625,-1.1875 1.46444,-1.49766 2.76158,-2.8378 2.99375,-5.8625 L 112,75.156251 111.9972,5.3364 z"
       id="path5990"
       inkscape:connector-curvature="0"
       sodipodi:nodetypes="ccsssccccccc"
       transform="matrix(0.94173025,0,0,0.94148681,3.5162752,3.1457285)" />
    <path
       transform="matrix(0.94173025,0,0,0.94148681,3.5162752,3.1457285)"
       style="fill:#000000;fill-opacity:1;filter:url(#filter3822)"
       d="m 12.96875,3.4375 c -1.48e-4,0.010416 -1.48e-4,0.020834 0,0.03125 -0.921246,0.1949457 -1.534484,0.9333582 -1.53125,1.875 l 0,118.73736 c -1.48e-4,0.0104 -1.48e-4,0.0209 0,0.0313 0.01925,1.0723 0.80288,1.85562 1.875,1.875 0.01042,1.5e-4 0.02083,1.5e-4 0.03125,0 l 52.529063,0 c 1.658286,0 4.069886,0.24689 7.15625,-1.84375 0.09606,-0.0692 0.180839,-0.15394 0.25,-0.25 -0.05642,0.0503 -0.118387,0.22919 0.0625,-0.0625 0.05493,-0.0473 0.106764,-0.0903 0.1875,-0.15625 0.219835,-0.17951 0.516782,-0.38621 0.78125,-0.59375 0.264468,-0.20754 0.493455,-0.39466 0.65625,-0.53125 0.0407,-0.0341 0.0777,-0.0491 0.125,-0.0937 0.02365,-0.0223 0.04509,-0.0687 0.09375,-0.125 0.02433,-0.0281 0.07533,-0.0459 0.125,-0.125 0.01159,-0.0185 0.01274,-0.0566 0.03125,-0.0937 9.792927,-9.35059 27.456717,-28.634354 38.499997,-39.8125 1.71056,-1.710561 3.78125,-3.905917 3.78125,-8.5625 l 0,-68.39361 c 1.5e-4,-0.010416 1.5e-4,-0.020834 0,-0.03125 -0.0194,-1.0720969 -0.80283,-1.8556268 -1.875,-1.875 -0.0104,-1.484e-4 -0.0209,-1.484e-4 -0.0313,0 l -102.27906,0 c -0.03303,-0.00313 -0.06067,0.00142 -0.09375,0 -0.08821,-0.00379 -0.161926,-0.00834 -0.25,0 -0.04162,-0.00237 -0.08338,-0.00237 -0.125,0 z"
       id="path3314"
       inkscape:connector-curvature="0"
       sodipodi:nodetypes="cccccccsccccscsccccsccccccccc" />
    <path
       style="fill:#ffffff;fill-opacity:1"
       d="m 16.072365,8.0771252 0,111.4992648 49.707827,-0.0771 c 1.577682,0 3.686257,-0.53663 6.592193,-3.42109 8.353294,-8.2916 30.207015,-29.952167 37.042715,-36.912327 2.29836,-2.340224 2.82611,-4.248961 2.82611,-6.389865 L 112.23821,8 z"
       id="path34"
       sodipodi:nodetypes="cccssccc"
       inkscape:connector-curvature="0" />
    <path
       style="fill:url(#linearGradient4524-4);fill-opacity:1"
       d="m 22.330709,13.864607 c -0.32004,0 -0.470863,0.220889 -0.470863,0.470743 l 0,98.04132 c 0,0.7735 0.639738,1.41283 1.412596,1.41224 l 38.774516,-0.0295 c 0.04998,-4e-5 0.763164,0.022 1.412595,0.0295 1.67408,-0.0377 2.949474,-0.70964 4.10221,-1.50006 0.990574,-0.274 27.991428,-26.655867 36.581047,-35.307802 1.28302,-1.292303 2.05813,-3.71715 2.05813,-4.609153 l 0,-58.036545 c 0,-0.303834 -0.15371,-0.470743 -0.47087,-0.470743 z"
       id="path3967"
       inkscape:connector-curvature="0"
       sodipodi:nodetypes="ccsssccscccc" />
    <path
       sodipodi:nodetypes="ccssscccccc"
       inkscape:connector-curvature="0"
       id="path5980"
       d="m 26.330709,17.864607 c -0.32004,0 -0.470863,0.220889 -0.470863,0.470743 l -4,94.04132 c -0.03287,0.77281 0.639752,1.40754 1.412596,1.41224 l 43.527137,0.26444 c 0.04998,3e-4 3.083114,-0.007 3.732546,4e-5 6.159831,-4.24013 28.87563,-26.117493 37.299625,-34.592579 0.61903,-0.694148 0.43093,-0.348416 1.36919,-1.513403 l 0,-63.612058 c 0,-0.303834 -0.15371,-0.470743 -0.47087,-0.470743 z"
       style="opacity:0.84653476;fill:url(#radialGradient5988-0);fill-opacity:1" />
    <path
       style="fill:#000000"
       d=""
       id="path2197" />
    <path
       clip-path="url(#clipPath6093-7)"
       style="opacity:0.34728035;fill:#000000;fill-opacity:1;stroke:none;filter:url(#filter6171-8)"
       d="m 116.12376,78.971565 c 0,4.465301 -6.19771,3.506816 -8.67994,5.190489 -5.10854,3.46508 -20.174687,2.225237 -25.955857,2.306257 -0.081,5.781159 -0.937221,19.675219 -0.937221,25.825239 0,2.97817 -3.440475,11.20945 -6.350745,11.20945 -2.091359,1.5337 3.488204,8.21101 6.734971,5.31989 9.501888,-8.46107 35.131682,-30.022704 43.350822,-39.262889 2.04044,-2.29392 -3.18138,-13.376087 -8.16203,-10.588436 z"
       id="path6153"
       inkscape:connector-curvature="0"
       sodipodi:nodetypes="cscscssc"
       transform="matrix(1.1813248,0,0,1.2086603,-24.263752,-24.510815)" />
    <g
       transform="matrix(2.2319674,0,0,2.2319674,-95.72961,-149.67304)"
       id="g4094"
       style="font-size:30px;font-style:normal;font-variant:normal;font-weight:normal;font-stretch:normal;line-height:125%;letter-spacing:0px;word-spacing:0px;fill:#131313;fill-opacity:1;stroke:none;font-family:Swis721 Lt BT;-inkscape-font-specification:Swis721 Lt BT">
      <path
         sodipodi:type="inkscape:offset"
         inkscape:radius="5.255949"
         inkscape:original="M 16.90625 29.5 C 16.760915 29.54451 16.653816 29.691771 16.65625 29.84375 L 16.65625 78 C 16.66115 78.1786 16.8214 78.338846 17 78.34375 L 21.09375 78.34375 C 21.27235 78.338846 21.432596 78.1786 21.4375 78 L 21.4375 57.5 C 21.437491 54.05505 22.368594 51.372343 24.21875 49.375 C 25.185834 48.331862 25.941923 47.55647 26.8125 47.0625 C 27.683077 46.56853 28.696001 46.312515 30.28125 46.3125 C 33.408968 46.31253 31.146292 47.015043 32.3125 48.40625 C 33.442505 49.734556 34.125 52.603138 34.125 56.90625 L 34.125 78 C 34.1299 78.1786 34.29015 78.338846 34.46875 78.34375 L 38.5625 78.34375 C 38.7411 78.338846 38.901346 78.1786 38.90625 78 L 38.90625 56.84375 C 38.906217 53.673894 38.78978 51.469029 38.5625 50.21875 C 38.339035 48.989894 37.998563 47.937931 37.46875 47.0625 C 36.471623 45.476244 35.006154 44.239586 33.125 43.34375 C 31.256189 42.453886 33.417862 42.000037 31.0625 42 C 28.506445 42.000037 27.627128 42.562406 25.71875 43.625 C 24.051808 44.553206 22.635332 45.874758 21.4375 47.53125 L 21.4375 29.84375 C 21.432596 29.66515 21.27235 29.504904 21.09375 29.5 L 17 29.5 C 16.96893 29.4958 16.93732 29.4958 16.90625 29.5 z M 65.15625 41.53125 C 60.281007 41.531287 56.393531 43.204573 53.625 46.53125 C 50.878668 49.858135 49.531248 54.459746 49.53125 60.3125 C 49.531248 66.057356 50.878106 70.592152 53.625 73.875 C 56.372456 77.158563 60.222791 78.78125 65.03125 78.78125 C 69.060114 78.78125 72.410571 77.73137 75.09375 75.5625 C 77.775188 73.372643 79.366932 70.421364 79.8125 66.8125 C 79.82402 66.623592 79.657945 66.442415 79.46875 66.4375 L 75.4375 66.4375 C 75.277434 66.4386 75.126494 66.562065 75.09375 66.71875 C 74.712117 69.199198 73.669608 71.103756 71.90625 72.53125 C 70.140932 73.939279 67.940189 74.6875 65.28125 74.6875 C 61.924616 74.6875 59.30017 73.462992 57.3125 71.03125 C 55.350722 68.61035 54.338259 65.365699 54.3125 61.25 L 79.96875 61.25 C 80.14735 61.2451 80.307596 61.08485 80.3125 60.90625 L 80.3125 59.5625 C 80.3125 53.926763 78.995709 49.487696 76.3125 46.3125 C 73.651929 43.115411 69.898473 41.531287 65.15625 41.53125 z M 84.625 42.875 C 84.418069 42.94124 84.317988 43.224799 84.4375 43.40625 L 95.96875 60.15625 L 83.90625 77.8125 C 83.785362 78.019249 83.94855 78.327501 84.1875 78.34375 L 89 78.34375 C 89.111273 78.33985 89.219178 78.27993 89.28125 78.1875 L 98.90625 63.90625 L 105.28125 74.84375 C 105.29935 74.86709 105.32045 74.88814 105.34375 74.90625 C 105.41075 74.96819 105.50252 75.00259 105.59375 75 L 110.65625 75 C 110.90569 75.0048 111.09415 74.684429 110.96875 74.46875 L 101.71875 60.0625 L 112.96875 43.40625 C 113.08964 43.199501 112.92645 42.891249 112.6875 42.875 L 107.8125 42.875 C 107.69086 42.8685 107.56781 42.93006 107.5 43.03125 L 98.84375 56.4375 L 90.03125 43.03125 C 89.969178 42.938818 89.861273 42.87887 89.75 42.875 L 84.71875 42.875 C 84.68768 42.8708 84.65607 42.8708 84.625 42.875 z M 65.09375 45.71875 C 68.173702 45.71878 70.541876 46.746948 72.375 48.875 C 72.38541 48.87546 72.39584 48.87546 72.40625 48.875 C 74.195886 50.908732 75.213297 53.752805 75.4375 57.34375 L 54.40625 57.3125 C 54.653054 53.807502 55.709116 51.014933 57.5625 48.9375 C 59.504686 46.784224 61.992113 45.71878 65.09375 45.71875 z "
         style="fill:#ffffff;fill-opacity:1"
         id="path4098"
         d="m 17,24.25 0,0.03125 c -0.265802,-0.0022 -0.547167,-0.03587 -0.8125,0 a 5.2564746,5.2564746 0 0 0 -0.8125,0.1875 c -2.526294,0.773698 -3.974867,2.749789 -3.96875,5.375 7.6e-5,0.03264 -5.26e-4,0.0609 0,0.09375 l 0,48.0625 a 5.2564746,5.2564746 0 0 0 0,0.15625 c 0.08869,3.232853 2.204804,5.348737 5.4375,5.4375 a 5.2564746,5.2564746 0 0 0 0.15625,0 l 4.09375,0 a 5.2564746,5.2564746 0 0 0 0.15625,0 c 3.232698,-0.08876 5.348737,-2.204802 5.4375,-5.4375 a 5.2564746,5.2564746 0 0 0 0,-0.15625 l 0,-20.5 c -7e-6,-2.497889 0.521864,-3.641494 1.375,-4.5625 0.184374,-0.198874 0.134285,-0.100728 0.28125,-0.25 0.216604,0.895253 0.53125,2.345067 0.53125,4.21875 L 28.875,78 a 5.2564746,5.2564746 0 0 0 0,0.15625 c 0.0887,3.232853 2.204804,5.348737 5.4375,5.4375 a 5.2564746,5.2564746 0 0 0 0.15625,0 l 4.09375,0 a 5.2564746,5.2564746 0 0 0 0.15625,0 c 3.232698,-0.08876 5.348737,-2.204802 5.4375,-5.4375 a 5.2564746,5.2564746 0 0 0 0,-0.15625 l 0,-21.15625 c -3.4e-5,-3.29854 -0.07224,-5.553191 -0.4375,-7.5625 -0.297131,-1.633954 -0.770938,-3.319756 -1.75,-4.9375 A 5.2564746,5.2564746 0 0 0 41.90625,44.25 c -1.319882,-2.099703 -3.238811,-3.651296 -5.34375,-4.875 -0.791722,-1.145125 -1.96577,-1.991724 -2.6875,-2.25 -1.665218,-0.59591 -2.054854,-0.374988 -2.8125,-0.375 -1.6058,2.3e-5 -3.076755,0.297314 -4.375,0.71875 l 0,-7.625 a 5.2564746,5.2564746 0 0 0 0,-0.15625 C 26.598737,26.454802 24.482698,24.338763 21.25,24.25 a 5.2564746,5.2564746 0 0 0 -0.15625,0 L 17,24.25 z m 48.15625,12.03125 c -6.077857,4.6e-5 -11.800811,2.354941 -15.5625,6.875 A 5.2564746,5.2564746 0 0 0 49.5625,43.1875 c -3.723774,4.510951 -5.281252,10.465563 -5.28125,17.125 -2e-6,6.566347 1.579522,12.47617 5.3125,16.9375 3.751451,4.483466 9.446575,6.78125 15.4375,6.78125 4.941961,0 9.673159,-1.382724 13.375,-4.375 a 5.2564746,5.2564746 0 0 0 0,-0.03125 c 0.171612,-0.140151 0.303024,-0.322687 0.46875,-0.46875 0.117914,0.497534 0.187821,1.024909 0.40625,1.4375 0.758276,1.432313 2.279309,2.844739 4.5625,3 a 5.2564746,5.2564746 0 0 0 0.34375,0 l 4.8125,0 a 5.2564746,5.2564746 0 0 0 0.1875,0 c 1.867599,-0.06546 3.390153,-0.921662 4.4375,-2.46875 L 98.59375,73.78125 100.75,77.5 a 5.2564746,5.2564746 0 0 0 0.375,0.5625 c 0.20108,0.259289 0.45083,0.472277 0.6875,0.6875 l -0.0313,0.03125 c 0.0469,0.04334 0.10854,0.05228 0.15625,0.09375 0.0663,0.05662 0.1186,0.133944 0.1875,0.1875 L 102.15625,79 c 0.99849,0.795211 2.14504,1.220902 3.4375,1.21875 l 0,0.03125 0.15625,0 4.8125,0 c 0.0334,6.42e-4 0.0607,-9.3e-5 0.0937,0 2.34611,0.0066 3.97968,-1.365466 4.8125,-2.78125 0.84457,-1.435753 1.23741,-3.581736 0.0313,-5.65625 a 5.2564746,5.2564746 0 0 0 -0.0937,-0.1875 L 108,60.125 117.3125,46.34375 A 5.2564746,5.2564746 0 0 0 117.5,46.0625 c 1.15514,-1.975553 0.85203,-4.005184 0.0937,-5.4375 -0.75828,-1.432316 -2.27931,-2.844739 -4.5625,-3 a 5.2564746,5.2564746 0 0 0 -0.34375,0 l -4.59375,0 -0.28125,0 0,0.0625 c -1.93794,-0.01257 -3.5896,0.767898 -4.6875,2.40625 a 5.2564746,5.2564746 0 0 0 -0.0313,0.09375 l -4.28125,6.625 -4.375,-6.65625 a 5.2564746,5.2564746 0 0 0 -0.03125,-0.0625 C 93.358864,38.534078 91.815142,37.690303 89.9375,37.625 a 5.2564746,5.2564746 0 0 0 -0.1875,0 l -5.03125,0 0,0.03125 c -0.265802,-0.0022 -0.547167,-0.03587 -0.8125,0 a 5.2564746,5.2564746 0 0 0 -0.875,0.21875 c -2.180088,0.697861 -3.451526,2.220432 -3.84375,4 -3.643255,-3.636972 -8.668151,-5.593708 -14.03125,-5.59375 z M 35.375,38.59375 c 0.02348,0.01118 0.284501,0.117332 0.59375,0.375 -0.207049,-0.109032 -0.382785,-0.274535 -0.59375,-0.375 z m -8.59375,7.8125 c 0.08718,-1.053384 -0.008,-0.02992 0.15625,1.46875 -0.139796,-0.632002 -0.179176,-1.191737 -0.15625,-1.46875 z m 38.3125,4.5625 c 1.705905,1.7e-5 2.277296,0.320472 3.03125,1.125 L 61.96875,52.0625 c 0.796196,-0.729793 1.550681,-1.093735 3.125,-1.09375 z M 85,53.5 l 4.59375,6.65625 -4.5625,6.6875 C 85.051104,65.867301 84.846807,65.015787 84.5,64.25 c 0.613721,-0.875053 1.027465,-1.911536 1.0625,-3.1875 a 5.2564746,5.2564746 0 0 0 0,-0.15625 l 0,-1.34375 C 85.5625,57.453787 85.351145,55.444301 85,53.5 z m -24.21875,13 8.96875,0 c -0.21714,0.913718 -0.526179,1.427438 -1.15625,1.9375 -0.803888,0.635281 -1.654696,1 -3.3125,1 -2.066469,0 -2.785454,-0.391545 -3.875,-1.71875 -0.257577,-0.317859 -0.4116,-0.822433 -0.625,-1.21875 z"
         transform="matrix(0.44803522,0,0,0.44803522,42.935041,67.058793)" />
    </g>
    <path
       sodipodi:nodetypes="cscscssc"
       inkscape:connector-curvature="0"
       id="path6081"
       d="m 113.9,82.502986 c 0,4.465301 -10.43981,5.304142 -13.42995,5.727919 -6.394979,0.906328 -14.119031,-0.156997 -19.900201,-0.07598 -0.505268,6.06824 0.8669,24.053992 1.224403,26.575982 0.418175,2.94999 -3.883991,8.07209 -6.794261,8.07209 -2.091359,1.5337 3.488204,11.21101 6.734971,8.31989 C 91.23685,122.66182 127.7339,100.92151 135.95304,91.681321 137.99348,89.387401 118.88065,79.715335 113.9,82.502986 z"
       style="fill:#000000;fill-opacity:1;stroke:none;filter:url(#filter3827)"
       clip-path="url(#clipPath6093-7)"
       transform="matrix(1.2864191,0,0,1.3161866,-33.246593,-37.128335)" />
    <path
       style="fill:url(#linearGradient3895-3);fill-opacity:1;stroke:none"
       d="m 111.63282,69.537665 c 0,6.018752 -3.68896,8.639938 -6.96218,10.909345 -6.736467,4.670565 -20.601656,3.681674 -28.225086,3.790881 -0.106814,7.792391 0.681931,20.811609 -3.887352,27.697379 -2.220198,3.3458 -6.53768,8.14845 -10.375353,8.14845 3.056706,0 6.25422,-1.79911 10.000786,-5.50589 12.055202,-11.92716 22.901451,-21.748749 33.854305,-34.098401 2.53047,-2.853145 5.59488,-4.908872 5.59488,-10.941764 z"
       id="path6011"
       inkscape:connector-curvature="0"
       sodipodi:nodetypes="cscscssc" />
    <path
       style="fill:#ffffff;fill-opacity:1;stroke:none"
       d="m 110.71058,68.281346 c -0.41723,5.255588 -4.27313,7.093026 -6.37262,8.548644 C 99.360203,80.281173 92.747881,80 72,80 c 0,19.101497 0.485919,27.6002 -3.129233,32.26786 -2.152106,2.77868 -6.461106,5.87696 -9.97277,6.67209 4.811835,0 8.170308,-1.05121 11.313766,-4.16129 C 70.658946,114.25496 79.29853,105.10667 80,104 c 0,-8 0,-4.430898 0,-16 7.62343,-0.109179 8,0 16,0 0.746829,0 10.14294,-9.613144 10.69263,-10.162835 3.05326,-3.053253 3.71528,-4.99949 4.01795,-9.555819 z M 58.897997,118.93995 c -0.207898,0.0469 -0.413317,0.0558 -0.618125,0.0842 0.20702,-0.0228 0.409371,-0.0452 0.618125,-0.0842 z"
       id="path6122"
       inkscape:connector-curvature="0"
       sodipodi:nodetypes="cscsccccsscccc" />
    <path
       style="fill:none;stroke:url(#radialGradient3919-5);stroke-width:1.85605633;stroke-linecap:butt;stroke-linejoin:miter;stroke-miterlimit:4;stroke-opacity:1;stroke-dasharray:none;filter:url(#filter3909-6)"
       d="M 108.97651,89.508691 79.934895,118.21077"
       id="path3873"
       inkscape:connector-curvature="0"
       sodipodi:nodetypes="cc"
       clip-path="url(#clipPath3889-6)"
       transform="matrix(1.3186655,0,0,1.3478946,-36.057732,-41.667663)" />
    <path
       style="opacity:0.45606695;fill:#000000;fill-opacity:1;filter:url(#filter4123-0)"
       d="m 13.333,5.3364 0,118.3304 49.8545,-0.0668 c 2.115554,-0.003 4.528919,-1.77169 7,-4.25 0.71234,-0.71442 1.440746,-1.39395 2.15625,-2.09375 0.415612,-0.40649 0.832187,-0.81443 1.25,-1.21875 7.773958,-7.40962 26.98341,-25.122599 34.21875,-33.099999 0.42065,-0.42064 0.81207,-0.8111 1.15625,-1.1875 1.46444,-1.49766 2.76158,-2.8378 2.99375,-5.8625 L 112,75.156251 111.9972,5.3364 z"
       id="path5990-2"
       inkscape:connector-curvature="0"
       sodipodi:nodetypes="ccsssccccccc"
       transform="matrix(1.003095,0,0,0.98228452,-321.66692,-95.137186)" />
    <path
       style="fill:#ffffff;fill-opacity:1"
       d="m -308.29265,-89.992096 0,116.330904 49.4851,0 c 1.68048,0 3.92645,-0.55989 7.02175,-3.56934 8.89761,-8.6509 32.17535,-31.250103 39.45648,-38.511869 2.44813,-2.441635 3.01026,-4.433083 3.01026,-6.66676 l -0.003,-67.582935 z"
       id="path34-6"
       sodipodi:nodetypes="cccssccc"
       inkscape:connector-curvature="0" />
    <path
       style="fill:url(#linearGradient3317);fill-opacity:1"
       d="m -302.82199,-85.083823 c -0.34089,0 -0.50155,0.230461 -0.50155,0.491142 l 0,104.549779 c 0,0.80702 0.68143,1.474 1.50465,1.47343 l 44.49661,-0.0308 c 0.0532,-4e-5 0.8129,0.0229 1.50465,0.0308 1.78316,-0.0393 3.14166,-0.74038 4.36951,-1.56504 1.05512,-0.28588 25.8154,-23.810974 34.96474,-32.837827 1.36662,-1.348301 2.19223,-3.878226 2.19223,-4.808882 l 0,-66.81146 c 0,-0.317 -0.16372,-0.491143 -0.50156,-0.491143 z"
       id="path3967-1"
       inkscape:connector-curvature="0"
       sodipodi:nodetypes="ccsssccscccc" />
    <path
       sodipodi:nodetypes="ccssscccccc"
       inkscape:connector-curvature="0"
       id="path5980-0"
       d="m -302.82199,-85.183823 c -0.34089,0 -0.50155,0.230461 -0.50155,0.491142 l 0,104.549779 c 0,0.80703 0.68144,1.46853 1.50465,1.47343 l 46.36344,0.27591 c 0.0532,3.2e-4 3.28401,-0.008 3.97576,5e-5 6.56122,-4.42387 26.75722,-26.379267 35.73013,-35.221607 0.65937,-0.724227 0.45902,-0.363513 1.45841,-1.578984 l 0,-69.498578 c 0,-0.317 -0.16372,-0.491143 -0.50156,-0.491143 z"
       style="opacity:0.84653476;fill:url(#radialGradient3295);fill-opacity:1" />
    <path
       inkscape:connector-curvature="0"
       style="fill:#000000"
       d=""
       id="path2197-61" />
    <path
       clip-path="url(#clipPath6093-7-1)"
       style="opacity:0.60563378;fill:#000000;fill-opacity:1;stroke:none;filter:url(#filter6171-8-8)"
       d="m 114.4,82.502986 c 0,4.465301 -9.3766,4.299815 -11.85883,5.983488 -5.108537,3.46508 -16.574334,-0.810699 -22.355504,-0.729679 -0.081,5.781159 0.365076,18.386735 0.365076,24.536755 0,2.97817 -3.440475,11.20945 -6.350745,11.20945 -2.091359,1.5337 3.488204,8.21101 6.734971,5.31989 9.501888,-8.46107 35.131682,-30.022701 43.350822,-39.262886 2.04044,-2.29392 -4.90514,-9.844666 -9.88579,-7.057018 z"
       id="path6153-5"
       inkscape:connector-curvature="0"
       sodipodi:nodetypes="cscscssc"
       transform="matrix(1.258302,0,0,1.2610357,-351.25714,-123.99218)" />
    <path
       sodipodi:nodetypes="cscscssc"
       inkscape:connector-curvature="0"
       id="path6081-9"
       d="m 113.9,82.502986 c 0,4.465301 -7.96273,7.457662 -10.95287,7.881439 -6.394981,0.906328 -15.304541,-0.844131 -21.085711,-0.763111 -0.081,5.781159 3.397918,20.001056 -0.06716,25.109596 -1.68367,2.48224 -3.883991,8.07209 -6.794261,8.07209 -2.091359,1.5337 3.488204,11.21101 6.734971,8.31989 9.501888,-8.46107 45.998941,-30.20138 54.218081,-39.441569 2.04044,-2.29392 -17.0724,-11.965986 -22.05305,-9.178335 z"
       style="opacity:0.64319249;fill:#000000;fill-opacity:1;stroke:none;filter:url(#filter4087)"
       clip-path="url(#clipPath6093-7-1)"
       transform="matrix(1.3586765,0,0,1.3616521,-362.28402,-135.98381)" />
    <g
       style="font-size:30px;font-style:normal;font-variant:normal;font-weight:normal;font-stretch:normal;line-height:125%;letter-spacing:0px;word-spacing:0px;fill:#131313;fill-opacity:1;stroke:none;font-family:Swis721 Lt BT;-inkscape-font-specification:Swis721 Lt BT"
       id="text4113"
       transform="matrix(2.2319674,0,0,2.2319674,-95.72961,-149.67304)">
      <path
         style="fill:#131313;fill-opacity:1"
         d="m 16.90625,29.5 c -0.145335,0.04451 -0.252434,0.191771 -0.25,0.34375 l 0,48.15625 c 0.0049,0.1786 0.16515,0.338846 0.34375,0.34375 l 4.09375,0 C 21.27235,78.338846 21.432596,78.1786 21.4375,78 l 0,-20.5 c -9e-6,-3.44495 0.931094,-6.127657 2.78125,-8.125 0.967084,-1.043138 1.723173,-1.81853 2.59375,-2.3125 0.870577,-0.49397 1.883501,-0.749985 3.46875,-0.75 3.127718,3e-5 0.865042,0.702543 2.03125,2.09375 1.130005,1.328306 1.8125,4.196888 1.8125,8.5 L 34.125,78 c 0.0049,0.1786 0.16515,0.338846 0.34375,0.34375 l 4.09375,0 C 38.7411,78.338846 38.901346,78.1786 38.90625,78 l 0,-21.15625 c -3.3e-5,-3.169856 -0.11647,-5.374721 -0.34375,-6.625 C 38.339035,48.989894 37.998563,47.937931 37.46875,47.0625 36.471623,45.476244 35.006154,44.239586 33.125,43.34375 31.256189,42.453886 33.417862,42.000037 31.0625,42 c -2.556055,3.7e-5 -3.435372,0.562406 -5.34375,1.625 -1.666942,0.928206 -3.083418,2.249758 -4.28125,3.90625 l 0,-17.6875 C 21.432596,29.66515 21.27235,29.504904 21.09375,29.5 L 17,29.5 c -0.03107,-0.0042 -0.06268,-0.0042 -0.09375,0 z m 48.25,12.03125 c -4.875243,3.7e-5 -8.762719,1.673323 -11.53125,5 -2.746332,3.326885 -4.093752,7.928496 -4.09375,13.78125 -2e-6,5.744856 1.346856,10.279652 4.09375,13.5625 2.747456,3.283563 6.597791,4.90625 11.40625,4.90625 4.028864,0 7.379321,-1.04988 10.0625,-3.21875 2.681438,-2.189857 4.273182,-5.141136 4.71875,-8.75 0.01152,-0.188908 -0.154555,-0.370085 -0.34375,-0.375 l -4.03125,0 c -0.160066,0.0011 -0.311006,0.124565 -0.34375,0.28125 -0.381633,2.480448 -1.424142,4.385006 -3.1875,5.8125 -1.765318,1.408029 -3.966061,2.15625 -6.625,2.15625 -3.356634,0 -5.98108,-1.224508 -7.96875,-3.65625 -1.961778,-2.4209 -2.974241,-5.665551 -3,-9.78125 l 25.65625,0 c 0.1786,-0.0049 0.338846,-0.16515 0.34375,-0.34375 l 0,-1.34375 c 0,-5.635737 -1.316791,-10.074804 -4,-13.25 -2.660571,-3.197089 -6.414027,-4.781213 -11.15625,-4.78125 z M 84.625,42.875 c -0.206931,0.06624 -0.307012,0.349799 -0.1875,0.53125 l 11.53125,16.75 -12.0625,17.65625 c -0.120888,0.206749 0.0423,0.515001 0.28125,0.53125 l 4.8125,0 c 0.111273,-0.0039 0.219178,-0.06382 0.28125,-0.15625 l 9.625,-14.28125 6.375,10.9375 c 0.0181,0.02334 0.0392,0.04439 0.0625,0.0625 0.067,0.06194 0.15877,0.09634 0.25,0.09375 l 5.0625,0 c 0.24944,0.0048 0.4379,-0.315571 0.3125,-0.53125 l -9.25,-14.40625 11.25,-16.65625 c 0.12089,-0.206749 -0.0423,-0.515001 -0.28125,-0.53125 l -4.875,0 c -0.12164,-0.0065 -0.24469,0.05506 -0.3125,0.15625 L 98.84375,56.4375 90.03125,43.03125 C 89.969178,42.938818 89.861273,42.87887 89.75,42.875 l -5.03125,0 c -0.03107,-0.0042 -0.06268,-0.0042 -0.09375,0 z m -19.53125,2.84375 c 3.079952,3e-5 5.448126,1.028198 7.28125,3.15625 0.01041,4.6e-4 0.02084,4.6e-4 0.03125,0 1.789636,2.033732 2.807047,4.877805 3.03125,8.46875 L 54.40625,57.3125 c 0.246804,-3.504998 1.302866,-6.297567 3.15625,-8.375 1.942186,-2.153276 4.429613,-3.21872 7.53125,-3.21875 z"
         id="path3323"
         inkscape:connector-curvature="0"
         sodipodi:nodetypes="ccccccscsccscccccccccccccccccsssccccccsccccscccccccccccccccccccccccccccccccc"
         transform="matrix(0.44803522,0,0,0.44803522,42.935041,67.058793)" />
    </g>
    <path
       style="fill:url(#linearGradient3285);fill-opacity:1;stroke:none"
       d="m -209.26682,-25.633211 c 0,6.22666 -3.89615,8.938389 -7.35324,11.28619 -7.11485,4.831902 -21.75884,3.808851 -29.81047,3.92183 -0.11281,8.061568 0.72023,21.530529 -4.1057,28.654139 -2.34491,3.46138 -6.9049,8.42993 -10.95813,8.42993 3.2284,0 6.60551,-1.86127 10.56252,-5.69609 12.73234,-12.33915 24.18781,-22.50002 35.75589,-35.27627 2.67259,-2.951702 5.90913,-5.078441 5.90913,-11.319729 z"
       id="path6011-4"
       inkscape:connector-curvature="0"
       sodipodi:nodetypes="cscscssc" />
    <path
       style="fill:#ffffff;fill-opacity:1;stroke:none"
       d="m -209.24074,-26.067576 c -0.44065,5.437134 -4.51314,7.338042 -6.73057,8.843942 -5.25734,3.570397 -12.24108,3.279514 -34.15435,3.279514 0,19.761338 0.51321,28.553598 -3.305,33.382518 -2.27299,2.87466 -6.82403,6.07997 -10.53294,6.90254 5.08212,0 8.62923,-1.08751 11.94926,-4.30502 0.4723,-0.5418 1.41569,-1.55003 2.15657,-2.69493 3.94064,-5.81684 3.83781,-17.294735 3.83781,-29.263474 8.05163,-0.11295 22.20245,1.162156 29.31729,-3.669742 0.64822,-0.440215 2.63774,-2.020759 3.2183,-2.58944 3.22475,-3.158721 3.92397,-5.17219 4.24363,-9.885908 z m -54.72286,52.408514 c -0.21957,0.0485 -0.43653,0.0579 -0.65284,0.087 0.21864,-0.0234 0.43236,-0.0468 0.65284,-0.087 z"
       id="path6122-9"
       inkscape:connector-curvature="0"
       sodipodi:nodetypes="cscsccccsscccc" />
    <path
       style="fill:none;stroke:url(#radialGradient3919-5-2);stroke-width:1.82707405;stroke-linecap:butt;stroke-linejoin:miter;stroke-miterlimit:4;stroke-opacity:1;stroke-dasharray:none;filter:url(#filter3909-6-3)"
       d="M 108.97651,89.508691 79.934895,118.21077"
       id="path3873-0"
       inkscape:connector-curvature="0"
       sodipodi:nodetypes="cc"
       clip-path="url(#clipPath3889-6-4)"
       transform="matrix(1.3927341,0,0,1.3944553,-365.25306,-140.67994)" />
    <path
       inkscape:connector-curvature="0"
       style="fill:#000000"
       d=""
       id="path2197-6" />
  </g>
</svg>
