<?xml version="1.0" encoding="UTF-8" standalone="no"?>
<!-- Created with Inkscape (http://www.inkscape.org/) -->

<svg
   xmlns:dc="http://purl.org/dc/elements/1.1/"
   xmlns:cc="http://creativecommons.org/ns#"
   xmlns:rdf="http://www.w3.org/1999/02/22-rdf-syntax-ns#"
   xmlns:svg="http://www.w3.org/2000/svg"
   xmlns="http://www.w3.org/2000/svg"
   xmlns:xlink="http://www.w3.org/1999/xlink"
   xmlns:sodipodi="http://sodipodi.sourceforge.net/DTD/sodipodi-0.dtd"
   xmlns:inkscape="http://www.inkscape.org/namespaces/inkscape"
   width="128"
   height="128"
   id="svg2"
   sodipodi:version="0.32"
   inkscape:version="0.48.1 r9760"
   version="1.0"
   enable-background="new"
   sodipodi:docname="tools-check-spelling.svgz"
   inkscape:output_extension="org.inkscape.output.svgz.inkscape"
   inkscape:export-filename="/home/pinheiro/pics/oxygen-icons/scalable/actions/small/16x16/tools-check-spelling.png"
   inkscape:export-xdpi="90"
   inkscape:export-ydpi="90">
  <defs
     id="defs4">
    <linearGradient
       inkscape:collect="always"
       id="linearGradient3436">
      <stop
         style="stop-color:#ffffff;stop-opacity:1;"
         offset="0"
         id="stop3438" />
      <stop
         style="stop-color:#ffffff;stop-opacity:0;"
         offset="1"
         id="stop3440" />
    </linearGradient>
    <linearGradient
       inkscape:collect="always"
       id="linearGradient3415">
      <stop
         style="stop-color:#f0ff80;stop-opacity:1;"
         offset="0"
         id="stop3417" />
      <stop
         style="stop-color:#f0ff80;stop-opacity:0;"
         offset="1"
         id="stop3419" />
    </linearGradient>
    <linearGradient
       inkscape:collect="always"
       id="linearGradient2998">
      <stop
         style="stop-color:#ffffff;stop-opacity:1;"
         offset="0"
         id="stop3000" />
      <stop
         style="stop-color:#ffffff;stop-opacity:0;"
         offset="1"
         id="stop3002" />
    </linearGradient>
    <linearGradient
       inkscape:collect="always"
       id="linearGradient2981">
      <stop
         style="stop-color:#001400;stop-opacity:1;"
         offset="0"
         id="stop2983" />
      <stop
         style="stop-color:#001400;stop-opacity:0;"
         offset="1"
         id="stop2985" />
    </linearGradient>
    <linearGradient
       inkscape:collect="always"
       id="linearGradient2971">
      <stop
         style="stop-color:#bfffbf;stop-opacity:1;"
         offset="0"
         id="stop2973" />
      <stop
         style="stop-color:#bfffbf;stop-opacity:0;"
         offset="1"
         id="stop2975" />
    </linearGradient>
    <linearGradient
       inkscape:collect="always"
       id="linearGradient2956">
      <stop
         style="stop-color:#003100;stop-opacity:1;"
         offset="0"
         id="stop2958" />
      <stop
         style="stop-color:#008c00;stop-opacity:1"
         offset="1"
         id="stop2960" />
    </linearGradient>
    <linearGradient
       inkscape:collect="always"
       id="linearGradient2948">
      <stop
         style="stop-color:#66f515;stop-opacity:1"
         offset="0"
         id="stop2950" />
      <stop
         style="stop-color:#002e00;stop-opacity:1"
         offset="1"
         id="stop2952" />
    </linearGradient>
    <radialGradient
       inkscape:collect="always"
       xlink:href="#linearGradient2948"
       id="radialGradient2954"
       cx="54.537579"
       cy="77.542084"
       fx="54.537579"
       fy="99.883759"
       r="48.000004"
       gradientTransform="matrix(1.3537573,6.0385115e-8,-4.5257853e-8,1.0160126,-13.498529,18.259014)"
       gradientUnits="userSpaceOnUse" />
    <linearGradient
       inkscape:collect="always"
       xlink:href="#linearGradient2956"
       id="linearGradient2962"
       x1="89.090881"
       y1="103.89701"
       x2="89.090881"
       y2="30.849478"
       gradientUnits="userSpaceOnUse"
       gradientTransform="matrix(1.0320438,0,0,1.0327501,3.9491998,21.033265)" />
    <linearGradient
       inkscape:collect="always"
       xlink:href="#linearGradient2971"
       id="linearGradient2977"
       x1="83.324677"
       y1="24.0625"
       x2="83.324677"
       y2="89.99453"
       gradientUnits="userSpaceOnUse"
       gradientTransform="matrix(1.0320437,0,0,1.0327501,3.9491751,21.033265)" />
    <radialGradient
       inkscape:collect="always"
       xlink:href="#linearGradient2981"
       id="radialGradient2987"
       cx="52.791927"
       cy="95.459297"
       fx="53.15992"
       fy="87.08094"
       r="52.000004"
       gradientTransform="matrix(0.5827558,8.8117673e-8,-1.4310329e-7,0.9476925,29.156011,17.050894)"
       gradientUnits="userSpaceOnUse" />
    <radialGradient
       inkscape:collect="always"
       xlink:href="#linearGradient2998"
       id="radialGradient3004"
       cx="99.765625"
       cy="29.374895"
       fx="99.765625"
       fy="29.374895"
       r="3.015625"
       gradientTransform="matrix(1.9646726,3.4242959e-7,-1.0414508e-6,5.9752716,-96.241137,-146.14811)"
       gradientUnits="userSpaceOnUse" />
    <radialGradient
       inkscape:collect="always"
       xlink:href="#linearGradient2998"
       id="radialGradient3256"
       gradientUnits="userSpaceOnUse"
       gradientTransform="matrix(1.9646726,3.4242959e-7,-1.0414508e-6,5.9752716,-96.241137,-146.14811)"
       cx="99.765625"
       cy="29.374895"
       fx="99.765625"
       fy="29.374895"
       r="3.015625" />
    <radialGradient
       inkscape:collect="always"
       xlink:href="#linearGradient2998"
       id="radialGradient3288"
       gradientUnits="userSpaceOnUse"
       gradientTransform="matrix(1.9646726,3.4242959e-7,-1.0414508e-6,5.9752716,-167.24116,-126.14811)"
       cx="99.765625"
       cy="29.374895"
       fx="99.765625"
       fy="29.374895"
       r="3.015625" />
    <radialGradient
       inkscape:collect="always"
       xlink:href="#linearGradient2998"
       id="radialGradient3292"
       gradientUnits="userSpaceOnUse"
       gradientTransform="matrix(1.9646726,3.4242959e-7,-1.0414508e-6,5.9752716,-96.241137,-146.14811)"
       cx="99.765625"
       cy="29.374895"
       fx="99.765625"
       fy="29.374895"
       r="3.015625" />
    <linearGradient
       inkscape:collect="always"
       xlink:href="#linearGradient3415"
       id="linearGradient3421"
       x1="71.603867"
       y1="96.884026"
       x2="71.603867"
       y2="47.378731"
       gradientUnits="userSpaceOnUse" />
    <filter
       inkscape:collect="always"
       id="filter3423">
      <feGaussianBlur
         inkscape:collect="always"
         stdDeviation="0.425"
         id="feGaussianBlur3425" />
    </filter>
    <linearGradient
       inkscape:collect="always"
       xlink:href="#linearGradient3436"
       id="linearGradient3442"
       x1="87.533279"
       y1="74.838577"
       x2="77.137749"
       y2="46.277084"
       gradientUnits="userSpaceOnUse"
       gradientTransform="matrix(1.0320437,0,0,1.0327501,3.9491751,16.902265)" />
    <linearGradient
       inkscape:collect="always"
       xlink:href="#linearGradient3436"
       id="linearGradient3453"
       gradientUnits="userSpaceOnUse"
       gradientTransform="matrix(1.0320437,0,0,1.0327501,3.9491751,21.033265)"
       x1="83.324677"
       y1="24.0625"
       x2="83.324677"
       y2="69.837845" />
    <radialGradient
       inkscape:collect="always"
       xlink:href="#linearGradient3415"
       id="radialGradient3457"
       gradientUnits="userSpaceOnUse"
       gradientTransform="matrix(1.9646726,3.4242959e-7,-1.0414508e-6,5.9752716,-167.24116,-126.14811)"
       cx="99.765625"
       cy="29.374895"
       fx="99.765625"
       fy="29.374895"
       r="3.015625" />
    <radialGradient
       inkscape:collect="always"
       xlink:href="#linearGradient2998"
       id="radialGradient3511"
       gradientUnits="userSpaceOnUse"
       gradientTransform="matrix(1.0961401,0.0879121,-0.1002304,1.2497316,1.0599334,-18.687387)"
       cx="53.633381"
       cy="51.919601"
       fx="53.633381"
       fy="51.919601"
       r="52.000004" />
    <filter
       inkscape:collect="always"
       id="filter3521">
      <feBlend
         inkscape:collect="always"
         mode="lighten"
         in2="BackgroundImage"
         id="feBlend3523" />
    </filter>
    <filter
       inkscape:collect="always"
       id="filter3525"
       x="-0.18232919"
       width="1.3646584"
       y="-0.10289138"
       height="1.2057828">
      <feGaussianBlur
         inkscape:collect="always"
         stdDeviation="0.45819706"
         id="feGaussianBlur3527" />
    </filter>
    <filter
       inkscape:collect="always"
       id="filter3529"
       x="-0.18232919"
       width="1.3646584"
       y="-0.10289138"
       height="1.2057828">
      <feGaussianBlur
         inkscape:collect="always"
         stdDeviation="0.45819706"
         id="feGaussianBlur3531" />
    </filter>
    <filter
       inkscape:collect="always"
       id="filter3533"
       x="-0.10382974"
       width="1.2076595"
       y="-0.18512974"
       height="1.3702595">
      <feGaussianBlur
         inkscape:collect="always"
         stdDeviation="0.45819702"
         id="feGaussianBlur3535" />
    </filter>
    <filter
       inkscape:collect="always"
       id="filter3537"
       x="-0.18232919"
       width="1.3646584"
       y="-0.10289138"
       height="1.2057828">
      <feGaussianBlur
         inkscape:collect="always"
         stdDeviation="0.45819706"
         id="feGaussianBlur3539" />
    </filter>
    <filter
       inkscape:collect="always"
       id="filter3541"
       x="-0.10382974"
       width="1.2076595"
       y="-0.18512974"
       height="1.3702595">
      <feGaussianBlur
         inkscape:collect="always"
         stdDeviation="0.45819702"
         id="feGaussianBlur3543" />
    </filter>
    <linearGradient
       gradientTransform="matrix(1.6685877,0,0,1.5306984,-33.239934,-33.329614)"
       inkscape:collect="always"
       xlink:href="#linearGradient4126"
       id="linearGradient3911"
       gradientUnits="userSpaceOnUse"
       x1="58.929012"
       y1="58.6684"
       x2="58.929012"
       y2="5.3364" />
    <linearGradient
       id="linearGradient4126">
      <stop
         id="stop4128"
         offset="0"
         style="stop-color:#555555;stop-opacity:1;" />
      <stop
         id="stop4130"
         offset="1"
         style="stop-color:#000000;stop-opacity:1;" />
    </linearGradient>
    <linearGradient
       gradientTransform="matrix(1.6685877,0,0,1.55359,-33.239934,-33.880731)"
       inkscape:collect="always"
       xlink:href="#linearGradient4126"
       id="linearGradient3946"
       gradientUnits="userSpaceOnUse"
       x1="58.929012"
       y1="58.6684"
       x2="58.929012"
       y2="5.3364" />
    <linearGradient
       gradientTransform="matrix(1.6685877,0,0,1.55359,-33.239934,-33.880731)"
       y2="5.3364"
       x2="58.929012"
       y1="58.6684"
       x1="58.929012"
       gradientUnits="userSpaceOnUse"
       id="linearGradient4066"
       xlink:href="#linearGradient4126"
       inkscape:collect="always" />
    <filter
       inkscape:collect="always"
       id="filter3859">
      <feGaussianBlur
         inkscape:collect="always"
         stdDeviation="1.5891116"
         id="feGaussianBlur3861" />
    </filter>
  </defs>
  <sodipodi:namedview
     id="base"
     pagecolor="#ffffff"
     bordercolor="#666666"
     borderopacity="1.0"
     gridtolerance="10000"
     guidetolerance="10"
     objecttolerance="10"
     inkscape:pageopacity="0.0"
     inkscape:pageshadow="2"
     inkscape:zoom="2.8668213"
     inkscape:cx="47.804769"
     inkscape:cy="65.15525"
     inkscape:document-units="px"
     inkscape:current-layer="g2358"
     showgrid="true"
     showguides="true"
     inkscape:guide-bbox="true"
     inkscape:window-width="961"
     inkscape:window-height="792"
     inkscape:window-x="849"
     inkscape:window-y="91"
     inkscape:window-maximized="0">
    <inkscape:grid
       type="xygrid"
       id="grid2363"
       spacingx="8px"
       spacingy="8px"
       empspacing="5"
       visible="true"
       enabled="true"
       snapvisiblegridlinesonly="true" />
  </sodipodi:namedview>
  <metadata
     id="metadata7">
    <rdf:RDF>
      <cc:Work
         rdf:about="">
        <dc:format>image/svg+xml</dc:format>
        <dc:type
           rdf:resource="http://purl.org/dc/dcmitype/StillImage" />
        <dc:title></dc:title>
      </cc:Work>
    </rdf:RDF>
  </metadata>
  <g
     inkscape:label="Layer 1"
     inkscape:groupmode="layer"
     id="layer1">
    <g
       style="overflow:visible"
       id="g2358"
       transform="translate(2.3931686e-5,0)">
      <path
         d="m 24.322336,32.220148 -15.224967,0 L 4.872887,48 -1.6070368,48 13.398288,0 20.522626,0 35.599553,48 28.582617,48 24.322336,32.220148 m -12.787475,-6.253109 10.133653,0 L 16.799353,7.9999985 11.534861,25.967039"
         style="font-size:43.94123459px;font-style:normal;font-variant:normal;font-weight:normal;font-stretch:normal;line-height:125%;letter-spacing:0px;word-spacing:0px;fill:url(#linearGradient4066);fill-opacity:1;stroke:none;font-family:Nokia Pure Headline;-inkscape-font-specification:Nokia Pure Headline"
         id="path3125"
         inkscape:connector-curvature="0"
         sodipodi:nodetypes="ccccccccccccc" />
      <path
         d="m 55.036264,0 c 3.174305,4.8055758e-5 5.81162,0.38893676 7.911953,1.1666663 2.100275,0.7778232 3.770973,1.7556 5.012095,2.933334 1.264923,1.1778192 2.136072,2.5000398 2.61345,3.9666663 0.501175,1.4444828 0.751778,2.8778144 0.751814,4.2999994 -3.6e-5,1.733367 -0.298375,2.033366 -0.895017,3.3 -0.572846,1.266698 -1.288859,2.32225 -2.148041,3.166666 -0.85925,0.844472 -1.778133,1.260101 -2.756652,1.726741 -0.978582,0.444471 -1.861665,0.73336 -2.649252,0.866667 0.93079,0.13336 2.028676,0.411136 3.293663,0.833333 1.288792,0.400025 2.517948,1.284393 3.68747,2.173259 1.169454,0.88891 2.148006,3.266687 2.935658,4.733334 0.811444,1.444461 1.217184,3.288904 1.217223,5.533333 -3.9e-5,1.911122 -0.346112,3.688898 -1.038221,5.333334 -0.668315,1.622228 -1.754269,3.033338 -3.257862,4.233332 -1.479794,1.177781 -3.377229,2.100003 -5.692309,2.766668 C 61.7071,47.677777 58.926581,48 55.680675,48 l -15.680699,0 0,-48 15.036288,0 m -0.895017,18.047077 c 2.004818,2.9e-5 3.675515,-0.222194 5.012097,-0.666666 1.360399,-0.466639 2.446353,-0.837824 3.257861,-1.593409 0.811454,-0.755526 1.372331,-1.360043 1.682632,-2.29341 0.310244,-0.933298 0.465381,-0.07793 0.465409,-1.033519 C 64.559218,9.9934432 63.812066,9.3584891 62.117528,8.180672 60.446805,7.0029357 58.048161,6.4140477 54.92159,6.4140057 l -8.198357,0 -0.100133,11.6330713 7.518144,0 m 2.606179,23.555079 c 1.957079,5e-6 3.60391,-0.222216 4.940495,-0.666667 1.360398,-0.466661 2.446351,-1.066659 3.257862,-1.800001 0.835318,-0.755547 1.420062,-1.622212 1.754233,-2.6 0.357976,-0.977766 0.536978,-2.022209 0.537009,-3.133333 -3.1e-5,-1.599983 -0.410433,-2.242065 -1.030946,-3.308747 -0.596709,-1.066649 -1.44399,-1.922202 -2.54185,-2.566668 C 62.566312,26.860094 61.241687,25.182317 59.690351,24.893407 58.162832,24.582318 56.4444,24.426763 54.535052,24.42674 l -7.811821,-0.0192 1e-6,17.194614 10.024193,0"
         style="font-size:43.94123459px;font-style:normal;font-variant:normal;font-weight:normal;font-stretch:normal;line-height:125%;letter-spacing:0px;word-spacing:0px;fill:url(#linearGradient3946);fill-opacity:1;stroke:none;font-family:Nokia Pure Headline;-inkscape-font-specification:Nokia Pure Headline"
         id="path3127"
         inkscape:connector-curvature="0"
         sodipodi:nodetypes="ccccccscccccccccscccccsccccccccccccccccccc" />
      <path
         d="m 101.3447,5.1752736 c -5.22693,4.37e-5 -9.117264,1.6530988 -11.671029,4.9591694 -2.529928,3.284251 -3.794884,7.816466 -3.794873,13.596662 -1.1e-5,5.780239 1.253011,10.312456 3.759072,13.596661 2.529897,3.26233 6.4083,4.893491 11.63523,4.893483 1.45586,8e-6 2.82822,-0.120419 4.11708,-0.361262 1.31266,-0.240837 2.49408,-0.536417 3.54426,-0.88674 1.05012,-0.372205 1.99287,-0.777257 2.82826,-1.21516 0.83531,-0.459782 1.51552,-0.864836 2.04064,-1.21516 l 3.50846,4.499377 c -1.50366,1.204218 -3.6517,2.353692 -6.44412,3.44843 C 108.0752,47.563577 104.78153,48.1 100.98669,48.1 c -3.7233,0 -6.98115,-0.558316 -9.773591,-1.674952 -2.768598,-1.138525 -5.095641,-2.74779 -6.981133,-4.8278 -1.885509,-2.079995 -3.305602,-4.630736 -4.260281,-7.652226 -0.95469,-3.043359 -1.432031,-6.447996 -1.432028,-10.213917 -3e-6,-3.634508 0.477338,-6.951564 1.432028,-9.95118 0.954679,-2.999549 2.386705,-5.5612365 4.296082,-7.6850695 1.909358,-2.1456458 4.272202,-3.8096469 7.088536,-4.9920105 2.840167,-1.18227143 6.169637,-1.77343075 9.988397,-1.773478 3.4607,4.725e-5 6.47989,0.45983872 9.05757,1.37937214 2.60148,0.91962686 4.94046,2.15668046 7.01694,3.71116556 l -3.54427,4.5322217 c -0.64445,-0.4378581 -1.36046,-0.8867 -2.14804,-1.3465294 -0.76379,-0.4597517 -1.6588,-0.8648035 -2.68505,-1.2151631 -1.02632,-0.3721688 -2.16001,-0.6677485 -3.40107,-0.8867378 -1.24112,-0.2189054 -2.67314,-0.3283788 -4.29608,-0.3284225"
         style="font-size:43.94123459px;font-style:normal;font-variant:normal;font-weight:normal;font-stretch:normal;line-height:125%;letter-spacing:0px;word-spacing:0px;fill:url(#linearGradient3911);fill-opacity:1;stroke:none;font-family:Nokia Pure Headline;-inkscape-font-specification:Nokia Pure Headline"
         id="path3129"
         inkscape:connector-curvature="0"
         sodipodi:nodetypes="ccscsccccccscscsscccccccccc" />
      <path
         style="fill:none;stroke:#004d00;stroke-width:11.52657538999999964;stroke-linecap:round;stroke-linejoin:round;stroke-miterlimit:4;stroke-opacity:1;stroke-dasharray:none;opacity:0.50276242999999998;filter:url(#filter3859)"
         id="path3503"
         d="M 54.393966,74.154282 C 46.245967,65.803997 28.630827,47.75 28.630827,47.75 L 15.999972,60.697999 54.393966,100.05285 111.99998,41 99.367397,28.05286 c 0,0 -35.262002,36.147423 -44.973431,46.101422 z"
         transform="matrix(1.0320437,0,0,1.0327501,3.9491998,16.902265)"
         inkscape:connector-curvature="0" />
      <path
         d="M 60.086153,93.485105 C 51.677062,84.861347 33.497467,66.216081 33.497467,66.216081 L 20.461871,79.588127 60.086153,120.23185 119.53808,59.245018 106.5007,45.873858 c 0,0 -36.391927,37.331253 -46.414547,47.611247 z"
         id="path2365"
         style="fill:none;stroke:url(#linearGradient2962);stroke-width:8;stroke-linecap:round;stroke-linejoin:round;stroke-miterlimit:4;stroke-opacity:1;stroke-dasharray:none"
         inkscape:connector-curvature="0" />
      <path
         d="M 54.393966,74.154282 C 46.245967,65.803997 28.630827,47.75 28.630827,47.75 L 15.999972,60.697999 54.393966,100.05285 111.99998,41 99.367397,28.05286 c 0,0 -35.262002,36.147423 -44.973431,46.101422 z"
         id="path3509"
         style="opacity:0.2857143;fill:none;stroke:url(#radialGradient3511);stroke-width:7.74895811;stroke-linecap:round;stroke-linejoin:round;stroke-miterlimit:4;stroke-opacity:1;stroke-dasharray:none;filter:url(#filter3521)"
         transform="matrix(1.0320437,0,0,1.0327501,3.9491998,16.902265)"
         inkscape:connector-curvature="0" />
      <path
         style="opacity:0.40952382;fill:url(#radialGradient3457);fill-opacity:1;stroke:none;filter:url(#filter3525)"
         d="m 28.406226,44.03125 c -0.149888,-0.0024 -0.286582,0.01658 -0.4375,0.03125 -0.827192,0.08205 -1.59533,0.427082 -2.21875,0.96875 l 1.6875,9.6875 c 0.110915,-0.113676 0.850367,-0.848179 0.9375,-0.9375 l 0.375,0.375 3.03125,-8.34375 -0.5625,-0.5625 c -0.74135,-0.759594 -1.76329,-1.201919 -2.8125,-1.21875 z"
         id="path3455"
         transform="matrix(1.0320437,0,0,-1.0327501,30.782337,169.49087)"
         inkscape:connector-curvature="0" />
      <path
         style="opacity:0.23809521;fill:url(#radialGradient3292);fill-opacity:1;stroke:none;filter:url(#filter3533)"
         d="m 99.40625,24.03125 c -0.149888,-0.0024 -0.286582,0.01658 -0.4375,0.03125 -0.827192,0.08205 -1.59533,0.427082 -2.21875,0.96875 l 1.6875,9.6875 c 0.110915,-0.113676 0.850367,-0.848179 0.9375,-0.9375 l 0.375,0.375 3.03125,-8.34375 -0.5625,-0.5625 c -0.74135,-0.759594 -1.76329,-1.201919 -2.8125,-1.21875 z"
         transform="matrix(-0.3529798,0.9704677,0.969804,0.3532214,28.934783,-26.683195)"
         id="path3290"
         inkscape:connector-curvature="0" />
      <path
         id="path3286"
         d="m 28.406226,44.03125 c -0.149888,-0.0024 -0.286582,0.01658 -0.4375,0.03125 -0.827192,0.08205 -1.59533,0.427082 -2.21875,0.96875 l 1.6875,9.6875 c 0.110915,-0.113676 0.850367,-0.848179 0.9375,-0.9375 l 0.375,0.375 3.03125,-8.34375 -0.5625,-0.5625 c -0.74135,-0.759594 -1.76329,-1.201919 -2.8125,-1.21875 z"
         style="opacity:0.77619048;fill:url(#radialGradient3288);fill-opacity:1;stroke:none;filter:url(#filter3529)"
         transform="matrix(1.0320437,0,0,1.0327501,3.9491998,16.902265)"
         inkscape:connector-curvature="0" />
      <path
         id="path3254"
         transform="matrix(0.3529798,0.9704677,-0.969804,0.3532214,111.83222,-47.338197)"
         d="m 99.40625,24.03125 c -0.149888,-0.0024 -0.286582,0.01658 -0.4375,0.03125 -0.827192,0.08205 -1.59533,0.427082 -2.21875,0.96875 l 1.6875,9.6875 c 0.110915,-0.113676 0.850367,-0.848179 0.9375,-0.9375 l 0.375,0.375 3.03125,-8.34375 -0.5625,-0.5625 c -0.74135,-0.759594 -1.76329,-1.201919 -2.8125,-1.21875 z"
         style="opacity:0.37142861;fill:url(#radialGradient3256);fill-opacity:1;stroke:none;filter:url(#filter3541)"
         inkscape:connector-curvature="0" />
      <path
         style="opacity:0.87142855;fill:url(#radialGradient3004);fill-opacity:1;stroke:none;filter:url(#filter3537)"
         d="m 99.40625,24.03125 c -0.149888,-0.0024 -0.286582,0.01658 -0.4375,0.03125 -0.827192,0.08205 -1.59533,0.427082 -2.21875,0.96875 l 1.6875,9.6875 c 0.110915,-0.113676 0.850367,-0.848179 0.9375,-0.9375 l 0.375,0.375 3.03125,-8.34375 -0.5625,-0.5625 c -0.74135,-0.759594 -1.76329,-1.201919 -2.8125,-1.21875 z"
         transform="matrix(1.0320437,0,0,1.0327501,3.9491751,16.902265)"
         id="path2989"
         inkscape:connector-curvature="0" />
      <path
         style="opacity:0.2857143;fill:none;stroke:url(#radialGradient2987);stroke-width:8;stroke-linecap:round;stroke-linejoin:round;stroke-miterlimit:4;stroke-opacity:1;stroke-dasharray:none"
         id="path2979"
         d="M 60.086153,93.485105 C 51.677062,84.861347 33.497467,66.216081 33.497467,66.216081 L 20.461871,79.588127 60.086153,120.23185 119.53808,59.245018 106.5007,45.873858 c 0,0 -36.391927,37.331253 -46.414547,47.611247 z"
         inkscape:connector-curvature="0" />
      <path
         style="fill:url(#radialGradient2954);fill-opacity:1"
         id="path24"
         d="M 60.086153,93.485105 C 51.677061,84.861347 33.497467,66.216081 33.497467,66.216081 L 20.461871,79.588127 60.086153,120.23185 119.53808,59.245017 106.5007,45.873858 c 0,0 -36.391927,37.331254 -46.414547,47.611247 z"
         inkscape:connector-curvature="0" />
      <path
         style="fill:url(#linearGradient2977);fill-opacity:1"
         d="m 106.50852,45.883814 c 0,0 -36.387094,37.32333 -46.409714,47.603323 C 51.689715,84.86338 33.491428,66.216081 33.491428,66.216081 l -13.029552,13.361204 16.99647,17.427657 c 0.194964,5.03e-4 0.385342,0 0.580525,0 18.09152,0 35.230146,-2.161689 50.602395,-6.035133 L 119.53808,59.245017 106.50852,45.883814 z"
         id="path2964"
         inkscape:connector-curvature="0" />
      <path
         d="M 54.393966,74.154282 C 46.245967,65.803997 28.630827,47.75 28.630827,47.75 L 15.999972,60.697999 54.393966,100.05285 111.99998,41 99.367397,28.05286 c 0,0 -35.262002,36.147423 -44.973431,46.101422 z"
         id="path3413"
         style="fill:none;stroke:url(#linearGradient3421);stroke-width:0.96861976;stroke-opacity:1;filter:url(#filter3423)"
         transform="matrix(1.0320437,0,0,1.0327501,3.9491998,16.902265)"
         inkscape:connector-curvature="0" />
      <path
         style="fill:url(#linearGradient3442);fill-opacity:1"
         d="m 106.50852,45.883814 c 0,0 -0.41306,0.445467 -0.41926,0.451828 L 118.66729,59.019104 87.705977,90.22752 c -15.405523,3.808403 -32.052449,6.42241 -50.183128,6.422414 -0.130404,0 -0.258105,-10e-7 -0.387016,0 l 0.322513,0.355008 c 0.194965,5.03e-4 0.385342,0 0.580525,0 18.09152,0 35.230146,-2.161689 50.602395,-6.035133 L 119.53807,59.245017 106.50852,45.883814 z"
         id="path3427"
         sodipodi:nodetypes="ccccsccsccc"
         inkscape:connector-curvature="0" />
      <path
         style="fill:url(#linearGradient3453);fill-opacity:1"
         d="m 106.50852,45.883814 c 0,0 -36.387094,37.32333 -46.409714,47.603323 C 51.689715,84.86338 33.491428,66.216081 33.491428,66.216081 l -13.029552,13.361204 0.516022,0.516374 12.51353,-12.844828 c 0,0 18.198287,18.647298 26.607378,27.271056 10.02262,-10.279993 46.409714,-47.603323 46.409714,-47.603323 l 12.51353,12.844829 0.51602,-0.516376 -13.02955,-13.361203 z"
         id="path3444"
         inkscape:connector-curvature="0" />
    </g>
  </g>
</svg>
