<?xml version="1.0" encoding="UTF-8" standalone="no"?>
<!-- Created with Inkscape (http://www.inkscape.org/) -->

<svg
   xmlns:dc="http://purl.org/dc/elements/1.1/"
   xmlns:cc="http://creativecommons.org/ns#"
   xmlns:rdf="http://www.w3.org/1999/02/22-rdf-syntax-ns#"
   xmlns:svg="http://www.w3.org/2000/svg"
   xmlns="http://www.w3.org/2000/svg"
   xmlns:xlink="http://www.w3.org/1999/xlink"
   xmlns:sodipodi="http://sodipodi.sourceforge.net/DTD/sodipodi-0.dtd"
   xmlns:inkscape="http://www.inkscape.org/namespaces/inkscape"
   width="128"
   height="128"
   id="svg2606"
   sodipodi:version="0.32"
   inkscape:version="0.48.0 r9654"
   version="1.0"
   sodipodi:docname="application-x-zerosize.svgz"
   inkscape:output_extension="org.inkscape.output.svgz.inkscape"
   inkscape:export-filename="/home/pinheiro/pics/oxygen-icons/scalable/mimetypes/small/16x16/unknown.png"
   inkscape:export-xdpi="180"
   inkscape:export-ydpi="180">
  <defs
     id="defs2608">
    <linearGradient
       id="linearGradient6131">
      <stop
         id="stop6133"
         offset="0"
         style="stop-color:#fcfcfc;stop-opacity:1" />
      <stop
         style="stop-color:#f8f8f8;stop-opacity:1"
         offset="0.52275378"
         id="stop6135" />
      <stop
         id="stop6141"
         offset="0.77457333"
         style="stop-color:#f0efef;stop-opacity:1;" />
      <stop
         id="stop6139"
         offset="0.90122044"
         style="stop-color:#e3e1e1;stop-opacity:1;" />
      <stop
         id="stop6137"
         offset="1"
         style="stop-color:#cecbcb;stop-opacity:1" />
    </linearGradient>
    <linearGradient
       inkscape:collect="always"
       xlink:href="#linearGradient6131"
       id="linearGradient3893"
       gradientUnits="userSpaceOnUse"
       gradientTransform="matrix(1.0119858,0,0,1.0119858,-0.89554075,-0.9871566)"
       x1="86.73793"
       y1="93.621468"
       x2="95.460213"
       y2="102.34375" />
    <radialGradient
       inkscape:collect="always"
       xlink:href="#linearGradient3913-5"
       id="radialGradient3919-5"
       cx="90.75"
       cy="110.25299"
       fx="90.75"
       fy="110.25299"
       r="18.750002"
       gradientTransform="matrix(1.3067347,0,0,1.3067347,-27.83617,-33.818441)"
       gradientUnits="userSpaceOnUse" />
    <linearGradient
       inkscape:collect="always"
       id="linearGradient3913-5">
      <stop
         style="stop-color:#ffffff;stop-opacity:1;"
         offset="0"
         id="stop3915-4" />
      <stop
         style="stop-color:#ffffff;stop-opacity:0;"
         offset="1"
         id="stop3917-7" />
    </linearGradient>
    <clipPath
       clipPathUnits="userSpaceOnUse"
       id="clipPath3889-6">
      <path
         sodipodi:nodetypes="cscscssc"
         inkscape:connector-curvature="0"
         id="path3891-5"
         d="m 112,82.502986 c 0,4.465301 -2.79749,6.409952 -5.27972,8.093625 -5.10854,3.46508 -14.939114,3.32536 -20.720284,3.40638 -0.081,5.781159 0.16586,15.504599 -3.29922,20.613139 -1.68367,2.48224 -5.29051,5.38687 -8.20078,5.38687 2.31803,0 4.74284,-1.33476 7.58402,-4.08481 9.14197,-8.84873 17.36714,-16.13535 25.673154,-25.297529 C 109.67612,88.503916 112,86.97878 112,82.502986 z"
         style="fill:url(#linearGradient3893);fill-opacity:1;stroke:none" />
    </clipPath>
    <filter
       color-interpolation-filters="sRGB"
       inkscape:collect="always"
       id="filter3909-6">
      <feGaussianBlur
         inkscape:collect="always"
         stdDeviation="0.43040059"
         id="feGaussianBlur3911-9" />
    </filter>
    <linearGradient
       inkscape:collect="always"
       xlink:href="#linearGradient3897-7"
       id="linearGradient3895-3"
       gradientUnits="userSpaceOnUse"
       gradientTransform="matrix(1.3344708,0,0,1.3640502,-37.238647,-42.998247)"
       x1="82.15696"
       y1="90.381706"
       x2="94.220871"
       y2="102.18401" />
    <linearGradient
       id="linearGradient3897-7">
      <stop
         style="stop-color:#fcfcfc;stop-opacity:1"
         offset="0"
         id="stop3899-4" />
      <stop
         id="stop3901-5"
         offset="0.52275378"
         style="stop-color:#f8f8f8;stop-opacity:1" />
      <stop
         style="stop-color:#f0efef;stop-opacity:1;"
         offset="0.72337759"
         id="stop3903-2" />
      <stop
         style="stop-color:#e3e1e1;stop-opacity:1;"
         offset="0.89024991"
         id="stop3905-5" />
      <stop
         style="stop-color:#cecbcb;stop-opacity:1"
         offset="1"
         id="stop3907-4" />
    </linearGradient>
    <clipPath
       clipPathUnits="userSpaceOnUse"
       id="clipPath6093-7">
      <path
         inkscape:connector-curvature="0"
         sodipodi:nodetypes="cccssccc"
         id="path6095-4"
         d="m 17.000001,8 0.782827,110 57.5,0 c 1.675283,0 3.119418,0.18058 4.9,-1.6 8.797935,-8.79794 21.481402,-23.383226 28.739972,-30.707378 2.44056,-2.462612 2.80096,-4.47117 2.80096,-6.724043 L 110,8 z"
         style="fill:#ffffff;fill-opacity:1" />
    </clipPath>
    <radialGradient
       inkscape:collect="always"
       xlink:href="#linearGradient5982-7"
       id="radialGradient5988-0"
       cx="68.138977"
       cy="89.42041"
       fx="67.932365"
       fy="72.691223"
       r="47.5"
       gradientTransform="matrix(1.5860719,-0.07936281,0.06485072,1.2953772,-41.872296,-14.425457)"
       gradientUnits="userSpaceOnUse" />
    <linearGradient
       inkscape:collect="always"
       id="linearGradient5982-7">
      <stop
         style="stop-color:#ffffff;stop-opacity:1;"
         offset="0"
         id="stop5984-8" />
      <stop
         style="stop-color:#ffffff;stop-opacity:0;"
         offset="1"
         id="stop5986-6" />
    </linearGradient>
    <filter
       color-interpolation-filters="sRGB"
       inkscape:collect="always"
       id="filter6171-8"
       x="-0.47870937"
       width="1.9574188"
       y="-0.51275069"
       height="2.0255013">
      <feGaussianBlur
         inkscape:collect="always"
         stdDeviation="10.140743"
         id="feGaussianBlur6173-8" />
    </filter>
    <linearGradient
       inkscape:collect="always"
       xlink:href="#linearGradient4518-3"
       id="linearGradient4524-4"
       x1="47.236164"
       y1="22.150356"
       x2="72"
       y2="116.40091"
       gradientUnits="userSpaceOnUse"
       gradientTransform="matrix(0.94173025,0,0,0.94148681,3.5162756,3.1457312)" />
    <linearGradient
       id="linearGradient4518-3">
      <stop
         style="stop-color:#eeecec;stop-opacity:1"
         offset="0"
         id="stop4520-1" />
      <stop
         id="stop5969-4"
         offset="0.40000001"
         style="stop-color:#f4f4f4;stop-opacity:1" />
      <stop
         style="stop-color:#f6f5f5;stop-opacity:1"
         offset="1"
         id="stop4522-9" />
    </linearGradient>
    <filter
       inkscape:collect="always"
       id="filter4123">
      <feGaussianBlur
         inkscape:collect="always"
         stdDeviation="2.028"
         id="feGaussianBlur4125" />
    </filter>
    <filter
       inkscape:collect="always"
       id="filter3822">
      <feGaussianBlur
         inkscape:collect="always"
         stdDeviation="2.7153804"
         id="feGaussianBlur3824" />
    </filter>
    <filter
       inkscape:collect="always"
       id="filter3827"
       x="-0.084733292"
       width="1.1694666"
       y="-0.10505005"
       height="1.2101001">
      <feGaussianBlur
         inkscape:collect="always"
         stdDeviation="2.1734796"
         id="feGaussianBlur3829" />
    </filter>
    <linearGradient
       y2="12.679619"
       x2="40.209278"
       y1="44.983318"
       x1="40.209278"
       gradientUnits="userSpaceOnUse"
       id="linearGradient3124"
       xlink:href="#linearGradient3829"
       inkscape:collect="always" />
    <linearGradient
       y2="12.679619"
       x2="40.209278"
       y1="44.983318"
       x1="40.209278"
       gradientUnits="userSpaceOnUse"
       id="linearGradient3122"
       xlink:href="#linearGradient3829"
       inkscape:collect="always" />
    <linearGradient
       y2="12.679619"
       x2="40.209278"
       y1="44.983318"
       x1="40.209278"
       gradientUnits="userSpaceOnUse"
       id="linearGradient3120"
       xlink:href="#linearGradient3829"
       inkscape:collect="always" />
    <linearGradient
       inkscape:collect="always"
       xlink:href="#linearGradient3829"
       id="linearGradient3138"
       gradientUnits="userSpaceOnUse"
       x1="40.209278"
       y1="44.983318"
       x2="40.209278"
       y2="12.679619" />
    <filter
       id="filter3941"
       inkscape:collect="always"
       color-interpolation-filters="sRGB">
      <feGaussianBlur
         id="feGaussianBlur3943"
         stdDeviation="0.44068637"
         inkscape:collect="always" />
    </filter>
    <linearGradient
       id="linearGradient3125">
      <stop
         id="stop3127"
         offset="0"
         style="stop-color:#f7f6f6;stop-opacity:1" />
      <stop
         id="stop3129"
         offset="1"
         style="stop-color:#efeeee;stop-opacity:1" />
    </linearGradient>
    <linearGradient
       y2="12.679619"
       x2="40.209278"
       y1="44.983318"
       x1="40.209278"
       gradientUnits="userSpaceOnUse"
       id="linearGradient3909"
       xlink:href="#linearGradient3829"
       inkscape:collect="always" />
    <linearGradient
       id="linearGradient3118">
      <stop
         id="stop3120"
         offset="0"
         style="stop-color:#f7f6f6;stop-opacity:1" />
      <stop
         id="stop3122"
         offset="1"
         style="stop-color:#efeeee;stop-opacity:1" />
    </linearGradient>
    <linearGradient
       y2="12.679619"
       x2="40.209278"
       y1="44.983318"
       x1="40.209278"
       gradientUnits="userSpaceOnUse"
       id="linearGradient3911"
       xlink:href="#linearGradient3829"
       inkscape:collect="always" />
    <mask
       id="mask3903"
       maskUnits="userSpaceOnUse">
      <g
         style="font-size:68.31048584px;font-style:normal;font-variant:normal;font-weight:normal;font-stretch:normal;text-align:start;line-height:125%;letter-spacing:0px;word-spacing:0px;writing-mode:lr-tb;text-anchor:start;fill:url(#linearGradient3911);fill-opacity:1;stroke:none;font-family:MEAN 26 Sans;-inkscape-font-specification:MEAN 26 Sans"
         id="g3905"
         transform="translate(0,-0.80245732)">
        <path
           d="m 56.504568,23.596172 c -3.1e-5,2.59583 -1.001917,5.077775 -3.005661,7.445843 -1.86718,1.821637 -3.711561,3.666019 -5.533149,5.53315 -2.003795,2.185954 -3.005681,4.417427 -3.005662,6.694427 l 0.01162,2.254246 -5.41977,0 c 0,0 -0.02753,-1.69396 -0.02753,-2.431991 0,-3.454973 1.238363,-6.001952 2.839879,-7.677961 L 48.37562,28.85608 c 1.366186,-1.502801 2.04929,-3.347182 2.049315,-5.53315 -2.5e-5,-2.32252 -0.683129,-4.098591 -2.049315,-5.328217 -1.366231,-1.229549 -3.210612,-1.844343 -5.533149,-1.844384 -5.555931,4.1e-5 -8.333888,3.278941 -8.333879,9.83671 l -5.53315,0 c -3e-6,-1.184016 -0.03327,-2.963667 0.409863,-5.259907 0.560895,-2.906455 2.481942,-5.191555 5.259908,-6.96767 2.550246,-1.639406 5.373743,-2.459131 8.4705,-2.459177 3.779825,4.6e-5 6.922105,1.070242 9.426847,3.210593 2.641309,2.277056 3.961977,5.305485 3.962008,9.085294 M 45.50658,57 l -6.216254,0 0,-6.421186 6.216254,0 0,6.421186"
           id="path3907"
           inkscape:connector-curvature="0"
           sodipodi:nodetypes="ccccccccccccccsccccccccc"
           style="fill:url(#linearGradient3909);fill-opacity:1" />
      </g>
    </mask>
    <linearGradient
       id="linearGradient3108">
      <stop
         id="stop3110"
         offset="0"
         style="stop-color:#f7f6f6;stop-opacity:1" />
      <stop
         id="stop3112"
         offset="1"
         style="stop-color:#efeeee;stop-opacity:1" />
    </linearGradient>
    <linearGradient
       y2="12.679619"
       x2="40.209278"
       y1="44.983318"
       x1="40.209278"
       gradientUnits="userSpaceOnUse"
       id="linearGradient3123"
       xlink:href="#linearGradient3829"
       inkscape:collect="always" />
    <linearGradient
       id="linearGradient3101">
      <stop
         id="stop3103"
         offset="0"
         style="stop-color:#f7f6f6;stop-opacity:1" />
      <stop
         id="stop3105"
         offset="1"
         style="stop-color:#efeeee;stop-opacity:1" />
    </linearGradient>
    <linearGradient
       y2="12.679619"
       x2="40.209278"
       y1="44.983318"
       x1="40.209278"
       gradientUnits="userSpaceOnUse"
       id="linearGradient3119"
       xlink:href="#linearGradient3829"
       inkscape:collect="always" />
    <linearGradient
       id="linearGradient3829">
      <stop
         id="stop3831"
         offset="0"
         style="stop-color:#f7f6f6;stop-opacity:1" />
      <stop
         id="stop3833"
         offset="1"
         style="stop-color:#efeeee;stop-opacity:1" />
    </linearGradient>
    <linearGradient
       y2="12.679619"
       x2="40.209278"
       y1="44.983318"
       x1="40.209278"
       gradientUnits="userSpaceOnUse"
       id="linearGradient3121"
       xlink:href="#linearGradient3829"
       inkscape:collect="always" />
    <filter
       id="filter4015"
       inkscape:collect="always"
       color-interpolation-filters="sRGB">
      <feGaussianBlur
         id="feGaussianBlur4017"
         stdDeviation="0.5498323"
         inkscape:collect="always" />
    </filter>
    <filter
       id="filter4084"
       inkscape:collect="always">
      <feGaussianBlur
         id="feGaussianBlur4086"
         stdDeviation="1.4598961"
         inkscape:collect="always" />
    </filter>
    <filter
       height="1.408259"
       y="-0.2041295"
       width="1.3293014"
       x="-0.16465071"
       id="filter4087"
       inkscape:collect="always">
      <feGaussianBlur
         id="feGaussianBlur4089"
         stdDeviation="4.2234282"
         inkscape:collect="always" />
    </filter>
    <filter
       id="filter4123-2"
       inkscape:collect="always">
      <feGaussianBlur
         id="feGaussianBlur4125-6"
         stdDeviation="2.028"
         inkscape:collect="always" />
    </filter>
    <linearGradient
       id="linearGradient4518-3-0">
      <stop
         id="stop4520-1-6"
         offset="0"
         style="stop-color:#eeecec;stop-opacity:1" />
      <stop
         style="stop-color:#f4f4f4;stop-opacity:1"
         offset="0.40000001"
         id="stop5969-4-8" />
      <stop
         id="stop4522-9-9"
         offset="1"
         style="stop-color:#f6f5f5;stop-opacity:1" />
    </linearGradient>
    <linearGradient
       gradientTransform="matrix(1.013528,0,0,1.013266,-1.5133685,-1.3073648)"
       gradientUnits="userSpaceOnUse"
       y2="116.40091"
       x2="72"
       y1="0"
       x1="72"
       id="linearGradient4524-4-2"
       xlink:href="#linearGradient4518-3-0"
       inkscape:collect="always" />
    <filter
       height="2.0255013"
       y="-0.51275069"
       width="1.9574188"
       x="-0.47870937"
       id="filter6171-8-4"
       inkscape:collect="always"
       color-interpolation-filters="sRGB">
      <feGaussianBlur
         id="feGaussianBlur6173-8-9"
         stdDeviation="10.140743"
         inkscape:collect="always" />
    </filter>
    <linearGradient
       id="linearGradient5982-7-4"
       inkscape:collect="always">
      <stop
         id="stop5984-8-3"
         offset="0"
         style="stop-color:#ffffff;stop-opacity:1;" />
      <stop
         id="stop5986-6-1"
         offset="1"
         style="stop-color:#ffffff;stop-opacity:0;" />
    </linearGradient>
    <radialGradient
       gradientUnits="userSpaceOnUse"
       gradientTransform="matrix(1.7069944,-0.08541345,0.06979496,1.3941371,-50.362376,-20.218185)"
       r="47.5"
       fy="47.274845"
       fx="63.793392"
       cy="64.004021"
       cx="64"
       id="radialGradient5988-0-8"
       xlink:href="#linearGradient5982-7-4"
       inkscape:collect="always" />
    <clipPath
       id="clipPath6093-7-6"
       clipPathUnits="userSpaceOnUse">
      <path
         style="fill:#ffffff;fill-opacity:1"
         d="m 17.000001,8 0.782827,110 57.5,0 c 1.675283,0 3.119418,0.18058 4.9,-1.6 C 88.980763,107.60206 99.94047,96.548195 107.19904,89.224043 109.6396,86.761431 110,84.752873 110,82.5 L 110,8 z"
         id="path6095-4-8"
         sodipodi:nodetypes="cccssccc"
         inkscape:connector-curvature="0" />
    </clipPath>
    <linearGradient
       id="linearGradient3897-7-4">
      <stop
         id="stop3899-4-4"
         offset="0"
         style="stop-color:#fcfcfc;stop-opacity:1" />
      <stop
         style="stop-color:#f8f8f8;stop-opacity:1"
         offset="0.52275378"
         id="stop3901-5-3" />
      <stop
         id="stop3903-2-0"
         offset="0.72337759"
         style="stop-color:#f0efef;stop-opacity:1;" />
      <stop
         id="stop3905-5-7"
         offset="0.89024991"
         style="stop-color:#e3e1e1;stop-opacity:1;" />
      <stop
         id="stop3907-4-8"
         offset="1"
         style="stop-color:#cecbcb;stop-opacity:1" />
    </linearGradient>
    <linearGradient
       y2="102.18401"
       x2="94.220871"
       y1="90.381706"
       x1="82.15696"
       gradientTransform="matrix(1.3731411,0,0,1.4035776,-41.378546,-43.42319)"
       gradientUnits="userSpaceOnUse"
       id="linearGradient3895-3-7"
       xlink:href="#linearGradient3897-7-4"
       inkscape:collect="always" />
    <filter
       id="filter3909-6-5"
       inkscape:collect="always"
       color-interpolation-filters="sRGB">
      <feGaussianBlur
         id="feGaussianBlur3911-9-4"
         stdDeviation="0.43040059"
         inkscape:collect="always" />
    </filter>
    <clipPath
       id="clipPath3889-6-5"
       clipPathUnits="userSpaceOnUse">
      <path
         style="fill:url(#linearGradient3893-6);fill-opacity:1;stroke:none"
         d="m 112,82.502986 c 0,4.465301 -2.79749,6.409952 -5.27972,8.093625 -5.10854,3.46508 -14.939114,3.32536 -20.720284,3.40638 -0.081,5.781159 0.16586,15.504599 -3.29922,20.613139 -1.68367,2.48224 -5.29051,5.38687 -8.20078,5.38687 2.31803,0 4.74284,-1.33476 7.58402,-4.08481 9.14197,-8.84873 17.36714,-16.13535 25.673154,-25.297529 C 109.67612,88.503916 112,86.97878 112,82.502986 z"
         id="path3891-5-2"
         inkscape:connector-curvature="0"
         sodipodi:nodetypes="cscscssc" />
    </clipPath>
    <linearGradient
       id="linearGradient3913-5-3"
       inkscape:collect="always">
      <stop
         id="stop3915-4-7"
         offset="0"
         style="stop-color:#ffffff;stop-opacity:1;" />
      <stop
         id="stop3917-7-4"
         offset="1"
         style="stop-color:#ffffff;stop-opacity:0;" />
    </linearGradient>
    <radialGradient
       gradientUnits="userSpaceOnUse"
       gradientTransform="matrix(1.3067347,0,0,1.3067347,-27.83617,-33.818441)"
       r="18.750002"
       fy="110.25299"
       fx="90.75"
       cy="110.25299"
       cx="90.75"
       id="radialGradient3919-5-9"
       xlink:href="#linearGradient3913-5-3"
       inkscape:collect="always" />
    <linearGradient
       y2="102.34375"
       x2="95.460213"
       y1="93.621468"
       x1="86.73793"
       gradientTransform="matrix(1.0119858,0,0,1.0119858,-0.89554075,-0.9871566)"
       gradientUnits="userSpaceOnUse"
       id="linearGradient3893-6"
       xlink:href="#linearGradient6131-5"
       inkscape:collect="always" />
    <linearGradient
       id="linearGradient6131-5">
      <stop
         style="stop-color:#fcfcfc;stop-opacity:1"
         offset="0"
         id="stop6133-5" />
      <stop
         id="stop6135-4"
         offset="0.52275378"
         style="stop-color:#f8f8f8;stop-opacity:1" />
      <stop
         style="stop-color:#f0efef;stop-opacity:1;"
         offset="0.77457333"
         id="stop6141-7" />
      <stop
         style="stop-color:#e3e1e1;stop-opacity:1;"
         offset="0.90122044"
         id="stop6139-6" />
      <stop
         style="stop-color:#cecbcb;stop-opacity:1"
         offset="1"
         id="stop6137-5" />
    </linearGradient>
    <linearGradient
       inkscape:collect="always"
       xlink:href="#linearGradient3897-7-4"
       id="linearGradient3248"
       gradientUnits="userSpaceOnUse"
       gradientTransform="matrix(1.3731411,0,0,1.4035776,-316.94248,-70.871126)"
       x1="82.15696"
       y1="90.381706"
       x2="94.220871"
       y2="102.18401" />
    <radialGradient
       inkscape:collect="always"
       xlink:href="#linearGradient5982-7-4"
       id="radialGradient3254"
       gradientUnits="userSpaceOnUse"
       gradientTransform="matrix(1.7069944,-0.08541345,0.06979496,1.3941371,-325.92631,-47.666121)"
       cx="64"
       cy="64.004021"
       fx="63.793392"
       fy="47.274845"
       r="47.5" />
    <linearGradient
       inkscape:collect="always"
       xlink:href="#linearGradient4518-3-0"
       id="linearGradient3257"
       gradientUnits="userSpaceOnUse"
       gradientTransform="matrix(1.013528,0,0,1.013266,-277.0773,-28.755301)"
       x1="72"
       y1="0"
       x2="72"
       y2="116.40091" />
    <linearGradient
       inkscape:collect="always"
       xlink:href="#linearGradient3829"
       id="linearGradient3262"
       gradientUnits="userSpaceOnUse"
       x1="40.209278"
       y1="44.983318"
       x2="40.209278"
       y2="12.679619" />
    <linearGradient
       inkscape:collect="always"
       xlink:href="#linearGradient3829"
       id="linearGradient3264"
       gradientUnits="userSpaceOnUse"
       x1="40.209278"
       y1="44.983318"
       x2="40.209278"
       y2="12.679619" />
    <linearGradient
       inkscape:collect="always"
       xlink:href="#linearGradient3829"
       id="linearGradient3266"
       gradientUnits="userSpaceOnUse"
       x1="40.209278"
       y1="44.983318"
       x2="40.209278"
       y2="12.679619" />
  </defs>
  <sodipodi:namedview
     id="base"
     pagecolor="#ffffff"
     bordercolor="#666666"
     borderopacity="1.0"
     inkscape:pageopacity="0.0"
     inkscape:pageshadow="2"
     inkscape:zoom="1.4142136"
     inkscape:cx="-87.871407"
     inkscape:cy="53.168704"
     inkscape:document-units="px"
     inkscape:current-layer="layer1"
     width="128px"
     height="128px"
     showgrid="true"
     inkscape:grid-points="true"
     showguides="true"
     inkscape:guide-bbox="true"
     inkscape:window-width="1224"
     inkscape:window-height="757"
     inkscape:window-x="201"
     inkscape:window-y="270"
     inkscape:snap-global="true"
     inkscape:window-maximized="0"
     inkscape:snap-page="true">
    <inkscape:grid
       id="GridFromPre046Settings"
       type="xygrid"
       originx="0px"
       originy="0px"
       spacingx="8px"
       spacingy="8px"
       color="#0000ff"
       empcolor="#0000ff"
       opacity="0.2"
       empopacity="0.4"
       empspacing="2"
       visible="true"
       enabled="true"
       snapvisiblegridlinesonly="true" />
    <sodipodi:guide
       orientation="1,0"
       position="-68,29.325902"
       id="guide4564" />
    <sodipodi:guide
       orientation="1,0"
       position="-121.62237,135.0574"
       id="guide3859" />
    <sodipodi:guide
       orientation="0,1"
       position="38.581514,-74.688154"
       id="guide4360" />
  </sodipodi:namedview>
  <metadata
     id="metadata2611">
    <rdf:RDF>
      <cc:Work
         rdf:about="">
        <dc:format>image/svg+xml</dc:format>
        <dc:type
           rdf:resource="http://purl.org/dc/dcmitype/StillImage" />
        <dc:title></dc:title>
      </cc:Work>
    </rdf:RDF>
  </metadata>
  <g
     inkscape:label="Livello 1"
     inkscape:groupmode="layer"
     id="layer1">
    <rect
       style="fill:#000000;fill-opacity:0.00392157000000000;stroke:none;opacity:0.01"
       id="rect3854"
       width="128"
       height="128"
       x="0"
       y="0" />
    <path
       style="opacity:0.45606695;fill:#000000;fill-opacity:1;filter:url(#filter4123)"
       d="m 13.333,5.3364 0,118.3304 49.8545,-0.0668 c 2.115554,-0.003 4.528919,-1.77169 7,-4.25 0.71234,-0.71442 1.440746,-1.39395 2.15625,-2.09375 0.415612,-0.40649 0.832187,-0.81443 1.25,-1.21875 7.773958,-7.40962 26.98341,-25.122599 34.21875,-33.099999 0.42065,-0.42064 0.81207,-0.8111 1.15625,-1.1875 1.46444,-1.49766 2.76158,-2.8378 2.99375,-5.8625 L 112,75.156251 111.9972,5.3364 z"
       id="path5990"
       inkscape:connector-curvature="0"
       sodipodi:nodetypes="ccsssccccccc"
       transform="matrix(0.94173025,0,0,0.94148681,3.5162752,3.1457285)" />
    <path
       transform="matrix(0.94173025,0,0,0.94148681,3.5162752,3.1457285)"
       style="fill:#000000;fill-opacity:1;filter:url(#filter3822)"
       d="m 12.96875,3.4375 c -1.48e-4,0.010416 -1.48e-4,0.020834 0,0.03125 -0.921246,0.1949457 -1.534484,0.9333582 -1.53125,1.875 l 0,118.73736 c -1.48e-4,0.0104 -1.48e-4,0.0209 0,0.0313 0.01925,1.0723 0.80288,1.85562 1.875,1.875 0.01042,1.5e-4 0.02083,1.5e-4 0.03125,0 l 52.529063,0 c 1.658286,0 4.069886,0.24689 7.15625,-1.84375 0.09606,-0.0692 0.180839,-0.15394 0.25,-0.25 -0.05642,0.0503 -0.118387,0.22919 0.0625,-0.0625 0.05493,-0.0473 0.106764,-0.0903 0.1875,-0.15625 0.219835,-0.17951 0.516782,-0.38621 0.78125,-0.59375 0.264468,-0.20754 0.493455,-0.39466 0.65625,-0.53125 0.0407,-0.0341 0.0777,-0.0491 0.125,-0.0937 0.02365,-0.0223 0.04509,-0.0687 0.09375,-0.125 0.02433,-0.0281 0.07533,-0.0459 0.125,-0.125 0.01159,-0.0185 0.01274,-0.0566 0.03125,-0.0937 9.792927,-9.35059 27.456717,-28.634354 38.499997,-39.8125 1.71056,-1.710561 3.78125,-3.905917 3.78125,-8.5625 l 0,-68.39361 c 1.5e-4,-0.010416 1.5e-4,-0.020834 0,-0.03125 -0.0194,-1.0720969 -0.80283,-1.8556268 -1.875,-1.875 -0.0104,-1.484e-4 -0.0209,-1.484e-4 -0.0313,0 l -102.27906,0 c -0.03303,-0.00313 -0.06067,0.00142 -0.09375,0 -0.08821,-0.00379 -0.161926,-0.00834 -0.25,0 -0.04162,-0.00237 -0.08338,-0.00237 -0.125,0 z"
       id="path3314"
       inkscape:connector-curvature="0"
       sodipodi:nodetypes="cccccccsccccscsccccsccccccccc" />
    <path
       style="fill:#ffffff;fill-opacity:1"
       d="m 16.072365,8.0771252 0,111.4992648 49.707827,-0.0771 c 1.577682,0 3.686257,-0.53663 6.592193,-3.42109 8.353294,-8.2916 30.207015,-29.952167 37.042715,-36.912327 2.29836,-2.340224 2.82611,-4.248961 2.82611,-6.389865 L 112.23821,8 z"
       id="path34"
       sodipodi:nodetypes="cccssccc"
       inkscape:connector-curvature="0" />
    <path
       style="fill:url(#linearGradient4524-4);fill-opacity:1"
       d="m 22.330709,13.864607 c -0.32004,0 -0.470863,0.220889 -0.470863,0.470743 l 0,98.04132 c 0,0.7735 0.639738,1.41283 1.412596,1.41224 l 38.774516,-0.0295 c 0.04998,-4e-5 0.763164,0.022 1.412595,0.0295 1.67408,-0.0377 2.949474,-0.70964 4.10221,-1.50006 0.990574,-0.274 27.991428,-26.655867 36.581047,-35.307802 1.28302,-1.292303 2.05813,-3.71715 2.05813,-4.609153 l 0,-58.036545 c 0,-0.303834 -0.15371,-0.470743 -0.47087,-0.470743 z"
       id="path3967"
       inkscape:connector-curvature="0"
       sodipodi:nodetypes="ccsssccscccc" />
    <path
       sodipodi:nodetypes="ccssscccccc"
       inkscape:connector-curvature="0"
       id="path5980"
       d="m 26.330709,17.864607 c -0.32004,0 -0.470863,0.220889 -0.470863,0.470743 l -4,94.04132 c -0.03287,0.77281 0.639752,1.40754 1.412596,1.41224 l 43.527137,0.26444 c 0.04998,3e-4 3.083114,-0.007 3.732546,4e-5 6.159831,-4.24013 28.87563,-26.117493 37.299625,-34.592579 0.61903,-0.694148 0.43093,-0.348416 1.36919,-1.513403 l 0,-63.612058 c 0,-0.303834 -0.15371,-0.470743 -0.47087,-0.470743 z"
       style="opacity:0.84653476;fill:url(#radialGradient5988-0);fill-opacity:1" />
    <path
       style="fill:#000000"
       d=""
       id="path2197" />
    <path
       clip-path="url(#clipPath6093-7)"
       style="opacity:0.34728035;fill:#000000;fill-opacity:1;stroke:none;filter:url(#filter6171-8)"
       d="m 116.12376,78.971565 c 0,4.465301 -6.19771,3.506816 -8.67994,5.190489 -5.10854,3.46508 -20.174687,2.225237 -25.955857,2.306257 -0.081,5.781159 -0.937221,19.675219 -0.937221,25.825239 0,2.97817 -3.440475,11.20945 -6.350745,11.20945 -2.091359,1.5337 3.488204,8.21101 6.734971,5.31989 9.501888,-8.46107 35.131682,-30.022704 43.350822,-39.262889 2.04044,-2.29392 -3.18138,-13.376087 -8.16203,-10.588436 z"
       id="path6153"
       inkscape:connector-curvature="0"
       sodipodi:nodetypes="cscscssc"
       transform="matrix(1.1813248,0,0,1.2086603,-24.263752,-24.510815)" />
    <path
       sodipodi:nodetypes="cscscssc"
       inkscape:connector-curvature="0"
       id="path6081"
       d="m 113.9,82.502986 c 0,4.465301 -10.43981,5.304142 -13.42995,5.727919 -6.394979,0.906328 -14.119031,-0.156997 -19.900201,-0.07598 -0.505268,6.06824 0.8669,24.053992 1.224403,26.575982 0.418175,2.94999 -3.883991,8.07209 -6.794261,8.07209 -2.091359,1.5337 3.488204,11.21101 6.734971,8.31989 C 91.23685,122.66182 127.7339,100.92151 135.95304,91.681321 137.99348,89.387401 118.88065,79.715335 113.9,82.502986 z"
       style="fill:#000000;fill-opacity:1;stroke:none;filter:url(#filter3827)"
       clip-path="url(#clipPath6093-7)"
       transform="matrix(1.2864191,0,0,1.3161866,-33.246593,-37.128335)" />
    <path
       style="fill:url(#linearGradient3895-3);fill-opacity:1;stroke:none"
       d="m 111.63282,69.537665 c 0,6.018752 -3.68896,8.639938 -6.96218,10.909345 -6.736467,4.670565 -20.601656,3.681674 -28.225086,3.790881 -0.106814,7.792391 0.681931,20.811609 -3.887352,27.697379 -2.220198,3.3458 -6.53768,8.14845 -10.375353,8.14845 3.056706,0 6.25422,-1.79911 10.000786,-5.50589 12.055202,-11.92716 22.901451,-21.748749 33.854305,-34.098401 2.53047,-2.853145 5.59488,-4.908872 5.59488,-10.941764 z"
       id="path6011"
       inkscape:connector-curvature="0"
       sodipodi:nodetypes="cscscssc" />
    <path
       style="fill:#ffffff;fill-opacity:1;stroke:none"
       d="m 110.71058,68.281346 c -0.41723,5.255588 -4.27313,7.093026 -6.37262,8.548644 C 99.360203,80.281173 92.747881,80 72,80 c 0,19.101497 0.485919,27.6002 -3.129233,32.26786 -2.152106,2.77868 -6.461106,5.87696 -9.97277,6.67209 4.811835,0 8.170308,-1.05121 11.313766,-4.16129 C 70.658946,114.25496 79.29853,105.10667 80,104 c 0,-8 0,-4.430898 0,-16 7.62343,-0.109179 8,0 16,0 0.746829,0 10.14294,-9.613144 10.69263,-10.162835 3.05326,-3.053253 3.71528,-4.99949 4.01795,-9.555819 z M 58.897997,118.93995 c -0.207898,0.0469 -0.413317,0.0558 -0.618125,0.0842 0.20702,-0.0228 0.409371,-0.0452 0.618125,-0.0842 z"
       id="path6122"
       inkscape:connector-curvature="0"
       sodipodi:nodetypes="cscsccccsscccc" />
    <path
       style="fill:none;stroke:url(#radialGradient3919-5);stroke-width:1.85605633;stroke-linecap:butt;stroke-linejoin:miter;stroke-miterlimit:4;stroke-opacity:1;stroke-dasharray:none;filter:url(#filter3909-6)"
       d="M 108.97651,89.508691 79.934895,118.21077"
       id="path3873"
       inkscape:connector-curvature="0"
       sodipodi:nodetypes="cc"
       clip-path="url(#clipPath3889-6)"
       transform="matrix(1.3186655,0,0,1.3478946,-36.057732,-41.667663)" />
    <path
       inkscape:connector-curvature="0"
       style="fill:#000000"
       d=""
       id="path2197-2" />
    <g
       transform="matrix(1.6861494,0,0,1.6861494,-29.517746,-13.931371)"
       style="opacity:0.48535563;filter:url(#filter4015)"
       id="g3109">
      <g
         style="font-size:68.31048584px;font-style:normal;font-variant:normal;font-weight:normal;font-stretch:normal;text-align:start;line-height:125%;letter-spacing:0px;word-spacing:0px;writing-mode:lr-tb;text-anchor:start;fill:url(#linearGradient3264);fill-opacity:1;stroke:none;font-family:MEAN 26 Sans;-inkscape-font-specification:MEAN 26 Sans"
         id="g3111"
         transform="matrix(1.2461722,0,0,1.2461722,-5.1328089,4.2181838)">
        <path
           d="m 56.504568,23.596172 c -3.1e-5,2.59583 -1.001917,5.077775 -3.005661,7.445843 -1.86718,1.821637 -3.711561,3.666019 -5.533149,5.53315 -2.003795,2.185954 -3.005681,4.417427 -3.005662,6.694427 l 0.01162,2.254246 -5.41977,0 c 0,0 -0.02753,-1.69396 -0.02753,-2.431991 0,-3.454973 1.238363,-6.001952 2.839879,-7.677961 L 48.37562,28.85608 c 1.366186,-1.502801 2.04929,-3.347182 2.049315,-5.53315 -2.5e-5,-2.32252 -0.683129,-4.098591 -2.049315,-5.328217 -1.366231,-1.229549 -3.210612,-1.844343 -5.533149,-1.844384 -5.555931,4.1e-5 -8.333888,3.278941 -8.333879,9.83671 l -5.53315,0 c -3e-6,-1.184016 -0.03327,-2.963667 0.409863,-5.259907 0.560895,-2.906455 2.481942,-5.191555 5.259908,-6.96767 2.550246,-1.639406 5.373743,-2.459131 8.4705,-2.459177 3.779825,4.6e-5 6.922105,1.070242 9.426847,3.210593 2.641309,2.277056 3.961977,5.305485 3.962008,9.085294 M 45.50658,57 l -6.216254,0 0,-6.421186 6.216254,0 0,6.421186"
           id="path3113"
           inkscape:connector-curvature="0"
           sodipodi:nodetypes="ccccccccccccccsccccccccc"
           style="fill:url(#linearGradient3262);fill-opacity:1" />
      </g>
      <g
         style="font-size:68.31048584px;font-style:normal;font-variant:normal;font-weight:normal;font-stretch:normal;text-align:start;line-height:125%;letter-spacing:0px;word-spacing:0px;writing-mode:lr-tb;text-anchor:start;opacity:0.27615063;fill:url(#linearGradient3266);fill-opacity:1;stroke:#000000;stroke-width:0.6788789;stroke-miterlimit:4;stroke-opacity:1;stroke-dasharray:none;filter:url(#filter3941);font-family:MEAN 26 Sans;-inkscape-font-specification:MEAN 26 Sans"
         id="g3115"
         transform="matrix(1.2461722,0,0,1.2461722,-5.13281,5.2181838)"
         mask="url(#mask3903)">
        <path
           style="font-size:medium;font-style:normal;font-variant:normal;font-weight:normal;font-stretch:normal;text-indent:0;text-align:start;text-decoration:none;line-height:125%;letter-spacing:0;word-spacing:0;text-transform:none;direction:ltr;block-progression:tb;writing-mode:lr-tb;text-anchor:start;baseline-shift:baseline;color:#000000;fill:#000000;fill-opacity:1;fill-rule:nonzero;stroke:none;stroke-width:0.6788789;marker:none;visibility:visible;display:inline;overflow:visible;enable-background:accumulate;font-family:MEAN 26 Sans;-inkscape-font-specification:MEAN 26 Sans"
           d="M 43.024693,6.0135761 C 39.868038,6.0136231 30.551599,7.3419119 27.948784,9.0151119 25.119331,10.824146 13.093765,19.747159 12.511818,22.7627 c -0.449915,2.331383 10.48763,3.802722 11.198131,4.741907 l 1.905836,2.519258 4.95788,5.215973 4.327564,-7.021502 4.556651,-0.902764 -0.802458,-1.817108 C 37.3502,22.542883 37.633366,22.504496 38.9502,20.9502 c 1.316834,-1.554296 0.680823,-1.842194 3.392014,-1.842214 2.262639,4e-5 0.807529,0.584428 2.102671,1.75 1.287202,1.158537 1.335633,-0.102371 1.335657,2.153593 -2.4e-5,2.115255 -0.05582,2.064784 -1.366907,3.506971 l -5.097236,6.462192 c -1.659802,1.737006 -4.3418,5.172625 -4.3418,8.708708 0,0.746472 1.134629,2.4375 1.134629,2.4375 l 0.100307,1.346821 1.447129,1.303993 6.409322,0.200615 2.4502,0.300921 1.604915,-2.149279 1.203686,-1.54785 c 1.336675,-1.718864 3.851032,-2.019008 5.815157,-4.161685 1.819637,-1.865131 2.061156,-1.504806 3.926336,-3.324492 l 3.109522,1.774279 C 64.219051,35.455518 62.761841,27.279989 62.761873,24.596822 62.761841,20.737948 67.297904,9.6665096 64.586245,7.3288056 62.017394,5.1336726 46.868587,6.0136231 43.024693,6.0135761 z M 43.125,11.384263 c 3.715756,4.5e-5 6.746867,1.070681 9.1875,3.15625 2.570959,2.216408 3.84372,5.352493 3.84375,9.053237 -3e-5,2.508493 -0.942011,4.736878 -2.90625,7.058259 -1.86918,1.823588 -3.707711,3.662119 -5.53125,5.53125 -2.043465,2.229231 -3.09377,4.72142 -3.09375,7.097991 l 0,1.673704 -4.71875,0 C 39.90055,44.589398 39.875,43.720466 39.875,43.09375 c 0,-3.373863 1.20677,-5.822488 2.75,-7.4375 l 6,-6.5625 c 1.42129,-1.563415 2.124974,-3.524569 2.125,-5.78125 -2.6e-5,-2.389076 -0.71108,-4.261785 -2.15625,-5.5625 -1.43732,-1.293526 -3.367565,-2.178195 -5.75,-2.178237 -2.84474,2.1e-5 -5.038875,1.07863 -6.5,2.803237 -1.404394,1.657646 -2.103718,3.831918 -2.15625,6.971189 l -4.84375,0 c -0.002,-1.179944 -0.03258,-2.452927 0.375,-4.564939 0.539843,-2.797369 2.367271,-5.247541 5.09375,-6.990737 l 0.03125,0 c 2.497677,-1.605612 5.244391,-2.406205 8.28125,-2.40625 z m -6.594872,36.408979 -0.802457,1.346822 -1.003072,8.011165 0.802457,2.249586 4.857573,0.70215 8.525815,-0.501536 -0.802458,-1.74805 3.653887,-0.601843 -3.310137,-6.907786 0.401229,-2.149279 -3.553579,0.100307 -5.616907,-0.501536 z M 39.625,50.6875 l 5.53125,0 0,5.317521 -5.53125,0 z"
           id="path3117"
           inkscape:connector-curvature="0"
           sodipodi:nodetypes="ccssccccsscccccsccccccscccccccccccsccscccccsccsccccccccccccccccccccc" />
      </g>
    </g>
    <g
       id="g3268"
       style="opacity:0.48535563;filter:url(#filter4015)"
       transform="matrix(1.6861494,0,0,1.6861494,-29.517746,-13.931371)">
      <g
         transform="matrix(1.2461722,0,0,1.2461722,-5.1328089,4.2181838)"
         id="g3270"
         style="font-size:68.31048584px;font-style:normal;font-variant:normal;font-weight:normal;font-stretch:normal;text-align:start;line-height:125%;letter-spacing:0px;word-spacing:0px;writing-mode:lr-tb;text-anchor:start;fill:url(#linearGradient3264);fill-opacity:1;stroke:none;font-family:MEAN 26 Sans;-inkscape-font-specification:MEAN 26 Sans">
        <path
           style="fill:url(#linearGradient3262);fill-opacity:1"
           sodipodi:nodetypes="ccccccccccccccsccccccccc"
           inkscape:connector-curvature="0"
           id="path3272"
           d="m 56.504568,23.596172 c -3.1e-5,2.59583 -1.001917,5.077775 -3.005661,7.445843 -1.86718,1.821637 -3.711561,3.666019 -5.533149,5.53315 -2.003795,2.185954 -3.005681,4.417427 -3.005662,6.694427 l 0.01162,2.254246 -5.41977,0 c 0,0 -0.02753,-1.69396 -0.02753,-2.431991 0,-3.454973 1.238363,-6.001952 2.839879,-7.677961 L 48.37562,28.85608 c 1.366186,-1.502801 2.04929,-3.347182 2.049315,-5.53315 -2.5e-5,-2.32252 -0.683129,-4.098591 -2.049315,-5.328217 -1.366231,-1.229549 -3.210612,-1.844343 -5.533149,-1.844384 -5.555931,4.1e-5 -8.333888,3.278941 -8.333879,9.83671 l -5.53315,0 c -3e-6,-1.184016 -0.03327,-2.963667 0.409863,-5.259907 0.560895,-2.906455 2.481942,-5.191555 5.259908,-6.96767 2.550246,-1.639406 5.373743,-2.459131 8.4705,-2.459177 3.779825,4.6e-5 6.922105,1.070242 9.426847,3.210593 2.641309,2.277056 3.961977,5.305485 3.962008,9.085294 M 45.50658,57 l -6.216254,0 0,-6.421186 6.216254,0 0,6.421186" />
      </g>
      <g
         mask="url(#mask3903)"
         transform="matrix(1.2461722,0,0,1.2461722,-5.13281,5.2181838)"
         id="g3274"
         style="font-size:68.31048584px;font-style:normal;font-variant:normal;font-weight:normal;font-stretch:normal;text-align:start;line-height:125%;letter-spacing:0px;word-spacing:0px;writing-mode:lr-tb;text-anchor:start;opacity:0.27615063;fill:url(#linearGradient3266);fill-opacity:1;stroke:#000000;stroke-width:0.6788789;stroke-miterlimit:4;stroke-opacity:1;stroke-dasharray:none;filter:url(#filter3941);font-family:MEAN 26 Sans;-inkscape-font-specification:MEAN 26 Sans">
        <path
           sodipodi:nodetypes="ccssccccsscccccsccccccscccccccccccsccscccccsccsccccccccccccccccccccc"
           inkscape:connector-curvature="0"
           id="path3276"
           d="M 43.024693,6.0135761 C 39.868038,6.0136231 30.551599,7.3419119 27.948784,9.0151119 25.119331,10.824146 13.093765,19.747159 12.511818,22.7627 c -0.449915,2.331383 10.48763,3.802722 11.198131,4.741907 l 1.905836,2.519258 4.95788,5.215973 4.327564,-7.021502 4.556651,-0.902764 -0.802458,-1.817108 C 37.3502,22.542883 37.633366,22.504496 38.9502,20.9502 c 1.316834,-1.554296 0.680823,-1.842194 3.392014,-1.842214 2.262639,4e-5 0.807529,0.584428 2.102671,1.75 1.287202,1.158537 1.335633,-0.102371 1.335657,2.153593 -2.4e-5,2.115255 -0.05582,2.064784 -1.366907,3.506971 l -5.097236,6.462192 c -1.659802,1.737006 -4.3418,5.172625 -4.3418,8.708708 0,0.746472 1.134629,2.4375 1.134629,2.4375 l 0.100307,1.346821 1.447129,1.303993 6.409322,0.200615 2.4502,0.300921 1.604915,-2.149279 1.203686,-1.54785 c 1.336675,-1.718864 3.851032,-2.019008 5.815157,-4.161685 1.819637,-1.865131 2.061156,-1.504806 3.926336,-3.324492 l 3.109522,1.774279 C 64.219051,35.455518 62.761841,27.279989 62.761873,24.596822 62.761841,20.737948 67.297904,9.6665096 64.586245,7.3288056 62.017394,5.1336726 46.868587,6.0136231 43.024693,6.0135761 z M 43.125,11.384263 c 3.715756,4.5e-5 6.746867,1.070681 9.1875,3.15625 2.570959,2.216408 3.84372,5.352493 3.84375,9.053237 -3e-5,2.508493 -0.942011,4.736878 -2.90625,7.058259 -1.86918,1.823588 -3.707711,3.662119 -5.53125,5.53125 -2.043465,2.229231 -3.09377,4.72142 -3.09375,7.097991 l 0,1.673704 -4.71875,0 C 39.90055,44.589398 39.875,43.720466 39.875,43.09375 c 0,-3.373863 1.20677,-5.822488 2.75,-7.4375 l 6,-6.5625 c 1.42129,-1.563415 2.124974,-3.524569 2.125,-5.78125 -2.6e-5,-2.389076 -0.71108,-4.261785 -2.15625,-5.5625 -1.43732,-1.293526 -3.367565,-2.178195 -5.75,-2.178237 -2.84474,2.1e-5 -5.038875,1.07863 -6.5,2.803237 -1.404394,1.657646 -2.103718,3.831918 -2.15625,6.971189 l -4.84375,0 c -0.002,-1.179944 -0.03258,-2.452927 0.375,-4.564939 0.539843,-2.797369 2.367271,-5.247541 5.09375,-6.990737 l 0.03125,0 c 2.497677,-1.605612 5.244391,-2.406205 8.28125,-2.40625 z m -6.594872,36.408979 -0.802457,1.346822 -1.003072,8.011165 0.802457,2.249586 4.857573,0.70215 8.525815,-0.501536 -0.802458,-1.74805 3.653887,-0.601843 -3.310137,-6.907786 0.401229,-2.149279 -3.553579,0.100307 -5.616907,-0.501536 z M 39.625,50.6875 l 5.53125,0 0,5.317521 -5.53125,0 z"
           style="font-size:medium;font-style:normal;font-variant:normal;font-weight:normal;font-stretch:normal;text-indent:0;text-align:start;text-decoration:none;line-height:125%;letter-spacing:0;word-spacing:0;text-transform:none;direction:ltr;block-progression:tb;writing-mode:lr-tb;text-anchor:start;baseline-shift:baseline;color:#000000;fill:#000000;fill-opacity:1;fill-rule:nonzero;stroke:none;stroke-width:0.6788789;marker:none;visibility:visible;display:inline;overflow:visible;enable-background:accumulate;font-family:MEAN 26 Sans;-inkscape-font-specification:MEAN 26 Sans" />
      </g>
    </g>
    <g
       transform="matrix(1.6861494,0,0,1.6861494,-29.517746,-13.931371)"
       style="opacity:0.48535563;filter:url(#filter4015)"
       id="g3278">
      <g
         style="font-size:68.31048584px;font-style:normal;font-variant:normal;font-weight:normal;font-stretch:normal;text-align:start;line-height:125%;letter-spacing:0px;word-spacing:0px;writing-mode:lr-tb;text-anchor:start;fill:url(#linearGradient3264);fill-opacity:1;stroke:none;font-family:MEAN 26 Sans;-inkscape-font-specification:MEAN 26 Sans"
         id="g3280"
         transform="matrix(1.2461722,0,0,1.2461722,-5.1328089,4.2181838)">
        <path
           d="m 56.504568,23.596172 c -3.1e-5,2.59583 -1.001917,5.077775 -3.005661,7.445843 -1.86718,1.821637 -3.711561,3.666019 -5.533149,5.53315 -2.003795,2.185954 -3.005681,4.417427 -3.005662,6.694427 l 0.01162,2.254246 -5.41977,0 c 0,0 -0.02753,-1.69396 -0.02753,-2.431991 0,-3.454973 1.238363,-6.001952 2.839879,-7.677961 L 48.37562,28.85608 c 1.366186,-1.502801 2.04929,-3.347182 2.049315,-5.53315 -2.5e-5,-2.32252 -0.683129,-4.098591 -2.049315,-5.328217 -1.366231,-1.229549 -3.210612,-1.844343 -5.533149,-1.844384 -5.555931,4.1e-5 -8.333888,3.278941 -8.333879,9.83671 l -5.53315,0 c -3e-6,-1.184016 -0.03327,-2.963667 0.409863,-5.259907 0.560895,-2.906455 2.481942,-5.191555 5.259908,-6.96767 2.550246,-1.639406 5.373743,-2.459131 8.4705,-2.459177 3.779825,4.6e-5 6.922105,1.070242 9.426847,3.210593 2.641309,2.277056 3.961977,5.305485 3.962008,9.085294 M 45.50658,57 l -6.216254,0 0,-6.421186 6.216254,0 0,6.421186"
           id="path3282"
           inkscape:connector-curvature="0"
           sodipodi:nodetypes="ccccccccccccccsccccccccc"
           style="fill:url(#linearGradient3262);fill-opacity:1" />
      </g>
      <g
         style="font-size:68.31048584px;font-style:normal;font-variant:normal;font-weight:normal;font-stretch:normal;text-align:start;line-height:125%;letter-spacing:0px;word-spacing:0px;writing-mode:lr-tb;text-anchor:start;opacity:0.27615063;fill:url(#linearGradient3266);fill-opacity:1;stroke:#000000;stroke-width:0.6788789;stroke-miterlimit:4;stroke-opacity:1;stroke-dasharray:none;filter:url(#filter3941);font-family:MEAN 26 Sans;-inkscape-font-specification:MEAN 26 Sans"
         id="g3284"
         transform="matrix(1.2461722,0,0,1.2461722,-5.13281,5.2181838)"
         mask="url(#mask3903)">
        <path
           style="font-size:medium;font-style:normal;font-variant:normal;font-weight:normal;font-stretch:normal;text-indent:0;text-align:start;text-decoration:none;line-height:125%;letter-spacing:0;word-spacing:0;text-transform:none;direction:ltr;block-progression:tb;writing-mode:lr-tb;text-anchor:start;baseline-shift:baseline;color:#000000;fill:#000000;fill-opacity:1;fill-rule:nonzero;stroke:none;stroke-width:0.6788789;marker:none;visibility:visible;display:inline;overflow:visible;enable-background:accumulate;font-family:MEAN 26 Sans;-inkscape-font-specification:MEAN 26 Sans"
           d="M 43.024693,6.0135761 C 39.868038,6.0136231 30.551599,7.3419119 27.948784,9.0151119 25.119331,10.824146 13.093765,19.747159 12.511818,22.7627 c -0.449915,2.331383 10.48763,3.802722 11.198131,4.741907 l 1.905836,2.519258 4.95788,5.215973 4.327564,-7.021502 4.556651,-0.902764 -0.802458,-1.817108 C 37.3502,22.542883 37.633366,22.504496 38.9502,20.9502 c 1.316834,-1.554296 0.680823,-1.842194 3.392014,-1.842214 2.262639,4e-5 0.807529,0.584428 2.102671,1.75 1.287202,1.158537 1.335633,-0.102371 1.335657,2.153593 -2.4e-5,2.115255 -0.05582,2.064784 -1.366907,3.506971 l -5.097236,6.462192 c -1.659802,1.737006 -4.3418,5.172625 -4.3418,8.708708 0,0.746472 1.134629,2.4375 1.134629,2.4375 l 0.100307,1.346821 1.447129,1.303993 6.409322,0.200615 2.4502,0.300921 1.604915,-2.149279 1.203686,-1.54785 c 1.336675,-1.718864 3.851032,-2.019008 5.815157,-4.161685 1.819637,-1.865131 2.061156,-1.504806 3.926336,-3.324492 l 3.109522,1.774279 C 64.219051,35.455518 62.761841,27.279989 62.761873,24.596822 62.761841,20.737948 67.297904,9.6665096 64.586245,7.3288056 62.017394,5.1336726 46.868587,6.0136231 43.024693,6.0135761 z M 43.125,11.384263 c 3.715756,4.5e-5 6.746867,1.070681 9.1875,3.15625 2.570959,2.216408 3.84372,5.352493 3.84375,9.053237 -3e-5,2.508493 -0.942011,4.736878 -2.90625,7.058259 -1.86918,1.823588 -3.707711,3.662119 -5.53125,5.53125 -2.043465,2.229231 -3.09377,4.72142 -3.09375,7.097991 l 0,1.673704 -4.71875,0 C 39.90055,44.589398 39.875,43.720466 39.875,43.09375 c 0,-3.373863 1.20677,-5.822488 2.75,-7.4375 l 6,-6.5625 c 1.42129,-1.563415 2.124974,-3.524569 2.125,-5.78125 -2.6e-5,-2.389076 -0.71108,-4.261785 -2.15625,-5.5625 -1.43732,-1.293526 -3.367565,-2.178195 -5.75,-2.178237 -2.84474,2.1e-5 -5.038875,1.07863 -6.5,2.803237 -1.404394,1.657646 -2.103718,3.831918 -2.15625,6.971189 l -4.84375,0 c -0.002,-1.179944 -0.03258,-2.452927 0.375,-4.564939 0.539843,-2.797369 2.367271,-5.247541 5.09375,-6.990737 l 0.03125,0 c 2.497677,-1.605612 5.244391,-2.406205 8.28125,-2.40625 z m -6.594872,36.408979 -0.802457,1.346822 -1.003072,8.011165 0.802457,2.249586 4.857573,0.70215 8.525815,-0.501536 -0.802458,-1.74805 3.653887,-0.601843 -3.310137,-6.907786 0.401229,-2.149279 -3.553579,0.100307 -5.616907,-0.501536 z M 39.625,50.6875 l 5.53125,0 0,5.317521 -5.53125,0 z"
           id="path3286"
           inkscape:connector-curvature="0"
           sodipodi:nodetypes="ccssccccsscccccsccccccscccccccccccsccscccccsccsccccccccccccccccccccc" />
      </g>
    </g>
    <g
       id="g3288"
       style="opacity:0.48535563;filter:url(#filter4015)"
       transform="matrix(1.6861494,0,0,1.6861494,-29.517746,-13.931371)">
      <g
         transform="matrix(1.2461722,0,0,1.2461722,-5.1328089,4.2181838)"
         id="g3290"
         style="font-size:68.31048584px;font-style:normal;font-variant:normal;font-weight:normal;font-stretch:normal;text-align:start;line-height:125%;letter-spacing:0px;word-spacing:0px;writing-mode:lr-tb;text-anchor:start;fill:url(#linearGradient3264);fill-opacity:1;stroke:none;font-family:MEAN 26 Sans;-inkscape-font-specification:MEAN 26 Sans">
        <path
           style="fill:url(#linearGradient3262);fill-opacity:1"
           sodipodi:nodetypes="ccccccccccccccsccccccccc"
           inkscape:connector-curvature="0"
           id="path3292"
           d="m 56.504568,23.596172 c -3.1e-5,2.59583 -1.001917,5.077775 -3.005661,7.445843 -1.86718,1.821637 -3.711561,3.666019 -5.533149,5.53315 -2.003795,2.185954 -3.005681,4.417427 -3.005662,6.694427 l 0.01162,2.254246 -5.41977,0 c 0,0 -0.02753,-1.69396 -0.02753,-2.431991 0,-3.454973 1.238363,-6.001952 2.839879,-7.677961 L 48.37562,28.85608 c 1.366186,-1.502801 2.04929,-3.347182 2.049315,-5.53315 -2.5e-5,-2.32252 -0.683129,-4.098591 -2.049315,-5.328217 -1.366231,-1.229549 -3.210612,-1.844343 -5.533149,-1.844384 -5.555931,4.1e-5 -8.333888,3.278941 -8.333879,9.83671 l -5.53315,0 c -3e-6,-1.184016 -0.03327,-2.963667 0.409863,-5.259907 0.560895,-2.906455 2.481942,-5.191555 5.259908,-6.96767 2.550246,-1.639406 5.373743,-2.459131 8.4705,-2.459177 3.779825,4.6e-5 6.922105,1.070242 9.426847,3.210593 2.641309,2.277056 3.961977,5.305485 3.962008,9.085294 M 45.50658,57 l -6.216254,0 0,-6.421186 6.216254,0 0,6.421186" />
      </g>
      <g
         mask="url(#mask3903)"
         transform="matrix(1.2461722,0,0,1.2461722,-5.13281,5.2181838)"
         id="g3294"
         style="font-size:68.31048584px;font-style:normal;font-variant:normal;font-weight:normal;font-stretch:normal;text-align:start;line-height:125%;letter-spacing:0px;word-spacing:0px;writing-mode:lr-tb;text-anchor:start;opacity:0.27615063;fill:url(#linearGradient3266);fill-opacity:1;stroke:#000000;stroke-width:0.6788789;stroke-miterlimit:4;stroke-opacity:1;stroke-dasharray:none;filter:url(#filter3941);font-family:MEAN 26 Sans;-inkscape-font-specification:MEAN 26 Sans">
        <path
           sodipodi:nodetypes="ccssccccsscccccsccccccscccccccccccsccscccccsccsccccccccccccccccccccc"
           inkscape:connector-curvature="0"
           id="path3296"
           d="M 43.024693,6.0135761 C 39.868038,6.0136231 30.551599,7.3419119 27.948784,9.0151119 25.119331,10.824146 13.093765,19.747159 12.511818,22.7627 c -0.449915,2.331383 10.48763,3.802722 11.198131,4.741907 l 1.905836,2.519258 4.95788,5.215973 4.327564,-7.021502 4.556651,-0.902764 -0.802458,-1.817108 C 37.3502,22.542883 37.633366,22.504496 38.9502,20.9502 c 1.316834,-1.554296 0.680823,-1.842194 3.392014,-1.842214 2.262639,4e-5 0.807529,0.584428 2.102671,1.75 1.287202,1.158537 1.335633,-0.102371 1.335657,2.153593 -2.4e-5,2.115255 -0.05582,2.064784 -1.366907,3.506971 l -5.097236,6.462192 c -1.659802,1.737006 -4.3418,5.172625 -4.3418,8.708708 0,0.746472 1.134629,2.4375 1.134629,2.4375 l 0.100307,1.346821 1.447129,1.303993 6.409322,0.200615 2.4502,0.300921 1.604915,-2.149279 1.203686,-1.54785 c 1.336675,-1.718864 3.851032,-2.019008 5.815157,-4.161685 1.819637,-1.865131 2.061156,-1.504806 3.926336,-3.324492 l 3.109522,1.774279 C 64.219051,35.455518 62.761841,27.279989 62.761873,24.596822 62.761841,20.737948 67.297904,9.6665096 64.586245,7.3288056 62.017394,5.1336726 46.868587,6.0136231 43.024693,6.0135761 z M 43.125,11.384263 c 3.715756,4.5e-5 6.746867,1.070681 9.1875,3.15625 2.570959,2.216408 3.84372,5.352493 3.84375,9.053237 -3e-5,2.508493 -0.942011,4.736878 -2.90625,7.058259 -1.86918,1.823588 -3.707711,3.662119 -5.53125,5.53125 -2.043465,2.229231 -3.09377,4.72142 -3.09375,7.097991 l 0,1.673704 -4.71875,0 C 39.90055,44.589398 39.875,43.720466 39.875,43.09375 c 0,-3.373863 1.20677,-5.822488 2.75,-7.4375 l 6,-6.5625 c 1.42129,-1.563415 2.124974,-3.524569 2.125,-5.78125 -2.6e-5,-2.389076 -0.71108,-4.261785 -2.15625,-5.5625 -1.43732,-1.293526 -3.367565,-2.178195 -5.75,-2.178237 -2.84474,2.1e-5 -5.038875,1.07863 -6.5,2.803237 -1.404394,1.657646 -2.103718,3.831918 -2.15625,6.971189 l -4.84375,0 c -0.002,-1.179944 -0.03258,-2.452927 0.375,-4.564939 0.539843,-2.797369 2.367271,-5.247541 5.09375,-6.990737 l 0.03125,0 c 2.497677,-1.605612 5.244391,-2.406205 8.28125,-2.40625 z m -6.594872,36.408979 -0.802457,1.346822 -1.003072,8.011165 0.802457,2.249586 4.857573,0.70215 8.525815,-0.501536 -0.802458,-1.74805 3.653887,-0.601843 -3.310137,-6.907786 0.401229,-2.149279 -3.553579,0.100307 -5.616907,-0.501536 z M 39.625,50.6875 l 5.53125,0 0,5.317521 -5.53125,0 z"
           style="font-size:medium;font-style:normal;font-variant:normal;font-weight:normal;font-stretch:normal;text-indent:0;text-align:start;text-decoration:none;line-height:125%;letter-spacing:0;word-spacing:0;text-transform:none;direction:ltr;block-progression:tb;writing-mode:lr-tb;text-anchor:start;baseline-shift:baseline;color:#000000;fill:#000000;fill-opacity:1;fill-rule:nonzero;stroke:none;stroke-width:0.6788789;marker:none;visibility:visible;display:inline;overflow:visible;enable-background:accumulate;font-family:MEAN 26 Sans;-inkscape-font-specification:MEAN 26 Sans" />
      </g>
    </g>
    <g
       transform="matrix(1.6861494,0,0,1.6861494,-29.517746,-13.931371)"
       style="opacity:1;filter:url(#filter4015)"
       id="g3298">
      <g
         style="font-size:68.31048583999999835px;font-style:normal;font-variant:normal;font-weight:normal;font-stretch:normal;text-align:start;line-height:125%;letter-spacing:0px;word-spacing:0px;writing-mode:lr-tb;text-anchor:start;fill:url(#linearGradient3264);fill-opacity:1;stroke:none;font-family:MEAN 26 Sans;-inkscape-font-specification:MEAN 26 Sans"
         id="g3300"
         transform="matrix(1.2461722,0,0,1.2461722,-5.1328089,4.2181838)">
        <path
           d="m 56.504568,23.596172 c -3.1e-5,2.59583 -1.001917,5.077775 -3.005661,7.445843 -1.86718,1.821637 -3.711561,3.666019 -5.533149,5.53315 -2.003795,2.185954 -3.005681,4.417427 -3.005662,6.694427 l 0.01162,2.254246 -5.41977,0 c 0,0 -0.02753,-1.69396 -0.02753,-2.431991 0,-3.454973 1.238363,-6.001952 2.839879,-7.677961 L 48.37562,28.85608 c 1.366186,-1.502801 2.04929,-3.347182 2.049315,-5.53315 -2.5e-5,-2.32252 -0.683129,-4.098591 -2.049315,-5.328217 -1.366231,-1.229549 -3.210612,-1.844343 -5.533149,-1.844384 -5.555931,4.1e-5 -8.333888,3.278941 -8.333879,9.83671 l -5.53315,0 c -3e-6,-1.184016 -0.03327,-2.963667 0.409863,-5.259907 0.560895,-2.906455 2.481942,-5.191555 5.259908,-6.96767 2.550246,-1.639406 5.373743,-2.459131 8.4705,-2.459177 3.779825,4.6e-5 6.922105,1.070242 9.426847,3.210593 2.641309,2.277056 3.961977,5.305485 3.962008,9.085294 M 45.50658,57 l -6.216254,0 0,-6.421186 6.216254,0 0,6.421186"
           id="path3302"
           inkscape:connector-curvature="0"
           sodipodi:nodetypes="ccccccccccccccsccccccccc"
           style="fill:url(#linearGradient3262);fill-opacity:1" />
      </g>
      <g
         style="font-size:68.31048583999999835px;font-style:normal;font-variant:normal;font-weight:normal;font-stretch:normal;text-align:start;line-height:125%;letter-spacing:0px;word-spacing:0px;writing-mode:lr-tb;text-anchor:start;opacity:0.27615063000000001;fill:url(#linearGradient3266);fill-opacity:1;stroke:#000000;stroke-width:0.67887889999999995;stroke-miterlimit:4;stroke-opacity:1;stroke-dasharray:none;filter:url(#filter3941);font-family:MEAN 26 Sans;-inkscape-font-specification:MEAN 26 Sans"
         id="g3304"
         transform="matrix(1.2461722,0,0,1.2461722,-5.13281,5.2181838)"
         mask="url(#mask3903)">
        <path
           style="font-size:medium;font-style:normal;font-variant:normal;font-weight:normal;font-stretch:normal;text-indent:0;text-align:start;text-decoration:none;line-height:125%;letter-spacing:0;word-spacing:0;text-transform:none;direction:ltr;block-progression:tb;writing-mode:lr-tb;text-anchor:start;baseline-shift:baseline;color:#000000;fill:#000000;fill-opacity:1;fill-rule:nonzero;stroke:none;stroke-width:0.67887889999999995;marker:none;visibility:visible;display:inline;overflow:visible;enable-background:accumulate;font-family:MEAN 26 Sans;-inkscape-font-specification:MEAN 26 Sans"
           d="M 43.024693,6.0135761 C 39.868038,6.0136231 30.551599,7.3419119 27.948784,9.0151119 25.119331,10.824146 13.093765,19.747159 12.511818,22.7627 c -0.449915,2.331383 10.48763,3.802722 11.198131,4.741907 l 1.905836,2.519258 4.95788,5.215973 4.327564,-7.021502 4.556651,-0.902764 -0.802458,-1.817108 C 37.3502,22.542883 37.633366,22.504496 38.9502,20.9502 c 1.316834,-1.554296 0.680823,-1.842194 3.392014,-1.842214 2.262639,4e-5 0.807529,0.584428 2.102671,1.75 1.287202,1.158537 1.335633,-0.102371 1.335657,2.153593 -2.4e-5,2.115255 -0.05582,2.064784 -1.366907,3.506971 l -5.097236,6.462192 c -1.659802,1.737006 -4.3418,5.172625 -4.3418,8.708708 0,0.746472 1.134629,2.4375 1.134629,2.4375 l 0.100307,1.346821 1.447129,1.303993 6.409322,0.200615 2.4502,0.300921 1.604915,-2.149279 1.203686,-1.54785 c 1.336675,-1.718864 3.851032,-2.019008 5.815157,-4.161685 1.819637,-1.865131 2.061156,-1.504806 3.926336,-3.324492 l 3.109522,1.774279 C 64.219051,35.455518 62.761841,27.279989 62.761873,24.596822 62.761841,20.737948 67.297904,9.6665096 64.586245,7.3288056 62.017394,5.1336726 46.868587,6.0136231 43.024693,6.0135761 z M 43.125,11.384263 c 3.715756,4.5e-5 6.746867,1.070681 9.1875,3.15625 2.570959,2.216408 3.84372,5.352493 3.84375,9.053237 -3e-5,2.508493 -0.942011,4.736878 -2.90625,7.058259 -1.86918,1.823588 -3.707711,3.662119 -5.53125,5.53125 -2.043465,2.229231 -3.09377,4.72142 -3.09375,7.097991 l 0,1.673704 -4.71875,0 C 39.90055,44.589398 39.875,43.720466 39.875,43.09375 c 0,-3.373863 1.20677,-5.822488 2.75,-7.4375 l 6,-6.5625 c 1.42129,-1.563415 2.124974,-3.524569 2.125,-5.78125 -2.6e-5,-2.389076 -0.71108,-4.261785 -2.15625,-5.5625 -1.43732,-1.293526 -3.367565,-2.178195 -5.75,-2.178237 -2.84474,2.1e-5 -5.038875,1.07863 -6.5,2.803237 -1.404394,1.657646 -2.103718,3.831918 -2.15625,6.971189 l -4.84375,0 c -0.002,-1.179944 -0.03258,-2.452927 0.375,-4.564939 0.539843,-2.797369 2.367271,-5.247541 5.09375,-6.990737 l 0.03125,0 c 2.497677,-1.605612 5.244391,-2.406205 8.28125,-2.40625 z m -6.594872,36.408979 -0.802457,1.346822 -1.003072,8.011165 0.802457,2.249586 4.857573,0.70215 8.525815,-0.501536 -0.802458,-1.74805 3.653887,-0.601843 -3.310137,-6.907786 0.401229,-2.149279 -3.553579,0.100307 -5.616907,-0.501536 z M 39.625,50.6875 l 5.53125,0 0,5.317521 -5.53125,0 z"
           id="path3306"
           inkscape:connector-curvature="0"
           sodipodi:nodetypes="ccssccccsscccccsccccccscccccccccccsccscccccsccsccccccccccccccccccccc" />
      </g>
    </g>
  </g>
</svg>
