<?xml version="1.0" encoding="UTF-8" standalone="no"?>
<!-- Created with Inkscape (http://www.inkscape.org/) -->
<svg
   xmlns:dc="http://purl.org/dc/elements/1.1/"
   xmlns:cc="http://web.resource.org/cc/"
   xmlns:rdf="http://www.w3.org/1999/02/22-rdf-syntax-ns#"
   xmlns:svg="http://www.w3.org/2000/svg"
   xmlns="http://www.w3.org/2000/svg"
   xmlns:xlink="http://www.w3.org/1999/xlink"
   xmlns:sodipodi="http://sodipodi.sourceforge.net/DTD/sodipodi-0.dtd"
   xmlns:inkscape="http://www.inkscape.org/namespaces/inkscape"
   width="128"
   height="128"
   id="svg4387"
   sodipodi:version="0.32"
   inkscape:version="0.45.1"
   version="1.0"
   sodipodi:docname="video-television.svgz"
   inkscape:output_extension="org.inkscape.output.svgz.inkscape"
   sodipodi:docbase="/home/david/Oxygen/kdelibs/scalable/devices/small/16x16"
   inkscape:export-filename="/home/david/Oxygen/kdelibs/scalable/devices/small/16x16/video-television.png"
   inkscape:export-xdpi="11.25"
   inkscape:export-ydpi="11.25">
  <defs
     id="defs4389">
    <linearGradient
       inkscape:collect="always"
       id="linearGradient5588">
      <stop
         style="stop-color:#ffffff;stop-opacity:1;"
         offset="0"
         id="stop5590" />
      <stop
         style="stop-color:#ffffff;stop-opacity:0;"
         offset="1"
         id="stop5592" />
    </linearGradient>
    <linearGradient
       id="linearGradient6160">
      <stop
         style="stop-color:#000000;stop-opacity:1;"
         offset="0"
         id="stop6162" />
      <stop
         style="stop-color:#000000;stop-opacity:0;"
         offset="1"
         id="stop6164" />
    </linearGradient>
    <linearGradient
       inkscape:collect="always"
       id="linearGradient6148">
      <stop
         style="stop-color:#ffffff;stop-opacity:1;"
         offset="0"
         id="stop6150" />
      <stop
         style="stop-color:#ffffff;stop-opacity:0;"
         offset="1"
         id="stop6152" />
    </linearGradient>
    <linearGradient
       id="XMLID_20_"
       gradientUnits="userSpaceOnUse"
       x1="122.9995"
       y1="138"
       x2="122.9995"
       y2="146.0352">
      <stop
         offset="0"
         style="stop-color:#000000"
         id="stop3388" />
      <stop
         offset="0.3607"
         style="stop-color:#0F0F0F"
         id="stop3390" />
      <stop
         offset="1"
         style="stop-color:#323232"
         id="stop3392" />
    </linearGradient>
    <linearGradient
       id="XMLID_19_"
       gradientUnits="userSpaceOnUse"
       x1="122.9995"
       y1="138"
       x2="122.9995"
       y2="149">
      <stop
         offset="0.1598"
         style="stop-color:#000000"
         id="stop3373" />
      <stop
         offset="0.2366"
         style="stop-color:#0E0E0F"
         id="stop3375" />
      <stop
         offset="0.3728"
         style="stop-color:#303132"
         id="stop3377" />
      <stop
         offset="0.4849"
         style="stop-color:#4D4F51"
         id="stop3379" />
      <stop
         offset="0.6614"
         style="stop-color:#75797B"
         id="stop3381" />
      <stop
         offset="0.7515"
         style="stop-color:#85898C"
         id="stop3383" />
    </linearGradient>
    <linearGradient
       id="XMLID_18_"
       gradientUnits="userSpaceOnUse"
       x1="26"
       y1="69"
       x2="220"
       y2="69">
      <stop
         offset="0"
         style="stop-color:#3383E6"
         id="stop3354" />
      <stop
         offset="1"
         style="stop-color:#6ECAF7"
         id="stop3364" />
    </linearGradient>
    <linearGradient
       id="linearGradient3994">
      <stop
         style="stop-color:#000000;stop-opacity:0;"
         offset="0"
         id="stop3996" />
      <stop
         id="stop4383"
         offset="0.03147855"
         style="stop-color:#000000;stop-opacity:1;" />
      <stop
         style="stop-color:#000000;stop-opacity:1;"
         offset="0.96739393"
         id="stop4385" />
      <stop
         style="stop-color:#000000;stop-opacity:0;"
         offset="1"
         id="stop3998" />
    </linearGradient>
    <linearGradient
       id="XMLID_16_"
       gradientUnits="userSpaceOnUse"
       x1="107.3398"
       y1="148.9805"
       x2="138.6602"
       y2="148.9805">
      <stop
         offset="0"
         style="stop-color:#FFFFFF"
         id="stop2963" />
      <stop
         offset="0.0314"
         style="stop-color:#DADADA"
         id="stop2965" />
      <stop
         offset="0.0801"
         style="stop-color:#A7A7A7"
         id="stop2967" />
      <stop
         offset="0.1311"
         style="stop-color:#7B7B7B"
         id="stop2969" />
      <stop
         offset="0.1834"
         style="stop-color:#555555"
         id="stop2971" />
      <stop
         offset="0.2375"
         style="stop-color:#363636"
         id="stop2973" />
      <stop
         offset="0.2939"
         style="stop-color:#1E1E1E"
         id="stop2975" />
      <stop
         offset="0.3536"
         style="stop-color:#0D0D0D"
         id="stop2977" />
      <stop
         offset="0.4188"
         style="stop-color:#030303"
         id="stop2979" />
      <stop
         offset="0.5"
         style="stop-color:#000000"
         id="stop2981" />
      <stop
         offset="0.5812"
         style="stop-color:#030303"
         id="stop2983" />
      <stop
         offset="0.6464"
         style="stop-color:#0D0D0D"
         id="stop2985" />
      <stop
         offset="0.7061"
         style="stop-color:#1E1E1E"
         id="stop2987" />
      <stop
         offset="0.7625"
         style="stop-color:#363636"
         id="stop2989" />
      <stop
         offset="0.8166"
         style="stop-color:#555555"
         id="stop2991" />
      <stop
         offset="0.8689"
         style="stop-color:#7B7B7B"
         id="stop2993" />
      <stop
         offset="0.9199"
         style="stop-color:#A7A7A7"
         id="stop2995" />
      <stop
         offset="0.9686"
         style="stop-color:#DADADA"
         id="stop2997" />
      <stop
         offset="1"
         style="stop-color:#FFFFFF"
         id="stop2999" />
    </linearGradient>
    <linearGradient
       id="XMLID_15_"
       gradientUnits="userSpaceOnUse"
       x1="123.0005"
       y1="157.375"
       x2="123.0005"
       y2="141.4375">
      <stop
         offset="0"
         style="stop-color:#FFFFFF"
         id="stop2940" />
      <stop
         offset="0.0157"
         style="stop-color:#DADADA"
         id="stop2942" />
      <stop
         offset="0.04"
         style="stop-color:#A7A7A7"
         id="stop2944" />
      <stop
         offset="0.0655"
         style="stop-color:#7B7B7B"
         id="stop2946" />
      <stop
         offset="0.0917"
         style="stop-color:#555555"
         id="stop2948" />
      <stop
         offset="0.1188"
         style="stop-color:#363636"
         id="stop2950" />
      <stop
         offset="0.147"
         style="stop-color:#1E1E1E"
         id="stop2952" />
      <stop
         offset="0.1768"
         style="stop-color:#0D0D0D"
         id="stop2954" />
      <stop
         offset="0.2094"
         style="stop-color:#030303"
         id="stop2956" />
      <stop
         offset="0.25"
         style="stop-color:#000000"
         id="stop2958" />
    </linearGradient>
    <linearGradient
       id="XMLID_14_"
       gradientUnits="userSpaceOnUse"
       x1="49.875"
       y1="165.22659"
       x2="196.125"
       y2="165.22659">
      <stop
         offset="0"
         style="stop-color:#323232"
         id="stop2915" />
      <stop
         offset="0.1716"
         style="stop-color:#A8AFBB"
         id="stop2917" />
      <stop
         offset="0.3077"
         style="stop-color:#323232"
         id="stop2919" />
      <stop
         offset="0.5"
         style="stop-color:#ACB2BB"
         id="stop2921" />
      <stop
         offset="0.7456"
         style="stop-color:#000000"
         id="stop2923" />
      <stop
         offset="0.7754"
         style="stop-color:#101112"
         id="stop2925" />
      <stop
         offset="0.8331"
         style="stop-color:#2B2C2F"
         id="stop2927" />
      <stop
         offset="0.8904"
         style="stop-color:#3E4044"
         id="stop2929" />
      <stop
         offset="0.9465"
         style="stop-color:#494C51"
         id="stop2931" />
      <stop
         offset="1"
         style="stop-color:#4D5055"
         id="stop2933" />
    </linearGradient>
    <linearGradient
       id="XMLID_13_"
       gradientUnits="userSpaceOnUse"
       x1="122.0557"
       y1="160.3047"
       x2="122.0557"
       y2="169.5625">
      <stop
         offset="0"
         style="stop-color:#000000"
         id="stop2884" />
      <stop
         offset="0.1139"
         style="stop-color:#040404"
         id="stop2886" />
      <stop
         offset="0.2248"
         style="stop-color:#101010"
         id="stop2888" />
      <stop
         offset="0.3345"
         style="stop-color:#232323"
         id="stop2890" />
      <stop
         offset="0.4428"
         style="stop-color:#3E3E3E"
         id="stop2892" />
      <stop
         offset="0.5148"
         style="stop-color:#555555"
         id="stop2894" />
      <stop
         offset="0.5191"
         style="stop-color:#595959"
         id="stop2896" />
      <stop
         offset="0.5766"
         style="stop-color:#858585"
         id="stop2898" />
      <stop
         offset="0.6366"
         style="stop-color:#AAAAAA"
         id="stop2900" />
      <stop
         offset="0.6987"
         style="stop-color:#C9C9C9"
         id="stop2902" />
      <stop
         offset="0.7634"
         style="stop-color:#E1E1E1"
         id="stop2904" />
      <stop
         offset="0.8319"
         style="stop-color:#F2F2F2"
         id="stop2906" />
      <stop
         offset="0.9068"
         style="stop-color:#FCFCFC"
         id="stop2908" />
      <stop
         offset="1"
         style="stop-color:#FFFFFF"
         id="stop2910" />
    </linearGradient>
    <linearGradient
       id="XMLID_12_"
       gradientUnits="userSpaceOnUse"
       x1="122.9995"
       y1="157.375"
       x2="122.9995"
       y2="161.75">
      <stop
         offset="0"
         style="stop-color:#000000"
         id="stop2861" />
      <stop
         offset="0.1365"
         style="stop-color:#040404"
         id="stop2863" />
      <stop
         offset="0.2635"
         style="stop-color:#0F0F0F"
         id="stop2865" />
      <stop
         offset="0.3869"
         style="stop-color:#222222"
         id="stop2867" />
      <stop
         offset="0.5079"
         style="stop-color:#3C3C3C"
         id="stop2869" />
      <stop
         offset="0.6273"
         style="stop-color:#5F5F5F"
         id="stop2871" />
      <stop
         offset="0.7455"
         style="stop-color:#898989"
         id="stop2873" />
      <stop
         offset="0.8627"
         style="stop-color:#BABABA"
         id="stop2875" />
      <stop
         offset="0.9763"
         style="stop-color:#F2F2F2"
         id="stop2877" />
      <stop
         offset="1"
         style="stop-color:#FFFFFF"
         id="stop2879" />
    </linearGradient>
    <linearGradient
       id="XMLID_11_"
       gradientUnits="userSpaceOnUse"
       x1="123.0005"
       y1="169.5625"
       x2="123.0005"
       y2="155.14841">
      <stop
         offset="0"
         style="stop-color:#FFFFFF"
         id="stop2820" />
      <stop
         offset="0.0314"
         style="stop-color:#DADADA"
         id="stop2822" />
      <stop
         offset="0.0801"
         style="stop-color:#A7A7A7"
         id="stop2824" />
      <stop
         offset="0.1311"
         style="stop-color:#7B7B7B"
         id="stop2826" />
      <stop
         offset="0.1834"
         style="stop-color:#555555"
         id="stop2828" />
      <stop
         offset="0.2375"
         style="stop-color:#363636"
         id="stop2830" />
      <stop
         offset="0.2939"
         style="stop-color:#1E1E1E"
         id="stop2832" />
      <stop
         offset="0.3536"
         style="stop-color:#0D0D0D"
         id="stop2834" />
      <stop
         offset="0.4188"
         style="stop-color:#030303"
         id="stop2836" />
      <stop
         offset="0.5"
         style="stop-color:#000000"
         id="stop2838" />
      <stop
         offset="0.5812"
         style="stop-color:#030303"
         id="stop2840" />
      <stop
         offset="0.6464"
         style="stop-color:#0D0D0D"
         id="stop2842" />
      <stop
         offset="0.7061"
         style="stop-color:#1E1E1E"
         id="stop2844" />
      <stop
         offset="0.7625"
         style="stop-color:#363636"
         id="stop2846" />
      <stop
         offset="0.8166"
         style="stop-color:#555555"
         id="stop2848" />
      <stop
         offset="0.8689"
         style="stop-color:#7B7B7B"
         id="stop2850" />
      <stop
         offset="0.9199"
         style="stop-color:#A7A7A7"
         id="stop2852" />
      <stop
         offset="0.9686"
         style="stop-color:#DADADA"
         id="stop2854" />
      <stop
         offset="1"
         style="stop-color:#FFFFFF"
         id="stop2856" />
    </linearGradient>
    <linearGradient
       inkscape:collect="always"
       xlink:href="#XMLID_20_"
       id="linearGradient5853"
       gradientUnits="userSpaceOnUse"
       x1="122.9995"
       y1="138"
       x2="122.9995"
       y2="146.0352"
       gradientTransform="matrix(0.5203251,0,0,0.5660025,0,26.891655)" />
    <linearGradient
       inkscape:collect="always"
       xlink:href="#XMLID_19_"
       id="linearGradient5856"
       gradientUnits="userSpaceOnUse"
       x1="122.9995"
       y1="143.5"
       x2="122.9995"
       y2="149"
       gradientTransform="matrix(0.5203251,0,0,2.0078305,0,-187.25253)" />
    <linearGradient
       inkscape:collect="always"
       xlink:href="#XMLID_18_"
       id="linearGradient5859"
       gradientUnits="userSpaceOnUse"
       x1="126.03124"
       y1="14"
       x2="166.95312"
       y2="110"
       gradientTransform="matrix(0.4948454,0,0,0.5818182,3.1340206,-104.14545)" />
    <linearGradient
       inkscape:collect="always"
       xlink:href="#linearGradient3994"
       id="linearGradient5863"
       gradientUnits="userSpaceOnUse"
       x1="11"
       y1="69"
       x2="235"
       y2="69"
       gradientTransform="matrix(0.4878048,0,0,0.5,4,36)" />
    <linearGradient
       inkscape:collect="always"
       xlink:href="#linearGradient6148"
       id="linearGradient6154"
       x1="48"
       y1="38.75"
       x2="54.75"
       y2="94.843658"
       gradientUnits="userSpaceOnUse"
       gradientTransform="matrix(1.0280201,0,0,1,-1.7932889,-7.5741626)" />
    <radialGradient
       inkscape:collect="always"
       xlink:href="#linearGradient5588"
       id="radialGradient5594"
       cx="65.234375"
       cy="124.4344"
       fx="65.234375"
       fy="124.4344"
       r="33.234375"
       gradientTransform="matrix(1.0368558,0,0,0.1458826,-3.6291472,102.91317)"
       gradientUnits="userSpaceOnUse" />
    <filter
       inkscape:collect="always"
       x="-0.012387097"
       width="1.0247742"
       y="-0.38399999"
       height="1.768"
       id="filter5605">
      <feGaussianBlur
         inkscape:collect="always"
         stdDeviation="0.48995216"
         id="feGaussianBlur5607" />
    </filter>
  </defs>
  <sodipodi:namedview
     id="base"
     pagecolor="#ffffff"
     bordercolor="#666666"
     borderopacity="1.0"
     inkscape:pageopacity="0.0"
     inkscape:pageshadow="2"
     inkscape:zoom="1"
     inkscape:cx="64"
     inkscape:cy="64"
     inkscape:document-units="px"
     inkscape:current-layer="layer1"
     height="128px"
     width="128px"
     gridspacingx="4px"
     gridspacingy="4px"
     gridempspacing="2"
     showgrid="false"
     inkscape:window-width="744"
     inkscape:window-height="735"
     inkscape:window-x="0"
     inkscape:window-y="0"
     showborder="false" />
  <metadata
     id="metadata4392">
    <rdf:RDF>
      <cc:Work
         rdf:about="">
        <dc:format>image/svg+xml</dc:format>
        <dc:type
           rdf:resource="http://purl.org/dc/dcmitype/StillImage" />
      </cc:Work>
    </rdf:RDF>
  </metadata>
  <g
     inkscape:label="Livello 1"
     inkscape:groupmode="layer"
     id="layer1">
    <path
       style="fill:#000000;fill-opacity:1;stroke:none;stroke-width:8.00000095;stroke-linecap:round;stroke-linejoin:round;stroke-miterlimit:4;stroke-dasharray:none;stroke-opacity:0.85098039"
       d="M 63.999999,93.047967 C 57.956362,93.047967 56.121429,96.965322 56.121429,101.80303 C 56.493228,113.96859 57.487644,120.03154 35.242818,120.03154 C 23.743629,121.13647 16.038278,123.10319 16.038278,125.37553 C 16.038278,128.84665 41.919998,128.20415 63.999999,128.20415 C 86.079994,128.20415 111.96172,128.84665 111.96172,125.37553 C 111.96172,123.10319 104.25637,121.13647 92.757173,120.03154 C 71.983008,120.03154 72.082715,115.0646 72.082715,101.80303 C 72.082715,96.96533 70.043638,93.047967 63.999999,93.047967 z "
       id="path3953"
       sodipodi:nodetypes="cccsssccc" />
    <g
       transform="matrix(0.5,0,0,0.5,5,38.867)"
       id="Livello_1" />
    <rect
       y="36"
       style="fill:url(#linearGradient5863);fill-opacity:1"
       id="rect3333"
       height="69"
       width="109.2683"
       x="9.3658543" />
    <rect
       y="24"
       id="rect3335"
       height="81.570976"
       width="128.5"
       x="-0.49999523" />
    <path
       d="M 128,89.623939 L 8.8817842e-16,89.623939 L 8.8817842e-16,105.83507 C 8.8817842e-16,105.83507 40.195121,111.91421 64,111.91421 C 87.804879,111.91421 128,105.83507 128,105.83507 L 128,89.623939 z "
       id="path5573"
       style="opacity:1;fill:#000000;fill-opacity:1" />
    <path
       style="opacity:0.53061224;fill:url(#linearGradient5856)"
       id="path3385"
       d="M 128,89.828085 L 8.8817842e-16,89.828085 L 8.8817842e-16,105.89075 C 8.8817842e-16,105.89075 40.195121,111.91421 64,111.91421 C 87.804879,111.91421 128,105.89075 128,105.89075 L 128,89.828085 z " />
    <rect
       style="fill:url(#linearGradient5859)"
       id="rect3370"
       height="64"
       width="96"
       y="-96"
       x="16"
       transform="scale(1,-1)" />
    <path
       style="fill:#bbbbbb"
       id="path3396"
       d="M 65.7275,104.15097 C 65.63,104.31347 65.4155,104.39097 65.2185,104.42747 C 64.895,104.12547 64.461,103.94047 63.9835,103.94047 C 62.9835,103.94047 62.1725,104.75147 62.1725,105.75147 C 62.1725,106.75147 62.9835,107.56247 63.9835,107.56247 C 64.9835,107.56247 65.7945,106.75147 65.7945,105.75147 C 65.7945,105.44297 65.717,105.15197 65.5805,104.89747 C 65.8575,104.61197 65.894,103.87297 65.7275,104.15097 z M 63.9835,107.08147 C 63.249,107.08147 62.6535,106.48597 62.6535,105.75147 C 62.6535,105.01697 63.249,104.42147 63.9835,104.42147 C 64.718,104.42147 65.3135,105.01697 65.3135,105.75147 C 65.3135,106.48597 64.7185,107.08147 63.9835,107.08147 z " />
    <g
       id="g3398"
       transform="matrix(0.6667037,0,0,0.5641749,-18.074892,25.839722)">
      <path
         style="fill:#dddddd"
         id="path3400"
         d="M 116.207,134.236 C 116.207,135.541 115.75,136.054 115.139,136.054 C 114.45,136.054 114.106,135.32 114.106,134.277 C 114.106,133.24 114.497,132.509 115.19,132.509 C 115.919,132.51 116.207,133.306 116.207,134.236 z M 114.676,134.283 C 114.676,135.037 114.82,135.577 115.169,135.577 C 115.523,135.577 115.636,134.955 115.636,134.262 C 115.636,133.636 115.533,132.988 115.163,132.988 C 114.819,132.987 114.676,133.559 114.676,134.283 z " />
      <path
         style="fill:#dddddd"
         id="path3402"
         d="M 118.826,136.013 L 118.57,135.289 C 118.498,135.095 118.436,134.904 118.37,134.679 L 118.354,134.679 C 118.293,134.905 118.231,135.11 118.175,135.299 L 117.939,136.013 L 117.389,136.013 L 118.062,134.246 L 117.415,132.551 L 117.985,132.551 L 118.236,133.266 C 118.293,133.435 118.349,133.61 118.411,133.821 L 118.421,133.821 C 118.488,133.595 118.539,133.435 118.586,133.256 L 118.812,132.552 L 119.362,132.552 L 118.704,134.258 L 119.398,136.014 L 118.826,136.014 L 118.826,136.013 z " />
      <path
         style="fill:#dddddd"
         id="path3404"
         d="M 121.303,136.013 L 121.303,134.627 L 120.542,132.551 L 121.127,132.551 L 121.395,133.394 C 121.467,133.624 121.544,133.892 121.61,134.155 L 121.621,134.155 C 121.672,133.892 121.745,133.636 121.821,133.379 L 122.068,132.552 L 122.638,132.552 L 121.852,134.608 L 121.852,136.014 L 121.303,136.014 L 121.303,136.013 z " />
      <path
         style="fill:#dddddd"
         id="path3406"
         d="M 125.674,135.921 C 125.525,135.983 125.237,136.045 125.001,136.045 C 124.647,136.045 124.355,135.947 124.123,135.706 C 123.851,135.423 123.686,134.93 123.691,134.313 C 123.701,133.013 124.41,132.521 125.088,132.521 C 125.329,132.521 125.514,132.566 125.622,132.624 L 125.514,133.097 C 125.421,133.045 125.293,133.014 125.118,133.014 C 124.672,133.014 124.261,133.342 124.261,134.319 C 124.261,135.259 124.62,135.578 124.98,135.578 C 125.073,135.578 125.134,135.568 125.166,135.553 L 125.166,134.581 L 124.795,134.581 L 124.795,134.135 L 125.674,134.135 L 125.674,135.921 L 125.674,135.921 z " />
      <path
         style="fill:#dddddd"
         id="path3408"
         d="M 128.592,134.438 L 127.771,134.438 L 127.771,135.536 L 128.705,135.536 L 128.705,136.014 L 127.222,136.014 L 127.222,132.552 L 128.645,132.552 L 128.645,133.031 L 127.772,133.031 L 127.772,133.981 L 128.593,133.981 L 128.593,134.438 L 128.592,134.438 z " />
      <path
         style="fill:#dddddd"
         id="path3410"
         d="M 130.179,136.013 L 130.179,132.551 L 130.688,132.551 L 131.269,134.031 C 131.386,134.343 131.561,134.791 131.669,135.125 L 131.679,135.125 C 131.655,134.684 131.622,134.148 131.622,133.527 L 131.622,132.55 L 132.105,132.55 L 132.105,136.012 L 131.596,136.012 L 131.01,134.539 C 130.887,134.22 130.733,133.804 130.636,133.439 L 130.625,133.439 C 130.646,133.839 130.666,134.327 130.666,135.046 L 130.666,136.011 L 130.179,136.011 L 130.179,136.013 z " />
    </g>
    <path
       style="opacity:0.43877552;fill:url(#linearGradient6154);fill-opacity:1;stroke:none"
       id="path3412"
       d="M 11.570973,60.277129 C 21.152923,63.520575 33.575327,65.425837 48.7082,65.425837 C 73.887241,65.425837 100.46111,60.163714 116.42903,52.211191 C 116.42903,39.263714 116.42903,27.911652 116.42903,27.425837 C 115.35369,27.425837 12.646315,27.425837 11.570973,27.425837 C 11.570973,28.010452 11.570973,44.360975 11.570973,60.277129 z " />
    <rect
       style="opacity:0.33673467;fill:#ffffff;fill-opacity:1;stroke:none;stroke-width:4;stroke-linecap:round;stroke-linejoin:round;stroke-miterlimit:4;stroke-dasharray:none;stroke-opacity:1"
       id="rect5575"
       width="6.7368422"
       height="81.984055"
       x="-6.3285484"
       y="24"
       transform="scale(-1,1)" />
    <rect
       transform="scale(-1,1)"
       y="24"
       x="-128"
       height="81.984047"
       width="6.7368422"
       id="rect5577"
       style="opacity:0.33673467;fill:#ffffff;fill-opacity:1;stroke:none;stroke-width:4;stroke-linecap:round;stroke-linejoin:round;stroke-miterlimit:4;stroke-dasharray:none;stroke-opacity:1" />
    <path
       style="opacity:0.98469388;fill:url(#radialGradient5594);fill-opacity:1;stroke:none;stroke-width:4;stroke-linecap:round;stroke-linejoin:round;stroke-miterlimit:4;stroke-dasharray:none;stroke-opacity:1"
       d="M 80.375 119.5625 C 75.482665 120.09343 69.913664 120.40625 63.96875 120.40625 C 58.372506 120.40625 53.106457 120.16154 48.4375 119.6875 C 46.96816 119.92351 45.267755 120.03125 43.21875 120.03125 C 38.933065 120.44305 35.154257 120.97133 32.125 121.59375 C 37.268788 124.13517 49.574162 125.90625 63.96875 125.90625 C 78.363337 125.90625 90.710931 124.13518 95.875 121.59375 C 92.845741 120.97133 89.066936 120.44305 84.78125 120.03125 C 83.110711 120.03125 81.666697 119.87189 80.375 119.5625 z "
       id="path5581" />
    <rect
       style="opacity:0.68877552;fill:#ffffff;fill-opacity:1;stroke:none;stroke-width:4;stroke-linecap:round;stroke-linejoin:round;stroke-miterlimit:4;stroke-dasharray:none;stroke-opacity:1;filter:url(#filter5605)"
       id="rect5599"
       width="94.92823"
       height="3.062201"
       x="16.740032"
       y="96.561401"
       transform="matrix(1,0,0,1.7546117,0,-76.324109)" />
  </g>
</svg>
