<?xml version="1.0" encoding="UTF-8" standalone="no"?>
<!-- Created with Inkscape (http://www.inkscape.org/) -->

<svg
   xmlns:dc="http://purl.org/dc/elements/1.1/"
   xmlns:cc="http://creativecommons.org/ns#"
   xmlns:rdf="http://www.w3.org/1999/02/22-rdf-syntax-ns#"
   xmlns:svg="http://www.w3.org/2000/svg"
   xmlns="http://www.w3.org/2000/svg"
   xmlns:xlink="http://www.w3.org/1999/xlink"
   xmlns:sodipodi="http://sodipodi.sourceforge.net/DTD/sodipodi-0.dtd"
   xmlns:inkscape="http://www.inkscape.org/namespaces/inkscape"
   width="128"
   height="128"
   id="svg2"
   sodipodi:version="0.32"
   inkscape:version="0.46+devel"
   version="1.0"
   sodipodi:docname="view-time-schedule-child-insert.svgz"
   inkscape:output_extension="org.inkscape.output.svgz.inkscape"
   inkscape:export-filename="/home/pinheiro/pics/oxygen-icons/scalable/actions/small/16x16/view-time-schedule-child-insert.png"
   inkscape:export-xdpi="90"
   inkscape:export-ydpi="90">
  <defs
     id="defs4">
    <linearGradient
       inkscape:collect="always"
       id="linearGradient4771">
      <stop
         style="stop-color:#ffffff;stop-opacity:1;"
         offset="0"
         id="stop4773" />
      <stop
         style="stop-color:#ffffff;stop-opacity:0;"
         offset="1"
         id="stop4775" />
    </linearGradient>
    <linearGradient
       id="linearGradient10964">
      <stop
         style="stop-color:#ffffff;stop-opacity:1;"
         offset="0"
         id="stop10966" />
      <stop
         style="stop-color:#eeeeee;stop-opacity:1"
         offset="1"
         id="stop10968" />
    </linearGradient>
    <radialGradient
       id="radialGradient3827"
       cx="48"
       cy="-0.2148"
       r="55.147999"
       gradientTransform="matrix(0.9792,0,0,0.9725,133.0002,20.8762)"
       gradientUnits="userSpaceOnUse">
      <stop
         offset="0"
         style="stop-color:#3dbcd1;stop-opacity:1;"
         id="stop3829" />
      <stop
         offset="0.35530001"
         style="stop-color:#1c8dac;stop-opacity:1;"
         id="stop3831" />
      <stop
         offset="0.61940002"
         style="stop-color:#087795;stop-opacity:1;"
         id="stop3833" />
      <stop
         offset="0.75739998"
         style="stop-color:#00718c;stop-opacity:1;"
         id="stop3835" />
      <stop
         offset="1"
         style="stop-color:#005d7a;stop-opacity:1;"
         id="stop3837" />
    </radialGradient>
    <radialGradient
       gradientUnits="userSpaceOnUse"
       gradientTransform="matrix(0.9792,0,0,0.9725,133.0002,20.8762)"
       r="55.147999"
       cy="-0.2148"
       cx="48"
       id="radialGradient3839">
      <stop
         id="stop3841"
         style="stop-color:#8dd8e4;stop-opacity:1;"
         offset="0" />
      <stop
         id="stop3843"
         style="stop-color:#a8e2f1;stop-opacity:1;"
         offset="0.35530001" />
      <stop
         id="stop3845"
         style="stop-color:#0a9dc4;stop-opacity:1;"
         offset="0.61940002" />
      <stop
         id="stop3847"
         style="stop-color:#00718c;stop-opacity:1;"
         offset="0.75739998" />
      <stop
         id="stop3849"
         style="stop-color:#005d7a;stop-opacity:1;"
         offset="1" />
    </radialGradient>
    <linearGradient
       inkscape:collect="always"
       id="linearGradient5789">
      <stop
         style="stop-color:#c8e1ff;stop-opacity:1"
         offset="0"
         id="stop5791" />
      <stop
         style="stop-color:#ffffff;stop-opacity:1"
         offset="1"
         id="stop5793" />
    </linearGradient>
    <radialGradient
       inkscape:collect="always"
       xlink:href="#linearGradient5789"
       id="radialGradient4876"
       gradientUnits="userSpaceOnUse"
       gradientTransform="matrix(1,0,0,0.7462986,0,12.216192)"
       cx="71.30835"
       cy="48.151859"
       fx="71.30835"
       fy="48.151859"
       r="23.752516" />
    <radialGradient
       inkscape:collect="always"
       xlink:href="#radialGradient3839"
       id="radialGradient5017"
       cx="61.759872"
       cy="6.5570927"
       fx="61.759872"
       fy="6.5570927"
       r="31.999201"
       gradientTransform="matrix(1.4398044,0,0,1.0798532,-40.92214,8.9193028)"
       gradientUnits="userSpaceOnUse" />
    <filter
       inkscape:collect="always"
       id="filter5031">
      <feGaussianBlur
         inkscape:collect="always"
         stdDeviation="1.5923773"
         id="feGaussianBlur5033" />
    </filter>
    <radialGradient
       inkscape:collect="always"
       xlink:href="#radialGradient3827"
       id="radialGradient5037"
       gradientUnits="userSpaceOnUse"
       gradientTransform="matrix(1.6377554,0,0,0.69750163,-84.486846,-20.698899)"
       cx="90.664398"
       cy="59.557266"
       fx="90.664398"
       fy="59.557266"
       r="31.999201" />
    <radialGradient
       inkscape:collect="always"
       xlink:href="#linearGradient10964"
       id="radialGradient3888"
       cx="23.999399"
       cy="34.258755"
       fx="23.999399"
       fy="34.258755"
       r="50.665401"
       gradientTransform="matrix(2.182118,0,0,1.5808533,-25.293154,-13.033877)"
       gradientUnits="userSpaceOnUse" />
    <radialGradient
       gradientUnits="userSpaceOnUse"
       gradientTransform="matrix(0.9792,0,0,0.9725,133.0002,20.8762)"
       r="55.148"
       cy="-0.2148"
       cx="48"
       id="XMLID_4_">
      <stop
         id="stop3082"
         style="stop-color:#72D13D"
         offset="0" />
      <stop
         id="stop3084"
         style="stop-color:#35AC1C"
         offset="0.3553" />
      <stop
         id="stop3086"
         style="stop-color:#0F9508"
         offset="0.6194" />
      <stop
         id="stop3088"
         style="stop-color:#008C00"
         offset="0.7574" />
      <stop
         id="stop3090"
         style="stop-color:#007A00"
         offset="1" />
    </radialGradient>
    <linearGradient
       inkscape:collect="always"
       xlink:href="#XMLID_4_"
       id="linearGradient4575"
       gradientUnits="userSpaceOnUse"
       gradientTransform="matrix(4.0000006,0,0,4.0000006,-85.846164,-92.000014)"
       x1="39.531242"
       y1="32.99939"
       x2="39.531242"
       y2="37.000404" />
    <linearGradient
       inkscape:collect="always"
       xlink:href="#radialGradient3827"
       id="linearGradient4726"
       gradientUnits="userSpaceOnUse"
       gradientTransform="matrix(4.0000006,0,0,4.0000006,-53.846164,-68.000014)"
       x1="39.531242"
       y1="32.99939"
       x2="39.531242"
       y2="37.000404" />
    <filter
       inkscape:collect="always"
       id="filter3855"
       x="-0.080884676"
       width="1.1617694"
       y="-0.10399458"
       height="1.2079892">
      <feGaussianBlur
         inkscape:collect="always"
         stdDeviation="2.4265403"
         id="feGaussianBlur3857" />
    </filter>
    <linearGradient
       inkscape:collect="always"
       xlink:href="#XMLID_4_"
       id="linearGradient3862"
       gradientUnits="userSpaceOnUse"
       gradientTransform="matrix(4.0000006,0,0,4.0000006,-47.721166,-52.000014)"
       x1="39.531242"
       y1="32.99939"
       x2="39.531242"
       y2="37.000404" />
    <linearGradient
       inkscape:collect="always"
       xlink:href="#XMLID_4_"
       id="linearGradient3866"
       gradientUnits="userSpaceOnUse"
       gradientTransform="matrix(4.0000006,0,0,4.0000006,-25.596168,-36.000014)"
       x1="39.531242"
       y1="32.99939"
       x2="39.531242"
       y2="37.000404" />
    <linearGradient
       y2="87.759453"
       x2="336.98077"
       y1="120.81158"
       x1="328.12448"
       gradientUnits="userSpaceOnUse"
       id="linearGradient3660"
       xlink:href="#linearGradient4296"
       inkscape:collect="always" />
    <filter
       inkscape:collect="always"
       id="filter5943">
      <feGaussianBlur
         inkscape:collect="always"
         stdDeviation="1.04"
         id="feGaussianBlur5945" />
    </filter>
    <linearGradient
       id="linearGradient6740">
      <stop
         style="stop-color:#004d00;stop-opacity:0;"
         offset="0"
         id="stop6742" />
      <stop
         id="stop6748"
         offset="0.5"
         style="stop-color:#004d00;stop-opacity:1;" />
      <stop
         style="stop-color:#004d00;stop-opacity:0;"
         offset="1"
         id="stop6744" />
    </linearGradient>
    <linearGradient
       gradientTransform="matrix(0,1,-1,0,-39.9985,140.0029)"
       y2="-383.9975"
       x2="-23.516129"
       y1="-383.9971"
       x1="-84.002403"
       gradientUnits="userSpaceOnUse"
       id="linearGradient3711">
      <stop
         id="stop3713"
         style="stop-color:white;stop-opacity:1;"
         offset="0" />
      <stop
         id="stop3715"
         style="stop-color:white;stop-opacity:0;"
         offset="1" />
    </linearGradient>
    <filter
       inkscape:collect="always"
       id="filter7317">
      <feGaussianBlur
         inkscape:collect="always"
         stdDeviation="2.8805897"
         id="feGaussianBlur7319" />
    </filter>
    <clipPath
       clipPathUnits="userSpaceOnUse"
       id="clipPath5163">
      <circle
         sodipodi:ry="36"
         sodipodi:rx="36"
         sodipodi:cy="92"
         sodipodi:cx="343.99899"
         style="fill:url(#linearGradient5167);fill-opacity:1"
         r="36"
         rx="8.0010004"
         cx="343.99899"
         cy="92"
         ry="8.0010004"
         id="circle5165" />
    </clipPath>
    <linearGradient
       id="linearGradient4296">
      <stop
         id="stop4298"
         offset="0"
         style="stop-color:#00ff00;stop-opacity:1" />
      <stop
         id="stop4300"
         offset="1"
         style="stop-color:#006500;stop-opacity:1" />
    </linearGradient>
    <linearGradient
       gradientTransform="matrix(0,1,-1,0,-39.9985,140.0029)"
       y2="-383.9971"
       x2="-12.0029"
       y1="-383.9971"
       x1="-84.002403"
       gradientUnits="userSpaceOnUse"
       id="linearGradient4770">
      <stop
         id="stop4772"
         style="stop-color:#e5ff00;stop-opacity:1"
         offset="0" />
      <stop
         id="stop4774"
         style="stop-color:#bff500;stop-opacity:0;"
         offset="1" />
    </linearGradient>
    <linearGradient
       gradientTransform="matrix(0,1,-1,0,-39.9985,140.0029)"
       y2="-383.9971"
       x2="-12.0029"
       y1="-383.9971"
       x1="-84.002403"
       gradientUnits="userSpaceOnUse"
       id="linearGradient5958">
      <stop
         id="stop5960"
         style="stop-color:#008c00;stop-opacity:1"
         offset="0" />
      <stop
         id="stop5962"
         style="stop-color:#00bf00;stop-opacity:1"
         offset="1" />
    </linearGradient>
    <linearGradient
       inkscape:collect="always"
       xlink:href="#linearGradient5958"
       id="linearGradient4758"
       gradientUnits="userSpaceOnUse"
       gradientTransform="matrix(0,1,-1,0,-39.9985,140.0029)"
       x1="-86.120354"
       y1="-381.09921"
       x2="-56.357521"
       y2="-373.1243" />
    <radialGradient
       inkscape:collect="always"
       xlink:href="#linearGradient4770"
       id="radialGradient4760"
       gradientUnits="userSpaceOnUse"
       cx="343.99899"
       cy="92"
       fx="343.99899"
       fy="92"
       r="36" />
    <linearGradient
       inkscape:collect="always"
       xlink:href="#linearGradient4296"
       id="linearGradient4762"
       gradientUnits="userSpaceOnUse"
       x1="328.12448"
       y1="120.81158"
       x2="336.98077"
       y2="87.759453" />
    <linearGradient
       inkscape:collect="always"
       xlink:href="#linearGradient3711"
       id="linearGradient4765"
       gradientUnits="userSpaceOnUse"
       gradientTransform="matrix(0,0.7388168,-0.7388168,0,-1.5226652,63.255682)"
       x1="-80.00296"
       y1="-131.93112"
       x2="-45.096584"
       y2="-131.93112" />
    <linearGradient
       inkscape:collect="always"
       xlink:href="#linearGradient6740"
       id="linearGradient4767"
       gradientUnits="userSpaceOnUse"
       gradientTransform="translate(-5.999996,-59.999999)"
       x1="102"
       y1="118"
       x2="102"
       y2="65.932846" />
    <radialGradient
       inkscape:collect="always"
       xlink:href="#linearGradient4771"
       id="radialGradient4777"
       cx="84"
       cy="68"
       fx="84"
       fy="68"
       r="28"
       gradientTransform="matrix(1,0,0,1.2936264,0,-19.966598)"
       gradientUnits="userSpaceOnUse" />
  </defs>
  <sodipodi:namedview
     id="base"
     pagecolor="#ffffff"
     bordercolor="#666666"
     borderopacity="1.0"
     gridtolerance="50"
     guidetolerance="10"
     objecttolerance="10"
     inkscape:pageopacity="0.0"
     inkscape:pageshadow="2"
     inkscape:zoom="2.4648438"
     inkscape:cx="153.43748"
     inkscape:cy="10.184601"
     inkscape:document-units="px"
     inkscape:current-layer="layer1"
     width="128px"
     height="128px"
     showgrid="true"
     showborder="true"
     inkscape:window-width="1219"
     inkscape:window-height="953"
     inkscape:window-x="85"
     inkscape:window-y="92"
     inkscape:grid-bbox="true"
     showguides="true"
     inkscape:guide-bbox="true"
     inkscape:snap-nodes="true"
     inkscape:snap-global="true"
     inkscape:snap-bbox="true">
    <inkscape:grid
       id="GridFromPre046Settings"
       type="xygrid"
       originx="0px"
       originy="0px"
       spacingx="8px"
       spacingy="8px"
       color="#0000ff"
       empcolor="#0000ff"
       opacity="0.2"
       empopacity="0.4"
       empspacing="2"
       visible="true"
       enabled="true"
       dotted="false" />
    <sodipodi:guide
       orientation="1,0"
       position="-2.8399366,43.207607"
       id="guide3945" />
  </sodipodi:namedview>
  <metadata
     id="metadata7">
    <rdf:RDF>
      <cc:Work
         rdf:about="">
        <dc:format>image/svg+xml</dc:format>
        <dc:type
           rdf:resource="http://purl.org/dc/dcmitype/StillImage" />
        <dc:title></dc:title>
      </cc:Work>
    </rdf:RDF>
  </metadata>
  <g
     inkscape:label="Layer 1"
     inkscape:groupmode="layer"
     id="layer1">
    <g
       id="layer4"
       inkscape:label="box"
       style="display:inline"
       transform="matrix(0.9821429,0,0,0.9821429,54.2929,-311.68044)" />
    <g
       id="layer5"
       inkscape:label="zip_app"
       style="display:inline"
       transform="matrix(0.9821429,0,0,0.9821429,54.2929,-311.68044)" />
    <rect
       style="opacity:0.57786889;fill:#ffffff;fill-opacity:1;fill-rule:nonzero;stroke:none"
       id="rect1327"
       width="0.98214245"
       height="0"
       x="-30.632437"
       y="-372.11429" />
    <rect
       style="opacity:0.57786889;fill:#ffffff;fill-opacity:1;fill-rule:nonzero;stroke:none"
       id="rect2482"
       width="0.98214245"
       height="0"
       x="-65.132011"
       y="-399.1503" />
    <g
       style="opacity:0.40163933"
       transform="matrix(-0.7690129,0,0,0.6392557,-2502.6085,203.19934)"
       id="g4640" />
    <g
       id="g4646"
       transform="matrix(-0.7690129,0,0,0.6392557,-2502.6085,203.19934)"
       style="opacity:0.40163933" />
    <g
       id="g4730"
       transform="matrix(0.9821429,0,0,0.6392557,641.1926,210.3962)"
       style="opacity:0.40163933" />
    <g
       style="opacity:0.40163933"
       transform="matrix(0.9821429,0,0,0.6392557,641.1926,210.3962)"
       id="g4748" />
    <g
       id="g6929"
       inkscape:label="box"
       style="display:inline"
       transform="matrix(0.9821429,0,0,0.9821429,192.21026,-157.69167)" />
    <g
       id="g6931"
       inkscape:label="zip_app"
       style="display:inline"
       transform="matrix(0.9821429,0,0,0.9821429,192.21026,-157.69167)" />
    <rect
       style="opacity:0.57786889;fill:#ffffff;fill-opacity:1;fill-rule:nonzero;stroke:none"
       id="rect6937"
       width="0.98214245"
       height="0"
       x="107.28498"
       y="-218.12552" />
    <rect
       style="opacity:0.57786889;fill:#ffffff;fill-opacity:1;fill-rule:nonzero;stroke:none"
       id="rect6939"
       width="0.98214245"
       height="0"
       x="72.785469"
       y="-245.16154" />
    <g
       style="opacity:0.40163933"
       transform="matrix(-0.7690129,0,0,0.6392557,-2364.6913,357.18806)"
       id="g6943" />
    <g
       id="g6945"
       transform="matrix(-0.7690129,0,0,0.6392557,-2364.6913,357.18806)"
       style="opacity:0.40163933" />
    <g
       id="g6947"
       transform="matrix(0.9821429,0,0,0.6392557,779.10997,364.38506)"
       style="opacity:0.40163933" />
    <g
       style="opacity:0.40163933"
       transform="matrix(0.9821429,0,0,0.6392557,779.10997,364.38506)"
       id="g6949" />
    <g
       id="g7565"
       inkscape:label="box"
       style="display:inline"
       transform="matrix(0.9821429,0,0,0.9821429,143.59421,-208.7631)" />
    <g
       id="g7567"
       inkscape:label="zip_app"
       style="display:inline"
       transform="matrix(0.9821429,0,0,0.9821429,143.59421,-208.7631)" />
    <rect
       style="opacity:0.57786889;fill:#ffffff;fill-opacity:1;fill-rule:nonzero;stroke:none"
       id="rect7573"
       width="0.98214245"
       height="0"
       x="58.668953"
       y="-269.1969" />
    <rect
       style="opacity:0.57786889;fill:#ffffff;fill-opacity:1;fill-rule:nonzero;stroke:none"
       id="rect7575"
       width="0.98214245"
       height="0"
       x="24.169382"
       y="-296.23294" />
    <g
       style="opacity:0.40163933"
       transform="matrix(-0.7690129,0,0,0.6392557,-2413.3071,306.11663)"
       id="g7579" />
    <g
       id="g7581"
       transform="matrix(-0.7690129,0,0,0.6392557,-2413.3071,306.11663)"
       style="opacity:0.40163933" />
    <g
       id="g7583"
       transform="matrix(0.9821429,0,0,0.6392557,730.49387,313.31363)"
       style="opacity:0.40163933" />
    <g
       style="opacity:0.40163933"
       transform="matrix(0.9821429,0,0,0.6392557,730.49387,313.31363)"
       id="g7585" />
    <g
       id="g8400"
       inkscape:label="box"
       style="display:inline"
       transform="matrix(0.9821429,0,0,0.9821429,-236.74048,-87.22295)" />
    <g
       id="g8402"
       inkscape:label="zip_app"
       style="display:inline"
       transform="matrix(0.9821429,0,0,0.9821429,-236.74048,-87.22295)" />
    <rect
       style="opacity:0.57786889;fill:#ffffff;fill-opacity:1;fill-rule:nonzero;stroke:none"
       id="rect8408"
       width="0.98214245"
       height="0"
       x="-321.66571"
       y="-147.65678" />
    <rect
       style="opacity:0.57786889;fill:#ffffff;fill-opacity:1;fill-rule:nonzero;stroke:none"
       id="rect8410"
       width="0.98214245"
       height="0"
       x="-356.16528"
       y="-174.69283" />
    <g
       style="opacity:0.40163933"
       transform="matrix(-0.7690129,0,0,0.6392557,-2793.6413,427.65677)"
       id="g8414" />
    <g
       id="g8416"
       transform="matrix(-0.7690129,0,0,0.6392557,-2793.6413,427.65677)"
       style="opacity:0.40163933" />
    <g
       id="g8418"
       transform="matrix(0.9821429,0,0,0.6392557,350.15925,434.85377)"
       style="opacity:0.40163933" />
    <g
       style="opacity:0.40163933"
       transform="matrix(0.9821429,0,0,0.6392557,350.15925,434.85377)"
       id="g8420" />
    <g
       id="g9110"
       inkscape:label="box"
       style="display:inline"
       transform="matrix(0.9821429,0,0,0.9821429,11.14464,86.01919)" />
    <g
       id="g9112"
       inkscape:label="zip_app"
       style="display:inline"
       transform="matrix(0.9821429,0,0,0.9821429,11.14464,86.01919)" />
    <rect
       style="opacity:0.57786889;fill:#ffffff;fill-opacity:1;fill-rule:nonzero;stroke:none"
       id="rect9118"
       width="0.98214245"
       height="0"
       x="-73.780693"
       y="25.58535" />
    <rect
       style="opacity:0.57786889;fill:#ffffff;fill-opacity:1;fill-rule:nonzero;stroke:none"
       id="rect9120"
       width="0.98214245"
       height="0"
       x="-108.28024"
       y="-1.4506309" />
    <g
       style="opacity:0.40163933"
       transform="matrix(-0.7690129,0,0,0.6392557,-2545.7571,600.89892)"
       id="g9124" />
    <g
       id="g9126"
       transform="matrix(-0.7690129,0,0,0.6392557,-2545.7571,600.89892)"
       style="opacity:0.40163933" />
    <g
       id="g9128"
       transform="matrix(0.9821429,0,0,0.6392557,598.0443,608.09592)"
       style="opacity:0.40163933" />
    <g
       style="opacity:0.40163933"
       transform="matrix(0.9821429,0,0,0.6392557,598.0443,608.09592)"
       id="g9130" />
    <g
       id="g3639"
       inkscape:label="box"
       style="display:inline"
       transform="matrix(0.9821429,0,0,0.9821429,-87.70776,-143.37353)" />
    <g
       id="g3641"
       inkscape:label="zip_app"
       style="display:inline"
       transform="matrix(0.9821429,0,0,0.9821429,-87.70776,-143.37353)" />
    <rect
       style="opacity:0.57786889;fill:#ffffff;fill-opacity:1;fill-rule:nonzero;stroke:none"
       id="rect3647"
       width="0.98214245"
       height="0"
       x="-172.63295"
       y="-203.80737" />
    <rect
       style="opacity:0.57786889;fill:#ffffff;fill-opacity:1;fill-rule:nonzero;stroke:none"
       id="rect3649"
       width="0.98214245"
       height="0"
       x="-207.13249"
       y="-230.84341" />
    <g
       style="opacity:0.40163933"
       transform="matrix(-0.7690129,0,0,0.6392557,-2644.6085,371.5062)"
       id="g3653" />
    <g
       id="g3655"
       transform="matrix(-0.7690129,0,0,0.6392557,-2644.6085,371.5062)"
       style="opacity:0.40163933" />
    <g
       id="g3657"
       transform="matrix(0.9821429,0,0,0.6392557,499.192,378.7032)"
       style="opacity:0.40163933" />
    <g
       style="opacity:0.40163933"
       transform="matrix(0.9821429,0,0,0.6392557,499.192,378.7032)"
       id="g3659" />
    <g
       id="g10467"
       inkscape:label="box"
       style="display:inline"
       transform="matrix(0.9821429,0,0,0.9821429,-85.73605,-144.28181)" />
    <g
       id="g10469"
       inkscape:label="zip_app"
       style="display:inline"
       transform="matrix(0.9821429,0,0,0.9821429,-85.73605,-144.28181)" />
    <rect
       style="opacity:0.57786889;fill:#ffffff;fill-opacity:1;fill-rule:nonzero;stroke:none"
       id="rect10475"
       width="0.98214245"
       height="0"
       x="-170.6613"
       y="-204.71564" />
    <rect
       style="opacity:0.57786889;fill:#ffffff;fill-opacity:1;fill-rule:nonzero;stroke:none"
       id="rect10477"
       width="0.98214245"
       height="0"
       x="-205.16087"
       y="-231.75166" />
    <g
       style="opacity:0.40163933"
       transform="matrix(-0.7690129,0,0,0.6392557,-2642.6371,370.59791)"
       id="g10481" />
    <g
       id="g10483"
       transform="matrix(-0.7690129,0,0,0.6392557,-2642.6371,370.59791)"
       style="opacity:0.40163933" />
    <g
       id="g10485"
       transform="matrix(0.9821429,0,0,0.6392557,501.1637,377.79491)"
       style="opacity:0.40163933" />
    <g
       style="opacity:0.40163933"
       transform="matrix(0.9821429,0,0,0.6392557,501.1637,377.79491)"
       id="g10487" />
    <g
       id="g2885"
       inkscape:label="box"
       style="display:inline"
       transform="matrix(0.9821429,0,0,0.9821429,77.72672,-189.17867)" />
    <g
       id="g2887"
       inkscape:label="zip_app"
       style="display:inline"
       transform="matrix(0.9821429,0,0,0.9821429,77.72672,-189.17867)" />
    <rect
       style="opacity:0.57786889;fill:#ffffff;fill-opacity:1;fill-rule:nonzero;stroke:none"
       id="rect2893"
       width="0.98214245"
       height="0"
       x="-7.1986604"
       y="-249.61256" />
    <rect
       style="opacity:0.57786889;fill:#ffffff;fill-opacity:1;fill-rule:nonzero;stroke:none"
       id="rect2895"
       width="0.98214245"
       height="0"
       x="-41.698174"
       y="-276.64856" />
    <g
       style="opacity:0.40163933"
       transform="matrix(-0.7690129,0,0,0.6392557,-2479.1742,325.70106)"
       id="g2899" />
    <g
       id="g2901"
       transform="matrix(-0.7690129,0,0,0.6392557,-2479.1742,325.70106)"
       style="opacity:0.40163933" />
    <g
       id="g2903"
       transform="matrix(0.9821429,0,0,0.6392557,664.62627,332.89791)"
       style="opacity:0.40163933" />
    <g
       style="opacity:0.40163933"
       transform="matrix(0.9821429,0,0,0.6392557,664.62627,332.89791)"
       id="g2905" />
    <g
       id="g2913"
       inkscape:label="box"
       style="display:inline"
       transform="matrix(0.9821429,0,0,0.9821429,215.64408,-35.18995)" />
    <g
       id="g2915"
       inkscape:label="zip_app"
       style="display:inline"
       transform="matrix(0.9821429,0,0,0.9821429,215.64408,-35.18995)" />
    <rect
       style="opacity:0.57786889;fill:#ffffff;fill-opacity:1;fill-rule:nonzero;stroke:none"
       id="rect2921"
       width="0.98214245"
       height="0"
       x="130.71883"
       y="-95.623779" />
    <rect
       style="opacity:0.57786889;fill:#ffffff;fill-opacity:1;fill-rule:nonzero;stroke:none"
       id="rect2923"
       width="0.98214245"
       height="0"
       x="96.219307"
       y="-122.65981" />
    <g
       style="opacity:0.40163933"
       transform="matrix(-0.7690129,0,0,0.6392557,-2341.2571,479.68977)"
       id="g2927" />
    <g
       id="g2929"
       transform="matrix(-0.7690129,0,0,0.6392557,-2341.2571,479.68977)"
       style="opacity:0.40163933" />
    <g
       id="g2931"
       transform="matrix(0.9821429,0,0,0.6392557,802.54367,486.88677)"
       style="opacity:0.40163933" />
    <g
       style="opacity:0.40163933"
       transform="matrix(0.9821429,0,0,0.6392557,802.54367,486.88677)"
       id="g2933" />
    <g
       id="g4117"
       inkscape:label="box"
       style="display:inline"
       transform="matrix(1.3333329,0,0,1.3333329,-359.18677,-434.74393)" />
    <g
       id="g4119"
       inkscape:label="zip_app"
       style="display:inline"
       transform="matrix(1.3333329,0,0,1.3333329,-359.18677,-434.74393)" />
    <rect
       style="opacity:0.57786889;fill:#ffffff;fill-opacity:1;fill-rule:nonzero;stroke:none"
       id="rect4125"
       width="1.3333334"
       height="0"
       x="-474.4794"
       y="-516.78748" />
    <rect
       style="opacity:0.57786889;fill:#ffffff;fill-opacity:1;fill-rule:nonzero;stroke:none"
       id="rect4127"
       width="1.3333334"
       height="0"
       x="-521.31519"
       y="-553.49097" />
    <g
       style="opacity:0.40163933"
       transform="matrix(-1.0439929,0,0,0.8678386,-3830.3757,264.24448)"
       id="g4131" />
    <g
       id="g4133"
       transform="matrix(-1.0439929,0,0,0.8678386,-3830.3757,264.24448)"
       style="opacity:0.40163933" />
    <g
       id="g4135"
       transform="matrix(1.3333329,0,0,0.8678386,437.5741,274.01477)"
       style="opacity:0.40163933" />
    <g
       style="opacity:0.40163933"
       transform="matrix(1.3333329,0,0,0.8678386,437.5741,274.01477)"
       id="g4137" />
    <g
       id="g4145"
       inkscape:label="box"
       style="display:inline"
       transform="matrix(1.3333329,0,0,1.3333329,-171.95348,-225.69253)" />
    <g
       id="g4147"
       inkscape:label="zip_app"
       style="display:inline"
       transform="matrix(1.3333329,0,0,1.3333329,-171.95348,-225.69253)" />
    <rect
       style="opacity:0.57786889;fill:#ffffff;fill-opacity:1;fill-rule:nonzero;stroke:none"
       id="rect4153"
       width="1.3333334"
       height="0"
       x="-287.24597"
       y="-307.73596" />
    <rect
       style="opacity:0.57786889;fill:#ffffff;fill-opacity:1;fill-rule:nonzero;stroke:none"
       id="rect4155"
       width="1.3333334"
       height="0"
       x="-334.0817"
       y="-344.43942" />
    <g
       style="opacity:0.40163933"
       transform="matrix(-1.0439929,0,0,0.8678386,-3643.1428,473.29606)"
       id="g4159" />
    <g
       id="g4161"
       transform="matrix(-1.0439929,0,0,0.8678386,-3643.1428,473.29606)"
       style="opacity:0.40163933" />
    <g
       id="g4163"
       transform="matrix(1.3333329,0,0,0.8678386,624.8076,483.06649)"
       style="opacity:0.40163933" />
    <g
       style="opacity:0.40163933"
       transform="matrix(1.3333329,0,0,0.8678386,624.8076,483.06649)"
       id="g4165" />
    <g
       id="g4173"
       inkscape:label="box"
       style="display:inline"
       transform="matrix(1.3333329,0,0,1.3333329,-237.95348,-295.02573)" />
    <g
       id="g4175"
       inkscape:label="zip_app"
       style="display:inline"
       transform="matrix(1.3333329,0,0,1.3333329,-237.95348,-295.02573)" />
    <rect
       style="opacity:0.57786889;fill:#ffffff;fill-opacity:1;fill-rule:nonzero;stroke:none"
       id="rect4181"
       width="1.3333334"
       height="0"
       x="-353.24591"
       y="-377.06927" />
    <rect
       style="opacity:0.57786889;fill:#ffffff;fill-opacity:1;fill-rule:nonzero;stroke:none"
       id="rect4184"
       width="1.3333334"
       height="0"
       x="-400.0817"
       y="-413.77277" />
    <g
       style="opacity:0.40163933"
       transform="matrix(-1.0439929,0,0,0.8678386,-3709.1428,403.96263)"
       id="g4188" />
    <g
       id="g4190"
       transform="matrix(-1.0439929,0,0,0.8678386,-3709.1428,403.96263)"
       style="opacity:0.40163933" />
    <g
       id="g4192"
       transform="matrix(1.3333329,0,0,0.8678386,558.8077,413.73306)"
       style="opacity:0.40163933" />
    <g
       style="opacity:0.40163933"
       transform="matrix(1.3333329,0,0,0.8678386,558.8077,413.73306)"
       id="g4194" />
    <g
       id="g4202"
       inkscape:label="box"
       style="display:inline"
       transform="matrix(1.3333329,0,0,1.3333329,-754.28678,-130.02581)" />
    <g
       id="g4204"
       inkscape:label="zip_app"
       style="display:inline"
       transform="matrix(1.3333329,0,0,1.3333329,-754.28678,-130.02581)" />
    <rect
       style="opacity:0.57786889;fill:#ffffff;fill-opacity:1;fill-rule:nonzero;stroke:none"
       id="rect4210"
       width="1.3333334"
       height="0"
       x="-869.57928"
       y="-212.06931" />
    <rect
       style="opacity:0.57786889;fill:#ffffff;fill-opacity:1;fill-rule:nonzero;stroke:none"
       id="rect4212"
       width="1.3333334"
       height="0"
       x="-916.41504"
       y="-248.77277" />
    <g
       style="opacity:0.40163933"
       transform="matrix(-1.0439929,0,0,0.8678386,-4225.4757,568.96263)"
       id="g4216" />
    <g
       id="g4218"
       transform="matrix(-1.0439929,0,0,0.8678386,-4225.4757,568.96263)"
       style="opacity:0.40163933" />
    <g
       id="g4220"
       transform="matrix(1.3333329,0,0,0.8678386,42.47424,578.73306)"
       style="opacity:0.40163933" />
    <g
       style="opacity:0.40163933"
       transform="matrix(1.3333329,0,0,0.8678386,42.47424,578.73306)"
       id="g4222" />
    <g
       id="g4230"
       inkscape:label="box"
       style="display:inline"
       transform="matrix(1.3333329,0,0,1.3333329,-417.76392,105.16362)" />
    <g
       id="g4232"
       inkscape:label="zip_app"
       style="display:inline"
       transform="matrix(1.3333329,0,0,1.3333329,-417.76392,105.16362)" />
    <rect
       style="opacity:0.57786889;fill:#ffffff;fill-opacity:1;fill-rule:nonzero;stroke:none"
       id="rect4238"
       width="1.3333334"
       height="0"
       x="-533.05646"
       y="23.12011" />
    <rect
       style="opacity:0.57786889;fill:#ffffff;fill-opacity:1;fill-rule:nonzero;stroke:none"
       id="rect4240"
       width="1.3333334"
       height="0"
       x="-579.89221"
       y="-13.583352" />
    <g
       style="opacity:0.40163933"
       transform="matrix(-1.0439929,0,0,0.8678386,-3888.9528,804.15219)"
       id="g4244" />
    <g
       id="g4246"
       transform="matrix(-1.0439929,0,0,0.8678386,-3888.9528,804.15219)"
       style="opacity:0.40163933" />
    <g
       id="g4248"
       transform="matrix(1.3333329,0,0,0.8678386,378.9971,813.92249)"
       style="opacity:0.40163933" />
    <g
       style="opacity:0.40163933"
       transform="matrix(1.3333329,0,0,0.8678386,378.9971,813.92249)"
       id="g4250" />
    <g
       id="g4258"
       inkscape:label="box"
       style="display:inline"
       transform="matrix(1.3333329,0,0,1.3333329,-551.96349,-206.25453)" />
    <g
       id="g4260"
       inkscape:label="zip_app"
       style="display:inline"
       transform="matrix(1.3333329,0,0,1.3333329,-551.96349,-206.25453)" />
    <rect
       style="opacity:0.57786889;fill:#ffffff;fill-opacity:1;fill-rule:nonzero;stroke:none"
       id="rect4266"
       width="1.3333334"
       height="0"
       x="-667.25598"
       y="-288.298" />
    <rect
       style="opacity:0.57786889;fill:#ffffff;fill-opacity:1;fill-rule:nonzero;stroke:none"
       id="rect4268"
       width="1.3333334"
       height="0"
       x="-714.09167"
       y="-325.00146" />
    <g
       style="opacity:0.40163933"
       transform="matrix(-1.0439929,0,0,0.8678386,-4023.1514,492.73406)"
       id="g4272" />
    <g
       id="g4274"
       transform="matrix(-1.0439929,0,0,0.8678386,-4023.1514,492.73406)"
       style="opacity:0.40163933" />
    <g
       id="g4276"
       transform="matrix(1.3333329,0,0,0.8678386,244.79767,502.50449)"
       style="opacity:0.40163933" />
    <g
       style="opacity:0.40163933"
       transform="matrix(1.3333329,0,0,0.8678386,244.79767,502.50449)"
       id="g4278" />
    <g
       id="g4290"
       inkscape:label="box"
       style="display:inline"
       transform="matrix(1.3333329,0,0,1.3333329,-549.28678,-207.48753)" />
    <g
       id="g4292"
       inkscape:label="zip_app"
       style="display:inline"
       transform="matrix(1.3333329,0,0,1.3333329,-549.28678,-207.48753)" />
    <rect
       style="opacity:0.57786889;fill:#ffffff;fill-opacity:1;fill-rule:nonzero;stroke:none"
       id="rect4298"
       width="1.3333334"
       height="0"
       x="-664.57928"
       y="-289.53104" />
    <rect
       style="opacity:0.57786889;fill:#ffffff;fill-opacity:1;fill-rule:nonzero;stroke:none"
       id="rect4300"
       width="1.3333334"
       height="0"
       x="-711.41504"
       y="-326.2345" />
    <g
       style="opacity:0.40163933"
       transform="matrix(-1.0439929,0,0,0.8678386,-4020.4757,491.50092)"
       id="g4304" />
    <g
       id="g4306"
       transform="matrix(-1.0439929,0,0,0.8678386,-4020.4757,491.50092)"
       style="opacity:0.40163933" />
    <g
       id="g4308"
       transform="matrix(1.3333329,0,0,0.8678386,247.47424,501.27135)"
       style="opacity:0.40163933" />
    <g
       style="opacity:0.40163933"
       transform="matrix(1.3333329,0,0,0.8678386,247.47424,501.27135)"
       id="g4310" />
    <g
       id="g4364"
       inkscape:label="box"
       style="display:inline"
       transform="matrix(1.3333329,0,0,1.3333329,-327.37363,-268.43854)" />
    <g
       id="g4366"
       inkscape:label="zip_app"
       style="display:inline"
       transform="matrix(1.3333329,0,0,1.3333329,-327.37363,-268.43854)" />
    <rect
       style="opacity:0.57786889;fill:#ffffff;fill-opacity:1;fill-rule:nonzero;stroke:none"
       id="rect4372"
       width="1.3333334"
       height="0"
       x="-442.66623"
       y="-350.48199" />
    <rect
       style="opacity:0.57786889;fill:#ffffff;fill-opacity:1;fill-rule:nonzero;stroke:none"
       id="rect4374"
       width="1.3333334"
       height="0"
       x="-489.50198"
       y="-387.18549" />
    <g
       style="opacity:0.40163933"
       transform="matrix(-1.0439929,0,0,0.8678386,-3798.5628,430.55006)"
       id="g4378" />
    <g
       id="g4380"
       transform="matrix(-1.0439929,0,0,0.8678386,-3798.5628,430.55006)"
       style="opacity:0.40163933" />
    <g
       id="g4382"
       transform="matrix(1.3333329,0,0,0.8678386,469.3874,440.32034)"
       style="opacity:0.40163933" />
    <g
       style="opacity:0.40163933"
       transform="matrix(1.3333329,0,0,0.8678386,469.3874,440.32034)"
       id="g4384" />
    <g
       id="g4392"
       inkscape:label="box"
       style="display:inline"
       transform="matrix(1.3333329,0,0,1.3333329,-140.14019,-59.3871)" />
    <g
       id="g4394"
       inkscape:label="zip_app"
       style="display:inline"
       transform="matrix(1.3333329,0,0,1.3333329,-140.14019,-59.3871)" />
    <rect
       style="opacity:0.57786889;fill:#ffffff;fill-opacity:1;fill-rule:nonzero;stroke:none"
       id="rect4400"
       width="1.3333334"
       height="0"
       x="-255.43272"
       y="-141.43051" />
    <rect
       style="opacity:0.57786889;fill:#ffffff;fill-opacity:1;fill-rule:nonzero;stroke:none"
       id="rect4402"
       width="1.3333334"
       height="0"
       x="-302.26852"
       y="-178.13397" />
    <g
       style="opacity:0.40163933"
       transform="matrix(-1.0439929,0,0,0.8678386,-3611.3299,639.60149)"
       id="g4406" />
    <g
       id="g4408"
       transform="matrix(-1.0439929,0,0,0.8678386,-3611.3299,639.60149)"
       style="opacity:0.40163933" />
    <g
       id="g4410"
       transform="matrix(1.3333329,0,0,0.8678386,656.6208,649.37192)"
       style="opacity:0.40163933" />
    <g
       style="opacity:0.40163933"
       transform="matrix(1.3333329,0,0,0.8678386,656.6208,649.37192)"
       id="g4412" />
    <g
       id="layer2"
       inkscape:label="slice"
       style="opacity:0.33333333;display:none"
       transform="translate(-98.6702,-21.33381)">
      <rect
         style="fill:#000000;fill-opacity:1;stroke:none"
         id="rect3535"
         width="128"
         height="128"
         x="0"
         y="0"
         rx="0"
         ry="0"
         inkscape:export-filename="/home/djm/lokalize.png"
         inkscape:export-xdpi="180"
         inkscape:export-ydpi="180" />
      <rect
         ry="0"
         rx="0"
         y="64"
         x="200"
         height="32"
         width="31.999603"
         id="rect3933-7"
         style="fill:#000000;fill-opacity:1;stroke:none" />
      <rect
         ry="0"
         rx="0"
         y="1.8861262e-14"
         x="200"
         height="15.999993"
         width="16"
         id="rect3537"
         style="fill:#000000;fill-opacity:1;stroke:none" />
      <rect
         ry="0"
         rx="0"
         y="24.000008"
         x="200.00002"
         height="21.99991"
         width="22.00001"
         id="rect3721"
         style="fill:#000000;fill-opacity:1;stroke:none" />
      <rect
         ry="0"
         rx="0"
         y="112.00021"
         x="199.9998"
         height="47.999996"
         width="47.999996"
         id="rect4141"
         style="fill:#000000;fill-opacity:1;stroke:none" />
    </g>
    <g
       transform="matrix(0.1463445,-0.02678525,0.01010528,0.1292785,98.97435,-19.70366)"
       style="fill:url(#radialGradient4876);fill-opacity:1"
       id="g3561" />
    <text
       y="213.47678"
       x="328.37546"
       id="text8137">
      <tspan
         style="font-size:7px;font-style:normal;font-variant:normal;font-weight:bold;font-stretch:normal;fill:#555555;font-family:Brush Script Std;-inkscape-font-specification:Brush Script Std Medium"
         x="328.37546"
         y="230.27676"
         font-size="7"
         id="tspan8141" />
    </text>
    <flowRoot
       xml:space="preserve"
       id="flowRoot3212"
       style="font-size:10px;font-style:normal;font-variant:normal;font-weight:normal;font-stretch:normal;text-align:justify;line-height:125%;writing-mode:lr-tb;text-anchor:start;fill:#000000;fill-opacity:1;stroke:none;font-family:Asenine;-inkscape-font-specification:Asenine"
       transform="translate(268.70847,171.34937)"><flowRegion
         id="flowRegion3214"><rect
           id="rect3216"
           width="60.45763"
           height="52.325901"
           x="62.578949"
           y="31.479925" /></flowRegion><flowPara
         id="flowPara3218" /></flowRoot>    <rect
       y="16"
       x="8"
       height="80"
       width="88"
       id="rect5021"
       style="fill:#000000;fill-opacity:1;stroke:#000000;stroke-width:4.29999971;stroke-miterlimit:4;stroke-opacity:1;stroke-dasharray:none;filter:url(#filter5031)"
       rx="4"
       ry="4" />
    <rect
       style="fill:url(#radialGradient5017);fill-opacity:1;stroke:none"
       id="rect4237"
       width="88"
       height="32"
       x="8"
       y="16"
       rx="8"
       ry="8" />
    <rect
       y="32"
       x="8"
       height="64"
       width="88"
       id="rect5019"
       style="fill:#fdfdfd;fill-opacity:1;stroke:none" />
    <rect
       y="20.83997"
       x="14.707427"
       height="11.16003"
       width="73.292572"
       id="rect5035"
       style="fill:url(#radialGradient5037);fill-opacity:1;stroke:none" />
    <rect
       style="fill:url(#radialGradient3888);fill-opacity:1;stroke:none"
       id="rect3108"
       width="72"
       height="56"
       x="16"
       y="32" />
    <g
       id="layer4-3"
       inkscape:label="box"
       style="display:inline"
       transform="matrix(0.6433923,0,0,0.6433923,-107.89946,96.742649)" />
    <g
       id="layer5-8"
       inkscape:label="zip_app"
       style="display:inline"
       transform="matrix(0.6433923,0,0,0.6433923,-107.89946,96.742649)" />
    <rect
       style="opacity:0.57786889;fill:#ffffff;fill-opacity:1;fill-rule:nonzero;stroke:none"
       id="rect1327-6"
       width="0.64339232"
       height="0"
       x="-107.3074"
       y="107.1191" />
    <path
       style="fill:url(#linearGradient4575);fill-opacity:1;stroke:none"
       d="M 25.875002,40 C 20.390681,40 16,44.390684 16,49.875001 L 16,56 80,56 80,49.875001 C 80,44.390681 75.609317,40 70.124999,40 l -44.249997,0 z"
       id="rect3890"
       sodipodi:nodetypes="ccccccc" />
    <path
       style="fill:#000000;fill-opacity:1;stroke:#000000;filter:url(#filter3855);stroke-opacity:1;stroke-width:3.4;stroke-miterlimit:4;stroke-dasharray:none"
       d="M 57.875 64 C 52.390679 64 48 68.39068 48 73.875 L 48 80 L 48 120 L 120 120 L 120 80 L 120 73.875 C 120 68.390677 115.60932 64 110.125 64 L 57.875 64 z "
       id="path3076" />
    <path
       style="fill:url(#linearGradient4726);fill-opacity:1;stroke:none"
       d="M 57.875002,64 C 52.390681,64 48,68.390684 48,73.875004 L 48,80 l 72,0 0,-6.124996 C 120,68.390681 115.60931,64 110.12499,64 l -52.249988,0 z"
       id="path4724"
       sodipodi:nodetypes="ccccccc" />
    <rect
       style="fill:#ffffff;fill-opacity:1;stroke:none"
       id="rect3074"
       width="72"
       height="40"
       x="48"
       y="80" />
    <path
       sodipodi:nodetypes="ccccccc"
       id="path3859"
       d="M 65.875002,80 C 60.390681,80 56,84.390684 56,89.875001 L 56,96 80,96 80,89.875001 C 80,84.390681 75.60932,80 70.125,80 l -4.249998,0 z"
       style="fill:url(#linearGradient3862);fill-opacity:1;stroke:none" />
    <path
       style="fill:url(#linearGradient3866);fill-opacity:1;stroke:none"
       d="M 97.875002,96 C 92.390681,96 88,100.39068 88,105.875 l 0,6.125 24,0 0,-6.125 C 112,100.39068 107.60932,96 102.125,96 l -4.249998,0 z"
       id="path3864"
       sodipodi:nodetypes="ccccccc" />
    <path
       style="fill:#000000;fill-opacity:0.26519337;stroke:none;stroke-width:3.40000010000000019;stroke-linecap:round;stroke-linejoin:round;stroke-miterlimit:4;stroke-opacity:1;stroke-dasharray:none;stroke-dashoffset:0"
       d="m 72,96 0,16 8,0 8,0 0,-8 -8,0 0,-8 -8,0 z"
       id="rect3868"
       sodipodi:nodetypes="cccccccc" />
    <path
       id="path3873"
       d="m 32,56 0,24 8,0 8,0 0,-8 -8,0 0,-16 -8,0 z"
       style="fill:#000000;fill-opacity:0.26519339;stroke:none" />
    <g
       id="g3640"
       transform="translate(10e-6,1.7e-5)">
      <g
         id="g17165"
         transform="matrix(0.8749995,0,0,0.8749995,16.000063,-2.1385901e-6)">
        <circle
           sodipodi:ry="36"
           sodipodi:rx="36"
           sodipodi:cy="92"
           sodipodi:cx="343.99899"
           style="fill:url(#linearGradient4758);fill-opacity:1"
           r="36"
           rx="8.0010004"
           cx="343.99899"
           cy="92"
           ry="8.0010004"
           id="circle3581_2_"
           transform="matrix(-0.858425,0.2300143,-0.2300143,-0.858425,412.45864,31.85043)"
           d="m 379.99899,92 c 0,19.88225 -16.11775,36 -36,36 -19.88225,0 -36,-16.11775 -36,-36 0,-19.882251 16.11775,-36 36,-36 19.88225,0 36,16.117749 36,36 z" />
        <circle
           transform="matrix(-0.6438188,0.1725107,-0.1725107,-0.6438188,333.34401,31.887831)"
           id="circle4383"
           ry="8.0010004"
           cy="92"
           cx="343.99899"
           rx="8.0010004"
           r="36"
           style="fill:url(#radialGradient4760);fill-opacity:1"
           sodipodi:cx="343.99899"
           sodipodi:cy="92"
           sodipodi:rx="36"
           sodipodi:ry="36"
           d="m 379.99899,92 c 0,19.88225 -16.11775,36 -36,36 -19.88225,0 -36,-16.11775 -36,-36 0,-19.882251 16.11775,-36 36,-36 19.88225,0 36,16.117749 36,36 z" />
        <circle
           clip-path="url(#clipPath5163)"
           transform="matrix(-0.858425,-0.2300143,-0.2300143,0.858425,412.45864,32.149572)"
           id="circle4776"
           ry="8.0010004"
           cy="92"
           cx="343.99899"
           rx="8.0010004"
           r="36"
           style="opacity:0.8;fill:none;stroke:url(#linearGradient4762);stroke-width:6.75138187;stroke-miterlimit:4;stroke-opacity:1;stroke-dasharray:none;filter:url(#filter7317)"
           sodipodi:cx="343.99899"
           sodipodi:cy="92"
           sodipodi:rx="36"
           sodipodi:ry="36"
           d="m 379.99899,92 c 0,19.88225 -16.11775,36 -36,36 -19.88225,0 -36,-16.11775 -36,-36 0,-19.882251 16.11775,-36 36,-36 19.88225,0 36,16.117749 36,36 z" />
        <path
           style="opacity:0.8;fill:url(#linearGradient4765);fill-opacity:1"
           d="m 96.000027,4.1481901 c -11.345716,0 -20.826095,8.0116059 -23.111114,18.6782149 4.554661,4.245895 13.196893,7.111109 23.111114,7.111109 9.914233,0 18.556453,-2.865214 23.111113,-7.111109 C 116.82613,12.159796 107.34574,4.1481901 96.000027,4.1481901 z"
           id="circle16776" />
      </g>
      <path
         sodipodi:nodetypes="ccccccccccccc"
         style="fill:none;stroke:url(#linearGradient4767);stroke-width:4;stroke-linecap:round;stroke-linejoin:round;stroke-miterlimit:4;stroke-opacity:1;filter:url(#filter5943)"
         d="m 95.99999,7.9999828 0,16.0000002 -16,0 0,8 16,0 0,16 8,0 0,-16 16,0 0,-8 -16,0 0,-16.0000001 -8,-1e-7 z"
         id="path4123" />
      <path
         sodipodi:nodetypes="ccccccccccccc"
         id="rect3232"
         d="m 95.99999,7.9999829 0,16.0000001 -16,0 0,8 16,0 0,16 8,0 0,-16 16,0 0,-8 -16,0 0,-16.0000001 -8,0 z"
         style="fill:#ffffff;fill-opacity:1;fill-rule:evenodd;stroke:none" />
    </g>
    <rect
       style="fill:url(#radialGradient4777);fill-opacity:1;stroke:none"
       id="rect4769"
       width="56"
       height="8"
       x="56"
       y="64" />
  </g>
</svg>
