<?xml version="1.0" encoding="UTF-8" standalone="no"?>
<!-- Created with Inkscape (http://www.inkscape.org/) -->

<svg
   xmlns:dc="http://purl.org/dc/elements/1.1/"
   xmlns:cc="http://creativecommons.org/ns#"
   xmlns:rdf="http://www.w3.org/1999/02/22-rdf-syntax-ns#"
   xmlns:svg="http://www.w3.org/2000/svg"
   xmlns="http://www.w3.org/2000/svg"
   xmlns:xlink="http://www.w3.org/1999/xlink"
   xmlns:sodipodi="http://sodipodi.sourceforge.net/DTD/sodipodi-0.dtd"
   xmlns:inkscape="http://www.inkscape.org/namespaces/inkscape"
   width="128"
   height="128"
   id="svg2"
   sodipodi:version="0.32"
   inkscape:version="0.46+devel"
   version="1.0"
   sodipodi:docname="view-calendar-agenda.svgz"
   inkscape:output_extension="org.inkscape.output.svgz.inkscape"
   inkscape:export-filename="/home/pinheiro/pics/oxygen-icons/scalable/actions/small/16x16/View-calendar-agenda.png"
   inkscape:export-xdpi="90"
   inkscape:export-ydpi="90">
  <defs
     id="defs4">
    <linearGradient
       id="linearGradient10964">
      <stop
         style="stop-color:#ffffff;stop-opacity:1;"
         offset="0"
         id="stop10966" />
      <stop
         style="stop-color:#eeeeee;stop-opacity:1"
         offset="1"
         id="stop10968" />
    </linearGradient>
    <linearGradient
       id="linearGradient3503"
       inkscape:collect="always">
      <stop
         id="stop3505"
         offset="0"
         style="stop-color:#005f1e;stop-opacity:1" />
      <stop
         id="stop3507"
         offset="1"
         style="stop-color:#43943c;stop-opacity:1" />
    </linearGradient>
    <linearGradient
       id="linearGradient5910">
      <stop
         style="stop-color:#17311f;stop-opacity:1;"
         offset="0"
         id="stop5912" />
      <stop
         style="stop-color:#447052;stop-opacity:1;"
         offset="1"
         id="stop5914" />
    </linearGradient>
    <linearGradient
       inkscape:collect="always"
       id="linearGradient5789">
      <stop
         style="stop-color:#c8e1ff;stop-opacity:1"
         offset="0"
         id="stop5791" />
      <stop
         style="stop-color:#ffffff;stop-opacity:1"
         offset="1"
         id="stop5793" />
    </linearGradient>
    <radialGradient
       inkscape:collect="always"
       xlink:href="#linearGradient5789"
       id="radialGradient4876"
       gradientUnits="userSpaceOnUse"
       gradientTransform="matrix(1,0,0,0.7462986,0,12.216192)"
       cx="71.30835"
       cy="48.151859"
       fx="71.30835"
       fy="48.151859"
       r="23.752516" />
    <linearGradient
       id="linearGradient3954">
      <stop
         style="stop-color:#b3b3b3;stop-opacity:1;"
         offset="0"
         id="stop3956" />
      <stop
         id="stop3962"
         offset="0.52879584"
         style="stop-color:#ffffff;stop-opacity:1;" />
      <stop
         style="stop-color:#c5c5c5;stop-opacity:1;"
         offset="1"
         id="stop3958" />
    </linearGradient>
    <linearGradient
       id="linearGradient10867-6">
      <stop
         id="stop10869-5"
         offset="0"
         style="stop-color:#1f1f1f;stop-opacity:1;" />
      <stop
         id="stop10871-6"
         offset="1"
         style="stop-color:#7d7d7d;stop-opacity:1;" />
    </linearGradient>
    <linearGradient
       inkscape:collect="always"
       xlink:href="#linearGradient3954"
       id="linearGradient4685"
       gradientUnits="userSpaceOnUse"
       gradientTransform="matrix(2.2500563,0,0,3.000075,-47.999999,31.990402)"
       x1="10.6664"
       y1="22.6693"
       x2="21.3328"
       y2="22.6693" />
    <filter
       inkscape:collect="always"
       id="filter4917">
      <feGaussianBlur
         inkscape:collect="always"
         stdDeviation="1.53598"
         id="feGaussianBlur4919" />
    </filter>
    <linearGradient
       inkscape:collect="always"
       xlink:href="#linearGradient3503"
       id="linearGradient5009"
       x1="26.425802"
       y1="106.95489"
       x2="42.929691"
       y2="106.95489"
       gradientUnits="userSpaceOnUse"
       gradientTransform="translate(2.5,0)" />
    <linearGradient
       inkscape:collect="always"
       xlink:href="#linearGradient3503"
       id="linearGradient5011"
       x1="29.870193"
       y1="26.626261"
       x2="42.919296"
       y2="26.626261"
       gradientUnits="userSpaceOnUse"
       gradientTransform="translate(2.3,8)" />
    <linearGradient
       inkscape:collect="always"
       xlink:href="#linearGradient3503"
       id="linearGradient5033"
       x1="74.179497"
       y1="19.866631"
       x2="98.834869"
       y2="19.866631"
       gradientUnits="userSpaceOnUse"
       gradientTransform="matrix(0.78487597,0,0,0.78487597,32.061459,5.7402)" />
    <linearGradient
       inkscape:collect="always"
       xlink:href="#linearGradient10867-6"
       id="linearGradient5043"
       gradientUnits="userSpaceOnUse"
       gradientTransform="matrix(0.16621425,0,0,0.16621425,99.387391,22.245746)"
       x1="92.145233"
       y1="-5.0994239"
       x2="98.834869"
       y2="19.866631" />
    <linearGradient
       inkscape:collect="always"
       xlink:href="#linearGradient10867-6"
       id="linearGradient5049"
       gradientUnits="userSpaceOnUse"
       gradientTransform="matrix(0.16621425,0,0,0.16621425,59.387391,22.245746)"
       x1="92.145233"
       y1="-5.0994239"
       x2="98.834869"
       y2="19.866631" />
    <linearGradient
       inkscape:collect="always"
       xlink:href="#linearGradient5910"
       id="linearGradient5059"
       x1="15.9996"
       y1="65.3349"
       x2="28.041592"
       y2="65.3349"
       gradientUnits="userSpaceOnUse"
       gradientTransform="matrix(1.3333333,0,0,1,-5.3332,0)" />
    <linearGradient
       inkscape:collect="always"
       xlink:href="#linearGradient10867-6"
       id="linearGradient5131"
       gradientUnits="userSpaceOnUse"
       gradientTransform="matrix(0.16621425,0,0,0.16621425,59.387391,22.245746)"
       x1="92.145233"
       y1="-5.0994239"
       x2="98.834869"
       y2="19.866631" />
    <linearGradient
       inkscape:collect="always"
       xlink:href="#linearGradient10867-6"
       id="linearGradient5141"
       gradientUnits="userSpaceOnUse"
       gradientTransform="matrix(0.16621425,0,0,0.16621425,99.387391,22.245746)"
       x1="92.145233"
       y1="-5.0994239"
       x2="98.834869"
       y2="19.866631" />
    <linearGradient
       inkscape:collect="always"
       xlink:href="#linearGradient3503"
       id="linearGradient5143"
       gradientUnits="userSpaceOnUse"
       gradientTransform="matrix(0.78487597,0,0,0.78487597,32.061459,5.7402)"
       x1="74.179497"
       y1="19.866631"
       x2="98.834869"
       y2="19.866631" />
    <linearGradient
       inkscape:collect="always"
       xlink:href="#linearGradient3503"
       id="linearGradient5145"
       gradientUnits="userSpaceOnUse"
       gradientTransform="matrix(0.78487597,0,0,0.78487597,32.061459,5.7402)"
       x1="74.179497"
       y1="19.866631"
       x2="98.834869"
       y2="19.866631" />
    <linearGradient
       inkscape:collect="always"
       xlink:href="#linearGradient3503"
       id="linearGradient5147"
       gradientUnits="userSpaceOnUse"
       gradientTransform="matrix(0.78487597,0,0,0.78487597,32.061459,5.7402)"
       x1="74.179497"
       y1="19.866631"
       x2="98.834869"
       y2="19.866631" />
    <linearGradient
       inkscape:collect="always"
       xlink:href="#linearGradient3503"
       id="linearGradient5153"
       gradientUnits="userSpaceOnUse"
       gradientTransform="translate(2.5,0)"
       x1="26.425802"
       y1="106.95489"
       x2="42.929691"
       y2="106.95489" />
    <linearGradient
       inkscape:collect="always"
       xlink:href="#linearGradient3503"
       id="linearGradient5165"
       gradientUnits="userSpaceOnUse"
       gradientTransform="translate(2.5,0)"
       x1="26.425802"
       y1="106.95489"
       x2="42.929691"
       y2="106.95489" />
    <filter
       inkscape:collect="always"
       id="filter5196">
      <feGaussianBlur
         inkscape:collect="always"
         stdDeviation="2.8151736"
         id="feGaussianBlur5198" />
    </filter>
    <linearGradient
       inkscape:collect="always"
       xlink:href="#linearGradient10964"
       id="linearGradient5205"
       gradientUnits="userSpaceOnUse"
       gradientTransform="matrix(0.88885,0,0,0.88885,12.4462,9.813985)"
       x1="32.048244"
       y1="-7.1149917"
       x2="32.048244"
       y2="177.5768" />
    <linearGradient
       inkscape:collect="always"
       xlink:href="#linearGradient3954"
       id="linearGradient5213"
       gradientUnits="userSpaceOnUse"
       gradientTransform="matrix(2.2500563,0,0,3.000075,-47.999999,-48.009598)"
       x1="10.6664"
       y1="22.6693"
       x2="21.3328"
       y2="22.6693" />
    <linearGradient
       inkscape:collect="always"
       xlink:href="#linearGradient3954"
       id="linearGradient5221"
       gradientUnits="userSpaceOnUse"
       gradientTransform="matrix(2.2500563,0,0,3.000075,-47.999999,-32.009598)"
       x1="10.6664"
       y1="22.6693"
       x2="21.3328"
       y2="22.6693" />
    <linearGradient
       inkscape:collect="always"
       xlink:href="#linearGradient3954"
       id="linearGradient5229"
       gradientUnits="userSpaceOnUse"
       gradientTransform="matrix(2.2500563,0,0,3.000075,-47.999999,15.990402)"
       x1="10.6664"
       y1="22.6693"
       x2="21.3328"
       y2="22.6693" />
  </defs>
  <sodipodi:namedview
     id="base"
     pagecolor="#ffffff"
     bordercolor="#666666"
     borderopacity="1.0"
     gridtolerance="50"
     guidetolerance="10"
     objecttolerance="10"
     inkscape:pageopacity="0.0"
     inkscape:pageshadow="2"
     inkscape:zoom="4"
     inkscape:cx="144.17318"
     inkscape:cy="45.167992"
     inkscape:document-units="px"
     inkscape:current-layer="layer1"
     width="128px"
     height="128px"
     showgrid="true"
     showborder="true"
     inkscape:window-width="1219"
     inkscape:window-height="953"
     inkscape:window-x="225"
     inkscape:window-y="178"
     inkscape:grid-bbox="true"
     showguides="true"
     inkscape:guide-bbox="true"
     inkscape:snap-global="true"
     inkscape:snap-bbox="true">
    <inkscape:grid
       id="GridFromPre046Settings"
       type="xygrid"
       originx="0px"
       originy="0px"
       spacingx="8px"
       spacingy="8px"
       color="#0000ff"
       empcolor="#0000ff"
       opacity="0.2"
       empopacity="0.4"
       empspacing="2"
       visible="true"
       enabled="true"
       dotted="false" />
    <sodipodi:guide
       orientation="1,0"
       position="-2.8399366,43.207607"
       id="guide3945" />
  </sodipodi:namedview>
  <metadata
     id="metadata7">
    <rdf:RDF>
      <cc:Work
         rdf:about="">
        <dc:format>image/svg+xml</dc:format>
        <dc:type
           rdf:resource="http://purl.org/dc/dcmitype/StillImage" />
        <dc:title></dc:title>
      </cc:Work>
    </rdf:RDF>
  </metadata>
  <g
     inkscape:label="Layer 1"
     inkscape:groupmode="layer"
     id="layer1">
    <rect
       ry="0"
       rx="0"
       y="8"
       x="15.9996"
       height="112.0002"
       width="104.0004"
       id="rect4993"
       style="fill:#000000;fill-opacity:1;stroke:#000000;filter:url(#filter5196);stroke-opacity:1;stroke-width:2.7;stroke-miterlimit:4;stroke-dasharray:none" />
    <rect
       style="fill:#ffffff;fill-opacity:1;stroke:none"
       id="rect4991"
       width="104.0004"
       height="112.0002"
       x="15.9996"
       y="8"
       rx="2.6666005"
       ry="2.6666005" />
    <path
       style="fill:#000000;fill-opacity:1;stroke:none;filter:url(#filter4917)"
       d="m 19,14.15625 0,104.375 86.3125,0 c 1.75721,0.0993 6.04038,-0.15238 2.0312,0.0687 1.95092,-6.43692 7.77635,-10.6724 12.1125,-11.34375 l -1.8,-93.1 -98.65625,0 5e-5,5e-5 z"
       id="path4588"
       sodipodi:nodetypes="cccccccc" />
    <path
       style="fill:#ffffff;fill-opacity:1;stroke:none"
       d="m 16,8 0,112.03125 86.65625,0 4.03125,0 c -2e-5,-0.0104 0,-0.0208 0,-0.0313 0,-7.36361 5.94889,-13.34375 13.3125,-13.34375 L 120,8 16,8 z"
       id="rect8666"
       sodipodi:nodetypes="ccccsccc" />
    <path
       style="fill:url(#linearGradient5205);fill-opacity:1;stroke:none"
       d="M 19.59375,16 20,112 l 81.93745,0 0.0313,0 0.21875,0 c 0.63187,-2.94304 3.41166,-8.83359 9.8125,-8.9375 L 111.59375,16 19.5938,16 l -5e-5,0 z"
       id="path5200"
       sodipodi:nodetypes="ccccccccc" />
    <g
       id="layer4"
       inkscape:label="box"
       style="display:inline"
       transform="matrix(0.9821429,0,0,0.9821429,54.2929,-311.68044)" />
    <g
       id="layer5"
       inkscape:label="zip_app"
       style="display:inline"
       transform="matrix(0.9821429,0,0,0.9821429,54.2929,-311.68044)" />
    <rect
       style="opacity:0.57786889;fill:#ffffff;fill-opacity:1;fill-rule:nonzero;stroke:none"
       id="rect1327"
       width="0.98214245"
       height="0"
       x="-30.632437"
       y="-372.11429" />
    <rect
       style="opacity:0.57786889;fill:#ffffff;fill-opacity:1;fill-rule:nonzero;stroke:none"
       id="rect2482"
       width="0.98214245"
       height="0"
       x="-65.132011"
       y="-399.1503" />
    <g
       style="opacity:0.40163933"
       transform="matrix(-0.7690129,0,0,0.6392557,-2502.6085,203.19934)"
       id="g4640" />
    <g
       id="g4646"
       transform="matrix(-0.7690129,0,0,0.6392557,-2502.6085,203.19934)"
       style="opacity:0.40163933" />
    <g
       id="g4730"
       transform="matrix(0.9821429,0,0,0.6392557,641.1926,210.3962)"
       style="opacity:0.40163933" />
    <g
       style="opacity:0.40163933"
       transform="matrix(0.9821429,0,0,0.6392557,641.1926,210.3962)"
       id="g4748" />
    <g
       id="g6929"
       inkscape:label="box"
       style="display:inline"
       transform="matrix(0.9821429,0,0,0.9821429,192.21026,-157.69167)" />
    <g
       id="g6931"
       inkscape:label="zip_app"
       style="display:inline"
       transform="matrix(0.9821429,0,0,0.9821429,192.21026,-157.69167)" />
    <rect
       style="opacity:0.57786889;fill:#ffffff;fill-opacity:1;fill-rule:nonzero;stroke:none"
       id="rect6937"
       width="0.98214245"
       height="0"
       x="107.28498"
       y="-218.12552" />
    <rect
       style="opacity:0.57786889;fill:#ffffff;fill-opacity:1;fill-rule:nonzero;stroke:none"
       id="rect6939"
       width="0.98214245"
       height="0"
       x="72.785469"
       y="-245.16154" />
    <g
       style="opacity:0.40163933"
       transform="matrix(-0.7690129,0,0,0.6392557,-2364.6913,357.18806)"
       id="g6943" />
    <g
       id="g6945"
       transform="matrix(-0.7690129,0,0,0.6392557,-2364.6913,357.18806)"
       style="opacity:0.40163933" />
    <g
       id="g6947"
       transform="matrix(0.9821429,0,0,0.6392557,779.10997,364.38506)"
       style="opacity:0.40163933" />
    <g
       style="opacity:0.40163933"
       transform="matrix(0.9821429,0,0,0.6392557,779.10997,364.38506)"
       id="g6949" />
    <g
       id="g7565"
       inkscape:label="box"
       style="display:inline"
       transform="matrix(0.9821429,0,0,0.9821429,143.59421,-208.7631)" />
    <g
       id="g7567"
       inkscape:label="zip_app"
       style="display:inline"
       transform="matrix(0.9821429,0,0,0.9821429,143.59421,-208.7631)" />
    <rect
       style="opacity:0.57786889;fill:#ffffff;fill-opacity:1;fill-rule:nonzero;stroke:none"
       id="rect7573"
       width="0.98214245"
       height="0"
       x="58.668953"
       y="-269.1969" />
    <rect
       style="opacity:0.57786889;fill:#ffffff;fill-opacity:1;fill-rule:nonzero;stroke:none"
       id="rect7575"
       width="0.98214245"
       height="0"
       x="24.169382"
       y="-296.23294" />
    <g
       style="opacity:0.40163933"
       transform="matrix(-0.7690129,0,0,0.6392557,-2413.3071,306.11663)"
       id="g7579" />
    <g
       id="g7581"
       transform="matrix(-0.7690129,0,0,0.6392557,-2413.3071,306.11663)"
       style="opacity:0.40163933" />
    <g
       id="g7583"
       transform="matrix(0.9821429,0,0,0.6392557,730.49387,313.31363)"
       style="opacity:0.40163933" />
    <g
       style="opacity:0.40163933"
       transform="matrix(0.9821429,0,0,0.6392557,730.49387,313.31363)"
       id="g7585" />
    <g
       id="g8400"
       inkscape:label="box"
       style="display:inline"
       transform="matrix(0.9821429,0,0,0.9821429,-236.74048,-87.22295)" />
    <g
       id="g8402"
       inkscape:label="zip_app"
       style="display:inline"
       transform="matrix(0.9821429,0,0,0.9821429,-236.74048,-87.22295)" />
    <rect
       style="opacity:0.57786889;fill:#ffffff;fill-opacity:1;fill-rule:nonzero;stroke:none"
       id="rect8408"
       width="0.98214245"
       height="0"
       x="-321.66571"
       y="-147.65678" />
    <rect
       style="opacity:0.57786889;fill:#ffffff;fill-opacity:1;fill-rule:nonzero;stroke:none"
       id="rect8410"
       width="0.98214245"
       height="0"
       x="-356.16528"
       y="-174.69283" />
    <g
       style="opacity:0.40163933"
       transform="matrix(-0.7690129,0,0,0.6392557,-2793.6413,427.65677)"
       id="g8414" />
    <g
       id="g8416"
       transform="matrix(-0.7690129,0,0,0.6392557,-2793.6413,427.65677)"
       style="opacity:0.40163933" />
    <g
       id="g8418"
       transform="matrix(0.9821429,0,0,0.6392557,350.15925,434.85377)"
       style="opacity:0.40163933" />
    <g
       style="opacity:0.40163933"
       transform="matrix(0.9821429,0,0,0.6392557,350.15925,434.85377)"
       id="g8420" />
    <g
       id="g9110"
       inkscape:label="box"
       style="display:inline"
       transform="matrix(0.9821429,0,0,0.9821429,11.14464,86.01919)" />
    <g
       id="g9112"
       inkscape:label="zip_app"
       style="display:inline"
       transform="matrix(0.9821429,0,0,0.9821429,11.14464,86.01919)" />
    <rect
       style="opacity:0.57786889;fill:#ffffff;fill-opacity:1;fill-rule:nonzero;stroke:none"
       id="rect9118"
       width="0.98214245"
       height="0"
       x="-73.780693"
       y="25.58535" />
    <rect
       style="opacity:0.57786889;fill:#ffffff;fill-opacity:1;fill-rule:nonzero;stroke:none"
       id="rect9120"
       width="0.98214245"
       height="0"
       x="-108.28024"
       y="-1.4506309" />
    <g
       style="opacity:0.40163933"
       transform="matrix(-0.7690129,0,0,0.6392557,-2545.7571,600.89892)"
       id="g9124" />
    <g
       id="g9126"
       transform="matrix(-0.7690129,0,0,0.6392557,-2545.7571,600.89892)"
       style="opacity:0.40163933" />
    <g
       id="g9128"
       transform="matrix(0.9821429,0,0,0.6392557,598.0443,608.09592)"
       style="opacity:0.40163933" />
    <g
       style="opacity:0.40163933"
       transform="matrix(0.9821429,0,0,0.6392557,598.0443,608.09592)"
       id="g9130" />
    <g
       id="g3639"
       inkscape:label="box"
       style="display:inline"
       transform="matrix(0.9821429,0,0,0.9821429,-87.70776,-143.37353)" />
    <g
       id="g3641"
       inkscape:label="zip_app"
       style="display:inline"
       transform="matrix(0.9821429,0,0,0.9821429,-87.70776,-143.37353)" />
    <rect
       style="opacity:0.57786889;fill:#ffffff;fill-opacity:1;fill-rule:nonzero;stroke:none"
       id="rect3647"
       width="0.98214245"
       height="0"
       x="-172.63295"
       y="-203.80737" />
    <rect
       style="opacity:0.57786889;fill:#ffffff;fill-opacity:1;fill-rule:nonzero;stroke:none"
       id="rect3649"
       width="0.98214245"
       height="0"
       x="-207.13249"
       y="-230.84341" />
    <g
       style="opacity:0.40163933"
       transform="matrix(-0.7690129,0,0,0.6392557,-2644.6085,371.5062)"
       id="g3653" />
    <g
       id="g3655"
       transform="matrix(-0.7690129,0,0,0.6392557,-2644.6085,371.5062)"
       style="opacity:0.40163933" />
    <g
       id="g3657"
       transform="matrix(0.9821429,0,0,0.6392557,499.192,378.7032)"
       style="opacity:0.40163933" />
    <g
       style="opacity:0.40163933"
       transform="matrix(0.9821429,0,0,0.6392557,499.192,378.7032)"
       id="g3659" />
    <g
       id="g10467"
       inkscape:label="box"
       style="display:inline"
       transform="matrix(0.9821429,0,0,0.9821429,-85.73605,-144.28181)" />
    <g
       id="g10469"
       inkscape:label="zip_app"
       style="display:inline"
       transform="matrix(0.9821429,0,0,0.9821429,-85.73605,-144.28181)" />
    <rect
       style="opacity:0.57786889;fill:#ffffff;fill-opacity:1;fill-rule:nonzero;stroke:none"
       id="rect10475"
       width="0.98214245"
       height="0"
       x="-170.6613"
       y="-204.71564" />
    <rect
       style="opacity:0.57786889;fill:#ffffff;fill-opacity:1;fill-rule:nonzero;stroke:none"
       id="rect10477"
       width="0.98214245"
       height="0"
       x="-205.16087"
       y="-231.75166" />
    <g
       style="opacity:0.40163933"
       transform="matrix(-0.7690129,0,0,0.6392557,-2642.6371,370.59791)"
       id="g10481" />
    <g
       id="g10483"
       transform="matrix(-0.7690129,0,0,0.6392557,-2642.6371,370.59791)"
       style="opacity:0.40163933" />
    <g
       id="g10485"
       transform="matrix(0.9821429,0,0,0.6392557,501.1637,377.79491)"
       style="opacity:0.40163933" />
    <g
       style="opacity:0.40163933"
       transform="matrix(0.9821429,0,0,0.6392557,501.1637,377.79491)"
       id="g10487" />
    <g
       id="g2885"
       inkscape:label="box"
       style="display:inline"
       transform="matrix(0.9821429,0,0,0.9821429,77.72672,-189.17867)" />
    <g
       id="g2887"
       inkscape:label="zip_app"
       style="display:inline"
       transform="matrix(0.9821429,0,0,0.9821429,77.72672,-189.17867)" />
    <rect
       style="opacity:0.57786889;fill:#ffffff;fill-opacity:1;fill-rule:nonzero;stroke:none"
       id="rect2893"
       width="0.98214245"
       height="0"
       x="-7.1986604"
       y="-249.61256" />
    <rect
       style="opacity:0.57786889;fill:#ffffff;fill-opacity:1;fill-rule:nonzero;stroke:none"
       id="rect2895"
       width="0.98214245"
       height="0"
       x="-41.698174"
       y="-276.64856" />
    <g
       style="opacity:0.40163933"
       transform="matrix(-0.7690129,0,0,0.6392557,-2479.1742,325.70106)"
       id="g2899" />
    <g
       id="g2901"
       transform="matrix(-0.7690129,0,0,0.6392557,-2479.1742,325.70106)"
       style="opacity:0.40163933" />
    <g
       id="g2903"
       transform="matrix(0.9821429,0,0,0.6392557,664.62627,332.89791)"
       style="opacity:0.40163933" />
    <g
       style="opacity:0.40163933"
       transform="matrix(0.9821429,0,0,0.6392557,664.62627,332.89791)"
       id="g2905" />
    <g
       id="g2913"
       inkscape:label="box"
       style="display:inline"
       transform="matrix(0.9821429,0,0,0.9821429,215.64408,-35.18995)" />
    <g
       id="g2915"
       inkscape:label="zip_app"
       style="display:inline"
       transform="matrix(0.9821429,0,0,0.9821429,215.64408,-35.18995)" />
    <rect
       style="opacity:0.57786889;fill:#ffffff;fill-opacity:1;fill-rule:nonzero;stroke:none"
       id="rect2921"
       width="0.98214245"
       height="0"
       x="130.71883"
       y="-95.623779" />
    <rect
       style="opacity:0.57786889;fill:#ffffff;fill-opacity:1;fill-rule:nonzero;stroke:none"
       id="rect2923"
       width="0.98214245"
       height="0"
       x="96.219307"
       y="-122.65981" />
    <g
       style="opacity:0.40163933"
       transform="matrix(-0.7690129,0,0,0.6392557,-2341.2571,479.68977)"
       id="g2927" />
    <g
       id="g2929"
       transform="matrix(-0.7690129,0,0,0.6392557,-2341.2571,479.68977)"
       style="opacity:0.40163933" />
    <g
       id="g2931"
       transform="matrix(0.9821429,0,0,0.6392557,802.54367,486.88677)"
       style="opacity:0.40163933" />
    <g
       style="opacity:0.40163933"
       transform="matrix(0.9821429,0,0,0.6392557,802.54367,486.88677)"
       id="g2933" />
    <g
       id="g4117"
       inkscape:label="box"
       style="display:inline"
       transform="matrix(1.3333329,0,0,1.3333329,-359.18677,-434.74393)" />
    <g
       id="g4119"
       inkscape:label="zip_app"
       style="display:inline"
       transform="matrix(1.3333329,0,0,1.3333329,-359.18677,-434.74393)" />
    <rect
       style="opacity:0.57786889;fill:#ffffff;fill-opacity:1;fill-rule:nonzero;stroke:none"
       id="rect4125"
       width="1.3333334"
       height="0"
       x="-474.4794"
       y="-516.78748" />
    <rect
       style="opacity:0.57786889;fill:#ffffff;fill-opacity:1;fill-rule:nonzero;stroke:none"
       id="rect4127"
       width="1.3333334"
       height="0"
       x="-521.31519"
       y="-553.49097" />
    <g
       style="opacity:0.40163933"
       transform="matrix(-1.0439929,0,0,0.8678386,-3830.3757,264.24448)"
       id="g4131" />
    <g
       id="g4133"
       transform="matrix(-1.0439929,0,0,0.8678386,-3830.3757,264.24448)"
       style="opacity:0.40163933" />
    <g
       id="g4135"
       transform="matrix(1.3333329,0,0,0.8678386,437.5741,274.01477)"
       style="opacity:0.40163933" />
    <g
       style="opacity:0.40163933"
       transform="matrix(1.3333329,0,0,0.8678386,437.5741,274.01477)"
       id="g4137" />
    <g
       id="g4145"
       inkscape:label="box"
       style="display:inline"
       transform="matrix(1.3333329,0,0,1.3333329,-171.95348,-225.69253)" />
    <g
       id="g4147"
       inkscape:label="zip_app"
       style="display:inline"
       transform="matrix(1.3333329,0,0,1.3333329,-171.95348,-225.69253)" />
    <rect
       style="opacity:0.57786889;fill:#ffffff;fill-opacity:1;fill-rule:nonzero;stroke:none"
       id="rect4153"
       width="1.3333334"
       height="0"
       x="-287.24597"
       y="-307.73596" />
    <rect
       style="opacity:0.57786889;fill:#ffffff;fill-opacity:1;fill-rule:nonzero;stroke:none"
       id="rect4155"
       width="1.3333334"
       height="0"
       x="-334.0817"
       y="-344.43942" />
    <g
       style="opacity:0.40163933"
       transform="matrix(-1.0439929,0,0,0.8678386,-3643.1428,473.29606)"
       id="g4159" />
    <g
       id="g4161"
       transform="matrix(-1.0439929,0,0,0.8678386,-3643.1428,473.29606)"
       style="opacity:0.40163933" />
    <g
       id="g4163"
       transform="matrix(1.3333329,0,0,0.8678386,624.8076,483.06649)"
       style="opacity:0.40163933" />
    <g
       style="opacity:0.40163933"
       transform="matrix(1.3333329,0,0,0.8678386,624.8076,483.06649)"
       id="g4165" />
    <g
       id="g4173"
       inkscape:label="box"
       style="display:inline"
       transform="matrix(1.3333329,0,0,1.3333329,-237.95348,-295.02573)" />
    <g
       id="g4175"
       inkscape:label="zip_app"
       style="display:inline"
       transform="matrix(1.3333329,0,0,1.3333329,-237.95348,-295.02573)" />
    <rect
       style="opacity:0.57786889;fill:#ffffff;fill-opacity:1;fill-rule:nonzero;stroke:none"
       id="rect4181"
       width="1.3333334"
       height="0"
       x="-353.24591"
       y="-377.06927" />
    <rect
       style="opacity:0.57786889;fill:#ffffff;fill-opacity:1;fill-rule:nonzero;stroke:none"
       id="rect4184"
       width="1.3333334"
       height="0"
       x="-400.0817"
       y="-413.77277" />
    <g
       style="opacity:0.40163933"
       transform="matrix(-1.0439929,0,0,0.8678386,-3709.1428,403.96263)"
       id="g4188" />
    <g
       id="g4190"
       transform="matrix(-1.0439929,0,0,0.8678386,-3709.1428,403.96263)"
       style="opacity:0.40163933" />
    <g
       id="g4192"
       transform="matrix(1.3333329,0,0,0.8678386,558.8077,413.73306)"
       style="opacity:0.40163933" />
    <g
       style="opacity:0.40163933"
       transform="matrix(1.3333329,0,0,0.8678386,558.8077,413.73306)"
       id="g4194" />
    <g
       id="g4202"
       inkscape:label="box"
       style="display:inline"
       transform="matrix(1.3333329,0,0,1.3333329,-754.28678,-130.02581)" />
    <g
       id="g4204"
       inkscape:label="zip_app"
       style="display:inline"
       transform="matrix(1.3333329,0,0,1.3333329,-754.28678,-130.02581)" />
    <rect
       style="opacity:0.57786889;fill:#ffffff;fill-opacity:1;fill-rule:nonzero;stroke:none"
       id="rect4210"
       width="1.3333334"
       height="0"
       x="-869.57928"
       y="-212.06931" />
    <rect
       style="opacity:0.57786889;fill:#ffffff;fill-opacity:1;fill-rule:nonzero;stroke:none"
       id="rect4212"
       width="1.3333334"
       height="0"
       x="-916.41504"
       y="-248.77277" />
    <g
       style="opacity:0.40163933"
       transform="matrix(-1.0439929,0,0,0.8678386,-4225.4757,568.96263)"
       id="g4216" />
    <g
       id="g4218"
       transform="matrix(-1.0439929,0,0,0.8678386,-4225.4757,568.96263)"
       style="opacity:0.40163933" />
    <g
       id="g4220"
       transform="matrix(1.3333329,0,0,0.8678386,42.47424,578.73306)"
       style="opacity:0.40163933" />
    <g
       style="opacity:0.40163933"
       transform="matrix(1.3333329,0,0,0.8678386,42.47424,578.73306)"
       id="g4222" />
    <g
       id="g4230"
       inkscape:label="box"
       style="display:inline"
       transform="matrix(1.3333329,0,0,1.3333329,-417.76392,105.16362)" />
    <g
       id="g4232"
       inkscape:label="zip_app"
       style="display:inline"
       transform="matrix(1.3333329,0,0,1.3333329,-417.76392,105.16362)" />
    <rect
       style="opacity:0.57786889;fill:#ffffff;fill-opacity:1;fill-rule:nonzero;stroke:none"
       id="rect4238"
       width="1.3333334"
       height="0"
       x="-533.05646"
       y="23.12011" />
    <rect
       style="opacity:0.57786889;fill:#ffffff;fill-opacity:1;fill-rule:nonzero;stroke:none"
       id="rect4240"
       width="1.3333334"
       height="0"
       x="-579.89221"
       y="-13.583352" />
    <g
       style="opacity:0.40163933"
       transform="matrix(-1.0439929,0,0,0.8678386,-3888.9528,804.15219)"
       id="g4244" />
    <g
       id="g4246"
       transform="matrix(-1.0439929,0,0,0.8678386,-3888.9528,804.15219)"
       style="opacity:0.40163933" />
    <g
       id="g4248"
       transform="matrix(1.3333329,0,0,0.8678386,378.9971,813.92249)"
       style="opacity:0.40163933" />
    <g
       style="opacity:0.40163933"
       transform="matrix(1.3333329,0,0,0.8678386,378.9971,813.92249)"
       id="g4250" />
    <g
       id="g4258"
       inkscape:label="box"
       style="display:inline"
       transform="matrix(1.3333329,0,0,1.3333329,-551.96349,-206.25453)" />
    <g
       id="g4260"
       inkscape:label="zip_app"
       style="display:inline"
       transform="matrix(1.3333329,0,0,1.3333329,-551.96349,-206.25453)" />
    <rect
       style="opacity:0.57786889;fill:#ffffff;fill-opacity:1;fill-rule:nonzero;stroke:none"
       id="rect4266"
       width="1.3333334"
       height="0"
       x="-667.25598"
       y="-288.298" />
    <rect
       style="opacity:0.57786889;fill:#ffffff;fill-opacity:1;fill-rule:nonzero;stroke:none"
       id="rect4268"
       width="1.3333334"
       height="0"
       x="-714.09167"
       y="-325.00146" />
    <g
       style="opacity:0.40163933"
       transform="matrix(-1.0439929,0,0,0.8678386,-4023.1514,492.73406)"
       id="g4272" />
    <g
       id="g4274"
       transform="matrix(-1.0439929,0,0,0.8678386,-4023.1514,492.73406)"
       style="opacity:0.40163933" />
    <g
       id="g4276"
       transform="matrix(1.3333329,0,0,0.8678386,244.79767,502.50449)"
       style="opacity:0.40163933" />
    <g
       style="opacity:0.40163933"
       transform="matrix(1.3333329,0,0,0.8678386,244.79767,502.50449)"
       id="g4278" />
    <g
       id="g4290"
       inkscape:label="box"
       style="display:inline"
       transform="matrix(1.3333329,0,0,1.3333329,-549.28678,-207.48753)" />
    <g
       id="g4292"
       inkscape:label="zip_app"
       style="display:inline"
       transform="matrix(1.3333329,0,0,1.3333329,-549.28678,-207.48753)" />
    <rect
       style="opacity:0.57786889;fill:#ffffff;fill-opacity:1;fill-rule:nonzero;stroke:none"
       id="rect4298"
       width="1.3333334"
       height="0"
       x="-664.57928"
       y="-289.53104" />
    <rect
       style="opacity:0.57786889;fill:#ffffff;fill-opacity:1;fill-rule:nonzero;stroke:none"
       id="rect4300"
       width="1.3333334"
       height="0"
       x="-711.41504"
       y="-326.2345" />
    <g
       style="opacity:0.40163933"
       transform="matrix(-1.0439929,0,0,0.8678386,-4020.4757,491.50092)"
       id="g4304" />
    <g
       id="g4306"
       transform="matrix(-1.0439929,0,0,0.8678386,-4020.4757,491.50092)"
       style="opacity:0.40163933" />
    <g
       id="g4308"
       transform="matrix(1.3333329,0,0,0.8678386,247.47424,501.27135)"
       style="opacity:0.40163933" />
    <g
       style="opacity:0.40163933"
       transform="matrix(1.3333329,0,0,0.8678386,247.47424,501.27135)"
       id="g4310" />
    <g
       id="g4364"
       inkscape:label="box"
       style="display:inline"
       transform="matrix(1.3333329,0,0,1.3333329,-327.37363,-268.43854)" />
    <g
       id="g4366"
       inkscape:label="zip_app"
       style="display:inline"
       transform="matrix(1.3333329,0,0,1.3333329,-327.37363,-268.43854)" />
    <rect
       style="opacity:0.57786889;fill:#ffffff;fill-opacity:1;fill-rule:nonzero;stroke:none"
       id="rect4372"
       width="1.3333334"
       height="0"
       x="-442.66623"
       y="-350.48199" />
    <rect
       style="opacity:0.57786889;fill:#ffffff;fill-opacity:1;fill-rule:nonzero;stroke:none"
       id="rect4374"
       width="1.3333334"
       height="0"
       x="-489.50198"
       y="-387.18549" />
    <g
       style="opacity:0.40163933"
       transform="matrix(-1.0439929,0,0,0.8678386,-3798.5628,430.55006)"
       id="g4378" />
    <g
       id="g4380"
       transform="matrix(-1.0439929,0,0,0.8678386,-3798.5628,430.55006)"
       style="opacity:0.40163933" />
    <g
       id="g4382"
       transform="matrix(1.3333329,0,0,0.8678386,469.3874,440.32034)"
       style="opacity:0.40163933" />
    <g
       style="opacity:0.40163933"
       transform="matrix(1.3333329,0,0,0.8678386,469.3874,440.32034)"
       id="g4384" />
    <g
       id="g4392"
       inkscape:label="box"
       style="display:inline"
       transform="matrix(1.3333329,0,0,1.3333329,-140.14019,-59.3871)" />
    <g
       id="g4394"
       inkscape:label="zip_app"
       style="display:inline"
       transform="matrix(1.3333329,0,0,1.3333329,-140.14019,-59.3871)" />
    <rect
       style="opacity:0.57786889;fill:#ffffff;fill-opacity:1;fill-rule:nonzero;stroke:none"
       id="rect4400"
       width="1.3333334"
       height="0"
       x="-255.43272"
       y="-141.43051" />
    <rect
       style="opacity:0.57786889;fill:#ffffff;fill-opacity:1;fill-rule:nonzero;stroke:none"
       id="rect4402"
       width="1.3333334"
       height="0"
       x="-302.26852"
       y="-178.13397" />
    <g
       style="opacity:0.40163933"
       transform="matrix(-1.0439929,0,0,0.8678386,-3611.3299,639.60149)"
       id="g4406" />
    <g
       id="g4408"
       transform="matrix(-1.0439929,0,0,0.8678386,-3611.3299,639.60149)"
       style="opacity:0.40163933" />
    <g
       id="g4410"
       transform="matrix(1.3333329,0,0,0.8678386,656.6208,649.37192)"
       style="opacity:0.40163933" />
    <g
       style="opacity:0.40163933"
       transform="matrix(1.3333329,0,0,0.8678386,656.6208,649.37192)"
       id="g4412" />
    <g
       id="layer2"
       inkscape:label="slice"
       style="opacity:0.33333333;display:none"
       transform="translate(-98.6702,-21.33381)">
      <rect
         style="fill:#000000;fill-opacity:1;stroke:none"
         id="rect3535"
         width="128"
         height="128"
         x="0"
         y="0"
         rx="0"
         ry="0"
         inkscape:export-filename="/home/djm/lokalize.png"
         inkscape:export-xdpi="180"
         inkscape:export-ydpi="180" />
      <rect
         ry="0"
         rx="0"
         y="64"
         x="200"
         height="32"
         width="31.999603"
         id="rect3933-7"
         style="fill:#000000;fill-opacity:1;stroke:none" />
      <rect
         ry="0"
         rx="0"
         y="1.8861262e-14"
         x="200"
         height="15.999993"
         width="16"
         id="rect3537"
         style="fill:#000000;fill-opacity:1;stroke:none" />
      <rect
         ry="0"
         rx="0"
         y="24.000008"
         x="200.00002"
         height="21.99991"
         width="22.00001"
         id="rect3721"
         style="fill:#000000;fill-opacity:1;stroke:none" />
      <rect
         ry="0"
         rx="0"
         y="112.00021"
         x="199.9998"
         height="47.999996"
         width="47.999996"
         id="rect4141"
         style="fill:#000000;fill-opacity:1;stroke:none" />
    </g>
    <rect
       style="fill:url(#linearGradient5059);fill-opacity:1;stroke:none"
       id="rect5051"
       width="16.000401"
       height="112"
       x="15.9996"
       y="8"
       ry="0" />
    <g
       transform="matrix(0.1463445,-0.02678525,0.01010528,0.1292785,98.97435,-19.70366)"
       style="fill:url(#radialGradient4876);fill-opacity:1"
       id="g3561" />
    <rect
       transform="scale(-1,1)"
       ry="3.8921318"
       rx="2.9190984"
       y="96"
       x="-24"
       height="16"
       width="24"
       id="rect4695"
       style="fill:#000000;fill-opacity:0.44508673;stroke:none" />
    <rect
       style="fill:#000000;fill-opacity:1;stroke:none"
       id="rect4870"
       width="7.9994006"
       height="24"
       x="16"
       y="88"
       rx="3.9997003"
       ry="6" />
    <rect
       style="fill:url(#linearGradient4685);fill-opacity:1;stroke:none"
       id="rect4683"
       width="24"
       height="8"
       x="-24"
       y="96"
       rx="2.9190984"
       ry="1.9460659"
       transform="scale(-1,1)" />
    <path
       style="opacity:0.28985507;fill:#000000;fill-opacity:0.27745667000000002;stroke:none"
       d="m 48,16 0,16 -16,0 0,8 16,0 0,16 -16,0 0,8 16,0 0,16 -16,0 0,8 16,0 0,16 8,0 L 55.9988,87.9924 112,88 112,80 56,80 55.9988,63.9924 112,64 112,56 56,56 55.9988,39.9924 112,40 l 0,-8 -56,0 0,-16 -8,0 z"
       id="rect4625"
       sodipodi:nodetypes="ccccccccccccccccccccccccccccc" />
    <g
       style="font-size:15.25948429px;font-style:normal;font-variant:normal;font-weight:normal;font-stretch:normal;fill:url(#linearGradient5147);fill-opacity:1;font-family:Nokia Sans;-inkscape-font-specification:Nokia Sans"
       id="text5023"
       transform="matrix(2.7126673,0,0,2.7126673,-184.78757,-32.655511)">
      <path
         d="m 93.479316,16.037998 c -1.358093,0 -2.609372,0.518824 -3.387605,1.434392 -0.824012,0.946087 -1.327575,2.456778 -1.327575,4.028504 0,3.280785 1.785362,5.32556 4.638883,5.32556 2.838261,0 4.654142,-2.105812 4.654142,-5.432377 0,-3.235007 -1.815881,-5.356079 -4.577845,-5.356079 m -0.0763,1.403873 c 1.159719,0 1.800619,1.449653 1.800619,3.997985 0,2.548331 -0.6409,3.982725 -1.800619,3.982725 -1.15972,0 -1.78536,-1.434394 -1.78536,-4.043763 0,-2.502553 0.656159,-3.936947 1.78536,-3.936947"
         style="font-weight:bold;fill:url(#linearGradient5143);font-family:URW Bookman L;-inkscape-font-specification:URW Bookman L Bold"
         id="path5071"
         sodipodi:nodetypes="ccsssccsssc" />
      <path
         d="m 106.75055,22.263868 c 0,1.922693 -0.94609,3.158713 -2.411,3.158713 -0.61037,0 -0.99186,-0.167855 -1.06816,-0.473044 -0.12207,-0.442525 -0.13733,-0.518823 -0.24415,-0.701936 -0.21363,-0.381487 -0.6409,-0.61038 -1.09868,-0.61038 -0.67142,0 -1.2055,0.518824 -1.2055,1.174981 0,1.14446 1.54121,2.014252 3.57072,2.014252 1.46491,0 2.73145,-0.442526 3.63175,-1.281797 1.02239,-0.946087 1.51069,-2.334703 1.51069,-4.272656 0,-1.70906 -0.42726,-3.067157 -1.23602,-3.921687 -0.77823,-0.839271 -2.01425,-1.312316 -3.41812,-1.312316 -2.63989,0 -4.44733,1.54121 -4.44733,3.677536 0,1.99899 1.45647,3.418124 3.63858,3.418124 1.09868,0 2.06003,-0.30519 2.77722,-0.86979 m -1.98373,-4.821997 c 1.14446,0 1.83114,0.793494 1.83114,2.07529 0,1.266536 -0.74772,2.06003 -1.95322,2.06003 -1.06816,0 -1.65484,-0.808754 -1.65484,-2.090549 0,-1.266536 0.6172,-2.044771 1.77692,-2.044771"
         style="font-weight:bold;fill:url(#linearGradient5145);font-family:URW Bookman L;-inkscape-font-specification:URW Bookman L Bold"
         id="path5073"
         sodipodi:nodetypes="csssssssscsssccsssc" />
    </g>
    <rect
       style="fill:#000000;fill-opacity:0.44508673;stroke:none"
       id="rect5207"
       width="24"
       height="16"
       x="-24"
       y="16"
       rx="2.9190984"
       ry="3.8921318"
       transform="scale(-1,1)" />
    <rect
       ry="6"
       rx="3.9997003"
       y="8"
       x="16"
       height="24"
       width="7.9994006"
       id="rect5209"
       style="fill:#000000;fill-opacity:1;stroke:none" />
    <rect
       transform="scale(-1,1)"
       ry="1.9460659"
       rx="2.9190984"
       y="16"
       x="-24"
       height="8"
       width="24"
       id="rect5211"
       style="fill:url(#linearGradient5213);fill-opacity:1;stroke:none" />
    <rect
       transform="scale(-1,1)"
       ry="3.8921318"
       rx="2.9190984"
       y="32"
       x="-24"
       height="16"
       width="24"
       id="rect5215"
       style="fill:#000000;fill-opacity:0.44508673;stroke:none" />
    <rect
       style="fill:#000000;fill-opacity:1;stroke:none"
       id="rect5217"
       width="7.9994006"
       height="24"
       x="16"
       y="24"
       rx="3.9997003"
       ry="6" />
    <rect
       style="fill:url(#linearGradient5221);fill-opacity:1;stroke:none"
       id="rect5219"
       width="24"
       height="8"
       x="-24"
       y="32"
       rx="2.9190984"
       ry="1.9460659"
       transform="scale(-1,1)" />
    <rect
       style="fill:#000000;fill-opacity:0.44508673;stroke:none"
       id="rect5223"
       width="24"
       height="16"
       x="-24"
       y="80"
       rx="2.9190984"
       ry="3.8921318"
       transform="scale(-1,1)" />
    <rect
       ry="6"
       rx="3.9997003"
       y="72"
       x="16"
       height="24"
       width="7.9994006"
       id="rect5225"
       style="fill:#000000;fill-opacity:1;stroke:none" />
    <rect
       transform="scale(-1,1)"
       ry="1.9460659"
       rx="2.9190984"
       y="80"
       x="-24"
       height="8"
       width="24"
       id="rect5227"
       style="fill:url(#linearGradient5229);fill-opacity:1;stroke:none" />
    <path
       sodipodi:nodetypes="ccccccccccc"
       id="path5231"
       d="m 48,104 -16,0 0,8 16,0 0,0 8,0 -0.0012,-0.008 L 104,112 l 0,-8 -48,0 -8,0 z"
       style="opacity:0.28985507;fill:#000000;fill-opacity:0.27745667000000002;stroke:none" />
  </g>
</svg>
