<?xml version="1.0" encoding="UTF-8" standalone="no"?>
<!-- Created with Inkscape (http://www.inkscape.org/) -->

<svg
   xmlns:dc="http://purl.org/dc/elements/1.1/"
   xmlns:cc="http://creativecommons.org/ns#"
   xmlns:rdf="http://www.w3.org/1999/02/22-rdf-syntax-ns#"
   xmlns:svg="http://www.w3.org/2000/svg"
   xmlns="http://www.w3.org/2000/svg"
   xmlns:xlink="http://www.w3.org/1999/xlink"
   xmlns:sodipodi="http://sodipodi.sourceforge.net/DTD/sodipodi-0.dtd"
   xmlns:inkscape="http://www.inkscape.org/namespaces/inkscape"
   width="108"
   height="168"
   id="svg2"
   version="1.1"
   inkscape:version="0.47pre0 r21549"
   sodipodi:docname="000-svg-template.svg"
   inkscape:output_extension="org.inkscape.output.svgz.inkscape">
  <defs
     id="defs4">
    <linearGradient
       id="linearGradient3802">
      <stop
         style="stop-color:#ffffff;stop-opacity:1;"
         offset="0"
         id="stop3804" />
      <stop
         style="stop-color:#000000;stop-opacity:0;"
         offset="1"
         id="stop3806" />
    </linearGradient>
    <linearGradient
       id="linearGradient3701">
      <stop
         id="stop3703"
         offset="0"
         style="stop-color:#d8cee7;stop-opacity:1;" />
      <stop
         id="stop3705"
         offset="1"
         style="stop-color:#644a9b;stop-opacity:1" />
    </linearGradient>
    <linearGradient
       inkscape:collect="always"
       id="linearGradient3689">
      <stop
         style="stop-color:#000000;stop-opacity:1;"
         offset="0"
         id="stop3691" />
      <stop
         style="stop-color:#000000;stop-opacity:0;"
         offset="1"
         id="stop3693" />
    </linearGradient>
    <linearGradient
       id="linearGradient3666">
      <stop
         style="stop-color:#1d0a55;stop-opacity:1"
         offset="0"
         id="stop3668" />
      <stop
         style="stop-color:#7248cc;stop-opacity:1;"
         offset="1"
         id="stop3670" />
    </linearGradient>
    <linearGradient
       inkscape:collect="always"
       id="linearGradient3650">
      <stop
         style="stop-color:#ffffff;stop-opacity:1;"
         offset="0"
         id="stop3652" />
      <stop
         style="stop-color:#ffffff;stop-opacity:0;"
         offset="1"
         id="stop3654" />
    </linearGradient>
    <linearGradient
       id="linearGradient3635">
      <stop
         style="stop-color:#d8cee7;stop-opacity:1;"
         offset="0"
         id="stop3637" />
      <stop
         style="stop-color:#9074bb;stop-opacity:1"
         offset="1"
         id="stop3639" />
    </linearGradient>
    <inkscape:perspective
       sodipodi:type="inkscape:persp3d"
       inkscape:vp_x="0 : 526.18109 : 1"
       inkscape:vp_y="0 : 1000 : 0"
       inkscape:vp_z="744.09448 : 526.18109 : 1"
       inkscape:persp3d-origin="372.04724 : 350.78739 : 1"
       id="perspective10" />
    <inkscape:perspective
       id="perspective2843"
       inkscape:persp3d-origin="0.5 : 0.33333333 : 1"
       inkscape:vp_z="1 : 0.5 : 1"
       inkscape:vp_y="0 : 1000 : 0"
       inkscape:vp_x="0 : 0.5 : 1"
       sodipodi:type="inkscape:persp3d" />
    <radialGradient
       inkscape:collect="always"
       xlink:href="#linearGradient3701"
       id="radialGradient3641"
       cx="288"
       cy="273.81033"
       fx="288"
       fy="273.81033"
       r="13"
       gradientTransform="matrix(1.2076018,0,0,1.3469404,-59.78931,-93.80623)"
       gradientUnits="userSpaceOnUse" />
    <linearGradient
       inkscape:collect="always"
       xlink:href="#linearGradient3650"
       id="linearGradient3656"
       x1="295"
       y1="244.35426"
       x2="295"
       y2="271.789"
       gradientUnits="userSpaceOnUse" />
    <radialGradient
       inkscape:collect="always"
       xlink:href="#linearGradient3666"
       id="radialGradient3672"
       cx="288"
       cy="265.30646"
       fx="288"
       fy="265.30646"
       r="14"
       gradientTransform="matrix(1,0,0,1.1071429,0,-28.232143)"
       gradientUnits="userSpaceOnUse" />
    <radialGradient
       inkscape:collect="always"
       xlink:href="#linearGradient3689"
       id="radialGradient3695"
       cx="288"
       cy="264.25"
       fx="293.10416"
       fy="261.14923"
       r="10"
       gradientTransform="matrix(1.1566722,0,0,1.2434226,-45.121599,-64.324432)"
       gradientUnits="userSpaceOnUse" />
    <linearGradient
       inkscape:collect="always"
       xlink:href="#linearGradient3689"
       id="linearGradient3699"
       x1="292.02084"
       y1="280.27084"
       x2="292.02084"
       y2="261.97659"
       gradientUnits="userSpaceOnUse"
       gradientTransform="translate(112,308.36218)" />
    <radialGradient
       inkscape:collect="always"
       xlink:href="#linearGradient3666"
       id="radialGradient3743"
       gradientUnits="userSpaceOnUse"
       gradientTransform="matrix(1,0,0,1.1071429,0,-28.232143)"
       cx="288"
       cy="265.30646"
       fx="288"
       fy="265.30646"
       r="14" />
    <linearGradient
       inkscape:collect="always"
       xlink:href="#linearGradient3689"
       id="linearGradient3745"
       gradientUnits="userSpaceOnUse"
       gradientTransform="translate(112,308.36218)"
       x1="292.02084"
       y1="280.27084"
       x2="292.02084"
       y2="261.97659" />
    <radialGradient
       inkscape:collect="always"
       xlink:href="#linearGradient3689"
       id="radialGradient3747"
       gradientUnits="userSpaceOnUse"
       gradientTransform="matrix(1.1566722,0,0,1.2434226,-45.121599,-64.324432)"
       cx="288"
       cy="264.25"
       fx="293.10416"
       fy="261.14923"
       r="10" />
    <radialGradient
       inkscape:collect="always"
       xlink:href="#linearGradient3701"
       id="radialGradient3749"
       gradientUnits="userSpaceOnUse"
       gradientTransform="matrix(1.2076018,0,0,1.3469404,-59.78931,-93.80623)"
       cx="288"
       cy="273.81033"
       fx="288"
       fy="273.81033"
       r="13" />
    <linearGradient
       inkscape:collect="always"
       xlink:href="#linearGradient3650"
       id="linearGradient3751"
       gradientUnits="userSpaceOnUse"
       x1="295"
       y1="244.35426"
       x2="295"
       y2="271.789" />
    <clipPath
       clipPathUnits="userSpaceOnUse"
       id="clipPath3797">
      <path
         style="stroke-width:1px"
         d="m 424,588.36218 12,-12 -8,-20 32,-8 0,20 -12,24 -24,-4 z"
         id="path3799"
         sodipodi:nodetypes="ccccccc" />
    </clipPath>
    <linearGradient
       inkscape:collect="always"
       xlink:href="#linearGradient3802"
       id="linearGradient3808"
       x1="384"
       y1="578.36218"
       x2="396"
       y2="578.36218"
       gradientUnits="userSpaceOnUse" />
    <linearGradient
       inkscape:collect="always"
       xlink:href="#linearGradient3802"
       id="linearGradient3816"
       gradientUnits="userSpaceOnUse"
       x1="394"
       y1="577.36218"
       x2="391"
       y2="574.36218" />
    <linearGradient
       inkscape:collect="always"
       xlink:href="#linearGradient3802"
       id="linearGradient3822"
       gradientUnits="userSpaceOnUse"
       x1="394"
       y1="577.36218"
       x2="391"
       y2="574.36218"
       gradientTransform="translate(40,0)" />
    <mask
       maskUnits="userSpaceOnUse"
       id="mask3818">
      <path
         style="fill:url(#linearGradient3822);fill-opacity:1;stroke-width:1px"
         d="m 424,588.36218 12,-12 -2.14359,-8 -9.85641,0 0,20 z"
         id="path3820" />
    </mask>
    <radialGradient
       inkscape:collect="always"
       xlink:href="#linearGradient3666"
       id="radialGradient3850"
       gradientUnits="userSpaceOnUse"
       gradientTransform="matrix(1,0,0,1.1071429,0,-28.232143)"
       cx="288"
       cy="265.30646"
       fx="288"
       fy="265.30646"
       r="14" />
    <linearGradient
       inkscape:collect="always"
       xlink:href="#linearGradient3689"
       id="linearGradient3852"
       gradientUnits="userSpaceOnUse"
       gradientTransform="translate(112,308.36218)"
       x1="292.02084"
       y1="280.27084"
       x2="292.02084"
       y2="261.97659" />
    <radialGradient
       inkscape:collect="always"
       xlink:href="#linearGradient3689"
       id="radialGradient3854"
       gradientUnits="userSpaceOnUse"
       gradientTransform="matrix(1.1566722,0,0,1.2434226,-45.121599,-64.324432)"
       cx="288"
       cy="264.25"
       fx="293.10416"
       fy="261.14923"
       r="10" />
    <radialGradient
       inkscape:collect="always"
       xlink:href="#linearGradient3701"
       id="radialGradient3856"
       gradientUnits="userSpaceOnUse"
       gradientTransform="matrix(1.2076018,0,0,1.3469404,-59.78931,-93.80623)"
       cx="288"
       cy="273.81033"
       fx="288"
       fy="273.81033"
       r="13" />
    <linearGradient
       inkscape:collect="always"
       xlink:href="#linearGradient3650"
       id="linearGradient3858"
       gradientUnits="userSpaceOnUse"
       x1="295"
       y1="244.35426"
       x2="295"
       y2="271.789" />
    <inkscape:perspective
       id="perspective3948"
       inkscape:persp3d-origin="0.5 : 0.33333333 : 1"
       inkscape:vp_z="1 : 0.5 : 1"
       inkscape:vp_y="0 : 1000 : 0"
       inkscape:vp_x="0 : 0.5 : 1"
       sodipodi:type="inkscape:persp3d" />
    <radialGradient
       inkscape:collect="always"
       xlink:href="#linearGradient3701"
       id="radialGradient3979"
       cx="284.51562"
       cy="314.23761"
       fx="284.51562"
       fy="314.23761"
       r="8.484375"
       gradientTransform="matrix(1.5043368,0,0,1.6788731,-143.4917,-212.54938)"
       gradientUnits="userSpaceOnUse" />
    <radialGradient
       inkscape:collect="always"
       xlink:href="#linearGradient3701"
       id="radialGradient3985"
       gradientUnits="userSpaceOnUse"
       gradientTransform="matrix(1.5043368,0,0,1.6788731,-143.4917,-212.54938)"
       cx="284.51562"
       cy="314.23761"
       fx="284.51562"
       fy="314.23761"
       r="8.484375" />
    <linearGradient
       inkscape:collect="always"
       xlink:href="#linearGradient3650"
       id="linearGradient3990"
       x1="290"
       y1="293.37607"
       x2="290"
       y2="314.62393"
       gradientUnits="userSpaceOnUse" />
    <radialGradient
       inkscape:collect="always"
       xlink:href="#linearGradient3666"
       id="radialGradient3994"
       cx="284.51562"
       cy="307.53125"
       fx="284.51562"
       fy="307.53125"
       r="9.484375"
       gradientTransform="matrix(1,0,0,1.1037891,0,-31.9184)"
       gradientUnits="userSpaceOnUse" />
    <linearGradient
       inkscape:collect="always"
       xlink:href="#linearGradient3689"
       id="linearGradient4000"
       x1="289.35016"
       y1="318"
       x2="289.35016"
       y2="305.57297"
       gradientUnits="userSpaceOnUse" />
    <radialGradient
       inkscape:collect="always"
       xlink:href="#linearGradient3666"
       id="radialGradient4028"
       gradientUnits="userSpaceOnUse"
       gradientTransform="matrix(1,0,0,1.1037891,0,-31.9184)"
       cx="284.51562"
       cy="307.53125"
       fx="284.51562"
       fy="307.53125"
       r="9.484375" />
    <linearGradient
       inkscape:collect="always"
       xlink:href="#linearGradient3689"
       id="linearGradient4030"
       gradientUnits="userSpaceOnUse"
       x1="289.35016"
       y1="318"
       x2="289.35016"
       y2="305.57297" />
    <radialGradient
       inkscape:collect="always"
       xlink:href="#linearGradient3701"
       id="radialGradient4032"
       gradientUnits="userSpaceOnUse"
       gradientTransform="matrix(1.5043368,0,0,1.6788731,-143.4917,-212.54938)"
       cx="284.51562"
       cy="314.23761"
       fx="284.51562"
       fy="314.23761"
       r="8.484375" />
    <linearGradient
       inkscape:collect="always"
       xlink:href="#linearGradient3650"
       id="linearGradient4034"
       gradientUnits="userSpaceOnUse"
       x1="290"
       y1="293.37607"
       x2="290"
       y2="314.62393" />
    <clipPath
       clipPathUnits="userSpaceOnUse"
       id="clipPath4052">
      <path
         id="path4054"
         d="m 425,627.36218 10,-10 c -23.22348,-26.61546 8.02889,-10.08898 16,-12 6,5 4.1474,5.66822 1,27 l -27,-5 z"
         style="stroke-width:1px"
         sodipodi:nodetypes="ccccc" />
    </clipPath>
    <linearGradient
       inkscape:collect="always"
       xlink:href="#linearGradient3802"
       id="linearGradient4056"
       x1="280"
       y1="312"
       x2="277"
       y2="309"
       gradientUnits="userSpaceOnUse" />
    <linearGradient
       inkscape:collect="always"
       xlink:href="#linearGradient3802"
       id="linearGradient4062"
       gradientUnits="userSpaceOnUse"
       x1="280"
       y1="312"
       x2="277"
       y2="309"
       gradientTransform="translate(152,308.36218)" />
    <mask
       maskUnits="userSpaceOnUse"
       id="mask4058">
      <path
         style="fill:url(#linearGradient4062);stroke-width:1px"
         d="m 425,627.36218 10,-10 -6,-6 -10,10 6,6 z"
         id="path4060" />
    </mask>
    <inkscape:perspective
       id="perspective4116"
       inkscape:persp3d-origin="0.5 : 0.33333333 : 1"
       inkscape:vp_z="1 : 0.5 : 1"
       inkscape:vp_y="0 : 1000 : 0"
       inkscape:vp_x="0 : 0.5 : 1"
       sodipodi:type="inkscape:persp3d" />
    <radialGradient
       inkscape:collect="always"
       xlink:href="#linearGradient3701"
       id="radialGradient4189"
       cx="280"
       cy="346.72141"
       fx="280"
       fy="346.72141"
       r="5"
       gradientTransform="matrix(1.3757144,0,0,1.6508572,6.79998,84.44032)"
       gradientUnits="userSpaceOnUse" />
    <linearGradient
       inkscape:collect="always"
       xlink:href="#linearGradient3650"
       id="linearGradient4195"
       x1="285"
       y1="335.68585"
       x2="285"
       y2="345.76215"
       gradientUnits="userSpaceOnUse" />
    <radialGradient
       inkscape:collect="always"
       xlink:href="#linearGradient3666"
       id="radialGradient4200"
       cx="280"
       cy="343"
       fx="280"
       fy="343"
       r="6"
       gradientTransform="matrix(1,0,0,1.1666667,112,252.19551)"
       gradientUnits="userSpaceOnUse" />
    <linearGradient
       inkscape:collect="always"
       xlink:href="#linearGradient3689"
       id="linearGradient4206"
       x1="282.97141"
       y1="350.49286"
       x2="282.97141"
       y2="341.40414"
       gradientUnits="userSpaceOnUse"
       gradientTransform="translate(112,309.36218)" />
    <linearGradient
       inkscape:collect="always"
       xlink:href="#linearGradient3650"
       id="linearGradient4208"
       gradientUnits="userSpaceOnUse"
       x1="285"
       y1="335.68585"
       x2="285"
       y2="348"
       gradientTransform="translate(112,309.36218)" />
    <clipPath
       clipPathUnits="userSpaceOnUse"
       id="clipPath4232">
      <path
         id="path4234"
         d="m 424,660.36218 7,-7 c 0.79488,-0.10124 -6.42783,-3.32393 -6,-6 0.33895,-2.12009 8.29867,-3.79932 9,-4 3.7749,-1.08016 8.52417,7.79919 5,19 l -15,-2 z"
         style="stroke-width:1px"
         sodipodi:nodetypes="ccsscc" />
    </clipPath>
    <linearGradient
       inkscape:collect="always"
       xlink:href="#linearGradient3802"
       id="linearGradient4236"
       x1="277"
       y1="347"
       x2="275"
       y2="345"
       gradientUnits="userSpaceOnUse" />
    <linearGradient
       inkscape:collect="always"
       xlink:href="#linearGradient3802"
       id="linearGradient4242"
       gradientUnits="userSpaceOnUse"
       x1="277"
       y1="347"
       x2="275"
       y2="345"
       gradientTransform="translate(152,308.36218)" />
    <mask
       maskUnits="userSpaceOnUse"
       id="mask4238">
      <path
         style="fill:url(#linearGradient4242);stroke-width:1px"
         d="m 424,660.36218 7,-7 -1,-1 -2,-1 -4,0 0,9 z"
         id="path4240" />
    </mask>
    <inkscape:perspective
       id="perspective4252"
       inkscape:persp3d-origin="0.5 : 0.33333333 : 1"
       inkscape:vp_z="1 : 0.5 : 1"
       inkscape:vp_y="0 : 1000 : 0"
       inkscape:vp_x="0 : 0.5 : 1"
       sodipodi:type="inkscape:persp3d" />
    <radialGradient
       inkscape:collect="always"
       xlink:href="#linearGradient3666"
       id="radialGradient4289"
       gradientUnits="userSpaceOnUse"
       gradientTransform="matrix(1,0,0,1.1071429,0,-28.232143)"
       cx="288"
       cy="265.30646"
       fx="288"
       fy="265.30646"
       r="14" />
    <linearGradient
       inkscape:collect="always"
       xlink:href="#linearGradient3689"
       id="linearGradient4291"
       gradientUnits="userSpaceOnUse"
       gradientTransform="translate(112,308.36218)"
       x1="292.02084"
       y1="280.27084"
       x2="292.02084"
       y2="261.97659" />
    <radialGradient
       inkscape:collect="always"
       xlink:href="#linearGradient3689"
       id="radialGradient4293"
       gradientUnits="userSpaceOnUse"
       gradientTransform="matrix(1.1566722,0,0,1.2434226,-45.121599,-64.324432)"
       cx="288"
       cy="264.25"
       fx="293.10416"
       fy="261.14923"
       r="10" />
    <radialGradient
       inkscape:collect="always"
       xlink:href="#linearGradient3701"
       id="radialGradient4295"
       gradientUnits="userSpaceOnUse"
       gradientTransform="matrix(1.2076018,0,0,1.3469404,-59.78931,-93.80623)"
       cx="288"
       cy="273.81033"
       fx="288"
       fy="273.81033"
       r="13" />
    <linearGradient
       inkscape:collect="always"
       xlink:href="#linearGradient3650"
       id="linearGradient4297"
       gradientUnits="userSpaceOnUse"
       x1="295"
       y1="244.35426"
       x2="295"
       y2="271.789" />
    <inkscape:perspective
       id="perspective4314"
       inkscape:persp3d-origin="0.5 : 0.33333333 : 1"
       inkscape:vp_z="1 : 0.5 : 1"
       inkscape:vp_y="0 : 1000 : 0"
       inkscape:vp_x="0 : 0.5 : 1"
       sodipodi:type="inkscape:persp3d" />
    <clipPath
       clipPathUnits="userSpaceOnUse"
       id="clipPath4370">
      <path
         id="path4372"
         d="m 444.5,540.61218 19.5,-19.5 -12,-16.75 12,-20 32,8 0,52 -51.5,-3.75 z"
         style="stroke-width:1px"
         sodipodi:nodetypes="ccccccc" />
    </clipPath>
    <linearGradient
       inkscape:collect="always"
       xlink:href="#linearGradient3802"
       id="linearGradient4374"
       x1="288"
       y1="216"
       x2="282"
       y2="210"
       gradientUnits="userSpaceOnUse" />
    <linearGradient
       inkscape:collect="always"
       xlink:href="#linearGradient3802"
       id="linearGradient4380"
       gradientUnits="userSpaceOnUse"
       x1="288"
       y1="216"
       x2="282"
       y2="210"
       gradientTransform="translate(172,308.36218)" />
    <mask
       maskUnits="userSpaceOnUse"
       id="mask4376">
      <path
         style="fill:url(#linearGradient4380);stroke-width:1px"
         d="m 444.5,540.61218 19.5,-19.5 -2.34456,-8.75 -17.53044,0 0.375,28.25 z"
         id="path4378" />
    </mask>
    <radialGradient
       inkscape:collect="always"
       xlink:href="#linearGradient3666"
       id="radialGradient4440"
       gradientUnits="userSpaceOnUse"
       gradientTransform="matrix(1,0,0,1.1071429,0,-28.232143)"
       cx="288"
       cy="265.30646"
       fx="288"
       fy="265.30646"
       r="14" />
    <linearGradient
       inkscape:collect="always"
       xlink:href="#linearGradient3689"
       id="linearGradient4442"
       gradientUnits="userSpaceOnUse"
       gradientTransform="translate(112,308.36218)"
       x1="292.02084"
       y1="280.27084"
       x2="292.02084"
       y2="261.97659" />
    <radialGradient
       inkscape:collect="always"
       xlink:href="#linearGradient3689"
       id="radialGradient4444"
       gradientUnits="userSpaceOnUse"
       gradientTransform="matrix(1.1566722,0,0,1.2434226,-45.121599,-64.324432)"
       cx="288"
       cy="264.25"
       fx="293.10416"
       fy="261.14923"
       r="10" />
    <radialGradient
       inkscape:collect="always"
       xlink:href="#linearGradient3701"
       id="radialGradient4446"
       gradientUnits="userSpaceOnUse"
       gradientTransform="matrix(1.2076018,0,0,1.3469404,-59.78931,-93.80623)"
       cx="288"
       cy="273.81033"
       fx="288"
       fy="273.81033"
       r="13" />
    <linearGradient
       inkscape:collect="always"
       xlink:href="#linearGradient3650"
       id="linearGradient4448"
       gradientUnits="userSpaceOnUse"
       x1="295"
       y1="244.35426"
       x2="295"
       y2="271.789" />
    <radialGradient
       inkscape:collect="always"
       xlink:href="#linearGradient3666"
       id="radialGradient4450"
       gradientUnits="userSpaceOnUse"
       gradientTransform="matrix(1,0,0,1.1037891,0,-31.9184)"
       cx="284.51562"
       cy="307.53125"
       fx="284.51562"
       fy="307.53125"
       r="9.484375" />
    <linearGradient
       inkscape:collect="always"
       xlink:href="#linearGradient3689"
       id="linearGradient4452"
       gradientUnits="userSpaceOnUse"
       x1="289.35016"
       y1="318"
       x2="289.35016"
       y2="305.57297" />
    <radialGradient
       inkscape:collect="always"
       xlink:href="#linearGradient3701"
       id="radialGradient4454"
       gradientUnits="userSpaceOnUse"
       gradientTransform="matrix(1.5043368,0,0,1.6788731,-143.4917,-212.54938)"
       cx="284.51562"
       cy="314.23761"
       fx="284.51562"
       fy="314.23761"
       r="8.484375" />
    <linearGradient
       inkscape:collect="always"
       xlink:href="#linearGradient3650"
       id="linearGradient4456"
       gradientUnits="userSpaceOnUse"
       x1="290"
       y1="293.37607"
       x2="290"
       y2="314.62393" />
    <radialGradient
       inkscape:collect="always"
       xlink:href="#linearGradient3666"
       id="radialGradient4458"
       gradientUnits="userSpaceOnUse"
       gradientTransform="matrix(1,0,0,1.1666667,112,252.19551)"
       cx="280"
       cy="343"
       fx="280"
       fy="343"
       r="6" />
    <linearGradient
       inkscape:collect="always"
       xlink:href="#linearGradient3689"
       id="linearGradient4460"
       gradientUnits="userSpaceOnUse"
       gradientTransform="translate(112,309.36218)"
       x1="282.97141"
       y1="350.49286"
       x2="282.97141"
       y2="341.40414" />
    <radialGradient
       inkscape:collect="always"
       xlink:href="#linearGradient3701"
       id="radialGradient4462"
       gradientUnits="userSpaceOnUse"
       gradientTransform="matrix(1.3757144,0,0,1.6508572,6.79998,84.44032)"
       cx="280"
       cy="346.72141"
       fx="280"
       fy="346.72141"
       r="5" />
    <linearGradient
       inkscape:collect="always"
       xlink:href="#linearGradient3650"
       id="linearGradient4464"
       gradientUnits="userSpaceOnUse"
       gradientTransform="translate(112,309.36218)"
       x1="285"
       y1="335.68585"
       x2="285"
       y2="348" />
    <radialGradient
       inkscape:collect="always"
       xlink:href="#linearGradient3666"
       id="radialGradient4466"
       gradientUnits="userSpaceOnUse"
       gradientTransform="matrix(1.2797757,0,0,1.3997547,-82.813622,-82.761721)"
       cx="296"
       cy="207.03125"
       fx="296"
       fy="207.03125"
       r="21" />
    <linearGradient
       inkscape:collect="always"
       xlink:href="#linearGradient3689"
       id="linearGradient4468"
       gradientUnits="userSpaceOnUse"
       x1="317"
       y1="230"
       x2="317"
       y2="199.15625" />
    <radialGradient
       inkscape:collect="always"
       xlink:href="#linearGradient3701"
       id="radialGradient4470"
       gradientUnits="userSpaceOnUse"
       gradientTransform="matrix(1.2219061,0,0,1.3421875,-65.684211,-73.769894)"
       cx="296"
       cy="219.03694"
       fx="296"
       fy="219.03694"
       r="20" />
    <linearGradient
       inkscape:collect="always"
       xlink:href="#linearGradient3650"
       id="linearGradient4472"
       gradientUnits="userSpaceOnUse"
       gradientTransform="translate(-4.477083e-6,5.4859913e-6)"
       x1="309.9375"
       y1="179.81232"
       x2="309.9375"
       y2="221.10291" />
  </defs>
  <sodipodi:namedview
     id="base"
     pagecolor="#ffffff"
     bordercolor="#666666"
     borderopacity="1.0"
     inkscape:pageopacity="0.0"
     inkscape:pageshadow="2"
     inkscape:zoom="1"
     inkscape:cx="54"
     inkscape:cy="84"
     inkscape:document-units="px"
     inkscape:current-layer="layer1"
     showgrid="true"
     inkscape:snap-global="true"
     inkscape:window-width="1210"
     inkscape:window-height="1009"
     inkscape:window-x="0"
     inkscape:window-y="0"
     inkscape:window-maximized="0">
    <inkscape:grid
       type="xygrid"
       id="grid2817"
       empspacing="4"
       visible="true"
       enabled="true"
       snapvisiblegridlinesonly="true" />
  </sodipodi:namedview>
  <metadata
     id="metadata7">
    <rdf:RDF>
      <cc:Work
         rdf:about="">
        <dc:format>image/svg+xml</dc:format>
        <dc:type
           rdf:resource="http://purl.org/dc/dcmitype/StillImage" />
        <dc:title></dc:title>
      </cc:Work>
    </rdf:RDF>
  </metadata>
  <g
     inkscape:label="icon"
     inkscape:groupmode="layer"
     id="layer1"
     transform="translate(-324,-492.36218)"
     style="display:inline">
    <g
       inkscape:groupmode="layer"
       id="layer2"
       inkscape:label="baseplate"
       style="display:none">
      <rect
         style="fill:#eeeeee"
         id="rect2825"
         width="48"
         height="48"
         x="384"
         y="492.36218"
         inkscape:label="48x48" />
      <rect
         y="556.36218"
         x="384"
         height="32"
         width="32"
         id="rect2827"
         style="fill:#eeeeee"
         inkscape:label="32x32" />
      <rect
         y="605.36218"
         x="385"
         height="22"
         width="22"
         id="rect2831"
         style="fill:#eeeeee"
         inkscape:label="22x22" />
      <rect
         style="fill:#eeeeee"
         id="rect2833"
         width="16"
         height="16"
         x="384"
         y="644.36218"
         inkscape:label="16x16" />
      <rect
         inkscape:label="48x48"
         y="492.36218"
         x="-372"
         height="48"
         width="48"
         id="rect4416"
         style="fill:#eeeeee"
         transform="scale(-1,1)" />
      <rect
         inkscape:label="32x32"
         style="fill:#eeeeee"
         id="rect4418"
         width="32"
         height="32"
         x="-372"
         y="556.36218"
         transform="scale(-1,1)" />
      <rect
         inkscape:label="22x22"
         style="fill:#eeeeee"
         id="rect4420"
         width="22"
         height="22"
         x="-371"
         y="605.36218"
         transform="scale(-1,1)" />
      <rect
         inkscape:label="16x16"
         y="644.36218"
         x="-372"
         height="16"
         width="16"
         id="rect4422"
         style="fill:#eeeeee"
         transform="scale(-1,1)" />
    </g>
    <g
       id="g3678"
       transform="translate(40,0)">
      <path
         style="fill:none;stroke:url(#radialGradient4440);stroke-width:2;stroke-linecap:round;stroke-linejoin:round;stroke-miterlimit:4;stroke-dasharray:none"
         d="m 288,249 -8,5.5 8,5.5 0,-4 c 4.97061,0 9,4.02939 9,9 0,4.97061 -4.02939,9 -9,9 -4.97061,0 -9,-4.02939 -9,-9 l -4,0 c 0,7.17975 5.82025,13 13,13 7.17975,0 13,-5.82025 13,-13 0,-7.17975 -5.82025,-13 -13,-13 l 0,-3 z"
         transform="translate(112,308.36218)"
         id="path3633" />
      <path
         id="path3697"
         d="m 387,573.36218 c 0,7.17975 5.82025,13 13,13 7.17975,0 13,-5.82025 13,-13 0,-7.17975 -5.82025,-13 -13,-13 l 0,-3 -8,5.5"
         style="opacity:0.65;fill:none;stroke:url(#linearGradient4442);stroke-width:2;stroke-linecap:round;stroke-linejoin:round;stroke-miterlimit:4;stroke-opacity:1;stroke-dasharray:none"
         sodipodi:nodetypes="cssccc" />
      <path
         id="path3687"
         transform="translate(112,308.36218)"
         d="m 280,254.5 8,5.5 0,-4 c 4.97061,0 9,4.02939 9,9 0,4.97061 -4.02939,9 -9,9 -4.97061,0 -9,-4.02939 -9,-9"
         style="opacity:0.65;fill:none;stroke:url(#radialGradient4444);stroke-width:2;stroke-linecap:round;stroke-linejoin:round;stroke-miterlimit:4;stroke-opacity:1;stroke-dasharray:none"
         sodipodi:nodetypes="cccssc" />
      <path
         id="path2849"
         transform="translate(112,308.36218)"
         d="m 288,249 -8,5.5 8,5.5 0,-4 c 4.97061,0 9,4.02939 9,9 0,4.97061 -4.02939,9 -9,9 -4.97061,0 -9,-4.02939 -9,-9 l -4,0 c 0,7.17975 5.82025,13 13,13 7.17975,0 13,-5.82025 13,-13 0,-7.17975 -5.82025,-13 -13,-13 l 0,-3 z"
         style="fill:url(#radialGradient4446);fill-opacity:1;stroke-width:1px" />
      <path
         id="path3643"
         transform="translate(112,308.36218)"
         d="m 288,249 -8,5.5 8,5.5 0,-4 c 4.97061,0 9,4.02939 9,9 0,0.37488 -0.018,0.73091 -0.0625,1.09375 1.54752,-0.64614 2.90239,-1.47407 4,-2.40625 C 300.28585,257.11754 294.74143,252 288,252 l 0,-3 z m -11.09375,16 c 0.66582,0.39659 1.38737,0.77272 2.15625,1.09375 C 279.01799,265.73091 279,265.37488 279,265 l -2.09375,0 z"
         style="fill:url(#linearGradient4448);fill-opacity:1;stroke-width:1px" />
      <path
         sodipodi:type="arc"
         style="fill:none;stroke:#56389c;stroke-width:2;stroke-linecap:round;stroke-linejoin:round;stroke-miterlimit:4;stroke-opacity:1;stroke-dasharray:none"
         id="path3676"
         sodipodi:cx="288"
         sodipodi:cy="265"
         sodipodi:rx="1"
         sodipodi:ry="1"
         d="m 289,265 a 1,1 0 1 1 -2,0 1,1 0 1 1 2,0 z"
         transform="translate(112,308.36218)" />
      <path
         transform="translate(112,308.36218)"
         d="m 289,265 a 1,1 0 1 1 -2,0 1,1 0 1 1 2,0 z"
         sodipodi:ry="1"
         sodipodi:rx="1"
         sodipodi:cy="265"
         sodipodi:cx="288"
         id="path3674"
         style="fill:#ffffff;fill-opacity:1;stroke:none"
         sodipodi:type="arc" />
    </g>
    <use
       x="0"
       y="0"
       xlink:href="#g3678"
       id="use3785"
       transform="translate(-40,0)"
       width="336"
       height="360"
       clip-path="url(#clipPath3797)" />
    <use
       height="360"
       width="336"
       transform="translate(-40,0)"
       id="use3791"
       xlink:href="#g3678"
       y="0"
       x="0"
       clip-path="none"
       mask="url(#mask3818)" />
    <g
       id="g4006"
       transform="translate(40,0)">
      <path
         style="fill:none;stroke:url(#radialGradient4450);stroke-width:2;stroke-linecap:round;stroke-linejoin:round;stroke-miterlimit:4;stroke-opacity:1;stroke-dasharray:none"
         d="M 285.0625,298.0625 280,301.5 l 5,3.5 0.0312,-1.96875 c 2.7882,0.2674 4.9688,2.61051 4.9688,5.46875 0,3.03757 -2.46243,5.5 -5.5,5.5 -2.86875,0 -5.21576,-2.19713 -5.46875,-5 l -3,0 c 0.25877,4.46174 3.94215,8 8.46875,8 4.69442,0 8.5,-3.80557 8.5,-8.5 0,-4.51615 -3.52161,-8.19472 -7.96875,-8.46875 l 0.0312,-1.96875 z"
         transform="translate(112,308.36218)"
         id="path3992" />
      <path
         sodipodi:nodetypes="csscccc"
         id="path3996"
         transform="translate(112,308.36218)"
         d="m 276.03125,309 c 0.25877,4.46174 3.94215,8 8.46875,8 4.69442,0 8.5,-3.80557 8.5,-8.5 0,-4.51615 -3.52161,-8.19472 -7.96875,-8.46875 L 285.0625,298.0625 280,301.5 l 5,3.5"
         style="opacity:0.65;fill:none;stroke:url(#linearGradient4452);stroke-width:2;stroke-linecap:round;stroke-linejoin:round;stroke-miterlimit:4;stroke-opacity:1;stroke-dasharray:none" />
      <path
         id="path3956"
         transform="translate(112,308.36218)"
         d="M 285.0625,298.0625 280,301.5 l 5,3.5 0.0312,-1.96875 c 2.7882,0.2674 4.9688,2.61051 4.9688,5.46875 0,3.03757 -2.46243,5.5 -5.5,5.5 -2.86875,0 -5.21576,-2.19713 -5.46875,-5 l -3,0 c 0.25877,4.46174 3.94215,8 8.46875,8 4.69442,0 8.5,-3.80557 8.5,-8.5 0,-4.51615 -3.52161,-8.19472 -7.96875,-8.46875 l 0.0312,-1.96875 z"
         style="fill:url(#radialGradient4454);fill-opacity:1;stroke:none" />
      <path
         id="path3981"
         transform="translate(112,308.36218)"
         d="M 285.0625,298.0625 280,301.5 l 5,3.5 0.0312,-1.96875 c 2.7882,0.2674 4.9688,2.61051 4.9688,5.46875 0,0.50356 -0.092,0.97415 -0.21875,1.4375 1.25166,-0.49376 2.33683,-1.14407 3.1875,-1.90625 -0.23329,-4.29997 -3.64494,-7.7355 -7.9375,-8 l 0.0312,-1.96875 z M 276.3125,309 c 0.8773,0.54528 1.90751,0.9772 3.03125,1.3125 -0.14581,-0.41796 -0.27124,-0.85542 -0.3125,-1.3125 l -2.71875,0 z"
         style="fill:url(#linearGradient4456);fill-opacity:1;stroke:none" />
      <path
         sodipodi:type="arc"
         style="fill:#ffffff;fill-opacity:1;stroke:#56389c;stroke-width:23.99983788;stroke-miterlimit:4;stroke-opacity:1;stroke-dasharray:none"
         id="path4004"
         sodipodi:cx="283"
         sodipodi:cy="305"
         sodipodi:rx="6"
         sodipodi:ry="6"
         d="m 289,305 a 6,6 0 1 1 -12,0 6,6 0 1 1 12,0 z"
         transform="matrix(0.08333387,0,0,0.08333392,372.91652,591.44534)" />
      <path
         transform="matrix(0.08333387,0,0,0.08333392,372.91652,591.44534)"
         d="m 289,305 a 6,6 0 1 1 -12,0 6,6 0 1 1 12,0 z"
         sodipodi:ry="6"
         sodipodi:rx="6"
         sodipodi:cy="305"
         sodipodi:cx="283"
         id="path4002"
         style="fill:#ffffff;fill-opacity:1;stroke:none"
         sodipodi:type="arc" />
    </g>
    <use
       x="0"
       y="0"
       xlink:href="#g4006"
       id="use4044"
       transform="translate(-40,0)"
       width="336"
       height="360"
       mask="url(#mask4058)" />
    <use
       height="360"
       width="336"
       transform="translate(-40,0)"
       id="use4048"
       xlink:href="#g4006"
       y="0"
       x="0"
       clip-path="url(#clipPath4052)" />
    <g
       id="g4210"
       transform="translate(40,0)">
      <path
         style="fill:none;stroke:url(#radialGradient4458);stroke-width:2;stroke-linecap:round;stroke-linejoin:round;stroke-miterlimit:4;stroke-opacity:1;stroke-dasharray:none"
         d="m 392,646.36218 -4.5,3 4.5,3 0,-2 c 1.65685,0 3,1.34315 3,3 0,1.65685 -1.34315,3 -3,3 -1.65685,0 -3,-1.34315 -3,-3 l -2,0 c 0,2.76142 2.23858,5 5,5 2.76142,0 5,-2.23858 5,-5 0,-2.76142 -2.23858,-5 -5,-5 l 0,-2 z"
         id="path4187" />
      <path
         sodipodi:nodetypes="csscccc"
         id="path4202"
         d="m 387,653.36218 c 0,2.76142 2.23858,5 5,5 2.76142,0 5,-2.23858 5,-5 0,-2.76142 -2.23858,-5 -5,-5 l 0,-2 -4.5,3 4.5,3"
         style="opacity:0.5;fill:none;stroke:url(#linearGradient4460);stroke-width:2;stroke-linecap:round;stroke-linejoin:round;stroke-miterlimit:4;stroke-opacity:1;stroke-dasharray:none" />
      <path
         id="path4124"
         d="m 392,646.36218 -4.5,3 4.5,3 0,-2 c 1.65685,0 3,1.34315 3,3 0,1.65685 -1.34315,3 -3,3 -1.65685,0 -3,-1.34315 -3,-3 l -2,0 c 0,2.76142 2.23858,5 5,5 2.76142,0 5,-2.23858 5,-5 0,-2.76142 -2.23858,-5 -5,-5 l 0,-2 z"
         style="fill:url(#radialGradient4462);fill-opacity:1;stroke:none" />
      <path
         id="path4191"
         d="m 392,646.36218 -4.5,3 4.5,3 0,-2 c 1.55869,0 2.82242,1.19843 2.96875,2.71875 0.72544,-0.14468 1.36602,-0.35501 1.96875,-0.59375 -0.41708,-2.34018 -2.47745,-4.125 -4.9375,-4.125 l 0,-2 z"
         style="fill:url(#linearGradient4464);fill-opacity:1;stroke:none" />
    </g>
    <use
       x="0"
       y="0"
       xlink:href="#g4210"
       id="use4224"
       transform="translate(-40,0)"
       width="336"
       height="360"
       mask="url(#mask4238)" />
    <use
       height="360"
       width="336"
       transform="translate(-40,0)"
       id="use4228"
       xlink:href="#g4210"
       y="0"
       x="0"
       clip-path="url(#clipPath4232)" />
    <g
       transform="matrix(1.2693887,0,0,1.2693887,-39.755505,-210.05324)"
       id="g4273">
      <path
         id="path4331"
         transform="matrix(0.78778076,0,0,0.78778076,166.81691,408.3977)"
         d="m 297,185.0625 -13,8.4375 13,8.5 0,-3.9375 c 5.60574,0.50598 10,5.20001 10,10.9375 0,6.07513 -4.92486,11 -11,11 -6.07514,0 -11,-4.92487 -11,-11 l -9,0 c 0,11.04569 8.95431,20 20,20 11.04569,0 20,-8.95431 20,-20 0,-10.71096 -8.41806,-19.44861 -19,-19.96875 l 0,-3.96875 z"
         style="fill:none;stroke:url(#radialGradient4466);stroke-width:2;stroke-linecap:round;stroke-linejoin:round;stroke-miterlimit:4;stroke-opacity:1;stroke-dasharray:none" />
      <path
         style="opacity:0.6;fill:none;stroke:url(#linearGradient4468);stroke-width:2;stroke-linecap:round;stroke-linejoin:round;stroke-miterlimit:4;stroke-opacity:1;stroke-dasharray:none"
         d="m 297,185.0625 -13,8.4375 13,8.5 0,-3.9375 c 5.60574,0.50598 10,5.20001 10,10.9375 0,6.07513 -4.92486,11 -11,11 -6.07514,0 -11,-4.92487 -11,-11 l -9,0 c 0,11.04569 8.95431,20 20,20 11.04569,0 20,-8.95431 20,-20 0,-10.71096 -8.41806,-19.44861 -19,-19.96875 l 0,-3.96875 z"
         transform="matrix(0.78778076,0,0,0.78778076,166.81691,408.3977)"
         id="path4346" />
      <path
         style="fill:url(#radialGradient4470);fill-opacity:1;stroke-width:1px"
         d="m 297,185.0625 -13,8.4375 13,8.5 0,-3.9375 c 5.60574,0.50598 10,5.20001 10,10.9375 0,6.07513 -4.92486,11 -11,11 -6.07514,0 -11,-4.92487 -11,-11 l -9,0 c 0,11.04569 8.95431,20 20,20 11.04569,0 20,-8.95431 20,-20 0,-10.71096 -8.41806,-19.44861 -19,-19.96875 l 0,-3.96875 z"
         transform="matrix(0.78778076,0,0,0.78778076,166.81691,408.3977)"
         id="path4320" />
      <path
         style="fill:url(#linearGradient4472);fill-opacity:1;stroke-width:1px"
         d="m 297,185.0625 -13,8.4375 13,8.5 0,-3.9375 c 5.60574,0.50598 10,5.20001 10,10.9375 0,1.37445 -0.2583,2.69327 -0.71875,3.90625 3.86961,-1.0841 7.2151,-2.77397 9.6875,-4.875 -0.49577,-10.25852 -8.71201,-18.49584 -18.96875,-19 l 0,-3.96875 z M 277.75,209 c 2.1836,1.57249 4.88448,2.84081 7.9375,3.75 C 285.26212,211.57842 285,210.31853 285,209 l -7.25,0 z"
         transform="matrix(0.78778076,0,0,0.78778076,166.81691,408.3977)"
         id="path4335" />
      <path
         transform="matrix(1.5756252,0,0,1.0504193,-66.38511,352.98102)"
         d="m 297,209.5 a 1,1.5 0 1 1 -2,0 1,1.5 0 1 1 2,0 z"
         sodipodi:ry="1.5"
         sodipodi:rx="1"
         sodipodi:cy="209.5"
         sodipodi:cx="296"
         id="path4360"
         style="fill:#d2c7e3;fill-opacity:1;stroke:#56389c;stroke-width:1.22469389;stroke-miterlimit:4;stroke-opacity:1;stroke-dasharray:none"
         sodipodi:type="arc" />
      <path
         sodipodi:type="arc"
         style="fill:#eae5f2;fill-opacity:1;stroke:none"
         id="path4358"
         sodipodi:cx="296"
         sodipodi:cy="209.5"
         sodipodi:rx="1"
         sodipodi:ry="1.5"
         d="m 297,209.5 a 1,1.5 0 1 1 -2,0 1,1.5 0 1 1 2,0 z"
         transform="matrix(1.5756252,0,0,1.0504193,-66.38511,352.98102)" />
    </g>
    <use
       x="0"
       y="0"
       xlink:href="#g4273"
       id="use4362"
       transform="translate(-60,0)"
       width="336"
       height="360"
       mask="url(#mask4376)" />
    <use
       height="360"
       width="336"
       transform="translate(-60,0)"
       id="use4366"
       xlink:href="#g4273"
       y="0"
       x="0"
       clip-path="url(#clipPath4370)" />
    <use
       clip-path="url(#clipPath3797)"
       height="360"
       width="336"
       transform="matrix(-1,0,0,1,796,0)"
       id="use4424"
       xlink:href="#g3678"
       y="0"
       x="0" />
    <use
       mask="url(#mask3818)"
       clip-path="none"
       x="0"
       y="0"
       xlink:href="#g3678"
       id="use4426"
       transform="matrix(-1,0,0,1,796,0)"
       width="336"
       height="360" />
    <use
       mask="url(#mask4058)"
       height="360"
       width="336"
       transform="matrix(-1,0,0,1,796,0)"
       id="use4428"
       xlink:href="#g4006"
       y="0"
       x="0" />
    <use
       clip-path="url(#clipPath4052)"
       x="0"
       y="0"
       xlink:href="#g4006"
       id="use4430"
       transform="matrix(-1,0,0,1,796,0)"
       width="336"
       height="360" />
    <use
       mask="url(#mask4238)"
       height="360"
       width="336"
       transform="matrix(-1,0,0,1,796,0)"
       id="use4432"
       xlink:href="#g4210"
       y="0"
       x="0" />
    <use
       clip-path="url(#clipPath4232)"
       x="0"
       y="0"
       xlink:href="#g4210"
       id="use4434"
       transform="matrix(-1,0,0,1,796,0)"
       width="336"
       height="360" />
    <use
       mask="url(#mask4376)"
       height="360"
       width="336"
       transform="matrix(-1,0,0,1,816,0)"
       id="use4436"
       xlink:href="#g4273"
       y="0"
       x="0" />
    <use
       clip-path="url(#clipPath4370)"
       x="0"
       y="0"
       xlink:href="#g4273"
       id="use4438"
       transform="matrix(-1,0,0,1,816,0)"
       width="336"
       height="360" />
  </g>
</svg>
