<?xml version="1.0" encoding="UTF-8" standalone="no"?>
<!-- Created with Inkscape (http://www.inkscape.org/) -->
<svg
   xmlns:dc="http://purl.org/dc/elements/1.1/"
   xmlns:cc="http://web.resource.org/cc/"
   xmlns:rdf="http://www.w3.org/1999/02/22-rdf-syntax-ns#"
   xmlns:svg="http://www.w3.org/2000/svg"
   xmlns="http://www.w3.org/2000/svg"
   xmlns:xlink="http://www.w3.org/1999/xlink"
   xmlns:sodipodi="http://inkscape.sourceforge.net/DTD/sodipodi-0.dtd"
   xmlns:inkscape="http://www.inkscape.org/namespaces/inkscape"
   sodipodi:docname="emblem-camera.svg"
   sodipodi:docbase="/home/francois/Images/Rodent/Rodent/scalable/emblems"
   height="48.000000pt"
   width="48.000000pt"
   inkscape:version="0.41"
   sodipodi:version="0.32"
   id="svg1">
  <metadata
     id="metadata67">
    <rdf:RDF
       id="RDF69">
      <cc:Work
         id="Work71"
         rdf:about="">
        <dc:format
           id="format73">image/svg+xml</dc:format>
        <dc:type
           rdf:resource="http://purl.org/dc/dcmitype/StillImage"
           id="type75" />
      </cc:Work>
    </rdf:RDF>
  </metadata>
  <defs
     id="defs3">
    <linearGradient
       id="linearGradient882">
      <stop
         id="stop883"
         offset="0.0000000"
         style="stop-color:#eed680;stop-opacity:1.0000000;" />
      <stop
         id="stop885"
         offset="1.0000000"
         style="stop-color:#d1940c;stop-opacity:1.0000000;" />
    </linearGradient>
    <linearGradient
       id="linearGradient838">
      <stop
         id="stop839"
         offset="0.0000000"
         style="stop-color:#ffd000;stop-opacity:1.0000000;" />
      <stop
         id="stop840"
         offset="1.0000000"
         style="stop-color:#5c5d5c;stop-opacity:1.0000000;" />
    </linearGradient>
    <linearGradient
       id="linearGradient826">
      <stop
         id="stop827"
         offset="0.0000000"
         style="stop-color:#aeadae;stop-opacity:1.0000000;" />
      <stop
         id="stop828"
         offset="1"
         style="stop-color:#fff;stop-opacity:1;" />
    </linearGradient>
    <linearGradient
       gradientUnits="userSpaceOnUse"
       gradientTransform="matrix(0.973904,0.000000,0.000000,0.668404,5.807340,5.617622)"
       y2="20.415950"
       x2="18.427789"
       y1="47.998848"
       x1="18.427789"
       id="linearGradient829"
       xlink:href="#linearGradient826" />
    <linearGradient
       gradientUnits="userSpaceOnUse"
       gradientTransform="matrix(0.868406,0.000000,0.000000,0.749605,5.807340,5.617622)"
       spreadMethod="reflect"
       y2="31.257154"
       x2="29.372372"
       y1="34.377038"
       x1="27.901079"
       id="linearGradient839"
       xlink:href="#linearGradient833" />
    <linearGradient
       id="linearGradient833">
      <stop
         id="stop834"
         offset="0.0000000"
         style="stop-color:#a8a9a8;stop-opacity:1.0000000;" />
      <stop
         id="stop835"
         offset="1"
         style="stop-color:#fff;stop-opacity:1;" />
    </linearGradient>
    <linearGradient
       gradientUnits="userSpaceOnUse"
       gradientTransform="matrix(1.391412,0.000000,0.000000,0.467842,5.807340,5.617622)"
       y2="32.235306"
       x2="9.4008881"
       y1="33.876335"
       x1="9.4514750"
       id="linearGradient832"
       xlink:href="#linearGradient833" />
    <linearGradient
       id="linearGradient853">
      <stop
         id="stop856"
         offset="0.0000000"
         style="stop-color:#c5d2c8;stop-opacity:1.0000000;" />
      <stop
         id="stop858"
         offset="0.46781021"
         style="stop-color:#a4bca3;stop-opacity:1.0000000;" />
      <stop
         id="stop857"
         offset="1.0000000"
         style="stop-color:#83a67f;stop-opacity:1.0000000;" />
    </linearGradient>
    <linearGradient
       id="linearGradient851">
      <stop
         id="stop852"
         offset="0.0000000"
         style="stop-color:#ff0000;stop-opacity:1.0000000;" />
      <stop
         id="stop855"
         offset="1.0000000"
         style="stop-color:#c70000;stop-opacity:1.0000000;" />
    </linearGradient>
    <linearGradient
       id="linearGradient566">
      <stop
         id="stop567"
         offset="0.0000000"
         style="stop-color:#ffff00;stop-opacity:1.0000000;" />
      <stop
         id="stop854"
         offset="0.43829629"
         style="stop-color:#ffd800;stop-opacity:1.0000000;" />
      <stop
         id="stop568"
         offset="1.0000000"
         style="stop-color:#ffb200;stop-opacity:1.0000000;" />
    </linearGradient>
    <linearGradient
       id="linearGradient860">
      <stop
         id="stop861"
         offset="0.0000000"
         style="stop-color:#ffffff;stop-opacity:1.0000000;" />
      <stop
         id="stop862"
         offset="0.25000000"
         style="stop-color:#ffea7d;stop-opacity:1.0000000;" />
      <stop
         id="stop863"
         offset="1"
         style="stop-color:#ffbf00;stop-opacity:1.0000;" />
    </linearGradient>
    <linearGradient
       y2="0.19934641"
       x2="0.49508196"
       y1="0.95098037"
       x1="0.49508196"
       id="linearGradient569"
       xlink:href="#linearGradient882" />
    <linearGradient
       spreadMethod="reflect"
       y2="0.57812500"
       x2="0.44374999"
       y1="0.046875000"
       x1="0.44374999"
       id="linearGradient589"
       xlink:href="#linearGradient566" />
    <linearGradient
       id="linearGradient849">
      <stop
         id="stop850"
         offset="0.0000000"
         style="stop-color:#ffc900;stop-opacity:1.0000000;" />
      <stop
         id="stop851"
         offset="1.0000000"
         style="stop-color:#5d5d5c;stop-opacity:1.0000000;" />
    </linearGradient>
    <linearGradient
       id="linearGradient843">
      <stop
         id="stop844"
         offset="0.0000000"
         style="stop-color:#ffffff;stop-opacity:1.0000000;" />
      <stop
         id="stop845"
         offset="1.0000000"
         style="stop-color:#5c5d5c;stop-opacity:1.0000000;" />
    </linearGradient>
    <linearGradient
       y2="0.049549550"
       x2="0.47999999"
       y1="0.35135135"
       x1="0.35333332"
       id="linearGradient841"
       xlink:href="#linearGradient838" />
    <linearGradient
       y2="0.72522521"
       x2="0.43801653"
       y1="0.15765765"
       x1="0.80165291"
       id="linearGradient842"
       xlink:href="#linearGradient843" />
    <linearGradient
       y2="0.24324325"
       x2="0.33208954"
       y1="0.50450450"
       x1="0.53358209"
       id="linearGradient847"
       xlink:href="#linearGradient849" />
    <radialGradient
       gradientUnits="userSpaceOnUse"
       fy="54.185291"
       fx="52.352043"
       r="80.597210"
       cy="54.185296"
       cx="52.832262"
       id="radialGradient853"
       xlink:href="#linearGradient882" />
    <radialGradient
       gradientUnits="userSpaceOnUse"
       gradientTransform="matrix(0.700755,0.000000,0.000000,0.928943,5.807340,5.617622)"
       spreadMethod="reflect"
       fy="14.972474"
       fx="8.3781923"
       r="11.435520"
       cy="16.944115"
       cx="10.552816"
       id="radialGradient881"
       xlink:href="#linearGradient882" />
    <radialGradient
       gradientUnits="userSpaceOnUse"
       gradientTransform="matrix(0.704836,0.000000,0.000000,0.923563,5.807340,5.617622)"
       r="11.930183"
       fy="14.821410"
       fx="8.0225643"
       cy="16.878338"
       cx="10.291255"
       spreadMethod="reflect"
       id="radialGradient1356"
       xlink:href="#linearGradient882"
       inkscape:collect="always" />
    <radialGradient
       gradientUnits="userSpaceOnUse"
       r="80.597210"
       fy="54.185291"
       fx="52.352043"
       cy="54.185296"
       cx="52.832262"
       id="radialGradient1358"
       xlink:href="#linearGradient882"
       inkscape:collect="always" />
  </defs>
  <sodipodi:namedview
     inkscape:current-layer="svg1"
     inkscape:window-y="34"
     inkscape:window-x="0"
     gridspacingy="1.0000000mm"
     gridspacingx="1.0000000mm"
     snaptogrid="false"
     showgrid="true"
     inkscape:window-height="653"
     inkscape:window-width="893"
     inkscape:cy="30.000000"
     inkscape:cx="30.000000"
     inkscape:zoom="7.8666667"
     inkscape:pageshadow="2"
     inkscape:pageopacity="0.0"
     borderopacity="1.0"
     bordercolor="#666666"
     pagecolor="#ffffff"
     id="base" />
  <path
     sodipodi:nodetypes="ccccccccccc"
     id="path887"
     d="M 12.898322,34.534875 C 14.378052,35.076549 23.540870,37.112730 23.540870,33.040366 C 23.540870,28.968004 12.341871,29.986094 12.341871,29.986094 C 12.341871,29.986094 22.522778,29.986094 22.522778,26.931823 C 22.522778,21.841368 12.341871,25.913732 12.341871,25.913732 C 14.378052,24.895641 13.839312,18.108336 15.875494,19.126426 C 16.893586,20.144516 17.911676,20.144516 19.468506,19.805187 C 21.504688,18.787096 19.947857,16.072153 18.450416,15.732825 C 16.893586,15.054062 6.7126791,14.035973 9.7669508,25.234970 C 7.7307701,27.271153 8.7488608,29.307334 9.7669508,30.325424 C 9.7669508,33.379697 12.111051,34.296667 12.898322,34.534875 z "
     style="fill:url(#radialGradient1356);fill-rule:evenodd;stroke:#000000;stroke-width:1.8681474;stroke-opacity:0.49999997" />
  <path
     transform="matrix(0.229918,0.000000,0.000000,0.229918,16.44542,11.19328)"
     d="M 152.36221 80.275589 A 72.637794 72.637794 0 1 1  7.0866165,80.275589 A 72.637794 72.637794 0 1 1  152.36221 80.275589 z"
     sodipodi:ry="72.637794"
     sodipodi:rx="72.637794"
     sodipodi:cy="80.275589"
     sodipodi:cx="79.724411"
     id="path886"
     style="fill:url(#radialGradient1358);fill-opacity:1.0000000;fill-rule:evenodd;stroke:#000000;stroke-width:8.3938246;stroke-opacity:0.49999997"
     sodipodi:type="arc" />
  <path
     transform="matrix(0.218435,0.000000,0.000000,0.218435,17.30612,12.11176)"
     d="M 152.36221 80.275589 A 72.637794 72.637794 0 1 1  7.0866165,80.275589 A 72.637794 72.637794 0 1 1  152.36221 80.275589 z"
     sodipodi:ry="72.637794"
     sodipodi:rx="72.637794"
     sodipodi:cy="80.275589"
     sodipodi:cx="79.724411"
     id="path852"
     style="fill:url(#radialGradient853);fill-opacity:1.0000000;fill-rule:evenodd;stroke:#000000;stroke-width:8.3938246"
     sodipodi:type="arc" />
  <path
     sodipodi:nodetypes="ccccc"
     id="path860"
     d="M 24.225153,35.304411 C 24.225153,35.304411 29.882859,36.247359 34.597612,36.247359 C 39.312366,36.247359 44.970070,35.304411 44.970070,35.304411 C 44.970070,35.304411 40.255319,40.019164 34.597612,40.019164 C 28.939908,40.019164 24.225153,35.304411 24.225153,35.304411 z "
     style="fill:#ffffff;fill-rule:evenodd;stroke:#000000;stroke-width:0.66530424;stroke-linejoin:round" />
  <path
     transform="matrix(0.266121,0.000000,0.000000,0.257324,10.19898,9.318336)"
     d="M 81.496066 64.330711 A 14.173228 17.716536 0 1 1  53.149610,64.330711 A 14.173228 17.716536 0 1 1  81.496066 64.330711 z"
     sodipodi:ry="17.716536"
     sodipodi:rx="14.173228"
     sodipodi:cy="64.330711"
     sodipodi:cx="67.322838"
     id="path861"
     style="fill-rule:evenodd;stroke:#000000;stroke-width:1.0000000pt"
     sodipodi:type="arc" />
  <path
     sodipodi:nodetypes="ccccc"
     id="path881"
     d="M 45.400127,28.289243 C 43.363946,28.289243 43.409799,28.289243 41.327764,28.289243 C 39.245729,28.289243 40.309673,28.289243 38.273492,28.289243 C 38.273492,25.981104 38.441531,21.193013 41.327764,21.162608 C 44.550076,21.193013 45.400127,25.981104 45.400127,28.289243 z "
     style="fill:#d1940c;fill-rule:evenodd;stroke:#000000;stroke-width:0.71831959;stroke-linejoin:round" />
  <rect
     rx="3.2216542"
     y="21.494535"
     x="13.748293"
     ry="3.2216542"
     height="15.695773"
     width="22.735222"
     id="rect843"
     style="fill:#666666;fill-opacity:0.49668875;fill-rule:evenodd;stroke:none;stroke-width:5.1183872;stroke-opacity:1.0000000" />
  <rect
     rx="3.0319760"
     y="21.486147"
     x="13.738737"
     ry="3.0319760"
     height="14.771669"
     width="21.869442"
     id="rect825"
     style="fill:url(#linearGradient829);fill-rule:evenodd;stroke:#000000;stroke-width:0.75754923" />
  <path
     id="path830"
     d="M 21.765959,36.101015 C 21.765959,36.101015 21.702754,25.563259 19.711749,21.548876"
     style="fill:none;fill-opacity:0.75000000;fill-rule:evenodd;stroke:#000000;stroke-width:0.15150985pt" />
  <path
     sodipodi:nodetypes="ccc"
     id="path831"
     d="M 19.048082,23.618791 C 19.522130,23.524705 20.501829,28.856305 20.754657,34.846519 C 16.108980,33.717470 18.416016,24.653751 19.048082,23.618791 z "
     style="fill:#666666;fill-rule:evenodd;stroke:#000000;stroke-width:0.15150985pt" />
  <path
     transform="matrix(0.152091,0.000000,0.000000,0.150932,12.63262,18.13036)"
     d="M 152.93507 71.480522 A 30.441559 31.168831 0 1 1  92.051949,71.480522 A 30.441559 31.168831 0 1 1  152.93507 71.480522 z"
     sodipodi:ry="31.168831"
     sodipodi:rx="30.441559"
     sodipodi:cy="71.480522"
     sodipodi:cx="122.49351"
     id="path836"
     style="fill:#dedede;fill-opacity:1.0000000;fill-rule:evenodd;stroke:#000000;stroke-width:3.6642206"
     sodipodi:type="arc" />
  <path
     transform="matrix(0.115200,0.000000,0.000000,0.116097,17.15143,20.65181)"
     d="M 152.93507 71.480522 A 30.441559 31.168831 0 1 1  92.051949,71.480522 A 30.441559 31.168831 0 1 1  152.93507 71.480522 z"
     sodipodi:ry="31.168831"
     sodipodi:rx="30.441559"
     sodipodi:cy="71.480522"
     sodipodi:cx="122.49351"
     id="path837"
     style="fill:#aeacae;fill-opacity:1.0000000;fill-rule:evenodd;stroke:#000000;stroke-width:2.5000000"
     sodipodi:type="arc" />
  <path
     sodipodi:nodetypes="ccccc"
     id="path838"
     d="M 29.413945,25.908244 L 33.111525,31.992543 C 33.143127,32.023904 35.418561,30.832135 34.628477,27.789986 C 34.565273,27.601811 28.086607,30.612597 27.991799,30.298974 C 26.980495,27.288188 29.413945,25.908244 29.413945,25.908244 z "
     style="fill:url(#linearGradient839);fill-opacity:1.0000000;fill-rule:evenodd;stroke:none;stroke-width:1.0000000pt;stroke-linecap:butt;stroke-linejoin:miter;stroke-opacity:1.0000000" />
  <path
     transform="matrix(0.115200,0.000000,0.000000,0.116097,17.15143,20.65181)"
     d="M 152.93507 71.480522 A 30.441559 31.168831 0 1 1  92.051949,71.480522 A 30.441559 31.168831 0 1 1  152.93507 71.480522 z"
     sodipodi:ry="31.168831"
     sodipodi:rx="30.441559"
     sodipodi:cy="71.480522"
     sodipodi:cx="122.49351"
     id="path840"
     style="fill:#ffffff;fill-opacity:0.0000000;fill-rule:evenodd;stroke:#000000;stroke-width:2.5000000;stroke-opacity:1.0000000"
     sodipodi:type="arc" />
  <rect
     rx="1.3617320"
     y="22.614201"
     x="21.628452"
     ry="1.3617320"
     height="2.1973498"
     width="5.1103015"
     id="rect841"
     style="fill:#ffffff;fill-rule:evenodd;stroke:#000000;stroke-width:0.19207897pt" />
  <path
     transform="matrix(0.152091,0.000000,0.000000,0.150932,18.76365,23.58741)"
     d="M 73.142857 5.6103897 A 6.7532468 6.8571429 0 1 1  59.636364,5.6103897 A 6.7532468 6.8571429 0 1 1  73.142857 5.6103897 z"
     sodipodi:ry="6.8571429"
     sodipodi:rx="6.7532468"
     sodipodi:cy="5.6103897"
     sodipodi:cx="66.389610"
     id="path842"
     style="fill-rule:evenodd;stroke:#000000;stroke-width:1.0000000pt"
     sodipodi:type="arc" />
  <rect
     rx="0.18311110"
     y="20.402246"
     x="17.266302"
     ry="0.18311110"
     height="0.89211041"
     width="3.3838670"
     id="rect844"
     style="fill:url(#linearGradient832);fill-rule:evenodd;stroke:#000000;stroke-width:0.37011042" />
  <path
     sodipodi:nodetypes="ccccccccccc"
     id="path931"
     d="M 12.898322,34.534875 C 14.378052,35.076549 23.540870,37.112730 23.540870,33.040366 C 23.540870,28.968004 12.341871,29.986094 12.341871,29.986094 C 12.341871,29.986094 22.522778,29.986094 22.522778,26.931823 C 22.522778,21.841368 12.341871,25.913732 12.341871,25.913732 C 14.378052,24.895641 13.839312,18.108336 15.875494,19.126426 C 16.893586,20.144516 17.911676,20.144516 19.468506,19.805187 C 21.504688,18.787096 19.947857,16.072153 18.450416,15.732825 C 16.893586,15.054062 6.7126791,14.035973 9.7669508,25.234970 C 7.7307701,27.271153 8.7488608,29.307334 9.7669508,30.325424 C 9.7669508,33.379697 12.111051,34.296667 12.898322,34.534875 z "
     style="fill:url(#radialGradient881);fill-rule:evenodd;stroke:#000000;stroke-width:1.0774794" />
  <path
     transform="matrix(0.289162,0.000000,0.000000,0.286957,12.11261,27.45294)"
     d="M 73.142857 5.6103897 A 6.7532468 6.8571429 0 1 1  59.636364,5.6103897 A 6.7532468 6.8571429 0 1 1  73.142857 5.6103897 z"
     sodipodi:ry="6.8571429"
     sodipodi:rx="6.7532468"
     sodipodi:cy="5.6103897"
     sodipodi:cx="66.389610"
     id="path880"
     style="fill-rule:evenodd;stroke:#000000;stroke-width:1.0000000pt"
     sodipodi:type="arc" />
</svg>
