<?xml version="1.0" encoding="UTF-8" standalone="no"?>
<!-- Created with Inkscape (http://www.inkscape.org/) -->
<svg
   xmlns:dc="http://purl.org/dc/elements/1.1/"
   xmlns:cc="http://web.resource.org/cc/"
   xmlns:rdf="http://www.w3.org/1999/02/22-rdf-syntax-ns#"
   xmlns:svg="http://www.w3.org/2000/svg"
   xmlns="http://www.w3.org/2000/svg"
   xmlns:xlink="http://www.w3.org/1999/xlink"
   xmlns:sodipodi="http://inkscape.sourceforge.net/DTD/sodipodi-0.dtd"
   xmlns:inkscape="http://www.inkscape.org/namespaces/inkscape"
   sodipodi:docname="emblem-multimedia.svg"
   sodipodi:docbase="/home/francois/Images/Rodent/Rodent/scalable/emblems"
   height="48.000000pt"
   width="48.000000pt"
   inkscape:version="0.41"
   sodipodi:version="0.32"
   id="svg1">
  <metadata
     id="metadata72">
    <rdf:RDF
       id="RDF74">
      <cc:Work
         id="Work76"
         rdf:about="">
        <dc:format
           id="format78">image/svg+xml</dc:format>
        <dc:type
           rdf:resource="http://purl.org/dc/dcmitype/StillImage"
           id="type80" />
      </cc:Work>
    </rdf:RDF>
  </metadata>
  <defs
     id="defs3">
    <linearGradient
       id="linearGradient885">
      <stop
         id="stop886"
         offset="0.0000000"
         style="stop-color:#eed680;stop-opacity:1.0000000;" />
      <stop
         id="stop889"
         offset="0.50000000"
         style="stop-color:#dfb546;stop-opacity:1.0000000;" />
      <stop
         id="stop888"
         offset="1.0000000"
         style="stop-color:#d1940c;stop-opacity:1.0000000;" />
    </linearGradient>
    <linearGradient
       id="linearGradient826">
      <stop
         id="stop827"
         offset="0.0000000"
         style="stop-color:#aeadae;stop-opacity:1.0000000;" />
      <stop
         id="stop828"
         offset="1"
         style="stop-color:#fff;stop-opacity:1;" />
    </linearGradient>
    <linearGradient
       y2="-0.11872146"
       x2="0.45937499"
       y1="1.0684931"
       x1="0.45937499"
       id="linearGradient829"
       xlink:href="#linearGradient826" />
    <linearGradient
       spreadMethod="reflect"
       y2="0.51601422"
       x2="0.50625002"
       y1="0.90035588"
       x1="0.32499999"
       id="linearGradient839"
       xlink:href="#linearGradient833" />
    <linearGradient
       id="linearGradient833">
      <stop
         id="stop834"
         offset="0.0000000"
         style="stop-color:#a8a9a8;stop-opacity:1.0000000;" />
      <stop
         id="stop835"
         offset="1"
         style="stop-color:#fff;stop-opacity:1;" />
    </linearGradient>
    <linearGradient
       y2="0.38144329"
       x2="0.48124999"
       y1="0.98969072"
       x1="0.50000000"
       id="linearGradient832"
       xlink:href="#linearGradient833" />
    <linearGradient
       id="linearGradient853">
      <stop
         id="stop856"
         offset="0.0000000"
         style="stop-color:#c5d2c8;stop-opacity:1.0000000;" />
      <stop
         id="stop858"
         offset="0.46781021"
         style="stop-color:#a4bca3;stop-opacity:1.0000000;" />
      <stop
         id="stop857"
         offset="1.0000000"
         style="stop-color:#83a67f;stop-opacity:1.0000000;" />
    </linearGradient>
    <linearGradient
       id="linearGradient851">
      <stop
         id="stop852"
         offset="0.0000000"
         style="stop-color:#ff0000;stop-opacity:1.0000000;" />
      <stop
         id="stop855"
         offset="1.0000000"
         style="stop-color:#c70000;stop-opacity:1.0000000;" />
    </linearGradient>
    <linearGradient
       id="linearGradient566">
      <stop
         id="stop567"
         offset="0.0000000"
         style="stop-color:#ffff00;stop-opacity:1.0000000;" />
      <stop
         id="stop854"
         offset="0.43829629"
         style="stop-color:#ffd800;stop-opacity:1.0000000;" />
      <stop
         id="stop568"
         offset="1.0000000"
         style="stop-color:#ffb200;stop-opacity:1.0000000;" />
    </linearGradient>
    <linearGradient
       id="linearGradient860">
      <stop
         id="stop861"
         offset="0.0000000"
         style="stop-color:#ffffff;stop-opacity:1.0000000;" />
      <stop
         id="stop862"
         offset="0.25000000"
         style="stop-color:#ffea7d;stop-opacity:1.0000000;" />
      <stop
         id="stop863"
         offset="1"
         style="stop-color:#ffbf00;stop-opacity:1.0000;" />
    </linearGradient>
    <linearGradient
       spreadMethod="reflect"
       y2="0.48387095"
       x2="0.96249998"
       y1="0.48387095"
       x1="0.48750001"
       id="linearGradient569"
       xlink:href="#linearGradient566" />
    <linearGradient
       spreadMethod="reflect"
       y2="0.57812500"
       x2="0.44374999"
       y1="0.046875000"
       x1="0.44374999"
       id="linearGradient589"
       xlink:href="#linearGradient566" />
    <linearGradient
       id="linearGradient849">
      <stop
         id="stop850"
         offset="0.0000000"
         style="stop-color:#ffc900;stop-opacity:1.0000000;" />
      <stop
         id="stop851"
         offset="1.0000000"
         style="stop-color:#5d5d5c;stop-opacity:1.0000000;" />
    </linearGradient>
    <linearGradient
       id="linearGradient843">
      <stop
         id="stop844"
         offset="0.0000000"
         style="stop-color:#ffffff;stop-opacity:1.0000000;" />
      <stop
         id="stop845"
         offset="1.0000000"
         style="stop-color:#5c5d5c;stop-opacity:1.0000000;" />
    </linearGradient>
    <linearGradient
       id="linearGradient838">
      <stop
         id="stop839"
         offset="0.0000000"
         style="stop-color:#ffd000;stop-opacity:1.0000000;" />
      <stop
         id="stop840"
         offset="1.0000000"
         style="stop-color:#5c5d5c;stop-opacity:1.0000000;" />
    </linearGradient>
    <linearGradient
       y2="0.049549550"
       x2="0.47999999"
       y1="0.35135135"
       x1="0.35333332"
       id="linearGradient841"
       xlink:href="#linearGradient838" />
    <linearGradient
       y2="0.72522521"
       x2="0.43801653"
       y1="0.15765765"
       x1="0.80165291"
       id="linearGradient842"
       xlink:href="#linearGradient843" />
    <linearGradient
       y2="0.24324325"
       x2="0.33208954"
       y1="0.50450450"
       x1="0.53358209"
       id="linearGradient847"
       xlink:href="#linearGradient849" />
    <radialGradient
       gradientUnits="userSpaceOnUse"
       fy="53.813868"
       fx="51.962368"
       r="81.744597"
       cy="53.813873"
       cx="52.449423"
       id="radialGradient853"
       xlink:href="#linearGradient885" />
    <radialGradient
       gradientUnits="userSpaceOnUse"
       r="87.294415"
       fy="52.017324"
       fx="50.077543"
       cy="52.017329"
       cx="50.597665"
       id="radialGradient1361"
       xlink:href="#linearGradient885"
       inkscape:collect="always" />
  </defs>
  <sodipodi:namedview
     inkscape:current-layer="svg1"
     inkscape:window-y="34"
     inkscape:window-x="0"
     gridspacingy="1.0000000mm"
     gridspacingx="1.0000000mm"
     snaptogrid="false"
     showgrid="true"
     inkscape:window-height="716"
     inkscape:window-width="752"
     inkscape:cy="29.599078"
     inkscape:cx="30.000000"
     inkscape:zoom="8.9166667"
     inkscape:pageshadow="2"
     inkscape:pageopacity="0.0"
     borderopacity="1.0"
     bordercolor="#666666"
     pagecolor="#ffffff"
     id="base" />
  <path
     sodipodi:nodetypes="ccccccccc"
     id="path892"
     d="M 39.586085,32.792489 C 39.586085,32.792489 28.854019,38.711574 32.972582,42.400792 C 37.091145,46.090001 40.164105,37.768676 40.164105,37.768676 C 40.164105,37.768676 36.614616,52.599570 40.920089,52.683772 C 45.225564,52.767973 42.881745,41.663314 42.881745,41.663314 C 42.881745,41.663314 44.525105,52.870687 47.924696,51.656671 C 51.324292,50.442665 46.281338,40.449301 46.281338,40.449301 C 46.281338,40.449301 49.512532,47.846239 53.612585,46.529522 C 57.712639,45.212804 46.636652,28.233338 39.586085,32.792489 z "
     style="fill:#d1940c;fill-rule:evenodd;stroke:#000000;stroke-width:2.2851915;stroke-opacity:0.49999997" />
  <path
     sodipodi:nodetypes="ccccccccc"
     id="path891"
     d="M 21.219694,32.703647 C 21.219694,32.703647 31.951763,38.622733 27.833197,42.311950 C 23.714634,46.001161 20.641676,37.679836 20.641676,37.679836 C 20.641676,37.679836 24.191163,52.510729 19.885691,52.594932 C 15.580215,52.679134 17.924034,41.574473 17.924034,41.574473 C 17.924034,41.574473 16.280675,52.781845 12.881082,51.567831 C 9.4814905,50.353825 14.524443,40.360458 14.524443,40.360458 C 14.524443,40.360458 11.293248,47.757400 7.1932000,46.440681 C 3.0931457,45.123962 14.169127,28.144495 21.219694,32.703647 z "
     style="fill:#d1940c;fill-rule:evenodd;stroke:#000000;stroke-width:2.2851915;stroke-opacity:0.49999997" />
  <path
     transform="matrix(0.208637,0.000000,0.000000,0.208637,13.76940,4.548653)"
     d="M 152.36221 80.275589 A 72.637794 72.637794 0 1 1  7.0866165,80.275589 A 72.637794 72.637794 0 1 1  152.36221 80.275589 z"
     sodipodi:ry="72.637794"
     sodipodi:rx="72.637794"
     sodipodi:cy="80.275589"
     sodipodi:cx="79.724411"
     id="path890"
     style="fill:url(#radialGradient1361);fill-opacity:1.0000000;fill-rule:evenodd;stroke:#000000;stroke-width:21.162947;stroke-opacity:0.49999997"
     sodipodi:type="arc" />
  <path
     transform="matrix(0.208637,0.000000,0.000000,0.208637,13.76940,4.548653)"
     d="M 152.36221 80.275589 A 72.637794 72.637794 0 1 1  7.0866165,80.275589 A 72.637794 72.637794 0 1 1  152.36221 80.275589 z"
     sodipodi:ry="72.637794"
     sodipodi:rx="72.637794"
     sodipodi:cy="80.275589"
     sodipodi:cx="79.724411"
     id="path870"
     style="fill:url(#radialGradient853);fill-opacity:1.0000000;fill-rule:evenodd;stroke:#000000;stroke-width:10.581473"
     sodipodi:type="arc" />
  <path
     sodipodi:nodetypes="ccccc"
     id="path871"
     d="M 20.378104,26.701028 C 20.378104,26.701028 25.782041,27.601684 30.285322,27.601684 C 34.788604,27.601684 40.192540,26.701028 40.192540,26.701028 C 40.192540,26.701028 35.689261,31.204309 30.285322,31.204309 C 24.881384,31.204309 20.378104,26.701028 20.378104,26.701028 z "
     style="fill:#ffffff;fill-rule:evenodd;stroke:#000000;stroke-width:0.63546300;stroke-linejoin:round" />
  <path
     transform="matrix(0.254185,0.000000,0.000000,0.225432,19.44064,2.656200)"
     d="M 81.496066 64.330711 A 14.173228 17.716536 0 1 1  53.149610,64.330711 A 14.173228 17.716536 0 1 1  81.496066 64.330711 z"
     sodipodi:ry="17.716536"
     sodipodi:rx="14.173228"
     sodipodi:cy="64.330711"
     sodipodi:cx="67.322838"
     id="path872"
     style="fill:#ffffff;fill-opacity:1.0000000;fill-rule:evenodd;stroke:#000000;stroke-width:2.6546550"
     sodipodi:type="arc" />
  <path
     transform="matrix(0.254185,0.000000,0.000000,0.225432,7.130670,2.837239)"
     d="M 81.496066 64.330711 A 14.173228 17.716536 0 1 1  53.149610,64.330711 A 14.173228 17.716536 0 1 1  81.496066 64.330711 z"
     sodipodi:ry="17.716536"
     sodipodi:rx="14.173228"
     sodipodi:cy="64.330711"
     sodipodi:cx="67.322838"
     id="path873"
     style="fill:#ffffff;fill-opacity:1.0000000;fill-rule:evenodd;stroke:#000000;stroke-width:2.6546550"
     sodipodi:type="arc" />
  <path
     transform="matrix(0.508371,0.000000,0.000000,0.508371,13.60337,9.313080)"
     d="M 24.803149 18.267717 A 3.5433071 3.5433071 0 1 1  17.716535,18.267717 A 3.5433071 3.5433071 0 1 1  24.803149 18.267717 z"
     sodipodi:ry="3.5433071"
     sodipodi:rx="3.5433071"
     sodipodi:cy="18.267717"
     sodipodi:cx="21.259842"
     id="path874"
     style="fill-rule:evenodd;stroke:#000000;stroke-width:1.0000000pt"
     sodipodi:type="arc" />
  <path
     transform="matrix(0.508371,0.000000,0.000000,0.508371,25.89482,8.995350)"
     d="M 24.803149 18.267717 A 3.5433071 3.5433071 0 1 1  17.716535,18.267717 A 3.5433071 3.5433071 0 1 1  24.803149 18.267717 z"
     sodipodi:ry="3.5433071"
     sodipodi:rx="3.5433071"
     sodipodi:cy="18.267717"
     sodipodi:cx="21.259842"
     id="path875"
     style="fill-rule:evenodd;stroke:#000000;stroke-width:1.0000000pt"
     sodipodi:type="arc" />
  <rect
     y="39.905266"
     x="5.7921429"
     ry="0.0000000"
     height="15.606817"
     width="49.221497"
     id="rect870"
     style="fill:#ffffff;fill-rule:evenodd;stroke:#000000;stroke-width:1.6940731;stroke-linejoin:round" />
  <path
     sodipodi:nodetypes="cc"
     id="path876"
     d="M 12.571768,40.328739 L 12.571768,55.935555"
     style="fill:none;fill-opacity:0.75000000;fill-rule:evenodd;stroke:#000000;stroke-width:0.84703654" />
  <path
     sodipodi:nodetypes="cc"
     id="path877"
     d="M 18.574391,40.682225 L 18.574391,56.289043"
     style="fill:none;fill-opacity:0.75000000;fill-rule:evenodd;stroke:#000000;stroke-width:0.84703654" />
  <path
     sodipodi:nodetypes="cc"
     id="path878"
     d="M 24.577011,40.682225 L 24.577011,56.289043"
     style="fill:none;fill-opacity:0.75000000;fill-rule:evenodd;stroke:#000000;stroke-width:0.84703654" />
  <path
     sodipodi:nodetypes="cc"
     id="path879"
     d="M 30.579635,40.682225 L 30.579635,56.289043"
     style="fill:none;fill-opacity:0.75000000;fill-rule:evenodd;stroke:#000000;stroke-width:0.84703654" />
  <path
     sodipodi:nodetypes="cc"
     id="path880"
     d="M 36.582254,40.682225 L 36.582254,56.289043"
     style="fill:none;fill-opacity:0.75000000;fill-rule:evenodd;stroke:#000000;stroke-width:0.84703654" />
  <path
     sodipodi:nodetypes="cc"
     id="path881"
     d="M 42.584879,40.682225 L 42.584879,56.289043"
     style="fill:none;fill-opacity:0.75000000;fill-rule:evenodd;stroke:#000000;stroke-width:0.84703654" />
  <path
     sodipodi:nodetypes="cc"
     id="path882"
     d="M 48.587499,40.682225 L 48.587499,56.289043"
     style="fill:none;fill-opacity:0.75000000;fill-rule:evenodd;stroke:#000000;stroke-width:0.84703654" />
  <rect
     y="44.707359"
     x="10.594243"
     height="10.804719"
     width="3.6015728"
     id="rect883"
     style="fill-rule:evenodd;stroke:#000000;stroke-width:0.33881462pt;stroke-linejoin:round" />
  <rect
     y="44.707359"
     x="16.596857"
     height="10.804719"
     width="3.6015728"
     id="rect884"
     style="fill-rule:evenodd;stroke:#000000;stroke-width:0.33881462pt;stroke-linejoin:round" />
  <rect
     y="44.707359"
     x="28.602104"
     height="10.804719"
     width="3.6015728"
     id="rect885"
     style="fill-rule:evenodd;stroke:#000000;stroke-width:0.33881462pt;stroke-linejoin:round" />
  <rect
     y="44.707359"
     x="34.604740"
     height="10.804719"
     width="3.6015728"
     id="rect886"
     style="fill-rule:evenodd;stroke:#000000;stroke-width:0.33881462pt;stroke-linejoin:round" />
  <rect
     y="44.707359"
     x="40.607365"
     height="10.804719"
     width="3.6015728"
     id="rect887"
     style="fill-rule:evenodd;stroke:#000000;stroke-width:0.33881462pt;stroke-linejoin:round" />
  <path
     sodipodi:nodetypes="ccccccccc"
     id="path937"
     d="M 39.586085,32.792489 C 39.586085,32.792489 28.854019,38.711574 32.972582,42.400792 C 37.091145,46.090001 40.164105,37.768676 40.164105,37.768676 C 40.164105,37.768676 36.614616,52.599570 40.920089,52.683772 C 45.225564,52.767973 42.881745,41.663314 42.881745,41.663314 C 42.881745,41.663314 44.525105,52.870687 47.924696,51.656671 C 51.324292,50.442665 46.281338,40.449301 46.281338,40.449301 C 46.281338,40.449301 49.512532,47.846239 53.612585,46.529522 C 57.712639,45.212804 46.636652,28.233338 39.586085,32.792489 z "
     style="fill:#d1940c;fill-rule:evenodd;stroke:#000000;stroke-width:1.0311670" />
  <path
     sodipodi:nodetypes="ccccccccc"
     id="path938"
     d="M 21.219694,32.703647 C 21.219694,32.703647 31.951763,38.622733 27.833197,42.311950 C 23.714634,46.001161 20.641676,37.679836 20.641676,37.679836 C 20.641676,37.679836 24.191163,52.510729 19.885691,52.594932 C 15.580215,52.679134 17.924034,41.574473 17.924034,41.574473 C 17.924034,41.574473 16.280675,52.781845 12.881082,51.567831 C 9.4814905,50.353825 14.524443,40.360458 14.524443,40.360458 C 14.524443,40.360458 11.293248,47.757400 7.1932000,46.440681 C 3.0931457,45.123962 14.169127,28.144495 21.219694,32.703647 z "
     style="fill:#d1940c;fill-rule:evenodd;stroke:#000000;stroke-width:1.0311670" />
</svg>
