<?xml version="1.0" encoding="UTF-8" standalone="no"?>
<!-- Created with Inkscape (http://www.inkscape.org/) -->
<svg
   xmlns:dc="http://purl.org/dc/elements/1.1/"
   xmlns:cc="http://web.resource.org/cc/"
   xmlns:rdf="http://www.w3.org/1999/02/22-rdf-syntax-ns#"
   xmlns:svg="http://www.w3.org/2000/svg"
   xmlns="http://www.w3.org/2000/svg"
   xmlns:sodipodi="http://inkscape.sourceforge.net/DTD/sodipodi-0.dtd"
   xmlns:inkscape="http://www.inkscape.org/namespaces/inkscape"
   sodipodi:docname="stock_amusements.svg"
   sodipodi:docbase="/home/francois/Rodent/scalable/stock"
   height="128.00000pt"
   width="128.00000pt"
   inkscape:version="0.41"
   sodipodi:version="0.32"
   id="svg1">
  <metadata
     id="metadata20">
    <rdf:RDF
       id="RDF22">
      <cc:Work
         id="Work24"
         rdf:about="">
        <dc:format
           id="format26">image/svg+xml</dc:format>
        <dc:type
           rdf:resource="http://purl.org/dc/dcmitype/StillImage"
           id="type28" />
      </cc:Work>
    </rdf:RDF>
  </metadata>
  <defs
     id="defs3" />
  <sodipodi:namedview
     inkscape:current-layer="svg1"
     inkscape:window-y="34"
     inkscape:window-x="81"
     gridspacingy="1.0000000mm"
     gridspacingx="1.0000000mm"
     snaptogrid="true"
     showgrid="true"
     inkscape:window-height="653"
     inkscape:window-width="922"
     inkscape:cy="80.000000"
     inkscape:cx="80.000000"
     inkscape:zoom="2.9500000"
     inkscape:pageshadow="2"
     inkscape:pageopacity="0.0"
     borderopacity="1.0"
     bordercolor="#666666"
     pagecolor="#ffffff"
     id="base" />
  <path
     transform="matrix(0.690795,0.000000,-0.345839,0.426159,67.09977,62.62249)"
     d="M 155.90551 80.275589 A 76.181099 76.181099 0 1 1  3.5433121,80.275589 A 76.181099 76.181099 0 1 1  155.90551 80.275589 z"
     sodipodi:ry="76.181099"
     sodipodi:rx="76.181099"
     sodipodi:cy="80.275589"
     sodipodi:cx="79.724411"
     id="path841"
     style="fill:#000000;fill-opacity:0.30322579;fill-rule:evenodd;stroke:none;stroke-width:3.8848348;stroke-opacity:1.0000000"
     sodipodi:type="arc" />
  <path
     transform="matrix(0.706417,0.000000,0.000000,0.726865,6.470732,14.76502)"
     d="M 155.90551 80.275589 A 76.181099 76.181099 0 1 1  3.5433121,80.275589 A 76.181099 76.181099 0 1 1  155.90551 80.275589 z"
     sodipodi:ry="76.181099"
     sodipodi:rx="76.181099"
     sodipodi:cy="80.275589"
     sodipodi:cx="79.724411"
     id="path825"
     style="fill:#ffffff;fill-opacity:1.0000000;fill-rule:evenodd;stroke:#000000;stroke-width:3.8848348;stroke-opacity:1.0000000"
     sodipodi:type="arc" />
  <path
     sodipodi:nodetypes="ccccccc"
     id="path846"
     d="M 66.102492,20.770958 L 48.581119,20.770958 L 41.071961,36.223990 L 48.581119,51.677024 L 66.102492,51.677024 L 73.611649,36.223990 L 66.102492,20.770958 z "
     style="fill:none;fill-opacity:0.75000000;fill-rule:evenodd;stroke:#000000;stroke-width:0.71656804pt" />
  <path
     sodipodi:nodetypes="ccccccc"
     id="path843"
     d="M 66.102494,82.583086 L 48.581123,82.583086 L 41.071964,98.036118 L 48.581123,113.48915 L 66.102494,113.48915 L 73.611653,98.036118 L 66.102494,82.583086 z "
     style="fill:none;fill-opacity:0.75000000;fill-rule:evenodd;stroke:#000000;stroke-width:0.71656804pt" />
  <path
     sodipodi:nodetypes="ccccccc"
     id="path840"
     d="M 66.102494,51.677022 L 48.581123,51.677022 L 41.071964,67.130054 L 48.581123,82.583086 L 66.102494,82.583086 L 73.611653,67.130054 L 66.102494,51.677022 z "
     style="fill-rule:evenodd;stroke:#000000;stroke-width:0.71656804pt" />
  <path
     sodipodi:nodetypes="ccccccc"
     id="path844"
     d="M 91.133018,67.130054 L 73.611648,67.130054 L 66.102489,82.583087 L 73.611648,98.036118 L 91.133018,98.036118 L 98.642173,82.583087 L 91.133018,67.130054 z "
     style="fill:none;fill-opacity:0.75000000;fill-rule:evenodd;stroke:#000000;stroke-width:0.71656804pt" />
  <path
     sodipodi:nodetypes="ccccccc"
     id="path845"
     d="M 91.133018,36.223990 L 73.611649,36.223990 L 66.102490,51.677023 L 73.611649,67.130056 L 91.133018,67.130056 L 98.642173,51.677023 L 91.133018,36.223990 z "
     style="fill:none;fill-opacity:0.75000000;fill-rule:evenodd;stroke:#000000;stroke-width:0.71656804pt" />
  <path
     sodipodi:nodetypes="ccccccc"
     id="path847"
     d="M 41.071964,36.223989 L 23.550592,36.223989 L 16.041433,51.677022 L 23.550592,67.130055 L 41.071964,67.130055 L 48.581123,51.677022 L 41.071964,36.223989 z "
     style="fill:none;fill-opacity:0.75000000;fill-rule:evenodd;stroke:#000000;stroke-width:0.71656804pt" />
  <path
     sodipodi:nodetypes="ccccccc"
     id="path848"
     d="M 41.071964,67.130053 L 23.550592,67.130053 L 16.041433,82.583086 L 23.550592,98.036118 L 41.071964,98.036118 L 48.581123,82.583086 L 41.071964,67.130053 z "
     style="fill:none;fill-opacity:0.75000000;fill-rule:evenodd;stroke:#000000;stroke-width:0.71656804pt" />
  <path
     sodipodi:nodetypes="cccccc"
     id="path849"
     d="M 112.64903,51.532372 L 98.642173,51.677022 L 91.133018,67.130054 L 98.642173,82.583089 L 116.02297,82.293789 C 116.86645,72.570366 115.60123,62.123693 112.64903,51.532372 z "
     style="fill-rule:evenodd;stroke:#000000;stroke-width:0.71656804pt" />
  <path
     sodipodi:nodetypes="cccccc"
     id="path850"
     d="M 91.133018,98.036118 L 73.611648,98.036118 L 66.102490,113.48915 L 73.330487,127.64034 C 82.798641,124.36977 90.439248,121.09920 98.923338,114.21239 L 91.133018,98.036118 z "
     style="fill-rule:evenodd;stroke:#000000;stroke-width:0.71656804pt" />
  <path
     sodipodi:nodetypes="cccccc"
     id="path851"
     d="M 41.071963,98.036118 L 23.550589,98.036118 L 19.977686,106.54596 C 26.774811,114.30067 33.431354,119.88563 42.758929,124.45804 L 48.581120,113.48915 L 41.071963,98.036118 z "
     style="fill-rule:evenodd;stroke:#000000;stroke-width:0.71656804pt" />
  <path
     sodipodi:nodetypes="cccccc"
     id="path852"
     d="M 16.041433,51.677022 L 12.601482,52.524578 C 9.5477805,63.122682 8.4622066,70.972440 9.4853408,81.425892 L 16.041433,82.583091 L 23.550590,67.130052 L 16.041433,51.677022 z "
     style="fill-rule:evenodd;stroke:#000000;stroke-width:0.71656804pt" />
  <path
     sodipodi:nodetypes="cccccc"
     id="path853"
     d="M 67.566689,17.613150 L 66.102493,20.770957 L 73.611651,36.223990 L 91.133018,36.223990 L 95.127666,28.582042 C 86.784160,23.431031 77.737741,19.871167 67.566689,17.613150 z "
     style="fill-rule:evenodd;stroke:#000000;stroke-width:0.71656804pt" />
  <path
     sodipodi:nodetypes="cccccc"
     id="path854"
     d="M 47.960409,19.348952 C 38.632835,23.198115 33.038516,26.452036 24.695005,33.483494 L 23.550590,36.223996 L 41.071963,36.223996 L 48.581121,20.770961 L 47.960409,19.348952 z "
     style="fill-rule:evenodd;stroke:#000000;stroke-width:0.71656804pt" />
</svg>
