<?xml version="1.0" encoding="UTF-8" standalone="no"?>
<!-- Created with Inkscape (http://www.inkscape.org/) -->
<svg
   xmlns:dc="http://purl.org/dc/elements/1.1/"
   xmlns:cc="http://web.resource.org/cc/"
   xmlns:rdf="http://www.w3.org/1999/02/22-rdf-syntax-ns#"
   xmlns:svg="http://www.w3.org/2000/svg"
   xmlns="http://www.w3.org/2000/svg"
   xmlns:xlink="http://www.w3.org/1999/xlink"
   xmlns:sodipodi="http://inkscape.sourceforge.net/DTD/sodipodi-0.dtd"
   xmlns:inkscape="http://www.inkscape.org/namespaces/inkscape"
   sodipodi:docname="stock_accessories.svg"
   sodipodi:docbase="/home/francois/Rodent/scalable/stock"
   height="128.00000pt"
   width="128.00000pt"
   inkscape:version="0.41"
   sodipodi:version="0.32"
   id="svg1">
  <metadata
     id="metadata21">
    <rdf:RDF
       id="RDF23">
      <cc:Work
         id="Work25"
         rdf:about="">
        <dc:format
           id="format27">image/svg+xml</dc:format>
        <dc:type
           rdf:resource="http://purl.org/dc/dcmitype/StillImage"
           id="type29" />
      </cc:Work>
    </rdf:RDF>
  </metadata>
  <defs
     id="defs3">
    <linearGradient
       id="linearGradient832">
      <stop
         id="stop833"
         offset="0.0000000"
         style="stop-color:#ffffff;stop-opacity:1.0000000;" />
      <stop
         id="stop835"
         offset="0.50000000"
         style="stop-color:#bdbcbc;stop-opacity:1.0000000;" />
      <stop
         id="stop834"
         offset="1.0000000"
         style="stop-color:#7b7979;stop-opacity:1.0000000;" />
    </linearGradient>
    <linearGradient
       id="linearGradient826">
      <stop
         id="stop827"
         offset="0.0000000"
         style="stop-color:#eed680;stop-opacity:1.0000000;" />
      <stop
         id="stop840"
         offset="0.34620437"
         style="stop-color:#dfb546;stop-opacity:1.0000000;" />
      <stop
         id="stop828"
         offset="1.0000000"
         style="stop-color:#d1940c;stop-opacity:1.0000000;" />
    </linearGradient>
    <linearGradient
       y2="0.47761193"
       x2="0.43589744"
       y1="0.46766168"
       x1="0.025641026"
       id="linearGradient829"
       xlink:href="#linearGradient826" />
    <linearGradient
       gradientUnits="userSpaceOnUse"
       gradientTransform="matrix(0.936241,0.000000,0.000000,0.941546,4.244987,4.248903)"
       y2="82.187533"
       x2="157.20624"
       y1="82.187533"
       x1="6.8050215"
       id="linearGradient831"
       xlink:href="#linearGradient832" />
    <linearGradient
       gradientUnits="userSpaceOnUse"
       gradientTransform="matrix(0.945884,0.000000,0.000000,0.931948,4.244987,4.248903)"
       spreadMethod="reflect"
       y2="129.71553"
       x2="160.80687"
       y1="55.388818"
       x1="76.588139"
       id="linearGradient838"
       xlink:href="#linearGradient832" />
    <linearGradient
       gradientUnits="userSpaceOnUse"
       gradientTransform="matrix(0.945763,0.000000,0.000000,0.932067,4.244987,4.248903)"
       spreadMethod="reflect"
       y2="118.89303"
       x2="52.922692"
       y1="108.43548"
       x1="43.048252"
       id="linearGradient839"
       xlink:href="#linearGradient826" />
  </defs>
  <sodipodi:namedview
     inkscape:current-layer="svg1"
     snaptoguides="true"
     showguides="true"
     inkscape:window-y="34"
     inkscape:window-x="53"
     gridspacingy="1.0000000mm"
     gridspacingx="1.0000000mm"
     snaptogrid="false"
     showgrid="true"
     inkscape:window-height="653"
     inkscape:window-width="851"
     inkscape:cy="52.881356"
     inkscape:cx="80.000000"
     inkscape:zoom="2.9500000"
     inkscape:pageshadow="2"
     inkscape:pageopacity="0.0"
     borderopacity="1.0"
     bordercolor="#666666"
     pagecolor="#ffffff"
     id="base" />
  <path
     sodipodi:nodetypes="ccccccccccccc"
     id="path836"
     d="M 120.95711,19.270522 L 104.36190,35.952547 L 107.11198,55.430804 L 126.45727,58.227038 L 143.05247,41.545015 C 143.05247,41.545015 159.62399,58.250881 140.26291,77.713243 C 118.13597,99.955951 104.33032,80.469737 96.036662,83.246100 L 29.655820,149.97420 C 24.128030,149.97023 21.362167,152.75057 15.838326,147.18193 C 10.314486,141.61332 13.080348,138.83299 13.084298,133.26832 L 79.465138,66.540231 C 82.234954,58.195243 62.897563,44.269714 85.024509,22.027015 C 104.38559,2.5646547 120.95711,19.270522 120.95711,19.270522 z "
     style="fill:url(#linearGradient831);fill-rule:evenodd;stroke:#000000;stroke-width:3.5445135;stroke-opacity:0.47741935" />
  <path
     sodipodi:nodetypes="cccccc"
     id="path837"
     d="M 92.646384,93.175591 L 33.036644,151.12474 C 27.730820,149.17490 21.690515,151.11685 16.021500,145.58999 C 10.352485,140.06314 11.547549,133.67910 10.360584,129.01732 L 69.970325,71.068173 C 75.639340,76.595028 86.977369,87.648736 92.646384,93.175591 z "
     style="fill-opacity:0.36774191;fill-rule:evenodd;stroke:#000000;stroke-width:3.5772967;stroke-opacity:0.47096774" />
  <path
     sodipodi:nodetypes="ccccccccccccc"
     id="path834"
     d="M 120.23945,16.390472 L 103.58092,32.787816 L 106.34149,51.933675 L 125.76059,54.682193 L 142.41912,38.284848 C 142.41912,38.284848 159.05388,54.705628 139.61892,73.835863 C 117.40754,95.698985 103.54921,76.545317 95.223921,79.274301 L 28.589781,144.86368 C 23.040897,144.85979 20.264481,147.59267 14.719562,142.11907 C 9.1746438,136.64548 11.951060,133.91258 11.955025,128.44290 L 78.589156,62.853518 C 81.369542,54.650941 61.958365,40.963050 84.169742,19.099925 C 103.60469,-0.030309896 120.23945,16.390472 120.23945,16.390472 z "
     style="fill:url(#linearGradient838);fill-rule:evenodd;stroke:#000000;stroke-width:3.5208378" />
  <path
     sodipodi:nodetypes="cccccc"
     id="path830"
     d="M 89.667104,90.209774 L 31.362239,147.60048 C 28.589781,144.86368 20.264481,147.59267 14.719562,142.11907 C 9.1746438,136.64548 11.955025,128.44290 9.1825657,125.70611 L 67.487431,68.315393 C 73.032350,73.788988 84.122187,84.736176 89.667104,90.209774 z "
     style="fill:url(#linearGradient839);fill-rule:evenodd;stroke:#000000;stroke-width:2.3472252" />
</svg>
