<?xml version="1.0" encoding="UTF-8" standalone="no"?>
<!DOCTYPE svg PUBLIC "-//W3C//DTD SVG 20010904//EN"
"http://www.w3.org/TR/2001/REC-SVG-20010904/DTD/svg10.dtd">
<!-- Created with Inkscape (http://www.inkscape.org/) -->
<svg
   id="svg1"
   sodipodi:version="0.32"
   inkscape:version="0.38.1"
   width="128.00000pt"
   height="128.00000pt"
   sodipodi:docbase="/home/francois/waiting/new_theme/New_clock/panel_theme/Noname/scalable/emblems"
   sodipodi:docname="miniinfo.svg"
   xmlns="http://www.w3.org/2000/svg"
   xmlns:inkscape="http://www.inkscape.org/namespaces/inkscape"
   xmlns:sodipodi="http://sodipodi.sourceforge.net/DTD/sodipodi-0.dtd"
   xmlns:xlink="http://www.w3.org/1999/xlink">
  <defs
     id="defs3">
    <linearGradient
       id="linearGradient826">
      <stop
         style="stop-color:#ffc300;stop-opacity:1.0000000;"
         offset="0.0000000"
         id="stop827" />
      <stop
         style="stop-color:#ffdf00;stop-opacity:1.0000000;"
         offset="1.0000000"
         id="stop828" />
    </linearGradient>
    <linearGradient
       xlink:href="#linearGradient826"
       id="linearGradient829"
       x1="0.92187500"
       y1="0.88281250"
       x2="0.32812500"
       y2="0.17187500" />
  </defs>
  <sodipodi:namedview
     id="base"
     pagecolor="#ffffff"
     bordercolor="#666666"
     borderopacity="1.0"
     inkscape:pageopacity="0.0"
     inkscape:pageshadow="2"
     inkscape:zoom="4.5312500"
     inkscape:cx="64.000000"
     inkscape:cy="64.000000"
     inkscape:window-width="736"
     inkscape:window-height="902"
     showgrid="true"
     snaptogrid="false"
     gridspacingx="1.0000000mm"
     gridspacingy="1.0000000mm"
     inkscape:window-x="53"
     inkscape:window-y="38" />
  <path
     sodipodi:type="arc"
     style="fill-rule:evenodd;stroke:#000000;stroke-width:2.4084309;fill:#ffffff;fill-opacity:1.0000000;stroke-dasharray:none;"
     id="path831"
     sodipodi:cx="74.409447"
     sodipodi:cy="34.212597"
     sodipodi:rx="14.173228"
     sodipodi:ry="15.944881"
     d="M 88.582675 34.212597 A 14.173228 15.944881 0 1 0 60.236218,34.212597 A 14.173228 15.944881 0 1 0 88.582675 34.212597 z"
     transform="matrix(1.634161,0.000000,0.000000,1.462802,-44.25883,-19.80496)" />
  <path
     style="fill-rule:evenodd;stroke:#000000;stroke-width:3.3567441;"
     d="M 44.056103,65.524911 L 100.52722,65.280901 L 100.60994,133.35905 L 113.66083,133.35905 L 113.66083,154.55722 L 48.406398,154.55722 L 48.924245,139.84817 L 59.244842,139.84817 L 57.106988,86.723083 L 44.056103,86.723083 L 44.056103,65.524911 z "
     id="path832"
     sodipodi:nodetypes="ccccccccccc" />
  <path
     sodipodi:type="arc"
     style="fill-rule:evenodd;stroke:#000000;stroke-width:3.7423395;fill:#ffffff;fill-opacity:1.0000000;stroke-dasharray:none;"
     id="path833"
     sodipodi:cx="74.409447"
     sodipodi:cy="34.212597"
     sodipodi:rx="14.173228"
     sodipodi:ry="15.944881"
     d="M 88.582675 34.212597 A 14.173228 15.944881 0 1 0 60.236218,34.212597 A 14.173228 15.944881 0 1 0 88.582675 34.212597 z"
     transform="matrix(1.634161,0.000000,0.000000,1.462802,-46.83301,-22.37693)" />
  <path
     style="fill:#ffffff;fill-rule:evenodd;stroke:#000000;stroke-width:5.0000000;stroke-dasharray:none;"
     d="M 39.705808,61.285277 L 96.259635,61.285277 L 96.259635,129.11942 L 109.31052,129.11942 L 109.31052,150.31759 L 44.056103,150.31759 L 44.056103,129.11942 L 57.106988,129.11942 L 57.106988,82.483449 L 39.705808,82.483449 L 39.705808,61.285277 z "
     id="path834"
     sodipodi:nodetypes="ccccccccccc" />
</svg>
