<?xml version="1.0" encoding="UTF-8" standalone="no"?>
<!-- Created with Inkscape (http://www.inkscape.org/) -->
<svg
   xmlns:dc="http://purl.org/dc/elements/1.1/"
   xmlns:cc="http://web.resource.org/cc/"
   xmlns:rdf="http://www.w3.org/1999/02/22-rdf-syntax-ns#"
   xmlns:svg="http://www.w3.org/2000/svg"
   xmlns="http://www.w3.org/2000/svg"
   xmlns:xlink="http://www.w3.org/1999/xlink"
   xmlns:sodipodi="http://inkscape.sourceforge.net/DTD/sodipodi-0.dtd"
   xmlns:inkscape="http://www.inkscape.org/namespaces/inkscape"
   id="svg1"
   sodipodi:version="0.32"
   inkscape:version="0.41"
   width="128.00000pt"
   height="128.00000pt"
   sodipodi:docbase="/home/francois/Images/Rodent/Rodent/scalable/apps"
   sodipodi:docname="xfce-trash_full.svg">
  <metadata
     id="metadata20">
    <rdf:RDF
       id="RDF22">
      <cc:Work
         rdf:about=""
         id="Work24">
        <dc:format
           id="format26">image/svg+xml</dc:format>
        <dc:type
           id="type28"
           rdf:resource="http://purl.org/dc/dcmitype/StillImage" />
      </cc:Work>
    </rdf:RDF>
  </metadata>
  <defs
     id="defs3">
    <linearGradient
       id="linearGradient837">
      <stop
         style="stop-color:#e6e6e6;stop-opacity:1.0000000;"
         offset="0.0000000"
         id="stop838" />
      <stop
         style="stop-color:#929292;stop-opacity:1.0000000;"
         offset="0.19702290"
         id="stop841" />
      <stop
         style="stop-color:#3e3f3f;stop-opacity:1.0000000;"
         offset="1.0000000"
         id="stop840" />
    </linearGradient>
    <linearGradient
       id="linearGradient827">
      <stop
         style="stop-color:#e0c39e;stop-opacity:1.0000000;"
         offset="0.0000000"
         id="stop828" />
      <stop
         style="stop-color:#c9aa83;stop-opacity:1.0000000;"
         offset="0.34664121"
         id="stop834" />
      <stop
         style="stop-color:#b39169;stop-opacity:1.0000000;"
         offset="1.0000000"
         id="stop829" />
    </linearGradient>
    <linearGradient
       xlink:href="#linearGradient827"
       id="linearGradient830"
       x1="40.459382"
       y1="98.852746"
       x2="75.434516"
       y2="94.246035"
       gradientTransform="scale(0.958122,1.043708)"
       gradientUnits="userSpaceOnUse" />
    <linearGradient
       xlink:href="#linearGradient837"
       id="linearGradient835"
       x1="0.68196720"
       y1="0.32795700"
       x2="0.96721309"
       y2="0.32795700"
       spreadMethod="reflect" />
    <radialGradient
       xlink:href="#linearGradient827"
       id="radialGradient836"
       cx="0.50000000"
       cy="0.50000000"
       r="0.50000000"
       fx="0.50000000"
       fy="0.50000000" />
    <radialGradient
       fy="0.50000000"
       fx="0.50000000"
       r="0.50000000"
       cy="0.50000000"
       cx="0.50000000"
       id="radialGradient1357"
       xlink:href="#linearGradient827" />
    <linearGradient
       spreadMethod="reflect"
       y2="0.32795700"
       x2="0.96721309"
       y1="0.32795700"
       x1="0.68196720"
       id="linearGradient1355"
       xlink:href="#linearGradient837" />
    <linearGradient
       y2="0.53846157"
       x2="0.45901638"
       y1="0.57948720"
       x1="0.14754099"
       id="linearGradient1353"
       xlink:href="#linearGradient827" />
    <linearGradient
       id="linearGradient1345">
      <stop
         id="stop1347"
         offset="0.0000000"
         style="stop-color:#e0c39e;stop-opacity:1.0000000;" />
      <stop
         id="stop1349"
         offset="0.34664121"
         style="stop-color:#c9aa83;stop-opacity:1.0000000;" />
      <stop
         id="stop1351"
         offset="1.0000000"
         style="stop-color:#b39169;stop-opacity:1.0000000;" />
    </linearGradient>
    <linearGradient
       id="linearGradient1337">
      <stop
         id="stop1339"
         offset="0.0000000"
         style="stop-color:#e6e6e6;stop-opacity:1.0000000;" />
      <stop
         id="stop1341"
         offset="0.19702290"
         style="stop-color:#929292;stop-opacity:1.0000000;" />
      <stop
         id="stop1343"
         offset="1.0000000"
         style="stop-color:#3e3f3f;stop-opacity:1.0000000;" />
    </linearGradient>
  </defs>
  <sodipodi:namedview
     id="base"
     pagecolor="#ffffff"
     bordercolor="#666666"
     borderopacity="1.0"
     inkscape:pageopacity="0.0"
     inkscape:pageshadow="2"
     inkscape:zoom="2.9500000"
     inkscape:cx="102.37288"
     inkscape:cy="82.250532"
     inkscape:window-width="1242"
     inkscape:window-height="653"
     showgrid="true"
     gridspacingx="1.0000000mm"
     gridspacingy="1.0000000mm"
     snaptogrid="false"
     showguides="true"
     snaptoguides="true"
     inkscape:window-x="15"
     inkscape:window-y="34"
     inkscape:current-layer="svg1">
    <sodipodi:guide
       orientation="vertical"
       position="59.806897"
       id="guide826" />
  </sodipodi:namedview>
  <path
     style="fill:none;fill-rule:evenodd;stroke:#000000;stroke-width:3.7500000;stroke-linecap:round;stroke-linejoin:round;stroke-miterlimit:4.0000000;stroke-opacity:0.49999997"
     d="M 77.017012,8.4624940 C 47.834144,8.4624940 24.141890,19.963109 24.141890,34.132414 C 24.141890,35.450967 24.421865,36.736114 24.817413,38.001325 C 24.486798,37.464609 24.036789,36.992185 23.742716,36.435337 L 39.310478,138.53160 C 39.310478,138.53161 75.912154,169.33445 112.51275,138.53160 C 112.51275,138.53161 128.75227,40.945883 129.24733,37.970619 C 129.63529,36.717231 129.89213,35.438048 129.89213,34.132414 C 129.89213,19.963109 106.19989,8.4624840 77.017012,8.4624940 z "
     id="path841"
     sodipodi:nodetypes="ccccccccc" />
  <path
     sodipodi:type="arc"
     style="fill:#ffffff;fill-opacity:1.0000000;fill-rule:evenodd;stroke:#000000;stroke-width:3.7161878;stroke-dasharray:none;stroke-miterlimit:4.0000000"
     id="path831"
     sodipodi:cx="74.409447"
     sodipodi:cy="44.842518"
     sodipodi:rx="46.062992"
     sodipodi:ry="26.574802"
     d="M 120.47244 44.842518 A 46.062992 26.574802 0 1 0 28.346455,44.842518 A 46.062992 26.574802 0 1 0 120.47244 44.842518 z"
     transform="matrix(1.099974,0.000000,0.000000,0.925731,-4.779633,-5.346256)" />
  <path
     style="stroke-miterlimit:4.0000000;stroke-dasharray:none;stroke-linejoin:round;stroke-linecap:round;stroke-width:3.7500000;stroke:#000000;fill-rule:evenodd;fill:url(#linearGradient830)"
     d="M 26.016662,38.384530 L 40.919364,136.21044 C 40.919364,136.21044 75.997281,165.73179 111.07518,136.21044 C 111.07518,136.21044 127.35287,38.384530 127.35287,38.384530 C 111.76268,67.905882 41.606847,67.905882 26.016662,38.384530 z "
     id="path825"
     sodipodi:nodetypes="ccccc" />
  <g
     transform="translate(116.0000,-8.000000)"
     id="g1386">
    <path
       id="path857"
       d="M -54.087214,36.108113 C -54.087214,36.108113 -63.841253,32.545062 -63.841253,32.545062 C -63.841253,32.545062 -63.841253,32.545062 -64.212508,36.074331 C -64.583764,39.603579 -64.955038,43.132849 -61.154279,43.477591 C -57.353529,43.822323 -50.123312,48.041078 -49.752047,44.511808 C -49.380792,40.982539 -49.009537,37.453291 -49.009537,37.453291 C -49.009537,37.453291 -44.095002,27.210237 -52.067757,30.050010 C -60.040503,32.889805 -60.411758,36.419063 -60.411758,36.419063 C -60.411758,36.419063 -53.924044,47.696325 -58.096049,50.880851 C -62.268064,54.065378 -61.154279,43.477591 -64.955038,43.132849 C -68.755768,42.788106 -68.013258,35.729589 -68.013258,35.729589 C -68.013258,35.729589 -71.071487,28.326308 -71.813998,35.384846 C -72.556518,42.443364 -73.299029,49.501881 -69.498288,49.846634 C -65.697549,50.191377 -58.838579,57.939390 -54.666564,54.754852 C -50.494568,51.570326 -41.779292,41.672024 -41.779292,41.672024 C -41.779292,41.672024 -51.325228,22.991493 -55.125987,22.646750 C -58.926728,22.302018 -58.555472,18.772749 -62.727477,21.957265 C -66.899473,25.141802 -68.013258,35.729589 -71.813998,35.384846 C -75.614748,35.040104 -83.958754,41.409146 -80.529254,45.283148 C -77.099779,49.157149 -80.900511,48.812406 -73.670294,53.031161 C -66.440069,57.249894 -54.666564,54.754852 -50.865824,55.099606 C -47.065083,55.444338 -39.092336,52.604554 -38.349807,45.546036 C -37.607287,38.487519 -43.352491,20.151709 -47.153232,19.806966 C -50.953972,19.462224 -67.270728,28.671050 -67.270728,28.671050 C -67.270728,28.671050 -70.700213,24.797049 -74.872227,27.981576 C -79.044224,31.166092 -78.301704,24.107585 -79.415479,34.695361 C -80.529254,45.283148 -81.643040,55.870945 -81.643040,55.870945"
       style="fill:#ffffff;fill-rule:evenodd;stroke:#000000;stroke-width:2.5963886" />
    <path
       id="path880"
       d="M -33.599030,45.327794 C -33.599030,45.327794 -43.353070,41.764743 -43.353070,41.764743 C -43.353070,41.764743 -43.353070,41.764743 -43.724325,45.294012 C -44.095580,48.823261 -44.466854,52.352530 -40.666095,52.697272 C -36.865344,53.042004 -29.635128,57.260759 -29.263863,53.731500 C -28.892608,50.202220 -28.521352,46.672972 -28.521352,46.672972 C -28.521352,46.672972 -23.606817,36.429918 -31.579573,39.269691 C -39.552320,42.109486 -39.923575,45.638744 -39.923575,45.638744 C -39.923575,45.638744 -33.435859,56.916016 -37.607865,60.100532 C -41.779881,63.285059 -40.666095,52.697272 -44.466854,52.352530 C -48.267585,52.007787 -47.525075,44.949270 -47.525075,44.949270 C -47.525075,44.949270 -50.583305,37.545989 -51.325815,44.604527 C -52.068335,51.663045 -52.810847,58.721562 -49.010106,59.066315 C -45.209365,59.411058 -38.350394,67.159071 -34.178380,63.974534 C -30.006383,60.790007 -21.291108,50.891706 -21.291108,50.891706 C -21.291108,50.891706 -30.837044,32.211174 -34.637802,31.866431 C -38.438543,31.521699 -38.067287,27.992430 -42.239293,31.176957 C -46.411290,34.361483 -47.525075,44.949270 -51.325815,44.604527 C -55.126565,44.259785 -63.470571,50.628827 -60.041072,54.502829 C -56.611597,58.376830 -60.412328,58.032087 -53.182111,62.250842 C -45.951886,66.469575 -34.178380,63.974534 -30.377639,64.319287 C -26.576898,64.664019 -18.604148,61.824235 -17.861619,54.765717 C -17.119097,47.707200 -22.864306,29.371390 -26.665047,29.026647 C -30.465787,28.681905 -46.782545,37.890731 -46.782545,37.890731 C -46.782545,37.890731 -50.212030,34.016741 -54.384045,37.201257 C -58.556041,40.385773 -57.813521,33.327266 -58.927296,43.915042 C -60.041072,54.502829 -61.154857,65.090626 -61.154857,65.090626"
       style="fill:#ffffff;fill-rule:evenodd;stroke:#000000;stroke-width:2.5963886" />
    <path
       id="path883"
       d="M -13.833210,40.575140 L -12.585680,48.426968 L -7.3801900,51.095573 L 0.83437000,49.147682 L -1.3620400,41.862516 L -4.6566600,30.934799 L -10.674810,40.167846 L -9.5766000,43.810429 L -4.3711200,46.479055 L -5.4693300,42.836483 L -11.773020,36.525263 L -14.782110,41.141802 C -14.782110,41.141802 -19.702058,54.017442 -15.594780,53.043486 C -11.487490,52.069530 7.1380800,55.458891 6.0398600,51.816308 C 4.9416600,48.173715 1.6470400,37.245987 1.6470400,37.245987 L -18.076730,30.214054 L -19.987606,38.473176 L -9.5766000,43.810429 L 1.6470400,37.245987 L 0.54883000,33.603405 L 1.6470400,37.245987 L -9.8621500,28.266162"
       style="fill:#ffffff;fill-rule:evenodd;stroke:#000000;stroke-width:2.8249309" />
    <path
       id="path884"
       d="M -30.277272,19.133558 L -37.390203,22.685134 L -38.369407,28.452262 L -34.040773,35.700472 L -27.753694,31.414406 L -18.323093,24.985303 L -28.938792,22.023168 L -32.082335,24.166207 L -33.061559,29.933334 L -29.918025,27.790307 L -25.795248,19.880130 L -31.103116,18.399058 C -31.103116,18.399058 -44.862371,17.579963 -42.698050,21.204062 C -40.533729,24.828162 -38.163536,43.610659 -35.019994,41.467610 C -31.876443,39.324572 -22.445837,32.895468 -22.445837,32.895468 L -21.672495,11.969955 L -30.123903,12.631921 L -32.082335,24.166207 L -22.445837,32.895468 L -19.302301,30.752430 L -22.445837,32.895468 L -17.343866,19.218154"
       style="fill:#ffffff;fill-rule:evenodd;stroke:#000000;stroke-width:2.8249309" />
    <path
       sodipodi:nodetypes="ccccsc"
       id="path879"
       d="M -66.986728,107.58637 C -55.518240,91.609641 -59.387441,98.030738 -55.239971,85.036520 C -51.370761,78.615423 -33.069689,68.385100 -33.069689,68.385100 C -52.921415,69.927127 -68.733364,63.918801 -84.504585,53.842313 C -84.504585,53.842313 -72.499009,67.843628 -76.785622,84.124401 C -80.148314,96.896089 -69.742869,87.715002 -66.986728,107.58637 z "
       style="fill:#ffffff;fill-rule:evenodd;stroke:#000000;stroke-width:2.4260232" />
    <path
       sodipodi:nodetypes="ccccccccccccccccccccccccccccccccc"
       d="M -2.3080100,59.853811 C 2.8068100,58.835187 -14.692720,70.176902 -16.947607,71.275173 C -20.045821,72.863801 -22.642790,74.677133 -24.606507,76.670196 C -26.021660,78.222720 -26.606153,79.606797 -26.369056,81.247416 C -26.078987,82.894098 -25.534284,84.491363 -24.736433,86.071690 C -23.892618,87.670342 -22.793835,89.215111 -21.860377,90.795774 C -20.538080,93.215161 -19.912164,95.752548 -19.467604,98.285606 C -19.045641,100.92095 -18.417876,103.55641 -18.738545,106.23465 C -19.264281,109.33804 -20.659576,112.36206 -23.173122,115.28186 C -24.779417,117.05414 -26.793127,118.72181 -28.532049,120.46260 C -29.572651,121.56022 -30.326850,122.67097 -30.671591,123.85810 C -30.966933,125.12010 -30.757038,126.35414 -30.490104,127.58872 C -30.193888,128.90899 -29.722137,130.19706 -29.041009,131.46344 C -28.278362,132.86238 -27.464618,134.26373 -26.435713,135.60716 C -25.456589,136.85753 -24.136362,137.98534 -22.886413,139.15631 C -22.511100,139.51688 -22.698232,139.33337 -22.325491,139.70699 L -30.851462,142.28562 C -31.134197,141.99981 -30.987840,142.14442 -31.291102,141.85194 C -32.723550,140.50828 -34.156389,139.19352 -35.270081,137.75736 C -36.406082,136.26042 -37.359397,134.71829 -38.208031,133.16151 C -39.021264,131.64888 -39.587766,130.10930 -39.939776,128.53213 C -40.300856,126.85209 -40.488388,125.18381 -40.061551,123.46832 C -39.522891,121.70444 -38.444588,120.02408 -36.847058,118.39868 C -35.162872,116.76091 -33.195534,115.19504 -31.624266,113.53062 C -29.547037,111.21541 -28.397194,108.82274 -28.049110,106.34509 C -27.826933,103.91001 -28.366947,101.51235 -28.738305,99.112761 C -29.129140,96.901266 -29.719472,94.715987 -30.907369,92.610241 C -31.900911,90.964347 -33.031518,89.350879 -33.899249,87.679788 C -34.824407,85.818626 -35.448718,83.943867 -35.784305,82.006546 C -36.157881,79.412061 -35.101544,77.099809 -32.812237,74.672814 C -30.280292,72.164334 -27.005696,69.876596 -23.176370,67.825194 C -20.857970,66.638995 -18.581481,65.652745 -15.639000,65.058942 L -2.3080100,59.853811 z "
       id="path881"
       style="fill:#ffffff;stroke:#000000;stroke-width:2.4260232;stroke-linecap:round;stroke-linejoin:round" />
  </g>
</svg>
