<?xml version="1.0" encoding="UTF-8" standalone="no"?>
<!DOCTYPE svg PUBLIC "-//W3C//DTD SVG 20010904//EN"
"http://www.w3.org/TR/2001/REC-SVG-20010904/DTD/svg10.dtd">
<!-- Created with Sodipodi ("http://www.sodipodi.com/") -->
<svg
   id="svg559"
   sodipodi:version="0.32"
   width="128pt"
   height="128pt"
   sodipodi:docbase="/usr/share/icons/Fuzzy/scalable/misc"
   sodipodi:docname="xfce4-appfinder.svg"
   inkscape:version="0.38.1"
   xmlns="http://www.w3.org/2000/svg"
   xmlns:inkscape="http://www.inkscape.org/namespaces/inkscape"
   xmlns:sodipodi="http://sodipodi.sourceforge.net/DTD/sodipodi-0.dtd"
   xmlns:xlink="http://www.w3.org/1999/xlink">
  <defs
     id="defs561">
    <linearGradient
       id="linearGradient870">
      <stop
         style="stop-color:#ffffff;stop-opacity:1.0000000;"
         offset="0.0000000"
         id="stop871" />
      <stop
         style="stop-color:#efa08e;stop-opacity:1.0000000;"
         offset="0.27931297"
         id="stop843" />
      <stop
         style="stop-color:#df421e;stop-opacity:1.0000000;"
         offset="1.0000000"
         id="stop873" />
    </linearGradient>
    <linearGradient
       id="linearGradient832">
      <stop
         style="stop-color:#ffffff;stop-opacity:1.0000000;"
         offset="0.0000000"
         id="stop833" />
      <stop
         style="stop-color:#00b8df;stop-opacity:1.0000000;"
         offset="0.50000000"
         id="stop835" />
      <stop
         style="stop-color:#0058a9;stop-opacity:1.0000000;"
         offset="1.0000000"
         id="stop834" />
    </linearGradient>
    <linearGradient
       xlink:href="#linearGradient870"
       id="linearGradient839"
       x1="0.44607842"
       y1="0.46766168"
       x2="0.55882353"
       y2="0.58706468"
       spreadMethod="reflect" />
  </defs>
  <sodipodi:namedview
     id="base"
     showgrid="true"
     snaptogrid="false"
     gridspacingx="1mm"
     gridspacingy="1mm"
     inkscape:zoom="4.5312500"
     inkscape:cx="64.000000"
     inkscape:cy="64.000000"
     inkscape:window-width="913"
     inkscape:window-height="909"
     inkscape:window-x="0"
     inkscape:window-y="31" />
  <path
     style="font-size:12.000000;fill:#c0c0c0;fill-rule:evenodd;stroke:#ffffff;stroke-width:5.1125875;stroke-linecap:square;stroke-linejoin:bevel;stroke-opacity:1.0000000;"
     d="M 61.741602,3.1074755 L 59.270518,20.234644 L 33.494556,6.6862867 L 38.479329,35.529801 L 9.5932101,30.630238 L 23.184172,56.406200 L 6.0996089,58.877284 L 18.284609,70.721444 L 9.5932101,75.024539 L 18.242004,79.285028 L 6.0996089,91.171794 L 23.226777,93.642878 L 9.6784201,119.41883 L 38.564539,114.43406 L 33.622371,143.32018 L 59.355728,129.72922 L 61.869416,146.81378 L 73.670972,134.67139 L 77.974064,143.32018 L 82.277158,134.62878 L 94.121319,146.81378 L 96.592402,129.68661 L 122.41097,143.23497 L 117.42619,114.39146 L 146.26971,119.29102 L 132.72135,93.557668 L 149.80591,91.043979 L 137.62091,79.199819 L 146.26971,74.939329 L 137.62091,70.678840 L 149.80591,58.792074 L 132.67875,56.320990 L 146.22710,30.502424 L 117.34098,35.487196 L 122.28315,6.6436817 L 96.549802,20.192039 L 94.036109,3.1074755 L 82.191949,15.292476 L 77.931459,6.6436817 L 73.670972,15.292476 L 61.741602,3.1074755 z "
     id="path869" />
  <path
     style="font-size:12.000000;fill:#c0c0c0;fill-rule:evenodd;stroke:#000000;stroke-width:5.1125875;stroke-linecap:square;stroke-linejoin:bevel;"
     d="M 68.828208,10.194085 L 66.357124,27.321253 L 40.581162,13.772896 L 45.565935,42.616410 L 16.679816,37.716847 L 30.270778,63.492809 L 13.186215,65.963893 L 25.371215,77.808053 L 16.679816,82.111148 L 25.328610,86.371637 L 13.186215,98.258403 L 30.313383,100.72949 L 16.765026,126.50544 L 45.651145,121.52067 L 40.708977,150.40679 L 66.442334,136.81583 L 68.956022,153.90039 L 80.757578,141.75800 L 85.060670,150.40679 L 89.363764,141.71539 L 101.20793,153.90039 L 103.67901,136.77322 L 129.49758,150.32158 L 124.51280,121.47807 L 153.35632,126.37763 L 139.80796,100.64428 L 156.89252,98.130588 L 144.70752,86.286428 L 153.35632,82.025938 L 144.70752,77.765449 L 156.89252,65.878683 L 139.76536,63.407599 L 153.31371,37.589033 L 124.42759,42.573805 L 129.36976,13.730291 L 103.63641,27.278648 L 101.12272,10.194085 L 89.278555,22.379085 L 85.018065,13.730291 L 80.757578,22.379085 L 68.828208,10.194085 z "
     id="path868" />
  <path
     style="font-size:12.000000;fill:#efe0cd;fill-rule:evenodd;stroke:#000000;stroke-width:5.1125875;stroke-linecap:square;stroke-linejoin:bevel;fill-opacity:1.0000000;"
     d="M 65.284900,7.3370508 L 62.813816,24.464219 L 37.037854,10.915862 L 42.022627,39.759376 L 13.136508,34.859813 L 26.727470,60.635775 L 9.6429068,63.106859 L 21.827907,74.951019 L 13.136508,79.254114 L 21.785302,83.514603 L 9.6429068,95.401369 L 26.770075,97.872453 L 13.221718,123.64841 L 42.107837,118.66364 L 37.165669,147.54976 L 62.899026,133.95880 L 65.412714,151.04336 L 77.214270,138.90097 L 81.517362,147.54976 L 85.820456,138.85836 L 97.664617,151.04336 L 100.13570,133.91619 L 125.95427,147.46455 L 120.96949,118.62104 L 149.81301,123.52060 L 136.26465,97.787243 L 153.34921,95.273554 L 141.16421,83.429394 L 149.81301,79.168904 L 141.16421,74.908415 L 153.34921,63.021649 L 140.08412,55.585048 L 149.77040,34.731999 L 122.81531,30.613323 L 125.82645,10.873257 L 100.36896,16.697476 L 97.579407,7.3370508 L 85.735247,19.522051 L 81.474757,10.873257 L 77.214270,19.522051 L 65.284900,7.3370508 z "
     id="path829"
     sodipodi:nodetypes="ccccccccccccccccccccccccccccccccccccccccc" />
  <path
     transform="matrix(1.363357,0.000000,0.000000,1.363357,-32.97843,-23.14189)"
     style="fill:#ffffff;fill-rule:evenodd;stroke:#000000;stroke-width:3.7500000;"
     d="M 107.75308,85.990947 C 106.40773,89.381892 104.46112,92.436223 102.05610,95.001578 C 99.651082,97.566932 96.787646,99.643310 93.608635,101.07835 C 90.429624,102.51339 86.935038,103.30709 83.267715,103.30709 C 68.598425,103.30709 56.692913,90.607876 56.692913,74.960632 C 56.692913,67.137010 59.669291,60.050396 64.479330,54.919688 C 66.884350,52.354333 69.747785,50.277955 72.926795,48.842916 C 82.580696,48.419579 91.639010,52.653358 97.806954,59.371175 C 103.77256,66.088991 108.28907,73.899369 107.75308,85.990947 z "
     id="path895"
     sodipodi:nodetypes="cssccsczc" />
  <path
     sodipodi:type="arc"
     style="fill-rule:evenodd;stroke:#000000;stroke-width:7.3654919;stroke-dasharray:none;fill:none;fill-opacity:0.0000000;stroke-opacity:0.50331128;"
     id="path848"
     sodipodi:cx="115.99770"
     sodipodi:cy="47.864128"
     sodipodi:rx="41.621861"
     sodipodi:ry="43.481258"
     d="M 157.61956 47.864128 A 41.621861 43.481258 0 1 0 74.375843,47.864128 A 41.621861 43.481258 0 1 0 157.61956 47.864128 z"
     transform="matrix(0.996963,0.000000,0.000000,0.992957,-5.978828,6.201832)" />
  <path
     style="fill-opacity:0.36774191;fill-rule:evenodd;stroke:#000000;stroke-width:3.7229362;stroke-opacity:0.47096774;"
     d="M 92.237206,95.454273 L 30.200626,155.76267 C 24.678788,153.73345 18.392572,155.75446 12.492755,150.00259 C 6.5929492,144.25073 7.8366594,137.60678 6.6013719,132.75521 L 68.637956,72.446815 C 74.537769,78.198681 86.337393,89.702408 92.237206,95.454273 z "
     id="path837"
     sodipodi:nodetypes="cccccc" />
  <path
     sodipodi:type="arc"
     style="fill-rule:evenodd;stroke:#000000;stroke-width:7.3654919;stroke-dasharray:none;fill:#000000;fill-opacity:0.0000000;"
     id="path840"
     sodipodi:cx="115.99770"
     sodipodi:cy="47.864128"
     sodipodi:rx="41.621861"
     sodipodi:ry="43.481258"
     d="M 157.61956 47.864128 A 41.621861 43.481258 0 1 0 74.375843,47.864128 A 41.621861 43.481258 0 1 0 157.61956 47.864128 z"
     transform="matrix(0.996963,0.000000,0.000000,0.992957,-8.214957,3.406660)" />
  <path
     style="fill:url(#linearGradient839);fill-rule:evenodd;stroke:#000000;stroke-width:3.6641786;stroke-linejoin:round;"
     d="M 89.136633,92.367711 L 28.458051,152.09493 C 25.572720,149.24671 16.908482,152.08680 11.137821,146.39036 C 5.3671496,140.69393 8.2607270,132.15741 5.3753964,129.30920 L 66.053979,69.581964 C 71.824643,75.278401 83.365970,86.671272 89.136633,92.367711 z "
     id="path866"
     sodipodi:nodetypes="cccccc" />
  <path
     sodipodi:type="arc"
     style="fill-rule:evenodd;stroke:none;stroke-width:1.0000000pt;fill:#ffffff;fill-opacity:1.0000000;"
     id="path849"
     sodipodi:cx="12.729710"
     sodipodi:cy="16.969549"
     sodipodi:rx="13.873954"
     sodipodi:ry="17.449715"
     d="M 26.603663 16.969549 A 13.873954 17.449715 0 1 0 -1.1442442,16.969549 A 13.873954 17.449715 0 1 0 26.603663 16.969549 z"
     transform="matrix(0.735196,0.643613,-0.643613,0.735196,103.3228,15.31530)" />
</svg>
