<?xml version="1.0" encoding="UTF-8" standalone="no"?>
<!-- Created with Inkscape (http://www.inkscape.org/) -->

<svg
   xmlns:dc="http://purl.org/dc/elements/1.1/"
   xmlns:cc="http://creativecommons.org/ns#"
   xmlns:rdf="http://www.w3.org/1999/02/22-rdf-syntax-ns#"
   xmlns:svg="http://www.w3.org/2000/svg"
   xmlns="http://www.w3.org/2000/svg"
   xmlns:xlink="http://www.w3.org/1999/xlink"
   xmlns:sodipodi="http://sodipodi.sourceforge.net/DTD/sodipodi-0.dtd"
   xmlns:inkscape="http://www.inkscape.org/namespaces/inkscape"
   width="128"
   height="128"
   id="svg2606"
   sodipodi:version="0.32"
   inkscape:version="0.48.0 r9654"
   version="1.0"
   sodipodi:docname="x-office-document.svgz"
   inkscape:output_extension="org.inkscape.output.svgz.inkscape"
   inkscape:export-filename="/home/pinheiro/pics/oxygen-icons/scalable/mimetypes/small/48x48/application-x-qet-element.png"
   inkscape:export-xdpi="135"
   inkscape:export-ydpi="135">
  <defs
     id="defs2608">
    <linearGradient
       id="linearGradient6131">
      <stop
         id="stop6133"
         offset="0"
         style="stop-color:#fcfcfc;stop-opacity:1" />
      <stop
         style="stop-color:#f8f8f8;stop-opacity:1"
         offset="0.52275378"
         id="stop6135" />
      <stop
         id="stop6141"
         offset="0.77457333"
         style="stop-color:#f0efef;stop-opacity:1;" />
      <stop
         id="stop6139"
         offset="0.90122044"
         style="stop-color:#e3e1e1;stop-opacity:1;" />
      <stop
         id="stop6137"
         offset="1"
         style="stop-color:#cecbcb;stop-opacity:1" />
    </linearGradient>
    <linearGradient
       inkscape:collect="always"
       xlink:href="#linearGradient6131"
       id="linearGradient3893"
       gradientUnits="userSpaceOnUse"
       gradientTransform="matrix(1.0119858,0,0,1.0119858,-0.89554075,-0.9871566)"
       x1="86.73793"
       y1="93.621468"
       x2="95.460213"
       y2="102.34375" />
    <radialGradient
       inkscape:collect="always"
       xlink:href="#linearGradient3913-5"
       id="radialGradient3919-5"
       cx="90.75"
       cy="110.25299"
       fx="90.75"
       fy="110.25299"
       r="18.750002"
       gradientTransform="matrix(1.3067347,0,0,1.3067347,-27.83617,-33.818441)"
       gradientUnits="userSpaceOnUse" />
    <linearGradient
       inkscape:collect="always"
       id="linearGradient3913-5">
      <stop
         style="stop-color:#ffffff;stop-opacity:1;"
         offset="0"
         id="stop3915-4" />
      <stop
         style="stop-color:#ffffff;stop-opacity:0;"
         offset="1"
         id="stop3917-7" />
    </linearGradient>
    <clipPath
       clipPathUnits="userSpaceOnUse"
       id="clipPath3889-6">
      <path
         sodipodi:nodetypes="cscscssc"
         inkscape:connector-curvature="0"
         id="path3891-5"
         d="m 112,82.502986 c 0,4.465301 -2.79749,6.409952 -5.27972,8.093625 -5.10854,3.46508 -14.939114,3.32536 -20.720284,3.40638 -0.081,5.781159 0.16586,15.504599 -3.29922,20.613139 -1.68367,2.48224 -5.29051,5.38687 -8.20078,5.38687 2.31803,0 4.74284,-1.33476 7.58402,-4.08481 9.14197,-8.84873 17.36714,-16.13535 25.673154,-25.297529 C 109.67612,88.503916 112,86.97878 112,82.502986 z"
         style="fill:url(#linearGradient3893);fill-opacity:1;stroke:none" />
    </clipPath>
    <filter
       color-interpolation-filters="sRGB"
       inkscape:collect="always"
       id="filter3909-6">
      <feGaussianBlur
         inkscape:collect="always"
         stdDeviation="0.43040059"
         id="feGaussianBlur3911-9" />
    </filter>
    <linearGradient
       inkscape:collect="always"
       xlink:href="#linearGradient3897-7"
       id="linearGradient3895-3"
       gradientUnits="userSpaceOnUse"
       gradientTransform="matrix(1.3459172,0,0,1.3459172,-38.154591,-38.469319)"
       x1="86.73793"
       y1="93.621468"
       x2="95.18235"
       y2="102.06589" />
    <linearGradient
       id="linearGradient3897-7">
      <stop
         style="stop-color:#fcfcfc;stop-opacity:1"
         offset="0"
         id="stop3899-4" />
      <stop
         id="stop3901-5"
         offset="0.52275378"
         style="stop-color:#f8f8f8;stop-opacity:1" />
      <stop
         style="stop-color:#f0efef;stop-opacity:1;"
         offset="0.72337759"
         id="stop3903-2" />
      <stop
         style="stop-color:#e3e1e1;stop-opacity:1;"
         offset="0.89024991"
         id="stop3905-5" />
      <stop
         style="stop-color:#cecbcb;stop-opacity:1"
         offset="1"
         id="stop3907-4" />
    </linearGradient>
    <clipPath
       clipPathUnits="userSpaceOnUse"
       id="clipPath6093-7">
      <path
         inkscape:connector-curvature="0"
         sodipodi:nodetypes="cccssccc"
         id="path6095-4"
         d="m 17.000001,8 0.782827,110 57.5,0 c 1.675283,0 3.119418,0.18058 4.9,-1.6 C 88.980763,107.60206 99.94047,96.548195 107.19904,89.224043 109.6396,86.761431 110,84.752873 110,82.5 L 110,8 z"
         style="fill:#ffffff;fill-opacity:1" />
    </clipPath>
    <filter
       color-interpolation-filters="sRGB"
       inkscape:collect="always"
       id="filter6118-4"
       x="-0.1126375"
       width="1.225275"
       y="-0.12064722"
       height="1.2412944">
      <feGaussianBlur
         inkscape:collect="always"
         stdDeviation="2.3860572"
         id="feGaussianBlur6120-3" />
    </filter>
    <radialGradient
       inkscape:collect="always"
       xlink:href="#linearGradient5982-7"
       id="radialGradient5988-0"
       cx="64"
       cy="64.004021"
       fx="63.793392"
       fy="47.274845"
       r="47.5"
       gradientTransform="matrix(1.6842105,-0.08429519,0.06886339,1.3758846,-48.197001,-18.660233)"
       gradientUnits="userSpaceOnUse" />
    <linearGradient
       inkscape:collect="always"
       id="linearGradient5982-7">
      <stop
         style="stop-color:#ffffff;stop-opacity:1;"
         offset="0"
         id="stop5984-8" />
      <stop
         style="stop-color:#ffffff;stop-opacity:0;"
         offset="1"
         id="stop5986-6" />
    </linearGradient>
    <filter
       color-interpolation-filters="sRGB"
       inkscape:collect="always"
       id="filter6171-8"
       x="-0.47870937"
       width="1.9574188"
       y="-0.51275069"
       height="2.0255013">
      <feGaussianBlur
         inkscape:collect="always"
         stdDeviation="10.140743"
         id="feGaussianBlur6173-8" />
    </filter>
    <linearGradient
       inkscape:collect="always"
       xlink:href="#linearGradient4518-3"
       id="linearGradient4524-4"
       x1="72"
       y1="0"
       x2="72"
       y2="116.40091"
       gradientUnits="userSpaceOnUse"
       gradientTransform="translate(3.9208985e-7,2.7836914e-6)" />
    <linearGradient
       id="linearGradient4518-3">
      <stop
         style="stop-color:#eeecec;stop-opacity:1"
         offset="0"
         id="stop4520-1" />
      <stop
         id="stop5969-4"
         offset="0.40000001"
         style="stop-color:#f4f4f4;stop-opacity:1" />
      <stop
         style="stop-color:#f6f5f5;stop-opacity:1"
         offset="1"
         id="stop4522-9" />
    </linearGradient>
    <filter
       inkscape:collect="always"
       id="filter4111">
      <feGaussianBlur
         inkscape:collect="always"
         stdDeviation="1.5615"
         id="feGaussianBlur4113" />
    </filter>
    <filter
       inkscape:collect="always"
       id="filter4123">
      <feGaussianBlur
         inkscape:collect="always"
         stdDeviation="2.028"
         id="feGaussianBlur4125" />
    </filter>
    <linearGradient
       inkscape:collect="always"
       xlink:href="#XMLID_67_-5"
       id="linearGradient7071"
       gradientUnits="userSpaceOnUse"
       gradientTransform="translate(-143,-64)"
       x1="153"
       y1="79.556602"
       x2="153"
       y2="76.444199" />
    <linearGradient
       id="XMLID_67_-5"
       gradientUnits="userSpaceOnUse"
       x1="153"
       y1="79.556602"
       x2="153"
       y2="76.444199"
       gradientTransform="translate(-143,-64)">
      <stop
         offset="0"
         style="stop-color:#FFFFFF"
         id="stop284-5" />
      <stop
         offset="1"
         style="stop-color:#DDDDDD"
         id="stop286-4" />
    </linearGradient>
    <linearGradient
       id="XMLID_68_-7"
       gradientUnits="userSpaceOnUse"
       x1="154.1006"
       y1="79.100601"
       x2="151.9005"
       y2="76.900497"
       gradientTransform="translate(-143,-64)">
      <stop
         offset="0"
         style="stop-color:#eaeaea;stop-opacity:1;"
         id="stop291-6" />
      <stop
         offset="1"
         style="stop-color:#616161"
         id="stop293-56" />
    </linearGradient>
    <linearGradient
       y2="76.900497"
       x2="151.9005"
       y1="79.100601"
       x1="154.1006"
       gradientTransform="translate(-143,-64)"
       gradientUnits="userSpaceOnUse"
       id="linearGradient3653"
       xlink:href="#XMLID_68_-7"
       inkscape:collect="always" />
    <linearGradient
       inkscape:collect="always"
       xlink:href="#XMLID_67_-5"
       id="linearGradient3910"
       gradientUnits="userSpaceOnUse"
       gradientTransform="translate(-143,-64)"
       x1="153"
       y1="79.556602"
       x2="153"
       y2="76.444199" />
    <linearGradient
       inkscape:collect="always"
       xlink:href="#XMLID_68_-7"
       id="linearGradient3912"
       gradientUnits="userSpaceOnUse"
       gradientTransform="translate(-143,-64)"
       x1="154.1006"
       y1="79.100601"
       x2="151.9005"
       y2="76.900497" />
    <linearGradient
       inkscape:collect="always"
       xlink:href="#XMLID_67_-5"
       id="linearGradient3920"
       gradientUnits="userSpaceOnUse"
       gradientTransform="translate(-143,-64)"
       x1="153"
       y1="79.556602"
       x2="153"
       y2="76.444199" />
    <linearGradient
       inkscape:collect="always"
       xlink:href="#XMLID_68_-7"
       id="linearGradient3922"
       gradientUnits="userSpaceOnUse"
       gradientTransform="translate(-143,-64)"
       x1="154.1006"
       y1="79.100601"
       x2="151.9005"
       y2="76.900497" />
    <linearGradient
       inkscape:collect="always"
       xlink:href="#XMLID_67_-5"
       id="linearGradient3930"
       gradientUnits="userSpaceOnUse"
       gradientTransform="translate(-143,-64)"
       x1="153"
       y1="79.556602"
       x2="153"
       y2="76.444199" />
    <linearGradient
       inkscape:collect="always"
       xlink:href="#XMLID_68_-7"
       id="linearGradient3932"
       gradientUnits="userSpaceOnUse"
       gradientTransform="translate(-143,-64)"
       x1="154.1006"
       y1="79.100601"
       x2="151.9005"
       y2="76.900497" />
    <linearGradient
       inkscape:collect="always"
       xlink:href="#XMLID_67_-5"
       id="linearGradient3948"
       gradientUnits="userSpaceOnUse"
       gradientTransform="translate(-143,-64)"
       x1="153"
       y1="79.556602"
       x2="153"
       y2="76.444199" />
    <linearGradient
       inkscape:collect="always"
       xlink:href="#XMLID_68_-7"
       id="linearGradient3950"
       gradientUnits="userSpaceOnUse"
       gradientTransform="translate(-143,-64)"
       x1="154.1006"
       y1="79.100601"
       x2="151.9005"
       y2="76.900497" />
    <linearGradient
       inkscape:collect="always"
       xlink:href="#XMLID_67_-5"
       id="linearGradient3958"
       gradientUnits="userSpaceOnUse"
       gradientTransform="translate(-143,-64)"
       x1="153"
       y1="79.556602"
       x2="153"
       y2="76.444199" />
    <linearGradient
       inkscape:collect="always"
       xlink:href="#XMLID_68_-7"
       id="linearGradient3960"
       gradientUnits="userSpaceOnUse"
       gradientTransform="translate(-143,-64)"
       x1="154.1006"
       y1="79.100601"
       x2="151.9005"
       y2="76.900497" />
    <linearGradient
       inkscape:collect="always"
       xlink:href="#XMLID_67_-5"
       id="linearGradient3968"
       gradientUnits="userSpaceOnUse"
       gradientTransform="translate(-143,-64)"
       x1="153"
       y1="79.556602"
       x2="153"
       y2="76.444199" />
    <linearGradient
       inkscape:collect="always"
       xlink:href="#XMLID_68_-7"
       id="linearGradient3970"
       gradientUnits="userSpaceOnUse"
       gradientTransform="translate(-143,-64)"
       x1="154.1006"
       y1="79.100601"
       x2="151.9005"
       y2="76.900497" />
    <linearGradient
       inkscape:collect="always"
       xlink:href="#XMLID_67_-5"
       id="linearGradient3978"
       gradientUnits="userSpaceOnUse"
       gradientTransform="translate(-143,-64)"
       x1="153"
       y1="79.556602"
       x2="153"
       y2="76.444199" />
    <linearGradient
       inkscape:collect="always"
       xlink:href="#XMLID_68_-7"
       id="linearGradient3980"
       gradientUnits="userSpaceOnUse"
       gradientTransform="translate(-143,-64)"
       x1="154.1006"
       y1="79.100601"
       x2="151.9005"
       y2="76.900497" />
    <linearGradient
       inkscape:collect="always"
       xlink:href="#XMLID_67_-5"
       id="linearGradient3989"
       gradientUnits="userSpaceOnUse"
       gradientTransform="translate(-143,-64)"
       x1="153"
       y1="79.556602"
       x2="153"
       y2="76.444199" />
    <linearGradient
       inkscape:collect="always"
       xlink:href="#XMLID_68_-7"
       id="linearGradient3991"
       gradientUnits="userSpaceOnUse"
       gradientTransform="translate(-143,-64)"
       x1="154.1006"
       y1="79.100601"
       x2="151.9005"
       y2="76.900497" />
    <linearGradient
       inkscape:collect="always"
       xlink:href="#linearGradient10207"
       id="linearGradient12628"
       x1="73.155602"
       y1="99.483421"
       x2="73.155602"
       y2="68.764381"
       gradientUnits="userSpaceOnUse"
       spreadMethod="reflect" />
    <linearGradient
       id="linearGradient10207">
      <stop
         style="stop-color:#b4b4b4;stop-opacity:1;"
         offset="0"
         id="stop10209" />
      <stop
         id="stop4937"
         offset="0.5"
         style="stop-color:#d1d1d1;stop-opacity:1;" />
      <stop
         style="stop-color:#fafafa;stop-opacity:1;"
         offset="1"
         id="stop10211" />
    </linearGradient>
    <linearGradient
       inkscape:collect="always"
       xlink:href="#linearGradient10207"
       id="linearGradient3494"
       gradientUnits="userSpaceOnUse"
       spreadMethod="reflect"
       x1="73.155602"
       y1="99.483421"
       x2="73.155602"
       y2="68.764381" />
    <linearGradient
       id="linearGradient3539">
      <stop
         style="stop-color:#b4b4b4;stop-opacity:1;"
         offset="0"
         id="stop3541" />
      <stop
         id="stop3543"
         offset="0.5"
         style="stop-color:#d1d1d1;stop-opacity:1;" />
      <stop
         style="stop-color:#fafafa;stop-opacity:1;"
         offset="1"
         id="stop3545" />
    </linearGradient>
    <filter
       color-interpolation-filters="sRGB"
       inkscape:collect="always"
       id="filter11943">
      <feGaussianBlur
         inkscape:collect="always"
         stdDeviation="0.63564672"
         id="feGaussianBlur11945" />
    </filter>
    <linearGradient
       inkscape:collect="always"
       xlink:href="#linearGradient10207"
       id="linearGradient3496"
       gradientUnits="userSpaceOnUse"
       spreadMethod="reflect"
       x1="73.155602"
       y1="99.483421"
       x2="73.155602"
       y2="68.764381" />
    <linearGradient
       id="linearGradient3550">
      <stop
         style="stop-color:#b4b4b4;stop-opacity:1;"
         offset="0"
         id="stop3552" />
      <stop
         id="stop3554"
         offset="0.5"
         style="stop-color:#d1d1d1;stop-opacity:1;" />
      <stop
         style="stop-color:#fafafa;stop-opacity:1;"
         offset="1"
         id="stop3556" />
    </linearGradient>
    <linearGradient
       y2="68.764381"
       x2="73.155602"
       y1="99.483421"
       x1="73.155602"
       spreadMethod="reflect"
       gradientUnits="userSpaceOnUse"
       id="linearGradient3561"
       xlink:href="#linearGradient10207"
       inkscape:collect="always" />
  </defs>
  <sodipodi:namedview
     id="base"
     pagecolor="#ffffff"
     bordercolor="#666666"
     borderopacity="1.0"
     inkscape:pageopacity="0.0"
     inkscape:pageshadow="2"
     inkscape:zoom="2.8284271"
     inkscape:cx="112.83636"
     inkscape:cy="39.775326"
     inkscape:document-units="px"
     inkscape:current-layer="layer1"
     width="128px"
     height="128px"
     showgrid="true"
     inkscape:grid-points="true"
     showguides="true"
     inkscape:guide-bbox="true"
     inkscape:window-width="1224"
     inkscape:window-height="757"
     inkscape:window-x="0"
     inkscape:window-y="383"
     inkscape:snap-global="true"
     inkscape:window-maximized="0"
     inkscape:snap-page="false"
     inkscape:snap-nodes="false"
     inkscape:snap-bbox="true">
    <inkscape:grid
       id="GridFromPre046Settings"
       type="xygrid"
       originx="0px"
       originy="0px"
       spacingx="2.6666px"
       spacingy="2.6666px"
       color="#0000ff"
       empcolor="#0000ff"
       opacity="0.2"
       empopacity="0.4"
       empspacing="2"
       visible="true"
       enabled="true"
       snapvisiblegridlinesonly="true" />
    <sodipodi:guide
       orientation="1,0"
       position="-68,29.325902"
       id="guide4564" />
    <sodipodi:guide
       orientation="1,0"
       position="-121.62237,135.0574"
       id="guide3859" />
    <sodipodi:guide
       orientation="0,1"
       position="38.581514,-74.688154"
       id="guide4360" />
  </sodipodi:namedview>
  <metadata
     id="metadata2611">
    <rdf:RDF>
      <cc:Work
         rdf:about="">
        <dc:format>image/svg+xml</dc:format>
        <dc:type
           rdf:resource="http://purl.org/dc/dcmitype/StillImage" />
        <dc:title></dc:title>
      </cc:Work>
    </rdf:RDF>
  </metadata>
  <g
     inkscape:label="Livello 1"
     inkscape:groupmode="layer"
     id="layer1">
    <path
       style="opacity:0.45606695;fill:#000000;fill-opacity:1;filter:url(#filter4123)"
       d="m 13.333,5.3364 0,117.8304 49.8545,0.4332 c 2.115476,0.0184 4.528919,-1.77169 7,-4.25 0.71234,-0.71442 1.440746,-1.39395 2.15625,-2.09375 0.415612,-0.40649 0.832187,-0.81443 1.25,-1.21875 7.773958,-7.40962 26.98341,-25.122599 34.21875,-33.099999 0.42065,-0.42064 0.81207,-0.8111 1.15625,-1.1875 1.46444,-1.49766 2.76158,-2.8378 2.99375,-5.8625 L 112,75.156251 111.9972,5.3364 z"
       id="path5990"
       inkscape:connector-curvature="0"
       sodipodi:nodetypes="ccsssccccccc" />
    <path
       sodipodi:nodetypes="cccccccc"
       id="path3722"
       d="m 13.333,5.3364 0,118.3304 49.3318,0.3 c 1.527964,0 3.65713,-0.98408 6.387944,-2.83388 C 82.175824,111.57445 97.49744,91.890146 108.75009,80.500071 110.49334,78.756821 112,77.462561 112,73.300001 L 111.9972,5.3364 z"
       style="fill:#000000;fill-opacity:0.84716159;filter:url(#filter4111)"
       inkscape:connector-curvature="0" />
    <path
       style="fill:#ffffff;fill-opacity:1"
       d="m 13.333,5.3364 0,117.3304 49.3318,0 c 1.675283,0 3.914297,-0.56468 7,-3.6 8.870045,-8.72523 32.07567,-31.518599 39.33424,-38.842759 C 111.4396,77.761431 112,75.752871 112,73.500001 L 111.9972,5.3364 z"
       id="path34"
       sodipodi:nodetypes="cccssccc"
       inkscape:connector-curvature="0" />
    <path
       style="fill:url(#linearGradient4524-4);fill-opacity:1"
       d="m 16.5,8.000003 c -0.339844,0 -0.5,0.234618 -0.5,0.5 l 0,109.968747 c 0,0.82158 0.679323,1.5 1.5,1.5 l 48.6875,0 c 0.05308,0 0.810384,0.0234 1.5,0.0313 1.777664,-0.0401 3.131974,-0.75374 4.356035,-1.59328 1.051866,-0.29103 25.980435,-26.619589 35.101555,-35.809239 1.36239,-1.37262 2.18546,-3.94817 2.18546,-4.89561 l 5e-5,-69.201918 c 0,-0.322717 -0.16322,-0.5 -0.5,-0.5 z"
       id="path3967"
       inkscape:connector-curvature="0"
       sodipodi:nodetypes="ccsssccscccc" />
    <path
       sodipodi:nodetypes="ccssscccccc"
       inkscape:connector-curvature="0"
       id="path5980"
       d="m 16.5,8.003 c -0.339844,0 -0.5,0.234618 -0.5,0.5 l 0,109.96875 c 0,0.82158 0.679323,1.49946 1.5,1.5 l 47.5,0.0313 c 0.05308,3e-5 3.273884,-0.008 3.9635,5e-5 6.540972,-4.50366 29.9679,-28.953332 38.91313,-37.955142 1.47685,-1.65649 0.4576,-0.37007 1.45391,-1.60746 L 109.3306,8.503 c 0,-0.322717 -0.16322,-0.5 -0.5,-0.5 z"
       style="opacity:0.84653476;fill:url(#radialGradient5988-0);fill-opacity:1" />
    <path
       clip-path="url(#clipPath6093-7)"
       style="opacity:0.34728035;fill:#000000;fill-opacity:1;stroke:none;filter:url(#filter6171-8)"
       d="m 114.4,82.502986 c 0,4.465301 -4.99749,5.909952 -7.47972,7.593625 -5.10854,3.46508 -18.362065,-1.446073 -24.143235,-1.365053 -0.081,5.781159 3.371639,20.976032 -0.09344,26.084572 -1.68367,2.48224 -5.573338,8.68687 -8.483608,8.68687 -2.091359,1.5337 3.488204,8.21101 6.734971,5.31989 9.501888,-8.46107 35.131683,-30.022704 43.350823,-39.262889 2.04044,-2.29392 -4.90514,-9.844666 -9.88579,-7.057015 z"
       id="path6153"
       inkscape:connector-curvature="0"
       sodipodi:nodetypes="cscscssc"
       transform="matrix(1.2774204,0,0,1.2774204,-31.076286,-28.013102)" />
    <g
       id="g3370">
      <g
         transform="matrix(1.3053522,0,0,1.3053522,-6.171373,-0.3624391)"
         id="g7065">
        <circle
           id="circle7067"
           r="2"
           cy="14"
           cx="10"
           style="fill:url(#linearGradient7071);stroke-width:0.1;stroke-miterlimit:4;stroke-dasharray:none"
           sodipodi:cx="10"
           sodipodi:cy="14"
           sodipodi:rx="2"
           sodipodi:ry="2"
           d="m 12,14 c 0,1.104569 -0.895431,2 -2,2 -1.1045695,0 -2,-0.895431 -2,-2 0,-1.104569 0.8954305,-2 2,-2 1.104569,0 2,0.895431 2,2 z"
           transform="matrix(0.87121524,0,0,0.87121524,12.358158,0.48176727)" />
        <circle
           id="circle7069"
           r="1.556"
           cy="14"
           cx="10"
           style="fill:url(#linearGradient3653);stroke-width:0.1;stroke-miterlimit:4;stroke-dasharray:none"
           sodipodi:cx="10"
           sodipodi:cy="14"
           sodipodi:rx="1.556"
           sodipodi:ry="1.556"
           d="m 11.556,14 c 0,0.859355 -0.696645,1.556 -1.556,1.556 -0.8593551,0 -1.556,-0.696645 -1.556,-1.556 0,-0.859355 0.6966449,-1.556 1.556,-1.556 0.859355,0 1.556,0.696645 1.556,1.556 z"
           transform="matrix(1.0007524,0,0,1.0007524,11.062783,-1.3317548)" />
      </g>
      <g
         id="g3862"
         transform="matrix(1.5303907,0,0,1.5303911,-10.913008,-3.4006925)">
        <circle
           transform="matrix(0.87121524,0,0,0.87121524,12.358158,0.48176727)"
           d="m 12,14 c 0,1.104569 -0.895431,2 -2,2 -1.1045695,0 -2,-0.895431 -2,-2 0,-1.104569 0.8954305,-2 2,-2 1.104569,0 2,0.895431 2,2 z"
           sodipodi:ry="2"
           sodipodi:rx="2"
           sodipodi:cy="14"
           sodipodi:cx="10"
           style="fill:url(#linearGradient3910);stroke-width:0.1;stroke-miterlimit:4;stroke-dasharray:none"
           cx="10"
           cy="14"
           r="2"
           id="circle3864" />
        <circle
           transform="matrix(1.0007524,0,0,1.0007524,11.062783,-1.3317548)"
           d="m 11.556,14 c 0,0.859355 -0.696645,1.556 -1.556,1.556 -0.8593551,0 -1.556,-0.696645 -1.556,-1.556 0,-0.859355 0.6966449,-1.556 1.556,-1.556 0.859355,0 1.556,0.696645 1.556,1.556 z"
           sodipodi:ry="1.556"
           sodipodi:rx="1.556"
           sodipodi:cy="14"
           sodipodi:cx="10"
           style="fill:url(#linearGradient3912);stroke-width:0.1;stroke-miterlimit:4;stroke-dasharray:none"
           cx="10"
           cy="14"
           r="1.556"
           id="circle3866" />
      </g>
      <g
         transform="matrix(1.5303907,0,0,1.5303911,-10.913008,9.9323066)"
         id="g3914">
        <circle
           id="circle3916"
           r="2"
           cy="14"
           cx="10"
           style="fill:url(#linearGradient3920);stroke-width:0.1;stroke-miterlimit:4;stroke-dasharray:none"
           sodipodi:cx="10"
           sodipodi:cy="14"
           sodipodi:rx="2"
           sodipodi:ry="2"
           d="m 12,14 c 0,1.104569 -0.895431,2 -2,2 -1.1045695,0 -2,-0.895431 -2,-2 0,-1.104569 0.8954305,-2 2,-2 1.104569,0 2,0.895431 2,2 z"
           transform="matrix(0.87121524,0,0,0.87121524,12.358158,0.48176727)" />
        <circle
           id="circle3918"
           r="1.556"
           cy="14"
           cx="10"
           style="fill:url(#linearGradient3922);stroke-width:0.1;stroke-miterlimit:4;stroke-dasharray:none"
           sodipodi:cx="10"
           sodipodi:cy="14"
           sodipodi:rx="1.556"
           sodipodi:ry="1.556"
           d="m 11.556,14 c 0,0.859355 -0.696645,1.556 -1.556,1.556 -0.8593551,0 -1.556,-0.696645 -1.556,-1.556 0,-0.859355 0.6966449,-1.556 1.556,-1.556 0.859355,0 1.556,0.696645 1.556,1.556 z"
           transform="matrix(1.0007524,0,0,1.0007524,11.062783,-1.3317548)" />
      </g>
      <g
         id="g3924"
         transform="matrix(1.5303907,0,0,1.5303911,-10.913008,23.265307)">
        <circle
           transform="matrix(0.87121524,0,0,0.87121524,12.358158,0.48176727)"
           d="m 12,14 c 0,1.104569 -0.895431,2 -2,2 -1.1045695,0 -2,-0.895431 -2,-2 0,-1.104569 0.8954305,-2 2,-2 1.104569,0 2,0.895431 2,2 z"
           sodipodi:ry="2"
           sodipodi:rx="2"
           sodipodi:cy="14"
           sodipodi:cx="10"
           style="fill:url(#linearGradient3930);stroke-width:0.1;stroke-miterlimit:4;stroke-dasharray:none"
           cx="10"
           cy="14"
           r="2"
           id="circle3926" />
        <circle
           transform="matrix(1.0007524,0,0,1.0007524,11.062783,-1.3317548)"
           d="m 11.556,14 c 0,0.859355 -0.696645,1.556 -1.556,1.556 -0.8593551,0 -1.556,-0.696645 -1.556,-1.556 0,-0.859355 0.6966449,-1.556 1.556,-1.556 0.859355,0 1.556,0.696645 1.556,1.556 z"
           sodipodi:ry="1.556"
           sodipodi:rx="1.556"
           sodipodi:cy="14"
           sodipodi:cx="10"
           style="fill:url(#linearGradient3932);stroke-width:0.1;stroke-miterlimit:4;stroke-dasharray:none"
           cx="10"
           cy="14"
           r="1.556"
           id="circle3928" />
      </g>
      <g
         transform="matrix(1.5303907,0,0,1.5303911,-10.913008,36.598307)"
         id="g3942">
        <circle
           id="circle3944"
           r="2"
           cy="14"
           cx="10"
           style="fill:url(#linearGradient3948);stroke-width:0.1;stroke-miterlimit:4;stroke-dasharray:none"
           sodipodi:cx="10"
           sodipodi:cy="14"
           sodipodi:rx="2"
           sodipodi:ry="2"
           d="m 12,14 c 0,1.104569 -0.895431,2 -2,2 -1.1045695,0 -2,-0.895431 -2,-2 0,-1.104569 0.8954305,-2 2,-2 1.104569,0 2,0.895431 2,2 z"
           transform="matrix(0.87121524,0,0,0.87121524,12.358158,0.48176727)" />
        <circle
           id="circle3946"
           r="1.556"
           cy="14"
           cx="10"
           style="fill:url(#linearGradient3950);stroke-width:0.1;stroke-miterlimit:4;stroke-dasharray:none"
           sodipodi:cx="10"
           sodipodi:cy="14"
           sodipodi:rx="1.556"
           sodipodi:ry="1.556"
           d="m 11.556,14 c 0,0.859355 -0.696645,1.556 -1.556,1.556 -0.8593551,0 -1.556,-0.696645 -1.556,-1.556 0,-0.859355 0.6966449,-1.556 1.556,-1.556 0.859355,0 1.556,0.696645 1.556,1.556 z"
           transform="matrix(1.0007524,0,0,1.0007524,11.062783,-1.3317548)" />
      </g>
      <g
         id="g3952"
         transform="matrix(1.5303907,0,0,1.5303911,-10.913008,49.931307)">
        <circle
           transform="matrix(0.87121524,0,0,0.87121524,12.358158,0.48176727)"
           d="m 12,14 c 0,1.104569 -0.895431,2 -2,2 -1.1045695,0 -2,-0.895431 -2,-2 0,-1.104569 0.8954305,-2 2,-2 1.104569,0 2,0.895431 2,2 z"
           sodipodi:ry="2"
           sodipodi:rx="2"
           sodipodi:cy="14"
           sodipodi:cx="10"
           style="fill:url(#linearGradient3958);stroke-width:0.1;stroke-miterlimit:4;stroke-dasharray:none"
           cx="10"
           cy="14"
           r="2"
           id="circle3954" />
        <circle
           transform="matrix(1.0007524,0,0,1.0007524,11.062783,-1.3317548)"
           d="m 11.556,14 c 0,0.859355 -0.696645,1.556 -1.556,1.556 -0.8593551,0 -1.556,-0.696645 -1.556,-1.556 0,-0.859355 0.6966449,-1.556 1.556,-1.556 0.859355,0 1.556,0.696645 1.556,1.556 z"
           sodipodi:ry="1.556"
           sodipodi:rx="1.556"
           sodipodi:cy="14"
           sodipodi:cx="10"
           style="fill:url(#linearGradient3960);stroke-width:0.1;stroke-miterlimit:4;stroke-dasharray:none"
           cx="10"
           cy="14"
           r="1.556"
           id="circle3956" />
      </g>
      <g
         transform="matrix(1.5303907,0,0,1.5303911,-10.913008,63.264307)"
         id="g3962">
        <circle
           id="circle3964"
           r="2"
           cy="14"
           cx="10"
           style="fill:url(#linearGradient3968);stroke-width:0.1;stroke-miterlimit:4;stroke-dasharray:none"
           sodipodi:cx="10"
           sodipodi:cy="14"
           sodipodi:rx="2"
           sodipodi:ry="2"
           d="m 12,14 c 0,1.104569 -0.895431,2 -2,2 -1.1045695,0 -2,-0.895431 -2,-2 0,-1.104569 0.8954305,-2 2,-2 1.104569,0 2,0.895431 2,2 z"
           transform="matrix(0.87121524,0,0,0.87121524,12.358158,0.48176727)" />
        <circle
           id="circle3966"
           r="1.556"
           cy="14"
           cx="10"
           style="fill:url(#linearGradient3970);stroke-width:0.1;stroke-miterlimit:4;stroke-dasharray:none"
           sodipodi:cx="10"
           sodipodi:cy="14"
           sodipodi:rx="1.556"
           sodipodi:ry="1.556"
           d="m 11.556,14 c 0,0.859355 -0.696645,1.556 -1.556,1.556 -0.8593551,0 -1.556,-0.696645 -1.556,-1.556 0,-0.859355 0.6966449,-1.556 1.556,-1.556 0.859355,0 1.556,0.696645 1.556,1.556 z"
           transform="matrix(1.0007524,0,0,1.0007524,11.062783,-1.3317548)" />
      </g>
      <g
         id="g3972"
         transform="matrix(1.5303907,0,0,1.5303911,-10.913008,76.597307)">
        <circle
           transform="matrix(0.87121524,0,0,0.87121524,12.358158,0.48176727)"
           d="m 12,14 c 0,1.104569 -0.895431,2 -2,2 -1.1045695,0 -2,-0.895431 -2,-2 0,-1.104569 0.8954305,-2 2,-2 1.104569,0 2,0.895431 2,2 z"
           sodipodi:ry="2"
           sodipodi:rx="2"
           sodipodi:cy="14"
           sodipodi:cx="10"
           style="fill:url(#linearGradient3978);stroke-width:0.1;stroke-miterlimit:4;stroke-dasharray:none"
           cx="10"
           cy="14"
           r="2"
           id="circle3974" />
        <circle
           transform="matrix(1.0007524,0,0,1.0007524,11.062783,-1.3317548)"
           d="m 11.556,14 c 0,0.859355 -0.696645,1.556 -1.556,1.556 -0.8593551,0 -1.556,-0.696645 -1.556,-1.556 0,-0.859355 0.6966449,-1.556 1.556,-1.556 0.859355,0 1.556,0.696645 1.556,1.556 z"
           sodipodi:ry="1.556"
           sodipodi:rx="1.556"
           sodipodi:cy="14"
           sodipodi:cx="10"
           style="fill:url(#linearGradient3980);stroke-width:0.1;stroke-miterlimit:4;stroke-dasharray:none"
           cx="10"
           cy="14"
           r="1.556"
           id="circle3976" />
      </g>
      <g
         transform="matrix(1.5303907,0,0,1.5303911,-10.913008,89.930307)"
         id="g3983">
        <circle
           id="circle3985"
           r="2"
           cy="14"
           cx="10"
           style="fill:url(#linearGradient3989);stroke-width:0.1;stroke-miterlimit:4;stroke-dasharray:none"
           sodipodi:cx="10"
           sodipodi:cy="14"
           sodipodi:rx="2"
           sodipodi:ry="2"
           d="m 12,14 c 0,1.104569 -0.895431,2 -2,2 -1.1045695,0 -2,-0.895431 -2,-2 0,-1.104569 0.8954305,-2 2,-2 1.104569,0 2,0.895431 2,2 z"
           transform="matrix(0.87121524,0,0,0.87121524,12.358158,0.48176727)" />
        <circle
           id="circle3987"
           r="1.556"
           cy="14"
           cx="10"
           style="fill:url(#linearGradient3991);stroke-width:0.1;stroke-miterlimit:4;stroke-dasharray:none"
           sodipodi:cx="10"
           sodipodi:cy="14"
           sodipodi:rx="1.556"
           sodipodi:ry="1.556"
           d="m 11.556,14 c 0,0.859355 -0.696645,1.556 -1.556,1.556 -0.8593551,0 -1.556,-0.696645 -1.556,-1.556 0,-0.859355 0.6966449,-1.556 1.556,-1.556 0.859355,0 1.556,0.696645 1.556,1.556 z"
           transform="matrix(1.0007524,0,0,1.0007524,11.062783,-1.3317548)" />
      </g>
    </g>
    <g
       id="g12102"
       style="fill:url(#linearGradient12628);fill-opacity:1"
       transform="matrix(2.1120239,0,0,2.1120239,-93.329064,-125.77812)">
      <path
         inkscape:transform-center-y="-14.564521"
         inkscape:transform-center-x="94.032371"
         style="opacity:0.58158994;fill:url(#linearGradient3494);fill-opacity:1;stroke:none;filter:url(#filter11943)"
         d="m 77.48195,107.25005 c 8.13136,-0.25649 14.58039,-3.84314 14.58039,-8.238066 0,-4.394918 -6.44763,-8.020234 -14.58039,-8.277482 l -1.62827,1.89e-4 c -8.19501,0.22241 -14.80242,3.858523 -14.80242,8.277482 0,4.418987 6.60878,8.016397 14.80242,8.238067 l 1.62827,-1.9e-4 z m 12.87811,-8.238066 c 0,1.826366 -1.39829,3.405576 -3.47857,4.690576 L 77.778,98.854317 86.65945,94.084911 c 2.20822,1.303472 3.70061,3.034585 3.70061,4.927073 z m -4.51474,5.321236 c -2.43935,1.22103 -5.64785,2.01025 -9.25151,2.01025 -3.58486,0 -6.87827,-0.70205 -9.32553,-1.892 -0.0143,-0.008 0.0142,-0.0322 0,-0.0395 l 9.39954,-4.966488 9.1775,4.887658 0,6e-5 z m -0.29605,-10.839558 -8.88145,4.769406 -9.02948,-4.769406 c 2.4154,-1.1119 5.5082,-1.813162 8.95547,-1.813162 3.47158,0 6.53392,0.689682 8.95546,1.813162 z m -9.99164,5.360655 -9.39953,4.966493 c -0.0143,-0.008 -0.0609,0.008 -0.0741,0 -2.08534,-1.28512 -3.33054,-2.97195 -3.33054,-4.808826 0,-1.904938 1.4697,-3.621748 3.7006,-4.927073 l 9.10349,4.769406 1.1e-4,0 z"
         id="path11929"
         sodipodi:nodetypes="csccsccccccccccccccccccscccsccc"
         inkscape:connector-curvature="0" />
      <path
         sodipodi:type="inkscape:offset"
         inkscape:radius="0.28726214"
         inkscape:original="M 75.84375 76.25 C 67.64874 76.667617 61.0625 83.483818 61.0625 91.78125 C 61.0625 100.07873 67.65011 106.83378 75.84375 107.25 L 77.46875 107.25 C 85.60011 106.76839 92.0625 100.03357 92.0625 91.78125 C 92.0625 83.528959 85.60151 76.733032 77.46875 76.25 L 75.84375 76.25 z M 76.59375 78 C 80.06533 78 83.14096 79.296704 85.5625 81.40625 L 76.65625 90.375 L 67.625 81.40625 C 70.0404 79.318446 73.14648 78 76.59375 78 z M 66.46875 82.53125 L 75.5625 91.5 L 66.15625 100.8125 C 66.14195 100.7983 66.10695 100.8267 66.09375 100.8125 C 64.00841 98.399445 62.75 95.230332 62.75 91.78125 C 62.75 88.204369 64.23785 84.982246 66.46875 82.53125 z M 86.65625 82.53125 C 88.86447 84.978765 90.375 88.227745 90.375 91.78125 C 90.375 95.210604 88.95528 98.180935 86.875 100.59375 L 77.78125 91.5 L 86.65625 82.53125 z M 76.65625 92.59375 L 85.84375 101.78125 C 83.4044 104.07397 80.19741 105.5625 76.59375 105.5625 C 73.00889 105.5625 69.72851 104.23436 67.28125 102 C 67.26695 101.9858 67.29545 101.91995 67.28125 101.90625 L 76.65625 92.59375 z "
         style="fill:url(#linearGradient3561);fill-opacity:1;stroke:none"
         id="path12608"
         d="m 75.84375,75.96875 c -8.345865,0.425305 -15.0625,7.363055 -15.0625,15.8125 0,8.44952 6.719376,15.32619 15.0625,15.75 l 1.625,0 a 0.28729087,0.28729087 0 0 0 0.03125,0 c 8.280179,-0.49042 14.84375,-7.34771 14.84375,-15.75 0,-8.402229 -6.560793,-15.320547 -14.84375,-15.8125 a 0.28729087,0.28729087 0 0 0 -0.03125,0 l -1.625,0 z m 0.75,2.3125 c 3.287916,0 6.194921,1.207398 8.53125,3.15625 L 76.65625,89.96875 68.0625,81.4375 c 2.332466,-1.929932 5.269354,-3.15625 8.53125,-3.15625 z M 66.5,82.96875 75.15625,91.5 l -9,8.90625 c -1.937725,-2.335361 -3.125,-5.342412 -3.125,-8.625 0,-3.385728 1.395272,-6.43803 3.46875,-8.8125 z m 20.125,0 c 2.054736,2.373188 3.46875,5.451093 3.46875,8.8125 0,3.229469 -1.324194,6.019188 -3.25,8.34375 l -8.65625,-8.65625 8.4375,-8.5 z M 76.625,93 l 8.78125,8.78125 c -2.360463,2.12129 -5.406323,3.5 -8.8125,3.5 -3.425815,0 -6.563264,-1.25571 -8.9375,-3.34375 L 76.625,93 z" />
    </g>
    <rect
       style="fill:#dddddd;fill-opacity:1;stroke:#000000;stroke-width:0;stroke-linecap:round;stroke-linejoin:round;stroke-miterlimit:4;stroke-opacity:1;stroke-dasharray:none;stroke-dashoffset:0"
       id="rect3136"
       width="79.998001"
       height="2.6666005"
       x="26.665998"
       y="8.0029993" />
    <rect
       y="8.0030003"
       x="106.664"
       height="71.998199"
       width="2.6666014"
       id="rect3906"
       style="fill:#dddddd;fill-opacity:1;stroke:#000000;stroke-width:0;stroke-linecap:round;stroke-linejoin:round;stroke-miterlimit:4;stroke-opacity:1;stroke-dasharray:none;stroke-dashoffset:0" />
    <rect
       style="fill:#dddddd;fill-opacity:1;stroke:#000000;stroke-width:0;stroke-linecap:round;stroke-linejoin:round;stroke-miterlimit:4;stroke-opacity:1;stroke-dasharray:none;stroke-dashoffset:0"
       id="rect3908"
       width="2.6666014"
       height="106.664"
       x="26.666"
       y="10.6696" />
    <rect
       y="117.3336"
       x="26.666"
       height="2.6666005"
       width="42.6656"
       id="rect3910"
       style="fill:#dddddd;fill-opacity:1;stroke:#000000;stroke-width:0;stroke-linecap:round;stroke-linejoin:round;stroke-miterlimit:4;stroke-opacity:1;stroke-dasharray:none;stroke-dashoffset:0" />
    <path
       sodipodi:nodetypes="cscscssc"
       inkscape:connector-curvature="0"
       id="path6081"
       d="m 113.9,82.502986 c 0,4.465301 -5.09749,6.009952 -7.57972,7.693625 -5.10854,3.46508 -16.139114,2.12536 -21.920284,2.20638 -0.081,5.781159 1.66586,17.304599 -1.79922,22.413139 -1.68367,2.48224 -4.69051,7.98687 -7.60078,7.98687 -2.091359,1.5337 3.488204,11.21101 6.734971,8.31989 9.501888,-8.46107 45.998943,-30.20138 54.218083,-39.441569 2.04044,-2.29392 -17.0724,-11.965986 -22.05305,-9.178335 z"
       style="opacity:0.40099009;fill:#000000;fill-opacity:1;stroke:none;filter:url(#filter6118-4)"
       clip-path="url(#clipPath6093-7)"
       transform="matrix(1.3299764,0,0,1.3299764,-36.963543,-37.156423)" />
    <path
       style="fill:url(#linearGradient3895-3);fill-opacity:1;stroke:none"
       d="m 111.99381,72.570604 c 0,5.938743 -3.72059,8.525082 -7.0219,10.764323 -6.794238,4.608475 -19.95169,4.558319 -27.64051,4.666073 -0.107728,7.688805 0.303611,20.48508 -4.304863,27.27932 -2.239241,3.30132 -7.036253,7.16441 -10.906844,7.16441 3.082925,0 6.307865,-1.7752 10.086567,-5.4327 12.158605,-11.76861 23.097887,-21.459634 34.14469,-33.645117 2.55216,-2.815215 5.64286,-4.843615 5.64286,-10.796309 z"
       id="path6011"
       inkscape:connector-curvature="0"
       sodipodi:nodetypes="cscscssc" />
    <path
       style="fill:#ffffff;fill-opacity:1;stroke:none"
       d="m 112.01875,73.115242 c -0.42084,5.185724 -5.08438,7.318602 -8.17936,9.417895 C 98.818947,85.938464 82.6646,85.3344 74.6648,85.3344 c 0,7.9998 1.619153,23.49711 -2.7864,30.22372 -1.912401,2.91993 -4.654194,5.79882 -8.19598,6.58338 2.633964,-0.48185 5.299865,-2.47561 8.470288,-5.54435 0.451018,-0.51674 0.763801,-0.90298 1.471286,-1.99496 4.608475,-6.79423 4.099678,-18.412383 4.207406,-26.10119 7.68882,-0.107728 20.028368,-0.145785 26.8226,-4.754259 0.619,-0.41986 2.51897,-1.313671 3.06727,-1.861967 2.04322,-2.043229 3.9922,-4.273773 4.29748,-8.769532 z M 63.68242,122.1415 c -0.209681,0.0464 -0.416863,0.0551 -0.623426,0.0831 0.208794,-0.0225 0.412882,-0.0446 0.623426,-0.0831 z"
       id="path6122"
       inkscape:connector-curvature="0"
       sodipodi:nodetypes="cscsccccsscccc" />
    <path
       style="fill:none;stroke:url(#radialGradient3919-5);stroke-width:1.20000005;stroke-linecap:butt;stroke-linejoin:miter;stroke-miterlimit:4;stroke-opacity:1;stroke-dasharray:none;filter:url(#filter3909-6)"
       d="M 117.31456,81.861283 72.639105,125.34835"
       id="path3873"
       inkscape:connector-curvature="0"
       sodipodi:nodetypes="cc"
       clip-path="url(#clipPath3889-6)"
       transform="matrix(1.3299764,0,0,1.3299764,-36.963543,-37.156423)" />
  </g>
</svg>
