<?xml version="1.0" encoding="UTF-8" standalone="no"?>
<!-- Created with Inkscape (http://www.inkscape.org/) -->

<svg
   xmlns:dc="http://purl.org/dc/elements/1.1/"
   xmlns:cc="http://creativecommons.org/ns#"
   xmlns:rdf="http://www.w3.org/1999/02/22-rdf-syntax-ns#"
   xmlns:svg="http://www.w3.org/2000/svg"
   xmlns="http://www.w3.org/2000/svg"
   xmlns:xlink="http://www.w3.org/1999/xlink"
   xmlns:sodipodi="http://sodipodi.sourceforge.net/DTD/sodipodi-0.dtd"
   xmlns:inkscape="http://www.inkscape.org/namespaces/inkscape"
   width="128"
   height="128"
   id="svg2606"
   sodipodi:version="0.32"
   inkscape:version="0.48.0 r9654"
   version="1.0"
   sodipodi:docname="application-x-chm.svgz"
   inkscape:output_extension="org.inkscape.output.svgz.inkscape"
   inkscape:export-filename="/home/pinheiro/pics/oxygen-icons/scalable/mimetypes/small/48x48/application-x-chm.png"
   inkscape:export-xdpi="135"
   inkscape:export-ydpi="135">
  <defs
     id="defs2608">
    <linearGradient
       id="linearGradient6131">
      <stop
         id="stop6133"
         offset="0"
         style="stop-color:#fcfcfc;stop-opacity:1" />
      <stop
         style="stop-color:#f8f8f8;stop-opacity:1"
         offset="0.52275378"
         id="stop6135" />
      <stop
         id="stop6141"
         offset="0.77457333"
         style="stop-color:#f0efef;stop-opacity:1;" />
      <stop
         id="stop6139"
         offset="0.90122044"
         style="stop-color:#e3e1e1;stop-opacity:1;" />
      <stop
         id="stop6137"
         offset="1"
         style="stop-color:#cecbcb;stop-opacity:1" />
    </linearGradient>
    <linearGradient
       inkscape:collect="always"
       xlink:href="#linearGradient6131"
       id="linearGradient3893"
       gradientUnits="userSpaceOnUse"
       gradientTransform="matrix(1.0119858,0,0,1.0119858,-0.89554075,-0.9871566)"
       x1="86.73793"
       y1="93.621468"
       x2="95.460213"
       y2="102.34375" />
    <radialGradient
       inkscape:collect="always"
       xlink:href="#linearGradient3913-5"
       id="radialGradient3919-5"
       cx="90.75"
       cy="110.25299"
       fx="90.75"
       fy="110.25299"
       r="18.750002"
       gradientTransform="matrix(1.3067347,0,0,1.3067347,-27.83617,-33.818441)"
       gradientUnits="userSpaceOnUse" />
    <linearGradient
       inkscape:collect="always"
       id="linearGradient3913-5">
      <stop
         style="stop-color:#ffffff;stop-opacity:1;"
         offset="0"
         id="stop3915-4" />
      <stop
         style="stop-color:#ffffff;stop-opacity:0;"
         offset="1"
         id="stop3917-7" />
    </linearGradient>
    <clipPath
       clipPathUnits="userSpaceOnUse"
       id="clipPath3889-6">
      <path
         sodipodi:nodetypes="cscscssc"
         inkscape:connector-curvature="0"
         id="path3891-5"
         d="m 112,82.502986 c 0,4.465301 -2.79749,6.409952 -5.27972,8.093625 -5.10854,3.46508 -14.939114,3.32536 -20.720284,3.40638 -0.081,5.781159 0.16586,15.504599 -3.29922,20.613139 -1.68367,2.48224 -5.29051,5.38687 -8.20078,5.38687 2.31803,0 4.74284,-1.33476 7.58402,-4.08481 9.14197,-8.84873 17.36714,-16.13535 25.673154,-25.297529 C 109.67612,88.503916 112,86.97878 112,82.502986 z"
         style="fill:url(#linearGradient3893);fill-opacity:1;stroke:none" />
    </clipPath>
    <filter
       color-interpolation-filters="sRGB"
       inkscape:collect="always"
       id="filter3909-6">
      <feGaussianBlur
         inkscape:collect="always"
         stdDeviation="0.43040059"
         id="feGaussianBlur3911-9" />
    </filter>
    <linearGradient
       inkscape:collect="always"
       xlink:href="#linearGradient3897-7"
       id="linearGradient3895-3"
       gradientUnits="userSpaceOnUse"
       gradientTransform="matrix(1.3459172,0,0,1.3459172,-38.154591,-38.469319)"
       x1="86.73793"
       y1="93.621468"
       x2="95.18235"
       y2="102.06589" />
    <linearGradient
       id="linearGradient3897-7">
      <stop
         style="stop-color:#fcfcfc;stop-opacity:1"
         offset="0"
         id="stop3899-4" />
      <stop
         id="stop3901-5"
         offset="0.52275378"
         style="stop-color:#f8f8f8;stop-opacity:1" />
      <stop
         style="stop-color:#f0efef;stop-opacity:1;"
         offset="0.72337759"
         id="stop3903-2" />
      <stop
         style="stop-color:#e3e1e1;stop-opacity:1;"
         offset="0.89024991"
         id="stop3905-5" />
      <stop
         style="stop-color:#cecbcb;stop-opacity:1"
         offset="1"
         id="stop3907-4" />
    </linearGradient>
    <clipPath
       clipPathUnits="userSpaceOnUse"
       id="clipPath6093-7">
      <path
         inkscape:connector-curvature="0"
         sodipodi:nodetypes="cccssccc"
         id="path6095-4"
         d="m 17.000001,8 0.782827,110 57.5,0 c 1.675283,0 3.119418,0.18058 4.9,-1.6 C 88.980763,107.60206 99.94047,96.548195 107.19904,89.224043 109.6396,86.761431 110,84.752873 110,82.5 L 110,8 z"
         style="fill:#ffffff;fill-opacity:1" />
    </clipPath>
    <filter
       color-interpolation-filters="sRGB"
       inkscape:collect="always"
       id="filter6118-4"
       x="-0.1126375"
       width="1.225275"
       y="-0.12064722"
       height="1.2412944">
      <feGaussianBlur
         inkscape:collect="always"
         stdDeviation="2.3860572"
         id="feGaussianBlur6120-3" />
    </filter>
    <radialGradient
       inkscape:collect="always"
       xlink:href="#linearGradient5982-7"
       id="radialGradient5988-0"
       cx="64"
       cy="64.004021"
       fx="63.793392"
       fy="47.274845"
       r="47.5"
       gradientTransform="matrix(1.6842105,-0.08429519,0.06886339,1.3758846,-48.197001,-18.66323)"
       gradientUnits="userSpaceOnUse" />
    <linearGradient
       inkscape:collect="always"
       id="linearGradient5982-7">
      <stop
         style="stop-color:#ffffff;stop-opacity:1;"
         offset="0"
         id="stop5984-8" />
      <stop
         style="stop-color:#ffffff;stop-opacity:0;"
         offset="1"
         id="stop5986-6" />
    </linearGradient>
    <filter
       color-interpolation-filters="sRGB"
       inkscape:collect="always"
       id="filter6171-8"
       x="-0.47870937"
       width="1.9574188"
       y="-0.51275069"
       height="2.0255013">
      <feGaussianBlur
         inkscape:collect="always"
         stdDeviation="10.140743"
         id="feGaussianBlur6173-8" />
    </filter>
    <linearGradient
       inkscape:collect="always"
       xlink:href="#linearGradient4518-3"
       id="linearGradient4524-4"
       x1="72"
       y1="0"
       x2="72"
       y2="116.40091"
       gradientUnits="userSpaceOnUse"
       gradientTransform="translate(3.9208985e-7,2.7836914e-6)" />
    <linearGradient
       id="linearGradient4518-3">
      <stop
         style="stop-color:#eeecec;stop-opacity:1"
         offset="0"
         id="stop4520-1" />
      <stop
         id="stop5969-4"
         offset="0.40000001"
         style="stop-color:#f4f4f4;stop-opacity:1" />
      <stop
         style="stop-color:#f6f5f5;stop-opacity:1"
         offset="1"
         id="stop4522-9" />
    </linearGradient>
    <filter
       inkscape:collect="always"
       id="filter4111">
      <feGaussianBlur
         inkscape:collect="always"
         stdDeviation="1.5615"
         id="feGaussianBlur4113" />
    </filter>
    <filter
       inkscape:collect="always"
       id="filter4123">
      <feGaussianBlur
         inkscape:collect="always"
         stdDeviation="2.028"
         id="feGaussianBlur4125" />
    </filter>
    <mask
       maskUnits="userSpaceOnUse"
       id="mask4067">
      <path
         style="opacity:0.84653476;fill:url(#radialGradient4071);fill-opacity:1"
         d="m 18,8.5 c -0.339844,0 -0.5,0.2346178 -0.5,0.5 l 0,108.96875 c 0,0.82158 0.679323,1.49953 1.5,1.5 L 74,119.5 c 0.05307,3e-5 0.997884,-0.008 1.6875,5e-5 10.098603,-3.99538 25.4133,-22.453284 34.35853,-31.455094 1.47685,-1.656484 1.11385,-1.151317 1.45391,-2.888706 L 111.5,9 c 0,-0.3227174 -0.16322,-0.5 -0.5,-0.5 z"
         id="path4069"
         inkscape:connector-curvature="0"
         sodipodi:nodetypes="ccssscccccc" />
    </mask>
    <radialGradient
       inkscape:collect="always"
       xlink:href="#linearGradient5982"
       id="radialGradient4071"
       gradientUnits="userSpaceOnUse"
       gradientTransform="matrix(1.6842105,-0.08429519,0.06886339,1.3758846,-48.197002,-18.663233)"
       cx="64"
       cy="64.004021"
       fx="63.793392"
       fy="47.274845"
       r="47.5" />
    <linearGradient
       inkscape:collect="always"
       id="linearGradient5982">
      <stop
         style="stop-color:#ffffff;stop-opacity:1;"
         offset="0"
         id="stop5984" />
      <stop
         style="stop-color:#ffffff;stop-opacity:0;"
         offset="1"
         id="stop5986" />
    </linearGradient>
    <filter
       color-interpolation-filters="sRGB"
       inkscape:collect="always"
       id="filter4061">
      <feGaussianBlur
         inkscape:collect="always"
         stdDeviation="2.6223711"
         id="feGaussianBlur4063" />
    </filter>
    <linearGradient
       inkscape:collect="always"
       xlink:href="#radialGradient4030"
       id="linearGradient4076"
       gradientUnits="userSpaceOnUse"
       gradientTransform="matrix(0.71068392,-0.70045746,0.70045746,0.71068392,-28.334827,67.934859)"
       x1="39.156136"
       y1="96.31601"
       x2="133.49956"
       y2="41.846813" />
    <radialGradient
       id="radialGradient4030"
       cx="51.9995"
       cy="-9"
       r="111.0006"
       gradientUnits="userSpaceOnUse">
      <stop
         offset="0.15000001"
         style="stop-color:#00b5c2;stop-opacity:1;"
         id="stop4032" />
      <stop
         id="stop4034"
         style="stop-color:#027186;stop-opacity:1;"
         offset="0.57499999" />
      <stop
         offset="1"
         style="stop-color:#015976;stop-opacity:1;"
         id="stop4036" />
    </radialGradient>
  </defs>
  <sodipodi:namedview
     id="base"
     pagecolor="#ffffff"
     bordercolor="#666666"
     borderopacity="1.0"
     inkscape:pageopacity="0.0"
     inkscape:pageshadow="2"
     inkscape:zoom="2"
     inkscape:cx="2.2294424"
     inkscape:cy="67.573508"
     inkscape:document-units="px"
     inkscape:current-layer="layer1"
     width="128px"
     height="128px"
     showgrid="true"
     inkscape:grid-points="true"
     showguides="true"
     inkscape:guide-bbox="true"
     inkscape:window-width="1224"
     inkscape:window-height="757"
     inkscape:window-x="682"
     inkscape:window-y="354"
     inkscape:snap-global="true"
     inkscape:window-maximized="0"
     inkscape:snap-page="true">
    <inkscape:grid
       id="GridFromPre046Settings"
       type="xygrid"
       originx="0px"
       originy="0px"
       spacingx="2.6666px"
       spacingy="2.6666px"
       color="#0000ff"
       empcolor="#0000ff"
       opacity="0.2"
       empopacity="0.4"
       empspacing="2"
       visible="true"
       enabled="true"
       snapvisiblegridlinesonly="true" />
    <sodipodi:guide
       orientation="1,0"
       position="-68,29.325902"
       id="guide4564" />
    <sodipodi:guide
       orientation="1,0"
       position="-121.62237,135.0574"
       id="guide3859" />
    <sodipodi:guide
       orientation="0,1"
       position="38.581514,-74.688154"
       id="guide4360" />
  </sodipodi:namedview>
  <metadata
     id="metadata2611">
    <rdf:RDF>
      <cc:Work
         rdf:about="">
        <dc:format>image/svg+xml</dc:format>
        <dc:type
           rdf:resource="http://purl.org/dc/dcmitype/StillImage" />
        <dc:title></dc:title>
      </cc:Work>
    </rdf:RDF>
  </metadata>
  <g
     inkscape:label="Livello 1"
     inkscape:groupmode="layer"
     id="layer1">
    <path
       style="opacity:0.45606695;fill:#000000;fill-opacity:1;filter:url(#filter4123)"
       d="m 13.333,5.3364 0,117.8304 49.8545,0.4332 c 2.115476,0.0184 4.528919,-1.77169 7,-4.25 0.71234,-0.71442 1.440746,-1.39395 2.15625,-2.09375 0.415612,-0.40649 0.832187,-0.81443 1.25,-1.21875 7.773958,-7.40962 26.98341,-25.122599 34.21875,-33.099999 0.42065,-0.42064 0.81207,-0.8111 1.15625,-1.1875 1.46444,-1.49766 2.76158,-2.8378 2.99375,-5.8625 L 112,75.156251 111.9972,5.3364 z"
       id="path5990"
       inkscape:connector-curvature="0"
       sodipodi:nodetypes="ccsssccccccc" />
    <path
       sodipodi:nodetypes="cccccccc"
       id="path3722"
       d="m 13.333,5.3364 0,118.3304 49.3318,0.3 c 1.527964,0 3.65713,-0.98408 6.387944,-2.83388 C 82.175824,111.57445 97.49744,91.890146 108.75009,80.500071 110.49334,78.756821 112,77.462561 112,73.300001 L 111.9972,5.3364 z"
       style="fill:#000000;fill-opacity:0.84716159;filter:url(#filter4111)"
       inkscape:connector-curvature="0" />
    <path
       style="fill:#ffffff;fill-opacity:1"
       d="m 13.333,5.3364 0,117.3304 49.3318,0 c 1.675283,0 3.914297,-0.56468 7,-3.6 8.870045,-8.72523 32.07567,-31.518599 39.33424,-38.842759 C 111.4396,77.761431 112,75.752871 112,73.500001 L 111.9972,5.3364 z"
       id="path34"
       sodipodi:nodetypes="cccssccc"
       inkscape:connector-curvature="0" />
    <path
       style="fill:url(#linearGradient4524-4);fill-opacity:1"
       d="m 16.5,8.000003 c -0.339844,0 -0.5,0.234618 -0.5,0.5 l 0,109.968747 c 0,0.82158 0.679323,1.5 1.5,1.5 l 48.6875,0 c 0.05308,0 0.810384,0.0234 1.5,0.0313 1.777664,-0.0401 3.131974,-0.75374 4.356035,-1.59328 1.051866,-0.29103 25.980435,-26.619589 35.101555,-35.809239 1.36239,-1.37262 2.18546,-3.94817 2.18546,-4.89561 l 5e-5,-69.201918 c 0,-0.322717 -0.16322,-0.5 -0.5,-0.5 z"
       id="path3967"
       inkscape:connector-curvature="0"
       sodipodi:nodetypes="ccsssccscccc" />
    <path
       id="path4051"
       d="m 51.113719,72.138972 c 5.728369,-0.144003 11.456891,-1.508309 16.709752,-4.029564 6.94543,-3.343367 12.923697,-8.555012 17.22731,-15.009202 4.304994,-6.46968 6.886639,-13.996572 7.54157,-21.700496 C 93.248758,23.605834 91.979671,15.786584 89.080345,8.6640955 86.008124,1.2369655 81.313309,-5.2444712 75.62382,-10.448607 69.934332,-15.652739 63.270372,-19.597542 56.215369,-22.056709 49.929086,-24.25706 43.431703,-25.294165 37.102666,-25.346903 26.999572,-16.371004 17.263228,-7.0325862 9.9308351,0.34618851 8.1837346,2.3057945 8.5956047,1.6919725 8.1933168,3.7472885 l 0,2.439919 c 0.3370341,-0.390309 0.6989939,-0.81928 1.0720857,-1.21996 1.5882965,-1.705714 3.5061145,-3.480915 5.8040515,-5.17558599 2.297925,-1.69467101 4.984001,-3.27724591 8.022159,-4.58409161 3.74064,-1.6241311 8.112258,-2.8384551 12.901999,-3.253226 4.789741,-0.4147709 9.965281,-0.047296 15.120107,1.4048021 4.946553,1.4001081 9.96686,3.8572885 14.417706,7.35672751 4.450847,3.49943699 8.327185,8.02818899 10.868733,13.38258849 2.403068,4.984786 3.757071,10.709831 3.62291,16.487941 -0.125602,5.621685 -1.628449,11.39692 -4.547122,16.414004 -2.871961,4.947937 -7.129861,9.244121 -12.236566,12.088692 -5.09049,2.842569 -11.116891,4.306326 -17.0055,3.955627 C 40.290811,62.697271 34.383659,60.522029 29.672002,56.870991 24.852787,53.144852 21.242894,47.837783 19.579608,42.046631 18.387023,37.910389 18.216069,33.48726 18.988112,29.292506 c 0.772044,-4.194754 2.473836,-8.148859 4.990745,-11.423259 3.505981,-4.561569 8.558043,-7.8731135 13.900147,-8.8724355 2.828705,-0.5337 5.738634,-0.462114 8.428813,0.221811 2.822544,0.717177 5.393493,2.1321655 7.467633,3.9925965 2.19982,1.972622 3.80421,4.473899 4.658028,7.134916 0.91919,2.863693 0.956632,5.879276 0.221811,8.576687 -0.808038,2.96668 -2.534391,5.53368 -4.694997,7.28279 -2.462167,1.993016 -5.4443,2.938562 -8.170034,2.957478 -1.735638,0.01159 -3.343792,-0.353699 -4.768933,-0.924212 -1.42514,-0.570513 -2.670436,-1.343307 -3.659879,-2.218109 -1.58077,-1.397964 -2.555874,-2.994488 -3.142321,-4.399248 -0.228835,-0.548149 -0.393645,-1.068861 -0.517559,-1.552676 0.122064,0.524593 0.286102,1.073535 0.517559,1.663581 0.559585,1.42653 1.456284,3.02771 2.957478,4.473186 0.981614,0.944215 2.209363,1.819365 3.65988,2.476888 1.450516,0.657524 3.125661,1.106676 4.953775,1.182991 2.888821,0.115815 6.123153,-0.702967 8.909404,-2.735667 2.446006,-1.788306 4.508962,-4.461367 5.58224,-7.726412 0.97247,-2.967832 1.134773,-6.363883 0.258779,-9.685741 C 59.725456,16.636209 58.053124,13.677528 55.623873,11.25189 53.3362,8.9704375 50.427025,7.1732035 47.158092,6.1502395 c -3.109195,-0.971486 -6.489205,-1.259732 -9.870583,-0.813307 -6.378913,0.872939 -12.540115,4.278351 -17.0055,9.5008995 -3.192184,3.734251 -5.53233,8.282742 -6.765231,13.234715 -1.232902,4.951973 -1.363504,10.317906 -0.184843,15.563729 1.634835,7.229587 5.623692,14.005895 11.460228,19.112702 5.676268,4.951777 12.916533,8.203995 20.628411,9.131214 1.894127,0.225214 3.783688,0.306781 5.693145,0.25878 z M 33.627629,29.736128 c -0.04603,-0.227424 -0.08115,-0.417172 -0.110905,-0.628464 0.03148,0.202497 0.06186,0.408023 0.110905,0.628464 z"
       style="fill:#000000;fill-opacity:0.23580789;fill-rule:evenodd;stroke:none;filter:url(#filter4061)"
       inkscape:connector-curvature="0"
       mask="url(#mask4067)"
       transform="translate(-2.401958,-1.762262)" />
    <path
       sodipodi:nodetypes="ccssscccccc"
       inkscape:connector-curvature="0"
       id="path5980"
       d="m 16.5,8.000003 c -0.339844,0 -0.5,0.234618 -0.5,0.5 l 0,109.968747 c 0,0.82158 0.679323,1.49946 1.5,1.5 l 47.5,0.0313 c 0.05308,3e-5 3.273884,-0.008 3.9635,5e-5 6.540972,-4.50366 29.9679,-28.953329 38.91313,-37.955139 1.47685,-1.65649 0.4576,-0.37007 1.45391,-1.60746 l 6e-5,-71.937498 c 0,-0.322717 -0.16322,-0.5 -0.5,-0.5 z"
       style="opacity:0.84653476;fill:url(#radialGradient5988-0);fill-opacity:1" />
    <path
       style="fill:url(#linearGradient4076);fill-opacity:1;fill-rule:evenodd;stroke:none"
       d="m 68.093779,24.670218 c -0.810464,-0.0162 -1.644378,0.02962 -2.46064,0.07811 -6.342006,0.386167 -12.589341,2.708705 -17.77128,6.717934 -1.27125,0.986229 -2.474629,2.043299 -3.593314,3.202737 -3.356058,3.478322 -5.992512,7.717349 -7.655321,12.342252 -2.192851,6.120972 -2.681306,12.790852 -1.445137,19.216421 1.244511,6.435681 4.151205,12.481941 8.319303,17.497872 4.220469,5.070844 9.585936,8.998968 15.544988,11.561095 6.243296,2.642781 12.912331,3.757591 19.411706,3.515205 6.499376,-0.242397 12.858049,-4.964363 18.552436,-7.664336 4.97514,-2.351057 9.41931,-9.032237 13.20151,-12.651905 l 0,-28.466905 -1.09362,-1.132675 c 0.0286,0.434041 0.0651,0.905407 0.078,1.367022 0.0558,1.965149 -0.0525,4.18301 -0.42963,6.561704 -0.37704,2.378695 -1.05774,4.91508 -2.10912,7.499091 -1.28553,3.19056 -3.18774,6.483936 -5.81959,9.56915 -2.631848,3.085214 -5.96411,5.944153 -9.920675,8.124013 -3.800664,2.08777 -8.260339,3.567984 -13.006234,4.101068 -4.745895,0.533082 -9.754155,0.110466 -14.451372,-1.601374 -4.395174,-1.571739 -8.611011,-4.182785 -11.951674,-7.73343 -3.253182,-3.451613 -5.735028,-7.83441 -6.952282,-12.576606 -1.204371,-4.672986 -1.227341,-9.757831 0.156232,-14.490425 1.375014,-4.721793 4.144424,-9.183421 7.889667,-12.459426 3.776039,-3.310197 8.599761,-5.496571 13.592101,-6.093009 5.101426,-0.61501 10.413741,0.435131 14.841948,2.929331 3.165551,1.778713 5.908793,4.326663 7.928726,7.303802 2.019937,2.97714 3.322781,6.385181 3.749544,9.842555 0.594713,4.816289 -0.467981,9.789604 -3.085563,13.553045 -1.383341,1.995516 -3.173595,3.661156 -5.194682,4.843164 -2.120294,1.240393 -4.487492,1.920545 -6.835108,2.031001 -2.48955,0.117466 -4.941859,-0.430191 -7.030396,-1.52325 -2.247818,-1.176115 -4.07803,-2.982886 -5.23374,-5.038456 -1.271164,-2.260681 -1.746522,-4.817478 -1.484195,-7.14757 0.299074,-2.655174 1.537389,-4.975471 3.163678,-6.60076 1.035845,-1.034628 2.204064,-1.764251 3.398025,-2.265351 1.19396,-0.5011 2.402812,-0.798952 3.515198,-0.859271 1.755179,-0.09496 3.274754,0.254526 4.452585,0.742097 -1.18083,-0.525657 -2.694862,-0.957881 -4.452585,-0.937386 -1.14878,0.01399 -2.410705,0.200132 -3.671429,0.663982 -1.260722,0.463855 -2.528,1.1897 -3.671429,2.226293 -1.804039,1.640916 -3.24022,4.042317 -3.710488,6.913223 -0.410573,2.522624 -0.07769,5.370803 1.210791,7.967784 1.17306,2.35873 3.09211,4.459848 5.58526,5.936777 2.314303,1.368496 5.07217,2.168403 7.967783,2.187236 2.725187,0.01603 5.515436,-0.631874 8.084956,-1.952889 2.443078,-1.257355 4.677491,-3.080581 6.444531,-5.350915 3.315351,-4.301411 4.979566,-9.997887 4.569844,-15.779327 -0.293364,-4.13348 -1.597171,-8.246764 -3.788604,-11.951675 -2.191434,-3.704914 -5.286294,-6.998428 -9.100458,-9.451979 -4.604966,-2.953291 -10.067023,-4.651667 -15.740276,-4.765045 z m 11.795443,25.11414 c 0.162314,0.109372 0.286654,0.203143 0.429636,0.312461 -0.138817,-0.103013 -0.269648,-0.20907 -0.429636,-0.312461 z"
       id="path3169"
       inkscape:connector-curvature="0"
       sodipodi:nodetypes="sccsccccscccccccscscccccccsccccccccscccsccccccccscsccc" />
    <path
       style="fill:#000000"
       d=""
       id="path2197" />
    <path
       clip-path="url(#clipPath6093-7)"
       style="opacity:0.34728035;fill:#000000;fill-opacity:1;stroke:none;filter:url(#filter6171-8)"
       d="m 114.4,82.502986 c 0,4.465301 -4.99749,5.909952 -7.47972,7.593625 -5.10854,3.46508 -18.362065,-1.446073 -24.143235,-1.365053 -0.081,5.781159 3.371639,20.976032 -0.09344,26.084572 -1.68367,2.48224 -5.573338,8.68687 -8.483608,8.68687 -2.091359,1.5337 3.488204,8.21101 6.734971,5.31989 9.501888,-8.46107 35.131683,-30.022704 43.350823,-39.262889 2.04044,-2.29392 -4.90514,-9.844666 -9.88579,-7.057015 z"
       id="path6153"
       inkscape:connector-curvature="0"
       sodipodi:nodetypes="cscscssc"
       transform="matrix(1.2774204,0,0,1.2774204,-31.076286,-28.013102)" />
    <path
       sodipodi:nodetypes="cscscssc"
       inkscape:connector-curvature="0"
       id="path6081"
       d="m 113.9,82.502986 c 0,4.465301 -5.09749,6.009952 -7.57972,7.693625 -5.10854,3.46508 -16.139114,2.12536 -21.920284,2.20638 -0.081,5.781159 1.66586,17.304599 -1.79922,22.413139 -1.68367,2.48224 -4.69051,7.98687 -7.60078,7.98687 -2.091359,1.5337 3.488204,11.21101 6.734971,8.31989 9.501888,-8.46107 45.998943,-30.20138 54.218083,-39.441569 2.04044,-2.29392 -17.0724,-11.965986 -22.05305,-9.178335 z"
       style="opacity:0.40099009;fill:#000000;fill-opacity:1;stroke:none;filter:url(#filter6118-4)"
       clip-path="url(#clipPath6093-7)"
       transform="matrix(1.3299764,0,0,1.3299764,-36.963543,-37.156423)" />
    <path
       style="fill:url(#linearGradient3895-3);fill-opacity:1;stroke:none"
       d="m 111.99381,72.570604 c 0,5.938743 -3.72059,8.525082 -7.0219,10.764323 -6.794238,4.608475 -19.95169,4.558319 -27.64051,4.666073 -0.107728,7.688805 0.303611,20.48508 -4.304863,27.27932 -2.239241,3.30132 -7.036253,7.16441 -10.906844,7.16441 3.082925,0 6.307865,-1.7752 10.086567,-5.4327 12.158605,-11.76861 23.097887,-21.459634 34.14469,-33.645117 2.55216,-2.815215 5.64286,-4.843615 5.64286,-10.796309 z"
       id="path6011"
       inkscape:connector-curvature="0"
       sodipodi:nodetypes="cscscssc" />
    <path
       style="fill:#ffffff;fill-opacity:1;stroke:none"
       d="m 112.01875,73.115242 c -0.42084,5.185724 -5.08438,7.318602 -8.17936,9.417895 C 98.818947,85.938464 82.6646,85.3344 74.6648,85.3344 c 0,7.9998 1.619153,23.49711 -2.7864,30.22372 -1.912401,2.91993 -4.654194,5.79882 -8.19598,6.58338 2.633964,-0.48185 5.299865,-2.47561 8.470288,-5.54435 0.451018,-0.51674 0.763801,-0.90298 1.471286,-1.99496 4.608475,-6.79423 4.099678,-18.412383 4.207406,-26.10119 7.68882,-0.107728 20.028368,-0.145785 26.8226,-4.754259 0.619,-0.41986 2.51897,-1.313671 3.06727,-1.861967 2.04322,-2.043229 3.9922,-4.273773 4.29748,-8.769532 z M 63.68242,122.1415 c -0.209681,0.0464 -0.416863,0.0551 -0.623426,0.0831 0.208794,-0.0225 0.412882,-0.0446 0.623426,-0.0831 z"
       id="path6122"
       inkscape:connector-curvature="0"
       sodipodi:nodetypes="cscsccccsscccc" />
    <path
       style="fill:none;stroke:url(#radialGradient3919-5);stroke-width:1.20000005;stroke-linecap:butt;stroke-linejoin:miter;stroke-miterlimit:4;stroke-opacity:1;stroke-dasharray:none;filter:url(#filter3909-6)"
       d="M 117.31456,81.861283 72.639105,125.34835"
       id="path3873"
       inkscape:connector-curvature="0"
       sodipodi:nodetypes="cc"
       clip-path="url(#clipPath3889-6)"
       transform="matrix(1.3299764,0,0,1.3299764,-36.963543,-37.156423)" />
  </g>
</svg>
