<?xml version="1.0" encoding="UTF-8" standalone="no"?>
<!-- Created with Inkscape (http://www.inkscape.org/) -->

<svg
   xmlns:dc="http://purl.org/dc/elements/1.1/"
   xmlns:cc="http://creativecommons.org/ns#"
   xmlns:rdf="http://www.w3.org/1999/02/22-rdf-syntax-ns#"
   xmlns:svg="http://www.w3.org/2000/svg"
   xmlns="http://www.w3.org/2000/svg"
   xmlns:xlink="http://www.w3.org/1999/xlink"
   xmlns:sodipodi="http://sodipodi.sourceforge.net/DTD/sodipodi-0.dtd"
   xmlns:inkscape="http://www.inkscape.org/namespaces/inkscape"
   width="128"
   height="128"
   id="svg2606"
   sodipodi:version="0.32"
   inkscape:version="0.48.0 r9654"
   version="1.0"
   sodipodi:docname="application-x-troff-man.svgz"
   inkscape:output_extension="org.inkscape.output.svgz.inkscape"
   inkscape:export-filename="/home/pinheiro/pics/oxygen-icons/scalable/mimetypes/small/48x48/application-x-troff-man.png"
   inkscape:export-xdpi="135"
   inkscape:export-ydpi="135">
  <defs
     id="defs2608">
    <linearGradient
       id="linearGradient6131">
      <stop
         id="stop6133"
         offset="0"
         style="stop-color:#fcfcfc;stop-opacity:1" />
      <stop
         style="stop-color:#f8f8f8;stop-opacity:1"
         offset="0.52275378"
         id="stop6135" />
      <stop
         id="stop6141"
         offset="0.77457333"
         style="stop-color:#f0efef;stop-opacity:1;" />
      <stop
         id="stop6139"
         offset="0.90122044"
         style="stop-color:#e3e1e1;stop-opacity:1;" />
      <stop
         id="stop6137"
         offset="1"
         style="stop-color:#cecbcb;stop-opacity:1" />
    </linearGradient>
    <linearGradient
       inkscape:collect="always"
       xlink:href="#linearGradient6131"
       id="linearGradient3893"
       gradientUnits="userSpaceOnUse"
       gradientTransform="matrix(1.0119858,0,0,1.0119858,-0.89554075,-0.9871566)"
       x1="86.73793"
       y1="93.621468"
       x2="95.460213"
       y2="102.34375" />
    <radialGradient
       inkscape:collect="always"
       xlink:href="#linearGradient3913-5"
       id="radialGradient3919-5"
       cx="90.75"
       cy="110.25299"
       fx="90.75"
       fy="110.25299"
       r="18.750002"
       gradientTransform="matrix(1.3067347,0,0,1.3067347,-27.83617,-33.818441)"
       gradientUnits="userSpaceOnUse" />
    <linearGradient
       inkscape:collect="always"
       id="linearGradient3913-5">
      <stop
         style="stop-color:#ffffff;stop-opacity:1;"
         offset="0"
         id="stop3915-4" />
      <stop
         style="stop-color:#ffffff;stop-opacity:0;"
         offset="1"
         id="stop3917-7" />
    </linearGradient>
    <clipPath
       clipPathUnits="userSpaceOnUse"
       id="clipPath3889-6">
      <path
         sodipodi:nodetypes="cscscssc"
         inkscape:connector-curvature="0"
         id="path3891-5"
         d="m 112,82.502986 c 0,4.465301 -2.79749,6.409952 -5.27972,8.093625 -5.10854,3.46508 -14.939114,3.32536 -20.720284,3.40638 -0.081,5.781159 0.16586,15.504599 -3.29922,20.613139 -1.68367,2.48224 -5.29051,5.38687 -8.20078,5.38687 2.31803,0 4.74284,-1.33476 7.58402,-4.08481 9.14197,-8.84873 17.36714,-16.13535 25.673154,-25.297529 C 109.67612,88.503916 112,86.97878 112,82.502986 z"
         style="fill:url(#linearGradient3893);fill-opacity:1;stroke:none" />
    </clipPath>
    <filter
       color-interpolation-filters="sRGB"
       inkscape:collect="always"
       id="filter3909-6">
      <feGaussianBlur
         inkscape:collect="always"
         stdDeviation="0.43040059"
         id="feGaussianBlur3911-9" />
    </filter>
    <linearGradient
       inkscape:collect="always"
       xlink:href="#linearGradient3897-7"
       id="linearGradient3895-3"
       gradientUnits="userSpaceOnUse"
       gradientTransform="matrix(1.3459172,0,0,1.3459172,-38.154591,-38.469319)"
       x1="86.73793"
       y1="93.621468"
       x2="95.18235"
       y2="102.06589" />
    <linearGradient
       id="linearGradient3897-7">
      <stop
         style="stop-color:#fcfcfc;stop-opacity:1"
         offset="0"
         id="stop3899-4" />
      <stop
         id="stop3901-5"
         offset="0.52275378"
         style="stop-color:#f8f8f8;stop-opacity:1" />
      <stop
         style="stop-color:#f0efef;stop-opacity:1;"
         offset="0.72337759"
         id="stop3903-2" />
      <stop
         style="stop-color:#e3e1e1;stop-opacity:1;"
         offset="0.89024991"
         id="stop3905-5" />
      <stop
         style="stop-color:#cecbcb;stop-opacity:1"
         offset="1"
         id="stop3907-4" />
    </linearGradient>
    <clipPath
       clipPathUnits="userSpaceOnUse"
       id="clipPath6093-7">
      <path
         inkscape:connector-curvature="0"
         sodipodi:nodetypes="cccssccc"
         id="path6095-4"
         d="m 17.000001,8 0.782827,110 57.5,0 c 1.675283,0 3.119418,0.18058 4.9,-1.6 C 88.980763,107.60206 99.94047,96.548195 107.19904,89.224043 109.6396,86.761431 110,84.752873 110,82.5 L 110,8 z"
         style="fill:#ffffff;fill-opacity:1" />
    </clipPath>
    <filter
       color-interpolation-filters="sRGB"
       inkscape:collect="always"
       id="filter6118-4"
       x="-0.1126375"
       width="1.225275"
       y="-0.12064722"
       height="1.2412944">
      <feGaussianBlur
         inkscape:collect="always"
         stdDeviation="2.3860572"
         id="feGaussianBlur6120-3" />
    </filter>
    <radialGradient
       inkscape:collect="always"
       xlink:href="#linearGradient5982-7"
       id="radialGradient5988-0"
       cx="64"
       cy="64.004021"
       fx="63.793392"
       fy="47.274845"
       r="47.5"
       gradientTransform="matrix(1.6842105,-0.08429519,0.06886339,1.3758846,-48.197001,-18.66323)"
       gradientUnits="userSpaceOnUse" />
    <linearGradient
       inkscape:collect="always"
       id="linearGradient5982-7">
      <stop
         style="stop-color:#ffffff;stop-opacity:1;"
         offset="0"
         id="stop5984-8" />
      <stop
         style="stop-color:#ffffff;stop-opacity:0;"
         offset="1"
         id="stop5986-6" />
    </linearGradient>
    <filter
       color-interpolation-filters="sRGB"
       inkscape:collect="always"
       id="filter6171-8"
       x="-0.47870937"
       width="1.9574188"
       y="-0.51275069"
       height="2.0255013">
      <feGaussianBlur
         inkscape:collect="always"
         stdDeviation="10.140743"
         id="feGaussianBlur6173-8" />
    </filter>
    <linearGradient
       inkscape:collect="always"
       xlink:href="#linearGradient4518-3"
       id="linearGradient4524-4"
       x1="72"
       y1="0"
       x2="72"
       y2="116.40091"
       gradientUnits="userSpaceOnUse"
       gradientTransform="translate(3.9208985e-7,2.7836914e-6)" />
    <linearGradient
       id="linearGradient4518-3">
      <stop
         style="stop-color:#eeecec;stop-opacity:1"
         offset="0"
         id="stop4520-1" />
      <stop
         id="stop5969-4"
         offset="0.40000001"
         style="stop-color:#f4f4f4;stop-opacity:1" />
      <stop
         style="stop-color:#f6f5f5;stop-opacity:1"
         offset="1"
         id="stop4522-9" />
    </linearGradient>
    <filter
       inkscape:collect="always"
       id="filter4111">
      <feGaussianBlur
         inkscape:collect="always"
         stdDeviation="1.5615"
         id="feGaussianBlur4113" />
    </filter>
    <filter
       inkscape:collect="always"
       id="filter4123">
      <feGaussianBlur
         inkscape:collect="always"
         stdDeviation="2.028"
         id="feGaussianBlur4125" />
    </filter>
    <linearGradient
       id="linearGradient11775"
       inkscape:collect="always">
      <stop
         id="stop11777"
         offset="0"
         style="stop-color:#000000;stop-opacity:1;" />
      <stop
         id="stop11779"
         offset="1"
         style="stop-color:#000000;stop-opacity:0;" />
    </linearGradient>
    <clipPath
       id="clipPath11769"
       clipPathUnits="userSpaceOnUse">
      <path
         style="opacity:0.84653476;fill:url(#radialGradient11773);fill-opacity:1"
         d="m 21,14.5 c -0.339844,0 -0.5,0.234618 -0.5,0.5 l 0,108.96875 c 0,0.82158 0.679323,1.49953 1.5,1.5 L 77,125.5 c 0.05307,3e-5 0.997884,-0.008 1.6875,5e-5 10.098603,-3.99538 25.4133,-22.45328 34.35853,-31.455094 1.47685,-1.656484 1.11385,-1.151317 1.45391,-2.888706 L 114.5,15 c 0,-0.322717 -0.16322,-0.5 -0.5,-0.5 z"
         id="path11771"
         inkscape:connector-curvature="0"
         sodipodi:nodetypes="ccssscccccc" />
    </clipPath>
    <filter
       color-interpolation-filters="sRGB"
       id="filter4419"
       inkscape:collect="always">
      <feGaussianBlur
         id="feGaussianBlur4421"
         stdDeviation="0.17397607"
         inkscape:collect="always" />
    </filter>
    <linearGradient
       y2="5.2081561"
       x2="9.7537365"
       y1="108.7993"
       x1="101.21068"
       gradientUnits="userSpaceOnUse"
       id="linearGradient5802"
       xlink:href="#linearGradient11775"
       inkscape:collect="always" />
    <clipPath
       id="clipPath10621"
       clipPathUnits="userSpaceOnUse">
      <path
         sodipodi:nodetypes="ccssscccccc"
         inkscape:connector-curvature="0"
         id="path10623"
         d="m 87.770905,-165.49058 c -0.936918,0 -1.378453,0.65139 -1.378453,1.38819 l 0,302.53957 c 0,2.28103 1.87283,4.16326 4.13536,4.16458 l 148.817408,0.0868 c 0.14631,9e-5 2.75107,-0.0222 4.65228,1.3e-4 27.8409,-11.09272 71.16486,-65.197638 95.82602,-90.190158 4.07154,-4.599043 3.07078,-3.196503 4.0083,-8.02017 l 1.70986,-208.580722 c 0,-0.89599 -0.44998,-1.38819 -1.37845,-1.38819 z"
         style="opacity:0.84653476;fill:url(#radialGradient10625);fill-opacity:1" />
    </clipPath>
    <filter
       color-interpolation-filters="sRGB"
       inkscape:collect="always"
       id="filter6220">
      <feGaussianBlur
         inkscape:collect="always"
         stdDeviation="1.0673869"
         id="feGaussianBlur6222" />
    </filter>
    <filter
       color-interpolation-filters="sRGB"
       inkscape:collect="always"
       id="filter5973"
       x="-0.028644674"
       width="1.0572892"
       y="-0.52419752"
       height="2.0483952">
      <feGaussianBlur
         inkscape:collect="always"
         stdDeviation="1.0920782"
         id="feGaussianBlur5975" />
    </filter>
    <linearGradient
       y2="4"
       x2="88"
       y1="112"
       x1="84"
       gradientTransform="translate(205.39132,-6.4999999)"
       gradientUnits="userSpaceOnUse"
       id="linearGradient10581"
       xlink:href="#linearGradient3834"
       inkscape:collect="always" />
    <linearGradient
       id="linearGradient3834">
      <stop
         style="stop-color:#b27a25;stop-opacity:1;"
         offset="0"
         id="stop3836" />
      <stop
         style="stop-color:#dfcda2;stop-opacity:1"
         offset="1"
         id="stop3838" />
    </linearGradient>
    <linearGradient
       y2="64.5"
       x2="36.046307"
       y1="64.5"
       x1="17.5"
       gradientTransform="translate(205.39132,-6.4999999)"
       gradientUnits="userSpaceOnUse"
       id="linearGradient10583"
       xlink:href="#linearGradient4108"
       inkscape:collect="always" />
    <linearGradient
       id="linearGradient4108">
      <stop
         style="stop-color:#000000;stop-opacity:1;"
         offset="0"
         id="stop4110" />
      <stop
         id="stop4124"
         offset="0.11028159"
         style="stop-color:#1e0504;stop-opacity:1" />
      <stop
         id="stop4116"
         offset="0.18176427"
         style="stop-color:#4a362c;stop-opacity:1" />
      <stop
         style="stop-color:#3e2b22;stop-opacity:1"
         offset="0.64786237"
         id="stop5740" />
      <stop
         id="stop5742"
         offset="0.67893541"
         style="stop-color:#413936;stop-opacity:0.95686275;" />
      <stop
         id="stop5744"
         offset="0.71000844"
         style="stop-color:#241914;stop-opacity:1" />
      <stop
         style="stop-color:#5b524c;stop-opacity:1"
         offset="0.76072329"
         id="stop4122" />
      <stop
         id="stop4126"
         offset="0.80179423"
         style="stop-color:#422e25;stop-opacity:1" />
      <stop
         style="stop-color:#422e25;stop-opacity:1"
         offset="0.96943182"
         id="stop4128" />
      <stop
         id="stop4130"
         offset="0.97647417"
         style="stop-color:#12100e;stop-opacity:0.49803922;" />
      <stop
         style="stop-color:#000000;stop-opacity:0;"
         offset="1"
         id="stop4112" />
    </linearGradient>
    <linearGradient
       y2="64.5"
       x2="36.016068"
       y1="64.5"
       x1="17.5"
       gradientUnits="userSpaceOnUse"
       id="linearGradient10585"
       xlink:href="#linearGradient4170"
       inkscape:collect="always" />
    <linearGradient
       id="linearGradient4170">
      <stop
         id="stop4172"
         offset="0"
         style="stop-color:#000000;stop-opacity:1;" />
      <stop
         style="stop-color:#1e0504;stop-opacity:1"
         offset="0.1030781"
         id="stop5754" />
      <stop
         style="stop-color:#4a362c;stop-opacity:1"
         offset="0.24779607"
         id="stop5756" />
      <stop
         id="stop4178"
         offset="0.64786237"
         style="stop-color:#3e2b22;stop-opacity:1" />
      <stop
         style="stop-color:#413936;stop-opacity:0.95686275;"
         offset="0.67893541"
         id="stop4180" />
      <stop
         style="stop-color:#241914;stop-opacity:1"
         offset="0.71000844"
         id="stop4182" />
      <stop
         id="stop4184"
         offset="0.76072329"
         style="stop-color:#5b524c;stop-opacity:1" />
      <stop
         style="stop-color:#422e25;stop-opacity:1"
         offset="0.80179423"
         id="stop4186" />
      <stop
         id="stop5763"
         offset="0.96271122"
         style="stop-color:#422e25;stop-opacity:1" />
      <stop
         style="stop-color:#12100e;stop-opacity:0.49803922;"
         offset="0.9773469"
         id="stop5765" />
      <stop
         id="stop4192"
         offset="1"
         style="stop-color:#000000;stop-opacity:0;" />
    </linearGradient>
    <mask
       maskUnits="userSpaceOnUse"
       id="mask4158">
      <rect
         style="opacity:0.93305437;fill:url(#linearGradient4162);fill-opacity:1;stroke:none"
         id="rect4160"
         width="94.5"
         height="116.25"
         x="-10.25"
         y="11"
         rx="2"
         ry="1.875" />
    </mask>
    <linearGradient
       inkscape:collect="always"
       xlink:href="#linearGradient4150"
       id="linearGradient4162"
       gradientUnits="userSpaceOnUse"
       x1="42.5"
       y1="121.375"
       x2="42.5"
       y2="21.874685" />
    <linearGradient
       inkscape:collect="always"
       id="linearGradient4150">
      <stop
         style="stop-color:#ffffff;stop-opacity:1;"
         offset="0"
         id="stop4152" />
      <stop
         style="stop-color:#ffffff;stop-opacity:0;"
         offset="1"
         id="stop4154" />
    </linearGradient>
    <filter
       color-interpolation-filters="sRGB"
       id="filter4164"
       inkscape:label="filter7">
      <feBlend
         blend="normal"
         id="feBlend4166"
         in2="SourceGraphic"
         mode="multiply" />
    </filter>
    <mask
       maskUnits="userSpaceOnUse"
       id="mask5943">
      <path
         style="fill:#ffffff;fill-opacity:1;stroke:#ffffff;stroke-opacity:1;filter:url(#filter5929)"
         d="m 127.59375,-15.1 c -1.57715,0 -2.875,1.266597 -2.875,2.84375 l 0,152.3125 c 0,1.57716 1.29785,2.84375 2.875,2.84375 L 250,142.9 c 2.36573,0 4.28125,-1.91552 4.28125,-4.28125 l 0,-149.4375 C 254.28125,-13.184479 252.36573,-15.1 250,-15.1 l -122.40625,0 z M 146,8.4 l 86,0 c 1.662,0 3,1.338 3,3 l 0,105 c 0,1.662 -1.338,3 -3,3 l -86,0 c -1.108,0 -2,-0.892 -2,-2 l 0,-107 c 0,-1.108 0.892,-2 2,-2 z"
         id="path5945"
         inkscape:connector-curvature="0" />
    </mask>
    <filter
       color-interpolation-filters="sRGB"
       inkscape:collect="always"
       id="filter5929">
      <feGaussianBlur
         inkscape:collect="always"
         stdDeviation="0.88753858"
         id="feGaussianBlur5931" />
    </filter>
    <filter
       color-interpolation-filters="sRGB"
       id="filter5780"
       inkscape:label="filter7">
      <feBlend
         blend="normal"
         id="feBlend5782"
         in2="SourceGraphic"
         mode="multiply" />
    </filter>
    <linearGradient
       y2="4"
       x2="88"
       y1="112"
       x1="84"
       gradientTransform="translate(126.5,0)"
       gradientUnits="userSpaceOnUse"
       id="linearGradient10587"
       xlink:href="#linearGradient3834"
       inkscape:collect="always" />
    <linearGradient
       id="linearGradient5785">
      <stop
         style="stop-color:#b27a25;stop-opacity:1;"
         offset="0"
         id="stop5787" />
      <stop
         style="stop-color:#dfcda2;stop-opacity:1"
         offset="1"
         id="stop5789" />
    </linearGradient>
    <linearGradient
       y2="64.5"
       x2="36.046307"
       y1="64.5"
       x1="17.5"
       gradientTransform="translate(126.5,0)"
       gradientUnits="userSpaceOnUse"
       id="linearGradient10589"
       xlink:href="#linearGradient4108"
       inkscape:collect="always" />
    <linearGradient
       id="linearGradient5792">
      <stop
         style="stop-color:#000000;stop-opacity:1;"
         offset="0"
         id="stop5794" />
      <stop
         id="stop5796"
         offset="0.11028159"
         style="stop-color:#1e0504;stop-opacity:1" />
      <stop
         id="stop5798"
         offset="0.18176427"
         style="stop-color:#4a362c;stop-opacity:1" />
      <stop
         style="stop-color:#3e2b22;stop-opacity:1"
         offset="0.64786237"
         id="stop5800" />
      <stop
         id="stop5802"
         offset="0.67893541"
         style="stop-color:#413936;stop-opacity:0.95686275;" />
      <stop
         id="stop5804"
         offset="0.71000844"
         style="stop-color:#241914;stop-opacity:1" />
      <stop
         style="stop-color:#5b524c;stop-opacity:1"
         offset="0.76072329"
         id="stop5806" />
      <stop
         id="stop5808"
         offset="0.80179423"
         style="stop-color:#422e25;stop-opacity:1" />
      <stop
         style="stop-color:#422e25;stop-opacity:1"
         offset="0.96943182"
         id="stop5810" />
      <stop
         id="stop5812"
         offset="0.97647417"
         style="stop-color:#12100e;stop-opacity:0.49803922;" />
      <stop
         style="stop-color:#000000;stop-opacity:0;"
         offset="1"
         id="stop5814" />
    </linearGradient>
    <linearGradient
       y2="64.5"
       x2="36.016068"
       y1="64.5"
       x1="17.5"
       gradientUnits="userSpaceOnUse"
       id="linearGradient10591"
       xlink:href="#linearGradient4170"
       inkscape:collect="always" />
    <linearGradient
       id="linearGradient5817">
      <stop
         id="stop5819"
         offset="0"
         style="stop-color:#000000;stop-opacity:1;" />
      <stop
         style="stop-color:#1e0504;stop-opacity:1"
         offset="0.1030781"
         id="stop5821" />
      <stop
         style="stop-color:#4a362c;stop-opacity:1"
         offset="0.24779607"
         id="stop5823" />
      <stop
         id="stop5825"
         offset="0.64786237"
         style="stop-color:#3e2b22;stop-opacity:1" />
      <stop
         style="stop-color:#413936;stop-opacity:0.95686275;"
         offset="0.67893541"
         id="stop5827" />
      <stop
         style="stop-color:#241914;stop-opacity:1"
         offset="0.71000844"
         id="stop5829" />
      <stop
         id="stop5831"
         offset="0.76072329"
         style="stop-color:#5b524c;stop-opacity:1" />
      <stop
         style="stop-color:#422e25;stop-opacity:1"
         offset="0.80179423"
         id="stop5833" />
      <stop
         id="stop5835"
         offset="0.96271122"
         style="stop-color:#422e25;stop-opacity:1" />
      <stop
         style="stop-color:#12100e;stop-opacity:0.49803922;"
         offset="0.9773469"
         id="stop5837" />
      <stop
         id="stop5839"
         offset="1"
         style="stop-color:#000000;stop-opacity:0;" />
    </linearGradient>
    <mask
       maskUnits="userSpaceOnUse"
       id="mask5841">
      <rect
         style="opacity:0.93305437;fill:url(#linearGradient4162);fill-opacity:1;stroke:none"
         id="rect5843"
         width="94.5"
         height="116.25"
         x="-10.25"
         y="11"
         rx="2"
         ry="1.875" />
    </mask>
    <linearGradient
       inkscape:collect="always"
       xlink:href="#linearGradient4150"
       id="linearGradient5845"
       gradientUnits="userSpaceOnUse"
       x1="42.5"
       y1="121.375"
       x2="42.5"
       y2="21.874685" />
    <filter
       color-interpolation-filters="sRGB"
       id="filter5853"
       inkscape:label="filter7">
      <feBlend
         blend="normal"
         id="feBlend5855"
         in2="SourceGraphic"
         mode="multiply" />
    </filter>
    <mask
       maskUnits="userSpaceOnUse"
       id="mask5857">
      <path
         style="fill:#ffffff;fill-opacity:1;stroke:#ffffff;stroke-opacity:1;filter:url(#filter5929)"
         d="m 127.59375,-15.1 c -1.57715,0 -2.875,1.266597 -2.875,2.84375 l 0,152.3125 c 0,1.57716 1.29785,2.84375 2.875,2.84375 L 250,142.9 c 2.36573,0 4.28125,-1.91552 4.28125,-4.28125 l 0,-149.4375 C 254.28125,-13.184479 252.36573,-15.1 250,-15.1 l -122.40625,0 z M 146,8.4 l 86,0 c 1.662,0 3,1.338 3,3 l 0,105 c 0,1.662 -1.338,3 -3,3 l -86,0 c -1.108,0 -2,-0.892 -2,-2 l 0,-107 c 0,-1.108 0.892,-2 2,-2 z"
         id="path5859"
         inkscape:connector-curvature="0" />
    </mask>
    <filter
       color-interpolation-filters="sRGB"
       id="filter5865"
       inkscape:label="filter7">
      <feBlend
         blend="normal"
         id="feBlend5867"
         in2="SourceGraphic"
         mode="multiply" />
    </filter>
    <linearGradient
       y2="4"
       x2="88"
       y1="112"
       x1="84"
       gradientTransform="translate(126.5,0)"
       gradientUnits="userSpaceOnUse"
       id="linearGradient10605"
       xlink:href="#linearGradient3834"
       inkscape:collect="always" />
    <linearGradient
       id="linearGradient5870">
      <stop
         style="stop-color:#b27a25;stop-opacity:1;"
         offset="0"
         id="stop5872" />
      <stop
         style="stop-color:#dfcda2;stop-opacity:1"
         offset="1"
         id="stop5874" />
    </linearGradient>
    <linearGradient
       y2="64.5"
       x2="36.046307"
       y1="64.5"
       x1="17.5"
       gradientTransform="translate(126.5,0)"
       gradientUnits="userSpaceOnUse"
       id="linearGradient10607"
       xlink:href="#linearGradient4108"
       inkscape:collect="always" />
    <linearGradient
       id="linearGradient5877">
      <stop
         style="stop-color:#000000;stop-opacity:1;"
         offset="0"
         id="stop5879" />
      <stop
         id="stop5881"
         offset="0.11028159"
         style="stop-color:#1e0504;stop-opacity:1" />
      <stop
         id="stop5883"
         offset="0.18176427"
         style="stop-color:#4a362c;stop-opacity:1" />
      <stop
         style="stop-color:#3e2b22;stop-opacity:1"
         offset="0.64786237"
         id="stop5885" />
      <stop
         id="stop5887"
         offset="0.67893541"
         style="stop-color:#413936;stop-opacity:0.95686275;" />
      <stop
         id="stop5889"
         offset="0.71000844"
         style="stop-color:#241914;stop-opacity:1" />
      <stop
         style="stop-color:#5b524c;stop-opacity:1"
         offset="0.76072329"
         id="stop5891" />
      <stop
         id="stop5893"
         offset="0.80179423"
         style="stop-color:#422e25;stop-opacity:1" />
      <stop
         style="stop-color:#422e25;stop-opacity:1"
         offset="0.96943182"
         id="stop5895" />
      <stop
         id="stop5897"
         offset="0.97647417"
         style="stop-color:#12100e;stop-opacity:0.49803922;" />
      <stop
         style="stop-color:#000000;stop-opacity:0;"
         offset="1"
         id="stop5899" />
    </linearGradient>
    <linearGradient
       y2="64.5"
       x2="36.016068"
       y1="64.5"
       x1="17.5"
       gradientUnits="userSpaceOnUse"
       id="linearGradient10609"
       xlink:href="#linearGradient4170"
       inkscape:collect="always" />
    <linearGradient
       id="linearGradient5902">
      <stop
         id="stop5904"
         offset="0"
         style="stop-color:#000000;stop-opacity:1;" />
      <stop
         style="stop-color:#1e0504;stop-opacity:1"
         offset="0.1030781"
         id="stop5906" />
      <stop
         style="stop-color:#4a362c;stop-opacity:1"
         offset="0.24779607"
         id="stop5908" />
      <stop
         id="stop5910"
         offset="0.64786237"
         style="stop-color:#3e2b22;stop-opacity:1" />
      <stop
         style="stop-color:#413936;stop-opacity:0.95686275;"
         offset="0.67893541"
         id="stop5912" />
      <stop
         style="stop-color:#241914;stop-opacity:1"
         offset="0.71000844"
         id="stop5914" />
      <stop
         id="stop5916"
         offset="0.76072329"
         style="stop-color:#5b524c;stop-opacity:1" />
      <stop
         style="stop-color:#422e25;stop-opacity:1"
         offset="0.80179423"
         id="stop5918" />
      <stop
         id="stop5920"
         offset="0.96271122"
         style="stop-color:#422e25;stop-opacity:1" />
      <stop
         style="stop-color:#12100e;stop-opacity:0.49803922;"
         offset="0.9773469"
         id="stop5922" />
      <stop
         id="stop5924"
         offset="1"
         style="stop-color:#000000;stop-opacity:0;" />
    </linearGradient>
    <mask
       maskUnits="userSpaceOnUse"
       id="mask5926">
      <rect
         style="opacity:0.93305437;fill:url(#linearGradient4162);fill-opacity:1;stroke:none"
         id="rect5928"
         width="94.5"
         height="116.25"
         x="-10.25"
         y="11"
         rx="2"
         ry="1.875" />
    </mask>
    <linearGradient
       inkscape:collect="always"
       xlink:href="#linearGradient4150"
       id="linearGradient5930"
       gradientUnits="userSpaceOnUse"
       x1="42.5"
       y1="121.375"
       x2="42.5"
       y2="21.874685" />
    <filter
       color-interpolation-filters="sRGB"
       id="filter5938"
       inkscape:label="filter7">
      <feBlend
         blend="normal"
         id="feBlend5940"
         in2="SourceGraphic"
         mode="multiply" />
    </filter>
    <radialGradient
       r="48.370987"
       fy="119.1"
       fx="63.150002"
       cy="119.1"
       cx="63.150002"
       gradientTransform="matrix(0.98972389,-2.8885549e-8,0,0.21395373,0.64893517,93.618109)"
       gradientUnits="userSpaceOnUse"
       id="radialGradient10617"
       xlink:href="#linearGradient14018"
       inkscape:collect="always" />
    <linearGradient
       inkscape:collect="always"
       id="linearGradient14018">
      <stop
         style="stop-color:#000000;stop-opacity:1;"
         offset="0"
         id="stop14020" />
      <stop
         style="stop-color:#000000;stop-opacity:0;"
         offset="1"
         id="stop14022" />
    </linearGradient>
  </defs>
  <sodipodi:namedview
     id="base"
     pagecolor="#ffffff"
     bordercolor="#666666"
     borderopacity="1.0"
     inkscape:pageopacity="0.0"
     inkscape:pageshadow="2"
     inkscape:zoom="5.6568542"
     inkscape:cx="19.213261"
     inkscape:cy="79.759016"
     inkscape:document-units="px"
     inkscape:current-layer="layer1"
     width="128px"
     height="128px"
     showgrid="true"
     inkscape:grid-points="true"
     showguides="true"
     inkscape:guide-bbox="true"
     inkscape:window-width="1224"
     inkscape:window-height="757"
     inkscape:window-x="0"
     inkscape:window-y="383"
     inkscape:snap-global="false"
     inkscape:window-maximized="0"
     inkscape:snap-page="true">
    <inkscape:grid
       id="GridFromPre046Settings"
       type="xygrid"
       originx="0px"
       originy="0px"
       spacingx="2.6666px"
       spacingy="2.6666px"
       color="#0000ff"
       empcolor="#0000ff"
       opacity="0.2"
       empopacity="0.4"
       empspacing="2"
       visible="true"
       enabled="true"
       snapvisiblegridlinesonly="true" />
    <sodipodi:guide
       orientation="1,0"
       position="-68,29.325902"
       id="guide4564" />
    <sodipodi:guide
       orientation="1,0"
       position="-121.62237,135.0574"
       id="guide3859" />
    <sodipodi:guide
       orientation="0,1"
       position="38.581514,-74.688154"
       id="guide4360" />
  </sodipodi:namedview>
  <metadata
     id="metadata2611">
    <rdf:RDF>
      <cc:Work
         rdf:about="">
        <dc:format>image/svg+xml</dc:format>
        <dc:type
           rdf:resource="http://purl.org/dc/dcmitype/StillImage" />
        <dc:title></dc:title>
      </cc:Work>
    </rdf:RDF>
  </metadata>
  <g
     inkscape:label="Livello 1"
     inkscape:groupmode="layer"
     id="layer1">
    <path
       style="opacity:0.45606695;fill:#000000;fill-opacity:1;filter:url(#filter4123)"
       d="m 13.333,5.3364 0,117.8304 49.8545,0.4332 c 2.115476,0.0184 4.528919,-1.77169 7,-4.25 0.71234,-0.71442 1.440746,-1.39395 2.15625,-2.09375 0.415612,-0.40649 0.832187,-0.81443 1.25,-1.21875 7.773958,-7.40962 26.98341,-25.122599 34.21875,-33.099999 0.42065,-0.42064 0.81207,-0.8111 1.15625,-1.1875 1.46444,-1.49766 2.76158,-2.8378 2.99375,-5.8625 L 112,75.156251 111.9972,5.3364 z"
       id="path5990"
       inkscape:connector-curvature="0"
       sodipodi:nodetypes="ccsssccccccc" />
    <path
       sodipodi:nodetypes="cccccccc"
       id="path3722"
       d="m 13.333,5.3364 0,118.3304 49.3318,0.3 c 1.527964,0 3.65713,-0.98408 6.387944,-2.83388 C 82.175824,111.57445 97.49744,91.890146 108.75009,80.500071 110.49334,78.756821 112,77.462561 112,73.300001 L 111.9972,5.3364 z"
       style="fill:#000000;fill-opacity:0.84716159;filter:url(#filter4111)"
       inkscape:connector-curvature="0" />
    <path
       style="fill:#ffffff;fill-opacity:1"
       d="m 13.333,5.3364 0,117.3304 49.3318,0 c 1.675283,0 3.914297,-0.56468 7,-3.6 8.870045,-8.72523 32.07567,-31.518599 39.33424,-38.842759 C 111.4396,77.761431 112,75.752871 112,73.500001 L 111.9972,5.3364 z"
       id="path34"
       sodipodi:nodetypes="cccssccc"
       inkscape:connector-curvature="0" />
    <path
       style="fill:url(#linearGradient4524-4);fill-opacity:1"
       d="m 16.5,8.000003 c -0.339844,0 -0.5,0.234618 -0.5,0.5 l 0,109.968747 c 0,0.82158 0.679323,1.5 1.5,1.5 l 48.6875,0 c 0.05308,0 0.810384,0.0234 1.5,0.0313 1.777664,-0.0401 3.131974,-0.75374 4.356035,-1.59328 1.051866,-0.29103 25.980435,-26.619589 35.101555,-35.809239 1.36239,-1.37262 2.18546,-3.94817 2.18546,-4.89561 l 5e-5,-69.201918 c 0,-0.322717 -0.16322,-0.5 -0.5,-0.5 z"
       id="path3967"
       inkscape:connector-curvature="0"
       sodipodi:nodetypes="ccsssccscccc" />
    <path
       sodipodi:nodetypes="ccssscccccc"
       inkscape:connector-curvature="0"
       id="path5980"
       d="m 16.5,8.000003 c -0.339844,0 -0.5,0.234618 -0.5,0.5 l 0,109.968747 c 0,0.82158 0.679323,1.49946 1.5,1.5 l 47.5,0.0313 c 0.05308,3e-5 3.273884,-0.008 3.9635,5e-5 6.540972,-4.50366 29.9679,-28.953329 38.91313,-37.955139 1.47685,-1.65649 0.4576,-0.37007 1.45391,-1.60746 l 6e-5,-71.937498 c 0,-0.322717 -0.16322,-0.5 -0.5,-0.5 z"
       style="opacity:0.84653476;fill:url(#radialGradient5988-0);fill-opacity:1" />
    <path
       style="fill:#000000"
       d=""
       id="path2197" />
    <path
       clip-path="url(#clipPath6093-7)"
       style="opacity:0.34728035;fill:#000000;fill-opacity:1;stroke:none;filter:url(#filter6171-8)"
       d="m 114.4,82.502986 c 0,4.465301 -4.99749,5.909952 -7.47972,7.593625 -5.10854,3.46508 -18.362065,-1.446073 -24.143235,-1.365053 -0.081,5.781159 3.371639,20.976032 -0.09344,26.084572 -1.68367,2.48224 -5.573338,8.68687 -8.483608,8.68687 -2.091359,1.5337 3.488204,8.21101 6.734971,5.31989 9.501888,-8.46107 35.131683,-30.022704 43.350823,-39.262889 2.04044,-2.29392 -4.90514,-9.844666 -9.88579,-7.057015 z"
       id="path6153"
       inkscape:connector-curvature="0"
       sodipodi:nodetypes="cscscssc"
       transform="matrix(1.2774204,0,0,1.2774204,-31.076286,-28.013102)" />
    <g
       clip-path="url(#clipPath10621)"
       transform="matrix(0.58489856,0,0,0.57206767,-82.290873,41.259276)"
       id="g10550">
      <path
         style="opacity:0.40585776;fill:#0a0a0a;fill-opacity:1;stroke:none;filter:url(#filter6220)"
         d="m 224.9111,2.5000001 c -1.108,0 -2,0.892 -2,2 l 0,0.5 0,0.5 0,105.9999999 c 0,1.108 0.892,2 2,2 l 86,0 c 1.662,0 3,-1.338 3,-3 l 0,-5.5 0,-85.5 0,-12.4999999 0,-0.5 0,-0.5 0,-0.5 c 0,-1.662 -1.338,-3 -3,-3 z"
         id="rect6076"
         inkscape:connector-curvature="0"
         sodipodi:nodetypes="ssccsssscccccsss" />
      <rect
         style="opacity:0.27196649;fill:#000000;fill-opacity:1;stroke:none;filter:url(#filter5973)"
         id="rect5967"
         width="91.5"
         height="5"
         x="222.79132"
         y="110.1"
         rx="1.9802394"
         ry="1.875" />
      <path
         style="fill:url(#linearGradient10581);fill-opacity:1;stroke:none"
         d="m 224.89132,2.5000001 c -1.108,0 -2,0.892 -2,2 0,37.2211059 0,75.1263499 0,106.9999999 0,1.108 0.892,2 2,2 29.90597,0 60.38656,0 86,0 1.662,0 3,-1.338 3,-3 l 0,-104.9999999 c 0,-1.662 -1.338,-3 -3,-3 -30.0428,0 -60.16216,0 -86,0 z"
         id="rect3050"
         inkscape:connector-curvature="0"
         sodipodi:nodetypes="sssscsscs" />
      <path
         style="fill:url(#linearGradient10583);fill-opacity:1;stroke:none"
         d="m 224.89132,2.5000001 c -1.108,0 -2,0.892 -2,2 l 0,106.9999999 c 0,1.108 0.892,2 2,2 l 16.5,0 0,-110.9999999 z"
         id="rect4103"
         inkscape:connector-curvature="0"
         sodipodi:nodetypes="ssssccs" />
      <path
         id="path4146"
         d="m 19.5,9 c -1.108,0 -2,0.892 -2,2 l 0,107 c 0,1.108 0.892,2 2,2 L 36,120 36,9 z"
         style="fill:url(#linearGradient10585);fill-opacity:1;stroke:none;filter:url(#filter4164)"
         mask="url(#mask4158)"
         inkscape:connector-curvature="0"
         sodipodi:nodetypes="ssssccs"
         transform="translate(205.39132,-6.4999999)" />
      <g
         id="g5933"
         mask="url(#mask5943)"
         style="filter:url(#filter4164)"
         transform="translate(78.89132,-6.4999999)">
        <path
           style="fill:url(#linearGradient10587);fill-opacity:1;stroke:none"
           d="m 146,9 c -1.108,0 -2,0.892 -2,2 0,37.221106 0,75.12635 0,107 0,1.108 0.892,2 2,2 29.90597,0 60.38656,0 86,0 1.662,0 3,-1.338 3,-3 l 0,-105 c 0,-1.662 -1.338,-3 -3,-3 -30.0428,0 -60.16216,0 -86,0 z"
           id="path5890"
           inkscape:connector-curvature="0"
           sodipodi:nodetypes="sssscsscs" />
        <path
           style="fill:url(#linearGradient10589);fill-opacity:1;stroke:none"
           d="m 146,9 c -1.108,0 -2,0.892 -2,2 l 0,107 c 0,1.108 0.892,2 2,2 l 16.5,0 0,-111 z"
           id="path5894"
           inkscape:connector-curvature="0"
           sodipodi:nodetypes="ssssccs" />
        <path
           transform="translate(126.5,0)"
           id="path5896"
           d="m 19.5,9 c -1.108,0 -2,0.892 -2,2 l 0,107 c 0,1.108 0.892,2 2,2 L 36,120 36,9 z"
           style="fill:url(#linearGradient10591);fill-opacity:1;stroke:none;filter:url(#filter4164)"
           mask="url(#mask4158)"
           inkscape:connector-curvature="0"
           sodipodi:nodetypes="ssssccs" />
      </g>
      <g
         transform="translate(78.89132,-6.4999999)"
         style="filter:url(#filter4164)"
         mask="url(#mask5943)"
         id="g5949">
        <path
           sodipodi:nodetypes="sssscsscs"
           inkscape:connector-curvature="0"
           id="path5951"
           d="m 146,9 c -1.108,0 -2,0.892 -2,2 0,37.221106 0,75.12635 0,107 0,1.108 0.892,2 2,2 29.90597,0 60.38656,0 86,0 1.662,0 3,-1.338 3,-3 l 0,-105 c 0,-1.662 -1.338,-3 -3,-3 -30.0428,0 -60.16216,0 -86,0 z"
           style="fill:url(#linearGradient10605);fill-opacity:1;stroke:none" />
        <path
           sodipodi:nodetypes="ssssccs"
           inkscape:connector-curvature="0"
           id="path5955"
           d="m 146,9 c -1.108,0 -2,0.892 -2,2 l 0,107 c 0,1.108 0.892,2 2,2 l 16.5,0 0,-111 z"
           style="fill:url(#linearGradient10607);fill-opacity:1;stroke:none" />
        <path
           sodipodi:nodetypes="ssssccs"
           inkscape:connector-curvature="0"
           mask="url(#mask4158)"
           style="fill:url(#linearGradient10609);fill-opacity:1;stroke:none;filter:url(#filter4164)"
           d="m 19.5,9 c -1.108,0 -2,0.892 -2,2 l 0,107 c 0,1.108 0.892,2 2,2 L 36,120 36,9 z"
           id="path5957"
           transform="translate(126.5,0)" />
      </g>
      <rect
         ry="1.875"
         rx="1.9802394"
         y="116.6"
         x="17.400002"
         height="5"
         width="91.5"
         id="rect14016"
         style="opacity:0.2343096;fill:url(#radialGradient10617);fill-opacity:1;stroke:none;filter:url(#filter5973)"
         transform="matrix(1,0,0,0.77677194,205.39132,20.644532)" />
    </g>
    <path
       sodipodi:nodetypes="cscscssc"
       inkscape:connector-curvature="0"
       id="path6081"
       d="m 113.9,82.502986 c 0,4.465301 -5.09749,6.009952 -7.57972,7.693625 -5.10854,3.46508 -16.139114,2.12536 -21.920284,2.20638 -0.081,5.781159 1.66586,17.304599 -1.79922,22.413139 -1.68367,2.48224 -4.69051,7.98687 -7.60078,7.98687 -2.091359,1.5337 3.488204,11.21101 6.734971,8.31989 9.501888,-8.46107 45.998943,-30.20138 54.218083,-39.441569 2.04044,-2.29392 -17.0724,-11.965986 -22.05305,-9.178335 z"
       style="opacity:0.40099009;fill:#000000;fill-opacity:1;stroke:none;filter:url(#filter6118-4)"
       clip-path="url(#clipPath6093-7)"
       transform="matrix(1.3299764,0,0,1.3299764,-36.963543,-37.156423)" />
    <path
       style="fill:url(#linearGradient3895-3);fill-opacity:1;stroke:none"
       d="m 111.99381,72.570604 c 0,5.938743 -3.72059,8.525082 -7.0219,10.764323 -6.794238,4.608475 -19.95169,4.558319 -27.64051,4.666073 -0.107728,7.688805 0.303611,20.48508 -4.304863,27.27932 -2.239241,3.30132 -7.036253,7.16441 -10.906844,7.16441 3.082925,0 6.307865,-1.7752 10.086567,-5.4327 12.158605,-11.76861 23.097887,-21.459634 34.14469,-33.645117 2.55216,-2.815215 5.64286,-4.843615 5.64286,-10.796309 z"
       id="path6011"
       inkscape:connector-curvature="0"
       sodipodi:nodetypes="cscscssc" />
    <path
       style="fill:#ffffff;fill-opacity:1;stroke:none"
       d="m 112.01875,73.115242 c -0.42084,5.185724 -5.08438,7.318602 -8.17936,9.417895 C 98.818947,85.938464 82.6646,85.3344 74.6648,85.3344 c 0,7.9998 1.619153,23.49711 -2.7864,30.22372 -1.912401,2.91993 -4.654194,5.79882 -8.19598,6.58338 2.633964,-0.48185 5.299865,-2.47561 8.470288,-5.54435 0.451018,-0.51674 0.763801,-0.90298 1.471286,-1.99496 4.608475,-6.79423 4.099678,-18.412383 4.207406,-26.10119 7.68882,-0.107728 20.028368,-0.145785 26.8226,-4.754259 0.619,-0.41986 2.51897,-1.313671 3.06727,-1.861967 2.04322,-2.043229 3.9922,-4.273773 4.29748,-8.769532 z M 63.68242,122.1415 c -0.209681,0.0464 -0.416863,0.0551 -0.623426,0.0831 0.208794,-0.0225 0.412882,-0.0446 0.623426,-0.0831 z"
       id="path6122"
       inkscape:connector-curvature="0"
       sodipodi:nodetypes="cscsccccsscccc" />
    <path
       style="fill:none;stroke:url(#radialGradient3919-5);stroke-width:1.20000005;stroke-linecap:butt;stroke-linejoin:miter;stroke-miterlimit:4;stroke-opacity:1;stroke-dasharray:none;filter:url(#filter3909-6)"
       d="M 117.31456,81.861283 72.639105,125.34835"
       id="path3873"
       inkscape:connector-curvature="0"
       sodipodi:nodetypes="cc"
       clip-path="url(#clipPath3889-6)"
       transform="matrix(1.3299764,0,0,1.3299764,-36.963543,-37.156423)" />
  </g>
</svg>
