<?xml version="1.0" encoding="UTF-8" standalone="no"?>
<!-- Created with Inkscape (http://www.inkscape.org/) -->

<svg
   xmlns:dc="http://purl.org/dc/elements/1.1/"
   xmlns:cc="http://creativecommons.org/ns#"
   xmlns:rdf="http://www.w3.org/1999/02/22-rdf-syntax-ns#"
   xmlns:svg="http://www.w3.org/2000/svg"
   xmlns="http://www.w3.org/2000/svg"
   xmlns:xlink="http://www.w3.org/1999/xlink"
   xmlns:sodipodi="http://sodipodi.sourceforge.net/DTD/sodipodi-0.dtd"
   xmlns:inkscape="http://www.inkscape.org/namespaces/inkscape"
   width="128"
   height="128"
   id="svg2606"
   sodipodi:version="0.32"
   inkscape:version="0.48.0 r9654"
   version="1.0"
   sodipodi:docname="text-mathml.svgz"
   inkscape:output_extension="org.inkscape.output.svgz.inkscape"
   inkscape:export-filename="/home/pinheiro/pics/oxygen-icons/scalable/mimetypes/small/48x48/text-mathml.png"
   inkscape:export-xdpi="135"
   inkscape:export-ydpi="135">
  <defs
     id="defs2608">
    <linearGradient
       id="linearGradient6131">
      <stop
         id="stop6133"
         offset="0"
         style="stop-color:#fcfcfc;stop-opacity:1" />
      <stop
         style="stop-color:#f8f8f8;stop-opacity:1"
         offset="0.52275378"
         id="stop6135" />
      <stop
         id="stop6141"
         offset="0.77457333"
         style="stop-color:#f0efef;stop-opacity:1;" />
      <stop
         id="stop6139"
         offset="0.90122044"
         style="stop-color:#e3e1e1;stop-opacity:1;" />
      <stop
         id="stop6137"
         offset="1"
         style="stop-color:#cecbcb;stop-opacity:1" />
    </linearGradient>
    <linearGradient
       inkscape:collect="always"
       xlink:href="#linearGradient6131"
       id="linearGradient3893"
       gradientUnits="userSpaceOnUse"
       gradientTransform="matrix(1.0119858,0,0,1.0119858,-0.89554075,-0.9871566)"
       x1="86.73793"
       y1="93.621468"
       x2="95.460213"
       y2="102.34375" />
    <radialGradient
       inkscape:collect="always"
       xlink:href="#linearGradient3913-5"
       id="radialGradient3919-5"
       cx="90.75"
       cy="110.25299"
       fx="90.75"
       fy="110.25299"
       r="18.750002"
       gradientTransform="matrix(1.3067347,0,0,1.3067347,-27.83617,-33.818441)"
       gradientUnits="userSpaceOnUse" />
    <linearGradient
       inkscape:collect="always"
       id="linearGradient3913-5">
      <stop
         style="stop-color:#ffffff;stop-opacity:1;"
         offset="0"
         id="stop3915-4" />
      <stop
         style="stop-color:#ffffff;stop-opacity:0;"
         offset="1"
         id="stop3917-7" />
    </linearGradient>
    <clipPath
       clipPathUnits="userSpaceOnUse"
       id="clipPath3889-6">
      <path
         sodipodi:nodetypes="cscscssc"
         inkscape:connector-curvature="0"
         id="path3891-5"
         d="m 112,82.502986 c 0,4.465301 -2.79749,6.409952 -5.27972,8.093625 -5.10854,3.46508 -14.939114,3.32536 -20.720284,3.40638 -0.081,5.781159 0.16586,15.504599 -3.29922,20.613139 -1.68367,2.48224 -5.29051,5.38687 -8.20078,5.38687 2.31803,0 4.74284,-1.33476 7.58402,-4.08481 9.14197,-8.84873 17.36714,-16.13535 25.673154,-25.297529 C 109.67612,88.503916 112,86.97878 112,82.502986 z"
         style="fill:url(#linearGradient3893);fill-opacity:1;stroke:none" />
    </clipPath>
    <filter
       color-interpolation-filters="sRGB"
       inkscape:collect="always"
       id="filter3909-6">
      <feGaussianBlur
         inkscape:collect="always"
         stdDeviation="0.43040059"
         id="feGaussianBlur3911-9" />
    </filter>
    <linearGradient
       inkscape:collect="always"
       xlink:href="#linearGradient3897-7"
       id="linearGradient3895-3"
       gradientUnits="userSpaceOnUse"
       gradientTransform="matrix(1.3459172,0,0,1.3459172,-38.154591,-38.469319)"
       x1="86.73793"
       y1="93.621468"
       x2="95.18235"
       y2="102.06589" />
    <linearGradient
       id="linearGradient3897-7">
      <stop
         style="stop-color:#fcfcfc;stop-opacity:1"
         offset="0"
         id="stop3899-4" />
      <stop
         id="stop3901-5"
         offset="0.52275378"
         style="stop-color:#f8f8f8;stop-opacity:1" />
      <stop
         style="stop-color:#f0efef;stop-opacity:1;"
         offset="0.72337759"
         id="stop3903-2" />
      <stop
         style="stop-color:#e3e1e1;stop-opacity:1;"
         offset="0.89024991"
         id="stop3905-5" />
      <stop
         style="stop-color:#cecbcb;stop-opacity:1"
         offset="1"
         id="stop3907-4" />
    </linearGradient>
    <clipPath
       clipPathUnits="userSpaceOnUse"
       id="clipPath6093-7">
      <path
         inkscape:connector-curvature="0"
         sodipodi:nodetypes="cccssccc"
         id="path6095-4"
         d="m 17.000001,8 0.782827,110 57.5,0 c 1.675283,0 3.119418,0.18058 4.9,-1.6 C 88.980763,107.60206 99.94047,96.548195 107.19904,89.224043 109.6396,86.761431 110,84.752873 110,82.5 L 110,8 z"
         style="fill:#ffffff;fill-opacity:1" />
    </clipPath>
    <filter
       color-interpolation-filters="sRGB"
       inkscape:collect="always"
       id="filter6118-4"
       x="-0.1126375"
       width="1.225275"
       y="-0.12064722"
       height="1.2412944">
      <feGaussianBlur
         inkscape:collect="always"
         stdDeviation="2.3860572"
         id="feGaussianBlur6120-3" />
    </filter>
    <radialGradient
       inkscape:collect="always"
       xlink:href="#linearGradient5982-7"
       id="radialGradient5988-0"
       cx="64"
       cy="64.004021"
       fx="63.793392"
       fy="47.274845"
       r="47.5"
       gradientTransform="matrix(1.6842105,-0.08429519,0.06886339,1.3758846,-48.197001,-18.66323)"
       gradientUnits="userSpaceOnUse" />
    <linearGradient
       inkscape:collect="always"
       id="linearGradient5982-7">
      <stop
         style="stop-color:#ffffff;stop-opacity:1;"
         offset="0"
         id="stop5984-8" />
      <stop
         style="stop-color:#ffffff;stop-opacity:0;"
         offset="1"
         id="stop5986-6" />
    </linearGradient>
    <filter
       color-interpolation-filters="sRGB"
       inkscape:collect="always"
       id="filter6171-8"
       x="-0.47870937"
       width="1.9574188"
       y="-0.51275069"
       height="2.0255013">
      <feGaussianBlur
         inkscape:collect="always"
         stdDeviation="10.140743"
         id="feGaussianBlur6173-8" />
    </filter>
    <linearGradient
       inkscape:collect="always"
       xlink:href="#linearGradient4518-3"
       id="linearGradient4524-4"
       x1="72"
       y1="0"
       x2="72"
       y2="116.40091"
       gradientUnits="userSpaceOnUse"
       gradientTransform="translate(3.9208985e-7,2.7836914e-6)" />
    <linearGradient
       id="linearGradient4518-3">
      <stop
         style="stop-color:#eeecec;stop-opacity:1"
         offset="0"
         id="stop4520-1" />
      <stop
         id="stop5969-4"
         offset="0.40000001"
         style="stop-color:#f4f4f4;stop-opacity:1" />
      <stop
         style="stop-color:#f6f5f5;stop-opacity:1"
         offset="1"
         id="stop4522-9" />
    </linearGradient>
    <filter
       inkscape:collect="always"
       id="filter4111">
      <feGaussianBlur
         inkscape:collect="always"
         stdDeviation="1.5615"
         id="feGaussianBlur4113" />
    </filter>
    <filter
       inkscape:collect="always"
       id="filter4123">
      <feGaussianBlur
         inkscape:collect="always"
         stdDeviation="2.028"
         id="feGaussianBlur4125" />
    </filter>
    <linearGradient
       inkscape:collect="always"
       xlink:href="#linearGradient4450"
       id="linearGradient4456"
       x1="66.315437"
       y1="132.11769"
       x2="65.961884"
       y2="97.717491"
       gradientUnits="userSpaceOnUse"
       gradientTransform="translate(-2,0)" />
    <linearGradient
       inkscape:collect="always"
       id="linearGradient4450">
      <stop
         style="stop-color:#000000;stop-opacity:1;"
         offset="0"
         id="stop4452" />
      <stop
         style="stop-color:#000000;stop-opacity:0;"
         offset="1"
         id="stop4454" />
    </linearGradient>
    <filter
       color-interpolation-filters="sRGB"
       inkscape:collect="always"
       id="filter4474">
      <feGaussianBlur
         inkscape:collect="always"
         stdDeviation="0.38673297"
         id="feGaussianBlur4476" />
    </filter>
    <linearGradient
       y2="97.717491"
       x2="65.961884"
       y1="132.11769"
       x1="66.315437"
       gradientTransform="translate(-2,0)"
       gradientUnits="userSpaceOnUse"
       id="linearGradient3285"
       xlink:href="#linearGradient4450"
       inkscape:collect="always" />
    <clipPath
       clipPathUnits="userSpaceOnUse"
       id="clipPath4500">
      <path
         style="opacity:0.84653476;fill:url(#radialGradient4504);fill-opacity:1"
         d="m 18,14.526945 c -0.339844,0 -0.5,0.234618 -0.5,0.5 l 0,78.834025 c 0,0.82158 0.679323,1.499381 1.5,1.5 l 41.439373,0.03125 c 0.05307,4e-5 0.997884,-0.008 1.6875,5e-5 10.098603,-3.99538 14.112778,-13.412867 23.058008,-22.414677 1.47685,-1.656484 1.11385,-1.151317 1.45391,-2.888706 l 6e-5,-55.061942 c 0,-0.322717 -0.16322,-0.5 -0.5,-0.5 z"
         id="path4502"
         inkscape:connector-curvature="0"
         sodipodi:nodetypes="ccssscccccc" />
    </clipPath>
    <filter
       color-interpolation-filters="sRGB"
       inkscape:collect="always"
       id="filter4359">
      <feGaussianBlur
         inkscape:collect="always"
         stdDeviation="0.26050923"
         id="feGaussianBlur4361" />
    </filter>
    <filter
       color-interpolation-filters="sRGB"
       inkscape:collect="always"
       id="filter4480"
       x="-0.013831451"
       width="1.0276629"
       y="-0.11492925"
       height="1.2298585">
      <feGaussianBlur
         inkscape:collect="always"
         stdDeviation="0.49174539"
         id="feGaussianBlur4482" />
    </filter>
    <clipPath
       clipPathUnits="userSpaceOnUse"
       id="clipPath3127">
      <path
         style="opacity:0.84653476;fill:url(#radialGradient3131);fill-opacity:1"
         d="m 16.5,8.000003 c -0.339844,0 -0.5,0.234618 -0.5,0.5 l 0,109.968747 c 0,0.82158 0.679323,1.49946 1.5,1.5 l 47.5,0.0313 c 0.05308,3e-5 3.273884,-0.008 3.9635,5e-5 6.540972,-4.50366 29.9679,-28.953329 38.91313,-37.955139 1.47685,-1.65649 0.4576,-0.37007 1.45391,-1.60746 l 6e-5,-71.937498 c 0,-0.322717 -0.16322,-0.5 -0.5,-0.5 z"
         id="path3129"
         inkscape:connector-curvature="0"
         sodipodi:nodetypes="ccssscccccc" />
    </clipPath>
    <radialGradient
       inkscape:collect="always"
       xlink:href="#linearGradient5982-7"
       id="radialGradient3131"
       gradientUnits="userSpaceOnUse"
       gradientTransform="matrix(1.6842105,-0.08429519,0.06886339,1.3758846,-48.197001,-18.66323)"
       cx="64"
       cy="64.004021"
       fx="63.793392"
       fy="47.274845"
       r="47.5" />
    <filter
       inkscape:collect="always"
       id="filter3919">
      <feGaussianBlur
         inkscape:collect="always"
         stdDeviation="0.69740502"
         id="feGaussianBlur3921" />
    </filter>
    <linearGradient
       inkscape:collect="always"
       xlink:href="#XMLID_67_-5"
       id="linearGradient3989"
       gradientUnits="userSpaceOnUse"
       gradientTransform="translate(-143,-64)"
       x1="153"
       y1="79.556602"
       x2="153"
       y2="76.444199" />
    <linearGradient
       id="XMLID_67_-5"
       gradientUnits="userSpaceOnUse"
       x1="153"
       y1="79.556602"
       x2="153"
       y2="76.444199"
       gradientTransform="translate(-143,-64)">
      <stop
         offset="0"
         style="stop-color:#FFFFFF"
         id="stop284-5" />
      <stop
         offset="1"
         style="stop-color:#DDDDDD"
         id="stop286-4" />
    </linearGradient>
    <linearGradient
       inkscape:collect="always"
       xlink:href="#XMLID_68_-7"
       id="linearGradient3991"
       gradientUnits="userSpaceOnUse"
       gradientTransform="translate(-143,-64)"
       x1="154.1006"
       y1="79.100601"
       x2="151.9005"
       y2="76.900497" />
    <linearGradient
       id="XMLID_68_-7"
       gradientUnits="userSpaceOnUse"
       x1="154.1006"
       y1="79.100601"
       x2="151.9005"
       y2="76.900497"
       gradientTransform="translate(-143,-64)">
      <stop
         offset="0"
         style="stop-color:#eaeaea;stop-opacity:1;"
         id="stop291-6" />
      <stop
         offset="1"
         style="stop-color:#616161"
         id="stop293-56" />
    </linearGradient>
    <linearGradient
       inkscape:collect="always"
       xlink:href="#XMLID_67_-5"
       id="linearGradient3978"
       gradientUnits="userSpaceOnUse"
       gradientTransform="translate(-143,-64)"
       x1="153"
       y1="79.556602"
       x2="153"
       y2="76.444199" />
    <linearGradient
       id="linearGradient3389"
       gradientUnits="userSpaceOnUse"
       x1="153"
       y1="79.556602"
       x2="153"
       y2="76.444199"
       gradientTransform="translate(-143,-64)">
      <stop
         offset="0"
         style="stop-color:#FFFFFF"
         id="stop3391" />
      <stop
         offset="1"
         style="stop-color:#DDDDDD"
         id="stop3393" />
    </linearGradient>
    <linearGradient
       inkscape:collect="always"
       xlink:href="#XMLID_68_-7"
       id="linearGradient3980"
       gradientUnits="userSpaceOnUse"
       gradientTransform="translate(-143,-64)"
       x1="154.1006"
       y1="79.100601"
       x2="151.9005"
       y2="76.900497" />
    <linearGradient
       id="linearGradient3396"
       gradientUnits="userSpaceOnUse"
       x1="154.1006"
       y1="79.100601"
       x2="151.9005"
       y2="76.900497"
       gradientTransform="translate(-143,-64)">
      <stop
         offset="0"
         style="stop-color:#eaeaea;stop-opacity:1;"
         id="stop3398" />
      <stop
         offset="1"
         style="stop-color:#616161"
         id="stop3400" />
    </linearGradient>
    <linearGradient
       inkscape:collect="always"
       xlink:href="#XMLID_67_-5"
       id="linearGradient3968"
       gradientUnits="userSpaceOnUse"
       gradientTransform="translate(-143,-64)"
       x1="153"
       y1="79.556602"
       x2="153"
       y2="76.444199" />
    <linearGradient
       id="linearGradient3403"
       gradientUnits="userSpaceOnUse"
       x1="153"
       y1="79.556602"
       x2="153"
       y2="76.444199"
       gradientTransform="translate(-143,-64)">
      <stop
         offset="0"
         style="stop-color:#FFFFFF"
         id="stop3405" />
      <stop
         offset="1"
         style="stop-color:#DDDDDD"
         id="stop3407" />
    </linearGradient>
    <linearGradient
       inkscape:collect="always"
       xlink:href="#XMLID_68_-7"
       id="linearGradient3970"
       gradientUnits="userSpaceOnUse"
       gradientTransform="translate(-143,-64)"
       x1="154.1006"
       y1="79.100601"
       x2="151.9005"
       y2="76.900497" />
    <linearGradient
       id="linearGradient3410"
       gradientUnits="userSpaceOnUse"
       x1="154.1006"
       y1="79.100601"
       x2="151.9005"
       y2="76.900497"
       gradientTransform="translate(-143,-64)">
      <stop
         offset="0"
         style="stop-color:#eaeaea;stop-opacity:1;"
         id="stop3412" />
      <stop
         offset="1"
         style="stop-color:#616161"
         id="stop3414" />
    </linearGradient>
    <linearGradient
       inkscape:collect="always"
       xlink:href="#XMLID_67_-5"
       id="linearGradient3958"
       gradientUnits="userSpaceOnUse"
       gradientTransform="translate(-143,-64)"
       x1="153"
       y1="79.556602"
       x2="153"
       y2="76.444199" />
    <linearGradient
       id="linearGradient3417"
       gradientUnits="userSpaceOnUse"
       x1="153"
       y1="79.556602"
       x2="153"
       y2="76.444199"
       gradientTransform="translate(-143,-64)">
      <stop
         offset="0"
         style="stop-color:#FFFFFF"
         id="stop3419" />
      <stop
         offset="1"
         style="stop-color:#DDDDDD"
         id="stop3421" />
    </linearGradient>
    <linearGradient
       inkscape:collect="always"
       xlink:href="#XMLID_68_-7"
       id="linearGradient3960"
       gradientUnits="userSpaceOnUse"
       gradientTransform="translate(-143,-64)"
       x1="154.1006"
       y1="79.100601"
       x2="151.9005"
       y2="76.900497" />
    <linearGradient
       id="linearGradient3424"
       gradientUnits="userSpaceOnUse"
       x1="154.1006"
       y1="79.100601"
       x2="151.9005"
       y2="76.900497"
       gradientTransform="translate(-143,-64)">
      <stop
         offset="0"
         style="stop-color:#eaeaea;stop-opacity:1;"
         id="stop3426" />
      <stop
         offset="1"
         style="stop-color:#616161"
         id="stop3428" />
    </linearGradient>
    <linearGradient
       inkscape:collect="always"
       xlink:href="#XMLID_67_-5"
       id="linearGradient3948"
       gradientUnits="userSpaceOnUse"
       gradientTransform="translate(-143,-64)"
       x1="153"
       y1="79.556602"
       x2="153"
       y2="76.444199" />
    <linearGradient
       id="linearGradient3431"
       gradientUnits="userSpaceOnUse"
       x1="153"
       y1="79.556602"
       x2="153"
       y2="76.444199"
       gradientTransform="translate(-143,-64)">
      <stop
         offset="0"
         style="stop-color:#FFFFFF"
         id="stop3433" />
      <stop
         offset="1"
         style="stop-color:#DDDDDD"
         id="stop3435" />
    </linearGradient>
    <linearGradient
       inkscape:collect="always"
       xlink:href="#XMLID_68_-7"
       id="linearGradient3950"
       gradientUnits="userSpaceOnUse"
       gradientTransform="translate(-143,-64)"
       x1="154.1006"
       y1="79.100601"
       x2="151.9005"
       y2="76.900497" />
    <linearGradient
       id="linearGradient3438"
       gradientUnits="userSpaceOnUse"
       x1="154.1006"
       y1="79.100601"
       x2="151.9005"
       y2="76.900497"
       gradientTransform="translate(-143,-64)">
      <stop
         offset="0"
         style="stop-color:#eaeaea;stop-opacity:1;"
         id="stop3440" />
      <stop
         offset="1"
         style="stop-color:#616161"
         id="stop3442" />
    </linearGradient>
    <linearGradient
       inkscape:collect="always"
       xlink:href="#XMLID_67_-5"
       id="linearGradient3930"
       gradientUnits="userSpaceOnUse"
       gradientTransform="translate(-143,-64)"
       x1="153"
       y1="79.556602"
       x2="153"
       y2="76.444199" />
    <linearGradient
       id="linearGradient3445"
       gradientUnits="userSpaceOnUse"
       x1="153"
       y1="79.556602"
       x2="153"
       y2="76.444199"
       gradientTransform="translate(-143,-64)">
      <stop
         offset="0"
         style="stop-color:#FFFFFF"
         id="stop3447" />
      <stop
         offset="1"
         style="stop-color:#DDDDDD"
         id="stop3449" />
    </linearGradient>
    <linearGradient
       inkscape:collect="always"
       xlink:href="#XMLID_68_-7"
       id="linearGradient3932"
       gradientUnits="userSpaceOnUse"
       gradientTransform="translate(-143,-64)"
       x1="154.1006"
       y1="79.100601"
       x2="151.9005"
       y2="76.900497" />
    <linearGradient
       id="linearGradient3452"
       gradientUnits="userSpaceOnUse"
       x1="154.1006"
       y1="79.100601"
       x2="151.9005"
       y2="76.900497"
       gradientTransform="translate(-143,-64)">
      <stop
         offset="0"
         style="stop-color:#eaeaea;stop-opacity:1;"
         id="stop3454" />
      <stop
         offset="1"
         style="stop-color:#616161"
         id="stop3456" />
    </linearGradient>
    <linearGradient
       inkscape:collect="always"
       xlink:href="#XMLID_67_-5"
       id="linearGradient3920"
       gradientUnits="userSpaceOnUse"
       gradientTransform="translate(-143,-64)"
       x1="153"
       y1="79.556602"
       x2="153"
       y2="76.444199" />
    <linearGradient
       id="linearGradient3459"
       gradientUnits="userSpaceOnUse"
       x1="153"
       y1="79.556602"
       x2="153"
       y2="76.444199"
       gradientTransform="translate(-143,-64)">
      <stop
         offset="0"
         style="stop-color:#FFFFFF"
         id="stop3461" />
      <stop
         offset="1"
         style="stop-color:#DDDDDD"
         id="stop3463" />
    </linearGradient>
    <linearGradient
       inkscape:collect="always"
       xlink:href="#XMLID_68_-7"
       id="linearGradient3922"
       gradientUnits="userSpaceOnUse"
       gradientTransform="translate(-143,-64)"
       x1="154.1006"
       y1="79.100601"
       x2="151.9005"
       y2="76.900497" />
    <linearGradient
       id="linearGradient3466"
       gradientUnits="userSpaceOnUse"
       x1="154.1006"
       y1="79.100601"
       x2="151.9005"
       y2="76.900497"
       gradientTransform="translate(-143,-64)">
      <stop
         offset="0"
         style="stop-color:#eaeaea;stop-opacity:1;"
         id="stop3468" />
      <stop
         offset="1"
         style="stop-color:#616161"
         id="stop3470" />
    </linearGradient>
    <linearGradient
       inkscape:collect="always"
       xlink:href="#XMLID_67_-5"
       id="linearGradient3910"
       gradientUnits="userSpaceOnUse"
       gradientTransform="translate(-143,-64)"
       x1="153"
       y1="79.556602"
       x2="153"
       y2="76.444199" />
    <linearGradient
       id="linearGradient3473"
       gradientUnits="userSpaceOnUse"
       x1="153"
       y1="79.556602"
       x2="153"
       y2="76.444199"
       gradientTransform="translate(-143,-64)">
      <stop
         offset="0"
         style="stop-color:#FFFFFF"
         id="stop3475" />
      <stop
         offset="1"
         style="stop-color:#DDDDDD"
         id="stop3477" />
    </linearGradient>
    <linearGradient
       inkscape:collect="always"
       xlink:href="#XMLID_68_-7"
       id="linearGradient3912"
       gradientUnits="userSpaceOnUse"
       gradientTransform="translate(-143,-64)"
       x1="154.1006"
       y1="79.100601"
       x2="151.9005"
       y2="76.900497" />
    <linearGradient
       id="linearGradient3480"
       gradientUnits="userSpaceOnUse"
       x1="154.1006"
       y1="79.100601"
       x2="151.9005"
       y2="76.900497"
       gradientTransform="translate(-143,-64)">
      <stop
         offset="0"
         style="stop-color:#eaeaea;stop-opacity:1;"
         id="stop3482" />
      <stop
         offset="1"
         style="stop-color:#616161"
         id="stop3484" />
    </linearGradient>
    <linearGradient
       inkscape:collect="always"
       xlink:href="#XMLID_67_-5"
       id="linearGradient7071"
       gradientUnits="userSpaceOnUse"
       gradientTransform="translate(-143,-64)"
       x1="153"
       y1="79.556602"
       x2="153"
       y2="76.444199" />
    <linearGradient
       id="linearGradient3487"
       gradientUnits="userSpaceOnUse"
       x1="153"
       y1="79.556602"
       x2="153"
       y2="76.444199"
       gradientTransform="translate(-143,-64)">
      <stop
         offset="0"
         style="stop-color:#FFFFFF"
         id="stop3489" />
      <stop
         offset="1"
         style="stop-color:#DDDDDD"
         id="stop3491" />
    </linearGradient>
    <linearGradient
       y2="76.900497"
       x2="151.9005"
       y1="79.100601"
       x1="154.1006"
       gradientTransform="translate(-143,-64)"
       gradientUnits="userSpaceOnUse"
       id="linearGradient3653"
       xlink:href="#XMLID_68_-7"
       inkscape:collect="always" />
    <linearGradient
       id="linearGradient3494"
       gradientUnits="userSpaceOnUse"
       x1="154.1006"
       y1="79.100601"
       x2="151.9005"
       y2="76.900497"
       gradientTransform="translate(-143,-64)">
      <stop
         offset="0"
         style="stop-color:#eaeaea;stop-opacity:1;"
         id="stop3496" />
      <stop
         offset="1"
         style="stop-color:#616161"
         id="stop3498" />
    </linearGradient>
    <linearGradient
       y2="76.900497"
       x2="151.9005"
       y1="79.100601"
       x1="154.1006"
       gradientTransform="translate(-143,-64)"
       gradientUnits="userSpaceOnUse"
       id="linearGradient3527"
       xlink:href="#XMLID_68_-7"
       inkscape:collect="always" />
  </defs>
  <sodipodi:namedview
     id="base"
     pagecolor="#ffffff"
     bordercolor="#666666"
     borderopacity="1.0"
     inkscape:pageopacity="0.0"
     inkscape:pageshadow="2"
     inkscape:zoom="0.70710678"
     inkscape:cx="290.22351"
     inkscape:cy="65.033718"
     inkscape:document-units="px"
     inkscape:current-layer="layer1"
     width="128px"
     height="128px"
     showgrid="true"
     inkscape:grid-points="true"
     showguides="true"
     inkscape:guide-bbox="true"
     inkscape:window-width="1224"
     inkscape:window-height="757"
     inkscape:window-x="200"
     inkscape:window-y="300"
     inkscape:snap-global="false"
     inkscape:window-maximized="0"
     inkscape:snap-page="true">
    <inkscape:grid
       id="GridFromPre046Settings"
       type="xygrid"
       originx="0px"
       originy="0px"
       spacingx="2.6666px"
       spacingy="2.6666px"
       color="#0000ff"
       empcolor="#0000ff"
       opacity="0.2"
       empopacity="0.4"
       empspacing="2"
       visible="true"
       enabled="true"
       snapvisiblegridlinesonly="true" />
    <sodipodi:guide
       orientation="1,0"
       position="-68,29.325902"
       id="guide4564" />
    <sodipodi:guide
       orientation="1,0"
       position="-121.62237,135.0574"
       id="guide3859" />
    <sodipodi:guide
       orientation="0,1"
       position="38.581514,-74.688154"
       id="guide4360" />
  </sodipodi:namedview>
  <metadata
     id="metadata2611">
    <rdf:RDF>
      <cc:Work
         rdf:about="">
        <dc:format>image/svg+xml</dc:format>
        <dc:type
           rdf:resource="http://purl.org/dc/dcmitype/StillImage" />
        <dc:title></dc:title>
      </cc:Work>
    </rdf:RDF>
  </metadata>
  <g
     inkscape:label="Livello 1"
     inkscape:groupmode="layer"
     id="layer1">
    <path
       style="opacity:0.45606695;fill:#000000;fill-opacity:1;filter:url(#filter4123)"
       d="m 13.333,5.3364 0,117.8304 49.8545,0.4332 c 2.115476,0.0184 4.528919,-1.77169 7,-4.25 0.71234,-0.71442 1.440746,-1.39395 2.15625,-2.09375 0.415612,-0.40649 0.832187,-0.81443 1.25,-1.21875 7.773958,-7.40962 26.98341,-25.122599 34.21875,-33.099999 0.42065,-0.42064 0.81207,-0.8111 1.15625,-1.1875 1.46444,-1.49766 2.76158,-2.8378 2.99375,-5.8625 L 112,75.156251 111.9972,5.3364 z"
       id="path5990"
       inkscape:connector-curvature="0"
       sodipodi:nodetypes="ccsssccccccc" />
    <path
       sodipodi:nodetypes="cccccccc"
       id="path3722"
       d="m 13.333,5.3364 0,118.3304 49.3318,0.3 c 1.527964,0 3.65713,-0.98408 6.387944,-2.83388 C 82.175824,111.57445 97.49744,91.890146 108.75009,80.500071 110.49334,78.756821 112,77.462561 112,73.300001 L 111.9972,5.3364 z"
       style="fill:#000000;fill-opacity:0.84716159;filter:url(#filter4111)"
       inkscape:connector-curvature="0" />
    <path
       style="fill:#ffffff;fill-opacity:1"
       d="m 13.333,5.3364 0,117.3304 49.3318,0 c 1.675283,0 3.914297,-0.56468 7,-3.6 8.870045,-8.72523 32.07567,-31.518599 39.33424,-38.842759 C 111.4396,77.761431 112,75.752871 112,73.500001 L 111.9972,5.3364 z"
       id="path34"
       sodipodi:nodetypes="cccssccc"
       inkscape:connector-curvature="0" />
    <path
       style="fill:url(#linearGradient4524-4);fill-opacity:1"
       d="m 16.5,8.000003 c -0.339844,0 -0.5,0.234618 -0.5,0.5 l 0,109.968747 c 0,0.82158 0.679323,1.5 1.5,1.5 l 48.6875,0 c 0.05308,0 0.810384,0.0234 1.5,0.0313 1.777664,-0.0401 3.131974,-0.75374 4.356035,-1.59328 1.051866,-0.29103 25.980435,-26.619589 35.101555,-35.809239 1.36239,-1.37262 2.18546,-3.94817 2.18546,-4.89561 l 5e-5,-69.201918 c 0,-0.322717 -0.16322,-0.5 -0.5,-0.5 z"
       id="path3967"
       inkscape:connector-curvature="0"
       sodipodi:nodetypes="ccsssccscccc" />
    <path
       sodipodi:nodetypes="ccssscccccc"
       inkscape:connector-curvature="0"
       id="path5980"
       d="m 16.5,8.000003 c -0.339844,0 -0.5,0.234618 -0.5,0.5 l 0,109.968747 c 0,0.82158 0.679323,1.49946 1.5,1.5 l 47.5,0.0313 c 0.05308,3e-5 3.273884,-0.008 3.9635,5e-5 6.540972,-4.50366 29.9679,-28.953329 38.91313,-37.955139 1.47685,-1.65649 0.4576,-0.37007 1.45391,-1.60746 l 6e-5,-71.937498 c 0,-0.322717 -0.16322,-0.5 -0.5,-0.5 z"
       style="opacity:0.84653476;fill:url(#radialGradient5988-0);fill-opacity:1" />
    <path
       style="fill:#000000"
       d=""
       id="path2197" />
    <path
       clip-path="url(#clipPath6093-7)"
       style="opacity:0.34728035;fill:#000000;fill-opacity:1;stroke:none;filter:url(#filter6171-8)"
       d="m 114.4,82.502986 c 0,4.465301 -4.99749,5.909952 -7.47972,7.593625 -5.10854,3.46508 -18.362065,-1.446073 -24.143235,-1.365053 -0.081,5.781159 3.371639,20.976032 -0.09344,26.084572 -1.68367,2.48224 -5.573338,8.68687 -8.483608,8.68687 -2.091359,1.5337 3.488204,8.21101 6.734971,5.31989 9.501888,-8.46107 35.131683,-30.022704 43.350823,-39.262889 2.04044,-2.29392 -4.90514,-9.844666 -9.88579,-7.057015 z"
       id="path6153"
       inkscape:connector-curvature="0"
       sodipodi:nodetypes="cscscssc"
       transform="matrix(1.2774204,0,0,1.2774204,-31.076286,-28.013102)" />
    <path
       sodipodi:nodetypes="cscscssc"
       inkscape:connector-curvature="0"
       id="path6081"
       d="m 113.9,82.502986 c 0,4.465301 -5.09749,6.009952 -7.57972,7.693625 -5.10854,3.46508 -16.139114,2.12536 -21.920284,2.20638 -0.081,5.781159 1.66586,17.304599 -1.79922,22.413139 -1.68367,2.48224 -4.69051,7.98687 -7.60078,7.98687 -2.091359,1.5337 3.488204,11.21101 6.734971,8.31989 9.501888,-8.46107 45.998943,-30.20138 54.218083,-39.441569 2.04044,-2.29392 -17.0724,-11.965986 -22.05305,-9.178335 z"
       style="opacity:0.40099009;fill:#000000;fill-opacity:1;stroke:none;filter:url(#filter6118-4)"
       clip-path="url(#clipPath6093-7)"
       transform="matrix(1.3299764,0,0,1.3299764,-36.963543,-37.156423)" />
    <g
       id="g3359"
       transform="matrix(1.3869271,0,0,1.3869271,-38.574211,-50.365862)">
      <path
         sodipodi:type="inkscape:offset"
         inkscape:radius="0.36050922"
         inkscape:original="M 94.46875 73.625 C 94.106269 73.654388 93.85532 73.858524 93.6875 74.1875 C 93.644416 74.271939 92.750349 77.687654 91.71875 81.8125 C 90.232163 87.756587 89.86119 89.379689 89.875 89.53125 C 89.900749 89.813208 90.06346 89.98998 90.34375 90.0625 C 90.665864 90.145832 91.062449 90.008898 91.25 89.75 C 91.417637 89.518581 91.481036 89.257858 92.15625 86.5625 C 92.484307 85.252909 92.7639 84.1875 92.78125 84.1875 C 92.798677 84.1875 92.919471 84.26348 93.03125 84.34375 C 93.666358 84.800031 94.81254 85.04281 95.6875 84.90625 C 96.59451 84.764684 97.49945 84.213738 98.15625 83.4375 L 98.4375 83.125 L 98.5625 83.4375 C 98.853242 84.321144 99.552923 84.86877 100.5 84.9375 C 101.31788 84.996849 101.98441 84.528143 102.4375 83.59375 C 102.74471 82.960128 103.2099 81.38947 103.1875 81.03125 C 103.18185 80.940776 102.97687 80.8416 102.84375 80.875 C 102.72383 80.905098 102.67589 81.053914 102.53125 81.625 C 102.25985 82.696846 101.92128 83.523135 101.59375 83.9375 C 101.18268 84.45752 100.59467 84.589622 100.21875 84.25 C 100.00517 84.057099 99.96225 83.826986 99.96875 83.25 C 99.974291 82.700995 100.10116 82.011762 100.5 80.46875 C 100.64846 79.894387 100.88231 78.918684 101.03125 78.3125 C 101.18017 77.706313 101.44064 76.638247 101.625 75.90625 C 101.85849 74.979227 101.98255 74.513528 101.96875 74.40625 C 101.90992 73.955278 101.39322 73.742004 100.90625 73.96875 C 100.68311 74.072651 100.51141 74.248367 100.40625 74.5 C 100.37182 74.582409 99.950393 76.226897 99.46875 78.15625 C 98.987119 80.085601 98.54779 81.805423 98.5 81.96875 C 98.399526 82.31307 98.02576 82.83688 97.53125 83.34375 C 96.541412 84.358339 95.342249 84.691876 94.375 84.21875 C 93.579691 83.829676 93.274851 82.767031 93.53125 81.28125 C 93.576637 81.018188 93.97033 79.371281 94.40625 77.625 C 94.879786 75.727978 95.1875 74.368335 95.1875 74.25 C 95.1875 73.856053 94.886491 73.59113 94.46875 73.625 z M 61.34375 74.5 C 61.159331 74.48229 61.12018 74.50482 61.03125 74.59375 C 60.975074 74.649931 60.91092 74.782403 60.875 74.90625 C 60.83908 75.030096 59.451514 80.537023 57.8125 87.125 C 56.17348 93.712976 54.82251 99.1086 54.8125 99.125 C 54.80252 99.14162 54.7495 99.16638 54.6875 99.15625 C 52.079152 98.732581 50.892765 97.640984 50.71875 95.5 C 50.613936 94.210447 50.91782 93.080604 52.3125 89.28125 C 53.011027 87.378359 53.07368 87.036482 53.03125 86.375 C 52.999971 85.887686 52.930103 85.579086 52.71875 85.15625 C 52.218511 84.15548 51.179616 83.57888 50 83.65625 C 48.383779 83.762249 46.975367 85.155693 46 87.625 C 45.872987 87.946547 45.73004 88.439151 45.65625 88.71875 L 45.5 89.21875 L 45.59375 89.34375 C 45.751388 89.554892 46.121408 89.571265 46.25 89.375 C 46.285406 89.320962 46.40121 89.015549 46.5 88.6875 C 46.844519 87.543484 47.22059 86.679554 47.6875 85.96875 C 48.009051 85.479243 48.626499 84.880566 49 84.6875 C 49.997424 84.171923 50.76209 84.289126 50.96875 85 C 51.02529 85.194535 51.01747 85.338241 51 85.71875 C 50.968937 86.394779 50.798498 87.065505 50.21875 88.625 C 49.152639 91.492802 48.712541 92.803244 48.53125 93.84375 C 48.448027 94.322844 48.44822 95.298053 48.53125 95.78125 C 48.935027 98.131061 50.952057 99.571318 54.3125 99.90625 C 54.466908 99.9216 54.59375 99.9331 54.59375 99.9375 C 54.59375 99.992598 53.758154 103.32613 53.5625 104.0625 C 52.902181 106.54774 52.890405 106.73558 53.0625 106.875 C 53.13622 106.9351 53.207283 106.9465 53.34375 106.9375 C 53.588914 106.92119 53.652405 106.83447 53.8125 106.28125 C 53.978586 105.70732 54.766383 102.60348 55.125 101.125 L 55.40625 99.96875 L 56.03125 99.9375 C 56.772727 99.9068 57.321493 99.825507 57.96875 99.65625 C 58.916203 99.408489 59.964216 98.924287 60.84375 98.3125 C 62.597793 97.09243 64.126426 95.30596 65.21875 93.1875 C 65.640565 92.369428 65.794693 91.990625 66.0625 91.0625 C 66.472917 89.64022 66.790634 88.018789 66.90625 86.875 C 66.966903 86.274634 66.93711 85.350548 66.84375 85 C 66.685495 84.405525 66.383623 83.982759 66 83.78125 C 65.821709 83.687662 65.750455 83.6861 65.46875 83.6875 C 65.069584 83.689515 64.803618 83.792677 64.46875 84.09375 C 64.063694 84.457928 63.874586 84.815351 63.875 85.25 C 63.875215 85.58535 63.944287 85.760356 64.34375 86.1875 C 64.880866 86.761842 65.208931 87.337166 65.40625 88.09375 C 65.53822 88.599774 65.56318 89.429315 65.46875 90.03125 C 65.21128 91.672619 64.262337 93.666318 62.96875 95.28125 C 62.531927 95.826593 61.637488 96.76213 61.125 97.1875 C 59.591131 98.460635 57.93959 99.111929 56.09375 99.21875 C 55.808961 99.23531 55.625 99.24263 55.625 99.21875 C 55.625 99.197162 56.974543 93.736406 58.625 87.09375 C 60.275459 80.451095 61.64675 74.93524 61.65625 74.84375 C 61.680587 74.608831 61.603529 74.52496 61.34375 74.5 z M 76.5 83.6875 C 75.954637 83.68467 75.710175 83.69036 75.4375 83.75 C 73.781387 84.112137 72.299215 85.231873 71.0625 87.03125 C 70.29573 88.146852 69.67336 89.48728 69.625 90.15625 C 69.598929 90.516985 69.636516 90.5625 69.96875 90.5625 C 70.242806 90.5625 70.260532 90.574828 70.46875 90.03125 C 70.858009 89.015085 71.427823 88.182383 72.1875 87.53125 C 73.705072 86.23051 75.605854 85.762042 77.40625 86.21875 C 79.81665 86.830199 81.236469 89.079123 81.65625 93 C 81.7453 93.831264 81.77633 95.716811 81.71875 96.53125 C 81.63286 97.745996 81.604028 97.840747 80.96875 100.03125 C 80.57576 101.3863 80.133564 103.02761 79.875 104.125 C 79.367161 106.28046 79.302141 106.95837 79.5625 107.21875 C 79.764821 107.42107 80.103377 107.30073 80.3125 106.9375 C 80.585312 106.46366 80.887107 105.41535 81.375 103.46875 C 81.81763 101.70277 82.028102 100.67815 82.25 99.09375 C 82.386268 98.120616 82.486799 97.736189 82.96875 96.34375 C 84.068199 93.167258 85.401246 89.973242 87.1875 86.28125 C 87.907334 84.793441 88.125 84.36336 88.125 84.28125 C 88.125 84.256653 88.08745 84.18115 88.03125 84.125 C 87.876849 83.970593 87.594911 83.987751 87.4375 84.15625 C 87.309124 84.293685 86.154521 86.610187 85.53125 87.96875 C 84.665107 89.856683 83.833283 91.831164 83.09375 93.75 C 82.490887 95.314106 82.56441 95.202529 82.53125 94.5625 C 82.381225 91.666259 81.995795 89.766291 81.125 87.59375 C 80.219305 85.334175 79.198308 84.199914 77.625 83.78125 C 77.262535 83.68479 77.124207 83.6908 76.5 83.6875 z "
         style="fill:#3c3c3c;fill-opacity:1"
         id="path3961"
         d="m 94.4375,73.28125 c -0.48315,0.03917 -0.856005,0.34521 -1.0625,0.75 -0.02857,0.05599 -0.0265,0.04807 -0.03125,0.0625 -0.0048,0.01443 -0.0261,0.01403 -0.03125,0.03125 -0.0103,0.03445 -0.01563,0.100305 -0.03125,0.15625 -0.03124,0.11189 -0.07181,0.269748 -0.125,0.46875 -0.106385,0.398003 -0.258423,0.965621 -0.4375,1.65625 -0.358155,1.381257 -0.827686,3.249018 -1.34375,5.3125 -0.743455,2.972689 -1.222445,4.860505 -1.5,6.03125 -0.138777,0.585372 -0.223986,1.009198 -0.28125,1.28125 -0.02863,0.136026 -0.04931,0.233202 -0.0625,0.3125 -0.01319,0.0793 -0.01098,0.09822 0,0.21875 0.03702,0.405345 0.333678,0.744119 0.71875,0.84375 0.484286,0.125287 0.987481,-0.03198 1.28125,-0.4375 0.108885,-0.150314 0.219304,-0.338701 0.34375,-0.78125 0.124446,-0.442549 0.287413,-1.183649 0.625,-2.53125 0.163762,-0.653731 0.324985,-1.259574 0.4375,-1.6875 0.02813,-0.106982 0.03973,-0.165404 0.0625,-0.25 0.753247,0.463413 1.832263,0.674486 2.75,0.53125 0.963634,-0.150404 1.865069,-0.725182 2.5625,-1.5 0.372891,0.891923 1.15718,1.489997 2.15625,1.5625 0.96863,0.07029 1.78825,-0.545799 2.28125,-1.5625 0.17346,-0.357757 0.3756,-0.908088 0.53125,-1.4375 0.0778,-0.264706 0.1396,-0.530394 0.1875,-0.75 0.0479,-0.219606 0.10522,-0.378996 0.0937,-0.5625 -0.01,-0.153867 -0.0955,-0.222092 -0.15625,-0.28125 -0.0608,-0.05916 -0.12331,-0.09512 -0.1875,-0.125 -0.12838,-0.05976 -0.27813,-0.110326 -0.46875,-0.0625 -0.0925,0.02322 -0.18513,0.08179 -0.25,0.15625 -0.0649,0.07446 -0.0942,0.142025 -0.125,0.21875 -0.0615,0.15345 -0.11468,0.337492 -0.1875,0.625 -0.26471,1.045424 -0.6171,1.86123 -0.875,2.1875 -0.16289,0.206057 -0.35136,0.310085 -0.5,0.34375 -0.14864,0.03366 -0.24242,-0.0022 -0.34375,-0.09375 -0.0628,-0.05671 -0.0705,-0.05852 -0.0937,-0.15625 -0.0233,-0.09773 -0.0344,-0.283484 -0.0313,-0.5625 0.005,-0.496518 0.10303,-1.151738 0.5,-2.6875 0.15026,-0.581331 0.38283,-1.552201 0.53125,-2.15625 0.14909,-0.606884 0.41003,-1.676807 0.59375,-2.40625 0.11654,-0.462712 0.22138,-0.810911 0.28125,-1.0625 0.0299,-0.125794 0.047,-0.227398 0.0625,-0.3125 0.0155,-0.0851 0.0164,-0.122649 0,-0.25 -0.046,-0.352501 -0.26236,-0.657565 -0.5625,-0.78125 -0.30014,-0.123685 -0.67307,-0.08973 -1,0.0625 -0.29999,0.139683 -0.55153,0.393394 -0.6875,0.71875 -0.0361,0.08637 -0.0148,0.06576 -0.0313,0.125 -0.0165,0.05924 -0.03634,0.151223 -0.0625,0.25 -0.05231,0.197553 -0.133678,0.449412 -0.21875,0.78125 -0.170144,0.663675 -0.384024,1.565954 -0.625,2.53125 -0.240673,0.964106 -0.480398,1.871578 -0.65625,2.5625 -0.175852,0.690922 -0.300766,1.209899 -0.3125,1.25 -0.06067,0.207907 -0.403778,0.73575 -0.875,1.21875 -0.915784,0.938683 -1.948472,1.204564 -2.75,0.8125 -0.29761,-0.145594 -0.502361,-0.416641 -0.625,-0.84375 -0.122639,-0.427109 -0.152929,-1.013646 -0.03125,-1.71875 0.01443,-0.08364 0.154269,-0.588594 0.3125,-1.25 0.158231,-0.661406 0.344813,-1.502954 0.5625,-2.375 0.237226,-0.950344 0.425683,-1.780142 0.5625,-2.375 0.06841,-0.297429 0.150407,-0.540947 0.1875,-0.71875 0.01855,-0.0889 0.02088,-0.160801 0.03125,-0.21875 0.01037,-0.05795 0.03125,-0.06334 0.03125,-0.15625 0,-0.288793 -0.136406,-0.569055 -0.34375,-0.75 -0.207344,-0.180945 -0.489964,-0.242367 -0.78125,-0.21875 z m -33.40625,0.875 c -0.124805,0.04127 -0.197594,0.135094 -0.25,0.1875 -0.159493,0.159507 -0.201249,0.300664 -0.25,0.46875 -0.01756,0.06054 -0.04908,0.105598 -0.09375,0.28125 -0.04467,0.175652 -0.107097,0.431568 -0.1875,0.75 -0.160805,0.636865 -0.37809,1.548273 -0.65625,2.65625 -0.55632,2.215954 -1.30542,5.23697 -2.125,8.53125 -0.819474,3.293845 -1.581175,6.294482 -2.125,8.46875 -0.271912,1.087134 -0.471396,1.982931 -0.625,2.59375 -0.07355,0.292488 -0.146721,0.495428 -0.1875,0.65625 -1.13025,-0.211291 -1.967658,-0.540967 -2.5,-1.03125 -0.570929,-0.525821 -0.886701,-1.240512 -0.96875,-2.25 -0.09888,-1.216526 0.2012,-2.268948 1.59375,-6.0625 0.350469,-0.954729 0.551338,-1.532655 0.65625,-1.96875 0.104912,-0.436095 0.115945,-0.747737 0.09375,-1.09375 -0.03285,-0.511851 -0.146489,-0.886587 -0.375,-1.34375 -0.56473,-1.12979 -1.752365,-1.804681 -3.0625,-1.71875 -1.808455,0.118607 -3.310594,1.682255 -4.3125,4.21875 -0.139278,0.352597 -0.267306,0.835345 -0.34375,1.125 l -0.15625,0.5 a 0.36054527,0.36054527 0 0 0 0.03125,0.28125 0.36054527,0.36054527 0 0 0 0.03125,0.03125 l 0.09375,0.125 c 0.157043,0.210345 0.370679,0.302149 0.59375,0.3125 0.223071,0.01035 0.502565,-0.07794 0.65625,-0.3125 0.04479,-0.06837 0.04206,-0.07637 0.0625,-0.125 0.02044,-0.04863 0.03825,-0.121687 0.0625,-0.1875 0.04849,-0.131627 0.104547,-0.297062 0.15625,-0.46875 0.338082,-1.12264 0.714164,-1.951987 1.15625,-2.625 0.279335,-0.425241 0.908836,-1.028359 1.15625,-1.15625 0.455429,-0.235415 0.83532,-0.285713 1.0625,-0.25 0.22718,0.03571 0.33471,0.09767 0.40625,0.34375 0.04077,0.140289 0.0175,0.212471 0,0.59375 -0.02879,0.626549 -0.173975,1.263019 -0.75,2.8125 -1.067318,2.87105 -1.49806,4.193973 -1.6875,5.28125 -0.09736,0.560462 -0.09672,1.499604 0,2.0625 0.216774,1.261535 0.862904,2.317914 1.90625,3.0625 1.015256,0.724539 2.401726,1.13042 4.0625,1.3125 -0.01601,0.066 -0.01136,0.10641 -0.03125,0.1875 -0.08116,0.33083 -0.195915,0.78421 -0.3125,1.25 -0.233171,0.93158 -0.497885,1.9517 -0.59375,2.3125 -0.330602,1.24428 -0.49287,1.90429 -0.5625,2.3125 -0.03482,0.20411 -0.05685,0.34767 -0.03125,0.5 0.0256,0.15233 0.143398,0.31395 0.21875,0.375 0.144357,0.11769 0.366636,0.16711 0.53125,0.15625 0.162751,-0.0108 0.406245,-0.10675 0.53125,-0.28125 0.125005,-0.1745 0.167813,-0.37225 0.25,-0.65625 0.177945,-0.61491 0.952619,-3.67256 1.3125,-5.15625 l 0.21875,-0.875 0.34375,-0.0313 c 0.01143,-4.7e-4 0.0199,5e-4 0.03125,0 0.743856,-0.0327 1.341867,-0.1404 2,-0.3125 0.995725,-0.260384 2.083461,-0.768723 3,-1.40625 1.808866,-1.258204 3.351475,-3.083149 4.46875,-5.25 0.426196,-0.826569 0.604222,-1.249079 0.875,-2.1875 0.416912,-1.444787 0.724916,-3.074379 0.84375,-4.25 0.06556,-0.648921 0.0665,-1.515631 -0.0625,-2 -0.176643,-0.663547 -0.532781,-1.175665 -1.03125,-1.4375 -0.211828,-0.111192 -0.40416,-0.157658 -0.6875,-0.15625 -0.46047,0.0023 -0.875004,0.162849 -1.25,0.5 -0.450781,0.405289 -0.719264,0.898095 -0.71875,1.4375 1.23e-4,0.192386 0.03073,0.39874 0.125,0.59375 0.09427,0.19501 0.259322,0.369809 0.46875,0.59375 0.505101,0.540108 0.784793,1.044651 0.96875,1.75 0.110492,0.423669 0.147563,1.239024 0.0625,1.78125 -0.24338,1.551547 -1.180642,3.52467 -2.4375,5.09375 -0.412475,0.514947 -1.31003,1.452633 -1.78125,1.84375 -1.473804,1.22328 -3.051494,1.829459 -4.8125,1.9375 0.03575,-0.145882 0.07218,-0.285427 0.125,-0.5 0.15225,-0.618539 0.353173,-1.525971 0.625,-2.625 0.543653,-2.198059 1.299801,-5.210042 2.125,-8.53125 0.825226,-3.321314 1.574629,-6.372801 2.125,-8.59375 0.275186,-1.110474 0.500447,-2.021991 0.65625,-2.65625 0.0779,-0.317129 0.145642,-0.545248 0.1875,-0.71875 C 61.958429,75.131999 61.988636,75.048745 62,75 c 0.0057,-0.02437 -0.0035,-0.04644 0,-0.0625 0.0035,-0.01606 -0.007,0.0049 0,-0.0625 0.01664,-0.160625 0.02202,-0.36986 -0.125,-0.53125 -0.147024,-0.16139 -0.335222,-0.171668 -0.5,-0.1875 -0.109106,-0.01048 -0.218945,-0.04127 -0.34375,0 z M 76.5,83.3125 c -0.548429,-0.0028 -0.813063,0.02552 -1.125,0.09375 -1.763765,0.385677 -3.351671,1.553601 -4.625,3.40625 -0.395772,0.575823 -0.732992,1.233674 -1,1.8125 -0.267008,0.578826 -0.46905,1.071858 -0.5,1.5 -0.007,0.09694 -0.0086,0.187374 0,0.28125 0.0086,0.09388 0.03476,0.205593 0.125,0.3125 0.09024,0.106907 0.217155,0.168553 0.3125,0.1875 0.09534,0.01895 0.18996,0.03125 0.28125,0.03125 0.06581,0 0.124209,-0.01529 0.21875,-0.03125 0.09454,-0.01596 0.230292,-0.07385 0.3125,-0.15625 0.164416,-0.164796 0.206843,-0.31792 0.3125,-0.59375 0.370753,-0.967854 0.913001,-1.733483 1.625,-2.34375 1.437111,-1.231775 3.190175,-1.677391 4.875,-1.25 1.119446,0.283971 1.988822,0.937004 2.65625,2 0.667428,1.062996 1.137663,2.543835 1.34375,4.46875 0.08384,0.782674 0.08543,2.702445 0.03125,3.46875 -0.08558,1.2104 -0.08343,1.246866 -0.71875,3.4375 -0.394531,1.36036 -0.832546,2.98516 -1.09375,4.09375 -0.255067,1.0826 -0.417925,1.80473 -0.46875,2.3125 -0.05083,0.50777 -0.0014,0.87358 0.25,1.125 0.197527,0.19753 0.511274,0.24432 0.75,0.15625 0.238726,-0.0881 0.424555,-0.2604 0.5625,-0.5 0.33017,-0.57346 0.604754,-1.6115 1.09375,-3.5625 0.444073,-1.77174 0.65172,-2.81198 0.875,-4.40625 0.134699,-0.961931 0.238439,-1.299799 0.71875,-2.6875 1.094421,-3.161964 2.406123,-6.349338 4.1875,-10.03125 0.359644,-0.74334 0.603816,-1.223729 0.75,-1.53125 0.07309,-0.153761 0.120153,-0.258092 0.15625,-0.34375 0.0361,-0.08566 0.09375,-0.101443 0.09375,-0.28125 0,-0.09788 -0.01862,-0.123475 -0.03125,-0.15625 -0.01263,-0.03278 -0.04688,-0.06618 -0.0625,-0.09375 -0.03124,-0.05515 -0.06814,-0.09945 -0.125,-0.15625 -0.319002,-0.319014 -0.798081,-0.285245 -1.09375,0.03125 -0.09647,0.103275 -0.107876,0.133807 -0.15625,0.21875 -0.04837,0.08494 -0.118425,0.181634 -0.1875,0.3125 -0.13815,0.261733 -0.307891,0.615324 -0.5,1 -0.384218,0.769353 -0.810566,1.689618 -1.125,2.375 -0.855828,1.865449 -1.70395,3.821098 -2.4375,5.71875 -0.190891,-2.335824 -0.544348,-4.146043 -1.3125,-6.0625 -0.925005,-2.307751 -2.057777,-3.580942 -3.75,-4.03125 C 77.330661,83.334221 77.121611,83.315786 76.5,83.3125 z" />
      <path
         transform="matrix(1.0886785,0,0,1.0886785,-9.149753,-9.5136906)"
         sodipodi:nodetypes="ccsccscsscccccscccccscccccscccscccccccccccccssccsccccssccscccccsccccsscccscccc"
         style="fill:url(#linearGradient3285);fill-opacity:1;filter:url(#filter4474)"
         d="m 81.495268,107.28263 c -0.239152,-0.0749 -0.174474,-0.27249 0.291999,-0.89225 0.237502,-0.31552 0.633668,-0.78231 0.994647,-1.17192 0.583531,-0.62983 0.60604,-0.66311 0.684934,-1.01238 0.05289,-0.23417 0.02031,-0.76959 -0.06149,-1.0086 -0.385588,-1.12736 -1.687592,-1.78004 -3.901653,-1.95585 -1.653744,-0.13131 -3.405226,0.008 -4.799184,0.38215 -0.697797,0.18722 -1.213194,0.42134 -1.570746,0.71352 -0.191257,0.15629 -0.203484,0.16061 -0.455217,0.16061 -0.305171,0 -0.347185,-0.0155 -0.323237,-0.11923 0.04442,-0.19234 0.613684,-0.58246 1.317997,-0.90322 1.135978,-0.51737 2.498767,-0.83612 4.019981,-0.94024 0.250464,-0.0172 0.473228,-0.022 0.974169,-0.0212 0.573362,9.4e-4 0.693637,0.005 1.026577,0.0325 1.445154,0.12038 2.392301,0.44069 3.224222,1.09038 0.799864,0.62466 1.154764,1.17627 1.292569,2.00902 0.03046,0.18402 -0.02792,0.21055 0.525833,-0.23917 0.679294,-0.55172 1.444209,-1.1194 2.2398,-1.66223 5.238204,-2.935747 -0.920342,1.1219 -2.355432,2.40915 -0.442694,0.40037 -0.539458,0.51626 -0.664626,0.79606 -0.203823,0.45555 -0.390313,0.74987 -0.796888,1.25764 -0.448152,0.5597 -0.747456,0.85779 -0.998046,0.99404 -0.192089,0.10443 -0.480336,0.13972 -0.666177,0.0815 z m -24.358249,-0.10136 c -0.158077,-0.0401 -0.125873,-0.0943 0.48066,-0.80882 0.179717,-0.21173 0.935911,-1.16928 0.935911,-1.18512 0,-0.001 -0.116044,-0.006 -0.257874,-0.01 -3.086718,-0.0963 -4.928775,-0.50755 -5.299662,-1.18318 -0.07627,-0.13893 -0.07586,-0.41519 5.81e-4,-0.55294 0.166524,-0.29917 0.555613,-0.68077 1.534884,-1.50534 0.532525,-0.4484 0.697442,-0.63734 0.725975,-0.83171 0.01605,-0.10941 0.0066,-0.15281 -0.04532,-0.20874 -0.189827,-0.2044 -0.880946,-0.23948 -1.797125,-0.0912 -0.343077,0.0555 -0.915843,0.23158 -1.211202,0.37233 -0.428878,0.20437 -0.767213,0.44646 -1.083669,0.7754 -0.09074,0.0943 -0.191596,0.1842 -0.224118,0.19974 -0.118117,0.0564 -0.463588,0.0508 -0.608386,-0.01 l -0.07579,-0.0318 0.12325,-0.14617 c 0.06778,-0.0804 0.218697,-0.22181 0.335364,-0.31427 0.895918,-0.70999 2.176629,-1.10836 3.6612,-1.13884 1.08353,-0.0222 2.038452,0.14207 2.497944,0.42982 0.194137,0.12157 0.269618,0.2102 0.298349,0.35032 0.03897,0.19019 -0.04194,0.28923 -0.683569,0.83636 -1.281076,1.09242 -1.541114,1.41356 -1.444837,1.78434 0.15984,0.61559 1.242363,0.92793 3.638247,1.04974 0.05695,0.003 0.111065,0.001 0.120232,-0.003 0.0092,-0.005 1.248431,-1.55839 2.753945,-3.45261 1.505507,-1.894219 2.764286,-3.47317 2.79728,-3.508779 0.03299,-0.03561 0.102208,-0.07796 0.153808,-0.09411 0.08169,-0.02557 0.119005,-0.02861 0.288402,-0.02352 0.238619,0.0072 0.307918,0.03112 0.285563,0.09867 -0.0087,0.02631 -1.256213,1.610513 -2.772233,3.520459 -1.516019,1.90994 -2.7564,3.47769 -2.7564,3.4839 0,0.007 0.168194,0.008 0.429785,0.003 1.695487,-0.0307 3.192292,-0.22202 4.601219,-0.58808 0.470743,-0.1223 1.310737,-0.39117 1.711978,-0.54797 1.188218,-0.46433 2.056652,-1.03504 2.293149,-1.50697 0.08674,-0.17308 0.06105,-0.41026 -0.06017,-0.55576 -0.181246,-0.21754 -0.470515,-0.38163 -0.96388,-0.54677 -0.366925,-0.12281 -0.453604,-0.17458 -0.453801,-0.271 -3.8e-4,-0.12497 0.169326,-0.22973 0.541388,-0.33444 0.307592,-0.0866 0.568684,-0.12031 0.935336,-0.12089 0.258759,-4.1e-4 0.335299,0.004 0.499068,0.0313 0.352375,0.0579 0.617041,0.17963 0.762406,0.35056 0.08575,0.10079 0.114802,0.36562 0.05909,0.53824 -0.106199,0.32887 -0.409917,0.79277 -0.786903,1.20172 -0.245993,0.26686 -0.389552,0.38064 -0.777008,0.61586 -1.003349,0.60911 -2.385989,1.11674 -3.997156,1.46755 -0.807892,0.1759 -1.791211,0.32071 -2.661489,0.39195 -0.594535,0.0487 -1.08933,0.071 -1.77041,0.0798 l -0.573395,0.007 -0.260433,0.33609 c -0.329406,0.4251 -1.054561,1.31299 -1.207119,1.47801 -0.147054,0.15906 -0.204503,0.18434 -0.429697,0.18903 -0.125351,0.002 -0.195859,-0.003 -0.263574,-0.0199 z"
         id="path4448"
         inkscape:connector-curvature="0" />
    </g>
    <path
       style="fill:url(#linearGradient3895-3);fill-opacity:1;stroke:none"
       d="m 111.99381,72.570604 c 0,5.938743 -3.72059,8.525082 -7.0219,10.764323 -6.794238,4.608475 -19.95169,4.558319 -27.64051,4.666073 -0.107728,7.688805 0.303611,20.48508 -4.304863,27.27932 -2.239241,3.30132 -7.036253,7.16441 -10.906844,7.16441 3.082925,0 6.307865,-1.7752 10.086567,-5.4327 12.158605,-11.76861 23.097887,-21.459634 34.14469,-33.645117 2.55216,-2.815215 5.64286,-4.843615 5.64286,-10.796309 z"
       id="path6011"
       inkscape:connector-curvature="0"
       sodipodi:nodetypes="cscscssc" />
    <path
       style="opacity:0.39238497;fill:#000000;fill-opacity:0.48471614;filter:url(#filter3919)"
       d="m 110.13993,40.312485 c -48.781469,32.376384 -24.390735,16.188192 0,0 z M 80.03198,29.605077 c -0.746871,0.03556 -0.848101,0.102981 -0.848101,0.212024 0,0.218014 0.615691,0.212025 5.194673,0.212025 4.578983,0 5.300697,0.006 5.300697,-0.212025 0,-0.218014 -0.721714,-0.212024 -5.300697,-0.212024 -2.289491,0 -3.599687,-0.03556 -4.346572,0 z m 20.5667,0.954125 c -0.0583,-0.003 -0.10318,0.09665 -0.21203,0.212024 -0.27865,0.29539 -1.843239,6.547045 -1.696216,6.784892 0.279596,0.452405 0.398277,0.155799 0.848116,-1.590209 0.161934,-0.628482 0.251066,-0.679372 0.53007,-0.530073 0.29411,0.157409 0.63689,0.07023 0.95413,0 -0.19677,0.03256 -0.39179,-0.08127 -0.6361,-0.212024 -0.436004,-0.233362 -0.35969,-1.021752 0.10605,-2.968389 0.27565,-1.152429 0.28075,-1.687087 0.10606,-1.696226 z m 0.42405,4.876639 c 0.22393,-0.04957 0.4338,-0.05293 0.63609,-0.212026 l 0.42405,-0.318035 0.42406,0.318035 c 0.45956,0.43175 0.82996,0.494761 1.16616,0.106009 0.33569,-0.388202 0.63062,-1.37818 0.42405,-1.37818 -0.0874,0 -0.21202,0.06929 -0.21202,0.212023 0,0.424513 -0.48808,1.272165 -0.7421,1.272165 -0.43905,0 -0.37522,-0.571559 0.10605,-2.544329 0.28611,-1.173977 0.41344,-2.061353 0.31804,-2.120282 -0.29347,-0.181403 -0.47468,0.18189 -0.95413,2.014266 -0.37141,1.419466 -0.60448,1.925551 -0.95412,2.226293 -0.24672,0.212212 -0.43932,0.39141 -0.63608,0.424052 z M 86.286801,31.08928 c -0.09127,0.0307 -0.688004,2.388477 -1.378175,5.194679 -0.690157,2.806203 -1.302331,5.11228 -1.378175,5.194677 -0.192372,0.209031 -1.18533,-0.209366 -1.484198,-0.63608 -0.376163,-0.537071 -0.230517,-1.557551 0.318041,-3.180416 0.300849,-0.890057 0.378358,-1.561951 0.318027,-1.802237 -0.12069,-0.480653 -0.651151,-0.954125 -1.166142,-0.954125 -0.522368,0 -1.466634,0.8945 -1.696231,1.590209 -0.311814,0.944821 -0.08094,1.111895 0.318041,0.212024 0.202733,-0.457324 0.487122,-1.001554 0.636083,-1.166153 0.33222,-0.36715 0.925968,-0.349667 1.060134,0 0.05439,0.141614 -0.103182,1.055154 -0.424051,2.014266 -0.651783,1.948122 -0.737198,2.572251 -0.318041,3.180413 0.416315,0.604036 0.722876,0.848925 1.590207,1.060141 l 0.742107,0.212024 -0.318042,1.166152 c -0.171822,0.66142 -0.32414,1.40593 -0.318041,1.590209 0.01722,0.541307 0.498114,-0.592597 0.742106,-1.802237 0.17231,-0.8543 0.263451,-1.06014 0.53006,-1.06014 1.187166,0 2.909013,-1.163798 3.710489,-2.544334 0.221159,-0.380916 0.491025,-1.130092 0.636083,-1.696221 0.481037,-1.877655 0.285479,-2.909191 -0.530074,-2.650345 -0.489591,0.155424 -0.56862,0.575352 -0.212018,1.060136 0.480635,0.653443 0.486031,1.22288 0.212018,2.120277 -0.50717,1.661098 -2.038152,3.21078 -3.392433,3.392446 l -0.636083,0.106009 1.272166,-5.30069 c 0.713146,-2.916383 1.257513,-5.33123 1.166142,-5.300695 z m -16.644167,0.63607 c -3.330496,-0.0017 -5.40672,0.113156 -5.40672,0.212024 0,0.08816 0.879716,1.421121 2.014272,2.96839 1.134557,1.547271 2.274265,2.929952 2.438323,3.180418 l 0.212018,0.530068 -2.332299,2.75636 -2.332314,2.756362 5.40672,0 5.406705,0 0.424051,-1.166153 c 0.529012,-1.453538 0.57017,-1.784807 0.106052,-1.060139 -0.207153,0.323388 -0.70092,0.673603 -1.272166,0.954124 -0.947207,0.465166 -0.984405,0.472536 -4.982641,0.530071 l -4.02853,0.106009 0.954124,-1.060136 c 2.532407,-2.928564 3.710489,-4.312475 3.710489,-4.452585 0,-0.08501 -0.908618,-1.351585 -2.014272,-2.862374 -1.105654,-1.510786 -2.014258,-2.896468 -2.014258,-2.96839 0,-0.188441 5.183939,-0.09134 6.572862,0.106009 1.429738,0.203191 2.626734,0.776926 3.074392,1.484193 0.570084,0.900362 0.55414,0.569 0,-0.742096 l -0.53006,-1.272168 -5.406705,0 z m 23.111021,3.28642 c -0.993905,0 -1.949407,0.646206 -2.544332,1.802233 -0.504415,0.980194 -0.438976,1.36828 0.106052,0.530072 0.861074,-1.324351 2.264607,-1.747756 3.392447,-1.06014 0.711683,0.4339 1.124727,1.344849 1.272166,2.862373 0.09859,1.014187 0.02282,1.546584 -0.424065,3.286434 -0.286541,1.115785 -0.530059,2.140562 -0.530059,2.332306 0,0.191734 0.122412,0.318035 0.212018,0.318035 0.194209,0 0.516125,-1.233211 0.848115,-2.968389 0.290374,-1.517494 0.925323,-3.190401 1.908249,-5.300694 0.805121,-1.728774 0.835186,-1.696221 0.636083,-1.696221 -0.14566,0 -1.343747,2.260649 -1.908249,3.710485 -0.359443,0.923183 -0.320093,0.891004 -0.530074,-0.742097 -0.119111,-0.926446 -0.76544,-2.305285 -1.272166,-2.75636 C 93.654437,35.093562 93.321026,35.01177 92.753683,35.01177 z M 71.550883,46.567303 c -0.04047,-0.04043 -0.45202,1.5481 -0.954125,3.604475 -0.813716,3.332528 -0.988666,3.761272 -1.272166,3.710486 -0.945055,-0.169351 -1.102784,-1.126912 -0.530074,-2.756362 0.416976,-1.187363 0.421956,-1.31436 0,-1.696221 -0.4824,-0.436574 -1.170993,-0.173206 -1.590207,0.63608 -0.181107,0.349705 -0.259232,0.694946 -0.212033,0.742101 0.04721,0.04717 0.146708,-0.291646 0.318042,-0.636084 0.371125,-0.745997 0.893937,-1.014308 1.166157,-0.742097 0.135901,0.135916 0.0057,0.563986 -0.318042,1.590209 -0.639556,2.023863 -0.408838,2.759071 0.954125,3.074402 l 0.42405,0.106009 -0.212018,0.848112 c -0.12887,0.48404 -0.217457,0.967968 -0.212018,1.06014 0.01435,0.256721 0.228306,-0.390956 0.424051,-1.166156 0.152017,-0.60209 0.260394,-0.757736 0.742092,-0.848108 0.142646,-0.02695 0.276568,-0.136634 0.424065,-0.212025 -0.362027,0.17096 -0.640331,0.207794 -0.742107,0.106009 -0.05697,-0.05697 0.260883,-1.825326 0.742107,-3.816498 0.481195,-1.991164 0.888541,-3.564 0.848101,-3.604472 z m -0.848116,7.314961 c 0.35577,-0.181816 0.730339,-0.42798 1.060134,-0.742097 -0.252329,0.265891 -0.698093,0.571103 -1.060134,0.742097 z m 1.060134,-0.742097 c 0.205288,-0.195516 0.478626,-0.298346 0.636083,-0.530072 0.53049,-0.780669 0.983673,-2.623049 0.742106,-3.074402 -0.211429,-0.395049 -0.46782,-0.436507 -0.742106,-0.106009 -0.160513,0.193382 -0.104617,0.335406 0.106052,0.63608 0.549663,0.784764 0.279438,1.997814 -0.742106,3.074406 z"
       id="path4074"
       inkscape:connector-curvature="0"
       clip-path="url(#clipPath3127)"
       transform="matrix(2.2177814,0,0,2.2177814,-121.61058,-50.732385)"
       sodipodi:nodetypes="ccsssssscccccccccccccccsssccsscccscsscssccccsccccsscccccccccccssccccccccccccsssccccccsccsccssccssccsscscccccccccccccccccccccccscccc" />
    <path
       style="fill:#ffffff;fill-opacity:1;stroke:none"
       d="m 112.01875,73.115242 c -0.42084,5.185724 -5.08438,7.318602 -8.17936,9.417895 C 98.818947,85.938464 82.6646,85.3344 74.6648,85.3344 c 0,7.9998 1.619153,23.49711 -2.7864,30.22372 -1.912401,2.91993 -4.654194,5.79882 -8.19598,6.58338 2.633964,-0.48185 5.299865,-2.47561 8.470288,-5.54435 0.451018,-0.51674 0.763801,-0.90298 1.471286,-1.99496 4.608475,-6.79423 4.099678,-18.412383 4.207406,-26.10119 7.68882,-0.107728 20.028368,-0.145785 26.8226,-4.754259 0.619,-0.41986 2.51897,-1.313671 3.06727,-1.861967 2.04322,-2.043229 3.9922,-4.273773 4.29748,-8.769532 z M 63.68242,122.1415 c -0.209681,0.0464 -0.416863,0.0551 -0.623426,0.0831 0.208794,-0.0225 0.412882,-0.0446 0.623426,-0.0831 z"
       id="path6122"
       inkscape:connector-curvature="0"
       sodipodi:nodetypes="cscsccccsscccc" />
    <path
       style="fill:none;stroke:url(#radialGradient3919-5);stroke-width:1.20000005;stroke-linecap:butt;stroke-linejoin:miter;stroke-miterlimit:4;stroke-opacity:1;stroke-dasharray:none;filter:url(#filter3909-6)"
       d="M 117.31456,81.861283 72.639105,125.34835"
       id="path3873"
       inkscape:connector-curvature="0"
       sodipodi:nodetypes="cc"
       clip-path="url(#clipPath3889-6)"
       transform="matrix(1.3299764,0,0,1.3299764,-36.963543,-37.156423)" />
    <g
       id="g7065"
       transform="matrix(1.3053522,0,0,1.3053522,-6.1713716,-0.3814156)">
      <circle
         transform="matrix(0.87121524,0,0,0.87121524,12.358158,0.48176727)"
         d="m 12,14 c 0,1.104569 -0.895431,2 -2,2 -1.1045695,0 -2,-0.895431 -2,-2 0,-1.104569 0.8954305,-2 2,-2 1.104569,0 2,0.895431 2,2 z"
         sodipodi:ry="2"
         sodipodi:rx="2"
         sodipodi:cy="14"
         sodipodi:cx="10"
         style="fill:url(#linearGradient7071);stroke-width:0.1;stroke-miterlimit:4;stroke-dasharray:none"
         cx="10"
         cy="14"
         r="2"
         id="circle7067" />
      <circle
         transform="matrix(1.0007524,0,0,1.0007524,11.062783,-1.3317548)"
         d="m 11.556,14 c 0,0.859355 -0.696645,1.556 -1.556,1.556 -0.8593551,0 -1.556,-0.696645 -1.556,-1.556 0,-0.859355 0.6966449,-1.556 1.556,-1.556 0.859355,0 1.556,0.696645 1.556,1.556 z"
         sodipodi:ry="1.556"
         sodipodi:rx="1.556"
         sodipodi:cy="14"
         sodipodi:cx="10"
         style="fill:url(#linearGradient3527);stroke-width:0.1;stroke-miterlimit:4;stroke-dasharray:none"
         cx="10"
         cy="14"
         r="1.556"
         id="circle7069" />
    </g>
    <g
       transform="matrix(1.5303907,0,0,1.5303911,-10.913007,-3.4196686)"
       id="g3862">
      <circle
         id="circle3864"
         r="2"
         cy="14"
         cx="10"
         style="fill:url(#linearGradient3910);stroke-width:0.1;stroke-miterlimit:4;stroke-dasharray:none"
         sodipodi:cx="10"
         sodipodi:cy="14"
         sodipodi:rx="2"
         sodipodi:ry="2"
         d="m 12,14 c 0,1.104569 -0.895431,2 -2,2 -1.1045695,0 -2,-0.895431 -2,-2 0,-1.104569 0.8954305,-2 2,-2 1.104569,0 2,0.895431 2,2 z"
         transform="matrix(0.87121524,0,0,0.87121524,12.358158,0.48176727)" />
      <circle
         id="circle3866"
         r="1.556"
         cy="14"
         cx="10"
         style="fill:url(#linearGradient3912);stroke-width:0.1;stroke-miterlimit:4;stroke-dasharray:none"
         sodipodi:cx="10"
         sodipodi:cy="14"
         sodipodi:rx="1.556"
         sodipodi:ry="1.556"
         d="m 11.556,14 c 0,0.859355 -0.696645,1.556 -1.556,1.556 -0.8593551,0 -1.556,-0.696645 -1.556,-1.556 0,-0.859355 0.6966449,-1.556 1.556,-1.556 0.859355,0 1.556,0.696645 1.556,1.556 z"
         transform="matrix(1.0007524,0,0,1.0007524,11.062783,-1.3317548)" />
    </g>
    <g
       id="g3914"
       transform="matrix(1.5303907,0,0,1.5303911,-10.913007,9.913331)">
      <circle
         transform="matrix(0.87121524,0,0,0.87121524,12.358158,0.48176727)"
         d="m 12,14 c 0,1.104569 -0.895431,2 -2,2 -1.1045695,0 -2,-0.895431 -2,-2 0,-1.104569 0.8954305,-2 2,-2 1.104569,0 2,0.895431 2,2 z"
         sodipodi:ry="2"
         sodipodi:rx="2"
         sodipodi:cy="14"
         sodipodi:cx="10"
         style="fill:url(#linearGradient3920);stroke-width:0.1;stroke-miterlimit:4;stroke-dasharray:none"
         cx="10"
         cy="14"
         r="2"
         id="circle3916" />
      <circle
         transform="matrix(1.0007524,0,0,1.0007524,11.062783,-1.3317548)"
         d="m 11.556,14 c 0,0.859355 -0.696645,1.556 -1.556,1.556 -0.8593551,0 -1.556,-0.696645 -1.556,-1.556 0,-0.859355 0.6966449,-1.556 1.556,-1.556 0.859355,0 1.556,0.696645 1.556,1.556 z"
         sodipodi:ry="1.556"
         sodipodi:rx="1.556"
         sodipodi:cy="14"
         sodipodi:cx="10"
         style="fill:url(#linearGradient3922);stroke-width:0.1;stroke-miterlimit:4;stroke-dasharray:none"
         cx="10"
         cy="14"
         r="1.556"
         id="circle3918" />
    </g>
    <g
       transform="matrix(1.5303907,0,0,1.5303911,-10.913007,23.246331)"
       id="g3924">
      <circle
         id="circle3926"
         r="2"
         cy="14"
         cx="10"
         style="fill:url(#linearGradient3930);stroke-width:0.1;stroke-miterlimit:4;stroke-dasharray:none"
         sodipodi:cx="10"
         sodipodi:cy="14"
         sodipodi:rx="2"
         sodipodi:ry="2"
         d="m 12,14 c 0,1.104569 -0.895431,2 -2,2 -1.1045695,0 -2,-0.895431 -2,-2 0,-1.104569 0.8954305,-2 2,-2 1.104569,0 2,0.895431 2,2 z"
         transform="matrix(0.87121524,0,0,0.87121524,12.358158,0.48176727)" />
      <circle
         id="circle3928"
         r="1.556"
         cy="14"
         cx="10"
         style="fill:url(#linearGradient3932);stroke-width:0.1;stroke-miterlimit:4;stroke-dasharray:none"
         sodipodi:cx="10"
         sodipodi:cy="14"
         sodipodi:rx="1.556"
         sodipodi:ry="1.556"
         d="m 11.556,14 c 0,0.859355 -0.696645,1.556 -1.556,1.556 -0.8593551,0 -1.556,-0.696645 -1.556,-1.556 0,-0.859355 0.6966449,-1.556 1.556,-1.556 0.859355,0 1.556,0.696645 1.556,1.556 z"
         transform="matrix(1.0007524,0,0,1.0007524,11.062783,-1.3317548)" />
    </g>
    <g
       id="g3942"
       transform="matrix(1.5303907,0,0,1.5303911,-10.913007,36.579331)">
      <circle
         transform="matrix(0.87121524,0,0,0.87121524,12.358158,0.48176727)"
         d="m 12,14 c 0,1.104569 -0.895431,2 -2,2 -1.1045695,0 -2,-0.895431 -2,-2 0,-1.104569 0.8954305,-2 2,-2 1.104569,0 2,0.895431 2,2 z"
         sodipodi:ry="2"
         sodipodi:rx="2"
         sodipodi:cy="14"
         sodipodi:cx="10"
         style="fill:url(#linearGradient3948);stroke-width:0.1;stroke-miterlimit:4;stroke-dasharray:none"
         cx="10"
         cy="14"
         r="2"
         id="circle3944" />
      <circle
         transform="matrix(1.0007524,0,0,1.0007524,11.062783,-1.3317548)"
         d="m 11.556,14 c 0,0.859355 -0.696645,1.556 -1.556,1.556 -0.8593551,0 -1.556,-0.696645 -1.556,-1.556 0,-0.859355 0.6966449,-1.556 1.556,-1.556 0.859355,0 1.556,0.696645 1.556,1.556 z"
         sodipodi:ry="1.556"
         sodipodi:rx="1.556"
         sodipodi:cy="14"
         sodipodi:cx="10"
         style="fill:url(#linearGradient3950);stroke-width:0.1;stroke-miterlimit:4;stroke-dasharray:none"
         cx="10"
         cy="14"
         r="1.556"
         id="circle3946" />
    </g>
    <g
       transform="matrix(1.5303907,0,0,1.5303911,-10.913007,49.912331)"
       id="g3952">
      <circle
         id="circle3954"
         r="2"
         cy="14"
         cx="10"
         style="fill:url(#linearGradient3958);stroke-width:0.1;stroke-miterlimit:4;stroke-dasharray:none"
         sodipodi:cx="10"
         sodipodi:cy="14"
         sodipodi:rx="2"
         sodipodi:ry="2"
         d="m 12,14 c 0,1.104569 -0.895431,2 -2,2 -1.1045695,0 -2,-0.895431 -2,-2 0,-1.104569 0.8954305,-2 2,-2 1.104569,0 2,0.895431 2,2 z"
         transform="matrix(0.87121524,0,0,0.87121524,12.358158,0.48176727)" />
      <circle
         id="circle3956"
         r="1.556"
         cy="14"
         cx="10"
         style="fill:url(#linearGradient3960);stroke-width:0.1;stroke-miterlimit:4;stroke-dasharray:none"
         sodipodi:cx="10"
         sodipodi:cy="14"
         sodipodi:rx="1.556"
         sodipodi:ry="1.556"
         d="m 11.556,14 c 0,0.859355 -0.696645,1.556 -1.556,1.556 -0.8593551,0 -1.556,-0.696645 -1.556,-1.556 0,-0.859355 0.6966449,-1.556 1.556,-1.556 0.859355,0 1.556,0.696645 1.556,1.556 z"
         transform="matrix(1.0007524,0,0,1.0007524,11.062783,-1.3317548)" />
    </g>
    <g
       id="g3962"
       transform="matrix(1.5303907,0,0,1.5303911,-10.913007,63.245331)">
      <circle
         transform="matrix(0.87121524,0,0,0.87121524,12.358158,0.48176727)"
         d="m 12,14 c 0,1.104569 -0.895431,2 -2,2 -1.1045695,0 -2,-0.895431 -2,-2 0,-1.104569 0.8954305,-2 2,-2 1.104569,0 2,0.895431 2,2 z"
         sodipodi:ry="2"
         sodipodi:rx="2"
         sodipodi:cy="14"
         sodipodi:cx="10"
         style="fill:url(#linearGradient3968);stroke-width:0.1;stroke-miterlimit:4;stroke-dasharray:none"
         cx="10"
         cy="14"
         r="2"
         id="circle3964" />
      <circle
         transform="matrix(1.0007524,0,0,1.0007524,11.062783,-1.3317548)"
         d="m 11.556,14 c 0,0.859355 -0.696645,1.556 -1.556,1.556 -0.8593551,0 -1.556,-0.696645 -1.556,-1.556 0,-0.859355 0.6966449,-1.556 1.556,-1.556 0.859355,0 1.556,0.696645 1.556,1.556 z"
         sodipodi:ry="1.556"
         sodipodi:rx="1.556"
         sodipodi:cy="14"
         sodipodi:cx="10"
         style="fill:url(#linearGradient3970);stroke-width:0.1;stroke-miterlimit:4;stroke-dasharray:none"
         cx="10"
         cy="14"
         r="1.556"
         id="circle3966" />
    </g>
    <g
       transform="matrix(1.5303907,0,0,1.5303911,-10.913007,76.578331)"
       id="g3972">
      <circle
         id="circle3974"
         r="2"
         cy="14"
         cx="10"
         style="fill:url(#linearGradient3978);stroke-width:0.1;stroke-miterlimit:4;stroke-dasharray:none"
         sodipodi:cx="10"
         sodipodi:cy="14"
         sodipodi:rx="2"
         sodipodi:ry="2"
         d="m 12,14 c 0,1.104569 -0.895431,2 -2,2 -1.1045695,0 -2,-0.895431 -2,-2 0,-1.104569 0.8954305,-2 2,-2 1.104569,0 2,0.895431 2,2 z"
         transform="matrix(0.87121524,0,0,0.87121524,12.358158,0.48176727)" />
      <circle
         id="circle3976"
         r="1.556"
         cy="14"
         cx="10"
         style="fill:url(#linearGradient3980);stroke-width:0.1;stroke-miterlimit:4;stroke-dasharray:none"
         sodipodi:cx="10"
         sodipodi:cy="14"
         sodipodi:rx="1.556"
         sodipodi:ry="1.556"
         d="m 11.556,14 c 0,0.859355 -0.696645,1.556 -1.556,1.556 -0.8593551,0 -1.556,-0.696645 -1.556,-1.556 0,-0.859355 0.6966449,-1.556 1.556,-1.556 0.859355,0 1.556,0.696645 1.556,1.556 z"
         transform="matrix(1.0007524,0,0,1.0007524,11.062783,-1.3317548)" />
    </g>
    <g
       id="g3983"
       transform="matrix(1.5303907,0,0,1.5303911,-10.913007,89.911331)">
      <circle
         transform="matrix(0.87121524,0,0,0.87121524,12.358158,0.48176727)"
         d="m 12,14 c 0,1.104569 -0.895431,2 -2,2 -1.1045695,0 -2,-0.895431 -2,-2 0,-1.104569 0.8954305,-2 2,-2 1.104569,0 2,0.895431 2,2 z"
         sodipodi:ry="2"
         sodipodi:rx="2"
         sodipodi:cy="14"
         sodipodi:cx="10"
         style="fill:url(#linearGradient3989);stroke-width:0.1;stroke-miterlimit:4;stroke-dasharray:none"
         cx="10"
         cy="14"
         r="2"
         id="circle3985" />
      <circle
         transform="matrix(1.0007524,0,0,1.0007524,11.062783,-1.3317548)"
         d="m 11.556,14 c 0,0.859355 -0.696645,1.556 -1.556,1.556 -0.8593551,0 -1.556,-0.696645 -1.556,-1.556 0,-0.859355 0.6966449,-1.556 1.556,-1.556 0.859355,0 1.556,0.696645 1.556,1.556 z"
         sodipodi:ry="1.556"
         sodipodi:rx="1.556"
         sodipodi:cy="14"
         sodipodi:cx="10"
         style="fill:url(#linearGradient3991);stroke-width:0.1;stroke-miterlimit:4;stroke-dasharray:none"
         cx="10"
         cy="14"
         r="1.556"
         id="circle3987" />
    </g>
  </g>
</svg>
