<?xml version="1.0" encoding="UTF-8" standalone="no"?>
<!-- Created with Inkscape (http://www.inkscape.org/) -->

<svg
   xmlns:dc="http://purl.org/dc/elements/1.1/"
   xmlns:cc="http://creativecommons.org/ns#"
   xmlns:rdf="http://www.w3.org/1999/02/22-rdf-syntax-ns#"
   xmlns:svg="http://www.w3.org/2000/svg"
   xmlns="http://www.w3.org/2000/svg"
   xmlns:xlink="http://www.w3.org/1999/xlink"
   xmlns:sodipodi="http://sodipodi.sourceforge.net/DTD/sodipodi-0.dtd"
   xmlns:inkscape="http://www.inkscape.org/namespaces/inkscape"
   width="128"
   height="128"
   id="svg2606"
   sodipodi:version="0.32"
   inkscape:version="0.48.0 r9654"
   version="1.0"
   sodipodi:docname="mime2.svgz"
   inkscape:output_extension="org.inkscape.output.svgz.inkscape"
   inkscape:export-filename="/home/pinheiro/pics/oxygen-icons/scalable/mimetypes/small/48x48/mime2.png"
   inkscape:export-xdpi="135"
   inkscape:export-ydpi="135">
  <defs
     id="defs2608">
    <linearGradient
       id="linearGradient6131">
      <stop
         id="stop6133"
         offset="0"
         style="stop-color:#fcfcfc;stop-opacity:1" />
      <stop
         style="stop-color:#f8f8f8;stop-opacity:1"
         offset="0.52275378"
         id="stop6135" />
      <stop
         id="stop6141"
         offset="0.77457333"
         style="stop-color:#f0efef;stop-opacity:1;" />
      <stop
         id="stop6139"
         offset="0.90122044"
         style="stop-color:#e3e1e1;stop-opacity:1;" />
      <stop
         id="stop6137"
         offset="1"
         style="stop-color:#cecbcb;stop-opacity:1" />
    </linearGradient>
    <linearGradient
       inkscape:collect="always"
       xlink:href="#linearGradient6131"
       id="linearGradient3893"
       gradientUnits="userSpaceOnUse"
       gradientTransform="matrix(1.0119858,0,0,1.0119858,-0.89554075,-0.9871566)"
       x1="86.73793"
       y1="93.621468"
       x2="95.460213"
       y2="102.34375" />
    <radialGradient
       inkscape:collect="always"
       xlink:href="#linearGradient3913-5"
       id="radialGradient3919-5"
       cx="90.75"
       cy="110.25299"
       fx="90.75"
       fy="110.25299"
       r="18.750002"
       gradientTransform="matrix(1.3067347,0,0,1.3067347,-27.83617,-33.818441)"
       gradientUnits="userSpaceOnUse" />
    <linearGradient
       inkscape:collect="always"
       id="linearGradient3913-5">
      <stop
         style="stop-color:#ffffff;stop-opacity:1;"
         offset="0"
         id="stop3915-4" />
      <stop
         style="stop-color:#ffffff;stop-opacity:0;"
         offset="1"
         id="stop3917-7" />
    </linearGradient>
    <clipPath
       clipPathUnits="userSpaceOnUse"
       id="clipPath3889-6">
      <path
         sodipodi:nodetypes="cscscssc"
         inkscape:connector-curvature="0"
         id="path3891-5"
         d="m 112,82.502986 c 0,4.465301 -2.79749,6.409952 -5.27972,8.093625 -5.10854,3.46508 -14.939114,3.32536 -20.720284,3.40638 -0.081,5.781159 0.16586,15.504599 -3.29922,20.613139 -1.68367,2.48224 -5.29051,5.38687 -8.20078,5.38687 2.31803,0 4.74284,-1.33476 7.58402,-4.08481 9.14197,-8.84873 17.36714,-16.13535 25.673154,-25.297529 C 109.67612,88.503916 112,86.97878 112,82.502986 z"
         style="fill:url(#linearGradient3893);fill-opacity:1;stroke:none" />
    </clipPath>
    <filter
       color-interpolation-filters="sRGB"
       inkscape:collect="always"
       id="filter3909-6">
      <feGaussianBlur
         inkscape:collect="always"
         stdDeviation="0.43040059"
         id="feGaussianBlur3911-9" />
    </filter>
    <linearGradient
       inkscape:collect="always"
       xlink:href="#linearGradient3897-7"
       id="linearGradient3895-3"
       gradientUnits="userSpaceOnUse"
       gradientTransform="matrix(1.3459172,0,0,1.3459172,-38.154591,-38.469319)"
       x1="86.73793"
       y1="93.621468"
       x2="95.18235"
       y2="102.06589" />
    <linearGradient
       id="linearGradient3897-7">
      <stop
         style="stop-color:#fcfcfc;stop-opacity:1"
         offset="0"
         id="stop3899-4" />
      <stop
         id="stop3901-5"
         offset="0.52275378"
         style="stop-color:#f8f8f8;stop-opacity:1" />
      <stop
         style="stop-color:#f0efef;stop-opacity:1;"
         offset="0.72337759"
         id="stop3903-2" />
      <stop
         style="stop-color:#e3e1e1;stop-opacity:1;"
         offset="0.89024991"
         id="stop3905-5" />
      <stop
         style="stop-color:#cecbcb;stop-opacity:1"
         offset="1"
         id="stop3907-4" />
    </linearGradient>
    <clipPath
       clipPathUnits="userSpaceOnUse"
       id="clipPath6093-7">
      <path
         inkscape:connector-curvature="0"
         sodipodi:nodetypes="cccssccc"
         id="path6095-4"
         d="m 17.000001,8 0.782827,110 57.5,0 c 1.675283,0 3.119418,0.18058 4.9,-1.6 C 88.980763,107.60206 99.94047,96.548195 107.19904,89.224043 109.6396,86.761431 110,84.752873 110,82.5 L 110,8 z"
         style="fill:#ffffff;fill-opacity:1" />
    </clipPath>
    <filter
       color-interpolation-filters="sRGB"
       inkscape:collect="always"
       id="filter6118-4"
       x="-0.1126375"
       width="1.225275"
       y="-0.12064722"
       height="1.2412944">
      <feGaussianBlur
         inkscape:collect="always"
         stdDeviation="2.3860572"
         id="feGaussianBlur6120-3" />
    </filter>
    <radialGradient
       inkscape:collect="always"
       xlink:href="#linearGradient5982-7"
       id="radialGradient5988-0"
       cx="64"
       cy="64.004021"
       fx="63.793392"
       fy="47.274845"
       r="47.5"
       gradientTransform="matrix(1.6842105,-0.08429519,0.06886339,1.3758846,-48.197001,-18.66323)"
       gradientUnits="userSpaceOnUse" />
    <linearGradient
       inkscape:collect="always"
       id="linearGradient5982-7">
      <stop
         style="stop-color:#ffffff;stop-opacity:1;"
         offset="0"
         id="stop5984-8" />
      <stop
         style="stop-color:#ffffff;stop-opacity:0;"
         offset="1"
         id="stop5986-6" />
    </linearGradient>
    <filter
       color-interpolation-filters="sRGB"
       inkscape:collect="always"
       id="filter6171-8"
       x="-0.47870937"
       width="1.9574188"
       y="-0.51275069"
       height="2.0255013">
      <feGaussianBlur
         inkscape:collect="always"
         stdDeviation="10.140743"
         id="feGaussianBlur6173-8" />
    </filter>
    <linearGradient
       inkscape:collect="always"
       xlink:href="#linearGradient4518-3"
       id="linearGradient4524-4"
       x1="72"
       y1="0"
       x2="72"
       y2="116.40091"
       gradientUnits="userSpaceOnUse"
       gradientTransform="translate(3.9208985e-7,2.7836914e-6)" />
    <linearGradient
       id="linearGradient4518-3">
      <stop
         style="stop-color:#eeecec;stop-opacity:1"
         offset="0"
         id="stop4520-1" />
      <stop
         id="stop5969-4"
         offset="0.40000001"
         style="stop-color:#f4f4f4;stop-opacity:1" />
      <stop
         style="stop-color:#f6f5f5;stop-opacity:1"
         offset="1"
         id="stop4522-9" />
    </linearGradient>
    <filter
       inkscape:collect="always"
       id="filter4111">
      <feGaussianBlur
         inkscape:collect="always"
         stdDeviation="1.5615"
         id="feGaussianBlur4113" />
    </filter>
    <filter
       inkscape:collect="always"
       id="filter4123">
      <feGaussianBlur
         inkscape:collect="always"
         stdDeviation="2.028"
         id="feGaussianBlur4125" />
    </filter>
    <mask
       maskUnits="userSpaceOnUse"
       id="mask4235">
      <rect
         style="fill:#ffffff;fill-opacity:1;stroke:none;filter:url(#filter4227)"
         id="rect4237"
         width="86.520592"
         height="23"
         x="147.99574"
         y="101.66447"
         transform="matrix(0.98820408,0.21413945,0,1,-0.1,-63.573042)" />
    </mask>
    <filter
       color-interpolation-filters="sRGB"
       inkscape:collect="always"
       id="filter4227"
       x="-0.08038944"
       width="1.1607789"
       y="-0.18960819"
       height="1.3792164">
      <feGaussianBlur
         inkscape:collect="always"
         stdDeviation="2.898059"
         id="feGaussianBlur4229" />
    </filter>
    <linearGradient
       inkscape:collect="always"
       xlink:href="#linearGradient4097"
       id="linearGradient4261"
       gradientUnits="userSpaceOnUse"
       gradientTransform="matrix(1,0,0,-1,-0.05355339,192.8125)"
       x1="178.09375"
       y1="87.907143"
       x2="203.3237"
       y2="55.1875" />
    <linearGradient
       id="linearGradient4097">
      <stop
         style="stop-color:#f2a9d7;stop-opacity:1;"
         offset="0"
         id="stop4099" />
      <stop
         id="stop4101"
         offset="0.03977002"
         style="stop-color:#f282bf;stop-opacity:1;" />
      <stop
         style="stop-color:#b32c75;stop-opacity:1;"
         offset="0.07781535"
         id="stop4103" />
      <stop
         style="stop-color:#72234a;stop-opacity:1;"
         offset="0.90122044"
         id="stop4105" />
      <stop
         style="stop-color:#792149;stop-opacity:1;"
         offset="1"
         id="stop4107" />
    </linearGradient>
    <linearGradient
       inkscape:collect="always"
       xlink:href="#linearGradient4082"
       id="linearGradient4263"
       gradientUnits="userSpaceOnUse"
       gradientTransform="matrix(1,0,0,-1,-0.05355339,192.8125)"
       x1="189.55894"
       y1="76.890495"
       x2="196.375"
       y2="76.562004" />
    <linearGradient
       id="linearGradient4082">
      <stop
         id="stop4084"
         offset="0"
         style="stop-color:#f093e3;stop-opacity:1;" />
      <stop
         id="stop4086"
         offset="1"
         style="stop-color:#d259ab;stop-opacity:1;" />
    </linearGradient>
    <linearGradient
       inkscape:collect="always"
       xlink:href="#linearGradient4073"
       id="linearGradient4265"
       gradientUnits="userSpaceOnUse"
       gradientTransform="matrix(1,0,0,-1,-0.05355339,192.8125)"
       x1="192.96698"
       y1="83.625"
       x2="196.375"
       y2="80.093498" />
    <linearGradient
       inkscape:collect="always"
       id="linearGradient4073">
      <stop
         style="stop-color:#541937;stop-opacity:1;"
         offset="0"
         id="stop4075" />
      <stop
         style="stop-color:#852657;stop-opacity:1"
         offset="1"
         id="stop4077" />
    </linearGradient>
    <linearGradient
       inkscape:collect="always"
       xlink:href="#linearGradient4073"
       id="linearGradient4267"
       gradientUnits="userSpaceOnUse"
       gradientTransform="matrix(1,0,0,-1,-0.05355339,192.8125)"
       x1="180.0406"
       y1="53.700905"
       x2="177.96727"
       y2="59.296734" />
    <linearGradient
       inkscape:collect="always"
       xlink:href="#linearGradient4036"
       id="linearGradient4269"
       gradientUnits="userSpaceOnUse"
       gradientTransform="matrix(1,0,0,-1,-0.05355339,192.8125)"
       x1="197.70114"
       y1="51.54483"
       x2="208.97713"
       y2="93.627396" />
    <linearGradient
       id="linearGradient4036">
      <stop
         id="stop4038"
         offset="0"
         style="stop-color:#f2a9d7;stop-opacity:1;" />
      <stop
         style="stop-color:#f282bf;stop-opacity:1;"
         offset="0.3488954"
         id="stop4040" />
      <stop
         id="stop4042"
         offset="0.67611599"
         style="stop-color:#b32c75;stop-opacity:1;" />
      <stop
         id="stop4044"
         offset="0.90122044"
         style="stop-color:#72234a;stop-opacity:1;" />
      <stop
         id="stop4046"
         offset="1"
         style="stop-color:#792149;stop-opacity:1;" />
    </linearGradient>
    <linearGradient
       inkscape:collect="always"
       xlink:href="#linearGradient4097"
       id="linearGradient4271"
       gradientUnits="userSpaceOnUse"
       x1="178.09375"
       y1="87.907143"
       x2="203.3237"
       y2="55.1875" />
    <linearGradient
       id="linearGradient3354">
      <stop
         style="stop-color:#f2a9d7;stop-opacity:1;"
         offset="0"
         id="stop3356" />
      <stop
         id="stop3358"
         offset="0.03977002"
         style="stop-color:#f282bf;stop-opacity:1;" />
      <stop
         style="stop-color:#b32c75;stop-opacity:1;"
         offset="0.07781535"
         id="stop3360" />
      <stop
         style="stop-color:#72234a;stop-opacity:1;"
         offset="0.90122044"
         id="stop3362" />
      <stop
         style="stop-color:#792149;stop-opacity:1;"
         offset="1"
         id="stop3364" />
    </linearGradient>
    <linearGradient
       inkscape:collect="always"
       xlink:href="#linearGradient4082"
       id="linearGradient4273"
       gradientUnits="userSpaceOnUse"
       x1="189.55894"
       y1="76.890495"
       x2="196.375"
       y2="76.562004" />
    <linearGradient
       id="linearGradient3367">
      <stop
         id="stop3369"
         offset="0"
         style="stop-color:#f093e3;stop-opacity:1;" />
      <stop
         id="stop3371"
         offset="1"
         style="stop-color:#d259ab;stop-opacity:1;" />
    </linearGradient>
    <linearGradient
       inkscape:collect="always"
       xlink:href="#linearGradient4073"
       id="linearGradient4275"
       gradientUnits="userSpaceOnUse"
       x1="192.96698"
       y1="83.625"
       x2="196.375"
       y2="80.093498" />
    <linearGradient
       inkscape:collect="always"
       xlink:href="#linearGradient4036"
       id="linearGradient4277"
       gradientUnits="userSpaceOnUse"
       x1="197.13286"
       y1="60.665321"
       x2="192.96698"
       y2="76.562004" />
    <linearGradient
       id="linearGradient3381">
      <stop
         id="stop3383"
         offset="0"
         style="stop-color:#f2a9d7;stop-opacity:1;" />
      <stop
         style="stop-color:#f282bf;stop-opacity:1;"
         offset="0.3488954"
         id="stop3385" />
      <stop
         id="stop3387"
         offset="0.67611599"
         style="stop-color:#b32c75;stop-opacity:1;" />
      <stop
         id="stop3389"
         offset="0.90122044"
         style="stop-color:#72234a;stop-opacity:1;" />
      <stop
         id="stop3391"
         offset="1"
         style="stop-color:#792149;stop-opacity:1;" />
    </linearGradient>
    <linearGradient
       inkscape:collect="always"
       xlink:href="#linearGradient3206"
       id="linearGradient4279"
       gradientUnits="userSpaceOnUse"
       x1="180.96252"
       y1="95.760788"
       x2="185.48125"
       y2="94.550003" />
    <linearGradient
       inkscape:collect="always"
       id="linearGradient3206">
      <stop
         style="stop-color:#000000;stop-opacity:1;"
         offset="0"
         id="stop2466" />
      <stop
         style="stop-color:#000000;stop-opacity:0;"
         offset="1"
         id="stop2468" />
    </linearGradient>
    <filter
       color-interpolation-filters="sRGB"
       inkscape:collect="always"
       id="filter4221"
       x="-0.19402157"
       width="1.388043"
       y="-0.54683876"
       height="2.0936775">
      <feGaussianBlur
         inkscape:collect="always"
         stdDeviation="0.84589121"
         id="feGaussianBlur4223" />
    </filter>
    <linearGradient
       inkscape:collect="always"
       xlink:href="#linearGradient4036"
       id="linearGradient4281"
       gradientUnits="userSpaceOnUse"
       spreadMethod="reflect"
       x1="181.48228"
       y1="66.5625"
       x2="183.27477"
       y2="63.457821" />
    <linearGradient
       id="linearGradient3400">
      <stop
         id="stop3402"
         offset="0"
         style="stop-color:#f2a9d7;stop-opacity:1;" />
      <stop
         style="stop-color:#f282bf;stop-opacity:1;"
         offset="0.3488954"
         id="stop3404" />
      <stop
         id="stop3406"
         offset="0.67611599"
         style="stop-color:#b32c75;stop-opacity:1;" />
      <stop
         id="stop3408"
         offset="0.90122044"
         style="stop-color:#72234a;stop-opacity:1;" />
      <stop
         id="stop3410"
         offset="1"
         style="stop-color:#792149;stop-opacity:1;" />
    </linearGradient>
    <linearGradient
       inkscape:collect="always"
       xlink:href="#linearGradient4130"
       id="linearGradient4283"
       gradientUnits="userSpaceOnUse"
       x1="180.0406"
       y1="53.700905"
       x2="177.96727"
       y2="59.296734" />
    <linearGradient
       inkscape:collect="always"
       id="linearGradient4130">
      <stop
         style="stop-color:#f6badd;stop-opacity:1"
         offset="0"
         id="stop4132" />
      <stop
         style="stop-color:#f299cd;stop-opacity:0;"
         offset="1"
         id="stop4134" />
    </linearGradient>
    <linearGradient
       inkscape:collect="always"
       xlink:href="#linearGradient4036"
       id="linearGradient4285"
       gradientUnits="userSpaceOnUse"
       x1="197.70114"
       y1="51.54483"
       x2="208.97713"
       y2="93.627396" />
    <linearGradient
       id="linearGradient3417">
      <stop
         id="stop3419"
         offset="0"
         style="stop-color:#f2a9d7;stop-opacity:1;" />
      <stop
         style="stop-color:#f282bf;stop-opacity:1;"
         offset="0.3488954"
         id="stop3421" />
      <stop
         id="stop3423"
         offset="0.67611599"
         style="stop-color:#b32c75;stop-opacity:1;" />
      <stop
         id="stop3425"
         offset="0.90122044"
         style="stop-color:#72234a;stop-opacity:1;" />
      <stop
         id="stop3427"
         offset="1"
         style="stop-color:#792149;stop-opacity:1;" />
    </linearGradient>
    <clipPath
       clipPathUnits="userSpaceOnUse"
       id="clipPath5480">
      <path
         sodipodi:nodetypes="ccssscccccc"
         inkscape:connector-curvature="0"
         id="path5482"
         d="m 12,14.5 c -0.339844,0 -0.5,0.234618 -0.5,0.5 l 0,108.96875 c 0,0.82158 0.679323,1.49953 1.5,1.5 L 68,125.5 c 0.05307,3e-5 0.997884,-0.008 1.6875,5e-5 10.098603,-3.99538 25.4133,-22.75328 34.35853,-31.755094 1.47685,-1.656484 1.11385,-1.151317 1.45391,-2.888706 L 105.5,15 c 0,-0.322717 -0.16322,-0.5 -0.5,-0.5 z"
         style="opacity:0.84653476;fill:url(#radialGradient5484);fill-opacity:1" />
    </clipPath>
  </defs>
  <sodipodi:namedview
     id="base"
     pagecolor="#ffffff"
     bordercolor="#666666"
     borderopacity="1.0"
     inkscape:pageopacity="0.0"
     inkscape:pageshadow="2"
     inkscape:zoom="4"
     inkscape:cx="78.045788"
     inkscape:cy="91.78835"
     inkscape:document-units="px"
     inkscape:current-layer="layer1"
     width="128px"
     height="128px"
     showgrid="true"
     inkscape:grid-points="true"
     showguides="true"
     inkscape:guide-bbox="true"
     inkscape:window-width="941"
     inkscape:window-height="931"
     inkscape:window-x="677"
     inkscape:window-y="139"
     inkscape:snap-global="true"
     inkscape:window-maximized="0"
     inkscape:snap-page="true">
    <inkscape:grid
       id="GridFromPre046Settings"
       type="xygrid"
       originx="0px"
       originy="0px"
       spacingx="2.6666px"
       spacingy="2.6666px"
       color="#0000ff"
       empcolor="#0000ff"
       opacity="0.2"
       empopacity="0.4"
       empspacing="2"
       visible="true"
       enabled="true"
       snapvisiblegridlinesonly="true" />
    <sodipodi:guide
       orientation="1,0"
       position="-68,29.325902"
       id="guide4564" />
    <sodipodi:guide
       orientation="1,0"
       position="-121.62237,135.0574"
       id="guide3859" />
    <sodipodi:guide
       orientation="0,1"
       position="38.581514,-74.688154"
       id="guide4360" />
  </sodipodi:namedview>
  <metadata
     id="metadata2611">
    <rdf:RDF>
      <cc:Work
         rdf:about="">
        <dc:format>image/svg+xml</dc:format>
        <dc:type
           rdf:resource="http://purl.org/dc/dcmitype/StillImage" />
        <dc:title></dc:title>
      </cc:Work>
    </rdf:RDF>
  </metadata>
  <g
     inkscape:label="Livello 1"
     inkscape:groupmode="layer"
     id="layer1">
    <path
       style="opacity:0.45606695;fill:#000000;fill-opacity:1;filter:url(#filter4123)"
       d="m 13.333,5.3364 0,117.8304 49.8545,0.4332 c 2.115476,0.0184 4.528919,-1.77169 7,-4.25 0.71234,-0.71442 1.440746,-1.39395 2.15625,-2.09375 0.415612,-0.40649 0.832187,-0.81443 1.25,-1.21875 7.773958,-7.40962 26.98341,-25.122599 34.21875,-33.099999 0.42065,-0.42064 0.81207,-0.8111 1.15625,-1.1875 1.46444,-1.49766 2.76158,-2.8378 2.99375,-5.8625 L 112,75.156251 111.9972,5.3364 z"
       id="path5990"
       inkscape:connector-curvature="0"
       sodipodi:nodetypes="ccsssccccccc" />
    <path
       sodipodi:nodetypes="cccccccc"
       id="path3722"
       d="m 13.333,5.3364 0,118.3304 49.3318,0.3 c 1.527964,0 3.65713,-0.98408 6.387944,-2.83388 C 82.175824,111.57445 97.49744,91.890146 108.75009,80.500071 110.49334,78.756821 112,77.462561 112,73.300001 L 111.9972,5.3364 z"
       style="fill:#000000;fill-opacity:0.84716159;filter:url(#filter4111)"
       inkscape:connector-curvature="0" />
    <path
       style="fill:#ffffff;fill-opacity:1"
       d="m 13.333,5.3364 0,117.3304 49.3318,0 c 1.675283,0 3.914297,-0.56468 7,-3.6 8.870045,-8.72523 32.07567,-31.518599 39.33424,-38.842759 C 111.4396,77.761431 112,75.752871 112,73.500001 L 111.9972,5.3364 z"
       id="path34"
       sodipodi:nodetypes="cccssccc"
       inkscape:connector-curvature="0" />
    <path
       style="fill:url(#linearGradient4524-4);fill-opacity:1"
       d="m 16.5,8.000003 c -0.339844,0 -0.5,0.234618 -0.5,0.5 l 0,109.968747 c 0,0.82158 0.679323,1.5 1.5,1.5 l 48.6875,0 c 0.05308,0 0.810384,0.0234 1.5,0.0313 1.777664,-0.0401 3.131974,-0.75374 4.356035,-1.59328 1.051866,-0.29103 25.980435,-26.619589 35.101555,-35.809239 1.36239,-1.37262 2.18546,-3.94817 2.18546,-4.89561 l 5e-5,-69.201918 c 0,-0.322717 -0.16322,-0.5 -0.5,-0.5 z"
       id="path3967"
       inkscape:connector-curvature="0"
       sodipodi:nodetypes="ccsssccscccc" />
    <path
       sodipodi:nodetypes="ccssscccccc"
       inkscape:connector-curvature="0"
       id="path5980"
       d="m 16.5,8.000003 c -0.339844,0 -0.5,0.234618 -0.5,0.5 l 0,109.968747 c 0,0.82158 0.679323,1.49946 1.5,1.5 l 47.5,0.0313 c 0.05308,3e-5 3.273884,-0.008 3.9635,5e-5 6.540972,-4.50366 29.9679,-28.953329 38.91313,-37.955139 1.47685,-1.65649 0.4576,-0.37007 1.45391,-1.60746 l 6e-5,-71.937498 c 0,-0.322717 -0.16322,-0.5 -0.5,-0.5 z"
       style="opacity:0.84653476;fill:url(#radialGradient5988-0);fill-opacity:1" />
    <text
       clip-path="url(#clipPath5480)"
       xml:space="preserve"
       style="font-size:3px;font-style:normal;font-variant:normal;font-weight:normal;font-stretch:normal;text-align:start;line-height:177.99999714000000495%;letter-spacing:-0.19000000000000000px;word-spacing:0px;writing-mode:lr-tb;text-anchor:start;opacity:0.78661088;fill:#000000;fill-opacity:0.73799126999999998;stroke:none;font-family:Courier New;-inkscape-font-specification:Courier New"
       x="14.821373"
       y="17.29369"
       id="text4913"
       sodipodi:linespacing="178%"
       transform="translate(3.844827,-4.6574897)"><tspan
         sodipodi:role="line"
         x="14.821373"
         y="17.29369"
         id="tspan4751">&lt;html&gt; </tspan><tspan
         sodipodi:role="line"
         x="14.821373"
         y="22.63369"
         id="tspan4611">&lt;head&gt; </tspan><tspan
         sodipodi:role="line"
         x="14.821373"
         y="27.97369"
         id="tspan4613">&lt;script type=&quot;text/javascript&quot;&gt; </tspan><tspan
         sodipodi:role="line"
         x="14.821373"
         y="33.31369"
         id="tspan4615">function myfunction(txt) </tspan><tspan
         sodipodi:role="line"
         x="14.821373"
         y="38.65369"
         id="tspan4617">{ </tspan><tspan
         sodipodi:role="line"
         x="14.821373"
         y="43.99369"
         id="tspan4619">alert(txt);</tspan><tspan
         sodipodi:role="line"
         x="14.821373"
         y="49.333691"
         id="tspan4621">} </tspan><tspan
         sodipodi:role="line"
         x="14.821373"
         y="54.673691"
         id="tspan4623">&lt;/script&gt; </tspan><tspan
         sodipodi:role="line"
         x="14.821373"
         y="60.013691"
         id="tspan4625">&lt;/head&gt; </tspan><tspan
         sodipodi:role="line"
         x="14.821373"
         y="65.353691"
         id="tspan4627" /><tspan
         sodipodi:role="line"
         x="14.821373"
         y="70.693687"
         id="tspan4629">&lt;body&gt; </tspan><tspan
         sodipodi:role="line"
         x="14.821373"
         y="76.033691"
         id="tspan4631">&lt;form&gt; </tspan><tspan
         sodipodi:role="line"
         x="14.821373"
         y="81.373688"
         id="tspan4633">&lt;input type=&quot;button&quot; </tspan><tspan
         sodipodi:role="line"
         x="14.821373"
         y="86.713692"
         id="tspan4635">onclick=&quot;myfunction('Good Morning!')&quot; </tspan><tspan
         sodipodi:role="line"
         x="14.821373"
         y="92.053688"
         id="tspan4637">value=&quot;In the Morning&quot;&gt; </tspan><tspan
         sodipodi:role="line"
         x="14.821373"
         y="97.393692"
         id="tspan4639" /><tspan
         sodipodi:role="line"
         x="14.821373"
         y="102.73369"
         id="tspan4641">&lt;input type=&quot;button&quot; </tspan><tspan
         sodipodi:role="line"
         x="14.821373"
         y="108.07368"
         id="tspan4643">onclick=&quot;myfunction('Good Evening!')&quot; </tspan><tspan
         sodipodi:role="line"
         x="14.821373"
         y="113.41369"
         id="tspan4645">value=&quot;In the Evening&quot;&gt; </tspan><tspan
         sodipodi:role="line"
         x="14.821373"
         y="118.75368"
         id="tspan4647">&lt;/form&gt; </tspan><tspan
         sodipodi:role="line"
         x="14.821373"
         y="124.09369"
         id="tspan4651">&lt;p&gt;</tspan><tspan
         sodipodi:role="line"
         x="14.821373"
         y="129.43369"
         id="tspan4653">When you click on one of the buttons, a function will be called. The function will alert</tspan><tspan
         sodipodi:role="line"
         x="14.821373"
         y="134.77368"
         id="tspan4655">the argument that is passed to it.</tspan><tspan
         sodipodi:role="line"
         x="14.821373"
         y="140.11369"
         id="tspan4657">&lt;/p&gt;</tspan><tspan
         sodipodi:role="line"
         x="14.821373"
         y="145.45369"
         id="tspan4661" /><tspan
         sodipodi:role="line"
         x="14.821373"
         y="150.79369"
         id="tspan4663" /><tspan
         sodipodi:role="line"
         x="14.821373"
         y="156.13368"
         id="tspan4665" /><tspan
         sodipodi:role="line"
         x="14.821373"
         y="161.47369"
         id="tspan4667" /><tspan
         sodipodi:role="line"
         x="14.821373"
         y="166.81369"
         id="tspan4669" /></text>
    <g
       id="g4239"
       transform="matrix(1.6067602,0,0,1.6067602,-235.68179,-49.633463)">
      <g
         mask="url(#mask4235)"
         transform="matrix(1,-0.37166634,0,1,0.1,66.535875)"
         id="g4173">
        <path
           sodipodi:nodetypes="ccccccccc"
           inkscape:connector-curvature="0"
           id="path4138"
           d="m 177.9063,102.08805 c 0.002,-1.14996 -0.21224,-1.97969 -0.5625,-2.406251 -0.33775,-0.42428 -1.01796,-0.71033 -2.09375,-0.90625 l -0.75,-0.125 0,-6.03125 4.59375,0.84375 c 2.48934,0.45334 4.25544,1.3884 5.34375,2.8125 1.0883,1.41159 3.48712,2.954554 4.41248,4.901241 -1.03058,47.68664 -11.03116,43.33015 -10.94373,0.91126 z"
           style="font-size:39.27056503px;font-style:normal;font-variant:normal;font-weight:normal;font-stretch:normal;text-align:start;line-height:125%;letter-spacing:0px;word-spacing:0px;writing-mode:lr-tb;text-anchor:start;fill:url(#linearGradient4261);fill-opacity:1;stroke:none;font-family:Swis721 Blk BT;-inkscape-font-specification:Swis721 Blk BT" />
        <path
           inkscape:connector-curvature="0"
           id="path4140"
           d="m 197.39501,117.68775 4.08269,-2.06275 -8.0625,-1.46875 -3.9098,2.09425 z"
           style="fill:url(#linearGradient4263);fill-opacity:1;stroke:none" />
        <path
           sodipodi:nodetypes="cccccccccccccccccccccccc"
           inkscape:connector-curvature="0"
           id="path4142"
           d="m 189.5054,116.2505 3.9098,-2.09425 2.90625,-4.96875 -3.97212,2.2008 -0.42987,0.24344 -0.24208,0.16299 -0.15155,0.1133 -0.23167,0.19258 -0.19963,0.18787 -0.35711,0.40029 -0.15643,0.20858 -0.15958,0.24016 -0.11863,0.20065 -0.1348,0.25688 -0.16479,0.36964 -0.11924,0.32154 0,0 -0.08,0.25283 -0.0799,0.29572 -0.0543,0.23647 -0.0436,0.22076 -0.0469,0.28437 -0.0354,0.26845 z"
           style="fill:url(#linearGradient4265);fill-opacity:1;stroke:none" />
        <path
           style="font-size:39.27056503px;font-style:normal;font-variant:normal;font-weight:normal;font-stretch:normal;text-align:start;line-height:125%;letter-spacing:0px;word-spacing:0px;writing-mode:lr-tb;text-anchor:start;fill:url(#linearGradient4267);fill-opacity:1;stroke:none;font-family:Swis721 Blk BT;-inkscape-font-specification:Swis721 Blk BT"
           d="m 177.9063,102.02096 c 0.002,-1.14997 -0.21224,-1.97969 -0.5625,-2.406251 -0.33775,-0.42428 -1.01796,-0.71033 -2.09375,-0.90625 l -0.75,-0.125 0,-6.03125 4.59375,0.84375 c 2.48934,0.45334 4.25299,1.390112 5.34375,2.8125 0.70157,0.914876 3.72028,3.332677 4.41246,4.968291 0.35006,0.82717 -2.75422,0.37353 -2.75621,1.37546 2.47164,48.04471 -8.27058,39.88358 -8.1875,-0.53125 z"
           id="path4154"
           inkscape:connector-curvature="0"
           sodipodi:nodetypes="ccccccsscc" />
        <path
           sodipodi:nodetypes="ccccc"
           inkscape:connector-curvature="0"
           id="path4150"
           d="m 174.5,98.576439 3.5402,3.986061 0,-6.15625 -3.5402,-3.854041 z"
           style="fill:#3b1126;fill-opacity:1;stroke:none" />
        <path
           sodipodi:nodetypes="ccccsccccccsc"
           id="path4156"
           d="m 185.6652,128.625 c -123.7768,-49.90725 -61.8884,-24.95363 0,0 z m 4.21875,-0.84375 -8.375,-1.53125 0,-20.1875 c -1e-5,-1.17607 -0.20456,-2.00159 -0.5625,-2.4375 -0.34515,-0.43357 -1.05688,-0.73729 -2.15625,-0.9375 l -0.75,-0.125 0,-6.15625 4.6875,0.84375 c 2.54389,0.46328 4.35659,1.4197 5.46875,2.875 1.11215,1.44253 1.68748,3.59818 1.6875,6.5 z"
           style="font-size:39.27056503px;font-style:normal;font-variant:normal;font-weight:normal;font-stretch:normal;text-align:start;line-height:125%;letter-spacing:0px;word-spacing:0px;writing-mode:lr-tb;text-anchor:start;fill:url(#linearGradient4269);fill-opacity:1;stroke:none;font-family:Swis721 Blk BT;-inkscape-font-specification:Swis721 Blk BT"
           inkscape:connector-curvature="0" />
      </g>
      <path
         sodipodi:nodetypes="ssccccsccccccsccccccccsss"
         inkscape:connector-curvature="0"
         id="path3285"
         d="m 182.76875,54.09375 c -2.31327,0 -4.4875,1.873559 -4.4875,4.30625 0,1.835552 1.07564,3.401066 2.59375,4.0625 0.0212,0.0092 0.0412,0.02238 0.0625,0.03125 l 2.75,1.1625 -5.78125,1.0625 0,19.75 c -1e-5,1.150853 -0.21224,1.979693 -0.5625,2.40625 -0.33775,0.424278 -1.01796,0.710336 -2.09375,0.90625 l -0.75,0.125 0,6.03125 4.59375,-0.84375 c 2.48934,-0.453343 4.25544,-1.388401 5.34375,-2.8125 1.0883,-1.411591 1.65624,-3.504152 1.65625,-6.34375 l 0,-20.71875 -2.28125,0.40625 -0.21875,-0.21875 1.5,-1.6 c 0.85659,-0.731009 0.92996,-2.208406 1.03125,-3.43125 L 187.53125,55.59375 184.4875,54.5 184.3938,54.4375 c -0.0604,-0.02684 -0.12572,-0.0386 -0.1875,-0.0625 -0.45109,-0.174532 -0.92885,-0.28125 -1.4375,-0.28125 z"
         style="font-size:39.27056503px;font-style:normal;font-variant:normal;font-weight:normal;font-stretch:normal;text-align:start;line-height:125%;letter-spacing:0px;word-spacing:0px;writing-mode:lr-tb;text-anchor:start;fill:url(#linearGradient4271);fill-opacity:1;stroke:none;font-family:Swis721 Blk BT;-inkscape-font-specification:Swis721 Blk BT" />
      <path
         inkscape:connector-curvature="0"
         id="path3259"
         d="m 197.44856,75.124748 4.08269,2.062752 -8.0625,1.46875 -3.9098,-2.094248 z"
         style="fill:url(#linearGradient4273);fill-opacity:1;stroke:none" />
      <path
         sodipodi:nodetypes="cccccccccccccccccccccccc"
         inkscape:connector-curvature="0"
         id="path3261"
         d="m 189.55895,76.562002 3.9098,2.094248 2.90625,4.96875 -3.97212,-2.200796 -0.42987,-0.243444 -0.24208,-0.162991 -0.15155,-0.113294 -0.23167,-0.192585 -0.19963,-0.187873 -0.35711,-0.400289 -0.15643,-0.208578 -0.15958,-0.240154 -0.11863,-0.200653 -0.1348,-0.256886 -0.16479,-0.369636 -0.11924,-0.321544 0,0 -0.08,-0.252824 -0.0799,-0.29572 -0.0543,-0.236475 -0.0436,-0.22076 -0.0469,-0.284364 -0.0354,-0.268449 z"
         style="fill:url(#linearGradient4275);fill-opacity:1;stroke:none" />
      <path
         sodipodi:nodetypes="cccccccccccccccccccc"
         inkscape:connector-curvature="0"
         id="path3263"
         d="m 201.08023,76.959624 0.16083,-0.05844 0.1917,-0.07957 0.15416,-0.07348 0.13408,-0.07234 0.20689,-0.131182 0.13823,-0.104934 0.23776,-0.221863 0.13553,-0.165311 0.15645,-0.258384 0.0922,-0.228382 0.0814,-0.532735 5.62117,0.482617 -0.46875,2.21875 -2.34375,1.609375 -2.45313,0.625 c 0,0 -2.5,-0.5 -2.51562,-0.578125 -0.0156,-0.07813 0.40625,-1.15625 0.45312,-1.25 0.0469,-0.09375 0.46875,-0.953125 0.46875,-0.953125 z"
         style="fill:#6f2049;fill-opacity:1;stroke:none" />
      <path
         inkscape:connector-curvature="0"
         id="path3265"
         d="m 207,67.71875 -4.19996,-1.859707 3.76246,-2.015293 z"
         style="fill:#2f0e1f;fill-opacity:1;stroke:none" />
      <path
         id="path3267"
         d="m 203.28125,59.59375 c -0.9464,0.02107 -2.01635,0.136169 -3.15625,0.34375 -3.27743,0.596875 -5.75498,1.599577 -7.46875,3.0625 -1.70126,1.448182 -2.53125,3.310901 -2.53125,5.5 0,1.813862 0.55539,3.05493 1.71875,3.78125 l 3.96875,2 c 0,0 0.375,-2.875 0.375,-3.125 0,-0.25 1.21875,-4.46875 1.21875,-4.46875 l 2.8125,-2.34375 7.25,-0.0625 L 211.5,62 207.28125,60.28125 207.21875,60.25 c -0.10568,-0.04909 -0.2323,-0.08155 -0.34375,-0.125 L 206.5,60 c -0.91271,-0.29042 -1.97487,-0.433935 -3.21875,-0.40625 z"
         style="fill:url(#linearGradient4277);fill-opacity:1;stroke:none"
         inkscape:connector-curvature="0" />
      <path
         sodipodi:nodetypes="ccccc"
         inkscape:connector-curvature="0"
         id="path4199"
         d="m 174.51778,93.934234 3.57597,2.472016 6.8875,-1.24375 -3.6875,-2.46875 z"
         style="fill:url(#linearGradient4279);fill-opacity:1;stroke:none;filter:url(#filter4221)" />
      <path
         inkscape:connector-curvature="0"
         id="path3275"
         d="m 174.51365,87.907139 3.5801,2.342861 0,6.15625 -3.5801,-2.474874 z"
         style="fill:#601c3f;fill-opacity:1;stroke:none" />
      <path
         inkscape:connector-curvature="0"
         id="path3277"
         d="m 177.90802,64.727587 3.65448,1.834913 8.375,-1.53125 -3.83408,-1.802077 z"
         style="fill:url(#linearGradient4281);fill-opacity:1;stroke:none" />
      <path
         style="font-size:39.27056503px;font-style:normal;font-variant:normal;font-weight:normal;font-stretch:normal;text-align:start;line-height:125%;letter-spacing:0px;word-spacing:0px;writing-mode:lr-tb;text-anchor:start;fill:url(#linearGradient4283);fill-opacity:1;stroke:none;font-family:Swis721 Blk BT;-inkscape-font-specification:Swis721 Blk BT"
         d="m 182.76875,54.09375 c -2.31327,0 -4.4875,1.873559 -4.4875,4.30625 0,1.835552 1.07564,3.401066 2.59375,4.0625 0.0212,0.0092 0.0412,0.02238 0.0625,0.03125 l 2.75,1.1625 -5.78125,1.0625 0,19.75 c -1e-5,1.150853 -0.21224,1.979693 -0.5625,2.40625 -0.33775,0.424278 -1.01796,0.710336 -2.09375,0.90625 l -0.75,0.125 0,6.03125 4.59375,-0.84375 c 2.48934,-0.453343 4.25544,-1.388401 5.34375,-2.8125 1.0883,-1.411591 1.65624,-3.504152 1.65625,-6.34375 l 0,-20.71875 -2.28125,0.40625 -0.21875,-0.21875 1.5,-1.6 c 0.85659,-0.731009 0.92996,-2.208406 1.03125,-3.43125 L 187.53125,55.59375 184.4875,54.5 184.3938,54.4375 c -0.0604,-0.02684 -0.12572,-0.0386 -0.1875,-0.0625 -0.45109,-0.174532 -0.92885,-0.28125 -1.4375,-0.28125 z"
         id="path4128"
         inkscape:connector-curvature="0"
         sodipodi:nodetypes="ssccccsccccccsccccccccsss" />
      <path
         id="path3248"
         d="m 185.71875,55.1875 c -2.36396,0 -4.28125,2.014 -4.28125,4.5 0,2.486 1.91729,4.5 4.28125,4.5 2.36396,0 4.28125,-2.014 4.28125,-4.5 0,-2.486 -1.91729,-4.5 -4.28125,-4.5 z M 207.5,61.3125 c -0.96714,0.02153 -2.05387,0.131621 -3.21875,0.34375 -3.34925,0.609955 -5.90493,1.661269 -7.65625,3.15625 -1.73854,1.479917 -2.59375,3.35668 -2.59375,5.59375 0,1.85361 0.59239,3.132764 1.78125,3.875 1.18885,0.742268 3.72606,1.191627 7.625,1.3125 0.10225,0.007 0.25852,-0.0057 0.4375,0 2.05811,0.07262 3.09373,0.566824 3.09375,1.5 -2e-5,0.562474 -0.24578,1.057347 -0.71875,1.4375 -0.46022,0.377831 -1.13074,0.622959 -2,0.78125 -0.90763,0.165299 -1.60231,0.100834 -2.0625,-0.25 -0.44743,-0.353149 -0.65626,-0.992938 -0.65625,-1.875 l -8.0625,1.46875 c 0.17896,2.409039 1.14214,4.075593 2.90625,4.96875 1.77688,0.890832 4.37517,1.020842 7.75,0.40625 3.64325,-0.663473 6.39639,-1.760518 8.25,-3.3125 1.86635,-1.554302 2.78123,-3.546996 2.78125,-5.9375 -2e-5,-1.891926 -0.5498,-3.204387 -1.6875,-3.96875 -1.13774,-0.777116 -3.62238,-1.257292 -7.40625,-1.4375 -0.25568,-0.0046 -0.62646,-0.01976 -1.125,-0.03125 -1.87916,-0.05406 -2.81251,-0.481569 -2.8125,-1.3125 -1e-5,-0.472969 0.17899,-0.874759 0.5625,-1.1875 0.38349,-0.325488 0.95884,-0.554784 1.6875,-0.6875 0.72864,-0.132673 1.30825,-0.06581 1.78125,0.21875 0.48575,0.28227 0.77985,0.729017 0.84375,1.34375 L 214.4375,66.375 C 214.18181,64.248404 213.21295,62.787444 211.5,62 c -1.06263,-0.493577 -2.3881,-0.723376 -4,-0.6875 z m -17.5625,3.71875 -8.375,1.53125 0,20.1875 c -1e-5,1.176072 -0.20456,2.001595 -0.5625,2.4375 -0.34515,0.433575 -1.05688,0.737293 -2.15625,0.9375 l -0.75,0.125 0,6.15625 4.6875,-0.84375 c 2.54389,-0.463278 4.35659,-1.419694 5.46875,-2.875 1.11215,-1.442524 1.68748,-3.598176 1.6875,-6.5 l 0,-21.15625 z"
         style="font-size:39.27056503px;font-style:normal;font-variant:normal;font-weight:normal;font-stretch:normal;text-align:start;line-height:125%;letter-spacing:0px;word-spacing:0px;writing-mode:lr-tb;text-anchor:start;fill:url(#linearGradient4285);fill-opacity:1;stroke:none;font-family:Swis721 Blk BT;-inkscape-font-specification:Swis721 Blk BT"
         inkscape:connector-curvature="0" />
    </g>
    <path
       style="fill:#000000"
       d=""
       id="path2197" />
    <path
       clip-path="url(#clipPath6093-7)"
       style="opacity:0.34728035;fill:#000000;fill-opacity:1;stroke:none;filter:url(#filter6171-8)"
       d="m 114.4,82.502986 c 0,4.465301 -4.99749,5.909952 -7.47972,7.593625 -5.10854,3.46508 -18.362065,-1.446073 -24.143235,-1.365053 -0.081,5.781159 3.371639,20.976032 -0.09344,26.084572 -1.68367,2.48224 -5.573338,8.68687 -8.483608,8.68687 -2.091359,1.5337 3.488204,8.21101 6.734971,5.31989 9.501888,-8.46107 35.131683,-30.022704 43.350823,-39.262889 2.04044,-2.29392 -4.90514,-9.844666 -9.88579,-7.057015 z"
       id="path6153"
       inkscape:connector-curvature="0"
       sodipodi:nodetypes="cscscssc"
       transform="matrix(1.2774204,0,0,1.2774204,-31.076286,-28.013102)" />
    <path
       sodipodi:nodetypes="cscscssc"
       inkscape:connector-curvature="0"
       id="path6081"
       d="m 113.9,82.502986 c 0,4.465301 -5.09749,6.009952 -7.57972,7.693625 -5.10854,3.46508 -16.139114,2.12536 -21.920284,2.20638 -0.081,5.781159 1.66586,17.304599 -1.79922,22.413139 -1.68367,2.48224 -4.69051,7.98687 -7.60078,7.98687 -2.091359,1.5337 3.488204,11.21101 6.734971,8.31989 9.501888,-8.46107 45.998943,-30.20138 54.218083,-39.441569 2.04044,-2.29392 -17.0724,-11.965986 -22.05305,-9.178335 z"
       style="opacity:0.40099009;fill:#000000;fill-opacity:1;stroke:none;filter:url(#filter6118-4)"
       clip-path="url(#clipPath6093-7)"
       transform="matrix(1.3299764,0,0,1.3299764,-36.963543,-37.156423)" />
    <path
       style="fill:url(#linearGradient3895-3);fill-opacity:1;stroke:none"
       d="m 111.99381,72.570604 c 0,5.938743 -3.72059,8.525082 -7.0219,10.764323 -6.794238,4.608475 -19.95169,4.558319 -27.64051,4.666073 -0.107728,7.688805 0.303611,20.48508 -4.304863,27.27932 -2.239241,3.30132 -7.036253,7.16441 -10.906844,7.16441 3.082925,0 6.307865,-1.7752 10.086567,-5.4327 12.158605,-11.76861 23.097887,-21.459634 34.14469,-33.645117 2.55216,-2.815215 5.64286,-4.843615 5.64286,-10.796309 z"
       id="path6011"
       inkscape:connector-curvature="0"
       sodipodi:nodetypes="cscscssc" />
    <path
       style="fill:#ffffff;fill-opacity:1;stroke:none"
       d="m 112.01875,73.115242 c -0.42084,5.185724 -5.08438,7.318602 -8.17936,9.417895 C 98.818947,85.938464 82.6646,85.3344 74.6648,85.3344 c 0,7.9998 1.619153,23.49711 -2.7864,30.22372 -1.912401,2.91993 -4.654194,5.79882 -8.19598,6.58338 2.633964,-0.48185 5.299865,-2.47561 8.470288,-5.54435 0.451018,-0.51674 0.763801,-0.90298 1.471286,-1.99496 4.608475,-6.79423 4.099678,-18.412383 4.207406,-26.10119 7.68882,-0.107728 20.028368,-0.145785 26.8226,-4.754259 0.619,-0.41986 2.51897,-1.313671 3.06727,-1.861967 2.04322,-2.043229 3.9922,-4.273773 4.29748,-8.769532 z M 63.68242,122.1415 c -0.209681,0.0464 -0.416863,0.0551 -0.623426,0.0831 0.208794,-0.0225 0.412882,-0.0446 0.623426,-0.0831 z"
       id="path6122"
       inkscape:connector-curvature="0"
       sodipodi:nodetypes="cscsccccsscccc" />
    <path
       style="fill:none;stroke:url(#radialGradient3919-5);stroke-width:1.20000005;stroke-linecap:butt;stroke-linejoin:miter;stroke-miterlimit:4;stroke-opacity:1;stroke-dasharray:none;filter:url(#filter3909-6)"
       d="M 117.31456,81.861283 72.639105,125.34835"
       id="path3873"
       inkscape:connector-curvature="0"
       sodipodi:nodetypes="cc"
       clip-path="url(#clipPath3889-6)"
       transform="matrix(1.3299764,0,0,1.3299764,-36.963543,-37.156423)" />
  </g>
</svg>
