<?xml version="1.0" encoding="UTF-8" standalone="no"?>
<!-- Generator: Adobe Illustrator 12.0.0, SVG Export Plug-In . SVG Version: 6.00 Build 51448)  -->
<svg
   xmlns:ns="http://ns.adobe.com/SaveForWeb/1.0/"
   xmlns:dc="http://purl.org/dc/elements/1.1/"
   xmlns:cc="http://creativecommons.org/ns#"
   xmlns:rdf="http://www.w3.org/1999/02/22-rdf-syntax-ns#"
   xmlns:svg="http://www.w3.org/2000/svg"
   xmlns="http://www.w3.org/2000/svg"
   xmlns:xlink="http://www.w3.org/1999/xlink"
   xmlns:sodipodi="http://sodipodi.sourceforge.net/DTD/sodipodi-0.dtd"
   xmlns:inkscape="http://www.inkscape.org/namespaces/inkscape"
   version="1.1"
   id="Layer_1"
   width="128"
   height="128"
   viewBox="0 0 128 128"
   overflow="visible"
   enable-background="new 0 0 128 128"
   xml:space="preserve"
   sodipodi:version="0.32"
   inkscape:version="0.46"
   sodipodi:docname="archive-remove.svgz"
   sodipodi:docbase="/Users/david/Desktop/sandbox"
   inkscape:output_extension="org.inkscape.output.svgz.inkscape"
   inkscape:export-filename="/home/pinheiro/Desktop/oxxx/actions/128/zoom-fit-width-page.png"
   inkscape:export-xdpi="45"
   inkscape:export-ydpi="45"><defs
   id="defs105"><linearGradient
     id="linearGradient3207"><stop
       style="stop-color:#ffffff;stop-opacity:1;"
       offset="0"
       id="stop3209" /><stop
       style="stop-color:#252525;stop-opacity:0;"
       offset="1"
       id="stop3211" /></linearGradient><linearGradient
     id="linearGradient3225"><stop
       style="stop-color:#ffffff;stop-opacity:1;"
       offset="0"
       id="stop3227" /><stop
       style="stop-color:#aeaeae;stop-opacity:1;"
       offset="1"
       id="stop3229" /></linearGradient><linearGradient
     inkscape:collect="always"
     xlink:href="#XMLID_9_"
     id="linearGradient2291"
     gradientUnits="userSpaceOnUse"
     x1="94.3438"
     y1="102.3447"
     x2="86.5356"
     y2="94.5366" /><linearGradient
     inkscape:collect="always"
     xlink:href="#XMLID_10_"
     id="linearGradient2293"
     gradientUnits="userSpaceOnUse"
     x1="95"
     y1="103"
     x2="86.5865"
     y2="94.5865" /><linearGradient
     inkscape:collect="always"
     xlink:href="#XMLID_11_"
     id="linearGradient2295"
     gradientUnits="userSpaceOnUse"
     x1="95"
     y1="103"
     x2="87.293"
     y2="95.293" /><linearGradient
     inkscape:collect="always"
     xlink:href="#XMLID_12_"
     id="linearGradient2297"
     gradientUnits="userSpaceOnUse"
     x1="96"
     y1="104"
     x2="88.0002"
     y2="96.0002" /><radialGradient
     inkscape:collect="always"
     xlink:href="#XMLID_8_"
     id="radialGradient2272"
     gradientUnits="userSpaceOnUse"
     gradientTransform="matrix(0.9787234,0,0,0.9818182,1.3617045,1.1636364)"
     cx="102"
     cy="112.3047"
     r="139.55859" /><radialGradient
     inkscape:collect="always"
     xlink:href="#XMLID_7_"
     id="radialGradient2275"
     gradientUnits="userSpaceOnUse"
     gradientTransform="translate(2.4e-6,0)"
     cx="102"
     cy="112.3047"
     r="139.5585" /><filter
     inkscape:collect="always"
     id="filter3241"><feGaussianBlur
       inkscape:collect="always"
       stdDeviation="1.0394514"
       id="feGaussianBlur3243" /></filter><filter
     inkscape:collect="always"
     id="filter3772"><feGaussianBlur
       inkscape:collect="always"
       stdDeviation="0.50063244"
       id="feGaussianBlur3774" /></filter><radialGradient
     r="25.986174"
     fy="90.072952"
     fx="-36.592777"
     cy="90.072952"
     cx="-36.592777"
     gradientTransform="matrix(0.4576062,0,0,0.782313,-19.847694,18.82067)"
     gradientUnits="userSpaceOnUse"
     id="radialGradient7031"
     xlink:href="#linearGradient3575"
     inkscape:collect="always" /><linearGradient
     inkscape:collect="always"
     id="linearGradient3245"><stop
       style="stop-color:black;stop-opacity:1;"
       offset="0"
       id="stop3302" /><stop
       style="stop-color:black;stop-opacity:0;"
       offset="1"
       id="stop3249" /></linearGradient><linearGradient
     inkscape:collect="always"
     id="linearGradient3197"><stop
       style="stop-color:black;stop-opacity:1;"
       offset="0"
       id="stop3199" /><stop
       style="stop-color:black;stop-opacity:0;"
       offset="1"
       id="stop3201" /></linearGradient><linearGradient
     id="linearGradient3075"><stop
       id="stop3077"
       offset="0"
       style="stop-color:#ffffff;stop-opacity:1;" /><stop
       style="stop-color:#ffffff;stop-opacity:1;"
       offset="0.42597079"
       id="stop3093" /><stop
       style="stop-color:#f1f1f1;stop-opacity:1;"
       offset="0.5892781"
       id="stop3085" /><stop
       id="stop3087"
       offset="0.80219781"
       style="stop-color:#eaeaea;stop-opacity:1;" /><stop
       id="stop3079"
       offset="1"
       style="stop-color:#dfdfdf;stop-opacity:1;" /></linearGradient><linearGradient
     id="linearGradient3139"><stop
       id="stop3141"
       offset="0"
       style="stop-color:#000000;stop-opacity:1;" /><stop
       style="stop-color:#000000;stop-opacity:0.68235294;"
       offset="0.40659341"
       id="stop3162" /><stop
       id="stop3164"
       offset="0.45329672"
       style="stop-color:#000000;stop-opacity:0.48736462;" /><stop
       style="stop-color:#000000;stop-opacity:0.36101082;"
       offset="0.5"
       id="stop3158" /><stop
       id="stop3160"
       offset="0.70604396"
       style="stop-color:#000000;stop-opacity:0.15162455;" /><stop
       id="stop3143"
       offset="1"
       style="stop-color:#000000;stop-opacity:0;" /></linearGradient><filter
     inkscape:collect="always"
     id="filter3243"><feGaussianBlur
       inkscape:collect="always"
       stdDeviation="1.7855988"
       id="feGaussianBlur3245" /></filter><linearGradient
     inkscape:collect="always"
     id="linearGradient3575"><stop
       style="stop-color:#000000;stop-opacity:1;"
       offset="0"
       id="stop3577" /><stop
       style="stop-color:#000000;stop-opacity:0;"
       offset="1"
       id="stop3579" /></linearGradient><linearGradient
     inkscape:collect="always"
     id="linearGradient3366"><stop
       style="stop-color:#ff8787;stop-opacity:1;"
       offset="0"
       id="stop3368" /><stop
       style="stop-color:#ff8787;stop-opacity:0;"
       offset="1"
       id="stop4472" /></linearGradient><linearGradient
     id="linearGradient5826"><stop
       style="stop-color:#810000;stop-opacity:1;"
       offset="0"
       id="stop5828" /><stop
       style="stop-color:#c50000;stop-opacity:1;"
       offset="1"
       id="stop5830" /></linearGradient><linearGradient
     id="linearGradient5433"><stop
       id="stop5435"
       offset="0"
       style="stop-color:#ff0000;stop-opacity:1;" /><stop
       id="stop5437"
       offset="1"
       style="stop-color:#7f0000;stop-opacity:1;" /></linearGradient><filter
     inkscape:collect="always"
     id="filter3354"><feGaussianBlur
       inkscape:collect="always"
       stdDeviation="0.45754832"
       id="feGaussianBlur3356" /></filter><filter
     inkscape:collect="always"
     x="-0.13991599"
     width="1.279832"
     y="-0.13874065"
     height="1.2774813"
     id="filter3477"><feGaussianBlur
       inkscape:collect="always"
       stdDeviation="0.28784801"
       id="feGaussianBlur3479" /></filter><filter
     inkscape:collect="always"
     x="-0.11641854"
     width="1.2328371"
     y="-0.14803563"
     height="1.2960713"
     id="filter3549"><feGaussianBlur
       inkscape:collect="always"
       stdDeviation="2.5695681"
       id="feGaussianBlur3551" /></filter><clipPath
     clipPathUnits="userSpaceOnUse"
     id="clipPath3559"><path
       sodipodi:nodetypes="cccccccccccccccccccccccscc"
       id="path3561"
       d="M -64.510272,10.75 C -65.552588,10.758355 -66.55048,11.173209 -67.291522,11.90625 L -84.260272,28.875 C -85.821746,30.437119 -85.821746,32.969131 -84.260272,34.53125 L -58.822772,60 L -84.260272,85.46875 C -85.821746,87.030869 -85.821746,89.562881 -84.260272,91.125 L -67.291522,108.09375 C -65.729403,109.65522 -63.197391,109.65522 -61.635272,108.09375 L -36.166522,82.65625 L -10.697772,108.09375 C -9.1356529,109.65522 -6.6036409,109.65522 -5.0415219,108.09375 L 11.927228,91.125 C 13.488698,89.562881 13.488698,87.030869 11.927228,85.46875 L -13.510272,60 L 11.927228,34.53125 C 13.488698,32.969131 13.488698,30.437119 11.927228,28.875 L -5.0415219,11.90625 C -6.6036409,10.344776 -9.1356529,10.344776 -10.697772,11.90625 L -36.166522,37.34375 L -61.635272,11.90625 C -62.399349,11.150239 -63.435519,10.733519 -64.510272,10.75 z M -33.322772,74.15625 C -34.074181,73.396786 -35.098158,72.96944 -36.166522,72.96944 C -37.234886,72.96944 -38.258863,73.396786 -39.010272,74.15625 L -33.322772,74.15625 z "
       style="fill:url(#linearGradient3563);fill-opacity:1;stroke:none;stroke-width:8;stroke-linecap:round;stroke-linejoin:round;stroke-miterlimit:4;stroke-dashoffset:1.08779998;stroke-opacity:1" /></clipPath><linearGradient
     inkscape:collect="always"
     xlink:href="#linearGradient5826"
     id="linearGradient3563"
     gradientUnits="userSpaceOnUse"
     gradientTransform="translate(-96.166522,0)"
     x1="58.743717"
     y1="78.411346"
     x2="58.743717"
     y2="-15.688621" /><linearGradient
     inkscape:collect="always"
     id="linearGradient3030"><stop
       style="stop-color:#000000;stop-opacity:0.77902622"
       offset="0"
       id="stop3032" /><stop
       style="stop-color:#000000;stop-opacity:0;"
       offset="1"
       id="stop3034" /></linearGradient><linearGradient
     inkscape:collect="always"
     id="linearGradient3260"><stop
       style="stop-color:#ffffff;stop-opacity:1;"
       offset="0"
       id="stop3262" /><stop
       style="stop-color:#ffffff;stop-opacity:0;"
       offset="1"
       id="stop3264" /></linearGradient><radialGradient
     id="XMLID_4_"
     cx="48"
     cy="-0.2148"
     r="55.148"
     gradientTransform="matrix(0.9792,0,0,0.9725,133.0002,20.8762)"
     gradientUnits="userSpaceOnUse"><stop
       offset="0"
       style="stop-color:#72D13D"
       id="stop3082" /><stop
       offset="0.3553"
       style="stop-color:#35AC1C"
       id="stop3084" /><stop
       offset="0.6194"
       style="stop-color:#0F9508"
       id="stop3086" /><stop
       offset="0.7574"
       style="stop-color:#008C00"
       id="stop3088" /><stop
       offset="1"
       style="stop-color:#007A00"
       id="stop3090" /></radialGradient><linearGradient
     y2="0"
     x2="28"
     y1="57.5"
     x1="28"
     gradientUnits="userSpaceOnUse"
     id="linearGradient5412"><stop
       id="stop5414"
       style="stop-color:#fff14d;stop-opacity:1;"
       offset="0" /><stop
       id="stop5416"
       style="stop-color:#f8ffa0;stop-opacity:0;"
       offset="1" /></linearGradient><linearGradient
     id="linearGradient3163"><stop
       style="stop-color:#fff5e4;stop-opacity:1;"
       id="stop3165"
       offset="0" /><stop
       style="stop-color:#ffecd0;stop-opacity:1;"
       id="stop3173"
       offset="0.25" /><stop
       style="stop-color:#ffd390;stop-opacity:1;"
       id="stop3171"
       offset="0.5" /><stop
       style="stop-color:#ffc46a;stop-opacity:1;"
       id="stop3167"
       offset="1" /></linearGradient><linearGradient
     id="linearGradient3397"><stop
       id="stop3399"
       offset="0"
       style="stop-color:#f4f5f8;stop-opacity:1;" /><stop
       id="stop3401"
       offset="1"
       style="stop-color:#fdfdfe;stop-opacity:1;" /></linearGradient><linearGradient
     id="linearGradient3499"
     inkscape:collect="always"><stop
       id="stop3501"
       offset="0"
       style="stop-color:#ffffff;stop-opacity:1;" /><stop
       id="stop3503"
       offset="1"
       style="stop-color:#ffffff;stop-opacity:0;" /></linearGradient><linearGradient
     id="linearGradient3489"
     inkscape:collect="always"><stop
       id="stop3491"
       offset="0"
       style="stop-color:#765c44;stop-opacity:1;" /><stop
       id="stop3493"
       offset="1"
       style="stop-color:#765c44;stop-opacity:0;" /></linearGradient><linearGradient
     id="linearGradient4179"><stop
       style="stop-color:#ffffff;stop-opacity:0"
       offset="0"
       id="stop4181" /><stop
       style="stop-color:#ffffff;stop-opacity:1"
       offset="1"
       id="stop4183" /></linearGradient><linearGradient
     id="linearGradient3951"
     inkscape:collect="always"><stop
       id="stop3953"
       offset="0"
       style="stop-color:#000000;stop-opacity:1;" /><stop
       id="stop3955"
       offset="1"
       style="stop-color:#000000;stop-opacity:0;" /></linearGradient><radialGradient
     inkscape:collect="always"
     xlink:href="#linearGradient3075"
     id="radialGradient6367"
     gradientUnits="userSpaceOnUse"
     gradientTransform="matrix(3.304423,-6.021802e-2,6.740556e-2,3.506126,164.8159,-262.0347)"
     cx="-25"
     cy="106.49996"
     fx="-25"
     fy="106.49996"
     r="45" /><linearGradient
     inkscape:collect="always"
     xlink:href="#linearGradient3197"
     id="linearGradient6370"
     gradientUnits="userSpaceOnUse"
     gradientTransform="matrix(1.342973,0,0,1.336577,-18.5513,-0.954583)"
     x1="5.6174502"
     y1="14.175036"
     x2="78.433113"
     y2="33.486366" /><radialGradient
     inkscape:collect="always"
     xlink:href="#linearGradient3139"
     id="radialGradient6372"
     gradientUnits="userSpaceOnUse"
     gradientTransform="matrix(0.891156,-0.802687,0.849938,0.93465,18.95693,-5.057665)"
     cx="-24.85253"
     cy="99.774971"
     fx="-24.85253"
     fy="99.774971"
     r="46" /><radialGradient
     inkscape:collect="always"
     xlink:href="#linearGradient3075"
     id="radialGradient6374"
     gradientUnits="userSpaceOnUse"
     gradientTransform="matrix(3.304422,-6.021802e-2,6.740554e-2,3.506126,164.8159,-262.0347)"
     cx="-25"
     cy="106.49996"
     fx="-25"
     fy="106.49996"
     r="45" /><linearGradient
     inkscape:collect="always"
     xlink:href="#linearGradient3951"
     id="linearGradient6376"
     gradientUnits="userSpaceOnUse"
     x1="-77.428764"
     y1="190.54242"
     x2="96.134697"
     y2="13.8313" /><linearGradient
     inkscape:collect="always"
     xlink:href="#linearGradient3245"
     id="linearGradient6378"
     gradientUnits="userSpaceOnUse"
     gradientTransform="matrix(1.342973,0,0,1.336577,-18.5513,-0.954583)"
     x1="96.650246"
     y1="5.458128"
     x2="54.975372"
     y2="9.6256161" /><linearGradient
     inkscape:collect="always"
     xlink:href="#linearGradient3397"
     id="linearGradient6380"
     gradientUnits="userSpaceOnUse"
     gradientTransform="translate(-13,0)"
     x1="-88.029572"
     y1="196.59282"
     x2="43.889385"
     y2="91.509109" /><linearGradient
     inkscape:collect="always"
     xlink:href="#linearGradient5826"
     id="linearGradient6382"
     gradientUnits="userSpaceOnUse"
     gradientTransform="matrix(0.4770136,0,0,0.4770136,73.3792,73.879201)"
     x1="58.743717"
     y1="78.411346"
     x2="58.743717"
     y2="-15.688621" /><linearGradient
     inkscape:collect="always"
     xlink:href="#linearGradient3499"
     id="linearGradient6384"
     gradientUnits="userSpaceOnUse"
     gradientTransform="scale(1.0975951,0.9110828)"
     x1="26.091134"
     y1="14.856744"
     x2="31.500688"
     y2="14.856744" /><linearGradient
     inkscape:collect="always"
     xlink:href="#linearGradient3489"
     id="linearGradient6386"
     gradientUnits="userSpaceOnUse"
     gradientTransform="scale(1.0975951,0.9110828)"
     x1="26.091134"
     y1="14.856744"
     x2="31.500688"
     y2="14.856744" /><linearGradient
     inkscape:collect="always"
     xlink:href="#linearGradient3489"
     id="linearGradient6388"
     gradientUnits="userSpaceOnUse"
     x1="304.88664"
     y1="385.86126"
     x2="345.62039"
     y2="384.62384" /><linearGradient
     inkscape:collect="always"
     xlink:href="#linearGradient5433"
     id="linearGradient6390"
     gradientUnits="userSpaceOnUse"
     gradientTransform="matrix(0.4770136,0,0,0.4770136,73.3792,73.879201)"
     x1="55.007042"
     y1="88.460976"
     x2="55.007042"
     y2="36.655769" /><linearGradient
     inkscape:collect="always"
     xlink:href="#linearGradient3366"
     id="linearGradient6392"
     gradientUnits="userSpaceOnUse"
     gradientTransform="translate(56.7,0)"
     spreadMethod="reflect"
     x1="31.90625"
     y1="13.510336"
     x2="34.875107"
     y2="13.510336" /><radialGradient
     inkscape:collect="always"
     xlink:href="#linearGradient3575"
     id="radialGradient6394"
     gradientUnits="userSpaceOnUse"
     gradientTransform="matrix(0.4576062,0,0,0.782313,-19.847694,18.82067)"
     cx="-36.592777"
     cy="90.072952"
     fx="-36.592777"
     fy="90.072952"
     r="25.986174" /><linearGradient
     inkscape:collect="always"
     xlink:href="#linearGradient3207"
     id="linearGradient6396"
     gradientUnits="userSpaceOnUse"
     gradientTransform="translate(-0.3,0)"
     spreadMethod="reflect"
     x1="31.90625"
     y1="13.510336"
     x2="34.875107"
     y2="13.510336" /><linearGradient
     inkscape:collect="always"
     xlink:href="#linearGradient3207"
     id="linearGradient6398"
     gradientUnits="userSpaceOnUse"
     gradientTransform="translate(56.7,0)"
     spreadMethod="reflect"
     x1="31.90625"
     y1="13.510336"
     x2="34.875107"
     y2="13.510336" /><linearGradient
     inkscape:collect="always"
     xlink:href="#linearGradient3163"
     id="linearGradient6400"
     gradientUnits="userSpaceOnUse"
     x1="59.999996"
     y1="92.973083"
     x2="57.434441"
     y2="55.07938" /><linearGradient
     inkscape:collect="always"
     xlink:href="#linearGradient3397"
     id="linearGradient6402"
     gradientUnits="userSpaceOnUse"
     gradientTransform="matrix(0.6762458,0,0,0.336478,73.3792,73.879201)"
     x1="68.313011"
     y1="109.97649"
     x2="51.544849"
     y2="32.750854" /><linearGradient
     inkscape:collect="always"
     xlink:href="#linearGradient3366"
     id="linearGradient6404"
     gradientUnits="userSpaceOnUse"
     gradientTransform="matrix(0.4770136,0,0,0.4770136,73.3792,73.879201)"
     x1="47.264141"
     y1="21.738457"
     x2="47.264141"
     y2="70.357269" /><linearGradient
     inkscape:collect="always"
     xlink:href="#linearGradient4179"
     id="linearGradient6406"
     gradientUnits="userSpaceOnUse"
     gradientTransform="matrix(0.4770136,0,0,0.4770136,73.38515,74.475467)"
     x1="57.654171"
     y1="71.824867"
     x2="56.770992"
     y2="20.362558" /><radialGradient
     inkscape:collect="always"
     xlink:href="#linearGradient3575"
     id="radialGradient6447"
     gradientUnits="userSpaceOnUse"
     gradientTransform="matrix(0.4576062,0,0,0.782313,-19.847694,18.82067)"
     cx="-36.592777"
     cy="90.072952"
     fx="-36.592777"
     fy="90.072952"
     r="25.986174" /><linearGradient
     gradientTransform="matrix(0,1,-1,0,-39.9985,140.0029)"
     y2="-383.9971"
     x2="-12.0029"
     y1="-383.9971"
     x1="-84.002403"
     gradientUnits="userSpaceOnUse"
     id="linearGradient4770"><stop
       id="stop4772"
       style="stop-color:#e5ff00;stop-opacity:1"
       offset="0" /><stop
       id="stop4774"
       style="stop-color:#bff500;stop-opacity:0;"
       offset="1" /></linearGradient><linearGradient
     id="linearGradient3272"
     inkscape:collect="always"><stop
       id="stop9342"
       offset="0"
       style="stop-color:white;stop-opacity:1;" /><stop
       id="stop3276"
       offset="1"
       style="stop-color:white;stop-opacity:0;" /></linearGradient><filter
     inkscape:collect="always"
     x="-0.10207015"
     width="1.2041403"
     y="-0.12495601"
     height="1.249912"
     id="filter3387"><feGaussianBlur
       inkscape:collect="always"
       stdDeviation="0.44655691"
       id="feGaussianBlur3389" /></filter><filter
     inkscape:collect="always"
     id="filter3191"><feGaussianBlur
       inkscape:collect="always"
       stdDeviation="0.2025"
       id="feGaussianBlur3193" /></filter><linearGradient
     inkscape:collect="always"
     xlink:href="#XMLID_4_"
     id="linearGradient4794"
     gradientUnits="userSpaceOnUse"
     gradientTransform="translate(148,19.999992)"
     x1="-13.757333"
     y1="76.708466"
     x2="-62.424866"
     y2="104.80668" /><linearGradient
     inkscape:collect="always"
     xlink:href="#linearGradient3260"
     id="linearGradient4796"
     gradientUnits="userSpaceOnUse"
     spreadMethod="reflect"
     x1="73.742638"
     y1="15.336544"
     x2="80"
     y2="19.281664" /><linearGradient
     inkscape:collect="always"
     xlink:href="#linearGradient3260"
     id="linearGradient4798"
     gradientUnits="userSpaceOnUse"
     spreadMethod="reflect"
     x1="73.742638"
     y1="15.336544"
     x2="80"
     y2="19.281664" /><radialGradient
     inkscape:collect="always"
     xlink:href="#linearGradient5412"
     id="radialGradient4800"
     gradientUnits="userSpaceOnUse"
     gradientTransform="matrix(1,0,0,0.8708964,0,2.3028957)"
     cx="73.656621"
     cy="17.83758"
     fx="73.656621"
     fy="17.83758"
     r="6.7806501" /><radialGradient
     inkscape:collect="always"
     xlink:href="#linearGradient4770"
     id="radialGradient4802"
     gradientUnits="userSpaceOnUse"
     gradientTransform="matrix(1,0,0,0.9256542,0,1.3235438)"
     cx="73.082359"
     cy="17.802542"
     fx="73.082359"
     fy="17.802542"
     r="6.2063883" /><linearGradient
     inkscape:collect="always"
     xlink:href="#linearGradient3260"
     id="linearGradient4804"
     gradientUnits="userSpaceOnUse"
     spreadMethod="reflect"
     x1="73.742638"
     y1="15.336544"
     x2="80"
     y2="19.281664" /><radialGradient
     inkscape:collect="always"
     xlink:href="#linearGradient3030"
     id="radialGradient4806"
     gradientUnits="userSpaceOnUse"
     gradientTransform="translate(0,-1.3e-5)"
     cx="104"
     cy="104"
     fx="104"
     fy="104"
     r="24" /><linearGradient
     inkscape:collect="always"
     xlink:href="#linearGradient3260"
     id="linearGradient4808"
     gradientUnits="userSpaceOnUse"
     spreadMethod="reflect"
     x1="73.742638"
     y1="15.336544"
     x2="80"
     y2="19.281664" /><radialGradient
     inkscape:collect="always"
     xlink:href="#XMLID_4_"
     id="radialGradient4810"
     gradientUnits="userSpaceOnUse"
     gradientTransform="translate(148,19.999992)"
     cx="-44"
     cy="84"
     fx="-40"
     fy="96"
     r="20" /><linearGradient
     inkscape:collect="always"
     xlink:href="#linearGradient3272"
     id="linearGradient4812"
     gradientUnits="userSpaceOnUse"
     gradientTransform="translate(85.3125,19.999992)"
     x1="11.68106"
     y1="60.539303"
     x2="11.68106"
     y2="108.0104" /><linearGradient
     inkscape:collect="always"
     xlink:href="#linearGradient3260"
     id="linearGradient4814"
     gradientUnits="userSpaceOnUse"
     gradientTransform="translate(85.30236,19.999992)"
     x1="6.6976352"
     y1="52"
     x2="11.68106"
     y2="96.001434" /><linearGradient
     inkscape:collect="always"
     xlink:href="#linearGradient3260"
     id="linearGradient4816"
     gradientUnits="userSpaceOnUse"
     gradientTransform="translate(85.30236,19.999992)"
     x1="26.697636"
     y1="96"
     x2="14.697635"
     y2="72" /><linearGradient
     inkscape:collect="always"
     xlink:href="#linearGradient3225"
     id="linearGradient4818"
     gradientUnits="userSpaceOnUse"
     gradientTransform="translate(3.99999,19.999992)"
     x1="79.75"
     y1="84"
     x2="120.25"
     y2="84" /><radialGradient
     inkscape:collect="always"
     xlink:href="#XMLID_7_"
     id="radialGradient9880"
     gradientUnits="userSpaceOnUse"
     gradientTransform="translate(2.4e-6,0)"
     cx="102"
     cy="112.3047"
     r="139.5585" /><radialGradient
     inkscape:collect="always"
     xlink:href="#XMLID_8_"
     id="radialGradient9882"
     gradientUnits="userSpaceOnUse"
     gradientTransform="matrix(0.9787234,0,0,0.9818182,1.3617045,1.1636364)"
     cx="102"
     cy="112.3047"
     r="139.55859" /><linearGradient
     inkscape:collect="always"
     xlink:href="#XMLID_9_"
     id="linearGradient9884"
     gradientUnits="userSpaceOnUse"
     x1="94.3438"
     y1="102.3447"
     x2="86.5356"
     y2="94.5366" /><linearGradient
     inkscape:collect="always"
     xlink:href="#XMLID_10_"
     id="linearGradient9886"
     gradientUnits="userSpaceOnUse"
     x1="95"
     y1="103"
     x2="86.5865"
     y2="94.5865" /><linearGradient
     inkscape:collect="always"
     xlink:href="#XMLID_11_"
     id="linearGradient9888"
     gradientUnits="userSpaceOnUse"
     x1="95"
     y1="103"
     x2="87.293"
     y2="95.293" /><linearGradient
     inkscape:collect="always"
     xlink:href="#XMLID_12_"
     id="linearGradient9890"
     gradientUnits="userSpaceOnUse"
     x1="96"
     y1="104"
     x2="88.0002"
     y2="96.0002" /></defs><sodipodi:namedview
   inkscape:window-height="687"
   inkscape:window-width="1022"
   inkscape:pageshadow="2"
   inkscape:pageopacity="0.0"
   guidetolerance="10.0"
   gridtolerance="10.0"
   objecttolerance="10.0"
   borderopacity="1.0"
   bordercolor="#666666"
   pagecolor="#ffffff"
   id="base"
   inkscape:zoom="0.63805337"
   inkscape:cx="60.045246"
   inkscape:cy="-29.857923"
   inkscape:window-x="779"
   inkscape:window-y="269"
   inkscape:current-layer="Layer_1"
   showgrid="true"
   showguides="true"
   inkscape:guide-bbox="true"><inkscape:grid
     id="GridFromPre046Settings"
     type="xygrid"
     originx="0px"
     originy="0px"
     spacingx="2.6666px"
     spacingy="2.6666px"
     color="#0000ff"
     empcolor="#0000ff"
     opacity="0.2"
     empopacity="0.4"
     empspacing="4"
     enabled="true"
     visible="true" /></sodipodi:namedview>
<metadata
   id="metadata3">
	<ns:sfw>
		<ns:slices>
			<ns:slice
   y="0"
   x="0"
   height="128"
   width="128"
   sliceID="1316743234" />
		</ns:slices>
		<ns:sliceSourceBounds
   y="0"
   x="0"
   height="128"
   width="128"
   bottomLeftOrigin="true" />
		<ns:optimizationSettings>
			<ns:targetSettings
   targetSettingsID="0"
   fileFormat="PNG24Format">
				<ns:PNG24Format
   transparency="true"
   filtered="false"
   matteColor="#FFFFFF"
   noMatteColor="false"
   interlaced="false">
					</ns:PNG24Format>
			</ns:targetSettings>
			<ns:targetSettings
   targetSettingsID="1696735251"
   fileFormat="PNG24Format">
				<ns:PNG24Format
   transparency="true"
   filtered="false"
   matteColor="#FFFFFF"
   noMatteColor="false"
   interlaced="false">
					</ns:PNG24Format>
			</ns:targetSettings>
		</ns:optimizationSettings>
	</ns:sfw>
<rdf:RDF><cc:Work
     rdf:about=""><dc:format>image/svg+xml</dc:format><dc:type
       rdf:resource="http://purl.org/dc/dcmitype/StillImage" /></cc:Work></rdf:RDF></metadata>

<radialGradient
   id="XMLID_7_"
   cx="102"
   cy="112.3047"
   r="139.5585"
   gradientUnits="userSpaceOnUse">
	<stop
   offset="0"
   style="stop-color:#00537D"
   id="stop16" />
	<stop
   offset="0.0151"
   style="stop-color:#186389"
   id="stop18" />
	<stop
   offset="0.0558"
   style="stop-color:#558CA8"
   id="stop20" />
	<stop
   offset="0.0964"
   style="stop-color:#89AFC3"
   id="stop22" />
	<stop
   offset="0.1357"
   style="stop-color:#B3CCD8"
   id="stop24" />
	<stop
   offset="0.1737"
   style="stop-color:#D4E2E9"
   id="stop26" />
	<stop
   offset="0.2099"
   style="stop-color:#ECF2F5"
   id="stop28" />
	<stop
   offset="0.2435"
   style="stop-color:#FAFCFD"
   id="stop30" />
	<stop
   offset="0.2722"
   style="stop-color:#FFFFFF"
   id="stop32" />
</radialGradient>

<radialGradient
   id="XMLID_8_"
   cx="102"
   cy="112.3047"
   r="139.55859"
   gradientUnits="userSpaceOnUse">
	<stop
   offset="0"
   style="stop-color:#535557"
   id="stop37" />
	
	<stop
   offset="0.11366145"
   style="stop-color:#898A8C"
   id="stop41" />
	
	
	<stop
   offset="0.20296688"
   style="stop-color:#ECECEC"
   id="stop47" />
	<stop
   offset="0.2363"
   style="stop-color:#FAFAFA"
   id="stop49" />
	<stop
   offset="0.2722"
   style="stop-color:#FFFFFF"
   id="stop51" />
	<stop
   offset="0.5313"
   style="stop-color:#FAFAFA"
   id="stop53" />
	<stop
   offset="0.8449"
   style="stop-color:#EBECEC"
   id="stop55" />
	<stop
   offset="1"
   style="stop-color:#E1E2E3"
   id="stop57" />
</radialGradient>

<linearGradient
   id="XMLID_9_"
   gradientUnits="userSpaceOnUse"
   x1="94.3438"
   y1="102.3447"
   x2="86.5356"
   y2="94.5366">
	<stop
   offset="0"
   style="stop-color:#FFFFFF"
   id="stop62" />
	<stop
   offset="1"
   style="stop-color:#555753"
   id="stop64" />
</linearGradient>

<linearGradient
   id="XMLID_10_"
   gradientUnits="userSpaceOnUse"
   x1="95"
   y1="103"
   x2="86.5865"
   y2="94.5865">
	<stop
   offset="0"
   style="stop-color:#FFFFFF"
   id="stop69" />
	<stop
   offset="1"
   style="stop-color:#555753"
   id="stop71" />
</linearGradient>

<linearGradient
   id="XMLID_11_"
   gradientUnits="userSpaceOnUse"
   x1="95"
   y1="103"
   x2="87.293"
   y2="95.293">
	<stop
   offset="0"
   style="stop-color:#FFFFFF"
   id="stop76" />
	<stop
   offset="1"
   style="stop-color:#393B38"
   id="stop78" />
</linearGradient>

<linearGradient
   id="XMLID_12_"
   gradientUnits="userSpaceOnUse"
   x1="96"
   y1="104"
   x2="88.0002"
   y2="96.0002">
	<stop
   offset="0"
   style="stop-color:#888A85"
   id="stop83" />
	<stop
   offset="0.0072"
   style="stop-color:#8C8E89"
   id="stop85" />
	<stop
   offset="0.0673"
   style="stop-color:#ABACA9"
   id="stop87" />
	<stop
   offset="0.1347"
   style="stop-color:#C5C6C4"
   id="stop89" />
	<stop
   offset="0.2115"
   style="stop-color:#DBDBDA"
   id="stop91" />
	<stop
   offset="0.3012"
   style="stop-color:#EBEBEB"
   id="stop93" />
	<stop
   offset="0.4122"
   style="stop-color:#F7F7F6"
   id="stop95" />
	<stop
   offset="0.5679"
   style="stop-color:#FDFDFD"
   id="stop97" />
	<stop
   offset="1"
   style="stop-color:#FFFFFF"
   id="stop99" />
</linearGradient>
<path
   sodipodi:nodetypes="cccccccc"
   transform="matrix(1.0416667,0,0,1.0357143,-9.9583333,-3.3215342)"
   style="opacity:0.30684932;fill:#000000;fill-opacity:1;filter:url(#filter3241)"
   d="M 23,9 L 23.040816,121 L 84.172,121 C 84.702,121 85.211,120.789 85.586,120.414 L 118.414,87.586 C 118.789,87.211 119,86.702 119,86.172 L 119,9 L 23,9 z"
   id="path4031" /><path
   sodipodi:nodetypes="cccccccc"
   transform="matrix(1.0416667,0,0,1.0357143,-9.9583333,-3.3215342)"
   style="opacity:0.89589041000000003;fill:#000000;fill-opacity:1;filter:url(#filter3772)"
   d="M 24.919999,10.931136 L 24.919999,119.06907 L 83.596,119.06897 C 84.126,119.06897 84.635,118.85797 85.01,118.48297 L 116.494,86.717034 C 116.869,86.342034 117.08,85.833034 117.08,85.303034 L 117.08,10.931136 L 24.919999,10.931136 z"
   id="path3726" /><path
   id="path6594"
   d="M 23,9.9655172 L 23.040816,121 L 84.172,121 C 84.702,121 85.211,120.789 85.586,120.414 L 118.414,87.586 C 118.789,87.211 119,86.702 119,86.172 L 119,9.9655172 L 23,9.9655172 z"
   style="opacity:0.30684932;fill:#000000;fill-opacity:1;filter:url(#filter3241)"
   transform="matrix(1.0416667,0,0,1.0357143,-9.9583333,-3.3215342)"
   sodipodi:nodetypes="cccccccc" /><path
   style="fill:url(#radialGradient2275)"
   d="M 16.000002,8 L 16.000002,120 L 77.172002,120 C 77.702002,120 78.211002,119.789 78.586002,119.414 L 111.414,86.586 C 111.789,86.211 112,85.702 112,85.172 L 112,8 L 16.000002,8 z "
   id="path34"
   sodipodi:nodetypes="cccccccc" /><path
   style="fill:url(#radialGradient2272);fill-opacity:1"
   d="M 19.678725,10.7 C 19.139449,10.7 18.700002,11.140836 18.700002,11.681818 L 18.600002,116.41818 C 18.600002,116.96015 19.039449,117.4 19.578725,117.4 L 76.891747,118 C 77.149151,118 77.401662,117.89593 77.583704,117.71233 L 109.71323,85.4812 C 109.89626,85.2976 110,85.045273 110,84.787055 L 109.3,11.681818 C 109.3,11.140836 108.86153,10.7 108.32128,10.7 L 19.678725,10.7 z"
   id="path59"
   sodipodi:nodetypes="ccccccccccc" /><g
   id="g1973"
   transform="translate(2.4e-6,0)"><path
     style="opacity:0.1;fill:url(#linearGradient2291)"
     id="path66"
     d="M 111.414,86.586 C 111.664,86.336 93.035,93 88,93 C 86.346,93 85,94.346 85,96 C 85,101.035 78.336,119.664 78.586,119.414 L 111.414,86.586 z " /><path
     style="opacity:0.1;fill:url(#linearGradient2293)"
     id="path73"
     d="M 111.414,86.586 C 111.789,86.211 97.444,94 88,94 C 86.897,94 86,94.897 86,96 C 86,105.444 78.211,119.789 78.586,119.414 L 111.414,86.586 z " /><path
     style="opacity:0.1;fill:url(#linearGradient2295)"
     id="path80"
     d="M 111.414,86.586 C 111.653,86.347 97.807,95 88,95 C 87.447,95 87,95.447 87,96 C 87,105.807 78.347,119.653 78.586,119.414 L 111.414,86.586 z " /><path
     style="fill:url(#linearGradient2297)"
     id="path101"
     d="M 78.586,119.414 C 78.586,119.414 90.5,109.5 96,104 C 101.5,98.5 111.414,86.586 111.414,86.586 C 111.414,86.586 98.25,96 88,96 C 88,106.25 78.586,119.414 78.586,119.414 z " /></g>

<path
   style="fill:none;fill-rule:evenodd;stroke:#000000;stroke-width:1px;stroke-linecap:butt;stroke-linejoin:miter;stroke-opacity:1"
   d="M 100,28 L 100,28 z"
   id="path3341" /><g
   inkscape:label="fill text"
   id="g3232"
   transform="translate(-52.29222,-108.34695)" /><g
   inkscape:label="fill text"
   id="g4591"
   transform="translate(-52.29222,-108.34695)" /><g
   transform="matrix(1.014153,0,0,1.014153,-2.2087583,-2.790683)"
   id="g7003"><path
     style="fill:url(#linearGradient6382);fill-opacity:1;stroke:none;stroke-width:8;stroke-linecap:round;stroke-linejoin:round;stroke-miterlimit:4;stroke-dashoffset:1.08779998;stroke-opacity:1"
     d="M 88.47965,79.007098 C 87.98245,79.011083 87.50644,79.208971 87.15296,79.558644 L 79.05864,87.652968 C 78.31379,88.398118 78.31379,89.605924 79.05864,90.351074 L 91.19267,102.50002 L 79.05864,114.64895 C 78.31379,115.3941 78.31379,116.60191 79.05864,117.34706 L 87.15296,125.44138 C 87.89811,126.18623 89.10591,126.18623 89.85106,125.44138 L 102.00001,113.30735 L 114.14894,125.44138 C 114.8941,126.18623 116.1019,126.18623 116.84705,125.44138 L 124.94137,117.34706 C 125.68622,116.60191 125.68622,115.39411 124.94137,114.64895 L 112.80734,102.50002 L 124.94138,90.351076 C 125.68622,89.605924 125.68622,88.398118 124.94137,87.652966 L 116.84705,79.558643 C 116.1019,78.8138 114.8941,78.813798 114.14894,79.558645 L 102.00001,91.692677 L 89.85106,79.558642 C 89.48659,79.198015 88.99233,78.999236 88.47965,79.007098 z M 103.35651,109.25274 C 102.99808,108.89046 102.50963,108.68661 102.00001,108.68661 C 101.49038,108.68661 101.00193,108.89046 100.6435,109.25274 L 103.35651,109.25274 z"
     id="path3300"
     sodipodi:nodetypes="cccccccccccccccccccccccscc" /><path
     style="fill:#000000;fill-opacity:1;fill-rule:evenodd;stroke:#000000;stroke-width:0.89430439px;stroke-linecap:butt;stroke-linejoin:miter;stroke-opacity:1;filter:url(#filter3549)"
     d="M -62.57895,106.7868 L -36.415999,79.916739 L -10.606602,106.43324 L -36.415999,66.128157 L -62.57895,106.7868 z"
     id="path3507"
     clip-path="url(#clipPath3559)"
     transform="matrix(0.4770136,0,0,0.4770136,119.27747,73.879199)" /><path
     sodipodi:nodetypes="ccccc"
     id="path5159"
     d="M 31.7,16 L 34.575,12.625 C 33.523795,10.929242 30.639864,10.336982 28.6375,12.3125 L 31.45,15.6875 L 31.7,16 z"
     style="opacity:0.49812736;fill:url(#linearGradient6384);fill-opacity:1;fill-rule:evenodd;stroke:none;stroke-width:1px;stroke-linecap:butt;stroke-linejoin:miter;stroke-opacity:1;filter:url(#filter3477)"
     transform="matrix(0,0.8892682,-0.8892682,0,134.58273,87.900608)" /><path
     sodipodi:nodetypes="ccccc"
     id="path3485"
     d="M 31.7,16 L 34.575,12.625 C 33.523795,10.929242 30.639864,10.336982 28.6375,12.3125 L 31.45,15.6875 L 31.7,16 z"
     style="opacity:0.79026214;fill:url(#linearGradient6386);fill-opacity:1;fill-rule:evenodd;stroke:none;stroke-width:1px;stroke-linecap:butt;stroke-linejoin:miter;stroke-opacity:1;filter:url(#filter3477)"
     transform="matrix(0.8782235,0,0,-0.8782235,60.73951,135.2747)" /><path
     transform="matrix(0,0.8052763,0.8052763,0,70.31204,90.546684)"
     style="opacity:0.49812736;fill:url(#linearGradient6388);fill-opacity:1;fill-rule:evenodd;stroke:none;stroke-width:1px;stroke-linecap:butt;stroke-linejoin:miter;stroke-opacity:1;filter:url(#filter3477)"
     d="M 31.7,16 L 34.575,12.625 C 33.523795,10.929242 30.639864,10.336982 28.6375,12.3125 L 31.45,15.6875 L 31.7,16 z"
     id="path3493"
     sodipodi:nodetypes="ccccc" /><path
     sodipodi:nodetypes="ccccccccccccc"
     style="opacity:0.92134836;fill:url(#linearGradient6390);fill-opacity:1;stroke:none;stroke-width:0.69921422;stroke-linecap:round;stroke-linejoin:round;stroke-miterlimit:4;stroke-dasharray:none;stroke-dashoffset:1.08779998;stroke-opacity:0"
     d="M 115.49198,82.641174 L 102.00001,96.133153 L 88.50803,82.641175 L 82.14116,89.008035 L 95.63315,102.50001 L 82.14116,115.99199 L 88.50803,122.35885 L 102,108.86687 L 115.49198,122.35885 L 121.85884,115.99199 L 108.36686,102.50001 L 121.85884,89.008033 L 115.49198,82.641174 z"
     id="rect2323" /><path
     style="opacity:0.79026214;fill:url(#linearGradient6392);fill-opacity:1;fill-rule:evenodd;stroke:none;stroke-width:1px;stroke-linecap:butt;stroke-linejoin:miter;stroke-opacity:1;filter:url(#filter3477)"
     d="M 88.7,16 L 91.575,12.625 C 90.523795,10.929242 87.639864,10.336982 85.6375,12.3125 L 88.45,15.6875 L 88.7,16 z"
     id="path3487"
     sodipodi:nodetypes="ccccc"
     transform="matrix(0.8052763,0,0,-0.8052763,44.32666,134.58564)" /><path
     transform="matrix(0.4770136,0,0,-0.4770136,119.27747,130.89587)"
     clip-path="url(#clipPath3559)"
     id="path3565"
     d="M -62.57895,106.7868 L -36.415999,79.916739 L -10.606602,106.43324 L -36.415999,66.128157 L -62.57895,106.7868 z"
     style="fill:url(#radialGradient6447);fill-opacity:1;fill-rule:evenodd;stroke:none;stroke-width:1px;stroke-linecap:butt;stroke-linejoin:miter;stroke-opacity:1;filter:url(#filter3549)" /><path
     style="opacity:0.79026214;fill:url(#linearGradient6396);fill-opacity:1;fill-rule:evenodd;stroke:none;stroke-width:1px;stroke-linecap:butt;stroke-linejoin:miter;stroke-opacity:1;filter:url(#filter3477)"
     d="M 31.7,16 L 34.575,12.625 C 33.523795,10.929242 30.639864,10.336982 28.6375,12.3125 L 31.45,15.6875 L 31.7,16 z"
     id="path3403"
     sodipodi:nodetypes="ccccc"
     transform="matrix(0.732329,0,0,0.732329,65.33576,71.46747)" /><path
     sodipodi:nodetypes="ccccc"
     id="path3481"
     d="M 88.7,16 L 91.575,12.625 C 90.523795,10.929242 87.639864,10.336982 85.6375,12.3125 L 88.45,15.6875 L 88.7,16 z"
     style="opacity:0.79026214;fill:url(#linearGradient6398);fill-opacity:1;fill-rule:evenodd;stroke:none;stroke-width:1px;stroke-linecap:butt;stroke-linejoin:miter;stroke-opacity:1;filter:url(#filter3477)"
     transform="matrix(0.75185,0,0,0.75185,49.05509,71.283073)" /><path
     sodipodi:nodetypes="ccccccccccccc"
     id="path3328"
     d="M 88.284271,18.368396 L 60,46.652666 L 31.715729,18.368396 L 18.368396,31.715729 L 46.652666,60 L 18.368396,88.284271 L 31.715729,101.63161 L 60,73.347334 L 88.284271,101.63161 L 101.63161,88.284271 L 73.347334,60 L 101.63161,31.715729 L 88.284271,18.368396 z"
     style="opacity:0.92134836;fill:none;fill-opacity:1;stroke:url(#linearGradient6400);stroke-width:2.78857636;stroke-linecap:round;stroke-linejoin:round;stroke-miterlimit:4;stroke-dasharray:none;stroke-dashoffset:1.08779998;stroke-opacity:1;filter:url(#filter3354)"
     transform="matrix(0.4770136,0,0,0.4770136,73.3792,73.879201)" /><path
     style="fill:url(#linearGradient6402);fill-opacity:1;stroke:none;stroke-width:1.01534986;stroke-linecap:round;stroke-linejoin:round;stroke-miterlimit:4;stroke-dasharray:none;stroke-dashoffset:1.08779998;stroke-opacity:1"
     d="M 88.5008,82.610488 L 88.14304,82.968248 L 82.1348,88.976481 L 88.38154,83.206753 L 102.00065,96.134566 L 115.36262,83.206753 L 120.71497,88.559094 C 120.66815,88.801202 120.60495,89.036016 120.53608,89.274613 L 114.73696,96.02776 C 109.50684,98.635183 102.21413,101.20713 94.3736,101.21528 L 94.50776,101.34944 C 94.73271,101.35209 94.95238,101.36435 95.17856,101.36435 C 103.04262,101.36435 108.45013,99.744878 113.69349,97.130854 L 121.40067,89.42368 C 121.4324,89.313738 121.46183,89.205153 121.49011,89.095733 C 121.5232,88.967692 121.55431,88.838711 121.57955,88.708162 L 115.48187,82.610488 L 115.12411,82.968248 L 102.00065,96.134566 L 88.5008,82.610488 z"
     id="path3374"
     sodipodi:nodetypes="cccccccccccsccsccccc" /><path
     sodipodi:nodetypes="cccscccccc"
     style="fill:url(#linearGradient6404);fill-opacity:1;stroke:none;stroke-width:1.01534986;stroke-linecap:round;stroke-linejoin:round;stroke-miterlimit:4;stroke-dasharray:none;stroke-dashoffset:1.08779998;stroke-opacity:1"
     d="M 88.50946,82.643479 L 82.14347,89.009473 L 94.51643,101.38244 C 94.74138,101.38508 94.96106,101.39734 95.18723,101.39734 C 103.05129,101.39734 108.4588,99.777869 113.70216,97.163846 L 121.40934,89.456676 C 121.47821,89.218077 121.54141,88.98326 121.58823,88.741152 L 115.49055,82.643479 L 102,96.134018 L 88.50946,82.643479 z"
     id="path5167" /><path
     sodipodi:nodetypes="cccccccccccccsccsccccc"
     id="path3399"
     d="M 88.5008,82.610488 L 88.14304,82.968248 L 82.1348,88.976481 L 88.38154,83.206753 L 102.00378,97.034501 L 102.00065,96.134566 L 102.00539,97.027571 L 115.36262,83.206753 L 120.71497,88.559094 C 120.66815,88.801202 120.60495,89.036016 120.53608,89.274613 L 114.73696,96.02776 C 109.50684,98.635183 102.21413,101.20713 94.3736,101.21528 L 94.50776,101.34944 C 94.73271,101.35209 94.95238,101.36435 95.17856,101.36435 C 103.04262,101.36435 108.45013,99.744878 113.69349,97.130854 L 121.40067,89.42368 C 121.4324,89.313738 121.46183,89.205153 121.49011,89.095733 C 121.5232,88.967692 121.55431,88.838711 121.57955,88.708162 L 115.48187,82.610488 L 115.12411,82.968248 L 102.00065,96.134566 L 88.5008,82.610488 z"
     style="fill:url(#linearGradient6406);fill-opacity:1;stroke:none;stroke-width:1.01534986;stroke-linecap:round;stroke-linejoin:round;stroke-miterlimit:4;stroke-dasharray:none;stroke-dashoffset:1.08779998;stroke-opacity:1" /></g><g
   id="g5368"
   inkscape:label="fill text"
   transform="translate(-236.20047,-18.70287)" /></svg>