<?xml version="1.0" encoding="UTF-8" standalone="no"?>
<!-- Created with Inkscape (http://www.inkscape.org/) -->

<svg
   xmlns:dc="http://purl.org/dc/elements/1.1/"
   xmlns:cc="http://creativecommons.org/ns#"
   xmlns:rdf="http://www.w3.org/1999/02/22-rdf-syntax-ns#"
   xmlns:svg="http://www.w3.org/2000/svg"
   xmlns="http://www.w3.org/2000/svg"
   xmlns:xlink="http://www.w3.org/1999/xlink"
   xmlns:sodipodi="http://sodipodi.sourceforge.net/DTD/sodipodi-0.dtd"
   xmlns:inkscape="http://www.inkscape.org/namespaces/inkscape"
   width="128"
   height="128"
   id="svg3408"
   sodipodi:version="0.32"
   inkscape:version="0.46+devel"
   version="1.0"
   sodipodi:docname="draw-bezier-curves.svgz"
   inkscape:output_extension="org.inkscape.output.svgz.inkscape"
   inkscape:export-filename="/home/pinheiro/pics/oxygen-icons/scalable/actions/small/16x16/draw-bezier-curves.png"
   inkscape:export-xdpi="67.5"
   inkscape:export-ydpi="67.5">
  <defs
     id="defs3410">
    <inkscape:path-effect
       effect="skeletal"
       id="path-effect3852"
       is_visible="true"
       deactivate_knotholder="false"
       pattern="M 0.00329356,-0.934331 0,0.76171873 8.7657193,-0.04262302 0.00329356,-0.934331 z"
       copytype="single_stretched"
       prop_scale="1"
       scale_y_rel="false"
       spacing="0"
       normal_offset="0"
       tang_offset="0"
       prop_units="false"
       vertical_pattern="false"
       fuse_tolerance="0"
       pattern-nodetypes="cccc" />
    <linearGradient
       id="linearGradient3814">
      <stop
         id="stop3816"
         offset="0"
         style="stop-color:#0968ef;stop-opacity:1;" />
      <stop
         id="stop3818"
         offset="1"
         style="stop-color:#03295d;stop-opacity:1;" />
    </linearGradient>
    <inkscape:perspective
       sodipodi:type="inkscape:persp3d"
       inkscape:vp_x="0 : 64 : 1"
       inkscape:vp_y="0 : 1000 : 0"
       inkscape:vp_z="128 : 64 : 1"
       inkscape:persp3d-origin="64 : 42.666667 : 1"
       id="perspective22" />
    <linearGradient
       id="linearGradient6330">
      <stop
         id="stop6332"
         offset="0"
         style="stop-color:#0968ef;stop-opacity:1;" />
      <stop
         id="stop6334"
         offset="1"
         style="stop-color:#aecffc;stop-opacity:1;" />
    </linearGradient>
    <linearGradient
       inkscape:collect="always"
       xlink:href="#linearGradient6330"
       id="linearGradient3533"
       x1="75.952278"
       y1="62.440258"
       x2="75.952278"
       y2="-26.755692"
       gradientUnits="userSpaceOnUse"
       gradientTransform="translate(5.7819,-0.0543)" />
    <linearGradient
       id="linearGradient3225">
      <stop
         style="stop-color:#ffffff;stop-opacity:1;"
         offset="0"
         id="stop3227" />
      <stop
         style="stop-color:#aeaeae;stop-opacity:1;"
         offset="1"
         id="stop3229" />
    </linearGradient>
    <linearGradient
       id="linearGradient3207">
      <stop
         style="stop-color:#ffffff;stop-opacity:1;"
         offset="0"
         id="stop3209" />
      <stop
         style="stop-color:#252525;stop-opacity:0;"
         offset="1"
         id="stop3211" />
    </linearGradient>
    <linearGradient
       id="linearGradient3202">
      <stop
         style="stop-color:#cbff9c;stop-opacity:1;"
         offset="0"
         id="stop3204" />
      <stop
         style="stop-color:#65c171;stop-opacity:0"
         offset="1"
         id="stop3206" />
    </linearGradient>
    <linearGradient
       id="linearGradient5412"
       gradientUnits="userSpaceOnUse"
       x1="28"
       y1="57.5"
       x2="28"
       y2="0">
      <stop
         offset="0"
         style="stop-color:#fff14d;stop-opacity:1;"
         id="stop5414" />
      <stop
         offset="1"
         style="stop-color:#f8ffa0;stop-opacity:0;"
         id="stop5416" />
    </linearGradient>
    <radialGradient
       gradientUnits="userSpaceOnUse"
       gradientTransform="matrix(0.9792,0,0,0.9725,133.0002,20.8762)"
       r="55.148"
       cy="-0.2148"
       cx="48"
       id="XMLID_4_">
      <stop
         id="stop3082"
         style="stop-color:#72D13D"
         offset="0" />
      <stop
         id="stop3084"
         style="stop-color:#35AC1C"
         offset="0.3553" />
      <stop
         id="stop3086"
         style="stop-color:#0F9508"
         offset="0.6194" />
      <stop
         id="stop3088"
         style="stop-color:#008C00"
         offset="0.7574" />
      <stop
         id="stop3090"
         style="stop-color:#007A00"
         offset="1" />
    </radialGradient>
    <linearGradient
       id="linearGradient3260"
       inkscape:collect="always">
      <stop
         id="stop3262"
         offset="0"
         style="stop-color:#ffffff;stop-opacity:1;" />
      <stop
         id="stop3264"
         offset="1"
         style="stop-color:#ffffff;stop-opacity:0;" />
    </linearGradient>
    <linearGradient
       id="linearGradient6330-6">
      <stop
         style="stop-color:#0968ef;stop-opacity:1;"
         offset="0"
         id="stop6332-3" />
      <stop
         style="stop-color:#aecffc;stop-opacity:1;"
         offset="1"
         id="stop6334-2" />
    </linearGradient>
    <linearGradient
       id="linearGradient6955">
      <stop
         id="stop6957"
         offset="0"
         style="stop-color:#fd0000;stop-opacity:1;" />
      <stop
         id="stop6959"
         offset="1"
         style="stop-color:#8f0000;stop-opacity:1;" />
    </linearGradient>
    <inkscape:perspective
       id="perspective2889"
       inkscape:persp3d-origin="64 : 42.666667 : 1"
       inkscape:vp_z="128 : 64 : 1"
       inkscape:vp_y="0 : 1000 : 0"
       inkscape:vp_x="0 : 64 : 1"
       sodipodi:type="inkscape:persp3d" />
    <linearGradient
       inkscape:collect="always"
       xlink:href="#linearGradient3260"
       id="linearGradient3763"
       gradientUnits="userSpaceOnUse"
       gradientTransform="matrix(0.66184692,0,0,0.66184692,34.593281,18.919166)"
       x1="23.811087"
       y1="44.186089"
       x2="29.360022"
       y2="64.894997" />
    <radialGradient
       inkscape:collect="always"
       xlink:href="#linearGradient6955"
       id="radialGradient3766"
       gradientUnits="userSpaceOnUse"
       gradientTransform="matrix(8.8504492,0,0,6.2772134,-589.56598,-81.765174)"
       cx="72.631729"
       cy="23.17247"
       fx="72.631729"
       fy="23.17247"
       r="1.2652372" />
    <linearGradient
       inkscape:collect="always"
       xlink:href="#linearGradient6955"
       id="linearGradient3769"
       gradientUnits="userSpaceOnUse"
       gradientTransform="matrix(4.222016,0,0,4.2151808,-253.30734,-34.718846)"
       x1="73.264343"
       y1="17.805996"
       x2="73.264343"
       y2="23.136526" />
    <linearGradient
       inkscape:collect="always"
       xlink:href="#linearGradient6955"
       id="linearGradient3795"
       x1="21.3181"
       y1="8.8199015"
       x2="21.3181"
       y2="19.069901"
       gradientUnits="userSpaceOnUse"
       gradientTransform="matrix(0.85184584,0,0,0.85184584,0.86799338,3.7553851)" />
    <linearGradient
       inkscape:collect="always"
       xlink:href="#linearGradient6955"
       id="linearGradient3797"
       x1="93.143898"
       y1="99.198814"
       x2="93.143898"
       y2="117.97542"
       gradientUnits="userSpaceOnUse"
       gradientTransform="matrix(0.96969697,0,0,0.96969697,1.6786424,0.03510303)" />
    <linearGradient
       inkscape:collect="always"
       xlink:href="#linearGradient3814"
       id="linearGradient3812"
       gradientUnits="userSpaceOnUse"
       gradientTransform="matrix(4.6681662,0,0,4.6681662,-223.51788,-70.568991)"
       x1="73.264343"
       y1="17.805996"
       x2="73.264343"
       y2="23.136526" />
    <linearGradient
       inkscape:collect="always"
       xlink:href="#linearGradient3814"
       id="linearGradient3850"
       gradientUnits="userSpaceOnUse"
       gradientTransform="matrix(5.6049744,0,0,5.6049744,-384.4551,-9.558899)"
       x1="73.264343"
       y1="17.805996"
       x2="73.264343"
       y2="23.136526" />
    <linearGradient
       inkscape:collect="always"
       xlink:href="#linearGradient3814"
       id="linearGradient3880"
       gradientUnits="userSpaceOnUse"
       gradientTransform="matrix(4.6681662,0,0,4.6681662,-314.18528,12.095568)"
       x1="73.264343"
       y1="17.805996"
       x2="73.264343"
       y2="23.136526" />
  </defs>
  <sodipodi:namedview
     id="base"
     pagecolor="#ffffff"
     bordercolor="#666666"
     borderopacity="1.0"
     inkscape:pageopacity="0.0"
     inkscape:pageshadow="2"
     inkscape:zoom="2.8284271"
     inkscape:cx="8.2743435"
     inkscape:cy="56.679071"
     inkscape:document-units="px"
     inkscape:current-layer="layer1"
     height="128px"
     width="128px"
     showborder="true"
     inkscape:showpageshadow="false"
     showgrid="true"
     inkscape:window-width="1011"
     inkscape:window-height="800"
     inkscape:window-x="115"
     inkscape:window-y="0"
     showguides="true"
     inkscape:guide-bbox="true"
     inkscape:snap-nodes="false"
     inkscape:snap-bbox="true">
    <inkscape:grid
       id="GridFromPre046Settings"
       type="xygrid"
       originx="0px"
       originy="0px"
       spacingx="2.6666px"
       spacingy="2.6666px"
       color="#0000ff"
       empcolor="#0000ff"
       opacity="0.2"
       empopacity="0.4"
       empspacing="2"
       visible="true"
       enabled="true" />
  </sodipodi:namedview>
  <metadata
     id="metadata3413">
    <rdf:RDF>
      <cc:Work
         rdf:about="">
        <dc:format>image/svg+xml</dc:format>
        <dc:type
           rdf:resource="http://purl.org/dc/dcmitype/StillImage" />
        <dc:title></dc:title>
      </cc:Work>
    </rdf:RDF>
  </metadata>
  <g
     inkscape:label="Livello 1"
     inkscape:groupmode="layer"
     id="layer1">
    <path
       style="fill:none;stroke:url(#linearGradient3533);stroke-width:1.7;stroke-linecap:round;stroke-linejoin:round;stroke-miterlimit:4;stroke-dasharray:none"
       id="path5278"
       d="m 28.184282,112.81324 c -0.05485,0.56341 -0.11005,1.12671 -0.165598,1.6899 8.577416,0.42434 17.457694,-0.0497 25.525144,-3.30178 6.130823,-2.46988 11.544058,-7.12467 13.985019,-13.329948 2.229842,-5.765611 1.913347,-12.237887 0.06476,-18.045879 C 64.840693,71.166733 59.075733,63.798718 52.505704,57.659104 47.891877,53.326764 43.432811,48.628965 41.030399,42.863834 39.530433,39.297714 39.201171,35.306365 39.553732,31.408419 40.062116,25.722417 43.349563,20.478433 47.77803,16.792021 52.908564,12.523412 59.400678,10.041234 66.028052,8.9880154 73.724568,7.7671277 81.713023,8.4992353 89.139868,10.917153 97.775059,13.728102 105.6058,18.86691 111.8995,25.441361 105.65936,18.816036 97.859058,13.601221 89.209289,10.706705 81.770531,8.217587 73.740192,7.4129501 65.96508,8.5806688 59.270505,9.5847085 52.680193,12.044544 47.411423,16.34738 c -2e-6,2e-6 -5e-6,5e-6 -8e-6,7e-6 -4.563697,3.725563 -7.976157,9.081687 -8.57266,14.992984 -0.398408,3.979254 -0.08584,8.093143 1.439062,11.835074 2.44844,5.960117 6.942223,10.804495 11.562913,15.188538 6.434947,6.133457 12.044339,13.40233 14.620303,21.815297 10e-7,2e-6 10e-7,3e-6 2e-6,5e-6 1.720436,5.625563 1.990073,11.825284 -0.171697,17.203924 -2.283464,5.780671 -7.473012,10.119161 -13.299158,12.436071 -7.749012,3.07986 -16.370918,3.44821 -24.805898,2.99396 z"
       sodipodi:nodetypes="cssss"
       inkscape:path-effect="#path-effect3852"
       inkscape:original-d="M 28.0625,113.65625 C 48.185515,114.69737 62.200346,109.55723 66.900489,97.623922 70.636673,88.138036 68.382756,73.329059 52.16043,58.025098 39.456785,46.040621 38.45453,38.902464 39.171239,31.372015 41.380368,8.1607076 84.229549,-3.7506006 111.93117,25.411276" />
    <path
       style="fill:#06007e;fill-opacity:1;stroke:none"
       d="m 95.884811,98.500207 -7.960384,-7.591852 -1.713949,1.776825 8.545957,8.20012 1.128376,-2.385093 z M 83.696034,86.829592 75.397483,78.86812 l -1.670558,1.731843 8.299347,8.005658 1.669762,-1.776029 z m -12.548641,-12.017744 -8.343534,-8.004862 -1.627167,1.686859 7.287233,7.029358 1.034606,0.997995 1.648862,-1.70935 z M 58.576262,62.77241 l -8.748381,-8.395383 -1.562079,1.619385 0.404845,0.39052 7.894502,7.615138 0.405641,0.434707 1.605472,-1.664367 z m -12.571133,-12.03944 -8.815854,-8.460468 -1.496993,1.55191 0.04498,0.04339 7.265536,7.05185 1.056303,0.975504 0.427338,0.412215 1.518688,-1.574402 z M 33.00666,38.281316 l -8.343534,-8.004863 -1.453602,1.506928 8.321839,8.027353 1.475297,-1.529418 z M 20.457223,26.219385 17.21925,23.139413 16.101428,24.8834 l 2.92389,2.820422 1.431905,-1.484437 z"
       id="polyline38098" />
    <path
       style="fill:url(#linearGradient3797);fill-opacity:1;stroke:none"
       d="m 100,96 c -4.414337,0 -8,3.585668 -8,8 0,4.41433 3.585663,8 8,8 4.41434,0 8,-3.58567 8,-8 0,-4.414332 -3.58566,-8 -8,-8 z m 0,2.818182 c 2.85616,0 5.15152,2.325658 5.15152,5.181818 0,2.85616 -2.29536,5.15152 -5.15152,5.15152 -2.856152,0 -5.181818,-2.29536 -5.181818,-5.15152 0,-2.85616 2.325666,-5.181818 5.181818,-5.181818 z"
       id="circle38102" />
    <rect
       ry="2.5312018"
       rx="2.5353065"
       style="fill:url(#linearGradient3769);fill-opacity:1"
       id="rect38110-4"
       height="15.999599"
       width="16.025553"
       y="50.668598"
       x="45.332199" />
    <rect
       x="47.962612"
       y="53.335201"
       width="10.589557"
       height="10.589551"
       id="rect6963"
       style="fill:url(#radialGradient3766);fill-opacity:1"
       rx="0.99277073"
       ry="0.99277073" />
    <path
       style="fill:url(#linearGradient3763);fill-opacity:1"
       d="m 48.98845,53.335207 c -0.549995,0 -0.992769,0.442776 -0.992769,0.992771 l 0,5.005218 c 0.804653,0.07649 1.632961,0.124094 2.481924,0.124094 3.055444,0 5.866586,-0.51526 8.107626,-1.38574 l 0,-3.743572 c 0,-0.549995 -0.442775,-0.992771 -0.992771,-0.992771 l -8.60401,0 z"
       id="rect6989" />
    <g
       inkscape:label="fill text"
       id="g3232"
       transform="translate(-69.71916,11.295302)" />
    <g
       inkscape:label="fill text"
       id="g4591"
       transform="translate(-69.71916,11.295302)" />
    <path
       sodipodi:nodetypes="ccc"
       style="fill:#ffffff;fill-opacity:0.75688076;fill-rule:nonzero;stroke:none"
       id="path8227"
       d="m -544.04719,244.362 0,-2.79471 0,2.79471 z" />
    <g
       id="g5368"
       inkscape:label="fill text"
       transform="translate(-284.64505,111.60578)" />
    <path
       id="path3777"
       d="m 12,12.972272 c -3.8778451,0 -7.0277282,3.149884 -7.0277282,7.027728 0,3.877841 3.1498831,7.027728 7.0277282,7.027728 3.877849,0 7.027728,-3.149887 7.027728,-7.027728 0,-3.877844 -3.149879,-7.027728 -7.027728,-7.027728 z m 0,2.475677 c 2.509032,0 4.525431,2.043016 4.525431,4.552051 0,2.509035 -2.016399,4.525431 -4.525431,4.525431 -2.5090327,0 -4.5520512,-2.016396 -4.5520512,-4.525431 0,-2.509035 2.0430185,-4.552051 4.5520512,-4.552051 z"
       style="fill:url(#linearGradient3795);fill-opacity:1;stroke:none" />
    <path
       style="fill:url(#linearGradient3812);fill-opacity:1"
       d="m 109.48179,24.000002 c -1.55298,0 -2.80757,1.254585 -2.80757,2.807568 l 0.0252,7.702195 c 0,1.552983 1.25458,2.783776 2.80756,2.783776 l 7.68537,0.04206 C 118.74541,37.335598 120,36.104806 120,34.551824 l -0.0505,-7.744256 C 119.94952,25.254585 118.69494,24 117.14195,24 l -7.66013,0 -3e-5,2e-6 z m 0.80223,2.740231 6.15122,-0.0081 c 0.46061,-3.5e-5 0.83275,0.372099 0.83275,0.832719 l 0.1,6.296035 c 0,0.460619 -0.37214,0.832754 -0.83275,0.832754 l -6.39615,1.07e-4 c -0.46061,0 -0.83275,-0.372133 -0.83275,-0.832753 l 0.1449,-6.28803 c 0,-0.460619 0.37213,-0.832753 0.83275,-0.832753 l 1e-5,0 3e-5,0 -1e-5,2.1e-5 z"
       id="rect3799"
       sodipodi:nodetypes="cccccccccccccccccccccc" />
    <path
       sodipodi:nodetypes="cccccccccccccccccccccc"
       id="path3878"
       d="m 18.81439,106.66456 c -1.55298,0 -2.80757,1.25459 -2.80757,2.80757 l 0.0252,7.70219 c 0,1.55299 1.25458,2.78378 2.80756,2.78378 l 7.68537,0.0421 c 1.55306,0 2.80765,-1.23079 2.80765,-2.78378 l -0.0505,-7.74425 c 2e-5,-1.55299 -1.25456,-2.80757 -2.80755,-2.80757 l -7.66013,0 -3e-5,0 z m 0.80223,2.74023 6.15122,-0.008 c 0.46061,-3e-5 0.83275,0.3721 0.83275,0.83272 l 0.1,6.29604 c 0,0.46062 -0.37214,0.83275 -0.83275,0.83275 l -6.39615,1.1e-4 c -0.46061,0 -0.83275,-0.37214 -0.83275,-0.83276 l 0.1449,-6.28803 c 0,-0.46061 0.37213,-0.83275 0.83275,-0.83275 l 10e-6,0 3e-5,0 -10e-6,2e-5 z"
       style="fill:url(#linearGradient3880);fill-opacity:1" />
  </g>
</svg>
