<?xml version="1.0" encoding="UTF-8" standalone="no"?>
<!-- Created with Inkscape (http://www.inkscape.org/) -->

<svg
   xmlns:dc="http://purl.org/dc/elements/1.1/"
   xmlns:cc="http://creativecommons.org/ns#"
   xmlns:rdf="http://www.w3.org/1999/02/22-rdf-syntax-ns#"
   xmlns:svg="http://www.w3.org/2000/svg"
   xmlns="http://www.w3.org/2000/svg"
   xmlns:xlink="http://www.w3.org/1999/xlink"
   xmlns:sodipodi="http://sodipodi.sourceforge.net/DTD/sodipodi-0.dtd"
   xmlns:inkscape="http://www.inkscape.org/namespaces/inkscape"
   width="128"
   height="128"
   id="svg2"
   sodipodi:version="0.32"
   inkscape:version="0.46+devel"
   version="1.0"
   sodipodi:docname="go-next-context.svgz"
   inkscape:output_extension="org.inkscape.output.svgz.inkscape"
   inkscape:export-filename="/home/pinheiro/pics/oxygen-icons/scalable/actions/small/48x48/go-next-context.png"
   inkscape:export-xdpi="135"
   inkscape:export-ydpi="135">
  <defs
     id="defs4">
    <inkscape:perspective
       sodipodi:type="inkscape:persp3d"
       inkscape:vp_x="0 : 64 : 1"
       inkscape:vp_y="0 : 1000 : 0"
       inkscape:vp_z="128 : 64 : 1"
       inkscape:persp3d-origin="64 : 42.666667 : 1"
       id="perspective46" />
    <linearGradient
       inkscape:collect="always"
       id="linearGradient3835">
      <stop
         style="stop-color:#000000;stop-opacity:1;"
         offset="0"
         id="stop3837" />
      <stop
         style="stop-color:#000000;stop-opacity:0;"
         offset="1"
         id="stop3839" />
    </linearGradient>
    <linearGradient
       inkscape:collect="always"
       id="linearGradient5440">
      <stop
         style="stop-color:#ffffff;stop-opacity:1;"
         offset="0"
         id="stop5442" />
      <stop
         style="stop-color:#ffffff;stop-opacity:0;"
         offset="1"
         id="stop5444" />
    </linearGradient>
    <linearGradient
       id="linearGradient5342">
      <stop
         style="stop-color:#232221;stop-opacity:1;"
         offset="0"
         id="stop5344" />
      <stop
         id="stop5394"
         offset="0.10646833"
         style="stop-color:#555350;stop-opacity:1;" />
      <stop
         style="stop-color:#918d88;stop-opacity:1;"
         offset="1"
         id="stop5346" />
    </linearGradient>
    <linearGradient
       id="linearGradient3857"
       inkscape:collect="always">
      <stop
         id="stop3859"
         offset="0"
         style="stop-color:#ffffff;stop-opacity:1;" />
      <stop
         id="stop3861"
         offset="1"
         style="stop-color:#ffffff;stop-opacity:0" />
    </linearGradient>
    <filter
       inkscape:collect="always"
       id="filter3791">
      <feGaussianBlur
         inkscape:collect="always"
         stdDeviation="0.20159556"
         id="feGaussianBlur3793" />
    </filter>
    <filter
       inkscape:collect="always"
       id="filter3820">
      <feGaussianBlur
         inkscape:collect="always"
         stdDeviation="0.2741905"
         id="feGaussianBlur3822" />
    </filter>
    <linearGradient
       inkscape:collect="always"
       xlink:href="#linearGradient5342"
       id="linearGradient3832"
       gradientUnits="userSpaceOnUse"
       gradientTransform="matrix(0.82532899,0,0,-0.82532899,27.563153,11.178945)"
       x1="80.151077"
       y1="-120.00011"
       x2="80.151077"
       y2="-15.919633" />
    <linearGradient
       inkscape:collect="always"
       xlink:href="#linearGradient5342"
       id="linearGradient3635"
       gradientUnits="userSpaceOnUse"
       gradientTransform="matrix(0.82532899,0,0,-0.82532899,27.563153,11.178945)"
       x1="80.151077"
       y1="-120.00011"
       x2="80.151077"
       y2="-15.919633" />
    <radialGradient
       inkscape:collect="always"
       xlink:href="#linearGradient3857"
       id="radialGradient3641"
       gradientUnits="userSpaceOnUse"
       gradientTransform="matrix(1,0,0,0.85762511,0,9.1119933)"
       cx="72"
       cy="119.96851"
       fx="72"
       fy="119.96851"
       r="55.96851" />
    <radialGradient
       inkscape:collect="always"
       xlink:href="#linearGradient3857"
       id="radialGradient3643"
       gradientUnits="userSpaceOnUse"
       gradientTransform="matrix(0.76634635,0.64242764,-0.99999902,1.1928901,46.315462,-78.733381)"
       cx="116.84712"
       cy="19.013723"
       fx="116.84712"
       fy="19.013723"
       r="7.2363849" />
    <radialGradient
       inkscape:collect="always"
       xlink:href="#linearGradient3857"
       id="radialGradient3645"
       gradientUnits="userSpaceOnUse"
       gradientTransform="matrix(0.76634635,0.64242764,-0.99999902,1.1928901,46.315462,-78.733381)"
       cx="116.84712"
       cy="19.013723"
       fx="116.84712"
       fy="19.013723"
       r="7.2363849" />
    <radialGradient
       inkscape:collect="always"
       xlink:href="#linearGradient3857"
       id="radialGradient3649"
       gradientUnits="userSpaceOnUse"
       gradientTransform="matrix(0.97236837,-0.56139711,1.2749973,2.2083604,-19.803722,0.83179405)"
       cx="37.859638"
       cy="16.90958"
       fx="37.859638"
       fy="16.90958"
       r="4.7018008" />
    <radialGradient
       inkscape:collect="always"
       xlink:href="#linearGradient3857"
       id="radialGradient3653"
       gradientUnits="userSpaceOnUse"
       gradientTransform="matrix(1.1800401,-0.68129628,0.909074,1.5745629,-21.478488,16.088385)"
       cx="37.859638"
       cy="16.90958"
       fx="37.859638"
       fy="16.90958"
       r="4.7018008" />
    <linearGradient
       inkscape:collect="always"
       xlink:href="#linearGradient3835"
       id="linearGradient3663"
       gradientUnits="userSpaceOnUse"
       gradientTransform="matrix(-0.92420015,0,0,0.92420015,125.33956,4.8544869)"
       x1="-4.3022718"
       y1="111.8996"
       x2="67.872253"
       y2="64" />
    <linearGradient
       inkscape:collect="always"
       xlink:href="#linearGradient5440"
       id="linearGradient3673"
       gradientUnits="userSpaceOnUse"
       gradientTransform="matrix(-0.50746169,0,0,0.50746169,91.116467,25.687808)"
       x1="71.937897"
       y1="31.666744"
       x2="71.937897"
       y2="184.00002" />
    <linearGradient
       inkscape:collect="always"
       xlink:href="#linearGradient3857"
       id="linearGradient3683"
       x1="113.74206"
       y1="-47.882885"
       x2="113.74206"
       y2="117.5556"
       gradientUnits="userSpaceOnUse" />
    <linearGradient
       inkscape:collect="always"
       xlink:href="#linearGradient3857"
       id="linearGradient3694"
       gradientUnits="userSpaceOnUse"
       x1="114.57323"
       y1="41.883347"
       x2="-66.689552"
       y2="-22.9107"
       gradientTransform="translate(-0.02597403,0.01298702)" />
    <linearGradient
       inkscape:collect="always"
       xlink:href="#linearGradient3835"
       id="linearGradient3719"
       gradientUnits="userSpaceOnUse"
       gradientTransform="matrix(-0.92420015,0,0,0.92420015,125.33956,4.8544869)"
       x1="191.56367"
       y1="126.52595"
       x2="67.872253"
       y2="64" />
  </defs>
  <sodipodi:namedview
     id="base"
     pagecolor="#ffffff"
     bordercolor="#666666"
     borderopacity="1.0"
     gridtolerance="10000"
     guidetolerance="10"
     objecttolerance="10"
     inkscape:pageopacity="0.0"
     inkscape:pageshadow="2"
     inkscape:zoom="1.7014757"
     inkscape:cx="182.40862"
     inkscape:cy="90.800102"
     inkscape:document-units="px"
     inkscape:current-layer="layer1"
     width="128px"
     height="128px"
     showgrid="true"
     inkscape:window-width="1040"
     inkscape:window-height="728"
     inkscape:window-x="504"
     inkscape:window-y="333"
     showguides="true"
     inkscape:guide-bbox="true"
     inkscape:object-paths="true"
     inkscape:snap-global="false">
    <inkscape:grid
       id="GridFromPre046Settings"
       type="xygrid"
       originx="0px"
       originy="0px"
       spacingx="2.6666px"
       spacingy="2.6666px"
       color="#0000ff"
       empcolor="#0000ff"
       opacity="0.2"
       empopacity="0.4"
       empspacing="2"
       visible="true"
       enabled="true" />
    <sodipodi:guide
       orientation="0,1"
       position="-49.038961,177.03896"
       id="guide3657" />
    <sodipodi:guide
       orientation="0,1"
       position="-38.233766,9.9740259"
       id="guide3659" />
  </sodipodi:namedview>
  <metadata
     id="metadata7">
    <rdf:RDF>
      <cc:Work
         rdf:about="">
        <dc:format>image/svg+xml</dc:format>
        <dc:type
           rdf:resource="http://purl.org/dc/dcmitype/StillImage" />
        <dc:title></dc:title>
      </cc:Work>
    </rdf:RDF>
  </metadata>
  <g
     inkscape:label="Layer 1"
     inkscape:groupmode="layer"
     id="layer1">
    <path
       d="m 43.25,12 c -3.229493,0 -6.134282,0.827305 -8.125,2.59375 -1.990718,1.766445 -2.88765,3.640205 -4.3125,5.8125 L 5.78125,58.59375 5.75,58.625 C 3.7207351,61.707562 3.7091082,66.120192 5.71875,69.3125 A 3.9894433,3.9894433 0 0 0 5.75,69.375 l 25.0625,38.21875 c 1.424853,2.1723 2.321782,4.04605 4.3125,5.8125 C 37.115718,115.1727 40.020509,116 43.25,116 l 66.84375,0 C 117.72259,116 124,109.72258 124,102.09375 l 0,-76.1875 C 124,18.277417 117.72259,12 110.09375,12 L 43.25,12 z"
       id="path2990"
       style="fill:url(#linearGradient3635);fill-opacity:1;stroke:none"
       inkscape:original="M 43.25 16 C 37.763213 16 37.16555 18.005838 34.15625 22.59375 L 9.09375 60.8125 C 7.7337308 62.856649 7.7051191 64.981665 9.09375 67.1875 L 34.15625 105.40625 C 37.165554 109.99417 37.763213 112 43.25 112 L 110.09375 112 C 115.58054 112 120 107.58053 120 102.09375 L 120 25.90625 C 120 20.419463 115.58054 16 110.09375 16 L 43.25 16 z "
       inkscape:radius="3.9890444"
       sodipodi:type="inkscape:offset"
       transform="matrix(-0.92420015,0,0,0.92420015,125.33956,4.8544869)" />
    <path
       style="font-size:113.80991364px;fill:url(#linearGradient3673);fill-opacity:1"
       d="m 66.758306,37.866889 c 4.594272,0.02262 8.186636,0.615414 9.768636,1.966413 1.594501,1.359312 2.378742,4.099513 2.378727,8.214537 l 0,6.692149 c 1.5e-5,2.774433 0.465661,4.819293 1.49067,5.899243 1.006056,1.061372 2.201631,1.585838 4.916035,1.585819 l 1.744399,0 0,4.059693 -1.744399,0 c -2.695423,1.6e-5 -3.891,0.474144 -4.916035,1.554101 -1.025009,1.079984 -1.490655,2.929024 -1.49067,5.740661 l 0,2.616599 c 1.5e-5,4.115058 -0.784226,10.912187 -2.378727,12.29009 -1.582,1.351023 -5.174364,2.127054 -9.768636,2.156709 l 0,-4.059691 c 2.634072,-0.01099 5.869964,-0.475132 6.676292,-1.284514 0.816244,-0.819293 1.2211,-6.604016 1.221081,-9.22946 l 0,-2.854471 c 1.9e-5,-2.904738 0.382769,-4.926076 1.236936,-6.248122 0.854207,-1.322018 1.603837,-2.208987 3.710814,-2.711749 -2.087996,-0.465486 -2.824891,-1.373838 -3.679098,-2.69589 -0.873148,-1.322012 -1.268633,-3.546747 -1.268652,-6.470138 l 0,-6.930023 c 1.9e-5,-2.62541 -0.404837,-4.350441 -1.221081,-5.169766 -0.806328,-0.80934 -4.04222,-1.055049 -6.676292,-1.062498 l 0,-4.059692 z m -16.238775,0 0,4.059692 c -2.634076,0.0073 -5.869966,0.253158 -6.676294,1.062498 -0.816243,0.819325 -1.221101,2.544356 -1.221078,5.169766 l 0,6.930023 c -2.3e-5,2.923391 -0.395508,5.148126 -1.268655,6.470138 -0.854206,1.322052 -1.591103,2.230404 -3.679098,2.69589 2.106978,0.502762 2.856607,1.389731 3.710813,2.711749 0.854166,1.322046 1.236917,3.343384 1.23694,6.248122 l 0,2.854471 c -2.3e-5,2.625444 0.404835,8.410167 1.221078,9.22946 0.806328,0.809382 4.042218,1.2735 6.676294,1.284514 l 0,4.059691 c -4.594274,-0.02964 -8.186639,-0.805686 -9.768638,-2.156709 -1.5945,-1.377903 -2.378743,-8.175032 -2.378728,-12.29009 l 0,-2.616599 c -1.5e-5,-2.811637 -0.465658,-4.660677 -1.490668,-5.740661 -1.025036,-1.079957 -2.22061,-1.554085 -4.916035,-1.554101 l -1.744403,0 0,-4.059693 1.744403,0 c 2.714403,1.9e-5 3.909978,-0.524447 4.916035,-1.585819 1.02501,-1.07995 1.490653,-3.12481 1.490668,-5.899243 l 0,-6.692149 c -1.5e-5,-4.115024 0.784228,-6.855225 2.378728,-8.214537 1.581999,-1.350999 5.174364,-1.943816 9.768638,-1.966413 z"
       id="path3006"
       sodipodi:nodetypes="csccsccccscccccsccsccccsccccsccccsccscccccsccccsccsc" />
    <path
       sodipodi:type="inkscape:offset"
       inkscape:radius="1.1255776"
       inkscape:original="M 43.25 16 C 37.763213 16 37.16555 18.005838 34.15625 22.59375 L 9.09375 60.8125 C 7.7337308 62.856649 7.7051191 64.981665 9.09375 67.1875 L 34.15625 105.40625 C 37.165554 109.99417 37.763213 112 43.25 112 L 110.09375 112 C 115.58054 112 120 107.58053 120 102.09375 L 120 25.90625 C 120 20.419463 115.58054 16 110.09375 16 L 43.25 16 z "
       style="opacity:0.4;fill:url(#radialGradient3641);fill-opacity:1;stroke:none"
       id="path2986"
       d="m 43.25,14.875 c -2.880555,0 -4.787433,0.604934 -6.21875,1.875 -1.431317,1.270066 -2.330367,2.959123 -3.8125,5.21875 L 8.15625,60.1875 c -1.5552625,2.337606 -1.5659772,5.106201 0,7.59375 a 1.1256901,1.1256901 0 0 0 0,0.03125 l 25.0625,38.21875 c 1.482135,2.25963 2.381183,3.94868 3.8125,5.21875 1.431317,1.27007 3.338196,1.875 6.21875,1.875 l 66.84375,0 c 6.09121,0 11.03125,-4.94005 11.03125,-11.03125 l 0,-76.1875 c 0,-6.091202 -4.94004,-11.03125 -11.03125,-11.03125 l -66.84375,0 z"
       transform="matrix(-0.92420015,0,0,0.92420015,125.33956,4.8544869)" />
    <path
       style="fill:url(#radialGradient3643);fill-opacity:1;stroke-width:1px;filter:url(#filter3791)"
       d="m 109.61073,12.071221 0.0735,2.803779 c 6.19993,0 11.29857,4.331144 11.44058,10.968809 l 2.95869,-0.401842 c 0,-6.921709 -5.91869,-13.370746 -14.47274,-13.370746 l -3e-5,0 z"
       id="path3781"
       sodipodi:nodetypes="cccccc"
       transform="matrix(-0.92420015,0,0,0.92420015,125.33956,4.8544869)" />
    <path
       style="fill:url(#linearGradient3663);fill-opacity:1;stroke:none"
       d="m 85.367905,15.944886 c 2.984697,0 5.669304,0.764598 7.509125,2.397147 1.839822,1.632549 2.668767,3.364278 3.985613,5.371913 l 23.133887,35.292893 0.0289,0.02888 c 1.87545,2.848904 1.88619,6.927057 0.0289,9.877388 -0.009,0.01934 -0.0191,0.03859 -0.0289,0.05776 L 96.862643,104.29265 c -1.316849,2.00764 -2.145791,3.73936 -3.985613,5.37191 -1.839821,1.63256 -4.52443,2.39715 -7.509125,2.39715 l -61.777005,0 c -7.05057,0 -12.85216,-5.8016 -12.85216,-12.852167 l 0,-70.4125 c 0,-7.050568 5.80159,-12.852157 12.85216,-12.852157 l 61.777005,0 z M 85.38849,18.6694 23.971,18.54004 c -5.07089,0 -10.63154,5.134186 -10.63154,10.205074 l 0.11506,70.563421 c 0,5.070885 5.27329,10.096095 10.34418,10.096095 l 61.881931,-0.003 c 5.070888,0 5.982189,-2.01437 8.763388,-6.25453 L 117.9269,67.243047 c 1.28337,-2.038633 1.07327,-4.920894 -0.18366,-6.810097 L 94.187933,24.488881 C 91.406738,20.248732 90.459378,18.6694 85.38849,18.6694 z"
       id="path3828"
       sodipodi:nodetypes="cscccsccsccccccccccccccccc" />
    <path
       style="fill:url(#radialGradient3653);fill-opacity:1;stroke-width:1px;filter:url(#filter3820)"
       d="m 42.095812,12.07122 0.291059,2.895771 c -2.191572,0.09392 -5.017462,0.526977 -6.728016,3.314595 l -2.562584,-1.361633 c 1.954982,-2.701297 4.514218,-4.775098 8.999541,-4.848733 z"
       id="path3810"
       sodipodi:nodetypes="ccccc"
       transform="matrix(-0.92420015,0,0,0.92420015,125.33956,4.8544869)" />
    <path
       style="opacity:1;fill:url(#linearGradient3683);fill-opacity:1;stroke:none"
       d="M 23.59375 18.59375 C 17.964253 18.59375 13.40625 23.18301 13.40625 28.8125 L 13.40625 72.9375 C 21.83304 74.412319 30.878833 75.21875 40.3125 75.21875 C 71.986837 75.21875 99.402056 66.169689 112.875 52.96875 L 94.625 25.15625 C 93.255212 23.067902 92.447823 21.517545 91.125 20.34375 C 89.802177 19.169955 88.037209 18.59375 85.375 18.59375 L 23.59375 18.59375 z "
       id="path3676" />
    <path
       style="fill:url(#linearGradient3694);fill-opacity:1;stroke:none"
       d="m 91.567776,20.825487 c 0.779569,0.991269 1.476495,2.191124 2.4375,3.65625 l 18.250004,27.8125 c -13.472948,13.200939 -40.888167,22.25 -72.562504,22.25 -9.213976,0 -18.053916,-0.777506 -26.3125,-2.1875 l 0,0.59375 c 8.42679,1.474819 17.472583,2.28125 26.90625,2.28125 31.674337,0 59.089556,-9.049061 72.562504,-22.25 l -18.250004,-27.8125 c -1.198565,-1.827304 -1.971795,-3.232099 -3.03125,-4.34375 z"
       id="path3685" />
    <path
       sodipodi:nodetypes="cscccsccsccccccccccccccccc"
       id="path3717"
       d="m 85.367905,15.944886 c 2.984697,0 5.669304,0.764598 7.509125,2.397147 1.839822,1.632549 2.668767,3.364278 3.985613,5.371913 l 23.133887,35.292893 0.0289,0.02888 c 1.87545,2.848904 1.88619,6.927057 0.0289,9.877388 -0.009,0.01934 -0.0191,0.03859 -0.0289,0.05776 L 96.862643,104.29265 c -1.316849,2.00764 -2.145791,3.73936 -3.985613,5.37191 -1.839821,1.63256 -4.52443,2.39715 -7.509125,2.39715 l -61.777005,0 c -7.05057,0 -12.85216,-5.8016 -12.85216,-12.852167 l 0,-70.4125 c 0,-7.050568 5.80159,-12.852157 12.85216,-12.852157 l 61.777005,0 z M 85.38849,18.6694 23.971,18.54004 c -5.07089,0 -10.63154,5.134186 -10.63154,10.205074 l 0.11506,70.563421 c 0,5.070885 5.27329,10.096095 10.34418,10.096095 l 61.881931,-0.003 c 5.070888,0 5.982189,-2.01437 8.763388,-6.25453 L 117.9269,67.243047 c 1.28337,-2.038633 1.07327,-4.920894 -0.18366,-6.810097 L 94.187933,24.488881 C 91.406738,20.248732 90.459378,18.6694 85.38849,18.6694 z"
       style="fill:url(#linearGradient3719);fill-opacity:1;stroke:none" />
    <path
       sodipodi:nodetypes="cccccc"
       id="path3795"
       d="m 109.61073,12.071221 0.0735,2.831223 c 5.28541,0.306171 11.23262,4.078759 11.37463,10.716424 l 3.02464,-0.176901 c 0,-6.921709 -5.91869,-13.370746 -14.47274,-13.370746 l -3e-5,0 z"
       style="opacity:0.5120773;fill:url(#radialGradient3645);fill-opacity:1;stroke-width:1px;filter:url(#filter3791)"
       transform="matrix(-0.92420015,0,0,-0.92420015,125.33956,123.17747)" />
    <path
       sodipodi:nodetypes="ccccc"
       id="path3824"
       d="m 42.095812,12.07122 -0.07433,2.913172 c -2.191572,0.09392 -4.752147,0.739934 -6.462701,3.527552 l -2.462512,-1.591991 c 1.954982,-2.701297 4.514218,-4.775098 8.999541,-4.848733 z"
       style="opacity:0.79227056;fill:url(#radialGradient3649);fill-opacity:1;stroke-width:1px;filter:url(#filter3820)"
       transform="matrix(-0.92420015,0,0,-0.92420015,125.33956,123.21552)" />
  </g>
</svg>
