<?xml version="1.0" encoding="UTF-8" standalone="no"?>
<!-- Created with Inkscape (http://www.inkscape.org/) -->
<svg
   xmlns:dc="http://purl.org/dc/elements/1.1/"
   xmlns:cc="http://creativecommons.org/ns#"
   xmlns:rdf="http://www.w3.org/1999/02/22-rdf-syntax-ns#"
   xmlns:svg="http://www.w3.org/2000/svg"
   xmlns="http://www.w3.org/2000/svg"
   xmlns:xlink="http://www.w3.org/1999/xlink"
   xmlns:sodipodi="http://sodipodi.sourceforge.net/DTD/sodipodi-0.dtd"
   xmlns:inkscape="http://www.inkscape.org/namespaces/inkscape"
   width="128"
   height="128"
   id="svg37105"
   sodipodi:version="0.32"
   inkscape:version="0.46"
   version="1.0"
   sodipodi:docname="karbon.svgz"
   inkscape:output_extension="org.inkscape.output.svgz.inkscape"
   inkscape:export-filename="/home/pinheiro/pics/oxygen/scalable/apps/karbon.png"
   inkscape:export-xdpi="135"
   inkscape:export-ydpi="135">
  <defs
     id="defs37107">
    <inkscape:perspective
       sodipodi:type="inkscape:persp3d"
       inkscape:vp_x="0 : 64 : 1"
       inkscape:vp_y="0 : 1000 : 0"
       inkscape:vp_z="128 : 64 : 1"
       inkscape:persp3d-origin="64 : 42.666667 : 1"
       id="perspective202" />
    <linearGradient
       id="linearGradient4713">
      <stop
         id="stop4715"
         offset="0"
         style="stop-color:#730088;stop-opacity:1;" />
      <stop
         style="stop-color:#c940d1;stop-opacity:1;"
         offset="0.91021842"
         id="stop4717" />
      <stop
         id="stop4719"
         offset="1"
         style="stop-color:#ff80fa;stop-opacity:1;" />
    </linearGradient>
    <linearGradient
       inkscape:collect="always"
       xlink:href="#linearGradient4713"
       id="linearGradient6972"
       x1="65.5"
       y1="37.535175"
       x2="65.5"
       y2="8.993433"
       gradientUnits="userSpaceOnUse" />
    <linearGradient
       inkscape:collect="always"
       id="linearGradient4072">
      <stop
         style="stop-color:#ffffff;stop-opacity:1;"
         offset="0"
         id="stop4074" />
      <stop
         style="stop-color:#ffffff;stop-opacity:0;"
         offset="1"
         id="stop4076" />
    </linearGradient>
    <linearGradient
       id="linearGradient4061">
      <stop
         style="stop-color:#55ddff;stop-opacity:1"
         offset="0"
         id="stop4064" />
      <stop
         id="stop4066"
         offset="0.54370058"
         style="stop-color:#c7ecf4;stop-opacity:1" />
      <stop
         style="stop-color:#d8edf2;stop-opacity:1"
         offset="1"
         id="stop4068" />
    </linearGradient>
    <linearGradient
       inkscape:collect="always"
       id="linearGradient3672">
      <stop
         style="stop-color:#000000;stop-opacity:1;"
         offset="0"
         id="stop3674" />
      <stop
         style="stop-color:#000000;stop-opacity:0;"
         offset="1"
         id="stop3676" />
    </linearGradient>
    <linearGradient
       id="linearGradient5093">
      <stop
         id="stop5095"
         offset="0"
         style="stop-color:#ffffff;stop-opacity:1;" />
      <stop
         id="stop5097"
         offset="1"
         style="stop-color:#ffffff;stop-opacity:0;" />
    </linearGradient>
    <linearGradient
       id="linearGradient5079">
      <stop
         style="stop-color:#760000;stop-opacity:1;"
         offset="0"
         id="stop5081" />
      <stop
         id="stop5087"
         offset="0.18451464"
         style="stop-color:#ff4f4f;stop-opacity:1;" />
      <stop
         style="stop-color:#ad2626;stop-opacity:1;"
         offset="0.50211865"
         id="stop5089" />
      <stop
         id="stop5091"
         offset="0.75105929"
         style="stop-color:#e43e3e;stop-opacity:1;" />
      <stop
         style="stop-color:#5e0000;stop-opacity:1;"
         offset="1"
         id="stop5083" />
    </linearGradient>
    <linearGradient
       id="linearGradient5059">
      <stop
         id="stop5061"
         offset="0"
         style="stop-color:#7c7c7c;stop-opacity:1;" />
      <stop
         style="stop-color:#434343;stop-opacity:1;"
         offset="0.08478908"
         id="stop5063" />
      <stop
         style="stop-color:#ffffff;stop-opacity:1;"
         offset="0.25"
         id="stop5065" />
      <stop
         id="stop5067"
         offset="0.375"
         style="stop-color:#9c9c9c;stop-opacity:1;" />
      <stop
         style="stop-color:#717171;stop-opacity:1;"
         offset="0.5"
         id="stop5069" />
      <stop
         id="stop5071"
         offset="0.625"
         style="stop-color:#a0a0a0;stop-opacity:1;" />
      <stop
         id="stop5073"
         offset="0.75"
         style="stop-color:#dfdfdf;stop-opacity:1;" />
      <stop
         style="stop-color:#909090;stop-opacity:1;"
         offset="0.875"
         id="stop5075" />
      <stop
         id="stop5077"
         offset="1"
         style="stop-color:#4f4f4f;stop-opacity:1;" />
    </linearGradient>
    <linearGradient
       inkscape:collect="always"
       id="linearGradient5041">
      <stop
         style="stop-color:#dbdbdb;stop-opacity:1;"
         offset="0"
         id="stop5043" />
      <stop
         style="stop-color:#dbdbdb;stop-opacity:0;"
         offset="1"
         id="stop5045" />
    </linearGradient>
    <linearGradient
       id="linearGradient4976">
      <stop
         style="stop-color:#ffffff;stop-opacity:1;"
         offset="0"
         id="stop4978" />
      <stop
         style="stop-color:#000000;stop-opacity:1;"
         offset="1"
         id="stop4980" />
    </linearGradient>
    <linearGradient
       inkscape:collect="always"
       id="linearGradient4952">
      <stop
         style="stop-color:#000000;stop-opacity:1;"
         offset="0"
         id="stop4954" />
      <stop
         style="stop-color:#000000;stop-opacity:0;"
         offset="1"
         id="stop4956" />
    </linearGradient>
    <linearGradient
       id="linearGradient4930">
      <stop
         id="stop4932"
         offset="0"
         style="stop-color:#7c7c7c;stop-opacity:1;" />
      <stop
         style="stop-color:#434343;stop-opacity:1;"
         offset="0.03125"
         id="stop4934" />
      <stop
         style="stop-color:#ffffff;stop-opacity:1;"
         offset="0.30155984"
         id="stop4936" />
      <stop
         id="stop4938"
         offset="0.43392554"
         style="stop-color:#9c9c9c;stop-opacity:1;" />
      <stop
         style="stop-color:#717171;stop-opacity:1;"
         offset="0.53682846"
         id="stop4940" />
      <stop
         id="stop4942"
         offset="0.625"
         style="stop-color:#a0a0a0;stop-opacity:1;" />
      <stop
         id="stop4944"
         offset="0.75"
         style="stop-color:#dfdfdf;stop-opacity:1;" />
      <stop
         style="stop-color:#909090;stop-opacity:1;"
         offset="0.875"
         id="stop4946" />
      <stop
         id="stop4948"
         offset="1"
         style="stop-color:#4f4f4f;stop-opacity:1;" />
    </linearGradient>
    <linearGradient
       id="linearGradient4884">
      <stop
         style="stop-color:#7c7c7c;stop-opacity:1;"
         offset="0"
         id="stop4886" />
      <stop
         id="stop4888"
         offset="0.03125"
         style="stop-color:#434343;stop-opacity:1;" />
      <stop
         id="stop4890"
         offset="0.25"
         style="stop-color:#ffffff;stop-opacity:1;" />
      <stop
         style="stop-color:#9c9c9c;stop-opacity:1;"
         offset="0.375"
         id="stop4892" />
      <stop
         id="stop4894"
         offset="0.5"
         style="stop-color:#717171;stop-opacity:1;" />
      <stop
         style="stop-color:#a0a0a0;stop-opacity:1;"
         offset="0.625"
         id="stop4896" />
      <stop
         style="stop-color:#dfdfdf;stop-opacity:1;"
         offset="0.75"
         id="stop4898" />
      <stop
         id="stop4900"
         offset="0.875"
         style="stop-color:#909090;stop-opacity:1;" />
      <stop
         style="stop-color:#4f4f4f;stop-opacity:1;"
         offset="1"
         id="stop4902" />
    </linearGradient>
    <linearGradient
       inkscape:collect="always"
       id="linearGradient3759">
      <stop
         style="stop-color:#000000;stop-opacity:1;"
         offset="0"
         id="stop3761" />
      <stop
         style="stop-color:#000000;stop-opacity:0;"
         offset="1"
         id="stop3763" />
    </linearGradient>
    <linearGradient
       id="linearGradient3800">
      <stop
         style="stop-color:#ffffff;stop-opacity:1;"
         offset="0"
         id="stop3802" />
      <stop
         id="stop3804"
         offset="0.50587869"
         style="stop-color:#e3e3e3;stop-opacity:1;" />
      <stop
         style="stop-color:#a0a0a0;stop-opacity:1;"
         offset="1"
         id="stop3806" />
    </linearGradient>
    <linearGradient
       inkscape:collect="always"
       id="linearGradient3526">
      <stop
         style="stop-color:#ffffff;stop-opacity:1;"
         offset="0"
         id="stop3528" />
      <stop
         style="stop-color:#ffffff;stop-opacity:0;"
         offset="1"
         id="stop3530" />
    </linearGradient>
    <linearGradient
       id="linearGradient6417">
      <stop
         style="stop-color:#55ddff;stop-opacity:1"
         offset="0"
         id="stop6419" />
      <stop
         id="stop6425"
         offset="0.83492261"
         style="stop-color:#c7ecf4;stop-opacity:1" />
      <stop
         style="stop-color:#d8edf2;stop-opacity:1"
         offset="1"
         id="stop6421" />
    </linearGradient>
    <radialGradient
       id="XMLID_8_"
       cx="102"
       cy="112.3047"
       r="139.55859"
       gradientUnits="userSpaceOnUse">
      <stop
         offset="0"
         style="stop-color:#efefef;stop-opacity:1;"
         id="stop41" />
      <stop
         offset="0.18851049"
         style="stop-color:#f9f9f9;stop-opacity:1;"
         id="stop47" />
      <stop
         offset="0.25718147"
         style="stop-color:#FAFAFA"
         id="stop49" />
      <stop
         offset="0.30111277"
         style="stop-color:#FFFFFF"
         id="stop51" />
      <stop
         offset="0.5313"
         style="stop-color:#FAFAFA"
         id="stop53" />
      <stop
         offset="0.8449"
         style="stop-color:#EBECEC"
         id="stop55" />
      <stop
         offset="1"
         style="stop-color:#E1E2E3"
         id="stop57" />
    </radialGradient>
    <filter
       inkscape:collect="always"
       id="filter2770">
      <feGaussianBlur
         inkscape:collect="always"
         stdDeviation="2.0786429"
         id="feGaussianBlur2772" />
    </filter>
    <radialGradient
       inkscape:collect="always"
       xlink:href="#XMLID_8_"
       id="radialGradient6878"
       gradientUnits="userSpaceOnUse"
       gradientTransform="matrix(1,0,0,0.9996653,-8,3.02e-3)"
       cx="102"
       cy="112.3047"
       r="139.55859"
       fx="115.08147"
       fy="124.32954" />
    <filter
       inkscape:collect="always"
       id="filter3465">
      <feGaussianBlur
         inkscape:collect="always"
         stdDeviation="0.75688206"
         id="feGaussianBlur3467" />
    </filter>
    <linearGradient
       id="linearGradient3223"
       inkscape:collect="always">
      <stop
         id="stop3225"
         offset="0"
         style="stop-color:#000000;stop-opacity:1;" />
      <stop
         id="stop3227"
         offset="1"
         style="stop-color:#000000;stop-opacity:0;" />
    </linearGradient>
    <linearGradient
       id="linearGradient3370">
      <stop
         style="stop-color:#0e2965;stop-opacity:1;"
         offset="0"
         id="stop3372" />
      <stop
         style="stop-color:#091e6a;stop-opacity:1;"
         offset="1"
         id="stop3376" />
    </linearGradient>
    <linearGradient
       inkscape:collect="always"
       xlink:href="#linearGradient3223"
       id="linearGradient6362"
       gradientUnits="userSpaceOnUse"
       gradientTransform="translate(0.6875,-1.375)"
       x1="20.488955"
       y1="21.94838"
       x2="20.488955"
       y2="0.22073001" />
    <linearGradient
       inkscape:collect="always"
       xlink:href="#linearGradient3370"
       id="linearGradient6500"
       gradientUnits="userSpaceOnUse"
       gradientTransform="translate(0.6875,-1.375)"
       x1="20.488955"
       y1="21.94838"
       x2="20.488955"
       y2="7.3532839" />
    <linearGradient
       inkscape:collect="always"
       xlink:href="#linearGradient6417"
       id="linearGradient6964"
       x1="7.9375"
       y1="18"
       x2="7.9375"
       y2="4.75"
       gradientUnits="userSpaceOnUse" />
    <radialGradient
       inkscape:collect="always"
       xlink:href="#linearGradient4713"
       id="radialGradient3651"
       cx="36.775948"
       cy="104.14867"
       fx="36.775948"
       fy="104.14867"
       r="26.633142"
       gradientTransform="matrix(2.2161453,0,0,2.24006,-46.500847,-130.29927)"
       gradientUnits="userSpaceOnUse" />
    <filter
       inkscape:collect="always"
       id="filter3753">
      <feGaussianBlur
         inkscape:collect="always"
         stdDeviation="0.88162968"
         id="feGaussianBlur3755" />
    </filter>
    <clipPath
       clipPathUnits="userSpaceOnUse"
       id="clipPath3761">
      <path
         style="opacity:0.36633666;fill:#ffffff;fill-opacity:1;stroke:none;stroke-width:0.30000001;stroke-linecap:round;stroke-linejoin:round;stroke-miterlimit:4;stroke-dasharray:none;stroke-dashoffset:0;stroke-opacity:1"
         d="M 170.75,112.2125 L 170.75,207.86875 L 304.40625,207.86875 L 304.40625,112.2125 L 170.75,112.2125 z M 253.96875,125.275 C 263.09249,125.11739 272.39106,126.81734 279.5625,130.9 C 281.25821,131.86536 282.83025,132.95927 284.28125,134.24375 C 291.73696,140.84374 296.5363,150.11272 290.09375,158.05625 C 285.13452,164.1709 275.54447,160.77878 276.34375,155.5875 C 276.72781,153.09304 278.40863,149.06153 275.59375,147.74375 C 268.94208,144.63603 261.28508,149.77403 258.5,154.30625 C 257.7824,155.47479 256.43951,157.89583 257.75,159.18125 C 259.73691,161.13014 262.09731,159.52362 264,161.3375 C 268.55225,165.67729 263.04159,177.42221 257.15625,182.0875 C 248.31547,189.09555 236.44357,193.65985 224.09375,193.93125 C 211.36973,194.21088 198.1247,190.03317 187.15625,179.15 C 186.46777,178.46688 185.42501,177.16489 184.78125,176.11875 C 176.08963,161.99457 179.41898,140.07634 197.53125,142.24375 C 203.35892,142.94112 213.16069,150.67522 206.9375,161.43125 C 205.18815,164.45479 206.81246,166.88082 210.71875,167.3375 C 214.09097,167.83093 220.10585,166.32433 224.5625,163.11875 C 226.97741,161.38176 228.88413,159.34701 229.34375,157.0875 C 229.96563,154.03025 228.23862,150.84366 225.59375,150.05625 C 224.63415,149.77057 223.1885,150.501 223.75,151.525 C 224.31965,152.56385 222.64654,153.76074 221.125,153.11875 C 213.52982,149.91415 216.79159,140.01772 224.375,133.9 C 230.78556,128.72844 242.23823,125.47764 253.96875,125.275 z M 195.1875,153.43125 C 193.77973,153.52423 192.22528,154.15506 191.25,155.11875 C 187.62751,158.69821 188.94294,165.43586 191.84375,169.775 C 197.53409,178.28686 213.89041,188.00866 237.28125,180.11875 C 244.21752,177.7791 249.23922,170.81861 246.6875,167.11875 C 245.77799,165.80001 244.16919,166.58749 241.625,166.5875 C 238.74484,166.5875 237.40722,165.6599 236.375,167.0875 C 229.87511,176.07707 218.50506,178.72484 205.625,174.8375 C 199.03548,172.8487 195.21051,166.87133 195.25,161.93125 C 195.11899,159.45751 195.829,157.83643 197.0625,157.68125 C 198.19232,157.53911 198.49871,155.83607 198.1875,154.86875 C 197.83514,153.7735 196.59527,153.33827 195.1875,153.43125 z"
         id="path3763" />
    </clipPath>
    <filter
       inkscape:collect="always"
       id="filter4063">
      <feGaussianBlur
         inkscape:collect="always"
         stdDeviation="1.1020371"
         id="feGaussianBlur4065" />
    </filter>
    <filter
       inkscape:collect="always"
       id="filter4838"
       x="-0.10176007"
       width="1.2035201"
       y="-0.0029984441"
       height="1.0059969">
      <feGaussianBlur
         inkscape:collect="always"
         stdDeviation="0.11803363"
         id="feGaussianBlur4840" />
    </filter>
    <filter
       inkscape:collect="always"
       id="filter4862"
       x="-0.24421846"
       width="1.4884369"
       y="-0.0029477774"
       height="1.0058956">
      <feGaussianBlur
         inkscape:collect="always"
         stdDeviation="0.11602616"
         id="feGaussianBlur4864" />
    </filter>
    <linearGradient
       inkscape:collect="always"
       xlink:href="#linearGradient4976"
       id="linearGradient2702"
       gradientUnits="userSpaceOnUse"
       gradientTransform="matrix(0.6956522,0,0,0.6956522,14.307609,36.326087)"
       x1="143.40625"
       y1="46.688442"
       x2="143.40625"
       y2="33.71875" />
    <linearGradient
       inkscape:collect="always"
       xlink:href="#linearGradient4976"
       id="linearGradient2705"
       gradientUnits="userSpaceOnUse"
       gradientTransform="matrix(0.6956522,0,0,0.6956522,14.307609,36.326087)"
       x1="146.9281"
       y1="33.447273"
       x2="146.9281"
       y2="46.595299" />
    <linearGradient
       inkscape:collect="always"
       xlink:href="#linearGradient4952"
       id="linearGradient2708"
       gradientUnits="userSpaceOnUse"
       gradientTransform="matrix(0.8333333,0,0,0.8031377,19.25,-59.126753)"
       x1="116"
       y1="23.079687"
       x2="116"
       y2="19.517187" />
    <linearGradient
       inkscape:collect="always"
       xlink:href="#linearGradient5093"
       id="linearGradient2713"
       gradientUnits="userSpaceOnUse"
       gradientTransform="matrix(-0.1218838,7.9958629e-5,2.6776831e-2,0.1980637,171.51086,30.937302)"
       x1="446.25714"
       y1="108.02052"
       x2="470.73825"
       y2="108.02052" />
    <linearGradient
       inkscape:collect="always"
       xlink:href="#linearGradient5079"
       id="linearGradient2717"
       gradientUnits="userSpaceOnUse"
       x1="110.00824"
       y1="36.999999"
       x2="121.10226"
       y2="36.999999"
       gradientTransform="translate(0,27)" />
    <linearGradient
       inkscape:collect="always"
       xlink:href="#linearGradient5093"
       id="linearGradient2731"
       gradientUnits="userSpaceOnUse"
       gradientTransform="matrix(-0.121892,-3.9198515e-4,6.5008804e-3,-0.9709777,174.28118,202.6708)"
       x1="446.25714"
       y1="108.02052"
       x2="470.73825"
       y2="108.02052" />
    <linearGradient
       inkscape:collect="always"
       xlink:href="#linearGradient4884"
       id="linearGradient2735"
       gradientUnits="userSpaceOnUse"
       gradientTransform="matrix(9.013865e-2,0,0,0.8333336,102.51505,13.833326)"
       x1="138.50824"
       y1="31.999998"
       x2="149.60226"
       y2="31.999998" />
    <linearGradient
       inkscape:collect="always"
       xlink:href="#linearGradient3759"
       id="linearGradient2738"
       gradientUnits="userSpaceOnUse"
       gradientTransform="matrix(0.3288611,0,0,7.6274458e-2,-265.97176,36.041756)"
       x1="471.80038"
       y1="141.4751"
       x2="471.80435"
       y2="144.05708" />
    <linearGradient
       inkscape:collect="always"
       xlink:href="#linearGradient4952"
       id="linearGradient2741"
       gradientUnits="userSpaceOnUse"
       gradientTransform="matrix(0.8333333,0,0,0.8031377,19.25,30.952934)"
       x1="116"
       y1="20.574524"
       x2="116"
       y2="19" />
    <linearGradient
       inkscape:collect="always"
       xlink:href="#linearGradient4930"
       id="linearGradient2744"
       gradientUnits="userSpaceOnUse"
       gradientTransform="matrix(0.4506933,0,0,0.6799483,50.575263,23.281497)"
       x1="138.50824"
       y1="31.999998"
       x2="149.60226"
       y2="31.999998" />
    <linearGradient
       inkscape:collect="always"
       xlink:href="#linearGradient5093"
       id="linearGradient2747"
       gradientUnits="userSpaceOnUse"
       gradientTransform="matrix(-0.1226233,-6.7513531e-4,2.4197626e-3,-1.6723852,201.30877,263.49595)"
       x1="446.25714"
       y1="108.02052"
       x2="470.73825"
       y2="108.02052" />
    <linearGradient
       inkscape:collect="always"
       xlink:href="#linearGradient5093"
       id="linearGradient2749"
       gradientUnits="userSpaceOnUse"
       gradientTransform="matrix(-0.4654271,-2.562534e-3,7.1315277e-4,-1.6723944,357.34994,264.35506)"
       x1="469.10562"
       y1="108.02052"
       x2="460.06363"
       y2="108.02052" />
    <linearGradient
       inkscape:collect="always"
       xlink:href="#linearGradient5093"
       id="linearGradient2751"
       gradientUnits="userSpaceOnUse"
       gradientTransform="matrix(-0.1226233,-6.7513531e-4,2.4197626e-3,-1.6723852,201.30877,263.49595)"
       x1="446.25714"
       y1="108.02052"
       x2="470.73825"
       y2="108.02052" />
    <linearGradient
       inkscape:collect="always"
       xlink:href="#linearGradient5093"
       id="linearGradient2753"
       gradientUnits="userSpaceOnUse"
       gradientTransform="matrix(-0.4654271,-2.562534e-3,7.1315277e-4,-1.6723944,357.34994,264.35506)"
       x1="469.10562"
       y1="108.02052"
       x2="460.06363"
       y2="108.02052" />
    <radialGradient
       inkscape:collect="always"
       xlink:href="#linearGradient5059"
       id="radialGradient2755"
       gradientUnits="userSpaceOnUse"
       gradientTransform="matrix(2.0834984,-1.1264003e-6,1.3552506e-6,2.5068018,-125.14408,-15.162713)"
       cx="115.5"
       cy="10.072516"
       fx="115.5"
       fy="10.072516"
       r="0.5" />
    <linearGradient
       inkscape:collect="always"
       xlink:href="#linearGradient3672"
       id="linearGradient3678"
       x1="96.846008"
       y1="68.20575"
       x2="96.846008"
       y2="102.94469"
       gradientUnits="userSpaceOnUse" />
    <linearGradient
       inkscape:collect="always"
       xlink:href="#linearGradient3759"
       id="linearGradient3683"
       gradientUnits="userSpaceOnUse"
       gradientTransform="matrix(0.4082223,0,0,0.3739161,-302.87748,-177.68941)"
       x1="471.80038"
       y1="141.4751"
       x2="471.80435"
       y2="144.05708" />
    <linearGradient
       inkscape:collect="always"
       xlink:href="#linearGradient5041"
       id="linearGradient3689"
       gradientUnits="userSpaceOnUse"
       gradientTransform="matrix(1.0124598,0,0,1.0124599,-2.7579162,0)"
       x1="91.292831"
       y1="-110"
       x2="91.292831"
       y2="-126.19952" />
    <linearGradient
       inkscape:collect="always"
       xlink:href="#linearGradient3526"
       id="linearGradient3692"
       gradientUnits="userSpaceOnUse"
       gradientTransform="matrix(0.6228988,0.359631,-0.359631,0.6228988,-77.002908,-45.374356)"
       x1="280.57156"
       y1="14.983515"
       x2="332.82864"
       y2="105.73681" />
    <linearGradient
       inkscape:collect="always"
       xlink:href="#linearGradient4061"
       id="linearGradient3698"
       gradientUnits="userSpaceOnUse"
       gradientTransform="matrix(0.6228988,0.359631,-0.359631,0.6228988,-77.002908,-45.374356)"
       x1="309.8923"
       y1="91.39122"
       x2="266.26874"
       y2="15.833036" />
    <linearGradient
       inkscape:collect="always"
       xlink:href="#linearGradient3526"
       id="linearGradient3714"
       gradientUnits="userSpaceOnUse"
       gradientTransform="matrix(0.6151018,0,0,0.6000555,25.350922,191.11523)"
       x1="91.292831"
       y1="-110"
       x2="91.292831"
       y2="-126.19952" />
    <linearGradient
       inkscape:collect="always"
       xlink:href="#linearGradient4072"
       id="linearGradient4078"
       x1="-148"
       y1="-13.5"
       x2="-46"
       y2="-13.5"
       gradientUnits="userSpaceOnUse" />
    <linearGradient
       inkscape:collect="always"
       xlink:href="#linearGradient4976"
       id="linearGradient4091"
       gradientUnits="userSpaceOnUse"
       gradientTransform="matrix(0.8248126,0,0,0.8248126,-3.9594184,19.266799)"
       x1="143.40625"
       y1="46.688442"
       x2="143.40625"
       y2="33.71875" />
    <linearGradient
       inkscape:collect="always"
       xlink:href="#linearGradient4976"
       id="linearGradient4094"
       gradientUnits="userSpaceOnUse"
       gradientTransform="matrix(0.8248126,0,0,0.8248126,-3.9594184,19.266799)"
       x1="146.9281"
       y1="33.447273"
       x2="146.9281"
       y2="46.595299" />
    <linearGradient
       inkscape:collect="always"
       xlink:href="#linearGradient4952"
       id="linearGradient4097"
       gradientUnits="userSpaceOnUse"
       gradientTransform="matrix(0.9880568,0,0,0.9522548,1.9006171,-46.713553)"
       x1="116"
       y1="23.079687"
       x2="116"
       y2="19.517187" />
    <linearGradient
       inkscape:collect="always"
       xlink:href="#linearGradient5093"
       id="linearGradient4102"
       gradientUnits="userSpaceOnUse"
       gradientTransform="matrix(-0.1445138,9.4804398e-5,3.1748435e-2,0.2348379,182.43148,13.29022)"
       x1="446.25714"
       y1="108.02052"
       x2="470.73825"
       y2="108.02052" />
    <linearGradient
       inkscape:collect="always"
       xlink:href="#linearGradient5079"
       id="linearGradient4106"
       gradientUnits="userSpaceOnUse"
       gradientTransform="matrix(1.1856681,0,0,1.3428503,-20.923494,3.707249)"
       x1="110.00824"
       y1="36.999999"
       x2="121.10226"
       y2="36.999999" />
    <linearGradient
       inkscape:collect="always"
       xlink:href="#linearGradient3759"
       id="linearGradient4111"
       gradientUnits="userSpaceOnUse"
       gradientTransform="matrix(0.4840163,0,0,0.4361169,-338.15149,-185.59339)"
       x1="471.80038"
       y1="141.4751"
       x2="471.80347"
       y2="143.48022" />
    <linearGradient
       inkscape:collect="always"
       xlink:href="#linearGradient5041"
       id="linearGradient4114"
       gradientUnits="userSpaceOnUse"
       gradientTransform="matrix(0,1.1155981,-1.1856683,0,-20.923494,-19.092109)"
       x1="91.292831"
       y1="-110"
       x2="91.292831"
       y2="-126.19952" />
    <linearGradient
       inkscape:collect="always"
       xlink:href="#linearGradient5093"
       id="linearGradient4117"
       gradientUnits="userSpaceOnUse"
       gradientTransform="matrix(-0.1445234,-4.571918e-4,7.7078867e-3,-1.1324996,185.71615,214.70132)"
       x1="446.25714"
       y1="108.02052"
       x2="470.73825"
       y2="108.02052" />
    <linearGradient
       inkscape:collect="always"
       xlink:href="#linearGradient4884"
       id="linearGradient4121"
       gradientUnits="userSpaceOnUse"
       gradientTransform="matrix(0.1068745,0,0,0.9880572,100.62534,-6.98942)"
       x1="138.50824"
       y1="31.999998"
       x2="149.60226"
       y2="31.999998" />
    <linearGradient
       inkscape:collect="always"
       xlink:href="#linearGradient3759"
       id="linearGradient4124"
       gradientUnits="userSpaceOnUse"
       gradientTransform="matrix(0.3899201,0,0,9.0436323e-2,-294.58471,19.334532)"
       x1="471.80038"
       y1="141.4751"
       x2="471.80435"
       y2="144.05708" />
    <linearGradient
       inkscape:collect="always"
       xlink:href="#linearGradient4952"
       id="linearGradient4127"
       gradientUnits="userSpaceOnUse"
       gradientTransform="matrix(0.9880568,0,0,0.9522548,1.9006171,13.308753)"
       x1="116"
       y1="20.574524"
       x2="116"
       y2="19" />
    <linearGradient
       inkscape:collect="always"
       xlink:href="#linearGradient4930"
       id="linearGradient4130"
       gradientUnits="userSpaceOnUse"
       gradientTransform="matrix(0.5343727,0,0,0.806193,39.041983,4.2129754)"
       x1="138.50824"
       y1="31.999998"
       x2="149.60226"
       y2="31.999998" />
    <linearGradient
       inkscape:collect="always"
       xlink:href="#linearGradient5093"
       id="linearGradient4133"
       gradientUnits="userSpaceOnUse"
       gradientTransform="matrix(-0.1226233,-6.7513531e-4,2.4197626e-3,-1.6723852,201.30877,263.49595)"
       x1="446.25714"
       y1="108.02052"
       x2="470.73825"
       y2="108.02052" />
    <linearGradient
       inkscape:collect="always"
       xlink:href="#linearGradient5093"
       id="linearGradient4135"
       gradientUnits="userSpaceOnUse"
       gradientTransform="matrix(-0.4654271,-2.562534e-3,7.1315277e-4,-1.6723944,357.34994,264.35506)"
       x1="469.10562"
       y1="108.02052"
       x2="460.06363"
       y2="108.02052" />
    <linearGradient
       inkscape:collect="always"
       xlink:href="#linearGradient4713"
       id="linearGradient3351"
       gradientUnits="userSpaceOnUse"
       x1="65.5"
       y1="37.535175"
       x2="65.5"
       y2="8.993433" />
    <linearGradient
       inkscape:collect="always"
       xlink:href="#linearGradient4713"
       id="linearGradient3355"
       gradientUnits="userSpaceOnUse"
       x1="65.5"
       y1="37.535175"
       x2="65.5"
       y2="8.993433" />
    <radialGradient
       inkscape:collect="always"
       xlink:href="#XMLID_8_"
       id="radialGradient3359"
       gradientUnits="userSpaceOnUse"
       gradientTransform="matrix(1,0,0,0.9996653,-8,3.02e-3)"
       cx="102"
       cy="112.3047"
       fx="115.08147"
       fy="124.32954"
       r="139.55859" />
    <linearGradient
       inkscape:collect="always"
       xlink:href="#linearGradient4713"
       id="linearGradient3363"
       gradientUnits="userSpaceOnUse"
       x1="65.5"
       y1="37.535175"
       x2="65.5"
       y2="8.993433" />
  </defs>
  <sodipodi:namedview
     id="base"
     pagecolor="#ffffff"
     bordercolor="#666666"
     borderopacity="1.0"
     inkscape:pageopacity="0.0"
     inkscape:pageshadow="2"
     inkscape:zoom="1.4142136"
     inkscape:cx="-205.00962"
     inkscape:cy="59.720227"
     inkscape:document-units="px"
     inkscape:current-layer="layer1"
     height="128px"
     width="128px"
     inkscape:window-width="1191"
     inkscape:window-height="722"
     inkscape:window-x="162"
     inkscape:window-y="195"
     showgrid="true"
     objecttolerance="5"
     gridtolerance="6"
     guidetolerance="6"
     showguides="true"
     inkscape:guide-bbox="true">
    <inkscape:grid
       id="GridFromPre046Settings"
       type="xygrid"
       originx="0px"
       originy="0px"
       spacingx="2.6666px"
       spacingy="2.6666px"
       color="#0000ff"
       empcolor="#0000ff"
       opacity="0.2"
       empopacity="0.4"
       empspacing="5"
       visible="true"
       enabled="true" />
    <sodipodi:guide
       orientation="0,1"
       position="226,155"
       id="guide3460" />
  </sodipodi:namedview>
  <metadata
     id="metadata37110">
    <rdf:RDF>
      <cc:Work
         rdf:about="">
        <dc:format>image/svg+xml</dc:format>
        <dc:type
           rdf:resource="http://purl.org/dc/dcmitype/StillImage" />
      </cc:Work>
    </rdf:RDF>
  </metadata>
  <g
     inkscape:label="Livello 1"
     inkscape:groupmode="layer"
     id="layer1">
    <path
       style="opacity:0.5;fill:#000000;fill-opacity:1;filter:url(#filter3465)"
       d="M 8 8.09375 L 8 120.09375 L 104 120.09375 L 104 16 C 104 11.998 101.05746 8.6808303 97.21875 8.09375 L 8 8.09375 z "
       id="path3447" />
    <path
       style="opacity:0.75;fill:#000000;fill-opacity:1;filter:url(#filter2770)"
       d="M 6.875,7.6875 L 6.875,121 L 105,121 L 105,16 C 104.81625,11.384578 101.00398,7.6875 96.34375,7.6875 C 96.226286,7.6875 96.116332,7.7141062 96,7.71875 L 96,7.6875 L 6.875,7.6875 z"
       id="path7865"
       sodipodi:nodetypes="ccccsccc" />
    <path
       style="fill:#ffffff;fill-opacity:1"
       d="M 8 8 L 8 120 C 8 120 71.15625 120 71.15625 120 L 104 120 L 104 16 C 104 11.584 100.416 8.0000004 96 8 L 8 8 z "
       id="path34" />
    <path
       style="fill:url(#radialGradient3359);fill-opacity:1"
       d="M 10,9.625 C 9.7873269,9.6250002 9.625,9.7874912 9.625,10 L 9.625,117.96875 C 9.625,118.18287 9.7865744,118.34375 10,118.34375 L 69.1875,118.34375 L 102.375,118.34375 L 102.375,16 C 102.375,12.472816 99.527184,9.6250004 96,9.625 L 10,9.625 z"
       id="path3357" />
    <g
       id="layer4"
       inkscape:label="box"
       style="display:inline"
       transform="matrix(0.6433923,0,0,0.6433923,122.76455,84.170545)" />
    <g
       id="layer5"
       inkscape:label="zip_app"
       style="display:inline"
       transform="matrix(0.6433923,0,0,0.6433923,122.76455,84.170545)" />
    <rect
       style="opacity:0.57786889;fill:#ffffff;fill-opacity:1;fill-rule:nonzero;stroke:none;stroke-width:3.63199997;stroke-linecap:round;stroke-linejoin:round;stroke-miterlimit:4;stroke-dasharray:none;stroke-dashoffset:4;stroke-opacity:1"
       id="rect1327"
       width="0.64339232"
       height="0"
       x="123.35661"
       y="94.546997" />
    <path
       style="fill:url(#linearGradient3363);fill-opacity:1;stroke:none;stroke-width:0.2;stroke-linecap:round;stroke-linejoin:round;stroke-miterlimit:4;stroke-dashoffset:0;stroke-opacity:0.58823529;overflow:visible"
       d="M 10,9.59375 C 9.8043558,9.59375 9.59375,9.8228094 9.59375,10.0625 L 9.59375,28.92955 C 9.59375,29.169241 9.760309,29.3358 10,29.3358 L 102,29.3358 C 102.23969,29.3358 102.40625,29.16924 102.40625,28.92955 L 102.40625,16 C 102.40625,12.76088 99.664955,9.59375 96,9.59375 L 10,9.59375 z"
       id="path3361"
       sodipodi:nodetypes="ccccccccc" />
    <path
       style="opacity:0.60891088999999998;fill:url(#linearGradient6362);fill-opacity:1.0;fill-rule:evenodd;stroke:none;stroke-width:2;stroke-linecap:round;stroke-linejoin:round;stroke-miterlimit:4;stroke-opacity:1"
       d="M 19.9375 11.40625 C 16.305354 11.40625 13.34375 14.367853 13.34375 18 C 13.34375 21.632146 16.305354 24.59375 19.9375 24.59375 C 23.569647 24.593749 26.53125 21.632146 26.53125 18 C 26.531249 14.367853 23.569647 11.40625 19.9375 11.40625 z M 19.9375 12.875 C 22.775601 12.875 25.0625 15.1619 25.0625 18 C 25.062499 20.8381 22.7756 23.125 19.9375 23.125 C 17.099401 23.124999 14.8125 20.8381 14.8125 18 C 14.8125 15.1619 17.099401 12.875 19.9375 12.875 z M 18.09375 14.625 C 17.74473 14.703162 17.522793 15.023791 17.53125 15.375 L 17.53125 20 C 17.527576 20.259855 17.653485 20.495712 17.875 20.625 C 18.107333 20.760601 18.423917 20.760601 18.65625 20.625 C 18.877765 20.495712 19.003674 20.259855 19 20 L 19 15.375 C 19.005454 15.149337 18.908371 14.936836 18.71875 14.78125 C 18.558292 14.649589 18.387081 14.626056 18.25 14.625 C 18.246041 14.62497 18.244283 14.626947 18.21875 14.625 C 18.193217 14.623053 18.134121 14.615943 18.09375 14.625 z M 22.1875 14.625 C 22.005767 14.644647 21.876352 14.750223 21.78125 14.84375 L 19.4375 17.15625 C 19.291727 17.29729 19.21875 17.48948 19.21875 17.6875 C 19.21875 17.885521 19.291726 18.07771 19.4375 18.21875 L 21.78125 20.53125 C 22.072796 20.816457 22.539066 20.779511 22.8125 20.5 C 23.089742 20.216595 23.099975 19.749975 22.8125 19.46875 L 21 17.6875 L 22.8125 15.875 C 23.048118 15.652105 23.068177 15.307682 22.9375 15.03125 C 22.800789 14.742051 22.495425 14.586144 22.1875 14.625 z "
       id="path3820" />
    <path
       id="path6498"
       d="M 22.1875,14.625 C 22.005767,14.644647 21.876352,14.750223 21.78125,14.84375 L 19.4375,17.15625 C 19.291727,17.29729 19.21875,17.48948 19.21875,17.6875 C 19.21875,17.885521 19.291726,18.07771 19.4375,18.21875 L 21.78125,20.53125 C 22.072796,20.816457 22.539066,20.779511 22.8125,20.5 C 23.089742,20.216595 23.099975,19.749975 22.8125,19.46875 L 21,17.6875 L 22.8125,15.875 C 23.048118,15.652105 23.068177,15.307682 22.9375,15.03125 C 22.800789,14.742051 22.495425,14.586144 22.1875,14.625 z"
       style="opacity:1;fill:url(#linearGradient6500);fill-opacity:1;fill-rule:evenodd;stroke:none;stroke-width:2;stroke-linecap:round;stroke-linejoin:round;stroke-miterlimit:4;stroke-opacity:1"
       sodipodi:nodetypes="cccsccscccsc" />
    <path
       style="fill:url(#radialGradient3651);fill-opacity:1;fill-rule:evenodd;stroke:#7f00c3;stroke-width:0.5;stroke-linecap:butt;stroke-linejoin:miter;stroke-miterlimit:4;stroke-dasharray:none;stroke-opacity:1;opacity:1"
       d="M 84.403189,71.689056 C 87.487488,79.78122 82.837845,97.804142 72.469752,103 C 57.436547,110.53373 34.688988,103.00341 40,95.633001 C 46.978637,85.94833 62.512155,86.382888 65,70.894592 C 69.832441,40.809801 57.818231,37.54487 39.597441,60.3482 C 11.318796,95.738942 77.441705,53.42446 84.403189,71.689056 z"
       id="path3331"
       sodipodi:nodetypes="csssss" />
    <path
       style="fill:none;fill-rule:evenodd;stroke:#0050bc;stroke-width:0.5;stroke-linecap:butt;stroke-linejoin:miter;stroke-miterlimit:4;stroke-dasharray:none;stroke-opacity:1"
       d="M 12.657561,94.421616 L 61.084913,33.150787"
       id="path3395"
       sodipodi:nodetypes="cc" />
    <path
       sodipodi:type="arc"
       style="opacity:1;fill:none;fill-opacity:1;stroke:#0050bc;stroke-width:0.57084875;stroke-linecap:round;stroke-linejoin:round;stroke-miterlimit:4;stroke-dasharray:none;stroke-dashoffset:0;stroke-opacity:1"
       id="path3391"
       sodipodi:cx="28"
       sodipodi:cy="31"
       sodipodi:rx="1.8955128"
       sodipodi:ry="1.8955128"
       d="M 29.895513,31 A 1.8955128,1.8955128 0 1 1 26.104487,31 A 1.8955128,1.8955128 0 1 1 29.895513,31 z"
       transform="matrix(0.7585419,0.4379444,-0.4379444,0.7585419,54.467066,-3.7695739)" />
    <path
       d="M 29.895513,31 A 1.8955128,1.8955128 0 1 1 26.104487,31 A 1.8955128,1.8955128 0 1 1 29.895513,31 z"
       sodipodi:ry="1.8955128"
       sodipodi:rx="1.8955128"
       sodipodi:cy="31"
       sodipodi:cx="28"
       id="path3393"
       style="opacity:1;fill:none;fill-opacity:1;stroke:#0050bc;stroke-width:0.56270215;stroke-linecap:round;stroke-linejoin:round;stroke-miterlimit:4;stroke-dasharray:none;stroke-dashoffset:0;stroke-opacity:1"
       sodipodi:type="arc"
       transform="matrix(0.7695238,0.4442848,-0.4442848,0.7695238,3.9284577,59.394235)" />
    <rect
       ry="0"
       rx="0"
       y="59.343754"
       x="36.34375"
       height="4.3124967"
       width="4.3124981"
       id="rect3337"
       style="opacity:1;fill:#000000;fill-opacity:1;stroke:none;stroke-width:0.60000002;stroke-linecap:round;stroke-linejoin:round;stroke-miterlimit:4;stroke-dasharray:none;stroke-dashoffset:0;stroke-opacity:1" />
    <rect
       style="opacity:1;fill:#bc0000;fill-opacity:1;stroke:none;stroke-width:0.60000001999999997;stroke-linecap:round;stroke-linejoin:round;stroke-miterlimit:4;stroke-dasharray:none;stroke-dashoffset:0;stroke-opacity:1"
       id="rect3333"
       width="3"
       height="3"
       x="37"
       y="60.000004"
       rx="0"
       ry="0" />
    <g
       id="g3365">
      <rect
         ry="0"
         rx="0"
         y="81.34375"
         x="83.34375"
         height="3.2960308"
         width="3.2960317"
         id="rect3353"
         style="opacity:0.64851487;fill:#000000;fill-opacity:1;stroke:none;stroke-width:0.60000002;stroke-linecap:round;stroke-linejoin:round;stroke-miterlimit:4;stroke-dasharray:none;stroke-dashoffset:0;stroke-opacity:1" />
      <rect
         style="opacity:1;fill:#ffe4e4;fill-opacity:1;stroke:none;stroke-width:0.60000002;stroke-linecap:round;stroke-linejoin:round;stroke-miterlimit:4;stroke-dasharray:none;stroke-dashoffset:0;stroke-opacity:1"
         id="rect3355"
         width="2"
         height="2"
         x="84"
         y="82"
         rx="0"
         ry="0" />
    </g>
    <g
       id="g3737">
      <path
         sodipodi:nodetypes="csssssscssssssssscsssccssssscssss"
         id="path3816"
         d="M 279.55375,130.89666 C 263.16189,121.56487 235.76094,124.72041 224.36438,133.9143 C 216.78097,140.03202 213.51619,149.91723 221.11137,153.12183 C 222.63291,153.76381 224.32279,152.55615 223.75314,151.5173 C 223.19164,150.4933 224.63464,149.75909 225.59424,150.04477 C 228.23911,150.83218 229.97871,154.03061 229.35683,157.08786 C 228.89721,159.34737 226.98573,161.39289 224.57082,163.12988 C 220.11417,166.33546 214.08273,167.81758 210.71051,167.32415 C 206.80422,166.86748 205.18158,164.45336 206.93093,161.42982 C 213.15411,150.67379 203.34389,142.94225 197.51622,142.24488 C 179.40395,140.07748 176.0961,161.99052 184.78772,176.1147 C 185.43148,177.16084 186.46885,178.47384 187.15733,179.15696 C 198.12578,190.04014 211.36258,194.22403 224.0866,193.9444 C 236.43641,193.673 248.30315,189.10257 257.14393,182.09452 C 263.02926,177.42924 268.54342,165.69163 263.99117,161.35184 C 262.08849,159.53796 259.72391,161.13326 257.737,159.18437 C 256.42651,157.89895 257.77367,155.48398 258.49127,154.31544 C 261.27635,149.78322 268.95096,144.63249 275.60263,147.74021 C 278.41751,149.058 276.71918,153.10204 276.33512,155.5965 C 275.53583,160.78777 285.14453,164.17565 290.10376,158.061 C 296.54631,150.11747 291.75054,140.84735 284.29483,134.24736 C 282.84383,132.96288 281.24946,131.86202 279.55375,130.89666 z M 246.68955,167.13163 C 249.24126,170.8315 244.20709,177.79319 237.27082,180.13284 C 213.87997,188.02275 197.54803,178.30255 191.85769,169.79069 C 188.95689,165.45155 187.61837,158.68853 191.24086,155.10907 C 193.19141,153.18169 197.49485,152.67823 198.19958,154.86872 C 198.51079,155.83605 198.20567,157.53135 197.07585,157.67349 C 195.84235,157.82867 195.11065,159.45574 195.24166,161.92948 C 195.20216,166.86957 199.03002,172.85195 205.61954,174.84075 C 218.4996,178.7281 229.88706,176.09083 236.38695,167.10126 C 237.41917,165.67366 238.75398,166.58683 241.63414,166.58683 C 244.17833,166.58683 245.78004,165.81289 246.68955,167.13163 z"
         style="fill:#00508e;fill-opacity:1;fill-rule:evenodd;stroke:none;stroke-width:1px;stroke-linecap:butt;stroke-linejoin:miter;stroke-opacity:1;filter:url(#filter4063)"
         clip-path="url(#clipPath3761)"
         transform="matrix(0.7192617,0,0,0.7192617,-84.824917,-14.207387)" />
      <path
         transform="matrix(0.7192617,0,0,0.7192617,-84.824917,-14.207387)"
         clip-path="url(#clipPath3761)"
         style="fill:#00638e;fill-opacity:1;fill-rule:evenodd;stroke:none;stroke-width:1px;stroke-linecap:butt;stroke-linejoin:miter;stroke-opacity:1;filter:url(#filter3753)"
         d="M 279.55375,131.49502 C 263.16189,122.16323 235.76094,125.31877 224.36438,134.51266 C 216.78097,140.63038 213.51619,150.51559 221.11137,153.72019 C 222.63291,154.36217 224.32279,153.15451 223.75314,152.11566 C 223.19164,151.09166 224.63464,150.35745 225.59424,150.64313 C 228.23911,151.43054 229.97871,154.62897 229.35683,157.68622 C 228.89721,159.94573 226.98573,161.99125 224.57082,163.72824 C 220.11417,166.93382 214.08273,168.41594 210.71051,167.92251 C 206.80422,167.46584 205.18158,165.05172 206.93093,162.02818 C 213.15411,151.27215 203.34389,143.54061 197.51622,142.84324 C 179.40395,140.67584 176.0961,162.58888 184.78772,176.71306 C 185.43148,177.7592 186.46885,179.0722 187.15733,179.75532 C 198.12578,190.6385 211.36258,194.82239 224.0866,194.54276 C 236.43641,194.27136 248.30315,189.70093 257.14393,182.69288 C 263.02926,178.0276 268.54342,166.28999 263.99117,161.9502 C 262.08849,160.13632 259.72391,161.73162 257.737,159.78273 C 256.42651,158.49731 257.77367,156.08234 258.49127,154.9138 C 261.27635,150.38158 268.95096,145.23085 275.60263,148.33857 C 278.41751,149.65636 276.71918,153.7004 276.33512,156.19486 C 275.53583,161.38613 285.14453,164.77401 290.10376,158.65936 C 296.54631,150.71583 291.75054,141.44571 284.29483,134.84572 C 282.84383,133.56124 281.24946,132.46038 279.55375,131.49502 z M 246.68955,167.72999 C 249.24126,171.42986 244.20709,178.39155 237.27082,180.7312 C 213.87997,188.62111 197.54803,178.90091 191.85769,170.38905 C 188.95689,166.04991 187.61837,159.28689 191.24086,155.70743 C 193.19141,153.78005 197.49485,153.27659 198.19958,155.46708 C 198.51079,156.43441 198.20567,158.12971 197.07585,158.27185 C 195.84235,158.42703 195.11065,160.0541 195.24166,162.52784 C 195.20216,167.46793 199.03002,173.45031 205.61954,175.43911 C 218.4996,179.32646 229.88706,176.68919 236.38695,167.69962 C 237.41917,166.27202 238.75398,167.18519 241.63414,167.18519 C 244.17833,167.18519 245.78004,166.41125 246.68955,167.72999 z"
         id="path3700"
         sodipodi:nodetypes="csssssscssssssssscsssccssssscssss" />
      <path
         sodipodi:nodetypes="csssssscssssssssscsssccssssscssss"
         id="path3666"
         d="M 116.31295,79.94039 C 104.52292,73.228386 84.814458,75.498039 76.617354,82.110854 C 71.162888,86.511095 68.814662,93.621151 74.277589,95.926097 C 75.371964,96.387855 76.587436,95.519216 76.177711,94.772031 C 75.773841,94.035493 76.811736,93.507405 77.501943,93.712889 C 79.4043,94.279231 80.655523,96.579743 80.20823,98.778711 C 79.877644,100.4039 78.502792,101.87516 76.765845,103.1245 C 73.560344,105.43015 69.222152,106.49617 66.79665,106.14128 C 63.987,105.81281 62.819898,104.07645 64.07815,101.90169 C 68.554231,94.16531 61.498125,88.604314 57.306508,88.102708 C 44.279038,86.543792 41.899825,102.30502 48.151375,112.46399 C 48.614416,113.21643 49.360557,114.16082 49.855757,114.65217 C 57.744937,122.48002 67.265656,125.48933 76.417548,125.28821 C 85.300294,125.093 93.835602,121.80565 100.19442,116.76504 C 104.42751,113.40949 108.39362,104.96708 105.11939,101.84561 C 103.75085,100.54098 102.05008,101.6884 100.62099,100.28664 C 99.678412,99.362103 100.64738,97.62511 101.16351,96.78461 C 103.16672,93.524772 108.68678,89.820049 113.47105,92.055302 C 115.4957,93.003116 114.27415,95.911861 113.9979,97.706032 C 113.42301,101.43991 120.33418,103.87668 123.90116,99.478663 C 128.53503,93.765178 125.08563,87.097526 119.72303,82.350414 C 118.67937,81.426528 117.53261,80.634725 116.31295,79.94039 z M 92.674992,106.00279 C 94.510342,108.66399 90.889446,113.67125 85.90046,115.3541 C 69.076319,121.029 57.329379,114.03762 53.236543,107.91536 C 51.1501,104.79439 50.18736,99.930008 52.792872,97.355454 C 54.195828,95.969171 57.291132,95.607034 57.798011,97.182563 C 58.021852,97.878328 57.80239,99.097687 56.989755,99.199921 C 56.102545,99.311541 55.57627,100.48184 55.670505,102.2611 C 55.642096,105.81431 58.395317,110.11722 63.134912,111.54769 C 72.399039,114.34371 80.589605,112.44681 85.264725,105.98097 C 86.007161,104.95417 86.967237,105.61096 89.038822,105.61095 C 90.868763,105.61095 92.020812,105.0543 92.674992,106.00279 z"
         style="opacity:0.79207919000000004;fill:url(#linearGradient3698);fill-opacity:1.0;fill-rule:evenodd;stroke:none;stroke-width:1px;stroke-linecap:butt;stroke-linejoin:miter;stroke-opacity:1" />
      <path
         id="path3691"
         d="M 97.908102,75.898117 C 89.470785,76.043871 81.233327,78.382039 76.622455,82.101752 C 73.421359,84.684136 71.315863,88.207452 71.205524,91.137476 C 71.470612,88.285026 73.554316,84.936514 76.622455,82.461386 C 84.819557,75.848571 104.52667,73.59159 116.3167,80.303581 C 117.53635,80.997942 118.68953,81.78474 119.73319,82.708622 C 123.34638,85.907104 126.08283,89.974088 126.07168,94.036992 C 126.25279,89.855103 123.45329,85.642114 119.73318,82.348983 C 118.68954,81.425114 117.53634,80.638302 116.31671,79.943956 C 111.15857,77.007458 104.47047,75.784756 97.908102,75.898117 z M 54.977176,88.013182 C 48.269043,88.309225 45.037833,93.822522 44.86256,100.24062 C 45.178335,93.279873 49.17262,87.488381 57.314777,88.462711 C 60.536187,88.848207 65.448786,92.220671 65.518853,97.273681 C 65.686595,92.019631 60.612748,88.497736 57.31477,88.103099 C 56.500558,88.00565 55.708686,87.980904 54.977176,88.013182 z M 114.60846,94.553977 C 114.52163,95.623905 114.13969,96.803666 114.00159,97.700742 C 113.97161,97.895393 113.96992,98.098344 113.97909,98.285135 C 113.98469,98.213477 113.99038,98.133075 114.00158,98.060374 C 114.15596,97.057751 114.59515,95.716006 114.60846,94.553977 z M 76.127965,94.643873 C 76.084202,94.788926 76.076389,94.962355 76.172916,95.138356 C 76.202365,95.19208 76.204567,95.241285 76.217874,95.295696 C 76.275321,95.127915 76.267652,94.951511 76.172918,94.778733 C 76.147681,94.732695 76.142375,94.68815 76.127965,94.643873 z M 57.854224,97.970463 C 57.800005,98.552668 57.548445,99.137714 57.000093,99.206709 C 56.160406,99.312339 55.646986,100.37287 55.673967,101.99382 C 55.723691,100.57633 56.223782,99.663988 57.000092,99.566328 C 57.664543,99.482746 57.900975,98.65088 57.854224,97.970463 z M 80.286193,98.082862 C 80.2755,98.314159 80.265791,98.548438 80.218765,98.779634 C 79.88819,100.4048 78.494265,101.86832 76.757317,103.11766 C 73.551817,105.42335 69.225544,106.50698 66.800043,106.15205 C 64.868412,105.92625 63.710388,105.03366 63.585832,103.79199 C 63.514965,105.21321 64.692814,106.26534 66.800035,106.51168 C 69.225549,106.8666 73.551815,105.78298 76.757319,103.4773 C 78.494255,102.22798 79.888185,100.76444 80.218767,99.139262 C 80.290241,98.787855 80.297192,98.431964 80.286193,98.082862 z M 100.24572,99.476416 C 100.21275,99.918979 100.30238,100.32603 100.62782,100.64521 C 102.0569,102.04697 103.75465,100.89145 105.1232,102.19611 C 105.90749,102.94382 106.26518,104.01524 106.31446,105.23051 C 106.32759,103.86397 105.98375,102.65687 105.1232,101.83648 C 103.75465,100.53185 102.0569,101.68735 100.62782,100.28558 C 100.39214,100.05445 100.27934,99.7824 100.24572,99.476416 z M 51.246006,102.4209 C 51.353697,104.45817 52.138092,106.60697 53.246446,108.26489 C 57.339304,114.38714 69.08128,121.37967 85.905421,115.70475 C 90.063208,114.30232 93.251942,110.59843 93.143002,107.8603 C 92.977032,110.55471 89.883414,114.00333 85.905422,115.34513 C 69.081286,121.02003 57.339301,114.02751 53.246454,107.90526 C 52.20323,106.34478 51.4218,104.34892 51.246006,102.4209 z"
         style="fill:#ffffff;fill-opacity:0.57754008;fill-rule:evenodd;stroke:none;stroke-width:1px;stroke-linecap:butt;stroke-linejoin:miter;stroke-opacity:1" />
      <path
         style="fill:#ffffff;fill-opacity:0.4278075;fill-rule:evenodd;stroke:none;stroke-width:1px;stroke-linecap:butt;stroke-linejoin:miter;stroke-opacity:1"
         d="M 97.908102,75.9216 C 89.470784,76.067352 81.233326,78.405519 76.622455,82.125234 C 73.421357,84.70762 71.315868,88.230926 71.205513,91.160964 C 71.470618,88.308501 73.554315,84.959997 76.622455,82.484867 C 84.819556,75.872053 104.52667,73.615072 116.3167,80.327069 C 117.53636,81.021428 118.68954,81.808233 119.73318,82.732102 C 123.34638,85.930589 126.08283,89.997569 126.07168,94.060479 C 126.25279,89.878589 123.45328,85.665591 119.73318,82.372468 C 118.68955,81.448606 117.53635,80.661788 116.31671,79.967442 C 111.15856,77.030936 104.47047,75.808238 97.908102,75.9216 z M 54.977171,88.036668 C 48.269038,88.33271 45.037844,93.845994 44.862563,100.26412 C 45.17833,93.303359 49.172615,87.511865 57.314777,88.486192 C 60.536188,88.871689 65.448786,92.244152 65.518858,97.297148 C 65.686594,92.043111 60.612755,88.521208 57.314779,88.126572 C 56.500553,88.029135 55.708696,88.004376 54.977171,88.036668 z M 114.60845,94.577443 C 114.52162,95.647377 114.13968,96.827146 114.00158,97.724216 C 113.9716,97.918866 113.96992,98.121805 113.97908,98.308596 C 113.98469,98.236932 113.99038,98.156541 114.00158,98.083849 C 114.15595,97.081224 114.59515,95.739486 114.60845,94.577443 z M 76.127964,94.667357 C 76.084201,94.812409 76.07639,94.985826 76.17292,95.161846 C 76.202364,95.215563 76.204567,95.264769 76.217871,95.319195 C 76.27532,95.151384 76.267651,94.974994 76.172914,94.80223 C 76.147679,94.756193 76.142379,94.711639 76.127964,94.667357 z M 57.854216,97.993944 C 57.800009,98.576148 57.548449,99.161194 57.0001,99.230164 C 56.160417,99.335812 55.646997,100.39634 55.673964,102.01732 C 55.723694,100.59981 56.223787,99.687455 57.000097,99.589795 C 57.664542,99.50622 57.900979,98.67436 57.854216,97.993944 z M 80.286196,98.10632 C 80.275499,98.337643 80.265787,98.571935 80.218767,98.803105 C 79.888183,100.42829 78.494263,101.89181 76.757316,103.14116 C 73.551817,105.44681 69.225553,106.53046 66.800038,106.17555 C 64.868409,105.94974 63.710379,105.05714 63.585841,103.81547 C 63.51497,105.23668 64.692812,106.28881 66.800043,106.53518 C 69.225546,106.89009 73.551828,105.80644 76.757318,103.5008 C 78.494259,102.25145 79.888186,100.78792 80.218765,99.162747 C 80.290244,98.811326 80.297192,98.455448 80.286196,98.10632 z M 100.24571,99.499902 C 100.21274,99.942451 100.30237,100.34951 100.62782,100.6687 C 102.05689,102.07047 103.75466,100.91495 105.1232,102.21959 C 105.90748,102.96729 106.26518,104.03873 106.31446,105.25399 C 106.32759,103.88747 105.98374,102.68035 105.1232,101.85998 C 103.75466,100.55533 102.05689,101.71083 100.62782,100.30906 C 100.39215,100.07791 100.27934,99.805879 100.24571,99.499902 z M 51.246017,102.44437 C 51.353702,104.48164 52.138095,106.63045 53.246455,108.28839 C 57.339298,114.41064 69.081273,121.40315 85.905425,115.72823 C 90.063198,114.32579 93.251942,110.62193 93.143002,107.88379 C 92.977022,110.5782 89.883427,114.0268 85.905419,115.36861 C 69.081273,121.04352 57.339303,114.051 53.24645,107.92876 C 52.203225,106.36828 51.421807,104.37242 51.246017,102.44437 z"
         id="path3767" />
      <path
         id="path3769"
         d="M 109.7646,91.114207 C 106.09984,91.365968 102.62556,94.080731 101.12316,96.525619 C 100.76293,97.112196 100.19789,98.121589 100.20028,99.000578 C 100.29941,98.192105 100.80058,97.302608 101.12317,96.777304 C 103.12637,93.517449 108.62988,89.801816 113.41416,92.037076 C 114.17341,92.392515 114.47949,93.054166 114.54677,93.798939 C 114.53242,92.934148 114.26663,92.184464 113.41416,91.78539 C 112.21808,91.226575 110.98622,91.030278 109.7646,91.114207 z M 71.129739,91.49174 C 71.166992,93.401342 72.107921,95.041287 74.233951,95.938324 C 75.232847,96.359774 76.290817,95.664752 76.163599,94.973499 C 76.009857,95.554043 75.09912,96.009725 74.23395,95.644678 C 72.201293,94.787038 71.241921,93.292751 71.129739,91.49174 z M 76.918678,93.421382 C 76.407748,93.508663 75.937878,93.865798 76.079704,94.344264 C 76.175841,93.849248 76.918386,93.5526 77.464013,93.715019 C 78.89077,94.139796 79.938311,95.553587 80.190688,97.154839 C 80.024729,95.438443 78.973793,93.912815 77.464016,93.463336 C 77.291462,93.411956 77.106726,93.38927 76.918678,93.421382 z M 125.91491,94.805696 C 125.67045,96.308426 125.01789,97.781971 123.85944,99.210329 C 120.52923,103.31637 114.26428,101.46402 113.91755,98.161604 C 113.96493,101.61809 120.44597,103.67075 123.85944,99.462019 C 125.08191,97.95474 125.7043,96.393035 125.91491,94.805696 z M 55.566723,95.896366 C 54.554158,95.963256 53.457628,96.377785 52.756151,97.070921 C 51.712029,98.102666 51.259446,99.506521 51.204049,101.01411 C 51.30645,99.617349 51.779085,98.330052 52.756151,97.364568 C 54.159124,95.978302 57.241167,95.62126 57.748058,97.196788 C 57.792259,97.334214 57.823492,97.492598 57.831959,97.658227 C 57.852803,97.38944 57.817796,97.1199 57.748058,96.903154 C 57.494612,96.11539 56.579282,95.829484 55.566723,95.896366 z M 65.424696,97.532385 C 65.301394,98.810992 64.879662,100.19278 64.040383,101.64337 C 63.676877,102.27168 63.514512,102.83152 63.536997,103.36327 C 63.573633,102.91082 63.742832,102.40933 64.040385,101.89505 C 64.937463,100.34454 65.338146,98.88491 65.424696,97.532385 z M 44.827818,101.72726 C 44.994625,105.37435 46.099326,109.2153 48.099832,112.46617 C 48.562872,113.2186 49.324539,114.15614 49.81974,114.64749 C 57.708905,122.47535 67.22144,125.50363 76.373347,125.3025 C 85.2561,125.1073 93.799502,121.78555 100.15833,116.74494 C 103.13746,114.38338 105.95702,109.52698 106.2409,105.75433 C 105.84905,109.48794 103.06858,114.18631 100.15833,116.49325 C 93.799502,121.53386 85.2561,124.81365 76.373339,125.00886 C 67.22144,125.20999 57.708908,122.22367 49.819731,114.3958 C 49.324534,113.90446 48.562871,112.96691 48.09983,112.21447 C 46.146221,109.0398 45.034175,105.29657 44.827818,101.72726 z M 55.608672,102.06285 C 55.61044,102.13715 55.604621,102.19599 55.608675,102.27259 C 55.580256,105.82581 58.335957,110.11281 63.075558,111.54329 C 72.339696,114.3393 80.54942,112.42994 85.224549,105.96409 C 85.966977,104.93729 86.928356,105.6285 88.999947,105.6285 C 90.829889,105.6285 91.995322,105.05753 92.649492,106.00604 C 92.878932,106.3387 93.002092,106.70183 93.068972,107.09669 C 93.027342,106.60502 92.927832,106.15791 92.649482,105.75433 C 91.995322,104.80583 90.829893,105.33486 88.999943,105.33486 C 86.928354,105.33485 85.966985,104.68558 85.224557,105.71239 C 80.549413,112.17825 72.339693,114.08761 63.075571,111.29158 C 58.371585,109.87185 55.621919,105.60033 55.608672,102.06285 z"
         style="opacity:0.79207919;fill:#002e52;fill-opacity:0.4278075;fill-rule:evenodd;stroke:none;stroke-width:1px;stroke-linecap:butt;stroke-linejoin:miter;stroke-opacity:1" />
      <path
         id="path4069"
         d="M 97.909132,75.887408 C 89.471806,76.033157 81.243042,78.38384 76.632169,82.103548 C 73.141223,84.919763 70.91022,88.841209 71.197484,91.907291 C 71.46258,89.05484 73.564026,85.715343 76.632169,83.240212 C 84.829267,76.627399 104.51887,74.361445 116.30889,81.073438 C 117.52857,81.767787 118.67522,82.564973 119.71889,83.488854 C 123.15423,86.529908 125.79861,90.35452 126.0416,94.216144 C 126.30796,89.978381 123.48971,85.690218 119.71889,82.352191 C 118.67521,81.428296 117.52857,80.631124 116.3089,79.936775 C 111.15077,77.000282 104.47148,75.774046 97.909132,75.887408 z M 55,88 C 48.02618,88.307782 44.806058,94.260957 44.876576,101.00061 C 45.192348,94.039856 49.166691,88.268896 57.308845,89.243236 C 60.412597,89.614636 65.078609,92.771042 65.478637,97.519575 C 65.804651,92.138649 60.654705,88.506957 57.308849,88.106567 C 56.494642,88.009125 55.731529,87.967712 55,88 z M 114.56838,94.784467 C 114.45412,95.79572 114.12913,96.858873 114.00004,97.697172 C 113.94705,98.041347 113.96983,98.373964 114.03557,98.691759 C 114.23545,97.535765 114.73535,96.001459 114.56838,94.784467 z M 57.80614,98.301034 C 57.690617,98.752398 57.430262,99.133559 56.989167,99.189052 C 56.101955,99.30067 55.580666,100.46459 55.674891,102.24385 C 55.674155,102.33709 55.671839,102.43378 55.674895,102.52801 C 55.770847,101.25079 56.258351,100.41767 56.989162,100.32572 C 57.801799,100.22349 58.029989,99.032317 57.806147,98.336552 C 57.802976,98.326706 57.80951,98.310725 57.80614,98.301034 z M 80.255292,98.33655 C 80.240275,98.480273 80.248939,98.619432 80.219772,98.762798 C 79.889192,100.38799 78.511208,101.88251 76.774258,103.13186 C 73.568759,105.4375 69.218417,106.50602 66.792907,106.15113 C 65.053785,105.94781 63.926385,105.21419 63.631557,104.16196 C 63.290315,105.79342 64.485863,107.01807 66.792903,107.2878 C 69.218412,107.64269 73.568753,106.57417 76.774256,104.26852 C 78.511205,103.01918 79.889189,101.52465 80.219773,99.899463 C 80.326737,99.37358 80.328272,98.848953 80.255292,98.33655 z M 100.32454,99.7929 C 100.17497,100.40104 100.17132,100.99784 100.6087,101.42685 C 102.0378,102.82862 103.7513,101.68513 105.11984,102.98977 C 105.85955,103.69497 106.211,104.66757 106.29203,105.79592 C 106.42166,104.18859 106.09925,102.78681 105.11984,101.85311 C 103.7513,100.54846 102.0378,101.69196 100.60871,100.2902 C 100.46143,100.14574 100.3875,99.97052 100.32454,99.7929 z M 51.234795,101.9952 C 51.016277,104.3583 51.892791,107.07261 53.223954,109.06384 C 57.316812,115.18608 69.07896,122.16259 85.903095,116.48768 C 90.305153,115.00283 93.650402,110.94175 93.113812,108.17581 C 92.745002,110.82038 89.732313,114.05938 85.903099,115.35101 C 69.078954,121.02592 57.316803,114.04943 53.223965,107.92717 C 52.102378,106.24945 51.327204,104.05398 51.234795,101.9952 z"
         style="opacity:0.43564357;fill:url(#linearGradient3692);fill-opacity:1;fill-rule:evenodd;stroke:none;stroke-width:1px;stroke-linecap:butt;stroke-linejoin:miter;stroke-opacity:1" />
      <path
         id="rect3621"
         d="M 97.75 75.90625 L 97.75 77.03125 L 98.03125 77.03125 L 98 75.90625 L 97.75 75.90625 z M 109.90625 77.34375 L 109.625 78.4375 L 109.90625 78.5 L 110.15625 77.40625 L 109.90625 77.34375 z M 86 77.625 L 85.71875 77.6875 L 86.03125 78.78125 L 86.3125 78.71875 L 86 77.625 z M 116.34375 79.96875 L 115.8125 80.96875 L 116.03125 81.09375 L 116.59375 80.09375 L 116.34375 79.96875 z M 79.46875 80.21875 L 79.25 80.34375 L 79.84375 81.3125 L 80.0625 81.1875 L 79.46875 80.21875 z M 120.5625 83.09375 L 119.75 83.90625 L 119.9375 84.09375 L 120.75 83.28125 L 120.5625 83.09375 z M 74.9375 83.6875 L 74.75 83.875 L 75.5625 84.65625 L 75.75 84.46875 L 74.9375 83.6875 z M 72.375 87 L 72.25 87.21875 L 73.25 87.78125 L 73.375 87.5625 L 72.375 87 z M 124.125 87.4375 L 123.125 88.03125 L 123.28125 88.25 L 124.25 87.6875 L 124.125 87.4375 z M 71.34375 89.5625 L 71.28125 89.8125 L 72.40625 90.09375 L 72.46875 89.84375 L 71.34375 89.5625 z M 125.375 90 L 124.28125 90.3125 L 124.375 90.5625 L 125.46875 90.25 L 125.375 90 z M 72.25 91.28125 L 71.125 91.3125 L 71.125 91.5625 L 72.25 91.5625 L 72.25 91.28125 z M 124.9375 93.28125 L 124.9375 93.5625 L 126.0625 93.53125 L 126.0625 93.28125 L 124.9375 93.28125 z "
         style="opacity:1;fill:url(#linearGradient3678);fill-opacity:1;stroke:none;stroke-width:0.20000000000000001;stroke-linecap:round;stroke-linejoin:round;stroke-miterlimit:4;stroke-dasharray:none;stroke-dashoffset:0;stroke-opacity:1" />
      <path
         id="path3704"
         d="M 70.305456,120.15717 L 70.305456,122.87592 L 70.680456,122.87592 L 70.680456,121.96967 L 70.680456,120.15717 L 70.305456,120.15717 z M 70.680456,121.96967 L 71.617956,122.87592 L 72.086706,122.87592 L 71.149206,121.96967 L 71.930456,121.09467 L 71.492956,121.09467 L 70.680456,121.96967 z M 75.617956,120.15717 L 75.617956,122.78217 C 75.695008,122.81975 75.80027,122.8513 75.930456,122.87592 C 76.061977,122.90055 76.187222,122.90717 76.305456,122.90717 C 76.600377,122.90717 76.817592,122.82696 76.992956,122.65717 C 77.169642,122.4861 77.274205,122.25738 77.274206,121.96967 C 77.274206,121.70139 77.202917,121.48449 77.055456,121.31342 C 76.907992,121.14235 76.694193,121.06342 76.461706,121.06342 C 76.283694,121.06342 76.118462,121.10822 75.961706,121.21967 L 75.961706,120.15717 L 75.617956,120.15717 z M 72.742956,121.06342 C 72.478583,121.06342 72.29003,121.12018 72.149206,121.28217 L 72.149206,121.68842 C 72.336519,121.48884 72.513769,121.37592 72.711706,121.37592 C 72.932233,121.37592 73.055457,121.50453 73.055456,121.71967 L 73.055456,121.81342 L 72.586706,121.96967 C 72.433932,122.02151 72.326651,122.06776 72.242956,122.15717 C 72.160592,122.2453 72.117954,122.35691 72.117956,122.46967 C 72.117956,122.59408 72.157935,122.69923 72.242956,122.78217 C 72.327977,122.86382 72.42792,122.90717 72.555456,122.90717 C 72.729484,122.90717 72.901349,122.8363 73.055456,122.71967 C 73.083353,122.8389 73.181264,122.90717 73.336706,122.90717 C 73.391166,122.90717 73.443795,122.89535 73.492956,122.87592 C 73.543433,122.85778 73.598082,122.83401 73.680456,122.78217 L 73.680456,122.56342 C 73.587459,122.62692 73.505549,122.65717 73.461706,122.65717 C 73.419198,122.65717 73.399208,122.62432 73.399206,122.56342 L 73.399206,121.81342 C 73.399206,121.66308 73.408504,121.55405 73.399206,121.50092 C 73.391232,121.44649 73.36859,121.39782 73.336706,121.34467 C 73.304819,121.29025 73.282811,121.22082 73.242956,121.18842 C 73.123394,121.08734 72.940896,121.06342 72.742956,121.06342 z M 74.930456,121.06342 C 74.755097,121.06342 74.574562,121.19362 74.399206,121.46967 L 74.399206,121.09467 L 74.024206,121.09467 L 74.024206,122.87592 L 74.399206,122.87592 L 74.399206,121.93842 C 74.399206,121.78938 74.439183,121.67227 74.524206,121.56342 C 74.610555,121.45455 74.719798,121.37592 74.836706,121.37592 C 74.944308,121.37592 75.054245,121.44678 75.180456,121.56342 L 75.367956,121.25092 C 75.219166,121.11613 75.067287,121.06342 74.930456,121.06342 z M 80.836706,121.06342 C 80.63079,121.06342 80.43628,121.13847 80.274206,121.31342 L 80.274206,121.09467 L 79.899206,121.09467 L 79.899206,122.87592 L 80.274206,122.87592 L 80.274206,121.59467 C 80.393773,121.42751 80.540328,121.34467 80.711706,121.34467 C 80.845883,121.34467 80.935832,121.39062 80.992956,121.46967 C 81.050081,121.54743 81.086703,121.66193 81.086706,121.84467 L 81.086706,122.87592 L 81.461706,122.87592 L 81.461706,121.84467 C 81.461701,121.62695 81.419764,121.47572 81.367956,121.37592 C 81.317473,121.27484 81.24751,121.18294 81.149206,121.12592 C 81.050899,121.0676 80.950953,121.06342 80.836706,121.06342 z M 78.524206,121.09467 C 78.242571,121.09467 78.024023,121.16972 77.836706,121.34467 C 77.650719,121.51833 77.555454,121.73914 77.555456,122.00092 C 77.555456,122.26011 77.652048,122.48351 77.836706,122.65717 C 78.021368,122.82954 78.249209,122.90717 78.524206,122.90717 C 78.8085,122.90717 79.055635,122.82696 79.242956,122.65717 C 79.430269,122.4861 79.524199,122.25881 79.524206,122.00092 C 79.524199,121.73524 79.427612,121.51962 79.242956,121.34467 C 79.058294,121.16841 78.803191,121.09467 78.524206,121.09467 z M 76.367956,121.37592 C 76.52073,121.37592 76.648635,121.42071 76.742956,121.53217 C 76.838604,121.64363 76.899203,121.7921 76.899206,121.96967 C 76.899201,122.14461 76.845245,122.29571 76.742956,122.40717 C 76.641991,122.51862 76.497448,122.56342 76.336706,122.56342 C 76.206514,122.56342 76.085249,122.56846 75.961706,122.53217 L 75.961706,121.56342 C 76.101195,121.44677 76.232456,121.37592 76.367956,121.37592 z M 78.524206,121.40717 C 78.847445,121.40717 79.086706,121.67768 79.086706,122.00092 C 79.086703,122.32416 78.847442,122.56342 78.524206,122.56342 C 78.200973,122.56342 77.930456,122.32416 77.930456,122.00092 C 77.930458,121.67768 78.20097,121.40717 78.524206,121.40717 z M 78.524206,121.56342 C 78.292452,121.56342 78.086705,121.76916 78.086706,122.00092 C 78.086706,122.23267 78.29245,122.40717 78.524206,122.40717 C 78.75596,122.40717 78.930453,122.23267 78.930456,122.00092 C 78.930456,121.76917 78.755959,121.56342 78.524206,121.56342 z M 73.055456,122.00092 L 73.055456,122.53217 C 72.95715,122.62419 72.858532,122.65717 72.742956,122.65717 C 72.665903,122.65717 72.604617,122.64133 72.555456,122.59467 C 72.507633,122.54802 72.461705,122.48104 72.461706,122.40717 C 72.461706,122.3346 72.504971,122.26762 72.555456,122.21967 C 72.607264,122.17042 72.68191,122.14261 72.805456,122.09467 L 73.055456,122.00092 z"
         style="font-size:6.71751404px;font-style:normal;font-variant:normal;font-weight:normal;font-stretch:normal;text-align:justify;line-height:125%;writing-mode:lr-tb;text-anchor:start;fill:url(#linearGradient3714);fill-opacity:1;stroke:none;stroke-width:1px;stroke-linecap:butt;stroke-linejoin:miter;stroke-opacity:1;font-family:Gill Sans;-inkscape-font-specification:Gill Sans" />
    </g>
    <rect
       style="opacity:0.54455447000000001;fill:url(#linearGradient4078);fill-opacity:1;stroke:none;stroke-width:0.40000001000000002;stroke-linecap:round;stroke-linejoin:round;stroke-miterlimit:4;stroke-dasharray:none;stroke-dashoffset:0;stroke-opacity:1"
       id="rect4070"
       width="102"
       height="66"
       x="-148"
       y="-46.5"
       rx="2.3810916"
       ry="2.3810916" />
    <path
       style="opacity:0.12376236;fill:url(#linearGradient3355);fill-opacity:1;stroke:none;stroke-width:0.2;stroke-linecap:round;stroke-linejoin:round;stroke-miterlimit:4;stroke-dashoffset:0;stroke-opacity:0.58823529;overflow:visible"
       d="M 9,8 C 8.446001,8 8,8.5085 8,9.0625 L 7.9998,28.328125 C 7.9998,28.882125 8.445801,29.328124 8.9998,29.328125 L 102.9974,29.34375 C 103.5514,29.34375 103.9974,28.897749 103.9974,28.34375 L 104,15 C 104,11.43256 100.99999,8 97,8 L 9,8 z"
       id="path3353"
       sodipodi:nodetypes="ccccccccc" />
    <path
       sodipodi:type="arc"
       style="fill:url(#radialGradient2755);fill-opacity:1;stroke:none;stroke-width:0.1;stroke-linecap:round;stroke-linejoin:round;stroke-miterlimit:4;stroke-dasharray:none;stroke-dashoffset:0;stroke-opacity:1"
       id="path5049"
       sodipodi:cx="115.5"
       sodipodi:cy="10.059614"
       sodipodi:rx="0.5"
       sodipodi:ry="0.5"
       d="M 116,10.059614 A 0.5,0.5 0 1 1 115,10.059614 A 0.5,0.5 0 1 1 116,10.059614 z"
       transform="matrix(1.1856681,0,0,1.1856681,-20.923494,9.807554)" />
    <rect
       ry="0"
       rx="0"
       y="27.592575"
       x="113.057"
       height="4.8371572"
       width="5.9283404"
       id="rect4922"
       style="fill:url(#linearGradient4130);fill-opacity:1;stroke:none;stroke-width:0.1;stroke-linecap:round;stroke-linejoin:round;stroke-miterlimit:4;stroke-dasharray:none;stroke-dashoffset:0;stroke-opacity:1" />
    <rect
       style="fill:url(#linearGradient4127);fill-opacity:1;stroke:none;stroke-width:0.1;stroke-linecap:round;stroke-linejoin:round;stroke-miterlimit:4;stroke-dasharray:none;stroke-dashoffset:0;stroke-opacity:1"
       id="rect4950"
       width="5.9283404"
       height="4.8371572"
       x="113.057"
       y="27.592575"
       rx="0"
       ry="0" />
    <rect
       ry="0.18621701"
       rx="1.259078"
       transform="matrix(-0.9999999,3.5537668e-4,6.6063859e-3,0.9999782,0,0)"
       y="31.900291"
       x="-120.58328"
       height="0.52486092"
       width="9.5530415"
       id="rect4908"
       style="fill:url(#linearGradient4124);fill-opacity:1;stroke:none;stroke-width:2;stroke-linecap:round;stroke-linejoin:round;stroke-miterlimit:4;stroke-dasharray:none;stroke-dashoffset:0;stroke-opacity:1" />
    <rect
       style="fill:url(#linearGradient4121);fill-opacity:1;stroke:none;stroke-width:0.1;stroke-linecap:round;stroke-linejoin:round;stroke-miterlimit:4;stroke-dasharray:none;stroke-dashoffset:0;stroke-opacity:1"
       id="rect4926"
       width="1.1856681"
       height="5.9283404"
       x="115.42833"
       y="21.664236"
       rx="0"
       ry="0" />
    <path
       style="fill:#000000;fill-opacity:1;fill-rule:evenodd;stroke:none;stroke-width:1px;stroke-linecap:butt;stroke-linejoin:miter;stroke-opacity:1"
       d="M 121.94743,124.1475 L 122.66092,59.960762 L 109.5,59.960762 L 110.09282,124.11 L 121.94743,124.1475 z"
       id="path3783"
       sodipodi:nodetypes="ccccc" />
    <path
       sodipodi:nodetypes="ccccc"
       id="path3795"
       d="M 121.62907,124.14651 L 122.27174,59.99442 L 118.73375,59.967178 L 118.50582,124.13662 L 121.62907,124.14651 z"
       style="opacity:0.42574259;fill:url(#linearGradient4117);fill-opacity:1;fill-rule:evenodd;stroke:none;stroke-width:1px;stroke-linecap:butt;stroke-linejoin:miter;stroke-opacity:1" />
    <path
       style="font-size:6.71751404px;font-style:normal;font-variant:normal;font-weight:normal;font-stretch:normal;text-align:justify;line-height:125%;writing-mode:lr-tb;text-anchor:start;fill:url(#linearGradient4114);fill-opacity:1;stroke:none;stroke-width:1px;stroke-linecap:butt;stroke-linejoin:miter;stroke-opacity:1;font-family:Gill Sans;-inkscape-font-specification:Gill Sans"
       d="M 113.90921,62.429994 L 113.90921,63.089396 L 119.28177,63.089396 L 119.28177,62.429994 L 113.90921,62.429994 z M 115.72476,63.12603 L 113.90921,64.81117 L 113.90921,65.690373 L 115.72476,63.9686 L 117.42916,65.397306 L 117.42916,64.59137 L 115.72476,63.12603 z M 114.72435,65.727006 C 114.47853,65.727006 114.25835,65.792602 114.09447,65.946808 C 113.93315,66.101012 113.87215,66.301636 113.87215,66.532944 C 113.87215,66.848581 113.97515,67.132651 114.20562,67.412147 C 113.97003,67.462745 113.8351,67.643108 113.8351,67.925016 C 113.8351,68.023801 113.8708,68.092298 113.90921,68.18145 C 113.94505,68.273008 114.02909,68.398397 114.13151,68.547785 L 114.53909,68.547785 C 114.41361,68.379121 114.35383,68.260958 114.35383,68.18145 C 114.35383,68.104346 114.41874,68.071543 114.53909,68.071549 L 116.02118,68.071549 C 116.31822,68.071548 116.54607,68.051777 116.65106,68.034916 C 116.7586,68.020456 116.84248,67.982837 116.94748,67.925016 C 117.05501,67.867186 117.14282,67.814132 117.20685,67.741848 C 117.40658,67.524997 117.50326,67.221652 117.50326,66.862646 C 117.50326,66.383165 117.34167,66.019042 117.02159,65.763642 L 116.28055,65.763642 C 116.67488,66.103371 116.87338,66.467004 116.87338,66.826012 C 116.87338,67.22598 116.66858,67.412148 116.24348,67.412147 L 116.02118,67.412147 L 115.72476,66.569577 C 115.62231,66.292489 115.49388,66.098605 115.31718,65.946808 C 115.14305,65.797423 114.94715,65.727004 114.72435,65.727006 z M 114.65025,66.38641 C 114.70979,66.364726 114.76251,66.386409 114.83551,66.38641 C 114.97892,66.386409 115.11127,66.404749 115.20602,66.49631 C 115.30333,66.590277 115.37064,66.748465 115.46539,66.972546 L 115.65065,67.412147 L 114.61319,67.412147 C 114.43139,67.233849 114.35383,67.035631 114.35383,66.826012 C 114.35383,66.686259 114.3728,66.585458 114.46498,66.49631 C 114.51108,66.45294 114.59071,66.408094 114.65025,66.38641 z M 113.90921,69.207188 L 113.90921,69.866591 L 115.76181,69.866591 C 116.0563,69.866589 116.32481,69.932185 116.5399,70.086392 C 116.755,70.243004 116.83632,70.423863 116.83632,70.635893 C 116.83632,70.831056 116.73332,71.029766 116.50286,71.258662 L 117.13273,71.624996 C 117.39904,71.355138 117.50326,71.103867 117.50326,70.855693 C 117.50326,70.537646 117.23356,70.221274 116.68811,69.903224 L 116.65106,69.866591 L 117.42916,69.866591 L 117.42916,69.207188 L 113.90921,69.207188 z M 114.09447,72.064599 C 114.0202,72.204345 113.95785,72.377974 113.90921,72.614102 C 113.86054,72.852636 113.8351,73.095696 113.8351,73.310137 C 113.8351,73.845033 114.01835,74.27426 114.35383,74.592309 C 114.69184,74.912762 115.15626,75.068546 115.72476,75.068545 C 116.25484,75.068544 116.68356,74.933024 117.02159,74.665576 C 117.3596,74.398125 117.54031,74.061491 117.54031,73.639838 C 117.54031,73.316971 117.42705,73.008313 117.20685,72.724002 L 119.28177,72.724002 L 119.28177,72.064599 L 114.09447,72.064599 z M 114.61319,72.724002 L 116.5399,72.724002 C 116.77037,72.976991 116.87338,73.210904 116.87338,73.456671 C 116.87338,73.733756 116.76013,73.945006 116.5399,74.116074 C 116.31967,74.289554 116.03854,74.409137 115.68771,74.409141 C 115.342,74.409138 115.05573,74.301598 114.83551,74.116074 C 114.61527,73.932952 114.50204,73.711581 114.50204,73.420039 C 114.50204,73.18391 114.5415,72.948077 114.61319,72.724002 z M 115.65065,75.581414 C 115.13849,75.581413 114.69696,75.759365 114.35383,76.094282 C 114.01324,76.429195 113.8351,76.841062 113.8351,77.33982 C 113.8351,77.855438 114.01835,78.282256 114.35383,78.621992 C 114.69184,78.96172 115.10401,79.134856 115.6136,79.134861 C 116.13855,79.134857 116.60177,78.9569 116.94748,78.621992 C 117.29573,78.287075 117.46621,77.88243 117.46621,77.376453 C 117.46621,76.865649 117.29318,76.434009 116.94748,76.094282 C 116.60433,75.756958 116.16792,75.581408 115.65065,75.581414 z M 115.65065,76.27745 C 116.27559,76.27745 116.76222,76.758568 116.76222,77.376453 C 116.76222,77.994339 116.27559,78.438826 115.65065,78.438826 C 115.0257,78.438826 114.50204,77.994339 114.50204,77.376453 C 114.50204,76.758568 115.0257,76.27745 115.65065,76.27745 z M 115.65065,76.423984 C 115.12796,76.423984 114.6873,76.859675 114.6873,77.376453 C 114.6873,77.89323 115.12796,78.292283 115.65065,78.292291 C 116.17333,78.292291 116.57696,77.893227 116.57696,77.376453 C 116.57696,76.859678 116.17333,76.423986 115.65065,76.423984 z M 113.90921,79.86753 L 113.90921,80.526934 L 116.42876,80.526934 C 116.75909,80.743781 116.94747,81.022052 116.94748,81.33287 C 116.94747,81.576221 116.84431,81.74213 116.68811,81.845739 C 116.53446,81.949344 116.27108,81.992272 115.91001,81.992272 L 113.90921,81.992272 L 113.90921,82.651675 L 115.94707,82.651675 C 116.37729,82.651671 116.6762,82.599104 116.87338,82.50514 C 117.0731,82.413579 117.24239,82.280471 117.35506,82.102173 C 117.47029,81.923873 117.50326,81.759882 117.50326,81.552671 C 117.50326,81.179204 117.33022,80.820885 116.98452,80.526934 L 117.42916,80.526934 L 117.42916,79.86753 L 113.90921,79.86753 z M 113.90921,85.618987 L 113.90921,86.27839 L 116.42876,86.27839 C 116.75909,86.49524 116.94747,86.773505 116.94748,87.084327 C 116.94747,87.327677 116.84431,87.493589 116.68811,87.597196 C 116.53446,87.700798 116.27108,87.743724 115.91001,87.743729 L 113.90921,87.743729 L 113.90921,88.403131 L 115.94707,88.403131 C 116.37729,88.403129 116.6762,88.350564 116.87338,88.256598 C 117.0731,88.165036 117.24239,88.031924 117.35506,87.853629 C 117.47029,87.675328 117.50326,87.511334 117.50326,87.304126 C 117.50326,86.93066 117.33022,86.572344 116.98452,86.27839 L 117.42916,86.27839 L 117.42916,85.618987 L 113.90921,85.618987 z M 117.83672,89.86847 C 117.70613,89.899794 117.60826,89.960077 117.50326,90.051637 C 117.29584,90.237163 117.16978,90.488433 117.1698,90.820941 C 117.16978,91.160669 117.29839,91.471737 117.50326,91.736776 C 117.70813,92.001813 117.93701,92.155181 118.2443,92.213014 C 118.56696,92.273245 118.85714,92.220191 119.05945,92.029845 C 119.2643,91.841906 119.35586,91.551099 119.35587,91.187275 C 119.35586,90.857179 119.26175,90.55865 119.05945,90.308072 C 118.85714,90.057487 118.59375,89.926295 118.28136,89.86847 C 118.12514,89.839555 117.96734,89.837147 117.83672,89.86847 z M 117.98493,90.381339 C 118.06111,90.365075 118.15083,90.363267 118.2443,90.381339 C 118.43891,90.417478 118.59794,90.490792 118.72598,90.637773 C 118.85657,90.787155 118.9483,90.962702 118.9483,91.150642 C 118.9483,91.345807 118.88852,91.484222 118.76303,91.590244 C 118.64011,91.696258 118.47341,91.736278 118.28136,91.700145 C 118.08928,91.664001 117.92259,91.59068 117.79968,91.44371 C 117.67933,91.296731 117.61442,91.125999 117.61442,90.930841 C 117.61442,90.733263 117.68189,90.558207 117.79968,90.454606 C 117.85856,90.404007 117.90876,90.397603 117.98493,90.381339 z M 113.90921,95.107057 L 113.90921,95.839728 L 119.28177,96.865465 L 119.28177,96.132795 L 113.90921,95.107057 z"
       id="text5017" />
    <path
       sodipodi:nodetypes="ccccc"
       id="path3785"
       d="M 142.52797,128.53632 L 142.56692,35.112929 L 139.78311,35.073903 L 140.07058,128.52279 L 142.52797,128.53632 z"
       style="fill:url(#linearGradient4135);fill-opacity:1;fill-rule:evenodd;stroke:none;stroke-width:1px;stroke-linecap:butt;stroke-linejoin:miter;stroke-opacity:1;filter:url(#filter4838)"
       transform="matrix(1.1785971,0,0,0.851937,-53.70911,15.807079)" />
    <path
       style="opacity:0.42574259;fill:url(#linearGradient4133);fill-opacity:1;fill-rule:evenodd;stroke:none;stroke-width:1px;stroke-linecap:butt;stroke-linejoin:miter;stroke-opacity:1;filter:url(#filter4862)"
       d="M 146.60433,129.77178 L 146.91696,35.037105 L 145.77674,35.007127 L 145.81606,129.76745 L 146.60433,129.77178 z"
       id="path3805"
       sodipodi:nodetypes="ccccc"
       transform="matrix(1.1785971,0,0,0.6771854,-53.70911,36.258863)" />
    <rect
       style="fill:url(#linearGradient4111);fill-opacity:1;stroke:none;stroke-width:2;stroke-linecap:round;stroke-linejoin:round;stroke-miterlimit:4;stroke-dasharray:none;stroke-dashoffset:0;stroke-opacity:1"
       id="rect3773"
       width="11.858378"
       height="2.5310748"
       x="-122.15945"
       y="-124.99644"
       transform="matrix(-0.999999,-1.3806198e-3,1.7005404e-3,-0.9999986,0,0)"
       rx="1.5629184"
       ry="0.89800948" />
    <rect
       style="fill:url(#linearGradient4106);fill-opacity:1;stroke:none;stroke-width:0.1;stroke-linecap:round;stroke-linejoin:round;stroke-miterlimit:4;stroke-dasharray:none;stroke-dashoffset:0;stroke-opacity:1"
       id="rect4866"
       width="13.153825"
       height="16.114201"
       x="109.50977"
       y="45.335602"
       rx="0"
       ry="0" />
    <path
       sodipodi:nodetypes="ccccc"
       id="path4904"
       d="M 120.76176,32.067679 L 122.66092,45.377597 L 109.5,45.377597 L 111.27849,32.075456 L 120.76176,32.067679 z"
       style="fill:#000000;fill-opacity:1;fill-rule:evenodd;stroke:none;stroke-width:1px;stroke-linecap:butt;stroke-linejoin:miter;stroke-opacity:1" />
    <path
       style="opacity:0.42574259;fill:url(#linearGradient4102);fill-opacity:1;fill-rule:evenodd;stroke:none;stroke-width:1px;stroke-linecap:butt;stroke-linejoin:miter;stroke-opacity:1"
       d="M 120.26668,32.067888 L 122.27115,45.370617 L 118.73375,45.376267 L 117.73647,32.069938 L 120.26668,32.067888 z"
       id="path4906"
       sodipodi:nodetypes="ccccc" />
    <path
       transform="matrix(1.1785971,0,8.855453e-3,-0.1404229,-54.4389,50.292482)"
       style="fill:url(#linearGradient2753);fill-opacity:1;fill-rule:evenodd;stroke:none;stroke-width:1px;stroke-linecap:butt;stroke-linejoin:miter;stroke-opacity:1;filter:url(#filter4838)"
       d="M 142.12557,129.74935 L 142.56692,35.112929 L 139.78311,35.073903 L 140.07058,129.73582 L 142.12557,129.74935 z"
       id="path4910"
       sodipodi:nodetypes="ccccc" />
    <path
       transform="matrix(1.1785971,0,-8.8471171e-3,-0.1404229,-53.399397,50.292482)"
       sodipodi:nodetypes="ccccc"
       id="path4912"
       d="M 146.60433,129.77178 L 146.91696,35.037105 L 145.77674,35.007127 L 145.81606,129.76745 L 146.60433,129.77178 z"
       style="opacity:0.42574259;fill:url(#linearGradient2751);fill-opacity:1;fill-rule:evenodd;stroke:none;stroke-width:1px;stroke-linecap:butt;stroke-linejoin:miter;stroke-opacity:1;filter:url(#filter4862)" />
    <rect
       ry="0"
       rx="0"
       y="-29.497084"
       x="113.057"
       height="1.9045085"
       width="5.9283404"
       id="rect4960"
       style="fill:url(#linearGradient4097);fill-opacity:1;stroke:none;stroke-width:0.1;stroke-linecap:round;stroke-linejoin:round;stroke-miterlimit:4;stroke-dasharray:none;stroke-dashoffset:0;stroke-opacity:1"
       transform="scale(1,-1)" />
    <path
       style="opacity:0.42574259;fill:url(#linearGradient4094);fill-opacity:1;stroke:none;stroke-width:0.1;stroke-linecap:round;stroke-linejoin:round;stroke-miterlimit:4;stroke-dasharray:none;stroke-dashoffset:0;stroke-opacity:1"
       d="M 116.05081,48.135241 C 113.54669,48.135241 111.51435,50.171098 111.51435,52.67171 C 111.51435,55.172323 113.54668,57.208182 116.05081,57.208181 C 118.55495,57.208181 120.58728,55.172324 120.58729,52.67171 C 120.58729,50.171098 118.55494,48.135242 116.05081,48.135241 z M 116.05081,48.521872 C 118.34153,48.521871 120.20065,50.380999 120.20065,52.67171 C 120.20065,54.962421 118.34153,56.821548 116.05081,56.821548 C 113.76011,56.821547 111.90098,54.962422 111.90098,52.67171 C 111.90098,50.380998 113.76011,48.521872 116.05081,48.521872 z M 115.45283,50.609679 L 115.45283,54.733742 L 116.06476,54.733742 L 116.06476,50.609679 L 115.45283,50.609679 z"
       id="path4964"
       sodipodi:nodetypes="csssccssscccccc" />
    <path
       style="opacity:0.42574259;fill:url(#linearGradient4091);fill-opacity:1;stroke:none;stroke-width:0.1;stroke-linecap:round;stroke-linejoin:round;stroke-miterlimit:4;stroke-dasharray:none;stroke-dashoffset:0;stroke-opacity:1"
       d="M 116.05081,48.521872 C 113.76011,48.521872 111.90098,50.380998 111.90098,52.67171 C 111.90098,54.962422 113.76011,56.821547 116.05081,56.821548 C 118.34153,56.821548 120.20065,54.962421 120.20065,52.67171 C 120.20065,50.380999 118.34153,48.521871 116.05081,48.521872 z M 116.05081,48.960053 C 118.09901,48.960053 119.76247,50.626395 119.76247,52.67171 C 119.76248,54.717027 118.09901,56.383367 116.05081,56.383367 C 114.00262,56.383367 112.33917,54.717026 112.33917,52.67171 C 112.33917,50.626396 114.00262,48.960053 116.05081,48.960053 z M 116.06757,50.609679 L 116.06757,54.733742 L 116.61401,54.733742 L 116.61401,50.609679 L 116.06757,50.609679 z"
       id="path4971"
       sodipodi:nodetypes="csssccssscccccc" />
    <rect
       ry="0"
       rx="0"
       y="96.34375"
       x="37.34375"
       height="3.3844192"
       width="3.3844204"
       id="rect3357"
       style="opacity:0.64851485;fill:#000000;fill-opacity:1;stroke:none;stroke-width:0.60000001999999997;stroke-linecap:round;stroke-linejoin:round;stroke-miterlimit:4;stroke-dasharray:none;stroke-dashoffset:0;stroke-opacity:1" />
    <rect
       style="opacity:1;fill:#ffe4e4;fill-opacity:1;stroke:none;stroke-width:0.60000001999999997;stroke-linecap:round;stroke-linejoin:round;stroke-miterlimit:4;stroke-dasharray:none;stroke-dashoffset:0;stroke-opacity:1"
       id="rect3359"
       width="2"
       height="2"
       x="38"
       y="97"
       rx="0"
       ry="0" />
    <rect
       style="opacity:0.64851485;fill:#000000;fill-opacity:1;stroke:none;stroke-width:0.60000001999999997;stroke-linecap:round;stroke-linejoin:round;stroke-miterlimit:4;stroke-dasharray:none;stroke-dashoffset:0;stroke-opacity:1"
       id="rect3361"
       width="3.3844204"
       height="3.3844192"
       x="62.34375"
       y="72.34375"
       rx="0"
       ry="0" />
    <rect
       ry="0"
       rx="0"
       y="73"
       x="63"
       height="2"
       width="2"
       id="rect3363"
       style="opacity:1;fill:#ffe4e4;fill-opacity:1;stroke:none;stroke-width:0.60000001999999997;stroke-linecap:round;stroke-linejoin:round;stroke-miterlimit:4;stroke-dasharray:none;stroke-dashoffset:0;stroke-opacity:1" />
  </g>
</svg>
