<?xml version="1.0" encoding="UTF-8" standalone="no"?>
<!-- Created with Inkscape (http://www.inkscape.org/) -->

<svg
   xmlns:dc="http://purl.org/dc/elements/1.1/"
   xmlns:cc="http://creativecommons.org/ns#"
   xmlns:rdf="http://www.w3.org/1999/02/22-rdf-syntax-ns#"
   xmlns:svg="http://www.w3.org/2000/svg"
   xmlns="http://www.w3.org/2000/svg"
   xmlns:xlink="http://www.w3.org/1999/xlink"
   xmlns:sodipodi="http://sodipodi.sourceforge.net/DTD/sodipodi-0.dtd"
   xmlns:inkscape="http://www.inkscape.org/namespaces/inkscape"
   width="128"
   height="128"
   id="svg2"
   sodipodi:version="0.32"
   inkscape:version="0.46+devel"
   version="1.0"
   sodipodi:docname="network-wireless-connected-50.svgz"
   inkscape:output_extension="org.inkscape.output.svgz.inkscape"
   inkscape:export-filename="/home/pinheiro/pics/oxygen-icons/scalable/devices/network-wireless-connected-50.png"
   inkscape:export-xdpi="1080"
   inkscape:export-ydpi="1080">
  <defs
     id="defs4">
    <linearGradient
       inkscape:collect="always"
       id="linearGradient5859">
      <stop
         style="stop-color:#475259;stop-opacity:1;"
         offset="0"
         id="stop5861" />
      <stop
         style="stop-color:#475259;stop-opacity:0;"
         offset="1"
         id="stop5863" />
    </linearGradient>
    <linearGradient
       inkscape:collect="always"
       id="linearGradient5751">
      <stop
         style="stop-color:#ffffff;stop-opacity:1;"
         offset="0"
         id="stop5753" />
      <stop
         style="stop-color:#ffffff;stop-opacity:0;"
         offset="1"
         id="stop5755" />
    </linearGradient>
    <linearGradient
       inkscape:collect="always"
       id="linearGradient5735">
      <stop
         style="stop-color:#ffffff;stop-opacity:1;"
         offset="0"
         id="stop5737" />
      <stop
         style="stop-color:#ffffff;stop-opacity:0;"
         offset="1"
         id="stop5739" />
    </linearGradient>
    <linearGradient
       inkscape:collect="always"
       id="linearGradient5723">
      <stop
         style="stop-color:#ffffff;stop-opacity:1;"
         offset="0"
         id="stop5725" />
      <stop
         style="stop-color:#ffffff;stop-opacity:0;"
         offset="1"
         id="stop5727" />
    </linearGradient>
    <linearGradient
       inkscape:collect="always"
       id="linearGradient5534">
      <stop
         style="stop-color:#ffffff;stop-opacity:1;"
         offset="0"
         id="stop5536" />
      <stop
         style="stop-color:#ffffff;stop-opacity:0;"
         offset="1"
         id="stop5538" />
    </linearGradient>
    <linearGradient
       inkscape:collect="always"
       id="linearGradient5493">
      <stop
         style="stop-color:#f0eef2;stop-opacity:1"
         offset="0"
         id="stop5495" />
      <stop
         style="stop-color:#ababb8;stop-opacity:1"
         offset="1"
         id="stop5497" />
    </linearGradient>
    <linearGradient
       id="linearGradient3231">
      <stop
         style="stop-color:#fff7a4;stop-opacity:1;"
         offset="0"
         id="stop3233" />
      <stop
         style="stop-color:#ffff00;stop-opacity:0;"
         offset="1"
         id="stop3235" />
    </linearGradient>
    <linearGradient
       id="linearGradient4029">
      <stop
         id="stop4031"
         offset="0"
         style="stop-color:#a6abbc;stop-opacity:1" />
      <stop
         style="stop-color:#908e9d;stop-opacity:1"
         offset="0.1185369"
         id="stop4041" />
      <stop
         id="stop4043"
         offset="0.35540977"
         style="stop-color:#fdfafd;stop-opacity:1" />
      <stop
         style="stop-color:#e4e3e7;stop-opacity:1"
         offset="0.58570284"
         id="stop4039-5" />
      <stop
         style="stop-color:#1f2e35;stop-opacity:1;"
         offset="0.63834125"
         id="stop4037-5" />
      <stop
         id="stop4045"
         offset="0.90153337"
         style="stop-color:#c8c8c9;stop-opacity:1" />
      <stop
         id="stop4033"
         offset="1"
         style="stop-color:#e1e2e2;stop-opacity:1" />
    </linearGradient>
    <linearGradient
       id="linearGradient5180">
      <stop
         id="stop5182"
         offset="0"
         style="stop-color:#a6abbc;stop-opacity:1" />
      <stop
         style="stop-color:#908e9d;stop-opacity:1"
         offset="0.1185369"
         id="stop5184" />
      <stop
         id="stop5186"
         offset="0.35540977"
         style="stop-color:#fdfafd;stop-opacity:1" />
      <stop
         style="stop-color:#e4e3e7;stop-opacity:1"
         offset="0.58570284"
         id="stop5188" />
      <stop
         style="stop-color:#1f2e35;stop-opacity:1;"
         offset="0.63834125"
         id="stop5190" />
      <stop
         id="stop5192"
         offset="0.90153337"
         style="stop-color:#c8c8c9;stop-opacity:1" />
      <stop
         id="stop5194"
         offset="1"
         style="stop-color:#e1e2e2;stop-opacity:1" />
    </linearGradient>
    <filter
       inkscape:collect="always"
       id="filter5431">
      <feGaussianBlur
         inkscape:collect="always"
         stdDeviation="0.28065758"
         id="feGaussianBlur5433" />
    </filter>
    <filter
       inkscape:collect="always"
       id="filter5459">
      <feGaussianBlur
         inkscape:collect="always"
         stdDeviation="0.21956031"
         id="feGaussianBlur5461" />
    </filter>
    <filter
       inkscape:collect="always"
       id="filter5473"
       x="-0.039792927"
       width="1.0795859"
       y="-0.23949447"
       height="1.4789889">
      <feGaussianBlur
         inkscape:collect="always"
         stdDeviation="0.6735782"
         id="feGaussianBlur5475" />
    </filter>
    <mask
       maskUnits="userSpaceOnUse"
       id="mask5477">
      <path
         id="path5479"
         d="m 39.3125,100.91875 0,6 c 0,1.57938 9.098961,2.75 20.3125,2.75 11.213538,0 20.3125,-1.17062 20.3125,-2.75 l 0,-6 -40.625,0 z"
         style="fill:#ffffff;fill-opacity:1;stroke:#ffffff;stroke-opacity:1;filter:url(#filter5473)"
         sodipodi:nodetypes="ccsccc" />
    </mask>
    <linearGradient
       inkscape:collect="always"
       xlink:href="#linearGradient5180"
       id="linearGradient5481"
       gradientUnits="userSpaceOnUse"
       gradientTransform="translate(0,4)"
       x1="39.3125"
       y1="104.59375"
       x2="79.9375"
       y2="104.59375" />
    <linearGradient
       inkscape:collect="always"
       xlink:href="#linearGradient5180"
       id="linearGradient5483"
       gradientUnits="userSpaceOnUse"
       x1="39.3125"
       y1="104.59375"
       x2="79.9375"
       y2="104.59375"
       gradientTransform="matrix(1.2471483,0,0,1.2897234,-11.696119,-15.422403)" />
    <linearGradient
       inkscape:collect="always"
       xlink:href="#linearGradient4029"
       id="linearGradient5491"
       x1="47.977589"
       y1="60.163242"
       x2="64.090324"
       y2="60.163242"
       gradientUnits="userSpaceOnUse"
       gradientTransform="matrix(0.74475607,0,0,0.74475607,20.268389,40.256302)" />
    <linearGradient
       inkscape:collect="always"
       xlink:href="#linearGradient5493"
       id="linearGradient5499"
       x1="54.277924"
       y1="105.83116"
       x2="54.277924"
       y2="93.730415"
       gradientUnits="userSpaceOnUse"
       gradientTransform="matrix(1.0567451,0,0,1.0928203,5.5678442,5.3411797)" />
    <filter
       inkscape:collect="always"
       id="filter5526"
       x="-0.032319272"
       width="1.0646385"
       y="-0.22946699"
       height="1.458934">
      <feGaussianBlur
         inkscape:collect="always"
         stdDeviation="0.16240479"
         id="feGaussianBlur5528" />
    </filter>
    <clipPath
       clipPathUnits="userSpaceOnUse"
       id="clipPath5542">
      <path
         sodipodi:nodetypes="csszc"
         id="path5544"
         d="m 77.992261,100.45626 c 0,1.86395 -10.728263,3.25694 -23.962245,3.25694 -13.233982,0 -23.962244,-1.39299 -23.962244,-3.25694 0,-1.863935 12.410814,-3.492977 23.962244,-3.492977 11.551432,0 23.962245,1.629042 23.962245,3.492977 z"
         style="fill:url(#linearGradient5546);fill-opacity:1;stroke:none" />
    </clipPath>
    <linearGradient
       inkscape:collect="always"
       xlink:href="#linearGradient5534"
       id="linearGradient5546"
       gradientUnits="userSpaceOnUse"
       x1="51.997799"
       y1="99.062103"
       x2="51.997799"
       y2="105.50121" />
    <filter
       inkscape:collect="always"
       id="filter5548">
      <feGaussianBlur
         inkscape:collect="always"
         stdDeviation="0.092554194"
         id="feGaussianBlur5550" />
    </filter>
    <linearGradient
       inkscape:collect="always"
       xlink:href="#linearGradient4029"
       id="linearGradient5552"
       gradientUnits="userSpaceOnUse"
       gradientTransform="matrix(0.74475607,0,0,0.74475607,12.268389,25.656302)"
       x1="48.065353"
       y1="60.163242"
       x2="63.994678"
       y2="60.163242" />
    <filter
       inkscape:collect="always"
       id="filter5571"
       x="-0.20265163"
       width="1.4053033"
       y="-0.24318195"
       height="1.4863639">
      <feGaussianBlur
         inkscape:collect="always"
         stdDeviation="0.22390053"
         id="feGaussianBlur5573" />
    </filter>
    <filter
       inkscape:collect="always"
       id="filter5661">
      <feGaussianBlur
         inkscape:collect="always"
         stdDeviation="1.8194563"
         id="feGaussianBlur5663" />
    </filter>
    <filter
       inkscape:collect="always"
       id="filter5665">
      <feGaussianBlur
         inkscape:collect="always"
         stdDeviation="1.8194563"
         id="feGaussianBlur5667" />
    </filter>
    <filter
       inkscape:collect="always"
       id="filter5669"
       x="-0.11625174"
       width="1.2325035"
       y="-0.11625175"
       height="1.2325035">
      <feGaussianBlur
         inkscape:collect="always"
         stdDeviation="1.8194563"
         id="feGaussianBlur5671" />
    </filter>
    <filter
       inkscape:collect="always"
       id="filter5705">
      <feGaussianBlur
         inkscape:collect="always"
         stdDeviation="0.12895692"
         id="feGaussianBlur5707" />
    </filter>
    <linearGradient
       inkscape:collect="always"
       xlink:href="#linearGradient5723"
       id="linearGradient5729"
       x1="63.508701"
       y1="15.226612"
       x2="63.508701"
       y2="32.639488"
       gradientUnits="userSpaceOnUse" />
    <linearGradient
       inkscape:collect="always"
       xlink:href="#linearGradient5735"
       id="linearGradient5741"
       x1="61.531513"
       y1="26.72184"
       x2="61.531513"
       y2="38.500908"
       gradientUnits="userSpaceOnUse" />
    <filter
       inkscape:collect="always"
       id="filter5743">
      <feGaussianBlur
         inkscape:collect="always"
         stdDeviation="0.093052035"
         id="feGaussianBlur5745" />
    </filter>
    <linearGradient
       inkscape:collect="always"
       xlink:href="#linearGradient5751"
       id="linearGradient5757"
       x1="65.223007"
       y1="40.360008"
       x2="65.223007"
       y2="50.357944"
       gradientUnits="userSpaceOnUse" />
    <filter
       inkscape:collect="always"
       id="filter5763">
      <feGaussianBlur
         inkscape:collect="always"
         stdDeviation="0.056343607"
         id="feGaussianBlur5765" />
    </filter>
    <radialGradient
       inkscape:collect="always"
       xlink:href="#linearGradient4029"
       id="radialGradient5815"
       cx="52.197342"
       cy="61.875"
       fx="52.197342"
       fy="61.875"
       r="3.75"
       gradientTransform="matrix(1.7937448,0,0,1.9999994,-41.441211,-63.749964)"
       gradientUnits="userSpaceOnUse" />
    <filter
       inkscape:collect="always"
       id="filter5819">
      <feGaussianBlur
         inkscape:collect="always"
         stdDeviation="0.17332075"
         id="feGaussianBlur5821" />
    </filter>
    <mask
       maskUnits="userSpaceOnUse"
       id="mask5823">
      <rect
         style="fill:#ffffff;fill-opacity:1;stroke:none;filter:url(#filter5819)"
         id="rect5825"
         width="20.771261"
         height="8.485281"
         x="52.679455"
         y="51.190525"
         transform="matrix(0.625,0,0,0.625,17.1875,22.5)" />
    </mask>
    <clipPath
       clipPathUnits="userSpaceOnUse"
       id="clipPath5847">
      <path
         style="fill:url(#radialGradient5851);fill-opacity:1;stroke:none"
         mask="none"
         d="m 56,53.59375 c 0,-3.313709 2.686291,-6 6,-6 3.313709,0 6,2.686291 6,6 l -6,0 z"
         id="path5849" />
    </clipPath>
    <radialGradient
       inkscape:collect="always"
       xlink:href="#linearGradient4029"
       id="radialGradient5851"
       gradientUnits="userSpaceOnUse"
       gradientTransform="matrix(3.2,0,0,3.199999,-111.03149,-144.40619)"
       cx="52.197342"
       cy="61.875"
       fx="52.197342"
       fy="61.875"
       r="3.75" />
    <filter
       inkscape:collect="always"
       id="filter5853"
       x="-0.063981043"
       width="1.1279621"
       y="-0.12796209"
       height="1.2559242">
      <feGaussianBlur
         inkscape:collect="always"
         stdDeviation="0.31990521"
         id="feGaussianBlur5855" />
    </filter>
    <radialGradient
       inkscape:collect="always"
       xlink:href="#linearGradient3231"
       id="radialGradient3806"
       cx="145.125"
       cy="83.49929"
       fx="145.41389"
       fy="84.533798"
       r="2.875"
       gradientTransform="matrix(8.6539269,3.0221244e-7,-5.5277101e-7,15.828734,-1192.7761,-1235.5889)"
       gradientUnits="userSpaceOnUse" />
    <linearGradient
       inkscape:collect="always"
       xlink:href="#linearGradient5859"
       id="linearGradient2996"
       gradientUnits="userSpaceOnUse"
       x1="56"
       y1="83.5"
       x2="56.75"
       y2="83.5"
       gradientTransform="translate(0,2.6)" />
    <linearGradient
       id="linearGradient5180-3">
      <stop
         style="stop-color:#a6abbc;stop-opacity:1"
         offset="0"
         id="stop5182-1" />
      <stop
         id="stop5184-4"
         offset="0.1185369"
         style="stop-color:#908e9d;stop-opacity:1" />
      <stop
         style="stop-color:#fdfafd;stop-opacity:1"
         offset="0.35540977"
         id="stop5186-9" />
      <stop
         id="stop5188-2"
         offset="0.58570284"
         style="stop-color:#e4e3e7;stop-opacity:1" />
      <stop
         id="stop5190-0"
         offset="0.63834125"
         style="stop-color:#1f2e35;stop-opacity:1;" />
      <stop
         style="stop-color:#c8c8c9;stop-opacity:1"
         offset="0.90153337"
         id="stop5192-6" />
      <stop
         style="stop-color:#e1e2e2;stop-opacity:1"
         offset="1"
         id="stop5194-8" />
    </linearGradient>
    <linearGradient
       id="linearGradient4029-3">
      <stop
         style="stop-color:#a6abbc;stop-opacity:1"
         offset="0"
         id="stop4031-0" />
      <stop
         id="stop4041-7"
         offset="0.1185369"
         style="stop-color:#908e9d;stop-opacity:1" />
      <stop
         style="stop-color:#fdfafd;stop-opacity:1"
         offset="0.35540977"
         id="stop4043-8" />
      <stop
         id="stop4039-5-6"
         offset="0.58570284"
         style="stop-color:#e4e3e7;stop-opacity:1" />
      <stop
         id="stop4037-5-8"
         offset="0.63834125"
         style="stop-color:#1f2e35;stop-opacity:1;" />
      <stop
         style="stop-color:#c8c8c9;stop-opacity:1"
         offset="0.90153337"
         id="stop4045-8" />
      <stop
         style="stop-color:#e1e2e2;stop-opacity:1"
         offset="1"
         id="stop4033-4" />
    </linearGradient>
  </defs>
  <sodipodi:namedview
     id="base"
     pagecolor="#ffffff"
     bordercolor="#666666"
     borderopacity="1.0"
     gridtolerance="10000"
     guidetolerance="10"
     objecttolerance="10"
     inkscape:pageopacity="0.0"
     inkscape:pageshadow="2"
     inkscape:zoom="4"
     inkscape:cx="95.601466"
     inkscape:cy="30.789138"
     inkscape:document-units="px"
     inkscape:current-layer="layer1"
     width="128px"
     height="128px"
     showgrid="true"
     showborder="true"
     inkscape:showpageshadow="false"
     inkscape:window-width="1187"
     inkscape:window-height="988"
     inkscape:window-x="301"
     inkscape:window-y="11"
     inkscape:snap-bbox="true"
     inkscape:snap-nodes="true"
     inkscape:object-paths="true"
     inkscape:snap-global="true"
     inkscape:snap-smooth-nodes="false"
     showguides="true"
     inkscape:guide-bbox="true">
    <inkscape:grid
       id="GridFromPre046Settings"
       type="xygrid"
       originx="0px"
       originy="0px"
       spacingx="2.6666px"
       spacingy="2.6666px"
       color="#0000ff"
       empcolor="#0000ff"
       opacity="0.2"
       empopacity="0.4"
       empspacing="4"
       visible="true"
       enabled="true" />
  </sodipodi:namedview>
  <metadata
     id="metadata7">
    <rdf:RDF>
      <cc:Work
         rdf:about="">
        <dc:format>image/svg+xml</dc:format>
        <dc:type
           rdf:resource="http://purl.org/dc/dcmitype/StillImage" />
        <dc:title></dc:title>
      </cc:Work>
    </rdf:RDF>
  </metadata>
  <g
     inkscape:label="Layer 1"
     inkscape:groupmode="layer"
     id="layer1">
    <path
       sodipodi:type="inkscape:offset"
       inkscape:radius="0.061853599"
       inkscape:original="M 62 28.96875 C 44.877506 28.96875 30.96875 42.877506 30.96875 60 C 30.96875 75.046802 41.716139 87.583565 55.9375 90.40625 C 42.284386 87.600227 32 75.518386 32 61.03125 C 32 44.462588 45.431337 31.03125 62 31.03125 C 78.568662 31.03125 92 44.462588 92 61.03125 C 92 75.380149 81.895537 87.327365 68.4375 90.28125 C 77.467933 88.365986 85.088517 82.589336 89.34375 74.6875 C 91.697208 70.317203 93.03125 65.308764 93.03125 60 C 93.03125 42.877506 79.122493 28.96875 62 28.96875 z M 68.4375 90.28125 C 68.178767 90.336125 67.917316 90.389127 67.65625 90.4375 C 67.918786 90.387215 68.177451 90.338328 68.4375 90.28125 z M 67.65625 90.4375 C 65.816926 90.789799 63.942501 91 62 91 C 60.358222 91 58.788654 90.784742 57.21875 90.53125 C 58.787667 90.776014 60.362734 91.03125 62 91.03125 C 63.940061 91.03125 65.814578 90.778747 67.65625 90.4375 z "
       style="font-size:medium;font-style:normal;font-variant:normal;font-weight:normal;font-stretch:normal;text-indent:0;text-align:start;text-decoration:none;line-height:normal;letter-spacing:normal;word-spacing:normal;text-transform:none;direction:ltr;block-progression:tb;writing-mode:lr-tb;text-anchor:start;color:#000000;fill:#ecb400;fill-opacity:1;stroke:none;stroke-width:0.86933625000000003;marker:none;visibility:visible;display:inline;overflow:visible;filter:url(#filter5665);enable-background:accumulate;font-family:Bitstream Vera Sans;-inkscape-font-specification:Bitstream Vera Sans"
       id="path3814"
       d="m 62,28.90625 c -17.15599,0 -31.09375,13.93776 -31.09375,31.09375 0,15.076255 10.781422,27.640415 25.03125,30.46875 a 0.06185978,0.06185978 0 0 0 0.03125,0 0.06185978,0.06185978 0 0 0 0,-0.03125 0.06185978,0.06185978 0 0 0 0.03125,0 0.06185978,0.06185978 0 0 0 0,-0.03125 0.06185978,0.06185978 0 0 0 0,-0.03125 0.06185978,0.06185978 0 0 0 -0.03125,0 0.06185978,0.06185978 0 0 0 0,-0.03125 0.06185978,0.06185978 0 0 0 -0.03125,0 c -13.624819,-2.800208 -23.875,-14.854637 -23.875,-29.3125 0,-16.535234 13.402265,-29.9375 29.9375,-29.9375 16.535234,0 29.9375,13.402266 29.9375,29.9375 0,14.309332 -10.053289,26.228696 -23.46875,29.1875 -0.0099,0.0022 -0.02138,-0.0022 -0.03125,0 a 0.06185978,0.06185978 0 0 0 -0.03125,0 c -0.01193,0.0025 -0.01931,0.02874 -0.03125,0.03125 -0.236883,0.04985 -0.480401,0.08084 -0.71875,0.125 -1.836163,0.351694 -3.718211,0.5625 -5.65625,0.5625 -1.636371,0 -3.212311,-0.215414 -4.78125,-0.46875 l 0,0.0625 0,0.0625 c 1.568676,0.244726 3.137556,0.5 4.78125,0.5 1.945428,0 3.81256,-0.252129 5.65625,-0.59375 0.252345,-0.04833 0.498972,-0.101725 0.75,-0.15625 a 0.06185978,0.06185978 0 0 0 0.03125,0 c 0.0099,-0.0021 0.02135,0.0021 0.03125,0 0.01228,-0.0026 0.01898,-0.02862 0.03125,-0.03125 C 77.519117,88.379257 85.152819,82.617239 89.40625,74.71875 91.764435,70.339675 93.09375,65.319126 93.09375,60 93.09375,42.84401 79.155989,28.90625 62,28.90625 z"
       transform="matrix(0.98419401,0,0,0.98419401,0.97997174,3.5483598)" />
    <path
       sodipodi:type="inkscape:offset"
       inkscape:radius="0.04886426"
       inkscape:original="M 62 41.21875 C 51.637548 41.21875 43.21875 49.637549 43.21875 60 C 43.21875 70.362452 51.637548 78.78125 62 78.78125 C 52.177987 78.78125 44.21875 70.822012 44.21875 61 C 44.21875 51.177988 52.177987 43.21875 62 43.21875 C 71.822012 43.21875 79.78125 51.177988 79.78125 61 C 79.78125 70.822012 71.822012 78.78125 62 78.78125 C 72.362451 78.78125 80.78125 70.362452 80.78125 60 C 80.78125 49.637549 72.362451 41.21875 62 41.21875 z "
       style="font-size:medium;font-style:normal;font-variant:normal;font-weight:normal;font-stretch:normal;text-indent:0;text-align:start;text-decoration:none;line-height:normal;letter-spacing:normal;word-spacing:normal;text-transform:none;direction:ltr;block-progression:tb;writing-mode:lr-tb;text-anchor:start;color:#000000;fill:#ecb400;fill-opacity:1;stroke:none;stroke-width:1.41597700000000004;marker:none;visibility:visible;display:inline;overflow:visible;filter:url(#filter5669);enable-background:accumulate;font-family:Bitstream Vera Sans;-inkscape-font-specification:Bitstream Vera Sans"
       id="path3812"
       d="M 62,41.15625 C 51.611082,41.15625 43.15625,49.611083 43.15625,60 43.15625,70.388918 51.611082,78.84375 62,78.84375 72.388917,78.84375 80.84375,70.388918 80.84375,60 80.84375,49.611083 72.388917,41.15625 62,41.15625 z m -0.90625,2.125 c 0.302297,-0.01532 0.600137,0 0.90625,0 9.795614,0 17.71875,7.923136 17.71875,17.71875 0,9.795614 -7.923136,17.71875 -17.71875,17.71875 -9.795615,0 -17.71875,-7.923136 -17.71875,-17.71875 0,-9.489501 7.441295,-17.243953 16.8125,-17.71875 z"
       transform="matrix(0.90164341,0,0,0.90164341,6.0981085,8.5013952)" />
    <path
       sodipodi:type="inkscape:offset"
       inkscape:radius="-0.059080333"
       inkscape:original="M 62 28.96875 C 44.877506 28.96875 30.96875 42.877506 30.96875 60 C 30.96875 75.046802 41.716139 87.583565 55.9375 90.40625 C 42.284386 87.600227 32 75.518386 32 61.03125 C 32 44.462588 45.431337 31.03125 62 31.03125 C 78.568662 31.03125 92 44.462588 92 61.03125 C 92 75.518386 81.715614 87.600227 68.0625 90.40625 C 82.28386 87.583565 93.03125 75.046802 93.03125 60 C 93.03125 42.877506 79.122493 28.96875 62 28.96875 z M 57.21875 90.53125 C 58.787667 90.776014 60.362734 91.03125 62 91.03125 C 63.637266 91.03125 65.212333 90.776014 66.78125 90.53125 C 65.211346 90.784742 63.641778 91 62 91 C 60.358222 91 58.788654 90.784742 57.21875 90.53125 z "
       style="font-size:medium;font-style:normal;font-variant:normal;font-weight:normal;font-stretch:normal;text-indent:0;text-align:start;text-decoration:none;line-height:normal;letter-spacing:normal;word-spacing:normal;text-transform:none;direction:ltr;block-progression:tb;writing-mode:lr-tb;text-anchor:start;color:#000000;fill:#fffcd9;fill-opacity:1;stroke:none;stroke-width:0.86933625000000003;marker:none;visibility:visible;display:inline;overflow:visible;filter:url(#filter5743);enable-background:accumulate;font-family:Bitstream Vera Sans;-inkscape-font-specification:Bitstream Vera Sans"
       id="path5775"
       d="M 62,29.03125 C 44.9095,29.03125 31.03125,42.9095 31.03125,60 c 0,11.402209 6.186034,21.351529 15.375,26.71875 C 37.736787,81.447353 31.9375,71.917572 31.9375,61.03125 c 0,-16.600591 13.461908,-30.0625 30.0625,-30.0625 16.600591,0 30.0625,13.461909 30.0625,30.0625 0,10.886322 -5.799287,20.416103 -14.46875,25.6875 C 86.782716,81.351529 92.96875,71.402209 92.96875,60 92.96875,42.9095 79.090499,29.03125 62,29.03125 z"
       transform="matrix(0.98419401,0,0,0.98419401,0.97997174,3.5483598)" />
    <path
       sodipodi:type="inkscape:offset"
       inkscape:radius="-0.077318214"
       inkscape:original="M 62 41.21875 C 51.637548 41.21875 43.21875 49.637549 43.21875 60 C 43.21875 70.362452 51.637548 78.78125 62 78.78125 C 52.177987 78.78125 44.21875 70.822012 44.21875 61 C 44.21875 51.177988 52.177987 43.21875 62 43.21875 C 71.822012 43.21875 79.78125 51.177988 79.78125 61 C 79.78125 70.822012 71.822012 78.78125 62 78.78125 C 72.362451 78.78125 80.78125 70.362452 80.78125 60 C 80.78125 49.637549 72.362451 41.21875 62 41.21875 z "
       style="font-size:medium;font-style:normal;font-variant:normal;font-weight:normal;font-stretch:normal;text-indent:0;text-align:start;text-decoration:none;line-height:normal;letter-spacing:normal;word-spacing:normal;text-transform:none;direction:ltr;block-progression:tb;writing-mode:lr-tb;text-anchor:start;color:#000000;fill:#fffad9;fill-opacity:1;stroke:none;stroke-width:1.41597700000000004;marker:none;visibility:visible;display:inline;overflow:visible;filter:url(#filter5763);enable-background:accumulate;font-family:Bitstream Vera Sans;-inkscape-font-specification:Bitstream Vera Sans"
       id="path5777"
       d="m 62,41.28125 c -10.320575,0 -18.71875,8.398176 -18.71875,18.71875 0,6.582881 3.41389,12.384916 8.5625,15.71875 C 47.178636,72.497009 44.15625,67.099049 44.15625,61 c 0,-9.863782 7.979967,-17.84375 17.84375,-17.84375 9.863782,0 17.84375,7.979968 17.84375,17.84375 0,6.099049 -3.022386,11.497009 -7.6875,14.71875 C 77.30486,72.384916 80.71875,66.582881 80.71875,60 80.71875,49.679426 72.320574,41.28125 62,41.28125 z"
       transform="matrix(0.90164341,0,0,0.90164341,6.0981085,8.5013952)" />
    <path
       sodipodi:nodetypes="csszc"
       id="path3799"
       d="m 79.927862,105.21877 c 0,1.57938 -9.090369,2.7597 -20.303907,2.7597 -11.213539,0 -20.303908,-1.18032 -20.303908,-2.7597 0,-1.57937 10.516044,-2.95971 20.303908,-2.95971 9.787864,0 20.303907,1.38034 20.303907,2.95971 z"
       style="fill:#000000;fill-opacity:1;stroke:#000000;stroke-opacity:1;filter:url(#filter5459)"
       transform="matrix(1.2163428,0,0,1.2919712,-9.8593648,-15.658687)" />
    <path
       style="fill:url(#linearGradient5483);fill-opacity:1;stroke:none"
       d="m 37.332404,115.12179 0,5.15889 c 0,2.03697 11.347755,3.54675 25.332702,3.54675 13.984946,0 25.332702,-1.50978 25.332702,-3.54675 l 0,-5.15889 -50.665404,0 z"
       id="rect3801" />
    <path
       style="fill:url(#linearGradient5499);fill-opacity:1;stroke:none"
       d="m 87.985789,115.12182 c 0,2.03696 -11.33704,3.55925 -25.321987,3.55925 -13.984946,0 -25.321985,-1.52229 -25.321985,-3.55925 0,-2.03695 13.115067,-3.8172 25.321985,-3.8172 12.20692,0 25.321987,1.78025 25.321987,3.8172 z"
       id="path3796"
       sodipodi:nodetypes="csszc" />
    <path
       style="opacity:0.56521738;fill:url(#linearGradient5481);fill-opacity:1;stroke:none;filter:url(#filter5431)"
       d="m 39.3125,105.21875 0,4 c 0,1.57938 9.098961,2.75 20.3125,2.75 11.213538,0 20.3125,-1.17062 20.3125,-2.75 l 0,-4 c 0,1.57938 -9.098962,2.75 -20.3125,2.75 -11.213539,0 -20.3125,-1.17062 -20.3125,-2.75 z"
       id="path5420"
       mask="url(#mask5477)"
       transform="matrix(1.2471483,0,0,1.2897234,-11.696119,-15.422403)" />
    <path
       style="opacity:0.57004831000000000;fill:#fffad3;fill-opacity:1;stroke:none"
       d="m 37.996711,114.35 c -0.417959,0.25441 -0.660466,0.51884 -0.660466,0.78546 0,0.0122 -8.17e-4,0.022 0,0.0342 16.741903,0.59569 33.668149,0.42882 50.657722,0 8.17e-4,-0.0122 0,-0.0219 0,-0.0342 0,-0.26662 -0.242507,-0.53105 -0.660466,-0.78546 -5.769399,0.18447 -11.538798,0.33223 -17.308196,0.4138 -10.676198,0.15096 -21.352396,0.0753 -32.028594,-0.4138 z"
       id="rect5779"
       sodipodi:nodetypes="csccscsc" />
    <path
       sodipodi:nodetypes="csszc"
       id="path5506"
       d="m 60.403217,99.979128 c 0,0.469062 -3.042915,1.208412 -6.373201,1.208412 C 50.69973,101.18754 48,100.537 48,100.06794 c 0,-0.469052 3.123139,-0.578995 6.030016,-0.578995 2.906879,0 6.373201,0.02113 6.373201,0.490183 z"
       style="fill:#000000;fill-opacity:1;stroke:none;filter:url(#filter5526)"
       transform="matrix(1.0462245,0,0,1.0928203,6.1362741,5.3411797)" />
    <path
       style="fill:url(#linearGradient5491);fill-opacity:1;stroke:none"
       d="M 62.729204,56.390042 C 59.415496,56.390042 56,59.286292 56,62.6 c 0,20 0,51.36879 0,52 0,0.46864 2.723997,1 6,1 3.276004,0 7.3316,-0.51888 7.3316,-0.9996 0,-12 0,-36.0004 0,-52.0004 0,-3.313708 -3.288688,-6.209958 -6.602396,-6.209958 z"
       id="path5485"
       sodipodi:nodetypes="csssssc" />
    <path
       sodipodi:nodetypes="cssscc"
       id="path5530"
       d="M 48,119.5 C 48,139.5 47.722725,99.347914 47.722725,99.979128 47.722725,100.44777 50.723997,101 54,101 c 3.276004,0 6.33977,-0.54015 6.33977,-1.020872 C 60.33977,87.979128 60,135.5 60,119.5 l -12,0 z"
       style="opacity:0.77294683;fill:url(#linearGradient5552);fill-opacity:1;stroke:none;filter:url(#filter5548)"
       clip-path="url(#clipPath5542)"
       transform="matrix(1.0567451,0,0,1.0928203,5.5678442,5.3411797)" />
    <path
       sodipodi:type="inkscape:offset"
       inkscape:radius="-0.10409132"
       inkscape:original="M 62 28.96875 C 44.877506 28.96875 30.96875 42.877506 30.96875 60 C 30.96875 75.046802 41.716139 87.583565 55.9375 90.40625 C 42.284386 87.600227 32 75.518386 32 61.03125 C 32 44.462588 45.431337 31.03125 62 31.03125 C 78.568662 31.03125 92 44.462588 92 61.03125 C 92 75.518386 81.715614 87.600227 68.0625 90.40625 C 82.28386 87.583565 93.03125 75.046802 93.03125 60 C 93.03125 42.877506 79.122493 28.96875 62 28.96875 z M 57.21875 90.53125 C 58.787667 90.776014 60.362734 91.03125 62 91.03125 C 63.637266 91.03125 65.212333 90.776014 66.78125 90.53125 C 65.211346 90.784742 63.641778 91 62 91 C 60.358222 91 58.788654 90.784742 57.21875 90.53125 z "
       style="font-size:medium;font-style:normal;font-variant:normal;font-weight:normal;font-stretch:normal;text-indent:0;text-align:start;text-decoration:none;line-height:normal;letter-spacing:normal;word-spacing:normal;text-transform:none;direction:ltr;block-progression:tb;writing-mode:lr-tb;text-anchor:start;color:#000000;fill:url(#linearGradient5741);fill-opacity:1;stroke:none;stroke-width:0.86933625;marker:none;visibility:visible;display:inline;overflow:visible;enable-background:accumulate;font-family:Bitstream Vera Sans;-inkscape-font-specification:Bitstream Vera Sans"
       id="path5733"
       d="m 62,29.0625 c -17.066124,0 -30.9375,13.871376 -30.9375,30.9375 0,9.57189 4.376816,18.114961 11.21875,23.78125 -6.368315,-5.51724 -10.375,-13.664751 -10.375,-22.75 0,-16.624916 13.468833,-30.09375 30.09375,-30.09375 16.624916,0 30.09375,13.468834 30.09375,30.09375 0,9.085249 -4.006685,17.23276 -10.375,22.75 C 88.560684,78.114961 92.9375,69.57189 92.9375,60 92.9375,42.933876 79.066123,29.0625 62,29.0625 z"
       transform="matrix(0.98419401,0,0,0.98419401,0.97997174,3.5483598)" />
    <path
       sodipodi:type="inkscape:offset"
       inkscape:radius="-0.095196083"
       inkscape:original="M 62 41.21875 C 51.637548 41.21875 43.21875 49.637549 43.21875 60 C 43.21875 70.362452 51.637548 78.78125 62 78.78125 C 52.177987 78.78125 44.21875 70.822012 44.21875 61 C 44.21875 51.177988 52.177987 43.21875 62 43.21875 C 71.822012 43.21875 79.78125 51.177988 79.78125 61 C 79.78125 70.822012 71.822012 78.78125 62 78.78125 C 72.362451 78.78125 80.78125 70.362452 80.78125 60 C 80.78125 49.637549 72.362451 41.21875 62 41.21875 z "
       style="font-size:medium;font-style:normal;font-variant:normal;font-weight:normal;font-stretch:normal;text-indent:0;text-align:start;text-decoration:none;line-height:normal;letter-spacing:normal;word-spacing:normal;text-transform:none;direction:ltr;block-progression:tb;writing-mode:lr-tb;text-anchor:start;color:#000000;fill:url(#linearGradient5757);fill-opacity:1;stroke:none;stroke-width:1.415977;marker:none;visibility:visible;display:inline;overflow:visible;enable-background:accumulate;font-family:Bitstream Vera Sans;-inkscape-font-specification:Bitstream Vera Sans"
       id="path5749"
       d="m 62,41.3125 c -10.310892,0 -18.6875,8.376609 -18.6875,18.6875 0,6.022852 2.880661,11.362759 7.3125,14.78125 -3.972936,-3.27871 -6.5,-8.22744 -6.5,-13.78125 0,-9.87344 8.001559,-17.875 17.875,-17.875 9.87344,0 17.875,8.00156 17.875,17.875 0,5.55381 -2.527064,10.50254 -6.5,13.78125 C 77.806839,71.362759 80.6875,66.022852 80.6875,60 80.6875,49.689109 72.310891,41.3125 62,41.3125 z"
       transform="matrix(0.90164341,0,0,0.90164341,6.0981085,8.5013952)" />
    <path
       sodipodi:nodetypes="csssssc"
       id="path5857"
       d="M 62.657636,56.386889 C 59.343928,56.386889 56,59.286292 56,62.6 c 0,20 0,51.36879 0,52 0,0.46864 2.723997,1 6,1 3.276004,0 7.3316,-0.51888 7.3316,-0.9996 0,-12 0,-36.0004 0,-52.0004 0,-3.313708 -3.360256,-6.213111 -6.673964,-6.213111 z"
       style="fill:url(#linearGradient2996);fill-opacity:1;stroke:none" />
    <path
       sodipodi:type="arc"
       style="fill:url(#radialGradient5815);fill-opacity:1;stroke:none"
       id="path5807"
       sodipodi:cx="55.9375"
       sodipodi:cy="60"
       sodipodi:rx="3.75"
       sodipodi:ry="3.75"
       d="m 52.1875,60 a 3.75,3.75 0 0 1 7.5,0 l -3.75,0 z"
       transform="matrix(1.7777329,0,0,1.7774931,-36.776838,-43.594247)"
       sodipodi:start="3.1415927"
       sodipodi:end="6.2831853"
       mask="url(#mask5823)" />
    <path
       sodipodi:type="arc"
       style="opacity:0.57004831000000000;fill:#ebffca;fill-opacity:1;stroke:none;filter:url(#filter5571)"
       id="path5565"
       sodipodi:cx="64.435104"
       sodipodi:cy="44.428818"
       sodipodi:rx="1.3258252"
       sodipodi:ry="1.1048543"
       d="m 65.76093,44.428818 a 1.3258252,1.1048543 0 1 1 -2.651651,0 1.3258252,1.1048543 0 1 1 2.651651,0 z"
       transform="matrix(0.85921158,0,0,0.94856956,9.0847284,17.076823)" />
    <path
       transform="matrix(0.48451757,0,0,0.43149185,33.228175,39.554069)"
       d="m 65.76093,44.428818 a 1.3258252,1.1048543 0 1 1 -2.651651,0 1.3258252,1.1048543 0 1 1 2.651651,0 z"
       sodipodi:ry="1.1048543"
       sodipodi:rx="1.3258252"
       sodipodi:cy="44.428818"
       sodipodi:cx="64.435104"
       id="path5805"
       style="fill:#f2ffe2;fill-opacity:1;stroke:none;filter:url(#filter5571)"
       sodipodi:type="arc" />
    <path
       style="fill:#39464d;fill-opacity:1;stroke:none;filter:url(#filter5853)"
       mask="none"
       d="m 62,47.19375 c -3.313709,0 -6,2.686291 -6,6 l 0.03125,0 c 0.250453,-3.083385 2.82083,-5.3 5.96875,-5.3 3.14792,0 5.718297,2.216615 5.96875,5.3 l 0.03125,0 c 0,-3.313709 -2.686291,-6 -6,-6 z"
       id="path5834"
       clip-path="url(#clipPath5847)"
       transform="matrix(1.1110835,0,0,1.1110835,-6.2220769,3.5062544)"
       sodipodi:nodetypes="cccsccc" />
    <path
       style="opacity:0.66183572999999996;fill:url(#radialGradient3806);fill-opacity:1.0;stroke:none"
       d="m 62.25,56.6 c 2.64231,0.160101 3.415,4.124442 3.415,7.335 0,16 0,38.6654 0,50.6654 0,0.46525 -2.80333,0.96781 -5.415,0.9996 0.08723,9e-4 0.16185,0 0.25,0 3.003,0 6.165,-0.51888 6.165,-0.9996 0,-12 0,-34.6654 0,-50.6654 0,-3.313708 -1.12743,-7.335 -4.165,-7.335 -0.08412,0 -0.1668,-0.0041 -0.25,0 z"
       id="path3793"
       sodipodi:nodetypes="csssssssc" />
  </g>
</svg>
