<?xml version="1.0" encoding="UTF-8" standalone="no"?>
<!-- Created with Inkscape (http://www.inkscape.org/) -->
<svg
   xmlns:dc="http://purl.org/dc/elements/1.1/"
   xmlns:cc="http://creativecommons.org/ns#"
   xmlns:rdf="http://www.w3.org/1999/02/22-rdf-syntax-ns#"
   xmlns:svg="http://www.w3.org/2000/svg"
   xmlns="http://www.w3.org/2000/svg"
   xmlns:xlink="http://www.w3.org/1999/xlink"
   xmlns:sodipodi="http://sodipodi.sourceforge.net/DTD/sodipodi-0.dtd"
   xmlns:inkscape="http://www.inkscape.org/namespaces/inkscape"
   width="128"
   height="128"
   id="svg3408"
   sodipodi:version="0.32"
   inkscape:version="0.46"
   version="1.0"
   sodipodi:docbase="/home/pinheiro/artwork/Oxygen/scribus/scalable/small/16x16"
   sodipodi:docname="office-chart-ring.svgz"
   inkscape:output_extension="org.inkscape.output.svgz.inkscape"
   inkscape:export-filename="/home/pinheiro/pics/oxygen/scalable/actions/office-chart-ring.png"
   inkscape:export-xdpi="67.5"
   inkscape:export-ydpi="67.5">
  <defs
     id="defs3410">
    <linearGradient
       id="linearGradient4670">
      <stop
         style="stop-color:#b900c4;stop-opacity:1;"
         offset="0"
         id="stop4672" />
      <stop
         style="stop-color:#c69ac8;stop-opacity:1"
         offset="1"
         id="stop4674" />
    </linearGradient>
    <linearGradient
       inkscape:collect="always"
       id="linearGradient4660">
      <stop
         style="stop-color:#ffffff;stop-opacity:1;"
         offset="0"
         id="stop4662" />
      <stop
         style="stop-color:#ffffff;stop-opacity:0;"
         offset="1"
         id="stop4664" />
    </linearGradient>
    <linearGradient
       id="linearGradient3051">
      <stop
         style="stop-color:#0968ef;stop-opacity:1;"
         offset="0"
         id="stop3053" />
      <stop
         style="stop-color:#aecffc;stop-opacity:1;"
         offset="1"
         id="stop3055" />
    </linearGradient>
    <linearGradient
       id="linearGradient2468">
      <stop
         id="stop2470"
         offset="0"
         style="stop-color:#0968ef;stop-opacity:1;" />
      <stop
         id="stop2472"
         offset="1"
         style="stop-color:#aecffc;stop-opacity:1;" />
    </linearGradient>
    <linearGradient
       id="linearGradient2462">
      <stop
         id="stop2464"
         offset="0"
         style="stop-color:#b900c4;stop-opacity:1;" />
      <stop
         id="stop2466"
         offset="1"
         style="stop-color:#ae4300;stop-opacity:1;" />
    </linearGradient>
    <linearGradient
       id="linearGradient3195">
      <stop
         style="stop-color:#99c2fc;stop-opacity:1;"
         offset="0"
         id="stop3197" />
      <stop
         style="stop-color:#dceafe;stop-opacity:1;"
         offset="1"
         id="stop3199" />
    </linearGradient>
    <linearGradient
       id="linearGradient3201">
      <stop
         style="stop-color:#fbaeff;stop-opacity:1;"
         offset="0"
         id="stop3203" />
      <stop
         style="stop-color:#ffd7d7;stop-opacity:1;"
         offset="1"
         id="stop3205" />
    </linearGradient>
    <linearGradient
       inkscape:collect="always"
       xlink:href="#linearGradient3201"
       id="linearGradient3318"
       gradientUnits="userSpaceOnUse"
       gradientTransform="matrix(1.0714286,0,0,1.0714286,-4.5714286,-4.5714286)"
       x1="69.641289"
       y1="13.641287"
       x2="69.641289"
       y2="120.14951" />
    <linearGradient
       id="linearGradient2431">
      <stop
         style="stop-color:#cccccc;stop-opacity:1;"
         offset="0"
         id="stop2433" />
      <stop
         style="stop-color:#dfdfdf;stop-opacity:1;"
         offset="1"
         id="stop2441" />
    </linearGradient>
    <linearGradient
       id="XMLID_4_"
       gradientUnits="userSpaceOnUse"
       x1="100.936"
       y1="59.9995"
       x2="46.590199"
       y2="59.9995">
      <stop
         offset="0"
         style="stop-color:#A4C0E4"
         id="stop227" />
      <stop
         offset="1"
         style="stop-color:#FFFFFF"
         id="stop229" />
    </linearGradient>
    <linearGradient
       id="linearGradient3954">
      <stop
         style="stop-color:#b3b3b3;stop-opacity:1;"
         offset="0"
         id="stop3956" />
      <stop
         id="stop3962"
         offset="0.52879584"
         style="stop-color:#ffffff;stop-opacity:1;" />
      <stop
         style="stop-color:#c5c5c5;stop-opacity:1;"
         offset="1"
         id="stop3958" />
    </linearGradient>
    <linearGradient
       id="linearGradient4197">
      <stop
         style="stop-color:#bfbfbf;stop-opacity:1;"
         offset="0"
         id="stop4199" />
      <stop
         style="stop-color:#8b939b;stop-opacity:1;"
         offset="1"
         id="stop4201" />
    </linearGradient>
    <linearGradient
       inkscape:collect="always"
       xlink:href="#linearGradient4660"
       id="linearGradient4678"
       gradientUnits="userSpaceOnUse"
       x1="60"
       y1="8"
       x2="84"
       y2="84" />
    <linearGradient
       inkscape:collect="always"
       xlink:href="#linearGradient3201"
       id="linearGradient4684"
       gradientUnits="userSpaceOnUse"
       gradientTransform="matrix(1.0714286,0,0,1.0714286,-4.5714286,-4.5714286)"
       x1="69.641289"
       y1="13.641287"
       x2="69.641289"
       y2="120.14951" />
    <linearGradient
       inkscape:collect="always"
       xlink:href="#linearGradient4670"
       id="linearGradient4688"
       gradientUnits="userSpaceOnUse"
       gradientTransform="matrix(1.0714286,0,0,1.0714286,-4.5714286,-4.5714286)"
       x1="56.533333"
       y1="123.94057"
       x2="56.533333"
       y2="11.733333" />
    <linearGradient
       inkscape:collect="always"
       xlink:href="#linearGradient4197"
       id="linearGradient4704"
       gradientUnits="userSpaceOnUse"
       gradientTransform="matrix(1.0714286,0,0,1.0714286,-4.5714286,-4.5714286)"
       x1="69.641289"
       y1="13.641287"
       x2="69.641289"
       y2="120.14951" />
    <linearGradient
       inkscape:collect="always"
       xlink:href="#linearGradient4197"
       id="linearGradient4714"
       gradientUnits="userSpaceOnUse"
       gradientTransform="matrix(1.125,0,0,1.125,-12.5,-8)"
       x1="60.413113"
       y1="35.554108"
       x2="60.413113"
       y2="113.78622" />
    <linearGradient
       inkscape:collect="always"
       xlink:href="#linearGradient3954"
       id="linearGradient4725"
       gradientUnits="userSpaceOnUse"
       gradientTransform="matrix(1.125,0,0,1.125,-12.5,-8)"
       x1="107.11111"
       y1="85.333336"
       x2="60.413113"
       y2="21.715252" />
    <linearGradient
       inkscape:collect="always"
       xlink:href="#linearGradient2468"
       id="linearGradient4732"
       gradientUnits="userSpaceOnUse"
       gradientTransform="matrix(1.125,0,0,1.125,-12.5,-8)"
       x1="60.413113"
       y1="100.36678"
       x2="60.413113"
       y2="21.715252" />
    <linearGradient
       inkscape:collect="always"
       xlink:href="#linearGradient3195"
       id="linearGradient4750"
       gradientUnits="userSpaceOnUse"
       gradientTransform="matrix(1.125,0,0,1.125,-12.5,-8)"
       x1="60.413113"
       y1="100.36678"
       x2="60.413113"
       y2="21.715252" />
  </defs>
  <sodipodi:namedview
     id="base"
     pagecolor="#ffffff"
     bordercolor="#666666"
     borderopacity="1.0"
     inkscape:pageopacity="0.0"
     inkscape:pageshadow="2"
     inkscape:zoom="2.8284271"
     inkscape:cx="133.02111"
     inkscape:cy="59.201711"
     inkscape:document-units="px"
     inkscape:current-layer="layer1"
     height="128px"
     width="128px"
     showborder="true"
     inkscape:showpageshadow="false"
     showgrid="true"
     inkscape:window-width="1232"
     inkscape:window-height="782"
     inkscape:window-x="266"
     inkscape:window-y="261"
     showguides="true"
     inkscape:guide-bbox="true"
     objecttolerance="8"
     gridtolerance="9"
     guidetolerance="10">
    <inkscape:grid
       id="GridFromPre046Settings"
       type="xygrid"
       originx="0px"
       originy="0px"
       spacingx="2.6666px"
       spacingy="2.6666px"
       color="#0000ff"
       empcolor="#0000ff"
       opacity="0.2"
       empopacity="0.4"
       empspacing="2"
       enabled="true"
       visible="true" />
  </sodipodi:namedview>
  <metadata
     id="metadata3413">
    <rdf:RDF>
      <cc:Work
         rdf:about="">
        <dc:format>image/svg+xml</dc:format>
        <dc:type
           rdf:resource="http://purl.org/dc/dcmitype/StillImage" />
      </cc:Work>
    </rdf:RDF>
  </metadata>
  <g
     inkscape:label="Livello 1"
     inkscape:groupmode="layer"
     id="layer1">
    <path
       sodipodi:type="inkscape:offset"
       inkscape:radius="-1.3533422"
       inkscape:original="M 55.84375 4.53125 C 55.687031 4.5326832 55.530523 4.543117 55.375 4.5625 C 26.293587 8.74658 3.9375 33.778822 3.9375 64 C 3.9375 83.109411 12.941133 100.1049 26.84375 111.09375 C 27.774408 111.82448 28.962694 112.12793 30.125 111.90625 C 31.287304 111.68458 32.309871 110.95947 32.90625 109.9375 L 36.9375 102.96875 C 37.953561 101.24185 37.57003 99.033245 36.03125 97.75 C 26.305237 89.674183 20.0625 77.586908 20.0625 64 C 20.0625 42.285134 35.920854 24.438907 56.65625 20.90625 C 58.622118 20.57174 60.060762 18.869124 60.0625 16.875 L 60.0625 8.625 C 60.063279 7.5171793 59.607538 6.4589808 58.8125 5.6875 C 58.017464 4.9160192 56.951046 4.4971614 55.84375 4.53125 z M 39.78125 113.875 C 39.175998 114.90238 39.053229 116.15245 39.4375 117.28125 L 39.78125 113.875 z "
       style="fill:url(#linearGradient4688);fill-opacity:1;stroke:none;stroke-width:6.1420002;stroke-linecap:square;stroke-linejoin:miter;stroke-miterlimit:4;stroke-dashoffset:0;stroke-opacity:1"
       id="path4686"
       d="M 55.84375,5.875 C 55.738852,5.8759593 55.635347,5.8932763 55.53125,5.90625 C 27.10617,9.9959003 5.28125,34.446244 5.28125,64 C 5.28125,82.684315 14.094443,99.287081 27.6875,110.03125 C 28.321195,110.52881 29.102695,110.7098 29.875,110.5625 C 30.647297,110.41521 31.352586,109.93102 31.75,109.25 L 35.78125,102.28125 C 36.466078,101.11731 36.193392,99.646161 35.15625,98.78125 C 25.138597,90.463275 18.71875,78.001452 18.71875,64 C 18.71875,41.626237 35.070829,23.202706 56.4375,19.5625 C 57.762348,19.337065 58.717579,18.218891 58.71875,16.875 L 58.71875,8.625 C 58.719268,7.8889483 58.411671,7.1770197 57.875,6.65625 C 57.338332,6.135482 56.614782,5.8522255 55.875,5.875 C 55.864584,5.8751203 55.854166,5.8751203 55.84375,5.875 z" />
    <path
       sodipodi:type="inkscape:offset"
       inkscape:radius="-1.3236526"
       inkscape:original="M 71.8125 4.65625 C 69.637223 4.7721754 67.933914 6.5716392 67.9375 8.75 L 67.9375 16.78125 C 67.939238 18.775374 69.377882 20.47799 71.34375 20.8125 C 85.846716 23.266461 97.872475 32.753322 103.84375 45.71875 C 104.68576 47.522753 106.70374 48.4592 108.625 47.9375 L 116.3125 45.875 C 117.45581 45.564084 118.42206 44.785591 118.9375 43.71875 C 119.45294 42.651909 119.46698 41.401423 119 40.3125 C 110.88729 21.519229 93.568396 7.7149641 72.625 4.6875 C 72.355875 4.6501398 72.083699 4.6396715 71.8125 4.65625 z M 64 28.03125 C 60.581841 28.03125 57.435225 28.663092 54.53125 29.46875 C 53.340152 29.797828 52.37675 30.669856 51.90625 31.8125 C 51.435749 32.955144 51.510967 34.240133 52.125 35.3125 L 56.21875 42.375 C 57.064 43.841832 58.741064 44.617787 60.40625 44.3125 C 61.593737 44.093697 62.792893 43.96875 64 43.96875 C 75.049253 43.96875 84.03125 52.950747 84.03125 64 C 84.03125 68.904389 82.195789 73.339112 79.1875 76.875 C 78.084205 78.159363 77.908981 79.999214 78.75 81.46875 L 82.84375 88.5625 C 83.463513 89.637501 84.551436 90.366051 85.78125 90.53125 C 87.011065 90.696447 88.24352 90.279592 89.125 89.40625 C 95.667983 82.949425 99.96875 74.041418 99.96875 64 C 99.96875 44.16145 83.83855 28.03125 64 28.03125 z M 100.59375 90.5 C 99.485764 90.583278 98.459252 91.113454 97.75 91.96875 C 89.674183 101.69476 77.586908 107.9375 64 107.9375 C 58.661082 107.9375 53.568447 106.90534 48.78125 105.125 C 46.912227 104.42876 44.813492 105.18114 43.8125 106.90625 L 39.78125 113.875 C 39.175998 114.90238 39.053229 116.15245 39.4375 117.28125 C 39.821769 118.41004 40.674866 119.3053 41.78125 119.75 C 48.634015 122.49009 56.120955 124.0625 64 124.0625 C 83.109412 124.0625 100.1049 115.05886 111.09375 101.15625 C 111.82448 100.22559 112.12793 99.037306 111.90625 97.875 C 111.68458 96.712694 110.95947 95.690129 109.9375 95.09375 L 102.96875 91.0625 C 102.25272 90.637819 101.4242 90.441592 100.59375 90.5 z "
       style="fill:url(#linearGradient4732);fill-opacity:1;stroke:none;stroke-width:6.1420002;stroke-linecap:square;stroke-linejoin:miter;stroke-miterlimit:4;stroke-dashoffset:0;stroke-opacity:1"
       id="path4730"
       d="M 71.875,5.96875 C 70.389938,6.0478923 69.247552,7.2628321 69.25,8.75 L 69.25,16.78125 C 69.251184,18.139406 70.223589,19.272172 71.5625,19.5 C 86.500089,22.027501 98.880131,31.800326 105.03125,45.15625 C 105.6047,46.384869 106.97277,47.011555 108.28125,46.65625 L 115.96875,44.59375 C 116.75441,44.380095 117.40672,43.866759 117.75,43.15625 C 118.09328,42.445743 118.09977,41.586485 117.78125,40.84375 C 109.84674,22.463274 92.919291,8.960737 72.4375,6 C 72.255412,5.9747223 72.089741,5.9575331 71.90625,5.96875 C 71.895834,5.968873 71.885416,5.968873 71.875,5.96875 L 71.875,5.96875 z M 64,29.34375 C 60.744958,29.34375 57.713415,29.962531 54.875,30.75 C 54.085866,30.968023 53.443561,31.53885 53.125,32.3125 C 52.806438,33.086151 52.870626,33.939122 53.28125,34.65625 L 57.375,41.71875 C 57.942916,42.704301 59.037426,43.20512 60.15625,43 C 61.411595,42.768694 62.701553,42.65625 64,42.65625 C 75.766589,42.65625 85.34375,52.233411 85.34375,64 C 85.34375,69.234639 83.377555,73.969218 80.1875,77.71875 C 80.187623,77.729166 80.187623,77.739584 80.1875,77.75 C 79.446204,78.612954 79.341176,79.82513 79.90625,80.8125 L 84,87.90625 C 84.414241,88.624766 85.145775,89.108201 85.96875,89.21875 C 86.791729,89.329298 87.594633,89.056144 88.1875,88.46875 C 94.50366,82.235761 98.65625,73.663469 98.65625,64 C 98.65625,44.878935 83.121065,29.34375 64,29.34375 z M 100.6875,91.8125 C 99.937279,91.868888 99.261487,92.233376 98.78125,92.8125 C 90.468588,102.82375 77.992358,109.25 64,109.25 C 58.490483,109.25 53.230496,108.20398 48.3125,106.375 C 47.039544,105.9008 45.650508,106.38756 44.96875,107.5625 L 40.9375,114.53125 C 40.927084,114.53137 40.916666,114.53137 40.90625,114.53125 C 40.499613,115.22149 40.427021,116.07859 40.6875,116.84375 C 40.947975,117.60889 41.526786,118.228 42.28125,118.53125 C 48.987504,121.21276 56.297061,122.75 64,122.75 C 82.693642,122.75 99.312963,113.94359 110.0625,100.34375 C 110.56518,99.703536 110.74268,98.905861 110.59375,98.125 C 110.44483,97.344145 109.96975,96.65178 109.28125,96.25 L 102.3125,92.21875 C 102.30191,92.208508 102.29149,92.19809 102.28125,92.1875 C 101.79668,91.900098 101.24951,91.772972 100.6875,91.8125 z" />
    <path
       style="fill:url(#linearGradient3318);fill-opacity:1;stroke:none;stroke-width:6.1420002;stroke-linecap:square;stroke-linejoin:miter;stroke-miterlimit:4;stroke-dashoffset:0;stroke-opacity:1"
       d="M 55.96875,8.625 C 28.866267,12.524362 8.03125,35.79413 8.03125,64 C 8.03125,81.828049 16.404394,97.622823 29.375,107.875 L 33.40625,100.90625 C 22.79225,92.093109 15.96875,78.841271 15.96875,64 C 15.96875,40.288881 33.317992,20.733974 55.96875,16.875 L 55.96875,8.625 z M 72.03125,8.75 L 72.03125,16.78125 C 87.87706,19.462426 101.03427,29.825256 107.5625,44 L 115.25,41.9375 C 107.68843,24.420955 91.549544,11.571459 72.03125,8.75 z M 119.53125,57.4375 L 111.625,59.5625 C 111.7688,61.037215 112.03125,62.475421 112.03125,64 C 112.03125,69.864314 110.90193,75.458076 108.96875,80.65625 L 115.9375,84.6875 C 118.49917,78.280947 119.96875,71.332225 119.96875,64 C 119.96875,61.773053 119.78339,59.593973 119.53125,57.4375 z M 100.90625,94.59375 C 92.093109,105.20775 78.841271,112.03125 64,112.03125 C 58.135686,112.03125 52.541924,110.90193 47.34375,108.96875 L 43.3125,115.9375 C 49.719053,118.49917 56.667775,119.96875 64,119.96875 C 81.828049,119.96875 97.622823,111.5956 107.875,98.625 L 100.90625,94.59375 z"
       id="path3316" />
    <path
       sodipodi:type="inkscape:offset"
       inkscape:radius="0.049657617"
       inkscape:original="M 55.96875 8.625 C 28.866267 12.524362 8.03125 35.79413 8.03125 64 C 8.03125 81.828049 16.404394 97.622823 29.375 107.875 L 33.40625 100.90625 C 22.79225 92.093109 15.96875 78.841271 15.96875 64 C 15.96875 40.288881 33.317992 20.733974 55.96875 16.875 L 55.96875 8.625 z "
       style="fill:url(#linearGradient4684);fill-opacity:1;stroke:none;stroke-width:6.1420002;stroke-linecap:square;stroke-linejoin:miter;stroke-miterlimit:4;stroke-dashoffset:0;stroke-opacity:1"
       id="path4682"
       d="M 55.96875,8.5625 C 28.842254,12.465317 7.96875,35.769676 7.96875,64 C 7.96875,81.843597 16.361835,97.645134 29.34375,107.90625 C 29.348703,107.92098 29.360267,107.93255 29.375,107.9375 C 29.389733,107.93255 29.401297,107.92098 29.40625,107.90625 L 33.4375,100.9375 C 33.452233,100.93255 33.463797,100.92098 33.46875,100.90625 C 33.463797,100.89152 33.452233,100.87995 33.4375,100.875 C 22.834275,92.070806 16.03125,78.82605 16.03125,64 C 16.03125,40.313104 33.341233,20.792514 55.96875,16.9375 C 55.983483,16.932547 55.995047,16.920983 56,16.90625 C 56.014733,16.901297 56.026297,16.889733 56.03125,16.875 L 56.03125,8.625 C 56.026297,8.6102671 56.014733,8.5987025 56,8.59375 C 55.995047,8.5790171 55.983483,8.5674525 55.96875,8.5625 z" />
    <path
       sodipodi:type="inkscape:offset"
       inkscape:radius="-1.8923018"
       inkscape:original="M 41.4375 37.375 C 40.460608 37.430246 39.537836 37.841602 38.84375 38.53125 C 34.313415 42.998261 30.998977 48.629449 29.34375 54.96875 C 29.034543 56.166943 29.304475 57.428153 30.0625 58.40625 C 30.820525 59.384349 31.981303 59.969214 33.21875 59.96875 L 41.40625 59.96875 C 43.102316 59.974441 44.617621 58.90997 45.1875 57.3125 C 46.031752 54.94802 47.207952 52.834333 48.75 51.03125 C 49.853295 49.746887 50.028519 47.907036 49.1875 46.4375 L 45.125 39.375 C 44.371978 38.06564 42.945673 37.292051 41.4375 37.375 z M 33.15625 68.03125 C 31.918803 68.030786 30.758025 68.615653 30 69.59375 C 29.241975 70.571849 28.972043 71.833057 29.28125 73.03125 C 33.289371 88.494831 47.277108 99.96875 64 99.96875 C 67.418159 99.96875 70.564775 99.336908 73.46875 98.53125 C 74.659848 98.202172 75.62325 97.330144 76.09375 96.1875 C 76.440021 95.293213 76.584556 94.186627 76 92.9375 L 71.78125 85.625 C 70.936 84.158168 69.258936 83.382213 67.59375 83.6875 C 66.406263 83.906303 65.207107 84.03125 64 84.03125 C 55.300141 84.03125 47.956148 78.456401 45.1875 70.6875 C 44.617621 69.09003 43.102316 68.025559 41.40625 68.03125 L 33.15625 68.03125 z "
       style="fill:url(#linearGradient4714);fill-opacity:1;stroke:none;stroke-width:6.1420002;stroke-linecap:square;stroke-linejoin:miter;stroke-miterlimit:4;stroke-dashoffset:0;stroke-opacity:1"
       id="path4712"
       d="M 41.53125,39.25 C 41.015966,39.279141 40.553611,39.51123 40.1875,39.875 C 35.894744,44.107753 32.755932,49.430613 31.1875,55.4375 C 31.025153,56.066601 31.153707,56.722525 31.5625,57.25 C 31.971292,57.777474 32.577996,58.06274 33.21875,58.0625 L 41.40625,58.0625 C 42.306794,58.065522 43.103667,57.535694 43.40625,56.6875 C 44.317571,54.13518 45.604598,51.809513 47.3125,49.8125 C 47.898279,49.130586 47.977777,48.155229 47.53125,47.375 L 43.5,40.3125 C 43.101216,39.619091 42.329947,39.206072 41.53125,39.25 z M 33.15625,69.9375 C 32.515498,69.93726 31.908792,70.222526 31.5,70.75 C 31.091205,71.277479 30.962653,71.933398 31.125,72.5625 C 34.921872,87.211068 48.142673,98.0625 64,98.0625 C 67.184966,98.0625 70.1585,97.498405 72.96875,96.71875 C 73.585198,96.548437 74.090462,96.083878 74.34375,95.46875 C 74.56425,94.899282 74.633201,94.502078 74.28125,93.75 L 70.15625,86.5625 C 69.707478,85.78371 68.821603,85.400413 67.9375,85.5625 C 66.653002,85.799178 65.337688,85.9375 64,85.9375 C 54.491753,85.9375 46.434019,79.8085 43.40625,71.3125 C 43.103667,70.464306 42.306794,69.934478 41.40625,69.9375 L 33.15625,69.9375 z" />
    <path
       sodipodi:type="inkscape:offset"
       inkscape:radius="-1.7227483"
       inkscape:original="M 119.34375 53.34375 C 119.04728 53.363914 118.75388 53.416306 118.46875 53.5 L 110.5625 55.625 C 108.63757 56.148351 107.37032 57.983218 107.5625 59.96875 C 107.72804 61.666371 107.9375 62.945081 107.9375 64 C 107.9375 69.338918 106.90534 74.431553 105.125 79.21875 C 104.42876 81.087773 105.18114 83.186508 106.90625 84.1875 L 113.875 88.21875 C 114.90238 88.824002 116.15245 88.946771 117.28125 88.5625 C 118.41004 88.178231 119.3053 87.325134 119.75 86.21875 C 122.49009 79.365985 124.0625 71.879045 124.0625 64 C 124.0625 61.545966 123.85595 59.211283 123.59375 56.96875 C 123.35001 54.831212 121.49298 53.247272 119.34375 53.34375 z "
       style="fill:url(#linearGradient4704);fill-opacity:1;stroke:none;stroke-width:6.1420002;stroke-linecap:square;stroke-linejoin:miter;stroke-miterlimit:4;stroke-dashoffset:0;stroke-opacity:1"
       id="path4702"
       d="M 119.40625,55.0625 C 119.25572,55.076723 119.11392,55.113638 118.96875,55.15625 C 118.94792,55.156628 118.92708,55.156628 118.90625,55.15625 L 111,57.28125 C 109.87406,57.587372 109.16884,58.651108 109.28125,59.8125 C 109.44128,61.45358 109.65625,62.71704 109.65625,64 C 109.65625,69.560954 108.59365,74.855067 106.75,79.8125 C 106.34275,80.905736 106.77219,82.101995 107.78125,82.6875 L 114.75,86.71875 C 114.75009,86.729166 114.75009,86.739584 114.75,86.75 C 115.33859,87.096752 116.06323,87.160655 116.71875,86.9375 C 117.37425,86.71435 117.89565,86.210856 118.15625,85.5625 C 120.82009,78.90042 122.34375,71.649841 122.34375,64 C 122.34375,61.642632 122.1333,59.36545 121.875,57.15625 C 121.73321,55.912771 120.68431,55.022406 119.4375,55.0625 L 119.40625,55.0625 z" />
    <path
       sodipodi:type="inkscape:offset"
       inkscape:radius="0.069543645"
       inkscape:original="M 72.03125 8.75 L 72.03125 16.78125 C 87.87706 19.462426 101.03427 29.825256 107.5625 44 L 115.25 41.9375 C 107.68843 24.420955 91.549544 11.571459 72.03125 8.75 z M 64 32.03125 C 61.067315 32.03125 58.287545 32.565153 55.59375 33.3125 L 59.6875 40.375 C 61.086211 40.117278 62.524465 39.96875 64 39.96875 C 77.227347 39.96875 88.03125 50.772653 88.03125 64 C 88.03125 69.918388 85.780785 75.281999 82.21875 79.46875 L 86.3125 86.5625 C 92.179074 80.773177 95.96875 72.906802 95.96875 64 C 95.96875 46.315347 81.684653 32.03125 64 32.03125 z M 100.90625 94.59375 C 92.093109 105.20775 78.841271 112.03125 64 112.03125 C 58.135686 112.03125 52.541924 110.90193 47.34375 108.96875 L 43.3125 115.9375 C 49.719053 118.49917 56.667775 119.96875 64 119.96875 C 81.828049 119.96875 97.622823 111.5956 107.875 98.625 L 100.90625 94.59375 z "
       style="fill:url(#linearGradient4750);fill-opacity:1;stroke:none;stroke-width:6.1420002;stroke-linecap:square;stroke-linejoin:miter;stroke-miterlimit:4;stroke-dashoffset:0;stroke-opacity:1"
       id="path4748"
       d="M 71.96875,8.6875 C 71.96638,8.6977818 71.96638,8.7084682 71.96875,8.71875 C 71.96638,8.7290318 71.96638,8.7397182 71.96875,8.75 L 71.96875,16.78125 C 71.96638,16.791532 71.96638,16.802218 71.96875,16.8125 C 71.975492,16.826037 71.986463,16.837008 72,16.84375 C 72.010282,16.84612 72.020968,16.84612 72.03125,16.84375 C 87.854241,19.521065 100.98123,29.877056 107.5,44.03125 C 107.50674,44.044787 107.51771,44.055758 107.53125,44.0625 C 107.54153,44.06487 107.55222,44.06487 107.5625,44.0625 C 107.57278,44.06487 107.58347,44.06487 107.59375,44.0625 L 115.28125,42 C 115.29479,41.993258 115.30576,41.982287 115.3125,41.96875 C 115.31487,41.958468 115.31487,41.947782 115.3125,41.9375 C 115.31487,41.927218 115.31487,41.916532 115.3125,41.90625 C 107.74156,24.368009 91.573761,11.51246 72.03125,8.6875 C 72.020968,8.6851295 72.010282,8.6851295 72,8.6875 C 71.989718,8.6851295 71.979032,8.6851295 71.96875,8.6875 L 71.96875,8.6875 z M 64,31.96875 C 61.058875,31.96875 58.259949,32.501639 55.5625,33.25 C 55.548963,33.256742 55.537992,33.267713 55.53125,33.28125 C 55.52888,33.291532 55.52888,33.302218 55.53125,33.3125 C 55.52888,33.322782 55.52888,33.333468 55.53125,33.34375 L 59.625,40.40625 C 59.631742,40.419787 59.642713,40.430758 59.65625,40.4375 C 59.666532,40.43987 59.677218,40.43987 59.6875,40.4375 C 61.082539,40.180455 62.529132,40.03125 64,40.03125 C 77.189479,40.03125 87.96875,50.810521 87.96875,64 C 87.96875,69.900759 85.708658,75.262065 82.15625,79.4375 C 82.15388,79.447782 82.15388,79.458468 82.15625,79.46875 C 82.15388,79.479032 82.15388,79.489718 82.15625,79.5 L 86.25,86.59375 C 86.256742,86.607287 86.267713,86.618258 86.28125,86.625 C 86.291532,86.62737 86.302218,86.62737 86.3125,86.625 C 86.322782,86.62737 86.333468,86.62737 86.34375,86.625 C 86.354032,86.62737 86.364718,86.62737 86.375,86.625 C 92.253334,80.824072 96.03125,72.926528 96.03125,64 C 96.03125,46.2779 81.7221,31.96875 64,31.96875 z M 100.84375,94.53125 C 100.84138,94.541532 100.84138,94.552218 100.84375,94.5625 C 92.043139,105.16141 78.819955,111.96875 64,111.96875 C 58.144614,111.96875 52.56619,110.83683 47.375,108.90625 C 47.364718,108.90388 47.354032,108.90388 47.34375,108.90625 C 47.333468,108.90388 47.322782,108.90388 47.3125,108.90625 C 47.298963,108.91299 47.287992,108.92396 47.28125,108.9375 L 43.25,115.90625 C 43.24763,115.91653 43.24763,115.92722 43.25,115.9375 C 43.24763,115.94778 43.24763,115.95847 43.25,115.96875 C 43.256742,115.98229 43.267713,115.99326 43.28125,116 C 49.695386,118.5647 56.658483,120.03125 64,120.03125 C 81.849824,120.03125 97.672804,111.64269 107.9375,98.65625 C 107.93987,98.645968 107.93987,98.635282 107.9375,98.625 C 107.93987,98.614718 107.93987,98.604032 107.9375,98.59375 C 107.93076,98.580213 107.91979,98.569242 107.90625,98.5625 L 100.9375,94.53125 C 100.92722,94.52888 100.91653,94.52888 100.90625,94.53125 C 100.89597,94.52888 100.88528,94.52888 100.875,94.53125 C 100.86472,94.52888 100.85403,94.52888 100.84375,94.53125 z" />
    <path
       sodipodi:type="inkscape:offset"
       inkscape:radius="0.070108734"
       inkscape:original="M 55.96875 8.625 C 28.916652 12.517113 8.108523 35.708685 8.03125 63.84375 C 10.57659 64.76811 13.259597 65.564421 16.03125 66.21875 C 15.996951 65.478958 15.96875 64.748237 15.96875 64 C 15.96875 40.288881 33.317992 20.733974 55.96875 16.875 L 55.96875 8.625 z M 72.03125 8.75 L 72.03125 16.78125 C 85.007097 18.976816 96.168653 26.345982 103.375 36.71875 C 105.01969 34.21702 106.35044 31.62013 107.40625 28.96875 C 98.779066 18.258337 86.319704 10.815462 72.03125 8.75 z M 64 32.03125 C 61.067315 32.03125 58.287545 32.565153 55.59375 33.3125 L 59.6875 40.375 C 61.086211 40.117278 62.524465 39.96875 64 39.96875 C 73.591862 39.96875 81.902509 45.645719 85.75 53.8125 C 88.049334 52.291619 90.224484 50.665951 92.25 48.96875 C 86.880079 38.880322 76.248632 32.03125 64 32.03125 z "
       style="opacity:1;fill:url(#linearGradient4678);fill-opacity:1;stroke:none;stroke-width:6.1420002;stroke-linecap:square;stroke-linejoin:miter;stroke-miterlimit:4;stroke-dasharray:none;stroke-dashoffset:0;stroke-opacity:1"
       id="path4676"
       d="M 55.96875,8.5625 C 28.882811,12.459482 8.0461176,35.674224 7.96875,63.84375 C 7.9663991,63.854034 7.9663991,63.864716 7.96875,63.875 C 7.9755257,63.888513 7.986487,63.899474 8,63.90625 C 10.548055,64.831596 13.225814,65.626323 16,66.28125 C 16.010284,66.283601 16.020966,66.283601 16.03125,66.28125 C 16.041534,66.283601 16.052216,66.283601 16.0625,66.28125 C 16.076013,66.274474 16.086974,66.263513 16.09375,66.25 C 16.096101,66.239716 16.096101,66.229034 16.09375,66.21875 C 16.059468,65.479316 16.03125,64.746475 16.03125,64 C 16.03125,40.32308 33.350805,20.790884 55.96875,16.9375 C 55.979034,16.939851 55.989716,16.939851 56,16.9375 C 56.013513,16.930724 56.024474,16.919763 56.03125,16.90625 C 56.033601,16.895966 56.033601,16.885284 56.03125,16.875 L 56.03125,8.625 C 56.033601,8.614716 56.033601,8.604034 56.03125,8.59375 C 56.024474,8.580237 56.013513,8.5692757 56,8.5625 C 55.989716,8.5601491 55.979034,8.5601491 55.96875,8.5625 L 55.96875,8.5625 z M 71.96875,8.6875 C 71.966399,8.697784 71.966399,8.708466 71.96875,8.71875 C 71.966399,8.729034 71.966399,8.739716 71.96875,8.75 L 71.96875,16.78125 C 71.966399,16.791534 71.966399,16.802216 71.96875,16.8125 C 71.975526,16.826013 71.986487,16.836974 72,16.84375 C 72.010284,16.846101 72.020966,16.846101 72.03125,16.84375 C 84.988174,19.036114 96.11663,26.392312 103.3125,36.75 C 103.31928,36.763513 103.33024,36.774474 103.34375,36.78125 C 103.35403,36.783601 103.36472,36.783601 103.375,36.78125 C 103.38528,36.783601 103.39597,36.783601 103.40625,36.78125 C 103.41653,36.783601 103.42722,36.783601 103.4375,36.78125 C 103.43985,36.770966 103.43985,36.760284 103.4375,36.75 C 105.08489,34.244166 106.41127,31.655573 107.46875,29 C 107.4711,28.989716 107.4711,28.979034 107.46875,28.96875 C 107.4711,28.958466 107.4711,28.947784 107.46875,28.9375 C 98.830834,18.213763 86.337595,10.755548 72.03125,8.6875 C 72.020966,8.6851491 72.010284,8.6851491 72,8.6875 C 71.989716,8.6851491 71.979034,8.6851491 71.96875,8.6875 z M 64,31.96875 C 61.058806,31.96875 58.259979,32.501631 55.5625,33.25 C 55.548987,33.256776 55.538026,33.267737 55.53125,33.28125 C 55.528899,33.291534 55.528899,33.302216 55.53125,33.3125 C 55.528899,33.322784 55.528899,33.333466 55.53125,33.34375 L 59.625,40.40625 C 59.631776,40.419763 59.642737,40.430724 59.65625,40.4375 C 59.666534,40.439851 59.677216,40.439851 59.6875,40.4375 C 61.082509,40.18046 62.52917,40.03125 64,40.03125 C 73.564199,40.03125 81.851259,45.700849 85.6875,53.84375 C 85.694276,53.857263 85.705237,53.868224 85.71875,53.875 C 85.729034,53.877351 85.739716,53.877351 85.75,53.875 C 85.760284,53.877351 85.770966,53.877351 85.78125,53.875 C 88.082789,52.352661 90.253688,50.730166 92.28125,49.03125 C 92.294763,49.024474 92.305724,49.013513 92.3125,49 C 92.314851,48.989716 92.314851,48.979034 92.3125,48.96875 C 92.314851,48.958466 92.314851,48.947784 92.3125,48.9375 C 86.930729,38.82681 76.274767,31.96875 64,31.96875 z" />
    <path
       sodipodi:type="inkscape:offset"
       inkscape:radius="-0.13214259"
       inkscape:original="M 41.65625 41.375 C 37.624065 45.350824 34.691374 50.328795 33.21875 55.96875 L 41.40625 55.96875 C 42.401398 53.181659 43.839579 50.634774 45.71875 48.4375 L 41.65625 41.375 z M 119.53125 57.4375 L 111.625 59.5625 C 111.7688 61.037215 112.03125 62.475421 112.03125 64 C 112.03125 69.864314 110.90193 75.458076 108.96875 80.65625 L 115.9375 84.6875 C 118.49917 78.280947 119.96875 71.332225 119.96875 64 C 119.96875 61.773053 119.78339 59.593973 119.53125 57.4375 z M 33.15625 72.03125 C 36.720281 85.781505 49.100374 95.96875 64 95.96875 C 66.932685 95.96875 69.712455 95.434847 72.40625 94.6875 L 68.3125 87.625 C 66.913789 87.882722 65.475535 88.03125 64 88.03125 C 53.58887 88.03125 44.727281 81.350151 41.40625 72.03125 L 33.15625 72.03125 z "
       style="fill:url(#linearGradient4725);fill-opacity:1;stroke:none;stroke-width:6.1420002;stroke-linecap:square;stroke-linejoin:miter;stroke-miterlimit:4;stroke-dashoffset:0;stroke-opacity:1"
       id="path4723"
       d="M 41.625,41.59375 C 37.712529,45.493922 34.870976,50.352617 33.40625,55.84375 L 41.3125,55.84375 C 42.298323,53.114934 43.728604,50.603695 45.5625,48.4375 L 41.625,41.59375 z M 119.4375,57.59375 L 111.75,59.65625 C 111.8949,61.091766 112.15625,62.492825 112.15625,64 C 112.15625,69.846444 111.04214,75.408489 109.125,80.59375 L 115.875,84.5 C 118.39899,78.143815 119.84375,71.265138 119.84375,64 C 119.84375,61.83427 119.67996,59.69613 119.4375,57.59375 z M 33.34375,72.15625 C 36.948164,85.767634 49.219331,95.84375 64,95.84375 C 66.850582,95.84375 69.557907,95.312634 72.1875,94.59375 L 68.21875,87.78125 C 66.852093,88.026347 65.440735,88.15625 64,88.15625 C 53.566675,88.15625 44.677219,81.47823 41.3125,72.15625 L 33.34375,72.15625 z" />
  </g>
</svg>
