<?xml version="1.0" encoding="UTF-8" standalone="no"?>
<!-- Created with Inkscape (http://www.inkscape.org/) -->
<svg
   xmlns:dc="http://purl.org/dc/elements/1.1/"
   xmlns:cc="http://creativecommons.org/ns#"
   xmlns:rdf="http://www.w3.org/1999/02/22-rdf-syntax-ns#"
   xmlns:svg="http://www.w3.org/2000/svg"
   xmlns="http://www.w3.org/2000/svg"
   xmlns:xlink="http://www.w3.org/1999/xlink"
   xmlns:sodipodi="http://sodipodi.sourceforge.net/DTD/sodipodi-0.dtd"
   xmlns:inkscape="http://www.inkscape.org/namespaces/inkscape"
   width="128"
   height="128"
   id="svg2606"
   sodipodi:version="0.32"
   inkscape:version="0.46"
   version="1.0"
   sodipodi:docname="office-chart-pie.svgz"
   inkscape:output_extension="org.inkscape.output.svgz.inkscape"
   sodipodi:docbase="/home/pinheiro/artwork/Oxygen/scribus/scalable"
   inkscape:export-filename="/home/pinheiro/pics/oxygen/scalable/actions/office-chart-pie.png"
   inkscape:export-xdpi="67.5"
   inkscape:export-ydpi="67.5">
  <defs
     id="defs2608">
    <radialGradient
       gradientUnits="userSpaceOnUse"
       gradientTransform="matrix(0.9792,0,0,0.9725,133.0002,20.8762)"
       r="55.148"
       cy="-0.2148"
       cx="48"
       id="radialGradient4665">
      <stop
         id="stop4667"
         style="stop-color:#f5c31a;stop-opacity:1"
         offset="0" />
      <stop
         id="stop4669"
         style="stop-color:#e97b00;stop-opacity:1;"
         offset="1" />
    </radialGradient>
    <linearGradient
       inkscape:collect="always"
       id="linearGradient4430">
      <stop
         style="stop-color:#ffffff;stop-opacity:1;"
         offset="0"
         id="stop4432" />
      <stop
         style="stop-color:#ffffff;stop-opacity:0;"
         offset="1"
         id="stop4434" />
    </linearGradient>
    <linearGradient
       inkscape:collect="always"
       id="linearGradient4380">
      <stop
         style="stop-color:#ffffff;stop-opacity:1;"
         offset="0"
         id="stop4382" />
      <stop
         style="stop-color:#ffffff;stop-opacity:0;"
         offset="1"
         id="stop4384" />
    </linearGradient>
    <radialGradient
       gradientUnits="userSpaceOnUse"
       gradientTransform="matrix(0.9792,0,0,0.9725,133.0002,20.8762)"
       r="55.148"
       cy="-0.2148"
       cx="48"
       id="radialGradient4084">
      <stop
         id="stop4086"
         style="stop-color:#72D13D"
         offset="0" />
      <stop
         id="stop4088"
         style="stop-color:#35AC1C"
         offset="0.3553" />
      <stop
         id="stop4090"
         style="stop-color:#0b6f05;stop-opacity:1"
         offset="0.6194" />
      <stop
         id="stop4092"
         style="stop-color:#006a00;stop-opacity:1"
         offset="0.7574" />
      <stop
         id="stop4094"
         style="stop-color:#003400;stop-opacity:1"
         offset="1" />
    </radialGradient>
    <linearGradient
       inkscape:collect="always"
       id="linearGradient4058">
      <stop
         style="stop-color:#ffff0c;stop-opacity:1;"
         offset="0"
         id="stop4060" />
      <stop
         style="stop-color:#ffff0c;stop-opacity:0;"
         offset="1"
         id="stop4062" />
    </linearGradient>
    <linearGradient
       inkscape:collect="always"
       id="linearGradient3973">
      <stop
         style="stop-color:#ffffff;stop-opacity:1;"
         offset="0"
         id="stop3975" />
      <stop
         style="stop-color:#ffffff;stop-opacity:0;"
         offset="1"
         id="stop3977" />
    </linearGradient>
    <linearGradient
       id="linearGradient3950">
      <stop
         style="stop-color:#e05600;stop-opacity:1;"
         offset="0"
         id="stop3952" />
      <stop
         style="stop-color:#660000;stop-opacity:1;"
         offset="1"
         id="stop3954" />
    </linearGradient>
    <radialGradient
       id="XMLID_4_"
       cx="48"
       cy="-0.2148"
       r="55.148"
       gradientTransform="matrix(0.9792,0,0,0.9725,133.0002,20.8762)"
       gradientUnits="userSpaceOnUse">
      <stop
         offset="0"
         style="stop-color:#72D13D"
         id="stop3082" />
      <stop
         offset="0.3553"
         style="stop-color:#35AC1C"
         id="stop3084" />
      <stop
         offset="0.6194"
         style="stop-color:#0F9508"
         id="stop3086" />
      <stop
         offset="0.7574"
         style="stop-color:#008C00"
         id="stop3088" />
      <stop
         offset="1"
         style="stop-color:#007A00"
         id="stop3090" />
    </radialGradient>
    <linearGradient
       id="linearGradient3327">
      <stop
         offset="0"
         id="stop3329"
         style="stop-color:#baff63;stop-opacity:1;" />
      <stop
         offset="1"
         id="stop3331"
         style="stop-color:#ffffff;stop-opacity:0;" />
    </linearGradient>
    <linearGradient
       id="linearGradient2919">
      <stop
         style="stop-color:#051327;stop-opacity:1;"
         offset="0"
         id="stop2921" />
      <stop
         style="stop-color:#387de4;stop-opacity:1;"
         offset="1"
         id="stop2923" />
    </linearGradient>
    <linearGradient
       id="linearGradient3800"
       inkscape:collect="always">
      <stop
         id="stop3802"
         offset="0"
         style="stop-color:#64d7eb;stop-opacity:1;" />
      <stop
         id="stop3804"
         offset="1"
         style="stop-color:#64d7eb;stop-opacity:0;" />
    </linearGradient>
    <linearGradient
       id="linearGradient3370">
      <stop
         id="stop3372"
         offset="0"
         style="stop-color:#9fc1f2;stop-opacity:1;" />
      <stop
         style="stop-color:#587eb5;stop-opacity:1;"
         offset="0.5"
         id="stop3374" />
      <stop
         id="stop3376"
         offset="1"
         style="stop-color:#0c2a58;stop-opacity:1;" />
    </linearGradient>
    <linearGradient
       id="linearGradient3234">
      <stop
         id="stop3236"
         offset="0"
         style="stop-color:#63e9ff;stop-opacity:1;" />
      <stop
         id="stop3238"
         offset="1"
         style="stop-color:#ffffff;stop-opacity:0;" />
    </linearGradient>
    <linearGradient
       inkscape:collect="always"
       xlink:href="#linearGradient2919"
       id="linearGradient3920"
       x1="56.207039"
       y1="123.3195"
       x2="56.207039"
       y2="35.510601"
       gradientUnits="userSpaceOnUse"
       gradientTransform="translate(1,-0.9)" />
    <linearGradient
       inkscape:collect="always"
       xlink:href="#radialGradient4084"
       id="linearGradient3928"
       x1="46.117153"
       y1="-44.827198"
       x2="46.117153"
       y2="60.317043"
       gradientUnits="userSpaceOnUse"
       gradientTransform="translate(1,1)" />
    <linearGradient
       inkscape:collect="always"
       xlink:href="#linearGradient3950"
       id="linearGradient3956"
       x1="112.13757"
       y1="24.155968"
       x2="112.13757"
       y2="96.228043"
       gradientUnits="userSpaceOnUse" />
    <linearGradient
       inkscape:collect="always"
       xlink:href="#linearGradient3973"
       id="linearGradient3979"
       x1="51.379715"
       y1="35.236496"
       x2="51.379715"
       y2="108.5285"
       gradientUnits="userSpaceOnUse"
       gradientTransform="translate(1,-0.9)" />
    <linearGradient
       inkscape:collect="always"
       xlink:href="#linearGradient3973"
       id="linearGradient3981"
       x1="116.59375"
       y1="20.306101"
       x2="116.59375"
       y2="73.692665"
       gradientUnits="userSpaceOnUse" />
    <linearGradient
       inkscape:collect="always"
       xlink:href="#linearGradient3973"
       id="linearGradient3983"
       x1="47.136333"
       y1="-9.3432493"
       x2="57.035828"
       y2="50.69762"
       gradientUnits="userSpaceOnUse"
       gradientTransform="translate(1,1)" />
    <radialGradient
       inkscape:collect="always"
       xlink:href="#linearGradient3370"
       id="radialGradient3985"
       gradientUnits="userSpaceOnUse"
       gradientTransform="matrix(1.0823899,4.0435801e-8,-2.1693938e-8,0.5807057,-4.2633051,36.130669)"
       cx="59.269905"
       cy="126.30224"
       fx="62.451874"
       fy="156.61607"
       r="41.734375" />
    <radialGradient
       inkscape:collect="always"
       xlink:href="#radialGradient4665"
       id="radialGradient3987"
       gradientUnits="userSpaceOnUse"
       gradientTransform="matrix(1.9842605,0,0,1.6893064,-96.780792,-40.496749)"
       cx="99.041145"
       cy="81.771805"
       fx="99.041145"
       fy="81.771805"
       r="21.625" />
    <radialGradient
       inkscape:collect="always"
       xlink:href="#XMLID_4_"
       id="radialGradient3989"
       gradientUnits="userSpaceOnUse"
       gradientTransform="matrix(1.5638956,-2.7525695e-8,1.038804e-8,1.0810459,-20.53803,-24.185991)"
       cx="39.191303"
       cy="75.128395"
       fx="38.089832"
       fy="79.916908"
       r="35.96875" />
    <linearGradient
       inkscape:collect="always"
       xlink:href="#linearGradient3973"
       id="linearGradient4028"
       gradientUnits="userSpaceOnUse"
       gradientTransform="translate(6.9322433e-3,0)"
       x1="116.59375"
       y1="47.169357"
       x2="116.59375"
       y2="73.692665" />
    <linearGradient
       inkscape:collect="always"
       xlink:href="#linearGradient3973"
       id="linearGradient4030"
       gradientUnits="userSpaceOnUse"
       x1="57.035828"
       y1="15.361242"
       x2="57.035828"
       y2="50.69762"
       gradientTransform="translate(1,1)" />
    <linearGradient
       inkscape:collect="always"
       xlink:href="#linearGradient3973"
       id="linearGradient4032"
       gradientUnits="userSpaceOnUse"
       x1="51.379715"
       y1="75.186157"
       x2="51.379715"
       y2="108.5285"
       gradientTransform="translate(0.7,-1.2)" />
    <radialGradient
       inkscape:collect="always"
       xlink:href="#linearGradient3234"
       id="radialGradient4042"
       cx="57.278244"
       cy="131.22166"
       fx="57.278244"
       fy="131.22166"
       r="41.878006"
       gradientTransform="matrix(1,0,0,0.5383567,1,42.441887)"
       gradientUnits="userSpaceOnUse" />
    <filter
       inkscape:collect="always"
       id="filter4044">
      <feGaussianBlur
         inkscape:collect="always"
         stdDeviation="0.32711655"
         id="feGaussianBlur4046" />
    </filter>
    <radialGradient
       inkscape:collect="always"
       xlink:href="#linearGradient4058"
       id="radialGradient4064"
       cx="104.25"
       cy="78.317085"
       fx="104.25"
       fy="78.317085"
       r="22.125"
       gradientTransform="matrix(1.2027022,0,0,2.0129973,-21.131703,-66.152087)"
       gradientUnits="userSpaceOnUse" />
    <filter
       inkscape:collect="always"
       id="filter4066">
      <feGaussianBlur
         inkscape:collect="always"
         stdDeviation="0.29578125"
         id="feGaussianBlur4068" />
    </filter>
    <radialGradient
       inkscape:collect="always"
       xlink:href="#linearGradient3327"
       id="radialGradient4078"
       cx="37.03125"
       cy="67.156921"
       fx="37.03125"
       fy="67.156921"
       r="35.96875"
       gradientTransform="matrix(1,0,0,0.6337967,1,13.170538)"
       gradientUnits="userSpaceOnUse" />
    <filter
       inkscape:collect="always"
       id="filter4080">
      <feGaussianBlur
         inkscape:collect="always"
         stdDeviation="0.29882812"
         id="feGaussianBlur4082" />
    </filter>
    <linearGradient
       inkscape:collect="always"
       xlink:href="#linearGradient3973"
       id="linearGradient4112"
       gradientUnits="userSpaceOnUse"
       gradientTransform="translate(-4.31799e-2,0.3)"
       x1="93.83374"
       y1="84.017662"
       x2="58.429943"
       y2="22.696486" />
    <linearGradient
       inkscape:collect="always"
       xlink:href="#linearGradient3973"
       id="linearGradient4116"
       gradientUnits="userSpaceOnUse"
       gradientTransform="translate(0.9568201,1.3)"
       x1="73.681198"
       y1="41.237701"
       x2="58.429943"
       y2="22.696486" />
    <radialGradient
       inkscape:collect="always"
       xlink:href="#linearGradient3973"
       id="radialGradient4140"
       cx="87.325798"
       cy="13.060184"
       fx="87.325798"
       fy="13.060184"
       r="3.0757961"
       gradientTransform="matrix(2.3688812,-1.1674228,0.4985261,1.0115864,-125.04949,102.73463)"
       gradientUnits="userSpaceOnUse" />
    <filter
       inkscape:collect="always"
       id="filter4226"
       x="-0.19435702"
       width="1.388714"
       y="-0.16863127"
       height="1.3372625">
      <feGaussianBlur
         inkscape:collect="always"
         stdDeviation="0.41718673"
         id="feGaussianBlur4228" />
    </filter>
    <radialGradient
       inkscape:collect="always"
       xlink:href="#linearGradient3973"
       id="radialGradient4238"
       cx="96.9375"
       cy="17.980104"
       fx="96.9375"
       fy="17.980104"
       r="3.4375"
       gradientTransform="matrix(0.8551174,0,0,1.9745874,14.044558,-17.35343)"
       gradientUnits="userSpaceOnUse" />
    <filter
       inkscape:collect="always"
       id="filter4368"
       x="-0.093172935"
       width="1.1863459"
       y="-0.10567085"
       height="1.2113417">
      <feGaussianBlur
         inkscape:collect="always"
         stdDeviation="0.22807958"
         id="feGaussianBlur4370" />
    </filter>
    <radialGradient
       inkscape:collect="always"
       xlink:href="#linearGradient4380"
       id="radialGradient4386"
       cx="63.4366"
       cy="-0.80576962"
       fx="63.4366"
       fy="-0.80576962"
       r="39.184293"
       gradientTransform="matrix(0.5410048,0,0,0.3716141,29.117098,10.906392)"
       gradientUnits="userSpaceOnUse" />
    <filter
       inkscape:collect="always"
       id="filter4424">
      <feGaussianBlur
         inkscape:collect="always"
         stdDeviation="0.31665616"
         id="feGaussianBlur4426" />
    </filter>
    <radialGradient
       inkscape:collect="always"
       xlink:href="#linearGradient4430"
       id="radialGradient4436"
       cx="61.849747"
       cy="68.749786"
       fx="61.849747"
       fy="68.749786"
       r="2.776"
       gradientTransform="matrix(0.9552014,0.2959566,-0.7323242,2.3635804,54.117914,-113.35996)"
       gradientUnits="userSpaceOnUse" />
    <filter
       inkscape:collect="always"
       id="filter4478">
      <feGaussianBlur
         inkscape:collect="always"
         stdDeviation="0.18027646"
         id="feGaussianBlur4480" />
    </filter>
    <radialGradient
       inkscape:collect="always"
       xlink:href="#linearGradient3800"
       id="radialGradient4490"
       cx="64.686584"
       cy="139.65083"
       fx="64.686584"
       fy="139.65083"
       r="45.01022"
       gradientTransform="matrix(0.4700807,-2.0813009e-8,1.7282799e-8,0.3903477,34.278674,65.800126)"
       gradientUnits="userSpaceOnUse" />
    <filter
       inkscape:collect="always"
       id="filter4516">
      <feGaussianBlur
         inkscape:collect="always"
         stdDeviation="1.029351"
         id="feGaussianBlur4518" />
    </filter>
    <radialGradient
       inkscape:collect="always"
       xlink:href="#linearGradient4058"
       id="radialGradient4522"
       gradientUnits="userSpaceOnUse"
       gradientTransform="matrix(0.8432649,-0.1418808,0.3214122,1.910305,9.3826909,-2.5346134)"
       cx="96.265633"
       cy="18.054264"
       fx="96.265633"
       fy="18.054264"
       r="3.4375" />
    <radialGradient
       inkscape:collect="always"
       xlink:href="#linearGradient3234"
       id="radialGradient4526"
       gradientUnits="userSpaceOnUse"
       gradientTransform="matrix(2.3688812,-1.1674228,0.4985261,1.0115864,-126.04949,101.73463)"
       cx="87.339302"
       cy="12.464132"
       fx="87.339302"
       fy="12.464132"
       r="3.0757961" />
  </defs>
  <sodipodi:namedview
     id="base"
     pagecolor="#ffffff"
     bordercolor="#666666"
     borderopacity="1.0"
     inkscape:pageopacity="0.0"
     inkscape:pageshadow="2"
     inkscape:zoom="2"
     inkscape:cx="38.122518"
     inkscape:cy="45.643918"
     inkscape:document-units="px"
     inkscape:current-layer="layer1"
     width="128px"
     height="128px"
     showgrid="true"
     inkscape:grid-points="true"
     showguides="true"
     inkscape:guide-bbox="true"
     inkscape:window-width="1016"
     inkscape:window-height="692"
     inkscape:window-x="334"
     inkscape:window-y="152">
    <inkscape:grid
       type="xygrid"
       id="grid2576"
       spacingx="2.6666px"
       spacingy="2.6666px"
       empspacing="1"
       visible="true"
       enabled="true" />
    <sodipodi:guide
       orientation="horizontal"
       position="24.994302"
       id="guide2437" />
    <sodipodi:guide
       orientation="-0.70710678,0.70710678"
       position="-22.98097,170.05918"
       id="guide3875" />
  </sodipodi:namedview>
  <metadata
     id="metadata2611">
    <rdf:RDF>
      <cc:Work
         rdf:about="">
        <dc:format>image/svg+xml</dc:format>
        <dc:type
           rdf:resource="http://purl.org/dc/dcmitype/StillImage" />
      </cc:Work>
    </rdf:RDF>
  </metadata>
  <g
     inkscape:label="Livello 1"
     inkscape:groupmode="layer"
     id="layer1">
    <path
       style="opacity:1;fill:url(#linearGradient3928);fill-opacity:1;stroke:none;stroke-width:1;stroke-linecap:round;stroke-linejoin:round;stroke-miterlimit:4;stroke-dashoffset:0;stroke-opacity:1"
       d="M 65,7.15625 C 36.1065,7.15625 12.321539,28.632583 8.34375,56.4375 C 8.1694458,57.661467 8.5338573,58.900931 9.3428738,59.835794 C 10.15189,60.770658 11.326188,61.309258 12.5625,61.3125 L 60.34375,61.3125 C 61.869789,61.303862 63.275363,60.481959 64.03125,59.15625 L 88.1875,17.34375 C 88.803189,16.269604 88.922668,14.981204 88.515001,13.812157 C 88.107333,12.64311 87.212609,11.708381 86.0625,11.25 C 79.556429,8.6725709 72.469609,7.15625 65,7.15625 z"
       id="path3896" />
    <path
       sodipodi:type="inkscape:offset"
       inkscape:radius="-1.0413376"
       inkscape:original="M 64 6.15625 C 35.1065 6.15625 11.321539 27.632583 7.34375 55.4375 C 7.1694458 56.661467 7.5347335 57.908887 8.34375 58.84375 C 9.1527666 59.778615 10.326188 60.309258 11.5625 60.3125 L 59.34375 60.3125 C 60.869789 60.303862 62.275363 59.481959 63.03125 58.15625 L 87.1875 16.34375 C 87.803189 15.269604 87.907667 13.981547 87.5 12.8125 C 87.092334 11.643453 86.212609 10.708381 85.0625 10.25 C 78.556429 7.6725709 71.469609 6.15625 64 6.15625 z "
       style="opacity:1;fill:url(#radialGradient4386);fill-opacity:1;stroke:none;stroke-width:1;stroke-linecap:round;stroke-linejoin:round;stroke-miterlimit:4;stroke-dashoffset:0;stroke-opacity:1;filter:url(#filter4424)"
       id="path4376"
       d="M 64,7.1875 C 35.622513,7.1875 12.28102,28.290498 8.375,55.59375 C 8.2432492,56.518906 8.5144303,57.450703 9.125,58.15625 C 9.7355699,58.861799 10.622429,59.278785 11.5625,59.28125 L 59.34375,59.28125 C 60.499526,59.274708 61.552514,58.629052 62.125,57.625 L 86.28125,15.8125 C 86.743605,15.005864 86.842398,14.048513 86.53125,13.15625 C 86.220104,12.263989 85.554813,11.564421 84.6875,11.21875 C 78.292142,8.6851809 71.328682,7.1875 64,7.1875 z"
       transform="translate(1,1)" />
    <path
       style="opacity:1;fill:url(#linearGradient3956);fill-opacity:1;stroke:none;stroke-width:1;stroke-linecap:round;stroke-linejoin:round;stroke-miterlimit:4;stroke-dashoffset:0;stroke-opacity:1"
       d="M 97.125,17.9375 C 95.632636,17.979024 94.270178,18.796498 93.53125,20.09375 L 70.1875,60.5625 C 69.215402,62.231962 69.484463,64.34601 70.84375,65.71875 L 103.4375,98.3125 C 104.31481,99.18645 105.52814,99.636783 106.7632,99.546851 C 107.99826,99.45692 109.13355,98.835571 109.875,97.84375 C 117.01606,88.291471 121.40625,76.447405 121.40625,63.5625 C 121.40625,45.484812 112.97254,29.386253 99.90625,18.875 C 99.118951,18.243893 98.133699,17.911785 97.125,17.9375 L 97.125,17.9375 z"
       id="path3894" />
    <path
       style="opacity:1;fill:url(#linearGradient3920);fill-opacity:1;stroke:none;stroke-width:1;stroke-linecap:round;stroke-linejoin:round;stroke-miterlimit:4;stroke-dashoffset:0;stroke-opacity:1"
       d="M 12.6875,66.75625 C 11.438516,66.756786 10.252302,67.303801 9.44096,68.253372 C 8.6296178,69.202943 8.2743938,70.459981 8.46875,71.69375 C 12.823275,99.06637 36.413681,120.1 65,120.1 C 77.635824,120.1 89.24361,115.85922 98.6875,108.975 C 99.69425,108.23867 100.32898,107.09919 100.4251,105.85561 C 100.52122,104.61203 100.06914,103.38854 99.1875,102.50625 L 64.6875,68.00625 C 63.883533,67.203033 62.792697,66.753203 61.65625,66.75625 L 12.6875,66.75625 z"
       id="path3882" />
    <path
       sodipodi:type="inkscape:offset"
       inkscape:radius="-1"
       inkscape:original="M 11.6875 67.96875 C 10.438516 67.969283 9.2488422 68.519179 8.4375 69.46875 C 7.6261579 70.418324 7.2743938 71.672481 7.46875 72.90625 C 11.823275 100.27887 35.413681 121.3125 64 121.3125 C 76.635824 121.3125 88.24361 117.07172 97.6875 110.1875 C 98.69425 109.45117 99.341378 108.30608 99.4375 107.0625 C 99.533622 105.81892 99.069139 104.60104 98.1875 103.71875 L 63.6875 69.21875 C 62.883533 68.41553 61.792697 67.965703 60.65625 67.96875 L 11.6875 67.96875 z "
       style="opacity:1;fill:url(#radialGradient4490);fill-opacity:1;stroke:none;stroke-width:1;stroke-linecap:round;stroke-linejoin:round;stroke-miterlimit:4;stroke-dashoffset:0;stroke-opacity:1;filter:url(#filter4516)"
       id="path4486"
       d="M 11.6875,68.96875 C 10.731761,68.969158 9.8090855,69.397515 9.1875,70.125 C 8.5659131,70.852489 8.3194657,71.802346 8.46875,72.75 C 12.747724,99.647707 35.90421,120.3125 64,120.3125 C 76.41208,120.3125 87.807088,116.14461 97.09375,109.375 C 97.866572,108.80976 98.364319,107.94678 98.4375,107 C 98.510681,106.05322 98.149286,105.11854 97.46875,104.4375 L 62.96875,69.9375 C 62.352675,69.321997 61.527105,68.966415 60.65625,68.96875 L 11.6875,68.96875 z"
       transform="translate(1,-1.2)" />
    <path
       style="opacity:1;fill:url(#radialGradient3989);fill-opacity:1;stroke:none;stroke-width:1;stroke-linecap:round;stroke-linejoin:round;stroke-miterlimit:4;stroke-dashoffset:0;stroke-opacity:1"
       d="M 65,11.4375 C 38.216406,11.4375 16.246654,31.278856 12.5625,57.03125 L 60.34375,57.03125 L 84.5,15.21875 C 78.452348,12.822927 71.897538,11.4375 65,11.4375 z"
       id="path3890" />
    <path
       style="opacity:1;fill:url(#radialGradient3987);fill-opacity:1;stroke:none;stroke-width:1;stroke-linecap:round;stroke-linejoin:round;stroke-miterlimit:4;stroke-dashoffset:0;stroke-opacity:1"
       d="M 97.21875,22.21875 L 73.875,62.6875 L 106.46875,95.28125 C 113.09884,86.412476 117.125,75.485659 117.125,63.5625 C 117.125,46.809893 109.33093,31.962467 97.21875,22.21875 z"
       id="path3888" />
    <path
       style="opacity:1;fill:url(#radialGradient3985);fill-opacity:1;stroke:none;stroke-width:1;stroke-linecap:round;stroke-linejoin:round;stroke-miterlimit:4;stroke-dashoffset:0;stroke-opacity:1"
       d="M 12.400238,70.790641 C 16.432985,96.140565 38.502277,115.88125 65,115.88125 C 76.68918,115.88125 87.382003,111.99608 96.15625,105.6 L 61.65625,71.1 L 12.400238,70.790641 z"
       id="path3880"
       sodipodi:nodetypes="csccc" />
    <path
       style="opacity:1;fill:url(#linearGradient3981);fill-opacity:1;stroke:none;stroke-width:1;stroke-linecap:round;stroke-linejoin:round;stroke-miterlimit:4;stroke-dasharray:none;stroke-dashoffset:0;stroke-opacity:1"
       d="M 97.21875,22.21875 L 73.875,62.6875 L 76.25,65.0625 C 91.093885,63.535379 104.77955,60.411175 116.59375,56.09375 C 114.65609,42.434339 107.49409,30.484809 97.21875,22.21875 z"
       id="path3960" />
    <path
       style="opacity:1;fill:url(#linearGradient3983);fill-opacity:1;stroke:none;stroke-width:1;stroke-linecap:round;stroke-linejoin:round;stroke-miterlimit:4;stroke-dasharray:none;stroke-dashoffset:0;stroke-opacity:1"
       d="M 65,11.4375 C 42.029748,11.4375 22.609694,26.037343 15.21875,46.4375 C 40.104109,44.114556 61.894915,37.3797 77.1875,27.90625 L 84.5,15.21875 C 78.452348,12.822927 71.897538,11.4375 65,11.4375 z"
       id="path3962" />
    <path
       style="opacity:1;fill:url(#linearGradient4030);fill-opacity:1;stroke:none;stroke-width:1;stroke-linecap:round;stroke-linejoin:round;stroke-miterlimit:4;stroke-dasharray:none;stroke-dashoffset:0;stroke-opacity:1"
       d="M 65,11.4375 C 48.490131,11.4375 33.81851,18.995227 24.125,30.8125 C 33.819915,19.211435 48.35338,11.84375 64.6875,11.84375 C 71.585038,11.84375 78.139848,13.229177 84.1875,15.625 L 77.0625,27.96875 C 77.101544,27.944651 77.14854,27.930385 77.1875,27.90625 L 84.5,15.21875 C 78.452348,12.822927 71.897538,11.4375 65,11.4375 z"
       id="path4010" />
    <path
       style="opacity:1;fill:url(#linearGradient4028);fill-opacity:1;stroke:none;stroke-width:1;stroke-linecap:round;stroke-linejoin:round;stroke-miterlimit:4;stroke-dasharray:none;stroke-dashoffset:0;stroke-opacity:1"
       d="M 97.225682,22.21875 L 73.881932,62.6875 L 74.006932,62.8125 L 97.131932,22.71875 C 107.29683,30.895964 114.41674,42.680238 116.44443,56.15625 C 116.49629,56.13737 116.54889,56.112676 116.60068,56.09375 C 114.66302,42.434339 107.50102,30.484809 97.225682,22.21875 z"
       id="path4019" />
    <path
       sodipodi:nodetypes="csccc"
       id="path4034"
       d="M 12.400238,70.790641 C 16.432985,96.140565 38.502277,115.88125 65,115.88125 C 76.68918,115.88125 87.382003,111.99608 96.15625,105.6 L 61.65625,71.1 L 12.400238,70.790641 z"
       style="opacity:1;fill:none;fill-opacity:1;stroke:url(#radialGradient4042);stroke-width:1;stroke-linecap:round;stroke-linejoin:round;stroke-miterlimit:4;stroke-dashoffset:0;stroke-opacity:1;filter:url(#filter4044)" />
    <path
       id="path4048"
       d="M 97.21875,22.21875 L 73.875,62.6875 L 106.46875,95.28125 C 113.09884,86.412476 117.125,75.485659 117.125,63.5625 C 117.125,46.809893 109.33093,31.962467 97.21875,22.21875 z"
       style="opacity:1;fill:none;fill-opacity:1;stroke:url(#radialGradient4064);stroke-width:1;stroke-linecap:round;stroke-linejoin:round;stroke-miterlimit:4;stroke-dashoffset:0;stroke-opacity:1;filter:url(#filter4066)" />
    <path
       id="path4070"
       d="M 65,11.4375 C 38.216406,11.4375 16.246654,31.278856 12.5625,57.03125 L 60.34375,57.03125 L 84.5,15.21875 C 78.452348,12.822927 71.897538,11.4375 65,11.4375 z"
       style="opacity:1;fill:none;fill-opacity:1;stroke:url(#radialGradient4078);stroke-width:1;stroke-linecap:round;stroke-linejoin:round;stroke-miterlimit:4;stroke-dashoffset:0;stroke-opacity:1;filter:url(#filter4080)" />
    <path
       style="opacity:1;fill:url(#linearGradient4112);fill-opacity:1;stroke:none;stroke-width:1;stroke-linecap:round;stroke-linejoin:round;stroke-miterlimit:4;stroke-dasharray:none;stroke-dashoffset:0;stroke-opacity:1"
       d="M 82.225,13.78125 L 75.13125,26.09375 C 60.120636,35.392525 38.850862,42.060748 14.5375,44.5 C 14.41798,44.811443 14.27634,45.123273 14.1625,45.4375 C 39.047858,43.114556 60.838665,36.3797 76.13125,26.90625 L 83.44375,14.21875 C 83.041314,14.059322 82.63188,13.931619 82.225,13.78125 z M 97.1625,22.21875 C 97.167578,22.223037 97.157424,22.245711 97.1625,22.25 C 97.460407,22.501696 97.776471,22.742019 98.06875,23 C 97.765227,22.744629 97.471719,22.467503 97.1625,22.21875 z M 98.06875,23 C 107.32931,31.173859 113.72094,42.475551 115.5375,55.28125 C 103.76542,59.583282 90.132722,62.685734 75.35,64.21875 L 76.19375,65.0625 C 91.037634,63.535379 104.7233,60.411175 116.5375,56.09375 C 114.65815,42.845396 107.85127,31.230597 98.06875,23 z M 61.2125,70.9125 L 72.3375,82.0375 C 57.16263,87.094547 39.192203,90.183225 19.8375,90.6625 C 20.00551,90.93175 20.16598,91.210068 20.3375,91.475 C 39.882904,91.036781 58.031899,87.950613 73.3375,82.85 L 61.4,70.9125 L 61.2125,70.9125 z"
       id="path4096"
       sodipodi:nodetypes="ccccccccsscccccccccccccc" />
    <path
       id="path4114"
       d="M 83.225,14.78125 L 76.13125,27.09375 C 61.120636,36.392525 39.850862,43.060748 15.5375,45.5 C 15.41798,45.811443 15.27634,46.123273 15.1625,46.4375 C 40.047858,44.114556 61.838665,37.3797 77.13125,27.90625 L 84.44375,15.21875 C 84.041314,15.059322 83.63188,14.931619 83.225,14.78125 z"
       style="opacity:1;fill:url(#linearGradient4116);fill-opacity:1;stroke:none;stroke-width:1;stroke-linecap:round;stroke-linejoin:round;stroke-miterlimit:4;stroke-dasharray:none;stroke-dashoffset:0;stroke-opacity:1"
       sodipodi:nodetypes="ccccccc" />
    <path
       style="fill:url(#radialGradient4140);fill-opacity:1;fill-rule:evenodd;stroke:none;stroke-width:1px;stroke-linecap:butt;stroke-linejoin:miter;stroke-opacity:1;filter:url(#filter4226)"
       d="M 86.28125,11.5625 L 83.40625,15.3125 L 83.6875,15.96875 L 87.875,17.5 C 89.123093,15.197316 88.699176,13.198635 86.28125,11.5625 z"
       id="path4118"
       sodipodi:nodetypes="ccccc" />
    <path
       style="fill:url(#radialGradient4238);fill-rule:evenodd;stroke:none;stroke-width:1px;stroke-linecap:butt;stroke-linejoin:miter;stroke-opacity:1;fill-opacity:1;filter:url(#filter4368)"
       d="M 94,19.75 L 97.125,23.4375 L 97.75,23.1875 L 99.875,19.5 C 98.012018,17.689014 96.184502,17.930501 94,19.75 z"
       id="path4230"
       sodipodi:nodetypes="ccccc" />
    <path
       style="opacity:0.64851487;fill:url(#radialGradient4436);fill-opacity:1;fill-rule:evenodd;stroke:none;stroke-width:1px;stroke-linecap:butt;stroke-linejoin:miter;stroke-opacity:1;filter:url(#filter4478)"
       d="M 65.125746,68.861438 L 61.280853,71.866642 L 60.573746,71.380506 L 60.883106,67.005283 C 62.841612,66.875599 64.104848,67.701911 65.125746,68.861438 z"
       id="path4428"
       sodipodi:nodetypes="ccccc" />
    <path
       style="opacity:1;fill:url(#linearGradient3979);fill-opacity:1;stroke:none;stroke-width:1;stroke-linecap:round;stroke-linejoin:round;stroke-miterlimit:4;stroke-dasharray:none;stroke-dashoffset:0;stroke-opacity:1"
       d="M 12.411286,70.812738 C 13.602862,78.30301 16.639175,85.554264 20.59375,91.6625 C 40.139155,91.224284 58.288149,88.138113 73.59375,83.0375 L 61.65625,71.1 L 12.411286,70.812738 z"
       id="path3958"
       sodipodi:nodetypes="ccccc" />
    <path
       style="opacity:1;fill:url(#linearGradient4032);fill-opacity:1;stroke:none;stroke-width:1;stroke-linecap:round;stroke-linejoin:round;stroke-miterlimit:4;stroke-dasharray:none;stroke-dashoffset:0;stroke-opacity:1"
       d="M 12.3875,70.8125 C 12.397496,70.875337 12.408533,70.937237 12.41875,71 L 61.2625,71.3 L 73.075,82.8125 C 73.146592,82.788771 73.222282,82.773817 73.29375,82.75 L 61.35625,70.8125 L 12.3875,70.8125 z"
       id="path4001"
       sodipodi:nodetypes="ccccccc" />
    <path
       sodipodi:nodetypes="ccccc"
       id="path4520"
       d="M 93.513864,19.838388 L 97.125,23.4375 L 97.75,23.1875 L 99.786612,19.588388 C 97.92363,17.777402 95.698366,18.018889 93.513864,19.838388 z"
       style="fill:url(#radialGradient4522);fill-opacity:1;fill-rule:evenodd;stroke:none;stroke-width:1px;stroke-linecap:butt;stroke-linejoin:miter;stroke-opacity:1;filter:url(#filter4368);opacity:0.53960395999999999"
       transform="matrix(1,0,0,-1,9.6,117.69485)" />
    <path
       sodipodi:nodetypes="ccccc"
       id="path4524"
       d="M 85.458027,10.496209 L 82.40625,14.0125 L 82.6875,14.66875 L 86.764515,16.477903 C 88.012608,14.175219 87.875953,12.132344 85.458027,10.496209 z"
       style="opacity:0.61386138;fill:url(#radialGradient4526);fill-opacity:1;fill-rule:evenodd;stroke:none;stroke-width:1px;stroke-linecap:butt;stroke-linejoin:miter;stroke-opacity:1;filter:url(#filter4226)"
       transform="matrix(1,0,0,-1,12.75,119.6125)" />
  </g>
</svg>
