<?xml version="1.0" encoding="UTF-8" standalone="no"?>
<!-- Created with Inkscape (http://www.inkscape.org/) -->

<svg
   xmlns:dc="http://purl.org/dc/elements/1.1/"
   xmlns:cc="http://creativecommons.org/ns#"
   xmlns:rdf="http://www.w3.org/1999/02/22-rdf-syntax-ns#"
   xmlns:svg="http://www.w3.org/2000/svg"
   xmlns="http://www.w3.org/2000/svg"
   xmlns:xlink="http://www.w3.org/1999/xlink"
   xmlns:sodipodi="http://sodipodi.sourceforge.net/DTD/sodipodi-0.dtd"
   xmlns:inkscape="http://www.inkscape.org/namespaces/inkscape"
   version="1.1"
   width="128"
   height="128"
   id="svg2"
   inkscape:version="0.48.3.1 r9886"
   sodipodi:docname="picmi.svgz">
  <sodipodi:namedview
     pagecolor="#ffffff"
     bordercolor="#666666"
     borderopacity="1"
     objecttolerance="10"
     gridtolerance="10"
     guidetolerance="10"
     inkscape:pageopacity="0"
     inkscape:pageshadow="2"
     inkscape:window-width="1511"
     inkscape:window-height="990"
     id="namedview237"
     showgrid="true"
     inkscape:zoom="8"
     inkscape:cx="41.901761"
     inkscape:cy="77.816453"
     inkscape:window-x="378"
     inkscape:window-y="295"
     inkscape:window-maximized="0"
     inkscape:current-layer="svg2">
    <inkscape:grid
       type="xygrid"
       id="grid3259"
       empspacing="5"
       visible="true"
       enabled="true"
       snapvisiblegridlinesonly="true"
       spacingx="2.6666px"
       spacingy="2.6666px" />
  </sodipodi:namedview>
  <defs
     id="defs4">
    <linearGradient
       id="linearGradient4351">
      <stop
         id="stop4353"
         style="stop-color:#e1ff8d;stop-opacity:1"
         offset="0" />
      <stop
         id="stop4355"
         style="stop-color:#e1ff8d;stop-opacity:0"
         offset="1" />
    </linearGradient>
    <linearGradient
       id="linearGradient4124">
      <stop
         id="stop4126"
         style="stop-color:#f8ead4;stop-opacity:1"
         offset="0" />
      <stop
         id="stop4128"
         style="stop-color:#f8ead4;stop-opacity:0"
         offset="1" />
    </linearGradient>
    <linearGradient
       id="linearGradient4103">
      <stop
         id="stop4105"
         style="stop-color:#ffe588;stop-opacity:1"
         offset="0" />
      <stop
         id="stop4107"
         style="stop-color:#c0811d;stop-opacity:1"
         offset="1" />
    </linearGradient>
    <linearGradient
       id="linearGradient4075">
      <stop
         id="stop4077"
         style="stop-color:#482205;stop-opacity:1"
         offset="0" />
      <stop
         id="stop4079"
         style="stop-color:#803d08;stop-opacity:0"
         offset="1" />
    </linearGradient>
    <linearGradient
       id="linearGradient4047">
      <stop
         id="stop4049"
         style="stop-color:#803d08;stop-opacity:1"
         offset="0" />
      <stop
         id="stop4051"
         style="stop-color:#803d08;stop-opacity:0"
         offset="1" />
    </linearGradient>
    <linearGradient
       id="linearGradient4037">
      <stop
         id="stop4039"
         style="stop-color:#c2851d;stop-opacity:1"
         offset="0" />
      <stop
         id="stop4041"
         style="stop-color:#ac6c16;stop-opacity:1"
         offset="0.74645573" />
      <stop
         id="stop4043"
         style="stop-color:#7f3c07;stop-opacity:1"
         offset="1" />
    </linearGradient>
    <linearGradient
       id="linearGradient4018">
      <stop
         id="stop4020"
         style="stop-color:#ffffff;stop-opacity:1"
         offset="0" />
      <stop
         id="stop4022"
         style="stop-color:#f0ff90;stop-opacity:0.37142858"
         offset="0.35964912" />
      <stop
         id="stop4024"
         style="stop-color:#efff82;stop-opacity:0"
         offset="1" />
    </linearGradient>
    <linearGradient
       id="linearGradient4004">
      <stop
         id="stop4006"
         style="stop-color:#095200;stop-opacity:1"
         offset="0" />
      <stop
         id="stop4008"
         style="stop-color:#095200;stop-opacity:0"
         offset="1" />
    </linearGradient>
    <linearGradient
       id="linearGradient3969">
      <stop
         id="stop3971"
         style="stop-color:#000000;stop-opacity:1"
         offset="0" />
      <stop
         id="stop3973"
         style="stop-color:#333333;stop-opacity:1"
         offset="1" />
    </linearGradient>
    <linearGradient
       id="linearGradient3951">
      <stop
         id="stop3953"
         style="stop-color:#ffd12d;stop-opacity:1"
         offset="0" />
      <stop
         id="stop3957"
         style="stop-color:#dfa925;stop-opacity:1"
         offset="0.74645573" />
      <stop
         id="stop3955"
         style="stop-color:#c0811d;stop-opacity:1"
         offset="1" />
    </linearGradient>
    <linearGradient
       id="linearGradient6186">
      <stop
         id="stop6188"
         style="stop-color:#555555;stop-opacity:1"
         offset="0" />
      <stop
         id="stop6194"
         style="stop-color:#979797;stop-opacity:1"
         offset="0.2" />
      <stop
         id="stop6196"
         style="stop-color:#b1b1b1;stop-opacity:1"
         offset="0.35152072" />
      <stop
         id="stop6198"
         style="stop-color:#eeeeee;stop-opacity:1"
         offset="0.40671435" />
      <stop
         id="stop6200"
         style="stop-color:#e6e6e6;stop-opacity:1"
         offset="0.51806325" />
      <stop
         id="stop6202"
         style="stop-color:#888888;stop-opacity:1"
         offset="0.77787733" />
      <stop
         id="stop6190"
         style="stop-color:#dddddd;stop-opacity:1"
         offset="1" />
    </linearGradient>
    <linearGradient
       x1="73.263016"
       y1="-2.7677612"
       x2="73.263016"
       y2="117.10693"
       id="linearGradient3933"
       xlink:href="#linearGradient4103"
       gradientUnits="userSpaceOnUse" />
    <filter
       color-interpolation-filters="sRGB"
       id="filter3947">
      <feGaussianBlur
         id="feGaussianBlur3949"
         stdDeviation="0.82756696" />
    </filter>
    <linearGradient
       x1="-18.538389"
       y1="45.930031"
       x2="6.9841185"
       y2="18.384565"
       id="linearGradient3967"
       xlink:href="#linearGradient3969"
       gradientUnits="userSpaceOnUse"
       spreadMethod="reflect" />
    <filter
       color-interpolation-filters="sRGB"
       id="filter3996">
      <feGaussianBlur
         id="feGaussianBlur3998"
         stdDeviation="1.162016" />
    </filter>
    <clipPath
       id="clipPath4000">
      <path
         d="m 70.370874,86.285545 c -10.930979,10.93098 -69.78004851,10.93098 -80.711028,0 -10.93098,-10.930979 -10.93098,-69.780049 -10e-7,-80.7110284 10.93098014,-10.9309799 69.780049,-10.9309801 80.711029,-3e-7 10.93098,10.9309797 10.93098,69.7800487 0,80.7110287 z"
         transform="matrix(1.1070577,0,0,0.87067559,175.63861,24.62229)"
         id="path4002"
         style="fill:#c0811d;fill-opacity:1;fill-rule:evenodd;stroke:none" />
    </clipPath>
    <linearGradient
       x1="78.569107"
       y1="-67.575584"
       x2="78.569107"
       y2="151.91983"
       id="linearGradient4010"
       xlink:href="#linearGradient4004"
       gradientUnits="userSpaceOnUse" />
    <linearGradient
       x1="35.025448"
       y1="113.158"
       x2="41.578056"
       y2="113.158"
       id="linearGradient4059"
       xlink:href="#linearGradient4037"
       gradientUnits="userSpaceOnUse"
       spreadMethod="reflect" />
    <linearGradient
       x1="41.578056"
       y1="117.02994"
       x2="41.578056"
       y2="109.81702"
       id="linearGradient4061"
       xlink:href="#linearGradient4047"
       gradientUnits="userSpaceOnUse" />
    <linearGradient
       x1="35.025448"
       y1="113.158"
       x2="41.578056"
       y2="113.158"
       id="linearGradient4069"
       xlink:href="#linearGradient4037"
       gradientUnits="userSpaceOnUse"
       spreadMethod="reflect" />
    <linearGradient
       x1="41.578056"
       y1="117.02994"
       x2="41.578056"
       y2="109.81702"
       id="linearGradient4071"
       xlink:href="#linearGradient4047"
       gradientUnits="userSpaceOnUse" />
    <radialGradient
       cx="66.642494"
       cy="114.04181"
       r="45.862629"
       fx="66.642494"
       fy="114.04181"
       id="radialGradient4081"
       xlink:href="#linearGradient4075"
       gradientUnits="userSpaceOnUse"
       gradientTransform="matrix(1,0,0,0.05263158,0,108.03961)" />
    <filter
       x="-0.02537594"
       y="-0.48214284"
       width="1.0507519"
       height="1.9642857"
       color-interpolation-filters="sRGB"
       id="filter4091">
      <feGaussianBlur
         id="feGaussianBlur4093"
         stdDeviation="0.96983943" />
    </filter>
    <radialGradient
       cx="66.642494"
       cy="114.04181"
       r="45.862629"
       fx="66.642494"
       fy="114.04181"
       id="radialGradient4097"
       xlink:href="#linearGradient4075"
       gradientUnits="userSpaceOnUse"
       gradientTransform="matrix(1,0,0,0.05263158,0,108.03961)" />
    <radialGradient
       cx="66.642494"
       cy="114.04181"
       r="45.862629"
       fx="66.642494"
       fy="114.04181"
       id="radialGradient4101"
       xlink:href="#linearGradient4075"
       gradientUnits="userSpaceOnUse"
       gradientTransform="matrix(1,0,0,0.05263158,0,108.03961)" />
    <filter
       color-interpolation-filters="sRGB"
       id="filter4116">
      <feGaussianBlur
         id="feGaussianBlur4118"
         stdDeviation="0.48947371" />
    </filter>
    <clipPath
       id="clipPath4120">
      <path
         d="m 70.370874,86.285545 c -10.930979,10.93098 -69.78004851,10.93098 -80.711028,0 -10.93098,-10.930979 -10.93098,-69.780049 -10e-7,-80.7110284 10.93098014,-10.9309799 69.780049,-10.9309801 80.711029,-3e-7 10.93098,10.9309797 10.93098,69.7800487 0,80.7110287 z"
         transform="matrix(1.0985675,0,0,0.86399822,242.66324,24.64214)"
         id="path4122"
         style="fill:#c0811d;fill-opacity:1;fill-rule:evenodd;stroke:none" />
    </clipPath>
    <linearGradient
       x1="283.2449"
       y1="18.593788"
       x2="283.2449"
       y2="99.073578"
       id="linearGradient4130"
       xlink:href="#linearGradient4124"
       gradientUnits="userSpaceOnUse" />
    <filter
       color-interpolation-filters="sRGB"
       id="filter4149">
      <feGaussianBlur
         id="feGaussianBlur4151"
         stdDeviation="1.9451837" />
    </filter>
    <clipPath
       id="clipPath4157">
      <path
         d="m 70.370874,86.285545 c -10.930979,10.93098 -69.78004851,10.93098 -80.711028,0 -10.93098,-10.930979 -10.93098,-69.780049 -10e-7,-80.7110284 10.93098014,-10.9309799 69.780049,-10.9309801 80.711029,-3e-7 10.93098,10.9309797 10.93098,69.7800487 0,80.7110287 z"
         transform="matrix(0.85199994,0,0,0.67007845,181.51323,40.83572)"
         id="path4159"
         style="opacity:0.87727272;fill:#000000;fill-opacity:1;fill-rule:evenodd;stroke:none" />
    </clipPath>
    <linearGradient
       x1="70.236679"
       y1="24.064802"
       x2="70.236679"
       y2="76.669022"
       id="linearGradient4175"
       xlink:href="#linearGradient4018"
       gradientUnits="userSpaceOnUse" />
    <linearGradient
       x1="76.724648"
       y1="11.819321"
       x2="80.875"
       y2="16.375"
       id="linearGradient4189"
       xlink:href="#linearGradient6186"
       gradientUnits="userSpaceOnUse" />
    <linearGradient
       x1="76.724648"
       y1="11.819321"
       x2="80.875"
       y2="16.375"
       id="linearGradient4193"
       xlink:href="#linearGradient6186"
       gradientUnits="userSpaceOnUse" />
    <radialGradient
       cx="65.59301"
       cy="14.760234"
       r="7.241468"
       fx="65.59301"
       fy="10.142487"
       id="radialGradient4197"
       xlink:href="#linearGradient3951"
       gradientUnits="userSpaceOnUse" />
    <radialGradient
       cx="65.59301"
       cy="14.760234"
       r="7.241468"
       fx="65.59301"
       fy="10.142487"
       id="radialGradient4201"
       xlink:href="#linearGradient3951"
       gradientUnits="userSpaceOnUse" />
    <filter
       x="-0.10518881"
       y="-0.31556642"
       width="1.2103776"
       height="1.6311328"
       color-interpolation-filters="sRGB"
       id="filter4219">
      <feGaussianBlur
         id="feGaussianBlur4221"
         stdDeviation="1.0683239" />
    </filter>
    <clipPath
       id="clipPath4225">
      <path
         d="m 72.834478,14.760234 a 7.241468,7.241468 0 1 1 -14.482936,0 7.241468,7.241468 0 1 1 14.482936,0 z"
         transform="matrix(0.60193786,0,0,1.176094,28.904711,14.39271)"
         id="path4227"
         style="fill:url(#radialGradient4229);fill-opacity:1;fill-rule:evenodd;stroke:none" />
    </clipPath>
    <radialGradient
       cx="65.59301"
       cy="14.760234"
       r="7.241468"
       fx="65.59301"
       fy="10.142487"
       id="radialGradient4229"
       xlink:href="#linearGradient3951"
       gradientUnits="userSpaceOnUse" />
    <filter
       color-interpolation-filters="sRGB"
       id="filter4240">
      <feGaussianBlur
         id="feGaussianBlur4242"
         stdDeviation="0.21680048" />
    </filter>
    <radialGradient
       cx="65.59301"
       cy="14.760234"
       r="7.241468"
       fx="65.59301"
       fy="10.142487"
       id="radialGradient4244"
       xlink:href="#linearGradient3951"
       gradientUnits="userSpaceOnUse" />
    <filter
       color-interpolation-filters="sRGB"
       id="filter4335">
      <feGaussianBlur
         id="feGaussianBlur4337"
         stdDeviation="0.62695319" />
    </filter>
    <radialGradient
       cx="30.01536"
       cy="45.930031"
       r="48.553749"
       fx="30.01536"
       fy="11.56121"
       id="radialGradient4357"
       xlink:href="#linearGradient4351"
       gradientUnits="userSpaceOnUse"
       gradientTransform="matrix(1.0704802,0,0,1.0704802,-2.1154874,-3.2371566)" />
    <filter
       color-interpolation-filters="sRGB"
       id="filter4363">
      <feGaussianBlur
         id="feGaussianBlur4365"
         stdDeviation="0.43664568" />
    </filter>
    <filter
       color-interpolation-filters="sRGB"
       id="filter4496">
      <feGaussianBlur
         id="feGaussianBlur4498"
         stdDeviation="0.041264801" />
    </filter>
    <radialGradient
       cx="66.642494"
       cy="114.04181"
       r="45.862629"
       fx="66.642494"
       fy="114.04181"
       id="radialGradient4500"
       xlink:href="#linearGradient4075"
       gradientUnits="userSpaceOnUse"
       gradientTransform="matrix(1,0,0,0.05263158,0,108.03961)" />
    <filter
       x="-0.033834588"
       y="-0.64285713"
       width="1.0676692"
       height="2.2857141"
       color-interpolation-filters="sRGB"
       id="filter4502">
      <feGaussianBlur
         id="feGaussianBlur4504"
         stdDeviation="1.2931192" />
    </filter>
    <linearGradient
       x1="283.2449"
       y1="18.593788"
       x2="283.2449"
       y2="99.073578"
       id="linearGradient4506"
       xlink:href="#linearGradient4124"
       gradientUnits="userSpaceOnUse" />
    <linearGradient
       inkscape:collect="always"
       xlink:href="#linearGradient4018"
       id="linearGradient3155"
       gradientUnits="userSpaceOnUse"
       x1="70.236679"
       y1="24.064802"
       x2="70.236679"
       y2="76.669022"
       gradientTransform="matrix(1.0977176,0,0,1.0977176,-6.6702761,-5.5405809)" />
    <radialGradient
       inkscape:collect="always"
       xlink:href="#linearGradient3951"
       id="radialGradient3208"
       gradientUnits="userSpaceOnUse"
       cx="65.59301"
       cy="14.760234"
       fx="65.59301"
       fy="10.142487"
       r="7.241468"
       gradientTransform="matrix(0.40079251,0.05142657,-0.05142657,0.40079251,49.833204,-3.9369358)" />
    <radialGradient
       inkscape:collect="always"
       xlink:href="#linearGradient3951"
       id="radialGradient3211"
       gradientUnits="userSpaceOnUse"
       cx="65.59301"
       cy="14.760234"
       fx="65.59301"
       fy="10.142487"
       r="7.241468"
       gradientTransform="matrix(0.39787018,0.0510516,-0.0510516,0.39787018,92.064829,1.5472588)" />
    <linearGradient
       inkscape:collect="always"
       xlink:href="#linearGradient4004"
       id="linearGradient3221"
       gradientUnits="userSpaceOnUse"
       x1="78.569107"
       y1="-39.213562"
       x2="78.569107"
       y2="151.91983"
       gradientTransform="matrix(0.93525537,0,0,0.73555694,36.828802,38.517107)" />
    <linearGradient
       inkscape:collect="always"
       xlink:href="#linearGradient3969"
       id="linearGradient3225"
       gradientUnits="userSpaceOnUse"
       spreadMethod="reflect"
       x1="-18.538389"
       y1="45.930031"
       x2="6.9841185"
       y2="18.384565"
       gradientTransform="matrix(1.0378296,0,0,0.81622922,33.749999,34.811827)" />
    <radialGradient
       inkscape:collect="always"
       xlink:href="#linearGradient3951"
       id="radialGradient3231"
       gradientUnits="userSpaceOnUse"
       cx="65.59301"
       cy="14.760234"
       fx="65.59301"
       fy="10.142487"
       r="7.241468"
       gradientTransform="matrix(1.2805209,0.16430647,-0.16430647,1.2805209,12.122752,-0.92024881)" />
    <linearGradient
       inkscape:collect="always"
       xlink:href="#linearGradient6186"
       id="linearGradient3240"
       gradientUnits="userSpaceOnUse"
       x1="76.724648"
       y1="11.819321"
       x2="80.875"
       y2="16.375"
       gradientTransform="matrix(0.87744773,0.11258726,-0.11258726,0.87744773,39.406958,-5.3028905)" />
    <linearGradient
       inkscape:collect="always"
       xlink:href="#linearGradient6186"
       id="linearGradient3243"
       gradientUnits="userSpaceOnUse"
       x1="76.724648"
       y1="11.819321"
       x2="80.875"
       y2="16.375"
       gradientTransform="matrix(-0.87669905,-0.11827584,-0.11827584,0.87669905,154.36282,9.90214)" />
    <radialGradient
       inkscape:collect="always"
       xlink:href="#linearGradient4351"
       id="radialGradient3246"
       gradientUnits="userSpaceOnUse"
       gradientTransform="matrix(1.0704802,0,0,1.0704802,-2.1154874,-3.2371566)"
       cx="30.01536"
       cy="45.930031"
       fx="30.01536"
       fy="11.56121"
       r="48.553749" />
    <mask
       maskUnits="userSpaceOnUse"
       id="mask4167">
      <path
         style="opacity:0.74090911;fill:#ffffff;fill-opacity:1;fill-rule:evenodd;stroke:none"
         d="m -33.77002,-0.07165247 0,3.69143827 122.413913,0 0,-3.69143827 -122.413913,0 z m 0,7.38287667 0,3.7348668 122.413913,0 0,-3.7348668 -122.413913,0 z m 0,7.4263048 0,3.691439 122.413913,0 0,-3.691439 -122.413913,0 z m 0,7.426306 0,3.691438 122.413913,0 0,-3.691438 -122.413913,0 z m 0,7.382876 0,3.734867 122.413913,0 0,-3.734867 -122.413913,0 z m 0,7.426306 0,3.691438 122.413913,0 0,-3.691438 -122.413913,0 z m 0,7.426305 0,3.691438 122.413913,0 0,-3.691438 -122.413913,0 z m 0,7.382877 0,3.734867 122.413913,0 0,-3.734867 -122.413913,0 z m 0,7.426305 0,3.691438 122.413913,0 0,-3.691438 -122.413913,0 z m 0,7.426305 0,3.691439 122.413913,0 0,-3.691439 -122.413913,0 z m 0,7.382877 0,3.734867 122.413913,0 0,-3.734867 -122.413913,0 z m 0,7.426305 0,3.691438 122.413913,0 0,-3.691438 -122.413913,0 z m 0,7.426305 0,3.691439 122.413913,0 0,-3.691439 -122.413913,0 z m 0,7.382877 0,3.734867 122.413913,0 0,-3.734867 -122.413913,0 z"
         id="path4169"
         inkscape:connector-curvature="0" />
    </mask>
  </defs>
  <metadata
     id="metadata7">
    <rdf:RDF>
      <cc:Work
         rdf:about="">
        <dc:format>image/svg+xml</dc:format>
        <dc:type
           rdf:resource="http://purl.org/dc/dcmitype/StillImage" />
        <dc:title></dc:title>
      </cc:Work>
    </rdf:RDF>
  </metadata>
  <path
     inkscape:connector-curvature="0"
     style="fill:url(#radialGradient4081);fill-opacity:1;fill-rule:evenodd;stroke:none;filter:url(#filter4091)"
     id="path4231"
     transform="matrix(1.0977176,0,0,1.0977176,-9.1058606,-6.0785808)"
     d="m 112.50512,114.04181 a 45.862629,2.4138227 0 1 1 -91.725255,0 45.862629,2.4138227 0 1 1 91.725255,0 z" />
  <path
     inkscape:connector-curvature="0"
     style="fill:url(#linearGradient3243);fill-opacity:1;stroke:none"
     id="path4191"
     d="m 75.835264,5.7797079 a 0.43313128,0.43313128 0 0 1 0.231787,0.1428525 c 0,0 3.741339,4.2149546 7.529859,8.4918476 1.89426,2.138447 3.78389,4.300992 5.250244,5.952665 0.733178,0.825837 1.364103,1.521201 1.818212,2.030607 0.45411,0.509407 0.769281,0.856256 0.800605,0.889084 a 0.43313128,0.43313128 0 0 1 -0.05761,0.633823 l -1.975166,1.40726 a 0.43313128,0.43313128 0 0 1 -0.60273,-0.08132 L 75.406706,6.4750693 a 0.43313128,0.43313128 0 0 1 0.428558,-0.6953614 z" />
  <path
     inkscape:connector-curvature="0"
     style="fill:url(#linearGradient3240);fill-opacity:1;stroke:none"
     id="path4187"
     d="m 116.32709,11.033133 a 0.43313128,0.43313128 0 0 0 -0.26086,0.07802 c 0,0 -4.70451,3.103398 -9.47061,6.254417 -2.38306,1.57551 -4.76787,3.175495 -6.611646,4.391523 -0.921887,0.608014 -1.711244,1.116455 -2.281693,1.491019 -0.570449,0.374565 -0.964631,0.628056 -1.003382,0.651661 a 0.43313128,0.43313128 0 0 0 -0.108342,0.627148 l 1.543794,1.870389 a 0.43313128,0.43313128 0 0 0 0.603245,0.0774 L 116.56113,11.8157 a 0.43313128,0.43313128 0 0 0 -0.23404,-0.782567 z" />
  <g
     id="g4063"
     transform="matrix(1.0977176,0,0,1.2768416,66.322826,-1210.2242)">
    <rect
       style="fill:url(#linearGradient4069);fill-opacity:1;fill-rule:evenodd;stroke:none"
       id="rect4065"
       transform="translate(0,924.36218)"
       y="109.29908"
       x="29.090326"
       ry="2.25"
       rx="2.25"
       height="7.7178416"
       width="12.48773" />
    <rect
       style="fill:url(#linearGradient4071);fill-opacity:1;fill-rule:evenodd;stroke:none"
       id="rect4067"
       transform="translate(0,924.36218)"
       y="109.29908"
       x="29.090326"
       ry="2.25"
       rx="2.25"
       height="7.7178416"
       width="12.48773" />
  </g>
  <g
     id="g4055"
     transform="matrix(1.0977176,0,0,1.2768416,-13.998355,-1210.2242)">
    <rect
       style="fill:url(#linearGradient4059);fill-opacity:1;fill-rule:evenodd;stroke:none"
       id="rect4026"
       transform="translate(0,924.36218)"
       y="109.29908"
       x="29.090326"
       ry="2.25"
       rx="2.25"
       height="7.7178416"
       width="12.48773" />
    <rect
       style="fill:url(#linearGradient4061);fill-opacity:1;fill-rule:evenodd;stroke:none"
       id="rect4045"
       transform="translate(0,924.36218)"
       y="109.29908"
       x="29.090326"
       ry="2.25"
       rx="2.25"
       height="7.7178416"
       width="12.48773" />
  </g>
  <path
     inkscape:connector-curvature="0"
     style="fill:url(#radialGradient3231);fill-opacity:1;fill-rule:evenodd;stroke:none"
     id="path3910"
     d="m 102.96362,29.947715 a 9.3488737,9.3488737 0 0 1 -18.545701,-2.37964 9.3488737,9.3488737 0 1 1 18.545701,2.37964 z" />
  <path
     inkscape:connector-curvature="0"
     style="fill:#845011;fill-opacity:1;fill-rule:evenodd;stroke:none;filter:url(#filter4219)"
     id="path4209"
     clip-path="url(#clipPath4225)"
     transform="matrix(2.1273307,0.2729625,-0.13970521,1.0887913,-47.35639,-24.480818)"
     d="m 80.625,34.4375 a 12.1875,4.0625 0 1 1 -24.375,0 12.1875,4.0625 0 1 1 24.375,0 z" />
  <path
     inkscape:connector-curvature="0"
     style="fill:#c0811d;fill-opacity:1;fill-rule:evenodd;stroke:none"
     id="path3122"
     d="m 113.94233,110.87129 c -13.28373,10.44735 -84.79928,10.44735 -98.083009,0 -13.2837288,-10.44735 -13.2837288,-66.6927 -10e-7,-77.140048 13.283729,-10.44735 84.79928,-10.44735 98.08301,-1e-6 13.28373,10.447349 13.28373,66.692699 0,77.140049 z" />
  <path
     inkscape:connector-curvature="0"
     style="fill:url(#linearGradient3933);fill-opacity:1;fill-rule:evenodd;stroke:none;filter:url(#filter3947)"
     id="path3925"
     transform="matrix(1.0977176,0,0,1.0977176,-6.3409607,1.3750374)"
     d="m 64.90625,24 c -9.588293,0 -19.173942,0.611575 -27.0625,1.78125 -7.888558,1.169675 -14.140228,3.070361 -16.59375,5 -2.454418,1.930343 -4.747824,6.632101 -6.21875,12.75 -1.470926,6.117899 -2.21875,13.608826 -2.21875,21.09375 0,7.484924 0.747824,14.944601 2.21875,21.0625 1.470926,6.117899 3.764332,10.819657 6.21875,12.75 2.454578,1.93047 8.677726,3.8584 16.5625,5.03125 7.884774,1.17285 17.47559,1.75 27.0625,1.75 9.58691,0 19.208976,-0.57715 27.09375,-1.75 7.884774,-1.17285 14.10792,-3.10078 16.5625,-5.03125 2.45442,-1.930343 4.74782,-6.632101 6.21875,-12.75 1.47093,-6.117899 2.21875,-13.577576 2.21875,-21.0625 0,-7.484924 -0.74782,-14.975851 -2.21875,-21.09375 -1.47093,-6.117899 -3.76433,-10.819657 -6.21875,-12.75 -2.45462,-1.9305 -8.681889,-3.830362 -16.5625,-5 C 84.088139,24.611612 74.494543,24 64.90625,24 z m 0,2.84375 c 8.314958,0 16.618004,0.499012 23.5625,1.53125 6.944496,1.032238 12.47033,2.425177 15.625,4.90625 3.15467,2.48108 5.07271,7.046287 6.40625,12.59375 1.33354,5.547463 1.96875,12.151543 1.96875,18.75 0,6.598457 -0.63521,13.171287 -1.96875,18.71875 -1.33354,5.547463 -3.25158,10.11267 -6.40625,12.59375 -3.1545,2.480943 -8.680634,3.873448 -15.625,4.90625 -6.944366,1.0328 -15.246871,1.53125 -23.5625,1.53125 -8.315629,0 -16.618134,-0.49845 -23.5625,-1.53125 C 34.399384,99.810948 28.873253,98.418443 25.71875,95.9375 22.564075,93.45642 20.646042,88.891213 19.3125,83.34375 17.978958,77.796287 17.34375,71.223457 17.34375,64.625 c 0,-6.598457 0.635208,-13.202537 1.96875,-18.75 1.333542,-5.547463 3.251575,-10.11267 6.40625,-12.59375 3.154667,-2.481073 8.680504,-3.874012 15.625,-4.90625 6.944496,-1.032238 15.247542,-1.53125 23.5625,-1.53125 z" />
  <path
     inkscape:connector-curvature="0"
     style="fill:url(#linearGradient3225);fill-opacity:1;fill-rule:evenodd;stroke:none"
     id="path3124"
     d="m 106.78298,105.24061 c -11.344499,8.92219 -72.419805,8.92219 -83.764299,0 -11.344494,-8.922184 -11.344494,-56.956515 -1e-6,-65.8787 11.344495,-8.922185 72.4198,-8.922185 83.7643,0 11.34449,8.922185 11.34449,56.956515 0,65.8787 z" />
  <path
     inkscape:connector-curvature="0"
     style="fill:#000000;fill-opacity:1;fill-rule:evenodd;stroke:none"
     id="path3975"
     d="m 102.90181,102.18815 c -10.293216,8.09538 -65.708746,8.09538 -76.001959,0 -10.293214,-8.095375 -10.293214,-51.678421 -1e-6,-59.773797 10.293214,-8.095377 65.708743,-8.095378 76.00196,-10e-7 10.29321,8.095377 10.29321,51.678423 0,59.773798 z" />
  <path
     inkscape:connector-curvature="0"
     style="opacity:0.87727272000000001;fill:url(#linearGradient3221);fill-opacity:1;fill-rule:evenodd;stroke:none"
     id="path3959"
     d="m 102.64354,101.98504 c -10.223257,8.04036 -65.262165,8.04036 -75.485423,0 -10.223257,-8.040359 -10.223257,-51.327201 0,-59.367559 10.223257,-8.040358 65.262165,-8.040358 75.485423,0 10.22326,8.040358 10.22326,51.327199 0,59.367559 z" />
  <path
     inkscape:connector-curvature="0"
     style="fill:#692400;fill-opacity:1;fill-rule:evenodd;stroke:none;filter:url(#filter3996)"
     id="path3979"
     clip-path="url(#clipPath4000)"
     transform="matrix(1.0977176,0,0,1.0977176,-164.56611,1.3750374)"
     d="m 208.875,18.78125 c -20.93993,0 -41.47706,2.559113 -48.0375,7.71875 -13.12088,10.319274 -13.12088,65.899476 0,76.21875 13.12088,10.31927 82.65412,10.31927 95.775,0 13.12088,-10.319274 13.12088,-65.899476 0,-76.21875 -6.56044,-5.159637 -26.79757,-7.71875 -47.7375,-7.71875 z m 0,2.5625 c 19.31264,0 37.90564,2.366331 43.95625,7.125 12.10123,9.517337 12.10123,60.763913 0,70.28125 -12.10123,9.51734 -76.14252,9.51734 -88.24375,0 -12.10123,-9.517337 -12.10123,-60.763913 0,-70.28125 6.05061,-4.758669 24.97486,-7.125 44.2875,-7.125 z" />
  <path
     inkscape:connector-curvature="0"
     style="opacity:0.38636364;fill:url(#radialGradient3246);fill-opacity:1;fill-rule:evenodd;stroke:none;filter:url(#filter4363)"
     id="path4012"
     mask="url(#mask4167)"
     transform="matrix(0.91492868,0,0,0.71957047,38.159704,40.157542)"
     d="m 70.370874,86.285545 c -10.930979,10.93098 -69.78004851,10.93098 -80.711028,0 -10.93098,-10.930979 -10.93098,-69.780049 -10e-7,-80.7110284 10.93098014,-10.9309799 69.780049,-10.9309801 80.711029,-3e-7 10.93098,10.9309797 10.93098,69.7800487 0,80.7110287 z" />
  <path
     inkscape:connector-curvature="0"
     style="opacity:0.68636361;fill:url(#radialGradient4500);fill-opacity:1;fill-rule:evenodd;stroke:none;filter:url(#filter4502)"
     id="path4073"
     transform="matrix(1.0977176,0,0,1.0977176,-9.1058606,-4.5417721)"
     d="m 112.50512,114.04181 a 45.862629,2.4138227 0 1 1 -91.725255,0 45.862629,2.4138227 0 1 1 91.725255,0 z" />
  <path
     inkscape:connector-curvature="0"
     style="fill:url(#radialGradient4097);fill-opacity:1;fill-rule:evenodd;stroke:none;filter:url(#filter4091)"
     id="path4095"
     transform="matrix(0.28115708,0,0,0.41262035,6.1062178,72.506323)"
     d="m 112.50512,114.04181 a 45.862629,2.4138227 0 1 1 -91.725255,0 45.862629,2.4138227 0 1 1 91.725255,0 z" />
  <path
     inkscape:connector-curvature="0"
     style="fill:url(#radialGradient4101);fill-opacity:1;fill-rule:evenodd;stroke:none;filter:url(#filter4091)"
     id="path4099"
     transform="matrix(0.28115708,0,0,0.41262035,84.961089,72.506323)"
     d="m 112.50512,114.04181 a 45.862629,2.4138227 0 1 1 -91.725255,0 45.862629,2.4138227 0 1 1 91.725255,0 z" />
  <path
     inkscape:connector-curvature="0"
     style="opacity:0.34545456;fill:url(#linearGradient4130);fill-opacity:1;fill-rule:evenodd;stroke:none;filter:url(#filter4116)"
     id="path4111"
     clip-path="url(#clipPath4120)"
     transform="matrix(1.0977176,0,0,1.0977176,-237.68509,1.8406478)"
     d="m 275.625,10.8125 c -22.05271,0 -44.09093,2.691172 -51,8.125 -13.81815,10.867656 -13.81815,69.382344 0,80.25 13.81815,10.86766 88.2131,10.86766 102.03125,0 13.81815,-10.867656 13.81815,-69.382344 0,-80.25 -6.90907,-5.433828 -28.97854,-8.125 -51.03125,-8.125 z m 0,12.75 c 18.8683,0 37.74485,2.319567 43.65625,6.96875 11.82281,9.298367 11.82281,59.357883 0,68.65625 -11.82281,9.29837 -75.45844,9.29837 -87.28125,0 -11.82281,-9.298367 -11.82281,-59.357883 0,-68.65625 5.9114,-4.649183 24.7567,-6.96875 43.625,-6.96875 z" />
  <path
     inkscape:connector-curvature="0"
     style="opacity:0.77727272;fill:#000000;fill-opacity:1;fill-rule:evenodd;stroke:none;filter:url(#filter4149)"
     id="path4136"
     clip-path="url(#clipPath4157)"
     transform="matrix(1.0977176,0,0,1.0977176,-162.42494,-6.3089852)"
     d="m 203.4375,29 c -18.20773,0.281155 -35.68646,2.689015 -41.40625,7.1875 -12.20222,9.596768 -14.02418,63.068944 -1.82196,72.66571 12.20222,9.59677 81.53545,9.59677 93.73767,0 C 266.14918,99.256444 264.32722,45.784268 252.125,36.1875 245.64257,31.089217 224.07293,28.681357 203.4375,29 z m 3.65625,10.5625 c 13.53014,0 27.04228,1.666149 31.28125,5 8.47794,6.667702 10.2999,44.40426 1.82196,51.071962 -8.47794,6.667698 -57.75973,6.667698 -66.23767,0 -8.47794,-6.667702 -6.65598,-44.40426 1.82196,-51.071962 4.23897,-3.333851 17.78236,-5 31.3125,-5 z"
     sodipodi:nodetypes="ssssssssssss" />
  <path
     inkscape:connector-curvature="0"
     style="fill:url(#radialGradient3211);fill-opacity:1;fill-rule:evenodd;stroke:none"
     id="path4195"
     d="m 120.28996,11.138232 a 2.9047851,2.9047851 0 0 1 -5.76233,-0.739377 2.9047851,2.9047851 0 1 1 5.76233,0.739377 z" />
  <path
     inkscape:connector-curvature="0"
     style="fill:url(#radialGradient3208);fill-opacity:1;fill-rule:evenodd;stroke:none"
     id="path4199"
     d="M 78.265649,5.7244828 A 2.9261206,2.9261206 0 0 1 72.460997,4.9796751 2.9261206,2.9261206 0 1 1 78.265649,5.7244828 z" />
  <g
     style="filter:url(#filter4240)"
     id="g4237"
     transform="matrix(1.0977176,0,0,1.0977176,-6.3409607,-1020.9977)">
    <path
       inkscape:connector-curvature="0"
       style="opacity:0.34545456;fill:url(#linearGradient4506);fill-opacity:1;fill-rule:evenodd;stroke:none;filter:url(#filter4116)"
       id="path4233"
       clip-path="url(#clipPath4120)"
       transform="matrix(0.88585139,0,0,-0.88585139,-179.28656,1053.3753)"
       d="m 275.625,10.8125 c -22.05271,0 -44.09093,2.691172 -51,8.125 -13.81815,10.867656 -13.81815,69.382344 0,80.25 13.81815,10.86766 88.2131,10.86766 102.03125,0 13.81815,-10.867656 13.81815,-69.382344 0,-80.25 -6.90907,-5.433828 -28.97854,-8.125 -51.03125,-8.125 z m 0,12.75 c 18.8683,0 37.74485,2.319567 43.65625,6.96875 11.82281,9.298367 11.82281,59.357883 0,68.65625 -11.82281,9.29837 -75.45844,9.29837 -87.28125,0 -11.82281,-9.298367 -11.82281,-59.357883 0,-68.65625 5.9114,-4.649183 24.7567,-6.96875 43.625,-6.96875 z" />
  </g>
  <rect
     width="5.3332005"
     height="5.3331985"
     rx="0"
     ry="0"
     x="-47.998798"
     y="50.668598"
     transform="scale(-1,1)"
     id="rect4383"
     style="opacity:0.85909095;fill:#000000;fill-opacity:1;fill-rule:evenodd;stroke:none" />
  <path
     inkscape:connector-curvature="0"
     style="opacity:0.77727272;fill:#000000;fill-opacity:1;fill-rule:evenodd;stroke:none;filter:url(#filter4149)"
     id="path4327"
     clip-path="url(#clipPath4157)"
     transform="matrix(1.0977176,0,0,1.0977176,-162.42494,-6.3089852)"
     d="m 203.4375,29 c -18.20773,0.281155 -35.68646,2.689015 -41.40625,7.1875 -12.20222,9.596768 -13.1132,62.157963 -0.91098,71.75473 12.20222,9.59677 80.62447,10.50775 92.82669,0.91098 C 266.14918,99.256444 264.32722,45.784268 252.125,36.1875 245.64257,31.089217 224.07293,28.681357 203.4375,29 z m 3.65625,10.5625 c 13.53014,0 27.04228,1.666149 31.28125,5 8.47794,6.667702 12.12186,46.226222 3.64392,52.893924 -8.47794,6.667696 -61.40365,6.667696 -69.88159,0 -8.47794,-6.667702 -4.83402,-46.226222 3.64392,-52.893924 4.23897,-3.333851 17.78236,-5 31.3125,-5 z"
     sodipodi:nodetypes="ssssssssssss" />
  <rect
     style="opacity:0.85909095;fill:#000000;fill-opacity:1;fill-rule:evenodd;stroke:none"
     id="rect3307"
     transform="scale(-1,1)"
     y="56.001797"
     x="-53.331997"
     ry="0"
     rx="0"
     height="5.3332"
     width="5.3332019" />
  <rect
     width="5.333199"
     height="5.3332"
     rx="0"
     ry="0"
     x="-42.665596"
     y="56.001797"
     transform="scale(-1,1)"
     id="rect3309"
     style="opacity:0.85909095;fill:#000000;fill-opacity:1;fill-rule:evenodd;stroke:none" />
  <rect
     width="5.3332019"
     height="5.3332"
     rx="0"
     ry="0"
     x="-53.331997"
     y="61.334999"
     transform="scale(-1,1)"
     id="rect3311"
     style="opacity:0.85909095;fill:#000000;fill-opacity:1;fill-rule:evenodd;stroke:none" />
  <rect
     style="opacity:0.85909095;fill:#000000;fill-opacity:1;fill-rule:evenodd;stroke:none"
     id="rect3313"
     transform="scale(-1,1)"
     y="61.334999"
     x="-42.665596"
     ry="0"
     rx="0"
     height="5.3332"
     width="5.333199" />
  <rect
     style="opacity:0.85909095;fill:#000000;fill-opacity:1;fill-rule:evenodd;stroke:none"
     id="rect3315"
     transform="scale(-1,1)"
     y="66.668198"
     x="-53.331997"
     ry="0"
     rx="0"
     height="5.3332"
     width="5.3332019" />
  <rect
     width="5.333199"
     height="5.3332"
     rx="0"
     ry="0"
     x="-42.665596"
     y="66.668198"
     transform="scale(-1,1)"
     id="rect3317"
     style="opacity:0.85909095;fill:#000000;fill-opacity:1;fill-rule:evenodd;stroke:none" />
  <rect
     width="5.3332019"
     height="5.3332"
     rx="0"
     ry="0"
     x="-47.998798"
     y="66.668198"
     transform="scale(-1,1)"
     id="rect3319"
     style="opacity:0.85909095;fill:#000000;fill-opacity:1;fill-rule:evenodd;stroke:none" />
  <rect
     style="opacity:0.85909095;fill:#000000;fill-opacity:1;fill-rule:evenodd;stroke:none"
     id="rect3321"
     transform="scale(-1,1)"
     y="50.668598"
     x="-90.664406"
     ry="0"
     rx="0"
     height="5.3331985"
     width="5.3332005" />
  <rect
     width="5.3332019"
     height="5.3332"
     rx="0"
     ry="0"
     x="-95.997604"
     y="56.001797"
     transform="scale(-1,1)"
     id="rect3323"
     style="opacity:0.85909095;fill:#000000;fill-opacity:1;fill-rule:evenodd;stroke:none" />
  <rect
     style="opacity:0.85909095;fill:#000000;fill-opacity:1;fill-rule:evenodd;stroke:none"
     id="rect3325"
     transform="scale(-1,1)"
     y="56.001797"
     x="-85.3312"
     ry="0"
     rx="0"
     height="5.3332"
     width="5.333199" />
  <rect
     style="opacity:0.85909095;fill:#000000;fill-opacity:1;fill-rule:evenodd;stroke:none"
     id="rect3327"
     transform="scale(-1,1)"
     y="61.334999"
     x="-95.997604"
     ry="0"
     rx="0"
     height="5.3332"
     width="5.3332019" />
  <rect
     width="5.333199"
     height="5.3332"
     rx="0"
     ry="0"
     x="-85.3312"
     y="61.334999"
     transform="scale(-1,1)"
     id="rect3329"
     style="opacity:0.85909095;fill:#000000;fill-opacity:1;fill-rule:evenodd;stroke:none" />
  <rect
     width="5.3332019"
     height="5.3332"
     rx="0"
     ry="0"
     x="-95.997604"
     y="66.668198"
     transform="scale(-1,1)"
     id="rect3331"
     style="opacity:0.85909095;fill:#000000;fill-opacity:1;fill-rule:evenodd;stroke:none" />
  <rect
     style="opacity:0.85909095;fill:#000000;fill-opacity:1;fill-rule:evenodd;stroke:none"
     id="rect3333"
     transform="scale(-1,1)"
     y="66.668198"
     x="-85.3312"
     ry="0"
     rx="0"
     height="5.3332"
     width="5.333199" />
  <rect
     style="opacity:0.85909095;fill:#000000;fill-opacity:1;fill-rule:evenodd;stroke:none"
     id="rect3335"
     transform="scale(-1,1)"
     y="66.668198"
     x="-90.664406"
     ry="0"
     rx="0"
     height="5.3332"
     width="5.3332019" />
  <rect
     style="opacity:0.85909095;fill:#000000;fill-opacity:1;fill-rule:evenodd;stroke:none"
     id="rect3337"
     transform="scale(-1,1)"
     y="82.667801"
     x="-53.332001"
     ry="0"
     rx="0"
     height="5.3331985"
     width="5.3332005" />
  <rect
     width="5.3332005"
     height="5.3331985"
     rx="0"
     ry="0"
     x="-58.665199"
     y="88.000999"
     transform="scale(-1,1)"
     id="rect3339"
     style="opacity:0.85909095;fill:#000000;fill-opacity:1;fill-rule:evenodd;stroke:none" />
  <rect
     style="opacity:0.85909095;fill:#000000;fill-opacity:1;fill-rule:evenodd;stroke:none"
     id="rect3341"
     transform="scale(-1,1)"
     y="88.000999"
     x="-63.998402"
     ry="0"
     rx="0"
     height="5.3331985"
     width="5.3332005" />
  <rect
     style="opacity:0.85909095;fill:#000000;fill-opacity:1;fill-rule:evenodd;stroke:none"
     id="rect3343"
     transform="scale(-1,1)"
     y="88.000999"
     x="-74.664803"
     ry="0"
     rx="0"
     height="5.3331985"
     width="5.3332005" />
  <rect
     width="5.3332005"
     height="5.3331985"
     rx="0"
     ry="0"
     x="-79.998009"
     y="88.000999"
     transform="scale(-1,1)"
     id="rect3345"
     style="opacity:0.85909095;fill:#000000;fill-opacity:1;fill-rule:evenodd;stroke:none" />
  <rect
     style="opacity:0.85909095;fill:#000000;fill-opacity:1;fill-rule:evenodd;stroke:none"
     id="rect3347"
     transform="scale(-1,1)"
     y="82.667801"
     x="-85.331207"
     ry="0"
     rx="0"
     height="5.3331985"
     width="5.3332005" />
  <rect
     width="5.3332005"
     height="5.3331985"
     rx="0"
     ry="0"
     x="-69.331604"
     y="88.000999"
     transform="scale(-1,1)"
     id="rect3349"
     style="opacity:0.85909095;fill:#000000;fill-opacity:1;fill-rule:evenodd;stroke:none" />
  <path
     inkscape:connector-curvature="0"
     style="opacity:0.87727272;fill:url(#linearGradient3155);fill-opacity:1;fill-rule:evenodd;stroke:none"
     id="path4173"
     d="m 64.406938,37.716353 c -7.031487,0 -14.054087,0.421763 -19.999042,1.30354 -5.944955,0.881777 -10.663055,1.887226 -14.064507,4.562389 -3.872414,3.045564 -5.486867,8.053466 -6.620609,13.824381 a 3.6323789,3.6323789 0 0 0 2.607079,4.185048 c 10.285691,2.803469 23.181417,4.425174 37.219488,4.425174 14.819159,0 28.357644,-1.809649 38.900363,-4.905425 a 3.6323789,3.6323789 0 0 0 2.53848,-4.219352 c -1.14282,-5.52816 -2.71082,-10.342782 -6.483399,-13.309826 -3.405128,-2.678056 -8.145733,-3.680734 -14.09881,-4.562389 -5.953077,-0.881655 -12.967555,-1.30354 -19.999043,-1.30354 z" />
</svg>
