<?xml version="1.0" encoding="UTF-8" standalone="no"?>
<!-- Created with Inkscape (http://www.inkscape.org/) -->

<svg
   xmlns:dc="http://purl.org/dc/elements/1.1/"
   xmlns:cc="http://creativecommons.org/ns#"
   xmlns:rdf="http://www.w3.org/1999/02/22-rdf-syntax-ns#"
   xmlns:svg="http://www.w3.org/2000/svg"
   xmlns="http://www.w3.org/2000/svg"
   xmlns:xlink="http://www.w3.org/1999/xlink"
   xmlns:sodipodi="http://sodipodi.sourceforge.net/DTD/sodipodi-0.dtd"
   xmlns:inkscape="http://www.inkscape.org/namespaces/inkscape"
   width="128"
   height="128"
   id="svg2"
   sodipodi:version="0.32"
   inkscape:version="0.47 r22583"
   version="1.0"
   sodipodi:docname="printer-laser.svgz"
   inkscape:output_extension="org.inkscape.output.svgz.inkscape"
   inkscape:export-filename="/home/pinheiro/pics/oxygen-icons/scalable/devices/printer-laser.png"
   inkscape:export-xdpi="135"
   inkscape:export-ydpi="135">
  <defs
     id="defs4">
    <linearGradient
       inkscape:collect="always"
       id="linearGradient16203">
      <stop
         style="stop-color:#000000;stop-opacity:1;"
         offset="0"
         id="stop16205" />
      <stop
         style="stop-color:#000000;stop-opacity:0;"
         offset="1"
         id="stop16207" />
    </linearGradient>
    <linearGradient
       inkscape:collect="always"
       id="linearGradient16181">
      <stop
         style="stop-color:#000000;stop-opacity:0.44351464"
         offset="0"
         id="stop16183" />
      <stop
         style="stop-color:#000000;stop-opacity:0;"
         offset="1"
         id="stop16185" />
    </linearGradient>
    <linearGradient
       id="linearGradient16138">
      <stop
         id="stop16140"
         offset="0"
         style="stop-color:#ffffff;stop-opacity:1;" />
      <stop
         style="stop-color:#d4d4d4;stop-opacity:1;"
         offset="0.77628052"
         id="stop16144" />
      <stop
         id="stop16142"
         offset="1"
         style="stop-color:#a9a9a9;stop-opacity:1" />
    </linearGradient>
    <linearGradient
       inkscape:collect="always"
       id="linearGradient16076">
      <stop
         style="stop-color:#ffffff;stop-opacity:1;"
         offset="0"
         id="stop16078" />
      <stop
         style="stop-color:#ffffff;stop-opacity:0;"
         offset="1"
         id="stop16080" />
    </linearGradient>
    <linearGradient
       inkscape:collect="always"
       id="linearGradient16018">
      <stop
         style="stop-color:#ffffff;stop-opacity:1;"
         offset="0"
         id="stop16020" />
      <stop
         style="stop-color:#ffffff;stop-opacity:0;"
         offset="1"
         id="stop16022" />
    </linearGradient>
    <linearGradient
       inkscape:collect="always"
       id="linearGradient15999">
      <stop
         style="stop-color:#2d2d2d;stop-opacity:1;"
         offset="0"
         id="stop16001" />
      <stop
         style="stop-color:#2d2d2d;stop-opacity:0;"
         offset="1"
         id="stop16003" />
    </linearGradient>
    <linearGradient
       inkscape:collect="always"
       id="linearGradient15978">
      <stop
         style="stop-color:#ffffff;stop-opacity:1;"
         offset="0"
         id="stop15980" />
      <stop
         style="stop-color:#ffffff;stop-opacity:0;"
         offset="1"
         id="stop15982" />
    </linearGradient>
    <linearGradient
       inkscape:collect="always"
       id="linearGradient15942">
      <stop
         style="stop-color:#494f59;stop-opacity:1;"
         offset="0"
         id="stop15944" />
      <stop
         style="stop-color:#494f59;stop-opacity:0;"
         offset="1"
         id="stop15946" />
    </linearGradient>
    <linearGradient
       id="linearGradient15907">
      <stop
         style="stop-color:#a7ff37;stop-opacity:1;"
         offset="0"
         id="stop15909" />
      <stop
         id="stop15915"
         offset="0.76602578"
         style="stop-color:#74ba1b;stop-opacity:1;" />
      <stop
         style="stop-color:#427600;stop-opacity:1;"
         offset="1"
         id="stop15911" />
    </linearGradient>
    <linearGradient
       id="linearGradient15885">
      <stop
         style="stop-color:#c1c2c6;stop-opacity:1;"
         offset="0"
         id="stop15887" />
      <stop
         style="stop-color:#8a8c94;stop-opacity:1;"
         offset="1"
         id="stop15889" />
    </linearGradient>
    <linearGradient
       inkscape:collect="always"
       id="linearGradient15826">
      <stop
         style="stop-color:#0a0a0a;stop-opacity:1;"
         offset="0"
         id="stop15828" />
      <stop
         style="stop-color:#0a0a0a;stop-opacity:0;"
         offset="1"
         id="stop15830" />
    </linearGradient>
    <linearGradient
       inkscape:collect="always"
       id="linearGradient15786">
      <stop
         style="stop-color:#ffffff;stop-opacity:1;"
         offset="0"
         id="stop15788" />
      <stop
         style="stop-color:#a9a9a9;stop-opacity:1"
         offset="1"
         id="stop15790" />
    </linearGradient>
    <linearGradient
       inkscape:collect="always"
       id="linearGradient15772">
      <stop
         style="stop-color:#000000;stop-opacity:1;"
         offset="0"
         id="stop15774" />
      <stop
         style="stop-color:#000000;stop-opacity:0;"
         offset="1"
         id="stop15776" />
    </linearGradient>
    <linearGradient
       id="linearGradient14266">
      <stop
         id="stop14268"
         offset="0"
         style="stop-color:#ffffff;stop-opacity:1;" />
      <stop
         style="stop-color:#b8babd;stop-opacity:1;"
         offset="0.05526761"
         id="stop15744" />
      <stop
         style="stop-color:#9e9fa4;stop-opacity:1;"
         offset="0.56930101"
         id="stop14270" />
      <stop
         style="stop-color:#c7c8cd;stop-opacity:1"
         offset="0.6357947"
         id="stop14272" />
      <stop
         id="stop14274"
         offset="0.75"
         style="stop-color:#e1e2e7;stop-opacity:1" />
      <stop
         style="stop-color:#dfe0e5;stop-opacity:1"
         offset="0.79792732"
         id="stop14276" />
      <stop
         id="stop14278"
         offset="1"
         style="stop-color:#b6b8bd;stop-opacity:1" />
    </linearGradient>
    <linearGradient
       id="linearGradient14229">
      <stop
         style="stop-color:#d5d8db;stop-opacity:1;"
         offset="0"
         id="stop14231" />
      <stop
         id="stop14239"
         offset="0.56930101"
         style="stop-color:#d5d6db;stop-opacity:1" />
      <stop
         id="stop14237"
         offset="0.61744404"
         style="stop-color:#e1e1e7;stop-opacity:1" />
      <stop
         style="stop-color:#fbfafc;stop-opacity:1;"
         offset="0.72430909"
         id="stop14241" />
      <stop
         id="stop14243"
         offset="0.79792732"
         style="stop-color:#dadce1;stop-opacity:1" />
      <stop
         style="stop-color:#b8bdc1;stop-opacity:1"
         offset="1"
         id="stop14233" />
    </linearGradient>
    <linearGradient
       id="linearGradient4244">
      <stop
         style="stop-color:#2b2b2b;stop-opacity:1;"
         offset="0"
         id="stop4246" />
      <stop
         id="stop4252"
         offset="0.5"
         style="stop-color:#ffffff;stop-opacity:1;" />
      <stop
         style="stop-color:#3d3d3d;stop-opacity:1;"
         offset="1"
         id="stop4248" />
    </linearGradient>
    <linearGradient
       inkscape:collect="always"
       xlink:href="#linearGradient14229"
       id="linearGradient14235"
       x1="-52"
       y1="112"
       x2="-52"
       y2="15.667243"
       gradientUnits="userSpaceOnUse"
       gradientTransform="matrix(1.0054283,0,0,1.0067912,139.40551,2.5600928)" />
    <filter
       inkscape:collect="always"
       id="filter14247"
       x="-0.036002254"
       width="1.0720045"
       y="-0.86765432"
       height="2.7353086">
      <feGaussianBlur
         inkscape:collect="always"
         stdDeviation="1.8076132"
         id="feGaussianBlur14249" />
    </filter>
    <filter
       inkscape:collect="always"
       id="filter15768"
       x="-0.085551062"
       width="1.1711021"
       y="-0.19282407"
       height="1.3856481">
      <feGaussianBlur
         inkscape:collect="always"
         stdDeviation="1.2854938"
         id="feGaussianBlur15770" />
    </filter>
    <linearGradient
       inkscape:collect="always"
       xlink:href="#linearGradient15772"
       id="linearGradient15778"
       x1="134"
       y1="79"
       x2="162"
       y2="59"
       gradientUnits="userSpaceOnUse" />
    <clipPath
       clipPathUnits="userSpaceOnUse"
       id="clipPath15780">
      <path
         id="path15782"
         d="m 127.9375,72 0,4 c 0,2.77 2.23,5 5,5 L 159,81 c 2.77,0 5,-2.23 5,-5 l 0,-4 -36.0625,0 z"
         style="opacity:0.41841006;fill:#d6d5db;fill-opacity:1;stroke:none"
         inkscape:transform-center-x="86.03125"
         sodipodi:nodetypes="ccccccc" />
    </clipPath>
    <linearGradient
       inkscape:collect="always"
       xlink:href="#linearGradient15786"
       id="linearGradient15792"
       x1="104"
       y1="72"
       x2="104"
       y2="136.12488"
       gradientUnits="userSpaceOnUse"
       gradientTransform="matrix(1.0054283,0,0,1.0067912,1.1591345,3.8388388)" />
    <linearGradient
       inkscape:collect="always"
       xlink:href="#linearGradient4244"
       id="linearGradient15804"
       x1="-7.5579267"
       y1="100.6076"
       x2="126.1358"
       y2="23.419485"
       gradientUnits="userSpaceOnUse"
       gradientTransform="matrix(0.59981991,0,0,0.59981989,26.757558,28.881811)" />
    <filter
       inkscape:collect="always"
       id="filter15816"
       x="-0.020231349"
       width="1.0404627"
       y="-0.11863943"
       height="1.2372789">
      <feGaussianBlur
         inkscape:collect="always"
         stdDeviation="0.20152754"
         id="feGaussianBlur15818" />
    </filter>
    <clipPath
       clipPathUnits="userSpaceOnUse"
       id="clipPath15844">
      <path
         mask="none"
         style="opacity:0.59414224;fill:url(#linearGradient15848);fill-opacity:1;stroke:none"
         d="m -120,16 c -3.324,0 -3.9661,0.840883 -5,4 l -4.90625,14.9375 C -131.24343,39.023296 -132,45.536783 -132,50.0625 L -132,108 c 0,3.324 2.676,6 6,6 l 110,0 c 3.324,0 6,-2.676 6,-6 l 0,-57.9375 c 0,-4.525717 -0.75657,-11.039204 -2.09375,-15.125 L -17,20 c -1.0339,-3.159117 -1.676,-4 -5,-4 l -98,0 z"
         id="path15846"
         sodipodi:nodetypes="ccccccccccccc"
         clip-path="none" />
    </clipPath>
    <linearGradient
       inkscape:collect="always"
       xlink:href="#linearGradient15826"
       id="linearGradient15848"
       gradientUnits="userSpaceOnUse"
       gradientTransform="translate(-272,0)"
       x1="112.9984"
       y1="63.680275"
       x2="144.92528"
       y2="63.680275" />
    <filter
       inkscape:collect="always"
       id="filter15856">
      <feGaussianBlur
         inkscape:collect="always"
         stdDeviation="1.5843621"
         id="feGaussianBlur15858" />
    </filter>
    <clipPath
       clipPathUnits="userSpaceOnUse"
       id="clipPath15873">
      <path
         style="opacity:0.209205;fill:url(#linearGradient15877);fill-opacity:1;stroke:none"
         mask="none"
         d="M 3,128.16667 3,121.5 c 0,-5.54 2.676,-10 6,-10 l 110,0 c 3.324,0 6,4.46 6,10 l 0,6.66667 -122,0 z"
         id="path15875" />
    </clipPath>
    <linearGradient
       inkscape:collect="always"
       xlink:href="#linearGradient14266"
       id="linearGradient15877"
       gradientUnits="userSpaceOnUse"
       gradientTransform="matrix(1,0,0,-1.6666667,139,301.5)"
       x1="-52"
       y1="116.00498"
       x2="-52"
       y2="15.667243" />
    <linearGradient
       inkscape:collect="always"
       xlink:href="#linearGradient15885"
       id="linearGradient15891"
       x1="2"
       y1="60"
       x2="4.2360678"
       y2="63.872982"
       gradientUnits="userSpaceOnUse"
       gradientTransform="matrix(2.0104446,0,0,1.3402965,-3.3112892,-15.508158)" />
    <linearGradient
       inkscape:collect="always"
       xlink:href="#linearGradient15885"
       id="linearGradient15895"
       gradientUnits="userSpaceOnUse"
       gradientTransform="matrix(2.0104446,0,0,1.3402965,121.33627,-15.508158)"
       x1="2"
       y1="60"
       x2="4.2360678"
       y2="63.872982" />
    <radialGradient
       inkscape:collect="always"
       xlink:href="#linearGradient15907"
       id="radialGradient15919"
       gradientUnits="userSpaceOnUse"
       cx="117.50485"
       cy="101.47604"
       fx="117.50485"
       fy="101.47604"
       r="1.4951468" />
    <linearGradient
       inkscape:collect="always"
       xlink:href="#linearGradient15942"
       id="linearGradient15948"
       x1="74.145844"
       y1="48.236305"
       x2="74.145844"
       y2="15.995978"
       gradientUnits="userSpaceOnUse"
       gradientTransform="matrix(1.0054283,0,0,0.97814291,-1.3544421,3.0184654)" />
    <linearGradient
       inkscape:collect="always"
       xlink:href="#linearGradient15978"
       id="linearGradient15984"
       x1="88"
       y1="-76.242203"
       x2="88"
       y2="56"
       gradientUnits="userSpaceOnUse"
       gradientTransform="matrix(1.0054283,0,0,0.97814291,-1.3544421,3.0184654)" />
    <linearGradient
       inkscape:collect="always"
       xlink:href="#linearGradient15978"
       id="linearGradient15992"
       gradientUnits="userSpaceOnUse"
       x1="76.5"
       y1="37.520771"
       x2="76.5"
       y2="31.491938"
       gradientTransform="matrix(1.0054283,0,0,0.97814291,-1.3544421,3.0184654)" />
    <linearGradient
       inkscape:collect="always"
       xlink:href="#linearGradient15999"
       id="linearGradient16014"
       gradientUnits="userSpaceOnUse"
       x1="72.203217"
       y1="24.103592"
       x2="72.203217"
       y2="32.002613"
       gradientTransform="matrix(1.0054283,0,0,0.97814291,-1.3544421,2.7184654)" />
    <linearGradient
       inkscape:collect="always"
       xlink:href="#linearGradient16018"
       id="linearGradient16024"
       x1="38"
       y1="26"
       x2="38"
       y2="32"
       gradientUnits="userSpaceOnUse"
       gradientTransform="matrix(2.0108565,0,0,0.97814291,-39.560717,3.6966084)" />
    <linearGradient
       inkscape:collect="always"
       xlink:href="#linearGradient16018"
       id="linearGradient16032"
       gradientUnits="userSpaceOnUse"
       gradientTransform="matrix(2.0108565,0,0,0.97814291,-35.539003,3.6966084)"
       x1="38"
       y1="26"
       x2="38"
       y2="32" />
    <linearGradient
       inkscape:collect="always"
       xlink:href="#linearGradient16018"
       id="linearGradient16040"
       gradientUnits="userSpaceOnUse"
       x1="38"
       y1="26"
       x2="38"
       y2="32"
       gradientTransform="matrix(2.0108565,0,0,0.97814291,12.721553,3.6966084)" />
    <linearGradient
       inkscape:collect="always"
       xlink:href="#linearGradient16018"
       id="linearGradient16044"
       gradientUnits="userSpaceOnUse"
       gradientTransform="matrix(2.0108565,0,0,0.97814291,16.743267,3.6966084)"
       x1="38"
       y1="26"
       x2="38"
       y2="32" />
    <filter
       inkscape:collect="always"
       id="filter16062"
       x="-0.023448833"
       width="1.0468977"
       y="-0.12532971"
       height="1.2506594">
      <feGaussianBlur
         inkscape:collect="always"
         stdDeviation="0.80529281"
         id="feGaussianBlur16064" />
    </filter>
    <clipPath
       clipPathUnits="userSpaceOnUse"
       id="clipPath16070">
      <path
         sodipodi:nodetypes="cccccccccccccccc"
         style="fill:url(#linearGradient16074);fill-opacity:1;stroke:none"
         mask="none"
         d="m 32,16 c -0.04948,0.223408 -0.104456,0.365693 -0.15625,0.625 l -3.4375,16.3125 C 27.678011,36.377331 27,39.65626 27,42.5 l 0,3.5 77,0 0,-3.5 c 0,-2.872723 -0.53302,-6.12751 -1.28125,-9.5625 L 99.15625,16.625 C 99.10446,16.365693 99.04948,16.223408 99,16 l -67,0 z m 0.88125,0 65.2375,0 2.2875,11 -69.71875,0 2.19375,-11 z"
         id="path16072" />
    </clipPath>
    <linearGradient
       inkscape:collect="always"
       xlink:href="#linearGradient15942"
       id="linearGradient16074"
       gradientUnits="userSpaceOnUse"
       x1="76"
       y1="12"
       x2="76"
       y2="28" />
    <linearGradient
       inkscape:collect="always"
       xlink:href="#linearGradient16076"
       id="linearGradient16082"
       x1="59.350136"
       y1="45.817299"
       x2="59.350136"
       y2="37.508793"
       gradientUnits="userSpaceOnUse" />
    <radialGradient
       inkscape:collect="always"
       xlink:href="#linearGradient16138"
       id="radialGradient16124"
       cx="112.65003"
       cy="32.664448"
       fx="112.62651"
       fy="30.449385"
       r="3.1992245"
       gradientTransform="matrix(1.2174064,0,0.03456132,0.41602345,-25.675572,19.464494)"
       gradientUnits="userSpaceOnUse" />
    <filter
       inkscape:collect="always"
       id="filter16154">
      <feGaussianBlur
         inkscape:collect="always"
         stdDeviation="0.082681545"
         id="feGaussianBlur16156" />
    </filter>
    <radialGradient
       inkscape:collect="always"
       xlink:href="#linearGradient16181"
       id="radialGradient16187"
       cx="65.5625"
       cy="91.697258"
       fx="65.3125"
       fy="73.706467"
       r="37.59375"
       gradientTransform="matrix(1.0054283,0,0,0.16310731,-1.3544421,22.019246)"
       gradientUnits="userSpaceOnUse" />
    <linearGradient
       inkscape:collect="always"
       xlink:href="#linearGradient15999"
       id="linearGradient16189"
       gradientUnits="userSpaceOnUse"
       x1="71.109795"
       y1="34.998165"
       x2="71.109795"
       y2="25.997459"
       gradientTransform="matrix(1.0054283,0,0,0.97814291,-1.3544421,2.7184654)" />
    <linearGradient
       inkscape:collect="always"
       xlink:href="#linearGradient15942"
       id="linearGradient16191"
       gradientUnits="userSpaceOnUse"
       x1="76"
       y1="12"
       x2="76"
       y2="28"
       gradientTransform="matrix(1.0054283,0,0,0.97814291,-1.3544421,3.0184654)" />
    <filter
       inkscape:collect="always"
       id="filter16199"
       x="-0.035937011"
       width="1.071874"
       y="-0.86608195"
       height="2.7321639">
      <feGaussianBlur
         inkscape:collect="always"
         stdDeviation="1.8043374"
         id="feGaussianBlur16201" />
    </filter>
    <linearGradient
       inkscape:collect="always"
       xlink:href="#linearGradient16203"
       id="linearGradient16209"
       x1="72"
       y1="115"
       x2="72"
       y2="120"
       gradientUnits="userSpaceOnUse"
       gradientTransform="matrix(1.0054283,0,0,1.0067912,-0.34901379,-1.4670723)" />
  </defs>
  <sodipodi:namedview
     id="base"
     pagecolor="#ffffff"
     bordercolor="#666666"
     borderopacity="1.0"
     gridtolerance="10000"
     guidetolerance="10"
     objecttolerance="10"
     inkscape:pageopacity="0.0"
     inkscape:pageshadow="2"
     inkscape:zoom="2.828427"
     inkscape:cx="-12.577377"
     inkscape:cy="41.432098"
     inkscape:document-units="px"
     inkscape:current-layer="layer1"
     width="128px"
     height="128px"
     showgrid="true"
     inkscape:grid-points="true"
     inkscape:window-width="1240"
     inkscape:window-height="791"
     inkscape:window-x="195"
     inkscape:window-y="251"
     showguides="true"
     inkscape:guide-bbox="true"
     inkscape:snap-global="true"
     inkscape:snap-nodes="true"
     inkscape:object-paths="true"
     inkscape:snap-intersection-paths="true"
     inkscape:object-nodes="true"
     inkscape:snap-smooth-nodes="true"
     inkscape:snap-midpoints="true"
     inkscape:snap-grids="true"
     inkscape:snap-bbox="true"
     inkscape:window-maximized="0">
    <inkscape:grid
       id="GridFromPre046Settings"
       type="xygrid"
       originx="0px"
       originy="0px"
       spacingx="2.6666px"
       spacingy="2.6666px"
       color="#0000ff"
       empcolor="#0000ff"
       opacity="0.2"
       empopacity="0.4"
       empspacing="4"
       visible="true"
       enabled="true"
       snapvisiblegridlinesonly="true" />
  </sodipodi:namedview>
  <metadata
     id="metadata7">
    <rdf:RDF>
      <cc:Work
         rdf:about="">
        <dc:format>image/svg+xml</dc:format>
        <dc:type
           rdf:resource="http://purl.org/dc/dcmitype/StillImage" />
        <dc:title></dc:title>
      </cc:Work>
    </rdf:RDF>
  </metadata>
  <g
     inkscape:label="Layer 1"
     inkscape:groupmode="layer"
     id="layer1">
    <rect
       style="fill:#000000;fill-opacity:1;stroke:none;filter:url(#filter14247)"
       id="rect14245"
       width="120.5"
       height="5"
       x="3.5"
       y="111"
       rx="6"
       ry="5"
       transform="matrix(1.0052223,0,0,-0.60313337,-0.2956223,185.13421)" />
    <path
       style="fill:url(#linearGradient14235);fill-opacity:1;stroke:none"
       d="m 14.732411,18.668752 c -3.342045,0 -3.98763,0.846593 -5.027142,4.027166 L 4.7723863,37.734862 C 3.4279479,41.848404 2.667271,48.406128 2.667271,52.962579 l 0,58.330961 c 0,3.34658 2.690526,6.04076 6.0325695,6.04076 l 110.5971095,0 c 3.34204,0 6.03256,-2.69418 6.03256,-6.04076 l 0,-58.330961 c 0,-4.556451 -0.76067,-11.114175 -2.10511,-15.227717 l -4.93288,-15.038944 c -1.03951,-3.180573 -1.6851,-4.027166 -5.02713,-4.027166 l -98.531979,0 z"
       id="rect13446"
       sodipodi:nodetypes="ccccccccccccc" />
    <path
       style="fill:url(#linearGradient15984);fill-opacity:1;stroke:none"
       d="m 28.776986,18.668752 c -0.03233,0.114888 -0.05433,0.210275 -0.09426,0.397372 -0.0029,0.01365 0.0029,0.01631 0,0.03057 l -3.456158,15.925385 c -0.732817,3.367515 -1.445302,6.630404 -1.445302,9.567462 l 0,3.4235 c 5.2e-5,0.512139 0.479,0.978092 1.005427,0.978142 l 78.423397,0 c 0.52644,-5e-5 1.00539,-0.466003 1.00544,-0.978142 l 0,-3.4235 c 0,-2.930928 -0.56036,-6.176391 -1.31963,-9.567462 L 99.314062,19.09669 c -0.003,-0.01428 0.003,-0.01693 0,-0.03057 -0.03992,-0.187106 -0.06194,-0.282486 -0.09421,-0.397371 l -1.036899,0 c 0.04975,0.218526 0.105028,0.3577 0.157099,0.611341 l 3.581828,15.955957 c 0.7523,3.35991 1.28821,6.543556 1.28821,9.353491 l 0,3.4235 -78.423399,0 0,-3.4235 c 0,-2.781584 0.681691,-5.988846 1.413883,-9.353491 l 3.456162,-15.955963 c 0.05207,-0.253641 0.107349,-0.392814 0.157098,-0.611341 l -1.036848,0 z m 2.827767,0.978143 -2.105116,9.781429 69.091774,0 -2.199373,-9.781429 -64.787285,0 z m 0.816911,0 63.153463,0 1.759499,8.803287 -66.609621,0 1.696659,-8.803287 z"
       id="path15966"
       sodipodi:nodetypes="csccccccccccscccccccccccccccccccccc" />
    <path
       style="fill:url(#linearGradient15948);fill-opacity:1;stroke:none"
       mask="none"
       d="m 29.813834,18.668752 c -0.04975,0.218525 -0.105023,0.3577 -0.157098,0.611341 l -3.45616,15.955957 c -0.732192,3.364645 -1.413883,6.571907 -1.413883,9.353491 l 0,3.4235 78.423397,0 0,-3.4235 c 0,-2.809934 -0.53591,-5.993581 -1.2882,-9.353491 L 98.340054,19.280093 c -0.05207,-0.253641 -0.10735,-0.392816 -0.157099,-0.611341 l -68.369121,0 z m 0.78549,0.978143 66.798141,0 2.199374,9.781429 -71.102629,0 2.105114,-9.781429 z"
       id="path14260"
       sodipodi:nodetypes="cccccccccccccccc" />
    <rect
       style="opacity:0.50638302;fill:#000000;fill-opacity:0.62068942;stroke:none"
       id="rect14254"
       width="122.6636"
       height="2.6665995"
       x="2.6666"
       y="56.001801"
       rx="0"
       ry="0" />
    <rect
       ry="0"
       rx="0"
       y="53.335201"
       x="2.6666"
       height="2.6665988"
       width="122.6636"
       id="rect14256"
       style="fill:#ffffff;fill-opacity:0.56768559;stroke:none" />
    <rect
       style="fill:#ffffff;fill-opacity:0.56768559;stroke:none"
       id="rect14258"
       width="122.66295"
       height="1.2788087"
       x="2.6666"
       y="58.6684"
       rx="0"
       ry="0" />
    <text
       id="text15806"
       y="64.295685"
       x="47.062824"
       style="font-size:5.75809145px;font-style:normal;font-variant:normal;font-weight:normal;font-stretch:normal;fill:#0a0a0a;fill-opacity:1;stroke:none;filter:url(#filter15816);font-family:Liberation Sans;-inkscape-font-specification:Liberation Sans"
       xml:space="preserve"
       transform="matrix(0.59941372,0,0,0.6002263,26.739438,28.90138)"><tspan
         style="fill:#0a0a0a;fill-opacity:1"
         y="64.295685"
         x="47.062824"
         id="tspan15808"
         sodipodi:role="line">OXYGEN</tspan></text>
    <text
       xml:space="preserve"
       style="font-size:3.45381784px;font-style:normal;font-variant:normal;font-weight:normal;font-stretch:normal;fill:url(#linearGradient15804);fill-opacity:1;stroke:none;font-family:Liberation Sans;-inkscape-font-specification:Liberation Sans"
       x="54.986759"
       y="67.267708"
       id="text15794"
       transform="scale(0.99932287,1.0006776)"><tspan
         sodipodi:role="line"
         id="tspan15796"
         x="54.986759"
         y="67.267708"
         style="fill:url(#linearGradient15804);fill-opacity:1">OXYGEN</tspan></text>
    <path
       sodipodi:nodetypes="csccccccccccscccccccccccccccccccccc"
       id="path15990"
       d="m 28.776986,18.668752 c -0.03233,0.114888 -0.05433,0.210275 -0.09426,0.397372 -0.0029,0.01365 0.0029,0.01631 0,0.03057 l -3.456158,15.925385 c -0.732817,3.367515 -1.445302,6.630404 -1.445302,9.567462 l 0,3.4235 c 5.2e-5,0.512139 0.479,1.956235 1.005427,1.956285 l 78.423397,0 c 0.52644,-5e-5 1.00539,-1.444146 1.00544,-1.956285 l 0,-3.4235 c 0,-2.930928 -0.56036,-6.176391 -1.31963,-9.567462 L 99.314062,19.09669 c -0.003,-0.01428 0.003,-0.01693 0,-0.03057 -0.03992,-0.187106 -0.06194,-0.282486 -0.09421,-0.397371 l -1.036899,0 c 0.04975,0.218526 0.105028,0.3577 0.157099,0.611341 l 3.581828,15.955957 c 0.7523,3.35991 1.28821,6.543556 1.28821,9.353491 l 0,3.4235 -78.423399,0 0,-3.4235 c 0,-2.781584 0.681691,-5.988846 1.413883,-9.353491 l 3.456162,-15.955963 c 0.05207,-0.253641 0.107349,-0.392814 0.157098,-0.611341 l -1.036848,0 z m 2.827767,0.978143 -2.105116,9.781429 69.091774,0 -2.199373,-9.781429 -64.787285,0 z m 0.816911,0 63.153463,0 1.759499,8.803287 -66.609621,0 1.696659,-8.803287 z"
       style="fill:url(#linearGradient15992);fill-opacity:1;stroke:none" />
    <path
       clip-path="url(#clipPath15844)"
       sodipodi:nodetypes="ccccccccccccc"
       id="path15834"
       d="m -120,15 c -3.324,0 -3.9661,0.840883 -5,4 l -4.90625,15.9375 C -131.24343,39.023296 -132,45.536783 -132,50.0625 L -132,108 c 0,3.324 2.676,6 6,6 l 110,0 c 3.324,0 6,-2.676 6,-6 l 0,-57.9375 c 0,-4.525717 -0.75657,-11.039204 -2.09375,-15.125 L -17,19 c -1.0339,-3.159117 -1.676,-4 -5,-4 l -98,0 z"
       style="opacity:0.20083684;fill:none;stroke:#000000;stroke-width:1.70000005;stroke-miterlimit:4;stroke-opacity:1;stroke-dasharray:none;filter:url(#filter15856)"
       mask="none"
       transform="matrix(1.0054283,0,0,1.0067912,135.38381,2.5600928)" />
    <rect
       transform="matrix(1.0054283,0,0,-0.60407474,-0.34901379,184.68863)"
       ry="5"
       rx="6"
       y="111"
       x="3.5"
       height="5"
       width="120.5"
       id="rect15860"
       style="opacity:0.48535563;fill:#ffffff;fill-opacity:1;stroke:none;filter:url(#filter16199)"
       clip-path="url(#clipPath15873)" />
    <rect
       style="fill:url(#linearGradient15891);fill-opacity:1;stroke:none"
       id="rect15883"
       width="2.6666"
       height="7.9998007"
       x="0"
       y="61.334999"
       rx="0"
       ry="0" />
    <rect
       ry="0"
       rx="0"
       y="61.334999"
       x="125.3302"
       height="7.9998007"
       width="2.6665998"
       id="rect15893"
       style="fill:url(#linearGradient15895);fill-opacity:1;stroke:none" />
    <path
       transform="matrix(1.0054283,0,0.38419462,1.1346666,-13.154585,-1.2298823)"
       d="m 116,33.330952 a 3.1992245,1.3309524 0 1 1 -6.39845,0 3.1992245,1.3309524 0 1 1 6.39845,0 z"
       sodipodi:ry="1.3309524"
       sodipodi:rx="3.1992245"
       sodipodi:cy="33.330952"
       sodipodi:cx="112.80077"
       id="path16126"
       style="opacity:0.66527201;fill:#111111;fill-opacity:0.91266378;stroke:none;filter:url(#filter16154)"
       sodipodi:type="arc" />
    <path
       transform="matrix(1.0054283,0,0,1.0067912,135.38381,2.5600928)"
       mask="none"
       style="opacity:0.20083684;fill:none;stroke:#000000;stroke-width:3;stroke-miterlimit:4;stroke-opacity:1;stroke-dasharray:none;filter:url(#filter15856)"
       d="m -120,15 c -3.324,0 -3.9661,0.840883 -5,4 l -4.90625,15.9375 C -131.24343,39.023296 -132,45.536783 -132,50.0625 L -132,108 c 0,3.324 2.676,6 6,6 l 110,0 c 3.324,0 6,-2.676 6,-6 l 0,-57.9375 c 0,-4.525717 -0.75657,-11.039204 -2.09375,-15.125 L -17,19 c -1.0339,-3.159117 -1.676,-4 -5,-4 L -79.934059,15 -120,15 z"
       id="path15921"
       sodipodi:nodetypes="cccccccccccccc"
       clip-path="url(#clipPath15844)" />
    <path
       id="path15986"
       d="m 29.813834,18.668752 c -0.04975,0.218525 -0.105023,0.3577 -0.157098,0.611341 l -3.45616,15.955957 c -0.732192,3.364645 -1.413883,6.571907 -1.413883,9.353491 l 0,3.4235 78.423397,0 0,-3.4235 c 0,-2.809934 -0.53591,-5.993581 -1.2882,-9.353491 L 98.340054,19.280093 c -0.05207,-0.253641 -0.10735,-0.392816 -0.157099,-0.611341 l -68.369121,0 z m 1.891462,0 64.5862,0 2.299915,10.759572 -69.091774,0 2.205659,-10.759572 z"
       mask="none"
       style="fill:url(#linearGradient16191);fill-opacity:1;stroke:none"
       sodipodi:nodetypes="cccccccccccccccc" />
    <path
       style="fill:url(#linearGradient16189);fill-opacity:1;stroke:none"
       d="m 31.9992,29.3358 0,2.6666 -5.201652,0.06035 -1.031548,5.272848 76.5648,0 c -0.33681,-1.663112 -0.70524,-3.648691 -1.06872,-5.272848 l -5.26448,-0.06035 0,-2.6666 -10.6664,0 0,2.6666 -42.6656,0 0,-2.6666 -10.6664,0 z"
       id="rect15994"
       sodipodi:nodetypes="ccccccccccccc" />
    <path
       id="path16012"
       d="m 31.9992,29.3358 0,2.6666 -5.162665,0.06035 -0.170535,5.272848 74.6648,2e-6 c -0.33681,-1.663112 0.29476,-3.648693 -0.0687,-5.27285 l -5.26448,-0.06035 0,-2.6666 -10.6664,0 0,2.6666 -42.6656,0 0,-2.6666 -10.6664,0 z"
       style="fill:url(#linearGradient16014);fill-opacity:1;stroke:none"
       sodipodi:nodetypes="ccccccccccccc" />
    <rect
       style="fill:url(#linearGradient16024);fill-opacity:1;stroke:none"
       id="rect16016"
       width="2.0108566"
       height="5.8688583"
       x="34.840961"
       y="32.062763" />
    <rect
       style="fill:url(#linearGradient16032);fill-opacity:1;stroke:none"
       id="rect16030"
       width="2.0108566"
       height="5.8688583"
       x="38.862675"
       y="32.062763" />
    <rect
       y="32.062763"
       x="87.123238"
       height="5.8688583"
       width="2.0108566"
       id="rect16034"
       style="fill:url(#linearGradient16040);fill-opacity:1;stroke:none" />
    <rect
       y="32.062763"
       x="91.144951"
       height="5.8688583"
       width="2.0108566"
       id="rect16038"
       style="fill:url(#linearGradient16044);fill-opacity:1;stroke:none" />
    <path
       style="opacity:0.66527201;fill:url(#linearGradient16082);fill-opacity:1;stroke:none;filter:url(#filter16062)"
       d="m 28,46 c 4.347888,-7.829159 3.129073,-7.980663 4.096232,-11.161319 l 68.578098,0.176777 3.15425,14.407301 C 76.354533,48.288442 36.705735,53.758426 28,46 z"
       id="path16056"
       sodipodi:nodetypes="ccccc"
       clip-path="url(#clipPath16070)"
       transform="matrix(1.0054283,0,0,0.97814291,-1.3544421,3.0184654)" />
    <rect
       style="fill:#212122;fill-opacity:1;stroke:none"
       id="rect16084"
       width="10.666399"
       height="2.6665981"
       x="31.999201"
       y="37.335602" />
    <rect
       y="37.335602"
       x="85.3312"
       height="2.6665981"
       width="10.6664"
       id="rect16086"
       style="fill:#212122;fill-opacity:1;stroke:none" />
    <path
       sodipodi:type="arc"
       style="fill:url(#radialGradient16124);fill-opacity:1;stroke:none"
       id="path16116"
       sodipodi:cx="112.80077"
       sodipodi:cy="33.330952"
       sodipodi:rx="3.1992245"
       sodipodi:ry="1.3309524"
       d="m 116,33.330952 a 3.1992245,1.3309524 0 1 1 -6.39845,0 3.1992245,1.3309524 0 1 1 6.39845,0 z"
       transform="matrix(1.0054283,0,0.38419462,1.1346666,-13.154585,-1.5319197)" />
    <text
       id="text16166"
       y="41.737747"
       x="73.253273"
       style="font-size:1.23107719px;font-style:normal;font-variant:normal;font-weight:normal;font-stretch:normal;fill:#484848;fill-opacity:1;stroke:none;font-family:Liberation Sans;-inkscape-font-specification:Liberation Sans"
       xml:space="preserve"
       transform="matrix(1.2426026,0,0.38332565,0.80476255,0,0)"><tspan
         y="41.737747"
         x="73.253273"
         id="tspan16168"
         sodipodi:role="line">the laser printer</tspan></text>
    <path
       sodipodi:nodetypes="cccccccccccccc"
       style="fill:url(#radialGradient16187);fill-opacity:1;stroke:none"
       d="M 32.034623,29.255167 31.999203,32.0024 26.828972,31.96275 26.666,37.3356 l 74.6648,0 c -0.33681,-1.663112 0.29476,-3.748693 -0.0687,-5.37285 l -5.26448,0.03965 0,-2.6666 -10.6664,0 0,2.6666 -42.665597,0 -0.0022,-2.703039 -10.628807,-0.04419 2.7e-5,-4e-6 z"
       id="path16179" />
    <path
       style="opacity:0.80465116;fill:#ffffff;fill-opacity:1;stroke:none"
       d="m 28.021112,73.661208 c -2.767528,0 -5.02714,2.262677 -5.02714,5.033957 l 0,38.639135 1.005428,0 0,-38.639135 c 0,-2.231049 1.793684,-4.027165 4.021712,-4.027165 l 71.954568,0 c 2.22802,0 4.02172,1.796116 4.02172,4.027165 l 0,38.639135 1.00543,0 0,-38.639135 c 0,-2.77128 -2.25963,-5.033957 -5.02715,-5.033957 l -71.954568,0 z"
       id="path15732"
       sodipodi:nodetypes="ccccccccccccc" />
    <path
       id="path15784"
       d="m 22.273128,118.61305 1.005428,0 0,-38.258077 c 0,-1.687913 1.330656,-3.020373 3.016284,-3.020373 l 75.40712,0 c 1.68563,0 3.01628,1.33246 3.01628,3.020373 l 0,38.258077 1.00544,0 -83.450552,0 z"
       style="opacity:0.21757322;fill:url(#linearGradient15792);fill-opacity:1;stroke:none"
       sodipodi:nodetypes="ccccccccc" />
    <path
       style="opacity:0.41841006;fill:#d6d5db;fill-opacity:1;stroke:none"
       d="m 45.3322,76.671246 0,2.887718 c 0,2.666329 2.143631,4.812866 4.806348,4.812866 l 25.053097,0 c 2.662718,0 4.806349,-2.146537 4.806349,-4.812866 l 0,-2.887718 -34.665794,0 z"
       id="rect15746" />
    <path
       style="opacity:0.77405856;fill:#ffffff;fill-opacity:1;stroke:none"
       d="m 45.3322,80.521538 0,0.962573 c 0,2.666327 2.143631,6.012864 4.806348,6.012864 l 25.053097,0 c 2.662718,0 4.806349,-3.346537 4.806349,-6.012864 l 0,-0.962573 c 0,2.666327 -2.143631,4.812865 -4.806349,4.812865 l -25.053097,0 c -2.662717,0 -4.806348,-2.146538 -4.806348,-4.812865 z"
       id="path15751"
       sodipodi:nodetypes="ccccccccc" />
    <path
       inkscape:transform-center-x="82.699246"
       style="opacity:0.92468620999999995;fill:#000000;fill-opacity:0.06550215000000000;stroke:url(#linearGradient15778);stroke-opacity:1;filter:url(#filter15768);stroke-width:1.93570943;stroke-miterlimit:4;stroke-dasharray:none"
       d="m 127.9375,64 0,11.6 c 0,2.77 2.23,5 5,5 L 159,80.6 c 2.77,0 5,-2.23 5,-5 l 0,-11.6 -36.0625,0 z"
       id="path15758"
       sodipodi:nodetypes="ccccccc"
       clip-path="url(#clipPath15780)"
       transform="matrix(0.96126993,0,0,0.96257298,-77.650269,7.3659886)" />
    <path
       transform="matrix(1.7810895,0,0,1.7835039,-97.289461,-76.982316)"
       d="m 119,101.47604 a 1.4951468,1.4951468 0 1 1 -2.99029,0 1.4951468,1.4951468 0 1 1 2.99029,0 z"
       sodipodi:ry="1.4951468"
       sodipodi:rx="1.4951468"
       sodipodi:cy="101.47604"
       sodipodi:cx="117.50485"
       id="path15917"
       style="fill:url(#radialGradient15919);fill-opacity:1;stroke:none"
       sodipodi:type="arc" />
    <path
       style="opacity:0.60930233;fill:url(#linearGradient16209);fill-opacity:1;stroke:none"
       d="m 28.021112,74.668 c -2.228028,0 -4.021712,1.796116 -4.021712,4.027165 l 0,38.639135 1.00543,0 0,-38.639135 c 0,-1.687913 1.330655,-3.020373 3.016282,-3.020373 l 71.954568,0 c 1.68563,0 3.01628,1.33246 3.01628,3.020373 l 0,38.639135 1.00544,0 0,-38.639135 c 0,-2.231049 -1.7937,-4.027165 -4.02172,-4.027165 l -71.954568,0 z"
       id="rect15726"
       sodipodi:nodetypes="ccccccccccccc" />
  </g>
</svg>
