<?xml version="1.0" encoding="UTF-8" standalone="no"?>
<!-- Created with Inkscape (http://www.inkscape.org/) -->

<svg
   xmlns:dc="http://purl.org/dc/elements/1.1/"
   xmlns:cc="http://creativecommons.org/ns#"
   xmlns:rdf="http://www.w3.org/1999/02/22-rdf-syntax-ns#"
   xmlns:svg="http://www.w3.org/2000/svg"
   xmlns="http://www.w3.org/2000/svg"
   xmlns:xlink="http://www.w3.org/1999/xlink"
   xmlns:sodipodi="http://sodipodi.sourceforge.net/DTD/sodipodi-0.dtd"
   xmlns:inkscape="http://www.inkscape.org/namespaces/inkscape"
   width="128"
   height="128"
   id="svg2"
   sodipodi:version="0.32"
   inkscape:version="0.46+devel"
   version="1.0"
   sodipodi:docname="story-editor.svgz"
   inkscape:output_extension="org.inkscape.output.svgz.inkscape"
   inkscape:export-filename="/home/pinheiro/pics/oxygen-icons/scalable/actions/small/48x48/story-editor.png"
   inkscape:export-xdpi="135"
   inkscape:export-ydpi="135">
  <defs
     id="defs4">
    <linearGradient
       inkscape:collect="always"
       id="linearGradient10897">
      <stop
         style="stop-color:#000000;stop-opacity:1;"
         offset="0"
         id="stop10899" />
      <stop
         style="stop-color:#000000;stop-opacity:0;"
         offset="1"
         id="stop10901" />
    </linearGradient>
    <linearGradient
       id="linearGradient10879">
      <stop
         style="stop-color:#000000;stop-opacity:1;"
         offset="0"
         id="stop10881" />
      <stop
         style="stop-color:#006600;stop-opacity:1;"
         offset="1"
         id="stop10883" />
    </linearGradient>
    <linearGradient
       inkscape:collect="always"
       id="linearGradient10867">
      <stop
         style="stop-color:#ffffff;stop-opacity:1"
         offset="0"
         id="stop10869" />
      <stop
         style="stop-color:#555555;stop-opacity:1"
         offset="1"
         id="stop10871" />
    </linearGradient>
    <linearGradient
       id="linearGradient10964">
      <stop
         style="stop-color:#ffffff;stop-opacity:1;"
         offset="0"
         id="stop10966" />
      <stop
         style="stop-color:#eeeeee;stop-opacity:1"
         offset="1"
         id="stop10968" />
    </linearGradient>
    <filter
       inkscape:collect="always"
       id="filter9643">
      <feGaussianBlur
         inkscape:collect="always"
         stdDeviation="1.18"
         id="feGaussianBlur9645" />
    </filter>
    <radialGradient
       gradientTransform="translate(132,20)"
       gradientUnits="userSpaceOnUse"
       r="49.875"
       cy="8.625"
       cx="48.125"
       id="XMLID_3_">
      <stop
         id="stop3065"
         style="stop-color:#D6FFC0"
         offset="0" />
      <stop
         id="stop3067"
         style="stop-color:#CCFAB7"
         offset="0.0735" />
      <stop
         id="stop3073"
         style="stop-color:#4CB544"
         offset="0.61132425" />
      <stop
         id="stop3077"
         style="stop-color:#008C00"
         offset="0.7574" />
    </radialGradient>
    <radialGradient
       gradientUnits="userSpaceOnUse"
       gradientTransform="matrix(0.9792,0,0,0.9725,133.0002,20.8762)"
       r="55.148"
       cy="-0.2148"
       cx="48"
       id="XMLID_4_">
      <stop
         id="stop3082"
         style="stop-color:#72D13D"
         offset="0" />
      <stop
         id="stop3084"
         style="stop-color:#35AC1C"
         offset="0.3553" />
      <stop
         id="stop3086"
         style="stop-color:#0F9508"
         offset="0.6194" />
      <stop
         id="stop3088"
         style="stop-color:#008C00"
         offset="0.7574" />
      <stop
         id="stop3090"
         style="stop-color:#007A00"
         offset="1" />
    </radialGradient>
    <radialGradient
       inkscape:collect="always"
       xlink:href="#XMLID_4_"
       id="radialGradient10781"
       gradientUnits="userSpaceOnUse"
       gradientTransform="matrix(1.3200684,-5.4249581e-5,4.5327926e-5,1.1029756,-3.3610134,10.038529)"
       cx="48"
       cy="-0.2148"
       r="55.148"
       fx="48"
       fy="-0.2148" />
    <radialGradient
       inkscape:collect="always"
       xlink:href="#XMLID_3_"
       id="radialGradient10784"
       gradientUnits="userSpaceOnUse"
       gradientTransform="matrix(1.25,0,0,1,1.3e-6,8.1249992)"
       cx="48.125"
       cy="8.625"
       r="49.875" />
    <clipPath
       clipPathUnits="userSpaceOnUse"
       id="clipPath10906">
      <rect
         y="33.088711"
         x="0.12903222"
         height="96.782265"
         width="127.74194"
         id="rect10908"
         style="fill:#ffffff;fill-opacity:1;stroke:none" />
    </clipPath>
    <clipPath
       clipPathUnits="userSpaceOnUse"
       id="clipPath10917">
      <rect
         y="-13.354839"
         x="-28.903227"
         height="46.506287"
         width="185.80646"
         id="rect10919"
         style="fill:#ffffff;fill-opacity:1;stroke:none" />
    </clipPath>
    <linearGradient
       inkscape:collect="always"
       xlink:href="#linearGradient10964"
       id="linearGradient11297"
       gradientUnits="userSpaceOnUse"
       x1="27.936609"
       y1="31.109358"
       x2="32.048244"
       y2="177.5768"
       gradientTransform="translate(-4,0)" />
    <radialGradient
       inkscape:collect="always"
       xlink:href="#linearGradient10879"
       id="radialGradient3095"
       gradientUnits="userSpaceOnUse"
       gradientTransform="matrix(1.7134983,0,0,0.6139271,-17.123959,5.5555333)"
       cx="24"
       cy="17.363621"
       fx="24"
       fy="17.363621"
       r="10.839936" />
    <linearGradient
       inkscape:collect="always"
       xlink:href="#linearGradient10867"
       id="linearGradient3097"
       gradientUnits="userSpaceOnUse"
       gradientTransform="scale(1,1.1648177)"
       spreadMethod="reflect"
       x1="24"
       y1="6.1218567"
       x2="24"
       y2="-4.0054421" />
    <linearGradient
       inkscape:collect="always"
       xlink:href="#linearGradient10897"
       id="linearGradient3099"
       gradientUnits="userSpaceOnUse"
       x1="25.559429"
       y1="-0.20285282"
       x2="25.559429"
       y2="4.0027528" />
    <linearGradient
       inkscape:collect="always"
       xlink:href="#linearGradient10897"
       id="linearGradient3101"
       gradientUnits="userSpaceOnUse"
       gradientTransform="matrix(1,0,0,1.2895928,-0.2028529,-18.34379)"
       x1="25.559429"
       y1="-0.20285282"
       x2="25.559429"
       y2="4.0027528" />
    <radialGradient
       inkscape:collect="always"
       xlink:href="#linearGradient10879"
       id="radialGradient3103"
       gradientUnits="userSpaceOnUse"
       gradientTransform="matrix(1.7134983,0,0,0.6139271,62.799971,5.5555333)"
       cx="24"
       cy="17.363621"
       fx="24"
       fy="17.363621"
       r="10.839936" />
    <linearGradient
       inkscape:collect="always"
       xlink:href="#linearGradient10867"
       id="linearGradient3105"
       gradientUnits="userSpaceOnUse"
       gradientTransform="matrix(1,0,0,1.1648177,79.92393,0)"
       spreadMethod="reflect"
       x1="24"
       y1="6.1218567"
       x2="24"
       y2="-4.0054421" />
    <linearGradient
       inkscape:collect="always"
       xlink:href="#linearGradient10897"
       id="linearGradient3107"
       gradientUnits="userSpaceOnUse"
       gradientTransform="translate(79.92393,0)"
       x1="25.559429"
       y1="-0.20285282"
       x2="25.559429"
       y2="4.0027528" />
    <linearGradient
       inkscape:collect="always"
       xlink:href="#linearGradient10897"
       id="linearGradient3109"
       gradientUnits="userSpaceOnUse"
       gradientTransform="matrix(1,0,0,1.2895928,79.92393,-18.34379)"
       x1="25.559429"
       y1="-0.20285282"
       x2="25.559429"
       y2="4.0027528" />
    <linearGradient
       id="linearGradient2257">
      <stop
         id="stop2259"
         offset="0"
         style="stop-color:#b4942a;stop-opacity:1;" />
      <stop
         id="stop2261"
         offset="1"
         style="stop-color:#e4dcc9;stop-opacity:1" />
    </linearGradient>
    <linearGradient
       id="linearGradient2598">
      <stop
         style="stop-color:#252525;stop-opacity:1;"
         offset="0"
         id="stop2600" />
      <stop
         id="stop2606"
         offset="0.5"
         style="stop-color:#252525;stop-opacity:1;" />
      <stop
         style="stop-color:#252525;stop-opacity:1;"
         offset="0.75"
         id="stop2608" />
      <stop
         style="stop-color:#000000;stop-opacity:1;"
         offset="1"
         id="stop2602" />
    </linearGradient>
    <linearGradient
       id="linearGradient3058">
      <stop
         style="stop-color:#9a7600;stop-opacity:1;"
         offset="0"
         id="stop3060" />
      <stop
         id="stop3066"
         offset="0.09292036"
         style="stop-color:#e3ad00;stop-opacity:1;" />
      <stop
         style="stop-color:#ffcd2c;stop-opacity:1;"
         offset="0.5043171"
         id="stop3070" />
      <stop
         style="stop-color:#e3ad00;stop-opacity:1;"
         offset="0.91571385"
         id="stop3068" />
      <stop
         style="stop-color:#b98d00;stop-opacity:1;"
         offset="1"
         id="stop3062" />
    </linearGradient>
    <linearGradient
       id="linearGradient3303">
      <stop
         id="stop3305"
         offset="0"
         style="stop-color:#ffffff;stop-opacity:0.68345326;" />
      <stop
         id="stop3307"
         offset="1"
         style="stop-color:#ffffff;stop-opacity:0;" />
    </linearGradient>
    <linearGradient
       id="linearGradient3325">
      <stop
         style="stop-color:#ffffff;stop-opacity:1;"
         offset="0"
         id="stop3327" />
      <stop
         style="stop-color:#ffffff;stop-opacity:0;"
         offset="1"
         id="stop3329" />
    </linearGradient>
    <linearGradient
       id="linearGradient3225">
      <stop
         id="stop3227"
         offset="0"
         style="stop-color:#ffffff;stop-opacity:1;" />
      <stop
         id="stop3229"
         offset="1"
         style="stop-color:#aeaeae;stop-opacity:1;" />
    </linearGradient>
    <linearGradient
       id="linearGradient3207">
      <stop
         id="stop3209"
         offset="0"
         style="stop-color:#ffffff;stop-opacity:1;" />
      <stop
         id="stop3211"
         offset="1"
         style="stop-color:#252525;stop-opacity:0;" />
    </linearGradient>
    <linearGradient
       inkscape:collect="always"
       id="linearGradient3235">
      <stop
         style="stop-color:#ffffff;stop-opacity:1;"
         offset="0"
         id="stop3237" />
      <stop
         style="stop-color:#ffffff;stop-opacity:0;"
         offset="1"
         id="stop3239" />
    </linearGradient>
    <linearGradient
       id="linearGradient2232">
      <stop
         id="stop2234"
         offset="0"
         style="stop-color:#b4942a;stop-opacity:1;" />
      <stop
         id="stop2236"
         offset="1"
         style="stop-color:#e4dcc9;stop-opacity:1" />
    </linearGradient>
    <radialGradient
       inkscape:collect="always"
       xlink:href="#linearGradient2257"
       id="radialGradient3427"
       gradientUnits="userSpaceOnUse"
       gradientTransform="matrix(1.231616,1.291421,-11.70616,11.17834,1411.874,-1325.552)"
       cx="42.617531"
       cy="120.64188"
       fx="42.617531"
       fy="120.64188"
       r="3.406888" />
    <radialGradient
       inkscape:collect="always"
       xlink:href="#linearGradient2598"
       id="radialGradient3429"
       gradientUnits="userSpaceOnUse"
       gradientTransform="matrix(1.54853,1.469114,-21.05168,22.68598,1272.946,-1291.402)"
       cx="15.727077"
       cy="58.089687"
       fx="15.727077"
       fy="58.089687"
       r="2.6143965" />
    <radialGradient
       inkscape:collect="always"
       xlink:href="#linearGradient3058"
       id="radialGradient3431"
       gradientUnits="userSpaceOnUse"
       gradientTransform="matrix(0.05267341,0.05051614,-1.057794,1.116234,183.7751,-66.53858)"
       cx="36.675648"
       cy="95.769279"
       fx="16.217354"
       fy="64.141281"
       r="47.746403" />
    <linearGradient
       inkscape:collect="always"
       xlink:href="#linearGradient3058"
       id="linearGradient3433"
       gradientUnits="userSpaceOnUse"
       gradientTransform="matrix(0.856502,0.799536,-0.796622,0.859634,115.5123,-21.93479)"
       x1="11.326384"
       y1="57.383999"
       x2="14.493531"
       y2="57.383999" />
    <radialGradient
       inkscape:collect="always"
       xlink:href="#linearGradient3303"
       id="radialGradient3435"
       gradientUnits="userSpaceOnUse"
       gradientTransform="matrix(0.999914,-0.00784165,5.666079e-4,0.02048306,-0.00124223,7.581357)"
       cx="34.677639"
       cy="7.4622769"
       fx="34.677639"
       fy="7.4622769"
       r="47.595197" />
    <radialGradient
       inkscape:collect="always"
       xlink:href="#linearGradient3325"
       id="radialGradient3437"
       gradientUnits="userSpaceOnUse"
       gradientTransform="matrix(-1.5103,0.00264127,-1.167078e-4,-0.00911022,87.0522,7.438666)"
       cx="34.677639"
       cy="7.4622769"
       fx="34.677639"
       fy="7.4622769"
       r="47.595196" />
    <radialGradient
       inkscape:collect="always"
       xlink:href="#linearGradient3225"
       id="radialGradient3439"
       gradientUnits="userSpaceOnUse"
       gradientTransform="matrix(1.112439,1.035436,-0.388678,0.420644,60.1082,-43.23056)"
       cx="49.009884"
       cy="8.4953122"
       fx="47.370888"
       fy="6.7701697"
       r="3.9750405" />
    <radialGradient
       inkscape:collect="always"
       xlink:href="#linearGradient3207"
       id="radialGradient3441"
       gradientUnits="userSpaceOnUse"
       gradientTransform="matrix(1.519754,0,0,0.184942,14.80903,-77.11571)"
       cx="49.011971"
       cy="2.6743078"
       fx="49.011971"
       fy="2.6743078"
       r="1.7246193" />
    <linearGradient
       inkscape:collect="always"
       xlink:href="#linearGradient3235"
       id="linearGradient3443"
       gradientUnits="userSpaceOnUse"
       gradientTransform="matrix(1.112439,1.035436,-1.031663,1.116507,65.57053,-49.14214)"
       x1="48.498562"
       y1="0.81150496"
       x2="48.732723"
       y2="2.3657269" />
    <linearGradient
       inkscape:collect="always"
       xlink:href="#linearGradient2232"
       id="linearGradient3445"
       gradientUnits="userSpaceOnUse"
       gradientTransform="matrix(0.789159,0,0,0.789159,21.06854,0.03497228)"
       x1="49.15303"
       y1="75.310318"
       x2="82.484642"
       y2="75.310318" />
    <radialGradient
       inkscape:collect="always"
       xlink:href="#linearGradient3207"
       id="radialGradient3447"
       gradientUnits="userSpaceOnUse"
       gradientTransform="matrix(1.042254,0,0,0.126014,21.59014,-82.61791)"
       cx="49.011971"
       cy="2.6743078"
       fx="49.011971"
       fy="2.6743078"
       r="1.7246193" />
    <radialGradient
       inkscape:collect="always"
       xlink:href="#linearGradient3207"
       id="radialGradient3449"
       gradientUnits="userSpaceOnUse"
       gradientTransform="matrix(1.042253,0,0,0.126014,-152.0123,-75.76904)"
       cx="49.011971"
       cy="2.6743078"
       fx="49.011971"
       fy="2.6743078"
       r="1.7246193" />
    <linearGradient
       inkscape:collect="always"
       xlink:href="#linearGradient10897"
       id="linearGradient3473"
       gradientUnits="userSpaceOnUse"
       gradientTransform="matrix(0.66339041,0,0,0.91774792,16.034932,-15.868652)"
       x1="25.559429"
       y1="-0.20285282"
       x2="25.559429"
       y2="4.0027528" />
    <linearGradient
       inkscape:collect="always"
       xlink:href="#linearGradient10897"
       id="linearGradient3476"
       gradientUnits="userSpaceOnUse"
       x1="25.559429"
       y1="-0.20285282"
       x2="25.559429"
       y2="4.0027528"
       gradientTransform="matrix(0.66339041,0,0,0.71165714,16.169502,2.8141622)" />
    <linearGradient
       inkscape:collect="always"
       xlink:href="#linearGradient10867"
       id="linearGradient3479"
       gradientUnits="userSpaceOnUse"
       gradientTransform="matrix(0.66339041,0,0,0.82895083,16.169502,2.8141622)"
       spreadMethod="reflect"
       x1="24"
       y1="6.1218567"
       x2="24"
       y2="-4.0054421" />
    <radialGradient
       inkscape:collect="always"
       xlink:href="#linearGradient10879"
       id="radialGradient3482"
       gradientUnits="userSpaceOnUse"
       gradientTransform="matrix(1.1563534,0,0,0.39084105,4.2467185,7.7493399)"
       cx="24"
       cy="17.363621"
       fx="24"
       fy="17.363621"
       r="10.839936" />
    <radialGradient
       inkscape:collect="always"
       xlink:href="#linearGradient10879"
       id="radialGradient3492"
       gradientUnits="userSpaceOnUse"
       gradientTransform="matrix(1.1563534,0,0,0.39084105,60.246719,7.7493399)"
       cx="24"
       cy="17.363621"
       fx="24"
       fy="17.363621"
       r="10.839936" />
    <linearGradient
       inkscape:collect="always"
       xlink:href="#linearGradient10867"
       id="linearGradient3494"
       gradientUnits="userSpaceOnUse"
       gradientTransform="matrix(0.66339041,0,0,0.82895083,72.169502,2.8141622)"
       spreadMethod="reflect"
       x1="24"
       y1="6.1218567"
       x2="24"
       y2="-4.0054421" />
    <linearGradient
       inkscape:collect="always"
       xlink:href="#linearGradient10897"
       id="linearGradient3496"
       gradientUnits="userSpaceOnUse"
       gradientTransform="matrix(0.66339041,0,0,0.71165714,72.169502,2.8141622)"
       x1="25.559429"
       y1="-0.20285282"
       x2="25.559429"
       y2="4.0027528" />
    <linearGradient
       inkscape:collect="always"
       xlink:href="#linearGradient10897"
       id="linearGradient3498"
       gradientUnits="userSpaceOnUse"
       gradientTransform="matrix(0.66339041,0,0,0.91774792,72.034932,-15.868652)"
       x1="25.559429"
       y1="-0.20285282"
       x2="25.559429"
       y2="4.0027528" />
  </defs>
  <sodipodi:namedview
     id="base"
     pagecolor="#ffffff"
     bordercolor="#666666"
     borderopacity="1.0"
     gridtolerance="50"
     guidetolerance="10"
     objecttolerance="10"
     inkscape:pageopacity="0.0"
     inkscape:pageshadow="2"
     inkscape:zoom="4"
     inkscape:cx="129.98377"
     inkscape:cy="53.428157"
     inkscape:document-units="px"
     inkscape:current-layer="layer1"
     width="128px"
     height="128px"
     showgrid="true"
     showborder="true"
     inkscape:window-width="1425"
     inkscape:window-height="887"
     inkscape:window-x="425"
     inkscape:window-y="245"
     inkscape:grid-bbox="true"
     inkscape:snap-global="true">
    <inkscape:grid
       id="GridFromPre046Settings"
       type="xygrid"
       originx="0px"
       originy="0px"
       spacingx="2.6666px"
       spacingy="2.6666px"
       color="#0000ff"
       empcolor="#0000ff"
       opacity="0.2"
       empopacity="0.4"
       empspacing="2"
       visible="true"
       enabled="true" />
  </sodipodi:namedview>
  <metadata
     id="metadata7">
    <rdf:RDF>
      <cc:Work
         rdf:about="">
        <dc:format>image/svg+xml</dc:format>
        <dc:type
           rdf:resource="http://purl.org/dc/dcmitype/StillImage" />
        <dc:title></dc:title>
      </cc:Work>
    </rdf:RDF>
  </metadata>
  <g
     inkscape:label="Layer 1"
     inkscape:groupmode="layer"
     id="layer1">
    <path
       transform="matrix(1.0333333,0,0,1.0333333,-6.133333,-2.2)"
       style="fill:#003d00;fill-opacity:1;stroke:none;filter:url(#filter9643)"
       clip-path="url(#clipPath10917)"
       d="m 15.612904,9.9354839 96.774196,0 0,114.0645161 -96.774196,0 0,-114.0645161 z"
       id="rect10958"
       sodipodi:nodetypes="ccccc" />
    <path
       transform="matrix(1.0333333,0,0,1.0333333,-6.133333,-2.2)"
       style="fill:#003d00;fill-opacity:1;stroke:none;filter:url(#filter9643)"
       clip-path="url(#clipPath10917)"
       d="m 15.612904,9.9354839 96.774196,0 0,114.0645161 -96.774196,0 0,-114.0645161 z"
       id="rect10904"
       sodipodi:nodetypes="ccccc" />
    <path
       transform="matrix(1.0333333,0,0,1.0333333,-6.133333,-2.2)"
       style="opacity:0.5;fill:#000000;fill-opacity:1;stroke:none;filter:url(#filter9643)"
       clip-path="url(#clipPath10906)"
       d="m 15.612904,21.548388 96.774196,0 0,99.381172 -96.774196,0.16721 0,-99.548382 z"
       id="rect9637"
       sodipodi:nodetypes="ccccc" />
    <path
       style="fill:#ffffff;fill-opacity:1;stroke:none"
       d="m 10.6664,8.003 98.6642,0 0,111.9972 -98.6642,0 0,-111.9972 z"
       id="rect8666"
       sodipodi:nodetypes="ccccc" />
    <path
       style="fill:url(#linearGradient11297);fill-opacity:1;stroke:none"
       d="m 14.028526,10.028526 91.942964,0 0,108.049134 -91.942964,-0.10617 0,-107.942964 z"
       id="rect10972"
       sodipodi:nodetypes="ccccc" />
    <path
       style="fill:url(#radialGradient10784)"
       d="m 10.6664,8.003 98.6642,0 0,23.9994 -98.6642,0 0,-23.9994 z"
       id="rect3079"
       sodipodi:nodetypes="ccccc" />
    <path
       style="fill:url(#radialGradient10781)"
       d="m 13,10 94,0 0,22 -94,0 0,-22 z"
       id="rect3092"
       sodipodi:nodetypes="ccccc" />
    <rect
       y="10.6696"
       x="23.999399"
       height="5.4077768"
       width="15.9996"
       id="rect10875"
       style="fill:url(#radialGradient3482);fill-opacity:1;stroke:none"
       rx="2.245558"
       ry="1.9371142" />
    <rect
       style="fill:url(#linearGradient3479);fill-opacity:1;stroke:none"
       id="rect10865"
       width="10.614246"
       height="13.263213"
       x="26.783749"
       y="2.8141618" />
    <rect
       style="opacity:0.45197742;fill:url(#linearGradient3476);fill-opacity:1;stroke:none"
       id="rect10895"
       width="10.597425"
       height="2.9909902"
       x="26.80057"
       y="2.6698" />
    <rect
       transform="scale(1,-1)"
       y="-16.054821"
       x="26.666"
       height="3.8571594"
       width="10.597425"
       id="rect10913"
       style="opacity:0.6384181;fill:url(#linearGradient3473);fill-opacity:1;stroke:none" />
    <rect
       style="fill:#bbbbbb;fill-opacity:1;stroke:none"
       id="rect12185"
       width="2.6666012"
       height="74.664795"
       x="42.6688"
       y="-93.331001"
       transform="matrix(-1.0180135e-7,1,-1,-1.3275008e-8,0,0)" />
    <rect
       transform="matrix(-7.3523197e-8,1,-1,-1.838078e-8,0,0)"
       y="-71.998199"
       x="53.335201"
       height="53.331997"
       width="2.6666043"
       id="rect12261"
       style="fill:#bbbbbb;fill-opacity:1;stroke:none" />
    <rect
       style="fill:#bbbbbb;fill-opacity:1;stroke:none"
       id="rect12265"
       width="2.6665885"
       height="71.998199"
       x="64.001602"
       y="-90.664406"
       transform="matrix(-1.0180135e-7,1,-1,-1.3275007e-8,0,0)" />
    <rect
       ry="1.9371142"
       rx="2.245558"
       style="fill:url(#radialGradient3492);fill-opacity:1;stroke:none"
       id="rect3484"
       width="15.9996"
       height="5.4077768"
       x="79.999397"
       y="10.6696" />
    <rect
       y="2.8141618"
       x="82.783752"
       height="13.263213"
       width="10.614246"
       id="rect3486"
       style="fill:url(#linearGradient3494);fill-opacity:1;stroke:none" />
    <rect
       y="2.6698"
       x="82.800568"
       height="2.9909902"
       width="10.597425"
       id="rect3488"
       style="opacity:0.45197742;fill:url(#linearGradient3496);fill-opacity:1;stroke:none" />
    <rect
       style="opacity:0.6384181;fill:url(#linearGradient3498);fill-opacity:1;stroke:none"
       id="rect3490"
       width="10.597425"
       height="3.8571594"
       x="82.666"
       y="-16.054821"
       transform="scale(1,-1)" />
    <rect
       transform="matrix(-1.0180135e-7,1,-1,-1.3275008e-8,0,0)"
       y="-93.331001"
       x="74.667999"
       height="74.664795"
       width="2.6666012"
       id="rect3500"
       style="fill:#bbbbbb;fill-opacity:1;stroke:none" />
    <rect
       style="fill:#bbbbbb;fill-opacity:1;stroke:none"
       id="rect3502"
       width="2.6666043"
       height="53.331997"
       x="85.334404"
       y="-71.998199"
       transform="matrix(-7.3523197e-8,1,-1,-1.838078e-8,0,0)" />
    <rect
       transform="matrix(-1.0180135e-7,1,-1,-1.3275007e-8,0,0)"
       y="-90.664406"
       x="96.000801"
       height="71.998199"
       width="2.6665885"
       id="rect3504"
       style="fill:#bbbbbb;fill-opacity:1;stroke:none" />
    <rect
       transform="matrix(-4.7790078e-8,1,-1,-2.8278123e-8,0,0)"
       y="-53.332005"
       x="106.6672"
       height="34.665798"
       width="2.6666043"
       id="rect3506"
       style="fill:#bbbbbb;fill-opacity:1;stroke:none" />
    <g
       id="g2244"
       transform="translate(4.158404,18.772821)">
      <path
         sodipodi:nodetypes="czccccc"
         id="path3180"
         d="m 112.94799,0.35536433 c 0.42178,-0.45648598 3.1413,-0.1912685 5.99723,2.46697967 2.88395,2.6843075 3.4306,5.2447375 2.90225,5.8165006 -0.34387,0.3721705 -0.68776,0.7443387 -1.03163,1.1165084 -2.96652,-2.7611614 -5.93302,-5.5223205 -8.89952,-8.2834816 0.34388,-0.3721691 0.68777,-0.74433746 1.03167,-1.11650707 0,0 0,0 0,0"
         style="fill:#000000;fill-opacity:1;fill-rule:evenodd;stroke:none" />
      <path
         style="fill:#000000;fill-opacity:1;fill-rule:evenodd;stroke:#000000;stroke-width:0;stroke-linecap:butt;stroke-linejoin:miter;stroke-miterlimit:4;stroke-opacity:1;stroke-dasharray:none"
         d="m 31.841596,97.227179 24.25311,-17.290245 0.137506,-0.148819 -8.753434,-8.441581 -0.186379,0.201631 -15.450803,25.679014 z"
         id="path3299"
         sodipodi:nodetypes="cccccc" />
      <path
         sodipodi:nodetypes="cccccc"
         id="path2247"
         d="M 33.24339,95.81655 55.860461,79.702444 55.997958,79.553632 47.713032,71.581016 47.526643,71.782654 33.24339,95.81655 z"
         style="fill:url(#radialGradient3427);fill-opacity:1;fill-rule:evenodd;stroke:#000000;stroke-width:0;stroke-linecap:butt;stroke-linejoin:miter;stroke-miterlimit:4;stroke-opacity:1;stroke-dasharray:none" />
      <path
         sodipodi:nodetypes="csccccsz"
         id="rect2192"
         d="m 51.062305,76.425915 c 1.097685,1.021695 2.220177,0.638674 2.612553,1.003879 0.06341,0.05902 0.105512,0.139602 0.135319,0.225737 L 119.0733,6.8873808 114.75934,2.8720371 49.372313,73.774261 c 0.196731,-0.01587 0.371209,-0.0037 0.49531,0.111827 0.358642,0.333827 0.0919,1.513377 1.194682,2.539827 z"
         style="fill:url(#radialGradient3429);fill-opacity:1;fill-rule:nonzero;stroke:none" />
      <path
         sodipodi:nodetypes="ccsccc"
         style="opacity:0.35348834;fill:#000000;fill-opacity:1;fill-rule:nonzero;stroke:none"
         d="m 56.139602,74.817489 -2.555532,2.765689 c 0.34297,0.377187 -0.127529,1.416196 0.531707,2.029791 0.710454,0.661283 1.481836,-0.08824 1.943528,0.336466 l 2.586504,-2.79924 -2.506207,-2.332706 z"
         id="path2233" />
      <path
         id="rect2190"
         d="M 118.9158,6.7407945 53.702245,77.455294 c 0.34485,0.378959 -0.0061,1.291328 0.656486,1.908056 0.714077,0.664677 1.367529,0.04321 1.831562,0.47011 L 121.43482,9.0854486 118.9158,6.7407945 z"
         style="fill:url(#radialGradient3431);fill-opacity:1;fill-rule:nonzero;stroke:none"
         sodipodi:nodetypes="ccsccc" />
      <path
         sodipodi:nodetypes="cccccccccc"
         style="opacity:0.38604653;fill:#252525;fill-opacity:1;fill-rule:nonzero;stroke:none"
         d="m 51.110015,72.542739 -1.310929,1.418743 -0.04965,0.05251 c 0.292939,0.29101 -0.134903,1.348117 0.805133,2.39654 l 0.05478,0.05098 0.390311,0.363292 0.05478,0.05099 c 1.122781,0.871648 2.140482,0.345191 2.532844,0.710384 l 1.38838,-1.510395 -3.865654,-3.533049 z"
         id="path2231" />
      <path
         sodipodi:nodetypes="ccsccccccc"
         style="opacity:0.35348834;fill:#131313;fill-opacity:1;fill-rule:nonzero;stroke:none"
         d="m 48.617047,70.194463 -1.32703,1.357427 c 0.01375,0.01274 -0.09456,0.13101 -0.08076,0.143863 0.281593,0.262094 -0.109051,1.318685 0.359271,1.935441 l 0.04794,0.0446 0.212268,0.197588 0.0274,0.02548 c 0.663136,0.443826 1.553306,-0.108418 1.893303,0.115127 L 51.123256,72.527196 48.61705,70.19446 z"
         id="path2229" />
      <path
         sodipodi:nodetypes="cccccsz"
         id="rect1315"
         d="m 47.968759,73.509359 c 0.691159,0.628419 1.532994,0.03619 1.898864,0.376729 L 115.08119,3.1715988 112.53531,0.80196718 47.290776,71.549985 c 0.01398,0.01293 0.02771,0.02579 0.04173,0.03886 0.286051,0.26624 -0.06007,1.28726 0.636255,1.920517 z"
         style="fill:url(#linearGradient3433);fill-opacity:1;fill-rule:nonzero;stroke:none" />
      <rect
         transform="matrix(0.732512,0.680754,-0.680754,0.732512,0,0)"
         y="-76.585564"
         x="82.991852"
         height="2.8573658"
         width="12.154856"
         id="rect2069"
         style="fill:#000000;fill-opacity:1;stroke:none" />
      <path
         transform="matrix(0.56268,-0.608612,-1.155587,-1.072069,76.43844,59.62859)"
         d="m 82.172836,7.4622769 c 0,0.5365014 -21.264324,0.9714218 -47.495197,0.9714218 -26.2308731,0 -47.495197,-0.4349204 -47.495197,-0.9714218 0,-0.5365014 21.2643239,-0.9714217 47.495197,-0.9714217 26.230873,0 47.495197,0.4349203 47.495197,0.9714217 z"
         sodipodi:ry="0.97142172"
         sodipodi:rx="47.495197"
         sodipodi:cy="7.4622769"
         sodipodi:cx="34.677639"
         id="path3301"
         style="fill:url(#radialGradient3435);fill-opacity:1;fill-rule:nonzero;stroke:none"
         sodipodi:type="arc" />
      <path
         sodipodi:open="true"
         sodipodi:end="6.2517655"
         sodipodi:start="0"
         sodipodi:type="arc"
         style="fill:url(#radialGradient3437);fill-opacity:1;fill-rule:nonzero;stroke:none"
         id="path3321"
         sodipodi:cx="34.677639"
         sodipodi:cy="7.4622769"
         sodipodi:rx="71.883232"
         sodipodi:ry="0.4230493"
         d="m 106.56087,7.4622769 c 0,0.2336437 -32.183218,0.4230493 -71.883231,0.4230493 -39.7000129,0 -71.883232,-0.1894056 -71.883232,-0.4230493 0,-0.2336436 32.1832191,-0.4230493 71.883232,-0.4230493 38.820834,0 70.628211,0.1814027 71.847751,0.4097594"
         transform="matrix(0.465919,-0.505717,-0.837024,-0.779688,72.02739,62.11862)" />
      <path
         style="fill:url(#radialGradient3439);fill-opacity:1;fill-rule:nonzero;stroke:none"
         d="m 108.38485,5.3016098 c -1.25769,0.789173 -2.4497,2.1647807 -3.09003,3.3441549 l 7.15446,6.5986793 3.09002,-3.344154 -7.15445,-6.5986802 z m 6.40252,5.8988122 -3.09003,3.344154 2.5064,2.332897 c 1.09555,-0.65862 2.35256,-1.969144 3.09003,-3.344152 l -2.5064,-2.332899 z"
         id="path2274"
         sodipodi:nodetypes="cccccccccc" />
      <path
         sodipodi:nodetypes="cccc"
         id="path2265"
         d="M 42.270532,89.826738 C 40.642899,89.666673 39.244128,87.199367 38.343975,86.444505 L 31.842881,97.22175 42.270532,89.826738 z"
         style="fill:#000000;fill-opacity:1;fill-rule:evenodd;stroke:none" />
      <rect
         transform="matrix(0.731987,0.681319,-0.678649,0.734463,0,0)"
         y="-77.08168"
         x="86.674194"
         height="1.1477653"
         width="5.2419958"
         id="rect3205"
         style="fill:url(#radialGradient3441);fill-opacity:1;fill-rule:nonzero;stroke:none" />
      <path
         sodipodi:nodetypes="cszsss"
         id="path3233"
         d="m 118.05347,2.2273398 c 1.84784,1.4753972 3.1522,3.491506 3.22265,3.6842205 0.0704,0.1927157 -1.71219,-2.0680943 -3.24173,-3.1151253 -1.51784,-1.0390356 -3.66157,-1.0997892 -3.81798,-1.2258203 -0.15641,-0.1260302 -1.20931,-1.2769763 -0.2379,-1.21909722 1.01605,0.0605391 2.64768,0.73728012 4.07496,1.87582232 z"
         style="fill:url(#linearGradient3443);fill-opacity:1;fill-rule:evenodd;stroke:none" />
      <path
         id="text3284"
         d="m 60.938379,71.528265 c -0.20085,0.217143 -0.31428,0.424985 -0.340317,0.623519 -0.02603,0.198568 0.03779,0.369433 0.191479,0.512626 0.153038,0.142586 0.327234,0.193479 0.522579,0.152705 0.195351,-0.04082 0.393441,-0.169759 0.594282,-0.386893 0.201996,-0.218382 0.315992,-0.426835 0.342036,-0.625394 0.02603,-0.198557 -0.03748,-0.369111 -0.190511,-0.511705 -0.153693,-0.143199 -0.328206,-0.194389 -0.523552,-0.153598 -0.195349,0.04079 -0.394009,0.170367 -0.595996,0.38874 m -0.272531,-0.25394 c 0.410817,-0.444132 0.799688,-0.729553 1.166635,-0.856241 0.366933,-0.126686 0.668608,-0.07989 0.904995,0.140357 0.235737,0.219658 0.304284,0.517804 0.205647,0.894476 -0.09865,0.376678 -0.353376,0.787079 -0.764193,1.231227 -0.40967,0.442894 -0.79854,0.728317 -1.166633,0.856244 -0.366937,0.12668 -0.668275,0.0802 -0.904023,-0.139452 -0.236385,-0.220245 -0.305261,-0.518715 -0.206611,-0.895375 0.09978,-0.377909 0.354511,-0.788311 0.764183,-1.231236 m 3.85233,-2.674481 1.631011,-0.265084 -0.686405,0.742101 -1.095562,0.181667 -0.09408,1.104486 -0.689817,0.74578 0.142316,-1.652121 -1.566485,0.256283 0.688111,-0.743942 1.029579,-0.167362 0.08818,-1.041069 0.691535,-0.747639 -0.138382,1.5869 m 0.210274,-1.664629 0.720633,-0.779093 1.101647,-0.145011 0.06232,-1.113398 0.722344,-0.780942 -0.129996,1.83934 0.614429,0.572474 -0.659023,0.712494 -0.614418,-0.572495 -1.817938,0.266631 m 6.53648,-4.349469 c -0.118754,0.220124 -0.255164,0.436417 -0.409246,0.648878 -0.154085,0.212474 -0.325276,0.420492 -0.513561,0.624049 -0.425652,0.460183 -0.83058,0.761638 -1.214806,0.904391 -0.384868,0.142153 -0.693548,0.104899 -0.926034,-0.111707 -0.235099,-0.219045 -0.293369,-0.528313 -0.17483,-0.927787 0.118528,-0.3995 0.398046,-0.837342 0.838519,-1.313561 0.170039,-0.183826 0.341769,-0.351147 0.515197,-0.501939 0.174572,-0.152034 0.3488,-0.285984 0.522694,-0.401919 l 0.301843,0.281253 c -0.188884,0.11113 -0.36547,0.232569 -0.529765,0.364312 -0.16315,0.130502 -0.31549,0.272266 -0.456985,0.425243 -0.262463,0.283754 -0.423006,0.541873 -0.481647,0.774358 -0.05814,0.230658 -0.0094,0.418498 0.14624,0.563498 0.154335,0.143813 0.341986,0.180814 0.562933,0.111045 0.220936,-0.06978 0.457497,-0.240981 0.709699,-0.513648 0.06846,-0.07401 0.129511,-0.144604 0.183158,-0.211789 0.05413,-0.069 0.09939,-0.133654 0.135741,-0.193941 l -0.283272,-0.26395 -0.402261,0.434899 -0.252009,-0.234815 1.027029,-1.11035 0.701363,0.65348 m -0.771413,-1.883312 1.778477,-1.922763 0.284248,0.264835 -1.119465,1.210289 0.271559,0.253022 1.052709,-1.138113 0.284254,0.264847 -1.052708,1.138113 0.334079,0.311275 1.157121,-1.250995 0.284256,0.264848 -1.816139,1.963485 -1.458391,-1.358843 m 2.396409,-2.590835 0.736037,-0.795756 1.929731,-0.07289 -1.000265,-0.93198 0.624776,-0.675461 1.458395,1.358839 -0.73604,0.795759 -1.929734,0.07288 1.000271,0.931993 -0.624777,0.67546 -1.458394,-1.358841 m 4.149206,-4.48583 0.736038,-0.795745 1.929727,-0.0729 -1.000263,-0.93197 0.624775,-0.675473 1.458394,1.35884 -0.736036,0.795757 -1.929735,0.07288 1.00027,0.931995 -0.624776,0.67546 -1.458394,-1.358841 m 3.571656,-3.914515 c 0.243069,-0.262773 0.470916,-0.436374 0.683563,-0.520778 0.213792,-0.08562 0.382543,-0.0708 0.506279,0.04449 0.123725,0.115284 0.151229,0.282171 0.0825,0.50066 -0.06873,0.218502 -0.225191,0.459753 -0.469396,0.723767 -0.244205,0.264024 -0.472875,0.439153 -0.686016,0.525383 -0.211993,0.08501 -0.37986,0.06987 -0.503584,-0.04542 -0.123737,-0.115284 -0.151556,-0.282476 -0.08348,-0.501579 0.06922,-0.220329 0.225935,-0.462495 0.470134,-0.72652 m 0.219827,1.624348 1.408745,-1.523032 0.195359,0.182022 -1.408746,1.523041 -0.195358,-0.182031 m -0.05377,-1.469627 c -0.09585,0.103644 -0.14951,0.202948 -0.160982,0.297917 -0.01033,0.09375 0.02228,0.17581 0.09783,0.246194 0.07554,0.07039 0.159173,0.09663 0.250903,0.07873 0.09287,-0.01913 0.18723,-0.08051 0.28308,-0.184155 0.09472,-0.102389 0.147564,-0.200157 0.158545,-0.293299 0.01211,-0.09437 -0.0196,-0.176746 -0.09514,-0.247132 -0.07554,-0.07038 -0.160071,-0.09631 -0.253592,-0.07779 -0.09237,0.0173 -0.18592,0.07715 -0.280641,0.179536 m 4.36662,-3.649297 c 0.197708,-0.162621 0.372655,-0.262621 0.524828,-0.300002 0.152669,-0.03921 0.277519,-0.01362 0.374553,0.07679 0.144565,0.134697 0.157623,0.342103 0.03917,0.62222 -0.119108,0.279512 -0.364668,0.620367 -0.736678,1.022558 -0.131233,0.14188 -0.269216,0.278618 -0.413971,0.410197 -0.142949,0.130961 -0.290946,0.254919 -0.443984,0.371884 l -0.290126,-0.270323 c 0.158413,-0.100467 0.307213,-0.207605 0.446407,-0.32139 0.139685,-0.115627 0.268302,-0.236976 0.385839,-0.364046 0.174591,-0.18876 0.290853,-0.349188 0.348774,-0.481277 0.05905,-0.133328 0.05635,-0.230021 -0.0081,-0.290096 -0.06642,-0.06188 -0.164496,-0.05679 -0.294214,0.01529 -0.129232,0.07024 -0.286846,0.205914 -0.472852,0.407012 l -0.263605,0.284989 -0.24225,-0.225713 0.277298,-0.299795 c 0.165466,-0.178888 0.274057,-0.325779 0.325771,-0.440686 0.05107,-0.1155 0.04632,-0.20147 -0.01424,-0.257894 -0.05602,-0.05219 -0.138682,-0.04997 -0.248035,0.0066 -0.109343,0.05662 -0.235905,0.162641 -0.379697,0.318084 -0.106121,0.114746 -0.206549,0.237089 -0.301288,0.367023 -0.09473,0.129957 -0.18238,0.26535 -0.262952,0.406192 l -0.275458,-0.256656 c 0.109249,-0.160061 0.222568,-0.314029 0.339957,-0.461923 0.117389,-0.147879 0.237712,-0.288439 0.36095,-0.42169 0.332076,-0.359003 0.611525,-0.598227 0.838371,-0.717634 0.227332,-0.121244 0.403513,-0.12362 0.528547,-0.0071 0.08531,0.07949 0.115949,0.18729 0.09191,0.323382 -0.0247,0.135479 -0.102998,0.296816 -0.234906,0.483995"
         style="font-size:12px;font-style:normal;font-variant:normal;font-weight:bold;font-stretch:normal;text-align:start;line-height:125%;writing-mode:lr-tb;text-anchor:start;fill:url(#linearGradient3445);fill-opacity:1;stroke:none;font-family:Bitstream Vera Sans" />
      <rect
         style="fill:url(#radialGradient3447);fill-opacity:1;fill-rule:nonzero;stroke:none"
         id="rect2956"
         width="3.5949802"
         height="0.78205258"
         x="70.875519"
         y="-82.594727"
         transform="matrix(0.685219,0.728337,-0.782272,0.622937,0,0)" />
      <rect
         transform="matrix(-0.743171,-0.669101,-0.605652,0.795729,0,0)"
         y="-75.74585"
         x="-102.72707"
         height="0.78204978"
         width="3.594974"
         id="rect2961"
         style="fill:url(#radialGradient3449);fill-opacity:1;fill-rule:nonzero;stroke:none" />
    </g>
  </g>
</svg>
