<?xml version="1.0" encoding="UTF-8" standalone="no"?>
<!-- Created with Inkscape (http://www.inkscape.org/) -->

<svg
   xmlns:dc="http://purl.org/dc/elements/1.1/"
   xmlns:cc="http://creativecommons.org/ns#"
   xmlns:rdf="http://www.w3.org/1999/02/22-rdf-syntax-ns#"
   xmlns:svg="http://www.w3.org/2000/svg"
   xmlns="http://www.w3.org/2000/svg"
   xmlns:xlink="http://www.w3.org/1999/xlink"
   xmlns:sodipodi="http://sodipodi.sourceforge.net/DTD/sodipodi-0.dtd"
   xmlns:inkscape="http://www.inkscape.org/namespaces/inkscape"
   width="128"
   height="128"
   id="svg2"
   sodipodi:version="0.32"
   inkscape:version="0.47 r22583"
   version="1.0"
   sodipodi:docname="tacks-attention.svgz"
   inkscape:output_extension="org.inkscape.output.svgz.inkscape"
   inkscape:export-filename="/home/pinheiro/pics/oxygen-icons/scalable/actions/small/48x48/view-pim-tasks-pending.png"
   inkscape:export-xdpi="135"
   inkscape:export-ydpi="135">
  <defs
     id="defs4">
    <linearGradient
       inkscape:collect="always"
       id="linearGradient5789">
      <stop
         style="stop-color:#c8e1ff;stop-opacity:1"
         offset="0"
         id="stop5791" />
      <stop
         style="stop-color:#ffffff;stop-opacity:1"
         offset="1"
         id="stop5793" />
    </linearGradient>
    <radialGradient
       inkscape:collect="always"
       xlink:href="#linearGradient5789"
       id="radialGradient4876"
       gradientUnits="userSpaceOnUse"
       gradientTransform="matrix(1,0,0,0.7462986,0,12.216192)"
       cx="71.30835"
       cy="48.151859"
       fx="71.30835"
       fy="48.151859"
       r="23.752516" />
    <radialGradient
       r="23.752516"
       fy="48.151859"
       fx="71.30835"
       cy="48.151859"
       cx="71.30835"
       gradientTransform="matrix(1,0,0,0.7462986,0,12.216192)"
       gradientUnits="userSpaceOnUse"
       id="radialGradient4876-7"
       xlink:href="#linearGradient5789-8"
       inkscape:collect="always" />
    <linearGradient
       id="linearGradient5789-8"
       inkscape:collect="always">
      <stop
         id="stop5791-7"
         offset="0"
         style="stop-color:#c8e1ff;stop-opacity:1" />
      <stop
         id="stop5793-1"
         offset="1"
         style="stop-color:#ffffff;stop-opacity:1" />
    </linearGradient>
    <linearGradient
       inkscape:collect="always"
       id="linearGradient3400">
      <stop
         style="stop-color:#ffff00;stop-opacity:1;"
         offset="0"
         id="stop3402" />
      <stop
         style="stop-color:#ffff00;stop-opacity:0;"
         offset="1"
         id="stop3404" />
    </linearGradient>
    <linearGradient
       inkscape:collect="always"
       id="linearGradient3377">
      <stop
         style="stop-color:#ffffff;stop-opacity:1;"
         offset="0"
         id="stop3379" />
      <stop
         style="stop-color:#ffffff;stop-opacity:0;"
         offset="1"
         id="stop3381" />
    </linearGradient>
    <linearGradient
       inkscape:collect="always"
       id="linearGradient3320">
      <stop
         style="stop-color:#ea3b18;stop-opacity:1;"
         offset="0"
         id="stop3322" />
      <stop
         style="stop-color:#ea3b18;stop-opacity:0;"
         offset="1"
         id="stop3324" />
    </linearGradient>
    <linearGradient
       id="linearGradient3282">
      <stop
         style="stop-color:#280f03;stop-opacity:1;"
         offset="0"
         id="stop3284" />
      <stop
         style="stop-color:#93330d;stop-opacity:1;"
         offset="1"
         id="stop3286" />
    </linearGradient>
    <linearGradient
       id="linearGradient3252"
       inkscape:collect="always">
      <stop
         id="stop3254"
         offset="0"
         style="stop-color:#ffffff;stop-opacity:1" />
      <stop
         id="stop3256"
         offset="1"
         style="stop-color:#ffffff;stop-opacity:0" />
    </linearGradient>
    <linearGradient
       inkscape:collect="always"
       id="linearGradient4193">
      <stop
         style="stop-color:#ffc404;stop-opacity:1;"
         offset="0"
         id="stop4195" />
      <stop
         style="stop-color:#ffc404;stop-opacity:0;"
         offset="1"
         id="stop4197" />
    </linearGradient>
    <linearGradient
       inkscape:collect="always"
       id="linearGradient4068">
      <stop
         style="stop-color:#ffffff;stop-opacity:1;"
         offset="0"
         id="stop4070" />
      <stop
         style="stop-color:#ffffff;stop-opacity:0;"
         offset="1"
         id="stop4072" />
    </linearGradient>
    <linearGradient
       inkscape:collect="always"
       id="linearGradient4056">
      <stop
         style="stop-color:#ffd500;stop-opacity:1"
         offset="0"
         id="stop4058" />
      <stop
         style="stop-color:#ffff99;stop-opacity:0"
         offset="1"
         id="stop4060" />
    </linearGradient>
    <linearGradient
       inkscape:collect="always"
       id="linearGradient3971">
      <stop
         style="stop-color:#ffffff;stop-opacity:1;"
         offset="0"
         id="stop3973" />
      <stop
         style="stop-color:#ffffff;stop-opacity:0;"
         offset="1"
         id="stop3975" />
    </linearGradient>
    <linearGradient
       inkscape:collect="always"
       id="linearGradient3954">
      <stop
         style="stop-color:#ffffbf;stop-opacity:1"
         offset="0"
         id="stop3956" />
      <stop
         style="stop-color:#ffffbf;stop-opacity:0"
         offset="1"
         id="stop3958" />
    </linearGradient>
    <linearGradient
       id="linearGradient3932"
       inkscape:collect="always">
      <stop
         id="stop3934"
         offset="0"
         style="stop-color:#ffff00;stop-opacity:1" />
      <stop
         id="stop3936"
         offset="1"
         style="stop-color:#ff7e00;stop-opacity:1" />
    </linearGradient>
    <linearGradient
       inkscape:collect="always"
       id="linearGradient3851">
      <stop
         style="stop-color:#ffdd00;stop-opacity:1"
         offset="0"
         id="stop3853" />
      <stop
         style="stop-color:#e15800;stop-opacity:1"
         offset="1"
         id="stop3855" />
    </linearGradient>
    <filter
       inkscape:collect="always"
       id="filter3950">
      <feGaussianBlur
         inkscape:collect="always"
         stdDeviation="0.45503695"
         id="feGaussianBlur3952" />
    </filter>
    <filter
       inkscape:collect="always"
       x="-0.1017926"
       width="1.2035852"
       y="-0.071501976"
       height="1.143004"
       id="filter4102">
      <feGaussianBlur
         inkscape:collect="always"
         stdDeviation="0.35786462"
         id="feGaussianBlur4104" />
    </filter>
    <filter
       inkscape:collect="always"
       id="filter3274">
      <feGaussianBlur
         inkscape:collect="always"
         stdDeviation="1.4432763"
         id="feGaussianBlur3276" />
    </filter>
    <filter
       inkscape:collect="always"
       x="-0.11405937"
       width="1.2281187"
       y="-0.030395781"
       height="1.0607916"
       id="filter3396">
      <feGaussianBlur
         inkscape:collect="always"
         stdDeviation="0.8554453"
         id="feGaussianBlur3398" />
    </filter>
    <linearGradient
       inkscape:collect="always"
       xlink:href="#linearGradient3377"
       id="linearGradient3705"
       gradientUnits="userSpaceOnUse"
       x1="85.398132"
       y1="82.805801"
       x2="61.264969"
       y2="46.195744"
       gradientTransform="matrix(0.95714164,0,0,0.95714164,-0.69606974,6.868089)" />
    <linearGradient
       inkscape:collect="always"
       xlink:href="#linearGradient3252"
       id="linearGradient3708"
       gradientUnits="userSpaceOnUse"
       gradientTransform="matrix(0.97912257,0,0,1.0452232,-2.0977498,5.112794)"
       x1="56.87429"
       y1="22.873119"
       x2="72.923073"
       y2="77.707237" />
    <linearGradient
       inkscape:collect="always"
       xlink:href="#linearGradient3282"
       id="linearGradient3711"
       gradientUnits="userSpaceOnUse"
       x1="67.096779"
       y1="35.311508"
       x2="67.096779"
       y2="105.4052"
       gradientTransform="matrix(0.95714164,0,0,0.95714164,-0.69606974,6.868089)" />
    <linearGradient
       inkscape:collect="always"
       xlink:href="#linearGradient3971"
       id="linearGradient3715"
       gradientUnits="userSpaceOnUse"
       gradientTransform="matrix(0.97178247,0,0,1.0452232,-2.0084997,4.810475)"
       x1="65.980019"
       y1="15.087444"
       x2="67.189468"
       y2="82.910049" />
    <radialGradient
       inkscape:collect="always"
       xlink:href="#linearGradient3932"
       id="radialGradient3720"
       gradientUnits="userSpaceOnUse"
       gradientTransform="matrix(3.948393,-0.41499202,0.14355163,1.3658027,-203.22477,6.053466)"
       cx="63.683678"
       cy="85.945168"
       fx="63.683678"
       fy="85.945168"
       r="48.004357" />
    <radialGradient
       inkscape:collect="always"
       xlink:href="#linearGradient4056"
       id="radialGradient3723"
       gradientUnits="userSpaceOnUse"
       gradientTransform="matrix(-7.8945387,-4.5580886,-0.52050412,0.90157402,330.71374,119.56129)"
       cx="22.004967"
       cy="102"
       fx="22.004967"
       fy="102"
       r="5.9950326" />
    <radialGradient
       inkscape:collect="always"
       xlink:href="#linearGradient4056"
       id="radialGradient3726"
       gradientUnits="userSpaceOnUse"
       gradientTransform="matrix(7.8945387,-4.5580886,0.52050412,0.90157402,-209.32696,119.56129)"
       cx="22.004967"
       cy="102"
       fx="22.004967"
       fy="102"
       r="5.9950326" />
    <radialGradient
       inkscape:collect="always"
       xlink:href="#linearGradient3320"
       id="radialGradient3730"
       gradientUnits="userSpaceOnUse"
       gradientTransform="matrix(1.3405437,-0.04681282,0.03210191,0.9192782,-26.078548,12.324577)"
       cx="64.025276"
       cy="25.956657"
       fx="64.025276"
       fy="25.956657"
       r="52.025275" />
    <linearGradient
       inkscape:collect="always"
       xlink:href="#linearGradient3851"
       id="linearGradient3733"
       gradientUnits="userSpaceOnUse"
       gradientTransform="matrix(0.95283227,0,0,1.0401858,-0.39786652,5.122311)"
       x1="74.685875"
       y1="37.71302"
       x2="74.685875"
       y2="108.00891" />
    <radialGradient
       inkscape:collect="always"
       xlink:href="#linearGradient3400"
       id="radialGradient3736"
       gradientUnits="userSpaceOnUse"
       gradientTransform="matrix(4.5093795,0,0,1.3282315,-223.72294,-5.5119394)"
       cx="63.75"
       cy="74.355972"
       fx="63.75"
       fy="74.355972"
       r="9" />
    <linearGradient
       inkscape:collect="always"
       xlink:href="#linearGradient3954"
       id="linearGradient3739"
       gradientUnits="userSpaceOnUse"
       x1="72.742889"
       y1="102.71508"
       x2="72.742889"
       y2="42.471062" />
    <radialGradient
       inkscape:collect="always"
       xlink:href="#linearGradient3400"
       id="radialGradient3741"
       gradientUnits="userSpaceOnUse"
       gradientTransform="matrix(4.5093795,0,0,4.2142344,-223.72294,-220.10349)"
       cx="63.75"
       cy="68.477737"
       fx="63.75"
       fy="68.477737"
       r="9" />
    <radialGradient
       inkscape:collect="always"
       xlink:href="#linearGradient4068"
       id="radialGradient3743"
       gradientUnits="userSpaceOnUse"
       gradientTransform="matrix(-1,0,0,-12.343127,128,293.46933)"
       cx="64"
       cy="21.994045"
       fx="64"
       fy="21.994045"
       r="4.21875" />
    <linearGradient
       inkscape:collect="always"
       xlink:href="#linearGradient4193"
       id="linearGradient3745"
       gradientUnits="userSpaceOnUse"
       x1="64.653976"
       y1="20.939892"
       x2="82.169357"
       y2="149.0795" />
    <linearGradient
       inkscape:collect="always"
       xlink:href="#linearGradient3377"
       id="linearGradient4267"
       gradientUnits="userSpaceOnUse"
       gradientTransform="matrix(0.93316099,0,0,0.93316099,0.8300739,7.9768194)"
       x1="85.398132"
       y1="82.805801"
       x2="61.264969"
       y2="46.195744" />
  </defs>
  <sodipodi:namedview
     id="base"
     pagecolor="#ffffff"
     bordercolor="#666666"
     borderopacity="1.0"
     gridtolerance="50"
     guidetolerance="10"
     objecttolerance="10"
     inkscape:pageopacity="0.0"
     inkscape:pageshadow="2"
     inkscape:zoom="2.8284271"
     inkscape:cx="78.365389"
     inkscape:cy="63.438119"
     inkscape:document-units="px"
     inkscape:current-layer="layer1"
     width="128px"
     height="128px"
     showgrid="true"
     showborder="true"
     inkscape:window-width="1219"
     inkscape:window-height="953"
     inkscape:window-x="257"
     inkscape:window-y="74"
     inkscape:grid-bbox="true"
     showguides="true"
     inkscape:guide-bbox="true"
     inkscape:snap-nodes="true"
     inkscape:snap-global="true"
     inkscape:snap-bbox="true"
     inkscape:object-paths="false"
     inkscape:window-maximized="0">
    <inkscape:grid
       id="GridFromPre046Settings"
       type="xygrid"
       originx="0px"
       originy="0px"
       spacingx="2.6666px"
       spacingy="2.6666px"
       color="#0000ff"
       empcolor="#0000ff"
       opacity="0.2"
       empopacity="0.4"
       empspacing="2"
       visible="true"
       enabled="true"
       dotted="false" />
  </sodipodi:namedview>
  <metadata
     id="metadata7">
    <rdf:RDF>
      <cc:Work
         rdf:about="">
        <dc:format>image/svg+xml</dc:format>
        <dc:type
           rdf:resource="http://purl.org/dc/dcmitype/StillImage" />
        <dc:title></dc:title>
      </cc:Work>
    </rdf:RDF>
  </metadata>
  <g
     inkscape:label="Layer 1"
     inkscape:groupmode="layer"
     id="layer1">
    <path
       style="fill:#ffc404;fill-opacity:1;fill-rule:evenodd;stroke:url(#linearGradient3745);stroke-width:1.82068181;stroke-linecap:round;stroke-linejoin:round;stroke-miterlimit:4;stroke-opacity:1;stroke-dasharray:none;filter:url(#filter3274)"
       d="m 63.594525,15.80685 c -2.506042,0.148021 -4.772901,1.659513 -6.024187,4.016797 L 16.791222,96.142808 c -1.324729,2.487114 -1.323664,5.551202 0.0028,8.037242 1.326458,2.48602 3.776617,4.01599 6.426867,4.01315 l 81.558231,0 c 2.65026,0.003 5.10041,-1.52713 6.42686,-4.01315 1.32646,-2.48604 1.32753,-5.550128 0.003,-8.037242 L 70.429661,19.823647 C 69.033862,17.19393 66.390069,15.640255 63.594525,15.80685 z"
       id="path4137"
       sodipodi:nodetypes="cccsccsccc"
       transform="matrix(1.0446599,0,0,1.0480287,-6.2989237,5.065484)" />
    <path
       style="fill:url(#linearGradient3733);fill-opacity:1;fill-rule:evenodd;stroke:none"
       d="m 60.166529,21.765283 c -2.576438,0.153326 -4.906973,1.718984 -6.19341,4.160744 L 12.048503,104.98014 c -1.361941,2.57625 -1.360846,5.75014 0.0029,8.32526 1.363719,2.57513 3.882705,4.15992 6.607401,4.15697 l 83.849236,0 c 2.72469,0.003 5.24367,-1.58184 6.60739,-4.15697 1.36371,-2.57512 1.3648,-5.74901 0.003,-8.32526 L 67.193666,25.926027 c -1.435008,-2.723956 -4.153065,-4.333309 -7.027137,-4.160744 z"
       id="path3833"
       sodipodi:nodetypes="cccsccsccc" />
    <path
       sodipodi:nodetypes="cccsccsccc"
       id="path3318"
       d="m 60.166529,21.765283 c -2.576438,0.153326 -4.906973,1.718984 -6.19341,4.160744 L 12.048503,104.98014 c -1.361941,2.57625 -1.360846,5.75014 0.0029,8.32526 1.363719,2.57513 3.882705,4.15992 6.607401,4.15697 l 83.849236,0 c 2.72469,0.003 5.24367,-1.58184 6.60739,-4.15697 1.36371,-2.57512 1.3648,-5.74901 0.003,-8.32526 L 67.193666,25.926027 c -1.435008,-2.723956 -4.153065,-4.333309 -7.027137,-4.160744 z"
       style="opacity:0.36734697;fill:url(#radialGradient3730);fill-opacity:1;fill-rule:evenodd;stroke:none" />
    <path
       style="opacity:0.92195123;fill:url(#radialGradient3743);fill-opacity:1;fill-rule:evenodd;stroke:none;filter:url(#filter4102)"
       d="m 63.59375,16 c -1.389197,0.08205 -2.704285,0.602887 -3.8125,1.4375 L 64,28 68.21875,17.4375 C 66.88987,16.43384 65.2712,15.900036 63.59375,16 z"
       id="path4051"
       transform="matrix(1.040146,0,0,1.0401858,-7.3099082,5.122311)" />
    <path
       style="opacity:0.80102036;fill:url(#radialGradient3726);fill-opacity:1;fill-rule:evenodd;stroke:none"
       d="m 23.719236,104.98014 -12.221715,2.04787 c -0.504133,2.09157 -0.24531,4.35172 0.780109,6.27362 1.37394,2.57513 3.918317,4.16369 6.663435,4.16074 l 2.697879,0 2.080292,-12.48223 z"
       id="path4041" />
    <path
       id="path4064"
       d="m 97.667549,104.98014 12.221721,2.04787 c 0.50413,2.09157 0.24531,4.35172 -0.78012,6.27362 -1.37393,2.57513 -3.91831,4.16369 -6.66343,4.16074 l -2.697877,0 -2.080294,-12.48223 z"
       style="opacity:0.71938776;fill:url(#radialGradient3723);fill-opacity:1;fill-rule:evenodd;stroke:none" />
    <path
       style="fill:url(#radialGradient3720);fill-opacity:1;fill-rule:evenodd;stroke:none"
       d="m 60.35164,26.017276 c -1.293927,0.07725 -2.464359,0.866132 -3.110427,2.096445 L 15.130802,107.77861 c -0.683988,1.29807 -0.68344,2.8973 0.0014,4.1948 0.684879,1.2975 1.949953,2.09602 3.318338,2.09454 l 84.22082,0 c 1.36839,0.002 2.63348,-0.79704 3.31834,-2.09454 0.68489,-1.2975 0.68544,-2.89673 0.002,-4.1948 L 63.880781,28.113721 C 63.160096,26.74122 61.795045,25.930325 60.35164,26.017276 l 0,0 z"
       id="path3831"
       sodipodi:nodetypes="cccsccscccc" />
    <path
       id="path3394"
       d="M 63.40625,36.71875 C 60.266222,36.913888 57.331988,39.264296 57.875,44 l 3.375853,37.398575 c 0.751589,-0.127399 1.524822,-0.21875 2.3125,-0.21875 0.94875,0 1.886426,0.09799 2.78125,0.28125 L 70.09375,44 c 0.690281,-4.956492 -3.128802,-7.502406 -6.6875,-7.28125 z"
       style="font-size:83.71386719px;font-style:normal;font-weight:normal;opacity:0.75;fill:none;stroke:url(#radialGradient3741);stroke-width:4;stroke-linecap:butt;stroke-linejoin:miter;stroke-miterlimit:4;stroke-opacity:1;stroke-dasharray:none;filter:url(#filter3396);font-family:Liberation Sans"
       sodipodi:nodetypes="cccsccc"
       transform="matrix(0.95714164,0,0,0.95714164,-0.69606974,6.868089)" />
    <path
       sodipodi:nodetypes="cccsccscccc"
       id="path3948"
       d="m 63.78125,20 c -1.351989,0.0737 -2.574941,0.826287 -3.25,2 l -44,76 c -0.714681,1.238357 -0.714106,2.764 0.0015,4.00181 0.715621,1.23782 2.037462,1.9996 3.46725,1.99819 l 88,0 c 1.42979,0.001 2.75163,-0.76037 3.46724,-1.99819 0.71562,-1.23781 0.71619,-2.763453 0.002,-4.00181 l -44,-76 c -0.753022,-1.30936 -2.179327,-2.082949 -3.6875,-2 l 0,0 z"
       style="fill:none;stroke:url(#linearGradient3739);stroke-width:0.95465171;stroke-linecap:round;stroke-linejoin:round;stroke-miterlimit:4;stroke-opacity:1;stroke-dasharray:none;filter:url(#filter3950)"
       transform="matrix(0.95543248,0,0,1.0521132,-0.9357224,4.286844)" />
    <path
       style="fill:url(#linearGradient3715);fill-opacity:1;fill-rule:evenodd;stroke:none"
       d="m 59.973005,25.714938 c -1.313838,0.07703 -2.502282,0.863654 -3.158292,2.090446 l -24.871561,46.21846 0.03037,0 24.841192,-45.009921 c 0.65601,-1.195885 1.844454,-1.950026 3.158292,-2.025121 1.465617,-0.08452 2.851676,0.691026 3.583449,2.025121 l 24.142721,43.703393 c 0.0096,-0.0021 0.02068,0.0021 0.03037,0 L 63.556457,27.805384 C 62.824683,26.43681 61.438624,25.628238 59.973008,25.714938 z"
       id="path3962" />
    <path
       style="font-size:83.71386719px;font-style:normal;font-weight:normal;opacity:0.75;fill:none;stroke:url(#radialGradient3736);stroke-width:4;stroke-linecap:butt;stroke-linejoin:miter;stroke-miterlimit:4;stroke-opacity:1;stroke-dasharray:none;filter:url(#filter3396);font-family:Liberation Sans"
       d="m 63.563353,87.929825 c -3.864,0 -7,3.136 -7,7 0,3.864 3.136,7.000005 7,7.000005 3.864,0 7,-3.136005 7,-7.000005 0,-3.864 -3.136,-7 -7,-7 z"
       id="path3408"
       sodipodi:nodetypes="csssc"
       transform="matrix(0.95714164,0,0,0.95714164,-0.69606974,6.868089)" />
    <path
       sodipodi:nodetypes="cccsccccsssc"
       style="font-size:83.71386719px;font-style:normal;font-weight:normal;fill:url(#linearGradient3711);fill-opacity:1;stroke:none;font-family:Liberation Sans"
       d="m 59.992693,42.013134 c -3.005451,0.186774 -5.813929,2.436447 -5.29419,6.969187 l 3.23117,35.795734 c 0.719377,-0.121939 1.45947,-0.209376 2.213389,-0.209376 0.908088,0 1.805578,0.09379 2.66205,0.269197 l 3.588465,-35.855555 c 0.660697,-4.744066 -2.994706,-7.180866 -6.400884,-6.969187 z m 0.150369,49.016252 c -3.698395,0 -6.699992,3.001596 -6.699992,6.699994 0,3.69839 3.001597,6.7 6.699992,6.7 3.698396,0 6.699992,-3.00161 6.699992,-6.7 0,-3.698398 -3.001596,-6.699994 -6.699992,-6.699994 z"
       id="text3278" />
    <path
       style="opacity:0.86734697;fill:url(#linearGradient3708);fill-opacity:1;fill-rule:evenodd;stroke:none"
       d="m 60.351913,26.017258 c -1.323762,0.07703 -2.521182,0.863653 -3.182147,2.090446 l -25.059422,46.21846 c 7.68576,1.210981 15.940372,1.861803 24.539262,1.861803 11.325821,0 22.055997,-1.125723 31.668497,-3.168332 L 63.962428,28.107704 c -0.7373,-1.368574 -2.133829,-2.177147 -3.610515,-2.090446 z"
       id="path3895" />
    <path
       style="fill:url(#linearGradient4267);fill-opacity:1;fill-rule:evenodd;stroke:none"
       d="m 60.873152,26.6692 c 1.12712,0.167466 2.131455,0.881517 2.711999,1.953806 l 23.21238,42.575471 c -9.156758,1.936176 -19.393081,3.003613 -30.181927,3.003612 -8.094711,0 -15.848029,-0.627693 -23.095735,-1.749678 L 32.82,73.735508 c 7.493196,1.180639 15.528799,1.83716 23.91225,1.83716 11.04206,3e-6 21.510132,-1.099663 30.881796,-3.091095 L 63.876763,28.681329 C 63.247788,27.513828 62.108066,26.781702 60.873152,26.6692 z"
       id="path3368" />
  </g>
</svg>
