<?xml version="1.0" encoding="UTF-8" standalone="no"?>
<!-- Created with Inkscape (http://www.inkscape.org/) -->

<svg
   xmlns:dc="http://purl.org/dc/elements/1.1/"
   xmlns:cc="http://creativecommons.org/ns#"
   xmlns:rdf="http://www.w3.org/1999/02/22-rdf-syntax-ns#"
   xmlns:svg="http://www.w3.org/2000/svg"
   xmlns="http://www.w3.org/2000/svg"
   xmlns:xlink="http://www.w3.org/1999/xlink"
   xmlns:sodipodi="http://sodipodi.sourceforge.net/DTD/sodipodi-0.dtd"
   xmlns:inkscape="http://www.inkscape.org/namespaces/inkscape"
   width="128"
   height="128"
   id="svg2606"
   sodipodi:version="0.32"
   inkscape:version="0.48.0 r9654"
   version="1.0"
   sodipodi:docname="mime2.svgz"
   inkscape:output_extension="org.inkscape.output.svgz.inkscape"
   inkscape:export-filename="/home/pinheiro/pics/oxygen-icons/scalable/mimetypes/small/48x48/mime2.png"
   inkscape:export-xdpi="135"
   inkscape:export-ydpi="135">
  <defs
     id="defs2608">
    <linearGradient
       id="linearGradient6131">
      <stop
         id="stop6133"
         offset="0"
         style="stop-color:#fcfcfc;stop-opacity:1" />
      <stop
         style="stop-color:#f8f8f8;stop-opacity:1"
         offset="0.52275378"
         id="stop6135" />
      <stop
         id="stop6141"
         offset="0.77457333"
         style="stop-color:#f0efef;stop-opacity:1;" />
      <stop
         id="stop6139"
         offset="0.90122044"
         style="stop-color:#e3e1e1;stop-opacity:1;" />
      <stop
         id="stop6137"
         offset="1"
         style="stop-color:#cecbcb;stop-opacity:1" />
    </linearGradient>
    <linearGradient
       inkscape:collect="always"
       xlink:href="#linearGradient6131"
       id="linearGradient3893"
       gradientUnits="userSpaceOnUse"
       gradientTransform="matrix(1.0119858,0,0,1.0119858,-0.89554075,-0.9871566)"
       x1="86.73793"
       y1="93.621468"
       x2="95.460213"
       y2="102.34375" />
    <radialGradient
       inkscape:collect="always"
       xlink:href="#linearGradient3913-5"
       id="radialGradient3919-5"
       cx="90.75"
       cy="110.25299"
       fx="90.75"
       fy="110.25299"
       r="18.750002"
       gradientTransform="matrix(1.3067347,0,0,1.3067347,-27.83617,-33.818441)"
       gradientUnits="userSpaceOnUse" />
    <linearGradient
       inkscape:collect="always"
       id="linearGradient3913-5">
      <stop
         style="stop-color:#ffffff;stop-opacity:1;"
         offset="0"
         id="stop3915-4" />
      <stop
         style="stop-color:#ffffff;stop-opacity:0;"
         offset="1"
         id="stop3917-7" />
    </linearGradient>
    <clipPath
       clipPathUnits="userSpaceOnUse"
       id="clipPath3889-6">
      <path
         sodipodi:nodetypes="cscscssc"
         inkscape:connector-curvature="0"
         id="path3891-5"
         d="m 112,82.502986 c 0,4.465301 -2.79749,6.409952 -5.27972,8.093625 -5.10854,3.46508 -14.939114,3.32536 -20.720284,3.40638 -0.081,5.781159 0.16586,15.504599 -3.29922,20.613139 -1.68367,2.48224 -5.29051,5.38687 -8.20078,5.38687 2.31803,0 4.74284,-1.33476 7.58402,-4.08481 9.14197,-8.84873 17.36714,-16.13535 25.673154,-25.297529 C 109.67612,88.503916 112,86.97878 112,82.502986 z"
         style="fill:url(#linearGradient3893);fill-opacity:1;stroke:none" />
    </clipPath>
    <filter
       color-interpolation-filters="sRGB"
       inkscape:collect="always"
       id="filter3909-6">
      <feGaussianBlur
         inkscape:collect="always"
         stdDeviation="0.43040059"
         id="feGaussianBlur3911-9" />
    </filter>
    <linearGradient
       inkscape:collect="always"
       xlink:href="#linearGradient3897-7"
       id="linearGradient3895-3"
       gradientUnits="userSpaceOnUse"
       gradientTransform="matrix(1.3459172,0,0,1.3459172,-38.154591,-38.469319)"
       x1="86.73793"
       y1="93.621468"
       x2="95.18235"
       y2="102.06589" />
    <linearGradient
       id="linearGradient3897-7">
      <stop
         style="stop-color:#fcfcfc;stop-opacity:1"
         offset="0"
         id="stop3899-4" />
      <stop
         id="stop3901-5"
         offset="0.52275378"
         style="stop-color:#f8f8f8;stop-opacity:1" />
      <stop
         style="stop-color:#f0efef;stop-opacity:1;"
         offset="0.72337759"
         id="stop3903-2" />
      <stop
         style="stop-color:#e3e1e1;stop-opacity:1;"
         offset="0.89024991"
         id="stop3905-5" />
      <stop
         style="stop-color:#cecbcb;stop-opacity:1"
         offset="1"
         id="stop3907-4" />
    </linearGradient>
    <clipPath
       clipPathUnits="userSpaceOnUse"
       id="clipPath6093-7">
      <path
         inkscape:connector-curvature="0"
         sodipodi:nodetypes="cccssccc"
         id="path6095-4"
         d="m 17.000001,8 0.782827,110 57.5,0 c 1.675283,0 3.119418,0.18058 4.9,-1.6 C 88.980763,107.60206 99.94047,96.548195 107.19904,89.224043 109.6396,86.761431 110,84.752873 110,82.5 L 110,8 z"
         style="fill:#ffffff;fill-opacity:1" />
    </clipPath>
    <filter
       color-interpolation-filters="sRGB"
       inkscape:collect="always"
       id="filter6118-4"
       x="-0.1126375"
       width="1.225275"
       y="-0.12064722"
       height="1.2412944">
      <feGaussianBlur
         inkscape:collect="always"
         stdDeviation="2.3860572"
         id="feGaussianBlur6120-3" />
    </filter>
    <radialGradient
       inkscape:collect="always"
       xlink:href="#linearGradient5982-7"
       id="radialGradient5988-0"
       cx="64"
       cy="64.004021"
       fx="63.793392"
       fy="47.274845"
       r="47.5"
       gradientTransform="matrix(1.6842105,-0.08429519,0.06886339,1.3758846,-48.197001,-18.66323)"
       gradientUnits="userSpaceOnUse" />
    <linearGradient
       inkscape:collect="always"
       id="linearGradient5982-7">
      <stop
         style="stop-color:#ffffff;stop-opacity:1;"
         offset="0"
         id="stop5984-8" />
      <stop
         style="stop-color:#ffffff;stop-opacity:0;"
         offset="1"
         id="stop5986-6" />
    </linearGradient>
    <filter
       color-interpolation-filters="sRGB"
       inkscape:collect="always"
       id="filter6171-8"
       x="-0.47870937"
       width="1.9574188"
       y="-0.51275069"
       height="2.0255013">
      <feGaussianBlur
         inkscape:collect="always"
         stdDeviation="10.140743"
         id="feGaussianBlur6173-8" />
    </filter>
    <linearGradient
       inkscape:collect="always"
       xlink:href="#linearGradient4518-3"
       id="linearGradient4524-4"
       x1="72"
       y1="0"
       x2="72"
       y2="116.40091"
       gradientUnits="userSpaceOnUse"
       gradientTransform="translate(3.9208985e-7,2.7836914e-6)" />
    <linearGradient
       id="linearGradient4518-3">
      <stop
         style="stop-color:#eeecec;stop-opacity:1"
         offset="0"
         id="stop4520-1" />
      <stop
         id="stop5969-4"
         offset="0.40000001"
         style="stop-color:#f4f4f4;stop-opacity:1" />
      <stop
         style="stop-color:#f6f5f5;stop-opacity:1"
         offset="1"
         id="stop4522-9" />
    </linearGradient>
    <filter
       inkscape:collect="always"
       id="filter4111">
      <feGaussianBlur
         inkscape:collect="always"
         stdDeviation="1.5615"
         id="feGaussianBlur4113" />
    </filter>
    <filter
       inkscape:collect="always"
       id="filter4123">
      <feGaussianBlur
         inkscape:collect="always"
         stdDeviation="2.028"
         id="feGaussianBlur4125" />
    </filter>
    <linearGradient
       inkscape:collect="always"
       xlink:href="#linearGradient4085"
       id="linearGradient3445"
       gradientUnits="userSpaceOnUse"
       x1="184.25531"
       y1="90.565948"
       x2="150.10072"
       y2="47.255657" />
    <linearGradient
       id="linearGradient4085"
       inkscape:collect="always">
      <stop
         id="stop4087"
         offset="0"
         style="stop-color:#000000;stop-opacity:1;" />
      <stop
         id="stop4089"
         offset="1"
         style="stop-color:#000000;stop-opacity:0;" />
    </linearGradient>
    <filter
       color-interpolation-filters="sRGB"
       id="filter3866"
       inkscape:collect="always">
      <feGaussianBlur
         id="feGaussianBlur3868"
         stdDeviation="0.42318229"
         inkscape:collect="always" />
    </filter>
    <linearGradient
       inkscape:collect="always"
       xlink:href="#linearGradient4689"
       id="linearGradient3447"
       gradientUnits="userSpaceOnUse"
       gradientTransform="matrix(0.20707289,0,0,0.20907203,138.52233,41.506976)"
       x1="61.256485"
       y1="40.700394"
       x2="135.66525"
       y2="114.39767" />
    <linearGradient
       id="linearGradient4689">
      <stop
         id="stop4691"
         offset="0"
         style="stop-color:#3ea3f0;stop-opacity:1;" />
      <stop
         id="stop4693"
         offset="1"
         style="stop-color:#306998;stop-opacity:1;" />
    </linearGradient>
    <linearGradient
       inkscape:collect="always"
       xlink:href="#linearGradient4671"
       id="linearGradient3449"
       gradientUnits="userSpaceOnUse"
       gradientTransform="matrix(0.20707289,0,0,0.20907203,138.52233,41.506976)"
       x1="150.46764"
       y1="175.34167"
       x2="115.65335"
       y2="114.55355" />
    <linearGradient
       id="linearGradient4671">
      <stop
         id="stop4673"
         offset="0"
         style="stop-color:#ffd43b;stop-opacity:1;" />
      <stop
         id="stop4675"
         offset="1"
         style="stop-color:#fff762;stop-opacity:1;" />
    </linearGradient>
    <linearGradient
       inkscape:collect="always"
       xlink:href="#linearGradient3892"
       id="linearGradient3451"
       gradientUnits="userSpaceOnUse"
       gradientTransform="translate(-77.251416,0)"
       x1="236.39427"
       y1="29.939087"
       x2="250.71875"
       y2="54.749817" />
    <linearGradient
       id="linearGradient3892"
       inkscape:collect="always">
      <stop
         id="stop3894"
         offset="0"
         style="stop-color:#c3fbff;stop-opacity:1;" />
      <stop
         id="stop3896"
         offset="1"
         style="stop-color:#c3fbff;stop-opacity:0;" />
    </linearGradient>
    <linearGradient
       inkscape:collect="always"
       xlink:href="#linearGradient3900"
       id="linearGradient3453"
       gradientUnits="userSpaceOnUse"
       gradientTransform="translate(-77.251416,0)"
       x1="250.04576"
       y1="57.942139"
       x2="262.77051"
       y2="79.982071" />
    <linearGradient
       id="linearGradient3900"
       inkscape:collect="always">
      <stop
         id="stop3902"
         offset="0"
         style="stop-color:#ffffc3;stop-opacity:1;" />
      <stop
         id="stop3904"
         offset="1"
         style="stop-color:#ffffc3;stop-opacity:0;" />
    </linearGradient>
    <radialGradient
       inkscape:collect="always"
       xlink:href="#linearGradient3910"
       id="radialGradient3455"
       gradientUnits="userSpaceOnUse"
       gradientTransform="matrix(1,0,0,1.0097319,0,-0.594699)"
       cx="163.68689"
       cy="67.545692"
       fx="163.68689"
       fy="67.545692"
       r="15.146283" />
    <linearGradient
       id="linearGradient3910"
       inkscape:collect="always">
      <stop
         id="stop3912"
         offset="0"
         style="stop-color:#3c9ae3;stop-opacity:1;" />
      <stop
         id="stop3914"
         offset="1"
         style="stop-color:#3c9ae3;stop-opacity:0;" />
    </linearGradient>
    <radialGradient
       inkscape:collect="always"
       xlink:href="#linearGradient3920"
       id="radialGradient3457"
       gradientUnits="userSpaceOnUse"
       gradientTransform="matrix(1,0,0,1.0154073,0,-1.1058521)"
       cx="174.28229"
       cy="78.914383"
       fx="174.28229"
       fy="78.914383"
       r="15.17712" />
    <linearGradient
       id="linearGradient3920"
       inkscape:collect="always">
      <stop
         id="stop3922"
         offset="0"
         style="stop-color:#fff660;stop-opacity:1;" />
      <stop
         id="stop3924"
         offset="1"
         style="stop-color:#fff660;stop-opacity:0;" />
    </linearGradient>
    <linearGradient
       inkscape:collect="always"
       xlink:href="#linearGradient3996"
       id="linearGradient3459"
       gradientUnits="userSpaceOnUse"
       x1="260.32443"
       y1="74.543365"
       x2="260.32443"
       y2="35.283524" />
    <linearGradient
       id="linearGradient3996"
       inkscape:collect="always">
      <stop
         id="stop3998"
         offset="0"
         style="stop-color:#00296b;stop-opacity:1;" />
      <stop
         id="stop4000"
         offset="1"
         style="stop-color:#00296b;stop-opacity:0;" />
    </linearGradient>
    <clipPath
       id="clipPath3978"
       clipPathUnits="userSpaceOnUse">
      <path
         id="path3980"
         d="m 261.00635,45.814989 c -1.68725,0.0078 -3.29854,0.151738 -4.71631,0.402612 -4.17657,0.737864 -4.93488,2.282274 -4.93488,5.130432 l 0,3.76155 9.86976,0 0,1.25385 -9.86976,0 -3.70403,0 c -2.86843,0 -5.3801,1.724089 -6.16572,5.003896 -0.9062,3.759421 -0.9464,6.105361 0,10.0308 0.70158,2.921943 2.37704,5.003892 5.24546,5.003892 l 3.39345,0 0,-4.509257 c 0,-3.25767 2.81861,-6.131207 6.16572,-6.131208 l 9.85825,0 c 2.74419,0 4.93488,-2.259476 4.93488,-5.0154 l 0,-9.398123 c 0,-2.674759 -2.25646,-4.684025 -4.93488,-5.130432 -1.69547,-0.282233 -3.45468,-0.410452 -5.14194,-0.402612 z m -5.33748,3.025344 c 1.01947,0 1.85201,0.846138 1.85201,1.886527 0,1.036701 -0.83254,1.875023 -1.85201,1.875023 -1.02314,0 -1.85202,-0.838323 -1.85202,-1.875023 0,-1.040389 0.82888,-1.886527 1.85202,-1.886527 z"
         style="fill:url(#radialGradient3982);fill-opacity:1"
         inkscape:connector-curvature="0" />
    </clipPath>
    <filter
       color-interpolation-filters="sRGB"
       id="filter4016"
       inkscape:collect="always">
      <feGaussianBlur
         id="feGaussianBlur4018"
         stdDeviation="0.42496947"
         inkscape:collect="always" />
    </filter>
    <linearGradient
       inkscape:collect="always"
       xlink:href="#linearGradient4072"
       id="linearGradient3461"
       gradientUnits="userSpaceOnUse"
       x1="269.48016"
       y1="84.024391"
       x2="250.10233"
       y2="50.460991" />
    <linearGradient
       id="linearGradient4072"
       inkscape:collect="always">
      <stop
         id="stop4074"
         offset="0"
         style="stop-color:#bd7200;stop-opacity:1;" />
      <stop
         id="stop4076"
         offset="1"
         style="stop-color:#bd7200;stop-opacity:0;" />
    </linearGradient>
    <clipPath
       id="clipPath4058"
       clipPathUnits="userSpaceOnUse">
      <path
         inkscape:connector-curvature="0"
         style="fill:url(#radialGradient4062);fill-opacity:1"
         d="m 272.31401,56.363433 0,4.382723 c 0,3.397866 -2.88073,6.257747 -6.16572,6.257747 l -9.85825,0 c -2.70034,0 -4.93488,2.311125 -4.93488,5.015396 l 0,9.398124 c 0,2.674758 2.32589,4.248025 4.93488,5.015406 3.12421,0.918633 6.12016,1.084662 9.85825,0 2.48475,-0.719417 4.93488,-2.167254 4.93488,-5.015406 l 0,-3.761547 -9.85825,0 0,-1.253855 9.85825,0 4.93488,0 c 2.86843,0 3.93732,-2.000787 4.93487,-5.003892 1.03044,-3.091652 0.9866,-6.064778 0,-10.0308 -0.70889,-2.855535 -2.0628,-5.003896 -4.93487,-5.003896 l -3.70404,0 z m -5.54454,23.800141 c 1.02313,0 1.85201,0.838326 1.85201,1.875024 0,1.040383 -0.82888,1.886523 -1.85201,1.886523 -1.01949,0 -1.85202,-0.84614 -1.85202,-1.886523 0,-1.036698 0.83253,-1.875024 1.85202,-1.875024 z"
         id="path4060" />
    </clipPath>
    <filter
       color-interpolation-filters="sRGB"
       id="filter4068"
       inkscape:collect="always">
      <feGaussianBlur
         id="feGaussianBlur4070"
         stdDeviation="0.53395062"
         inkscape:collect="always" />
    </filter>
    <clipPath
       clipPathUnits="userSpaceOnUse"
       id="clipPath5480">
      <path
         sodipodi:nodetypes="ccssscccccc"
         inkscape:connector-curvature="0"
         id="path5482"
         d="m 18,8.5 c -0.339844,0 -0.5,0.2346178 -0.5,0.5 l 0,108.96875 c 0,0.82158 0.679323,1.49953 1.5,1.5 L 74,119.5 c 0.05307,3e-5 0.997884,-0.008 1.6875,5e-5 10.098603,-3.99538 25.4133,-22.753284 34.35853,-31.755094 1.47685,-1.656484 1.11385,-1.151317 1.45391,-2.888706 L 111.5,9 c 0,-0.3227174 -0.16322,-0.5 -0.5,-0.5 z"
         style="opacity:0.84653476;fill:url(#radialGradient5484);fill-opacity:1" />
    </clipPath>
    <clipPath
       clipPathUnits="userSpaceOnUse"
       id="clipPath4002">
      <path
         style="opacity:0.84653476;fill:url(#radialGradient4006);fill-opacity:1"
         d="m 136.60024,28.364047 c -0.17909,0 -0.26348,0.123636 -0.26348,0.263484 l 0,57.950076 c 0,0.432947 0.35798,0.790169 0.79045,0.790453 l 25.03101,0.01649 c 0.028,1.6e-5 1.72523,-0.0042 2.08864,2.7e-5 3.44688,-2.373288 15.79214,-15.257495 20.50599,-20.001167 0.77826,-0.872918 0.24114,-0.195015 0.76617,-0.847081 l 3e-5,-37.908802 c 0,-0.170061 -0.086,-0.263484 -0.26348,-0.263484 z"
         id="path4004"
         inkscape:connector-curvature="0"
         sodipodi:nodetypes="ccssscccccc" />
    </clipPath>
    <radialGradient
       inkscape:collect="always"
       xlink:href="#linearGradient5982-7"
       id="radialGradient4006"
       gradientUnits="userSpaceOnUse"
       gradientTransform="matrix(0.88752604,-0.04442092,0.03628884,0.72504797,102.50695,14.313361)"
       cx="64"
       cy="64.004021"
       fx="63.793392"
       fy="47.274845"
       r="47.5" />
  </defs>
  <sodipodi:namedview
     id="base"
     pagecolor="#ffffff"
     bordercolor="#666666"
     borderopacity="1.0"
     inkscape:pageopacity="0.0"
     inkscape:pageshadow="2"
     inkscape:zoom="2.8284271"
     inkscape:cx="71.329741"
     inkscape:cy="53.847663"
     inkscape:document-units="px"
     inkscape:current-layer="layer1"
     width="128px"
     height="128px"
     showgrid="true"
     inkscape:grid-points="true"
     showguides="true"
     inkscape:guide-bbox="true"
     inkscape:window-width="1224"
     inkscape:window-height="757"
     inkscape:window-x="507"
     inkscape:window-y="221"
     inkscape:snap-global="true"
     inkscape:window-maximized="0"
     inkscape:snap-page="true">
    <inkscape:grid
       id="GridFromPre046Settings"
       type="xygrid"
       originx="0px"
       originy="0px"
       spacingx="2.6666px"
       spacingy="2.6666px"
       color="#0000ff"
       empcolor="#0000ff"
       opacity="0.2"
       empopacity="0.4"
       empspacing="2"
       visible="true"
       enabled="true"
       snapvisiblegridlinesonly="true" />
    <sodipodi:guide
       orientation="1,0"
       position="-68,29.325902"
       id="guide4564" />
    <sodipodi:guide
       orientation="1,0"
       position="-121.62237,135.0574"
       id="guide3859" />
    <sodipodi:guide
       orientation="0,1"
       position="38.581514,-74.688154"
       id="guide4360" />
  </sodipodi:namedview>
  <metadata
     id="metadata2611">
    <rdf:RDF>
      <cc:Work
         rdf:about="">
        <dc:format>image/svg+xml</dc:format>
        <dc:type
           rdf:resource="http://purl.org/dc/dcmitype/StillImage" />
        <dc:title></dc:title>
      </cc:Work>
    </rdf:RDF>
  </metadata>
  <g
     inkscape:label="Livello 1"
     inkscape:groupmode="layer"
     id="layer1">
    <path
       style="opacity:0.45606695;fill:#000000;fill-opacity:1;filter:url(#filter4123)"
       d="m 13.333,5.3364 0,117.8304 49.8545,0.4332 c 2.115476,0.0184 4.528919,-1.77169 7,-4.25 0.71234,-0.71442 1.440746,-1.39395 2.15625,-2.09375 0.415612,-0.40649 0.832187,-0.81443 1.25,-1.21875 7.773958,-7.40962 26.98341,-25.122599 34.21875,-33.099999 0.42065,-0.42064 0.81207,-0.8111 1.15625,-1.1875 1.46444,-1.49766 2.76158,-2.8378 2.99375,-5.8625 L 112,75.156251 111.9972,5.3364 z"
       id="path5990"
       inkscape:connector-curvature="0"
       sodipodi:nodetypes="ccsssccccccc" />
    <path
       sodipodi:nodetypes="cccccccc"
       id="path3722"
       d="m 13.333,5.3364 0,118.3304 49.3318,0.3 c 1.527964,0 3.65713,-0.98408 6.387944,-2.83388 C 82.175824,111.57445 97.49744,91.890146 108.75009,80.500071 110.49334,78.756821 112,77.462561 112,73.300001 L 111.9972,5.3364 z"
       style="fill:#000000;fill-opacity:0.84716159;filter:url(#filter4111)"
       inkscape:connector-curvature="0" />
    <path
       style="fill:#ffffff;fill-opacity:1"
       d="m 13.333,5.3364 0,117.3304 49.3318,0 c 1.675283,0 3.914297,-0.56468 7,-3.6 8.870045,-8.72523 32.07567,-31.518599 39.33424,-38.842759 C 111.4396,77.761431 112,75.752871 112,73.500001 L 111.9972,5.3364 z"
       id="path34"
       sodipodi:nodetypes="cccssccc"
       inkscape:connector-curvature="0" />
    <path
       style="fill:url(#linearGradient4524-4);fill-opacity:1"
       d="m 16.5,8.000003 c -0.339844,0 -0.5,0.234618 -0.5,0.5 l 0,109.968747 c 0,0.82158 0.679323,1.5 1.5,1.5 l 48.6875,0 c 0.05308,0 0.810384,0.0234 1.5,0.0313 1.777664,-0.0401 3.131974,-0.75374 4.356035,-1.59328 1.051866,-0.29103 25.980435,-26.619589 35.101555,-35.809239 1.36239,-1.37262 2.18546,-3.94817 2.18546,-4.89561 l 5e-5,-69.201918 c 0,-0.322717 -0.16322,-0.5 -0.5,-0.5 z"
       id="path3967"
       inkscape:connector-curvature="0"
       sodipodi:nodetypes="ccsssccscccc" />
    <path
       sodipodi:nodetypes="ccssscccccc"
       inkscape:connector-curvature="0"
       id="path5980"
       d="m 16.5,8.000003 c -0.339844,0 -0.5,0.234618 -0.5,0.5 l 0,109.968747 c 0,0.82158 0.679323,1.49946 1.5,1.5 l 47.5,0.0313 c 0.05308,3e-5 3.273884,-0.008 3.9635,5e-5 6.540972,-4.50366 29.9679,-28.953329 38.91313,-37.955139 1.47685,-1.65649 0.4576,-0.37007 1.45391,-1.60746 l 6e-5,-71.937498 c 0,-0.322717 -0.16322,-0.5 -0.5,-0.5 z"
       style="opacity:0.84653476;fill:url(#radialGradient5988-0);fill-opacity:1" />
    <g
       id="g5486"
       style="opacity:1"
       transform="translate(-6.154973,-1.329579)">
      <text
         clip-path="url(#clipPath5480)"
         xml:space="preserve"
         style="font-size:3px;font-style:normal;font-variant:normal;font-weight:normal;font-stretch:normal;text-align:start;line-height:177.99999714000000495%;letter-spacing:-0.19000000000000000px;word-spacing:0px;writing-mode:lr-tb;text-anchor:start;fill:#000000;fill-opacity:0.45414848000000002;stroke:none;font-family:Courier New;-inkscape-font-specification:Courier New"
         x="14.821373"
         y="17.29369"
         id="text5338"
         sodipodi:linespacing="178%"
         transform="translate(3.1,-0.5)"><tspan
           sodipodi:role="line"
           id="tspan5340"
           x="14.821373"
           y="17.29369"
           style="font-size:3px;font-style:normal;font-variant:normal;font-weight:normal;font-stretch:normal;text-align:start;line-height:177.99999714000000495%;writing-mode:lr-tb;text-anchor:start;font-family:Courier New;-inkscape-font-specification:Courier New">    def parseCssString(str):</tspan><tspan
           sodipodi:role="line"
           x="14.821373"
           y="22.63369"
           id="tspan5342"
           style="font-size:3px;font-style:normal;font-variant:normal;font-weight:normal;font-stretch:normal;text-align:start;line-height:177.99999714000000495%;writing-mode:lr-tb;text-anchor:start;font-family:Courier New;-inkscape-font-specification:Courier New">      rules = []</tspan><tspan
           sodipodi:role="line"
           x="14.821373"
           y="27.97369"
           id="tspan5344"
           style="font-size:3px;font-style:normal;font-variant:normal;font-weight:normal;font-stretch:normal;text-align:start;line-height:177.99999714000000495%;writing-mode:lr-tb;text-anchor:start;font-family:Courier New;-inkscape-font-specification:Courier New">      # first, split on } to get the rule chunks</tspan><tspan
           sodipodi:role="line"
           x="14.821373"
           y="33.31369"
           id="tspan5346"
           style="font-size:3px;font-style:normal;font-variant:normal;font-weight:normal;font-stretch:normal;text-align:start;line-height:177.99999714000000495%;writing-mode:lr-tb;text-anchor:start;font-family:Courier New;-inkscape-font-specification:Courier New">      chunks = str.split('}')</tspan><tspan
           sodipodi:role="line"
           x="14.821373"
           y="38.65369"
           id="tspan5348"
           style="font-size:3px;font-style:normal;font-variant:normal;font-weight:normal;font-stretch:normal;text-align:start;line-height:177.99999714000000495%;writing-mode:lr-tb;text-anchor:start;font-family:Courier New;-inkscape-font-specification:Courier New">      for chunk in chunks:</tspan><tspan
           sodipodi:role="line"
           x="14.821373"
           y="43.99369"
           id="tspan5350"
           style="font-size:3px;font-style:normal;font-variant:normal;font-weight:normal;font-stretch:normal;text-align:start;line-height:177.99999714000000495%;writing-mode:lr-tb;text-anchor:start;font-family:Courier New;-inkscape-font-specification:Courier New">         # second, split on { to get the selector and the list of properties</tspan><tspan
           sodipodi:role="line"
           x="14.821373"
           y="49.333691"
           id="tspan5352"
           style="font-size:3px;font-style:normal;font-variant:normal;font-weight:normal;font-stretch:normal;text-align:start;line-height:177.99999714000000495%;writing-mode:lr-tb;text-anchor:start;font-family:Courier New;-inkscape-font-specification:Courier New">         bits = chunk.split('{')</tspan><tspan
           sodipodi:role="line"
           x="14.821373"
           y="54.673691"
           id="tspan5354"
           style="font-size:3px;font-style:normal;font-variant:normal;font-weight:normal;font-stretch:normal;text-align:start;line-height:177.99999714000000495%;writing-mode:lr-tb;text-anchor:start;font-family:Courier New;-inkscape-font-specification:Courier New">         if len(bits) != 2: continue</tspan><tspan
           sodipodi:role="line"
           x="14.821373"
           y="60.013691"
           id="tspan5356"
           style="font-size:3px;font-style:normal;font-variant:normal;font-weight:normal;font-stretch:normal;text-align:start;line-height:177.99999714000000495%;writing-mode:lr-tb;text-anchor:start;font-family:Courier New;-inkscape-font-specification:Courier New">         rule = {}</tspan><tspan
           sodipodi:role="line"
           x="14.821373"
           y="65.353691"
           id="tspan5358"
           style="font-size:3px;font-style:normal;font-variant:normal;font-weight:normal;font-stretch:normal;text-align:start;line-height:177.99999714000000495%;writing-mode:lr-tb;text-anchor:start;font-family:Courier New;-inkscape-font-specification:Courier New">         rule['selector'] = bits[0].strip()</tspan><tspan
           sodipodi:role="line"
           x="14.821373"
           y="70.693687"
           id="tspan5360"
           style="font-size:3px;font-style:normal;font-variant:normal;font-weight:normal;font-stretch:normal;text-align:start;line-height:177.99999714000000495%;writing-mode:lr-tb;text-anchor:start;font-family:Courier New;-inkscape-font-specification:Courier New">         # third, split on ; to get the property declarations</tspan><tspan
           sodipodi:role="line"
           x="14.821373"
           y="76.033691"
           id="tspan5362"
           style="font-size:3px;font-style:normal;font-variant:normal;font-weight:normal;font-stretch:normal;text-align:start;line-height:177.99999714000000495%;writing-mode:lr-tb;text-anchor:start;font-family:Courier New;-inkscape-font-specification:Courier New">         bites = bits[1].strip().split(';')</tspan><tspan
           sodipodi:role="line"
           x="14.821373"
           y="81.373688"
           id="tspan5364"
           style="font-size:3px;font-style:normal;font-variant:normal;font-weight:normal;font-stretch:normal;text-align:start;line-height:177.99999714000000495%;writing-mode:lr-tb;text-anchor:start;font-family:Courier New;-inkscape-font-specification:Courier New">         if len(bites) &lt; 1: continue</tspan><tspan
           sodipodi:role="line"
           x="14.821373"
           y="86.713692"
           id="tspan5366"
           style="font-size:3px;font-style:normal;font-variant:normal;font-weight:normal;font-stretch:normal;text-align:start;line-height:177.99999714000000495%;writing-mode:lr-tb;text-anchor:start;font-family:Courier New;-inkscape-font-specification:Courier New">         props = {}</tspan><tspan
           sodipodi:role="line"
           x="14.821373"
           y="92.053688"
           id="tspan5368"
           style="font-size:3px;font-style:normal;font-variant:normal;font-weight:normal;font-stretch:normal;text-align:start;line-height:177.99999714000000495%;writing-mode:lr-tb;text-anchor:start;font-family:Courier New;-inkscape-font-specification:Courier New">         for bite in bites:</tspan><tspan
           sodipodi:role="line"
           x="14.821373"
           y="97.393692"
           id="tspan5370"
           style="font-size:3px;font-style:normal;font-variant:normal;font-weight:normal;font-stretch:normal;text-align:start;line-height:177.99999714000000495%;writing-mode:lr-tb;text-anchor:start;font-family:Courier New;-inkscape-font-specification:Courier New">           # fourth, split on : to get the property name and value</tspan><tspan
           sodipodi:role="line"
           x="14.821373"
           y="102.73369"
           id="tspan5372"
           style="font-size:3px;font-style:normal;font-variant:normal;font-weight:normal;font-stretch:normal;text-align:start;line-height:177.99999714000000495%;writing-mode:lr-tb;text-anchor:start;font-family:Courier New;-inkscape-font-specification:Courier New">           nibbles = bite.strip().split(':')</tspan><tspan
           sodipodi:role="line"
           x="14.821373"
           y="108.07368"
           id="tspan5374"
           style="font-size:3px;font-style:normal;font-variant:normal;font-weight:normal;font-stretch:normal;text-align:start;line-height:177.99999714000000495%;writing-mode:lr-tb;text-anchor:start;font-family:Courier New;-inkscape-font-specification:Courier New">           if len(nibbles) != 2: continue</tspan><tspan
           sodipodi:role="line"
           x="14.821373"
           y="113.41369"
           id="tspan5376"
           style="font-size:3px;font-style:normal;font-variant:normal;font-weight:normal;font-stretch:normal;text-align:start;line-height:177.99999714000000495%;writing-mode:lr-tb;text-anchor:start;font-family:Courier New;-inkscape-font-specification:Courier New">           props[nibbles[0].strip()] = nibbles[1].strip()</tspan><tspan
           sodipodi:role="line"
           x="14.821373"
           y="118.75368"
           id="tspan5378"
           style="font-size:3px;font-style:normal;font-variant:normal;font-weight:normal;font-stretch:normal;text-align:start;line-height:177.99999714000000495%;writing-mode:lr-tb;text-anchor:start;font-family:Courier New;-inkscape-font-specification:Courier New">         rule['properties'] = props</tspan><tspan
           sodipodi:role="line"
           x="14.821373"
           y="124.09369"
           id="tspan5380"
           style="font-size:3px;font-style:normal;font-variant:normal;font-weight:normal;font-stretch:normal;text-align:start;line-height:177.99999714000000495%;writing-mode:lr-tb;text-anchor:start;font-family:Courier New;-inkscape-font-specification:Courier New">         rules.append(rule)</tspan><tspan
           sodipodi:role="line"
           x="14.821373"
           y="129.43369"
           id="tspan5382"
           style="font-size:3px;font-style:normal;font-variant:normal;font-weight:normal;font-stretch:normal;text-align:start;line-height:177.99999714000000495%;writing-mode:lr-tb;text-anchor:start;font-family:Courier New;-inkscape-font-specification:Courier New">      return rules</tspan></text>
    </g>
    <g
       transform="matrix(1.8976463,0,0,1.8976463,-242.71894,-45.824926)"
       id="g4093"
       clip-path="url(#clipPath4002)">
      <path
         style="fill:url(#linearGradient3445);fill-opacity:1;filter:url(#filter3866)"
         d="m 164.1,46.0125 c -1.68725,0.0078 -3.30098,0.155376 -4.71875,0.40625 -4.17657,0.737864 -4.9375,2.276842 -4.9375,5.125 l 0,3.78125 9.875,0 0,1.25 -9.875,0 -3.6875,0 c -2.86843,0 -5.37063,1.720193 -6.15625,5 -0.9062,3.759421 -0.9464,6.105811 0,10.03125 0.70158,2.921943 2.35033,5 5.21875,5 l 3.40625,0 0,-4.5 c 0,-3.25767 2.80914,-6.156249 6.15625,-6.15625 l 9.875,0 c 2.74419,0 4.9375,-2.244076 4.9375,-5 l 0,-9.40625 c 0,-2.674759 -2.25908,-4.678593 -4.9375,-5.125 -1.69547,-0.282233 -3.46899,-0.41409 -5.15625,-0.40625 z m -5.34375,3.03125 c 1.01947,0 1.875,0.834611 1.875,1.875 0,1.036701 -0.85553,1.875 -1.875,1.875 -1.02314,0 -1.84375,-0.8383 -1.84375,-1.875 0,-1.040389 0.82061,-1.875 1.84375,-1.875 z m 16.65625,7.53125 0,4.375 c 0,3.397866 -2.87126,6.25 -6.15625,6.25 l -9.875,0 c -2.70034,0 -4.9375,2.326979 -4.9375,5.03125 l 0,9.375 c 0,2.674758 2.32851,4.263869 4.9375,5.03125 3.12421,0.918633 6.13691,1.084662 9.875,0 2.48475,-0.719417 4.9375,-2.183098 4.9375,-5.03125 l 0,-3.75 -9.875,0 0,-1.25 9.875,0 4.9375,0 c 2.86843,0 3.9087,-1.996895 4.90625,-5 1.03044,-3.091652 0.9866,-6.065228 0,-10.03125 -0.70889,-2.855535 -2.03418,-5 -4.90625,-5 l -3.71875,0 z m -5.53125,23.78125 c 1.02313,0 1.84375,0.838302 1.84375,1.875 0,1.040383 -0.82062,1.90625 -1.84375,1.90625 -1.01949,0 -1.875,-0.865867 -1.875,-1.90625 0,-1.036698 0.85551,-1.875 1.875,-1.875 z"
         id="path3077"
         inkscape:connector-curvature="0" />
      <path
         inkscape:connector-curvature="0"
         style="fill:url(#linearGradient3447);fill-opacity:1"
         d="m 164.25635,45.814989 c -1.68725,0.0078 -3.29854,0.151738 -4.71631,0.402612 -4.17657,0.737864 -4.93488,2.282274 -4.93488,5.130432 l 0,3.76155 9.86976,0 0,1.25385 -9.86976,0 -3.70403,0 c -2.86843,0 -5.3801,1.724089 -6.16572,5.003896 -0.9062,3.759421 -0.9464,6.105361 0,10.0308 0.70158,2.921943 2.37704,5.003892 5.24546,5.003892 l 3.39345,0 0,-4.509257 c 0,-3.25767 2.81861,-6.131207 6.16572,-6.131208 l 9.85825,0 c 2.74419,0 4.93488,-2.259476 4.93488,-5.0154 l 0,-9.398123 c 0,-2.674759 -2.25646,-4.684025 -4.93488,-5.130432 -1.69547,-0.282233 -3.45468,-0.410452 -5.14194,-0.402612 z m -5.33748,3.025344 c 1.01947,0 1.85201,0.846138 1.85201,1.886527 0,1.036701 -0.83254,1.875023 -1.85201,1.875023 -1.02314,0 -1.85202,-0.838323 -1.85202,-1.875023 0,-1.040389 0.82888,-1.886527 1.85202,-1.886527 z"
         id="path1948" />
      <path
         inkscape:connector-curvature="0"
         style="fill:url(#linearGradient3449);fill-opacity:1"
         d="m 175.56401,56.363433 0,4.382723 c 0,3.397866 -2.88073,6.257747 -6.16572,6.257747 l -9.85825,0 c -2.70034,0 -4.93488,2.311125 -4.93488,5.015396 l 0,9.398124 c 0,2.674758 2.32589,4.248025 4.93488,5.015406 3.12421,0.918633 6.12016,1.084662 9.85825,0 2.48475,-0.719417 4.93488,-2.167254 4.93488,-5.015406 l 0,-3.761547 -9.85825,0 0,-1.253855 9.85825,0 4.93488,0 c 2.86843,0 3.93732,-2.000787 4.93487,-5.003892 1.03044,-3.091652 0.9866,-6.064778 0,-10.0308 -0.70889,-2.855535 -2.0628,-5.003896 -4.93487,-5.003896 l -3.70404,0 z m -5.54454,23.800141 c 1.02313,0 1.85201,0.838326 1.85201,1.875024 0,1.040383 -0.82888,1.886523 -1.85201,1.886523 -1.01949,0 -1.85202,-0.84614 -1.85202,-1.886523 0,-1.036698 0.83253,-1.875024 1.85202,-1.875024 z"
         id="path1950" />
      <path
         style="fill:url(#linearGradient3451);fill-opacity:1"
         d="m 164.25,46.3125 c -1.65736,0.0077 -3.23472,0.128991 -4.625,0.375 -2.03881,0.360191 -3.1465,0.919244 -3.75,1.625 -0.6011,0.702945 -0.78125,1.652851 -0.78125,3.03125 l 0,2.90625 c 2e-5,0.196344 0.17866,0.37498 0.375,0.375 l 9,0 c 0.3723,0 0.502,0.131401 0.502,0.5 l 0,1.25 c 0,0.305778 -0.0801,0.5 -0.502,0.5 l -9.875,0 -3.6875,0 c -2.64515,0 -4.90788,1.513267 -5.65625,4.5625 -0.002,0.01016 0.002,0.02106 0,0.03125 -0.001,0.0043 -0.0302,-0.0043 -0.0313,0 -4.3e-4,0.01041 -4.3e-4,0.02084 0,0.03125 -0.1068,0.443074 -0.17203,0.87075 -0.25,1.25 -0.0394,0.226767 0.17719,0.460061 0.40625,0.4375 12.82974,-0.722986 23.54565,-4.850038 28.375,-10.71875 0.0602,-0.06826 0.0942,-0.159012 0.0937,-0.25 l 0,-0.875 c 0,-2.401107 -2.04735,-4.242263 -4.53125,-4.65625 -1.66784,-0.277633 -3.40537,-0.3827 -5.0625,-0.375 z m -5.34375,2.03125 c 1.28613,0 2.375,1.066508 2.375,2.375 0,1.306568 -1.08683,2.375 -2.375,2.375 -1.28716,0 -2.34375,-1.085052 -2.34375,-2.375 0,-1.291947 1.05863,-2.375 2.34375,-2.375 z"
         id="path4080"
         inkscape:connector-curvature="0"
         sodipodi:nodetypes="ccsscccccccsccccccccscccsssss" />
      <path
         style="fill:url(#linearGradient3453);fill-opacity:1"
         d="m 176.09233,56.90625 0,3.84375 c 0,3.696625 -3.09554,6.78125 -6.6875,6.78125 l -9.875,0 c -2.39567,0 -4.40625,2.088213 -4.40625,4.5 l 0,0.25 c 0.26327,0.003 0.51656,0.03125 0.78125,0.03125 11.76488,0 22.17475,-2.924104 28.4375,-7.40625 -0.11574,-1.060471 -0.31808,-2.172488 -0.625,-3.40625 -0.34287,-1.381123 -0.86192,-2.54851 -1.5625,-3.34375 -0.70058,-0.79524 -1.57096,-1.25 -2.875,-1.25 l -3.1875,0 z"
         id="path3882"
         inkscape:connector-curvature="0" />
      <path
         id="path3908"
         d="m 164.25635,45.814989 c -1.68725,0.0078 -3.29854,0.151738 -4.71631,0.402612 -4.17657,0.737864 -4.93488,2.282274 -4.93488,5.130432 l 0,3.76155 9.86976,0 0,1.25385 -9.86976,0 -3.70403,0 c -2.86843,0 -5.3801,1.724089 -6.16572,5.003896 -0.9062,3.759421 -0.9464,6.105361 0,10.0308 0.70158,2.921943 2.37704,5.003892 5.24546,5.003892 l 3.39345,0 0,-4.509257 c 0,-3.25767 2.81861,-6.131207 6.16572,-6.131208 l 9.85825,0 c 2.74419,0 4.93488,-2.259476 4.93488,-5.0154 l 0,-9.398123 c 0,-2.674759 -2.25646,-4.684025 -4.93488,-5.130432 -1.69547,-0.282233 -3.45468,-0.410452 -5.14194,-0.402612 z m -5.33748,3.025344 c 1.01947,0 1.85201,0.846138 1.85201,1.886527 0,1.036701 -0.83254,1.875023 -1.85201,1.875023 -1.02314,0 -1.85202,-0.838323 -1.85202,-1.875023 0,-1.040389 0.82888,-1.886527 1.85202,-1.886527 z"
         style="fill:url(#radialGradient3455);fill-opacity:1"
         inkscape:connector-curvature="0" />
      <path
         id="path3918"
         d="m 175.56401,56.363433 0,4.382723 c 0,3.397866 -2.88073,6.257747 -6.16572,6.257747 l -9.85825,0 c -2.70034,0 -4.93488,2.311125 -4.93488,5.015396 l 0,9.398124 c 0,2.674758 2.32589,4.248025 4.93488,5.015406 3.12421,0.918633 6.12016,1.084662 9.85825,0 2.48475,-0.719417 4.93488,-2.167254 4.93488,-5.015406 l 0,-3.761547 -9.85825,0 0,-1.253855 9.85825,0 4.93488,0 c 2.86843,0 3.93732,-2.000787 4.93487,-5.003892 1.03044,-3.091652 0.9866,-6.064778 0,-10.0308 -0.70889,-2.855535 -2.0628,-5.003896 -4.93487,-5.003896 l -3.70404,0 z m -5.54454,23.800141 c 1.02313,0 1.85201,0.838326 1.85201,1.875024 0,1.040383 -0.82888,1.886523 -1.85201,1.886523 -1.01949,0 -1.85202,-0.84614 -1.85202,-1.886523 0,-1.036698 0.83253,-1.875024 1.85202,-1.875024 z"
         style="fill:url(#radialGradient3457);fill-opacity:1"
         inkscape:connector-curvature="0" />
      <path
         style="font-size:medium;font-style:normal;font-variant:normal;font-weight:normal;font-stretch:normal;text-indent:0;text-align:start;text-decoration:none;line-height:normal;letter-spacing:normal;word-spacing:normal;text-transform:none;direction:ltr;block-progression:tb;writing-mode:lr-tb;text-anchor:start;baseline-shift:baseline;opacity:0.71966529;color:#000000;fill:url(#linearGradient3459);fill-opacity:1;stroke:none;stroke-width:0.30000001;marker:none;visibility:visible;display:inline;overflow:visible;filter:url(#filter4016);enable-background:accumulate;font-family:Sans;-inkscape-font-specification:Sans"
         d="m 263.87262,42.253299 c -1.69534,0.0078 -6.76986,-1.923433 -8.19714,-1.670877 -2.10441,0.371781 -17.77395,-1.799962 -18.51923,-0.926172 -0.74528,0.87379 8.50763,9.49997 8.44984,10.936199 l -0.13258,3.295114 0,0.125 0.125,0 -6.5889,0.441942 4.11006,0.703585 0.31332,-0.353554 -1.87554,0.08839 c -2.92529,0.13786 -2.50757,1.87473 -3.30729,5.213388 -0.90929,3.772258 -0.90563,7.833512 0.0442,11.773129 0.35523,1.479466 -0.50511,5.175257 0.38534,6.086929 0.89045,0.911672 4.10349,4.20681 5.4758,3.678459 l 5.39499,-2.077126 8.28797,2.253903 0,-0.15625 0.13259,-7.46101 c 0.0563,-3.170647 2.20986,-1.611896 4.85095,-3.525126 l 3.59943,-2.607456 c 2.28903,-1.658195 6.51148,-0.922189 7.2722,-3.653649 l 3.57973,-12.853395 c 0.74026,-2.657963 -3.8411,-8.758372 -6.57804,-9.214532 -1.70479,-0.283784 -5.12735,-0.104768 -6.8227,-0.09689 z M 261,45.96875 c 1.67918,-0.0078 3.43885,0.125568 5.125,0.40625 2.6199,0.436654 4.8125,2.378352 4.8125,4.96875 l 0,9.40625 c 0,2.676434 -2.1194,4.875 -4.78125,4.875 l -9.875,0 c -3.43296,10e-7 -6.3125,2.937058 -6.3125,6.28125 l 0,4.34375 -3.25,0 c -1.39792,0 -2.47272,-0.483961 -3.3125,-1.34375 -0.83978,-0.859789 -1.4349,-2.088773 -1.78125,-3.53125 -0.94298,-3.911261 -0.90311,-6.222166 0,-9.96875 0.77152,-3.220956 3.22293,-4.90625 6.03125,-4.90625 l 3.6875,0 9.875,0 0.15625,0 0,-0.125 0,-1.25 0,-0.15625 -0.15625,0 -9.71875,0 0,-3.625 c 0,-1.410767 0.19699,-2.45508 0.875,-3.25 0.67801,-0.79492 1.86534,-1.352667 3.9375,-1.71875 1.40826,-0.249192 3.00834,-0.398487 4.6875,-0.40625 z m -5.34375,2.71875 c -1.10584,0 -2,0.911191 -2,2.03125 0,1.116654 0.89492,2.03125 2,2.03125 1.1017,0 2,-0.914242 2,-2.03125 0,-1.120411 -0.89753,-2.03125 -2,-2.03125 z"
         clip-path="url(#clipPath3978)"
         id="path3936"
         inkscape:connector-curvature="0"
         sodipodi:nodetypes="ccssccccccsccsscccsssssccccssssscssccsccccccccssccsssss"
         transform="translate(-96.747911,0)" />
      <path
         style="opacity:0.71966529;fill:url(#linearGradient3461);fill-opacity:1;stroke:none;filter:url(#filter4068)"
         d="m 247,49 0,44.5 42,0 0,-44.5 -42,0 z m 25.3125,7.375 3.71875,0 c 2.87207,0 4.19736,2.144465 4.90625,5 0.9866,3.966022 1.03044,6.939598 0,10.03125 -0.99755,3.003105 -2.03782,5 -4.90625,5 l -4.9375,0 -9.875,0 0,1.25 9.875,0 0,3.75 c 0,2.848152 -2.45275,4.311833 -4.9375,5.03125 -3.73809,1.084662 -6.75079,0.918633 -9.875,0 -2.60899,-0.767381 -4.9375,-2.356492 -4.9375,-5.03125 l 0,-9.375 c 0,-2.704271 2.23716,-5.03125 4.9375,-5.03125 l 9.875,0 c 3.28499,0 6.15625,-2.852134 6.15625,-6.25 l 0,-4.375 z m -5.53125,23.78125 c -1.01949,0 -1.875,0.838302 -1.875,1.875 0,1.040383 0.85551,1.90625 1.875,1.90625 1.02313,0 1.84375,-0.865867 1.84375,-1.90625 0,-1.036698 -0.82062,-1.875 -1.84375,-1.875 z"
         id="rect4039"
         clip-path="url(#clipPath4058)"
         inkscape:connector-curvature="0"
         transform="translate(-96.75,0)" />
    </g>
    <path
       style="fill:#000000"
       d=""
       id="path2197" />
    <path
       clip-path="url(#clipPath6093-7)"
       style="opacity:0.34728035;fill:#000000;fill-opacity:1;stroke:none;filter:url(#filter6171-8)"
       d="m 114.4,82.502986 c 0,4.465301 -4.99749,5.909952 -7.47972,7.593625 -5.10854,3.46508 -18.362065,-1.446073 -24.143235,-1.365053 -0.081,5.781159 3.371639,20.976032 -0.09344,26.084572 -1.68367,2.48224 -5.573338,8.68687 -8.483608,8.68687 -2.091359,1.5337 3.488204,8.21101 6.734971,5.31989 9.501888,-8.46107 35.131683,-30.022704 43.350823,-39.262889 2.04044,-2.29392 -4.90514,-9.844666 -9.88579,-7.057015 z"
       id="path6153"
       inkscape:connector-curvature="0"
       sodipodi:nodetypes="cscscssc"
       transform="matrix(1.2774204,0,0,1.2774204,-31.076286,-28.013102)" />
    <path
       sodipodi:nodetypes="cscscssc"
       inkscape:connector-curvature="0"
       id="path6081"
       d="m 113.9,82.502986 c 0,4.465301 -5.09749,6.009952 -7.57972,7.693625 -5.10854,3.46508 -16.139114,2.12536 -21.920284,2.20638 -0.081,5.781159 1.66586,17.304599 -1.79922,22.413139 -1.68367,2.48224 -4.69051,7.98687 -7.60078,7.98687 -2.091359,1.5337 3.488204,11.21101 6.734971,8.31989 9.501888,-8.46107 45.998943,-30.20138 54.218083,-39.441569 2.04044,-2.29392 -17.0724,-11.965986 -22.05305,-9.178335 z"
       style="opacity:0.40099009;fill:#000000;fill-opacity:1;stroke:none;filter:url(#filter6118-4)"
       clip-path="url(#clipPath6093-7)"
       transform="matrix(1.3299764,0,0,1.3299764,-36.963543,-37.156423)" />
    <path
       style="fill:url(#linearGradient3895-3);fill-opacity:1;stroke:none"
       d="m 111.99381,72.570604 c 0,5.938743 -3.72059,8.525082 -7.0219,10.764323 -6.794238,4.608475 -19.95169,4.558319 -27.64051,4.666073 -0.107728,7.688805 0.303611,20.48508 -4.304863,27.27932 -2.239241,3.30132 -7.036253,7.16441 -10.906844,7.16441 3.082925,0 6.307865,-1.7752 10.086567,-5.4327 12.158605,-11.76861 23.097887,-21.459634 34.14469,-33.645117 2.55216,-2.815215 5.64286,-4.843615 5.64286,-10.796309 z"
       id="path6011"
       inkscape:connector-curvature="0"
       sodipodi:nodetypes="cscscssc" />
    <path
       style="fill:#ffffff;fill-opacity:1;stroke:none"
       d="m 112.01875,73.115242 c -0.42084,5.185724 -5.08438,7.318602 -8.17936,9.417895 C 98.818947,85.938464 82.6646,85.3344 74.6648,85.3344 c 0,7.9998 1.619153,23.49711 -2.7864,30.22372 -1.912401,2.91993 -4.654194,5.79882 -8.19598,6.58338 2.633964,-0.48185 5.299865,-2.47561 8.470288,-5.54435 0.451018,-0.51674 0.763801,-0.90298 1.471286,-1.99496 4.608475,-6.79423 4.099678,-18.412383 4.207406,-26.10119 7.68882,-0.107728 20.028368,-0.145785 26.8226,-4.754259 0.619,-0.41986 2.51897,-1.313671 3.06727,-1.861967 2.04322,-2.043229 3.9922,-4.273773 4.29748,-8.769532 z M 63.68242,122.1415 c -0.209681,0.0464 -0.416863,0.0551 -0.623426,0.0831 0.208794,-0.0225 0.412882,-0.0446 0.623426,-0.0831 z"
       id="path6122"
       inkscape:connector-curvature="0"
       sodipodi:nodetypes="cscsccccsscccc" />
    <path
       style="fill:none;stroke:url(#radialGradient3919-5);stroke-width:1.20000005;stroke-linecap:butt;stroke-linejoin:miter;stroke-miterlimit:4;stroke-opacity:1;stroke-dasharray:none;filter:url(#filter3909-6)"
       d="M 117.31456,81.861283 72.639105,125.34835"
       id="path3873"
       inkscape:connector-curvature="0"
       sodipodi:nodetypes="cc"
       clip-path="url(#clipPath3889-6)"
       transform="matrix(1.3299764,0,0,1.3299764,-36.963543,-37.156423)" />
  </g>
</svg>
