<?xml version="1.0" encoding="UTF-8" standalone="no"?>
<!-- Created with Inkscape (http://www.inkscape.org/) -->

<svg
   xmlns:dc="http://purl.org/dc/elements/1.1/"
   xmlns:cc="http://creativecommons.org/ns#"
   xmlns:rdf="http://www.w3.org/1999/02/22-rdf-syntax-ns#"
   xmlns:svg="http://www.w3.org/2000/svg"
   xmlns="http://www.w3.org/2000/svg"
   xmlns:xlink="http://www.w3.org/1999/xlink"
   xmlns:sodipodi="http://sodipodi.sourceforge.net/DTD/sodipodi-0.dtd"
   xmlns:inkscape="http://www.inkscape.org/namespaces/inkscape"
   width="128"
   height="128"
   id="svg2606"
   sodipodi:version="0.32"
   inkscape:version="0.48.0 r9654"
   version="1.0"
   sodipodi:docname="mime2.svgz"
   inkscape:output_extension="org.inkscape.output.svgz.inkscape"
   inkscape:export-filename="/home/pinheiro/pics/oxygen-icons/scalable/mimetypes/small/48x48/mime2.png"
   inkscape:export-xdpi="135"
   inkscape:export-ydpi="135">
  <defs
     id="defs2608">
    <linearGradient
       id="linearGradient6131">
      <stop
         id="stop6133"
         offset="0"
         style="stop-color:#fcfcfc;stop-opacity:1" />
      <stop
         style="stop-color:#f8f8f8;stop-opacity:1"
         offset="0.52275378"
         id="stop6135" />
      <stop
         id="stop6141"
         offset="0.77457333"
         style="stop-color:#f0efef;stop-opacity:1;" />
      <stop
         id="stop6139"
         offset="0.90122044"
         style="stop-color:#e3e1e1;stop-opacity:1;" />
      <stop
         id="stop6137"
         offset="1"
         style="stop-color:#cecbcb;stop-opacity:1" />
    </linearGradient>
    <linearGradient
       inkscape:collect="always"
       xlink:href="#linearGradient6131"
       id="linearGradient3893"
       gradientUnits="userSpaceOnUse"
       gradientTransform="matrix(1.0119858,0,0,1.0119858,-0.89554075,-0.9871566)"
       x1="86.73793"
       y1="93.621468"
       x2="95.460213"
       y2="102.34375" />
    <radialGradient
       inkscape:collect="always"
       xlink:href="#linearGradient3913-5"
       id="radialGradient3919-5"
       cx="90.75"
       cy="110.25299"
       fx="90.75"
       fy="110.25299"
       r="18.750002"
       gradientTransform="matrix(1.3067347,0,0,1.3067347,-27.83617,-33.818441)"
       gradientUnits="userSpaceOnUse" />
    <linearGradient
       inkscape:collect="always"
       id="linearGradient3913-5">
      <stop
         style="stop-color:#ffffff;stop-opacity:1;"
         offset="0"
         id="stop3915-4" />
      <stop
         style="stop-color:#ffffff;stop-opacity:0;"
         offset="1"
         id="stop3917-7" />
    </linearGradient>
    <clipPath
       clipPathUnits="userSpaceOnUse"
       id="clipPath3889-6">
      <path
         sodipodi:nodetypes="cscscssc"
         inkscape:connector-curvature="0"
         id="path3891-5"
         d="m 112,82.502986 c 0,4.465301 -2.79749,6.409952 -5.27972,8.093625 -5.10854,3.46508 -14.939114,3.32536 -20.720284,3.40638 -0.081,5.781159 0.16586,15.504599 -3.29922,20.613139 -1.68367,2.48224 -5.29051,5.38687 -8.20078,5.38687 2.31803,0 4.74284,-1.33476 7.58402,-4.08481 9.14197,-8.84873 17.36714,-16.13535 25.673154,-25.297529 C 109.67612,88.503916 112,86.97878 112,82.502986 z"
         style="fill:url(#linearGradient3893);fill-opacity:1;stroke:none" />
    </clipPath>
    <filter
       color-interpolation-filters="sRGB"
       inkscape:collect="always"
       id="filter3909-6">
      <feGaussianBlur
         inkscape:collect="always"
         stdDeviation="0.43040059"
         id="feGaussianBlur3911-9" />
    </filter>
    <linearGradient
       inkscape:collect="always"
       xlink:href="#linearGradient3897-7"
       id="linearGradient3895-3"
       gradientUnits="userSpaceOnUse"
       gradientTransform="matrix(1.3459172,0,0,1.3459172,-38.154591,-38.469319)"
       x1="86.73793"
       y1="93.621468"
       x2="95.18235"
       y2="102.06589" />
    <linearGradient
       id="linearGradient3897-7">
      <stop
         style="stop-color:#fcfcfc;stop-opacity:1"
         offset="0"
         id="stop3899-4" />
      <stop
         id="stop3901-5"
         offset="0.52275378"
         style="stop-color:#f8f8f8;stop-opacity:1" />
      <stop
         style="stop-color:#f0efef;stop-opacity:1;"
         offset="0.72337759"
         id="stop3903-2" />
      <stop
         style="stop-color:#e3e1e1;stop-opacity:1;"
         offset="0.89024991"
         id="stop3905-5" />
      <stop
         style="stop-color:#cecbcb;stop-opacity:1"
         offset="1"
         id="stop3907-4" />
    </linearGradient>
    <clipPath
       clipPathUnits="userSpaceOnUse"
       id="clipPath6093-7">
      <path
         inkscape:connector-curvature="0"
         sodipodi:nodetypes="cccssccc"
         id="path6095-4"
         d="m 17.000001,8 0.782827,110 57.5,0 c 1.675283,0 3.119418,0.18058 4.9,-1.6 C 88.980763,107.60206 99.94047,96.548195 107.19904,89.224043 109.6396,86.761431 110,84.752873 110,82.5 L 110,8 z"
         style="fill:#ffffff;fill-opacity:1" />
    </clipPath>
    <filter
       color-interpolation-filters="sRGB"
       inkscape:collect="always"
       id="filter6118-4"
       x="-0.1126375"
       width="1.225275"
       y="-0.12064722"
       height="1.2412944">
      <feGaussianBlur
         inkscape:collect="always"
         stdDeviation="2.3860572"
         id="feGaussianBlur6120-3" />
    </filter>
    <radialGradient
       inkscape:collect="always"
       xlink:href="#linearGradient5982-7"
       id="radialGradient5988-0"
       cx="64"
       cy="64.004021"
       fx="63.793392"
       fy="47.274845"
       r="47.5"
       gradientTransform="matrix(1.6842105,-0.08429519,0.06886339,1.3758846,-48.197001,-18.66323)"
       gradientUnits="userSpaceOnUse" />
    <linearGradient
       inkscape:collect="always"
       id="linearGradient5982-7">
      <stop
         style="stop-color:#ffffff;stop-opacity:1;"
         offset="0"
         id="stop5984-8" />
      <stop
         style="stop-color:#ffffff;stop-opacity:0;"
         offset="1"
         id="stop5986-6" />
    </linearGradient>
    <filter
       color-interpolation-filters="sRGB"
       inkscape:collect="always"
       id="filter6171-8"
       x="-0.47870937"
       width="1.9574188"
       y="-0.51275069"
       height="2.0255013">
      <feGaussianBlur
         inkscape:collect="always"
         stdDeviation="10.140743"
         id="feGaussianBlur6173-8" />
    </filter>
    <linearGradient
       inkscape:collect="always"
       xlink:href="#linearGradient4518-3"
       id="linearGradient4524-4"
       x1="72"
       y1="0"
       x2="72"
       y2="116.40091"
       gradientUnits="userSpaceOnUse"
       gradientTransform="translate(3.9208985e-7,2.7836914e-6)" />
    <linearGradient
       id="linearGradient4518-3">
      <stop
         style="stop-color:#eeecec;stop-opacity:1"
         offset="0"
         id="stop4520-1" />
      <stop
         id="stop5969-4"
         offset="0.40000001"
         style="stop-color:#f4f4f4;stop-opacity:1" />
      <stop
         style="stop-color:#f6f5f5;stop-opacity:1"
         offset="1"
         id="stop4522-9" />
    </linearGradient>
    <filter
       inkscape:collect="always"
       id="filter4111">
      <feGaussianBlur
         inkscape:collect="always"
         stdDeviation="1.5615"
         id="feGaussianBlur4113" />
    </filter>
    <filter
       inkscape:collect="always"
       id="filter4123">
      <feGaussianBlur
         inkscape:collect="always"
         stdDeviation="2.028"
         id="feGaussianBlur4125" />
    </filter>
    <clipPath
       clipPathUnits="userSpaceOnUse"
       id="clipPath5480">
      <path
         sodipodi:nodetypes="ccssscccccc"
         inkscape:connector-curvature="0"
         id="path5482"
         d="m 12,14.5 c -0.339844,0 -0.5,0.234618 -0.5,0.5 l 0,108.96875 c 0,0.82158 0.679323,1.49953 1.5,1.5 L 68,125.5 c 0.05307,3e-5 0.997884,-0.008 1.6875,5e-5 10.098603,-3.99538 25.4133,-22.75328 34.35853,-31.755094 1.47685,-1.656484 1.11385,-1.151317 1.45391,-2.888706 L 105.5,15 c 0,-0.322717 -0.16322,-0.5 -0.5,-0.5 z"
         style="opacity:0.84653476;fill:url(#radialGradient5484);fill-opacity:1" />
    </clipPath>
    <clipPath
       clipPathUnits="userSpaceOnUse"
       id="clipPath3371">
      <path
         style="fill:none;stroke:#000000;stroke-width:0.82705986px;stroke-linecap:butt;stroke-linejoin:miter;stroke-opacity:1"
         d="M 171.30287,116.9594 201.69733,96.282903 191.56584,59.478738 87.563062,44.384895 l -3.308239,41.352994 27.706507,32.668861 3.72177,27.29298 53.1386,-16.74796 z"
         id="path3373"
         inkscape:connector-curvature="0" />
    </clipPath>
    <mask
       maskUnits="userSpaceOnUse"
       id="mask4201">
      <rect
         style="fill:#ffffff;fill-opacity:1;stroke:none;filter:url(#filter4189)"
         id="rect4203"
         width="102.35508"
         height="21.5"
         x="114.23332"
         y="113.74074"
         transform="matrix(0.98920346,-0.14654866,0,1,0,0)" />
    </mask>
    <filter
       color-interpolation-filters="sRGB"
       inkscape:collect="always"
       id="filter4189"
       x="-0.086867578"
       width="1.1737351"
       y="-0.24096829"
       height="1.4819366">
      <feGaussianBlur
         inkscape:collect="always"
         stdDeviation="3.7047241"
         id="feGaussianBlur4191" />
    </filter>
    <filter
       color-interpolation-filters="sRGB"
       inkscape:collect="always"
       id="filter4073"
       x="-0.33464053"
       width="1.669281"
       y="-0.38787878"
       height="1.7757576">
      <feGaussianBlur
         inkscape:collect="always"
         stdDeviation="0.88888889"
         id="feGaussianBlur4075" />
    </filter>
    <linearGradient
       inkscape:collect="always"
       xlink:href="#linearGradient4036"
       id="linearGradient4225"
       gradientUnits="userSpaceOnUse"
       gradientTransform="translate(0,11.499495)"
       x1="146.64844"
       y1="98.175781"
       x2="138.0625"
       y2="106.90483" />
    <linearGradient
       id="linearGradient4036">
      <stop
         id="stop4038"
         offset="0"
         style="stop-color:#f2a9d7;stop-opacity:1;" />
      <stop
         style="stop-color:#f282bf;stop-opacity:1;"
         offset="0.3488954"
         id="stop4040" />
      <stop
         id="stop4042"
         offset="0.67611599"
         style="stop-color:#b32c75;stop-opacity:1;" />
      <stop
         id="stop4044"
         offset="0.90122044"
         style="stop-color:#72234a;stop-opacity:1;" />
      <stop
         id="stop4046"
         offset="1"
         style="stop-color:#792149;stop-opacity:1;" />
    </linearGradient>
    <linearGradient
       inkscape:collect="always"
       xlink:href="#linearGradient4036"
       id="linearGradient4227"
       gradientUnits="userSpaceOnUse"
       gradientTransform="matrix(1,-0.29842483,0,-1,0,269.80234)"
       x1="148.11865"
       y1="74.647545"
       x2="160.66286"
       y2="121.21548" />
    <linearGradient
       id="linearGradient3330">
      <stop
         id="stop3332"
         offset="0"
         style="stop-color:#f2a9d7;stop-opacity:1;" />
      <stop
         style="stop-color:#f282bf;stop-opacity:1;"
         offset="0.3488954"
         id="stop3334" />
      <stop
         id="stop3336"
         offset="0.67611599"
         style="stop-color:#b32c75;stop-opacity:1;" />
      <stop
         id="stop3338"
         offset="0.90122044"
         style="stop-color:#72234a;stop-opacity:1;" />
      <stop
         id="stop3340"
         offset="1"
         style="stop-color:#792149;stop-opacity:1;" />
    </linearGradient>
    <linearGradient
       inkscape:collect="always"
       xlink:href="#linearGradient4036"
       id="linearGradient4229"
       gradientUnits="userSpaceOnUse"
       gradientTransform="translate(0,11.499495)"
       x1="148.11865"
       y1="74.647545"
       x2="160.66286"
       y2="121.21548" />
    <linearGradient
       id="linearGradient3343">
      <stop
         id="stop3345"
         offset="0"
         style="stop-color:#f2a9d7;stop-opacity:1;" />
      <stop
         style="stop-color:#f282bf;stop-opacity:1;"
         offset="0.3488954"
         id="stop3347" />
      <stop
         id="stop3349"
         offset="0.67611599"
         style="stop-color:#b32c75;stop-opacity:1;" />
      <stop
         id="stop3351"
         offset="0.90122044"
         style="stop-color:#72234a;stop-opacity:1;" />
      <stop
         id="stop3353"
         offset="1"
         style="stop-color:#792149;stop-opacity:1;" />
    </linearGradient>
    <filter
       color-interpolation-filters="sRGB"
       inkscape:collect="always"
       id="filter4077"
       x="-0.14586896"
       width="1.2917379"
       y="-0.37101448"
       height="1.742029">
      <feGaussianBlur
         inkscape:collect="always"
         stdDeviation="0.88888889"
         id="feGaussianBlur4079" />
    </filter>
    <filter
       color-interpolation-filters="sRGB"
       inkscape:collect="always"
       id="filter4081"
       x="-0.13819163"
       width="1.2763833"
       y="-0.36702508"
       height="1.7340502">
      <feGaussianBlur
         inkscape:collect="always"
         stdDeviation="0.88888889"
         id="feGaussianBlur4083" />
    </filter>
    <linearGradient
       inkscape:collect="always"
       xlink:href="#linearGradient4036"
       id="linearGradient4231"
       gradientUnits="userSpaceOnUse"
       x1="146.64844"
       y1="98.175781"
       x2="138.0625"
       y2="106.90483" />
    <linearGradient
       id="linearGradient3364">
      <stop
         id="stop3366"
         offset="0"
         style="stop-color:#f2a9d7;stop-opacity:1;" />
      <stop
         style="stop-color:#f282bf;stop-opacity:1;"
         offset="0.3488954"
         id="stop3368" />
      <stop
         id="stop3370"
         offset="0.67611599"
         style="stop-color:#b32c75;stop-opacity:1;" />
      <stop
         id="stop3372"
         offset="0.90122044"
         style="stop-color:#72234a;stop-opacity:1;" />
      <stop
         id="stop3374"
         offset="1"
         style="stop-color:#792149;stop-opacity:1;" />
    </linearGradient>
    <linearGradient
       inkscape:collect="always"
       xlink:href="#linearGradient4036"
       id="linearGradient4233"
       gradientUnits="userSpaceOnUse"
       x1="152.69911"
       y1="73.924515"
       x2="176.00912"
       y2="77.049515" />
    <linearGradient
       id="linearGradient3377">
      <stop
         id="stop3379"
         offset="0"
         style="stop-color:#f2a9d7;stop-opacity:1;" />
      <stop
         style="stop-color:#f282bf;stop-opacity:1;"
         offset="0.3488954"
         id="stop3381" />
      <stop
         id="stop3383"
         offset="0.67611599"
         style="stop-color:#b32c75;stop-opacity:1;" />
      <stop
         id="stop3385"
         offset="0.90122044"
         style="stop-color:#72234a;stop-opacity:1;" />
      <stop
         id="stop3387"
         offset="1"
         style="stop-color:#792149;stop-opacity:1;" />
    </linearGradient>
    <linearGradient
       inkscape:collect="always"
       xlink:href="#linearGradient4036"
       id="linearGradient4235"
       gradientUnits="userSpaceOnUse"
       x1="173.96384"
       y1="77.352905"
       x2="167.1041"
       y2="87.877029" />
    <linearGradient
       id="linearGradient3390">
      <stop
         id="stop3392"
         offset="0"
         style="stop-color:#f2a9d7;stop-opacity:1;" />
      <stop
         style="stop-color:#f282bf;stop-opacity:1;"
         offset="0.3488954"
         id="stop3394" />
      <stop
         id="stop3396"
         offset="0.67611599"
         style="stop-color:#b32c75;stop-opacity:1;" />
      <stop
         id="stop3398"
         offset="0.90122044"
         style="stop-color:#72234a;stop-opacity:1;" />
      <stop
         id="stop3400"
         offset="1"
         style="stop-color:#792149;stop-opacity:1;" />
    </linearGradient>
    <linearGradient
       inkscape:collect="always"
       xlink:href="#linearGradient4036"
       id="linearGradient4237"
       gradientUnits="userSpaceOnUse"
       x1="148.11865"
       y1="74.647545"
       x2="160.66286"
       y2="121.21548" />
    <linearGradient
       id="linearGradient3403">
      <stop
         id="stop3405"
         offset="0"
         style="stop-color:#f2a9d7;stop-opacity:1;" />
      <stop
         style="stop-color:#f282bf;stop-opacity:1;"
         offset="0.3488954"
         id="stop3407" />
      <stop
         id="stop3409"
         offset="0.67611599"
         style="stop-color:#b32c75;stop-opacity:1;" />
      <stop
         id="stop3411"
         offset="0.90122044"
         style="stop-color:#72234a;stop-opacity:1;" />
      <stop
         id="stop3413"
         offset="1"
         style="stop-color:#792149;stop-opacity:1;" />
    </linearGradient>
  </defs>
  <sodipodi:namedview
     id="base"
     pagecolor="#ffffff"
     bordercolor="#666666"
     borderopacity="1.0"
     inkscape:pageopacity="0.0"
     inkscape:pageshadow="2"
     inkscape:zoom="4"
     inkscape:cx="47.345248"
     inkscape:cy="70.682223"
     inkscape:document-units="px"
     inkscape:current-layer="layer1"
     width="128px"
     height="128px"
     showgrid="true"
     inkscape:grid-points="true"
     showguides="true"
     inkscape:guide-bbox="true"
     inkscape:window-width="1224"
     inkscape:window-height="757"
     inkscape:window-x="538"
     inkscape:window-y="326"
     inkscape:snap-global="true"
     inkscape:window-maximized="0"
     inkscape:snap-page="true">
    <inkscape:grid
       id="GridFromPre046Settings"
       type="xygrid"
       originx="0px"
       originy="0px"
       spacingx="2.6666px"
       spacingy="2.6666px"
       color="#0000ff"
       empcolor="#0000ff"
       opacity="0.2"
       empopacity="0.4"
       empspacing="2"
       visible="true"
       enabled="true"
       snapvisiblegridlinesonly="true" />
    <sodipodi:guide
       orientation="1,0"
       position="-68,29.325902"
       id="guide4564" />
    <sodipodi:guide
       orientation="1,0"
       position="-121.62237,135.0574"
       id="guide3859" />
    <sodipodi:guide
       orientation="0,1"
       position="38.581514,-74.688154"
       id="guide4360" />
  </sodipodi:namedview>
  <metadata
     id="metadata2611">
    <rdf:RDF>
      <cc:Work
         rdf:about="">
        <dc:format>image/svg+xml</dc:format>
        <dc:type
           rdf:resource="http://purl.org/dc/dcmitype/StillImage" />
        <dc:title></dc:title>
      </cc:Work>
    </rdf:RDF>
  </metadata>
  <g
     inkscape:label="Livello 1"
     inkscape:groupmode="layer"
     id="layer1">
    <path
       style="opacity:0.45606695;fill:#000000;fill-opacity:1;filter:url(#filter4123)"
       d="m 13.333,5.3364 0,117.8304 49.8545,0.4332 c 2.115476,0.0184 4.528919,-1.77169 7,-4.25 0.71234,-0.71442 1.440746,-1.39395 2.15625,-2.09375 0.415612,-0.40649 0.832187,-0.81443 1.25,-1.21875 7.773958,-7.40962 26.98341,-25.122599 34.21875,-33.099999 0.42065,-0.42064 0.81207,-0.8111 1.15625,-1.1875 1.46444,-1.49766 2.76158,-2.8378 2.99375,-5.8625 L 112,75.156251 111.9972,5.3364 z"
       id="path5990"
       inkscape:connector-curvature="0"
       sodipodi:nodetypes="ccsssccccccc" />
    <path
       sodipodi:nodetypes="cccccccc"
       id="path3722"
       d="m 13.333,5.3364 0,118.3304 49.3318,0.3 c 1.527964,0 3.65713,-0.98408 6.387944,-2.83388 C 82.175824,111.57445 97.49744,91.890146 108.75009,80.500071 110.49334,78.756821 112,77.462561 112,73.300001 L 111.9972,5.3364 z"
       style="fill:#000000;fill-opacity:0.84716159;filter:url(#filter4111)"
       inkscape:connector-curvature="0" />
    <path
       style="fill:#ffffff;fill-opacity:1"
       d="m 13.333,5.3364 0,117.3304 49.3318,0 c 1.675283,0 3.914297,-0.56468 7,-3.6 8.870045,-8.72523 32.07567,-31.518599 39.33424,-38.842759 C 111.4396,77.761431 112,75.752871 112,73.500001 L 111.9972,5.3364 z"
       id="path34"
       sodipodi:nodetypes="cccssccc"
       inkscape:connector-curvature="0" />
    <path
       style="fill:url(#linearGradient4524-4);fill-opacity:1"
       d="m 16.5,8.000003 c -0.339844,0 -0.5,0.234618 -0.5,0.5 l 0,109.968747 c 0,0.82158 0.679323,1.5 1.5,1.5 l 48.6875,0 c 0.05308,0 0.810384,0.0234 1.5,0.0313 1.777664,-0.0401 3.131974,-0.75374 4.356035,-1.59328 1.051866,-0.29103 25.980435,-26.619589 35.101555,-35.809239 1.36239,-1.37262 2.18546,-3.94817 2.18546,-4.89561 l 5e-5,-69.201918 c 0,-0.322717 -0.16322,-0.5 -0.5,-0.5 z"
       id="path3967"
       inkscape:connector-curvature="0"
       sodipodi:nodetypes="ccsssccscccc" />
    <path
       sodipodi:nodetypes="ccssscccccc"
       inkscape:connector-curvature="0"
       id="path5980"
       d="m 16.5,8.000003 c -0.339844,0 -0.5,0.234618 -0.5,0.5 l 0,109.968747 c 0,0.82158 0.679323,1.49946 1.5,1.5 l 47.5,0.0313 c 0.05308,3e-5 3.273884,-0.008 3.9635,5e-5 6.540972,-4.50366 29.9679,-28.953329 38.91313,-37.955139 1.47685,-1.65649 0.4576,-0.37007 1.45391,-1.60746 l 6e-5,-71.937498 c 0,-0.322717 -0.16322,-0.5 -0.5,-0.5 z"
       style="opacity:0.84653476;fill:url(#radialGradient5988-0);fill-opacity:1" />
    <text
       transform="translate(3.711427,-9.72409)"
       sodipodi:linespacing="178%"
       id="text4753"
       y="17.29369"
       x="14.821373"
       style="font-size:3px;font-style:normal;font-variant:normal;font-weight:normal;font-stretch:normal;text-align:start;line-height:177.99999713999997653%;letter-spacing:-0.19000000000000000px;word-spacing:0px;writing-mode:lr-tb;text-anchor:start;opacity:0.81171548;fill:#000000;fill-opacity:0.87772923000000003;stroke:none;font-family:Courier New;-inkscape-font-specification:Courier New"
       xml:space="preserve"
       clip-path="url(#clipPath5480)"><tspan
         id="tspan4755"
         y="17.29369"
         x="14.821373"
         sodipodi:role="line">   </tspan><tspan
         id="tspan4757"
         y="22.63369"
         x="14.821373"
         sodipodi:role="line">#ifndef OXYGEN_STYLE_H</tspan><tspan
         id="tspan4759"
         y="27.97369"
         x="14.821373"
         sodipodi:role="line">#define OXYGEN_STYLE_H</tspan><tspan
         id="tspan4761"
         y="33.31369"
         x="14.821373"
         sodipodi:role="line" /><tspan
         id="tspan4763"
         y="38.65369"
         x="14.821373"
         sodipodi:role="line">class QAbstractButton;</tspan><tspan
         id="tspan4765"
         y="43.99369"
         x="14.821373"
         sodipodi:role="line">class QHeaderView;</tspan><tspan
         id="tspan4767"
         y="49.333691"
         x="14.821373"
         sodipodi:role="line" /><tspan
         id="tspan4769"
         y="54.673691"
         x="14.821373"
         sodipodi:role="line">#include &lt;QCache&gt;</tspan><tspan
         id="tspan4771"
         y="60.013691"
         x="14.821373"
         sodipodi:role="line">#include &lt;QHash&gt;</tspan><tspan
         id="tspan4773"
         y="65.353691"
         x="14.821373"
         sodipodi:role="line" /><tspan
         id="tspan4775"
         y="70.693687"
         x="14.821373"
         sodipodi:role="line">namespace Oxygen {</tspan><tspan
         id="tspan4777"
         y="76.033691"
         x="14.821373"
         sodipodi:role="line" /><tspan
         id="tspan4779"
         y="81.373688"
         x="14.821373"
         sodipodi:role="line">enum BGMode { Plain = 0, Scanlines,G</tspan><tspan
         id="tspan4781"
         y="86.713692"
         x="14.821373"
         sodipodi:role="line">enum Acceleration { None = 0, QtGrad</tspan><tspan
         id="tspan4783"
         y="92.053688"
         x="14.821373"
         sodipodi:role="line">enum TabTransition {Jump = 0, CrossF</tspan><tspan
         id="tspan4785"
         y="97.393692"
         x="14.821373"
         sodipodi:role="line">{</tspan><tspan
         id="tspan4787"
         y="102.73369"
         x="14.821373"
         sodipodi:role="line">   Q_OBJECT</tspan><tspan
         id="tspan4789"
         y="108.07368"
         x="14.821373"
         sodipodi:role="line">public:</tspan><tspan
         id="tspan4791"
         y="113.41369"
         x="14.821373"
         sodipodi:role="line">   bool eventFilter( QObject *objec</tspan><tspan
         id="tspan4793"
         y="118.75368"
         x="14.821373"
         sodipodi:role="line">};</tspan><tspan
         id="tspan4795"
         y="124.09369"
         x="14.821373"
         sodipodi:role="line" /><tspan
         id="tspan4797"
         y="129.43369"
         x="14.821373"
         sodipodi:role="line">class OxygenStyle;</tspan><tspan
         id="tspan4799"
         y="134.77368"
         x="14.821373"
         sodipodi:role="line" /><tspan
         id="tspan4801"
         y="140.11369"
         x="14.821373"
         sodipodi:role="line">class HoverFadeInfo {</tspan><tspan
         id="tspan4803"
         y="145.45369"
         x="14.821373"
         sodipodi:role="line">public:</tspan></text>
    <path
       style="fill:#000000"
       d=""
       id="path2197" />
    <path
       clip-path="url(#clipPath6093-7)"
       style="opacity:0.34728035;fill:#000000;fill-opacity:1;stroke:none;filter:url(#filter6171-8)"
       d="m 114.4,82.502986 c 0,4.465301 -4.99749,5.909952 -7.47972,7.593625 -5.10854,3.46508 -18.362065,-1.446073 -24.143235,-1.365053 -0.081,5.781159 3.371639,20.976032 -0.09344,26.084572 -1.68367,2.48224 -5.573338,8.68687 -8.483608,8.68687 -2.091359,1.5337 3.488204,8.21101 6.734971,5.31989 9.501888,-8.46107 35.131683,-30.022704 43.350823,-39.262889 2.04044,-2.29392 -4.90514,-9.844666 -9.88579,-7.057015 z"
       id="path6153"
       inkscape:connector-curvature="0"
       sodipodi:nodetypes="cscscssc"
       transform="matrix(1.2774204,0,0,1.2774204,-31.076286,-28.013102)" />
    <g
       id="g4205"
       transform="matrix(1.6121324,0,0,1.6121324,-188.34529,-92.282395)"
       clip-path="url(#clipPath3371)">
      <g
         mask="url(#mask4201)"
         id="g4193">
        <path
           inkscape:connector-curvature="0"
           id="path4127"
           d="m 140.5625,120.43699 4.0625,5.5 2.3125,-0.75 z"
           style="fill:#21000e;fill-opacity:1;stroke:none;filter:url(#filter4073)" />
        <path
           sodipodi:nodetypes="ssscccccccs"
           inkscape:connector-curvature="0"
           id="path4135"
           d="m 141.56875,111.3245 c -0.16498,0.006 -0.33056,0.006 -0.5,0.0313 -2.71107,0.40667 -4.90625,3.20659 -4.90625,6.25 0,1.37709 0.44492,2.5735 1.1875,3.4375 l 0.1875,0.1875 c 0.0403,0.0414 0.0832,0.0854 0.125,0.125 l 3.5375,3.18125 7.4375,-9.125 -3.88125,-2.775 0,0 c 0,0 -1.93039,-1.3581 -3.1875,-1.3125 z"
           style="font-size:30px;font-style:normal;font-variant:normal;font-weight:normal;font-stretch:normal;text-align:start;line-height:125%;letter-spacing:0px;word-spacing:0px;writing-mode:lr-tb;text-anchor:start;fill:url(#linearGradient4225);fill-opacity:1;stroke:none;font-family:Swis721 Blk BT;-inkscape-font-specification:Swis721 Blk BT" />
        <path
           sodipodi:nodetypes="cccc"
           inkscape:connector-curvature="0"
           id="path4139"
           d="m 152.69911,140.09664 0,-33.35648 5.31903,4.5604 c 1.58984,11.29608 0.65767,23.34477 0,35.31154"
           style="fill:#9f2967;fill-opacity:1;stroke:none"
           inkscape:transform-center-x="12.140661"
           inkscape:transform-center-y="-1.7251737" />
        <path
           inkscape:connector-curvature="0"
           id="path4141"
           d="m 173.85983,108.94931 -6.06153,-4.75021 0,23.85863 1.8892,1.98065 4.8125,-2.77991 z"
           style="fill:#872658;fill-opacity:1;stroke:none"
           inkscape:transform-center-x="-3.21165"
           inkscape:transform-center-y="-13.429929"
           sodipodi:nodetypes="cccccc" />
        <path
           style="font-size:30px;font-style:normal;font-variant:normal;font-weight:normal;font-stretch:normal;text-align:start;line-height:125%;letter-spacing:0px;word-spacing:0px;writing-mode:lr-tb;text-anchor:start;fill:url(#linearGradient4227);fill-opacity:1;stroke:none;font-family:Swis721 Blk BT;-inkscape-font-specification:Swis721 Blk BT"
           d="m 158.01814,146.6121 0,-35.31153 9.24098,-1.37156 0,13.43984 c -1e-5,1.7726 0.29589,3.02859 0.86492,3.80649 0.56902,0.77788 1.42825,1.11665 2.59476,0.94354 1.15226,-0.17105 1.94321,-0.66211 2.41268,-1.48235 0.46942,-0.80428 0.72834,-2.21608 0.72835,-4.19627 l 0,-13.49094 9.19546,-1.36481 0,13.54204 c -3e-5,2.98626 -0.15651,5.17494 -0.45522,6.60863 -0.28453,1.43156 -0.75967,2.69656 -1.4567,3.74225 -0.78244,1.1701 -1.74409,2.09852 -2.86789,2.77636 -1.12385,0.69376 -2.43546,1.12796 -3.9149,1.34759 -1.43681,0.21321 -2.71997,0.10985 -3.91491,-0.28768 -1.18074,-0.39968 -2.24766,-1.10687 -3.18655,-2.13326 l 0,12.06009 z"
           id="path4175"
           inkscape:connector-curvature="0"
           inkscape:transform-center-x="-2.599215"
           inkscape:transform-center-y="-5.8254687" />
        <path
           style="font-size:30px;font-style:normal;font-variant:normal;font-weight:normal;font-stretch:normal;text-align:start;line-height:125%;letter-spacing:0px;word-spacing:0px;writing-mode:lr-tb;text-anchor:start;fill:url(#linearGradient4229);fill-opacity:1;stroke:none;font-family:Swis721 Blk BT;-inkscape-font-specification:Swis721 Blk BT"
           d="m 145.02119,114.31202 c -2.84439,0.42667 -5.14399,3.35309 -5.14399,6.54615 0,3.19305 2.2996,5.48069 5.14399,5.05402 2.84439,-0.42667 5.144,-3.4042 5.144,-6.59725 0,-3.19306 -2.29961,-5.42959 -5.144,-5.00292 z"
           id="path4145"
           inkscape:connector-curvature="0" />
      </g>
      <g
         id="g4113">
        <path
           style="fill:#21000e;fill-opacity:1;stroke:none;filter:url(#filter4073)"
           d="m 140.5625,108.9375 4.0625,5.5 2.3125,-0.75 z"
           id="path4043"
           inkscape:connector-curvature="0" />
        <path
           style="fill:#21000e;fill-opacity:1;stroke:none;filter:url(#filter4077)"
           d="m 158,111.25 -5.3125,-4.4375 8.6875,-1.3125 5.9375,4.5 z"
           id="path4045"
           inkscape:connector-curvature="0" />
        <path
           style="fill:#21000e;fill-opacity:1;stroke:none;filter:url(#filter4081)"
           d="m 167.75,104.375 6.0625,4.5 9.375,-1.375 -6.5625,-4.4375 z"
           id="path4047"
           inkscape:connector-curvature="0" />
        <path
           style="font-size:30px;font-style:normal;font-variant:normal;font-weight:normal;font-stretch:normal;text-align:start;line-height:125%;letter-spacing:0px;word-spacing:0px;writing-mode:lr-tb;text-anchor:start;fill:#959595;fill-opacity:1;stroke:none;font-family:Swis721 Blk BT;-inkscape-font-specification:Swis721 Blk BT"
           d="m 152.69911,73.136513 0,33.656477 8.80786,-1.3212 0,-12.80992 c -1e-5,-1.689514 0.28202,-2.970798 0.82438,-3.874091 0.54235,-0.903263 1.3613,-1.470566 2.47314,-1.63736 1.09825,-0.164723 1.85213,0.07837 2.2996,0.726607 0.44742,0.633065 0.6942,1.90504 0.69421,3.792419 l 0,12.858625 8.76447,-1.3147 0,-12.907328 c -3e-5,-2.846287 -0.14918,-4.887872 -0.43389,-6.169401 -0.27119,-1.283523 -0.72406,-2.354103 -1.38842,-3.152508 -0.74577,-0.892697 -1.66234,-1.504063 -2.73347,-1.83049 -1.07118,-0.341587 -2.32131,-0.38237 -3.73141,-0.170883 -1.36947,0.205455 -2.59249,0.668965 -3.73142,1.387741 -1.1254,0.716794 -2.14231,1.694297 -3.03719,2.93964 l 0,-11.494832 -8.80786,1.321204 z"
           id="path3222"
           inkscape:connector-curvature="0" />
        <path
           style="font-size:30px;font-style:normal;font-variant:normal;font-weight:normal;font-stretch:normal;text-align:start;line-height:125%;letter-spacing:0px;word-spacing:0px;writing-mode:lr-tb;text-anchor:start;fill:url(#linearGradient4231);fill-opacity:1;stroke:none;font-family:Swis721 Blk BT;-inkscape-font-specification:Swis721 Blk BT"
           d="m 141.56875,99.825 c -0.16498,0.006 -0.33056,0.0058 -0.5,0.03125 -2.71107,0.40667 -4.90625,3.2066 -4.90625,6.25 0,1.3771 0.44492,2.57351 1.1875,3.4375 l 0.1875,0.1875 c 0.0403,0.0414 0.0832,0.0854 0.125,0.125 l 3.5375,3.18125 7.4375,-9.125 -3.88125,-2.775 0,0 c 0,0 -1.93039,-1.358091 -3.1875,-1.3125 z"
           id="path3218"
           inkscape:connector-curvature="0"
           sodipodi:nodetypes="ssscccccccs" />
        <path
           style="fill:url(#linearGradient4233);fill-opacity:1;stroke:none"
           d="m 161.50697,71.815309 5.75215,2.832233 -9.24098,1.386174 -5.31903,-2.897203 z"
           id="path3224"
           inkscape:connector-curvature="0" />
        <path
           style="fill:#9f2967;fill-opacity:1;stroke:none"
           d="m 152.69911,73.136513 0,33.656477 5.31903,4.55226 c 1.58984,-11.770511 0.65767,-23.541023 0,-35.311534"
           id="path3226"
           inkscape:connector-curvature="0"
           sodipodi:nodetypes="cccc" />
        <path
           style="fill:#872658;fill-opacity:1;stroke:none"
           d="m 173.85983,108.96895 -6.06153,-4.44088 0,-12.858625 1.8892,-2.544445 4.8125,1.34375 -0.64017,18.5002 z"
           id="path3228"
           inkscape:connector-curvature="0" />
        <path
           style="fill:url(#linearGradient4235);fill-opacity:1;stroke:none"
           d="m 179.32107,82.776232 -0.55564,6.06773 -10.51821,-1.104855 -2.96101,-1.679378 -2.61565,-4.149138 1.8736,-1.54009 2.71496,-1.18122 0.49341,-0.114083 0.52305,-0.09244 0.52568,-0.06786 0.43271,-0.0382 0.49656,-0.02191 0.41703,0.0018 0.30584,0.01424 0.2454,0.02005 0.25402,0.02947 0.22917,0.03475 0.27648,0.05304 0.18226,0.04211 0.19711,0.05241 0.16915,0.05102 0,0 0.32037,0.107832 0.3376,0.137149 0.30123,0.144825 c 2.09988,1.111344 4.23429,2.160599 6.35488,3.232748 z"
           id="path3230"
           inkscape:connector-curvature="0"
           sodipodi:nodetypes="cccccccccccccccccccccccccc" />
        <path
           style="font-size:30px;font-style:normal;font-variant:normal;font-weight:normal;font-stretch:normal;text-align:start;line-height:125%;letter-spacing:0px;word-spacing:0px;writing-mode:lr-tb;text-anchor:start;fill:url(#linearGradient4237);fill-opacity:1;stroke:none;font-family:Swis721 Blk BT;-inkscape-font-specification:Swis721 Blk BT"
           d="m 158.01814,76.033716 0,35.311534 9.24098,-1.38618 0,-13.439841 c -1e-5,-1.772595 0.29589,-3.116886 0.86492,-4.064599 0.56902,-0.94768 1.42825,-1.54288 2.59476,-1.717876 1.15226,-0.172824 1.94321,0.08222 2.41268,0.762337 0.46942,0.664196 0.72834,1.99872 0.72835,3.978911 l 0,13.490948 9.19546,-1.37935 0,-13.542046 c -3e-5,-2.986253 -0.15651,-5.128232 -0.45522,-6.47278 -0.28453,-1.346641 -0.75967,-2.469866 -1.4567,-3.307533 -0.78244,-0.936595 -1.74409,-1.578025 -2.86789,-1.920504 -1.12385,-0.358384 -2.43546,-0.401173 -3.9149,-0.179286 -1.43681,0.215559 -2.71997,0.701861 -3.91491,1.455983 -1.18074,0.752042 -2.24766,1.777614 -3.18655,3.084197 l 0,-12.060089 z m -12.99695,26.778814 c -2.84439,0.42667 -5.14399,3.35309 -5.14399,6.54615 0,3.19305 2.2996,5.48069 5.14399,5.05402 2.84439,-0.42667 5.144,-3.4042 5.144,-6.59725 0,-3.19306 -2.29961,-5.42959 -5.144,-5.00292 z"
           id="text3211"
           inkscape:connector-curvature="0"
           sodipodi:nodetypes="cccssccscccccccccccsssss" />
      </g>
    </g>
    <path
       sodipodi:nodetypes="cscscssc"
       inkscape:connector-curvature="0"
       id="path6081"
       d="m 113.9,82.502986 c 0,4.465301 -5.09749,6.009952 -7.57972,7.693625 -5.10854,3.46508 -16.139114,2.12536 -21.920284,2.20638 -0.081,5.781159 1.66586,17.304599 -1.79922,22.413139 -1.68367,2.48224 -4.69051,7.98687 -7.60078,7.98687 -2.091359,1.5337 3.488204,11.21101 6.734971,8.31989 9.501888,-8.46107 45.998943,-30.20138 54.218083,-39.441569 2.04044,-2.29392 -17.0724,-11.965986 -22.05305,-9.178335 z"
       style="opacity:0.40099009;fill:#000000;fill-opacity:1;stroke:none;filter:url(#filter6118-4)"
       clip-path="url(#clipPath6093-7)"
       transform="matrix(1.3299764,0,0,1.3299764,-36.963543,-37.156423)" />
    <path
       style="fill:url(#linearGradient3895-3);fill-opacity:1;stroke:none"
       d="m 111.99381,72.570604 c 0,5.938743 -3.72059,8.525082 -7.0219,10.764323 -6.794238,4.608475 -19.95169,4.558319 -27.64051,4.666073 -0.107728,7.688805 0.303611,20.48508 -4.304863,27.27932 -2.239241,3.30132 -7.036253,7.16441 -10.906844,7.16441 3.082925,0 6.307865,-1.7752 10.086567,-5.4327 12.158605,-11.76861 23.097887,-21.459634 34.14469,-33.645117 2.55216,-2.815215 5.64286,-4.843615 5.64286,-10.796309 z"
       id="path6011"
       inkscape:connector-curvature="0"
       sodipodi:nodetypes="cscscssc" />
    <path
       style="fill:#ffffff;fill-opacity:1;stroke:none"
       d="m 112.01875,73.115242 c -0.42084,5.185724 -5.08438,7.318602 -8.17936,9.417895 C 98.818947,85.938464 82.6646,85.3344 74.6648,85.3344 c 0,7.9998 1.619153,23.49711 -2.7864,30.22372 -1.912401,2.91993 -4.654194,5.79882 -8.19598,6.58338 2.633964,-0.48185 5.299865,-2.47561 8.470288,-5.54435 0.451018,-0.51674 0.763801,-0.90298 1.471286,-1.99496 4.608475,-6.79423 4.099678,-18.412383 4.207406,-26.10119 7.68882,-0.107728 20.028368,-0.145785 26.8226,-4.754259 0.619,-0.41986 2.51897,-1.313671 3.06727,-1.861967 2.04322,-2.043229 3.9922,-4.273773 4.29748,-8.769532 z M 63.68242,122.1415 c -0.209681,0.0464 -0.416863,0.0551 -0.623426,0.0831 0.208794,-0.0225 0.412882,-0.0446 0.623426,-0.0831 z"
       id="path6122"
       inkscape:connector-curvature="0"
       sodipodi:nodetypes="cscsccccsscccc" />
    <path
       style="fill:none;stroke:url(#radialGradient3919-5);stroke-width:1.20000005;stroke-linecap:butt;stroke-linejoin:miter;stroke-miterlimit:4;stroke-opacity:1;stroke-dasharray:none;filter:url(#filter3909-6)"
       d="M 117.31456,81.861283 72.639105,125.34835"
       id="path3873"
       inkscape:connector-curvature="0"
       sodipodi:nodetypes="cc"
       clip-path="url(#clipPath3889-6)"
       transform="matrix(1.3299764,0,0,1.3299764,-36.963543,-37.156423)" />
  </g>
</svg>
