<?xml version="1.0" encoding="UTF-8" standalone="no"?>
<!-- Created with Inkscape (http://www.inkscape.org/) -->

<svg
   xmlns:dc="http://purl.org/dc/elements/1.1/"
   xmlns:cc="http://creativecommons.org/ns#"
   xmlns:rdf="http://www.w3.org/1999/02/22-rdf-syntax-ns#"
   xmlns:svg="http://www.w3.org/2000/svg"
   xmlns="http://www.w3.org/2000/svg"
   xmlns:xlink="http://www.w3.org/1999/xlink"
   xmlns:sodipodi="http://sodipodi.sourceforge.net/DTD/sodipodi-0.dtd"
   xmlns:inkscape="http://www.inkscape.org/namespaces/inkscape"
   width="128"
   height="128"
   id="svg2606"
   sodipodi:version="0.32"
   inkscape:version="0.48.0 r9654"
   version="1.0"
   sodipodi:docname="text-x-texinfo.svgz"
   inkscape:output_extension="org.inkscape.output.svgz.inkscape"
   inkscape:export-filename="/home/pinheiro/pics/oxygen-icons/scalable/mimetypes/small/48x48/text-x-texinfo.png"
   inkscape:export-xdpi="135"
   inkscape:export-ydpi="135">
  <defs
     id="defs2608">
    <linearGradient
       id="linearGradient6131">
      <stop
         id="stop6133"
         offset="0"
         style="stop-color:#fcfcfc;stop-opacity:1" />
      <stop
         style="stop-color:#f8f8f8;stop-opacity:1"
         offset="0.52275378"
         id="stop6135" />
      <stop
         id="stop6141"
         offset="0.77457333"
         style="stop-color:#f0efef;stop-opacity:1;" />
      <stop
         id="stop6139"
         offset="0.90122044"
         style="stop-color:#e3e1e1;stop-opacity:1;" />
      <stop
         id="stop6137"
         offset="1"
         style="stop-color:#cecbcb;stop-opacity:1" />
    </linearGradient>
    <linearGradient
       inkscape:collect="always"
       xlink:href="#linearGradient6131"
       id="linearGradient3893"
       gradientUnits="userSpaceOnUse"
       gradientTransform="matrix(1.0119858,0,0,1.0119858,-0.89554075,-0.9871566)"
       x1="86.73793"
       y1="93.621468"
       x2="95.460213"
       y2="102.34375" />
    <radialGradient
       inkscape:collect="always"
       xlink:href="#linearGradient3913-5"
       id="radialGradient3919-5"
       cx="90.75"
       cy="110.25299"
       fx="90.75"
       fy="110.25299"
       r="18.750002"
       gradientTransform="matrix(1.3067347,0,0,1.3067347,-27.83617,-33.818441)"
       gradientUnits="userSpaceOnUse" />
    <linearGradient
       inkscape:collect="always"
       id="linearGradient3913-5">
      <stop
         style="stop-color:#ffffff;stop-opacity:1;"
         offset="0"
         id="stop3915-4" />
      <stop
         style="stop-color:#ffffff;stop-opacity:0;"
         offset="1"
         id="stop3917-7" />
    </linearGradient>
    <clipPath
       clipPathUnits="userSpaceOnUse"
       id="clipPath3889-6">
      <path
         sodipodi:nodetypes="cscscssc"
         inkscape:connector-curvature="0"
         id="path3891-5"
         d="m 112,82.502986 c 0,4.465301 -2.79749,6.409952 -5.27972,8.093625 -5.10854,3.46508 -14.939114,3.32536 -20.720284,3.40638 -0.081,5.781159 0.16586,15.504599 -3.29922,20.613139 -1.68367,2.48224 -5.29051,5.38687 -8.20078,5.38687 2.31803,0 4.74284,-1.33476 7.58402,-4.08481 9.14197,-8.84873 17.36714,-16.13535 25.673154,-25.297529 C 109.67612,88.503916 112,86.97878 112,82.502986 z"
         style="fill:url(#linearGradient3893);fill-opacity:1;stroke:none" />
    </clipPath>
    <filter
       color-interpolation-filters="sRGB"
       inkscape:collect="always"
       id="filter3909-6">
      <feGaussianBlur
         inkscape:collect="always"
         stdDeviation="0.43040059"
         id="feGaussianBlur3911-9" />
    </filter>
    <linearGradient
       inkscape:collect="always"
       xlink:href="#linearGradient3897-7"
       id="linearGradient3895-3"
       gradientUnits="userSpaceOnUse"
       gradientTransform="matrix(1.3459172,0,0,1.3459172,-38.154591,-38.469319)"
       x1="86.73793"
       y1="93.621468"
       x2="95.18235"
       y2="102.06589" />
    <linearGradient
       id="linearGradient3897-7">
      <stop
         style="stop-color:#fcfcfc;stop-opacity:1"
         offset="0"
         id="stop3899-4" />
      <stop
         id="stop3901-5"
         offset="0.52275378"
         style="stop-color:#f8f8f8;stop-opacity:1" />
      <stop
         style="stop-color:#f0efef;stop-opacity:1;"
         offset="0.72337759"
         id="stop3903-2" />
      <stop
         style="stop-color:#e3e1e1;stop-opacity:1;"
         offset="0.89024991"
         id="stop3905-5" />
      <stop
         style="stop-color:#cecbcb;stop-opacity:1"
         offset="1"
         id="stop3907-4" />
    </linearGradient>
    <clipPath
       clipPathUnits="userSpaceOnUse"
       id="clipPath6093-7">
      <path
         inkscape:connector-curvature="0"
         sodipodi:nodetypes="cccssccc"
         id="path6095-4"
         d="m 17.000001,8 0.782827,110 57.5,0 c 1.675283,0 3.119418,0.18058 4.9,-1.6 C 88.980763,107.60206 99.94047,96.548195 107.19904,89.224043 109.6396,86.761431 110,84.752873 110,82.5 L 110,8 z"
         style="fill:#ffffff;fill-opacity:1" />
    </clipPath>
    <filter
       color-interpolation-filters="sRGB"
       inkscape:collect="always"
       id="filter6118-4"
       x="-0.1126375"
       width="1.225275"
       y="-0.12064722"
       height="1.2412944">
      <feGaussianBlur
         inkscape:collect="always"
         stdDeviation="2.3860572"
         id="feGaussianBlur6120-3" />
    </filter>
    <radialGradient
       inkscape:collect="always"
       xlink:href="#linearGradient5982-7"
       id="radialGradient5988-0"
       cx="64"
       cy="64.004021"
       fx="63.793392"
       fy="47.274845"
       r="47.5"
       gradientTransform="matrix(1.6842105,-0.08429519,0.06886339,1.3758846,-48.197001,-18.66323)"
       gradientUnits="userSpaceOnUse" />
    <linearGradient
       inkscape:collect="always"
       id="linearGradient5982-7">
      <stop
         style="stop-color:#ffffff;stop-opacity:1;"
         offset="0"
         id="stop5984-8" />
      <stop
         style="stop-color:#ffffff;stop-opacity:0;"
         offset="1"
         id="stop5986-6" />
    </linearGradient>
    <filter
       color-interpolation-filters="sRGB"
       inkscape:collect="always"
       id="filter6171-8"
       x="-0.47870937"
       width="1.9574188"
       y="-0.51275069"
       height="2.0255013">
      <feGaussianBlur
         inkscape:collect="always"
         stdDeviation="10.140743"
         id="feGaussianBlur6173-8" />
    </filter>
    <linearGradient
       inkscape:collect="always"
       xlink:href="#linearGradient4518-3"
       id="linearGradient4524-4"
       x1="72"
       y1="0"
       x2="72"
       y2="116.40091"
       gradientUnits="userSpaceOnUse"
       gradientTransform="translate(3.9208985e-7,2.7836914e-6)" />
    <linearGradient
       id="linearGradient4518-3">
      <stop
         style="stop-color:#eeecec;stop-opacity:1"
         offset="0"
         id="stop4520-1" />
      <stop
         id="stop5969-4"
         offset="0.40000001"
         style="stop-color:#f4f4f4;stop-opacity:1" />
      <stop
         style="stop-color:#f6f5f5;stop-opacity:1"
         offset="1"
         id="stop4522-9" />
    </linearGradient>
    <filter
       inkscape:collect="always"
       id="filter4111">
      <feGaussianBlur
         inkscape:collect="always"
         stdDeviation="1.5615"
         id="feGaussianBlur4113" />
    </filter>
    <filter
       inkscape:collect="always"
       id="filter4123">
      <feGaussianBlur
         inkscape:collect="always"
         stdDeviation="2.028"
         id="feGaussianBlur4125" />
    </filter>
    <radialGradient
       r="27.455904"
       fy="48.36097"
       fx="87.160835"
       cy="48.36097"
       cx="87.160835"
       gradientTransform="matrix(1.4591887,0,0,1,-40.023272,0)"
       gradientUnits="userSpaceOnUse"
       id="radialGradient5441"
       xlink:href="#linearGradient6212"
       inkscape:collect="always" />
    <linearGradient
       inkscape:collect="always"
       id="linearGradient6212">
      <stop
         style="stop-color:#020910;stop-opacity:1"
         offset="0"
         id="stop6214" />
      <stop
         style="stop-color:#113e69;stop-opacity:0"
         offset="1"
         id="stop6216" />
    </linearGradient>
    <filter
       color-interpolation-filters="sRGB"
       inkscape:collect="always"
       id="filter6232">
      <feGaussianBlur
         inkscape:collect="always"
         stdDeviation="1.0965074"
         id="feGaussianBlur6234" />
    </filter>
    <radialGradient
       r="31.190229"
       fy="84.275475"
       fx="-166.53223"
       cy="84.275475"
       cx="-166.53223"
       gradientUnits="userSpaceOnUse"
       id="radialGradient5443"
       xlink:href="#linearGradient5960"
       inkscape:collect="always" />
    <linearGradient
       id="linearGradient5960"
       gradientUnits="userSpaceOnUse"
       x1="-84.002403"
       y1="-383.9971"
       x2="-12.0029"
       y2="-383.9971"
       gradientTransform="matrix(0,1,-1,0,-39.9985,140.0029)">
      <stop
         offset="0"
         style="stop-color:#0081ec;stop-opacity:1;"
         id="stop5962" />
      <stop
         offset="1"
         style="stop-color:#003871;stop-opacity:1;"
         id="stop5964" />
    </linearGradient>
    <radialGradient
       r="31.190229"
       fy="65.938202"
       fx="-166.53223"
       cy="65.938202"
       cx="-166.53223"
       gradientTransform="matrix(1,0,0,0.6578174,0,22.562908)"
       gradientUnits="userSpaceOnUse"
       id="radialGradient5445"
       xlink:href="#linearGradient5990"
       inkscape:collect="always" />
    <linearGradient
       inkscape:collect="always"
       id="linearGradient5990">
      <stop
         style="stop-color:#ffffff;stop-opacity:1;"
         offset="0"
         id="stop5992" />
      <stop
         style="stop-color:#ffffff;stop-opacity:0;"
         offset="1"
         id="stop5994" />
    </linearGradient>
    <clipPath
       clipPathUnits="userSpaceOnUse"
       id="clipPath6080">
      <path
         d="m -135.842,93.331604 a 30.690229,30.690229 0 1 1 -61.38046,0 30.690229,30.690229 0 1 1 61.38046,0 z"
         sodipodi:ry="30.690229"
         sodipodi:rx="30.690229"
         sodipodi:cy="93.331604"
         sodipodi:cx="-166.53223"
         id="path6082"
         style="fill:url(#radialGradient6084);fill-opacity:1;stroke:none;filter:url(#filter6074)"
         sodipodi:type="arc" />
    </clipPath>
    <filter
       color-interpolation-filters="sRGB"
       inkscape:collect="always"
       id="filter6074">
      <feGaussianBlur
         inkscape:collect="always"
         stdDeviation="1.9142018"
         id="feGaussianBlur6076" />
    </filter>
    <radialGradient
       r="31.190229"
       fy="116.62209"
       fx="-166.53223"
       cy="116.62209"
       cx="-166.53223"
       gradientUnits="userSpaceOnUse"
       id="radialGradient5447"
       xlink:href="#linearGradient6138"
       inkscape:collect="always" />
    <linearGradient
       id="linearGradient6138"
       gradientUnits="userSpaceOnUse"
       x1="-84.002403"
       y1="-383.9971"
       x2="-12.0029"
       y2="-383.9971"
       gradientTransform="matrix(0,1,-1,0,-39.9985,140.0029)">
      <stop
         offset="0"
         style="stop-color:#0081ec;stop-opacity:1;"
         id="stop6140" />
      <stop
         offset="1"
         style="stop-color:#004c98;stop-opacity:1;"
         id="stop6142" />
    </linearGradient>
    <linearGradient
       y2="101.12339"
       x2="-161.52484"
       y1="54.347218"
       x1="-165.45718"
       gradientTransform="matrix(2.0254562,0,0,2.0254562,580.51764,-82.307697)"
       gradientUnits="userSpaceOnUse"
       id="linearGradient5449"
       xlink:href="#linearGradient5919"
       inkscape:collect="always" />
    <linearGradient
       id="linearGradient5919">
      <stop
         style="stop-color:#ffffff;stop-opacity:1;"
         offset="0"
         id="stop5921" />
      <stop
         id="stop6238"
         offset="0.5"
         style="stop-color:#78c9ff;stop-opacity:0.49803922;" />
      <stop
         style="stop-color:#ffffff;stop-opacity:0;"
         offset="1"
         id="stop5923" />
    </linearGradient>
    <filter
       color-interpolation-filters="sRGB"
       inkscape:collect="always"
       id="filter5956">
      <feGaussianBlur
         inkscape:collect="always"
         stdDeviation="0.55418773"
         id="feGaussianBlur5958" />
    </filter>
    <linearGradient
       y2="109.09552"
       x2="-176.82246"
       y1="5.9640594"
       x1="-176.82246"
       gradientTransform="matrix(1.914689,0,0,1.914689,570.04123,-83.022107)"
       gradientUnits="userSpaceOnUse"
       id="linearGradient5451"
       xlink:href="#linearGradient5919"
       inkscape:collect="always" />
    <linearGradient
       id="linearGradient3967">
      <stop
         style="stop-color:#ffffff;stop-opacity:1;"
         offset="0"
         id="stop3969" />
      <stop
         id="stop3971"
         offset="0.5"
         style="stop-color:#78c9ff;stop-opacity:0.49803922;" />
      <stop
         style="stop-color:#ffffff;stop-opacity:0;"
         offset="1"
         id="stop3973" />
    </linearGradient>
    <linearGradient
       y2="91.532112"
       x2="-196.51477"
       y1="130.50459"
       x1="-141.69565"
       gradientTransform="matrix(1.914689,0,0,1.914689,569.3109,-90.120796)"
       gradientUnits="userSpaceOnUse"
       id="linearGradient5453"
       xlink:href="#linearGradient5919"
       inkscape:collect="always" />
    <linearGradient
       id="linearGradient3976">
      <stop
         style="stop-color:#ffffff;stop-opacity:1;"
         offset="0"
         id="stop3978" />
      <stop
         id="stop3980"
         offset="0.5"
         style="stop-color:#78c9ff;stop-opacity:0.49803922;" />
      <stop
         style="stop-color:#ffffff;stop-opacity:0;"
         offset="1"
         id="stop3982" />
    </linearGradient>
    <linearGradient
       y2="89.160271"
       x2="-176.82246"
       y1="62.791336"
       x1="-176.82246"
       gradientTransform="matrix(1.914689,0,0,1.914689,570.04123,-83.022107)"
       gradientUnits="userSpaceOnUse"
       id="linearGradient5455"
       xlink:href="#linearGradient5919"
       inkscape:collect="always" />
    <linearGradient
       id="linearGradient3985">
      <stop
         style="stop-color:#ffffff;stop-opacity:1;"
         offset="0"
         id="stop3987" />
      <stop
         id="stop3989"
         offset="0.5"
         style="stop-color:#78c9ff;stop-opacity:0.49803922;" />
      <stop
         style="stop-color:#ffffff;stop-opacity:0;"
         offset="1"
         id="stop3991" />
    </linearGradient>
    <linearGradient
       y2="-7.1532998"
       x2="36.671902"
       y1="102.8467"
       x1="76.671898"
       gradientTransform="translate(188.91421,60.267771)"
       gradientUnits="userSpaceOnUse"
       id="linearGradient5457"
       xlink:href="#path9576_1_"
       inkscape:collect="always" />
    <linearGradient
       id="path9576_1_"
       gradientUnits="userSpaceOnUse"
       x1="76.671898"
       y1="102.8467"
       x2="36.671902"
       y2="-7.1532998">
      <stop
         offset="0"
         style="stop-color:#D6D6D6"
         id="stop86" />
      <stop
         offset="0.0092"
         style="stop-color:#D7D7D7"
         id="stop88" />
      <stop
         offset="0.2195"
         style="stop-color:#EDEDED"
         id="stop90" />
      <stop
         offset="0.4212"
         style="stop-color:#FAFAFA"
         id="stop92" />
      <stop
         offset="0.6036"
         style="stop-color:#FFFFFF"
         id="stop94" />
      <stop
         offset="1"
         style="stop-color:#D6D6D6"
         id="stop96" />
    </linearGradient>
    <linearGradient
       y2="-2.0731001"
       x2="22.700199"
       y1="107.9268"
       x1="62.700199"
       gradientTransform="translate(188.91421,60.267771)"
       gradientUnits="userSpaceOnUse"
       id="linearGradient5459"
       xlink:href="#path2876_1_"
       inkscape:collect="always" />
    <linearGradient
       id="path2876_1_"
       gradientUnits="userSpaceOnUse"
       x1="62.700199"
       y1="107.9268"
       x2="22.700199"
       y2="-2.0731001">
      <stop
         offset="0"
         style="stop-color:#D6D6D6"
         id="stop100" />
      <stop
         offset="0.0092"
         style="stop-color:#D7D7D7"
         id="stop102" />
      <stop
         offset="0.2195"
         style="stop-color:#EDEDED"
         id="stop104" />
      <stop
         offset="0.4212"
         style="stop-color:#FAFAFA"
         id="stop106" />
      <stop
         offset="0.6036"
         style="stop-color:#FFFFFF"
         id="stop108-5" />
      <stop
         offset="1"
         style="stop-color:#D6D6D6"
         id="stop110-4" />
    </linearGradient>
    <clipPath
       id="clipPath5421"
       clipPathUnits="userSpaceOnUse">
      <path
         inkscape:connector-curvature="0"
         id="path5423"
         d="m 110.6875,76.28125 c -4.416,0 -8,3.585 -8,8 0,4.416 3.584,8 8,8 4.414,0 8,-3.585 8,-8 0,-4.415 -3.586,-8 -8,-8 z m 8,20 -20,4 0,8 8,0 0,32 -8,0 0,8 28,0 0,-8 -8,0 0,-44 z"
         style="fill:url(#linearGradient5425)" />
    </clipPath>
    <filter
       color-interpolation-filters="sRGB"
       id="filter5417"
       inkscape:collect="always">
      <feGaussianBlur
         id="feGaussianBlur5419"
         stdDeviation="1.2908951"
         inkscape:collect="always" />
    </filter>
    <clipPath
       clipPathUnits="userSpaceOnUse"
       id="clipPath3199">
      <path
         style="opacity:0.84653476;fill:url(#radialGradient3203);fill-opacity:1"
         d="m 157.45361,11.577988 c -0.5121,0 -0.75343,0.353536 -0.75343,0.753428 l 0,165.706924 c 0,1.238 1.02595,2.18469 2.26028,2.26028 l 74.58931,4.56776 c 0.0798,0.005 4.93327,-0.0121 5.97242,7e-5 9.85629,-6.78636 46.66412,-45.13531 60.14328,-58.69973 2.2254,-2.49609 0.68954,-0.55764 2.19083,-2.42221 L 297.33583,12.331446 c 0,-0.486288 -0.24594,-0.753428 -0.75342,-0.753428 z"
         id="path3201"
         inkscape:connector-curvature="0"
         sodipodi:nodetypes="ccssscccccc" />
    </clipPath>
    <radialGradient
       inkscape:collect="always"
       xlink:href="#linearGradient5982-7"
       id="radialGradient3203"
       gradientUnits="userSpaceOnUse"
       gradientTransform="matrix(2.5378605,-0.1270206,0.10376712,2.0732582,59.964627,-28.59963)"
       cx="64"
       cy="64.004021"
       fx="63.793392"
       fy="47.274845"
       r="47.5" />
  </defs>
  <sodipodi:namedview
     id="base"
     pagecolor="#ffffff"
     bordercolor="#666666"
     borderopacity="1.0"
     inkscape:pageopacity="0.0"
     inkscape:pageshadow="2"
     inkscape:zoom="2"
     inkscape:cx="178.7992"
     inkscape:cy="59.542495"
     inkscape:document-units="px"
     inkscape:current-layer="layer1"
     width="128px"
     height="128px"
     showgrid="true"
     inkscape:grid-points="true"
     showguides="true"
     inkscape:guide-bbox="true"
     inkscape:window-width="1224"
     inkscape:window-height="757"
     inkscape:window-x="439"
     inkscape:window-y="292"
     inkscape:snap-global="true"
     inkscape:window-maximized="0"
     inkscape:snap-page="true">
    <inkscape:grid
       id="GridFromPre046Settings"
       type="xygrid"
       originx="0px"
       originy="0px"
       spacingx="2.6666px"
       spacingy="2.6666px"
       color="#0000ff"
       empcolor="#0000ff"
       opacity="0.2"
       empopacity="0.4"
       empspacing="2"
       visible="true"
       enabled="true"
       snapvisiblegridlinesonly="true" />
    <sodipodi:guide
       orientation="1,0"
       position="-68,29.325902"
       id="guide4564" />
    <sodipodi:guide
       orientation="1,0"
       position="-121.62237,135.0574"
       id="guide3859" />
    <sodipodi:guide
       orientation="0,1"
       position="38.581514,-74.688154"
       id="guide4360" />
  </sodipodi:namedview>
  <metadata
     id="metadata2611">
    <rdf:RDF>
      <cc:Work
         rdf:about="">
        <dc:format>image/svg+xml</dc:format>
        <dc:type
           rdf:resource="http://purl.org/dc/dcmitype/StillImage" />
        <dc:title></dc:title>
      </cc:Work>
    </rdf:RDF>
  </metadata>
  <g
     inkscape:label="Livello 1"
     inkscape:groupmode="layer"
     id="layer1">
    <path
       style="opacity:0.45606695;fill:#000000;fill-opacity:1;filter:url(#filter4123)"
       d="m 13.333,5.3364 0,117.8304 49.8545,0.4332 c 2.115476,0.0184 4.528919,-1.77169 7,-4.25 0.71234,-0.71442 1.440746,-1.39395 2.15625,-2.09375 0.415612,-0.40649 0.832187,-0.81443 1.25,-1.21875 7.773958,-7.40962 26.98341,-25.122599 34.21875,-33.099999 0.42065,-0.42064 0.81207,-0.8111 1.15625,-1.1875 1.46444,-1.49766 2.76158,-2.8378 2.99375,-5.8625 L 112,75.156251 111.9972,5.3364 z"
       id="path5990"
       inkscape:connector-curvature="0"
       sodipodi:nodetypes="ccsssccccccc" />
    <path
       sodipodi:nodetypes="cccccccc"
       id="path3722"
       d="m 13.333,5.3364 0,118.3304 49.3318,0.3 c 1.527964,0 3.65713,-0.98408 6.387944,-2.83388 C 82.175824,111.57445 97.49744,91.890146 108.75009,80.500071 110.49334,78.756821 112,77.462561 112,73.300001 L 111.9972,5.3364 z"
       style="fill:#000000;fill-opacity:0.84716159;filter:url(#filter4111)"
       inkscape:connector-curvature="0" />
    <path
       style="fill:#ffffff;fill-opacity:1"
       d="m 13.333,5.3364 0,117.3304 49.3318,0 c 1.675283,0 3.914297,-0.56468 7,-3.6 8.870045,-8.72523 32.07567,-31.518599 39.33424,-38.842759 C 111.4396,77.761431 112,75.752871 112,73.500001 L 111.9972,5.3364 z"
       id="path34"
       sodipodi:nodetypes="cccssccc"
       inkscape:connector-curvature="0" />
    <path
       style="fill:url(#linearGradient4524-4);fill-opacity:1"
       d="m 16.5,8.000003 c -0.339844,0 -0.5,0.234618 -0.5,0.5 l 0,109.968747 c 0,0.82158 0.679323,1.5 1.5,1.5 l 48.6875,0 c 0.05308,0 0.810384,0.0234 1.5,0.0313 1.777664,-0.0401 3.131974,-0.75374 4.356035,-1.59328 1.051866,-0.29103 25.980435,-26.619589 35.101555,-35.809239 1.36239,-1.37262 2.18546,-3.94817 2.18546,-4.89561 l 5e-5,-69.201918 c 0,-0.322717 -0.16322,-0.5 -0.5,-0.5 z"
       id="path3967"
       inkscape:connector-curvature="0"
       sodipodi:nodetypes="ccsssccscccc" />
    <path
       sodipodi:nodetypes="ccssscccccc"
       inkscape:connector-curvature="0"
       id="path5980"
       d="m 16.5,8.000003 c -0.339844,0 -0.5,0.234618 -0.5,0.5 l 0,109.968747 c 0,0.82158 0.679323,1.49946 1.5,1.5 l 47.5,0.0313 c 0.05308,3e-5 3.273884,-0.008 3.9635,5e-5 6.540972,-4.50366 29.9679,-28.953329 38.91313,-37.955139 1.47685,-1.65649 0.4576,-0.37007 1.45391,-1.60746 l 6e-5,-71.937498 c 0,-0.322717 -0.16322,-0.5 -0.5,-0.5 z"
       style="opacity:0.84653476;fill:url(#radialGradient5988-0);fill-opacity:1" />
    <path
       style="fill:#000000"
       d=""
       id="path2197" />
    <path
       clip-path="url(#clipPath6093-7)"
       style="opacity:0.34728035;fill:#000000;fill-opacity:1;stroke:none;filter:url(#filter6171-8)"
       d="m 114.4,82.502986 c 0,4.465301 -4.99749,5.909952 -7.47972,7.593625 -5.10854,3.46508 -18.362065,-1.446073 -24.143235,-1.365053 -0.081,5.781159 3.371639,20.976032 -0.09344,26.084572 -1.68367,2.48224 -5.573338,8.68687 -8.483608,8.68687 -2.091359,1.5337 3.488204,8.21101 6.734971,5.31989 9.501888,-8.46107 35.131683,-30.022704 43.350823,-39.262889 2.04044,-2.29392 -4.90514,-9.844666 -9.88579,-7.057015 z"
       id="path6153"
       inkscape:connector-curvature="0"
       sodipodi:nodetypes="cscscssc"
       transform="matrix(1.2774204,0,0,1.2774204,-31.076286,-28.013102)" />
    <g
       transform="matrix(0.66363399,0,0,0.66363399,-90.595515,-2.3947318)"
       id="g5427"
       clip-path="url(#clipPath3199)">
      <path
         transform="matrix(1.8982671,0,0,1.1681643,71.258861,97.036775)"
         d="m 114.55424,39.742821 c 0,15.128959 -12.26445,27.393404 -27.393405,27.393404 -15.128959,0 -27.393404,-12.264445 -27.393404,-27.393404 0,-15.12896 12.264445,-27.393404 27.393404,-27.393404 15.128955,0 27.393405,12.264444 27.393405,27.393404 z"
         sodipodi:ry="27.393404"
         sodipodi:rx="27.393404"
         sodipodi:cy="39.742821"
         sodipodi:cx="87.160835"
         id="path6210"
         style="fill:url(#radialGradient5441);fill-opacity:1;stroke:none;filter:url(#filter6232)"
         sodipodi:type="arc" />
      <path
         transform="matrix(-1.9550195,0,0,1.9550195,-88.823746,-71.002188)"
         d="m -135.842,93.331604 c 0,16.949746 -13.74048,30.690226 -30.69023,30.690226 -16.94974,0 -30.69023,-13.74048 -30.69023,-30.690226 0,-16.949746 13.74049,-30.690229 30.69023,-30.690229 16.94975,0 30.69023,13.740483 30.69023,30.690229 z"
         sodipodi:ry="30.690229"
         sodipodi:rx="30.690229"
         sodipodi:cy="93.331604"
         sodipodi:cx="-166.53223"
         id="path5515"
         style="fill:url(#radialGradient5443);fill-opacity:1;stroke:none"
         sodipodi:type="arc" />
      <path
         clip-path="url(#clipPath6080)"
         transform="matrix(-1.9550195,0,0,1.9550195,-88.823746,-71.002188)"
         d="m -135.842,93.331604 c 0,16.949746 -13.74048,30.690226 -30.69023,30.690226 -16.94974,0 -30.69023,-13.74048 -30.69023,-30.690226 0,-16.949746 13.74049,-30.690229 30.69023,-30.690229 16.94975,0 30.69023,13.740483 30.69023,30.690229 z"
         sodipodi:ry="30.690229"
         sodipodi:rx="30.690229"
         sodipodi:cy="93.331604"
         sodipodi:cx="-166.53223"
         id="path6078"
         style="fill:url(#radialGradient5445);fill-opacity:1;stroke:none;filter:url(#filter6074)"
         sodipodi:type="arc" />
      <path
         sodipodi:type="arc"
         style="fill:url(#radialGradient5447);fill-opacity:1;stroke:none"
         id="path5906"
         sodipodi:cx="-166.53223"
         sodipodi:cy="93.331604"
         sodipodi:rx="30.690229"
         sodipodi:ry="30.690229"
         d="m -135.842,93.331604 c 0,16.949746 -13.74048,30.690226 -30.69023,30.690226 -16.94974,0 -30.69023,-13.74048 -30.69023,-30.690226 0,-16.949746 13.74049,-30.690229 30.69023,-30.690229 16.94975,0 30.69023,13.740483 30.69023,30.690229 z"
         transform="matrix(-1.8139017,0,0,1.8139017,-65.323074,-58.086195)" />
      <path
         id="path5910"
         d="m 236.74449,55.559011 c -30.72933,0 -55.64564,24.916327 -55.64564,55.645649 0,2.86078 0.18148,5.69164 0.59834,8.4366 0.003,0.0193 -0.003,0.0405 0,0.0598 11.70025,1.87142 24.16003,2.8122 37.09708,2.8122 27.63885,0 53.15103,-4.61852 73.59586,-12.38564 -0.57482,-30.232726 -25.27627,-54.568635 -55.64564,-54.568639 z"
         style="opacity:0.8921933;fill:url(#linearGradient5449);fill-opacity:1;stroke:none"
         inkscape:connector-curvature="0" />
      <path
         id="path5927"
         transform="matrix(-1.914689,0,0,1.914689,35.612094,-78.003428)"
         d="m -134.09375,98.625 c -0.003,0.166656 -0.0313,0.332675 -0.0313,0.5 0,16.04925 13.0445,29.0625 29.09375,29.0625 16.049249,0 29.062503,-13.01325 29.0625,-29.0625 0,-0.167107 0.0028,-0.33356 0,-0.5 -0.267346,15.81875 -13.180358,28.5625 -29.0625,28.5625 -15.88193,0 -28.79481,-12.74404 -29.0625,-28.5625 z"
         style="fill:#007fea;fill-opacity:1;stroke:none;filter:url(#filter5956)"
         inkscape:connector-curvature="0" />
      <path
         id="path5966"
         d="m 236.71107,55.598558 c -30.72931,0 -55.64564,24.916331 -55.64564,55.645662 0,0.28182 -0.004,0.55647 0,0.83767 0.5743,-30.232184 25.27627,-54.568648 55.64564,-54.568628 29.72353,0 54.02704,23.317801 55.58583,52.653938 0.0173,-0.007 0.0425,0.007 0.0599,0 -0.57487,-30.232725 -25.27633,-54.568622 -55.6457,-54.568642 z"
         style="fill:url(#linearGradient5451);fill-opacity:1;stroke:none"
         inkscape:connector-curvature="0" />
      <path
         sodipodi:nodetypes="cccccscc"
         id="path5974"
         d="m 257.56306,59.585695 c 18.46116,8.800121 33.64111,28.341169 34.05389,50.052055 -20.44483,7.76715 -49.35952,12.04746 -76.99837,12.04748 -10.76347,0.22815 -21.18467,-0.14479 -32.9849,-2.02617 0.003,0.0193 -0.003,0.0406 0,0.0598 11.70022,1.87139 24.16004,2.81218 37.09709,2.81218 27.63885,0 53.15103,-4.61848 73.59586,-12.38563 -0.43515,-22.885739 -14.68492,-42.430483 -34.76357,-50.559755 z"
         style="fill:url(#linearGradient5453);fill-opacity:1;stroke:none"
         inkscape:connector-curvature="0" />
      <path
         sodipodi:nodetypes="cscsccc"
         style="fill:url(#linearGradient5455);fill-opacity:1;stroke:none"
         d="m 236.71107,55.598558 c -30.72931,0 -55.64564,24.916331 -55.64564,55.645662 0,0.28182 -0.004,0.55647 0,0.83767 0.5743,-30.232184 25.27627,-55.334524 55.64564,-55.334503 29.72353,0 54.02704,24.083676 55.58583,53.419813 0.0173,-0.007 0.0425,0.007 0.0599,0 -0.57487,-30.232725 -25.27633,-54.568622 -55.6457,-54.568642 z"
         id="path6088"
         inkscape:connector-curvature="0" />
      <path
         inkscape:connector-curvature="0"
         id="path4546"
         d="m 236.91521,76.267774 c -4.416,0 -8.001,3.585 -8.001,8 0,4.416 3.585,8 8.001,8 4.414,0 7.999,-3.585 7.999,-8 0,-4.415 -3.585,-8 -7.999,-8 z"
         style="fill:url(#linearGradient5457)" />
      <path
         sodipodi:nodetypes="ccccccccccc"
         inkscape:connector-curvature="0"
         id="path4548"
         d="m 244.91421,96.267774 -20,3.999996 0,8 8,0 0,32 -8,0 0,8 28,0 0,-8 -8,0 z"
         style="fill:url(#linearGradient5459)" />
      <path
         style="opacity:0.92468621;fill:#000000;fill-opacity:0.45414848;stroke:none;filter:url(#filter5417)"
         d="m 71.0625,60.70625 0,99 80.25,0 0,-99 -80.25,0 z m 39.625,16.875 c 4.414,0 8,3.585 8,8 0,4.415 -3.586,8 -8,8 -4.416,0 -8,-3.584 -8,-8 0,-4.415 3.584,-8 8,-8 z m 8,20 0,44 8,0 0,8 -28,0 0,-8 8,0 0,-32 -8,0 0,-8 20,-4 z"
         id="rect4565"
         inkscape:connector-curvature="0"
         clip-path="url(#clipPath5421)"
         transform="translate(126.19673,0)" />
    </g>
    <path
       sodipodi:nodetypes="cscscssc"
       inkscape:connector-curvature="0"
       id="path6081"
       d="m 113.9,82.502986 c 0,4.465301 -5.09749,6.009952 -7.57972,7.693625 -5.10854,3.46508 -16.139114,2.12536 -21.920284,2.20638 -0.081,5.781159 1.66586,17.304599 -1.79922,22.413139 -1.68367,2.48224 -4.69051,7.98687 -7.60078,7.98687 -2.091359,1.5337 3.488204,11.21101 6.734971,8.31989 9.501888,-8.46107 45.998943,-30.20138 54.218083,-39.441569 2.04044,-2.29392 -17.0724,-11.965986 -22.05305,-9.178335 z"
       style="opacity:0.40099009;fill:#000000;fill-opacity:1;stroke:none;filter:url(#filter6118-4)"
       clip-path="url(#clipPath6093-7)"
       transform="matrix(1.3299764,0,0,1.3299764,-36.963543,-37.156423)" />
    <path
       style="fill:url(#linearGradient3895-3);fill-opacity:1;stroke:none"
       d="m 111.99381,72.570604 c 0,5.938743 -3.72059,8.525082 -7.0219,10.764323 -6.794238,4.608475 -19.95169,4.558319 -27.64051,4.666073 -0.107728,7.688805 0.303611,20.48508 -4.304863,27.27932 -2.239241,3.30132 -7.036253,7.16441 -10.906844,7.16441 3.082925,0 6.307865,-1.7752 10.086567,-5.4327 12.158605,-11.76861 23.097887,-21.459634 34.14469,-33.645117 2.55216,-2.815215 5.64286,-4.843615 5.64286,-10.796309 z"
       id="path6011"
       inkscape:connector-curvature="0"
       sodipodi:nodetypes="cscscssc" />
    <path
       style="fill:#ffffff;fill-opacity:1;stroke:none"
       d="m 112.01875,73.115242 c -0.42084,5.185724 -5.08438,7.318602 -8.17936,9.417895 C 98.818947,85.938464 82.6646,85.3344 74.6648,85.3344 c 0,7.9998 1.619153,23.49711 -2.7864,30.22372 -1.912401,2.91993 -4.654194,5.79882 -8.19598,6.58338 2.633964,-0.48185 5.299865,-2.47561 8.470288,-5.54435 0.451018,-0.51674 0.763801,-0.90298 1.471286,-1.99496 4.608475,-6.79423 4.099678,-18.412383 4.207406,-26.10119 7.68882,-0.107728 20.028368,-0.145785 26.8226,-4.754259 0.619,-0.41986 2.51897,-1.313671 3.06727,-1.861967 2.04322,-2.043229 3.9922,-4.273773 4.29748,-8.769532 z M 63.68242,122.1415 c -0.209681,0.0464 -0.416863,0.0551 -0.623426,0.0831 0.208794,-0.0225 0.412882,-0.0446 0.623426,-0.0831 z"
       id="path6122"
       inkscape:connector-curvature="0"
       sodipodi:nodetypes="cscsccccsscccc" />
    <path
       style="fill:none;stroke:url(#radialGradient3919-5);stroke-width:1.20000005;stroke-linecap:butt;stroke-linejoin:miter;stroke-miterlimit:4;stroke-opacity:1;stroke-dasharray:none;filter:url(#filter3909-6)"
       d="M 117.31456,81.861283 72.639105,125.34835"
       id="path3873"
       inkscape:connector-curvature="0"
       sodipodi:nodetypes="cc"
       clip-path="url(#clipPath3889-6)"
       transform="matrix(1.3299764,0,0,1.3299764,-36.963543,-37.156423)" />
  </g>
</svg>
