<?xml version="1.0" encoding="UTF-8" standalone="no"?>
<!-- Created with Inkscape (http://www.inkscape.org/) -->

<svg
   xmlns:dc="http://purl.org/dc/elements/1.1/"
   xmlns:cc="http://creativecommons.org/ns#"
   xmlns:rdf="http://www.w3.org/1999/02/22-rdf-syntax-ns#"
   xmlns:svg="http://www.w3.org/2000/svg"
   xmlns="http://www.w3.org/2000/svg"
   xmlns:xlink="http://www.w3.org/1999/xlink"
   xmlns:sodipodi="http://sodipodi.sourceforge.net/DTD/sodipodi-0.dtd"
   xmlns:inkscape="http://www.inkscape.org/namespaces/inkscape"
   width="128"
   height="128"
   id="svg2606"
   sodipodi:version="0.32"
   inkscape:version="0.48.0 r9654"
   version="1.0"
   sodipodi:docname="text-x-c++src.svgz"
   inkscape:output_extension="org.inkscape.output.svgz.inkscape"
   inkscape:export-filename="/home/pinheiro/pics/oxygen-icons/scalable/mimetypes/small/48x48/text-x-c++src.png"
   inkscape:export-xdpi="135"
   inkscape:export-ydpi="135">
  <defs
     id="defs2608">
    <linearGradient
       id="linearGradient6131">
      <stop
         id="stop6133"
         offset="0"
         style="stop-color:#fcfcfc;stop-opacity:1" />
      <stop
         style="stop-color:#f8f8f8;stop-opacity:1"
         offset="0.52275378"
         id="stop6135" />
      <stop
         id="stop6141"
         offset="0.77457333"
         style="stop-color:#f0efef;stop-opacity:1;" />
      <stop
         id="stop6139"
         offset="0.90122044"
         style="stop-color:#e3e1e1;stop-opacity:1;" />
      <stop
         id="stop6137"
         offset="1"
         style="stop-color:#cecbcb;stop-opacity:1" />
    </linearGradient>
    <linearGradient
       inkscape:collect="always"
       xlink:href="#linearGradient6131"
       id="linearGradient3893"
       gradientUnits="userSpaceOnUse"
       gradientTransform="matrix(1.0119858,0,0,1.0119858,-0.89554075,-0.9871566)"
       x1="86.73793"
       y1="93.621468"
       x2="95.460213"
       y2="102.34375" />
    <radialGradient
       inkscape:collect="always"
       xlink:href="#linearGradient3913-5"
       id="radialGradient3919-5"
       cx="90.75"
       cy="110.25299"
       fx="90.75"
       fy="110.25299"
       r="18.750002"
       gradientTransform="matrix(1.3067347,0,0,1.3067347,-27.83617,-33.818441)"
       gradientUnits="userSpaceOnUse" />
    <linearGradient
       inkscape:collect="always"
       id="linearGradient3913-5">
      <stop
         style="stop-color:#ffffff;stop-opacity:1;"
         offset="0"
         id="stop3915-4" />
      <stop
         style="stop-color:#ffffff;stop-opacity:0;"
         offset="1"
         id="stop3917-7" />
    </linearGradient>
    <clipPath
       clipPathUnits="userSpaceOnUse"
       id="clipPath3889-6">
      <path
         sodipodi:nodetypes="cscscssc"
         inkscape:connector-curvature="0"
         id="path3891-5"
         d="m 112,82.502986 c 0,4.465301 -2.79749,6.409952 -5.27972,8.093625 -5.10854,3.46508 -14.939114,3.32536 -20.720284,3.40638 -0.081,5.781159 0.16586,15.504599 -3.29922,20.613139 -1.68367,2.48224 -5.29051,5.38687 -8.20078,5.38687 2.31803,0 4.74284,-1.33476 7.58402,-4.08481 9.14197,-8.84873 17.36714,-16.13535 25.673154,-25.297529 C 109.67612,88.503916 112,86.97878 112,82.502986 z"
         style="fill:url(#linearGradient3893);fill-opacity:1;stroke:none" />
    </clipPath>
    <filter
       color-interpolation-filters="sRGB"
       inkscape:collect="always"
       id="filter3909-6">
      <feGaussianBlur
         inkscape:collect="always"
         stdDeviation="0.43040059"
         id="feGaussianBlur3911-9" />
    </filter>
    <linearGradient
       inkscape:collect="always"
       xlink:href="#linearGradient3897-7"
       id="linearGradient3895-3"
       gradientUnits="userSpaceOnUse"
       gradientTransform="matrix(1.3459172,0,0,1.3459172,-38.154591,-38.469319)"
       x1="86.73793"
       y1="93.621468"
       x2="95.18235"
       y2="102.06589" />
    <linearGradient
       id="linearGradient3897-7">
      <stop
         style="stop-color:#fcfcfc;stop-opacity:1"
         offset="0"
         id="stop3899-4" />
      <stop
         id="stop3901-5"
         offset="0.52275378"
         style="stop-color:#f8f8f8;stop-opacity:1" />
      <stop
         style="stop-color:#f0efef;stop-opacity:1;"
         offset="0.72337759"
         id="stop3903-2" />
      <stop
         style="stop-color:#e3e1e1;stop-opacity:1;"
         offset="0.89024991"
         id="stop3905-5" />
      <stop
         style="stop-color:#cecbcb;stop-opacity:1"
         offset="1"
         id="stop3907-4" />
    </linearGradient>
    <clipPath
       clipPathUnits="userSpaceOnUse"
       id="clipPath6093-7">
      <path
         inkscape:connector-curvature="0"
         sodipodi:nodetypes="cccssccc"
         id="path6095-4"
         d="m 17.000001,8 0.782827,110 57.5,0 c 1.675283,0 3.119418,0.18058 4.9,-1.6 C 88.980763,107.60206 99.94047,96.548195 107.19904,89.224043 109.6396,86.761431 110,84.752873 110,82.5 L 110,8 z"
         style="fill:#ffffff;fill-opacity:1" />
    </clipPath>
    <filter
       color-interpolation-filters="sRGB"
       inkscape:collect="always"
       id="filter6118-4"
       x="-0.1126375"
       width="1.225275"
       y="-0.12064722"
       height="1.2412944">
      <feGaussianBlur
         inkscape:collect="always"
         stdDeviation="2.3860572"
         id="feGaussianBlur6120-3" />
    </filter>
    <radialGradient
       inkscape:collect="always"
       xlink:href="#linearGradient5982-7"
       id="radialGradient5988-0"
       cx="64"
       cy="64.004021"
       fx="63.793392"
       fy="47.274845"
       r="47.5"
       gradientTransform="matrix(1.6842105,-0.08429519,0.06886339,1.3758846,-48.197001,-18.66323)"
       gradientUnits="userSpaceOnUse" />
    <linearGradient
       inkscape:collect="always"
       id="linearGradient5982-7">
      <stop
         style="stop-color:#ffffff;stop-opacity:1;"
         offset="0"
         id="stop5984-8" />
      <stop
         style="stop-color:#ffffff;stop-opacity:0;"
         offset="1"
         id="stop5986-6" />
    </linearGradient>
    <filter
       color-interpolation-filters="sRGB"
       inkscape:collect="always"
       id="filter6171-8"
       x="-0.47870937"
       width="1.9574188"
       y="-0.51275069"
       height="2.0255013">
      <feGaussianBlur
         inkscape:collect="always"
         stdDeviation="10.140743"
         id="feGaussianBlur6173-8" />
    </filter>
    <linearGradient
       inkscape:collect="always"
       xlink:href="#linearGradient4518-3"
       id="linearGradient4524-4"
       x1="72"
       y1="0"
       x2="72"
       y2="116.40091"
       gradientUnits="userSpaceOnUse"
       gradientTransform="translate(3.9208985e-7,2.7836914e-6)" />
    <linearGradient
       id="linearGradient4518-3">
      <stop
         style="stop-color:#eeecec;stop-opacity:1"
         offset="0"
         id="stop4520-1" />
      <stop
         id="stop5969-4"
         offset="0.40000001"
         style="stop-color:#f4f4f4;stop-opacity:1" />
      <stop
         style="stop-color:#f6f5f5;stop-opacity:1"
         offset="1"
         id="stop4522-9" />
    </linearGradient>
    <filter
       inkscape:collect="always"
       id="filter4111">
      <feGaussianBlur
         inkscape:collect="always"
         stdDeviation="1.5615"
         id="feGaussianBlur4113" />
    </filter>
    <filter
       inkscape:collect="always"
       id="filter4123">
      <feGaussianBlur
         inkscape:collect="always"
         stdDeviation="2.028"
         id="feGaussianBlur4125" />
    </filter>
    <clipPath
       clipPathUnits="userSpaceOnUse"
       id="clipPath5480">
      <path
         sodipodi:nodetypes="ccssscccccc"
         inkscape:connector-curvature="0"
         id="path5482"
         d="m 12,14.5 c -0.339844,0 -0.5,0.234618 -0.5,0.5 l 0,108.96875 c 0,0.82158 0.679323,1.49953 1.5,1.5 L 68,125.5 c 0.05307,3e-5 0.997884,-0.008 1.6875,5e-5 10.098603,-3.99538 25.4133,-22.75328 34.35853,-31.755094 1.47685,-1.656484 1.11385,-1.151317 1.45391,-2.888706 L 105.5,15 c 0,-0.322717 -0.16322,-0.5 -0.5,-0.5 z"
         style="opacity:0.84653476;fill:url(#radialGradient5484);fill-opacity:1" />
    </clipPath>
    <clipPath
       clipPathUnits="userSpaceOnUse"
       id="clipPath3347">
      <path
         style="fill:none;stroke:#000000;stroke-width:0.6890704px;stroke-linecap:butt;stroke-linejoin:miter;stroke-opacity:1"
         d="M 76.616064,129.36319 117.2913,85.976279 142.71334,53.616098 76.935083,51.910736 c 0,0 -33.863622,12.668406 -33.132753,13.642899 0.73087,0.974492 -0.243623,65.534635 -0.243623,65.534635 l 19.498946,-9.86012 z"
         id="path3349"
         inkscape:connector-curvature="0"
         sodipodi:nodetypes="ccccsccc" />
    </clipPath>
    <mask
       maskUnits="userSpaceOnUse"
       id="mask4222">
      <path
         style="fill:#ffffff;fill-opacity:1;stroke:none;filter:url(#filter4218)"
         d="m 44.370951,81.259888 c -8.150826,-41.786193 25.173652,28.339362 35.277971,26.047882 16.598904,-3.76434 41.089558,-9.077323 41.089558,-9.077323 0,0 0,-25.809398 -0.53033,-25.102291 -0.53033,0.707107 -63.639607,9.545942 -63.639607,9.545942 z"
         id="path4224"
         inkscape:connector-curvature="0"
         sodipodi:nodetypes="cscscc"
         transform="matrix(1.67968,0,0,1.67968,5.9965454,-114.72706)" />
    </mask>
    <filter
       color-interpolation-filters="sRGB"
       inkscape:collect="always"
       id="filter4218"
       x="-0.10223514"
       width="1.2044703"
       y="-0.17254616"
       height="1.3450923">
      <feGaussianBlur
         inkscape:collect="always"
         stdDeviation="2.7335095"
         id="feGaussianBlur4220" />
    </filter>
    <linearGradient
       inkscape:collect="always"
       xlink:href="#linearGradient4082"
       id="linearGradient4258"
       gradientUnits="userSpaceOnUse"
       x1="174.99582"
       y1="61.216953"
       x2="188.15242"
       y2="61.216953" />
    <linearGradient
       id="linearGradient4082">
      <stop
         id="stop4084"
         offset="0"
         style="stop-color:#cbf093;stop-opacity:1;" />
      <stop
         id="stop4086"
         offset="1"
         style="stop-color:#6dd259;stop-opacity:1;" />
    </linearGradient>
    <linearGradient
       inkscape:collect="always"
       xlink:href="#linearGradient4048"
       id="linearGradient4260"
       gradientUnits="userSpaceOnUse"
       x1="151.4966"
       y1="58.545204"
       x2="140.57423"
       y2="102.00229" />
    <linearGradient
       id="linearGradient4048">
      <stop
         style="stop-color:#307921;stop-opacity:1;"
         offset="0"
         id="stop4050" />
      <stop
         style="stop-color:#cff5a0;stop-opacity:1"
         offset="1"
         id="stop4052" />
    </linearGradient>
    <linearGradient
       inkscape:collect="always"
       xlink:href="#linearGradient4082"
       id="linearGradient4262"
       gradientUnits="userSpaceOnUse"
       x1="163.15208"
       y1="63.299015"
       x2="175.96492"
       y2="63.299015" />
    <linearGradient
       id="linearGradient3293">
      <stop
         id="stop3295"
         offset="0"
         style="stop-color:#cbf093;stop-opacity:1;" />
      <stop
         id="stop3297"
         offset="1"
         style="stop-color:#6dd259;stop-opacity:1;" />
    </linearGradient>
    <linearGradient
       inkscape:collect="always"
       xlink:href="#linearGradient4082"
       id="linearGradient4264"
       gradientUnits="userSpaceOnUse"
       x1="170.48972"
       y1="53.93354"
       x2="180.58992"
       y2="53.93354" />
    <linearGradient
       id="linearGradient3300">
      <stop
         id="stop3302"
         offset="0"
         style="stop-color:#cbf093;stop-opacity:1;" />
      <stop
         id="stop3304"
         offset="1"
         style="stop-color:#6dd259;stop-opacity:1;" />
    </linearGradient>
    <linearGradient
       inkscape:collect="always"
       xlink:href="#linearGradient4056"
       id="linearGradient4266"
       gradientUnits="userSpaceOnUse"
       x1="145.78125"
       y1="86.891769"
       x2="161.05867"
       y2="86.891769" />
    <linearGradient
       id="linearGradient4056">
      <stop
         style="stop-color:#ace754;stop-opacity:1;"
         offset="0"
         id="stop4058" />
      <stop
         style="stop-color:#45af30;stop-opacity:1;"
         offset="1"
         id="stop4060" />
    </linearGradient>
    <linearGradient
       inkscape:collect="always"
       xlink:href="#linearGradient4036"
       id="linearGradient4268"
       gradientUnits="userSpaceOnUse"
       x1="171.28091"
       y1="124.95236"
       x2="167.98808"
       y2="43.910076" />
    <linearGradient
       id="linearGradient4036">
      <stop
         id="stop4038"
         offset="0"
         style="stop-color:#c0e970;stop-opacity:1" />
      <stop
         style="stop-color:#6ae556;stop-opacity:1"
         offset="0.3488954"
         id="stop4040" />
      <stop
         id="stop4042"
         offset="0.67611599"
         style="stop-color:#2cb32e;stop-opacity:1" />
      <stop
         id="stop4044"
         offset="0.90122044"
         style="stop-color:#237229;stop-opacity:1" />
      <stop
         id="stop4046"
         offset="1"
         style="stop-color:#307921;stop-opacity:1" />
    </linearGradient>
    <filter
       color-interpolation-filters="sRGB"
       inkscape:collect="always"
       id="filter4204"
       x="-0.30917925"
       width="1.6183585"
       y="-0.65345114"
       height="2.3069024">
      <feGaussianBlur
         inkscape:collect="always"
         stdDeviation="0.60427077"
         id="feGaussianBlur4206" />
    </filter>
    <filter
       color-interpolation-filters="sRGB"
       inkscape:collect="always"
       id="filter4212"
       x="-0.31632483"
       width="1.6326497"
       y="-0.80588835"
       height="2.6117766">
      <feGaussianBlur
         inkscape:collect="always"
         stdDeviation="0.7988254"
         id="feGaussianBlur4214" />
    </filter>
    <linearGradient
       inkscape:collect="always"
       xlink:href="#linearGradient4082"
       id="linearGradient4270"
       gradientUnits="userSpaceOnUse"
       x1="174.99582"
       y1="61.216953"
       x2="188.15242"
       y2="61.216953" />
    <linearGradient
       id="linearGradient3322">
      <stop
         id="stop3324"
         offset="0"
         style="stop-color:#cbf093;stop-opacity:1;" />
      <stop
         id="stop3326"
         offset="1"
         style="stop-color:#6dd259;stop-opacity:1;" />
    </linearGradient>
    <linearGradient
       inkscape:collect="always"
       xlink:href="#linearGradient4048"
       id="linearGradient4272"
       gradientUnits="userSpaceOnUse"
       x1="135.81178"
       y1="96.281586"
       x2="143.09375"
       y2="63.5" />
    <linearGradient
       id="linearGradient3329">
      <stop
         style="stop-color:#307921;stop-opacity:1;"
         offset="0"
         id="stop3331" />
      <stop
         style="stop-color:#cff5a0;stop-opacity:1"
         offset="1"
         id="stop3333" />
    </linearGradient>
    <linearGradient
       inkscape:collect="always"
       xlink:href="#linearGradient4082"
       id="linearGradient4274"
       gradientUnits="userSpaceOnUse"
       x1="163.15208"
       y1="63.299015"
       x2="175.96492"
       y2="63.299015" />
    <linearGradient
       id="linearGradient3336">
      <stop
         id="stop3338"
         offset="0"
         style="stop-color:#cbf093;stop-opacity:1;" />
      <stop
         id="stop3340"
         offset="1"
         style="stop-color:#6dd259;stop-opacity:1;" />
    </linearGradient>
    <linearGradient
       inkscape:collect="always"
       xlink:href="#linearGradient4082"
       id="linearGradient4276"
       gradientUnits="userSpaceOnUse"
       x1="170.55061"
       y1="78.180305"
       x2="180.62117"
       y2="78.180305" />
    <linearGradient
       id="linearGradient3343">
      <stop
         id="stop3345"
         offset="0"
         style="stop-color:#cbf093;stop-opacity:1;" />
      <stop
         id="stop3347"
         offset="1"
         style="stop-color:#6dd259;stop-opacity:1;" />
    </linearGradient>
    <linearGradient
       inkscape:collect="always"
       xlink:href="#linearGradient4082"
       id="linearGradient4278"
       gradientUnits="userSpaceOnUse"
       x1="170.48972"
       y1="53.93354"
       x2="180.58992"
       y2="53.93354" />
    <linearGradient
       id="linearGradient3350">
      <stop
         id="stop3352"
         offset="0"
         style="stop-color:#cbf093;stop-opacity:1;" />
      <stop
         id="stop3354"
         offset="1"
         style="stop-color:#6dd259;stop-opacity:1;" />
    </linearGradient>
    <linearGradient
       inkscape:collect="always"
       xlink:href="#linearGradient4082"
       id="linearGradient4280"
       gradientUnits="userSpaceOnUse"
       x1="163.18253"
       y1="87.530563"
       x2="176.02742"
       y2="87.530563" />
    <linearGradient
       id="linearGradient3357">
      <stop
         id="stop3359"
         offset="0"
         style="stop-color:#cbf093;stop-opacity:1;" />
      <stop
         id="stop3361"
         offset="1"
         style="stop-color:#6dd259;stop-opacity:1;" />
    </linearGradient>
    <linearGradient
       inkscape:collect="always"
       xlink:href="#linearGradient4082"
       id="linearGradient4282"
       gradientUnits="userSpaceOnUse"
       x1="175.02626"
       y1="85.463722"
       x2="188.18367"
       y2="85.463722" />
    <linearGradient
       id="linearGradient3364">
      <stop
         id="stop3366"
         offset="0"
         style="stop-color:#cbf093;stop-opacity:1;" />
      <stop
         id="stop3368"
         offset="1"
         style="stop-color:#6dd259;stop-opacity:1;" />
    </linearGradient>
    <linearGradient
       inkscape:collect="always"
       xlink:href="#linearGradient4056"
       id="linearGradient4284"
       gradientUnits="userSpaceOnUse"
       x1="145.78125"
       y1="86.891769"
       x2="161.05867"
       y2="86.891769" />
    <linearGradient
       id="linearGradient3371">
      <stop
         style="stop-color:#ace754;stop-opacity:1;"
         offset="0"
         id="stop3373" />
      <stop
         style="stop-color:#45af30;stop-opacity:1;"
         offset="1"
         id="stop3375" />
    </linearGradient>
    <linearGradient
       inkscape:collect="always"
       xlink:href="#linearGradient4036"
       id="linearGradient4286"
       gradientUnits="userSpaceOnUse"
       x1="161.77921"
       y1="54.877289"
       x2="166.61691"
       y2="110.18489" />
    <linearGradient
       id="linearGradient3378">
      <stop
         id="stop3380"
         offset="0"
         style="stop-color:#c0e970;stop-opacity:1" />
      <stop
         style="stop-color:#6ae556;stop-opacity:1"
         offset="0.3488954"
         id="stop3382" />
      <stop
         id="stop3384"
         offset="0.67611599"
         style="stop-color:#2cb32e;stop-opacity:1" />
      <stop
         id="stop3386"
         offset="0.90122044"
         style="stop-color:#237229;stop-opacity:1" />
      <stop
         id="stop3388"
         offset="1"
         style="stop-color:#307921;stop-opacity:1" />
    </linearGradient>
  </defs>
  <sodipodi:namedview
     id="base"
     pagecolor="#ffffff"
     bordercolor="#666666"
     borderopacity="1.0"
     inkscape:pageopacity="0.0"
     inkscape:pageshadow="2"
     inkscape:zoom="2.8284271"
     inkscape:cx="30.507388"
     inkscape:cy="74.312334"
     inkscape:document-units="px"
     inkscape:current-layer="layer1"
     width="128px"
     height="128px"
     showgrid="true"
     inkscape:grid-points="true"
     showguides="true"
     inkscape:guide-bbox="true"
     inkscape:window-width="1224"
     inkscape:window-height="757"
     inkscape:window-x="0"
     inkscape:window-y="383"
     inkscape:snap-global="true"
     inkscape:window-maximized="0"
     inkscape:snap-page="true">
    <inkscape:grid
       id="GridFromPre046Settings"
       type="xygrid"
       originx="0px"
       originy="0px"
       spacingx="2.6666px"
       spacingy="2.6666px"
       color="#0000ff"
       empcolor="#0000ff"
       opacity="0.2"
       empopacity="0.4"
       empspacing="2"
       visible="true"
       enabled="true"
       snapvisiblegridlinesonly="true" />
    <sodipodi:guide
       orientation="1,0"
       position="-68,29.325902"
       id="guide4564" />
    <sodipodi:guide
       orientation="1,0"
       position="-121.62237,135.0574"
       id="guide3859" />
    <sodipodi:guide
       orientation="0,1"
       position="38.581514,-74.688154"
       id="guide4360" />
  </sodipodi:namedview>
  <metadata
     id="metadata2611">
    <rdf:RDF>
      <cc:Work
         rdf:about="">
        <dc:format>image/svg+xml</dc:format>
        <dc:type
           rdf:resource="http://purl.org/dc/dcmitype/StillImage" />
        <dc:title></dc:title>
      </cc:Work>
    </rdf:RDF>
  </metadata>
  <g
     inkscape:label="Livello 1"
     inkscape:groupmode="layer"
     id="layer1">
    <path
       style="opacity:0.45606695;fill:#000000;fill-opacity:1;filter:url(#filter4123)"
       d="m 13.333,5.3364 0,117.8304 49.8545,0.4332 c 2.115476,0.0184 4.528919,-1.77169 7,-4.25 0.71234,-0.71442 1.440746,-1.39395 2.15625,-2.09375 0.415612,-0.40649 0.832187,-0.81443 1.25,-1.21875 7.773958,-7.40962 26.98341,-25.122599 34.21875,-33.099999 0.42065,-0.42064 0.81207,-0.8111 1.15625,-1.1875 1.46444,-1.49766 2.76158,-2.8378 2.99375,-5.8625 L 112,75.156251 111.9972,5.3364 z"
       id="path5990"
       inkscape:connector-curvature="0"
       sodipodi:nodetypes="ccsssccccccc" />
    <path
       sodipodi:nodetypes="cccccccc"
       id="path3722"
       d="m 13.333,5.3364 0,118.3304 49.3318,0.3 c 1.527964,0 3.65713,-0.98408 6.387944,-2.83388 C 82.175824,111.57445 97.49744,91.890146 108.75009,80.500071 110.49334,78.756821 112,77.462561 112,73.300001 L 111.9972,5.3364 z"
       style="fill:#000000;fill-opacity:0.84716159;filter:url(#filter4111)"
       inkscape:connector-curvature="0" />
    <path
       style="fill:#ffffff;fill-opacity:1"
       d="m 13.333,5.3364 0,117.3304 49.3318,0 c 1.675283,0 3.914297,-0.56468 7,-3.6 8.870045,-8.72523 32.07567,-31.518599 39.33424,-38.842759 C 111.4396,77.761431 112,75.752871 112,73.500001 L 111.9972,5.3364 z"
       id="path34"
       sodipodi:nodetypes="cccssccc"
       inkscape:connector-curvature="0" />
    <path
       style="fill:url(#linearGradient4524-4);fill-opacity:1"
       d="m 16.5,8.000003 c -0.339844,0 -0.5,0.234618 -0.5,0.5 l 0,109.968747 c 0,0.82158 0.679323,1.5 1.5,1.5 l 48.6875,0 c 0.05308,0 0.810384,0.0234 1.5,0.0313 1.777664,-0.0401 3.131974,-0.75374 4.356035,-1.59328 1.051866,-0.29103 25.980435,-26.619589 35.101555,-35.809239 1.36239,-1.37262 2.18546,-3.94817 2.18546,-4.89561 l 5e-5,-69.201918 c 0,-0.322717 -0.16322,-0.5 -0.5,-0.5 z"
       id="path3967"
       inkscape:connector-curvature="0"
       sodipodi:nodetypes="ccsssccscccc" />
    <path
       sodipodi:nodetypes="ccssscccccc"
       inkscape:connector-curvature="0"
       id="path5980"
       d="m 16.5,8.000003 c -0.339844,0 -0.5,0.234618 -0.5,0.5 l 0,109.968747 c 0,0.82158 0.679323,1.49946 1.5,1.5 l 47.5,0.0313 c 0.05308,3e-5 3.273884,-0.008 3.9635,5e-5 6.540972,-4.50366 29.9679,-28.953329 38.91313,-37.955139 1.47685,-1.65649 0.4576,-0.37007 1.45391,-1.60746 l 6e-5,-71.937498 c 0,-0.322717 -0.16322,-0.5 -0.5,-0.5 z"
       style="opacity:0.84653476;fill:url(#radialGradient5988-0);fill-opacity:1" />
    <text
       clip-path="url(#clipPath5480)"
       xml:space="preserve"
       style="font-size:3px;font-style:normal;font-variant:normal;font-weight:normal;font-stretch:normal;text-align:start;line-height:177.99999714%;letter-spacing:-0.19px;word-spacing:0px;writing-mode:lr-tb;text-anchor:start;fill:#000000;fill-opacity:1;stroke:none;font-family:Courier New;-inkscape-font-specification:Courier New"
       x="14.821373"
       y="17.29369"
       id="text4913"
       sodipodi:linespacing="178%"
       transform="translate(3.844827,-9.6906897)"><tspan
         sodipodi:role="line"
         x="14.821373"
         y="17.29369"
         id="tspan4915">   </tspan><tspan
         sodipodi:role="line"
         x="14.821373"
         y="22.63369"
         id="tspan4967">Area of rectangle</tspan><tspan
         sodipodi:role="line"
         x="14.821373"
         y="27.97369"
         id="tspan4638" /><tspan
         sodipodi:role="line"
         x="14.821373"
         y="33.31369"
         id="tspan4640">#include &lt;iostream&gt; </tspan><tspan
         sodipodi:role="line"
         x="14.821373"
         y="38.65369"
         id="tspan4642">using namespace std; </tspan><tspan
         sodipodi:role="line"
         x="14.821373"
         y="43.99369"
         id="tspan4644" /><tspan
         sodipodi:role="line"
         x="14.821373"
         y="49.333691"
         id="tspan4646">const double pi = 3.14159; </tspan><tspan
         sodipodi:role="line"
         x="14.821373"
         y="54.673691"
         id="tspan4648" /><tspan
         sodipodi:role="line"
         x="14.821373"
         y="60.013691"
         id="tspan4650">int main() </tspan><tspan
         sodipodi:role="line"
         x="14.821373"
         y="65.353691"
         id="tspan4652">{ </tspan><tspan
         sodipodi:role="line"
         x="14.821373"
         y="70.693687"
         id="tspan4654">float length, width, area; </tspan><tspan
         sodipodi:role="line"
         x="14.821373"
         y="76.033691"
         id="tspan4656" /><tspan
         sodipodi:role="line"
         x="14.821373"
         y="81.373688"
         id="tspan4658">cout &lt;&lt; &quot;Enter The Length Of The Rectangle: &quot;; </tspan><tspan
         sodipodi:role="line"
         x="14.821373"
         y="86.713692"
         id="tspan4660">cin &gt;&gt; length; </tspan><tspan
         sodipodi:role="line"
         x="14.821373"
         y="92.053688"
         id="tspan4662">cout &lt;&lt; &quot;Enter The Width Of Rectangle: &quot;; </tspan><tspan
         sodipodi:role="line"
         x="14.821373"
         y="97.393692"
         id="tspan4664">cin &gt;&gt; width; </tspan><tspan
         sodipodi:role="line"
         x="14.821373"
         y="102.73369"
         id="tspan4666">area = length*width; </tspan><tspan
         sodipodi:role="line"
         x="14.821373"
         y="108.07368"
         id="tspan4668" /><tspan
         sodipodi:role="line"
         x="14.821373"
         y="113.41369"
         id="tspan4670">cout &lt;&lt;&quot;The area of the rectangle is : &quot;&lt;&lt; area &lt;&lt; endl;</tspan><tspan
         sodipodi:role="line"
         x="14.821373"
         y="118.75368"
         id="tspan4672" /><tspan
         sodipodi:role="line"
         x="14.821373"
         y="124.09369"
         id="tspan4674">return 0; </tspan><tspan
         sodipodi:role="line"
         x="14.821373"
         y="129.43369"
         id="tspan4676">}</tspan><tspan
         sodipodi:role="line"
         x="14.821373"
         y="134.77368"
         id="tspan4973" /><tspan
         sodipodi:role="line"
         x="14.821373"
         y="140.11369"
         id="tspan4979">   </tspan></text>
    <path
       style="fill:#000000"
       d=""
       id="path2197" />
    <g
       id="g4226"
       transform="matrix(1.9667497,0,0,1.9667497,-102.68582,-110.42542)"
       clip-path="url(#clipPath3347)">
      <g
         mask="url(#mask4222)"
         id="g4124"
         transform="matrix(0.59535148,0,0,0.59535148,-3.5700522,68.302925)">
        <path
           sodipodi:nodetypes="ccccc"
           inkscape:connector-curvature="0"
           id="path4126"
           d="m 182.3639,57.943342 5.78852,4.058948 -7.5625,1.3125 -5.5941,-4.09269 z"
           style="fill:url(#linearGradient4258);fill-opacity:1;stroke:none" />
        <path
           sodipodi:nodetypes="scssccccccccscsccccccccs"
           inkscape:connector-curvature="0"
           id="path4128"
           d="m 143.09375,56.109408 c -1.08562,0.0285 -2.25301,0.164795 -3.46875,0.375 -5.27333,0.911851 -9.44544,3.334659 -12.5,7.28125 -3.05458,3.946656 -5.2625,9.364712 -5.2625,15.28125 0,5.933013 1.54003,10.364977 4.625,13.25 l 5.04375,3.4375 11.21875,1.09375 -2.78125,-2.125 c 4.77319,-0.83641 8.54431,-2.803833 11.34375,-5.90625 2.81138,-3.132124 4.35228,-7.133617 4.65625,-11.96875 l -10.1875,1.75 c -0.16719,1.951802 -0.76224,3.543814 -1.75,4.75 -0.97263,1.203588 -2.29712,1.929717 -3.96875,2.21875 -2.17317,0.375773 -3.81294,-0.157892 -4.9375,-1.65625 -1.12459,-1.498322 -1.68751,-3.915317 -1.6875,-7.21875 -1e-5,-3.369125 0.5139,-5.971238 1.5625,-7.8125 1.06376,-1.860268 2.66888,-2.978469 4.78125,-3.34375 1.73243,-0.299526 3.04259,-0.03765 4,0.75 0.95739,0.771275 1.53551,2.044155 1.6875,3.875 l 10.3125,-1.75 c -0.19561,-2.725566 -0.80761,-5.006797 -1.84375,-6.84375 l 2.125,-0.1875 -4.96875,-3.0625 c -2.08578,-1.549876 -4.74313,-2.272994 -8,-2.1875 z"
           style="font-size:49.8302002px;font-style:normal;font-variant:normal;font-weight:normal;font-stretch:normal;text-align:start;line-height:125%;letter-spacing:0px;word-spacing:0px;writing-mode:lr-tb;text-anchor:start;fill:url(#linearGradient4260);fill-opacity:1;stroke:none;font-family:Swis721 Blk BT;-inkscape-font-specification:Swis721 Blk BT" />
        <path
           sodipodi:nodetypes="ccccc"
           inkscape:connector-curvature="0"
           id="path4130"
           d="m 170.48972,51.961094 5.4752,3.728696 0,8.4375 -5.4752,-3.609674 z"
           style="fill:#498d35;fill-opacity:1;stroke:none" />
        <path
           sodipodi:nodetypes="ccccc"
           inkscape:connector-curvature="0"
           id="path4132"
           d="m 163.15208,61.765927 5.28159,3.642613 7.53125,-1.28125 -5.4752,-3.609674 z"
           style="fill:url(#linearGradient4262);fill-opacity:1;stroke:none" />
        <path
           sodipodi:nodetypes="ccccc"
           inkscape:connector-curvature="0"
           id="path4134"
           d="m 163.15208,66.515599 5.28159,3.767941 0,-4.875 -5.28159,-3.642613 z"
           style="fill:#498d35;fill-opacity:1;stroke:none" />
        <path
           inkscape:connector-curvature="0"
           id="path4138"
           d="m 170.48972,65.908713 5.4752,3.062327 0,8.46875 -5.4752,-3.280044 z"
           style="fill:#498d35;fill-opacity:1;stroke:none" />
        <path
           sodipodi:nodetypes="ccccc"
           inkscape:connector-curvature="0"
           id="path4140"
           d="m 174.99582,51.001514 5.5941,3.875776 -4.625,0.8125 -5.4752,-3.896664 z"
           style="fill:url(#linearGradient4264);fill-opacity:1;stroke:none" />
        <path
           sodipodi:nodetypes="ccccc"
           inkscape:connector-curvature="0"
           id="path4150"
           d="m 155.96875,76.828158 5.08992,4.205412 -10.46875,1.8125 -4.80867,-4.267912 z"
           style="fill:url(#linearGradient4266);fill-opacity:1;stroke:none" />
        <path
           sodipodi:nodetypes="cccccccccccc"
           inkscape:connector-curvature="0"
           id="path4152"
           d="m 145.46875,70.140658 4.79752,3.923374 1.31633,-5.283541 -6.49586,-0.567094 0.13773,0.452234 0.041,0.162577 0.0341,0.149508 0.0298,0.143988 0.0471,0.260907 0.035,0.232835 0.0299,0.241807 z"
           style="fill:#307921;fill-opacity:1;stroke:none" />
        <path
           sodipodi:nodetypes="cccccccccccccscsscsccccccsccccccscc"
           id="path4156"
           d="m 180.58992,54.87729 -4.625,0.8125 0,8.4375 -7.53125,1.28125 0,4.875 7.53125,-1.3125 0,8.46875 4.625,-0.8125 0,-8.4375 7.5625,-1.3125 0,-4.875 -7.5625,1.3125 z m -32.75,4.90628 c -1.11427,0.02925 -2.31468,0.159248 -3.5625,0.375 -5.41247,0.935912 -9.67734,3.418022 -12.8125,7.46875 -3.13518,4.050796 -4.6875,9.114844 -4.6875,15.1875 0,6.089565 1.58363,10.6326 4.75,13.59375 3.16636,2.94432 7.50959,3.9235 13.03125,2.96875 4.92889,-0.85226 8.83313,-2.86457 11.71875,-6.0625 2.88557,-3.21477 4.46926,-7.318534 4.78125,-12.28125 l -10.46875,1.8125 c -0.1716,2.003304 -0.76742,3.636987 -1.78125,4.875 -0.99829,1.235347 -2.34676,1.984591 -4.0625,2.28125 -2.23051,0.385689 -3.93952,-0.180855 -5.09375,-1.71875 -1.15426,-1.537858 -1.71876,-4.01565 -1.71875,-7.40625 -1e-5,-3.458025 0.51748,-6.110153 1.59375,-8 1.09183,-1.909354 2.73814,-3.062581 4.90625,-3.4375 1.77814,-0.30743 3.14232,-0.05843 4.125,0.75 0.98265,0.791626 1.56275,2.120845 1.71875,4 l 10.59375,-1.8125 c -0.34318,-4.781917 -1.94252,-8.242208 -4.8125,-10.34375 -2.14082,-1.590772 -4.87595,-2.337749 -8.21875,-2.25 z m 32.78125,19.65622 c -116.416416,13.88813 -58.20821,6.944065 0,0 z"
           style="font-size:49.8302002px;font-style:normal;font-variant:normal;font-weight:normal;font-stretch:normal;text-align:start;line-height:125%;letter-spacing:0px;word-spacing:0px;writing-mode:lr-tb;text-anchor:start;fill:url(#linearGradient4268);fill-opacity:1;stroke:none;font-family:Swis721 Blk BT;-inkscape-font-specification:Swis721 Blk BT"
           inkscape:connector-curvature="0" />
      </g>
      <path
         inkscape:connector-curvature="0"
         id="path4182"
         d="m 80.165301,101.83546 2.243981,2.00944 -1.6255,0.19053 -0.749049,0.0194 -2.316095,-1.67992 z"
         style="fill:none;stroke:#000000;stroke-width:1px;stroke-linecap:butt;stroke-linejoin:miter;stroke-opacity:1;filter:url(#filter4204)" />
      <path
         sodipodi:nodetypes="cccccc"
         inkscape:connector-curvature="0"
         id="path4176"
         d="m 97.883622,99.078954 3.307298,2.378966 2.7535,-0.48372 -3.33045,-2.307448 -2.654547,0.466339 z"
         style="fill:#000000;fill-opacity:1;stroke:none;filter:url(#filter4212)" />
      <g
         transform="matrix(0.59535148,0,0,0.59535148,-3.6539357,40.680461)"
         id="g4088">
        <path
           style="fill:url(#linearGradient4270);fill-opacity:1;stroke:none"
           d="m 182.3639,59.119118 5.78852,2.883172 -7.5625,1.3125 -5.5941,-2.916914 z"
           id="path3239"
           inkscape:connector-curvature="0" />
        <path
           style="font-size:49.8302002px;font-style:normal;font-variant:normal;font-weight:normal;font-stretch:normal;text-align:start;line-height:125%;letter-spacing:0px;word-spacing:0px;writing-mode:lr-tb;text-anchor:start;fill:url(#linearGradient4272);fill-opacity:1;stroke:none;font-family:Swis721 Blk BT;-inkscape-font-specification:Swis721 Blk BT"
           d="m 143.09375,63.5 c -1.08562,0.0285 -2.25301,0.164795 -3.46875,0.375 -5.27333,0.911851 -9.44544,3.334659 -12.5,7.28125 -3.05458,3.946656 -5.2625,9.364712 -5.2625,15.28125 0,5.933013 1.54003,10.364977 4.625,13.25 l 5.04375,3.4375 11.21875,1.09375 -2.78125,-2.125 c 4.77319,-0.83641 8.54431,-2.803833 11.34375,-5.90625 2.81138,-3.132124 4.35228,-7.133617 4.65625,-11.96875 l -10.1875,1.75 c -0.16719,1.951802 -0.76224,3.543814 -1.75,4.75 -0.97263,1.203588 -2.29712,1.929717 -3.96875,2.21875 -2.17317,0.375773 -3.81294,-0.157892 -4.9375,-1.65625 -1.12459,-1.498322 -1.68751,-3.915317 -1.6875,-7.21875 -1e-5,-3.369125 0.5139,-5.971238 1.5625,-7.8125 1.06376,-1.860268 2.66888,-2.978469 4.78125,-3.34375 1.73243,-0.299526 3.04259,-0.03765 4,0.75 0.95739,0.771275 1.53551,2.044155 1.6875,3.875 l 10.3125,-1.75 c -0.19561,-2.725566 -0.80761,-5.006797 -1.84375,-6.84375 l 2.125,-0.1875 -4.96875,-3.0625 c -2.08578,-1.549876 -4.74313,-2.272994 -8,-2.1875 z"
           id="path3206"
           inkscape:connector-curvature="0"
           sodipodi:nodetypes="scssccccccccscsccccccccs" />
        <path
           style="fill:#498d35;fill-opacity:1;stroke:none"
           d="m 170.48972,52.968902 5.4752,2.720888 0,8.4375 -5.4752,-2.937802 z"
           id="path3229"
           inkscape:connector-curvature="0" />
        <path
           style="fill:url(#linearGradient4274);fill-opacity:1;stroke:none"
           d="m 163.15208,62.437799 5.28159,2.970741 7.53125,-1.28125 -5.4752,-2.937802 -7.33764,1.248311 z"
           id="path3231"
           inkscape:connector-curvature="0" />
        <path
           style="fill:#498d35;fill-opacity:1;stroke:none"
           d="m 163.15208,67.187471 5.28159,3.096069 0,-4.875 -5.28159,-2.970741 z"
           id="path3233"
           inkscape:connector-curvature="0" />
        <path
           style="fill:url(#linearGradient4276);fill-opacity:1;stroke:none"
           d="m 170.55061,76.899941 5.47681,3.352349 4.59375,-0.8125 -5.59491,-3.331461 z"
           id="path3241"
           inkscape:connector-curvature="0" />
        <path
           style="fill:#498d35;fill-opacity:1;stroke:none"
           d="m 170.48972,65.908713 5.4752,3.062327 0,8.46875 -5.4752,-3.280044 z"
           id="path3235"
           inkscape:connector-curvature="0" />
        <path
           style="fill:url(#linearGradient4278);fill-opacity:1;stroke:none"
           d="m 174.99582,52.17729 5.5941,2.7 -4.625,0.8125 -5.4752,-2.720888 z"
           id="path3237"
           inkscape:connector-curvature="0" />
        <path
           style="fill:url(#linearGradient4280);fill-opacity:1;stroke:none"
           d="m 163.18253,86.368838 5.28239,3.602202 7.5625,-1.3125 -5.47681,-3.56846 z"
           id="path3243"
           inkscape:connector-curvature="0"
           sodipodi:nodetypes="ccccc" />
        <path
           style="fill:#498d35;fill-opacity:1;stroke:none"
           d="m 163.18253,91.11851 5.28239,3.72753 0,-4.875 -5.28239,-3.602202 z"
           id="path3245"
           inkscape:connector-curvature="0" />
        <path
           style="fill:#498d35;fill-opacity:1;stroke:none"
           d="m 170.55061,98.090784 5.47681,3.911506 0,-8.46875 -5.47681,-3.693788 z"
           id="path3247"
           inkscape:connector-curvature="0" />
        <path
           style="fill:url(#linearGradient4282);fill-opacity:1;stroke:none"
           d="m 188.18367,86.56479 -5.78933,-3.514633 -7.36808,1.278758 5.59491,3.548375 z"
           id="path3249"
           inkscape:connector-curvature="0" />
        <path
           style="fill:url(#linearGradient4284);fill-opacity:1;stroke:none"
           d="m 155.96875,84.21875 5.08992,3.53354 -10.46875,1.8125 -4.80867,-3.59604 z"
           id="path3254"
           inkscape:connector-curvature="0" />
        <path
           style="fill:#307921;fill-opacity:1;stroke:none"
           d="m 145.46875,77.53125 4.80867,3.37729 1.31633,-5.283541 -6.50701,-0.02101 0.13773,0.452234 0.041,0.162577 0.0341,0.149508 0.0298,0.143988 0.0471,0.260907 0.035,0.232835 0.0299,0.241807 z"
           id="path3256"
           inkscape:connector-curvature="0" />
        <path
           style="fill:#498d35;fill-opacity:1;stroke:none"
           d="m 170.55061,76.899941 5.47681,3.352349 0,8.40625 -5.47681,-3.56846 z"
           id="path3258"
           inkscape:connector-curvature="0" />
        <path
           inkscape:connector-curvature="0"
           style="font-size:49.8302002px;font-style:normal;font-variant:normal;font-weight:normal;font-stretch:normal;text-align:start;line-height:125%;letter-spacing:0px;word-spacing:0px;writing-mode:lr-tb;text-anchor:start;fill:url(#linearGradient4286);fill-opacity:1;stroke:none;font-family:Swis721 Blk BT;-inkscape-font-specification:Swis721 Blk BT"
           d="m 180.58992,54.87729 -4.625,0.8125 0,8.4375 -7.53125,1.28125 0,4.875 7.53125,-1.3125 0,8.46875 4.625,-0.8125 0,-8.4375 7.5625,-1.3125 0,-4.875 -7.5625,1.3125 0,-8.4375 z m -32.75,11.625 c -1.11427,0.02925 -2.31468,0.159248 -3.5625,0.375 -5.41247,0.935912 -9.67734,3.418022 -12.8125,7.46875 -3.13518,4.050796 -4.6875,9.114844 -4.6875,15.1875 0,6.089565 1.58363,10.6326 4.75,13.59375 3.16636,2.94432 7.50959,3.9235 13.03125,2.96875 4.92889,-0.85226 8.83313,-2.86457 11.71875,-6.0625 2.88557,-3.21477 4.46926,-7.318534 4.78125,-12.28125 l -10.46875,1.8125 c -0.1716,2.003304 -0.76742,3.636987 -1.78125,4.875 -0.99829,1.235347 -2.34676,1.984591 -4.0625,2.28125 -2.23051,0.385689 -3.93952,-0.180855 -5.09375,-1.71875 -1.15426,-1.537858 -1.71876,-4.01565 -1.71875,-7.40625 -1e-5,-3.458025 0.51748,-6.110153 1.59375,-8 1.09183,-1.909354 2.73814,-3.062581 4.90625,-3.4375 1.77814,-0.30743 3.14232,-0.05843 4.125,0.75 0.98265,0.791626 1.56275,2.120845 1.71875,4 l 10.59375,-1.8125 c -0.34318,-4.781917 -1.94252,-8.242208 -4.8125,-10.34375 -2.14082,-1.590772 -4.87595,-2.337749 -8.21875,-2.25 z m 32.78125,12.9375 -4.59375,0.8125 0,8.40625 -7.5625,1.3125 0,4.875 7.5625,-1.3125 0,8.46875 4.59375,-0.8125 0,-8.4375 7.5625,-1.3125 0,-4.875 -7.5625,1.3125 0,-8.4375 z"
           id="path3196" />
      </g>
    </g>
    <path
       clip-path="url(#clipPath6093-7)"
       style="opacity:0.34728035;fill:#000000;fill-opacity:1;stroke:none;filter:url(#filter6171-8)"
       d="m 114.4,82.502986 c 0,4.465301 -4.99749,5.909952 -7.47972,7.593625 -5.10854,3.46508 -18.362065,-1.446073 -24.143235,-1.365053 -0.081,5.781159 3.371639,20.976032 -0.09344,26.084572 -1.68367,2.48224 -5.573338,8.68687 -8.483608,8.68687 -2.091359,1.5337 3.488204,8.21101 6.734971,5.31989 9.501888,-8.46107 35.131683,-30.022704 43.350823,-39.262889 2.04044,-2.29392 -4.90514,-9.844666 -9.88579,-7.057015 z"
       id="path6153"
       inkscape:connector-curvature="0"
       sodipodi:nodetypes="cscscssc"
       transform="matrix(1.2774204,0,0,1.2774204,-31.076286,-28.013102)" />
    <path
       sodipodi:nodetypes="cscscssc"
       inkscape:connector-curvature="0"
       id="path6081"
       d="m 113.9,82.502986 c 0,4.465301 -5.09749,6.009952 -7.57972,7.693625 -5.10854,3.46508 -16.139114,2.12536 -21.920284,2.20638 -0.081,5.781159 1.66586,17.304599 -1.79922,22.413139 -1.68367,2.48224 -4.69051,7.98687 -7.60078,7.98687 -2.091359,1.5337 3.488204,11.21101 6.734971,8.31989 9.501888,-8.46107 45.998943,-30.20138 54.218083,-39.441569 2.04044,-2.29392 -17.0724,-11.965986 -22.05305,-9.178335 z"
       style="opacity:0.40099009;fill:#000000;fill-opacity:1;stroke:none;filter:url(#filter6118-4)"
       clip-path="url(#clipPath6093-7)"
       transform="matrix(1.3299764,0,0,1.3299764,-36.963543,-37.156423)" />
    <path
       style="fill:url(#linearGradient3895-3);fill-opacity:1;stroke:none"
       d="m 111.99381,72.570604 c 0,5.938743 -3.72059,8.525082 -7.0219,10.764323 -6.794238,4.608475 -19.95169,4.558319 -27.64051,4.666073 -0.107728,7.688805 0.303611,20.48508 -4.304863,27.27932 -2.239241,3.30132 -7.036253,7.16441 -10.906844,7.16441 3.082925,0 6.307865,-1.7752 10.086567,-5.4327 12.158605,-11.76861 23.097887,-21.459634 34.14469,-33.645117 2.55216,-2.815215 5.64286,-4.843615 5.64286,-10.796309 z"
       id="path6011"
       inkscape:connector-curvature="0"
       sodipodi:nodetypes="cscscssc" />
    <path
       style="fill:#ffffff;fill-opacity:1;stroke:none"
       d="m 112.01875,73.115242 c -0.42084,5.185724 -5.08438,7.318602 -8.17936,9.417895 C 98.818947,85.938464 82.6646,85.3344 74.6648,85.3344 c 0,7.9998 1.619153,23.49711 -2.7864,30.22372 -1.912401,2.91993 -4.654194,5.79882 -8.19598,6.58338 2.633964,-0.48185 5.299865,-2.47561 8.470288,-5.54435 0.451018,-0.51674 0.763801,-0.90298 1.471286,-1.99496 4.608475,-6.79423 4.099678,-18.412383 4.207406,-26.10119 7.68882,-0.107728 20.028368,-0.145785 26.8226,-4.754259 0.619,-0.41986 2.51897,-1.313671 3.06727,-1.861967 2.04322,-2.043229 3.9922,-4.273773 4.29748,-8.769532 z M 63.68242,122.1415 c -0.209681,0.0464 -0.416863,0.0551 -0.623426,0.0831 0.208794,-0.0225 0.412882,-0.0446 0.623426,-0.0831 z"
       id="path6122"
       inkscape:connector-curvature="0"
       sodipodi:nodetypes="cscsccccsscccc" />
    <path
       style="fill:none;stroke:url(#radialGradient3919-5);stroke-width:1.20000005;stroke-linecap:butt;stroke-linejoin:miter;stroke-miterlimit:4;stroke-opacity:1;stroke-dasharray:none;filter:url(#filter3909-6)"
       d="M 117.31456,81.861283 72.639105,125.34835"
       id="path3873"
       inkscape:connector-curvature="0"
       sodipodi:nodetypes="cc"
       clip-path="url(#clipPath3889-6)"
       transform="matrix(1.3299764,0,0,1.3299764,-36.963543,-37.156423)" />
  </g>
</svg>
