<?xml version="1.0" encoding="UTF-8" standalone="no"?>
<!-- Created with Inkscape (http://www.inkscape.org/) -->

<svg
   xmlns:dc="http://purl.org/dc/elements/1.1/"
   xmlns:cc="http://creativecommons.org/ns#"
   xmlns:rdf="http://www.w3.org/1999/02/22-rdf-syntax-ns#"
   xmlns:svg="http://www.w3.org/2000/svg"
   xmlns="http://www.w3.org/2000/svg"
   xmlns:xlink="http://www.w3.org/1999/xlink"
   xmlns:sodipodi="http://sodipodi.sourceforge.net/DTD/sodipodi-0.dtd"
   xmlns:inkscape="http://www.inkscape.org/namespaces/inkscape"
   width="128"
   height="128"
   id="svg2606"
   sodipodi:version="0.32"
   inkscape:version="0.48.0 r9654"
   version="1.0"
   sodipodi:docname="text-x-hex.svgz"
   inkscape:output_extension="org.inkscape.output.svgz.inkscape"
   inkscape:export-filename="/home/pinheiro/pics/oxygen-icons/scalable/mimetypes/small/48x48/text-x-hex.png"
   inkscape:export-xdpi="135"
   inkscape:export-ydpi="135">
  <defs
     id="defs2608">
    <linearGradient
       id="linearGradient6131">
      <stop
         id="stop6133"
         offset="0"
         style="stop-color:#fcfcfc;stop-opacity:1" />
      <stop
         style="stop-color:#f8f8f8;stop-opacity:1"
         offset="0.52275378"
         id="stop6135" />
      <stop
         id="stop6141"
         offset="0.77457333"
         style="stop-color:#f0efef;stop-opacity:1;" />
      <stop
         id="stop6139"
         offset="0.90122044"
         style="stop-color:#e3e1e1;stop-opacity:1;" />
      <stop
         id="stop6137"
         offset="1"
         style="stop-color:#cecbcb;stop-opacity:1" />
    </linearGradient>
    <linearGradient
       inkscape:collect="always"
       xlink:href="#linearGradient6131"
       id="linearGradient3893"
       gradientUnits="userSpaceOnUse"
       gradientTransform="matrix(1.0119858,0,0,1.0119858,-0.89554075,-0.9871566)"
       x1="86.73793"
       y1="93.621468"
       x2="95.460213"
       y2="102.34375" />
    <radialGradient
       inkscape:collect="always"
       xlink:href="#linearGradient3913-5"
       id="radialGradient3919-5"
       cx="90.75"
       cy="110.25299"
       fx="90.75"
       fy="110.25299"
       r="18.750002"
       gradientTransform="matrix(1.3067347,0,0,1.3067347,-27.83617,-33.818441)"
       gradientUnits="userSpaceOnUse" />
    <linearGradient
       inkscape:collect="always"
       id="linearGradient3913-5">
      <stop
         style="stop-color:#ffffff;stop-opacity:1;"
         offset="0"
         id="stop3915-4" />
      <stop
         style="stop-color:#ffffff;stop-opacity:0;"
         offset="1"
         id="stop3917-7" />
    </linearGradient>
    <clipPath
       clipPathUnits="userSpaceOnUse"
       id="clipPath3889-6">
      <path
         sodipodi:nodetypes="cscscssc"
         inkscape:connector-curvature="0"
         id="path3891-5"
         d="m 112,82.502986 c 0,4.465301 -2.79749,6.409952 -5.27972,8.093625 -5.10854,3.46508 -14.939114,3.32536 -20.720284,3.40638 -0.081,5.781159 0.16586,15.504599 -3.29922,20.613139 -1.68367,2.48224 -5.29051,5.38687 -8.20078,5.38687 2.31803,0 4.74284,-1.33476 7.58402,-4.08481 9.14197,-8.84873 17.36714,-16.13535 25.673154,-25.297529 C 109.67612,88.503916 112,86.97878 112,82.502986 z"
         style="fill:url(#linearGradient3893);fill-opacity:1;stroke:none" />
    </clipPath>
    <filter
       color-interpolation-filters="sRGB"
       inkscape:collect="always"
       id="filter3909-6">
      <feGaussianBlur
         inkscape:collect="always"
         stdDeviation="0.43040059"
         id="feGaussianBlur3911-9" />
    </filter>
    <linearGradient
       inkscape:collect="always"
       xlink:href="#linearGradient3897-7"
       id="linearGradient3895-3"
       gradientUnits="userSpaceOnUse"
       gradientTransform="matrix(1.3459172,0,0,1.3459172,-38.154591,-38.469319)"
       x1="86.73793"
       y1="93.621468"
       x2="95.18235"
       y2="102.06589" />
    <linearGradient
       id="linearGradient3897-7">
      <stop
         style="stop-color:#fcfcfc;stop-opacity:1"
         offset="0"
         id="stop3899-4" />
      <stop
         id="stop3901-5"
         offset="0.52275378"
         style="stop-color:#f8f8f8;stop-opacity:1" />
      <stop
         style="stop-color:#f0efef;stop-opacity:1;"
         offset="0.72337759"
         id="stop3903-2" />
      <stop
         style="stop-color:#e3e1e1;stop-opacity:1;"
         offset="0.89024991"
         id="stop3905-5" />
      <stop
         style="stop-color:#cecbcb;stop-opacity:1"
         offset="1"
         id="stop3907-4" />
    </linearGradient>
    <clipPath
       clipPathUnits="userSpaceOnUse"
       id="clipPath6093-7">
      <path
         inkscape:connector-curvature="0"
         sodipodi:nodetypes="cccssccc"
         id="path6095-4"
         d="m 17.000001,8 0.782827,110 57.5,0 c 1.675283,0 3.119418,0.18058 4.9,-1.6 C 88.980763,107.60206 99.94047,96.548195 107.19904,89.224043 109.6396,86.761431 110,84.752873 110,82.5 L 110,8 z"
         style="fill:#ffffff;fill-opacity:1" />
    </clipPath>
    <filter
       color-interpolation-filters="sRGB"
       inkscape:collect="always"
       id="filter6118-4"
       x="-0.1126375"
       width="1.225275"
       y="-0.12064722"
       height="1.2412944">
      <feGaussianBlur
         inkscape:collect="always"
         stdDeviation="2.3860572"
         id="feGaussianBlur6120-3" />
    </filter>
    <radialGradient
       inkscape:collect="always"
       xlink:href="#linearGradient5982-7"
       id="radialGradient5988-0"
       cx="64"
       cy="64.004021"
       fx="63.793392"
       fy="47.274845"
       r="47.5"
       gradientTransform="matrix(1.6842105,-0.08429519,0.06886339,1.3758846,-48.197001,-18.66323)"
       gradientUnits="userSpaceOnUse" />
    <linearGradient
       inkscape:collect="always"
       id="linearGradient5982-7">
      <stop
         style="stop-color:#ffffff;stop-opacity:1;"
         offset="0"
         id="stop5984-8" />
      <stop
         style="stop-color:#ffffff;stop-opacity:0;"
         offset="1"
         id="stop5986-6" />
    </linearGradient>
    <filter
       color-interpolation-filters="sRGB"
       inkscape:collect="always"
       id="filter6171-8"
       x="-0.47870937"
       width="1.9574188"
       y="-0.51275069"
       height="2.0255013">
      <feGaussianBlur
         inkscape:collect="always"
         stdDeviation="10.140743"
         id="feGaussianBlur6173-8" />
    </filter>
    <linearGradient
       inkscape:collect="always"
       xlink:href="#linearGradient4518-3"
       id="linearGradient4524-4"
       x1="72"
       y1="0"
       x2="72"
       y2="116.40091"
       gradientUnits="userSpaceOnUse"
       gradientTransform="translate(3.9208985e-7,2.7836914e-6)" />
    <linearGradient
       id="linearGradient4518-3">
      <stop
         style="stop-color:#eeecec;stop-opacity:1"
         offset="0"
         id="stop4520-1" />
      <stop
         id="stop5969-4"
         offset="0.40000001"
         style="stop-color:#f4f4f4;stop-opacity:1" />
      <stop
         style="stop-color:#f6f5f5;stop-opacity:1"
         offset="1"
         id="stop4522-9" />
    </linearGradient>
    <filter
       inkscape:collect="always"
       id="filter4111">
      <feGaussianBlur
         inkscape:collect="always"
         stdDeviation="1.5615"
         id="feGaussianBlur4113" />
    </filter>
    <filter
       inkscape:collect="always"
       id="filter4123">
      <feGaussianBlur
         inkscape:collect="always"
         stdDeviation="2.028"
         id="feGaussianBlur4125" />
    </filter>
    <clipPath
       clipPathUnits="userSpaceOnUse"
       id="clipPath4142">
      <path
         style="opacity:0.84653476;fill:url(#radialGradient4146);fill-opacity:1"
         d="m 18,8.5 c -0.339844,0 -0.5,0.2346178 -0.5,0.5 l 0,108.96875 c 0,0.82158 0.679323,1.49953 1.5,1.5 L 74,119.5 c 0.05307,3e-5 0.997884,-0.008 1.6875,5e-5 10.098603,-3.99538 25.4133,-22.453284 34.35853,-31.455094 1.47685,-1.656484 1.11385,-1.151317 1.45391,-2.888706 L 111.5,9 c 0,-0.3227174 -0.16322,-0.5 -0.5,-0.5 z"
         id="path4144"
         inkscape:connector-curvature="0"
         sodipodi:nodetypes="ccssscccccc" />
    </clipPath>
    <clipPath
       clipPathUnits="userSpaceOnUse"
       id="clipPath4019">
      <path
         style="opacity:0.84653476;fill:url(#radialGradient4023);fill-opacity:1"
         d="m 62.560462,10.000003 c -0.339844,0 -0.5,0.234618 -0.5,0.5 l 0,75.718279 c 0,0.82158 0.679326,1.497754 1.5,1.5 L 75,87.749582 c 0.05307,1.45e-4 3.273884,-0.008 3.9635,5e-5 6.540972,-4.50366 20.6373,-19.953327 29.58253,-28.955137 1.47685,-1.65649 0.4576,-0.37007 1.45391,-1.60746 L 110,10.500003 c 0,-0.322717 -0.16322,-0.5 -0.5,-0.5 z"
         id="path4021"
         inkscape:connector-curvature="0"
         sodipodi:nodetypes="ccssscccccc" />
    </clipPath>
  </defs>
  <sodipodi:namedview
     id="base"
     pagecolor="#ffffff"
     bordercolor="#666666"
     borderopacity="1.0"
     inkscape:pageopacity="0.0"
     inkscape:pageshadow="2"
     inkscape:zoom="5.6568542"
     inkscape:cx="57.436587"
     inkscape:cy="21.63005"
     inkscape:document-units="px"
     inkscape:current-layer="layer1"
     width="128px"
     height="128px"
     showgrid="true"
     inkscape:grid-points="true"
     showguides="true"
     inkscape:guide-bbox="true"
     inkscape:window-width="1224"
     inkscape:window-height="757"
     inkscape:window-x="161"
     inkscape:window-y="240"
     inkscape:snap-global="true"
     inkscape:window-maximized="0"
     inkscape:snap-page="true">
    <inkscape:grid
       id="GridFromPre046Settings"
       type="xygrid"
       originx="0px"
       originy="0px"
       spacingx="2.6666px"
       spacingy="2.6666px"
       color="#0000ff"
       empcolor="#0000ff"
       opacity="0.2"
       empopacity="0.4"
       empspacing="2"
       visible="true"
       enabled="true"
       snapvisiblegridlinesonly="true" />
    <sodipodi:guide
       orientation="1,0"
       position="-68,29.325902"
       id="guide4564" />
    <sodipodi:guide
       orientation="1,0"
       position="-121.62237,135.0574"
       id="guide3859" />
    <sodipodi:guide
       orientation="0,1"
       position="38.581514,-74.688154"
       id="guide4360" />
  </sodipodi:namedview>
  <metadata
     id="metadata2611">
    <rdf:RDF>
      <cc:Work
         rdf:about="">
        <dc:format>image/svg+xml</dc:format>
        <dc:type
           rdf:resource="http://purl.org/dc/dcmitype/StillImage" />
        <dc:title></dc:title>
      </cc:Work>
    </rdf:RDF>
  </metadata>
  <g
     inkscape:label="Livello 1"
     inkscape:groupmode="layer"
     id="layer1">
    <path
       style="opacity:0.45606695;fill:#000000;fill-opacity:1;filter:url(#filter4123)"
       d="m 13.333,5.3364 0,117.8304 49.8545,0.4332 c 2.115476,0.0184 4.528919,-1.77169 7,-4.25 0.71234,-0.71442 1.440746,-1.39395 2.15625,-2.09375 0.415612,-0.40649 0.832187,-0.81443 1.25,-1.21875 7.773958,-7.40962 26.98341,-25.122599 34.21875,-33.099999 0.42065,-0.42064 0.81207,-0.8111 1.15625,-1.1875 1.46444,-1.49766 2.76158,-2.8378 2.99375,-5.8625 L 112,75.156251 111.9972,5.3364 z"
       id="path5990"
       inkscape:connector-curvature="0"
       sodipodi:nodetypes="ccsssccccccc" />
    <text
       clip-path="url(#clipPath4019)"
       xml:space="preserve"
       style="font-size:6.86785936px;font-style:normal;font-variant:normal;font-weight:normal;font-stretch:normal;text-align:start;line-height:150%;letter-spacing:-0.43496445px;word-spacing:0px;writing-mode:lr-tb;text-anchor:start;opacity:0.58995816;fill:#000000;fill-opacity:0.45414848;stroke:none;font-family:Courier New;-inkscape-font-specification:Courier New"
       x="21.264374"
       y="10.926353"
       id="text3161"
       sodipodi:linespacing="150%"
       transform="matrix(1.5206377,0,0,1.5206377,-79.727985,-15.536382)"><tspan
         sodipodi:role="line"
         x="21.264374"
         y="10.926353"
         id="tspan3164">   </tspan><tspan
         sodipodi:role="line"
         x="21.264374"
         y="21.228142"
         id="tspan3166">0000:0000 | 4F 20 70 6F  65 74 61 20 | O poeta </tspan><tspan
         id="tspan3168"
         sodipodi:role="line"
         x="21.264374"
         y="31.529932">0000:0008 | 65 20 75 6D  20 66 69 6E | e um fin</tspan><tspan
         id="tspan3170"
         sodipodi:role="line"
         x="21.264374"
         y="41.831722">0000:0010 | 67 69 64 6F  72 20 46 69 | gidor Fi</tspan><tspan
         id="tspan3172"
         sodipodi:role="line"
         x="21.264374"
         y="52.133511">0000:0018 | 6E 67 65 20  74 61 6F 20 | nge tao </tspan><tspan
         id="tspan3174"
         sodipodi:role="line"
         x="21.264374"
         y="62.435299">0000:0020 | 63 6F 6D 70  6C 65 74 61 | completa</tspan><tspan
         id="tspan3176"
         sodipodi:role="line"
         x="21.264374"
         y="72.737091">0000:0028 | 6D 65 6E 74  65 20 71 75 | mente qu</tspan><tspan
         id="tspan3178"
         sodipodi:role="line"
         x="21.264374"
         y="83.038879">0000:0030 | 65 20 63 68  65 67 61 20 | e chega </tspan><tspan
         id="tspan3180"
         sodipodi:role="line"
         x="21.264374"
         y="93.340668">0000:0038 | 61 20 66 69  6E 67 69 72 | a fingir</tspan><tspan
         id="tspan3182"
         sodipodi:role="line"
         x="21.264374"
         y="103.64246">0000:0040 | 20 71 75 65  20 65 20 64 |  que e d</tspan><tspan
         id="tspan3184"
         sodipodi:role="line"
         x="21.264374"
         y="113.94424">0000:0048 | 6F 72 20 61  20 64 6F 72 | or a dor</tspan><tspan
         id="tspan3186"
         sodipodi:role="line"
         x="21.264374"
         y="124.24603">0000:0050 | 20 71 75 65  20 64 65 76 |  que dev</tspan><tspan
         id="tspan3188"
         sodipodi:role="line"
         x="21.264374"
         y="134.54782">0000:0058 | 65 72 61 73  20 73 65 6E | eras sen</tspan><tspan
         id="tspan3190"
         sodipodi:role="line"
         x="21.264374"
         y="144.84961">0000:0060 | 74 65 2E 20  20 20 20 20 | te.     </tspan><tspan
         id="tspan3192"
         sodipodi:role="line"
         x="21.264374"
         y="155.1514">0000:0068 | 46 65 72 6E  61 64 6F 20 | Fernado </tspan><tspan
         sodipodi:role="line"
         x="21.264374"
         y="165.45319"
         id="tspan3194">0000:0070 | 50 65 73 73  6F 61 20 20 | Pessoa  </tspan><tspan
         sodipodi:role="line"
         x="21.264374"
         y="175.75497"
         id="tspan3196" /><tspan
         sodipodi:role="line"
         x="21.264374"
         y="186.05676"
         id="tspan3198">   </tspan></text>
    <path
       sodipodi:nodetypes="cccccccc"
       id="path3722"
       d="m 13.333,5.3364 0,118.3304 49.3318,0.3 c 1.527964,0 3.65713,-0.98408 6.387944,-2.83388 C 82.175824,111.57445 97.49744,91.890146 108.75009,80.500071 110.49334,78.756821 112,77.462561 112,73.300001 L 111.9972,5.3364 z"
       style="fill:#000000;fill-opacity:0.84716159;filter:url(#filter4111)"
       inkscape:connector-curvature="0" />
    <path
       style="fill:#ffffff;fill-opacity:1"
       d="m 13.333,5.3364 0,117.3304 49.3318,0 c 1.675283,0 3.914297,-0.56468 7,-3.6 8.870045,-8.72523 32.07567,-31.518599 39.33424,-38.842759 C 111.4396,77.761431 112,75.752871 112,73.500001 L 111.9972,5.3364 z"
       id="path34"
       sodipodi:nodetypes="cccssccc"
       inkscape:connector-curvature="0" />
    <path
       style="fill:url(#linearGradient4524-4);fill-opacity:1"
       d="m 16.5,8.000003 c -0.339844,0 -0.5,0.234618 -0.5,0.5 l 0,109.968747 c 0,0.82158 0.679323,1.5 1.5,1.5 l 48.6875,0 c 0.05308,0 0.810384,0.0234 1.5,0.0313 1.777664,-0.0401 3.131974,-0.75374 4.356035,-1.59328 1.051866,-0.29103 25.980435,-26.619589 35.101555,-35.809239 1.36239,-1.37262 2.18546,-3.94817 2.18546,-4.89561 l 5e-5,-69.201918 c 0,-0.322717 -0.16322,-0.5 -0.5,-0.5 z"
       id="path3967"
       inkscape:connector-curvature="0"
       sodipodi:nodetypes="ccsssccscccc" />
    <path
       sodipodi:nodetypes="ccssscccccc"
       inkscape:connector-curvature="0"
       id="path5980"
       d="m 16.5,8.000003 c -0.339844,0 -0.5,0.234618 -0.5,0.5 l 0,109.968747 c 0,0.82158 0.679323,1.49946 1.5,1.5 l 47.5,0.0313 c 0.05308,3e-5 3.273884,-0.008 3.9635,5e-5 6.540972,-4.50366 29.9679,-28.953329 38.91313,-37.955139 1.47685,-1.65649 0.4576,-0.37007 1.45391,-1.60746 l 6e-5,-71.937498 c 0,-0.322717 -0.16322,-0.5 -0.5,-0.5 z"
       style="opacity:0.84653476;fill:url(#radialGradient5988-0);fill-opacity:1" />
    <path
       style="fill:#000000"
       d=""
       id="path2197" />
    <path
       clip-path="url(#clipPath6093-7)"
       style="opacity:0.34728035;fill:#000000;fill-opacity:1;stroke:none;filter:url(#filter6171-8)"
       d="m 114.4,82.502986 c 0,4.465301 -4.99749,5.909952 -7.47972,7.593625 -5.10854,3.46508 -18.362065,-1.446073 -24.143235,-1.365053 -0.081,5.781159 3.371639,20.976032 -0.09344,26.084572 -1.68367,2.48224 -5.573338,8.68687 -8.483608,8.68687 -2.091359,1.5337 3.488204,8.21101 6.734971,5.31989 9.501888,-8.46107 35.131683,-30.022704 43.350823,-39.262889 2.04044,-2.29392 -4.90514,-9.844666 -9.88579,-7.057015 z"
       id="path6153"
       inkscape:connector-curvature="0"
       sodipodi:nodetypes="cscscssc"
       transform="matrix(1.2774204,0,0,1.2774204,-31.076286,-28.013102)" />
    <path
       sodipodi:nodetypes="cscscssc"
       inkscape:connector-curvature="0"
       id="path6081"
       d="m 113.9,82.502986 c 0,4.465301 -5.09749,6.009952 -7.57972,7.693625 -5.10854,3.46508 -16.139114,2.12536 -21.920284,2.20638 -0.081,5.781159 1.66586,17.304599 -1.79922,22.413139 -1.68367,2.48224 -4.69051,7.98687 -7.60078,7.98687 -2.091359,1.5337 3.488204,11.21101 6.734971,8.31989 9.501888,-8.46107 45.998943,-30.20138 54.218083,-39.441569 2.04044,-2.29392 -17.0724,-11.965986 -22.05305,-9.178335 z"
       style="opacity:0.40099009;fill:#000000;fill-opacity:1;stroke:none;filter:url(#filter6118-4)"
       clip-path="url(#clipPath6093-7)"
       transform="matrix(1.3299764,0,0,1.3299764,-36.963543,-37.156423)" />
    <g
       style="font-size:30px;font-style:normal;font-variant:normal;font-weight:normal;font-stretch:normal;line-height:125%;letter-spacing:0px;word-spacing:0px;fill:#131313;fill-opacity:0.70742355;stroke:none;font-family:Swis721 Lt BT;-inkscape-font-specification:Swis721 Lt BT"
       id="text4113"
       transform="matrix(1.382823,0,0,1.382823,-48.259259,-34.30752)">
      <path
         d="m 50.506836,102 0,-21.577148 1.831055,0 0,8.4375 c 0.576167,-0.927721 1.29394,-1.630845 2.15332,-2.109375 0.859368,-0.4785 1.199735,-0.717758 2.32279,-0.717774 1.035146,1.6e-5 1.818247,0.195328 2.638571,0.585938 0.8203,0.39064 1.445299,0.927748 1.875,1.611328 0.224595,0.371107 0.385728,0.825208 0.483398,1.362304 0.09764,0.537122 0.14647,1.513683 0.146485,2.929688 l 0,9.477539 -1.831055,0 0,-9.448242 c 0,-1.943348 -0.278332,-3.242175 -0.834961,-3.896485 -0.556652,-0.664048 -1.40323,-0.996079 -2.829001,-0.996093 -1.455085,1.4e-5 -1.96635,0.468764 -2.835485,1.40625 -0.859379,0.927746 -1.289066,2.177745 -1.289062,3.75 l 0,9.18457 -1.831055,0"
         style="fill:#131313;fill-opacity:0.70742355"
         id="path4118"
         inkscape:connector-curvature="0"
         sodipodi:nodetypes="ccccccccccccscccscc" />
      <path
         d="m 67.068834,94.341646 0,0.08789 c 0,1.904303 0.458981,3.422856 1.376953,4.555664 0.917964,1.12305 2.148431,1.68457 3.691407,1.68457 1.220693,0 2.2412,-0.32715 3.061523,-0.981445 0.8203,-0.664059 1.318347,-1.567379 1.494141,-2.709961 l 1.801757,0 c -0.195326,1.582035 -0.878919,2.851568 -2.050781,3.808596 -1.171886,0.94726 -2.646494,1.42089 -4.423828,1.42089 -2.119146,0 -3.779301,-0.71777 -4.980469,-2.15332 -1.201173,-1.435537 -1.801759,-3.427723 -1.801758,-5.976556 -10e-7,-2.597646 0.600585,-4.624011 1.801758,-6.079102 1.210934,-1.455063 2.890619,-2.182601 5.039063,-2.182617 2.089833,1.6e-5 3.715808,0.698258 4.877929,2.094727 1.171861,1.386731 1.757813,3.330088 1.757813,5.830078 l 0,0.600586 -11.645508,0 m 0.0293,-1.450196 9.755859,0.01465 c -0.07814,-1.71874 -0.546887,-3.066394 -1.40625,-4.042969 -0.84962,-0.986314 -1.982431,-1.479478 -3.398437,-1.479492 -1.425788,1.4e-5 -2.587896,0.498061 -3.486328,1.494141 -0.888676,0.996105 -1.376956,2.333995 -1.464844,4.013671"
         style="fill:#131313;fill-opacity:0.70742355"
         id="path4120"
         inkscape:connector-curvature="0"
         sodipodi:nodetypes="cscsccccssscccscccccccc" />
      <path
         d="m 80.609375,102 5.463867,-7.983398 -5.229492,-7.587891 2.255859,0 4.086914,6.210937 4.013672,-6.210937 2.182617,0 -5.097656,7.558594 L 93.954102,102 91.683594,102 87.21582,95.393555 82.762695,102 l -2.15332,0"
         style="fill:#131313;fill-opacity:0.70742355"
         id="path4122"
         inkscape:connector-curvature="0" />
    </g>
    <path
       style="fill:url(#linearGradient3895-3);fill-opacity:1;stroke:none"
       d="m 111.99381,72.570604 c 0,5.938743 -3.72059,8.525082 -7.0219,10.764323 -6.794238,4.608475 -19.95169,4.558319 -27.64051,4.666073 -0.107728,7.688805 0.303611,20.48508 -4.304863,27.27932 -2.239241,3.30132 -7.036253,7.16441 -10.906844,7.16441 3.082925,0 6.307865,-1.7752 10.086567,-5.4327 12.158605,-11.76861 23.097887,-21.459634 34.14469,-33.645117 2.55216,-2.815215 5.64286,-4.843615 5.64286,-10.796309 z"
       id="path6011"
       inkscape:connector-curvature="0"
       sodipodi:nodetypes="cscscssc" />
    <path
       style="fill:#ffffff;fill-opacity:1;stroke:none"
       d="m 112.01875,73.115242 c -0.42084,5.185724 -5.08438,7.318602 -8.17936,9.417895 C 98.818947,85.938464 82.6646,85.3344 74.6648,85.3344 c 0,7.9998 1.619153,23.49711 -2.7864,30.22372 -1.912401,2.91993 -4.654194,5.79882 -8.19598,6.58338 2.633964,-0.48185 5.299865,-2.47561 8.470288,-5.54435 0.451018,-0.51674 0.763801,-0.90298 1.471286,-1.99496 4.608475,-6.79423 4.099678,-18.412383 4.207406,-26.10119 7.68882,-0.107728 20.028368,-0.145785 26.8226,-4.754259 0.619,-0.41986 2.51897,-1.313671 3.06727,-1.861967 2.04322,-2.043229 3.9922,-4.273773 4.29748,-8.769532 z M 63.68242,122.1415 c -0.209681,0.0464 -0.416863,0.0551 -0.623426,0.0831 0.208794,-0.0225 0.412882,-0.0446 0.623426,-0.0831 z"
       id="path6122"
       inkscape:connector-curvature="0"
       sodipodi:nodetypes="cscsccccsscccc" />
    <path
       style="fill:none;stroke:url(#radialGradient3919-5);stroke-width:1.20000005;stroke-linecap:butt;stroke-linejoin:miter;stroke-miterlimit:4;stroke-opacity:1;stroke-dasharray:none;filter:url(#filter3909-6)"
       d="M 117.31456,81.861283 72.639105,125.34835"
       id="path3873"
       inkscape:connector-curvature="0"
       sodipodi:nodetypes="cc"
       clip-path="url(#clipPath3889-6)"
       transform="matrix(1.3299764,0,0,1.3299764,-36.963543,-37.156423)" />
    <text
       transform="matrix(1.5206377,0,0,1.5206377,-79.727985,-15.536382)"
       sodipodi:linespacing="150%"
       id="text3137"
       y="10.926353"
       x="21.264374"
       style="font-size:6.86785936px;font-style:normal;font-variant:normal;font-weight:normal;font-stretch:normal;text-align:start;line-height:150%;letter-spacing:-0.43496445px;word-spacing:0px;writing-mode:lr-tb;text-anchor:start;opacity:0.58995816;fill:#000000;fill-opacity:0.45414848;stroke:none;font-family:Courier New;-inkscape-font-specification:Courier New"
       xml:space="preserve"
       clip-path="url(#clipPath4019)"><tspan
         id="tspan3139"
         y="10.926353"
         x="21.264374"
         sodipodi:role="line">   </tspan><tspan
         id="tspan3141"
         y="21.228142"
         x="21.264374"
         sodipodi:role="line">0000:0000 | 4F 20 70 6F  65 74 61 20 | O poeta </tspan><tspan
         y="31.529932"
         x="21.264374"
         sodipodi:role="line"
         id="tspan3143">0000:0008 | 65 20 75 6D  20 66 69 6E | e um fin</tspan><tspan
         y="41.831722"
         x="21.264374"
         sodipodi:role="line"
         id="tspan3145">0000:0010 | 67 69 64 6F  72 20 46 69 | gidor Fi</tspan><tspan
         y="52.133511"
         x="21.264374"
         sodipodi:role="line"
         id="tspan3147">0000:0018 | 6E 67 65 20  74 61 6F 20 | nge tao </tspan><tspan
         y="62.435299"
         x="21.264374"
         sodipodi:role="line"
         id="tspan3149">0000:0020 | 63 6F 6D 70  6C 65 74 61 | completa</tspan><tspan
         y="72.737091"
         x="21.264374"
         sodipodi:role="line"
         id="tspan3151">0000:0028 | 6D 65 6E 74  65 20 71 75 | mente qu</tspan><tspan
         y="83.038879"
         x="21.264374"
         sodipodi:role="line"
         id="tspan3153">0000:0030 | 65 20 63 68  65 67 61 20 | e chega </tspan><tspan
         y="93.340668"
         x="21.264374"
         sodipodi:role="line"
         id="tspan3155">0000:0038 | 61 20 66 69  6E 67 69 72 | a fingir</tspan><tspan
         y="103.64246"
         x="21.264374"
         sodipodi:role="line"
         id="tspan3157">0000:0040 | 20 71 75 65  20 65 20 64 |  que e d</tspan><tspan
         y="113.94424"
         x="21.264374"
         sodipodi:role="line"
         id="tspan3159">0000:0048 | 6F 72 20 61  20 64 6F 72 | or a dor</tspan><tspan
         y="124.24603"
         x="21.264374"
         sodipodi:role="line"
         id="tspan3161">0000:0050 | 20 71 75 65  20 64 65 76 |  que dev</tspan><tspan
         y="134.54782"
         x="21.264374"
         sodipodi:role="line"
         id="tspan3163">0000:0058 | 65 72 61 73  20 73 65 6E | eras sen</tspan><tspan
         y="144.84961"
         x="21.264374"
         sodipodi:role="line"
         id="tspan3165">0000:0060 | 74 65 2E 20  20 20 20 20 | te.     </tspan><tspan
         y="155.1514"
         x="21.264374"
         sodipodi:role="line"
         id="tspan3167">0000:0068 | 46 65 72 6E  61 64 6F 20 | Fernado </tspan><tspan
         id="tspan3169"
         y="165.45319"
         x="21.264374"
         sodipodi:role="line">0000:0070 | 50 65 73 73  6F 61 20 20 | Pessoa  </tspan><tspan
         id="tspan3171"
         y="175.75497"
         x="21.264374"
         sodipodi:role="line" /><tspan
         id="tspan3173"
         y="186.05676"
         x="21.264374"
         sodipodi:role="line">   </tspan></text>
  </g>
</svg>
