<?xml version="1.0" encoding="UTF-8" standalone="no"?>
<!-- Created with Inkscape (http://www.inkscape.org/) -->

<svg
   xmlns:dc="http://purl.org/dc/elements/1.1/"
   xmlns:cc="http://creativecommons.org/ns#"
   xmlns:rdf="http://www.w3.org/1999/02/22-rdf-syntax-ns#"
   xmlns:svg="http://www.w3.org/2000/svg"
   xmlns="http://www.w3.org/2000/svg"
   xmlns:xlink="http://www.w3.org/1999/xlink"
   xmlns:sodipodi="http://sodipodi.sourceforge.net/DTD/sodipodi-0.dtd"
   xmlns:inkscape="http://www.inkscape.org/namespaces/inkscape"
   width="128"
   height="128"
   id="svg3408"
   sodipodi:version="0.32"
   inkscape:version="0.46+devel"
   version="1.0"
   sodipodi:docname="text-field.svgz"
   inkscape:output_extension="org.inkscape.output.svgz.inkscape"
   inkscape:export-filename="/home/pinheiro/pics/oxygen-icons/scalable/actions/small/16x16/text-field.png"
   inkscape:export-xdpi="67.5"
   inkscape:export-ydpi="67.5">
  <defs
     id="defs3410">
    <inkscape:perspective
       sodipodi:type="inkscape:persp3d"
       inkscape:vp_x="0 : 64 : 1"
       inkscape:vp_y="0 : 1000 : 0"
       inkscape:vp_z="128 : 64 : 1"
       inkscape:persp3d-origin="64 : 42.666667 : 1"
       id="perspective17" />
    <linearGradient
       id="linearGradient2602">
      <stop
         style="stop-color:#0968ef;stop-opacity:1;"
         offset="0"
         id="stop2604" />
      <stop
         style="stop-color:#aecffc;stop-opacity:1;"
         offset="1"
         id="stop2606" />
    </linearGradient>
    <linearGradient
       inkscape:collect="always"
       xlink:href="#linearGradient2602"
       id="linearGradient2806"
       gradientUnits="userSpaceOnUse"
       x1="55.154331"
       y1="43.77602"
       x2="55.154331"
       y2="5.2079296"
       gradientTransform="matrix(0.93776984,0,0,0.94746273,2.8712222,3.15582)" />
    <linearGradient
       inkscape:collect="always"
       xlink:href="#linearGradient2602"
       id="linearGradient3609"
       gradientUnits="userSpaceOnUse"
       gradientTransform="matrix(0.93776984,0,0,0.94746273,2.8712222,3.15582)"
       x1="55.154331"
       y1="43.77602"
       x2="55.154331"
       y2="5.2079296" />
    <linearGradient
       inkscape:collect="always"
       xlink:href="#linearGradient2602"
       id="linearGradient3618"
       gradientUnits="userSpaceOnUse"
       gradientTransform="matrix(0.93776984,0,0,0.94746273,2.8712222,5.85582)"
       x1="55.154331"
       y1="43.77602"
       x2="55.154331"
       y2="5.2079296" />
  </defs>
  <sodipodi:namedview
     id="base"
     pagecolor="#ffffff"
     bordercolor="#666666"
     borderopacity="1.0"
     inkscape:pageopacity="0.0"
     inkscape:pageshadow="2"
     inkscape:zoom="4"
     inkscape:cx="52.29707"
     inkscape:cy="94.690907"
     inkscape:document-units="px"
     inkscape:current-layer="layer1"
     height="128px"
     width="128px"
     showborder="true"
     inkscape:showpageshadow="false"
     showgrid="true"
     inkscape:window-width="1039"
     inkscape:window-height="810"
     inkscape:window-x="242"
     inkscape:window-y="201"
     showguides="true"
     inkscape:guide-bbox="true">
    <inkscape:grid
       id="GridFromPre046Settings"
       type="xygrid"
       originx="0px"
       originy="0px"
       spacingx="5.8181px"
       spacingy="5.8181px"
       color="#0000ff"
       empcolor="#0000ff"
       opacity="0.2"
       empopacity="0.4"
       empspacing="2"
       visible="true"
       enabled="true" />
  </sodipodi:namedview>
  <metadata
     id="metadata3413">
    <rdf:RDF>
      <cc:Work
         rdf:about="">
        <dc:format>image/svg+xml</dc:format>
        <dc:type
           rdf:resource="http://purl.org/dc/dcmitype/StillImage" />
        <dc:title></dc:title>
      </cc:Work>
    </rdf:RDF>
  </metadata>
  <g
     inkscape:label="Livello 1"
     inkscape:groupmode="layer"
     id="layer1">
    <path
       style="font-size:77.88851929px;font-style:normal;font-weight:normal;fill:#000000;fill-opacity:1;stroke:none;font-family:Liberation Sans"
       d="m 29.3326,66.7016 0.01973,-2.123224 5.313473,-0.543376 0,-26.666 -7.884869,0.42278 -0.798779,5.477158 -1.982155,0 0,-8.568938 26.665403,0 -3e-6,8.568938 -2.011739,0 L 47.854884,37.79178 39.999,37.369 l 0,26.666 5.352923,0.543376 -0.01972,2.123224 -15.9996,0"
       id="text3391"
       sodipodi:nodetypes="ccccccccccccccccc" />
    <rect
       y="-80.033203"
       x="24.000002"
       height="2.6652"
       width="79.997398"
       id="rect3854"
       style="fill:#8b8b8b;fill-opacity:1;stroke:none"
       transform="scale(1,-1)" />
    <path
       style="font-size:medium;font-style:normal;font-variant:normal;font-weight:normal;font-stretch:normal;text-indent:0;text-align:start;text-decoration:none;line-height:normal;letter-spacing:normal;word-spacing:normal;text-transform:none;direction:ltr;block-progression:tb;writing-mode:lr-tb;text-anchor:start;color:#000000;fill:url(#linearGradient3618);fill-opacity:1;stroke:none;stroke-width:4;marker:none;visibility:visible;display:inline;overflow:visible;enable-background:accumulate;font-family:Bitstream Vera Sans;-inkscape-font-specification:Bitstream Vera Sans"
       d="m 14.46875,24.10625 c -0.531396,0.06762 -1.03359,0.639186 -1.03125,1.1875 l 0,77.50625 c 5.9e-5,0.58035 0.631388,1.21869 1.1875,1.21875 l 98.75,-0.025 c 0.57067,-6e-5 1.18744,-0.60715 1.1875,-1.1875 l 0,-77.5125 c -6e-5,-0.580354 -0.61683,-1.187442 -1.1875,-1.1875 l -98.75,0 c -0.01042,2.37e-4 -0.02083,2.37e-4 -0.03125,0 -0.02428,-0.0012 -0.06249,-5.8e-4 -0.09375,0 -0.01042,1.93e-4 -0.02316,-3.87e-4 -0.03125,0 z M 16.375,26.5125 c 0.04155,-0.0038 0.08345,-0.0038 0.125,0 l 95,0 c 0.36012,-5.25e-4 0.68803,0.327383 0.6875,0.6875 l 0,73.7 c 5.3e-4,0.36012 -0.32738,0.68803 -0.6875,0.6875 l -95,0.025 c -0.360117,5.3e-4 -0.688025,-0.32738 -0.6875,-0.6875 l 0,-73.725 c -0.0058,-0.321966 0.24577,-0.629387 0.5625,-0.6875 z"
       id="path3607"
       sodipodi:nodetypes="cccccccccssccccccccccc" />
    <rect
       y="88.034401"
       x="23.999399"
       height="2.6666021"
       width="79.998001"
       id="rect3580"
       style="fill:#8b8b8b;fill-opacity:1;stroke:none" />
    <rect
       transform="scale(1,-1)"
       style="fill:#8b8b8b;fill-opacity:1;stroke:none"
       id="rect3582"
       width="45.332199"
       height="2.6666021"
       x="58.665199"
       y="-69.36821" />
    <rect
       y="-58.701805"
       x="58.665199"
       height="2.6666021"
       width="45.332199"
       id="rect3612"
       style="fill:#8b8b8b;fill-opacity:1;stroke:none"
       transform="scale(1,-1)" />
    <rect
       transform="scale(1,-1)"
       style="fill:#8b8b8b;fill-opacity:1;stroke:none"
       id="rect3614"
       width="45.332199"
       height="2.6666021"
       x="58.665199"
       y="-37.369007" />
    <rect
       y="-48.035404"
       x="58.665199"
       height="2.6666021"
       width="45.332199"
       id="rect3616"
       style="fill:#8b8b8b;fill-opacity:1;stroke:none"
       transform="scale(1,-1)" />
  </g>
</svg>
