<?xml version="1.0" encoding="UTF-8" standalone="no"?>
<!-- Created with Inkscape (http://www.inkscape.org/) -->

<svg
   xmlns:dc="http://purl.org/dc/elements/1.1/"
   xmlns:cc="http://creativecommons.org/ns#"
   xmlns:rdf="http://www.w3.org/1999/02/22-rdf-syntax-ns#"
   xmlns:svg="http://www.w3.org/2000/svg"
   xmlns="http://www.w3.org/2000/svg"
   xmlns:xlink="http://www.w3.org/1999/xlink"
   xmlns:sodipodi="http://sodipodi.sourceforge.net/DTD/sodipodi-0.dtd"
   xmlns:inkscape="http://www.inkscape.org/namespaces/inkscape"
   width="128"
   height="128"
   id="svg2606"
   sodipodi:version="0.32"
   inkscape:version="0.48.0 r9654"
   version="1.0"
   sodipodi:docname="mime2.svgz"
   inkscape:output_extension="org.inkscape.output.svgz.inkscape"
   inkscape:export-filename="/home/pinheiro/pics/oxygen-icons/scalable/mimetypes/small/48x48/mime2.png"
   inkscape:export-xdpi="135"
   inkscape:export-ydpi="135">
  <defs
     id="defs2608">
    <linearGradient
       id="linearGradient6131">
      <stop
         id="stop6133"
         offset="0"
         style="stop-color:#fcfcfc;stop-opacity:1" />
      <stop
         style="stop-color:#f8f8f8;stop-opacity:1"
         offset="0.52275378"
         id="stop6135" />
      <stop
         id="stop6141"
         offset="0.77457333"
         style="stop-color:#f0efef;stop-opacity:1;" />
      <stop
         id="stop6139"
         offset="0.90122044"
         style="stop-color:#e3e1e1;stop-opacity:1;" />
      <stop
         id="stop6137"
         offset="1"
         style="stop-color:#cecbcb;stop-opacity:1" />
    </linearGradient>
    <linearGradient
       inkscape:collect="always"
       xlink:href="#linearGradient6131"
       id="linearGradient3893"
       gradientUnits="userSpaceOnUse"
       gradientTransform="matrix(1.0119858,0,0,1.0119858,-0.89554075,-0.9871566)"
       x1="86.73793"
       y1="93.621468"
       x2="95.460213"
       y2="102.34375" />
    <radialGradient
       inkscape:collect="always"
       xlink:href="#linearGradient3913-5"
       id="radialGradient3919-5"
       cx="90.75"
       cy="110.25299"
       fx="90.75"
       fy="110.25299"
       r="18.750002"
       gradientTransform="matrix(1.3067347,0,0,1.3067347,-27.83617,-33.818441)"
       gradientUnits="userSpaceOnUse" />
    <linearGradient
       inkscape:collect="always"
       id="linearGradient3913-5">
      <stop
         style="stop-color:#ffffff;stop-opacity:1;"
         offset="0"
         id="stop3915-4" />
      <stop
         style="stop-color:#ffffff;stop-opacity:0;"
         offset="1"
         id="stop3917-7" />
    </linearGradient>
    <clipPath
       clipPathUnits="userSpaceOnUse"
       id="clipPath3889-6">
      <path
         sodipodi:nodetypes="cscscssc"
         inkscape:connector-curvature="0"
         id="path3891-5"
         d="m 112,82.502986 c 0,4.465301 -2.79749,6.409952 -5.27972,8.093625 -5.10854,3.46508 -14.939114,3.32536 -20.720284,3.40638 -0.081,5.781159 0.16586,15.504599 -3.29922,20.613139 -1.68367,2.48224 -5.29051,5.38687 -8.20078,5.38687 2.31803,0 4.74284,-1.33476 7.58402,-4.08481 9.14197,-8.84873 17.36714,-16.13535 25.673154,-25.297529 C 109.67612,88.503916 112,86.97878 112,82.502986 z"
         style="fill:url(#linearGradient3893);fill-opacity:1;stroke:none" />
    </clipPath>
    <filter
       color-interpolation-filters="sRGB"
       inkscape:collect="always"
       id="filter3909-6">
      <feGaussianBlur
         inkscape:collect="always"
         stdDeviation="0.43040059"
         id="feGaussianBlur3911-9" />
    </filter>
    <linearGradient
       inkscape:collect="always"
       xlink:href="#linearGradient3897-7"
       id="linearGradient3895-3"
       gradientUnits="userSpaceOnUse"
       gradientTransform="matrix(1.3459172,0,0,1.3459172,-38.154591,-38.469319)"
       x1="86.73793"
       y1="93.621468"
       x2="95.18235"
       y2="102.06589" />
    <linearGradient
       id="linearGradient3897-7">
      <stop
         style="stop-color:#fcfcfc;stop-opacity:1"
         offset="0"
         id="stop3899-4" />
      <stop
         id="stop3901-5"
         offset="0.52275378"
         style="stop-color:#f8f8f8;stop-opacity:1" />
      <stop
         style="stop-color:#f0efef;stop-opacity:1;"
         offset="0.72337759"
         id="stop3903-2" />
      <stop
         style="stop-color:#e3e1e1;stop-opacity:1;"
         offset="0.89024991"
         id="stop3905-5" />
      <stop
         style="stop-color:#cecbcb;stop-opacity:1"
         offset="1"
         id="stop3907-4" />
    </linearGradient>
    <clipPath
       clipPathUnits="userSpaceOnUse"
       id="clipPath6093-7">
      <path
         inkscape:connector-curvature="0"
         sodipodi:nodetypes="cccssccc"
         id="path6095-4"
         d="m 17.000001,8 0.782827,110 57.5,0 c 1.675283,0 3.119418,0.18058 4.9,-1.6 C 88.980763,107.60206 99.94047,96.548195 107.19904,89.224043 109.6396,86.761431 110,84.752873 110,82.5 L 110,8 z"
         style="fill:#ffffff;fill-opacity:1" />
    </clipPath>
    <filter
       color-interpolation-filters="sRGB"
       inkscape:collect="always"
       id="filter6118-4"
       x="-0.1126375"
       width="1.225275"
       y="-0.12064722"
       height="1.2412944">
      <feGaussianBlur
         inkscape:collect="always"
         stdDeviation="2.3860572"
         id="feGaussianBlur6120-3" />
    </filter>
    <radialGradient
       inkscape:collect="always"
       xlink:href="#linearGradient5982-7"
       id="radialGradient5988-0"
       cx="64"
       cy="64.004021"
       fx="63.793392"
       fy="47.274845"
       r="47.5"
       gradientTransform="matrix(1.6842105,-0.08429519,0.06886339,1.3758846,-48.197001,-18.66323)"
       gradientUnits="userSpaceOnUse" />
    <linearGradient
       inkscape:collect="always"
       id="linearGradient5982-7">
      <stop
         style="stop-color:#ffffff;stop-opacity:1;"
         offset="0"
         id="stop5984-8" />
      <stop
         style="stop-color:#ffffff;stop-opacity:0;"
         offset="1"
         id="stop5986-6" />
    </linearGradient>
    <filter
       color-interpolation-filters="sRGB"
       inkscape:collect="always"
       id="filter6171-8"
       x="-0.47870937"
       width="1.9574188"
       y="-0.51275069"
       height="2.0255013">
      <feGaussianBlur
         inkscape:collect="always"
         stdDeviation="10.140743"
         id="feGaussianBlur6173-8" />
    </filter>
    <linearGradient
       inkscape:collect="always"
       xlink:href="#linearGradient4518-3"
       id="linearGradient4524-4"
       x1="72"
       y1="0"
       x2="72"
       y2="116.40091"
       gradientUnits="userSpaceOnUse"
       gradientTransform="translate(3.9208985e-7,2.7836914e-6)" />
    <linearGradient
       id="linearGradient4518-3">
      <stop
         style="stop-color:#eeecec;stop-opacity:1"
         offset="0"
         id="stop4520-1" />
      <stop
         id="stop5969-4"
         offset="0.40000001"
         style="stop-color:#f4f4f4;stop-opacity:1" />
      <stop
         style="stop-color:#f6f5f5;stop-opacity:1"
         offset="1"
         id="stop4522-9" />
    </linearGradient>
    <filter
       inkscape:collect="always"
       id="filter4111">
      <feGaussianBlur
         inkscape:collect="always"
         stdDeviation="1.5615"
         id="feGaussianBlur4113" />
    </filter>
    <filter
       inkscape:collect="always"
       id="filter4123">
      <feGaussianBlur
         inkscape:collect="always"
         stdDeviation="2.028"
         id="feGaussianBlur4125" />
    </filter>
    <filter
       color-interpolation-filters="sRGB"
       inkscape:collect="always"
       id="filter4015">
      <feGaussianBlur
         inkscape:collect="always"
         stdDeviation="0.5498323"
         id="feGaussianBlur4017" />
    </filter>
    <linearGradient
       inkscape:collect="always"
       xlink:href="#linearGradient3829"
       id="linearGradient3953"
       gradientUnits="userSpaceOnUse"
       x1="40.209278"
       y1="44.983318"
       x2="40.209278"
       y2="12.679619" />
    <linearGradient
       id="linearGradient3829">
      <stop
         style="stop-color:#f7f6f6;stop-opacity:1"
         offset="0"
         id="stop3831" />
      <stop
         style="stop-color:#efeeee;stop-opacity:1"
         offset="1"
         id="stop3833" />
    </linearGradient>
    <linearGradient
       inkscape:collect="always"
       xlink:href="#linearGradient3829"
       id="linearGradient3951"
       gradientUnits="userSpaceOnUse"
       x1="40.209278"
       y1="44.983318"
       x2="40.209278"
       y2="12.679619" />
    <linearGradient
       id="linearGradient3166">
      <stop
         style="stop-color:#f7f6f6;stop-opacity:1"
         offset="0"
         id="stop3168" />
      <stop
         style="stop-color:#efeeee;stop-opacity:1"
         offset="1"
         id="stop3170" />
    </linearGradient>
    <linearGradient
       inkscape:collect="always"
       xlink:href="#linearGradient3829"
       id="linearGradient3955"
       gradientUnits="userSpaceOnUse"
       x1="40.209278"
       y1="44.983318"
       x2="40.209278"
       y2="12.679619" />
    <linearGradient
       id="linearGradient3173">
      <stop
         style="stop-color:#f7f6f6;stop-opacity:1"
         offset="0"
         id="stop3175" />
      <stop
         style="stop-color:#efeeee;stop-opacity:1"
         offset="1"
         id="stop3177" />
    </linearGradient>
    <mask
       maskUnits="userSpaceOnUse"
       id="mask3903">
      <g
         transform="translate(0,-0.80245732)"
         id="g3905"
         style="font-size:68.31048584px;font-style:normal;font-variant:normal;font-weight:normal;font-stretch:normal;text-align:start;line-height:125%;letter-spacing:0px;word-spacing:0px;writing-mode:lr-tb;text-anchor:start;fill:url(#linearGradient3911);fill-opacity:1;stroke:none;font-family:MEAN 26 Sans;-inkscape-font-specification:MEAN 26 Sans">
        <path
           style="fill:url(#linearGradient3909);fill-opacity:1"
           sodipodi:nodetypes="ccccccccccccccsccccccccc"
           inkscape:connector-curvature="0"
           id="path3907"
           d="m 56.504568,23.596172 c -3.1e-5,2.59583 -1.001917,5.077775 -3.005661,7.445843 -1.86718,1.821637 -3.711561,3.666019 -5.533149,5.53315 -2.003795,2.185954 -3.005681,4.417427 -3.005662,6.694427 l 0.01162,2.254246 -5.41977,0 c 0,0 -0.02753,-1.69396 -0.02753,-2.431991 0,-3.454973 1.238363,-6.001952 2.839879,-7.677961 L 48.37562,28.85608 c 1.366186,-1.502801 2.04929,-3.347182 2.049315,-5.53315 -2.5e-5,-2.32252 -0.683129,-4.098591 -2.049315,-5.328217 -1.366231,-1.229549 -3.210612,-1.844343 -5.533149,-1.844384 -5.555931,4.1e-5 -8.333888,3.278941 -8.333879,9.83671 l -5.53315,0 c -3e-6,-1.184016 -0.03327,-2.963667 0.409863,-5.259907 0.560895,-2.906455 2.481942,-5.191555 5.259908,-6.96767 2.550246,-1.639406 5.373743,-2.459131 8.4705,-2.459177 3.779825,4.6e-5 6.922105,1.070242 9.426847,3.210593 2.641309,2.277056 3.961977,5.305485 3.962008,9.085294 M 45.50658,57 l -6.216254,0 0,-6.421186 6.216254,0 0,6.421186" />
      </g>
    </mask>
    <linearGradient
       inkscape:collect="always"
       xlink:href="#linearGradient3829"
       id="linearGradient3911"
       gradientUnits="userSpaceOnUse"
       x1="40.209278"
       y1="44.983318"
       x2="40.209278"
       y2="12.679619" />
    <linearGradient
       id="linearGradient3183">
      <stop
         style="stop-color:#f7f6f6;stop-opacity:1"
         offset="0"
         id="stop3185" />
      <stop
         style="stop-color:#efeeee;stop-opacity:1"
         offset="1"
         id="stop3187" />
    </linearGradient>
    <linearGradient
       inkscape:collect="always"
       xlink:href="#linearGradient3829"
       id="linearGradient3909"
       gradientUnits="userSpaceOnUse"
       x1="40.209278"
       y1="44.983318"
       x2="40.209278"
       y2="12.679619" />
    <linearGradient
       id="linearGradient3190">
      <stop
         style="stop-color:#f7f6f6;stop-opacity:1"
         offset="0"
         id="stop3192" />
      <stop
         style="stop-color:#efeeee;stop-opacity:1"
         offset="1"
         id="stop3194" />
    </linearGradient>
    <filter
       color-interpolation-filters="sRGB"
       inkscape:collect="always"
       id="filter3941">
      <feGaussianBlur
         inkscape:collect="always"
         stdDeviation="0.44068637"
         id="feGaussianBlur3943" />
    </filter>
    <linearGradient
       y2="12.679619"
       x2="40.209278"
       y1="44.983318"
       x1="40.209278"
       gradientUnits="userSpaceOnUse"
       id="linearGradient3203"
       xlink:href="#linearGradient3829"
       inkscape:collect="always" />
    <linearGradient
       inkscape:collect="always"
       xlink:href="#linearGradient3829"
       id="linearGradient3119"
       gradientUnits="userSpaceOnUse"
       x1="40.209278"
       y1="44.983318"
       x2="40.209278"
       y2="12.679619" />
    <linearGradient
       inkscape:collect="always"
       xlink:href="#linearGradient3829"
       id="linearGradient3121"
       gradientUnits="userSpaceOnUse"
       x1="40.209278"
       y1="44.983318"
       x2="40.209278"
       y2="12.679619" />
    <linearGradient
       inkscape:collect="always"
       xlink:href="#linearGradient3829"
       id="linearGradient3123"
       gradientUnits="userSpaceOnUse"
       x1="40.209278"
       y1="44.983318"
       x2="40.209278"
       y2="12.679619" />
  </defs>
  <sodipodi:namedview
     id="base"
     pagecolor="#ffffff"
     bordercolor="#666666"
     borderopacity="1.0"
     inkscape:pageopacity="0.0"
     inkscape:pageshadow="2"
     inkscape:zoom="2.8284271"
     inkscape:cx="-40.561012"
     inkscape:cy="69.231703"
     inkscape:document-units="px"
     inkscape:current-layer="layer1"
     width="128px"
     height="128px"
     showgrid="true"
     inkscape:grid-points="true"
     showguides="true"
     inkscape:guide-bbox="true"
     inkscape:window-width="1224"
     inkscape:window-height="757"
     inkscape:window-x="0"
     inkscape:window-y="383"
     inkscape:snap-global="true"
     inkscape:window-maximized="0"
     inkscape:snap-page="true">
    <inkscape:grid
       id="GridFromPre046Settings"
       type="xygrid"
       originx="0px"
       originy="0px"
       spacingx="2.6666px"
       spacingy="2.6666px"
       color="#0000ff"
       empcolor="#0000ff"
       opacity="0.2"
       empopacity="0.4"
       empspacing="2"
       visible="true"
       enabled="true"
       snapvisiblegridlinesonly="true" />
    <sodipodi:guide
       orientation="1,0"
       position="-68,29.325902"
       id="guide4564" />
    <sodipodi:guide
       orientation="1,0"
       position="-121.62237,135.0574"
       id="guide3859" />
    <sodipodi:guide
       orientation="0,1"
       position="38.581514,-74.688154"
       id="guide4360" />
  </sodipodi:namedview>
  <metadata
     id="metadata2611">
    <rdf:RDF>
      <cc:Work
         rdf:about="">
        <dc:format>image/svg+xml</dc:format>
        <dc:type
           rdf:resource="http://purl.org/dc/dcmitype/StillImage" />
        <dc:title></dc:title>
      </cc:Work>
    </rdf:RDF>
  </metadata>
  <g
     inkscape:label="Livello 1"
     inkscape:groupmode="layer"
     id="layer1">
    <path
       style="opacity:0.45606695;fill:#000000;fill-opacity:1;filter:url(#filter4123)"
       d="m 13.333,5.3364 0,117.8304 49.8545,0.4332 c 2.115476,0.0184 4.528919,-1.77169 7,-4.25 0.71234,-0.71442 1.440746,-1.39395 2.15625,-2.09375 0.415612,-0.40649 0.832187,-0.81443 1.25,-1.21875 7.773958,-7.40962 26.98341,-25.122599 34.21875,-33.099999 0.42065,-0.42064 0.81207,-0.8111 1.15625,-1.1875 1.46444,-1.49766 2.76158,-2.8378 2.99375,-5.8625 L 112,75.156251 111.9972,5.3364 z"
       id="path5990"
       inkscape:connector-curvature="0"
       sodipodi:nodetypes="ccsssccccccc" />
    <path
       sodipodi:nodetypes="cccccccc"
       id="path3722"
       d="m 13.333,5.3364 0,118.3304 49.3318,0.3 c 1.527964,0 3.65713,-0.98408 6.387944,-2.83388 C 82.175824,111.57445 97.49744,91.890146 108.75009,80.500071 110.49334,78.756821 112,77.462561 112,73.300001 L 111.9972,5.3364 z"
       style="fill:#000000;fill-opacity:0.84716159;filter:url(#filter4111)"
       inkscape:connector-curvature="0" />
    <path
       style="fill:#ffffff;fill-opacity:1"
       d="m 13.333,5.3364 0,117.3304 49.3318,0 c 1.675283,0 3.914297,-0.56468 7,-3.6 8.870045,-8.72523 32.07567,-31.518599 39.33424,-38.842759 C 111.4396,77.761431 112,75.752871 112,73.500001 L 111.9972,5.3364 z"
       id="path34"
       sodipodi:nodetypes="cccssccc"
       inkscape:connector-curvature="0" />
    <path
       style="fill:url(#linearGradient4524-4);fill-opacity:1"
       d="m 16.5,8.000003 c -0.339844,0 -0.5,0.234618 -0.5,0.5 l 0,109.968747 c 0,0.82158 0.679323,1.5 1.5,1.5 l 48.6875,0 c 0.05308,0 0.810384,0.0234 1.5,0.0313 1.777664,-0.0401 3.131974,-0.75374 4.356035,-1.59328 1.051866,-0.29103 25.980435,-26.619589 35.101555,-35.809239 1.36239,-1.37262 2.18546,-3.94817 2.18546,-4.89561 l 5e-5,-69.201918 c 0,-0.322717 -0.16322,-0.5 -0.5,-0.5 z"
       id="path3967"
       inkscape:connector-curvature="0"
       sodipodi:nodetypes="ccsssccscccc" />
    <path
       sodipodi:nodetypes="ccssscccccc"
       inkscape:connector-curvature="0"
       id="path5980"
       d="m 16.5,8.000003 c -0.339844,0 -0.5,0.234618 -0.5,0.5 l 0,109.968747 c 0,0.82158 0.679323,1.49946 1.5,1.5 l 47.5,0.0313 c 0.05308,3e-5 3.273884,-0.008 3.9635,5e-5 6.540972,-4.50366 29.9679,-28.953329 38.91313,-37.955139 1.47685,-1.65649 0.4576,-0.37007 1.45391,-1.60746 l 6e-5,-71.937498 c 0,-0.322717 -0.16322,-0.5 -0.5,-0.5 z"
       style="opacity:0.84653476;fill:url(#radialGradient5988-0);fill-opacity:1" />
    <path
       style="fill:#000000"
       d=""
       id="path2197" />
    <path
       clip-path="url(#clipPath6093-7)"
       style="opacity:0.34728035;fill:#000000;fill-opacity:1;stroke:none;filter:url(#filter6171-8)"
       d="m 114.4,82.502986 c 0,4.465301 -4.99749,5.909952 -7.47972,7.593625 -5.10854,3.46508 -18.362065,-1.446073 -24.143235,-1.365053 -0.081,5.781159 3.371639,20.976032 -0.09344,26.084572 -1.68367,2.48224 -5.573338,8.68687 -8.483608,8.68687 -2.091359,1.5337 3.488204,8.21101 6.734971,5.31989 9.501888,-8.46107 35.131683,-30.022704 43.350823,-39.262889 2.04044,-2.29392 -4.90514,-9.844666 -9.88579,-7.057015 z"
       id="path6153"
       inkscape:connector-curvature="0"
       sodipodi:nodetypes="cscscssc"
       transform="matrix(1.2774204,0,0,1.2774204,-31.076286,-28.013102)" />
    <path
       sodipodi:nodetypes="cscscssc"
       inkscape:connector-curvature="0"
       id="path6081"
       d="m 113.9,82.502986 c 0,4.465301 -5.09749,6.009952 -7.57972,7.693625 -5.10854,3.46508 -16.139114,2.12536 -21.920284,2.20638 -0.081,5.781159 1.66586,17.304599 -1.79922,22.413139 -1.68367,2.48224 -4.69051,7.98687 -7.60078,7.98687 -2.091359,1.5337 3.488204,11.21101 6.734971,8.31989 9.501888,-8.46107 45.998943,-30.20138 54.218083,-39.441569 2.04044,-2.29392 -17.0724,-11.965986 -22.05305,-9.178335 z"
       style="opacity:0.40099009;fill:#000000;fill-opacity:1;stroke:none;filter:url(#filter6118-4)"
       clip-path="url(#clipPath6093-7)"
       transform="matrix(1.3299764,0,0,1.3299764,-36.963543,-37.156423)" />
    <path
       style="fill:url(#linearGradient3895-3);fill-opacity:1;stroke:none"
       d="m 111.99381,72.570604 c 0,5.938743 -3.72059,8.525082 -7.0219,10.764323 -6.794238,4.608475 -19.95169,4.558319 -27.64051,4.666073 -0.107728,7.688805 0.303611,20.48508 -4.304863,27.27932 -2.239241,3.30132 -7.036253,7.16441 -10.906844,7.16441 3.082925,0 6.307865,-1.7752 10.086567,-5.4327 12.158605,-11.76861 23.097887,-21.459634 34.14469,-33.645117 2.55216,-2.815215 5.64286,-4.843615 5.64286,-10.796309 z"
       id="path6011"
       inkscape:connector-curvature="0"
       sodipodi:nodetypes="cscscssc" />
    <path
       style="fill:#ffffff;fill-opacity:1;stroke:none"
       d="m 112.01875,73.115242 c -0.42084,5.185724 -5.08438,7.318602 -8.17936,9.417895 C 98.818947,85.938464 82.6646,85.3344 74.6648,85.3344 c 0,7.9998 1.619153,23.49711 -2.7864,30.22372 -1.912401,2.91993 -4.654194,5.79882 -8.19598,6.58338 2.633964,-0.48185 5.299865,-2.47561 8.470288,-5.54435 0.451018,-0.51674 0.763801,-0.90298 1.471286,-1.99496 4.608475,-6.79423 4.099678,-18.412383 4.207406,-26.10119 7.68882,-0.107728 20.028368,-0.145785 26.8226,-4.754259 0.619,-0.41986 2.51897,-1.313671 3.06727,-1.861967 2.04322,-2.043229 3.9922,-4.273773 4.29748,-8.769532 z M 63.68242,122.1415 c -0.209681,0.0464 -0.416863,0.0551 -0.623426,0.0831 0.208794,-0.0225 0.412882,-0.0446 0.623426,-0.0831 z"
       id="path6122"
       inkscape:connector-curvature="0"
       sodipodi:nodetypes="cscsccccsscccc" />
    <path
       style="fill:none;stroke:url(#radialGradient3919-5);stroke-width:1.20000005;stroke-linecap:butt;stroke-linejoin:miter;stroke-miterlimit:4;stroke-opacity:1;stroke-dasharray:none;filter:url(#filter3909-6)"
       d="M 117.31456,81.861283 72.639105,125.34835"
       id="path3873"
       inkscape:connector-curvature="0"
       sodipodi:nodetypes="cc"
       clip-path="url(#clipPath3889-6)"
       transform="matrix(1.3299764,0,0,1.3299764,-36.963543,-37.156423)" />
    <g
       id="g3945"
       style="opacity:0.48535563;filter:url(#filter4015)"
       transform="matrix(1.4926599,0,0,1.4926599,-20.278634,-14.972222)">
      <g
         transform="matrix(1.2461722,0,0,1.2461722,-5.1328089,4.2181838)"
         id="text3050"
         style="font-size:68.31048584px;font-style:normal;font-variant:normal;font-weight:normal;font-stretch:normal;text-align:start;line-height:125%;letter-spacing:0px;word-spacing:0px;writing-mode:lr-tb;text-anchor:start;fill:url(#linearGradient3953);fill-opacity:1;stroke:none;font-family:MEAN 26 Sans;-inkscape-font-specification:MEAN 26 Sans">
        <path
           style="fill:url(#linearGradient3951);fill-opacity:1"
           sodipodi:nodetypes="ccccccccccccccsccccccccc"
           inkscape:connector-curvature="0"
           id="path3055"
           d="m 56.504568,23.596172 c -3.1e-5,2.59583 -1.001917,5.077775 -3.005661,7.445843 -1.86718,1.821637 -3.711561,3.666019 -5.533149,5.53315 -2.003795,2.185954 -3.005681,4.417427 -3.005662,6.694427 l 0.01162,2.254246 -5.41977,0 c 0,0 -0.02753,-1.69396 -0.02753,-2.431991 0,-3.454973 1.238363,-6.001952 2.839879,-7.677961 L 48.37562,28.85608 c 1.366186,-1.502801 2.04929,-3.347182 2.049315,-5.53315 -2.5e-5,-2.32252 -0.683129,-4.098591 -2.049315,-5.328217 -1.366231,-1.229549 -3.210612,-1.844343 -5.533149,-1.844384 -5.555931,4.1e-5 -8.333888,3.278941 -8.333879,9.83671 l -5.53315,0 c -3e-6,-1.184016 -0.03327,-2.963667 0.409863,-5.259907 0.560895,-2.906455 2.481942,-5.191555 5.259908,-6.96767 2.550246,-1.639406 5.373743,-2.459131 8.4705,-2.459177 3.779825,4.6e-5 6.922105,1.070242 9.426847,3.210593 2.641309,2.277056 3.961977,5.305485 3.962008,9.085294 M 45.50658,57 l -6.216254,0 0,-6.421186 6.216254,0 0,6.421186" />
      </g>
      <g
         mask="url(#mask3903)"
         transform="matrix(1.2461722,0,0,1.2461722,-5.13281,5.2181838)"
         id="g3847"
         style="font-size:68.31048584px;font-style:normal;font-variant:normal;font-weight:normal;font-stretch:normal;text-align:start;line-height:125%;letter-spacing:0px;word-spacing:0px;writing-mode:lr-tb;text-anchor:start;opacity:0.27615063;fill:url(#linearGradient3203);fill-opacity:1;stroke:#000000;stroke-width:0.6788789;stroke-miterlimit:4;stroke-opacity:1;stroke-dasharray:none;filter:url(#filter3941);font-family:MEAN 26 Sans;-inkscape-font-specification:MEAN 26 Sans">
        <path
           sodipodi:nodetypes="ccssccccsscccccsccccccscccccccccccsccscccccsccsccccccccccccccccccccc"
           inkscape:connector-curvature="0"
           id="path3849"
           d="M 43.024693,6.0135761 C 39.868038,6.0136231 30.551599,7.3419119 27.948784,9.0151119 25.119331,10.824146 13.093765,19.747159 12.511818,22.7627 c -0.449915,2.331383 10.48763,3.802722 11.198131,4.741907 l 1.905836,2.519258 4.95788,5.215973 4.327564,-7.021502 4.556651,-0.902764 -0.802458,-1.817108 C 37.3502,22.542883 37.633366,22.504496 38.9502,20.9502 c 1.316834,-1.554296 0.680823,-1.842194 3.392014,-1.842214 2.262639,4e-5 0.807529,0.584428 2.102671,1.75 1.287202,1.158537 1.335633,-0.102371 1.335657,2.153593 -2.4e-5,2.115255 -0.05582,2.064784 -1.366907,3.506971 l -5.097236,6.462192 c -1.659802,1.737006 -4.3418,5.172625 -4.3418,8.708708 0,0.746472 1.134629,2.4375 1.134629,2.4375 l 0.100307,1.346821 1.447129,1.303993 6.409322,0.200615 2.4502,0.300921 1.604915,-2.149279 1.203686,-1.54785 c 1.336675,-1.718864 3.851032,-2.019008 5.815157,-4.161685 1.819637,-1.865131 2.061156,-1.504806 3.926336,-3.324492 l 3.109522,1.774279 C 64.219051,35.455518 62.761841,27.279989 62.761873,24.596822 62.761841,20.737948 67.297904,9.6665096 64.586245,7.3288056 62.017394,5.1336726 46.868587,6.0136231 43.024693,6.0135761 z M 43.125,11.384263 c 3.715756,4.5e-5 6.746867,1.070681 9.1875,3.15625 2.570959,2.216408 3.84372,5.352493 3.84375,9.053237 -3e-5,2.508493 -0.942011,4.736878 -2.90625,7.058259 -1.86918,1.823588 -3.707711,3.662119 -5.53125,5.53125 -2.043465,2.229231 -3.09377,4.72142 -3.09375,7.097991 l 0,1.673704 -4.71875,0 C 39.90055,44.589398 39.875,43.720466 39.875,43.09375 c 0,-3.373863 1.20677,-5.822488 2.75,-7.4375 l 6,-6.5625 c 1.42129,-1.563415 2.124974,-3.524569 2.125,-5.78125 -2.6e-5,-2.389076 -0.71108,-4.261785 -2.15625,-5.5625 -1.43732,-1.293526 -3.367565,-2.178195 -5.75,-2.178237 -2.84474,2.1e-5 -5.038875,1.07863 -6.5,2.803237 -1.404394,1.657646 -2.103718,3.831918 -2.15625,6.971189 l -4.84375,0 c -0.002,-1.179944 -0.03258,-2.452927 0.375,-4.564939 0.539843,-2.797369 2.367271,-5.247541 5.09375,-6.990737 l 0.03125,0 c 2.497677,-1.605612 5.244391,-2.406205 8.28125,-2.40625 z m -6.594872,36.408979 -0.802457,1.346822 -1.003072,8.011165 0.802457,2.249586 4.857573,0.70215 8.525815,-0.501536 -0.802458,-1.74805 3.653887,-0.601843 -3.310137,-6.907786 0.401229,-2.149279 -3.553579,0.100307 -5.616907,-0.501536 z M 39.625,50.6875 l 5.53125,0 0,5.317521 -5.53125,0 z"
           style="font-size:medium;font-style:normal;font-variant:normal;font-weight:normal;font-stretch:normal;text-indent:0;text-align:start;text-decoration:none;line-height:125%;letter-spacing:0;word-spacing:0;text-transform:none;direction:ltr;block-progression:tb;writing-mode:lr-tb;text-anchor:start;baseline-shift:baseline;color:#000000;fill:#000000;fill-opacity:1;fill-rule:nonzero;stroke:none;stroke-width:0.6788789;marker:none;visibility:visible;display:inline;overflow:visible;enable-background:accumulate;font-family:MEAN 26 Sans;-inkscape-font-specification:MEAN 26 Sans" />
      </g>
    </g>
    <g
       transform="matrix(1.4926599,0,0,1.4926599,-20.278634,-14.972222)"
       style="opacity:0.48535563;filter:url(#filter4015)"
       id="g3109">
      <g
         style="font-size:68.31048584px;font-style:normal;font-variant:normal;font-weight:normal;font-stretch:normal;text-align:start;line-height:125%;letter-spacing:0px;word-spacing:0px;writing-mode:lr-tb;text-anchor:start;fill:url(#linearGradient3121);fill-opacity:1;stroke:none;font-family:MEAN 26 Sans;-inkscape-font-specification:MEAN 26 Sans"
         id="g3111"
         transform="matrix(1.2461722,0,0,1.2461722,-5.1328089,4.2181838)">
        <path
           d="m 56.504568,23.596172 c -3.1e-5,2.59583 -1.001917,5.077775 -3.005661,7.445843 -1.86718,1.821637 -3.711561,3.666019 -5.533149,5.53315 -2.003795,2.185954 -3.005681,4.417427 -3.005662,6.694427 l 0.01162,2.254246 -5.41977,0 c 0,0 -0.02753,-1.69396 -0.02753,-2.431991 0,-3.454973 1.238363,-6.001952 2.839879,-7.677961 L 48.37562,28.85608 c 1.366186,-1.502801 2.04929,-3.347182 2.049315,-5.53315 -2.5e-5,-2.32252 -0.683129,-4.098591 -2.049315,-5.328217 -1.366231,-1.229549 -3.210612,-1.844343 -5.533149,-1.844384 -5.555931,4.1e-5 -8.333888,3.278941 -8.333879,9.83671 l -5.53315,0 c -3e-6,-1.184016 -0.03327,-2.963667 0.409863,-5.259907 0.560895,-2.906455 2.481942,-5.191555 5.259908,-6.96767 2.550246,-1.639406 5.373743,-2.459131 8.4705,-2.459177 3.779825,4.6e-5 6.922105,1.070242 9.426847,3.210593 2.641309,2.277056 3.961977,5.305485 3.962008,9.085294 M 45.50658,57 l -6.216254,0 0,-6.421186 6.216254,0 0,6.421186"
           id="path3113"
           inkscape:connector-curvature="0"
           sodipodi:nodetypes="ccccccccccccccsccccccccc"
           style="fill:url(#linearGradient3119);fill-opacity:1" />
      </g>
      <g
         style="font-size:68.31048584px;font-style:normal;font-variant:normal;font-weight:normal;font-stretch:normal;text-align:start;line-height:125%;letter-spacing:0px;word-spacing:0px;writing-mode:lr-tb;text-anchor:start;opacity:0.27615063;fill:url(#linearGradient3123);fill-opacity:1;stroke:#000000;stroke-width:0.6788789;stroke-miterlimit:4;stroke-opacity:1;stroke-dasharray:none;filter:url(#filter3941);font-family:MEAN 26 Sans;-inkscape-font-specification:MEAN 26 Sans"
         id="g3115"
         transform="matrix(1.2461722,0,0,1.2461722,-5.13281,5.2181838)"
         mask="url(#mask3903)">
        <path
           style="font-size:medium;font-style:normal;font-variant:normal;font-weight:normal;font-stretch:normal;text-indent:0;text-align:start;text-decoration:none;line-height:125%;letter-spacing:0;word-spacing:0;text-transform:none;direction:ltr;block-progression:tb;writing-mode:lr-tb;text-anchor:start;baseline-shift:baseline;color:#000000;fill:#000000;fill-opacity:1;fill-rule:nonzero;stroke:none;stroke-width:0.6788789;marker:none;visibility:visible;display:inline;overflow:visible;enable-background:accumulate;font-family:MEAN 26 Sans;-inkscape-font-specification:MEAN 26 Sans"
           d="M 43.024693,6.0135761 C 39.868038,6.0136231 30.551599,7.3419119 27.948784,9.0151119 25.119331,10.824146 13.093765,19.747159 12.511818,22.7627 c -0.449915,2.331383 10.48763,3.802722 11.198131,4.741907 l 1.905836,2.519258 4.95788,5.215973 4.327564,-7.021502 4.556651,-0.902764 -0.802458,-1.817108 C 37.3502,22.542883 37.633366,22.504496 38.9502,20.9502 c 1.316834,-1.554296 0.680823,-1.842194 3.392014,-1.842214 2.262639,4e-5 0.807529,0.584428 2.102671,1.75 1.287202,1.158537 1.335633,-0.102371 1.335657,2.153593 -2.4e-5,2.115255 -0.05582,2.064784 -1.366907,3.506971 l -5.097236,6.462192 c -1.659802,1.737006 -4.3418,5.172625 -4.3418,8.708708 0,0.746472 1.134629,2.4375 1.134629,2.4375 l 0.100307,1.346821 1.447129,1.303993 6.409322,0.200615 2.4502,0.300921 1.604915,-2.149279 1.203686,-1.54785 c 1.336675,-1.718864 3.851032,-2.019008 5.815157,-4.161685 1.819637,-1.865131 2.061156,-1.504806 3.926336,-3.324492 l 3.109522,1.774279 C 64.219051,35.455518 62.761841,27.279989 62.761873,24.596822 62.761841,20.737948 67.297904,9.6665096 64.586245,7.3288056 62.017394,5.1336726 46.868587,6.0136231 43.024693,6.0135761 z M 43.125,11.384263 c 3.715756,4.5e-5 6.746867,1.070681 9.1875,3.15625 2.570959,2.216408 3.84372,5.352493 3.84375,9.053237 -3e-5,2.508493 -0.942011,4.736878 -2.90625,7.058259 -1.86918,1.823588 -3.707711,3.662119 -5.53125,5.53125 -2.043465,2.229231 -3.09377,4.72142 -3.09375,7.097991 l 0,1.673704 -4.71875,0 C 39.90055,44.589398 39.875,43.720466 39.875,43.09375 c 0,-3.373863 1.20677,-5.822488 2.75,-7.4375 l 6,-6.5625 c 1.42129,-1.563415 2.124974,-3.524569 2.125,-5.78125 -2.6e-5,-2.389076 -0.71108,-4.261785 -2.15625,-5.5625 -1.43732,-1.293526 -3.367565,-2.178195 -5.75,-2.178237 -2.84474,2.1e-5 -5.038875,1.07863 -6.5,2.803237 -1.404394,1.657646 -2.103718,3.831918 -2.15625,6.971189 l -4.84375,0 c -0.002,-1.179944 -0.03258,-2.452927 0.375,-4.564939 0.539843,-2.797369 2.367271,-5.247541 5.09375,-6.990737 l 0.03125,0 c 2.497677,-1.605612 5.244391,-2.406205 8.28125,-2.40625 z m -6.594872,36.408979 -0.802457,1.346822 -1.003072,8.011165 0.802457,2.249586 4.857573,0.70215 8.525815,-0.501536 -0.802458,-1.74805 3.653887,-0.601843 -3.310137,-6.907786 0.401229,-2.149279 -3.553579,0.100307 -5.616907,-0.501536 z M 39.625,50.6875 l 5.53125,0 0,5.317521 -5.53125,0 z"
           id="path3117"
           inkscape:connector-curvature="0"
           sodipodi:nodetypes="ccssccccsscccccsccccccscccccccccccsccscccccsccsccccccccccccccccccccc" />
      </g>
    </g>
    <g
       id="g3125"
       style="opacity:0.48535563;filter:url(#filter4015)"
       transform="matrix(1.4926599,0,0,1.4926599,-20.278634,-14.972222)">
      <g
         transform="matrix(1.2461722,0,0,1.2461722,-5.1328089,4.2181838)"
         id="g3127"
         style="font-size:68.31048584px;font-style:normal;font-variant:normal;font-weight:normal;font-stretch:normal;text-align:start;line-height:125%;letter-spacing:0px;word-spacing:0px;writing-mode:lr-tb;text-anchor:start;fill:url(#linearGradient3121);fill-opacity:1;stroke:none;font-family:MEAN 26 Sans;-inkscape-font-specification:MEAN 26 Sans">
        <path
           style="fill:url(#linearGradient3119);fill-opacity:1"
           sodipodi:nodetypes="ccccccccccccccsccccccccc"
           inkscape:connector-curvature="0"
           id="path3129"
           d="m 56.504568,23.596172 c -3.1e-5,2.59583 -1.001917,5.077775 -3.005661,7.445843 -1.86718,1.821637 -3.711561,3.666019 -5.533149,5.53315 -2.003795,2.185954 -3.005681,4.417427 -3.005662,6.694427 l 0.01162,2.254246 -5.41977,0 c 0,0 -0.02753,-1.69396 -0.02753,-2.431991 0,-3.454973 1.238363,-6.001952 2.839879,-7.677961 L 48.37562,28.85608 c 1.366186,-1.502801 2.04929,-3.347182 2.049315,-5.53315 -2.5e-5,-2.32252 -0.683129,-4.098591 -2.049315,-5.328217 -1.366231,-1.229549 -3.210612,-1.844343 -5.533149,-1.844384 -5.555931,4.1e-5 -8.333888,3.278941 -8.333879,9.83671 l -5.53315,0 c -3e-6,-1.184016 -0.03327,-2.963667 0.409863,-5.259907 0.560895,-2.906455 2.481942,-5.191555 5.259908,-6.96767 2.550246,-1.639406 5.373743,-2.459131 8.4705,-2.459177 3.779825,4.6e-5 6.922105,1.070242 9.426847,3.210593 2.641309,2.277056 3.961977,5.305485 3.962008,9.085294 M 45.50658,57 l -6.216254,0 0,-6.421186 6.216254,0 0,6.421186" />
      </g>
      <g
         mask="url(#mask3903)"
         transform="matrix(1.2461722,0,0,1.2461722,-5.13281,5.2181838)"
         id="g3131"
         style="font-size:68.31048584px;font-style:normal;font-variant:normal;font-weight:normal;font-stretch:normal;text-align:start;line-height:125%;letter-spacing:0px;word-spacing:0px;writing-mode:lr-tb;text-anchor:start;opacity:0.27615063;fill:url(#linearGradient3123);fill-opacity:1;stroke:#000000;stroke-width:0.6788789;stroke-miterlimit:4;stroke-opacity:1;stroke-dasharray:none;filter:url(#filter3941);font-family:MEAN 26 Sans;-inkscape-font-specification:MEAN 26 Sans">
        <path
           sodipodi:nodetypes="ccssccccsscccccsccccccscccccccccccsccscccccsccsccccccccccccccccccccc"
           inkscape:connector-curvature="0"
           id="path3133"
           d="M 43.024693,6.0135761 C 39.868038,6.0136231 30.551599,7.3419119 27.948784,9.0151119 25.119331,10.824146 13.093765,19.747159 12.511818,22.7627 c -0.449915,2.331383 10.48763,3.802722 11.198131,4.741907 l 1.905836,2.519258 4.95788,5.215973 4.327564,-7.021502 4.556651,-0.902764 -0.802458,-1.817108 C 37.3502,22.542883 37.633366,22.504496 38.9502,20.9502 c 1.316834,-1.554296 0.680823,-1.842194 3.392014,-1.842214 2.262639,4e-5 0.807529,0.584428 2.102671,1.75 1.287202,1.158537 1.335633,-0.102371 1.335657,2.153593 -2.4e-5,2.115255 -0.05582,2.064784 -1.366907,3.506971 l -5.097236,6.462192 c -1.659802,1.737006 -4.3418,5.172625 -4.3418,8.708708 0,0.746472 1.134629,2.4375 1.134629,2.4375 l 0.100307,1.346821 1.447129,1.303993 6.409322,0.200615 2.4502,0.300921 1.604915,-2.149279 1.203686,-1.54785 c 1.336675,-1.718864 3.851032,-2.019008 5.815157,-4.161685 1.819637,-1.865131 2.061156,-1.504806 3.926336,-3.324492 l 3.109522,1.774279 C 64.219051,35.455518 62.761841,27.279989 62.761873,24.596822 62.761841,20.737948 67.297904,9.6665096 64.586245,7.3288056 62.017394,5.1336726 46.868587,6.0136231 43.024693,6.0135761 z M 43.125,11.384263 c 3.715756,4.5e-5 6.746867,1.070681 9.1875,3.15625 2.570959,2.216408 3.84372,5.352493 3.84375,9.053237 -3e-5,2.508493 -0.942011,4.736878 -2.90625,7.058259 -1.86918,1.823588 -3.707711,3.662119 -5.53125,5.53125 -2.043465,2.229231 -3.09377,4.72142 -3.09375,7.097991 l 0,1.673704 -4.71875,0 C 39.90055,44.589398 39.875,43.720466 39.875,43.09375 c 0,-3.373863 1.20677,-5.822488 2.75,-7.4375 l 6,-6.5625 c 1.42129,-1.563415 2.124974,-3.524569 2.125,-5.78125 -2.6e-5,-2.389076 -0.71108,-4.261785 -2.15625,-5.5625 -1.43732,-1.293526 -3.367565,-2.178195 -5.75,-2.178237 -2.84474,2.1e-5 -5.038875,1.07863 -6.5,2.803237 -1.404394,1.657646 -2.103718,3.831918 -2.15625,6.971189 l -4.84375,0 c -0.002,-1.179944 -0.03258,-2.452927 0.375,-4.564939 0.539843,-2.797369 2.367271,-5.247541 5.09375,-6.990737 l 0.03125,0 c 2.497677,-1.605612 5.244391,-2.406205 8.28125,-2.40625 z m -6.594872,36.408979 -0.802457,1.346822 -1.003072,8.011165 0.802457,2.249586 4.857573,0.70215 8.525815,-0.501536 -0.802458,-1.74805 3.653887,-0.601843 -3.310137,-6.907786 0.401229,-2.149279 -3.553579,0.100307 -5.616907,-0.501536 z M 39.625,50.6875 l 5.53125,0 0,5.317521 -5.53125,0 z"
           style="font-size:medium;font-style:normal;font-variant:normal;font-weight:normal;font-stretch:normal;text-indent:0;text-align:start;text-decoration:none;line-height:125%;letter-spacing:0;word-spacing:0;text-transform:none;direction:ltr;block-progression:tb;writing-mode:lr-tb;text-anchor:start;baseline-shift:baseline;color:#000000;fill:#000000;fill-opacity:1;fill-rule:nonzero;stroke:none;stroke-width:0.6788789;marker:none;visibility:visible;display:inline;overflow:visible;enable-background:accumulate;font-family:MEAN 26 Sans;-inkscape-font-specification:MEAN 26 Sans" />
      </g>
    </g>
  </g>
</svg>
