<?xml version="1.0" encoding="UTF-8" standalone="no"?>
<!-- Created with Inkscape (http://www.inkscape.org/) -->

<svg
   xmlns:dc="http://purl.org/dc/elements/1.1/"
   xmlns:cc="http://creativecommons.org/ns#"
   xmlns:rdf="http://www.w3.org/1999/02/22-rdf-syntax-ns#"
   xmlns:svg="http://www.w3.org/2000/svg"
   xmlns="http://www.w3.org/2000/svg"
   xmlns:xlink="http://www.w3.org/1999/xlink"
   xmlns:sodipodi="http://sodipodi.sourceforge.net/DTD/sodipodi-0.dtd"
   xmlns:inkscape="http://www.inkscape.org/namespaces/inkscape"
   width="128"
   height="128"
   id="svg2606"
   sodipodi:version="0.32"
   inkscape:version="0.48.0 r9654"
   version="1.0"
   sodipodi:docname="x-kde-nsplugin-generated.svgz"
   inkscape:output_extension="org.inkscape.output.svgz.inkscape"
   inkscape:export-filename="/home/pinheiro/pics/oxygen-icons/scalable/mimetypes/small/48x48/x-kde-nsplugin-generated.png"
   inkscape:export-xdpi="135"
   inkscape:export-ydpi="135">
  <defs
     id="defs2608">
    <linearGradient
       id="linearGradient6131">
      <stop
         id="stop6133"
         offset="0"
         style="stop-color:#fcfcfc;stop-opacity:1" />
      <stop
         style="stop-color:#f8f8f8;stop-opacity:1"
         offset="0.52275378"
         id="stop6135" />
      <stop
         id="stop6141"
         offset="0.77457333"
         style="stop-color:#f0efef;stop-opacity:1;" />
      <stop
         id="stop6139"
         offset="0.90122044"
         style="stop-color:#e3e1e1;stop-opacity:1;" />
      <stop
         id="stop6137"
         offset="1"
         style="stop-color:#cecbcb;stop-opacity:1" />
    </linearGradient>
    <linearGradient
       inkscape:collect="always"
       xlink:href="#linearGradient6131"
       id="linearGradient3893"
       gradientUnits="userSpaceOnUse"
       gradientTransform="matrix(1.0119858,0,0,1.0119858,-0.89554075,-0.9871566)"
       x1="86.73793"
       y1="93.621468"
       x2="95.460213"
       y2="102.34375" />
    <radialGradient
       inkscape:collect="always"
       xlink:href="#linearGradient3913-5"
       id="radialGradient3919-5"
       cx="90.75"
       cy="110.25299"
       fx="90.75"
       fy="110.25299"
       r="18.750002"
       gradientTransform="matrix(1.3067347,0,0,1.3067347,-27.83617,-33.818441)"
       gradientUnits="userSpaceOnUse" />
    <linearGradient
       inkscape:collect="always"
       id="linearGradient3913-5">
      <stop
         style="stop-color:#ffffff;stop-opacity:1;"
         offset="0"
         id="stop3915-4" />
      <stop
         style="stop-color:#ffffff;stop-opacity:0;"
         offset="1"
         id="stop3917-7" />
    </linearGradient>
    <clipPath
       clipPathUnits="userSpaceOnUse"
       id="clipPath3889-6">
      <path
         sodipodi:nodetypes="cscscssc"
         inkscape:connector-curvature="0"
         id="path3891-5"
         d="m 112,82.502986 c 0,4.465301 -2.79749,6.409952 -5.27972,8.093625 -5.10854,3.46508 -14.939114,3.32536 -20.720284,3.40638 -0.081,5.781159 0.16586,15.504599 -3.29922,20.613139 -1.68367,2.48224 -5.29051,5.38687 -8.20078,5.38687 2.31803,0 4.74284,-1.33476 7.58402,-4.08481 9.14197,-8.84873 17.36714,-16.13535 25.673154,-25.297529 C 109.67612,88.503916 112,86.97878 112,82.502986 z"
         style="fill:url(#linearGradient3893);fill-opacity:1;stroke:none" />
    </clipPath>
    <filter
       color-interpolation-filters="sRGB"
       inkscape:collect="always"
       id="filter3909-6">
      <feGaussianBlur
         inkscape:collect="always"
         stdDeviation="0.43040059"
         id="feGaussianBlur3911-9" />
    </filter>
    <linearGradient
       inkscape:collect="always"
       xlink:href="#linearGradient3897-7"
       id="linearGradient3895-3"
       gradientUnits="userSpaceOnUse"
       gradientTransform="matrix(1.3459172,0,0,1.3459172,-38.154591,-38.469319)"
       x1="86.73793"
       y1="93.621468"
       x2="95.18235"
       y2="102.06589" />
    <linearGradient
       id="linearGradient3897-7">
      <stop
         style="stop-color:#fcfcfc;stop-opacity:1"
         offset="0"
         id="stop3899-4" />
      <stop
         id="stop3901-5"
         offset="0.52275378"
         style="stop-color:#f8f8f8;stop-opacity:1" />
      <stop
         style="stop-color:#f0efef;stop-opacity:1;"
         offset="0.72337759"
         id="stop3903-2" />
      <stop
         style="stop-color:#e3e1e1;stop-opacity:1;"
         offset="0.89024991"
         id="stop3905-5" />
      <stop
         style="stop-color:#cecbcb;stop-opacity:1"
         offset="1"
         id="stop3907-4" />
    </linearGradient>
    <clipPath
       clipPathUnits="userSpaceOnUse"
       id="clipPath6093-7">
      <path
         inkscape:connector-curvature="0"
         sodipodi:nodetypes="cccssccc"
         id="path6095-4"
         d="m 17.000001,8 0.782827,110 57.5,0 c 1.675283,0 3.119418,0.18058 4.9,-1.6 C 88.980763,107.60206 99.94047,96.548195 107.19904,89.224043 109.6396,86.761431 110,84.752873 110,82.5 L 110,8 z"
         style="fill:#ffffff;fill-opacity:1" />
    </clipPath>
    <filter
       color-interpolation-filters="sRGB"
       inkscape:collect="always"
       id="filter6118-4"
       x="-0.1126375"
       width="1.225275"
       y="-0.12064722"
       height="1.2412944">
      <feGaussianBlur
         inkscape:collect="always"
         stdDeviation="2.3860572"
         id="feGaussianBlur6120-3" />
    </filter>
    <radialGradient
       inkscape:collect="always"
       xlink:href="#linearGradient5982-7"
       id="radialGradient5988-0"
       cx="64"
       cy="64.004021"
       fx="63.793392"
       fy="47.274845"
       r="47.5"
       gradientTransform="matrix(1.6842105,-0.08429519,0.06886339,1.3758846,-48.197001,-18.66323)"
       gradientUnits="userSpaceOnUse" />
    <linearGradient
       inkscape:collect="always"
       id="linearGradient5982-7">
      <stop
         style="stop-color:#ffffff;stop-opacity:1;"
         offset="0"
         id="stop5984-8" />
      <stop
         style="stop-color:#ffffff;stop-opacity:0;"
         offset="1"
         id="stop5986-6" />
    </linearGradient>
    <filter
       color-interpolation-filters="sRGB"
       inkscape:collect="always"
       id="filter6171-8"
       x="-0.47870937"
       width="1.9574188"
       y="-0.51275069"
       height="2.0255013">
      <feGaussianBlur
         inkscape:collect="always"
         stdDeviation="10.140743"
         id="feGaussianBlur6173-8" />
    </filter>
    <linearGradient
       inkscape:collect="always"
       xlink:href="#linearGradient4518-3"
       id="linearGradient4524-4"
       x1="72"
       y1="0"
       x2="72"
       y2="116.40091"
       gradientUnits="userSpaceOnUse"
       gradientTransform="translate(3.9208985e-7,2.7836914e-6)" />
    <linearGradient
       id="linearGradient4518-3">
      <stop
         style="stop-color:#eeecec;stop-opacity:1"
         offset="0"
         id="stop4520-1" />
      <stop
         id="stop5969-4"
         offset="0.40000001"
         style="stop-color:#f4f4f4;stop-opacity:1" />
      <stop
         style="stop-color:#f6f5f5;stop-opacity:1"
         offset="1"
         id="stop4522-9" />
    </linearGradient>
    <filter
       inkscape:collect="always"
       id="filter4111">
      <feGaussianBlur
         inkscape:collect="always"
         stdDeviation="1.5615"
         id="feGaussianBlur4113" />
    </filter>
    <filter
       inkscape:collect="always"
       id="filter4123">
      <feGaussianBlur
         inkscape:collect="always"
         stdDeviation="2.028"
         id="feGaussianBlur4125" />
    </filter>
    <linearGradient
       inkscape:collect="always"
       xlink:href="#linearGradient3349"
       id="linearGradient5532"
       gradientUnits="userSpaceOnUse"
       gradientTransform="translate(0,0.5)"
       x1="70.999763"
       y1="40.292381"
       x2="70.999763"
       y2="89.867455" />
    <linearGradient
       id="linearGradient3349"
       inkscape:collect="always">
      <stop
         id="stop3351"
         offset="0"
         style="stop-color:#00dd00;stop-opacity:1" />
      <stop
         id="stop3353"
         offset="1"
         style="stop-color:#000e00;stop-opacity:1" />
    </linearGradient>
    <filter
       color-interpolation-filters="sRGB"
       id="filter4587"
       inkscape:collect="always">
      <feGaussianBlur
         id="feGaussianBlur4589"
         stdDeviation="0.40704226"
         inkscape:collect="always" />
    </filter>
    <linearGradient
       inkscape:collect="always"
       xlink:href="#linearGradient3349"
       id="linearGradient5534"
       gradientUnits="userSpaceOnUse"
       x1="77.749763"
       y1="100.68314"
       x2="77.749763"
       y2="46.330647" />
    <radialGradient
       inkscape:collect="always"
       xlink:href="#linearGradient3342-5"
       id="radialGradient5536"
       gradientUnits="userSpaceOnUse"
       gradientTransform="matrix(1.5587643,0,0,1.5078663,-39.380594,-45.896825)"
       cx="70.478012"
       cy="89.574303"
       fx="70.478012"
       fy="89.574303"
       r="18.978512" />
    <linearGradient
       inkscape:collect="always"
       id="linearGradient3342-5">
      <stop
         style="stop-color:#00ff00;stop-opacity:1"
         offset="0"
         id="stop3344-4" />
      <stop
         style="stop-color:#004d00;stop-opacity:1"
         offset="1"
         id="stop3346-7" />
    </linearGradient>
    <radialGradient
       inkscape:collect="always"
       xlink:href="#linearGradient3409"
       id="radialGradient5538"
       gradientUnits="userSpaceOnUse"
       gradientTransform="matrix(1.2247067,0,0,1.1847166,-15.836259,-16.95092)"
       cx="70.766693"
       cy="66.595299"
       fx="70.766693"
       fy="66.595299"
       r="18.978512" />
    <linearGradient
       inkscape:collect="always"
       id="linearGradient3409">
      <stop
         style="stop-color:#ffffff;stop-opacity:1;"
         offset="0"
         id="stop3411" />
      <stop
         style="stop-color:#ffffff;stop-opacity:0;"
         offset="1"
         id="stop3413" />
    </linearGradient>
    <radialGradient
       inkscape:collect="always"
       xlink:href="#linearGradient3362"
       id="radialGradient5540"
       gradientUnits="userSpaceOnUse"
       gradientTransform="matrix(2.0724635,0,0,2.0047918,-66.652305,-71.869984)"
       cx="57.522243"
       cy="63.842773"
       fx="57.522243"
       fy="63.842773"
       r="18.978512" />
    <linearGradient
       id="linearGradient3362"
       inkscape:collect="always">
      <stop
         id="stop3364"
         offset="0"
         style="stop-color:#bfffbf;stop-opacity:1" />
      <stop
         id="stop3366"
         offset="1"
         style="stop-color:#bfffbf;stop-opacity:0" />
    </linearGradient>
    <radialGradient
       inkscape:collect="always"
       xlink:href="#linearGradient3409"
       id="radialGradient5542"
       gradientUnits="userSpaceOnUse"
       gradientTransform="matrix(2.0724635,0,0,2.0047918,-66.656198,-71.869984)"
       cx="56.692532"
       cy="75.276314"
       fx="56.692532"
       fy="75.276314"
       r="18.978512" />
    <linearGradient
       inkscape:collect="always"
       xlink:href="#linearGradient3689"
       id="linearGradient5544"
       gradientUnits="userSpaceOnUse"
       x1="71.9375"
       y1="92.231743"
       x2="71.9375"
       y2="73.141258" />
    <linearGradient
       id="linearGradient3689"
       inkscape:collect="always">
      <stop
         id="stop3691"
         offset="0"
         style="stop-color:#f0ff80;stop-opacity:1" />
      <stop
         id="stop3693"
         offset="1"
         style="stop-color:#f0ff80;stop-opacity:0" />
    </linearGradient>
    <mask
       maskUnits="userSpaceOnUse"
       id="mask5524">
      <path
         sodipodi:nodetypes="ccssscccccc"
         inkscape:connector-curvature="0"
         id="path5526"
         d="m -93,8.5 c -0.339844,0 -0.5,0.2346178 -0.5,0.5 l 0,108.96875 c 0,0.82158 0.679323,1.49953 1.5,1.5 l 55,0.0313 c 0.05307,3e-5 0.997884,-0.008 1.6875,5e-5 C -25.213897,115.50472 -9.8992,97.046816 -0.95397,88.045006 0.52288,86.388522 0.15988,86.893689 0.49994,85.1563 L 0.5,9 C 0.5,8.6772826 0.33678,8.5 0,8.5 z"
         style="opacity:0.84653476;fill:url(#radialGradient5528);fill-opacity:1" />
    </mask>
    <radialGradient
       inkscape:collect="always"
       xlink:href="#linearGradient5982"
       id="radialGradient5528"
       gradientUnits="userSpaceOnUse"
       gradientTransform="matrix(1.6842105,-0.08429519,0.06886339,1.3758846,-159.197,-18.663233)"
       cx="64"
       cy="64.004021"
       fx="63.793392"
       fy="47.274845"
       r="47.5" />
    <linearGradient
       id="linearGradient5982"
       inkscape:collect="always">
      <stop
         id="stop5984"
         offset="0"
         style="stop-color:#ffffff;stop-opacity:1;" />
      <stop
         id="stop5986"
         offset="1"
         style="stop-color:#ffffff;stop-opacity:0;" />
    </linearGradient>
    <filter
       color-interpolation-filters="sRGB"
       inkscape:collect="always"
       id="filter5490">
      <feGaussianBlur
         inkscape:collect="always"
         stdDeviation="2.302901"
         id="feGaussianBlur5492" />
    </filter>
    <linearGradient
       inkscape:collect="always"
       xlink:href="#linearGradient3349"
       id="linearGradient5494"
       gradientUnits="userSpaceOnUse"
       gradientTransform="translate(0,0.5)"
       x1="70.999763"
       y1="40.292381"
       x2="70.999763"
       y2="89.867455" />
    <linearGradient
       inkscape:collect="always"
       xlink:href="#linearGradient3349"
       id="linearGradient5496"
       gradientUnits="userSpaceOnUse"
       x1="77.749763"
       y1="100.68314"
       x2="77.749763"
       y2="46.330647" />
    <radialGradient
       inkscape:collect="always"
       xlink:href="#linearGradient3342-5"
       id="radialGradient5498"
       gradientUnits="userSpaceOnUse"
       gradientTransform="matrix(1.2247067,0,0,1.1847166,-15.836881,-16.95092)"
       cx="70.478012"
       cy="89.574303"
       fx="70.478012"
       fy="89.574303"
       r="18.978512" />
    <radialGradient
       inkscape:collect="always"
       xlink:href="#linearGradient3409"
       id="radialGradient5500"
       gradientUnits="userSpaceOnUse"
       gradientTransform="matrix(1.2247067,0,0,1.1847166,-15.836259,-16.95092)"
       cx="70.766693"
       cy="66.595299"
       fx="70.766693"
       fy="66.595299"
       r="18.978512" />
    <radialGradient
       inkscape:collect="always"
       xlink:href="#linearGradient3362"
       id="radialGradient5502"
       gradientUnits="userSpaceOnUse"
       gradientTransform="matrix(2.0724635,0,0,2.0047918,-66.652305,-71.869984)"
       cx="59.94104"
       cy="66.96833"
       fx="59.94104"
       fy="66.96833"
       r="18.978512" />
    <radialGradient
       inkscape:collect="always"
       xlink:href="#linearGradient3409"
       id="radialGradient5504"
       gradientUnits="userSpaceOnUse"
       gradientTransform="matrix(2.0724635,0,0,2.0047918,-66.656198,-71.869984)"
       cx="56.692532"
       cy="75.276314"
       fx="56.692532"
       fy="75.276314"
       r="18.978512" />
    <linearGradient
       inkscape:collect="always"
       xlink:href="#linearGradient3689"
       id="linearGradient5506"
       gradientUnits="userSpaceOnUse"
       x1="71.9375"
       y1="92.231743"
       x2="71.9375"
       y2="73.141258" />
    <linearGradient
       inkscape:collect="always"
       xlink:href="#linearGradient3349-251"
       id="linearGradient5508"
       gradientUnits="userSpaceOnUse"
       gradientTransform="translate(0,0.5)"
       x1="70.999763"
       y1="40.292381"
       x2="70.999763"
       y2="89.867455" />
    <linearGradient
       id="linearGradient3349-251"
       inkscape:collect="always">
      <stop
         id="stop4974"
         offset="0"
         style="stop-color:#6e6e6e;stop-opacity:1" />
      <stop
         id="stop4976"
         offset="1"
         style="stop-color:#070707;stop-opacity:1" />
    </linearGradient>
    <linearGradient
       inkscape:collect="always"
       xlink:href="#linearGradient3349-760"
       id="linearGradient5510"
       gradientUnits="userSpaceOnUse"
       x1="77.749763"
       y1="100.68314"
       x2="77.749763"
       y2="46.330647" />
    <linearGradient
       id="linearGradient3349-760"
       inkscape:collect="always">
      <stop
         id="stop4980"
         offset="0"
         style="stop-color:#6e6e6e;stop-opacity:1" />
      <stop
         id="stop4982"
         offset="1"
         style="stop-color:#070707;stop-opacity:1" />
    </linearGradient>
    <radialGradient
       inkscape:collect="always"
       xlink:href="#linearGradient3342-5-226"
       id="radialGradient5512"
       gradientUnits="userSpaceOnUse"
       gradientTransform="matrix(1.2247067,0,0,1.1847166,-15.836881,-16.95092)"
       cx="70.478012"
       cy="89.574303"
       fx="70.478012"
       fy="89.574303"
       r="18.978512" />
    <linearGradient
       inkscape:collect="always"
       id="linearGradient3342-5-226">
      <stop
         style="stop-color:#7f7f7f;stop-opacity:1"
         offset="0"
         id="stop4986" />
      <stop
         style="stop-color:#262626;stop-opacity:1"
         offset="1"
         id="stop4988" />
    </linearGradient>
    <radialGradient
       inkscape:collect="always"
       xlink:href="#linearGradient3409-515"
       id="radialGradient5514"
       gradientUnits="userSpaceOnUse"
       gradientTransform="matrix(1.2247067,0,0,1.1847166,-15.836259,-16.95092)"
       cx="70.766693"
       cy="66.595299"
       fx="70.766693"
       fy="66.595299"
       r="18.978512" />
    <linearGradient
       inkscape:collect="always"
       id="linearGradient3409-515">
      <stop
         style="stop-color:#ffffff;stop-opacity:1;"
         offset="0"
         id="stop4992" />
      <stop
         style="stop-color:#ffffff;stop-opacity:0;"
         offset="1"
         id="stop4994" />
    </linearGradient>
    <radialGradient
       inkscape:collect="always"
       xlink:href="#linearGradient3362-256"
       id="radialGradient5516"
       gradientUnits="userSpaceOnUse"
       gradientTransform="matrix(2.0724635,0,0,2.0047918,-66.652305,-71.869984)"
       cx="59.94104"
       cy="66.96833"
       fx="59.94104"
       fy="66.96833"
       r="18.978512" />
    <linearGradient
       id="linearGradient3362-256"
       inkscape:collect="always">
      <stop
         id="stop4998"
         offset="0"
         style="stop-color:#dfdfdf;stop-opacity:1" />
      <stop
         id="stop5000"
         offset="1"
         style="stop-color:#dfdfdf;stop-opacity:0" />
    </linearGradient>
    <radialGradient
       inkscape:collect="always"
       xlink:href="#linearGradient3409-210"
       id="radialGradient5518"
       gradientUnits="userSpaceOnUse"
       gradientTransform="matrix(2.0724635,0,0,2.0047918,-66.656198,-71.869984)"
       cx="56.692532"
       cy="75.276314"
       fx="56.692532"
       fy="75.276314"
       r="18.978512" />
    <linearGradient
       inkscape:collect="always"
       id="linearGradient3409-210">
      <stop
         style="stop-color:#ffffff;stop-opacity:1;"
         offset="0"
         id="stop5004" />
      <stop
         style="stop-color:#ffffff;stop-opacity:0;"
         offset="1"
         id="stop5006" />
    </linearGradient>
    <linearGradient
       inkscape:collect="always"
       xlink:href="#linearGradient3689-530"
       id="linearGradient5520"
       gradientUnits="userSpaceOnUse"
       x1="71.9375"
       y1="92.231743"
       x2="71.9375"
       y2="73.141258" />
    <linearGradient
       id="linearGradient3689-530"
       inkscape:collect="always">
      <stop
         id="stop5010"
         offset="0"
         style="stop-color:#bfbfbf;stop-opacity:1" />
      <stop
         id="stop5012"
         offset="1"
         style="stop-color:#bfbfbf;stop-opacity:0" />
    </linearGradient>
    <clipPath
       clipPathUnits="userSpaceOnUse"
       id="clipPath3292">
      <path
         style="opacity:0.84653476;fill:url(#radialGradient3296);fill-opacity:1"
         d="m 42.990217,44.490646 c -0.167723,0 -0.246765,0.115791 -0.246765,0.246765 l 0,50.81807 c 0,0.405474 0.335266,0.740027 0.740294,0.740294 l 23.44263,0.01545 c 0.0262,1.7e-5 1.615757,-0.0039 1.956103,2.5e-5 3.22816,-2.222687 14.79003,-12.808723 19.204761,-17.251378 0.728868,-0.817526 0.225839,-0.18264 0.717547,-0.793328 l 2.9e-5,-33.52913 c 0,-0.159271 -0.08055,-0.246765 -0.246764,-0.246765 z"
         id="path3294"
         inkscape:connector-curvature="0"
         sodipodi:nodetypes="ccssscccccc" />
    </clipPath>
    <radialGradient
       inkscape:collect="always"
       xlink:href="#linearGradient5982-7"
       id="radialGradient3296"
       gradientUnits="userSpaceOnUse"
       gradientTransform="matrix(0.83120684,-0.04160213,0.03398608,0.67903905,11.060366,31.331566)"
       cx="64"
       cy="64.004021"
       fx="63.793392"
       fy="47.274845"
       r="47.5" />
  </defs>
  <sodipodi:namedview
     id="base"
     pagecolor="#ffffff"
     bordercolor="#666666"
     borderopacity="1.0"
     inkscape:pageopacity="0.0"
     inkscape:pageshadow="2"
     inkscape:zoom="3.2151261"
     inkscape:cx="14.262353"
     inkscape:cy="40.227271"
     inkscape:document-units="px"
     inkscape:current-layer="layer1"
     width="128px"
     height="128px"
     showgrid="true"
     inkscape:grid-points="true"
     showguides="true"
     inkscape:guide-bbox="true"
     inkscape:window-width="1224"
     inkscape:window-height="757"
     inkscape:window-x="0"
     inkscape:window-y="383"
     inkscape:snap-global="true"
     inkscape:window-maximized="0"
     inkscape:snap-page="true">
    <inkscape:grid
       id="GridFromPre046Settings"
       type="xygrid"
       originx="0px"
       originy="0px"
       spacingx="2.6666px"
       spacingy="2.6666px"
       color="#0000ff"
       empcolor="#0000ff"
       opacity="0.2"
       empopacity="0.4"
       empspacing="2"
       visible="true"
       enabled="true"
       snapvisiblegridlinesonly="true" />
    <sodipodi:guide
       orientation="1,0"
       position="-68,29.325902"
       id="guide4564" />
    <sodipodi:guide
       orientation="1,0"
       position="-121.62237,135.0574"
       id="guide3859" />
    <sodipodi:guide
       orientation="0,1"
       position="38.581514,-74.688154"
       id="guide4360" />
  </sodipodi:namedview>
  <metadata
     id="metadata2611">
    <rdf:RDF>
      <cc:Work
         rdf:about="">
        <dc:format>image/svg+xml</dc:format>
        <dc:type
           rdf:resource="http://purl.org/dc/dcmitype/StillImage" />
        <dc:title></dc:title>
      </cc:Work>
    </rdf:RDF>
  </metadata>
  <g
     inkscape:label="Livello 1"
     inkscape:groupmode="layer"
     id="layer1">
    <path
       style="opacity:0.45606695;fill:#000000;fill-opacity:1;filter:url(#filter4123)"
       d="m 13.333,5.3364 0,117.8304 49.8545,0.4332 c 2.115476,0.0184 4.528919,-1.77169 7,-4.25 0.71234,-0.71442 1.440746,-1.39395 2.15625,-2.09375 0.415612,-0.40649 0.832187,-0.81443 1.25,-1.21875 7.773958,-7.40962 26.98341,-25.122599 34.21875,-33.099999 0.42065,-0.42064 0.81207,-0.8111 1.15625,-1.1875 1.46444,-1.49766 2.76158,-2.8378 2.99375,-5.8625 L 112,75.156251 111.9972,5.3364 z"
       id="path5990"
       inkscape:connector-curvature="0"
       sodipodi:nodetypes="ccsssccccccc" />
    <path
       sodipodi:nodetypes="cccccccc"
       id="path3722"
       d="m 13.333,5.3364 0,118.3304 49.3318,0.3 c 1.527964,0 3.65713,-0.98408 6.387944,-2.83388 C 82.175824,111.57445 97.49744,91.890146 108.75009,80.500071 110.49334,78.756821 112,77.462561 112,73.300001 L 111.9972,5.3364 z"
       style="fill:#000000;fill-opacity:0.84716159;filter:url(#filter4111)"
       inkscape:connector-curvature="0" />
    <path
       style="fill:#ffffff;fill-opacity:1"
       d="m 13.333,5.3364 0,117.3304 49.3318,0 c 1.675283,0 3.914297,-0.56468 7,-3.6 8.870045,-8.72523 32.07567,-31.518599 39.33424,-38.842759 C 111.4396,77.761431 112,75.752871 112,73.500001 L 111.9972,5.3364 z"
       id="path34"
       sodipodi:nodetypes="cccssccc"
       inkscape:connector-curvature="0" />
    <path
       style="fill:url(#linearGradient4524-4);fill-opacity:1"
       d="m 16.5,8.000003 c -0.339844,0 -0.5,0.234618 -0.5,0.5 l 0,109.968747 c 0,0.82158 0.679323,1.5 1.5,1.5 l 48.6875,0 c 0.05308,0 0.810384,0.0234 1.5,0.0313 1.777664,-0.0401 3.131974,-0.75374 4.356035,-1.59328 1.051866,-0.29103 25.980435,-26.619589 35.101555,-35.809239 1.36239,-1.37262 2.18546,-3.94817 2.18546,-4.89561 l 5e-5,-69.201918 c 0,-0.322717 -0.16322,-0.5 -0.5,-0.5 z"
       id="path3967"
       inkscape:connector-curvature="0"
       sodipodi:nodetypes="ccsssccscccc" />
    <g
       id="g5468"
       style="opacity:0.58995816;filter:url(#filter5490)"
       transform="matrix(1.1262911,0,0,1.1304087,121.94482,-1.7600836)"
       mask="url(#mask5524)">
      <g
         transform="matrix(2.8075347,0,0,2.8075347,-266.50443,-194.14454)"
         id="g4614">
        <path
           sodipodi:nodetypes="ssssccsssccssssssssssssccssccssssssssssssssssccsscccsssccsssscsscsccccssssssss"
           inkscape:connector-curvature="0"
           id="path4616"
           d="m 70.6875,61.5 c -1.035205,0.01531 -2.078771,0.195296 -2.9375,0.625 -0.858729,0.429704 -1.567917,1.184136 -1.65625,2.1875 -0.07739,0.87908 0.495053,1.505355 0.84375,2.03125 0.174348,0.262948 0.300137,0.512054 0.34375,0.6875 0.04361,0.175446 0.05814,0.252903 -0.0625,0.4375 -0.204415,0.312797 -0.563898,0.520859 -1.0625,0.65625 -0.498602,0.135391 -1.133892,0.19942 -1.84375,0.1875 -1.419717,-0.02384 -3.078122,-0.28125 -4.5,-0.28125 l -0.5,0 0,0.5 c 0.009,1.649997 -0.106425,3.442762 -0.28125,4.9375 -0.174825,1.494738 -0.443015,2.751288 -0.65625,3.15625 -0.294293,0.558901 -0.5681,0.78355 -0.75,0.84375 -0.1819,0.0602 -0.405013,0.03286 -0.84375,-0.25 -0.273708,-0.176464 -0.714885,-0.606774 -1.1875,-1 -0.472615,-0.393226 -1.006447,-0.8125 -1.6875,-0.8125 -0.880066,0 -1.69834,0.597752 -2.3125,1.5 -0.61416,0.902248 -1.03125,2.147854 -1.03125,3.625 0,2.964896 1.753476,4.78125 3.40625,4.78125 0.682366,0 1.273787,-0.296119 1.8125,-0.625 0.538713,-0.328881 1.049495,-0.707729 1.46875,-0.9375 0.493594,-0.270512 0.912743,-0.37167 1.09375,-0.34375 0.0905,0.01396 0.106635,0.03429 0.15625,0.09375 0.04962,0.05946 0.12119,0.172916 0.15625,0.40625 0.02533,0.168594 0.07056,0.820009 0.125,1.625 0.05444,0.804991 0.127937,1.792736 0.1875,2.8125 0.119127,2.039528 0.232285,4.133073 0.28125,4.84375 l 0.01566,0.328125 c 1.326754,0.02205 3.76686,0.211879 5.296876,0.203126 1.6262,-0.0093 3.12593,-0.126592 4.0625,-0.9375 0.412846,-0.357453 0.486086,-0.932763 0.375,-1.375 -0.111086,-0.442237 -0.342611,-0.845881 -0.5625,-1.25 -0.219889,-0.404119 -0.421662,-0.797308 -0.53125,-1.125 -0.109588,-0.327692 -0.115671,-0.530377 -0.03125,-0.6875 0.277549,-0.51657 0.616274,-0.825804 1.15625,-1.03125 0.539976,-0.205446 1.303316,-0.29525 2.25,-0.28125 0.92036,0.01361 1.827622,0.198213 2.5,0.53125 0.672378,0.333037 1.071778,0.770452 1.125,1.375 0.02968,0.337164 -0.295052,0.795468 -0.6875,1.375 -0.196224,0.289766 -0.40093,0.617632 -0.5,1 -0.09907,0.382368 -0.0744,0.849239 0.1875,1.25 0.390582,0.597671 1.068973,0.891372 1.8125,1.0625 0.743527,0.171128 1.607315,0.231376 2.5,0.21875 C 80.00412,93.8185 81.947869,93.5625 83.25,93.5625 l 0.46875,0 L 83.75,93.125 c 0.120986,-1.307248 0.14863,-3.447835 -0.03125,-5.4375 -0.08994,-0.994833 -0.223041,-1.938101 -0.4375,-2.75 C 83.066791,84.125601 82.803552,83.438881 82.3125,83 l -0.03125,-0.03125 -0.03125,0 c -0.430697,-0.298858 -0.886605,-0.429923 -1.28125,-0.34375 -0.394645,0.08617 -0.650826,0.325207 -0.875,0.53125 -0.224174,0.206043 -0.40728,0.409785 -0.59375,0.53125 -0.157951,0.102888 -0.336332,0.121402 -0.53125,0.125 -1.018489,-0.486601 -2.068316,-1.981071 -2.0625,-3.625 0.0028,-0.804062 0.256581,-1.692635 0.65625,-2.375 0.399669,-0.682365 0.955351,-1.116167 1.40625,-1.21875 0.453356,-0.103142 1.03071,0.08438 1.78125,0.34375 0.75054,0.25937 1.657971,0.539143 2.65625,0.25 0.273206,-0.07913 0.352833,-0.233019 0.40625,-0.34375 0.05342,-0.110731 0.09726,-0.226278 0.125,-0.34375 0.05548,-0.234944 0.09377,-0.505248 0.125,-0.84375 0.06246,-0.677004 0.09502,-1.573136 0.09375,-2.5 -0.0013,-0.926864 -0.03194,-1.904177 -0.09375,-2.75 C 84.000687,69.560427 83.894933,68.858507 83.75,68.375 l -0.09375,-0.34375 -0.375,0 c -1.430835,0.008 -3.465311,0.165224 -5.3125,0.15625 -0.923594,-0.0045 -1.791007,-0.0416 -2.5,-0.15625 -0.708993,-0.114649 -1.267731,-0.330145 -1.5,-0.53125 -0.112888,-0.09774 -0.09404,-0.125026 -0.03125,-0.375 0.06279,-0.249974 0.251744,-0.632428 0.46875,-1.03125 0.217006,-0.398822 0.440017,-0.821557 0.59375,-1.28125 0.153733,-0.459693 0.231174,-1.011581 -0.03125,-1.5 -0.380491,-0.708163 -0.959821,-1.191888 -1.6875,-1.46875 C 72.553571,61.566888 71.699656,61.485032 70.6875,61.5 z"
           style="font-size:medium;font-style:normal;font-variant:normal;font-weight:normal;font-stretch:normal;text-indent:0;text-align:start;text-decoration:none;line-height:normal;letter-spacing:normal;word-spacing:normal;text-transform:none;direction:ltr;block-progression:tb;writing-mode:lr-tb;text-anchor:start;baseline-shift:baseline;color:#000000;fill:url(#linearGradient5494);fill-opacity:1;fill-rule:evenodd;stroke:none;stroke-width:0.99999988;marker:none;visibility:visible;display:inline;overflow:visible;filter:url(#filter4587);enable-background:accumulate;font-family:Sans;-inkscape-font-specification:Sans" />
        <path
           style="font-size:medium;font-style:normal;font-variant:normal;font-weight:normal;font-stretch:normal;text-indent:0;text-align:start;text-decoration:none;line-height:normal;letter-spacing:normal;word-spacing:normal;text-transform:none;direction:ltr;block-progression:tb;writing-mode:lr-tb;text-anchor:start;baseline-shift:baseline;color:#000000;fill:url(#linearGradient5496);fill-opacity:1;fill-rule:evenodd;stroke:none;stroke-width:0.99999988;marker:none;visibility:visible;display:inline;overflow:visible;enable-background:accumulate;font-family:Sans;-inkscape-font-specification:Sans"
           d="m 70.6875,61 c -1.035205,0.01531 -2.078771,0.195296 -2.9375,0.625 -0.858729,0.429704 -1.567917,1.184136 -1.65625,2.1875 -0.07739,0.87908 0.495053,1.505355 0.84375,2.03125 0.174348,0.262948 0.300137,0.512054 0.34375,0.6875 0.04361,0.175446 0.05814,0.252903 -0.0625,0.4375 -0.204415,0.312797 -0.563898,0.520859 -1.0625,0.65625 -0.498602,0.135391 -1.133892,0.19942 -1.84375,0.1875 -1.419717,-0.02384 -3.078122,-0.28125 -4.5,-0.28125 l -0.5,0 0,0.5 c 0.009,1.649997 -0.106425,3.442762 -0.28125,4.9375 -0.174825,1.494738 -0.443015,2.751288 -0.65625,3.15625 -0.294293,0.558901 -0.5681,0.78355 -0.75,0.84375 -0.1819,0.0602 -0.405013,0.03286 -0.84375,-0.25 -0.273708,-0.176464 -0.714885,-0.606774 -1.1875,-1 -0.472615,-0.393226 -1.006447,-0.8125 -1.6875,-0.8125 -0.880066,0 -1.69834,0.597752 -2.3125,1.5 -0.61416,0.902248 -1.03125,2.147854 -1.03125,3.625 0,2.964896 1.753476,4.78125 3.40625,4.78125 0.682366,0 1.273787,-0.296119 1.8125,-0.625 0.538713,-0.328881 1.049495,-0.707729 1.46875,-0.9375 0.493594,-0.270512 0.912743,-0.37167 1.09375,-0.34375 0.0905,0.01396 0.106635,0.03429 0.15625,0.09375 0.04962,0.05946 0.12119,0.172916 0.15625,0.40625 0.02533,0.168594 0.07056,0.820009 0.125,1.625 0.05444,0.804991 0.127937,1.792736 0.1875,2.8125 0.119127,2.039528 0.232285,4.133073 0.28125,4.84375 l 0.01566,0.328125 c 1.326754,0.02205 3.76686,0.211879 5.296876,0.203126 1.6262,-0.0093 3.12593,-0.126592 4.0625,-0.9375 0.412846,-0.357453 0.486086,-0.932763 0.375,-1.375 -0.111086,-0.442237 -0.342611,-0.845881 -0.5625,-1.25 -0.219889,-0.404119 -0.421662,-0.797308 -0.53125,-1.125 -0.109588,-0.327692 -0.115671,-0.530377 -0.03125,-0.6875 0.277549,-0.51657 0.616274,-0.825804 1.15625,-1.03125 0.539976,-0.205446 1.303316,-0.29525 2.25,-0.28125 0.92036,0.01361 1.827622,0.198213 2.5,0.53125 0.672378,0.333037 1.071778,0.770452 1.125,1.375 0.02968,0.337164 -0.295052,0.795468 -0.6875,1.375 -0.196224,0.289766 -0.40093,0.617632 -0.5,1 -0.09907,0.382368 -0.0744,0.849239 0.1875,1.25 0.390582,0.597671 1.068973,0.891372 1.8125,1.0625 0.743527,0.171128 1.607315,0.231376 2.5,0.21875 C 80.00412,93.3185 81.947869,93.0625 83.25,93.0625 l 0.46875,0 L 83.75,92.625 c 0.120986,-1.307248 0.14863,-3.447835 -0.03125,-5.4375 -0.08994,-0.994833 -0.223041,-1.938101 -0.4375,-2.75 C 83.066791,83.625601 82.803552,82.938881 82.3125,82.5 l -0.03125,-0.03125 -0.03125,0 c -0.430697,-0.298858 -0.886605,-0.429923 -1.28125,-0.34375 -0.394645,0.08617 -0.650826,0.325207 -0.875,0.53125 -0.224174,0.206043 -0.40728,0.409785 -0.59375,0.53125 -0.157951,0.102888 -0.336332,0.121402 -0.53125,0.125 -1.018489,-0.486601 -2.068316,-1.981071 -2.0625,-3.625 0.0028,-0.804062 0.256581,-1.692635 0.65625,-2.375 0.399669,-0.682365 0.955351,-1.116167 1.40625,-1.21875 0.453356,-0.103142 1.03071,0.08438 1.78125,0.34375 0.75054,0.25937 1.657971,0.539143 2.65625,0.25 0.273206,-0.07913 0.352833,-0.233019 0.40625,-0.34375 0.05342,-0.110731 0.09726,-0.226278 0.125,-0.34375 0.05548,-0.234944 0.09377,-0.505248 0.125,-0.84375 0.06246,-0.677004 0.09502,-1.573136 0.09375,-2.5 -0.0013,-0.926864 -0.03194,-1.904177 -0.09375,-2.75 C 84.000687,69.060427 83.894933,68.358507 83.75,67.875 l -0.09375,-0.34375 -0.375,0 c -1.430835,0.008 -3.465311,0.165224 -5.3125,0.15625 -0.923594,-0.0045 -1.791007,-0.0416 -2.5,-0.15625 -0.708993,-0.114649 -1.267731,-0.330145 -1.5,-0.53125 -0.112888,-0.09774 -0.09404,-0.125026 -0.03125,-0.375 0.06279,-0.249974 0.251744,-0.632428 0.46875,-1.03125 0.217006,-0.398822 0.440017,-0.821557 0.59375,-1.28125 0.153733,-0.459693 0.231174,-1.011581 -0.03125,-1.5 -0.380491,-0.708163 -0.959821,-1.191888 -1.6875,-1.46875 C 72.553571,61.066888 71.699656,60.985032 70.6875,61 z"
           id="path4618"
           inkscape:connector-curvature="0"
           sodipodi:nodetypes="ssssccsssccssssssssssssccssccssssssssssssssssccsscccsssccsssscsscsccccssssssss" />
        <path
           style="fill:url(#radialGradient5498);fill-opacity:1;fill-rule:evenodd;stroke:none"
           d="m 70.6875,61.5 c -1.955526,0.02892 -3.951914,0.732643 -4.09375,2.34375 -0.107445,1.220462 1.794612,2.23815 1.03125,3.40625 -1.15006,1.759827 -5.088491,0.78125 -7.8125,0.78125 0.01825,3.344002 -0.402346,7.177477 -1,8.3125 -0.644075,1.223184 -1.309933,1.427624 -2.3125,0.78125 -0.718909,-0.463494 -1.699589,-1.71875 -2.59375,-1.71875 -1.273127,0 -2.84375,1.860058 -2.84375,4.625 0,2.764942 1.65858,4.28125 2.90625,4.28125 1.052494,0 2.093162,-0.985884 3.03125,-1.5 1.077732,-0.590647 1.978711,-0.650333 2.15625,0.53125 0.137909,0.917833 0.493928,7.828977 0.589844,9.221094 l 0.06641,0.0039 c 2.795707,0.01564 7.043989,0.598993 8.49375,-0.65625 1.051467,-0.910389 -1.56869,-3.021416 -0.875,-4.3125 0.65804,-1.224733 1.88491,-1.591468 3.84375,-1.5625 1.955526,0.02892 3.983164,0.732643 4.125,2.34375 0.107445,1.220462 -1.825862,2.23815 -1.0625,3.40625 1.15006,1.759827 6.188491,0.78125 8.9125,0.78125 0.233769,-2.52586 0.102412,-8.457091 -1.28125,-9.69375 -1.437371,-0.997382 -1.633157,1.086074 -3.125,0.96875 -1.283499,-0.553851 -2.444177,-2.268916 -2.4375,-4.15625 0.0064,-1.813043 1.127999,-3.795828 2.4375,-4.09375 1.315218,-0.299222 2.763635,1.10982 4.4375,0.625 0.492997,-0.142792 0.472953,-6.609693 0,-8.1875 -2.795707,0.01564 -8.175239,0.598993 -9.625,-0.65625 -1.051467,-0.910389 1.56869,-3.021416 0.875,-4.3125 C 73.87321,61.837767 72.64634,61.471032 70.6875,61.5 z"
           id="path4620"
           inkscape:connector-curvature="0"
           sodipodi:nodetypes="ssscsssssssccssssscccssscsss" />
        <path
           style="fill:url(#radialGradient5500);fill-opacity:1;fill-rule:evenodd;stroke:none"
           d="m 70.688122,61.5 c -1.95553,0.02892 -3.95191,0.732643 -4.09375,2.34375 -0.0048,0.05421 -0.0028,0.102811 0,0.15625 0.1652,-1.588525 2.15116,-2.283771 4.09375,-2.3125 1.95884,-0.02897 3.18572,0.337773 3.84375,1.5625 0.06768,0.125959 0.11392,0.266558 0.125,0.40625 0.0123,-0.204473 -0.02911,-0.415277 -0.125,-0.59375 -0.65803,-1.224727 -1.88491,-1.591468 -3.84375,-1.5625 z m -2.90625,5.3125 c -0.02126,0.142002 -0.06083,0.291488 -0.15625,0.4375 -1.15006,1.759827 -5.08849,0.78125 -7.8125,0.78125 3.3e-4,0.06113 -4e-5,0.126058 0,0.1875 2.72401,0 6.66244,0.978577 7.8125,-0.78125 0.14313,-0.219019 0.16972,-0.414229 0.15625,-0.625 z m 5.625,0.15625 c -0.0076,0.229394 0.06107,0.430164 0.25,0.59375 1.44977,1.255243 6.8293,0.67189 9.625,0.65625 0.11824,0.394452 0.22056,1.107118 0.28125,1.9375 -0.06055,-0.906769 -0.15477,-1.703062 -0.28125,-2.125 -2.7957,0.01564 -8.17523,0.598993 -9.625,-0.65625 -0.13143,-0.113799 -0.21966,-0.258878 -0.25,-0.40625 z m -13.875,6.0625 c -0.17757,1.518247 -0.41993,2.744989 -0.71875,3.3125 -0.64407,1.223184 -1.30993,1.427624 -2.3125,0.78125 -0.71891,-0.463494 -1.69959,-1.71875 -2.59375,-1.71875 -1.148663,0 -2.520285,1.516983 -2.78125,3.84375 0.318033,-2.208322 1.667264,-3.65625 2.78125,-3.65625 0.89416,0 1.87484,1.255256 2.59375,1.71875 1.00257,0.646374 1.66843,0.441934 2.3125,-0.78125 0.31023,-0.589164 0.54055,-1.902553 0.71875,-3.5 z m 16.875,6.84375 c -0.0067,1.887334 1.15401,3.602399 2.4375,4.15625 1.49185,0.117324 1.68763,-1.966132 3.125,-0.96875 0.69183,0.618329 1.07342,2.421877 1.25,4.375 -0.16904,-2.024718 -0.53617,-3.924517 -1.25,-4.5625 -1.43737,-0.997382 -1.63315,1.086074 -3.125,0.96875 -1.24009,-0.535124 -2.36883,-2.157577 -2.4375,-3.96875 z m -9.09375,8.3125 c -0.09206,1.001832 1.10925,2.326368 1.21875,3.25 0.0837,-0.871882 -1.15523,-2.19434 -1.21875,-3.25 z m 8.0625,0.34375 c -0.04265,0.921479 -1.1111,1.734098 -1.1875,2.59375 0.21666,-0.836226 1.29934,-1.615904 1.21875,-2.53125 -0.0021,-0.02366 -0.02836,-0.03923 -0.03125,-0.0625 z"
           id="path4622"
           inkscape:connector-curvature="0" />
        <path
           inkscape:connector-curvature="0"
           style="fill:url(#radialGradient5502);fill-opacity:1;fill-rule:evenodd;stroke:none"
           d="m 70.6875,61.5 c -1.955526,0.02892 -3.951914,0.732643 -4.09375,2.34375 -0.107445,1.220462 1.794612,2.23815 1.03125,3.40625 -1.15006,1.759827 -5.088491,0.78125 -7.8125,0.78125 0.01825,3.344002 -0.402346,7.177477 -1,8.3125 -0.644075,1.223184 -1.309933,1.427624 -2.3125,0.78125 -0.718909,-0.463494 -1.699589,-1.71875 -2.59375,-1.71875 -1.273127,0 -2.84375,1.860058 -2.84375,4.625 0,0.05551 -0.0013,0.101745 0,0.15625 12.952189,-1.175713 24.344221,-4.591076 32.53125,-9.40625 -0.05589,-1.163268 -0.158511,-2.236281 -0.3125,-2.75 -2.795707,0.01564 -8.175239,0.598993 -9.625,-0.65625 -1.051467,-0.910389 1.56869,-3.021416 0.875,-4.3125 C 73.873206,61.837773 72.64634,61.471032 70.6875,61.5 z"
           id="path4624" />
        <path
           style="fill:url(#radialGradient5504);fill-opacity:1;fill-rule:evenodd;stroke:none"
           d="m 74.089857,62.46875 c 0.09062,0.118531 0.17457,0.265871 0.25,0.40625 0.69369,1.291084 -1.92647,3.402111 -0.875,4.3125 0.0067,0.0058 0.02442,-0.0057 0.03125,0 -0.58107,-0.98679 1.68158,-2.914609 1.03125,-4.125 -0.12543,-0.233446 -0.26961,-0.419448 -0.4375,-0.59375 z m 9.03125,5.5625 c 0.13334,0.553371 0.23001,1.496171 0.28125,2.5625 -8.1469,4.791572 -19.4703,8.183222 -32.34375,9.375 -1.9e-4,0.02141 0,0.04098 0,0.0625 0,0.05551 -0.001,0.101745 0,0.15625 12.95219,-1.175713 24.34422,-4.591076 32.53125,-9.40625 -0.0559,-1.163268 -0.15851,-2.236281 -0.3125,-2.75 -0.04417,2.47e-4 -0.11081,-5.21e-4 -0.15625,0 z"
           id="path4626"
           inkscape:connector-curvature="0" />
        <path
           sodipodi:nodetypes="ssscsssssssccssssscccssscsss"
           inkscape:connector-curvature="0"
           id="path4628"
           d="m 70.6875,61.5 c -1.955526,0.02892 -3.951914,0.732643 -4.09375,2.34375 -0.107445,1.220462 1.794612,2.23815 1.03125,3.40625 -1.15006,1.759827 -5.088491,0.78125 -7.8125,0.78125 0.01825,3.344002 -0.402346,7.177477 -1,8.3125 -0.644075,1.223184 -1.309933,1.427624 -2.3125,0.78125 -0.718909,-0.463494 -1.699589,-1.71875 -2.59375,-1.71875 -1.273127,0 -2.84375,1.860058 -2.84375,4.625 0,2.764942 1.65858,4.28125 2.90625,4.28125 1.052494,0 2.093162,-0.985884 3.03125,-1.5 1.077732,-0.590647 1.978711,-0.650333 2.15625,0.53125 0.137909,0.917833 0.493928,7.828977 0.589844,9.221094 l 0.06641,0.0039 c 2.795707,0.01564 7.043989,0.598993 8.49375,-0.65625 1.051467,-0.910389 -1.56869,-3.021416 -0.875,-4.3125 0.65804,-1.224733 1.88491,-1.591468 3.84375,-1.5625 1.955526,0.02892 3.983164,0.732643 4.125,2.34375 0.107445,1.220462 -1.825862,2.23815 -1.0625,3.40625 1.15006,1.759827 6.188491,0.78125 8.9125,0.78125 0.233769,-2.52586 0.102412,-8.457091 -1.28125,-9.69375 -1.437371,-0.997382 -1.633157,1.086074 -3.125,0.96875 -1.283499,-0.553851 -2.444177,-2.268916 -2.4375,-4.15625 0.0064,-1.813043 1.127999,-3.795828 2.4375,-4.09375 1.315218,-0.299222 2.763635,1.10982 4.4375,0.625 0.492997,-0.142792 0.472953,-6.609693 0,-8.1875 -2.795707,0.01564 -8.175239,0.598993 -9.625,-0.65625 -1.051467,-0.910389 1.56869,-3.021416 0.875,-4.3125 C 73.87321,61.837767 72.64634,61.471032 70.6875,61.5 z"
           style="fill:none;stroke:url(#linearGradient5506);stroke-width:0.2;stroke-miterlimit:4;stroke-opacity:1;stroke-dasharray:none" />
      </g>
      <g
         style="opacity:0.83263598"
         id="g4644"
         transform="matrix(2.8075347,0,0,2.8075347,-266.50443,-194.14454)">
        <path
           style="font-size:medium;font-style:normal;font-variant:normal;font-weight:normal;font-stretch:normal;text-indent:0;text-align:start;text-decoration:none;line-height:normal;letter-spacing:normal;word-spacing:normal;text-transform:none;direction:ltr;block-progression:tb;writing-mode:lr-tb;text-anchor:start;baseline-shift:baseline;color:#000000;fill:url(#linearGradient5508);fill-opacity:1;fill-rule:evenodd;stroke:none;stroke-width:0.99999988;marker:none;visibility:visible;display:inline;overflow:visible;filter:url(#filter4587);enable-background:accumulate;font-family:Sans;-inkscape-font-specification:Sans"
           d="m 70.6875,61.5 c -1.035205,0.01531 -2.078771,0.195296 -2.9375,0.625 -0.858729,0.429704 -1.567917,1.184136 -1.65625,2.1875 -0.07739,0.87908 0.495053,1.505355 0.84375,2.03125 0.174348,0.262948 0.300137,0.512054 0.34375,0.6875 0.04361,0.175446 0.05814,0.252903 -0.0625,0.4375 -0.204415,0.312797 -0.563898,0.520859 -1.0625,0.65625 -0.498602,0.135391 -1.133892,0.19942 -1.84375,0.1875 -1.419717,-0.02384 -3.078122,-0.28125 -4.5,-0.28125 l -0.5,0 0,0.5 c 0.009,1.649997 -0.106425,3.442762 -0.28125,4.9375 -0.174825,1.494738 -0.443015,2.751288 -0.65625,3.15625 -0.294293,0.558901 -0.5681,0.78355 -0.75,0.84375 -0.1819,0.0602 -0.405013,0.03286 -0.84375,-0.25 -0.273708,-0.176464 -0.714885,-0.606774 -1.1875,-1 -0.472615,-0.393226 -1.006447,-0.8125 -1.6875,-0.8125 -0.880066,0 -1.69834,0.597752 -2.3125,1.5 -0.61416,0.902248 -1.03125,2.147854 -1.03125,3.625 0,2.964896 1.753476,4.78125 3.40625,4.78125 0.682366,0 1.273787,-0.296119 1.8125,-0.625 0.538713,-0.328881 1.049495,-0.707729 1.46875,-0.9375 0.493594,-0.270512 0.912743,-0.37167 1.09375,-0.34375 0.0905,0.01396 0.106635,0.03429 0.15625,0.09375 0.04962,0.05946 0.12119,0.172916 0.15625,0.40625 0.02533,0.168594 0.07056,0.820009 0.125,1.625 0.05444,0.804991 0.127937,1.792736 0.1875,2.8125 0.119127,2.039528 0.232285,4.133073 0.28125,4.84375 l 0.01566,0.328125 c 1.326754,0.02205 3.76686,0.211879 5.296876,0.203126 1.6262,-0.0093 3.12593,-0.126592 4.0625,-0.9375 0.412846,-0.357453 0.486086,-0.932763 0.375,-1.375 -0.111086,-0.442237 -0.342611,-0.845881 -0.5625,-1.25 -0.219889,-0.404119 -0.421662,-0.797308 -0.53125,-1.125 -0.109588,-0.327692 -0.115671,-0.530377 -0.03125,-0.6875 0.277549,-0.51657 0.616274,-0.825804 1.15625,-1.03125 0.539976,-0.205446 1.303316,-0.29525 2.25,-0.28125 0.92036,0.01361 1.827622,0.198213 2.5,0.53125 0.672378,0.333037 1.071778,0.770452 1.125,1.375 0.02968,0.337164 -0.295052,0.795468 -0.6875,1.375 -0.196224,0.289766 -0.40093,0.617632 -0.5,1 -0.09907,0.382368 -0.0744,0.849239 0.1875,1.25 0.390582,0.597671 1.068973,0.891372 1.8125,1.0625 0.743527,0.171128 1.607315,0.231376 2.5,0.21875 C 80.00412,93.8185 81.947869,93.5625 83.25,93.5625 l 0.46875,0 L 83.75,93.125 c 0.120986,-1.307248 0.14863,-3.447835 -0.03125,-5.4375 -0.08994,-0.994833 -0.223041,-1.938101 -0.4375,-2.75 C 83.066791,84.125601 82.803552,83.438881 82.3125,83 l -0.03125,-0.03125 -0.03125,0 c -0.430697,-0.298858 -0.886605,-0.429923 -1.28125,-0.34375 -0.394645,0.08617 -0.650826,0.325207 -0.875,0.53125 -0.224174,0.206043 -0.40728,0.409785 -0.59375,0.53125 -0.157951,0.102888 -0.336332,0.121402 -0.53125,0.125 -1.018489,-0.486601 -2.068316,-1.981071 -2.0625,-3.625 0.0028,-0.804062 0.256581,-1.692635 0.65625,-2.375 0.399669,-0.682365 0.955351,-1.116167 1.40625,-1.21875 0.453356,-0.103142 1.03071,0.08438 1.78125,0.34375 0.75054,0.25937 1.657971,0.539143 2.65625,0.25 0.273206,-0.07913 0.352833,-0.233019 0.40625,-0.34375 0.05342,-0.110731 0.09726,-0.226278 0.125,-0.34375 0.05548,-0.234944 0.09377,-0.505248 0.125,-0.84375 0.06246,-0.677004 0.09502,-1.573136 0.09375,-2.5 -0.0013,-0.926864 -0.03194,-1.904177 -0.09375,-2.75 C 84.000687,69.560427 83.894933,68.858507 83.75,68.375 l -0.09375,-0.34375 -0.375,0 c -1.430835,0.008 -3.465311,0.165224 -5.3125,0.15625 -0.923594,-0.0045 -1.791007,-0.0416 -2.5,-0.15625 -0.708993,-0.114649 -1.267731,-0.330145 -1.5,-0.53125 -0.112888,-0.09774 -0.09404,-0.125026 -0.03125,-0.375 0.06279,-0.249974 0.251744,-0.632428 0.46875,-1.03125 0.217006,-0.398822 0.440017,-0.821557 0.59375,-1.28125 0.153733,-0.459693 0.231174,-1.011581 -0.03125,-1.5 -0.380491,-0.708163 -0.959821,-1.191888 -1.6875,-1.46875 C 72.553571,61.566888 71.699656,61.485032 70.6875,61.5 z"
           id="path4646"
           inkscape:connector-curvature="0"
           sodipodi:nodetypes="ssssccsssccssssssssssssccssccssssssssssssssssccsscccsssccsssscsscsccccssssssss" />
        <path
           sodipodi:nodetypes="ssssccsssccssssssssssssccssccssssssssssssssssccsscccsssccsssscsscsccccssssssss"
           inkscape:connector-curvature="0"
           id="path4648"
           d="m 70.6875,61 c -1.035205,0.01531 -2.078771,0.195296 -2.9375,0.625 -0.858729,0.429704 -1.567917,1.184136 -1.65625,2.1875 -0.07739,0.87908 0.495053,1.505355 0.84375,2.03125 0.174348,0.262948 0.300137,0.512054 0.34375,0.6875 0.04361,0.175446 0.05814,0.252903 -0.0625,0.4375 -0.204415,0.312797 -0.563898,0.520859 -1.0625,0.65625 -0.498602,0.135391 -1.133892,0.19942 -1.84375,0.1875 -1.419717,-0.02384 -3.078122,-0.28125 -4.5,-0.28125 l -0.5,0 0,0.5 c 0.009,1.649997 -0.106425,3.442762 -0.28125,4.9375 -0.174825,1.494738 -0.443015,2.751288 -0.65625,3.15625 -0.294293,0.558901 -0.5681,0.78355 -0.75,0.84375 -0.1819,0.0602 -0.405013,0.03286 -0.84375,-0.25 -0.273708,-0.176464 -0.714885,-0.606774 -1.1875,-1 -0.472615,-0.393226 -1.006447,-0.8125 -1.6875,-0.8125 -0.880066,0 -1.69834,0.597752 -2.3125,1.5 -0.61416,0.902248 -1.03125,2.147854 -1.03125,3.625 0,2.964896 1.753476,4.78125 3.40625,4.78125 0.682366,0 1.273787,-0.296119 1.8125,-0.625 0.538713,-0.328881 1.049495,-0.707729 1.46875,-0.9375 0.493594,-0.270512 0.912743,-0.37167 1.09375,-0.34375 0.0905,0.01396 0.106635,0.03429 0.15625,0.09375 0.04962,0.05946 0.12119,0.172916 0.15625,0.40625 0.02533,0.168594 0.07056,0.820009 0.125,1.625 0.05444,0.804991 0.127937,1.792736 0.1875,2.8125 0.119127,2.039528 0.232285,4.133073 0.28125,4.84375 l 0.01566,0.328125 c 1.326754,0.02205 3.76686,0.211879 5.296876,0.203126 1.6262,-0.0093 3.12593,-0.126592 4.0625,-0.9375 0.412846,-0.357453 0.486086,-0.932763 0.375,-1.375 -0.111086,-0.442237 -0.342611,-0.845881 -0.5625,-1.25 -0.219889,-0.404119 -0.421662,-0.797308 -0.53125,-1.125 -0.109588,-0.327692 -0.115671,-0.530377 -0.03125,-0.6875 0.277549,-0.51657 0.616274,-0.825804 1.15625,-1.03125 0.539976,-0.205446 1.303316,-0.29525 2.25,-0.28125 0.92036,0.01361 1.827622,0.198213 2.5,0.53125 0.672378,0.333037 1.071778,0.770452 1.125,1.375 0.02968,0.337164 -0.295052,0.795468 -0.6875,1.375 -0.196224,0.289766 -0.40093,0.617632 -0.5,1 -0.09907,0.382368 -0.0744,0.849239 0.1875,1.25 0.390582,0.597671 1.068973,0.891372 1.8125,1.0625 0.743527,0.171128 1.607315,0.231376 2.5,0.21875 C 80.00412,93.3185 81.947869,93.0625 83.25,93.0625 l 0.46875,0 L 83.75,92.625 c 0.120986,-1.307248 0.14863,-3.447835 -0.03125,-5.4375 -0.08994,-0.994833 -0.223041,-1.938101 -0.4375,-2.75 C 83.066791,83.625601 82.803552,82.938881 82.3125,82.5 l -0.03125,-0.03125 -0.03125,0 c -0.430697,-0.298858 -0.886605,-0.429923 -1.28125,-0.34375 -0.394645,0.08617 -0.650826,0.325207 -0.875,0.53125 -0.224174,0.206043 -0.40728,0.409785 -0.59375,0.53125 -0.157951,0.102888 -0.336332,0.121402 -0.53125,0.125 -1.018489,-0.486601 -2.068316,-1.981071 -2.0625,-3.625 0.0028,-0.804062 0.256581,-1.692635 0.65625,-2.375 0.399669,-0.682365 0.955351,-1.116167 1.40625,-1.21875 0.453356,-0.103142 1.03071,0.08438 1.78125,0.34375 0.75054,0.25937 1.657971,0.539143 2.65625,0.25 0.273206,-0.07913 0.352833,-0.233019 0.40625,-0.34375 0.05342,-0.110731 0.09726,-0.226278 0.125,-0.34375 0.05548,-0.234944 0.09377,-0.505248 0.125,-0.84375 0.06246,-0.677004 0.09502,-1.573136 0.09375,-2.5 -0.0013,-0.926864 -0.03194,-1.904177 -0.09375,-2.75 C 84.000687,69.060427 83.894933,68.358507 83.75,67.875 l -0.09375,-0.34375 -0.375,0 c -1.430835,0.008 -3.465311,0.165224 -5.3125,0.15625 -0.923594,-0.0045 -1.791007,-0.0416 -2.5,-0.15625 -0.708993,-0.114649 -1.267731,-0.330145 -1.5,-0.53125 -0.112888,-0.09774 -0.09404,-0.125026 -0.03125,-0.375 0.06279,-0.249974 0.251744,-0.632428 0.46875,-1.03125 0.217006,-0.398822 0.440017,-0.821557 0.59375,-1.28125 0.153733,-0.459693 0.231174,-1.011581 -0.03125,-1.5 -0.380491,-0.708163 -0.959821,-1.191888 -1.6875,-1.46875 C 72.553571,61.066888 71.699656,60.985032 70.6875,61 z"
           style="font-size:medium;font-style:normal;font-variant:normal;font-weight:normal;font-stretch:normal;text-indent:0;text-align:start;text-decoration:none;line-height:normal;letter-spacing:normal;word-spacing:normal;text-transform:none;direction:ltr;block-progression:tb;writing-mode:lr-tb;text-anchor:start;baseline-shift:baseline;color:#000000;fill:url(#linearGradient5510);fill-opacity:1;fill-rule:evenodd;stroke:none;stroke-width:0.99999988;marker:none;visibility:visible;display:inline;overflow:visible;enable-background:accumulate;font-family:Sans;-inkscape-font-specification:Sans" />
        <path
           sodipodi:nodetypes="ssscsssssssccssssscccssscsss"
           inkscape:connector-curvature="0"
           id="path4650"
           d="m 70.6875,61.5 c -1.955526,0.02892 -3.951914,0.732643 -4.09375,2.34375 -0.107445,1.220462 1.794612,2.23815 1.03125,3.40625 -1.15006,1.759827 -5.088491,0.78125 -7.8125,0.78125 0.01825,3.344002 -0.402346,7.177477 -1,8.3125 -0.644075,1.223184 -1.309933,1.427624 -2.3125,0.78125 -0.718909,-0.463494 -1.699589,-1.71875 -2.59375,-1.71875 -1.273127,0 -2.84375,1.860058 -2.84375,4.625 0,2.764942 1.65858,4.28125 2.90625,4.28125 1.052494,0 2.093162,-0.985884 3.03125,-1.5 1.077732,-0.590647 1.978711,-0.650333 2.15625,0.53125 0.137909,0.917833 0.493928,7.828977 0.589844,9.221094 l 0.06641,0.0039 c 2.795707,0.01564 7.043989,0.598993 8.49375,-0.65625 1.051467,-0.910389 -1.56869,-3.021416 -0.875,-4.3125 0.65804,-1.224733 1.88491,-1.591468 3.84375,-1.5625 1.955526,0.02892 3.983164,0.732643 4.125,2.34375 0.107445,1.220462 -1.825862,2.23815 -1.0625,3.40625 1.15006,1.759827 6.188491,0.78125 8.9125,0.78125 0.233769,-2.52586 0.102412,-8.457091 -1.28125,-9.69375 -1.437371,-0.997382 -1.633157,1.086074 -3.125,0.96875 -1.283499,-0.553851 -2.444177,-2.268916 -2.4375,-4.15625 0.0064,-1.813043 1.127999,-3.795828 2.4375,-4.09375 1.315218,-0.299222 2.763635,1.10982 4.4375,0.625 0.492997,-0.142792 0.472953,-6.609693 0,-8.1875 -2.795707,0.01564 -8.175239,0.598993 -9.625,-0.65625 -1.051467,-0.910389 1.56869,-3.021416 0.875,-4.3125 C 73.87321,61.837767 72.64634,61.471032 70.6875,61.5 z"
           style="fill:url(#radialGradient5512);fill-opacity:1;fill-rule:evenodd;stroke:none" />
        <path
           inkscape:connector-curvature="0"
           id="path4652"
           d="m 70.688122,61.5 c -1.95553,0.02892 -3.95191,0.732643 -4.09375,2.34375 -0.0048,0.05421 -0.0028,0.102811 0,0.15625 0.1652,-1.588525 2.15116,-2.283771 4.09375,-2.3125 1.95884,-0.02897 3.18572,0.337773 3.84375,1.5625 0.06768,0.125959 0.11392,0.266558 0.125,0.40625 0.0123,-0.204473 -0.02911,-0.415277 -0.125,-0.59375 -0.65803,-1.224727 -1.88491,-1.591468 -3.84375,-1.5625 z m -2.90625,5.3125 c -0.02126,0.142002 -0.06083,0.291488 -0.15625,0.4375 -1.15006,1.759827 -5.08849,0.78125 -7.8125,0.78125 3.3e-4,0.06113 -4e-5,0.126058 0,0.1875 2.72401,0 6.66244,0.978577 7.8125,-0.78125 0.14313,-0.219019 0.16972,-0.414229 0.15625,-0.625 z m 5.625,0.15625 c -0.0076,0.229394 0.06107,0.430164 0.25,0.59375 1.44977,1.255243 6.8293,0.67189 9.625,0.65625 0.11824,0.394452 0.22056,1.107118 0.28125,1.9375 -0.06055,-0.906769 -0.15477,-1.703062 -0.28125,-2.125 -2.7957,0.01564 -8.17523,0.598993 -9.625,-0.65625 -0.13143,-0.113799 -0.21966,-0.258878 -0.25,-0.40625 z m -13.875,6.0625 c -0.17757,1.518247 -0.41993,2.744989 -0.71875,3.3125 -0.64407,1.223184 -1.30993,1.427624 -2.3125,0.78125 -0.71891,-0.463494 -1.69959,-1.71875 -2.59375,-1.71875 -1.148663,0 -2.520285,1.516983 -2.78125,3.84375 0.318033,-2.208322 1.667264,-3.65625 2.78125,-3.65625 0.89416,0 1.87484,1.255256 2.59375,1.71875 1.00257,0.646374 1.66843,0.441934 2.3125,-0.78125 0.31023,-0.589164 0.54055,-1.902553 0.71875,-3.5 z m 16.875,6.84375 c -0.0067,1.887334 1.15401,3.602399 2.4375,4.15625 1.49185,0.117324 1.68763,-1.966132 3.125,-0.96875 0.69183,0.618329 1.07342,2.421877 1.25,4.375 -0.16904,-2.024718 -0.53617,-3.924517 -1.25,-4.5625 -1.43737,-0.997382 -1.63315,1.086074 -3.125,0.96875 -1.24009,-0.535124 -2.36883,-2.157577 -2.4375,-3.96875 z m -9.09375,8.3125 c -0.09206,1.001832 1.10925,2.326368 1.21875,3.25 0.0837,-0.871882 -1.15523,-2.19434 -1.21875,-3.25 z m 8.0625,0.34375 c -0.04265,0.921479 -1.1111,1.734098 -1.1875,2.59375 0.21666,-0.836226 1.29934,-1.615904 1.21875,-2.53125 -0.0021,-0.02366 -0.02836,-0.03923 -0.03125,-0.0625 z"
           style="fill:url(#radialGradient5514);fill-opacity:1;fill-rule:evenodd;stroke:none" />
        <path
           id="path4654"
           d="m 70.6875,61.5 c -1.955526,0.02892 -3.951914,0.732643 -4.09375,2.34375 -0.107445,1.220462 1.794612,2.23815 1.03125,3.40625 -1.15006,1.759827 -5.088491,0.78125 -7.8125,0.78125 0.01825,3.344002 -0.402346,7.177477 -1,8.3125 -0.644075,1.223184 -1.309933,1.427624 -2.3125,0.78125 -0.718909,-0.463494 -1.699589,-1.71875 -2.59375,-1.71875 -1.273127,0 -2.84375,1.860058 -2.84375,4.625 0,0.05551 -0.0013,0.101745 0,0.15625 12.952189,-1.175713 24.344221,-4.591076 32.53125,-9.40625 -0.05589,-1.163268 -0.158511,-2.236281 -0.3125,-2.75 -2.795707,0.01564 -8.175239,0.598993 -9.625,-0.65625 -1.051467,-0.910389 1.56869,-3.021416 0.875,-4.3125 C 73.873206,61.837773 72.64634,61.471032 70.6875,61.5 z"
           style="fill:url(#radialGradient5516);fill-opacity:1;fill-rule:evenodd;stroke:none"
           inkscape:connector-curvature="0" />
        <path
           inkscape:connector-curvature="0"
           id="path4656"
           d="m 74.089857,62.46875 c 0.09062,0.118531 0.17457,0.265871 0.25,0.40625 0.69369,1.291084 -1.92647,3.402111 -0.875,4.3125 0.0067,0.0058 0.02442,-0.0057 0.03125,0 -0.58107,-0.98679 1.68158,-2.914609 1.03125,-4.125 -0.12543,-0.233446 -0.26961,-0.419448 -0.4375,-0.59375 z m 9.03125,5.5625 c 0.13334,0.553371 0.23001,1.496171 0.28125,2.5625 -8.1469,4.791572 -19.4703,8.183222 -32.34375,9.375 -1.9e-4,0.02141 0,0.04098 0,0.0625 0,0.05551 -0.001,0.101745 0,0.15625 12.95219,-1.175713 24.34422,-4.591076 32.53125,-9.40625 -0.0559,-1.163268 -0.15851,-2.236281 -0.3125,-2.75 -0.04417,2.47e-4 -0.11081,-5.21e-4 -0.15625,0 z"
           style="fill:url(#radialGradient5518);fill-opacity:1;fill-rule:evenodd;stroke:none" />
        <path
           style="fill:none;stroke:url(#linearGradient5520);stroke-width:0.2;stroke-miterlimit:4;stroke-opacity:1;stroke-dasharray:none"
           d="m 70.6875,61.5 c -1.955526,0.02892 -3.951914,0.732643 -4.09375,2.34375 -0.107445,1.220462 1.794612,2.23815 1.03125,3.40625 -1.15006,1.759827 -5.088491,0.78125 -7.8125,0.78125 0.01825,3.344002 -0.402346,7.177477 -1,8.3125 -0.644075,1.223184 -1.309933,1.427624 -2.3125,0.78125 -0.718909,-0.463494 -1.699589,-1.71875 -2.59375,-1.71875 -1.273127,0 -2.84375,1.860058 -2.84375,4.625 0,2.764942 1.65858,4.28125 2.90625,4.28125 1.052494,0 2.093162,-0.985884 3.03125,-1.5 1.077732,-0.590647 1.978711,-0.650333 2.15625,0.53125 0.137909,0.917833 0.493928,7.828977 0.589844,9.221094 l 0.06641,0.0039 c 2.795707,0.01564 7.043989,0.598993 8.49375,-0.65625 1.051467,-0.910389 -1.56869,-3.021416 -0.875,-4.3125 0.65804,-1.224733 1.88491,-1.591468 3.84375,-1.5625 1.955526,0.02892 3.983164,0.732643 4.125,2.34375 0.107445,1.220462 -1.825862,2.23815 -1.0625,3.40625 1.15006,1.759827 6.188491,0.78125 8.9125,0.78125 0.233769,-2.52586 0.102412,-8.457091 -1.28125,-9.69375 -1.437371,-0.997382 -1.633157,1.086074 -3.125,0.96875 -1.283499,-0.553851 -2.444177,-2.268916 -2.4375,-4.15625 0.0064,-1.813043 1.127999,-3.795828 2.4375,-4.09375 1.315218,-0.299222 2.763635,1.10982 4.4375,0.625 0.492997,-0.142792 0.472953,-6.609693 0,-8.1875 -2.795707,0.01564 -8.175239,0.598993 -9.625,-0.65625 -1.051467,-0.910389 1.56869,-3.021416 0.875,-4.3125 C 73.87321,61.837767 72.64634,61.471032 70.6875,61.5 z"
           id="path4658"
           inkscape:connector-curvature="0"
           sodipodi:nodetypes="ssscsssssssccssssscccssscsss" />
      </g>
    </g>
    <path
       sodipodi:nodetypes="ccssscccccc"
       inkscape:connector-curvature="0"
       id="path5980"
       d="m 16.5,8.000003 c -0.339844,0 -0.5,0.234618 -0.5,0.5 l 0,109.968747 c 0,0.82158 0.679323,1.49946 1.5,1.5 l 47.5,0.0313 c 0.05308,3e-5 3.273884,-0.008 3.9635,5e-5 6.540972,-4.50366 29.9679,-28.953329 38.91313,-37.955139 1.47685,-1.65649 0.4576,-0.37007 1.45391,-1.60746 l 6e-5,-71.937498 c 0,-0.322717 -0.16322,-0.5 -0.5,-0.5 z"
       style="opacity:0.84653476;fill:url(#radialGradient5988-0);fill-opacity:1" />
    <g
       transform="matrix(2.0262231,0,0,2.0262231,-71.60777,-81.147972)"
       id="g4591"
       clip-path="url(#clipPath3292)">
      <path
         sodipodi:nodetypes="ssssccsssccssssssssssssccssccssssssssssssssssccsscccsssccsssscsscsccccssssssss"
         inkscape:connector-curvature="0"
         id="path4583"
         d="m 70.6875,61.5 c -1.035205,0.01531 -2.078771,0.195296 -2.9375,0.625 -0.858729,0.429704 -1.567917,1.184136 -1.65625,2.1875 -0.07739,0.87908 0.495053,1.505355 0.84375,2.03125 0.174348,0.262948 0.300137,0.512054 0.34375,0.6875 0.04361,0.175446 0.05814,0.252903 -0.0625,0.4375 -0.204415,0.312797 -0.563898,0.520859 -1.0625,0.65625 -0.498602,0.135391 -1.133892,0.19942 -1.84375,0.1875 -1.419717,-0.02384 -3.078122,-0.28125 -4.5,-0.28125 l -0.5,0 0,0.5 c 0.009,1.649997 -0.106425,3.442762 -0.28125,4.9375 -0.174825,1.494738 -0.443015,2.751288 -0.65625,3.15625 -0.294293,0.558901 -0.5681,0.78355 -0.75,0.84375 -0.1819,0.0602 -0.405013,0.03286 -0.84375,-0.25 -0.273708,-0.176464 -0.714885,-0.606774 -1.1875,-1 -0.472615,-0.393226 -1.006447,-0.8125 -1.6875,-0.8125 -0.880066,0 -1.69834,0.597752 -2.3125,1.5 -0.61416,0.902248 -1.03125,2.147854 -1.03125,3.625 0,2.964896 1.753476,4.78125 3.40625,4.78125 0.682366,0 1.273787,-0.296119 1.8125,-0.625 0.538713,-0.328881 1.049495,-0.707729 1.46875,-0.9375 0.493594,-0.270512 0.912743,-0.37167 1.09375,-0.34375 0.0905,0.01396 0.106635,0.03429 0.15625,0.09375 0.04962,0.05946 0.12119,0.172916 0.15625,0.40625 0.02533,0.168594 0.07056,0.820009 0.125,1.625 0.05444,0.804991 0.127937,1.792736 0.1875,2.8125 0.119127,2.039528 0.232285,4.133073 0.28125,4.84375 l 0.01566,0.328125 c 1.326754,0.02205 3.76686,0.211879 5.296876,0.203126 1.6262,-0.0093 3.12593,-0.126592 4.0625,-0.9375 0.412846,-0.357453 0.486086,-0.932763 0.375,-1.375 -0.111086,-0.442237 -0.342611,-0.845881 -0.5625,-1.25 -0.219889,-0.404119 -0.421662,-0.797308 -0.53125,-1.125 -0.109588,-0.327692 -0.115671,-0.530377 -0.03125,-0.6875 0.277549,-0.51657 0.616274,-0.825804 1.15625,-1.03125 0.539976,-0.205446 1.303316,-0.29525 2.25,-0.28125 0.92036,0.01361 1.827622,0.198213 2.5,0.53125 0.672378,0.333037 1.071778,0.770452 1.125,1.375 0.02968,0.337164 -0.295052,0.795468 -0.6875,1.375 -0.196224,0.289766 -0.40093,0.617632 -0.5,1 -0.09907,0.382368 -0.0744,0.849239 0.1875,1.25 0.390582,0.597671 1.068973,0.891372 1.8125,1.0625 0.743527,0.171128 1.607315,0.231376 2.5,0.21875 C 80.00412,93.8185 81.947869,93.5625 83.25,93.5625 l 0.46875,0 L 83.75,93.125 c 0.120986,-1.307248 0.14863,-3.447835 -0.03125,-5.4375 -0.08994,-0.994833 -0.223041,-1.938101 -0.4375,-2.75 C 83.066791,84.125601 82.803552,83.438881 82.3125,83 l -0.03125,-0.03125 -0.03125,0 c -0.430697,-0.298858 -0.886605,-0.429923 -1.28125,-0.34375 -0.394645,0.08617 -0.650826,0.325207 -0.875,0.53125 -0.224174,0.206043 -0.40728,0.409785 -0.59375,0.53125 -0.157951,0.102888 -0.336332,0.121402 -0.53125,0.125 -1.018489,-0.486601 -2.068316,-1.981071 -2.0625,-3.625 0.0028,-0.804062 0.256581,-1.692635 0.65625,-2.375 0.399669,-0.682365 0.955351,-1.116167 1.40625,-1.21875 0.453356,-0.103142 1.03071,0.08438 1.78125,0.34375 0.75054,0.25937 1.657971,0.539143 2.65625,0.25 0.273206,-0.07913 0.352833,-0.233019 0.40625,-0.34375 0.05342,-0.110731 0.09726,-0.226278 0.125,-0.34375 0.05548,-0.234944 0.09377,-0.505248 0.125,-0.84375 0.06246,-0.677004 0.09502,-1.573136 0.09375,-2.5 -0.0013,-0.926864 -0.03194,-1.904177 -0.09375,-2.75 C 84.000687,69.560427 83.894933,68.858507 83.75,68.375 l -0.09375,-0.34375 -0.375,0 c -1.430835,0.008 -3.465311,0.165224 -5.3125,0.15625 -0.923594,-0.0045 -1.791007,-0.0416 -2.5,-0.15625 -0.708993,-0.114649 -1.267731,-0.330145 -1.5,-0.53125 -0.112888,-0.09774 -0.09404,-0.125026 -0.03125,-0.375 0.06279,-0.249974 0.251744,-0.632428 0.46875,-1.03125 0.217006,-0.398822 0.440017,-0.821557 0.59375,-1.28125 0.153733,-0.459693 0.231174,-1.011581 -0.03125,-1.5 -0.380491,-0.708163 -0.959821,-1.191888 -1.6875,-1.46875 C 72.553571,61.566888 71.699656,61.485032 70.6875,61.5 z"
         style="font-size:medium;font-style:normal;font-variant:normal;font-weight:normal;font-stretch:normal;text-indent:0;text-align:start;text-decoration:none;line-height:normal;letter-spacing:normal;word-spacing:normal;text-transform:none;direction:ltr;block-progression:tb;writing-mode:lr-tb;text-anchor:start;baseline-shift:baseline;color:#000000;fill:url(#linearGradient5532);fill-opacity:1;fill-rule:evenodd;stroke:none;stroke-width:0.99999988;marker:none;visibility:visible;display:inline;overflow:visible;filter:url(#filter4587);enable-background:accumulate;font-family:Sans;-inkscape-font-specification:Sans" />
      <path
         style="font-size:medium;font-style:normal;font-variant:normal;font-weight:normal;font-stretch:normal;text-indent:0;text-align:start;text-decoration:none;line-height:normal;letter-spacing:normal;word-spacing:normal;text-transform:none;direction:ltr;block-progression:tb;writing-mode:lr-tb;text-anchor:start;baseline-shift:baseline;color:#000000;fill:url(#linearGradient5534);fill-opacity:1;fill-rule:evenodd;stroke:none;stroke-width:0.99999988;marker:none;visibility:visible;display:inline;overflow:visible;enable-background:accumulate;font-family:Sans;-inkscape-font-specification:Sans"
         d="m 70.6875,61 c -1.035205,0.01531 -2.078771,0.195296 -2.9375,0.625 -0.858729,0.429704 -1.567917,1.184136 -1.65625,2.1875 -0.07739,0.87908 0.495053,1.505355 0.84375,2.03125 0.174348,0.262948 0.300137,0.512054 0.34375,0.6875 0.04361,0.175446 0.05814,0.252903 -0.0625,0.4375 -0.204415,0.312797 -0.563898,0.520859 -1.0625,0.65625 -0.498602,0.135391 -1.133892,0.19942 -1.84375,0.1875 -1.419717,-0.02384 -3.078122,-0.28125 -4.5,-0.28125 l -0.5,0 0,0.5 c 0.009,1.649997 -0.106425,3.442762 -0.28125,4.9375 -0.174825,1.494738 -0.443015,2.751288 -0.65625,3.15625 -0.294293,0.558901 -0.5681,0.78355 -0.75,0.84375 -0.1819,0.0602 -0.405013,0.03286 -0.84375,-0.25 -0.273708,-0.176464 -0.714885,-0.606774 -1.1875,-1 -0.472615,-0.393226 -1.006447,-0.8125 -1.6875,-0.8125 -0.880066,0 -1.69834,0.597752 -2.3125,1.5 -0.61416,0.902248 -1.03125,2.147854 -1.03125,3.625 0,2.964896 1.753476,4.78125 3.40625,4.78125 0.682366,0 1.273787,-0.296119 1.8125,-0.625 0.538713,-0.328881 1.049495,-0.707729 1.46875,-0.9375 0.493594,-0.270512 0.912743,-0.37167 1.09375,-0.34375 0.0905,0.01396 0.106635,0.03429 0.15625,0.09375 0.04962,0.05946 0.12119,0.172916 0.15625,0.40625 0.02533,0.168594 0.07056,0.820009 0.125,1.625 0.05444,0.804991 0.127937,1.792736 0.1875,2.8125 0.119127,2.039528 0.232285,4.133073 0.28125,4.84375 l 0.01566,0.328125 c 1.326754,0.02205 3.76686,0.211879 5.296876,0.203126 1.6262,-0.0093 3.12593,-0.126592 4.0625,-0.9375 0.412846,-0.357453 0.486086,-0.932763 0.375,-1.375 -0.111086,-0.442237 -0.342611,-0.845881 -0.5625,-1.25 -0.219889,-0.404119 -0.421662,-0.797308 -0.53125,-1.125 -0.109588,-0.327692 -0.115671,-0.530377 -0.03125,-0.6875 0.277549,-0.51657 0.616274,-0.825804 1.15625,-1.03125 0.539976,-0.205446 1.303316,-0.29525 2.25,-0.28125 0.92036,0.01361 1.827622,0.198213 2.5,0.53125 0.672378,0.333037 1.071778,0.770452 1.125,1.375 0.02968,0.337164 -0.295052,0.795468 -0.6875,1.375 -0.196224,0.289766 -0.40093,0.617632 -0.5,1 -0.09907,0.382368 -0.0744,0.849239 0.1875,1.25 0.390582,0.597671 1.068973,0.891372 1.8125,1.0625 0.743527,0.171128 1.607315,0.231376 2.5,0.21875 C 80.00412,93.3185 81.947869,93.0625 83.25,93.0625 l 0.46875,0 L 83.75,92.625 c 0.120986,-1.307248 0.14863,-3.447835 -0.03125,-5.4375 -0.08994,-0.994833 -0.223041,-1.938101 -0.4375,-2.75 C 83.066791,83.625601 82.803552,82.938881 82.3125,82.5 l -0.03125,-0.03125 -0.03125,0 c -0.430697,-0.298858 -0.886605,-0.429923 -1.28125,-0.34375 -0.394645,0.08617 -0.650826,0.325207 -0.875,0.53125 -0.224174,0.206043 -0.40728,0.409785 -0.59375,0.53125 -0.157951,0.102888 -0.336332,0.121402 -0.53125,0.125 -1.018489,-0.486601 -2.068316,-1.981071 -2.0625,-3.625 0.0028,-0.804062 0.256581,-1.692635 0.65625,-2.375 0.399669,-0.682365 0.955351,-1.116167 1.40625,-1.21875 0.453356,-0.103142 1.03071,0.08438 1.78125,0.34375 0.75054,0.25937 1.657971,0.539143 2.65625,0.25 0.273206,-0.07913 0.352833,-0.233019 0.40625,-0.34375 0.05342,-0.110731 0.09726,-0.226278 0.125,-0.34375 0.05548,-0.234944 0.09377,-0.505248 0.125,-0.84375 0.06246,-0.677004 0.09502,-1.573136 0.09375,-2.5 -0.0013,-0.926864 -0.03194,-1.904177 -0.09375,-2.75 C 84.000687,69.060427 83.894933,68.358507 83.75,67.875 l -0.09375,-0.34375 -0.375,0 c -1.430835,0.008 -3.465311,0.165224 -5.3125,0.15625 -0.923594,-0.0045 -1.791007,-0.0416 -2.5,-0.15625 -0.708993,-0.114649 -1.267731,-0.330145 -1.5,-0.53125 -0.112888,-0.09774 -0.09404,-0.125026 -0.03125,-0.375 0.06279,-0.249974 0.251744,-0.632428 0.46875,-1.03125 0.217006,-0.398822 0.440017,-0.821557 0.59375,-1.28125 0.153733,-0.459693 0.231174,-1.011581 -0.03125,-1.5 -0.380491,-0.708163 -0.959821,-1.191888 -1.6875,-1.46875 C 72.553571,61.066888 71.699656,60.985032 70.6875,61 z"
         id="path4176"
         inkscape:connector-curvature="0"
         sodipodi:nodetypes="ssssccsssccssssssssssssccssccssssssssssssssssccsscccsssccsssscsscsccccssssssss" />
      <path
         style="fill:url(#radialGradient5536);fill-opacity:1;fill-rule:evenodd;stroke:none"
         d="m 70.6875,61.5 c -1.955526,0.02892 -3.951914,0.732643 -4.09375,2.34375 -0.107445,1.220462 1.794612,2.23815 1.03125,3.40625 -1.15006,1.759827 -5.088491,0.78125 -7.8125,0.78125 0.01825,3.344002 -0.402346,7.177477 -1,8.3125 -0.644075,1.223184 -1.309933,1.427624 -2.3125,0.78125 -0.718909,-0.463494 -1.699589,-1.71875 -2.59375,-1.71875 -1.273127,0 -2.84375,1.860058 -2.84375,4.625 0,2.764942 1.65858,4.28125 2.90625,4.28125 1.052494,0 2.093162,-0.985884 3.03125,-1.5 1.077732,-0.590647 1.978711,-0.650333 2.15625,0.53125 0.137909,0.917833 0.493928,7.828977 0.589844,9.221094 l 0.06641,0.0039 c 2.795707,0.01564 7.043989,0.598993 8.49375,-0.65625 1.051467,-0.910389 -1.56869,-3.021416 -0.875,-4.3125 0.65804,-1.224733 1.88491,-1.591468 3.84375,-1.5625 1.955526,0.02892 3.983164,0.732643 4.125,2.34375 0.107445,1.220462 -1.825862,2.23815 -1.0625,3.40625 1.15006,1.759827 6.188491,0.78125 8.9125,0.78125 0.233769,-2.52586 0.102412,-8.457091 -1.28125,-9.69375 -1.437371,-0.997382 -1.633157,1.086074 -3.125,0.96875 -1.283499,-0.553851 -2.444177,-2.268916 -2.4375,-4.15625 0.0064,-1.813043 1.127999,-3.795828 2.4375,-4.09375 1.315218,-0.299222 2.763635,1.10982 4.4375,0.625 0.492997,-0.142792 0.472953,-6.609693 0,-8.1875 -2.795707,0.01564 -8.175239,0.598993 -9.625,-0.65625 -1.051467,-0.910389 1.56869,-3.021416 0.875,-4.3125 C 73.87321,61.837767 72.64634,61.471032 70.6875,61.5 z"
         id="path10"
         inkscape:connector-curvature="0"
         sodipodi:nodetypes="ssscsssssssccssssscccssscsss" />
      <path
         style="fill:url(#radialGradient5538);fill-opacity:1;fill-rule:evenodd;stroke:none"
         d="m 70.688122,61.5 c -1.95553,0.02892 -3.95191,0.732643 -4.09375,2.34375 -0.0048,0.05421 -0.0028,0.102811 0,0.15625 0.1652,-1.588525 2.15116,-2.283771 4.09375,-2.3125 1.95884,-0.02897 3.18572,0.337773 3.84375,1.5625 0.06768,0.125959 0.11392,0.266558 0.125,0.40625 0.0123,-0.204473 -0.02911,-0.415277 -0.125,-0.59375 -0.65803,-1.224727 -1.88491,-1.591468 -3.84375,-1.5625 z m -2.90625,5.3125 c -0.02126,0.142002 -0.06083,0.291488 -0.15625,0.4375 -1.15006,1.759827 -5.08849,0.78125 -7.8125,0.78125 3.3e-4,0.06113 -4e-5,0.126058 0,0.1875 2.72401,0 6.66244,0.978577 7.8125,-0.78125 0.14313,-0.219019 0.16972,-0.414229 0.15625,-0.625 z m 5.625,0.15625 c -0.0076,0.229394 0.06107,0.430164 0.25,0.59375 1.44977,1.255243 6.8293,0.67189 9.625,0.65625 0.11824,0.394452 0.22056,1.107118 0.28125,1.9375 -0.06055,-0.906769 -0.15477,-1.703062 -0.28125,-2.125 -2.7957,0.01564 -8.17523,0.598993 -9.625,-0.65625 -0.13143,-0.113799 -0.21966,-0.258878 -0.25,-0.40625 z m -13.875,6.0625 c -0.17757,1.518247 -0.41993,2.744989 -0.71875,3.3125 -0.64407,1.223184 -1.30993,1.427624 -2.3125,0.78125 -0.71891,-0.463494 -1.69959,-1.71875 -2.59375,-1.71875 -1.148663,0 -2.520285,1.516983 -2.78125,3.84375 0.318033,-2.208322 1.667264,-3.65625 2.78125,-3.65625 0.89416,0 1.87484,1.255256 2.59375,1.71875 1.00257,0.646374 1.66843,0.441934 2.3125,-0.78125 0.31023,-0.589164 0.54055,-1.902553 0.71875,-3.5 z m 16.875,6.84375 c -0.0067,1.887334 1.15401,3.602399 2.4375,4.15625 1.49185,0.117324 1.68763,-1.966132 3.125,-0.96875 0.69183,0.618329 1.07342,2.421877 1.25,4.375 -0.16904,-2.024718 -0.53617,-3.924517 -1.25,-4.5625 -1.43737,-0.997382 -1.63315,1.086074 -3.125,0.96875 -1.24009,-0.535124 -2.36883,-2.157577 -2.4375,-3.96875 z m -9.09375,8.3125 c -0.09206,1.001832 1.10925,2.326368 1.21875,3.25 0.0837,-0.871882 -1.15523,-2.19434 -1.21875,-3.25 z m 8.0625,0.34375 c -0.04265,0.921479 -1.1111,1.734098 -1.1875,2.59375 0.21666,-0.836226 1.29934,-1.615904 1.21875,-2.53125 -0.0021,-0.02366 -0.02836,-0.03923 -0.03125,-0.0625 z"
         id="path4527"
         inkscape:connector-curvature="0" />
      <path
         inkscape:connector-curvature="0"
         style="fill:url(#radialGradient5540);fill-opacity:1;fill-rule:evenodd;stroke:none"
         d="m 70.6875,61.5 c -1.955526,0.02892 -3.951914,0.732643 -4.09375,2.34375 -0.107445,1.220462 1.794612,2.23815 1.03125,3.40625 -1.15006,1.759827 -5.088491,0.78125 -7.8125,0.78125 0.01825,3.344002 -0.402346,7.177477 -1,8.3125 -0.644075,1.223184 -1.309933,1.427624 -2.3125,0.78125 -0.718909,-0.463494 -1.699589,-1.71875 -2.59375,-1.71875 -1.273127,0 -2.84375,1.860058 -2.84375,4.625 0,0.05551 -0.0013,0.101745 0,0.15625 12.952189,-1.175713 24.344221,-4.591076 32.53125,-9.40625 -0.05589,-1.163268 -0.158511,-2.236281 -0.3125,-2.75 -2.795707,0.01564 -8.175239,0.598993 -9.625,-0.65625 -1.051467,-0.910389 1.56869,-3.021416 0.875,-4.3125 C 73.873206,61.837773 72.64634,61.471032 70.6875,61.5 z"
         id="path4538" />
      <path
         style="opacity:0.61924684;fill:url(#radialGradient5542);fill-opacity:1;fill-rule:evenodd;stroke:none"
         d="m 74.089857,62.46875 c 0.09062,0.118531 0.17457,0.265871 0.25,0.40625 0.69369,1.291084 -1.92647,3.402111 -0.875,4.3125 0.0067,0.0058 0.02442,-0.0057 0.03125,0 -0.58107,-0.98679 1.68158,-2.914609 1.03125,-4.125 -0.12543,-0.233446 -0.26961,-0.419448 -0.4375,-0.59375 z m 9.03125,5.5625 c 0.13334,0.553371 0.23001,1.496171 0.28125,2.5625 -8.1469,4.791572 -19.4703,8.183222 -32.34375,9.375 -1.9e-4,0.02141 0,0.04098 0,0.0625 0,0.05551 -0.001,0.101745 0,0.15625 12.95219,-1.175713 24.34422,-4.591076 32.53125,-9.40625 -0.0559,-1.163268 -0.15851,-2.236281 -0.3125,-2.75 -0.04417,2.47e-4 -0.11081,-5.21e-4 -0.15625,0 z"
         id="path4547"
         inkscape:connector-curvature="0" />
      <path
         sodipodi:nodetypes="ssscsssssssccssssscccssscsss"
         inkscape:connector-curvature="0"
         id="path4571"
         d="m 70.6875,61.5 c -1.955526,0.02892 -3.951914,0.732643 -4.09375,2.34375 -0.107445,1.220462 1.794612,2.23815 1.03125,3.40625 -1.15006,1.759827 -5.088491,0.78125 -7.8125,0.78125 0.01825,3.344002 -0.402346,7.177477 -1,8.3125 -0.644075,1.223184 -1.309933,1.427624 -2.3125,0.78125 -0.718909,-0.463494 -1.699589,-1.71875 -2.59375,-1.71875 -1.273127,0 -2.84375,1.860058 -2.84375,4.625 0,2.764942 1.65858,4.28125 2.90625,4.28125 1.052494,0 2.093162,-0.985884 3.03125,-1.5 1.077732,-0.590647 1.978711,-0.650333 2.15625,0.53125 0.137909,0.917833 0.493928,7.828977 0.589844,9.221094 l 0.06641,0.0039 c 2.795707,0.01564 7.043989,0.598993 8.49375,-0.65625 1.051467,-0.910389 -1.56869,-3.021416 -0.875,-4.3125 0.65804,-1.224733 1.88491,-1.591468 3.84375,-1.5625 1.955526,0.02892 3.983164,0.732643 4.125,2.34375 0.107445,1.220462 -1.825862,2.23815 -1.0625,3.40625 1.15006,1.759827 6.188491,0.78125 8.9125,0.78125 0.233769,-2.52586 0.102412,-8.457091 -1.28125,-9.69375 -1.437371,-0.997382 -1.633157,1.086074 -3.125,0.96875 -1.283499,-0.553851 -2.444177,-2.268916 -2.4375,-4.15625 0.0064,-1.813043 1.127999,-3.795828 2.4375,-4.09375 1.315218,-0.299222 2.763635,1.10982 4.4375,0.625 0.492997,-0.142792 0.472953,-6.609693 0,-8.1875 -2.795707,0.01564 -8.175239,0.598993 -9.625,-0.65625 -1.051467,-0.910389 1.56869,-3.021416 0.875,-4.3125 C 73.87321,61.837767 72.64634,61.471032 70.6875,61.5 z"
         style="fill:none;stroke:url(#linearGradient5544);stroke-width:0.2;stroke-miterlimit:4;stroke-opacity:1;stroke-dasharray:none" />
    </g>
    <path
       style="fill:#000000"
       d=""
       id="path2197" />
    <path
       clip-path="url(#clipPath6093-7)"
       style="opacity:0.34728035;fill:#000000;fill-opacity:1;stroke:none;filter:url(#filter6171-8)"
       d="m 114.4,82.502986 c 0,4.465301 -4.99749,5.909952 -7.47972,7.593625 -5.10854,3.46508 -18.362065,-1.446073 -24.143235,-1.365053 -0.081,5.781159 3.371639,20.976032 -0.09344,26.084572 -1.68367,2.48224 -5.573338,8.68687 -8.483608,8.68687 -2.091359,1.5337 3.488204,8.21101 6.734971,5.31989 9.501888,-8.46107 35.131683,-30.022704 43.350823,-39.262889 2.04044,-2.29392 -4.90514,-9.844666 -9.88579,-7.057015 z"
       id="path6153"
       inkscape:connector-curvature="0"
       sodipodi:nodetypes="cscscssc"
       transform="matrix(1.2774204,0,0,1.2774204,-31.076286,-28.013102)" />
    <path
       sodipodi:nodetypes="cscscssc"
       inkscape:connector-curvature="0"
       id="path6081"
       d="m 113.9,82.502986 c 0,4.465301 -5.09749,6.009952 -7.57972,7.693625 -5.10854,3.46508 -16.139114,2.12536 -21.920284,2.20638 -0.081,5.781159 1.66586,17.304599 -1.79922,22.413139 -1.68367,2.48224 -4.69051,7.98687 -7.60078,7.98687 -2.091359,1.5337 3.488204,11.21101 6.734971,8.31989 9.501888,-8.46107 45.998943,-30.20138 54.218083,-39.441569 2.04044,-2.29392 -17.0724,-11.965986 -22.05305,-9.178335 z"
       style="opacity:0.40099009;fill:#000000;fill-opacity:1;stroke:none;filter:url(#filter6118-4)"
       clip-path="url(#clipPath6093-7)"
       transform="matrix(1.3299764,0,0,1.3299764,-36.963543,-37.156423)" />
    <path
       style="fill:url(#linearGradient3895-3);fill-opacity:1;stroke:none"
       d="m 111.99381,72.570604 c 0,5.938743 -3.72059,8.525082 -7.0219,10.764323 -6.794238,4.608475 -19.95169,4.558319 -27.64051,4.666073 -0.107728,7.688805 0.303611,20.48508 -4.304863,27.27932 -2.239241,3.30132 -7.036253,7.16441 -10.906844,7.16441 3.082925,0 6.307865,-1.7752 10.086567,-5.4327 12.158605,-11.76861 23.097887,-21.459634 34.14469,-33.645117 2.55216,-2.815215 5.64286,-4.843615 5.64286,-10.796309 z"
       id="path6011"
       inkscape:connector-curvature="0"
       sodipodi:nodetypes="cscscssc" />
    <path
       style="fill:#ffffff;fill-opacity:1;stroke:none"
       d="m 112.01875,73.115242 c -0.42084,5.185724 -5.08438,7.318602 -8.17936,9.417895 C 98.818947,85.938464 82.6646,85.3344 74.6648,85.3344 c 0,7.9998 1.619153,23.49711 -2.7864,30.22372 -1.912401,2.91993 -4.654194,5.79882 -8.19598,6.58338 2.633964,-0.48185 5.299865,-2.47561 8.470288,-5.54435 0.451018,-0.51674 0.763801,-0.90298 1.471286,-1.99496 4.608475,-6.79423 4.099678,-18.412383 4.207406,-26.10119 7.68882,-0.107728 20.028368,-0.145785 26.8226,-4.754259 0.619,-0.41986 2.51897,-1.313671 3.06727,-1.861967 2.04322,-2.043229 3.9922,-4.273773 4.29748,-8.769532 z M 63.68242,122.1415 c -0.209681,0.0464 -0.416863,0.0551 -0.623426,0.0831 0.208794,-0.0225 0.412882,-0.0446 0.623426,-0.0831 z"
       id="path6122"
       inkscape:connector-curvature="0"
       sodipodi:nodetypes="cscsccccsscccc" />
    <path
       style="fill:none;stroke:url(#radialGradient3919-5);stroke-width:1.20000005;stroke-linecap:butt;stroke-linejoin:miter;stroke-miterlimit:4;stroke-opacity:1;stroke-dasharray:none;filter:url(#filter3909-6)"
       d="M 117.31456,81.861283 72.639105,125.34835"
       id="path3873"
       inkscape:connector-curvature="0"
       sodipodi:nodetypes="cc"
       clip-path="url(#clipPath3889-6)"
       transform="matrix(1.3299764,0,0,1.3299764,-36.963543,-37.156423)" />
  </g>
</svg>
